<svg xmlns="http://www.w3.org/2000/svg" viewBox="0 0 629.38 75.36"><title>10a</title><g id="Capa_2" data-name="Capa 2"><g id="respuestas_contorno" data-name="respuestas contorno"><path d="M9.73,15.4c-.16,0-.22-.06-.29-.22l-3-6.12H3.15A.13.13,0,0,0,3,9.2v6a.2.2,0,0,1-.22.22H1.28a.2.2,0,0,1-.22-.22V.66A.2.2,0,0,1,1.28.44H6.69c2.79,0,4.69,1.72,4.69,4.31a4.07,4.07,0,0,1-3,4.07l3.19,6.32a.15.15,0,0,1-.13.26ZM9.42,4.75c0-1.56-1-2.48-2.78-2.48H3.15c-.09,0-.14,0-.14.13V7.11a.12.12,0,0,0,.14.13H6.64C8.38,7.24,9.42,6.31,9.42,4.75Z"/><path d="M13.2,12.78a8.25,8.25,0,0,1-.35-2.66,8.17,8.17,0,0,1,.33-2.66,4.06,4.06,0,0,1,4.13-2.84,4.07,4.07,0,0,1,4.14,2.84,9.18,9.18,0,0,1,.33,3,.21.21,0,0,1-.24.22H14.87a.12.12,0,0,0-.13.14,3.9,3.9,0,0,0,.18,1.27,2.6,2.6,0,0,0,2.66,1.83,3.47,3.47,0,0,0,2.71-1.17.22.22,0,0,1,.33,0l.9.81a.2.2,0,0,1,0,.31,5.13,5.13,0,0,1-4.12,1.8A4.07,4.07,0,0,1,13.2,12.78Zm6.56-3.56a.12.12,0,0,0,.13-.13,3.71,3.71,0,0,0-.15-1.19,2.39,2.39,0,0,0-2.43-1.65A2.39,2.39,0,0,0,14.89,7.9a4,4,0,0,0-.15,1.19.12.12,0,0,0,.13.13Z"/><path d="M30.25,15.4a.21.21,0,0,1-.22-.22v-.92h0a3.46,3.46,0,0,1-3.13,1.38c-2,0-3.54-1-3.54-3.16s1.54-3.26,4.12-3.26h2.4A.12.12,0,0,0,30,9.09V8.32c0-1.46-.57-2.07-2.53-2.07A4.13,4.13,0,0,0,24.9,7c-.11.08-.24.08-.3,0L24,6a.24.24,0,0,1,.05-.31,5.87,5.87,0,0,1,3.58-1c3,0,4.14,1,4.14,3.59v7a.21.21,0,0,1-.22.22ZM30,12V10.83a.12.12,0,0,0-.13-.14H27.74c-1.82,0-2.61.53-2.61,1.72s.79,1.65,2.19,1.65C29,14.06,30,13.29,30,12Z"/><path d="M36.94,15.51c-1.85,0-2.58-.88-2.58-2.77V.66a.21.21,0,0,1,.22-.22H36a.21.21,0,0,1,.22.22v12c0,.88.33,1.17,1.06,1.17h.42a.2.2,0,0,1,.22.22v1.27a.21.21,0,0,1-.22.22Z"/><path d="M39.8,2.49a.21.21,0,0,1-.22-.22V.66A.21.21,0,0,1,39.8.44h1.49a.2.2,0,0,1,.22.22V2.27a.2.2,0,0,1-.22.22Zm0,12.91a.21.21,0,0,1-.22-.22V5.08a.21.21,0,0,1,.22-.22h1.41a.21.21,0,0,1,.22.22v10.1a.21.21,0,0,1-.22.22Z"/><path d="M43.82,15.4a.21.21,0,0,1-.22-.22V14a.38.38,0,0,1,.09-.25l5.79-7.19v0H44.11a.2.2,0,0,1-.22-.22V5.08a.21.21,0,0,1,.22-.22h7.35a.21.21,0,0,1,.22.22V6.31a.34.34,0,0,1-.09.25l-5.74,7.13v0h5.61a.21.21,0,0,1,.22.22v1.23a.21.21,0,0,1-.22.22Z"/><path d="M60.19,15.4a.21.21,0,0,1-.22-.22v-.92h0a3.45,3.45,0,0,1-3.12,1.38c-2,0-3.55-1-3.55-3.16s1.54-3.26,4.12-3.26h2.4a.12.12,0,0,0,.13-.13V8.32c0-1.46-.57-2.07-2.53-2.07A4.07,4.07,0,0,0,54.85,7a.2.2,0,0,1-.31,0l-.6-1A.24.24,0,0,1,54,5.65a5.87,5.87,0,0,1,3.58-1c3,0,4.14,1,4.14,3.59v7a.21.21,0,0,1-.22.22ZM59.93,12V10.83a.12.12,0,0,0-.13-.14H57.68c-1.82,0-2.61.53-2.61,1.72s.79,1.65,2.2,1.65C58.92,14.06,59.93,13.29,59.93,12Z"/><path d="M64.57,15.4a.21.21,0,0,1-.22-.22V5.08a.21.21,0,0,1,.22-.22H66a.21.21,0,0,1,.22.22V6.16h0A2.94,2.94,0,0,1,69,4.62a3.26,3.26,0,0,1,2.16.79c.11.11.13.2,0,.31L70.4,6.8a.2.2,0,0,1-.31,0,2.93,2.93,0,0,0-1.63-.5c-1.6,0-2.26,1.25-2.26,3.08v5.76a.21.21,0,0,1-.22.22Z"/><path d="M83.27,15.4a.21.21,0,0,1-.22-.22v-.92h0a3.47,3.47,0,0,1-3.13,1.38c-2,0-3.54-1-3.54-3.16s1.54-3.26,4.11-3.26h2.4A.12.12,0,0,0,83,9.09V8.32c0-1.46-.58-2.07-2.54-2.07A4.12,4.12,0,0,0,77.92,7a.2.2,0,0,1-.31,0L77,6a.24.24,0,0,1,0-.31,5.92,5.92,0,0,1,3.59-1c3,0,4.14,1,4.14,3.59v7a.21.21,0,0,1-.22.22ZM83,12V10.83a.13.13,0,0,0-.14-.14H80.76c-1.83,0-2.62.53-2.62,1.72s.79,1.65,2.2,1.65C82,14.06,83,13.29,83,12Z"/><path d="M94.27,15.4a.21.21,0,0,1-.22-.22V9c0-1.69-.77-2.68-2.35-2.68a2.36,2.36,0,0,0-2.43,2.57v6.27a.2.2,0,0,1-.22.22h-1.4a.2.2,0,0,1-.22-.22V5.08a.2.2,0,0,1,.22-.22h1.4a.2.2,0,0,1,.22.22v1h0a3.32,3.32,0,0,1,3-1.43c2.28,0,3.65,1.56,3.65,4v6.6a.21.21,0,0,1-.22.22Z"/><path d="M104.89,15.4a.21.21,0,0,1-.22-.22v-.92h0a3.45,3.45,0,0,1-3.12,1.38c-2,0-3.54-1-3.54-3.16s1.54-3.26,4.11-3.26h2.4a.12.12,0,0,0,.13-.13V8.32c0-1.46-.57-2.07-2.53-2.07A4.07,4.07,0,0,0,99.55,7a.2.2,0,0,1-.31,0l-.59-1a.23.23,0,0,1,0-.31,5.88,5.88,0,0,1,3.59-1c3,0,4.13,1,4.13,3.59v7a.21.21,0,0,1-.22.22ZM104.63,12V10.83c0-.09,0-.14-.13-.14h-2.11c-1.83,0-2.62.53-2.62,1.72s.79,1.65,2.2,1.65C103.62,14.06,104.63,13.29,104.63,12Zm-3-8.84c-.13,0-.2-.09-.13-.22L103.2.22a.4.4,0,0,1,.37-.22H105a.13.13,0,0,1,.11.22l-2,2.71a.44.44,0,0,1-.42.22Z"/><path d="M111.58,15.51c-1.85,0-2.57-.88-2.57-2.77V.66a.21.21,0,0,1,.22-.22h1.41a.21.21,0,0,1,.22.22v12c0,.88.33,1.17,1,1.17h.42a.2.2,0,0,1,.22.22v1.27a.21.21,0,0,1-.22.22Z"/><path d="M114.44,2.49a.21.21,0,0,1-.22-.22V.66a.21.21,0,0,1,.22-.22h1.5a.21.21,0,0,1,.22.22V2.27a.21.21,0,0,1-.22.22Zm0,12.91a.2.2,0,0,1-.22-.22V5.08a.2.2,0,0,1,.22-.22h1.4a.2.2,0,0,1,.22.22v10.1a.2.2,0,0,1-.22.22Z"/><path d="M118.12,14.06a.21.21,0,0,1,0-.31l.9-1a.23.23,0,0,1,.31,0A5.07,5.07,0,0,0,122.58,14c1.54,0,2.31-.66,2.31-1.6s-.39-1.3-2-1.48l-1.13-.11c-2.06-.22-3.14-1.25-3.14-3,0-2,1.43-3.21,3.91-3.21a6.3,6.3,0,0,1,3.74,1.17.21.21,0,0,1,0,.3l-.75,1a.21.21,0,0,1-.31,0,5.54,5.54,0,0,0-2.84-.85c-1.32,0-2,.59-2,1.45s.51,1.28,2.07,1.43l1.1.11c2.13.2,3.17,1.28,3.17,3,0,2.07-1.5,3.45-4.25,3.45A6.52,6.52,0,0,1,118.12,14.06Z"/><path d="M128.92,2.49a.21.21,0,0,1-.22-.22V.66a.21.21,0,0,1,.22-.22h1.49a.21.21,0,0,1,.22.22V2.27a.21.21,0,0,1-.22.22Zm0,12.91a.21.21,0,0,1-.22-.22V5.08a.21.21,0,0,1,.22-.22h1.41a.21.21,0,0,1,.22.22v10.1a.21.21,0,0,1-.22.22Z"/><path d="M132.59,14.06a.21.21,0,0,1,0-.31l.9-1a.23.23,0,0,1,.31,0A5.07,5.07,0,0,0,137.06,14c1.54,0,2.31-.66,2.31-1.6s-.4-1.3-2.05-1.48l-1.12-.11c-2.07-.22-3.15-1.25-3.15-3,0-2,1.43-3.21,3.92-3.21a6.3,6.3,0,0,1,3.74,1.17c.11.06.11.19,0,.3L140,7a.21.21,0,0,1-.31,0,5.54,5.54,0,0,0-2.84-.85c-1.32,0-2,.59-2,1.45s.5,1.28,2.06,1.43l1.11.11c2.13.2,3.16,1.28,3.16,3,0,2.07-1.49,3.45-4.24,3.45A6.55,6.55,0,0,1,132.59,14.06Z"/><path d="M154.22,15.4a.21.21,0,0,1-.22-.22v-1h0a3.18,3.18,0,0,1-3,1.47,3.48,3.48,0,0,1-3.63-2.53,8.9,8.9,0,0,1-.37-3,8.89,8.89,0,0,1,.37-3A3.49,3.49,0,0,1,151,4.62a3.19,3.19,0,0,1,3,1.45h0V.66a.21.21,0,0,1,.22-.22h1.41a.21.21,0,0,1,.22.22V15.18a.21.21,0,0,1-.22.22Zm-.46-3.08a6.92,6.92,0,0,0,.24-2.2,7,7,0,0,0-.24-2.2,2.5,2.5,0,0,0-4.65,0,7.69,7.69,0,0,0-.24,2.2,7.51,7.51,0,0,0,.24,2.2,2.48,2.48,0,0,0,4.65,0Z"/><path d="M158.29,12.78a8.2,8.2,0,0,1-.36-2.66,8.17,8.17,0,0,1,.33-2.66,4.44,4.44,0,0,1,8.28,0,9.18,9.18,0,0,1,.33,3,.21.21,0,0,1-.24.22H160c-.09,0-.13.05-.13.14A3.93,3.93,0,0,0,160,12.1a2.61,2.61,0,0,0,2.66,1.83,3.44,3.44,0,0,0,2.71-1.17.22.22,0,0,1,.33,0l.9.81a.21.21,0,0,1,0,.31,5.13,5.13,0,0,1-4.12,1.8A4.07,4.07,0,0,1,158.29,12.78Zm6.55-3.56a.12.12,0,0,0,.13-.13,3.71,3.71,0,0,0-.15-1.19,2.6,2.6,0,0,0-4.84,0,3.71,3.71,0,0,0-.15,1.19.12.12,0,0,0,.13.13Z"/><path d="M173.58,15.4a.2.2,0,0,1-.22-.22V5.08a.2.2,0,0,1,.22-.22H175a.2.2,0,0,1,.22.22V6.16h0A2.93,2.93,0,0,1,178,4.62a3.26,3.26,0,0,1,2.16.79c.11.11.13.2,0,.31l-.81,1.08a.2.2,0,0,1-.31,0,3,3,0,0,0-1.63-.5c-1.61,0-2.27,1.25-2.27,3.08v5.76a.2.2,0,0,1-.22.22Z"/><path d="M181.67,2.49a.21.21,0,0,1-.22-.22V.66a.21.21,0,0,1,.22-.22h1.5a.21.21,0,0,1,.22.22V2.27a.21.21,0,0,1-.22.22Zm0,12.91a.2.2,0,0,1-.21-.22V5.08a.2.2,0,0,1,.21-.22h1.41a.2.2,0,0,1,.22.22v10.1a.2.2,0,0,1-.22.22Z"/><path d="M185.78,12.78a8.25,8.25,0,0,1-.35-2.66,8.17,8.17,0,0,1,.33-2.66,4.44,4.44,0,0,1,8.28,0,9.18,9.18,0,0,1,.33,3c0,.14-.09.22-.25.22h-6.66a.13.13,0,0,0-.14.14,3.9,3.9,0,0,0,.18,1.27,2.61,2.61,0,0,0,2.66,1.83,3.44,3.44,0,0,0,2.71-1.17.22.22,0,0,1,.33,0l.9.81a.2.2,0,0,1,0,.31,5.09,5.09,0,0,1-4.11,1.8A4.09,4.09,0,0,1,185.78,12.78Zm6.56-3.56a.12.12,0,0,0,.13-.13,3.71,3.71,0,0,0-.15-1.19,2.6,2.6,0,0,0-4.84,0,3.68,3.68,0,0,0-.16,1.19.12.12,0,0,0,.14.13Z"/><path d="M195.73,14.06a.21.21,0,0,1,0-.31l.9-1a.23.23,0,0,1,.31,0A5.07,5.07,0,0,0,200.2,14c1.53,0,2.3-.66,2.3-1.6s-.39-1.3-2-1.48l-1.12-.11c-2.07-.22-3.15-1.25-3.15-3,0-2,1.43-3.21,3.92-3.21a6.3,6.3,0,0,1,3.74,1.17c.11.06.11.19,0,.3l-.75,1a.21.21,0,0,1-.31,0A5.53,5.53,0,0,0,200,6.23c-1.32,0-2,.59-2,1.45s.51,1.28,2.07,1.43l1.1.11c2.14.2,3.17,1.28,3.17,3,0,2.07-1.5,3.45-4.25,3.45A6.54,6.54,0,0,1,195.73,14.06Z"/><path d="M206.13,18a.21.21,0,0,1,0-.31l.9-.9a.21.21,0,0,1,.33,0,3.5,3.5,0,0,0,2.49,1.06c1.73,0,2.66-.9,2.66-2.84V13.82h0a3,3,0,0,1-2.93,1.45,3.45,3.45,0,0,1-3.54-2.55,8.06,8.06,0,0,1-.36-2.77,8.08,8.08,0,0,1,.36-2.78,3.45,3.45,0,0,1,3.54-2.55,3,3,0,0,1,2.93,1.45h0v-1a.21.21,0,0,1,.22-.22h1.41a.2.2,0,0,1,.21.22v9.86c0,3-1.62,4.66-4.59,4.66A4.76,4.76,0,0,1,206.13,18Zm6.16-6a6.24,6.24,0,0,0,.25-2,6.34,6.34,0,0,0-.25-2,2.37,2.37,0,0,0-4.46,0,6.48,6.48,0,0,0-.27,2,6.37,6.37,0,0,0,.27,2,2.15,2.15,0,0,0,2.22,1.59A2.17,2.17,0,0,0,212.29,12Z"/><path d="M216.83,12.81a7.75,7.75,0,0,1-.36-2.69,7.64,7.64,0,0,1,.36-2.66,4.46,4.46,0,0,1,8.31,0,7.88,7.88,0,0,1,.36,2.66,8,8,0,0,1-.36,2.69,4.47,4.47,0,0,1-8.31,0Zm6.53-.53a6.82,6.82,0,0,0,.24-2.16A6.61,6.61,0,0,0,223.36,8a2.53,2.53,0,0,0-4.75,0,6.61,6.61,0,0,0-.24,2.13,6.82,6.82,0,0,0,.24,2.16,2.53,2.53,0,0,0,4.75,0Z"/><path d="M232.2,15.4a.21.21,0,0,1-.22-.22V.66a.21.21,0,0,1,.22-.22h1.41a.21.21,0,0,1,.22.22V6.07h0a3.22,3.22,0,0,1,3-1.45,3.49,3.49,0,0,1,3.63,2.53,8.89,8.89,0,0,1,.37,3,8.9,8.9,0,0,1-.37,3,3.48,3.48,0,0,1-3.63,2.53,3.21,3.21,0,0,1-3-1.47h0v1a.21.21,0,0,1-.22.22Zm6.52-3.08a7.51,7.51,0,0,0,.24-2.2,7.69,7.69,0,0,0-.24-2.2,2.5,2.5,0,0,0-4.65,0,7,7,0,0,0-.24,2.2,6.92,6.92,0,0,0,.24,2.2,2.48,2.48,0,0,0,4.65,0Z"/><path d="M249.56,15.4a.21.21,0,0,1-.22-.22v-1h0a3.21,3.21,0,0,1-2.88,1.45c-2.31,0-3.65-1.58-3.65-4V5.08a.2.2,0,0,1,.22-.22h1.4a.2.2,0,0,1,.22.22v6.14c0,1.72.77,2.71,2.34,2.71a2.34,2.34,0,0,0,2.37-2.6V5.08a.21.21,0,0,1,.22-.22H251a.21.21,0,0,1,.22.22v10.1a.21.21,0,0,1-.22.22Z"/><path d="M253.19,14.06a.21.21,0,0,1,0-.31l.9-1a.23.23,0,0,1,.31,0A5.07,5.07,0,0,0,257.66,14c1.54,0,2.31-.66,2.31-1.6s-.4-1.3-2.05-1.48l-1.12-.11c-2.07-.22-3.15-1.25-3.15-3,0-2,1.43-3.21,3.92-3.21a6.3,6.3,0,0,1,3.74,1.17c.11.06.11.19,0,.3l-.74,1a.21.21,0,0,1-.31,0,5.54,5.54,0,0,0-2.84-.85c-1.32,0-2,.59-2,1.45S256,9,257.53,9.11l1.1.11c2.13.2,3.16,1.28,3.16,3,0,2.07-1.49,3.45-4.24,3.45A6.55,6.55,0,0,1,253.19,14.06Z"/><path d="M263.51,7.46a4.07,4.07,0,0,1,4.16-2.84,4.24,4.24,0,0,1,3.61,1.78.22.22,0,0,1-.07.31l-1,.79a.2.2,0,0,1-.31,0,2.58,2.58,0,0,0-2.26-1.14A2.29,2.29,0,0,0,265.31,8a7.21,7.21,0,0,0-.24,2.13,7.3,7.3,0,0,0,.24,2.16,2.29,2.29,0,0,0,2.36,1.65,2.59,2.59,0,0,0,2.26-1.15.2.2,0,0,1,.31,0l1,.79a.22.22,0,0,1,.07.31,4.24,4.24,0,0,1-3.61,1.78,4.08,4.08,0,0,1-4.16-2.83,9.08,9.08,0,0,1-.33-2.69A9,9,0,0,1,263.51,7.46Z"/><path d="M279.44,15.4a.21.21,0,0,1-.22-.22v-.92h0a3.47,3.47,0,0,1-3.13,1.38c-2,0-3.54-1-3.54-3.16s1.54-3.26,4.11-3.26H279a.12.12,0,0,0,.13-.13V8.32c0-1.46-.57-2.07-2.53-2.07a4.12,4.12,0,0,0-2.55.75.2.2,0,0,1-.31,0l-.59-1a.23.23,0,0,1,0-.31,5.92,5.92,0,0,1,3.59-1c3,0,4.14,1,4.14,3.59v7a.21.21,0,0,1-.22.22ZM279.17,12V10.83c0-.09,0-.14-.13-.14h-2.11c-1.83,0-2.62.53-2.62,1.72s.79,1.65,2.2,1.65C278.16,14.06,279.17,13.29,279.17,12Z"/><path d="M290.44,15.4a.21.21,0,0,1-.22-.22V9c0-1.69-.77-2.68-2.36-2.68a2.36,2.36,0,0,0-2.42,2.57v6.27a.2.2,0,0,1-.22.22h-1.41a.21.21,0,0,1-.22-.22V5.08a.21.21,0,0,1,.22-.22h1.41a.2.2,0,0,1,.22.22v1h0a3.35,3.35,0,0,1,3-1.43c2.29,0,3.66,1.56,3.66,4v6.6a.21.21,0,0,1-.22.22Z"/><path d="M301.28,15.4a.21.21,0,0,1-.22-.22v-1h0a3.19,3.19,0,0,1-3,1.47,3.47,3.47,0,0,1-3.63-2.53,8.62,8.62,0,0,1-.38-3,8.61,8.61,0,0,1,.38-3,3.48,3.48,0,0,1,3.63-2.53,3.2,3.2,0,0,1,3,1.45h0V.66a.21.21,0,0,1,.22-.22h1.41a.21.21,0,0,1,.22.22V15.18a.21.21,0,0,1-.22.22Zm-.46-3.08a6.63,6.63,0,0,0,.24-2.2,6.75,6.75,0,0,0-.24-2.2,2.49,2.49,0,0,0-4.64,0,7.35,7.35,0,0,0-.24,2.2,7.18,7.18,0,0,0,.24,2.2,2.48,2.48,0,0,0,4.64,0Z"/><path d="M305.35,12.81a8,8,0,0,1-.35-2.69,7.92,7.92,0,0,1,.35-2.66,4.47,4.47,0,0,1,8.32,0,7.92,7.92,0,0,1,.35,2.66,8,8,0,0,1-.35,2.69,4.47,4.47,0,0,1-8.32,0Zm6.54-.53a7.13,7.13,0,0,0,.24-2.16A6.91,6.91,0,0,0,311.89,8a2.54,2.54,0,0,0-4.76,0,6.91,6.91,0,0,0-.24,2.13,7.13,7.13,0,0,0,.24,2.16,2.54,2.54,0,0,0,4.76,0Z"/><path d="M320.73,19.36a.21.21,0,0,1-.22-.22V5.08a.21.21,0,0,1,.22-.22h1.41a.21.21,0,0,1,.22.22v1h0a3.21,3.21,0,0,1,3-1.45A3.48,3.48,0,0,1,329,7.15a8.61,8.61,0,0,1,.38,3,8.62,8.62,0,0,1-.38,3,3.47,3.47,0,0,1-3.63,2.53,3.2,3.2,0,0,1-3-1.47h0v5a.21.21,0,0,1-.22.22Zm6.51-7a7.14,7.14,0,0,0,.25-2.2,7.3,7.3,0,0,0-.25-2.2,2.49,2.49,0,0,0-4.64,0,6.75,6.75,0,0,0-.24,2.2,6.63,6.63,0,0,0,.24,2.2,2.48,2.48,0,0,0,4.64,0Z"/><path d="M331.18,12.81a8,8,0,0,1-.35-2.69,7.92,7.92,0,0,1,.35-2.66,4.47,4.47,0,0,1,8.32,0,7.92,7.92,0,0,1,.35,2.66,8,8,0,0,1-.35,2.69,4.47,4.47,0,0,1-8.32,0Zm6.53-.53a6.77,6.77,0,0,0,.25-2.16A6.57,6.57,0,0,0,337.71,8,2.53,2.53,0,0,0,333,8a6.91,6.91,0,0,0-.24,2.13,7.13,7.13,0,0,0,.24,2.16,2.53,2.53,0,0,0,4.75,0Z"/><path d="M341.21,14.06a.23.23,0,0,1,0-.31l.91-1a.22.22,0,0,1,.3,0A5.07,5.07,0,0,0,345.68,14c1.54,0,2.31-.66,2.31-1.6s-.4-1.3-2.05-1.48l-1.12-.11c-2.07-.22-3.15-1.25-3.15-3,0-2,1.43-3.21,3.92-3.21a6.3,6.3,0,0,1,3.74,1.17.21.21,0,0,1,.05.3l-.75,1a.21.21,0,0,1-.31,0,5.54,5.54,0,0,0-2.84-.85c-1.32,0-2,.59-2,1.45S344,9,345.55,9.11l1.1.11c2.13.2,3.17,1.28,3.17,3,0,2.07-1.5,3.45-4.25,3.45A6.55,6.55,0,0,1,341.21,14.06Z"/><path d="M352,2.49a.21.21,0,0,1-.22-.22V.66A.21.21,0,0,1,352,.44h1.5a.21.21,0,0,1,.22.22V2.27a.21.21,0,0,1-.22.22Zm.05,12.91a.21.21,0,0,1-.22-.22V5.08a.21.21,0,0,1,.22-.22h1.41a.21.21,0,0,1,.22.22v10.1a.21.21,0,0,1-.22.22Z"/><path d="M356.63,15.4a.21.21,0,0,1-.22-.22V.66a.21.21,0,0,1,.22-.22H358a.21.21,0,0,1,.22.22V6.07h0a3.22,3.22,0,0,1,3-1.45,3.49,3.49,0,0,1,3.63,2.53,8.89,8.89,0,0,1,.37,3,8.9,8.9,0,0,1-.37,3,3.48,3.48,0,0,1-3.63,2.53,3.21,3.21,0,0,1-3-1.47h0v1a.21.21,0,0,1-.22.22Zm6.52-3.08a7.51,7.51,0,0,0,.24-2.2,7.69,7.69,0,0,0-.24-2.2,2.5,2.5,0,0,0-4.65,0,7,7,0,0,0-.24,2.2,6.92,6.92,0,0,0,.24,2.2,2.48,2.48,0,0,0,4.65,0Z"/><path d="M369.9,15.51c-1.85,0-2.57-.88-2.57-2.77V.66a.2.2,0,0,1,.22-.22H369a.2.2,0,0,1,.22.22v12c0,.88.33,1.17,1.06,1.17h.42a.2.2,0,0,1,.22.22v1.27a.21.21,0,0,1-.22.22Z"/><path d="M372.3,12.78a8.25,8.25,0,0,1-.35-2.66,8.17,8.17,0,0,1,.33-2.66,4.43,4.43,0,0,1,8.27,0,9.18,9.18,0,0,1,.33,3,.21.21,0,0,1-.24.22H374c-.09,0-.13.05-.13.14A3.93,3.93,0,0,0,374,12.1a2.62,2.62,0,0,0,2.67,1.83,3.43,3.43,0,0,0,2.7-1.17.22.22,0,0,1,.33,0l.91.81a.21.21,0,0,1,0,.31,5.13,5.13,0,0,1-4.12,1.8A4.07,4.07,0,0,1,372.3,12.78Zm6.55-3.56a.12.12,0,0,0,.14-.13,3.68,3.68,0,0,0-.16-1.19,2.6,2.6,0,0,0-4.84,0,3.71,3.71,0,0,0-.15,1.19.12.12,0,0,0,.13.13Z"/><path d="M382.24,14.06a.21.21,0,0,1,0-.31l.9-1a.23.23,0,0,1,.31,0A5.07,5.07,0,0,0,386.71,14c1.54,0,2.31-.66,2.31-1.6s-.4-1.3-2-1.48l-1.12-.11c-2.07-.22-3.15-1.25-3.15-3,0-2,1.43-3.21,3.92-3.21a6.3,6.3,0,0,1,3.74,1.17c.11.06.11.19,0,.3l-.74,1a.21.21,0,0,1-.31,0,5.54,5.54,0,0,0-2.84-.85c-1.32,0-2,.59-2,1.45S385,9,386.58,9.11l1.1.11c2.13.2,3.16,1.28,3.16,3,0,2.07-1.49,3.45-4.24,3.45A6.55,6.55,0,0,1,382.24,14.06Z"/><path d="M403.87,15.4a.21.21,0,0,1-.22-.22v-1h0a3.21,3.21,0,0,1-3,1.47A3.48,3.48,0,0,1,397,13.11a8.9,8.9,0,0,1-.37-3,8.89,8.89,0,0,1,.37-3,3.49,3.49,0,0,1,3.63-2.53,3.22,3.22,0,0,1,3,1.45h0V.66a.21.21,0,0,1,.22-.22h1.41a.21.21,0,0,1,.22.22V15.18a.21.21,0,0,1-.22.22Zm-.46-3.08a6.92,6.92,0,0,0,.24-2.2,7,7,0,0,0-.24-2.2,2.5,2.5,0,0,0-4.65,0,7.69,7.69,0,0,0-.24,2.2,7.51,7.51,0,0,0,.24,2.2,2.48,2.48,0,0,0,4.65,0Z"/><path d="M407.94,12.78a8.2,8.2,0,0,1-.36-2.66,8.46,8.46,0,0,1,.33-2.66,4.44,4.44,0,0,1,8.28,0,9.18,9.18,0,0,1,.33,3,.21.21,0,0,1-.24.22h-6.67c-.09,0-.13.05-.13.14a3.93,3.93,0,0,0,.17,1.27,2.62,2.62,0,0,0,2.67,1.83,3.43,3.43,0,0,0,2.7-1.17.22.22,0,0,1,.33,0l.9.81a.21.21,0,0,1,0,.31,5.13,5.13,0,0,1-4.12,1.8A4.07,4.07,0,0,1,407.94,12.78Zm6.55-3.56a.12.12,0,0,0,.14-.13,3.68,3.68,0,0,0-.16-1.19,2.6,2.6,0,0,0-4.84,0,3.71,3.71,0,0,0-.15,1.19.12.12,0,0,0,.13.13Z"/><path d="M419.18,15.4a.21.21,0,0,1-.22-.22V6.49a.12.12,0,0,0-.13-.13h-.91a.21.21,0,0,1-.22-.22V5.08a.21.21,0,0,1,.22-.22h.91a.12.12,0,0,0,.13-.13v-.9c0-2.49,1-3.39,3.21-3.39H423a.21.21,0,0,1,.23.22V1.94a.21.21,0,0,1-.23.22h-.57c-1.34,0-1.6.28-1.6,1.58v1c0,.09,0,.13.13.13h2a.21.21,0,0,1,.23.22V6.14a.21.21,0,0,1-.23.22h-2c-.09,0-.13,0-.13.13v8.69a.21.21,0,0,1-.22.22Z"/><path d="M424.39,12.78a8.25,8.25,0,0,1-.35-2.66,8.17,8.17,0,0,1,.33-2.66,4.43,4.43,0,0,1,8.27,0,9.18,9.18,0,0,1,.33,3,.21.21,0,0,1-.24.22h-6.67a.12.12,0,0,0-.13.14,3.9,3.9,0,0,0,.18,1.27,2.6,2.6,0,0,0,2.66,1.83,3.44,3.44,0,0,0,2.71-1.17.22.22,0,0,1,.33,0l.9.81a.2.2,0,0,1,0,.31,5.1,5.1,0,0,1-4.11,1.8A4.07,4.07,0,0,1,424.39,12.78ZM431,9.22a.12.12,0,0,0,.13-.13,3.71,3.71,0,0,0-.15-1.19,2.6,2.6,0,0,0-4.84,0,3.68,3.68,0,0,0-.16,1.19.12.12,0,0,0,.13.13Z"/><path d="M434.75,7.46a4.09,4.09,0,0,1,4.16-2.84,4.22,4.22,0,0,1,3.61,1.78c.07.11.07.2-.06.31l-1,.79a.2.2,0,0,1-.31,0,2.59,2.59,0,0,0-2.27-1.14A2.28,2.28,0,0,0,436.56,8a6.89,6.89,0,0,0-.24,2.13,7,7,0,0,0,.24,2.16,2.28,2.28,0,0,0,2.35,1.65,2.6,2.6,0,0,0,2.27-1.15.2.2,0,0,1,.31,0l1,.79c.13.11.13.2.06.31a4.22,4.22,0,0,1-3.61,1.78,4.09,4.09,0,0,1-4.16-2.83,9.43,9.43,0,0,1-.33-2.69A9.35,9.35,0,0,1,434.75,7.46Z"/><path d="M447.63,15.51c-2.05,0-2.84-.92-2.84-3v-6c0-.09-.05-.13-.14-.13h-.88a.21.21,0,0,1-.22-.22V5.08a.21.21,0,0,1,.22-.22h.88c.09,0,.14,0,.14-.13v-3a.2.2,0,0,1,.22-.22h1.4a.2.2,0,0,1,.22.22v3c0,.09.05.13.14.13h1.67a.21.21,0,0,1,.22.22V6.14a.21.21,0,0,1-.22.22h-1.67c-.09,0-.14,0-.14.13v6c0,1.06.4,1.35,1.35,1.35h.46a.2.2,0,0,1,.22.22v1.27a.21.21,0,0,1-.22.22Z"/><path d="M450.35,12.81a8,8,0,0,1-.35-2.69,7.92,7.92,0,0,1,.35-2.66,4.47,4.47,0,0,1,8.32,0,7.92,7.92,0,0,1,.35,2.66,8,8,0,0,1-.35,2.69,4.47,4.47,0,0,1-8.32,0Zm6.54-.53a7.13,7.13,0,0,0,.24-2.16A6.91,6.91,0,0,0,456.89,8a2.54,2.54,0,0,0-4.76,0,6.91,6.91,0,0,0-.24,2.13,7.13,7.13,0,0,0,.24,2.16,2.54,2.54,0,0,0,4.76,0Z"/><path d="M460.38,14.06a.21.21,0,0,1,0-.31l.91-1a.22.22,0,0,1,.3,0A5.1,5.1,0,0,0,464.85,14c1.54,0,2.31-.66,2.31-1.6s-.4-1.3-2.05-1.48L464,10.8c-2.07-.22-3.14-1.25-3.14-3,0-2,1.43-3.21,3.91-3.21a6.3,6.3,0,0,1,3.74,1.17.21.21,0,0,1,.05.3l-.75,1a.21.21,0,0,1-.31,0,5.54,5.54,0,0,0-2.84-.85c-1.32,0-2,.59-2,1.45s.51,1.28,2.07,1.43l1.1.11c2.13.2,3.17,1.28,3.17,3,0,2.07-1.5,3.45-4.25,3.45A6.55,6.55,0,0,1,460.38,14.06Z"/><path d="M475.12,12.78a8.25,8.25,0,0,1-.35-2.66,8.17,8.17,0,0,1,.33-2.66,4.44,4.44,0,0,1,8.28,0,9.47,9.47,0,0,1,.33,3c0,.14-.09.22-.25.22h-6.67a.12.12,0,0,0-.13.14,3.9,3.9,0,0,0,.18,1.27,2.6,2.6,0,0,0,2.66,1.83,3.44,3.44,0,0,0,2.71-1.17.22.22,0,0,1,.33,0l.9.81a.2.2,0,0,1,0,.31,5.09,5.09,0,0,1-4.11,1.8A4.08,4.08,0,0,1,475.12,12.78Zm6.56-3.56a.12.12,0,0,0,.13-.13,3.71,3.71,0,0,0-.15-1.19,2.6,2.6,0,0,0-4.84,0,3.68,3.68,0,0,0-.16,1.19.12.12,0,0,0,.13.13Z"/><path d="M492.64,15.4a.2.2,0,0,1-.22-.22V9c0-1.69-.77-2.68-2.36-2.68a2.36,2.36,0,0,0-2.42,2.57v6.27a.21.21,0,0,1-.22.22H486a.21.21,0,0,1-.22-.22V5.08a.21.21,0,0,1,.22-.22h1.41a.21.21,0,0,1,.22.22v1h0a3.35,3.35,0,0,1,2.95-1.43c2.29,0,3.65,1.56,3.65,4v6.6a.2.2,0,0,1-.22.22Z"/><path d="M503.81,15.51c-1.85,0-2.57-.88-2.57-2.77V.66a.2.2,0,0,1,.22-.22h1.41a.2.2,0,0,1,.21.22v12c0,.88.33,1.17,1.06,1.17h.42a.2.2,0,0,1,.22.22v1.27a.21.21,0,0,1-.22.22Z"/><path d="M512.88,15.4a.2.2,0,0,1-.22-.22v-.92h0a3.44,3.44,0,0,1-3.12,1.38c-2,0-3.54-1-3.54-3.16s1.54-3.26,4.11-3.26h2.4a.12.12,0,0,0,.13-.13V8.32c0-1.46-.57-2.07-2.53-2.07a4.07,4.07,0,0,0-2.55.75.2.2,0,0,1-.31,0l-.59-1a.23.23,0,0,1,0-.31,5.88,5.88,0,0,1,3.59-1c3,0,4.13,1,4.13,3.59v7a.21.21,0,0,1-.22.22ZM512.61,12V10.83c0-.09,0-.14-.13-.14h-2.11c-1.83,0-2.62.53-2.62,1.72s.79,1.65,2.2,1.65C511.6,14.06,512.61,13.29,512.61,12Z"/><path d="M516.31,14.06a.21.21,0,0,1,0-.31l.9-1a.23.23,0,0,1,.31,0A5.07,5.07,0,0,0,520.77,14c1.54,0,2.31-.66,2.31-1.6s-.39-1.3-2-1.48l-1.13-.11c-2.06-.22-3.14-1.25-3.14-3,0-2,1.43-3.21,3.92-3.21a6.35,6.35,0,0,1,3.74,1.17c.11.06.11.19,0,.3l-.75,1a.21.21,0,0,1-.31,0,5.54,5.54,0,0,0-2.84-.85c-1.32,0-2,.59-2,1.45s.51,1.28,2.07,1.43l1.1.11c2.14.2,3.17,1.28,3.17,3,0,2.07-1.5,3.45-4.25,3.45A6.52,6.52,0,0,1,516.31,14.06Z"/><path d="M531,12.78a8.54,8.54,0,0,1-.35-2.66A8.17,8.17,0,0,1,531,7.46a4.44,4.44,0,0,1,8.28,0,9.18,9.18,0,0,1,.33,3c0,.14-.09.22-.25.22h-6.66c-.09,0-.13.05-.13.14a3.93,3.93,0,0,0,.17,1.27,2.61,2.61,0,0,0,2.66,1.83,3.44,3.44,0,0,0,2.71-1.17.22.22,0,0,1,.33,0l.9.81a.2.2,0,0,1,0,.31,5.09,5.09,0,0,1-4.11,1.8A4.09,4.09,0,0,1,531,12.78Zm6.56-3.56a.12.12,0,0,0,.13-.13,3.71,3.71,0,0,0-.15-1.19,2.6,2.6,0,0,0-4.84,0,3.71,3.71,0,0,0-.15,1.19.12.12,0,0,0,.13.13Z"/><path d="M541,14.06a.21.21,0,0,1,0-.31l.9-1a.23.23,0,0,1,.31,0A5.07,5.07,0,0,0,545.46,14c1.54,0,2.31-.66,2.31-1.6s-.4-1.3-2-1.48l-1.12-.11c-2.07-.22-3.15-1.25-3.15-3,0-2,1.43-3.21,3.92-3.21a6.3,6.3,0,0,1,3.74,1.17c.11.06.11.19,0,.3l-.75,1a.2.2,0,0,1-.3,0,5.57,5.57,0,0,0-2.84-.85c-1.32,0-2,.59-2,1.45s.5,1.28,2.06,1.43l1.1.11c2.14.2,3.17,1.28,3.17,3,0,2.07-1.49,3.45-4.24,3.45A6.55,6.55,0,0,1,541,14.06Z"/><path d="M554.67,15.51c-2,0-2.83-.92-2.83-3v-6c0-.09-.05-.13-.14-.13h-.88a.21.21,0,0,1-.22-.22V5.08a.21.21,0,0,1,.22-.22h.88c.09,0,.14,0,.14-.13v-3a.2.2,0,0,1,.21-.22h1.41a.2.2,0,0,1,.22.22v3c0,.09.05.13.14.13h1.67a.21.21,0,0,1,.22.22V6.14a.21.21,0,0,1-.22.22h-1.67c-.09,0-.14,0-.14.13v6c0,1.06.4,1.35,1.35,1.35h.46a.2.2,0,0,1,.22.22v1.27a.21.21,0,0,1-.22.22Z"/><path d="M557.91,15.4a.2.2,0,0,1-.22-.22V5.08a.2.2,0,0,1,.22-.22h1.4a.21.21,0,0,1,.23.22V6.16h0a2.93,2.93,0,0,1,2.79-1.54,3.26,3.26,0,0,1,2.16.79c.11.11.13.2,0,.31l-.81,1.08a.2.2,0,0,1-.31,0,2.93,2.93,0,0,0-1.63-.5c-1.6,0-2.26,1.25-2.26,3.08v5.76a.21.21,0,0,1-.23.22Z"/><path d="M572.45,15.4a.21.21,0,0,1-.22-.22v-1h0a3.22,3.22,0,0,1-2.89,1.45c-2.31,0-3.65-1.58-3.65-4V5.08a.21.21,0,0,1,.22-.22h1.41a.21.21,0,0,1,.22.22v6.14c0,1.72.77,2.71,2.33,2.71a2.34,2.34,0,0,0,2.38-2.6V5.08a.21.21,0,0,1,.22-.22h1.41a.21.21,0,0,1,.22.22v10.1a.21.21,0,0,1-.22.22Z"/><path d="M576.5,7.46a4.07,4.07,0,0,1,4.15-2.84,4.22,4.22,0,0,1,3.61,1.78c.07.11.07.2-.06.31l-1,.79a.2.2,0,0,1-.31,0,2.59,2.59,0,0,0-2.27-1.14A2.28,2.28,0,0,0,578.3,8a7.21,7.21,0,0,0-.24,2.13,7.3,7.3,0,0,0,.24,2.16,2.28,2.28,0,0,0,2.35,1.65,2.6,2.6,0,0,0,2.27-1.15.2.2,0,0,1,.31,0l1,.79c.13.11.13.2.06.31a4.22,4.22,0,0,1-3.61,1.78,4.07,4.07,0,0,1-4.15-2.83,9.08,9.08,0,0,1-.33-2.69A9,9,0,0,1,576.5,7.46Z"/><path d="M589.37,15.51c-2,0-2.84-.92-2.84-3v-6a.12.12,0,0,0-.13-.13h-.88a.2.2,0,0,1-.22-.22V5.08a.2.2,0,0,1,.22-.22h.88a.12.12,0,0,0,.13-.13v-3a.21.21,0,0,1,.22-.22h1.41a.21.21,0,0,1,.22.22v3c0,.09,0,.13.13.13h1.67a.21.21,0,0,1,.22.22V6.14a.21.21,0,0,1-.22.22h-1.67c-.09,0-.13,0-.13.13v6c0,1.06.39,1.35,1.34,1.35h.46a.2.2,0,0,1,.22.22v1.27a.21.21,0,0,1-.22.22Z"/><path d="M599,15.4a.21.21,0,0,1-.22-.22v-1h0a3.21,3.21,0,0,1-2.88,1.45c-2.31,0-3.65-1.58-3.65-4V5.08a.2.2,0,0,1,.22-.22h1.4a.2.2,0,0,1,.22.22v6.14c0,1.72.77,2.71,2.34,2.71a2.34,2.34,0,0,0,2.37-2.6V5.08a.21.21,0,0,1,.22-.22h1.41a.21.21,0,0,1,.22.22v10.1a.21.21,0,0,1-.22.22Z"/><path d="M603.58,15.4a.21.21,0,0,1-.22-.22V5.08a.21.21,0,0,1,.22-.22H605a.21.21,0,0,1,.22.22V6.16h0A2.93,2.93,0,0,1,608,4.62a3.26,3.26,0,0,1,2.16.79c.11.11.13.2,0,.31l-.81,1.08a.2.2,0,0,1-.31,0,2.93,2.93,0,0,0-1.63-.5c-1.6,0-2.26,1.25-2.26,3.08v5.76a.21.21,0,0,1-.22.22Z"/><path d="M617.35,15.4a.21.21,0,0,1-.22-.22v-.92h0A3.47,3.47,0,0,1,614,15.64c-2,0-3.54-1-3.54-3.16s1.54-3.26,4.12-3.26H617a.12.12,0,0,0,.14-.13V8.32c0-1.46-.58-2.07-2.53-2.07A4.13,4.13,0,0,0,612,7c-.11.08-.24.08-.3,0l-.6-1a.24.24,0,0,1,0-.31,5.87,5.87,0,0,1,3.58-1c3,0,4.14,1,4.14,3.59v7a.21.21,0,0,1-.22.22ZM617.09,12V10.83a.13.13,0,0,0-.14-.14h-2.11c-1.82,0-2.62.53-2.62,1.72s.8,1.65,2.2,1.65C616.07,14.06,617.09,13.29,617.09,12Z"/><path d="M620.78,14.06a.21.21,0,0,1,0-.31l.9-1a.23.23,0,0,1,.31,0A5.07,5.07,0,0,0,625.25,14c1.54,0,2.31-.66,2.31-1.6s-.4-1.3-2-1.48l-1.12-.11c-2.07-.22-3.15-1.25-3.15-3,0-2,1.43-3.21,3.92-3.21a6.3,6.3,0,0,1,3.74,1.17c.11.06.11.19,0,.3l-.74,1a.21.21,0,0,1-.31,0,5.54,5.54,0,0,0-2.84-.85c-1.32,0-2,.59-2,1.45s.5,1.28,2.07,1.43l1.1.11c2.13.2,3.16,1.28,3.16,3,0,2.07-1.49,3.45-4.24,3.45A6.55,6.55,0,0,1,620.78,14.06Z"/><path d="M7.61,47.36a.21.21,0,0,1-.22-.22v-5h0a3.19,3.19,0,0,1-3,1.47A3.47,3.47,0,0,1,.75,41.11a8.62,8.62,0,0,1-.38-3,8.61,8.61,0,0,1,.38-3,3.48,3.48,0,0,1,3.63-2.53,3.2,3.2,0,0,1,3,1.45h0v-1a.21.21,0,0,1,.22-.22H9a.21.21,0,0,1,.22.22V47.14a.21.21,0,0,1-.22.22Zm-.46-7a6.63,6.63,0,0,0,.24-2.2,6.75,6.75,0,0,0-.24-2.2,2.23,2.23,0,0,0-2.33-1.58,2.23,2.23,0,0,0-2.31,1.58,7.35,7.35,0,0,0-.24,2.2,7.18,7.18,0,0,0,.24,2.2,2.25,2.25,0,0,0,2.31,1.61A2.26,2.26,0,0,0,7.15,40.32Z"/><path d="M18.59,43.4a.21.21,0,0,1-.22-.22v-1h0a3.21,3.21,0,0,1-2.88,1.45c-2.31,0-3.66-1.58-3.66-4V33.08a.21.21,0,0,1,.22-.22h1.41a.21.21,0,0,1,.22.22v6.14c0,1.72.77,2.71,2.34,2.71a2.34,2.34,0,0,0,2.37-2.6V33.08a.21.21,0,0,1,.22-.22H20a.21.21,0,0,1,.22.22v10.1a.21.21,0,0,1-.22.22Z"/><path d="M22.66,40.78a8.25,8.25,0,0,1-.35-2.66,8.17,8.17,0,0,1,.33-2.66,4.07,4.07,0,0,1,4.14-2.84,4.07,4.07,0,0,1,4.13,2.84,9.18,9.18,0,0,1,.33,3,.21.21,0,0,1-.24.22H24.33c-.09,0-.13.05-.13.14a3.9,3.9,0,0,0,.18,1.27A2.6,2.6,0,0,0,27,41.93a3.47,3.47,0,0,0,2.71-1.17.22.22,0,0,1,.33,0l.9.81a.2.2,0,0,1,0,.31,5.13,5.13,0,0,1-4.12,1.8A4.07,4.07,0,0,1,22.66,40.78Zm6.56-3.56a.12.12,0,0,0,.13-.13,4,4,0,0,0-.15-1.19,2.39,2.39,0,0,0-2.42-1.65,2.39,2.39,0,0,0-2.43,1.65,3.71,3.71,0,0,0-.15,1.19.12.12,0,0,0,.13.13Z"/><path d="M37,42.06a.23.23,0,0,1,0-.31l.91-1a.22.22,0,0,1,.3,0A5.1,5.1,0,0,0,41.47,42c1.54,0,2.31-.66,2.31-1.6s-.4-1.3-2.05-1.48l-1.12-.11c-2.07-.22-3.15-1.25-3.15-3,0-2,1.44-3.21,3.92-3.21a6.3,6.3,0,0,1,3.74,1.17.21.21,0,0,1,.05.3l-.75.95a.21.21,0,0,1-.31,0,5.54,5.54,0,0,0-2.84-.85c-1.32,0-2,.59-2,1.45s.51,1.28,2.07,1.43l1.1.11c2.13.2,3.17,1.28,3.17,3,0,2.07-1.5,3.45-4.25,3.45A6.55,6.55,0,0,1,37,42.06Z"/><path d="M47.34,40.81A8,8,0,0,1,47,38.12a7.92,7.92,0,0,1,.35-2.66,4.08,4.08,0,0,1,4.16-2.84,4.06,4.06,0,0,1,4.16,2.84A7.92,7.92,0,0,1,56,38.12a8,8,0,0,1-.35,2.69,4.09,4.09,0,0,1-4.16,2.83A4.11,4.11,0,0,1,47.34,40.81Zm6.54-.53a7.13,7.13,0,0,0,.24-2.16A6.91,6.91,0,0,0,53.88,36a2.53,2.53,0,0,0-4.75,0,6.57,6.57,0,0,0-.25,2.13,6.77,6.77,0,0,0,.25,2.16,2.53,2.53,0,0,0,4.75,0Z"/><path d="M58.32,47.36a.21.21,0,0,1-.22-.22V33.08a.21.21,0,0,1,.22-.22h1.41a.21.21,0,0,1,.22.22v1h0a3.21,3.21,0,0,1,3-1.45,3.48,3.48,0,0,1,3.63,2.53,8.61,8.61,0,0,1,.38,3,8.62,8.62,0,0,1-.38,3A3.47,3.47,0,0,1,63,43.64a3.2,3.2,0,0,1-3-1.47h0v5a.21.21,0,0,1-.22.22Zm6.51-7a7.14,7.14,0,0,0,.25-2.2,7.3,7.3,0,0,0-.25-2.2,2.49,2.49,0,0,0-4.64,0,7,7,0,0,0-.24,2.2,6.92,6.92,0,0,0,.24,2.2,2.48,2.48,0,0,0,4.64,0Z"/><path d="M68.77,40.81a8,8,0,0,1-.35-2.69,7.92,7.92,0,0,1,.35-2.66,4.47,4.47,0,0,1,8.32,0,7.92,7.92,0,0,1,.35,2.66,8,8,0,0,1-.35,2.69,4.47,4.47,0,0,1-8.32,0Zm6.54-.53a7.13,7.13,0,0,0,.24-2.16A6.91,6.91,0,0,0,75.31,36a2.54,2.54,0,0,0-4.76,0,6.91,6.91,0,0,0-.24,2.13,7.13,7.13,0,0,0,.24,2.16,2.54,2.54,0,0,0,4.76,0Z"/><path d="M79.75,43.4a.21.21,0,0,1-.22-.22V33.08a.21.21,0,0,1,.22-.22h1.41a.21.21,0,0,1,.22.22v1.08h0a2.94,2.94,0,0,1,2.79-1.54,3.26,3.26,0,0,1,2.16.79c.11.11.13.2,0,.31l-.81,1.08a.2.2,0,0,1-.31,0,2.93,2.93,0,0,0-1.63-.5c-1.6,0-2.26,1.25-2.26,3.08v5.76a.21.21,0,0,1-.22.22Z"/><path d="M90.73,43.51c-2,0-2.84-.92-2.84-3v-6a.12.12,0,0,0-.13-.13h-.88a.2.2,0,0,1-.22-.22V33.08a.2.2,0,0,1,.22-.22h.88a.12.12,0,0,0,.13-.13v-3a.21.21,0,0,1,.22-.22h1.41a.21.21,0,0,1,.22.22v3c0,.09,0,.13.13.13h1.67a.21.21,0,0,1,.22.22v1.06a.21.21,0,0,1-.22.22H89.87c-.09,0-.13,0-.13.13v6c0,1.06.39,1.35,1.34,1.35h.46a.2.2,0,0,1,.22.22v1.27a.21.21,0,0,1-.22.22Z"/><path d="M100.12,43.4a.21.21,0,0,1-.22-.22v-.92h0a3.47,3.47,0,0,1-3.13,1.38c-2,0-3.54-1-3.54-3.16s1.54-3.26,4.12-3.26h2.39a.12.12,0,0,0,.14-.13v-.77c0-1.46-.57-2.07-2.53-2.07a4.13,4.13,0,0,0-2.56.75c-.11.08-.24.08-.3,0l-.6-1a.24.24,0,0,1,0-.31,5.87,5.87,0,0,1,3.58-1c3,0,4.14,1,4.14,3.59v7a.21.21,0,0,1-.22.22ZM99.86,40V38.83a.13.13,0,0,0-.14-.14H97.61c-1.82,0-2.62.53-2.62,1.72s.8,1.65,2.2,1.65C98.84,42.06,99.86,41.29,99.86,40Z"/><path d="M104.5,43.4a.21.21,0,0,1-.22-.22V33.08a.21.21,0,0,1,.22-.22h1.41a.21.21,0,0,1,.22.22v1.08h0a2.93,2.93,0,0,1,2.79-1.54,3.26,3.26,0,0,1,2.16.79c.11.11.13.2,0,.31l-.81,1.08a.2.2,0,0,1-.31,0,2.93,2.93,0,0,0-1.63-.5c-1.6,0-2.26,1.25-2.26,3.08v5.76a.21.21,0,0,1-.22.22Z"/><path d="M118.27,43.4a.21.21,0,0,1-.22-.22v-.92h0a3.47,3.47,0,0,1-3.13,1.38c-2,0-3.54-1-3.54-3.16s1.54-3.26,4.12-3.26h2.39a.12.12,0,0,0,.14-.13v-.77c0-1.46-.58-2.07-2.53-2.07a4.13,4.13,0,0,0-2.56.75c-.11.08-.24.08-.3,0l-.6-1a.24.24,0,0,1,0-.31,5.87,5.87,0,0,1,3.58-1c3,0,4.14,1,4.14,3.59v7a.21.21,0,0,1-.22.22ZM118,40V38.83a.13.13,0,0,0-.14-.14h-2.11c-1.82,0-2.62.53-2.62,1.72s.8,1.65,2.2,1.65C117,42.06,118,41.29,118,40Z"/><path d="M129.27,43.4a.21.21,0,0,1-.22-.22V37c0-1.69-.77-2.68-2.35-2.68a2.36,2.36,0,0,0-2.42,2.57v6.27a.21.21,0,0,1-.22.22h-1.41a.21.21,0,0,1-.22-.22V33.08a.21.21,0,0,1,.22-.22h1.41a.21.21,0,0,1,.22.22v1h0a3.34,3.34,0,0,1,3-1.43c2.28,0,3.65,1.56,3.65,4v6.6a.21.21,0,0,1-.22.22Z"/><path d="M144.29,43.4a.2.2,0,0,1-.21-.22v-.92h0a3.44,3.44,0,0,1-3.12,1.38c-2,0-3.54-1-3.54-3.16s1.54-3.26,4.11-3.26h2.4a.12.12,0,0,0,.13-.13v-.77c0-1.46-.57-2.07-2.53-2.07A4.07,4.07,0,0,0,139,35a.2.2,0,0,1-.31,0l-.59-1a.23.23,0,0,1,0-.31,5.9,5.9,0,0,1,3.59-1c3,0,4.13,1,4.13,3.59v7a.2.2,0,0,1-.22.22ZM144,40V38.83c0-.09,0-.14-.13-.14h-2.11c-1.83,0-2.62.53-2.62,1.72s.79,1.65,2.2,1.65C143,42.06,144,41.29,144,40Z"/><path d="M151,43.51c-1.85,0-2.57-.88-2.57-2.77V28.66a.21.21,0,0,1,.22-.22H150a.21.21,0,0,1,.22.22v12c0,.88.33,1.17,1.05,1.17h.42A.2.2,0,0,1,152,42v1.27a.21.21,0,0,1-.22.22Z"/><path d="M158.29,47.36a.2.2,0,0,1-.22-.22V33.08a.2.2,0,0,1,.22-.22h1.41a.2.2,0,0,1,.21.22v1h0a3.19,3.19,0,0,1,3-1.45,3.48,3.48,0,0,1,3.63,2.53,8.63,8.63,0,0,1,.37,3,8.65,8.65,0,0,1-.37,3,3.47,3.47,0,0,1-3.63,2.53,3.18,3.18,0,0,1-3-1.47h0v5a.2.2,0,0,1-.21.22Zm6.51-7a7.18,7.18,0,0,0,.24-2.2,7.35,7.35,0,0,0-.24-2.2,2.49,2.49,0,0,0-4.64,0,6.69,6.69,0,0,0-.25,2.2,6.58,6.58,0,0,0,.25,2.2,2.48,2.48,0,0,0,4.64,0Z"/><path d="M168.74,40.78a8.2,8.2,0,0,1-.36-2.66,8.17,8.17,0,0,1,.33-2.66,4.44,4.44,0,0,1,8.28,0,9.18,9.18,0,0,1,.33,3,.21.21,0,0,1-.24.22h-6.67c-.09,0-.13.05-.13.14a3.93,3.93,0,0,0,.17,1.27,2.62,2.62,0,0,0,2.67,1.83,3.43,3.43,0,0,0,2.7-1.17.22.22,0,0,1,.33,0l.9.81a.21.21,0,0,1,0,.31,5.13,5.13,0,0,1-4.12,1.8A4.07,4.07,0,0,1,168.74,40.78Zm6.55-3.56a.12.12,0,0,0,.13-.13,3.71,3.71,0,0,0-.15-1.19,2.6,2.6,0,0,0-4.84,0,3.71,3.71,0,0,0-.15,1.19.12.12,0,0,0,.13.13Z"/><path d="M179.63,43.4a.2.2,0,0,1-.22-.22V33.08a.2.2,0,0,1,.22-.22H181a.2.2,0,0,1,.22.22v1.08h0a2.93,2.93,0,0,1,2.79-1.54,3.26,3.26,0,0,1,2.16.79c.11.11.13.2,0,.31l-.81,1.08a.2.2,0,0,1-.31,0,3,3,0,0,0-1.63-.5c-1.61,0-2.27,1.25-2.27,3.08v5.76a.2.2,0,0,1-.22.22Z"/><path d="M186.64,42.06a.23.23,0,0,1,0-.31l.91-1a.22.22,0,0,1,.3,0A5.1,5.1,0,0,0,191.11,42c1.54,0,2.31-.66,2.31-1.6s-.4-1.3-2-1.48l-1.13-.11c-2.07-.22-3.14-1.25-3.14-3,0-2,1.43-3.21,3.91-3.21a6.3,6.3,0,0,1,3.74,1.17.21.21,0,0,1,.05.3l-.75.95a.21.21,0,0,1-.31,0,5.54,5.54,0,0,0-2.84-.85c-1.32,0-2,.59-2,1.45s.51,1.28,2.07,1.43l1.1.11c2.13.2,3.17,1.28,3.17,3,0,2.07-1.5,3.45-4.25,3.45A6.55,6.55,0,0,1,186.64,42.06Z"/><path d="M197,40.81a8,8,0,0,1-.35-2.69,7.92,7.92,0,0,1,.35-2.66,4.47,4.47,0,0,1,8.32,0,7.92,7.92,0,0,1,.35,2.66,8,8,0,0,1-.35,2.69,4.47,4.47,0,0,1-8.32,0Zm6.54-.53a7.13,7.13,0,0,0,.24-2.16,6.91,6.91,0,0,0-.24-2.13,2.53,2.53,0,0,0-4.75,0,6.57,6.57,0,0,0-.25,2.13,6.77,6.77,0,0,0,.25,2.16,2.53,2.53,0,0,0,4.75,0Z"/><path d="M214.58,43.4a.21.21,0,0,1-.22-.22V37c0-1.69-.77-2.68-2.35-2.68a2.36,2.36,0,0,0-2.42,2.57v6.27a.21.21,0,0,1-.22.22H208a.21.21,0,0,1-.22-.22V33.08a.21.21,0,0,1,.22-.22h1.41a.21.21,0,0,1,.22.22v1h0a3.35,3.35,0,0,1,2.95-1.43c2.29,0,3.65,1.56,3.65,4v6.6a.21.21,0,0,1-.22.22Z"/><path d="M225.21,43.4a.21.21,0,0,1-.22-.22v-.92h0a3.47,3.47,0,0,1-3.13,1.38c-2,0-3.54-1-3.54-3.16s1.54-3.26,4.12-3.26h2.39a.12.12,0,0,0,.14-.13v-.77c0-1.46-.58-2.07-2.53-2.07a4.13,4.13,0,0,0-2.56.75.2.2,0,0,1-.31,0L219,34a.24.24,0,0,1,0-.31,5.92,5.92,0,0,1,3.59-1c3,0,4.14,1,4.14,3.59v7a.21.21,0,0,1-.22.22ZM225,40V38.83a.13.13,0,0,0-.14-.14H222.7c-1.82,0-2.62.53-2.62,1.72s.8,1.65,2.2,1.65C223.93,42.06,225,41.29,225,40Z"/><path d="M231.9,43.51c-1.85,0-2.58-.88-2.58-2.77V28.66a.21.21,0,0,1,.22-.22H231a.21.21,0,0,1,.22.22v12c0,.88.33,1.17,1.06,1.17h.41a.21.21,0,0,1,.23.22v1.27a.21.21,0,0,1-.23.22Z"/><path d="M234.65,41.07h1.54a.21.21,0,0,1,.22.22v2.05a.74.74,0,0,1-.13.48l-1.37,1.8a.36.36,0,0,1-.28.16.19.19,0,0,1-.2-.2V41.29A.2.2,0,0,1,234.65,41.07Z"/><path d="M249.43,43.4a.21.21,0,0,1-.22-.22v-1h0a3.21,3.21,0,0,1-2.88,1.45c-2.31,0-3.66-1.58-3.66-4V33.08a.21.21,0,0,1,.22-.22h1.41a.21.21,0,0,1,.22.22v6.14c0,1.72.77,2.71,2.33,2.71a2.34,2.34,0,0,0,2.38-2.6V33.08a.21.21,0,0,1,.22-.22h1.41a.21.21,0,0,1,.22.22v10.1a.21.21,0,0,1-.22.22Z"/><path d="M253.06,42.06a.21.21,0,0,1,0-.31l.9-1a.23.23,0,0,1,.31,0A5.07,5.07,0,0,0,257.53,42c1.54,0,2.31-.66,2.31-1.6s-.4-1.3-2-1.48l-1.12-.11c-2.07-.22-3.15-1.25-3.15-3,0-2,1.43-3.21,3.92-3.21a6.3,6.3,0,0,1,3.74,1.17c.11.06.11.19,0,.3l-.75.95a.2.2,0,0,1-.3,0,5.57,5.57,0,0,0-2.84-.85c-1.32,0-2,.59-2,1.45s.5,1.28,2.06,1.43l1.1.11c2.14.2,3.17,1.28,3.17,3,0,2.07-1.49,3.45-4.24,3.45A6.55,6.55,0,0,1,253.06,42.06Z"/><path d="M263.4,40.81a8,8,0,0,1-.35-2.69,7.92,7.92,0,0,1,.35-2.66,4.47,4.47,0,0,1,8.32,0,7.92,7.92,0,0,1,.35,2.66,8,8,0,0,1-.35,2.69,4.47,4.47,0,0,1-8.32,0Zm6.54-.53a7.13,7.13,0,0,0,.24-2.16,6.91,6.91,0,0,0-.24-2.13,2.54,2.54,0,0,0-4.76,0,6.91,6.91,0,0,0-.24,2.13,7.13,7.13,0,0,0,.24,2.16,2.54,2.54,0,0,0,4.76,0Z"/><path d="M285.16,43.4a.21.21,0,0,1-.22-.22v-1h0a3.21,3.21,0,0,1-3,1.47,3.48,3.48,0,0,1-3.63-2.53,8.9,8.9,0,0,1-.37-3,8.89,8.89,0,0,1,.37-3,3.49,3.49,0,0,1,3.63-2.53,3.22,3.22,0,0,1,3,1.45h0V28.66a.21.21,0,0,1,.22-.22h1.41a.21.21,0,0,1,.22.22V43.18a.21.21,0,0,1-.22.22Zm-.46-3.08a6.92,6.92,0,0,0,.24-2.2,7,7,0,0,0-.24-2.2,2.5,2.5,0,0,0-4.65,0,7.69,7.69,0,0,0-.24,2.2,7.51,7.51,0,0,0,.24,2.2,2.48,2.48,0,0,0,4.65,0Z"/><path d="M289.23,40.78a8.25,8.25,0,0,1-.35-2.66,8.17,8.17,0,0,1,.33-2.66,4.43,4.43,0,0,1,8.27,0,9.18,9.18,0,0,1,.33,3,.21.21,0,0,1-.24.22H290.9c-.09,0-.13.05-.13.14a3.93,3.93,0,0,0,.17,1.27,2.62,2.62,0,0,0,2.67,1.83,3.43,3.43,0,0,0,2.7-1.17.22.22,0,0,1,.33,0l.9.81a.21.21,0,0,1,0,.31,5.13,5.13,0,0,1-4.12,1.8A4.07,4.07,0,0,1,289.23,40.78Zm6.55-3.56a.12.12,0,0,0,.14-.13,3.68,3.68,0,0,0-.16-1.19,2.6,2.6,0,0,0-4.84,0,3.71,3.71,0,0,0-.15,1.19.12.12,0,0,0,.13.13Z"/><path d="M304.52,47.36a.2.2,0,0,1-.22-.22V33.08a.2.2,0,0,1,.22-.22h1.41a.2.2,0,0,1,.21.22v1h0a3.2,3.2,0,0,1,3-1.45,3.48,3.48,0,0,1,3.63,2.53,8.63,8.63,0,0,1,.37,3,8.65,8.65,0,0,1-.37,3,3.47,3.47,0,0,1-3.63,2.53,3.19,3.19,0,0,1-3-1.47h0v5a.2.2,0,0,1-.21.22Zm6.51-7a7.18,7.18,0,0,0,.24-2.2,7.35,7.35,0,0,0-.24-2.2,2.49,2.49,0,0,0-4.64,0,6.69,6.69,0,0,0-.25,2.2,6.58,6.58,0,0,0,.25,2.2,2.48,2.48,0,0,0,4.64,0Z"/><path d="M315.47,43.4a.21.21,0,0,1-.22-.22V33.08a.21.21,0,0,1,.22-.22h1.41a.21.21,0,0,1,.22.22v1.08h0a2.94,2.94,0,0,1,2.8-1.54,3.26,3.26,0,0,1,2.15.79c.11.11.14.2.05.31l-.82,1.08a.19.19,0,0,1-.3,0,3,3,0,0,0-1.63-.5c-1.61,0-2.27,1.25-2.27,3.08v5.76a.21.21,0,0,1-.22.22Z"/><path d="M322.71,40.81a8,8,0,0,1-.35-2.69,7.92,7.92,0,0,1,.35-2.66,4.47,4.47,0,0,1,8.32,0,7.92,7.92,0,0,1,.35,2.66,8,8,0,0,1-.35,2.69,4.47,4.47,0,0,1-8.32,0Zm6.54-.53a7.13,7.13,0,0,0,.24-2.16,6.91,6.91,0,0,0-.24-2.13,2.54,2.54,0,0,0-4.76,0,6.91,6.91,0,0,0-.24,2.13,7.13,7.13,0,0,0,.24,2.16,2.54,2.54,0,0,0,4.76,0Z"/><path d="M333.16,35.46a4.07,4.07,0,0,1,4.16-2.84,4.24,4.24,0,0,1,3.61,1.78.22.22,0,0,1-.07.31l-1,.79a.2.2,0,0,1-.31,0,2.57,2.57,0,0,0-2.26-1.14A2.29,2.29,0,0,0,335,36a7.21,7.21,0,0,0-.24,2.13,7.3,7.3,0,0,0,.24,2.16,2.29,2.29,0,0,0,2.36,1.65,2.57,2.57,0,0,0,2.26-1.15.2.2,0,0,1,.31,0l1,.79a.22.22,0,0,1,.07.31,4.24,4.24,0,0,1-3.61,1.78,4.08,4.08,0,0,1-4.16-2.83,9.08,9.08,0,0,1-.33-2.69A9,9,0,0,1,333.16,35.46Z"/><path d="M342.42,40.78a8.25,8.25,0,0,1-.35-2.66,8.17,8.17,0,0,1,.33-2.66,4.43,4.43,0,0,1,8.27,0,9.18,9.18,0,0,1,.33,3c0,.14-.08.22-.24.22h-6.67a.12.12,0,0,0-.13.14,3.9,3.9,0,0,0,.18,1.27,2.6,2.6,0,0,0,2.66,1.83,3.46,3.46,0,0,0,2.71-1.17.22.22,0,0,1,.33,0l.9.81a.2.2,0,0,1,0,.31,5.09,5.09,0,0,1-4.11,1.8A4.07,4.07,0,0,1,342.42,40.78ZM349,37.22a.12.12,0,0,0,.13-.13A3.71,3.71,0,0,0,349,35.9a2.6,2.6,0,0,0-4.84,0,3.68,3.68,0,0,0-.16,1.19.12.12,0,0,0,.13.13Z"/><path d="M359.69,43.4a.21.21,0,0,1-.22-.22v-1h0a3.2,3.2,0,0,1-3,1.47,3.47,3.47,0,0,1-3.63-2.53,8.62,8.62,0,0,1-.38-3,8.61,8.61,0,0,1,.38-3,3.48,3.48,0,0,1,3.63-2.53,3.21,3.21,0,0,1,3,1.45h0V28.66a.21.21,0,0,1,.22-.22h1.41a.21.21,0,0,1,.22.22V43.18a.21.21,0,0,1-.22.22Zm-.46-3.08a6.63,6.63,0,0,0,.24-2.2,6.75,6.75,0,0,0-.24-2.2,2.49,2.49,0,0,0-4.64,0,7.35,7.35,0,0,0-.24,2.2,7.18,7.18,0,0,0,.24,2.2,2.48,2.48,0,0,0,4.64,0Z"/><path d="M364.22,30.49a.21.21,0,0,1-.22-.22V28.66a.21.21,0,0,1,.22-.22h1.5a.21.21,0,0,1,.22.22v1.61a.21.21,0,0,1-.22.22Zm0,12.91a.2.2,0,0,1-.22-.22V33.08a.2.2,0,0,1,.22-.22h1.41a.21.21,0,0,1,.22.22v10.1a.21.21,0,0,1-.22.22Z"/><path d="M382.09,43.4a.21.21,0,0,1-.22-.22V37c0-1.69-.77-2.68-2.36-2.68a2.38,2.38,0,0,0-2.42,2.57v6.27a.2.2,0,0,1-.21.22h-1.41a.2.2,0,0,1-.22-.22V37c0-1.69-.77-2.68-2.36-2.68a2.36,2.36,0,0,0-2.42,2.57v6.27a.21.21,0,0,1-.22.22h-1.41a.21.21,0,0,1-.22-.22V33.08a.21.21,0,0,1,.22-.22h1.41a.21.21,0,0,1,.22.22v1h0a3.35,3.35,0,0,1,2.95-1.43,3.3,3.3,0,0,1,3.08,1.65h0A4,4,0,0,1,380,32.62c2.44,0,3.76,1.56,3.76,4v6.6a.21.21,0,0,1-.22.22Z"/><path d="M386.51,30.49a.21.21,0,0,1-.22-.22V28.66a.21.21,0,0,1,.22-.22H388a.2.2,0,0,1,.21.22v1.61a.2.2,0,0,1-.21.22Zm0,12.91a.21.21,0,0,1-.22-.22V33.08a.21.21,0,0,1,.22-.22H388a.21.21,0,0,1,.22.22v10.1a.21.21,0,0,1-.22.22Z"/><path d="M390.62,40.78a8.25,8.25,0,0,1-.35-2.66,8.17,8.17,0,0,1,.33-2.66,4.43,4.43,0,0,1,8.27,0,9.18,9.18,0,0,1,.33,3c0,.14-.08.22-.24.22h-6.67a.12.12,0,0,0-.13.14,3.9,3.9,0,0,0,.18,1.27A2.6,2.6,0,0,0,395,41.93a3.47,3.47,0,0,0,2.71-1.17.22.22,0,0,1,.33,0l.9.81a.2.2,0,0,1,0,.31,5.09,5.09,0,0,1-4.11,1.8A4.07,4.07,0,0,1,390.62,40.78Zm6.56-3.56a.12.12,0,0,0,.13-.13,3.71,3.71,0,0,0-.15-1.19,2.6,2.6,0,0,0-4.84,0,3.68,3.68,0,0,0-.16,1.19.12.12,0,0,0,.13.13Z"/><path d="M408.13,43.4a.2.2,0,0,1-.21-.22V37c0-1.69-.78-2.68-2.36-2.68a2.36,2.36,0,0,0-2.42,2.57v6.27a.21.21,0,0,1-.22.22h-1.41a.21.21,0,0,1-.22-.22V33.08a.21.21,0,0,1,.22-.22h1.41a.21.21,0,0,1,.22.22v1h0a3.35,3.35,0,0,1,2.95-1.43c2.29,0,3.65,1.56,3.65,4v6.6a.2.2,0,0,1-.22.22Z"/><path d="M415.44,43.51c-2.05,0-2.84-.92-2.84-3v-6c0-.09,0-.13-.13-.13h-.88a.21.21,0,0,1-.22-.22V33.08a.21.21,0,0,1,.22-.22h.88c.09,0,.13,0,.13-.13v-3a.21.21,0,0,1,.22-.22h1.41a.21.21,0,0,1,.22.22v3c0,.09,0,.13.13.13h1.67a.21.21,0,0,1,.22.22v1.06a.21.21,0,0,1-.22.22h-1.67c-.09,0-.13,0-.13.13v6c0,1.06.39,1.35,1.34,1.35h.46a.2.2,0,0,1,.22.22v1.27a.21.21,0,0,1-.22.22Z"/><path d="M418.17,40.81a7.75,7.75,0,0,1-.36-2.69,7.64,7.64,0,0,1,.36-2.66,4.46,4.46,0,0,1,8.31,0,7.92,7.92,0,0,1,.35,2.66,8,8,0,0,1-.35,2.69,4.47,4.47,0,0,1-8.31,0Zm6.53-.53a6.82,6.82,0,0,0,.24-2.16A6.61,6.61,0,0,0,424.7,36,2.53,2.53,0,0,0,420,36a6.61,6.61,0,0,0-.24,2.13,6.82,6.82,0,0,0,.24,2.16,2.53,2.53,0,0,0,4.75,0Z"/><path d="M428.2,42.06a.21.21,0,0,1,0-.31l.9-1a.23.23,0,0,1,.31,0A5.07,5.07,0,0,0,432.66,42c1.54,0,2.31-.66,2.31-1.6s-.39-1.3-2-1.48l-1.12-.11c-2.07-.22-3.15-1.25-3.15-3,0-2,1.43-3.21,3.92-3.21a6.3,6.3,0,0,1,3.74,1.17c.11.06.11.19,0,.3l-.75.95a.21.21,0,0,1-.31,0,5.53,5.53,0,0,0-2.83-.85c-1.32,0-2,.59-2,1.45s.51,1.28,2.07,1.43l1.1.11c2.14.2,3.17,1.28,3.17,3,0,2.07-1.5,3.45-4.25,3.45A6.52,6.52,0,0,1,428.2,42.06Z"/><path d="M442.94,40.78a8.2,8.2,0,0,1-.36-2.66,8.12,8.12,0,0,1,.34-2.66,4.43,4.43,0,0,1,8.27,0,9.18,9.18,0,0,1,.33,3,.21.21,0,0,1-.24.22h-6.67c-.09,0-.13.05-.13.14a3.93,3.93,0,0,0,.17,1.27,2.62,2.62,0,0,0,2.67,1.83,3.43,3.43,0,0,0,2.7-1.17.22.22,0,0,1,.33,0l.9.81a.21.21,0,0,1,0,.31,5.13,5.13,0,0,1-4.12,1.8A4.07,4.07,0,0,1,442.94,40.78Zm6.55-3.56a.12.12,0,0,0,.14-.13,3.68,3.68,0,0,0-.16-1.19,2.6,2.6,0,0,0-4.84,0,3.71,3.71,0,0,0-.15,1.19.12.12,0,0,0,.13.13Z"/><path d="M452.88,42.06a.21.21,0,0,1,0-.31l.9-1a.23.23,0,0,1,.31,0A5.07,5.07,0,0,0,457.35,42c1.54,0,2.31-.66,2.31-1.6s-.4-1.3-2.05-1.48l-1.12-.11c-2.07-.22-3.15-1.25-3.15-3,0-2,1.43-3.21,3.92-3.21A6.3,6.3,0,0,1,461,33.79c.11.06.11.19,0,.3l-.74.95a.21.21,0,0,1-.31,0,5.54,5.54,0,0,0-2.84-.85c-1.32,0-2,.59-2,1.45s.5,1.28,2.06,1.43l1.11.11c2.13.2,3.16,1.28,3.16,3,0,2.07-1.49,3.45-4.24,3.45A6.55,6.55,0,0,1,452.88,42.06Z"/><path d="M466.56,43.51c-2,0-2.83-.92-2.83-3v-6c0-.09-.05-.13-.14-.13h-.88a.21.21,0,0,1-.22-.22V33.08a.21.21,0,0,1,.22-.22h.88c.09,0,.14,0,.14-.13v-3a.2.2,0,0,1,.22-.22h1.4a.2.2,0,0,1,.22.22v3c0,.09.05.13.14.13h1.67a.21.21,0,0,1,.22.22v1.06a.21.21,0,0,1-.22.22h-1.67c-.09,0-.14,0-.14.13v6c0,1.06.4,1.35,1.35,1.35h.46a.2.2,0,0,1,.22.22v1.27a.21.21,0,0,1-.22.22Z"/><path d="M476,43.4a.21.21,0,0,1-.22-.22v-.92h0a3.47,3.47,0,0,1-3.13,1.38c-2,0-3.54-1-3.54-3.16s1.54-3.26,4.11-3.26h2.4a.12.12,0,0,0,.14-.13v-.77c0-1.46-.58-2.07-2.54-2.07a4.12,4.12,0,0,0-2.55.75.2.2,0,0,1-.31,0l-.59-1a.24.24,0,0,1,0-.31,5.92,5.92,0,0,1,3.59-1c3,0,4.14,1,4.14,3.59v7a.21.21,0,0,1-.22.22ZM475.7,40V38.83a.13.13,0,0,0-.14-.14h-2.11c-1.82,0-2.62.53-2.62,1.72s.8,1.65,2.2,1.65C474.68,42.06,475.7,41.29,475.7,40Z"/><path d="M480.34,43.4a.2.2,0,0,1-.22-.22V28.66a.2.2,0,0,1,.22-.22h1.4a.2.2,0,0,1,.22.22v5.41h0a3.19,3.19,0,0,1,3-1.45,3.49,3.49,0,0,1,3.63,2.53,8.63,8.63,0,0,1,.37,3,8.65,8.65,0,0,1-.37,3A3.48,3.48,0,0,1,485,43.64a3.18,3.18,0,0,1-3-1.47h0v1a.2.2,0,0,1-.22.22Zm6.51-3.08a7.18,7.18,0,0,0,.24-2.2,7.35,7.35,0,0,0-.24-2.2,2.49,2.49,0,0,0-4.64,0,6.69,6.69,0,0,0-.25,2.2,6.58,6.58,0,0,0,.25,2.2,2.48,2.48,0,0,0,4.64,0Z"/><path d="M493.6,43.51c-1.85,0-2.57-.88-2.57-2.77V28.66a.21.21,0,0,1,.22-.22h1.41a.21.21,0,0,1,.22.22v12c0,.88.33,1.17,1.05,1.17h.42a.2.2,0,0,1,.22.22v1.27a.21.21,0,0,1-.22.22Z"/><path d="M496,40.78a8.25,8.25,0,0,1-.35-2.66,8.17,8.17,0,0,1,.33-2.66,4.43,4.43,0,0,1,8.27,0,9.18,9.18,0,0,1,.33,3,.21.21,0,0,1-.24.22h-6.67c-.09,0-.13.05-.13.14a3.9,3.9,0,0,0,.18,1.27,2.6,2.6,0,0,0,2.66,1.83,3.43,3.43,0,0,0,2.7-1.17c.12-.11.22-.13.33,0l.91.81a.2.2,0,0,1,0,.31,5.13,5.13,0,0,1-4.12,1.8A4.07,4.07,0,0,1,496,40.78Zm6.56-3.56a.12.12,0,0,0,.13-.13,4,4,0,0,0-.15-1.19,2.61,2.61,0,0,0-4.85,0,3.71,3.71,0,0,0-.15,1.19.12.12,0,0,0,.13.13Z"/><path d="M506.36,35.46a4.09,4.09,0,0,1,4.16-2.84,4.22,4.22,0,0,1,3.61,1.78c.07.11.07.2-.07.31l-1,.79a.19.19,0,0,1-.3,0,2.59,2.59,0,0,0-2.27-1.14A2.28,2.28,0,0,0,508.17,36a6.85,6.85,0,0,0-.25,2.13,6.94,6.94,0,0,0,.25,2.16,2.28,2.28,0,0,0,2.35,1.65,2.6,2.6,0,0,0,2.27-1.15.19.19,0,0,1,.3,0l1,.79c.14.11.14.2.07.31a4.22,4.22,0,0,1-3.61,1.78,4.09,4.09,0,0,1-4.16-2.83,9.08,9.08,0,0,1-.33-2.69A9,9,0,0,1,506.36,35.46Z"/><path d="M516.35,30.49a.21.21,0,0,1-.22-.22V28.66a.21.21,0,0,1,.22-.22h1.5a.21.21,0,0,1,.22.22v1.61a.21.21,0,0,1-.22.22Zm0,12.91a.21.21,0,0,1-.22-.22V33.08a.21.21,0,0,1,.22-.22h1.41a.21.21,0,0,1,.22.22v10.1a.21.21,0,0,1-.22.22Z"/><path d="M527.35,43.4a.21.21,0,0,1-.22-.22v-1h0a3.2,3.2,0,0,1-3,1.47,3.48,3.48,0,0,1-3.64-2.53,8.9,8.9,0,0,1-.37-3,8.89,8.89,0,0,1,.37-3,3.49,3.49,0,0,1,3.64-2.53,3.21,3.21,0,0,1,3,1.45h0V28.66a.21.21,0,0,1,.22-.22h1.41a.21.21,0,0,1,.22.22V43.18a.21.21,0,0,1-.22.22Zm-.46-3.08a6.92,6.92,0,0,0,.24-2.2,7,7,0,0,0-.24-2.2,2.49,2.49,0,0,0-4.64,0,7.3,7.3,0,0,0-.25,2.2,7.14,7.14,0,0,0,.25,2.2,2.48,2.48,0,0,0,4.64,0Z"/><path d="M531.42,40.81a8,8,0,0,1-.35-2.69,7.92,7.92,0,0,1,.35-2.66,4.47,4.47,0,0,1,8.32,0,7.92,7.92,0,0,1,.35,2.66,8,8,0,0,1-.35,2.69,4.47,4.47,0,0,1-8.32,0Zm6.53-.53a6.77,6.77,0,0,0,.25-2.16A6.57,6.57,0,0,0,538,36a2.53,2.53,0,0,0-4.75,0,6.91,6.91,0,0,0-.24,2.13,7.13,7.13,0,0,0,.24,2.16,2.53,2.53,0,0,0,4.75,0Z"/><path d="M541.45,42.06a.21.21,0,0,1,0-.31l.9-1a.23.23,0,0,1,.31,0A5.07,5.07,0,0,0,545.92,42c1.54,0,2.31-.66,2.31-1.6s-.4-1.3-2.05-1.48l-1.12-.11c-2.07-.22-3.15-1.25-3.15-3,0-2,1.43-3.21,3.92-3.21a6.3,6.3,0,0,1,3.74,1.17c.11.06.11.19,0,.3l-.74.95a.21.21,0,0,1-.31,0,5.54,5.54,0,0,0-2.84-.85c-1.32,0-2,.59-2,1.45s.5,1.28,2.07,1.43l1.09.11c2.14.2,3.17,1.28,3.17,3,0,2.07-1.49,3.45-4.24,3.45A6.55,6.55,0,0,1,541.45,42.06Z"/><path d="M556.7,47.36a.2.2,0,0,1-.22-.22V33.08a.2.2,0,0,1,.22-.22h1.41a.2.2,0,0,1,.21.22v1h0a3.19,3.19,0,0,1,3-1.45A3.48,3.48,0,0,1,565,35.15a8.63,8.63,0,0,1,.37,3,8.65,8.65,0,0,1-.37,3,3.47,3.47,0,0,1-3.63,2.53,3.18,3.18,0,0,1-3-1.47h0v5a.2.2,0,0,1-.21.22Zm6.51-7a7.18,7.18,0,0,0,.24-2.2,7.35,7.35,0,0,0-.24-2.2,2.49,2.49,0,0,0-4.64,0,6.69,6.69,0,0,0-.25,2.2,6.58,6.58,0,0,0,.25,2.2,2.48,2.48,0,0,0,4.64,0Z"/><path d="M573.81,43.4a.21.21,0,0,1-.22-.22v-.92h0a3.45,3.45,0,0,1-3.12,1.38c-2,0-3.55-1-3.55-3.16s1.55-3.26,4.12-3.26h2.4a.12.12,0,0,0,.13-.13v-.77c0-1.46-.57-2.07-2.53-2.07a4.07,4.07,0,0,0-2.55.75.2.2,0,0,1-.31,0l-.6-1a.24.24,0,0,1,.05-.31,5.88,5.88,0,0,1,3.59-1c3,0,4.13,1,4.13,3.59v7a.21.21,0,0,1-.22.22ZM573.55,40V38.83c0-.09,0-.14-.13-.14H571.3c-1.82,0-2.61.53-2.61,1.72s.79,1.65,2.2,1.65C572.54,42.06,573.55,41.29,573.55,40Z"/><path d="M578.19,43.4a.21.21,0,0,1-.22-.22V33.08a.21.21,0,0,1,.22-.22h1.41a.21.21,0,0,1,.22.22v1.08h0a2.94,2.94,0,0,1,2.79-1.54,3.26,3.26,0,0,1,2.16.79c.11.11.13.2.05.31L584,34.8a.2.2,0,0,1-.31,0,2.93,2.93,0,0,0-1.63-.5c-1.6,0-2.26,1.25-2.26,3.08v5.76a.21.21,0,0,1-.22.22Z"/><path d="M592,43.4a.21.21,0,0,1-.22-.22v-.92h0a3.45,3.45,0,0,1-3.12,1.38c-2,0-3.55-1-3.55-3.16s1.54-3.26,4.12-3.26h2.4a.12.12,0,0,0,.13-.13v-.77c0-1.46-.57-2.07-2.53-2.07a4.07,4.07,0,0,0-2.55.75.2.2,0,0,1-.31,0l-.6-1a.24.24,0,0,1,0-.31,5.87,5.87,0,0,1,3.58-1c3,0,4.14,1,4.14,3.59v7a.21.21,0,0,1-.22.22ZM591.7,40V38.83a.12.12,0,0,0-.13-.14h-2.11c-1.83,0-2.62.53-2.62,1.72s.79,1.65,2.2,1.65C590.69,42.06,591.7,41.29,591.7,40Z"/><path d="M4.07,71.51c-2.05,0-2.84-.92-2.84-3v-6c0-.09,0-.13-.13-.13H.22A.21.21,0,0,1,0,62.14V61.08a.21.21,0,0,1,.22-.22H1.1c.09,0,.13,0,.13-.13v-3a.21.21,0,0,1,.22-.22H2.86a.21.21,0,0,1,.22.22v3a.12.12,0,0,0,.13.13H4.88a.21.21,0,0,1,.23.22v1.06a.21.21,0,0,1-.23.22H3.21a.12.12,0,0,0-.13.13v6c0,1.06.4,1.35,1.34,1.35h.46a.21.21,0,0,1,.23.22v1.27a.21.21,0,0,1-.23.22Z"/><path d="M7.3,71.4a.21.21,0,0,1-.22-.22V61.08a.21.21,0,0,1,.22-.22H8.71a.21.21,0,0,1,.22.22v1.08H9a3,3,0,0,1,2.8-1.54,3.24,3.24,0,0,1,2.15.79c.12.11.14.2,0,.31l-.82,1.08a.19.19,0,0,1-.3,0,3,3,0,0,0-1.63-.5c-1.61,0-2.27,1.25-2.27,3.08v5.76a.21.21,0,0,1-.22.22Z"/><path d="M21.08,71.4a.21.21,0,0,1-.22-.22v-.92h0a3.44,3.44,0,0,1-3.12,1.38c-2,0-3.54-1-3.54-3.16s1.54-3.26,4.11-3.26h2.4a.12.12,0,0,0,.13-.13v-.77c0-1.46-.57-2.07-2.53-2.07a4.09,4.09,0,0,0-2.55.75.2.2,0,0,1-.31,0l-.59-1a.23.23,0,0,1,0-.31,5.9,5.9,0,0,1,3.59-1c3,0,4.14,1,4.14,3.59v7a.21.21,0,0,1-.22.22ZM20.81,68V66.83c0-.09,0-.14-.13-.14H18.57c-1.83,0-2.62.53-2.62,1.72s.79,1.65,2.2,1.65C19.8,70.06,20.81,69.29,20.81,68Z"/><path d="M25.45,71.4a.21.21,0,0,1-.22-.22V56.66a.21.21,0,0,1,.22-.22h1.41a.21.21,0,0,1,.22.22v5.41h0a3.22,3.22,0,0,1,3-1.45,3.49,3.49,0,0,1,3.63,2.53,8.89,8.89,0,0,1,.37,3,8.9,8.9,0,0,1-.37,3,3.48,3.48,0,0,1-3.63,2.53,3.21,3.21,0,0,1-3-1.47h0v1a.21.21,0,0,1-.22.22ZM32,68.32a7.51,7.51,0,0,0,.24-2.2,7.69,7.69,0,0,0-.24-2.2,2.25,2.25,0,0,0-2.31-1.58,2.24,2.24,0,0,0-2.34,1.58,7,7,0,0,0-.24,2.2,6.92,6.92,0,0,0,.24,2.2,2.27,2.27,0,0,0,2.34,1.61A2.26,2.26,0,0,0,32,68.32Z"/><path d="M42.57,71.4a.21.21,0,0,1-.22-.22v-.92h0a3.47,3.47,0,0,1-3.13,1.38c-2,0-3.54-1-3.54-3.16s1.54-3.26,4.12-3.26h2.39a.12.12,0,0,0,.14-.13v-.77c0-1.46-.58-2.07-2.53-2.07a4.13,4.13,0,0,0-2.56.75c-.11.08-.24.08-.3,0l-.6-1a.24.24,0,0,1,0-.31,5.87,5.87,0,0,1,3.58-1c3,0,4.14,1,4.14,3.59v7a.21.21,0,0,1-.22.22ZM42.31,68V66.83a.13.13,0,0,0-.14-.14H40.06c-1.82,0-2.62.53-2.62,1.72s.8,1.65,2.2,1.65C41.29,70.06,42.31,69.29,42.31,68Z"/><path d="M45,75.36a.21.21,0,0,1-.22-.22V73.87a.2.2,0,0,1,.22-.22h.35c1,0,1.39-.29,1.39-1.41V61.08a.21.21,0,0,1,.22-.22h1.41a.21.21,0,0,1,.22.22V72.19c0,2.27-1,3.17-3.15,3.17ZM46.9,58.49a.21.21,0,0,1-.22-.22V56.66a.21.21,0,0,1,.22-.22h1.5a.21.21,0,0,1,.22.22v1.61a.21.21,0,0,1-.22.22Z"/><path d="M51,68.81a8,8,0,0,1-.35-2.69A7.88,7.88,0,0,1,51,63.46a4.06,4.06,0,0,1,4.16-2.84,4.06,4.06,0,0,1,4.15,2.84,7.6,7.6,0,0,1,.36,2.66,7.75,7.75,0,0,1-.36,2.69,4.47,4.47,0,0,1-8.31,0Zm6.53-.53a6.82,6.82,0,0,0,.24-2.16A6.61,6.61,0,0,0,57.55,64a2.53,2.53,0,0,0-4.75,0,6.61,6.61,0,0,0-.24,2.13,6.82,6.82,0,0,0,.24,2.16,2.53,2.53,0,0,0,4.75,0Z"/><path d="M65.89,68.78a10.58,10.58,0,0,1,0-5.32,4.43,4.43,0,0,1,8.27,0,9.18,9.18,0,0,1,.33,3,.21.21,0,0,1-.24.22H67.56c-.09,0-.13,0-.13.14a3.9,3.9,0,0,0,.18,1.27,2.6,2.6,0,0,0,2.66,1.83A3.43,3.43,0,0,0,73,68.76a.22.22,0,0,1,.33,0l.91.81a.2.2,0,0,1,0,.31,5.13,5.13,0,0,1-4.12,1.8A4.07,4.07,0,0,1,65.89,68.78Zm6.56-3.56a.12.12,0,0,0,.13-.13,3.68,3.68,0,0,0-.16-1.19,2.6,2.6,0,0,0-4.84,0,3.71,3.71,0,0,0-.15,1.19.12.12,0,0,0,.13.13Z"/><path d="M83.4,71.4a.21.21,0,0,1-.22-.22V65c0-1.69-.77-2.68-2.35-2.68a2.36,2.36,0,0,0-2.42,2.57v6.27a.21.21,0,0,1-.22.22H76.78a.21.21,0,0,1-.22-.22V61.08a.21.21,0,0,1,.22-.22h1.41a.21.21,0,0,1,.22.22v1h0a3.35,3.35,0,0,1,2.95-1.43c2.29,0,3.65,1.56,3.65,4v6.6a.21.21,0,0,1-.22.22Z"/><path d="M98.43,71.4a.2.2,0,0,1-.22-.22v-.92h0a3.47,3.47,0,0,1-3.13,1.38c-2,0-3.54-1-3.54-3.16s1.54-3.26,4.11-3.26H98a.12.12,0,0,0,.13-.13v-.77c0-1.46-.57-2.07-2.53-2.07a4.09,4.09,0,0,0-2.55.75.2.2,0,0,1-.31,0l-.59-1a.23.23,0,0,1,0-.31,5.9,5.9,0,0,1,3.59-1c3,0,4.14,1,4.14,3.59v7a.21.21,0,0,1-.23.22ZM98.16,68V66.83c0-.09,0-.14-.13-.14H95.92c-1.83,0-2.62.53-2.62,1.72s.79,1.65,2.2,1.65C97.15,70.06,98.16,69.29,98.16,68Z"/><path d="M105.11,71.51c-1.84,0-2.57-.88-2.57-2.77V56.66a.21.21,0,0,1,.22-.22h1.41a.21.21,0,0,1,.22.22v12c0,.88.33,1.17,1,1.17h.42a.2.2,0,0,1,.22.22v1.27a.21.21,0,0,1-.22.22Z"/><path d="M110.75,71.51c-2,0-2.84-.92-2.84-3v-6a.12.12,0,0,0-.13-.13h-.88a.2.2,0,0,1-.22-.22V61.08a.2.2,0,0,1,.22-.22h.88a.12.12,0,0,0,.13-.13v-3a.21.21,0,0,1,.22-.22h1.41a.21.21,0,0,1,.22.22v3c0,.09,0,.13.13.13h1.67a.21.21,0,0,1,.22.22v1.06a.21.21,0,0,1-.22.22h-1.67c-.09,0-.13,0-.13.13v6c0,1.06.39,1.35,1.34,1.35h.46a.2.2,0,0,1,.22.22v1.27a.21.21,0,0,1-.22.22Z"/><path d="M120.38,71.4a.21.21,0,0,1-.22-.22v-1h0a3.21,3.21,0,0,1-2.88,1.45c-2.31,0-3.65-1.58-3.65-4V61.08a.2.2,0,0,1,.22-.22h1.4a.2.2,0,0,1,.22.22v6.14c0,1.72.77,2.71,2.34,2.71a2.34,2.34,0,0,0,2.37-2.6V61.08a.21.21,0,0,1,.22-.22h1.41a.21.21,0,0,1,.22.22v10.1a.21.21,0,0,1-.22.22Z"/><path d="M125,71.4a.21.21,0,0,1-.22-.22V61.08a.21.21,0,0,1,.22-.22h1.41a.21.21,0,0,1,.22.22v1.08h0a2.93,2.93,0,0,1,2.79-1.54,3.26,3.26,0,0,1,2.16.79c.11.11.13.2,0,.31l-.81,1.08a.2.2,0,0,1-.31,0,2.93,2.93,0,0,0-1.63-.5c-1.6,0-2.26,1.25-2.26,3.08v5.76a.21.21,0,0,1-.22.22Z"/><path d="M138.73,71.4a.21.21,0,0,1-.22-.22v-.92h0a3.47,3.47,0,0,1-3.13,1.38c-2,0-3.54-1-3.54-3.16s1.54-3.26,4.12-3.26h2.39a.12.12,0,0,0,.14-.13v-.77c0-1.46-.58-2.07-2.53-2.07a4.13,4.13,0,0,0-2.56.75c-.11.08-.24.08-.3,0l-.6-1a.24.24,0,0,1,.05-.31,5.87,5.87,0,0,1,3.58-1c3,0,4.14,1,4.14,3.59v7a.21.21,0,0,1-.22.22ZM138.47,68V66.83a.13.13,0,0,0-.14-.14h-2.11c-1.82,0-2.62.53-2.62,1.72s.8,1.65,2.2,1.65C137.46,70.06,138.47,69.29,138.47,68Z"/><path d="M142.16,70.06a.21.21,0,0,1,0-.31l.9-1a.23.23,0,0,1,.31,0A5.07,5.07,0,0,0,146.63,70c1.54,0,2.31-.66,2.31-1.6s-.4-1.3-2.05-1.48l-1.12-.11c-2.07-.22-3.15-1.25-3.15-3,0-2,1.43-3.21,3.92-3.21a6.3,6.3,0,0,1,3.74,1.17c.11.06.11.19,0,.3l-.74.95a.21.21,0,0,1-.31,0,5.54,5.54,0,0,0-2.84-.85c-1.32,0-2,.59-2,1.45s.5,1.28,2.07,1.43l1.1.11c2.13.2,3.17,1.28,3.17,3,0,2.07-1.5,3.45-4.25,3.45A6.55,6.55,0,0,1,142.16,70.06Z"/><path d="M152.74,69.07h1.54a.2.2,0,0,1,.22.22v2a.68.68,0,0,1-.13.48L153,73.62a.36.36,0,0,1-.29.16.2.2,0,0,1-.2-.2V69.29A.21.21,0,0,1,152.74,69.07Z"/><path d="M165.53,71.4a.21.21,0,0,1-.23-.22V61.08a.21.21,0,0,1,.23-.22h1.4a.2.2,0,0,1,.22.22v1.08h0A2.93,2.93,0,0,1,170,60.62a3.26,3.26,0,0,1,2.16.79c.11.11.13.2,0,.31l-.81,1.08a.2.2,0,0,1-.31,0,3,3,0,0,0-1.63-.5c-1.61,0-2.27,1.25-2.27,3.08v5.76a.2.2,0,0,1-.22.22Z"/><path d="M172.76,68.78a10.58,10.58,0,0,1,0-5.32,4.43,4.43,0,0,1,8.27,0,9.18,9.18,0,0,1,.33,3c0,.14-.08.22-.24.22h-6.66a.13.13,0,0,0-.14.14,3.9,3.9,0,0,0,.18,1.27,2.6,2.6,0,0,0,2.66,1.83,3.44,3.44,0,0,0,2.71-1.17.22.22,0,0,1,.33,0l.9.81a.2.2,0,0,1,0,.31,5.09,5.09,0,0,1-4.11,1.8A4.07,4.07,0,0,1,172.76,68.78Zm6.56-3.56a.12.12,0,0,0,.13-.13,3.71,3.71,0,0,0-.15-1.19,2.6,2.6,0,0,0-4.84,0,3.68,3.68,0,0,0-.16,1.19.12.12,0,0,0,.14.13Z"/><path d="M183.65,75.36a.21.21,0,0,1-.22-.22V61.08a.21.21,0,0,1,.22-.22h1.41a.21.21,0,0,1,.22.22v1h0a3.21,3.21,0,0,1,3-1.45,3.49,3.49,0,0,1,3.64,2.53,8.89,8.89,0,0,1,.37,3,8.9,8.9,0,0,1-.37,3,3.48,3.48,0,0,1-3.64,2.53,3.2,3.2,0,0,1-3-1.47h0v5a.21.21,0,0,1-.22.22Zm6.52-7a7.51,7.51,0,0,0,.24-2.2,7.69,7.69,0,0,0-.24-2.2,2.5,2.5,0,0,0-4.65,0,7,7,0,0,0-.24,2.2,6.92,6.92,0,0,0,.24,2.2,2.48,2.48,0,0,0,4.65,0Z"/><path d="M194.1,68.81a8,8,0,0,1-.35-2.69,7.88,7.88,0,0,1,.35-2.66,4.47,4.47,0,0,1,8.32,0,7.88,7.88,0,0,1,.35,2.66,8,8,0,0,1-.35,2.69,4.47,4.47,0,0,1-8.32,0Zm6.54-.53a7.13,7.13,0,0,0,.24-2.16,6.91,6.91,0,0,0-.24-2.13,2.54,2.54,0,0,0-4.76,0,6.91,6.91,0,0,0-.24,2.13,7.13,7.13,0,0,0,.24,2.16,2.54,2.54,0,0,0,4.76,0Z"/><path d="M205.08,71.4a.21.21,0,0,1-.22-.22V61.08a.21.21,0,0,1,.22-.22h1.41a.21.21,0,0,1,.22.22v1.08h0a2.94,2.94,0,0,1,2.79-1.54,3.26,3.26,0,0,1,2.16.79c.11.11.13.2,0,.31l-.81,1.08a.2.2,0,0,1-.31,0,2.93,2.93,0,0,0-1.63-.5c-1.6,0-2.26,1.25-2.26,3.08v5.76a.21.21,0,0,1-.22.22Z"/><path d="M216.06,71.51c-2.05,0-2.84-.92-2.84-3v-6c0-.09,0-.13-.13-.13h-.88a.21.21,0,0,1-.22-.22V61.08a.21.21,0,0,1,.22-.22h.88c.09,0,.13,0,.13-.13v-3a.21.21,0,0,1,.22-.22h1.41a.21.21,0,0,1,.22.22v3c0,.09,0,.13.13.13h1.67a.21.21,0,0,1,.22.22v1.06a.21.21,0,0,1-.22.22H215.2c-.09,0-.13,0-.13.13v6c0,1.06.39,1.35,1.34,1.35h.46a.2.2,0,0,1,.22.22v1.27a.21.21,0,0,1-.22.22Z"/><path d="M218.79,68.78a10.43,10.43,0,0,1,0-5.32,4.44,4.44,0,0,1,8.28,0,9.18,9.18,0,0,1,.33,3,.21.21,0,0,1-.24.22h-6.67c-.09,0-.13,0-.13.14a3.93,3.93,0,0,0,.17,1.27,2.61,2.61,0,0,0,2.66,1.83,3.44,3.44,0,0,0,2.71-1.17.22.22,0,0,1,.33,0l.9.81a.21.21,0,0,1,0,.31,5.13,5.13,0,0,1-4.12,1.8A4.07,4.07,0,0,1,218.79,68.78Zm6.55-3.56a.12.12,0,0,0,.13-.13,3.71,3.71,0,0,0-.15-1.19,2.6,2.6,0,0,0-4.84,0,3.71,3.71,0,0,0-.15,1.19.12.12,0,0,0,.13.13Z"/><path d="M233.13,70.06a.21.21,0,0,1,0-.31l.9-1a.23.23,0,0,1,.31,0A5.07,5.07,0,0,0,237.6,70c1.53,0,2.31-.66,2.31-1.6s-.4-1.3-2-1.48l-1.12-.11c-2.07-.22-3.15-1.25-3.15-3,0-2,1.43-3.21,3.92-3.21a6.3,6.3,0,0,1,3.74,1.17c.11.06.11.19,0,.3l-.75.95a.2.2,0,0,1-.3,0,5.6,5.6,0,0,0-2.84-.85c-1.32,0-2,.59-2,1.45s.51,1.28,2.07,1.43l1.1.11c2.14.2,3.17,1.28,3.17,3,0,2.07-1.49,3.45-4.25,3.45A6.54,6.54,0,0,1,233.13,70.06Z"/><path d="M243.93,58.49a.21.21,0,0,1-.22-.22V56.66a.21.21,0,0,1,.22-.22h1.5a.21.21,0,0,1,.22.22v1.61a.21.21,0,0,1-.22.22Zm0,12.91a.21.21,0,0,1-.22-.22V61.08a.21.21,0,0,1,.22-.22h1.41a.21.21,0,0,1,.22.22v10.1a.21.21,0,0,1-.22.22Z"/><path d="M251.39,71.51c-2,0-2.84-.92-2.84-3v-6c0-.09,0-.13-.13-.13h-.88a.21.21,0,0,1-.22-.22V61.08a.21.21,0,0,1,.22-.22h.88c.09,0,.13,0,.13-.13v-3a.21.21,0,0,1,.22-.22h1.41a.21.21,0,0,1,.22.22v3c0,.09,0,.13.13.13h1.67a.21.21,0,0,1,.22.22v1.06a.21.21,0,0,1-.22.22h-1.67c-.09,0-.13,0-.13.13v6c0,1.06.39,1.35,1.34,1.35h.46a.2.2,0,0,1,.22.22v1.27a.21.21,0,0,1-.22.22Z"/><path d="M261,71.4a.21.21,0,0,1-.22-.22v-1h0a3.21,3.21,0,0,1-2.88,1.45c-2.31,0-3.65-1.58-3.65-4V61.08a.21.21,0,0,1,.22-.22h1.41a.21.21,0,0,1,.22.22v6.14c0,1.72.77,2.71,2.33,2.71a2.34,2.34,0,0,0,2.37-2.6V61.08a.21.21,0,0,1,.22-.22h1.41a.21.21,0,0,1,.22.22v10.1a.21.21,0,0,1-.22.22Z"/><path d="M271.76,71.4a.21.21,0,0,1-.22-.22v-.92h0a3.47,3.47,0,0,1-3.13,1.38c-2,0-3.54-1-3.54-3.16s1.54-3.26,4.12-3.26h2.39a.12.12,0,0,0,.14-.13v-.77c0-1.46-.58-2.07-2.53-2.07a4.13,4.13,0,0,0-2.56.75c-.11.08-.24.08-.3,0l-.6-1a.24.24,0,0,1,.05-.31,5.87,5.87,0,0,1,3.58-1c3,0,4.14,1,4.14,3.59v7a.21.21,0,0,1-.22.22ZM271.5,68V66.83a.13.13,0,0,0-.14-.14h-2.11c-1.82,0-2.62.53-2.62,1.72s.8,1.65,2.2,1.65C270.48,70.06,271.5,69.29,271.5,68Z"/><path d="M275.61,63.46a4.07,4.07,0,0,1,4.16-2.84,4.22,4.22,0,0,1,3.61,1.78.22.22,0,0,1-.07.31l-1,.79a.19.19,0,0,1-.3,0,2.61,2.61,0,0,0-2.27-1.14A2.29,2.29,0,0,0,277.41,64a7.21,7.21,0,0,0-.24,2.13,7.3,7.3,0,0,0,.24,2.16,2.29,2.29,0,0,0,2.36,1.65A2.61,2.61,0,0,0,282,68.78a.19.19,0,0,1,.3,0l1,.79a.22.22,0,0,1,.07.31,4.22,4.22,0,0,1-3.61,1.78,4.08,4.08,0,0,1-4.16-2.83,11,11,0,0,1,0-5.35Z"/><path d="M285.6,58.49a.2.2,0,0,1-.22-.22V56.66a.2.2,0,0,1,.22-.22h1.49a.2.2,0,0,1,.22.22v1.61a.2.2,0,0,1-.22.22Zm0,12.91a.21.21,0,0,1-.22-.22V61.08a.21.21,0,0,1,.22-.22h1.41a.21.21,0,0,1,.22.22v10.1a.21.21,0,0,1-.22.22Z"/><path d="M289.71,68.81a8,8,0,0,1-.35-2.69,7.88,7.88,0,0,1,.35-2.66,4.47,4.47,0,0,1,8.32,0,7.88,7.88,0,0,1,.35,2.66,8,8,0,0,1-.35,2.69,4.47,4.47,0,0,1-8.32,0Zm6.54-.53a7.13,7.13,0,0,0,.24-2.16,6.91,6.91,0,0,0-.24-2.13,2.54,2.54,0,0,0-4.76,0,6.91,6.91,0,0,0-.24,2.13,7.13,7.13,0,0,0,.24,2.16,2.54,2.54,0,0,0,4.76,0Zm-3.17-9.13c-.13,0-.2-.09-.13-.22l1.67-2.71A.4.4,0,0,1,295,56h1.45c.14,0,.2.11.11.22l-2,2.71a.44.44,0,0,1-.42.22Z"/><path d="M307.31,71.4a.21.21,0,0,1-.22-.22V65c0-1.69-.77-2.68-2.35-2.68a2.36,2.36,0,0,0-2.42,2.57v6.27a.21.21,0,0,1-.22.22h-1.41a.21.21,0,0,1-.22-.22V61.08a.21.21,0,0,1,.22-.22h1.41a.21.21,0,0,1,.22.22v1h0a3.35,3.35,0,0,1,3-1.43c2.29,0,3.65,1.56,3.65,4v6.6a.21.21,0,0,1-.22.22Z"/><path d="M322.34,71.4a.21.21,0,0,1-.22-.22v-.92h0A3.47,3.47,0,0,1,319,71.64c-2,0-3.54-1-3.54-3.16s1.54-3.26,4.11-3.26h2.4a.12.12,0,0,0,.13-.13v-.77c0-1.46-.57-2.07-2.53-2.07A4.12,4.12,0,0,0,317,63a.2.2,0,0,1-.31,0l-.59-1a.23.23,0,0,1,0-.31,5.9,5.9,0,0,1,3.59-1c3,0,4.14,1,4.14,3.59v7a.21.21,0,0,1-.22.22ZM322.07,68V66.83c0-.09,0-.14-.13-.14h-2.11c-1.83,0-2.62.53-2.62,1.72s.79,1.65,2.2,1.65C321.06,70.06,322.07,69.29,322.07,68Z"/><path d="M334,71.51c-2,0-2.84-.92-2.84-3v-6c0-.09,0-.13-.13-.13h-.88a.21.21,0,0,1-.22-.22V61.08a.21.21,0,0,1,.22-.22H331c.09,0,.13,0,.13-.13v-3a.21.21,0,0,1,.22-.22h1.41a.2.2,0,0,1,.22.22v3a.12.12,0,0,0,.13.13h1.68a.21.21,0,0,1,.22.22v1.06a.21.21,0,0,1-.22.22h-1.68a.12.12,0,0,0-.13.13v6c0,1.06.4,1.35,1.34,1.35h.47A.2.2,0,0,1,335,70v1.27a.21.21,0,0,1-.22.22Z"/><path d="M337.19,71.4a.2.2,0,0,1-.22-.22V61.08a.2.2,0,0,1,.22-.22h1.4a.2.2,0,0,1,.22.22v1.08h0a2.93,2.93,0,0,1,2.79-1.54,3.26,3.26,0,0,1,2.16.79c.11.11.13.2,0,.31L343,62.8a.2.2,0,0,1-.31,0,3,3,0,0,0-1.63-.5c-1.61,0-2.27,1.25-2.27,3.08v5.76a.2.2,0,0,1-.22.22Z"/><path d="M351,71.4a.21.21,0,0,1-.22-.22v-.92h0a3.47,3.47,0,0,1-3.13,1.38c-2,0-3.54-1-3.54-3.16s1.54-3.26,4.11-3.26h2.4a.12.12,0,0,0,.14-.13v-.77c0-1.46-.58-2.07-2.54-2.07a4.12,4.12,0,0,0-2.55.75.2.2,0,0,1-.31,0l-.59-1a.24.24,0,0,1,0-.31,5.92,5.92,0,0,1,3.59-1c3,0,4.14,1,4.14,3.59v7a.21.21,0,0,1-.22.22ZM350.7,68V66.83a.13.13,0,0,0-.14-.14h-2.11c-1.83,0-2.62.53-2.62,1.72s.79,1.65,2.2,1.65C349.68,70.06,350.7,69.29,350.7,68Z"/><path d="M357.87,71.4c-.16,0-.22-.09-.27-.22l-3.78-10.1c-.05-.13,0-.22.17-.22h1.52c.16,0,.22.07.29.22l2.73,7.57h0l2.66-7.57a.27.27,0,0,1,.27-.22H363c.16,0,.22.09.18.22l-3.76,10.1a.3.3,0,0,1-.29.22Z"/><path d="M364.29,68.78a10.58,10.58,0,0,1,0-5.32,4.43,4.43,0,0,1,8.27,0,9.18,9.18,0,0,1,.33,3,.21.21,0,0,1-.24.22H366c-.09,0-.13,0-.13.14A3.9,3.9,0,0,0,366,68.1a2.6,2.6,0,0,0,2.66,1.83,3.47,3.47,0,0,0,2.71-1.17.22.22,0,0,1,.33,0l.9.81a.2.2,0,0,1,0,.31,5.13,5.13,0,0,1-4.12,1.8A4.07,4.07,0,0,1,364.29,68.78Zm6.56-3.56a.12.12,0,0,0,.13-.13,3.68,3.68,0,0,0-.16-1.19,2.6,2.6,0,0,0-4.84,0,3.71,3.71,0,0,0-.15,1.19.12.12,0,0,0,.13.13Zm-3.28-6.07c-.13,0-.2-.09-.13-.22l1.67-2.71a.4.4,0,0,1,.37-.22h1.45c.14,0,.2.11.11.22l-2,2.71a.44.44,0,0,1-.42.22Z"/><path d="M374.23,70.06a.23.23,0,0,1,0-.31l.91-1a.22.22,0,0,1,.3,0A5.1,5.1,0,0,0,378.7,70c1.54,0,2.31-.66,2.31-1.6s-.4-1.3-2.05-1.48l-1.12-.11c-2.07-.22-3.14-1.25-3.14-3,0-2,1.43-3.21,3.91-3.21a6.3,6.3,0,0,1,3.74,1.17.21.21,0,0,1,0,.3l-.75.95a.21.21,0,0,1-.31,0,5.54,5.54,0,0,0-2.84-.85c-1.32,0-2,.59-2,1.45s.51,1.28,2.07,1.43l1.1.11c2.13.2,3.17,1.28,3.17,3,0,2.07-1.5,3.45-4.25,3.45A6.55,6.55,0,0,1,374.23,70.06Z"/><path d="M395.86,71.4a.21.21,0,0,1-.22-.22v-1h0a3.2,3.2,0,0,1-3,1.47A3.48,3.48,0,0,1,389,69.11a8.9,8.9,0,0,1-.37-3,8.89,8.89,0,0,1,.37-3,3.49,3.49,0,0,1,3.64-2.53,3.21,3.21,0,0,1,3,1.45h0V56.66a.21.21,0,0,1,.22-.22h1.41a.21.21,0,0,1,.22.22V71.18a.21.21,0,0,1-.22.22Zm-.46-3.08a6.92,6.92,0,0,0,.24-2.2,7,7,0,0,0-.24-2.2,2.5,2.5,0,0,0-4.65,0,7.69,7.69,0,0,0-.24,2.2,7.51,7.51,0,0,0,.24,2.2,2.48,2.48,0,0,0,4.65,0Z"/><path d="M399.93,68.78a10.58,10.58,0,0,1,0-5.32,4.43,4.43,0,0,1,8.27,0,9.18,9.18,0,0,1,.33,3,.21.21,0,0,1-.24.22H401.6c-.09,0-.13,0-.13.14a4.23,4.23,0,0,0,.17,1.27,2.62,2.62,0,0,0,2.67,1.83,3.43,3.43,0,0,0,2.7-1.17.22.22,0,0,1,.33,0l.91.81a.2.2,0,0,1,0,.31,5.13,5.13,0,0,1-4.12,1.8A4.07,4.07,0,0,1,399.93,68.78Zm6.56-3.56a.12.12,0,0,0,.13-.13,3.68,3.68,0,0,0-.16-1.19,2.6,2.6,0,0,0-4.84,0,3.71,3.71,0,0,0-.15,1.19.12.12,0,0,0,.13.13Z"/><path d="M415.22,71.4a.21.21,0,0,1-.22-.22V61.08a.21.21,0,0,1,.22-.22h1.41a.21.21,0,0,1,.22.22v1.08h0a2.93,2.93,0,0,1,2.79-1.54,3.26,3.26,0,0,1,2.16.79c.11.11.13.2,0,.31l-.81,1.08a.2.2,0,0,1-.31,0,2.93,2.93,0,0,0-1.63-.5c-1.6,0-2.26,1.25-2.26,3.08v5.76a.21.21,0,0,1-.22.22Z"/><path d="M422.46,68.78a10.43,10.43,0,0,1,0-5.32,4.44,4.44,0,0,1,8.28,0,9.18,9.18,0,0,1,.33,3c0,.14-.09.22-.25.22h-6.66c-.09,0-.13,0-.13.14a3.93,3.93,0,0,0,.17,1.27,2.61,2.61,0,0,0,2.66,1.83,3.44,3.44,0,0,0,2.71-1.17.22.22,0,0,1,.33,0l.9.81a.2.2,0,0,1,0,.31,5.09,5.09,0,0,1-4.11,1.8A4.07,4.07,0,0,1,422.46,68.78ZM429,65.22a.12.12,0,0,0,.13-.13A3.71,3.71,0,0,0,429,63.9a2.6,2.6,0,0,0-4.84,0,3.71,3.71,0,0,0-.15,1.19.12.12,0,0,0,.13.13Z"/><path d="M433.7,71.4a.21.21,0,0,1-.22-.22V62.49a.12.12,0,0,0-.13-.13h-.91a.21.21,0,0,1-.22-.22V61.08a.21.21,0,0,1,.22-.22h.91a.12.12,0,0,0,.13-.13v-.9c0-2.49,1-3.39,3.21-3.39h.81a.2.2,0,0,1,.22.22v1.28a.2.2,0,0,1-.22.22h-.57c-1.34,0-1.6.28-1.6,1.58v1c0,.09,0,.13.13.13h2a.2.2,0,0,1,.22.22v1.06a.2.2,0,0,1-.22.22h-2c-.09,0-.13,0-.13.13v8.69a.21.21,0,0,1-.22.22Z"/><path d="M445.86,71.4a.21.21,0,0,1-.22-.22v-1h0a3.21,3.21,0,0,1-2.88,1.45c-2.31,0-3.65-1.58-3.65-4V61.08a.21.21,0,0,1,.22-.22h1.4a.21.21,0,0,1,.23.22v6.14c0,1.72.77,2.71,2.33,2.71a2.34,2.34,0,0,0,2.37-2.6V61.08a.21.21,0,0,1,.22-.22h1.41a.21.21,0,0,1,.22.22v10.1a.21.21,0,0,1-.22.22Z"/><path d="M449.49,70.06a.23.23,0,0,1,0-.31l.91-1a.22.22,0,0,1,.3,0A5.1,5.1,0,0,0,454,70c1.54,0,2.31-.66,2.31-1.6s-.4-1.3-2-1.48l-1.12-.11c-2.07-.22-3.14-1.25-3.14-3,0-2,1.42-3.21,3.91-3.21a6.3,6.3,0,0,1,3.74,1.17.21.21,0,0,1,.05.3l-.75.95a.21.21,0,0,1-.31,0,5.54,5.54,0,0,0-2.84-.85c-1.32,0-2,.59-2,1.45s.51,1.28,2.07,1.43l1.1.11c2.13.2,3.17,1.28,3.17,3,0,2.07-1.5,3.45-4.25,3.45A6.55,6.55,0,0,1,449.49,70.06Z"/><path d="M459.83,68.78a10.58,10.58,0,0,1,0-5.32,4.43,4.43,0,0,1,8.27,0,9.18,9.18,0,0,1,.33,3c0,.14-.08.22-.24.22H461.5a.12.12,0,0,0-.13.14,3.9,3.9,0,0,0,.18,1.27,2.6,2.6,0,0,0,2.66,1.83,3.46,3.46,0,0,0,2.71-1.17.22.22,0,0,1,.33,0l.9.81a.2.2,0,0,1,0,.31,5.09,5.09,0,0,1-4.11,1.8A4.07,4.07,0,0,1,459.83,68.78Zm6.56-3.56a.12.12,0,0,0,.13-.13,3.71,3.71,0,0,0-.15-1.19,2.6,2.6,0,0,0-4.84,0,3.68,3.68,0,0,0-.16,1.19.12.12,0,0,0,.13.13Z"/><path d="M478,71.51c-2,0-2.84-.92-2.84-3v-6c0-.09,0-.13-.13-.13h-.88a.21.21,0,0,1-.22-.22V61.08a.21.21,0,0,1,.22-.22H475c.09,0,.13,0,.13-.13v-3a.21.21,0,0,1,.22-.22h1.41a.21.21,0,0,1,.22.22v3c0,.09,0,.13.13.13h1.68a.21.21,0,0,1,.22.22v1.06a.21.21,0,0,1-.22.22H477.1c-.09,0-.13,0-.13.13v6c0,1.06.4,1.35,1.34,1.35h.47A.2.2,0,0,1,479,70v1.27a.21.21,0,0,1-.22.22Z"/><path d="M480.69,68.81a8,8,0,0,1-.35-2.69,7.88,7.88,0,0,1,.35-2.66,4.47,4.47,0,0,1,8.32,0,7.88,7.88,0,0,1,.35,2.66,8,8,0,0,1-.35,2.69,4.47,4.47,0,0,1-8.32,0Zm6.53-.53a6.82,6.82,0,0,0,.24-2.16,6.61,6.61,0,0,0-.24-2.13,2.53,2.53,0,0,0-4.75,0,6.61,6.61,0,0,0-.24,2.13,6.82,6.82,0,0,0,.24,2.16,2.53,2.53,0,0,0,4.75,0Z"/><path d="M504.91,71.4a.27.27,0,0,1-.26-.22l-2.38-7.55h0l-2.4,7.55a.29.29,0,0,1-.27.22h-1.27a.3.3,0,0,1-.27-.22l-3.3-10.1a.16.16,0,0,1,.16-.22h1.49c.16,0,.22,0,.29.22L499,68.7H499l2.37-7.62a.27.27,0,0,1,.27-.22h1.14a.29.29,0,0,1,.29.22l2.39,7.62h.05l2.26-7.62a.26.26,0,0,1,.29-.22h1.5c.13,0,.19.09.15.22l-3.32,10.1c-.05.13-.11.22-.27.22Z"/><path d="M511.07,68.81a8,8,0,0,1-.35-2.69,7.88,7.88,0,0,1,.35-2.66,4.47,4.47,0,0,1,8.32,0,7.88,7.88,0,0,1,.35,2.66,8,8,0,0,1-.35,2.69,4.47,4.47,0,0,1-8.32,0Zm6.53-.53a6.77,6.77,0,0,0,.25-2.16A6.57,6.57,0,0,0,517.6,64a2.53,2.53,0,0,0-4.75,0,6.91,6.91,0,0,0-.24,2.13,7.13,7.13,0,0,0,.24,2.16,2.53,2.53,0,0,0,4.75,0Z"/><path d="M522.05,71.4a.21.21,0,0,1-.22-.22V61.08a.21.21,0,0,1,.22-.22h1.41a.21.21,0,0,1,.22.22v1.08h0a2.93,2.93,0,0,1,2.79-1.54,3.26,3.26,0,0,1,2.16.79c.11.11.13.2,0,.31l-.81,1.08a.2.2,0,0,1-.31,0,2.93,2.93,0,0,0-1.63-.5c-1.6,0-2.26,1.25-2.26,3.08v5.76a.21.21,0,0,1-.22.22Z"/><path d="M537,71.4a.37.37,0,0,1-.36-.22l-3-4.9-1.83,2.13v2.77a.2.2,0,0,1-.21.22h-1.41a.2.2,0,0,1-.22-.22V56.66a.2.2,0,0,1,.22-.22h1.41a.2.2,0,0,1,.21.22V66L536,61.06a.5.5,0,0,1,.4-.2H538c.13,0,.17.11.09.22l-3.24,3.76,3.9,6.34a.14.14,0,0,1-.14.22Z"/><path d="M540.06,69.29a.21.21,0,0,1,.22-.22H542a.21.21,0,0,1,.22.22v1.89a.21.21,0,0,1-.22.22h-1.68a.21.21,0,0,1-.22-.22Z"/></g></g></svg>