<svg xmlns="http://www.w3.org/2000/svg" viewBox="0 0 401.65 77.39"><title>10b</title><g id="Capa_2" data-name="Capa 2"><g id="answer_copia" data-name="answer copia"><path d="M5.68.72C5.73.58,5.8.48,6,.48H7.53a.32.32,0,0,1,.31.24l5.59,15.84c.05.15,0,.24-.17.24H11.58a.29.29,0,0,1-.31-.24L10,13H3.42L2.18,16.56c-.08.17-.17.24-.32.24H.18C0,16.8,0,16.71,0,16.56ZM9.33,11,6.76,3.62h0L4.12,11Z"/><path d="M13.74,15.34a.25.25,0,0,1,0-.34l1-1.05a.22.22,0,0,1,.33,0,5.62,5.62,0,0,0,3.55,1.32c1.68,0,2.53-.73,2.53-1.76S20.7,12.1,18.9,11.9l-1.22-.12c-2.26-.24-3.43-1.36-3.43-3.24,0-2.18,1.56-3.5,4.27-3.5A6.88,6.88,0,0,1,22.6,6.31a.24.24,0,0,1,0,.34l-.82,1a.23.23,0,0,1-.33.05,6.07,6.07,0,0,0-3.1-.94c-1.44,0-2.19.65-2.19,1.59s.56,1.39,2.26,1.56l1.2.12c2.33.21,3.46,1.39,3.46,3.24,0,2.25-1.63,3.77-4.63,3.77A7.19,7.19,0,0,1,13.74,15.34Z"/><path d="M24.54,14A9.1,9.1,0,0,1,24.16,11a8.87,8.87,0,0,1,.36-2.9A4.44,4.44,0,0,1,29,5a4.44,4.44,0,0,1,4.51,3.1,10,10,0,0,1,.36,3.28.23.23,0,0,1-.26.25H26.37c-.1,0-.15,0-.15.14a4.3,4.3,0,0,0,.19,1.39,2.84,2.84,0,0,0,2.91,2,3.74,3.74,0,0,0,3-1.27.25.25,0,0,1,.36-.05l1,.89a.21.21,0,0,1,0,.34,5.59,5.59,0,0,1-4.49,2A4.45,4.45,0,0,1,24.54,14Zm7.15-3.89a.13.13,0,0,0,.15-.15,4,4,0,0,0-.17-1.29A2.58,2.58,0,0,0,29,6.82a2.58,2.58,0,0,0-2.64,1.8,4,4,0,0,0-.17,1.29.13.13,0,0,0,.15.15Z"/><path d="M35.46,19.68a.21.21,0,0,1,0-.33l1-1a.22.22,0,0,1,.36,0,3.83,3.83,0,0,0,2.71,1.15c1.9,0,2.91-1,2.91-3.09V15.07h0a3.29,3.29,0,0,1-3.19,1.59,3.77,3.77,0,0,1-3.86-2.79,8.89,8.89,0,0,1-.39-3,9,9,0,0,1,.39-3A3.76,3.76,0,0,1,39.23,5a3.29,3.29,0,0,1,3.19,1.58h0V5.54a.23.23,0,0,1,.24-.24h1.53a.23.23,0,0,1,.24.24V16.3c0,3.26-1.77,5.09-5,5.09A5.21,5.21,0,0,1,35.46,19.68Zm6.72-6.6a7,7,0,0,0,.27-2.23,7.08,7.08,0,0,0-.27-2.23,2.59,2.59,0,0,0-4.87,0A7.22,7.22,0,0,0,37,10.85a7.18,7.18,0,0,0,.29,2.23,2.34,2.34,0,0,0,2.42,1.73A2.37,2.37,0,0,0,42.18,13.08Z"/><path d="M54.18,16.8a.23.23,0,0,1-.24-.24V15.48h0a3.52,3.52,0,0,1-3.15,1.59c-2.52,0-4-1.73-4-4.35V5.54A.23.23,0,0,1,47,5.3h1.54a.23.23,0,0,1,.24.24v6.7c0,1.87.84,2.95,2.54,2.95a2.55,2.55,0,0,0,2.59-2.83V5.54a.23.23,0,0,1,.24-.24h1.54a.23.23,0,0,1,.24.24v11a.23.23,0,0,1-.24.24Z"/><path d="M58.69,16.8a.23.23,0,0,1-.24-.24v-11a.23.23,0,0,1,.24-.24h1.54a.23.23,0,0,1,.24.24V6.72h0a3.23,3.23,0,0,1,3-1.68,3.56,3.56,0,0,1,2.35.86c.12.12.15.22,0,.34l-.89,1.18a.21.21,0,0,1-.33,0,3.31,3.31,0,0,0-1.78-.55c-1.75,0-2.47,1.37-2.47,3.36v6.29a.23.23,0,0,1-.24.24Z"/><path d="M66.11,14A9.1,9.1,0,0,1,65.73,11a8.87,8.87,0,0,1,.36-2.9,4.83,4.83,0,0,1,9,0,10,10,0,0,1,.36,3.28.24.24,0,0,1-.26.25H67.93a.12.12,0,0,0-.14.14A4.3,4.3,0,0,0,68,13.2a2.84,2.84,0,0,0,2.91,2,3.77,3.77,0,0,0,3-1.27.25.25,0,0,1,.36-.05l1,.89a.22.22,0,0,1,0,.34,5.62,5.62,0,0,1-4.49,2A4.45,4.45,0,0,1,66.11,14Zm7.15-3.89a.13.13,0,0,0,.15-.15,4,4,0,0,0-.17-1.29,2.84,2.84,0,0,0-5.28,0,4,4,0,0,0-.17,1.29c0,.1,0,.15.14.15Z"/><path d="M88.79,21.12a.23.23,0,0,1-.24-.24V15.46h0a3.52,3.52,0,0,1-3.27,1.61,3.81,3.81,0,0,1-4-2.76A9.68,9.68,0,0,1,80.89,11,9.53,9.53,0,0,1,81.3,7.8a3.81,3.81,0,0,1,4-2.76,3.51,3.51,0,0,1,3.27,1.58h0V5.54a.23.23,0,0,1,.24-.24h1.54a.23.23,0,0,1,.24.24V20.88a.23.23,0,0,1-.24.24Zm-.5-7.68a7.47,7.47,0,0,0,.26-2.4,7.59,7.59,0,0,0-.26-2.4,2.72,2.72,0,0,0-5.07,0A8.26,8.26,0,0,0,83,11a8,8,0,0,0,.26,2.4,2.71,2.71,0,0,0,5.07,0Z"/><path d="M100.29,16.8a.22.22,0,0,1-.24-.24V15.48h0a3.5,3.5,0,0,1-3.14,1.59c-2.52,0-4-1.73-4-4.35V5.54a.23.23,0,0,1,.24-.24h1.54a.23.23,0,0,1,.24.24v6.7c0,1.87.84,2.95,2.54,2.95a2.55,2.55,0,0,0,2.6-2.83V5.54a.23.23,0,0,1,.24-.24h1.53a.23.23,0,0,1,.24.24v11a.22.22,0,0,1-.24.24Z"/><path d="M104.25,14a9.05,9.05,0,0,1-.39-2.91,8.87,8.87,0,0,1,.36-2.9,4.84,4.84,0,0,1,9,0,10,10,0,0,1,.36,3.28.24.24,0,0,1-.27.25h-7.27c-.1,0-.14,0-.14.14a4.3,4.3,0,0,0,.19,1.39,2.83,2.83,0,0,0,2.9,2,3.74,3.74,0,0,0,3-1.27.25.25,0,0,1,.36-.05l1,.89a.22.22,0,0,1,0,.34,5.59,5.59,0,0,1-4.49,2A4.43,4.43,0,0,1,104.25,14Zm7.15-3.89c.09,0,.14-.05.14-.15a4,4,0,0,0-.17-1.29,2.84,2.84,0,0,0-5.28,0,4,4,0,0,0-.16,1.29c0,.1,0,.15.14.15Z"/><path d="M122.49,16.92c-2,0-2.81-1-2.81-3V.72a.23.23,0,0,1,.24-.24h1.53a.23.23,0,0,1,.24.24V13.78c0,1,.36,1.27,1.16,1.27h.45a.23.23,0,0,1,.24.24v1.39a.23.23,0,0,1-.24.24Z"/><path d="M131.89,16.8a.23.23,0,0,1-.24-.24v-1h0a3.77,3.77,0,0,1-3.41,1.52c-2.18,0-3.86-1.13-3.86-3.46s1.68-3.55,4.49-3.55h2.61a.13.13,0,0,0,.15-.15V9.07c0-1.58-.63-2.25-2.76-2.25a4.48,4.48,0,0,0-2.79.81.22.22,0,0,1-.34,0l-.64-1.11a.24.24,0,0,1,0-.33A6.42,6.42,0,0,1,129,5c3.26,0,4.51,1.08,4.51,3.91v7.61a.23.23,0,0,1-.24.24Zm-.28-3.72V11.81c0-.1-.05-.14-.15-.14h-2.3c-2,0-2.86.57-2.86,1.87s.86,1.8,2.4,1.8C130.5,15.34,131.61,14.5,131.61,13.08Z"/><path d="M139.48,15.34a.23.23,0,0,1,0-.34l1-1.05a.23.23,0,0,1,.34,0,5.6,5.6,0,0,0,3.55,1.32c1.68,0,2.52-.73,2.52-1.76s-.43-1.41-2.23-1.61l-1.23-.12c-2.25-.24-3.43-1.36-3.43-3.24,0-2.18,1.56-3.5,4.27-3.5a6.88,6.88,0,0,1,4.08,1.27.24.24,0,0,1,0,.34l-.82,1a.23.23,0,0,1-.33.05,6.07,6.07,0,0,0-3.1-.94c-1.44,0-2.18.65-2.18,1.59s.55,1.39,2.25,1.56l1.2.12c2.33.21,3.46,1.39,3.46,3.24,0,2.25-1.63,3.77-4.63,3.77A7.16,7.16,0,0,1,139.48,15.34Z"/><path d="M150.28,14a9.05,9.05,0,0,1-.39-2.91,8.87,8.87,0,0,1,.36-2.9,4.84,4.84,0,0,1,9,0,10,10,0,0,1,.36,3.28.24.24,0,0,1-.27.25H152.1c-.1,0-.14,0-.14.14a4.3,4.3,0,0,0,.19,1.39,2.84,2.84,0,0,0,2.9,2,3.78,3.78,0,0,0,3-1.27.24.24,0,0,1,.35-.05l1,.89a.22.22,0,0,1,0,.34,5.59,5.59,0,0,1-4.49,2A4.44,4.44,0,0,1,150.28,14Zm7.15-3.89c.09,0,.14-.05.14-.15a4,4,0,0,0-.17-1.29,2.84,2.84,0,0,0-5.28,0A4,4,0,0,0,152,9.91c0,.1,0,.15.14.15Z"/><path d="M161.68,21.12a.22.22,0,0,1-.24-.24V5.54a.23.23,0,0,1,.24-.24h1.53a.23.23,0,0,1,.24.24V6.62h0A3.48,3.48,0,0,1,166.74,5a3.81,3.81,0,0,1,4,2.76,9.53,9.53,0,0,1,.41,3.24,9.68,9.68,0,0,1-.41,3.27,3.81,3.81,0,0,1-4,2.76,3.49,3.49,0,0,1-3.26-1.61h0v5.42a.22.22,0,0,1-.24.24Zm7.1-7.68A8,8,0,0,0,169,11a8.26,8.26,0,0,0-.26-2.4,2.71,2.71,0,0,0-5.06,0,7.25,7.25,0,0,0-.27,2.4,7.14,7.14,0,0,0,.27,2.4,2.7,2.7,0,0,0,5.06,0Z"/><path d="M179.87,16.8a.22.22,0,0,1-.24-.24v-1h0a3.77,3.77,0,0,1-3.41,1.52c-2.19,0-3.87-1.13-3.87-3.46s1.68-3.55,4.49-3.55h2.62c.09,0,.14-.05.14-.15V9.07c0-1.58-.62-2.25-2.76-2.25a4.44,4.44,0,0,0-2.78.81c-.12.1-.27.1-.34,0l-.65-1.11a.24.24,0,0,1,0-.33A6.38,6.38,0,0,1,177,5c3.27,0,4.51,1.08,4.51,3.91v7.61a.22.22,0,0,1-.24.24Zm-.29-3.72V11.81a.12.12,0,0,0-.14-.14h-2.31c-2,0-2.85.57-2.85,1.87s.86,1.8,2.4,1.8C178.48,15.34,179.58,14.5,179.58,13.08Z"/><path d="M184.16,16.8a.23.23,0,0,1-.24-.24v-11a.23.23,0,0,1,.24-.24h1.54a.23.23,0,0,1,.24.24V6.72h0A3.23,3.23,0,0,1,189,5a3.54,3.54,0,0,1,2.35.86c.12.12.15.22,0,.34l-.89,1.18a.21.21,0,0,1-.33,0,3.31,3.31,0,0,0-1.78-.55c-1.75,0-2.47,1.37-2.47,3.36v6.29a.23.23,0,0,1-.24.24Z"/><path d="M198.71,16.8a.22.22,0,0,1-.24-.24v-1h0a3.74,3.74,0,0,1-3.4,1.52c-2.19,0-3.87-1.13-3.87-3.46s1.68-3.55,4.49-3.55h2.62c.09,0,.14-.05.14-.15V9.07c0-1.58-.62-2.25-2.76-2.25a4.44,4.44,0,0,0-2.78.81c-.12.1-.27.1-.34,0l-.65-1.11a.24.24,0,0,1,.05-.33A6.38,6.38,0,0,1,195.85,5c3.27,0,4.51,1.08,4.51,3.91v7.61a.22.22,0,0,1-.24.24Zm-.29-3.72V11.81a.12.12,0,0,0-.14-.14H196c-2,0-2.85.57-2.85,1.87s.86,1.8,2.4,1.8C197.32,15.34,198.42,14.5,198.42,13.08Z"/><path d="M202.43,8.14A4.45,4.45,0,0,1,207,5,4.6,4.6,0,0,1,210.9,7a.23.23,0,0,1-.07.34l-1.06.86a.21.21,0,0,1-.33,0A2.83,2.83,0,0,0,207,6.91a2.49,2.49,0,0,0-2.56,1.8,7.39,7.39,0,0,0-.27,2.33,7.45,7.45,0,0,0,.27,2.35,2.49,2.49,0,0,0,2.56,1.8A2.82,2.82,0,0,0,209.44,14a.21.21,0,0,1,.33,0l1.06.87c.14.12.14.21.07.33a4.61,4.61,0,0,1-3.94,2,4.46,4.46,0,0,1-4.53-3.1,9.81,9.81,0,0,1-.36-2.93A9.69,9.69,0,0,1,202.43,8.14Z"/><path d="M212.84,2.71a.23.23,0,0,1-.24-.24V.72a.23.23,0,0,1,.24-.24h1.64a.23.23,0,0,1,.24.24V2.47a.23.23,0,0,1-.24.24Zm0,14.09a.23.23,0,0,1-.24-.24v-11a.23.23,0,0,1,.24-.24h1.54a.23.23,0,0,1,.24.24v11a.23.23,0,0,1-.24.24Z"/><path d="M216.85,14a8.77,8.77,0,0,1-.38-2.93,8.65,8.65,0,0,1,.38-2.9,4.87,4.87,0,0,1,9.07,0,8.37,8.37,0,0,1,.39,2.9,8.48,8.48,0,0,1-.39,2.93,4.87,4.87,0,0,1-9.07,0Zm7.13-.58a7.56,7.56,0,0,0,.26-2.35A7.5,7.5,0,0,0,224,8.71a2.76,2.76,0,0,0-5.18,0,7.16,7.16,0,0,0-.27,2.33,7.22,7.22,0,0,0,.27,2.35,2.76,2.76,0,0,0,5.18,0Zm-3.46-10c-.14,0-.21-.09-.14-.24L222.2.24a.43.43,0,0,1,.41-.24h1.59a.14.14,0,0,1,.12.24l-2.21,3a.48.48,0,0,1-.46.24Z"/><path d="M235.57,16.8a.23.23,0,0,1-.24-.24V9.84c0-1.85-.84-2.93-2.57-2.93a2.58,2.58,0,0,0-2.64,2.81v6.84a.22.22,0,0,1-.24.24h-1.53a.22.22,0,0,1-.24-.24v-11a.23.23,0,0,1,.24-.24h1.53a.23.23,0,0,1,.24.24V6.6h0A3.62,3.62,0,0,1,233.36,5c2.5,0,4,1.7,4,4.32v7.2a.23.23,0,0,1-.24.24Z"/><path d="M243.73,14a9.1,9.1,0,0,1-.38-2.91,8.87,8.87,0,0,1,.36-2.9,4.83,4.83,0,0,1,9,0,10,10,0,0,1,.36,3.28.23.23,0,0,1-.26.25h-7.27c-.1,0-.15,0-.15.14a4.3,4.3,0,0,0,.19,1.39,2.84,2.84,0,0,0,2.91,2,3.74,3.74,0,0,0,3-1.27.25.25,0,0,1,.36-.05l1,.89a.22.22,0,0,1,0,.34,5.59,5.59,0,0,1-4.49,2A4.45,4.45,0,0,1,243.73,14Zm7.15-3.89a.13.13,0,0,0,.15-.15,4,4,0,0,0-.17-1.29,2.84,2.84,0,0,0-5.28,0,4,4,0,0,0-.17,1.29.13.13,0,0,0,.15.15Z"/><path d="M262.36,16.8a.22.22,0,0,1-.24-.24V9.84c0-1.85-.85-2.93-2.57-2.93a2.58,2.58,0,0,0-2.64,2.81v6.84a.23.23,0,0,1-.24.24h-1.54a.23.23,0,0,1-.24-.24v-11a.23.23,0,0,1,.24-.24h1.54a.23.23,0,0,1,.24.24V6.6h0A3.63,3.63,0,0,1,260.15,5c2.49,0,4,1.7,4,4.32v7.2a.22.22,0,0,1-.24.24Z"/><path d="M269.84,16.92c-2.23,0-3.09-1-3.09-3.26V7.08c0-.1-.05-.14-.15-.14h-1a.23.23,0,0,1-.24-.24V5.54a.23.23,0,0,1,.24-.24h1c.1,0,.15,0,.15-.14V1.92a.23.23,0,0,1,.24-.24h1.53a.23.23,0,0,1,.24.24V5.16c0,.1.05.14.15.14h1.82a.23.23,0,0,1,.24.24V6.7a.23.23,0,0,1-.24.24h-1.82c-.1,0-.15,0-.15.14v6.5c0,1.16.43,1.47,1.47,1.47h.5a.23.23,0,0,1,.24.24v1.39a.23.23,0,0,1-.24.24Z"/><path d="M272.89,16.8a.23.23,0,0,1-.24-.24v-11a.23.23,0,0,1,.24-.24h1.54a.23.23,0,0,1,.24.24V6.72h0A3.2,3.2,0,0,1,277.74,5a3.56,3.56,0,0,1,2.35.86c.12.12.14.22.05.34l-.89,1.18a.21.21,0,0,1-.33,0,3.31,3.31,0,0,0-1.78-.55c-1.75,0-2.47,1.37-2.47,3.36v6.29a.23.23,0,0,1-.24.24Z"/><path d="M280.31,14a9.05,9.05,0,0,1-.39-2.91,8.87,8.87,0,0,1,.36-2.9,4.84,4.84,0,0,1,9,0,10,10,0,0,1,.36,3.28.24.24,0,0,1-.27.25h-7.27c-.1,0-.14,0-.14.14a4.3,4.3,0,0,0,.19,1.39,2.83,2.83,0,0,0,2.9,2A3.74,3.74,0,0,0,288,13.92a.25.25,0,0,1,.36-.05l1,.89a.22.22,0,0,1,0,.34,5.59,5.59,0,0,1-4.49,2A4.44,4.44,0,0,1,280.31,14Zm7.15-3.89c.09,0,.14-.05.14-.15a4.32,4.32,0,0,0-.16-1.29,2.84,2.84,0,0,0-5.29,0A4,4,0,0,0,282,9.91c0,.1,0,.15.14.15Z"/><path d="M295,15.34a.25.25,0,0,1,0-.34L296,14a.22.22,0,0,1,.33,0,5.63,5.63,0,0,0,3.56,1.32c1.68,0,2.52-.73,2.52-1.76s-.44-1.41-2.24-1.61l-1.22-.12c-2.26-.24-3.43-1.36-3.43-3.24,0-2.18,1.56-3.5,4.27-3.5a6.88,6.88,0,0,1,4.08,1.27.24.24,0,0,1,0,.34l-.82,1a.23.23,0,0,1-.33.05,6.07,6.07,0,0,0-3.1-.94c-1.44,0-2.18.65-2.18,1.59s.55,1.39,2.25,1.56l1.2.12c2.33.21,3.46,1.39,3.46,3.24,0,2.25-1.63,3.77-4.63,3.77A7.19,7.19,0,0,1,295,15.34Z"/><path d="M305.79,14a8.77,8.77,0,0,1-.38-2.93,8.65,8.65,0,0,1,.38-2.9,4.87,4.87,0,0,1,9.08,0,8.65,8.65,0,0,1,.38,2.9,8.77,8.77,0,0,1-.38,2.93,4.87,4.87,0,0,1-9.08,0Zm7.13-.58a7.5,7.5,0,0,0,.27-2.35,7.45,7.45,0,0,0-.27-2.33,2.76,2.76,0,0,0-5.18,0,7.45,7.45,0,0,0-.27,2.33,7.5,7.5,0,0,0,.27,2.35,2.76,2.76,0,0,0,5.18,0Z"/><path d="M317.29,21.12a.23.23,0,0,1-.24-.24V5.54a.23.23,0,0,1,.24-.24h1.54a.23.23,0,0,1,.24.24V6.62h0A3.49,3.49,0,0,1,322.35,5a3.79,3.79,0,0,1,4,2.76,9.29,9.29,0,0,1,.41,3.24,9.43,9.43,0,0,1-.41,3.27,3.79,3.79,0,0,1-4,2.76,3.5,3.5,0,0,1-3.26-1.61h0v5.42a.23.23,0,0,1-.24.24Zm7.1-7.68a7.68,7.68,0,0,0,.27-2.4,7.88,7.88,0,0,0-.27-2.4,2.71,2.71,0,0,0-5.06,0,7.59,7.59,0,0,0-.26,2.4,7.47,7.47,0,0,0,.26,2.4,2.7,2.7,0,0,0,5.06,0Z"/><path d="M328.21,14a8.77,8.77,0,0,1-.38-2.93,8.65,8.65,0,0,1,.38-2.9,4.87,4.87,0,0,1,9.07,0,8.37,8.37,0,0,1,.39,2.9,8.48,8.48,0,0,1-.39,2.93,4.87,4.87,0,0,1-9.07,0Zm7.13-.58A7.56,7.56,0,0,0,335.6,11a7.5,7.5,0,0,0-.26-2.33,2.77,2.77,0,0,0-5.19,0,7.5,7.5,0,0,0-.26,2.33,7.56,7.56,0,0,0,.26,2.35,2.77,2.77,0,0,0,5.19,0Z"/><path d="M339.71,16.8a.22.22,0,0,1-.24-.24v-11a.23.23,0,0,1,.24-.24h1.53a.23.23,0,0,1,.24.24V6.72h0a3.2,3.2,0,0,1,3-1.68,3.58,3.58,0,0,1,2.36.86c.12.12.14.22,0,.34l-.88,1.18a.22.22,0,0,1-.34,0A3.28,3.28,0,0,0,344,6.91c-1.75,0-2.47,1.37-2.47,3.36v6.29a.22.22,0,0,1-.24.24Z"/><path d="M351.2,16.92c-2.23,0-3.09-1-3.09-3.26V7.08c0-.1-.05-.14-.15-.14h-1a.23.23,0,0,1-.24-.24V5.54A.23.23,0,0,1,347,5.3h1c.1,0,.15,0,.15-.14V1.92a.23.23,0,0,1,.24-.24h1.53a.23.23,0,0,1,.24.24V5.16c0,.1.05.14.15.14h1.82a.23.23,0,0,1,.24.24V6.7a.23.23,0,0,1-.24.24h-1.82c-.1,0-.15,0-.15.14v6.5c0,1.16.43,1.47,1.47,1.47h.5a.23.23,0,0,1,.24.24v1.39a.23.23,0,0,1-.24.24Z"/><path d="M353.7,14a9.05,9.05,0,0,1-.39-2.91,8.87,8.87,0,0,1,.36-2.9,4.84,4.84,0,0,1,9,0,10,10,0,0,1,.36,3.28.24.24,0,0,1-.27.25h-7.27a.12.12,0,0,0-.14.14,4.3,4.3,0,0,0,.19,1.39,2.83,2.83,0,0,0,2.9,2,3.78,3.78,0,0,0,3-1.27.25.25,0,0,1,.36-.05l1,.89a.22.22,0,0,1,0,.34,5.59,5.59,0,0,1-4.48,2A4.45,4.45,0,0,1,353.7,14Zm7.15-3.89c.1,0,.14-.05.14-.15a4,4,0,0,0-.16-1.29,2.84,2.84,0,0,0-5.28,0,4,4,0,0,0-.17,1.29c0,.1.05.15.14.15Z"/><path d="M364.07,15.34a.23.23,0,0,1,0-.34l1-1.05a.23.23,0,0,1,.34,0,5.6,5.6,0,0,0,3.55,1.32c1.68,0,2.52-.73,2.52-1.76s-.43-1.41-2.23-1.61L368,11.78c-2.25-.24-3.43-1.36-3.43-3.24,0-2.18,1.56-3.5,4.27-3.5a6.88,6.88,0,0,1,4.08,1.27.24.24,0,0,1,.05.34l-.82,1a.23.23,0,0,1-.33.05,6.07,6.07,0,0,0-3.1-.94c-1.44,0-2.18.65-2.18,1.59s.55,1.39,2.25,1.56l1.2.12c2.33.21,3.46,1.39,3.46,3.24,0,2.25-1.63,3.77-4.63,3.77A7.16,7.16,0,0,1,364.07,15.34Z"/><path d="M4.48,44.8c-.17,0-.24-.09-.29-.24l-4.13-11c0-.14,0-.24.19-.24H1.91c.17,0,.24.08.31.24l3,8.26h0l2.9-8.26a.29.29,0,0,1,.29-.24h1.63c.17,0,.24.1.19.24l-4.1,11a.3.3,0,0,1-.31.24Z"/><path d="M11,42A9.05,9.05,0,0,1,10.62,39a8.87,8.87,0,0,1,.36-2.9A4.44,4.44,0,0,1,15.5,33,4.46,4.46,0,0,1,20,36.14a10,10,0,0,1,.36,3.28.24.24,0,0,1-.27.25H12.83c-.1,0-.14,0-.14.14a4.3,4.3,0,0,0,.19,1.39,2.84,2.84,0,0,0,2.9,2,3.78,3.78,0,0,0,3-1.27.25.25,0,0,1,.36-.05l1,.89a.22.22,0,0,1,0,.34,5.59,5.59,0,0,1-4.49,2A4.44,4.44,0,0,1,11,42Zm7.15-3.89c.1,0,.14-.05.14-.15a4,4,0,0,0-.16-1.29,2.6,2.6,0,0,0-2.64-1.8,2.58,2.58,0,0,0-2.64,1.8,3.74,3.74,0,0,0-.17,1.29c0,.1,0,.15.14.15Z"/><path d="M22.41,44.8a.22.22,0,0,1-.24-.24v-11a.23.23,0,0,1,.24-.24h1.53a.23.23,0,0,1,.24.24v1.18h0A3.2,3.2,0,0,1,27.26,33a3.58,3.58,0,0,1,2.35.86c.12.12.14.22.05.34l-.89,1.18a.22.22,0,0,1-.34,0,3.28,3.28,0,0,0-1.77-.55c-1.76,0-2.48,1.37-2.48,3.36v6.29a.22.22,0,0,1-.24.24Z"/><path d="M33.9,44.92c-2.23,0-3.09-1-3.09-3.26V35.08c0-.1,0-.14-.15-.14h-1a.23.23,0,0,1-.24-.24V33.54a.23.23,0,0,1,.24-.24h1c.1,0,.15,0,.15-.14V29.92a.23.23,0,0,1,.24-.24h1.53a.23.23,0,0,1,.24.24v3.24c0,.1,0,.14.15.14h1.82a.23.23,0,0,1,.24.24V34.7a.23.23,0,0,1-.24.24H33c-.1,0-.15,0-.15.14v6.5c0,1.16.44,1.47,1.47,1.47h.5a.23.23,0,0,1,.24.24v1.39a.22.22,0,0,1-.24.24Z"/><path d="M36.9,30.71a.23.23,0,0,1-.24-.24V28.72a.23.23,0,0,1,.24-.24h1.63a.23.23,0,0,1,.24.24v1.75a.22.22,0,0,1-.24.24ZM37,44.8a.23.23,0,0,1-.24-.24v-11A.23.23,0,0,1,37,33.3h1.54a.23.23,0,0,1,.24.24v11a.23.23,0,0,1-.24.24Z"/><path d="M40.89,36.14A4.43,4.43,0,0,1,45.42,33,4.62,4.62,0,0,1,49.36,35a.23.23,0,0,1-.07.34l-1.06.86a.22.22,0,0,1-.34,0,2.82,2.82,0,0,0-2.47-1.25,2.5,2.5,0,0,0-2.57,1.8A7.75,7.75,0,0,0,42.59,39a7.81,7.81,0,0,0,.26,2.35,2.5,2.5,0,0,0,2.57,1.8A2.82,2.82,0,0,0,47.89,42a.22.22,0,0,1,.34,0l1.06.87c.14.12.14.21.07.33a4.62,4.62,0,0,1-3.94,2A4.44,4.44,0,0,1,40.89,42,9.76,9.76,0,0,1,40.52,39,9.63,9.63,0,0,1,40.89,36.14Z"/><path d="M57.78,44.8a.23.23,0,0,1-.24-.24v-1h0a3.77,3.77,0,0,1-3.41,1.52c-2.18,0-3.86-1.13-3.86-3.46s1.68-3.55,4.48-3.55h2.62c.1,0,.14-.05.14-.15v-.84c0-1.58-.62-2.25-2.76-2.25a4.47,4.47,0,0,0-2.78.81.22.22,0,0,1-.34,0L51,34.5a.24.24,0,0,1,0-.33A6.42,6.42,0,0,1,54.93,33c3.26,0,4.51,1.08,4.51,3.91v7.61a.23.23,0,0,1-.24.24Zm-.29-3.72V39.81c0-.1,0-.14-.14-.14h-2.3c-2,0-2.86.57-2.86,1.87s.86,1.8,2.4,1.8C56.39,43.34,57.49,42.5,57.49,41.08Z"/><path d="M64.6,44.92c-2,0-2.81-1-2.81-3V28.72a.23.23,0,0,1,.24-.24h1.54a.23.23,0,0,1,.24.24V41.78c0,1,.36,1.27,1.15,1.27h.45a.23.23,0,0,1,.24.24v1.39a.22.22,0,0,1-.24.24Z"/><path d="M66.73,42A9.1,9.1,0,0,1,66.35,39a8.87,8.87,0,0,1,.36-2.9,4.83,4.83,0,0,1,9,0,9.89,9.89,0,0,1,.37,3.28.24.24,0,0,1-.27.25H68.56c-.1,0-.15,0-.15.14a4.27,4.27,0,0,0,.2,1.39,2.83,2.83,0,0,0,2.9,2,3.74,3.74,0,0,0,2.95-1.27.25.25,0,0,1,.36-.05l1,.89a.22.22,0,0,1,0,.34,5.59,5.59,0,0,1-4.49,2A4.45,4.45,0,0,1,66.73,42Zm7.16-3.89c.09,0,.14-.05.14-.15a4,4,0,0,0-.17-1.29,2.84,2.84,0,0,0-5.28,0,4,4,0,0,0-.17,1.29.13.13,0,0,0,.15.15Z"/><path d="M77.1,43.34a.25.25,0,0,1,0-.34l1-1a.22.22,0,0,1,.33,0A5.62,5.62,0,0,0,82,43.27c1.68,0,2.52-.73,2.52-1.76s-.43-1.41-2.23-1.61L81,39.78c-2.26-.24-3.43-1.36-3.43-3.24,0-2.18,1.56-3.5,4.27-3.5A6.88,6.88,0,0,1,86,34.31a.24.24,0,0,1,.05.34l-.82,1a.24.24,0,0,1-.34,0,6,6,0,0,0-3.09-.94c-1.44,0-2.19.65-2.19,1.59s.56,1.39,2.26,1.56l1.2.12c2.33.21,3.46,1.39,3.46,3.24,0,2.25-1.64,3.77-4.64,3.77A7.18,7.18,0,0,1,77.1,43.34Z"/><path d="M99.73,44.8a.23.23,0,0,1-.24-.24v-1.1h0a3.5,3.5,0,0,1-3.26,1.61,3.79,3.79,0,0,1-4-2.76A9.43,9.43,0,0,1,91.84,39a9.29,9.29,0,0,1,.41-3.24,3.79,3.79,0,0,1,4-2.76,3.49,3.49,0,0,1,3.26,1.58h0v-5.9a.23.23,0,0,1,.24-.24h1.54a.23.23,0,0,1,.24.24V44.56a.23.23,0,0,1-.24.24Zm-.5-3.36a7.47,7.47,0,0,0,.26-2.4,7.59,7.59,0,0,0-.26-2.4,2.71,2.71,0,0,0-5.06,0A7.88,7.88,0,0,0,93.9,39a7.68,7.68,0,0,0,.27,2.4,2.7,2.7,0,0,0,5.06,0Z"/><path d="M103.69,42a9.1,9.1,0,0,1-.38-2.91,8.87,8.87,0,0,1,.36-2.9,4.83,4.83,0,0,1,9,0,10,10,0,0,1,.36,3.28.23.23,0,0,1-.26.25h-7.27c-.1,0-.15,0-.15.14a4,4,0,0,0,.2,1.39,2.83,2.83,0,0,0,2.9,2,3.74,3.74,0,0,0,3-1.27.25.25,0,0,1,.36-.05l1,.89a.22.22,0,0,1,0,.34,5.59,5.59,0,0,1-4.49,2A4.45,4.45,0,0,1,103.69,42Zm7.16-3.89c.09,0,.14-.05.14-.15a4,4,0,0,0-.17-1.29,2.84,2.84,0,0,0-5.28,0,4,4,0,0,0-.17,1.29.13.13,0,0,0,.15.15Z"/><path d="M115.09,44.8a.23.23,0,0,1-.24-.24V28.72a.23.23,0,0,1,.24-.24h1.54a.23.23,0,0,1,.24.24v5.9h0A3.5,3.5,0,0,1,120.16,33a3.81,3.81,0,0,1,4,2.76,9.53,9.53,0,0,1,.41,3.24,9.68,9.68,0,0,1-.41,3.27,3.81,3.81,0,0,1-4,2.76,3.51,3.51,0,0,1-3.27-1.61h0v1.1a.23.23,0,0,1-.24.24Zm7.11-3.36a8,8,0,0,0,.26-2.4,8.26,8.26,0,0,0-.26-2.4,2.72,2.72,0,0,0-5.07,0,7.59,7.59,0,0,0-.26,2.4,7.47,7.47,0,0,0,.26,2.4,2.71,2.71,0,0,0,5.07,0Z"/><path d="M126,42a9.1,9.1,0,0,1-.38-2.91,8.87,8.87,0,0,1,.36-2.9,4.83,4.83,0,0,1,9,0,10,10,0,0,1,.36,3.28.23.23,0,0,1-.26.25h-7.27c-.1,0-.15,0-.15.14a4.27,4.27,0,0,0,.2,1.39,2.83,2.83,0,0,0,2.9,2,3.74,3.74,0,0,0,3-1.27.25.25,0,0,1,.36-.05l1,.89a.22.22,0,0,1,0,.34,5.59,5.59,0,0,1-4.49,2A4.45,4.45,0,0,1,126,42Zm7.16-3.89c.09,0,.14-.05.14-.15a4,4,0,0,0-.17-1.29,2.84,2.84,0,0,0-5.28,0,4,4,0,0,0-.17,1.29.13.13,0,0,0,.15.15Z"/><path d="M140.7,43.34a.25.25,0,0,1,0-.34l1-1a.22.22,0,0,1,.33,0,5.62,5.62,0,0,0,3.55,1.32c1.68,0,2.52-.73,2.52-1.76s-.43-1.41-2.23-1.61l-1.22-.12c-2.26-.24-3.44-1.36-3.44-3.24,0-2.18,1.57-3.5,4.28-3.5a6.88,6.88,0,0,1,4.08,1.27.24.24,0,0,1,.05.34l-.82,1a.24.24,0,0,1-.34,0,6,6,0,0,0-3.09-.94c-1.44,0-2.19.65-2.19,1.59s.56,1.39,2.26,1.56l1.2.12c2.33.21,3.46,1.39,3.46,3.24,0,2.25-1.64,3.77-4.64,3.77A7.18,7.18,0,0,1,140.7,43.34Z"/><path d="M151.5,42a9.1,9.1,0,0,1-.38-2.91,8.87,8.87,0,0,1,.36-2.9,4.83,4.83,0,0,1,9,0,10,10,0,0,1,.36,3.28.23.23,0,0,1-.26.25h-7.27c-.1,0-.15,0-.15.14a4.3,4.3,0,0,0,.19,1.39,2.84,2.84,0,0,0,2.91,2,3.74,3.74,0,0,0,2.95-1.27.25.25,0,0,1,.36-.05l1,.89a.22.22,0,0,1,0,.34,5.59,5.59,0,0,1-4.49,2A4.45,4.45,0,0,1,151.5,42Zm7.15-3.89a.13.13,0,0,0,.15-.15,4,4,0,0,0-.17-1.29,2.84,2.84,0,0,0-5.28,0,4,4,0,0,0-.17,1.29.13.13,0,0,0,.15.15Z"/><path d="M162.9,44.8a.23.23,0,0,1-.24-.24v-11a.23.23,0,0,1,.24-.24h1.54a.23.23,0,0,1,.24.24v1.18h0A3.2,3.2,0,0,1,167.75,33a3.56,3.56,0,0,1,2.35.86c.12.12.15.22.05.34l-.89,1.18a.21.21,0,0,1-.33,0,3.31,3.31,0,0,0-1.78-.55c-1.75,0-2.47,1.37-2.47,3.36v6.29a.23.23,0,0,1-.24.24Z"/><path d="M182.58,44.8a.23.23,0,0,1-.24-.24v-1.1h0a3.51,3.51,0,0,1-3.27,1.61,3.81,3.81,0,0,1-4-2.76,9.71,9.71,0,0,1-.4-3.27,9.56,9.56,0,0,1,.4-3.24,3.81,3.81,0,0,1,4-2.76,3.5,3.5,0,0,1,3.27,1.58h0v-5.9a.23.23,0,0,1,.24-.24h1.54a.23.23,0,0,1,.24.24V44.56a.23.23,0,0,1-.24.24Zm-.5-3.36a7.47,7.47,0,0,0,.26-2.4,7.59,7.59,0,0,0-.26-2.4,2.72,2.72,0,0,0-5.07,0,8.26,8.26,0,0,0-.26,2.4,8,8,0,0,0,.26,2.4,2.71,2.71,0,0,0,5.07,0Z"/><path d="M186.54,42a9.1,9.1,0,0,1-.38-2.91,8.87,8.87,0,0,1,.36-2.9,4.83,4.83,0,0,1,9,0,10,10,0,0,1,.36,3.28.23.23,0,0,1-.26.25h-7.28a.12.12,0,0,0-.14.14,4.3,4.3,0,0,0,.19,1.39,2.84,2.84,0,0,0,2.91,2,3.74,3.74,0,0,0,3-1.27.25.25,0,0,1,.36-.05l1,.89a.22.22,0,0,1,0,.34,5.59,5.59,0,0,1-4.49,2A4.45,4.45,0,0,1,186.54,42Zm7.15-3.89a.13.13,0,0,0,.15-.15,4,4,0,0,0-.17-1.29,2.84,2.84,0,0,0-5.28,0,4,4,0,0,0-.17,1.29c0,.1.05.15.14.15Z"/><path d="M209,44.8a.23.23,0,0,1-.24-.24v-1h0a3.77,3.77,0,0,1-3.41,1.52c-2.19,0-3.87-1.13-3.87-3.46s1.68-3.55,4.49-3.55h2.62c.1,0,.14-.05.14-.15v-.84c0-1.58-.62-2.25-2.76-2.25a4.47,4.47,0,0,0-2.78.81c-.12.1-.27.1-.34,0l-.65-1.11a.25.25,0,0,1,.05-.33A6.4,6.4,0,0,1,206.12,33c3.27,0,4.52,1.08,4.52,3.91v7.61a.23.23,0,0,1-.24.24Zm-.29-3.72V39.81c0-.1,0-.14-.14-.14h-2.31c-2,0-2.85.57-2.85,1.87s.86,1.8,2.4,1.8C207.59,43.34,208.69,42.5,208.69,41.08Z"/><path d="M215.8,44.92c-2,0-2.81-1-2.81-3V28.72a.23.23,0,0,1,.24-.24h1.54a.23.23,0,0,1,.24.24V41.78c0,1,.35,1.27,1.15,1.27h.45a.23.23,0,0,1,.24.24v1.39a.22.22,0,0,1-.24.24Z"/><path d="M237.25,44.8a.23.23,0,0,1-.24-.24V37.84c0-1.85-.84-2.93-2.57-2.93a2.59,2.59,0,0,0-2.63,2.81v6.84a.23.23,0,0,1-.25.24H230a.22.22,0,0,1-.24-.24V37.84c0-1.85-.84-2.93-2.57-2.93a2.58,2.58,0,0,0-2.64,2.81v6.84a.23.23,0,0,1-.24.24H222.8a.23.23,0,0,1-.24-.24v-11a.23.23,0,0,1,.24-.24h1.54a.23.23,0,0,1,.24.24V34.6h0a4.06,4.06,0,0,1,6.57.24h0a4.31,4.31,0,0,1,3.73-1.8c2.66,0,4.1,1.7,4.1,4.32v7.2a.23.23,0,0,1-.24.24Z"/><path d="M241.09,42a9.1,9.1,0,0,1-.38-2.91,8.87,8.87,0,0,1,.36-2.9,4.83,4.83,0,0,1,9,0,10,10,0,0,1,.36,3.28.23.23,0,0,1-.26.25h-7.27c-.1,0-.15,0-.15.14A4.3,4.3,0,0,0,243,41.2a2.84,2.84,0,0,0,2.91,2,3.74,3.74,0,0,0,2.95-1.27.25.25,0,0,1,.36-.05l1,.89a.23.23,0,0,1,0,.34,5.59,5.59,0,0,1-4.49,2A4.45,4.45,0,0,1,241.09,42Zm7.15-3.89a.13.13,0,0,0,.15-.15,4,4,0,0,0-.17-1.29,2.84,2.84,0,0,0-5.28,0,4,4,0,0,0-.17,1.29.13.13,0,0,0,.15.15Z"/><path d="M259.72,44.8a.22.22,0,0,1-.24-.24V37.84c0-1.85-.84-2.93-2.57-2.93a2.58,2.58,0,0,0-2.64,2.81v6.84a.23.23,0,0,1-.24.24h-1.54a.23.23,0,0,1-.24-.24v-11a.23.23,0,0,1,.24-.24H254a.23.23,0,0,1,.24.24V34.6h0A3.65,3.65,0,0,1,257.51,33c2.5,0,4,1.7,4,4.32v7.2a.22.22,0,0,1-.24.24Z"/><path d="M263.56,42a8.48,8.48,0,0,1-.39-2.93,8.37,8.37,0,0,1,.39-2.9,4.87,4.87,0,0,1,9.07,0A8.65,8.65,0,0,1,273,39a8.77,8.77,0,0,1-.38,2.93,4.87,4.87,0,0,1-9.07,0Zm7.12-.58A7.22,7.22,0,0,0,271,39a7.16,7.16,0,0,0-.27-2.33,2.76,2.76,0,0,0-5.18,0,7.5,7.5,0,0,0-.26,2.33,7.56,7.56,0,0,0,.26,2.35,2.76,2.76,0,0,0,5.18,0Z"/><path d="M274,43.34a.23.23,0,0,1,0-.34l1-1a.23.23,0,0,1,.34,0,5.6,5.6,0,0,0,3.55,1.32c1.68,0,2.52-.73,2.52-1.76s-.43-1.41-2.23-1.61L278,39.78c-2.26-.24-3.44-1.36-3.44-3.24,0-2.18,1.56-3.5,4.28-3.5a6.88,6.88,0,0,1,4.08,1.27.23.23,0,0,1,0,.34l-.81,1a.24.24,0,0,1-.34,0,6,6,0,0,0-3.09-.94c-1.44,0-2.19.65-2.19,1.59s.55,1.39,2.26,1.56l1.2.12c2.33.21,3.45,1.39,3.45,3.24,0,2.25-1.63,3.77-4.63,3.77A7.18,7.18,0,0,1,274,43.34Z"/><path d="M293.34,31h0l-2.71,1.9c-.14.1-.27,0-.27-.14V31a.41.41,0,0,1,.17-.34l2.81-2a.58.58,0,0,1,.39-.14h1.44a.23.23,0,0,1,.24.24V44.56a.23.23,0,0,1-.24.24h-1.54a.23.23,0,0,1-.24-.24Z"/><path d="M320,44.8a.22.22,0,0,1-.24-.24V37.84c0-1.85-.84-2.93-2.57-2.93a2.59,2.59,0,0,0-2.64,2.81v6.84a.23.23,0,0,1-.24.24H312.8a.23.23,0,0,1-.24-.24V37.84c0-1.85-.84-2.93-2.56-2.93a2.58,2.58,0,0,0-2.64,2.81v6.84a.23.23,0,0,1-.25.24h-1.53a.23.23,0,0,1-.24-.24v-11a.23.23,0,0,1,.24-.24h1.53a.23.23,0,0,1,.25.24V34.6h0a4.07,4.07,0,0,1,6.58.24h0A4.29,4.29,0,0,1,317.7,33c2.66,0,4.1,1.7,4.1,4.32v7.2a.22.22,0,0,1-.24.24Z"/><path d="M327.52,44.92c-2.24,0-3.1-1-3.1-3.26V35.08c0-.1-.05-.14-.15-.14h-1a.23.23,0,0,1-.24-.24V33.54a.23.23,0,0,1,.24-.24h1c.1,0,.15,0,.15-.14V29.92a.23.23,0,0,1,.24-.24h1.53a.23.23,0,0,1,.25.24v3.24c0,.1,0,.14.14.14h1.82a.23.23,0,0,1,.24.24V34.7a.23.23,0,0,1-.24.24h-1.82c-.1,0-.14,0-.14.14v6.5c0,1.16.43,1.47,1.46,1.47h.5a.23.23,0,0,1,.24.24v1.39a.22.22,0,0,1-.24.24Z"/><path d="M334.88,49.12a.23.23,0,0,1-.24-.24V33.54a.23.23,0,0,1,.24-.24h1.54a.23.23,0,0,1,.24.24v1.08h0A3.5,3.5,0,0,1,340,33a3.81,3.81,0,0,1,4,2.76,9.53,9.53,0,0,1,.41,3.24,9.68,9.68,0,0,1-.41,3.27,3.81,3.81,0,0,1-4,2.76,3.51,3.51,0,0,1-3.27-1.61h0v5.42a.23.23,0,0,1-.24.24ZM342,41.44a8,8,0,0,0,.26-2.4,8.26,8.26,0,0,0-.26-2.4,2.72,2.72,0,0,0-5.07,0,7.59,7.59,0,0,0-.26,2.4,7.47,7.47,0,0,0,.26,2.4,2.71,2.71,0,0,0,5.07,0Z"/><path d="M353.07,44.8a.23.23,0,0,1-.24-.24v-1h0a3.77,3.77,0,0,1-3.41,1.52c-2.18,0-3.86-1.13-3.86-3.46s1.68-3.55,4.49-3.55h2.61a.13.13,0,0,0,.15-.15v-.84c0-1.58-.63-2.25-2.76-2.25a4.48,4.48,0,0,0-2.79.81c-.12.1-.26.1-.33,0l-.65-1.11a.24.24,0,0,1,.05-.33A6.36,6.36,0,0,1,350.22,33c3.26,0,4.51,1.08,4.51,3.91v7.61a.23.23,0,0,1-.24.24Zm-.28-3.72V39.81c0-.1-.05-.14-.15-.14h-2.3c-2,0-2.86.57-2.86,1.87s.87,1.8,2.4,1.8C351.68,43.34,352.79,42.5,352.79,41.08Z"/><path d="M357.37,44.8a.23.23,0,0,1-.24-.24v-11a.23.23,0,0,1,.24-.24h1.54a.23.23,0,0,1,.24.24v1.18h0A3.2,3.2,0,0,1,362.22,33a3.58,3.58,0,0,1,2.35.86c.12.12.14.22.05.34l-.89,1.18a.22.22,0,0,1-.34,0,3.25,3.25,0,0,0-1.77-.55c-1.75,0-2.47,1.37-2.47,3.36v6.29a.23.23,0,0,1-.24.24Z"/><path d="M371.91,44.8a.22.22,0,0,1-.23-.24v-1h0a3.77,3.77,0,0,1-3.41,1.52c-2.18,0-3.86-1.13-3.86-3.46s1.68-3.55,4.49-3.55h2.61a.13.13,0,0,0,.15-.15v-.84c0-1.58-.63-2.25-2.76-2.25a4.48,4.48,0,0,0-2.79.81c-.12.1-.26.1-.33,0l-.65-1.11a.24.24,0,0,1,0-.33A6.36,6.36,0,0,1,369.06,33c3.26,0,4.51,1.08,4.51,3.91v7.61a.23.23,0,0,1-.24.24Zm-.28-3.72V39.81c0-.1-.05-.14-.15-.14h-2.3c-2,0-2.86.57-2.86,1.87s.87,1.8,2.4,1.8C370.52,43.34,371.63,42.5,371.63,41.08Z"/><path d="M8.61,77.12a.22.22,0,0,1-.24-.24V71.46h0a3.49,3.49,0,0,1-3.26,1.61,3.8,3.8,0,0,1-4-2.76A9.68,9.68,0,0,1,.71,67a9.57,9.57,0,0,1,.41-3.24,3.8,3.8,0,0,1,4-2.76,3.48,3.48,0,0,1,3.26,1.58h0V61.54a.23.23,0,0,1,.24-.24h1.53a.23.23,0,0,1,.24.24V76.88a.22.22,0,0,1-.24.24ZM8.1,69.44A7.14,7.14,0,0,0,8.37,67a7.25,7.25,0,0,0-.27-2.4,2.44,2.44,0,0,0-2.54-1.73A2.44,2.44,0,0,0,3,64.64,8.21,8.21,0,0,0,2.77,67,8,8,0,0,0,3,69.44a2.45,2.45,0,0,0,2.52,1.75A2.46,2.46,0,0,0,8.1,69.44Z"/><path d="M20.1,72.8a.23.23,0,0,1-.24-.24V71.48h0a3.52,3.52,0,0,1-3.15,1.59c-2.52,0-4-1.73-4-4.35V61.54A.23.23,0,0,1,13,61.3h1.54a.23.23,0,0,1,.24.24v6.7c0,1.87.84,3,2.54,3a2.55,2.55,0,0,0,2.59-2.83V61.54a.23.23,0,0,1,.24-.24h1.54a.23.23,0,0,1,.24.24v11a.23.23,0,0,1-.24.24Z"/><path d="M24.06,70A9.1,9.1,0,0,1,23.68,67a8.87,8.87,0,0,1,.36-2.9A4.44,4.44,0,0,1,28.55,61a4.45,4.45,0,0,1,4.51,3.1,10,10,0,0,1,.36,3.28.23.23,0,0,1-.26.25H25.89c-.1,0-.15,0-.15.14a4.3,4.3,0,0,0,.19,1.39,2.84,2.84,0,0,0,2.91,2,3.74,3.74,0,0,0,2.95-1.27.25.25,0,0,1,.36,0l1,.89a.21.21,0,0,1,0,.34,5.59,5.59,0,0,1-4.49,2A4.45,4.45,0,0,1,24.06,70Zm7.15-3.89a.13.13,0,0,0,.15-.15,4,4,0,0,0-.17-1.29,2.58,2.58,0,0,0-2.64-1.8,2.58,2.58,0,0,0-2.64,1.8,4,4,0,0,0-.17,1.29.13.13,0,0,0,.15.15Z"/><path d="M39.3,75.68a.21.21,0,0,1,0-.33l1-1a.23.23,0,0,1,.36,0,3.83,3.83,0,0,0,2.71,1.15c1.9,0,2.91-1,2.91-3.09V71.07h0a3.3,3.3,0,0,1-3.19,1.59,3.77,3.77,0,0,1-3.86-2.79,8.89,8.89,0,0,1-.39-3,9,9,0,0,1,.39-3A3.76,3.76,0,0,1,43.07,61a3.3,3.3,0,0,1,3.19,1.58h0V61.54a.23.23,0,0,1,.24-.24h1.53a.23.23,0,0,1,.24.24V72.3c0,3.26-1.77,5.09-5,5.09A5.21,5.21,0,0,1,39.3,75.68ZM46,69.08a9.34,9.34,0,0,0,0-4.46,2.59,2.59,0,0,0-4.87,0,7.22,7.22,0,0,0-.29,2.23,7.13,7.13,0,0,0,.29,2.23,2.34,2.34,0,0,0,2.42,1.73A2.38,2.38,0,0,0,46,69.08Z"/><path d="M57.76,72.8a.22.22,0,0,1-.24-.24v-1h0a3.74,3.74,0,0,1-3.4,1.52c-2.19,0-3.87-1.13-3.87-3.46s1.68-3.55,4.49-3.55h2.62c.09,0,.14,0,.14-.15v-.84c0-1.58-.62-2.25-2.76-2.25a4.44,4.44,0,0,0-2.78.81c-.12.1-.27.1-.34,0l-.65-1.11a.24.24,0,0,1,.05-.33A6.38,6.38,0,0,1,54.9,61c3.27,0,4.51,1.08,4.51,3.91v7.61a.22.22,0,0,1-.24.24Zm-.29-3.72V67.81a.12.12,0,0,0-.14-.14H55c-2,0-2.85.57-2.85,1.87s.86,1.8,2.4,1.8C56.37,71.34,57.47,70.5,57.47,69.08Z"/><path d="M62.05,72.8a.23.23,0,0,1-.24-.24v-11a.23.23,0,0,1,.24-.24h1.54a.23.23,0,0,1,.24.24v1.18h0A3.23,3.23,0,0,1,66.9,61a3.56,3.56,0,0,1,2.35.86c.12.12.15.22,0,.34l-.89,1.18a.21.21,0,0,1-.33,0,3.31,3.31,0,0,0-1.78-.55c-1.75,0-2.47,1.37-2.47,3.36v6.29a.23.23,0,0,1-.24.24Z"/><path d="M76.6,72.8a.22.22,0,0,1-.24-.24v-1h0a3.74,3.74,0,0,1-3.4,1.52c-2.19,0-3.87-1.13-3.87-3.46s1.68-3.55,4.49-3.55h2.62c.09,0,.14,0,.14-.15v-.84c0-1.58-.62-2.25-2.76-2.25a4.44,4.44,0,0,0-2.78.81c-.12.1-.27.1-.34,0l-.65-1.11a.24.24,0,0,1,0-.33A6.38,6.38,0,0,1,73.74,61C77,61,78.25,62.12,78.25,65v7.61a.22.22,0,0,1-.24.24Zm-.29-3.72V67.81a.12.12,0,0,0-.14-.14H73.86c-2,0-2.85.57-2.85,1.87s.86,1.8,2.4,1.8C75.21,71.34,76.31,70.5,76.31,69.08Z"/><path d="M88.12,72.8a.22.22,0,0,1-.24-.24V65.84c0-1.85-.84-2.93-2.57-2.93a2.58,2.58,0,0,0-2.64,2.81v6.84a.23.23,0,0,1-.24.24H80.89a.23.23,0,0,1-.24-.24v-11a.23.23,0,0,1,.24-.24h1.54a.23.23,0,0,1,.24.24V62.6h0A3.65,3.65,0,0,1,85.91,61c2.5,0,4,1.7,4,4.32v7.2a.22.22,0,0,1-.24.24Z"/><path d="M95.61,72.92c-2.24,0-3.1-1-3.1-3.26V63.08c0-.1-.05-.14-.15-.14h-1a.23.23,0,0,1-.24-.24V61.54a.23.23,0,0,1,.24-.24h1c.1,0,.15,0,.15-.14V57.92a.23.23,0,0,1,.24-.24h1.54a.23.23,0,0,1,.24.24v3.24c0,.1,0,.14.14.14h1.82a.23.23,0,0,1,.24.24V62.7a.23.23,0,0,1-.24.24H94.67c-.1,0-.14,0-.14.14v6.5c0,1.16.43,1.47,1.46,1.47h.5a.23.23,0,0,1,.24.24v1.39a.22.22,0,0,1-.24.24Z"/><path d="M98.61,58.71a.22.22,0,0,1-.24-.24V56.72a.23.23,0,0,1,.24-.24h1.63a.23.23,0,0,1,.24.24v1.75a.23.23,0,0,1-.24.24Zm0,14.09a.23.23,0,0,1-.24-.24v-11a.23.23,0,0,1,.24-.24h1.54a.23.23,0,0,1,.24.24v11a.23.23,0,0,1-.24.24Z"/><path d="M102.59,64.14a4.45,4.45,0,0,1,4.54-3.1A4.6,4.6,0,0,1,111.06,63a.23.23,0,0,1-.07.34l-1.06.86a.21.21,0,0,1-.33,0,2.82,2.82,0,0,0-2.47-1.25,2.49,2.49,0,0,0-2.57,1.8,10.27,10.27,0,0,0,0,4.68,2.49,2.49,0,0,0,2.57,1.8A2.82,2.82,0,0,0,109.6,70a.21.21,0,0,1,.33,0l1.06.87c.14.12.14.21.07.33a4.61,4.61,0,0,1-3.93,1.95,4.46,4.46,0,0,1-4.54-3.1,9.81,9.81,0,0,1-.36-2.93A9.69,9.69,0,0,1,102.59,64.14Z"/><path d="M112.21,70a9.1,9.1,0,0,1-.38-2.91,8.87,8.87,0,0,1,.36-2.9,4.83,4.83,0,0,1,9,0,10,10,0,0,1,.36,3.28.23.23,0,0,1-.26.25H114c-.1,0-.15,0-.15.14a4,4,0,0,0,.2,1.39,2.83,2.83,0,0,0,2.9,2,3.74,3.74,0,0,0,3-1.27.25.25,0,0,1,.36,0l1,.89a.22.22,0,0,1,0,.34,5.59,5.59,0,0,1-4.49,2A4.45,4.45,0,0,1,112.21,70Zm7.15-3.89a.13.13,0,0,0,.15-.15,4,4,0,0,0-.17-1.29,2.84,2.84,0,0,0-5.28,0,4,4,0,0,0-.17,1.29.13.13,0,0,0,.15.15Z"/><path d="M130.45,72.92c-2,0-2.81-1-2.81-3V56.72a.23.23,0,0,1,.24-.24h1.54a.23.23,0,0,1,.24.24V69.78c0,1,.36,1.27,1.15,1.27h.46a.23.23,0,0,1,.24.24v1.39a.23.23,0,0,1-.24.24Z"/><path d="M139.38,72.8a.23.23,0,0,1-.24-.24v-1h0a3.77,3.77,0,0,1-3.41,1.52c-2.19,0-3.87-1.13-3.87-3.46s1.68-3.55,4.49-3.55H139c.09,0,.14,0,.14-.15v-.84c0-1.58-.62-2.25-2.76-2.25a4.47,4.47,0,0,0-2.78.81c-.12.1-.27.1-.34,0l-.65-1.11a.25.25,0,0,1,.05-.33A6.4,6.4,0,0,1,136.52,61C139.79,61,141,62.12,141,65v7.61a.23.23,0,0,1-.24.24Zm-.29-3.72V67.81a.12.12,0,0,0-.14-.14h-2.31c-2,0-2.85.57-2.85,1.87s.86,1.8,2.4,1.8C138,71.34,139.09,70.5,139.09,69.08Z"/><path d="M147,72.8a.22.22,0,0,1-.24-.24v-11a.23.23,0,0,1,.24-.24h1.53a.23.23,0,0,1,.24.24v1.18h0a3.2,3.2,0,0,1,3-1.68,3.58,3.58,0,0,1,2.36.86c.12.12.14.22,0,.34l-.88,1.18a.22.22,0,0,1-.34,0,3.28,3.28,0,0,0-1.78-.55c-1.75,0-2.47,1.37-2.47,3.36v6.29a.22.22,0,0,1-.24.24Z"/><path d="M154,70a9.1,9.1,0,0,1-.38-2.91,8.87,8.87,0,0,1,.36-2.9,4.83,4.83,0,0,1,9,0,10,10,0,0,1,.36,3.28.23.23,0,0,1-.26.25H155.8c-.1,0-.15,0-.15.14a4.3,4.3,0,0,0,.19,1.39,2.84,2.84,0,0,0,2.91,2,3.74,3.74,0,0,0,2.95-1.27.25.25,0,0,1,.36,0l1,.89a.21.21,0,0,1,0,.34,5.59,5.59,0,0,1-4.49,2A4.45,4.45,0,0,1,154,70Zm7.15-3.89a.13.13,0,0,0,.15-.15,4,4,0,0,0-.17-1.29,2.84,2.84,0,0,0-5.28,0,4,4,0,0,0-.17,1.29.13.13,0,0,0,.15.15Z"/><path d="M163.86,71.34a.23.23,0,0,1,0-.34l1-1a.23.23,0,0,1,.34,0,5.6,5.6,0,0,0,3.55,1.32c1.68,0,2.52-.73,2.52-1.76s-.43-1.41-2.23-1.61l-1.22-.11c-2.26-.25-3.44-1.37-3.44-3.25,0-2.18,1.56-3.5,4.28-3.5a6.88,6.88,0,0,1,4.08,1.27.24.24,0,0,1,.05.34l-.82,1a.24.24,0,0,1-.34,0,6,6,0,0,0-3.09-.94c-1.44,0-2.19.65-2.19,1.59s.55,1.39,2.26,1.56l1.2.12c2.33.21,3.45,1.39,3.45,3.24,0,2.25-1.63,3.77-4.63,3.77A7.18,7.18,0,0,1,163.86,71.34Z"/><path d="M174.68,58.71a.23.23,0,0,1-.24-.24V56.72a.23.23,0,0,1,.24-.24h1.64a.23.23,0,0,1,.24.24v1.75a.23.23,0,0,1-.24.24Zm0,14.09a.23.23,0,0,1-.24-.24v-11a.23.23,0,0,1,.24-.24h1.54a.23.23,0,0,1,.24.24v11a.23.23,0,0,1-.24.24Z"/><path d="M177.73,71.34a.23.23,0,0,1,0-.34l1-1a.23.23,0,0,1,.34,0,5.62,5.62,0,0,0,3.55,1.32c1.68,0,2.52-.73,2.52-1.76s-.43-1.41-2.23-1.61l-1.22-.11c-2.26-.25-3.44-1.37-3.44-3.25,0-2.18,1.56-3.5,4.28-3.5a6.88,6.88,0,0,1,4.08,1.27.24.24,0,0,1,0,.34l-.82,1a.24.24,0,0,1-.34,0,6,6,0,0,0-3.09-.94c-1.44,0-2.19.65-2.19,1.59s.56,1.39,2.26,1.56l1.2.12c2.33.21,3.46,1.39,3.46,3.24,0,2.25-1.64,3.77-4.64,3.77A7.18,7.18,0,0,1,177.73,71.34Z"/><path d="M191.7,72.92c-2.23,0-3.1-1-3.1-3.26V63.08a.12.12,0,0,0-.14-.14h-1a.23.23,0,0,1-.24-.24V61.54a.23.23,0,0,1,.24-.24h1a.12.12,0,0,0,.14-.14V57.92a.23.23,0,0,1,.24-.24h1.54a.23.23,0,0,1,.24.24v3.24a.12.12,0,0,0,.14.14h1.83a.23.23,0,0,1,.24.24V62.7a.23.23,0,0,1-.24.24h-1.83a.12.12,0,0,0-.14.14v6.5c0,1.16.43,1.47,1.46,1.47h.51a.23.23,0,0,1,.24.24v1.39a.23.23,0,0,1-.24.24Z"/><path d="M193.71,70a9.1,9.1,0,0,1-.38-2.91,8.87,8.87,0,0,1,.36-2.9,4.84,4.84,0,0,1,9,0,10,10,0,0,1,.36,3.28.24.24,0,0,1-.27.25h-7.27c-.1,0-.14,0-.14.14a4.3,4.3,0,0,0,.19,1.39,2.83,2.83,0,0,0,2.9,2,3.74,3.74,0,0,0,2.95-1.27.25.25,0,0,1,.36,0l1,.89a.22.22,0,0,1,0,.34,5.59,5.59,0,0,1-4.49,2A4.46,4.46,0,0,1,193.71,70Zm7.16-3.89c.09,0,.14,0,.14-.15a4,4,0,0,0-.17-1.29,2.84,2.84,0,0,0-5.28,0,4,4,0,0,0-.16,1.29c0,.1,0,.15.14.15Z"/><path d="M211.86,72.8a.22.22,0,0,1-.24-.24V65.84c0-1.85-.84-2.93-2.57-2.93a2.58,2.58,0,0,0-2.64,2.81v6.84a.23.23,0,0,1-.24.24h-1.54a.23.23,0,0,1-.24-.24v-11a.23.23,0,0,1,.24-.24h1.54a.23.23,0,0,1,.24.24V62.6h0A3.62,3.62,0,0,1,209.65,61c2.5,0,4,1.7,4,4.32v7.2a.23.23,0,0,1-.24.24Z"/><path d="M215.19,64.14a4.45,4.45,0,0,1,4.54-3.1A4.62,4.62,0,0,1,223.67,63a.23.23,0,0,1-.07.34l-1.06.86a.22.22,0,0,1-.34,0,2.82,2.82,0,0,0-2.47-1.25,2.5,2.5,0,0,0-2.57,1.8,10.66,10.66,0,0,0,0,4.68,2.5,2.5,0,0,0,2.57,1.8A2.82,2.82,0,0,0,222.2,70a.22.22,0,0,1,.34,0l1.06.87c.14.12.14.21.07.33a4.62,4.62,0,0,1-3.94,1.95,4.46,4.46,0,0,1-4.54-3.1,10.15,10.15,0,0,1-.36-2.93A10,10,0,0,1,215.19,64.14Z"/><path d="M225.13,58.71a.23.23,0,0,1-.24-.24V56.72a.23.23,0,0,1,.24-.24h1.63a.23.23,0,0,1,.24.24v1.75a.22.22,0,0,1-.24.24Zm.05,14.09a.22.22,0,0,1-.24-.24v-11a.23.23,0,0,1,.24-.24h1.53a.23.23,0,0,1,.24.24v11a.22.22,0,0,1-.24.24Z"/><path d="M235.93,72.8a.23.23,0,0,1-.24-.24v-1h0a3.77,3.77,0,0,1-3.41,1.52c-2.19,0-3.87-1.13-3.87-3.46s1.68-3.55,4.49-3.55h2.62c.09,0,.14,0,.14-.15v-.84c0-1.58-.62-2.25-2.76-2.25a4.47,4.47,0,0,0-2.78.81c-.12.1-.27.1-.34,0l-.65-1.11a.24.24,0,0,1,0-.33A6.38,6.38,0,0,1,233.07,61c3.27,0,4.52,1.08,4.52,3.91v7.61a.23.23,0,0,1-.24.24Zm-.29-3.72V67.81a.12.12,0,0,0-.14-.14h-2.31c-2,0-2.85.57-2.85,1.87s.86,1.8,2.4,1.8C234.54,71.34,235.64,70.5,235.64,69.08Z"/><path d="M258,72.8a.23.23,0,0,1-.24-.24V65.84c0-1.85-.84-2.93-2.56-2.93a2.59,2.59,0,0,0-2.64,2.81v6.84a.23.23,0,0,1-.24.24h-1.54a.23.23,0,0,1-.24-.24V65.84c0-1.85-.84-2.93-2.57-2.93a2.58,2.58,0,0,0-2.64,2.81v6.84a.22.22,0,0,1-.24.24h-1.53a.22.22,0,0,1-.24-.24v-11a.23.23,0,0,1,.24-.24h1.53a.23.23,0,0,1,.24.24V62.6h0a4.06,4.06,0,0,1,6.57.24h0a4.28,4.28,0,0,1,3.72-1.8c2.66,0,4.1,1.7,4.1,4.32v7.2a.23.23,0,0,1-.24.24Z"/><path d="M261.94,72.8a.23.23,0,0,1-.24-.24v-11a.23.23,0,0,1,.24-.24h1.54a.23.23,0,0,1,.24.24v11a.23.23,0,0,1-.24.24Zm.2-13.37c-.15,0-.22-.09-.15-.24l1.83-2.95a.41.41,0,0,1,.41-.24h1.58a.14.14,0,0,1,.12.24l-2.21,2.95a.47.47,0,0,1-.45.24Z"/><path d="M273.2,72.8a.23.23,0,0,1-.24-.24V65.84c0-1.85-.84-2.93-2.57-2.93a2.58,2.58,0,0,0-2.64,2.81v6.84a.22.22,0,0,1-.24.24H266a.22.22,0,0,1-.24-.24v-11a.23.23,0,0,1,.24-.24h1.53a.23.23,0,0,1,.24.24V62.6h0A3.62,3.62,0,0,1,271,61c2.5,0,4,1.7,4,4.32v7.2a.23.23,0,0,1-.24.24Z"/><path d="M277.06,58.71a.23.23,0,0,1-.24-.24V56.72a.23.23,0,0,1,.24-.24h1.64a.23.23,0,0,1,.24.24v1.75a.23.23,0,0,1-.24.24Zm.05,14.09a.23.23,0,0,1-.24-.24v-11a.23.23,0,0,1,.24-.24h1.54a.23.23,0,0,1,.24.24v11a.23.23,0,0,1-.24.24Z"/><path d="M295.59,72.8a.23.23,0,0,1-.24-.24V65.84c0-1.85-.84-2.93-2.57-2.93a2.6,2.6,0,0,0-2.64,2.81v6.84a.22.22,0,0,1-.24.24h-1.53a.22.22,0,0,1-.24-.24V65.84c0-1.85-.84-2.93-2.57-2.93a2.58,2.58,0,0,0-2.64,2.81v6.84a.23.23,0,0,1-.24.24h-1.54a.23.23,0,0,1-.24-.24v-11a.23.23,0,0,1,.24-.24h1.54a.23.23,0,0,1,.24.24V62.6h0a4.07,4.07,0,0,1,6.58.24h0a4.31,4.31,0,0,1,3.73-1.8c2.66,0,4.1,1.7,4.1,4.32v7.2a.23.23,0,0,1-.24.24Z"/><path d="M306.22,72.8a.23.23,0,0,1-.24-.24v-1h0a3.77,3.77,0,0,1-3.41,1.52c-2.18,0-3.86-1.13-3.86-3.46s1.68-3.55,4.49-3.55h2.61a.13.13,0,0,0,.15-.15v-.84c0-1.58-.63-2.25-2.76-2.25a4.48,4.48,0,0,0-2.79.81c-.12.1-.26.1-.33,0l-.65-1.11a.24.24,0,0,1,0-.33A6.36,6.36,0,0,1,303.37,61c3.26,0,4.51,1.08,4.51,3.91v7.61a.23.23,0,0,1-.24.24Zm-.28-3.72V67.81c0-.1-.05-.14-.15-.14h-2.3c-2,0-2.86.57-2.86,1.87s.87,1.8,2.4,1.8C304.83,71.34,305.94,70.5,305.94,69.08Z"/><path d="M312.85,71.34a.23.23,0,0,1,0-.34l1-1a.23.23,0,0,1,.34,0,5.6,5.6,0,0,0,3.55,1.32c1.68,0,2.52-.73,2.52-1.76s-.43-1.41-2.23-1.61l-1.23-.11c-2.25-.25-3.43-1.37-3.43-3.25,0-2.18,1.56-3.5,4.27-3.5a6.88,6.88,0,0,1,4.08,1.27.24.24,0,0,1,.05.34l-.81,1a.24.24,0,0,1-.34,0,6,6,0,0,0-3.1-.94c-1.44,0-2.18.65-2.18,1.59s.55,1.39,2.26,1.56l1.2.12c2.32.21,3.45,1.39,3.45,3.24,0,2.25-1.63,3.77-4.63,3.77A7.16,7.16,0,0,1,312.85,71.34Z"/><path d="M323.65,70a8.48,8.48,0,0,1-.39-2.93,8.37,8.37,0,0,1,.39-2.9,4.87,4.87,0,0,1,9.07,0,8.65,8.65,0,0,1,.38,2.9,8.77,8.77,0,0,1-.38,2.93,4.87,4.87,0,0,1-9.07,0Zm7.13-.58A7.6,7.6,0,0,0,331,67a7.5,7.5,0,0,0-.26-2.33,2.77,2.77,0,0,0-5.19,0,7.5,7.5,0,0,0-.26,2.33,7.6,7.6,0,0,0,.26,2.35,2.77,2.77,0,0,0,5.19,0Z"/><path d="M337.66,72.92c-2,0-2.8-1-2.8-3V56.72a.23.23,0,0,1,.24-.24h1.53a.23.23,0,0,1,.24.24V69.78c0,1,.36,1.27,1.15,1.27h.46a.23.23,0,0,1,.24.24v1.39a.23.23,0,0,1-.24.24Z"/><path d="M340.3,58.71a.23.23,0,0,1-.24-.24V56.72a.23.23,0,0,1,.24-.24h1.64a.23.23,0,0,1,.24.24v1.75a.23.23,0,0,1-.24.24Zm.05,14.09a.23.23,0,0,1-.24-.24v-11a.23.23,0,0,1,.24-.24h1.54a.23.23,0,0,1,.24.24v11a.23.23,0,0,1-.24.24Z"/><path d="M344.29,64.14a4.44,4.44,0,0,1,4.53-3.1A4.6,4.6,0,0,1,352.76,63a.23.23,0,0,1-.07.34l-1.06.86a.22.22,0,0,1-.34,0,2.81,2.81,0,0,0-2.47-1.25,2.5,2.5,0,0,0-2.57,1.8,10.66,10.66,0,0,0,0,4.68,2.5,2.5,0,0,0,2.57,1.8A2.8,2.8,0,0,0,351.29,70a.22.22,0,0,1,.34,0l1.06.87c.14.12.14.21.07.33a4.61,4.61,0,0,1-3.94,1.95,4.45,4.45,0,0,1-4.53-3.1,9.81,9.81,0,0,1-.36-2.93A9.69,9.69,0,0,1,344.29,64.14Z"/><path d="M354.7,58.71a.23.23,0,0,1-.24-.24V56.72a.23.23,0,0,1,.24-.24h1.63a.23.23,0,0,1,.24.24v1.75a.22.22,0,0,1-.24.24Zm.05,14.09a.23.23,0,0,1-.24-.24v-11a.23.23,0,0,1,.24-.24h1.54a.23.23,0,0,1,.24.24v11a.23.23,0,0,1-.24.24Z"/><path d="M362.36,72.92c-2.23,0-3.1-1-3.1-3.26V63.08a.12.12,0,0,0-.14-.14h-1a.23.23,0,0,1-.24-.24V61.54a.23.23,0,0,1,.24-.24h1a.12.12,0,0,0,.14-.14V57.92a.23.23,0,0,1,.24-.24H361a.23.23,0,0,1,.24.24v3.24a.12.12,0,0,0,.14.14h1.83a.23.23,0,0,1,.24.24V62.7a.23.23,0,0,1-.24.24h-1.83a.12.12,0,0,0-.14.14v6.5c0,1.16.43,1.47,1.46,1.47h.51a.23.23,0,0,1,.24.24v1.39a.23.23,0,0,1-.24.24Z"/><path d="M372.13,72.8a.22.22,0,0,1-.24-.24v-1h0a3.75,3.75,0,0,1-3.41,1.52c-2.18,0-3.86-1.13-3.86-3.46s1.68-3.55,4.49-3.55h2.61a.13.13,0,0,0,.15-.15v-.84c0-1.58-.63-2.25-2.76-2.25a4.5,4.5,0,0,0-2.79.81c-.12.1-.26.1-.33,0l-.65-1.11a.24.24,0,0,1,.05-.33A6.38,6.38,0,0,1,369.27,61c3.26,0,4.51,1.08,4.51,3.91v7.61a.22.22,0,0,1-.24.24Zm-.29-3.72V67.81c0-.1,0-.14-.15-.14h-2.3c-2,0-2.86.57-2.86,1.87s.87,1.8,2.4,1.8C370.73,71.34,371.84,70.5,371.84,69.08Z"/><path d="M383.38,72.8a.23.23,0,0,1-.24-.24v-1.1h0a3.5,3.5,0,0,1-3.26,1.61,3.81,3.81,0,0,1-4-2.76,9.71,9.71,0,0,1-.4-3.27,9.59,9.59,0,0,1,.4-3.24,3.81,3.81,0,0,1,4-2.76,3.49,3.49,0,0,1,3.26,1.58h0v-5.9a.23.23,0,0,1,.24-.24h1.54a.23.23,0,0,1,.24.24V72.56a.23.23,0,0,1-.24.24Zm-.5-3.36a7.47,7.47,0,0,0,.26-2.4,7.59,7.59,0,0,0-.26-2.4,2.72,2.72,0,0,0-5.07,0,8.26,8.26,0,0,0-.26,2.4,8,8,0,0,0,.26,2.4,2.71,2.71,0,0,0,5.07,0Z"/><path d="M395.1,72.8a.22.22,0,0,1-.24-.24v-1h0a3.75,3.75,0,0,1-3.41,1.52c-2.18,0-3.86-1.13-3.86-3.46s1.68-3.55,4.49-3.55h2.61a.13.13,0,0,0,.15-.15v-.84c0-1.58-.63-2.25-2.76-2.25a4.5,4.5,0,0,0-2.79.81c-.12.1-.26.1-.33,0l-.65-1.11a.24.24,0,0,1,.05-.33A6.36,6.36,0,0,1,392.24,61c3.26,0,4.51,1.08,4.51,3.91v7.61a.23.23,0,0,1-.24.24Zm-.29-3.72V67.81c0-.1-.05-.14-.15-.14h-2.3c-2,0-2.86.57-2.86,1.87s.87,1.8,2.4,1.8C393.7,71.34,394.81,70.5,394.81,69.08Z"/><path d="M399.34,70.5a.23.23,0,0,1,.24-.24h1.83a.23.23,0,0,1,.24.24v2.06a.23.23,0,0,1-.24.24h-1.83a.23.23,0,0,1-.24-.24Z"/></g></g></svg>