<svg xmlns="http://www.w3.org/2000/svg" viewBox="0 0 640.14 47.17"><title>11a</title><g id="Capa_2" data-name="Capa 2"><g id="respuestas_contorno" data-name="respuestas contorno"><path d="M9.73,15c-.16,0-.22-.06-.29-.22l-3-6.11H3.15c-.09,0-.14,0-.14.13v6a.2.2,0,0,1-.22.22H1.28a.2.2,0,0,1-.22-.22V.22A.2.2,0,0,1,1.28,0H6.69c2.79,0,4.69,1.72,4.69,4.31a4.07,4.07,0,0,1-3,4.07l3.19,6.32a.15.15,0,0,1-.13.26ZM9.42,4.31c0-1.56-1-2.48-2.77-2.48H3.15c-.09,0-.14,0-.14.13V6.67a.12.12,0,0,0,.14.13h3.5C8.38,6.8,9.42,5.88,9.42,4.31Z"/><path d="M13.2,12.34a8.25,8.25,0,0,1-.35-2.66A8.17,8.17,0,0,1,13.18,7a4.06,4.06,0,0,1,4.13-2.84A4.07,4.07,0,0,1,21.45,7a9.18,9.18,0,0,1,.33,3,.21.21,0,0,1-.24.22H14.87c-.09,0-.13.05-.13.14a3.9,3.9,0,0,0,.18,1.27,2.6,2.6,0,0,0,2.66,1.83,3.47,3.47,0,0,0,2.71-1.17.22.22,0,0,1,.33,0l.9.81a.2.2,0,0,1,0,.31,5.13,5.13,0,0,1-4.12,1.8A4.07,4.07,0,0,1,13.2,12.34Zm6.56-3.56c.09,0,.13,0,.13-.13a3.71,3.71,0,0,0-.15-1.19,2.39,2.39,0,0,0-2.43-1.65,2.39,2.39,0,0,0-2.42,1.65,3.71,3.71,0,0,0-.15,1.19c0,.09,0,.13.13.13Z"/><path d="M23.56,7a4.09,4.09,0,0,1,4.16-2.84A4.22,4.22,0,0,1,31.33,6c.07.11.07.2-.07.31l-1,.79A.19.19,0,0,1,30,7,2.59,2.59,0,0,0,27.72,5.9a2.28,2.28,0,0,0-2.35,1.65,6.85,6.85,0,0,0-.25,2.13,6.94,6.94,0,0,0,.25,2.16,2.28,2.28,0,0,0,2.35,1.65A2.6,2.6,0,0,0,30,12.34a.19.19,0,0,1,.3,0l1,.79c.14.11.14.2.07.31a4.22,4.22,0,0,1-3.61,1.78,4.09,4.09,0,0,1-4.16-2.83,9.08,9.08,0,0,1-.33-2.69A9,9,0,0,1,23.56,7Z"/><path d="M40,15a.2.2,0,0,1-.22-.22v-1h0a3.2,3.2,0,0,1-2.88,1.45c-2.31,0-3.65-1.58-3.65-4V4.64a.21.21,0,0,1,.22-.22h1.41a.21.21,0,0,1,.22.22v6.14c0,1.72.77,2.71,2.33,2.71a2.34,2.34,0,0,0,2.38-2.6V4.64A.2.2,0,0,1,40,4.42h1.4a.21.21,0,0,1,.23.22v10.1a.21.21,0,0,1-.23.22Z"/><path d="M44.07,12.34a8.2,8.2,0,0,1-.36-2.66A8.17,8.17,0,0,1,44,7a4.08,4.08,0,0,1,4.14-2.84A4.09,4.09,0,0,1,52.32,7a9.18,9.18,0,0,1,.33,3c0,.14-.09.22-.25.22H45.74c-.09,0-.13.05-.13.14a3.93,3.93,0,0,0,.17,1.27,2.61,2.61,0,0,0,2.66,1.83,3.44,3.44,0,0,0,2.71-1.17.22.22,0,0,1,.33,0l.9.81a.2.2,0,0,1,0,.31,5.09,5.09,0,0,1-4.11,1.8A4.07,4.07,0,0,1,44.07,12.34Zm6.55-3.56c.09,0,.13,0,.13-.13a3.71,3.71,0,0,0-.15-1.19,2.6,2.6,0,0,0-4.84,0,3.71,3.71,0,0,0-.15,1.19c0,.09,0,.13.13.13Z"/><path d="M55,15a.2.2,0,0,1-.22-.22V4.64A.2.2,0,0,1,55,4.42h1.4a.2.2,0,0,1,.22.22V5.72h0A2.93,2.93,0,0,1,59.4,4.18,3.26,3.26,0,0,1,61.56,5c.11.11.13.2,0,.31l-.81,1.08a.2.2,0,0,1-.31,0,3,3,0,0,0-1.63-.5c-1.61,0-2.27,1.25-2.27,3.08v5.76a.2.2,0,0,1-.22.22Z"/><path d="M69.08,15a.21.21,0,0,1-.22-.22v-1h0a3.2,3.2,0,0,1-3,1.47,3.48,3.48,0,0,1-3.64-2.53,8.9,8.9,0,0,1-.37-3,8.89,8.89,0,0,1,.37-3,3.49,3.49,0,0,1,3.64-2.53,3.21,3.21,0,0,1,3,1.45h0V.22A.21.21,0,0,1,69.08,0h1.41a.21.21,0,0,1,.22.22V14.74a.21.21,0,0,1-.22.22Zm-.46-3.08a6.92,6.92,0,0,0,.24-2.2,7.08,7.08,0,0,0-.24-2.2,2.49,2.49,0,0,0-4.64,0,7.35,7.35,0,0,0-.25,2.2,7.14,7.14,0,0,0,.25,2.2,2.48,2.48,0,0,0,4.64,0Z"/><path d="M73.15,12.34a8.25,8.25,0,0,1-.35-2.66A8.17,8.17,0,0,1,73.13,7,4.43,4.43,0,0,1,81.4,7a9.18,9.18,0,0,1,.33,3,.21.21,0,0,1-.24.22H74.82c-.09,0-.13.05-.13.14a3.93,3.93,0,0,0,.17,1.27,2.62,2.62,0,0,0,2.67,1.83,3.43,3.43,0,0,0,2.7-1.17.22.22,0,0,1,.33,0l.91.81a.2.2,0,0,1,0,.31,5.13,5.13,0,0,1-4.12,1.8A4.07,4.07,0,0,1,73.15,12.34Zm6.56-3.56a.12.12,0,0,0,.13-.13,3.68,3.68,0,0,0-.16-1.19,2.6,2.6,0,0,0-4.84,0,3.71,3.71,0,0,0-.15,1.19c0,.09,0,.13.13.13Z"/><path d="M87.49,13.62a.21.21,0,0,1,0-.31l.9-1a.23.23,0,0,1,.31,0A5.07,5.07,0,0,0,92,13.55c1.54,0,2.31-.66,2.31-1.6s-.4-1.3-2-1.48l-1.12-.11C89,10.14,88,9.11,88,7.39c0-2,1.43-3.21,3.92-3.21a6.3,6.3,0,0,1,3.74,1.17c.11.06.11.19,0,.31l-.75.94a.21.21,0,0,1-.31,0,5.64,5.64,0,0,0-2.84-.85c-1.32,0-2,.59-2,1.45s.5,1.28,2.07,1.43l1.1.11c2.13.2,3.17,1.28,3.17,3,0,2.07-1.5,3.45-4.25,3.45A6.55,6.55,0,0,1,87.49,13.62Z"/><path d="M98.29,2.05a.21.21,0,0,1-.22-.22V.22A.21.21,0,0,1,98.29,0h1.5a.21.21,0,0,1,.22.22V1.83a.21.21,0,0,1-.22.22Zm0,12.91a.21.21,0,0,1-.22-.22V4.64a.21.21,0,0,1,.22-.22h1.41a.21.21,0,0,1,.22.22v10.1a.21.21,0,0,1-.22.22Z"/><path d="M102.41,12.34a8.25,8.25,0,0,1-.35-2.66A8.17,8.17,0,0,1,102.39,7a4.43,4.43,0,0,1,8.27,0,9.18,9.18,0,0,1,.33,3,.21.21,0,0,1-.24.22h-6.67c-.09,0-.13.05-.13.14a3.93,3.93,0,0,0,.17,1.27,2.62,2.62,0,0,0,2.67,1.83,3.43,3.43,0,0,0,2.7-1.17.22.22,0,0,1,.33,0l.9.81a.21.21,0,0,1,0,.31,5.13,5.13,0,0,1-4.12,1.8A4.07,4.07,0,0,1,102.41,12.34ZM109,8.78c.09,0,.14,0,.14-.13a3.68,3.68,0,0,0-.16-1.19,2.6,2.6,0,0,0-4.84,0A3.71,3.71,0,0,0,104,8.65c0,.09,0,.13.13.13Z"/><path d="M126.54,15a.21.21,0,0,1-.22-.22V8.58c0-1.69-.77-2.68-2.35-2.68a2.37,2.37,0,0,0-2.42,2.57v6.27a.21.21,0,0,1-.22.22h-1.41a.21.21,0,0,1-.22-.22V8.58c0-1.69-.77-2.68-2.35-2.68a2.36,2.36,0,0,0-2.42,2.57v6.27a.21.21,0,0,1-.22.22H113.3a.21.21,0,0,1-.22-.22V4.64a.21.21,0,0,1,.22-.22h1.41a.21.21,0,0,1,.22.22v1h0a3.73,3.73,0,0,1,6,.22h0a3.92,3.92,0,0,1,3.41-1.65c2.44,0,3.76,1.56,3.76,4v6.6A.21.21,0,0,1,128,15Z"/><path d="M131,18.92a.21.21,0,0,1-.22-.22V4.64a.21.21,0,0,1,.22-.22h1.41a.21.21,0,0,1,.22.22v1h0a3.2,3.2,0,0,1,3-1.45,3.48,3.48,0,0,1,3.63,2.53,8.63,8.63,0,0,1,.37,3,8.65,8.65,0,0,1-.37,3,3.47,3.47,0,0,1-3.63,2.53,3.19,3.19,0,0,1-3-1.47h0v5a.21.21,0,0,1-.22.22Zm6.51-7a7.18,7.18,0,0,0,.24-2.2,7.39,7.39,0,0,0-.24-2.2,2.49,2.49,0,0,0-4.64,0,6.79,6.79,0,0,0-.24,2.2,6.63,6.63,0,0,0,.24,2.2,2.48,2.48,0,0,0,4.64,0Z"/><path d="M142,15a.21.21,0,0,1-.22-.22V4.64a.21.21,0,0,1,.22-.22h1.41a.21.21,0,0,1,.22.22V5.72h0a3,3,0,0,1,2.8-1.54,3.24,3.24,0,0,1,2.15.79c.11.11.14.2.05.31l-.82,1.08a.19.19,0,0,1-.3,0,3,3,0,0,0-1.63-.5c-1.61,0-2.27,1.25-2.27,3.08v5.76a.21.21,0,0,1-.22.22Z"/><path d="M149.2,12.34a8.25,8.25,0,0,1-.35-2.66A8.17,8.17,0,0,1,149.18,7a4.43,4.43,0,0,1,8.27,0,9.18,9.18,0,0,1,.33,3,.21.21,0,0,1-.24.22h-6.67a.12.12,0,0,0-.13.14,3.9,3.9,0,0,0,.18,1.27,2.6,2.6,0,0,0,2.66,1.83,3.47,3.47,0,0,0,2.71-1.17.22.22,0,0,1,.33,0l.9.81a.2.2,0,0,1,0,.31,5.12,5.12,0,0,1-4.11,1.8A4.07,4.07,0,0,1,149.2,12.34Zm6.56-3.56c.09,0,.13,0,.13-.13a3.71,3.71,0,0,0-.15-1.19,2.6,2.6,0,0,0-4.84,0,3.68,3.68,0,0,0-.16,1.19.12.12,0,0,0,.13.13Z"/><path d="M164,7a4.09,4.09,0,0,1,4.16-2.84A4.22,4.22,0,0,1,171.73,6c.07.11.07.2-.07.31l-1,.79a.2.2,0,0,1-.31,0,2.59,2.59,0,0,0-2.27-1.14,2.28,2.28,0,0,0-2.35,1.65,6.85,6.85,0,0,0-.25,2.13,6.94,6.94,0,0,0,.25,2.16,2.28,2.28,0,0,0,2.35,1.65,2.6,2.6,0,0,0,2.27-1.15.2.2,0,0,1,.31,0l1,.79c.14.11.14.2.07.31a4.22,4.22,0,0,1-3.61,1.78A4.09,4.09,0,0,1,164,12.37a9.08,9.08,0,0,1-.33-2.69A9,9,0,0,1,164,7Z"/><path d="M173.22,12.37a8,8,0,0,1-.35-2.69A7.92,7.92,0,0,1,173.22,7a4.47,4.47,0,0,1,8.32,0,7.92,7.92,0,0,1,.35,2.66,8,8,0,0,1-.35,2.69,4.47,4.47,0,0,1-8.32,0Zm6.54-.53A6.82,6.82,0,0,0,180,9.68a6.61,6.61,0,0,0-.24-2.13,2.53,2.53,0,0,0-4.75,0,6.57,6.57,0,0,0-.25,2.13,6.77,6.77,0,0,0,.25,2.16,2.53,2.53,0,0,0,4.75,0Z"/><path d="M190.83,15a.21.21,0,0,1-.23-.22V8.58c0-1.69-.77-2.68-2.35-2.68a2.36,2.36,0,0,0-2.42,2.57v6.27a.21.21,0,0,1-.22.22H184.2a.21.21,0,0,1-.22-.22V4.64a.21.21,0,0,1,.22-.22h1.41a.21.21,0,0,1,.22.22v1h0a3.35,3.35,0,0,1,3-1.43c2.29,0,3.65,1.56,3.65,4v6.6a.2.2,0,0,1-.22.22Z"/><path d="M198.13,15.07c-2,0-2.84-.92-2.84-3v-6c0-.09,0-.13-.13-.13h-.88a.21.21,0,0,1-.22-.22V4.64a.21.21,0,0,1,.22-.22h.88c.09,0,.13,0,.13-.13v-3a.21.21,0,0,1,.22-.22h1.41a.21.21,0,0,1,.22.22v3c0,.09,0,.13.13.13h1.67a.21.21,0,0,1,.22.22V5.7a.21.21,0,0,1-.22.22h-1.67c-.09,0-.13,0-.13.13v6c0,1.06.39,1.35,1.34,1.35h.46a.2.2,0,0,1,.22.22v1.27a.21.21,0,0,1-.22.22Z"/><path d="M207.52,15a.21.21,0,0,1-.22-.22v-.92h0a3.45,3.45,0,0,1-3.12,1.38c-2,0-3.55-1-3.55-3.16s1.54-3.26,4.12-3.26h2.4a.12.12,0,0,0,.13-.13V7.88c0-1.46-.57-2.07-2.53-2.07a4.07,4.07,0,0,0-2.55.75.21.21,0,0,1-.31,0l-.6-1a.24.24,0,0,1,0-.31,5.87,5.87,0,0,1,3.58-1c3,0,4.14,1,4.14,3.59v7a.21.21,0,0,1-.22.22Zm-.26-3.41V10.39a.12.12,0,0,0-.13-.14H205c-1.82,0-2.61.53-2.61,1.72s.79,1.65,2.2,1.65C206.25,13.62,207.26,12.85,207.26,11.55Z"/><path d="M211.9,15a.21.21,0,0,1-.22-.22V4.64a.21.21,0,0,1,.22-.22h1.41a.21.21,0,0,1,.22.22V5.72h0a2.94,2.94,0,0,1,2.79-1.54A3.26,3.26,0,0,1,218.5,5c.11.11.13.2,0,.31l-.81,1.08a.2.2,0,0,1-.31,0,2.93,2.93,0,0,0-1.63-.5c-1.6,0-2.26,1.25-2.26,3.08v5.76a.21.21,0,0,1-.22.22Z"/><path d="M223.91,7a4.07,4.07,0,0,1,4.16-2.84A4.22,4.22,0,0,1,231.68,6a.22.22,0,0,1-.07.31l-1,.79a.19.19,0,0,1-.3,0,2.59,2.59,0,0,0-2.27-1.14,2.3,2.3,0,0,0-2.36,1.65,7.21,7.21,0,0,0-.24,2.13,7.3,7.3,0,0,0,.24,2.16,2.3,2.3,0,0,0,2.36,1.65,2.6,2.6,0,0,0,2.27-1.15.19.19,0,0,1,.3,0l1,.79a.22.22,0,0,1,.07.31,4.22,4.22,0,0,1-3.61,1.78,4.08,4.08,0,0,1-4.16-2.83,9.08,9.08,0,0,1-.33-2.69A9,9,0,0,1,223.91,7Z"/><path d="M233.17,12.37a8,8,0,0,1-.35-2.69A7.92,7.92,0,0,1,233.17,7a4.47,4.47,0,0,1,8.32,0,7.92,7.92,0,0,1,.35,2.66,8,8,0,0,1-.35,2.69,4.47,4.47,0,0,1-8.32,0Zm6.54-.53A7.13,7.13,0,0,0,240,9.68a6.91,6.91,0,0,0-.24-2.13,2.53,2.53,0,0,0-4.75,0,6.57,6.57,0,0,0-.25,2.13,6.77,6.77,0,0,0,.25,2.16,2.53,2.53,0,0,0,4.75,0Z"/><path d="M250.77,15a.21.21,0,0,1-.22-.22V8.58c0-1.69-.77-2.68-2.35-2.68a2.36,2.36,0,0,0-2.42,2.57v6.27a.21.21,0,0,1-.22.22h-1.41a.21.21,0,0,1-.22-.22V4.64a.21.21,0,0,1,.22-.22h1.41a.21.21,0,0,1,.22.22v1h0a3.35,3.35,0,0,1,2.95-1.43c2.29,0,3.65,1.56,3.65,4v6.6a.21.21,0,0,1-.22.22Z"/><path d="M258.69,13.62a.21.21,0,0,1,0-.31l.9-1a.23.23,0,0,1,.31,0,5.07,5.07,0,0,0,3.26,1.21c1.54,0,2.31-.66,2.31-1.6s-.4-1.3-2.05-1.48l-1.12-.11c-2.07-.22-3.15-1.25-3.15-3,0-2,1.43-3.21,3.92-3.21a6.3,6.3,0,0,1,3.74,1.17c.11.06.11.19,0,.31l-.74.94a.21.21,0,0,1-.31,0A5.64,5.64,0,0,0,263,5.79c-1.32,0-2,.59-2,1.45s.5,1.28,2.07,1.43l1.1.11c2.13.2,3.17,1.28,3.17,3,0,2.07-1.5,3.45-4.25,3.45A6.55,6.55,0,0,1,258.69,13.62Z"/><path d="M275.94,15a.21.21,0,0,1-.22-.22v-1h0a3.21,3.21,0,0,1-2.88,1.45c-2.31,0-3.66-1.58-3.66-4V4.64a.21.21,0,0,1,.22-.22h1.41a.21.21,0,0,1,.22.22v6.14c0,1.72.77,2.71,2.33,2.71a2.34,2.34,0,0,0,2.38-2.6V4.64a.21.21,0,0,1,.22-.22h1.41a.21.21,0,0,1,.22.22v10.1a.21.21,0,0,1-.22.22Z"/><path d="M284.41,12.34a8.25,8.25,0,0,1-.35-2.66A8.17,8.17,0,0,1,284.39,7a4.43,4.43,0,0,1,8.27,0,9.18,9.18,0,0,1,.33,3,.21.21,0,0,1-.24.22h-6.67c-.09,0-.13.05-.13.14a3.9,3.9,0,0,0,.18,1.27,2.6,2.6,0,0,0,2.66,1.83,3.43,3.43,0,0,0,2.7-1.17.22.22,0,0,1,.33,0l.91.81a.2.2,0,0,1,0,.31,5.13,5.13,0,0,1-4.12,1.8A4.07,4.07,0,0,1,284.41,12.34ZM291,8.78a.12.12,0,0,0,.13-.13,3.68,3.68,0,0,0-.16-1.19,2.6,2.6,0,0,0-4.84,0A3.71,3.71,0,0,0,286,8.65c0,.09,0,.13.13.13Z"/><path d="M301.68,18.92a.21.21,0,0,1-.22-.22v-5h0a3.2,3.2,0,0,1-3,1.47,3.48,3.48,0,0,1-3.64-2.53,8.9,8.9,0,0,1-.37-3,8.89,8.89,0,0,1,.37-3,3.49,3.49,0,0,1,3.64-2.53,3.21,3.21,0,0,1,3,1.45h0v-1a.21.21,0,0,1,.22-.22h1.41a.21.21,0,0,1,.22.22V18.7a.21.21,0,0,1-.22.22Zm-.46-7a6.92,6.92,0,0,0,.24-2.2,7.08,7.08,0,0,0-.24-2.2,2.49,2.49,0,0,0-4.64,0,7.35,7.35,0,0,0-.25,2.2,7.14,7.14,0,0,0,.25,2.2,2.48,2.48,0,0,0,4.64,0Z"/><path d="M312.66,15a.21.21,0,0,1-.22-.22v-1h0a3.22,3.22,0,0,1-2.89,1.45c-2.31,0-3.65-1.58-3.65-4V4.64a.21.21,0,0,1,.22-.22h1.41a.21.21,0,0,1,.22.22v6.14c0,1.72.77,2.71,2.33,2.71a2.34,2.34,0,0,0,2.38-2.6V4.64a.21.21,0,0,1,.22-.22h1.41a.21.21,0,0,1,.22.22v10.1a.21.21,0,0,1-.22.22Z"/><path d="M317.19,2.05a.21.21,0,0,1-.22-.22V.22a.21.21,0,0,1,.22-.22h1.5a.21.21,0,0,1,.22.22V1.83a.21.21,0,0,1-.22.22Zm0,12.91a.21.21,0,0,1-.22-.22V4.64a.21.21,0,0,1,.22-.22h1.41a.21.21,0,0,1,.22.22v10.1a.21.21,0,0,1-.22.22Z"/><path d="M321.81,18.92a.21.21,0,0,1-.22-.22V4.64a.21.21,0,0,1,.22-.22h1.41a.21.21,0,0,1,.22.22v1h0a3.21,3.21,0,0,1,3-1.45,3.48,3.48,0,0,1,3.63,2.53,8.61,8.61,0,0,1,.38,3,8.62,8.62,0,0,1-.38,3,3.47,3.47,0,0,1-3.63,2.53,3.2,3.2,0,0,1-3-1.47h0v5a.21.21,0,0,1-.22.22Zm6.51-7a7.18,7.18,0,0,0,.24-2.2,7.39,7.39,0,0,0-.24-2.2,2.49,2.49,0,0,0-4.64,0,6.79,6.79,0,0,0-.24,2.2,6.63,6.63,0,0,0,.24,2.2,2.48,2.48,0,0,0,4.64,0Z"/><path d="M332.26,12.37a8,8,0,0,1-.35-2.69A7.92,7.92,0,0,1,332.26,7a4.47,4.47,0,0,1,8.32,0,7.92,7.92,0,0,1,.35,2.66,8,8,0,0,1-.35,2.69,4.47,4.47,0,0,1-8.32,0Zm6.53-.53A6.77,6.77,0,0,0,339,9.68a6.57,6.57,0,0,0-.25-2.13,2.53,2.53,0,0,0-4.75,0,6.61,6.61,0,0,0-.24,2.13,6.82,6.82,0,0,0,.24,2.16,2.53,2.53,0,0,0,4.75,0Z"/><path d="M354,15a.21.21,0,0,1-.22-.22v-1h0a3.18,3.18,0,0,1-3,1.47,3.48,3.48,0,0,1-3.63-2.53,8.9,8.9,0,0,1-.37-3,8.89,8.89,0,0,1,.37-3,3.49,3.49,0,0,1,3.63-2.53,3.19,3.19,0,0,1,3,1.45h0V.22A.21.21,0,0,1,354,0h1.41a.21.21,0,0,1,.22.22V14.74a.21.21,0,0,1-.22.22Zm-.46-3.08a6.92,6.92,0,0,0,.24-2.2,7.08,7.08,0,0,0-.24-2.2,2.5,2.5,0,0,0-4.65,0,7.74,7.74,0,0,0-.24,2.2,7.51,7.51,0,0,0,.24,2.2,2.48,2.48,0,0,0,4.65,0Z"/><path d="M358.09,12.34a8.2,8.2,0,0,1-.36-2.66A8.17,8.17,0,0,1,358.06,7a4.44,4.44,0,0,1,8.28,0,9.18,9.18,0,0,1,.33,3,.21.21,0,0,1-.24.22h-6.67c-.09,0-.13.05-.13.14a3.93,3.93,0,0,0,.17,1.27,2.61,2.61,0,0,0,2.66,1.83,3.44,3.44,0,0,0,2.71-1.17.22.22,0,0,1,.33,0l.9.81a.21.21,0,0,1,0,.31,5.13,5.13,0,0,1-4.12,1.8A4.07,4.07,0,0,1,358.09,12.34Zm6.55-3.56c.09,0,.13,0,.13-.13a3.71,3.71,0,0,0-.15-1.19,2.6,2.6,0,0,0-4.84,0,3.71,3.71,0,0,0-.15,1.19c0,.09,0,.13.13.13Z"/><path d="M372.43,13.62a.21.21,0,0,1,0-.31l.9-1a.23.23,0,0,1,.31,0,5.07,5.07,0,0,0,3.26,1.21c1.54,0,2.31-.66,2.31-1.6s-.4-1.3-2-1.48L376,10.36c-2.07-.22-3.15-1.25-3.15-3,0-2,1.43-3.21,3.92-3.21a6.3,6.3,0,0,1,3.74,1.17c.11.06.11.19,0,.31l-.75.94a.2.2,0,0,1-.3,0,5.67,5.67,0,0,0-2.84-.85c-1.32,0-2,.59-2,1.45s.5,1.28,2.06,1.43l1.1.11c2.14.2,3.17,1.28,3.17,3,0,2.07-1.49,3.45-4.24,3.45A6.55,6.55,0,0,1,372.43,13.62Z"/><path d="M382.77,12.34a8.25,8.25,0,0,1-.35-2.66A8.17,8.17,0,0,1,382.75,7,4.43,4.43,0,0,1,391,7a9.18,9.18,0,0,1,.33,3,.21.21,0,0,1-.24.22h-6.67c-.09,0-.13.05-.13.14a3.9,3.9,0,0,0,.18,1.27,2.6,2.6,0,0,0,2.66,1.83,3.43,3.43,0,0,0,2.7-1.17.22.22,0,0,1,.33,0l.91.81a.2.2,0,0,1,0,.31A5.13,5.13,0,0,1,387,15.2,4.07,4.07,0,0,1,382.77,12.34Zm6.56-3.56a.12.12,0,0,0,.13-.13,3.68,3.68,0,0,0-.16-1.19,2.6,2.6,0,0,0-4.84,0,3.71,3.71,0,0,0-.15,1.19c0,.09,0,.13.13.13Z"/><path d="M393.22,17.6a.2.2,0,0,1,0-.31l.9-.9a.21.21,0,0,1,.33,0A3.54,3.54,0,0,0,397,17.45c1.74,0,2.66-.9,2.66-2.84V13.38h0a3,3,0,0,1-2.93,1.45,3.45,3.45,0,0,1-3.54-2.55,8.34,8.34,0,0,1-.35-2.77,8.4,8.4,0,0,1,.35-2.78,3.45,3.45,0,0,1,3.54-2.55,3,3,0,0,1,2.93,1.45h0v-1a.21.21,0,0,1,.22-.22h1.41a.21.21,0,0,1,.22.22V14.5c0,3-1.63,4.67-4.6,4.67A4.74,4.74,0,0,1,393.22,17.6Zm6.16-6.05a6.28,6.28,0,0,0,.24-2,6.38,6.38,0,0,0-.24-2,2.38,2.38,0,0,0-4.47,0,6.82,6.82,0,0,0-.26,2.05,6.7,6.7,0,0,0,.26,2,2.37,2.37,0,0,0,4.47,0Z"/><path d="M410.82,15a.21.21,0,0,1-.22-.22v-1h0a3.22,3.22,0,0,1-2.89,1.45c-2.31,0-3.65-1.58-3.65-4V4.64a.21.21,0,0,1,.22-.22h1.41a.21.21,0,0,1,.22.22v6.14c0,1.72.77,2.71,2.33,2.71a2.34,2.34,0,0,0,2.38-2.6V4.64a.21.21,0,0,1,.22-.22h1.41a.21.21,0,0,1,.22.22v10.1a.21.21,0,0,1-.22.22Z"/><path d="M415.39,15a.21.21,0,0,1-.22-.22V4.64a.21.21,0,0,1,.22-.22h1.41a.21.21,0,0,1,.22.22V5.72h0a3,3,0,0,1,2.8-1.54A3.26,3.26,0,0,1,422,5c.11.11.13.2,0,.31l-.81,1.08a.2.2,0,0,1-.31,0,3,3,0,0,0-1.63-.5C417.68,5.9,417,7.15,417,9v5.76a.21.21,0,0,1-.22.22Z"/><path d="M423.49,2.05a.21.21,0,0,1-.22-.22V.22a.21.21,0,0,1,.22-.22H425a.21.21,0,0,1,.22.22V1.83a.21.21,0,0,1-.22.22Zm0,12.91a.21.21,0,0,1-.22-.22V4.64a.21.21,0,0,1,.22-.22h1.41a.21.21,0,0,1,.22.22v10.1a.21.21,0,0,1-.22.22Z"/><path d="M434.49,15a.21.21,0,0,1-.22-.22v-1h0a3.2,3.2,0,0,1-3,1.47,3.47,3.47,0,0,1-3.63-2.53,8.62,8.62,0,0,1-.38-3,8.61,8.61,0,0,1,.38-3,3.48,3.48,0,0,1,3.63-2.53,3.21,3.21,0,0,1,3,1.45h0V.22a.21.21,0,0,1,.22-.22h1.41a.21.21,0,0,1,.22.22V14.74a.21.21,0,0,1-.22.22ZM434,11.88a6.92,6.92,0,0,0,.24-2.2,7.08,7.08,0,0,0-.24-2.2,2.49,2.49,0,0,0-4.64,0,7.35,7.35,0,0,0-.25,2.2,7.14,7.14,0,0,0,.25,2.2,2.48,2.48,0,0,0,4.64,0Z"/><path d="M445.23,15a.2.2,0,0,1-.22-.22v-.92h0a3.44,3.44,0,0,1-3.12,1.38c-2,0-3.54-1-3.54-3.16s1.54-3.26,4.11-3.26h2.4c.09,0,.13,0,.13-.13V7.88c0-1.46-.57-2.07-2.53-2.07a4.09,4.09,0,0,0-2.55.75.21.21,0,0,1-.31,0l-.59-1a.23.23,0,0,1,0-.31,5.9,5.9,0,0,1,3.59-1c3,0,4.13,1,4.13,3.59v7a.2.2,0,0,1-.22.22ZM445,11.55V10.39c0-.09,0-.14-.13-.14h-2.11c-1.83,0-2.62.53-2.62,1.72s.79,1.65,2.2,1.65C444,13.62,445,12.85,445,11.55Z"/><path d="M456,15a.21.21,0,0,1-.22-.22v-1h0a3.19,3.19,0,0,1-3,1.47,3.47,3.47,0,0,1-3.63-2.53,8.65,8.65,0,0,1-.37-3,8.63,8.63,0,0,1,.37-3,3.48,3.48,0,0,1,3.63-2.53,3.2,3.2,0,0,1,3,1.45h0V.22A.21.21,0,0,1,456,0h1.41a.21.21,0,0,1,.22.22V14.74a.21.21,0,0,1-.22.22Zm-.46-3.08a6.63,6.63,0,0,0,.24-2.2,6.79,6.79,0,0,0-.24-2.2,2.49,2.49,0,0,0-4.64,0,7.39,7.39,0,0,0-.24,2.2,7.18,7.18,0,0,0,.24,2.2,2.48,2.48,0,0,0,4.64,0Z"/><path d="M460.3,12.63h1.54a.21.21,0,0,1,.22.22V14.9a.69.69,0,0,1-.14.48l-1.36,1.8a.36.36,0,0,1-.29.16.19.19,0,0,1-.19-.2V12.85A.2.2,0,0,1,460.3,12.63Z"/><path d="M473.08,18.92a.2.2,0,0,1-.22-.22V4.64a.2.2,0,0,1,.22-.22h1.41a.21.21,0,0,1,.22.22v1h0a3.2,3.2,0,0,1,3-1.45,3.48,3.48,0,0,1,3.63,2.53,8.63,8.63,0,0,1,.37,3,8.65,8.65,0,0,1-.37,3,3.47,3.47,0,0,1-3.63,2.53,3.19,3.19,0,0,1-3-1.47h0v5a.21.21,0,0,1-.22.22Zm6.51-7a7.18,7.18,0,0,0,.24-2.2,7.39,7.39,0,0,0-.24-2.2,2.49,2.49,0,0,0-4.64,0,6.79,6.79,0,0,0-.24,2.2,6.63,6.63,0,0,0,.24,2.2,2.48,2.48,0,0,0,4.64,0Z"/><path d="M486.34,15.07c-1.84,0-2.57-.88-2.57-2.77V.22A.21.21,0,0,1,484,0h1.41a.21.21,0,0,1,.22.22v12c0,.88.33,1.17,1.05,1.17h.42a.2.2,0,0,1,.22.22v1.27a.21.21,0,0,1-.22.22Z"/><path d="M495.41,15a.21.21,0,0,1-.22-.22v-.92h0A3.47,3.47,0,0,1,492,15.2c-2,0-3.54-1-3.54-3.16s1.54-3.26,4.11-3.26H495c.09,0,.13,0,.13-.13V7.88c0-1.46-.57-2.07-2.53-2.07a4.12,4.12,0,0,0-2.55.75.21.21,0,0,1-.31,0l-.59-1a.23.23,0,0,1,0-.31,5.92,5.92,0,0,1,3.59-1c3,0,4.14,1,4.14,3.59v7a.21.21,0,0,1-.22.22Zm-.27-3.41V10.39c0-.09,0-.14-.13-.14H492.9c-1.83,0-2.62.53-2.62,1.72s.79,1.65,2.2,1.65C494.13,13.62,495.14,12.85,495.14,11.55Z"/><path d="M506.41,15a.21.21,0,0,1-.22-.22V8.58c0-1.69-.77-2.68-2.36-2.68a2.36,2.36,0,0,0-2.42,2.57v6.27a.21.21,0,0,1-.22.22h-1.41a.21.21,0,0,1-.22-.22V4.64a.21.21,0,0,1,.22-.22h1.41a.21.21,0,0,1,.22.22v1h0a3.35,3.35,0,0,1,2.95-1.43c2.29,0,3.66,1.56,3.66,4v6.6a.21.21,0,0,1-.22.22Z"/><path d="M510.37,12.34A8.2,8.2,0,0,1,510,9.68,8.17,8.17,0,0,1,510.34,7a4.44,4.44,0,0,1,8.28,0,9.18,9.18,0,0,1,.33,3,.21.21,0,0,1-.24.22H512c-.09,0-.13.05-.13.14a3.93,3.93,0,0,0,.17,1.27,2.62,2.62,0,0,0,2.67,1.83,3.43,3.43,0,0,0,2.7-1.17.22.22,0,0,1,.33,0l.9.81a.21.21,0,0,1,0,.31,5.13,5.13,0,0,1-4.12,1.8A4.07,4.07,0,0,1,510.37,12.34Zm6.55-3.56c.09,0,.14,0,.14-.13a3.68,3.68,0,0,0-.16-1.19,2.6,2.6,0,0,0-4.84,0,3.71,3.71,0,0,0-.15,1.19c0,.09,0,.13.13.13Z"/><path d="M520.75,12.34a8.25,8.25,0,0,1-.35-2.66A8.17,8.17,0,0,1,520.73,7,4.43,4.43,0,0,1,529,7a9.18,9.18,0,0,1,.33,3,.21.21,0,0,1-.24.22h-6.67c-.09,0-.13.05-.13.14a3.9,3.9,0,0,0,.18,1.27,2.6,2.6,0,0,0,2.66,1.83,3.43,3.43,0,0,0,2.7-1.17c.12-.11.23-.13.34,0l.9.81a.2.2,0,0,1,0,.31A5.13,5.13,0,0,1,525,15.2,4.07,4.07,0,0,1,520.75,12.34Zm6.56-3.56c.09,0,.13,0,.13-.13a3.71,3.71,0,0,0-.15-1.19,2.61,2.61,0,0,0-4.85,0,3.71,3.71,0,0,0-.15,1.19c0,.09,0,.13.13.13Z"/><path d="M535.09,13.62a.23.23,0,0,1,0-.31l.91-1a.22.22,0,0,1,.3,0,5.1,5.1,0,0,0,3.26,1.21c1.54,0,2.31-.66,2.31-1.6s-.4-1.3-2-1.48l-1.12-.11c-2.07-.22-3.14-1.25-3.14-3,0-2,1.43-3.21,3.91-3.21a6.3,6.3,0,0,1,3.74,1.17c.11.06.11.19,0,.31l-.75.94a.21.21,0,0,1-.31,0,5.64,5.64,0,0,0-2.84-.85c-1.32,0-2,.59-2,1.45s.51,1.28,2.07,1.43l1.1.11c2.13.2,3.17,1.28,3.17,3,0,2.07-1.5,3.45-4.25,3.45A6.55,6.55,0,0,1,535.09,13.62Z"/><path d="M552.34,15a.21.21,0,0,1-.22-.22v-1h0a3.21,3.21,0,0,1-2.88,1.45c-2.31,0-3.65-1.58-3.65-4V4.64a.2.2,0,0,1,.22-.22h1.4a.2.2,0,0,1,.22.22v6.14c0,1.72.77,2.71,2.34,2.71a2.34,2.34,0,0,0,2.37-2.6V4.64a.21.21,0,0,1,.22-.22h1.41a.21.21,0,0,1,.22.22v10.1a.21.21,0,0,1-.22.22Z"/><path d="M567.48,15a.21.21,0,0,1-.22-.22v-.92h0a3.47,3.47,0,0,1-3.13,1.38c-2,0-3.54-1-3.54-3.16s1.54-3.26,4.11-3.26h2.4c.09,0,.13,0,.13-.13V7.88c0-1.46-.57-2.07-2.53-2.07a4.12,4.12,0,0,0-2.55.75.21.21,0,0,1-.31,0l-.59-1a.24.24,0,0,1,0-.31,5.92,5.92,0,0,1,3.59-1c3,0,4.14,1,4.14,3.59v7a.21.21,0,0,1-.22.22Zm-.27-3.41V10.39c0-.09,0-.14-.13-.14H565c-1.83,0-2.62.53-2.62,1.72s.79,1.65,2.2,1.65C566.2,13.62,567.21,12.85,567.21,11.55Z"/><path d="M571.33,7a4.07,4.07,0,0,1,4.16-2.84A4.22,4.22,0,0,1,579.09,6c.07.11.07.2-.06.31l-1,.79a.2.2,0,0,1-.31,0,2.58,2.58,0,0,0-2.26-1.14,2.29,2.29,0,0,0-2.36,1.65,7.21,7.21,0,0,0-.24,2.13,7.3,7.3,0,0,0,.24,2.16,2.29,2.29,0,0,0,2.36,1.65,2.59,2.59,0,0,0,2.26-1.15.2.2,0,0,1,.31,0l1,.79c.13.11.13.2.06.31a4.22,4.22,0,0,1-3.6,1.78,4.08,4.08,0,0,1-4.16-2.83A9.08,9.08,0,0,1,571,9.68,9,9,0,0,1,571.33,7Z"/><path d="M584.2,15.07c-2.05,0-2.84-.92-2.84-3v-6a.12.12,0,0,0-.13-.13h-.88a.2.2,0,0,1-.22-.22V4.64a.2.2,0,0,1,.22-.22h.88a.12.12,0,0,0,.13-.13v-3a.21.21,0,0,1,.22-.22H583a.21.21,0,0,1,.22.22v3c0,.09,0,.13.13.13H585a.21.21,0,0,1,.22.22V5.7a.21.21,0,0,1-.22.22h-1.67c-.09,0-.13,0-.13.13v6c0,1.06.39,1.35,1.34,1.35H585a.2.2,0,0,1,.22.22v1.27a.21.21,0,0,1-.22.22Z"/><path d="M587.39,2.05a.2.2,0,0,1-.22-.22V.22a.2.2,0,0,1,.22-.22h1.49a.21.21,0,0,1,.22.22V1.83a.21.21,0,0,1-.22.22Zm0,12.91a.21.21,0,0,1-.22-.22V4.64a.21.21,0,0,1,.22-.22h1.41a.21.21,0,0,1,.22.22v10.1a.21.21,0,0,1-.22.22Z"/><path d="M594.6,15a.26.26,0,0,1-.26-.22l-3.79-10.1c0-.13,0-.22.18-.22h1.52c.15,0,.22.07.28.22l2.73,7.57h0L598,4.64a.26.26,0,0,1,.26-.22h1.5c.15,0,.22.09.18.22l-3.77,10.1a.28.28,0,0,1-.28.22Z"/><path d="M601.58,2.05a.2.2,0,0,1-.22-.22V.22a.2.2,0,0,1,.22-.22h1.49a.21.21,0,0,1,.22.22V1.83a.21.21,0,0,1-.22.22Zm0,12.91a.21.21,0,0,1-.22-.22V4.64a.21.21,0,0,1,.22-.22H603a.21.21,0,0,1,.22.22v10.1A.21.21,0,0,1,603,15Z"/><path d="M612.58,15a.2.2,0,0,1-.22-.22v-1h0a3.18,3.18,0,0,1-3,1.47,3.48,3.48,0,0,1-3.63-2.53,8.9,8.9,0,0,1-.37-3,8.89,8.89,0,0,1,.37-3,3.49,3.49,0,0,1,3.63-2.53,3.19,3.19,0,0,1,3,1.45h0V.22a.2.2,0,0,1,.22-.22H614a.2.2,0,0,1,.22.22V14.74A.2.2,0,0,1,614,15Zm-.47-3.08a6.58,6.58,0,0,0,.25-2.2,6.73,6.73,0,0,0-.25-2.2,2.49,2.49,0,0,0-4.64,0,7.74,7.74,0,0,0-.24,2.2,7.51,7.51,0,0,0,.24,2.2,2.48,2.48,0,0,0,4.64,0Z"/><path d="M623.31,15a.21.21,0,0,1-.22-.22v-.92h0A3.45,3.45,0,0,1,620,15.2c-2,0-3.55-1-3.55-3.16s1.54-3.26,4.12-3.26h2.4a.12.12,0,0,0,.13-.13V7.88c0-1.46-.57-2.07-2.53-2.07a4.07,4.07,0,0,0-2.55.75.21.21,0,0,1-.31,0l-.6-1a.24.24,0,0,1,.05-.31,5.87,5.87,0,0,1,3.58-1c3,0,4.14,1,4.14,3.59v7a.21.21,0,0,1-.22.22Zm-.26-3.41V10.39a.12.12,0,0,0-.13-.14H620.8c-1.82,0-2.61.53-2.61,1.72s.79,1.65,2.2,1.65C622,13.62,623.05,12.85,623.05,11.55Z"/><path d="M634.07,15a.21.21,0,0,1-.22-.22v-1h0a3.2,3.2,0,0,1-3,1.47,3.47,3.47,0,0,1-3.63-2.53,8.62,8.62,0,0,1-.38-3,8.61,8.61,0,0,1,.38-3,3.48,3.48,0,0,1,3.63-2.53,3.21,3.21,0,0,1,3,1.45h0V.22a.21.21,0,0,1,.22-.22h1.41a.21.21,0,0,1,.22.22V14.74a.21.21,0,0,1-.22.22Zm-.46-3.08a6.92,6.92,0,0,0,.24-2.2,7.08,7.08,0,0,0-.24-2.2,2.49,2.49,0,0,0-4.64,0,7.35,7.35,0,0,0-.25,2.2,7.14,7.14,0,0,0,.25,2.2,2.48,2.48,0,0,0,4.64,0Z"/><path d="M638.38,12.63h1.54a.21.21,0,0,1,.22.22V14.9a.68.68,0,0,1-.13.48l-1.36,1.8a.36.36,0,0,1-.29.16.2.2,0,0,1-.2-.2V12.85A.21.21,0,0,1,638.38,12.63Z"/><path d="M4.07,43.07c-2.05,0-2.84-.92-2.84-3v-6c0-.09,0-.13-.13-.13H.22A.21.21,0,0,1,0,33.7V32.64a.21.21,0,0,1,.22-.22H1.1c.09,0,.13,0,.13-.13v-3a.21.21,0,0,1,.22-.22H2.86a.21.21,0,0,1,.22.22v3c0,.09,0,.13.13.13H4.88a.2.2,0,0,1,.22.22V33.7a.2.2,0,0,1-.22.22H3.21c-.09,0-.13,0-.13.13v6c0,1.06.4,1.35,1.34,1.35h.46a.2.2,0,0,1,.22.22v1.27a.2.2,0,0,1-.22.22Z"/><path d="M6.8,40.34a8.25,8.25,0,0,1-.35-2.66A8.17,8.17,0,0,1,6.78,35a4.06,4.06,0,0,1,4.13-2.84A4.07,4.07,0,0,1,15.05,35a9.18,9.18,0,0,1,.33,3,.21.21,0,0,1-.24.22H8.47c-.09,0-.13,0-.13.14a3.93,3.93,0,0,0,.17,1.27,2.62,2.62,0,0,0,2.67,1.83,3.43,3.43,0,0,0,2.7-1.17.22.22,0,0,1,.33,0l.91.81a.2.2,0,0,1,0,.31A5.13,5.13,0,0,1,11,43.2,4.07,4.07,0,0,1,6.8,40.34Zm6.55-3.56c.09,0,.14,0,.14-.13a3.68,3.68,0,0,0-.16-1.19,2.37,2.37,0,0,0-2.42-1.65,2.37,2.37,0,0,0-2.42,1.65,3.71,3.71,0,0,0-.15,1.19c0,.09,0,.13.13.13Z"/><path d="M24.31,43a.21.21,0,0,1-.22-.22V36.58c0-1.69-.77-2.68-2.35-2.68a2.36,2.36,0,0,0-2.42,2.57v6.27a.21.21,0,0,1-.22.22H17.69a.21.21,0,0,1-.22-.22V32.64a.21.21,0,0,1,.22-.22H19.1a.21.21,0,0,1,.22.22v1h0a3.34,3.34,0,0,1,2.95-1.43c2.28,0,3.65,1.56,3.65,4v6.6a.21.21,0,0,1-.22.22Z"/><path d="M28.34,45.6a.2.2,0,0,1,0-.31l.9-.9a.21.21,0,0,1,.33,0,3.52,3.52,0,0,0,2.49,1.06c1.73,0,2.66-.9,2.66-2.84V41.38h0a3,3,0,0,1-2.93,1.45,3.45,3.45,0,0,1-3.54-2.55,8.08,8.08,0,0,1-.35-2.77,8.14,8.14,0,0,1,.35-2.78,3.45,3.45,0,0,1,3.54-2.55,3,3,0,0,1,2.93,1.45h0v-1a.21.21,0,0,1,.22-.22h1.41a.21.21,0,0,1,.22.22V42.5c0,3-1.63,4.67-4.6,4.67A4.73,4.73,0,0,1,28.34,45.6Zm6.16-6.05a6.57,6.57,0,0,0,.24-2,6.68,6.68,0,0,0-.24-2,2.38,2.38,0,0,0-4.47,0,6.51,6.51,0,0,0-.26,2,6.4,6.4,0,0,0,.26,2,2.15,2.15,0,0,0,2.22,1.59A2.19,2.19,0,0,0,34.5,39.55Z"/><path d="M45.69,43a.21.21,0,0,1-.22-.22v-.92h0a3.45,3.45,0,0,1-3.12,1.38c-2,0-3.54-1-3.54-3.16s1.54-3.26,4.11-3.26h2.4c.09,0,.13,0,.13-.13v-.77c0-1.46-.57-2.07-2.53-2.07a4.07,4.07,0,0,0-2.55.75.21.21,0,0,1-.31,0l-.6-1a.24.24,0,0,1,.05-.31,5.88,5.88,0,0,1,3.59-1c3,0,4.13,1,4.13,3.59v7A.21.21,0,0,1,47,43Zm-.26-3.41V38.39c0-.09,0-.14-.13-.14H43.19c-1.83,0-2.62.53-2.62,1.72s.79,1.65,2.2,1.65C44.42,41.62,45.43,40.85,45.43,39.55Z"/><path d="M60.63,43a.21.21,0,0,1-.22-.22v-.92h0a3.45,3.45,0,0,1-3.12,1.38c-2,0-3.55-1-3.55-3.16s1.54-3.26,4.12-3.26h2.4a.12.12,0,0,0,.13-.13v-.77c0-1.46-.57-2.07-2.53-2.07a4.07,4.07,0,0,0-2.55.75.21.21,0,0,1-.31,0l-.6-1a.24.24,0,0,1,0-.31,5.87,5.87,0,0,1,3.58-1c3,0,4.14,1,4.14,3.59v7a.21.21,0,0,1-.22.22Zm-.26-3.41V38.39a.12.12,0,0,0-.13-.14H58.12c-1.82,0-2.61.53-2.61,1.72s.79,1.65,2.2,1.65C59.36,41.62,60.37,40.85,60.37,39.55Z"/><path d="M71.72,43.07c-1.85,0-2.58-.88-2.58-2.77V28.22a.21.21,0,0,1,.22-.22h1.41a.21.21,0,0,1,.22.22v12c0,.88.33,1.17,1.06,1.17h.42a.2.2,0,0,1,.22.22v1.27a.21.21,0,0,1-.22.22Z"/><path d="M80.78,43a.21.21,0,0,1-.22-.22v-.92h0a3.45,3.45,0,0,1-3.12,1.38c-2,0-3.55-1-3.55-3.16s1.54-3.26,4.12-3.26h2.4c.09,0,.13,0,.13-.13v-.77c0-1.46-.57-2.07-2.53-2.07a4.07,4.07,0,0,0-2.55.75.21.21,0,0,1-.31,0l-.6-1a.24.24,0,0,1,0-.31,5.88,5.88,0,0,1,3.59-1c3,0,4.13,1,4.13,3.59v7a.21.21,0,0,1-.22.22Zm-.26-3.41V38.39c0-.09,0-.14-.13-.14H78.27c-1.82,0-2.61.53-2.61,1.72s.79,1.65,2.2,1.65C79.51,41.62,80.52,40.85,80.52,39.55Z"/><path d="M102.81,43a.2.2,0,0,1-.22-.22V36.58c0-1.69-.77-2.68-2.36-2.68a2.37,2.37,0,0,0-2.42,2.57v6.27a.21.21,0,0,1-.22.22H96.18a.21.21,0,0,1-.22-.22V36.58c0-1.69-.77-2.68-2.35-2.68a2.36,2.36,0,0,0-2.42,2.57v6.27A.21.21,0,0,1,91,43H89.56a.21.21,0,0,1-.22-.22V32.64a.21.21,0,0,1,.22-.22H91a.21.21,0,0,1,.22.22v1h0a3.35,3.35,0,0,1,3-1.43,3.3,3.3,0,0,1,3.08,1.65h0a3.94,3.94,0,0,1,3.41-1.65c2.44,0,3.76,1.56,3.76,4v6.6a.2.2,0,0,1-.22.22Z"/><path d="M113.43,43a.21.21,0,0,1-.22-.22v-.92h0a3.47,3.47,0,0,1-3.13,1.38c-2,0-3.54-1-3.54-3.16s1.54-3.26,4.12-3.26H113c.09,0,.14,0,.14-.13v-.77c0-1.46-.58-2.07-2.53-2.07a4.13,4.13,0,0,0-2.56.75c-.11.08-.24.08-.3,0l-.6-1a.24.24,0,0,1,0-.31,5.87,5.87,0,0,1,3.58-1c3,0,4.14,1,4.14,3.59v7a.21.21,0,0,1-.22.22Zm-.26-3.41V38.39a.13.13,0,0,0-.14-.14h-2.11c-1.82,0-2.62.53-2.62,1.72s.8,1.65,2.2,1.65C112.15,41.62,113.17,40.85,113.17,39.55Z"/><path d="M124.43,43a.21.21,0,0,1-.22-.22V36.58c0-1.69-.77-2.68-2.35-2.68a2.36,2.36,0,0,0-2.42,2.57v6.27a.21.21,0,0,1-.22.22h-1.41a.21.21,0,0,1-.22-.22V32.64a.21.21,0,0,1,.22-.22h1.41a.21.21,0,0,1,.22.22v1h0a3.34,3.34,0,0,1,3-1.43c2.28,0,3.65,1.56,3.65,4v6.6a.21.21,0,0,1-.22.22Z"/><path d="M128.39,40.37a8,8,0,0,1-.35-2.69,7.92,7.92,0,0,1,.35-2.66,4.47,4.47,0,0,1,8.32,0,7.92,7.92,0,0,1,.35,2.66,8,8,0,0,1-.35,2.69,4.47,4.47,0,0,1-8.32,0Zm6.53-.53a6.77,6.77,0,0,0,.25-2.16,6.57,6.57,0,0,0-.25-2.13,2.53,2.53,0,0,0-4.75,0,6.91,6.91,0,0,0-.24,2.13,7.13,7.13,0,0,0,.24,2.16,2.53,2.53,0,0,0,4.75,0Z"/><path d="M146.08,43.07c-1.85,0-2.58-.88-2.58-2.77V28.22a.21.21,0,0,1,.22-.22h1.41a.21.21,0,0,1,.22.22v12c0,.88.33,1.17,1.06,1.17h.42a.2.2,0,0,1,.22.22v1.27a.21.21,0,0,1-.22.22Z"/><path d="M155.14,43a.21.21,0,0,1-.22-.22v-.92h0a3.45,3.45,0,0,1-3.12,1.38c-2,0-3.55-1-3.55-3.16s1.54-3.26,4.12-3.26h2.4a.12.12,0,0,0,.13-.13v-.77c0-1.46-.57-2.07-2.53-2.07a4.07,4.07,0,0,0-2.55.75.21.21,0,0,1-.31,0l-.6-1a.24.24,0,0,1,.05-.31,5.87,5.87,0,0,1,3.58-1c3,0,4.14,1,4.14,3.59v7a.21.21,0,0,1-.22.22Zm-.26-3.41V38.39a.12.12,0,0,0-.13-.14h-2.12c-1.82,0-2.61.53-2.61,1.72s.79,1.65,2.2,1.65C153.87,41.62,154.88,40.85,154.88,39.55Z"/><path d="M158.57,41.62a.23.23,0,0,1,0-.31l.91-1a.22.22,0,0,1,.3,0A5.1,5.1,0,0,0,163,41.55c1.54,0,2.31-.66,2.31-1.6s-.4-1.3-2-1.48l-1.12-.11c-2.07-.22-3.14-1.25-3.14-3,0-2,1.43-3.21,3.91-3.21a6.3,6.3,0,0,1,3.74,1.17c.11.06.11.19.05.31l-.75.94a.21.21,0,0,1-.31,0,5.64,5.64,0,0,0-2.84-.85c-1.32,0-2,.59-2,1.45s.51,1.28,2.07,1.43l1.1.11c2.13.2,3.17,1.28,3.17,3,0,2.07-1.5,3.45-4.25,3.45A6.55,6.55,0,0,1,158.57,41.62Z"/><path d="M180.44,43a.21.21,0,0,1-.22-.22V36.58c0-1.69-.77-2.68-2.35-2.68a2.36,2.36,0,0,0-2.42,2.57v6.27a.21.21,0,0,1-.22.22h-1.41a.21.21,0,0,1-.22-.22V28.22a.21.21,0,0,1,.22-.22h1.41a.21.21,0,0,1,.22.22v5.39h0a3.35,3.35,0,0,1,2.95-1.43c2.29,0,3.65,1.56,3.65,4v6.6a.21.21,0,0,1-.22.22Z"/><path d="M184.4,40.34a8.25,8.25,0,0,1-.35-2.66,8.17,8.17,0,0,1,.33-2.66,4.43,4.43,0,0,1,8.27,0,9.18,9.18,0,0,1,.33,3,.21.21,0,0,1-.24.22h-6.67c-.09,0-.13,0-.13.14a3.9,3.9,0,0,0,.18,1.27,2.6,2.6,0,0,0,2.66,1.83,3.47,3.47,0,0,0,2.71-1.17.22.22,0,0,1,.33,0l.9.81a.2.2,0,0,1,0,.31,5.12,5.12,0,0,1-4.11,1.8A4.07,4.07,0,0,1,184.4,40.34ZM191,36.78c.09,0,.13,0,.13-.13a3.71,3.71,0,0,0-.15-1.19,2.61,2.61,0,0,0-4.85,0,3.71,3.71,0,0,0-.15,1.19c0,.09,0,.13.13.13Z"/><path d="M195.29,43a.21.21,0,0,1-.22-.22V32.64a.21.21,0,0,1,.22-.22h1.41a.21.21,0,0,1,.22.22v1.08h0a2.94,2.94,0,0,1,2.79-1.54,3.26,3.26,0,0,1,2.16.79c.11.11.13.2.05.31l-.82,1.08a.2.2,0,0,1-.31,0,2.93,2.93,0,0,0-1.62-.5c-1.61,0-2.27,1.25-2.27,3.08v5.76a.21.21,0,0,1-.22.22Z"/><path d="M203.43,43a.21.21,0,0,1-.22-.22V32.64a.21.21,0,0,1,.22-.22h1.41a.21.21,0,0,1,.22.22v1.08h0a2.94,2.94,0,0,1,2.79-1.54A3.26,3.26,0,0,1,210,33c.11.11.13.2,0,.31l-.81,1.08a.2.2,0,0,1-.31,0,2.93,2.93,0,0,0-1.63-.5c-1.6,0-2.26,1.25-2.26,3.08v5.76a.21.21,0,0,1-.22.22Z"/><path d="M217.2,43a.21.21,0,0,1-.22-.22v-.92h0a3.45,3.45,0,0,1-3.12,1.38c-2,0-3.55-1-3.55-3.16s1.54-3.26,4.12-3.26h2.4a.12.12,0,0,0,.13-.13v-.77c0-1.46-.57-2.07-2.53-2.07a4.07,4.07,0,0,0-2.55.75.21.21,0,0,1-.31,0l-.6-1a.24.24,0,0,1,.05-.31,5.87,5.87,0,0,1,3.58-1c3,0,4.14,1,4.14,3.59v7a.21.21,0,0,1-.22.22Zm-.26-3.41V38.39a.12.12,0,0,0-.13-.14h-2.12c-1.82,0-2.61.53-2.61,1.72s.79,1.65,2.2,1.65C215.93,41.62,216.94,40.85,216.94,39.55Z"/><path d="M234.83,43a.2.2,0,0,1-.22-.22V36.58c0-1.69-.77-2.68-2.36-2.68a2.37,2.37,0,0,0-2.42,2.57v6.27a.21.21,0,0,1-.22.22H228.2a.21.21,0,0,1-.22-.22V36.58c0-1.69-.77-2.68-2.35-2.68a2.36,2.36,0,0,0-2.42,2.57v6.27A.21.21,0,0,1,223,43h-1.41a.21.21,0,0,1-.22-.22V32.64a.21.21,0,0,1,.22-.22H223a.21.21,0,0,1,.22.22v1h0a3.35,3.35,0,0,1,3-1.43,3.31,3.31,0,0,1,3.08,1.65h0a3.93,3.93,0,0,1,3.41-1.65c2.44,0,3.76,1.56,3.76,4v6.6a.2.2,0,0,1-.22.22Z"/><path d="M239.25,30.05a.2.2,0,0,1-.22-.22V28.22a.2.2,0,0,1,.22-.22h1.49a.21.21,0,0,1,.22.22v1.61a.21.21,0,0,1-.22.22Zm0,12.91a.21.21,0,0,1-.22-.22V32.64a.21.21,0,0,1,.22-.22h1.41a.21.21,0,0,1,.22.22v10.1a.21.21,0,0,1-.22.22Z"/><path d="M243.36,40.34a8.25,8.25,0,0,1-.35-2.66,8.17,8.17,0,0,1,.33-2.66,4.43,4.43,0,0,1,8.27,0,9.18,9.18,0,0,1,.33,3,.21.21,0,0,1-.24.22H245c-.09,0-.13,0-.13.14a3.9,3.9,0,0,0,.18,1.27,2.6,2.6,0,0,0,2.66,1.83,3.43,3.43,0,0,0,2.7-1.17.22.22,0,0,1,.33,0l.91.81a.2.2,0,0,1,0,.31,5.13,5.13,0,0,1-4.12,1.8A4.07,4.07,0,0,1,243.36,40.34Zm6.56-3.56a.12.12,0,0,0,.13-.13,3.68,3.68,0,0,0-.16-1.19,2.6,2.6,0,0,0-4.84,0,3.71,3.71,0,0,0-.15,1.19c0,.09,0,.13.13.13Z"/><path d="M260.87,43a.21.21,0,0,1-.22-.22V36.58c0-1.69-.77-2.68-2.35-2.68a2.36,2.36,0,0,0-2.42,2.57v6.27a.21.21,0,0,1-.22.22h-1.41a.21.21,0,0,1-.22-.22V32.64a.21.21,0,0,1,.22-.22h1.41a.21.21,0,0,1,.22.22v1h0a3.34,3.34,0,0,1,3-1.43c2.29,0,3.65,1.56,3.65,4v6.6a.21.21,0,0,1-.22.22Z"/><path d="M268.17,43.07c-2,0-2.83-.92-2.83-3v-6c0-.09,0-.13-.14-.13h-.88a.21.21,0,0,1-.22-.22V32.64a.21.21,0,0,1,.22-.22h.88c.09,0,.14,0,.14-.13v-3a.2.2,0,0,1,.22-.22H267a.2.2,0,0,1,.22.22v3c0,.09.05.13.14.13H269a.21.21,0,0,1,.22.22V33.7a.21.21,0,0,1-.22.22h-1.67c-.09,0-.14,0-.14.13v6c0,1.06.4,1.35,1.35,1.35H269a.2.2,0,0,1,.22.22v1.27a.21.21,0,0,1-.22.22Z"/><path d="M277.57,43a.21.21,0,0,1-.22-.22v-.92h0a3.47,3.47,0,0,1-3.13,1.38c-2,0-3.54-1-3.54-3.16s1.54-3.26,4.11-3.26h2.4c.09,0,.14,0,.14-.13v-.77c0-1.46-.58-2.07-2.54-2.07a4.12,4.12,0,0,0-2.55.75.21.21,0,0,1-.31,0l-.59-1a.24.24,0,0,1,0-.31,5.92,5.92,0,0,1,3.59-1c3,0,4.14,1,4.14,3.59v7a.21.21,0,0,1-.22.22Zm-.26-3.41V38.39a.13.13,0,0,0-.14-.14h-2.11c-1.83,0-2.62.53-2.62,1.72s.79,1.65,2.2,1.65C276.29,41.62,277.31,40.85,277.31,39.55Z"/><path d="M281,41.62a.21.21,0,0,1,0-.31l.9-1a.23.23,0,0,1,.31,0,5.07,5.07,0,0,0,3.26,1.21c1.54,0,2.31-.66,2.31-1.6s-.4-1.3-2-1.48l-1.12-.11c-2.07-.22-3.15-1.25-3.15-3,0-2,1.43-3.21,3.92-3.21a6.3,6.3,0,0,1,3.74,1.17c.11.06.11.19,0,.31l-.74.94a.21.21,0,0,1-.31,0,5.67,5.67,0,0,0-2.84-.85c-1.32,0-2,.59-2,1.45s.5,1.28,2.06,1.43l1.11.11c2.13.2,3.16,1.28,3.16,3,0,2.07-1.49,3.45-4.24,3.45A6.55,6.55,0,0,1,281,41.62Z"/><path d="M302.41,43a.2.2,0,0,1-.22-.22v-.92h0A3.44,3.44,0,0,1,299,43.2c-2,0-3.54-1-3.54-3.16s1.54-3.26,4.11-3.26H302c.09,0,.13,0,.13-.13v-.77c0-1.46-.57-2.07-2.53-2.07a4.09,4.09,0,0,0-2.55.75.21.21,0,0,1-.31,0l-.59-1a.23.23,0,0,1,0-.31,5.9,5.9,0,0,1,3.59-1c3,0,4.13,1,4.13,3.59v7a.2.2,0,0,1-.22.22Zm-.27-3.41V38.39c0-.09,0-.14-.13-.14H299.9c-1.83,0-2.62.53-2.62,1.72s.79,1.65,2.2,1.65C301.13,41.62,302.14,40.85,302.14,39.55Z"/><path d="M313.16,43a.21.21,0,0,1-.22-.22v-1h0a3.19,3.19,0,0,1-3,1.47,3.47,3.47,0,0,1-3.63-2.53,8.65,8.65,0,0,1-.37-3,8.63,8.63,0,0,1,.37-3,3.48,3.48,0,0,1,3.63-2.53,3.2,3.2,0,0,1,3,1.45h0V28.22a.21.21,0,0,1,.22-.22h1.41a.21.21,0,0,1,.22.22V42.74a.21.21,0,0,1-.22.22Zm-.46-3.08a6.63,6.63,0,0,0,.24-2.2,6.79,6.79,0,0,0-.24-2.2,2.49,2.49,0,0,0-4.64,0,7.39,7.39,0,0,0-.24,2.2,7.18,7.18,0,0,0,.24,2.2,2.48,2.48,0,0,0,4.64,0Z"/><path d="M317.23,40.34a8.25,8.25,0,0,1-.35-2.66,8.17,8.17,0,0,1,.33-2.66,4.43,4.43,0,0,1,8.27,0,9.18,9.18,0,0,1,.33,3c0,.14-.08.22-.24.22h-6.66a.13.13,0,0,0-.14.14,3.9,3.9,0,0,0,.18,1.27,2.6,2.6,0,0,0,2.66,1.83,3.44,3.44,0,0,0,2.71-1.17.22.22,0,0,1,.33,0l.9.81a.2.2,0,0,1,0,.31,5.09,5.09,0,0,1-4.11,1.8A4.08,4.08,0,0,1,317.23,40.34Zm6.56-3.56c.09,0,.13,0,.13-.13a3.71,3.71,0,0,0-.15-1.19,2.6,2.6,0,0,0-4.84,0,3.68,3.68,0,0,0-.16,1.19c0,.09.05.13.14.13Z"/><path d="M327.59,35a4.09,4.09,0,0,1,4.16-2.84A4.22,4.22,0,0,1,335.36,34c.07.11.07.2-.06.31l-1,.79a.2.2,0,0,1-.31,0,2.59,2.59,0,0,0-2.27-1.14,2.28,2.28,0,0,0-2.35,1.65,6.89,6.89,0,0,0-.24,2.13,7,7,0,0,0,.24,2.16,2.28,2.28,0,0,0,2.35,1.65A2.6,2.6,0,0,0,334,40.34a.2.2,0,0,1,.31,0l1,.79c.13.11.13.2.06.31a4.22,4.22,0,0,1-3.61,1.78,4.09,4.09,0,0,1-4.16-2.83,9.43,9.43,0,0,1-.33-2.69A9.35,9.35,0,0,1,327.59,35Z"/><path d="M344,43a.21.21,0,0,1-.22-.22v-1h0a3.21,3.21,0,0,1-2.88,1.45c-2.31,0-3.66-1.58-3.66-4V32.64a.21.21,0,0,1,.22-.22h1.41a.21.21,0,0,1,.22.22v6.14c0,1.72.77,2.71,2.33,2.71a2.34,2.34,0,0,0,2.38-2.6V32.64a.21.21,0,0,1,.22-.22h1.41a.21.21,0,0,1,.22.22v10.1a.21.21,0,0,1-.22.22Z"/><path d="M354.77,43a.2.2,0,0,1-.22-.22v-.92h0a3.44,3.44,0,0,1-3.12,1.38c-2,0-3.54-1-3.54-3.16s1.54-3.26,4.11-3.26h2.4c.09,0,.13,0,.13-.13v-.77c0-1.46-.57-2.07-2.53-2.07a4.09,4.09,0,0,0-2.55.75.21.21,0,0,1-.31,0l-.59-1a.23.23,0,0,1,0-.31,5.88,5.88,0,0,1,3.59-1c3,0,4.13,1,4.13,3.59v7a.2.2,0,0,1-.22.22Zm-.27-3.41V38.39c0-.09,0-.14-.13-.14h-2.11c-1.83,0-2.62.53-2.62,1.72s.79,1.65,2.2,1.65C353.49,41.62,354.5,40.85,354.5,39.55Z"/><path d="M365.52,43a.21.21,0,0,1-.22-.22v-1h0a3.19,3.19,0,0,1-3,1.47,3.47,3.47,0,0,1-3.63-2.53,8.62,8.62,0,0,1-.38-3,8.61,8.61,0,0,1,.38-3,3.48,3.48,0,0,1,3.63-2.53,3.2,3.2,0,0,1,3,1.45h0V28.22a.21.21,0,0,1,.22-.22h1.41a.21.21,0,0,1,.22.22V42.74a.21.21,0,0,1-.22.22Zm-.46-3.08a6.63,6.63,0,0,0,.24-2.2,6.79,6.79,0,0,0-.24-2.2,2.49,2.49,0,0,0-4.64,0,7.39,7.39,0,0,0-.24,2.2,7.18,7.18,0,0,0,.24,2.2,2.48,2.48,0,0,0,4.64,0Z"/><path d="M376.26,43a.21.21,0,0,1-.22-.22v-.92h0a3.47,3.47,0,0,1-3.13,1.38c-2,0-3.54-1-3.54-3.16s1.54-3.26,4.11-3.26h2.4c.09,0,.14,0,.14-.13v-.77c0-1.46-.58-2.07-2.54-2.07a4.12,4.12,0,0,0-2.55.75.21.21,0,0,1-.31,0l-.59-1a.24.24,0,0,1,0-.31,5.92,5.92,0,0,1,3.59-1c3,0,4.14,1,4.14,3.59v7a.21.21,0,0,1-.22.22ZM376,39.55V38.39a.13.13,0,0,0-.14-.14h-2.11c-1.83,0-2.62.53-2.62,1.72s.79,1.65,2.2,1.65C375,41.62,376,40.85,376,39.55Z"/><path d="M379.69,41.62a.21.21,0,0,1,0-.31l.9-1a.23.23,0,0,1,.31,0,5.07,5.07,0,0,0,3.26,1.21c1.54,0,2.31-.66,2.31-1.6s-.4-1.3-2.05-1.48l-1.12-.11c-2.07-.22-3.15-1.25-3.15-3,0-2,1.43-3.21,3.92-3.21a6.3,6.3,0,0,1,3.74,1.17c.11.06.11.19,0,.31l-.74.94a.21.21,0,0,1-.31,0,5.64,5.64,0,0,0-2.84-.85c-1.32,0-2,.59-2,1.45s.5,1.28,2.06,1.43l1.11.11c2.13.2,3.16,1.28,3.16,3,0,2.07-1.49,3.45-4.24,3.45A6.55,6.55,0,0,1,379.69,41.62Z"/><path d="M394.8,46.92a.21.21,0,0,1-.22-.22V45.43a.2.2,0,0,1,.22-.22h.4c.86,0,1.32-.38,1.78-1.59l.35-1-3.87-10c0-.13,0-.22.18-.22h1.54a.26.26,0,0,1,.26.22l2.77,7.62h.05l2.66-7.62a.27.27,0,0,1,.27-.22h1.49c.13,0,.22.09.18.22L398.7,43.78c-.93,2.48-1.74,3.14-3.32,3.14Z"/><path d="M411.79,43.07c-2.05,0-2.84-.92-2.84-3v-6c0-.09,0-.13-.13-.13h-.88a.21.21,0,0,1-.22-.22V32.64a.21.21,0,0,1,.22-.22h.88c.09,0,.13,0,.13-.13v-3a.21.21,0,0,1,.22-.22h1.41a.21.21,0,0,1,.22.22v3c0,.09,0,.13.13.13h1.67a.21.21,0,0,1,.22.22V33.7a.21.21,0,0,1-.22.22h-1.67c-.09,0-.13,0-.13.13v6c0,1.06.39,1.35,1.34,1.35h.46a.2.2,0,0,1,.22.22v1.27a.21.21,0,0,1-.22.22Z"/><path d="M415,43a.21.21,0,0,1-.22-.22V32.64a.21.21,0,0,1,.22-.22h1.41a.21.21,0,0,1,.22.22v1.08h0a2.94,2.94,0,0,1,2.8-1.54,3.26,3.26,0,0,1,2.15.79c.11.11.13.2.05.31l-.82,1.08a.2.2,0,0,1-.31,0,2.93,2.93,0,0,0-1.62-.5c-1.61,0-2.27,1.25-2.27,3.08v5.76a.21.21,0,0,1-.22.22Z"/><path d="M428.79,43a.21.21,0,0,1-.22-.22v-.92h0a3.45,3.45,0,0,1-3.12,1.38c-2,0-3.54-1-3.54-3.16s1.54-3.26,4.11-3.26h2.4c.09,0,.13,0,.13-.13v-.77c0-1.46-.57-2.07-2.53-2.07a4.07,4.07,0,0,0-2.55.75.21.21,0,0,1-.31,0l-.59-1a.23.23,0,0,1,0-.31,5.88,5.88,0,0,1,3.59-1c3,0,4.13,1,4.13,3.59v7a.21.21,0,0,1-.22.22Zm-.26-3.41V38.39c0-.09,0-.14-.13-.14h-2.11c-1.83,0-2.62.53-2.62,1.72s.79,1.65,2.2,1.65C427.52,41.62,428.53,40.85,428.53,39.55Z"/><path d="M433.17,43a.21.21,0,0,1-.22-.22V28.22a.21.21,0,0,1,.22-.22h1.41a.21.21,0,0,1,.22.22v5.41h0a3.21,3.21,0,0,1,3-1.45,3.48,3.48,0,0,1,3.63,2.53,8.61,8.61,0,0,1,.38,3,8.62,8.62,0,0,1-.38,3,3.47,3.47,0,0,1-3.63,2.53,3.2,3.2,0,0,1-3-1.47h0v1a.21.21,0,0,1-.22.22Zm6.51-3.08a7.14,7.14,0,0,0,.25-2.2,7.35,7.35,0,0,0-.25-2.2,2.49,2.49,0,0,0-4.64,0,7.08,7.08,0,0,0-.24,2.2,6.92,6.92,0,0,0,.24,2.2,2.48,2.48,0,0,0,4.64,0Z"/><path d="M450.29,43a.21.21,0,0,1-.22-.22v-.92h0a3.47,3.47,0,0,1-3.13,1.38c-2,0-3.54-1-3.54-3.16s1.54-3.26,4.11-3.26h2.4c.09,0,.13,0,.13-.13v-.77c0-1.46-.57-2.07-2.53-2.07a4.12,4.12,0,0,0-2.55.75.21.21,0,0,1-.31,0l-.59-1a.24.24,0,0,1,0-.31,5.92,5.92,0,0,1,3.59-1c3,0,4.14,1,4.14,3.59v7a.21.21,0,0,1-.22.22ZM450,39.55V38.39c0-.09,0-.14-.13-.14h-2.11c-1.83,0-2.62.53-2.62,1.72s.79,1.65,2.2,1.65C449,41.62,450,40.85,450,39.55Z"/><path d="M452.71,46.92a.21.21,0,0,1-.22-.22V45.43a.2.2,0,0,1,.22-.22h.35c1,0,1.39-.29,1.39-1.41V32.64a.2.2,0,0,1,.22-.22h1.4a.2.2,0,0,1,.22.22V43.75c0,2.27-1,3.17-3.14,3.17Zm1.91-16.87a.21.21,0,0,1-.22-.22V28.22a.21.21,0,0,1,.22-.22h1.5a.21.21,0,0,1,.22.22v1.61a.21.21,0,0,1-.22.22Z"/><path d="M458.73,40.34a8.25,8.25,0,0,1-.35-2.66,8.17,8.17,0,0,1,.33-2.66A4.44,4.44,0,0,1,467,35a9.18,9.18,0,0,1,.33,3c0,.14-.09.22-.25.22h-6.66a.13.13,0,0,0-.14.14,3.9,3.9,0,0,0,.18,1.27,2.6,2.6,0,0,0,2.66,1.83,3.44,3.44,0,0,0,2.71-1.17.22.22,0,0,1,.33,0l.9.81a.2.2,0,0,1,0,.31A5.09,5.09,0,0,1,463,43.2,4.08,4.08,0,0,1,458.73,40.34Zm6.56-3.56c.09,0,.13,0,.13-.13a3.71,3.71,0,0,0-.15-1.19,2.6,2.6,0,0,0-4.84,0,3.68,3.68,0,0,0-.16,1.19c0,.09.05.13.14.13Z"/><path d="M473.52,40.34a8.25,8.25,0,0,1-.35-2.66A8.17,8.17,0,0,1,473.5,35a4.43,4.43,0,0,1,8.27,0,9.18,9.18,0,0,1,.33,3,.21.21,0,0,1-.24.22h-6.67c-.09,0-.13,0-.13.14a3.93,3.93,0,0,0,.17,1.27,2.62,2.62,0,0,0,2.67,1.83,3.43,3.43,0,0,0,2.7-1.17.22.22,0,0,1,.33,0l.91.81a.2.2,0,0,1,0,.31,5.13,5.13,0,0,1-4.12,1.8A4.07,4.07,0,0,1,473.52,40.34Zm6.56-3.56a.12.12,0,0,0,.13-.13,3.68,3.68,0,0,0-.16-1.19,2.6,2.6,0,0,0-4.84,0,3.71,3.71,0,0,0-.15,1.19c0,.09,0,.13.13.13Z"/><path d="M491,43a.21.21,0,0,1-.22-.22V36.58c0-1.69-.77-2.68-2.35-2.68A2.36,2.36,0,0,0,486,36.47v6.27a.21.21,0,0,1-.22.22h-1.41a.21.21,0,0,1-.22-.22V32.64a.21.21,0,0,1,.22-.22h1.41a.21.21,0,0,1,.22.22v1h0A3.34,3.34,0,0,1,489,32.18c2.28,0,3.65,1.56,3.65,4v6.6a.21.21,0,0,1-.22.22Z"/><path d="M499.39,40.34a8.25,8.25,0,0,1-.35-2.66,8.17,8.17,0,0,1,.33-2.66,4.43,4.43,0,0,1,8.27,0,9.18,9.18,0,0,1,.33,3,.21.21,0,0,1-.24.22h-6.67c-.09,0-.13,0-.13.14a4.23,4.23,0,0,0,.17,1.27,2.62,2.62,0,0,0,2.67,1.83,3.43,3.43,0,0,0,2.7-1.17.22.22,0,0,1,.33,0l.91.81a.2.2,0,0,1,0,.31,5.13,5.13,0,0,1-4.12,1.8A4.07,4.07,0,0,1,499.39,40.34ZM506,36.78a.12.12,0,0,0,.13-.13,3.68,3.68,0,0,0-.16-1.19,2.6,2.6,0,0,0-4.84,0,3.71,3.71,0,0,0-.15,1.19c0,.09,0,.13.13.13Z"/><path d="M516.66,46.92a.21.21,0,0,1-.22-.22v-5h0a3.2,3.2,0,0,1-3,1.47,3.48,3.48,0,0,1-3.64-2.53,8.9,8.9,0,0,1-.37-3,8.89,8.89,0,0,1,.37-3,3.49,3.49,0,0,1,3.64-2.53,3.21,3.21,0,0,1,3,1.45h0v-1a.21.21,0,0,1,.22-.22h1.41a.21.21,0,0,1,.22.22V46.7a.21.21,0,0,1-.22.22Zm-.46-7a6.92,6.92,0,0,0,.24-2.2,7.08,7.08,0,0,0-.24-2.2,2.5,2.5,0,0,0-4.65,0,7.74,7.74,0,0,0-.24,2.2,7.51,7.51,0,0,0,.24,2.2,2.48,2.48,0,0,0,4.65,0Z"/><path d="M527.64,43a.21.21,0,0,1-.22-.22v-1h0a3.22,3.22,0,0,1-2.89,1.45c-2.31,0-3.65-1.58-3.65-4V32.64a.21.21,0,0,1,.22-.22h1.41a.21.21,0,0,1,.22.22v6.14c0,1.72.77,2.71,2.33,2.71a2.34,2.34,0,0,0,2.38-2.6V32.64a.21.21,0,0,1,.22-.22h1.41a.21.21,0,0,1,.22.22v10.1a.21.21,0,0,1-.22.22Z"/><path d="M532.17,30.05a.21.21,0,0,1-.22-.22V28.22a.21.21,0,0,1,.22-.22h1.5a.21.21,0,0,1,.22.22v1.61a.21.21,0,0,1-.22.22Zm0,12.91a.21.21,0,0,1-.22-.22V32.64a.21.21,0,0,1,.22-.22h1.41a.21.21,0,0,1,.22.22v10.1a.21.21,0,0,1-.22.22Z"/><path d="M536.79,46.92a.21.21,0,0,1-.22-.22V32.64a.21.21,0,0,1,.22-.22h1.41a.21.21,0,0,1,.22.22v1h0a3.2,3.2,0,0,1,3-1.45,3.48,3.48,0,0,1,3.63,2.53,8.61,8.61,0,0,1,.38,3,8.62,8.62,0,0,1-.38,3,3.47,3.47,0,0,1-3.63,2.53,3.19,3.19,0,0,1-3-1.47h0v5a.21.21,0,0,1-.22.22Zm6.51-7a7.18,7.18,0,0,0,.24-2.2,7.39,7.39,0,0,0-.24-2.2,2.49,2.49,0,0,0-4.64,0,6.79,6.79,0,0,0-.24,2.2,6.63,6.63,0,0,0,.24,2.2,2.48,2.48,0,0,0,4.64,0Z"/><path d="M547.24,40.37a8,8,0,0,1-.35-2.69,7.92,7.92,0,0,1,.35-2.66,4.47,4.47,0,0,1,8.32,0,7.92,7.92,0,0,1,.35,2.66,8,8,0,0,1-.35,2.69,4.47,4.47,0,0,1-8.32,0Zm6.53-.53a6.77,6.77,0,0,0,.25-2.16,6.57,6.57,0,0,0-.25-2.13,2.53,2.53,0,0,0-4.75,0,6.61,6.61,0,0,0-.24,2.13,6.82,6.82,0,0,0,.24,2.16,2.53,2.53,0,0,0,4.75,0Z"/><path d="M557.73,40.85a.21.21,0,0,1,.22-.22h1.67a.2.2,0,0,1,.22.22v1.89a.2.2,0,0,1-.22.22H558a.21.21,0,0,1-.22-.22Z"/></g></g></svg>