<svg xmlns="http://www.w3.org/2000/svg" viewBox="0 0 399.74 76.91"><title>11b</title><g id="Capa_2" data-name="Capa 2"><g id="answer_copia" data-name="answer copia"><path d="M.09,14.81a.26.26,0,0,1,0-.36L1.12,13.2a.21.21,0,0,1,.33,0A7.53,7.53,0,0,0,6,14.86c2.26,0,3.6-1.13,3.6-2.79,0-1.39-.79-2.32-3.4-2.66l-.82-.12C2.22,8.86.59,7.34.59,4.78.59,1.87,2.68,0,5.92,0a8.65,8.65,0,0,1,5,1.51.22.22,0,0,1,0,.34l-.81,1.32a.24.24,0,0,1-.34.05A7.18,7.18,0,0,0,5.85,2c-2,0-3.1,1.08-3.1,2.64,0,1.37.91,2.28,3.43,2.62L7,7.37c3.2.43,4.8,1.89,4.8,4.56,0,2.86-2,4.92-5.95,4.92A9,9,0,0,1,.09,14.81Z"/><path d="M13.76,2.5a.23.23,0,0,1-.24-.24V.5a.23.23,0,0,1,.24-.24H15.4a.23.23,0,0,1,.24.24V2.26a.23.23,0,0,1-.24.24Zm.05,14.09a.23.23,0,0,1-.24-.24v-11a.23.23,0,0,1,.24-.24h1.54a.23.23,0,0,1,.24.24v11a.23.23,0,0,1-.24.24Z"/><path d="M25.16,16.71c-2,0-2.8-1-2.8-3V.5A.23.23,0,0,1,22.6.26h1.53a.23.23,0,0,1,.24.24V13.56c0,1,.36,1.27,1.15,1.27H26a.23.23,0,0,1,.24.24v1.4a.23.23,0,0,1-.24.24Z"/><path d="M34.57,16.59a.23.23,0,0,1-.24-.24v-1h0a3.79,3.79,0,0,1-3.41,1.51c-2.18,0-3.86-1.13-3.86-3.46s1.68-3.55,4.48-3.55h2.62a.12.12,0,0,0,.14-.14V8.86c0-1.59-.62-2.26-2.76-2.26a4.46,4.46,0,0,0-2.78.82.22.22,0,0,1-.34,0l-.64-1.1a.26.26,0,0,1,0-.34,6.42,6.42,0,0,1,3.92-1.13c3.26,0,4.51,1.08,4.51,3.92v7.61a.23.23,0,0,1-.24.24Zm-.29-3.72V11.59a.12.12,0,0,0-.14-.14h-2.3c-2,0-2.86.57-2.86,1.87s.86,1.8,2.4,1.8C33.18,15.12,34.28,14.28,34.28,12.87Z"/><path d="M42.54,16.59a.23.23,0,0,1-.24-.24V15.07a.33.33,0,0,1,.1-.26L48.71,7v0H42.85a.23.23,0,0,1-.24-.24V5.33a.23.23,0,0,1,.24-.24h8a.23.23,0,0,1,.24.24V6.67a.39.39,0,0,1-.1.27l-6.26,7.77v0h6.12a.23.23,0,0,1,.24.24v1.35a.23.23,0,0,1-.24.24Z"/><path d="M52.64,13.75a8.7,8.7,0,0,1-.38-2.92,8.68,8.68,0,0,1,.38-2.91,4.45,4.45,0,0,1,4.54-3.1,4.45,4.45,0,0,1,4.54,3.1,8.68,8.68,0,0,1,.38,2.91,8.7,8.7,0,0,1-.38,2.92,4.87,4.87,0,0,1-9.08,0Zm7.13-.57A7.59,7.59,0,0,0,60,10.83a7.36,7.36,0,0,0-.27-2.33,2.76,2.76,0,0,0-5.18,0,7.36,7.36,0,0,0-.27,2.33,7.59,7.59,0,0,0,.27,2.35,2.76,2.76,0,0,0,5.18,0Z"/><path d="M71.36,16.59a.23.23,0,0,1-.24-.24V9.63c0-1.85-.84-2.93-2.56-2.93a2.58,2.58,0,0,0-2.64,2.8v6.85a.23.23,0,0,1-.24.24H64.14a.23.23,0,0,1-.24-.24v-11a.23.23,0,0,1,.24-.24h1.54a.23.23,0,0,1,.24.24v1h0a3.66,3.66,0,0,1,3.22-1.56c2.49,0,4,1.71,4,4.32v7.21a.23.23,0,0,1-.24.24Z"/><path d="M82.48,16.59a.23.23,0,0,1-.24-.24v-1h0a3.77,3.77,0,0,1-3.41,1.51c-2.18,0-3.86-1.13-3.86-3.46s1.68-3.55,4.49-3.55H82c.1,0,.15-.05.15-.14V8.86c0-1.59-.63-2.26-2.76-2.26a4.5,4.5,0,0,0-2.79.82c-.12.09-.26.09-.33,0l-.65-1.1a.26.26,0,0,1,0-.34,6.38,6.38,0,0,1,3.91-1.13c3.26,0,4.51,1.08,4.51,3.92v7.61a.23.23,0,0,1-.24.24Zm-.29-3.72V11.59c0-.09,0-.14-.15-.14h-2.3c-2,0-2.86.57-2.86,1.87s.87,1.8,2.4,1.8C81.08,15.12,82.19,14.28,82.19,12.87Z"/><path d="M90.06,15.12a.22.22,0,0,1,0-.33l1-1.06a.23.23,0,0,1,.34,0,5.6,5.6,0,0,0,3.55,1.32c1.68,0,2.52-.72,2.52-1.75s-.43-1.42-2.23-1.61L94,11.57c-2.26-.24-3.44-1.37-3.44-3.24,0-2.19,1.56-3.51,4.28-3.51A6.88,6.88,0,0,1,98.92,6.1a.22.22,0,0,1,0,.33l-.81,1a.24.24,0,0,1-.34,0,6,6,0,0,0-3.09-.93c-1.44,0-2.19.64-2.19,1.58s.55,1.39,2.26,1.56l1.2.12c2.33.22,3.45,1.39,3.45,3.24,0,2.26-1.63,3.77-4.63,3.77A7.13,7.13,0,0,1,90.06,15.12Z"/><path d="M100.86,13.73a8.94,8.94,0,0,1-.39-2.9,8.62,8.62,0,0,1,.37-2.91,4.83,4.83,0,0,1,9,0,10.08,10.08,0,0,1,.36,3.29.24.24,0,0,1-.26.24h-7.28a.13.13,0,0,0-.14.14,4.37,4.37,0,0,0,.19,1.4,2.84,2.84,0,0,0,2.91,2,3.77,3.77,0,0,0,3-1.27c.12-.13.24-.15.36-.05l1,.89a.21.21,0,0,1,0,.33,5.62,5.62,0,0,1-4.49,2A4.45,4.45,0,0,1,100.86,13.73ZM108,9.84c.1,0,.15-.05.15-.14A4.06,4.06,0,0,0,108,8.4a2.84,2.84,0,0,0-5.28,0,4.06,4.06,0,0,0-.17,1.3.13.13,0,0,0,.14.14Z"/><path d="M116,13.73a8.94,8.94,0,0,1-.39-2.9A8.93,8.93,0,0,1,116,7.92a4.84,4.84,0,0,1,9,0,10.08,10.08,0,0,1,.36,3.29.24.24,0,0,1-.27.24h-7.27a.12.12,0,0,0-.14.14,4.37,4.37,0,0,0,.19,1.4,2.83,2.83,0,0,0,2.9,2,3.78,3.78,0,0,0,3-1.27c.12-.13.24-.15.35-.05l1,.89a.21.21,0,0,1,0,.33,5.59,5.59,0,0,1-4.48,2A4.45,4.45,0,0,1,116,13.73Zm7.15-3.89a.12.12,0,0,0,.14-.14,4.08,4.08,0,0,0-.16-1.3,2.84,2.84,0,0,0-5.29,0,4.08,4.08,0,0,0-.16,1.3.12.12,0,0,0,.14.14Z"/><path d="M134.65,16.59a.23.23,0,0,1-.24-.24V9.63c0-1.85-.84-2.93-2.57-2.93a2.58,2.58,0,0,0-2.64,2.8v6.85a.23.23,0,0,1-.24.24h-1.53a.23.23,0,0,1-.24-.24v-11a.22.22,0,0,1,.24-.24H129a.22.22,0,0,1,.24.24v1h0a3.64,3.64,0,0,1,3.21-1.56c2.5,0,4,1.71,4,4.32v7.21a.23.23,0,0,1-.24.24Z"/><path d="M138.47,7.92A4.44,4.44,0,0,1,143,4.82a4.61,4.61,0,0,1,3.94,1.95c.07.12.07.21-.07.33L145.81,8a.22.22,0,0,1-.34,0A2.8,2.8,0,0,0,143,6.7a2.5,2.5,0,0,0-2.57,1.8,7.75,7.75,0,0,0-.26,2.33,7.81,7.81,0,0,0,.26,2.35A2.5,2.5,0,0,0,143,15a2.81,2.81,0,0,0,2.47-1.25.22.22,0,0,1,.34,0l1.06.86a.23.23,0,0,1,.07.34A4.6,4.6,0,0,1,143,16.85a4.43,4.43,0,0,1-4.53-3.1,9.74,9.74,0,0,1-.36-2.92A9.76,9.76,0,0,1,138.47,7.92Z"/><path d="M155.91,16.59a.23.23,0,0,1-.24-.24V15.27h0a3.51,3.51,0,0,1-3.14,1.58c-2.52,0-4-1.73-4-4.35V5.33a.23.23,0,0,1,.24-.24h1.54a.23.23,0,0,1,.24.24V12c0,1.88.84,3,2.54,3a2.55,2.55,0,0,0,2.59-2.83V5.33a.23.23,0,0,1,.24-.24h1.54a.23.23,0,0,1,.24.24v11a.23.23,0,0,1-.24.24Z"/><path d="M159.87,13.73a9,9,0,0,1-.38-2.9,8.93,8.93,0,0,1,.36-2.91,4.83,4.83,0,0,1,9,0,10.08,10.08,0,0,1,.36,3.29.23.23,0,0,1-.26.24H161.7c-.1,0-.15.05-.15.14a4.33,4.33,0,0,0,.2,1.4,2.83,2.83,0,0,0,2.9,2,3.74,3.74,0,0,0,2.95-1.27c.12-.13.24-.15.36-.05l1,.89a.21.21,0,0,1,0,.33,5.59,5.59,0,0,1-4.49,2A4.45,4.45,0,0,1,159.87,13.73ZM167,9.84a.13.13,0,0,0,.14-.14A4.06,4.06,0,0,0,167,8.4a2.84,2.84,0,0,0-5.28,0,4.06,4.06,0,0,0-.17,1.3c0,.09,0,.14.15.14Z"/><path d="M178.5,16.59a.23.23,0,0,1-.24-.24V9.63c0-1.85-.84-2.93-2.57-2.93a2.58,2.58,0,0,0-2.64,2.8v6.85a.23.23,0,0,1-.24.24h-1.54a.23.23,0,0,1-.24-.24v-11a.23.23,0,0,1,.24-.24h1.54a.23.23,0,0,1,.24.24v1h0a3.67,3.67,0,0,1,3.22-1.56c2.5,0,4,1.71,4,4.32v7.21a.23.23,0,0,1-.24.24Z"/><path d="M186,16.71c-2.24,0-3.1-1-3.1-3.27V6.86c0-.09,0-.14-.15-.14h-1a.22.22,0,0,1-.23-.24V5.33a.22.22,0,0,1,.23-.24h1a.13.13,0,0,0,.15-.15V1.7a.23.23,0,0,1,.24-.24h1.54a.23.23,0,0,1,.24.24V4.94c0,.1,0,.15.14.15h1.82a.22.22,0,0,1,.24.24V6.48a.23.23,0,0,1-.24.24h-1.82a.12.12,0,0,0-.14.14v6.51c0,1.15.43,1.46,1.46,1.46h.5a.23.23,0,0,1,.24.24v1.4a.23.23,0,0,1-.24.24Z"/><path d="M189,16.59a.23.23,0,0,1-.24-.24v-11a.23.23,0,0,1,.24-.24h1.54a.23.23,0,0,1,.24.24V6.5h0a3.21,3.21,0,0,1,3-1.68,3.51,3.51,0,0,1,2.35.87c.12.12.15.21.05.33l-.89,1.18a.21.21,0,0,1-.33,0,3.23,3.23,0,0,0-1.78-.55c-1.75,0-2.47,1.36-2.47,3.36v6.29a.23.23,0,0,1-.24.24Z"/><path d="M203.58,16.59a.23.23,0,0,1-.24-.24v-1h0a3.75,3.75,0,0,1-3.4,1.51c-2.19,0-3.87-1.13-3.87-3.46s1.68-3.55,4.49-3.55h2.62a.13.13,0,0,0,.14-.14V8.86c0-1.59-.62-2.26-2.76-2.26a4.5,4.5,0,0,0-2.79.82c-.12.09-.26.09-.33,0l-.65-1.1a.26.26,0,0,1,.05-.34,6.38,6.38,0,0,1,3.91-1.13c3.27,0,4.51,1.08,4.51,3.92v7.61a.23.23,0,0,1-.24.24Zm-.29-3.72V11.59a.13.13,0,0,0-.14-.14h-2.31c-2,0-2.85.57-2.85,1.87s.86,1.8,2.4,1.8C202.19,15.12,203.29,14.28,203.29,12.87Z"/><path d="M211.16,15.12a.22.22,0,0,1,0-.33l1-1.06a.23.23,0,0,1,.34,0A5.6,5.6,0,0,0,216,15.05c1.68,0,2.52-.72,2.52-1.75s-.43-1.42-2.23-1.61l-1.22-.12c-2.26-.24-3.44-1.37-3.44-3.24,0-2.19,1.56-3.51,4.28-3.51A6.88,6.88,0,0,1,220,6.1a.23.23,0,0,1,0,.33l-.82,1a.24.24,0,0,1-.34,0,6,6,0,0,0-3.09-.93c-1.44,0-2.19.64-2.19,1.58s.55,1.39,2.26,1.56l1.2.12c2.33.22,3.46,1.39,3.46,3.24,0,2.26-1.64,3.77-4.64,3.77A7.13,7.13,0,0,1,211.16,15.12Z"/><path d="M222,13.73a9,9,0,0,1-.38-2.9,8.93,8.93,0,0,1,.36-2.91,4.83,4.83,0,0,1,9,0,10.08,10.08,0,0,1,.36,3.29.23.23,0,0,1-.26.24h-7.28a.13.13,0,0,0-.14.14,4.37,4.37,0,0,0,.19,1.4,2.84,2.84,0,0,0,2.91,2,3.74,3.74,0,0,0,2.95-1.27c.12-.13.24-.15.36-.05l1,.89a.21.21,0,0,1,0,.33,5.59,5.59,0,0,1-4.49,2A4.45,4.45,0,0,1,222,13.73Zm7.15-3.89c.1,0,.15-.05.15-.14a4.06,4.06,0,0,0-.17-1.3,2.84,2.84,0,0,0-5.28,0,4.06,4.06,0,0,0-.17,1.3.13.13,0,0,0,.14.14Z"/><path d="M240.59,16.59a.23.23,0,0,1-.24-.24V9.63c0-1.85-.84-2.93-2.57-2.93a2.58,2.58,0,0,0-2.64,2.8v6.85a.23.23,0,0,1-.24.24h-1.54a.23.23,0,0,1-.24-.24v-11a.23.23,0,0,1,.24-.24h1.54a.23.23,0,0,1,.24.24v1h0a3.66,3.66,0,0,1,3.22-1.56c2.49,0,4,1.71,4,4.32v7.21a.23.23,0,0,1-.24.24Zm-3.1-14.33a2.52,2.52,0,0,0-1.27-.44,2.27,2.27,0,0,0-1.52.77c-.09.1-.19.05-.19,0V1.39a.57.57,0,0,1,.17-.43,2.33,2.33,0,0,1,1.63-.77,2.76,2.76,0,0,1,1.51.51,2.57,2.57,0,0,0,1.28.43,2.27,2.27,0,0,0,1.51-.77c.1-.1.19,0,.19,0V1.56a.53.53,0,0,1-.17.43,2.33,2.33,0,0,1-1.63.77A3,3,0,0,1,237.49,2.26Z"/><path d="M251.7,16.59a.23.23,0,0,1-.24-.24v-1h0A3.76,3.76,0,0,1,248,16.85c-2.18,0-3.86-1.13-3.86-3.46s1.68-3.55,4.49-3.55h2.61c.1,0,.15-.05.15-.14V8.86c0-1.59-.63-2.26-2.76-2.26a4.5,4.5,0,0,0-2.79.82c-.12.09-.26.09-.33,0l-.65-1.1a.26.26,0,0,1,.05-.34,6.38,6.38,0,0,1,3.91-1.13c3.27,0,4.51,1.08,4.51,3.92v7.61a.23.23,0,0,1-.24.24Zm-.29-3.72V11.59c0-.09,0-.14-.15-.14H249c-2,0-2.86.57-2.86,1.87s.87,1.8,2.4,1.8C250.3,15.12,251.41,14.28,251.41,12.87Z"/><path d="M258.51,16.71c-2,0-2.81-1-2.81-3V.5a.23.23,0,0,1,.24-.24h1.54a.23.23,0,0,1,.24.24V13.56c0,1,.36,1.27,1.15,1.27h.46a.23.23,0,0,1,.24.24v1.4a.23.23,0,0,1-.24.24Z"/><path d="M261.15,2.5a.23.23,0,0,1-.24-.24V.5a.23.23,0,0,1,.24-.24h1.63A.23.23,0,0,1,263,.5V2.26a.23.23,0,0,1-.24.24Zm.05,14.09a.23.23,0,0,1-.24-.24v-11a.23.23,0,0,1,.24-.24h1.54a.23.23,0,0,1,.24.24v11a.23.23,0,0,1-.24.24Z"/><path d="M265.06,16.59a.23.23,0,0,1-.24-.24V15.07a.37.37,0,0,1,.1-.26L271.23,7v0h-5.85a.22.22,0,0,1-.24-.24V5.33a.22.22,0,0,1,.24-.24h8a.22.22,0,0,1,.24.24V6.67a.38.38,0,0,1-.09.27l-6.27,7.77v0h6.12a.23.23,0,0,1,.24.24v1.35a.23.23,0,0,1-.24.24Z"/><path d="M282.44,16.59a.23.23,0,0,1-.24-.24v-1h0a3.79,3.79,0,0,1-3.41,1.51c-2.19,0-3.87-1.13-3.87-3.46s1.68-3.55,4.49-3.55H282a.13.13,0,0,0,.14-.14V8.86c0-1.59-.62-2.26-2.76-2.26a4.46,4.46,0,0,0-2.78.82.22.22,0,0,1-.34,0l-.65-1.1a.27.27,0,0,1,.05-.34,6.4,6.4,0,0,1,3.91-1.13c3.27,0,4.52,1.08,4.52,3.92v7.61a.23.23,0,0,1-.24.24Zm-.29-3.72V11.59a.13.13,0,0,0-.14-.14H279.7c-2,0-2.85.57-2.85,1.87s.86,1.8,2.4,1.8C281.05,15.12,282.15,14.28,282.15,12.87Z"/><path d="M293.7,16.59a.23.23,0,0,1-.24-.24V15.24h0a3.49,3.49,0,0,1-3.26,1.61,3.8,3.8,0,0,1-4-2.76,9.58,9.58,0,0,1-.41-3.26,9.63,9.63,0,0,1,.41-3.25,3.8,3.8,0,0,1,4-2.76,3.48,3.48,0,0,1,3.26,1.59h0V.5a.23.23,0,0,1,.24-.24h1.53a.23.23,0,0,1,.24.24V16.35a.23.23,0,0,1-.24.24Zm-.51-3.36a7.45,7.45,0,0,0,.27-2.4,7.56,7.56,0,0,0-.27-2.41,2.72,2.72,0,0,0-5.06,0,8.29,8.29,0,0,0-.27,2.41,8,8,0,0,0,.27,2.4,2.7,2.7,0,0,0,5.06,0Z"/><path d="M304.93,16.59a.23.23,0,0,1-.24-.24v-1h0a3.75,3.75,0,0,1-3.4,1.51c-2.19,0-3.87-1.13-3.87-3.46s1.68-3.55,4.49-3.55h2.62a.13.13,0,0,0,.14-.14V8.86c0-1.59-.62-2.26-2.76-2.26a4.44,4.44,0,0,0-2.78.82.22.22,0,0,1-.34,0l-.65-1.1a.26.26,0,0,1,.05-.34,6.38,6.38,0,0,1,3.91-1.13c3.27,0,4.51,1.08,4.51,3.92v7.61a.23.23,0,0,1-.24.24Zm-.29-3.72V11.59a.13.13,0,0,0-.14-.14h-2.31c-2,0-2.85.57-2.85,1.87s.86,1.8,2.4,1.8C303.54,15.12,304.64,14.28,304.64,12.87Z"/><path d="M308.94,14h1.68a.23.23,0,0,1,.24.24v2.23a.78.78,0,0,1-.15.53l-1.49,2a.37.37,0,0,1-.31.17.21.21,0,0,1-.21-.22V14.28A.23.23,0,0,1,308.94,14Z"/><path d="M316.09,15.12a.22.22,0,0,1,0-.33l1-1.06a.23.23,0,0,1,.34,0A5.6,5.6,0,0,0,321,15.05c1.68,0,2.52-.72,2.52-1.75s-.43-1.42-2.23-1.61L320,11.57c-2.25-.24-3.43-1.37-3.43-3.24,0-2.19,1.56-3.51,4.27-3.51a6.88,6.88,0,0,1,4.08,1.28.23.23,0,0,1,.05.33l-.81,1a.24.24,0,0,1-.34,0,6,6,0,0,0-3.1-.93c-1.44,0-2.18.64-2.18,1.58s.55,1.39,2.26,1.56l1.2.12c2.32.22,3.45,1.39,3.45,3.24,0,2.26-1.63,3.77-4.63,3.77A7.11,7.11,0,0,1,316.09,15.12Z"/><path d="M326.89,13.73a8.94,8.94,0,0,1-.39-2.9,8.93,8.93,0,0,1,.36-2.91,4.84,4.84,0,0,1,9,0,10.08,10.08,0,0,1,.36,3.29.24.24,0,0,1-.27.24h-7.27a.13.13,0,0,0-.14.14,4.37,4.37,0,0,0,.19,1.4,2.84,2.84,0,0,0,2.9,2,3.78,3.78,0,0,0,3-1.27c.12-.13.24-.15.36-.05l1,.89a.21.21,0,0,1,0,.33,5.59,5.59,0,0,1-4.48,2A4.45,4.45,0,0,1,326.89,13.73ZM334,9.84a.12.12,0,0,0,.14-.14A4.08,4.08,0,0,0,334,8.4a2.84,2.84,0,0,0-5.28,0,4.06,4.06,0,0,0-.17,1.3.13.13,0,0,0,.14.14Z"/><path d="M342.61,20.91a.23.23,0,0,1-.24-.24V5.33a.22.22,0,0,1,.24-.24h1.53a.22.22,0,0,1,.24.24V6.41h0a3.48,3.48,0,0,1,3.26-1.59,3.81,3.81,0,0,1,4,2.76,9.63,9.63,0,0,1,.41,3.25,9.58,9.58,0,0,1-.41,3.26,3.81,3.81,0,0,1-4,2.76,3.49,3.49,0,0,1-3.26-1.61h0v5.43a.23.23,0,0,1-.24.24Zm7.1-7.68a8.09,8.09,0,0,0,.26-2.4,8.33,8.33,0,0,0-.26-2.41,2.72,2.72,0,0,0-5.06,0,7.28,7.28,0,0,0-.27,2.41,7.17,7.17,0,0,0,.27,2.4,2.7,2.7,0,0,0,5.06,0Z"/><path d="M361.06,16.59a.23.23,0,0,1-.24-.24V15.27h0a3.51,3.51,0,0,1-3.14,1.58c-2.53,0-4-1.73-4-4.35V5.33a.23.23,0,0,1,.24-.24h1.54a.23.23,0,0,1,.24.24V12c0,1.88.84,3,2.54,3a2.55,2.55,0,0,0,2.59-2.83V5.33a.23.23,0,0,1,.24-.24h1.54a.23.23,0,0,1,.24.24v11a.23.23,0,0,1-.24.24Z"/><path d="M365,13.73a9,9,0,0,1-.38-2.9A8.93,8.93,0,0,1,365,7.92a4.83,4.83,0,0,1,9,0,10.08,10.08,0,0,1,.36,3.29.23.23,0,0,1-.26.24h-7.27c-.1,0-.15.05-.15.14a4.37,4.37,0,0,0,.19,1.4,2.84,2.84,0,0,0,2.91,2,3.74,3.74,0,0,0,2.95-1.27c.12-.13.24-.15.36-.05l1,.89a.2.2,0,0,1,0,.33,5.59,5.59,0,0,1-4.49,2A4.45,4.45,0,0,1,365,13.73Zm7.15-3.89c.1,0,.15-.05.15-.14a4.06,4.06,0,0,0-.17-1.3,2.84,2.84,0,0,0-5.28,0,4.06,4.06,0,0,0-.17,1.3c0,.09.05.14.15.14Z"/><path d="M383.38,16.59a.23.23,0,0,1-.24-.24V15.24h0a3.51,3.51,0,0,1-3.27,1.61,3.81,3.81,0,0,1-4-2.76,9.61,9.61,0,0,1-.4-3.26,9.66,9.66,0,0,1,.4-3.25,3.81,3.81,0,0,1,4-2.76,3.5,3.5,0,0,1,3.27,1.59h0V.5a.23.23,0,0,1,.24-.24h1.54a.23.23,0,0,1,.24.24V16.35a.23.23,0,0,1-.24.24Zm-.5-3.36a7.51,7.51,0,0,0,.26-2.4,7.62,7.62,0,0,0-.26-2.41,2.73,2.73,0,0,0-5.07,0,8.33,8.33,0,0,0-.26,2.41,8.09,8.09,0,0,0,.26,2.4,2.71,2.71,0,0,0,5.07,0Z"/><path d="M387.34,13.73a9,9,0,0,1-.38-2.9,8.93,8.93,0,0,1,.36-2.91,4.83,4.83,0,0,1,9,0,10.08,10.08,0,0,1,.36,3.29.23.23,0,0,1-.26.24h-7.27c-.1,0-.15.05-.15.14a4.37,4.37,0,0,0,.19,1.4,2.84,2.84,0,0,0,2.91,2,3.74,3.74,0,0,0,2.95-1.27c.12-.13.24-.15.36-.05l1,.89a.21.21,0,0,1,0,.33,5.59,5.59,0,0,1-4.49,2A4.45,4.45,0,0,1,387.34,13.73Zm7.15-3.89c.1,0,.15-.05.15-.14a4.06,4.06,0,0,0-.17-1.3,2.84,2.84,0,0,0-5.28,0A4.06,4.06,0,0,0,389,9.7c0,.09.05.14.15.14Z"/><path d="M1.07,48.91a.23.23,0,0,1-.24-.24V33.33a.23.23,0,0,1,.24-.24H2.61a.23.23,0,0,1,.24.24v1.08h0a3.49,3.49,0,0,1,3.26-1.59,3.79,3.79,0,0,1,4,2.76,9.38,9.38,0,0,1,.41,3.25,9.34,9.34,0,0,1-.41,3.26,3.79,3.79,0,0,1-4,2.76,3.5,3.5,0,0,1-3.26-1.61h0v5.43a.23.23,0,0,1-.24.24Zm7.1-7.68a7.72,7.72,0,0,0,.27-2.4,8,8,0,0,0-.27-2.41A2.43,2.43,0,0,0,5.65,34.7a2.43,2.43,0,0,0-2.54,1.72,7.62,7.62,0,0,0-.26,2.41,7.51,7.51,0,0,0,.26,2.4A2.46,2.46,0,0,0,5.65,43,2.46,2.46,0,0,0,8.17,41.23Z"/><path d="M12.54,44.59a.23.23,0,0,1-.24-.24v-11a.23.23,0,0,1,.24-.24h1.54a.23.23,0,0,1,.24.24V34.5h0a3.2,3.2,0,0,1,3.05-1.68,3.51,3.51,0,0,1,2.35.87c.12.12.15.21.05.33L18.9,35.2a.21.21,0,0,1-.33,0,3.23,3.23,0,0,0-1.78-.55c-1.75,0-2.47,1.36-2.47,3.36v6.29a.23.23,0,0,1-.24.24Z"/><path d="M20,41.75a8.42,8.42,0,0,1-.39-2.92A8.4,8.4,0,0,1,20,35.92a4.43,4.43,0,0,1,4.53-3.1A4.44,4.44,0,0,1,29,35.92a8.68,8.68,0,0,1,.38,2.91A8.7,8.7,0,0,1,29,41.75a4.46,4.46,0,0,1-4.54,3.1A4.46,4.46,0,0,1,20,41.75Zm7.13-.57a7.64,7.64,0,0,0,.26-2.35,7.41,7.41,0,0,0-.26-2.33,2.56,2.56,0,0,0-2.6-1.8,2.55,2.55,0,0,0-2.59,1.8,7.41,7.41,0,0,0-.26,2.33,7.64,7.64,0,0,0,.26,2.35A2.56,2.56,0,0,0,24.49,43,2.57,2.57,0,0,0,27.09,41.18Z"/><path d="M30.88,35.92a4.46,4.46,0,0,1,4.53-3.1,4.61,4.61,0,0,1,3.94,2c.07.12.07.21-.07.33L38.22,36a.21.21,0,0,1-.33,0,2.83,2.83,0,0,0-2.48-1.24,2.51,2.51,0,0,0-2.57,1.8,7.75,7.75,0,0,0-.26,2.33,7.81,7.81,0,0,0,.26,2.35A2.51,2.51,0,0,0,35.41,43a2.84,2.84,0,0,0,2.48-1.25.21.21,0,0,1,.33,0l1.06.86a.23.23,0,0,1,.07.34,4.6,4.6,0,0,1-3.94,1.94,4.45,4.45,0,0,1-4.53-3.1,9.74,9.74,0,0,1-.36-2.92A9.76,9.76,0,0,1,30.88,35.92Z"/><path d="M40.5,41.73a9,9,0,0,1-.38-2.9,8.93,8.93,0,0,1,.36-2.91A4.44,4.44,0,0,1,45,32.82a4.45,4.45,0,0,1,4.51,3.1,10.08,10.08,0,0,1,.36,3.29.23.23,0,0,1-.26.24H42.32a.13.13,0,0,0-.14.14,4.37,4.37,0,0,0,.19,1.4,2.84,2.84,0,0,0,2.91,2,3.74,3.74,0,0,0,2.95-1.27c.12-.13.24-.15.36-.05l1,.89a.21.21,0,0,1,0,.33,5.59,5.59,0,0,1-4.49,2A4.45,4.45,0,0,1,40.5,41.73Zm7.15-3.89c.1,0,.15-.05.15-.14a4.06,4.06,0,0,0-.17-1.3,2.84,2.84,0,0,0-5.28,0,4.06,4.06,0,0,0-.17,1.3.13.13,0,0,0,.14.14Z"/><path d="M58.86,44.59a.23.23,0,0,1-.24-.24V43.24h0a3.52,3.52,0,0,1-3.27,1.61,3.81,3.81,0,0,1-4-2.76A9.58,9.58,0,0,1,51,38.83a9.63,9.63,0,0,1,.41-3.25,3.81,3.81,0,0,1,4-2.76,3.51,3.51,0,0,1,3.27,1.59h0V28.5a.23.23,0,0,1,.24-.24H60.4a.23.23,0,0,1,.24.24V44.35a.23.23,0,0,1-.24.24Zm-.5-3.36a7.51,7.51,0,0,0,.26-2.4,7.62,7.62,0,0,0-.26-2.41,2.73,2.73,0,0,0-5.07,0A8.33,8.33,0,0,0,53,38.83a8.09,8.09,0,0,0,.26,2.4,2.71,2.71,0,0,0,5.07,0Z"/><path d="M62.82,41.73a9,9,0,0,1-.38-2.9,8.93,8.93,0,0,1,.36-2.91,4.83,4.83,0,0,1,9,0,10.08,10.08,0,0,1,.36,3.29.24.24,0,0,1-.26.24H64.64a.13.13,0,0,0-.14.14,4.37,4.37,0,0,0,.19,1.4,2.84,2.84,0,0,0,2.91,2,3.77,3.77,0,0,0,3-1.27c.12-.13.24-.15.36-.05l1,.89a.21.21,0,0,1,0,.33,5.62,5.62,0,0,1-4.49,2A4.45,4.45,0,0,1,62.82,41.73ZM70,37.84c.1,0,.15-.05.15-.14A4.06,4.06,0,0,0,70,36.4a2.84,2.84,0,0,0-5.28,0,4.06,4.06,0,0,0-.17,1.3.13.13,0,0,0,.14.14Z"/><path d="M74.22,44.59a.23.23,0,0,1-.24-.24v-11a.23.23,0,0,1,.24-.24h1.54a.23.23,0,0,1,.24.24V34.5h0a3.2,3.2,0,0,1,3-1.68,3.53,3.53,0,0,1,2.35.87c.12.12.14.21,0,.33l-.89,1.18a.23.23,0,0,1-.34,0,3.17,3.17,0,0,0-1.77-.55c-1.75,0-2.47,1.36-2.47,3.36v6.29a.23.23,0,0,1-.24.24Z"/><path d="M93.66,44.59a.23.23,0,0,1-.24-.24v-1h0A3.79,3.79,0,0,1,90,44.85c-2.19,0-3.87-1.13-3.87-3.46s1.68-3.55,4.49-3.55h2.62a.13.13,0,0,0,.14-.14v-.84c0-1.59-.62-2.26-2.76-2.26a4.46,4.46,0,0,0-2.78.82.22.22,0,0,1-.34,0l-.65-1.1a.27.27,0,0,1,0-.34,6.4,6.4,0,0,1,3.91-1.13c3.27,0,4.52,1.08,4.52,3.92v7.61a.23.23,0,0,1-.24.24Zm-.29-3.72V39.59a.13.13,0,0,0-.14-.14H90.92c-2,0-2.85.57-2.85,1.87s.86,1.8,2.4,1.8C92.27,43.12,93.37,42.28,93.37,40.87Z"/><path d="M105.37,44.71c-2.23,0-3.09-1-3.09-3.27V34.86c0-.09,0-.14-.15-.14h-1a.23.23,0,0,1-.24-.24V33.33a.23.23,0,0,1,.24-.24h1a.13.13,0,0,0,.15-.15V29.7a.23.23,0,0,1,.24-.24h1.53a.23.23,0,0,1,.24.24v3.24a.13.13,0,0,0,.15.15h1.82a.23.23,0,0,1,.24.24v1.15a.23.23,0,0,1-.24.24h-1.82c-.1,0-.15.05-.15.14v6.51c0,1.15.43,1.46,1.47,1.46h.5a.23.23,0,0,1,.24.24v1.4a.23.23,0,0,1-.24.24Z"/><path d="M108.42,44.59a.23.23,0,0,1-.24-.24v-11a.23.23,0,0,1,.24-.24H110a.23.23,0,0,1,.24.24V34.5h0a3.2,3.2,0,0,1,3-1.68,3.53,3.53,0,0,1,2.35.87c.12.12.14.21,0,.33l-.89,1.18a.23.23,0,0,1-.34,0,3.17,3.17,0,0,0-1.77-.55c-1.75,0-2.47,1.36-2.47,3.36v6.29a.23.23,0,0,1-.24.24Z"/><path d="M123,44.59a.23.23,0,0,1-.24-.24v-1h0a3.79,3.79,0,0,1-3.41,1.51c-2.18,0-3.86-1.13-3.86-3.46s1.68-3.55,4.49-3.55h2.61c.1,0,.15-.05.15-.14v-.84c0-1.59-.63-2.26-2.76-2.26a4.48,4.48,0,0,0-2.79.82c-.12.09-.26.09-.33,0l-.65-1.1a.26.26,0,0,1,0-.34,6.36,6.36,0,0,1,3.91-1.13c3.26,0,4.51,1.08,4.51,3.92v7.61a.23.23,0,0,1-.24.24Zm-.28-3.72V39.59c0-.09-.05-.14-.15-.14h-2.3c-2,0-2.86.57-2.86,1.87s.87,1.8,2.4,1.8C121.57,43.12,122.68,42.28,122.68,40.87Z"/><path d="M127.26,44.59a.23.23,0,0,1-.24-.24V28.5a.23.23,0,0,1,.24-.24h1.54a.23.23,0,0,1,.24.24v5.91h0a3.49,3.49,0,0,1,3.26-1.59,3.79,3.79,0,0,1,4,2.76,9.38,9.38,0,0,1,.41,3.25,9.34,9.34,0,0,1-.41,3.26,3.79,3.79,0,0,1-4,2.76,3.5,3.5,0,0,1-3.26-1.61h0v1.11a.23.23,0,0,1-.24.24Zm7.1-3.36a7.72,7.72,0,0,0,.27-2.4,8,8,0,0,0-.27-2.41,2.72,2.72,0,0,0-5.06,0,7.62,7.62,0,0,0-.26,2.41,7.51,7.51,0,0,0,.26,2.4,2.7,2.7,0,0,0,5.06,0Z"/><path d="M145.45,44.59a.23.23,0,0,1-.24-.24v-1h0a3.79,3.79,0,0,1-3.41,1.51c-2.18,0-3.86-1.13-3.86-3.46s1.68-3.55,4.48-3.55H145a.12.12,0,0,0,.14-.14v-.84c0-1.59-.62-2.26-2.76-2.26a4.46,4.46,0,0,0-2.78.82.22.22,0,0,1-.34,0l-.64-1.1a.26.26,0,0,1,0-.34,6.42,6.42,0,0,1,3.92-1.13c3.26,0,4.51,1.08,4.51,3.92v7.61a.23.23,0,0,1-.24.24Zm-.29-3.72V39.59a.12.12,0,0,0-.14-.14h-2.3c-2,0-2.86.57-2.86,1.87s.86,1.8,2.4,1.8C144.06,43.12,145.16,42.28,145.16,40.87Z"/><path d="M147.61,48.91a.23.23,0,0,1-.24-.24v-1.4a.23.23,0,0,1,.24-.24H148c1.12,0,1.51-.31,1.51-1.53V33.33a.22.22,0,0,1,.24-.24h1.53a.22.22,0,0,1,.24.24V45.45c0,2.47-1.1,3.46-3.43,3.46ZM149.7,30.5a.23.23,0,0,1-.24-.24V28.5a.23.23,0,0,1,.24-.24h1.63a.23.23,0,0,1,.24.24v1.76a.23.23,0,0,1-.24.24Z"/><path d="M161,44.59a.23.23,0,0,1-.24-.24v-1h0a3.79,3.79,0,0,1-3.41,1.51c-2.19,0-3.87-1.13-3.87-3.46s1.68-3.55,4.49-3.55h2.62a.13.13,0,0,0,.14-.14v-.84c0-1.59-.62-2.26-2.76-2.26a4.46,4.46,0,0,0-2.78.82.22.22,0,0,1-.34,0l-.65-1.1a.27.27,0,0,1,.05-.34,6.4,6.4,0,0,1,3.91-1.13c3.27,0,4.52,1.08,4.52,3.92v7.61a.23.23,0,0,1-.24.24Zm-.29-3.72V39.59a.13.13,0,0,0-.14-.14h-2.31c-2,0-2.85.57-2.85,1.87s.86,1.8,2.4,1.8C159.59,43.12,160.69,42.28,160.69,40.87Z"/><path d="M165.28,44.59a.23.23,0,0,1-.24-.24v-11a.22.22,0,0,1,.24-.24h1.53a.22.22,0,0,1,.24.24V34.5h0a3.2,3.2,0,0,1,3-1.68,3.54,3.54,0,0,1,2.36.87c.12.12.14.21,0,.33l-.88,1.18a.23.23,0,0,1-.34,0,3.2,3.2,0,0,0-1.78-.55c-1.75,0-2.47,1.36-2.47,3.36v6.29a.23.23,0,0,1-.24.24Z"/><path d="M177.44,41.73a9,9,0,0,1-.38-2.9,8.93,8.93,0,0,1,.36-2.91,4.83,4.83,0,0,1,9,0,10.08,10.08,0,0,1,.36,3.29.23.23,0,0,1-.26.24h-7.27c-.1,0-.15,0-.15.14a4.33,4.33,0,0,0,.2,1.4,2.83,2.83,0,0,0,2.9,2,3.74,3.74,0,0,0,2.95-1.27c.12-.13.24-.15.36-.05l1,.89a.21.21,0,0,1,0,.33,5.59,5.59,0,0,1-4.49,2A4.45,4.45,0,0,1,177.44,41.73Zm7.16-3.89a.13.13,0,0,0,.14-.14,4.06,4.06,0,0,0-.17-1.3,2.84,2.84,0,0,0-5.28,0,4.06,4.06,0,0,0-.17,1.3c0,.09,0,.14.15.14Z"/><path d="M196.07,44.59a.23.23,0,0,1-.24-.24V37.63c0-1.85-.84-2.93-2.57-2.93a2.58,2.58,0,0,0-2.64,2.8v6.85a.23.23,0,0,1-.24.24h-1.54a.23.23,0,0,1-.24-.24v-11a.23.23,0,0,1,.24-.24h1.54a.23.23,0,0,1,.24.24v1.05h0a3.67,3.67,0,0,1,3.22-1.56c2.5,0,4,1.71,4,4.32v7.21a.23.23,0,0,1-.24.24Z"/><path d="M204.23,41.73a8.94,8.94,0,0,1-.39-2.9,8.93,8.93,0,0,1,.36-2.91,4.84,4.84,0,0,1,9,0,10.08,10.08,0,0,1,.36,3.29.24.24,0,0,1-.27.24h-7.27a.12.12,0,0,0-.14.14,4.37,4.37,0,0,0,.19,1.4,2.83,2.83,0,0,0,2.9,2A3.74,3.74,0,0,0,212,41.71c.12-.13.25-.15.36-.05l1,.89a.21.21,0,0,1,0,.33,5.59,5.59,0,0,1-4.49,2A4.44,4.44,0,0,1,204.23,41.73Zm7.15-3.89a.13.13,0,0,0,.14-.14,4.06,4.06,0,0,0-.17-1.3,2.84,2.84,0,0,0-5.28,0,4.08,4.08,0,0,0-.16,1.3.12.12,0,0,0,.14.14Z"/><path d="M218.15,44.71c-2,0-2.81-1-2.81-3V28.5a.23.23,0,0,1,.24-.24h1.53a.23.23,0,0,1,.24.24V41.56c0,1,.36,1.27,1.16,1.27H219a.23.23,0,0,1,.24.24v1.4a.23.23,0,0,1-.24.24Z"/><path d="M231.87,44.59a.22.22,0,0,1-.23-.24v-1h0a3.79,3.79,0,0,1-3.41,1.51c-2.18,0-3.86-1.13-3.86-3.46s1.68-3.55,4.49-3.55h2.61c.1,0,.15-.05.15-.14v-.84c0-1.59-.63-2.26-2.76-2.26a4.48,4.48,0,0,0-2.79.82c-.12.09-.26.09-.33,0l-.65-1.1a.26.26,0,0,1,.05-.34A6.36,6.36,0,0,1,229,32.82c3.26,0,4.51,1.08,4.51,3.92v7.61a.23.23,0,0,1-.24.24Zm-.28-3.72V39.59c0-.09-.05-.14-.15-.14h-2.3c-2,0-2.86.57-2.86,1.87s.87,1.8,2.4,1.8C230.48,43.12,231.59,42.28,231.59,40.87Zm-3.24-9.65c-.15,0-.22-.1-.15-.24L230,28a.42.42,0,0,1,.4-.24H232a.14.14,0,0,1,.12.24l-2.21,3a.48.48,0,0,1-.46.24Z"/><path d="M236.17,44.59a.23.23,0,0,1-.24-.24v-11a.23.23,0,0,1,.24-.24h1.54a.23.23,0,0,1,.24.24V34.5h0A3.2,3.2,0,0,1,241,32.82a3.51,3.51,0,0,1,2.35.87c.12.12.14.21,0,.33l-.89,1.18a.22.22,0,0,1-.33,0,3.23,3.23,0,0,0-1.78-.55c-1.75,0-2.47,1.36-2.47,3.36v6.29a.23.23,0,0,1-.24.24Z"/><path d="M243.59,41.73a8.94,8.94,0,0,1-.39-2.9,8.93,8.93,0,0,1,.36-2.91,4.84,4.84,0,0,1,9,0,10.08,10.08,0,0,1,.36,3.29.24.24,0,0,1-.27.24h-7.27a.12.12,0,0,0-.14.14,4.37,4.37,0,0,0,.19,1.4,2.83,2.83,0,0,0,2.9,2,3.78,3.78,0,0,0,3-1.27c.12-.13.24-.15.36-.05l1,.89a.21.21,0,0,1,0,.33,5.59,5.59,0,0,1-4.48,2A4.45,4.45,0,0,1,243.59,41.73Zm7.15-3.89a.12.12,0,0,0,.14-.14,4.08,4.08,0,0,0-.16-1.3,2.84,2.84,0,0,0-5.29,0,4.08,4.08,0,0,0-.16,1.3.12.12,0,0,0,.14.14Z"/><path d="M261.71,44.59a.23.23,0,0,1-.24-.24v-1h0A3.77,3.77,0,0,1,258,44.85c-2.18,0-3.86-1.13-3.86-3.46s1.68-3.55,4.49-3.55h2.61c.1,0,.15-.05.15-.14v-.84c0-1.59-.63-2.26-2.76-2.26a4.5,4.5,0,0,0-2.79.82c-.12.09-.26.09-.33,0l-.65-1.1a.26.26,0,0,1,.05-.34,6.38,6.38,0,0,1,3.91-1.13c3.26,0,4.51,1.08,4.51,3.92v7.61a.23.23,0,0,1-.24.24Zm-.29-3.72V39.59c0-.09-.05-.14-.15-.14H259c-2,0-2.86.57-2.86,1.87s.87,1.8,2.4,1.8C260.31,43.12,261.42,42.28,261.42,40.87Z"/><path d="M265.71,42h1.68a.23.23,0,0,1,.24.24v2.23a.77.77,0,0,1-.14.53L266,47a.37.37,0,0,1-.31.17.22.22,0,0,1-.22-.22V42.28A.23.23,0,0,1,265.71,42Z"/><path d="M280.62,44.59a.23.23,0,0,1-.24-.24v-1h0a3.75,3.75,0,0,1-3.4,1.51c-2.19,0-3.87-1.13-3.87-3.46s1.68-3.55,4.49-3.55h2.62a.13.13,0,0,0,.14-.14v-.84c0-1.59-.62-2.26-2.76-2.26a4.44,4.44,0,0,0-2.78.82.22.22,0,0,1-.34,0l-.65-1.1a.26.26,0,0,1,.05-.34,6.38,6.38,0,0,1,3.91-1.13c3.27,0,4.51,1.08,4.51,3.92v7.61a.23.23,0,0,1-.24.24Zm-.29-3.72V39.59a.13.13,0,0,0-.14-.14h-2.31c-2,0-2.85.57-2.85,1.87s.86,1.8,2.4,1.8C279.23,43.12,280.33,42.28,280.33,40.87Z"/><path d="M291.9,44.59a.23.23,0,0,1-.24-.24V43.27h0a3.49,3.49,0,0,1-3.14,1.58c-2.52,0-4-1.73-4-4.35V33.33a.22.22,0,0,1,.24-.24h1.53a.22.22,0,0,1,.24.24V40c0,1.88.84,3,2.55,3a2.55,2.55,0,0,0,2.59-2.83V33.33a.22.22,0,0,1,.24-.24h1.53a.22.22,0,0,1,.24.24v11a.23.23,0,0,1-.24.24Z"/><path d="M303.63,44.59a.23.23,0,0,1-.24-.24V37.63c0-1.85-.84-2.93-2.56-2.93a2.58,2.58,0,0,0-2.64,2.8v6.85a.23.23,0,0,1-.24.24h-1.54a.23.23,0,0,1-.24-.24v-11a.23.23,0,0,1,.24-.24H298a.23.23,0,0,1,.24.24v1.05h0a3.66,3.66,0,0,1,3.22-1.56c2.49,0,4,1.71,4,4.32v7.21a.23.23,0,0,1-.24.24Z"/><path d="M311.31,43.12a.24.24,0,0,1,0-.33l1-1.06a.22.22,0,0,1,.33,0,5.63,5.63,0,0,0,3.56,1.32c1.68,0,2.52-.72,2.52-1.75s-.44-1.42-2.24-1.61l-1.22-.12c-2.26-.24-3.43-1.37-3.43-3.24,0-2.19,1.56-3.51,4.27-3.51a6.88,6.88,0,0,1,4.08,1.28.23.23,0,0,1,.05.33l-.82,1a.23.23,0,0,1-.33,0,6.07,6.07,0,0,0-3.1-.93c-1.44,0-2.18.64-2.18,1.58s.55,1.39,2.25,1.56l1.2.12c2.33.22,3.46,1.39,3.46,3.24,0,2.26-1.63,3.77-4.63,3.77A7.14,7.14,0,0,1,311.31,43.12Z"/><path d="M322.62,30.5a.23.23,0,0,1-.24-.24V28.5a.23.23,0,0,1,.24-.24h1.63a.23.23,0,0,1,.24.24v1.76a.23.23,0,0,1-.24.24Zm0,14.09a.22.22,0,0,1-.23-.24v-11a.22.22,0,0,1,.23-.24h1.54a.23.23,0,0,1,.24.24v11a.23.23,0,0,1-.24.24Z"/><path d="M334.4,44.59a.23.23,0,0,1-.24-.24V37.63c0-1.85-.84-2.93-2.57-2.93A2.58,2.58,0,0,0,329,37.5v6.85a.23.23,0,0,1-.24.24h-1.53a.23.23,0,0,1-.24-.24v-11a.22.22,0,0,1,.24-.24h1.53a.22.22,0,0,1,.24.24v1.05h0a3.64,3.64,0,0,1,3.21-1.56c2.5,0,4,1.71,4,4.32v7.21a.23.23,0,0,1-.24.24Z"/><path d="M342.54,35.92a4.44,4.44,0,0,1,4.53-3.1,4.62,4.62,0,0,1,3.94,2c.07.12.07.21-.07.33l-1.06.87a.22.22,0,0,1-.34,0,2.82,2.82,0,0,0-2.47-1.24,2.5,2.5,0,0,0-2.57,1.8,7.75,7.75,0,0,0-.26,2.33,7.81,7.81,0,0,0,.26,2.35,2.5,2.5,0,0,0,2.57,1.8,2.82,2.82,0,0,0,2.47-1.25.22.22,0,0,1,.34,0l1.06.86a.23.23,0,0,1,.07.34,4.62,4.62,0,0,1-3.94,1.94,4.43,4.43,0,0,1-4.53-3.1,9.74,9.74,0,0,1-.36-2.92A9.76,9.76,0,0,1,342.54,35.92Z"/><path d="M352.16,41.75a8.7,8.7,0,0,1-.38-2.92,8.68,8.68,0,0,1,.38-2.91,4.87,4.87,0,0,1,9.07,0,8.4,8.4,0,0,1,.39,2.91,8.42,8.42,0,0,1-.39,2.92,4.87,4.87,0,0,1-9.07,0Zm7.13-.57a7.64,7.64,0,0,0,.26-2.35,7.41,7.41,0,0,0-.26-2.33,2.77,2.77,0,0,0-5.19,0,7.41,7.41,0,0,0-.26,2.33,7.64,7.64,0,0,0,.26,2.35,2.77,2.77,0,0,0,5.19,0Z"/><path d="M370.88,44.59a.23.23,0,0,1-.24-.24V37.63c0-1.85-.84-2.93-2.57-2.93a2.58,2.58,0,0,0-2.64,2.8v6.85a.23.23,0,0,1-.24.24h-1.53a.23.23,0,0,1-.24-.24v-11a.22.22,0,0,1,.24-.24h1.53a.22.22,0,0,1,.24.24v1.05h0a3.64,3.64,0,0,1,3.21-1.56c2.5,0,4,1.71,4,4.32v7.21a.23.23,0,0,1-.24.24Z"/><path d="M378.37,44.71c-2.23,0-3.1-1-3.1-3.27V34.86a.13.13,0,0,0-.14-.14h-1a.23.23,0,0,1-.24-.24V33.33a.22.22,0,0,1,.24-.24h1c.09,0,.14-.05.14-.15V29.7a.23.23,0,0,1,.24-.24h1.54a.23.23,0,0,1,.24.24v3.24c0,.1,0,.15.14.15h1.83a.23.23,0,0,1,.24.24v1.15a.23.23,0,0,1-.24.24h-1.83a.13.13,0,0,0-.14.14v6.51c0,1.15.43,1.46,1.46,1.46h.51a.23.23,0,0,1,.24.24v1.4a.23.23,0,0,1-.24.24Z"/><path d="M388.14,44.59a.23.23,0,0,1-.24-.24v-1h0a3.77,3.77,0,0,1-3.41,1.51c-2.18,0-3.86-1.13-3.86-3.46s1.68-3.55,4.49-3.55h2.61c.1,0,.15-.05.15-.14v-.84c0-1.59-.63-2.26-2.76-2.26a4.5,4.5,0,0,0-2.79.82c-.12.09-.26.09-.33,0l-.65-1.1a.26.26,0,0,1,.05-.34,6.36,6.36,0,0,1,3.91-1.13c3.26,0,4.51,1.08,4.51,3.92v7.61a.23.23,0,0,1-.24.24Zm-.29-3.72V39.59c0-.09-.05-.14-.15-.14h-2.3c-2,0-2.86.57-2.86,1.87s.87,1.8,2.4,1.8C386.74,43.12,387.85,42.28,387.85,40.87Z"/><path d="M392.43,44.59a.23.23,0,0,1-.24-.24v-11a.23.23,0,0,1,.24-.24H394a.23.23,0,0,1,.24.24V34.5h0a3.21,3.21,0,0,1,3-1.68,3.51,3.51,0,0,1,2.35.87c.12.12.15.21.05.33l-.89,1.18a.21.21,0,0,1-.33,0,3.23,3.23,0,0,0-1.78-.55c-1.75,0-2.47,1.36-2.47,3.36v6.29a.23.23,0,0,1-.24.24Z"/><path d="M.49,63.92A4.46,4.46,0,0,1,5,60.82a4.62,4.62,0,0,1,3.94,2c.07.12.07.21-.08.33L7.84,64a.22.22,0,0,1-.34,0A2.82,2.82,0,0,0,5,62.7a2.5,2.5,0,0,0-2.57,1.8,10.66,10.66,0,0,0,0,4.68A2.5,2.5,0,0,0,5,71,2.82,2.82,0,0,0,7.5,69.73a.22.22,0,0,1,.34,0l1.05.86c.15.12.15.22.08.34A4.62,4.62,0,0,1,5,72.85a4.45,4.45,0,0,1-4.54-3.1,12,12,0,0,1,0-5.83Z"/><path d="M10.12,69.75a8.42,8.42,0,0,1-.39-2.92,8.4,8.4,0,0,1,.39-2.91,4.43,4.43,0,0,1,4.53-3.1,4.44,4.44,0,0,1,4.54,3.1,8.68,8.68,0,0,1,.38,2.91,8.7,8.7,0,0,1-.38,2.92,4.46,4.46,0,0,1-4.54,3.1A4.46,4.46,0,0,1,10.12,69.75Zm7.13-.57a7.64,7.64,0,0,0,.26-2.35,7.41,7.41,0,0,0-.26-2.33,2.56,2.56,0,0,0-2.6-1.8,2.55,2.55,0,0,0-2.59,1.8,7.41,7.41,0,0,0-.26,2.33,7.64,7.64,0,0,0,.26,2.35A2.56,2.56,0,0,0,14.65,71,2.57,2.57,0,0,0,17.25,69.18Z"/><path d="M28.84,72.59a.23.23,0,0,1-.24-.24V65.63c0-1.85-.84-2.93-2.57-2.93a2.58,2.58,0,0,0-2.64,2.8v6.85a.23.23,0,0,1-.24.24H21.61a.23.23,0,0,1-.24-.24v-11a.23.23,0,0,1,.24-.24h1.54a.23.23,0,0,1,.24.24v1.05h0a3.67,3.67,0,0,1,3.22-1.56c2.5,0,4,1.71,4,4.32v7.21a.23.23,0,0,1-.24.24Z"/><path d="M37,69.73a11.44,11.44,0,0,1,0-5.81,4.45,4.45,0,0,1,4.51-3.1A4.46,4.46,0,0,1,46,63.92a10.08,10.08,0,0,1,.36,3.29.24.24,0,0,1-.27.24H38.82a.12.12,0,0,0-.14.14,4.37,4.37,0,0,0,.19,1.4,2.83,2.83,0,0,0,2.9,2,3.74,3.74,0,0,0,2.95-1.27c.12-.13.25-.15.36,0l1,.88a.22.22,0,0,1,0,.34,5.59,5.59,0,0,1-4.49,2A4.44,4.44,0,0,1,37,69.73Zm7.15-3.89a.13.13,0,0,0,.14-.14,4.06,4.06,0,0,0-.17-1.3,2.84,2.84,0,0,0-5.28,0,4.08,4.08,0,0,0-.16,1.3.12.12,0,0,0,.14.14Z"/><path d="M50.92,72.71c-2,0-2.81-1-2.81-3V56.5a.23.23,0,0,1,.24-.24h1.53a.23.23,0,0,1,.24.24V69.56c0,1,.36,1.27,1.16,1.27h.45a.23.23,0,0,1,.24.24v1.4a.23.23,0,0,1-.24.24Z"/><path d="M57.37,69.73a9,9,0,0,1-.38-2.9,8.93,8.93,0,0,1,.36-2.91,4.83,4.83,0,0,1,9,0,10.08,10.08,0,0,1,.36,3.29.23.23,0,0,1-.26.24H59.2c-.1,0-.15,0-.15.14a4.37,4.37,0,0,0,.19,1.4,2.84,2.84,0,0,0,2.91,2,3.74,3.74,0,0,0,2.95-1.27c.12-.13.24-.15.36,0l1,.88a.22.22,0,0,1,0,.34,5.59,5.59,0,0,1-4.49,2A4.45,4.45,0,0,1,57.37,69.73Zm7.15-3.89c.1,0,.15,0,.15-.14a4.06,4.06,0,0,0-.17-1.3,2.84,2.84,0,0,0-5.28,0,4.06,4.06,0,0,0-.17,1.3c0,.09.05.14.15.14Z"/><path d="M75.73,76.91a.23.23,0,0,1-.24-.24V71.24h0a3.51,3.51,0,0,1-3.27,1.61,3.81,3.81,0,0,1-4-2.76,9.61,9.61,0,0,1-.4-3.26,9.66,9.66,0,0,1,.4-3.25,3.81,3.81,0,0,1,4-2.76,3.5,3.5,0,0,1,3.27,1.59h0V61.33a.23.23,0,0,1,.24-.24h1.54a.23.23,0,0,1,.24.24V76.67a.23.23,0,0,1-.24.24Zm-.5-7.68a7.51,7.51,0,0,0,.26-2.4,7.62,7.62,0,0,0-.26-2.41,2.73,2.73,0,0,0-5.07,0,8.33,8.33,0,0,0-.26,2.41,8.09,8.09,0,0,0,.26,2.4,2.71,2.71,0,0,0,5.07,0Z"/><path d="M87.23,72.59a.23.23,0,0,1-.24-.24V71.27h0a3.49,3.49,0,0,1-3.14,1.58c-2.52,0-4-1.73-4-4.35V61.33a.22.22,0,0,1,.24-.24h1.53a.22.22,0,0,1,.24.24V68c0,1.87.84,3,2.55,3A2.55,2.55,0,0,0,87,68.15V61.33a.22.22,0,0,1,.24-.24h1.53a.22.22,0,0,1,.24.24v11a.23.23,0,0,1-.24.24Z"/><path d="M91.69,58.5a.23.23,0,0,1-.24-.24V56.5a.23.23,0,0,1,.24-.24h1.63a.23.23,0,0,1,.24.24v1.76a.23.23,0,0,1-.24.24Zm0,14.09a.23.23,0,0,1-.24-.24v-11a.22.22,0,0,1,.24-.24h1.54a.23.23,0,0,1,.24.24v11a.23.23,0,0,1-.24.24Z"/><path d="M96.25,76.91a.23.23,0,0,1-.24-.24V61.33a.23.23,0,0,1,.24-.24h1.54a.23.23,0,0,1,.24.24v1.08h0a3.5,3.5,0,0,1,3.27-1.59,3.81,3.81,0,0,1,4,2.76,9.66,9.66,0,0,1,.4,3.25,9.61,9.61,0,0,1-.4,3.26,3.81,3.81,0,0,1-4,2.76,3.51,3.51,0,0,1-3.27-1.61h0v5.43a.23.23,0,0,1-.24.24Zm7.11-7.68a8.09,8.09,0,0,0,.26-2.4,8.33,8.33,0,0,0-.26-2.41,2.73,2.73,0,0,0-5.07,0A7.62,7.62,0,0,0,98,66.83a7.51,7.51,0,0,0,.26,2.4,2.71,2.71,0,0,0,5.07,0Z"/><path d="M107.17,69.75a8.7,8.7,0,0,1-.38-2.92,8.68,8.68,0,0,1,.38-2.91,4.87,4.87,0,0,1,9.07,0,8.4,8.4,0,0,1,.39,2.91,8.42,8.42,0,0,1-.39,2.92,4.87,4.87,0,0,1-9.07,0Zm7.13-.57a7.64,7.64,0,0,0,.26-2.35,7.41,7.41,0,0,0-.26-2.33,2.77,2.77,0,0,0-5.19,0,7.41,7.41,0,0,0-.26,2.33,7.64,7.64,0,0,0,.26,2.35,2.77,2.77,0,0,0,5.19,0Z"/><path d="M123,76.91a.23.23,0,0,1-.24-.24V61.33a.22.22,0,0,1,.24-.24h1.53a.22.22,0,0,1,.24.24v1.08h0a3.48,3.48,0,0,1,3.26-1.59,3.81,3.81,0,0,1,4,2.76,9.63,9.63,0,0,1,.41,3.25,9.58,9.58,0,0,1-.41,3.26,3.81,3.81,0,0,1-4,2.76,3.49,3.49,0,0,1-3.26-1.61h0v5.43a.23.23,0,0,1-.24.24Zm7.1-7.68a8.09,8.09,0,0,0,.26-2.4,8.33,8.33,0,0,0-.26-2.41,2.72,2.72,0,0,0-5.06,0,7.28,7.28,0,0,0-.27,2.41,7.17,7.17,0,0,0,.27,2.4,2.7,2.7,0,0,0,5.06,0Z"/><path d="M141.18,72.59a.23.23,0,0,1-.24-.24v-1h0a3.75,3.75,0,0,1-3.4,1.51c-2.19,0-3.87-1.13-3.87-3.46s1.68-3.55,4.49-3.55h2.62a.13.13,0,0,0,.14-.14v-.84c0-1.59-.62-2.26-2.76-2.26a4.44,4.44,0,0,0-2.78.82.22.22,0,0,1-.34,0l-.65-1.1a.26.26,0,0,1,0-.34,6.38,6.38,0,0,1,3.91-1.13c3.27,0,4.51,1.08,4.51,3.92v7.61a.23.23,0,0,1-.24.24Zm-.29-3.72V67.59a.13.13,0,0,0-.14-.14h-2.31c-2,0-2.85.58-2.85,1.87s.86,1.8,2.4,1.8C139.79,71.12,140.89,70.28,140.89,68.87Z"/><path d="M145.47,72.59a.23.23,0,0,1-.24-.24v-11a.23.23,0,0,1,.24-.24H147a.23.23,0,0,1,.24.24V62.5h0a3.23,3.23,0,0,1,3-1.68,3.51,3.51,0,0,1,2.35.87c.12.12.15.21.05.33l-.89,1.18a.21.21,0,0,1-.33,0,3.23,3.23,0,0,0-1.78-.55c-1.75,0-2.47,1.36-2.47,3.36v6.29a.23.23,0,0,1-.24.24Z"/><path d="M160,72.59a.23.23,0,0,1-.24-.24v-1h0a3.79,3.79,0,0,1-3.41,1.51c-2.19,0-3.87-1.13-3.87-3.46s1.68-3.55,4.49-3.55h2.62a.13.13,0,0,0,.14-.14v-.84c0-1.59-.62-2.26-2.76-2.26a4.46,4.46,0,0,0-2.78.82.22.22,0,0,1-.34,0l-.65-1.1a.26.26,0,0,1,.05-.34,6.38,6.38,0,0,1,3.91-1.13c3.27,0,4.52,1.08,4.52,3.92v7.61a.23.23,0,0,1-.24.24Zm-.29-3.72V67.59a.13.13,0,0,0-.14-.14h-2.31c-2,0-2.85.58-2.85,1.87s.86,1.8,2.4,1.8C158.63,71.12,159.73,70.28,159.73,68.87Z"/><path d="M171.73,72.71c-2.23,0-3.1-1-3.1-3.27V62.86a.12.12,0,0,0-.14-.14h-1a.23.23,0,0,1-.24-.24V61.33a.23.23,0,0,1,.24-.24h1c.1,0,.14-.05.14-.15V57.7a.23.23,0,0,1,.24-.24h1.54a.23.23,0,0,1,.24.24v3.24c0,.1,0,.15.14.15h1.83a.23.23,0,0,1,.24.24v1.15a.23.23,0,0,1-.24.24h-1.83a.13.13,0,0,0-.14.14v6.51c0,1.15.43,1.46,1.46,1.46h.51a.23.23,0,0,1,.24.24v1.4a.23.23,0,0,1-.24.24Z"/><path d="M174.78,72.59a.23.23,0,0,1-.24-.24v-11a.22.22,0,0,1,.24-.24h1.53a.22.22,0,0,1,.24.24V62.5h0a3.2,3.2,0,0,1,3-1.68,3.53,3.53,0,0,1,2.35.87c.12.12.14.21.05.33l-.89,1.18a.23.23,0,0,1-.34,0A3.17,3.17,0,0,0,179,62.7c-1.75,0-2.48,1.36-2.48,3.36v6.29a.23.23,0,0,1-.24.24Z"/><path d="M189.32,72.59a.23.23,0,0,1-.24-.24v-1h0a3.79,3.79,0,0,1-3.41,1.51c-2.18,0-3.86-1.13-3.86-3.46s1.68-3.55,4.48-3.55h2.62a.12.12,0,0,0,.14-.14v-.84c0-1.59-.62-2.26-2.76-2.26a4.46,4.46,0,0,0-2.78.82.22.22,0,0,1-.34,0l-.64-1.1a.26.26,0,0,1,0-.34,6.42,6.42,0,0,1,3.92-1.13c3.26,0,4.51,1.08,4.51,3.92v7.61a.23.23,0,0,1-.24.24ZM189,68.87V67.59a.12.12,0,0,0-.14-.14h-2.3c-2,0-2.86.58-2.86,1.87s.86,1.8,2.4,1.8C187.93,71.12,189,70.28,189,68.87Z"/><path d="M193.62,72.59a.23.23,0,0,1-.24-.24V56.5a.23.23,0,0,1,.24-.24h1.53a.23.23,0,0,1,.24.24v5.91h0a3.48,3.48,0,0,1,3.26-1.59,3.8,3.8,0,0,1,4,2.76,9.63,9.63,0,0,1,.41,3.25,9.58,9.58,0,0,1-.41,3.26,3.8,3.8,0,0,1-4,2.76,3.49,3.49,0,0,1-3.26-1.61h0v1.11a.23.23,0,0,1-.24.24Zm7.1-3.36a8,8,0,0,0,.27-2.4,8.29,8.29,0,0,0-.27-2.41,2.72,2.72,0,0,0-5.06,0,7.56,7.56,0,0,0-.27,2.41,7.45,7.45,0,0,0,.27,2.4,2.7,2.7,0,0,0,5.06,0Z"/><path d="M211.81,72.59a.23.23,0,0,1-.24-.24v-1h0a3.79,3.79,0,0,1-3.41,1.51c-2.19,0-3.87-1.13-3.87-3.46s1.68-3.55,4.49-3.55h2.62a.13.13,0,0,0,.14-.14v-.84c0-1.59-.62-2.26-2.76-2.26a4.46,4.46,0,0,0-2.78.82.22.22,0,0,1-.34,0l-.65-1.1a.27.27,0,0,1,0-.34A6.4,6.4,0,0,1,209,60.82c3.27,0,4.52,1.08,4.52,3.92v7.61a.23.23,0,0,1-.24.24Zm-.29-3.72V67.59a.13.13,0,0,0-.14-.14h-2.31c-2,0-2.85.58-2.85,1.87s.86,1.8,2.4,1.8C210.42,71.12,211.52,70.28,211.52,68.87Z"/><path d="M214,76.91a.23.23,0,0,1-.24-.24v-1.4A.23.23,0,0,1,214,75h.38c1.13,0,1.52-.31,1.52-1.53V61.33a.22.22,0,0,1,.24-.24h1.53a.22.22,0,0,1,.24.24V73.45c0,2.47-1.1,3.46-3.43,3.46Zm2.09-18.41a.23.23,0,0,1-.24-.24V56.5a.23.23,0,0,1,.24-.24h1.63a.23.23,0,0,1,.24.24v1.76a.23.23,0,0,1-.24.24Z"/><path d="M220.07,69.75a8.42,8.42,0,0,1-.39-2.92,8.4,8.4,0,0,1,.39-2.91,4.87,4.87,0,0,1,9.07,0,8.68,8.68,0,0,1,.38,2.91,8.7,8.7,0,0,1-.38,2.92,4.87,4.87,0,0,1-9.07,0Zm7.13-.57a7.64,7.64,0,0,0,.26-2.35,7.41,7.41,0,0,0-.26-2.33,2.77,2.77,0,0,0-5.19,0,7.41,7.41,0,0,0-.26,2.33,7.64,7.64,0,0,0,.26,2.35,2.77,2.77,0,0,0,5.19,0Z"/><path d="M235.33,69.73a9,9,0,0,1-.38-2.9,8.93,8.93,0,0,1,.36-2.91,4.83,4.83,0,0,1,9,0,10.08,10.08,0,0,1,.36,3.29.24.24,0,0,1-.26.24h-7.28a.13.13,0,0,0-.14.14,4.37,4.37,0,0,0,.19,1.4,2.84,2.84,0,0,0,2.91,2,3.77,3.77,0,0,0,2.95-1.27c.12-.13.24-.15.36,0l1,.88a.22.22,0,0,1,0,.34,5.62,5.62,0,0,1-4.49,2A4.45,4.45,0,0,1,235.33,69.73Zm7.15-3.89c.1,0,.15,0,.15-.14a4.06,4.06,0,0,0-.17-1.3,2.84,2.84,0,0,0-5.28,0,4.06,4.06,0,0,0-.17,1.3.13.13,0,0,0,.14.14Z"/><path d="M254,72.59a.23.23,0,0,1-.24-.24V65.63c0-1.85-.84-2.93-2.56-2.93a2.58,2.58,0,0,0-2.64,2.8v6.85a.23.23,0,0,1-.24.24h-1.54a.23.23,0,0,1-.24-.24v-11a.23.23,0,0,1,.24-.24h1.54a.23.23,0,0,1,.24.24v1.05h0a3.66,3.66,0,0,1,3.22-1.56c2.49,0,4,1.71,4,4.32v7.21a.23.23,0,0,1-.24.24Z"/><path d="M269.39,72.59a.23.23,0,0,1-.24-.24v-1h0a3.77,3.77,0,0,1-3.41,1.51c-2.18,0-3.86-1.13-3.86-3.46s1.68-3.55,4.49-3.55H269c.1,0,.15,0,.15-.14v-.84c0-1.59-.63-2.26-2.76-2.26a4.48,4.48,0,0,0-2.79.82c-.12.09-.26.09-.33,0l-.65-1.1a.26.26,0,0,1,.05-.34,6.36,6.36,0,0,1,3.91-1.13c3.26,0,4.51,1.08,4.51,3.92v7.61a.23.23,0,0,1-.24.24Zm-.29-3.72V67.59c0-.09-.05-.14-.15-.14h-2.3c-2,0-2.86.58-2.86,1.87s.87,1.8,2.4,1.8C268,71.12,269.1,70.28,269.1,68.87Z"/><path d="M276.2,72.71c-2,0-2.81-1-2.81-3V56.5a.23.23,0,0,1,.24-.24h1.54a.23.23,0,0,1,.24.24V69.56c0,1,.36,1.27,1.15,1.27H277a.23.23,0,0,1,.24.24v1.4a.23.23,0,0,1-.24.24Z"/><path d="M281.87,72.71c-2.24,0-3.1-1-3.1-3.27V62.86c0-.09,0-.14-.15-.14h-1a.22.22,0,0,1-.23-.24V61.33a.22.22,0,0,1,.23-.24h1a.13.13,0,0,0,.15-.15V57.7a.23.23,0,0,1,.24-.24h1.54a.23.23,0,0,1,.24.24v3.24c0,.1,0,.15.14.15h1.82a.22.22,0,0,1,.24.24v1.15a.23.23,0,0,1-.24.24h-1.82a.12.12,0,0,0-.14.14v6.51c0,1.15.43,1.46,1.46,1.46h.5a.23.23,0,0,1,.24.24v1.4a.23.23,0,0,1-.24.24Z"/><path d="M291.9,72.59a.23.23,0,0,1-.24-.24V71.27h0a3.49,3.49,0,0,1-3.14,1.58c-2.52,0-4-1.73-4-4.35V61.33a.22.22,0,0,1,.23-.24h1.54a.22.22,0,0,1,.24.24V68c0,1.87.84,3,2.55,3a2.55,2.55,0,0,0,2.59-2.83V61.33a.22.22,0,0,1,.24-.24h1.53a.22.22,0,0,1,.24.24v11a.23.23,0,0,1-.24.24Z"/><path d="M296.41,72.59a.23.23,0,0,1-.24-.24v-11a.22.22,0,0,1,.24-.24h1.53a.22.22,0,0,1,.24.24V62.5h0a3.2,3.2,0,0,1,3.05-1.68,3.53,3.53,0,0,1,2.35.87c.12.12.14.21.05.33l-.89,1.18a.23.23,0,0,1-.34,0,3.17,3.17,0,0,0-1.77-.55c-1.75,0-2.48,1.36-2.48,3.36v6.29a.23.23,0,0,1-.24.24Z"/><path d="M311,72.59a.23.23,0,0,1-.24-.24v-1h0a3.79,3.79,0,0,1-3.41,1.51c-2.18,0-3.86-1.13-3.86-3.46s1.68-3.55,4.49-3.55h2.61c.1,0,.15,0,.15-.14v-.84c0-1.59-.63-2.26-2.76-2.26a4.48,4.48,0,0,0-2.79.82.22.22,0,0,1-.34,0l-.64-1.1a.26.26,0,0,1,0-.34,6.42,6.42,0,0,1,3.92-1.13c3.26,0,4.51,1.08,4.51,3.92v7.61a.23.23,0,0,1-.24.24Zm-.28-3.72V67.59c0-.09-.05-.14-.15-.14h-2.3c-2,0-2.86.58-2.86,1.87s.86,1.8,2.4,1.8C309.56,71.12,310.67,70.28,310.67,68.87Z"/><path d="M314.22,71.12a.22.22,0,0,1,0-.33l1-1.06a.23.23,0,0,1,.34,0,5.6,5.6,0,0,0,3.55,1.32c1.68,0,2.52-.72,2.52-1.75s-.43-1.42-2.23-1.61l-1.23-.12c-2.25-.24-3.43-1.37-3.43-3.24,0-2.19,1.56-3.51,4.27-3.51a6.88,6.88,0,0,1,4.08,1.28.23.23,0,0,1,.05.33l-.81,1a.24.24,0,0,1-.34,0,6,6,0,0,0-3.1-.93c-1.44,0-2.18.64-2.18,1.58s.55,1.39,2.26,1.56l1.2.12c2.32.22,3.45,1.39,3.45,3.24,0,2.26-1.63,3.77-4.63,3.77A7.11,7.11,0,0,1,314.22,71.12Z"/><path d="M325,70.28a.23.23,0,0,1,.24-.24h1.82a.23.23,0,0,1,.24.24v2.07a.23.23,0,0,1-.24.24h-1.82a.23.23,0,0,1-.24-.24Z"/></g></g></svg>