<svg xmlns="http://www.w3.org/2000/svg" viewBox="0 0 391.4 77.17"><title>11c</title><g id="Capa_2" data-name="Capa 2"><g id="answer_copia" data-name="answer copia"><path d="M.61,14.81a.26.26,0,0,1,0-.36L1.65,13.2a.21.21,0,0,1,.33,0,7.53,7.53,0,0,0,4.56,1.68c2.26,0,3.6-1.13,3.6-2.79,0-1.39-.79-2.32-3.4-2.66l-.82-.12c-3.17-.43-4.8-1.95-4.8-4.51C1.12,1.87,3.21,0,6.45,0a8.65,8.65,0,0,1,5,1.51.22.22,0,0,1,0,.34l-.81,1.32a.24.24,0,0,1-.34.05A7.19,7.19,0,0,0,6.37,2c-2,0-3.09,1.08-3.09,2.64,0,1.37.91,2.28,3.43,2.62l.79.12c3.2.43,4.8,1.89,4.8,4.56,0,2.86-2,4.92-6,4.92A9,9,0,0,1,.61,14.81Z"/><path d="M13.33,2.5a.23.23,0,0,1-.24-.24V.5a.23.23,0,0,1,.24-.24H15a.23.23,0,0,1,.24.24V2.26A.23.23,0,0,1,15,2.5Zm.05,14.09a.23.23,0,0,1-.24-.24v-11a.23.23,0,0,1,.24-.24h1.54a.23.23,0,0,1,.24.24v11a.23.23,0,0,1-.24.24Z"/><path d="M19.72,7.92a4.46,4.46,0,0,1,4.53-3.1,4.61,4.61,0,0,1,3.94,1.95c.07.12.07.21-.07.33L27.06,8a.21.21,0,0,1-.33,0A2.83,2.83,0,0,0,24.25,6.7a2.49,2.49,0,0,0-2.56,1.8,7.39,7.39,0,0,0-.27,2.33,7.45,7.45,0,0,0,.27,2.35A2.49,2.49,0,0,0,24.25,15a2.84,2.84,0,0,0,2.48-1.25.21.21,0,0,1,.33,0l1.06.86a.23.23,0,0,1,.07.34,4.6,4.6,0,0,1-3.94,1.94,4.45,4.45,0,0,1-4.53-3.1,9.74,9.74,0,0,1-.36-2.92A9.76,9.76,0,0,1,19.72,7.92Z"/><path d="M36.21,16.59a.23.23,0,0,1-.24-.24V15.27h0a3.49,3.49,0,0,1-3.14,1.58c-2.52,0-4-1.73-4-4.35V5.33a.23.23,0,0,1,.24-.24h1.54a.23.23,0,0,1,.24.24V12c0,1.88.84,3,2.54,3A2.56,2.56,0,0,0,36,12.15V5.33a.22.22,0,0,1,.24-.24h1.53a.22.22,0,0,1,.24.24v11a.23.23,0,0,1-.24.24Z"/><path d="M39.2,13.73a9,9,0,0,1-.38-2.9,8.93,8.93,0,0,1,.36-2.91,4.45,4.45,0,0,1,4.51-3.1,4.46,4.46,0,0,1,4.52,3.1,10.08,10.08,0,0,1,.36,3.29.24.24,0,0,1-.27.24H41a.12.12,0,0,0-.14.14,4.37,4.37,0,0,0,.19,1.4A2.83,2.83,0,0,0,44,15a3.74,3.74,0,0,0,3-1.27c.12-.13.24-.15.36-.05l1,.89a.21.21,0,0,1,0,.33,5.59,5.59,0,0,1-4.49,2A4.46,4.46,0,0,1,39.2,13.73Zm7.16-3.89a.13.13,0,0,0,.14-.14,4.06,4.06,0,0,0-.17-1.3,2.84,2.84,0,0,0-5.28,0,4.08,4.08,0,0,0-.16,1.3.12.12,0,0,0,.14.14Z"/><path d="M56.87,16.59a.23.23,0,0,1-.24-.24V9.63c0-1.85-.84-2.93-2.57-2.93a2.58,2.58,0,0,0-2.64,2.8v6.85a.23.23,0,0,1-.24.24H49.64a.23.23,0,0,1-.24-.24v-11a.23.23,0,0,1,.24-.24h1.54a.23.23,0,0,1,.24.24v1h0a3.67,3.67,0,0,1,3.22-1.56c2.5,0,4,1.71,4,4.32v7.21a.23.23,0,0,1-.24.24Z"/><path d="M63.4,16.71c-2.24,0-3.1-1-3.1-3.27V6.86a.13.13,0,0,0-.14-.14h-1A.23.23,0,0,1,59,6.48V5.33a.22.22,0,0,1,.24-.24h1c.09,0,.14,0,.14-.15V1.7a.23.23,0,0,1,.24-.24h1.54a.23.23,0,0,1,.24.24V4.94c0,.1,0,.15.14.15h1.82a.22.22,0,0,1,.24.24V6.48a.23.23,0,0,1-.24.24H62.46a.12.12,0,0,0-.14.14v6.51c0,1.15.43,1.46,1.46,1.46h.5a.23.23,0,0,1,.24.24v1.4a.23.23,0,0,1-.24.24Z"/><path d="M72.2,16.59a.23.23,0,0,1-.24-.24v-1h0a3.79,3.79,0,0,1-3.41,1.51c-2.18,0-3.86-1.13-3.86-3.46s1.68-3.55,4.49-3.55h2.61c.1,0,.15-.05.15-.14V8.86c0-1.59-.63-2.26-2.76-2.26a4.48,4.48,0,0,0-2.79.82c-.12.09-.26.09-.33,0l-.65-1.1a.26.26,0,0,1,0-.34,6.36,6.36,0,0,1,3.91-1.13c3.26,0,4.51,1.08,4.51,3.92v7.61a.23.23,0,0,1-.24.24Zm-.28-3.72V11.59c0-.09,0-.14-.15-.14h-2.3c-2,0-2.86.57-2.86,1.87s.87,1.8,2.4,1.8C70.81,15.12,71.92,14.28,71.92,12.87Z"/><path d="M78.32,7.92a4.46,4.46,0,0,1,4.54-3.1A4.62,4.62,0,0,1,86.8,6.77c.07.12.07.21-.08.33l-1,.87a.22.22,0,0,1-.34,0A2.82,2.82,0,0,0,82.86,6.7a2.5,2.5,0,0,0-2.57,1.8A7.75,7.75,0,0,0,80,10.83a7.81,7.81,0,0,0,.26,2.35A2.5,2.5,0,0,0,82.86,15a2.82,2.82,0,0,0,2.47-1.25.22.22,0,0,1,.34,0l1,.86c.15.12.15.22.08.34a4.62,4.62,0,0,1-3.94,1.94,4.45,4.45,0,0,1-4.54-3.1A10.08,10.08,0,0,1,78,10.83,10.1,10.1,0,0,1,78.32,7.92Z"/><path d="M87,13.75a8.42,8.42,0,0,1-.39-2.92A8.4,8.4,0,0,1,87,7.92a4.87,4.87,0,0,1,9.07,0,8.43,8.43,0,0,1,.38,2.91,8.45,8.45,0,0,1-.38,2.92,4.87,4.87,0,0,1-9.07,0Zm7.13-.57a7.64,7.64,0,0,0,.26-2.35,7.41,7.41,0,0,0-.26-2.33,2.77,2.77,0,0,0-5.19,0,7.41,7.41,0,0,0-.26,2.33,7.64,7.64,0,0,0,.26,2.35,2.77,2.77,0,0,0,5.19,0Z"/><path d="M104.75,16.59a.23.23,0,0,1-.24-.24V9.63c0-1.85-.84-2.93-2.57-2.93A2.58,2.58,0,0,0,99.3,9.5v6.85a.23.23,0,0,1-.24.24H97.52a.23.23,0,0,1-.24-.24v-11a.23.23,0,0,1,.24-.24h1.54a.23.23,0,0,1,.24.24v1h0a3.67,3.67,0,0,1,3.22-1.56c2.5,0,4,1.71,4,4.32v7.21a.23.23,0,0,1-.24.24Z"/><path d="M114.06,16.71c-2,0-2.81-1-2.81-3V.5a.23.23,0,0,1,.24-.24H113a.23.23,0,0,1,.24.24V13.56c0,1,.36,1.27,1.15,1.27h.46a.23.23,0,0,1,.24.24v1.4a.23.23,0,0,1-.24.24Z"/><path d="M115.23,13.75a8.7,8.7,0,0,1-.38-2.92,8.68,8.68,0,0,1,.38-2.91,4.87,4.87,0,0,1,9.08,0,8.68,8.68,0,0,1,.38,2.91,8.7,8.7,0,0,1-.38,2.92,4.87,4.87,0,0,1-9.08,0Zm7.13-.57a7.29,7.29,0,0,0,.27-2.35,7.08,7.08,0,0,0-.27-2.33,2.76,2.76,0,0,0-5.18,0,7.36,7.36,0,0,0-.27,2.33,7.59,7.59,0,0,0,.27,2.35,2.76,2.76,0,0,0,5.18,0Z"/><path d="M124.74,15.12a.22.22,0,0,1,0-.33l1-1.06a.23.23,0,0,1,.34,0,5.6,5.6,0,0,0,3.55,1.32c1.68,0,2.52-.72,2.52-1.75s-.43-1.42-2.23-1.61l-1.23-.12c-2.25-.24-3.43-1.37-3.43-3.24,0-2.19,1.56-3.51,4.28-3.51A6.88,6.88,0,0,1,133.6,6.1a.22.22,0,0,1,0,.33l-.81,1a.24.24,0,0,1-.34,0,6,6,0,0,0-3.1-.93c-1.44,0-2.18.64-2.18,1.58s.55,1.39,2.26,1.56l1.2.12c2.33.22,3.45,1.39,3.45,3.24,0,2.26-1.63,3.77-4.63,3.77A7.11,7.11,0,0,1,124.74,15.12Z"/><path d="M137.94,13.73a8.94,8.94,0,0,1-.39-2.9,8.93,8.93,0,0,1,.36-2.91,4.84,4.84,0,0,1,9,0,10.08,10.08,0,0,1,.36,3.29.24.24,0,0,1-.27.24h-7.27a.13.13,0,0,0-.14.14,4.37,4.37,0,0,0,.19,1.4,2.84,2.84,0,0,0,2.9,2,3.78,3.78,0,0,0,3-1.27c.12-.13.24-.15.36-.05l1,.89a.21.21,0,0,1,0,.33,5.59,5.59,0,0,1-4.48,2A4.45,4.45,0,0,1,137.94,13.73Zm7.15-3.89a.12.12,0,0,0,.14-.14,4.08,4.08,0,0,0-.16-1.3,2.84,2.84,0,0,0-5.28,0,4.06,4.06,0,0,0-.17,1.3.13.13,0,0,0,.14.14Z"/><path d="M155.34,20.91a.23.23,0,0,1-.24-.24V15.24h0a3.49,3.49,0,0,1-3.26,1.61,3.81,3.81,0,0,1-4-2.76,9.58,9.58,0,0,1-.41-3.26,9.63,9.63,0,0,1,.41-3.25,3.81,3.81,0,0,1,4-2.76,3.48,3.48,0,0,1,3.26,1.59h0V5.33a.22.22,0,0,1,.24-.24h1.53a.22.22,0,0,1,.24.24V20.67a.23.23,0,0,1-.24.24Zm-.51-7.68a7.17,7.17,0,0,0,.27-2.4,7.28,7.28,0,0,0-.27-2.41,2.72,2.72,0,0,0-5.06,0,8.33,8.33,0,0,0-.26,2.41,8.09,8.09,0,0,0,.26,2.4,2.7,2.7,0,0,0,5.06,0Z"/><path d="M165.87,16.59a.23.23,0,0,1-.24-.24V15.27h0a3.51,3.51,0,0,1-3.14,1.58c-2.52,0-4-1.73-4-4.35V5.33a.23.23,0,0,1,.24-.24h1.54a.23.23,0,0,1,.24.24V12c0,1.88.84,3,2.54,3a2.55,2.55,0,0,0,2.59-2.83V5.33a.23.23,0,0,1,.24-.24h1.54a.22.22,0,0,1,.24.24v11a.23.23,0,0,1-.24.24Z"/><path d="M169.38,2.5a.23.23,0,0,1-.24-.24V.5a.23.23,0,0,1,.24-.24H171a.23.23,0,0,1,.24.24V2.26a.23.23,0,0,1-.24.24Zm.05,14.09a.23.23,0,0,1-.24-.24v-11a.22.22,0,0,1,.24-.24H171a.22.22,0,0,1,.24.24v11a.23.23,0,0,1-.24.24Z"/><path d="M173,20.91a.23.23,0,0,1-.24-.24V5.33a.22.22,0,0,1,.24-.24h1.53a.22.22,0,0,1,.24.24V6.41h0A3.48,3.48,0,0,1,178,4.82a3.8,3.8,0,0,1,4,2.76,9.63,9.63,0,0,1,.41,3.25,9.58,9.58,0,0,1-.41,3.26,3.8,3.8,0,0,1-4,2.76,3.49,3.49,0,0,1-3.26-1.61h0v5.43a.23.23,0,0,1-.24.24Zm7.1-7.68a8,8,0,0,0,.27-2.4,8.29,8.29,0,0,0-.27-2.41,2.72,2.72,0,0,0-5.06,0,7.56,7.56,0,0,0-.27,2.41,7.45,7.45,0,0,0,.27,2.4,2.7,2.7,0,0,0,5.06,0Z"/><path d="M182.94,13.75a8.42,8.42,0,0,1-.39-2.92,8.4,8.4,0,0,1,.39-2.91,4.87,4.87,0,0,1,9.07,0,8.68,8.68,0,0,1,.38,2.91,8.7,8.7,0,0,1-.38,2.92,4.87,4.87,0,0,1-9.07,0Zm7.13-.57a7.64,7.64,0,0,0,.26-2.35,7.41,7.41,0,0,0-.26-2.33,2.77,2.77,0,0,0-5.19,0,7.41,7.41,0,0,0-.26,2.33,7.64,7.64,0,0,0,.26,2.35,2.77,2.77,0,0,0,5.19,0Z"/><path d="M192.44,15.12a.22.22,0,0,1,0-.33l1-1.06a.23.23,0,0,1,.34,0,5.6,5.6,0,0,0,3.55,1.32c1.68,0,2.52-.72,2.52-1.75s-.43-1.42-2.23-1.61l-1.22-.12c-2.26-.24-3.44-1.37-3.44-3.24,0-2.19,1.56-3.51,4.28-3.51A6.88,6.88,0,0,1,201.3,6.1a.23.23,0,0,1,0,.33l-.82,1a.24.24,0,0,1-.34,0,6,6,0,0,0-3.09-.93c-1.44,0-2.19.64-2.19,1.58s.55,1.39,2.26,1.56l1.2.12c2.33.22,3.46,1.39,3.46,3.24,0,2.26-1.64,3.77-4.64,3.77A7.13,7.13,0,0,1,192.44,15.12Z"/><path d="M212.91,16.59a.23.23,0,0,1-.24-.24v-1h0a3.79,3.79,0,0,1-3.41,1.51c-2.18,0-3.86-1.13-3.86-3.46s1.68-3.55,4.48-3.55h2.62a.12.12,0,0,0,.14-.14V8.86c0-1.59-.62-2.26-2.76-2.26a4.46,4.46,0,0,0-2.78.82.22.22,0,0,1-.34,0l-.64-1.1a.26.26,0,0,1,0-.34,6.42,6.42,0,0,1,3.92-1.13c3.26,0,4.51,1.08,4.51,3.92v7.61a.23.23,0,0,1-.24.24Zm-.29-3.72V11.59a.12.12,0,0,0-.14-.14h-2.3c-2,0-2.86.57-2.86,1.87s.86,1.8,2.4,1.8C211.52,15.12,212.62,14.28,212.62,12.87Z"/><path d="M223.21,16.59a.23.23,0,0,1-.24-.24V15.24h0a3.52,3.52,0,0,1-3.27,1.61,3.81,3.81,0,0,1-4-2.76,9.58,9.58,0,0,1-.41-3.26,9.63,9.63,0,0,1,.41-3.25,3.81,3.81,0,0,1,4-2.76A3.51,3.51,0,0,1,223,6.41h0V.5a.23.23,0,0,1,.24-.24h1.54A.23.23,0,0,1,225,.5V16.35a.23.23,0,0,1-.24.24Zm-.51-3.36a7.17,7.17,0,0,0,.27-2.4,7.28,7.28,0,0,0-.27-2.41,2.72,2.72,0,0,0-5.06,0,8.33,8.33,0,0,0-.26,2.41,8.09,8.09,0,0,0,.26,2.4,2.7,2.7,0,0,0,5.06,0Z"/><path d="M226.21,13.73a8.94,8.94,0,0,1-.39-2.9,8.93,8.93,0,0,1,.36-2.91,4.84,4.84,0,0,1,9,0,10.08,10.08,0,0,1,.36,3.29.24.24,0,0,1-.26.24H228a.13.13,0,0,0-.14.14,4.37,4.37,0,0,0,.19,1.4,2.84,2.84,0,0,0,2.9,2,3.78,3.78,0,0,0,3-1.27c.12-.13.24-.15.36-.05l1,.89a.21.21,0,0,1,0,.33,5.62,5.62,0,0,1-4.49,2A4.45,4.45,0,0,1,226.21,13.73Zm7.15-3.89a.12.12,0,0,0,.14-.14,4.08,4.08,0,0,0-.16-1.3,2.84,2.84,0,0,0-5.28,0,4.06,4.06,0,0,0-.17,1.3.13.13,0,0,0,.14.14Z"/><path d="M236.07,7.92a4.46,4.46,0,0,1,4.54-3.1,4.64,4.64,0,0,1,3.94,1.95c.07.12.07.21-.08.33L243.42,8a.22.22,0,0,1-.34,0,2.82,2.82,0,0,0-2.47-1.24A2.49,2.49,0,0,0,238,8.5a7.75,7.75,0,0,0-.26,2.33,7.81,7.81,0,0,0,.26,2.35,2.49,2.49,0,0,0,2.57,1.8,2.82,2.82,0,0,0,2.47-1.25.22.22,0,0,1,.34,0l1.05.86c.15.12.15.22.08.34a4.63,4.63,0,0,1-3.94,1.94,4.45,4.45,0,0,1-4.54-3.1,10.08,10.08,0,0,1-.36-2.92A10.1,10.1,0,0,1,236.07,7.92Z"/><path d="M252.56,16.59a.23.23,0,0,1-.24-.24V15.27h0a3.51,3.51,0,0,1-3.15,1.58c-2.52,0-4-1.73-4-4.35V5.33a.22.22,0,0,1,.24-.24h1.53a.22.22,0,0,1,.24.24V12c0,1.88.84,3,2.55,3a2.55,2.55,0,0,0,2.59-2.83V5.33a.23.23,0,0,1,.24-.24h1.54a.23.23,0,0,1,.24.24v11a.23.23,0,0,1-.24.24Z"/><path d="M262.83,16.59a.23.23,0,0,1-.24-.24v-1h0a3.79,3.79,0,0,1-3.41,1.51c-2.18,0-3.86-1.13-3.86-3.46s1.68-3.55,4.48-3.55h2.62a.12.12,0,0,0,.14-.14V8.86c0-1.59-.62-2.26-2.76-2.26a4.46,4.46,0,0,0-2.78.82.22.22,0,0,1-.34,0L256,6.29a.26.26,0,0,1,0-.34A6.42,6.42,0,0,1,260,4.82c3.26,0,4.51,1.08,4.51,3.92v7.61a.23.23,0,0,1-.24.24Zm-.29-3.72V11.59a.12.12,0,0,0-.14-.14h-2.3c-2,0-2.86.57-2.86,1.87s.86,1.8,2.4,1.8C261.44,15.12,262.54,14.28,262.54,12.87Z"/><path d="M273.13,16.59a.23.23,0,0,1-.24-.24V15.24h0a3.52,3.52,0,0,1-3.27,1.61,3.81,3.81,0,0,1-4-2.76,9.58,9.58,0,0,1-.41-3.26,9.63,9.63,0,0,1,.41-3.25,3.81,3.81,0,0,1,4-2.76,3.51,3.51,0,0,1,3.27,1.59h0V.5a.23.23,0,0,1,.24-.24h1.54a.23.23,0,0,1,.24.24V16.35a.23.23,0,0,1-.24.24Zm-.51-3.36a7.17,7.17,0,0,0,.27-2.4,7.28,7.28,0,0,0-.27-2.41,2.72,2.72,0,0,0-5.06,0,8.33,8.33,0,0,0-.26,2.41,8.09,8.09,0,0,0,.26,2.4,2.7,2.7,0,0,0,5.06,0Z"/><path d="M276.13,13.75a8.42,8.42,0,0,1-.39-2.92,8.4,8.4,0,0,1,.39-2.91,4.87,4.87,0,0,1,9.07,0,8.68,8.68,0,0,1,.38,2.91,8.7,8.7,0,0,1-.38,2.92,4.87,4.87,0,0,1-9.07,0Zm7.13-.57a7.64,7.64,0,0,0,.26-2.35,7.41,7.41,0,0,0-.26-2.33,2.77,2.77,0,0,0-5.19,0,7.41,7.41,0,0,0-.26,2.33,7.64,7.64,0,0,0,.26,2.35,2.77,2.77,0,0,0,5.19,0Z"/><path d="M285.63,15.12a.24.24,0,0,1,0-.33l1-1.06a.22.22,0,0,1,.33,0,5.62,5.62,0,0,0,3.55,1.32c1.68,0,2.52-.72,2.52-1.75s-.43-1.42-2.23-1.61l-1.22-.12c-2.26-.24-3.43-1.37-3.43-3.24,0-2.19,1.56-3.51,4.27-3.51a6.88,6.88,0,0,1,4.08,1.28.23.23,0,0,1,.05.33l-.82,1a.24.24,0,0,1-.34,0,6,6,0,0,0-3.09-.93c-1.44,0-2.19.64-2.19,1.58s.56,1.39,2.26,1.56l1.2.12c2.33.22,3.46,1.39,3.46,3.24,0,2.26-1.64,3.77-4.64,3.77A7.13,7.13,0,0,1,285.63,15.12Z"/><path d="M299.38,20.91a.23.23,0,0,1-.24-.24V5.33a.23.23,0,0,1,.24-.24h1.54a.23.23,0,0,1,.24.24V6.41h0a3.51,3.51,0,0,1,3.27-1.59,3.81,3.81,0,0,1,4,2.76,9.63,9.63,0,0,1,.41,3.25,9.58,9.58,0,0,1-.41,3.26,3.81,3.81,0,0,1-4,2.76,3.52,3.52,0,0,1-3.27-1.61h0v5.43a.23.23,0,0,1-.24.24Zm7.11-7.68a8.09,8.09,0,0,0,.26-2.4,8.33,8.33,0,0,0-.26-2.41,2.73,2.73,0,0,0-5.07,0,7.62,7.62,0,0,0-.26,2.41,7.51,7.51,0,0,0,.26,2.4,2.71,2.71,0,0,0,5.07,0Z"/><path d="M316.62,16.59a.23.23,0,0,1-.24-.24v-1h0a3.77,3.77,0,0,1-3.41,1.51c-2.18,0-3.86-1.13-3.86-3.46s1.68-3.55,4.49-3.55h2.61c.1,0,.15-.05.15-.14V8.86c0-1.59-.63-2.26-2.76-2.26a4.5,4.5,0,0,0-2.79.82c-.12.09-.26.09-.33,0l-.65-1.1a.26.26,0,0,1,.05-.34,6.38,6.38,0,0,1,3.91-1.13c3.26,0,4.51,1.08,4.51,3.92v7.61a.23.23,0,0,1-.24.24Zm-.29-3.72V11.59c0-.09-.05-.14-.15-.14h-2.3c-2,0-2.86.57-2.86,1.87s.87,1.8,2.4,1.8C315.22,15.12,316.33,14.28,316.33,12.87Z"/><path d="M320,16.59a.23.23,0,0,1-.24-.24v-11a.23.23,0,0,1,.24-.24h1.54a.23.23,0,0,1,.24.24V6.5h0a3.2,3.2,0,0,1,3.05-1.68,3.51,3.51,0,0,1,2.35.87c.12.12.15.21.05.33l-.89,1.18a.21.21,0,0,1-.33,0,3.23,3.23,0,0,0-1.78-.55c-1.75,0-2.47,1.36-2.47,3.36v6.29a.23.23,0,0,1-.24.24Z"/><path d="M333.54,16.59a.23.23,0,0,1-.24-.24v-1h0a3.77,3.77,0,0,1-3.41,1.51c-2.18,0-3.86-1.13-3.86-3.46s1.68-3.55,4.49-3.55h2.61c.1,0,.15-.05.15-.14V8.86c0-1.59-.63-2.26-2.76-2.26a4.5,4.5,0,0,0-2.79.82c-.12.09-.26.09-.33,0l-.65-1.1a.26.26,0,0,1,0-.34,6.38,6.38,0,0,1,3.91-1.13c3.26,0,4.51,1.08,4.51,3.92v7.61a.23.23,0,0,1-.24.24Zm-.29-3.72V11.59c0-.09-.05-.14-.15-.14h-2.3c-2,0-2.86.57-2.86,1.87s.87,1.8,2.4,1.8C332.14,15.12,333.25,14.28,333.25,12.87Z"/><path d="M342.75,16.71c-2,0-2.81-1-2.81-3V.5a.23.23,0,0,1,.24-.24h1.54A.23.23,0,0,1,342,.5V13.56c0,1,.36,1.27,1.15,1.27h.46a.23.23,0,0,1,.24.24v1.4a.23.23,0,0,1-.24.24Z"/><path d="M351.2,16.59a.23.23,0,0,1-.24-.24v-1h0a3.79,3.79,0,0,1-3.41,1.51c-2.19,0-3.87-1.13-3.87-3.46s1.68-3.55,4.49-3.55h2.62a.13.13,0,0,0,.14-.14V8.86c0-1.59-.62-2.26-2.76-2.26a4.46,4.46,0,0,0-2.78.82.22.22,0,0,1-.34,0l-.65-1.1a.26.26,0,0,1,.05-.34,6.4,6.4,0,0,1,3.91-1.13c3.27,0,4.52,1.08,4.52,3.92v7.61a.23.23,0,0,1-.24.24Zm-.29-3.72V11.59a.13.13,0,0,0-.14-.14h-2.31c-2,0-2.85.57-2.85,1.87s.86,1.8,2.4,1.8C349.81,15.12,350.91,14.28,350.91,12.87Z"/><path d="M364.62,16.59a.23.23,0,0,1-.24-.24v-1h0a3.77,3.77,0,0,1-3.41,1.51c-2.18,0-3.86-1.13-3.86-3.46s1.68-3.55,4.49-3.55h2.61c.1,0,.15-.05.15-.14V8.86c0-1.59-.63-2.26-2.76-2.26a4.48,4.48,0,0,0-2.79.82c-.12.09-.26.09-.33,0l-.65-1.1a.26.26,0,0,1,.05-.34,6.36,6.36,0,0,1,3.91-1.13c3.26,0,4.51,1.08,4.51,3.92v7.61a.23.23,0,0,1-.24.24Zm-.29-3.72V11.59c0-.09-.05-.14-.15-.14h-2.3c-2,0-2.86.57-2.86,1.87s.87,1.8,2.4,1.8C363.22,15.12,364.33,14.28,364.33,12.87Z"/><path d="M367.37,7.92a4.46,4.46,0,0,1,4.54-3.1,4.62,4.62,0,0,1,3.94,1.95c.07.12.07.21-.07.33L374.72,8a.22.22,0,0,1-.34,0,2.82,2.82,0,0,0-2.47-1.24,2.5,2.5,0,0,0-2.57,1.8,7.75,7.75,0,0,0-.26,2.33,7.81,7.81,0,0,0,.26,2.35,2.5,2.5,0,0,0,2.57,1.8,2.82,2.82,0,0,0,2.47-1.25.22.22,0,0,1,.34,0l1.06.86a.23.23,0,0,1,.07.34,4.62,4.62,0,0,1-3.94,1.94,4.45,4.45,0,0,1-4.54-3.1,10.08,10.08,0,0,1-.36-2.92A10.1,10.1,0,0,1,367.37,7.92Z"/><path d="M380,16.71c-2.24,0-3.1-1-3.1-3.27V6.86c0-.09-.05-.14-.15-.14h-1a.22.22,0,0,1-.23-.24V5.33a.22.22,0,0,1,.23-.24h1a.13.13,0,0,0,.15-.15V1.7a.23.23,0,0,1,.24-.24h1.54a.22.22,0,0,1,.23.24V4.94a.13.13,0,0,0,.15.15h1.82a.22.22,0,0,1,.24.24V6.48a.23.23,0,0,1-.24.24H379c-.1,0-.15,0-.15.14v6.51c0,1.15.44,1.46,1.47,1.46h.5a.23.23,0,0,1,.24.24v1.4a.23.23,0,0,1-.24.24Z"/><path d="M382,2.5a.23.23,0,0,1-.25-.24V.5A.23.23,0,0,1,382,.26h1.63a.23.23,0,0,1,.24.24V2.26a.23.23,0,0,1-.24.24Zm0,14.09a.23.23,0,0,1-.24-.24v-11a.23.23,0,0,1,.24-.24h1.54a.23.23,0,0,1,.24.24v11a.23.23,0,0,1-.24.24Z"/><path d="M384.53,10.9V9.5a.23.23,0,0,1,.24-.24h6.39a.23.23,0,0,1,.24.24v1.4a.23.23,0,0,1-.24.24h-6.39A.23.23,0,0,1,384.53,10.9Z"/><path d="M4.43,44.59c-.17,0-.24-.1-.29-.24L0,33.33c0-.15,0-.24.2-.24H1.86c.17,0,.24.07.31.24l3,8.25h0l2.9-8.25a.28.28,0,0,1,.29-.24H10c.17,0,.24.09.2.24l-4.11,11a.31.31,0,0,1-.31.24Z"/><path d="M11.08,30.5a.23.23,0,0,1-.24-.24V28.5a.23.23,0,0,1,.24-.24h1.63a.23.23,0,0,1,.24.24v1.76a.23.23,0,0,1-.24.24Zm.05,14.09a.23.23,0,0,1-.24-.24v-11a.22.22,0,0,1,.24-.24h1.53a.22.22,0,0,1,.24.24v11a.23.23,0,0,1-.24.24Z"/><path d="M22.12,44.59a.23.23,0,0,1-.24-.24V43.24h0a3.49,3.49,0,0,1-3.26,1.61,3.81,3.81,0,0,1-4-2.76,9.58,9.58,0,0,1-.41-3.26,9.63,9.63,0,0,1,.41-3.25,3.81,3.81,0,0,1,4-2.76,3.48,3.48,0,0,1,3.26,1.59h0V28.5a.23.23,0,0,1,.24-.24h1.54a.22.22,0,0,1,.23.24V44.35a.22.22,0,0,1-.23.24Zm-.51-3.36a7.17,7.17,0,0,0,.27-2.4,7.28,7.28,0,0,0-.27-2.41,2.43,2.43,0,0,0-2.54-1.72,2.44,2.44,0,0,0-2.52,1.72,8.33,8.33,0,0,0-.26,2.41,8.09,8.09,0,0,0,.26,2.4A2.46,2.46,0,0,0,19.07,43,2.46,2.46,0,0,0,21.61,41.23Z"/><path d="M32.87,44.59a.23.23,0,0,1-.24-.24v-1h0a3.79,3.79,0,0,1-3.41,1.51c-2.19,0-3.87-1.13-3.87-3.46s1.68-3.55,4.49-3.55h2.62a.13.13,0,0,0,.14-.14v-.84c0-1.59-.62-2.26-2.76-2.26a4.46,4.46,0,0,0-2.78.82.22.22,0,0,1-.34,0l-.65-1.1A.27.27,0,0,1,26.1,34,6.4,6.4,0,0,1,30,32.82c3.27,0,4.52,1.08,4.52,3.92v7.61a.23.23,0,0,1-.24.24Zm-.29-3.72V39.59a.13.13,0,0,0-.14-.14H30.13c-2,0-2.85.57-2.85,1.87s.86,1.8,2.4,1.8C31.48,43.12,32.58,42.28,32.58,40.87Z"/><path d="M43.65,44.59a.23.23,0,0,1-.24-.24V43.24h0a3.49,3.49,0,0,1-3.26,1.61,3.8,3.8,0,0,1-4-2.76,9.58,9.58,0,0,1-.41-3.26,9.63,9.63,0,0,1,.41-3.25,3.8,3.8,0,0,1,4-2.76,3.48,3.48,0,0,1,3.26,1.59h0V28.5a.23.23,0,0,1,.24-.24h1.53a.23.23,0,0,1,.24.24V44.35a.23.23,0,0,1-.24.24Zm-.51-3.36a7.45,7.45,0,0,0,.27-2.4,7.56,7.56,0,0,0-.27-2.41,2.72,2.72,0,0,0-5.06,0,8.29,8.29,0,0,0-.27,2.41,8,8,0,0,0,.27,2.4,2.7,2.7,0,0,0,5.06,0Z"/><path d="M51,41.73a8.94,8.94,0,0,1-.39-2.9,8.93,8.93,0,0,1,.36-2.91,4.84,4.84,0,0,1,9,0,10.08,10.08,0,0,1,.36,3.29.24.24,0,0,1-.27.24H52.79a.12.12,0,0,0-.14.14,4.37,4.37,0,0,0,.19,1.4,2.83,2.83,0,0,0,2.9,2,3.74,3.74,0,0,0,2.95-1.27c.12-.13.24-.15.36-.05l1,.89a.21.21,0,0,1,0,.33,5.59,5.59,0,0,1-4.49,2A4.44,4.44,0,0,1,51,41.73Zm7.15-3.89a.13.13,0,0,0,.14-.14,4.06,4.06,0,0,0-.17-1.3,2.84,2.84,0,0,0-5.28,0,4.08,4.08,0,0,0-.16,1.3.12.12,0,0,0,.14.14Z"/><path d="M64.72,44.59c-.17,0-.24-.1-.29-.24l-4.13-11c0-.15,0-.24.19-.24h1.66c.17,0,.24.07.31.24l3,8.25h0l2.9-8.25a.28.28,0,0,1,.29-.24h1.63c.17,0,.24.09.19.24l-4.1,11a.32.32,0,0,1-.31.24Z"/><path d="M71.37,30.5a.23.23,0,0,1-.24-.24V28.5a.23.23,0,0,1,.24-.24H73a.23.23,0,0,1,.24.24v1.76a.23.23,0,0,1-.24.24Zm0,14.09a.23.23,0,0,1-.24-.24v-11a.23.23,0,0,1,.24-.24H73a.23.23,0,0,1,.24.24v11a.23.23,0,0,1-.24.24Z"/><path d="M78.54,44.71c-2.23,0-3.09-1-3.09-3.27V34.86c0-.09,0-.14-.15-.14h-1a.23.23,0,0,1-.24-.24V33.33a.23.23,0,0,1,.24-.24h1a.13.13,0,0,0,.15-.15V29.7a.23.23,0,0,1,.24-.24h1.53a.23.23,0,0,1,.24.24v3.24a.13.13,0,0,0,.15.15h1.82a.23.23,0,0,1,.24.24v1.15a.23.23,0,0,1-.24.24H77.61c-.1,0-.15.05-.15.14v6.51c0,1.15.43,1.46,1.47,1.46h.5a.23.23,0,0,1,.24.24v1.4a.23.23,0,0,1-.24.24Z"/><path d="M80.56,41.73a8.94,8.94,0,0,1-.39-2.9,8.93,8.93,0,0,1,.36-2.91,4.84,4.84,0,0,1,9,0,10.08,10.08,0,0,1,.36,3.29.24.24,0,0,1-.27.24H82.38a.13.13,0,0,0-.14.14,4.37,4.37,0,0,0,.19,1.4,2.84,2.84,0,0,0,2.9,2,3.78,3.78,0,0,0,3-1.27c.12-.13.24-.15.36-.05l1,.89a.21.21,0,0,1,0,.33,5.59,5.59,0,0,1-4.48,2A4.45,4.45,0,0,1,80.56,41.73Zm7.15-3.89a.12.12,0,0,0,.14-.14,4.08,4.08,0,0,0-.16-1.3,2.84,2.84,0,0,0-5.28,0,4.06,4.06,0,0,0-.17,1.3.13.13,0,0,0,.14.14Z"/><path d="M95.32,44.59a.23.23,0,0,1-.24-.24v-11a.22.22,0,0,1,.24-.24h1.53a.22.22,0,0,1,.24.24V34.5h0a3.2,3.2,0,0,1,3-1.68,3.53,3.53,0,0,1,2.35.87c.12.12.14.21,0,.33l-.89,1.18a.23.23,0,0,1-.34,0,3.19,3.19,0,0,0-1.77-.55c-1.76,0-2.48,1.36-2.48,3.36v6.29a.23.23,0,0,1-.24.24Z"/><path d="M102.25,41.73a9,9,0,0,1-.38-2.9,8.93,8.93,0,0,1,.36-2.91,4.83,4.83,0,0,1,9,0,10.08,10.08,0,0,1,.36,3.29.23.23,0,0,1-.26.24h-7.27c-.1,0-.15,0-.15.14a4.33,4.33,0,0,0,.2,1.4,2.83,2.83,0,0,0,2.9,2,3.74,3.74,0,0,0,3-1.27c.12-.13.24-.15.36-.05l1,.89a.21.21,0,0,1,0,.33,5.59,5.59,0,0,1-4.49,2A4.45,4.45,0,0,1,102.25,41.73Zm7.16-3.89a.13.13,0,0,0,.14-.14,4.06,4.06,0,0,0-.17-1.3,2.84,2.84,0,0,0-5.28,0,4.06,4.06,0,0,0-.17,1.3c0,.09,0,.14.15.14Z"/><path d="M119.89,44.59a.23.23,0,0,1-.24-.24v-1h0a3.79,3.79,0,0,1-3.41,1.51c-2.18,0-3.86-1.13-3.86-3.46s1.68-3.55,4.49-3.55h2.61c.1,0,.15-.05.15-.14v-.84c0-1.59-.63-2.26-2.76-2.26a4.48,4.48,0,0,0-2.79.82c-.12.09-.26.09-.33,0l-.65-1.1a.26.26,0,0,1,0-.34A6.36,6.36,0,0,1,117,32.82c3.26,0,4.51,1.08,4.51,3.92v7.61a.23.23,0,0,1-.24.24Zm-.28-3.72V39.59c0-.09,0-.14-.15-.14h-2.3c-2,0-2.86.57-2.86,1.87s.87,1.8,2.4,1.8C118.5,43.12,119.61,42.28,119.61,40.87Z"/><path d="M126.23,44.71c-2,0-2.81-1-2.81-3V28.5a.23.23,0,0,1,.24-.24h1.54a.23.23,0,0,1,.24.24V41.56c0,1,.36,1.27,1.15,1.27h.46a.23.23,0,0,1,.24.24v1.4a.23.23,0,0,1-.24.24Z"/><path d="M128.39,30.5a.23.23,0,0,1-.24-.24V28.5a.23.23,0,0,1,.24-.24H130a.23.23,0,0,1,.24.24v1.76a.23.23,0,0,1-.24.24Zm.05,14.09a.23.23,0,0,1-.24-.24v-11a.22.22,0,0,1,.24-.24H130a.22.22,0,0,1,.24.24v11a.23.23,0,0,1-.24.24Z"/><path d="M131.82,44.59a.23.23,0,0,1-.24-.24V43.07a.33.33,0,0,1,.1-.26L138,35v-.05h-5.86a.23.23,0,0,1-.24-.24V33.33a.23.23,0,0,1,.24-.24h8a.23.23,0,0,1,.24.24v1.34a.35.35,0,0,1-.1.27L134,42.71v0h6.12a.23.23,0,0,1,.24.24v1.35a.23.23,0,0,1-.24.24Z"/><path d="M148.72,44.59a.23.23,0,0,1-.24-.24v-1h0A3.76,3.76,0,0,1,145,44.85c-2.18,0-3.86-1.13-3.86-3.46s1.68-3.55,4.49-3.55h2.62a.13.13,0,0,0,.14-.14v-.84c0-1.59-.62-2.26-2.76-2.26a4.5,4.5,0,0,0-2.79.82c-.12.09-.26.09-.33,0l-.65-1.1a.26.26,0,0,1,0-.34,6.38,6.38,0,0,1,3.91-1.13c3.27,0,4.51,1.08,4.51,3.92v7.61a.23.23,0,0,1-.24.24Zm-.29-3.72V39.59a.13.13,0,0,0-.14-.14H146c-2,0-2.86.57-2.86,1.87s.87,1.8,2.4,1.8C147.33,43.12,148.43,42.28,148.43,40.87Z"/><path d="M152.53,44.59a.23.23,0,0,1-.24-.24v-11a.23.23,0,0,1,.24-.24h1.54a.23.23,0,0,1,.24.24V34.5h0a3.23,3.23,0,0,1,3-1.68,3.51,3.51,0,0,1,2.35.87c.12.12.15.21.05.33l-.89,1.18a.21.21,0,0,1-.33,0,3.23,3.23,0,0,0-1.78-.55c-1.75,0-2.47,1.36-2.47,3.36v6.29a.23.23,0,0,1-.24.24Z"/><path d="M164.24,30.5a.23.23,0,0,1-.24-.24V28.5a.23.23,0,0,1,.24-.24h1.64a.23.23,0,0,1,.24.24v1.76a.23.23,0,0,1-.24.24Zm0,14.09a.23.23,0,0,1-.24-.24v-11a.23.23,0,0,1,.24-.24h1.54a.23.23,0,0,1,.24.24v11a.23.23,0,0,1-.24.24Z"/><path d="M175.28,44.59a.23.23,0,0,1-.24-.24V43.24h0a3.5,3.5,0,0,1-3.26,1.61,3.79,3.79,0,0,1-4-2.76,9.34,9.34,0,0,1-.41-3.26,9.38,9.38,0,0,1,.41-3.25,3.79,3.79,0,0,1,4-2.76A3.49,3.49,0,0,1,175,34.41h0V28.5a.23.23,0,0,1,.24-.24h1.54a.23.23,0,0,1,.24.24V44.35a.23.23,0,0,1-.24.24Zm-.5-3.36a7.51,7.51,0,0,0,.26-2.4,7.62,7.62,0,0,0-.26-2.41,2.72,2.72,0,0,0-5.06,0,8,8,0,0,0-.27,2.41,7.72,7.72,0,0,0,.27,2.4,2.7,2.7,0,0,0,5.06,0Z"/><path d="M178.76,41.73a9,9,0,0,1-.38-2.9,8.93,8.93,0,0,1,.36-2.91,4.83,4.83,0,0,1,9,0,10.08,10.08,0,0,1,.36,3.29.23.23,0,0,1-.26.24h-7.27c-.1,0-.15,0-.15.14a4.33,4.33,0,0,0,.2,1.4,2.83,2.83,0,0,0,2.9,2,3.74,3.74,0,0,0,3-1.27c.12-.13.24-.15.36-.05l1,.89a.21.21,0,0,1,0,.33,5.59,5.59,0,0,1-4.49,2A4.45,4.45,0,0,1,178.76,41.73Zm7.16-3.89a.13.13,0,0,0,.14-.14,4.06,4.06,0,0,0-.17-1.3,2.84,2.84,0,0,0-5.28,0,4.06,4.06,0,0,0-.17,1.3c0,.09.05.14.15.14Z"/><path d="M196.91,44.59a.23.23,0,0,1-.24-.24V37.63c0-1.85-.84-2.93-2.57-2.93a2.58,2.58,0,0,0-2.64,2.8v6.85a.23.23,0,0,1-.24.24h-1.54a.23.23,0,0,1-.24-.24v-11a.23.23,0,0,1,.24-.24h1.54a.23.23,0,0,1,.24.24v1.05h0a3.67,3.67,0,0,1,3.22-1.56c2.5,0,4,1.71,4,4.32v7.21a.23.23,0,0,1-.24.24Z"/><path d="M203.92,44.71c-2.24,0-3.1-1-3.1-3.27V34.86a.13.13,0,0,0-.14-.14h-1a.23.23,0,0,1-.24-.24V33.33a.22.22,0,0,1,.24-.24h1c.09,0,.14-.05.14-.15V29.7a.23.23,0,0,1,.24-.24h1.54a.23.23,0,0,1,.24.24v3.24c0,.1,0,.15.14.15h1.82a.22.22,0,0,1,.24.24v1.15a.23.23,0,0,1-.24.24H203a.12.12,0,0,0-.14.14v6.51c0,1.15.43,1.46,1.46,1.46h.5a.23.23,0,0,1,.24.24v1.4a.23.23,0,0,1-.24.24Z"/><path d="M206.44,30.5a.23.23,0,0,1-.24-.24V28.5a.23.23,0,0,1,.24-.24h1.63a.23.23,0,0,1,.24.24v1.76a.23.23,0,0,1-.24.24Zm0,14.09a.23.23,0,0,1-.24-.24v-11a.23.23,0,0,1,.24-.24H208a.23.23,0,0,1,.24.24v11a.23.23,0,0,1-.24.24Z"/><path d="M210.9,44.59a.23.23,0,0,1-.24-.24V34.86a.13.13,0,0,0-.14-.14h-1a.23.23,0,0,1-.24-.24V33.33a.23.23,0,0,1,.24-.24h1c.09,0,.14-.05.14-.15V32c0-2.71,1.1-3.7,3.5-3.7h.89a.23.23,0,0,1,.24.24v1.4a.23.23,0,0,1-.24.24h-.62c-1.47,0-1.75.31-1.75,1.72v1.08c0,.1,0,.15.14.15h2.23a.22.22,0,0,1,.24.24v1.15a.23.23,0,0,1-.24.24h-2.23a.12.12,0,0,0-.14.14v9.49a.23.23,0,0,1-.24.24Zm7.2-14.09a.23.23,0,0,1-.24-.24V28.5a.23.23,0,0,1,.24-.24h1.63a.23.23,0,0,1,.24.24v1.76a.23.23,0,0,1-.24.24Zm.05,14.09a.23.23,0,0,1-.24-.24v-11a.22.22,0,0,1,.24-.24h1.53a.22.22,0,0,1,.24.24v11a.23.23,0,0,1-.24.24Z"/><path d="M221.6,35.92a4.46,4.46,0,0,1,4.54-3.1,4.62,4.62,0,0,1,3.94,2c.07.12.07.21-.08.33L229,36a.22.22,0,0,1-.34,0,2.82,2.82,0,0,0-2.47-1.24,2.5,2.5,0,0,0-2.57,1.8,7.75,7.75,0,0,0-.26,2.33,7.81,7.81,0,0,0,.26,2.35,2.5,2.5,0,0,0,2.57,1.8,2.82,2.82,0,0,0,2.47-1.25.22.22,0,0,1,.34,0l1.05.86c.15.12.15.22.08.34a4.62,4.62,0,0,1-3.94,1.94,4.45,4.45,0,0,1-4.54-3.1,10.08,10.08,0,0,1-.36-2.92A10.1,10.1,0,0,1,221.6,35.92Z"/><path d="M238,44.59a.23.23,0,0,1-.24-.24v-1h0a3.79,3.79,0,0,1-3.41,1.51c-2.19,0-3.87-1.13-3.87-3.46s1.68-3.55,4.49-3.55h2.62a.13.13,0,0,0,.14-.14v-.84c0-1.59-.62-2.26-2.76-2.26a4.46,4.46,0,0,0-2.78.82.22.22,0,0,1-.34,0l-.65-1.1a.26.26,0,0,1,.05-.34,6.4,6.4,0,0,1,3.91-1.13c3.27,0,4.52,1.08,4.52,3.92v7.61a.23.23,0,0,1-.24.24Zm-.29-3.72V39.59a.13.13,0,0,0-.14-.14h-2.31c-2,0-2.85.57-2.85,1.87s.86,1.8,2.4,1.8C236.63,43.12,237.73,42.28,237.73,40.87Z"/><path d="M241.26,35.92a4.46,4.46,0,0,1,4.54-3.1,4.61,4.61,0,0,1,3.93,2c.07.12.07.21-.07.33L248.6,36a.21.21,0,0,1-.33,0,2.82,2.82,0,0,0-2.47-1.24,2.49,2.49,0,0,0-2.57,1.8,7.7,7.7,0,0,0-.27,2.33,7.76,7.76,0,0,0,.27,2.35A2.49,2.49,0,0,0,245.8,43a2.82,2.82,0,0,0,2.47-1.25.21.21,0,0,1,.33,0l1.06.86a.23.23,0,0,1,.07.34,4.6,4.6,0,0,1-3.93,1.94,4.45,4.45,0,0,1-4.54-3.1,9.74,9.74,0,0,1-.36-2.92A9.76,9.76,0,0,1,241.26,35.92Z"/><path d="M251.19,30.5a.23.23,0,0,1-.24-.24V28.5a.23.23,0,0,1,.24-.24h1.64a.23.23,0,0,1,.24.24v1.76a.23.23,0,0,1-.24.24Zm.05,14.09a.23.23,0,0,1-.24-.24v-11a.23.23,0,0,1,.24-.24h1.54a.23.23,0,0,1,.24.24v11a.23.23,0,0,1-.24.24Z"/><path d="M254.72,41.75a8.7,8.7,0,0,1-.38-2.92,8.68,8.68,0,0,1,.38-2.91,4.87,4.87,0,0,1,9.08,0,8.68,8.68,0,0,1,.38,2.91,8.7,8.7,0,0,1-.38,2.92,4.87,4.87,0,0,1-9.08,0Zm7.13-.57a7.59,7.59,0,0,0,.27-2.35,7.36,7.36,0,0,0-.27-2.33,2.76,2.76,0,0,0-5.18,0,7.08,7.08,0,0,0-.27,2.33,7.29,7.29,0,0,0,.27,2.35,2.76,2.76,0,0,0,5.18,0Zm-3.46-10c-.14,0-.21-.1-.14-.24l1.83-3a.42.42,0,0,1,.4-.24h1.59a.14.14,0,0,1,.12.24L260,31a.48.48,0,0,1-.46.24Z"/><path d="M273,44.59a.23.23,0,0,1-.24-.24V37.63c0-1.85-.84-2.93-2.57-2.93a2.58,2.58,0,0,0-2.64,2.8v6.85a.23.23,0,0,1-.24.24h-1.53a.23.23,0,0,1-.24-.24v-11a.22.22,0,0,1,.24-.24h1.53a.22.22,0,0,1,.24.24v1.05h0a3.64,3.64,0,0,1,3.21-1.56c2.5,0,4,1.71,4,4.32v7.21a.23.23,0,0,1-.24.24Z"/><path d="M280.57,48.91a.23.23,0,0,1-.24-.24v-1.4a.23.23,0,0,1,.24-.24H281c.94,0,1.44-.4,1.95-1.72l.38-1.06-4.22-10.92c-.05-.15,0-.24.19-.24H281a.28.28,0,0,1,.29.24l3,8.3h0l2.9-8.3a.28.28,0,0,1,.29-.24h1.63c.15,0,.24.09.19.24l-4.53,12.14c-1,2.72-1.9,3.44-3.63,3.44Z"/><path d="M293.53,41.73a8.94,8.94,0,0,1-.39-2.9,8.89,8.89,0,0,1,.37-2.91,4.83,4.83,0,0,1,9,0,10.08,10.08,0,0,1,.36,3.29.24.24,0,0,1-.26.24h-7.28a.13.13,0,0,0-.14.14,4.37,4.37,0,0,0,.19,1.4,2.84,2.84,0,0,0,2.91,2,3.77,3.77,0,0,0,2.95-1.27c.12-.13.24-.15.36-.05l1,.89a.21.21,0,0,1,0,.33,5.62,5.62,0,0,1-4.49,2A4.45,4.45,0,0,1,293.53,41.73Zm7.15-3.89c.1,0,.15-.05.15-.14a4.06,4.06,0,0,0-.17-1.3,2.84,2.84,0,0,0-5.28,0,4.06,4.06,0,0,0-.17,1.3.13.13,0,0,0,.14.14Z"/><path d="M307.28,44.59c-.17,0-.24-.1-.29-.24l-4.13-11c0-.15,0-.24.2-.24h1.65c.17,0,.24.07.31.24l3,8.25h.05l2.9-8.25a.28.28,0,0,1,.29-.24h1.63c.17,0,.24.09.2.24l-4.11,11a.31.31,0,0,1-.31.24Z"/><path d="M320.58,44.59a.23.23,0,0,1-.24-.24v-1h0a3.75,3.75,0,0,1-3.4,1.51c-2.19,0-3.87-1.13-3.87-3.46s1.68-3.55,4.49-3.55h2.62a.13.13,0,0,0,.14-.14v-.84c0-1.59-.62-2.26-2.76-2.26a4.44,4.44,0,0,0-2.78.82c-.13.09-.27.09-.34,0l-.65-1.1a.26.26,0,0,1,.05-.34,6.38,6.38,0,0,1,3.91-1.13c3.27,0,4.51,1.08,4.51,3.92v7.61a.23.23,0,0,1-.24.24Zm-.29-3.72V39.59a.13.13,0,0,0-.14-.14h-2.31c-2,0-2.85.57-2.85,1.87s.86,1.8,2.4,1.8C319.19,43.12,320.29,42.28,320.29,40.87Z"/><path d="M326.91,44.71c-2,0-2.81-1-2.81-3V28.5a.23.23,0,0,1,.25-.24h1.53a.23.23,0,0,1,.24.24V41.56c0,1,.36,1.27,1.15,1.27h.46a.23.23,0,0,1,.24.24v1.4a.23.23,0,0,1-.24.24Z"/><path d="M336.11,44.59a.23.23,0,0,1-.24-.24V43.27h0a3.49,3.49,0,0,1-3.14,1.58c-2.52,0-4-1.73-4-4.35V33.33a.23.23,0,0,1,.24-.24h1.54a.23.23,0,0,1,.24.24V40c0,1.88.84,3,2.54,3a2.56,2.56,0,0,0,2.6-2.83V33.33a.22.22,0,0,1,.24-.24h1.53a.22.22,0,0,1,.24.24v11a.23.23,0,0,1-.24.24Z"/><path d="M346.86,44.59a.23.23,0,0,1-.24-.24v-1h0a3.77,3.77,0,0,1-3.41,1.51c-2.18,0-3.86-1.13-3.86-3.46s1.68-3.55,4.49-3.55h2.61c.1,0,.15-.05.15-.14v-.84c0-1.59-.63-2.26-2.76-2.26a4.5,4.5,0,0,0-2.79.82c-.12.09-.26.09-.33,0l-.65-1.1a.26.26,0,0,1,0-.34A6.38,6.38,0,0,1,344,32.82c3.27,0,4.51,1.08,4.51,3.92v7.61a.23.23,0,0,1-.24.24Zm-.29-3.72V39.59c0-.09-.05-.14-.15-.14h-2.3c-2,0-2.86.57-2.86,1.87s.87,1.8,2.4,1.8C345.46,43.12,346.57,42.28,346.57,40.87Z"/><path d="M350.1,35.92a4.44,4.44,0,0,1,4.53-3.1,4.61,4.61,0,0,1,3.94,2c.07.12.07.21-.07.33l-1.06.87a.22.22,0,0,1-.34,0,2.8,2.8,0,0,0-2.47-1.24,2.5,2.5,0,0,0-2.57,1.8,7.75,7.75,0,0,0-.26,2.33,7.81,7.81,0,0,0,.26,2.35,2.5,2.5,0,0,0,2.57,1.8,2.81,2.81,0,0,0,2.47-1.25.22.22,0,0,1,.34,0l1.06.86a.23.23,0,0,1,.07.34,4.6,4.6,0,0,1-3.94,1.94,4.43,4.43,0,0,1-4.53-3.1,9.74,9.74,0,0,1-.36-2.92A9.76,9.76,0,0,1,350.1,35.92Z"/><path d="M360,30.5a.23.23,0,0,1-.24-.24V28.5a.23.23,0,0,1,.24-.24h1.63a.23.23,0,0,1,.24.24v1.76a.23.23,0,0,1-.24.24Zm.05,14.09a.23.23,0,0,1-.24-.24v-11a.23.23,0,0,1,.24-.24h1.54a.23.23,0,0,1,.24.24v11a.23.23,0,0,1-.24.24Z"/><path d="M363.56,41.75a8.7,8.7,0,0,1-.38-2.92,8.68,8.68,0,0,1,.38-2.91,4.87,4.87,0,0,1,9.07,0,8.4,8.4,0,0,1,.39,2.91,8.42,8.42,0,0,1-.39,2.92,4.87,4.87,0,0,1-9.07,0Zm7.13-.57a7.64,7.64,0,0,0,.26-2.35,7.41,7.41,0,0,0-.26-2.33,2.77,2.77,0,0,0-5.19,0,7.41,7.41,0,0,0-.26,2.33,7.64,7.64,0,0,0,.26,2.35,2.77,2.77,0,0,0,5.19,0Zm-3.46-10c-.14,0-.21-.1-.14-.24l1.82-3a.44.44,0,0,1,.41-.24h1.58c.15,0,.22.12.12.24l-2.2,3a.48.48,0,0,1-.46.24Z"/><path d="M381.8,44.59a.23.23,0,0,1-.24-.24V37.63c0-1.85-.84-2.93-2.57-2.93a2.58,2.58,0,0,0-2.64,2.8v6.85a.23.23,0,0,1-.24.24h-1.53a.23.23,0,0,1-.24-.24v-11a.22.22,0,0,1,.24-.24h1.53a.22.22,0,0,1,.24.24v1.05h0a3.64,3.64,0,0,1,3.21-1.56c2.5,0,4,1.71,4,4.32v7.21a.23.23,0,0,1-.24.24Z"/><path d="M8.56,72.59a.23.23,0,0,1-.24-.24V71.24h0A3.52,3.52,0,0,1,5,72.85a3.81,3.81,0,0,1-4-2.76,9.58,9.58,0,0,1-.41-3.26,9.63,9.63,0,0,1,.41-3.25,3.81,3.81,0,0,1,4-2.76A3.51,3.51,0,0,1,8.3,62.41h0V56.5a.23.23,0,0,1,.24-.24H10.1a.23.23,0,0,1,.24.24V72.35a.23.23,0,0,1-.24.24Zm-.5-3.36a7.51,7.51,0,0,0,.26-2.4,7.62,7.62,0,0,0-.26-2.41A2.45,2.45,0,0,0,5.51,62.7,2.44,2.44,0,0,0,3,64.42a8.33,8.33,0,0,0-.26,2.41A8.09,8.09,0,0,0,3,69.23,2.46,2.46,0,0,0,5.51,71,2.48,2.48,0,0,0,8.06,69.23Z"/><path d="M12.52,69.73a11.44,11.44,0,0,1,0-5.81A4.46,4.46,0,0,1,17,60.82a4.46,4.46,0,0,1,4.51,3.1,10.08,10.08,0,0,1,.36,3.29.24.24,0,0,1-.26.24H14.34a.13.13,0,0,0-.14.14,4.37,4.37,0,0,0,.19,1.4,2.84,2.84,0,0,0,2.9,2,3.78,3.78,0,0,0,3-1.27c.12-.13.24-.15.36,0l1,.88a.22.22,0,0,1,0,.34,5.62,5.62,0,0,1-4.49,2A4.45,4.45,0,0,1,12.52,69.73Zm7.15-3.89a.12.12,0,0,0,.14-.14,4.08,4.08,0,0,0-.16-1.3A2.61,2.61,0,0,0,17,62.6a2.59,2.59,0,0,0-2.64,1.8,4.06,4.06,0,0,0-.17,1.3.13.13,0,0,0,.14.14Z"/><path d="M28.24,72.59a.23.23,0,0,1-.24-.24v-11a.22.22,0,0,1,.24-.24h1.53a.22.22,0,0,1,.24.24V62.5h0a3.2,3.2,0,0,1,3.05-1.68,3.53,3.53,0,0,1,2.35.87c.12.12.14.21.05.33L34.6,63.2a.23.23,0,0,1-.34,0,3.19,3.19,0,0,0-1.77-.55c-1.76,0-2.48,1.36-2.48,3.36v6.29a.23.23,0,0,1-.24.24Z"/><path d="M36.11,58.5a.23.23,0,0,1-.24-.24V56.5a.23.23,0,0,1,.24-.24h1.63a.23.23,0,0,1,.24.24v1.76a.23.23,0,0,1-.24.24Zm0,14.09a.23.23,0,0,1-.24-.24v-11a.22.22,0,0,1,.24-.24h1.53a.22.22,0,0,1,.24.24v11a.23.23,0,0,1-.24.24Z"/><path d="M39.64,69.73a11.44,11.44,0,0,1,0-5.81,4.46,4.46,0,0,1,4.52-3.1,4.46,4.46,0,0,1,4.51,3.1A10.08,10.08,0,0,1,49,67.21a.24.24,0,0,1-.27.24H41.46a.13.13,0,0,0-.14.14,4.37,4.37,0,0,0,.19,1.4,2.84,2.84,0,0,0,2.9,2,3.78,3.78,0,0,0,3-1.27c.12-.13.24-.15.36,0l1,.88a.22.22,0,0,1,0,.34,5.59,5.59,0,0,1-4.48,2A4.45,4.45,0,0,1,39.64,69.73Zm7.15-3.89a.12.12,0,0,0,.14-.14,4.08,4.08,0,0,0-.16-1.3,2.84,2.84,0,0,0-5.28,0,4.06,4.06,0,0,0-.17,1.3.13.13,0,0,0,.14.14Z"/><path d="M49.53,71.12a.22.22,0,0,1,0-.33l1-1.06a.23.23,0,0,1,.34,0,5.6,5.6,0,0,0,3.55,1.32c1.68,0,2.52-.72,2.52-1.75s-.43-1.42-2.23-1.61l-1.23-.12C51.21,67.33,50,66.2,50,64.33c0-2.19,1.56-3.51,4.27-3.51a6.88,6.88,0,0,1,4.08,1.28.23.23,0,0,1,0,.33l-.82,1a.23.23,0,0,1-.33,0,6.07,6.07,0,0,0-3.1-.93c-1.44,0-2.18.64-2.18,1.58s.55,1.39,2.25,1.56l1.2.12c2.33.22,3.46,1.39,3.46,3.24,0,2.26-1.63,3.77-4.63,3.77A7.11,7.11,0,0,1,49.53,71.12Z"/><path d="M59.92,75.47a.22.22,0,0,1,0-.34l1-1a.22.22,0,0,1,.36,0A3.81,3.81,0,0,0,64,75.3c1.89,0,2.9-1,2.9-3.1V70.86h0a3.3,3.3,0,0,1-3.19,1.58,3.77,3.77,0,0,1-3.87-2.78,9,9,0,0,1-.38-3,8.92,8.92,0,0,1,.38-3,3.78,3.78,0,0,1,3.87-2.79,3.3,3.3,0,0,1,3.19,1.59h0V61.33a.23.23,0,0,1,.24-.24h1.54a.23.23,0,0,1,.24.24V72.08c0,3.27-1.78,5.09-5,5.09A5.2,5.2,0,0,1,59.92,75.47Zm6.72-6.6a9.74,9.74,0,0,0,0-4.47,2.59,2.59,0,0,0-4.87,0,8.76,8.76,0,0,0,0,4.47,2.34,2.34,0,0,0,2.42,1.72A2.38,2.38,0,0,0,66.64,68.87Z"/><path d="M70.62,69.75a8.7,8.7,0,0,1-.38-2.92,8.68,8.68,0,0,1,.38-2.91,4.87,4.87,0,0,1,9.07,0,8.4,8.4,0,0,1,.39,2.91,8.42,8.42,0,0,1-.39,2.92,4.87,4.87,0,0,1-9.07,0Zm7.13-.57A7.64,7.64,0,0,0,78,66.83a7.41,7.41,0,0,0-.26-2.33,2.77,2.77,0,0,0-5.19,0,7.41,7.41,0,0,0-.26,2.33,7.64,7.64,0,0,0,.26,2.35,2.77,2.77,0,0,0,5.19,0Z"/><path d="M80.6,71.12a.24.24,0,0,1,0-.33l1-1.06a.22.22,0,0,1,.33,0,5.63,5.63,0,0,0,3.56,1.32c1.68,0,2.52-.72,2.52-1.75s-.43-1.42-2.23-1.61l-1.23-.12c-2.25-.24-3.43-1.37-3.43-3.24,0-2.19,1.56-3.51,4.27-3.51a6.88,6.88,0,0,1,4.08,1.28.23.23,0,0,1,.05.33l-.82,1a.23.23,0,0,1-.33,0,6.07,6.07,0,0,0-3.1-.93c-1.44,0-2.18.64-2.18,1.58s.55,1.39,2.25,1.56l1.2.12c2.33.22,3.46,1.39,3.46,3.24,0,2.26-1.63,3.77-4.63,3.77A7.14,7.14,0,0,1,80.6,71.12Z"/><path d="M95.17,76.91a.23.23,0,0,1-.24-.24v-1.4a.23.23,0,0,1,.24-.24h.43c.94,0,1.44-.4,2-1.72l.38-1.06L93.71,61.33c0-.15,0-.24.19-.24h1.68a.28.28,0,0,1,.29.24l3,8.3h0l2.9-8.3a.28.28,0,0,1,.29-.24h1.63c.15,0,.24.09.2.24L99.42,73.47c-1,2.72-1.9,3.44-3.62,3.44Z"/><path d="M111.42,72.59a.23.23,0,0,1-.24-.24v-1h0a3.79,3.79,0,0,1-3.41,1.51c-2.19,0-3.87-1.13-3.87-3.46s1.68-3.55,4.49-3.55H111a.13.13,0,0,0,.14-.14v-.84c0-1.59-.62-2.26-2.76-2.26a4.46,4.46,0,0,0-2.78.82.22.22,0,0,1-.34,0l-.65-1.1a.27.27,0,0,1,.05-.34,6.4,6.4,0,0,1,3.91-1.13c3.27,0,4.52,1.08,4.52,3.92v7.61a.23.23,0,0,1-.24.24Zm-.29-3.72V67.59a.13.13,0,0,0-.14-.14h-2.31c-2,0-2.85.58-2.85,1.87s.86,1.8,2.4,1.8C110,71.12,111.13,70.28,111.13,68.87Z"/><path d="M126,76.91a.23.23,0,0,1-.24-.24V71.24h0a3.49,3.49,0,0,1-3.26,1.61,3.8,3.8,0,0,1-4-2.76,9.58,9.58,0,0,1-.41-3.26,9.63,9.63,0,0,1,.41-3.25,3.8,3.8,0,0,1,4-2.76,3.48,3.48,0,0,1,3.26,1.59h0V61.33a.22.22,0,0,1,.24-.24h1.53a.22.22,0,0,1,.24.24V76.67a.23.23,0,0,1-.24.24Zm-.51-7.68a7.45,7.45,0,0,0,.27-2.4,7.56,7.56,0,0,0-.27-2.41,2.72,2.72,0,0,0-5.06,0,8.29,8.29,0,0,0-.27,2.41,8,8,0,0,0,.27,2.4,2.7,2.7,0,0,0,5.06,0Z"/><path d="M137.05,72.59a.23.23,0,0,1-.24-.24V71.27h0a3.51,3.51,0,0,1-3.15,1.58c-2.52,0-4-1.73-4-4.35V61.33a.23.23,0,0,1,.24-.24h1.54a.23.23,0,0,1,.24.24V68c0,1.87.84,3,2.54,3a2.55,2.55,0,0,0,2.59-2.83V61.33a.23.23,0,0,1,.24-.24h1.54a.23.23,0,0,1,.24.24v11a.23.23,0,0,1-.24.24Z"/><path d="M140.53,69.73a9,9,0,0,1-.38-2.9,8.93,8.93,0,0,1,.36-2.91,4.83,4.83,0,0,1,9,0,10.08,10.08,0,0,1,.36,3.29.23.23,0,0,1-.26.24h-7.27c-.1,0-.15,0-.15.14a4.37,4.37,0,0,0,.19,1.4,2.84,2.84,0,0,0,2.91,2,3.74,3.74,0,0,0,2.95-1.27c.12-.13.24-.15.36,0l1,.88a.22.22,0,0,1,0,.34,5.59,5.59,0,0,1-4.49,2A4.45,4.45,0,0,1,140.53,69.73Zm7.15-3.89c.1,0,.15,0,.15-.14a4.06,4.06,0,0,0-.17-1.3,2.84,2.84,0,0,0-5.28,0,4.06,4.06,0,0,0-.17,1.3c0,.09,0,.14.15.14Z"/><path d="M154.74,69.73a8.94,8.94,0,0,1-.39-2.9,8.62,8.62,0,0,1,.37-2.91,4.83,4.83,0,0,1,9,0,10.08,10.08,0,0,1,.36,3.29.24.24,0,0,1-.26.24h-7.28a.13.13,0,0,0-.14.14,4.37,4.37,0,0,0,.19,1.4,2.84,2.84,0,0,0,2.91,2,3.77,3.77,0,0,0,2.95-1.27c.12-.13.24-.15.36,0l1,.88a.22.22,0,0,1,0,.34,5.62,5.62,0,0,1-4.49,2A4.45,4.45,0,0,1,154.74,69.73Zm7.15-3.89c.1,0,.15,0,.15-.14a4.06,4.06,0,0,0-.17-1.3,2.84,2.84,0,0,0-5.28,0,4.06,4.06,0,0,0-.17,1.3.13.13,0,0,0,.14.14Z"/><path d="M168.18,72.71c-2,0-2.81-1-2.81-3V56.5a.23.23,0,0,1,.24-.24h1.54a.23.23,0,0,1,.24.24V69.56c0,1,.36,1.27,1.15,1.27H169a.23.23,0,0,1,.24.24v1.4a.23.23,0,0,1-.24.24Z"/><path d="M174.23,76.91a.23.23,0,0,1-.24-.24V61.33a.22.22,0,0,1,.24-.24h1.53a.22.22,0,0,1,.24.24v1.08h0a3.48,3.48,0,0,1,3.26-1.59,3.8,3.8,0,0,1,4,2.76,9.63,9.63,0,0,1,.41,3.25,9.58,9.58,0,0,1-.41,3.26,3.8,3.8,0,0,1-4,2.76A3.49,3.49,0,0,1,176,71.24h0v5.43a.23.23,0,0,1-.24.24Zm7.1-7.68a8,8,0,0,0,.27-2.4,8.29,8.29,0,0,0-.27-2.41,2.72,2.72,0,0,0-5.06,0,7.56,7.56,0,0,0-.27,2.41,7.45,7.45,0,0,0,.27,2.4,2.7,2.7,0,0,0,5.06,0Z"/><path d="M185.22,72.59a.23.23,0,0,1-.24-.24v-11a.22.22,0,0,1,.24-.24h1.53a.23.23,0,0,1,.25.24V62.5h0a3.2,3.2,0,0,1,3-1.68,3.53,3.53,0,0,1,2.35.87c.12.12.14.21.05.33l-.89,1.18a.23.23,0,0,1-.34,0,3.17,3.17,0,0,0-1.77-.55c-1.75,0-2.47,1.36-2.47,3.36v6.29a.23.23,0,0,1-.25.24Z"/><path d="M192.15,69.75a8.7,8.7,0,0,1-.38-2.92,8.68,8.68,0,0,1,.38-2.91,4.87,4.87,0,0,1,9.08,0,8.68,8.68,0,0,1,.38,2.91,8.7,8.7,0,0,1-.38,2.92,4.87,4.87,0,0,1-9.08,0Zm7.13-.57a7.59,7.59,0,0,0,.27-2.35,7.36,7.36,0,0,0-.27-2.33,2.76,2.76,0,0,0-5.18,0,7.36,7.36,0,0,0-.27,2.33,7.59,7.59,0,0,0,.27,2.35,2.76,2.76,0,0,0,5.18,0Z"/><path d="M202.59,63.92a4.46,4.46,0,0,1,4.54-3.1,4.62,4.62,0,0,1,3.94,2c.07.12.07.21-.07.33l-1.06.87a.22.22,0,0,1-.34,0,2.82,2.82,0,0,0-2.47-1.24,2.5,2.5,0,0,0-2.57,1.8,10.66,10.66,0,0,0,0,4.68,2.5,2.5,0,0,0,2.57,1.8,2.82,2.82,0,0,0,2.47-1.25.22.22,0,0,1,.34,0l1.06.86a.23.23,0,0,1,.07.34,4.62,4.62,0,0,1-3.94,1.94,4.45,4.45,0,0,1-4.54-3.1,12,12,0,0,1,0-5.83Z"/><path d="M211.74,69.73a11.44,11.44,0,0,1,0-5.81,4.84,4.84,0,0,1,9,0,10.08,10.08,0,0,1,.36,3.29.24.24,0,0,1-.27.24h-7.27a.13.13,0,0,0-.14.14,4.37,4.37,0,0,0,.19,1.4,2.84,2.84,0,0,0,2.9,2,3.78,3.78,0,0,0,3-1.27c.12-.13.24-.15.36,0l1,.88a.22.22,0,0,1,0,.34,5.59,5.59,0,0,1-4.48,2A4.45,4.45,0,0,1,211.74,69.73Zm7.15-3.89a.12.12,0,0,0,.14-.14,4.08,4.08,0,0,0-.16-1.3,2.84,2.84,0,0,0-5.28,0,4.06,4.06,0,0,0-.17,1.3.13.13,0,0,0,.14.14Z"/><path d="M221.63,71.12a.22.22,0,0,1,0-.33l1-1.06a.23.23,0,0,1,.34,0,5.6,5.6,0,0,0,3.55,1.32c1.68,0,2.52-.72,2.52-1.75s-.43-1.42-2.23-1.61l-1.23-.12c-2.25-.24-3.43-1.37-3.43-3.24,0-2.19,1.56-3.51,4.27-3.51a6.88,6.88,0,0,1,4.08,1.28.23.23,0,0,1,.05.33l-.82,1a.23.23,0,0,1-.33,0,6.07,6.07,0,0,0-3.1-.93c-1.44,0-2.18.64-2.18,1.58s.55,1.39,2.25,1.56l1.2.12c2.33.22,3.46,1.39,3.46,3.24,0,2.26-1.63,3.77-4.63,3.77A7.11,7.11,0,0,1,221.63,71.12Z"/><path d="M232,69.75a8.42,8.42,0,0,1-.39-2.92,8.4,8.4,0,0,1,.39-2.91,4.87,4.87,0,0,1,9.07,0,8.68,8.68,0,0,1,.38,2.91,8.7,8.7,0,0,1-.38,2.92,4.87,4.87,0,0,1-9.07,0Zm7.12-.57a7.29,7.29,0,0,0,.27-2.35,7.08,7.08,0,0,0-.27-2.33,2.76,2.76,0,0,0-5.18,0,7.41,7.41,0,0,0-.26,2.33,7.64,7.64,0,0,0,.26,2.35,2.76,2.76,0,0,0,5.18,0Z"/><path d="M254,72.59a.23.23,0,0,1-.24-.24V65.63c0-1.85-.84-2.93-2.57-2.93a2.58,2.58,0,0,0-2.64,2.8v6.85a.23.23,0,0,1-.24.24H246.8a.23.23,0,0,1-.24-.24v-11a.23.23,0,0,1,.24-.24h1.54a.23.23,0,0,1,.24.24v1.05h0a3.66,3.66,0,0,1,3.22-1.56c2.49,0,4,1.71,4,4.32v7.21a.23.23,0,0,1-.24.24Z"/><path d="M257.39,69.75a8.42,8.42,0,0,1-.39-2.92,8.4,8.4,0,0,1,.39-2.91,4.87,4.87,0,0,1,9.07,0,8.68,8.68,0,0,1,.38,2.91,8.7,8.7,0,0,1-.38,2.92,4.87,4.87,0,0,1-9.07,0Zm7.12-.57a7.29,7.29,0,0,0,.27-2.35,7.08,7.08,0,0,0-.27-2.33,2.76,2.76,0,0,0-5.18,0,7.41,7.41,0,0,0-.26,2.33,7.64,7.64,0,0,0,.26,2.35,2.76,2.76,0,0,0,5.18,0Z"/><path d="M271.69,69.73a11.44,11.44,0,0,1,0-5.81,4.84,4.84,0,0,1,9,0,10.08,10.08,0,0,1,.36,3.29.24.24,0,0,1-.26.24h-7.28a.13.13,0,0,0-.14.14,4.37,4.37,0,0,0,.19,1.4,2.84,2.84,0,0,0,2.91,2,3.77,3.77,0,0,0,2.95-1.27c.12-.13.24-.15.36,0l1,.88a.22.22,0,0,1,0,.34,5.62,5.62,0,0,1-4.49,2A4.45,4.45,0,0,1,271.69,69.73Zm7.15-3.89c.1,0,.15,0,.15-.14a4.06,4.06,0,0,0-.17-1.3,2.84,2.84,0,0,0-5.28,0,4.06,4.06,0,0,0-.17,1.3.13.13,0,0,0,.14.14Z"/><path d="M281.58,71.12a.22.22,0,0,1,0-.33l1-1.06a.23.23,0,0,1,.34,0,5.6,5.6,0,0,0,3.55,1.32c1.68,0,2.52-.72,2.52-1.75s-.43-1.42-2.23-1.61l-1.23-.12c-2.25-.24-3.43-1.37-3.43-3.24,0-2.19,1.56-3.51,4.27-3.51a6.88,6.88,0,0,1,4.08,1.28.23.23,0,0,1,.05.33l-.81,1a.24.24,0,0,1-.34,0,6,6,0,0,0-3.1-.93c-1.44,0-2.18.64-2.18,1.58s.55,1.39,2.26,1.56l1.2.12c2.32.22,3.45,1.39,3.45,3.24,0,2.26-1.63,3.77-4.63,3.77A7.11,7.11,0,0,1,281.58,71.12Z"/><path d="M303.51,72.59a.23.23,0,0,1-.24-.24V65.63c0-1.85-.84-2.93-2.57-2.93a2.58,2.58,0,0,0-2.64,2.8v6.85a.23.23,0,0,1-.24.24h-1.53a.23.23,0,0,1-.24-.24v-11a.22.22,0,0,1,.24-.24h1.53a.22.22,0,0,1,.24.24v1.05h0a3.66,3.66,0,0,1,3.22-1.56c2.49,0,4,1.71,4,4.32v7.21a.23.23,0,0,1-.24.24Z"/><path d="M306.87,69.73a9,9,0,0,1-.38-2.9,8.93,8.93,0,0,1,.36-2.91,4.83,4.83,0,0,1,9,0,10.08,10.08,0,0,1,.36,3.29.23.23,0,0,1-.26.24H308.7c-.1,0-.15,0-.15.14a4.37,4.37,0,0,0,.19,1.4,2.84,2.84,0,0,0,2.91,2,3.74,3.74,0,0,0,3-1.27c.12-.13.24-.15.36,0l1,.88a.22.22,0,0,1,0,.34,5.59,5.59,0,0,1-4.49,2A4.45,4.45,0,0,1,306.87,69.73ZM314,65.84c.1,0,.15,0,.15-.14a4.06,4.06,0,0,0-.17-1.3,2.84,2.84,0,0,0-5.28,0,4.06,4.06,0,0,0-.17,1.3c0,.09.05.14.15.14Z"/><path d="M317.22,63.92a4.44,4.44,0,0,1,4.53-3.1,4.62,4.62,0,0,1,3.94,2c.07.12.07.21-.07.33l-1.06.87a.22.22,0,0,1-.34,0,2.82,2.82,0,0,0-2.47-1.24,2.5,2.5,0,0,0-2.57,1.8,10.66,10.66,0,0,0,0,4.68,2.5,2.5,0,0,0,2.57,1.8,2.82,2.82,0,0,0,2.47-1.25.22.22,0,0,1,.34,0l1.06.86a.23.23,0,0,1,.07.34,4.62,4.62,0,0,1-3.94,1.94,4.43,4.43,0,0,1-4.53-3.1,12,12,0,0,1,0-5.83Z"/><path d="M326.36,69.73a9,9,0,0,1-.38-2.9,8.93,8.93,0,0,1,.36-2.91,4.83,4.83,0,0,1,9,0,10.08,10.08,0,0,1,.36,3.29.24.24,0,0,1-.26.24h-7.28a.13.13,0,0,0-.14.14,4.37,4.37,0,0,0,.19,1.4,2.84,2.84,0,0,0,2.91,2,3.77,3.77,0,0,0,2.95-1.27c.12-.13.24-.15.36,0l1,.88a.22.22,0,0,1,0,.34,5.62,5.62,0,0,1-4.49,2A4.45,4.45,0,0,1,326.36,69.73Zm7.15-3.89c.1,0,.15,0,.15-.14a4.06,4.06,0,0,0-.17-1.3,2.84,2.84,0,0,0-5.28,0,4.06,4.06,0,0,0-.17,1.3.13.13,0,0,0,.14.14Z"/><path d="M336.25,71.12a.22.22,0,0,1,0-.33l1-1.06a.23.23,0,0,1,.34,0,5.6,5.6,0,0,0,3.55,1.32c1.68,0,2.52-.72,2.52-1.75s-.43-1.42-2.23-1.61l-1.23-.12c-2.25-.24-3.43-1.37-3.43-3.24,0-2.19,1.56-3.51,4.27-3.51a6.88,6.88,0,0,1,4.08,1.28.23.23,0,0,1,0,.33l-.81,1a.24.24,0,0,1-.34,0,6,6,0,0,0-3.1-.93c-1.44,0-2.18.64-2.18,1.58s.55,1.39,2.26,1.56l1.2.12c2.32.22,3.45,1.39,3.45,3.24,0,2.26-1.63,3.77-4.63,3.77A7.11,7.11,0,0,1,336.25,71.12Z"/><path d="M353.84,72.59a.23.23,0,0,1-.24-.24v-1h0a3.79,3.79,0,0,1-3.41,1.51c-2.19,0-3.87-1.13-3.87-3.46s1.68-3.55,4.49-3.55h2.62a.13.13,0,0,0,.14-.14v-.84c0-1.59-.62-2.26-2.76-2.26a4.46,4.46,0,0,0-2.78.82.22.22,0,0,1-.34,0l-.65-1.1a.26.26,0,0,1,.05-.34A6.4,6.4,0,0,1,351,60.82c3.27,0,4.52,1.08,4.52,3.92v7.61a.23.23,0,0,1-.24.24Zm-.29-3.72V67.59a.13.13,0,0,0-.14-.14H351.1c-2,0-2.85.58-2.85,1.87s.86,1.8,2.4,1.8C352.45,71.12,353.55,70.28,353.55,68.87Z"/><path d="M357.66,72.59a.23.23,0,0,1-.24-.24v-11a.22.22,0,0,1,.24-.24h1.53a.22.22,0,0,1,.24.24V62.5h0a3.2,3.2,0,0,1,3-1.68,3.54,3.54,0,0,1,2.36.87c.12.12.14.21,0,.33L364,63.2a.23.23,0,0,1-.34,0,3.2,3.2,0,0,0-1.78-.55c-1.75,0-2.47,1.36-2.47,3.36v6.29a.23.23,0,0,1-.24.24Z"/><path d="M365.53,58.5a.23.23,0,0,1-.24-.24V56.5a.23.23,0,0,1,.24-.24h1.63a.23.23,0,0,1,.24.24v1.76a.23.23,0,0,1-.24.24Zm0,14.09a.23.23,0,0,1-.24-.24v-11a.23.23,0,0,1,.24-.24h1.54a.23.23,0,0,1,.24.24v11a.23.23,0,0,1-.24.24Z"/><path d="M369.05,69.75a8.7,8.7,0,0,1-.38-2.92,8.68,8.68,0,0,1,.38-2.91,4.87,4.87,0,0,1,9.08,0,8.68,8.68,0,0,1,.38,2.91,8.7,8.7,0,0,1-.38,2.92,4.87,4.87,0,0,1-9.08,0Zm7.13-.57a7.59,7.59,0,0,0,.27-2.35,7.36,7.36,0,0,0-.27-2.33,2.76,2.76,0,0,0-5.18,0,7.36,7.36,0,0,0-.27,2.33,7.59,7.59,0,0,0,.27,2.35,2.76,2.76,0,0,0,5.18,0Z"/></g></g></svg>