<svg xmlns="http://www.w3.org/2000/svg" viewBox="0 0 382.46 48.64"><title>12b</title><g id="Capa_2" data-name="Capa 2"><g id="answer_copia" data-name="answer copia"><path d="M10.2,16.32c-.17,0-.24-.07-.31-.24L6.63,9.41H3a.13.13,0,0,0-.14.14v6.53a.23.23,0,0,1-.24.24H1a.23.23,0,0,1-.24-.24V.24A.23.23,0,0,1,1,0H6.89C9.94,0,12,1.87,12,4.7A4.44,4.44,0,0,1,8.79,9.14L12.27,16c.09.15,0,.29-.15.29ZM9.87,4.7C9.87,3,8.74,2,6.84,2H3c-.09,0-.14.05-.14.15V7.27c0,.1.05.15.14.15H6.84C8.74,7.42,9.87,6.41,9.87,4.7Z"/><path d="M14.47,13.47a9.1,9.1,0,0,1-.38-2.91,8.87,8.87,0,0,1,.36-2.9A4.44,4.44,0,0,1,19,4.56a4.44,4.44,0,0,1,4.51,3.1,10,10,0,0,1,.36,3.28.23.23,0,0,1-.26.25H16.3c-.1,0-.15,0-.15.14a4.3,4.3,0,0,0,.19,1.39,2.84,2.84,0,0,0,2.91,2,3.74,3.74,0,0,0,2.95-1.27.25.25,0,0,1,.36,0l1,.89a.21.21,0,0,1,0,.34,5.59,5.59,0,0,1-4.49,2A4.45,4.45,0,0,1,14.47,13.47Zm7.16-3.89c.09,0,.14-.05.14-.15a4,4,0,0,0-.17-1.29A2.58,2.58,0,0,0,19,6.34a2.59,2.59,0,0,0-2.64,1.8,4,4,0,0,0-.17,1.29.13.13,0,0,0,.15.15Z"/><path d="M33.55,16.32a.23.23,0,0,1-.24-.24v-1h0a3.77,3.77,0,0,1-3.41,1.52c-2.18,0-3.86-1.13-3.86-3.46S27.7,9.58,30.5,9.58h2.62c.1,0,.14-.05.14-.15V8.59c0-1.58-.62-2.25-2.76-2.25a4.47,4.47,0,0,0-2.78.81.22.22,0,0,1-.34,0L26.74,6a.24.24,0,0,1,0-.33A6.42,6.42,0,0,1,30.7,4.56c3.26,0,4.51,1.08,4.51,3.91v7.61a.23.23,0,0,1-.24.24Zm-.29-3.72V11.33c0-.1,0-.14-.14-.14h-2.3c-2,0-2.86.57-2.86,1.87s.86,1.8,2.4,1.8C32.16,14.86,33.26,14,33.26,12.6Z"/><path d="M41.33,16.44c-2,0-2.81-1-2.81-3V.24A.23.23,0,0,1,38.76,0H40.3a.23.23,0,0,1,.24.24V13.3c0,1,.36,1.27,1.15,1.27h.45a.23.23,0,0,1,.24.24V16.2a.22.22,0,0,1-.24.24Z"/><path d="M44.93,2.23A.22.22,0,0,1,44.69,2V.24A.23.23,0,0,1,44.93,0h1.63a.23.23,0,0,1,.24.24V2a.22.22,0,0,1-.24.24Zm0,14.09a.22.22,0,0,1-.24-.24v-11A.23.23,0,0,1,45,4.82h1.53a.23.23,0,0,1,.24.24v11a.22.22,0,0,1-.24.24Z"/><path d="M49.8,16.32a.23.23,0,0,1-.24-.24V14.81a.32.32,0,0,1,.1-.26L56,6.7v0H50.11a.23.23,0,0,1-.24-.24V5.06a.23.23,0,0,1,.24-.24h8a.23.23,0,0,1,.24.24V6.41a.35.35,0,0,1-.1.26L52,14.45v.05h6.12a.23.23,0,0,1,.24.24v1.34a.23.23,0,0,1-.24.24Z"/><path d="M68.14,16.32a.22.22,0,0,1-.24-.24v-1h0a3.75,3.75,0,0,1-3.41,1.52c-2.18,0-3.86-1.13-3.86-3.46s1.68-3.55,4.49-3.55H67.7a.13.13,0,0,0,.15-.15V8.59c0-1.58-.63-2.25-2.76-2.25a4.5,4.5,0,0,0-2.79.81c-.12.1-.26.1-.33,0L61.32,6a.24.24,0,0,1,0-.33,6.38,6.38,0,0,1,3.91-1.13c3.26,0,4.51,1.08,4.51,3.91v7.61a.22.22,0,0,1-.24.24Zm-.29-3.72V11.33c0-.1,0-.14-.15-.14H65.4c-2,0-2.86.57-2.86,1.87s.87,1.8,2.4,1.8C66.74,14.86,67.85,14,67.85,12.6Z"/><path d="M73.39,16.32a.23.23,0,0,1-.24-.24v-11a.23.23,0,0,1,.24-.24h1.54a.23.23,0,0,1,.24.24V6.24h0a3.21,3.21,0,0,1,3-1.68,3.56,3.56,0,0,1,2.35.86c.12.12.15.22,0,.34l-.89,1.18a.21.21,0,0,1-.33,0,3.31,3.31,0,0,0-1.78-.55c-1.75,0-2.47,1.37-2.47,3.36v6.29a.23.23,0,0,1-.24.24Z"/><path d="M87,14.86a.23.23,0,0,1,0-.34l1-1a.23.23,0,0,1,.34,0,5.6,5.6,0,0,0,3.55,1.32c1.68,0,2.52-.73,2.52-1.76s-.43-1.41-2.23-1.61l-1.22-.12c-2.26-.24-3.44-1.36-3.44-3.24,0-2.18,1.56-3.5,4.28-3.5a6.88,6.88,0,0,1,4.08,1.27.23.23,0,0,1,0,.34l-.81,1a.24.24,0,0,1-.34,0,6,6,0,0,0-3.09-.94c-1.44,0-2.19.65-2.19,1.59S90,9.29,91.73,9.46l1.2.12c2.33.21,3.45,1.39,3.45,3.24,0,2.25-1.63,3.77-4.63,3.77A7.18,7.18,0,0,1,87,14.86Z"/><path d="M98.76,13.49a8.77,8.77,0,0,1-.38-2.93,8.65,8.65,0,0,1,.38-2.9,4.87,4.87,0,0,1,9.07,0,8.37,8.37,0,0,1,.39,2.9,8.48,8.48,0,0,1-.39,2.93,4.87,4.87,0,0,1-9.07,0Zm7.13-.58a7.56,7.56,0,0,0,.26-2.35,7.5,7.5,0,0,0-.26-2.33,2.77,2.77,0,0,0-5.19,0,7.5,7.5,0,0,0-.26,2.33,7.56,7.56,0,0,0,.26,2.35,2.77,2.77,0,0,0,5.19,0Z"/><path d="M113.74,16.44c-2,0-2.81-1-2.81-3V.24a.23.23,0,0,1,.24-.24h1.53a.23.23,0,0,1,.24.24V13.3c0,1,.36,1.27,1.16,1.27h.45a.23.23,0,0,1,.24.24V16.2a.22.22,0,0,1-.24.24Z"/><path d="M116.83,13.49a8.77,8.77,0,0,1-.38-2.93,8.65,8.65,0,0,1,.38-2.9,4.87,4.87,0,0,1,9.07,0,8.37,8.37,0,0,1,.39,2.9,8.48,8.48,0,0,1-.39,2.93,4.87,4.87,0,0,1-9.07,0Zm7.13-.58a7.56,7.56,0,0,0,.26-2.35A7.5,7.5,0,0,0,124,8.23a2.76,2.76,0,0,0-5.18,0,7.16,7.16,0,0,0-.27,2.33,7.22,7.22,0,0,0,.27,2.35,2.76,2.76,0,0,0,5.18,0Z"/><path d="M134,7.66a4.45,4.45,0,0,1,4.54-3.1,4.6,4.6,0,0,1,3.93,1.94c.08.12.08.22-.07.34l-1.06.86a.21.21,0,0,1-.33,0,2.82,2.82,0,0,0-2.47-1.25A2.49,2.49,0,0,0,136,8.23a7.7,7.7,0,0,0-.27,2.33,7.76,7.76,0,0,0,.27,2.35,2.49,2.49,0,0,0,2.57,1.8A2.82,2.82,0,0,0,141,13.47a.21.21,0,0,1,.33,0l1.06.87c.15.12.15.21.07.33a4.61,4.61,0,0,1-3.93,1.95,4.46,4.46,0,0,1-4.54-3.1,9.81,9.81,0,0,1-.36-2.93A9.69,9.69,0,0,1,134,7.66Z"/><path d="M152.4,16.32a.22.22,0,0,1-.24-.24V15h0A3.5,3.5,0,0,1,149,16.59c-2.52,0-4-1.73-4-4.35V5.06a.23.23,0,0,1,.24-.24h1.53a.23.23,0,0,1,.24.24v6.7c0,1.87.84,3,2.55,3a2.55,2.55,0,0,0,2.59-2.83V5.06a.23.23,0,0,1,.24-.24h1.53a.23.23,0,0,1,.24.24v11a.22.22,0,0,1-.24.24Z"/><path d="M164.59,16.32a.23.23,0,0,1-.24-.24v-1h0a3.77,3.77,0,0,1-3.41,1.52c-2.19,0-3.87-1.13-3.87-3.46s1.68-3.55,4.49-3.55h2.62c.09,0,.14-.05.14-.15V8.59c0-1.58-.62-2.25-2.76-2.25a4.47,4.47,0,0,0-2.78.81c-.12.1-.27.1-.34,0L157.77,6a.25.25,0,0,1,0-.33,6.4,6.4,0,0,1,3.91-1.13c3.27,0,4.52,1.08,4.52,3.91v7.61a.23.23,0,0,1-.24.24Zm-.29-3.72V11.33a.12.12,0,0,0-.14-.14h-2.31c-2,0-2.85.57-2.85,1.87s.86,1.8,2.4,1.8C163.2,14.86,164.3,14,164.3,12.6Z"/><path d="M177.07,16.32a.23.23,0,0,1-.24-.24V9.36c0-1.85-.84-2.93-2.57-2.93a2.58,2.58,0,0,0-2.64,2.81v6.84a.22.22,0,0,1-.24.24h-1.53a.22.22,0,0,1-.24-.24v-11a.23.23,0,0,1,.24-.24h1.53a.23.23,0,0,1,.24.24V6.12h0a3.62,3.62,0,0,1,3.21-1.56c2.5,0,4,1.7,4,4.32v7.2a.23.23,0,0,1-.24.24Z"/><path d="M189.38,16.32a.23.23,0,0,1-.24-.24V15h0a3.51,3.51,0,0,1-3.27,1.61,3.81,3.81,0,0,1-4-2.76,9.71,9.71,0,0,1-.4-3.27,9.56,9.56,0,0,1,.4-3.24,3.81,3.81,0,0,1,4-2.76,3.5,3.5,0,0,1,3.27,1.58h0V.24a.23.23,0,0,1,.24-.24h1.54a.23.23,0,0,1,.24.24V16.08a.23.23,0,0,1-.24.24Zm-.5-3.36a7.47,7.47,0,0,0,.26-2.4,7.59,7.59,0,0,0-.26-2.4,2.72,2.72,0,0,0-5.07,0,8.26,8.26,0,0,0-.26,2.4,8,8,0,0,0,.26,2.4,2.71,2.71,0,0,0,5.07,0Z"/><path d="M194.3,13.49a8.77,8.77,0,0,1-.38-2.93,8.65,8.65,0,0,1,.38-2.9,4.87,4.87,0,0,1,9.07,0,8.37,8.37,0,0,1,.39,2.9,8.48,8.48,0,0,1-.39,2.93,4.87,4.87,0,0,1-9.07,0Zm7.13-.58a7.56,7.56,0,0,0,.26-2.35,7.5,7.5,0,0,0-.26-2.33,2.76,2.76,0,0,0-5.18,0,7.16,7.16,0,0,0-.27,2.33,7.22,7.22,0,0,0,.27,2.35,2.76,2.76,0,0,0,5.18,0Z"/><path d="M211,14.86a.25.25,0,0,1,0-.34l1-1a.22.22,0,0,1,.33,0,5.63,5.63,0,0,0,3.56,1.32c1.68,0,2.52-.73,2.52-1.76s-.44-1.41-2.23-1.61l-1.23-.12c-2.26-.24-3.43-1.36-3.43-3.24,0-2.18,1.56-3.5,4.27-3.5a6.88,6.88,0,0,1,4.08,1.27.24.24,0,0,1,0,.34l-.82,1a.23.23,0,0,1-.33,0,6.07,6.07,0,0,0-3.1-.94c-1.44,0-2.18.65-2.18,1.59s.55,1.39,2.25,1.56l1.2.12c2.33.21,3.46,1.39,3.46,3.24,0,2.25-1.63,3.77-4.63,3.77A7.19,7.19,0,0,1,211,14.86Z"/><path d="M222.76,13.47a9.1,9.1,0,0,1-.38-2.91,8.87,8.87,0,0,1,.36-2.9,4.83,4.83,0,0,1,9,0,9.89,9.89,0,0,1,.37,3.28.24.24,0,0,1-.27.25h-7.27c-.1,0-.15,0-.15.14a4.27,4.27,0,0,0,.2,1.39,2.83,2.83,0,0,0,2.9,2,3.74,3.74,0,0,0,3-1.27.25.25,0,0,1,.36,0l1,.89a.22.22,0,0,1,0,.34,5.59,5.59,0,0,1-4.49,2A4.45,4.45,0,0,1,222.76,13.47Zm7.16-3.89c.09,0,.14-.05.14-.15a4,4,0,0,0-.17-1.29,2.84,2.84,0,0,0-5.28,0,4,4,0,0,0-.17,1.29.13.13,0,0,0,.15.15Z"/><path d="M239.83,7.66a4.45,4.45,0,0,1,4.53-3.1A4.6,4.6,0,0,1,248.3,6.5a.23.23,0,0,1-.07.34l-1.06.86a.21.21,0,0,1-.33,0,2.83,2.83,0,0,0-2.48-1.25,2.49,2.49,0,0,0-2.56,1.8,7.39,7.39,0,0,0-.27,2.33,7.45,7.45,0,0,0,.27,2.35,2.49,2.49,0,0,0,2.56,1.8,2.82,2.82,0,0,0,2.48-1.24.21.21,0,0,1,.33,0l1.06.87c.14.12.14.21.07.33a4.61,4.61,0,0,1-3.94,1.95,4.46,4.46,0,0,1-4.53-3.1,9.81,9.81,0,0,1-.36-2.93A9.69,9.69,0,0,1,239.83,7.66Z"/><path d="M258.24,16.32a.22.22,0,0,1-.24-.24V15h0a3.5,3.5,0,0,1-3.14,1.59c-2.52,0-4-1.73-4-4.35V5.06a.23.23,0,0,1,.24-.24h1.54a.23.23,0,0,1,.24.24v6.7c0,1.87.84,3,2.54,3a2.55,2.55,0,0,0,2.6-2.83V5.06a.23.23,0,0,1,.24-.24h1.53a.23.23,0,0,1,.24.24v11a.22.22,0,0,1-.24.24Z"/><path d="M263.16,13.47a9.05,9.05,0,0,1-.39-2.91,8.87,8.87,0,0,1,.36-2.9,4.84,4.84,0,0,1,9,0,10,10,0,0,1,.36,3.28.24.24,0,0,1-.27.25H265c-.1,0-.14,0-.14.14a4.3,4.3,0,0,0,.19,1.39,2.83,2.83,0,0,0,2.9,2,3.74,3.74,0,0,0,2.95-1.27.25.25,0,0,1,.36,0l1,.89a.22.22,0,0,1,0,.34,5.59,5.59,0,0,1-4.49,2A4.44,4.44,0,0,1,263.16,13.47Zm7.15-3.89c.09,0,.14-.05.14-.15a4,4,0,0,0-.17-1.29,2.84,2.84,0,0,0-5.28,0,4,4,0,0,0-.16,1.29c0,.1,0,.15.14.15Z"/><path d="M282.74,16.32a.23.23,0,0,1-.24-.24V9.36c0-1.85-.84-2.93-2.57-2.93a2.58,2.58,0,0,0-2.64,2.81v6.84a.22.22,0,0,1-.24.24h-1.54a.22.22,0,0,1-.23-.24v-11a.22.22,0,0,1,.23-.24h1.54a.23.23,0,0,1,.24.24V6.12h0a3.62,3.62,0,0,1,3.21-1.56c2.5,0,4,1.7,4,4.32v7.2a.23.23,0,0,1-.24.24Z"/><path d="M291.19,16.44c-2.23,0-3.1-1-3.1-3.26V6.6a.12.12,0,0,0-.14-.14h-1a.23.23,0,0,1-.24-.24V5.06a.23.23,0,0,1,.24-.24h1a.12.12,0,0,0,.14-.14V1.44a.23.23,0,0,1,.24-.24h1.54a.23.23,0,0,1,.24.24V4.68a.12.12,0,0,0,.14.14h1.83a.23.23,0,0,1,.24.24V6.22a.23.23,0,0,1-.24.24h-1.83a.12.12,0,0,0-.14.14v6.5c0,1.16.43,1.47,1.46,1.47h.51a.23.23,0,0,1,.24.24V16.2a.23.23,0,0,1-.24.24Z"/><path d="M294.64,13.47a9.1,9.1,0,0,1-.38-2.91,8.87,8.87,0,0,1,.36-2.9,4.83,4.83,0,0,1,9,0,10,10,0,0,1,.36,3.28.23.23,0,0,1-.26.25h-7.27c-.1,0-.15,0-.15.14a4.3,4.3,0,0,0,.19,1.39,2.84,2.84,0,0,0,2.91,2,3.74,3.74,0,0,0,2.95-1.27.25.25,0,0,1,.36,0l1,.89a.22.22,0,0,1,0,.34,5.59,5.59,0,0,1-4.49,2A4.45,4.45,0,0,1,294.64,13.47Zm7.15-3.89a.13.13,0,0,0,.15-.15,4,4,0,0,0-.17-1.29,2.84,2.84,0,0,0-5.28,0,4,4,0,0,0-.17,1.29.13.13,0,0,0,.15.15Z"/><path d="M311.71,7.66a4.44,4.44,0,0,1,4.53-3.1,4.6,4.6,0,0,1,3.94,1.94.23.23,0,0,1-.07.34l-1.06.86a.22.22,0,0,1-.34,0,2.81,2.81,0,0,0-2.47-1.25,2.51,2.51,0,0,0-2.57,1.8,7.75,7.75,0,0,0-.26,2.33,7.81,7.81,0,0,0,.26,2.35,2.51,2.51,0,0,0,2.57,1.8,2.8,2.8,0,0,0,2.47-1.24.22.22,0,0,1,.34,0l1.06.87c.14.12.14.21.07.33a4.61,4.61,0,0,1-3.94,1.95,4.45,4.45,0,0,1-4.53-3.1,9.81,9.81,0,0,1-.36-2.93A9.69,9.69,0,0,1,311.71,7.66Z"/><path d="M322.29,13.49a8.77,8.77,0,0,1-.38-2.93,8.65,8.65,0,0,1,.38-2.9,4.87,4.87,0,0,1,9.07,0,8.37,8.37,0,0,1,.39,2.9,8.48,8.48,0,0,1-.39,2.93,4.87,4.87,0,0,1-9.07,0Zm7.13-.58a7.56,7.56,0,0,0,.26-2.35,7.5,7.5,0,0,0-.26-2.33,2.77,2.77,0,0,0-5.19,0,7.5,7.5,0,0,0-.26,2.33,7.56,7.56,0,0,0,.26,2.35,2.77,2.77,0,0,0,5.19,0Z"/><path d="M342,16.32a.23.23,0,0,1-.24-.24V9.36c0-1.85-.84-2.93-2.57-2.93a2.58,2.58,0,0,0-2.64,2.81v6.84a.22.22,0,0,1-.24.24h-1.53a.22.22,0,0,1-.24-.24v-11a.23.23,0,0,1,.24-.24h1.53a.23.23,0,0,1,.24.24V6.12h0a3.62,3.62,0,0,1,3.21-1.56c2.5,0,4,1.7,4,4.32v7.2a.23.23,0,0,1-.24.24Z"/><path d="M355.12,16.44c-2,0-2.81-1-2.81-3V.24a.23.23,0,0,1,.24-.24h1.54a.23.23,0,0,1,.24.24V13.3c0,1,.36,1.27,1.15,1.27h.46a.23.23,0,0,1,.24.24V16.2a.23.23,0,0,1-.24.24Z"/><path d="M358.22,13.49a8.48,8.48,0,0,1-.39-2.93,8.37,8.37,0,0,1,.39-2.9,4.87,4.87,0,0,1,9.07,0,8.65,8.65,0,0,1,.38,2.9,8.77,8.77,0,0,1-.38,2.93,4.87,4.87,0,0,1-9.07,0Zm7.13-.58a7.56,7.56,0,0,0,.26-2.35,7.5,7.5,0,0,0-.26-2.33,2.77,2.77,0,0,0-5.19,0,7.5,7.5,0,0,0-.26,2.33,7.56,7.56,0,0,0,.26,2.35,2.77,2.77,0,0,0,5.19,0Z"/><path d="M369.64,14.86a.23.23,0,0,1,0-.34l1-1a.22.22,0,0,1,.33,0,5.62,5.62,0,0,0,3.55,1.32c1.68,0,2.52-.73,2.52-1.76s-.43-1.41-2.23-1.61l-1.22-.12c-2.26-.24-3.43-1.36-3.43-3.24,0-2.18,1.56-3.5,4.27-3.5a6.88,6.88,0,0,1,4.08,1.27.24.24,0,0,1,.05.34l-.82,1a.24.24,0,0,1-.34,0,6,6,0,0,0-3.09-.94c-1.44,0-2.19.65-2.19,1.59s.56,1.39,2.26,1.56l1.2.12C377.9,9.79,379,11,379,12.82c0,2.25-1.64,3.77-4.64,3.77A7.18,7.18,0,0,1,369.64,14.86Z"/><path d="M.38,41.47A9.1,9.1,0,0,1,0,38.56a8.87,8.87,0,0,1,.36-2.9,4.44,4.44,0,0,1,4.51-3.1,4.44,4.44,0,0,1,4.51,3.1,9.62,9.62,0,0,1,.37,3.28.24.24,0,0,1-.27.25H2.21c-.1,0-.15,0-.15.14a4.27,4.27,0,0,0,.2,1.39,2.83,2.83,0,0,0,2.9,2,3.74,3.74,0,0,0,2.95-1.27.25.25,0,0,1,.36,0l1,.89a.22.22,0,0,1,0,.34,5.59,5.59,0,0,1-4.49,2A4.46,4.46,0,0,1,.38,41.47Zm7.16-3.89c.09,0,.14,0,.14-.15a4,4,0,0,0-.17-1.29,2.58,2.58,0,0,0-2.64-1.8,2.6,2.6,0,0,0-2.64,1.8,4,4,0,0,0-.17,1.29.13.13,0,0,0,.15.15Z"/><path d="M15.26,44.44c-2,0-2.8-1-2.8-3V28.24A.23.23,0,0,1,12.7,28h1.53a.23.23,0,0,1,.24.24V41.3c0,1,.36,1.27,1.16,1.27h.45a.23.23,0,0,1,.24.24V44.2a.23.23,0,0,1-.24.24Z"/><path d="M18.36,41.47A9.1,9.1,0,0,1,18,38.56a8.87,8.87,0,0,1,.36-2.9,4.43,4.43,0,0,1,4.51-3.1,4.45,4.45,0,0,1,4.51,3.1,10,10,0,0,1,.36,3.28.23.23,0,0,1-.26.25H20.18a.12.12,0,0,0-.14.14,4.3,4.3,0,0,0,.19,1.39,2.84,2.84,0,0,0,2.91,2,3.77,3.77,0,0,0,2.95-1.27.25.25,0,0,1,.36,0l1,.89a.22.22,0,0,1,0,.34,5.61,5.61,0,0,1-4.49,2A4.45,4.45,0,0,1,18.36,41.47Zm7.15-3.89a.13.13,0,0,0,.15-.15,4,4,0,0,0-.17-1.29,2.59,2.59,0,0,0-2.64-1.8,2.58,2.58,0,0,0-2.64,1.8A4,4,0,0,0,20,37.43c0,.1.05.15.14.15Z"/><path d="M45.17,44.32a.23.23,0,0,1-.24-.24V37.36c0-1.85-.84-2.93-2.57-2.93a2.6,2.6,0,0,0-2.64,2.81v6.84a.22.22,0,0,1-.24.24H37.94a.22.22,0,0,1-.23-.24V37.36c0-1.85-.85-2.93-2.57-2.93a2.58,2.58,0,0,0-2.64,2.81v6.84a.23.23,0,0,1-.24.24H30.72a.23.23,0,0,1-.24-.24v-11a.23.23,0,0,1,.24-.24h1.54a.23.23,0,0,1,.24.24v1.06h0a3.63,3.63,0,0,1,3.22-1.56,3.62,3.62,0,0,1,3.36,1.8h0a4.29,4.29,0,0,1,3.72-1.8c2.67,0,4.11,1.7,4.11,4.32v7.2a.23.23,0,0,1-.24.24Z"/><path d="M50,41.47a9.05,9.05,0,0,1-.39-2.91,8.87,8.87,0,0,1,.36-2.9,4.84,4.84,0,0,1,9,0,10,10,0,0,1,.36,3.28.24.24,0,0,1-.27.25H51.79a.12.12,0,0,0-.14.14,4.3,4.3,0,0,0,.19,1.39,2.84,2.84,0,0,0,2.9,2,3.78,3.78,0,0,0,3-1.27.25.25,0,0,1,.36,0l1,.89a.22.22,0,0,1,0,.34,5.59,5.59,0,0,1-4.48,2A4.45,4.45,0,0,1,50,41.47Zm7.15-3.89c.1,0,.14,0,.14-.15a4,4,0,0,0-.16-1.29,2.84,2.84,0,0,0-5.28,0,4,4,0,0,0-.17,1.29c0,.1.05.15.14.15Z"/><path d="M69.55,44.32a.23.23,0,0,1-.24-.24V37.36c0-1.85-.84-2.93-2.57-2.93a2.58,2.58,0,0,0-2.64,2.81v6.84a.22.22,0,0,1-.24.24H62.33a.22.22,0,0,1-.24-.24v-11a.23.23,0,0,1,.24-.24h1.53a.23.23,0,0,1,.24.24v1.06h0a3.62,3.62,0,0,1,3.21-1.56c2.5,0,4,1.7,4,4.32v7.2a.23.23,0,0,1-.24.24Z"/><path d="M78,44.44c-2.23,0-3.1-1-3.1-3.26V34.6c0-.1,0-.14-.14-.14h-1a.23.23,0,0,1-.24-.24V33.06a.23.23,0,0,1,.24-.24h1c.1,0,.14,0,.14-.14V29.44a.23.23,0,0,1,.24-.24h1.54a.23.23,0,0,1,.24.24v3.24a.12.12,0,0,0,.14.14h1.83a.23.23,0,0,1,.24.24v1.16a.23.23,0,0,1-.24.24H77.06a.12.12,0,0,0-.14.14v6.5c0,1.16.43,1.47,1.46,1.47h.51a.23.23,0,0,1,.24.24V44.2a.23.23,0,0,1-.24.24Z"/><path d="M81.46,41.49a8.48,8.48,0,0,1-.39-2.93,8.37,8.37,0,0,1,.39-2.9,4.87,4.87,0,0,1,9.07,0,8.65,8.65,0,0,1,.38,2.9,8.77,8.77,0,0,1-.38,2.93,4.87,4.87,0,0,1-9.07,0Zm7.12-.58a7.22,7.22,0,0,0,.27-2.35,7.16,7.16,0,0,0-.27-2.33,2.76,2.76,0,0,0-5.18,0,7.5,7.5,0,0,0-.26,2.33,7.56,7.56,0,0,0,.26,2.35,2.76,2.76,0,0,0,5.18,0Z"/><path d="M92.88,42.86a.23.23,0,0,1,0-.34l1-1.05a.23.23,0,0,1,.34,0,5.6,5.6,0,0,0,3.55,1.32c1.68,0,2.52-.73,2.52-1.76s-.43-1.41-2.23-1.61l-1.22-.12c-2.26-.24-3.44-1.36-3.44-3.24,0-2.18,1.56-3.5,4.28-3.5a6.88,6.88,0,0,1,4.08,1.27.23.23,0,0,1,0,.34l-.81,1a.24.24,0,0,1-.34,0,6,6,0,0,0-3.09-.94c-1.44,0-2.19.65-2.19,1.59s.55,1.39,2.26,1.56l1.2.12c2.33.21,3.45,1.39,3.45,3.24,0,2.25-1.63,3.77-4.63,3.77A7.18,7.18,0,0,1,92.88,42.86Z"/><path d="M117.43,44.32a.23.23,0,0,1-.24-.24V43h0a3.51,3.51,0,0,1-3.27,1.61,3.81,3.81,0,0,1-4-2.76,9.68,9.68,0,0,1-.41-3.27,9.53,9.53,0,0,1,.41-3.24,3.81,3.81,0,0,1,4-2.76,3.5,3.5,0,0,1,3.27,1.58h0v-5.9a.23.23,0,0,1,.24-.24H119a.23.23,0,0,1,.24.24V44.08a.23.23,0,0,1-.24.24Zm-.5-3.36a7.47,7.47,0,0,0,.26-2.4,7.59,7.59,0,0,0-.26-2.4,2.72,2.72,0,0,0-5.07,0,8.26,8.26,0,0,0-.26,2.4,8,8,0,0,0,.26,2.4,2.71,2.71,0,0,0,5.07,0Z"/><path d="M122.35,41.47a9.1,9.1,0,0,1-.38-2.91,8.87,8.87,0,0,1,.36-2.9,4.83,4.83,0,0,1,9,0,10,10,0,0,1,.36,3.28.23.23,0,0,1-.26.25h-7.28a.12.12,0,0,0-.14.14,4.3,4.3,0,0,0,.19,1.39,2.84,2.84,0,0,0,2.91,2,3.74,3.74,0,0,0,3-1.27.25.25,0,0,1,.36,0l1,.89a.22.22,0,0,1,0,.34,5.59,5.59,0,0,1-4.49,2A4.45,4.45,0,0,1,122.35,41.47Zm7.15-3.89a.13.13,0,0,0,.15-.15,4,4,0,0,0-.17-1.29,2.84,2.84,0,0,0-5.28,0,4,4,0,0,0-.17,1.29c0,.1,0,.15.14.15Z"/><path d="M140,48.64a.23.23,0,0,1-.24-.24V33.06a.23.23,0,0,1,.24-.24h1.54a.23.23,0,0,1,.24.24v1.08h0a3.49,3.49,0,0,1,3.26-1.58,3.79,3.79,0,0,1,4,2.76,9.29,9.29,0,0,1,.41,3.24,9.43,9.43,0,0,1-.41,3.27,3.79,3.79,0,0,1-4,2.76A3.5,3.5,0,0,1,141.79,43h0V48.4a.23.23,0,0,1-.24.24Zm7.1-7.68a7.68,7.68,0,0,0,.27-2.4,7.88,7.88,0,0,0-.27-2.4,2.71,2.71,0,0,0-5.06,0,7.59,7.59,0,0,0-.26,2.4A7.47,7.47,0,0,0,142,41a2.7,2.7,0,0,0,5.06,0Z"/><path d="M152.42,44.32a.23.23,0,0,1-.24-.24v-11a.23.23,0,0,1,.24-.24H154a.23.23,0,0,1,.24.24v1.18h0a3.21,3.21,0,0,1,3.05-1.68,3.56,3.56,0,0,1,2.35.86c.12.12.15.22,0,.34l-.89,1.18a.21.21,0,0,1-.33,0,3.31,3.31,0,0,0-1.78-.55c-1.75,0-2.47,1.37-2.47,3.36v6.29a.23.23,0,0,1-.24.24Z"/><path d="M160.8,41.49a8.48,8.48,0,0,1-.39-2.93,8.37,8.37,0,0,1,.39-2.9,4.87,4.87,0,0,1,9.07,0,8.4,8.4,0,0,1,.38,2.9,8.52,8.52,0,0,1-.38,2.93,4.87,4.87,0,0,1-9.07,0Zm7.13-.58a7.56,7.56,0,0,0,.26-2.35,7.5,7.5,0,0,0-.26-2.33,2.77,2.77,0,0,0-5.19,0,7.5,7.5,0,0,0-.26,2.33,7.56,7.56,0,0,0,.26,2.35,2.77,2.77,0,0,0,5.19,0Z"/><path d="M176.35,44.44c-2.23,0-3.1-1-3.1-3.26V34.6c0-.1,0-.14-.14-.14h-1a.23.23,0,0,1-.24-.24V33.06a.23.23,0,0,1,.24-.24h1c.1,0,.14,0,.14-.14V29.44a.23.23,0,0,1,.24-.24H175a.23.23,0,0,1,.24.24v3.24a.12.12,0,0,0,.14.14h1.83a.23.23,0,0,1,.24.24v1.16a.23.23,0,0,1-.24.24h-1.83a.12.12,0,0,0-.14.14v6.5c0,1.16.43,1.47,1.46,1.47h.51a.23.23,0,0,1,.24.24V44.2a.23.23,0,0,1-.24.24Z"/><path d="M179.81,41.47a9.05,9.05,0,0,1-.39-2.91,8.87,8.87,0,0,1,.36-2.9,4.84,4.84,0,0,1,9,0,10,10,0,0,1,.36,3.28.24.24,0,0,1-.27.25h-7.27c-.1,0-.14,0-.14.14a4.3,4.3,0,0,0,.19,1.39,2.83,2.83,0,0,0,2.9,2,3.78,3.78,0,0,0,3-1.27c.12-.12.24-.14.35,0l1,.89a.22.22,0,0,1,0,.34,5.59,5.59,0,0,1-4.48,2A4.45,4.45,0,0,1,179.81,41.47ZM187,37.58c.09,0,.14,0,.14-.15a4,4,0,0,0-.17-1.29,2.84,2.84,0,0,0-5.28,0,4,4,0,0,0-.16,1.29c0,.1,0,.15.14.15Z"/><path d="M191.59,35.66a4.45,4.45,0,0,1,4.54-3.1,4.6,4.6,0,0,1,3.93,1.94.23.23,0,0,1-.07.34l-1.06.86a.21.21,0,0,1-.33,0,2.82,2.82,0,0,0-2.47-1.25,2.49,2.49,0,0,0-2.57,1.8,7.7,7.7,0,0,0-.27,2.33,7.76,7.76,0,0,0,.27,2.35,2.49,2.49,0,0,0,2.57,1.8,2.82,2.82,0,0,0,2.47-1.24.21.21,0,0,1,.33,0l1.06.87c.14.12.14.21.07.33a4.61,4.61,0,0,1-3.93,2,4.46,4.46,0,0,1-4.54-3.1,9.81,9.81,0,0,1-.36-2.93A9.69,9.69,0,0,1,191.59,35.66Z"/><path d="M202.15,35.66a4.45,4.45,0,0,1,4.54-3.1,4.6,4.6,0,0,1,3.93,1.94.23.23,0,0,1-.07.34l-1.06.86a.21.21,0,0,1-.33,0,2.82,2.82,0,0,0-2.47-1.25,2.49,2.49,0,0,0-2.57,1.8,7.7,7.7,0,0,0-.27,2.33,7.76,7.76,0,0,0,.27,2.35,2.49,2.49,0,0,0,2.57,1.8,2.82,2.82,0,0,0,2.47-1.24.21.21,0,0,1,.33,0l1.06.87c.14.12.14.21.07.33a4.61,4.61,0,0,1-3.93,2,4.46,4.46,0,0,1-4.54-3.1,9.81,9.81,0,0,1-.36-2.93A9.69,9.69,0,0,1,202.15,35.66Z"/><path d="M213.53,30.23a.22.22,0,0,1-.24-.24V28.24a.23.23,0,0,1,.24-.24h1.63a.23.23,0,0,1,.24.24V30a.23.23,0,0,1-.24.24Zm0,14.09a.23.23,0,0,1-.24-.24v-11a.23.23,0,0,1,.24-.24h1.54a.23.23,0,0,1,.24.24v11a.23.23,0,0,1-.24.24Z"/><path d="M218.49,41.49a8.77,8.77,0,0,1-.38-2.93,8.65,8.65,0,0,1,.38-2.9,4.87,4.87,0,0,1,9.08,0,8.65,8.65,0,0,1,.38,2.9,8.77,8.77,0,0,1-.38,2.93,4.87,4.87,0,0,1-9.08,0Zm7.13-.58a7.5,7.5,0,0,0,.27-2.35,7.45,7.45,0,0,0-.27-2.33,2.76,2.76,0,0,0-5.18,0,7.45,7.45,0,0,0-.27,2.33,7.5,7.5,0,0,0,.27,2.35,2.76,2.76,0,0,0,5.18,0Zm-3.45-10c-.15,0-.22-.09-.15-.24l1.83-2.95a.4.4,0,0,1,.4-.24h1.59a.14.14,0,0,1,.12.24l-2.21,2.95a.48.48,0,0,1-.46.24Z"/><path d="M238.17,44.32a.23.23,0,0,1-.24-.24V37.36c0-1.85-.84-2.93-2.56-2.93a2.58,2.58,0,0,0-2.64,2.81v6.84a.23.23,0,0,1-.24.24H231a.22.22,0,0,1-.24-.24v-11a.23.23,0,0,1,.24-.24h1.54a.23.23,0,0,1,.24.24v1.06h0A3.63,3.63,0,0,1,236,32.56c2.49,0,4,1.7,4,4.32v7.2a.23.23,0,0,1-.24.24Z"/><path d="M248.23,35.66a4.45,4.45,0,0,1,4.53-3.1,4.6,4.6,0,0,1,3.94,1.94.23.23,0,0,1-.07.34l-1.06.86a.21.21,0,0,1-.33,0,2.83,2.83,0,0,0-2.48-1.25,2.49,2.49,0,0,0-2.56,1.8,7.39,7.39,0,0,0-.27,2.33,7.45,7.45,0,0,0,.27,2.35,2.49,2.49,0,0,0,2.56,1.8,2.82,2.82,0,0,0,2.48-1.24.21.21,0,0,1,.33,0l1.06.87c.14.12.14.21.07.33a4.61,4.61,0,0,1-3.94,2,4.46,4.46,0,0,1-4.53-3.1,9.81,9.81,0,0,1-.36-2.93A9.69,9.69,0,0,1,248.23,35.66Z"/><path d="M258.81,41.49a8.77,8.77,0,0,1-.38-2.93,8.65,8.65,0,0,1,.38-2.9,4.87,4.87,0,0,1,9.08,0,8.65,8.65,0,0,1,.38,2.9,8.77,8.77,0,0,1-.38,2.93,4.87,4.87,0,0,1-9.08,0Zm7.13-.58a7.5,7.5,0,0,0,.27-2.35,7.45,7.45,0,0,0-.27-2.33,2.76,2.76,0,0,0-5.18,0,7.16,7.16,0,0,0-.27,2.33,7.22,7.22,0,0,0,.27,2.35,2.76,2.76,0,0,0,5.18,0Z"/><path d="M278.49,44.32a.23.23,0,0,1-.24-.24V37.36c0-1.85-.84-2.93-2.57-2.93A2.59,2.59,0,0,0,273,37.24v6.84a.22.22,0,0,1-.24.24h-1.53a.22.22,0,0,1-.24-.24v-11a.23.23,0,0,1,.24-.24h1.53a.23.23,0,0,1,.24.24v1.06h0a3.62,3.62,0,0,1,3.22-1.56c2.49,0,4,1.7,4,4.32v7.2a.23.23,0,0,1-.24.24Z"/><path d="M286.94,44.44c-2.23,0-3.1-1-3.1-3.26V34.6c0-.1,0-.14-.14-.14h-1a.23.23,0,0,1-.24-.24V33.06a.23.23,0,0,1,.24-.24h1c.1,0,.14,0,.14-.14V29.44a.23.23,0,0,1,.24-.24h1.54a.23.23,0,0,1,.24.24v3.24a.12.12,0,0,0,.14.14h1.83a.23.23,0,0,1,.24.24v1.16a.23.23,0,0,1-.24.24H286a.12.12,0,0,0-.14.14v6.5c0,1.16.43,1.47,1.46,1.47h.51a.23.23,0,0,1,.24.24V44.2a.23.23,0,0,1-.24.24Z"/><path d="M291,44.32a.22.22,0,0,1-.24-.24v-11a.23.23,0,0,1,.24-.24h1.53a.23.23,0,0,1,.24.24v1.18h0a3.2,3.2,0,0,1,3.05-1.68,3.58,3.58,0,0,1,2.35.86c.12.12.14.22.05.34l-.89,1.18a.22.22,0,0,1-.34,0,3.28,3.28,0,0,0-1.77-.55c-1.76,0-2.48,1.37-2.48,3.36v6.29a.22.22,0,0,1-.24.24Z"/><path d="M306.45,44.32a.23.23,0,0,1-.24-.24v-1h0a3.77,3.77,0,0,1-3.41,1.52c-2.18,0-3.86-1.13-3.86-3.46s1.68-3.55,4.48-3.55H306a.13.13,0,0,0,.15-.15v-.84c0-1.58-.63-2.25-2.77-2.25a4.47,4.47,0,0,0-2.78.81.22.22,0,0,1-.34,0L299.64,34a.24.24,0,0,1,0-.33,6.42,6.42,0,0,1,3.92-1.13c3.26,0,4.51,1.08,4.51,3.91v7.61a.23.23,0,0,1-.24.24Zm-.28-3.72V39.33c0-.1-.05-.14-.15-.14h-2.3c-2,0-2.86.57-2.86,1.87s.86,1.8,2.4,1.8C305.06,42.86,306.17,42,306.17,40.6Z"/><path d="M316.41,35.66a4.45,4.45,0,0,1,4.54-3.1,4.6,4.6,0,0,1,3.93,1.94c.08.12.08.22-.07.34l-1.05.86a.22.22,0,0,1-.34,0A2.82,2.82,0,0,0,321,34.43a2.49,2.49,0,0,0-2.57,1.8,7.75,7.75,0,0,0-.26,2.33,7.81,7.81,0,0,0,.26,2.35,2.49,2.49,0,0,0,2.57,1.8,2.82,2.82,0,0,0,2.47-1.24.22.22,0,0,1,.34,0l1.05.87c.15.12.15.21.07.33a4.61,4.61,0,0,1-3.93,2,4.46,4.46,0,0,1-4.54-3.1,10.15,10.15,0,0,1-.36-2.93A10,10,0,0,1,316.41,35.66Z"/><path d="M334.27,44.32a.22.22,0,0,1-.24-.24v-1h0a3.74,3.74,0,0,1-3.4,1.52c-2.19,0-3.87-1.13-3.87-3.46s1.68-3.55,4.49-3.55h2.62c.09,0,.14,0,.14-.15v-.84c0-1.58-.62-2.25-2.76-2.25a4.44,4.44,0,0,0-2.78.81c-.12.1-.27.1-.34,0L327.45,34a.24.24,0,0,1,.05-.33,6.38,6.38,0,0,1,3.91-1.13c3.27,0,4.51,1.08,4.51,3.91v7.61a.22.22,0,0,1-.24.24ZM334,40.6V39.33a.12.12,0,0,0-.14-.14h-2.31c-2,0-2.85.57-2.85,1.87s.86,1.8,2.4,1.8C332.88,42.86,334,42,334,40.6Z"/><path d="M339.52,44.32a.23.23,0,0,1-.24-.24v-11a.23.23,0,0,1,.24-.24h1.54a.23.23,0,0,1,.24.24v11a.23.23,0,0,1-.24.24Zm.2-13.37c-.15,0-.22-.09-.15-.24l1.83-2.95a.4.4,0,0,1,.4-.24h1.59a.14.14,0,0,1,.12.24l-2.21,2.95a.48.48,0,0,1-.46.24Z"/><path d="M352,44.32a.22.22,0,0,1-.24-.24V43h0a3.49,3.49,0,0,1-3.26,1.61,3.8,3.8,0,0,1-4-2.76,9.68,9.68,0,0,1-.41-3.27,9.53,9.53,0,0,1,.41-3.24,3.8,3.8,0,0,1,4-2.76,3.48,3.48,0,0,1,3.26,1.58h0v-5.9A.23.23,0,0,1,352,28h1.53a.23.23,0,0,1,.24.24V44.08a.22.22,0,0,1-.24.24ZM351.45,41a7.41,7.41,0,0,0,.27-2.4,7.53,7.53,0,0,0-.27-2.4,2.71,2.71,0,0,0-5.06,0,8.21,8.21,0,0,0-.27,2.4,8,8,0,0,0,.27,2.4,2.7,2.7,0,0,0,5.06,0Z"/><path d="M364.15,44.32a.22.22,0,0,1-.24-.24v-1h0a3.74,3.74,0,0,1-3.4,1.52c-2.19,0-3.87-1.13-3.87-3.46s1.68-3.55,4.49-3.55h2.62c.09,0,.14,0,.14-.15v-.84c0-1.58-.62-2.25-2.76-2.25a4.44,4.44,0,0,0-2.78.81c-.12.1-.27.1-.34,0L357.33,34a.24.24,0,0,1,.05-.33,6.38,6.38,0,0,1,3.91-1.13c3.27,0,4.51,1.08,4.51,3.91v7.61a.22.22,0,0,1-.24.24Zm-.29-3.72V39.33a.12.12,0,0,0-.14-.14h-2.31c-2,0-2.85.57-2.85,1.87s.86,1.8,2.4,1.8C362.76,42.86,363.86,42,363.86,40.6Z"/><path d="M368.37,42.86a.25.25,0,0,1,0-.34l1-1.05a.22.22,0,0,1,.33,0,5.62,5.62,0,0,0,3.55,1.32c1.68,0,2.52-.73,2.52-1.76s-.43-1.41-2.23-1.61l-1.22-.12c-2.26-.24-3.43-1.36-3.43-3.24,0-2.18,1.56-3.5,4.27-3.5a6.88,6.88,0,0,1,4.08,1.27.24.24,0,0,1,0,.34l-.82,1a.24.24,0,0,1-.34,0,6,6,0,0,0-3.09-.94c-1.44,0-2.19.65-2.19,1.59s.56,1.39,2.26,1.56l1.2.12c2.33.21,3.46,1.39,3.46,3.24,0,2.25-1.64,3.77-4.64,3.77A7.18,7.18,0,0,1,368.37,42.86Z"/><path d="M380.16,42a.22.22,0,0,1,.24-.24h1.82a.23.23,0,0,1,.24.24v2.06a.23.23,0,0,1-.24.24H380.4a.22.22,0,0,1-.24-.24Z"/></g></g></svg>