<svg xmlns="http://www.w3.org/2000/svg" viewBox="0 0 435.46 19.17"><title>13b</title><g id="Capa_2" data-name="Capa 2"><g id="respuestas_contorno" data-name="respuestas contorno"><path d="M.4,12A12.71,12.71,0,0,1,0,7.72,12.67,12.67,0,0,1,.4,3.5,4.93,4.93,0,0,1,5.48,0a4.94,4.94,0,0,1,5.1,3.5A12.67,12.67,0,0,1,11,7.72a12.71,12.71,0,0,1-.4,4.23,4.94,4.94,0,0,1-5.1,3.5A4.93,4.93,0,0,1,.4,12Zm8.27-.55A13.09,13.09,0,0,0,9,7.72a13.06,13.06,0,0,0-.33-3.67A3,3,0,0,0,5.48,1.83,3,3,0,0,0,2.31,4.05,12.66,12.66,0,0,0,2,7.72a12.7,12.7,0,0,0,.33,3.68,3,3,0,0,0,3.17,2.22A3,3,0,0,0,8.67,11.4Z"/><path d="M13,15.2a.2.2,0,0,1-.22-.22V4.88A.2.2,0,0,1,13,4.67h1.41a.2.2,0,0,1,.22.21V6h0a2.94,2.94,0,0,1,2.8-1.54,3.26,3.26,0,0,1,2.15.79c.11.12.13.2,0,.31L18.83,6.6a.21.21,0,0,1-.31.05,2.93,2.93,0,0,0-1.62-.51c-1.61,0-2.27,1.25-2.27,3.08V15a.2.2,0,0,1-.22.22Z"/><path d="M26.69,15.2a.2.2,0,0,1-.22-.22V14h0a3.19,3.19,0,0,1-3,1.48,3.49,3.49,0,0,1-3.63-2.53,9,9,0,0,1-.37-3,8.92,8.92,0,0,1,.37-3,3.49,3.49,0,0,1,3.63-2.53,3.18,3.18,0,0,1,3,1.46h0V.46a.2.2,0,0,1,.22-.22h1.4a.2.2,0,0,1,.22.22V15a.2.2,0,0,1-.22.22Zm-.47-3.08a6.58,6.58,0,0,0,.25-2.2,6.73,6.73,0,0,0-.25-2.2,2.24,2.24,0,0,0-2.33-1.58,2.24,2.24,0,0,0-2.31,1.58,7.74,7.74,0,0,0-.24,2.2,7.51,7.51,0,0,0,.24,2.2,2.25,2.25,0,0,0,2.31,1.61A2.25,2.25,0,0,0,26.22,12.12Z"/><path d="M30.31,12.59A8.36,8.36,0,0,1,30,9.92a8.17,8.17,0,0,1,.33-2.66,4.08,4.08,0,0,1,4.14-2.84,4.1,4.1,0,0,1,4.14,2.84,9.21,9.21,0,0,1,.33,3,.22.22,0,0,1-.25.22H32c-.09,0-.13,0-.13.13A3.93,3.93,0,0,0,32,11.9a2.61,2.61,0,0,0,2.66,1.83,3.44,3.44,0,0,0,2.71-1.17.22.22,0,0,1,.33,0l.9.81a.2.2,0,0,1,0,.31,5.1,5.1,0,0,1-4.11,1.81A4.1,4.1,0,0,1,30.31,12.59ZM36.87,9C37,9,37,9,37,8.89a3.75,3.75,0,0,0-.15-1.19A2.6,2.6,0,0,0,32,7.7a3.75,3.75,0,0,0-.15,1.19c0,.09,0,.13.13.13Z"/><path d="M47.39,15.2a.2.2,0,0,1-.22-.22V8.82c0-1.69-.77-2.68-2.36-2.68a2.36,2.36,0,0,0-2.42,2.57V15a.2.2,0,0,1-.22.22H40.76a.2.2,0,0,1-.22-.22V4.88a.2.2,0,0,1,.22-.21h1.41a.2.2,0,0,1,.22.21v1h0a3.32,3.32,0,0,1,2.94-1.43C47.65,4.42,49,6,49,8.38V15a.2.2,0,0,1-.22.22Z"/><path d="M50.91,12.59a8.32,8.32,0,0,1-.36-2.67,8.17,8.17,0,0,1,.33-2.66,4.44,4.44,0,0,1,8.28,0,9.21,9.21,0,0,1,.33,3,.22.22,0,0,1-.24.22H52.58c-.09,0-.13,0-.13.13a3.93,3.93,0,0,0,.17,1.27,2.62,2.62,0,0,0,2.67,1.83A3.43,3.43,0,0,0,58,12.56a.22.22,0,0,1,.33,0l.9.81a.21.21,0,0,1,0,.31,5.13,5.13,0,0,1-4.12,1.81A4.08,4.08,0,0,1,50.91,12.59ZM57.46,9c.09,0,.13,0,.13-.13a3.75,3.75,0,0,0-.15-1.19,2.6,2.6,0,0,0-4.84,0,3.75,3.75,0,0,0-.15,1.19c0,.09,0,.13.13.13Z"/><path d="M67.63,15.31c-1.85,0-2.58-.88-2.58-2.77V.46a.21.21,0,0,1,.22-.22h1.41a.21.21,0,0,1,.22.22v12c0,.88.33,1.17,1.06,1.17h.41a.2.2,0,0,1,.22.22v1.27a.2.2,0,0,1-.22.22Z"/><path d="M69.58,12.61a8,8,0,0,1-.35-2.69,7.92,7.92,0,0,1,.35-2.66,4.47,4.47,0,0,1,8.32,0,7.92,7.92,0,0,1,.35,2.66,8,8,0,0,1-.35,2.69,4.47,4.47,0,0,1-8.32,0Zm6.54-.53a7.09,7.09,0,0,0,.24-2.16,6.91,6.91,0,0,0-.24-2.13,2.53,2.53,0,0,0-4.75,0,6.57,6.57,0,0,0-.25,2.13,6.73,6.73,0,0,0,.25,2.16,2.53,2.53,0,0,0,4.75,0Z"/><path d="M79.18,13.86a.21.21,0,0,1,0-.31l.9-1a.21.21,0,0,1,.31,0,5.12,5.12,0,0,0,3.25,1.21c1.54,0,2.31-.66,2.31-1.61s-.39-1.3-2-1.47l-1.13-.11c-2.06-.22-3.14-1.26-3.14-3,0-2,1.43-3.21,3.91-3.21a6.28,6.28,0,0,1,3.74,1.17.22.22,0,0,1,0,.31l-.75.94a.22.22,0,0,1-.31,0A5.54,5.54,0,0,0,83.44,6c-1.32,0-2,.59-2,1.45S82,8.76,83.51,8.91l1.1.11c2.14.2,3.17,1.28,3.17,3,0,2.07-1.5,3.46-4.25,3.46A6.52,6.52,0,0,1,79.18,13.86Z"/><path d="M93.54,15.2a.2.2,0,0,1-.22-.22V4.88a.2.2,0,0,1,.22-.21H95a.2.2,0,0,1,.22.21V6h0A2.94,2.94,0,0,1,98,4.42a3.26,3.26,0,0,1,2.15.79c.11.12.13.2,0,.31L99.37,6.6a.21.21,0,0,1-.31.05,2.93,2.93,0,0,0-1.62-.51c-1.61,0-2.27,1.25-2.27,3.08V15a.2.2,0,0,1-.22.22Z"/><path d="M100.34,12.59A8.36,8.36,0,0,1,100,9.92a8.17,8.17,0,0,1,.33-2.66,4.43,4.43,0,0,1,8.27,0,9.21,9.21,0,0,1,.33,3,.22.22,0,0,1-.24.22H102c-.09,0-.13,0-.13.13a3.9,3.9,0,0,0,.18,1.27,2.6,2.6,0,0,0,2.66,1.83,3.43,3.43,0,0,0,2.7-1.17.22.22,0,0,1,.33,0l.91.81a.2.2,0,0,1,0,.31,5.13,5.13,0,0,1-4.12,1.81A4.08,4.08,0,0,1,100.34,12.59ZM106.9,9a.12.12,0,0,0,.13-.13,3.72,3.72,0,0,0-.16-1.19,2.6,2.6,0,0,0-4.84,0,3.75,3.75,0,0,0-.15,1.19c0,.09,0,.13.13.13Z"/><path d="M109.84,13.86a.21.21,0,0,1,0-.31l.91-1a.2.2,0,0,1,.3,0,5.13,5.13,0,0,0,3.26,1.21c1.54,0,2.31-.66,2.31-1.61s-.4-1.3-2.05-1.47l-1.12-.11c-2.07-.22-3.15-1.26-3.15-3,0-2,1.43-3.21,3.92-3.21A6.3,6.3,0,0,1,118,5.59a.22.22,0,0,1,.05.31l-.75.94a.22.22,0,0,1-.31,0A5.54,5.54,0,0,0,114.11,6c-1.32,0-2,.59-2,1.45s.51,1.28,2.07,1.43l1.1.11c2.13.2,3.17,1.28,3.17,3,0,2.07-1.5,3.46-4.25,3.46A6.55,6.55,0,0,1,109.84,13.86Z"/><path d="M120.21,2.29a.21.21,0,0,1-.23-.22V.46a.21.21,0,0,1,.23-.22h1.49a.21.21,0,0,1,.22.22V2.07a.21.21,0,0,1-.22.22Zm0,12.91A.2.2,0,0,1,120,15V4.88a.2.2,0,0,1,.22-.21h1.41a.2.2,0,0,1,.22.21V15a.2.2,0,0,1-.22.22Z"/><path d="M130.77,15.2a.21.21,0,0,1-.23-.22V14h0a3.19,3.19,0,0,1-3,1.48,3.48,3.48,0,0,1-3.63-2.53,8.75,8.75,0,0,1-.37-3,8.67,8.67,0,0,1,.37-3,3.48,3.48,0,0,1,3.63-2.53,3.18,3.18,0,0,1,3,1.46h0V.46a.21.21,0,0,1,.23-.22h1.4a.2.2,0,0,1,.22.22V15a.2.2,0,0,1-.22.22Zm-.47-3.08a6.63,6.63,0,0,0,.24-2.2,6.79,6.79,0,0,0-.24-2.2,2.49,2.49,0,0,0-4.64,0,7.39,7.39,0,0,0-.24,2.2,7.18,7.18,0,0,0,.24,2.2,2.48,2.48,0,0,0,4.64,0Z"/><path d="M141.3,15.2a.2.2,0,0,1-.22-.22V14h0a3.22,3.22,0,0,1-2.88,1.46c-2.31,0-3.65-1.59-3.65-4V4.88a.2.2,0,0,1,.22-.21h1.4a.2.2,0,0,1,.22.21V11c0,1.72.77,2.71,2.34,2.71a2.34,2.34,0,0,0,2.37-2.6V4.88a.2.2,0,0,1,.22-.21h1.41a.2.2,0,0,1,.22.21V15a.2.2,0,0,1-.22.22Z"/><path d="M144.93,12.61a8,8,0,0,1-.35-2.69,7.92,7.92,0,0,1,.35-2.66,4.47,4.47,0,0,1,8.32,0,7.92,7.92,0,0,1,.35,2.66,8,8,0,0,1-.35,2.69,4.47,4.47,0,0,1-8.32,0Zm6.54-.53a7.09,7.09,0,0,0,.24-2.16,6.91,6.91,0,0,0-.24-2.13,2.54,2.54,0,0,0-4.76,0,6.91,6.91,0,0,0-.24,2.13,7.09,7.09,0,0,0,.24,2.16,2.54,2.54,0,0,0,4.76,0Z"/><path d="M154.52,13.86a.23.23,0,0,1,0-.31l.91-1a.2.2,0,0,1,.3,0A5.15,5.15,0,0,0,159,13.8c1.54,0,2.31-.66,2.31-1.61s-.39-1.3-2.05-1.47l-1.12-.11c-2.07-.22-3.14-1.26-3.14-3,0-2,1.43-3.21,3.91-3.21a6.3,6.3,0,0,1,3.74,1.17.22.22,0,0,1,.05.31l-.75.94a.22.22,0,0,1-.31,0A5.54,5.54,0,0,0,158.79,6c-1.32,0-2,.59-2,1.45s.51,1.28,2.07,1.43L160,9c2.13.2,3.17,1.28,3.17,3,0,2.07-1.5,3.46-4.25,3.46A6.55,6.55,0,0,1,154.52,13.86Z"/><path d="M175.05,15.2a.2.2,0,0,1-.22-.22v-.92h0a3.47,3.47,0,0,1-3.13,1.39c-2,0-3.54-1-3.54-3.17S169.68,9,172.26,9h2.39c.09,0,.14,0,.14-.13V8.12c0-1.45-.58-2.07-2.53-2.07a4.13,4.13,0,0,0-2.56.75c-.11.09-.24.09-.3,0l-.6-1a.23.23,0,0,1,0-.3,5.8,5.8,0,0,1,3.58-1c3,0,4.14,1,4.14,3.59v7a.2.2,0,0,1-.22.22Zm-.26-3.41V10.63c0-.09,0-.13-.14-.13h-2.11c-1.82,0-2.62.52-2.62,1.71s.8,1.65,2.2,1.65C173.77,13.86,174.79,13.09,174.79,11.79Z"/><path d="M178.46,7.26a4.07,4.07,0,0,1,4.16-2.84,4.22,4.22,0,0,1,3.61,1.79c.06.11.06.19-.07.3l-1,.79a.2.2,0,0,1-.31,0,2.58,2.58,0,0,0-2.26-1.14,2.29,2.29,0,0,0-2.36,1.65A7.21,7.21,0,0,0,180,9.92a7.3,7.3,0,0,0,.24,2.16,2.29,2.29,0,0,0,2.36,1.65,2.58,2.58,0,0,0,2.26-1.14.21.21,0,0,1,.31,0l1,.8c.13.11.13.19.07.3a4.24,4.24,0,0,1-3.61,1.79,4.09,4.09,0,0,1-4.16-2.84,9.08,9.08,0,0,1-.33-2.69A9,9,0,0,1,178.46,7.26Z"/><path d="M187.28,12.61a8,8,0,0,1-.35-2.69,7.92,7.92,0,0,1,.35-2.66,4.47,4.47,0,0,1,8.32,0A7.92,7.92,0,0,1,196,9.92a8,8,0,0,1-.35,2.69,4.47,4.47,0,0,1-8.32,0Zm6.54-.53a7.09,7.09,0,0,0,.24-2.16,6.91,6.91,0,0,0-.24-2.13,2.54,2.54,0,0,0-4.76,0,6.91,6.91,0,0,0-.24,2.13,7.09,7.09,0,0,0,.24,2.16,2.54,2.54,0,0,0,4.76,0Z"/><path d="M197.82,15.2a.2.2,0,0,1-.22-.22V4.88a.2.2,0,0,1,.22-.21h1.41a.2.2,0,0,1,.22.21V6h0a2.94,2.94,0,0,1,2.79-1.54,3.26,3.26,0,0,1,2.16.79c.11.12.13.2,0,.31l-.81,1.08a.21.21,0,0,1-.31.05,2.94,2.94,0,0,0-1.63-.51c-1.6,0-2.26,1.25-2.26,3.08V15a.2.2,0,0,1-.22.22Z"/><path d="M211.5,15.2a.2.2,0,0,1-.22-.22V14h0a3.2,3.2,0,0,1-3,1.48,3.48,3.48,0,0,1-3.63-2.53,8.72,8.72,0,0,1-.38-3,8.64,8.64,0,0,1,.38-3,3.48,3.48,0,0,1,3.63-2.53,3.19,3.19,0,0,1,3,1.46h0V.46a.21.21,0,0,1,.22-.22h1.41a.21.21,0,0,1,.22.22V15a.2.2,0,0,1-.22.22ZM211,12.12a6.63,6.63,0,0,0,.24-2.2,6.79,6.79,0,0,0-.24-2.2,2.49,2.49,0,0,0-4.64,0,7.39,7.39,0,0,0-.24,2.2,7.18,7.18,0,0,0,.24,2.2,2.48,2.48,0,0,0,4.64,0Z"/><path d="M215.13,12.59a8.36,8.36,0,0,1-.35-2.67,8.17,8.17,0,0,1,.33-2.66,4.43,4.43,0,0,1,8.27,0,9.21,9.21,0,0,1,.33,3,.21.21,0,0,1-.24.22H216.8a.12.12,0,0,0-.13.13,3.9,3.9,0,0,0,.18,1.27,2.6,2.6,0,0,0,2.66,1.83,3.44,3.44,0,0,0,2.71-1.17.22.22,0,0,1,.33,0l.9.81a.2.2,0,0,1,0,.31,5.1,5.1,0,0,1-4.11,1.81A4.09,4.09,0,0,1,215.13,12.59ZM221.69,9c.09,0,.13,0,.13-.13a3.75,3.75,0,0,0-.15-1.19,2.6,2.6,0,0,0-4.84,0,3.72,3.72,0,0,0-.16,1.19.12.12,0,0,0,.13.13Z"/><path d="M235.7,15.2a.2.2,0,0,1-.22-.22v-.92h0a3.46,3.46,0,0,1-3.12,1.39c-2,0-3.55-1-3.55-3.17S230.33,9,232.91,9h2.4a.12.12,0,0,0,.13-.13V8.12c0-1.45-.57-2.07-2.53-2.07a4.07,4.07,0,0,0-2.55.75c-.11.09-.25.09-.31,0l-.6-1a.23.23,0,0,1,.05-.3,5.8,5.8,0,0,1,3.58-1c3,0,4.14,1,4.14,3.59v7a.2.2,0,0,1-.22.22Zm-.26-3.41V10.63a.12.12,0,0,0-.13-.13h-2.12c-1.82,0-2.61.52-2.61,1.71s.79,1.65,2.2,1.65C234.43,13.86,235.44,13.09,235.44,11.79Z"/><path d="M243.6,15.2a.2.2,0,0,1-.22-.22V4.88a.2.2,0,0,1,.22-.21H245a.2.2,0,0,1,.22.21V6h0A2.94,2.94,0,0,1,248,4.42a3.26,3.26,0,0,1,2.16.79c.11.12.13.2.05.31l-.82,1.08a.21.21,0,0,1-.31.05,2.93,2.93,0,0,0-1.62-.51c-1.61,0-2.27,1.25-2.27,3.08V15a.2.2,0,0,1-.22.22Z"/><path d="M250.4,12.59A8.32,8.32,0,0,1,250,9.92a8.12,8.12,0,0,1,.34-2.66,4.43,4.43,0,0,1,8.27,0,9.21,9.21,0,0,1,.33,3,.22.22,0,0,1-.24.22h-6.67c-.09,0-.13,0-.13.13a3.93,3.93,0,0,0,.17,1.27,2.62,2.62,0,0,0,2.67,1.83,3.43,3.43,0,0,0,2.7-1.17.22.22,0,0,1,.33,0l.9.81a.21.21,0,0,1,0,.31,5.13,5.13,0,0,1-4.12,1.81A4.08,4.08,0,0,1,250.4,12.59ZM257,9c.09,0,.14,0,.14-.13a3.72,3.72,0,0,0-.16-1.19,2.6,2.6,0,0,0-4.84,0,3.75,3.75,0,0,0-.15,1.19c0,.09,0,.13.13.13Z"/><path d="M260.32,7.26a4.07,4.07,0,0,1,4.16-2.84,4.22,4.22,0,0,1,3.61,1.79c.06.11.06.19-.07.3l-1,.79a.2.2,0,0,1-.31,0,2.58,2.58,0,0,0-2.26-1.14,2.29,2.29,0,0,0-2.36,1.65,7.21,7.21,0,0,0-.24,2.13,7.3,7.3,0,0,0,.24,2.16,2.29,2.29,0,0,0,2.36,1.65,2.58,2.58,0,0,0,2.26-1.14.21.21,0,0,1,.31,0l1,.8c.13.11.13.19.07.3a4.24,4.24,0,0,1-3.61,1.79,4.09,4.09,0,0,1-4.16-2.84A9.08,9.08,0,0,1,260,9.92,9,9,0,0,1,260.32,7.26Z"/><path d="M269.87,2.29a.21.21,0,0,1-.22-.22V.46a.21.21,0,0,1,.22-.22h1.49a.2.2,0,0,1,.22.22V2.07a.2.2,0,0,1-.22.22Zm0,12.91a.2.2,0,0,1-.22-.22V4.88a.2.2,0,0,1,.22-.21h1.41a.2.2,0,0,1,.22.21V15a.2.2,0,0,1-.22.22Z"/><path d="M273.52,7.26a4.07,4.07,0,0,1,4.16-2.84,4.22,4.22,0,0,1,3.61,1.79c.06.11.06.19-.07.3l-1,.79a.2.2,0,0,1-.31,0,2.58,2.58,0,0,0-2.26-1.14,2.29,2.29,0,0,0-2.36,1.65,7.21,7.21,0,0,0-.24,2.13,7.3,7.3,0,0,0,.24,2.16,2.29,2.29,0,0,0,2.36,1.65,2.58,2.58,0,0,0,2.26-1.14.21.21,0,0,1,.31,0l1,.8c.13.11.13.19.07.3a4.24,4.24,0,0,1-3.61,1.79,4.09,4.09,0,0,1-4.16-2.84,9.08,9.08,0,0,1-.33-2.69A9,9,0,0,1,273.52,7.26Z"/><path d="M285.42,15.31c-1.85,0-2.57-.88-2.57-2.77V.46a.2.2,0,0,1,.22-.22h1.4a.2.2,0,0,1,.22.22v12c0,.88.33,1.17,1.06,1.17h.42a.21.21,0,0,1,.22.22v1.27a.2.2,0,0,1-.22.22Z"/><path d="M294,15.2a.2.2,0,0,1-.21-.22v-.92h0a3.46,3.46,0,0,1-3.12,1.39c-2,0-3.54-1-3.54-3.17S288.68,9,291.25,9h2.4c.09,0,.13,0,.13-.13V8.12c0-1.45-.57-2.07-2.53-2.07a4.07,4.07,0,0,0-2.55.75.2.2,0,0,1-.31,0l-.59-1a.22.22,0,0,1,0-.3,5.81,5.81,0,0,1,3.59-1c3,0,4.13,1,4.13,3.59v7a.2.2,0,0,1-.22.22Zm-.26-3.41V10.63c0-.09,0-.13-.13-.13h-2.11c-1.83,0-2.62.52-2.62,1.71s.79,1.65,2.2,1.65C292.77,13.86,293.78,13.09,293.78,11.79Z"/><path d="M298,15.2a.2.2,0,0,1-.22-.22V.46A.21.21,0,0,1,298,.24h1.41a.21.21,0,0,1,.22.22V5.88h0a3.2,3.2,0,0,1,3-1.46A3.47,3.47,0,0,1,306.25,7a8.64,8.64,0,0,1,.38,3,8.72,8.72,0,0,1-.38,3,3.47,3.47,0,0,1-3.62,2.53,3.21,3.21,0,0,1-3-1.48h0v1a.2.2,0,0,1-.22.22Zm6.52-3.08a7.51,7.51,0,0,0,.24-2.2,7.74,7.74,0,0,0-.24-2.2,2.5,2.5,0,0,0-4.65,0,7.08,7.08,0,0,0-.24,2.2,6.92,6.92,0,0,0,.24,2.2,2.48,2.48,0,0,0,4.65,0Z"/><path d="M310.81,15.31c-1.85,0-2.58-.88-2.58-2.77V.46a.21.21,0,0,1,.22-.22h1.41a.21.21,0,0,1,.22.22v12c0,.88.33,1.17,1.06,1.17h.42a.21.21,0,0,1,.22.22v1.27a.2.2,0,0,1-.22.22Z"/><path d="M312.77,12.59a8.32,8.32,0,0,1-.36-2.67,8.17,8.17,0,0,1,.33-2.66,4.44,4.44,0,0,1,8.28,0,9.21,9.21,0,0,1,.33,3,.22.22,0,0,1-.25.22h-6.66c-.09,0-.13,0-.13.13a3.93,3.93,0,0,0,.17,1.27,2.61,2.61,0,0,0,2.66,1.83,3.44,3.44,0,0,0,2.71-1.17.22.22,0,0,1,.33,0l.9.81a.2.2,0,0,1,0,.31A5.1,5.1,0,0,1,317,15.45,4.08,4.08,0,0,1,312.77,12.59ZM319.32,9c.09,0,.13,0,.13-.13a3.75,3.75,0,0,0-.15-1.19,2.6,2.6,0,0,0-4.84,0,3.75,3.75,0,0,0-.15,1.19c0,.09,0,.13.13.13Z"/><path d="M322.27,13.86a.21.21,0,0,1,0-.31l.9-1a.21.21,0,0,1,.31,0,5.13,5.13,0,0,0,3.26,1.21c1.54,0,2.31-.66,2.31-1.61s-.4-1.3-2.05-1.47l-1.12-.11c-2.07-.22-3.15-1.26-3.15-3,0-2,1.43-3.21,3.92-3.21a6.3,6.3,0,0,1,3.74,1.17.21.21,0,0,1,0,.31l-.75.94a.21.21,0,0,1-.3,0A5.57,5.57,0,0,0,326.54,6c-1.32,0-2,.59-2,1.45s.5,1.28,2.06,1.43l1.1.11c2.14.2,3.17,1.28,3.17,3,0,2.07-1.49,3.46-4.24,3.46A6.55,6.55,0,0,1,322.27,13.86Z"/><path d="M336.5,19.17a.21.21,0,0,1-.22-.23V17.67a.21.21,0,0,1,.22-.22h.4c.86,0,1.32-.38,1.78-1.59l.35-1-3.87-10c0-.13,0-.21.18-.21h1.54a.25.25,0,0,1,.26.21l2.77,7.62h0l2.66-7.62a.25.25,0,0,1,.26-.21h1.5c.13,0,.22.08.18.21L340.4,16c-.93,2.48-1.74,3.15-3.32,3.15Z"/><path d="M349.26,12.61a8,8,0,0,1-.35-2.69,7.92,7.92,0,0,1,.35-2.66,4.47,4.47,0,0,1,8.32,0,7.92,7.92,0,0,1,.35,2.66,8,8,0,0,1-.35,2.69,4.47,4.47,0,0,1-8.32,0Zm6.54-.53A7.09,7.09,0,0,0,356,9.92a6.91,6.91,0,0,0-.24-2.13,2.54,2.54,0,0,0-4.76,0,6.91,6.91,0,0,0-.24,2.13,7.09,7.09,0,0,0,.24,2.16,2.54,2.54,0,0,0,4.76,0Z"/><path d="M359.8,15.2a.2.2,0,0,1-.22-.22V4.88a.2.2,0,0,1,.22-.21h1.41a.2.2,0,0,1,.22.21V6h0a2.94,2.94,0,0,1,2.8-1.54,3.26,3.26,0,0,1,2.15.79c.11.12.13.2.05.31l-.82,1.08a.21.21,0,0,1-.31.05,2.93,2.93,0,0,0-1.62-.51c-1.61,0-2.27,1.25-2.27,3.08V15a.2.2,0,0,1-.22.22Z"/><path d="M373.49,15.2a.2.2,0,0,1-.22-.22V14h0a3.2,3.2,0,0,1-3,1.48,3.48,3.48,0,0,1-3.63-2.53,8.75,8.75,0,0,1-.37-3,8.67,8.67,0,0,1,.37-3,3.48,3.48,0,0,1,3.63-2.53,3.19,3.19,0,0,1,3,1.46h0V.46a.2.2,0,0,1,.22-.22h1.4a.2.2,0,0,1,.22.22V15a.2.2,0,0,1-.22.22ZM373,12.12a6.58,6.58,0,0,0,.25-2.2,6.73,6.73,0,0,0-.25-2.2,2.49,2.49,0,0,0-4.64,0,7.74,7.74,0,0,0-.24,2.2,7.51,7.51,0,0,0,.24,2.2,2.48,2.48,0,0,0,4.64,0Z"/><path d="M377.58,2.29a.2.2,0,0,1-.22-.22V.46a.2.2,0,0,1,.22-.22h1.49a.21.21,0,0,1,.22.22V2.07a.21.21,0,0,1-.22.22Zm0,12.91a.2.2,0,0,1-.22-.22V4.88a.2.2,0,0,1,.22-.21H379a.2.2,0,0,1,.22.21V15a.2.2,0,0,1-.22.22Z"/><path d="M388.38,15.2a.2.2,0,0,1-.22-.22V8.82c0-1.69-.77-2.68-2.36-2.68a2.36,2.36,0,0,0-2.42,2.57V15a.2.2,0,0,1-.22.22h-1.4a.2.2,0,0,1-.22-.22V4.88a.2.2,0,0,1,.22-.21h1.4a.2.2,0,0,1,.22.21v1h0a3.32,3.32,0,0,1,2.94-1.43c2.29,0,3.66,1.57,3.66,4V15a.2.2,0,0,1-.22.22Z"/><path d="M398.56,15.2a.2.2,0,0,1-.22-.22v-.92h0a3.46,3.46,0,0,1-3.12,1.39c-2,0-3.54-1-3.54-3.17S393.2,9,395.77,9h2.4c.09,0,.13,0,.13-.13V8.12c0-1.45-.57-2.07-2.53-2.07a4.07,4.07,0,0,0-2.55.75.2.2,0,0,1-.31,0l-.59-1a.22.22,0,0,1,0-.3,5.81,5.81,0,0,1,3.59-1c3,0,4.13,1,4.13,3.59v7a.2.2,0,0,1-.22.22Zm-.26-3.41V10.63c0-.09,0-.13-.13-.13h-2.11c-1.83,0-2.62.52-2.62,1.71s.79,1.65,2.2,1.65C397.29,13.86,398.3,13.09,398.3,11.79Z"/><path d="M402.5,15.2a.2.2,0,0,1-.22-.22V4.88a.2.2,0,0,1,.22-.21h1.41a.2.2,0,0,1,.22.21V6h0A2.94,2.94,0,0,1,407,4.42a3.26,3.26,0,0,1,2.15.79c.11.12.13.2,0,.31l-.82,1.08a.21.21,0,0,1-.31.05,2.93,2.93,0,0,0-1.62-.51c-1.61,0-2.27,1.25-2.27,3.08V15a.2.2,0,0,1-.22.22Z"/><path d="M410.16,2.29a.21.21,0,0,1-.22-.22V.46a.21.21,0,0,1,.22-.22h1.49a.2.2,0,0,1,.22.22V2.07a.2.2,0,0,1-.22.22Zm0,12.91A.2.2,0,0,1,410,15V4.88a.2.2,0,0,1,.22-.21h1.41a.2.2,0,0,1,.22.21V15a.2.2,0,0,1-.22.22Z"/><path d="M413.83,12.61a8,8,0,0,1-.35-2.69,7.92,7.92,0,0,1,.35-2.66,4.47,4.47,0,0,1,8.32,0,7.92,7.92,0,0,1,.35,2.66,8,8,0,0,1-.35,2.69,4.47,4.47,0,0,1-8.32,0Zm6.54-.53a7.09,7.09,0,0,0,.24-2.16,6.91,6.91,0,0,0-.24-2.13,2.54,2.54,0,0,0-4.76,0,6.91,6.91,0,0,0-.24,2.13,7.09,7.09,0,0,0,.24,2.16,2.54,2.54,0,0,0,4.76,0Z"/><path d="M423.42,13.86a.21.21,0,0,1,0-.31l.9-1a.21.21,0,0,1,.31,0,5.13,5.13,0,0,0,3.26,1.21c1.54,0,2.31-.66,2.31-1.61s-.4-1.3-2.05-1.47L427,10.61c-2.07-.22-3.15-1.26-3.15-3,0-2,1.43-3.21,3.92-3.21a6.3,6.3,0,0,1,3.74,1.17.21.21,0,0,1,0,.31l-.74.94a.22.22,0,0,1-.31,0A5.54,5.54,0,0,0,427.69,6c-1.32,0-2,.59-2,1.45s.5,1.28,2.07,1.43l1.1.11c2.13.2,3.17,1.28,3.17,3,0,2.07-1.5,3.46-4.25,3.46A6.55,6.55,0,0,1,423.42,13.86Z"/><path d="M433.34,13.09a.21.21,0,0,1,.22-.22h1.68a.21.21,0,0,1,.22.22V15a.2.2,0,0,1-.22.22h-1.68a.2.2,0,0,1-.22-.22Z"/></g></g></svg>