<svg xmlns="http://www.w3.org/2000/svg" viewBox="0 0 295.99 48.91"><title>13b</title><g id="Capa_2" data-name="Capa 2"><g id="answer_copia" data-name="answer copia"><path d="M.43,13A14.06,14.06,0,0,1,0,8.42a14,14,0,0,1,.43-4.6A5.39,5.39,0,0,1,6,0a5.4,5.4,0,0,1,5.57,3.82A14,14,0,0,1,12,8.42,14.06,14.06,0,0,1,11.55,13,5.4,5.4,0,0,1,6,16.85,5.39,5.39,0,0,1,.43,13Zm9-.6a14,14,0,0,0,.36-4,14,14,0,0,0-.36-4A3.34,3.34,0,0,0,6,2,3.32,3.32,0,0,0,2.52,4.42a14,14,0,0,0-.36,4,14,14,0,0,0,.36,4A3.32,3.32,0,0,0,6,14.86,3.34,3.34,0,0,0,9.46,12.43Z"/><path d="M15.14,16.59a.23.23,0,0,1-.24-.24v-11a.23.23,0,0,1,.24-.24h1.54a.23.23,0,0,1,.24.24V6.5h0a3.23,3.23,0,0,1,3-1.68,3.51,3.51,0,0,1,2.35.87c.12.12.15.21.05.33L21.5,7.2a.21.21,0,0,1-.33,0,3.23,3.23,0,0,0-1.78-.55c-1.75,0-2.47,1.36-2.47,3.36v6.29a.23.23,0,0,1-.24.24Z"/><path d="M31,16.59a.23.23,0,0,1-.24-.24V15.24h0a3.51,3.51,0,0,1-3.27,1.61,3.81,3.81,0,0,1-4-2.76,9.61,9.61,0,0,1-.4-3.26,9.66,9.66,0,0,1,.4-3.25,3.81,3.81,0,0,1,4-2.76,3.5,3.5,0,0,1,3.27,1.59h0V.5A.23.23,0,0,1,31,.26h1.54a.23.23,0,0,1,.24.24V16.35a.23.23,0,0,1-.24.24Zm-.5-3.36a7.51,7.51,0,0,0,.26-2.4,7.62,7.62,0,0,0-.26-2.41A2.44,2.44,0,0,0,28,6.7a2.45,2.45,0,0,0-2.52,1.72,8.33,8.33,0,0,0-.26,2.41,8.09,8.09,0,0,0,.26,2.4A2.47,2.47,0,0,0,28,15,2.47,2.47,0,0,0,30.53,13.23Z"/><path d="M36,13.73a9,9,0,0,1-.38-2.9,8.93,8.93,0,0,1,.36-2.91,4.45,4.45,0,0,1,4.51-3.1A4.45,4.45,0,0,1,45,7.92a10.08,10.08,0,0,1,.36,3.29.23.23,0,0,1-.26.24H37.78c-.1,0-.15.05-.15.14a4.37,4.37,0,0,0,.19,1.4,2.84,2.84,0,0,0,2.91,2,3.74,3.74,0,0,0,3-1.27c.12-.13.24-.15.36-.05l1,.89a.21.21,0,0,1,0,.33,5.59,5.59,0,0,1-4.49,2A4.45,4.45,0,0,1,36,13.73ZM43.1,9.84c.1,0,.15-.05.15-.14a4.06,4.06,0,0,0-.17-1.3,2.84,2.84,0,0,0-5.28,0,4.06,4.06,0,0,0-.17,1.3c0,.09,0,.14.15.14Z"/><path d="M55.54,16.59a.23.23,0,0,1-.24-.24V9.63c0-1.85-.84-2.93-2.57-2.93a2.58,2.58,0,0,0-2.64,2.8v6.85a.23.23,0,0,1-.24.24H48.31a.23.23,0,0,1-.24-.24v-11a.23.23,0,0,1,.24-.24h1.54a.23.23,0,0,1,.24.24v1h0a3.67,3.67,0,0,1,3.22-1.56c2.5,0,4,1.71,4,4.32v7.21a.23.23,0,0,1-.24.24Z"/><path d="M60.34,13.73a8.94,8.94,0,0,1-.39-2.9,8.93,8.93,0,0,1,.36-2.91,4.84,4.84,0,0,1,9,0,10.08,10.08,0,0,1,.36,3.29.24.24,0,0,1-.27.24H62.16a.12.12,0,0,0-.14.14,4.37,4.37,0,0,0,.19,1.4,2.83,2.83,0,0,0,2.9,2,3.74,3.74,0,0,0,3-1.27c.12-.13.24-.15.36-.05l1,.89a.21.21,0,0,1,0,.33,5.59,5.59,0,0,1-4.49,2A4.44,4.44,0,0,1,60.34,13.73Zm7.15-3.89a.13.13,0,0,0,.14-.14,4.06,4.06,0,0,0-.17-1.3,2.84,2.84,0,0,0-5.28,0A4.08,4.08,0,0,0,62,9.7a.12.12,0,0,0,.14.14Z"/><path d="M80.5,16.71c-2,0-2.81-1-2.81-3V.5a.23.23,0,0,1,.24-.24h1.53A.23.23,0,0,1,79.7.5V13.56c0,1,.36,1.27,1.16,1.27h.45a.23.23,0,0,1,.24.24v1.4a.23.23,0,0,1-.24.24Z"/><path d="M83.59,13.75a8.7,8.7,0,0,1-.38-2.92,8.68,8.68,0,0,1,.38-2.91,4.87,4.87,0,0,1,9.08,0,8.68,8.68,0,0,1,.38,2.91,8.7,8.7,0,0,1-.38,2.92,4.87,4.87,0,0,1-9.08,0Zm7.13-.57A7.64,7.64,0,0,0,91,10.83a7.41,7.41,0,0,0-.26-2.33,2.76,2.76,0,0,0-5.18,0,7.08,7.08,0,0,0-.27,2.33,7.29,7.29,0,0,0,.27,2.35,2.76,2.76,0,0,0,5.18,0Z"/><path d="M95,15.12a.22.22,0,0,1,0-.33l1-1.06a.23.23,0,0,1,.34,0,5.6,5.6,0,0,0,3.55,1.32c1.68,0,2.52-.72,2.52-1.75s-.43-1.42-2.23-1.61L99,11.57c-2.25-.24-3.43-1.37-3.43-3.24,0-2.19,1.56-3.51,4.27-3.51a6.88,6.88,0,0,1,4.08,1.28.23.23,0,0,1,0,.33l-.82,1a.23.23,0,0,1-.33,0,6.07,6.07,0,0,0-3.1-.93c-1.44,0-2.18.64-2.18,1.58S98,9.55,99.74,9.72l1.2.12c2.33.22,3.46,1.39,3.46,3.24,0,2.26-1.63,3.77-4.63,3.77A7.11,7.11,0,0,1,95,15.12Z"/><path d="M112.61,16.59a.23.23,0,0,1-.24-.24v-11a.22.22,0,0,1,.24-.24h1.53a.22.22,0,0,1,.24.24V6.5h0a3.2,3.2,0,0,1,3-1.68,3.53,3.53,0,0,1,2.35.87c.12.12.14.21,0,.33L119,7.2a.23.23,0,0,1-.34,0,3.19,3.19,0,0,0-1.77-.55c-1.76,0-2.48,1.36-2.48,3.36v6.29a.23.23,0,0,1-.24.24Z"/><path d="M121,13.73a9,9,0,0,1-.38-2.9A8.93,8.93,0,0,1,121,7.92a4.83,4.83,0,0,1,9,0,10.08,10.08,0,0,1,.36,3.29.23.23,0,0,1-.26.24h-7.27c-.1,0-.15.05-.15.14a4.33,4.33,0,0,0,.2,1.4,2.83,2.83,0,0,0,2.9,2,3.74,3.74,0,0,0,3-1.27c.12-.13.24-.15.36-.05l1,.89a.21.21,0,0,1,0,.33,5.59,5.59,0,0,1-4.49,2A4.45,4.45,0,0,1,121,13.73Zm7.16-3.89a.13.13,0,0,0,.14-.14,4.06,4.06,0,0,0-.17-1.3,2.84,2.84,0,0,0-5.28,0,4.06,4.06,0,0,0-.17,1.3c0,.09,0,.14.15.14Z"/><path d="M132.31,15.12a.22.22,0,0,1,0-.33l1-1.06a.23.23,0,0,1,.34,0,5.62,5.62,0,0,0,3.55,1.32c1.68,0,2.52-.72,2.52-1.75s-.43-1.42-2.23-1.61l-1.22-.12c-2.26-.24-3.44-1.37-3.44-3.24,0-2.19,1.57-3.51,4.28-3.51a6.88,6.88,0,0,1,4.08,1.28.23.23,0,0,1,.05.33l-.82,1a.24.24,0,0,1-.34,0A6,6,0,0,0,137,6.58c-1.44,0-2.19.64-2.19,1.58s.55,1.39,2.26,1.56l1.2.12c2.33.22,3.46,1.39,3.46,3.24,0,2.26-1.64,3.77-4.64,3.77A7.13,7.13,0,0,1,132.31,15.12Z"/><path d="M144.57,2.5a.23.23,0,0,1-.24-.24V.5a.23.23,0,0,1,.24-.24h1.64a.23.23,0,0,1,.24.24V2.26a.23.23,0,0,1-.24.24Zm.05,14.09a.23.23,0,0,1-.24-.24v-11a.23.23,0,0,1,.24-.24h1.54a.23.23,0,0,1,.24.24v11a.23.23,0,0,1-.24.24Z"/><path d="M157.05,16.59a.23.23,0,0,1-.24-.24V15.24h0a3.5,3.5,0,0,1-3.26,1.61,3.79,3.79,0,0,1-4-2.76,9.34,9.34,0,0,1-.41-3.26,9.38,9.38,0,0,1,.41-3.25,3.79,3.79,0,0,1,4-2.76,3.49,3.49,0,0,1,3.26,1.59h0V.5a.23.23,0,0,1,.24-.24h1.54a.23.23,0,0,1,.24.24V16.35a.23.23,0,0,1-.24.24Zm-.5-3.36a7.51,7.51,0,0,0,.26-2.4,7.62,7.62,0,0,0-.26-2.41,2.72,2.72,0,0,0-5.06,0,8,8,0,0,0-.27,2.41,7.72,7.72,0,0,0,.27,2.4,2.7,2.7,0,0,0,5.06,0Z"/><path d="M169.51,16.59a.23.23,0,0,1-.24-.24V15.27h0a3.51,3.51,0,0,1-3.15,1.58c-2.52,0-4-1.73-4-4.35V5.33a.22.22,0,0,1,.24-.24h1.53a.22.22,0,0,1,.24.24V12c0,1.88.84,3,2.55,3a2.55,2.55,0,0,0,2.59-2.83V5.33a.23.23,0,0,1,.24-.24h1.54a.23.23,0,0,1,.24.24v11a.23.23,0,0,1-.24.24Z"/><path d="M174.43,13.75a8.67,8.67,0,0,1-.39-2.92,8.64,8.64,0,0,1,.39-2.91,4.87,4.87,0,0,1,9.07,0,8.4,8.4,0,0,1,.39,2.91,8.42,8.42,0,0,1-.39,2.92,4.87,4.87,0,0,1-9.07,0Zm7.13-.57a7.64,7.64,0,0,0,.26-2.35,7.41,7.41,0,0,0-.26-2.33,2.77,2.77,0,0,0-5.19,0,7.41,7.41,0,0,0-.26,2.33,7.64,7.64,0,0,0,.26,2.35,2.77,2.77,0,0,0,5.19,0Z"/><path d="M185.85,15.12a.24.24,0,0,1,0-.33l1-1.06a.22.22,0,0,1,.33,0,5.63,5.63,0,0,0,3.56,1.32c1.68,0,2.52-.72,2.52-1.75s-.44-1.42-2.24-1.61l-1.22-.12c-2.26-.24-3.43-1.37-3.43-3.24,0-2.19,1.56-3.51,4.27-3.51a6.88,6.88,0,0,1,4.08,1.28.23.23,0,0,1,0,.33l-.82,1a.23.23,0,0,1-.33,0,6.07,6.07,0,0,0-3.1-.93c-1.44,0-2.18.64-2.18,1.58s.55,1.39,2.25,1.56l1.2.12c2.33.22,3.46,1.39,3.46,3.24,0,2.26-1.63,3.77-4.63,3.77A7.14,7.14,0,0,1,185.85,15.12Z"/><path d="M210.17,16.59a.23.23,0,0,1-.24-.24v-1h0a3.77,3.77,0,0,1-3.41,1.51c-2.18,0-3.86-1.13-3.86-3.46s1.68-3.55,4.49-3.55h2.61c.1,0,.15-.05.15-.14V8.86c0-1.59-.63-2.26-2.76-2.26a4.48,4.48,0,0,0-2.79.82c-.12.09-.26.09-.33,0l-.65-1.1A.26.26,0,0,1,203.4,6a6.36,6.36,0,0,1,3.91-1.13c3.26,0,4.51,1.08,4.51,3.92v7.61a.23.23,0,0,1-.24.24Zm-.29-3.72V11.59c0-.09,0-.14-.15-.14h-2.3c-2,0-2.86.57-2.86,1.87s.87,1.8,2.4,1.8C208.77,15.12,209.88,14.28,209.88,12.87Z"/><path d="M214.84,7.92a4.46,4.46,0,0,1,4.54-3.1,4.62,4.62,0,0,1,3.94,1.95c.07.12.07.21-.07.33L222.19,8a.22.22,0,0,1-.34,0,2.82,2.82,0,0,0-2.47-1.24,2.5,2.5,0,0,0-2.57,1.8,7.75,7.75,0,0,0-.26,2.33,7.81,7.81,0,0,0,.26,2.35,2.5,2.5,0,0,0,2.57,1.8,2.82,2.82,0,0,0,2.47-1.25.22.22,0,0,1,.34,0l1.06.86a.23.23,0,0,1,.07.34,4.62,4.62,0,0,1-3.94,1.94,4.45,4.45,0,0,1-4.54-3.1,10.08,10.08,0,0,1-.36-2.92A10.1,10.1,0,0,1,214.84,7.92Z"/><path d="M225.43,13.75a8.42,8.42,0,0,1-.39-2.92,8.4,8.4,0,0,1,.39-2.91,4.87,4.87,0,0,1,9.07,0,8.43,8.43,0,0,1,.38,2.91,8.45,8.45,0,0,1-.38,2.92,4.87,4.87,0,0,1-9.07,0Zm7.13-.57a7.64,7.64,0,0,0,.26-2.35,7.41,7.41,0,0,0-.26-2.33,2.77,2.77,0,0,0-5.19,0,7.41,7.41,0,0,0-.26,2.33,7.64,7.64,0,0,0,.26,2.35,2.77,2.77,0,0,0,5.19,0Z"/><path d="M237.88,16.59a.23.23,0,0,1-.24-.24v-11a.23.23,0,0,1,.24-.24h1.54a.23.23,0,0,1,.24.24V6.5h0a3.23,3.23,0,0,1,3-1.68,3.51,3.51,0,0,1,2.35.87c.13.12.15.21,0,.33l-.88,1.18a.23.23,0,0,1-.34,0,3.23,3.23,0,0,0-1.78-.55c-1.75,0-2.47,1.36-2.47,3.36v6.29a.23.23,0,0,1-.24.24Z"/><path d="M253.77,16.59a.23.23,0,0,1-.24-.24V15.24h0a3.5,3.5,0,0,1-3.26,1.61,3.81,3.81,0,0,1-4-2.76,9.61,9.61,0,0,1-.4-3.26,9.66,9.66,0,0,1,.4-3.25,3.81,3.81,0,0,1,4-2.76,3.49,3.49,0,0,1,3.26,1.59h0V.5a.23.23,0,0,1,.24-.24h1.54a.23.23,0,0,1,.24.24V16.35a.23.23,0,0,1-.24.24Zm-.5-3.36a7.51,7.51,0,0,0,.26-2.4,7.62,7.62,0,0,0-.26-2.41,2.73,2.73,0,0,0-5.07,0,8.33,8.33,0,0,0-.26,2.41,8.09,8.09,0,0,0,.26,2.4,2.71,2.71,0,0,0,5.07,0Z"/><path d="M258.69,13.73a9,9,0,0,1-.38-2.9,8.93,8.93,0,0,1,.36-2.91,4.83,4.83,0,0,1,9,0,10.08,10.08,0,0,1,.36,3.29.23.23,0,0,1-.26.24h-7.27c-.1,0-.15.05-.15.14a4.37,4.37,0,0,0,.19,1.4,2.84,2.84,0,0,0,2.91,2,3.74,3.74,0,0,0,2.95-1.27c.12-.13.24-.15.36-.05l1,.89a.21.21,0,0,1,0,.33,5.59,5.59,0,0,1-4.49,2A4.45,4.45,0,0,1,258.69,13.73Zm7.15-3.89c.1,0,.15-.05.15-.14a4.06,4.06,0,0,0-.17-1.3,2.84,2.84,0,0,0-5.28,0,4.06,4.06,0,0,0-.17,1.3c0,.09.05.14.15.14Z"/><path d="M270,15.12a.22.22,0,0,1,0-.33l1-1.06a.23.23,0,0,1,.34,0,5.6,5.6,0,0,0,3.55,1.32c1.68,0,2.52-.72,2.52-1.75s-.43-1.42-2.23-1.61L274,11.57c-2.26-.24-3.44-1.37-3.44-3.24,0-2.19,1.56-3.51,4.28-3.51a6.88,6.88,0,0,1,4.08,1.28.22.22,0,0,1,0,.33l-.81,1a.24.24,0,0,1-.34,0,6,6,0,0,0-3.09-.93c-1.44,0-2.19.64-2.19,1.58s.55,1.39,2.26,1.56l1.2.12c2.33.22,3.46,1.39,3.46,3.24,0,2.26-1.64,3.77-4.64,3.77A7.13,7.13,0,0,1,270,15.12Z"/><path d="M294.33,16.59a.23.23,0,0,1-.24-.24v-1h0a3.79,3.79,0,0,1-3.41,1.51c-2.18,0-3.86-1.13-3.86-3.46s1.68-3.55,4.48-3.55h2.62A.12.12,0,0,0,294,9.7V8.86c0-1.59-.62-2.26-2.76-2.26a4.46,4.46,0,0,0-2.78.82.22.22,0,0,1-.34,0l-.64-1.1a.26.26,0,0,1,0-.34,6.42,6.42,0,0,1,3.92-1.13c3.26,0,4.51,1.08,4.51,3.92v7.61a.23.23,0,0,1-.24.24ZM294,12.87V11.59a.12.12,0,0,0-.14-.14h-2.3c-2,0-2.86.57-2.86,1.87s.86,1.8,2.4,1.8C292.94,15.12,294,14.28,294,12.87Z"/><path d="M.77,44.59a.23.23,0,0,1-.24-.24v-11a.22.22,0,0,1,.24-.24H2.3a.22.22,0,0,1,.24.24V34.5h0a3.2,3.2,0,0,1,3.05-1.68A3.53,3.53,0,0,1,8,33.69c.12.12.14.21,0,.33L7.13,35.2a.23.23,0,0,1-.34,0A3.19,3.19,0,0,0,5,34.7c-1.76,0-2.48,1.36-2.48,3.36v6.29a.23.23,0,0,1-.24.24Z"/><path d="M9.14,41.73a9,9,0,0,1-.38-2.9,8.93,8.93,0,0,1,.36-2.91,4.45,4.45,0,0,1,4.51-3.1,4.46,4.46,0,0,1,4.52,3.1,10.08,10.08,0,0,1,.36,3.29.24.24,0,0,1-.27.24H11a.12.12,0,0,0-.14.14A4.37,4.37,0,0,0,11,41a2.83,2.83,0,0,0,2.9,2,3.74,3.74,0,0,0,3-1.27c.12-.13.24-.15.36-.05l1,.89a.21.21,0,0,1,0,.33,5.59,5.59,0,0,1-4.49,2A4.45,4.45,0,0,1,9.14,41.73Zm7.16-3.89a.13.13,0,0,0,.14-.14,4.06,4.06,0,0,0-.17-1.3,2.59,2.59,0,0,0-2.64-1.8A2.61,2.61,0,0,0,11,36.4a4.08,4.08,0,0,0-.16,1.3.12.12,0,0,0,.14.14Z"/><path d="M20.93,35.92a4.46,4.46,0,0,1,4.53-3.1,4.61,4.61,0,0,1,3.94,2c.07.12.07.21-.07.33L28.27,36a.21.21,0,0,1-.33,0,2.82,2.82,0,0,0-2.48-1.24,2.49,2.49,0,0,0-2.56,1.8,7.7,7.7,0,0,0-.27,2.33,7.76,7.76,0,0,0,.27,2.35A2.49,2.49,0,0,0,25.46,43a2.83,2.83,0,0,0,2.48-1.25.21.21,0,0,1,.33,0l1.06.86a.23.23,0,0,1,.07.34,4.6,4.6,0,0,1-3.94,1.94,4.45,4.45,0,0,1-4.53-3.1,9.74,9.74,0,0,1-.36-2.92A9.76,9.76,0,0,1,20.93,35.92Z"/><path d="M32.3,30.5a.23.23,0,0,1-.24-.24V28.5a.23.23,0,0,1,.24-.24h1.64a.23.23,0,0,1,.24.24v1.76a.23.23,0,0,1-.24.24Zm.05,14.09a.23.23,0,0,1-.24-.24v-11a.23.23,0,0,1,.24-.24h1.54a.23.23,0,0,1,.24.24v11a.23.23,0,0,1-.24.24Z"/><path d="M37.25,35.92a4.46,4.46,0,0,1,4.53-3.1,4.61,4.61,0,0,1,3.94,2c.07.12.07.21-.07.33L44.59,36a.21.21,0,0,1-.33,0,2.83,2.83,0,0,0-2.48-1.24,2.49,2.49,0,0,0-2.56,1.8A7.39,7.39,0,0,0,39,38.83a7.45,7.45,0,0,0,.27,2.35A2.49,2.49,0,0,0,41.78,43a2.84,2.84,0,0,0,2.48-1.25.21.21,0,0,1,.33,0l1.06.86a.23.23,0,0,1,.07.34,4.6,4.6,0,0,1-3.94,1.94,4.45,4.45,0,0,1-4.53-3.1,9.74,9.74,0,0,1-.36-2.92A9.76,9.76,0,0,1,37.25,35.92Z"/><path d="M51.19,44.71c-2,0-2.81-1-2.81-3V28.5a.23.23,0,0,1,.24-.24h1.54a.23.23,0,0,1,.24.24V41.56c0,1,.36,1.27,1.15,1.27H52a.23.23,0,0,1,.24.24v1.4a.23.23,0,0,1-.24.24Z"/><path d="M61.56,44.59a.23.23,0,0,1-.24-.24v-1h0a3.79,3.79,0,0,1-3.41,1.51c-2.19,0-3.87-1.13-3.87-3.46s1.68-3.55,4.49-3.55h2.62a.13.13,0,0,0,.14-.14v-.84c0-1.59-.62-2.26-2.76-2.26a4.46,4.46,0,0,0-2.78.82.22.22,0,0,1-.34,0l-.65-1.1a.27.27,0,0,1,0-.34,6.4,6.4,0,0,1,3.91-1.13c3.27,0,4.52,1.08,4.52,3.92v7.61a.23.23,0,0,1-.24.24Zm-.29-3.72V39.59a.13.13,0,0,0-.14-.14H58.82c-2,0-2.85.57-2.85,1.87s.86,1.8,2.4,1.8C60.17,43.12,61.27,42.28,61.27,40.87Z"/><path d="M66.82,44.59a.23.23,0,0,1-.24-.24V28.5a.23.23,0,0,1,.24-.24h1.53a.23.23,0,0,1,.24.24v5.91h0a3.48,3.48,0,0,1,3.26-1.59,3.81,3.81,0,0,1,4,2.76,9.63,9.63,0,0,1,.41,3.25,9.58,9.58,0,0,1-.41,3.26,3.81,3.81,0,0,1-4,2.76,3.49,3.49,0,0,1-3.26-1.61h0v1.11a.23.23,0,0,1-.24.24Zm7.1-3.36a8.09,8.09,0,0,0,.26-2.4,8.33,8.33,0,0,0-.26-2.41,2.72,2.72,0,0,0-5.06,0,7.28,7.28,0,0,0-.27,2.41,7.17,7.17,0,0,0,.27,2.4,2.7,2.7,0,0,0,5.06,0Z"/><path d="M81.77,44.71c-2,0-2.81-1-2.81-3V28.5a.23.23,0,0,1,.24-.24h1.54a.23.23,0,0,1,.24.24V41.56c0,1,.36,1.27,1.15,1.27h.45a.23.23,0,0,1,.24.24v1.4a.23.23,0,0,1-.24.24Z"/><path d="M84.86,41.73a9,9,0,0,1-.38-2.9,8.93,8.93,0,0,1,.36-2.91,4.83,4.83,0,0,1,9,0,10.08,10.08,0,0,1,.36,3.29.23.23,0,0,1-.26.24H86.69c-.1,0-.15,0-.15.14a4.33,4.33,0,0,0,.2,1.4,2.83,2.83,0,0,0,2.9,2,3.74,3.74,0,0,0,3-1.27c.12-.13.24-.15.36-.05l1,.89a.21.21,0,0,1,0,.33,5.59,5.59,0,0,1-4.49,2A4.45,4.45,0,0,1,84.86,41.73ZM92,37.84a.13.13,0,0,0,.14-.14A4.06,4.06,0,0,0,92,36.4a2.84,2.84,0,0,0-5.28,0,4.06,4.06,0,0,0-.17,1.3c0,.09,0,.14.15.14Z"/><path d="M96.19,43.12a.24.24,0,0,1,0-.33l1-1.06a.22.22,0,0,1,.33,0,5.62,5.62,0,0,0,3.55,1.32c1.68,0,2.52-.72,2.52-1.75s-.43-1.42-2.23-1.61l-1.22-.12c-2.26-.24-3.43-1.37-3.43-3.24,0-2.19,1.56-3.51,4.27-3.51a6.88,6.88,0,0,1,4.08,1.28.23.23,0,0,1,0,.33l-.82,1a.24.24,0,0,1-.34,0,6,6,0,0,0-3.09-.93c-1.44,0-2.19.64-2.19,1.58s.56,1.39,2.26,1.56l1.2.12c2.33.22,3.46,1.39,3.46,3.24,0,2.26-1.64,3.77-4.64,3.77A7.13,7.13,0,0,1,96.19,43.12Z"/><path d="M113.64,48.91a.23.23,0,0,1-.24-.24v-1.4a.23.23,0,0,1,.24-.24h.43c.94,0,1.44-.4,2-1.72l.38-1.06-4.23-10.92c0-.15,0-.24.2-.24h1.68a.27.27,0,0,1,.28.24l3,8.3h0l2.9-8.3a.28.28,0,0,1,.29-.24h1.63c.15,0,.24.09.19.24l-4.53,12.14c-1,2.72-1.9,3.44-3.63,3.44Z"/><path d="M129.48,41.75a8.42,8.42,0,0,1-.39-2.92,8.4,8.4,0,0,1,.39-2.91,4.87,4.87,0,0,1,9.07,0,8.43,8.43,0,0,1,.38,2.91,8.45,8.45,0,0,1-.38,2.92,4.87,4.87,0,0,1-9.07,0Zm7.13-.57a7.64,7.64,0,0,0,.26-2.35,7.41,7.41,0,0,0-.26-2.33,2.77,2.77,0,0,0-5.19,0,7.41,7.41,0,0,0-.26,2.33,7.64,7.64,0,0,0,.26,2.35,2.77,2.77,0,0,0,5.19,0Z"/><path d="M141.93,44.59a.23.23,0,0,1-.24-.24v-11a.23.23,0,0,1,.24-.24h1.54a.23.23,0,0,1,.24.24V34.5h0a3.23,3.23,0,0,1,3.05-1.68,3.51,3.51,0,0,1,2.35.87c.12.12.15.21.05.33l-.89,1.18a.21.21,0,0,1-.33,0,3.23,3.23,0,0,0-1.78-.55c-1.75,0-2.47,1.36-2.47,3.36v6.29a.23.23,0,0,1-.24.24Z"/><path d="M157.82,44.59a.23.23,0,0,1-.24-.24V43.24h0a3.51,3.51,0,0,1-3.27,1.61,3.81,3.81,0,0,1-4-2.76,9.61,9.61,0,0,1-.4-3.26,9.66,9.66,0,0,1,.4-3.25,3.81,3.81,0,0,1,4-2.76,3.5,3.5,0,0,1,3.27,1.59h0V28.5a.23.23,0,0,1,.24-.24h1.54a.23.23,0,0,1,.24.24V44.35a.23.23,0,0,1-.24.24Zm-.5-3.36a7.51,7.51,0,0,0,.26-2.4,7.62,7.62,0,0,0-.26-2.41,2.73,2.73,0,0,0-5.07,0,8.33,8.33,0,0,0-.26,2.41,8.09,8.09,0,0,0,.26,2.4,2.71,2.71,0,0,0,5.07,0Z"/><path d="M163.25,30.5a.23.23,0,0,1-.24-.24V28.5a.23.23,0,0,1,.24-.24h1.63a.23.23,0,0,1,.24.24v1.76a.23.23,0,0,1-.24.24Zm0,14.09a.23.23,0,0,1-.24-.24v-11a.23.23,0,0,1,.24-.24h1.54a.23.23,0,0,1,.24.24v11a.23.23,0,0,1-.24.24Z"/><path d="M176,44.59a.23.23,0,0,1-.24-.24V37.63c0-1.85-.84-2.93-2.57-2.93a2.58,2.58,0,0,0-2.64,2.8v6.85a.23.23,0,0,1-.24.24h-1.54a.22.22,0,0,1-.23-.24v-11a.22.22,0,0,1,.23-.24h1.54a.22.22,0,0,1,.24.24v1.05h0a3.64,3.64,0,0,1,3.21-1.56c2.5,0,4,1.71,4,4.32v7.21a.23.23,0,0,1-.24.24Z"/><path d="M188.06,44.59a.23.23,0,0,1-.24-.24v-1h0a3.79,3.79,0,0,1-3.41,1.51c-2.18,0-3.87-1.13-3.87-3.46s1.69-3.55,4.49-3.55h2.62a.12.12,0,0,0,.14-.14v-.84c0-1.59-.62-2.26-2.76-2.26a4.46,4.46,0,0,0-2.78.82.22.22,0,0,1-.34,0l-.64-1.1a.26.26,0,0,1,0-.34,6.42,6.42,0,0,1,3.92-1.13c3.26,0,4.51,1.08,4.51,3.92v7.61a.23.23,0,0,1-.24.24Zm-.29-3.72V39.59a.12.12,0,0,0-.14-.14h-2.3c-2,0-2.86.57-2.86,1.87s.86,1.8,2.4,1.8C186.67,43.12,187.77,42.28,187.77,40.87Z"/><path d="M193.32,44.59a.23.23,0,0,1-.24-.24v-11a.22.22,0,0,1,.24-.24h1.53a.22.22,0,0,1,.24.24V34.5h0a3.2,3.2,0,0,1,3-1.68,3.53,3.53,0,0,1,2.35.87c.12.12.14.21,0,.33l-.89,1.18a.23.23,0,0,1-.34,0,3.19,3.19,0,0,0-1.77-.55c-1.76,0-2.48,1.36-2.48,3.36v6.29a.23.23,0,0,1-.24.24Z"/><path d="M202.63,30.5a.23.23,0,0,1-.24-.24V28.5a.23.23,0,0,1,.24-.24h1.63a.23.23,0,0,1,.24.24v1.76a.23.23,0,0,1-.24.24Zm.05,14.09a.23.23,0,0,1-.24-.24v-11a.22.22,0,0,1,.24-.24h1.53a.22.22,0,0,1,.24.24v11a.23.23,0,0,1-.24.24Z"/><path d="M207.6,41.75a8.42,8.42,0,0,1-.39-2.92,8.4,8.4,0,0,1,.39-2.91,4.87,4.87,0,0,1,9.07,0,8.68,8.68,0,0,1,.38,2.91,8.7,8.7,0,0,1-.38,2.92,4.87,4.87,0,0,1-9.07,0Zm7.13-.57a7.64,7.64,0,0,0,.26-2.35,7.41,7.41,0,0,0-.26-2.33,2.77,2.77,0,0,0-5.19,0,7.41,7.41,0,0,0-.26,2.33,7.64,7.64,0,0,0,.26,2.35,2.77,2.77,0,0,0,5.19,0Z"/><path d="M219,43.12a.22.22,0,0,1,0-.33l1-1.06a.23.23,0,0,1,.34,0,5.62,5.62,0,0,0,3.55,1.32c1.68,0,2.52-.72,2.52-1.75s-.43-1.42-2.23-1.61L223,39.57c-2.26-.24-3.44-1.37-3.44-3.24,0-2.19,1.56-3.51,4.28-3.51a6.88,6.88,0,0,1,4.08,1.28.23.23,0,0,1,.05.33l-.82,1a.24.24,0,0,1-.34,0,6,6,0,0,0-3.09-.93c-1.44,0-2.19.64-2.19,1.58s.55,1.39,2.26,1.56l1.2.12c2.33.22,3.46,1.39,3.46,3.24,0,2.26-1.64,3.77-4.64,3.77A7.13,7.13,0,0,1,219,43.12Z"/><path d="M230.8,42.28A.23.23,0,0,1,231,42h1.83a.23.23,0,0,1,.24.24v2.07a.23.23,0,0,1-.24.24H231a.23.23,0,0,1-.24-.24Z"/></g></g></svg>