<svg xmlns="http://www.w3.org/2000/svg" viewBox="0 0 384.96 48.64"><title>13c </title><g id="Capa_2" data-name="Capa 2"><g id="answer_copia" data-name="answer copia"><path d="M.05.24A.23.23,0,0,1,.29,0H1.94a.23.23,0,0,1,.24.24v14c0,.09,0,.14.15.14h7.78a.22.22,0,0,1,.23.24v1.51a.22.22,0,0,1-.23.24H.29a.22.22,0,0,1-.24-.24Z"/><path d="M15.19,16.44c-2,0-2.81-1-2.81-3V.24A.23.23,0,0,1,12.62,0h1.54a.23.23,0,0,1,.24.24V13.3c0,1,.36,1.27,1.15,1.27H16a.23.23,0,0,1,.24.24V16.2a.23.23,0,0,1-.24.24Z"/><path d="M18.29,13.47a9.05,9.05,0,0,1-.39-2.91,8.87,8.87,0,0,1,.36-2.9,4.44,4.44,0,0,1,4.52-3.1,4.46,4.46,0,0,1,4.51,3.1,10,10,0,0,1,.36,3.28.24.24,0,0,1-.27.25H20.11a.12.12,0,0,0-.14.14,4.3,4.3,0,0,0,.19,1.39,2.84,2.84,0,0,0,2.9,2,3.78,3.78,0,0,0,3-1.27.25.25,0,0,1,.36,0l1,.89a.22.22,0,0,1,0,.34,5.59,5.59,0,0,1-4.48,2A4.45,4.45,0,0,1,18.29,13.47Zm7.15-3.89c.1,0,.14-.05.14-.15a4,4,0,0,0-.16-1.29,2.6,2.6,0,0,0-2.64-1.8,2.58,2.58,0,0,0-2.64,1.8A4,4,0,0,0,20,9.43c0,.1.05.15.14.15Z"/><path d="M33.48,16.32c-.17,0-.24-.09-.29-.24l-4.13-11c0-.14,0-.24.2-.24h1.65c.17,0,.24.08.31.24l3,8.26h0l2.9-8.26a.29.29,0,0,1,.29-.24h1.63c.17,0,.24.1.19.24l-4.1,11a.3.3,0,0,1-.31.24Z"/><path d="M41,13.47a9.05,9.05,0,0,1-.39-2.91,8.87,8.87,0,0,1,.36-2.9,4.44,4.44,0,0,1,4.52-3.1A4.46,4.46,0,0,1,50,7.66a10,10,0,0,1,.36,3.28.24.24,0,0,1-.27.25H42.79a.12.12,0,0,0-.14.14,4.3,4.3,0,0,0,.19,1.39,2.84,2.84,0,0,0,2.9,2,3.78,3.78,0,0,0,3-1.27.25.25,0,0,1,.36,0l1,.89a.22.22,0,0,1,0,.34,5.59,5.59,0,0,1-4.48,2A4.45,4.45,0,0,1,41,13.47Zm7.15-3.89c.1,0,.14-.05.14-.15a4,4,0,0,0-.16-1.29,2.84,2.84,0,0,0-5.28,0,4,4,0,0,0-.17,1.29c0,.1.05.15.14.15Z"/><path d="M58,7.66a4.45,4.45,0,0,1,4.54-3.1A4.6,4.6,0,0,1,66.5,6.5c.08.12.08.22-.07.34l-1.05.86a.22.22,0,0,1-.34,0,2.82,2.82,0,0,0-2.47-1.25A2.49,2.49,0,0,0,60,8.23a7.75,7.75,0,0,0-.26,2.33A7.81,7.81,0,0,0,60,12.91a2.49,2.49,0,0,0,2.57,1.8A2.82,2.82,0,0,0,65,13.47a.22.22,0,0,1,.34,0l1.05.87c.15.12.15.21.07.33a4.61,4.61,0,0,1-3.93,1.95A4.46,4.46,0,0,1,58,13.49a10.15,10.15,0,0,1-.36-2.93A10,10,0,0,1,58,7.66Z"/><path d="M68.62,13.49a8.48,8.48,0,0,1-.39-2.93,8.37,8.37,0,0,1,.39-2.9,4.87,4.87,0,0,1,9.07,0,8.65,8.65,0,0,1,.38,2.9,8.77,8.77,0,0,1-.38,2.93,4.87,4.87,0,0,1-9.07,0Zm7.12-.58A7.22,7.22,0,0,0,76,10.56a7.16,7.16,0,0,0-.27-2.33,2.76,2.76,0,0,0-5.18,0,7.45,7.45,0,0,0-.27,2.33,7.5,7.5,0,0,0,.27,2.35,2.76,2.76,0,0,0,5.18,0Z"/><path d="M88.29,16.32a.22.22,0,0,1-.23-.24V9.36c0-1.85-.85-2.93-2.57-2.93a2.58,2.58,0,0,0-2.64,2.81v6.84a.23.23,0,0,1-.24.24H81.07a.23.23,0,0,1-.24-.24v-11a.23.23,0,0,1,.24-.24h1.54a.23.23,0,0,1,.24.24V6.12h0a3.63,3.63,0,0,1,3.22-1.56c2.49,0,4,1.7,4,4.32v7.2a.22.22,0,0,1-.24.24Z"/><path d="M92.61,14.86a.25.25,0,0,1,0-.34l1-1a.22.22,0,0,1,.33,0,5.63,5.63,0,0,0,3.56,1.32c1.68,0,2.52-.73,2.52-1.76s-.43-1.41-2.24-1.61l-1.22-.12c-2.26-.24-3.43-1.36-3.43-3.24,0-2.18,1.56-3.5,4.27-3.5a6.88,6.88,0,0,1,4.08,1.27.24.24,0,0,1,0,.34l-.82,1a.23.23,0,0,1-.33,0,6.07,6.07,0,0,0-3.1-.94c-1.44,0-2.18.65-2.18,1.59s.55,1.39,2.25,1.56l1.2.12c2.33.21,3.46,1.39,3.46,3.24,0,2.25-1.63,3.77-4.63,3.77A7.19,7.19,0,0,1,92.61,14.86Z"/><path d="M104.88,2.23a.22.22,0,0,1-.24-.24V.24a.23.23,0,0,1,.24-.24h1.63a.23.23,0,0,1,.24.24V2a.23.23,0,0,1-.24.24Zm.05,14.09a.22.22,0,0,1-.24-.24v-11a.23.23,0,0,1,.24-.24h1.53a.23.23,0,0,1,.24.24v11a.22.22,0,0,1-.24.24Z"/><path d="M109.92,19.2a.21.21,0,0,1,0-.33l1-1a.23.23,0,0,1,.36,0A3.81,3.81,0,0,0,114,19c1.89,0,2.9-1,2.9-3.09V14.59h0a3.3,3.3,0,0,1-3.19,1.59,3.78,3.78,0,0,1-3.87-2.79,8.92,8.92,0,0,1-.38-3,9,9,0,0,1,.38-3,3.77,3.77,0,0,1,3.87-2.78,3.3,3.3,0,0,1,3.19,1.58h0V5.06a.23.23,0,0,1,.24-.24h1.54a.23.23,0,0,1,.24.24V15.82c0,3.26-1.78,5.09-5,5.09A5.18,5.18,0,0,1,109.92,19.2Zm6.72-6.6a7.08,7.08,0,0,0,.26-2.23,7.12,7.12,0,0,0-.26-2.23,2.59,2.59,0,0,0-4.87,0,6.93,6.93,0,0,0-.29,2.23,6.89,6.89,0,0,0,.29,2.23,2.34,2.34,0,0,0,2.42,1.73A2.38,2.38,0,0,0,116.64,12.6Z"/><path d="M122.06,13.49a8.77,8.77,0,0,1-.38-2.93,8.65,8.65,0,0,1,.38-2.9,4.87,4.87,0,0,1,9.07,0,8.37,8.37,0,0,1,.39,2.9,8.48,8.48,0,0,1-.39,2.93,4.87,4.87,0,0,1-9.07,0Zm7.13-.58a7.56,7.56,0,0,0,.26-2.35,7.5,7.5,0,0,0-.26-2.33,2.76,2.76,0,0,0-5.18,0,7.16,7.16,0,0,0-.27,2.33,7.22,7.22,0,0,0,.27,2.35,2.76,2.76,0,0,0,5.18,0Z"/><path d="M142.32,16.44c-2,0-2.81-1-2.81-3V.24a.23.23,0,0,1,.24-.24h1.54a.23.23,0,0,1,.24.24V13.3c0,1,.35,1.27,1.15,1.27h.45a.23.23,0,0,1,.24.24V16.2a.22.22,0,0,1-.24.24Z"/><path d="M152.69,16.32a.22.22,0,0,1-.24-.24v-1h0A3.75,3.75,0,0,1,149,16.59c-2.18,0-3.86-1.13-3.86-3.46s1.68-3.55,4.49-3.55h2.61a.13.13,0,0,0,.15-.15V8.59c0-1.58-.63-2.25-2.76-2.25a4.5,4.5,0,0,0-2.79.81c-.12.1-.26.1-.33,0L145.87,6a.24.24,0,0,1,0-.33,6.38,6.38,0,0,1,3.91-1.13c3.26,0,4.51,1.08,4.51,3.91v7.61a.22.22,0,0,1-.24.24Zm-.29-3.72V11.33c0-.1-.05-.14-.15-.14H150c-2,0-2.86.57-2.86,1.87s.87,1.8,2.4,1.8C151.29,14.86,152.4,14,152.4,12.6Z"/><path d="M170.45,16.32a.22.22,0,0,1-.24-.24V9.36c0-1.85-.84-2.93-2.57-2.93A2.58,2.58,0,0,0,165,9.24v6.84a.23.23,0,0,1-.24.24h-1.54a.23.23,0,0,1-.24-.24V.24a.23.23,0,0,1,.24-.24h1.54a.23.23,0,0,1,.24.24V6.12h0a3.63,3.63,0,0,1,3.22-1.56c2.49,0,4,1.7,4,4.32v7.2a.22.22,0,0,1-.24.24Z"/><path d="M175.24,13.47a9.1,9.1,0,0,1-.38-2.91,8.87,8.87,0,0,1,.36-2.9,4.84,4.84,0,0,1,9,0,10,10,0,0,1,.36,3.28.24.24,0,0,1-.27.25h-7.27c-.1,0-.15,0-.15.14a4.27,4.27,0,0,0,.2,1.39,2.83,2.83,0,0,0,2.9,2A3.74,3.74,0,0,0,183,13.44a.25.25,0,0,1,.36,0l1,.89a.22.22,0,0,1,0,.34,5.59,5.59,0,0,1-4.49,2A4.45,4.45,0,0,1,175.24,13.47Zm7.16-3.89c.09,0,.14-.05.14-.15a4,4,0,0,0-.17-1.29,2.84,2.84,0,0,0-5.28,0,4,4,0,0,0-.17,1.29.13.13,0,0,0,.15.15Z"/><path d="M187.6,16.32a.23.23,0,0,1-.24-.24v-11a.23.23,0,0,1,.24-.24h1.54a.23.23,0,0,1,.24.24V6.24h0a3.23,3.23,0,0,1,3-1.68,3.54,3.54,0,0,1,2.35.86c.12.12.15.22,0,.34L194,6.94a.21.21,0,0,1-.33,0,3.31,3.31,0,0,0-1.78-.55c-1.75,0-2.47,1.37-2.47,3.36v6.29a.23.23,0,0,1-.24.24Z"/><path d="M197,16.32a.23.23,0,0,1-.24-.24v-11a.23.23,0,0,1,.24-.24h1.54a.23.23,0,0,1,.24.24V6.24h0a3.23,3.23,0,0,1,3.05-1.68,3.6,3.6,0,0,1,2.36.86c.12.12.14.22,0,.34l-.88,1.18A.22.22,0,0,1,203,7a3.31,3.31,0,0,0-1.78-.55c-1.75,0-2.47,1.37-2.47,3.36v6.29a.23.23,0,0,1-.24.24Z"/><path d="M212.47,16.32a.23.23,0,0,1-.24-.24v-1h0a3.77,3.77,0,0,1-3.41,1.52c-2.19,0-3.87-1.13-3.87-3.46s1.68-3.55,4.49-3.55H212c.09,0,.14-.05.14-.15V8.59c0-1.58-.62-2.25-2.76-2.25a4.47,4.47,0,0,0-2.78.81c-.12.1-.27.1-.34,0L205.65,6a.24.24,0,0,1,0-.33,6.38,6.38,0,0,1,3.91-1.13c3.27,0,4.52,1.08,4.52,3.91v7.61a.23.23,0,0,1-.25.24Zm-.29-3.72V11.33a.12.12,0,0,0-.14-.14h-2.31c-2,0-2.85.57-2.85,1.87s.86,1.8,2.4,1.8C211.08,14.86,212.18,14,212.18,12.6Z"/><path d="M232.17,16.32a.23.23,0,0,1-.24-.24V9.36c0-1.85-.84-2.93-2.56-2.93a2.59,2.59,0,0,0-2.64,2.81v6.84a.23.23,0,0,1-.24.24H225a.22.22,0,0,1-.24-.24V9.36c0-1.85-.84-2.93-2.57-2.93a2.58,2.58,0,0,0-2.64,2.81v6.84a.23.23,0,0,1-.24.24h-1.54a.23.23,0,0,1-.24-.24v-11a.23.23,0,0,1,.24-.24h1.54a.23.23,0,0,1,.24.24V6.12h0a4.07,4.07,0,0,1,6.58.24h0a4.28,4.28,0,0,1,3.72-1.8c2.66,0,4.1,1.7,4.1,4.32v7.2a.23.23,0,0,1-.24.24Z"/><path d="M237.48,2.23a.22.22,0,0,1-.24-.24V.24a.23.23,0,0,1,.24-.24h1.63a.23.23,0,0,1,.24.24V2a.23.23,0,0,1-.24.24Zm0,14.09a.23.23,0,0,1-.24-.24v-11a.23.23,0,0,1,.24-.24h1.54a.23.23,0,0,1,.24.24v11a.23.23,0,0,1-.24.24Z"/><path d="M242.44,13.47a9.1,9.1,0,0,1-.38-2.91,8.87,8.87,0,0,1,.36-2.9,4.83,4.83,0,0,1,9,0,10,10,0,0,1,.36,3.28.23.23,0,0,1-.26.25h-7.27c-.1,0-.15,0-.15.14a4.27,4.27,0,0,0,.2,1.39,2.83,2.83,0,0,0,2.9,2,3.74,3.74,0,0,0,2.95-1.27.25.25,0,0,1,.36,0l1,.89a.22.22,0,0,1,0,.34,5.59,5.59,0,0,1-4.49,2A4.45,4.45,0,0,1,242.44,13.47Zm7.16-3.89c.09,0,.14-.05.14-.15a4,4,0,0,0-.17-1.29,2.84,2.84,0,0,0-5.28,0,4,4,0,0,0-.17,1.29.13.13,0,0,0,.15.15Z"/><path d="M262,16.32a.22.22,0,0,1-.24-.24V9.36c0-1.85-.84-2.93-2.57-2.93a2.58,2.58,0,0,0-2.64,2.81v6.84a.23.23,0,0,1-.24.24H254.8a.23.23,0,0,1-.24-.24v-11a.23.23,0,0,1,.24-.24h1.54a.23.23,0,0,1,.24.24V6.12h0a3.65,3.65,0,0,1,3.22-1.56c2.5,0,4,1.7,4,4.32v7.2a.22.22,0,0,1-.24.24Z"/><path d="M270.48,16.44c-2.24,0-3.1-1-3.1-3.26V6.6a.12.12,0,0,0-.14-.14h-1a.23.23,0,0,1-.24-.24V5.06a.23.23,0,0,1,.24-.24h1a.12.12,0,0,0,.14-.14V1.44a.23.23,0,0,1,.24-.24h1.54a.23.23,0,0,1,.24.24V4.68c0,.1,0,.14.14.14h1.82a.23.23,0,0,1,.24.24V6.22a.23.23,0,0,1-.24.24h-1.82c-.1,0-.14,0-.14.14v6.5c0,1.16.43,1.47,1.46,1.47h.5a.23.23,0,0,1,.24.24V16.2a.22.22,0,0,1-.24.24Z"/><path d="M281.2,16.32a.23.23,0,0,1-.24-.24v-1h0a3.77,3.77,0,0,1-3.41,1.52c-2.18,0-3.86-1.13-3.86-3.46s1.68-3.55,4.49-3.55h2.61a.13.13,0,0,0,.15-.15V8.59c0-1.58-.63-2.25-2.76-2.25a4.48,4.48,0,0,0-2.79.81c-.12.1-.26.1-.33,0L274.39,6a.24.24,0,0,1,.05-.33,6.36,6.36,0,0,1,3.91-1.13c3.26,0,4.51,1.08,4.51,3.91v7.61a.23.23,0,0,1-.24.24Zm-.28-3.72V11.33c0-.1-.05-.14-.15-.14h-2.3c-2,0-2.86.57-2.86,1.87s.87,1.8,2.4,1.8C279.81,14.86,280.92,14,280.92,12.6Z"/><path d="M299,16.32a.23.23,0,0,1-.24-.24V9.36c0-1.85-.84-2.93-2.56-2.93a2.58,2.58,0,0,0-2.64,2.81v6.84a.23.23,0,0,1-.24.24h-1.54a.23.23,0,0,1-.24-.24v-11a.23.23,0,0,1,.24-.24h1.54a.23.23,0,0,1,.24.24V6.12h0a3.63,3.63,0,0,1,3.22-1.56c2.49,0,4,1.7,4,4.32v7.2a.23.23,0,0,1-.24.24Z"/><path d="M303.76,13.47a9.1,9.1,0,0,1-.38-2.91,8.87,8.87,0,0,1,.36-2.9,4.83,4.83,0,0,1,9,0,10,10,0,0,1,.36,3.28.23.23,0,0,1-.26.25h-7.27c-.1,0-.15,0-.15.14a4.27,4.27,0,0,0,.2,1.39,2.83,2.83,0,0,0,2.9,2,3.74,3.74,0,0,0,2.95-1.27.25.25,0,0,1,.36,0l1,.89a.22.22,0,0,1,0,.34,5.59,5.59,0,0,1-4.49,2A4.45,4.45,0,0,1,303.76,13.47Zm7.16-3.89c.09,0,.14-.05.14-.15a4,4,0,0,0-.17-1.29,2.84,2.84,0,0,0-5.28,0,4,4,0,0,0-.17,1.29.13.13,0,0,0,.15.15Z"/><path d="M315.55,7.66a4.45,4.45,0,0,1,4.53-3.1A4.6,4.6,0,0,1,324,6.5a.23.23,0,0,1-.07.34l-1.06.86a.21.21,0,0,1-.33,0,2.84,2.84,0,0,0-2.48-1.25,2.49,2.49,0,0,0-2.56,1.8,7.39,7.39,0,0,0-.27,2.33,7.45,7.45,0,0,0,.27,2.35,2.49,2.49,0,0,0,2.56,1.8,2.83,2.83,0,0,0,2.48-1.24.21.21,0,0,1,.33,0l1.06.87c.14.12.14.21.07.33a4.61,4.61,0,0,1-3.94,1.95,4.46,4.46,0,0,1-4.53-3.1,9.81,9.81,0,0,1-.36-2.93A9.69,9.69,0,0,1,315.55,7.66Z"/><path d="M326.13,13.47a9.1,9.1,0,0,1-.38-2.91,8.87,8.87,0,0,1,.36-2.9,4.83,4.83,0,0,1,9,0,10,10,0,0,1,.36,3.28.23.23,0,0,1-.26.25H328c-.1,0-.15,0-.15.14a4.3,4.3,0,0,0,.19,1.39,2.84,2.84,0,0,0,2.91,2,3.74,3.74,0,0,0,2.95-1.27.25.25,0,0,1,.36,0l1,.89a.22.22,0,0,1,0,.34,5.59,5.59,0,0,1-4.49,2A4.45,4.45,0,0,1,326.13,13.47Zm7.15-3.89a.13.13,0,0,0,.15-.15,4,4,0,0,0-.17-1.29,2.84,2.84,0,0,0-5.28,0,4,4,0,0,0-.17,1.29.13.13,0,0,0,.15.15Z"/><path d="M337.46,14.86a.23.23,0,0,1,0-.34l1-1a.23.23,0,0,1,.34,0,5.6,5.6,0,0,0,3.55,1.32c1.68,0,2.52-.73,2.52-1.76s-.43-1.41-2.23-1.61l-1.22-.12c-2.26-.24-3.44-1.36-3.44-3.24,0-2.18,1.56-3.5,4.28-3.5a6.88,6.88,0,0,1,4.08,1.27.23.23,0,0,1,0,.34l-.81,1a.24.24,0,0,1-.34,0,6,6,0,0,0-3.09-.94c-1.44,0-2.19.65-2.19,1.59s.55,1.39,2.26,1.56l1.2.12c2.33.21,3.45,1.39,3.45,3.24,0,2.25-1.63,3.77-4.63,3.77A7.18,7.18,0,0,1,337.46,14.86Z"/><path d="M356.49,16.32a.23.23,0,0,1-.24-.24v-1h0a3.77,3.77,0,0,1-3.41,1.52c-2.19,0-3.86-1.13-3.86-3.46s1.67-3.55,4.48-3.55h2.62c.1,0,.14-.05.14-.15V8.59c0-1.58-.62-2.25-2.76-2.25a4.47,4.47,0,0,0-2.78.81c-.12.1-.27.1-.34,0L349.67,6a.25.25,0,0,1,.05-.33,6.42,6.42,0,0,1,3.92-1.13c3.26,0,4.51,1.08,4.51,3.91v7.61a.23.23,0,0,1-.24.24Zm-.29-3.72V11.33c0-.1,0-.14-.14-.14h-2.31c-2,0-2.85.57-2.85,1.87s.86,1.8,2.4,1.8C355.1,14.86,356.2,14,356.2,12.6Z"/><path d="M361.75,16.32a.22.22,0,0,1-.24-.24v-11a.23.23,0,0,1,.24-.24h1.53a.23.23,0,0,1,.24.24V6.24h0a3.2,3.2,0,0,1,3.05-1.68,3.58,3.58,0,0,1,2.35.86c.12.12.14.22.05.34l-.89,1.18a.22.22,0,0,1-.34,0A3.28,3.28,0,0,0,366,6.43c-1.76,0-2.48,1.37-2.48,3.36v6.29a.22.22,0,0,1-.24.24Z"/><path d="M371.06,2.23a.23.23,0,0,1-.24-.24V.24a.23.23,0,0,1,.24-.24h1.63a.23.23,0,0,1,.24.24V2a.23.23,0,0,1-.24.24Zm.05,14.09a.22.22,0,0,1-.24-.24v-11a.23.23,0,0,1,.24-.24h1.53a.23.23,0,0,1,.24.24v11a.22.22,0,0,1-.24.24Z"/><path d="M383.3,16.32a.22.22,0,0,1-.24-.24v-1h0a3.74,3.74,0,0,1-3.4,1.52c-2.19,0-3.87-1.13-3.87-3.46s1.68-3.55,4.49-3.55h2.62c.09,0,.14-.05.14-.15V8.59c0-1.58-.62-2.25-2.76-2.25a4.44,4.44,0,0,0-2.78.81c-.12.1-.27.1-.34,0L376.48,6a.24.24,0,0,1,0-.33,6.38,6.38,0,0,1,3.91-1.13c3.27,0,4.52,1.08,4.52,3.91v7.61a.23.23,0,0,1-.25.24ZM383,12.6V11.33a.12.12,0,0,0-.14-.14h-2.31c-2,0-2.85.57-2.85,1.87s.86,1.8,2.4,1.8C381.91,14.86,383,14,383,12.6Z"/><path d="M.24,48.64A.23.23,0,0,1,0,48.4V33.06a.23.23,0,0,1,.24-.24H1.78a.23.23,0,0,1,.24.24v1.08H2A3.49,3.49,0,0,1,5.3,32.56a3.79,3.79,0,0,1,4,2.76,9.29,9.29,0,0,1,.41,3.24,9.43,9.43,0,0,1-.41,3.27,3.79,3.79,0,0,1-4,2.76A3.5,3.5,0,0,1,2,43H2V48.4a.23.23,0,0,1-.24.24ZM7.34,41a7.68,7.68,0,0,0,.27-2.4,7.88,7.88,0,0,0-.27-2.4,2.43,2.43,0,0,0-2.52-1.73,2.44,2.44,0,0,0-2.54,1.73A7.59,7.59,0,0,0,2,38.56,7.47,7.47,0,0,0,2.28,41a2.46,2.46,0,0,0,2.54,1.75A2.45,2.45,0,0,0,7.34,41Z"/><path d="M19.39,44.32a.23.23,0,0,1-.24-.24v-1h0a3.77,3.77,0,0,1-3.41,1.52c-2.18,0-3.86-1.13-3.86-3.46s1.68-3.55,4.48-3.55H19c.1,0,.14,0,.14-.15v-.84c0-1.58-.62-2.25-2.76-2.25a4.47,4.47,0,0,0-2.78.81.22.22,0,0,1-.34,0L12.58,34a.24.24,0,0,1,0-.33,6.42,6.42,0,0,1,3.92-1.13c3.26,0,4.51,1.08,4.51,3.91v7.61a.23.23,0,0,1-.24.24ZM19.1,40.6V39.33c0-.1,0-.14-.14-.14h-2.3c-2,0-2.86.57-2.86,1.87s.86,1.8,2.4,1.8C18,42.86,19.1,42,19.1,40.6Z"/><path d="M24.65,44.32a.22.22,0,0,1-.24-.24v-11a.23.23,0,0,1,.24-.24h1.53a.23.23,0,0,1,.24.24v1.18h0a3.2,3.2,0,0,1,3.05-1.68,3.58,3.58,0,0,1,2.35.86c.12.12.14.22,0,.34L31,34.94a.22.22,0,0,1-.34,0,3.28,3.28,0,0,0-1.77-.55c-1.76,0-2.48,1.37-2.48,3.36v6.29a.22.22,0,0,1-.24.24Z"/><path d="M40.15,44.32a.23.23,0,0,1-.24-.24v-1h0a3.77,3.77,0,0,1-3.41,1.52c-2.18,0-3.86-1.13-3.86-3.46s1.68-3.55,4.48-3.55h2.62a.13.13,0,0,0,.15-.15v-.84c0-1.58-.63-2.25-2.77-2.25a4.47,4.47,0,0,0-2.78.81.22.22,0,0,1-.34,0L33.34,34a.24.24,0,0,1,0-.33,6.42,6.42,0,0,1,3.92-1.13c3.26,0,4.51,1.08,4.51,3.91v7.61a.23.23,0,0,1-.24.24Zm-.28-3.72V39.33c0-.1,0-.14-.15-.14h-2.3c-2,0-2.86.57-2.86,1.87s.86,1.8,2.4,1.8C38.76,42.86,39.87,42,39.87,40.6Z"/><path d="M49.66,42.86a.23.23,0,0,1,0-.34l1-1.05a.23.23,0,0,1,.34,0,5.6,5.6,0,0,0,3.55,1.32c1.68,0,2.52-.73,2.52-1.76s-.43-1.41-2.23-1.61l-1.23-.12c-2.25-.24-3.43-1.36-3.43-3.24,0-2.18,1.56-3.5,4.27-3.5a6.88,6.88,0,0,1,4.08,1.27.24.24,0,0,1,.05.34l-.81,1a.24.24,0,0,1-.34,0,6,6,0,0,0-3.1-.94c-1.44,0-2.18.65-2.18,1.59s.55,1.39,2.25,1.56l1.2.12C57.91,37.79,59,39,59,40.82c0,2.25-1.63,3.77-4.63,3.77A7.16,7.16,0,0,1,49.66,42.86Z"/><path d="M69,44.32a.23.23,0,0,1-.24-.24V43h0a3.52,3.52,0,0,1-3.15,1.59c-2.52,0-4-1.73-4-4.35V33.06a.23.23,0,0,1,.24-.24h1.54a.23.23,0,0,1,.24.24v6.7c0,1.87.84,3,2.54,3a2.55,2.55,0,0,0,2.59-2.83V33.06a.23.23,0,0,1,.24-.24h1.54a.23.23,0,0,1,.24.24v11a.23.23,0,0,1-.24.24Z"/><path d="M82.8,44.44c-2.23,0-3.1-1-3.1-3.26V34.6c0-.1,0-.14-.14-.14h-1a.23.23,0,0,1-.24-.24V33.06a.23.23,0,0,1,.24-.24h1c.1,0,.14,0,.14-.14V29.44a.23.23,0,0,1,.24-.24h1.54a.23.23,0,0,1,.24.24v3.24a.12.12,0,0,0,.14.14h1.83a.23.23,0,0,1,.24.24v1.16a.23.23,0,0,1-.24.24H81.86a.12.12,0,0,0-.14.14v6.5c0,1.16.43,1.47,1.46,1.47h.51a.23.23,0,0,1,.24.24V44.2a.23.23,0,0,1-.24.24Z"/><path d="M86.81,44.32a.22.22,0,0,1-.24-.24v-11a.23.23,0,0,1,.24-.24h1.53a.23.23,0,0,1,.24.24v1.18h0a3.2,3.2,0,0,1,3-1.68,3.58,3.58,0,0,1,2.35.86c.12.12.14.22,0,.34l-.89,1.18a.22.22,0,0,1-.34,0,3.28,3.28,0,0,0-1.77-.55c-1.76,0-2.48,1.37-2.48,3.36v6.29a.22.22,0,0,1-.24.24Z"/><path d="M102.31,44.32a.23.23,0,0,1-.24-.24v-1h0a3.77,3.77,0,0,1-3.41,1.52c-2.18,0-3.86-1.13-3.86-3.46s1.68-3.55,4.48-3.55h2.62c.1,0,.14,0,.14-.15v-.84c0-1.58-.62-2.25-2.76-2.25a4.47,4.47,0,0,0-2.78.81.22.22,0,0,1-.34,0L95.5,34a.24.24,0,0,1,0-.33,6.42,6.42,0,0,1,3.92-1.13c3.26,0,4.51,1.08,4.51,3.91v7.61a.23.23,0,0,1-.24.24ZM102,40.6V39.33c0-.1,0-.14-.14-.14h-2.3c-2,0-2.86.57-2.86,1.87s.86,1.8,2.4,1.8C100.92,42.86,102,42,102,40.6Z"/><path d="M107.57,44.32a.22.22,0,0,1-.24-.24V28.24a.23.23,0,0,1,.24-.24h1.53a.23.23,0,0,1,.24.24v5.9h0a3.48,3.48,0,0,1,3.26-1.58,3.8,3.8,0,0,1,4,2.76,9.53,9.53,0,0,1,.41,3.24,9.68,9.68,0,0,1-.41,3.27,3.8,3.8,0,0,1-4,2.76A3.49,3.49,0,0,1,109.37,43h0v1.1a.22.22,0,0,1-.24.24Zm7.1-3.36a8,8,0,0,0,.27-2.4,8.21,8.21,0,0,0-.27-2.4,2.71,2.71,0,0,0-5.06,0,7.53,7.53,0,0,0-.27,2.4,7.41,7.41,0,0,0,.27,2.4,2.7,2.7,0,0,0,5.06,0Z"/><path d="M126.72,44.32a.23.23,0,0,1-.24-.24v-1h0a3.77,3.77,0,0,1-3.41,1.52c-2.19,0-3.87-1.13-3.87-3.46s1.68-3.55,4.49-3.55h2.62c.09,0,.14,0,.14-.15v-.84c0-1.58-.62-2.25-2.76-2.25a4.47,4.47,0,0,0-2.78.81c-.12.1-.27.1-.34,0L119.9,34a.25.25,0,0,1,0-.33,6.4,6.4,0,0,1,3.91-1.13c3.27,0,4.52,1.08,4.52,3.91v7.61a.23.23,0,0,1-.24.24Zm-.29-3.72V39.33a.12.12,0,0,0-.14-.14H124c-2,0-2.85.57-2.85,1.87s.86,1.8,2.4,1.8C125.33,42.86,126.43,42,126.43,40.6Z"/><path d="M129.84,48.64a.23.23,0,0,1-.24-.24V47a.23.23,0,0,1,.24-.24h.38c1.13,0,1.52-.31,1.52-1.54V33.06a.23.23,0,0,1,.24-.24h1.53a.23.23,0,0,1,.24.24V45.19c0,2.47-1.1,3.45-3.43,3.45Zm2.09-18.41a.22.22,0,0,1-.24-.24V28.24a.23.23,0,0,1,.24-.24h1.63a.23.23,0,0,1,.24.24V30a.23.23,0,0,1-.24.24Z"/><path d="M136.9,41.49a8.48,8.48,0,0,1-.39-2.93,8.37,8.37,0,0,1,.39-2.9,4.87,4.87,0,0,1,9.07,0,8.65,8.65,0,0,1,.38,2.9,8.77,8.77,0,0,1-.38,2.93,4.87,4.87,0,0,1-9.07,0Zm7.12-.58a7.22,7.22,0,0,0,.27-2.35,7.16,7.16,0,0,0-.27-2.33,2.76,2.76,0,0,0-5.18,0,7.5,7.5,0,0,0-.26,2.33,7.56,7.56,0,0,0,.26,2.35,2.76,2.76,0,0,0,5.18,0Z"/><path d="M148.82,42a.23.23,0,0,1,.24-.24h1.83a.23.23,0,0,1,.24.24v2.06a.23.23,0,0,1-.24.24h-1.83a.23.23,0,0,1-.24-.24Z"/></g></g></svg>