<svg xmlns="http://www.w3.org/2000/svg" viewBox="0 0 475.52 19.16"><title>13c</title><g id="Capa_2" data-name="Capa 2"><g id="respuestas_contorno" data-name="respuestas contorno"><path d="M0,.22A.21.21,0,0,1,.22,0H1.74A.21.21,0,0,1,2,.22V13c0,.09,0,.14.13.14H9.22a.2.2,0,0,1,.22.22v1.38a.21.21,0,0,1-.22.22h-9A.21.21,0,0,1,0,14.74Z"/><path d="M13.44,15.07c-1.85,0-2.57-.88-2.57-2.77V.22A.21.21,0,0,1,11.09,0H12.5a.21.21,0,0,1,.22.22v12c0,.88.33,1.17,1,1.17h.42a.2.2,0,0,1,.22.22v1.27a.21.21,0,0,1-.22.22Z"/><path d="M15.84,12.34a8.25,8.25,0,0,1-.35-2.66A8.17,8.17,0,0,1,15.82,7,4.07,4.07,0,0,1,20,4.18,4.07,4.07,0,0,1,24.09,7a9.18,9.18,0,0,1,.33,3,.21.21,0,0,1-.24.22H17.51a.12.12,0,0,0-.13.13,3.92,3.92,0,0,0,.18,1.28,2.6,2.6,0,0,0,2.66,1.83,3.43,3.43,0,0,0,2.7-1.17c.12-.11.23-.13.33,0l.91.81a.2.2,0,0,1,0,.31,5.13,5.13,0,0,1-4.12,1.8A4.07,4.07,0,0,1,15.84,12.34ZM22.4,8.78c.09,0,.13,0,.13-.13a3.71,3.71,0,0,0-.15-1.19A2.39,2.39,0,0,0,20,5.81a2.39,2.39,0,0,0-2.43,1.65,3.71,3.71,0,0,0-.15,1.19c0,.09,0,.13.13.13Z"/><path d="M29.33,15c-.16,0-.22-.09-.27-.22L25.28,4.64c-.05-.13,0-.22.17-.22H27c.16,0,.22.07.29.22L30,12.21h0l2.66-7.57A.27.27,0,0,1,33,4.42h1.49c.16,0,.22.09.18.22l-3.76,10.1a.3.3,0,0,1-.29.22Z"/><path d="M35.75,12.34a8.25,8.25,0,0,1-.35-2.66A8.17,8.17,0,0,1,35.73,7a4.06,4.06,0,0,1,4.13-2.84A4.07,4.07,0,0,1,44,7a9.18,9.18,0,0,1,.33,3,.21.21,0,0,1-.24.22H37.42a.12.12,0,0,0-.13.13,3.92,3.92,0,0,0,.18,1.28,2.6,2.6,0,0,0,2.66,1.83,3.43,3.43,0,0,0,2.7-1.17.22.22,0,0,1,.33,0l.91.81a.2.2,0,0,1,0,.31A5.13,5.13,0,0,1,40,15.2,4.07,4.07,0,0,1,35.75,12.34Zm6.56-3.56a.12.12,0,0,0,.13-.13,3.68,3.68,0,0,0-.16-1.19,2.6,2.6,0,0,0-4.84,0,3.71,3.71,0,0,0-.15,1.19c0,.09,0,.13.13.13Z"/><path d="M50.51,7a4.09,4.09,0,0,1,4.16-2.84A4.22,4.22,0,0,1,58.28,6a.22.22,0,0,1-.07.31l-1,.79a.19.19,0,0,1-.3,0A2.59,2.59,0,0,0,54.67,5.9a2.28,2.28,0,0,0-2.35,1.65,6.85,6.85,0,0,0-.25,2.13,6.94,6.94,0,0,0,.25,2.16,2.28,2.28,0,0,0,2.35,1.65,2.6,2.6,0,0,0,2.27-1.15.19.19,0,0,1,.3,0l1,.79a.22.22,0,0,1,.07.31,4.22,4.22,0,0,1-3.61,1.78,4.09,4.09,0,0,1-4.16-2.83,9.08,9.08,0,0,1-.33-2.69A9,9,0,0,1,50.51,7Z"/><path d="M59.77,12.37a8,8,0,0,1-.35-2.69A7.92,7.92,0,0,1,59.77,7a4.47,4.47,0,0,1,8.32,0,7.92,7.92,0,0,1,.35,2.66,8,8,0,0,1-.35,2.69,4.47,4.47,0,0,1-8.32,0Zm6.54-.53a7.13,7.13,0,0,0,.24-2.16,6.91,6.91,0,0,0-.24-2.13,2.54,2.54,0,0,0-4.76,0,6.91,6.91,0,0,0-.24,2.13,7.13,7.13,0,0,0,.24,2.16,2.54,2.54,0,0,0,4.76,0Z"/><path d="M77.37,15a.21.21,0,0,1-.22-.22V8.58c0-1.69-.77-2.68-2.35-2.68a2.36,2.36,0,0,0-2.42,2.57v6.27a.21.21,0,0,1-.22.22H70.75a.21.21,0,0,1-.22-.22V4.64a.21.21,0,0,1,.22-.22h1.41a.21.21,0,0,1,.22.22v1h0a3.35,3.35,0,0,1,2.95-1.43c2.29,0,3.65,1.56,3.65,4v6.6a.21.21,0,0,1-.22.22Z"/><path d="M80.89,13.62a.21.21,0,0,1,0-.31l.9-1a.21.21,0,0,1,.31,0,5.1,5.1,0,0,0,3.26,1.21c1.54,0,2.31-.66,2.31-1.6s-.4-1.3-2-1.48l-1.12-.11c-2.07-.22-3.15-1.25-3.15-3,0-2,1.44-3.21,3.92-3.21A6.3,6.3,0,0,1,89,5.35a.21.21,0,0,1,0,.3l-.75.95a.21.21,0,0,1-.31,0,5.54,5.54,0,0,0-2.84-.85c-1.32,0-2,.59-2,1.45s.51,1.27,2.07,1.43l1.1.11c2.13.2,3.17,1.27,3.17,3,0,2.07-1.5,3.45-4.25,3.45A6.55,6.55,0,0,1,80.89,13.62Z"/><path d="M91.69,2.05a.21.21,0,0,1-.22-.22V.22A.21.21,0,0,1,91.69,0h1.5a.21.21,0,0,1,.22.22V1.83a.21.21,0,0,1-.22.22Zm0,12.91a.21.21,0,0,1-.22-.22V4.64a.21.21,0,0,1,.22-.22h1.41a.21.21,0,0,1,.22.22v10.1a.21.21,0,0,1-.22.22Z"/><path d="M95.87,17.6a.21.21,0,0,1,0-.31l.9-.9a.21.21,0,0,1,.33,0,3.5,3.5,0,0,0,2.48,1.06c1.74,0,2.67-.9,2.67-2.84V13.38h0a3,3,0,0,1-2.92,1.45,3.45,3.45,0,0,1-3.54-2.55,8.12,8.12,0,0,1-.36-2.78,8.06,8.06,0,0,1,.36-2.77,3.45,3.45,0,0,1,3.54-2.55,3,3,0,0,1,2.92,1.45h0v-1a.21.21,0,0,1,.22-.22h1.41a.21.21,0,0,1,.22.22V14.5c0,3-1.63,4.66-4.6,4.66A4.76,4.76,0,0,1,95.87,17.6ZM102,11.55a6.59,6.59,0,0,0,.24-2.05,6.65,6.65,0,0,0-.24-2,2.38,2.38,0,0,0-4.47,0,6.46,6.46,0,0,0-.27,2,6.4,6.4,0,0,0,.27,2.05,2.16,2.16,0,0,0,2.22,1.59A2.19,2.19,0,0,0,102,11.55Z"/><path d="M106.57,12.37a7.75,7.75,0,0,1-.36-2.69A7.64,7.64,0,0,1,106.57,7a4.46,4.46,0,0,1,8.31,0,7.64,7.64,0,0,1,.36,2.66,7.75,7.75,0,0,1-.36,2.69,4.47,4.47,0,0,1-8.31,0Zm6.53-.53a6.82,6.82,0,0,0,.24-2.16,6.61,6.61,0,0,0-.24-2.13,2.53,2.53,0,0,0-4.75,0,6.61,6.61,0,0,0-.24,2.13,6.82,6.82,0,0,0,.24,2.16,2.53,2.53,0,0,0,4.75,0Z"/><path d="M124.25,15.07c-1.84,0-2.57-.88-2.57-2.77V.22A.21.21,0,0,1,121.9,0h1.41a.21.21,0,0,1,.22.22v12c0,.88.33,1.17,1,1.17H125a.2.2,0,0,1,.22.22v1.27a.21.21,0,0,1-.22.22Z"/><path d="M133.32,15a.21.21,0,0,1-.22-.22v-.92h0A3.47,3.47,0,0,1,130,15.2c-2,0-3.54-1-3.54-3.16s1.54-3.26,4.11-3.26h2.4c.09,0,.13,0,.13-.13V7.88c0-1.46-.57-2.07-2.53-2.07a4.09,4.09,0,0,0-2.55.75.2.2,0,0,1-.31,0l-.59-1a.23.23,0,0,1,0-.31,5.9,5.9,0,0,1,3.59-1c3,0,4.14,1,4.14,3.59v7a.21.21,0,0,1-.22.22Zm-.27-3.41V10.38a.12.12,0,0,0-.13-.13h-2.11c-1.83,0-2.62.53-2.62,1.72s.79,1.65,2.2,1.65C132,13.62,133.05,12.85,133.05,11.55Z"/><path d="M148.72,15a.21.21,0,0,1-.22-.22V8.58c0-1.69-.77-2.68-2.36-2.68a2.36,2.36,0,0,0-2.42,2.57v6.27a.21.21,0,0,1-.22.22h-1.41a.2.2,0,0,1-.21-.22V.22a.2.2,0,0,1,.21-.22h1.41a.21.21,0,0,1,.22.22V5.61h0a3.32,3.32,0,0,1,2.94-1.43c2.29,0,3.66,1.56,3.66,4v6.6a.21.21,0,0,1-.22.22Z"/><path d="M152.68,12.34a8.2,8.2,0,0,1-.36-2.66A8.17,8.17,0,0,1,152.65,7a4.44,4.44,0,0,1,8.28,0,9.18,9.18,0,0,1,.33,3,.21.21,0,0,1-.24.22h-6.67a.12.12,0,0,0-.13.13,4,4,0,0,0,.17,1.28,2.62,2.62,0,0,0,2.67,1.83,3.43,3.43,0,0,0,2.7-1.17.22.22,0,0,1,.33,0l.9.81a.21.21,0,0,1,0,.31,5.13,5.13,0,0,1-4.12,1.8A4.07,4.07,0,0,1,152.68,12.34Zm6.55-3.56c.09,0,.14,0,.14-.13a3.68,3.68,0,0,0-.16-1.19,2.6,2.6,0,0,0-4.84,0,3.71,3.71,0,0,0-.15,1.19c0,.09,0,.13.13.13Z"/><path d="M163.57,15a.2.2,0,0,1-.22-.22V4.64a.2.2,0,0,1,.22-.22H165a.2.2,0,0,1,.22.22V5.72h0A2.93,2.93,0,0,1,168,4.18a3.26,3.26,0,0,1,2.16.79c.11.11.13.2,0,.31l-.81,1.08a.2.2,0,0,1-.31,0,3,3,0,0,0-1.63-.5c-1.61,0-2.27,1.25-2.27,3.08v5.76A.2.2,0,0,1,165,15Z"/><path d="M171.71,15a.2.2,0,0,1-.22-.22V4.64a.2.2,0,0,1,.22-.22h1.4a.2.2,0,0,1,.22.22V5.72h0a2.93,2.93,0,0,1,2.79-1.54,3.26,3.26,0,0,1,2.16.79c.11.11.13.2,0,.31l-.81,1.08a.2.2,0,0,1-.31,0,3,3,0,0,0-1.63-.5c-1.61,0-2.27,1.25-2.27,3.08v5.76a.2.2,0,0,1-.22.22Z"/><path d="M185.48,15a.21.21,0,0,1-.22-.22v-.92h0a3.47,3.47,0,0,1-3.13,1.38c-2,0-3.54-1-3.54-3.16s1.54-3.26,4.11-3.26h2.4c.09,0,.13,0,.13-.13V7.88c0-1.46-.57-2.07-2.53-2.07a4.12,4.12,0,0,0-2.55.75.2.2,0,0,1-.31,0l-.59-1a.24.24,0,0,1,0-.31,5.92,5.92,0,0,1,3.59-1c3,0,4.14,1,4.14,3.59v7a.21.21,0,0,1-.22.22Zm-.27-3.41V10.38a.12.12,0,0,0-.13-.13H183c-1.83,0-2.62.53-2.62,1.72s.79,1.65,2.2,1.65C184.2,13.62,185.21,12.85,185.21,11.55Z"/><path d="M203.1,15a.21.21,0,0,1-.22-.22V8.58c0-1.69-.77-2.68-2.35-2.68a2.37,2.37,0,0,0-2.42,2.57v6.27a.21.21,0,0,1-.22.22h-1.41a.21.21,0,0,1-.22-.22V8.58c0-1.69-.77-2.68-2.36-2.68a2.36,2.36,0,0,0-2.42,2.57v6.27a.2.2,0,0,1-.22.22h-1.4a.2.2,0,0,1-.22-.22V4.64a.2.2,0,0,1,.22-.22h1.4a.2.2,0,0,1,.22.22v1h0a3.73,3.73,0,0,1,6,.22h0A3.92,3.92,0,0,1,201,4.18c2.44,0,3.76,1.56,3.76,4v6.6a.21.21,0,0,1-.22.22Z"/><path d="M207.52,2.05a.21.21,0,0,1-.22-.22V.22a.21.21,0,0,1,.22-.22H209a.21.21,0,0,1,.22.22V1.83a.21.21,0,0,1-.22.22Zm0,12.91a.21.21,0,0,1-.23-.22V4.64a.21.21,0,0,1,.23-.22H209a.2.2,0,0,1,.22.22v10.1A.2.2,0,0,1,209,15Z"/><path d="M211.63,12.34a8.54,8.54,0,0,1-.35-2.66A8.17,8.17,0,0,1,211.61,7a4.44,4.44,0,0,1,8.28,0,9.18,9.18,0,0,1,.33,3c0,.14-.09.22-.25.22h-6.66a.12.12,0,0,0-.14.13,3.92,3.92,0,0,0,.18,1.28A2.6,2.6,0,0,0,216,13.49a3.44,3.44,0,0,0,2.71-1.17.22.22,0,0,1,.33,0l.9.81a.2.2,0,0,1,0,.31,5.09,5.09,0,0,1-4.11,1.8A4.08,4.08,0,0,1,211.63,12.34Zm6.56-3.56c.09,0,.13,0,.13-.13a3.71,3.71,0,0,0-.15-1.19,2.6,2.6,0,0,0-4.84,0,3.68,3.68,0,0,0-.16,1.19c0,.09.05.13.14.13Z"/><path d="M229.15,15a.21.21,0,0,1-.22-.22V8.58c0-1.69-.77-2.68-2.36-2.68a2.36,2.36,0,0,0-2.42,2.57v6.27a.21.21,0,0,1-.22.22h-1.41a.21.21,0,0,1-.22-.22V4.64a.21.21,0,0,1,.22-.22h1.41a.21.21,0,0,1,.22.22v1h0a3.35,3.35,0,0,1,3-1.43c2.29,0,3.66,1.56,3.66,4v6.6a.21.21,0,0,1-.22.22Z"/><path d="M236.45,15.07c-2,0-2.84-.92-2.84-3v-6c0-.09,0-.13-.13-.13h-.88a.21.21,0,0,1-.22-.22V4.64a.21.21,0,0,1,.22-.22h.88c.09,0,.13,0,.13-.13v-3a.21.21,0,0,1,.22-.22h1.41a.21.21,0,0,1,.22.22v3c0,.09,0,.13.13.13h1.67a.21.21,0,0,1,.23.22V5.7a.21.21,0,0,1-.23.22h-1.67c-.09,0-.13,0-.13.13v6c0,1.06.4,1.35,1.34,1.35h.46a.21.21,0,0,1,.23.22v1.27a.21.21,0,0,1-.23.22Z"/><path d="M245.84,15a.2.2,0,0,1-.21-.22v-.92h0a3.45,3.45,0,0,1-3.12,1.38c-2,0-3.54-1-3.54-3.16s1.54-3.26,4.11-3.26h2.4c.09,0,.13,0,.13-.13V7.88c0-1.46-.57-2.07-2.53-2.07a4.07,4.07,0,0,0-2.55.75.2.2,0,0,1-.31,0l-.59-1a.23.23,0,0,1,0-.31,5.88,5.88,0,0,1,3.59-1c3,0,4.13,1,4.13,3.59v7a.2.2,0,0,1-.22.22Zm-.26-3.41V10.38a.12.12,0,0,0-.13-.13h-2.11c-1.83,0-2.62.53-2.62,1.72s.79,1.65,2.2,1.65C244.57,13.62,245.58,12.85,245.58,11.55Z"/><path d="M261.25,15a.21.21,0,0,1-.23-.22V8.58c0-1.69-.77-2.68-2.35-2.68a2.36,2.36,0,0,0-2.42,2.57v6.27A.21.21,0,0,1,256,15h-1.41a.21.21,0,0,1-.22-.22V4.64a.21.21,0,0,1,.22-.22H256a.21.21,0,0,1,.22.22v1h0a3.35,3.35,0,0,1,3-1.43c2.29,0,3.65,1.56,3.65,4v6.6a.2.2,0,0,1-.22.22Z"/><path d="M265.2,12.34a8.25,8.25,0,0,1-.35-2.66A8.17,8.17,0,0,1,265.18,7a4.44,4.44,0,0,1,8.28,0,9.47,9.47,0,0,1,.33,3c0,.14-.09.22-.25.22h-6.66a.12.12,0,0,0-.14.13,3.92,3.92,0,0,0,.18,1.28,2.6,2.6,0,0,0,2.66,1.83,3.44,3.44,0,0,0,2.71-1.17.22.22,0,0,1,.33,0l.9.81a.2.2,0,0,1,0,.31,5.09,5.09,0,0,1-4.11,1.8A4.08,4.08,0,0,1,265.2,12.34Zm6.56-3.56c.09,0,.13,0,.13-.13a3.71,3.71,0,0,0-.15-1.19,2.6,2.6,0,0,0-4.84,0,3.68,3.68,0,0,0-.16,1.19c0,.09.05.13.14.13Z"/><path d="M275.57,7a4.07,4.07,0,0,1,4.15-2.84A4.22,4.22,0,0,1,283.33,6c.07.11.07.2-.06.31l-1,.79A.2.2,0,0,1,282,7a2.59,2.59,0,0,0-2.27-1.14,2.28,2.28,0,0,0-2.35,1.65,6.89,6.89,0,0,0-.24,2.13,7,7,0,0,0,.24,2.16,2.28,2.28,0,0,0,2.35,1.65A2.6,2.6,0,0,0,282,12.34a.2.2,0,0,1,.31,0l1,.79c.13.11.13.2.06.31a4.22,4.22,0,0,1-3.61,1.78,4.07,4.07,0,0,1-4.15-2.83,9.08,9.08,0,0,1-.33-2.69A9,9,0,0,1,275.57,7Z"/><path d="M284.83,12.34a8.2,8.2,0,0,1-.36-2.66A8.17,8.17,0,0,1,284.8,7a4.44,4.44,0,0,1,8.28,0,9.18,9.18,0,0,1,.33,3,.21.21,0,0,1-.24.22H286.5a.12.12,0,0,0-.13.13,4,4,0,0,0,.17,1.28,2.62,2.62,0,0,0,2.67,1.83,3.43,3.43,0,0,0,2.7-1.17.22.22,0,0,1,.33,0l.9.81a.21.21,0,0,1,0,.31,5.13,5.13,0,0,1-4.12,1.8A4.07,4.07,0,0,1,284.83,12.34Zm6.55-3.56c.09,0,.14,0,.14-.13a3.68,3.68,0,0,0-.16-1.19,2.6,2.6,0,0,0-4.84,0,3.71,3.71,0,0,0-.15,1.19c0,.09,0,.13.13.13Z"/><path d="M294.77,13.62a.21.21,0,0,1,0-.31l.9-1a.21.21,0,0,1,.31,0,5.07,5.07,0,0,0,3.26,1.21c1.54,0,2.31-.66,2.31-1.6s-.4-1.3-2.05-1.48l-1.12-.11c-2.07-.22-3.15-1.25-3.15-3,0-2,1.43-3.21,3.92-3.21a6.3,6.3,0,0,1,3.74,1.17c.11.06.11.19,0,.3l-.74.95a.21.21,0,0,1-.31,0A5.54,5.54,0,0,0,299,5.79c-1.32,0-2,.59-2,1.45s.5,1.27,2.06,1.43l1.11.11c2.13.2,3.16,1.27,3.16,3,0,2.07-1.49,3.45-4.24,3.45A6.55,6.55,0,0,1,294.77,13.62Z"/><path d="M311.78,15a.21.21,0,0,1-.22-.22v-.92h0a3.47,3.47,0,0,1-3.13,1.38c-2,0-3.54-1-3.54-3.16s1.54-3.26,4.11-3.26h2.4c.09,0,.13,0,.13-.13V7.88c0-1.46-.57-2.07-2.53-2.07a4.09,4.09,0,0,0-2.55.75.2.2,0,0,1-.31,0l-.59-1a.23.23,0,0,1,0-.31,5.9,5.9,0,0,1,3.59-1c3,0,4.14,1,4.14,3.59v7a.21.21,0,0,1-.22.22Zm-.27-3.41V10.38a.12.12,0,0,0-.13-.13h-2.11c-1.83,0-2.62.53-2.62,1.72s.79,1.65,2.2,1.65C310.5,13.62,311.51,12.85,311.51,11.55Z"/><path d="M316.15,15a.21.21,0,0,1-.22-.22V4.64a.21.21,0,0,1,.22-.22h1.41a.21.21,0,0,1,.22.22V5.72h0a3,3,0,0,1,2.8-1.54,3.22,3.22,0,0,1,2.15.79c.12.11.14.2.05.31L322,6.36a.2.2,0,0,1-.31,0,3,3,0,0,0-1.63-.5c-1.61,0-2.27,1.25-2.27,3.08v5.76a.21.21,0,0,1-.22.22Z"/><path d="M324.25,2.05a.21.21,0,0,1-.22-.22V.22a.21.21,0,0,1,.22-.22h1.5a.21.21,0,0,1,.22.22V1.83a.21.21,0,0,1-.22.22Zm0,12.91a.21.21,0,0,1-.22-.22V4.64a.21.21,0,0,1,.22-.22h1.41a.21.21,0,0,1,.22.22v10.1a.21.21,0,0,1-.22.22Z"/><path d="M335,15a.21.21,0,0,1-.22-.22v-.92h0a3.47,3.47,0,0,1-3.13,1.38c-2,0-3.54-1-3.54-3.16s1.54-3.26,4.12-3.26h2.39c.09,0,.14,0,.14-.13V7.88c0-1.46-.58-2.07-2.53-2.07a4.13,4.13,0,0,0-2.56.75c-.11.08-.24.08-.3,0l-.6-1a.23.23,0,0,1,.05-.31,5.87,5.87,0,0,1,3.58-1c3,0,4.14,1,4.14,3.59v7a.21.21,0,0,1-.22.22Zm-.26-3.41V10.38a.12.12,0,0,0-.14-.13h-2.11c-1.82,0-2.62.53-2.62,1.72s.8,1.65,2.2,1.65C333.75,13.62,334.77,12.85,334.77,11.55Z"/><path d="M343.81,18.92a.2.2,0,0,1-.22-.22V4.64a.2.2,0,0,1,.22-.22h1.41a.21.21,0,0,1,.22.22v1h0a3.2,3.2,0,0,1,3-1.45,3.48,3.48,0,0,1,3.63,2.53,8.63,8.63,0,0,1,.37,3,8.65,8.65,0,0,1-.37,3,3.47,3.47,0,0,1-3.63,2.53,3.19,3.19,0,0,1-3-1.47h0v5a.21.21,0,0,1-.22.22Zm6.51-7a7.18,7.18,0,0,0,.24-2.2,7.39,7.39,0,0,0-.24-2.2,2.49,2.49,0,0,0-4.64,0,6.79,6.79,0,0,0-.24,2.2,6.63,6.63,0,0,0,.24,2.2,2.48,2.48,0,0,0,4.64,0Z"/><path d="M360.92,15a.21.21,0,0,1-.22-.22v-.92h0a3.45,3.45,0,0,1-3.12,1.38c-2,0-3.55-1-3.55-3.16s1.54-3.26,4.12-3.26h2.4c.09,0,.13,0,.13-.13V7.88c0-1.46-.57-2.07-2.53-2.07a4.07,4.07,0,0,0-2.55.75.2.2,0,0,1-.31,0l-.6-1a.24.24,0,0,1,.05-.31,5.88,5.88,0,0,1,3.59-1c3,0,4.13,1,4.13,3.59v7a.21.21,0,0,1-.22.22Zm-.26-3.41V10.38a.12.12,0,0,0-.13-.13h-2.11c-1.83,0-2.62.53-2.62,1.72s.79,1.65,2.2,1.65C359.65,13.62,360.66,12.85,360.66,11.55Z"/><path d="M365.3,15a.21.21,0,0,1-.22-.22V4.64a.21.21,0,0,1,.22-.22h1.41a.21.21,0,0,1,.22.22V5.72h0a2.94,2.94,0,0,1,2.8-1.54A3.26,3.26,0,0,1,371.9,5c.11.11.13.2.05.31l-.82,1.08a.2.2,0,0,1-.31,0,2.93,2.93,0,0,0-1.62-.5c-1.61,0-2.27,1.25-2.27,3.08v5.76a.21.21,0,0,1-.22.22Z"/><path d="M379.07,15a.21.21,0,0,1-.22-.22v-.92h0a3.45,3.45,0,0,1-3.12,1.38c-2,0-3.54-1-3.54-3.16s1.54-3.26,4.11-3.26h2.4c.09,0,.13,0,.13-.13V7.88c0-1.46-.57-2.07-2.53-2.07a4.07,4.07,0,0,0-2.55.75.2.2,0,0,1-.31,0l-.59-1a.23.23,0,0,1,0-.31,5.88,5.88,0,0,1,3.59-1c3,0,4.13,1,4.13,3.59v7a.21.21,0,0,1-.22.22Zm-.26-3.41V10.38a.12.12,0,0,0-.13-.13h-2.11c-1.83,0-2.62.53-2.62,1.72s.79,1.65,2.2,1.65C377.8,13.62,378.81,12.85,378.81,11.55Z"/><path d="M386.9,13.62a.23.23,0,0,1,0-.31l.91-1a.2.2,0,0,1,.3,0,5.1,5.1,0,0,0,3.26,1.21c1.54,0,2.31-.66,2.31-1.6s-.39-1.3-2.05-1.48l-1.12-.11c-2.07-.22-3.14-1.25-3.14-3,0-2,1.43-3.21,3.91-3.21A6.3,6.3,0,0,1,395,5.35a.21.21,0,0,1,.05.3l-.75.95a.21.21,0,0,1-.31,0,5.54,5.54,0,0,0-2.84-.85c-1.32,0-2,.59-2,1.45s.51,1.27,2.07,1.43l1.1.11c2.13.2,3.17,1.27,3.17,3,0,2.07-1.5,3.45-4.25,3.45A6.55,6.55,0,0,1,386.9,13.62Z"/><path d="M404.15,15a.21.21,0,0,1-.22-.22v-1h0A3.21,3.21,0,0,1,401,15.2c-2.31,0-3.65-1.58-3.65-4V4.64a.2.2,0,0,1,.22-.22H399a.2.2,0,0,1,.22.22v6.14c0,1.72.78,2.71,2.34,2.71a2.34,2.34,0,0,0,2.37-2.6V4.64a.21.21,0,0,1,.22-.22h1.41a.21.21,0,0,1,.22.22v10.1a.21.21,0,0,1-.22.22Z"/><path d="M416,15.07c-2.05,0-2.84-.92-2.84-3v-6a.12.12,0,0,0-.13-.13h-.88a.2.2,0,0,1-.22-.22V4.64a.2.2,0,0,1,.22-.22H413a.12.12,0,0,0,.13-.13v-3a.21.21,0,0,1,.22-.22h1.41a.21.21,0,0,1,.22.22v3c0,.09,0,.13.13.13h1.67a.21.21,0,0,1,.22.22V5.7a.21.21,0,0,1-.22.22h-1.67c-.09,0-.13,0-.13.13v6c0,1.06.39,1.35,1.34,1.35h.46a.2.2,0,0,1,.22.22v1.27a.21.21,0,0,1-.22.22Z"/><path d="M419.2,15a.21.21,0,0,1-.22-.22V4.64a.21.21,0,0,1,.22-.22h1.41a.21.21,0,0,1,.22.22V5.72h0a2.94,2.94,0,0,1,2.79-1.54A3.26,3.26,0,0,1,425.8,5c.11.11.13.2,0,.31L425,6.36a.2.2,0,0,1-.31,0,2.93,2.93,0,0,0-1.63-.5c-1.6,0-2.26,1.25-2.26,3.08v5.76a.21.21,0,0,1-.22.22Z"/><path d="M433,15a.21.21,0,0,1-.22-.22v-.92h0a3.45,3.45,0,0,1-3.12,1.38c-2,0-3.55-1-3.55-3.16s1.54-3.26,4.12-3.26h2.4a.12.12,0,0,0,.13-.13V7.88c0-1.46-.57-2.07-2.53-2.07a4.07,4.07,0,0,0-2.55.75.2.2,0,0,1-.31,0l-.6-1a.24.24,0,0,1,0-.31,5.87,5.87,0,0,1,3.58-1c3,0,4.14,1,4.14,3.59v7a.21.21,0,0,1-.22.22Zm-.26-3.41V10.38a.12.12,0,0,0-.13-.13h-2.12c-1.82,0-2.61.53-2.61,1.72s.79,1.65,2.2,1.65C431.7,13.62,432.71,12.85,432.71,11.55Z"/><path d="M437.35,15a.21.21,0,0,1-.22-.22V.22a.21.21,0,0,1,.22-.22h1.41a.21.21,0,0,1,.22.22V5.63h0a3.21,3.21,0,0,1,3-1.45,3.48,3.48,0,0,1,3.63,2.53,8.61,8.61,0,0,1,.38,3,8.62,8.62,0,0,1-.38,3A3.47,3.47,0,0,1,442,15.2a3.2,3.2,0,0,1-3-1.47h0v1a.21.21,0,0,1-.22.22Zm6.51-3.08a7.18,7.18,0,0,0,.24-2.2,7.39,7.39,0,0,0-.24-2.2,2.49,2.49,0,0,0-4.64,0,6.79,6.79,0,0,0-.24,2.2,6.63,6.63,0,0,0,.24,2.2,2.48,2.48,0,0,0,4.64,0Z"/><path d="M454.47,15a.2.2,0,0,1-.22-.22v-.92h0a3.44,3.44,0,0,1-3.12,1.38c-2,0-3.54-1-3.54-3.16s1.54-3.26,4.11-3.26h2.4c.09,0,.13,0,.13-.13V7.88c0-1.46-.57-2.07-2.53-2.07a4.09,4.09,0,0,0-2.55.75.2.2,0,0,1-.31,0l-.59-1a.23.23,0,0,1,0-.31,5.9,5.9,0,0,1,3.59-1c3,0,4.14,1,4.14,3.59v7a.21.21,0,0,1-.23.22Zm-.27-3.41V10.38a.12.12,0,0,0-.13-.13H452c-1.83,0-2.62.53-2.62,1.72s.79,1.65,2.2,1.65C453.19,13.62,454.2,12.85,454.2,11.55Z"/><path d="M456.88,18.92a.2.2,0,0,1-.21-.22V17.43a.2.2,0,0,1,.21-.22h.36c1,0,1.38-.29,1.38-1.41V4.64a.21.21,0,0,1,.22-.22h1.41a.21.21,0,0,1,.22.22V15.75c0,2.27-1,3.17-3.14,3.17ZM458.8,2.05a.21.21,0,0,1-.22-.22V.22A.21.21,0,0,1,458.8,0h1.5a.21.21,0,0,1,.22.22V1.83a.21.21,0,0,1-.22.22Z"/><path d="M462.91,12.37a8,8,0,0,1-.35-2.69A7.92,7.92,0,0,1,462.91,7a4.47,4.47,0,0,1,8.32,0,7.92,7.92,0,0,1,.35,2.66,8,8,0,0,1-.35,2.69,4.47,4.47,0,0,1-8.32,0Zm6.54-.53a7.13,7.13,0,0,0,.24-2.16,6.91,6.91,0,0,0-.24-2.13,2.53,2.53,0,0,0-4.75,0,6.57,6.57,0,0,0-.25,2.13,6.77,6.77,0,0,0,.25,2.16,2.53,2.53,0,0,0,4.75,0Z"/><path d="M473.41,12.85a.21.21,0,0,1,.22-.22h1.67a.21.21,0,0,1,.22.22v1.89a.21.21,0,0,1-.22.22h-1.67a.21.21,0,0,1-.22-.22Z"/></g></g></svg>