<svg xmlns="http://www.w3.org/2000/svg" viewBox="0 0 636.16 103.6"><title>14a</title><g id="Capa_2" data-name="Capa 2"><g id="respuestas_contorno" data-name="respuestas contorno"><path d="M0,.66A.21.21,0,0,1,.26.44h5c2.53,0,4.21,1.08,4.89,3.19a13.15,13.15,0,0,1,.39,4.29,13.15,13.15,0,0,1-.39,4.29C9.51,14.32,7.83,15.4,5.3,15.4h-5A.21.21,0,0,1,0,15.18ZM2.13,13.58H4.88c1.81,0,2.93-.6,3.42-2.05a11.35,11.35,0,0,0,.3-3.61,11.35,11.35,0,0,0-.3-3.61c-.49-1.45-1.61-2-3.42-2H2.13A.12.12,0,0,0,2,2.4v11A.12.12,0,0,0,2.13,13.58Z"/><path d="M19.45,15.4a.21.21,0,0,1-.22-.22v-1h0a3.22,3.22,0,0,1-2.89,1.45c-2.31,0-3.65-1.58-3.65-4V5.08a.21.21,0,0,1,.22-.22H14.3a.21.21,0,0,1,.22.22v6.14c0,1.72.77,2.71,2.33,2.71a2.34,2.34,0,0,0,2.38-2.6V5.08a.21.21,0,0,1,.22-.22h1.41a.21.21,0,0,1,.22.22v10.1a.21.21,0,0,1-.22.22Z"/><path d="M24,15.4a.21.21,0,0,1-.22-.22V5.08A.21.21,0,0,1,24,4.86h1.41a.21.21,0,0,1,.22.22V6.16h0a3,3,0,0,1,2.8-1.54,3.28,3.28,0,0,1,2.16.79c.11.11.13.2,0,.31L29.86,6.8a.2.2,0,0,1-.31,0,3,3,0,0,0-1.63-.5c-1.61,0-2.27,1.25-2.27,3.08v5.76a.21.21,0,0,1-.22.22Z"/><path d="M37.8,15.4a.2.2,0,0,1-.22-.22v-.92h0a3.44,3.44,0,0,1-3.12,1.38c-2,0-3.54-1-3.54-3.16S32.43,9.22,35,9.22h2.4a.12.12,0,0,0,.13-.13V8.32c0-1.45-.57-2.07-2.53-2.07A4.09,4.09,0,0,0,32.45,7a.2.2,0,0,1-.31,0l-.59-1a.22.22,0,0,1,0-.3,5.83,5.83,0,0,1,3.59-1c3,0,4.13,1,4.13,3.59v7a.2.2,0,0,1-.22.22ZM37.53,12V10.83c0-.09,0-.14-.13-.14H35.29c-1.83,0-2.62.53-2.62,1.72s.79,1.65,2.2,1.65C36.52,14.06,37.53,13.29,37.53,12Z"/><path d="M48.8,15.4a.2.2,0,0,1-.22-.22V9c0-1.69-.77-2.68-2.36-2.68A2.36,2.36,0,0,0,43.8,8.91v6.27a.21.21,0,0,1-.22.22H42.17a.21.21,0,0,1-.22-.22V5.08a.21.21,0,0,1,.22-.22h1.41a.21.21,0,0,1,.22.22v1h0a3.35,3.35,0,0,1,3-1.43c2.29,0,3.65,1.56,3.65,4v6.6a.2.2,0,0,1-.21.22Z"/><path d="M56.1,15.51c-2.05,0-2.84-.92-2.84-3v-6c0-.09,0-.13-.13-.13h-.88A.21.21,0,0,1,52,6.14V5.08a.21.21,0,0,1,.22-.22h.88c.09,0,.13,0,.13-.13v-3a.21.21,0,0,1,.22-.22h1.41a.21.21,0,0,1,.22.22v3c0,.09,0,.13.13.13h1.67a.2.2,0,0,1,.22.22V6.14a.2.2,0,0,1-.22.22H55.24c-.09,0-.13,0-.13.13v6c0,1.06.4,1.35,1.34,1.35h.46a.2.2,0,0,1,.22.22v1.27a.2.2,0,0,1-.22.22Z"/><path d="M58.83,12.78a8.2,8.2,0,0,1-.36-2.66,8.46,8.46,0,0,1,.33-2.66,4.44,4.44,0,0,1,8.28,0,9.18,9.18,0,0,1,.33,3,.21.21,0,0,1-.24.22H60.5c-.09,0-.13.05-.13.14a3.93,3.93,0,0,0,.17,1.27,2.62,2.62,0,0,0,2.67,1.83,3.43,3.43,0,0,0,2.7-1.17.22.22,0,0,1,.33,0l.9.81a.21.21,0,0,1,0,.31,5.13,5.13,0,0,1-4.12,1.8A4.07,4.07,0,0,1,58.83,12.78Zm6.55-3.56a.12.12,0,0,0,.14-.13,3.68,3.68,0,0,0-.16-1.19,2.6,2.6,0,0,0-4.84,0,3.71,3.71,0,0,0-.15,1.19.12.12,0,0,0,.13.13Z"/><path d="M76.43,15.51c-1.85,0-2.58-.88-2.58-2.77V.66a.21.21,0,0,1,.22-.22h1.41a.21.21,0,0,1,.22.22v12c0,.88.33,1.17,1.06,1.17h.41a.2.2,0,0,1,.22.22v1.27a.2.2,0,0,1-.22.22Z"/><path d="M85.49,15.4a.21.21,0,0,1-.22-.22v-.92h0a3.45,3.45,0,0,1-3.12,1.38c-2,0-3.55-1-3.55-3.16s1.54-3.26,4.12-3.26h2.4a.12.12,0,0,0,.13-.13V8.32c0-1.45-.57-2.07-2.53-2.07A4.13,4.13,0,0,0,80.14,7a.19.19,0,0,1-.3,0l-.6-1a.23.23,0,0,1,.05-.3,5.8,5.8,0,0,1,3.58-1c3,0,4.14,1,4.14,3.59v7a.21.21,0,0,1-.22.22ZM85.23,12V10.83a.12.12,0,0,0-.13-.14H83c-1.82,0-2.61.53-2.61,1.72s.79,1.65,2.19,1.65C84.21,14.06,85.23,13.29,85.23,12Z"/><path d="M94.27,15.4a.21.21,0,0,1-.22-.22V5.08a.21.21,0,0,1,.22-.22h1.41a.21.21,0,0,1,.22.22V6.16h0a2.93,2.93,0,0,1,2.79-1.54,3.26,3.26,0,0,1,2.16.79c.11.11.13.2,0,.31L100.1,6.8a.2.2,0,0,1-.31,0,3,3,0,0,0-1.63-.5c-1.6,0-2.26,1.25-2.26,3.08v5.76a.21.21,0,0,1-.22.22Z"/><path d="M101.51,12.78a8.2,8.2,0,0,1-.36-2.66,8.17,8.17,0,0,1,.33-2.66,4.44,4.44,0,0,1,8.28,0,9.18,9.18,0,0,1,.33,3,.21.21,0,0,1-.24.22h-6.67c-.09,0-.13.05-.13.14a3.93,3.93,0,0,0,.17,1.27,2.61,2.61,0,0,0,2.66,1.83,3.44,3.44,0,0,0,2.71-1.17.22.22,0,0,1,.33,0l.9.81a.21.21,0,0,1,0,.31,5.13,5.13,0,0,1-4.12,1.8A4.07,4.07,0,0,1,101.51,12.78Zm6.55-3.56a.12.12,0,0,0,.14-.13A3.68,3.68,0,0,0,108,7.9a2.6,2.6,0,0,0-4.84,0,3.71,3.71,0,0,0-.15,1.19.12.12,0,0,0,.13.13Z"/><path d="M118.56,15.4a.2.2,0,0,1-.22-.22v-.92h0a3.44,3.44,0,0,1-3.12,1.38c-2,0-3.54-1-3.54-3.16s1.54-3.26,4.11-3.26h2.4a.12.12,0,0,0,.13-.13V8.32c0-1.45-.57-2.07-2.53-2.07a4.09,4.09,0,0,0-2.55.75.2.2,0,0,1-.31,0l-.59-1a.22.22,0,0,1,0-.3,5.83,5.83,0,0,1,3.59-1c3,0,4.14,1,4.14,3.59v7a.21.21,0,0,1-.22.22ZM118.29,12V10.83c0-.09,0-.14-.13-.14h-2.11c-1.83,0-2.62.53-2.62,1.72s.79,1.65,2.2,1.65C117.28,14.06,118.29,13.29,118.29,12Z"/><path d="M125.24,15.51c-1.84,0-2.57-.88-2.57-2.77V.66a.21.21,0,0,1,.22-.22h1.41a.21.21,0,0,1,.22.22v12c0,.88.33,1.17,1,1.17H126a.2.2,0,0,1,.22.22v1.27a.2.2,0,0,1-.22.22Z"/><path d="M128.1,2.49a.21.21,0,0,1-.22-.22V.66a.21.21,0,0,1,.22-.22h1.5a.21.21,0,0,1,.22.22V2.27a.21.21,0,0,1-.22.22Zm.05,12.91a.21.21,0,0,1-.22-.22V5.08a.21.21,0,0,1,.22-.22h1.41a.21.21,0,0,1,.22.22v10.1a.21.21,0,0,1-.22.22Z"/><path d="M132.13,15.4a.21.21,0,0,1-.22-.22V14a.34.34,0,0,1,.09-.25l5.78-7.19v0h-5.36a.2.2,0,0,1-.22-.22V5.08a.2.2,0,0,1,.22-.22h7.34a.2.2,0,0,1,.22.22V6.32a.37.37,0,0,1-.08.24l-5.75,7.13v0h5.61A.2.2,0,0,1,140,14v1.23a.2.2,0,0,1-.22.22Z"/><path d="M148.5,15.4a.21.21,0,0,1-.22-.22v-.92h0a3.47,3.47,0,0,1-3.13,1.38c-2,0-3.54-1-3.54-3.16s1.54-3.26,4.11-3.26h2.4a.12.12,0,0,0,.13-.13V8.32c0-1.45-.57-2.07-2.53-2.07a4.12,4.12,0,0,0-2.55.75.2.2,0,0,1-.31,0l-.59-1a.22.22,0,0,1,0-.3,5.83,5.83,0,0,1,3.59-1c3,0,4.14,1,4.14,3.59v7a.21.21,0,0,1-.22.22ZM148.23,12V10.83c0-.09,0-.14-.13-.14H146c-1.83,0-2.62.53-2.62,1.72s.79,1.65,2.2,1.65C147.22,14.06,148.23,13.29,148.23,12Z"/><path d="M152.35,7.46a4.07,4.07,0,0,1,4.16-2.84,4.22,4.22,0,0,1,3.6,1.78c.07.11.07.2-.06.31l-1,.79a.2.2,0,0,1-.31,0,2.58,2.58,0,0,0-2.26-1.14A2.29,2.29,0,0,0,154.15,8a6.89,6.89,0,0,0-.24,2.13,7,7,0,0,0,.24,2.16,2.29,2.29,0,0,0,2.36,1.65,2.59,2.59,0,0,0,2.26-1.15.2.2,0,0,1,.31,0l1,.79c.13.11.13.2.06.31a4.22,4.22,0,0,1-3.6,1.78,4.08,4.08,0,0,1-4.16-2.83,9.08,9.08,0,0,1-.33-2.69A9,9,0,0,1,152.35,7.46Z"/><path d="M162.33,2.49a.21.21,0,0,1-.22-.22V.66a.21.21,0,0,1,.22-.22h1.5a.21.21,0,0,1,.22.22V2.27a.21.21,0,0,1-.22.22Zm0,12.91a.21.21,0,0,1-.22-.22V5.08a.21.21,0,0,1,.22-.22h1.41a.21.21,0,0,1,.22.22v10.1a.21.21,0,0,1-.22.22Z"/><path d="M166.45,12.81a8,8,0,0,1-.35-2.69,7.92,7.92,0,0,1,.35-2.66,4.47,4.47,0,0,1,8.32,0,7.92,7.92,0,0,1,.35,2.66,8,8,0,0,1-.35,2.69,4.47,4.47,0,0,1-8.32,0Zm6.53-.53a6.82,6.82,0,0,0,.24-2.16A6.61,6.61,0,0,0,173,8a2.53,2.53,0,0,0-4.75,0,6.61,6.61,0,0,0-.24,2.13,6.82,6.82,0,0,0,.24,2.16,2.53,2.53,0,0,0,4.75,0Zm-3.17-9.13c-.13,0-.19-.09-.13-.22L171.35.22a.4.4,0,0,1,.38-.22h1.45c.13,0,.2.11.11.22l-2,2.71a.45.45,0,0,1-.42.22Z"/><path d="M184.05,15.4a.21.21,0,0,1-.22-.22V9c0-1.69-.77-2.68-2.36-2.68a2.36,2.36,0,0,0-2.42,2.57v6.27a.2.2,0,0,1-.22.22h-1.4a.2.2,0,0,1-.22-.22V5.08a.2.2,0,0,1,.22-.22h1.4a.2.2,0,0,1,.22.22v1h0A3.32,3.32,0,0,1,182,4.62c2.28,0,3.65,1.56,3.65,4v6.6a.21.21,0,0,1-.22.22Z"/><path d="M199.29,15.4a.21.21,0,0,1-.22-.22v-1h0a3.19,3.19,0,0,1-3,1.47,3.47,3.47,0,0,1-3.63-2.53,8.62,8.62,0,0,1-.38-3,8.61,8.61,0,0,1,.38-3,3.48,3.48,0,0,1,3.63-2.53,3.2,3.2,0,0,1,3,1.45h0V.66a.21.21,0,0,1,.22-.22h1.41a.21.21,0,0,1,.22.22V15.18a.21.21,0,0,1-.22.22Zm-.46-3.08a6.63,6.63,0,0,0,.24-2.2,6.79,6.79,0,0,0-.24-2.2,2.49,2.49,0,0,0-4.64,0,7.35,7.35,0,0,0-.24,2.2,7.18,7.18,0,0,0,.24,2.2,2.48,2.48,0,0,0,4.64,0Z"/><path d="M203.36,12.78a8.25,8.25,0,0,1-.35-2.66,8.17,8.17,0,0,1,.33-2.66,4.44,4.44,0,0,1,8.28,0,9.47,9.47,0,0,1,.33,3c0,.14-.09.22-.25.22H205a.13.13,0,0,0-.14.14,3.9,3.9,0,0,0,.18,1.27,2.6,2.6,0,0,0,2.66,1.83,3.44,3.44,0,0,0,2.71-1.17.22.22,0,0,1,.33,0l.9.81a.2.2,0,0,1,0,.31,5.09,5.09,0,0,1-4.11,1.8A4.08,4.08,0,0,1,203.36,12.78Zm6.56-3.56a.12.12,0,0,0,.13-.13,3.71,3.71,0,0,0-.15-1.19,2.6,2.6,0,0,0-4.84,0,3.68,3.68,0,0,0-.16,1.19.12.12,0,0,0,.14.13Z"/><path d="M224.81,15.4a.21.21,0,0,1-.22-.22v-.92h0a3.45,3.45,0,0,1-3.12,1.38c-2,0-3.54-1-3.54-3.16s1.54-3.26,4.11-3.26h2.4a.12.12,0,0,0,.13-.13V8.32c0-1.45-.57-2.07-2.53-2.07a4.07,4.07,0,0,0-2.55.75.2.2,0,0,1-.31,0l-.6-1a.23.23,0,0,1,.05-.3,5.81,5.81,0,0,1,3.59-1c3,0,4.13,1,4.13,3.59v7a.21.21,0,0,1-.22.22ZM224.55,12V10.83c0-.09,0-.14-.13-.14h-2.11c-1.83,0-2.62.53-2.62,1.72s.79,1.65,2.2,1.65C223.54,14.06,224.55,13.29,224.55,12Z"/><path d="M228.66,7.46a4.09,4.09,0,0,1,4.16-2.84,4.22,4.22,0,0,1,3.61,1.78c.07.11.07.2-.07.31l-1,.79a.2.2,0,0,1-.31,0,2.59,2.59,0,0,0-2.27-1.14A2.28,2.28,0,0,0,230.47,8a6.85,6.85,0,0,0-.25,2.13,6.94,6.94,0,0,0,.25,2.16,2.28,2.28,0,0,0,2.35,1.65,2.6,2.6,0,0,0,2.27-1.15.2.2,0,0,1,.31,0l1,.79c.14.11.14.2.07.31a4.22,4.22,0,0,1-3.61,1.78,4.09,4.09,0,0,1-4.16-2.83,9.08,9.08,0,0,1-.33-2.69A9,9,0,0,1,228.66,7.46Z"/><path d="M241.53,15.51c-2,0-2.83-.92-2.83-3v-6c0-.09,0-.13-.14-.13h-.88a.21.21,0,0,1-.22-.22V5.08a.21.21,0,0,1,.22-.22h.88c.09,0,.14,0,.14-.13v-3a.2.2,0,0,1,.21-.22h1.41a.2.2,0,0,1,.22.22v3a.12.12,0,0,0,.13.13h1.68a.21.21,0,0,1,.22.22V6.14a.21.21,0,0,1-.22.22h-1.68a.12.12,0,0,0-.13.13v6c0,1.06.4,1.35,1.34,1.35h.47a.2.2,0,0,1,.22.22v1.27a.21.21,0,0,1-.22.22Z"/><path d="M244.72,2.49a.21.21,0,0,1-.22-.22V.66a.21.21,0,0,1,.22-.22h1.5a.21.21,0,0,1,.22.22V2.27a.21.21,0,0,1-.22.22Zm.05,12.91a.2.2,0,0,1-.22-.22V5.08a.2.2,0,0,1,.22-.22h1.4a.2.2,0,0,1,.22.22v10.1a.2.2,0,0,1-.22.22Z"/><path d="M251.94,15.4c-.15,0-.22-.09-.27-.22l-3.78-10.1c0-.13,0-.22.18-.22h1.51c.16,0,.22.07.29.22l2.73,7.57h0l2.66-7.57a.27.27,0,0,1,.27-.22h1.5c.15,0,.22.09.17.22l-3.76,10.1a.29.29,0,0,1-.29.22Z"/><path d="M258.91,2.49a.21.21,0,0,1-.22-.22V.66a.21.21,0,0,1,.22-.22h1.5a.21.21,0,0,1,.22.22V2.27a.21.21,0,0,1-.22.22Zm0,12.91a.2.2,0,0,1-.22-.22V5.08a.2.2,0,0,1,.22-.22h1.4a.2.2,0,0,1,.22.22v10.1a.2.2,0,0,1-.22.22Z"/><path d="M269.91,15.4a.21.21,0,0,1-.22-.22v-1h0a3.2,3.2,0,0,1-3,1.47,3.47,3.47,0,0,1-3.63-2.53,8.62,8.62,0,0,1-.38-3,8.61,8.61,0,0,1,.38-3,3.48,3.48,0,0,1,3.63-2.53,3.21,3.21,0,0,1,3,1.45h0V.66a.21.21,0,0,1,.22-.22h1.41a.21.21,0,0,1,.22.22V15.18a.21.21,0,0,1-.22.22Zm-.46-3.08a6.63,6.63,0,0,0,.24-2.2,6.79,6.79,0,0,0-.24-2.2,2.49,2.49,0,0,0-4.64,0,7.35,7.35,0,0,0-.24,2.2,7.18,7.18,0,0,0,.24,2.2,2.48,2.48,0,0,0,4.64,0Z"/><path d="M280.65,15.4a.21.21,0,0,1-.22-.22v-.92h0a3.47,3.47,0,0,1-3.13,1.38c-2,0-3.54-1-3.54-3.16s1.54-3.26,4.11-3.26h2.4a.12.12,0,0,0,.13-.13V8.32c0-1.45-.57-2.07-2.53-2.07A4.12,4.12,0,0,0,275.3,7,.2.2,0,0,1,275,7l-.59-1a.22.22,0,0,1,0-.3,5.85,5.85,0,0,1,3.59-1c3,0,4.14,1,4.14,3.59v7a.21.21,0,0,1-.22.22ZM280.38,12V10.83c0-.09,0-.14-.13-.14h-2.11c-1.83,0-2.62.53-2.62,1.72s.79,1.65,2.2,1.65C279.37,14.06,280.38,13.29,280.38,12Z"/><path d="M291.41,15.4a.2.2,0,0,1-.22-.22v-1h0a3.18,3.18,0,0,1-3,1.47,3.48,3.48,0,0,1-3.63-2.53,8.9,8.9,0,0,1-.37-3,8.89,8.89,0,0,1,.37-3,3.49,3.49,0,0,1,3.63-2.53,3.19,3.19,0,0,1,3,1.45h0V.66a.2.2,0,0,1,.22-.22h1.4a.21.21,0,0,1,.23.22V15.18a.21.21,0,0,1-.23.22Zm-.47-3.08a6.58,6.58,0,0,0,.25-2.2,6.73,6.73,0,0,0-.25-2.2,2.49,2.49,0,0,0-4.64,0,7.69,7.69,0,0,0-.24,2.2,7.51,7.51,0,0,0,.24,2.2,2.48,2.48,0,0,0,4.64,0Z"/><path d="M295.47,12.78a8.54,8.54,0,0,1-.35-2.66,8.17,8.17,0,0,1,.33-2.66,4.44,4.44,0,0,1,8.28,0,9.18,9.18,0,0,1,.33,3c0,.14-.09.22-.25.22h-6.66c-.09,0-.13.05-.13.14a3.93,3.93,0,0,0,.17,1.27,2.61,2.61,0,0,0,2.66,1.83,3.44,3.44,0,0,0,2.71-1.17.22.22,0,0,1,.33,0l.9.81a.2.2,0,0,1,0,.31,5.09,5.09,0,0,1-4.11,1.8A4.09,4.09,0,0,1,295.47,12.78ZM302,9.22a.12.12,0,0,0,.13-.13A3.71,3.71,0,0,0,302,7.9a2.6,2.6,0,0,0-4.84,0A3.71,3.71,0,0,0,297,9.09a.12.12,0,0,0,.13.13Z"/><path d="M305.42,14.06a.21.21,0,0,1,0-.31l.9-1a.23.23,0,0,1,.31,0A5.07,5.07,0,0,0,309.88,14c1.55,0,2.32-.66,2.32-1.6s-.4-1.3-2.05-1.48L309,10.8c-2.07-.22-3.15-1.25-3.15-3,0-2,1.43-3.21,3.92-3.21a6.3,6.3,0,0,1,3.74,1.17.2.2,0,0,1,0,.3l-.75,1a.2.2,0,0,1-.3,0,5.67,5.67,0,0,0-2.84-.85c-1.32,0-2,.59-2,1.45s.5,1.28,2.06,1.43l1.1.11c2.14.2,3.17,1.28,3.17,3,0,2.07-1.49,3.45-4.24,3.45A6.55,6.55,0,0,1,305.42,14.06Z"/><path d="M323,15.51c-1.84,0-2.57-.88-2.57-2.77V.66a.21.21,0,0,1,.22-.22H322a.21.21,0,0,1,.22.22v12c0,.88.33,1.17,1.05,1.17h.42a.2.2,0,0,1,.22.22v1.27a.2.2,0,0,1-.22.22Z"/><path d="M332,15.4a.21.21,0,0,1-.22-.22v-.92h0a3.47,3.47,0,0,1-3.13,1.38c-2,0-3.54-1-3.54-3.16s1.54-3.26,4.11-3.26h2.4a.12.12,0,0,0,.14-.13V8.32c0-1.45-.58-2.07-2.54-2.07a4.12,4.12,0,0,0-2.55.75.2.2,0,0,1-.31,0l-.59-1a.22.22,0,0,1,0-.3,5.85,5.85,0,0,1,3.59-1c3,0,4.14,1,4.14,3.59v7a.21.21,0,0,1-.22.22ZM331.78,12V10.83a.13.13,0,0,0-.14-.14h-2.11c-1.82,0-2.62.53-2.62,1.72s.8,1.65,2.2,1.65C330.76,14.06,331.78,13.29,331.78,12Z"/><path d="M336.42,15.4a.2.2,0,0,1-.22-.22V.66a.2.2,0,0,1,.22-.22h1.4a.2.2,0,0,1,.22.22V6.07h0a3.19,3.19,0,0,1,3-1.45,3.49,3.49,0,0,1,3.63,2.53,8.89,8.89,0,0,1,.37,3,8.9,8.9,0,0,1-.37,3,3.48,3.48,0,0,1-3.63,2.53,3.18,3.18,0,0,1-3-1.47h0v1a.2.2,0,0,1-.22.22Zm6.51-3.08a7.18,7.18,0,0,0,.24-2.2,7.35,7.35,0,0,0-.24-2.2,2.49,2.49,0,0,0-4.64,0,6.73,6.73,0,0,0-.25,2.2,6.58,6.58,0,0,0,.25,2.2,2.48,2.48,0,0,0,4.64,0Z"/><path d="M346.87,12.81a7.75,7.75,0,0,1-.36-2.69,7.64,7.64,0,0,1,.36-2.66,4.46,4.46,0,0,1,8.31,0,7.64,7.64,0,0,1,.36,2.66,7.75,7.75,0,0,1-.36,2.69,4.47,4.47,0,0,1-8.31,0Zm6.53-.53a6.82,6.82,0,0,0,.24-2.16A6.61,6.61,0,0,0,353.4,8a2.53,2.53,0,0,0-4.75,0,6.61,6.61,0,0,0-.24,2.13,6.82,6.82,0,0,0,.24,2.16,2.53,2.53,0,0,0,4.75,0Z"/><path d="M357.84,15.4a.21.21,0,0,1-.22-.22V5.08a.21.21,0,0,1,.22-.22h1.41a.21.21,0,0,1,.22.22V6.16h0a3,3,0,0,1,2.8-1.54,3.26,3.26,0,0,1,2.16.79c.1.11.13.2,0,.31l-.82,1.08a.19.19,0,0,1-.3,0,3.07,3.07,0,0,0-1.63-.5c-1.61,0-2.27,1.25-2.27,3.08v5.76a.21.21,0,0,1-.22.22Z"/><path d="M371.62,15.4a.2.2,0,0,1-.22-.22v-.92h0a3.47,3.47,0,0,1-3.13,1.38c-2,0-3.54-1-3.54-3.16s1.54-3.26,4.11-3.26h2.4a.12.12,0,0,0,.13-.13V8.32c0-1.45-.57-2.07-2.53-2.07a4.09,4.09,0,0,0-2.55.75A.2.2,0,0,1,366,7l-.59-1a.22.22,0,0,1,0-.3,5.83,5.83,0,0,1,3.59-1c3,0,4.13,1,4.13,3.59v7a.2.2,0,0,1-.22.22ZM371.35,12V10.83c0-.09,0-.14-.13-.14h-2.11c-1.83,0-2.62.53-2.62,1.72s.79,1.65,2.2,1.65C370.34,14.06,371.35,13.29,371.35,12Z"/><path d="M378.3,15.51c-1.84,0-2.57-.88-2.57-2.77V.66A.21.21,0,0,1,376,.44h1.41a.21.21,0,0,1,.22.22v12c0,.88.33,1.17,1.05,1.17h.42a.2.2,0,0,1,.22.22v1.27a.21.21,0,0,1-.22.22Z"/><path d="M380.7,12.78a8.25,8.25,0,0,1-.35-2.66,8.17,8.17,0,0,1,.33-2.66,4.43,4.43,0,0,1,8.27,0,9.18,9.18,0,0,1,.33,3,.21.21,0,0,1-.24.22h-6.67a.12.12,0,0,0-.13.14,3.9,3.9,0,0,0,.18,1.27,2.6,2.6,0,0,0,2.66,1.83,3.47,3.47,0,0,0,2.71-1.17.22.22,0,0,1,.33,0l.9.81a.2.2,0,0,1,0,.31,5.12,5.12,0,0,1-4.11,1.8A4.07,4.07,0,0,1,380.7,12.78Zm6.56-3.56a.12.12,0,0,0,.13-.13,3.71,3.71,0,0,0-.15-1.19,2.61,2.61,0,0,0-4.85,0,4,4,0,0,0-.15,1.19.12.12,0,0,0,.13.13Z"/><path d="M390.64,14.06a.23.23,0,0,1,0-.31l.91-1a.23.23,0,0,1,.31,0A5,5,0,0,0,395.11,14c1.54,0,2.31-.66,2.31-1.6s-.39-1.3-2-1.48l-1.13-.11c-2.07-.22-3.14-1.25-3.14-3,0-2,1.43-3.21,3.91-3.21a6.3,6.3,0,0,1,3.74,1.17.21.21,0,0,1,.05.3l-.75,1a.21.21,0,0,1-.31,0,5.64,5.64,0,0,0-2.84-.85c-1.32,0-2,.59-2,1.45S393.42,9,395,9.11l1.1.11c2.13.2,3.17,1.28,3.17,3,0,2.07-1.5,3.45-4.25,3.45A6.57,6.57,0,0,1,390.64,14.06Z"/><path d="M401.23,13.07h1.54a.21.21,0,0,1,.22.22v2.05a.74.74,0,0,1-.13.48l-1.37,1.8a.36.36,0,0,1-.28.16.19.19,0,0,1-.2-.2V13.29A.2.2,0,0,1,401.23,13.07Z"/><path d="M409.1,12.78a8.25,8.25,0,0,1-.35-2.66,8.17,8.17,0,0,1,.33-2.66,4.43,4.43,0,0,1,8.27,0,9.18,9.18,0,0,1,.33,3c0,.14-.08.22-.24.22h-6.67a.12.12,0,0,0-.13.14,3.9,3.9,0,0,0,.18,1.27,2.6,2.6,0,0,0,2.66,1.83,3.46,3.46,0,0,0,2.71-1.17.22.22,0,0,1,.33,0l.9.81a.2.2,0,0,1,0,.31,5.09,5.09,0,0,1-4.11,1.8A4.07,4.07,0,0,1,409.1,12.78Zm6.56-3.56a.12.12,0,0,0,.13-.13,3.71,3.71,0,0,0-.15-1.19,2.6,2.6,0,0,0-4.84,0,3.68,3.68,0,0,0-.16,1.19.12.12,0,0,0,.13.13Z"/><path d="M422.59,15.4c-.16,0-.22-.09-.27-.22l-3.78-10.1c0-.13,0-.22.18-.22h1.51c.16,0,.22.07.29.22l2.73,7.57h0L426,5.08a.26.26,0,0,1,.26-.22h1.49c.16,0,.23.09.18.22l-3.76,10.1a.29.29,0,0,1-.29.22Z"/><path d="M429.56,2.49a.21.21,0,0,1-.22-.22V.66a.21.21,0,0,1,.22-.22h1.5a.21.21,0,0,1,.22.22V2.27a.21.21,0,0,1-.22.22Zm.05,12.91a.2.2,0,0,1-.22-.22V5.08a.2.2,0,0,1,.22-.22H431a.2.2,0,0,1,.22.22v10.1a.2.2,0,0,1-.22.22Z"/><path d="M437,15.51c-2,0-2.84-.92-2.84-3v-6c0-.09,0-.13-.13-.13h-.88a.21.21,0,0,1-.22-.22V5.08a.21.21,0,0,1,.22-.22h.88c.09,0,.13,0,.13-.13v-3a.21.21,0,0,1,.22-.22h1.41a.21.21,0,0,1,.22.22v3c0,.09,0,.13.13.13h1.67a.21.21,0,0,1,.22.22V6.14a.21.21,0,0,1-.22.22h-1.67c-.09,0-.13,0-.13.13v6c0,1.06.4,1.35,1.34,1.35h.46a.2.2,0,0,1,.22.22v1.27a.21.21,0,0,1-.22.22Z"/><path d="M439.75,12.78a8.2,8.2,0,0,1-.36-2.66,8.17,8.17,0,0,1,.33-2.66,4.44,4.44,0,0,1,8.28,0,9.18,9.18,0,0,1,.33,3,.21.21,0,0,1-.24.22h-6.67c-.09,0-.13.05-.13.14a3.93,3.93,0,0,0,.17,1.27,2.62,2.62,0,0,0,2.67,1.83,3.43,3.43,0,0,0,2.7-1.17.22.22,0,0,1,.33,0l.9.81a.21.21,0,0,1,0,.31,5.13,5.13,0,0,1-4.12,1.8A4.07,4.07,0,0,1,439.75,12.78Zm6.55-3.56a.12.12,0,0,0,.14-.13,3.68,3.68,0,0,0-.16-1.19,2.6,2.6,0,0,0-4.84,0,3.71,3.71,0,0,0-.15,1.19.12.12,0,0,0,.13.13Z"/><path d="M454.53,12.78a8.25,8.25,0,0,1-.35-2.66,8.17,8.17,0,0,1,.33-2.66,4.43,4.43,0,0,1,8.27,0,9.18,9.18,0,0,1,.33,3,.21.21,0,0,1-.24.22H456.2a.12.12,0,0,0-.13.14,3.9,3.9,0,0,0,.18,1.27,2.6,2.6,0,0,0,2.66,1.83,3.47,3.47,0,0,0,2.71-1.17.22.22,0,0,1,.33,0l.9.81a.2.2,0,0,1,0,.31,5.13,5.13,0,0,1-4.12,1.8A4.07,4.07,0,0,1,454.53,12.78Zm6.56-3.56a.12.12,0,0,0,.13-.13,3.71,3.71,0,0,0-.15-1.19,2.61,2.61,0,0,0-4.85,0,4,4,0,0,0-.15,1.19.12.12,0,0,0,.13.13Z"/><path d="M467.73,15.51c-1.85,0-2.57-.88-2.57-2.77V.66a.2.2,0,0,1,.22-.22h1.4a.2.2,0,0,1,.22.22v12c0,.88.33,1.17,1.06,1.17h.42a.2.2,0,0,1,.22.22v1.27a.21.21,0,0,1-.22.22Z"/><path d="M481.44,15.4a.2.2,0,0,1-.22-.22v-1h0a3.2,3.2,0,0,1-2.88,1.45c-2.31,0-3.65-1.58-3.65-4V5.08a.21.21,0,0,1,.22-.22h1.41a.21.21,0,0,1,.22.22v6.14c0,1.72.77,2.71,2.33,2.71a2.34,2.34,0,0,0,2.38-2.6V5.08a.2.2,0,0,1,.22-.22h1.4a.2.2,0,0,1,.22.22v10.1a.2.2,0,0,1-.22.22Z"/><path d="M485.07,14.06a.21.21,0,0,1,0-.31l.9-1a.23.23,0,0,1,.31,0A5.07,5.07,0,0,0,489.53,14c1.54,0,2.31-.66,2.31-1.6s-.39-1.3-2-1.48l-1.13-.11c-2.06-.22-3.14-1.25-3.14-3,0-2,1.43-3.21,3.91-3.21a6.3,6.3,0,0,1,3.74,1.17.21.21,0,0,1,.05.3l-.75,1a.21.21,0,0,1-.31,0,5.64,5.64,0,0,0-2.84-.85c-1.32,0-2,.59-2,1.45s.51,1.28,2.07,1.43l1.1.11c2.13.2,3.17,1.28,3.17,3,0,2.07-1.5,3.45-4.25,3.45A6.52,6.52,0,0,1,485.07,14.06Z"/><path d="M495.41,12.81a7.75,7.75,0,0,1-.36-2.69,7.64,7.64,0,0,1,.36-2.66,4.46,4.46,0,0,1,8.31,0,7.92,7.92,0,0,1,.35,2.66,8,8,0,0,1-.35,2.69,4.47,4.47,0,0,1-8.31,0Zm6.53-.53a6.82,6.82,0,0,0,.24-2.16A6.61,6.61,0,0,0,501.94,8a2.53,2.53,0,0,0-4.75,0,6.61,6.61,0,0,0-.24,2.13,6.82,6.82,0,0,0,.24,2.16,2.53,2.53,0,0,0,4.75,0Z"/><path d="M517.16,15.4a.21.21,0,0,1-.22-.22v-1h0a3.19,3.19,0,0,1-3,1.47,3.47,3.47,0,0,1-3.63-2.53,8.62,8.62,0,0,1-.38-3,8.61,8.61,0,0,1,.38-3,3.48,3.48,0,0,1,3.63-2.53,3.2,3.2,0,0,1,3,1.45h0V.66a.21.21,0,0,1,.22-.22h1.41a.21.21,0,0,1,.22.22V15.18a.21.21,0,0,1-.22.22Zm-.46-3.08a6.63,6.63,0,0,0,.24-2.2,6.79,6.79,0,0,0-.24-2.2,2.49,2.49,0,0,0-4.64,0,7.35,7.35,0,0,0-.24,2.2,7.18,7.18,0,0,0,.24,2.2,2.48,2.48,0,0,0,4.64,0Z"/><path d="M521.23,12.78a8.25,8.25,0,0,1-.35-2.66,8.17,8.17,0,0,1,.33-2.66,4.43,4.43,0,0,1,8.27,0,9.18,9.18,0,0,1,.33,3c0,.14-.08.22-.24.22H522.9a.12.12,0,0,0-.13.14A3.9,3.9,0,0,0,523,12.1a2.6,2.6,0,0,0,2.66,1.83,3.44,3.44,0,0,0,2.71-1.17.22.22,0,0,1,.33,0l.9.81a.2.2,0,0,1,0,.31,5.09,5.09,0,0,1-4.11,1.8A4.07,4.07,0,0,1,521.23,12.78Zm6.56-3.56a.12.12,0,0,0,.13-.13,3.71,3.71,0,0,0-.15-1.19,2.6,2.6,0,0,0-4.84,0,3.68,3.68,0,0,0-.16,1.19.12.12,0,0,0,.13.13Z"/><path d="M542.9,15.4a.21.21,0,0,1-.22-.22v-1h0a3.2,3.2,0,0,1-3,1.47A3.47,3.47,0,0,1,536,13.11a8.62,8.62,0,0,1-.38-3,8.61,8.61,0,0,1,.38-3,3.48,3.48,0,0,1,3.63-2.53,3.21,3.21,0,0,1,3,1.45h0V.66a.21.21,0,0,1,.22-.22h1.41a.21.21,0,0,1,.22.22V15.18a.21.21,0,0,1-.22.22Zm-.46-3.08a6.63,6.63,0,0,0,.24-2.2,6.79,6.79,0,0,0-.24-2.2,2.49,2.49,0,0,0-4.64,0,7.35,7.35,0,0,0-.24,2.2,7.18,7.18,0,0,0,.24,2.2,2.48,2.48,0,0,0,4.64,0Z"/><path d="M547.43,2.49a.21.21,0,0,1-.22-.22V.66a.21.21,0,0,1,.22-.22h1.5a.21.21,0,0,1,.22.22V2.27a.21.21,0,0,1-.22.22Zm.05,12.91a.21.21,0,0,1-.22-.22V5.08a.21.21,0,0,1,.22-.22h1.41a.21.21,0,0,1,.22.22v10.1a.21.21,0,0,1-.22.22Z"/><path d="M551.11,14.06a.21.21,0,0,1,0-.31l.9-1a.23.23,0,0,1,.31,0A5.07,5.07,0,0,0,555.57,14c1.54,0,2.31-.66,2.31-1.6s-.39-1.3-2-1.48l-1.12-.11c-2.07-.22-3.15-1.25-3.15-3,0-2,1.43-3.21,3.92-3.21a6.3,6.3,0,0,1,3.74,1.17.2.2,0,0,1,0,.3l-.75,1a.21.21,0,0,1-.31,0,5.63,5.63,0,0,0-2.83-.85c-1.32,0-2,.59-2,1.45s.51,1.28,2.07,1.43l1.1.11c2.14.2,3.17,1.28,3.17,3,0,2.07-1.5,3.45-4.25,3.45A6.52,6.52,0,0,1,551.11,14.06Z"/><path d="M562,19.36a.21.21,0,0,1-.22-.22V5.08a.21.21,0,0,1,.22-.22h1.41a.21.21,0,0,1,.22.22v1h0a3.22,3.22,0,0,1,3-1.45,3.49,3.49,0,0,1,3.63,2.53,8.89,8.89,0,0,1,.37,3,8.9,8.9,0,0,1-.37,3,3.48,3.48,0,0,1-3.63,2.53,3.21,3.21,0,0,1-3-1.47h0v5a.21.21,0,0,1-.22.22Zm6.52-7a7.51,7.51,0,0,0,.24-2.2,7.69,7.69,0,0,0-.24-2.2,2.5,2.5,0,0,0-4.65,0,7.08,7.08,0,0,0-.24,2.2,6.92,6.92,0,0,0,.24,2.2,2.48,2.48,0,0,0,4.65,0Z"/><path d="M572.4,12.81a8,8,0,0,1-.35-2.69,7.92,7.92,0,0,1,.35-2.66,4.47,4.47,0,0,1,8.32,0,7.92,7.92,0,0,1,.35,2.66,8,8,0,0,1-.35,2.69,4.47,4.47,0,0,1-8.32,0Zm6.54-.53a7.13,7.13,0,0,0,.24-2.16A6.91,6.91,0,0,0,578.94,8a2.53,2.53,0,0,0-4.75,0,6.57,6.57,0,0,0-.25,2.13,6.77,6.77,0,0,0,.25,2.16,2.53,2.53,0,0,0,4.75,0Z"/><path d="M582.43,14.06a.23.23,0,0,1,0-.31l.91-1a.22.22,0,0,1,.3,0A5.12,5.12,0,0,0,586.9,14c1.54,0,2.31-.66,2.31-1.6s-.39-1.3-2-1.48L586,10.8c-2.07-.22-3.14-1.25-3.14-3,0-2,1.43-3.21,3.91-3.21a6.3,6.3,0,0,1,3.74,1.17.21.21,0,0,1,.05.3l-.75,1a.21.21,0,0,1-.31,0,5.64,5.64,0,0,0-2.84-.85c-1.32,0-2,.59-2,1.45s.51,1.28,2.07,1.43l1.1.11c2.13.2,3.17,1.28,3.17,3,0,2.07-1.5,3.45-4.25,3.45A6.57,6.57,0,0,1,582.43,14.06Z"/><path d="M593.24,2.49a.2.2,0,0,1-.22-.22V.66a.2.2,0,0,1,.22-.22h1.49a.2.2,0,0,1,.22.22V2.27a.2.2,0,0,1-.22.22Zm0,12.91a.21.21,0,0,1-.22-.22V5.08a.21.21,0,0,1,.22-.22h1.41a.21.21,0,0,1,.22.22v10.1a.21.21,0,0,1-.22.22Z"/><path d="M600.7,15.51c-2.05,0-2.84-.92-2.84-3v-6c0-.09-.05-.13-.14-.13h-.88a.21.21,0,0,1-.22-.22V5.08a.21.21,0,0,1,.22-.22h.88c.09,0,.14,0,.14-.13v-3a.2.2,0,0,1,.22-.22h1.4a.21.21,0,0,1,.23.22v3c0,.09,0,.13.13.13h1.67a.21.21,0,0,1,.22.22V6.14a.21.21,0,0,1-.22.22h-1.67c-.09,0-.13,0-.13.13v6c0,1.06.39,1.35,1.34,1.35h.46a.2.2,0,0,1,.22.22v1.27a.21.21,0,0,1-.22.22Z"/><path d="M603.88,2.49a.21.21,0,0,1-.22-.22V.66a.21.21,0,0,1,.22-.22h1.5a.21.21,0,0,1,.22.22V2.27a.21.21,0,0,1-.22.22Zm0,12.91a.2.2,0,0,1-.22-.22V5.08a.2.2,0,0,1,.22-.22h1.41a.21.21,0,0,1,.22.22v10.1a.21.21,0,0,1-.22.22Z"/><path d="M611.1,15.4a.26.26,0,0,1-.26-.22l-3.79-10.1c0-.13,0-.22.18-.22h1.52c.15,0,.21.07.28.22l2.73,7.57h0l2.67-7.57a.26.26,0,0,1,.26-.22h1.5c.15,0,.22.09.17.22l-3.76,10.1a.28.28,0,0,1-.29.22Z"/><path d="M617.52,12.81a8,8,0,0,1-.35-2.69,7.92,7.92,0,0,1,.35-2.66,4.47,4.47,0,0,1,8.32,0,7.92,7.92,0,0,1,.35,2.66,8,8,0,0,1-.35,2.69,4.47,4.47,0,0,1-8.32,0Zm6.54-.53a7.13,7.13,0,0,0,.24-2.16A6.91,6.91,0,0,0,624.06,8a2.54,2.54,0,0,0-4.76,0,6.91,6.91,0,0,0-.24,2.13,7.13,7.13,0,0,0,.24,2.16,2.54,2.54,0,0,0,4.76,0Z"/><path d="M627.55,14.06a.23.23,0,0,1,0-.31l.91-1a.23.23,0,0,1,.31,0A5.07,5.07,0,0,0,632,14c1.54,0,2.31-.66,2.31-1.6s-.39-1.3-2-1.48l-1.13-.11c-2.06-.22-3.14-1.25-3.14-3,0-2,1.43-3.21,3.91-3.21a6.3,6.3,0,0,1,3.74,1.17.21.21,0,0,1,.05.3L635,7a.21.21,0,0,1-.31,0,5.64,5.64,0,0,0-2.84-.85c-1.32,0-2,.59-2,1.45s.51,1.28,2.07,1.43l1.1.11c2.14.2,3.17,1.28,3.17,3,0,2.07-1.5,3.45-4.25,3.45A6.57,6.57,0,0,1,627.55,14.06Z"/><path d="M13.47,43.4a.2.2,0,0,1-.22-.22V37c0-1.69-.77-2.68-2.36-2.68a2.37,2.37,0,0,0-2.42,2.57v6.27a.21.21,0,0,1-.22.22H6.84a.21.21,0,0,1-.22-.22V37c0-1.69-.77-2.68-2.35-2.68a2.36,2.36,0,0,0-2.42,2.57v6.27a.21.21,0,0,1-.22.22H.22A.21.21,0,0,1,0,43.18V33.08a.21.21,0,0,1,.22-.22H1.63a.21.21,0,0,1,.22.22v1h0a3.35,3.35,0,0,1,3-1.43A3.3,3.3,0,0,1,7.9,34.27h0a3.94,3.94,0,0,1,3.41-1.65c2.44,0,3.76,1.56,3.76,4v6.6a.2.2,0,0,1-.21.22Z"/><path d="M17.86,40.81a8,8,0,0,1-.35-2.69,7.92,7.92,0,0,1,.35-2.66A4.09,4.09,0,0,1,22,32.62a4.08,4.08,0,0,1,4.16,2.84,7.92,7.92,0,0,1,.35,2.66,8,8,0,0,1-.35,2.69A4.09,4.09,0,0,1,22,43.64,4.11,4.11,0,0,1,17.86,40.81Zm6.54-.53a6.82,6.82,0,0,0,.24-2.16A6.61,6.61,0,0,0,24.4,36,2.34,2.34,0,0,0,22,34.34,2.34,2.34,0,0,0,19.65,36a6.57,6.57,0,0,0-.25,2.13,6.77,6.77,0,0,0,.25,2.16A2.35,2.35,0,0,0,22,41.93,2.35,2.35,0,0,0,24.4,40.28Zm-3.17-9.13c-.13,0-.2-.09-.13-.22l1.67-2.71a.4.4,0,0,1,.37-.22H24.6a.13.13,0,0,1,.11.22l-2,2.71a.44.44,0,0,1-.41.22Z"/><path d="M31.83,43.4c-.15,0-.21-.09-.26-.22l-3.78-10.1c-.05-.13,0-.22.17-.22h1.52c.15,0,.22.07.29.22l2.73,7.57h0l2.66-7.57c0-.15.13-.22.26-.22H37c.16,0,.22.09.18.22l-3.76,10.1a.3.3,0,0,1-.29.22Z"/><path d="M39.25,30.49a.21.21,0,0,1-.22-.22V28.66a.21.21,0,0,1,.22-.22h1.49a.2.2,0,0,1,.22.22v1.61a.2.2,0,0,1-.22.22Zm0,12.91a.21.21,0,0,1-.22-.22V33.08a.21.21,0,0,1,.22-.22H40.7a.21.21,0,0,1,.22.22v10.1a.21.21,0,0,1-.22.22Z"/><path d="M46.62,43.51c-1.85,0-2.58-.88-2.58-2.77V28.66a.21.21,0,0,1,.22-.22h1.41a.21.21,0,0,1,.22.22v12c0,.88.33,1.17,1.06,1.17h.42a.2.2,0,0,1,.22.22v1.27a.21.21,0,0,1-.22.22Z"/><path d="M49.46,40.78a8.2,8.2,0,0,1-.36-2.66,8.17,8.17,0,0,1,.33-2.66,4.44,4.44,0,0,1,8.28,0,9.18,9.18,0,0,1,.33,3c0,.14-.09.22-.25.22H51.13c-.09,0-.13.05-.13.14a3.93,3.93,0,0,0,.17,1.27,2.61,2.61,0,0,0,2.66,1.83,3.44,3.44,0,0,0,2.71-1.17.22.22,0,0,1,.33,0l.9.81a.2.2,0,0,1,0,.31,5.09,5.09,0,0,1-4.11,1.8A4.06,4.06,0,0,1,49.46,40.78ZM56,37.22a.12.12,0,0,0,.13-.13A3.71,3.71,0,0,0,56,35.9a2.6,2.6,0,0,0-4.84,0A3.71,3.71,0,0,0,51,37.09a.12.12,0,0,0,.13.13Z"/><path d="M59.84,42.06a.21.21,0,0,1,0-.31l.9-1a.23.23,0,0,1,.31,0A5.07,5.07,0,0,0,64.31,42c1.54,0,2.31-.66,2.31-1.6s-.4-1.3-2.05-1.48l-1.12-.11c-2.07-.22-3.15-1.25-3.15-3,0-2,1.43-3.21,3.92-3.21A6.3,6.3,0,0,1,68,33.79a.2.2,0,0,1,0,.3l-.75.95a.2.2,0,0,1-.3,0,5.67,5.67,0,0,0-2.84-.85c-1.32,0-2,.59-2,1.45s.5,1.28,2.06,1.43l1.1.11c2.14.2,3.17,1.28,3.17,3,0,2.07-1.49,3.45-4.24,3.45A6.55,6.55,0,0,1,59.84,42.06Z"/><path d="M82.37,43.4a.21.21,0,0,1-.22-.22v-1h0a3.22,3.22,0,0,1-2.89,1.45c-2.31,0-3.65-1.58-3.65-4V33.08a.21.21,0,0,1,.22-.22h1.41a.21.21,0,0,1,.22.22v6.14c0,1.72.77,2.71,2.33,2.71a2.34,2.34,0,0,0,2.38-2.6V33.08a.21.21,0,0,1,.22-.22h1.41a.21.21,0,0,1,.22.22v10.1a.21.21,0,0,1-.22.22Z"/><path d="M91.72,40.81a7.75,7.75,0,0,1-.36-2.69,7.64,7.64,0,0,1,.36-2.66,4.46,4.46,0,0,1,8.31,0,7.64,7.64,0,0,1,.36,2.66,7.75,7.75,0,0,1-.36,2.69,4.47,4.47,0,0,1-8.31,0Zm6.53-.53a6.82,6.82,0,0,0,.24-2.16A6.61,6.61,0,0,0,98.25,36a2.53,2.53,0,0,0-4.75,0,6.61,6.61,0,0,0-.24,2.13,6.82,6.82,0,0,0,.24,2.16,2.53,2.53,0,0,0,4.75,0Z"/><path d="M106,43.51c-2,0-2.84-.92-2.84-3v-6c0-.09,0-.13-.13-.13h-.88a.21.21,0,0,1-.22-.22V33.08a.21.21,0,0,1,.22-.22H103c.09,0,.13,0,.13-.13v-3a.21.21,0,0,1,.22-.22h1.41a.21.21,0,0,1,.22.22v3a.12.12,0,0,0,.13.13h1.68a.21.21,0,0,1,.22.22v1.06a.21.21,0,0,1-.22.22h-1.68a.12.12,0,0,0-.13.13v6c0,1.06.4,1.35,1.34,1.35h.47A.2.2,0,0,1,107,42v1.27a.21.21,0,0,1-.22.22Z"/><path d="M109.65,43.4a.2.2,0,0,1-.22-.22V33.08a.2.2,0,0,1,.22-.22h1.4a.2.2,0,0,1,.22.22v1.08h0a2.93,2.93,0,0,1,2.79-1.54,3.26,3.26,0,0,1,2.16.79c.11.11.13.2,0,.31l-.81,1.08a.2.2,0,0,1-.31,0,3,3,0,0,0-1.63-.5c-1.61,0-2.27,1.25-2.27,3.08v5.76a.2.2,0,0,1-.22.22Z"/><path d="M117.32,40.81a8,8,0,0,1-.35-2.69,7.92,7.92,0,0,1,.35-2.66,4.47,4.47,0,0,1,8.32,0,7.92,7.92,0,0,1,.35,2.66,8,8,0,0,1-.35,2.69,4.47,4.47,0,0,1-8.32,0Zm6.54-.53a7.13,7.13,0,0,0,.24-2.16,6.91,6.91,0,0,0-.24-2.13,2.53,2.53,0,0,0-4.75,0,6.57,6.57,0,0,0-.25,2.13,6.77,6.77,0,0,0,.25,2.16,2.53,2.53,0,0,0,4.75,0Z"/><path d="M127.79,42.06a.23.23,0,0,1,0-.31l.91-1a.23.23,0,0,1,.31,0A5.07,5.07,0,0,0,132.26,42c1.54,0,2.31-.66,2.31-1.6s-.39-1.3-2-1.48l-1.13-.11c-2.07-.22-3.14-1.25-3.14-3,0-2,1.43-3.21,3.91-3.21a6.3,6.3,0,0,1,3.74,1.17.21.21,0,0,1,.05.3l-.75.95a.21.21,0,0,1-.31,0,5.64,5.64,0,0,0-2.84-.85c-1.32,0-2,.59-2,1.45s.51,1.28,2.07,1.43l1.1.11c2.13.2,3.17,1.28,3.17,3,0,2.07-1.5,3.45-4.25,3.45A6.57,6.57,0,0,1,127.79,42.06Z"/><path d="M150.3,43.4a.21.21,0,0,1-.22-.22v-1h0a3.2,3.2,0,0,1-3,1.47,3.47,3.47,0,0,1-3.63-2.53,8.62,8.62,0,0,1-.38-3,8.61,8.61,0,0,1,.38-3,3.48,3.48,0,0,1,3.63-2.53,3.21,3.21,0,0,1,3,1.45h0V28.66a.21.21,0,0,1,.22-.22h1.41a.21.21,0,0,1,.22.22V43.18a.21.21,0,0,1-.22.22Zm-.46-3.08a6.63,6.63,0,0,0,.24-2.2,6.79,6.79,0,0,0-.24-2.2,2.49,2.49,0,0,0-4.64,0,7.35,7.35,0,0,0-.24,2.2,7.18,7.18,0,0,0,.24,2.2,2.48,2.48,0,0,0,4.64,0Z"/><path d="M155.27,30.49a.21.21,0,0,1-.22-.22V28.66a.21.21,0,0,1,.22-.22h1.5a.21.21,0,0,1,.22.22v1.61a.21.21,0,0,1-.22.22Zm0,12.91a.2.2,0,0,1-.22-.22V33.08a.2.2,0,0,1,.22-.22h1.4a.21.21,0,0,1,.23.22v10.1a.21.21,0,0,1-.23.22Z"/><path d="M159.39,42.06a.21.21,0,0,1,0-.31l.9-1a.23.23,0,0,1,.31,0A5.07,5.07,0,0,0,163.85,42c1.54,0,2.31-.66,2.31-1.6s-.39-1.3-2-1.48L163,38.8c-2.06-.22-3.14-1.25-3.14-3,0-2,1.43-3.21,3.92-3.21a6.33,6.33,0,0,1,3.74,1.17.2.2,0,0,1,0,.3l-.75.95a.21.21,0,0,1-.31,0,5.64,5.64,0,0,0-2.84-.85c-1.32,0-2,.59-2,1.45s.51,1.28,2.07,1.43l1.1.11c2.14.2,3.17,1.28,3.17,3,0,2.07-1.5,3.45-4.25,3.45A6.52,6.52,0,0,1,159.39,42.06Z"/><path d="M173.51,43.51c-2,0-2.84-.92-2.84-3v-6c0-.09,0-.13-.13-.13h-.88a.21.21,0,0,1-.22-.22V33.08a.21.21,0,0,1,.22-.22h.88c.09,0,.13,0,.13-.13v-3a.21.21,0,0,1,.22-.22h1.41a.21.21,0,0,1,.22.22v3c0,.09,0,.13.13.13h1.67a.2.2,0,0,1,.22.22v1.06a.2.2,0,0,1-.22.22h-1.67c-.09,0-.13,0-.13.13v6c0,1.06.4,1.35,1.34,1.35h.46a.2.2,0,0,1,.22.22v1.27a.2.2,0,0,1-.22.22Z"/><path d="M177.18,43.4a.21.21,0,0,1-.22-.22V33.08a.21.21,0,0,1,.22-.22h1.41a.21.21,0,0,1,.22.22v1.08h0a3,3,0,0,1,2.8-1.54,3.28,3.28,0,0,1,2.16.79c.1.11.13.2,0,.31L183,34.8a.19.19,0,0,1-.3,0,3,3,0,0,0-1.63-.5c-1.61,0-2.27,1.25-2.27,3.08v5.76a.21.21,0,0,1-.22.22Z"/><path d="M191.4,43.4a.2.2,0,0,1-.22-.22v-.92h0A3.44,3.44,0,0,1,188,43.64c-2,0-3.54-1-3.54-3.16s1.54-3.26,4.11-3.26H191a.12.12,0,0,0,.13-.13v-.77c0-1.45-.57-2.07-2.53-2.07a4.09,4.09,0,0,0-2.55.75.2.2,0,0,1-.31,0l-.59-1a.22.22,0,0,1,0-.3,5.83,5.83,0,0,1,3.59-1c3,0,4.14,1,4.14,3.59v7a.21.21,0,0,1-.22.22ZM191.13,40V38.83c0-.09,0-.14-.13-.14h-2.11c-1.83,0-2.62.53-2.62,1.72s.79,1.65,2.2,1.65C190.12,42.06,191.13,41.29,191.13,40Z"/><path d="M195.69,35.46a4.07,4.07,0,0,1,4.15-2.84,4.22,4.22,0,0,1,3.61,1.78c.07.11.07.2-.06.31l-1,.79a.2.2,0,0,1-.31,0,2.59,2.59,0,0,0-2.27-1.14A2.28,2.28,0,0,0,197.49,36a6.89,6.89,0,0,0-.24,2.13,7,7,0,0,0,.24,2.16,2.28,2.28,0,0,0,2.35,1.65,2.6,2.6,0,0,0,2.27-1.15.2.2,0,0,1,.31,0l1,.79c.13.11.13.2.06.31a4.22,4.22,0,0,1-3.61,1.78,4.07,4.07,0,0,1-4.15-2.83,9.08,9.08,0,0,1-.33-2.69A9,9,0,0,1,195.69,35.46Z"/><path d="M209,43.51c-2.05,0-2.84-.92-2.84-3v-6a.12.12,0,0,0-.13-.13h-.88a.2.2,0,0,1-.22-.22V33.08a.2.2,0,0,1,.22-.22H206a.12.12,0,0,0,.13-.13v-3a.21.21,0,0,1,.22-.22h1.41a.21.21,0,0,1,.22.22v3c0,.09,0,.13.13.13h1.67a.21.21,0,0,1,.22.22v1.06a.21.21,0,0,1-.22.22h-1.67c-.09,0-.13,0-.13.13v6c0,1.06.39,1.35,1.34,1.35h.46A.2.2,0,0,1,210,42v1.27a.21.21,0,0,1-.22.22Z"/><path d="M212.16,40.81a8,8,0,0,1-.35-2.69,7.92,7.92,0,0,1,.35-2.66,4.47,4.47,0,0,1,8.32,0,7.92,7.92,0,0,1,.35,2.66,8,8,0,0,1-.35,2.69,4.47,4.47,0,0,1-8.32,0Zm6.54-.53a7.13,7.13,0,0,0,.24-2.16A6.91,6.91,0,0,0,218.7,36,2.53,2.53,0,0,0,214,36a6.57,6.57,0,0,0-.25,2.13,6.77,6.77,0,0,0,.25,2.16,2.53,2.53,0,0,0,4.75,0Z"/><path d="M223.58,43.4a.21.21,0,0,1-.22-.22V33.08a.21.21,0,0,1,.22-.22H225a.21.21,0,0,1,.22.22v1.08h0a2.94,2.94,0,0,1,2.8-1.54,3.26,3.26,0,0,1,2.15.79c.11.11.13.2,0,.31l-.82,1.08a.2.2,0,0,1-.31,0,3,3,0,0,0-1.62-.5c-1.61,0-2.27,1.25-2.27,3.08v5.76a.21.21,0,0,1-.22.22Z"/><path d="M231.26,40.78a8.25,8.25,0,0,1-.35-2.66,8.17,8.17,0,0,1,.33-2.66,4.43,4.43,0,0,1,8.27,0,9.18,9.18,0,0,1,.33,3,.21.21,0,0,1-.24.22h-6.67c-.09,0-.13.05-.13.14A4.23,4.23,0,0,0,233,40.1a2.62,2.62,0,0,0,2.67,1.83,3.43,3.43,0,0,0,2.7-1.17.22.22,0,0,1,.33,0l.91.81a.2.2,0,0,1,0,.31,5.13,5.13,0,0,1-4.12,1.8A4.07,4.07,0,0,1,231.26,40.78Zm6.56-3.56a.12.12,0,0,0,.13-.13,3.68,3.68,0,0,0-.16-1.19,2.6,2.6,0,0,0-4.84,0,3.71,3.71,0,0,0-.15,1.19.12.12,0,0,0,.13.13Z"/><path d="M241.64,42.06a.21.21,0,0,1,0-.31l.9-1a.23.23,0,0,1,.31,0A5.07,5.07,0,0,0,246.11,42c1.54,0,2.31-.66,2.31-1.6s-.4-1.3-2-1.48l-1.12-.11c-2.07-.22-3.15-1.25-3.15-3,0-2,1.43-3.21,3.92-3.21a6.3,6.3,0,0,1,3.74,1.17.2.2,0,0,1,0,.3l-.74.95a.21.21,0,0,1-.31,0,5.64,5.64,0,0,0-2.84-.85c-1.32,0-2,.59-2,1.45s.5,1.28,2.07,1.43l1.1.11c2.13.2,3.17,1.28,3.17,3,0,2.07-1.5,3.45-4.25,3.45A6.55,6.55,0,0,1,241.64,42.06Z"/><path d="M252.66,41.07h1.54a.2.2,0,0,1,.22.22v2.05a.68.68,0,0,1-.13.48l-1.36,1.8a.36.36,0,0,1-.29.16.2.2,0,0,1-.2-.2V41.29A.21.21,0,0,1,252.66,41.07Z"/><path d="M268.55,43.4a.21.21,0,0,1-.22-.22V37c0-1.69-.77-2.68-2.36-2.68a2.36,2.36,0,0,0-2.42,2.57v6.27a.2.2,0,0,1-.22.22h-1.4a.2.2,0,0,1-.22-.22V33.08a.2.2,0,0,1,.22-.22h1.4a.2.2,0,0,1,.22.22v1h0a3.32,3.32,0,0,1,2.94-1.43c2.29,0,3.66,1.56,3.66,4v6.6a.21.21,0,0,1-.22.22Z"/><path d="M273,40.81a8,8,0,0,1-.35-2.69,7.92,7.92,0,0,1,.35-2.66,4.46,4.46,0,0,1,8.31,0,7.64,7.64,0,0,1,.36,2.66,7.75,7.75,0,0,1-.36,2.69,4.47,4.47,0,0,1-8.31,0Zm6.53-.53a6.82,6.82,0,0,0,.24-2.16,6.61,6.61,0,0,0-.24-2.13,2.53,2.53,0,0,0-4.75,0,6.61,6.61,0,0,0-.24,2.13,6.82,6.82,0,0,0,.24,2.16,2.53,2.53,0,0,0,4.75,0Z"/><path d="M288.68,35.46a4.07,4.07,0,0,1,4.16-2.84,4.22,4.22,0,0,1,3.6,1.78c.07.11.07.2-.06.31l-1,.79a.2.2,0,0,1-.31,0,2.58,2.58,0,0,0-2.26-1.14A2.29,2.29,0,0,0,290.48,36a7.21,7.21,0,0,0-.24,2.13,7.3,7.3,0,0,0,.24,2.16,2.29,2.29,0,0,0,2.36,1.65,2.59,2.59,0,0,0,2.26-1.15.2.2,0,0,1,.31,0l1,.79c.13.11.13.2.06.31a4.22,4.22,0,0,1-3.6,1.78,4.08,4.08,0,0,1-4.16-2.83,9.08,9.08,0,0,1-.33-2.69A9,9,0,0,1,288.68,35.46Z"/><path d="M305.05,43.4a.2.2,0,0,1-.22-.22v-.92h0a3.44,3.44,0,0,1-3.12,1.38c-2,0-3.54-1-3.54-3.16s1.54-3.26,4.11-3.26h2.4a.12.12,0,0,0,.13-.13v-.77c0-1.45-.57-2.07-2.53-2.07a4.09,4.09,0,0,0-2.55.75.2.2,0,0,1-.31,0l-.59-1a.22.22,0,0,1,0-.3,5.83,5.83,0,0,1,3.59-1c3,0,4.13,1,4.13,3.59v7a.2.2,0,0,1-.22.22ZM304.78,40V38.83c0-.09,0-.14-.13-.14h-2.11c-1.83,0-2.62.53-2.62,1.72s.79,1.65,2.2,1.65C303.77,42.06,304.78,41.29,304.78,40Z"/><path d="M323.11,43.4a.21.21,0,0,1-.22-.22V37c0-1.69-.77-2.68-2.35-2.68a2.37,2.37,0,0,0-2.42,2.57v6.27a.21.21,0,0,1-.23.22h-1.4a.2.2,0,0,1-.22-.22V37c0-1.69-.77-2.68-2.36-2.68a2.36,2.36,0,0,0-2.42,2.57v6.27a.21.21,0,0,1-.22.22h-1.41a.21.21,0,0,1-.22-.22V33.08a.21.21,0,0,1,.22-.22h1.41a.21.21,0,0,1,.22.22v1h0a3.35,3.35,0,0,1,2.95-1.43,3.3,3.3,0,0,1,3.08,1.65h0A3.94,3.94,0,0,1,321,32.62c2.45,0,3.77,1.56,3.77,4v6.6a.21.21,0,0,1-.22.22Z"/><path d="M328,30.49a.21.21,0,0,1-.22-.22V28.66a.21.21,0,0,1,.22-.22h1.5a.21.21,0,0,1,.22.22v1.61a.21.21,0,0,1-.22.22Zm0,12.91a.21.21,0,0,1-.22-.22V33.08a.21.21,0,0,1,.22-.22h1.41a.21.21,0,0,1,.22.22v10.1a.21.21,0,0,1-.22.22Z"/><path d="M339.65,43.4a.21.21,0,0,1-.22-.22V37c0-1.69-.77-2.68-2.35-2.68a2.36,2.36,0,0,0-2.42,2.57v6.27a.21.21,0,0,1-.22.22H333a.21.21,0,0,1-.22-.22V33.08a.21.21,0,0,1,.22-.22h1.41a.21.21,0,0,1,.22.22v1h0a3.35,3.35,0,0,1,2.95-1.43c2.29,0,3.65,1.56,3.65,4v6.6a.21.21,0,0,1-.22.22Z"/><path d="M344.05,40.78a8.25,8.25,0,0,1-.35-2.66,8.17,8.17,0,0,1,.33-2.66,4.43,4.43,0,0,1,8.27,0,9.18,9.18,0,0,1,.33,3,.21.21,0,0,1-.24.22h-6.67c-.09,0-.13.05-.13.14a3.9,3.9,0,0,0,.18,1.27,2.6,2.6,0,0,0,2.66,1.83,3.43,3.43,0,0,0,2.7-1.17c.12-.11.23-.13.33,0l.91.81a.2.2,0,0,1,0,.31,5.12,5.12,0,0,1-4.11,1.8A4.07,4.07,0,0,1,344.05,40.78Zm6.56-3.56a.12.12,0,0,0,.13-.13,3.71,3.71,0,0,0-.15-1.19,2.61,2.61,0,0,0-4.85,0,3.71,3.71,0,0,0-.15,1.19.12.12,0,0,0,.13.13Z"/><path d="M359.71,40.81a8,8,0,0,1-.35-2.69,7.92,7.92,0,0,1,.35-2.66,4.47,4.47,0,0,1,8.32,0,7.92,7.92,0,0,1,.35,2.66,8,8,0,0,1-.35,2.69,4.47,4.47,0,0,1-8.32,0Zm6.54-.53a7.13,7.13,0,0,0,.24-2.16,6.91,6.91,0,0,0-.24-2.13,2.53,2.53,0,0,0-4.75,0,6.57,6.57,0,0,0-.25,2.13,6.77,6.77,0,0,0,.25,2.16,2.53,2.53,0,0,0,4.75,0Z"/><path d="M375.44,35.46a4.09,4.09,0,0,1,4.16-2.84,4.22,4.22,0,0,1,3.61,1.78c.07.11.07.2-.07.31l-1,.79a.2.2,0,0,1-.31,0,2.59,2.59,0,0,0-2.27-1.14A2.28,2.28,0,0,0,377.25,36a6.89,6.89,0,0,0-.24,2.13,7,7,0,0,0,.24,2.16,2.28,2.28,0,0,0,2.35,1.65,2.6,2.6,0,0,0,2.27-1.15.2.2,0,0,1,.31,0l1,.79c.14.11.14.2.07.31a4.22,4.22,0,0,1-3.61,1.78,4.09,4.09,0,0,1-4.16-2.83,9.43,9.43,0,0,1-.33-2.69A9.35,9.35,0,0,1,375.44,35.46Z"/><path d="M385.15,40.81a7.75,7.75,0,0,1-.36-2.69,7.64,7.64,0,0,1,.36-2.66,4.46,4.46,0,0,1,8.31,0,7.67,7.67,0,0,1,.35,2.66,7.78,7.78,0,0,1-.35,2.69,4.47,4.47,0,0,1-8.31,0Zm6.53-.53a6.82,6.82,0,0,0,.24-2.16,6.61,6.61,0,0,0-.24-2.13,2.53,2.53,0,0,0-4.75,0,6.61,6.61,0,0,0-.24,2.13,6.82,6.82,0,0,0,.24,2.16,2.53,2.53,0,0,0,4.75,0Z"/><path d="M403.19,43.4a.2.2,0,0,1-.22-.22V37c0-1.69-.77-2.68-2.36-2.68a2.36,2.36,0,0,0-2.42,2.57v6.27a.21.21,0,0,1-.22.22h-1.41a.21.21,0,0,1-.22-.22V33.08a.21.21,0,0,1,.22-.22H398a.21.21,0,0,1,.22.22v1h0a3.35,3.35,0,0,1,3-1.43c2.29,0,3.65,1.56,3.65,4v6.6a.2.2,0,0,1-.21.22Z"/><path d="M414.47,43.4a.21.21,0,0,1-.22-.22v-1h0a3.2,3.2,0,0,1-3,1.47,3.47,3.47,0,0,1-3.63-2.53,8.62,8.62,0,0,1-.38-3,8.61,8.61,0,0,1,.38-3,3.48,3.48,0,0,1,3.63-2.53,3.21,3.21,0,0,1,3,1.45h0V28.66a.21.21,0,0,1,.22-.22h1.41a.21.21,0,0,1,.22.22V43.18a.21.21,0,0,1-.22.22ZM414,40.32a6.63,6.63,0,0,0,.24-2.2,6.79,6.79,0,0,0-.24-2.2,2.49,2.49,0,0,0-4.64,0,7.35,7.35,0,0,0-.24,2.2,7.18,7.18,0,0,0,.24,2.2,2.48,2.48,0,0,0,4.64,0Z"/><path d="M425.89,43.4a.21.21,0,0,1-.22-.22v-1h0a3.21,3.21,0,0,1-2.88,1.45c-2.31,0-3.66-1.58-3.66-4V33.08a.21.21,0,0,1,.22-.22h1.41a.21.21,0,0,1,.22.22v6.14c0,1.72.77,2.71,2.33,2.71a2.34,2.34,0,0,0,2.38-2.6V33.08a.21.21,0,0,1,.22-.22h1.41a.21.21,0,0,1,.22.22v10.1a.21.21,0,0,1-.22.22Z"/><path d="M430.31,43.4a.21.21,0,0,1-.22-.22V42a.34.34,0,0,1,.09-.25L436,34.58v0H430.6a.2.2,0,0,1-.22-.22V33.08a.2.2,0,0,1,.22-.22H438a.21.21,0,0,1,.22.22v1.24a.38.38,0,0,1-.09.24l-5.74,7.13v0H438a.21.21,0,0,1,.22.22v1.23a.21.21,0,0,1-.22.22Z"/><path d="M440.43,35.46a4.08,4.08,0,0,1,4.16-2.84,4.22,4.22,0,0,1,3.61,1.78.22.22,0,0,1-.07.31l-1,.79a.19.19,0,0,1-.3,0,2.59,2.59,0,0,0-2.27-1.14A2.3,2.3,0,0,0,442.23,36a7.21,7.21,0,0,0-.24,2.13,7.3,7.3,0,0,0,.24,2.16,2.3,2.3,0,0,0,2.36,1.65,2.6,2.6,0,0,0,2.27-1.15.19.19,0,0,1,.3,0l1,.79a.22.22,0,0,1,.07.31,4.22,4.22,0,0,1-3.61,1.78,4.09,4.09,0,0,1-4.16-2.83,9.08,9.08,0,0,1-.33-2.69A9,9,0,0,1,440.43,35.46Z"/><path d="M456.8,43.4a.21.21,0,0,1-.22-.22v-.92h0a3.47,3.47,0,0,1-3.13,1.38c-2,0-3.54-1-3.54-3.16s1.54-3.26,4.12-3.26h2.39a.12.12,0,0,0,.14-.13v-.77c0-1.45-.58-2.07-2.53-2.07a4.13,4.13,0,0,0-2.56.75.2.2,0,0,1-.31,0l-.59-1a.22.22,0,0,1,.05-.3,5.8,5.8,0,0,1,3.58-1c3,0,4.14,1,4.14,3.59v7a.21.21,0,0,1-.22.22ZM456.54,40V38.83a.13.13,0,0,0-.14-.14h-2.11c-1.83,0-2.62.53-2.62,1.72s.79,1.65,2.2,1.65C455.52,42.06,456.54,41.29,456.54,40Z"/><path d="M479.7,43.4a.21.21,0,0,1-.22-.22V37c0-1.69-.77-2.68-2.35-2.68a2.37,2.37,0,0,0-2.42,2.57v6.27a.21.21,0,0,1-.22.22h-1.41a.21.21,0,0,1-.22-.22V37c0-1.69-.77-2.68-2.35-2.68a2.37,2.37,0,0,0-2.43,2.57v6.27a.2.2,0,0,1-.21.22h-1.41a.2.2,0,0,1-.22-.22V33.08a.2.2,0,0,1,.22-.22h1.41a.2.2,0,0,1,.21.22v1h0a3.73,3.73,0,0,1,6,.22h0a3.92,3.92,0,0,1,3.41-1.65c2.44,0,3.76,1.56,3.76,4v6.6a.21.21,0,0,1-.22.22Z"/><path d="M484.56,30.49a.21.21,0,0,1-.22-.22V28.66a.21.21,0,0,1,.22-.22h1.5a.21.21,0,0,1,.22.22v1.61a.21.21,0,0,1-.22.22Zm.05,12.91a.2.2,0,0,1-.22-.22V33.08a.2.2,0,0,1,.22-.22H486a.2.2,0,0,1,.21.22v10.1a.2.2,0,0,1-.21.22Z"/><path d="M489.12,40.78a8.2,8.2,0,0,1-.36-2.66,8.46,8.46,0,0,1,.33-2.66,4.44,4.44,0,0,1,8.28,0,9.18,9.18,0,0,1,.33,3,.21.21,0,0,1-.24.22h-6.67c-.09,0-.13.05-.13.14a3.93,3.93,0,0,0,.17,1.27,2.62,2.62,0,0,0,2.67,1.83,3.43,3.43,0,0,0,2.7-1.17.22.22,0,0,1,.33,0l.9.81a.21.21,0,0,1,0,.31,5.13,5.13,0,0,1-4.12,1.8A4.07,4.07,0,0,1,489.12,40.78Zm6.55-3.56a.12.12,0,0,0,.13-.13,3.71,3.71,0,0,0-.15-1.19,2.6,2.6,0,0,0-4.84,0,3.71,3.71,0,0,0-.15,1.19.12.12,0,0,0,.13.13Z"/><path d="M507.07,43.4a.21.21,0,0,1-.22-.22V37c0-1.69-.77-2.68-2.36-2.68a2.36,2.36,0,0,0-2.42,2.57v6.27a.2.2,0,0,1-.22.22h-1.4a.2.2,0,0,1-.22-.22V33.08a.2.2,0,0,1,.22-.22h1.4a.2.2,0,0,1,.22.22v1h0A3.33,3.33,0,0,1,505,32.62c2.29,0,3.66,1.56,3.66,4v6.6a.21.21,0,0,1-.22.22Z"/><path d="M514.81,43.51c-2,0-2.84-.92-2.84-3v-6c0-.09,0-.13-.13-.13H511a.21.21,0,0,1-.22-.22V33.08a.21.21,0,0,1,.22-.22h.88c.09,0,.13,0,.13-.13v-3a.21.21,0,0,1,.22-.22h1.41a.21.21,0,0,1,.22.22v3a.12.12,0,0,0,.13.13h1.68a.21.21,0,0,1,.22.22v1.06a.21.21,0,0,1-.22.22H514a.12.12,0,0,0-.13.13v6c0,1.06.4,1.35,1.34,1.35h.47a.2.2,0,0,1,.22.22v1.27a.21.21,0,0,1-.22.22Z"/><path d="M518.49,43.4a.2.2,0,0,1-.22-.22V33.08a.2.2,0,0,1,.22-.22h1.4a.2.2,0,0,1,.22.22v1.08h0a3,3,0,0,1,2.8-1.54,3.26,3.26,0,0,1,2.16.79c.11.11.13.2,0,.31l-.81,1.08a.2.2,0,0,1-.31,0,3,3,0,0,0-1.63-.5c-1.61,0-2.27,1.25-2.27,3.08v5.76a.2.2,0,0,1-.22.22Z"/><path d="M532.7,43.4a.21.21,0,0,1-.22-.22v-.92h0a3.47,3.47,0,0,1-3.13,1.38c-2,0-3.54-1-3.54-3.16s1.54-3.26,4.11-3.26h2.4a.12.12,0,0,0,.13-.13v-.77c0-1.45-.57-2.07-2.53-2.07a4.09,4.09,0,0,0-2.55.75.2.2,0,0,1-.31,0l-.59-1a.22.22,0,0,1,0-.3,5.85,5.85,0,0,1,3.59-1c3,0,4.14,1,4.14,3.59v7a.21.21,0,0,1-.22.22ZM532.43,40V38.83c0-.09,0-.14-.13-.14h-2.11c-1.83,0-2.62.53-2.62,1.72s.79,1.65,2.2,1.65C531.42,42.06,532.43,41.29,532.43,40Z"/><path d="M536.57,42.06a.21.21,0,0,1,0-.31l.9-1a.23.23,0,0,1,.31,0A5.07,5.07,0,0,0,541,42c1.54,0,2.31-.66,2.31-1.6s-.4-1.3-2.05-1.48l-1.12-.11c-2.07-.22-3.15-1.25-3.15-3,0-2,1.43-3.21,3.92-3.21a6.3,6.3,0,0,1,3.74,1.17.2.2,0,0,1,0,.3L544,35a.2.2,0,0,1-.3,0,5.67,5.67,0,0,0-2.84-.85c-1.32,0-2,.59-2,1.45s.5,1.28,2.06,1.43l1.1.11c2.14.2,3.17,1.28,3.17,3,0,2.07-1.49,3.45-4.24,3.45A6.55,6.55,0,0,1,536.57,42.06Z"/><path d="M559.08,43.4a.2.2,0,0,1-.22-.22v-1h0a3.18,3.18,0,0,1-3,1.47,3.48,3.48,0,0,1-3.63-2.53,8.65,8.65,0,0,1-.37-3,8.63,8.63,0,0,1,.37-3,3.49,3.49,0,0,1,3.63-2.53,3.19,3.19,0,0,1,3,1.45h0V28.66a.2.2,0,0,1,.22-.22h1.4a.2.2,0,0,1,.22.22V43.18a.2.2,0,0,1-.22.22Zm-.47-3.08a6.58,6.58,0,0,0,.25-2.2,6.73,6.73,0,0,0-.25-2.2,2.49,2.49,0,0,0-4.64,0,7.35,7.35,0,0,0-.24,2.2,7.18,7.18,0,0,0,.24,2.2,2.48,2.48,0,0,0,4.64,0Z"/><path d="M564.05,30.49a.2.2,0,0,1-.22-.22V28.66a.2.2,0,0,1,.22-.22h1.49a.21.21,0,0,1,.22.22v1.61a.21.21,0,0,1-.22.22Zm0,12.91a.21.21,0,0,1-.22-.22V33.08a.21.21,0,0,1,.22-.22h1.41a.21.21,0,0,1,.22.22v10.1a.21.21,0,0,1-.22.22Z"/><path d="M568.67,46a.2.2,0,0,1,0-.31l.9-.9a.21.21,0,0,1,.33,0,3.52,3.52,0,0,0,2.49,1.06c1.73,0,2.66-.9,2.66-2.84V41.82h0a3,3,0,0,1-2.93,1.45,3.45,3.45,0,0,1-3.54-2.55,8.08,8.08,0,0,1-.35-2.77,8.14,8.14,0,0,1,.35-2.78,3.45,3.45,0,0,1,3.54-2.55,3,3,0,0,1,2.93,1.45h0v-1a.21.21,0,0,1,.22-.22h1.41a.21.21,0,0,1,.22.22v9.86c0,3-1.63,4.66-4.6,4.66A4.72,4.72,0,0,1,568.67,46Zm6.16-6a6.57,6.57,0,0,0,.24-2,6.68,6.68,0,0,0-.24-2.05,2.38,2.38,0,0,0-4.47,0A6.51,6.51,0,0,0,570.1,38a6.4,6.4,0,0,0,.26,2,2.15,2.15,0,0,0,2.22,1.59A2.19,2.19,0,0,0,574.83,40Z"/><path d="M580.26,30.49a.21.21,0,0,1-.22-.22V28.66a.21.21,0,0,1,.22-.22h1.5a.21.21,0,0,1,.22.22v1.61a.21.21,0,0,1-.22.22Zm0,12.91a.21.21,0,0,1-.22-.22V33.08a.21.21,0,0,1,.22-.22h1.41a.21.21,0,0,1,.22.22v10.1a.21.21,0,0,1-.22.22Z"/><path d="M588.16,43.51c-2,0-2.84-.92-2.84-3v-6c0-.09,0-.13-.13-.13h-.88a.21.21,0,0,1-.22-.22V33.08a.21.21,0,0,1,.22-.22h.88c.09,0,.13,0,.13-.13v-3a.21.21,0,0,1,.22-.22H587a.21.21,0,0,1,.22.22v3c0,.09,0,.13.13.13H589a.21.21,0,0,1,.22.22v1.06a.21.21,0,0,1-.22.22H587.3c-.09,0-.13,0-.13.13v6c0,1.06.39,1.35,1.34,1.35H589a.2.2,0,0,1,.22.22v1.27a.21.21,0,0,1-.22.22Z"/><path d="M598,43.4a.21.21,0,0,1-.22-.22v-.92h0a3.45,3.45,0,0,1-3.12,1.38c-2,0-3.55-1-3.55-3.16s1.54-3.26,4.12-3.26h2.4a.12.12,0,0,0,.13-.13v-.77c0-1.45-.57-2.07-2.53-2.07a4.13,4.13,0,0,0-2.56.75.19.19,0,0,1-.3,0l-.6-1a.23.23,0,0,1,0-.3,5.8,5.8,0,0,1,3.58-1c3,0,4.14,1,4.14,3.59v7a.21.21,0,0,1-.22.22ZM597.73,40V38.83a.12.12,0,0,0-.13-.14h-2.12c-1.82,0-2.61.53-2.61,1.72s.79,1.65,2.2,1.65C596.72,42.06,597.73,41.29,597.73,40Z"/><path d="M607.14,40.81a8,8,0,0,1-.35-2.69,7.92,7.92,0,0,1,.35-2.66,4.47,4.47,0,0,1,8.32,0,7.92,7.92,0,0,1,.35,2.66,8,8,0,0,1-.35,2.69,4.47,4.47,0,0,1-8.32,0Zm6.54-.53a7.13,7.13,0,0,0,.24-2.16,6.91,6.91,0,0,0-.24-2.13,2.54,2.54,0,0,0-4.76,0,6.91,6.91,0,0,0-.24,2.13,7.13,7.13,0,0,0,.24,2.16,2.54,2.54,0,0,0,4.76,0Z"/><path d="M13.47,71.4a.2.2,0,0,1-.22-.22V65c0-1.69-.77-2.68-2.36-2.68a2.37,2.37,0,0,0-2.42,2.57v6.27a.21.21,0,0,1-.22.22H6.84a.21.21,0,0,1-.22-.22V65c0-1.69-.77-2.68-2.35-2.68a2.36,2.36,0,0,0-2.42,2.57v6.27a.21.21,0,0,1-.22.22H.22A.21.21,0,0,1,0,71.18V61.08a.21.21,0,0,1,.22-.22H1.63a.21.21,0,0,1,.22.22v1h0a3.35,3.35,0,0,1,3-1.43A3.3,3.3,0,0,1,7.9,62.27h0a3.94,3.94,0,0,1,3.41-1.65c2.44,0,3.76,1.56,3.76,4v6.6a.2.2,0,0,1-.21.22Z"/><path d="M24.09,71.4a.21.21,0,0,1-.22-.22v-.92h0a3.46,3.46,0,0,1-3.13,1.38c-2,0-3.54-1-3.54-3.16s1.54-3.26,4.12-3.26h2.4a.12.12,0,0,0,.13-.13v-.77c0-1.45-.57-2.07-2.53-2.07a4.13,4.13,0,0,0-2.56.75c-.11.08-.24.08-.3,0l-.6-1a.23.23,0,0,1,.05-.3,5.8,5.8,0,0,1,3.58-1c3,0,4.14,1,4.14,3.59v7a.21.21,0,0,1-.22.22ZM23.83,68V66.83a.12.12,0,0,0-.13-.14H21.58c-1.82,0-2.62.53-2.62,1.72s.8,1.65,2.21,1.65C22.82,70.06,23.83,69.29,23.83,68Z"/><path d="M35.09,71.4a.21.21,0,0,1-.22-.22V65c0-1.69-.77-2.68-2.35-2.68a2.36,2.36,0,0,0-2.42,2.57v6.27a.21.21,0,0,1-.22.22H28.47a.21.21,0,0,1-.22-.22V61.08a.21.21,0,0,1,.22-.22h1.41a.21.21,0,0,1,.22.22v1h0a3.35,3.35,0,0,1,2.95-1.43c2.29,0,3.65,1.56,3.65,4v6.6a.21.21,0,0,1-.22.22Z"/><path d="M39.51,58.49a.21.21,0,0,1-.22-.22V56.66a.21.21,0,0,1,.22-.22H41a.21.21,0,0,1,.22.22v1.61a.21.21,0,0,1-.22.22Zm.05,12.91a.2.2,0,0,1-.22-.22V61.08a.2.2,0,0,1,.22-.22H41a.2.2,0,0,1,.22.22v10.1a.2.2,0,0,1-.22.22Z"/><path d="M44.13,75.36a.21.21,0,0,1-.22-.22V61.08a.21.21,0,0,1,.22-.22h1.41a.21.21,0,0,1,.22.22v1h0a3.21,3.21,0,0,1,3-1.45,3.48,3.48,0,0,1,3.63,2.53,8.61,8.61,0,0,1,.38,3,8.62,8.62,0,0,1-.38,3,3.47,3.47,0,0,1-3.63,2.53,3.2,3.2,0,0,1-3-1.47h0v5a.21.21,0,0,1-.22.22Zm6.51-7a7.14,7.14,0,0,0,.25-2.2,7.35,7.35,0,0,0-.25-2.2,2.49,2.49,0,0,0-4.64,0,7.08,7.08,0,0,0-.24,2.2,6.92,6.92,0,0,0,.24,2.2,2.48,2.48,0,0,0,4.64,0Z"/><path d="M61.49,71.4a.21.21,0,0,1-.22-.22v-1h0a3.21,3.21,0,0,1-2.88,1.45c-2.31,0-3.66-1.58-3.66-4V61.08a.21.21,0,0,1,.22-.22h1.41a.21.21,0,0,1,.22.22v6.14c0,1.72.77,2.71,2.33,2.71a2.34,2.34,0,0,0,2.38-2.6V61.08a.21.21,0,0,1,.22-.22H62.9a.21.21,0,0,1,.22.22v10.1a.21.21,0,0,1-.22.22Z"/><path d="M68.38,71.51c-1.85,0-2.58-.88-2.58-2.77V56.66a.21.21,0,0,1,.22-.22h1.41a.21.21,0,0,1,.22.22v12c0,.88.33,1.17,1.06,1.17h.41a.2.2,0,0,1,.22.22v1.27a.2.2,0,0,1-.22.22Z"/><path d="M77.44,71.4a.21.21,0,0,1-.22-.22v-.92h0a3.47,3.47,0,0,1-3.13,1.38c-2,0-3.54-1-3.54-3.16s1.54-3.26,4.12-3.26H77c.09,0,.14,0,.14-.13v-.77c0-1.45-.58-2.07-2.53-2.07a4.13,4.13,0,0,0-2.56.75c-.11.08-.24.08-.3,0l-.6-1a.23.23,0,0,1,0-.3,5.8,5.8,0,0,1,3.58-1c3,0,4.14,1,4.14,3.59v7a.21.21,0,0,1-.22.22ZM77.18,68V66.83a.13.13,0,0,0-.14-.14H74.93c-1.82,0-2.62.53-2.62,1.72s.8,1.65,2.2,1.65C76.16,70.06,77.18,69.29,77.18,68Z"/><path d="M85.71,68.78a10.58,10.58,0,0,1,0-5.32,4.43,4.43,0,0,1,8.27,0,9.18,9.18,0,0,1,.33,3,.21.21,0,0,1-.24.22H87.38c-.09,0-.13,0-.13.14a3.9,3.9,0,0,0,.18,1.27,2.6,2.6,0,0,0,2.66,1.83,3.47,3.47,0,0,0,2.71-1.17.22.22,0,0,1,.33,0l.9.81a.2.2,0,0,1,0,.31,5.12,5.12,0,0,1-4.11,1.8A4.07,4.07,0,0,1,85.71,68.78Zm6.56-3.56c.09,0,.13,0,.13-.13a3.71,3.71,0,0,0-.15-1.19,2.6,2.6,0,0,0-4.84,0,3.43,3.43,0,0,0-.16,1.19c0,.09,0,.13.13.13Z"/><path d="M103.22,71.4a.21.21,0,0,1-.22-.22V65c0-1.69-.77-2.68-2.35-2.68a2.36,2.36,0,0,0-2.42,2.57v6.27a.21.21,0,0,1-.22.22H96.6a.21.21,0,0,1-.22-.22V61.08a.21.21,0,0,1,.22-.22H98a.21.21,0,0,1,.22.22v1h0a3.35,3.35,0,0,1,3-1.43c2.29,0,3.65,1.56,3.65,4v6.6a.21.21,0,0,1-.22.22Z"/><path d="M114.4,71.51c-1.85,0-2.58-.88-2.58-2.77V56.66a.21.21,0,0,1,.22-.22h1.41a.21.21,0,0,1,.22.22v12c0,.88.33,1.17,1.06,1.17h.42a.2.2,0,0,1,.22.22v1.27a.21.21,0,0,1-.22.22Z"/><path d="M116.8,68.81a7.75,7.75,0,0,1-.36-2.69,7.64,7.64,0,0,1,.36-2.66,4.46,4.46,0,0,1,8.31,0,7.67,7.67,0,0,1,.35,2.66,7.78,7.78,0,0,1-.35,2.69,4.47,4.47,0,0,1-8.31,0Zm6.53-.53a6.82,6.82,0,0,0,.24-2.16,6.61,6.61,0,0,0-.24-2.13,2.53,2.53,0,0,0-4.75,0,6.61,6.61,0,0,0-.24,2.13,6.82,6.82,0,0,0,.24,2.16,2.53,2.53,0,0,0,4.75,0Z"/><path d="M126.83,70.06a.21.21,0,0,1,0-.31l.9-1a.23.23,0,0,1,.31,0A5.07,5.07,0,0,0,131.29,70c1.54,0,2.32-.66,2.32-1.6s-.4-1.3-2.05-1.48l-1.12-.11c-2.07-.22-3.15-1.25-3.15-3,0-2,1.43-3.21,3.92-3.21A6.3,6.3,0,0,1,135,61.79a.2.2,0,0,1,0,.3l-.75.95a.2.2,0,0,1-.3,0,5.7,5.7,0,0,0-2.84-.85c-1.32,0-2,.59-2,1.45s.51,1.28,2.07,1.43l1.1.11c2.14.2,3.17,1.28,3.17,3,0,2.07-1.49,3.45-4.25,3.45A6.54,6.54,0,0,1,126.83,70.06Z"/><path d="M148.46,71.4a.21.21,0,0,1-.23-.22v-1h0a3.19,3.19,0,0,1-3,1.47,3.47,3.47,0,0,1-3.63-2.53,8.62,8.62,0,0,1-.38-3,8.61,8.61,0,0,1,.38-3,3.48,3.48,0,0,1,3.63-2.53,3.2,3.2,0,0,1,3,1.45h0V56.66a.21.21,0,0,1,.23-.22h1.4a.21.21,0,0,1,.22.22V71.18a.21.21,0,0,1-.22.22ZM148,68.32a6.63,6.63,0,0,0,.24-2.2,6.79,6.79,0,0,0-.24-2.2,2.49,2.49,0,0,0-4.64,0,7.39,7.39,0,0,0-.24,2.2,7.18,7.18,0,0,0,.24,2.2,2.48,2.48,0,0,0,4.64,0Z"/><path d="M153,58.49a.2.2,0,0,1-.22-.22V56.66a.2.2,0,0,1,.22-.22h1.49a.21.21,0,0,1,.22.22v1.61a.21.21,0,0,1-.22.22Zm0,12.91a.21.21,0,0,1-.22-.22V61.08a.21.21,0,0,1,.22-.22h1.41a.21.21,0,0,1,.22.22v10.1a.21.21,0,0,1-.22.22Z"/><path d="M156.66,70.06a.21.21,0,0,1,0-.31l.9-1a.23.23,0,0,1,.31,0A5.07,5.07,0,0,0,161.13,70c1.54,0,2.31-.66,2.31-1.6s-.4-1.3-2.05-1.48l-1.12-.11c-2.07-.22-3.15-1.25-3.15-3,0-2,1.43-3.21,3.92-3.21a6.3,6.3,0,0,1,3.74,1.17.2.2,0,0,1,0,.3l-.75.95a.2.2,0,0,1-.3,0,5.67,5.67,0,0,0-2.84-.85c-1.32,0-2,.59-2,1.45s.5,1.28,2.06,1.43l1.1.11c2.14.2,3.17,1.28,3.17,3,0,2.07-1.49,3.45-4.24,3.45A6.55,6.55,0,0,1,156.66,70.06Z"/><path d="M167.5,75.36a.2.2,0,0,1-.21-.22V61.08a.2.2,0,0,1,.21-.22h1.41a.21.21,0,0,1,.22.22v1h0a3.22,3.22,0,0,1,3-1.45,3.49,3.49,0,0,1,3.63,2.53,8.89,8.89,0,0,1,.37,3,8.9,8.9,0,0,1-.37,3,3.48,3.48,0,0,1-3.63,2.53,3.21,3.21,0,0,1-3-1.47h0v5a.21.21,0,0,1-.22.22Zm6.52-7a7.51,7.51,0,0,0,.24-2.2,7.74,7.74,0,0,0-.24-2.2,2.49,2.49,0,0,0-4.64,0,6.73,6.73,0,0,0-.25,2.2,6.58,6.58,0,0,0,.25,2.2,2.48,2.48,0,0,0,4.64,0Z"/><path d="M178,68.81a7.75,7.75,0,0,1-.36-2.69,7.64,7.64,0,0,1,.36-2.66,4.46,4.46,0,0,1,8.31,0,7.92,7.92,0,0,1,.35,2.66,8,8,0,0,1-.35,2.69,4.47,4.47,0,0,1-8.31,0Zm6.53-.53a6.82,6.82,0,0,0,.24-2.16,6.61,6.61,0,0,0-.24-2.13,2.53,2.53,0,0,0-4.75,0,6.61,6.61,0,0,0-.24,2.13,6.82,6.82,0,0,0,.24,2.16,2.53,2.53,0,0,0,4.75,0Z"/><path d="M188,70.06a.21.21,0,0,1,0-.31l.9-1a.23.23,0,0,1,.31,0A5.07,5.07,0,0,0,192.45,70c1.54,0,2.31-.66,2.31-1.6s-.39-1.3-2-1.48l-1.13-.11c-2.06-.22-3.14-1.25-3.14-3,0-2,1.43-3.21,3.92-3.21a6.3,6.3,0,0,1,3.74,1.17.22.22,0,0,1,0,.3l-.75.95a.21.21,0,0,1-.31,0,5.64,5.64,0,0,0-2.84-.85c-1.32,0-2,.59-2,1.45s.51,1.28,2.07,1.43l1.1.11c2.14.2,3.17,1.28,3.17,3,0,2.07-1.5,3.45-4.25,3.45A6.52,6.52,0,0,1,188,70.06Z"/><path d="M198.79,58.49a.21.21,0,0,1-.22-.22V56.66a.21.21,0,0,1,.22-.22h1.5a.2.2,0,0,1,.21.22v1.61a.2.2,0,0,1-.21.22Zm0,12.91a.21.21,0,0,1-.22-.22V61.08a.21.21,0,0,1,.22-.22h1.41a.21.21,0,0,1,.22.22v10.1a.21.21,0,0,1-.22.22Z"/><path d="M206.25,71.51c-2.05,0-2.84-.92-2.84-3v-6a.12.12,0,0,0-.13-.13h-.88a.2.2,0,0,1-.22-.22V61.08a.2.2,0,0,1,.22-.22h.88a.12.12,0,0,0,.13-.13v-3a.21.21,0,0,1,.22-.22H205a.21.21,0,0,1,.22.22v3c0,.09,0,.13.13.13h1.67a.21.21,0,0,1,.22.22v1.06a.21.21,0,0,1-.22.22h-1.67c-.09,0-.13,0-.13.13v6c0,1.06.39,1.35,1.34,1.35h.46a.2.2,0,0,1,.22.22v1.27a.21.21,0,0,1-.22.22Z"/><path d="M209.44,58.49a.21.21,0,0,1-.23-.22V56.66a.21.21,0,0,1,.23-.22h1.49a.21.21,0,0,1,.22.22v1.61a.21.21,0,0,1-.22.22Zm0,12.91a.21.21,0,0,1-.22-.22V61.08a.21.21,0,0,1,.22-.22h1.41a.21.21,0,0,1,.22.22v10.1a.21.21,0,0,1-.22.22Z"/><path d="M216.65,71.4a.26.26,0,0,1-.26-.22l-3.79-10.1c0-.13,0-.22.18-.22h1.52c.15,0,.22.07.28.22l2.73,7.57h.05L220,61.08a.26.26,0,0,1,.26-.22h1.5c.15,0,.22.09.17.22l-3.76,10.1a.28.28,0,0,1-.28.22Z"/><path d="M223.07,68.81a8,8,0,0,1-.35-2.69,7.92,7.92,0,0,1,.35-2.66,4.47,4.47,0,0,1,8.32,0,7.92,7.92,0,0,1,.35,2.66,8,8,0,0,1-.35,2.69,4.47,4.47,0,0,1-8.32,0Zm6.54-.53a6.82,6.82,0,0,0,.24-2.16,6.61,6.61,0,0,0-.24-2.13,2.53,2.53,0,0,0-4.75,0,6.61,6.61,0,0,0-.24,2.13,6.82,6.82,0,0,0,.24,2.16,2.53,2.53,0,0,0,4.75,0Z"/><path d="M233.11,70.06a.21.21,0,0,1,0-.31l.9-1a.23.23,0,0,1,.31,0A5.07,5.07,0,0,0,237.57,70c1.54,0,2.31-.66,2.31-1.6s-.39-1.3-2-1.48l-1.13-.11c-2.06-.22-3.14-1.25-3.14-3,0-2,1.43-3.21,3.92-3.21a6.3,6.3,0,0,1,3.74,1.17.2.2,0,0,1,0,.3l-.75.95a.21.21,0,0,1-.31,0,5.63,5.63,0,0,0-2.83-.85c-1.33,0-2,.59-2,1.45s.51,1.28,2.07,1.43l1.1.11c2.14.2,3.17,1.28,3.17,3,0,2.07-1.5,3.45-4.25,3.45A6.52,6.52,0,0,1,233.11,70.06Z"/><path d="M247.85,68.78a10.43,10.43,0,0,1,0-5.32,4.44,4.44,0,0,1,8.28,0,9.18,9.18,0,0,1,.33,3,.21.21,0,0,1-.24.22h-6.67c-.09,0-.13,0-.13.14a3.93,3.93,0,0,0,.17,1.27,2.61,2.61,0,0,0,2.66,1.83,3.44,3.44,0,0,0,2.71-1.17.22.22,0,0,1,.33,0l.9.81a.21.21,0,0,1,0,.31,5.13,5.13,0,0,1-4.12,1.8A4.07,4.07,0,0,1,247.85,68.78Zm6.55-3.56c.09,0,.14,0,.14-.13a3.68,3.68,0,0,0-.16-1.19,2.6,2.6,0,0,0-4.84,0,3.71,3.71,0,0,0-.15,1.19c0,.09,0,.13.13.13Z"/><path d="M261.05,71.51c-1.85,0-2.58-.88-2.58-2.77V56.66a.21.21,0,0,1,.22-.22h1.41a.21.21,0,0,1,.22.22v12c0,.88.33,1.17,1.06,1.17h.41A.2.2,0,0,1,262,70v1.27a.2.2,0,0,1-.22.22Z"/><path d="M263.44,68.78a10.58,10.58,0,0,1,0-5.32,4.44,4.44,0,0,1,8.28,0,9.18,9.18,0,0,1,.33,3c0,.14-.09.22-.25.22h-6.66a.13.13,0,0,0-.14.14,3.9,3.9,0,0,0,.18,1.27,2.6,2.6,0,0,0,2.66,1.83,3.44,3.44,0,0,0,2.71-1.17.22.22,0,0,1,.33,0l.9.81a.2.2,0,0,1,0,.31,5.09,5.09,0,0,1-4.11,1.8A4.08,4.08,0,0,1,263.44,68.78ZM270,65.22c.09,0,.13,0,.13-.13A3.71,3.71,0,0,0,270,63.9a2.6,2.6,0,0,0-4.84,0,3.68,3.68,0,0,0-.16,1.19c0,.09,0,.13.14.13Z"/><path d="M273.8,63.46A4.09,4.09,0,0,1,278,60.62a4.22,4.22,0,0,1,3.61,1.78c.07.11.07.2-.06.31l-1,.79a.2.2,0,0,1-.31,0A2.59,2.59,0,0,0,278,62.34,2.28,2.28,0,0,0,275.61,64a6.89,6.89,0,0,0-.24,2.13,7,7,0,0,0,.24,2.16A2.28,2.28,0,0,0,278,69.93a2.6,2.6,0,0,0,2.27-1.15.2.2,0,0,1,.31,0l1,.79c.13.11.13.2.06.31A4.22,4.22,0,0,1,278,71.64a4.09,4.09,0,0,1-4.16-2.83,11,11,0,0,1,0-5.35Z"/><path d="M286.68,71.51c-2.05,0-2.84-.92-2.84-3v-6a.12.12,0,0,0-.13-.13h-.88a.2.2,0,0,1-.22-.22V61.08a.2.2,0,0,1,.22-.22h.88a.12.12,0,0,0,.13-.13v-3a.21.21,0,0,1,.22-.22h1.4a.21.21,0,0,1,.23.22v3c0,.09,0,.13.13.13h1.67a.21.21,0,0,1,.22.22v1.06a.21.21,0,0,1-.22.22h-1.67c-.09,0-.13,0-.13.13v6c0,1.06.39,1.35,1.34,1.35h.46a.2.2,0,0,1,.22.22v1.27a.21.21,0,0,1-.22.22Z"/><path d="M289.91,71.4a.21.21,0,0,1-.22-.22V61.08a.21.21,0,0,1,.22-.22h1.41a.21.21,0,0,1,.22.22v1.08h0a2.94,2.94,0,0,1,2.79-1.54,3.26,3.26,0,0,1,2.16.79c.11.11.13.2,0,.31l-.81,1.08a.2.2,0,0,1-.31,0,3,3,0,0,0-1.63-.5c-1.6,0-2.26,1.25-2.26,3.08v5.76a.21.21,0,0,1-.22.22Z"/><path d="M297.15,68.81a7.75,7.75,0,0,1-.36-2.69,7.64,7.64,0,0,1,.36-2.66,4.46,4.46,0,0,1,8.31,0,7.64,7.64,0,0,1,.36,2.66,7.75,7.75,0,0,1-.36,2.69,4.47,4.47,0,0,1-8.31,0Zm6.53-.53a6.82,6.82,0,0,0,.24-2.16,6.61,6.61,0,0,0-.24-2.13,2.53,2.53,0,0,0-4.75,0,6.61,6.61,0,0,0-.24,2.13,6.82,6.82,0,0,0,.24,2.16,2.53,2.53,0,0,0,4.75,0Zm-3.17-9.13c-.13,0-.2-.09-.13-.22l1.67-2.71a.4.4,0,0,1,.38-.22h1.45c.13,0,.2.11.11.22l-2,2.71a.43.43,0,0,1-.41.22Z"/><path d="M314.75,71.4a.21.21,0,0,1-.22-.22V65c0-1.69-.77-2.68-2.36-2.68a2.36,2.36,0,0,0-2.42,2.57v6.27a.21.21,0,0,1-.22.22h-1.4a.21.21,0,0,1-.23-.22V61.08a.21.21,0,0,1,.23-.22h1.4a.21.21,0,0,1,.22.22v1h0a3.35,3.35,0,0,1,3-1.43c2.29,0,3.66,1.56,3.66,4v6.6a.21.21,0,0,1-.22.22Z"/><path d="M319.17,58.49a.21.21,0,0,1-.22-.22V56.66a.21.21,0,0,1,.22-.22h1.49a.2.2,0,0,1,.22.22v1.61a.2.2,0,0,1-.22.22Zm0,12.91a.21.21,0,0,1-.22-.22V61.08a.21.21,0,0,1,.22-.22h1.41a.21.21,0,0,1,.22.22v10.1a.21.21,0,0,1-.22.22Z"/><path d="M323.26,63.46a4.07,4.07,0,0,1,4.16-2.84A4.22,4.22,0,0,1,331,62.4a.22.22,0,0,1-.07.31l-1,.79a.19.19,0,0,1-.3,0,2.61,2.61,0,0,0-2.27-1.14A2.29,2.29,0,0,0,325.06,64a7.21,7.21,0,0,0-.24,2.13,7.3,7.3,0,0,0,.24,2.16,2.29,2.29,0,0,0,2.36,1.65,2.61,2.61,0,0,0,2.27-1.15.19.19,0,0,1,.3,0l1,.79a.22.22,0,0,1,.07.31,4.22,4.22,0,0,1-3.61,1.78,4.08,4.08,0,0,1-4.16-2.83,11,11,0,0,1,0-5.35Z"/><path d="M332.52,68.81a8,8,0,0,1-.35-2.69,7.92,7.92,0,0,1,.35-2.66,4.47,4.47,0,0,1,8.32,0,7.92,7.92,0,0,1,.35,2.66,8,8,0,0,1-.35,2.69,4.47,4.47,0,0,1-8.32,0Zm6.54-.53a7.13,7.13,0,0,0,.24-2.16,6.91,6.91,0,0,0-.24-2.13,2.54,2.54,0,0,0-4.76,0,6.91,6.91,0,0,0-.24,2.13,7.13,7.13,0,0,0,.24,2.16,2.54,2.54,0,0,0,4.76,0Z"/><path d="M342.55,70.06a.23.23,0,0,1,0-.31l.91-1a.22.22,0,0,1,.3,0A5.1,5.1,0,0,0,347,70c1.54,0,2.31-.66,2.31-1.6s-.4-1.3-2-1.48l-1.13-.11c-2.07-.22-3.14-1.25-3.14-3,0-2,1.43-3.21,3.91-3.21a6.3,6.3,0,0,1,3.74,1.17.21.21,0,0,1,.05.3L350,63a.21.21,0,0,1-.31,0,5.64,5.64,0,0,0-2.84-.85c-1.32,0-2,.59-2,1.45s.51,1.28,2.07,1.43l1.1.11c2.13.2,3.17,1.28,3.17,3,0,2.07-1.5,3.45-4.25,3.45A6.55,6.55,0,0,1,342.55,70.06Z"/><path d="M353.14,69.07h1.54a.21.21,0,0,1,.22.22v2a.69.69,0,0,1-.14.48l-1.36,1.81a.38.38,0,0,1-.29.15.19.19,0,0,1-.19-.2V69.29A.2.2,0,0,1,353.14,69.07Z"/><path d="M368.14,71.4a.21.21,0,0,1-.22-.22V65c0-1.69-.77-2.68-2.35-2.68a2.36,2.36,0,0,0-2.42,2.57v6.27a.21.21,0,0,1-.22.22h-1.41a.21.21,0,0,1-.22-.22V61.08a.21.21,0,0,1,.22-.22h1.41a.21.21,0,0,1,.22.22v1h0a3.34,3.34,0,0,1,2.95-1.43c2.28,0,3.65,1.56,3.65,4v6.6a.21.21,0,0,1-.22.22Z"/><path d="M372.1,68.81a8,8,0,0,1-.35-2.69,7.92,7.92,0,0,1,.35-2.66,4.47,4.47,0,0,1,8.32,0,7.92,7.92,0,0,1,.35,2.66,8,8,0,0,1-.35,2.69,4.47,4.47,0,0,1-8.32,0Zm6.53-.53a6.77,6.77,0,0,0,.25-2.16,6.57,6.57,0,0,0-.25-2.13,2.53,2.53,0,0,0-4.75,0,6.91,6.91,0,0,0-.24,2.13,7.13,7.13,0,0,0,.24,2.16,2.53,2.53,0,0,0,4.75,0Z"/><path d="M387.48,71.4a.21.21,0,0,1-.22-.22V61.08a.21.21,0,0,1,.22-.22h1.41a.21.21,0,0,1,.22.22v1.08h0a2.93,2.93,0,0,1,2.79-1.54,3.26,3.26,0,0,1,2.16.79c.11.11.13.2,0,.31l-.81,1.08a.2.2,0,0,1-.31,0,3,3,0,0,0-1.63-.5c-1.6,0-2.26,1.25-2.26,3.08v5.76a.21.21,0,0,1-.22.22Z"/><path d="M394.71,68.78a8.54,8.54,0,0,1-.35-2.66,8.17,8.17,0,0,1,.33-2.66,4.44,4.44,0,0,1,8.28,0,9.18,9.18,0,0,1,.33,3c0,.14-.09.22-.25.22h-6.66c-.09,0-.13,0-.13.14a3.93,3.93,0,0,0,.17,1.27,2.6,2.6,0,0,0,2.66,1.83,3.44,3.44,0,0,0,2.71-1.17.22.22,0,0,1,.33,0l.9.81a.2.2,0,0,1,0,.31,5.09,5.09,0,0,1-4.11,1.8A4.08,4.08,0,0,1,394.71,68.78Zm6.56-3.56c.09,0,.13,0,.13-.13a3.71,3.71,0,0,0-.15-1.19,2.6,2.6,0,0,0-4.84,0,3.71,3.71,0,0,0-.15,1.19c0,.09,0,.13.13.13Z"/><path d="M411.77,71.4a.21.21,0,0,1-.23-.22v-.92h0a3.45,3.45,0,0,1-3.12,1.38c-2,0-3.54-1-3.54-3.16s1.54-3.26,4.11-3.26h2.4c.09,0,.13,0,.13-.13v-.77c0-1.45-.57-2.07-2.53-2.07a4.09,4.09,0,0,0-2.55.75.21.21,0,0,1-.31,0l-.59-1a.22.22,0,0,1,0-.3,5.81,5.81,0,0,1,3.59-1c3,0,4.13,1,4.13,3.59v7a.2.2,0,0,1-.22.22ZM411.5,68V66.83c0-.09,0-.14-.13-.14h-2.11c-1.83,0-2.62.53-2.62,1.72s.79,1.65,2.2,1.65C410.49,70.06,411.5,69.29,411.5,68Z"/><path d="M418.45,71.51c-1.85,0-2.57-.88-2.57-2.77V56.66a.21.21,0,0,1,.22-.22h1.41a.21.21,0,0,1,.22.22v12c0,.88.33,1.17,1,1.17h.42a.2.2,0,0,1,.22.22v1.27a.21.21,0,0,1-.22.22Z"/><path d="M421.31,58.49a.21.21,0,0,1-.22-.22V56.66a.21.21,0,0,1,.22-.22h1.5a.21.21,0,0,1,.22.22v1.61a.21.21,0,0,1-.22.22Zm.05,12.91a.2.2,0,0,1-.22-.22V61.08a.2.2,0,0,1,.22-.22h1.4a.2.2,0,0,1,.22.22v10.1a.2.2,0,0,1-.22.22Z"/><path d="M425.4,63.46a4.09,4.09,0,0,1,4.16-2.84,4.22,4.22,0,0,1,3.61,1.78c.07.11.07.2-.06.31l-1,.79a.2.2,0,0,1-.31,0,2.59,2.59,0,0,0-2.27-1.14A2.28,2.28,0,0,0,427.21,64a6.89,6.89,0,0,0-.24,2.13,7,7,0,0,0,.24,2.16,2.28,2.28,0,0,0,2.35,1.65,2.6,2.6,0,0,0,2.27-1.15.2.2,0,0,1,.31,0l1,.79c.13.11.13.2.06.31a4.22,4.22,0,0,1-3.61,1.78,4.09,4.09,0,0,1-4.16-2.83,11,11,0,0,1,0-5.35Z"/><path d="M434.67,68.78a10.43,10.43,0,0,1,0-5.32,4.44,4.44,0,0,1,8.28,0,9.18,9.18,0,0,1,.33,3c0,.14-.09.22-.25.22h-6.66c-.09,0-.13,0-.13.14a3.93,3.93,0,0,0,.17,1.27A2.61,2.61,0,0,0,439,69.93a3.44,3.44,0,0,0,2.71-1.17.22.22,0,0,1,.33,0l.9.81a.2.2,0,0,1,0,.31,5.09,5.09,0,0,1-4.11,1.8A4.07,4.07,0,0,1,434.67,68.78Zm6.55-3.56c.09,0,.13,0,.13-.13a3.71,3.71,0,0,0-.15-1.19,2.6,2.6,0,0,0-4.84,0,3.71,3.71,0,0,0-.15,1.19c0,.09,0,.13.13.13Z"/><path d="M452.79,71.51c-2,0-2.83-.92-2.83-3v-6c0-.09,0-.13-.14-.13h-.88a.21.21,0,0,1-.22-.22V61.08a.21.21,0,0,1,.22-.22h.88c.09,0,.14,0,.14-.13v-3a.2.2,0,0,1,.22-.22h1.4a.2.2,0,0,1,.22.22v3c0,.09.05.13.14.13h1.67a.21.21,0,0,1,.22.22v1.06a.21.21,0,0,1-.22.22h-1.67c-.09,0-.14,0-.14.13v6c0,1.06.4,1.35,1.35,1.35h.46a.2.2,0,0,1,.22.22v1.27a.21.21,0,0,1-.22.22Z"/><path d="M456,71.4a.2.2,0,0,1-.22-.22V61.08a.2.2,0,0,1,.22-.22h1.41a.21.21,0,0,1,.22.22v1.08h0a2.93,2.93,0,0,1,2.79-1.54,3.26,3.26,0,0,1,2.16.79c.11.11.13.2,0,.31l-.81,1.08a.2.2,0,0,1-.31,0,3,3,0,0,0-1.63-.5c-1.6,0-2.26,1.25-2.26,3.08v5.76a.21.21,0,0,1-.22.22Z"/><path d="M469.8,71.4a.21.21,0,0,1-.22-.22v-.92h0a3.47,3.47,0,0,1-3.13,1.38c-2,0-3.54-1-3.54-3.16s1.54-3.26,4.11-3.26h2.4c.09,0,.14,0,.14-.13v-.77c0-1.45-.58-2.07-2.54-2.07a4.12,4.12,0,0,0-2.55.75.21.21,0,0,1-.31,0l-.59-1a.22.22,0,0,1,0-.3,5.85,5.85,0,0,1,3.59-1c3,0,4.14,1,4.14,3.59v7a.21.21,0,0,1-.22.22ZM469.54,68V66.83a.13.13,0,0,0-.14-.14h-2.11c-1.83,0-2.62.53-2.62,1.72s.79,1.65,2.2,1.65C468.52,70.06,469.54,69.29,469.54,68Z"/><path d="M474.18,71.4a.2.2,0,0,1-.22-.22V56.66a.2.2,0,0,1,.22-.22h1.4a.2.2,0,0,1,.22.22v5.41h0a3.19,3.19,0,0,1,3-1.45,3.48,3.48,0,0,1,3.63,2.53,8.63,8.63,0,0,1,.37,3,8.65,8.65,0,0,1-.37,3,3.47,3.47,0,0,1-3.63,2.53,3.18,3.18,0,0,1-3-1.47h0v1a.2.2,0,0,1-.22.22Zm6.51-3.08a7.18,7.18,0,0,0,.24-2.2,7.39,7.39,0,0,0-.24-2.2,2.49,2.49,0,0,0-4.64,0,6.73,6.73,0,0,0-.25,2.2,6.58,6.58,0,0,0,.25,2.2,2.48,2.48,0,0,0,4.64,0Z"/><path d="M491.29,71.4a.21.21,0,0,1-.22-.22v-.92h0a3.45,3.45,0,0,1-3.12,1.38c-2,0-3.55-1-3.55-3.16s1.54-3.26,4.12-3.26h2.4c.09,0,.13,0,.13-.13v-.77c0-1.45-.57-2.07-2.53-2.07A4.07,4.07,0,0,0,486,63a.21.21,0,0,1-.31,0l-.6-1a.23.23,0,0,1,0-.3,5.81,5.81,0,0,1,3.59-1c3,0,4.13,1,4.13,3.59v7a.21.21,0,0,1-.22.22ZM491,68V66.83c0-.09,0-.14-.13-.14h-2.11c-1.83,0-2.62.53-2.62,1.72s.79,1.65,2.2,1.65C490,70.06,491,69.29,491,68Z"/><path d="M493.71,75.36a.21.21,0,0,1-.22-.22V73.87a.2.2,0,0,1,.22-.22h.35c1,0,1.39-.29,1.39-1.41V61.08a.21.21,0,0,1,.22-.22h1.41a.21.21,0,0,1,.22.22V72.19c0,2.27-1,3.17-3.15,3.17Zm1.92-16.87a.2.2,0,0,1-.22-.22V56.66a.2.2,0,0,1,.22-.22h1.49a.21.21,0,0,1,.22.22v1.61a.21.21,0,0,1-.22.22Z"/><path d="M499.74,68.81a8,8,0,0,1-.35-2.69,7.92,7.92,0,0,1,.35-2.66,4.47,4.47,0,0,1,8.32,0,7.92,7.92,0,0,1,.35,2.66,8,8,0,0,1-.35,2.69,4.47,4.47,0,0,1-8.32,0Zm6.54-.53a7.13,7.13,0,0,0,.24-2.16,6.91,6.91,0,0,0-.24-2.13,2.54,2.54,0,0,0-4.76,0,6.91,6.91,0,0,0-.24,2.13,7.13,7.13,0,0,0,.24,2.16,2.54,2.54,0,0,0,4.76,0Z"/><path d="M509.77,70.06a.21.21,0,0,1,0-.31l.9-1a.23.23,0,0,1,.31,0A5.07,5.07,0,0,0,514.24,70c1.54,0,2.31-.66,2.31-1.6s-.4-1.3-2-1.48l-1.12-.11c-2.07-.22-3.15-1.25-3.15-3,0-2,1.43-3.21,3.92-3.21a6.3,6.3,0,0,1,3.74,1.17.21.21,0,0,1,.05.3l-.75.95a.21.21,0,0,1-.31,0,5.64,5.64,0,0,0-2.84-.85c-1.32,0-2,.59-2,1.45s.5,1.28,2.07,1.43l1.1.11c2.13.2,3.17,1.28,3.17,3,0,2.07-1.5,3.45-4.25,3.45A6.55,6.55,0,0,1,509.77,70.06Z"/><path d="M538.26,71.4a.21.21,0,0,1-.22-.22V65c0-1.69-.77-2.68-2.35-2.68a2.37,2.37,0,0,0-2.42,2.57v6.27a.21.21,0,0,1-.22.22h-1.41a.21.21,0,0,1-.22-.22V65c0-1.69-.77-2.68-2.35-2.68a2.36,2.36,0,0,0-2.42,2.57v6.27a.21.21,0,0,1-.22.22H525a.21.21,0,0,1-.22-.22V61.08a.21.21,0,0,1,.22-.22h1.41a.21.21,0,0,1,.22.22v1h0a3.73,3.73,0,0,1,6,.22h0a3.93,3.93,0,0,1,3.41-1.65c2.44,0,3.76,1.56,3.76,4v6.6a.21.21,0,0,1-.22.22Z"/><path d="M542.68,58.49a.21.21,0,0,1-.22-.22V56.66a.21.21,0,0,1,.22-.22h1.5a.21.21,0,0,1,.22.22v1.61a.21.21,0,0,1-.22.22Zm.05,12.91a.21.21,0,0,1-.22-.22V61.08a.21.21,0,0,1,.22-.22h1.41a.21.21,0,0,1,.22.22v10.1a.21.21,0,0,1-.22.22Z"/><path d="M546.8,68.78a8.25,8.25,0,0,1-.35-2.66,7.9,7.9,0,0,1,.33-2.66,4.43,4.43,0,0,1,8.27,0,9.18,9.18,0,0,1,.33,3,.21.21,0,0,1-.24.22h-6.67c-.09,0-.13,0-.13.14a3.93,3.93,0,0,0,.17,1.27,2.62,2.62,0,0,0,2.67,1.83,3.43,3.43,0,0,0,2.7-1.17.22.22,0,0,1,.33,0l.9.81a.21.21,0,0,1,0,.31,5.13,5.13,0,0,1-4.12,1.8A4.07,4.07,0,0,1,546.8,68.78Zm6.55-3.56c.09,0,.14,0,.14-.13a3.68,3.68,0,0,0-.16-1.19,2.6,2.6,0,0,0-4.84,0,3.71,3.71,0,0,0-.15,1.19c0,.09,0,.13.13.13Z"/><path d="M564.31,71.4a.21.21,0,0,1-.22-.22V65c0-1.69-.77-2.68-2.35-2.68a2.36,2.36,0,0,0-2.43,2.57v6.27a.2.2,0,0,1-.21.22h-1.41a.2.2,0,0,1-.22-.22V61.08a.2.2,0,0,1,.22-.22h1.41a.2.2,0,0,1,.21.22v1h0a3.34,3.34,0,0,1,2.95-1.43c2.28,0,3.65,1.56,3.65,4v6.6a.21.21,0,0,1-.22.22Z"/><path d="M571.61,71.51c-2,0-2.83-.92-2.83-3v-6c0-.09,0-.13-.14-.13h-.88a.21.21,0,0,1-.22-.22V61.08a.21.21,0,0,1,.22-.22h.88c.09,0,.14,0,.14-.13v-3a.2.2,0,0,1,.21-.22h1.41a.2.2,0,0,1,.22.22v3a.12.12,0,0,0,.13.13h1.68a.21.21,0,0,1,.22.22v1.06a.21.21,0,0,1-.22.22h-1.68a.12.12,0,0,0-.13.13v6c0,1.06.4,1.35,1.34,1.35h.47a.2.2,0,0,1,.22.22v1.27a.21.21,0,0,1-.22.22Z"/><path d="M574.85,71.4a.2.2,0,0,1-.22-.22V61.08a.2.2,0,0,1,.22-.22h1.4a.2.2,0,0,1,.22.22v1.08h0a2.93,2.93,0,0,1,2.79-1.54,3.26,3.26,0,0,1,2.16.79c.11.11.13.2,0,.31l-.81,1.08a.2.2,0,0,1-.31,0,3,3,0,0,0-1.63-.5c-1.61,0-2.27,1.25-2.27,3.08v5.76a.2.2,0,0,1-.22.22Z"/><path d="M588.62,71.4a.21.21,0,0,1-.22-.22v-.92h0a3.47,3.47,0,0,1-3.13,1.38c-2,0-3.54-1-3.54-3.16s1.54-3.26,4.11-3.26h2.4c.09,0,.14,0,.14-.13v-.77c0-1.45-.58-2.07-2.54-2.07a4.12,4.12,0,0,0-2.55.75.21.21,0,0,1-.31,0l-.59-1a.22.22,0,0,1,0-.3,5.85,5.85,0,0,1,3.59-1c3,0,4.14,1,4.14,3.59v7a.21.21,0,0,1-.22.22ZM588.36,68V66.83a.13.13,0,0,0-.14-.14h-2.11c-1.83,0-2.62.53-2.62,1.72s.79,1.65,2.2,1.65C587.34,70.06,588.36,69.29,588.36,68Z"/><path d="M592.05,70.06a.21.21,0,0,1,0-.31l.9-1a.23.23,0,0,1,.31,0A5.07,5.07,0,0,0,596.52,70c1.54,0,2.31-.66,2.31-1.6s-.4-1.3-2.05-1.48l-1.12-.11c-2.07-.22-3.15-1.25-3.15-3,0-2,1.43-3.21,3.92-3.21a6.3,6.3,0,0,1,3.74,1.17.2.2,0,0,1,0,.3l-.75.95a.2.2,0,0,1-.3,0,5.67,5.67,0,0,0-2.84-.85c-1.32,0-2,.59-2,1.45s.5,1.28,2.06,1.43l1.1.11c2.14.2,3.17,1.28,3.17,3,0,2.07-1.49,3.45-4.24,3.45A6.55,6.55,0,0,1,592.05,70.06Z"/><path d="M13.47,99.4a.2.2,0,0,1-.22-.22V93c0-1.69-.77-2.68-2.36-2.68a2.37,2.37,0,0,0-2.42,2.57v6.27a.21.21,0,0,1-.22.22H6.84a.21.21,0,0,1-.22-.22V93c0-1.69-.77-2.68-2.35-2.68a2.36,2.36,0,0,0-2.42,2.57v6.27a.21.21,0,0,1-.22.22H.22A.21.21,0,0,1,0,99.18V89.08a.21.21,0,0,1,.22-.22H1.63a.21.21,0,0,1,.22.22v1h0a3.35,3.35,0,0,1,3-1.43A3.3,3.3,0,0,1,7.9,90.27h0a3.94,3.94,0,0,1,3.41-1.65c2.44,0,3.76,1.56,3.76,4v6.6a.2.2,0,0,1-.21.22Z"/><path d="M17.89,86.49a.2.2,0,0,1-.22-.22V84.66a.2.2,0,0,1,.22-.22h1.49a.21.21,0,0,1,.22.22v1.61a.21.21,0,0,1-.22.22Zm0,12.91a.21.21,0,0,1-.22-.22V89.08a.21.21,0,0,1,.22-.22h1.41a.21.21,0,0,1,.22.22v10.1a.21.21,0,0,1-.22.22Z"/><path d="M22,96.78a10.58,10.58,0,0,1,0-5.32,4.07,4.07,0,0,1,4.14-2.84,4.08,4.08,0,0,1,4.13,2.84,9.18,9.18,0,0,1,.33,3,.21.21,0,0,1-.24.22H23.67c-.09,0-.13,0-.13.14a3.9,3.9,0,0,0,.18,1.27,2.6,2.6,0,0,0,2.66,1.83,3.43,3.43,0,0,0,2.7-1.17c.12-.11.22-.13.34,0l.9.81a.2.2,0,0,1,0,.31,5.13,5.13,0,0,1-4.12,1.8A4.07,4.07,0,0,1,22,96.78Zm6.56-3.56a.12.12,0,0,0,.13-.13,4,4,0,0,0-.15-1.19,2.39,2.39,0,0,0-2.42-1.65,2.39,2.39,0,0,0-2.43,1.65,3.71,3.71,0,0,0-.15,1.19c0,.09,0,.13.13.13Z"/><path d="M39.51,99.4a.21.21,0,0,1-.22-.22V93c0-1.69-.77-2.68-2.35-2.68a2.36,2.36,0,0,0-2.42,2.57v6.27a.21.21,0,0,1-.22.22H32.89a.21.21,0,0,1-.22-.22V89.08a.21.21,0,0,1,.22-.22H34.3a.21.21,0,0,1,.22.22v1h0a3.35,3.35,0,0,1,3-1.43c2.29,0,3.65,1.56,3.65,4v6.6a.21.21,0,0,1-.22.22Z"/><path d="M46.82,99.51c-2,0-2.84-.92-2.84-3v-6a.12.12,0,0,0-.13-.13H43a.2.2,0,0,1-.21-.22V89.08a.2.2,0,0,1,.21-.22h.89a.12.12,0,0,0,.13-.13v-3a.21.21,0,0,1,.22-.22h1.41a.21.21,0,0,1,.22.22v3c0,.09,0,.13.13.13h1.67a.21.21,0,0,1,.22.22v1.06a.21.21,0,0,1-.22.22H46c-.09,0-.13,0-.13.13v6c0,1.06.39,1.35,1.34,1.35h.46a.2.2,0,0,1,.22.22v1.27a.21.21,0,0,1-.22.22Z"/><path d="M50.05,99.4a.21.21,0,0,1-.22-.22V89.08a.21.21,0,0,1,.22-.22h1.41a.21.21,0,0,1,.22.22v1.08h0a2.94,2.94,0,0,1,2.79-1.54,3.26,3.26,0,0,1,2.16.79c.11.11.13.2,0,.31l-.81,1.08a.2.2,0,0,1-.31,0,3,3,0,0,0-1.63-.5c-1.6,0-2.26,1.25-2.26,3.08v5.76a.21.21,0,0,1-.22.22Z"/><path d="M63.82,99.4a.21.21,0,0,1-.22-.22v-.92h0a3.45,3.45,0,0,1-3.12,1.38c-2,0-3.55-1-3.55-3.16s1.54-3.26,4.12-3.26h2.4a.12.12,0,0,0,.13-.13v-.77c0-1.45-.57-2.07-2.53-2.07a4.13,4.13,0,0,0-2.56.75.2.2,0,0,1-.3,0l-.6-1a.23.23,0,0,1,0-.3,5.8,5.8,0,0,1,3.58-1c3,0,4.14,1,4.14,3.59v7a.21.21,0,0,1-.22.22ZM63.56,96V94.83a.12.12,0,0,0-.13-.14H61.31c-1.82,0-2.61.53-2.61,1.72s.79,1.65,2.2,1.65C62.55,98.06,63.56,97.29,63.56,96Z"/><path d="M67.25,98.06a.21.21,0,0,1,0-.31l.9-1a.23.23,0,0,1,.31,0A5.07,5.07,0,0,0,71.72,98c1.54,0,2.31-.66,2.31-1.6s-.4-1.3-2-1.48l-1.12-.11c-2.07-.22-3.15-1.25-3.15-3,0-2,1.43-3.21,3.92-3.21a6.3,6.3,0,0,1,3.74,1.17.21.21,0,0,1,0,.3l-.75,1a.21.21,0,0,1-.31,0,5.64,5.64,0,0,0-2.84-.85c-1.32,0-2,.59-2,1.45S70,93,71.59,93.11l1.1.11c2.13.2,3.17,1.28,3.17,3,0,2.07-1.5,3.45-4.25,3.45A6.55,6.55,0,0,1,67.25,98.06Z"/><path d="M88.9,99.4a.21.21,0,0,1-.22-.22v-1h0a3.21,3.21,0,0,1-2.88,1.45c-2.31,0-3.65-1.58-3.65-4V89.08a.2.2,0,0,1,.21-.22h1.41a.21.21,0,0,1,.22.22v6.14c0,1.72.77,2.71,2.33,2.71a2.34,2.34,0,0,0,2.38-2.6V89.08a.21.21,0,0,1,.22-.22h1.41a.21.21,0,0,1,.22.22v10.1a.21.21,0,0,1-.22.22Z"/><path d="M92.53,98.06a.21.21,0,0,1,0-.31l.9-1a.23.23,0,0,1,.31,0A5.07,5.07,0,0,0,97,98c1.54,0,2.31-.66,2.31-1.6s-.4-1.3-2-1.48l-1.12-.11c-2.07-.22-3.15-1.25-3.15-3,0-2,1.43-3.21,3.92-3.21a6.3,6.3,0,0,1,3.74,1.17.2.2,0,0,1,0,.3L100,91a.21.21,0,0,1-.31,0,5.64,5.64,0,0,0-2.84-.85c-1.32,0-2,.59-2,1.45s.5,1.28,2.07,1.43l1.09.11c2.14.2,3.17,1.28,3.17,3,0,2.07-1.49,3.45-4.24,3.45A6.55,6.55,0,0,1,92.53,98.06Z"/><path d="M109.54,99.4a.2.2,0,0,1-.22-.22v-.92h0a3.44,3.44,0,0,1-3.12,1.38c-2,0-3.54-1-3.54-3.16s1.54-3.26,4.11-3.26h2.4c.09,0,.13,0,.13-.13v-.77c0-1.45-.57-2.07-2.53-2.07a4.09,4.09,0,0,0-2.55.75.21.21,0,0,1-.31,0l-.59-1a.22.22,0,0,1,0-.3,5.83,5.83,0,0,1,3.59-1c3,0,4.13,1,4.13,3.59v7a.2.2,0,0,1-.22.22ZM109.27,96V94.83c0-.09,0-.14-.13-.14H107c-1.83,0-2.62.53-2.62,1.72s.79,1.65,2.2,1.65C108.26,98.06,109.27,97.29,109.27,96Z"/><path d="M124.7,99.4a.21.21,0,0,1-.23-.22v-1h0a3.19,3.19,0,0,1-3,1.47,3.47,3.47,0,0,1-3.63-2.53,12.19,12.19,0,0,1,0-6,3.48,3.48,0,0,1,3.63-2.53,3.2,3.2,0,0,1,3,1.45h0V84.66a.21.21,0,0,1,.23-.22h1.4a.21.21,0,0,1,.22.22V99.18a.21.21,0,0,1-.22.22Zm-.47-3.08a6.63,6.63,0,0,0,.24-2.2,6.79,6.79,0,0,0-.24-2.2,2.49,2.49,0,0,0-4.64,0,7.39,7.39,0,0,0-.24,2.2,7.18,7.18,0,0,0,.24,2.2,2.48,2.48,0,0,0,4.64,0Z"/><path d="M129.23,86.49a.2.2,0,0,1-.22-.22V84.66a.2.2,0,0,1,.22-.22h1.49a.21.21,0,0,1,.22.22v1.61a.21.21,0,0,1-.22.22Zm0,12.91a.21.21,0,0,1-.22-.22V89.08a.21.21,0,0,1,.22-.22h1.41a.21.21,0,0,1,.22.22v10.1a.21.21,0,0,1-.22.22Z"/><path d="M133.32,91.46a4.07,4.07,0,0,1,4.16-2.84,4.22,4.22,0,0,1,3.6,1.78c.07.11.07.2-.06.31l-1,.79a.2.2,0,0,1-.31,0,2.58,2.58,0,0,0-2.26-1.14A2.29,2.29,0,0,0,135.12,92a7.21,7.21,0,0,0-.24,2.13,7.3,7.3,0,0,0,.24,2.16,2.29,2.29,0,0,0,2.36,1.65,2.59,2.59,0,0,0,2.26-1.15.2.2,0,0,1,.31,0l1,.79c.13.11.13.2.06.31a4.22,4.22,0,0,1-3.6,1.78,4.08,4.08,0,0,1-4.16-2.83,11,11,0,0,1,0-5.35Z"/><path d="M150,99.4a.21.21,0,0,1-.22-.22V93c0-1.69-.77-2.68-2.35-2.68A2.36,2.36,0,0,0,145,92.91v6.27a.21.21,0,0,1-.22.22h-1.41a.21.21,0,0,1-.22-.22V84.66a.21.21,0,0,1,.22-.22h1.41a.21.21,0,0,1,.22.22v5.39h0A3.35,3.35,0,0,1,148,88.62c2.29,0,3.65,1.56,3.65,4v6.6a.21.21,0,0,1-.22.22Z"/><path d="M153.93,96.81a8,8,0,0,1-.35-2.69,7.92,7.92,0,0,1,.35-2.66,4.47,4.47,0,0,1,8.32,0,7.92,7.92,0,0,1,.35,2.66,8,8,0,0,1-.35,2.69,4.47,4.47,0,0,1-8.32,0Zm6.54-.53a7.13,7.13,0,0,0,.24-2.16,6.91,6.91,0,0,0-.24-2.13,2.54,2.54,0,0,0-4.76,0,6.91,6.91,0,0,0-.24,2.13,7.13,7.13,0,0,0,.24,2.16,2.54,2.54,0,0,0,4.76,0Z"/><path d="M164,98.06a.23.23,0,0,1,0-.31l.91-1a.22.22,0,0,1,.3,0A5.07,5.07,0,0,0,168.43,98c1.54,0,2.31-.66,2.31-1.6s-.4-1.3-2.05-1.48l-1.12-.11c-2.07-.22-3.15-1.25-3.15-3,0-2,1.44-3.21,3.92-3.21a6.3,6.3,0,0,1,3.74,1.17.21.21,0,0,1,0,.3l-.75,1a.21.21,0,0,1-.31,0,5.64,5.64,0,0,0-2.84-.85c-1.32,0-2,.59-2,1.45s.51,1.28,2.07,1.43l1.1.11c2.13.2,3.17,1.28,3.17,3,0,2.07-1.5,3.45-4.25,3.45A6.55,6.55,0,0,1,164,98.06Z"/><path d="M185.59,99.4a.21.21,0,0,1-.22-.22v-1h0a3.2,3.2,0,0,1-3,1.47,3.48,3.48,0,0,1-3.64-2.53,12.19,12.19,0,0,1,0-6,3.49,3.49,0,0,1,3.64-2.53,3.21,3.21,0,0,1,3,1.45h0V84.66a.21.21,0,0,1,.22-.22H187a.21.21,0,0,1,.22.22V99.18a.21.21,0,0,1-.22.22Zm-.46-3.08a6.92,6.92,0,0,0,.24-2.2,7.08,7.08,0,0,0-.24-2.2,2.5,2.5,0,0,0-4.65,0,7.74,7.74,0,0,0-.24,2.2,7.51,7.51,0,0,0,.24,2.2,2.48,2.48,0,0,0,4.65,0Z"/><path d="M190.12,86.49a.21.21,0,0,1-.22-.22V84.66a.21.21,0,0,1,.22-.22h1.5a.21.21,0,0,1,.22.22v1.61a.21.21,0,0,1-.22.22Zm0,12.91a.21.21,0,0,1-.22-.22V89.08a.21.21,0,0,1,.22-.22h1.41a.2.2,0,0,1,.22.22v10.1a.2.2,0,0,1-.22.22Z"/><path d="M193.79,98.06a.23.23,0,0,1,0-.31l.91-1a.22.22,0,0,1,.3,0A5.1,5.1,0,0,0,198.26,98c1.54,0,2.31-.66,2.31-1.6s-.4-1.3-2-1.48l-1.13-.11c-2.07-.22-3.14-1.25-3.14-3,0-2,1.43-3.21,3.91-3.21a6.3,6.3,0,0,1,3.74,1.17.21.21,0,0,1,.05.3l-.75,1a.21.21,0,0,1-.31,0,5.64,5.64,0,0,0-2.84-.85c-1.32,0-2,.59-2,1.45s.51,1.28,2.07,1.43l1.1.11c2.13.2,3.17,1.28,3.17,3,0,2.07-1.5,3.45-4.25,3.45A6.55,6.55,0,0,1,193.79,98.06Z"/><path d="M204.64,103.36a.21.21,0,0,1-.22-.22V89.08a.21.21,0,0,1,.22-.22h1.41a.21.21,0,0,1,.22.22v1h0a3.21,3.21,0,0,1,3-1.45,3.48,3.48,0,0,1,3.63,2.53,11.87,11.87,0,0,1,0,6,3.47,3.47,0,0,1-3.63,2.53,3.2,3.2,0,0,1-3-1.47h0v5a.21.21,0,0,1-.22.22Zm6.51-7a7.18,7.18,0,0,0,.24-2.2,7.39,7.39,0,0,0-.24-2.2,2.49,2.49,0,0,0-4.64,0,6.79,6.79,0,0,0-.24,2.2,6.63,6.63,0,0,0,.24,2.2,2.48,2.48,0,0,0,4.64,0Z"/><path d="M215.09,96.81a8,8,0,0,1-.35-2.69,7.92,7.92,0,0,1,.35-2.66,4.47,4.47,0,0,1,8.32,0,7.92,7.92,0,0,1,.35,2.66,8,8,0,0,1-.35,2.69,4.47,4.47,0,0,1-8.32,0Zm6.54-.53a7.13,7.13,0,0,0,.24-2.16,6.91,6.91,0,0,0-.24-2.13,2.54,2.54,0,0,0-4.76,0,6.91,6.91,0,0,0-.24,2.13,7.13,7.13,0,0,0,.24,2.16,2.54,2.54,0,0,0,4.76,0Z"/><path d="M225.12,98.06a.21.21,0,0,1,0-.31l.9-1a.23.23,0,0,1,.31,0A5.07,5.07,0,0,0,229.59,98c1.54,0,2.31-.66,2.31-1.6s-.4-1.3-2.05-1.48l-1.12-.11c-2.07-.22-3.15-1.25-3.15-3,0-2,1.43-3.21,3.92-3.21a6.3,6.3,0,0,1,3.74,1.17.2.2,0,0,1,0,.3l-.74,1a.21.21,0,0,1-.31,0,5.64,5.64,0,0,0-2.84-.85c-1.32,0-2,.59-2,1.45s.5,1.28,2.07,1.43l1.1.11c2.13.2,3.16,1.28,3.16,3,0,2.07-1.49,3.45-4.24,3.45A6.55,6.55,0,0,1,225.12,98.06Z"/><path d="M235.92,86.49a.21.21,0,0,1-.22-.22V84.66a.21.21,0,0,1,.22-.22h1.5a.21.21,0,0,1,.22.22v1.61a.21.21,0,0,1-.22.22ZM236,99.4a.2.2,0,0,1-.22-.22V89.08a.2.2,0,0,1,.22-.22h1.41a.21.21,0,0,1,.22.22v10.1a.21.21,0,0,1-.22.22Z"/><path d="M243.38,99.51c-2,0-2.84-.92-2.84-3v-6c0-.09,0-.13-.13-.13h-.88a.21.21,0,0,1-.22-.22V89.08a.21.21,0,0,1,.22-.22h.88c.09,0,.13,0,.13-.13v-3a.21.21,0,0,1,.22-.22h1.41a.21.21,0,0,1,.22.22v3c0,.09,0,.13.13.13h1.68a.21.21,0,0,1,.22.22v1.06a.21.21,0,0,1-.22.22h-1.68c-.09,0-.13,0-.13.13v6c0,1.06.4,1.35,1.34,1.35h.47a.2.2,0,0,1,.22.22v1.27a.21.21,0,0,1-.22.22Z"/><path d="M246.57,86.49a.21.21,0,0,1-.22-.22V84.66a.21.21,0,0,1,.22-.22h1.5a.21.21,0,0,1,.22.22v1.61a.21.21,0,0,1-.22.22Zm0,12.91a.21.21,0,0,1-.22-.22V89.08a.21.21,0,0,1,.22-.22H248a.21.21,0,0,1,.22.22v10.1a.21.21,0,0,1-.22.22Z"/><path d="M253.79,99.4c-.16,0-.22-.09-.27-.22l-3.78-10.1c-.05-.13,0-.22.17-.22h1.52c.16,0,.22.07.29.22l2.73,7.57h0l2.66-7.57a.27.27,0,0,1,.27-.22h1.49c.16,0,.22.09.18.22l-3.76,10.1a.3.3,0,0,1-.29.22Z"/><path d="M260.21,96.81a8,8,0,0,1-.35-2.69,7.92,7.92,0,0,1,.35-2.66,4.47,4.47,0,0,1,8.32,0,7.92,7.92,0,0,1,.35,2.66,8,8,0,0,1-.35,2.69,4.47,4.47,0,0,1-8.32,0Zm6.53-.53a6.77,6.77,0,0,0,.25-2.16,6.57,6.57,0,0,0-.25-2.13A2.53,2.53,0,0,0,262,92a6.91,6.91,0,0,0-.24,2.13,7.13,7.13,0,0,0,.24,2.16,2.53,2.53,0,0,0,4.75,0Z"/><path d="M270.24,98.06a.21.21,0,0,1,0-.31l.9-1a.23.23,0,0,1,.31,0A5.07,5.07,0,0,0,274.71,98c1.54,0,2.31-.66,2.31-1.6s-.4-1.3-2-1.48l-1.12-.11c-2.07-.22-3.15-1.25-3.15-3,0-2,1.43-3.21,3.92-3.21a6.3,6.3,0,0,1,3.74,1.17.2.2,0,0,1,0,.3l-.74,1a.21.21,0,0,1-.31,0,5.64,5.64,0,0,0-2.84-.85c-1.32,0-2,.59-2,1.45s.5,1.28,2.07,1.43l1.1.11c2.13.2,3.17,1.28,3.17,3,0,2.07-1.5,3.45-4.25,3.45A6.55,6.55,0,0,1,270.24,98.06Z"/><path d="M280.82,97.07h1.54a.2.2,0,0,1,.22.22v2a.68.68,0,0,1-.13.48l-1.36,1.81a.38.38,0,0,1-.29.15.2.2,0,0,1-.2-.2V97.29A.21.21,0,0,1,280.82,97.07Z"/><path d="M289.21,103.36a.2.2,0,0,1-.22-.22V89.08a.2.2,0,0,1,.22-.22h1.4a.2.2,0,0,1,.22.22v1h0a3.19,3.19,0,0,1,3-1.45,3.49,3.49,0,0,1,3.63,2.53,12.19,12.19,0,0,1,0,6,3.48,3.48,0,0,1-3.63,2.53,3.18,3.18,0,0,1-3-1.47h0v5a.2.2,0,0,1-.22.22Zm6.51-7a7.51,7.51,0,0,0,.24-2.2,7.74,7.74,0,0,0-.24-2.2,2.49,2.49,0,0,0-4.64,0,6.73,6.73,0,0,0-.25,2.2,6.58,6.58,0,0,0,.25,2.2,2.48,2.48,0,0,0,4.64,0Z"/><path d="M299.66,96.81a7.75,7.75,0,0,1-.36-2.69,7.64,7.64,0,0,1,.36-2.66,4.46,4.46,0,0,1,8.31,0,7.92,7.92,0,0,1,.35,2.66,8,8,0,0,1-.35,2.69,4.47,4.47,0,0,1-8.31,0Zm6.53-.53a6.82,6.82,0,0,0,.24-2.16,6.61,6.61,0,0,0-.24-2.13,2.53,2.53,0,0,0-4.75,0,6.61,6.61,0,0,0-.24,2.13,6.82,6.82,0,0,0,.24,2.16,2.53,2.53,0,0,0,4.75,0Z"/><path d="M317.26,99.4a.2.2,0,0,1-.22-.22V93c0-1.69-.77-2.68-2.36-2.68a2.36,2.36,0,0,0-2.42,2.57v6.27a.21.21,0,0,1-.22.22h-1.41a.21.21,0,0,1-.22-.22V89.08a.21.21,0,0,1,.22-.22H312a.21.21,0,0,1,.22.22v1h0a3.35,3.35,0,0,1,3-1.43c2.29,0,3.65,1.56,3.65,4v6.6a.2.2,0,0,1-.22.22Z"/><path d="M321.28,102a.2.2,0,0,1,0-.31l.91-.9a.21.21,0,0,1,.33,0,3.5,3.5,0,0,0,2.48,1.06c1.74,0,2.66-.9,2.66-2.84V97.82h0a3,3,0,0,1-2.92,1.45,3.46,3.46,0,0,1-3.55-2.55,8.34,8.34,0,0,1-.35-2.77,8.44,8.44,0,0,1,.35-2.78,3.46,3.46,0,0,1,3.55-2.55,3,3,0,0,1,2.92,1.45h0v-1a.21.21,0,0,1,.22-.22h1.41a.21.21,0,0,1,.22.22v9.86c0,3-1.63,4.66-4.6,4.66A4.74,4.74,0,0,1,321.28,102ZM327.44,96a6.28,6.28,0,0,0,.24-2,6.38,6.38,0,0,0-.24-2,2.38,2.38,0,0,0-4.47,0,6.82,6.82,0,0,0-.26,2,6.7,6.7,0,0,0,.26,2,2.37,2.37,0,0,0,4.47,0Z"/><path d="M338.64,99.4a.21.21,0,0,1-.22-.22v-.92h0a3.47,3.47,0,0,1-3.13,1.38c-2,0-3.54-1-3.54-3.16s1.54-3.26,4.12-3.26h2.39c.09,0,.14,0,.14-.13v-.77c0-1.45-.58-2.07-2.53-2.07a4.13,4.13,0,0,0-2.56.75.21.21,0,0,1-.31,0l-.59-1a.22.22,0,0,1,.05-.3,5.8,5.8,0,0,1,3.58-1c3,0,4.14,1,4.14,3.59v7a.21.21,0,0,1-.22.22ZM338.38,96V94.83a.13.13,0,0,0-.14-.14h-2.11c-1.83,0-2.62.53-2.62,1.72s.79,1.65,2.2,1.65C337.36,98.06,338.38,97.29,338.38,96Z"/><path d="M350.25,99.51c-2,0-2.83-.92-2.83-3v-6c0-.09-.05-.13-.14-.13h-.88a.21.21,0,0,1-.22-.22V89.08a.21.21,0,0,1,.22-.22h.88c.09,0,.14,0,.14-.13v-3a.2.2,0,0,1,.22-.22H349a.2.2,0,0,1,.22.22v3c0,.09.05.13.14.13h1.67a.21.21,0,0,1,.22.22v1.06a.21.21,0,0,1-.22.22H349.4c-.09,0-.14,0-.14.13v6c0,1.06.4,1.35,1.35,1.35h.46a.2.2,0,0,1,.22.22v1.27a.21.21,0,0,1-.22.22Z"/><path d="M353,96.81a8,8,0,0,1-.35-2.69,7.92,7.92,0,0,1,.35-2.66,4.47,4.47,0,0,1,8.32,0,7.92,7.92,0,0,1,.35,2.66,8,8,0,0,1-.35,2.69,4.47,4.47,0,0,1-8.32,0Zm6.54-.53a7.13,7.13,0,0,0,.24-2.16,6.91,6.91,0,0,0-.24-2.13,2.54,2.54,0,0,0-4.76,0,6.91,6.91,0,0,0-.24,2.13,7.13,7.13,0,0,0,.24,2.16,2.54,2.54,0,0,0,4.76,0Z"/><path d="M366.8,99.51c-2.05,0-2.84-.92-2.84-3v-6c0-.09,0-.13-.13-.13H363a.21.21,0,0,1-.22-.22V89.08a.21.21,0,0,1,.22-.22h.88c.09,0,.13,0,.13-.13v-3a.21.21,0,0,1,.22-.22h1.41a.21.21,0,0,1,.22.22v3c0,.09,0,.13.13.13h1.67a.21.21,0,0,1,.22.22v1.06a.21.21,0,0,1-.22.22h-1.67c-.09,0-.13,0-.13.13v6c0,1.06.39,1.35,1.34,1.35h.46a.2.2,0,0,1,.22.22v1.27a.21.21,0,0,1-.22.22Z"/><path d="M376.19,99.4a.21.21,0,0,1-.22-.22v-.92h0a3.45,3.45,0,0,1-3.12,1.38c-2,0-3.55-1-3.55-3.16s1.54-3.26,4.12-3.26h2.4a.12.12,0,0,0,.13-.13v-.77c0-1.45-.57-2.07-2.53-2.07a4.07,4.07,0,0,0-2.55.75.21.21,0,0,1-.31,0l-.6-1a.23.23,0,0,1,.05-.3,5.8,5.8,0,0,1,3.58-1c3,0,4.14,1,4.14,3.59v7a.21.21,0,0,1-.22.22ZM375.93,96V94.83a.12.12,0,0,0-.13-.14h-2.12c-1.82,0-2.61.53-2.61,1.72s.79,1.65,2.2,1.65C374.92,98.06,375.93,97.29,375.93,96Z"/><path d="M382.88,99.51c-1.85,0-2.58-.88-2.58-2.77V84.66a.21.21,0,0,1,.23-.22h1.4a.2.2,0,0,1,.22.22v12c0,.88.33,1.17,1.06,1.17h.42a.2.2,0,0,1,.22.22v1.27a.21.21,0,0,1-.22.22Z"/></g></g></svg>