<svg xmlns="http://www.w3.org/2000/svg" viewBox="0 0 640.05 43.2"><title>14b</title><g id="Capa_2" data-name="Capa 2"><g id="respuestas_contorno" data-name="respuestas contorno"><path d="M.84.22A.2.2,0,0,1,1.06,0H2.57a.2.2,0,0,1,.22.22V13a.13.13,0,0,0,.14.14h7.13a.2.2,0,0,1,.22.22v1.38a.21.21,0,0,1-.22.22h-9a.2.2,0,0,1-.22-.22Z"/><path d="M11,12.37a8,8,0,0,1-.35-2.69A7.92,7.92,0,0,1,11,7a4.06,4.06,0,0,1,4.16-2.84A4.06,4.06,0,0,1,19.34,7a7.92,7.92,0,0,1,.35,2.66,8,8,0,0,1-.35,2.69,4.09,4.09,0,0,1-4.16,2.83A4.09,4.09,0,0,1,11,12.37Zm6.54-.53a7.13,7.13,0,0,0,.24-2.16,6.91,6.91,0,0,0-.24-2.13A2.34,2.34,0,0,0,15.18,5.9,2.35,2.35,0,0,0,12.8,7.55a6.91,6.91,0,0,0-.24,2.13,7.13,7.13,0,0,0,.24,2.16,2.36,2.36,0,0,0,2.38,1.65A2.35,2.35,0,0,0,17.56,11.84Z"/><path d="M20.61,13.62a.23.23,0,0,1,0-.31l.91-1a.2.2,0,0,1,.3,0,5.1,5.1,0,0,0,3.26,1.21c1.54,0,2.31-.66,2.31-1.6s-.4-1.3-2.05-1.48l-1.12-.11c-2.07-.22-3.14-1.25-3.14-3,0-2,1.43-3.21,3.91-3.21a6.3,6.3,0,0,1,3.74,1.17.21.21,0,0,1,.05.3L28,6.6a.21.21,0,0,1-.31,0,5.54,5.54,0,0,0-2.84-.85c-1.32,0-2,.59-2,1.45S23.39,8.51,25,8.67l1.1.11c2.13.2,3.17,1.27,3.17,3,0,2.07-1.5,3.45-4.25,3.45A6.55,6.55,0,0,1,20.61,13.62Z"/><path d="M41.14,15a.21.21,0,0,1-.22-.22v-.92h0a3.47,3.47,0,0,1-3.13,1.38c-2,0-3.54-1-3.54-3.16s1.54-3.26,4.12-3.26h2.39c.09,0,.14,0,.14-.13V7.88c0-1.46-.57-2.07-2.53-2.07a4.13,4.13,0,0,0-2.56.75c-.11.08-.24.08-.3,0l-.6-1a.24.24,0,0,1,0-.31,5.87,5.87,0,0,1,3.58-1c3,0,4.14,1,4.14,3.59v7a.21.21,0,0,1-.22.22Zm-.26-3.41V10.38a.12.12,0,0,0-.14-.13H38.63c-1.82,0-2.62.53-2.62,1.72s.8,1.65,2.2,1.65C39.86,13.62,40.88,12.85,40.88,11.55Z"/><path d="M44.55,7a4.07,4.07,0,0,1,4.16-2.84A4.24,4.24,0,0,1,52.32,6a.22.22,0,0,1-.07.31l-1,.79A.19.19,0,0,1,51,7,2.61,2.61,0,0,0,48.71,5.9a2.29,2.29,0,0,0-2.36,1.65,7.21,7.21,0,0,0-.24,2.13,7.3,7.3,0,0,0,.24,2.16,2.29,2.29,0,0,0,2.36,1.65A2.61,2.61,0,0,0,51,12.34a.19.19,0,0,1,.3,0l1,.79a.22.22,0,0,1,.07.31,4.24,4.24,0,0,1-3.61,1.78,4.08,4.08,0,0,1-4.16-2.83,9.08,9.08,0,0,1-.33-2.69A9,9,0,0,1,44.55,7Z"/><path d="M53.35,7a4.07,4.07,0,0,1,4.16-2.84A4.24,4.24,0,0,1,61.12,6a.22.22,0,0,1-.07.31l-1,.79a.2.2,0,0,1-.31,0A2.58,2.58,0,0,0,57.51,5.9a2.29,2.29,0,0,0-2.36,1.65,7.21,7.21,0,0,0-.24,2.13,7.3,7.3,0,0,0,.24,2.16,2.29,2.29,0,0,0,2.36,1.65,2.59,2.59,0,0,0,2.26-1.15.2.2,0,0,1,.31,0l1,.79a.22.22,0,0,1,.07.31,4.24,4.24,0,0,1-3.61,1.78,4.08,4.08,0,0,1-4.16-2.83A9.08,9.08,0,0,1,53,9.68,9,9,0,0,1,53.35,7Z"/><path d="M62.9,2.05a.21.21,0,0,1-.22-.22V.22A.21.21,0,0,1,62.9,0h1.49a.2.2,0,0,1,.22.22V1.83a.2.2,0,0,1-.22.22Zm0,12.91a.21.21,0,0,1-.22-.22V4.64a.21.21,0,0,1,.22-.22h1.41a.21.21,0,0,1,.22.22v10.1a.21.21,0,0,1-.22.22Z"/><path d="M73.46,15a.21.21,0,0,1-.22-.22v-1h0a3.21,3.21,0,0,1-3,1.47,3.48,3.48,0,0,1-3.63-2.53,8.9,8.9,0,0,1-.37-3,8.89,8.89,0,0,1,.37-3,3.49,3.49,0,0,1,3.63-2.53,3.22,3.22,0,0,1,3,1.45h0V.22A.21.21,0,0,1,73.46,0h1.41a.21.21,0,0,1,.22.22V14.74a.21.21,0,0,1-.22.22ZM73,11.88a6.92,6.92,0,0,0,.24-2.2A7.08,7.08,0,0,0,73,7.48a2.5,2.5,0,0,0-4.65,0,7.74,7.74,0,0,0-.24,2.2,7.51,7.51,0,0,0,.24,2.2,2.48,2.48,0,0,0,4.65,0Z"/><path d="M77.09,12.34a8.2,8.2,0,0,1-.36-2.66A8.46,8.46,0,0,1,77.06,7a4.44,4.44,0,0,1,8.28,0,9.18,9.18,0,0,1,.33,3,.21.21,0,0,1-.24.22H78.76a.12.12,0,0,0-.13.13,4,4,0,0,0,.17,1.28,2.62,2.62,0,0,0,2.67,1.83,3.43,3.43,0,0,0,2.7-1.17.22.22,0,0,1,.33,0l.9.81a.21.21,0,0,1,0,.31,5.13,5.13,0,0,1-4.12,1.8A4.07,4.07,0,0,1,77.09,12.34Zm6.55-3.56c.09,0,.14,0,.14-.13a3.68,3.68,0,0,0-.16-1.19,2.6,2.6,0,0,0-4.84,0,3.71,3.71,0,0,0-.15,1.19c0,.09,0,.13.13.13Z"/><path d="M94.16,15a.21.21,0,0,1-.22-.22V8.58c0-1.69-.77-2.68-2.36-2.68a2.36,2.36,0,0,0-2.42,2.57v6.27a.2.2,0,0,1-.22.22h-1.4a.2.2,0,0,1-.22-.22V4.64a.2.2,0,0,1,.22-.22h1.4a.2.2,0,0,1,.22.22v1h0a3.34,3.34,0,0,1,3-1.43c2.28,0,3.65,1.56,3.65,4v6.6a.21.21,0,0,1-.22.22Z"/><path d="M101,15.07c-2,0-2.84-.92-2.84-3v-6c0-.09,0-.13-.13-.13h-.88A.21.21,0,0,1,97,5.7V4.64a.21.21,0,0,1,.22-.22h.88c.09,0,.13,0,.13-.13v-3a.21.21,0,0,1,.22-.22h1.41a.21.21,0,0,1,.22.22v3a.12.12,0,0,0,.13.13h1.68a.21.21,0,0,1,.22.22V5.7a.21.21,0,0,1-.22.22h-1.68a.12.12,0,0,0-.13.13v6c0,1.06.4,1.35,1.35,1.35h.46a.2.2,0,0,1,.22.22v1.27a.21.21,0,0,1-.22.22Z"/><path d="M103.31,12.34A8.25,8.25,0,0,1,103,9.68,8.17,8.17,0,0,1,103.29,7a4.43,4.43,0,0,1,8.27,0,9.18,9.18,0,0,1,.33,3,.21.21,0,0,1-.24.22H105a.12.12,0,0,0-.13.13,3.92,3.92,0,0,0,.18,1.28,2.6,2.6,0,0,0,2.66,1.83,3.47,3.47,0,0,0,2.71-1.17.22.22,0,0,1,.33,0l.9.81a.2.2,0,0,1,0,.31,5.13,5.13,0,0,1-4.12,1.8A4.07,4.07,0,0,1,103.31,12.34Zm6.56-3.56c.09,0,.13,0,.13-.13a3.71,3.71,0,0,0-.15-1.19,2.61,2.61,0,0,0-4.85,0,4,4,0,0,0-.15,1.19.12.12,0,0,0,.13.13Z"/><path d="M112.81,13.62a.23.23,0,0,1,0-.31l.91-1a.2.2,0,0,1,.3,0,5.1,5.1,0,0,0,3.26,1.21c1.54,0,2.31-.66,2.31-1.6s-.4-1.3-2-1.48l-1.12-.11c-2.07-.22-3.14-1.25-3.14-3,0-2,1.43-3.21,3.91-3.21a6.3,6.3,0,0,1,3.74,1.17.21.21,0,0,1,0,.3l-.75.95a.21.21,0,0,1-.31,0,5.54,5.54,0,0,0-2.84-.85c-1.32,0-2,.59-2,1.45s.51,1.27,2.07,1.43l1.1.11c2.13.2,3.17,1.27,3.17,3,0,2.07-1.5,3.45-4.25,3.45A6.55,6.55,0,0,1,112.81,13.62Z"/><path d="M126.23,13.62a.23.23,0,0,1,0-.31l.91-1a.2.2,0,0,1,.3,0,5.1,5.1,0,0,0,3.26,1.21c1.54,0,2.31-.66,2.31-1.6s-.4-1.3-2-1.48l-1.12-.11c-2.07-.22-3.14-1.25-3.14-3,0-2,1.43-3.21,3.91-3.21a6.3,6.3,0,0,1,3.74,1.17.21.21,0,0,1,.05.3l-.75.95a.21.21,0,0,1-.31,0,5.54,5.54,0,0,0-2.84-.85c-1.32,0-2,.59-2,1.45s.51,1.27,2.07,1.43l1.1.11c2.13.2,3.17,1.27,3.17,3,0,2.07-1.5,3.45-4.25,3.45A6.55,6.55,0,0,1,126.23,13.62Z"/><path d="M136.13,12.37a8,8,0,0,1-.35-2.69A7.92,7.92,0,0,1,136.13,7a4.47,4.47,0,0,1,8.32,0,7.92,7.92,0,0,1,.35,2.66,8,8,0,0,1-.35,2.69,4.47,4.47,0,0,1-8.32,0Zm6.54-.53a7.13,7.13,0,0,0,.24-2.16,6.91,6.91,0,0,0-.24-2.13,2.54,2.54,0,0,0-4.76,0,6.91,6.91,0,0,0-.24,2.13,7.13,7.13,0,0,0,.24,2.16,2.54,2.54,0,0,0,4.76,0Z"/><path d="M153.29,15a.21.21,0,0,1-.22-.22V8.58c0-1.69-.77-2.68-2.35-2.68a2.36,2.36,0,0,0-2.42,2.57v6.27a.21.21,0,0,1-.22.22h-1.41a.21.21,0,0,1-.22-.22V4.64a.21.21,0,0,1,.22-.22h1.41a.21.21,0,0,1,.22.22v1h0a3.35,3.35,0,0,1,3-1.43c2.29,0,3.65,1.56,3.65,4v6.6a.21.21,0,0,1-.22.22Z"/><path d="M160.75,7a4.08,4.08,0,0,1,4.16-2.84A4.22,4.22,0,0,1,168.52,6a.22.22,0,0,1-.07.31l-1,.79a.19.19,0,0,1-.3,0,2.59,2.59,0,0,0-2.27-1.14,2.28,2.28,0,0,0-2.35,1.65,6.85,6.85,0,0,0-.25,2.13,6.94,6.94,0,0,0,.25,2.16,2.28,2.28,0,0,0,2.35,1.65,2.6,2.6,0,0,0,2.27-1.15.19.19,0,0,1,.3,0l1,.79a.22.22,0,0,1,.07.31,4.22,4.22,0,0,1-3.61,1.78,4.09,4.09,0,0,1-4.16-2.83,9.08,9.08,0,0,1-.33-2.69A9,9,0,0,1,160.75,7Z"/><path d="M176.24,15a.21.21,0,0,1-.22-.22v-.92h0a3.47,3.47,0,0,1-3.13,1.38c-2,0-3.54-1-3.54-3.16s1.54-3.26,4.11-3.26h2.4c.09,0,.14,0,.14-.13V7.88c0-1.46-.58-2.07-2.54-2.07a4.12,4.12,0,0,0-2.55.75.2.2,0,0,1-.31,0l-.59-1a.24.24,0,0,1,0-.31,5.92,5.92,0,0,1,3.59-1c3,0,4.14,1,4.14,3.59v7a.21.21,0,0,1-.22.22ZM176,11.55V10.38a.12.12,0,0,0-.14-.13h-2.11c-1.83,0-2.62.53-2.62,1.72s.79,1.65,2.2,1.65C175,13.62,176,12.85,176,11.55Z"/><path d="M186.58,15a.21.21,0,0,1-.22-.22v-1h0a3.22,3.22,0,0,1-2.89,1.45c-2.3,0-3.65-1.58-3.65-4V4.64a.21.21,0,0,1,.22-.22h1.41a.21.21,0,0,1,.22.22v6.14c0,1.72.77,2.71,2.33,2.71a2.34,2.34,0,0,0,2.38-2.6V4.64a.21.21,0,0,1,.22-.22H188a.21.21,0,0,1,.22.22v10.1A.21.21,0,0,1,188,15Z"/><path d="M189.77,13.62a.21.21,0,0,1,0-.31l.9-1a.21.21,0,0,1,.31,0,5.07,5.07,0,0,0,3.25,1.21c1.54,0,2.32-.66,2.32-1.6s-.4-1.3-2.05-1.48l-1.12-.11c-2.07-.22-3.15-1.25-3.15-3,0-2,1.43-3.21,3.92-3.21a6.3,6.3,0,0,1,3.74,1.17c.11.06.11.19,0,.3l-.75.95a.2.2,0,0,1-.3,0A5.6,5.6,0,0,0,194,5.79c-1.32,0-2,.59-2,1.45s.51,1.27,2.07,1.43l1.1.11c2.14.2,3.17,1.27,3.17,3,0,2.07-1.49,3.45-4.25,3.45A6.54,6.54,0,0,1,189.77,13.62Z"/><path d="M206.33,15a.2.2,0,0,1-.21-.22v-.92h0A3.45,3.45,0,0,1,203,15.2c-2,0-3.54-1-3.54-3.16s1.54-3.26,4.11-3.26h2.4c.09,0,.13,0,.13-.13V7.88c0-1.46-.57-2.07-2.53-2.07a4.07,4.07,0,0,0-2.55.75.2.2,0,0,1-.31,0l-.59-1a.23.23,0,0,1,0-.31,5.88,5.88,0,0,1,3.59-1c3,0,4.13,1,4.13,3.59v7a.2.2,0,0,1-.22.22Zm-.26-3.41V10.38a.12.12,0,0,0-.13-.13h-2.11c-1.83,0-2.62.53-2.62,1.72s.79,1.65,2.2,1.65C205.06,13.62,206.07,12.85,206.07,11.55Z"/><path d="M216.65,15a.21.21,0,0,1-.22-.22v-1h0a3.2,3.2,0,0,1-3,1.47,3.47,3.47,0,0,1-3.63-2.53,8.62,8.62,0,0,1-.38-3,8.61,8.61,0,0,1,.38-3,3.48,3.48,0,0,1,3.63-2.53,3.21,3.21,0,0,1,3,1.45h0V.22a.21.21,0,0,1,.22-.22h1.41a.21.21,0,0,1,.22.22V14.74a.21.21,0,0,1-.22.22Zm-.46-3.08a6.63,6.63,0,0,0,.24-2.2,6.79,6.79,0,0,0-.24-2.2,2.49,2.49,0,0,0-4.64,0,7.39,7.39,0,0,0-.24,2.2,7.18,7.18,0,0,0,.24,2.2,2.48,2.48,0,0,0,4.64,0Z"/><path d="M220.28,12.37a8,8,0,0,1-.35-2.69A7.92,7.92,0,0,1,220.28,7a4.47,4.47,0,0,1,8.32,0A7.92,7.92,0,0,1,229,9.68a8,8,0,0,1-.35,2.69,4.47,4.47,0,0,1-8.32,0Zm6.54-.53a7.13,7.13,0,0,0,.24-2.16,6.91,6.91,0,0,0-.24-2.13,2.54,2.54,0,0,0-4.76,0,6.91,6.91,0,0,0-.24,2.13,7.13,7.13,0,0,0,.24,2.16,2.54,2.54,0,0,0,4.76,0Z"/><path d="M229.87,13.62a.23.23,0,0,1,0-.31l.91-1a.2.2,0,0,1,.3,0,5.1,5.1,0,0,0,3.26,1.21c1.54,0,2.31-.66,2.31-1.6s-.4-1.3-2.05-1.48l-1.12-.11c-2.07-.22-3.14-1.25-3.14-3,0-2,1.43-3.21,3.91-3.21A6.3,6.3,0,0,1,238,5.35a.21.21,0,0,1,0,.3l-.75.95a.21.21,0,0,1-.31,0,5.54,5.54,0,0,0-2.84-.85c-1.32,0-2,.59-2,1.45s.51,1.27,2.07,1.43l1.1.11c2.13.2,3.17,1.27,3.17,3,0,2.07-1.5,3.45-4.25,3.45A6.55,6.55,0,0,1,229.87,13.62Z"/><path d="M244.24,18.92a.21.21,0,0,1-.22-.22V4.64a.21.21,0,0,1,.22-.22h1.41a.21.21,0,0,1,.22.22v1h0a3.21,3.21,0,0,1,3-1.45,3.48,3.48,0,0,1,3.63,2.53,8.61,8.61,0,0,1,.38,3,8.62,8.62,0,0,1-.38,3,3.47,3.47,0,0,1-3.63,2.53,3.2,3.2,0,0,1-3-1.47h0v5a.21.21,0,0,1-.22.22Zm6.51-7a7.18,7.18,0,0,0,.24-2.2,7.39,7.39,0,0,0-.24-2.2,2.49,2.49,0,0,0-4.64,0,6.79,6.79,0,0,0-.24,2.2,6.63,6.63,0,0,0,.24,2.2,2.48,2.48,0,0,0,4.64,0Z"/><path d="M254.25,12.37a8,8,0,0,1-.35-2.69A7.92,7.92,0,0,1,254.25,7a4.47,4.47,0,0,1,8.32,0,7.92,7.92,0,0,1,.35,2.66,8,8,0,0,1-.35,2.69,4.47,4.47,0,0,1-8.32,0Zm6.53-.53A6.77,6.77,0,0,0,261,9.68a6.57,6.57,0,0,0-.25-2.13,2.53,2.53,0,0,0-4.75,0,6.91,6.91,0,0,0-.24,2.13,7.13,7.13,0,0,0,.24,2.16,2.53,2.53,0,0,0,4.75,0Z"/><path d="M264.79,15a.2.2,0,0,1-.22-.22V4.64a.2.2,0,0,1,.22-.22h1.41a.2.2,0,0,1,.21.22V5.72h0a2.93,2.93,0,0,1,2.79-1.54,3.26,3.26,0,0,1,2.16.79c.11.11.13.2,0,.31l-.81,1.08a.2.2,0,0,1-.31,0,2.93,2.93,0,0,0-1.63-.5c-1.61,0-2.27,1.25-2.27,3.08v5.76a.2.2,0,0,1-.21.22Z"/><path d="M278.76,15.07c-1.85,0-2.58-.88-2.58-2.77V.22A.21.21,0,0,1,276.4,0h1.41a.21.21,0,0,1,.22.22v12c0,.88.33,1.17,1.06,1.17h.41a.21.21,0,0,1,.23.22v1.27a.21.21,0,0,1-.23.22Z"/><path d="M287.38,15a.21.21,0,0,1-.22-.22v-.92h0A3.47,3.47,0,0,1,284,15.2c-2,0-3.54-1-3.54-3.16s1.54-3.26,4.12-3.26H287c.09,0,.14,0,.14-.13V7.88c0-1.46-.57-2.07-2.53-2.07a4.13,4.13,0,0,0-2.56.75c-.11.08-.24.08-.3,0l-.6-1a.24.24,0,0,1,.05-.31,5.87,5.87,0,0,1,3.58-1c3,0,4.14,1,4.14,3.59v7a.21.21,0,0,1-.22.22Zm-.26-3.41V10.38a.12.12,0,0,0-.14-.13h-2.11c-1.82,0-2.62.53-2.62,1.72s.8,1.65,2.2,1.65C286.1,13.62,287.12,12.85,287.12,11.55Z"/><path d="M295.63,15a.21.21,0,0,1-.22-.22V6.05c0-.09,0-.13-.13-.13h-.9a.2.2,0,0,1-.22-.22V4.64a.2.2,0,0,1,.22-.22h.9c.09,0,.13,0,.13-.13v-.9c0-2.49,1-3.39,3.21-3.39h.82a.21.21,0,0,1,.22.22V1.5a.21.21,0,0,1-.22.22h-.58c-1.34,0-1.6.28-1.6,1.58v1c0,.09,0,.13.13.13h2.05a.21.21,0,0,1,.22.22V5.7a.21.21,0,0,1-.22.22h-2.05c-.09,0-.13,0-.13.13v8.69A.21.21,0,0,1,297,15Z"/><path d="M307.11,15a.2.2,0,0,1-.21-.22v-.92h0a3.45,3.45,0,0,1-3.12,1.38c-2,0-3.54-1-3.54-3.16s1.54-3.26,4.11-3.26h2.4c.09,0,.13,0,.13-.13V7.88c0-1.46-.57-2.07-2.53-2.07a4.07,4.07,0,0,0-2.55.75.2.2,0,0,1-.31,0l-.59-1a.23.23,0,0,1,0-.31,5.88,5.88,0,0,1,3.59-1c3,0,4.13,1,4.13,3.59v7a.2.2,0,0,1-.22.22Zm-.26-3.41V10.38a.12.12,0,0,0-.13-.13h-2.11c-1.83,0-2.62.53-2.62,1.72s.79,1.65,2.2,1.65C305.84,13.62,306.85,12.85,306.85,11.55Z"/><path d="M313.36,15.07c-1.85,0-2.57-.88-2.57-2.77V.22A.21.21,0,0,1,311,0h1.41a.21.21,0,0,1,.22.22v12c0,.88.33,1.17,1.05,1.17h.42a.2.2,0,0,1,.22.22v1.27a.21.21,0,0,1-.22.22Z"/><path d="M318.55,15.07c-2,0-2.83-.92-2.83-3v-6c0-.09-.05-.13-.14-.13h-.88a.21.21,0,0,1-.22-.22V4.64a.21.21,0,0,1,.22-.22h.88c.09,0,.14,0,.14-.13v-3a.2.2,0,0,1,.22-.22h1.4a.2.2,0,0,1,.22.22v3c0,.09.05.13.14.13h1.67a.21.21,0,0,1,.22.22V5.7a.21.21,0,0,1-.22.22H317.7c-.09,0-.14,0-.14.13v6c0,1.06.4,1.35,1.35,1.35h.46a.2.2,0,0,1,.22.22v1.27a.21.21,0,0,1-.22.22Z"/><path d="M327.51,15a.21.21,0,0,1-.22-.22v-.92h0a3.47,3.47,0,0,1-3.13,1.38c-2,0-3.54-1-3.54-3.16s1.54-3.26,4.11-3.26h2.4c.09,0,.13,0,.13-.13V7.88c0-1.46-.57-2.07-2.53-2.07a4.12,4.12,0,0,0-2.55.75.2.2,0,0,1-.31,0l-.59-1a.24.24,0,0,1,0-.31,5.92,5.92,0,0,1,3.59-1c3,0,4.14,1,4.14,3.59v7a.21.21,0,0,1-.22.22Zm-.27-3.41V10.38a.12.12,0,0,0-.13-.13H325c-1.83,0-2.62.53-2.62,1.72s.79,1.65,2.2,1.65C326.23,13.62,327.24,12.85,327.24,11.55Z"/><path d="M341.79,15a.2.2,0,0,1-.22-.22v-1h0a3.18,3.18,0,0,1-3,1.47,3.48,3.48,0,0,1-3.63-2.53,8.9,8.9,0,0,1-.37-3,8.89,8.89,0,0,1,.37-3,3.49,3.49,0,0,1,3.63-2.53,3.19,3.19,0,0,1,3,1.45h0V.22a.2.2,0,0,1,.22-.22h1.4a.2.2,0,0,1,.22.22V14.74a.2.2,0,0,1-.22.22Zm-.47-3.08a6.58,6.58,0,0,0,.25-2.2,6.73,6.73,0,0,0-.25-2.2,2.49,2.49,0,0,0-4.64,0,7.74,7.74,0,0,0-.24,2.2,7.51,7.51,0,0,0,.24,2.2,2.48,2.48,0,0,0,4.64,0Z"/><path d="M345.41,12.34a8.54,8.54,0,0,1-.35-2.66A8.17,8.17,0,0,1,345.39,7a4.44,4.44,0,0,1,8.28,0,9.18,9.18,0,0,1,.33,3c0,.14-.09.22-.25.22h-6.66a.12.12,0,0,0-.13.13,4,4,0,0,0,.17,1.28,2.61,2.61,0,0,0,2.66,1.83,3.44,3.44,0,0,0,2.71-1.17.22.22,0,0,1,.33,0l.9.81a.2.2,0,0,1,0,.31,5.09,5.09,0,0,1-4.11,1.8A4.09,4.09,0,0,1,345.41,12.34ZM352,8.78c.09,0,.13,0,.13-.13A3.71,3.71,0,0,0,352,7.46a2.6,2.6,0,0,0-4.84,0A3.71,3.71,0,0,0,347,8.65c0,.09,0,.13.13.13Z"/><path d="M359.3,7a4.07,4.07,0,0,1,4.16-2.84A4.22,4.22,0,0,1,367.06,6c.07.11.07.2-.06.31l-1,.79a.2.2,0,0,1-.31,0,2.58,2.58,0,0,0-2.26-1.14,2.29,2.29,0,0,0-2.36,1.65,6.89,6.89,0,0,0-.24,2.13,7,7,0,0,0,.24,2.16,2.29,2.29,0,0,0,2.36,1.65,2.59,2.59,0,0,0,2.26-1.15.2.2,0,0,1,.31,0l1,.79c.13.11.13.2.06.31a4.22,4.22,0,0,1-3.6,1.78,4.08,4.08,0,0,1-4.16-2.83A9.08,9.08,0,0,1,359,9.68,9,9,0,0,1,359.3,7Z"/><path d="M374.79,15a.2.2,0,0,1-.22-.22v-.92h0a3.44,3.44,0,0,1-3.12,1.38c-2,0-3.54-1-3.54-3.16s1.54-3.26,4.11-3.26h2.4c.09,0,.13,0,.13-.13V7.88c0-1.46-.57-2.07-2.53-2.07a4.09,4.09,0,0,0-2.55.75.2.2,0,0,1-.31,0l-.59-1a.23.23,0,0,1,0-.31,5.88,5.88,0,0,1,3.59-1c3,0,4.13,1,4.13,3.59v7a.2.2,0,0,1-.22.22Zm-.27-3.41V10.38a.12.12,0,0,0-.13-.13h-2.11c-1.83,0-2.62.53-2.62,1.72s.79,1.65,2.2,1.65C373.51,13.62,374.52,12.85,374.52,11.55Z"/><path d="M378.72,18.92a.21.21,0,0,1-.22-.22V4.64a.21.21,0,0,1,.22-.22h1.41a.21.21,0,0,1,.22.22v1h0a3.22,3.22,0,0,1,3-1.45A3.49,3.49,0,0,1,387,6.71a8.89,8.89,0,0,1,.37,3,8.9,8.9,0,0,1-.37,3,3.48,3.48,0,0,1-3.63,2.53,3.21,3.21,0,0,1-3-1.47h0v5a.21.21,0,0,1-.22.22Zm6.51-7a7.14,7.14,0,0,0,.25-2.2,7.35,7.35,0,0,0-.25-2.2,2.49,2.49,0,0,0-4.64,0,7.08,7.08,0,0,0-.24,2.2,6.92,6.92,0,0,0,.24,2.2,2.48,2.48,0,0,0,4.64,0Z"/><path d="M395.4,15a.21.21,0,0,1-.22-.22v-.92h0A3.47,3.47,0,0,1,392,15.2c-2,0-3.54-1-3.54-3.16S390,8.78,392.6,8.78H395c.09,0,.14,0,.14-.13V7.88c0-1.46-.58-2.07-2.54-2.07a4.12,4.12,0,0,0-2.55.75.2.2,0,0,1-.31,0l-.59-1a.24.24,0,0,1,0-.31,5.92,5.92,0,0,1,3.59-1c3,0,4.14,1,4.14,3.59v7a.21.21,0,0,1-.22.22Zm-.26-3.41V10.38a.12.12,0,0,0-.14-.13h-2.11c-1.83,0-2.62.53-2.62,1.72s.79,1.65,2.2,1.65C394.12,13.62,395.14,12.85,395.14,11.55Z"/><path d="M398.81,7A4.07,4.07,0,0,1,403,4.18,4.24,4.24,0,0,1,406.58,6a.22.22,0,0,1-.07.31l-1,.79a.2.2,0,0,1-.31,0A2.58,2.58,0,0,0,403,5.9a2.29,2.29,0,0,0-2.36,1.65,7.21,7.21,0,0,0-.24,2.13,7.3,7.3,0,0,0,.24,2.16A2.29,2.29,0,0,0,403,13.49a2.59,2.59,0,0,0,2.26-1.15.2.2,0,0,1,.31,0l1,.79a.22.22,0,0,1,.07.31A4.24,4.24,0,0,1,403,15.2a4.08,4.08,0,0,1-4.16-2.83,9.08,9.08,0,0,1-.33-2.69A9,9,0,0,1,398.81,7Z"/><path d="M408.36,2.05a.2.2,0,0,1-.22-.22V.22a.2.2,0,0,1,.22-.22h1.49a.21.21,0,0,1,.22.22V1.83a.21.21,0,0,1-.22.22Zm0,12.91a.21.21,0,0,1-.22-.22V4.64a.21.21,0,0,1,.22-.22h1.41a.21.21,0,0,1,.22.22v10.1a.21.21,0,0,1-.22.22Z"/><path d="M418.92,15a.21.21,0,0,1-.22-.22v-1h0a3.18,3.18,0,0,1-3,1.47,3.48,3.48,0,0,1-3.63-2.53,8.9,8.9,0,0,1-.37-3,8.89,8.89,0,0,1,.37-3,3.49,3.49,0,0,1,3.63-2.53,3.19,3.19,0,0,1,3,1.45h0V.22a.21.21,0,0,1,.22-.22h1.4a.21.21,0,0,1,.23.22V14.74a.21.21,0,0,1-.23.22Zm-.46-3.08a6.92,6.92,0,0,0,.24-2.2,7.08,7.08,0,0,0-.24-2.2,2.5,2.5,0,0,0-4.65,0,7.74,7.74,0,0,0-.24,2.2,7.51,7.51,0,0,0,.24,2.2,2.48,2.48,0,0,0,4.65,0Z"/><path d="M429.21,15a.21.21,0,0,1-.22-.22v-.92h0a3.45,3.45,0,0,1-3.12,1.38c-2,0-3.55-1-3.55-3.16s1.54-3.26,4.12-3.26h2.4a.12.12,0,0,0,.13-.13V7.88c0-1.46-.57-2.07-2.53-2.07a4.07,4.07,0,0,0-2.55.75.2.2,0,0,1-.31,0l-.6-1a.24.24,0,0,1,.05-.31,5.87,5.87,0,0,1,3.58-1c3,0,4.14,1,4.14,3.59v7a.21.21,0,0,1-.22.22ZM429,11.55V10.38a.12.12,0,0,0-.13-.13H426.7c-1.82,0-2.61.53-2.61,1.72s.79,1.65,2.2,1.65C427.94,13.62,429,12.85,429,11.55Z"/><path d="M439.53,15a.21.21,0,0,1-.22-.22v-1h0a3.2,3.2,0,0,1-3,1.47,3.47,3.47,0,0,1-3.63-2.53,8.62,8.62,0,0,1-.38-3,8.61,8.61,0,0,1,.38-3,3.48,3.48,0,0,1,3.63-2.53,3.21,3.21,0,0,1,3,1.45h0V.22a.21.21,0,0,1,.22-.22h1.41a.21.21,0,0,1,.22.22V14.74a.21.21,0,0,1-.22.22Zm-.46-3.08a6.92,6.92,0,0,0,.24-2.2,7.08,7.08,0,0,0-.24-2.2,2.49,2.49,0,0,0-4.64,0,7.35,7.35,0,0,0-.25,2.2,7.14,7.14,0,0,0,.25,2.2,2.48,2.48,0,0,0,4.64,0Z"/><path d="M454,15a.21.21,0,0,1-.22-.22v-1h0a3.18,3.18,0,0,1-3,1.47,3.48,3.48,0,0,1-3.63-2.53,8.9,8.9,0,0,1-.37-3,8.89,8.89,0,0,1,.37-3,3.49,3.49,0,0,1,3.63-2.53,3.19,3.19,0,0,1,3,1.45h0V.22A.21.21,0,0,1,454,0h1.4a.21.21,0,0,1,.23.22V14.74a.21.21,0,0,1-.23.22Zm-.46-3.08a6.92,6.92,0,0,0,.24-2.2,7.08,7.08,0,0,0-.24-2.2,2.5,2.5,0,0,0-4.65,0,7.74,7.74,0,0,0-.24,2.2,7.51,7.51,0,0,0,.24,2.2,2.48,2.48,0,0,0,4.65,0Z"/><path d="M457.64,12.34a8.2,8.2,0,0,1-.36-2.66A8.17,8.17,0,0,1,457.61,7a4.44,4.44,0,0,1,8.28,0,9.18,9.18,0,0,1,.33,3,.21.21,0,0,1-.24.22h-6.67a.12.12,0,0,0-.13.13,4,4,0,0,0,.17,1.28A2.61,2.61,0,0,0,462,13.49a3.44,3.44,0,0,0,2.71-1.17.22.22,0,0,1,.33,0l.9.81a.21.21,0,0,1,0,.31,5.13,5.13,0,0,1-4.12,1.8A4.07,4.07,0,0,1,457.64,12.34Zm6.55-3.56c.09,0,.13,0,.13-.13a3.71,3.71,0,0,0-.15-1.19,2.6,2.6,0,0,0-4.84,0,3.71,3.71,0,0,0-.15,1.19c0,.09,0,.13.13.13Z"/><path d="M470.4,15.07c-1.85,0-2.58-.88-2.58-2.77V.22A.21.21,0,0,1,468,0h1.41a.21.21,0,0,1,.22.22v12c0,.88.33,1.17,1.06,1.17h.41a.2.2,0,0,1,.22.22v1.27a.2.2,0,0,1-.22.22Z"/><path d="M476.82,18.92a.21.21,0,0,1-.22-.22V4.64a.21.21,0,0,1,.22-.22h1.41a.21.21,0,0,1,.22.22v1h0a3.21,3.21,0,0,1,3-1.45,3.48,3.48,0,0,1,3.63,2.53,8.61,8.61,0,0,1,.38,3,8.62,8.62,0,0,1-.38,3,3.47,3.47,0,0,1-3.63,2.53,3.2,3.2,0,0,1-3-1.47h0v5a.21.21,0,0,1-.22.22Zm6.51-7a7.18,7.18,0,0,0,.24-2.2,7.39,7.39,0,0,0-.24-2.2,2.49,2.49,0,0,0-4.64,0,6.79,6.79,0,0,0-.24,2.2,6.63,6.63,0,0,0,.24,2.2,2.48,2.48,0,0,0,4.64,0Z"/><path d="M486.83,12.34a8.25,8.25,0,0,1-.35-2.66A8.17,8.17,0,0,1,486.81,7a4.43,4.43,0,0,1,8.27,0,9.18,9.18,0,0,1,.33,3,.21.21,0,0,1-.24.22H488.5a.12.12,0,0,0-.13.13,3.92,3.92,0,0,0,.18,1.28,2.6,2.6,0,0,0,2.66,1.83,3.43,3.43,0,0,0,2.7-1.17.22.22,0,0,1,.33,0l.91.81a.2.2,0,0,1,0,.31,5.13,5.13,0,0,1-4.12,1.8A4.07,4.07,0,0,1,486.83,12.34Zm6.56-3.56a.12.12,0,0,0,.13-.13,3.68,3.68,0,0,0-.16-1.19,2.6,2.6,0,0,0-4.84,0,3.71,3.71,0,0,0-.15,1.19c0,.09,0,.13.13.13Z"/><path d="M497.28,15a.21.21,0,0,1-.22-.22V4.64a.21.21,0,0,1,.22-.22h1.41a.21.21,0,0,1,.22.22V5.72h0a2.93,2.93,0,0,1,2.79-1.54,3.26,3.26,0,0,1,2.16.79c.11.11.13.2,0,.31l-.81,1.08a.2.2,0,0,1-.31,0,2.93,2.93,0,0,0-1.63-.5c-1.6,0-2.26,1.25-2.26,3.08v5.76a.21.21,0,0,1-.22.22Z"/><path d="M503.86,13.62a.21.21,0,0,1,0-.31l.9-1a.21.21,0,0,1,.31,0,5.07,5.07,0,0,0,3.25,1.21c1.54,0,2.31-.66,2.31-1.6s-.39-1.3-2-1.48l-1.13-.11c-2.06-.22-3.14-1.25-3.14-3,0-2,1.43-3.21,3.91-3.21A6.34,6.34,0,0,1,512,5.35a.22.22,0,0,1,0,.3l-.75.95a.21.21,0,0,1-.31,0,5.54,5.54,0,0,0-2.84-.85c-1.32,0-2,.59-2,1.45s.51,1.27,2.07,1.43l1.1.11c2.14.2,3.17,1.27,3.17,3,0,2.07-1.5,3.45-4.25,3.45A6.52,6.52,0,0,1,503.86,13.62Z"/><path d="M513.76,12.37a7.75,7.75,0,0,1-.36-2.69A7.64,7.64,0,0,1,513.76,7a4.46,4.46,0,0,1,8.31,0,7.88,7.88,0,0,1,.36,2.66,8,8,0,0,1-.36,2.69,4.47,4.47,0,0,1-8.31,0Zm6.53-.53a6.82,6.82,0,0,0,.24-2.16,6.61,6.61,0,0,0-.24-2.13,2.53,2.53,0,0,0-4.75,0,6.61,6.61,0,0,0-.24,2.13,6.82,6.82,0,0,0,.24,2.16,2.53,2.53,0,0,0,4.75,0Z"/><path d="M530.92,15a.2.2,0,0,1-.22-.22V8.58c0-1.69-.77-2.68-2.36-2.68a2.36,2.36,0,0,0-2.42,2.57v6.27a.21.21,0,0,1-.22.22h-1.41a.21.21,0,0,1-.22-.22V4.64a.21.21,0,0,1,.22-.22h1.41a.21.21,0,0,1,.22.22v1h0a3.35,3.35,0,0,1,2.95-1.43c2.29,0,3.66,1.56,3.66,4v6.6a.21.21,0,0,1-.23.22Z"/><path d="M541.1,15a.21.21,0,0,1-.22-.22v-.92h0a3.45,3.45,0,0,1-3.12,1.38c-2,0-3.55-1-3.55-3.16s1.54-3.26,4.12-3.26h2.4a.12.12,0,0,0,.13-.13V7.88c0-1.46-.57-2.07-2.53-2.07a4.07,4.07,0,0,0-2.55.75.2.2,0,0,1-.31,0l-.6-1a.24.24,0,0,1,0-.31,5.87,5.87,0,0,1,3.58-1c3,0,4.14,1,4.14,3.59v7a.21.21,0,0,1-.22.22Zm-.26-3.41V10.38a.12.12,0,0,0-.13-.13h-2.12c-1.82,0-2.61.53-2.61,1.72s.79,1.65,2.2,1.65C539.83,13.62,540.84,12.85,540.84,11.55Z"/><path d="M547.35,15.07c-1.85,0-2.57-.88-2.57-2.77V.22A.2.2,0,0,1,545,0h1.4a.2.2,0,0,1,.22.22v12c0,.88.33,1.17,1.06,1.17h.42a.2.2,0,0,1,.22.22v1.27a.21.21,0,0,1-.22.22Z"/><path d="M560.15,15a.21.21,0,0,1-.22-.22v-1h0a3.19,3.19,0,0,1-3,1.47,3.47,3.47,0,0,1-3.63-2.53,8.62,8.62,0,0,1-.38-3,8.61,8.61,0,0,1,.38-3,3.48,3.48,0,0,1,3.63-2.53,3.2,3.2,0,0,1,3,1.45h0V.22a.21.21,0,0,1,.22-.22h1.41a.21.21,0,0,1,.22.22V14.74a.21.21,0,0,1-.22.22Zm-.46-3.08a6.63,6.63,0,0,0,.24-2.2,6.79,6.79,0,0,0-.24-2.2,2.49,2.49,0,0,0-4.64,0,7.39,7.39,0,0,0-.24,2.2,7.18,7.18,0,0,0,.24,2.2,2.48,2.48,0,0,0,4.64,0Z"/><path d="M563.78,12.34a8.25,8.25,0,0,1-.35-2.66A8.17,8.17,0,0,1,563.76,7,4.43,4.43,0,0,1,572,7a9.18,9.18,0,0,1,.33,3c0,.14-.08.22-.24.22h-6.66a.12.12,0,0,0-.14.13,3.92,3.92,0,0,0,.18,1.28,2.6,2.6,0,0,0,2.66,1.83,3.44,3.44,0,0,0,2.71-1.17.22.22,0,0,1,.33,0l.9.81a.2.2,0,0,1,0,.31A5.09,5.09,0,0,1,568,15.2,4.08,4.08,0,0,1,563.78,12.34Zm6.56-3.56c.09,0,.13,0,.13-.13a3.71,3.71,0,0,0-.15-1.19,2.6,2.6,0,0,0-4.84,0,3.68,3.68,0,0,0-.16,1.19c0,.09,0,.13.14.13Z"/><path d="M577.69,12.34a8.2,8.2,0,0,1-.36-2.66A8.17,8.17,0,0,1,577.66,7a4.44,4.44,0,0,1,8.28,0,9.18,9.18,0,0,1,.33,3,.21.21,0,0,1-.24.22h-6.67a.12.12,0,0,0-.13.13,4,4,0,0,0,.17,1.28,2.61,2.61,0,0,0,2.66,1.83,3.44,3.44,0,0,0,2.71-1.17.22.22,0,0,1,.33,0l.9.81a.21.21,0,0,1,0,.31,5.13,5.13,0,0,1-4.12,1.8A4.07,4.07,0,0,1,577.69,12.34Zm6.55-3.56c.09,0,.14,0,.14-.13a3.68,3.68,0,0,0-.16-1.19,2.6,2.6,0,0,0-4.84,0,3.71,3.71,0,0,0-.15,1.19c0,.09,0,.13.13.13Z"/><path d="M594.76,15a.21.21,0,0,1-.22-.22V8.58c0-1.69-.77-2.68-2.36-2.68a2.36,2.36,0,0,0-2.42,2.57v6.27a.2.2,0,0,1-.22.22h-1.4a.2.2,0,0,1-.22-.22V4.64a.2.2,0,0,1,.22-.22h1.4a.2.2,0,0,1,.22.22v1h0a3.33,3.33,0,0,1,2.94-1.43c2.29,0,3.66,1.56,3.66,4v6.6a.21.21,0,0,1-.22.22Z"/><path d="M599.14,15a.2.2,0,0,1-.22-.22V6.05c0-.09,0-.13-.14-.13h-.9a.21.21,0,0,1-.22-.22V4.64a.21.21,0,0,1,.22-.22h.9c.09,0,.14,0,.14-.13v-.9c0-2.49,1-3.39,3.21-3.39h.81a.21.21,0,0,1,.22.22V1.5a.21.21,0,0,1-.22.22h-.57c-1.34,0-1.61.28-1.61,1.58v1c0,.09,0,.13.14.13h2a.21.21,0,0,1,.22.22V5.7a.21.21,0,0,1-.22.22h-2c-.09,0-.14,0-.14.13v8.69a.2.2,0,0,1-.22.22Z"/><path d="M603.91,12.37a8,8,0,0,1-.35-2.69A7.92,7.92,0,0,1,603.91,7a4.47,4.47,0,0,1,8.32,0,7.92,7.92,0,0,1,.35,2.66,8,8,0,0,1-.35,2.69,4.47,4.47,0,0,1-8.32,0Zm6.54-.53a7.13,7.13,0,0,0,.24-2.16,6.91,6.91,0,0,0-.24-2.13,2.54,2.54,0,0,0-4.76,0,6.91,6.91,0,0,0-.24,2.13,7.13,7.13,0,0,0,.24,2.16,2.54,2.54,0,0,0,4.76,0Z"/><path d="M613.92,7a4.07,4.07,0,0,1,4.16-2.84A4.24,4.24,0,0,1,621.69,6a.22.22,0,0,1-.07.31l-1,.79a.2.2,0,0,1-.31,0,2.58,2.58,0,0,0-2.26-1.14,2.29,2.29,0,0,0-2.36,1.65,7.21,7.21,0,0,0-.24,2.13,7.3,7.3,0,0,0,.24,2.16,2.29,2.29,0,0,0,2.36,1.65,2.59,2.59,0,0,0,2.26-1.15.2.2,0,0,1,.31,0l1,.79a.22.22,0,0,1,.07.31,4.24,4.24,0,0,1-3.61,1.78,4.08,4.08,0,0,1-4.16-2.83,9.08,9.08,0,0,1-.33-2.69A9,9,0,0,1,613.92,7Z"/><path d="M629.41,15a.21.21,0,0,1-.22-.22v-.92h0A3.47,3.47,0,0,1,626,15.2c-2,0-3.54-1-3.54-3.16s1.54-3.26,4.11-3.26H629c.09,0,.14,0,.14-.13V7.88c0-1.46-.58-2.07-2.54-2.07a4.12,4.12,0,0,0-2.55.75.2.2,0,0,1-.31,0l-.59-1a.24.24,0,0,1,0-.31,5.92,5.92,0,0,1,3.59-1c3,0,4.14,1,4.14,3.59v7a.21.21,0,0,1-.22.22Zm-.26-3.41V10.38a.12.12,0,0,0-.14-.13H626.9c-1.83,0-2.62.53-2.62,1.72s.79,1.65,2.2,1.65C628.13,13.62,629.15,12.85,629.15,11.55Z"/><path d="M633.35,15a.2.2,0,0,1-.22-.22V4.64a.2.2,0,0,1,.22-.22h1.4a.2.2,0,0,1,.22.22V5.72h0a2.93,2.93,0,0,1,2.79-1.54A3.26,3.26,0,0,1,640,5c.11.11.13.2,0,.31l-.81,1.08a.2.2,0,0,1-.31,0,3,3,0,0,0-1.63-.5C635.63,5.9,635,7.15,635,9v5.76a.2.2,0,0,1-.22.22Z"/><path d="M.07,41.62a.21.21,0,0,1,0-.31l.9-1a.21.21,0,0,1,.31,0,5.07,5.07,0,0,0,3.25,1.21c1.54,0,2.31-.66,2.31-1.6s-.39-1.3-2-1.48l-1.13-.11c-2.06-.22-3.14-1.25-3.14-3,0-2,1.43-3.21,3.91-3.21a6.34,6.34,0,0,1,3.75,1.17c.11.06.11.19,0,.3l-.75,1a.21.21,0,0,1-.31,0,5.54,5.54,0,0,0-2.84-.85c-1.32,0-2,.59-2,1.45s.51,1.27,2.07,1.43l1.1.11c2.14.2,3.17,1.27,3.17,3,0,2.07-1.5,3.45-4.25,3.45A6.52,6.52,0,0,1,.07,41.62Z"/><path d="M16.88,43a.21.21,0,0,1-.23-.22v-1h0a3.21,3.21,0,0,1-2.88,1.45c-2.31,0-3.65-1.58-3.65-4V32.64a.21.21,0,0,1,.22-.22h1.41a.21.21,0,0,1,.22.22v6.14c0,1.72.77,2.71,2.33,2.71a2.34,2.34,0,0,0,2.37-2.6V32.64a.21.21,0,0,1,.23-.22h1.4a.21.21,0,0,1,.22.22v10.1a.21.21,0,0,1-.22.22Z"/><path d="M31.13,43a.21.21,0,0,1-.22-.22v-.92h0a3.47,3.47,0,0,1-3.13,1.38c-2,0-3.54-1-3.54-3.16s1.54-3.26,4.12-3.26h2.39c.09,0,.14,0,.14-.13v-.77c0-1.46-.58-2.07-2.53-2.07a4.13,4.13,0,0,0-2.56.75c-.11.08-.24.08-.3,0l-.6-1a.23.23,0,0,1,.05-.31,5.87,5.87,0,0,1,3.58-1c3,0,4.14,1,4.14,3.59v7a.21.21,0,0,1-.22.22Zm-.26-3.41V38.38a.12.12,0,0,0-.14-.13H28.62C26.8,38.25,26,38.78,26,40s.8,1.65,2.2,1.65C29.85,41.62,30.87,40.85,30.87,39.55Z"/><path d="M37.91,43.07c-2,0-2.84-.92-2.84-3v-6a.12.12,0,0,0-.13-.13h-.88a.2.2,0,0,1-.22-.22V32.64a.2.2,0,0,1,.22-.22h.88a.12.12,0,0,0,.13-.13v-3a.21.21,0,0,1,.22-.22H36.7a.21.21,0,0,1,.22.22v3c0,.09,0,.13.13.13h1.67a.21.21,0,0,1,.22.22V33.7a.21.21,0,0,1-.22.22H37.05c-.09,0-.13,0-.13.13v6c0,1.06.39,1.35,1.34,1.35h.46a.2.2,0,0,1,.22.22v1.27a.21.21,0,0,1-.22.22Z"/><path d="M40.19,40.34a8.25,8.25,0,0,1-.35-2.66A8.17,8.17,0,0,1,40.17,35a4.08,4.08,0,0,1,4.14-2.84A4.07,4.07,0,0,1,48.44,35a9.18,9.18,0,0,1,.33,3c0,.14-.08.22-.24.22H41.87a.12.12,0,0,0-.14.13,3.92,3.92,0,0,0,.18,1.28,2.6,2.6,0,0,0,2.66,1.83,3.44,3.44,0,0,0,2.71-1.17.22.22,0,0,1,.33,0l.9.81a.2.2,0,0,1,0,.31,5.09,5.09,0,0,1-4.11,1.8A4.08,4.08,0,0,1,40.19,40.34Zm6.56-3.56c.09,0,.13,0,.13-.13a3.71,3.71,0,0,0-.15-1.19,2.6,2.6,0,0,0-4.84,0,3.68,3.68,0,0,0-.16,1.19c0,.09.05.13.14.13Z"/><path d="M57.27,43a.2.2,0,0,1-.22-.22V36.58c0-1.69-.77-2.68-2.36-2.68a2.36,2.36,0,0,0-2.42,2.57v6.27a.21.21,0,0,1-.22.22H50.64a.21.21,0,0,1-.22-.22V32.64a.21.21,0,0,1,.22-.22h1.41a.21.21,0,0,1,.22.22v1h0a3.35,3.35,0,0,1,3-1.43c2.29,0,3.65,1.56,3.65,4v6.6a.2.2,0,0,1-.22.22Z"/><path d="M60.76,35a4.09,4.09,0,0,1,4.16-2.84A4.22,4.22,0,0,1,68.53,34c.07.11.07.2-.07.31l-1,.79a.19.19,0,0,1-.3,0,2.59,2.59,0,0,0-2.27-1.14,2.28,2.28,0,0,0-2.35,1.65,6.85,6.85,0,0,0-.25,2.13,6.94,6.94,0,0,0,.25,2.16,2.28,2.28,0,0,0,2.35,1.65,2.6,2.6,0,0,0,2.27-1.15.19.19,0,0,1,.3,0l1,.79c.14.11.14.2.07.31a4.22,4.22,0,0,1-3.61,1.78,4.09,4.09,0,0,1-4.16-2.83,9.08,9.08,0,0,1-.33-2.69A9,9,0,0,1,60.76,35Z"/><path d="M70.31,30.05a.21.21,0,0,1-.22-.22V28.22a.21.21,0,0,1,.22-.22h1.5a.21.21,0,0,1,.22.22v1.61a.21.21,0,0,1-.22.22Zm0,12.91a.21.21,0,0,1-.22-.22V32.64a.21.21,0,0,1,.22-.22h1.41a.2.2,0,0,1,.22.22v10.1a.2.2,0,0,1-.22.22Z"/><path d="M74,40.37a8,8,0,0,1-.35-2.69A7.92,7.92,0,0,1,74,35a4.47,4.47,0,0,1,8.32,0,7.92,7.92,0,0,1,.35,2.66,8,8,0,0,1-.35,2.69,4.47,4.47,0,0,1-8.32,0Zm6.54-.53a7.13,7.13,0,0,0,.24-2.16,6.91,6.91,0,0,0-.24-2.13,2.53,2.53,0,0,0-4.75,0,6.57,6.57,0,0,0-.25,2.13,6.77,6.77,0,0,0,.25,2.16,2.53,2.53,0,0,0,4.75,0Zm-3.17-9.13c-.13,0-.2-.09-.13-.22l1.67-2.71a.4.4,0,0,1,.37-.22h1.46a.13.13,0,0,1,.11.22l-2,2.71a.44.44,0,0,1-.41.22Z"/><path d="M91.15,43a.21.21,0,0,1-.23-.22V36.58c0-1.69-.77-2.68-2.35-2.68a2.36,2.36,0,0,0-2.42,2.57v6.27a.21.21,0,0,1-.22.22H84.52a.21.21,0,0,1-.22-.22V32.64a.21.21,0,0,1,.22-.22h1.41a.21.21,0,0,1,.22.22v1h0a3.35,3.35,0,0,1,3-1.43c2.29,0,3.65,1.56,3.65,4v6.6a.21.21,0,0,1-.22.22Z"/><path d="M98.62,40.34a8.25,8.25,0,0,1-.35-2.66A8.17,8.17,0,0,1,98.6,35a4.43,4.43,0,0,1,8.27,0,9.18,9.18,0,0,1,.33,3c0,.14-.08.22-.24.22H100.3a.12.12,0,0,0-.14.13,3.92,3.92,0,0,0,.18,1.28A2.6,2.6,0,0,0,103,41.49a3.44,3.44,0,0,0,2.71-1.17.22.22,0,0,1,.33,0l.9.81a.2.2,0,0,1,0,.31,5.09,5.09,0,0,1-4.11,1.8A4.08,4.08,0,0,1,98.62,40.34Zm6.56-3.56c.09,0,.13,0,.13-.13a3.71,3.71,0,0,0-.15-1.19,2.6,2.6,0,0,0-4.84,0,3.68,3.68,0,0,0-.16,1.19c0,.09,0,.13.14.13Z"/><path d="M115.7,43a.2.2,0,0,1-.22-.22V36.58c0-1.69-.77-2.68-2.36-2.68a2.36,2.36,0,0,0-2.42,2.57v6.27a.21.21,0,0,1-.22.22h-1.41a.21.21,0,0,1-.22-.22V32.64a.21.21,0,0,1,.22-.22h1.41a.21.21,0,0,1,.22.22v1h0a3.35,3.35,0,0,1,3-1.43c2.29,0,3.65,1.56,3.65,4v6.6a.2.2,0,0,1-.22.22Z"/><path d="M130.06,43a.21.21,0,0,1-.22-.22v-1h0a3.2,3.2,0,0,1-3,1.47,3.47,3.47,0,0,1-3.63-2.53,8.62,8.62,0,0,1-.38-3,8.61,8.61,0,0,1,.38-3,3.48,3.48,0,0,1,3.63-2.53,3.21,3.21,0,0,1,3,1.45h0V28.22a.21.21,0,0,1,.22-.22h1.41a.21.21,0,0,1,.22.22V42.74a.21.21,0,0,1-.22.22Zm-.46-3.08a6.63,6.63,0,0,0,.24-2.2,6.79,6.79,0,0,0-.24-2.2,2.49,2.49,0,0,0-4.64,0,7.39,7.39,0,0,0-.24,2.2,7.18,7.18,0,0,0,.24,2.2,2.48,2.48,0,0,0,4.64,0Z"/><path d="M133.69,40.37a8,8,0,0,1-.35-2.69,7.92,7.92,0,0,1,.35-2.66A4.47,4.47,0,0,1,142,35a7.92,7.92,0,0,1,.35,2.66,8,8,0,0,1-.35,2.69,4.47,4.47,0,0,1-8.32,0Zm6.54-.53a7.13,7.13,0,0,0,.24-2.16,6.91,6.91,0,0,0-.24-2.13,2.54,2.54,0,0,0-4.76,0,6.91,6.91,0,0,0-.24,2.13,7.13,7.13,0,0,0,.24,2.16,2.54,2.54,0,0,0,4.76,0Z"/><path d="M143.28,41.62a.21.21,0,0,1,0-.31l.9-1a.21.21,0,0,1,.31,0,5.07,5.07,0,0,0,3.26,1.21c1.54,0,2.31-.66,2.31-1.6s-.4-1.3-2.05-1.48l-1.12-.11c-2.07-.22-3.15-1.25-3.15-3,0-2,1.43-3.21,3.92-3.21a6.3,6.3,0,0,1,3.74,1.17c.11.06.11.19,0,.3l-.74,1a.21.21,0,0,1-.31,0,5.54,5.54,0,0,0-2.84-.85c-1.32,0-2,.59-2,1.45s.5,1.27,2.07,1.43l1.1.11c2.13.2,3.17,1.27,3.17,3,0,2.07-1.5,3.45-4.25,3.45A6.55,6.55,0,0,1,143.28,41.62Z"/><path d="M157.12,35a4.07,4.07,0,0,1,4.16-2.84A4.24,4.24,0,0,1,164.89,34a.22.22,0,0,1-.07.31l-1,.79a.2.2,0,0,1-.31,0,2.58,2.58,0,0,0-2.26-1.14,2.29,2.29,0,0,0-2.36,1.65,7.21,7.21,0,0,0-.24,2.13,7.3,7.3,0,0,0,.24,2.16,2.29,2.29,0,0,0,2.36,1.65,2.59,2.59,0,0,0,2.26-1.15.2.2,0,0,1,.31,0l1,.79a.22.22,0,0,1,.07.31,4.24,4.24,0,0,1-3.61,1.78,4.08,4.08,0,0,1-4.16-2.83,9.08,9.08,0,0,1-.33-2.69A9,9,0,0,1,157.12,35Z"/><path d="M165.94,40.37a8,8,0,0,1-.35-2.69,7.92,7.92,0,0,1,.35-2.66,4.47,4.47,0,0,1,8.32,0,7.92,7.92,0,0,1,.35,2.66,8,8,0,0,1-.35,2.69,4.47,4.47,0,0,1-8.32,0Zm6.54-.53a7.13,7.13,0,0,0,.24-2.16,6.91,6.91,0,0,0-.24-2.13,2.54,2.54,0,0,0-4.76,0,6.91,6.91,0,0,0-.24,2.13,7.13,7.13,0,0,0,.24,2.16,2.54,2.54,0,0,0,4.76,0Z"/><path d="M175.53,41.62a.21.21,0,0,1,0-.31l.91-1a.2.2,0,0,1,.3,0A5.1,5.1,0,0,0,180,41.55c1.54,0,2.31-.66,2.31-1.6s-.4-1.3-2.05-1.48l-1.12-.11c-2.07-.22-3.15-1.25-3.15-3,0-2,1.43-3.21,3.92-3.21a6.3,6.3,0,0,1,3.74,1.17.21.21,0,0,1,0,.3l-.75,1a.21.21,0,0,1-.31,0,5.54,5.54,0,0,0-2.84-.85c-1.32,0-2,.59-2,1.45s.51,1.27,2.07,1.43l1.1.11c2.13.2,3.17,1.27,3.17,3,0,2.07-1.5,3.45-4.25,3.45A6.55,6.55,0,0,1,175.53,41.62Z"/><path d="M192.1,43a.21.21,0,0,1-.22-.22v-.92h0a3.47,3.47,0,0,1-3.13,1.38c-2,0-3.54-1-3.54-3.16s1.54-3.26,4.12-3.26h2.39c.09,0,.14,0,.14-.13v-.77c0-1.46-.58-2.07-2.53-2.07a4.13,4.13,0,0,0-2.56.75.2.2,0,0,1-.31,0l-.59-1a.23.23,0,0,1,.05-.31,5.87,5.87,0,0,1,3.58-1c3,0,4.14,1,4.14,3.59v7a.21.21,0,0,1-.22.22Zm-.26-3.41V38.38a.12.12,0,0,0-.14-.13h-2.11c-1.82,0-2.62.53-2.62,1.72s.8,1.65,2.2,1.65C190.82,41.62,191.84,40.85,191.84,39.55Z"/><path d="M195.09,41.62a.21.21,0,0,1,0-.31l.9-1a.21.21,0,0,1,.31,0,5.07,5.07,0,0,0,3.26,1.21c1.54,0,2.31-.66,2.31-1.6s-.4-1.3-2.05-1.48l-1.12-.11c-2.07-.22-3.15-1.25-3.15-3,0-2,1.43-3.21,3.92-3.21a6.3,6.3,0,0,1,3.74,1.17c.11.06.11.19,0,.3l-.74,1a.21.21,0,0,1-.31,0,5.54,5.54,0,0,0-2.84-.85c-1.32,0-2,.59-2,1.45s.5,1.27,2.07,1.43l1.1.11c2.13.2,3.16,1.27,3.16,3,0,2.07-1.49,3.45-4.24,3.45A6.55,6.55,0,0,1,195.09,41.62Z"/><path d="M215.84,43a.21.21,0,0,1-.22-.22v-1h0a3.21,3.21,0,0,1-3,1.47A3.48,3.48,0,0,1,209,40.67a8.9,8.9,0,0,1-.37-3,8.89,8.89,0,0,1,.37-3,3.49,3.49,0,0,1,3.63-2.53,3.22,3.22,0,0,1,3,1.45h0V28.22a.21.21,0,0,1,.22-.22h1.41a.21.21,0,0,1,.22.22V42.74a.21.21,0,0,1-.22.22Zm-.46-3.08a6.92,6.92,0,0,0,.24-2.2,7.08,7.08,0,0,0-.24-2.2,2.5,2.5,0,0,0-4.65,0,7.74,7.74,0,0,0-.24,2.2,7.51,7.51,0,0,0,.24,2.2,2.48,2.48,0,0,0,4.65,0Z"/><path d="M219.93,30.05a.21.21,0,0,1-.22-.22V28.22a.21.21,0,0,1,.22-.22h1.49a.21.21,0,0,1,.23.22v1.61a.21.21,0,0,1-.23.22ZM220,43a.21.21,0,0,1-.22-.22V32.64a.21.21,0,0,1,.22-.22h1.41a.21.21,0,0,1,.22.22v10.1a.21.21,0,0,1-.22.22Z"/><path d="M224.46,43a.21.21,0,0,1-.22-.22V34.05c0-.09,0-.13-.13-.13h-.9a.2.2,0,0,1-.22-.22V32.64a.2.2,0,0,1,.22-.22h.9c.09,0,.13,0,.13-.13v-.9c0-2.49,1-3.39,3.21-3.39h.82a.21.21,0,0,1,.22.22V29.5a.21.21,0,0,1-.22.22h-.58c-1.34,0-1.6.28-1.6,1.58v1c0,.09,0,.13.13.13h2.05a.21.21,0,0,1,.22.22V33.7a.21.21,0,0,1-.22.22h-2.05c-.09,0-.13,0-.13.13v8.69a.21.21,0,0,1-.22.22Z"/><path d="M229.23,40.34a8.25,8.25,0,0,1-.35-2.66,8.17,8.17,0,0,1,.33-2.66,4.43,4.43,0,0,1,8.27,0,8.91,8.91,0,0,1,.33,3c0,.14-.08.22-.24.22h-6.66a.12.12,0,0,0-.14.13,3.92,3.92,0,0,0,.18,1.28,2.6,2.6,0,0,0,2.66,1.83,3.44,3.44,0,0,0,2.71-1.17.22.22,0,0,1,.33,0l.9.81a.2.2,0,0,1,0,.31,5.09,5.09,0,0,1-4.11,1.8A4.08,4.08,0,0,1,229.23,40.34Zm6.56-3.56c.09,0,.13,0,.13-.13a3.71,3.71,0,0,0-.15-1.19,2.6,2.6,0,0,0-4.84,0,3.68,3.68,0,0,0-.16,1.19c0,.09,0,.13.14.13Z"/><path d="M239.68,43a.21.21,0,0,1-.22-.22V32.64a.21.21,0,0,1,.22-.22h1.41a.21.21,0,0,1,.22.22v1.08h0a3,3,0,0,1,2.8-1.54,3.26,3.26,0,0,1,2.16.79c.11.11.13.2,0,.31l-.82,1.08a.19.19,0,0,1-.3,0,3,3,0,0,0-1.63-.5c-1.61,0-2.27,1.25-2.27,3.08v5.76a.21.21,0,0,1-.22.22Z"/><path d="M246.48,40.34a8.25,8.25,0,0,1-.35-2.66,8.17,8.17,0,0,1,.33-2.66,4.43,4.43,0,0,1,8.27,0,9.18,9.18,0,0,1,.33,3,.21.21,0,0,1-.24.22h-6.67a.12.12,0,0,0-.13.13,3.92,3.92,0,0,0,.18,1.28,2.6,2.6,0,0,0,2.66,1.83,3.47,3.47,0,0,0,2.71-1.17.22.22,0,0,1,.33,0l.9.81a.2.2,0,0,1,0,.31,5.12,5.12,0,0,1-4.11,1.8A4.07,4.07,0,0,1,246.48,40.34ZM253,36.78c.09,0,.13,0,.13-.13a3.71,3.71,0,0,0-.15-1.19,2.6,2.6,0,0,0-4.84,0,3.43,3.43,0,0,0-.16,1.19c0,.09,0,.13.13.13Z"/><path d="M263.55,43a.21.21,0,0,1-.22-.22V36.58c0-1.69-.77-2.68-2.35-2.68a2.36,2.36,0,0,0-2.42,2.57v6.27a.21.21,0,0,1-.22.22h-1.41a.21.21,0,0,1-.22-.22V32.64a.21.21,0,0,1,.22-.22h1.41a.21.21,0,0,1,.22.22v1h0a3.35,3.35,0,0,1,2.95-1.43c2.29,0,3.65,1.56,3.65,4v6.6A.21.21,0,0,1,265,43Z"/><path d="M270.42,43.07c-2.05,0-2.84-.92-2.84-3v-6a.12.12,0,0,0-.13-.13h-.88a.2.2,0,0,1-.22-.22V32.64a.2.2,0,0,1,.22-.22h.88a.12.12,0,0,0,.13-.13v-3a.21.21,0,0,1,.22-.22h1.41a.21.21,0,0,1,.22.22v3c0,.09,0,.13.13.13h1.67a.21.21,0,0,1,.22.22V33.7a.21.21,0,0,1-.22.22h-1.67c-.09,0-.13,0-.13.13v6c0,1.06.39,1.35,1.34,1.35h.46a.2.2,0,0,1,.22.22v1.27a.21.21,0,0,1-.22.22Z"/><path d="M272.7,40.34a8.25,8.25,0,0,1-.35-2.66,8.17,8.17,0,0,1,.33-2.66A4.44,4.44,0,0,1,281,35a9.18,9.18,0,0,1,.33,3c0,.14-.09.22-.25.22h-6.66a.12.12,0,0,0-.14.13,3.92,3.92,0,0,0,.18,1.28,2.6,2.6,0,0,0,2.66,1.83,3.44,3.44,0,0,0,2.71-1.17.22.22,0,0,1,.33,0l.9.81a.2.2,0,0,1,0,.31,5.09,5.09,0,0,1-4.11,1.8A4.08,4.08,0,0,1,272.7,40.34Zm6.56-3.56c.09,0,.13,0,.13-.13a3.71,3.71,0,0,0-.15-1.19,2.6,2.6,0,0,0-4.84,0,3.68,3.68,0,0,0-.16,1.19c0,.09.05.13.14.13Z"/><path d="M282.21,41.62a.21.21,0,0,1,0-.31l.9-1a.21.21,0,0,1,.31,0,5.07,5.07,0,0,0,3.25,1.21c1.55,0,2.31-.66,2.31-1.6s-.39-1.3-2-1.48l-1.12-.11c-2.07-.22-3.15-1.25-3.15-3,0-2,1.43-3.21,3.92-3.21a6.3,6.3,0,0,1,3.74,1.17c.11.06.11.19,0,.3l-.75,1a.21.21,0,0,1-.31,0,5.5,5.5,0,0,0-2.83-.85c-1.32,0-2,.59-2,1.45s.5,1.27,2.06,1.43l1.1.11c2.14.2,3.17,1.27,3.17,3,0,2.07-1.5,3.45-4.25,3.45A6.54,6.54,0,0,1,282.21,41.62Z"/><path d="M302.73,43a.21.21,0,0,1-.22-.22v-.92h0a3.45,3.45,0,0,1-3.12,1.38c-2,0-3.54-1-3.54-3.16s1.54-3.26,4.11-3.26h2.4c.09,0,.13,0,.13-.13v-.77c0-1.46-.57-2.07-2.53-2.07a4.07,4.07,0,0,0-2.55.75.2.2,0,0,1-.31,0l-.6-1a.24.24,0,0,1,0-.31,5.88,5.88,0,0,1,3.59-1c3,0,4.13,1,4.13,3.59v7A.21.21,0,0,1,304,43Zm-.26-3.41V38.38a.12.12,0,0,0-.13-.13h-2.11c-1.83,0-2.62.53-2.62,1.72s.79,1.65,2.2,1.65C301.46,41.62,302.47,40.85,302.47,39.55Z"/><path d="M312.94,43.07c-1.85,0-2.57-.88-2.57-2.77V28.22a.21.21,0,0,1,.22-.22H312a.21.21,0,0,1,.22.22v12c0,.88.33,1.17,1,1.17h.42a.2.2,0,0,1,.22.22v1.27a.21.21,0,0,1-.22.22Z"/><path d="M321.57,43a.2.2,0,0,1-.22-.22v-.92h0a3.44,3.44,0,0,1-3.12,1.38c-2,0-3.54-1-3.54-3.16s1.54-3.26,4.11-3.26h2.4c.09,0,.13,0,.13-.13v-.77c0-1.46-.57-2.07-2.53-2.07a4.09,4.09,0,0,0-2.55.75.2.2,0,0,1-.31,0l-.59-1a.23.23,0,0,1,0-.31,5.9,5.9,0,0,1,3.59-1c3,0,4.13,1,4.13,3.59v7a.2.2,0,0,1-.22.22Zm-.27-3.41V38.38a.12.12,0,0,0-.13-.13h-2.11c-1.83,0-2.62.53-2.62,1.72s.79,1.65,2.2,1.65C320.29,41.62,321.3,40.85,321.3,39.55Z"/><path d="M332.06,43c-.16,0-.22-.09-.26-.22L328,32.64c0-.13,0-.22.18-.22h1.51c.16,0,.22.07.29.22l2.73,7.57h0l2.67-7.57a.26.26,0,0,1,.26-.22h1.5c.15,0,.22.09.17.22l-3.76,10.1a.28.28,0,0,1-.29.22Z"/><path d="M338,40.34a8.25,8.25,0,0,1-.35-2.66A8.17,8.17,0,0,1,338,35a4.43,4.43,0,0,1,8.27,0,9.18,9.18,0,0,1,.33,3c0,.14-.08.22-.24.22h-6.66a.12.12,0,0,0-.14.13,3.92,3.92,0,0,0,.18,1.28,2.6,2.6,0,0,0,2.66,1.83,3.44,3.44,0,0,0,2.71-1.17.22.22,0,0,1,.33,0l.9.81a.2.2,0,0,1,0,.31,5.09,5.09,0,0,1-4.11,1.8A4.07,4.07,0,0,1,338,40.34Zm6.56-3.56c.09,0,.13,0,.13-.13a3.71,3.71,0,0,0-.15-1.19,2.6,2.6,0,0,0-4.84,0,3.68,3.68,0,0,0-.16,1.19c0,.09.05.13.14.13Z"/><path d="M347.9,43a.21.21,0,0,1-.22-.22V41.58a.34.34,0,0,1,.09-.25l5.78-7.19v0h-5.37a.2.2,0,0,1-.22-.22V32.64a.21.21,0,0,1,.22-.22h7.35a.2.2,0,0,1,.22.22v1.23a.38.38,0,0,1-.08.25l-5.75,7.13v0h5.61a.2.2,0,0,1,.22.22v1.23a.2.2,0,0,1-.22.22Z"/></g></g></svg>