<svg xmlns="http://www.w3.org/2000/svg" viewBox="0 0 400.19 72.59"><title>14b</title><g id="Capa_2" data-name="Capa 2"><g id="answer_copia" data-name="answer copia"><path d="M.74.24A.23.23,0,0,1,1,0H2.64a.23.23,0,0,1,.24.24v14a.13.13,0,0,0,.14.14H10.8a.23.23,0,0,1,.24.24v1.51a.22.22,0,0,1-.24.24H1a.23.23,0,0,1-.24-.24Z"/><path d="M12.82,13.49a8.48,8.48,0,0,1-.39-2.93,8.37,8.37,0,0,1,.39-2.9,4.43,4.43,0,0,1,4.53-3.1,4.45,4.45,0,0,1,4.54,3.1,8.65,8.65,0,0,1,.38,2.9,8.77,8.77,0,0,1-.38,2.93,4.49,4.49,0,0,1-4.54,3.1A4.47,4.47,0,0,1,12.82,13.49Zm7.12-.58a7.22,7.22,0,0,0,.27-2.35,7.16,7.16,0,0,0-.27-2.33,2.55,2.55,0,0,0-2.59-1.8,2.56,2.56,0,0,0-2.59,1.8,7.5,7.5,0,0,0-.26,2.33,7.56,7.56,0,0,0,.26,2.35,2.56,2.56,0,0,0,2.59,1.8A2.55,2.55,0,0,0,19.94,12.91Z"/><path d="M24.24,14.86a.23.23,0,0,1,0-.34l1-1a.23.23,0,0,1,.34,0,5.6,5.6,0,0,0,3.55,1.32c1.68,0,2.52-.73,2.52-1.76s-.43-1.41-2.23-1.61l-1.22-.12c-2.26-.24-3.44-1.36-3.44-3.24,0-2.18,1.56-3.5,4.28-3.5A6.88,6.88,0,0,1,33.1,5.83a.23.23,0,0,1,0,.34l-.81,1a.24.24,0,0,1-.34,0,6,6,0,0,0-3.09-.94c-1.44,0-2.19.65-2.19,1.59S27.26,9.29,29,9.46l1.2.12c2.33.21,3.46,1.39,3.46,3.24,0,2.25-1.64,3.77-4.64,3.77A7.18,7.18,0,0,1,24.24,14.86Z"/><path d="M48.55,16.32a.23.23,0,0,1-.24-.24v-1h0a3.77,3.77,0,0,1-3.41,1.52c-2.18,0-3.86-1.13-3.86-3.46S42.7,9.58,45.5,9.58h2.62c.1,0,.14-.05.14-.15V8.59c0-1.58-.62-2.25-2.76-2.25a4.47,4.47,0,0,0-2.78.81.22.22,0,0,1-.34,0L41.74,6a.24.24,0,0,1,0-.33A6.42,6.42,0,0,1,45.7,4.56c3.26,0,4.51,1.08,4.51,3.91v7.61a.23.23,0,0,1-.24.24Zm-.29-3.72V11.33c0-.1,0-.14-.14-.14h-2.3c-2,0-2.86.57-2.86,1.87s.86,1.8,2.4,1.8C47.16,14.86,48.26,14,48.26,12.6Z"/><path d="M53.23,7.66a4.45,4.45,0,0,1,4.54-3.1A4.6,4.6,0,0,1,61.7,6.5c.08.12.08.22-.07.34l-1.05.86a.22.22,0,0,1-.34,0,2.82,2.82,0,0,0-2.47-1.25,2.49,2.49,0,0,0-2.57,1.8,7.75,7.75,0,0,0-.26,2.33,7.81,7.81,0,0,0,.26,2.35,2.49,2.49,0,0,0,2.57,1.8,2.82,2.82,0,0,0,2.47-1.24.22.22,0,0,1,.34,0l1.05.87c.15.12.15.21.07.33a4.61,4.61,0,0,1-3.93,1.95,4.46,4.46,0,0,1-4.54-3.1,10.15,10.15,0,0,1-.36-2.93A10,10,0,0,1,53.23,7.66Z"/><path d="M63.79,7.66a4.45,4.45,0,0,1,4.54-3.1A4.6,4.6,0,0,1,72.26,6.5c.08.12.08.22-.07.34l-1,.86a.22.22,0,0,1-.34,0,2.82,2.82,0,0,0-2.47-1.25,2.49,2.49,0,0,0-2.57,1.8,7.75,7.75,0,0,0-.26,2.33,7.81,7.81,0,0,0,.26,2.35,2.49,2.49,0,0,0,2.57,1.8,2.82,2.82,0,0,0,2.47-1.24.22.22,0,0,1,.34,0l1,.87c.15.12.15.21.07.33a4.61,4.61,0,0,1-3.93,1.95,4.46,4.46,0,0,1-4.54-3.1,10.15,10.15,0,0,1-.36-2.93A10,10,0,0,1,63.79,7.66Z"/><path d="M75.17,2.23A.22.22,0,0,1,74.93,2V.24A.23.23,0,0,1,75.17,0H76.8A.23.23,0,0,1,77,.24V2a.23.23,0,0,1-.24.24Zm0,14.09a.23.23,0,0,1-.24-.24v-11a.23.23,0,0,1,.24-.24h1.54a.23.23,0,0,1,.24.24v11a.23.23,0,0,1-.24.24Z"/><path d="M87.65,16.32a.22.22,0,0,1-.24-.24V15h0a3.49,3.49,0,0,1-3.26,1.61,3.8,3.8,0,0,1-4-2.76,9.68,9.68,0,0,1-.41-3.27,9.53,9.53,0,0,1,.41-3.24,3.8,3.8,0,0,1,4-2.76,3.48,3.48,0,0,1,3.26,1.58h0V.24A.23.23,0,0,1,87.65,0h1.53a.23.23,0,0,1,.24.24V16.08a.22.22,0,0,1-.24.24ZM87.14,13a7.14,7.14,0,0,0,.27-2.4,7.25,7.25,0,0,0-.27-2.4,2.71,2.71,0,0,0-5.06,0,8.21,8.21,0,0,0-.27,2.4,8,8,0,0,0,.27,2.4,2.7,2.7,0,0,0,5.06,0Z"/><path d="M92.57,13.47a9.05,9.05,0,0,1-.39-2.91,8.87,8.87,0,0,1,.36-2.9,4.84,4.84,0,0,1,9,0,10,10,0,0,1,.36,3.28.24.24,0,0,1-.27.25H94.39c-.1,0-.14,0-.14.14a4.3,4.3,0,0,0,.19,1.39,2.83,2.83,0,0,0,2.9,2,3.74,3.74,0,0,0,3-1.27.25.25,0,0,1,.36,0l1,.89a.22.22,0,0,1,0,.34,5.59,5.59,0,0,1-4.49,2A4.44,4.44,0,0,1,92.57,13.47Zm7.15-3.89c.09,0,.14-.05.14-.15a4,4,0,0,0-.17-1.29,2.84,2.84,0,0,0-5.28,0,4,4,0,0,0-.16,1.29c0,.1,0,.15.14.15Z"/><path d="M112.15,16.32a.23.23,0,0,1-.24-.24V9.36c0-1.85-.84-2.93-2.57-2.93a2.58,2.58,0,0,0-2.64,2.81v6.84a.22.22,0,0,1-.24.24h-1.53a.22.22,0,0,1-.24-.24v-11a.23.23,0,0,1,.24-.24h1.53a.23.23,0,0,1,.24.24V6.12h0a3.62,3.62,0,0,1,3.21-1.56c2.5,0,4,1.7,4,4.32v7.2a.23.23,0,0,1-.24.24Z"/><path d="M120.6,16.44c-2.23,0-3.1-1-3.1-3.26V6.6a.12.12,0,0,0-.14-.14h-1a.23.23,0,0,1-.24-.24V5.06a.23.23,0,0,1,.24-.24h1a.12.12,0,0,0,.14-.14V1.44a.23.23,0,0,1,.24-.24h1.54a.23.23,0,0,1,.24.24V4.68a.12.12,0,0,0,.14.14h1.83a.23.23,0,0,1,.24.24V6.22a.23.23,0,0,1-.24.24h-1.83a.12.12,0,0,0-.14.14v6.5c0,1.16.43,1.47,1.46,1.47h.51a.23.23,0,0,1,.24.24V16.2a.23.23,0,0,1-.24.24Z"/><path d="M124.05,13.47a9.1,9.1,0,0,1-.38-2.91,8.87,8.87,0,0,1,.36-2.9,4.83,4.83,0,0,1,9,0,10,10,0,0,1,.36,3.28.23.23,0,0,1-.26.25h-7.27c-.1,0-.15,0-.15.14a4.27,4.27,0,0,0,.2,1.39,2.83,2.83,0,0,0,2.9,2,3.74,3.74,0,0,0,2.95-1.27.25.25,0,0,1,.36,0l1,.89a.22.22,0,0,1,0,.34,5.59,5.59,0,0,1-4.49,2A4.45,4.45,0,0,1,124.05,13.47Zm7.16-3.89c.09,0,.14-.05.14-.15a4,4,0,0,0-.17-1.29,2.84,2.84,0,0,0-5.28,0,4,4,0,0,0-.17,1.29.13.13,0,0,0,.15.15Z"/><path d="M135.38,14.86a.25.25,0,0,1,0-.34l1-1a.22.22,0,0,1,.33,0,5.62,5.62,0,0,0,3.55,1.32c1.68,0,2.52-.73,2.52-1.76s-.43-1.41-2.23-1.61l-1.22-.12c-2.26-.24-3.44-1.36-3.44-3.24,0-2.18,1.57-3.5,4.28-3.5a6.88,6.88,0,0,1,4.08,1.27.24.24,0,0,1,0,.34l-.82,1a.24.24,0,0,1-.34,0A6,6,0,0,0,140,6.31c-1.44,0-2.19.65-2.19,1.59s.56,1.39,2.26,1.56l1.2.12c2.33.21,3.46,1.39,3.46,3.24,0,2.25-1.64,3.77-4.64,3.77A7.18,7.18,0,0,1,135.38,14.86Z"/><path d="M151.94,14.86a.23.23,0,0,1,0-.34l1-1a.23.23,0,0,1,.34,0,5.62,5.62,0,0,0,3.55,1.32c1.68,0,2.52-.73,2.52-1.76s-.43-1.41-2.23-1.61l-1.22-.12c-2.26-.24-3.43-1.36-3.43-3.24,0-2.18,1.55-3.5,4.27-3.5a6.88,6.88,0,0,1,4.08,1.27.24.24,0,0,1,0,.34l-.82,1a.24.24,0,0,1-.34,0,6,6,0,0,0-3.09-.94c-1.44,0-2.19.65-2.19,1.59s.55,1.39,2.26,1.56l1.2.12c2.33.21,3.46,1.39,3.46,3.24,0,2.25-1.64,3.77-4.64,3.77A7.18,7.18,0,0,1,151.94,14.86Z"/><path d="M163.7,13.49a8.77,8.77,0,0,1-.38-2.93,8.65,8.65,0,0,1,.38-2.9,4.87,4.87,0,0,1,9.07,0,8.37,8.37,0,0,1,.39,2.9,8.48,8.48,0,0,1-.39,2.93,4.87,4.87,0,0,1-9.07,0Zm7.13-.58a7.56,7.56,0,0,0,.26-2.35,7.5,7.5,0,0,0-.26-2.33,2.77,2.77,0,0,0-5.19,0,7.5,7.5,0,0,0-.26,2.33,7.56,7.56,0,0,0,.26,2.35,2.77,2.77,0,0,0,5.19,0Z"/><path d="M183.38,16.32a.23.23,0,0,1-.24-.24V9.36c0-1.85-.84-2.93-2.57-2.93a2.58,2.58,0,0,0-2.64,2.81v6.84a.22.22,0,0,1-.24.24h-1.53a.22.22,0,0,1-.24-.24v-11a.23.23,0,0,1,.24-.24h1.53a.23.23,0,0,1,.24.24V6.12h0a3.62,3.62,0,0,1,3.21-1.56c2.5,0,4,1.7,4,4.32v7.2a.23.23,0,0,1-.24.24Z"/><path d="M193.44,7.66A4.43,4.43,0,0,1,198,4.56a4.62,4.62,0,0,1,3.94,1.94.23.23,0,0,1-.07.34l-1.06.86a.22.22,0,0,1-.34,0A2.81,2.81,0,0,0,198,6.43a2.5,2.5,0,0,0-2.57,1.8,7.75,7.75,0,0,0-.26,2.33,7.81,7.81,0,0,0,.26,2.35,2.5,2.5,0,0,0,2.57,1.8,2.8,2.8,0,0,0,2.47-1.24.22.22,0,0,1,.34,0l1.06.87c.14.12.14.21.07.33A4.62,4.62,0,0,1,198,16.59a4.44,4.44,0,0,1-4.53-3.1,9.81,9.81,0,0,1-.36-2.93A9.69,9.69,0,0,1,193.44,7.66Z"/><path d="M211.29,16.32a.23.23,0,0,1-.24-.24v-1h0a3.77,3.77,0,0,1-3.41,1.52c-2.18,0-3.86-1.13-3.86-3.46s1.68-3.55,4.48-3.55h2.62c.1,0,.14-.05.14-.15V8.59c0-1.58-.62-2.25-2.76-2.25a4.47,4.47,0,0,0-2.78.81.22.22,0,0,1-.34,0L204.48,6a.24.24,0,0,1,0-.33,6.42,6.42,0,0,1,3.92-1.13c3.26,0,4.51,1.08,4.51,3.91v7.61a.23.23,0,0,1-.24.24ZM211,12.6V11.33c0-.1,0-.14-.14-.14h-2.3c-2,0-2.86.57-2.86,1.87s.86,1.8,2.4,1.8C209.9,14.86,211,14,211,12.6Z"/><path d="M223.53,16.32a.23.23,0,0,1-.24-.24V15h0a3.51,3.51,0,0,1-3.14,1.59c-2.53,0-4-1.73-4-4.35V5.06a.23.23,0,0,1,.24-.24h1.54a.23.23,0,0,1,.24.24v6.7c0,1.87.84,3,2.54,3a2.55,2.55,0,0,0,2.59-2.83V5.06a.23.23,0,0,1,.24-.24h1.54a.23.23,0,0,1,.24.24v11a.23.23,0,0,1-.24.24Z"/><path d="M228,14.86a.25.25,0,0,1,0-.34l1-1a.22.22,0,0,1,.33,0,5.62,5.62,0,0,0,3.55,1.32c1.68,0,2.52-.73,2.52-1.76s-.43-1.41-2.23-1.61l-1.22-.12c-2.26-.24-3.43-1.36-3.43-3.24,0-2.18,1.56-3.5,4.27-3.5a6.88,6.88,0,0,1,4.08,1.27.24.24,0,0,1,0,.34l-.82,1a.24.24,0,0,1-.34,0,6,6,0,0,0-3.09-.94c-1.44,0-2.19.65-2.19,1.59s.56,1.39,2.26,1.56l1.2.12c2.33.21,3.46,1.39,3.46,3.24,0,2.25-1.64,3.77-4.64,3.77A7.18,7.18,0,0,1,228,14.86Z"/><path d="M247,16.32a.23.23,0,0,1-.24-.24v-1h0a3.77,3.77,0,0,1-3.41,1.52c-2.18,0-3.86-1.13-3.86-3.46s1.68-3.55,4.49-3.55h2.61a.13.13,0,0,0,.15-.15V8.59c0-1.58-.63-2.25-2.76-2.25a4.48,4.48,0,0,0-2.79.81c-.12.1-.26.1-.33,0L240.19,6a.24.24,0,0,1,.05-.33,6.36,6.36,0,0,1,3.91-1.13c3.26,0,4.51,1.08,4.51,3.91v7.61a.23.23,0,0,1-.24.24Zm-.28-3.72V11.33c0-.1-.05-.14-.15-.14h-2.3c-2,0-2.86.57-2.86,1.87s.87,1.8,2.4,1.8C245.61,14.86,246.72,14,246.72,12.6Z"/><path d="M259.22,16.32a.23.23,0,0,1-.24-.24V15h0a3.52,3.52,0,0,1-3.27,1.61,3.81,3.81,0,0,1-4-2.76,9.68,9.68,0,0,1-.41-3.27,9.53,9.53,0,0,1,.41-3.24,3.81,3.81,0,0,1,4-2.76A3.51,3.51,0,0,1,259,6.14h0V.24a.23.23,0,0,1,.24-.24h1.54a.23.23,0,0,1,.24.24V16.08a.23.23,0,0,1-.24.24Zm-.5-3.36a7.47,7.47,0,0,0,.26-2.4,7.59,7.59,0,0,0-.26-2.4,2.72,2.72,0,0,0-5.07,0,8.26,8.26,0,0,0-.26,2.4,8,8,0,0,0,.26,2.4,2.71,2.71,0,0,0,5.07,0Z"/><path d="M264.14,13.49a8.73,8.73,0,0,1-.39-2.93,8.62,8.62,0,0,1,.39-2.9,4.87,4.87,0,0,1,9.07,0,8.37,8.37,0,0,1,.39,2.9,8.48,8.48,0,0,1-.39,2.93,4.87,4.87,0,0,1-9.07,0Zm7.13-.58a7.56,7.56,0,0,0,.26-2.35,7.5,7.5,0,0,0-.26-2.33,2.77,2.77,0,0,0-5.19,0,7.5,7.5,0,0,0-.26,2.33,7.56,7.56,0,0,0,.26,2.35,2.77,2.77,0,0,0,5.19,0Z"/><path d="M275.56,14.86a.25.25,0,0,1,0-.34l1-1a.22.22,0,0,1,.33,0,5.63,5.63,0,0,0,3.56,1.32c1.68,0,2.52-.73,2.52-1.76s-.44-1.41-2.24-1.61l-1.22-.12c-2.26-.24-3.43-1.36-3.43-3.24,0-2.18,1.56-3.5,4.27-3.5a6.88,6.88,0,0,1,4.08,1.27.24.24,0,0,1,.05.34l-.82,1a.23.23,0,0,1-.33,0,6.07,6.07,0,0,0-3.1-.94C278.78,6.31,278,7,278,7.9s.55,1.39,2.25,1.56l1.2.12c2.33.21,3.46,1.39,3.46,3.24,0,2.25-1.63,3.77-4.63,3.77A7.19,7.19,0,0,1,275.56,14.86Z"/><path d="M293.15,20.64a.23.23,0,0,1-.24-.24V5.06a.23.23,0,0,1,.24-.24h1.54a.23.23,0,0,1,.24.24V6.14h0a3.48,3.48,0,0,1,3.26-1.58,3.81,3.81,0,0,1,4,2.76,9.53,9.53,0,0,1,.41,3.24,9.68,9.68,0,0,1-.41,3.27,3.81,3.81,0,0,1-4,2.76A3.49,3.49,0,0,1,295,15h0V20.4a.23.23,0,0,1-.24.24ZM300.26,13a8,8,0,0,0,.26-2.4,8.26,8.26,0,0,0-.26-2.4,2.71,2.71,0,0,0-5.06,0,7.25,7.25,0,0,0-.27,2.4,7.14,7.14,0,0,0,.27,2.4,2.7,2.7,0,0,0,5.06,0Z"/><path d="M305,13.49a8.48,8.48,0,0,1-.39-2.93,8.37,8.37,0,0,1,.39-2.9,4.87,4.87,0,0,1,9.07,0,8.65,8.65,0,0,1,.38,2.9,8.77,8.77,0,0,1-.38,2.93,4.87,4.87,0,0,1-9.07,0Zm7.12-.58a7.22,7.22,0,0,0,.27-2.35,7.16,7.16,0,0,0-.27-2.33,2.76,2.76,0,0,0-5.18,0,7.45,7.45,0,0,0-.27,2.33,7.5,7.5,0,0,0,.27,2.35,2.76,2.76,0,0,0,5.18,0Z"/><path d="M317.49,16.32a.23.23,0,0,1-.24-.24v-11a.23.23,0,0,1,.24-.24H319a.23.23,0,0,1,.24.24V6.24h0a3.2,3.2,0,0,1,3-1.68,3.56,3.56,0,0,1,2.35.86c.12.12.14.22.05.34l-.89,1.18a.21.21,0,0,1-.33,0,3.31,3.31,0,0,0-1.78-.55c-1.75,0-2.47,1.37-2.47,3.36v6.29a.23.23,0,0,1-.24.24Z"/><path d="M334.65,16.44c-2,0-2.81-1-2.81-3V.24a.23.23,0,0,1,.24-.24h1.54a.23.23,0,0,1,.24.24V13.3c0,1,.36,1.27,1.15,1.27h.46a.23.23,0,0,1,.24.24V16.2a.23.23,0,0,1-.24.24Z"/><path d="M345,16.32a.23.23,0,0,1-.24-.24v-1h0a3.74,3.74,0,0,1-3.4,1.52c-2.19,0-3.87-1.13-3.87-3.46s1.68-3.55,4.49-3.55h2.62c.09,0,.14-.05.14-.15V8.59c0-1.58-.62-2.25-2.76-2.25a4.44,4.44,0,0,0-2.78.81c-.12.1-.27.1-.34,0L338.2,6a.24.24,0,0,1,.05-.33,6.38,6.38,0,0,1,3.91-1.13c3.27,0,4.51,1.08,4.51,3.91v7.61a.22.22,0,0,1-.24.24Zm-.29-3.72V11.33a.12.12,0,0,0-.14-.14h-2.31c-2,0-2.85.57-2.85,1.87s.86,1.8,2.4,1.8C343.63,14.86,344.73,14,344.73,12.6Z"/><path d="M355.94,16.32a.22.22,0,0,1-.24-.24V6.6c0-.1-.05-.14-.15-.14h-1a.23.23,0,0,1-.24-.24V5.06a.23.23,0,0,1,.24-.24h1c.1,0,.15,0,.15-.14v-1c0-2.72,1.1-3.7,3.5-3.7h.89a.23.23,0,0,1,.24.24V1.63a.23.23,0,0,1-.24.24h-.62c-1.47,0-1.76.31-1.76,1.73V4.68c0,.1.05.14.15.14h2.23a.23.23,0,0,1,.24.24V6.22a.23.23,0,0,1-.24.24h-2.23c-.1,0-.15,0-.15.14v9.48a.22.22,0,0,1-.24.24Z"/><path d="M369.43,16.32a.22.22,0,0,1-.24-.24v-1h0a3.75,3.75,0,0,1-3.41,1.52c-2.18,0-3.86-1.13-3.86-3.46s1.68-3.55,4.49-3.55H369a.13.13,0,0,0,.15-.15V8.59c0-1.58-.63-2.25-2.76-2.25a4.5,4.5,0,0,0-2.79.81c-.12.1-.26.1-.33,0L362.61,6a.24.24,0,0,1,.05-.33,6.38,6.38,0,0,1,3.91-1.13c3.26,0,4.51,1.08,4.51,3.91v7.61a.22.22,0,0,1-.24.24Zm-.29-3.72V11.33c0-.1-.05-.14-.15-.14h-2.3c-2,0-2.86.57-2.86,1.87s.87,1.8,2.4,1.8C368,14.86,369.14,14,369.14,12.6Z"/><path d="M377.2,16.44c-2,0-2.81-1-2.81-3V.24a.23.23,0,0,1,.24-.24h1.54a.23.23,0,0,1,.24.24V13.3c0,1,.36,1.27,1.15,1.27H378a.23.23,0,0,1,.24.24V16.2a.23.23,0,0,1-.24.24Z"/><path d="M383.83,16.44c-2.24,0-3.1-1-3.1-3.26V6.6a.12.12,0,0,0-.14-.14h-1a.23.23,0,0,1-.24-.24V5.06a.23.23,0,0,1,.24-.24h1a.12.12,0,0,0,.14-.14V1.44A.23.23,0,0,1,381,1.2h1.54a.23.23,0,0,1,.24.24V4.68c0,.1,0,.14.14.14h1.82a.23.23,0,0,1,.25.24V6.22a.23.23,0,0,1-.25.24h-1.82c-.1,0-.14,0-.14.14v6.5c0,1.16.43,1.47,1.46,1.47h.5a.23.23,0,0,1,.25.24V16.2a.23.23,0,0,1-.25.24Z"/><path d="M394.55,16.32a.23.23,0,0,1-.24-.24v-1h0a3.77,3.77,0,0,1-3.41,1.52c-2.18,0-3.86-1.13-3.86-3.46s1.68-3.55,4.49-3.55h2.61a.13.13,0,0,0,.15-.15V8.59c0-1.58-.63-2.25-2.76-2.25a4.48,4.48,0,0,0-2.79.81c-.12.1-.26.1-.33,0L387.74,6a.24.24,0,0,1,.05-.33,6.36,6.36,0,0,1,3.91-1.13c3.26,0,4.51,1.08,4.51,3.91v7.61a.23.23,0,0,1-.24.24Zm-.28-3.72V11.33c0-.1,0-.14-.15-.14h-2.3c-2,0-2.86.57-2.86,1.87s.87,1.8,2.4,1.8C393.16,14.86,394.27,14,394.27,12.6Z"/><path d="M7.9,44.32a.22.22,0,0,1-.24-.24V43h0a3.49,3.49,0,0,1-3.26,1.61,3.8,3.8,0,0,1-4-2.76A9.68,9.68,0,0,1,0,38.56a9.53,9.53,0,0,1,.41-3.24,3.8,3.8,0,0,1,4-2.76,3.48,3.48,0,0,1,3.26,1.58h0v-5.9A.23.23,0,0,1,7.9,28H9.43a.23.23,0,0,1,.24.24V44.08a.22.22,0,0,1-.24.24ZM7.39,41a7.41,7.41,0,0,0,.27-2.4,7.53,7.53,0,0,0-.27-2.4,2.44,2.44,0,0,0-2.54-1.73,2.44,2.44,0,0,0-2.52,1.73,8.21,8.21,0,0,0-.27,2.4A8,8,0,0,0,2.33,41a2.45,2.45,0,0,0,2.52,1.75A2.46,2.46,0,0,0,7.39,41Z"/><path d="M12.82,41.47a9.05,9.05,0,0,1-.39-2.91,8.87,8.87,0,0,1,.36-2.9,4.44,4.44,0,0,1,4.51-3.1,4.46,4.46,0,0,1,4.52,3.1,10,10,0,0,1,.36,3.28.24.24,0,0,1-.27.25H14.64c-.1,0-.14,0-.14.14a4.3,4.3,0,0,0,.19,1.39,2.83,2.83,0,0,0,2.9,2,3.74,3.74,0,0,0,2.95-1.27.25.25,0,0,1,.36,0l1,.89a.22.22,0,0,1,0,.34,5.59,5.59,0,0,1-4.49,2A4.44,4.44,0,0,1,12.82,41.47ZM20,37.58c.09,0,.14,0,.14-.15a4,4,0,0,0-.17-1.29,2.58,2.58,0,0,0-2.64-1.8,2.6,2.6,0,0,0-2.64,1.8,4,4,0,0,0-.16,1.29c0,.1,0,.15.14.15Z"/><path d="M29.88,35.66a4.45,4.45,0,0,1,4.54-3.1,4.6,4.6,0,0,1,3.93,1.94.23.23,0,0,1-.07.34l-1.06.86a.21.21,0,0,1-.33,0,2.82,2.82,0,0,0-2.47-1.25,2.49,2.49,0,0,0-2.57,1.8,7.7,7.7,0,0,0-.27,2.33,7.76,7.76,0,0,0,.27,2.35,2.49,2.49,0,0,0,2.57,1.8,2.82,2.82,0,0,0,2.47-1.24.21.21,0,0,1,.33,0l1.06.87c.14.12.14.21.07.33a4.61,4.61,0,0,1-3.93,2,4.46,4.46,0,0,1-4.54-3.1,9.81,9.81,0,0,1-.36-2.93A9.69,9.69,0,0,1,29.88,35.66Z"/><path d="M47.74,44.32a.22.22,0,0,1-.24-.24v-1h0a3.75,3.75,0,0,1-3.41,1.52c-2.18,0-3.86-1.13-3.86-3.46s1.68-3.55,4.49-3.55H47.3a.13.13,0,0,0,.15-.15v-.84c0-1.58-.63-2.25-2.76-2.25a4.5,4.5,0,0,0-2.79.81c-.12.1-.26.1-.33,0L40.92,34a.24.24,0,0,1,0-.33,6.38,6.38,0,0,1,3.91-1.13c3.26,0,4.51,1.08,4.51,3.91v7.61a.22.22,0,0,1-.24.24Zm-.29-3.72V39.33c0-.1-.05-.14-.15-.14H45c-2,0-2.86.57-2.86,1.87s.87,1.8,2.4,1.8C46.34,42.86,47.45,42,47.45,40.6Z"/><path d="M53,48.64a.23.23,0,0,1-.24-.24V33.06a.23.23,0,0,1,.24-.24h1.54a.23.23,0,0,1,.24.24v1.08h0a3.5,3.5,0,0,1,3.27-1.58,3.81,3.81,0,0,1,4,2.76,9.56,9.56,0,0,1,.4,3.24,9.71,9.71,0,0,1-.4,3.27,3.81,3.81,0,0,1-4,2.76A3.51,3.51,0,0,1,54.79,43h0V48.4a.23.23,0,0,1-.24.24ZM60.1,41a8,8,0,0,0,.26-2.4,8.26,8.26,0,0,0-.26-2.4,2.72,2.72,0,0,0-5.07,0,7.59,7.59,0,0,0-.26,2.4A7.47,7.47,0,0,0,55,41a2.71,2.71,0,0,0,5.07,0Z"/><path d="M72.14,44.32a.23.23,0,0,1-.24-.24v-1h0a3.77,3.77,0,0,1-3.41,1.52c-2.18,0-3.86-1.13-3.86-3.46s1.68-3.55,4.49-3.55h2.61a.13.13,0,0,0,.15-.15v-.84c0-1.58-.63-2.25-2.76-2.25a4.48,4.48,0,0,0-2.79.81.22.22,0,0,1-.34,0L65.33,34a.23.23,0,0,1,0-.33,6.36,6.36,0,0,1,3.91-1.13c3.26,0,4.51,1.08,4.51,3.91v7.61a.23.23,0,0,1-.24.24Zm-.28-3.72V39.33c0-.1,0-.14-.15-.14h-2.3c-2,0-2.86.57-2.86,1.87s.87,1.8,2.4,1.8C70.75,42.86,71.86,42,71.86,40.6Z"/><path d="M76.82,35.66a4.45,4.45,0,0,1,4.54-3.1A4.62,4.62,0,0,1,85.3,34.5c.07.12.07.22-.08.34l-1,.86a.22.22,0,0,1-.34,0,2.82,2.82,0,0,0-2.47-1.25,2.5,2.5,0,0,0-2.57,1.8,7.75,7.75,0,0,0-.26,2.33,7.81,7.81,0,0,0,.26,2.35,2.5,2.5,0,0,0,2.57,1.8,2.82,2.82,0,0,0,2.47-1.24.22.22,0,0,1,.34,0l1,.87c.15.12.15.21.08.33a4.62,4.62,0,0,1-3.94,2,4.46,4.46,0,0,1-4.54-3.1,10.15,10.15,0,0,1-.36-2.93A10,10,0,0,1,76.82,35.66Z"/><path d="M88.2,30.23A.22.22,0,0,1,88,30V28.24A.23.23,0,0,1,88.2,28h1.63a.23.23,0,0,1,.24.24V30a.22.22,0,0,1-.24.24Zm0,14.09a.22.22,0,0,1-.24-.24v-11a.23.23,0,0,1,.24-.24h1.53a.23.23,0,0,1,.24.24v11a.22.22,0,0,1-.24.24Z"/><path d="M100.68,44.32a.23.23,0,0,1-.24-.24V43h0a3.52,3.52,0,0,1-3.27,1.61,3.81,3.81,0,0,1-4-2.76,9.68,9.68,0,0,1-.41-3.27,9.53,9.53,0,0,1,.41-3.24,3.81,3.81,0,0,1,4-2.76,3.51,3.51,0,0,1,3.27,1.58h0v-5.9a.23.23,0,0,1,.24-.24h1.53a.23.23,0,0,1,.25.24V44.08a.23.23,0,0,1-.25.24ZM100.17,41a7.14,7.14,0,0,0,.27-2.4,7.25,7.25,0,0,0-.27-2.4,2.71,2.71,0,0,0-5.06,0,8.26,8.26,0,0,0-.26,2.4,8,8,0,0,0,.26,2.4,2.7,2.7,0,0,0,5.06,0Z"/><path d="M112.87,44.32a.23.23,0,0,1-.24-.24v-1h0a3.77,3.77,0,0,1-3.41,1.52c-2.19,0-3.87-1.13-3.87-3.46s1.68-3.55,4.49-3.55h2.62c.1,0,.14,0,.14-.15v-.84c0-1.58-.62-2.25-2.76-2.25a4.47,4.47,0,0,0-2.78.81c-.12.1-.27.1-.34,0L106.05,34a.25.25,0,0,1,0-.33A6.42,6.42,0,0,1,110,32.56c3.26,0,4.51,1.08,4.51,3.91v7.61a.23.23,0,0,1-.24.24Zm-.29-3.72V39.33c0-.1,0-.14-.14-.14h-2.31c-2,0-2.85.57-2.85,1.87s.86,1.8,2.4,1.8C111.48,42.86,112.58,42,112.58,40.6Z"/><path d="M125.09,44.32a.22.22,0,0,1-.24-.24V43h0a3.49,3.49,0,0,1-3.26,1.61,3.8,3.8,0,0,1-4-2.76,9.68,9.68,0,0,1-.41-3.27,9.53,9.53,0,0,1,.41-3.24,3.8,3.8,0,0,1,4-2.76,3.48,3.48,0,0,1,3.26,1.58h0v-5.9a.23.23,0,0,1,.24-.24h1.53a.23.23,0,0,1,.24.24V44.08a.22.22,0,0,1-.24.24ZM124.58,41a7.14,7.14,0,0,0,.27-2.4,7.25,7.25,0,0,0-.27-2.4,2.71,2.71,0,0,0-5.06,0,8.21,8.21,0,0,0-.27,2.4,8,8,0,0,0,.27,2.4,2.7,2.7,0,0,0,5.06,0Z"/><path d="M142.8,44.32a.22.22,0,0,1-.24-.24V43h0a3.52,3.52,0,0,1-3.27,1.61,3.81,3.81,0,0,1-4-2.76,9.68,9.68,0,0,1-.41-3.27,9.53,9.53,0,0,1,.41-3.24,3.81,3.81,0,0,1,4-2.76,3.51,3.51,0,0,1,3.27,1.58h0v-5.9a.23.23,0,0,1,.24-.24h1.53a.23.23,0,0,1,.24.24V44.08a.22.22,0,0,1-.24.24ZM142.29,41a7.14,7.14,0,0,0,.27-2.4,7.25,7.25,0,0,0-.27-2.4,2.71,2.71,0,0,0-5.06,0,8.26,8.26,0,0,0-.26,2.4,8,8,0,0,0,.26,2.4,2.7,2.7,0,0,0,5.06,0Z"/><path d="M147.72,41.47a9.05,9.05,0,0,1-.39-2.91,8.87,8.87,0,0,1,.36-2.9,4.84,4.84,0,0,1,9,0,10,10,0,0,1,.36,3.28.24.24,0,0,1-.27.25h-7.27a.12.12,0,0,0-.14.14,4.3,4.3,0,0,0,.19,1.39,2.84,2.84,0,0,0,2.9,2,3.78,3.78,0,0,0,3-1.27.25.25,0,0,1,.36,0l1,.89a.22.22,0,0,1,0,.34,5.59,5.59,0,0,1-4.48,2A4.45,4.45,0,0,1,147.72,41.47Zm7.15-3.89c.1,0,.14,0,.14-.15a4,4,0,0,0-.16-1.29,2.84,2.84,0,0,0-5.28,0,4,4,0,0,0-.17,1.29c0,.1,0,.15.14.15Z"/><path d="M162.6,44.44c-2,0-2.81-1-2.81-3V28.24A.23.23,0,0,1,160,28h1.54a.23.23,0,0,1,.24.24V41.3c0,1,.36,1.27,1.15,1.27h.45a.23.23,0,0,1,.24.24V44.2a.22.22,0,0,1-.24.24Z"/><path d="M171.53,48.64a.22.22,0,0,1-.24-.24V33.06a.23.23,0,0,1,.24-.24h1.53a.23.23,0,0,1,.24.24v1.08h0a3.48,3.48,0,0,1,3.26-1.58,3.81,3.81,0,0,1,4,2.76,9.53,9.53,0,0,1,.41,3.24,9.68,9.68,0,0,1-.41,3.27,3.81,3.81,0,0,1-4,2.76A3.49,3.49,0,0,1,173.33,43h0V48.4a.22.22,0,0,1-.24.24Zm7.1-7.68a8,8,0,0,0,.26-2.4,8.26,8.26,0,0,0-.26-2.4,2.71,2.71,0,0,0-5.06,0,7.53,7.53,0,0,0-.27,2.4,7.41,7.41,0,0,0,.27,2.4,2.7,2.7,0,0,0,5.06,0Z"/><path d="M183.41,41.47a9.05,9.05,0,0,1-.39-2.91,8.87,8.87,0,0,1,.36-2.9,4.84,4.84,0,0,1,9,0,10,10,0,0,1,.36,3.28.24.24,0,0,1-.27.25h-7.27c-.1,0-.14,0-.14.14a4.3,4.3,0,0,0,.19,1.39,2.83,2.83,0,0,0,2.9,2,3.74,3.74,0,0,0,2.95-1.27.25.25,0,0,1,.36,0l1,.89a.22.22,0,0,1,0,.34,5.59,5.59,0,0,1-4.49,2A4.44,4.44,0,0,1,183.41,41.47Zm7.15-3.89c.09,0,.14,0,.14-.15a4,4,0,0,0-.17-1.29,2.84,2.84,0,0,0-5.28,0,4,4,0,0,0-.16,1.29c0,.1,0,.15.14.15Z"/><path d="M195.77,44.32a.22.22,0,0,1-.24-.24v-11a.23.23,0,0,1,.24-.24h1.53a.23.23,0,0,1,.24.24v1.18h0a3.2,3.2,0,0,1,3-1.68,3.58,3.58,0,0,1,2.36.86c.12.12.14.22,0,.34l-.88,1.18a.22.22,0,0,1-.34,0,3.28,3.28,0,0,0-1.78-.55c-1.75,0-2.47,1.37-2.47,3.36v6.29a.22.22,0,0,1-.24.24Z"/><path d="M203.9,42.86a.25.25,0,0,1,0-.34l1-1.05a.22.22,0,0,1,.33,0,5.62,5.62,0,0,0,3.55,1.32c1.69,0,2.52-.73,2.52-1.76s-.43-1.41-2.23-1.61l-1.22-.12c-2.26-.24-3.43-1.36-3.43-3.24,0-2.18,1.56-3.5,4.27-3.5a6.88,6.88,0,0,1,4.08,1.27.24.24,0,0,1,.05.34l-.82,1a.24.24,0,0,1-.34,0,6,6,0,0,0-3.09-.94c-1.44,0-2.18.65-2.18,1.59s.55,1.39,2.25,1.56l1.2.12c2.33.21,3.46,1.39,3.46,3.24,0,2.25-1.64,3.77-4.64,3.77A7.18,7.18,0,0,1,203.9,42.86Z"/><path d="M215.66,41.49a8.77,8.77,0,0,1-.38-2.93,8.65,8.65,0,0,1,.38-2.9,4.87,4.87,0,0,1,9.07,0,8.37,8.37,0,0,1,.39,2.9,8.48,8.48,0,0,1-.39,2.93,4.87,4.87,0,0,1-9.07,0Zm7.13-.58a7.56,7.56,0,0,0,.26-2.35,7.5,7.5,0,0,0-.26-2.33,2.76,2.76,0,0,0-5.18,0,7.16,7.16,0,0,0-.27,2.33,7.22,7.22,0,0,0,.27,2.35,2.76,2.76,0,0,0,5.18,0Z"/><path d="M235.34,44.32a.23.23,0,0,1-.24-.24V37.36c0-1.85-.84-2.93-2.57-2.93a2.58,2.58,0,0,0-2.64,2.81v6.84a.22.22,0,0,1-.24.24h-1.53a.22.22,0,0,1-.24-.24v-11a.23.23,0,0,1,.24-.24h1.53a.23.23,0,0,1,.24.24v1.06h0a3.62,3.62,0,0,1,3.21-1.56c2.5,0,4,1.7,4,4.32v7.2a.23.23,0,0,1-.24.24Z"/><path d="M247.41,44.32a.23.23,0,0,1-.24-.24v-1h0a3.77,3.77,0,0,1-3.41,1.52c-2.18,0-3.86-1.13-3.86-3.46s1.68-3.55,4.49-3.55H247a.13.13,0,0,0,.15-.15v-.84c0-1.58-.63-2.25-2.76-2.25a4.48,4.48,0,0,0-2.79.81c-.12.1-.26.1-.33,0L240.6,34a.24.24,0,0,1,.05-.33,6.36,6.36,0,0,1,3.91-1.13c3.26,0,4.51,1.08,4.51,3.91v7.61a.23.23,0,0,1-.24.24Zm-.28-3.72V39.33c0-.1,0-.14-.15-.14h-2.3c-2,0-2.86.57-2.86,1.87s.87,1.8,2.4,1.8C246,42.86,247.13,42,247.13,40.6Z"/><path d="M255.19,44.44c-2,0-2.81-1-2.81-3V28.24a.23.23,0,0,1,.24-.24h1.54a.23.23,0,0,1,.24.24V41.3c0,1,.36,1.27,1.15,1.27H256a.23.23,0,0,1,.24.24V44.2a.23.23,0,0,1-.24.24Z"/><path d="M271.08,44.32a.22.22,0,0,1-.24-.24V43h0a3.49,3.49,0,0,1-3.26,1.61,3.81,3.81,0,0,1-4-2.76,9.68,9.68,0,0,1-.41-3.27,9.53,9.53,0,0,1,.41-3.24,3.81,3.81,0,0,1,4-2.76,3.48,3.48,0,0,1,3.26,1.58h0v-5.9a.23.23,0,0,1,.24-.24h1.53a.23.23,0,0,1,.24.24V44.08a.22.22,0,0,1-.24.24ZM270.57,41a7.14,7.14,0,0,0,.27-2.4,7.25,7.25,0,0,0-.27-2.4,2.71,2.71,0,0,0-5.06,0,8.26,8.26,0,0,0-.26,2.4,8,8,0,0,0,.26,2.4,2.7,2.7,0,0,0,5.06,0Z"/><path d="M276,41.47a9.05,9.05,0,0,1-.39-2.91,8.87,8.87,0,0,1,.36-2.9,4.84,4.84,0,0,1,9,0,10,10,0,0,1,.36,3.28.24.24,0,0,1-.27.25h-7.27c-.1,0-.14,0-.14.14a4.3,4.3,0,0,0,.19,1.39,2.84,2.84,0,0,0,2.9,2,3.78,3.78,0,0,0,3-1.27.25.25,0,0,1,.36,0l1,.89a.22.22,0,0,1,0,.34,5.59,5.59,0,0,1-4.48,2A4.45,4.45,0,0,1,276,41.47Zm7.15-3.89c.1,0,.14,0,.14-.15a4,4,0,0,0-.16-1.29,2.84,2.84,0,0,0-5.28,0,3.74,3.74,0,0,0-.17,1.29c0,.1,0,.15.14.15Z"/><path d="M293.08,41.47a9.1,9.1,0,0,1-.38-2.91,8.87,8.87,0,0,1,.36-2.9,4.84,4.84,0,0,1,9,0,10,10,0,0,1,.36,3.28.24.24,0,0,1-.27.25h-7.27c-.1,0-.14,0-.14.14a4.3,4.3,0,0,0,.19,1.39,2.83,2.83,0,0,0,2.9,2,3.74,3.74,0,0,0,2.95-1.27.25.25,0,0,1,.36,0l1,.89a.22.22,0,0,1,0,.34,5.59,5.59,0,0,1-4.49,2A4.46,4.46,0,0,1,293.08,41.47Zm7.16-3.89c.09,0,.14,0,.14-.15a4,4,0,0,0-.17-1.29,2.84,2.84,0,0,0-5.28,0,4,4,0,0,0-.16,1.29c0,.1,0,.15.14.15Z"/><path d="M312.67,44.32a.23.23,0,0,1-.24-.24V37.36c0-1.85-.84-2.93-2.57-2.93a2.58,2.58,0,0,0-2.64,2.81v6.84a.22.22,0,0,1-.24.24h-1.53a.22.22,0,0,1-.24-.24v-11a.23.23,0,0,1,.24-.24H307a.23.23,0,0,1,.24.24v1.06h0a3.62,3.62,0,0,1,3.21-1.56c2.5,0,4,1.7,4,4.32v7.2a.23.23,0,0,1-.24.24Z"/><path d="M318.4,44.32a.23.23,0,0,1-.24-.24V34.6c0-.1,0-.14-.14-.14h-1a.23.23,0,0,1-.24-.24V33.06a.23.23,0,0,1,.24-.24h1c.1,0,.14,0,.14-.14v-1c0-2.72,1.11-3.7,3.51-3.7h.89a.23.23,0,0,1,.24.24v1.39a.23.23,0,0,1-.24.24h-.63c-1.46,0-1.75.31-1.75,1.73v1.08a.12.12,0,0,0,.14.14h2.24a.23.23,0,0,1,.24.24v1.16a.23.23,0,0,1-.24.24h-2.24a.12.12,0,0,0-.14.14v9.48a.23.23,0,0,1-.24.24Z"/><path d="M324.57,41.49a8.77,8.77,0,0,1-.38-2.93,8.65,8.65,0,0,1,.38-2.9,4.87,4.87,0,0,1,9.07,0,8.37,8.37,0,0,1,.39,2.9,8.48,8.48,0,0,1-.39,2.93,4.87,4.87,0,0,1-9.07,0Zm7.13-.58a7.56,7.56,0,0,0,.26-2.35,7.5,7.5,0,0,0-.26-2.33,2.76,2.76,0,0,0-5.18,0,7.16,7.16,0,0,0-.27,2.33,7.22,7.22,0,0,0,.27,2.35,2.76,2.76,0,0,0,5.18,0Z"/><path d="M336.45,35.66a4.45,4.45,0,0,1,4.54-3.1,4.6,4.6,0,0,1,3.93,1.94c.08.12.08.22-.07.34l-1.05.86a.22.22,0,0,1-.34,0A2.82,2.82,0,0,0,341,34.43a2.49,2.49,0,0,0-2.57,1.8,7.75,7.75,0,0,0-.26,2.33,7.81,7.81,0,0,0,.26,2.35,2.49,2.49,0,0,0,2.57,1.8,2.82,2.82,0,0,0,2.47-1.24.22.22,0,0,1,.34,0l1.05.87c.15.12.15.21.07.33a4.61,4.61,0,0,1-3.93,2,4.46,4.46,0,0,1-4.54-3.1,10.15,10.15,0,0,1-.36-2.93A10,10,0,0,1,336.45,35.66Z"/><path d="M354.31,44.32a.22.22,0,0,1-.24-.24v-1h0a3.74,3.74,0,0,1-3.4,1.52c-2.19,0-3.87-1.13-3.87-3.46s1.68-3.55,4.49-3.55h2.62c.09,0,.14,0,.14-.15v-.84c0-1.58-.62-2.25-2.76-2.25a4.44,4.44,0,0,0-2.78.81c-.12.1-.27.1-.34,0L347.49,34a.24.24,0,0,1,.05-.33,6.38,6.38,0,0,1,3.91-1.13c3.27,0,4.51,1.08,4.51,3.91v7.61a.22.22,0,0,1-.24.24ZM354,40.6V39.33a.12.12,0,0,0-.14-.14h-2.31c-2,0-2.85.57-2.85,1.87s.86,1.8,2.4,1.8C352.92,42.86,354,42,354,40.6Z"/><path d="M359.56,44.32a.23.23,0,0,1-.24-.24v-11a.23.23,0,0,1,.24-.24h1.54a.23.23,0,0,1,.24.24v1.18h0a3.23,3.23,0,0,1,3.05-1.68,3.56,3.56,0,0,1,2.35.86c.12.12.15.22.05.34l-.89,1.18a.21.21,0,0,1-.33,0,3.31,3.31,0,0,0-1.78-.55c-1.75,0-2.47,1.37-2.47,3.36v6.29a.23.23,0,0,1-.24.24Z"/><path d="M373.17,42.86a.25.25,0,0,1,0-.34l1-1.05a.22.22,0,0,1,.33,0A5.62,5.62,0,0,0,378,42.79c1.68,0,2.52-.73,2.52-1.76s-.43-1.41-2.23-1.61l-1.22-.12c-2.26-.24-3.43-1.36-3.43-3.24,0-2.18,1.56-3.5,4.27-3.5A6.88,6.88,0,0,1,382,33.83a.24.24,0,0,1,.05.34l-.82,1a.24.24,0,0,1-.34,0,6,6,0,0,0-3.09-.94c-1.44,0-2.19.65-2.19,1.59s.56,1.39,2.26,1.56l1.2.12c2.33.21,3.46,1.39,3.46,3.24,0,2.25-1.64,3.77-4.64,3.77A7.18,7.18,0,0,1,373.17,42.86Z"/><path d="M392.47,44.32a.22.22,0,0,1-.24-.24V43h0a3.5,3.5,0,0,1-3.14,1.59c-2.52,0-4-1.73-4-4.35V33.06a.23.23,0,0,1,.24-.24h1.53a.23.23,0,0,1,.24.24v6.7c0,1.87.84,3,2.55,3a2.55,2.55,0,0,0,2.59-2.83V33.06a.23.23,0,0,1,.24-.24H394a.23.23,0,0,1,.24.24v11a.22.22,0,0,1-.24.24Z"/><path d="M7.66,72.32a.22.22,0,0,1-.24-.24v-1h0A3.74,3.74,0,0,1,4,72.59C1.8,72.59.12,71.46.12,69.13s1.68-3.55,4.49-3.55H7.22a.13.13,0,0,0,.15-.15v-.84c0-1.58-.63-2.25-2.76-2.25a4.5,4.5,0,0,0-2.79.81c-.12.1-.26.1-.33,0L.84,62a.24.24,0,0,1,.05-.33A6.38,6.38,0,0,1,4.8,60.56c3.26,0,4.51,1.08,4.51,3.91v7.61a.22.22,0,0,1-.24.24ZM7.37,68.6V67.33c0-.1,0-.14-.15-.14H4.92c-2,0-2.86.57-2.86,1.87s.87,1.8,2.4,1.8C6.26,70.86,7.37,70,7.37,68.6Z"/><path d="M16,72.44c-2.23,0-3.1-1-3.1-3.26V62.6a.12.12,0,0,0-.14-.14h-1a.23.23,0,0,1-.24-.24V61.06a.23.23,0,0,1,.24-.24h1a.12.12,0,0,0,.14-.14V57.44a.23.23,0,0,1,.24-.24h1.54a.23.23,0,0,1,.24.24v3.24a.12.12,0,0,0,.14.14H16.9a.23.23,0,0,1,.24.24v1.16a.23.23,0,0,1-.24.24H15.07a.12.12,0,0,0-.14.14v6.5c0,1.16.43,1.47,1.46,1.47h.51a.23.23,0,0,1,.24.24V72.2a.23.23,0,0,1-.24.24Z"/><path d="M19.46,69.47a9.1,9.1,0,0,1-.38-2.91,8.87,8.87,0,0,1,.36-2.9A4.44,4.44,0,0,1,24,60.56a4.44,4.44,0,0,1,4.51,3.1,9.62,9.62,0,0,1,.37,3.28.24.24,0,0,1-.27.25H21.29c-.1,0-.15,0-.15.14a4.27,4.27,0,0,0,.2,1.39,2.83,2.83,0,0,0,2.9,2,3.74,3.74,0,0,0,3-1.27.25.25,0,0,1,.36,0l1,.89a.22.22,0,0,1,0,.34,5.59,5.59,0,0,1-4.49,2A4.45,4.45,0,0,1,19.46,69.47Zm7.16-3.89c.09,0,.14,0,.14-.15a4,4,0,0,0-.17-1.29A2.58,2.58,0,0,0,24,62.34a2.6,2.6,0,0,0-2.64,1.8,4,4,0,0,0-.17,1.29.13.13,0,0,0,.15.15Z"/><path d="M39.05,72.32a.22.22,0,0,1-.24-.24V65.36c0-1.85-.84-2.93-2.57-2.93a2.58,2.58,0,0,0-2.64,2.81v6.84a.23.23,0,0,1-.24.24H31.82a.23.23,0,0,1-.24-.24v-11a.23.23,0,0,1,.24-.24h1.54a.23.23,0,0,1,.24.24v1.06h0a3.65,3.65,0,0,1,3.22-1.56c2.5,0,4,1.7,4,4.32v7.2a.22.22,0,0,1-.24.24Z"/><path d="M43.82,63.66a4.45,4.45,0,0,1,4.54-3.1A4.62,4.62,0,0,1,52.3,62.5c.07.12.07.22-.08.34l-1,.86a.22.22,0,0,1-.34,0,2.82,2.82,0,0,0-2.47-1.25,2.5,2.5,0,0,0-2.57,1.8,10.66,10.66,0,0,0,0,4.68,2.5,2.5,0,0,0,2.57,1.8,2.82,2.82,0,0,0,2.47-1.24.22.22,0,0,1,.34,0l1,.87c.15.12.15.21.08.33a4.62,4.62,0,0,1-3.94,2,4.46,4.46,0,0,1-4.54-3.1,10.15,10.15,0,0,1-.36-2.93A10,10,0,0,1,43.82,63.66Z"/><path d="M55.2,58.23A.22.22,0,0,1,55,58V56.24A.23.23,0,0,1,55.2,56h1.63a.23.23,0,0,1,.24.24V58a.22.22,0,0,1-.24.24Zm0,14.09a.22.22,0,0,1-.24-.24v-11a.23.23,0,0,1,.24-.24h1.53a.23.23,0,0,1,.24.24v11a.22.22,0,0,1-.24.24Z"/><path d="M60.17,69.49a8.48,8.48,0,0,1-.39-2.93,8.37,8.37,0,0,1,.39-2.9,4.87,4.87,0,0,1,9.07,0,8.65,8.65,0,0,1,.38,2.9,8.77,8.77,0,0,1-.38,2.93,4.87,4.87,0,0,1-9.07,0Zm7.12-.58a7.26,7.26,0,0,0,.27-2.35,7.16,7.16,0,0,0-.27-2.33,2.76,2.76,0,0,0-5.18,0,7.5,7.5,0,0,0-.26,2.33,7.6,7.6,0,0,0,.26,2.35,2.76,2.76,0,0,0,5.18,0ZM63.84,59c-.14,0-.22-.09-.14-.24l1.82-3a.43.43,0,0,1,.41-.24h1.58c.15,0,.22.12.12.24l-2.21,3A.47.47,0,0,1,65,59Z"/><path d="M79.85,72.32a.22.22,0,0,1-.24-.24V65.36c0-1.85-.84-2.93-2.57-2.93a2.58,2.58,0,0,0-2.64,2.81v6.84a.23.23,0,0,1-.24.24H72.62a.23.23,0,0,1-.24-.24v-11a.23.23,0,0,1,.24-.24h1.54a.23.23,0,0,1,.24.24v1.06h0a3.63,3.63,0,0,1,3.22-1.56c2.49,0,4,1.7,4,4.32v7.2a.22.22,0,0,1-.24.24Z"/><path d="M89.93,69.47a9.05,9.05,0,0,1-.39-2.91,8.87,8.87,0,0,1,.36-2.9,4.84,4.84,0,0,1,9,0,10,10,0,0,1,.36,3.28.24.24,0,0,1-.27.25H91.75c-.1,0-.14,0-.14.14a4.3,4.3,0,0,0,.19,1.39,2.83,2.83,0,0,0,2.9,2,3.74,3.74,0,0,0,3-1.27c.13-.12.24-.14.36,0l1,.89a.22.22,0,0,1,0,.34,5.59,5.59,0,0,1-4.48,2A4.45,4.45,0,0,1,89.93,69.47Zm7.15-3.89c.09,0,.14,0,.14-.15a4,4,0,0,0-.17-1.29,2.84,2.84,0,0,0-5.28,0,4,4,0,0,0-.16,1.29c0,.1,0,.15.14.15Z"/><path d="M109.51,72.32a.23.23,0,0,1-.24-.24V65.36c0-1.85-.84-2.93-2.57-2.93a2.58,2.58,0,0,0-2.64,2.81v6.84a.22.22,0,0,1-.24.24h-1.53a.22.22,0,0,1-.24-.24v-11a.23.23,0,0,1,.24-.24h1.53a.23.23,0,0,1,.24.24v1.06h0a3.62,3.62,0,0,1,3.21-1.56c2.5,0,4,1.7,4,4.32v7.2a.23.23,0,0,1-.24.24Z"/><path d="M127.1,72.32a.23.23,0,0,1-.24-.24V71h0a3.51,3.51,0,0,1-3.27,1.61,3.81,3.81,0,0,1-4-2.76,9.71,9.71,0,0,1-.4-3.27,9.59,9.59,0,0,1,.4-3.24,3.81,3.81,0,0,1,4-2.76,3.5,3.5,0,0,1,3.27,1.58h0v-5.9a.23.23,0,0,1,.24-.24h1.54a.23.23,0,0,1,.24.24V72.08a.23.23,0,0,1-.24.24ZM126.6,69a7.47,7.47,0,0,0,.26-2.4,7.59,7.59,0,0,0-.26-2.4,2.72,2.72,0,0,0-5.07,0,8.26,8.26,0,0,0-.26,2.4,8,8,0,0,0,.26,2.4,2.71,2.71,0,0,0,5.07,0Z"/><path d="M132,69.49a8.77,8.77,0,0,1-.38-2.93,8.65,8.65,0,0,1,.38-2.9,4.87,4.87,0,0,1,9.07,0,8.37,8.37,0,0,1,.39,2.9,8.48,8.48,0,0,1-.39,2.93,4.87,4.87,0,0,1-9.07,0Zm7.13-.58a7.6,7.6,0,0,0,.26-2.35,7.5,7.5,0,0,0-.26-2.33,2.77,2.77,0,0,0-5.19,0,7.5,7.5,0,0,0-.26,2.33,7.6,7.6,0,0,0,.26,2.35,2.77,2.77,0,0,0,5.19,0Z"/><path d="M143.45,70.86a.23.23,0,0,1,0-.34l1-1a.23.23,0,0,1,.34,0,5.6,5.6,0,0,0,3.55,1.32c1.68,0,2.52-.73,2.52-1.76s-.43-1.41-2.23-1.61l-1.23-.11c-2.25-.25-3.43-1.37-3.43-3.25,0-2.18,1.56-3.5,4.27-3.5a6.88,6.88,0,0,1,4.08,1.27.24.24,0,0,1,0,.34l-.82,1a.23.23,0,0,1-.33,0,6.07,6.07,0,0,0-3.1-.94c-1.44,0-2.18.65-2.18,1.59s.55,1.39,2.25,1.56l1.2.12c2.33.21,3.46,1.39,3.46,3.24,0,2.25-1.63,3.77-4.63,3.77A7.14,7.14,0,0,1,143.45,70.86Z"/><path d="M160.46,63.66a4.45,4.45,0,0,1,4.54-3.1,4.6,4.6,0,0,1,3.93,1.94c.08.12.08.22-.07.34l-1.06.86a.21.21,0,0,1-.33,0A2.82,2.82,0,0,0,165,62.43a2.49,2.49,0,0,0-2.57,1.8,10.66,10.66,0,0,0,0,4.68,2.49,2.49,0,0,0,2.57,1.8,2.82,2.82,0,0,0,2.47-1.24.21.21,0,0,1,.33,0l1.06.87c.15.12.15.21.07.33a4.61,4.61,0,0,1-3.93,2,4.46,4.46,0,0,1-4.54-3.1,9.81,9.81,0,0,1-.36-2.93A9.69,9.69,0,0,1,160.46,63.66Z"/><path d="M171,69.49a8.77,8.77,0,0,1-.38-2.93,8.65,8.65,0,0,1,.38-2.9,4.87,4.87,0,0,1,9.08,0,8.65,8.65,0,0,1,.38,2.9,8.77,8.77,0,0,1-.38,2.93,4.87,4.87,0,0,1-9.08,0Zm7.13-.58a7.26,7.26,0,0,0,.27-2.35,7.16,7.16,0,0,0-.27-2.33,2.76,2.76,0,0,0-5.18,0,7.45,7.45,0,0,0-.27,2.33,7.55,7.55,0,0,0,.27,2.35,2.76,2.76,0,0,0,5.18,0Z"/><path d="M182.47,70.86a.23.23,0,0,1,0-.34l1-1a.23.23,0,0,1,.34,0,5.6,5.6,0,0,0,3.55,1.32c1.68,0,2.52-.73,2.52-1.76s-.43-1.41-2.23-1.61l-1.23-.11c-2.25-.25-3.43-1.37-3.43-3.25,0-2.18,1.56-3.5,4.28-3.5a6.88,6.88,0,0,1,4.08,1.27.23.23,0,0,1,0,.34l-.81,1a.24.24,0,0,1-.34,0,6,6,0,0,0-3.09-.94c-1.44,0-2.19.65-2.19,1.59s.55,1.39,2.26,1.56l1.2.12c2.32.21,3.45,1.39,3.45,3.24,0,2.25-1.63,3.77-4.63,3.77A7.16,7.16,0,0,1,182.47,70.86Z"/><path d="M201.5,72.32a.23.23,0,0,1-.24-.24v-1h0a3.77,3.77,0,0,1-3.41,1.52c-2.19,0-3.87-1.13-3.87-3.46s1.68-3.55,4.49-3.55h2.62c.1,0,.14,0,.14-.15v-.84c0-1.58-.62-2.25-2.76-2.25a4.47,4.47,0,0,0-2.78.81c-.12.1-.27.1-.34,0L194.68,62a.25.25,0,0,1,0-.33,6.4,6.4,0,0,1,3.91-1.13c3.27,0,4.52,1.08,4.52,3.91v7.61a.23.23,0,0,1-.24.24Zm-.29-3.72V67.33c0-.1,0-.14-.14-.14h-2.31c-2,0-2.85.57-2.85,1.87s.86,1.8,2.4,1.8C200.11,70.86,201.21,70,201.21,68.6Z"/><path d="M205.72,70.86a.25.25,0,0,1,0-.34l1-1a.22.22,0,0,1,.33,0,5.65,5.65,0,0,0,3.56,1.32c1.68,0,2.52-.73,2.52-1.76s-.43-1.41-2.24-1.61l-1.22-.11c-2.26-.25-3.43-1.37-3.43-3.25,0-2.18,1.56-3.5,4.27-3.5a6.88,6.88,0,0,1,4.08,1.27.24.24,0,0,1,0,.34l-.82,1a.23.23,0,0,1-.33,0,6.07,6.07,0,0,0-3.1-.94c-1.44,0-2.18.65-2.18,1.59s.55,1.39,2.25,1.56l1.2.12c2.33.21,3.46,1.39,3.46,3.24,0,2.25-1.63,3.77-4.63,3.77A7.19,7.19,0,0,1,205.72,70.86Z"/><path d="M230.28,72.32a.22.22,0,0,1-.24-.24V71h0a3.49,3.49,0,0,1-3.26,1.61,3.8,3.8,0,0,1-4-2.76,9.68,9.68,0,0,1-.41-3.27,9.57,9.57,0,0,1,.41-3.24,3.8,3.8,0,0,1,4-2.76A3.48,3.48,0,0,1,230,62.14h0v-5.9a.23.23,0,0,1,.24-.24h1.53a.23.23,0,0,1,.24.24V72.08a.22.22,0,0,1-.24.24ZM229.77,69a7.41,7.41,0,0,0,.27-2.4,7.53,7.53,0,0,0-.27-2.4,2.71,2.71,0,0,0-5.06,0,8.21,8.21,0,0,0-.27,2.4,8,8,0,0,0,.27,2.4,2.7,2.7,0,0,0,5.06,0Z"/><path d="M235.7,58.23a.22.22,0,0,1-.24-.24V56.24a.23.23,0,0,1,.24-.24h1.63a.23.23,0,0,1,.24.24V58a.22.22,0,0,1-.24.24Zm.05,14.09a.22.22,0,0,1-.24-.24v-11a.23.23,0,0,1,.24-.24h1.53a.23.23,0,0,1,.24.24v11a.22.22,0,0,1-.24.24Z"/><path d="M241.6,72.32a.23.23,0,0,1-.24-.24V62.6c0-.1,0-.14-.14-.14h-1a.23.23,0,0,1-.24-.24V61.06a.23.23,0,0,1,.24-.24h1c.1,0,.14,0,.14-.14v-1c0-2.72,1.11-3.7,3.51-3.7h.89a.23.23,0,0,1,.24.24v1.39a.23.23,0,0,1-.24.24h-.63c-1.46,0-1.75.31-1.75,1.73v1.08a.12.12,0,0,0,.14.14h2.24a.23.23,0,0,1,.24.24v1.16a.23.23,0,0,1-.24.24h-2.24a.12.12,0,0,0-.14.14v9.48a.23.23,0,0,1-.24.24Z"/><path d="M247.77,69.47a9.1,9.1,0,0,1-.38-2.91,8.87,8.87,0,0,1,.36-2.9,4.83,4.83,0,0,1,9,0,10,10,0,0,1,.36,3.28.23.23,0,0,1-.26.25H249.6c-.1,0-.15,0-.15.14a4.3,4.3,0,0,0,.19,1.39,2.84,2.84,0,0,0,2.91,2,3.74,3.74,0,0,0,2.95-1.27.25.25,0,0,1,.36,0l1,.89a.22.22,0,0,1,0,.34,5.59,5.59,0,0,1-4.49,2A4.45,4.45,0,0,1,247.77,69.47Zm7.15-3.89a.13.13,0,0,0,.15-.15,4,4,0,0,0-.17-1.29,2.84,2.84,0,0,0-5.28,0,4,4,0,0,0-.17,1.29.13.13,0,0,0,.15.15Z"/><path d="M260.13,72.32a.23.23,0,0,1-.24-.24v-11a.23.23,0,0,1,.24-.24h1.54a.23.23,0,0,1,.24.24v1.18h0A3.2,3.2,0,0,1,265,60.56a3.58,3.58,0,0,1,2.35.86c.12.12.14.22.05.34l-.89,1.18a.21.21,0,0,1-.33,0,3.31,3.31,0,0,0-1.78-.55c-1.75,0-2.47,1.37-2.47,3.36v6.29a.23.23,0,0,1-.24.24Z"/><path d="M268.51,69.47a9.05,9.05,0,0,1-.39-2.91,8.87,8.87,0,0,1,.36-2.9,4.84,4.84,0,0,1,9,0,10,10,0,0,1,.36,3.28.24.24,0,0,1-.27.25h-7.27c-.1,0-.14,0-.14.14a4.3,4.3,0,0,0,.19,1.39,2.83,2.83,0,0,0,2.9,2,3.78,3.78,0,0,0,3-1.27.25.25,0,0,1,.36,0l1,.89a.22.22,0,0,1,0,.34,5.59,5.59,0,0,1-4.48,2A4.45,4.45,0,0,1,268.51,69.47Zm7.15-3.89c.1,0,.14,0,.14-.15a3.74,3.74,0,0,0-.17-1.29,2.83,2.83,0,0,0-5.27,0,3.74,3.74,0,0,0-.17,1.29c0,.1,0,.15.14.15Z"/><path d="M288.09,72.32a.23.23,0,0,1-.24-.24V65.36c0-1.85-.84-2.93-2.57-2.93a2.58,2.58,0,0,0-2.64,2.81v6.84a.22.22,0,0,1-.24.24h-1.53a.22.22,0,0,1-.24-.24v-11a.23.23,0,0,1,.24-.24h1.53a.23.23,0,0,1,.24.24v1.06h0a3.62,3.62,0,0,1,3.21-1.56c2.5,0,4,1.7,4,4.32v7.2a.23.23,0,0,1-.24.24Z"/><path d="M296.54,72.44c-2.23,0-3.1-1-3.1-3.26V62.6a.12.12,0,0,0-.14-.14h-1a.23.23,0,0,1-.24-.24V61.06a.23.23,0,0,1,.24-.24h1a.12.12,0,0,0,.14-.14V57.44a.23.23,0,0,1,.24-.24h1.54a.23.23,0,0,1,.24.24v3.24a.12.12,0,0,0,.14.14h1.83a.23.23,0,0,1,.24.24v1.16a.23.23,0,0,1-.24.24H295.6a.12.12,0,0,0-.14.14v6.5c0,1.16.43,1.47,1.46,1.47h.51a.23.23,0,0,1,.24.24V72.2a.23.23,0,0,1-.24.24Z"/><path d="M300,69.47a9.1,9.1,0,0,1-.38-2.91,8.87,8.87,0,0,1,.36-2.9,4.84,4.84,0,0,1,9,0,10,10,0,0,1,.36,3.28.24.24,0,0,1-.27.25h-7.27c-.1,0-.15,0-.15.14a4.27,4.27,0,0,0,.2,1.39,2.83,2.83,0,0,0,2.9,2,3.74,3.74,0,0,0,3-1.27.25.25,0,0,1,.36,0l1,.89a.22.22,0,0,1,0,.34,5.59,5.59,0,0,1-4.49,2A4.46,4.46,0,0,1,300,69.47Zm7.16-3.89c.09,0,.14,0,.14-.15a4,4,0,0,0-.17-1.29,2.84,2.84,0,0,0-5.28,0,4,4,0,0,0-.17,1.29.13.13,0,0,0,.15.15Z"/><path d="M311.32,70.86a.25.25,0,0,1,0-.34l1-1a.22.22,0,0,1,.33,0,5.63,5.63,0,0,0,3.56,1.32c1.68,0,2.51-.73,2.51-1.76s-.43-1.41-2.23-1.61l-1.22-.11c-2.26-.25-3.43-1.37-3.43-3.25,0-2.18,1.56-3.5,4.27-3.5a6.88,6.88,0,0,1,4.08,1.27.24.24,0,0,1,.05.34l-.82,1a.23.23,0,0,1-.33,0,6.07,6.07,0,0,0-3.1-.94c-1.44,0-2.19.65-2.19,1.59s.56,1.39,2.26,1.56l1.2.12c2.33.21,3.46,1.39,3.46,3.24,0,2.25-1.63,3.77-4.63,3.77A7.19,7.19,0,0,1,311.32,70.86Z"/><path d="M335.63,72.32a.23.23,0,0,1-.24-.24v-1h0A3.77,3.77,0,0,1,332,72.59c-2.18,0-3.86-1.13-3.86-3.46s1.68-3.55,4.49-3.55h2.61a.13.13,0,0,0,.15-.15v-.84c0-1.58-.63-2.25-2.76-2.25a4.48,4.48,0,0,0-2.79.81c-.12.1-.26.1-.33,0L328.82,62a.24.24,0,0,1,.05-.33,6.36,6.36,0,0,1,3.91-1.13c3.26,0,4.51,1.08,4.51,3.91v7.61a.22.22,0,0,1-.24.24Zm-.28-3.72V67.33c0-.1-.05-.14-.15-.14h-2.3c-2,0-2.86.57-2.86,1.87s.87,1.8,2.4,1.8C334.24,70.86,335.35,70,335.35,68.6Z"/><path d="M348.69,72.44c-2,0-2.81-1-2.81-3V56.24a.23.23,0,0,1,.24-.24h1.54a.23.23,0,0,1,.24.24V69.3c0,1,.36,1.27,1.15,1.27h.46a.23.23,0,0,1,.24.24V72.2a.23.23,0,0,1-.24.24Z"/><path d="M359.06,72.32a.22.22,0,0,1-.24-.24v-1h0a3.74,3.74,0,0,1-3.4,1.52c-2.19,0-3.87-1.13-3.87-3.46s1.68-3.55,4.49-3.55h2.62c.09,0,.14,0,.14-.15v-.84c0-1.58-.62-2.25-2.76-2.25a4.44,4.44,0,0,0-2.78.81c-.12.1-.27.1-.34,0L352.24,62a.24.24,0,0,1,.05-.33,6.38,6.38,0,0,1,3.91-1.13c3.27,0,4.51,1.08,4.51,3.91v7.61a.22.22,0,0,1-.24.24Zm-.29-3.72V67.33a.12.12,0,0,0-.14-.14h-2.31c-2,0-2.85.57-2.85,1.87s.86,1.8,2.4,1.8C357.67,70.86,358.77,70,358.77,68.6Z"/><path d="M372.43,72.32c-.17,0-.24-.09-.29-.24l-4.13-11c-.05-.14,0-.24.19-.24h1.66c.17,0,.24.08.31.24l3,8.26h0l2.91-8.26a.29.29,0,0,1,.29-.24H378c.17,0,.24.1.19.24l-4.1,11a.31.31,0,0,1-.32.24Z"/><path d="M379.91,69.47a9.1,9.1,0,0,1-.38-2.91,8.87,8.87,0,0,1,.36-2.9,4.83,4.83,0,0,1,9,0,10,10,0,0,1,.36,3.28.23.23,0,0,1-.26.25h-7.27c-.1,0-.15,0-.15.14a4.27,4.27,0,0,0,.2,1.39,2.83,2.83,0,0,0,2.9,2,3.74,3.74,0,0,0,2.95-1.27.25.25,0,0,1,.36,0l1,.89a.22.22,0,0,1,0,.34,5.59,5.59,0,0,1-4.49,2A4.45,4.45,0,0,1,379.91,69.47Zm7.16-3.89c.09,0,.14,0,.14-.15a4,4,0,0,0-.17-1.29,2.84,2.84,0,0,0-5.28,0,4,4,0,0,0-.17,1.29.13.13,0,0,0,.15.15Z"/><path d="M391.63,72.32a.22.22,0,0,1-.24-.24V70.81a.35.35,0,0,1,.09-.26l6.31-7.85v-.05h-5.85a.23.23,0,0,1-.24-.24V61.06a.23.23,0,0,1,.24-.24h8a.23.23,0,0,1,.24.24v1.35a.35.35,0,0,1-.09.26l-6.27,7.78v0H400a.22.22,0,0,1,.24.24v1.34a.22.22,0,0,1-.24.24Z"/></g></g></svg>