<svg xmlns="http://www.w3.org/2000/svg" viewBox="0 0 641.48 47.6"><title>15a</title><g id="Capa_2" data-name="Capa 2"><g id="respuestas_contorno" data-name="respuestas contorno"><path d="M1.06.66A.2.2,0,0,1,1.28.44h5c2.54,0,4.21,1.08,4.89,3.19a13,13,0,0,1,.4,4.29,13,13,0,0,1-.4,4.29c-.68,2.11-2.35,3.19-4.89,3.19h-5a.2.2,0,0,1-.22-.22ZM3.15,13.58H5.9c1.8,0,2.92-.6,3.41-2.05a10.89,10.89,0,0,0,.31-3.61,10.89,10.89,0,0,0-.31-3.61c-.49-1.45-1.61-2-3.41-2H3.15c-.09,0-.14,0-.14.13v11A.13.13,0,0,0,3.15,13.58Z"/><path d="M13.55,12.78a8.25,8.25,0,0,1-.35-2.66,8.17,8.17,0,0,1,.33-2.66,4.07,4.07,0,0,1,4.14-2.84A4.07,4.07,0,0,1,21.8,7.46a9.18,9.18,0,0,1,.33,3,.21.21,0,0,1-.24.22H15.22a.12.12,0,0,0-.13.14,3.9,3.9,0,0,0,.18,1.27,2.6,2.6,0,0,0,2.66,1.83,3.47,3.47,0,0,0,2.71-1.17.22.22,0,0,1,.33,0l.9.81a.2.2,0,0,1,0,.31,5.1,5.1,0,0,1-4.11,1.8A4.07,4.07,0,0,1,13.55,12.78Zm6.56-3.56c.09,0,.13,0,.13-.13a3.71,3.71,0,0,0-.15-1.19,2.39,2.39,0,0,0-2.42-1.65A2.37,2.37,0,0,0,15.25,7.9a3.68,3.68,0,0,0-.16,1.19.12.12,0,0,0,.13.13Z"/><path d="M26.75,15.51c-1.85,0-2.57-.88-2.57-2.77V.66A.21.21,0,0,1,24.4.44h1.41A.21.21,0,0,1,26,.66v12c0,.88.33,1.17,1,1.17h.42a.2.2,0,0,1,.22.22v1.27a.21.21,0,0,1-.22.22Z"/><path d="M29.61,2.49a.21.21,0,0,1-.22-.22V.66a.21.21,0,0,1,.22-.22h1.5a.21.21,0,0,1,.22.22V2.27a.21.21,0,0,1-.22.22Zm.05,12.91a.2.2,0,0,1-.22-.22V5.08a.2.2,0,0,1,.22-.22h1.4a.2.2,0,0,1,.22.22v10.1a.2.2,0,0,1-.22.22Z"/><path d="M47.48,15.4a.2.2,0,0,1-.22-.22V9c0-1.69-.77-2.68-2.36-2.68a2.37,2.37,0,0,0-2.42,2.57v6.27a.21.21,0,0,1-.22.22H40.85a.21.21,0,0,1-.22-.22V9c0-1.69-.77-2.68-2.35-2.68a2.36,2.36,0,0,0-2.42,2.57v6.27a.21.21,0,0,1-.22.22H34.23a.21.21,0,0,1-.22-.22V5.08a.21.21,0,0,1,.22-.22h1.41a.21.21,0,0,1,.22.22v1h0a3.35,3.35,0,0,1,2.95-1.43,3.3,3.3,0,0,1,3.08,1.65h0a3.94,3.94,0,0,1,3.41-1.65c2.45,0,3.77,1.56,3.77,4v6.6a.21.21,0,0,1-.23.22Z"/><path d="M51.9,2.49a.2.2,0,0,1-.22-.22V.66A.2.2,0,0,1,51.9.44h1.49a.2.2,0,0,1,.22.22V2.27a.2.2,0,0,1-.22.22Zm0,12.91a.21.21,0,0,1-.22-.22V5.08a.21.21,0,0,1,.22-.22h1.41a.21.21,0,0,1,.22.22v10.1a.21.21,0,0,1-.22.22Z"/><path d="M59.36,15.51c-2,0-2.84-.92-2.84-3v-6c0-.09-.05-.13-.14-.13H55.5a.21.21,0,0,1-.22-.22V5.08a.21.21,0,0,1,.22-.22h.88c.09,0,.14,0,.14-.13v-3a.2.2,0,0,1,.22-.22h1.4a.21.21,0,0,1,.23.22v3c0,.09,0,.13.13.13h1.67a.21.21,0,0,1,.22.22V6.14a.21.21,0,0,1-.22.22H58.5c-.09,0-.13,0-.13.13v6c0,1.06.39,1.35,1.34,1.35h.46a.2.2,0,0,1,.22.22v1.27a.21.21,0,0,1-.22.22Z"/><path d="M62.08,12.78a8.25,8.25,0,0,1-.35-2.66,8.17,8.17,0,0,1,.33-2.66,4.43,4.43,0,0,1,8.27,0,9.18,9.18,0,0,1,.33,3,.21.21,0,0,1-.24.22H63.75a.12.12,0,0,0-.13.14,3.9,3.9,0,0,0,.18,1.27,2.6,2.6,0,0,0,2.66,1.83,3.47,3.47,0,0,0,2.71-1.17.22.22,0,0,1,.33,0l.9.81a.2.2,0,0,1,0,.31,5.12,5.12,0,0,1-4.11,1.8A4.07,4.07,0,0,1,62.08,12.78Zm6.56-3.56c.09,0,.13,0,.13-.13a3.71,3.71,0,0,0-.15-1.19,2.6,2.6,0,0,0-4.84,0,3.68,3.68,0,0,0-.16,1.19.12.12,0,0,0,.13.13Z"/><path d="M76.87,12.78a8.2,8.2,0,0,1-.36-2.66,8.17,8.17,0,0,1,.33-2.66,4.44,4.44,0,0,1,8.28,0,9.18,9.18,0,0,1,.33,3,.21.21,0,0,1-.24.22H78.54c-.09,0-.13.05-.13.14a3.93,3.93,0,0,0,.17,1.27,2.61,2.61,0,0,0,2.66,1.83A3.44,3.44,0,0,0,84,12.76a.22.22,0,0,1,.33,0l.9.81a.21.21,0,0,1,0,.31,5.13,5.13,0,0,1-4.12,1.8A4.07,4.07,0,0,1,76.87,12.78Zm6.55-3.56c.09,0,.13,0,.13-.13A3.71,3.71,0,0,0,83.4,7.9a2.6,2.6,0,0,0-4.84,0,3.71,3.71,0,0,0-.15,1.19c0,.09,0,.13.13.13Z"/><path d="M90.07,15.51c-1.85,0-2.58-.88-2.58-2.77V.66a.21.21,0,0,1,.22-.22h1.41a.21.21,0,0,1,.22.22v12c0,.88.33,1.17,1.06,1.17h.41A.2.2,0,0,1,91,14v1.27a.2.2,0,0,1-.22.22Z"/><path d="M103.53,15.4a.21.21,0,0,1-.22-.22v-.92h0a3.47,3.47,0,0,1-3.13,1.38c-2,0-3.54-1-3.54-3.16s1.54-3.26,4.11-3.26h2.4c.09,0,.14,0,.14-.13V8.32c0-1.45-.58-2.07-2.54-2.07A4.12,4.12,0,0,0,98.18,7c-.11.08-.24.08-.3,0l-.6-1a.24.24,0,0,1,0-.31,5.92,5.92,0,0,1,3.59-1c3,0,4.14,1,4.14,3.59v7a.21.21,0,0,1-.22.22ZM103.27,12V10.83a.13.13,0,0,0-.14-.14H101c-1.82,0-2.62.53-2.62,1.72s.8,1.65,2.2,1.65C102.25,14.06,103.27,13.29,103.27,12Zm-3-8.84c-.13,0-.19-.09-.13-.22L101.83.22a.4.4,0,0,1,.38-.22h1.45c.13,0,.2.11.11.22l-2,2.71a.44.44,0,0,1-.42.22Z"/><path d="M107.91,15.4a.2.2,0,0,1-.22-.22V5.08a.2.2,0,0,1,.22-.22h1.4a.21.21,0,0,1,.23.22V6.16h0a2.93,2.93,0,0,1,2.79-1.54,3.26,3.26,0,0,1,2.16.79c.11.11.13.2,0,.31l-.81,1.08a.2.2,0,0,1-.31,0,3,3,0,0,0-1.63-.5c-1.6,0-2.26,1.25-2.26,3.08v5.76a.21.21,0,0,1-.23.22Z"/><path d="M115.14,12.78a8.25,8.25,0,0,1-.35-2.66,8.17,8.17,0,0,1,.33-2.66,4.44,4.44,0,0,1,8.28,0,9.18,9.18,0,0,1,.33,3c0,.14-.09.22-.25.22h-6.66a.13.13,0,0,0-.14.14,3.9,3.9,0,0,0,.18,1.27,2.6,2.6,0,0,0,2.66,1.83,3.44,3.44,0,0,0,2.71-1.17.22.22,0,0,1,.33,0l.9.81a.2.2,0,0,1,0,.31,5.09,5.09,0,0,1-4.11,1.8A4.08,4.08,0,0,1,115.14,12.78Zm6.56-3.56c.09,0,.13,0,.13-.13a3.71,3.71,0,0,0-.15-1.19,2.6,2.6,0,0,0-4.84,0,3.68,3.68,0,0,0-.16,1.19c0,.09,0,.13.14.13Z"/><path d="M132.19,15.4a.21.21,0,0,1-.22-.22v-.92h0a3.45,3.45,0,0,1-3.12,1.38c-2,0-3.54-1-3.54-3.16s1.54-3.26,4.11-3.26h2.4c.09,0,.13,0,.13-.13V8.32c0-1.45-.57-2.07-2.53-2.07a4.07,4.07,0,0,0-2.55.75.2.2,0,0,1-.31,0L126,6a.23.23,0,0,1,0-.31,5.88,5.88,0,0,1,3.59-1c3,0,4.13,1,4.13,3.59v7a.2.2,0,0,1-.22.22ZM131.93,12V10.83c0-.09,0-.14-.13-.14h-2.11c-1.83,0-2.62.53-2.62,1.72s.79,1.65,2.2,1.65C130.92,14.06,131.93,13.29,131.93,12Z"/><path d="M147.35,15.4a.21.21,0,0,1-.22-.22v-1h0a3.2,3.2,0,0,1-3,1.47,3.47,3.47,0,0,1-3.63-2.53,8.62,8.62,0,0,1-.38-3,8.61,8.61,0,0,1,.38-3,3.48,3.48,0,0,1,3.63-2.53,3.21,3.21,0,0,1,3,1.45h0V.66a.21.21,0,0,1,.22-.22h1.41a.21.21,0,0,1,.22.22V15.18a.21.21,0,0,1-.22.22Zm-.46-3.08a6.63,6.63,0,0,0,.24-2.2,6.79,6.79,0,0,0-.24-2.2,2.49,2.49,0,0,0-4.64,0,7.39,7.39,0,0,0-.24,2.2,7.18,7.18,0,0,0,.24,2.2,2.48,2.48,0,0,0,4.64,0Z"/><path d="M151.42,12.78a8.25,8.25,0,0,1-.35-2.66,8.17,8.17,0,0,1,.33-2.66,4.43,4.43,0,0,1,8.27,0,9.18,9.18,0,0,1,.33,3,.21.21,0,0,1-.24.22h-6.67a.12.12,0,0,0-.13.14,3.9,3.9,0,0,0,.18,1.27,2.6,2.6,0,0,0,2.66,1.83,3.47,3.47,0,0,0,2.71-1.17.22.22,0,0,1,.33,0l.9.81a.2.2,0,0,1,0,.31,5.12,5.12,0,0,1-4.11,1.8A4.07,4.07,0,0,1,151.42,12.78ZM158,9.22c.09,0,.13,0,.13-.13A3.71,3.71,0,0,0,158,7.9a2.6,2.6,0,0,0-4.84,0A3.68,3.68,0,0,0,153,9.09a.12.12,0,0,0,.13.13Z"/><path d="M169.55,15.51c-2.05,0-2.84-.92-2.84-3v-6c0-.09,0-.13-.13-.13h-.88a.21.21,0,0,1-.22-.22V5.08a.21.21,0,0,1,.22-.22h.88c.09,0,.13,0,.13-.13v-3a.21.21,0,0,1,.22-.22h1.41a.21.21,0,0,1,.22.22v3c0,.09,0,.13.13.13h1.67a.2.2,0,0,1,.22.22V6.14a.2.2,0,0,1-.22.22h-1.67c-.09,0-.13,0-.13.13v6c0,1.06.4,1.35,1.34,1.35h.46a.2.2,0,0,1,.22.22v1.27a.2.2,0,0,1-.22.22Z"/><path d="M172.78,15.4a.21.21,0,0,1-.22-.22V5.08a.21.21,0,0,1,.22-.22h1.41a.21.21,0,0,1,.22.22V6.16h0a2.94,2.94,0,0,1,2.8-1.54,3.24,3.24,0,0,1,2.15.79c.11.11.14.2.05.31l-.82,1.08a.2.2,0,0,1-.31,0,3,3,0,0,0-1.62-.5c-1.61,0-2.27,1.25-2.27,3.08v5.76a.21.21,0,0,1-.22.22Z"/><path d="M186.56,15.4a.2.2,0,0,1-.22-.22v-.92h0a3.45,3.45,0,0,1-3.12,1.38c-2,0-3.54-1-3.54-3.16s1.54-3.26,4.11-3.26h2.4c.09,0,.13,0,.13-.13V8.32c0-1.45-.57-2.07-2.53-2.07a4.09,4.09,0,0,0-2.55.75.2.2,0,0,1-.31,0l-.59-1a.23.23,0,0,1,0-.31,5.9,5.9,0,0,1,3.59-1c3,0,4.13,1,4.13,3.59v7a.2.2,0,0,1-.22.22ZM186.29,12V10.83c0-.09,0-.14-.13-.14h-2.11c-1.83,0-2.62.53-2.62,1.72s.79,1.65,2.2,1.65C185.28,14.06,186.29,13.29,186.29,12Z"/><path d="M190.93,15.4a.21.21,0,0,1-.22-.22V.66a.21.21,0,0,1,.22-.22h1.41a.21.21,0,0,1,.22.22V6.07h0a3.22,3.22,0,0,1,3-1.45,3.49,3.49,0,0,1,3.63,2.53,8.89,8.89,0,0,1,.37,3,8.9,8.9,0,0,1-.37,3,3.48,3.48,0,0,1-3.63,2.53,3.21,3.21,0,0,1-3-1.47h0v1a.21.21,0,0,1-.22.22Zm6.52-3.08a7.51,7.51,0,0,0,.24-2.2,7.74,7.74,0,0,0-.24-2.2,2.5,2.5,0,0,0-4.65,0,7.08,7.08,0,0,0-.24,2.2,6.92,6.92,0,0,0,.24,2.2,2.48,2.48,0,0,0,4.65,0Z"/><path d="M208.05,15.4a.21.21,0,0,1-.22-.22v-.92h0a3.47,3.47,0,0,1-3.13,1.38c-2,0-3.54-1-3.54-3.16s1.54-3.26,4.11-3.26h2.4c.09,0,.14,0,.14-.13V8.32c0-1.45-.58-2.07-2.54-2.07A4.12,4.12,0,0,0,202.7,7a.2.2,0,0,1-.31,0l-.59-1a.24.24,0,0,1,0-.31,5.92,5.92,0,0,1,3.59-1c3,0,4.14,1,4.14,3.59v7a.21.21,0,0,1-.22.22ZM207.79,12V10.83a.13.13,0,0,0-.14-.14h-2.11c-1.83,0-2.62.53-2.62,1.72s.79,1.65,2.2,1.65C206.77,14.06,207.79,13.29,207.79,12Z"/><path d="M210.47,19.36a.21.21,0,0,1-.22-.22V17.87a.2.2,0,0,1,.22-.22h.35c1,0,1.39-.29,1.39-1.41V5.08a.2.2,0,0,1,.22-.22h1.4a.2.2,0,0,1,.22.22V16.19c0,2.27-1,3.17-3.14,3.17Zm1.91-16.87a.21.21,0,0,1-.22-.22V.66a.21.21,0,0,1,.22-.22h1.5a.21.21,0,0,1,.22.22V2.27a.21.21,0,0,1-.22.22Z"/><path d="M216.5,12.81a7.75,7.75,0,0,1-.36-2.69,7.64,7.64,0,0,1,.36-2.66,4.46,4.46,0,0,1,8.31,0,7.64,7.64,0,0,1,.36,2.66,7.75,7.75,0,0,1-.36,2.69,4.47,4.47,0,0,1-8.31,0Zm6.53-.53a6.82,6.82,0,0,0,.24-2.16A6.61,6.61,0,0,0,223,8a2.53,2.53,0,0,0-4.75,0,6.61,6.61,0,0,0-.24,2.13,6.82,6.82,0,0,0,.24,2.16,2.53,2.53,0,0,0,4.75,0Z"/><path d="M227.21,13.07h1.54a.21.21,0,0,1,.22.22v2.05a.68.68,0,0,1-.13.48l-1.37,1.81a.35.35,0,0,1-.28.15.2.2,0,0,1-.2-.2V13.29A.21.21,0,0,1,227.21,13.07Z"/><path d="M241.75,15.4a.21.21,0,0,1-.22-.22v-.92h0a3.45,3.45,0,0,1-3.12,1.38c-2,0-3.55-1-3.55-3.16s1.54-3.26,4.12-3.26h2.4c.09,0,.13,0,.13-.13V8.32c0-1.45-.57-2.07-2.53-2.07a4.07,4.07,0,0,0-2.55.75.2.2,0,0,1-.31,0l-.6-1a.24.24,0,0,1,.05-.31,5.87,5.87,0,0,1,3.58-1c3,0,4.14,1,4.14,3.59v7a.21.21,0,0,1-.22.22ZM241.49,12V10.83c0-.09,0-.14-.13-.14h-2.12c-1.82,0-2.61.53-2.61,1.72s.79,1.65,2.2,1.65C240.48,14.06,241.49,13.29,241.49,12Z"/><path d="M245.18,14.06a.23.23,0,0,1,0-.31l.91-1a.22.22,0,0,1,.3,0A5.12,5.12,0,0,0,249.65,14c1.54,0,2.31-.66,2.31-1.6s-.4-1.3-2.05-1.48l-1.12-.11c-2.07-.22-3.14-1.25-3.14-3,0-2,1.43-3.21,3.91-3.21a6.3,6.3,0,0,1,3.74,1.17.21.21,0,0,1,0,.3l-.75,1a.21.21,0,0,1-.31,0,5.54,5.54,0,0,0-2.84-.85c-1.32,0-2,.59-2,1.45S248,9,249.52,9.11l1.1.11c2.13.2,3.17,1.28,3.17,3,0,2.07-1.5,3.45-4.25,3.45A6.55,6.55,0,0,1,245.18,14.06Z"/><path d="M255.52,12.78a8.25,8.25,0,0,1-.35-2.66,8.17,8.17,0,0,1,.33-2.66,4.44,4.44,0,0,1,8.28,0,9.18,9.18,0,0,1,.33,3c0,.14-.09.22-.25.22H257.2a.13.13,0,0,0-.14.14,3.9,3.9,0,0,0,.18,1.27,2.6,2.6,0,0,0,2.66,1.83,3.44,3.44,0,0,0,2.71-1.17.22.22,0,0,1,.33,0l.9.81a.2.2,0,0,1,0,.31,5.09,5.09,0,0,1-4.11,1.8A4.08,4.08,0,0,1,255.52,12.78Zm6.56-3.56c.09,0,.13,0,.13-.13a3.71,3.71,0,0,0-.15-1.19,2.6,2.6,0,0,0-4.84,0,3.68,3.68,0,0,0-.16,1.19c0,.09.05.13.14.13Z"/><path d="M266,18a.19.19,0,0,1,0-.31l.9-.9a.21.21,0,0,1,.33,0,3.5,3.5,0,0,0,2.48,1.06c1.74,0,2.67-.9,2.67-2.84V13.82h0a3,3,0,0,1-2.92,1.45,3.47,3.47,0,0,1-3.55-2.55,8.34,8.34,0,0,1-.35-2.77,8.4,8.4,0,0,1,.35-2.78,3.47,3.47,0,0,1,3.55-2.55,3,3,0,0,1,2.92,1.45h0v-1a.2.2,0,0,1,.22-.22H274a.2.2,0,0,1,.22.22v9.86c0,3-1.62,4.66-4.59,4.66A4.76,4.76,0,0,1,266,18Zm6.16-6a6.24,6.24,0,0,0,.25-2,6.34,6.34,0,0,0-.25-2,2.37,2.37,0,0,0-4.46,0,6.48,6.48,0,0,0-.27,2,6.37,6.37,0,0,0,.27,2,2.15,2.15,0,0,0,2.22,1.59A2.17,2.17,0,0,0,272.13,12Z"/><path d="M283.57,15.4a.21.21,0,0,1-.22-.22v-1h0a3.21,3.21,0,0,1-2.88,1.45c-2.31,0-3.65-1.58-3.65-4V5.08a.2.2,0,0,1,.22-.22h1.41a.21.21,0,0,1,.22.22v6.14c0,1.72.77,2.71,2.33,2.71a2.34,2.34,0,0,0,2.37-2.6V5.08a.21.21,0,0,1,.22-.22H285a.21.21,0,0,1,.22.22v10.1a.21.21,0,0,1-.22.22Zm-3.3-12.25c-.13,0-.19-.09-.13-.22L281.81.22a.4.4,0,0,1,.38-.22h1.45c.13,0,.2.11.11.22l-2,2.71a.45.45,0,0,1-.42.22Z"/><path d="M288.15,15.4a.21.21,0,0,1-.22-.22V5.08a.21.21,0,0,1,.22-.22h1.41a.21.21,0,0,1,.22.22V6.16h0a2.94,2.94,0,0,1,2.79-1.54,3.26,3.26,0,0,1,2.16.79c.11.11.13.2,0,.31L294,6.8a.2.2,0,0,1-.31,0,3,3,0,0,0-1.63-.5c-1.6,0-2.26,1.25-2.26,3.08v5.76a.21.21,0,0,1-.22.22Z"/><path d="M295.39,12.78a8.25,8.25,0,0,1-.35-2.66,7.9,7.9,0,0,1,.33-2.66,4.43,4.43,0,0,1,8.27,0,9.18,9.18,0,0,1,.33,3,.21.21,0,0,1-.24.22h-6.67c-.09,0-.13.05-.13.14a3.93,3.93,0,0,0,.17,1.27,2.62,2.62,0,0,0,2.67,1.83,3.43,3.43,0,0,0,2.7-1.17.22.22,0,0,1,.33,0l.9.81a.21.21,0,0,1,0,.31,5.13,5.13,0,0,1-4.12,1.8A4.07,4.07,0,0,1,295.39,12.78Zm6.55-3.56c.09,0,.14,0,.14-.13a3.68,3.68,0,0,0-.16-1.19,2.6,2.6,0,0,0-4.84,0,3.71,3.71,0,0,0-.15,1.19c0,.09,0,.13.13.13Z"/><path d="M305.33,14.06a.21.21,0,0,1,0-.31l.9-1a.23.23,0,0,1,.31,0A5.07,5.07,0,0,0,309.8,14c1.54,0,2.31-.66,2.31-1.6s-.4-1.3-2.05-1.48l-1.12-.11c-2.07-.22-3.15-1.25-3.15-3,0-2,1.43-3.21,3.92-3.21a6.3,6.3,0,0,1,3.74,1.17c.11.06.11.19,0,.3l-.74,1a.21.21,0,0,1-.31,0,5.57,5.57,0,0,0-2.84-.85c-1.32,0-2,.59-2,1.45s.5,1.28,2.06,1.43l1.11.11c2.13.2,3.16,1.28,3.16,3,0,2.07-1.49,3.45-4.24,3.45A6.55,6.55,0,0,1,305.33,14.06Z"/><path d="M315.67,12.78a8.25,8.25,0,0,1-.35-2.66,8.17,8.17,0,0,1,.33-2.66,4.43,4.43,0,0,1,8.27,0,9.18,9.18,0,0,1,.33,3,.21.21,0,0,1-.24.22h-6.67c-.09,0-.13.05-.13.14a3.9,3.9,0,0,0,.18,1.27,2.6,2.6,0,0,0,2.66,1.83,3.43,3.43,0,0,0,2.7-1.17c.12-.11.22-.13.33,0l.91.81a.2.2,0,0,1,0,.31,5.13,5.13,0,0,1-4.12,1.8A4.07,4.07,0,0,1,315.67,12.78Zm6.56-3.56a.12.12,0,0,0,.13-.13,4,4,0,0,0-.15-1.19,2.61,2.61,0,0,0-4.85,0,3.71,3.71,0,0,0-.15,1.19c0,.09,0,.13.13.13Z"/><path d="M337.34,15.4a.21.21,0,0,1-.22-.22v-1h0a3.2,3.2,0,0,1-3,1.47,3.47,3.47,0,0,1-3.63-2.53,8.62,8.62,0,0,1-.38-3,8.61,8.61,0,0,1,.38-3,3.48,3.48,0,0,1,3.63-2.53,3.21,3.21,0,0,1,3,1.45h0V.66a.21.21,0,0,1,.22-.22h1.41a.21.21,0,0,1,.22.22V15.18a.21.21,0,0,1-.22.22Zm-.46-3.08a6.92,6.92,0,0,0,.24-2.2,7.08,7.08,0,0,0-.24-2.2,2.49,2.49,0,0,0-4.64,0,7.35,7.35,0,0,0-.25,2.2,7.14,7.14,0,0,0,.25,2.2,2.48,2.48,0,0,0,4.64,0Z"/><path d="M341.41,12.78a8.25,8.25,0,0,1-.35-2.66,8.17,8.17,0,0,1,.33-2.66,4.43,4.43,0,0,1,8.27,0,9.18,9.18,0,0,1,.33,3,.21.21,0,0,1-.24.22h-6.67c-.09,0-.13.05-.13.14a3.9,3.9,0,0,0,.18,1.27,2.6,2.6,0,0,0,2.66,1.83,3.43,3.43,0,0,0,2.7-1.17.22.22,0,0,1,.33,0l.91.81a.2.2,0,0,1,0,.31,5.13,5.13,0,0,1-4.12,1.8A4.07,4.07,0,0,1,341.41,12.78ZM348,9.22a.12.12,0,0,0,.13-.13,3.68,3.68,0,0,0-.16-1.19,2.6,2.6,0,0,0-4.84,0A3.71,3.71,0,0,0,343,9.09c0,.09,0,.13.13.13Z"/><path d="M363.32,15.4a.21.21,0,0,1-.22-.22V9c0-1.69-.77-2.68-2.35-2.68a2.36,2.36,0,0,0-2.42,2.57v6.27a.21.21,0,0,1-.22.22H356.7a.21.21,0,0,1-.22-.22V.66a.21.21,0,0,1,.22-.22h1.41a.21.21,0,0,1,.22.22V6.05h0a3.35,3.35,0,0,1,2.95-1.43c2.29,0,3.65,1.56,3.65,4v6.6a.21.21,0,0,1-.22.22Z"/><path d="M374,15.4a.21.21,0,0,1-.22-.22v-.92h0a3.47,3.47,0,0,1-3.13,1.38c-2,0-3.54-1-3.54-3.16s1.54-3.26,4.11-3.26h2.4c.09,0,.13,0,.13-.13V8.32c0-1.45-.57-2.07-2.53-2.07A4.09,4.09,0,0,0,368.6,7a.2.2,0,0,1-.31,0l-.59-1a.23.23,0,0,1,0-.31,5.92,5.92,0,0,1,3.59-1c3,0,4.14,1,4.14,3.59v7a.21.21,0,0,1-.22.22ZM373.68,12V10.83c0-.09,0-.14-.13-.14h-2.11c-1.83,0-2.62.53-2.62,1.72s.79,1.65,2.2,1.65C372.67,14.06,373.68,13.29,373.68,12Z"/><path d="M377.8,7.46A4.07,4.07,0,0,1,382,4.62a4.22,4.22,0,0,1,3.6,1.78c.07.11.07.2-.06.31l-1,.79a.2.2,0,0,1-.31,0A2.58,2.58,0,0,0,382,6.34,2.29,2.29,0,0,0,379.6,8a6.89,6.89,0,0,0-.24,2.13,7,7,0,0,0,.24,2.16A2.29,2.29,0,0,0,382,13.93a2.59,2.59,0,0,0,2.26-1.15.2.2,0,0,1,.31,0l1,.79c.13.11.13.2.06.31a4.22,4.22,0,0,1-3.6,1.78,4.08,4.08,0,0,1-4.16-2.83,9.08,9.08,0,0,1-.33-2.69A9,9,0,0,1,377.8,7.46Z"/><path d="M387.06,12.78a8.25,8.25,0,0,1-.35-2.66A8.17,8.17,0,0,1,387,7.46a4.43,4.43,0,0,1,8.27,0,9.18,9.18,0,0,1,.33,3,.21.21,0,0,1-.24.22h-6.67c-.09,0-.13.05-.13.14a3.9,3.9,0,0,0,.18,1.27,2.6,2.6,0,0,0,2.66,1.83,3.43,3.43,0,0,0,2.7-1.17.22.22,0,0,1,.33,0l.91.81a.2.2,0,0,1,0,.31,5.13,5.13,0,0,1-4.12,1.8A4.07,4.07,0,0,1,387.06,12.78Zm6.56-3.56a.12.12,0,0,0,.13-.13,3.68,3.68,0,0,0-.16-1.19,2.6,2.6,0,0,0-4.84,0,3.71,3.71,0,0,0-.15,1.19c0,.09,0,.13.13.13Z"/><path d="M398,15.4a.21.21,0,0,1-.22-.22V5.08a.21.21,0,0,1,.22-.22h1.41a.21.21,0,0,1,.22.22V6.16h0a2.93,2.93,0,0,1,2.79-1.54,3.26,3.26,0,0,1,2.16.79c.11.11.13.2,0,.31l-.81,1.08a.2.2,0,0,1-.31,0,3,3,0,0,0-1.63-.5c-1.6,0-2.26,1.25-2.26,3.08v5.76a.21.21,0,0,1-.22.22Z"/><path d="M405,14.06a.21.21,0,0,1,0-.31l.9-1a.23.23,0,0,1,.31,0A5.07,5.07,0,0,0,409.43,14c1.54,0,2.31-.66,2.31-1.6s-.39-1.3-2-1.48l-1.13-.11c-2.06-.22-3.14-1.25-3.14-3,0-2,1.43-3.21,3.91-3.21a6.28,6.28,0,0,1,3.74,1.17c.12.06.12.19.05.3l-.75,1a.21.21,0,0,1-.31,0,5.54,5.54,0,0,0-2.84-.85c-1.32,0-2,.59-2,1.45s.51,1.28,2.07,1.43l1.1.11c2.14.2,3.17,1.28,3.17,3,0,2.07-1.5,3.45-4.25,3.45A6.52,6.52,0,0,1,405,14.06Z"/><path d="M415.31,12.78a8.2,8.2,0,0,1-.36-2.66,8.17,8.17,0,0,1,.33-2.66,4.44,4.44,0,0,1,8.28,0,9.18,9.18,0,0,1,.33,3c0,.14-.09.22-.25.22H417c-.09,0-.13.05-.13.14A3.93,3.93,0,0,0,417,12.1a2.61,2.61,0,0,0,2.66,1.83,3.44,3.44,0,0,0,2.71-1.17.22.22,0,0,1,.33,0l.9.81a.2.2,0,0,1,0,.31,5.09,5.09,0,0,1-4.11,1.8A4.07,4.07,0,0,1,415.31,12.78Zm6.55-3.56c.09,0,.13,0,.13-.13a3.71,3.71,0,0,0-.15-1.19,2.6,2.6,0,0,0-4.84,0,3.71,3.71,0,0,0-.15,1.19c0,.09,0,.13.13.13Z"/><path d="M433.19,15.4a.26.26,0,0,1-.26-.22l-3.79-10.1c0-.13,0-.22.18-.22h1.52c.15,0,.22.07.28.22l2.73,7.57h0l2.66-7.57a.26.26,0,0,1,.26-.22h1.5c.15,0,.22.09.17.22l-3.76,10.1a.28.28,0,0,1-.28.22Z"/><path d="M440.17,2.49a.2.2,0,0,1-.22-.22V.66a.2.2,0,0,1,.22-.22h1.49a.21.21,0,0,1,.22.22V2.27a.21.21,0,0,1-.22.22Zm0,12.91a.21.21,0,0,1-.22-.22V5.08a.21.21,0,0,1,.22-.22h1.41a.21.21,0,0,1,.22.22v10.1a.21.21,0,0,1-.22.22Z"/><path d="M443.84,14.06a.21.21,0,0,1,0-.31l.9-1a.23.23,0,0,1,.31,0A5.07,5.07,0,0,0,448.3,14c1.54,0,2.32-.66,2.32-1.6s-.4-1.3-2.05-1.48l-1.12-.11c-2.07-.22-3.15-1.25-3.15-3,0-2,1.43-3.21,3.92-3.21A6.3,6.3,0,0,1,452,5.79c.11.06.11.19,0,.3l-.75,1a.2.2,0,0,1-.3,0,5.6,5.6,0,0,0-2.84-.85c-1.32,0-2,.59-2,1.45s.51,1.28,2.07,1.43l1.1.11c2.14.2,3.17,1.28,3.17,3,0,2.07-1.49,3.45-4.25,3.45A6.54,6.54,0,0,1,443.84,14.06Z"/><path d="M454.64,2.49a.21.21,0,0,1-.22-.22V.66a.21.21,0,0,1,.22-.22h1.5a.21.21,0,0,1,.22.22V2.27a.21.21,0,0,1-.22.22Zm0,12.91a.21.21,0,0,1-.22-.22V5.08a.21.21,0,0,1,.22-.22h1.41a.21.21,0,0,1,.22.22v10.1a.21.21,0,0,1-.22.22Z"/><path d="M459.26,15.4a.21.21,0,0,1-.22-.22V.66a.21.21,0,0,1,.22-.22h1.41a.21.21,0,0,1,.22.22V6.07h0a3.21,3.21,0,0,1,3-1.45,3.48,3.48,0,0,1,3.63,2.53,8.61,8.61,0,0,1,.38,3,8.62,8.62,0,0,1-.38,3,3.47,3.47,0,0,1-3.63,2.53,3.2,3.2,0,0,1-3-1.47h0v1a.21.21,0,0,1-.22.22Zm6.51-3.08a7.18,7.18,0,0,0,.24-2.2,7.39,7.39,0,0,0-.24-2.2,2.49,2.49,0,0,0-4.64,0,6.79,6.79,0,0,0-.24,2.2,6.63,6.63,0,0,0,.24,2.2,2.48,2.48,0,0,0,4.64,0Z"/><path d="M472.53,15.51c-1.85,0-2.58-.88-2.58-2.77V.66a.21.21,0,0,1,.22-.22h1.41a.21.21,0,0,1,.22.22v12c0,.88.33,1.17,1.06,1.17h.41a.2.2,0,0,1,.22.22v1.27a.2.2,0,0,1-.22.22Z"/><path d="M474.92,12.78a8.25,8.25,0,0,1-.35-2.66,8.17,8.17,0,0,1,.33-2.66,4.43,4.43,0,0,1,8.27,0,9.18,9.18,0,0,1,.33,3c0,.14-.08.22-.24.22H476.6a.13.13,0,0,0-.14.14,3.9,3.9,0,0,0,.18,1.27,2.6,2.6,0,0,0,2.66,1.83A3.44,3.44,0,0,0,482,12.76a.22.22,0,0,1,.33,0l.9.81a.2.2,0,0,1,0,.31,5.09,5.09,0,0,1-4.11,1.8A4.08,4.08,0,0,1,474.92,12.78Zm6.56-3.56c.09,0,.13,0,.13-.13a3.71,3.71,0,0,0-.15-1.19,2.6,2.6,0,0,0-4.84,0,3.68,3.68,0,0,0-.16,1.19c0,.09.05.13.14.13Z"/><path d="M490.21,19.36a.21.21,0,0,1-.22-.22V5.08a.21.21,0,0,1,.22-.22h1.41a.21.21,0,0,1,.22.22v1h0a3.22,3.22,0,0,1,3-1.45,3.49,3.49,0,0,1,3.63,2.53,8.89,8.89,0,0,1,.37,3,8.9,8.9,0,0,1-.37,3,3.48,3.48,0,0,1-3.63,2.53,3.21,3.21,0,0,1-3-1.47h0v5a.21.21,0,0,1-.22.22Zm6.52-7a7.51,7.51,0,0,0,.24-2.2,7.74,7.74,0,0,0-.24-2.2,2.5,2.5,0,0,0-4.65,0,7.08,7.08,0,0,0-.24,2.2,6.92,6.92,0,0,0,.24,2.2,2.48,2.48,0,0,0,4.65,0Z"/><path d="M507.33,15.4a.21.21,0,0,1-.22-.22v-.92h0A3.47,3.47,0,0,1,504,15.64c-2,0-3.54-1-3.54-3.16s1.54-3.26,4.12-3.26h2.39c.09,0,.14,0,.14-.13V8.32c0-1.45-.58-2.07-2.53-2.07A4.13,4.13,0,0,0,502,7c-.11.08-.24.08-.3,0l-.6-1a.24.24,0,0,1,.05-.31,5.87,5.87,0,0,1,3.58-1c3,0,4.14,1,4.14,3.59v7a.21.21,0,0,1-.22.22ZM507.07,12V10.83a.13.13,0,0,0-.14-.14h-2.11c-1.82,0-2.62.53-2.62,1.72s.8,1.65,2.2,1.65C506.05,14.06,507.07,13.29,507.07,12Z"/><path d="M511.71,15.4a.21.21,0,0,1-.22-.22V5.08a.21.21,0,0,1,.22-.22h1.41a.21.21,0,0,1,.22.22V6.16h0a2.93,2.93,0,0,1,2.79-1.54,3.26,3.26,0,0,1,2.16.79c.11.11.13.2,0,.31l-.81,1.08a.2.2,0,0,1-.31,0,3,3,0,0,0-1.63-.5c-1.6,0-2.26,1.25-2.26,3.08v5.76a.21.21,0,0,1-.22.22Z"/><path d="M525.48,15.4a.21.21,0,0,1-.22-.22v-.92h0a3.47,3.47,0,0,1-3.13,1.38c-2,0-3.54-1-3.54-3.16s1.54-3.26,4.12-3.26h2.39c.09,0,.13,0,.13-.13V8.32c0-1.45-.57-2.07-2.52-2.07a4.13,4.13,0,0,0-2.56.75.2.2,0,0,1-.31,0l-.59-1a.23.23,0,0,1,0-.31,5.87,5.87,0,0,1,3.58-1c3,0,4.14,1,4.14,3.59v7a.21.21,0,0,1-.22.22ZM525.21,12V10.83c0-.09,0-.14-.13-.14H523c-1.83,0-2.62.53-2.62,1.72s.79,1.65,2.2,1.65C524.2,14.06,525.21,13.29,525.21,12Z"/><path d="M540.64,19.36a.21.21,0,0,1-.22-.22v-5h0a3.21,3.21,0,0,1-3,1.47,3.48,3.48,0,0,1-3.63-2.53,8.9,8.9,0,0,1-.37-3,8.89,8.89,0,0,1,.37-3,3.49,3.49,0,0,1,3.63-2.53,3.22,3.22,0,0,1,3,1.45h0v-1a.21.21,0,0,1,.22-.22h1.41a.21.21,0,0,1,.22.22V19.14a.21.21,0,0,1-.22.22Zm-.46-7a6.92,6.92,0,0,0,.24-2.2,7.08,7.08,0,0,0-.24-2.2,2.5,2.5,0,0,0-4.65,0,7.74,7.74,0,0,0-.24,2.2,7.51,7.51,0,0,0,.24,2.2,2.48,2.48,0,0,0,4.65,0Z"/><path d="M551.62,15.4a.2.2,0,0,1-.22-.22v-1h0a3.2,3.2,0,0,1-2.88,1.45c-2.31,0-3.65-1.58-3.65-4V5.08a.21.21,0,0,1,.22-.22h1.41a.21.21,0,0,1,.22.22v6.14c0,1.72.77,2.71,2.33,2.71a2.34,2.34,0,0,0,2.38-2.6V5.08a.2.2,0,0,1,.22-.22H553a.2.2,0,0,1,.22.22v10.1a.2.2,0,0,1-.22.22Z"/><path d="M556.15,2.49a.2.2,0,0,1-.22-.22V.66a.2.2,0,0,1,.22-.22h1.49a.21.21,0,0,1,.22.22V2.27a.21.21,0,0,1-.22.22Zm0,12.91a.21.21,0,0,1-.22-.22V5.08a.21.21,0,0,1,.22-.22h1.41a.21.21,0,0,1,.22.22v10.1a.21.21,0,0,1-.22.22Z"/><path d="M560.26,12.78a8.25,8.25,0,0,1-.35-2.66,8.17,8.17,0,0,1,.33-2.66,4.43,4.43,0,0,1,8.27,0,9.18,9.18,0,0,1,.33,3,.21.21,0,0,1-.24.22h-6.67c-.09,0-.13.05-.13.14A3.9,3.9,0,0,0,562,12.1a2.6,2.6,0,0,0,2.66,1.83,3.43,3.43,0,0,0,2.7-1.17c.12-.11.22-.13.33,0l.91.81a.2.2,0,0,1,0,.31,5.13,5.13,0,0,1-4.12,1.8A4.07,4.07,0,0,1,560.26,12.78Zm6.56-3.56a.12.12,0,0,0,.13-.13,3.68,3.68,0,0,0-.16-1.19,2.37,2.37,0,0,0-2.41-1.65A2.39,2.39,0,0,0,562,7.9a3.71,3.71,0,0,0-.15,1.19c0,.09,0,.13.13.13Z"/><path d="M577.77,15.4a.21.21,0,0,1-.22-.22V9c0-1.69-.77-2.68-2.35-2.68a2.36,2.36,0,0,0-2.42,2.57v6.27a.21.21,0,0,1-.22.22h-1.41a.21.21,0,0,1-.22-.22V5.08a.21.21,0,0,1,.22-.22h1.41a.21.21,0,0,1,.22.22v1h0a3.35,3.35,0,0,1,3-1.43c2.29,0,3.65,1.56,3.65,4v6.6a.21.21,0,0,1-.22.22Z"/><path d="M581.73,12.78a8.25,8.25,0,0,1-.35-2.66,8.17,8.17,0,0,1,.33-2.66,4.43,4.43,0,0,1,8.27,0,9.18,9.18,0,0,1,.33,3,.21.21,0,0,1-.24.22H583.4a.12.12,0,0,0-.13.14,3.9,3.9,0,0,0,.18,1.27,2.6,2.6,0,0,0,2.66,1.83,3.47,3.47,0,0,0,2.71-1.17.22.22,0,0,1,.33,0l.9.81a.2.2,0,0,1,0,.31,5.12,5.12,0,0,1-4.11,1.8A4.07,4.07,0,0,1,581.73,12.78Zm6.56-3.56c.09,0,.13,0,.13-.13a3.71,3.71,0,0,0-.15-1.19,2.6,2.6,0,0,0-4.84,0,3.68,3.68,0,0,0-.16,1.19.12.12,0,0,0,.13.13Z"/><path d="M591.67,14.06a.23.23,0,0,1,0-.31l.91-1a.22.22,0,0,1,.3,0A5.12,5.12,0,0,0,596.14,14c1.54,0,2.31-.66,2.31-1.6s-.39-1.3-2-1.48l-1.13-.11c-2.07-.22-3.14-1.25-3.14-3,0-2,1.43-3.21,3.91-3.21a6.3,6.3,0,0,1,3.74,1.17.21.21,0,0,1,.05.3l-.75,1a.21.21,0,0,1-.31,0,5.54,5.54,0,0,0-2.84-.85c-1.32,0-2,.59-2,1.45S594.45,9,596,9.11l1.1.11c2.13.2,3.17,1.28,3.17,3,0,2.07-1.5,3.45-4.25,3.45A6.57,6.57,0,0,1,591.67,14.06Z"/><path d="M4.07,43.51c-2.05,0-2.84-.92-2.84-3v-6c0-.09,0-.13-.13-.13H.22A.21.21,0,0,1,0,34.14V33.08a.21.21,0,0,1,.22-.22H1.1c.09,0,.13,0,.13-.13v-3a.21.21,0,0,1,.22-.22H2.86a.21.21,0,0,1,.22.22v3a.12.12,0,0,0,.13.13H4.88a.21.21,0,0,1,.23.22v1.06a.21.21,0,0,1-.23.22H3.21a.12.12,0,0,0-.13.13v6c0,1.06.4,1.35,1.34,1.35h.46a.21.21,0,0,1,.23.22v1.27a.21.21,0,0,1-.23.22Z"/><path d="M7.3,43.4a.21.21,0,0,1-.22-.22V33.08a.21.21,0,0,1,.22-.22H8.71a.21.21,0,0,1,.22.22v1.08H9a3,3,0,0,1,2.8-1.54,3.24,3.24,0,0,1,2.15.79c.12.11.14.2,0,.31l-.82,1.08a.19.19,0,0,1-.3,0,3.07,3.07,0,0,0-1.63-.5c-1.61,0-2.27,1.25-2.27,3.08v5.76a.21.21,0,0,1-.22.22Z"/><path d="M21.08,43.4a.21.21,0,0,1-.22-.22v-.92h0a3.44,3.44,0,0,1-3.12,1.38c-2,0-3.54-1-3.54-3.16s1.54-3.26,4.11-3.26h2.4c.09,0,.13,0,.13-.13v-.77c0-1.45-.57-2.07-2.53-2.07a4.09,4.09,0,0,0-2.55.75.2.2,0,0,1-.31,0l-.59-1a.23.23,0,0,1,0-.31,5.9,5.9,0,0,1,3.59-1c3,0,4.14,1,4.14,3.59v7a.21.21,0,0,1-.22.22ZM20.81,40V38.83c0-.09,0-.14-.13-.14H18.57c-1.83,0-2.62.53-2.62,1.72s.79,1.65,2.2,1.65C19.8,42.06,20.81,41.29,20.81,40Z"/><path d="M32.08,43.4a.2.2,0,0,1-.22-.22V37c0-1.69-.77-2.68-2.36-2.68a2.36,2.36,0,0,0-2.42,2.57v6.27a.21.21,0,0,1-.22.22H25.45a.21.21,0,0,1-.22-.22V33.08a.21.21,0,0,1,.22-.22h1.41a.21.21,0,0,1,.22.22v1h0a3.35,3.35,0,0,1,2.95-1.43c2.29,0,3.66,1.56,3.66,4v6.6a.21.21,0,0,1-.23.22Z"/><path d="M35.6,42.06a.21.21,0,0,1,0-.31l.9-1a.22.22,0,0,1,.3,0A5.12,5.12,0,0,0,40.06,42c1.54,0,2.31-.66,2.31-1.6s-.39-1.3-2-1.48L39.2,38.8c-2.07-.22-3.14-1.25-3.14-3,0-2,1.43-3.21,3.91-3.21a6.3,6.3,0,0,1,3.74,1.17.21.21,0,0,1,0,.3L43,35a.21.21,0,0,1-.31,0,5.54,5.54,0,0,0-2.84-.85c-1.32,0-2,.59-2,1.45s.51,1.28,2.07,1.43l1.1.11c2.13.2,3.17,1.28,3.17,3,0,2.07-1.5,3.45-4.25,3.45A6.52,6.52,0,0,1,35.6,42.06Z"/><path d="M46.4,30.49a.21.21,0,0,1-.22-.22V28.66a.21.21,0,0,1,.22-.22h1.49a.2.2,0,0,1,.22.22v1.61a.2.2,0,0,1-.22.22Zm0,12.91a.21.21,0,0,1-.22-.22V33.08a.21.21,0,0,1,.22-.22h1.41a.21.21,0,0,1,.22.22v10.1a.21.21,0,0,1-.22.22Z"/><path d="M53.86,43.51c-2,0-2.84-.92-2.84-3v-6c0-.09-.05-.13-.14-.13H50a.2.2,0,0,1-.21-.22V33.08a.2.2,0,0,1,.21-.22h.88c.09,0,.14,0,.14-.13v-3a.21.21,0,0,1,.22-.22h1.4a.21.21,0,0,1,.23.22v3c0,.09,0,.13.13.13h1.67a.21.21,0,0,1,.22.22v1.06a.21.21,0,0,1-.22.22H53c-.09,0-.13,0-.13.13v6c0,1.06.39,1.35,1.34,1.35h.46a.2.2,0,0,1,.22.22v1.27a.21.21,0,0,1-.22.22Z"/><path d="M63.25,43.4a.21.21,0,0,1-.22-.22v-.92h0a3.47,3.47,0,0,1-3.13,1.38c-2,0-3.54-1-3.54-3.16s1.54-3.26,4.12-3.26h2.39c.09,0,.13,0,.13-.13v-.77c0-1.45-.57-2.07-2.52-2.07A4.13,4.13,0,0,0,57.9,35a.2.2,0,0,1-.31,0L57,34a.24.24,0,0,1,0-.31,5.92,5.92,0,0,1,3.59-1c3,0,4.14,1,4.14,3.59v7a.21.21,0,0,1-.22.22ZM63,40V38.83c0-.09,0-.14-.13-.14H60.74c-1.83,0-2.62.53-2.62,1.72s.79,1.65,2.2,1.65C62,42.06,63,41.29,63,40Z"/><path d="M74.25,43.4a.21.21,0,0,1-.22-.22V37c0-1.69-.77-2.68-2.36-2.68a2.36,2.36,0,0,0-2.42,2.57v6.27a.2.2,0,0,1-.21.22H67.63a.2.2,0,0,1-.22-.22V33.08a.2.2,0,0,1,.22-.22H69a.2.2,0,0,1,.21.22v1h0a3.32,3.32,0,0,1,2.94-1.43c2.29,0,3.66,1.56,3.66,4v6.6a.21.21,0,0,1-.22.22Z"/><path d="M78.45,41.07H80a.21.21,0,0,1,.22.22v2.05a.68.68,0,0,1-.13.48l-1.37,1.81a.35.35,0,0,1-.28.15.2.2,0,0,1-.2-.2V41.29A.21.21,0,0,1,78.45,41.07Z"/><path d="M93.21,43.4a.21.21,0,0,1-.22-.22v-1h0a3.2,3.2,0,0,1-3,1.47,3.47,3.47,0,0,1-3.63-2.53,8.62,8.62,0,0,1-.38-3,8.61,8.61,0,0,1,.38-3A3.48,3.48,0,0,1,90,32.62a3.21,3.21,0,0,1,3,1.45h0V28.66a.21.21,0,0,1,.22-.22h1.41a.21.21,0,0,1,.22.22V43.18a.21.21,0,0,1-.22.22Zm-.46-3.08a6.63,6.63,0,0,0,.24-2.2,6.79,6.79,0,0,0-.24-2.2,2.49,2.49,0,0,0-4.64,0,7.39,7.39,0,0,0-.24,2.2,7.18,7.18,0,0,0,.24,2.2,2.48,2.48,0,0,0,4.64,0Z"/><path d="M97.28,40.78a8.25,8.25,0,0,1-.35-2.66,8.17,8.17,0,0,1,.33-2.66,4.43,4.43,0,0,1,8.27,0,9.18,9.18,0,0,1,.33,3c0,.14-.08.22-.24.22H99a.12.12,0,0,0-.13.14A3.9,3.9,0,0,0,99,40.1a2.6,2.6,0,0,0,2.66,1.83,3.47,3.47,0,0,0,2.71-1.17.22.22,0,0,1,.33,0l.9.81a.2.2,0,0,1,0,.31,5.09,5.09,0,0,1-4.11,1.8A4.07,4.07,0,0,1,97.28,40.78Zm6.56-3.56c.09,0,.13,0,.13-.13a3.71,3.71,0,0,0-.15-1.19,2.6,2.6,0,0,0-4.84,0,3.68,3.68,0,0,0-.16,1.19.12.12,0,0,0,.13.13Z"/><path d="M111.63,42.06a.21.21,0,0,1,0-.31l.9-1a.23.23,0,0,1,.31,0A5.07,5.07,0,0,0,116.09,42c1.54,0,2.31-.66,2.31-1.6s-.39-1.3-2-1.48l-1.13-.11c-2.06-.22-3.14-1.25-3.14-3,0-2,1.43-3.21,3.91-3.21a6.28,6.28,0,0,1,3.74,1.17.21.21,0,0,1,.05.3L119,35a.21.21,0,0,1-.31,0,5.54,5.54,0,0,0-2.84-.85c-1.32,0-2,.59-2,1.45S114.4,37,116,37.11l1.1.11c2.14.2,3.17,1.28,3.17,3,0,2.07-1.5,3.45-4.25,3.45A6.52,6.52,0,0,1,111.63,42.06Z"/><path d="M122,40.78a8.54,8.54,0,0,1-.35-2.66,8.17,8.17,0,0,1,.33-2.66,4.44,4.44,0,0,1,8.28,0,9.18,9.18,0,0,1,.33,3c0,.14-.09.22-.25.22h-6.66c-.09,0-.13.05-.13.14a3.93,3.93,0,0,0,.17,1.27,2.6,2.6,0,0,0,2.66,1.83,3.44,3.44,0,0,0,2.71-1.17.22.22,0,0,1,.33,0l.9.81a.2.2,0,0,1,0,.31,5.09,5.09,0,0,1-4.11,1.8A4.08,4.08,0,0,1,122,40.78Zm6.56-3.56c.09,0,.13,0,.13-.13a3.71,3.71,0,0,0-.15-1.19,2.6,2.6,0,0,0-4.84,0,3.71,3.71,0,0,0-.15,1.19c0,.09,0,.13.13.13Z"/><path d="M132.86,43.4a.21.21,0,0,1-.23-.22V33.08a.21.21,0,0,1,.23-.22h1.4a.21.21,0,0,1,.22.22v1.08h0a3,3,0,0,1,2.8-1.54,3.26,3.26,0,0,1,2.16.79c.11.11.13.2,0,.31l-.81,1.08a.2.2,0,0,1-.31,0,3,3,0,0,0-1.63-.5c-1.61,0-2.27,1.25-2.27,3.08v5.76a.21.21,0,0,1-.22.22Z"/><path d="M152,43.4a.2.2,0,0,1-.22-.22V37c0-1.69-.77-2.68-2.36-2.68A2.36,2.36,0,0,0,147,36.91v6.27a.21.21,0,0,1-.22.22h-1.41a.21.21,0,0,1-.22-.22V33.08a.21.21,0,0,1,.22-.22h1.41a.21.21,0,0,1,.22.22v1h0a3.35,3.35,0,0,1,3-1.43c2.29,0,3.66,1.56,3.66,4v6.6a.21.21,0,0,1-.22.22Z"/><path d="M156,40.78a8.2,8.2,0,0,1-.36-2.66,8.17,8.17,0,0,1,.33-2.66,4.44,4.44,0,0,1,8.28,0,9.18,9.18,0,0,1,.33,3c0,.14-.09.22-.25.22h-6.66c-.09,0-.13.05-.13.14a3.93,3.93,0,0,0,.17,1.27,2.61,2.61,0,0,0,2.66,1.83,3.44,3.44,0,0,0,2.71-1.17.22.22,0,0,1,.33,0l.9.81a.2.2,0,0,1,0,.31,5.09,5.09,0,0,1-4.11,1.8A4.07,4.07,0,0,1,156,40.78Zm6.55-3.56c.09,0,.13,0,.13-.13a3.71,3.71,0,0,0-.15-1.19,2.6,2.6,0,0,0-4.84,0,3.71,3.71,0,0,0-.15,1.19c0,.09,0,.13.13.13Z"/><path d="M166.34,35.46a4.07,4.07,0,0,1,4.16-2.84,4.22,4.22,0,0,1,3.6,1.78c.07.11.07.2-.06.31l-1,.79a.2.2,0,0,1-.31,0,2.58,2.58,0,0,0-2.26-1.14A2.29,2.29,0,0,0,168.14,36a7.21,7.21,0,0,0-.24,2.13,7.3,7.3,0,0,0,.24,2.16,2.29,2.29,0,0,0,2.36,1.65,2.59,2.59,0,0,0,2.26-1.15.2.2,0,0,1,.31,0l1,.79c.13.11.13.2.06.31a4.22,4.22,0,0,1-3.6,1.78,4.08,4.08,0,0,1-4.16-2.83,9.08,9.08,0,0,1-.33-2.69A9,9,0,0,1,166.34,35.46Z"/><path d="M175.6,40.78a8.25,8.25,0,0,1-.35-2.66,8.17,8.17,0,0,1,.33-2.66,4.43,4.43,0,0,1,8.27,0,9.18,9.18,0,0,1,.33,3,.21.21,0,0,1-.24.22h-6.67c-.09,0-.13.05-.13.14a3.9,3.9,0,0,0,.18,1.27A2.6,2.6,0,0,0,180,41.93a3.43,3.43,0,0,0,2.7-1.17.22.22,0,0,1,.33,0l.91.81a.2.2,0,0,1,0,.31,5.13,5.13,0,0,1-4.12,1.8A4.07,4.07,0,0,1,175.6,40.78Zm6.56-3.56a.12.12,0,0,0,.13-.13,3.68,3.68,0,0,0-.16-1.19,2.6,2.6,0,0,0-4.84,0,3.71,3.71,0,0,0-.15,1.19c0,.09,0,.13.13.13Z"/><path d="M185.54,42.06a.23.23,0,0,1,0-.31l.91-1a.22.22,0,0,1,.3,0A5.1,5.1,0,0,0,190,42c1.54,0,2.31-.66,2.31-1.6s-.4-1.3-2-1.48l-1.12-.11c-2.07-.22-3.14-1.25-3.14-3,0-2,1.43-3.21,3.91-3.21a6.3,6.3,0,0,1,3.74,1.17.21.21,0,0,1,.05.3L193,35a.21.21,0,0,1-.31,0,5.54,5.54,0,0,0-2.84-.85c-1.32,0-2,.59-2,1.45s.51,1.28,2.07,1.43l1.1.11c2.13.2,3.17,1.28,3.17,3,0,2.07-1.5,3.45-4.25,3.45A6.55,6.55,0,0,1,185.54,42.06Z"/><path d="M202.55,43.4a.21.21,0,0,1-.22-.22v-.92h0a3.47,3.47,0,0,1-3.13,1.38c-2,0-3.54-1-3.54-3.16s1.54-3.26,4.12-3.26h2.39c.09,0,.14,0,.14-.13v-.77c0-1.45-.58-2.07-2.53-2.07a4.13,4.13,0,0,0-2.56.75.2.2,0,0,1-.31,0l-.59-1a.23.23,0,0,1,0-.31,5.87,5.87,0,0,1,3.58-1c3,0,4.14,1,4.14,3.59v7a.21.21,0,0,1-.22.22ZM202.29,40V38.83a.13.13,0,0,0-.14-.14H200c-1.83,0-2.62.53-2.62,1.72s.79,1.65,2.2,1.65C201.27,42.06,202.29,41.29,202.29,40Z"/><path d="M206.93,43.4a.2.2,0,0,1-.22-.22V33.08a.2.2,0,0,1,.22-.22h1.41a.2.2,0,0,1,.21.22v1.08h0a2.93,2.93,0,0,1,2.79-1.54,3.26,3.26,0,0,1,2.16.79c.11.11.13.2,0,.31l-.81,1.08a.2.2,0,0,1-.31,0,3,3,0,0,0-1.63-.5c-1.61,0-2.27,1.25-2.27,3.08v5.76a.2.2,0,0,1-.21.22Z"/><path d="M215,30.49a.21.21,0,0,1-.22-.22V28.66a.21.21,0,0,1,.22-.22h1.5a.21.21,0,0,1,.22.22v1.61a.21.21,0,0,1-.22.22Zm0,12.91a.2.2,0,0,1-.22-.22V33.08a.2.2,0,0,1,.22-.22h1.4a.21.21,0,0,1,.23.22v10.1a.21.21,0,0,1-.23.22Z"/><path d="M219.14,40.81a7.75,7.75,0,0,1-.36-2.69,7.64,7.64,0,0,1,.36-2.66,4.46,4.46,0,0,1,8.31,0,7.64,7.64,0,0,1,.36,2.66,7.75,7.75,0,0,1-.36,2.69,4.47,4.47,0,0,1-8.31,0Zm6.53-.53a6.82,6.82,0,0,0,.24-2.16,6.61,6.61,0,0,0-.24-2.13,2.53,2.53,0,0,0-4.75,0,6.61,6.61,0,0,0-.24,2.13,6.82,6.82,0,0,0,.24,2.16,2.53,2.53,0,0,0,4.75,0Z"/><path d="M240.89,43.4a.21.21,0,0,1-.22-.22v-1h0a3.19,3.19,0,0,1-3,1.47A3.47,3.47,0,0,1,234,41.11a8.65,8.65,0,0,1-.37-3,8.63,8.63,0,0,1,.37-3,3.48,3.48,0,0,1,3.63-2.53,3.2,3.2,0,0,1,3,1.45h0V28.66a.21.21,0,0,1,.22-.22h1.41a.21.21,0,0,1,.22.22V43.18a.21.21,0,0,1-.22.22Zm-.46-3.08a6.63,6.63,0,0,0,.24-2.2,6.79,6.79,0,0,0-.24-2.2,2.49,2.49,0,0,0-4.64,0,7.39,7.39,0,0,0-.24,2.2,7.18,7.18,0,0,0,.24,2.2,2.48,2.48,0,0,0,4.64,0Z"/><path d="M245.43,30.49a.2.2,0,0,1-.22-.22V28.66a.2.2,0,0,1,.22-.22h1.49a.21.21,0,0,1,.22.22v1.61a.21.21,0,0,1-.22.22Zm0,12.91a.21.21,0,0,1-.22-.22V33.08a.21.21,0,0,1,.22-.22h1.41a.21.21,0,0,1,.22.22v10.1a.21.21,0,0,1-.22.22Z"/><path d="M249.1,42.06a.21.21,0,0,1,0-.31l.9-1a.23.23,0,0,1,.31,0A5.07,5.07,0,0,0,253.57,42c1.54,0,2.31-.66,2.31-1.6s-.4-1.3-2-1.48l-1.12-.11c-2.07-.22-3.15-1.25-3.15-3,0-2,1.43-3.21,3.92-3.21a6.3,6.3,0,0,1,3.74,1.17c.11.06.11.19,0,.3l-.75.95a.2.2,0,0,1-.3,0,5.57,5.57,0,0,0-2.84-.85c-1.32,0-2,.59-2,1.45s.5,1.28,2.06,1.43l1.1.11c2.14.2,3.17,1.28,3.17,3,0,2.07-1.49,3.45-4.24,3.45A6.55,6.55,0,0,1,249.1,42.06Z"/><path d="M260,47.36a.21.21,0,0,1-.23-.22V33.08a.21.21,0,0,1,.23-.22h1.4a.2.2,0,0,1,.22.22v1h0a3.19,3.19,0,0,1,3-1.45,3.49,3.49,0,0,1,3.63,2.53,8.89,8.89,0,0,1,.37,3,8.9,8.9,0,0,1-.37,3,3.48,3.48,0,0,1-3.63,2.53,3.18,3.18,0,0,1-3-1.47h0v5a.2.2,0,0,1-.22.22Zm6.51-7a7.51,7.51,0,0,0,.24-2.2,7.74,7.74,0,0,0-.24-2.2,2.49,2.49,0,0,0-4.64,0,6.73,6.73,0,0,0-.25,2.2,6.58,6.58,0,0,0,.25,2.2,2.48,2.48,0,0,0,4.64,0Z"/><path d="M270.39,40.81a8,8,0,0,1-.35-2.69,7.92,7.92,0,0,1,.35-2.66,4.47,4.47,0,0,1,8.32,0,7.92,7.92,0,0,1,.35,2.66,8,8,0,0,1-.35,2.69,4.47,4.47,0,0,1-8.32,0Zm6.54-.53a6.82,6.82,0,0,0,.24-2.16,6.61,6.61,0,0,0-.24-2.13,2.53,2.53,0,0,0-4.75,0,6.61,6.61,0,0,0-.24,2.13,6.82,6.82,0,0,0,.24,2.16,2.53,2.53,0,0,0,4.75,0Z"/><path d="M288,43.4a.2.2,0,0,1-.22-.22V37c0-1.69-.77-2.68-2.36-2.68A2.36,2.36,0,0,0,283,36.91v6.27a.21.21,0,0,1-.22.22h-1.41a.21.21,0,0,1-.22-.22V33.08a.21.21,0,0,1,.22-.22h1.41a.21.21,0,0,1,.22.22v1h0a3.35,3.35,0,0,1,3-1.43c2.29,0,3.65,1.56,3.65,4v6.6a.2.2,0,0,1-.22.22Z"/><path d="M292,46a.2.2,0,0,1,0-.31l.91-.9a.21.21,0,0,1,.33,0,3.5,3.5,0,0,0,2.48,1.06c1.74,0,2.66-.9,2.66-2.84V41.82h0a3,3,0,0,1-2.93,1.45,3.45,3.45,0,0,1-3.54-2.55,8.34,8.34,0,0,1-.35-2.77,8.4,8.4,0,0,1,.35-2.78,3.45,3.45,0,0,1,3.54-2.55,3,3,0,0,1,2.93,1.45h0v-1a.21.21,0,0,1,.22-.22h1.41a.21.21,0,0,1,.22.22v9.86c0,3-1.63,4.66-4.6,4.66A4.74,4.74,0,0,1,292,46Zm6.16-6a6.28,6.28,0,0,0,.24-2,6.38,6.38,0,0,0-.24-2.05,2.38,2.38,0,0,0-4.47,0,6.82,6.82,0,0,0-.26,2.05,6.7,6.7,0,0,0,.26,2,2.37,2.37,0,0,0,4.47,0Z"/><path d="M309.38,43.4a.21.21,0,0,1-.22-.22v-.92h0A3.47,3.47,0,0,1,306,43.64c-2,0-3.54-1-3.54-3.16s1.54-3.26,4.11-3.26H309c.09,0,.14,0,.14-.13v-.77c0-1.45-.58-2.07-2.54-2.07A4.12,4.12,0,0,0,304,35a.2.2,0,0,1-.31,0l-.59-1a.24.24,0,0,1,0-.31,5.92,5.92,0,0,1,3.59-1c3,0,4.14,1,4.14,3.59v7a.21.21,0,0,1-.22.22ZM309.12,40V38.83a.13.13,0,0,0-.14-.14h-2.11c-1.83,0-2.62.53-2.62,1.72s.79,1.65,2.2,1.65C308.1,42.06,309.12,41.29,309.12,40Z"/><path d="M324.54,43.4a.2.2,0,0,1-.22-.22v-1h0a3.18,3.18,0,0,1-3,1.47,3.48,3.48,0,0,1-3.63-2.53,8.9,8.9,0,0,1-.37-3,8.89,8.89,0,0,1,.37-3,3.49,3.49,0,0,1,3.63-2.53,3.19,3.19,0,0,1,3,1.45h0V28.66a.2.2,0,0,1,.22-.22H326a.21.21,0,0,1,.22.22V43.18a.21.21,0,0,1-.22.22Zm-.46-3.08a6.92,6.92,0,0,0,.24-2.2,7.08,7.08,0,0,0-.24-2.2,2.5,2.5,0,0,0-4.65,0,7.74,7.74,0,0,0-.24,2.2,7.51,7.51,0,0,0,.24,2.2,2.48,2.48,0,0,0,4.65,0Z"/><path d="M328.61,40.78a8.2,8.2,0,0,1-.36-2.66,8.17,8.17,0,0,1,.33-2.66,4.44,4.44,0,0,1,8.28,0,9.18,9.18,0,0,1,.33,3,.21.21,0,0,1-.24.22h-6.67c-.09,0-.13.05-.13.14a3.93,3.93,0,0,0,.17,1.27A2.61,2.61,0,0,0,333,41.93a3.44,3.44,0,0,0,2.71-1.17.22.22,0,0,1,.33,0l.9.81a.21.21,0,0,1,0,.31,5.13,5.13,0,0,1-4.12,1.8A4.07,4.07,0,0,1,328.61,40.78Zm6.55-3.56c.09,0,.13,0,.13-.13a3.71,3.71,0,0,0-.15-1.19,2.6,2.6,0,0,0-4.84,0,3.71,3.71,0,0,0-.15,1.19c0,.09,0,.13.13.13Z"/><path d="M350.3,43.4a.21.21,0,0,1-.22-.22v-1h0a3.22,3.22,0,0,1-2.89,1.45c-2.31,0-3.65-1.58-3.65-4V33.08a.21.21,0,0,1,.22-.22h1.41a.21.21,0,0,1,.22.22v6.14c0,1.72.77,2.71,2.33,2.71a2.34,2.34,0,0,0,2.38-2.6V33.08a.21.21,0,0,1,.22-.22h1.41a.21.21,0,0,1,.22.22v10.1a.21.21,0,0,1-.22.22Z"/><path d="M361.5,43.4a.2.2,0,0,1-.22-.22V37c0-1.69-.77-2.68-2.36-2.68a2.36,2.36,0,0,0-2.42,2.57v6.27a.21.21,0,0,1-.22.22h-1.41a.21.21,0,0,1-.22-.22V33.08a.21.21,0,0,1,.22-.22h1.41a.21.21,0,0,1,.22.22v1h0a3.35,3.35,0,0,1,3-1.43c2.29,0,3.66,1.56,3.66,4v6.6a.21.21,0,0,1-.23.22Z"/><path d="M372.12,43.4a.21.21,0,0,1-.22-.22v-.92h0a3.45,3.45,0,0,1-3.12,1.38c-2,0-3.55-1-3.55-3.16s1.54-3.26,4.12-3.26h2.4a.12.12,0,0,0,.13-.13v-.77c0-1.45-.57-2.07-2.53-2.07a4.07,4.07,0,0,0-2.55.75.2.2,0,0,1-.31,0l-.6-1a.24.24,0,0,1,.05-.31,5.87,5.87,0,0,1,3.58-1c3,0,4.14,1,4.14,3.59v7a.21.21,0,0,1-.22.22ZM371.86,40V38.83a.12.12,0,0,0-.13-.14h-2.12c-1.82,0-2.61.53-2.61,1.72s.79,1.65,2.2,1.65C370.85,42.06,371.86,41.29,371.86,40Z"/><path d="M380.9,47.36a.21.21,0,0,1-.22-.22V33.08a.21.21,0,0,1,.22-.22h1.41a.21.21,0,0,1,.22.22v1h0a3.2,3.2,0,0,1,3-1.45,3.48,3.48,0,0,1,3.63,2.53,8.61,8.61,0,0,1,.38,3,8.62,8.62,0,0,1-.38,3,3.47,3.47,0,0,1-3.63,2.53,3.19,3.19,0,0,1-3-1.47h0v5a.21.21,0,0,1-.22.22Zm6.51-7a7.18,7.18,0,0,0,.24-2.2,7.39,7.39,0,0,0-.24-2.2,2.49,2.49,0,0,0-4.64,0,6.79,6.79,0,0,0-.24,2.2,6.63,6.63,0,0,0,.24,2.2,2.48,2.48,0,0,0,4.64,0Z"/><path d="M391.35,40.78a8.25,8.25,0,0,1-.35-2.66,8.17,8.17,0,0,1,.33-2.66,4.43,4.43,0,0,1,8.27,0,9.18,9.18,0,0,1,.33,3,.21.21,0,0,1-.24.22H393c-.09,0-.13.05-.13.14a4.23,4.23,0,0,0,.17,1.27,2.62,2.62,0,0,0,2.67,1.83,3.43,3.43,0,0,0,2.7-1.17.22.22,0,0,1,.33,0l.91.81a.2.2,0,0,1,0,.31,5.13,5.13,0,0,1-4.12,1.8A4.07,4.07,0,0,1,391.35,40.78Zm6.56-3.56a.12.12,0,0,0,.13-.13,3.68,3.68,0,0,0-.16-1.19,2.6,2.6,0,0,0-4.84,0,3.71,3.71,0,0,0-.15,1.19c0,.09,0,.13.13.13Z"/><path d="M402.24,43.4a.21.21,0,0,1-.22-.22V33.08a.21.21,0,0,1,.22-.22h1.41a.21.21,0,0,1,.22.22v1.08h0a2.94,2.94,0,0,1,2.79-1.54,3.26,3.26,0,0,1,2.16.79c.11.11.13.2,0,.31l-.81,1.08a.2.2,0,0,1-.31,0,3,3,0,0,0-1.63-.5c-1.6,0-2.26,1.25-2.26,3.08v5.76a.21.21,0,0,1-.22.22Z"/><path d="M409.26,42.06a.21.21,0,0,1,0-.31l.9-1a.23.23,0,0,1,.31,0A5.07,5.07,0,0,0,413.72,42c1.54,0,2.31-.66,2.31-1.6s-.39-1.3-2-1.48l-1.12-.11c-2.07-.22-3.15-1.25-3.15-3,0-2,1.43-3.21,3.91-3.21a6.31,6.31,0,0,1,3.75,1.17c.11.06.11.19,0,.3l-.75.95a.21.21,0,0,1-.31,0,5.53,5.53,0,0,0-2.83-.85c-1.32,0-2,.59-2,1.45s.51,1.28,2.07,1.43l1.1.11c2.14.2,3.17,1.28,3.17,3,0,2.07-1.5,3.45-4.25,3.45A6.54,6.54,0,0,1,409.26,42.06Z"/><path d="M419.6,40.81a7.75,7.75,0,0,1-.36-2.69,7.64,7.64,0,0,1,.36-2.66,4.46,4.46,0,0,1,8.31,0,7.64,7.64,0,0,1,.36,2.66,7.75,7.75,0,0,1-.36,2.69,4.47,4.47,0,0,1-8.31,0Zm6.53-.53a6.82,6.82,0,0,0,.24-2.16,6.61,6.61,0,0,0-.24-2.13,2.53,2.53,0,0,0-4.75,0,6.61,6.61,0,0,0-.24,2.13,6.82,6.82,0,0,0,.24,2.16,2.53,2.53,0,0,0,4.75,0Z"/><path d="M437.2,43.4a.2.2,0,0,1-.22-.22V37c0-1.69-.77-2.68-2.36-2.68a2.36,2.36,0,0,0-2.42,2.57v6.27a.21.21,0,0,1-.22.22h-1.41a.21.21,0,0,1-.22-.22V33.08a.21.21,0,0,1,.22-.22H432a.21.21,0,0,1,.22.22v1h0a3.35,3.35,0,0,1,2.95-1.43c2.29,0,3.66,1.56,3.66,4v6.6a.21.21,0,0,1-.22.22Z"/><path d="M447.82,43.4a.21.21,0,0,1-.22-.22v-.92h0a3.45,3.45,0,0,1-3.12,1.38c-2,0-3.55-1-3.55-3.16s1.54-3.26,4.12-3.26h2.4a.12.12,0,0,0,.13-.13v-.77c0-1.45-.57-2.07-2.53-2.07a4.07,4.07,0,0,0-2.55.75.2.2,0,0,1-.31,0l-.6-1a.24.24,0,0,1,.05-.31,5.88,5.88,0,0,1,3.59-1c3,0,4.13,1,4.13,3.59v7a.21.21,0,0,1-.22.22ZM447.56,40V38.83a.12.12,0,0,0-.13-.14h-2.12c-1.82,0-2.61.53-2.61,1.72s.79,1.65,2.2,1.65C446.55,42.06,447.56,41.29,447.56,40Z"/><path d="M463,47.36a.21.21,0,0,1-.22-.22v-5h0a3.2,3.2,0,0,1-3,1.47,3.47,3.47,0,0,1-3.63-2.53,8.62,8.62,0,0,1-.38-3,8.61,8.61,0,0,1,.38-3,3.48,3.48,0,0,1,3.63-2.53,3.21,3.21,0,0,1,3,1.45h0v-1a.21.21,0,0,1,.22-.22h1.41a.21.21,0,0,1,.22.22V47.14a.21.21,0,0,1-.22.22Zm-.46-7a6.92,6.92,0,0,0,.24-2.2,7.08,7.08,0,0,0-.24-2.2,2.49,2.49,0,0,0-4.64,0,7.35,7.35,0,0,0-.25,2.2,7.14,7.14,0,0,0,.25,2.2,2.48,2.48,0,0,0,4.64,0Z"/><path d="M474,43.4a.21.21,0,0,1-.22-.22v-1h0a3.22,3.22,0,0,1-2.89,1.45c-2.31,0-3.65-1.58-3.65-4V33.08a.21.21,0,0,1,.22-.22h1.41a.21.21,0,0,1,.22.22v6.14c0,1.72.77,2.71,2.33,2.71a2.34,2.34,0,0,0,2.38-2.6V33.08a.21.21,0,0,1,.22-.22h1.41a.21.21,0,0,1,.22.22v10.1a.21.21,0,0,1-.22.22Z"/><path d="M478,40.78a8.25,8.25,0,0,1-.35-2.66,8.17,8.17,0,0,1,.33-2.66,4.43,4.43,0,0,1,8.27,0,9.18,9.18,0,0,1,.33,3,.21.21,0,0,1-.24.22H479.7c-.09,0-.13.05-.13.14a3.93,3.93,0,0,0,.17,1.27,2.62,2.62,0,0,0,2.67,1.83,3.43,3.43,0,0,0,2.7-1.17.22.22,0,0,1,.33,0l.9.81a.19.19,0,0,1,0,.31,5.13,5.13,0,0,1-4.12,1.8A4.07,4.07,0,0,1,478,40.78Zm6.55-3.56c.09,0,.14,0,.14-.13a3.68,3.68,0,0,0-.16-1.19,2.6,2.6,0,0,0-4.84,0,3.71,3.71,0,0,0-.15,1.19c0,.09,0,.13.13.13Z"/><path d="M499.7,43.4a.21.21,0,0,1-.22-.22v-1h0a3.21,3.21,0,0,1-3,1.47,3.48,3.48,0,0,1-3.63-2.53,8.9,8.9,0,0,1-.37-3,8.89,8.89,0,0,1,.37-3,3.49,3.49,0,0,1,3.63-2.53,3.22,3.22,0,0,1,3,1.45h0V28.66a.21.21,0,0,1,.22-.22h1.41a.21.21,0,0,1,.22.22V43.18a.21.21,0,0,1-.22.22Zm-.46-3.08a6.92,6.92,0,0,0,.24-2.2,7.08,7.08,0,0,0-.24-2.2,2.5,2.5,0,0,0-4.65,0,7.74,7.74,0,0,0-.24,2.2,7.51,7.51,0,0,0,.24,2.2,2.48,2.48,0,0,0,4.65,0Z"/><path d="M503.77,40.78a8.2,8.2,0,0,1-.36-2.66,8.46,8.46,0,0,1,.33-2.66,4.44,4.44,0,0,1,8.28,0,9.18,9.18,0,0,1,.33,3,.21.21,0,0,1-.24.22h-6.67c-.09,0-.13.05-.13.14a3.93,3.93,0,0,0,.17,1.27,2.62,2.62,0,0,0,2.67,1.83,3.43,3.43,0,0,0,2.7-1.17.22.22,0,0,1,.33,0l.9.81a.21.21,0,0,1,0,.31,5.13,5.13,0,0,1-4.12,1.8A4.07,4.07,0,0,1,503.77,40.78Zm6.55-3.56c.09,0,.14,0,.14-.13a3.68,3.68,0,0,0-.16-1.19,2.6,2.6,0,0,0-4.84,0,3.71,3.71,0,0,0-.15,1.19c0,.09,0,.13.13.13Z"/><path d="M513.71,42.06a.21.21,0,0,1,0-.31l.9-1a.23.23,0,0,1,.31,0A5.07,5.07,0,0,0,518.18,42c1.54,0,2.31-.66,2.31-1.6s-.4-1.3-2-1.48l-1.12-.11c-2.07-.22-3.15-1.25-3.15-3,0-2,1.43-3.21,3.92-3.21a6.3,6.3,0,0,1,3.74,1.17c.11.06.11.19,0,.3l-.74.95a.21.21,0,0,1-.31,0,5.57,5.57,0,0,0-2.84-.85c-1.32,0-2,.59-2,1.45s.5,1.28,2.06,1.43l1.1.11c2.14.2,3.17,1.28,3.17,3,0,2.07-1.49,3.45-4.24,3.45A6.55,6.55,0,0,1,513.71,42.06Z"/><path d="M527.15,43.4a.26.26,0,0,1-.26-.22l-3.79-10.1c0-.13,0-.22.18-.22h1.52c.15,0,.22.07.28.22l2.73,7.57h.05l2.66-7.57a.26.26,0,0,1,.26-.22h1.5c.15,0,.22.09.18.22l-3.77,10.1a.28.28,0,0,1-.28.22Z"/><path d="M534.13,30.49a.2.2,0,0,1-.22-.22V28.66a.2.2,0,0,1,.22-.22h1.49a.21.21,0,0,1,.22.22v1.61a.21.21,0,0,1-.22.22Zm0,12.91a.21.21,0,0,1-.22-.22V33.08a.21.21,0,0,1,.22-.22h1.41a.21.21,0,0,1,.22.22v10.1a.21.21,0,0,1-.22.22Z"/><path d="M538.24,40.78a8.25,8.25,0,0,1-.35-2.66,8.17,8.17,0,0,1,.33-2.66,4.43,4.43,0,0,1,8.27,0,9.18,9.18,0,0,1,.33,3,.21.21,0,0,1-.24.22h-6.67c-.09,0-.13.05-.13.14A3.9,3.9,0,0,0,540,40.1a2.6,2.6,0,0,0,2.66,1.83,3.43,3.43,0,0,0,2.7-1.17.22.22,0,0,1,.33,0l.91.81a.2.2,0,0,1,0,.31,5.13,5.13,0,0,1-4.12,1.8A4.07,4.07,0,0,1,538.24,40.78Zm6.56-3.56a.12.12,0,0,0,.13-.13,3.68,3.68,0,0,0-.16-1.19,2.6,2.6,0,0,0-4.84,0,3.71,3.71,0,0,0-.15,1.19c0,.09,0,.13.13.13Zm-3.28-6.07c-.13,0-.2-.09-.13-.22l1.67-2.71a.4.4,0,0,1,.37-.22h1.45c.14,0,.2.11.11.22l-2,2.71a.44.44,0,0,1-.42.22Z"/><path d="M553,40.78a8.25,8.25,0,0,1-.35-2.66,8.17,8.17,0,0,1,.33-2.66,4.43,4.43,0,0,1,8.27,0,9.18,9.18,0,0,1,.33,3c0,.14-.08.22-.24.22H554.7a.13.13,0,0,0-.14.14,3.9,3.9,0,0,0,.18,1.27,2.6,2.6,0,0,0,2.66,1.83,3.44,3.44,0,0,0,2.71-1.17.22.22,0,0,1,.33,0l.9.81a.2.2,0,0,1,0,.31,5.09,5.09,0,0,1-4.11,1.8A4.08,4.08,0,0,1,553,40.78Zm6.56-3.56c.09,0,.13,0,.13-.13a3.71,3.71,0,0,0-.15-1.19,2.6,2.6,0,0,0-4.84,0,3.68,3.68,0,0,0-.16,1.19c0,.09.05.13.14.13Z"/><path d="M566.22,43.51c-1.84,0-2.57-.88-2.57-2.77V28.66a.21.21,0,0,1,.22-.22h1.41a.21.21,0,0,1,.22.22v12c0,.88.33,1.17,1,1.17H567a.2.2,0,0,1,.22.22v1.27a.21.21,0,0,1-.22.22Z"/><path d="M576.37,43.51c-2,0-2.84-.92-2.84-3v-6c0-.09,0-.13-.14-.13h-.88a.21.21,0,0,1-.22-.22V33.08a.21.21,0,0,1,.22-.22h.88c.09,0,.14,0,.14-.13v-3a.2.2,0,0,1,.22-.22h1.4a.21.21,0,0,1,.23.22v3c0,.09,0,.13.13.13h1.67a.21.21,0,0,1,.22.22v1.06a.21.21,0,0,1-.22.22h-1.67c-.09,0-.13,0-.13.13v6c0,1.06.39,1.35,1.34,1.35h.46a.2.2,0,0,1,.22.22v1.27a.21.21,0,0,1-.22.22Z"/><path d="M579.6,43.4a.21.21,0,0,1-.22-.22V33.08a.21.21,0,0,1,.22-.22H581a.21.21,0,0,1,.22.22v1.08h0A2.93,2.93,0,0,1,584,32.62a3.26,3.26,0,0,1,2.16.79c.11.11.13.2,0,.31l-.81,1.08a.2.2,0,0,1-.31,0,3,3,0,0,0-1.63-.5c-1.6,0-2.26,1.25-2.26,3.08v5.76a.21.21,0,0,1-.22.22Z"/><path d="M593.37,43.4a.21.21,0,0,1-.22-.22v-.92h0A3.47,3.47,0,0,1,590,43.64c-2,0-3.54-1-3.54-3.16s1.54-3.26,4.12-3.26H593c.09,0,.14,0,.14-.13v-.77c0-1.45-.57-2.07-2.53-2.07A4.13,4.13,0,0,0,588,35c-.11.08-.24.08-.3,0l-.6-1a.24.24,0,0,1,0-.31,5.87,5.87,0,0,1,3.58-1c3,0,4.14,1,4.14,3.59v7a.21.21,0,0,1-.22.22ZM593.11,40V38.83a.13.13,0,0,0-.14-.14h-2.11c-1.82,0-2.62.53-2.62,1.72s.8,1.65,2.2,1.65C592.09,42.06,593.11,41.29,593.11,40Z"/><path d="M604.37,43.4a.21.21,0,0,1-.22-.22V37c0-1.69-.77-2.68-2.35-2.68a2.36,2.36,0,0,0-2.42,2.57v6.27a.21.21,0,0,1-.22.22h-1.41a.21.21,0,0,1-.22-.22V33.08a.21.21,0,0,1,.22-.22h1.41a.21.21,0,0,1,.22.22v1h0a3.34,3.34,0,0,1,3-1.43c2.28,0,3.65,1.56,3.65,4v6.6a.21.21,0,0,1-.22.22Z"/><path d="M607.89,42.06a.21.21,0,0,1,0-.31l.9-1a.23.23,0,0,1,.31,0A5.07,5.07,0,0,0,612.36,42c1.54,0,2.31-.66,2.31-1.6s-.4-1.3-2-1.48l-1.12-.11c-2.07-.22-3.15-1.25-3.15-3,0-2,1.43-3.21,3.92-3.21A6.3,6.3,0,0,1,616,33.79c.11.06.11.19,0,.3l-.75.95a.2.2,0,0,1-.3,0,5.57,5.57,0,0,0-2.84-.85c-1.32,0-2,.59-2,1.45s.5,1.28,2.06,1.43l1.1.11c2.14.2,3.17,1.28,3.17,3,0,2.07-1.49,3.45-4.24,3.45A6.55,6.55,0,0,1,607.89,42.06Z"/><path d="M618.69,30.49a.21.21,0,0,1-.22-.22V28.66a.21.21,0,0,1,.22-.22h1.5a.21.21,0,0,1,.22.22v1.61a.21.21,0,0,1-.22.22Zm0,12.91a.2.2,0,0,1-.22-.22V33.08a.2.2,0,0,1,.22-.22h1.4a.2.2,0,0,1,.22.22v10.1a.2.2,0,0,1-.22.22Z"/><path d="M626.15,43.51c-2,0-2.84-.92-2.84-3v-6c0-.09,0-.13-.13-.13h-.88a.21.21,0,0,1-.22-.22V33.08a.21.21,0,0,1,.22-.22h.88c.09,0,.13,0,.13-.13v-3a.21.21,0,0,1,.22-.22h1.41a.21.21,0,0,1,.22.22v3c0,.09,0,.13.13.13H627a.2.2,0,0,1,.22.22v1.06a.2.2,0,0,1-.22.22h-1.67c-.09,0-.13,0-.13.13v6c0,1.06.39,1.35,1.34,1.35H627a.2.2,0,0,1,.22.22v1.27a.2.2,0,0,1-.22.22Z"/><path d="M628.88,40.81a7.75,7.75,0,0,1-.36-2.69,7.64,7.64,0,0,1,.36-2.66,4.46,4.46,0,0,1,8.31,0,7.67,7.67,0,0,1,.35,2.66,7.78,7.78,0,0,1-.35,2.69,4.47,4.47,0,0,1-8.31,0Zm6.53-.53a6.82,6.82,0,0,0,.24-2.16,6.61,6.61,0,0,0-.24-2.13,2.53,2.53,0,0,0-4.75,0,6.61,6.61,0,0,0-.24,2.13,6.82,6.82,0,0,0,.24,2.16,2.53,2.53,0,0,0,4.75,0Z"/><path d="M639.37,41.29a.21.21,0,0,1,.22-.22h1.67a.21.21,0,0,1,.22.22v1.89a.21.21,0,0,1-.22.22h-1.67a.21.21,0,0,1-.22-.22Z"/></g></g></svg>