<svg xmlns="http://www.w3.org/2000/svg" viewBox="0 0 373 73.07"><title>15b</title><g id="Capa_2" data-name="Capa 2"><g id="answer_copia" data-name="answer copia"><path d="M1,16.8a.23.23,0,0,1-.24-.24V.72A.23.23,0,0,1,1,.48H6.79C9.94.48,12,2.4,12,5.35s-2,4.87-5.19,4.87H3c-.09,0-.14,0-.14.15v6.19a.23.23,0,0,1-.24.24ZM9.87,5.35c0-1.77-1.18-2.88-3.2-2.88H3c-.09,0-.14,0-.14.15V8.09A.13.13,0,0,0,3,8.23H6.67C8.69,8.23,9.87,7.13,9.87,5.35Z"/><path d="M20.9,16.8a.22.22,0,0,1-.23-.24v-1h0a3.77,3.77,0,0,1-3.41,1.52c-2.18,0-3.86-1.13-3.86-3.46s1.68-3.55,4.49-3.55h2.61a.13.13,0,0,0,.15-.15V9.07c0-1.58-.63-2.25-2.76-2.25a4.48,4.48,0,0,0-2.79.81c-.12.1-.26.1-.33,0L14.09,6.5a.24.24,0,0,1,.05-.33A6.36,6.36,0,0,1,18.05,5C21.31,5,22.56,6.12,22.56,9v7.61a.23.23,0,0,1-.24.24Zm-.28-3.72V11.81c0-.1-.05-.14-.15-.14h-2.3c-2,0-2.86.57-2.86,1.87s.87,1.8,2.4,1.8C19.51,15.34,20.62,14.5,20.62,13.08Z"/><path d="M26.16,16.8a.23.23,0,0,1-.24-.24v-11a.23.23,0,0,1,.24-.24H27.7a.23.23,0,0,1,.24.24V6.72h0A3.2,3.2,0,0,1,31,5a3.56,3.56,0,0,1,2.35.86c.12.12.14.22,0,.34l-.89,1.18a.21.21,0,0,1-.33,0,3.31,3.31,0,0,0-1.78-.55c-1.75,0-2.47,1.37-2.47,3.36v6.29a.23.23,0,0,1-.24.24Z"/><path d="M42.05,21.12a.23.23,0,0,1-.24-.24V15.46h0a3.52,3.52,0,0,1-3.27,1.61,3.81,3.81,0,0,1-4-2.76A9.68,9.68,0,0,1,34.15,11a9.53,9.53,0,0,1,.41-3.24,3.81,3.81,0,0,1,4-2.76,3.51,3.51,0,0,1,3.27,1.58h0V5.54a.23.23,0,0,1,.24-.24h1.54a.23.23,0,0,1,.24.24V20.88a.23.23,0,0,1-.24.24Zm-.51-7.68a7.14,7.14,0,0,0,.27-2.4,7.25,7.25,0,0,0-.27-2.4,2.71,2.71,0,0,0-5.06,0,8.26,8.26,0,0,0-.26,2.4,8,8,0,0,0,.26,2.4,2.7,2.7,0,0,0,5.06,0Z"/><path d="M54.5,16.8a.23.23,0,0,1-.24-.24V15.48h0a3.51,3.51,0,0,1-3.14,1.59c-2.52,0-4-1.73-4-4.35V5.54a.23.23,0,0,1,.24-.24h1.54a.23.23,0,0,1,.24.24v6.7c0,1.87.84,2.95,2.54,2.95a2.55,2.55,0,0,0,2.59-2.83V5.54a.23.23,0,0,1,.24-.24H56a.23.23,0,0,1,.24.24v11a.22.22,0,0,1-.24.24Z"/><path d="M59.42,14A9.1,9.1,0,0,1,59,11a8.87,8.87,0,0,1,.36-2.9,4.83,4.83,0,0,1,9,0,9.89,9.89,0,0,1,.37,3.28.24.24,0,0,1-.27.25H61.25c-.1,0-.15,0-.15.14a4.27,4.27,0,0,0,.2,1.39,2.83,2.83,0,0,0,2.9,2,3.74,3.74,0,0,0,3-1.27.25.25,0,0,1,.36-.05l1,.89a.22.22,0,0,1,0,.34,5.59,5.59,0,0,1-4.49,2A4.45,4.45,0,0,1,59.42,14Zm7.16-3.89c.09,0,.14-.05.14-.15a4,4,0,0,0-.17-1.29,2.84,2.84,0,0,0-5.28,0,4,4,0,0,0-.17,1.29.13.13,0,0,0,.15.15Z"/><path d="M71.23,14A9.1,9.1,0,0,1,70.85,11a8.87,8.87,0,0,1,.36-2.9,4.83,4.83,0,0,1,9,0,10,10,0,0,1,.36,3.28.23.23,0,0,1-.26.25H73.06c-.1,0-.15,0-.15.14a4.3,4.3,0,0,0,.19,1.39,2.84,2.84,0,0,0,2.91,2A3.74,3.74,0,0,0,79,13.92a.25.25,0,0,1,.36-.05l1,.89a.22.22,0,0,1,0,.34,5.59,5.59,0,0,1-4.49,2A4.45,4.45,0,0,1,71.23,14Zm7.15-3.89a.13.13,0,0,0,.15-.15,4,4,0,0,0-.17-1.29,2.84,2.84,0,0,0-5.28,0,4,4,0,0,0-.17,1.29.13.13,0,0,0,.15.15Z"/><path d="M88.32,14A9.1,9.1,0,0,1,87.94,11a8.87,8.87,0,0,1,.36-2.9,4.83,4.83,0,0,1,9,0,10,10,0,0,1,.36,3.28.24.24,0,0,1-.26.25H90.14a.12.12,0,0,0-.14.14,4.3,4.3,0,0,0,.19,1.39,2.84,2.84,0,0,0,2.91,2,3.77,3.77,0,0,0,3-1.27.25.25,0,0,1,.36-.05l1,.89a.22.22,0,0,1,0,.34,5.62,5.62,0,0,1-4.49,2A4.45,4.45,0,0,1,88.32,14Zm7.15-3.89a.13.13,0,0,0,.15-.15,4,4,0,0,0-.17-1.29,2.84,2.84,0,0,0-5.28,0A4,4,0,0,0,90,9.91c0,.1,0,.15.14.15Z"/><path d="M103.2,16.92c-2,0-2.81-1-2.81-3V.72a.23.23,0,0,1,.24-.24h1.54a.23.23,0,0,1,.24.24V13.78c0,1,.36,1.27,1.15,1.27H104a.23.23,0,0,1,.24.24v1.39a.23.23,0,0,1-.24.24Z"/><path d="M115,16.8c-.17,0-.24-.09-.29-.24l-4.13-11c0-.14,0-.24.2-.24h1.65c.17,0,.24.08.31.24l3,8.26h0l2.9-8.26a.29.29,0,0,1,.29-.24h1.63c.17,0,.24.1.19.24l-4.1,11a.3.3,0,0,1-.31.24Z"/><path d="M122.45,14a9.05,9.05,0,0,1-.39-2.91,8.87,8.87,0,0,1,.36-2.9,4.84,4.84,0,0,1,9,0,10,10,0,0,1,.36,3.28.24.24,0,0,1-.27.25h-7.27a.12.12,0,0,0-.14.14,4.3,4.3,0,0,0,.19,1.39,2.84,2.84,0,0,0,2.9,2,3.78,3.78,0,0,0,3-1.27.25.25,0,0,1,.36-.05l1,.89a.22.22,0,0,1,0,.34,5.59,5.59,0,0,1-4.48,2A4.45,4.45,0,0,1,122.45,14Zm7.15-3.89c.1,0,.14-.05.14-.15a4,4,0,0,0-.16-1.29,2.84,2.84,0,0,0-5.28,0,4,4,0,0,0-.17,1.29c0,.1.05.15.14.15Z"/><path d="M142,16.8a.23.23,0,0,1-.24-.24V9.84c0-1.85-.84-2.93-2.57-2.93a2.58,2.58,0,0,0-2.64,2.81v6.84a.22.22,0,0,1-.24.24h-1.53a.22.22,0,0,1-.24-.24V.72a.23.23,0,0,1,.24-.24h1.53a.23.23,0,0,1,.24.24V6.6h0A3.62,3.62,0,0,1,139.82,5c2.5,0,4,1.7,4,4.32v7.2a.23.23,0,0,1-.24.24Z"/><path d="M147.38,16.8a.23.23,0,0,1-.24-.24v-11a.23.23,0,0,1,.24-.24h1.54a.23.23,0,0,1,.24.24v11a.23.23,0,0,1-.24.24Zm.2-13.37c-.15,0-.22-.09-.15-.24L149.26.24a.4.4,0,0,1,.4-.24h1.59a.14.14,0,0,1,.12.24l-2.21,3a.48.48,0,0,1-.46.24Z"/><path d="M152.28,8.14A4.45,4.45,0,0,1,156.81,5,4.6,4.6,0,0,1,160.75,7a.23.23,0,0,1-.07.34l-1.06.86a.21.21,0,0,1-.33,0,2.83,2.83,0,0,0-2.48-1.25,2.49,2.49,0,0,0-2.56,1.8A7.39,7.39,0,0,0,154,11a7.45,7.45,0,0,0,.27,2.35,2.49,2.49,0,0,0,2.56,1.8A2.82,2.82,0,0,0,159.29,14a.21.21,0,0,1,.33,0l1.06.87c.14.12.14.21.07.33a4.61,4.61,0,0,1-3.94,2,4.46,4.46,0,0,1-4.53-3.1,9.81,9.81,0,0,1-.36-2.93A9.69,9.69,0,0,1,152.28,8.14Z"/><path d="M170.69,16.8a.22.22,0,0,1-.24-.24V15.48h0a3.5,3.5,0,0,1-3.14,1.59c-2.52,0-4-1.73-4-4.35V5.54a.23.23,0,0,1,.24-.24h1.54a.23.23,0,0,1,.24.24v6.7c0,1.87.84,2.95,2.54,2.95a2.55,2.55,0,0,0,2.6-2.83V5.54a.23.23,0,0,1,.24-.24h1.53a.23.23,0,0,1,.24.24v11a.22.22,0,0,1-.24.24Z"/><path d="M178.68,16.92c-2,0-2.81-1-2.81-3V.72a.23.23,0,0,1,.24-.24h1.54a.23.23,0,0,1,.24.24V13.78c0,1,.36,1.27,1.15,1.27h.45a.23.23,0,0,1,.24.24v1.39a.22.22,0,0,1-.24.24Z"/><path d="M181.77,14a8.77,8.77,0,0,1-.38-2.93,8.65,8.65,0,0,1,.38-2.9,4.87,4.87,0,0,1,9.08,0,8.65,8.65,0,0,1,.38,2.9,8.77,8.77,0,0,1-.38,2.93,4.87,4.87,0,0,1-9.08,0Zm7.13-.58a7.5,7.5,0,0,0,.27-2.35,7.45,7.45,0,0,0-.27-2.33,2.76,2.76,0,0,0-5.18,0,7.45,7.45,0,0,0-.27,2.33,7.5,7.5,0,0,0,.27,2.35,2.76,2.76,0,0,0,5.18,0Z"/><path d="M198.93,8.14A4.45,4.45,0,0,1,203.47,5,4.62,4.62,0,0,1,207.41,7c.07.12.07.22-.08.34l-1.05.86a.22.22,0,0,1-.34,0,2.82,2.82,0,0,0-2.47-1.25,2.5,2.5,0,0,0-2.57,1.8,7.75,7.75,0,0,0-.26,2.33,7.81,7.81,0,0,0,.26,2.35,2.5,2.5,0,0,0,2.57,1.8A2.82,2.82,0,0,0,205.94,14a.22.22,0,0,1,.34,0l1.05.87c.15.12.15.21.08.33a4.62,4.62,0,0,1-3.94,2,4.46,4.46,0,0,1-4.54-3.1,10.15,10.15,0,0,1-.36-2.93A10,10,0,0,1,198.93,8.14Z"/><path d="M209.52,14a9.05,9.05,0,0,1-.39-2.91,8.87,8.87,0,0,1,.36-2.9,4.84,4.84,0,0,1,9,0,10,10,0,0,1,.36,3.28.24.24,0,0,1-.27.25h-7.27a.12.12,0,0,0-.14.14,4.3,4.3,0,0,0,.19,1.39,2.84,2.84,0,0,0,2.9,2,3.78,3.78,0,0,0,3-1.27.25.25,0,0,1,.36-.05l1,.89a.22.22,0,0,1,0,.34,5.59,5.59,0,0,1-4.48,2A4.45,4.45,0,0,1,209.52,14Zm7.15-3.89c.1,0,.14-.05.14-.15a4,4,0,0,0-.16-1.29,2.84,2.84,0,0,0-5.28,0,4,4,0,0,0-.17,1.29c0,.1.05.15.14.15Z"/><path d="M221.88,16.8a.22.22,0,0,1-.24-.24v-11a.23.23,0,0,1,.24-.24h1.53a.23.23,0,0,1,.24.24V6.72h0a3.2,3.2,0,0,1,3-1.68,3.58,3.58,0,0,1,2.35.86c.12.12.14.22,0,.34l-.89,1.18a.22.22,0,0,1-.34,0,3.28,3.28,0,0,0-1.77-.55c-1.76,0-2.48,1.37-2.48,3.36v6.29a.22.22,0,0,1-.24.24Z"/><path d="M230.23,8.14A4.45,4.45,0,0,1,234.77,5,4.6,4.6,0,0,1,238.7,7a.23.23,0,0,1-.07.34l-1.06.86a.21.21,0,0,1-.33,0,2.82,2.82,0,0,0-2.47-1.25,2.49,2.49,0,0,0-2.57,1.8,7.7,7.7,0,0,0-.27,2.33,7.76,7.76,0,0,0,.27,2.35,2.49,2.49,0,0,0,2.57,1.8A2.82,2.82,0,0,0,237.24,14a.21.21,0,0,1,.33,0l1.06.87c.14.12.14.21.07.33a4.61,4.61,0,0,1-3.93,2,4.46,4.46,0,0,1-4.54-3.1,9.81,9.81,0,0,1-.36-2.93A9.69,9.69,0,0,1,230.23,8.14Z"/><path d="M248.09,16.8a.22.22,0,0,1-.24-.24v-1h0a3.75,3.75,0,0,1-3.41,1.52c-2.18,0-3.86-1.13-3.86-3.46s1.68-3.55,4.49-3.55h2.61a.13.13,0,0,0,.15-.15V9.07c0-1.58-.63-2.25-2.76-2.25a4.5,4.5,0,0,0-2.79.81c-.12.1-.26.1-.33,0l-.65-1.11a.24.24,0,0,1,0-.33A6.38,6.38,0,0,1,245.23,5c3.26,0,4.51,1.08,4.51,3.91v7.61a.22.22,0,0,1-.24.24Zm-.29-3.72V11.81c0-.1-.05-.14-.15-.14h-2.3c-2,0-2.86.57-2.86,1.87s.87,1.8,2.4,1.8C246.69,15.34,247.8,14.5,247.8,13.08Z"/><path d="M265.58,16.8a.23.23,0,0,1-.24-.24v-1.1h0a3.51,3.51,0,0,1-3.27,1.61,3.81,3.81,0,0,1-4-2.76,9.68,9.68,0,0,1-.41-3.27,9.53,9.53,0,0,1,.41-3.24,3.81,3.81,0,0,1,4-2.76,3.5,3.5,0,0,1,3.27,1.58h0V.72a.23.23,0,0,1,.24-.24h1.54a.23.23,0,0,1,.24.24V16.56a.23.23,0,0,1-.24.24Zm-.5-3.36a7.47,7.47,0,0,0,.26-2.4,7.59,7.59,0,0,0-.26-2.4,2.72,2.72,0,0,0-5.07,0,8.26,8.26,0,0,0-.26,2.4,8,8,0,0,0,.26,2.4,2.71,2.71,0,0,0,5.07,0Z"/><path d="M270.5,14a9.1,9.1,0,0,1-.38-2.91,8.87,8.87,0,0,1,.36-2.9,4.83,4.83,0,0,1,9,0,10,10,0,0,1,.36,3.28.23.23,0,0,1-.26.25h-7.27c-.1,0-.15,0-.15.14a4.3,4.3,0,0,0,.19,1.39,2.84,2.84,0,0,0,2.91,2,3.74,3.74,0,0,0,3-1.27.25.25,0,0,1,.36-.05l1,.89a.22.22,0,0,1,0,.34,5.59,5.59,0,0,1-4.49,2A4.45,4.45,0,0,1,270.5,14Zm7.15-3.89a.13.13,0,0,0,.15-.15,4,4,0,0,0-.17-1.29,2.84,2.84,0,0,0-5.28,0,4,4,0,0,0-.17,1.29.13.13,0,0,0,.15.15Z"/><path d="M285.38,16.92c-2,0-2.81-1-2.81-3V.72a.23.23,0,0,1,.24-.24h1.54a.23.23,0,0,1,.24.24V13.78c0,1,.36,1.27,1.15,1.27h.46a.23.23,0,0,1,.24.24v1.39a.23.23,0,0,1-.24.24Z"/><path d="M296.83,16.92c-2,0-2.81-1-2.81-3V.72a.23.23,0,0,1,.24-.24h1.54a.23.23,0,0,1,.24.24V13.78c0,1,.36,1.27,1.15,1.27h.45a.23.23,0,0,1,.24.24v1.39a.22.22,0,0,1-.24.24Z"/><path d="M307.46,16.8a.23.23,0,0,1-.24-.24V15.48h0a3.52,3.52,0,0,1-3.15,1.59c-2.52,0-4-1.73-4-4.35V5.54a.23.23,0,0,1,.24-.24h1.53a.23.23,0,0,1,.24.24v6.7c0,1.87.84,2.95,2.55,2.95a2.55,2.55,0,0,0,2.59-2.83V5.54a.23.23,0,0,1,.24-.24H309a.23.23,0,0,1,.24.24v11a.23.23,0,0,1-.24.24Z"/><path d="M312.45,19.68a.21.21,0,0,1,0-.33l1-1a.23.23,0,0,1,.36,0,3.83,3.83,0,0,0,2.71,1.15c1.9,0,2.91-1,2.91-3.09V15.07h0a3.3,3.3,0,0,1-3.19,1.59,3.77,3.77,0,0,1-3.86-2.79,8.89,8.89,0,0,1-.39-3,9,9,0,0,1,.39-3A3.76,3.76,0,0,1,316.22,5a3.3,3.3,0,0,1,3.19,1.58h0V5.54a.23.23,0,0,1,.24-.24h1.53a.23.23,0,0,1,.24.24V16.3c0,3.26-1.77,5.09-5,5.09A5.21,5.21,0,0,1,312.45,19.68Zm6.72-6.6a6.76,6.76,0,0,0,.27-2.23,6.8,6.8,0,0,0-.27-2.23,2.59,2.59,0,0,0-4.87,0,7.22,7.22,0,0,0-.29,2.23,7.18,7.18,0,0,0,.29,2.23,2.34,2.34,0,0,0,2.42,1.73A2.38,2.38,0,0,0,319.17,13.08Z"/><path d="M331.87,16.8a.22.22,0,0,1-.24-.24v-1h0a3.74,3.74,0,0,1-3.4,1.52c-2.19,0-3.87-1.13-3.87-3.46s1.68-3.55,4.49-3.55h2.62c.09,0,.14-.05.14-.15V9.07c0-1.58-.62-2.25-2.76-2.25a4.44,4.44,0,0,0-2.78.81c-.12.1-.27.1-.34,0l-.65-1.11a.24.24,0,0,1,.05-.33A6.38,6.38,0,0,1,329,5c3.27,0,4.51,1.08,4.51,3.91v7.61a.22.22,0,0,1-.24.24Zm-.29-3.72V11.81a.12.12,0,0,0-.14-.14h-2.31c-2,0-2.85.57-2.85,1.87s.86,1.8,2.4,1.8C330.48,15.34,331.58,14.5,331.58,13.08Z"/><path d="M337.12,16.8a.23.23,0,0,1-.24-.24v-11a.23.23,0,0,1,.24-.24h1.54a.23.23,0,0,1,.24.24V6.72h0A3.23,3.23,0,0,1,342,5a3.56,3.56,0,0,1,2.35.86c.12.12.15.22.05.34l-.89,1.18a.21.21,0,0,1-.33,0,3.31,3.31,0,0,0-1.78-.55c-1.75,0-2.47,1.37-2.47,3.36v6.29a.23.23,0,0,1-.24.24Z"/><path d="M358.72,16.8a.23.23,0,0,1-.24-.24v-1.1h0a3.5,3.5,0,0,1-3.26,1.61,3.79,3.79,0,0,1-4-2.76,9.43,9.43,0,0,1-.41-3.27,9.29,9.29,0,0,1,.41-3.24,3.79,3.79,0,0,1,4-2.76,3.49,3.49,0,0,1,3.26,1.58h0V.72a.23.23,0,0,1,.24-.24h1.54a.23.23,0,0,1,.24.24V16.56a.23.23,0,0,1-.24.24Zm-.5-3.36a7.47,7.47,0,0,0,.26-2.4,7.59,7.59,0,0,0-.26-2.4,2.71,2.71,0,0,0-5.06,0,7.88,7.88,0,0,0-.27,2.4,7.68,7.68,0,0,0,.27,2.4,2.7,2.7,0,0,0,5.06,0Z"/><path d="M363.64,14a9.1,9.1,0,0,1-.38-2.91,8.87,8.87,0,0,1,.36-2.9,4.83,4.83,0,0,1,9,0,10,10,0,0,1,.36,3.28.23.23,0,0,1-.26.25h-7.27c-.1,0-.15,0-.15.14a4.27,4.27,0,0,0,.2,1.39,2.83,2.83,0,0,0,2.9,2,3.74,3.74,0,0,0,2.95-1.27.25.25,0,0,1,.36-.05l1,.89a.22.22,0,0,1,0,.34,5.59,5.59,0,0,1-4.49,2A4.45,4.45,0,0,1,363.64,14Zm7.16-3.89c.09,0,.14-.05.14-.15a4,4,0,0,0-.17-1.29,2.84,2.84,0,0,0-5.28,0,4,4,0,0,0-.17,1.29.13.13,0,0,0,.15.15Z"/><path d="M.89,30.71a.22.22,0,0,1-.24-.24V28.72a.23.23,0,0,1,.24-.24H2.52a.23.23,0,0,1,.24.24v1.75a.23.23,0,0,1-.24.24Zm0,14.09a.22.22,0,0,1-.24-.24v-11a.23.23,0,0,1,.24-.24H2.47a.23.23,0,0,1,.24.24v11a.22.22,0,0,1-.24.24Z"/><path d="M13.63,44.8a.23.23,0,0,1-.24-.24V37.84c0-1.85-.84-2.93-2.57-2.93a2.58,2.58,0,0,0-2.64,2.81v6.84a.22.22,0,0,1-.24.24H6.41a.22.22,0,0,1-.24-.24v-11a.23.23,0,0,1,.24-.24H7.94a.23.23,0,0,1,.24.24V34.6h0A3.62,3.62,0,0,1,11.42,33c2.5,0,4,1.7,4,4.32v7.2a.23.23,0,0,1-.24.24Z"/><path d="M22.08,44.92c-2.23,0-3.1-1-3.1-3.26V35.08c0-.1,0-.14-.14-.14h-1a.23.23,0,0,1-.24-.24V33.54a.23.23,0,0,1,.24-.24h1c.1,0,.14,0,.14-.14V29.92a.23.23,0,0,1,.24-.24h1.54a.23.23,0,0,1,.24.24v3.24a.12.12,0,0,0,.14.14H23a.23.23,0,0,1,.24.24V34.7a.23.23,0,0,1-.24.24H21.14a.12.12,0,0,0-.14.14v6.5c0,1.16.43,1.47,1.46,1.47H23a.23.23,0,0,1,.24.24v1.39a.23.23,0,0,1-.24.24Z"/><path d="M25.54,42A8.78,8.78,0,0,1,25.15,39a8.87,8.87,0,0,1,.36-2.9A4.44,4.44,0,0,1,30,33a4.46,4.46,0,0,1,4.52,3.1,10,10,0,0,1,.36,3.28.24.24,0,0,1-.27.25H27.36c-.1,0-.14,0-.14.14a4.3,4.3,0,0,0,.19,1.39,2.83,2.83,0,0,0,2.9,2,3.74,3.74,0,0,0,2.95-1.27.25.25,0,0,1,.36-.05l1,.89a.22.22,0,0,1,0,.34,5.59,5.59,0,0,1-4.49,2A4.44,4.44,0,0,1,25.54,42Zm7.15-3.89c.09,0,.14-.05.14-.15a4,4,0,0,0-.17-1.29A2.58,2.58,0,0,0,30,34.82a2.6,2.6,0,0,0-2.64,1.8,4,4,0,0,0-.16,1.29c0,.1,0,.15.14.15Z"/><path d="M37.9,44.8a.22.22,0,0,1-.24-.24v-11a.23.23,0,0,1,.24-.24h1.53a.23.23,0,0,1,.24.24v1.18h0a3.2,3.2,0,0,1,3-1.68,3.58,3.58,0,0,1,2.36.86c.12.12.14.22,0,.34l-.88,1.18a.22.22,0,0,1-.34,0,3.28,3.28,0,0,0-1.78-.55c-1.75,0-2.47,1.37-2.47,3.36v6.29a.22.22,0,0,1-.24.24Z"/><path d="M50.09,44.8c-.17,0-.24-.09-.29-.24l-4.13-11c-.05-.14,0-.24.19-.24h1.66c.17,0,.24.08.31.24l3,8.26h0l2.9-8.26a.29.29,0,0,1,.29-.24h1.63c.17,0,.24.1.19.24l-4.1,11a.31.31,0,0,1-.31.24Z"/><path d="M57.58,42A8.78,8.78,0,0,1,57.19,39a8.87,8.87,0,0,1,.36-2.9,4.84,4.84,0,0,1,9,0,10,10,0,0,1,.36,3.28.24.24,0,0,1-.27.25H59.4c-.1,0-.14,0-.14.14a4.3,4.3,0,0,0,.19,1.39,2.83,2.83,0,0,0,2.9,2,3.74,3.74,0,0,0,2.95-1.27.25.25,0,0,1,.36-.05l1,.89a.22.22,0,0,1,0,.34,5.59,5.59,0,0,1-4.49,2A4.44,4.44,0,0,1,57.58,42Zm7.15-3.89c.09,0,.14-.05.14-.15a4,4,0,0,0-.17-1.29,2.84,2.84,0,0,0-5.28,0,4,4,0,0,0-.16,1.29c0,.1,0,.15.14.15Z"/><path d="M77.16,44.8a.23.23,0,0,1-.24-.24V37.84c0-1.85-.84-2.93-2.57-2.93a2.58,2.58,0,0,0-2.64,2.81v6.84a.22.22,0,0,1-.24.24H69.94a.22.22,0,0,1-.24-.24v-11a.23.23,0,0,1,.24-.24h1.53a.23.23,0,0,1,.24.24V34.6h0A3.62,3.62,0,0,1,75,33c2.5,0,4,1.7,4,4.32v7.2a.23.23,0,0,1-.24.24Z"/><path d="M81.94,36.14A4.43,4.43,0,0,1,86.47,33,4.62,4.62,0,0,1,90.41,35a.23.23,0,0,1-.07.34l-1.06.86a.22.22,0,0,1-.34,0,2.82,2.82,0,0,0-2.47-1.25,2.5,2.5,0,0,0-2.57,1.8A7.75,7.75,0,0,0,83.64,39a7.81,7.81,0,0,0,.26,2.35,2.5,2.5,0,0,0,2.57,1.8A2.82,2.82,0,0,0,88.94,42a.22.22,0,0,1,.34,0l1.06.87c.14.12.14.21.07.33a4.62,4.62,0,0,1-3.94,2A4.44,4.44,0,0,1,81.94,42,9.76,9.76,0,0,1,81.57,39,9.63,9.63,0,0,1,81.94,36.14Z"/><path d="M93.31,30.71a.23.23,0,0,1-.24-.24V28.72a.23.23,0,0,1,.24-.24h1.63a.23.23,0,0,1,.24.24v1.75a.22.22,0,0,1-.24.24Zm0,14.09a.22.22,0,0,1-.24-.24v-11a.23.23,0,0,1,.24-.24h1.53a.23.23,0,0,1,.24.24v11a.22.22,0,0,1-.24.24Z"/><path d="M98.28,42A8.48,8.48,0,0,1,97.89,39a8.37,8.37,0,0,1,.39-2.9,4.87,4.87,0,0,1,9.07,0,8.4,8.4,0,0,1,.38,2.9,8.52,8.52,0,0,1-.38,2.93,4.87,4.87,0,0,1-9.07,0Zm7.13-.58a7.56,7.56,0,0,0,.26-2.35,7.5,7.5,0,0,0-.26-2.33,2.77,2.77,0,0,0-5.19,0A7.5,7.5,0,0,0,100,39a7.56,7.56,0,0,0,.26,2.35,2.77,2.77,0,0,0,5.19,0Zm-3.46-10c-.14,0-.22-.09-.14-.24l1.82-3A.43.43,0,0,1,104,28h1.58c.15,0,.22.12.12.24l-2.2,3a.49.49,0,0,1-.46.24Z"/><path d="M118,44.8a.22.22,0,0,1-.24-.24V37.84c0-1.85-.84-2.93-2.57-2.93a2.58,2.58,0,0,0-2.64,2.81v6.84a.23.23,0,0,1-.24.24h-1.54a.23.23,0,0,1-.24-.24v-11a.23.23,0,0,1,.24-.24h1.54a.23.23,0,0,1,.24.24V34.6h0A3.65,3.65,0,0,1,115.75,33c2.5,0,4,1.7,4,4.32v7.2a.22.22,0,0,1-.24.24Z"/><path d="M128.59,49.12a.23.23,0,0,1-.24-.24V33.54a.23.23,0,0,1,.24-.24h1.54a.23.23,0,0,1,.24.24v1.08h0A3.49,3.49,0,0,1,133.65,33a3.79,3.79,0,0,1,4,2.76A9.29,9.29,0,0,1,138,39a9.43,9.43,0,0,1-.41,3.27,3.79,3.79,0,0,1-4,2.76,3.5,3.5,0,0,1-3.26-1.61h0v5.42a.23.23,0,0,1-.24.24Zm7.1-7.68A7.68,7.68,0,0,0,136,39a7.88,7.88,0,0,0-.27-2.4,2.71,2.71,0,0,0-5.06,0,7.59,7.59,0,0,0-.26,2.4,7.47,7.47,0,0,0,.26,2.4,2.7,2.7,0,0,0,5.06,0Z"/><path d="M147.74,44.8a.23.23,0,0,1-.24-.24v-1h0a3.77,3.77,0,0,1-3.41,1.52c-2.19,0-3.86-1.13-3.86-3.46s1.67-3.55,4.48-3.55h2.62c.1,0,.14-.05.14-.15v-.84c0-1.58-.62-2.25-2.76-2.25a4.47,4.47,0,0,0-2.78.81c-.12.1-.27.1-.34,0l-.64-1.11a.24.24,0,0,1,0-.33A6.42,6.42,0,0,1,144.89,33c3.26,0,4.51,1.08,4.51,3.91v7.61a.23.23,0,0,1-.24.24Zm-.29-3.72V39.81c0-.1,0-.14-.14-.14H145c-2,0-2.86.57-2.86,1.87s.86,1.8,2.4,1.8C146.35,43.34,147.45,42.5,147.45,41.08Z"/><path d="M153,44.8a.22.22,0,0,1-.24-.24v-11a.23.23,0,0,1,.24-.24h1.53a.23.23,0,0,1,.24.24v1.18h0a3.2,3.2,0,0,1,3-1.68,3.58,3.58,0,0,1,2.35.86c.12.12.14.22.05.34l-.89,1.18a.22.22,0,0,1-.34,0,3.28,3.28,0,0,0-1.77-.55c-1.76,0-2.48,1.37-2.48,3.36v6.29a.22.22,0,0,1-.24.24Z"/><path d="M168.5,44.8a.23.23,0,0,1-.24-.24v-1h0a3.77,3.77,0,0,1-3.41,1.52c-2.19,0-3.87-1.13-3.87-3.46s1.68-3.55,4.49-3.55h2.62c.1,0,.14-.05.14-.15v-.84c0-1.58-.62-2.25-2.76-2.25a4.47,4.47,0,0,0-2.78.81c-.12.1-.27.1-.34,0l-.64-1.11a.24.24,0,0,1,0-.33A6.42,6.42,0,0,1,165.65,33c3.26,0,4.51,1.08,4.51,3.91v7.61a.23.23,0,0,1-.24.24Zm-.29-3.72V39.81c0-.1,0-.14-.14-.14h-2.3c-2,0-2.86.57-2.86,1.87s.86,1.8,2.4,1.8C167.11,43.34,168.21,42.5,168.21,41.08Z"/><path d="M178.48,42A8.77,8.77,0,0,1,178.1,39a8.65,8.65,0,0,1,.38-2.9,4.87,4.87,0,0,1,9.08,0,8.65,8.65,0,0,1,.38,2.9,8.77,8.77,0,0,1-.38,2.93,4.87,4.87,0,0,1-9.08,0Zm7.13-.58a7.5,7.5,0,0,0,.27-2.35,7.45,7.45,0,0,0-.27-2.33,2.76,2.76,0,0,0-5.18,0,7.5,7.5,0,0,0-.26,2.33,7.56,7.56,0,0,0,.26,2.35,2.76,2.76,0,0,0,5.18,0Z"/><path d="M190.94,44.8a.23.23,0,0,1-.24-.24V28.72a.23.23,0,0,1,.24-.24h1.54a.23.23,0,0,1,.24.24v5.9h0A3.49,3.49,0,0,1,196,33a3.79,3.79,0,0,1,4,2.76,9.29,9.29,0,0,1,.41,3.24,9.43,9.43,0,0,1-.41,3.27,3.79,3.79,0,0,1-4,2.76,3.5,3.5,0,0,1-3.26-1.61h0v1.1a.23.23,0,0,1-.24.24Zm7.1-3.36a7.68,7.68,0,0,0,.27-2.4,7.88,7.88,0,0,0-.27-2.4,2.43,2.43,0,0,0-2.51-1.73A2.45,2.45,0,0,0,193,36.64a7.59,7.59,0,0,0-.26,2.4,7.47,7.47,0,0,0,.26,2.4,2.47,2.47,0,0,0,2.55,1.75A2.44,2.44,0,0,0,198,41.44Z"/><path d="M202.34,43.34a.23.23,0,0,1,0-.34l1-1a.23.23,0,0,1,.34,0,5.62,5.62,0,0,0,3.55,1.32c1.68,0,2.52-.73,2.52-1.76s-.43-1.41-2.23-1.61l-1.22-.12c-2.26-.24-3.44-1.36-3.44-3.24,0-2.18,1.56-3.5,4.28-3.5a6.88,6.88,0,0,1,4.08,1.27.24.24,0,0,1,.05.34l-.82,1a.24.24,0,0,1-.34,0,6,6,0,0,0-3.09-.94c-1.44,0-2.19.65-2.19,1.59s.56,1.39,2.26,1.56l1.2.12c2.33.21,3.46,1.39,3.46,3.24,0,2.25-1.64,3.77-4.64,3.77A7.18,7.18,0,0,1,202.34,43.34Z"/><path d="M217.75,44.92c-2.23,0-3.1-1-3.1-3.26V35.08a.12.12,0,0,0-.14-.14h-1a.23.23,0,0,1-.24-.24V33.54a.23.23,0,0,1,.24-.24h1a.12.12,0,0,0,.14-.14V29.92a.23.23,0,0,1,.24-.24h1.54a.23.23,0,0,1,.24.24v3.24a.12.12,0,0,0,.14.14h1.83a.23.23,0,0,1,.24.24V34.7a.23.23,0,0,1-.24.24h-1.83a.12.12,0,0,0-.14.14v6.5c0,1.16.43,1.47,1.46,1.47h.51a.23.23,0,0,1,.24.24v1.39a.23.23,0,0,1-.24.24Z"/><path d="M221.76,44.8a.22.22,0,0,1-.24-.24v-11a.23.23,0,0,1,.24-.24h1.53a.23.23,0,0,1,.24.24v1.18h0A3.2,3.2,0,0,1,226.61,33a3.58,3.58,0,0,1,2.35.86c.12.12.14.22,0,.34l-.89,1.18a.22.22,0,0,1-.34,0,3.28,3.28,0,0,0-1.78-.55c-1.75,0-2.47,1.37-2.47,3.36v6.29a.22.22,0,0,1-.24.24Z"/><path d="M238.1,44.8a.23.23,0,0,1-.24-.24V43.48h0a3.52,3.52,0,0,1-3.15,1.59c-2.52,0-4-1.73-4-4.35V33.54a.23.23,0,0,1,.24-.24h1.53a.23.23,0,0,1,.24.24v6.7c0,1.87.84,2.95,2.55,2.95a2.55,2.55,0,0,0,2.59-2.83V33.54a.23.23,0,0,1,.24-.24h1.54a.23.23,0,0,1,.24.24v11a.23.23,0,0,1-.24.24Z"/><path d="M243.52,30.71a.23.23,0,0,1-.24-.24V28.72a.23.23,0,0,1,.24-.24h1.64a.23.23,0,0,1,.24.24v1.75a.23.23,0,0,1-.24.24Zm0,14.09a.23.23,0,0,1-.24-.24v-11a.23.23,0,0,1,.24-.24h1.54a.23.23,0,0,1,.24.24v11a.23.23,0,0,1-.24.24Z"/><path d="M249,44.8a.23.23,0,0,1-.24-.24v-11a.23.23,0,0,1,.24-.24h1.54a.23.23,0,0,1,.24.24v1.18h0a3.23,3.23,0,0,1,3-1.68,3.56,3.56,0,0,1,2.35.86c.13.12.15.22.05.34l-.89,1.18a.21.21,0,0,1-.33,0,3.31,3.31,0,0,0-1.78-.55c-1.75,0-2.47,1.37-2.47,3.36v6.29a.23.23,0,0,1-.24.24Z"/><path d="M263.13,42a9.1,9.1,0,0,1-.38-2.91,8.87,8.87,0,0,1,.36-2.9,4.83,4.83,0,0,1,9,0,10,10,0,0,1,.36,3.28.23.23,0,0,1-.26.25H265c-.1,0-.15,0-.15.14A4.3,4.3,0,0,0,265,41.2a2.84,2.84,0,0,0,2.91,2,3.74,3.74,0,0,0,2.95-1.27.25.25,0,0,1,.36-.05l1,.89a.23.23,0,0,1,0,.34,5.59,5.59,0,0,1-4.49,2A4.45,4.45,0,0,1,263.13,42Zm7.15-3.89a.13.13,0,0,0,.15-.15,4,4,0,0,0-.17-1.29,2.84,2.84,0,0,0-5.28,0,4,4,0,0,0-.17,1.29.13.13,0,0,0,.15.15Z"/><path d="M278,44.92c-2,0-2.81-1-2.81-3V28.72a.23.23,0,0,1,.24-.24H277a.23.23,0,0,1,.24.24V41.78c0,1,.36,1.27,1.15,1.27h.46a.23.23,0,0,1,.24.24v1.39a.23.23,0,0,1-.24.24Z"/><path d="M290,44.92c-2.24,0-3.1-1-3.1-3.26V35.08c0-.1-.05-.14-.15-.14h-1a.22.22,0,0,1-.23-.24V33.54a.22.22,0,0,1,.23-.24h1c.1,0,.15,0,.15-.14V29.92a.23.23,0,0,1,.24-.24h1.53a.23.23,0,0,1,.25.24v3.24c0,.1,0,.14.14.14h1.82a.23.23,0,0,1,.24.24V34.7a.23.23,0,0,1-.24.24H289.1c-.1,0-.14,0-.14.14v6.5c0,1.16.43,1.47,1.46,1.47h.5a.23.23,0,0,1,.24.24v1.39a.22.22,0,0,1-.24.24Z"/><path d="M294,44.8a.23.23,0,0,1-.24-.24v-11a.23.23,0,0,1,.24-.24h1.54a.23.23,0,0,1,.24.24v1.18h0A3.23,3.23,0,0,1,298.89,33a3.56,3.56,0,0,1,2.35.86c.12.12.15.22.05.34l-.89,1.18a.21.21,0,0,1-.33,0,3.31,3.31,0,0,0-1.78-.55c-1.75,0-2.47,1.37-2.47,3.36v6.29a.23.23,0,0,1-.24.24Z"/><path d="M309.55,44.8a.22.22,0,0,1-.24-.24v-1h0a3.74,3.74,0,0,1-3.4,1.52c-2.19,0-3.87-1.13-3.87-3.46s1.68-3.55,4.49-3.55h2.62c.09,0,.14-.05.14-.15v-.84c0-1.58-.63-2.25-2.76-2.25a4.5,4.5,0,0,0-2.79.81c-.12.1-.26.1-.33,0l-.65-1.11a.24.24,0,0,1,0-.33A6.38,6.38,0,0,1,306.69,33c3.27,0,4.51,1.08,4.51,3.91v7.61a.22.22,0,0,1-.24.24Zm-.29-3.72V39.81a.12.12,0,0,0-.14-.14h-2.31c-2,0-2.85.57-2.85,1.87s.86,1.8,2.4,1.8C308.16,43.34,309.26,42.5,309.26,41.08ZM306,31.43c-.14,0-.22-.09-.14-.24l1.82-3a.42.42,0,0,1,.41-.24h1.58c.15,0,.22.12.12.24l-2.21,3a.47.47,0,0,1-.45.24Z"/><path d="M315.19,44.8a.22.22,0,0,1-.24-.24V35.08c0-.1-.05-.14-.15-.14h-1a.23.23,0,0,1-.24-.24V33.54a.23.23,0,0,1,.24-.24h1c.1,0,.15,0,.15-.14v-1c0-2.72,1.1-3.7,3.5-3.7h.89a.23.23,0,0,1,.24.24v1.39a.23.23,0,0,1-.24.24h-.63c-1.46,0-1.75.31-1.75,1.73v1.08c0,.1.05.14.15.14h2.23a.23.23,0,0,1,.24.24V34.7a.23.23,0,0,1-.24.24h-2.23c-.1,0-.15,0-.15.14v9.48a.22.22,0,0,1-.24.24Zm7.2-14.09a.22.22,0,0,1-.24-.24V28.72a.23.23,0,0,1,.24-.24H324a.23.23,0,0,1,.24.24v1.75a.23.23,0,0,1-.24.24Zm.05,14.09a.22.22,0,0,1-.24-.24v-11a.23.23,0,0,1,.24-.24H324a.23.23,0,0,1,.24.24v11a.22.22,0,0,1-.24.24Z"/><path d="M327.33,36.14a4.45,4.45,0,0,1,4.54-3.1A4.6,4.6,0,0,1,335.8,35c.08.12.08.22-.07.34l-1.05.86a.22.22,0,0,1-.34,0,2.82,2.82,0,0,0-2.47-1.25,2.49,2.49,0,0,0-2.57,1.8A7.75,7.75,0,0,0,329,39a7.81,7.81,0,0,0,.26,2.35,2.49,2.49,0,0,0,2.57,1.8A2.82,2.82,0,0,0,334.34,42a.22.22,0,0,1,.34,0l1.05.87c.15.12.15.21.07.33a4.61,4.61,0,0,1-3.93,2,4.46,4.46,0,0,1-4.54-3.1A10.15,10.15,0,0,1,327,39,10,10,0,0,1,327.33,36.14Z"/><path d="M337.92,42a8.48,8.48,0,0,1-.39-2.93,8.37,8.37,0,0,1,.39-2.9,4.87,4.87,0,0,1,9.07,0,8.65,8.65,0,0,1,.38,2.9A8.77,8.77,0,0,1,347,42a4.87,4.87,0,0,1-9.07,0Zm7.12-.58a7.22,7.22,0,0,0,.27-2.35,7.16,7.16,0,0,0-.27-2.33,2.76,2.76,0,0,0-5.18,0A7.5,7.5,0,0,0,339.6,39a7.56,7.56,0,0,0,.26,2.35,2.76,2.76,0,0,0,5.18,0Z"/><path d="M355.51,49.12a.22.22,0,0,1-.24-.24V47.49a.23.23,0,0,1,.24-.24h.43c.94,0,1.44-.41,1.94-1.73l.39-1.05L354,33.54c-.05-.14,0-.24.19-.24h1.68a.29.29,0,0,1,.29.24l3,8.31h0l2.9-8.31a.29.29,0,0,1,.29-.24h1.63c.14,0,.24.1.19.24l-4.54,12.15c-1,2.71-1.89,3.43-3.62,3.43Z"/><path d="M.38,70A9.1,9.1,0,0,1,0,67a8.87,8.87,0,0,1,.36-2.9A4.44,4.44,0,0,1,4.87,61a4.44,4.44,0,0,1,4.51,3.1,9.62,9.62,0,0,1,.37,3.28.24.24,0,0,1-.27.25H2.21c-.1,0-.15,0-.15.14a4.27,4.27,0,0,0,.2,1.39,2.83,2.83,0,0,0,2.9,2,3.74,3.74,0,0,0,2.95-1.27.25.25,0,0,1,.36,0l1,.89a.22.22,0,0,1,0,.34,5.59,5.59,0,0,1-4.49,2A4.45,4.45,0,0,1,.38,70Zm7.16-3.89c.09,0,.14,0,.14-.15a4,4,0,0,0-.17-1.29,2.58,2.58,0,0,0-2.64-1.8,2.6,2.6,0,0,0-2.64,1.8,4,4,0,0,0-.17,1.29.13.13,0,0,0,.15.15Z"/><path d="M15.58,72.8c-.17,0-.24-.09-.29-.24l-4.13-11c-.05-.14,0-.24.19-.24H13c.17,0,.24.08.31.24l3,8.26h0l2.91-8.26a.29.29,0,0,1,.29-.24h1.63c.17,0,.24.1.19.24l-4.1,11a.31.31,0,0,1-.32.24Z"/><path d="M23.66,58.71a.23.23,0,0,1-.24-.24V56.72a.23.23,0,0,1,.24-.24H25.3a.23.23,0,0,1,.24.24v1.75a.23.23,0,0,1-.24.24Zm.05,14.09a.23.23,0,0,1-.24-.24v-11a.23.23,0,0,1,.24-.24h1.54a.23.23,0,0,1,.24.24v11a.23.23,0,0,1-.24.24Z"/><path d="M32.28,72.92c-2.23,0-3.1-1-3.1-3.26V63.08a.12.12,0,0,0-.14-.14h-1a.23.23,0,0,1-.24-.24V61.54a.23.23,0,0,1,.24-.24h1a.12.12,0,0,0,.14-.14V57.92a.23.23,0,0,1,.24-.24H31a.23.23,0,0,1,.24.24v3.24a.12.12,0,0,0,.14.14h1.83a.23.23,0,0,1,.24.24V62.7a.23.23,0,0,1-.24.24H31.34a.12.12,0,0,0-.14.14v6.5c0,1.16.43,1.47,1.46,1.47h.51a.23.23,0,0,1,.24.24v1.39a.23.23,0,0,1-.24.24Z"/><path d="M43,72.8a.22.22,0,0,1-.24-.24v-1h0a3.74,3.74,0,0,1-3.4,1.52c-2.19,0-3.87-1.13-3.87-3.46s1.68-3.55,4.49-3.55h2.62c.09,0,.14,0,.14-.15v-.84c0-1.58-.62-2.25-2.76-2.25a4.44,4.44,0,0,0-2.78.81c-.13.1-.27.1-.34,0l-.65-1.11a.24.24,0,0,1,.05-.33A6.38,6.38,0,0,1,40.15,61c3.27,0,4.51,1.08,4.51,3.91v7.61a.22.22,0,0,1-.24.24Zm-.29-3.72V67.81a.12.12,0,0,0-.14-.14H40.27c-2,0-2.85.57-2.85,1.87s.86,1.8,2.4,1.8C41.62,71.34,42.72,70.5,42.72,69.08Z"/><path d="M48.26,72.8a.23.23,0,0,1-.24-.24v-11a.23.23,0,0,1,.24-.24H49.8a.23.23,0,0,1,.24.24v1.18h0a3.23,3.23,0,0,1,3-1.68,3.56,3.56,0,0,1,2.35.86c.12.12.15.22,0,.34l-.89,1.18a.21.21,0,0,1-.33,0,3.31,3.31,0,0,0-1.78-.55c-1.75,0-2.47,1.37-2.47,3.36v6.29a.23.23,0,0,1-.24.24Z"/><path d="M69.89,72.8a.22.22,0,0,1-.24-.24V71.48h0a3.5,3.5,0,0,1-3.14,1.59c-2.52,0-4-1.73-4-4.35V61.54a.22.22,0,0,1,.23-.24h1.54a.23.23,0,0,1,.24.24v6.7c0,1.87.84,3,2.54,3a2.55,2.55,0,0,0,2.6-2.83V61.54a.23.23,0,0,1,.24-.24h1.53a.23.23,0,0,1,.24.24v11a.22.22,0,0,1-.24.24Z"/><path d="M82.58,72.8a.23.23,0,0,1-.24-.24V65.84c0-1.85-.84-2.93-2.56-2.93a2.59,2.59,0,0,0-2.65,2.81v6.84a.22.22,0,0,1-.24.24H75.36a.22.22,0,0,1-.24-.24v-11a.23.23,0,0,1,.24-.24h1.53a.23.23,0,0,1,.24.24V62.6h0A3.62,3.62,0,0,1,80.38,61c2.49,0,4,1.7,4,4.32v7.2a.23.23,0,0,1-.24.24Z"/><path d="M94.65,72.8a.22.22,0,0,1-.23-.24v-1h0A3.77,3.77,0,0,1,91,73.07c-2.18,0-3.86-1.13-3.86-3.46s1.68-3.55,4.49-3.55h2.61a.13.13,0,0,0,.15-.15v-.84c0-1.58-.63-2.25-2.76-2.25a4.48,4.48,0,0,0-2.79.81c-.12.1-.26.1-.33,0l-.65-1.11a.24.24,0,0,1,0-.33A6.36,6.36,0,0,1,91.8,61c3.26,0,4.51,1.08,4.51,3.91v7.61a.23.23,0,0,1-.24.24Zm-.28-3.72V67.81c0-.1-.05-.14-.15-.14h-2.3c-2,0-2.86.57-2.86,1.87s.87,1.8,2.4,1.8C93.26,71.34,94.37,70.5,94.37,69.08Z"/><path d="M111.91,72.8a.23.23,0,0,1-.24-.24v-1h0a3.77,3.77,0,0,1-3.41,1.52c-2.19,0-3.87-1.13-3.87-3.46s1.68-3.55,4.49-3.55h2.62c.09,0,.14,0,.14-.15v-.84c0-1.58-.62-2.25-2.76-2.25a4.47,4.47,0,0,0-2.78.81c-.12.1-.27.1-.34,0l-.65-1.11a.25.25,0,0,1,0-.33A6.4,6.4,0,0,1,109.05,61c3.27,0,4.52,1.08,4.52,3.91v7.61a.23.23,0,0,1-.24.24Zm-.29-3.72V67.81a.12.12,0,0,0-.14-.14h-2.31c-2,0-2.85.57-2.85,1.87s.86,1.8,2.4,1.8C110.52,71.34,111.62,70.5,111.62,69.08Z"/><path d="M116.59,64.14a4.45,4.45,0,0,1,4.54-3.1A4.6,4.6,0,0,1,125.06,63a.23.23,0,0,1-.07.34l-1.06.86a.21.21,0,0,1-.33,0,2.82,2.82,0,0,0-2.47-1.25,2.49,2.49,0,0,0-2.57,1.8,10.27,10.27,0,0,0,0,4.68,2.49,2.49,0,0,0,2.57,1.8A2.82,2.82,0,0,0,123.6,70a.21.21,0,0,1,.33,0l1.06.87c.14.12.14.21.07.33a4.61,4.61,0,0,1-3.93,1.95,4.46,4.46,0,0,1-4.54-3.1,9.81,9.81,0,0,1-.36-2.93A9.69,9.69,0,0,1,116.59,64.14Z"/><path d="M127.15,64.14a4.45,4.45,0,0,1,4.54-3.1A4.6,4.6,0,0,1,135.62,63a.23.23,0,0,1-.07.34l-1.06.86a.21.21,0,0,1-.33,0,2.82,2.82,0,0,0-2.47-1.25,2.49,2.49,0,0,0-2.57,1.8,10.27,10.27,0,0,0,0,4.68,2.49,2.49,0,0,0,2.57,1.8A2.82,2.82,0,0,0,134.16,70a.21.21,0,0,1,.33,0l1.06.87c.14.12.14.21.07.33a4.61,4.61,0,0,1-3.93,1.95,4.46,4.46,0,0,1-4.54-3.1,9.81,9.81,0,0,1-.36-2.93A9.69,9.69,0,0,1,127.15,64.14Z"/><path d="M138.53,58.71a.22.22,0,0,1-.24-.24V56.72a.23.23,0,0,1,.24-.24h1.63a.23.23,0,0,1,.24.24v1.75a.23.23,0,0,1-.24.24Zm0,14.09a.23.23,0,0,1-.24-.24v-11a.23.23,0,0,1,.24-.24h1.54a.23.23,0,0,1,.24.24v11a.23.23,0,0,1-.24.24Z"/><path d="M151,72.8a.22.22,0,0,1-.24-.24v-1.1h0a3.49,3.49,0,0,1-3.26,1.61,3.8,3.8,0,0,1-4-2.76,9.68,9.68,0,0,1-.41-3.27,9.57,9.57,0,0,1,.41-3.24,3.8,3.8,0,0,1,4-2.76,3.48,3.48,0,0,1,3.26,1.58h0v-5.9a.23.23,0,0,1,.24-.24h1.53a.23.23,0,0,1,.24.24V72.56a.22.22,0,0,1-.24.24Zm-.51-3.36a7.41,7.41,0,0,0,.27-2.4,7.53,7.53,0,0,0-.27-2.4,2.71,2.71,0,0,0-5.06,0,8.21,8.21,0,0,0-.27,2.4,8,8,0,0,0,.27,2.4,2.7,2.7,0,0,0,5.06,0Z"/><path d="M155.92,70a9.1,9.1,0,0,1-.38-2.91,8.87,8.87,0,0,1,.36-2.9,4.83,4.83,0,0,1,9,0,9.62,9.62,0,0,1,.37,3.28.24.24,0,0,1-.27.25h-7.27c-.1,0-.15,0-.15.14a4.27,4.27,0,0,0,.2,1.39,2.83,2.83,0,0,0,2.9,2,3.74,3.74,0,0,0,3-1.27.25.25,0,0,1,.36,0l1,.89a.22.22,0,0,1,0,.34,5.59,5.59,0,0,1-4.49,2A4.46,4.46,0,0,1,155.92,70Zm7.16-3.89c.09,0,.14,0,.14-.15a4,4,0,0,0-.17-1.29,2.84,2.84,0,0,0-5.28,0,4,4,0,0,0-.17,1.29.13.13,0,0,0,.15.15Z"/><path d="M175.51,72.8a.23.23,0,0,1-.24-.24V65.84c0-1.85-.84-2.93-2.57-2.93a2.58,2.58,0,0,0-2.64,2.81v6.84a.23.23,0,0,1-.24.24h-1.54a.23.23,0,0,1-.24-.24v-11a.23.23,0,0,1,.24-.24h1.54a.23.23,0,0,1,.24.24V62.6h0A3.65,3.65,0,0,1,173.3,61c2.5,0,4,1.7,4,4.32v7.2a.23.23,0,0,1-.25.24Z"/><path d="M184,72.92c-2.24,0-3.1-1-3.1-3.26V63.08a.12.12,0,0,0-.14-.14h-1a.23.23,0,0,1-.24-.24V61.54a.23.23,0,0,1,.24-.24h1a.12.12,0,0,0,.14-.14V57.92a.23.23,0,0,1,.24-.24h1.54a.23.23,0,0,1,.24.24v3.24c0,.1,0,.14.14.14h1.82a.23.23,0,0,1,.24.24V62.7a.23.23,0,0,1-.24.24H183c-.1,0-.14,0-.14.14v6.5c0,1.16.43,1.47,1.46,1.47h.5a.23.23,0,0,1,.24.24v1.39a.22.22,0,0,1-.24.24Z"/><path d="M187.41,70A9.1,9.1,0,0,1,187,67a8.87,8.87,0,0,1,.36-2.9,4.83,4.83,0,0,1,9,0,10,10,0,0,1,.36,3.28.23.23,0,0,1-.26.25h-7.27c-.1,0-.15,0-.15.14a4.3,4.3,0,0,0,.19,1.39,2.84,2.84,0,0,0,2.91,2,3.74,3.74,0,0,0,2.95-1.27.25.25,0,0,1,.36,0l1,.89a.21.21,0,0,1,0,.34,5.59,5.59,0,0,1-4.49,2A4.45,4.45,0,0,1,187.41,70Zm7.15-3.89a.13.13,0,0,0,.15-.15,4,4,0,0,0-.17-1.29,2.84,2.84,0,0,0-5.28,0,4,4,0,0,0-.17,1.29.13.13,0,0,0,.15.15Z"/><path d="M207.88,72.8a.27.27,0,0,1-.28-.24l-4.13-11c-.05-.14,0-.24.19-.24h1.66c.16,0,.24.08.31.24l3,8.26h.05l2.91-8.26a.28.28,0,0,1,.28-.24h1.64c.16,0,.24.1.19.24l-4.11,11a.3.3,0,0,1-.31.24Z"/><path d="M216,58.71a.23.23,0,0,1-.24-.24V56.72a.23.23,0,0,1,.24-.24h1.63a.23.23,0,0,1,.24.24v1.75a.22.22,0,0,1-.24.24ZM216,72.8a.23.23,0,0,1-.24-.24v-11a.23.23,0,0,1,.24-.24h1.54a.23.23,0,0,1,.24.24v11a.23.23,0,0,1-.24.24Z"/><path d="M228.21,72.8a.23.23,0,0,1-.24-.24v-1h0a3.77,3.77,0,0,1-3.41,1.52c-2.18,0-3.86-1.13-3.86-3.46s1.68-3.55,4.48-3.55h2.62c.1,0,.14,0,.14-.15v-.84c0-1.58-.62-2.25-2.76-2.25a4.47,4.47,0,0,0-2.78.81.22.22,0,0,1-.34,0l-.64-1.11a.24.24,0,0,1,0-.33A6.42,6.42,0,0,1,225.36,61c3.26,0,4.51,1.08,4.51,3.91v7.61a.23.23,0,0,1-.24.24Zm-.29-3.72V67.81c0-.1,0-.14-.14-.14h-2.3c-2,0-2.86.57-2.86,1.87s.86,1.8,2.4,1.8C226.82,71.34,227.92,70.5,227.92,69.08Z"/><path d="M236,72.92c-2,0-2.81-1-2.81-3V56.72a.23.23,0,0,1,.24-.24H235a.23.23,0,0,1,.24.24V69.78c0,1,.36,1.27,1.15,1.27h.45a.23.23,0,0,1,.24.24v1.39a.22.22,0,0,1-.24.24Z"/><path d="M239.23,70.5a.22.22,0,0,1,.24-.24h1.82a.22.22,0,0,1,.24.24v2.06a.22.22,0,0,1-.24.24h-1.82a.22.22,0,0,1-.24-.24Z"/></g></g></svg>