<svg xmlns="http://www.w3.org/2000/svg" viewBox="0 0 638.62 43.2"><title>15c</title><g id="Capa_2" data-name="Capa 2"><g id="respuestas_contorno" data-name="respuestas contorno"><path d="M.9,15a.21.21,0,0,1-.22-.22V.22A.21.21,0,0,1,.9,0H6.23C9.11,0,11,1.76,11,4.47S9.11,8.93,6.23,8.93H2.77c-.09,0-.13.05-.13.14v5.67a.21.21,0,0,1-.22.22ZM9,4.47C9,2.84,8,1.83,6.12,1.83H2.77c-.09,0-.13,0-.13.13V7a.12.12,0,0,0,.13.13H6.12C8,7.11,9,6.09,9,4.47Z"/><path d="M13,2.05a.21.21,0,0,1-.22-.22V.22A.21.21,0,0,1,13,0h1.49a.2.2,0,0,1,.22.22V1.83a.2.2,0,0,1-.22.22ZM13,15a.21.21,0,0,1-.22-.22V4.64A.21.21,0,0,1,13,4.42h1.41a.21.21,0,0,1,.22.22v10.1a.21.21,0,0,1-.22.22Z"/><path d="M24,15a.21.21,0,0,1-.22-.22v-1h0a3.21,3.21,0,0,1-3,1.47,3.48,3.48,0,0,1-3.63-2.53,8.9,8.9,0,0,1-.37-3,8.89,8.89,0,0,1,.37-3,3.49,3.49,0,0,1,3.63-2.53,3.22,3.22,0,0,1,3,1.45h0V.22A.21.21,0,0,1,24,0h1.41a.21.21,0,0,1,.22.22V14.74a.21.21,0,0,1-.22.22Zm-.46-3.08a6.92,6.92,0,0,0,.24-2.2,7.08,7.08,0,0,0-.24-2.2A2.23,2.23,0,0,0,21.17,5.9a2.25,2.25,0,0,0-2.32,1.58,7.74,7.74,0,0,0-.24,2.2,7.51,7.51,0,0,0,.24,2.2,2.27,2.27,0,0,0,2.32,1.61A2.26,2.26,0,0,0,23.5,11.88Z"/><path d="M34.69,15a.21.21,0,0,1-.22-.22v-.92h0a3.45,3.45,0,0,1-3.12,1.38c-2,0-3.54-1-3.54-3.16s1.54-3.26,4.11-3.26h2.4c.09,0,.13,0,.13-.13V7.88c0-1.46-.57-2.07-2.53-2.07a4.07,4.07,0,0,0-2.55.75.2.2,0,0,1-.31,0l-.59-1a.23.23,0,0,1,0-.31,5.88,5.88,0,0,1,3.59-1c3,0,4.13,1,4.13,3.59v7A.21.21,0,0,1,36,15Zm-.26-3.41V10.39c0-.09,0-.14-.13-.14H32.19c-1.83,0-2.62.53-2.62,1.72s.79,1.65,2.2,1.65C33.42,13.62,34.43,12.85,34.43,11.55Z"/><path d="M45.78,15.07c-1.85,0-2.57-.88-2.57-2.77V.22A.21.21,0,0,1,43.43,0h1.41a.21.21,0,0,1,.22.22v12c0,.88.33,1.17,1,1.17h.42a.2.2,0,0,1,.22.22v1.27a.21.21,0,0,1-.22.22Z"/><path d="M54.85,15a.2.2,0,0,1-.22-.22v-.92h0a3.44,3.44,0,0,1-3.12,1.38c-2,0-3.54-1-3.54-3.16s1.54-3.26,4.11-3.26h2.4c.09,0,.13,0,.13-.13V7.88c0-1.46-.57-2.07-2.53-2.07a4.09,4.09,0,0,0-2.55.75.2.2,0,0,1-.31,0l-.59-1a.23.23,0,0,1,0-.31,5.9,5.9,0,0,1,3.59-1c3,0,4.13,1,4.13,3.59v7a.2.2,0,0,1-.22.22Zm-.27-3.41V10.39c0-.09,0-.14-.13-.14H52.34c-1.83,0-2.62.53-2.62,1.72s.79,1.65,2.2,1.65C53.57,13.62,54.58,12.85,54.58,11.55Z"/><path d="M69.78,15a.21.21,0,0,1-.22-.22v-.92h0a3.45,3.45,0,0,1-3.12,1.38c-2,0-3.54-1-3.54-3.16S64.42,8.78,67,8.78h2.4c.09,0,.13,0,.13-.13V7.88c0-1.46-.57-2.07-2.53-2.07a4.07,4.07,0,0,0-2.55.75c-.11.09-.25.09-.31,0l-.6-1a.24.24,0,0,1,0-.31,5.88,5.88,0,0,1,3.59-1c3,0,4.13,1,4.13,3.59v7a.21.21,0,0,1-.22.22Zm-.26-3.41V10.39c0-.09,0-.14-.13-.14H67.28c-1.83,0-2.62.53-2.62,1.72s.79,1.65,2.2,1.65C68.51,13.62,69.52,12.85,69.52,11.55Z"/><path d="M73.94,18.92a.21.21,0,0,1-.22-.22V17.43a.2.2,0,0,1,.22-.22h.4c.86,0,1.32-.38,1.78-1.59l.35-1-3.87-10c0-.13,0-.22.17-.22h1.55a.26.26,0,0,1,.26.22l2.77,7.62h.05l2.66-7.62a.26.26,0,0,1,.26-.22h1.5c.13,0,.22.09.17.22L77.83,15.78c-.92,2.48-1.73,3.14-3.32,3.14Z"/><path d="M90.09,15a.21.21,0,0,1-.22-.22v-1h0A3.21,3.21,0,0,1,87,15.2c-2.31,0-3.66-1.58-3.66-4V4.64a.21.21,0,0,1,.22-.22h1.41a.21.21,0,0,1,.22.22v6.14c0,1.72.77,2.71,2.33,2.71a2.34,2.34,0,0,0,2.38-2.6V4.64a.21.21,0,0,1,.22-.22H91.5a.21.21,0,0,1,.22.22v10.1a.21.21,0,0,1-.22.22Z"/><path d="M101.05,15a.2.2,0,0,1-.22-.22v-1h0a3.18,3.18,0,0,1-3,1.47,3.48,3.48,0,0,1-3.63-2.53,8.65,8.65,0,0,1-.37-3,8.63,8.63,0,0,1,.37-3,3.49,3.49,0,0,1,3.63-2.53,3.19,3.19,0,0,1,3,1.45h0V.22a.2.2,0,0,1,.22-.22h1.4a.21.21,0,0,1,.22.22V14.74a.21.21,0,0,1-.22.22Zm-.47-3.08a6.58,6.58,0,0,0,.25-2.2,6.73,6.73,0,0,0-.25-2.2,2.49,2.49,0,0,0-4.64,0,7.39,7.39,0,0,0-.24,2.2,7.18,7.18,0,0,0,.24,2.2,2.48,2.48,0,0,0,4.64,0Z"/><path d="M111.78,15a.21.21,0,0,1-.22-.22v-.92h0a3.45,3.45,0,0,1-3.12,1.38c-2,0-3.55-1-3.55-3.16s1.54-3.26,4.12-3.26h2.4a.12.12,0,0,0,.13-.13V7.88c0-1.46-.57-2.07-2.53-2.07a4.13,4.13,0,0,0-2.56.75.19.19,0,0,1-.3,0l-.6-1a.24.24,0,0,1,0-.31,5.87,5.87,0,0,1,3.58-1c3,0,4.14,1,4.14,3.59v7a.21.21,0,0,1-.22.22Zm-.26-3.41V10.39a.12.12,0,0,0-.13-.14h-2.12c-1.82,0-2.61.53-2.61,1.72s.79,1.65,2.19,1.65C110.5,13.62,111.52,12.85,111.52,11.55Z"/><path d="M126.72,15a.21.21,0,0,1-.22-.22v-.92h0a3.47,3.47,0,0,1-3.13,1.38c-2,0-3.54-1-3.54-3.16s1.54-3.26,4.11-3.26h2.4c.09,0,.14,0,.14-.13V7.88c0-1.46-.58-2.07-2.54-2.07a4.12,4.12,0,0,0-2.55.75.2.2,0,0,1-.31,0l-.59-1a.24.24,0,0,1,0-.31,5.92,5.92,0,0,1,3.59-1c3,0,4.14,1,4.14,3.59v7A.21.21,0,0,1,128,15Zm-.26-3.41V10.39a.13.13,0,0,0-.14-.14h-2.11c-1.83,0-2.62.53-2.62,1.72s.79,1.65,2.2,1.65C125.44,13.62,126.46,12.85,126.46,11.55Z"/><path d="M133.41,15.07c-1.85,0-2.58-.88-2.58-2.77V.22a.21.21,0,0,1,.22-.22h1.41a.21.21,0,0,1,.22.22v12c0,.88.33,1.17,1.06,1.17h.41a.2.2,0,0,1,.22.22v1.27a.2.2,0,0,1-.22.22Z"/><path d="M140.71,18.92a.21.21,0,0,1-.22-.22V4.64a.21.21,0,0,1,.22-.22h1.41a.21.21,0,0,1,.22.22v1h0a3.21,3.21,0,0,1,3-1.45A3.48,3.48,0,0,1,149,6.71a8.61,8.61,0,0,1,.38,3,8.62,8.62,0,0,1-.38,3,3.47,3.47,0,0,1-3.63,2.53,3.2,3.2,0,0,1-3-1.47h0v5a.21.21,0,0,1-.22.22Zm6.51-7a7.18,7.18,0,0,0,.24-2.2,7.39,7.39,0,0,0-.24-2.2,2.49,2.49,0,0,0-4.64,0,6.79,6.79,0,0,0-.24,2.2,6.63,6.63,0,0,0,.24,2.2,2.48,2.48,0,0,0,4.64,0Z"/><path d="M151.16,12.34a8.25,8.25,0,0,1-.35-2.66A8.17,8.17,0,0,1,151.14,7a4.43,4.43,0,0,1,8.27,0,9.18,9.18,0,0,1,.33,3,.21.21,0,0,1-.24.22h-6.67c-.09,0-.13.05-.13.14a3.9,3.9,0,0,0,.18,1.27,2.6,2.6,0,0,0,2.66,1.83,3.47,3.47,0,0,0,2.71-1.17.22.22,0,0,1,.33,0l.9.81a.2.2,0,0,1,0,.31,5.13,5.13,0,0,1-4.12,1.8A4.07,4.07,0,0,1,151.16,12.34Zm6.56-3.56a.12.12,0,0,0,.13-.13,3.68,3.68,0,0,0-.16-1.19,2.6,2.6,0,0,0-4.84,0,3.71,3.71,0,0,0-.15,1.19c0,.09,0,.13.13.13Z"/><path d="M162.05,15a.21.21,0,0,1-.22-.22V4.64a.21.21,0,0,1,.22-.22h1.41a.21.21,0,0,1,.22.22V5.72h0a2.93,2.93,0,0,1,2.79-1.54,3.26,3.26,0,0,1,2.16.79c.11.11.13.2,0,.31l-.81,1.08a.2.2,0,0,1-.31,0,2.93,2.93,0,0,0-1.63-.5c-1.6,0-2.26,1.25-2.26,3.08v5.76a.21.21,0,0,1-.22.22Z"/><path d="M169.07,13.62a.21.21,0,0,1,0-.31l.9-1a.23.23,0,0,1,.31,0,5.07,5.07,0,0,0,3.25,1.21c1.54,0,2.31-.66,2.31-1.6s-.39-1.3-2-1.48l-1.13-.11c-2.06-.22-3.14-1.25-3.14-3,0-2,1.43-3.21,3.92-3.21a6.3,6.3,0,0,1,3.74,1.17c.11.06.11.19,0,.31l-.75.94a.22.22,0,0,1-.31.05,5.54,5.54,0,0,0-2.84-.86c-1.32,0-2,.59-2,1.45s.51,1.28,2.07,1.43l1.1.11c2.14.2,3.17,1.28,3.17,3,0,2.07-1.5,3.45-4.25,3.45A6.52,6.52,0,0,1,169.07,13.62Z"/><path d="M179.41,12.37a8,8,0,0,1-.36-2.69A7.88,7.88,0,0,1,179.41,7a4.46,4.46,0,0,1,8.31,0,7.64,7.64,0,0,1,.36,2.66,7.75,7.75,0,0,1-.36,2.69,4.47,4.47,0,0,1-8.31,0Zm6.53-.53a6.82,6.82,0,0,0,.24-2.16,6.61,6.61,0,0,0-.24-2.13,2.53,2.53,0,0,0-4.75,0A6.61,6.61,0,0,0,181,9.68a6.82,6.82,0,0,0,.24,2.16,2.53,2.53,0,0,0,4.75,0Z"/><path d="M197,15a.21.21,0,0,1-.22-.22V8.58c0-1.69-.77-2.68-2.36-2.68A2.36,2.36,0,0,0,192,8.47v6.27a.21.21,0,0,1-.22.22h-1.41a.2.2,0,0,1-.21-.22V4.64a.2.2,0,0,1,.21-.22h1.41a.21.21,0,0,1,.22.22v1h0A3.35,3.35,0,0,1,195,4.18c2.29,0,3.66,1.56,3.66,4v6.6a.21.21,0,0,1-.22.22Z"/><path d="M207.63,15a.21.21,0,0,1-.22-.22v-.92h0a3.45,3.45,0,0,1-3.12,1.38c-2,0-3.55-1-3.55-3.16s1.54-3.26,4.12-3.26h2.4c.09,0,.13,0,.13-.13V7.88c0-1.46-.57-2.07-2.53-2.07a4.07,4.07,0,0,0-2.55.75c-.11.09-.25.09-.31,0l-.6-1a.24.24,0,0,1,.05-.31,5.87,5.87,0,0,1,3.58-1c3,0,4.14,1,4.14,3.59v7a.21.21,0,0,1-.22.22Zm-.26-3.41V10.39c0-.09,0-.14-.13-.14h-2.12c-1.82,0-2.61.53-2.61,1.72s.79,1.65,2.2,1.65C206.36,13.62,207.37,12.85,207.37,11.55Z"/><path d="M214.32,15.07c-1.85,0-2.57-.88-2.57-2.77V.22A.2.2,0,0,1,212,0h1.4a.2.2,0,0,1,.22.22v12c0,.88.33,1.17,1.06,1.17h.42a.2.2,0,0,1,.22.22v1.27a.21.21,0,0,1-.22.22Z"/><path d="M228,15a.21.21,0,0,1-.22-.22v-1h0a3.19,3.19,0,0,1-3,1.47,3.47,3.47,0,0,1-3.63-2.53,8.65,8.65,0,0,1-.37-3,8.63,8.63,0,0,1,.37-3,3.48,3.48,0,0,1,3.63-2.53,3.2,3.2,0,0,1,3,1.45h0V.22A.21.21,0,0,1,228,0h1.41a.21.21,0,0,1,.22.22V14.74a.21.21,0,0,1-.22.22Zm-.46-3.08a6.63,6.63,0,0,0,.24-2.2,6.79,6.79,0,0,0-.24-2.2,2.49,2.49,0,0,0-4.64,0,7.39,7.39,0,0,0-.24,2.2,7.18,7.18,0,0,0,.24,2.2,2.48,2.48,0,0,0,4.64,0Z"/><path d="M232.07,12.34a8.25,8.25,0,0,1-.35-2.66A8.17,8.17,0,0,1,232.05,7a4.44,4.44,0,0,1,8.28,0,9.47,9.47,0,0,1,.33,3c0,.14-.09.22-.25.22h-6.66a.13.13,0,0,0-.14.14,3.9,3.9,0,0,0,.18,1.27,2.6,2.6,0,0,0,2.66,1.83,3.44,3.44,0,0,0,2.71-1.17.22.22,0,0,1,.33,0l.9.81a.2.2,0,0,1,0,.31,5.09,5.09,0,0,1-4.11,1.8A4.08,4.08,0,0,1,232.07,12.34Zm6.56-3.56c.09,0,.13,0,.13-.13a3.71,3.71,0,0,0-.15-1.19,2.6,2.6,0,0,0-4.84,0,3.68,3.68,0,0,0-.16,1.19c0,.09,0,.13.14.13Z"/><path d="M249.67,15.07c-1.84,0-2.57-.88-2.57-2.77V.22a.21.21,0,0,1,.22-.22h1.41a.21.21,0,0,1,.22.22v12c0,.88.33,1.17,1.05,1.17h.42a.2.2,0,0,1,.22.22v1.27a.21.21,0,0,1-.22.22Z"/><path d="M258.74,15a.21.21,0,0,1-.22-.22v-.92h0a3.47,3.47,0,0,1-3.13,1.38c-2,0-3.54-1-3.54-3.16s1.54-3.26,4.11-3.26h2.4c.09,0,.13,0,.13-.13V7.88c0-1.46-.57-2.07-2.53-2.07a4.09,4.09,0,0,0-2.55.75.2.2,0,0,1-.31,0l-.59-1a.23.23,0,0,1,0-.31,5.92,5.92,0,0,1,3.59-1c3,0,4.14,1,4.14,3.59v7A.21.21,0,0,1,260,15Zm-.27-3.41V10.39c0-.09,0-.14-.13-.14h-2.11c-1.83,0-2.62.53-2.62,1.72s.79,1.65,2.2,1.65C257.46,13.62,258.47,12.85,258.47,11.55Z"/><path d="M266.92,15a.21.21,0,0,1-.22-.22V13.58a.34.34,0,0,1,.09-.25l5.79-7.19v0h-5.37a.2.2,0,0,1-.22-.21V4.64a.21.21,0,0,1,.22-.22h7.35a.21.21,0,0,1,.22.22V5.88a.36.36,0,0,1-.09.24l-5.75,7.13v0h5.62a.21.21,0,0,1,.22.22v1.23a.21.21,0,0,1-.22.22Z"/><path d="M276.62,12.37a8,8,0,0,1-.35-2.69A7.92,7.92,0,0,1,276.62,7a4.47,4.47,0,0,1,8.32,0,7.92,7.92,0,0,1,.35,2.66,8,8,0,0,1-.35,2.69,4.47,4.47,0,0,1-8.32,0Zm6.54-.53a7.13,7.13,0,0,0,.24-2.16,6.91,6.91,0,0,0-.24-2.13,2.54,2.54,0,0,0-4.76,0,6.91,6.91,0,0,0-.24,2.13,7.13,7.13,0,0,0,.24,2.16,2.54,2.54,0,0,0,4.76,0Z"/><path d="M294.22,15a.21.21,0,0,1-.22-.22V8.58c0-1.69-.77-2.68-2.35-2.68a2.36,2.36,0,0,0-2.42,2.57v6.27A.21.21,0,0,1,289,15H287.6a.21.21,0,0,1-.22-.22V4.64a.21.21,0,0,1,.22-.22H289a.21.21,0,0,1,.22.22v1h0a3.35,3.35,0,0,1,2.95-1.43c2.29,0,3.65,1.56,3.65,4v6.6a.21.21,0,0,1-.22.22Z"/><path d="M304.85,15a.21.21,0,0,1-.22-.22v-.92h0a3.47,3.47,0,0,1-3.13,1.38c-2,0-3.54-1-3.54-3.16s1.54-3.26,4.11-3.26h2.4c.09,0,.13,0,.13-.13V7.88c0-1.46-.57-2.07-2.53-2.07a4.12,4.12,0,0,0-2.55.75.2.2,0,0,1-.31,0l-.59-1a.24.24,0,0,1,0-.31,5.92,5.92,0,0,1,3.59-1c3,0,4.14,1,4.14,3.59v7a.21.21,0,0,1-.22.22Zm-.27-3.41V10.39c0-.09,0-.14-.13-.14h-2.11c-1.83,0-2.62.53-2.62,1.72s.79,1.65,2.2,1.65C303.57,13.62,304.58,12.85,304.58,11.55Z"/><path d="M313.63,18.92a.2.2,0,0,1-.22-.22V4.64a.2.2,0,0,1,.22-.22H315a.2.2,0,0,1,.22.22v1h0a3.19,3.19,0,0,1,3-1.45,3.49,3.49,0,0,1,3.63,2.53,8.89,8.89,0,0,1,.37,3,8.9,8.9,0,0,1-.37,3,3.48,3.48,0,0,1-3.63,2.53,3.18,3.18,0,0,1-3-1.47h0v5a.2.2,0,0,1-.22.22Zm6.51-7a7.51,7.51,0,0,0,.24-2.2,7.74,7.74,0,0,0-.24-2.2,2.49,2.49,0,0,0-4.64,0,6.73,6.73,0,0,0-.25,2.2,6.58,6.58,0,0,0,.25,2.2,2.48,2.48,0,0,0,4.64,0Z"/><path d="M330.74,15a.21.21,0,0,1-.22-.22v-.92h0a3.45,3.45,0,0,1-3.12,1.38c-2,0-3.55-1-3.55-3.16s1.54-3.26,4.12-3.26h2.4a.12.12,0,0,0,.13-.13V7.88c0-1.46-.57-2.07-2.53-2.07a4.07,4.07,0,0,0-2.55.75c-.11.09-.25.09-.31,0l-.6-1a.24.24,0,0,1,.05-.31,5.87,5.87,0,0,1,3.58-1c3,0,4.14,1,4.14,3.59v7A.21.21,0,0,1,332,15Zm-.26-3.41V10.39a.12.12,0,0,0-.13-.14h-2.12c-1.82,0-2.61.53-2.61,1.72s.79,1.65,2.2,1.65C329.47,13.62,330.48,12.85,330.48,11.55Z"/><path d="M335.12,15a.21.21,0,0,1-.22-.22V4.64a.21.21,0,0,1,.22-.22h1.41a.21.21,0,0,1,.22.22V5.72h0a2.94,2.94,0,0,1,2.79-1.54,3.26,3.26,0,0,1,2.16.79c.11.11.13.2,0,.31L341,6.36a.2.2,0,0,1-.31,0A2.93,2.93,0,0,0,339,5.9c-1.6,0-2.26,1.25-2.26,3.08v5.76a.21.21,0,0,1-.22.22Z"/><path d="M348.89,15a.21.21,0,0,1-.22-.22v-.92h0a3.45,3.45,0,0,1-3.12,1.38c-2,0-3.55-1-3.55-3.16s1.54-3.26,4.12-3.26h2.4a.12.12,0,0,0,.13-.13V7.88c0-1.46-.57-2.07-2.53-2.07a4.13,4.13,0,0,0-2.56.75c-.11.09-.24.09-.3,0l-.6-1a.24.24,0,0,1,.05-.31,5.87,5.87,0,0,1,3.58-1c3,0,4.14,1,4.14,3.59v7a.21.21,0,0,1-.22.22Zm-.26-3.41V10.39a.12.12,0,0,0-.13-.14h-2.12c-1.82,0-2.62.53-2.62,1.72s.8,1.65,2.21,1.65C347.62,13.62,348.63,12.85,348.63,11.55Z"/><path d="M364.05,18.92a.21.21,0,0,1-.22-.22v-5h0a3.2,3.2,0,0,1-3,1.47,3.48,3.48,0,0,1-3.64-2.53,8.9,8.9,0,0,1-.37-3,8.89,8.89,0,0,1,.37-3,3.49,3.49,0,0,1,3.64-2.53,3.21,3.21,0,0,1,3,1.45h0v-1a.21.21,0,0,1,.22-.22h1.41a.21.21,0,0,1,.22.22V18.7a.21.21,0,0,1-.22.22Zm-.46-7a6.92,6.92,0,0,0,.24-2.2,7.08,7.08,0,0,0-.24-2.2,2.5,2.5,0,0,0-4.65,0,7.74,7.74,0,0,0-.24,2.2,7.51,7.51,0,0,0,.24,2.2,2.48,2.48,0,0,0,4.65,0Z"/><path d="M375,15a.21.21,0,0,1-.22-.22v-1h0a3.22,3.22,0,0,1-2.89,1.45c-2.31,0-3.65-1.58-3.65-4V4.64a.21.21,0,0,1,.22-.22h1.41a.21.21,0,0,1,.22.22v6.14c0,1.72.77,2.71,2.33,2.71a2.34,2.34,0,0,0,2.38-2.6V4.64a.21.21,0,0,1,.22-.22h1.41a.21.21,0,0,1,.22.22v10.1a.21.21,0,0,1-.22.22Z"/><path d="M379.1,12.34a8.2,8.2,0,0,1-.36-2.66A8.17,8.17,0,0,1,379.07,7a4.44,4.44,0,0,1,8.28,0,9.18,9.18,0,0,1,.33,3,.21.21,0,0,1-.24.22h-6.67c-.09,0-.13.05-.13.14a3.93,3.93,0,0,0,.17,1.27,2.62,2.62,0,0,0,2.67,1.83,3.43,3.43,0,0,0,2.7-1.17.22.22,0,0,1,.33,0l.9.81a.21.21,0,0,1,0,.31,5.13,5.13,0,0,1-4.12,1.8A4.07,4.07,0,0,1,379.1,12.34Zm6.55-3.56c.09,0,.14,0,.14-.13a3.68,3.68,0,0,0-.16-1.19,2.6,2.6,0,0,0-4.84,0,3.71,3.71,0,0,0-.15,1.19c0,.09,0,.13.13.13Z"/><path d="M396.7,15.07c-1.85,0-2.58-.88-2.58-2.77V.22a.21.21,0,0,1,.22-.22h1.41a.21.21,0,0,1,.22.22v12c0,.88.33,1.17,1.06,1.17h.41a.21.21,0,0,1,.23.22v1.27a.21.21,0,0,1-.23.22Z"/><path d="M399.09,12.34a8.25,8.25,0,0,1-.35-2.66A8.17,8.17,0,0,1,399.07,7a4.43,4.43,0,0,1,8.27,0,8.91,8.91,0,0,1,.33,3c0,.14-.08.22-.24.22h-6.66a.13.13,0,0,0-.14.14,3.9,3.9,0,0,0,.18,1.27,2.6,2.6,0,0,0,2.66,1.83,3.44,3.44,0,0,0,2.71-1.17.22.22,0,0,1,.33,0l.9.81a.2.2,0,0,1,0,.31,5.09,5.09,0,0,1-4.11,1.8A4.08,4.08,0,0,1,399.09,12.34Zm6.56-3.56c.09,0,.13,0,.13-.13a3.71,3.71,0,0,0-.15-1.19,2.6,2.6,0,0,0-4.84,0,3.68,3.68,0,0,0-.16,1.19c0,.09.05.13.14.13Z"/><path d="M420.54,15a.21.21,0,0,1-.22-.22v-.92h0a3.45,3.45,0,0,1-3.12,1.38c-2,0-3.54-1-3.54-3.16s1.53-3.26,4.11-3.26h2.4c.09,0,.13,0,.13-.13V7.88c0-1.46-.57-2.07-2.53-2.07a4.07,4.07,0,0,0-2.55.75.2.2,0,0,1-.31,0l-.59-1a.23.23,0,0,1,0-.31,5.88,5.88,0,0,1,3.59-1c3,0,4.13,1,4.13,3.59v7a.21.21,0,0,1-.22.22Zm-.26-3.41V10.39c0-.09,0-.14-.13-.14H418c-1.83,0-2.62.53-2.62,1.72s.79,1.65,2.2,1.65C419.27,13.62,420.28,12.85,420.28,11.55Z"/><path d="M424.7,18.92a.21.21,0,0,1-.22-.22V17.43a.2.2,0,0,1,.22-.22h.4c.86,0,1.32-.38,1.78-1.59l.35-1-3.87-10c0-.13,0-.22.18-.22h1.54a.26.26,0,0,1,.26.22l2.77,7.62h.05l2.66-7.62a.26.26,0,0,1,.26-.22h1.5c.13,0,.22.09.17.22L428.6,15.78c-.93,2.48-1.74,3.14-3.33,3.14Z"/><path d="M440.85,15a.21.21,0,0,1-.22-.22v-1h0a3.21,3.21,0,0,1-2.88,1.45c-2.31,0-3.66-1.58-3.66-4V4.64a.21.21,0,0,1,.22-.22h1.41a.21.21,0,0,1,.22.22v6.14c0,1.72.77,2.71,2.33,2.71a2.34,2.34,0,0,0,2.38-2.6V4.64a.21.21,0,0,1,.22-.22h1.41a.21.21,0,0,1,.22.22v10.1a.21.21,0,0,1-.22.22Z"/><path d="M451.81,15a.21.21,0,0,1-.23-.22v-1h0a3.18,3.18,0,0,1-3,1.47,3.48,3.48,0,0,1-3.63-2.53,8.9,8.9,0,0,1-.37-3,8.89,8.89,0,0,1,.37-3,3.49,3.49,0,0,1,3.63-2.53,3.19,3.19,0,0,1,3,1.45h0V.22a.21.21,0,0,1,.23-.22h1.4a.2.2,0,0,1,.22.22V14.74a.2.2,0,0,1-.22.22Zm-.47-3.08a6.63,6.63,0,0,0,.24-2.2,6.79,6.79,0,0,0-.24-2.2,2.49,2.49,0,0,0-4.64,0,7.39,7.39,0,0,0-.24,2.2,7.18,7.18,0,0,0,.24,2.2,2.48,2.48,0,0,0,4.64,0Z"/><path d="M455.87,12.34a8.54,8.54,0,0,1-.35-2.66A8.17,8.17,0,0,1,455.85,7a4.44,4.44,0,0,1,8.28,0,9.18,9.18,0,0,1,.33,3c0,.14-.09.22-.25.22h-6.66c-.09,0-.13.05-.13.14a3.93,3.93,0,0,0,.17,1.27,2.61,2.61,0,0,0,2.66,1.83A3.44,3.44,0,0,0,463,12.32a.22.22,0,0,1,.33,0l.9.81a.2.2,0,0,1,0,.31,5.09,5.09,0,0,1-4.11,1.8A4.08,4.08,0,0,1,455.87,12.34Zm6.56-3.56c.09,0,.13,0,.13-.13a3.71,3.71,0,0,0-.15-1.19,2.6,2.6,0,0,0-4.84,0,3.71,3.71,0,0,0-.15,1.19c0,.09,0,.13.13.13Z"/><path d="M477.33,15a.2.2,0,0,1-.22-.22v-.92h0A3.44,3.44,0,0,1,474,15.2c-2,0-3.54-1-3.54-3.16s1.54-3.26,4.11-3.26h2.4c.09,0,.13,0,.13-.13V7.88c0-1.46-.57-2.07-2.53-2.07a4.07,4.07,0,0,0-2.55.75.2.2,0,0,1-.31,0l-.59-1a.23.23,0,0,1,0-.31,5.88,5.88,0,0,1,3.59-1c3,0,4.13,1,4.13,3.59v7a.21.21,0,0,1-.22.22Zm-.27-3.41V10.39c0-.09,0-.14-.13-.14h-2.11c-1.83,0-2.62.53-2.62,1.72s.79,1.65,2.2,1.65C476.05,13.62,477.06,12.85,477.06,11.55Z"/><path d="M492.48,15a.21.21,0,0,1-.22-.22v-1h0a3.19,3.19,0,0,1-3,1.47,3.47,3.47,0,0,1-3.63-2.53,8.62,8.62,0,0,1-.38-3,8.61,8.61,0,0,1,.38-3,3.48,3.48,0,0,1,3.63-2.53,3.2,3.2,0,0,1,3,1.45h0V.22a.21.21,0,0,1,.22-.22h1.41a.21.21,0,0,1,.22.22V14.74a.21.21,0,0,1-.22.22ZM492,11.88a6.63,6.63,0,0,0,.24-2.2,6.79,6.79,0,0,0-.24-2.2,2.49,2.49,0,0,0-4.64,0,7.39,7.39,0,0,0-.24,2.2,7.18,7.18,0,0,0,.24,2.2,2.48,2.48,0,0,0,4.64,0Z"/><path d="M496.55,12.34a8.25,8.25,0,0,1-.35-2.66A8.17,8.17,0,0,1,496.53,7a4.43,4.43,0,0,1,8.27,0,9.18,9.18,0,0,1,.33,3,.21.21,0,0,1-.24.22h-6.67a.12.12,0,0,0-.13.14,3.9,3.9,0,0,0,.18,1.27,2.6,2.6,0,0,0,2.66,1.83,3.46,3.46,0,0,0,2.71-1.17.22.22,0,0,1,.33,0l.9.81a.2.2,0,0,1,0,.31,5.09,5.09,0,0,1-4.11,1.8A4.07,4.07,0,0,1,496.55,12.34Zm6.56-3.56c.09,0,.13,0,.13-.13a3.71,3.71,0,0,0-.15-1.19,2.6,2.6,0,0,0-4.84,0,3.68,3.68,0,0,0-.16,1.19.12.12,0,0,0,.13.13Z"/><path d="M506.5,13.62a.21.21,0,0,1,0-.31l.9-1a.23.23,0,0,1,.31,0A5.07,5.07,0,0,0,511,13.55c1.54,0,2.31-.66,2.31-1.6s-.39-1.3-2-1.48l-1.13-.11c-2.06-.22-3.14-1.25-3.14-3,0-2,1.43-3.21,3.91-3.21a6.26,6.26,0,0,1,3.74,1.17c.11.06.11.19,0,.31l-.75.94a.22.22,0,0,1-.31.05,5.54,5.54,0,0,0-2.84-.86c-1.32,0-2,.59-2,1.45s.51,1.28,2.07,1.43l1.1.11c2.14.2,3.17,1.28,3.17,3,0,2.07-1.5,3.45-4.25,3.45A6.52,6.52,0,0,1,506.5,13.62Z"/><path d="M519.94,15c-.16,0-.22-.09-.27-.22l-3.78-10.1c0-.13,0-.22.18-.22h1.51c.16,0,.22.07.29.22l2.73,7.57h0l2.66-7.57a.27.27,0,0,1,.27-.22h1.5c.15,0,.21.09.17.22l-3.76,10.1a.29.29,0,0,1-.29.22Z"/><path d="M526.91,2.05a.21.21,0,0,1-.22-.22V.22a.21.21,0,0,1,.22-.22h1.5a.21.21,0,0,1,.22.22V1.83a.21.21,0,0,1-.22.22ZM527,15a.2.2,0,0,1-.22-.22V4.64a.2.2,0,0,1,.22-.22h1.4a.2.2,0,0,1,.22.22v10.1a.2.2,0,0,1-.22.22Z"/><path d="M537.69,15a.21.21,0,0,1-.22-.22v-.92h0a3.45,3.45,0,0,1-3.12,1.38c-2,0-3.55-1-3.55-3.16s1.54-3.26,4.12-3.26h2.4a.12.12,0,0,0,.13-.13V7.88c0-1.46-.57-2.07-2.53-2.07a4.13,4.13,0,0,0-2.56.75.19.19,0,0,1-.3,0l-.6-1a.24.24,0,0,1,0-.31,5.87,5.87,0,0,1,3.58-1c3,0,4.14,1,4.14,3.59v7A.21.21,0,0,1,539,15Zm-.26-3.41V10.39a.12.12,0,0,0-.13-.14h-2.12c-1.82,0-2.61.53-2.61,1.72s.79,1.65,2.19,1.65C536.42,13.62,537.43,12.85,537.43,11.55Z"/><path d="M542.07,15a.21.21,0,0,1-.22-.22V4.64a.21.21,0,0,1,.22-.22h1.41a.21.21,0,0,1,.22.22V5.72h0a2.93,2.93,0,0,1,2.79-1.54,3.26,3.26,0,0,1,2.16.79c.11.11.13.2,0,.31l-.81,1.08a.2.2,0,0,1-.31,0A2.93,2.93,0,0,0,546,5.9c-1.6,0-2.26,1.25-2.26,3.08v5.76a.21.21,0,0,1-.22.22Z"/><path d="M554.1,12.34a8.25,8.25,0,0,1-.35-2.66A8.17,8.17,0,0,1,554.08,7a4.43,4.43,0,0,1,8.27,0,9.18,9.18,0,0,1,.33,3,.21.21,0,0,1-.24.22h-6.67a.12.12,0,0,0-.13.14,3.9,3.9,0,0,0,.18,1.27,2.6,2.6,0,0,0,2.66,1.83,3.47,3.47,0,0,0,2.71-1.17.22.22,0,0,1,.33,0l.9.81a.2.2,0,0,1,0,.31,5.12,5.12,0,0,1-4.11,1.8A4.07,4.07,0,0,1,554.1,12.34Zm6.56-3.56c.09,0,.13,0,.13-.13a3.71,3.71,0,0,0-.15-1.19,2.6,2.6,0,0,0-4.84,0,3.68,3.68,0,0,0-.16,1.19.12.12,0,0,0,.13.13Z"/><path d="M567.3,15.07c-1.85,0-2.57-.88-2.57-2.77V.22A.21.21,0,0,1,565,0h1.41a.21.21,0,0,1,.22.22v12c0,.88.33,1.17,1,1.17h.42a.2.2,0,0,1,.22.22v1.27a.21.21,0,0,1-.22.22Z"/><path d="M577.44,15.07c-2,0-2.83-.92-2.83-3v-6c0-.09-.05-.13-.14-.13h-.88a.21.21,0,0,1-.22-.22V4.64a.21.21,0,0,1,.22-.22h.88c.09,0,.14,0,.14-.13v-3a.2.2,0,0,1,.22-.22h1.4a.2.2,0,0,1,.22.22v3a.12.12,0,0,0,.13.13h1.68a.21.21,0,0,1,.22.22V5.7a.21.21,0,0,1-.22.22h-1.68a.12.12,0,0,0-.13.13v6c0,1.06.4,1.35,1.35,1.35h.46a.2.2,0,0,1,.22.22v1.27a.21.21,0,0,1-.22.22Z"/><path d="M580.68,15a.2.2,0,0,1-.22-.22V4.64a.2.2,0,0,1,.22-.22h1.4a.2.2,0,0,1,.22.22V5.72h0a2.93,2.93,0,0,1,2.79-1.54,3.26,3.26,0,0,1,2.16.79c.11.11.13.2,0,.31l-.81,1.08a.2.2,0,0,1-.31,0,2.93,2.93,0,0,0-1.63-.5C583,5.9,582.3,7.15,582.3,9v5.76a.2.2,0,0,1-.22.22Z"/><path d="M594.45,15a.21.21,0,0,1-.22-.22v-.92h0a3.47,3.47,0,0,1-3.13,1.38c-2,0-3.54-1-3.54-3.16s1.54-3.26,4.12-3.26h2.39c.09,0,.13,0,.13-.13V7.88c0-1.46-.57-2.07-2.52-2.07a4.13,4.13,0,0,0-2.56.75.2.2,0,0,1-.31,0l-.59-1a.23.23,0,0,1,0-.31,5.87,5.87,0,0,1,3.58-1c3,0,4.14,1,4.14,3.59v7a.21.21,0,0,1-.22.22Zm-.27-3.41V10.39c0-.09,0-.14-.13-.14h-2.11c-1.83,0-2.62.53-2.62,1.72s.79,1.65,2.2,1.65C593.17,13.62,594.18,12.85,594.18,11.55Z"/><path d="M605.45,15a.21.21,0,0,1-.22-.22V8.58c0-1.69-.77-2.68-2.35-2.68a2.36,2.36,0,0,0-2.43,2.57v6.27a.2.2,0,0,1-.21.22h-1.41a.2.2,0,0,1-.22-.22V4.64a.2.2,0,0,1,.22-.22h1.41a.2.2,0,0,1,.21.22v1h0a3.33,3.33,0,0,1,2.94-1.43c2.29,0,3.66,1.56,3.66,4v6.6a.21.21,0,0,1-.22.22Z"/><path d="M609,13.62a.21.21,0,0,1,0-.31l.9-1a.23.23,0,0,1,.31,0,5.07,5.07,0,0,0,3.25,1.21c1.55,0,2.32-.66,2.32-1.6s-.4-1.3-2-1.48l-1.12-.11c-2.07-.22-3.15-1.25-3.15-3,0-2,1.43-3.21,3.92-3.21a6.3,6.3,0,0,1,3.74,1.17c.11.06.11.19,0,.31l-.75.94a.21.21,0,0,1-.3.05,5.57,5.57,0,0,0-2.84-.86c-1.32,0-2,.59-2,1.45s.5,1.28,2.06,1.43l1.1.11c2.14.2,3.17,1.28,3.17,3,0,2.07-1.49,3.45-4.24,3.45A6.55,6.55,0,0,1,609,13.62Z"/><path d="M619.77,2.05a.21.21,0,0,1-.22-.22V.22a.21.21,0,0,1,.22-.22h1.5a.21.21,0,0,1,.22.22V1.83a.21.21,0,0,1-.22.22Zm0,12.91a.21.21,0,0,1-.22-.22V4.64a.21.21,0,0,1,.22-.22h1.41a.21.21,0,0,1,.22.22v10.1a.21.21,0,0,1-.22.22Z"/><path d="M627.23,15.07c-2.05,0-2.84-.92-2.84-3v-6c0-.09,0-.13-.13-.13h-.88a.21.21,0,0,1-.22-.22V4.64a.21.21,0,0,1,.22-.22h.88c.09,0,.13,0,.13-.13v-3a.21.21,0,0,1,.22-.22H626a.21.21,0,0,1,.22.22v3c0,.09,0,.13.13.13H628a.21.21,0,0,1,.22.22V5.7a.21.21,0,0,1-.22.22h-1.67c-.09,0-.13,0-.13.13v6c0,1.06.39,1.35,1.34,1.35H628a.2.2,0,0,1,.22.22v1.27a.21.21,0,0,1-.22.22Z"/><path d="M630,12.37a7.75,7.75,0,0,1-.36-2.69A7.64,7.64,0,0,1,630,7a4.46,4.46,0,0,1,8.31,0,7.92,7.92,0,0,1,.35,2.66,8,8,0,0,1-.35,2.69,4.47,4.47,0,0,1-8.31,0Zm6.53-.53a6.82,6.82,0,0,0,.24-2.16,6.61,6.61,0,0,0-.24-2.13,2.53,2.53,0,0,0-4.75,0,6.61,6.61,0,0,0-.24,2.13,6.82,6.82,0,0,0,.24,2.16,2.53,2.53,0,0,0,4.75,0Z"/><path d="M7.24,43A.21.21,0,0,1,7,42.74v-1H7A3.21,3.21,0,0,1,4,43.2,3.48,3.48,0,0,1,.37,40.67a8.9,8.9,0,0,1-.37-3,8.89,8.89,0,0,1,.37-3A3.49,3.49,0,0,1,4,32.18a3.22,3.22,0,0,1,3,1.45H7V28.22A.21.21,0,0,1,7.24,28H8.65a.21.21,0,0,1,.22.22V42.74a.21.21,0,0,1-.22.22Zm-.46-3.08A6.92,6.92,0,0,0,7,37.68a7.08,7.08,0,0,0-.24-2.2A2.24,2.24,0,0,0,4.44,33.9a2.25,2.25,0,0,0-2.31,1.58,7.74,7.74,0,0,0-.24,2.2,7.51,7.51,0,0,0,.24,2.2,2.26,2.26,0,0,0,2.31,1.61A2.27,2.27,0,0,0,6.78,39.88Z"/><path d="M11.31,40.34A8.25,8.25,0,0,1,11,37.68,8.17,8.17,0,0,1,11.29,35a4.06,4.06,0,0,1,4.13-2.84A4.07,4.07,0,0,1,19.56,35a9.18,9.18,0,0,1,.33,3,.21.21,0,0,1-.24.22H13c-.09,0-.13,0-.13.14A4.23,4.23,0,0,0,13,39.66a2.62,2.62,0,0,0,2.67,1.83,3.43,3.43,0,0,0,2.7-1.17.22.22,0,0,1,.33,0l.91.81a.2.2,0,0,1,0,.31,5.13,5.13,0,0,1-4.12,1.8A4.07,4.07,0,0,1,11.31,40.34Zm6.56-3.56a.12.12,0,0,0,.13-.13,3.68,3.68,0,0,0-.16-1.19,2.37,2.37,0,0,0-2.42-1.65A2.38,2.38,0,0,0,13,35.46a3.71,3.71,0,0,0-.15,1.19c0,.09,0,.13.13.13Z"/><path d="M28.91,43.07c-1.85,0-2.58-.88-2.58-2.77V28.22a.21.21,0,0,1,.22-.22H28a.21.21,0,0,1,.22.22v12c0,.88.33,1.17,1.06,1.17h.42a.2.2,0,0,1,.22.22v1.27a.21.21,0,0,1-.22.22Z"/><path d="M38,43a.21.21,0,0,1-.22-.22v-.92h0a3.45,3.45,0,0,1-3.12,1.38c-2,0-3.55-1-3.55-3.16s1.54-3.26,4.12-3.26h2.4a.12.12,0,0,0,.13-.13v-.77c0-1.46-.57-2.07-2.53-2.07a4.07,4.07,0,0,0-2.55.75c-.11.09-.25.09-.31,0l-.6-1a.24.24,0,0,1,.05-.31,5.87,5.87,0,0,1,3.58-1c3,0,4.14,1,4.14,3.59v7a.21.21,0,0,1-.22.22Zm-.26-3.41V38.39a.12.12,0,0,0-.13-.14H35.46c-1.82,0-2.61.53-2.61,1.72s.79,1.65,2.2,1.65C36.7,41.62,37.71,40.85,37.71,39.55Z"/><path d="M46.16,43a.21.21,0,0,1-.23-.22V41.58a.38.38,0,0,1,.09-.25l5.79-7.19v0H46.44a.2.2,0,0,1-.22-.21V32.64a.21.21,0,0,1,.22-.22h7.35a.21.21,0,0,1,.22.22v1.24a.32.32,0,0,1-.09.24l-5.74,7.13v0h5.61a.21.21,0,0,1,.22.22v1.23a.21.21,0,0,1-.22.22Z"/><path d="M55.86,40.37a7.75,7.75,0,0,1-.36-2.69A7.64,7.64,0,0,1,55.86,35a4.46,4.46,0,0,1,8.31,0,7.64,7.64,0,0,1,.36,2.66,7.75,7.75,0,0,1-.36,2.69,4.47,4.47,0,0,1-8.31,0Zm6.53-.53a6.82,6.82,0,0,0,.24-2.16,6.61,6.61,0,0,0-.24-2.13,2.53,2.53,0,0,0-4.75,0,6.61,6.61,0,0,0-.24,2.13,6.82,6.82,0,0,0,.24,2.16,2.53,2.53,0,0,0,4.75,0Z"/><path d="M73.46,43a.21.21,0,0,1-.22-.22V36.58c0-1.69-.77-2.68-2.36-2.68a2.36,2.36,0,0,0-2.42,2.57v6.27a.21.21,0,0,1-.22.22H66.83a.21.21,0,0,1-.22-.22V32.64a.21.21,0,0,1,.22-.22h1.41a.21.21,0,0,1,.22.22v1h0a3.35,3.35,0,0,1,3-1.43c2.29,0,3.65,1.56,3.65,4v6.6a.2.2,0,0,1-.21.22Z"/><path d="M84.08,43a.21.21,0,0,1-.22-.22v-.92h0a3.45,3.45,0,0,1-3.12,1.38c-2,0-3.55-1-3.55-3.16s1.54-3.26,4.12-3.26h2.4a.12.12,0,0,0,.13-.13v-.77c0-1.46-.57-2.07-2.53-2.07a4.07,4.07,0,0,0-2.55.75c-.11.09-.25.09-.31,0l-.6-1a.24.24,0,0,1,0-.31,5.87,5.87,0,0,1,3.58-1c3,0,4.14,1,4.14,3.59v7a.21.21,0,0,1-.22.22Zm-.26-3.41V38.39a.12.12,0,0,0-.13-.14H81.58c-1.83,0-2.62.53-2.62,1.72s.79,1.65,2.2,1.65C82.81,41.62,83.82,40.85,83.82,39.55Z"/><path d="M88,40.85a.2.2,0,0,1,.22-.22h1.67a.21.21,0,0,1,.22.22v1.89a.21.21,0,0,1-.22.22H88.2a.2.2,0,0,1-.22-.22Z"/></g></g></svg>