<svg xmlns="http://www.w3.org/2000/svg" viewBox="0 0 394.29 76.64"><title>1a</title><g id="Capa_2" data-name="Capa 2"><g id="answer_copia" data-name="answer copia"><path d="M.74.24A.23.23,0,0,1,1,0H10.8A.23.23,0,0,1,11,.24V1.75A.22.22,0,0,1,10.8,2H3c-.09,0-.14.05-.14.15v4.8A.13.13,0,0,0,3,7.08H9.63a.23.23,0,0,1,.24.24V8.83a.23.23,0,0,1-.24.24H3c-.09,0-.14,0-.14.15v5a.13.13,0,0,0,.14.14H10.8a.23.23,0,0,1,.24.24v1.51a.22.22,0,0,1-.24.24H1a.23.23,0,0,1-.24-.24Z"/><path d="M12.46,14.86a.23.23,0,0,1,0-.34l1-1a.23.23,0,0,1,.34,0,5.6,5.6,0,0,0,3.55,1.32c1.68,0,2.52-.73,2.52-1.76s-.43-1.41-2.23-1.61l-1.23-.12C14.14,11.06,13,9.94,13,8.06c0-2.18,1.56-3.5,4.27-3.5a6.88,6.88,0,0,1,4.08,1.27.24.24,0,0,1,.05.34l-.82,1a.23.23,0,0,1-.33,0,6.07,6.07,0,0,0-3.1-.94c-1.44,0-2.18.65-2.18,1.59s.55,1.39,2.25,1.56l1.2.12c2.33.21,3.46,1.39,3.46,3.24,0,2.25-1.63,3.77-4.63,3.77A7.16,7.16,0,0,1,12.46,14.86Z"/><path d="M27.38,16.44c-2.23,0-3.09-1-3.09-3.26V6.6c0-.1-.05-.14-.15-.14h-1a.23.23,0,0,1-.24-.24V5.06a.23.23,0,0,1,.24-.24h1c.1,0,.15,0,.15-.14V1.44a.23.23,0,0,1,.24-.24h1.53a.23.23,0,0,1,.24.24V4.68c0,.1.05.14.15.14h1.82a.23.23,0,0,1,.24.24V6.22a.23.23,0,0,1-.24.24H26.45c-.1,0-.15,0-.15.14v6.5c0,1.16.44,1.47,1.47,1.47h.5a.23.23,0,0,1,.24.24V16.2a.22.22,0,0,1-.24.24Z"/><path d="M30.36,13.47A9.1,9.1,0,0,1,30,10.56a8.87,8.87,0,0,1,.36-2.9,4.42,4.42,0,0,1,4.51-3.1,4.45,4.45,0,0,1,4.51,3.1,10,10,0,0,1,.36,3.28.24.24,0,0,1-.26.25H32.18a.12.12,0,0,0-.14.14,4.3,4.3,0,0,0,.19,1.39,2.84,2.84,0,0,0,2.91,2,3.77,3.77,0,0,0,3-1.27.25.25,0,0,1,.36,0l1,.89a.22.22,0,0,1,0,.34,5.62,5.62,0,0,1-4.49,2A4.45,4.45,0,0,1,30.36,13.47Zm7.15-3.89a.13.13,0,0,0,.15-.15,4,4,0,0,0-.17-1.29,2.84,2.84,0,0,0-5.28,0A4,4,0,0,0,32,9.43c0,.1.05.15.14.15Z"/><path d="M53.76,16.32a.23.23,0,0,1-.24-.24v-1h0a3.77,3.77,0,0,1-3.41,1.52c-2.19,0-3.87-1.13-3.87-3.46s1.68-3.55,4.49-3.55h2.62c.09,0,.14-.05.14-.15V8.59c0-1.58-.62-2.25-2.76-2.25a4.47,4.47,0,0,0-2.78.81c-.12.1-.27.1-.34,0L46.94,6A.25.25,0,0,1,47,5.69,6.4,6.4,0,0,1,50.9,4.56c3.27,0,4.52,1.08,4.52,3.91v7.61a.23.23,0,0,1-.24.24Zm-.29-3.72V11.33a.12.12,0,0,0-.14-.14H51c-2,0-2.85.57-2.85,1.87s.86,1.8,2.4,1.8C52.37,14.86,53.47,14,53.47,12.6Z"/><path d="M61.63,16.44c-2.23,0-3.09-1-3.09-3.26V6.6c0-.1,0-.14-.15-.14h-1a.23.23,0,0,1-.24-.24V5.06a.23.23,0,0,1,.24-.24h1c.1,0,.15,0,.15-.14V1.44a.23.23,0,0,1,.24-.24h1.53a.23.23,0,0,1,.24.24V4.68c0,.1.05.14.15.14h1.82a.23.23,0,0,1,.24.24V6.22a.23.23,0,0,1-.24.24H60.7c-.1,0-.15,0-.15.14v6.5c0,1.16.43,1.47,1.47,1.47h.5a.23.23,0,0,1,.24.24V16.2a.23.23,0,0,1-.24.24Z"/><path d="M64.61,13.47a9.05,9.05,0,0,1-.39-2.91,8.87,8.87,0,0,1,.36-2.9,4.84,4.84,0,0,1,9,0A10,10,0,0,1,74,10.94a.24.24,0,0,1-.27.25H66.43c-.1,0-.14,0-.14.14a4.3,4.3,0,0,0,.19,1.39,2.84,2.84,0,0,0,2.9,2,3.78,3.78,0,0,0,3-1.27.25.25,0,0,1,.36,0l1,.89a.22.22,0,0,1,0,.34,5.59,5.59,0,0,1-4.48,2A4.45,4.45,0,0,1,64.61,13.47Zm7.15-3.89c.1,0,.14-.05.14-.15a4,4,0,0,0-.16-1.29,2.84,2.84,0,0,0-5.28,0,3.74,3.74,0,0,0-.17,1.29c0,.1,0,.15.14.15Z"/><path d="M83.71,16.32a.23.23,0,0,1-.24-.24V9.36c0-1.85-.84-2.93-2.57-2.93a2.58,2.58,0,0,0-2.64,2.81v6.84a.22.22,0,0,1-.24.24H76.49a.22.22,0,0,1-.24-.24v-11a.23.23,0,0,1,.24-.24H78a.23.23,0,0,1,.24.24V6.12h0A3.62,3.62,0,0,1,81.5,4.56c2.5,0,4,1.7,4,4.32v7.2a.23.23,0,0,1-.24.24Z"/><path d="M91.68,16.44c-2.23,0-3.1-1-3.1-3.26V6.6a.12.12,0,0,0-.14-.14h-1a.23.23,0,0,1-.24-.24V5.06a.23.23,0,0,1,.24-.24h1a.12.12,0,0,0,.14-.14V1.44a.23.23,0,0,1,.24-.24h1.54a.23.23,0,0,1,.24.24V4.68a.12.12,0,0,0,.14.14h1.83a.23.23,0,0,1,.24.24V6.22a.23.23,0,0,1-.24.24H90.74a.12.12,0,0,0-.14.14v6.5c0,1.16.43,1.47,1.46,1.47h.51a.23.23,0,0,1,.24.24V16.2a.23.23,0,0,1-.24.24Z"/><path d="M94.65,13.49a8.77,8.77,0,0,1-.38-2.93,8.65,8.65,0,0,1,.38-2.9,4.87,4.87,0,0,1,9.08,0,8.65,8.65,0,0,1,.38,2.9,8.77,8.77,0,0,1-.38,2.93,4.87,4.87,0,0,1-9.08,0Zm7.13-.58a7.22,7.22,0,0,0,.27-2.35,7.16,7.16,0,0,0-.27-2.33,2.76,2.76,0,0,0-5.18,0,7.45,7.45,0,0,0-.27,2.33,7.5,7.5,0,0,0,.27,2.35,2.76,2.76,0,0,0,5.18,0Z"/><path d="M118.15,16.32a.23.23,0,0,1-.24-.24v-1h0a3.77,3.77,0,0,1-3.41,1.52c-2.19,0-3.87-1.13-3.87-3.46s1.68-3.55,4.49-3.55h2.62c.09,0,.14-.05.14-.15V8.59c0-1.58-.62-2.25-2.76-2.25a4.47,4.47,0,0,0-2.78.81c-.12.1-.27.1-.34,0L111.33,6a.25.25,0,0,1,0-.33,6.4,6.4,0,0,1,3.91-1.13c3.27,0,4.52,1.08,4.52,3.91v7.61a.23.23,0,0,1-.24.24Zm-.29-3.72V11.33a.12.12,0,0,0-.14-.14h-2.31c-2,0-2.85.57-2.85,1.87s.86,1.8,2.4,1.8C116.76,14.86,117.86,14,117.86,12.6Z"/><path d="M130.15,16.32a.23.23,0,0,1-.24-.24V9.36c0-1.85-.84-2.93-2.57-2.93a2.58,2.58,0,0,0-2.64,2.81v6.84a.22.22,0,0,1-.24.24h-1.53a.22.22,0,0,1-.24-.24v-11a.23.23,0,0,1,.24-.24h1.53a.23.23,0,0,1,.24.24V6.12h0a3.62,3.62,0,0,1,3.21-1.56c2.5,0,4,1.7,4,4.32v7.2a.23.23,0,0,1-.24.24Z"/><path d="M138.12,16.44c-2.23,0-3.1-1-3.1-3.26V6.6a.12.12,0,0,0-.14-.14h-1a.23.23,0,0,1-.24-.24V5.06a.23.23,0,0,1,.24-.24h1a.12.12,0,0,0,.14-.14V1.44a.23.23,0,0,1,.24-.24h1.54a.23.23,0,0,1,.24.24V4.68a.12.12,0,0,0,.14.14H139a.23.23,0,0,1,.24.24V6.22a.23.23,0,0,1-.24.24h-1.83a.12.12,0,0,0-.14.14v6.5c0,1.16.43,1.47,1.46,1.47H139a.23.23,0,0,1,.24.24V16.2a.23.23,0,0,1-.24.24Z"/><path d="M141.09,13.47a9.1,9.1,0,0,1-.38-2.91,8.87,8.87,0,0,1,.36-2.9,4.83,4.83,0,0,1,9,0,9.89,9.89,0,0,1,.37,3.28.24.24,0,0,1-.27.25h-7.27c-.1,0-.15,0-.15.14a4.27,4.27,0,0,0,.2,1.39,2.83,2.83,0,0,0,2.9,2,3.74,3.74,0,0,0,2.95-1.27.25.25,0,0,1,.36,0l1,.89a.22.22,0,0,1,0,.34,5.59,5.59,0,0,1-4.49,2A4.45,4.45,0,0,1,141.09,13.47Zm7.16-3.89c.09,0,.14-.05.14-.15a4,4,0,0,0-.17-1.29,2.84,2.84,0,0,0-5.28,0,4,4,0,0,0-.17,1.29.13.13,0,0,0,.15.15Z"/><path d="M160.29,16.44c-2,0-2.8-1-2.8-3V.24a.23.23,0,0,1,.24-.24h1.53a.23.23,0,0,1,.24.24V13.3c0,1,.36,1.27,1.15,1.27h.46a.23.23,0,0,1,.24.24V16.2a.23.23,0,0,1-.24.24Z"/><path d="M170.18,16.32a.23.23,0,0,1-.24-.24v-1h0a3.77,3.77,0,0,1-3.41,1.52c-2.18,0-3.86-1.13-3.86-3.46s1.68-3.55,4.48-3.55h2.62c.1,0,.14-.05.14-.15V8.59c0-1.58-.62-2.25-2.76-2.25a4.47,4.47,0,0,0-2.78.81.22.22,0,0,1-.34,0L163.37,6a.24.24,0,0,1,0-.33,6.42,6.42,0,0,1,3.92-1.13c3.26,0,4.51,1.08,4.51,3.91v7.61a.23.23,0,0,1-.24.24Zm-.29-3.72V11.33c0-.1,0-.14-.14-.14h-2.3c-2,0-2.86.57-2.86,1.87s.86,1.8,2.4,1.8C168.79,14.86,169.89,14,169.89,12.6Z"/><path d="M179.76,20.64a.22.22,0,0,1-.24-.24V5.06a.23.23,0,0,1,.24-.24h1.53a.23.23,0,0,1,.24.24V6.14h0a3.48,3.48,0,0,1,3.26-1.58,3.8,3.8,0,0,1,4,2.76,9.53,9.53,0,0,1,.41,3.24,9.68,9.68,0,0,1-.41,3.27,3.8,3.8,0,0,1-4,2.76A3.49,3.49,0,0,1,181.56,15h0V20.4a.22.22,0,0,1-.24.24Zm7.1-7.68a8,8,0,0,0,.27-2.4,8.21,8.21,0,0,0-.27-2.4,2.71,2.71,0,0,0-5.06,0,7.53,7.53,0,0,0-.27,2.4,7.41,7.41,0,0,0,.27,2.4,2.7,2.7,0,0,0,5.06,0Z"/><path d="M191.71,16.32a.22.22,0,0,1-.24-.24v-11a.23.23,0,0,1,.24-.24h1.54a.23.23,0,0,1,.24.24V6.24h0a3.2,3.2,0,0,1,3.05-1.68,3.58,3.58,0,0,1,2.35.86c.12.12.14.22.05.34l-.89,1.18a.22.22,0,0,1-.34,0A3.25,3.25,0,0,0,196,6.43c-1.75,0-2.47,1.37-2.47,3.36v6.29a.23.23,0,0,1-.24.24Z"/><path d="M199.61,13.47a9.05,9.05,0,0,1-.39-2.91,8.87,8.87,0,0,1,.36-2.9,4.84,4.84,0,0,1,9,0,10,10,0,0,1,.36,3.28.24.24,0,0,1-.27.25h-7.27c-.1,0-.14,0-.14.14a4.3,4.3,0,0,0,.19,1.39,2.83,2.83,0,0,0,2.9,2,3.74,3.74,0,0,0,3-1.27.25.25,0,0,1,.36,0l1,.89a.22.22,0,0,1,0,.34,5.59,5.59,0,0,1-4.49,2A4.44,4.44,0,0,1,199.61,13.47Zm7.15-3.89c.09,0,.14-.05.14-.15a4,4,0,0,0-.17-1.29,2.84,2.84,0,0,0-5.28,0,4,4,0,0,0-.16,1.29c0,.1,0,.15.14.15Z"/><path d="M210.45,14.86a.25.25,0,0,1,0-.34l1-1a.22.22,0,0,1,.33,0,5.63,5.63,0,0,0,3.56,1.32c1.68,0,2.52-.73,2.52-1.76s-.44-1.41-2.24-1.61l-1.22-.12c-2.26-.24-3.43-1.36-3.43-3.24,0-2.18,1.56-3.5,4.27-3.5a6.88,6.88,0,0,1,4.08,1.27.24.24,0,0,1,.05.34l-.82,1a.23.23,0,0,1-.33,0,6.07,6.07,0,0,0-3.1-.94c-1.44,0-2.18.65-2.18,1.59s.55,1.39,2.25,1.56l1.2.12c2.33.21,3.46,1.39,3.46,3.24,0,2.25-1.63,3.77-4.63,3.77A7.19,7.19,0,0,1,210.45,14.86Z"/><path d="M221.73,13.47a9.1,9.1,0,0,1-.38-2.91,8.87,8.87,0,0,1,.36-2.9,4.83,4.83,0,0,1,9,0,10,10,0,0,1,.36,3.28.23.23,0,0,1-.26.25h-7.27c-.1,0-.15,0-.15.14a4.27,4.27,0,0,0,.2,1.39,2.83,2.83,0,0,0,2.9,2,3.74,3.74,0,0,0,3-1.27.25.25,0,0,1,.36,0l1,.89a.22.22,0,0,1,0,.34,5.59,5.59,0,0,1-4.49,2A4.45,4.45,0,0,1,221.73,13.47Zm7.16-3.89c.09,0,.14-.05.14-.15a4,4,0,0,0-.17-1.29,2.84,2.84,0,0,0-5.28,0,4,4,0,0,0-.17,1.29.13.13,0,0,0,.15.15Z"/><path d="M240.84,16.32a.22.22,0,0,1-.24-.24V9.36c0-1.85-.84-2.93-2.57-2.93a2.58,2.58,0,0,0-2.64,2.81v6.84a.23.23,0,0,1-.24.24h-1.54a.23.23,0,0,1-.24-.24v-11a.23.23,0,0,1,.24-.24h1.54a.23.23,0,0,1,.24.24V6.12h0a3.65,3.65,0,0,1,3.22-1.56c2.5,0,4,1.7,4,4.32v7.2a.22.22,0,0,1-.24.24Z"/><path d="M245.13,7.66a4.45,4.45,0,0,1,4.54-3.1,4.62,4.62,0,0,1,3.94,1.94c.07.12.07.22-.08.34l-1.05.86a.22.22,0,0,1-.34,0,2.82,2.82,0,0,0-2.47-1.25,2.5,2.5,0,0,0-2.57,1.8,7.75,7.75,0,0,0-.26,2.33,7.81,7.81,0,0,0,.26,2.35,2.5,2.5,0,0,0,2.57,1.8,2.82,2.82,0,0,0,2.47-1.24.22.22,0,0,1,.34,0l1.05.87c.15.12.15.21.08.33a4.62,4.62,0,0,1-3.94,1.95,4.46,4.46,0,0,1-4.54-3.1,10.15,10.15,0,0,1-.36-2.93A10,10,0,0,1,245.13,7.66Z"/><path d="M256,2.23a.22.22,0,0,1-.24-.24V.24A.23.23,0,0,1,256,0h1.63a.23.23,0,0,1,.24.24V2a.22.22,0,0,1-.24.24Zm.05,14.09a.22.22,0,0,1-.24-.24v-11a.23.23,0,0,1,.24-.24h1.53a.23.23,0,0,1,.24.24v11a.22.22,0,0,1-.24.24Z"/><path d="M267.79,16.32a.23.23,0,0,1-.24-.24v-1h0a3.74,3.74,0,0,1-3.4,1.52c-2.19,0-3.87-1.13-3.87-3.46s1.68-3.55,4.49-3.55h2.62c.09,0,.14-.05.14-.15V8.59c0-1.58-.62-2.25-2.76-2.25a4.44,4.44,0,0,0-2.78.81c-.12.1-.27.1-.34,0L261,6a.24.24,0,0,1,0-.33,6.38,6.38,0,0,1,3.91-1.13c3.27,0,4.52,1.08,4.52,3.91v7.61a.23.23,0,0,1-.24.24Zm-.29-3.72V11.33a.12.12,0,0,0-.14-.14h-2.31c-2,0-2.85.57-2.85,1.87s.86,1.8,2.4,1.8C266.4,14.86,267.5,14,267.5,12.6Z"/><path d="M284.33,16.32a.23.23,0,0,1-.25-.24V15h0a3.5,3.5,0,0,1-3.26,1.61,3.79,3.79,0,0,1-4-2.76,9.43,9.43,0,0,1-.41-3.27,9.29,9.29,0,0,1,.41-3.24,3.79,3.79,0,0,1,4-2.76,3.49,3.49,0,0,1,3.26,1.58h0V.24a.23.23,0,0,1,.25-.24h1.53a.23.23,0,0,1,.24.24V16.08a.22.22,0,0,1-.24.24ZM283.82,13a7.47,7.47,0,0,0,.26-2.4,7.59,7.59,0,0,0-.26-2.4,2.71,2.71,0,0,0-5.06,0,7.88,7.88,0,0,0-.27,2.4,7.68,7.68,0,0,0,.27,2.4,2.7,2.7,0,0,0,5.06,0Z"/><path d="M288.76,13.47a9.1,9.1,0,0,1-.38-2.91,8.87,8.87,0,0,1,.36-2.9,4.84,4.84,0,0,1,9,0,10,10,0,0,1,.36,3.28.24.24,0,0,1-.27.25h-7.27c-.1,0-.15,0-.15.14a4.27,4.27,0,0,0,.2,1.39,2.83,2.83,0,0,0,2.9,2,3.74,3.74,0,0,0,2.95-1.27.25.25,0,0,1,.36,0l1,.89a.22.22,0,0,1,0,.34,5.59,5.59,0,0,1-4.49,2A4.45,4.45,0,0,1,288.76,13.47Zm7.16-3.89c.09,0,.14-.05.14-.15a4,4,0,0,0-.17-1.29,2.84,2.84,0,0,0-5.28,0,4,4,0,0,0-.17,1.29.13.13,0,0,0,.15.15Z"/><path d="M312.16,16.32a.23.23,0,0,1-.24-.24v-1h0a3.77,3.77,0,0,1-3.41,1.52c-2.18,0-3.86-1.13-3.86-3.46s1.68-3.55,4.49-3.55h2.61a.13.13,0,0,0,.15-.15V8.59c0-1.58-.63-2.25-2.76-2.25a4.48,4.48,0,0,0-2.79.81c-.12.1-.26.1-.33,0L305.35,6a.24.24,0,0,1,0-.33,6.36,6.36,0,0,1,3.91-1.13c3.26,0,4.51,1.08,4.51,3.91v7.61a.23.23,0,0,1-.24.24Zm-.28-3.72V11.33c0-.1-.05-.14-.15-.14h-2.3c-2,0-2.86.57-2.86,1.87s.87,1.8,2.4,1.8C310.77,14.86,311.88,14,311.88,12.6Z"/><path d="M324.16,16.32a.23.23,0,0,1-.24-.24V9.36c0-1.85-.84-2.93-2.56-2.93a2.58,2.58,0,0,0-2.64,2.81v6.84a.23.23,0,0,1-.24.24h-1.54a.23.23,0,0,1-.24-.24v-11a.23.23,0,0,1,.24-.24h1.54a.23.23,0,0,1,.24.24V6.12h0A3.63,3.63,0,0,1,322,4.56c2.49,0,4,1.7,4,4.32v7.2a.23.23,0,0,1-.24.24Z"/><path d="M329,2.23a.22.22,0,0,1-.24-.24V.24A.23.23,0,0,1,329,0h1.63a.23.23,0,0,1,.24.24V2a.23.23,0,0,1-.24.24ZM329,16.32a.22.22,0,0,1-.24-.24v-11a.23.23,0,0,1,.24-.24h1.53a.23.23,0,0,1,.24.24v11a.22.22,0,0,1-.24.24Z"/><path d="M348.48,16.32a.22.22,0,0,1-.24-.24V9.36c0-1.85-.84-2.93-2.57-2.93A2.59,2.59,0,0,0,343,9.24v6.84a.23.23,0,0,1-.24.24h-1.54a.23.23,0,0,1-.24-.24V9.36c0-1.85-.84-2.93-2.57-2.93a2.58,2.58,0,0,0-2.64,2.81v6.84a.22.22,0,0,1-.24.24H334a.22.22,0,0,1-.24-.24v-11a.23.23,0,0,1,.24-.24h1.53a.23.23,0,0,1,.24.24V6.12h0a4.06,4.06,0,0,1,6.57.24h0a4.29,4.29,0,0,1,3.72-1.8c2.66,0,4.1,1.7,4.1,4.32v7.2a.22.22,0,0,1-.24.24Z"/><path d="M360.07,16.32a.22.22,0,0,1-.24-.24v-1h0a3.74,3.74,0,0,1-3.4,1.52c-2.19,0-3.87-1.13-3.87-3.46s1.68-3.55,4.49-3.55h2.62c.09,0,.14-.05.14-.15V8.59c0-1.58-.62-2.25-2.76-2.25a4.44,4.44,0,0,0-2.78.81c-.12.1-.27.1-.34,0L353.25,6a.24.24,0,0,1,.05-.33,6.38,6.38,0,0,1,3.91-1.13c3.27,0,4.51,1.08,4.51,3.91v7.61a.22.22,0,0,1-.24.24Zm-.29-3.72V11.33a.12.12,0,0,0-.14-.14h-2.31c-2,0-2.85.57-2.85,1.87s.86,1.8,2.4,1.8C358.68,14.86,359.78,14,359.78,12.6Z"/><path d="M367.36,16.44c-2,0-2.8-1-2.8-3V.24A.23.23,0,0,1,364.8,0h1.53a.23.23,0,0,1,.24.24V13.3c0,1,.36,1.27,1.15,1.27h.46a.23.23,0,0,1,.24.24V16.2a.23.23,0,0,1-.24.24Z"/><path d="M370,13.47a9.1,9.1,0,0,1-.38-2.91,8.87,8.87,0,0,1,.36-2.9,4.83,4.83,0,0,1,9,0,10,10,0,0,1,.36,3.28.24.24,0,0,1-.26.25H371.8a.12.12,0,0,0-.14.14,4.3,4.3,0,0,0,.19,1.39,2.84,2.84,0,0,0,2.91,2,3.77,3.77,0,0,0,2.95-1.27.25.25,0,0,1,.36,0l1,.89a.22.22,0,0,1,0,.34,5.62,5.62,0,0,1-4.49,2A4.45,4.45,0,0,1,370,13.47Zm7.15-3.89a.13.13,0,0,0,.15-.15,4,4,0,0,0-.17-1.29,2.84,2.84,0,0,0-5.28,0,4,4,0,0,0-.17,1.29c0,.1,0,.15.14.15Z"/><path d="M380.83,14.86a.23.23,0,0,1,0-.34l1-1a.23.23,0,0,1,.34,0,5.6,5.6,0,0,0,3.55,1.32c1.68,0,2.52-.73,2.52-1.76s-.43-1.41-2.23-1.61l-1.23-.12c-2.25-.24-3.43-1.36-3.43-3.24,0-2.18,1.56-3.5,4.27-3.5a6.88,6.88,0,0,1,4.08,1.27.24.24,0,0,1,.05.34l-.81,1a.24.24,0,0,1-.34,0,6,6,0,0,0-3.1-.94c-1.44,0-2.18.65-2.18,1.59s.55,1.39,2.26,1.56l1.2.12c2.32.21,3.45,1.39,3.45,3.24,0,2.25-1.63,3.77-4.63,3.77A7.16,7.16,0,0,1,380.83,14.86Z"/><path d="M392.37,13.78h1.68a.23.23,0,0,1,.24.24v2.23a.77.77,0,0,1-.14.53l-1.49,2a.37.37,0,0,1-.31.16.21.21,0,0,1-.22-.21V14A.23.23,0,0,1,392.37,13.78Z"/><path d="M.94,44.32a.22.22,0,0,1-.24-.24v-11a.23.23,0,0,1,.24-.24H2.47a.23.23,0,0,1,.24.24v1.18h0a3.2,3.2,0,0,1,3-1.68,3.58,3.58,0,0,1,2.36.86c.12.12.14.22,0,.34L7.3,34.94A.22.22,0,0,1,7,35a3.28,3.28,0,0,0-1.78-.55c-1.75,0-2.47,1.37-2.47,3.36v6.29a.22.22,0,0,1-.24.24Z"/><path d="M9.31,41.47a9.1,9.1,0,0,1-.38-2.91,8.87,8.87,0,0,1,.36-2.9,4.44,4.44,0,0,1,4.51-3.1,4.44,4.44,0,0,1,4.51,3.1,10,10,0,0,1,.36,3.28.23.23,0,0,1-.26.25H11.14c-.1,0-.15,0-.15.14a4.3,4.3,0,0,0,.19,1.39,2.84,2.84,0,0,0,2.91,2A3.74,3.74,0,0,0,17,41.44a.25.25,0,0,1,.36,0l1,.89a.22.22,0,0,1,0,.34,5.59,5.59,0,0,1-4.49,2A4.45,4.45,0,0,1,9.31,41.47Zm7.15-3.89a.13.13,0,0,0,.15-.15,4,4,0,0,0-.17-1.29,2.58,2.58,0,0,0-2.64-1.8,2.58,2.58,0,0,0-2.64,1.8A4,4,0,0,0,11,37.43a.13.13,0,0,0,.15.15Z"/><path d="M24.77,44.44c-2.23,0-3.1-1-3.1-3.26V34.6a.12.12,0,0,0-.14-.14h-1a.23.23,0,0,1-.24-.24V33.06a.23.23,0,0,1,.24-.24h1a.12.12,0,0,0,.14-.14V29.44a.23.23,0,0,1,.24-.24h1.54a.23.23,0,0,1,.24.24v3.24a.12.12,0,0,0,.14.14h1.83a.23.23,0,0,1,.24.24v1.16a.23.23,0,0,1-.24.24H23.83a.12.12,0,0,0-.14.14v6.5c0,1.16.43,1.47,1.46,1.47h.51a.23.23,0,0,1,.24.24V44.2a.23.23,0,0,1-.24.24Z"/><path d="M28.78,44.32a.22.22,0,0,1-.24-.24v-11a.23.23,0,0,1,.24-.24h1.53a.23.23,0,0,1,.24.24v11a.22.22,0,0,1-.24.24ZM29,31c-.15,0-.22-.09-.15-.24l1.83-2.95a.41.41,0,0,1,.41-.24h1.58c.14,0,.22.12.12.24l-2.21,2.95a.47.47,0,0,1-.45.24Z"/><path d="M34.25,44.32a.22.22,0,0,1-.24-.24v-11a.23.23,0,0,1,.24-.24h1.53a.23.23,0,0,1,.24.24v1.18h0a3.2,3.2,0,0,1,3.05-1.68,3.58,3.58,0,0,1,2.35.86c.12.12.14.22,0,.34l-.89,1.18a.22.22,0,0,1-.34,0,3.28,3.28,0,0,0-1.77-.55c-1.76,0-2.48,1.37-2.48,3.36v6.29a.22.22,0,0,1-.24.24Z"/><path d="M42.62,41.47a9.1,9.1,0,0,1-.38-2.91,8.87,8.87,0,0,1,.36-2.9,4.44,4.44,0,0,1,4.51-3.1,4.44,4.44,0,0,1,4.51,3.1A10,10,0,0,1,52,38.94a.23.23,0,0,1-.26.25H44.45c-.1,0-.15,0-.15.14a4.27,4.27,0,0,0,.2,1.39,2.83,2.83,0,0,0,2.9,2,3.74,3.74,0,0,0,3-1.27.25.25,0,0,1,.36,0l1,.89a.22.22,0,0,1,0,.34,5.59,5.59,0,0,1-4.49,2A4.45,4.45,0,0,1,42.62,41.47Zm7.16-3.89c.09,0,.14,0,.14-.15a4,4,0,0,0-.17-1.29,2.84,2.84,0,0,0-5.28,0,4,4,0,0,0-.17,1.29.13.13,0,0,0,.15.15Z"/><path d="M54,42.86a.25.25,0,0,1,0-.34l1-1.05a.22.22,0,0,1,.33,0,5.62,5.62,0,0,0,3.55,1.32c1.68,0,2.52-.73,2.52-1.76s-.43-1.41-2.23-1.61l-1.22-.12c-2.26-.24-3.43-1.36-3.43-3.24,0-2.18,1.56-3.5,4.27-3.5a6.88,6.88,0,0,1,4.08,1.27.24.24,0,0,1,0,.34l-.82,1a.24.24,0,0,1-.34,0,6,6,0,0,0-3.09-.94c-1.44,0-2.19.65-2.19,1.59s.56,1.39,2.26,1.56l1.2.12c2.33.21,3.46,1.39,3.46,3.24,0,2.25-1.64,3.77-4.64,3.77A7.18,7.18,0,0,1,54,42.86Z"/><path d="M65.71,41.47a9.1,9.1,0,0,1-.38-2.91,8.87,8.87,0,0,1,.36-2.9,4.83,4.83,0,0,1,9,0,10,10,0,0,1,.36,3.28.23.23,0,0,1-.26.25H67.54c-.1,0-.15,0-.15.14a4.3,4.3,0,0,0,.19,1.39,2.84,2.84,0,0,0,2.91,2,3.74,3.74,0,0,0,3-1.27.25.25,0,0,1,.36,0l1,.89a.22.22,0,0,1,0,.34,5.59,5.59,0,0,1-4.49,2A4.45,4.45,0,0,1,65.71,41.47Zm7.15-3.89a.13.13,0,0,0,.15-.15,4,4,0,0,0-.17-1.29,2.84,2.84,0,0,0-5.28,0,4,4,0,0,0-.17,1.29.13.13,0,0,0,.15.15Z"/><path d="M90.31,44.32a.23.23,0,0,1-.24-.24V43h0a3.51,3.51,0,0,1-3.27,1.61,3.81,3.81,0,0,1-4-2.76,9.71,9.71,0,0,1-.4-3.27,9.56,9.56,0,0,1,.4-3.24,3.81,3.81,0,0,1,4-2.76,3.5,3.5,0,0,1,3.27,1.58h0v-5.9a.23.23,0,0,1,.24-.24h1.54a.23.23,0,0,1,.24.24V44.08a.23.23,0,0,1-.24.24ZM89.81,41a7.47,7.47,0,0,0,.26-2.4,7.59,7.59,0,0,0-.26-2.4,2.72,2.72,0,0,0-5.07,0,8.26,8.26,0,0,0-.26,2.4,8,8,0,0,0,.26,2.4,2.71,2.71,0,0,0,5.07,0Z"/><path d="M95.23,41.47a9.1,9.1,0,0,1-.38-2.91,8.87,8.87,0,0,1,.36-2.9,4.83,4.83,0,0,1,9,0,10,10,0,0,1,.36,3.28.23.23,0,0,1-.26.25H97.06c-.1,0-.15,0-.15.14a4.3,4.3,0,0,0,.19,1.39,2.84,2.84,0,0,0,2.91,2A3.74,3.74,0,0,0,103,41.44a.25.25,0,0,1,.36,0l1,.89a.22.22,0,0,1,0,.34,5.59,5.59,0,0,1-4.49,2A4.45,4.45,0,0,1,95.23,41.47Zm7.15-3.89a.13.13,0,0,0,.15-.15,4,4,0,0,0-.17-1.29,2.84,2.84,0,0,0-5.28,0,4,4,0,0,0-.17,1.29.13.13,0,0,0,.15.15Z"/><path d="M110.11,44.44c-2,0-2.81-1-2.81-3V28.24a.23.23,0,0,1,.24-.24h1.54a.23.23,0,0,1,.24.24V41.3c0,1,.36,1.27,1.15,1.27h.46a.23.23,0,0,1,.24.24V44.2a.23.23,0,0,1-.24.24Z"/><path d="M121.56,44.44c-2,0-2.81-1-2.81-3V28.24A.23.23,0,0,1,119,28h1.54a.23.23,0,0,1,.24.24V41.3c0,1,.36,1.27,1.15,1.27h.45a.23.23,0,0,1,.24.24V44.2a.22.22,0,0,1-.24.24Z"/><path d="M132.19,44.32a.23.23,0,0,1-.24-.24V43h0a3.52,3.52,0,0,1-3.15,1.59c-2.52,0-4-1.73-4-4.35V33.06a.23.23,0,0,1,.24-.24h1.53a.23.23,0,0,1,.24.24v6.7c0,1.87.84,3,2.55,3A2.55,2.55,0,0,0,132,39.88V33.06a.23.23,0,0,1,.24-.24h1.54a.23.23,0,0,1,.24.24v11a.23.23,0,0,1-.24.24Z"/><path d="M137.18,47.2a.21.21,0,0,1,0-.33l1-1a.23.23,0,0,1,.36,0A3.83,3.83,0,0,0,141.26,47c1.9,0,2.91-1,2.91-3.09V42.59h0A3.3,3.3,0,0,1,141,44.18a3.77,3.77,0,0,1-3.86-2.79,8.89,8.89,0,0,1-.39-3,9,9,0,0,1,.39-3A3.76,3.76,0,0,1,141,32.56a3.3,3.3,0,0,1,3.19,1.58h0V33.06a.23.23,0,0,1,.24-.24h1.53a.23.23,0,0,1,.24.24V43.82c0,3.26-1.77,5.09-5,5.09A5.21,5.21,0,0,1,137.18,47.2Zm6.72-6.6a7,7,0,0,0,.27-2.23,7.08,7.08,0,0,0-.27-2.23,2.59,2.59,0,0,0-4.87,0,7.22,7.22,0,0,0-.29,2.23A7.18,7.18,0,0,0,139,40.6a2.34,2.34,0,0,0,2.42,1.73A2.38,2.38,0,0,0,143.9,40.6Z"/><path d="M156.6,44.32a.22.22,0,0,1-.24-.24v-1h0a3.74,3.74,0,0,1-3.4,1.52c-2.19,0-3.87-1.13-3.87-3.46s1.68-3.55,4.49-3.55h2.62c.09,0,.14,0,.14-.15v-.84c0-1.58-.62-2.25-2.76-2.25a4.44,4.44,0,0,0-2.78.81c-.12.1-.27.1-.34,0L149.78,34a.24.24,0,0,1,.05-.33,6.38,6.38,0,0,1,3.91-1.13c3.27,0,4.51,1.08,4.51,3.91v7.61a.22.22,0,0,1-.24.24Zm-.29-3.72V39.33a.12.12,0,0,0-.14-.14h-2.31c-2,0-2.85.57-2.85,1.87s.86,1.8,2.4,1.8C155.21,42.86,156.31,42,156.31,40.6Z"/><path d="M161.85,44.32a.23.23,0,0,1-.24-.24v-11a.23.23,0,0,1,.24-.24h1.54a.23.23,0,0,1,.24.24v1.18h0a3.23,3.23,0,0,1,3-1.68,3.56,3.56,0,0,1,2.35.86c.12.12.15.22,0,.34l-.89,1.18a.21.21,0,0,1-.33,0,3.31,3.31,0,0,0-1.78-.55c-1.75,0-2.47,1.37-2.47,3.36v6.29a.23.23,0,0,1-.24.24Z"/><path d="M179,44.44c-2,0-2.8-1-2.8-3V28.24a.23.23,0,0,1,.24-.24H178a.23.23,0,0,1,.24.24V41.3c0,1,.36,1.27,1.15,1.27h.46a.23.23,0,0,1,.24.24V44.2a.23.23,0,0,1-.24.24Z"/><path d="M182.11,41.47a9.1,9.1,0,0,1-.38-2.91,8.87,8.87,0,0,1,.36-2.9,4.83,4.83,0,0,1,9,0,10,10,0,0,1,.36,3.28.24.24,0,0,1-.26.25h-7.28a.12.12,0,0,0-.14.14,4.3,4.3,0,0,0,.19,1.39,2.84,2.84,0,0,0,2.91,2,3.77,3.77,0,0,0,3-1.27.25.25,0,0,1,.36,0l1,.89a.22.22,0,0,1,0,.34,5.62,5.62,0,0,1-4.49,2A4.45,4.45,0,0,1,182.11,41.47Zm7.15-3.89a.13.13,0,0,0,.15-.15,4,4,0,0,0-.17-1.29,2.84,2.84,0,0,0-5.28,0,4,4,0,0,0-.17,1.29c0,.1.05.15.14.15Z"/><path d="M201.69,44.32a.23.23,0,0,1-.24-.24V37.36c0-1.85-.84-2.93-2.56-2.93a2.58,2.58,0,0,0-2.64,2.81v6.84a.23.23,0,0,1-.24.24h-1.54a.23.23,0,0,1-.24-.24v-11a.23.23,0,0,1,.24-.24H196a.23.23,0,0,1,.24.24v1.06h0a3.63,3.63,0,0,1,3.22-1.56c2.49,0,4,1.7,4,4.32v7.2a.23.23,0,0,1-.24.24Z"/><path d="M210.14,44.44c-2.23,0-3.09-1-3.09-3.26V34.6c0-.1-.05-.14-.15-.14h-1a.23.23,0,0,1-.24-.24V33.06a.23.23,0,0,1,.24-.24h1c.1,0,.15,0,.15-.14V29.44a.23.23,0,0,1,.24-.24h1.53a.23.23,0,0,1,.24.24v3.24c0,.1.05.14.15.14H211a.23.23,0,0,1,.24.24v1.16a.23.23,0,0,1-.24.24h-1.82c-.1,0-.15,0-.15.14v6.5c0,1.16.43,1.47,1.47,1.47h.5a.23.23,0,0,1,.24.24V44.2a.23.23,0,0,1-.24.24Z"/><path d="M220.87,44.32a.23.23,0,0,1-.24-.24v-1h0a3.77,3.77,0,0,1-3.41,1.52c-2.19,0-3.87-1.13-3.87-3.46s1.68-3.55,4.49-3.55h2.62c.09,0,.14,0,.14-.15v-.84c0-1.58-.62-2.25-2.76-2.25a4.47,4.47,0,0,0-2.78.81c-.12.1-.27.1-.34,0L214.05,34a.25.25,0,0,1,0-.33A6.4,6.4,0,0,1,218,32.56c3.27,0,4.52,1.08,4.52,3.91v7.61a.23.23,0,0,1-.24.24Zm-.29-3.72V39.33a.12.12,0,0,0-.14-.14h-2.31c-2,0-2.85.57-2.85,1.87s.86,1.8,2.4,1.8C219.48,42.86,220.58,42,220.58,40.6Z"/><path d="M240.57,44.32a.23.23,0,0,1-.24-.24V37.36c0-1.85-.84-2.93-2.56-2.93a2.59,2.59,0,0,0-2.64,2.81v6.84a.23.23,0,0,1-.24.24h-1.54a.23.23,0,0,1-.24-.24V37.36c0-1.85-.84-2.93-2.57-2.93a2.58,2.58,0,0,0-2.64,2.81v6.84a.22.22,0,0,1-.24.24h-1.53a.22.22,0,0,1-.24-.24v-11a.23.23,0,0,1,.24-.24h1.53a.23.23,0,0,1,.24.24v1.06h0a4.06,4.06,0,0,1,6.57.24h0a4.28,4.28,0,0,1,3.72-1.8c2.66,0,4.1,1.7,4.1,4.32v7.2a.23.23,0,0,1-.24.24Z"/><path d="M245.37,41.47a9.1,9.1,0,0,1-.38-2.91,8.87,8.87,0,0,1,.36-2.9,4.83,4.83,0,0,1,9,0,10,10,0,0,1,.36,3.28.23.23,0,0,1-.26.25H247.2c-.1,0-.15,0-.15.14a4.27,4.27,0,0,0,.2,1.39,2.83,2.83,0,0,0,2.9,2,3.74,3.74,0,0,0,2.95-1.27.25.25,0,0,1,.36,0l1,.89a.22.22,0,0,1,0,.34,5.59,5.59,0,0,1-4.49,2A4.45,4.45,0,0,1,245.37,41.47Zm7.16-3.89c.09,0,.14,0,.14-.15a4,4,0,0,0-.17-1.29,2.84,2.84,0,0,0-5.28,0,4,4,0,0,0-.17,1.29.13.13,0,0,0,.15.15Z"/><path d="M265,44.32a.22.22,0,0,1-.24-.24V37.36c0-1.85-.84-2.93-2.57-2.93a2.58,2.58,0,0,0-2.64,2.81v6.84a.23.23,0,0,1-.24.24h-1.54a.23.23,0,0,1-.24-.24v-11a.23.23,0,0,1,.24-.24h1.54a.23.23,0,0,1,.24.24v1.06h0a3.65,3.65,0,0,1,3.22-1.56c2.5,0,4,1.7,4,4.32v7.2a.22.22,0,0,1-.24.24Z"/><path d="M273.41,44.44c-2.24,0-3.1-1-3.1-3.26V34.6c0-.1-.05-.14-.15-.14h-1a.23.23,0,0,1-.24-.24V33.06a.23.23,0,0,1,.24-.24h1c.1,0,.15,0,.15-.14V29.44a.23.23,0,0,1,.24-.24h1.53a.23.23,0,0,1,.25.24v3.24c0,.1,0,.14.14.14h1.82a.23.23,0,0,1,.24.24v1.16a.23.23,0,0,1-.24.24h-1.82c-.1,0-.14,0-.14.14v6.5c0,1.16.43,1.47,1.46,1.47h.5a.23.23,0,0,1,.24.24V44.2a.22.22,0,0,1-.24.24Z"/><path d="M276.86,41.47a9.1,9.1,0,0,1-.38-2.91,8.87,8.87,0,0,1,.36-2.9,4.83,4.83,0,0,1,9,0,10,10,0,0,1,.36,3.28.23.23,0,0,1-.26.25h-7.27c-.1,0-.15,0-.15.14a4.3,4.3,0,0,0,.19,1.39,2.84,2.84,0,0,0,2.91,2,3.74,3.74,0,0,0,2.95-1.27.25.25,0,0,1,.36,0l1,.89a.22.22,0,0,1,0,.34,5.59,5.59,0,0,1-4.49,2A4.45,4.45,0,0,1,276.86,41.47ZM284,37.58a.13.13,0,0,0,.15-.15,4,4,0,0,0-.17-1.29,2.84,2.84,0,0,0-5.28,0,4,4,0,0,0-.17,1.29.13.13,0,0,0,.15.15Z"/><path d="M288.93,41.78h1.68a.22.22,0,0,1,.24.24v2.23a.77.77,0,0,1-.14.53l-1.49,2a.36.36,0,0,1-.31.16.21.21,0,0,1-.22-.21V42A.23.23,0,0,1,288.93,41.78Z"/><path d="M306.26,44.32a.23.23,0,0,1-.24-.24V37.36c0-1.85-.84-2.93-2.57-2.93a2.58,2.58,0,0,0-2.64,2.81v6.84a.22.22,0,0,1-.24.24H299a.22.22,0,0,1-.24-.24v-11a.23.23,0,0,1,.24-.24h1.53a.23.23,0,0,1,.24.24v1.06h0a3.62,3.62,0,0,1,3.21-1.56c2.5,0,4,1.7,4,4.32v7.2a.23.23,0,0,1-.24.24Z"/><path d="M311.06,41.49a8.77,8.77,0,0,1-.38-2.93,8.65,8.65,0,0,1,.38-2.9,4.87,4.87,0,0,1,9.07,0,8.37,8.37,0,0,1,.39,2.9,8.48,8.48,0,0,1-.39,2.93,4.87,4.87,0,0,1-9.07,0Zm7.13-.58a7.56,7.56,0,0,0,.26-2.35,7.5,7.5,0,0,0-.26-2.33,2.77,2.77,0,0,0-5.19,0,7.5,7.5,0,0,0-.26,2.33,7.56,7.56,0,0,0,.26,2.35,2.77,2.77,0,0,0,5.19,0Z"/><path d="M331.89,44.44c-2.23,0-3.09-1-3.09-3.26V34.6c0-.1-.05-.14-.15-.14h-1a.23.23,0,0,1-.24-.24V33.06a.23.23,0,0,1,.24-.24h1c.1,0,.15,0,.15-.14V29.44a.23.23,0,0,1,.24-.24h1.53a.23.23,0,0,1,.24.24v3.24c0,.1.05.14.15.14h1.82a.23.23,0,0,1,.24.24v1.16a.23.23,0,0,1-.24.24H331c-.1,0-.15,0-.15.14v6.5c0,1.16.43,1.47,1.47,1.47h.5a.23.23,0,0,1,.24.24V44.2a.23.23,0,0,1-.24.24Z"/><path d="M335.9,44.32a.23.23,0,0,1-.24-.24v-11a.23.23,0,0,1,.24-.24h1.54a.23.23,0,0,1,.24.24v1.18h0a3.2,3.2,0,0,1,3.05-1.68,3.58,3.58,0,0,1,2.35.86c.12.12.14.22,0,.34l-.89,1.18a.22.22,0,0,1-.34,0,3.25,3.25,0,0,0-1.77-.55c-1.75,0-2.47,1.37-2.47,3.36v6.29a.23.23,0,0,1-.24.24Z"/><path d="M351.4,44.32a.22.22,0,0,1-.23-.24v-1h0a3.77,3.77,0,0,1-3.41,1.52c-2.18,0-3.86-1.13-3.86-3.46s1.68-3.55,4.49-3.55H351a.13.13,0,0,0,.15-.15v-.84c0-1.58-.63-2.25-2.76-2.25a4.48,4.48,0,0,0-2.79.81c-.12.1-.26.1-.33,0L344.59,34a.24.24,0,0,1,.05-.33,6.36,6.36,0,0,1,3.91-1.13c3.26,0,4.51,1.08,4.51,3.91v7.61a.23.23,0,0,1-.24.24Zm-.28-3.72V39.33c0-.1-.05-.14-.15-.14h-2.3c-2,0-2.86.57-2.86,1.87s.87,1.8,2.4,1.8C350,42.86,351.12,42,351.12,40.6Z"/><path d="M359.76,44.44c-2.24,0-3.1-1-3.1-3.26V34.6a.12.12,0,0,0-.14-.14h-1a.23.23,0,0,1-.24-.24V33.06a.23.23,0,0,1,.24-.24h1a.12.12,0,0,0,.14-.14V29.44a.23.23,0,0,1,.24-.24h1.54a.23.23,0,0,1,.24.24v3.24c0,.1,0,.14.14.14h1.82a.23.23,0,0,1,.24.24v1.16a.23.23,0,0,1-.24.24h-1.82c-.1,0-.14,0-.14.14v6.5c0,1.16.43,1.47,1.46,1.47h.5a.23.23,0,0,1,.24.24V44.2a.22.22,0,0,1-.24.24Z"/><path d="M363.21,41.47a9.1,9.1,0,0,1-.38-2.91,8.87,8.87,0,0,1,.36-2.9,4.83,4.83,0,0,1,9,0,10,10,0,0,1,.36,3.28.23.23,0,0,1-.26.25H365c-.1,0-.15,0-.15.14a4.3,4.3,0,0,0,.19,1.39,2.84,2.84,0,0,0,2.91,2,3.74,3.74,0,0,0,2.95-1.27.25.25,0,0,1,.36,0l1,.89a.22.22,0,0,1,0,.34,5.59,5.59,0,0,1-4.49,2A4.45,4.45,0,0,1,363.21,41.47Zm7.15-3.89a.13.13,0,0,0,.15-.15,4,4,0,0,0-.17-1.29,2.84,2.84,0,0,0-5.28,0,4,4,0,0,0-.17,1.29.13.13,0,0,0,.15.15Z"/><path d="M7.9,72.32a.22.22,0,0,1-.24-.24V71h0a3.49,3.49,0,0,1-3.26,1.61,3.8,3.8,0,0,1-4-2.76A9.68,9.68,0,0,1,0,66.56a9.57,9.57,0,0,1,.41-3.24,3.8,3.8,0,0,1,4-2.76,3.48,3.48,0,0,1,3.26,1.58h0v-5.9A.23.23,0,0,1,7.9,56H9.43a.23.23,0,0,1,.24.24V72.08a.22.22,0,0,1-.24.24ZM7.39,69a7.41,7.41,0,0,0,.27-2.4,7.53,7.53,0,0,0-.27-2.4,2.44,2.44,0,0,0-2.54-1.73,2.44,2.44,0,0,0-2.52,1.73,8.21,8.21,0,0,0-.27,2.4A8,8,0,0,0,2.33,69a2.45,2.45,0,0,0,2.52,1.75A2.46,2.46,0,0,0,7.39,69Z"/><path d="M12.82,69.47a9.05,9.05,0,0,1-.39-2.91,8.87,8.87,0,0,1,.36-2.9,4.44,4.44,0,0,1,4.51-3.1,4.46,4.46,0,0,1,4.52,3.1,10,10,0,0,1,.36,3.28.24.24,0,0,1-.27.25H14.64c-.1,0-.14,0-.14.14a4.3,4.3,0,0,0,.19,1.39,2.83,2.83,0,0,0,2.9,2,3.74,3.74,0,0,0,2.95-1.27.25.25,0,0,1,.36,0l1,.89a.22.22,0,0,1,0,.34,5.59,5.59,0,0,1-4.49,2A4.44,4.44,0,0,1,12.82,69.47ZM20,65.58c.09,0,.14,0,.14-.15a4,4,0,0,0-.17-1.29,2.58,2.58,0,0,0-2.64-1.8,2.6,2.6,0,0,0-2.64,1.8,4,4,0,0,0-.16,1.29c0,.1,0,.15.14.15Z"/><path d="M37.18,72.32a.22.22,0,0,1-.24-.24v-1h0a3.75,3.75,0,0,1-3.41,1.52c-2.18,0-3.86-1.13-3.86-3.46s1.68-3.55,4.49-3.55h2.61a.13.13,0,0,0,.15-.15v-.84c0-1.58-.63-2.25-2.76-2.25a4.5,4.5,0,0,0-2.79.81c-.12.1-.26.1-.33,0L30.36,62a.24.24,0,0,1,.05-.33,6.38,6.38,0,0,1,3.91-1.13c3.26,0,4.51,1.08,4.51,3.91v7.61a.22.22,0,0,1-.24.24Zm-.29-3.72V67.33c0-.1,0-.14-.15-.14h-2.3c-2,0-2.86.57-2.86,1.87s.87,1.8,2.4,1.8C35.78,70.86,36.89,70,36.89,68.6Z"/><path d="M45.53,72.44c-2.23,0-3.1-1-3.1-3.26V62.6a.12.12,0,0,0-.14-.14h-1a.23.23,0,0,1-.24-.24V61.06a.23.23,0,0,1,.24-.24h1a.12.12,0,0,0,.14-.14V57.44a.23.23,0,0,1,.24-.24h1.54a.23.23,0,0,1,.24.24v3.24a.12.12,0,0,0,.14.14h1.83a.23.23,0,0,1,.24.24v1.16a.23.23,0,0,1-.24.24H44.59a.12.12,0,0,0-.14.14v6.5c0,1.16.43,1.47,1.46,1.47h.51a.23.23,0,0,1,.24.24V72.2a.23.23,0,0,1-.24.24Z"/><path d="M49.54,72.32a.22.22,0,0,1-.24-.24v-11a.23.23,0,0,1,.24-.24h1.53a.23.23,0,0,1,.24.24v1.18h0a3.2,3.2,0,0,1,3-1.68,3.58,3.58,0,0,1,2.36.86c.12.12.14.22,0,.34l-.88,1.18a.22.22,0,0,1-.34,0,3.28,3.28,0,0,0-1.78-.55c-1.75,0-2.47,1.37-2.47,3.36v6.29a.22.22,0,0,1-.24.24Z"/><path d="M65,72.32a.23.23,0,0,1-.24-.24v-1h0a3.77,3.77,0,0,1-3.41,1.52c-2.19,0-3.87-1.13-3.87-3.46s1.68-3.55,4.49-3.55h2.62c.09,0,.14,0,.14-.15v-.84c0-1.58-.62-2.25-2.76-2.25a4.47,4.47,0,0,0-2.78.81c-.12.1-.27.1-.34,0L58.22,62a.25.25,0,0,1,.05-.33,6.4,6.4,0,0,1,3.91-1.13c3.27,0,4.52,1.08,4.52,3.91v7.61a.23.23,0,0,1-.24.24Zm-.29-3.72V67.33a.12.12,0,0,0-.14-.14H62.3c-2,0-2.85.57-2.85,1.87s.86,1.8,2.4,1.8C63.65,70.86,64.75,70,64.75,68.6Z"/><path d="M70.3,76.64a.22.22,0,0,1-.24-.24V61.06a.23.23,0,0,1,.24-.24h1.53a.23.23,0,0,1,.24.24v1.08h0a3.48,3.48,0,0,1,3.26-1.58,3.81,3.81,0,0,1,4,2.76,9.57,9.57,0,0,1,.41,3.24,9.68,9.68,0,0,1-.41,3.27,3.81,3.81,0,0,1-4,2.76A3.49,3.49,0,0,1,72.1,71h0V76.4a.22.22,0,0,1-.24.24ZM77.4,69a8,8,0,0,0,.26-2.4,8.26,8.26,0,0,0-.26-2.4,2.71,2.71,0,0,0-5.06,0,7.25,7.25,0,0,0-.27,2.4,7.14,7.14,0,0,0,.27,2.4,2.7,2.7,0,0,0,5.06,0Z"/><path d="M89.45,72.32a.22.22,0,0,1-.24-.24v-1h0a3.74,3.74,0,0,1-3.4,1.52c-2.19,0-3.87-1.13-3.87-3.46s1.68-3.55,4.49-3.55H89c.09,0,.14,0,.14-.15v-.84c0-1.58-.62-2.25-2.76-2.25a4.44,4.44,0,0,0-2.78.81c-.12.1-.27.1-.34,0L82.63,62a.24.24,0,0,1,.05-.33,6.38,6.38,0,0,1,3.91-1.13c3.27,0,4.51,1.08,4.51,3.91v7.61a.22.22,0,0,1-.24.24Zm-.29-3.72V67.33a.12.12,0,0,0-.14-.14H86.71c-2,0-2.85.57-2.85,1.87s.86,1.8,2.4,1.8C88.06,70.86,89.16,70,89.16,68.6Z"/><path d="M94.7,72.32a.23.23,0,0,1-.24-.24v-11a.23.23,0,0,1,.24-.24h1.54a.23.23,0,0,1,.24.24v1.18h0a3.23,3.23,0,0,1,3-1.68,3.56,3.56,0,0,1,2.35.86c.12.12.15.22,0,.34l-.89,1.18a.21.21,0,0,1-.33,0A3.31,3.31,0,0,0,99,62.43c-1.75,0-2.47,1.37-2.47,3.36v6.29a.23.23,0,0,1-.24.24Z"/><path d="M106.58,72.44c-2,0-2.8-1-2.8-3V56.24A.23.23,0,0,1,104,56h1.53a.23.23,0,0,1,.24.24V69.3c0,1,.36,1.27,1.15,1.27h.46a.23.23,0,0,1,.24.24V72.2a.23.23,0,0,1-.24.24Z"/><path d="M109.68,69.49a8.77,8.77,0,0,1-.38-2.93,8.65,8.65,0,0,1,.38-2.9,4.87,4.87,0,0,1,9.07,0,8.37,8.37,0,0,1,.39,2.9,8.48,8.48,0,0,1-.39,2.93,4.87,4.87,0,0,1-9.07,0Zm7.13-.58a7.6,7.6,0,0,0,.26-2.35,7.5,7.5,0,0,0-.26-2.33,2.77,2.77,0,0,0-5.19,0,7.5,7.5,0,0,0-.26,2.33,7.6,7.6,0,0,0,.26,2.35,2.77,2.77,0,0,0,5.19,0Z"/><path d="M121.85,69.78h1.68a.23.23,0,0,1,.24.24v2.23a.78.78,0,0,1-.15.53l-1.48,2a.39.39,0,0,1-.32.16.21.21,0,0,1-.21-.21V70A.22.22,0,0,1,121.85,69.78Z"/><path d="M138.94,72.32a.22.22,0,0,1-.24-.24V71h0a3.5,3.5,0,0,1-3.14,1.59c-2.52,0-4-1.73-4-4.35V61.06a.23.23,0,0,1,.24-.24h1.54a.23.23,0,0,1,.24.24v6.7c0,1.87.84,2.95,2.54,2.95a2.55,2.55,0,0,0,2.6-2.83V61.06a.23.23,0,0,1,.24-.24h1.53a.23.23,0,0,1,.24.24v11a.22.22,0,0,1-.24.24Z"/><path d="M143.38,70.86a.23.23,0,0,1,0-.34l1-1a.22.22,0,0,1,.33,0,5.63,5.63,0,0,0,3.56,1.32c1.68,0,2.52-.73,2.52-1.76s-.43-1.41-2.23-1.61l-1.23-.11c-2.25-.25-3.43-1.37-3.43-3.25,0-2.18,1.56-3.5,4.27-3.5a6.88,6.88,0,0,1,4.08,1.27.24.24,0,0,1,.05.34l-.82,1a.23.23,0,0,1-.33,0,6.07,6.07,0,0,0-3.1-.94c-1.44,0-2.18.65-2.18,1.59s.55,1.39,2.25,1.56l1.2.12c2.33.21,3.46,1.39,3.46,3.24,0,2.25-1.63,3.77-4.63,3.77A7.16,7.16,0,0,1,143.38,70.86Z"/><path d="M155.13,69.47a9.1,9.1,0,0,1-.38-2.91,8.87,8.87,0,0,1,.36-2.9,4.84,4.84,0,0,1,9,0,10,10,0,0,1,.36,3.28.24.24,0,0,1-.27.25H157c-.1,0-.15,0-.15.14a4.27,4.27,0,0,0,.2,1.39,2.83,2.83,0,0,0,2.9,2,3.74,3.74,0,0,0,3-1.27.25.25,0,0,1,.36,0l1,.89a.22.22,0,0,1,0,.34,5.59,5.59,0,0,1-4.49,2A4.46,4.46,0,0,1,155.13,69.47Zm7.16-3.89c.09,0,.14,0,.14-.15a4,4,0,0,0-.17-1.29,2.84,2.84,0,0,0-5.28,0,4,4,0,0,0-.17,1.29.13.13,0,0,0,.15.15Z"/><path d="M171.74,70.86a.25.25,0,0,1,0-.34l1-1a.22.22,0,0,1,.33,0,5.62,5.62,0,0,0,3.55,1.32c1.68,0,2.53-.73,2.53-1.76s-.44-1.41-2.24-1.61l-1.22-.11c-2.26-.25-3.43-1.37-3.43-3.25,0-2.18,1.56-3.5,4.27-3.5a6.88,6.88,0,0,1,4.08,1.27.24.24,0,0,1,.05.34l-.82,1a.23.23,0,0,1-.33,0,6.07,6.07,0,0,0-3.1-.94c-1.44,0-2.19.65-2.19,1.59s.56,1.39,2.26,1.56l1.2.12c2.33.21,3.46,1.39,3.46,3.24,0,2.25-1.63,3.77-4.63,3.77A7.19,7.19,0,0,1,171.74,70.86Z"/><path d="M184,58.23a.22.22,0,0,1-.24-.24V56.24A.23.23,0,0,1,184,56h1.63a.23.23,0,0,1,.24.24V58a.23.23,0,0,1-.24.24Zm0,14.09a.23.23,0,0,1-.24-.24v-11a.23.23,0,0,1,.24-.24h1.54a.23.23,0,0,1,.24.24v11a.23.23,0,0,1-.24.24Z"/><path d="M189,69.47a9.1,9.1,0,0,1-.38-2.91,8.87,8.87,0,0,1,.36-2.9,4.83,4.83,0,0,1,9,0,10,10,0,0,1,.36,3.28.23.23,0,0,1-.26.25H190.8c-.1,0-.15,0-.15.14a4.27,4.27,0,0,0,.2,1.39,2.83,2.83,0,0,0,2.9,2,3.74,3.74,0,0,0,2.95-1.27.25.25,0,0,1,.36,0l1,.89a.22.22,0,0,1,0,.34,5.59,5.59,0,0,1-4.49,2A4.45,4.45,0,0,1,189,69.47Zm7.16-3.89c.09,0,.14,0,.14-.15a4,4,0,0,0-.17-1.29,2.84,2.84,0,0,0-5.28,0,4,4,0,0,0-.17,1.29.13.13,0,0,0,.15.15Z"/><path d="M215.78,72.32a.23.23,0,0,1-.24-.24V65.36c0-1.85-.84-2.93-2.57-2.93a2.6,2.6,0,0,0-2.64,2.81v6.84a.22.22,0,0,1-.24.24h-1.53a.22.22,0,0,1-.24-.24V65.36c0-1.85-.84-2.93-2.57-2.93a2.58,2.58,0,0,0-2.64,2.81v6.84a.23.23,0,0,1-.24.24h-1.54a.23.23,0,0,1-.24-.24v-11a.23.23,0,0,1,.24-.24h1.54a.23.23,0,0,1,.24.24v1.06h0a4.07,4.07,0,0,1,6.58.24h0a4.3,4.3,0,0,1,3.72-1.8c2.67,0,4.11,1.7,4.11,4.32v7.2a.23.23,0,0,1-.24.24Z"/><path d="M221.13,76.64a.23.23,0,0,1-.24-.24V61.06a.23.23,0,0,1,.24-.24h1.54a.23.23,0,0,1,.24.24v1.08h0a3.51,3.51,0,0,1,3.27-1.58,3.81,3.81,0,0,1,4,2.76,9.57,9.57,0,0,1,.41,3.24,9.68,9.68,0,0,1-.41,3.27,3.81,3.81,0,0,1-4,2.76A3.52,3.52,0,0,1,222.93,71h0V76.4a.23.23,0,0,1-.24.24ZM228.24,69a8,8,0,0,0,.26-2.4,8.26,8.26,0,0,0-.26-2.4,2.72,2.72,0,0,0-5.07,0,7.59,7.59,0,0,0-.26,2.4,7.47,7.47,0,0,0,.26,2.4,2.71,2.71,0,0,0,5.07,0Z"/><path d="M233.56,72.32a.22.22,0,0,1-.23-.24v-11a.22.22,0,0,1,.23-.24h1.54a.23.23,0,0,1,.24.24v1.18h0a3.2,3.2,0,0,1,3-1.68,3.58,3.58,0,0,1,2.36.86c.12.12.14.22,0,.34l-.88,1.18a.22.22,0,0,1-.34,0,3.28,3.28,0,0,0-1.78-.55c-1.75,0-2.47,1.37-2.47,3.36v6.29a.22.22,0,0,1-.24.24Z"/><path d="M241.94,69.47a9.1,9.1,0,0,1-.38-2.91,8.87,8.87,0,0,1,.36-2.9,4.83,4.83,0,0,1,9,0,10,10,0,0,1,.36,3.28.23.23,0,0,1-.26.25h-7.27c-.1,0-.15,0-.15.14a4.3,4.3,0,0,0,.19,1.39,2.84,2.84,0,0,0,2.91,2,3.74,3.74,0,0,0,2.95-1.27.25.25,0,0,1,.36,0l1,.89a.22.22,0,0,1,0,.34,5.59,5.59,0,0,1-4.49,2A4.45,4.45,0,0,1,241.94,69.47Zm7.15-3.89a.13.13,0,0,0,.15-.15,4,4,0,0,0-.17-1.29,2.84,2.84,0,0,0-5.28,0,4,4,0,0,0-.17,1.29.13.13,0,0,0,.15.15Z"/><path d="M259.39,56.24a.23.23,0,0,1,.24-.24h9.82a.23.23,0,0,1,.24.24v1.51a.23.23,0,0,1-.24.24h-7.78c-.1,0-.14,0-.14.15v4.8a.12.12,0,0,0,.14.14h6.6a.23.23,0,0,1,.24.24v1.51a.23.23,0,0,1-.24.24h-6.6c-.1,0-.14.05-.14.15v5a.12.12,0,0,0,.14.14h7.78a.23.23,0,0,1,.24.24v1.51a.23.23,0,0,1-.24.24h-9.82a.23.23,0,0,1-.24-.24Z"/><path d="M272.66,72.32a.23.23,0,0,1-.24-.24V56.24a.23.23,0,0,1,.24-.24h5.81c3.14,0,5.18,1.92,5.18,4.87s-2,4.87-5.18,4.87H274.7c-.1,0-.14.05-.14.15v6.19a.23.23,0,0,1-.24.24Zm8.88-11.45c0-1.77-1.17-2.88-3.19-2.88H274.7c-.1,0-.14,0-.14.15v5.47a.12.12,0,0,0,.14.14h3.65C280.37,63.75,281.54,62.65,281.54,60.87Z"/><path d="M286.39,72.32a.23.23,0,0,1-.24-.24V56.24a.23.23,0,0,1,.24-.24h5.81c3.14,0,5.18,1.92,5.18,4.87s-2,4.87-5.18,4.87h-3.77c-.1,0-.14.05-.14.15v6.19a.23.23,0,0,1-.25.24Zm8.88-11.45c0-1.77-1.18-2.88-3.19-2.88h-3.65c-.1,0-.14,0-.14.15v5.47a.12.12,0,0,0,.14.14h3.65C294.09,63.75,295.27,62.65,295.27,60.87Z"/><path d="M296.18,70a.23.23,0,0,1,.24-.24h1.83a.23.23,0,0,1,.24.24v2.06a.23.23,0,0,1-.24.24h-1.83a.23.23,0,0,1-.24-.24Z"/></g></g></svg>