<svg xmlns="http://www.w3.org/2000/svg" viewBox="0 0 631.28 75.16"><title>1a</title><g id="Capa_2" data-name="Capa 2"><g id="respuestas_contorno" data-name="respuestas contorno"><path d="M.84.22A.2.2,0,0,1,1.06,0h9a.21.21,0,0,1,.22.22V1.61a.21.21,0,0,1-.22.22H2.93c-.09,0-.14,0-.14.13v4.4c0,.09,0,.13.14.13H9a.21.21,0,0,1,.22.22V8.1A.21.21,0,0,1,9,8.32H2.93c-.09,0-.14,0-.14.13V13a.13.13,0,0,0,.14.14h7.13a.2.2,0,0,1,.22.22v1.38a.21.21,0,0,1-.22.22h-9a.2.2,0,0,1-.22-.22Z"/><path d="M11.57,13.62a.21.21,0,0,1,0-.31l.9-1a.23.23,0,0,1,.31,0A5.07,5.07,0,0,0,16,13.55c1.54,0,2.31-.66,2.31-1.6s-.4-1.3-2.05-1.48l-1.12-.11c-2.07-.22-3.15-1.25-3.15-3,0-2,1.43-3.21,3.92-3.21a6.3,6.3,0,0,1,3.74,1.17c.11.06.11.19,0,.3L19,6.6a.22.22,0,0,1-.31.05,5.45,5.45,0,0,0-2.84-.86c-1.32,0-2,.59-2,1.45s.5,1.28,2.07,1.43l1.1.11c2.13.2,3.16,1.28,3.16,3,0,2.07-1.49,3.45-4.24,3.45A6.55,6.55,0,0,1,11.57,13.62Z"/><path d="M25.26,15.07c-2.05,0-2.84-.92-2.84-3v-6a.12.12,0,0,0-.13-.13h-.88a.2.2,0,0,1-.22-.22V4.64a.2.2,0,0,1,.22-.22h.88a.12.12,0,0,0,.13-.13v-3a.21.21,0,0,1,.22-.22h1.41a.21.21,0,0,1,.22.22v3c0,.09,0,.13.13.13h1.67a.21.21,0,0,1,.22.22V5.7a.21.21,0,0,1-.22.22H24.4c-.09,0-.13,0-.13.13v6c0,1.06.39,1.35,1.34,1.35h.46a.2.2,0,0,1,.22.22v1.27a.21.21,0,0,1-.22.22Z"/><path d="M28,12.34a8.25,8.25,0,0,1-.35-2.66A8.17,8.17,0,0,1,28,7,4.08,4.08,0,0,1,32.1,4.18,4.07,4.07,0,0,1,36.23,7a9.18,9.18,0,0,1,.33,3c0,.14-.08.22-.24.22H29.66a.13.13,0,0,0-.14.14,3.9,3.9,0,0,0,.18,1.27,2.6,2.6,0,0,0,2.66,1.83,3.44,3.44,0,0,0,2.71-1.17.22.22,0,0,1,.33,0l.9.81a.2.2,0,0,1,0,.31,5.09,5.09,0,0,1-4.11,1.8A4.08,4.08,0,0,1,28,12.34Zm6.56-3.56a.12.12,0,0,0,.13-.13,3.71,3.71,0,0,0-.15-1.19,2.6,2.6,0,0,0-4.84,0,3.68,3.68,0,0,0-.16,1.19.12.12,0,0,0,.14.13Z"/><path d="M49.43,15a.21.21,0,0,1-.22-.22v-.92h0a3.45,3.45,0,0,1-3.12,1.38c-2,0-3.55-1-3.55-3.16s1.54-3.26,4.12-3.26H49a.12.12,0,0,0,.13-.13V7.88c0-1.46-.57-2.07-2.53-2.07a4.07,4.07,0,0,0-2.55.75c-.11.09-.25.09-.31,0l-.6-1a.24.24,0,0,1,0-.31,5.88,5.88,0,0,1,3.59-1c3,0,4.13,1,4.13,3.59v7a.21.21,0,0,1-.22.22Zm-.26-3.41V10.39c0-.09,0-.14-.13-.14H46.93c-1.83,0-2.62.53-2.62,1.72s.79,1.65,2.2,1.65C48.16,13.62,49.17,12.85,49.17,11.55Z"/><path d="M56.65,15.07c-2,0-2.84-.92-2.84-3v-6c0-.09,0-.13-.13-.13H52.8a.21.21,0,0,1-.22-.22V4.64a.21.21,0,0,1,.22-.22h.88c.09,0,.13,0,.13-.13v-3A.21.21,0,0,1,54,1.1h1.41a.21.21,0,0,1,.22.22v3c0,.09,0,.13.13.13h1.67a.2.2,0,0,1,.22.22V5.7a.2.2,0,0,1-.22.22H55.79c-.09,0-.13,0-.13.13v6c0,1.06.4,1.35,1.34,1.35h.46a.2.2,0,0,1,.22.22v1.27a.2.2,0,0,1-.22.22Z"/><path d="M59.38,12.34A8.2,8.2,0,0,1,59,9.68,8.17,8.17,0,0,1,59.35,7a4.44,4.44,0,0,1,8.28,0A9.18,9.18,0,0,1,68,10a.21.21,0,0,1-.24.22H61.05c-.09,0-.13.05-.13.14a3.93,3.93,0,0,0,.17,1.27,2.61,2.61,0,0,0,2.66,1.83,3.44,3.44,0,0,0,2.71-1.17.22.22,0,0,1,.33,0l.9.81a.21.21,0,0,1,0,.31,5.13,5.13,0,0,1-4.12,1.8A4.07,4.07,0,0,1,59.38,12.34Zm6.55-3.56a.12.12,0,0,0,.13-.13,3.71,3.71,0,0,0-.15-1.19,2.6,2.6,0,0,0-4.84,0,3.71,3.71,0,0,0-.15,1.19.12.12,0,0,0,.13.13Z"/><path d="M76.89,15a.21.21,0,0,1-.22-.22V8.58c0-1.69-.77-2.68-2.36-2.68a2.36,2.36,0,0,0-2.42,2.57v6.27a.2.2,0,0,1-.22.22h-1.4a.2.2,0,0,1-.22-.22V4.64a.2.2,0,0,1,.22-.22h1.4a.2.2,0,0,1,.22.22v1h0a3.32,3.32,0,0,1,2.94-1.43c2.29,0,3.66,1.56,3.66,4v6.6a.21.21,0,0,1-.22.22Z"/><path d="M84.19,15.07c-2,0-2.84-.92-2.84-3v-6c0-.09,0-.13-.13-.13h-.88a.21.21,0,0,1-.22-.22V4.64a.21.21,0,0,1,.22-.22h.88c.09,0,.13,0,.13-.13v-3a.21.21,0,0,1,.22-.22H83a.21.21,0,0,1,.22.22v3a.12.12,0,0,0,.13.13H85a.21.21,0,0,1,.22.22V5.7a.21.21,0,0,1-.22.22H83.33a.12.12,0,0,0-.13.13v6c0,1.06.4,1.35,1.34,1.35H85a.2.2,0,0,1,.22.22v1.27a.21.21,0,0,1-.22.22Z"/><path d="M86.92,12.37a8,8,0,0,1-.35-2.69A7.92,7.92,0,0,1,86.92,7a4.47,4.47,0,0,1,8.32,0,7.92,7.92,0,0,1,.35,2.66,8,8,0,0,1-.35,2.69,4.47,4.47,0,0,1-8.32,0Zm6.53-.53a6.77,6.77,0,0,0,.25-2.16,6.57,6.57,0,0,0-.25-2.13,2.53,2.53,0,0,0-4.75,0,6.91,6.91,0,0,0-.24,2.13,7.13,7.13,0,0,0,.24,2.16,2.53,2.53,0,0,0,4.75,0Z"/><path d="M108.46,15a.21.21,0,0,1-.22-.22v-.92h0a3.47,3.47,0,0,1-3.13,1.38c-2,0-3.54-1-3.54-3.16s1.54-3.26,4.11-3.26h2.4a.12.12,0,0,0,.13-.13V7.88c0-1.46-.57-2.07-2.53-2.07a4.12,4.12,0,0,0-2.55.75.19.19,0,0,1-.31,0l-.59-1a.23.23,0,0,1,0-.31,5.9,5.9,0,0,1,3.59-1c3,0,4.14,1,4.14,3.59v7a.21.21,0,0,1-.22.22Zm-.27-3.41V10.39c0-.09,0-.14-.13-.14H106c-1.83,0-2.62.53-2.62,1.72s.79,1.65,2.2,1.65C107.18,13.62,108.19,12.85,108.19,11.55Z"/><path d="M119.46,15a.21.21,0,0,1-.22-.22V8.58c0-1.69-.77-2.68-2.36-2.68a2.36,2.36,0,0,0-2.42,2.57v6.27a.2.2,0,0,1-.22.22h-1.41a.21.21,0,0,1-.22-.22V4.64a.21.21,0,0,1,.22-.22h1.41a.2.2,0,0,1,.22.22v1h0a3.35,3.35,0,0,1,3-1.43c2.29,0,3.66,1.56,3.66,4v6.6a.21.21,0,0,1-.22.22Z"/><path d="M126.76,15.07c-2.05,0-2.84-.92-2.84-3v-6c0-.09,0-.13-.13-.13h-.88a.21.21,0,0,1-.22-.22V4.64a.21.21,0,0,1,.22-.22h.88c.09,0,.13,0,.13-.13v-3a.21.21,0,0,1,.22-.22h1.41a.21.21,0,0,1,.22.22v3c0,.09,0,.13.13.13h1.68a.21.21,0,0,1,.22.22V5.7a.21.21,0,0,1-.22.22H125.9c-.09,0-.13,0-.13.13v6c0,1.06.4,1.35,1.34,1.35h.47a.2.2,0,0,1,.22.22v1.27a.21.21,0,0,1-.22.22Z"/><path d="M129.49,12.34a8.25,8.25,0,0,1-.35-2.66A8.17,8.17,0,0,1,129.47,7a4.43,4.43,0,0,1,8.27,0,9.18,9.18,0,0,1,.33,3,.21.21,0,0,1-.24.22h-6.67c-.09,0-.13.05-.13.14a3.93,3.93,0,0,0,.17,1.27,2.62,2.62,0,0,0,2.67,1.83,3.43,3.43,0,0,0,2.7-1.17.22.22,0,0,1,.33,0l.91.81a.2.2,0,0,1,0,.31,5.13,5.13,0,0,1-4.12,1.8A4.07,4.07,0,0,1,129.49,12.34ZM136,8.78a.12.12,0,0,0,.14-.13A3.68,3.68,0,0,0,136,7.46a2.6,2.6,0,0,0-4.84,0A3.71,3.71,0,0,0,131,8.65a.12.12,0,0,0,.13.13Z"/><path d="M147.09,15.07c-1.85,0-2.58-.88-2.58-2.77V.22a.21.21,0,0,1,.22-.22h1.41a.21.21,0,0,1,.22.22v12c0,.88.33,1.17,1.06,1.17h.42a.2.2,0,0,1,.22.22v1.27a.21.21,0,0,1-.22.22Z"/><path d="M156.15,15a.21.21,0,0,1-.22-.22v-.92h0a3.45,3.45,0,0,1-3.12,1.38c-2,0-3.55-1-3.55-3.16s1.54-3.26,4.12-3.26h2.4a.12.12,0,0,0,.13-.13V7.88c0-1.46-.57-2.07-2.53-2.07a4.07,4.07,0,0,0-2.55.75c-.11.09-.25.09-.31,0l-.6-1a.24.24,0,0,1,0-.31,5.87,5.87,0,0,1,3.58-1c3,0,4.14,1,4.14,3.59v7a.21.21,0,0,1-.22.22Zm-.26-3.41V10.39a.12.12,0,0,0-.13-.14h-2.12c-1.82,0-2.61.53-2.61,1.72s.79,1.65,2.2,1.65C154.88,13.62,155.89,12.85,155.89,11.55Z"/><path d="M164.93,18.92a.21.21,0,0,1-.22-.22V4.64a.21.21,0,0,1,.22-.22h1.41a.21.21,0,0,1,.22.22v1h0a3.21,3.21,0,0,1,3-1.45,3.48,3.48,0,0,1,3.63,2.53,8.61,8.61,0,0,1,.38,3,8.62,8.62,0,0,1-.38,3,3.47,3.47,0,0,1-3.63,2.53,3.2,3.2,0,0,1-3-1.47h0v5a.21.21,0,0,1-.22.22Zm6.51-7a7.18,7.18,0,0,0,.24-2.2,7.35,7.35,0,0,0-.24-2.2,2.49,2.49,0,0,0-4.64,0,6.79,6.79,0,0,0-.24,2.2,6.63,6.63,0,0,0,.24,2.2,2.48,2.48,0,0,0,4.64,0Z"/><path d="M175.89,15a.2.2,0,0,1-.22-.22V4.64a.2.2,0,0,1,.22-.22h1.4a.2.2,0,0,1,.22.22V5.72h0a2.93,2.93,0,0,1,2.79-1.54,3.26,3.26,0,0,1,2.16.79c.11.11.13.2,0,.31l-.81,1.08a.2.2,0,0,1-.31,0,3,3,0,0,0-1.63-.5c-1.61,0-2.27,1.25-2.27,3.08v5.76a.2.2,0,0,1-.22.22Z"/><path d="M183.12,12.34a8.25,8.25,0,0,1-.35-2.66A8.17,8.17,0,0,1,183.1,7a4.43,4.43,0,0,1,8.27,0,9.18,9.18,0,0,1,.33,3c0,.14-.08.22-.24.22h-6.67a.12.12,0,0,0-.13.14,3.9,3.9,0,0,0,.18,1.27,2.6,2.6,0,0,0,2.66,1.83,3.44,3.44,0,0,0,2.71-1.17.22.22,0,0,1,.33,0l.9.81a.2.2,0,0,1,0,.31,5.09,5.09,0,0,1-4.11,1.8A4.07,4.07,0,0,1,183.12,12.34Zm6.56-3.56a.12.12,0,0,0,.13-.13,3.71,3.71,0,0,0-.15-1.19,2.6,2.6,0,0,0-4.84,0,3.68,3.68,0,0,0-.16,1.19.12.12,0,0,0,.13.13Z"/><path d="M193.07,13.62a.21.21,0,0,1,0-.31l.9-1a.23.23,0,0,1,.31,0,5.07,5.07,0,0,0,3.25,1.21c1.54,0,2.31-.66,2.31-1.6s-.39-1.3-2-1.48l-1.13-.11c-2.06-.22-3.14-1.25-3.14-3,0-2,1.43-3.21,3.91-3.21a6.34,6.34,0,0,1,3.75,1.17.22.22,0,0,1,0,.3l-.75.95a.22.22,0,0,1-.31.05,5.45,5.45,0,0,0-2.84-.86c-1.32,0-2,.59-2,1.45s.51,1.28,2.07,1.43l1.1.11c2.14.2,3.17,1.28,3.17,3,0,2.07-1.5,3.45-4.25,3.45A6.52,6.52,0,0,1,193.07,13.62Z"/><path d="M203.41,12.34a8.2,8.2,0,0,1-.36-2.66A8.17,8.17,0,0,1,203.38,7a4.44,4.44,0,0,1,8.28,0,9.18,9.18,0,0,1,.33,3,.21.21,0,0,1-.24.22h-6.67c-.09,0-.13.05-.13.14a3.93,3.93,0,0,0,.17,1.27,2.61,2.61,0,0,0,2.66,1.83,3.44,3.44,0,0,0,2.71-1.17.22.22,0,0,1,.33,0l.9.81a.21.21,0,0,1,0,.31,5.13,5.13,0,0,1-4.12,1.8A4.07,4.07,0,0,1,203.41,12.34ZM210,8.78a.12.12,0,0,0,.13-.13,3.71,3.71,0,0,0-.15-1.19,2.6,2.6,0,0,0-4.84,0A3.71,3.71,0,0,0,205,8.65a.12.12,0,0,0,.13.13Z"/><path d="M220.92,15a.21.21,0,0,1-.22-.22V8.58c0-1.69-.77-2.68-2.36-2.68a2.36,2.36,0,0,0-2.42,2.57v6.27a.2.2,0,0,1-.22.22h-1.4a.2.2,0,0,1-.22-.22V4.64a.2.2,0,0,1,.22-.22h1.4a.2.2,0,0,1,.22.22v1h0a3.32,3.32,0,0,1,2.94-1.43c2.29,0,3.66,1.56,3.66,4v6.6a.21.21,0,0,1-.22.22Z"/><path d="M224.86,7A4.07,4.07,0,0,1,229,4.18,4.22,4.22,0,0,1,232.62,6c.07.11.07.2-.06.31l-1,.79a.2.2,0,0,1-.31,0A2.59,2.59,0,0,0,229,5.9a2.28,2.28,0,0,0-2.35,1.65,6.89,6.89,0,0,0-.24,2.13,7,7,0,0,0,.24,2.16A2.28,2.28,0,0,0,229,13.49a2.6,2.6,0,0,0,2.27-1.15.2.2,0,0,1,.31,0l1,.79c.13.11.13.2.06.31A4.22,4.22,0,0,1,229,15.2a4.07,4.07,0,0,1-4.15-2.83,9.08,9.08,0,0,1-.33-2.69A9,9,0,0,1,224.86,7Z"/><path d="M234.84,2.05a.21.21,0,0,1-.22-.22V.22a.21.21,0,0,1,.22-.22h1.5a.21.21,0,0,1,.22.22V1.83a.21.21,0,0,1-.22.22Zm0,12.91a.21.21,0,0,1-.22-.22V4.64a.21.21,0,0,1,.22-.22h1.41a.21.21,0,0,1,.22.22v10.1a.21.21,0,0,1-.22.22Z"/><path d="M245.62,15a.21.21,0,0,1-.22-.22v-.92h0a3.45,3.45,0,0,1-3.12,1.38c-2,0-3.55-1-3.55-3.16s1.54-3.26,4.12-3.26h2.4a.12.12,0,0,0,.13-.13V7.88c0-1.46-.57-2.07-2.53-2.07a4.07,4.07,0,0,0-2.55.75c-.11.09-.25.09-.31,0l-.59-1a.23.23,0,0,1,0-.31,5.88,5.88,0,0,1,3.59-1c3,0,4.13,1,4.13,3.59v7a.21.21,0,0,1-.22.22Zm-.26-3.41V10.39c0-.09,0-.14-.13-.14h-2.11c-1.83,0-2.62.53-2.62,1.72s.79,1.65,2.2,1.65C244.35,13.62,245.36,12.85,245.36,11.55Z"/><path d="M260.78,15a.21.21,0,0,1-.22-.22v-1h0a3.2,3.2,0,0,1-3,1.47,3.47,3.47,0,0,1-3.63-2.53,8.62,8.62,0,0,1-.38-3,8.61,8.61,0,0,1,.38-3,3.48,3.48,0,0,1,3.63-2.53,3.21,3.21,0,0,1,3,1.45h0V.22a.21.21,0,0,1,.22-.22h1.41a.21.21,0,0,1,.22.22V14.74a.21.21,0,0,1-.22.22Zm-.46-3.08a6.63,6.63,0,0,0,.24-2.2,6.79,6.79,0,0,0-.24-2.2,2.49,2.49,0,0,0-4.64,0,7.35,7.35,0,0,0-.24,2.2,7.18,7.18,0,0,0,.24,2.2,2.48,2.48,0,0,0,4.64,0Z"/><path d="M264.85,12.34a8.25,8.25,0,0,1-.35-2.66A8.17,8.17,0,0,1,264.83,7a4.43,4.43,0,0,1,8.27,0,9.18,9.18,0,0,1,.33,3,.21.21,0,0,1-.24.22h-6.67a.12.12,0,0,0-.13.14,3.9,3.9,0,0,0,.18,1.27,2.6,2.6,0,0,0,2.66,1.83,3.47,3.47,0,0,0,2.71-1.17.22.22,0,0,1,.33,0l.9.81a.2.2,0,0,1,0,.31,5.12,5.12,0,0,1-4.11,1.8A4.07,4.07,0,0,1,264.85,12.34Zm6.56-3.56a.12.12,0,0,0,.13-.13,3.71,3.71,0,0,0-.15-1.19,2.61,2.61,0,0,0-4.85,0,4,4,0,0,0-.15,1.19.12.12,0,0,0,.13.13Z"/><path d="M286.3,15a.21.21,0,0,1-.22-.22v-.92h0a3.47,3.47,0,0,1-3.13,1.38c-2,0-3.54-1-3.54-3.16s1.54-3.26,4.12-3.26h2.39a.12.12,0,0,0,.14-.13V7.88c0-1.46-.58-2.07-2.53-2.07a4.13,4.13,0,0,0-2.56.75c-.11.09-.24.09-.3,0l-.6-1a.24.24,0,0,1,.05-.31,5.87,5.87,0,0,1,3.58-1c3,0,4.14,1,4.14,3.59v7a.21.21,0,0,1-.22.22ZM286,11.55V10.39a.13.13,0,0,0-.14-.14h-2.11c-1.82,0-2.62.53-2.62,1.72s.8,1.65,2.2,1.65C285,13.62,286,12.85,286,11.55Z"/><path d="M297.3,15a.21.21,0,0,1-.22-.22V8.58c0-1.69-.77-2.68-2.35-2.68a2.36,2.36,0,0,0-2.42,2.57v6.27a.21.21,0,0,1-.22.22h-1.41a.21.21,0,0,1-.22-.22V4.64a.21.21,0,0,1,.22-.22h1.41a.21.21,0,0,1,.22.22v1h0a3.34,3.34,0,0,1,2.95-1.43c2.28,0,3.65,1.56,3.65,4v6.6a.21.21,0,0,1-.22.22Z"/><path d="M301.72,2.05a.21.21,0,0,1-.22-.22V.22a.21.21,0,0,1,.22-.22h1.5a.21.21,0,0,1,.22.22V1.83a.21.21,0,0,1-.22.22Zm0,12.91a.2.2,0,0,1-.22-.22V4.64a.2.2,0,0,1,.22-.22h1.4a.2.2,0,0,1,.22.22v10.1a.2.2,0,0,1-.22.22Z"/><path d="M319.59,15a.21.21,0,0,1-.22-.22V8.58c0-1.69-.77-2.68-2.36-2.68a2.37,2.37,0,0,0-2.42,2.57v6.27a.21.21,0,0,1-.22.22H313a.21.21,0,0,1-.22-.22V8.58c0-1.69-.77-2.68-2.35-2.68A2.36,2.36,0,0,0,308,8.47v6.27a.21.21,0,0,1-.22.22h-1.41a.21.21,0,0,1-.22-.22V4.64a.21.21,0,0,1,.22-.22h1.41a.21.21,0,0,1,.22.22v1h0a3.35,3.35,0,0,1,2.95-1.43A3.3,3.3,0,0,1,314,5.83h0a3.94,3.94,0,0,1,3.41-1.65c2.45,0,3.77,1.56,3.77,4v6.6A.21.21,0,0,1,321,15Z"/><path d="M330.21,15a.21.21,0,0,1-.22-.22v-.92h0a3.45,3.45,0,0,1-3.12,1.38c-2,0-3.55-1-3.55-3.16s1.54-3.26,4.12-3.26h2.4a.12.12,0,0,0,.13-.13V7.88c0-1.46-.57-2.07-2.53-2.07a4.07,4.07,0,0,0-2.55.75c-.11.09-.25.09-.31,0l-.6-1a.24.24,0,0,1,.05-.31,5.87,5.87,0,0,1,3.58-1c3,0,4.14,1,4.14,3.59v7a.21.21,0,0,1-.22.22ZM330,11.55V10.39a.12.12,0,0,0-.13-.14H327.7c-1.82,0-2.61.53-2.61,1.72s.79,1.65,2.2,1.65C328.94,13.62,330,12.85,330,11.55Z"/><path d="M336.9,15.07c-1.85,0-2.57-.88-2.57-2.77V.22a.2.2,0,0,1,.22-.22H336a.2.2,0,0,1,.22.22v12c0,.88.33,1.17,1.06,1.17h.42a.2.2,0,0,1,.22.22v1.27a.21.21,0,0,1-.22.22Z"/><path d="M339.3,12.34a8.2,8.2,0,0,1-.36-2.66A8.46,8.46,0,0,1,339.27,7a4.44,4.44,0,0,1,8.28,0,9.18,9.18,0,0,1,.33,3,.21.21,0,0,1-.24.22H341c-.09,0-.13.05-.13.14a3.93,3.93,0,0,0,.17,1.27,2.62,2.62,0,0,0,2.67,1.83,3.43,3.43,0,0,0,2.7-1.17.22.22,0,0,1,.33,0l.9.81a.21.21,0,0,1,0,.31,5.13,5.13,0,0,1-4.12,1.8A4.07,4.07,0,0,1,339.3,12.34Zm6.55-3.56a.12.12,0,0,0,.14-.13,3.68,3.68,0,0,0-.16-1.19,2.6,2.6,0,0,0-4.84,0,3.71,3.71,0,0,0-.15,1.19.12.12,0,0,0,.13.13Z"/><path d="M349.24,13.62a.21.21,0,0,1,0-.31l.9-1a.23.23,0,0,1,.31,0,5.07,5.07,0,0,0,3.26,1.21c1.54,0,2.31-.66,2.31-1.6s-.4-1.3-2-1.48l-1.12-.11c-2.07-.22-3.15-1.25-3.15-3,0-2,1.43-3.21,3.92-3.21a6.3,6.3,0,0,1,3.74,1.17c.11.06.11.19,0,.3l-.74.95a.22.22,0,0,1-.31.05,5.45,5.45,0,0,0-2.84-.86c-1.32,0-2,.59-2,1.45s.5,1.28,2.06,1.43l1.1.11c2.14.2,3.17,1.28,3.17,3,0,2.07-1.49,3.45-4.24,3.45A6.55,6.55,0,0,1,349.24,13.62Z"/><path d="M370.87,18.92a.21.21,0,0,1-.22-.22v-5h0a3.21,3.21,0,0,1-3,1.47A3.48,3.48,0,0,1,364,12.67a8.9,8.9,0,0,1-.37-3,8.89,8.89,0,0,1,.37-3,3.49,3.49,0,0,1,3.63-2.53,3.22,3.22,0,0,1,3,1.45h0v-1a.21.21,0,0,1,.22-.22h1.41a.21.21,0,0,1,.22.22V18.7a.21.21,0,0,1-.22.22Zm-.46-7a6.92,6.92,0,0,0,.24-2.2,7.08,7.08,0,0,0-.24-2.2,2.5,2.5,0,0,0-4.65,0,7.69,7.69,0,0,0-.24,2.2,7.51,7.51,0,0,0,.24,2.2,2.48,2.48,0,0,0,4.65,0Z"/><path d="M381.85,15a.2.2,0,0,1-.22-.22v-1h0a3.21,3.21,0,0,1-2.88,1.45c-2.31,0-3.65-1.58-3.65-4V4.64a.21.21,0,0,1,.22-.22h1.41a.21.21,0,0,1,.22.22v6.14c0,1.72.77,2.71,2.33,2.71a2.34,2.34,0,0,0,2.38-2.6V4.64a.2.2,0,0,1,.22-.22h1.4a.2.2,0,0,1,.22.22v10.1a.2.2,0,0,1-.22.22Z"/><path d="M385.91,12.34a8.25,8.25,0,0,1-.35-2.66A8.17,8.17,0,0,1,385.89,7a4.44,4.44,0,0,1,8.28,0,9.47,9.47,0,0,1,.33,3c0,.14-.09.22-.25.22h-6.66a.13.13,0,0,0-.14.14,3.9,3.9,0,0,0,.18,1.27,2.6,2.6,0,0,0,2.66,1.83A3.44,3.44,0,0,0,393,12.32a.22.22,0,0,1,.33,0l.9.81a.2.2,0,0,1,0,.31,5.09,5.09,0,0,1-4.11,1.8A4.08,4.08,0,0,1,385.91,12.34Zm6.56-3.56a.12.12,0,0,0,.13-.13,3.71,3.71,0,0,0-.15-1.19,2.6,2.6,0,0,0-4.84,0,3.68,3.68,0,0,0-.16,1.19.12.12,0,0,0,.14.13Z"/><path d="M401.2,18.92a.21.21,0,0,1-.22-.22V4.64a.21.21,0,0,1,.22-.22h1.41a.21.21,0,0,1,.22.22v1h0a3.22,3.22,0,0,1,3-1.45,3.49,3.49,0,0,1,3.63,2.53,8.89,8.89,0,0,1,.37,3,8.9,8.9,0,0,1-.37,3,3.48,3.48,0,0,1-3.63,2.53,3.21,3.21,0,0,1-3-1.47h0v5a.21.21,0,0,1-.22.22Zm6.52-7a7.51,7.51,0,0,0,.24-2.2,7.69,7.69,0,0,0-.24-2.2,2.5,2.5,0,0,0-4.65,0,7.08,7.08,0,0,0-.24,2.2,6.92,6.92,0,0,0,.24,2.2,2.48,2.48,0,0,0,4.65,0Z"/><path d="M418.56,15a.21.21,0,0,1-.22-.22v-1h0a3.21,3.21,0,0,1-2.88,1.45c-2.31,0-3.65-1.58-3.65-4V4.64a.2.2,0,0,1,.22-.22h1.4a.2.2,0,0,1,.22.22v6.14c0,1.72.77,2.71,2.34,2.71a2.34,2.34,0,0,0,2.37-2.6V4.64a.21.21,0,0,1,.22-.22H420a.21.21,0,0,1,.22.22v10.1A.21.21,0,0,1,420,15Z"/><path d="M422.63,12.34a8.25,8.25,0,0,1-.35-2.66A8.17,8.17,0,0,1,422.61,7a4.43,4.43,0,0,1,8.27,0,9.18,9.18,0,0,1,.33,3,.21.21,0,0,1-.24.22H424.3a.12.12,0,0,0-.13.14,3.9,3.9,0,0,0,.18,1.27A2.6,2.6,0,0,0,427,13.49a3.47,3.47,0,0,0,2.71-1.17.22.22,0,0,1,.33,0l.9.81a.2.2,0,0,1,0,.31,5.12,5.12,0,0,1-4.11,1.8A4.07,4.07,0,0,1,422.63,12.34Zm6.56-3.56a.12.12,0,0,0,.13-.13,3.71,3.71,0,0,0-.15-1.19,2.6,2.6,0,0,0-4.84,0,3.68,3.68,0,0,0-.16,1.19.12.12,0,0,0,.13.13Z"/><path d="M439.9,15a.21.21,0,0,1-.22-.22v-1h0a3.2,3.2,0,0,1-3,1.47A3.47,3.47,0,0,1,433,12.67a8.62,8.62,0,0,1-.38-3,8.61,8.61,0,0,1,.38-3,3.48,3.48,0,0,1,3.63-2.53,3.21,3.21,0,0,1,3,1.45h0V.22A.21.21,0,0,1,439.9,0h1.41a.21.21,0,0,1,.22.22V14.74a.21.21,0,0,1-.22.22Zm-.46-3.08a6.63,6.63,0,0,0,.24-2.2,6.79,6.79,0,0,0-.24-2.2,2.49,2.49,0,0,0-4.64,0,7.35,7.35,0,0,0-.24,2.2,7.18,7.18,0,0,0,.24,2.2,2.48,2.48,0,0,0,4.64,0Z"/><path d="M450.64,15a.21.21,0,0,1-.22-.22v-.92h0a3.47,3.47,0,0,1-3.13,1.38c-2,0-3.54-1-3.54-3.16s1.54-3.26,4.11-3.26h2.4a.12.12,0,0,0,.13-.13V7.88c0-1.46-.57-2.07-2.53-2.07a4.12,4.12,0,0,0-2.55.75.19.19,0,0,1-.31,0l-.59-1a.23.23,0,0,1,0-.31,5.92,5.92,0,0,1,3.59-1c3,0,4.14,1,4.14,3.59v7a.21.21,0,0,1-.22.22Zm-.27-3.41V10.39c0-.09,0-.14-.13-.14h-2.11c-1.83,0-2.62.53-2.62,1.72s.79,1.65,2.2,1.65C449.36,13.62,450.37,12.85,450.37,11.55Z"/><path d="M461.64,15a.21.21,0,0,1-.22-.22V8.58c0-1.69-.77-2.68-2.36-2.68a2.36,2.36,0,0,0-2.42,2.57v6.27a.2.2,0,0,1-.22.22H455a.21.21,0,0,1-.23-.22V4.64a.21.21,0,0,1,.23-.22h1.4a.2.2,0,0,1,.22.22v1h0a3.32,3.32,0,0,1,2.94-1.43c2.29,0,3.66,1.56,3.66,4v6.6a.21.21,0,0,1-.22.22Z"/><path d="M470.5,18.92a.21.21,0,0,1-.22-.22V4.64a.21.21,0,0,1,.22-.22h1.41a.21.21,0,0,1,.22.22v1h0a3.22,3.22,0,0,1,3-1.45,3.49,3.49,0,0,1,3.63,2.53,8.89,8.89,0,0,1,.37,3,8.9,8.9,0,0,1-.37,3,3.48,3.48,0,0,1-3.63,2.53,3.21,3.21,0,0,1-3-1.47h0v5a.21.21,0,0,1-.22.22Zm6.52-7a7.51,7.51,0,0,0,.24-2.2,7.69,7.69,0,0,0-.24-2.2,2.5,2.5,0,0,0-4.65,0,7.08,7.08,0,0,0-.24,2.2,6.92,6.92,0,0,0,.24,2.2,2.48,2.48,0,0,0,4.65,0Z"/><path d="M481.46,15a.21.21,0,0,1-.22-.22V4.64a.21.21,0,0,1,.22-.22h1.41a.21.21,0,0,1,.22.22V5.72h0a2.93,2.93,0,0,1,2.79-1.54,3.26,3.26,0,0,1,2.16.79c.11.11.13.2,0,.31l-.81,1.08a.2.2,0,0,1-.31,0,2.93,2.93,0,0,0-1.63-.5c-1.6,0-2.26,1.25-2.26,3.08v5.76a.21.21,0,0,1-.22.22Z"/><path d="M488.7,12.37a7.75,7.75,0,0,1-.36-2.69A7.64,7.64,0,0,1,488.7,7,4.46,4.46,0,0,1,497,7a7.64,7.64,0,0,1,.36,2.66,7.75,7.75,0,0,1-.36,2.69,4.47,4.47,0,0,1-8.31,0Zm6.53-.53a6.82,6.82,0,0,0,.24-2.16,6.61,6.61,0,0,0-.24-2.13,2.53,2.53,0,0,0-4.75,0,6.61,6.61,0,0,0-.24,2.13,6.82,6.82,0,0,0,.24,2.16,2.53,2.53,0,0,0,4.75,0Z"/><path d="M506.06,15a.21.21,0,0,1-.23-.22v-1h0a3.19,3.19,0,0,1-3,1.47,3.47,3.47,0,0,1-3.63-2.53,8.65,8.65,0,0,1-.37-3,8.63,8.63,0,0,1,.37-3,3.48,3.48,0,0,1,3.63-2.53,3.2,3.2,0,0,1,3,1.45h0V.22a.21.21,0,0,1,.23-.22h1.4a.2.2,0,0,1,.22.22V14.74a.2.2,0,0,1-.22.22Zm-.47-3.08a6.63,6.63,0,0,0,.24-2.2,6.79,6.79,0,0,0-.24-2.2,2.49,2.49,0,0,0-4.64,0,7.35,7.35,0,0,0-.24,2.2,7.18,7.18,0,0,0,.24,2.2,2.48,2.48,0,0,0,4.64,0Z"/><path d="M517,15a.21.21,0,0,1-.22-.22v-1h0a3.21,3.21,0,0,1-2.88,1.45c-2.31,0-3.65-1.58-3.65-4V4.64a.2.2,0,0,1,.22-.22h1.4a.2.2,0,0,1,.22.22v6.14c0,1.72.77,2.71,2.34,2.71a2.34,2.34,0,0,0,2.37-2.6V4.64a.21.21,0,0,1,.22-.22h1.41a.21.21,0,0,1,.22.22v10.1a.21.21,0,0,1-.22.22Z"/><path d="M521.08,7a4.07,4.07,0,0,1,4.16-2.84A4.22,4.22,0,0,1,528.85,6a.22.22,0,0,1-.07.31l-1,.79a.2.2,0,0,1-.31,0,2.58,2.58,0,0,0-2.26-1.14,2.29,2.29,0,0,0-2.36,1.65,7.21,7.21,0,0,0-.24,2.13,7.3,7.3,0,0,0,.24,2.16,2.29,2.29,0,0,0,2.36,1.65,2.59,2.59,0,0,0,2.26-1.15.2.2,0,0,1,.31,0l1,.79a.22.22,0,0,1,.07.31,4.22,4.22,0,0,1-3.61,1.78,4.08,4.08,0,0,1-4.16-2.83,9.08,9.08,0,0,1-.33-2.69A9,9,0,0,1,521.08,7Z"/><path d="M531.07,2.05a.21.21,0,0,1-.22-.22V.22a.21.21,0,0,1,.22-.22h1.49a.2.2,0,0,1,.22.22V1.83a.2.2,0,0,1-.22.22Zm0,12.91a.21.21,0,0,1-.22-.22V4.64a.21.21,0,0,1,.22-.22h1.41a.21.21,0,0,1,.22.22v10.1a.21.21,0,0,1-.22.22Z"/><path d="M535.69,15a.21.21,0,0,1-.22-.22V4.64a.21.21,0,0,1,.22-.22h1.41a.21.21,0,0,1,.22.22V5.72h0a2.93,2.93,0,0,1,2.79-1.54,3.26,3.26,0,0,1,2.16.79c.11.11.13.2,0,.31l-.81,1.08a.2.2,0,0,1-.31,0,2.93,2.93,0,0,0-1.63-.5c-1.6,0-2.26,1.25-2.26,3.08v5.76a.21.21,0,0,1-.22.22Z"/><path d="M548.23,18.92a.2.2,0,0,1-.22-.22V4.64a.2.2,0,0,1,.22-.22h1.41a.2.2,0,0,1,.21.22v1h0a3.2,3.2,0,0,1,3-1.45,3.48,3.48,0,0,1,3.63,2.53,8.63,8.63,0,0,1,.37,3,8.65,8.65,0,0,1-.37,3,3.47,3.47,0,0,1-3.63,2.53,3.19,3.19,0,0,1-3-1.47h0v5a.2.2,0,0,1-.21.22Zm6.51-7a7.18,7.18,0,0,0,.24-2.2,7.35,7.35,0,0,0-.24-2.2,2.49,2.49,0,0,0-4.64,0,6.73,6.73,0,0,0-.25,2.2,6.58,6.58,0,0,0,.25,2.2,2.48,2.48,0,0,0,4.64,0Z"/><path d="M559.14,2.05a.21.21,0,0,1-.22-.22V.22a.21.21,0,0,1,.22-.22h1.5a.21.21,0,0,1,.22.22V1.83a.21.21,0,0,1-.22.22Zm0,12.91a.21.21,0,0,1-.22-.22V4.64a.21.21,0,0,1,.22-.22h1.41a.21.21,0,0,1,.22.22v10.1a.21.21,0,0,1-.22.22Z"/><path d="M563.23,7a4.07,4.07,0,0,1,4.16-2.84A4.22,4.22,0,0,1,571,6a.22.22,0,0,1-.07.31l-1,.79a.19.19,0,0,1-.3,0,2.59,2.59,0,0,0-2.27-1.14A2.3,2.3,0,0,0,565,7.55a7.21,7.21,0,0,0-.24,2.13,7.3,7.3,0,0,0,.24,2.16,2.3,2.3,0,0,0,2.36,1.65,2.6,2.6,0,0,0,2.27-1.15.19.19,0,0,1,.3,0l1,.79a.22.22,0,0,1,.07.31,4.22,4.22,0,0,1-3.61,1.78,4.08,4.08,0,0,1-4.16-2.83,9.08,9.08,0,0,1-.33-2.69A9,9,0,0,1,563.23,7Z"/><path d="M579.16,15a.21.21,0,0,1-.22-.22v-.92h0a3.47,3.47,0,0,1-3.13,1.38c-2,0-3.54-1-3.54-3.16s1.54-3.26,4.11-3.26h2.4a.12.12,0,0,0,.13-.13V7.88c0-1.46-.57-2.07-2.53-2.07a4.12,4.12,0,0,0-2.55.75.19.19,0,0,1-.31,0l-.59-1a.24.24,0,0,1,0-.31,5.92,5.92,0,0,1,3.59-1c3,0,4.14,1,4.14,3.59v7a.21.21,0,0,1-.22.22Zm-.27-3.41V10.39c0-.09,0-.14-.13-.14h-2.11c-1.83,0-2.62.53-2.62,1.72s.79,1.65,2.2,1.65C577.88,13.62,578.89,12.85,578.89,11.55Z"/><path d="M589.92,15a.21.21,0,0,1-.22-.22v-1h0a3.18,3.18,0,0,1-3,1.47,3.48,3.48,0,0,1-3.63-2.53,8.9,8.9,0,0,1-.37-3,8.89,8.89,0,0,1,.37-3,3.49,3.49,0,0,1,3.63-2.53,3.19,3.19,0,0,1,3,1.45h0V.22a.21.21,0,0,1,.22-.22h1.41a.2.2,0,0,1,.21.22V14.74a.2.2,0,0,1-.21.22Zm-.46-3.08a6.92,6.92,0,0,0,.24-2.2,7.08,7.08,0,0,0-.24-2.2,2.5,2.5,0,0,0-4.65,0,7.69,7.69,0,0,0-.24,2.2,7.51,7.51,0,0,0,.24,2.2,2.48,2.48,0,0,0,4.65,0Z"/><path d="M600.9,15a.21.21,0,0,1-.23-.22v-1h0a3.21,3.21,0,0,1-2.88,1.45c-2.31,0-3.65-1.58-3.65-4V4.64a.21.21,0,0,1,.22-.22h1.41a.21.21,0,0,1,.22.22v6.14c0,1.72.77,2.71,2.33,2.71a2.34,2.34,0,0,0,2.37-2.6V4.64a.21.21,0,0,1,.23-.22h1.4a.2.2,0,0,1,.22.22v10.1a.2.2,0,0,1-.22.22Z"/><path d="M605.47,15a.21.21,0,0,1-.22-.22V4.64a.21.21,0,0,1,.22-.22h1.41a.21.21,0,0,1,.22.22V5.72h0a2.94,2.94,0,0,1,2.8-1.54,3.26,3.26,0,0,1,2.15.79c.11.11.13.2,0,.31l-.82,1.08a.2.2,0,0,1-.31,0,2.93,2.93,0,0,0-1.62-.5c-1.61,0-2.27,1.25-2.27,3.08v5.76a.21.21,0,0,1-.22.22Z"/><path d="M619.24,15a.21.21,0,0,1-.22-.22v-.92h0a3.45,3.45,0,0,1-3.12,1.38c-2,0-3.55-1-3.55-3.16s1.54-3.26,4.12-3.26h2.4a.12.12,0,0,0,.13-.13V7.88c0-1.46-.57-2.07-2.53-2.07a4.07,4.07,0,0,0-2.55.75c-.11.09-.25.09-.31,0l-.6-1a.24.24,0,0,1,0-.31,5.87,5.87,0,0,1,3.58-1c3,0,4.14,1,4.14,3.59v7a.21.21,0,0,1-.22.22ZM619,11.55V10.39a.12.12,0,0,0-.13-.14h-2.12c-1.82,0-2.61.53-2.61,1.72s.79,1.65,2.2,1.65C618,13.62,619,12.85,619,11.55Z"/><path d="M622.67,13.62a.23.23,0,0,1,0-.31l.91-1a.22.22,0,0,1,.3,0,5.1,5.1,0,0,0,3.26,1.21c1.54,0,2.31-.66,2.31-1.6s-.4-1.3-2.05-1.48l-1.12-.11c-2.07-.22-3.14-1.25-3.14-3,0-2,1.43-3.21,3.91-3.21a6.3,6.3,0,0,1,3.74,1.17.21.21,0,0,1,.05.3l-.75.95a.22.22,0,0,1-.31.05,5.45,5.45,0,0,0-2.84-.86c-1.32,0-2,.59-2,1.45s.51,1.28,2.07,1.43l1.1.11c2.13.2,3.17,1.28,3.17,3,0,2.07-1.5,3.45-4.25,3.45A6.55,6.55,0,0,1,622.67,13.62Z"/><path d="M.51,40.37a7.75,7.75,0,0,1-.36-2.69A7.64,7.64,0,0,1,.51,35a4.06,4.06,0,0,1,4.15-2.84A4.06,4.06,0,0,1,8.82,35a7.64,7.64,0,0,1,.36,2.66,7.75,7.75,0,0,1-.36,2.69A4.09,4.09,0,0,1,4.66,43.2,4.09,4.09,0,0,1,.51,40.37ZM7,39.84a6.82,6.82,0,0,0,.24-2.16A6.61,6.61,0,0,0,7,35.55,2.34,2.34,0,0,0,4.66,33.9a2.34,2.34,0,0,0-2.37,1.65,6.61,6.61,0,0,0-.24,2.13,6.82,6.82,0,0,0,.24,2.16,2.35,2.35,0,0,0,2.37,1.65A2.35,2.35,0,0,0,7,39.84Z"/><path d="M29.13,43a.21.21,0,0,1-.22-.22V36.58c0-1.69-.77-2.68-2.35-2.68a2.37,2.37,0,0,0-2.42,2.57v6.27a.21.21,0,0,1-.22.22H22.51a.21.21,0,0,1-.22-.22V36.58c0-1.69-.77-2.68-2.36-2.68a2.36,2.36,0,0,0-2.42,2.57v6.27a.21.21,0,0,1-.22.22H15.88a.21.21,0,0,1-.22-.22V32.64a.21.21,0,0,1,.22-.22h1.41a.21.21,0,0,1,.22.22v1h0a3.35,3.35,0,0,1,2.95-1.43,3.3,3.3,0,0,1,3.08,1.65h0A3.92,3.92,0,0,1,27,32.18c2.44,0,3.76,1.56,3.76,4v6.6a.21.21,0,0,1-.22.22Z"/><path d="M33.09,40.37a8,8,0,0,1-.35-2.69A7.92,7.92,0,0,1,33.09,35a4.06,4.06,0,0,1,4.16-2.84A4.06,4.06,0,0,1,41.4,35a7.64,7.64,0,0,1,.36,2.66,7.75,7.75,0,0,1-.36,2.69,4.09,4.09,0,0,1-4.15,2.83A4.09,4.09,0,0,1,33.09,40.37Zm6.53-.53a6.82,6.82,0,0,0,.24-2.16,6.61,6.61,0,0,0-.24-2.13,2.53,2.53,0,0,0-4.75,0,6.61,6.61,0,0,0-.24,2.13,6.82,6.82,0,0,0,.24,2.16,2.53,2.53,0,0,0,4.75,0Z"/><path d="M44.07,43a.2.2,0,0,1-.22-.22V32.64a.2.2,0,0,1,.22-.22h1.4a.2.2,0,0,1,.22.22v1.08h0a2.93,2.93,0,0,1,2.79-1.54,3.26,3.26,0,0,1,2.16.79c.11.11.13.2,0,.31l-.81,1.08a.2.2,0,0,1-.31,0A3,3,0,0,0,48,33.9c-1.61,0-2.27,1.25-2.27,3.08v5.76a.2.2,0,0,1-.22.22Z"/><path d="M58.19,43a.21.21,0,0,1-.22-.22v-1h0a3.2,3.2,0,0,1-3,1.47,3.47,3.47,0,0,1-3.63-2.53,8.62,8.62,0,0,1-.38-3,8.61,8.61,0,0,1,.38-3A3.48,3.48,0,0,1,55,32.18a3.21,3.21,0,0,1,3,1.45h0V28.22a.21.21,0,0,1,.22-.22H59.6a.21.21,0,0,1,.22.22V42.74a.21.21,0,0,1-.22.22Zm-.46-3.08a6.92,6.92,0,0,0,.24-2.2,7.08,7.08,0,0,0-.24-2.2,2.49,2.49,0,0,0-4.64,0,7.3,7.3,0,0,0-.25,2.2,7.14,7.14,0,0,0,.25,2.2,2.48,2.48,0,0,0,4.64,0Z"/><path d="M62.26,40.34a8.25,8.25,0,0,1-.35-2.66A8.17,8.17,0,0,1,62.24,35a4.43,4.43,0,0,1,8.27,0,9.18,9.18,0,0,1,.33,3,.21.21,0,0,1-.24.22H63.93c-.09,0-.13,0-.13.14A3.9,3.9,0,0,0,64,39.66a2.6,2.6,0,0,0,2.66,1.83,3.43,3.43,0,0,0,2.7-1.17.22.22,0,0,1,.33,0l.91.81a.2.2,0,0,1,0,.31,5.13,5.13,0,0,1-4.12,1.8A4.07,4.07,0,0,1,62.26,40.34Zm6.56-3.56a.12.12,0,0,0,.13-.13,3.68,3.68,0,0,0-.16-1.19,2.6,2.6,0,0,0-4.84,0,3.71,3.71,0,0,0-.15,1.19.12.12,0,0,0,.13.13Z"/><path d="M79.53,43a.21.21,0,0,1-.22-.22v-1h0a3.2,3.2,0,0,1-3,1.47,3.48,3.48,0,0,1-3.64-2.53,8.9,8.9,0,0,1-.37-3,8.89,8.89,0,0,1,.37-3,3.49,3.49,0,0,1,3.64-2.53,3.21,3.21,0,0,1,3,1.45h0V28.22a.21.21,0,0,1,.22-.22h1.41a.21.21,0,0,1,.22.22V42.74a.21.21,0,0,1-.22.22Zm-.46-3.08a6.92,6.92,0,0,0,.24-2.2,7.08,7.08,0,0,0-.24-2.2,2.5,2.5,0,0,0-4.65,0,7.69,7.69,0,0,0-.24,2.2,7.51,7.51,0,0,0,.24,2.2,2.48,2.48,0,0,0,4.65,0Z"/><path d="M90.51,43a.21.21,0,0,1-.22-.22v-1h0a3.22,3.22,0,0,1-2.89,1.45c-2.31,0-3.65-1.58-3.65-4V32.64a.21.21,0,0,1,.22-.22h1.41a.21.21,0,0,1,.22.22v6.14c0,1.72.77,2.71,2.33,2.71a2.34,2.34,0,0,0,2.38-2.6V32.64a.21.21,0,0,1,.22-.22h1.41a.21.21,0,0,1,.22.22v10.1a.21.21,0,0,1-.22.22Z"/><path d="M95.08,43a.21.21,0,0,1-.22-.22V32.64a.21.21,0,0,1,.22-.22h1.41a.21.21,0,0,1,.22.22v1.08h0a3,3,0,0,1,2.8-1.54,3.24,3.24,0,0,1,2.15.79c.11.11.14.2,0,.31l-.82,1.08a.19.19,0,0,1-.3,0A3,3,0,0,0,99,33.9c-1.61,0-2.27,1.25-2.27,3.08v5.76a.21.21,0,0,1-.22.22Z"/><path d="M108.86,43a.2.2,0,0,1-.22-.22v-.92h0a3.44,3.44,0,0,1-3.12,1.38c-2,0-3.54-1-3.54-3.16s1.54-3.26,4.11-3.26h2.4a.12.12,0,0,0,.13-.13v-.77c0-1.46-.57-2.07-2.53-2.07a4.09,4.09,0,0,0-2.55.75.19.19,0,0,1-.31,0l-.59-1a.23.23,0,0,1,0-.31,5.9,5.9,0,0,1,3.59-1c3,0,4.13,1,4.13,3.59v7a.2.2,0,0,1-.22.22Zm-.27-3.41V38.39c0-.09,0-.14-.13-.14h-2.11c-1.83,0-2.62.53-2.62,1.72s.79,1.65,2.2,1.65C107.58,41.62,108.59,40.85,108.59,39.55Z"/><path d="M112.29,41.62a.21.21,0,0,1,0-.31l.9-1a.23.23,0,0,1,.31,0,5.07,5.07,0,0,0,3.25,1.21c1.54,0,2.31-.66,2.31-1.6s-.39-1.3-2-1.48l-1.12-.11c-2.07-.22-3.15-1.25-3.15-3,0-2,1.43-3.21,3.92-3.21a6.3,6.3,0,0,1,3.74,1.17c.11.06.11.19,0,.3l-.75,1a.22.22,0,0,1-.31,0,5.44,5.44,0,0,0-2.83-.86c-1.33,0-2,.59-2,1.45s.51,1.28,2.07,1.43l1.1.11c2.14.2,3.17,1.28,3.17,3,0,2.07-1.5,3.45-4.25,3.45A6.52,6.52,0,0,1,112.29,41.62Z"/><path d="M122.65,40.85a.21.21,0,0,1,.22-.22h1.67a.21.21,0,0,1,.22.22v1.89a.21.21,0,0,1-.22.22h-1.67a.21.21,0,0,1-.22-.22Z"/><path d="M139.88,43c-.16,0-.22-.06-.29-.22l-3-6.11h-3.3c-.09,0-.13,0-.13.13v6a.21.21,0,0,1-.23.22h-1.51a.2.2,0,0,1-.22-.22V28.22a.2.2,0,0,1,.22-.22h5.41c2.79,0,4.69,1.72,4.69,4.31a4.07,4.07,0,0,1-2.95,4.07l3.19,6.32a.15.15,0,0,1-.13.26Zm-.31-10.65c0-1.56-1-2.48-2.77-2.48h-3.5c-.09,0-.13,0-.13.13v4.71a.12.12,0,0,0,.13.13h3.5C138.53,34.8,139.57,33.87,139.57,32.31Z"/><path d="M143.35,40.34a8.25,8.25,0,0,1-.35-2.66,8.17,8.17,0,0,1,.33-2.66,4.43,4.43,0,0,1,8.27,0,9.18,9.18,0,0,1,.33,3,.21.21,0,0,1-.24.22H145c-.09,0-.13,0-.13.14a3.9,3.9,0,0,0,.18,1.27,2.6,2.6,0,0,0,2.66,1.83,3.43,3.43,0,0,0,2.7-1.17.22.22,0,0,1,.33,0l.91.81a.2.2,0,0,1,0,.31,5.13,5.13,0,0,1-4.12,1.8A4.07,4.07,0,0,1,143.35,40.34Zm6.56-3.56a.12.12,0,0,0,.13-.13,3.68,3.68,0,0,0-.16-1.19,2.6,2.6,0,0,0-4.84,0,3.71,3.71,0,0,0-.15,1.19.12.12,0,0,0,.13.13Z"/><path d="M157.08,43.07c-2.05,0-2.84-.92-2.84-3v-6c0-.09,0-.13-.13-.13h-.88a.21.21,0,0,1-.22-.22V32.64a.21.21,0,0,1,.22-.22h.88c.09,0,.13,0,.13-.13v-3a.21.21,0,0,1,.22-.22h1.41a.21.21,0,0,1,.22.22v3c0,.09,0,.13.13.13h1.67a.21.21,0,0,1,.22.22V33.7a.21.21,0,0,1-.22.22h-1.67c-.09,0-.13,0-.13.13v6c0,1.06.39,1.35,1.34,1.35h.46a.2.2,0,0,1,.22.22v1.27a.21.21,0,0,1-.22.22Z"/><path d="M160.31,43a.21.21,0,0,1-.22-.22V32.64a.21.21,0,0,1,.22-.22h1.41a.21.21,0,0,1,.22.22v10.1a.21.21,0,0,1-.22.22Zm.18-12.25c-.13,0-.2-.09-.13-.22L162,27.78a.4.4,0,0,1,.37-.22h1.45c.14,0,.2.11.11.22l-2,2.71a.44.44,0,0,1-.42.22Z"/><path d="M164.89,43a.2.2,0,0,1-.22-.22V32.64a.2.2,0,0,1,.22-.22h1.41a.21.21,0,0,1,.22.22v1.08h0a2.93,2.93,0,0,1,2.79-1.54,3.26,3.26,0,0,1,2.16.79c.11.11.13.2,0,.31l-.81,1.08a.2.2,0,0,1-.31,0,2.93,2.93,0,0,0-1.63-.5c-1.6,0-2.26,1.25-2.26,3.08v5.76a.21.21,0,0,1-.22.22Z"/><path d="M172.12,40.34a8.25,8.25,0,0,1-.35-2.66A8.17,8.17,0,0,1,172.1,35a4.44,4.44,0,0,1,8.28,0,9.18,9.18,0,0,1,.33,3c0,.14-.09.22-.25.22H173.8c-.09,0-.13,0-.13.14a3.93,3.93,0,0,0,.17,1.27,2.61,2.61,0,0,0,2.66,1.83,3.44,3.44,0,0,0,2.71-1.17.22.22,0,0,1,.33,0l.9.81a.2.2,0,0,1,0,.31,5.09,5.09,0,0,1-4.11,1.8A4.08,4.08,0,0,1,172.12,40.34Zm6.56-3.56a.12.12,0,0,0,.13-.13,3.71,3.71,0,0,0-.15-1.19,2.6,2.6,0,0,0-4.84,0,3.71,3.71,0,0,0-.15,1.19.12.12,0,0,0,.13.13Z"/><path d="M182.07,41.62a.21.21,0,0,1,0-.31l.9-1a.23.23,0,0,1,.31,0,5.07,5.07,0,0,0,3.26,1.21c1.54,0,2.31-.66,2.31-1.6s-.4-1.3-2-1.48l-1.12-.11c-2.07-.22-3.15-1.25-3.15-3,0-2,1.43-3.21,3.92-3.21a6.3,6.3,0,0,1,3.74,1.17c.11.06.11.19,0,.3l-.75,1a.21.21,0,0,1-.3,0,5.48,5.48,0,0,0-2.84-.86c-1.32,0-2,.59-2,1.45s.51,1.28,2.07,1.43l1.1.11c2.14.2,3.17,1.28,3.17,3,0,2.07-1.49,3.45-4.25,3.45A6.54,6.54,0,0,1,182.07,41.62Z"/><path d="M192.41,40.34a8.25,8.25,0,0,1-.35-2.66,8.17,8.17,0,0,1,.33-2.66,4.43,4.43,0,0,1,8.27,0,9.18,9.18,0,0,1,.33,3,.21.21,0,0,1-.24.22h-6.67c-.09,0-.13,0-.13.14a3.93,3.93,0,0,0,.17,1.27,2.62,2.62,0,0,0,2.67,1.83,3.43,3.43,0,0,0,2.7-1.17.22.22,0,0,1,.33,0l.91.81a.2.2,0,0,1,0,.31,5.13,5.13,0,0,1-4.12,1.8A4.07,4.07,0,0,1,192.41,40.34ZM199,36.78a.12.12,0,0,0,.13-.13,3.68,3.68,0,0,0-.16-1.19,2.6,2.6,0,0,0-4.84,0,3.71,3.71,0,0,0-.15,1.19.12.12,0,0,0,.13.13Z"/><path d="M214.08,43a.21.21,0,0,1-.22-.22v-1h0a3.21,3.21,0,0,1-3,1.47,3.48,3.48,0,0,1-3.63-2.53,8.9,8.9,0,0,1-.37-3,8.89,8.89,0,0,1,.37-3,3.49,3.49,0,0,1,3.63-2.53,3.22,3.22,0,0,1,3,1.45h0V28.22a.21.21,0,0,1,.22-.22h1.41a.21.21,0,0,1,.22.22V42.74a.21.21,0,0,1-.22.22Zm-.46-3.08a6.92,6.92,0,0,0,.24-2.2,7.08,7.08,0,0,0-.24-2.2,2.5,2.5,0,0,0-4.65,0,7.69,7.69,0,0,0-.24,2.2,7.51,7.51,0,0,0,.24,2.2,2.48,2.48,0,0,0,4.65,0Z"/><path d="M218.15,40.34a8.25,8.25,0,0,1-.35-2.66,8.17,8.17,0,0,1,.33-2.66,4.43,4.43,0,0,1,8.27,0,9.18,9.18,0,0,1,.33,3,.21.21,0,0,1-.24.22h-6.67c-.09,0-.13,0-.13.14a3.93,3.93,0,0,0,.17,1.27,2.62,2.62,0,0,0,2.67,1.83,3.43,3.43,0,0,0,2.7-1.17.22.22,0,0,1,.33,0l.9.81a.21.21,0,0,1,0,.31,5.13,5.13,0,0,1-4.12,1.8A4.07,4.07,0,0,1,218.15,40.34Zm6.55-3.56a.12.12,0,0,0,.14-.13,3.68,3.68,0,0,0-.16-1.19,2.6,2.6,0,0,0-4.84,0,3.71,3.71,0,0,0-.15,1.19.12.12,0,0,0,.13.13Z"/><path d="M231.35,43.07c-1.85,0-2.58-.88-2.58-2.77V28.22A.21.21,0,0,1,229,28h1.41a.21.21,0,0,1,.22.22v12c0,.88.33,1.17,1.06,1.17h.42a.2.2,0,0,1,.22.22v1.27a.21.21,0,0,1-.22.22Z"/><path d="M241,43.07c-1.85,0-2.57-.88-2.57-2.77V28.22a.21.21,0,0,1,.22-.22H240a.21.21,0,0,1,.22.22v12c0,.88.33,1.17,1,1.17h.42a.2.2,0,0,1,.22.22v1.27a.21.21,0,0,1-.22.22Z"/><path d="M250.27,43a.21.21,0,0,1-.22-.22v-1h0a3.22,3.22,0,0,1-2.89,1.45c-2.31,0-3.65-1.58-3.65-4V32.64a.21.21,0,0,1,.22-.22h1.41a.21.21,0,0,1,.22.22v6.14c0,1.72.77,2.71,2.33,2.71a2.34,2.34,0,0,0,2.38-2.6V32.64a.21.21,0,0,1,.22-.22h1.41a.21.21,0,0,1,.22.22v10.1a.21.21,0,0,1-.22.22Z"/><path d="M254.4,45.6a.2.2,0,0,1,0-.31l.91-.9a.21.21,0,0,1,.33,0,3.5,3.5,0,0,0,2.48,1.06c1.74,0,2.67-.9,2.67-2.84V41.38h0a3,3,0,0,1-2.92,1.45,3.46,3.46,0,0,1-3.55-2.55,8.34,8.34,0,0,1-.35-2.77,8.36,8.36,0,0,1,.35-2.78,3.46,3.46,0,0,1,3.55-2.55,3,3,0,0,1,2.92,1.45h0v-1a.2.2,0,0,1,.22-.22h1.4a.2.2,0,0,1,.22.22V42.5c0,3-1.62,4.66-4.59,4.66A4.76,4.76,0,0,1,254.4,45.6Zm6.16-6.05a6.24,6.24,0,0,0,.25-2,6.34,6.34,0,0,0-.25-2,2.37,2.37,0,0,0-4.46,0,6.48,6.48,0,0,0-.27,2,6.37,6.37,0,0,0,.27,2,2.14,2.14,0,0,0,2.22,1.59A2.17,2.17,0,0,0,260.56,39.55Z"/><path d="M271.76,43a.21.21,0,0,1-.22-.22v-.92h0a3.45,3.45,0,0,1-3.12,1.38c-2,0-3.55-1-3.55-3.16s1.54-3.26,4.12-3.26h2.4a.12.12,0,0,0,.13-.13v-.77c0-1.46-.57-2.07-2.53-2.07a4.13,4.13,0,0,0-2.56.75c-.11.09-.24.09-.3,0l-.6-1a.24.24,0,0,1,.05-.31,5.87,5.87,0,0,1,3.58-1c3,0,4.14,1,4.14,3.59v7a.21.21,0,0,1-.22.22Zm-.26-3.41V38.39a.12.12,0,0,0-.13-.14h-2.12c-1.82,0-2.62.53-2.62,1.72s.8,1.65,2.2,1.65C270.49,41.62,271.5,40.85,271.5,39.55Z"/><path d="M276.14,43a.21.21,0,0,1-.22-.22V32.64a.21.21,0,0,1,.22-.22h1.41a.21.21,0,0,1,.22.22v1.08h0a2.93,2.93,0,0,1,2.79-1.54,3.26,3.26,0,0,1,2.16.79c.11.11.13.2,0,.31L282,34.36a.2.2,0,0,1-.31,0,2.93,2.93,0,0,0-1.63-.5c-1.6,0-2.26,1.25-2.26,3.08v5.76a.21.21,0,0,1-.22.22Z"/><path d="M291,43.07c-1.85,0-2.58-.88-2.58-2.77V28.22a.21.21,0,0,1,.22-.22H290a.21.21,0,0,1,.22.22v12c0,.88.33,1.17,1.06,1.17h.42a.2.2,0,0,1,.22.22v1.27a.21.21,0,0,1-.22.22Z"/><path d="M293.39,40.34a8.2,8.2,0,0,1-.36-2.66,8.17,8.17,0,0,1,.33-2.66,4.44,4.44,0,0,1,8.28,0,9.18,9.18,0,0,1,.33,3c0,.14-.09.22-.25.22h-6.66c-.09,0-.13,0-.13.14a3.93,3.93,0,0,0,.17,1.27,2.61,2.61,0,0,0,2.66,1.83,3.44,3.44,0,0,0,2.71-1.17.22.22,0,0,1,.33,0l.9.81a.2.2,0,0,1,0,.31,5.09,5.09,0,0,1-4.11,1.8A4.07,4.07,0,0,1,293.39,40.34Zm6.55-3.56a.12.12,0,0,0,.13-.13,3.71,3.71,0,0,0-.15-1.19,2.6,2.6,0,0,0-4.84,0,3.71,3.71,0,0,0-.15,1.19.12.12,0,0,0,.13.13Z"/><path d="M310.9,43a.21.21,0,0,1-.22-.22V36.58c0-1.69-.77-2.68-2.36-2.68a2.36,2.36,0,0,0-2.42,2.57v6.27a.2.2,0,0,1-.22.22h-1.4a.2.2,0,0,1-.22-.22V32.64a.2.2,0,0,1,.22-.22h1.4a.2.2,0,0,1,.22.22v1h0a3.32,3.32,0,0,1,2.94-1.43c2.29,0,3.66,1.56,3.66,4v6.6a.21.21,0,0,1-.22.22Z"/><path d="M318.2,43.07c-2.05,0-2.84-.92-2.84-3v-6c0-.09,0-.13-.13-.13h-.88a.21.21,0,0,1-.22-.22V32.64a.21.21,0,0,1,.22-.22h.88c.09,0,.13,0,.13-.13v-3a.21.21,0,0,1,.22-.22H317a.21.21,0,0,1,.22.22v3c0,.09,0,.13.13.13H319a.21.21,0,0,1,.22.22V33.7a.21.21,0,0,1-.22.22h-1.68c-.09,0-.13,0-.13.13v6c0,1.06.4,1.35,1.34,1.35H319a.2.2,0,0,1,.22.22v1.27a.21.21,0,0,1-.22.22Z"/><path d="M327.6,43a.2.2,0,0,1-.22-.22v-.92h0a3.45,3.45,0,0,1-3.12,1.38c-2,0-3.54-1-3.54-3.16s1.54-3.26,4.11-3.26h2.4a.12.12,0,0,0,.13-.13v-.77c0-1.46-.57-2.07-2.53-2.07a4.07,4.07,0,0,0-2.55.75.19.19,0,0,1-.31,0l-.59-1a.23.23,0,0,1,0-.31,5.88,5.88,0,0,1,3.59-1c3,0,4.13,1,4.13,3.59v7a.2.2,0,0,1-.22.22Zm-.27-3.41V38.39c0-.09,0-.14-.13-.14h-2.11c-1.83,0-2.62.53-2.62,1.72s.79,1.65,2.2,1.65C326.32,41.62,327.33,40.85,327.33,39.55Z"/><path d="M345.22,43a.21.21,0,0,1-.22-.22V36.58c0-1.69-.77-2.68-2.36-2.68a2.38,2.38,0,0,0-2.42,2.57v6.27A.2.2,0,0,1,340,43h-1.4a.2.2,0,0,1-.22-.22V36.58c0-1.69-.77-2.68-2.36-2.68a2.36,2.36,0,0,0-2.42,2.57v6.27a.21.21,0,0,1-.22.22H332a.21.21,0,0,1-.22-.22V32.64a.21.21,0,0,1,.22-.22h1.41a.21.21,0,0,1,.22.22v1h0a3.35,3.35,0,0,1,2.95-1.43,3.3,3.3,0,0,1,3.08,1.65h0a3.94,3.94,0,0,1,3.41-1.65c2.45,0,3.77,1.56,3.77,4v6.6a.21.21,0,0,1-.22.22Z"/><path d="M349.18,40.34a8.2,8.2,0,0,1-.36-2.66,8.17,8.17,0,0,1,.33-2.66,4.44,4.44,0,0,1,8.28,0,9.18,9.18,0,0,1,.33,3,.21.21,0,0,1-.24.22h-6.67c-.09,0-.13,0-.13.14a3.93,3.93,0,0,0,.17,1.27,2.62,2.62,0,0,0,2.67,1.83,3.43,3.43,0,0,0,2.7-1.17.22.22,0,0,1,.33,0l.9.81a.21.21,0,0,1,0,.31,5.13,5.13,0,0,1-4.12,1.8A4.07,4.07,0,0,1,349.18,40.34Zm6.55-3.56a.12.12,0,0,0,.14-.13,3.68,3.68,0,0,0-.16-1.19,2.6,2.6,0,0,0-4.84,0,3.71,3.71,0,0,0-.15,1.19.12.12,0,0,0,.13.13Z"/><path d="M366.69,43a.21.21,0,0,1-.22-.22V36.58c0-1.69-.77-2.68-2.36-2.68a2.36,2.36,0,0,0-2.42,2.57v6.27a.2.2,0,0,1-.22.22h-1.4a.2.2,0,0,1-.22-.22V32.64a.2.2,0,0,1,.22-.22h1.4a.2.2,0,0,1,.22.22v1h0a3.32,3.32,0,0,1,2.94-1.43c2.29,0,3.66,1.56,3.66,4v6.6a.21.21,0,0,1-.22.22Z"/><path d="M374,43.07c-2,0-2.84-.92-2.84-3v-6c0-.09,0-.13-.13-.13h-.88a.21.21,0,0,1-.22-.22V32.64a.21.21,0,0,1,.22-.22H371c.09,0,.13,0,.13-.13v-3a.21.21,0,0,1,.22-.22h1.41a.21.21,0,0,1,.22.22v3a.12.12,0,0,0,.13.13h1.68a.21.21,0,0,1,.22.22V33.7a.21.21,0,0,1-.22.22h-1.68a.12.12,0,0,0-.13.13v6c0,1.06.4,1.35,1.34,1.35h.47a.2.2,0,0,1,.22.22v1.27a.21.21,0,0,1-.22.22Z"/><path d="M376.72,40.34a8.25,8.25,0,0,1-.35-2.66A8.17,8.17,0,0,1,376.7,35,4.43,4.43,0,0,1,385,35a9.18,9.18,0,0,1,.33,3,.21.21,0,0,1-.24.22h-6.67c-.09,0-.13,0-.13.14a3.9,3.9,0,0,0,.18,1.27,2.6,2.6,0,0,0,2.66,1.83,3.43,3.43,0,0,0,2.7-1.17.22.22,0,0,1,.33,0l.91.81a.2.2,0,0,1,0,.31,5.13,5.13,0,0,1-4.12,1.8A4.07,4.07,0,0,1,376.72,40.34Zm6.56-3.56a.12.12,0,0,0,.13-.13,3.68,3.68,0,0,0-.16-1.19,2.6,2.6,0,0,0-4.84,0,3.71,3.71,0,0,0-.15,1.19.12.12,0,0,0,.13.13Z"/><path d="M387.35,40.63h1.54a.21.21,0,0,1,.22.22v2a.69.69,0,0,1-.14.48l-1.36,1.8a.36.36,0,0,1-.29.16.19.19,0,0,1-.19-.2V40.85A.2.2,0,0,1,387.35,40.63Z"/><path d="M402.35,43a.21.21,0,0,1-.22-.22V36.58c0-1.69-.77-2.68-2.35-2.68a2.37,2.37,0,0,0-2.43,2.57v6.27a.2.2,0,0,1-.21.22h-1.41a.2.2,0,0,1-.22-.22V32.64a.2.2,0,0,1,.22-.22h1.41a.2.2,0,0,1,.21.22v1h0a3.34,3.34,0,0,1,2.95-1.43c2.28,0,3.65,1.56,3.65,4v6.6a.21.21,0,0,1-.22.22Z"/><path d="M406.31,40.37a8,8,0,0,1-.35-2.69,7.92,7.92,0,0,1,.35-2.66,4.47,4.47,0,0,1,8.32,0,7.92,7.92,0,0,1,.35,2.66,8,8,0,0,1-.35,2.69,4.47,4.47,0,0,1-8.32,0Zm6.53-.53a6.77,6.77,0,0,0,.25-2.16,6.57,6.57,0,0,0-.25-2.13,2.53,2.53,0,0,0-4.75,0,6.91,6.91,0,0,0-.24,2.13,7.13,7.13,0,0,0,.24,2.16,2.53,2.53,0,0,0,4.75,0Z"/><path d="M424.52,43.07c-2,0-2.83-.92-2.83-3v-6c0-.09-.05-.13-.14-.13h-.88a.21.21,0,0,1-.22-.22V32.64a.21.21,0,0,1,.22-.22h.88c.09,0,.14,0,.14-.13v-3a.2.2,0,0,1,.22-.22h1.4a.2.2,0,0,1,.22.22v3c0,.09.05.13.14.13h1.67a.21.21,0,0,1,.22.22V33.7a.21.21,0,0,1-.22.22h-1.67c-.09,0-.14,0-.14.13v6c0,1.06.4,1.35,1.35,1.35h.46a.2.2,0,0,1,.22.22v1.27a.21.21,0,0,1-.22.22Z"/><path d="M427.76,43a.21.21,0,0,1-.22-.22V32.64a.21.21,0,0,1,.22-.22h1.41a.21.21,0,0,1,.22.22v1.08h0a2.93,2.93,0,0,1,2.79-1.54,3.26,3.26,0,0,1,2.16.79c.11.11.13.2,0,.31l-.81,1.08a.2.2,0,0,1-.31,0,2.93,2.93,0,0,0-1.63-.5c-1.6,0-2.26,1.25-2.26,3.08v5.76a.21.21,0,0,1-.22.22Z"/><path d="M441.53,43a.21.21,0,0,1-.22-.22v-.92h0a3.47,3.47,0,0,1-3.13,1.38c-2,0-3.54-1-3.54-3.16s1.54-3.26,4.12-3.26h2.39a.12.12,0,0,0,.14-.13v-.77c0-1.46-.58-2.07-2.53-2.07a4.13,4.13,0,0,0-2.56.75c-.11.09-.24.09-.3,0l-.6-1a.24.24,0,0,1,.05-.31,5.87,5.87,0,0,1,3.58-1c3,0,4.14,1,4.14,3.59v7a.21.21,0,0,1-.22.22Zm-.26-3.41V38.39a.13.13,0,0,0-.14-.14H439c-1.82,0-2.62.53-2.62,1.72s.8,1.65,2.2,1.65C440.25,41.62,441.27,40.85,441.27,39.55Z"/><path d="M448.75,43.07c-2.05,0-2.84-.92-2.84-3v-6a.12.12,0,0,0-.13-.13h-.88a.2.2,0,0,1-.22-.22V32.64a.2.2,0,0,1,.22-.22h.88a.12.12,0,0,0,.13-.13v-3a.21.21,0,0,1,.22-.22h1.41a.21.21,0,0,1,.22.22v3c0,.09,0,.13.13.13h1.67a.21.21,0,0,1,.22.22V33.7a.21.21,0,0,1-.22.22h-1.67c-.09,0-.13,0-.13.13v6c0,1.06.39,1.35,1.34,1.35h.46a.2.2,0,0,1,.22.22v1.27a.21.21,0,0,1-.22.22Z"/><path d="M451.47,40.34a8.25,8.25,0,0,1-.35-2.66,8.17,8.17,0,0,1,.33-2.66,4.43,4.43,0,0,1,8.27,0,9.18,9.18,0,0,1,.33,3c0,.14-.08.22-.24.22h-6.66a.13.13,0,0,0-.14.14,3.9,3.9,0,0,0,.18,1.27,2.6,2.6,0,0,0,2.66,1.83,3.44,3.44,0,0,0,2.71-1.17.22.22,0,0,1,.33,0l.9.81a.2.2,0,0,1,0,.31,5.09,5.09,0,0,1-4.11,1.8A4.07,4.07,0,0,1,451.47,40.34ZM458,36.78a.12.12,0,0,0,.13-.13,3.71,3.71,0,0,0-.15-1.19,2.6,2.6,0,0,0-4.84,0,3.68,3.68,0,0,0-.16,1.19.12.12,0,0,0,.14.13Z"/><path d="M473.14,43a.21.21,0,0,1-.22-.22v-1h0a3.19,3.19,0,0,1-3,1.47,3.47,3.47,0,0,1-3.63-2.53,8.62,8.62,0,0,1-.38-3,8.61,8.61,0,0,1,.38-3,3.48,3.48,0,0,1,3.63-2.53,3.2,3.2,0,0,1,3,1.45h0V28.22a.21.21,0,0,1,.22-.22h1.41a.21.21,0,0,1,.22.22V42.74a.21.21,0,0,1-.22.22Zm-.46-3.08a6.63,6.63,0,0,0,.24-2.2,6.79,6.79,0,0,0-.24-2.2,2.49,2.49,0,0,0-4.64,0,7.35,7.35,0,0,0-.24,2.2,7.18,7.18,0,0,0,.24,2.2,2.48,2.48,0,0,0,4.64,0Z"/><path d="M477.21,40.34a8.25,8.25,0,0,1-.35-2.66,8.17,8.17,0,0,1,.33-2.66,4.43,4.43,0,0,1,8.27,0,9.18,9.18,0,0,1,.33,3c0,.14-.08.22-.24.22h-6.67a.12.12,0,0,0-.13.14,3.9,3.9,0,0,0,.18,1.27,2.6,2.6,0,0,0,2.66,1.83,3.44,3.44,0,0,0,2.71-1.17.22.22,0,0,1,.33,0l.9.81a.2.2,0,0,1,0,.31,5.09,5.09,0,0,1-4.11,1.8A4.07,4.07,0,0,1,477.21,40.34Zm6.56-3.56a.12.12,0,0,0,.13-.13,3.71,3.71,0,0,0-.15-1.19,2.6,2.6,0,0,0-4.84,0,3.68,3.68,0,0,0-.16,1.19.12.12,0,0,0,.13.13Z"/><path d="M498.66,43a.21.21,0,0,1-.22-.22v-.92h0a3.45,3.45,0,0,1-3.12,1.38c-2,0-3.55-1-3.55-3.16s1.54-3.26,4.12-3.26h2.4a.12.12,0,0,0,.13-.13v-.77c0-1.46-.57-2.07-2.53-2.07a4.07,4.07,0,0,0-2.55.75c-.11.09-.25.09-.31,0l-.6-1a.24.24,0,0,1,0-.31,5.87,5.87,0,0,1,3.58-1c3,0,4.14,1,4.14,3.59v7A.21.21,0,0,1,500,43Zm-.26-3.41V38.39a.12.12,0,0,0-.13-.14h-2.12c-1.82,0-2.61.53-2.61,1.72s.79,1.65,2.2,1.65C497.39,41.62,498.4,40.85,498.4,39.55Z"/><path d="M505.88,43.07c-2.05,0-2.84-.92-2.84-3v-6c0-.09,0-.13-.13-.13H502a.21.21,0,0,1-.22-.22V32.64a.21.21,0,0,1,.22-.22h.88c.09,0,.13,0,.13-.13v-3a.21.21,0,0,1,.22-.22h1.41a.21.21,0,0,1,.22.22v3c0,.09,0,.13.13.13h1.67a.21.21,0,0,1,.22.22V33.7a.21.21,0,0,1-.22.22H505c-.09,0-.13,0-.13.13v6c0,1.06.39,1.35,1.34,1.35h.46a.2.2,0,0,1,.22.22v1.27a.21.21,0,0,1-.22.22Z"/><path d="M509.11,43a.21.21,0,0,1-.22-.22V32.64a.21.21,0,0,1,.22-.22h1.41a.21.21,0,0,1,.22.22v1.08h0a2.94,2.94,0,0,1,2.8-1.54,3.26,3.26,0,0,1,2.15.79c.11.11.13.2,0,.31l-.82,1.08a.2.2,0,0,1-.31,0,2.93,2.93,0,0,0-1.62-.5c-1.61,0-2.27,1.25-2.27,3.08v5.76a.21.21,0,0,1-.22.22Z"/><path d="M522.88,43a.21.21,0,0,1-.22-.22v-.92h0a3.45,3.45,0,0,1-3.12,1.38c-2,0-3.54-1-3.54-3.16s1.54-3.26,4.11-3.26h2.4a.12.12,0,0,0,.13-.13v-.77c0-1.46-.57-2.07-2.53-2.07a4.07,4.07,0,0,0-2.55.75.19.19,0,0,1-.31,0l-.59-1a.23.23,0,0,1,0-.31,5.88,5.88,0,0,1,3.59-1c3,0,4.13,1,4.13,3.59v7a.21.21,0,0,1-.22.22Zm-.26-3.41V38.39c0-.09,0-.14-.13-.14h-2.11c-1.83,0-2.62.53-2.62,1.72s.79,1.65,2.2,1.65C521.61,41.62,522.62,40.85,522.62,39.55Z"/><path d="M527.26,46.92a.21.21,0,0,1-.22-.22V32.64a.21.21,0,0,1,.22-.22h1.41a.21.21,0,0,1,.22.22v1h0a3.21,3.21,0,0,1,3-1.45,3.48,3.48,0,0,1,3.63,2.53,8.61,8.61,0,0,1,.38,3,8.62,8.62,0,0,1-.38,3,3.47,3.47,0,0,1-3.63,2.53,3.2,3.2,0,0,1-3-1.47h0v5a.21.21,0,0,1-.22.22Zm6.51-7a7.14,7.14,0,0,0,.25-2.2,7.3,7.3,0,0,0-.25-2.2,2.49,2.49,0,0,0-4.64,0,7.08,7.08,0,0,0-.24,2.2,6.92,6.92,0,0,0,.24,2.2,2.48,2.48,0,0,0,4.64,0Z"/><path d="M544.38,43a.21.21,0,0,1-.22-.22v-.92h0A3.47,3.47,0,0,1,541,43.2c-2,0-3.54-1-3.54-3.16s1.54-3.26,4.11-3.26H544a.12.12,0,0,0,.13-.13v-.77c0-1.46-.57-2.07-2.53-2.07a4.12,4.12,0,0,0-2.55.75.19.19,0,0,1-.31,0l-.59-1a.23.23,0,0,1,0-.31,5.92,5.92,0,0,1,3.59-1c3,0,4.14,1,4.14,3.59v7a.21.21,0,0,1-.22.22Zm-.27-3.41V38.39c0-.09,0-.14-.13-.14h-2.11c-1.83,0-2.62.53-2.62,1.72s.79,1.65,2.2,1.65C543.1,41.62,544.11,40.85,544.11,39.55Z"/><path d="M548.76,43a.2.2,0,0,1-.22-.22V32.64a.2.2,0,0,1,.22-.22h1.4a.2.2,0,0,1,.22.22v1.08h0a2.93,2.93,0,0,1,2.79-1.54,3.26,3.26,0,0,1,2.16.79c.11.11.13.2,0,.31l-.81,1.08a.2.2,0,0,1-.31,0,3,3,0,0,0-1.63-.5c-1.61,0-2.27,1.25-2.27,3.08v5.76a.2.2,0,0,1-.22.22Z"/><path d="M559.21,43.07c-1.85,0-2.58-.88-2.58-2.77V28.22a.21.21,0,0,1,.22-.22h1.41a.21.21,0,0,1,.22.22v12c0,.88.33,1.17,1.06,1.17H560a.2.2,0,0,1,.22.22v1.27a.2.2,0,0,1-.22.22Z"/><path d="M561.6,40.37a8,8,0,0,1-.35-2.69A7.92,7.92,0,0,1,561.6,35a4.47,4.47,0,0,1,8.32,0,7.92,7.92,0,0,1,.35,2.66,8,8,0,0,1-.35,2.69,4.47,4.47,0,0,1-8.32,0Zm6.54-.53a7.13,7.13,0,0,0,.24-2.16,6.91,6.91,0,0,0-.24-2.13,2.54,2.54,0,0,0-4.76,0,6.91,6.91,0,0,0-.24,2.13,7.13,7.13,0,0,0,.24,2.16,2.54,2.54,0,0,0,4.76,0Z"/><path d="M572.32,40.63h1.54a.21.21,0,0,1,.22.22v2a.69.69,0,0,1-.14.48l-1.36,1.8a.36.36,0,0,1-.29.16.19.19,0,0,1-.19-.2V40.85A.2.2,0,0,1,572.32,40.63Z"/><path d="M587.1,43a.21.21,0,0,1-.22-.22v-1h0A3.21,3.21,0,0,1,584,43.2c-2.31,0-3.66-1.58-3.66-4V32.64a.21.21,0,0,1,.22-.22H582a.21.21,0,0,1,.22.22v6.14c0,1.72.77,2.71,2.33,2.71a2.34,2.34,0,0,0,2.38-2.6V32.64a.21.21,0,0,1,.22-.22h1.41a.21.21,0,0,1,.22.22v10.1a.21.21,0,0,1-.22.22Z"/><path d="M590.73,41.62a.21.21,0,0,1,0-.31l.9-1a.23.23,0,0,1,.31,0,5.07,5.07,0,0,0,3.26,1.21c1.54,0,2.31-.66,2.31-1.6s-.4-1.3-2-1.48l-1.12-.11c-2.07-.22-3.15-1.25-3.15-3,0-2,1.43-3.21,3.92-3.21a6.3,6.3,0,0,1,3.74,1.17c.11.06.11.19,0,.3l-.75,1a.21.21,0,0,1-.3,0,5.48,5.48,0,0,0-2.84-.86c-1.32,0-2,.59-2,1.45s.5,1.28,2.06,1.43l1.1.11c2.14.2,3.17,1.28,3.17,3,0,2.07-1.49,3.45-4.24,3.45A6.55,6.55,0,0,1,590.73,41.62Z"/><path d="M601.07,40.34a8.25,8.25,0,0,1-.35-2.66,8.17,8.17,0,0,1,.33-2.66,4.43,4.43,0,0,1,8.27,0,9.18,9.18,0,0,1,.33,3,.21.21,0,0,1-.24.22h-6.67c-.09,0-.13,0-.13.14a3.9,3.9,0,0,0,.18,1.27,2.6,2.6,0,0,0,2.66,1.83,3.43,3.43,0,0,0,2.7-1.17.22.22,0,0,1,.33,0l.91.81a.2.2,0,0,1,0,.31,5.13,5.13,0,0,1-4.12,1.8A4.07,4.07,0,0,1,601.07,40.34Zm6.56-3.56a.12.12,0,0,0,.13-.13,3.68,3.68,0,0,0-.16-1.19,2.6,2.6,0,0,0-4.84,0,3.71,3.71,0,0,0-.15,1.19.12.12,0,0,0,.13.13Z"/><path d="M.07,69.62a.21.21,0,0,1,0-.31l.9-1a.23.23,0,0,1,.31,0,5.07,5.07,0,0,0,3.25,1.21c1.54,0,2.31-.66,2.31-1.6s-.39-1.3-2-1.48l-1.13-.11c-2.06-.22-3.14-1.25-3.14-3,0-2,1.43-3.21,3.91-3.21a6.34,6.34,0,0,1,3.75,1.17.22.22,0,0,1,0,.3l-.75,1a.22.22,0,0,1-.31,0,5.45,5.45,0,0,0-2.84-.86c-1.32,0-2,.59-2,1.45s.51,1.28,2.07,1.43l1.1.11c2.14.2,3.17,1.28,3.17,3,0,2.07-1.5,3.45-4.25,3.45A6.52,6.52,0,0,1,.07,69.62Z"/><path d="M10.87,58.05a.21.21,0,0,1-.22-.22V56.22a.21.21,0,0,1,.22-.22h1.49a.2.2,0,0,1,.22.22v1.61a.2.2,0,0,1-.22.22Zm0,12.91a.21.21,0,0,1-.22-.22V60.64a.21.21,0,0,1,.22-.22h1.41a.21.21,0,0,1,.22.22v10.1a.21.21,0,0,1-.22.22Z"/><path d="M15,68.34A10.58,10.58,0,0,1,15,63a4.07,4.07,0,0,1,4.14-2.84A4.07,4.07,0,0,1,23.23,63a9.18,9.18,0,0,1,.33,3,.21.21,0,0,1-.24.22H16.65a.12.12,0,0,0-.13.14,3.9,3.9,0,0,0,.18,1.27,2.6,2.6,0,0,0,2.66,1.83,3.47,3.47,0,0,0,2.71-1.17.22.22,0,0,1,.33,0l.9.81a.2.2,0,0,1,0,.31,5.12,5.12,0,0,1-4.11,1.8A4.07,4.07,0,0,1,15,68.34Zm6.56-3.56a.12.12,0,0,0,.13-.13,3.71,3.71,0,0,0-.15-1.19,2.39,2.39,0,0,0-2.42-1.65,2.37,2.37,0,0,0-2.42,1.65,3.68,3.68,0,0,0-.16,1.19.12.12,0,0,0,.13.13Z"/><path d="M39.12,71a.2.2,0,0,1-.22-.22V64.58c0-1.69-.77-2.68-2.36-2.68a2.37,2.37,0,0,0-2.42,2.57v6.27a.21.21,0,0,1-.22.22H32.49a.21.21,0,0,1-.22-.22V64.58c0-1.69-.77-2.68-2.35-2.68a2.36,2.36,0,0,0-2.42,2.57v6.27a.21.21,0,0,1-.22.22H25.87a.21.21,0,0,1-.22-.22V60.64a.21.21,0,0,1,.22-.22h1.41a.21.21,0,0,1,.22.22v1h0a3.35,3.35,0,0,1,2.95-1.43,3.3,3.3,0,0,1,3.08,1.65h0A3.94,3.94,0,0,1,37,60.18c2.44,0,3.77,1.56,3.77,4v6.6a.21.21,0,0,1-.23.22Z"/><path d="M43.58,74.92a.21.21,0,0,1-.22-.22V60.64a.21.21,0,0,1,.22-.22H45a.21.21,0,0,1,.22.22v1h0a3.21,3.21,0,0,1,3-1.45,3.48,3.48,0,0,1,3.63,2.53,8.61,8.61,0,0,1,.38,3,8.62,8.62,0,0,1-.38,3,3.47,3.47,0,0,1-3.63,2.53,3.2,3.2,0,0,1-3-1.47h0v5a.21.21,0,0,1-.22.22Zm6.51-7a7.14,7.14,0,0,0,.25-2.2,7.3,7.3,0,0,0-.25-2.2,2.49,2.49,0,0,0-4.64,0,7.08,7.08,0,0,0-.24,2.2,6.92,6.92,0,0,0,.24,2.2,2.48,2.48,0,0,0,4.64,0Z"/><path d="M54.54,71a.2.2,0,0,1-.22-.22V60.64a.2.2,0,0,1,.22-.22H56a.21.21,0,0,1,.22.22v1.08h0A2.93,2.93,0,0,1,59,60.18a3.26,3.26,0,0,1,2.16.79c.11.11.13.2,0,.31l-.81,1.08a.2.2,0,0,1-.31,0,2.93,2.93,0,0,0-1.63-.5c-1.6,0-2.26,1.25-2.26,3.08v5.76A.21.21,0,0,1,56,71Z"/><path d="M61.77,68.34a10.58,10.58,0,0,1,0-5.32A4.44,4.44,0,0,1,70,63a9.18,9.18,0,0,1,.33,3c0,.14-.09.22-.25.22H63.45a.13.13,0,0,0-.14.14,3.9,3.9,0,0,0,.18,1.27,2.6,2.6,0,0,0,2.66,1.83,3.44,3.44,0,0,0,2.71-1.17.22.22,0,0,1,.33,0l.9.81a.2.2,0,0,1,0,.31A5.09,5.09,0,0,1,66,71.2,4.08,4.08,0,0,1,61.77,68.34Zm6.56-3.56a.12.12,0,0,0,.13-.13,3.71,3.71,0,0,0-.15-1.19,2.6,2.6,0,0,0-4.84,0,3.68,3.68,0,0,0-.16,1.19.12.12,0,0,0,.14.13Z"/><path d="M77.06,71a.21.21,0,0,1-.22-.22V56.22a.21.21,0,0,1,.22-.22h1.41a.21.21,0,0,1,.22.22v5.41h0a3.22,3.22,0,0,1,3-1.45,3.49,3.49,0,0,1,3.63,2.53,8.89,8.89,0,0,1,.37,3,8.9,8.9,0,0,1-.37,3,3.48,3.48,0,0,1-3.63,2.53,3.21,3.21,0,0,1-3-1.47h0v1a.21.21,0,0,1-.22.22Zm6.52-3.08a7.51,7.51,0,0,0,.24-2.2,7.69,7.69,0,0,0-.24-2.2,2.5,2.5,0,0,0-4.65,0,7.08,7.08,0,0,0-.24,2.2,6.92,6.92,0,0,0,.24,2.2,2.48,2.48,0,0,0,4.65,0Z"/><path d="M87.51,68.37a8,8,0,0,1-.35-2.69A7.88,7.88,0,0,1,87.51,63a4.47,4.47,0,0,1,8.32,0,7.88,7.88,0,0,1,.35,2.66,8,8,0,0,1-.35,2.69,4.47,4.47,0,0,1-8.32,0Zm6.54-.53a7.13,7.13,0,0,0,.24-2.16,6.91,6.91,0,0,0-.24-2.13,2.53,2.53,0,0,0-4.75,0,6.57,6.57,0,0,0-.25,2.13,6.77,6.77,0,0,0,.25,2.16,2.53,2.53,0,0,0,4.75,0Z"/><path d="M101.33,71.07c-2,0-2.84-.92-2.84-3v-6c0-.09,0-.13-.13-.13h-.88a.21.21,0,0,1-.22-.22V60.64a.21.21,0,0,1,.22-.22h.88c.09,0,.13,0,.13-.13v-3a.21.21,0,0,1,.22-.22h1.41a.21.21,0,0,1,.22.22v3c0,.09,0,.13.13.13h1.67a.2.2,0,0,1,.22.22V61.7a.2.2,0,0,1-.22.22h-1.67c-.09,0-.13,0-.13.13v6c0,1.06.4,1.35,1.34,1.35h.46a.2.2,0,0,1,.22.22v1.27a.2.2,0,0,1-.22.22Z"/><path d="M110.72,71a.21.21,0,0,1-.22-.22v-.92h0a3.45,3.45,0,0,1-3.12,1.38c-2,0-3.55-1-3.55-3.16s1.54-3.26,4.12-3.26h2.4a.12.12,0,0,0,.13-.13v-.77c0-1.46-.57-2.07-2.53-2.07a4.07,4.07,0,0,0-2.55.75c-.11.09-.25.09-.31,0l-.6-1a.24.24,0,0,1,0-.31,5.88,5.88,0,0,1,3.59-1c3,0,4.13,1,4.13,3.59v7A.21.21,0,0,1,112,71Zm-.26-3.41V66.39c0-.09,0-.14-.13-.14h-2.11c-1.83,0-2.62.53-2.62,1.72s.79,1.65,2.2,1.65C109.45,69.62,110.46,68.85,110.46,67.55Z"/><path d="M114.15,69.62a.23.23,0,0,1,0-.31l.91-1a.23.23,0,0,1,.31,0,5.07,5.07,0,0,0,3.25,1.21c1.54,0,2.31-.66,2.31-1.6s-.39-1.3-2-1.48l-1.13-.11c-2.07-.22-3.14-1.25-3.14-3,0-2,1.43-3.21,3.91-3.21a6.3,6.3,0,0,1,3.74,1.17.21.21,0,0,1,0,.3l-.75,1a.22.22,0,0,1-.31,0,5.45,5.45,0,0,0-2.84-.86c-1.32,0-2,.59-2,1.45s.51,1.28,2.07,1.43l1.1.11c2.13.2,3.17,1.28,3.17,3,0,2.07-1.5,3.45-4.25,3.45A6.57,6.57,0,0,1,114.15,69.62Z"/><path d="M135.78,71a.21.21,0,0,1-.22-.22v-1h0a3.2,3.2,0,0,1-3,1.47,3.47,3.47,0,0,1-3.63-2.53,8.62,8.62,0,0,1-.38-3,8.61,8.61,0,0,1,.38-3,3.48,3.48,0,0,1,3.63-2.53,3.21,3.21,0,0,1,3,1.45h0V56.22a.21.21,0,0,1,.22-.22h1.41a.21.21,0,0,1,.22.22V70.74a.21.21,0,0,1-.22.22Zm-.46-3.08a6.63,6.63,0,0,0,.24-2.2,6.79,6.79,0,0,0-.24-2.2,2.49,2.49,0,0,0-4.64,0,7.35,7.35,0,0,0-.24,2.2,7.18,7.18,0,0,0,.24,2.2,2.48,2.48,0,0,0,4.64,0Z"/><path d="M139.85,68.34a10.58,10.58,0,0,1,0-5.32,4.43,4.43,0,0,1,8.27,0,9.18,9.18,0,0,1,.33,3,.21.21,0,0,1-.24.22h-6.67c-.09,0-.13,0-.13.14a3.9,3.9,0,0,0,.18,1.27,2.6,2.6,0,0,0,2.66,1.83,3.47,3.47,0,0,0,2.71-1.17.22.22,0,0,1,.33,0l.9.81a.2.2,0,0,1,0,.31,5.13,5.13,0,0,1-4.12,1.8A4.07,4.07,0,0,1,139.85,68.34Zm6.56-3.56a.12.12,0,0,0,.13-.13,3.71,3.71,0,0,0-.15-1.19,2.61,2.61,0,0,0-4.85,0,3.71,3.71,0,0,0-.15,1.19.12.12,0,0,0,.13.13Z"/><path d="M154.19,69.62a.23.23,0,0,1,0-.31l.91-1a.22.22,0,0,1,.3,0,5.1,5.1,0,0,0,3.26,1.21c1.54,0,2.31-.66,2.31-1.6s-.4-1.3-2.05-1.48l-1.12-.11c-2.07-.22-3.14-1.25-3.14-3,0-2,1.43-3.21,3.91-3.21a6.3,6.3,0,0,1,3.74,1.17.21.21,0,0,1,.05.3l-.75,1a.22.22,0,0,1-.31,0,5.45,5.45,0,0,0-2.84-.86c-1.32,0-2,.59-2,1.45s.51,1.28,2.07,1.43l1.1.11c2.13.2,3.17,1.28,3.17,3,0,2.07-1.5,3.45-4.25,3.45A6.55,6.55,0,0,1,154.19,69.62Z"/><path d="M164.53,68.34a10.58,10.58,0,0,1,0-5.32,4.44,4.44,0,0,1,8.28,0,9.47,9.47,0,0,1,.33,3c0,.14-.09.22-.25.22h-6.66a.13.13,0,0,0-.14.14,3.9,3.9,0,0,0,.18,1.27,2.6,2.6,0,0,0,2.66,1.83,3.44,3.44,0,0,0,2.71-1.17.22.22,0,0,1,.33,0l.9.81a.2.2,0,0,1,0,.31,5.09,5.09,0,0,1-4.11,1.8A4.08,4.08,0,0,1,164.53,68.34Zm6.56-3.56a.12.12,0,0,0,.13-.13,3.71,3.71,0,0,0-.15-1.19,2.6,2.6,0,0,0-4.84,0,3.68,3.68,0,0,0-.16,1.19.12.12,0,0,0,.14.13Z"/><path d="M175,73.6a.21.21,0,0,1,0-.31l.9-.9a.21.21,0,0,1,.33,0,3.5,3.5,0,0,0,2.48,1.06c1.74,0,2.67-.9,2.67-2.84V69.38h0a3,3,0,0,1-2.92,1.45,3.45,3.45,0,0,1-3.54-2.55,8.06,8.06,0,0,1-.36-2.77,8.08,8.08,0,0,1,.36-2.78,3.45,3.45,0,0,1,3.54-2.55,3,3,0,0,1,2.92,1.45h0v-1a.2.2,0,0,1,.22-.22H183a.2.2,0,0,1,.22.22V70.5c0,3-1.62,4.66-4.59,4.66A4.76,4.76,0,0,1,175,73.6Zm6.16-6a6.24,6.24,0,0,0,.25-2,6.34,6.34,0,0,0-.25-2.05,2.37,2.37,0,0,0-4.46,0,6.48,6.48,0,0,0-.27,2.05,6.37,6.37,0,0,0,.27,2,2.15,2.15,0,0,0,2.22,1.59A2.17,2.17,0,0,0,181.14,67.55Z"/><path d="M192.58,71a.21.21,0,0,1-.22-.22v-1h0a3.21,3.21,0,0,1-2.88,1.45c-2.31,0-3.65-1.58-3.65-4V60.64a.21.21,0,0,1,.22-.22h1.41a.21.21,0,0,1,.22.22v6.14c0,1.72.77,2.71,2.33,2.71a2.34,2.34,0,0,0,2.37-2.6V60.64a.21.21,0,0,1,.22-.22H194a.21.21,0,0,1,.22.22v10.1A.21.21,0,0,1,194,71Z"/><path d="M197.16,71a.21.21,0,0,1-.22-.22V60.64a.21.21,0,0,1,.22-.22h1.41a.21.21,0,0,1,.22.22v1.08h0a2.94,2.94,0,0,1,2.79-1.54,3.26,3.26,0,0,1,2.16.79c.11.11.13.2,0,.31L203,62.36a.2.2,0,0,1-.31,0,2.93,2.93,0,0,0-1.63-.5c-1.6,0-2.26,1.25-2.26,3.08v5.76a.21.21,0,0,1-.22.22Z"/><path d="M205.25,58.05a.21.21,0,0,1-.22-.22V56.22a.21.21,0,0,1,.22-.22h1.5a.21.21,0,0,1,.22.22v1.61a.21.21,0,0,1-.22.22ZM205.3,71a.21.21,0,0,1-.22-.22V60.64a.21.21,0,0,1,.22-.22h1.41a.21.21,0,0,1,.22.22v10.1a.21.21,0,0,1-.22.22Z"/><path d="M216.25,71a.21.21,0,0,1-.22-.22v-1h0a3.19,3.19,0,0,1-3,1.47,3.47,3.47,0,0,1-3.63-2.53,8.65,8.65,0,0,1-.37-3,8.63,8.63,0,0,1,.37-3A3.48,3.48,0,0,1,213,60.18a3.2,3.2,0,0,1,3,1.45h0V56.22a.21.21,0,0,1,.22-.22h1.41a.21.21,0,0,1,.22.22V70.74a.21.21,0,0,1-.22.22Zm-.46-3.08a6.63,6.63,0,0,0,.24-2.2,6.79,6.79,0,0,0-.24-2.2,2.49,2.49,0,0,0-4.64,0,7.35,7.35,0,0,0-.24,2.2,7.18,7.18,0,0,0,.24,2.2,2.48,2.48,0,0,0,4.64,0Z"/><path d="M227,71a.21.21,0,0,1-.22-.22v-.92h0a3.47,3.47,0,0,1-3.13,1.38c-2,0-3.54-1-3.54-3.16s1.54-3.26,4.12-3.26h2.39a.12.12,0,0,0,.14-.13v-.77c0-1.46-.58-2.07-2.53-2.07a4.13,4.13,0,0,0-2.56.75c-.11.09-.24.09-.3,0l-.6-1a.24.24,0,0,1,0-.31,5.87,5.87,0,0,1,3.58-1c3,0,4.14,1,4.14,3.59v7a.21.21,0,0,1-.22.22Zm-.26-3.41V66.39a.13.13,0,0,0-.14-.14h-2.11c-1.82,0-2.62.53-2.62,1.72s.8,1.65,2.2,1.65C225.71,69.62,226.73,68.85,226.73,67.55Z"/><path d="M237.75,71a.21.21,0,0,1-.22-.22v-1h0a3.21,3.21,0,0,1-3,1.47,3.48,3.48,0,0,1-3.63-2.53,8.9,8.9,0,0,1-.37-3,8.89,8.89,0,0,1,.37-3,3.49,3.49,0,0,1,3.63-2.53,3.22,3.22,0,0,1,3,1.45h0V56.22a.21.21,0,0,1,.22-.22h1.41a.21.21,0,0,1,.22.22V70.74a.21.21,0,0,1-.22.22Zm-.46-3.08a6.92,6.92,0,0,0,.24-2.2,7.08,7.08,0,0,0-.24-2.2,2.5,2.5,0,0,0-4.65,0,7.69,7.69,0,0,0-.24,2.2,7.51,7.51,0,0,0,.24,2.2,2.48,2.48,0,0,0,4.65,0Z"/><path d="M242.06,68.63h1.54a.21.21,0,0,1,.22.22V70.9a.68.68,0,0,1-.13.48l-1.37,1.8a.33.33,0,0,1-.28.16.2.2,0,0,1-.2-.2V68.85A.21.21,0,0,1,242.06,68.63Z"/><path d="M250,73.6a.2.2,0,0,1,0-.31l.91-.9a.21.21,0,0,1,.33,0,3.5,3.5,0,0,0,2.48,1.06c1.74,0,2.66-.9,2.66-2.84V69.38h0a3,3,0,0,1-2.92,1.45,3.46,3.46,0,0,1-3.55-2.55,8.34,8.34,0,0,1-.35-2.77,8.36,8.36,0,0,1,.35-2.78,3.46,3.46,0,0,1,3.55-2.55,3,3,0,0,1,2.92,1.45h0v-1a.21.21,0,0,1,.22-.22H258a.2.2,0,0,1,.22.22V70.5c0,3-1.63,4.66-4.6,4.66A4.75,4.75,0,0,1,250,73.6Zm6.16-6a6.28,6.28,0,0,0,.24-2,6.38,6.38,0,0,0-.24-2.05,2.37,2.37,0,0,0-4.46,0,6.48,6.48,0,0,0-.27,2.05,6.37,6.37,0,0,0,.27,2,2.14,2.14,0,0,0,2.22,1.59A2.17,2.17,0,0,0,256.16,67.55Z"/><path d="M267.6,71a.21.21,0,0,1-.22-.22v-1h0a3.21,3.21,0,0,1-2.88,1.45c-2.31,0-3.65-1.58-3.65-4V60.64a.2.2,0,0,1,.22-.22h1.4a.2.2,0,0,1,.22.22v6.14c0,1.72.77,2.71,2.34,2.71a2.34,2.34,0,0,0,2.37-2.6V60.64a.21.21,0,0,1,.22-.22H269a.21.21,0,0,1,.22.22v10.1A.21.21,0,0,1,269,71Z"/><path d="M278.34,71a.21.21,0,0,1-.22-.22v-.92h0A3.47,3.47,0,0,1,275,71.2c-2,0-3.54-1-3.54-3.16s1.54-3.26,4.11-3.26h2.4a.12.12,0,0,0,.13-.13v-.77c0-1.46-.57-2.07-2.53-2.07a4.12,4.12,0,0,0-2.55.75.19.19,0,0,1-.31,0l-.59-1a.24.24,0,0,1,0-.31,5.92,5.92,0,0,1,3.59-1c3,0,4.14,1,4.14,3.59v7a.21.21,0,0,1-.22.22Zm-.27-3.41V66.39c0-.09,0-.14-.13-.14h-2.11c-1.83,0-2.62.53-2.62,1.72s.79,1.65,2.2,1.65C277.06,69.62,278.07,68.85,278.07,67.55Z"/><path d="M289.34,71a.21.21,0,0,1-.22-.22V64.58c0-1.69-.77-2.68-2.36-2.68a2.36,2.36,0,0,0-2.42,2.57v6.27a.2.2,0,0,1-.22.22h-1.4a.2.2,0,0,1-.22-.22V60.64a.2.2,0,0,1,.22-.22h1.4a.2.2,0,0,1,.22.22v1h0a3.32,3.32,0,0,1,2.94-1.43c2.29,0,3.66,1.56,3.66,4v6.6a.21.21,0,0,1-.22.22Z"/><path d="M296.64,71.07c-2,0-2.84-.92-2.84-3v-6c0-.09,0-.13-.13-.13h-.88a.21.21,0,0,1-.22-.22V60.64a.21.21,0,0,1,.22-.22h.88c.09,0,.13,0,.13-.13v-3a.21.21,0,0,1,.22-.22h1.41a.21.21,0,0,1,.22.22v3a.12.12,0,0,0,.13.13h1.68a.21.21,0,0,1,.22.22V61.7a.21.21,0,0,1-.22.22h-1.68a.12.12,0,0,0-.13.13v6c0,1.06.4,1.35,1.34,1.35h.47a.2.2,0,0,1,.22.22v1.27a.21.21,0,0,1-.22.22Z"/><path d="M299.37,68.34a10.58,10.58,0,0,1,0-5.32,4.43,4.43,0,0,1,8.27,0,9.18,9.18,0,0,1,.33,3,.21.21,0,0,1-.24.22H301c-.09,0-.13,0-.13.14a4.23,4.23,0,0,0,.17,1.27,2.62,2.62,0,0,0,2.67,1.83,3.43,3.43,0,0,0,2.7-1.17.22.22,0,0,1,.33,0l.91.81a.2.2,0,0,1,0,.31,5.13,5.13,0,0,1-4.12,1.8A4.07,4.07,0,0,1,299.37,68.34Zm6.56-3.56a.12.12,0,0,0,.13-.13,3.68,3.68,0,0,0-.16-1.19,2.6,2.6,0,0,0-4.84,0,3.71,3.71,0,0,0-.15,1.19.12.12,0,0,0,.13.13Z"/><path d="M309.31,69.62a.21.21,0,0,1,0-.31l.9-1a.23.23,0,0,1,.31,0,5.07,5.07,0,0,0,3.26,1.21c1.54,0,2.31-.66,2.31-1.6s-.4-1.3-2-1.48l-1.12-.11c-2.07-.22-3.15-1.25-3.15-3,0-2,1.43-3.21,3.92-3.21a6.3,6.3,0,0,1,3.74,1.17.21.21,0,0,1,.05.3l-.75,1a.22.22,0,0,1-.31,0,5.45,5.45,0,0,0-2.84-.86c-1.32,0-2,.59-2,1.45s.5,1.28,2.07,1.43l1.1.11c2.13.2,3.17,1.28,3.17,3,0,2.07-1.5,3.45-4.25,3.45A6.55,6.55,0,0,1,309.31,69.62Z"/><path d="M319.89,68.63h1.54a.2.2,0,0,1,.22.22V70.9a.68.68,0,0,1-.13.48l-1.36,1.8a.36.36,0,0,1-.29.16.2.2,0,0,1-.2-.2V68.85A.21.21,0,0,1,319.89,68.63Z"/><path d="M327.84,73.6a.2.2,0,0,1,0-.31l.9-.9a.21.21,0,0,1,.33,0,3.52,3.52,0,0,0,2.49,1.06c1.73,0,2.66-.9,2.66-2.84V69.38h0a3,3,0,0,1-2.93,1.45,3.45,3.45,0,0,1-3.54-2.55,8.08,8.08,0,0,1-.35-2.77,8.11,8.11,0,0,1,.35-2.78,3.45,3.45,0,0,1,3.54-2.55,3,3,0,0,1,2.93,1.45h0v-1a.21.21,0,0,1,.22-.22h1.41a.21.21,0,0,1,.22.22V70.5c0,3-1.63,4.66-4.6,4.66A4.72,4.72,0,0,1,327.84,73.6Zm6.16-6a6.57,6.57,0,0,0,.24-2,6.68,6.68,0,0,0-.24-2.05,2.38,2.38,0,0,0-4.47,0,6.51,6.51,0,0,0-.26,2.05,6.4,6.4,0,0,0,.26,2,2.15,2.15,0,0,0,2.22,1.59A2.19,2.19,0,0,0,334,67.55Z"/><path d="M345.19,71a.2.2,0,0,1-.21-.22v-.92h0a3.45,3.45,0,0,1-3.12,1.38c-2,0-3.54-1-3.54-3.16s1.54-3.26,4.11-3.26h2.4a.12.12,0,0,0,.13-.13v-.77c0-1.46-.57-2.07-2.53-2.07a4.07,4.07,0,0,0-2.55.75.19.19,0,0,1-.31,0l-.59-1a.23.23,0,0,1,0-.31,5.88,5.88,0,0,1,3.59-1c3,0,4.13,1,4.13,3.59v7a.2.2,0,0,1-.22.22Zm-.26-3.41V66.39c0-.09,0-.14-.13-.14h-2.11c-1.83,0-2.62.53-2.62,1.72s.79,1.65,2.2,1.65C343.92,69.62,344.93,68.85,344.93,67.55Z"/><path d="M349.92,71a.21.21,0,0,1-.22-.22V62.05c0-.09,0-.13-.13-.13h-.9a.21.21,0,0,1-.22-.22V60.64a.21.21,0,0,1,.22-.22h.9c.09,0,.13,0,.13-.13v-.9c0-2.49,1-3.39,3.22-3.39h.81a.21.21,0,0,1,.22.22V57.5a.21.21,0,0,1-.22.22h-.57c-1.34,0-1.61.28-1.61,1.58v1a.12.12,0,0,0,.13.13h2.05a.21.21,0,0,1,.22.22V61.7a.21.21,0,0,1-.22.22h-2.05a.12.12,0,0,0-.13.13v8.69a.21.21,0,0,1-.22.22Z"/><path d="M361.85,71a.21.21,0,0,1-.22-.22v-.92h0a3.47,3.47,0,0,1-3.13,1.38c-2,0-3.54-1-3.54-3.16s1.54-3.26,4.11-3.26h2.4a.12.12,0,0,0,.13-.13v-.77c0-1.46-.57-2.07-2.53-2.07a4.12,4.12,0,0,0-2.55.75.19.19,0,0,1-.31,0l-.59-1a.24.24,0,0,1,0-.31,5.92,5.92,0,0,1,3.59-1c3,0,4.14,1,4.14,3.59v7a.21.21,0,0,1-.22.22Zm-.27-3.41V66.39c0-.09,0-.14-.13-.14h-2.11c-1.83,0-2.62.53-2.62,1.72s.79,1.65,2.2,1.65C360.57,69.62,361.58,68.85,361.58,67.55Z"/><path d="M365.28,69.62a.21.21,0,0,1,0-.31l.9-1a.23.23,0,0,1,.31,0,5.07,5.07,0,0,0,3.26,1.21c1.54,0,2.31-.66,2.31-1.6s-.4-1.3-2.05-1.48l-1.12-.11c-2.07-.22-3.15-1.25-3.15-3,0-2,1.43-3.21,3.92-3.21a6.3,6.3,0,0,1,3.74,1.17c.11.06.11.19,0,.3l-.75,1a.21.21,0,0,1-.3,0,5.48,5.48,0,0,0-2.84-.86c-1.32,0-2,.59-2,1.45s.5,1.28,2.06,1.43l1.1.11c2.14.2,3.17,1.28,3.17,3,0,2.07-1.49,3.45-4.24,3.45A6.55,6.55,0,0,1,365.28,69.62Z"/><path d="M375.86,68.63h1.54a.21.21,0,0,1,.22.22V70.9a.68.68,0,0,1-.13.48l-1.36,1.8a.36.36,0,0,1-.29.16.2.2,0,0,1-.2-.2V68.85A.21.21,0,0,1,375.86,68.63Z"/><path d="M383.74,68.34a10.58,10.58,0,0,1,0-5.32A4.43,4.43,0,0,1,392,63a9.18,9.18,0,0,1,.33,3,.21.21,0,0,1-.24.22h-6.67c-.09,0-.13,0-.13.14a3.93,3.93,0,0,0,.17,1.27,2.62,2.62,0,0,0,2.67,1.83,3.43,3.43,0,0,0,2.7-1.17.22.22,0,0,1,.33,0l.9.81a.21.21,0,0,1,0,.31A5.13,5.13,0,0,1,388,71.2,4.07,4.07,0,0,1,383.74,68.34Zm6.55-3.56a.12.12,0,0,0,.14-.13,3.68,3.68,0,0,0-.16-1.19,2.6,2.6,0,0,0-4.84,0,3.71,3.71,0,0,0-.15,1.19.12.12,0,0,0,.13.13Z"/><path d="M397.47,71.07c-2.05,0-2.84-.92-2.84-3v-6a.12.12,0,0,0-.13-.13h-.88a.2.2,0,0,1-.22-.22V60.64a.2.2,0,0,1,.22-.22h.88a.12.12,0,0,0,.13-.13v-3a.21.21,0,0,1,.22-.22h1.41a.21.21,0,0,1,.22.22v3c0,.09,0,.13.13.13h1.67a.21.21,0,0,1,.22.22V61.7a.21.21,0,0,1-.22.22h-1.67c-.09,0-.13,0-.13.13v6c0,1.06.39,1.35,1.34,1.35h.46a.2.2,0,0,1,.22.22v1.27a.21.21,0,0,1-.22.22Z"/><path d="M400.17,63a4.09,4.09,0,0,1,4.16-2.84A4.22,4.22,0,0,1,407.94,62a.22.22,0,0,1-.07.31l-1,.79a.19.19,0,0,1-.3,0,2.59,2.59,0,0,0-2.27-1.14A2.28,2.28,0,0,0,402,63.55a6.85,6.85,0,0,0-.25,2.13,6.94,6.94,0,0,0,.25,2.16,2.28,2.28,0,0,0,2.35,1.65,2.6,2.6,0,0,0,2.27-1.15.19.19,0,0,1,.3,0l1,.79a.22.22,0,0,1,.07.31,4.22,4.22,0,0,1-3.61,1.78,4.09,4.09,0,0,1-4.16-2.83,11,11,0,0,1,0-5.35Z"/><path d="M409.72,68.85a.21.21,0,0,1,.22-.22h1.67a.21.21,0,0,1,.22.22v1.89a.21.21,0,0,1-.22.22h-1.67a.21.21,0,0,1-.22-.22Z"/></g></g></svg>