<svg xmlns="http://www.w3.org/2000/svg" viewBox="0 0 362.31 49.39"><title>1b</title><g id="Capa_2" data-name="Capa 2"><g id="answer_copia" data-name="answer copia"><path d="M.34,8.64A13.75,13.75,0,0,1,.77,4.06,5.24,5.24,0,0,1,6.19.22,5.47,5.47,0,0,1,11.43,3.5a.26.26,0,0,1-.1.32l-1.44.69a.24.24,0,0,1-.34-.12A3.56,3.56,0,0,0,6.19,2.21a3.27,3.27,0,0,0-3.38,2.4,13.19,13.19,0,0,0-.31,4,13.19,13.19,0,0,0,.31,4,3.27,3.27,0,0,0,3.38,2.4,3.56,3.56,0,0,0,3.36-2.18.24.24,0,0,1,.34-.12l1.44.69a.26.26,0,0,1,.1.32,5.46,5.46,0,0,1-5.24,3.29A5.25,5.25,0,0,1,.77,13.23,13.87,13.87,0,0,1,.34,8.64Z"/><path d="M20.45,16.8a.22.22,0,0,1-.24-.24v-1h0a3.74,3.74,0,0,1-3.4,1.52c-2.19,0-3.87-1.13-3.87-3.46s1.68-3.55,4.49-3.55H20c.09,0,.14-.05.14-.15V9.07c0-1.58-.62-2.25-2.76-2.25a4.44,4.44,0,0,0-2.78.81c-.12.1-.27.1-.34,0L13.63,6.5a.24.24,0,0,1,0-.33A6.38,6.38,0,0,1,17.59,5C20.86,5,22.1,6.12,22.1,9v7.61a.22.22,0,0,1-.24.24Zm-.29-3.72V11.81a.12.12,0,0,0-.14-.14H17.71c-2,0-2.85.57-2.85,1.87s.86,1.8,2.4,1.8C19.06,15.34,20.16,14.5,20.16,13.08Z"/><path d="M25.22,21.12a.23.23,0,0,1-.24-.24V5.54a.23.23,0,0,1,.24-.24h1.54a.23.23,0,0,1,.24.24V6.62h0A3.51,3.51,0,0,1,30.29,5a3.81,3.81,0,0,1,4,2.76A9.53,9.53,0,0,1,34.66,11a9.68,9.68,0,0,1-.41,3.27,3.81,3.81,0,0,1-4,2.76A3.52,3.52,0,0,1,27,15.46h0v5.42a.23.23,0,0,1-.24.24Zm7.11-7.68a8,8,0,0,0,.26-2.4,8.26,8.26,0,0,0-.26-2.4,2.45,2.45,0,0,0-2.52-1.73,2.46,2.46,0,0,0-2.55,1.73A7.59,7.59,0,0,0,27,11a7.47,7.47,0,0,0,.26,2.4,2.48,2.48,0,0,0,2.55,1.75A2.46,2.46,0,0,0,32.33,13.44Z"/><path d="M40.27,16.92c-2.23,0-3.09-1-3.09-3.26V7.08c0-.1,0-.14-.15-.14h-1a.23.23,0,0,1-.24-.24V5.54a.23.23,0,0,1,.24-.24h1c.1,0,.15,0,.15-.14V1.92a.23.23,0,0,1,.24-.24H39a.23.23,0,0,1,.24.24V5.16c0,.1.05.14.15.14h1.82a.23.23,0,0,1,.24.24V6.7a.23.23,0,0,1-.24.24H39.34c-.1,0-.15,0-.15.14v6.5c0,1.16.43,1.47,1.47,1.47h.5a.23.23,0,0,1,.24.24v1.39a.23.23,0,0,1-.24.24Z"/><path d="M50.78,16.8a.23.23,0,0,1-.24-.24V15.48h0a3.51,3.51,0,0,1-3.14,1.59c-2.52,0-4-1.73-4-4.35V5.54a.23.23,0,0,1,.24-.24h1.54a.23.23,0,0,1,.24.24v6.7c0,1.87.84,2.95,2.54,2.95a2.55,2.55,0,0,0,2.59-2.83V5.54a.23.23,0,0,1,.24-.24h1.54a.23.23,0,0,1,.24.24v11a.23.23,0,0,1-.24.24Z"/><path d="M55.78,16.8a.22.22,0,0,1-.24-.24v-11a.23.23,0,0,1,.24-.24h1.53a.23.23,0,0,1,.24.24V6.72h0a3.2,3.2,0,0,1,3-1.68A3.58,3.58,0,0,1,63,5.9c.12.12.14.22,0,.34l-.88,1.18a.22.22,0,0,1-.34,0A3.28,3.28,0,0,0,60,6.91c-1.75,0-2.47,1.37-2.47,3.36v6.29a.22.22,0,0,1-.24.24Z"/><path d="M63.67,14A9.1,9.1,0,0,1,63.29,11a8.87,8.87,0,0,1,.36-2.9,4.83,4.83,0,0,1,9,0A10,10,0,0,1,73,11.42a.23.23,0,0,1-.26.25H65.5c-.1,0-.15,0-.15.14a4.3,4.3,0,0,0,.19,1.39,2.84,2.84,0,0,0,2.91,2,3.74,3.74,0,0,0,3-1.27.25.25,0,0,1,.36-.05l1,.89a.22.22,0,0,1,0,.34,5.59,5.59,0,0,1-4.49,2A4.45,4.45,0,0,1,63.67,14Zm7.15-3.89A.13.13,0,0,0,71,9.91a4,4,0,0,0-.17-1.29,2.84,2.84,0,0,0-5.28,0,4,4,0,0,0-.17,1.29.13.13,0,0,0,.15.15Z"/><path d="M87.07,16.8a.23.23,0,0,1-.24-.24v-1h0a3.77,3.77,0,0,1-3.41,1.52c-2.18,0-3.86-1.13-3.86-3.46s1.68-3.55,4.48-3.55h2.62c.1,0,.14-.05.14-.15V9.07c0-1.58-.62-2.25-2.76-2.25a4.47,4.47,0,0,0-2.78.81c-.12.1-.27.1-.34,0L80.26,6.5a.24.24,0,0,1,0-.33A6.42,6.42,0,0,1,84.22,5C87.48,5,88.73,6.12,88.73,9v7.61a.23.23,0,0,1-.24.24Zm-.29-3.72V11.81c0-.1,0-.14-.14-.14h-2.3c-2,0-2.86.57-2.86,1.87s.86,1.8,2.4,1.8C85.68,15.34,86.78,14.5,86.78,13.08Z"/><path d="M94.37,16.92c-2,0-2.81-1-2.81-3V.72A.23.23,0,0,1,91.8.48h1.54a.23.23,0,0,1,.24.24V13.78c0,1,.36,1.27,1.15,1.27h.45a.23.23,0,0,1,.24.24v1.39a.22.22,0,0,1-.24.24Z"/><path d="M109.06,16.8a.22.22,0,0,1-.24-.24v-1h0a3.75,3.75,0,0,1-3.41,1.52c-2.18,0-3.86-1.13-3.86-3.46s1.68-3.55,4.49-3.55h2.61a.13.13,0,0,0,.15-.15V9.07c0-1.58-.63-2.25-2.76-2.25a4.5,4.5,0,0,0-2.79.81c-.12.1-.26.1-.33,0l-.65-1.11a.24.24,0,0,1,.05-.33A6.36,6.36,0,0,1,106.2,5c3.26,0,4.51,1.08,4.51,3.91v7.61a.22.22,0,0,1-.24.24Zm-.29-3.72V11.81c0-.1,0-.14-.15-.14h-2.3c-2,0-2.86.57-2.86,1.87s.87,1.8,2.4,1.8C107.66,15.34,108.77,14.5,108.77,13.08Z"/><path d="M121.06,16.8a.22.22,0,0,1-.24-.24V9.84c0-1.85-.84-2.93-2.57-2.93a2.58,2.58,0,0,0-2.64,2.81v6.84a.23.23,0,0,1-.24.24h-1.54a.23.23,0,0,1-.24-.24v-11a.23.23,0,0,1,.24-.24h1.54a.23.23,0,0,1,.24.24V6.6h0A3.63,3.63,0,0,1,118.85,5c2.49,0,4,1.7,4,4.32v7.2a.22.22,0,0,1-.24.24Z"/><path d="M125.88,2.71a.22.22,0,0,1-.24-.24V.72a.23.23,0,0,1,.24-.24h1.63a.23.23,0,0,1,.24.24V2.47a.22.22,0,0,1-.24.24Zm.05,14.09a.22.22,0,0,1-.24-.24v-11a.23.23,0,0,1,.24-.24h1.53a.23.23,0,0,1,.24.24v11a.22.22,0,0,1-.24.24Z"/><path d="M145.37,16.8a.22.22,0,0,1-.24-.24V9.84c0-1.85-.84-2.93-2.57-2.93a2.59,2.59,0,0,0-2.64,2.81v6.84a.23.23,0,0,1-.24.24h-1.54a.23.23,0,0,1-.24-.24V9.84c0-1.85-.84-2.93-2.57-2.93a2.58,2.58,0,0,0-2.64,2.81v6.84a.22.22,0,0,1-.24.24h-1.53a.22.22,0,0,1-.24-.24v-11a.23.23,0,0,1,.24-.24h1.53a.23.23,0,0,1,.24.24V6.6h0a4.07,4.07,0,0,1,6.58.24h0A4.29,4.29,0,0,1,143,5c2.66,0,4.1,1.7,4.1,4.32v7.2a.22.22,0,0,1-.24.24Z"/><path d="M157,16.8a.22.22,0,0,1-.24-.24v-1h0a3.74,3.74,0,0,1-3.4,1.52c-2.19,0-3.87-1.13-3.87-3.46s1.68-3.55,4.49-3.55h2.62c.09,0,.14-.05.14-.15V9.07c0-1.58-.62-2.25-2.76-2.25a4.44,4.44,0,0,0-2.78.81c-.12.1-.27.1-.34,0l-.65-1.11a.24.24,0,0,1,.05-.33A6.38,6.38,0,0,1,154.1,5c3.27,0,4.52,1.08,4.52,3.91v7.61a.23.23,0,0,1-.25.24Zm-.29-3.72V11.81a.12.12,0,0,0-.14-.14h-2.31c-2,0-2.85.57-2.85,1.87s.86,1.8,2.4,1.8C155.57,15.34,156.67,14.5,156.67,13.08Z"/><path d="M164.25,16.92c-2,0-2.8-1-2.8-3V.72a.23.23,0,0,1,.24-.24h1.53a.23.23,0,0,1,.24.24V13.78c0,1,.36,1.27,1.15,1.27h.46a.23.23,0,0,1,.24.24v1.39a.23.23,0,0,1-.24.24Z"/><path d="M167.25,14.26h1.68a.22.22,0,0,1,.24.24v2.23a.77.77,0,0,1-.14.53l-1.49,2a.36.36,0,0,1-.31.16.21.21,0,0,1-.22-.21V14.5A.23.23,0,0,1,167.25,14.26Z"/><path d="M176.4,21.12a.22.22,0,0,1-.24-.24V5.54a.23.23,0,0,1,.24-.24h1.53a.23.23,0,0,1,.24.24V6.62h0A3.48,3.48,0,0,1,181.46,5a3.8,3.8,0,0,1,4,2.76,9.53,9.53,0,0,1,.41,3.24,9.68,9.68,0,0,1-.41,3.27,3.8,3.8,0,0,1-4,2.76,3.49,3.49,0,0,1-3.26-1.61h0v5.42a.22.22,0,0,1-.24.24Zm7.1-7.68a8,8,0,0,0,.27-2.4,8.21,8.21,0,0,0-.27-2.4,2.71,2.71,0,0,0-5.06,0,7.53,7.53,0,0,0-.27,2.4,7.41,7.41,0,0,0,.27,2.4,2.7,2.7,0,0,0,5.06,0Z"/><path d="M187.8,14a8.48,8.48,0,0,1-.39-2.93,8.37,8.37,0,0,1,.39-2.9,4.87,4.87,0,0,1,9.07,0,8.65,8.65,0,0,1,.38,2.9,8.77,8.77,0,0,1-.38,2.93,4.87,4.87,0,0,1-9.07,0Zm7.13-.58a7.56,7.56,0,0,0,.26-2.35,7.5,7.5,0,0,0-.26-2.33,2.77,2.77,0,0,0-5.19,0,7.5,7.5,0,0,0-.26,2.33,7.56,7.56,0,0,0,.26,2.35,2.77,2.77,0,0,0,5.19,0Zm-3.46-10c-.14,0-.22-.09-.14-.24L193.15.24a.43.43,0,0,1,.41-.24h1.58c.15,0,.22.12.12.24l-2.21,3a.47.47,0,0,1-.45.24Z"/><path d="M207,16.8a.22.22,0,0,1-.24-.24V9.84c0-1.85-.84-2.93-2.57-2.93a2.58,2.58,0,0,0-2.64,2.81v6.84a.23.23,0,0,1-.24.24h-1.54a.23.23,0,0,1-.24-.24v-11a.23.23,0,0,1,.24-.24h1.54a.23.23,0,0,1,.24.24V6.6h0A3.65,3.65,0,0,1,204.79,5c2.5,0,4,1.7,4,4.32v7.2a.22.22,0,0,1-.24.24Z"/><path d="M211.39,19.68a.21.21,0,0,1,0-.33l1-1a.22.22,0,0,1,.36,0,3.83,3.83,0,0,0,2.71,1.15c1.9,0,2.9-1,2.9-3.09V15.07h0a3.3,3.3,0,0,1-3.19,1.59,3.78,3.78,0,0,1-3.87-2.79,8.92,8.92,0,0,1-.38-3,9,9,0,0,1,.38-3A3.77,3.77,0,0,1,215.16,5a3.3,3.3,0,0,1,3.19,1.58h0V5.54a.23.23,0,0,1,.24-.24h1.54a.23.23,0,0,1,.24.24V16.3c0,3.26-1.78,5.09-5,5.09A5.2,5.2,0,0,1,211.39,19.68Zm6.72-6.6a7.08,7.08,0,0,0,.26-2.23,7.12,7.12,0,0,0-.26-2.23,2.59,2.59,0,0,0-4.87,0,6.93,6.93,0,0,0-.29,2.23,6.89,6.89,0,0,0,.29,2.23,2.34,2.34,0,0,0,2.42,1.73A2.38,2.38,0,0,0,218.11,13.08Z"/><path d="M230.33,16.8a.22.22,0,0,1-.24-.24v-1h0a3.75,3.75,0,0,1-3.41,1.52c-2.18,0-3.86-1.13-3.86-3.46s1.68-3.55,4.49-3.55h2.61a.13.13,0,0,0,.15-.15V9.07c0-1.58-.63-2.25-2.76-2.25a4.48,4.48,0,0,0-2.79.81c-.12.1-.26.1-.33,0l-.65-1.11a.24.24,0,0,1,.05-.33A6.36,6.36,0,0,1,227.47,5C230.73,5,232,6.12,232,9v7.61a.22.22,0,0,1-.24.24ZM230,13.08V11.81c0-.1,0-.14-.15-.14h-2.3c-2,0-2.86.57-2.86,1.87s.87,1.8,2.4,1.8C228.93,15.34,230,14.5,230,13.08Z"/><path d="M237.62,16.92c-2,0-2.81-1-2.81-3V.72a.23.23,0,0,1,.24-.24h1.54a.23.23,0,0,1,.24.24V13.78c0,1,.36,1.27,1.15,1.27h.46a.23.23,0,0,1,.24.24v1.39a.23.23,0,0,1-.24.24Z"/><path d="M240.24,14a8.48,8.48,0,0,1-.39-2.93,8.37,8.37,0,0,1,.39-2.9,4.87,4.87,0,0,1,9.07,0,8.65,8.65,0,0,1,.38,2.9,8.77,8.77,0,0,1-.38,2.93,4.87,4.87,0,0,1-9.07,0Zm7.13-.58a7.56,7.56,0,0,0,.26-2.35,7.5,7.5,0,0,0-.26-2.33,2.77,2.77,0,0,0-5.19,0,7.5,7.5,0,0,0-.26,2.33,7.56,7.56,0,0,0,.26,2.35,2.77,2.77,0,0,0,5.19,0Z"/><path d="M256.46,14a9.1,9.1,0,0,1-.38-2.91,8.87,8.87,0,0,1,.36-2.9,4.83,4.83,0,0,1,9,0,10,10,0,0,1,.36,3.28.24.24,0,0,1-.26.25h-7.28a.12.12,0,0,0-.14.14,4.3,4.3,0,0,0,.19,1.39,2.84,2.84,0,0,0,2.91,2,3.77,3.77,0,0,0,2.95-1.27.25.25,0,0,1,.36-.05l1,.89a.22.22,0,0,1,0,.34,5.62,5.62,0,0,1-4.49,2A4.45,4.45,0,0,1,256.46,14Zm7.15-3.89a.13.13,0,0,0,.15-.15,4,4,0,0,0-.17-1.29,2.84,2.84,0,0,0-5.28,0,4,4,0,0,0-.17,1.29c0,.1.05.15.14.15Z"/><path d="M275.56,16.8a.22.22,0,0,1-.23-.24V9.84c0-1.85-.85-2.93-2.57-2.93a2.58,2.58,0,0,0-2.64,2.81v6.84a.23.23,0,0,1-.24.24h-1.54a.23.23,0,0,1-.24-.24v-11a.23.23,0,0,1,.24-.24h1.54a.23.23,0,0,1,.24.24V6.6h0A3.63,3.63,0,0,1,273.36,5c2.49,0,4,1.7,4,4.32v7.2a.23.23,0,0,1-.24.24Z"/><path d="M292.22,16.8a.23.23,0,0,1-.24-.24V15.48h0a3.52,3.52,0,0,1-3.15,1.59c-2.52,0-4-1.73-4-4.35V5.54a.23.23,0,0,1,.24-.24h1.53a.23.23,0,0,1,.24.24v6.7c0,1.87.84,2.95,2.55,2.95A2.55,2.55,0,0,0,292,12.36V5.54a.23.23,0,0,1,.24-.24h1.54a.23.23,0,0,1,.24.24v11a.23.23,0,0,1-.24.24Z"/><path d="M304.44,16.8a.22.22,0,0,1-.24-.24V9.84c0-1.85-.84-2.93-2.57-2.93A2.58,2.58,0,0,0,299,9.72v6.84a.23.23,0,0,1-.24.24h-1.54a.23.23,0,0,1-.24-.24v-11a.23.23,0,0,1,.24-.24h1.54a.23.23,0,0,1,.24.24V6.6h0A3.63,3.63,0,0,1,302.23,5c2.49,0,4,1.7,4,4.32v7.2a.22.22,0,0,1-.24.24Z"/><path d="M316.63,16.92c-2,0-2.81-1-2.81-3V.72a.23.23,0,0,1,.24-.24h1.53a.23.23,0,0,1,.24.24V13.78c0,1,.36,1.27,1.16,1.27h.45a.23.23,0,0,1,.24.24v1.39a.22.22,0,0,1-.24.24Z"/><path d="M326.78,16.8a.23.23,0,0,1-.24-.24V15.48h0a3.53,3.53,0,0,1-3.15,1.59c-2.52,0-4-1.73-4-4.35V5.54a.23.23,0,0,1,.24-.24h1.53a.23.23,0,0,1,.24.24v6.7c0,1.87.84,2.95,2.55,2.95a2.55,2.55,0,0,0,2.59-2.83V5.54a.23.23,0,0,1,.24-.24h1.54a.23.23,0,0,1,.24.24v11a.23.23,0,0,1-.24.24Z"/><path d="M331.29,19.68a.21.21,0,0,1,0-.33l1-1a.22.22,0,0,1,.36,0,3.83,3.83,0,0,0,2.71,1.15c1.9,0,2.9-1,2.9-3.09V15.07h0a3.3,3.3,0,0,1-3.19,1.59,3.78,3.78,0,0,1-3.87-2.79,9.18,9.18,0,0,1-.38-3,9.28,9.28,0,0,1,.38-3A3.77,3.77,0,0,1,335.06,5a3.3,3.3,0,0,1,3.19,1.58h0V5.54a.23.23,0,0,1,.24-.24h1.54a.23.23,0,0,1,.24.24V16.3c0,3.26-1.78,5.09-5,5.09A5.2,5.2,0,0,1,331.29,19.68Zm6.72-6.6a7.08,7.08,0,0,0,.26-2.23A7.12,7.12,0,0,0,338,8.62a2.59,2.59,0,0,0-4.87,0,7.22,7.22,0,0,0-.29,2.23,7.18,7.18,0,0,0,.29,2.23,2.34,2.34,0,0,0,2.42,1.73A2.38,2.38,0,0,0,338,13.08Z"/><path d="M350.23,16.8a.22.22,0,0,1-.24-.24v-1h0a3.75,3.75,0,0,1-3.41,1.52c-2.18,0-3.86-1.13-3.86-3.46s1.68-3.55,4.49-3.55h2.61a.13.13,0,0,0,.15-.15V9.07c0-1.58-.63-2.25-2.76-2.25a4.5,4.5,0,0,0-2.79.81c-.12.1-.26.1-.33,0l-.65-1.11a.24.24,0,0,1,0-.33A6.38,6.38,0,0,1,347.37,5c3.26,0,4.51,1.08,4.51,3.91v7.61a.22.22,0,0,1-.24.24Zm-.29-3.72V11.81c0-.1-.05-.14-.15-.14h-2.3c-2,0-2.86.57-2.86,1.87s.87,1.8,2.4,1.8C348.83,15.34,349.94,14.5,349.94,13.08Z"/><path d="M355,16.8a.23.23,0,0,1-.24-.24v-11A.23.23,0,0,1,355,5.3h1.54a.23.23,0,0,1,.24.24V6.72h0A3.21,3.21,0,0,1,359.85,5a3.56,3.56,0,0,1,2.35.86c.12.12.15.22.05.34l-.89,1.18a.21.21,0,0,1-.33,0,3.31,3.31,0,0,0-1.78-.55c-1.75,0-2.47,1.37-2.47,3.36v6.29a.23.23,0,0,1-.24.24Z"/><path d="M.07,43.34a.25.25,0,0,1,0-.34l1-1a.22.22,0,0,1,.33,0,5.62,5.62,0,0,0,3.55,1.32c1.68,0,2.52-.73,2.52-1.76S7,40.1,5.23,39.9L4,39.78C1.75,39.54.58,38.42.58,36.54c0-2.18,1.56-3.5,4.27-3.5a6.88,6.88,0,0,1,4.08,1.27.24.24,0,0,1,.05.34l-.82,1a.24.24,0,0,1-.34,0,6,6,0,0,0-3.09-.94c-1.44,0-2.19.65-2.19,1.59s.56,1.39,2.26,1.56l1.2.12c2.33.21,3.46,1.39,3.46,3.24,0,2.25-1.64,3.77-4.64,3.77A7.18,7.18,0,0,1,.07,43.34Z"/><path d="M11.35,42A9.1,9.1,0,0,1,11,39a8.87,8.87,0,0,1,.36-2.9A4.44,4.44,0,0,1,15.84,33a4.45,4.45,0,0,1,4.51,3.1,10,10,0,0,1,.36,3.28.23.23,0,0,1-.26.25H13.18c-.1,0-.15,0-.15.14a4.3,4.3,0,0,0,.19,1.39,2.84,2.84,0,0,0,2.91,2,3.74,3.74,0,0,0,2.95-1.27.25.25,0,0,1,.36-.05l1,.89a.22.22,0,0,1,0,.34,5.59,5.59,0,0,1-4.49,2A4.45,4.45,0,0,1,11.35,42Zm7.15-3.89a.13.13,0,0,0,.15-.15,4,4,0,0,0-.17-1.29,2.58,2.58,0,0,0-2.64-1.8,2.58,2.58,0,0,0-2.64,1.8A4,4,0,0,0,13,37.91a.13.13,0,0,0,.15.15Z"/><path d="M22.75,47.68a.21.21,0,0,1,0-.33l1-1a.23.23,0,0,1,.36,0,3.83,3.83,0,0,0,2.71,1.15c1.9,0,2.91-1,2.91-3.09V43.07h0a3.3,3.3,0,0,1-3.19,1.59,3.77,3.77,0,0,1-3.86-2.79,8.89,8.89,0,0,1-.39-3,9,9,0,0,1,.39-3A3.76,3.76,0,0,1,26.52,33a3.3,3.3,0,0,1,3.19,1.58h0V33.54A.23.23,0,0,1,30,33.3h1.53a.23.23,0,0,1,.24.24V44.3c0,3.26-1.77,5.09-5,5.09A5.21,5.21,0,0,1,22.75,47.68Zm6.72-6.6a7,7,0,0,0,.27-2.23,7.08,7.08,0,0,0-.27-2.23A2.36,2.36,0,0,0,27,34.91a2.35,2.35,0,0,0-2.42,1.71,7.22,7.22,0,0,0-.29,2.23,7.18,7.18,0,0,0,.29,2.23A2.34,2.34,0,0,0,27,42.81,2.38,2.38,0,0,0,29.47,41.08Z"/><path d="M42,44.8a.23.23,0,0,1-.24-.24V43.48h0a3.52,3.52,0,0,1-3.15,1.59c-2.52,0-4-1.73-4-4.35V33.54a.23.23,0,0,1,.24-.24h1.54a.23.23,0,0,1,.24.24v6.7c0,1.87.84,2.95,2.54,2.95a2.55,2.55,0,0,0,2.59-2.83V33.54A.23.23,0,0,1,42,33.3h1.54a.23.23,0,0,1,.24.24v11a.23.23,0,0,1-.24.24Z"/><path d="M46.94,44.8a.23.23,0,0,1-.24-.24v-11a.23.23,0,0,1,.24-.24h1.54a.23.23,0,0,1,.24.24v1.18h0a3.23,3.23,0,0,1,3-1.68,3.56,3.56,0,0,1,2.35.86c.12.12.15.22,0,.34l-.89,1.18a.21.21,0,0,1-.33,0,3.31,3.31,0,0,0-1.78-.55c-1.75,0-2.47,1.37-2.47,3.36v6.29a.23.23,0,0,1-.24.24Z"/><path d="M54.84,42A8.73,8.73,0,0,1,54.45,39a8.62,8.62,0,0,1,.39-2.9A4.44,4.44,0,0,1,59.38,33a4.43,4.43,0,0,1,4.53,3.1A8.37,8.37,0,0,1,64.3,39,8.48,8.48,0,0,1,63.91,42a4.87,4.87,0,0,1-9.07,0ZM62,41.39A7.56,7.56,0,0,0,62.23,39,7.5,7.5,0,0,0,62,36.71a2.77,2.77,0,0,0-5.19,0A7.5,7.5,0,0,0,56.52,39a7.56,7.56,0,0,0,.26,2.35,2.77,2.77,0,0,0,5.19,0Z"/><path d="M66.53,42.26h1.68a.23.23,0,0,1,.24.24v2.23a.78.78,0,0,1-.15.53l-1.49,2a.36.36,0,0,1-.31.16.21.21,0,0,1-.21-.21V42.5A.22.22,0,0,1,66.53,42.26Z"/><path d="M75.09,36.14A4.45,4.45,0,0,1,79.63,33,4.62,4.62,0,0,1,83.57,35c.07.12.07.22-.08.34l-1,.86a.22.22,0,0,1-.34,0,2.82,2.82,0,0,0-2.47-1.25,2.5,2.5,0,0,0-2.57,1.8A7.75,7.75,0,0,0,76.8,39a7.81,7.81,0,0,0,.26,2.35,2.5,2.5,0,0,0,2.57,1.8A2.82,2.82,0,0,0,82.1,42a.22.22,0,0,1,.34,0l1,.87c.15.12.15.21.08.33a4.62,4.62,0,0,1-3.94,2A4.46,4.46,0,0,1,75.09,42,10.15,10.15,0,0,1,74.73,39,10,10,0,0,1,75.09,36.14Z"/><path d="M85.2,42A8.48,8.48,0,0,1,84.81,39a8.37,8.37,0,0,1,.39-2.9,4.87,4.87,0,0,1,9.07,0,8.4,8.4,0,0,1,.38,2.9A8.52,8.52,0,0,1,94.27,42a4.87,4.87,0,0,1-9.07,0Zm7.13-.58A7.56,7.56,0,0,0,92.59,39a7.5,7.5,0,0,0-.26-2.33,2.77,2.77,0,0,0-5.19,0A7.5,7.5,0,0,0,86.88,39a7.56,7.56,0,0,0,.26,2.35,2.77,2.77,0,0,0,5.19,0Z"/><path d="M104.4,44.8a.22.22,0,0,1-.24-.24V37.84c0-1.85-.84-2.93-2.57-2.93A2.58,2.58,0,0,0,99,37.72v6.84a.23.23,0,0,1-.24.24H97.17a.23.23,0,0,1-.24-.24v-11a.23.23,0,0,1,.24-.24h1.54a.23.23,0,0,1,.24.24V34.6h0A3.65,3.65,0,0,1,102.19,33c2.5,0,4,1.7,4,4.32v7.2a.22.22,0,0,1-.24.24Z"/><path d="M113.52,42a9.05,9.05,0,0,1-.39-2.91,8.87,8.87,0,0,1,.36-2.9,4.84,4.84,0,0,1,9,0,10,10,0,0,1,.36,3.28.24.24,0,0,1-.27.25h-7.27a.12.12,0,0,0-.14.14,4.3,4.3,0,0,0,.19,1.39,2.84,2.84,0,0,0,2.9,2,3.78,3.78,0,0,0,3-1.27.25.25,0,0,1,.36-.05l1,.89a.22.22,0,0,1,0,.34,5.59,5.59,0,0,1-4.48,2A4.45,4.45,0,0,1,113.52,42Zm7.15-3.89c.1,0,.14-.05.14-.15a4,4,0,0,0-.16-1.29,2.84,2.84,0,0,0-5.28,0,4,4,0,0,0-.17,1.29c0,.1,0,.15.14.15Z"/><path d="M127.92,44.92c-2,0-2.81-1-2.81-3V28.72a.23.23,0,0,1,.24-.24h1.54a.23.23,0,0,1,.24.24V41.78c0,1,.36,1.27,1.15,1.27h.45a.23.23,0,0,1,.24.24v1.39a.22.22,0,0,1-.24.24Z"/><path d="M136.27,44.8a.22.22,0,0,1-.24-.24V35.08c0-.1-.05-.14-.15-.14h-1a.23.23,0,0,1-.24-.24V33.54a.23.23,0,0,1,.24-.24h1c.1,0,.15,0,.15-.14v-1c0-2.72,1.1-3.7,3.5-3.7h.89a.23.23,0,0,1,.24.24v1.39a.22.22,0,0,1-.24.24h-.62c-1.47,0-1.76.31-1.76,1.73v1.08c0,.1.05.14.15.14h2.23a.23.23,0,0,1,.24.24V34.7a.23.23,0,0,1-.24.24h-2.23c-.1,0-.15,0-.15.14v9.48a.22.22,0,0,1-.23.24Zm7.2-14.09a.23.23,0,0,1-.24-.24V28.72a.23.23,0,0,1,.24-.24h1.63a.23.23,0,0,1,.24.24v1.75a.22.22,0,0,1-.24.24Zm.05,14.09a.22.22,0,0,1-.24-.24v-11a.23.23,0,0,1,.24-.24h1.53a.23.23,0,0,1,.24.24v11a.22.22,0,0,1-.24.24Z"/><path d="M155.73,44.8a.23.23,0,0,1-.24-.24V37.84c0-1.85-.84-2.93-2.56-2.93a2.58,2.58,0,0,0-2.64,2.81v6.84a.23.23,0,0,1-.25.24h-1.53a.22.22,0,0,1-.24-.24v-11a.23.23,0,0,1,.24-.24H150a.23.23,0,0,1,.25.24V34.6h0A3.63,3.63,0,0,1,153.53,33c2.49,0,4,1.7,4,4.32v7.2a.23.23,0,0,1-.24.24Z"/><path d="M172.37,44.8a.23.23,0,0,1-.25-.24v-1.1h0a3.5,3.5,0,0,1-3.26,1.61,3.79,3.79,0,0,1-4-2.76,9.43,9.43,0,0,1-.41-3.27,9.29,9.29,0,0,1,.41-3.24,3.79,3.79,0,0,1,4-2.76,3.49,3.49,0,0,1,3.26,1.58h0v-5.9a.23.23,0,0,1,.25-.24h1.53a.23.23,0,0,1,.24.24V44.56a.22.22,0,0,1-.24.24Zm-.51-3.36a7.47,7.47,0,0,0,.26-2.4,7.59,7.59,0,0,0-.26-2.4,2.71,2.71,0,0,0-5.06,0,7.88,7.88,0,0,0-.27,2.4,7.68,7.68,0,0,0,.27,2.4,2.7,2.7,0,0,0,5.06,0Z"/><path d="M176.8,42a9.1,9.1,0,0,1-.38-2.91,8.87,8.87,0,0,1,.36-2.9,4.83,4.83,0,0,1,9,0,10,10,0,0,1,.36,3.28.23.23,0,0,1-.26.25h-7.27c-.1,0-.15,0-.15.14a4.27,4.27,0,0,0,.2,1.39,2.83,2.83,0,0,0,2.9,2,3.74,3.74,0,0,0,2.95-1.27.25.25,0,0,1,.36-.05l1,.89a.22.22,0,0,1,0,.34,5.59,5.59,0,0,1-4.49,2A4.45,4.45,0,0,1,176.8,42ZM184,38.06c.09,0,.14-.05.14-.15a4,4,0,0,0-.17-1.29,2.84,2.84,0,0,0-5.28,0,4,4,0,0,0-.17,1.29.13.13,0,0,0,.15.15Z"/><path d="M193.48,49.12a.23.23,0,0,1-.24-.24V33.54a.23.23,0,0,1,.24-.24H195a.23.23,0,0,1,.24.24v1.08h0A3.51,3.51,0,0,1,198.55,33a3.81,3.81,0,0,1,4,2.76,9.53,9.53,0,0,1,.41,3.24,9.68,9.68,0,0,1-.41,3.27,3.81,3.81,0,0,1-4,2.76,3.52,3.52,0,0,1-3.27-1.61h0v5.42a.23.23,0,0,1-.24.24Zm7.11-7.68a8,8,0,0,0,.26-2.4,8.26,8.26,0,0,0-.26-2.4,2.72,2.72,0,0,0-5.07,0,7.59,7.59,0,0,0-.26,2.4,7.47,7.47,0,0,0,.26,2.4,2.71,2.71,0,0,0,5.07,0Z"/><path d="M204.88,42A8.77,8.77,0,0,1,204.5,39a8.65,8.65,0,0,1,.38-2.9,4.87,4.87,0,0,1,9.08,0,8.65,8.65,0,0,1,.38,2.9A8.77,8.77,0,0,1,214,42a4.87,4.87,0,0,1-9.08,0Zm7.13-.58a7.5,7.5,0,0,0,.27-2.35,7.45,7.45,0,0,0-.27-2.33,2.76,2.76,0,0,0-5.18,0,7.45,7.45,0,0,0-.27,2.33,7.5,7.5,0,0,0,.27,2.35,2.76,2.76,0,0,0,5.18,0Z"/><path d="M224.08,44.8a.23.23,0,0,1-.24-.24V37.84c0-1.85-.84-2.93-2.56-2.93a2.58,2.58,0,0,0-2.64,2.81v6.84a.23.23,0,0,1-.24.24h-1.54a.23.23,0,0,1-.24-.24v-11a.23.23,0,0,1,.24-.24h1.54a.23.23,0,0,1,.24.24V34.6h0A3.63,3.63,0,0,1,221.88,33c2.49,0,4,1.7,4,4.32v7.2a.23.23,0,0,1-.24.24Z"/><path d="M228.4,42A9.1,9.1,0,0,1,228,39a8.87,8.87,0,0,1,.36-2.9,4.83,4.83,0,0,1,9,0,10,10,0,0,1,.36,3.28.23.23,0,0,1-.26.25h-7.27c-.1,0-.15,0-.15.14a4.27,4.27,0,0,0,.2,1.39,2.83,2.83,0,0,0,2.9,2,3.74,3.74,0,0,0,2.95-1.27.25.25,0,0,1,.36-.05l1,.89a.22.22,0,0,1,0,.34,5.59,5.59,0,0,1-4.49,2A4.45,4.45,0,0,1,228.4,42Zm7.16-3.89c.09,0,.14-.05.14-.15a4,4,0,0,0-.17-1.29,2.84,2.84,0,0,0-5.28,0,4,4,0,0,0-.17,1.29.13.13,0,0,0,.15.15Z"/><path d="M240.28,44.8a.23.23,0,0,1-.24-.24v-11a.23.23,0,0,1,.24-.24h1.54a.23.23,0,0,1,.24.24v1.18h0a3.23,3.23,0,0,1,3-1.68,3.56,3.56,0,0,1,2.35.86c.12.12.15.22.05.34l-.89,1.18a.21.21,0,0,1-.33,0,3.31,3.31,0,0,0-1.78-.55c-1.75,0-2.47,1.37-2.47,3.36v6.29a.23.23,0,0,1-.24.24Z"/><path d="M247.94,43.34a.23.23,0,0,1,0-.34l1-1a.23.23,0,0,1,.34,0,5.6,5.6,0,0,0,3.55,1.32c1.68,0,2.52-.73,2.52-1.76s-.43-1.41-2.23-1.61l-1.22-.12c-2.26-.24-3.44-1.36-3.44-3.24,0-2.18,1.56-3.5,4.28-3.5a6.88,6.88,0,0,1,4.08,1.27.23.23,0,0,1,0,.34l-.81,1a.24.24,0,0,1-.34,0,6,6,0,0,0-3.09-.94c-1.44,0-2.19.65-2.19,1.59s.55,1.39,2.26,1.56l1.2.12c2.33.21,3.45,1.39,3.45,3.24,0,2.25-1.63,3.77-4.63,3.77A7.18,7.18,0,0,1,247.94,43.34Z"/><path d="M259.22,42a9.05,9.05,0,0,1-.39-2.91,8.56,8.56,0,0,1,.37-2.9,4.83,4.83,0,0,1,9,0,10,10,0,0,1,.36,3.28.24.24,0,0,1-.26.25H261a.12.12,0,0,0-.14.14,4.3,4.3,0,0,0,.19,1.39,2.84,2.84,0,0,0,2.91,2A3.77,3.77,0,0,0,267,41.92a.25.25,0,0,1,.36-.05l1,.89a.22.22,0,0,1,0,.34,5.62,5.62,0,0,1-4.49,2A4.45,4.45,0,0,1,259.22,42Zm7.15-3.89a.13.13,0,0,0,.15-.15,4,4,0,0,0-.17-1.29,2.84,2.84,0,0,0-5.28,0,4,4,0,0,0-.17,1.29c0,.1.05.15.14.15Z"/><path d="M282.62,44.8a.23.23,0,0,1-.24-.24v-1h0A3.77,3.77,0,0,1,279,45.07c-2.19,0-3.87-1.13-3.87-3.46s1.68-3.55,4.49-3.55h2.62c.09,0,.14-.05.14-.15v-.84c0-1.58-.62-2.25-2.76-2.25a4.47,4.47,0,0,0-2.78.81c-.12.1-.27.1-.34,0l-.65-1.11a.24.24,0,0,1,.05-.33A6.4,6.4,0,0,1,279.76,33c3.27,0,4.52,1.08,4.52,3.91v7.61a.23.23,0,0,1-.24.24Zm-.29-3.72V39.81a.12.12,0,0,0-.14-.14h-2.31c-2,0-2.85.57-2.85,1.87s.86,1.8,2.4,1.8C281.23,43.34,282.33,42.5,282.33,41.08Z"/><path d="M291.16,43.34a.25.25,0,0,1,0-.34l1-1a.22.22,0,0,1,.33,0A5.63,5.63,0,0,0,296,43.27c1.68,0,2.52-.73,2.52-1.76s-.44-1.41-2.24-1.61l-1.22-.12c-2.26-.24-3.43-1.36-3.43-3.24,0-2.18,1.56-3.5,4.27-3.5A6.88,6.88,0,0,1,300,34.31a.24.24,0,0,1,.05.34l-.82,1a.23.23,0,0,1-.33,0,6.07,6.07,0,0,0-3.1-.94c-1.44,0-2.18.65-2.18,1.59s.55,1.39,2.25,1.56l1.2.12c2.33.21,3.46,1.39,3.46,3.24,0,2.25-1.63,3.77-4.63,3.77A7.19,7.19,0,0,1,291.16,43.34Z"/><path d="M309.71,44.8a.23.23,0,0,1-.24-.24v-1h0A3.77,3.77,0,0,1,306,45.07c-2.18,0-3.86-1.13-3.86-3.46s1.68-3.55,4.49-3.55h2.61a.13.13,0,0,0,.15-.15v-.84c0-1.58-.63-2.25-2.76-2.25a4.48,4.48,0,0,0-2.79.81c-.12.1-.26.1-.33,0l-.65-1.11a.24.24,0,0,1,.05-.33A6.36,6.36,0,0,1,306.86,33c3.26,0,4.51,1.08,4.51,3.91v7.61a.23.23,0,0,1-.24.24Zm-.28-3.72V39.81c0-.1-.05-.14-.15-.14H307c-2,0-2.86.57-2.86,1.87s.87,1.8,2.4,1.8C308.32,43.34,309.43,42.5,309.43,41.08Z"/><path d="M317,44.92c-2,0-2.81-1-2.81-3V28.72a.23.23,0,0,1,.24-.24H316a.23.23,0,0,1,.24.24V41.78c0,1,.36,1.27,1.15,1.27h.46a.23.23,0,0,1,.24.24v1.39a.23.23,0,0,1-.24.24Z"/><path d="M322.91,44.8a.27.27,0,0,1-.28-.24l-4.13-11c-.05-.14,0-.24.19-.24h1.66c.16,0,.24.08.31.24l3,8.26h.05l2.91-8.26a.29.29,0,0,1,.29-.24h1.63c.17,0,.24.1.19.24l-4.1,11a.31.31,0,0,1-.32.24Z"/><path d="M329.92,42a8.77,8.77,0,0,1-.38-2.93,8.65,8.65,0,0,1,.38-2.9,4.87,4.87,0,0,1,9.07,0,8.37,8.37,0,0,1,.39,2.9A8.48,8.48,0,0,1,339,42a4.87,4.87,0,0,1-9.07,0Zm7.13-.58a7.56,7.56,0,0,0,.26-2.35,7.5,7.5,0,0,0-.26-2.33,2.76,2.76,0,0,0-5.18,0A7.16,7.16,0,0,0,331.6,39a7.22,7.22,0,0,0,.27,2.35,2.76,2.76,0,0,0,5.18,0Z"/><path d="M341.37,42.5a.23.23,0,0,1,.24-.24h1.82a.22.22,0,0,1,.24.24v2.06a.22.22,0,0,1-.24.24h-1.82a.23.23,0,0,1-.24-.24Z"/></g></g></svg>