<svg xmlns="http://www.w3.org/2000/svg" viewBox="0 0 641.58 71.45"><title>2a</title><g id="Capa_2" data-name="Capa 2"><g id="respuestas_contorno" data-name="respuestas contorno"><path d="M.08,13.58a.24.24,0,0,1,0-.33L1,12.1a.2.2,0,0,1,.31,0,6.91,6.91,0,0,0,4.18,1.54c2.07,0,3.3-1,3.3-2.55,0-1.28-.72-2.14-3.12-2.44l-.75-.11C2,8.12.54,6.73.54,4.38.54,1.72,2.45,0,5.42,0A7.91,7.91,0,0,1,10,1.39a.19.19,0,0,1,0,.3L9.28,2.9A.22.22,0,0,1,9,3,6.62,6.62,0,0,0,5.36,1.83c-1.83,0-2.84,1-2.84,2.42,0,1.25.84,2.09,3.15,2.4l.72.1c2.93.4,4.4,1.74,4.4,4.19,0,2.61-1.84,4.51-5.45,4.51A8.22,8.22,0,0,1,.08,13.58Z"/><path d="M13,12.59a8.32,8.32,0,0,1-.36-2.67A8.17,8.17,0,0,1,13,7.26a4.09,4.09,0,0,1,4.14-2.84,4.1,4.1,0,0,1,4.14,2.84,9.21,9.21,0,0,1,.33,3,.22.22,0,0,1-.24.22H14.71c-.09,0-.13,0-.13.13a3.93,3.93,0,0,0,.17,1.27,2.62,2.62,0,0,0,2.67,1.83,3.43,3.43,0,0,0,2.7-1.17.22.22,0,0,1,.33,0l.9.81a.21.21,0,0,1,0,.31,5.13,5.13,0,0,1-4.12,1.81A4.08,4.08,0,0,1,13,12.59ZM19.59,9c.09,0,.13,0,.13-.13a3.75,3.75,0,0,0-.15-1.19,2.38,2.38,0,0,0-2.42-1.65A2.38,2.38,0,0,0,14.73,7.7a3.75,3.75,0,0,0-.15,1.19c0,.09,0,.13.13.13Z"/><path d="M35.59,15.2a.2.2,0,0,1-.22-.22V14h0a3.19,3.19,0,0,1-3,1.48,3.49,3.49,0,0,1-3.63-2.53,9,9,0,0,1-.37-3,8.92,8.92,0,0,1,.37-3,3.49,3.49,0,0,1,3.63-2.53,3.18,3.18,0,0,1,3,1.46h0V.46a.2.2,0,0,1,.22-.22H37a.2.2,0,0,1,.21.22V15a.2.2,0,0,1-.21.22Zm-.46-3.08a6.92,6.92,0,0,0,.24-2.2,7.08,7.08,0,0,0-.24-2.2,2.26,2.26,0,0,0-2.34-1.58,2.24,2.24,0,0,0-2.31,1.58,7.78,7.78,0,0,0-.24,2.2,7.51,7.51,0,0,0,.24,2.2,2.48,2.48,0,0,0,4.65,0Z"/><path d="M40.1,12.59a8.32,8.32,0,0,1-.36-2.67,8.17,8.17,0,0,1,.33-2.66,4.09,4.09,0,0,1,4.14-2.84,4.1,4.1,0,0,1,4.14,2.84,9.21,9.21,0,0,1,.33,3,.22.22,0,0,1-.25.22H41.77c-.09,0-.13,0-.13.13a3.93,3.93,0,0,0,.17,1.27,2.61,2.61,0,0,0,2.66,1.83,3.44,3.44,0,0,0,2.71-1.17.22.22,0,0,1,.33,0l.9.81a.2.2,0,0,1,0,.31,5.1,5.1,0,0,1-4.11,1.81A4.08,4.08,0,0,1,40.1,12.59ZM46.65,9c.09,0,.13,0,.13-.13a3.75,3.75,0,0,0-.15-1.19,2.6,2.6,0,0,0-4.84,0,3.75,3.75,0,0,0-.15,1.19c0,.09,0,.13.13.13Z"/><path d="M51.42,15.2a.2.2,0,0,1-.21-.22V.46a.2.2,0,0,1,.21-.22h1.41a.21.21,0,0,1,.22.22V5.88h0a3.18,3.18,0,0,1,3-1.46A3.49,3.49,0,0,1,59.7,7a8.92,8.92,0,0,1,.37,3,9,9,0,0,1-.37,3,3.49,3.49,0,0,1-3.63,2.53,3.19,3.19,0,0,1-3-1.48h0v1a.2.2,0,0,1-.22.22Zm6.52-3.08a7.51,7.51,0,0,0,.24-2.2,7.78,7.78,0,0,0-.24-2.2,2.49,2.49,0,0,0-4.64,0,6.73,6.73,0,0,0-.25,2.2,6.58,6.58,0,0,0,.25,2.2,2.48,2.48,0,0,0,4.64,0Z"/><path d="M62.31,12.59A8.36,8.36,0,0,1,62,9.92a8.17,8.17,0,0,1,.33-2.66,4.44,4.44,0,0,1,8.28,0,9.21,9.21,0,0,1,.33,3,.22.22,0,0,1-.25.22H64c-.09,0-.13,0-.13.13A3.93,3.93,0,0,0,64,11.9a2.61,2.61,0,0,0,2.66,1.83,3.44,3.44,0,0,0,2.71-1.17.22.22,0,0,1,.33,0l.9.81a.2.2,0,0,1,0,.31,5.1,5.1,0,0,1-4.11,1.81A4.1,4.1,0,0,1,62.31,12.59ZM68.87,9C69,9,69,9,69,8.89a3.75,3.75,0,0,0-.15-1.19A2.6,2.6,0,0,0,64,7.7a3.75,3.75,0,0,0-.15,1.19c0,.09,0,.13.13.13Z"/><path d="M78.48,15.2a.2.2,0,0,1-.22-.22V4.88a.21.21,0,0,1,.22-.22h1.41a.21.21,0,0,1,.22.22V6h0a3,3,0,0,1,2.8-1.54,3.26,3.26,0,0,1,2.16.79c.11.11.13.2,0,.31L84.32,6.6a.21.21,0,0,1-.31.05,3,3,0,0,0-1.63-.51c-1.61,0-2.27,1.25-2.27,3.08V15a.2.2,0,0,1-.22.22Z"/><path d="M86.16,12.59a8.36,8.36,0,0,1-.35-2.67,8.17,8.17,0,0,1,.33-2.66,4.43,4.43,0,0,1,8.27,0,9.21,9.21,0,0,1,.33,3,.21.21,0,0,1-.24.22H87.83a.12.12,0,0,0-.13.13,3.9,3.9,0,0,0,.18,1.27,2.6,2.6,0,0,0,2.66,1.83,3.46,3.46,0,0,0,2.71-1.17.22.22,0,0,1,.33,0l.9.81a.2.2,0,0,1,0,.31,5.1,5.1,0,0,1-4.11,1.81A4.08,4.08,0,0,1,86.16,12.59ZM92.72,9c.09,0,.13,0,.13-.13A3.75,3.75,0,0,0,92.7,7.7a2.6,2.6,0,0,0-4.84,0,3.72,3.72,0,0,0-.16,1.19.12.12,0,0,0,.13.13Z"/><path d="M103.65,15.2a.2.2,0,0,1-.22-.22v-.92h0a3.46,3.46,0,0,1-3.12,1.39c-2,0-3.55-1-3.55-3.17S98.28,9,100.86,9h2.4a.12.12,0,0,0,.13-.13V8.12c0-1.45-.57-2.07-2.53-2.07a4.07,4.07,0,0,0-2.55.75c-.11.09-.25.09-.31,0l-.6-1a.24.24,0,0,1,0-.31,5.8,5.8,0,0,1,3.58-1c3,0,4.14,1,4.14,3.59v7a.2.2,0,0,1-.22.22Zm-.26-3.41V10.63a.12.12,0,0,0-.13-.13h-2.12c-1.82,0-2.61.52-2.61,1.71s.79,1.65,2.2,1.65C102.38,13.86,103.39,13.09,103.39,11.79Z"/><path d="M110.78,15.31c-1.85,0-2.57-.88-2.57-2.77V.46a.2.2,0,0,1,.22-.22h1.4a.2.2,0,0,1,.22.22v12c0,.88.33,1.17,1.06,1.17h.42a.21.21,0,0,1,.22.22v1.27a.2.2,0,0,1-.22.22Z"/><path d="M114.08,2.29a.21.21,0,0,1-.22-.22V.46a.21.21,0,0,1,.22-.22h1.5a.21.21,0,0,1,.22.22V2.07a.21.21,0,0,1-.22.22Zm0,12.91a.2.2,0,0,1-.22-.22V4.88a.21.21,0,0,1,.22-.22h1.41a.21.21,0,0,1,.22.22V15a.2.2,0,0,1-.22.22Z"/><path d="M118.55,15.2a.21.21,0,0,1-.23-.22V13.82a.34.34,0,0,1,.09-.24l5.79-7.2v0h-5.37a.21.21,0,0,1-.22-.22V4.88a.21.21,0,0,1,.22-.22h7.35a.21.21,0,0,1,.22.22V6.12a.32.32,0,0,1-.09.24l-5.74,7.13v0h5.61a.21.21,0,0,1,.22.22V15a.2.2,0,0,1-.22.22Z"/><path d="M135.35,15.2a.2.2,0,0,1-.22-.22v-.92h0A3.46,3.46,0,0,1,132,15.45c-2,0-3.55-1-3.55-3.17S130,9,132.56,9H135c.09,0,.13,0,.13-.13V8.12c0-1.45-.57-2.07-2.53-2.07A4.07,4.07,0,0,0,130,6.8c-.11.09-.25.09-.31,0l-.6-1a.24.24,0,0,1,.05-.31,5.81,5.81,0,0,1,3.59-1c3,0,4.13,1,4.13,3.59v7a.2.2,0,0,1-.22.22Zm-.26-3.41V10.63c0-.09,0-.13-.13-.13h-2.12c-1.82,0-2.61.52-2.61,1.71s.79,1.65,2.2,1.65C134.08,13.86,135.09,13.09,135.09,11.79Z"/><path d="M140.17,15.2A.2.2,0,0,1,140,15V4.88a.21.21,0,0,1,.22-.22h1.41a.21.21,0,0,1,.22.22V6h0a2.94,2.94,0,0,1,2.8-1.54,3.26,3.26,0,0,1,2.15.79c.11.11.13.2,0,.31L146,6.6a.21.21,0,0,1-.31.05,2.93,2.93,0,0,0-1.62-.51c-1.61,0-2.27,1.25-2.27,3.08V15a.2.2,0,0,1-.22.22Z"/><path d="M160,15.2a.2.2,0,0,1-.22-.22V14h0a3.22,3.22,0,0,1-2.88,1.46c-2.31,0-3.65-1.59-3.65-4V4.88a.2.2,0,0,1,.22-.22h1.4a.2.2,0,0,1,.22.22V11c0,1.72.77,2.71,2.34,2.71a2.34,2.34,0,0,0,2.37-2.6V4.88a.21.21,0,0,1,.22-.22h1.41a.21.21,0,0,1,.22.22V15a.2.2,0,0,1-.22.22Z"/><path d="M171.63,15.2a.2.2,0,0,1-.22-.22V8.82c0-1.69-.77-2.68-2.35-2.68a2.36,2.36,0,0,0-2.42,2.57V15a.2.2,0,0,1-.22.22H165a.2.2,0,0,1-.22-.22V4.88a.21.21,0,0,1,.22-.22h1.41a.21.21,0,0,1,.22.22v1h0a3.34,3.34,0,0,1,3-1.43c2.28,0,3.65,1.56,3.65,4V15a.2.2,0,0,1-.22.22Z"/><path d="M180.85,7.26A4.09,4.09,0,0,1,185,4.42a4.2,4.2,0,0,1,3.6,1.79c.07.1.07.19-.06.3l-1,.8a.21.21,0,0,1-.31,0A2.58,2.58,0,0,0,185,6.14a2.29,2.29,0,0,0-2.36,1.65,7.21,7.21,0,0,0-.24,2.13,7.3,7.3,0,0,0,.24,2.16A2.29,2.29,0,0,0,185,13.73a2.58,2.58,0,0,0,2.26-1.14.21.21,0,0,1,.31,0l1,.8c.13.11.13.19.06.3a4.22,4.22,0,0,1-3.6,1.79,4.09,4.09,0,0,1-4.16-2.84,9.08,9.08,0,0,1-.33-2.69A9,9,0,0,1,180.85,7.26Z"/><path d="M197.94,15.2a.2.2,0,0,1-.22-.22V8.82c0-1.69-.77-2.68-2.35-2.68A2.36,2.36,0,0,0,193,8.71V15a.2.2,0,0,1-.22.22h-1.41a.2.2,0,0,1-.22-.22V.46a.21.21,0,0,1,.22-.22h1.41a.21.21,0,0,1,.22.22V5.85h0a3.35,3.35,0,0,1,2.95-1.43c2.29,0,3.65,1.56,3.65,4V15a.2.2,0,0,1-.22.22Z"/><path d="M202.34,12.59A8.36,8.36,0,0,1,202,9.92a8.17,8.17,0,0,1,.33-2.66,4.43,4.43,0,0,1,8.27,0,9.21,9.21,0,0,1,.33,3,.22.22,0,0,1-.24.22H204c-.09,0-.13,0-.13.13a3.9,3.9,0,0,0,.18,1.27,2.6,2.6,0,0,0,2.66,1.83,3.47,3.47,0,0,0,2.71-1.17.22.22,0,0,1,.33,0l.9.81a.2.2,0,0,1,0,.31,5.12,5.12,0,0,1-4.11,1.81A4.08,4.08,0,0,1,202.34,12.59ZM208.9,9c.09,0,.13,0,.13-.13a3.75,3.75,0,0,0-.15-1.19,2.6,2.6,0,0,0-4.84,0,3.46,3.46,0,0,0-.16,1.19c0,.09,0,.13.13.13Z"/><path d="M220.05,19.16a.2.2,0,0,1-.22-.22V14h0a3.21,3.21,0,0,1-3,1.48,3.48,3.48,0,0,1-3.63-2.53,8.72,8.72,0,0,1-.38-3,8.64,8.64,0,0,1,.38-3,3.48,3.48,0,0,1,3.63-2.53,3.2,3.2,0,0,1,3,1.46h0v-1a.21.21,0,0,1,.22-.22h1.41a.21.21,0,0,1,.22.22V18.94a.2.2,0,0,1-.22.22Zm-.46-7a6.63,6.63,0,0,0,.24-2.2,6.79,6.79,0,0,0-.24-2.2,2.49,2.49,0,0,0-4.64,0,7.43,7.43,0,0,0-.24,2.2,7.18,7.18,0,0,0,.24,2.2,2.48,2.48,0,0,0,4.64,0Z"/><path d="M231.47,15.2a.2.2,0,0,1-.22-.22V14h0a3.23,3.23,0,0,1-2.89,1.46c-2.31,0-3.65-1.59-3.65-4V4.88a.21.21,0,0,1,.22-.22h1.41a.21.21,0,0,1,.22.22V11c0,1.72.77,2.71,2.33,2.71a2.34,2.34,0,0,0,2.38-2.6V4.88a.21.21,0,0,1,.22-.22h1.41a.21.21,0,0,1,.22.22V15a.2.2,0,0,1-.22.22Z"/><path d="M236,12.59a8.36,8.36,0,0,1-.35-2.67A8.17,8.17,0,0,1,236,7.26a4.43,4.43,0,0,1,8.27,0,9.21,9.21,0,0,1,.33,3,.22.22,0,0,1-.24.22h-6.67c-.09,0-.13,0-.13.13a4.23,4.23,0,0,0,.17,1.27,2.62,2.62,0,0,0,2.67,1.83,3.43,3.43,0,0,0,2.7-1.17.22.22,0,0,1,.33,0l.91.81a.2.2,0,0,1,0,.31,5.13,5.13,0,0,1-4.12,1.81A4.08,4.08,0,0,1,236,12.59ZM242.54,9a.12.12,0,0,0,.13-.13,3.72,3.72,0,0,0-.16-1.19,2.6,2.6,0,0,0-4.84,0,3.75,3.75,0,0,0-.15,1.19c0,.09,0,.13.13.13Z"/><path d="M246.8,12.61a8,8,0,0,1-.35-2.69,7.92,7.92,0,0,1,.35-2.66,4.47,4.47,0,0,1,8.32,0,7.92,7.92,0,0,1,.35,2.66,8,8,0,0,1-.35,2.69,4.47,4.47,0,0,1-8.32,0Zm6.54-.53a7.09,7.09,0,0,0,.24-2.16,6.91,6.91,0,0,0-.24-2.13,2.54,2.54,0,0,0-4.76,0,6.91,6.91,0,0,0-.24,2.13,7.09,7.09,0,0,0,.24,2.16,2.54,2.54,0,0,0,4.76,0Z"/><path d="M263.06,19.16a.2.2,0,0,1-.22-.22V4.88a.21.21,0,0,1,.22-.22h1.41a.21.21,0,0,1,.22.22v1h0a3.2,3.2,0,0,1,3-1.46A3.48,3.48,0,0,1,271.33,7a8.64,8.64,0,0,1,.38,3,8.72,8.72,0,0,1-.38,3,3.48,3.48,0,0,1-3.63,2.53,3.21,3.21,0,0,1-3-1.48h0v5a.2.2,0,0,1-.22.22Zm6.51-7a7.14,7.14,0,0,0,.25-2.2,7.39,7.39,0,0,0-.25-2.2,2.49,2.49,0,0,0-4.64,0,6.79,6.79,0,0,0-.24,2.2,6.63,6.63,0,0,0,.24,2.2,2.48,2.48,0,0,0,4.64,0Z"/><path d="M274.46,15.2a.2.2,0,0,1-.22-.22V4.88a.2.2,0,0,1,.22-.22h1.4a.2.2,0,0,1,.22.22V6h0a2.93,2.93,0,0,1,2.79-1.54,3.26,3.26,0,0,1,2.16.79c.11.11.13.2,0,.31l-.81,1.08a.21.21,0,0,1-.31.05,2.94,2.94,0,0,0-1.63-.51c-1.61,0-2.27,1.25-2.27,3.08V15a.2.2,0,0,1-.22.22Z"/><path d="M282.13,12.59a8.36,8.36,0,0,1-.35-2.67,8.17,8.17,0,0,1,.33-2.66,4.43,4.43,0,0,1,8.27,0,9.21,9.21,0,0,1,.33,3,.21.21,0,0,1-.24.22h-6.66c-.09,0-.14,0-.14.13a3.9,3.9,0,0,0,.18,1.27,2.6,2.6,0,0,0,2.66,1.83,3.44,3.44,0,0,0,2.71-1.17.22.22,0,0,1,.33,0l.9.81a.2.2,0,0,1,0,.31,5.1,5.1,0,0,1-4.11,1.81A4.09,4.09,0,0,1,282.13,12.59ZM288.69,9c.09,0,.13,0,.13-.13a3.75,3.75,0,0,0-.15-1.19,2.6,2.6,0,0,0-4.84,0,3.72,3.72,0,0,0-.16,1.19c0,.09.05.13.14.13Z"/><path d="M296.06,15.2c-.15,0-.22-.08-.26-.22L292,4.88c0-.13,0-.22.18-.22h1.52c.15,0,.22.07.28.22l2.73,7.57h0l2.67-7.57a.26.26,0,0,1,.26-.22h1.5c.15,0,.22.09.17.22L297.6,15a.27.27,0,0,1-.29.22Z"/><path d="M303.47,2.29a.21.21,0,0,1-.22-.22V.46a.21.21,0,0,1,.22-.22H305a.21.21,0,0,1,.22.22V2.07a.21.21,0,0,1-.22.22Zm0,12.91a.2.2,0,0,1-.22-.22V4.88a.2.2,0,0,1,.22-.22h1.41a.21.21,0,0,1,.22.22V15a.2.2,0,0,1-.22.22Z"/><path d="M308,12.61a8,8,0,0,1-.36-2.69A7.88,7.88,0,0,1,308,7.26a4.46,4.46,0,0,1,8.31,0,7.64,7.64,0,0,1,.36,2.66,7.71,7.71,0,0,1-.36,2.69,4.46,4.46,0,0,1-8.31,0Zm6.53-.53a6.78,6.78,0,0,0,.24-2.16,6.61,6.61,0,0,0-.24-2.13,2.53,2.53,0,0,0-4.75,0,6.61,6.61,0,0,0-.24,2.13,6.78,6.78,0,0,0,.24,2.16,2.53,2.53,0,0,0,4.75,0Z"/><path d="M324.29,19.16a.21.21,0,0,1-.23-.22V4.88a.21.21,0,0,1,.23-.22h1.4a.2.2,0,0,1,.22.22v1h0a3.2,3.2,0,0,1,3-1.46A3.49,3.49,0,0,1,332.56,7a8.92,8.92,0,0,1,.37,3,9,9,0,0,1-.37,3,3.49,3.49,0,0,1-3.63,2.53,3.21,3.21,0,0,1-3-1.48h0v5a.2.2,0,0,1-.22.22Zm6.51-7a7.51,7.51,0,0,0,.24-2.2,7.78,7.78,0,0,0-.24-2.2,2.49,2.49,0,0,0-4.64,0,6.73,6.73,0,0,0-.25,2.2,6.58,6.58,0,0,0,.25,2.2,2.48,2.48,0,0,0,4.64,0Z"/><path d="M341.84,15.2a.2.2,0,0,1-.22-.22v-.92h0a3.46,3.46,0,0,1-3.12,1.39c-2,0-3.55-1-3.55-3.17S336.47,9,339.05,9h2.4a.12.12,0,0,0,.13-.13V8.12c0-1.45-.57-2.07-2.53-2.07a4.07,4.07,0,0,0-2.55.75c-.12.09-.25.09-.31,0l-.6-1a.24.24,0,0,1,.05-.31,5.8,5.8,0,0,1,3.58-1c3,0,4.14,1,4.14,3.59v7a.2.2,0,0,1-.22.22Zm-.26-3.41V10.63a.12.12,0,0,0-.13-.13h-2.12c-1.82,0-2.62.52-2.62,1.71s.8,1.65,2.21,1.65C340.57,13.86,341.58,13.09,341.58,11.79Z"/><path d="M346.66,15.2a.2.2,0,0,1-.22-.22V4.88a.21.21,0,0,1,.22-.22h1.41a.21.21,0,0,1,.22.22V6h0a2.94,2.94,0,0,1,2.79-1.54,3.26,3.26,0,0,1,2.16.79c.11.11.13.2,0,.31l-.81,1.08a.21.21,0,0,1-.31.05,2.94,2.94,0,0,0-1.63-.51c-1.6,0-2.26,1.25-2.26,3.08V15a.2.2,0,0,1-.22.22Z"/><path d="M360.87,15.2a.2.2,0,0,1-.22-.22v-.92h0a3.47,3.47,0,0,1-3.13,1.39c-2,0-3.54-1-3.54-3.17S355.5,9,358.08,9h2.39c.09,0,.14,0,.14-.13V8.12c0-1.45-.57-2.07-2.53-2.07a4.13,4.13,0,0,0-2.56.75c-.11.09-.24.09-.3,0l-.6-1a.24.24,0,0,1,.05-.31,5.8,5.8,0,0,1,3.58-1c3,0,4.14,1,4.14,3.59v7a.2.2,0,0,1-.22.22Zm-.26-3.41V10.63c0-.09-.05-.13-.14-.13h-2.11c-1.82,0-2.62.52-2.62,1.71s.8,1.65,2.2,1.65C359.59,13.86,360.61,13.09,360.61,11.79Z"/><path d="M373.12,15.2c-.15,0-.22-.08-.26-.22l-3.78-10.1c-.05-.13,0-.22.17-.22h1.52c.15,0,.22.07.29.22l2.72,7.57h.05l2.66-7.57c.05-.15.13-.22.26-.22h1.5c.16,0,.22.09.18.22L374.66,15a.27.27,0,0,1-.28.22Z"/><path d="M380,12.59a8.36,8.36,0,0,1-.35-2.67A8.17,8.17,0,0,1,380,7.26a4.43,4.43,0,0,1,8.27,0,9.21,9.21,0,0,1,.33,3,.22.22,0,0,1-.24.22h-6.67c-.09,0-.13,0-.13.13a3.93,3.93,0,0,0,.17,1.27,2.62,2.62,0,0,0,2.67,1.83,3.43,3.43,0,0,0,2.7-1.17.22.22,0,0,1,.33,0l.9.81a.19.19,0,0,1,0,.31,5.13,5.13,0,0,1-4.12,1.81A4.08,4.08,0,0,1,380,12.59ZM386.55,9a.12.12,0,0,0,.13-.13,3.72,3.72,0,0,0-.16-1.19,2.6,2.6,0,0,0-4.84,0,3.75,3.75,0,0,0-.15,1.19c0,.09,0,.13.13.13Z"/><path d="M391.32,15.2a.2.2,0,0,1-.22-.22V4.88a.21.21,0,0,1,.22-.22h1.41a.21.21,0,0,1,.22.22V6h0a2.93,2.93,0,0,1,2.79-1.54,3.26,3.26,0,0,1,2.16.79c.11.11.13.2,0,.31l-.81,1.08a.21.21,0,0,1-.31.05,2.94,2.94,0,0,0-1.63-.51c-1.6,0-2.26,1.25-2.26,3.08V15a.2.2,0,0,1-.22.22Z"/><path d="M399.85,2.29a.21.21,0,0,1-.22-.22V.46a.21.21,0,0,1,.22-.22h1.5a.21.21,0,0,1,.22.22V2.07a.21.21,0,0,1-.22.22Zm0,12.91a.2.2,0,0,1-.22-.22V4.88a.2.2,0,0,1,.22-.22h1.41a.21.21,0,0,1,.22.22V15a.2.2,0,0,1-.22.22Z"/><path d="M405.26,15.2a.2.2,0,0,1-.21-.22V6.29a.12.12,0,0,0-.14-.13H404a.21.21,0,0,1-.22-.22V4.88a.21.21,0,0,1,.22-.22h.9c.09,0,.14,0,.14-.13v-.9c0-2.49,1-3.39,3.21-3.39h.81a.21.21,0,0,1,.22.22V1.74a.21.21,0,0,1-.22.22h-.57c-1.34,0-1.61.28-1.61,1.58v1c0,.09.05.13.14.13h2a.21.21,0,0,1,.22.22V5.94a.21.21,0,0,1-.22.22h-2a.12.12,0,0,0-.14.13V15a.2.2,0,0,1-.22.22Zm6.61-12.91a.2.2,0,0,1-.22-.22V.46a.2.2,0,0,1,.22-.22h1.49a.21.21,0,0,1,.22.22V2.07a.21.21,0,0,1-.22.22Zm0,12.91a.2.2,0,0,1-.22-.22V4.88a.21.21,0,0,1,.22-.22h1.41a.21.21,0,0,1,.22.22V15a.2.2,0,0,1-.22.22Z"/><path d="M416.4,7.26a4.08,4.08,0,0,1,4.15-2.84,4.21,4.21,0,0,1,3.61,1.79c.07.1.07.19-.06.3l-1,.8a.21.21,0,0,1-.31,0,2.58,2.58,0,0,0-2.27-1.14,2.28,2.28,0,0,0-2.35,1.65A6.89,6.89,0,0,0,418,9.92a7,7,0,0,0,.24,2.16,2.28,2.28,0,0,0,2.35,1.65,2.58,2.58,0,0,0,2.27-1.14.21.21,0,0,1,.31,0l1,.8c.13.11.13.19.06.3a4.23,4.23,0,0,1-3.61,1.79,4.08,4.08,0,0,1-4.15-2.84,9.08,9.08,0,0,1-.33-2.69A9,9,0,0,1,416.4,7.26Z"/><path d="M432.77,15.2a.2.2,0,0,1-.22-.22v-.92h0a3.46,3.46,0,0,1-3.12,1.39c-2,0-3.54-1-3.54-3.17S427.4,9,430,9h2.4c.09,0,.13,0,.13-.13V8.12c0-1.45-.57-2.07-2.53-2.07a4.09,4.09,0,0,0-2.55.75.2.2,0,0,1-.31,0l-.59-1a.23.23,0,0,1,0-.31,5.83,5.83,0,0,1,3.59-1c3,0,4.13,1,4.13,3.59v7a.2.2,0,0,1-.22.22Zm-.27-3.41V10.63c0-.09,0-.13-.13-.13h-2.11c-1.83,0-2.62.52-2.62,1.71s.79,1.65,2.2,1.65C431.49,13.86,432.5,13.09,432.5,11.79Z"/><path d="M437.58,15.2a.2.2,0,0,1-.22-.22V4.88a.21.21,0,0,1,.22-.22H439a.21.21,0,0,1,.22.22V6h0A2.94,2.94,0,0,1,442,4.42a3.24,3.24,0,0,1,2.15.79c.11.11.14.2.05.31l-.82,1.08a.21.21,0,0,1-.31.05,2.93,2.93,0,0,0-1.62-.51c-1.61,0-2.27,1.25-2.27,3.08V15a.2.2,0,0,1-.22.22Z"/><path d="M457.38,19.16a.2.2,0,0,1-.22-.22V14h0a3.21,3.21,0,0,1-3,1.48,3.48,3.48,0,0,1-3.63-2.53,8.72,8.72,0,0,1-.38-3,8.64,8.64,0,0,1,.38-3,3.48,3.48,0,0,1,3.63-2.53,3.2,3.2,0,0,1,3,1.46h0v-1a.21.21,0,0,1,.22-.22h1.41a.21.21,0,0,1,.22.22V18.94a.2.2,0,0,1-.22.22Zm-.46-7a6.63,6.63,0,0,0,.24-2.2,6.79,6.79,0,0,0-.24-2.2,2.49,2.49,0,0,0-4.64,0,7.43,7.43,0,0,0-.24,2.2,7.18,7.18,0,0,0,.24,2.2,2.48,2.48,0,0,0,4.64,0Z"/><path d="M468.8,15.2a.2.2,0,0,1-.22-.22V14h0a3.22,3.22,0,0,1-2.88,1.46c-2.31,0-3.66-1.59-3.66-4V4.88a.21.21,0,0,1,.22-.22h1.41a.21.21,0,0,1,.22.22V11c0,1.72.77,2.71,2.33,2.71a2.34,2.34,0,0,0,2.38-2.6V4.88a.21.21,0,0,1,.22-.22h1.41a.21.21,0,0,1,.22.22V15a.2.2,0,0,1-.22.22Z"/><path d="M473.31,12.59A8.36,8.36,0,0,1,473,9.92a8.17,8.17,0,0,1,.33-2.66,4.43,4.43,0,0,1,8.27,0,9.21,9.21,0,0,1,.33,3,.22.22,0,0,1-.24.22H475c-.09,0-.13,0-.13.13A3.9,3.9,0,0,0,475,11.9a2.6,2.6,0,0,0,2.66,1.83,3.43,3.43,0,0,0,2.7-1.17.22.22,0,0,1,.33,0l.91.81a.2.2,0,0,1,0,.31,5.13,5.13,0,0,1-4.12,1.81A4.08,4.08,0,0,1,473.31,12.59ZM479.87,9a.12.12,0,0,0,.13-.13,3.72,3.72,0,0,0-.16-1.19,2.6,2.6,0,0,0-4.84,0,3.75,3.75,0,0,0-.15,1.19c0,.09,0,.13.13.13Z"/><path d="M489,7.26a4.1,4.1,0,0,1,4.16-2.84,4.21,4.21,0,0,1,3.61,1.79c.06.1.06.19-.07.3l-1,.8a.19.19,0,0,1-.3,0,2.59,2.59,0,0,0-2.27-1.14,2.3,2.3,0,0,0-2.36,1.65,7.21,7.21,0,0,0-.24,2.13,7.3,7.3,0,0,0,.24,2.16,2.3,2.3,0,0,0,2.36,1.65,2.59,2.59,0,0,0,2.27-1.14.19.19,0,0,1,.3,0l1,.8c.13.11.13.19.07.3a4.23,4.23,0,0,1-3.61,1.79A4.1,4.1,0,0,1,489,12.61a9.08,9.08,0,0,1-.33-2.69A9,9,0,0,1,489,7.26Z"/><path d="M505.83,15.2a.2.2,0,0,1-.22-.22V14h0a3.21,3.21,0,0,1-2.88,1.46c-2.31,0-3.65-1.59-3.65-4V4.88a.21.21,0,0,1,.22-.22h1.41a.21.21,0,0,1,.22.22V11c0,1.72.77,2.71,2.33,2.71a2.34,2.34,0,0,0,2.38-2.6V4.88a.2.2,0,0,1,.22-.22h1.4a.2.2,0,0,1,.22.22V15a.2.2,0,0,1-.22.22Z"/><path d="M510.33,12.59A8.36,8.36,0,0,1,510,9.92a8.17,8.17,0,0,1,.33-2.66,4.44,4.44,0,0,1,8.28,0,9.21,9.21,0,0,1,.33,3,.22.22,0,0,1-.25.22H512c-.09,0-.13,0-.13.13a3.93,3.93,0,0,0,.17,1.27,2.61,2.61,0,0,0,2.66,1.83,3.44,3.44,0,0,0,2.71-1.17.22.22,0,0,1,.33,0l.9.81a.2.2,0,0,1,0,.31,5.1,5.1,0,0,1-4.11,1.81A4.09,4.09,0,0,1,510.33,12.59ZM516.89,9c.09,0,.13,0,.13-.13a3.75,3.75,0,0,0-.15-1.19,2.6,2.6,0,0,0-4.84,0,3.75,3.75,0,0,0-.15,1.19c0,.09,0,.13.13.13Z"/><path d="M528.29,15.2a.2.2,0,0,1-.22-.22V8.82c0-1.69-.77-2.68-2.36-2.68a2.36,2.36,0,0,0-2.42,2.57V15a.2.2,0,0,1-.22.22h-1.41a.2.2,0,0,1-.22-.22V4.88a.21.21,0,0,1,.22-.22h1.41a.21.21,0,0,1,.22.22v1h0a3.35,3.35,0,0,1,3-1.43c2.29,0,3.66,1.56,3.66,4V15a.2.2,0,0,1-.22.22Z"/><path d="M536,15.31c-2,0-2.84-.92-2.84-3v-6a.12.12,0,0,0-.13-.13h-.88a.21.21,0,0,1-.22-.22V4.88a.21.21,0,0,1,.22-.22h.88c.09,0,.13,0,.13-.13v-3a.21.21,0,0,1,.22-.22h1.41a.21.21,0,0,1,.22.22v3c0,.09,0,.13.13.13h1.67a.2.2,0,0,1,.22.22V5.94a.2.2,0,0,1-.22.22h-1.67a.12.12,0,0,0-.13.13v6c0,1.05.4,1.34,1.34,1.34h.46a.2.2,0,0,1,.22.22v1.27a.2.2,0,0,1-.22.22Z"/><path d="M545.86,15.2a.2.2,0,0,1-.22-.22v-.92h0a3.46,3.46,0,0,1-3.12,1.39c-2,0-3.54-1-3.54-3.17S540.5,9,543.07,9h2.4c.09,0,.13,0,.13-.13V8.12c0-1.45-.57-2.07-2.53-2.07a4.07,4.07,0,0,0-2.55.75.2.2,0,0,1-.31,0l-.59-1a.23.23,0,0,1,0-.31,5.81,5.81,0,0,1,3.59-1c3,0,4.13,1,4.13,3.59v7a.2.2,0,0,1-.22.22Zm-.26-3.41V10.63c0-.09,0-.13-.13-.13h-2.11c-1.83,0-2.62.52-2.62,1.71s.79,1.65,2.2,1.65C544.59,13.86,545.6,13.09,545.6,11.79Z"/><path d="M555,7.26a4.1,4.1,0,0,1,4.16-2.84,4.21,4.21,0,0,1,3.61,1.79c.07.1.07.19-.07.3l-1,.8a.21.21,0,0,1-.31,0,2.59,2.59,0,0,0-2.27-1.14,2.28,2.28,0,0,0-2.35,1.65,6.89,6.89,0,0,0-.24,2.13,7,7,0,0,0,.24,2.16,2.28,2.28,0,0,0,2.35,1.65,2.59,2.59,0,0,0,2.27-1.14.21.21,0,0,1,.31,0l1,.8c.14.11.14.19.07.3a4.23,4.23,0,0,1-3.61,1.79A4.1,4.1,0,0,1,555,12.61a9.43,9.43,0,0,1-.33-2.69A9.35,9.35,0,0,1,555,7.26Z"/><path d="M564.7,12.61a7.71,7.71,0,0,1-.36-2.69,7.64,7.64,0,0,1,.36-2.66,4.46,4.46,0,0,1,8.31,0,7.92,7.92,0,0,1,.35,2.66,8,8,0,0,1-.35,2.69,4.46,4.46,0,0,1-8.31,0Zm6.53-.53a6.78,6.78,0,0,0,.24-2.16,6.61,6.61,0,0,0-.24-2.13,2.53,2.53,0,0,0-4.75,0,6.61,6.61,0,0,0-.24,2.13,6.78,6.78,0,0,0,.24,2.16,2.53,2.53,0,0,0,4.75,0Z"/><path d="M582.74,15.2a.2.2,0,0,1-.22-.22V8.82c0-1.69-.77-2.68-2.36-2.68a2.36,2.36,0,0,0-2.42,2.57V15a.2.2,0,0,1-.22.22h-1.41a.2.2,0,0,1-.22-.22V4.88a.21.21,0,0,1,.22-.22h1.41a.21.21,0,0,1,.22.22v1h0a3.35,3.35,0,0,1,3-1.43c2.29,0,3.65,1.56,3.65,4V15a.2.2,0,0,1-.22.22Z"/><path d="M594.79,15.31c-1.85,0-2.57-.88-2.57-2.77V.46a.2.2,0,0,1,.22-.22h1.4a.2.2,0,0,1,.22.22v12c0,.88.33,1.17,1.06,1.17h.42a.21.21,0,0,1,.22.22v1.27a.2.2,0,0,1-.22.22Z"/><path d="M597.63,12.61a8,8,0,0,1-.35-2.69,7.92,7.92,0,0,1,.35-2.66,4.47,4.47,0,0,1,8.32,0,7.92,7.92,0,0,1,.35,2.66,8,8,0,0,1-.35,2.69,4.47,4.47,0,0,1-8.32,0Zm6.53-.53a6.73,6.73,0,0,0,.25-2.16,6.57,6.57,0,0,0-.25-2.13,2.53,2.53,0,0,0-4.75,0,6.61,6.61,0,0,0-.24,2.13,6.78,6.78,0,0,0,.24,2.16,2.53,2.53,0,0,0,4.75,0Z"/><path d="M608.1,13.86a.21.21,0,0,1,0-.31l.9-1a.21.21,0,0,1,.31,0,5.13,5.13,0,0,0,3.26,1.21c1.54,0,2.31-.66,2.31-1.61s-.4-1.3-2-1.47l-1.12-.11c-2.07-.22-3.15-1.26-3.15-3,0-2,1.43-3.22,3.92-3.22a6.3,6.3,0,0,1,3.74,1.17.21.21,0,0,1,0,.31l-.74.94a.22.22,0,0,1-.31,0A5.54,5.54,0,0,0,612.37,6c-1.32,0-2,.59-2,1.45s.5,1.28,2.06,1.43l1.11.11c2.13.2,3.16,1.28,3.16,3,0,2.07-1.49,3.46-4.24,3.46A6.55,6.55,0,0,1,608.1,13.86Z"/><path d="M.47,40.59a8.36,8.36,0,0,1-.35-2.67,8.17,8.17,0,0,1,.33-2.66,4.09,4.09,0,0,1,4.14-2.84,4.1,4.1,0,0,1,4.14,2.84,9.21,9.21,0,0,1,.33,3,.22.22,0,0,1-.25.22H2.15c-.09,0-.14,0-.14.13a3.9,3.9,0,0,0,.18,1.27,2.6,2.6,0,0,0,2.66,1.83,3.44,3.44,0,0,0,2.71-1.17.22.22,0,0,1,.33,0l.9.81a.2.2,0,0,1,0,.31A5.1,5.1,0,0,1,4.7,43.45,4.09,4.09,0,0,1,.47,40.59ZM7,37c.09,0,.13,0,.13-.13A3.75,3.75,0,0,0,7,35.7a2.38,2.38,0,0,0-2.42-1.65A2.38,2.38,0,0,0,2.17,35.7,3.72,3.72,0,0,0,2,36.89c0,.09.05.13.14.13Z"/><path d="M13.67,43.31c-1.84,0-2.57-.88-2.57-2.77V28.46a.21.21,0,0,1,.22-.22h1.41a.21.21,0,0,1,.22.22v12c0,.88.33,1.17,1.05,1.17h.42a.21.21,0,0,1,.22.22v1.27a.2.2,0,0,1-.22.22Z"/><path d="M16.07,40.59a8.36,8.36,0,0,1-.35-2.67,8.17,8.17,0,0,1,.33-2.66,4.08,4.08,0,0,1,4.14-2.84,4.08,4.08,0,0,1,4.13,2.84,9.21,9.21,0,0,1,.33,3,.22.22,0,0,1-.24.22H17.74a.12.12,0,0,0-.13.13,3.9,3.9,0,0,0,.18,1.27,2.6,2.6,0,0,0,2.66,1.83,3.46,3.46,0,0,0,2.71-1.17.22.22,0,0,1,.33,0l.9.81a.2.2,0,0,1,0,.31,5.11,5.11,0,0,1-4.11,1.81A4.08,4.08,0,0,1,16.07,40.59ZM22.63,37c.09,0,.13,0,.13-.13a3.75,3.75,0,0,0-.15-1.19,2.4,2.4,0,0,0-2.42-1.65,2.38,2.38,0,0,0-2.42,1.65,3.72,3.72,0,0,0-.16,1.19.12.12,0,0,0,.13.13Z"/><path d="M40.21,43.2A.2.2,0,0,1,40,43V36.82c0-1.69-.77-2.68-2.36-2.68a2.37,2.37,0,0,0-2.42,2.57V43a.2.2,0,0,1-.22.22H33.58a.2.2,0,0,1-.22-.22V36.82c0-1.69-.77-2.68-2.35-2.68a2.36,2.36,0,0,0-2.42,2.57V43a.2.2,0,0,1-.22.22H27a.2.2,0,0,1-.22-.22V32.88a.21.21,0,0,1,.22-.22h1.41a.21.21,0,0,1,.22.22v1h0a3.35,3.35,0,0,1,2.95-1.43,3.32,3.32,0,0,1,3.08,1.65h0a3.94,3.94,0,0,1,3.41-1.65c2.44,0,3.77,1.56,3.77,4V43a.2.2,0,0,1-.22.22Z"/><path d="M44.17,40.59a8.32,8.32,0,0,1-.36-2.67,8.17,8.17,0,0,1,.33-2.66,4.44,4.44,0,0,1,8.28,0,9.21,9.21,0,0,1,.33,3,.22.22,0,0,1-.25.22H45.84c-.09,0-.13,0-.13.13a3.93,3.93,0,0,0,.17,1.27,2.61,2.61,0,0,0,2.66,1.83,3.44,3.44,0,0,0,2.71-1.17.22.22,0,0,1,.33,0l.9.81a.2.2,0,0,1,0,.31,5.1,5.1,0,0,1-4.11,1.81A4.07,4.07,0,0,1,44.17,40.59ZM50.72,37c.09,0,.13,0,.13-.13a3.75,3.75,0,0,0-.15-1.19,2.6,2.6,0,0,0-4.84,0,3.75,3.75,0,0,0-.15,1.19c0,.09,0,.13.13.13Z"/><path d="M61.68,43.2a.2.2,0,0,1-.22-.22V36.82c0-1.69-.77-2.68-2.36-2.68a2.36,2.36,0,0,0-2.42,2.57V43a.2.2,0,0,1-.22.22H55.05a.2.2,0,0,1-.21-.22V32.88a.2.2,0,0,1,.21-.22h1.41a.21.21,0,0,1,.22.22v1h0a3.32,3.32,0,0,1,2.94-1.43c2.29,0,3.66,1.56,3.66,4V43a.2.2,0,0,1-.22.22Z"/><path d="M69,43.31c-2,0-2.84-.92-2.84-3v-6a.12.12,0,0,0-.13-.13h-.88a.21.21,0,0,1-.22-.22V32.88a.21.21,0,0,1,.22-.22H66c.09,0,.13,0,.13-.13v-3a.21.21,0,0,1,.22-.22h1.41a.21.21,0,0,1,.22.22v3a.12.12,0,0,0,.13.13H69.8a.21.21,0,0,1,.22.22v1.06a.21.21,0,0,1-.22.22H68.12a.12.12,0,0,0-.13.13v6c0,1.05.4,1.34,1.34,1.34h.47a.21.21,0,0,1,.22.22v1.27a.2.2,0,0,1-.22.22Z"/><path d="M71.71,40.61a8,8,0,0,1-.35-2.69,7.92,7.92,0,0,1,.35-2.66,4.47,4.47,0,0,1,8.32,0,7.92,7.92,0,0,1,.35,2.66A8,8,0,0,1,80,40.61a4.47,4.47,0,0,1-8.32,0Zm6.53-.53a6.73,6.73,0,0,0,.25-2.16,6.57,6.57,0,0,0-.25-2.13,2.53,2.53,0,0,0-4.75,0,6.61,6.61,0,0,0-.24,2.13,6.78,6.78,0,0,0,.24,2.16,2.53,2.53,0,0,0,4.75,0Z"/><path d="M81.74,41.86a.21.21,0,0,1,0-.31l.9-1a.21.21,0,0,1,.31,0,5.13,5.13,0,0,0,3.26,1.21c1.54,0,2.31-.66,2.31-1.61s-.4-1.3-2-1.47l-1.12-.11c-2.07-.22-3.15-1.26-3.15-3,0-2,1.43-3.22,3.92-3.22a6.3,6.3,0,0,1,3.74,1.17.21.21,0,0,1,0,.31l-.75.94a.21.21,0,0,1-.3,0A5.57,5.57,0,0,0,86,34c-1.32,0-2,.59-2,1.45s.5,1.28,2.06,1.43l1.1.11c2.14.2,3.17,1.28,3.17,3,0,2.07-1.49,3.46-4.24,3.46A6.55,6.55,0,0,1,81.74,41.86Z"/><path d="M103.37,43.2a.2.2,0,0,1-.22-.22V42h0a3.19,3.19,0,0,1-3,1.48,3.49,3.49,0,0,1-3.63-2.53,9,9,0,0,1-.37-3,8.92,8.92,0,0,1,.37-3,3.49,3.49,0,0,1,3.63-2.53,3.18,3.18,0,0,1,3,1.46h0V28.46a.2.2,0,0,1,.22-.22h1.4a.2.2,0,0,1,.22.22V43a.2.2,0,0,1-.22.22Zm-.47-3.08a6.58,6.58,0,0,0,.25-2.2,6.73,6.73,0,0,0-.25-2.2,2.49,2.49,0,0,0-4.64,0,7.78,7.78,0,0,0-.24,2.2,7.51,7.51,0,0,0,.24,2.2,2.48,2.48,0,0,0,4.64,0Z"/><path d="M107.43,40.59a8.36,8.36,0,0,1-.35-2.67,8.17,8.17,0,0,1,.33-2.66,4.44,4.44,0,0,1,8.28,0,9.21,9.21,0,0,1,.33,3,.22.22,0,0,1-.25.22h-6.66c-.09,0-.13,0-.13.13a3.93,3.93,0,0,0,.17,1.27,2.61,2.61,0,0,0,2.66,1.83,3.44,3.44,0,0,0,2.71-1.17.22.22,0,0,1,.33,0l.9.81a.2.2,0,0,1,0,.31,5.1,5.1,0,0,1-4.11,1.81A4.1,4.1,0,0,1,107.43,40.59ZM114,37c.09,0,.13,0,.13-.13A3.75,3.75,0,0,0,114,35.7a2.6,2.6,0,0,0-4.84,0,3.75,3.75,0,0,0-.15,1.19c0,.09,0,.13.13.13Z"/><path d="M122.72,47.16a.2.2,0,0,1-.22-.22V32.88a.21.21,0,0,1,.22-.22h1.41a.21.21,0,0,1,.22.22v1h0a3.18,3.18,0,0,1,3-1.46A3.49,3.49,0,0,1,131,35a8.92,8.92,0,0,1,.37,3,9,9,0,0,1-.37,3,3.49,3.49,0,0,1-3.63,2.53,3.19,3.19,0,0,1-3-1.48h0v5a.2.2,0,0,1-.22.22Zm6.52-7a7.51,7.51,0,0,0,.24-2.2,7.78,7.78,0,0,0-.24-2.2,2.5,2.5,0,0,0-4.65,0,7.08,7.08,0,0,0-.24,2.2,6.92,6.92,0,0,0,.24,2.2,2.48,2.48,0,0,0,4.65,0Z"/><path d="M133.68,43.2a.2.2,0,0,1-.22-.22V32.88a.21.21,0,0,1,.22-.22h1.41a.21.21,0,0,1,.22.22V34h0a2.94,2.94,0,0,1,2.8-1.54,3.26,3.26,0,0,1,2.15.79c.11.11.13.2.05.31l-.82,1.08a.21.21,0,0,1-.31,0,2.93,2.93,0,0,0-1.62-.51c-1.61,0-2.27,1.25-2.27,3.08V43a.2.2,0,0,1-.22.22Z"/><path d="M140.92,40.61a8,8,0,0,1-.35-2.69,7.92,7.92,0,0,1,.35-2.66,4.47,4.47,0,0,1,8.32,0,7.92,7.92,0,0,1,.35,2.66,8,8,0,0,1-.35,2.69,4.47,4.47,0,0,1-8.32,0Zm6.53-.53a6.73,6.73,0,0,0,.25-2.16,6.57,6.57,0,0,0-.25-2.13,2.53,2.53,0,0,0-4.75,0,6.61,6.61,0,0,0-.24,2.13,6.78,6.78,0,0,0,.24,2.16,2.53,2.53,0,0,0,4.75,0Z"/><path d="M154.73,43.31c-2,0-2.83-.92-2.83-3v-6a.12.12,0,0,0-.14-.13h-.88a.21.21,0,0,1-.22-.22V32.88a.21.21,0,0,1,.22-.22h.88c.09,0,.14,0,.14-.13v-3a.2.2,0,0,1,.22-.22h1.4a.2.2,0,0,1,.22.22v3c0,.09,0,.13.14.13h1.67a.21.21,0,0,1,.22.22v1.06a.21.21,0,0,1-.22.22h-1.67a.12.12,0,0,0-.14.13v6c0,1.05.4,1.34,1.35,1.34h.46a.21.21,0,0,1,.22.22v1.27a.2.2,0,0,1-.22.22Z"/><path d="M157.46,40.59a8.36,8.36,0,0,1-.35-2.67,8.17,8.17,0,0,1,.33-2.66,4.43,4.43,0,0,1,8.27,0,9.21,9.21,0,0,1,.33,3,.21.21,0,0,1-.24.22h-6.67a.12.12,0,0,0-.13.13,3.9,3.9,0,0,0,.18,1.27,2.6,2.6,0,0,0,2.66,1.83,3.47,3.47,0,0,0,2.71-1.17.22.22,0,0,1,.33,0l.9.81a.2.2,0,0,1,0,.31,5.11,5.11,0,0,1-4.11,1.81A4.08,4.08,0,0,1,157.46,40.59ZM164,37c.09,0,.13,0,.13-.13A3.75,3.75,0,0,0,164,35.7a2.6,2.6,0,0,0-4.84,0,3.72,3.72,0,0,0-.16,1.19.12.12,0,0,0,.13.13Z"/><path d="M167.82,35.26A4.1,4.1,0,0,1,172,32.42a4.21,4.21,0,0,1,3.61,1.79c.07.1.07.19-.07.3l-1,.8a.21.21,0,0,1-.31,0A2.59,2.59,0,0,0,172,34.14a2.28,2.28,0,0,0-2.35,1.65,6.89,6.89,0,0,0-.24,2.13,7,7,0,0,0,.24,2.16A2.28,2.28,0,0,0,172,41.73a2.59,2.59,0,0,0,2.27-1.14.21.21,0,0,1,.31,0l1,.8c.14.11.14.19.07.3A4.23,4.23,0,0,1,172,43.45a4.1,4.1,0,0,1-4.16-2.84,9.43,9.43,0,0,1-.33-2.69A9.35,9.35,0,0,1,167.82,35.26Z"/><path d="M177.06,35.26a4.1,4.1,0,0,1,4.16-2.84,4.21,4.21,0,0,1,3.61,1.79c.07.1.07.19-.07.3l-1,.8a.21.21,0,0,1-.31,0,2.59,2.59,0,0,0-2.27-1.14,2.28,2.28,0,0,0-2.35,1.65,6.89,6.89,0,0,0-.24,2.13,7,7,0,0,0,.24,2.16,2.28,2.28,0,0,0,2.35,1.65,2.59,2.59,0,0,0,2.27-1.14.21.21,0,0,1,.31,0l1,.8c.14.11.14.19.07.3a4.23,4.23,0,0,1-3.61,1.79,4.1,4.1,0,0,1-4.16-2.84,9.43,9.43,0,0,1-.33-2.69A9.35,9.35,0,0,1,177.06,35.26Z"/><path d="M187.05,30.29a.21.21,0,0,1-.22-.22V28.46a.21.21,0,0,1,.22-.22h1.5a.21.21,0,0,1,.22.22v1.61a.21.21,0,0,1-.22.22Zm0,12.91a.2.2,0,0,1-.22-.22V32.88a.2.2,0,0,1,.22-.22h1.4a.2.2,0,0,1,.22.22V43a.2.2,0,0,1-.22.22Z"/><path d="M191.17,40.61a7.71,7.71,0,0,1-.36-2.69,7.64,7.64,0,0,1,.36-2.66,4.46,4.46,0,0,1,8.31,0,7.92,7.92,0,0,1,.35,2.66,8,8,0,0,1-.35,2.69,4.46,4.46,0,0,1-8.31,0Zm6.53-.53a6.78,6.78,0,0,0,.24-2.16,6.61,6.61,0,0,0-.24-2.13,2.53,2.53,0,0,0-4.75,0,6.61,6.61,0,0,0-.24,2.13,6.78,6.78,0,0,0,.24,2.16,2.53,2.53,0,0,0,4.75,0ZM194.53,31c-.13,0-.2-.09-.13-.22L196.07,28a.4.4,0,0,1,.38-.22h1.45c.13,0,.2.11.11.22l-2,2.71a.44.44,0,0,1-.41.22Z"/><path d="M208.77,43.2a.2.2,0,0,1-.22-.22V36.82c0-1.69-.77-2.68-2.36-2.68a2.36,2.36,0,0,0-2.42,2.57V43a.2.2,0,0,1-.22.22h-1.41a.2.2,0,0,1-.22-.22V32.88a.21.21,0,0,1,.22-.22h1.41a.21.21,0,0,1,.22.22v1h0a3.35,3.35,0,0,1,3-1.43c2.29,0,3.65,1.56,3.65,4V43a.2.2,0,0,1-.22.22Z"/><path d="M213,40.87h1.54a.21.21,0,0,1,.22.22v2a.69.69,0,0,1-.14.48l-1.36,1.81a.35.35,0,0,1-.29.15.19.19,0,0,1-.19-.2V41.09A.2.2,0,0,1,213,40.87Z"/><path d="M220.84,40.59a8.36,8.36,0,0,1-.35-2.67,8.17,8.17,0,0,1,.33-2.66,4.43,4.43,0,0,1,8.27,0,9.21,9.21,0,0,1,.33,3,.21.21,0,0,1-.24.22h-6.67a.12.12,0,0,0-.13.13,3.9,3.9,0,0,0,.18,1.27,2.6,2.6,0,0,0,2.66,1.83,3.46,3.46,0,0,0,2.71-1.17.22.22,0,0,1,.33,0l.9.81a.2.2,0,0,1,0,.31,5.1,5.1,0,0,1-4.11,1.81A4.08,4.08,0,0,1,220.84,40.59ZM227.4,37c.09,0,.13,0,.13-.13a3.75,3.75,0,0,0-.15-1.19,2.6,2.6,0,0,0-4.84,0,3.72,3.72,0,0,0-.16,1.19.12.12,0,0,0,.13.13Z"/><path d="M238.11,47.16a.2.2,0,0,1-.22-.22V42h0a3.2,3.2,0,0,1-3,1.48,3.48,3.48,0,0,1-3.63-2.53,8.72,8.72,0,0,1-.38-3,8.64,8.64,0,0,1,.38-3,3.48,3.48,0,0,1,3.63-2.53,3.19,3.19,0,0,1,3,1.46h0v-1a.21.21,0,0,1,.22-.22h1.41a.21.21,0,0,1,.22.22V46.94a.2.2,0,0,1-.22.22Zm-.46-7a6.63,6.63,0,0,0,.24-2.2,6.79,6.79,0,0,0-.24-2.2,2.49,2.49,0,0,0-4.64,0,7.43,7.43,0,0,0-.24,2.2,7.18,7.18,0,0,0,.24,2.2,2.48,2.48,0,0,0,4.64,0Z"/><path d="M249.09,43.2a.2.2,0,0,1-.22-.22V42h0A3.22,3.22,0,0,1,246,43.45c-2.31,0-3.66-1.59-3.66-4V32.88a.21.21,0,0,1,.22-.22h1.41a.21.21,0,0,1,.22.22V39c0,1.72.77,2.71,2.33,2.71a2.34,2.34,0,0,0,2.38-2.6V32.88a.21.21,0,0,1,.22-.22h1.41a.21.21,0,0,1,.22.22V43a.2.2,0,0,1-.22.22Z"/><path d="M253.62,30.29a.21.21,0,0,1-.22-.22V28.46a.21.21,0,0,1,.22-.22h1.5a.21.21,0,0,1,.22.22v1.61a.21.21,0,0,1-.22.22Zm0,12.91a.2.2,0,0,1-.22-.22V32.88a.2.2,0,0,1,.22-.22h1.4a.2.2,0,0,1,.22.22V43a.2.2,0,0,1-.22.22Z"/><path d="M258.24,47.16a.2.2,0,0,1-.22-.22V32.88a.21.21,0,0,1,.22-.22h1.41a.21.21,0,0,1,.22.22v1h0a3.2,3.2,0,0,1,3-1.46A3.48,3.48,0,0,1,266.51,35a8.64,8.64,0,0,1,.38,3,8.72,8.72,0,0,1-.38,3,3.48,3.48,0,0,1-3.63,2.53,3.21,3.21,0,0,1-3-1.48h0v5a.2.2,0,0,1-.22.22Zm6.51-7a7.14,7.14,0,0,0,.25-2.2,7.39,7.39,0,0,0-.25-2.2,2.49,2.49,0,0,0-4.64,0,7.08,7.08,0,0,0-.24,2.2,6.92,6.92,0,0,0,.24,2.2,2.48,2.48,0,0,0,4.64,0Z"/><path d="M268.69,40.61a8,8,0,0,1-.35-2.69,7.92,7.92,0,0,1,.35-2.66,4.47,4.47,0,0,1,8.32,0,7.92,7.92,0,0,1,.35,2.66,8,8,0,0,1-.35,2.69,4.47,4.47,0,0,1-8.32,0Zm6.54-.53a7.09,7.09,0,0,0,.24-2.16,6.91,6.91,0,0,0-.24-2.13,2.54,2.54,0,0,0-4.76,0,6.91,6.91,0,0,0-.24,2.13,7.09,7.09,0,0,0,.24,2.16,2.54,2.54,0,0,0,4.76,0Z"/><path d="M278.72,41.86a.21.21,0,0,1,0-.31l.91-1a.2.2,0,0,1,.3,0,5.15,5.15,0,0,0,3.26,1.21c1.54,0,2.31-.66,2.31-1.61s-.4-1.3-2.05-1.47l-1.12-.11c-2.07-.22-3.15-1.26-3.15-3,0-2,1.44-3.22,3.92-3.22a6.3,6.3,0,0,1,3.74,1.17.22.22,0,0,1,.05.31l-.75.94a.22.22,0,0,1-.31,0A5.54,5.54,0,0,0,283,34c-1.32,0-2,.59-2,1.45s.51,1.28,2.07,1.43l1.1.11c2.13.2,3.17,1.28,3.17,3,0,2.07-1.5,3.46-4.25,3.46A6.55,6.55,0,0,1,278.72,41.86Z"/><path d="M300.35,43.2a.2.2,0,0,1-.22-.22V42h0a3.21,3.21,0,0,1-3,1.48,3.49,3.49,0,0,1-3.64-2.53,9,9,0,0,1-.37-3,8.92,8.92,0,0,1,.37-3,3.49,3.49,0,0,1,3.64-2.53,3.2,3.2,0,0,1,3,1.46h0V28.46a.21.21,0,0,1,.22-.22h1.41a.21.21,0,0,1,.22.22V43a.2.2,0,0,1-.22.22Zm-.46-3.08a6.92,6.92,0,0,0,.24-2.2,7.08,7.08,0,0,0-.24-2.2,2.5,2.5,0,0,0-4.65,0,7.78,7.78,0,0,0-.24,2.2,7.51,7.51,0,0,0,.24,2.2,2.48,2.48,0,0,0,4.65,0Z"/><path d="M304.42,40.59a8.36,8.36,0,0,1-.35-2.67,8.17,8.17,0,0,1,.33-2.66,4.43,4.43,0,0,1,8.27,0,9.21,9.21,0,0,1,.33,3,.22.22,0,0,1-.24.22h-6.67c-.09,0-.13,0-.13.13a3.93,3.93,0,0,0,.17,1.27,2.62,2.62,0,0,0,2.67,1.83,3.43,3.43,0,0,0,2.7-1.17.22.22,0,0,1,.33,0l.91.81a.2.2,0,0,1,0,.31,5.13,5.13,0,0,1-4.12,1.81A4.08,4.08,0,0,1,304.42,40.59ZM311,37a.12.12,0,0,0,.13-.13A3.72,3.72,0,0,0,311,35.7a2.6,2.6,0,0,0-4.84,0,3.75,3.75,0,0,0-.15,1.19c0,.09,0,.13.13.13Z"/><path d="M333,43.2a.2.2,0,0,1-.22-.22V36.82c0-1.69-.77-2.68-2.35-2.68A2.37,2.37,0,0,0,328,36.71V43a.2.2,0,0,1-.22.22h-1.41a.2.2,0,0,1-.22-.22V36.82c0-1.69-.77-2.68-2.35-2.68a2.36,2.36,0,0,0-2.42,2.57V43a.2.2,0,0,1-.22.22h-1.41a.2.2,0,0,1-.22-.22V32.88a.21.21,0,0,1,.22-.22h1.41a.21.21,0,0,1,.22.22v1h0a3.73,3.73,0,0,1,6,.22h0a3.92,3.92,0,0,1,3.41-1.65c2.44,0,3.76,1.56,3.76,4V43a.2.2,0,0,1-.22.22Z"/><path d="M336.91,40.59a8.36,8.36,0,0,1-.35-2.67,8.17,8.17,0,0,1,.33-2.66,4.43,4.43,0,0,1,8.27,0,9.21,9.21,0,0,1,.33,3,.22.22,0,0,1-.24.22h-6.67a.12.12,0,0,0-.13.13,3.9,3.9,0,0,0,.18,1.27,2.6,2.6,0,0,0,2.66,1.83A3.47,3.47,0,0,0,344,40.56a.22.22,0,0,1,.33,0l.9.81a.2.2,0,0,1,0,.31,5.11,5.11,0,0,1-4.11,1.81A4.08,4.08,0,0,1,336.91,40.59ZM343.47,37c.09,0,.13,0,.13-.13a3.75,3.75,0,0,0-.15-1.19,2.6,2.6,0,0,0-4.84,0,3.72,3.72,0,0,0-.16,1.19.12.12,0,0,0,.13.13Z"/><path d="M354.18,43.2A.2.2,0,0,1,354,43V42h0a3.21,3.21,0,0,1-3,1.48,3.48,3.48,0,0,1-3.63-2.53,8.72,8.72,0,0,1-.38-3,8.64,8.64,0,0,1,.38-3A3.48,3.48,0,0,1,351,32.42a3.2,3.2,0,0,1,3,1.46h0V28.46a.21.21,0,0,1,.22-.22h1.41a.21.21,0,0,1,.22.22V43a.2.2,0,0,1-.22.22Zm-.46-3.08a6.63,6.63,0,0,0,.24-2.2,6.79,6.79,0,0,0-.24-2.2,2.49,2.49,0,0,0-4.64,0,7.43,7.43,0,0,0-.24,2.2,7.18,7.18,0,0,0,.24,2.2,2.48,2.48,0,0,0,4.64,0Z"/><path d="M358.71,30.29a.21.21,0,0,1-.22-.22V28.46a.21.21,0,0,1,.22-.22h1.5a.21.21,0,0,1,.22.22v1.61a.21.21,0,0,1-.22.22Zm.05,12.91a.2.2,0,0,1-.22-.22V32.88a.21.21,0,0,1,.22-.22h1.41a.21.21,0,0,1,.22.22V43a.2.2,0,0,1-.22.22Z"/><path d="M362.8,35.26A4.1,4.1,0,0,1,367,32.42a4.21,4.21,0,0,1,3.61,1.79c.07.1.07.19-.06.3l-1,.8a.21.21,0,0,1-.31,0A2.59,2.59,0,0,0,367,34.14a2.28,2.28,0,0,0-2.35,1.65,6.89,6.89,0,0,0-.24,2.13,7,7,0,0,0,.24,2.16A2.28,2.28,0,0,0,367,41.73a2.59,2.59,0,0,0,2.27-1.14.21.21,0,0,1,.31,0l1,.8c.13.11.13.19.06.3A4.23,4.23,0,0,1,367,43.45a4.1,4.1,0,0,1-4.16-2.84,9.43,9.43,0,0,1-.33-2.69A9.35,9.35,0,0,1,362.8,35.26Z"/><path d="M372.79,30.29a.21.21,0,0,1-.22-.22V28.46a.21.21,0,0,1,.22-.22h1.5a.21.21,0,0,1,.22.22v1.61a.21.21,0,0,1-.22.22Zm0,12.91a.2.2,0,0,1-.22-.22V32.88a.2.2,0,0,1,.22-.22h1.41a.2.2,0,0,1,.21.22V43a.2.2,0,0,1-.21.22Z"/><path d="M376.91,40.61a7.71,7.71,0,0,1-.36-2.69,7.64,7.64,0,0,1,.36-2.66,4.46,4.46,0,0,1,8.31,0,7.64,7.64,0,0,1,.36,2.66,7.71,7.71,0,0,1-.36,2.69,4.46,4.46,0,0,1-8.31,0Zm6.53-.53a6.78,6.78,0,0,0,.24-2.16,6.61,6.61,0,0,0-.24-2.13,2.53,2.53,0,0,0-4.75,0,6.61,6.61,0,0,0-.24,2.13,6.78,6.78,0,0,0,.24,2.16,2.53,2.53,0,0,0,4.75,0ZM380.27,31c-.13,0-.2-.09-.13-.22L381.81,28a.4.4,0,0,1,.38-.22h1.45c.13,0,.2.11.11.22l-2,2.71a.44.44,0,0,1-.41.22Z"/><path d="M394.51,43.2a.2.2,0,0,1-.22-.22V36.82c0-1.69-.77-2.68-2.36-2.68a2.36,2.36,0,0,0-2.42,2.57V43a.2.2,0,0,1-.22.22h-1.41a.2.2,0,0,1-.22-.22V32.88a.21.21,0,0,1,.22-.22h1.41a.21.21,0,0,1,.22.22v1h0a3.35,3.35,0,0,1,3-1.43c2.29,0,3.66,1.56,3.66,4V43a.2.2,0,0,1-.22.22Z"/><path d="M409.75,43.2a.2.2,0,0,1-.22-.22V42h0a3.21,3.21,0,0,1-3,1.48,3.48,3.48,0,0,1-3.63-2.53,8.72,8.72,0,0,1-.38-3,8.64,8.64,0,0,1,.38-3,3.48,3.48,0,0,1,3.63-2.53,3.2,3.2,0,0,1,3,1.46h0V28.46a.21.21,0,0,1,.22-.22h1.41a.21.21,0,0,1,.22.22V43a.2.2,0,0,1-.22.22Zm-.46-3.08a6.63,6.63,0,0,0,.24-2.2,6.79,6.79,0,0,0-.24-2.2,2.49,2.49,0,0,0-4.64,0,7.43,7.43,0,0,0-.24,2.2,7.18,7.18,0,0,0,.24,2.2,2.48,2.48,0,0,0,4.64,0Z"/><path d="M413.82,40.59a8.36,8.36,0,0,1-.35-2.67,8.17,8.17,0,0,1,.33-2.66,4.43,4.43,0,0,1,8.27,0,9.21,9.21,0,0,1,.33,3,.22.22,0,0,1-.24.22h-6.67a.12.12,0,0,0-.13.13,3.9,3.9,0,0,0,.18,1.27,2.6,2.6,0,0,0,2.66,1.83,3.46,3.46,0,0,0,2.71-1.17.22.22,0,0,1,.33,0l.9.81a.2.2,0,0,1,0,.31,5.11,5.11,0,0,1-4.11,1.81A4.08,4.08,0,0,1,413.82,40.59ZM420.38,37c.09,0,.13,0,.13-.13a3.75,3.75,0,0,0-.15-1.19,2.6,2.6,0,0,0-4.84,0,3.72,3.72,0,0,0-.16,1.19.12.12,0,0,0,.13.13Z"/><path d="M428.67,45.84a.19.19,0,0,1,0-.3l.9-.91a.21.21,0,0,1,.33,0,3.54,3.54,0,0,0,2.49,1.06c1.74,0,2.66-.9,2.66-2.84V41.62h0a3,3,0,0,1-2.92,1.45,3.46,3.46,0,0,1-3.55-2.55,8.34,8.34,0,0,1-.35-2.77,8.34,8.34,0,0,1,.35-2.77,3.46,3.46,0,0,1,3.55-2.56,3,3,0,0,1,2.92,1.46h0v-1a.21.21,0,0,1,.22-.22h1.41a.21.21,0,0,1,.22.22v9.86c0,3-1.63,4.67-4.6,4.67A4.76,4.76,0,0,1,428.67,45.84Zm6.16-6.05a6.24,6.24,0,0,0,.24-2,6.42,6.42,0,0,0-.24-2,2.37,2.37,0,0,0-4.46,0,6.48,6.48,0,0,0-.27,2,6.29,6.29,0,0,0,.27,2,2.14,2.14,0,0,0,2.22,1.59A2.17,2.17,0,0,0,434.83,39.79Z"/><path d="M446,43.2a.2.2,0,0,1-.22-.22v-.92h0a3.47,3.47,0,0,1-3.13,1.39c-2,0-3.54-1-3.54-3.17S440.66,37,443.24,37h2.39c.09,0,.14,0,.14-.13v-.77c0-1.45-.58-2.07-2.53-2.07a4.13,4.13,0,0,0-2.56.75c-.11.09-.24.09-.3,0l-.6-1a.23.23,0,0,1,.05-.31,5.8,5.8,0,0,1,3.58-1c3,0,4.14,1,4.14,3.59v7a.2.2,0,0,1-.22.22Zm-.26-3.41V38.63c0-.09,0-.13-.14-.13h-2.11c-1.82,0-2.62.52-2.62,1.71s.8,1.65,2.2,1.65C444.75,41.86,445.77,41.09,445.77,39.79Z"/><path d="M449.46,41.86a.21.21,0,0,1,0-.31l.9-1a.21.21,0,0,1,.31,0,5.13,5.13,0,0,0,3.26,1.21c1.54,0,2.31-.66,2.31-1.61s-.4-1.3-2.05-1.47l-1.12-.11c-2.07-.22-3.15-1.26-3.15-3,0-2,1.43-3.22,3.92-3.22a6.3,6.3,0,0,1,3.74,1.17.21.21,0,0,1,0,.31l-.74.94a.22.22,0,0,1-.31,0,5.54,5.54,0,0,0-2.84-.86c-1.32,0-2,.59-2,1.45s.5,1.28,2.07,1.43l1.1.11c2.13.2,3.16,1.28,3.16,3,0,2.07-1.49,3.46-4.24,3.46A6.55,6.55,0,0,1,449.46,41.86Z"/><path d="M459.8,40.59a8.36,8.36,0,0,1-.35-2.67,8.17,8.17,0,0,1,.33-2.66,4.43,4.43,0,0,1,8.27,0,9.21,9.21,0,0,1,.33,3,.22.22,0,0,1-.24.22h-6.67c-.09,0-.13,0-.13.13a3.9,3.9,0,0,0,.18,1.27,2.6,2.6,0,0,0,2.66,1.83,3.47,3.47,0,0,0,2.71-1.17.22.22,0,0,1,.33,0l.9.81a.2.2,0,0,1,0,.31A5.12,5.12,0,0,1,464,43.45,4.08,4.08,0,0,1,459.8,40.59ZM466.36,37c.09,0,.13,0,.13-.13a3.75,3.75,0,0,0-.15-1.19,2.6,2.6,0,0,0-4.84,0,3.46,3.46,0,0,0-.16,1.19c0,.09,0,.13.13.13Z"/><path d="M469.74,41.86a.23.23,0,0,1,0-.31l.91-1a.2.2,0,0,1,.3,0,5.15,5.15,0,0,0,3.26,1.21c1.54,0,2.31-.66,2.31-1.61s-.39-1.3-2-1.47l-1.12-.11c-2.07-.22-3.14-1.26-3.14-3,0-2,1.43-3.22,3.91-3.22a6.3,6.3,0,0,1,3.74,1.17.22.22,0,0,1,.05.31l-.75.94a.22.22,0,0,1-.31,0A5.54,5.54,0,0,0,474,34c-1.32,0-2,.59-2,1.45s.51,1.28,2.07,1.43l1.1.11c2.13.2,3.17,1.28,3.17,3,0,2.07-1.5,3.46-4.25,3.46A6.55,6.55,0,0,1,469.74,41.86Z"/><path d="M485,43.2a.2.2,0,0,1-.22-.22V32.88a.21.21,0,0,1,.22-.22h1.41a.21.21,0,0,1,.22.22V34h0a2.94,2.94,0,0,1,2.79-1.54,3.26,3.26,0,0,1,2.16.79c.11.11.13.2,0,.31l-.81,1.08a.21.21,0,0,1-.31,0,2.94,2.94,0,0,0-1.63-.51c-1.6,0-2.26,1.25-2.26,3.08V43a.2.2,0,0,1-.22.22Z"/><path d="M492.23,40.59a8.36,8.36,0,0,1-.35-2.67,8.17,8.17,0,0,1,.33-2.66,4.43,4.43,0,0,1,8.27,0,9.21,9.21,0,0,1,.33,3,.22.22,0,0,1-.24.22H493.9c-.09,0-.13,0-.13.13a3.93,3.93,0,0,0,.17,1.27,2.62,2.62,0,0,0,2.67,1.83,3.43,3.43,0,0,0,2.7-1.17.22.22,0,0,1,.33,0l.91.81a.2.2,0,0,1,0,.31,5.13,5.13,0,0,1-4.12,1.81A4.08,4.08,0,0,1,492.23,40.59ZM498.79,37a.12.12,0,0,0,.13-.13,3.72,3.72,0,0,0-.16-1.19,2.6,2.6,0,0,0-4.84,0,3.75,3.75,0,0,0-.15,1.19c0,.09,0,.13.13.13Z"/><path d="M509.5,47.16a.2.2,0,0,1-.22-.22V42h0a3.21,3.21,0,0,1-3,1.48,3.49,3.49,0,0,1-3.63-2.53,9,9,0,0,1-.37-3,8.92,8.92,0,0,1,.37-3,3.49,3.49,0,0,1,3.63-2.53,3.2,3.2,0,0,1,3,1.46h0v-1a.21.21,0,0,1,.22-.22h1.41a.21.21,0,0,1,.22.22V46.94a.2.2,0,0,1-.22.22Zm-.46-7a6.92,6.92,0,0,0,.24-2.2,7.08,7.08,0,0,0-.24-2.2,2.5,2.5,0,0,0-4.65,0,7.78,7.78,0,0,0-.24,2.2,7.51,7.51,0,0,0,.24,2.2,2.48,2.48,0,0,0,4.65,0Z"/><path d="M520.48,43.2a.2.2,0,0,1-.22-.22V42h0a3.21,3.21,0,0,1-2.88,1.46c-2.31,0-3.65-1.59-3.65-4V32.88a.21.21,0,0,1,.22-.22h1.41a.21.21,0,0,1,.22.22V39c0,1.72.77,2.71,2.33,2.71a2.34,2.34,0,0,0,2.38-2.6V32.88a.2.2,0,0,1,.22-.22h1.4a.2.2,0,0,1,.22.22V43a.2.2,0,0,1-.22.22Z"/><path d="M524.55,40.59a8.32,8.32,0,0,1-.36-2.67,8.17,8.17,0,0,1,.33-2.66,4.44,4.44,0,0,1,8.28,0,9.21,9.21,0,0,1,.33,3,.22.22,0,0,1-.25.22h-6.66c-.09,0-.13,0-.13.13a3.93,3.93,0,0,0,.17,1.27,2.61,2.61,0,0,0,2.66,1.83,3.44,3.44,0,0,0,2.71-1.17.22.22,0,0,1,.33,0l.9.81a.2.2,0,0,1,0,.31,5.1,5.1,0,0,1-4.11,1.81A4.07,4.07,0,0,1,524.55,40.59ZM531.1,37c.09,0,.13,0,.13-.13a3.75,3.75,0,0,0-.15-1.19,2.6,2.6,0,0,0-4.84,0,3.75,3.75,0,0,0-.15,1.19c0,.09,0,.13.13.13Z"/><path d="M535.43,43.2a.2.2,0,0,1-.22-.22V32.88a.21.21,0,0,1,.22-.22h1.41a.21.21,0,0,1,.22.22V34h0a2.93,2.93,0,0,1,2.79-1.54,3.26,3.26,0,0,1,2.16.79c.11.11.13.2,0,.31l-.81,1.08a.21.21,0,0,1-.31,0,3,3,0,0,0-1.63-.51c-1.61,0-2.27,1.25-2.27,3.08V43a.2.2,0,0,1-.22.22Z"/><path d="M543.53,30.29a.21.21,0,0,1-.22-.22V28.46a.21.21,0,0,1,.22-.22H545a.21.21,0,0,1,.22.22v1.61a.21.21,0,0,1-.22.22Zm0,12.91a.2.2,0,0,1-.22-.22V32.88a.21.21,0,0,1,.22-.22H545a.21.21,0,0,1,.22.22V43a.2.2,0,0,1-.22.22Z"/><path d="M554.53,43.2a.2.2,0,0,1-.22-.22V42h0a3.21,3.21,0,0,1-3,1.48,3.48,3.48,0,0,1-3.63-2.53,8.72,8.72,0,0,1-.38-3,8.64,8.64,0,0,1,.38-3,3.48,3.48,0,0,1,3.63-2.53,3.2,3.2,0,0,1,3,1.46h0V28.46a.21.21,0,0,1,.22-.22h1.41a.21.21,0,0,1,.22.22V43a.2.2,0,0,1-.22.22Zm-.46-3.08a6.63,6.63,0,0,0,.24-2.2,6.79,6.79,0,0,0-.24-2.2,2.49,2.49,0,0,0-4.64,0,7.39,7.39,0,0,0-.25,2.2,7.14,7.14,0,0,0,.25,2.2,2.48,2.48,0,0,0,4.64,0Z"/><path d="M558.6,40.61a8,8,0,0,1-.35-2.69,7.92,7.92,0,0,1,.35-2.66,4.47,4.47,0,0,1,8.32,0,7.92,7.92,0,0,1,.35,2.66,8,8,0,0,1-.35,2.69,4.47,4.47,0,0,1-8.32,0Zm6.53-.53a6.73,6.73,0,0,0,.25-2.16,6.57,6.57,0,0,0-.25-2.13,2.53,2.53,0,0,0-4.75,0,6.91,6.91,0,0,0-.24,2.13,7.09,7.09,0,0,0,.24,2.16,2.53,2.53,0,0,0,4.75,0Z"/><path d="M568.63,41.86a.21.21,0,0,1,0-.31l.9-1a.21.21,0,0,1,.31,0,5.13,5.13,0,0,0,3.26,1.21c1.54,0,2.31-.66,2.31-1.61s-.4-1.3-2-1.47l-1.12-.11c-2.07-.22-3.15-1.26-3.15-3,0-2,1.43-3.22,3.92-3.22a6.3,6.3,0,0,1,3.74,1.17.22.22,0,0,1,0,.31l-.75.94a.22.22,0,0,1-.31,0A5.54,5.54,0,0,0,572.9,34c-1.32,0-2,.59-2,1.45s.5,1.28,2.07,1.43l1.1.11c2.13.2,3.16,1.28,3.16,3,0,2.07-1.49,3.46-4.24,3.46A6.55,6.55,0,0,1,568.63,41.86Z"/><path d="M583.88,47.16a.2.2,0,0,1-.22-.22V32.88a.21.21,0,0,1,.22-.22h1.41a.2.2,0,0,1,.21.22v1h0a3.19,3.19,0,0,1,3-1.46A3.48,3.48,0,0,1,592.15,35a8.67,8.67,0,0,1,.37,3,8.75,8.75,0,0,1-.37,3,3.48,3.48,0,0,1-3.63,2.53,3.2,3.2,0,0,1-3-1.48h0v5a.2.2,0,0,1-.21.22Zm6.51-7a7.18,7.18,0,0,0,.24-2.2,7.43,7.43,0,0,0-.24-2.2,2.49,2.49,0,0,0-4.64,0,6.73,6.73,0,0,0-.25,2.2,6.58,6.58,0,0,0,.25,2.2,2.48,2.48,0,0,0,4.64,0Z"/><path d="M601,43.2a.2.2,0,0,1-.22-.22v-.92h0a3.46,3.46,0,0,1-3.12,1.39c-2,0-3.54-1-3.54-3.17S595.63,37,598.2,37h2.4c.09,0,.13,0,.13-.13v-.77c0-1.45-.57-2.07-2.53-2.07a4.07,4.07,0,0,0-2.55.75.2.2,0,0,1-.31,0l-.59-1a.23.23,0,0,1,0-.31,5.81,5.81,0,0,1,3.59-1c3,0,4.13,1,4.13,3.59v7a.2.2,0,0,1-.22.22Zm-.26-3.41V38.63c0-.09,0-.13-.13-.13h-2.11c-1.83,0-2.62.52-2.62,1.71s.79,1.65,2.2,1.65C599.72,41.86,600.73,41.09,600.73,39.79Z"/><path d="M605.37,43.2a.2.2,0,0,1-.22-.22V32.88a.21.21,0,0,1,.22-.22h1.41a.21.21,0,0,1,.22.22V34h0a2.94,2.94,0,0,1,2.8-1.54,3.26,3.26,0,0,1,2.15.79c.11.11.13.2,0,.31l-.82,1.08a.21.21,0,0,1-.31,0,2.93,2.93,0,0,0-1.62-.51c-1.61,0-2.27,1.25-2.27,3.08V43a.2.2,0,0,1-.22.22Z"/><path d="M619.14,43.2a.2.2,0,0,1-.22-.22v-.92h0a3.46,3.46,0,0,1-3.12,1.39c-2,0-3.54-1-3.54-3.17S613.78,37,616.35,37h2.4c.09,0,.13,0,.13-.13v-.77c0-1.45-.57-2.07-2.53-2.07a4.07,4.07,0,0,0-2.55.75.2.2,0,0,1-.31,0l-.59-1a.23.23,0,0,1,0-.31,5.81,5.81,0,0,1,3.59-1c3,0,4.13,1,4.13,3.59v7a.2.2,0,0,1-.22.22Zm-.26-3.41V38.63c0-.09,0-.13-.13-.13h-2.11c-1.83,0-2.62.52-2.62,1.71s.79,1.65,2.2,1.65C617.87,41.86,618.88,41.09,618.88,39.79Z"/><path d="M627.42,40.59a8.32,8.32,0,0,1-.36-2.67,8.17,8.17,0,0,1,.33-2.66,4.44,4.44,0,0,1,8.28,0,9.21,9.21,0,0,1,.33,3,.22.22,0,0,1-.25.22h-6.66c-.09,0-.13,0-.13.13a3.93,3.93,0,0,0,.17,1.27,2.61,2.61,0,0,0,2.66,1.83,3.44,3.44,0,0,0,2.71-1.17.22.22,0,0,1,.33,0l.9.81a.2.2,0,0,1,0,.31,5.1,5.1,0,0,1-4.11,1.81A4.07,4.07,0,0,1,627.42,40.59ZM634,37c.09,0,.13,0,.13-.13A3.75,3.75,0,0,0,634,35.7a2.6,2.6,0,0,0-4.84,0,3.75,3.75,0,0,0-.15,1.19c0,.09,0,.13.13.13Z"/><path d="M640.62,43.31c-1.85,0-2.58-.88-2.58-2.77V28.46a.21.21,0,0,1,.22-.22h1.41a.21.21,0,0,1,.22.22v12c0,.88.33,1.17,1.06,1.17h.41a.2.2,0,0,1,.22.22v1.27a.2.2,0,0,1-.22.22Z"/><path d="M.94,58.29a.2.2,0,0,1-.22-.22V56.46a.2.2,0,0,1,.22-.22H2.43a.21.21,0,0,1,.22.22v1.61a.21.21,0,0,1-.22.22ZM1,71.2A.2.2,0,0,1,.76,71V60.88A.21.21,0,0,1,1,60.66H2.39a.21.21,0,0,1,.22.22V71a.2.2,0,0,1-.22.22Z"/><path d="M12.18,71.2A.2.2,0,0,1,12,71V64.82c0-1.69-.77-2.68-2.36-2.68a2.36,2.36,0,0,0-2.42,2.57V71A.2.2,0,0,1,7,71.2H5.56A.2.2,0,0,1,5.34,71V60.88a.2.2,0,0,1,.22-.22H7a.2.2,0,0,1,.22.22v1h0a3.32,3.32,0,0,1,2.94-1.43c2.29,0,3.66,1.56,3.66,4V71a.2.2,0,0,1-.22.22Z"/><path d="M16.6,58.29a.21.21,0,0,1-.22-.22V56.46a.21.21,0,0,1,.22-.22h1.5a.21.21,0,0,1,.22.22v1.61a.21.21,0,0,1-.22.22Zm0,12.91a.2.2,0,0,1-.22-.22V60.88a.21.21,0,0,1,.22-.22h1.41a.21.21,0,0,1,.22.22V71a.2.2,0,0,1-.22.22Z"/><path d="M20.69,63.26a4.09,4.09,0,0,1,4.16-2.84,4.22,4.22,0,0,1,3.61,1.78.22.22,0,0,1-.07.31l-1,.8a.19.19,0,0,1-.3,0,2.59,2.59,0,0,0-2.27-1.14,2.28,2.28,0,0,0-2.35,1.65,6.85,6.85,0,0,0-.25,2.13,6.94,6.94,0,0,0,.25,2.16,2.28,2.28,0,0,0,2.35,1.65,2.59,2.59,0,0,0,2.27-1.14.19.19,0,0,1,.3,0l1,.8c.13.11.13.19.07.3a4.23,4.23,0,0,1-3.61,1.79,4.1,4.1,0,0,1-4.16-2.84,11,11,0,0,1,0-5.35Z"/><path d="M30.68,58.29a.21.21,0,0,1-.22-.22V56.46a.21.21,0,0,1,.22-.22h1.49a.2.2,0,0,1,.22.22v1.61a.2.2,0,0,1-.22.22Zm0,12.91A.2.2,0,0,1,30.5,71V60.88a.21.21,0,0,1,.22-.22h1.41a.21.21,0,0,1,.22.22V71a.2.2,0,0,1-.22.22Z"/><path d="M34.79,68.61a10.4,10.4,0,0,1,0-5.35A4.08,4.08,0,0,1,39,60.42a4.08,4.08,0,0,1,4.16,2.84,10.4,10.4,0,0,1,0,5.35A4.1,4.1,0,0,1,39,71.45,4.1,4.1,0,0,1,34.79,68.61Zm6.54-.53a7.09,7.09,0,0,0,.24-2.16,6.91,6.91,0,0,0-.24-2.13,2.54,2.54,0,0,0-4.76,0,6.91,6.91,0,0,0-.24,2.13,7.09,7.09,0,0,0,.24,2.16,2.54,2.54,0,0,0,4.76,0Z"/><path d="M56.55,71.2a.2.2,0,0,1-.22-.22V70h0a3.21,3.21,0,0,1-3,1.48,3.48,3.48,0,0,1-3.63-2.53,8.72,8.72,0,0,1-.38-3,8.64,8.64,0,0,1,.38-3,3.48,3.48,0,0,1,3.63-2.53,3.21,3.21,0,0,1,3,1.45h0V56.46a.21.21,0,0,1,.22-.22H58a.21.21,0,0,1,.22.22V71a.2.2,0,0,1-.22.22Zm-.46-3.08a6.92,6.92,0,0,0,.24-2.2,7.08,7.08,0,0,0-.24-2.2,2.49,2.49,0,0,0-4.64,0,7.39,7.39,0,0,0-.25,2.2,7.14,7.14,0,0,0,.25,2.2,2.48,2.48,0,0,0,4.64,0Z"/><path d="M60.62,68.59a8.36,8.36,0,0,1-.35-2.67,8.17,8.17,0,0,1,.33-2.66,4.43,4.43,0,0,1,8.27,0,9.21,9.21,0,0,1,.33,3,.22.22,0,0,1-.24.22H62.29c-.09,0-.13,0-.13.13a3.9,3.9,0,0,0,.18,1.27A2.6,2.6,0,0,0,65,69.73a3.43,3.43,0,0,0,2.7-1.17.22.22,0,0,1,.33,0l.91.81a.2.2,0,0,1,0,.31,5.13,5.13,0,0,1-4.12,1.81A4.08,4.08,0,0,1,60.62,68.59ZM67.18,65a.12.12,0,0,0,.13-.13,3.68,3.68,0,0,0-.16-1.19,2.6,2.6,0,0,0-4.84,0,3.71,3.71,0,0,0-.15,1.19c0,.09,0,.13.13.13Z"/><path d="M78.22,71.31c-1.85,0-2.57-.88-2.57-2.77V56.46a.2.2,0,0,1,.22-.22h1.4a.2.2,0,0,1,.22.22v12c0,.88.33,1.17,1.06,1.17H79a.21.21,0,0,1,.22.22v1.27a.2.2,0,0,1-.22.22Z"/><path d="M87.28,71.2a.2.2,0,0,1-.22-.22v-.92h0a3.46,3.46,0,0,1-3.12,1.39c-2,0-3.54-1-3.54-3.17S81.92,65,84.49,65h2.4c.09,0,.13,0,.13-.13v-.77c0-1.45-.57-2.07-2.53-2.07a4.07,4.07,0,0,0-2.55.75c-.11.09-.25.09-.31,0l-.6-1a.23.23,0,0,1,0-.3,5.81,5.81,0,0,1,3.59-1c3,0,4.13,1,4.13,3.59v7a.2.2,0,0,1-.22.22ZM87,67.79V66.63c0-.09,0-.13-.13-.13H84.78c-1.83,0-2.62.52-2.62,1.71s.79,1.65,2.2,1.65C86,69.86,87,69.09,87,67.79Z"/><path d="M102.22,71.2A.2.2,0,0,1,102,71v-.92h0a3.46,3.46,0,0,1-3.12,1.39c-2,0-3.55-1-3.55-3.17S96.85,65,99.43,65h2.4a.12.12,0,0,0,.13-.13v-.77c0-1.45-.57-2.07-2.53-2.07a4.07,4.07,0,0,0-2.55.75c-.12.09-.25.09-.31,0l-.6-1a.23.23,0,0,1,0-.3,5.8,5.8,0,0,1,3.58-1c3,0,4.14,1,4.14,3.59v7a.2.2,0,0,1-.22.22ZM102,67.79V66.63a.12.12,0,0,0-.13-.13H99.71c-1.82,0-2.62.52-2.62,1.71s.8,1.65,2.21,1.65C101,69.86,102,69.09,102,67.79Z"/><path d="M106.07,63.26a4.09,4.09,0,0,1,4.16-2.84,4.22,4.22,0,0,1,3.61,1.78.22.22,0,0,1-.07.31l-1,.8a.19.19,0,0,1-.3,0,2.59,2.59,0,0,0-2.27-1.14,2.28,2.28,0,0,0-2.35,1.65,6.85,6.85,0,0,0-.25,2.13,6.94,6.94,0,0,0,.25,2.16,2.28,2.28,0,0,0,2.35,1.65,2.59,2.59,0,0,0,2.27-1.14.19.19,0,0,1,.3,0l1,.8c.13.11.13.19.07.3a4.23,4.23,0,0,1-3.61,1.79,4.1,4.1,0,0,1-4.16-2.84,11,11,0,0,1,0-5.35Z"/><path d="M118.94,71.31c-2,0-2.84-.92-2.84-3v-6c0-.09,0-.13-.13-.13h-.88a.21.21,0,0,1-.22-.22V60.88a.21.21,0,0,1,.22-.22H116c.09,0,.13,0,.13-.13v-3a.21.21,0,0,1,.22-.22h1.41a.21.21,0,0,1,.22.22v3c0,.09,0,.13.13.13h1.67a.2.2,0,0,1,.22.22v1.06a.2.2,0,0,1-.22.22h-1.67c-.09,0-.13,0-.13.13v6c0,1,.4,1.34,1.34,1.34h.46a.2.2,0,0,1,.22.22v1.27a.2.2,0,0,1-.22.22Z"/><path d="M122.13,58.29a.21.21,0,0,1-.22-.22V56.46a.21.21,0,0,1,.22-.22h1.5a.21.21,0,0,1,.22.22v1.61a.21.21,0,0,1-.22.22Zm0,12.91A.2.2,0,0,1,122,71V60.88a.21.21,0,0,1,.22-.22h1.41a.21.21,0,0,1,.22.22V71a.2.2,0,0,1-.22.22Z"/><path d="M129.35,71.2c-.16,0-.22-.08-.27-.22l-3.78-10.1c0-.13,0-.22.17-.22H127c.16,0,.22.07.29.22L130,68.45h0l2.66-7.57a.27.27,0,0,1,.27-.22h1.49c.16,0,.22.09.18.22L130.89,71a.29.29,0,0,1-.29.22Z"/><path d="M136.32,58.29a.21.21,0,0,1-.22-.22V56.46a.21.21,0,0,1,.22-.22h1.5a.21.21,0,0,1,.22.22v1.61a.21.21,0,0,1-.22.22Zm0,12.91a.2.2,0,0,1-.22-.22V60.88a.21.21,0,0,1,.22-.22h1.41a.21.21,0,0,1,.22.22V71a.2.2,0,0,1-.22.22Z"/><path d="M147.32,71.2a.2.2,0,0,1-.22-.22V70h0a3.21,3.21,0,0,1-3,1.48,3.49,3.49,0,0,1-3.64-2.53,9,9,0,0,1-.37-3,8.92,8.92,0,0,1,.37-3,3.49,3.49,0,0,1,3.64-2.53,3.21,3.21,0,0,1,3,1.45h0V56.46a.21.21,0,0,1,.22-.22h1.41a.21.21,0,0,1,.22.22V71a.2.2,0,0,1-.22.22Zm-.46-3.08a6.92,6.92,0,0,0,.24-2.2,7.08,7.08,0,0,0-.24-2.2,2.5,2.5,0,0,0-4.65,0,7.78,7.78,0,0,0-.24,2.2,7.51,7.51,0,0,0,.24,2.2,2.48,2.48,0,0,0,4.65,0Z"/><path d="M158.06,71.2a.2.2,0,0,1-.22-.22v-.92h0a3.44,3.44,0,0,1-3.12,1.39c-2,0-3.54-1-3.54-3.17S152.69,65,155.26,65h2.4c.09,0,.13,0,.13-.13v-.77c0-1.45-.57-2.07-2.53-2.07a4.09,4.09,0,0,0-2.55.75.2.2,0,0,1-.31,0l-.59-1a.22.22,0,0,1,0-.3,5.83,5.83,0,0,1,3.59-1c3,0,4.13,1,4.13,3.59v7a.2.2,0,0,1-.22.22Zm-.27-3.41V66.63c0-.09,0-.13-.13-.13h-2.11c-1.83,0-2.62.52-2.62,1.71s.79,1.65,2.2,1.65C156.78,69.86,157.79,69.09,157.79,67.79Z"/><path d="M168.81,71.2a.2.2,0,0,1-.22-.22V70h0a3.2,3.2,0,0,1-3,1.48A3.48,3.48,0,0,1,162,68.92a8.72,8.72,0,0,1-.38-3,8.64,8.64,0,0,1,.38-3,3.48,3.48,0,0,1,3.63-2.53,3.2,3.2,0,0,1,3,1.45h0V56.46a.21.21,0,0,1,.22-.22h1.41a.21.21,0,0,1,.22.22V71a.2.2,0,0,1-.22.22Zm-.46-3.08a6.63,6.63,0,0,0,.24-2.2,6.79,6.79,0,0,0-.24-2.2,2.49,2.49,0,0,0-4.64,0,7.43,7.43,0,0,0-.24,2.2,7.18,7.18,0,0,0,.24,2.2,2.48,2.48,0,0,0,4.64,0Z"/><path d="M172.9,69.09a.21.21,0,0,1,.23-.22h1.67a.21.21,0,0,1,.22.22V71a.2.2,0,0,1-.22.22h-1.67a.21.21,0,0,1-.23-.22Z"/></g></g></svg>