<svg xmlns="http://www.w3.org/2000/svg" viewBox="0 0 569.72 47.17"><title>2b</title><g id="Capa_2" data-name="Capa 2"><g id="respuestas_contorno" data-name="respuestas contorno"><path d="M0,.22A.21.21,0,0,1,.26,0H1.78A.21.21,0,0,1,2,.22V14.74a.21.21,0,0,1-.22.22H.26A.21.21,0,0,1,0,14.74Z"/><path d="M11.18,15a.2.2,0,0,1-.22-.22V8.58C11,6.89,10.19,5.9,8.6,5.9A2.36,2.36,0,0,0,6.18,8.47v6.27A.21.21,0,0,1,6,15H4.55a.21.21,0,0,1-.22-.22V4.64a.21.21,0,0,1,.22-.22H6a.21.21,0,0,1,.22.22v1h0a3.35,3.35,0,0,1,3-1.43c2.29,0,3.65,1.56,3.65,4v6.6a.2.2,0,0,1-.22.22Z"/><path d="M14.76,17.6a.2.2,0,0,1,0-.31l.91-.9a.21.21,0,0,1,.33,0,3.5,3.5,0,0,0,2.48,1.06c1.74,0,2.66-.9,2.66-2.84V13.38h0a3,3,0,0,1-2.92,1.45,3.46,3.46,0,0,1-3.55-2.55,8.34,8.34,0,0,1-.35-2.77,8.4,8.4,0,0,1,.35-2.78,3.46,3.46,0,0,1,3.55-2.55,3,3,0,0,1,2.92,1.45h0v-1a.21.21,0,0,1,.22-.22h1.41a.21.21,0,0,1,.22.22V14.5c0,3-1.63,4.67-4.6,4.67A4.74,4.74,0,0,1,14.76,17.6Zm6.16-6.05a6.28,6.28,0,0,0,.24-2,6.38,6.38,0,0,0-.24-2A2.15,2.15,0,0,0,18.68,5.9a2.15,2.15,0,0,0-2.22,1.56,6.48,6.48,0,0,0-.27,2.05,6.37,6.37,0,0,0,.27,2,2.14,2.14,0,0,0,2.22,1.59A2.17,2.17,0,0,0,20.92,11.55Z"/><path d="M25.52,15a.21.21,0,0,1-.22-.22V4.64a.21.21,0,0,1,.22-.22h1.41a.21.21,0,0,1,.22.22V5.72h0A2.94,2.94,0,0,1,30,4.18,3.26,3.26,0,0,1,32.12,5c.11.11.13.2,0,.31l-.81,1.08a.2.2,0,0,1-.31,0,3,3,0,0,0-1.63-.5c-1.6,0-2.26,1.25-2.26,3.08v5.76a.21.21,0,0,1-.22.22Z"/><path d="M32.32,12.34A8.2,8.2,0,0,1,32,9.68,8.46,8.46,0,0,1,32.29,7a4.08,4.08,0,0,1,4.14-2.84A4.08,4.08,0,0,1,40.57,7a9.18,9.18,0,0,1,.33,3,.21.21,0,0,1-.24.22H34c-.09,0-.13.05-.13.14A3.93,3.93,0,0,0,34,11.66a2.62,2.62,0,0,0,2.67,1.83,3.43,3.43,0,0,0,2.7-1.17.22.22,0,0,1,.33,0l.9.81a.21.21,0,0,1,0,.31,5.13,5.13,0,0,1-4.12,1.8A4.07,4.07,0,0,1,32.32,12.34Zm6.55-3.56c.09,0,.14,0,.14-.13a3.68,3.68,0,0,0-.16-1.19,2.6,2.6,0,0,0-4.84,0,3.71,3.71,0,0,0-.15,1.19c0,.09,0,.13.13.13Z"/><path d="M41.82,13.62a.21.21,0,0,1,0-.31l.9-1a.23.23,0,0,1,.31,0,5.07,5.07,0,0,0,3.26,1.21c1.54,0,2.31-.66,2.31-1.6s-.4-1.3-2.05-1.48l-1.12-.11c-2.07-.22-3.15-1.25-3.15-3,0-2,1.43-3.21,3.92-3.21a6.3,6.3,0,0,1,3.74,1.17c.11.06.11.19,0,.3l-.74.95a.22.22,0,0,1-.31.05,5.54,5.54,0,0,0-2.84-.86c-1.32,0-2,.59-2,1.45s.5,1.28,2.06,1.43l1.1.11c2.14.2,3.17,1.28,3.17,3,0,2.07-1.49,3.45-4.24,3.45A6.55,6.55,0,0,1,41.82,13.62Z"/><path d="M51.72,12.34a8.25,8.25,0,0,1-.35-2.66A8.17,8.17,0,0,1,51.7,7,4.43,4.43,0,0,1,60,7a9.18,9.18,0,0,1,.33,3,.21.21,0,0,1-.24.22H53.39c-.09,0-.13.05-.13.14a3.9,3.9,0,0,0,.18,1.27,2.6,2.6,0,0,0,2.66,1.83,3.43,3.43,0,0,0,2.7-1.17c.12-.11.23-.13.33,0l.91.81a.2.2,0,0,1,0,.31,5.13,5.13,0,0,1-4.12,1.8A4.07,4.07,0,0,1,51.72,12.34Zm6.56-3.56c.09,0,.13,0,.13-.13a3.43,3.43,0,0,0-.16-1.19,2.6,2.6,0,0,0-4.84,0,3.71,3.71,0,0,0-.15,1.19c0,.09,0,.13.13.13Z"/><path d="M65.6,7a4.09,4.09,0,0,1,4.16-2.84A4.22,4.22,0,0,1,73.37,6a.22.22,0,0,1-.07.31l-1,.79A.19.19,0,0,1,72,7,2.59,2.59,0,0,0,69.76,5.9a2.28,2.28,0,0,0-2.35,1.65,6.85,6.85,0,0,0-.25,2.13,6.94,6.94,0,0,0,.25,2.16,2.28,2.28,0,0,0,2.35,1.65A2.6,2.6,0,0,0,72,12.34a.19.19,0,0,1,.3,0l1,.79a.22.22,0,0,1,.07.31,4.22,4.22,0,0,1-3.61,1.78,4.09,4.09,0,0,1-4.16-2.83,9.08,9.08,0,0,1-.33-2.69A9,9,0,0,1,65.6,7Z"/><path d="M74.42,12.37a8,8,0,0,1-.35-2.69A7.92,7.92,0,0,1,74.42,7a4.47,4.47,0,0,1,8.32,0,7.92,7.92,0,0,1,.35,2.66,8,8,0,0,1-.35,2.69,4.47,4.47,0,0,1-8.32,0ZM81,11.84a7.13,7.13,0,0,0,.24-2.16A6.91,6.91,0,0,0,81,7.55a2.53,2.53,0,0,0-4.75,0A6.57,6.57,0,0,0,76,9.68a6.77,6.77,0,0,0,.25,2.16,2.53,2.53,0,0,0,4.75,0Z"/><path d="M91.58,15a.21.21,0,0,1-.22-.22V8.58c0-1.69-.77-2.68-2.35-2.68a2.36,2.36,0,0,0-2.42,2.57v6.27a.21.21,0,0,1-.22.22H85a.21.21,0,0,1-.22-.22V4.64A.21.21,0,0,1,85,4.42h1.41a.21.21,0,0,1,.22.22v1h0a3.35,3.35,0,0,1,3-1.43c2.29,0,3.65,1.56,3.65,4v6.6A.2.2,0,0,1,93,15Z"/><path d="M101.88,15.07c-1.85,0-2.57-.88-2.57-2.77V.22A.2.2,0,0,1,99.53,0h1.4a.2.2,0,0,1,.22.22v12c0,.88.33,1.17,1.06,1.17h.42a.2.2,0,0,1,.22.22v1.27a.21.21,0,0,1-.22.22Z"/><path d="M103.84,12.37a7.75,7.75,0,0,1-.36-2.69A7.64,7.64,0,0,1,103.84,7a4.46,4.46,0,0,1,8.31,0,7.64,7.64,0,0,1,.36,2.66,7.75,7.75,0,0,1-.36,2.69,4.47,4.47,0,0,1-8.31,0Zm6.53-.53a6.82,6.82,0,0,0,.24-2.16,6.61,6.61,0,0,0-.24-2.13,2.53,2.53,0,0,0-4.75,0,6.61,6.61,0,0,0-.24,2.13,6.82,6.82,0,0,0,.24,2.16,2.53,2.53,0,0,0,4.75,0Z"/><path d="M113.43,13.62a.21.21,0,0,1,0-.31l.9-1a.23.23,0,0,1,.31,0,5.07,5.07,0,0,0,3.26,1.21c1.54,0,2.31-.66,2.31-1.6s-.4-1.3-2-1.48L117,10.36c-2.07-.22-3.15-1.25-3.15-3,0-2,1.43-3.21,3.92-3.21a6.3,6.3,0,0,1,3.74,1.17c.11.06.11.19,0,.3l-.75.95a.21.21,0,0,1-.3.05,5.57,5.57,0,0,0-2.84-.86c-1.32,0-2,.59-2,1.45s.5,1.28,2.06,1.43l1.1.11c2.14.2,3.17,1.28,3.17,3,0,2.07-1.49,3.45-4.24,3.45A6.55,6.55,0,0,1,113.43,13.62Z"/><path d="M141,15a.21.21,0,0,1-.22-.22V8.58c0-1.69-.77-2.68-2.35-2.68a2.37,2.37,0,0,0-2.42,2.57v6.27a.21.21,0,0,1-.22.22h-1.41a.21.21,0,0,1-.22-.22V8.58c0-1.69-.77-2.68-2.36-2.68a2.36,2.36,0,0,0-2.42,2.57v6.27a.21.21,0,0,1-.22.22h-1.41a.21.21,0,0,1-.22-.22V4.64a.21.21,0,0,1,.22-.22h1.41a.21.21,0,0,1,.22.22v1h0a3.35,3.35,0,0,1,2.95-1.43,3.3,3.3,0,0,1,3.08,1.65h0a3.92,3.92,0,0,1,3.41-1.65c2.44,0,3.76,1.56,3.76,4v6.6a.21.21,0,0,1-.22.22Z"/><path d="M145,2.05a.21.21,0,0,1-.22-.22V.22A.21.21,0,0,1,145,0h1.5a.21.21,0,0,1,.22.22V1.83a.21.21,0,0,1-.22.22Zm0,12.91a.21.21,0,0,1-.22-.22V4.64a.21.21,0,0,1,.22-.22h1.41a.21.21,0,0,1,.22.22v10.1a.21.21,0,0,1-.22.22Z"/><path d="M148.25,13.62a.23.23,0,0,1,0-.31l.91-1a.22.22,0,0,1,.3,0,5.1,5.1,0,0,0,3.26,1.21c1.54,0,2.31-.66,2.31-1.6s-.4-1.3-2.05-1.48l-1.12-.11c-2.07-.22-3.14-1.25-3.14-3,0-2,1.43-3.21,3.91-3.21a6.3,6.3,0,0,1,3.74,1.17.21.21,0,0,1,0,.3l-.75.95a.22.22,0,0,1-.31.05,5.54,5.54,0,0,0-2.84-.86c-1.32,0-2,.59-2,1.45s.51,1.28,2.07,1.43l1.1.11c2.13.2,3.17,1.28,3.17,3,0,2.07-1.5,3.45-4.25,3.45A6.55,6.55,0,0,1,148.25,13.62Z"/><path d="M171.91,15a.2.2,0,0,1-.22-.22V8.58c0-1.69-.77-2.68-2.36-2.68a2.37,2.37,0,0,0-2.42,2.57v6.27a.21.21,0,0,1-.22.22h-1.41a.21.21,0,0,1-.22-.22V8.58c0-1.69-.77-2.68-2.35-2.68a2.36,2.36,0,0,0-2.42,2.57v6.27a.21.21,0,0,1-.22.22h-1.41a.21.21,0,0,1-.22-.22V4.64a.21.21,0,0,1,.22-.22h1.41a.21.21,0,0,1,.22.22v1h0a3.35,3.35,0,0,1,2.95-1.43,3.3,3.3,0,0,1,3.08,1.65h0a3.94,3.94,0,0,1,3.41-1.65c2.44,0,3.76,1.56,3.76,4v6.6a.2.2,0,0,1-.22.22Z"/><path d="M175.42,12.37a8,8,0,0,1-.35-2.69A7.92,7.92,0,0,1,175.42,7a4.47,4.47,0,0,1,8.32,0,7.92,7.92,0,0,1,.35,2.66,8,8,0,0,1-.35,2.69,4.47,4.47,0,0,1-8.32,0Zm6.54-.53a7.13,7.13,0,0,0,.24-2.16A6.91,6.91,0,0,0,182,7.55a2.53,2.53,0,0,0-4.75,0A6.57,6.57,0,0,0,177,9.68a6.77,6.77,0,0,0,.25,2.16,2.53,2.53,0,0,0,4.75,0Z"/><path d="M185,13.62a.23.23,0,0,1,0-.31l.91-1a.22.22,0,0,1,.3,0,5.12,5.12,0,0,0,3.26,1.21c1.54,0,2.31-.66,2.31-1.6s-.39-1.3-2-1.48l-1.13-.11c-2.07-.22-3.14-1.25-3.14-3,0-2,1.43-3.21,3.91-3.21a6.3,6.3,0,0,1,3.74,1.17.21.21,0,0,1,.05.3l-.75.95a.22.22,0,0,1-.31.05,5.54,5.54,0,0,0-2.84-.86c-1.32,0-2,.59-2,1.45s.51,1.28,2.07,1.43l1.1.11c2.13.2,3.17,1.28,3.17,3,0,2.07-1.5,3.45-4.25,3.45A6.57,6.57,0,0,1,185,13.62Z"/><path d="M198.88,12.34a8.2,8.2,0,0,1-.36-2.66A8.17,8.17,0,0,1,198.85,7a4.44,4.44,0,0,1,8.28,0,9.18,9.18,0,0,1,.33,3c0,.14-.09.22-.25.22h-6.66c-.09,0-.13.05-.13.14a3.93,3.93,0,0,0,.17,1.27,2.61,2.61,0,0,0,2.66,1.83A3.44,3.44,0,0,0,206,12.32a.22.22,0,0,1,.33,0l.9.81a.2.2,0,0,1,0,.31,5.09,5.09,0,0,1-4.11,1.8A4.06,4.06,0,0,1,198.88,12.34Zm6.55-3.56c.09,0,.13,0,.13-.13a3.71,3.71,0,0,0-.15-1.19,2.6,2.6,0,0,0-4.84,0,3.71,3.71,0,0,0-.15,1.19c0,.09,0,.13.13.13Z"/><path d="M215.71,18.92a.2.2,0,0,1-.22-.22v-5h0a3.19,3.19,0,0,1-3,1.47,3.47,3.47,0,0,1-3.63-2.53,8.65,8.65,0,0,1-.37-3,8.63,8.63,0,0,1,.37-3,3.48,3.48,0,0,1,3.63-2.53,3.2,3.2,0,0,1,3,1.45h0v-1a.2.2,0,0,1,.22-.22h1.4a.2.2,0,0,1,.22.22V18.7a.2.2,0,0,1-.22.22Zm-.47-7a6.58,6.58,0,0,0,.25-2.2,6.73,6.73,0,0,0-.25-2.2,2.49,2.49,0,0,0-4.64,0,7.39,7.39,0,0,0-.24,2.2,7.18,7.18,0,0,0,.24,2.2,2.48,2.48,0,0,0,4.64,0Z"/><path d="M226.24,15a.21.21,0,0,1-.22-.22v-1h0a3.21,3.21,0,0,1-2.88,1.45c-2.31,0-3.65-1.58-3.65-4V4.64a.2.2,0,0,1,.22-.22h1.4a.2.2,0,0,1,.22.22v6.14c0,1.72.77,2.71,2.34,2.71a2.34,2.34,0,0,0,2.37-2.6V4.64a.21.21,0,0,1,.22-.22h1.41a.21.21,0,0,1,.22.22v10.1a.21.21,0,0,1-.22.22Z"/><path d="M230.33,2.05a.21.21,0,0,1-.22-.22V.22a.21.21,0,0,1,.22-.22h1.5a.21.21,0,0,1,.22.22V1.83a.21.21,0,0,1-.22.22Zm0,12.91a.21.21,0,0,1-.22-.22V4.64a.21.21,0,0,1,.22-.22h1.41a.21.21,0,0,1,.22.22v10.1a.21.21,0,0,1-.22.22Z"/><path d="M234.51,18.92a.21.21,0,0,1-.22-.22V4.64a.21.21,0,0,1,.22-.22h1.41a.21.21,0,0,1,.22.22v1h0a3.22,3.22,0,0,1,3-1.45,3.49,3.49,0,0,1,3.63,2.53,8.89,8.89,0,0,1,.37,3,8.9,8.9,0,0,1-.37,3,3.48,3.48,0,0,1-3.63,2.53,3.21,3.21,0,0,1-3-1.47h0v5a.21.21,0,0,1-.22.22Zm6.52-7a7.51,7.51,0,0,0,.24-2.2,7.74,7.74,0,0,0-.24-2.2,2.5,2.5,0,0,0-4.65,0,7.08,7.08,0,0,0-.24,2.2,6.92,6.92,0,0,0,.24,2.2,2.48,2.48,0,0,0,4.65,0Z"/><path d="M244.52,12.37a8,8,0,0,1-.35-2.69A7.92,7.92,0,0,1,244.52,7a4.47,4.47,0,0,1,8.32,0,7.92,7.92,0,0,1,.35,2.66,8,8,0,0,1-.35,2.69,4.47,4.47,0,0,1-8.32,0Zm6.54-.53a7.13,7.13,0,0,0,.24-2.16,6.91,6.91,0,0,0-.24-2.13,2.53,2.53,0,0,0-4.75,0,6.57,6.57,0,0,0-.25,2.13,6.77,6.77,0,0,0,.25,2.16,2.53,2.53,0,0,0,4.75,0Z"/><path d="M254.12,13.62a.21.21,0,0,1,0-.31l.9-1a.23.23,0,0,1,.31,0,5.07,5.07,0,0,0,3.25,1.21c1.54,0,2.31-.66,2.31-1.6s-.39-1.3-2-1.48l-1.13-.11c-2.06-.22-3.14-1.25-3.14-3,0-2,1.43-3.21,3.91-3.21a6.3,6.3,0,0,1,3.74,1.17.21.21,0,0,1,0,.3l-.75.95a.22.22,0,0,1-.31.05,5.54,5.54,0,0,0-2.84-.86c-1.32,0-2,.59-2,1.45s.51,1.28,2.07,1.43l1.1.11c2.13.2,3.17,1.28,3.17,3,0,2.07-1.5,3.45-4.25,3.45A6.52,6.52,0,0,1,254.12,13.62Z"/><path d="M274.86,18.92a.21.21,0,0,1-.22-.22v-5h0a3.2,3.2,0,0,1-3,1.47A3.47,3.47,0,0,1,268,12.67a8.62,8.62,0,0,1-.38-3,8.61,8.61,0,0,1,.38-3,3.48,3.48,0,0,1,3.63-2.53,3.21,3.21,0,0,1,3,1.45h0v-1a.21.21,0,0,1,.22-.22h1.41a.21.21,0,0,1,.22.22V18.7a.21.21,0,0,1-.22.22Zm-.46-7a6.63,6.63,0,0,0,.24-2.2,6.79,6.79,0,0,0-.24-2.2,2.49,2.49,0,0,0-4.64,0,7.39,7.39,0,0,0-.24,2.2,7.18,7.18,0,0,0,.24,2.2,2.48,2.48,0,0,0,4.64,0Z"/><path d="M285.4,15a.21.21,0,0,1-.22-.22v-1h0a3.21,3.21,0,0,1-2.88,1.45c-2.32,0-3.66-1.58-3.66-4V4.64a.21.21,0,0,1,.22-.22h1.41a.21.21,0,0,1,.22.22v6.14c0,1.72.77,2.71,2.33,2.71a2.34,2.34,0,0,0,2.38-2.6V4.64a.21.21,0,0,1,.22-.22h1.41a.21.21,0,0,1,.22.22v10.1a.21.21,0,0,1-.22.22Z"/><path d="M289,12.34a8.25,8.25,0,0,1-.35-2.66A8.17,8.17,0,0,1,289,7a4.43,4.43,0,0,1,8.27,0,9.18,9.18,0,0,1,.33,3,.21.21,0,0,1-.24.22H290.7c-.09,0-.13.05-.13.14a3.64,3.64,0,0,0,.18,1.27,2.6,2.6,0,0,0,2.66,1.83,3.43,3.43,0,0,0,2.7-1.17.22.22,0,0,1,.33,0l.91.81a.2.2,0,0,1,0,.31,5.13,5.13,0,0,1-4.12,1.8A4.07,4.07,0,0,1,289,12.34Zm6.56-3.56a.12.12,0,0,0,.13-.13,3.68,3.68,0,0,0-.16-1.19,2.6,2.6,0,0,0-4.84,0,3.71,3.71,0,0,0-.15,1.19c0,.09,0,.13.13.13Z"/><path d="M309.84,15a.21.21,0,0,1-.22-.22v-1h0a3.21,3.21,0,0,1-2.88,1.45c-2.31,0-3.66-1.58-3.66-4V4.64a.21.21,0,0,1,.22-.22h1.41a.21.21,0,0,1,.22.22v6.14c0,1.72.77,2.71,2.34,2.71a2.34,2.34,0,0,0,2.37-2.6V4.64a.21.21,0,0,1,.22-.22h1.41a.21.21,0,0,1,.22.22v10.1a.21.21,0,0,1-.22.22Z"/><path d="M316.81,15.07c-2,0-2.83-.92-2.83-3v-6c0-.09-.05-.13-.14-.13H313a.21.21,0,0,1-.22-.22V4.64a.21.21,0,0,1,.22-.22h.88c.09,0,.14,0,.14-.13v-3a.2.2,0,0,1,.22-.22h1.4a.2.2,0,0,1,.22.22v3c0,.09.05.13.14.13h1.67a.21.21,0,0,1,.22.22V5.7a.21.21,0,0,1-.22.22H316c-.09,0-.14,0-.14.13v6c0,1.06.4,1.35,1.35,1.35h.46a.2.2,0,0,1,.22.22v1.27a.21.21,0,0,1-.22.22Z"/><path d="M319.56,2.05a.21.21,0,0,1-.22-.22V.22a.21.21,0,0,1,.22-.22h1.5a.21.21,0,0,1,.22.22V1.83a.21.21,0,0,1-.22.22ZM319.61,15a.21.21,0,0,1-.22-.22V4.64a.21.21,0,0,1,.22-.22H321a.21.21,0,0,1,.22.22v10.1A.21.21,0,0,1,321,15Z"/><path d="M326.05,15.07c-1.84,0-2.57-.88-2.57-2.77V.22A.21.21,0,0,1,323.7,0h1.41a.21.21,0,0,1,.22.22v12c0,.88.33,1.17,1.05,1.17h.42a.2.2,0,0,1,.22.22v1.27a.21.21,0,0,1-.22.22Z"/><path d="M328.47,2.05a.21.21,0,0,1-.22-.22V.22a.21.21,0,0,1,.22-.22H330a.21.21,0,0,1,.22.22V1.83a.21.21,0,0,1-.22.22Zm0,12.91a.2.2,0,0,1-.22-.22V4.64a.2.2,0,0,1,.22-.22h1.41a.21.21,0,0,1,.22.22v10.1a.21.21,0,0,1-.22.22Z"/><path d="M332.06,15a.21.21,0,0,1-.22-.22V13.58a.34.34,0,0,1,.09-.25l5.78-7.19v0h-5.37a.2.2,0,0,1-.21-.22V4.64a.2.2,0,0,1,.21-.22h7.35a.2.2,0,0,1,.22.22V5.88a.37.37,0,0,1-.08.24l-5.75,7.13v0h5.61a.2.2,0,0,1,.22.22v1.23a.2.2,0,0,1-.22.22Z"/><path d="M348,15a.21.21,0,0,1-.22-.22v-.92h0a3.47,3.47,0,0,1-3.13,1.38c-2,0-3.54-1-3.54-3.16s1.54-3.26,4.11-3.26h2.4c.09,0,.13,0,.13-.13V7.88c0-1.45-.57-2.07-2.53-2.07a4.09,4.09,0,0,0-2.55.75.2.2,0,0,1-.31,0l-.59-1a.23.23,0,0,1,0-.31,5.9,5.9,0,0,1,3.59-1c3,0,4.14,1,4.14,3.59v7a.21.21,0,0,1-.22.22Zm-.27-3.41V10.39c0-.09,0-.14-.13-.14h-2.11c-1.83,0-2.62.53-2.62,1.72s.79,1.65,2.2,1.65C346.71,13.62,347.72,12.85,347.72,11.55Z"/><path d="M355.88,18.92a.21.21,0,0,1-.22-.22V4.64a.21.21,0,0,1,.22-.22h1.41a.21.21,0,0,1,.22.22v1h0a3.22,3.22,0,0,1,3-1.45,3.49,3.49,0,0,1,3.63,2.53,8.89,8.89,0,0,1,.37,3,8.9,8.9,0,0,1-.37,3,3.48,3.48,0,0,1-3.63,2.53,3.21,3.21,0,0,1-3-1.47h0v5a.21.21,0,0,1-.22.22Zm6.52-7a7.51,7.51,0,0,0,.24-2.2,7.74,7.74,0,0,0-.24-2.2,2.5,2.5,0,0,0-4.65,0,7.08,7.08,0,0,0-.24,2.2,6.92,6.92,0,0,0,.24,2.2,2.48,2.48,0,0,0,4.65,0Z"/><path d="M372.56,15a.21.21,0,0,1-.22-.22v-.92h0a3.47,3.47,0,0,1-3.13,1.38c-2,0-3.54-1-3.54-3.16s1.54-3.26,4.12-3.26h2.4a.12.12,0,0,0,.13-.13V7.88c0-1.45-.58-2.07-2.53-2.07a4.13,4.13,0,0,0-2.56.75c-.11.09-.24.09-.3,0l-.6-1a.24.24,0,0,1,.05-.31,5.87,5.87,0,0,1,3.58-1c3,0,4.14,1,4.14,3.59v7a.21.21,0,0,1-.22.22Zm-.26-3.41V10.39a.12.12,0,0,0-.13-.14h-2.12c-1.82,0-2.62.53-2.62,1.72s.8,1.65,2.2,1.65C371.29,13.62,372.3,12.85,372.3,11.55Z"/><path d="M376.5,15a.21.21,0,0,1-.22-.22V4.64a.21.21,0,0,1,.22-.22h1.41a.21.21,0,0,1,.22.22V5.72h0a2.93,2.93,0,0,1,2.79-1.54A3.26,3.26,0,0,1,383.1,5c.11.11.13.2,0,.31l-.81,1.08a.2.2,0,0,1-.31,0,3,3,0,0,0-1.63-.5c-1.6,0-2.26,1.25-2.26,3.08v5.76a.21.21,0,0,1-.22.22Z"/><path d="M389.83,15a.21.21,0,0,1-.22-.22v-.92h0a3.47,3.47,0,0,1-3.13,1.38c-2,0-3.54-1-3.54-3.16s1.54-3.26,4.12-3.26h2.39c.09,0,.14,0,.14-.13V7.88c0-1.45-.58-2.07-2.53-2.07a4.13,4.13,0,0,0-2.56.75c-.11.09-.24.09-.3,0l-.6-1a.24.24,0,0,1,.05-.31,5.87,5.87,0,0,1,3.58-1c3,0,4.14,1,4.14,3.59v7a.21.21,0,0,1-.22.22Zm-.26-3.41V10.39a.13.13,0,0,0-.14-.14h-2.11c-1.82,0-2.62.53-2.62,1.72s.8,1.65,2.2,1.65C388.55,13.62,389.57,12.85,389.57,11.55Z"/><path d="M403.89,15a.21.21,0,0,1-.22-.22v-.92h0a3.47,3.47,0,0,1-3.13,1.38c-2,0-3.54-1-3.54-3.16s1.54-3.26,4.11-3.26h2.4c.09,0,.13,0,.13-.13V7.88c0-1.45-.57-2.07-2.53-2.07a4.12,4.12,0,0,0-2.55.75.2.2,0,0,1-.31,0l-.59-1a.24.24,0,0,1,0-.31,5.92,5.92,0,0,1,3.59-1c3,0,4.14,1,4.14,3.59v7a.21.21,0,0,1-.22.22Zm-.27-3.41V10.39c0-.09,0-.14-.13-.14h-2.11c-1.83,0-2.62.53-2.62,1.72s.79,1.65,2.2,1.65C402.61,13.62,403.62,12.85,403.62,11.55Z"/><path d="M410.14,15.07c-1.85,0-2.58-.88-2.58-2.77V.22a.21.21,0,0,1,.22-.22h1.41a.21.21,0,0,1,.22.22v12c0,.88.33,1.17,1.06,1.17h.41a.2.2,0,0,1,.22.22v1.27a.2.2,0,0,1-.22.22Z"/><path d="M415.33,15.07c-2.05,0-2.84-.92-2.84-3v-6c0-.09,0-.13-.13-.13h-.88a.2.2,0,0,1-.22-.22V4.64a.2.2,0,0,1,.22-.22h.88c.09,0,.13,0,.13-.13v-3a.21.21,0,0,1,.22-.22h1.41a.21.21,0,0,1,.22.22v3c0,.09,0,.13.13.13h1.67a.21.21,0,0,1,.22.22V5.7a.21.21,0,0,1-.22.22h-1.67c-.09,0-.13,0-.13.13v6c0,1.06.39,1.35,1.34,1.35h.46a.2.2,0,0,1,.22.22v1.27a.21.21,0,0,1-.22.22Z"/><path d="M424.52,15a.21.21,0,0,1-.22-.22v-1h0a3.21,3.21,0,0,1-2.88,1.45c-2.31,0-3.65-1.58-3.65-4V4.64a.21.21,0,0,1,.22-.22h1.41a.21.21,0,0,1,.22.22v6.14c0,1.72.77,2.71,2.33,2.71a2.34,2.34,0,0,0,2.37-2.6V4.64a.21.21,0,0,1,.22-.22h1.41a.21.21,0,0,1,.22.22v10.1a.21.21,0,0,1-.22.22Z"/><path d="M428.66,15a.21.21,0,0,1-.22-.22V4.64a.21.21,0,0,1,.22-.22h1.41a.21.21,0,0,1,.22.22V5.72h0a2.94,2.94,0,0,1,2.79-1.54,3.26,3.26,0,0,1,2.16.79c.11.11.13.2,0,.31l-.81,1.08a.2.2,0,0,1-.31,0,3,3,0,0,0-1.63-.5c-1.6,0-2.26,1.25-2.26,3.08v5.76a.21.21,0,0,1-.22.22Z"/><path d="M442,15a.21.21,0,0,1-.22-.22v-.92h0a3.45,3.45,0,0,1-3.12,1.38c-2,0-3.55-1-3.55-3.16s1.54-3.26,4.12-3.26h2.4a.12.12,0,0,0,.13-.13V7.88c0-1.45-.57-2.07-2.53-2.07a4.07,4.07,0,0,0-2.55.75c-.11.09-.25.09-.31,0l-.6-1a.24.24,0,0,1,.05-.31,5.87,5.87,0,0,1,3.58-1c3,0,4.14,1,4.14,3.59v7a.21.21,0,0,1-.22.22Zm-.26-3.41V10.39a.12.12,0,0,0-.13-.14h-2.12c-1.82,0-2.61.53-2.61,1.72s.79,1.65,2.2,1.65C440.72,13.62,441.73,12.85,441.73,11.55Z"/><path d="M445,13.62a.23.23,0,0,1,0-.31l.91-1a.22.22,0,0,1,.3,0,5.1,5.1,0,0,0,3.26,1.21c1.54,0,2.31-.66,2.31-1.6s-.4-1.3-2.05-1.48l-1.12-.11c-2.07-.22-3.14-1.25-3.14-3,0-2,1.43-3.21,3.91-3.21a6.3,6.3,0,0,1,3.74,1.17.21.21,0,0,1,0,.3l-.75.95a.22.22,0,0,1-.31.05,5.54,5.54,0,0,0-2.84-.86c-1.32,0-2,.59-2,1.45s.51,1.28,2.07,1.43l1.1.11c2.13.2,3.17,1.28,3.17,3,0,2.07-1.5,3.45-4.25,3.45A6.55,6.55,0,0,1,445,13.62Z"/><path d="M455.13,12.63h1.54a.2.2,0,0,1,.21.22V14.9a.68.68,0,0,1-.13.48l-1.36,1.8a.36.36,0,0,1-.29.16.2.2,0,0,1-.2-.2V12.85A.21.21,0,0,1,455.13,12.63Z"/><path d="M472.75,15a.21.21,0,0,1-.22-.22v-.92h0a3.47,3.47,0,0,1-3.13,1.38c-2,0-3.54-1-3.54-3.16s1.54-3.26,4.11-3.26h2.4c.09,0,.13,0,.13-.13V7.88c0-1.45-.57-2.07-2.53-2.07a4.09,4.09,0,0,0-2.55.75.2.2,0,0,1-.31,0l-.59-1a.23.23,0,0,1,0-.31,5.9,5.9,0,0,1,3.59-1c3,0,4.14,1,4.14,3.59v7a.21.21,0,0,1-.22.22Zm-.27-3.41V10.39c0-.09,0-.14-.13-.14h-2.11c-1.83,0-2.62.53-2.62,1.72s.79,1.65,2.2,1.65C471.47,13.62,472.48,12.85,472.48,11.55Z"/><path d="M483.31,15a.21.21,0,0,1-.22-.22V8.58c0-1.69-.77-2.68-2.36-2.68a2.36,2.36,0,0,0-2.42,2.57v6.27a.21.21,0,0,1-.22.22h-1.41a.21.21,0,0,1-.22-.22V4.64a.21.21,0,0,1,.22-.22h1.41a.21.21,0,0,1,.22.22v1h0a3.35,3.35,0,0,1,2.95-1.43c2.29,0,3.66,1.56,3.66,4v6.6a.21.21,0,0,1-.22.22Z"/><path d="M490.17,15.07c-2.05,0-2.84-.92-2.84-3v-6c0-.09,0-.13-.13-.13h-.88a.21.21,0,0,1-.22-.22V4.64a.21.21,0,0,1,.22-.22h.88c.09,0,.13,0,.13-.13v-3a.21.21,0,0,1,.22-.22H489a.21.21,0,0,1,.22.22v3c0,.09,0,.13.13.13H491a.21.21,0,0,1,.23.22V5.7a.21.21,0,0,1-.23.22h-1.67c-.09,0-.13,0-.13.13v6c0,1.06.4,1.35,1.34,1.35H491a.21.21,0,0,1,.23.22v1.27a.21.21,0,0,1-.23.22Z"/><path d="M492.92,2.05a.21.21,0,0,1-.22-.22V.22a.21.21,0,0,1,.22-.22h1.5a.21.21,0,0,1,.22.22V1.83a.21.21,0,0,1-.22.22ZM493,15a.21.21,0,0,1-.22-.22V4.64a.21.21,0,0,1,.22-.22h1.41a.21.21,0,0,1,.22.22v10.1a.21.21,0,0,1-.22.22Z"/><path d="M496.57,7a4.09,4.09,0,0,1,4.16-2.84A4.22,4.22,0,0,1,504.34,6a.22.22,0,0,1-.07.31l-1,.79a.19.19,0,0,1-.3,0,2.59,2.59,0,0,0-2.27-1.14,2.28,2.28,0,0,0-2.35,1.65,6.85,6.85,0,0,0-.25,2.13,6.94,6.94,0,0,0,.25,2.16,2.28,2.28,0,0,0,2.35,1.65A2.6,2.6,0,0,0,503,12.34a.19.19,0,0,1,.3,0l1,.79a.22.22,0,0,1,.07.31,4.22,4.22,0,0,1-3.61,1.78,4.09,4.09,0,0,1-4.16-2.83,9.08,9.08,0,0,1-.33-2.69A9,9,0,0,1,496.57,7Z"/><path d="M506.12,2.05a.21.21,0,0,1-.22-.22V.22a.21.21,0,0,1,.22-.22h1.5a.2.2,0,0,1,.21.22V1.83a.2.2,0,0,1-.21.22Zm0,12.91a.21.21,0,0,1-.22-.22V4.64a.21.21,0,0,1,.22-.22h1.41a.21.21,0,0,1,.22.22v10.1a.21.21,0,0,1-.22.22Z"/><path d="M510.3,18.92a.21.21,0,0,1-.22-.22V4.64a.21.21,0,0,1,.22-.22h1.41a.21.21,0,0,1,.22.22v1h0a3.21,3.21,0,0,1,3-1.45,3.48,3.48,0,0,1,3.63,2.53,8.61,8.61,0,0,1,.38,3,8.62,8.62,0,0,1-.38,3,3.47,3.47,0,0,1-3.63,2.53,3.2,3.2,0,0,1-3-1.47h0v5a.21.21,0,0,1-.22.22Zm6.51-7a7.18,7.18,0,0,0,.24-2.2,7.39,7.39,0,0,0-.24-2.2,2.49,2.49,0,0,0-4.64,0,6.79,6.79,0,0,0-.24,2.2,6.63,6.63,0,0,0,.24,2.2,2.48,2.48,0,0,0,4.64,0Z"/><path d="M520.31,12.34A8.25,8.25,0,0,1,520,9.68,8.17,8.17,0,0,1,520.29,7a4.43,4.43,0,0,1,8.27,0,9.18,9.18,0,0,1,.33,3,.21.21,0,0,1-.24.22H522c-.09,0-.13.05-.13.14a3.9,3.9,0,0,0,.18,1.27,2.6,2.6,0,0,0,2.66,1.83,3.43,3.43,0,0,0,2.7-1.17.22.22,0,0,1,.33,0l.91.81a.2.2,0,0,1,0,.31,5.13,5.13,0,0,1-4.12,1.8A4.07,4.07,0,0,1,520.31,12.34Zm6.56-3.56a.12.12,0,0,0,.13-.13,3.68,3.68,0,0,0-.16-1.19,2.6,2.6,0,0,0-4.84,0,3.71,3.71,0,0,0-.15,1.19c0,.09,0,.13.13.13Z"/><path d="M537,15.07c-1.85,0-2.58-.88-2.58-2.77V.22a.21.21,0,0,1,.22-.22h1.41a.21.21,0,0,1,.22.22v12c0,.88.33,1.17,1.06,1.17h.42a.2.2,0,0,1,.22.22v1.27a.21.21,0,0,1-.22.22Z"/><path d="M539,12.37a7.75,7.75,0,0,1-.36-2.69A7.64,7.64,0,0,1,539,7a4.46,4.46,0,0,1,8.31,0,7.64,7.64,0,0,1,.36,2.66,7.75,7.75,0,0,1-.36,2.69,4.47,4.47,0,0,1-8.31,0Zm6.53-.53a6.82,6.82,0,0,0,.24-2.16,6.61,6.61,0,0,0-.24-2.13,2.53,2.53,0,0,0-4.75,0,6.61,6.61,0,0,0-.24,2.13,6.82,6.82,0,0,0,.24,2.16,2.53,2.53,0,0,0,4.75,0Z"/><path d="M548.58,13.62a.21.21,0,0,1,0-.31l.9-1a.23.23,0,0,1,.31,0A5.07,5.07,0,0,0,553,13.55c1.54,0,2.31-.66,2.31-1.6s-.39-1.3-2-1.48l-1.12-.11c-2.07-.22-3.15-1.25-3.15-3,0-2,1.43-3.21,3.92-3.21a6.3,6.3,0,0,1,3.74,1.17c.11.06.11.19,0,.3L556,6.6a.22.22,0,0,1-.31.05,5.54,5.54,0,0,0-2.83-.86c-1.32,0-2,.59-2,1.45s.51,1.28,2.07,1.43l1.1.11c2.14.2,3.17,1.28,3.17,3,0,2.07-1.5,3.45-4.25,3.45A6.54,6.54,0,0,1,548.58,13.62Z"/><path d="M.22,46.92A.21.21,0,0,1,0,46.7V32.64a.21.21,0,0,1,.22-.22H1.63a.21.21,0,0,1,.22.22v1h0a3.21,3.21,0,0,1,3-1.45,3.48,3.48,0,0,1,3.63,2.53,8.61,8.61,0,0,1,.38,3,8.62,8.62,0,0,1-.38,3A3.47,3.47,0,0,1,4.86,43.2a3.2,3.2,0,0,1-3-1.47h0v5a.21.21,0,0,1-.22.22Zm6.51-7A7.18,7.18,0,0,0,7,37.68a7.39,7.39,0,0,0-.24-2.2A2.23,2.23,0,0,0,4.42,33.9a2.24,2.24,0,0,0-2.33,1.58,6.79,6.79,0,0,0-.24,2.2,6.63,6.63,0,0,0,.24,2.2,2.26,2.26,0,0,0,2.33,1.61A2.25,2.25,0,0,0,6.73,39.88Z"/><path d="M10.74,43a.2.2,0,0,1-.22-.22V32.64a.2.2,0,0,1,.22-.22h1.4a.2.2,0,0,1,.22.22v1.08h0a2.93,2.93,0,0,1,2.79-1.54,3.26,3.26,0,0,1,2.16.79c.11.11.13.2,0,.31l-.81,1.08a.2.2,0,0,1-.31,0,3,3,0,0,0-1.63-.5c-1.61,0-2.27,1.25-2.27,3.08v5.76a.2.2,0,0,1-.22.22Z"/><path d="M17.53,40.37a8,8,0,0,1-.35-2.69A7.92,7.92,0,0,1,17.53,35a4.08,4.08,0,0,1,4.16-2.84A4.06,4.06,0,0,1,25.85,35a7.92,7.92,0,0,1,.35,2.66,8,8,0,0,1-.35,2.69,4.09,4.09,0,0,1-4.16,2.83A4.11,4.11,0,0,1,17.53,40.37Zm6.54-.53a7.13,7.13,0,0,0,.24-2.16,6.91,6.91,0,0,0-.24-2.13,2.34,2.34,0,0,0-2.38-1.65,2.34,2.34,0,0,0-2.37,1.65,6.57,6.57,0,0,0-.25,2.13,6.77,6.77,0,0,0,.25,2.16,2.35,2.35,0,0,0,2.37,1.65A2.35,2.35,0,0,0,24.07,39.84Z"/><path d="M27.54,35a4.09,4.09,0,0,1,4.16-2.84A4.22,4.22,0,0,1,35.31,34c.07.11.07.2-.07.31l-1,.79A.2.2,0,0,1,34,35,2.59,2.59,0,0,0,31.7,33.9a2.28,2.28,0,0,0-2.35,1.65,6.89,6.89,0,0,0-.24,2.13,7,7,0,0,0,.24,2.16,2.28,2.28,0,0,0,2.35,1.65A2.6,2.6,0,0,0,34,40.34a.2.2,0,0,1,.31,0l1,.79c.14.11.14.2.07.31A4.22,4.22,0,0,1,31.7,43.2a4.09,4.09,0,0,1-4.16-2.83,9.08,9.08,0,0,1-.33-2.69A9,9,0,0,1,27.54,35Z"/><path d="M36.37,40.34A8.2,8.2,0,0,1,36,37.68,8.17,8.17,0,0,1,36.34,35a4.08,4.08,0,0,1,4.14-2.84A4.09,4.09,0,0,1,44.62,35,9.18,9.18,0,0,1,45,38c0,.14-.09.22-.25.22H38c-.09,0-.13,0-.13.14a3.93,3.93,0,0,0,.17,1.27,2.61,2.61,0,0,0,2.66,1.83,3.44,3.44,0,0,0,2.71-1.17.22.22,0,0,1,.33,0l.9.81a.2.2,0,0,1,0,.31,5.09,5.09,0,0,1-4.11,1.8A4.07,4.07,0,0,1,36.37,40.34Zm6.55-3.56c.09,0,.13,0,.13-.13a3.71,3.71,0,0,0-.15-1.19,2.6,2.6,0,0,0-4.84,0,3.71,3.71,0,0,0-.15,1.19c0,.09,0,.13.13.13Z"/><path d="M53.2,43a.2.2,0,0,1-.22-.22v-1h0a3.19,3.19,0,0,1-3,1.47,3.47,3.47,0,0,1-3.63-2.53,8.65,8.65,0,0,1-.37-3,8.63,8.63,0,0,1,.37-3A3.48,3.48,0,0,1,50,32.18a3.2,3.2,0,0,1,3,1.45h0V28.22A.2.2,0,0,1,53.2,28h1.4a.2.2,0,0,1,.22.22V42.74a.2.2,0,0,1-.22.22Zm-.47-3.08a6.58,6.58,0,0,0,.25-2.2,6.73,6.73,0,0,0-.25-2.2,2.49,2.49,0,0,0-4.64,0,7.74,7.74,0,0,0-.24,2.2,7.51,7.51,0,0,0,.24,2.2,2.48,2.48,0,0,0,4.64,0Z"/><path d="M57.29,30.05a.2.2,0,0,1-.22-.22V28.22a.2.2,0,0,1,.22-.22h1.49a.2.2,0,0,1,.22.22v1.61a.2.2,0,0,1-.22.22Zm0,12.91a.21.21,0,0,1-.22-.22V32.64a.21.21,0,0,1,.22-.22h1.41a.21.21,0,0,1,.22.22v10.1a.21.21,0,0,1-.22.22Z"/><path d="M74.71,43a.21.21,0,0,1-.22-.22V36.58c0-1.69-.77-2.68-2.35-2.68a2.37,2.37,0,0,0-2.42,2.57v6.27a.21.21,0,0,1-.22.22H68.09a.21.21,0,0,1-.22-.22V36.58c0-1.69-.77-2.68-2.36-2.68a2.36,2.36,0,0,0-2.42,2.57v6.27a.2.2,0,0,1-.22.22h-1.4a.2.2,0,0,1-.22-.22V32.64a.2.2,0,0,1,.22-.22h1.4a.2.2,0,0,1,.22.22v1h0a3.73,3.73,0,0,1,6,.22h0a3.92,3.92,0,0,1,3.41-1.65c2.44,0,3.76,1.56,3.76,4v6.6a.21.21,0,0,1-.22.22Z"/><path d="M78.69,30.05a.21.21,0,0,1-.22-.22V28.22a.21.21,0,0,1,.22-.22h1.5a.21.21,0,0,1,.22.22v1.61a.21.21,0,0,1-.22.22Zm0,12.91a.2.2,0,0,1-.22-.22V32.64a.2.2,0,0,1,.22-.22h1.4a.2.2,0,0,1,.22.22v10.1a.2.2,0,0,1-.22.22Z"/><path d="M82.37,40.34A8.2,8.2,0,0,1,82,37.68,8.17,8.17,0,0,1,82.34,35a4.44,4.44,0,0,1,8.28,0A9.18,9.18,0,0,1,91,38a.21.21,0,0,1-.24.22H84c-.09,0-.13,0-.13.14a3.93,3.93,0,0,0,.17,1.27,2.61,2.61,0,0,0,2.66,1.83,3.44,3.44,0,0,0,2.71-1.17.22.22,0,0,1,.33,0l.9.81a.21.21,0,0,1,0,.31,5.13,5.13,0,0,1-4.12,1.8A4.07,4.07,0,0,1,82.37,40.34Zm6.55-3.56c.09,0,.13,0,.13-.13a3.71,3.71,0,0,0-.15-1.19,2.6,2.6,0,0,0-4.84,0,3.71,3.71,0,0,0-.15,1.19c0,.09,0,.13.13.13Z"/><path d="M99.44,43a.21.21,0,0,1-.22-.22V36.58c0-1.69-.77-2.68-2.36-2.68a2.36,2.36,0,0,0-2.42,2.57v6.27a.2.2,0,0,1-.22.22h-1.4a.21.21,0,0,1-.23-.22V32.64a.21.21,0,0,1,.23-.22h1.4a.2.2,0,0,1,.22.22v1h0a3.35,3.35,0,0,1,3-1.43c2.29,0,3.66,1.56,3.66,4v6.6a.21.21,0,0,1-.22.22Z"/><path d="M106.3,43.07c-2,0-2.84-.92-2.84-3v-6c0-.09,0-.13-.13-.13h-.88a.21.21,0,0,1-.22-.22V32.64a.21.21,0,0,1,.22-.22h.88c.09,0,.13,0,.13-.13v-3a.21.21,0,0,1,.22-.22h1.41a.21.21,0,0,1,.22.22v3a.12.12,0,0,0,.13.13h1.68a.21.21,0,0,1,.22.22V33.7a.21.21,0,0,1-.22.22h-1.68a.12.12,0,0,0-.13.13v6c0,1.06.4,1.35,1.34,1.35h.47a.2.2,0,0,1,.22.22v1.27a.21.21,0,0,1-.22.22Z"/><path d="M108.59,40.37a8,8,0,0,1-.35-2.69,7.92,7.92,0,0,1,.35-2.66,4.47,4.47,0,0,1,8.32,0,7.92,7.92,0,0,1,.35,2.66,8,8,0,0,1-.35,2.69,4.47,4.47,0,0,1-8.32,0Zm6.53-.53a6.77,6.77,0,0,0,.25-2.16,6.57,6.57,0,0,0-.25-2.13,2.53,2.53,0,0,0-4.75,0,6.91,6.91,0,0,0-.24,2.13,7.13,7.13,0,0,0,.24,2.16,2.53,2.53,0,0,0,4.75,0Z"/><path d="M118.18,41.62a.21.21,0,0,1,0-.31l.9-1a.23.23,0,0,1,.31,0,5.07,5.07,0,0,0,3.26,1.21c1.54,0,2.31-.66,2.31-1.6s-.4-1.3-2-1.48l-1.12-.11c-2.07-.22-3.15-1.25-3.15-3,0-2,1.43-3.21,3.92-3.21a6.3,6.3,0,0,1,3.74,1.17c.11.06.11.19,0,.3l-.74,1a.22.22,0,0,1-.31,0,5.54,5.54,0,0,0-2.84-.86c-1.32,0-2,.59-2,1.45s.5,1.28,2.06,1.43l1.11.11c2.13.2,3.16,1.28,3.16,3,0,2.07-1.49,3.45-4.24,3.45A6.55,6.55,0,0,1,118.18,41.62Z"/><path d="M132,40.34a8.25,8.25,0,0,1-.35-2.66A8.17,8.17,0,0,1,132,35a4.43,4.43,0,0,1,8.27,0,9.18,9.18,0,0,1,.33,3,.21.21,0,0,1-.24.22h-6.67a.12.12,0,0,0-.13.14,3.9,3.9,0,0,0,.18,1.27,2.6,2.6,0,0,0,2.66,1.83,3.47,3.47,0,0,0,2.71-1.17.22.22,0,0,1,.33,0l.9.81a.2.2,0,0,1,0,.31,5.13,5.13,0,0,1-4.12,1.8A4.07,4.07,0,0,1,132,40.34Zm6.56-3.56c.09,0,.13,0,.13-.13a3.71,3.71,0,0,0-.15-1.19,2.61,2.61,0,0,0-4.85,0,4,4,0,0,0-.15,1.19.12.12,0,0,0,.13.13Z"/><path d="M146.41,30.05a.2.2,0,0,1-.22-.22V28.22a.2.2,0,0,1,.22-.22h1.49a.21.21,0,0,1,.22.22v1.61a.21.21,0,0,1-.22.22Zm0,12.91a.21.21,0,0,1-.22-.22V32.64a.21.21,0,0,1,.22-.22h1.41a.21.21,0,0,1,.22.22v10.1a.21.21,0,0,1-.22.22Z"/><path d="M157.21,43a.21.21,0,0,1-.22-.22V36.58c0-1.69-.77-2.68-2.36-2.68a2.36,2.36,0,0,0-2.42,2.57v6.27A.2.2,0,0,1,152,43h-1.4a.2.2,0,0,1-.22-.22V32.64a.2.2,0,0,1,.22-.22H152a.2.2,0,0,1,.22.22v1h0a3.32,3.32,0,0,1,2.94-1.43c2.29,0,3.66,1.56,3.66,4v6.6a.21.21,0,0,1-.22.22Z"/><path d="M160.79,45.6a.21.21,0,0,1,0-.31l.9-.9a.21.21,0,0,1,.33,0,3.5,3.5,0,0,0,2.48,1.06c1.74,0,2.67-.9,2.67-2.84V41.38h0a3,3,0,0,1-2.92,1.45,3.44,3.44,0,0,1-3.54-2.55,8.06,8.06,0,0,1-.36-2.77,8.12,8.12,0,0,1,.36-2.78,3.44,3.44,0,0,1,3.54-2.55,3,3,0,0,1,2.92,1.45h0v-1a.2.2,0,0,1,.22-.22h1.4a.2.2,0,0,1,.22.22V42.5c0,3-1.62,4.67-4.59,4.67A4.76,4.76,0,0,1,160.79,45.6ZM167,39.55a6.24,6.24,0,0,0,.25-2,6.34,6.34,0,0,0-.25-2,2.37,2.37,0,0,0-4.46,0,6.48,6.48,0,0,0-.27,2,6.37,6.37,0,0,0,.27,2,2.15,2.15,0,0,0,2.22,1.59A2.17,2.17,0,0,0,167,39.55Z"/><path d="M171.55,43a.21.21,0,0,1-.22-.22V32.64a.21.21,0,0,1,.22-.22H173a.21.21,0,0,1,.22.22v1.08h0a2.94,2.94,0,0,1,2.8-1.54,3.26,3.26,0,0,1,2.15.79c.11.11.13.2,0,.31l-.82,1.08a.2.2,0,0,1-.31,0,3,3,0,0,0-1.62-.5c-1.61,0-2.27,1.25-2.27,3.08v5.76A.21.21,0,0,1,173,43Z"/><path d="M178.35,40.34a8.25,8.25,0,0,1-.35-2.66,8.17,8.17,0,0,1,.33-2.66,4.43,4.43,0,0,1,8.27,0,9.18,9.18,0,0,1,.33,3,.21.21,0,0,1-.24.22H180c-.09,0-.13,0-.13.14a3.93,3.93,0,0,0,.17,1.27,2.62,2.62,0,0,0,2.67,1.83,3.43,3.43,0,0,0,2.7-1.17.22.22,0,0,1,.33,0l.91.81a.2.2,0,0,1,0,.31,5.13,5.13,0,0,1-4.12,1.8A4.07,4.07,0,0,1,178.35,40.34Zm6.56-3.56a.12.12,0,0,0,.13-.13,3.68,3.68,0,0,0-.16-1.19,2.6,2.6,0,0,0-4.84,0,3.71,3.71,0,0,0-.15,1.19c0,.09,0,.13.13.13Z"/><path d="M187.85,41.62a.21.21,0,0,1,0-.31l.9-1a.23.23,0,0,1,.31,0,5.07,5.07,0,0,0,3.26,1.21c1.54,0,2.31-.66,2.31-1.6s-.4-1.3-2-1.48l-1.12-.11c-2.07-.22-3.15-1.25-3.15-3,0-2,1.43-3.21,3.92-3.21A6.3,6.3,0,0,1,196,33.35c.11.06.11.19,0,.3l-.74,1a.22.22,0,0,1-.31,0,5.54,5.54,0,0,0-2.84-.86c-1.32,0-2,.59-2,1.45s.5,1.28,2.07,1.43l1.1.11c2.13.2,3.17,1.28,3.17,3,0,2.07-1.5,3.45-4.25,3.45A6.55,6.55,0,0,1,187.85,41.62Z"/><path d="M197.75,40.34a8.25,8.25,0,0,1-.35-2.66,8.17,8.17,0,0,1,.33-2.66A4.43,4.43,0,0,1,206,35a9.18,9.18,0,0,1,.33,3c0,.14-.08.22-.24.22h-6.67a.12.12,0,0,0-.13.14,3.9,3.9,0,0,0,.18,1.27,2.6,2.6,0,0,0,2.66,1.83,3.46,3.46,0,0,0,2.71-1.17.22.22,0,0,1,.33,0l.9.81a.2.2,0,0,1,0,.31A5.09,5.09,0,0,1,202,43.2,4.07,4.07,0,0,1,197.75,40.34Zm6.56-3.56c.09,0,.13,0,.13-.13a3.71,3.71,0,0,0-.15-1.19,2.6,2.6,0,0,0-4.84,0,3.68,3.68,0,0,0-.16,1.19.12.12,0,0,0,.13.13Z"/><path d="M218.32,43a.21.21,0,0,1-.22-.22v-.92h0A3.45,3.45,0,0,1,215,43.2c-2,0-3.55-1-3.55-3.16s1.54-3.26,4.12-3.26h2.4a.12.12,0,0,0,.13-.13v-.77c0-1.45-.57-2.07-2.53-2.07a4.07,4.07,0,0,0-2.55.75c-.11.09-.25.09-.31,0l-.6-1a.24.24,0,0,1,.05-.31,5.87,5.87,0,0,1,3.58-1c3,0,4.14,1,4.14,3.59v7a.21.21,0,0,1-.22.22Zm-.26-3.41V38.39a.12.12,0,0,0-.13-.14h-2.12c-1.82,0-2.61.53-2.61,1.72s.79,1.65,2.2,1.65C217.05,41.62,218.06,40.85,218.06,39.55Z"/><path d="M224.57,43.07c-1.85,0-2.57-.88-2.57-2.77V28.22a.2.2,0,0,1,.22-.22h1.4a.2.2,0,0,1,.22.22v12c0,.88.33,1.17,1.06,1.17h.42a.2.2,0,0,1,.22.22v1.27a.21.21,0,0,1-.22.22Z"/><path d="M233.3,43.07c-1.84,0-2.57-.88-2.57-2.77V28.22A.21.21,0,0,1,231,28h1.41a.21.21,0,0,1,.22.22v12c0,.88.33,1.17,1,1.17h.42a.2.2,0,0,1,.22.22v1.27a.21.21,0,0,1-.22.22Z"/><path d="M242.17,43a.21.21,0,0,1-.22-.22v-1h0a3.21,3.21,0,0,1-2.88,1.45c-2.31,0-3.66-1.58-3.66-4V32.64a.21.21,0,0,1,.22-.22H237a.21.21,0,0,1,.22.22v6.14c0,1.72.77,2.71,2.33,2.71a2.34,2.34,0,0,0,2.38-2.6V32.64a.21.21,0,0,1,.22-.22h1.41a.21.21,0,0,1,.22.22v10.1a.21.21,0,0,1-.22.22Z"/><path d="M245.86,45.6a.21.21,0,0,1,0-.31l.9-.9a.21.21,0,0,1,.33,0,3.5,3.5,0,0,0,2.48,1.06c1.74,0,2.67-.9,2.67-2.84V41.38h0a3,3,0,0,1-2.93,1.45,3.45,3.45,0,0,1-3.54-2.55,8.06,8.06,0,0,1-.36-2.77,8.12,8.12,0,0,1,.36-2.78,3.45,3.45,0,0,1,3.54-2.55,3,3,0,0,1,2.93,1.45h0v-1a.21.21,0,0,1,.22-.22h1.41a.21.21,0,0,1,.22.22V42.5c0,3-1.63,4.67-4.6,4.67A4.76,4.76,0,0,1,245.86,45.6ZM252,39.55a6.57,6.57,0,0,0,.24-2,6.68,6.68,0,0,0-.24-2,2.38,2.38,0,0,0-4.47,0,6.48,6.48,0,0,0-.27,2,6.37,6.37,0,0,0,.27,2,2.15,2.15,0,0,0,2.22,1.59A2.19,2.19,0,0,0,252,39.55Z"/><path d="M262.78,43a.21.21,0,0,1-.22-.22v-.92h0a3.45,3.45,0,0,1-3.12,1.38c-2,0-3.55-1-3.55-3.16s1.54-3.26,4.12-3.26h2.4a.12.12,0,0,0,.13-.13v-.77c0-1.45-.57-2.07-2.53-2.07a4.07,4.07,0,0,0-2.55.75c-.11.09-.25.09-.31,0l-.6-1a.24.24,0,0,1,.05-.31,5.88,5.88,0,0,1,3.59-1c3,0,4.13,1,4.13,3.59v7a.21.21,0,0,1-.22.22Zm-.26-3.41V38.39a.12.12,0,0,0-.13-.14h-2.12c-1.82,0-2.61.53-2.61,1.72s.79,1.65,2.2,1.65C261.51,41.62,262.52,40.85,262.52,39.55Z"/><path d="M266.72,43a.21.21,0,0,1-.22-.22V32.64a.21.21,0,0,1,.22-.22h1.41a.21.21,0,0,1,.22.22v1.08h0a2.94,2.94,0,0,1,2.79-1.54,3.26,3.26,0,0,1,2.16.79c.11.11.13.2.05.31l-.82,1.08a.2.2,0,0,1-.31,0,3,3,0,0,0-1.63-.5c-1.6,0-2.26,1.25-2.26,3.08v5.76a.21.21,0,0,1-.22.22Z"/><path d="M272.68,40.63h1.54a.21.21,0,0,1,.22.22v2a.68.68,0,0,1-.13.48L273,45.18a.36.36,0,0,1-.29.16.2.2,0,0,1-.2-.2V40.85A.21.21,0,0,1,272.68,40.63Z"/><path d="M280.18,43a.21.21,0,0,1-.22-.22V32.64a.21.21,0,0,1,.22-.22h1.41a.21.21,0,0,1,.22.22v1.08h0a3,3,0,0,1,2.8-1.54,3.24,3.24,0,0,1,2.15.79c.11.11.14.2.05.31L286,34.36a.19.19,0,0,1-.3,0,3.07,3.07,0,0,0-1.63-.5c-1.61,0-2.27,1.25-2.27,3.08v5.76a.21.21,0,0,1-.22.22Z"/><path d="M287,40.34a8.25,8.25,0,0,1-.35-2.66A8.17,8.17,0,0,1,287,35a4.43,4.43,0,0,1,8.27,0,9.18,9.18,0,0,1,.33,3,.21.21,0,0,1-.24.22h-6.67a.12.12,0,0,0-.13.14,3.9,3.9,0,0,0,.18,1.27,2.6,2.6,0,0,0,2.66,1.83,3.46,3.46,0,0,0,2.71-1.17.22.22,0,0,1,.33,0l.9.81a.2.2,0,0,1,0,.31,5.1,5.1,0,0,1-4.11,1.8A4.07,4.07,0,0,1,287,40.34Zm6.56-3.56c.09,0,.13,0,.13-.13a3.71,3.71,0,0,0-.15-1.19,2.6,2.6,0,0,0-4.84,0,3.68,3.68,0,0,0-.16,1.19.12.12,0,0,0,.13.13Z"/><path d="M303.59,43a.21.21,0,0,1-.22-.22v-.92h0a3.45,3.45,0,0,1-3.12,1.38c-2,0-3.55-1-3.55-3.16s1.54-3.26,4.12-3.26h2.4a.12.12,0,0,0,.13-.13v-.77c0-1.45-.57-2.07-2.53-2.07a4.07,4.07,0,0,0-2.55.75c-.11.09-.25.09-.31,0l-.6-1a.24.24,0,0,1,.05-.31,5.87,5.87,0,0,1,3.58-1c3,0,4.14,1,4.14,3.59v7a.21.21,0,0,1-.22.22Zm-.26-3.41V38.39a.12.12,0,0,0-.13-.14h-2.12c-1.82,0-2.61.53-2.61,1.72s.79,1.65,2.2,1.65C302.32,41.62,303.33,40.85,303.33,39.55Z"/><path d="M309.84,43.07c-1.85,0-2.57-.88-2.57-2.77V28.22a.2.2,0,0,1,.22-.22h1.4a.2.2,0,0,1,.22.22v12c0,.88.33,1.17,1.06,1.17h.42a.2.2,0,0,1,.22.22v1.27a.21.21,0,0,1-.22.22Z"/><path d="M312.26,30.05a.21.21,0,0,1-.22-.22V28.22a.21.21,0,0,1,.22-.22h1.5a.21.21,0,0,1,.22.22v1.61a.21.21,0,0,1-.22.22Zm0,12.91a.21.21,0,0,1-.22-.22V32.64a.21.21,0,0,1,.22-.22h1.41a.21.21,0,0,1,.22.22v10.1a.21.21,0,0,1-.22.22Z"/><path d="M315.91,35a4.07,4.07,0,0,1,4.16-2.84A4.22,4.22,0,0,1,323.68,34a.22.22,0,0,1-.07.31l-1,.79a.19.19,0,0,1-.3,0,2.59,2.59,0,0,0-2.27-1.14,2.3,2.3,0,0,0-2.36,1.65,7.21,7.21,0,0,0-.24,2.13,7.3,7.3,0,0,0,.24,2.16,2.3,2.3,0,0,0,2.36,1.65,2.6,2.6,0,0,0,2.27-1.15.19.19,0,0,1,.3,0l1,.79a.22.22,0,0,1,.07.31,4.22,4.22,0,0,1-3.61,1.78,4.08,4.08,0,0,1-4.16-2.83,9.08,9.08,0,0,1-.33-2.69A9,9,0,0,1,315.91,35Z"/><path d="M324.73,40.34a8.25,8.25,0,0,1-.35-2.66,8.17,8.17,0,0,1,.33-2.66A4.43,4.43,0,0,1,333,35a9.18,9.18,0,0,1,.33,3c0,.14-.08.22-.24.22H326.4a.12.12,0,0,0-.13.14,3.9,3.9,0,0,0,.18,1.27,2.6,2.6,0,0,0,2.66,1.83,3.44,3.44,0,0,0,2.71-1.17.22.22,0,0,1,.33,0l.9.81a.2.2,0,0,1,0,.31A5.09,5.09,0,0,1,329,43.2,4.07,4.07,0,0,1,324.73,40.34Zm6.56-3.56c.09,0,.13,0,.13-.13a3.71,3.71,0,0,0-.15-1.19,2.6,2.6,0,0,0-4.84,0,3.68,3.68,0,0,0-.16,1.19.12.12,0,0,0,.13.13Z"/><path d="M341.45,43.07c-1.85,0-2.57-.88-2.57-2.77V28.22a.21.21,0,0,1,.22-.22h1.41a.21.21,0,0,1,.22.22v12c0,.88.33,1.17,1,1.17h.42a.2.2,0,0,1,.22.22v1.27a.21.21,0,0,1-.22.22Z"/><path d="M350.08,43a.2.2,0,0,1-.22-.22v-.92h0a3.44,3.44,0,0,1-3.12,1.38c-2,0-3.54-1-3.54-3.16s1.54-3.26,4.11-3.26h2.4c.09,0,.13,0,.13-.13v-.77c0-1.45-.57-2.07-2.53-2.07a4.09,4.09,0,0,0-2.55.75.2.2,0,0,1-.31,0l-.59-1a.23.23,0,0,1,0-.31,5.9,5.9,0,0,1,3.59-1c3,0,4.13,1,4.13,3.59v7a.2.2,0,0,1-.21.22Zm-.27-3.41V38.39c0-.09,0-.14-.13-.14h-2.11c-1.83,0-2.62.53-2.62,1.72s.79,1.65,2.2,1.65C348.8,41.62,349.81,40.85,349.81,39.55Z"/><path d="M357.47,40.37a8,8,0,0,1-.35-2.69,7.92,7.92,0,0,1,.35-2.66,4.46,4.46,0,0,1,8.31,0,7.64,7.64,0,0,1,.36,2.66,7.75,7.75,0,0,1-.36,2.69,4.47,4.47,0,0,1-8.31,0Zm6.53-.53a6.82,6.82,0,0,0,.24-2.16,6.61,6.61,0,0,0-.24-2.13,2.53,2.53,0,0,0-4.75,0,6.61,6.61,0,0,0-.24,2.13,6.82,6.82,0,0,0,.24,2.16,2.53,2.53,0,0,0,4.75,0Z"/><path d="M368,46.92a.2.2,0,0,1-.22-.22V32.64a.2.2,0,0,1,.22-.22h1.4a.2.2,0,0,1,.22.22v1h0a3.19,3.19,0,0,1,3-1.45,3.49,3.49,0,0,1,3.63,2.53,8.89,8.89,0,0,1,.37,3,8.9,8.9,0,0,1-.37,3,3.48,3.48,0,0,1-3.63,2.53,3.18,3.18,0,0,1-3-1.47h0v5a.2.2,0,0,1-.22.22Zm6.51-7a7.51,7.51,0,0,0,.24-2.2,7.74,7.74,0,0,0-.24-2.2,2.49,2.49,0,0,0-4.64,0,6.73,6.73,0,0,0-.25,2.2,6.58,6.58,0,0,0,.25,2.2,2.48,2.48,0,0,0,4.64,0Z"/><path d="M378,40.34a8.2,8.2,0,0,1-.36-2.66A8.17,8.17,0,0,1,378,35a4.44,4.44,0,0,1,8.28,0,9.18,9.18,0,0,1,.33,3c0,.14-.09.22-.25.22h-6.66c-.09,0-.13,0-.13.14a3.93,3.93,0,0,0,.17,1.27,2.61,2.61,0,0,0,2.66,1.83,3.44,3.44,0,0,0,2.71-1.17.22.22,0,0,1,.33,0l.9.81a.2.2,0,0,1,0,.31,5.09,5.09,0,0,1-4.11,1.8A4.07,4.07,0,0,1,378,40.34Zm6.55-3.56c.09,0,.13,0,.13-.13a3.71,3.71,0,0,0-.15-1.19,2.6,2.6,0,0,0-4.84,0,3.71,3.71,0,0,0-.15,1.19c0,.09,0,.13.13.13Z"/><path d="M388.46,43a.2.2,0,0,1-.21-.22V32.64a.2.2,0,0,1,.21-.22h1.41a.21.21,0,0,1,.22.22v1.08h0a2.93,2.93,0,0,1,2.79-1.54,3.26,3.26,0,0,1,2.16.79c.11.11.13.2,0,.31l-.81,1.08a.2.2,0,0,1-.31,0,3,3,0,0,0-1.63-.5c-1.61,0-2.27,1.25-2.27,3.08v5.76a.21.21,0,0,1-.22.22Z"/><path d="M401.8,43a.21.21,0,0,1-.22-.22v-.92h0a3.47,3.47,0,0,1-3.13,1.38c-2,0-3.54-1-3.54-3.16s1.54-3.26,4.11-3.26h2.4c.09,0,.13,0,.13-.13v-.77c0-1.45-.57-2.07-2.53-2.07a4.12,4.12,0,0,0-2.55.75.2.2,0,0,1-.31,0l-.59-1a.23.23,0,0,1,0-.31,5.92,5.92,0,0,1,3.59-1c3,0,4.14,1,4.14,3.59v7a.21.21,0,0,1-.22.22Zm-.27-3.41V38.39c0-.09,0-.14-.13-.14h-2.11c-1.83,0-2.62.53-2.62,1.72s.79,1.65,2.2,1.65C400.52,41.62,401.53,40.85,401.53,39.55Z"/><path d="M405.21,35a4.07,4.07,0,0,1,4.16-2.84A4.22,4.22,0,0,1,413,34c.07.11.07.2-.06.31l-1,.79a.2.2,0,0,1-.31,0,2.58,2.58,0,0,0-2.26-1.14A2.29,2.29,0,0,0,407,35.55a7.21,7.21,0,0,0-.24,2.13,7.3,7.3,0,0,0,.24,2.16,2.29,2.29,0,0,0,2.36,1.65,2.59,2.59,0,0,0,2.26-1.15.2.2,0,0,1,.31,0l1,.79c.13.11.13.2.06.31a4.22,4.22,0,0,1-3.6,1.78,4.08,4.08,0,0,1-4.16-2.83,9.08,9.08,0,0,1-.33-2.69A9,9,0,0,1,405.21,35Z"/><path d="M414.75,30.05a.2.2,0,0,1-.21-.22V28.22a.2.2,0,0,1,.21-.22h1.5a.21.21,0,0,1,.22.22v1.61a.21.21,0,0,1-.22.22ZM414.8,43a.21.21,0,0,1-.22-.22V32.64a.21.21,0,0,1,.22-.22h1.41a.21.21,0,0,1,.22.22v10.1a.21.21,0,0,1-.22.22Z"/><path d="M418.43,40.37a8,8,0,0,1-.35-2.69,7.92,7.92,0,0,1,.35-2.66,4.47,4.47,0,0,1,8.32,0,7.92,7.92,0,0,1,.35,2.66,8,8,0,0,1-.35,2.69,4.47,4.47,0,0,1-8.32,0Zm6.53-.53a6.77,6.77,0,0,0,.25-2.16,6.57,6.57,0,0,0-.25-2.13,2.53,2.53,0,0,0-4.75,0,6.91,6.91,0,0,0-.24,2.13,7.13,7.13,0,0,0,.24,2.16,2.53,2.53,0,0,0,4.75,0Zm-3.17-9.13c-.13,0-.19-.09-.13-.22l1.67-2.71a.4.4,0,0,1,.38-.22h1.45c.13,0,.2.11.11.22l-2,2.71a.44.44,0,0,1-.42.22Z"/><path d="M435.59,43a.21.21,0,0,1-.22-.22V36.58c0-1.69-.77-2.68-2.35-2.68a2.36,2.36,0,0,0-2.43,2.57v6.27a.2.2,0,0,1-.21.22H429a.2.2,0,0,1-.22-.22V32.64a.2.2,0,0,1,.22-.22h1.41a.2.2,0,0,1,.21.22v1h0a3.34,3.34,0,0,1,2.95-1.43c2.28,0,3.65,1.56,3.65,4v6.6A.21.21,0,0,1,437,43Z"/><path d="M443.05,35a4.07,4.07,0,0,1,4.16-2.84,4.22,4.22,0,0,1,3.6,1.78c.07.11.07.2-.06.31l-1,.79a.2.2,0,0,1-.31,0,2.58,2.58,0,0,0-2.26-1.14,2.29,2.29,0,0,0-2.36,1.65,6.89,6.89,0,0,0-.24,2.13,7,7,0,0,0,.24,2.16,2.29,2.29,0,0,0,2.36,1.65,2.59,2.59,0,0,0,2.26-1.15.2.2,0,0,1,.31,0l1,.79c.13.11.13.2.06.31a4.22,4.22,0,0,1-3.6,1.78,4.08,4.08,0,0,1-4.16-2.83,9.08,9.08,0,0,1-.33-2.69A9,9,0,0,1,443.05,35Z"/><path d="M451.87,40.37a8,8,0,0,1-.35-2.69,7.92,7.92,0,0,1,.35-2.66,4.47,4.47,0,0,1,8.32,0,7.92,7.92,0,0,1,.35,2.66,8,8,0,0,1-.35,2.69,4.47,4.47,0,0,1-8.32,0Zm6.53-.53a6.77,6.77,0,0,0,.25-2.16,6.57,6.57,0,0,0-.25-2.13,2.53,2.53,0,0,0-4.75,0,6.61,6.61,0,0,0-.24,2.13,6.82,6.82,0,0,0,.24,2.16,2.53,2.53,0,0,0,4.75,0Z"/><path d="M469,43a.21.21,0,0,1-.22-.22V36.58c0-1.69-.77-2.68-2.36-2.68A2.36,2.36,0,0,0,464,36.47v6.27a.2.2,0,0,1-.22.22h-1.4a.2.2,0,0,1-.22-.22V32.64a.2.2,0,0,1,.22-.22h1.4a.2.2,0,0,1,.22.22v1h0A3.32,3.32,0,0,1,467,32.18c2.29,0,3.66,1.56,3.66,4v6.6a.21.21,0,0,1-.22.22Z"/><path d="M477,46.92a.21.21,0,0,1-.22-.22V32.64a.21.21,0,0,1,.22-.22h1.41a.21.21,0,0,1,.22.22v1h0a3.22,3.22,0,0,1,3-1.45,3.49,3.49,0,0,1,3.63,2.53,8.89,8.89,0,0,1,.37,3,8.9,8.9,0,0,1-.37,3,3.48,3.48,0,0,1-3.63,2.53,3.21,3.21,0,0,1-3-1.47h0v5a.21.21,0,0,1-.22.22Zm6.52-7a7.51,7.51,0,0,0,.24-2.2,7.74,7.74,0,0,0-.24-2.2,2.5,2.5,0,0,0-4.65,0,7.08,7.08,0,0,0-.24,2.2,6.92,6.92,0,0,0,.24,2.2,2.48,2.48,0,0,0,4.65,0Z"/><path d="M487.53,43a.21.21,0,0,1-.22-.22V32.64a.21.21,0,0,1,.22-.22h1.41a.21.21,0,0,1,.22.22v1.08h0A2.94,2.94,0,0,1,492,32.18a3.26,3.26,0,0,1,2.16.79c.11.11.13.2,0,.31l-.81,1.08a.2.2,0,0,1-.31,0,3,3,0,0,0-1.63-.5c-1.6,0-2.26,1.25-2.26,3.08v5.76a.21.21,0,0,1-.22.22Z"/><path d="M494.33,40.34a8.25,8.25,0,0,1-.35-2.66,8.17,8.17,0,0,1,.33-2.66,4.43,4.43,0,0,1,8.27,0,9.18,9.18,0,0,1,.33,3,.21.21,0,0,1-.24.22H496c-.09,0-.13,0-.13.14a3.93,3.93,0,0,0,.17,1.27,2.62,2.62,0,0,0,2.67,1.83,3.43,3.43,0,0,0,2.7-1.17.22.22,0,0,1,.33,0l.9.81a.21.21,0,0,1,0,.31,5.13,5.13,0,0,1-4.12,1.8A4.07,4.07,0,0,1,494.33,40.34Zm6.55-3.56c.09,0,.14,0,.14-.13a3.68,3.68,0,0,0-.16-1.19,2.6,2.6,0,0,0-4.84,0,3.71,3.71,0,0,0-.15,1.19c0,.09,0,.13.13.13Z"/><path d="M504.25,35a4.07,4.07,0,0,1,4.16-2.84A4.24,4.24,0,0,1,512,34a.22.22,0,0,1-.07.31l-1,.79a.2.2,0,0,1-.31,0,2.58,2.58,0,0,0-2.26-1.14,2.29,2.29,0,0,0-2.36,1.65,7.21,7.21,0,0,0-.24,2.13,7.3,7.3,0,0,0,.24,2.16,2.29,2.29,0,0,0,2.36,1.65,2.59,2.59,0,0,0,2.26-1.15.2.2,0,0,1,.31,0l1,.79a.22.22,0,0,1,.07.31,4.24,4.24,0,0,1-3.61,1.78,4.08,4.08,0,0,1-4.16-2.83,9.08,9.08,0,0,1-.33-2.69A9,9,0,0,1,504.25,35Z"/><path d="M519.74,43a.21.21,0,0,1-.22-.22v-.92h0a3.47,3.47,0,0,1-3.13,1.38c-2,0-3.54-1-3.54-3.16s1.54-3.26,4.11-3.26h2.4c.09,0,.13,0,.13-.13v-.77c0-1.45-.57-2.07-2.53-2.07a4.09,4.09,0,0,0-2.55.75.2.2,0,0,1-.31,0l-.59-1a.23.23,0,0,1,0-.31,5.92,5.92,0,0,1,3.59-1c3,0,4.14,1,4.14,3.59v7A.21.21,0,0,1,521,43Zm-.27-3.41V38.39c0-.09,0-.14-.13-.14h-2.11c-1.83,0-2.62.53-2.62,1.72s.79,1.65,2.2,1.65C518.46,41.62,519.47,40.85,519.47,39.55Z"/><path d="M530.08,43a.21.21,0,0,1-.22-.22v-1h0A3.22,3.22,0,0,1,527,43.2c-2.31,0-3.65-1.58-3.65-4V32.64a.21.21,0,0,1,.22-.22h1.41a.21.21,0,0,1,.22.22v6.14c0,1.72.77,2.71,2.33,2.71a2.34,2.34,0,0,0,2.38-2.6V32.64a.21.21,0,0,1,.22-.22h1.41a.21.21,0,0,1,.22.22v10.1a.21.21,0,0,1-.22.22Z"/><path d="M533.68,35a4.09,4.09,0,0,1,4.16-2.84A4.22,4.22,0,0,1,541.45,34c.07.11.07.2-.06.31l-1,.79a.2.2,0,0,1-.31,0,2.59,2.59,0,0,0-2.27-1.14,2.28,2.28,0,0,0-2.35,1.65,6.89,6.89,0,0,0-.24,2.13,7,7,0,0,0,.24,2.16,2.28,2.28,0,0,0,2.35,1.65,2.6,2.6,0,0,0,2.27-1.15.2.2,0,0,1,.31,0l1,.79c.13.11.13.2.06.31a4.22,4.22,0,0,1-3.61,1.78,4.09,4.09,0,0,1-4.16-2.83,9.43,9.43,0,0,1-.33-2.69A9.35,9.35,0,0,1,533.68,35Z"/><path d="M543.23,30.05a.21.21,0,0,1-.22-.22V28.22a.21.21,0,0,1,.22-.22h1.5a.21.21,0,0,1,.22.22v1.61a.21.21,0,0,1-.22.22Zm0,12.91a.2.2,0,0,1-.22-.22V32.64a.2.2,0,0,1,.22-.22h1.4a.2.2,0,0,1,.22.22v10.1a.2.2,0,0,1-.22.22Z"/><path d="M546.91,40.37a7.75,7.75,0,0,1-.36-2.69,7.64,7.64,0,0,1,.36-2.66,4.46,4.46,0,0,1,8.31,0,7.64,7.64,0,0,1,.36,2.66,7.75,7.75,0,0,1-.36,2.69,4.47,4.47,0,0,1-8.31,0Zm6.53-.53a6.82,6.82,0,0,0,.24-2.16,6.61,6.61,0,0,0-.24-2.13,2.53,2.53,0,0,0-4.75,0,6.61,6.61,0,0,0-.24,2.13,6.82,6.82,0,0,0,.24,2.16,2.53,2.53,0,0,0,4.75,0Zm-3.17-9.13c-.13,0-.2-.09-.13-.22l1.67-2.71a.4.4,0,0,1,.38-.22h1.45c.13,0,.2.11.11.22l-2,2.71a.44.44,0,0,1-.41.22Z"/><path d="M564.07,43a.2.2,0,0,1-.22-.22V36.58c0-1.69-.77-2.68-2.36-2.68a2.36,2.36,0,0,0-2.42,2.57v6.27a.21.21,0,0,1-.22.22h-1.41a.21.21,0,0,1-.22-.22V32.64a.21.21,0,0,1,.22-.22h1.41a.21.21,0,0,1,.22.22v1h0A3.35,3.35,0,0,1,562,32.18c2.29,0,3.66,1.56,3.66,4v6.6a.21.21,0,0,1-.22.22Z"/><path d="M567.61,40.85a.21.21,0,0,1,.22-.22h1.67a.21.21,0,0,1,.22.22v1.89a.21.21,0,0,1-.22.22h-1.67a.21.21,0,0,1-.22-.22Z"/></g></g></svg>