<svg xmlns="http://www.w3.org/2000/svg" viewBox="0 0 381.28 76.64"><title>2b</title><g id="Capa_2" data-name="Capa 2"><g id="answer_copia" data-name="answer copia"><path d="M.05.24A.23.23,0,0,1,.29,0H1.94a.23.23,0,0,1,.24.24V16.08a.22.22,0,0,1-.24.24H.29a.22.22,0,0,1-.24-.24Z"/><path d="M12.19,16.32a.23.23,0,0,1-.24-.24V9.36c0-1.85-.84-2.93-2.57-2.93A2.58,2.58,0,0,0,6.74,9.24v6.84a.22.22,0,0,1-.24.24H5a.22.22,0,0,1-.24-.24v-11A.23.23,0,0,1,5,4.82H6.5a.23.23,0,0,1,.24.24V6.12h0A3.62,3.62,0,0,1,10,4.56c2.5,0,4,1.7,4,4.32v7.2a.23.23,0,0,1-.24.24Z"/><path d="M16.1,19.2a.21.21,0,0,1,0-.33l1-1a.23.23,0,0,1,.36,0A3.83,3.83,0,0,0,20.18,19c1.9,0,2.91-1,2.91-3.09V14.59h0a3.29,3.29,0,0,1-3.19,1.59A3.77,3.77,0,0,1,16,13.39a8.89,8.89,0,0,1-.39-3,9,9,0,0,1,.39-3,3.76,3.76,0,0,1,3.86-2.78,3.29,3.29,0,0,1,3.19,1.58h0V5.06a.23.23,0,0,1,.24-.24h1.53a.23.23,0,0,1,.24.24V15.82c0,3.26-1.77,5.09-5,5.09A5.21,5.21,0,0,1,16.1,19.2Zm6.72-6.6a6.76,6.76,0,0,0,.27-2.23,6.8,6.8,0,0,0-.27-2.23,2.34,2.34,0,0,0-2.44-1.71A2.36,2.36,0,0,0,18,8.14a7.22,7.22,0,0,0-.29,2.23A7.18,7.18,0,0,0,18,12.6a2.36,2.36,0,0,0,2.43,1.73A2.36,2.36,0,0,0,22.82,12.6Z"/><path d="M27.84,16.32a.23.23,0,0,1-.24-.24v-11a.23.23,0,0,1,.24-.24h1.54a.23.23,0,0,1,.24.24V6.24h0a3.2,3.2,0,0,1,3-1.68A3.58,3.58,0,0,1,35,5.42c.12.12.14.22.05.34L34.2,6.94a.22.22,0,0,1-.34,0,3.25,3.25,0,0,0-1.77-.55c-1.75,0-2.47,1.37-2.47,3.36v6.29a.23.23,0,0,1-.24.24Z"/><path d="M35.26,13.47a9.05,9.05,0,0,1-.39-2.91,8.87,8.87,0,0,1,.36-2.9,4.44,4.44,0,0,1,4.51-3.1,4.46,4.46,0,0,1,4.52,3.1,10,10,0,0,1,.36,3.28.24.24,0,0,1-.27.25H37.08c-.1,0-.14,0-.14.14a4.3,4.3,0,0,0,.19,1.39,2.83,2.83,0,0,0,2.9,2A3.74,3.74,0,0,0,43,13.44a.25.25,0,0,1,.36,0l1,.89a.22.22,0,0,1,0,.34,5.59,5.59,0,0,1-4.49,2A4.44,4.44,0,0,1,35.26,13.47Zm7.15-3.89c.09,0,.14-.05.14-.15a4,4,0,0,0-.17-1.29,2.84,2.84,0,0,0-5.28,0,4,4,0,0,0-.16,1.29c0,.1,0,.15.14.15Z"/><path d="M45.62,14.86a.25.25,0,0,1,0-.34l1-1a.22.22,0,0,1,.33,0,5.63,5.63,0,0,0,3.56,1.32c1.68,0,2.52-.73,2.52-1.76s-.44-1.41-2.24-1.61l-1.22-.12c-2.26-.24-3.43-1.36-3.43-3.24,0-2.18,1.56-3.5,4.27-3.5a6.88,6.88,0,0,1,4.08,1.27.24.24,0,0,1,.05.34l-.82,1a.23.23,0,0,1-.33,0,6.07,6.07,0,0,0-3.1-.94c-1.44,0-2.18.65-2.18,1.59s.55,1.39,2.25,1.56l1.2.12C53.88,9.79,55,11,55,12.82c0,2.25-1.63,3.77-4.63,3.77A7.19,7.19,0,0,1,45.62,14.86Z"/><path d="M56.42,13.47A9.1,9.1,0,0,1,56,10.56a8.87,8.87,0,0,1,.36-2.9,4.83,4.83,0,0,1,9,0,10,10,0,0,1,.36,3.28.23.23,0,0,1-.26.25H58.25c-.1,0-.15,0-.15.14a4.3,4.3,0,0,0,.19,1.39,2.84,2.84,0,0,0,2.91,2,3.74,3.74,0,0,0,3-1.27.25.25,0,0,1,.36,0l1,.89a.22.22,0,0,1,0,.34,5.59,5.59,0,0,1-4.49,2A4.45,4.45,0,0,1,56.42,13.47Zm7.16-3.89c.09,0,.14-.05.14-.15a4,4,0,0,0-.17-1.29,2.84,2.84,0,0,0-5.28,0,4,4,0,0,0-.17,1.29.13.13,0,0,0,.15.15Z"/><path d="M71.57,7.66a4.44,4.44,0,0,1,4.53-3.1A4.6,4.6,0,0,1,80,6.5a.23.23,0,0,1-.07.34l-1.06.86a.21.21,0,0,1-.33,0A2.84,2.84,0,0,0,76.1,6.43a2.49,2.49,0,0,0-2.56,1.8,7.39,7.39,0,0,0-.27,2.33,7.45,7.45,0,0,0,.27,2.35,2.49,2.49,0,0,0,2.56,1.8,2.83,2.83,0,0,0,2.48-1.24.21.21,0,0,1,.33,0l1.06.87c.14.12.14.21.07.33a4.61,4.61,0,0,1-3.94,1.95,4.45,4.45,0,0,1-4.53-3.1,9.81,9.81,0,0,1-.36-2.93A9.69,9.69,0,0,1,71.57,7.66Z"/><path d="M81.19,13.49a8.77,8.77,0,0,1-.38-2.93,8.65,8.65,0,0,1,.38-2.9,4.87,4.87,0,0,1,9.07,0,8.37,8.37,0,0,1,.39,2.9,8.48,8.48,0,0,1-.39,2.93,4.87,4.87,0,0,1-9.07,0Zm7.13-.58a7.56,7.56,0,0,0,.26-2.35,7.5,7.5,0,0,0-.26-2.33,2.77,2.77,0,0,0-5.19,0,7.5,7.5,0,0,0-.26,2.33,7.56,7.56,0,0,0,.26,2.35,2.77,2.77,0,0,0,5.19,0Z"/><path d="M99.91,16.32a.23.23,0,0,1-.24-.24V9.36c0-1.85-.84-2.93-2.57-2.93a2.58,2.58,0,0,0-2.64,2.81v6.84a.22.22,0,0,1-.24.24H92.69a.22.22,0,0,1-.24-.24v-11a.23.23,0,0,1,.24-.24h1.53a.23.23,0,0,1,.24.24V6.12h0A3.62,3.62,0,0,1,97.7,4.56c2.5,0,4,1.7,4,4.32v7.2a.23.23,0,0,1-.24.24Z"/><path d="M111.14,16.44c-2,0-2.81-1-2.81-3V.24a.23.23,0,0,1,.24-.24h1.54a.23.23,0,0,1,.24.24V13.3c0,1,.36,1.27,1.15,1.27H112a.23.23,0,0,1,.24.24V16.2a.23.23,0,0,1-.24.24Z"/><path d="M113.28,13.49a8.48,8.48,0,0,1-.39-2.93,8.37,8.37,0,0,1,.39-2.9,4.87,4.87,0,0,1,9.07,0,8.65,8.65,0,0,1,.38,2.9,8.77,8.77,0,0,1-.38,2.93,4.87,4.87,0,0,1-9.07,0Zm7.13-.58a7.56,7.56,0,0,0,.26-2.35,7.5,7.5,0,0,0-.26-2.33,2.77,2.77,0,0,0-5.19,0,7.5,7.5,0,0,0-.26,2.33,7.56,7.56,0,0,0,.26,2.35,2.77,2.77,0,0,0,5.19,0Z"/><path d="M123.74,14.86a.25.25,0,0,1,0-.34l1-1a.22.22,0,0,1,.33,0,5.62,5.62,0,0,0,3.55,1.32c1.68,0,2.52-.73,2.52-1.76s-.43-1.41-2.23-1.61l-1.22-.12c-2.26-.24-3.43-1.36-3.43-3.24,0-2.18,1.56-3.5,4.27-3.5a6.88,6.88,0,0,1,4.08,1.27.24.24,0,0,1,.05.34l-.82,1a.24.24,0,0,1-.34,0,6,6,0,0,0-3.09-.94c-1.44,0-2.19.65-2.19,1.59s.56,1.39,2.26,1.56l1.2.12c2.33.21,3.46,1.39,3.46,3.24,0,2.25-1.64,3.77-4.64,3.77A7.18,7.18,0,0,1,123.74,14.86Z"/><path d="M153.86,16.32a.23.23,0,0,1-.24-.24V9.36c0-1.85-.84-2.93-2.57-2.93a2.6,2.6,0,0,0-2.64,2.81v6.84a.22.22,0,0,1-.24.24h-1.53a.22.22,0,0,1-.24-.24V9.36c0-1.85-.84-2.93-2.57-2.93a2.58,2.58,0,0,0-2.64,2.81v6.84a.23.23,0,0,1-.24.24h-1.54a.23.23,0,0,1-.24-.24v-11a.23.23,0,0,1,.24-.24H141a.23.23,0,0,1,.24.24V6.12h0a4.07,4.07,0,0,1,6.58.24h0a4.3,4.3,0,0,1,3.72-1.8c2.67,0,4.11,1.7,4.11,4.32v7.2a.23.23,0,0,1-.24.24Z"/><path d="M158.21,2.23A.23.23,0,0,1,158,2V.24a.23.23,0,0,1,.25-.24h1.63a.23.23,0,0,1,.24.24V2a.23.23,0,0,1-.24.24Zm0,14.09a.23.23,0,0,1-.24-.24v-11a.23.23,0,0,1,.24-.24h1.54a.23.23,0,0,1,.24.24v11a.23.23,0,0,1-.24.24Z"/><path d="M161.73,14.86a.25.25,0,0,1,0-.34l1-1a.22.22,0,0,1,.33,0,5.62,5.62,0,0,0,3.55,1.32c1.69,0,2.53-.73,2.53-1.76s-.44-1.41-2.24-1.61l-1.22-.12c-2.26-.24-3.43-1.36-3.43-3.24,0-2.18,1.56-3.5,4.27-3.5a6.88,6.88,0,0,1,4.08,1.27.24.24,0,0,1,0,.34l-.82,1a.23.23,0,0,1-.33,0,6.07,6.07,0,0,0-3.1-.94c-1.44,0-2.18.65-2.18,1.59s.55,1.39,2.25,1.56l1.2.12c2.33.21,3.46,1.39,3.46,3.24,0,2.25-1.63,3.77-4.63,3.77A7.19,7.19,0,0,1,161.73,14.86Z"/><path d="M187.53,16.32a.23.23,0,0,1-.24-.24V9.36c0-1.85-.84-2.93-2.56-2.93a2.6,2.6,0,0,0-2.65,2.81v6.84a.22.22,0,0,1-.24.24h-1.53a.23.23,0,0,1-.24-.24V9.36c0-1.85-.84-2.93-2.57-2.93a2.58,2.58,0,0,0-2.64,2.81v6.84a.23.23,0,0,1-.24.24h-1.54a.23.23,0,0,1-.24-.24v-11a.23.23,0,0,1,.24-.24h1.54a.23.23,0,0,1,.24.24V6.12h0a4.07,4.07,0,0,1,6.58.24h0a4.28,4.28,0,0,1,3.72-1.8c2.66,0,4.1,1.7,4.1,4.32v7.2a.23.23,0,0,1-.24.24Z"/><path d="M191.37,13.49a8.77,8.77,0,0,1-.38-2.93,8.65,8.65,0,0,1,.38-2.9,4.87,4.87,0,0,1,9.08,0,8.65,8.65,0,0,1,.38,2.9,8.77,8.77,0,0,1-.38,2.93,4.87,4.87,0,0,1-9.08,0Zm7.13-.58a7.56,7.56,0,0,0,.26-2.35,7.5,7.5,0,0,0-.26-2.33,2.76,2.76,0,0,0-5.18,0,7.16,7.16,0,0,0-.27,2.33,7.22,7.22,0,0,0,.27,2.35,2.76,2.76,0,0,0,5.18,0Z"/><path d="M201.84,14.86a.23.23,0,0,1,0-.34l1-1a.23.23,0,0,1,.34,0,5.6,5.6,0,0,0,3.55,1.32c1.68,0,2.52-.73,2.52-1.76s-.43-1.41-2.23-1.61l-1.23-.12c-2.25-.24-3.43-1.36-3.43-3.24,0-2.18,1.56-3.5,4.27-3.5a6.88,6.88,0,0,1,4.08,1.27.24.24,0,0,1,.05.34l-.82,1a.23.23,0,0,1-.33,0,6.07,6.07,0,0,0-3.1-.94c-1.44,0-2.18.65-2.18,1.59s.55,1.39,2.25,1.56l1.2.12c2.33.21,3.46,1.39,3.46,3.24,0,2.25-1.63,3.77-4.63,3.77A7.16,7.16,0,0,1,201.84,14.86Z"/><path d="M217,13.47a8.78,8.78,0,0,1-.39-2.91,8.87,8.87,0,0,1,.36-2.9,4.84,4.84,0,0,1,9,0,10,10,0,0,1,.36,3.28.24.24,0,0,1-.27.25h-7.27c-.1,0-.14,0-.14.14a4.3,4.3,0,0,0,.19,1.39,2.83,2.83,0,0,0,2.9,2,3.74,3.74,0,0,0,3-1.27.25.25,0,0,1,.36,0l1,.89a.22.22,0,0,1,0,.34,5.59,5.59,0,0,1-4.49,2A4.44,4.44,0,0,1,217,13.47Zm7.15-3.89c.09,0,.14-.05.14-.15a4,4,0,0,0-.17-1.29,2.84,2.84,0,0,0-5.28,0,4,4,0,0,0-.16,1.29c0,.1,0,.15.14.15Z"/><path d="M235.32,20.64a.22.22,0,0,1-.24-.24V15h0a3.49,3.49,0,0,1-3.26,1.61,3.79,3.79,0,0,1-4-2.76,9.43,9.43,0,0,1-.41-3.27,9.29,9.29,0,0,1,.41-3.24,3.79,3.79,0,0,1,4-2.76,3.48,3.48,0,0,1,3.26,1.58h0V5.06a.23.23,0,0,1,.24-.24h1.53a.23.23,0,0,1,.24.24V20.4a.22.22,0,0,1-.24.24ZM234.81,13a7.41,7.41,0,0,0,.27-2.4,7.53,7.53,0,0,0-.27-2.4,2.71,2.71,0,0,0-5.06,0,7.88,7.88,0,0,0-.27,2.4,7.68,7.68,0,0,0,.27,2.4,2.7,2.7,0,0,0,5.06,0Z"/><path d="M246.81,16.32a.23.23,0,0,1-.24-.24V15h0a3.52,3.52,0,0,1-3.15,1.59c-2.52,0-4-1.73-4-4.35V5.06a.23.23,0,0,1,.24-.24h1.54a.23.23,0,0,1,.24.24v6.7c0,1.87.84,3,2.54,3a2.55,2.55,0,0,0,2.59-2.83V5.06a.23.23,0,0,1,.24-.24h1.54a.23.23,0,0,1,.24.24v11a.23.23,0,0,1-.24.24Z"/><path d="M251.27,2.23A.22.22,0,0,1,251,2V.24a.22.22,0,0,1,.23-.24h1.64a.23.23,0,0,1,.24.24V2a.23.23,0,0,1-.24.24Zm0,14.09a.23.23,0,0,1-.24-.24v-11a.23.23,0,0,1,.24-.24h1.54a.23.23,0,0,1,.24.24v11a.23.23,0,0,1-.24.24Z"/><path d="M255.83,20.64a.23.23,0,0,1-.24-.24V5.06a.23.23,0,0,1,.24-.24h1.54a.23.23,0,0,1,.24.24V6.14h0a3.51,3.51,0,0,1,3.27-1.58,3.81,3.81,0,0,1,4,2.76,9.53,9.53,0,0,1,.41,3.24,9.68,9.68,0,0,1-.41,3.27,3.81,3.81,0,0,1-4,2.76A3.52,3.52,0,0,1,257.63,15h0V20.4a.23.23,0,0,1-.24.24ZM262.94,13a8,8,0,0,0,.26-2.4,8.26,8.26,0,0,0-.26-2.4,2.71,2.71,0,0,0-5.06,0,7.25,7.25,0,0,0-.27,2.4,7.14,7.14,0,0,0,.27,2.4,2.7,2.7,0,0,0,5.06,0Z"/><path d="M266.75,13.49a8.77,8.77,0,0,1-.38-2.93,8.65,8.65,0,0,1,.38-2.9,4.87,4.87,0,0,1,9.08,0,8.65,8.65,0,0,1,.38,2.9,8.77,8.77,0,0,1-.38,2.93,4.87,4.87,0,0,1-9.08,0Zm7.13-.58a7.5,7.5,0,0,0,.27-2.35,7.45,7.45,0,0,0-.27-2.33,2.76,2.76,0,0,0-5.18,0,7.45,7.45,0,0,0-.27,2.33,7.5,7.5,0,0,0,.27,2.35,2.76,2.76,0,0,0,5.18,0Z"/><path d="M277.22,14.86a.23.23,0,0,1,0-.34l1-1a.23.23,0,0,1,.34,0,5.6,5.6,0,0,0,3.55,1.32c1.68,0,2.52-.73,2.52-1.76s-.43-1.41-2.23-1.61l-1.23-.12c-2.25-.24-3.43-1.36-3.43-3.24,0-2.18,1.56-3.5,4.27-3.5a6.88,6.88,0,0,1,4.08,1.27.24.24,0,0,1,.05.34l-.81,1a.24.24,0,0,1-.34,0,6,6,0,0,0-3.1-.94c-1.44,0-2.18.65-2.18,1.59s.55,1.39,2.26,1.56l1.2.12c2.32.21,3.45,1.39,3.45,3.24,0,2.25-1.63,3.77-4.63,3.77A7.16,7.16,0,0,1,277.22,14.86Z"/><path d="M299.85,20.64a.23.23,0,0,1-.24-.24V15h0a3.52,3.52,0,0,1-3.27,1.61,3.81,3.81,0,0,1-4-2.76,9.68,9.68,0,0,1-.41-3.27,9.53,9.53,0,0,1,.41-3.24,3.81,3.81,0,0,1,4-2.76,3.51,3.51,0,0,1,3.27,1.58h0V5.06a.23.23,0,0,1,.24-.24h1.54a.23.23,0,0,1,.24.24V20.4a.23.23,0,0,1-.24.24Zm-.5-7.68a7.47,7.47,0,0,0,.26-2.4,7.59,7.59,0,0,0-.26-2.4,2.72,2.72,0,0,0-5.07,0,8.26,8.26,0,0,0-.26,2.4,8,8,0,0,0,.26,2.4,2.71,2.71,0,0,0,5.07,0Z"/><path d="M311.35,16.32a.22.22,0,0,1-.24-.24V15h0a3.5,3.5,0,0,1-3.14,1.59c-2.52,0-4-1.73-4-4.35V5.06a.23.23,0,0,1,.24-.24h1.54a.23.23,0,0,1,.24.24v6.7c0,1.87.84,3,2.54,3a2.55,2.55,0,0,0,2.6-2.83V5.06a.23.23,0,0,1,.24-.24h1.53a.23.23,0,0,1,.24.24v11a.22.22,0,0,1-.24.24Z"/><path d="M315.3,13.47a9.1,9.1,0,0,1-.38-2.91,8.87,8.87,0,0,1,.36-2.9,4.84,4.84,0,0,1,9,0,10,10,0,0,1,.36,3.28.24.24,0,0,1-.27.25h-7.27c-.1,0-.14,0-.14.14a4.3,4.3,0,0,0,.19,1.39,2.83,2.83,0,0,0,2.9,2A3.74,3.74,0,0,0,323,13.44a.25.25,0,0,1,.36,0l1,.89a.22.22,0,0,1,0,.34,5.59,5.59,0,0,1-4.49,2A4.45,4.45,0,0,1,315.3,13.47Zm7.16-3.89c.09,0,.14-.05.14-.15a4,4,0,0,0-.17-1.29,2.84,2.84,0,0,0-5.28,0A4,4,0,0,0,317,9.43c0,.1,0,.15.14.15Z"/><path d="M338,16.32a.23.23,0,0,1-.24-.24V15h0a3.52,3.52,0,0,1-3.15,1.59c-2.52,0-4-1.73-4-4.35V5.06a.23.23,0,0,1,.24-.24h1.53a.23.23,0,0,1,.24.24v6.7c0,1.87.84,3,2.55,3a2.55,2.55,0,0,0,2.59-2.83V5.06a.23.23,0,0,1,.24-.24h1.54a.23.23,0,0,1,.24.24v11a.23.23,0,0,1-.24.24Z"/><path d="M345.62,16.44c-2.24,0-3.1-1-3.1-3.26V6.6a.12.12,0,0,0-.14-.14h-1a.23.23,0,0,1-.24-.24V5.06a.23.23,0,0,1,.24-.24h1a.12.12,0,0,0,.14-.14V1.44a.23.23,0,0,1,.24-.24h1.54a.23.23,0,0,1,.24.24V4.68c0,.1,0,.14.14.14h1.82a.23.23,0,0,1,.25.24V6.22a.23.23,0,0,1-.25.24h-1.82c-.1,0-.14,0-.14.14v6.5c0,1.16.43,1.47,1.46,1.47h.5a.23.23,0,0,1,.25.24V16.2a.23.23,0,0,1-.25.24Z"/><path d="M348.62,2.23a.22.22,0,0,1-.24-.24V.24a.23.23,0,0,1,.24-.24h1.63a.23.23,0,0,1,.24.24V2a.23.23,0,0,1-.24.24Zm0,14.09a.23.23,0,0,1-.24-.24v-11a.23.23,0,0,1,.24-.24h1.54a.23.23,0,0,1,.24.24v11a.23.23,0,0,1-.24.24Z"/><path d="M355.7,16.44c-2,0-2.81-1-2.81-3V.24a.23.23,0,0,1,.24-.24h1.53a.23.23,0,0,1,.24.24V13.3c0,1,.36,1.27,1.16,1.27h.45a.23.23,0,0,1,.24.24V16.2a.22.22,0,0,1-.24.24Z"/><path d="M358.34,2.23A.22.22,0,0,1,358.1,2V.24a.23.23,0,0,1,.24-.24H360a.23.23,0,0,1,.24.24V2a.23.23,0,0,1-.24.24Zm0,14.09a.23.23,0,0,1-.24-.24v-11a.23.23,0,0,1,.24-.24h1.54a.23.23,0,0,1,.24.24v11a.23.23,0,0,1-.24.24Z"/><path d="M362.25,16.32a.22.22,0,0,1-.24-.24V14.81a.35.35,0,0,1,.09-.26l6.32-7.85v0h-5.86a.23.23,0,0,1-.24-.24V5.06a.23.23,0,0,1,.24-.24h8a.23.23,0,0,1,.24.24V6.41a.35.35,0,0,1-.1.26l-6.26,7.78v.05h6.12a.23.23,0,0,1,.24.24v1.34a.23.23,0,0,1-.24.24Z"/><path d="M379.62,16.32a.23.23,0,0,1-.24-.24v-1h0A3.77,3.77,0,0,1,376,16.59c-2.18,0-3.86-1.13-3.86-3.46s1.68-3.55,4.49-3.55h2.61a.13.13,0,0,0,.15-.15V8.59c0-1.58-.63-2.25-2.76-2.25a4.48,4.48,0,0,0-2.79.81c-.12.1-.26.1-.33,0L372.81,6a.24.24,0,0,1,.05-.33,6.36,6.36,0,0,1,3.91-1.13c3.26,0,4.51,1.08,4.51,3.91v7.61a.23.23,0,0,1-.24.24Zm-.28-3.72V11.33c0-.1,0-.14-.15-.14h-2.3c-2,0-2.86.57-2.86,1.87s.87,1.8,2.4,1.8C378.23,14.86,379.34,14,379.34,12.6Z"/><path d="M.24,48.64A.23.23,0,0,1,0,48.4V33.06a.23.23,0,0,1,.24-.24H1.78a.23.23,0,0,1,.24.24v1.08H2A3.49,3.49,0,0,1,5.3,32.56a3.79,3.79,0,0,1,4,2.76,9.29,9.29,0,0,1,.41,3.24,9.43,9.43,0,0,1-.41,3.27,3.79,3.79,0,0,1-4,2.76A3.5,3.5,0,0,1,2,43H2V48.4a.23.23,0,0,1-.24.24ZM7.34,41a7.68,7.68,0,0,0,.27-2.4,7.88,7.88,0,0,0-.27-2.4,2.43,2.43,0,0,0-2.52-1.73,2.44,2.44,0,0,0-2.54,1.73A7.59,7.59,0,0,0,2,38.56,7.47,7.47,0,0,0,2.28,41a2.46,2.46,0,0,0,2.54,1.75A2.45,2.45,0,0,0,7.34,41Z"/><path d="M18.43,44.32a.23.23,0,0,1-.24-.24v-1h0a3.77,3.77,0,0,1-3.41,1.52c-2.18,0-3.86-1.13-3.86-3.46s1.68-3.55,4.48-3.55H18c.1,0,.14,0,.14-.15v-.84c0-1.58-.62-2.25-2.76-2.25a4.47,4.47,0,0,0-2.78.81.22.22,0,0,1-.34,0L11.62,34a.24.24,0,0,1,0-.33,6.42,6.42,0,0,1,3.92-1.13c3.26,0,4.51,1.08,4.51,3.91v7.61a.23.23,0,0,1-.24.24Zm-.29-3.72V39.33c0-.1,0-.14-.14-.14H15.7c-2,0-2.86.57-2.86,1.87s.86,1.8,2.4,1.8C17,42.86,18.14,42,18.14,40.6Z"/><path d="M22.73,44.32a.22.22,0,0,1-.24-.24v-11a.23.23,0,0,1,.24-.24h1.53a.23.23,0,0,1,.24.24v1.18h0a3.2,3.2,0,0,1,3-1.68,3.58,3.58,0,0,1,2.35.86c.12.12.14.22.05.34l-.89,1.18a.22.22,0,0,1-.34,0A3.28,3.28,0,0,0,27,34.43c-1.76,0-2.48,1.37-2.48,3.36v6.29a.22.22,0,0,1-.24.24Z"/><path d="M37.27,44.32a.23.23,0,0,1-.24-.24v-1h0a3.77,3.77,0,0,1-3.41,1.52c-2.18,0-3.86-1.13-3.86-3.46s1.68-3.55,4.48-3.55h2.62a.13.13,0,0,0,.15-.15v-.84c0-1.58-.63-2.25-2.77-2.25a4.47,4.47,0,0,0-2.78.81.22.22,0,0,1-.34,0L30.46,34a.24.24,0,0,1,0-.33,6.42,6.42,0,0,1,3.92-1.13c3.26,0,4.51,1.08,4.51,3.91v7.61a.23.23,0,0,1-.24.24ZM37,40.6V39.33c0-.1-.05-.14-.15-.14h-2.3c-2,0-2.86.57-2.86,1.87s.86,1.8,2.4,1.8C35.88,42.86,37,42,37,40.6Z"/><path d="M52.61,44.32a.22.22,0,0,1-.24-.24v-1h0a3.74,3.74,0,0,1-3.4,1.52c-2.19,0-3.87-1.13-3.87-3.46s1.68-3.55,4.49-3.55h2.62c.09,0,.14,0,.14-.15v-.84c0-1.58-.62-2.25-2.76-2.25a4.44,4.44,0,0,0-2.78.81c-.12.1-.27.1-.34,0L45.79,34a.24.24,0,0,1,.05-.33,6.38,6.38,0,0,1,3.91-1.13c3.27,0,4.51,1.08,4.51,3.91v7.61a.22.22,0,0,1-.24.24Zm-.29-3.72V39.33a.12.12,0,0,0-.14-.14H49.87c-2,0-2.85.57-2.85,1.87s.86,1.8,2.4,1.8C51.22,42.86,52.32,42,52.32,40.6Z"/><path d="M59.42,44.44c-2,0-2.8-1-2.8-3V28.24a.23.23,0,0,1,.24-.24h1.53a.23.23,0,0,1,.24.24V41.3c0,1,.36,1.27,1.15,1.27h.46a.23.23,0,0,1,.24.24V44.2a.23.23,0,0,1-.24.24Z"/><path d="M65.09,44.44c-2.23,0-3.1-1-3.1-3.26V34.6a.12.12,0,0,0-.14-.14h-1a.23.23,0,0,1-.24-.24V33.06a.23.23,0,0,1,.24-.24h1a.12.12,0,0,0,.14-.14V29.44a.23.23,0,0,1,.24-.24h1.54a.23.23,0,0,1,.24.24v3.24a.12.12,0,0,0,.14.14H66a.23.23,0,0,1,.24.24v1.16a.23.23,0,0,1-.24.24H64.15a.12.12,0,0,0-.14.14v6.5c0,1.16.43,1.47,1.46,1.47H66a.23.23,0,0,1,.24.24V44.2a.23.23,0,0,1-.24.24Z"/><path d="M75.12,44.32a.23.23,0,0,1-.24-.24V43h0a3.52,3.52,0,0,1-3.15,1.59c-2.52,0-4-1.73-4-4.35V33.06a.23.23,0,0,1,.24-.24H69.5a.23.23,0,0,1,.25.24v6.7c0,1.87.83,3,2.54,3a2.55,2.55,0,0,0,2.59-2.83V33.06a.23.23,0,0,1,.24-.24h1.54a.23.23,0,0,1,.24.24v11a.23.23,0,0,1-.24.24Z"/><path d="M79.63,44.32a.23.23,0,0,1-.24-.24v-11a.23.23,0,0,1,.24-.24h1.54a.23.23,0,0,1,.24.24v1.18h0a3.21,3.21,0,0,1,3-1.68,3.56,3.56,0,0,1,2.35.86c.12.12.15.22,0,.34L86,34.94a.21.21,0,0,1-.33,0,3.31,3.31,0,0,0-1.78-.55c-1.75,0-2.47,1.37-2.47,3.36v6.29a.23.23,0,0,1-.24.24Z"/><path d="M94.18,44.32a.22.22,0,0,1-.24-.24v-1h0a3.75,3.75,0,0,1-3.41,1.52c-2.18,0-3.86-1.13-3.86-3.46s1.68-3.55,4.49-3.55h2.62c.09,0,.14,0,.14-.15v-.84c0-1.58-.63-2.25-2.76-2.25a4.5,4.5,0,0,0-2.79.81c-.12.1-.26.1-.33,0L87.36,34a.24.24,0,0,1,0-.33,6.38,6.38,0,0,1,3.91-1.13c3.26,0,4.51,1.08,4.51,3.91v7.61a.22.22,0,0,1-.24.24Zm-.29-3.72V39.33a.12.12,0,0,0-.14-.14H91.44c-2,0-2.86.57-2.86,1.87s.87,1.8,2.4,1.8C92.79,42.86,93.89,42,93.89,40.6Z"/><path d="M97.44,42.86a.23.23,0,0,1,0-.34l1-1.05a.23.23,0,0,1,.34,0,5.62,5.62,0,0,0,3.55,1.32c1.68,0,2.52-.73,2.52-1.76s-.43-1.41-2.23-1.61l-1.22-.12c-2.26-.24-3.44-1.36-3.44-3.24,0-2.18,1.56-3.5,4.28-3.5a6.88,6.88,0,0,1,4.08,1.27.24.24,0,0,1,0,.34l-.82,1a.24.24,0,0,1-.34,0,6,6,0,0,0-3.09-.94c-1.44,0-2.19.65-2.19,1.59s.55,1.39,2.26,1.56l1.2.12c2.33.21,3.46,1.39,3.46,3.24,0,2.25-1.64,3.77-4.64,3.77A7.18,7.18,0,0,1,97.44,42.86Z"/><path d="M108.5,41.78h1.68a.22.22,0,0,1,.24.24v2.23a.77.77,0,0,1-.14.53l-1.49,2a.36.36,0,0,1-.31.16.21.21,0,0,1-.22-.21V42A.23.23,0,0,1,108.5,41.78Z"/><path d="M123.41,44.32a.22.22,0,0,1-.24-.24v-1h0a3.74,3.74,0,0,1-3.4,1.52c-2.19,0-3.87-1.13-3.87-3.46s1.68-3.55,4.49-3.55H123c.09,0,.14,0,.14-.15v-.84c0-1.58-.62-2.25-2.76-2.25a4.44,4.44,0,0,0-2.78.81c-.12.1-.27.1-.34,0L116.59,34a.24.24,0,0,1,0-.33,6.38,6.38,0,0,1,3.91-1.13c3.27,0,4.51,1.08,4.51,3.91v7.61a.22.22,0,0,1-.24.24Zm-.29-3.72V39.33a.12.12,0,0,0-.14-.14h-2.31c-2,0-2.85.57-2.85,1.87s.86,1.8,2.4,1.8C122,42.86,123.12,42,123.12,40.6Z"/><path d="M134.93,44.32a.22.22,0,0,1-.24-.24V37.36c0-1.85-.84-2.93-2.57-2.93a2.58,2.58,0,0,0-2.64,2.81v6.84a.23.23,0,0,1-.24.24H127.7a.23.23,0,0,1-.24-.24v-11a.23.23,0,0,1,.24-.24h1.54a.23.23,0,0,1,.24.24v1.06h0a3.65,3.65,0,0,1,3.22-1.56c2.5,0,4,1.7,4,4.32v7.2a.23.23,0,0,1-.25.24Z"/><path d="M142.42,44.44c-2.24,0-3.1-1-3.1-3.26V34.6a.12.12,0,0,0-.14-.14h-1a.23.23,0,0,1-.24-.24V33.06a.23.23,0,0,1,.24-.24h1a.12.12,0,0,0,.14-.14V29.44a.23.23,0,0,1,.24-.24h1.54a.23.23,0,0,1,.24.24v3.24c0,.1,0,.14.14.14h1.82a.23.23,0,0,1,.24.24v1.16a.23.23,0,0,1-.24.24h-1.82c-.1,0-.14,0-.14.14v6.5c0,1.16.43,1.47,1.46,1.47h.5a.23.23,0,0,1,.24.24V44.2a.22.22,0,0,1-.24.24Z"/><path d="M145.42,30.23a.22.22,0,0,1-.24-.24V28.24a.23.23,0,0,1,.24-.24h1.63a.23.23,0,0,1,.24.24V30a.23.23,0,0,1-.24.24Zm0,14.09a.23.23,0,0,1-.24-.24v-11a.23.23,0,0,1,.24-.24H147a.23.23,0,0,1,.24.24v11a.23.23,0,0,1-.24.24Z"/><path d="M149.4,35.66a4.45,4.45,0,0,1,4.54-3.1,4.6,4.6,0,0,1,3.93,1.94.23.23,0,0,1-.07.34l-1.06.86a.21.21,0,0,1-.33,0,2.82,2.82,0,0,0-2.47-1.25,2.49,2.49,0,0,0-2.57,1.8,7.7,7.7,0,0,0-.27,2.33,7.76,7.76,0,0,0,.27,2.35,2.49,2.49,0,0,0,2.57,1.8,2.82,2.82,0,0,0,2.47-1.24.21.21,0,0,1,.33,0l1.06.87c.14.12.14.21.07.33a4.61,4.61,0,0,1-3.93,2,4.46,4.46,0,0,1-4.54-3.1,9.81,9.81,0,0,1-.36-2.93A9.69,9.69,0,0,1,149.4,35.66Z"/><path d="M159.82,30.23a.22.22,0,0,1-.24-.24V28.24a.23.23,0,0,1,.24-.24h1.63a.23.23,0,0,1,.24.24V30a.23.23,0,0,1-.24.24Zm0,14.09a.23.23,0,0,1-.24-.24v-11a.23.23,0,0,1,.24-.24h1.54a.23.23,0,0,1,.24.24v11a.23.23,0,0,1-.24.24Z"/><path d="M164.38,48.64a.23.23,0,0,1-.25-.24V33.06a.23.23,0,0,1,.25-.24h1.53a.23.23,0,0,1,.24.24v1.08h0a3.51,3.51,0,0,1,3.27-1.58,3.81,3.81,0,0,1,4,2.76,9.53,9.53,0,0,1,.41,3.24,9.68,9.68,0,0,1-.41,3.27,3.81,3.81,0,0,1-4,2.76A3.52,3.52,0,0,1,166.17,43h0V48.4a.23.23,0,0,1-.24.24Zm7.1-7.68a8,8,0,0,0,.26-2.4,8.26,8.26,0,0,0-.26-2.4,2.71,2.71,0,0,0-5.06,0,7.25,7.25,0,0,0-.27,2.4,7.14,7.14,0,0,0,.27,2.4,2.7,2.7,0,0,0,5.06,0Z"/><path d="M175.29,41.47a9.1,9.1,0,0,1-.38-2.91,8.87,8.87,0,0,1,.36-2.9,4.83,4.83,0,0,1,9,0,9.62,9.62,0,0,1,.37,3.28.24.24,0,0,1-.27.25h-7.27c-.1,0-.15,0-.15.14a4.27,4.27,0,0,0,.2,1.39,2.83,2.83,0,0,0,2.9,2,3.74,3.74,0,0,0,3-1.27.25.25,0,0,1,.36,0l1,.89a.22.22,0,0,1,0,.34,5.59,5.59,0,0,1-4.49,2A4.45,4.45,0,0,1,175.29,41.47Zm7.16-3.89c.09,0,.14,0,.14-.15a4,4,0,0,0-.17-1.29,2.84,2.84,0,0,0-5.28,0,4,4,0,0,0-.17,1.29.13.13,0,0,0,.15.15Z"/><path d="M193.53,44.44c-2,0-2.8-1-2.8-3V28.24A.23.23,0,0,1,191,28h1.53a.23.23,0,0,1,.24.24V41.3c0,1,.36,1.27,1.15,1.27h.46a.23.23,0,0,1,.24.24V44.2a.23.23,0,0,1-.24.24Z"/><path d="M195.67,41.49a8.77,8.77,0,0,1-.38-2.93,8.65,8.65,0,0,1,.38-2.9,4.87,4.87,0,0,1,9.07,0,8.37,8.37,0,0,1,.39,2.9,8.48,8.48,0,0,1-.39,2.93,4.87,4.87,0,0,1-9.07,0Zm7.13-.58a7.56,7.56,0,0,0,.26-2.35,7.5,7.5,0,0,0-.26-2.33,2.77,2.77,0,0,0-5.19,0,7.5,7.5,0,0,0-.26,2.33,7.56,7.56,0,0,0,.26,2.35,2.77,2.77,0,0,0,5.19,0Z"/><path d="M206.13,42.86a.25.25,0,0,1,0-.34l1-1.05a.22.22,0,0,1,.33,0A5.63,5.63,0,0,0,211,42.79c1.68,0,2.52-.73,2.52-1.76s-.44-1.41-2.24-1.61l-1.22-.12c-2.26-.24-3.43-1.36-3.43-3.24,0-2.18,1.56-3.5,4.27-3.5A6.88,6.88,0,0,1,215,33.83a.24.24,0,0,1,0,.34l-.82,1a.23.23,0,0,1-.33,0,6.07,6.07,0,0,0-3.1-.94c-1.44,0-2.18.65-2.18,1.59s.55,1.39,2.25,1.56l1.2.12c2.33.21,3.46,1.39,3.46,3.24,0,2.25-1.63,3.77-4.63,3.77A7.19,7.19,0,0,1,206.13,42.86Z"/><path d="M221.81,48.64a.22.22,0,0,1-.24-.24V33.06a.23.23,0,0,1,.24-.24h1.53a.23.23,0,0,1,.24.24v1.08h0a3.48,3.48,0,0,1,3.26-1.58,3.81,3.81,0,0,1,4,2.76,9.53,9.53,0,0,1,.41,3.24,9.68,9.68,0,0,1-.41,3.27,3.81,3.81,0,0,1-4,2.76A3.49,3.49,0,0,1,223.61,43h0V48.4a.22.22,0,0,1-.24.24Zm7.1-7.68a8,8,0,0,0,.26-2.4,8.26,8.26,0,0,0-.26-2.4,2.71,2.71,0,0,0-5.06,0,7.25,7.25,0,0,0-.27,2.4,7.14,7.14,0,0,0,.27,2.4,2.7,2.7,0,0,0,5.06,0Z"/><path d="M233.28,44.32a.22.22,0,0,1-.24-.24v-11a.23.23,0,0,1,.24-.24h1.53a.23.23,0,0,1,.24.24v1.18h0a3.2,3.2,0,0,1,3-1.68,3.58,3.58,0,0,1,2.35.86c.12.12.14.22.05.34l-.89,1.18a.22.22,0,0,1-.34,0,3.28,3.28,0,0,0-1.77-.55c-1.76,0-2.48,1.37-2.48,3.36v6.29a.22.22,0,0,1-.24.24Z"/><path d="M240.69,41.49a8.77,8.77,0,0,1-.38-2.93,8.65,8.65,0,0,1,.38-2.9,4.87,4.87,0,0,1,9.08,0,8.65,8.65,0,0,1,.38,2.9,8.77,8.77,0,0,1-.38,2.93,4.87,4.87,0,0,1-9.08,0Zm7.13-.58a7.5,7.5,0,0,0,.27-2.35,7.45,7.45,0,0,0-.27-2.33,2.76,2.76,0,0,0-5.18,0,7.45,7.45,0,0,0-.27,2.33,7.5,7.5,0,0,0,.27,2.35,2.76,2.76,0,0,0,5.18,0Z"/><path d="M251.61,35.66a4.45,4.45,0,0,1,4.54-3.1,4.59,4.59,0,0,1,3.93,1.94c.08.12.08.22-.07.34L259,35.7a.22.22,0,0,1-.34,0,2.82,2.82,0,0,0-2.47-1.25,2.49,2.49,0,0,0-2.57,1.8,7.75,7.75,0,0,0-.26,2.33,7.81,7.81,0,0,0,.26,2.35,2.49,2.49,0,0,0,2.57,1.8,2.82,2.82,0,0,0,2.47-1.24.22.22,0,0,1,.34,0l1.05.87c.15.12.15.21.07.33a4.59,4.59,0,0,1-3.93,2,4.46,4.46,0,0,1-4.54-3.1,10.15,10.15,0,0,1-.36-2.93A10,10,0,0,1,251.61,35.66Z"/><path d="M261.24,41.47a9.05,9.05,0,0,1-.39-2.91,8.87,8.87,0,0,1,.36-2.9,4.84,4.84,0,0,1,9,0,10,10,0,0,1,.36,3.28.24.24,0,0,1-.27.25h-7.27c-.1,0-.14,0-.14.14a4.3,4.3,0,0,0,.19,1.39,2.83,2.83,0,0,0,2.9,2A3.74,3.74,0,0,0,269,41.44a.26.26,0,0,1,.37,0l1,.89a.22.22,0,0,1,0,.34,5.59,5.59,0,0,1-4.49,2A4.44,4.44,0,0,1,261.24,41.47Zm7.15-3.89c.1,0,.14,0,.14-.15a4,4,0,0,0-.16-1.29,2.84,2.84,0,0,0-5.29,0,4,4,0,0,0-.16,1.29c0,.1,0,.15.14.15Z"/><path d="M279.6,44.32a.22.22,0,0,1-.24-.24V43h0a3.49,3.49,0,0,1-3.26,1.61,3.8,3.8,0,0,1-4-2.76,9.68,9.68,0,0,1-.41-3.27,9.53,9.53,0,0,1,.41-3.24,3.8,3.8,0,0,1,4-2.76,3.48,3.48,0,0,1,3.26,1.58h0v-5.9a.23.23,0,0,1,.24-.24h1.53a.23.23,0,0,1,.24.24V44.08a.22.22,0,0,1-.24.24ZM279.09,41a7.14,7.14,0,0,0,.27-2.4,7.25,7.25,0,0,0-.27-2.4,2.71,2.71,0,0,0-5.06,0,8.21,8.21,0,0,0-.27,2.4A8,8,0,0,0,274,41a2.7,2.7,0,0,0,5.06,0Z"/><path d="M284.06,30.23a.23.23,0,0,1-.24-.24V28.24a.23.23,0,0,1,.24-.24h1.63a.23.23,0,0,1,.24.24V30a.22.22,0,0,1-.24.24Zm.05,14.09a.22.22,0,0,1-.24-.24v-11a.23.23,0,0,1,.24-.24h1.53a.23.23,0,0,1,.24.24v11a.22.22,0,0,1-.24.24Z"/><path d="M303.07,44.32a.23.23,0,0,1-.24-.24V37.36c0-1.85-.84-2.93-2.57-2.93a2.59,2.59,0,0,0-2.64,2.81v6.84a.23.23,0,0,1-.24.24h-1.54a.23.23,0,0,1-.24-.24V37.36c0-1.85-.84-2.93-2.56-2.93a2.58,2.58,0,0,0-2.64,2.81v6.84a.23.23,0,0,1-.24.24h-1.54a.23.23,0,0,1-.24-.24v-11a.23.23,0,0,1,.24-.24h1.54a.23.23,0,0,1,.24.24v1.06h0a4.07,4.07,0,0,1,6.58.24h0a4.29,4.29,0,0,1,3.72-1.8c2.67,0,4.11,1.7,4.11,4.32v7.2a.23.23,0,0,1-.24.24Z"/><path d="M307.41,30.23a.23.23,0,0,1-.24-.24V28.24a.23.23,0,0,1,.24-.24H309a.23.23,0,0,1,.24.24V30a.22.22,0,0,1-.24.24Zm0,14.09a.23.23,0,0,1-.24-.24v-11a.23.23,0,0,1,.24-.24H309a.23.23,0,0,1,.24.24v11a.23.23,0,0,1-.24.24Z"/><path d="M311.42,41.47a9.1,9.1,0,0,1-.38-2.91,8.87,8.87,0,0,1,.36-2.9,4.83,4.83,0,0,1,9,0,10,10,0,0,1,.36,3.28.24.24,0,0,1-.26.25h-7.28a.12.12,0,0,0-.14.14,4.3,4.3,0,0,0,.19,1.39,2.84,2.84,0,0,0,2.91,2,3.77,3.77,0,0,0,2.95-1.27.25.25,0,0,1,.36,0l1,.89a.22.22,0,0,1,0,.34,5.62,5.62,0,0,1-4.49,2A4.45,4.45,0,0,1,311.42,41.47Zm7.15-3.89a.13.13,0,0,0,.15-.15,4,4,0,0,0-.17-1.29,2.84,2.84,0,0,0-5.28,0,4,4,0,0,0-.17,1.29c0,.1,0,.15.14.15Z"/><path d="M330,44.32a.23.23,0,0,1-.24-.24V37.36c0-1.85-.84-2.93-2.56-2.93a2.58,2.58,0,0,0-2.64,2.81v6.84a.23.23,0,0,1-.24.24h-1.54a.22.22,0,0,1-.24-.24v-11a.23.23,0,0,1,.24-.24h1.54a.23.23,0,0,1,.24.24v1.06h0a3.63,3.63,0,0,1,3.22-1.56c2.49,0,4,1.7,4,4.32v7.2a.23.23,0,0,1-.24.24Z"/><path d="M337.53,44.44c-2.23,0-3.1-1-3.1-3.26V34.6c0-.1,0-.14-.14-.14h-1a.23.23,0,0,1-.24-.24V33.06a.23.23,0,0,1,.24-.24h1c.1,0,.14,0,.14-.14V29.44a.23.23,0,0,1,.24-.24h1.54a.23.23,0,0,1,.24.24v3.24a.12.12,0,0,0,.14.14h1.83a.23.23,0,0,1,.24.24v1.16a.23.23,0,0,1-.24.24h-1.83a.12.12,0,0,0-.14.14v6.5c0,1.16.43,1.47,1.47,1.47h.5a.23.23,0,0,1,.24.24V44.2a.23.23,0,0,1-.24.24Z"/><path d="M340,41.49a8.48,8.48,0,0,1-.39-2.93,8.37,8.37,0,0,1,.39-2.9,4.87,4.87,0,0,1,9.07,0,8.65,8.65,0,0,1,.38,2.9,8.77,8.77,0,0,1-.38,2.93,4.87,4.87,0,0,1-9.07,0Zm7.13-.58a7.56,7.56,0,0,0,.26-2.35,7.5,7.5,0,0,0-.26-2.33,2.77,2.77,0,0,0-5.19,0,7.5,7.5,0,0,0-.26,2.33,7.56,7.56,0,0,0,.26,2.35,2.77,2.77,0,0,0,5.19,0Z"/><path d="M350.49,42.86a.23.23,0,0,1,0-.34l1-1.05a.23.23,0,0,1,.34,0,5.6,5.6,0,0,0,3.55,1.32c1.68,0,2.52-.73,2.52-1.76s-.43-1.41-2.23-1.61l-1.22-.12c-2.26-.24-3.44-1.36-3.44-3.24,0-2.18,1.56-3.5,4.28-3.5a6.88,6.88,0,0,1,4.08,1.27.24.24,0,0,1,0,.34l-.82,1a.24.24,0,0,1-.34,0,6,6,0,0,0-3.09-.94c-1.44,0-2.19.65-2.19,1.59s.55,1.39,2.26,1.56l1.2.12c2.33.21,3.46,1.39,3.46,3.24,0,2.25-1.64,3.77-4.64,3.77A7.18,7.18,0,0,1,350.49,42.86Z"/><path d="M366,48.64a.22.22,0,0,1-.24-.24V47a.23.23,0,0,1,.24-.24h.43c.94,0,1.44-.41,1.94-1.73l.39-1-4.23-10.93c0-.14,0-.24.2-.24h1.68a.28.28,0,0,1,.28.24l3,8.31h.05l2.9-8.31a.29.29,0,0,1,.29-.24h1.63c.14,0,.24.1.19.24l-4.53,12.15c-1,2.71-1.9,3.43-3.63,3.43Z"/><path d="M.24,72.32A.23.23,0,0,1,0,72.08v-11a.23.23,0,0,1,.24-.24H1.78a.23.23,0,0,1,.24.24v1.18H2a3.2,3.2,0,0,1,3.05-1.68,3.56,3.56,0,0,1,2.35.86c.12.12.14.22,0,.34L6.6,62.94a.22.22,0,0,1-.34,0,3.25,3.25,0,0,0-1.77-.55C2.74,62.43,2,63.8,2,65.79v6.29a.23.23,0,0,1-.24.24Z"/><path d="M7.66,69.47a9.05,9.05,0,0,1-.39-2.91,8.87,8.87,0,0,1,.36-2.9,4.44,4.44,0,0,1,4.51-3.1,4.46,4.46,0,0,1,4.52,3.1A10,10,0,0,1,17,66.94a.24.24,0,0,1-.27.25H9.48c-.1,0-.14,0-.14.14a4.3,4.3,0,0,0,.19,1.39,2.83,2.83,0,0,0,2.9,2,3.74,3.74,0,0,0,3-1.27.26.26,0,0,1,.37,0l1,.89a.22.22,0,0,1,0,.34,5.59,5.59,0,0,1-4.49,2A4.44,4.44,0,0,1,7.66,69.47Zm7.15-3.89c.1,0,.14,0,.14-.15a4,4,0,0,0-.16-1.29,2.6,2.6,0,0,0-2.65-1.8,2.6,2.6,0,0,0-2.64,1.8,4,4,0,0,0-.16,1.29c0,.1,0,.15.14.15Z"/><path d="M25.78,72.32a.22.22,0,0,1-.24-.24v-1h0a3.74,3.74,0,0,1-3.41,1.52c-2.18,0-3.86-1.13-3.86-3.46s1.68-3.55,4.49-3.55h2.61a.13.13,0,0,0,.15-.15v-.84c0-1.58-.62-2.25-2.76-2.25a4.5,4.5,0,0,0-2.79.81c-.12.1-.26.1-.33,0L19,62a.24.24,0,0,1,.05-.33,6.38,6.38,0,0,1,3.91-1.13c3.27,0,4.51,1.08,4.51,3.91v7.61a.22.22,0,0,1-.24.24Zm-.29-3.72V67.33c0-.1,0-.14-.15-.14H23c-2,0-2.86.57-2.86,1.87s.87,1.8,2.4,1.8C24.38,70.86,25.49,70,25.49,68.6Z"/><path d="M32.59,72.44c-2,0-2.8-1-2.8-3V56.24A.22.22,0,0,1,30,56h1.54a.23.23,0,0,1,.24.24V69.3c0,1,.36,1.27,1.15,1.27h.46a.23.23,0,0,1,.24.24V72.2a.23.23,0,0,1-.24.24Z"/><path d="M35.23,58.23A.23.23,0,0,1,35,58V56.24a.23.23,0,0,1,.24-.24h1.64a.22.22,0,0,1,.23.24V58a.22.22,0,0,1-.23.24Zm.05,14.09a.23.23,0,0,1-.24-.24v-11a.23.23,0,0,1,.24-.24h1.54a.23.23,0,0,1,.24.24v11a.23.23,0,0,1-.24.24Z"/><path d="M39.22,63.66a4.43,4.43,0,0,1,4.53-3.1,4.62,4.62,0,0,1,3.94,1.94.23.23,0,0,1-.07.34l-1.06.86a.22.22,0,0,1-.34,0,2.82,2.82,0,0,0-2.47-1.25,2.5,2.5,0,0,0-2.57,1.8,10.66,10.66,0,0,0,0,4.68,2.5,2.5,0,0,0,2.57,1.8,2.82,2.82,0,0,0,2.47-1.24.22.22,0,0,1,.34,0l1.06.87c.14.12.14.21.07.33a4.62,4.62,0,0,1-3.94,2,4.44,4.44,0,0,1-4.53-3.1,9.81,9.81,0,0,1-.36-2.93A9.69,9.69,0,0,1,39.22,63.66Z"/><path d="M48.84,69.47a9.1,9.1,0,0,1-.38-2.91,8.87,8.87,0,0,1,.36-2.9,4.42,4.42,0,0,1,4.51-3.1,4.45,4.45,0,0,1,4.51,3.1,10,10,0,0,1,.36,3.28.24.24,0,0,1-.26.25H50.66a.12.12,0,0,0-.14.14,4.3,4.3,0,0,0,.19,1.39,2.84,2.84,0,0,0,2.91,2,3.77,3.77,0,0,0,3-1.27.25.25,0,0,1,.36,0l1,.89a.22.22,0,0,1,0,.34,5.62,5.62,0,0,1-4.49,2A4.45,4.45,0,0,1,48.84,69.47ZM56,65.58a.13.13,0,0,0,.15-.15A4,4,0,0,0,56,64.14a2.84,2.84,0,0,0-5.28,0,4,4,0,0,0-.17,1.29c0,.1,0,.15.14.15Z"/><path d="M67.08,72.44c-2,0-2.81-1-2.81-3V56.24a.23.23,0,0,1,.24-.24h1.54a.23.23,0,0,1,.24.24V69.3c0,1,.36,1.27,1.15,1.27h.46a.23.23,0,0,1,.24.24V72.2a.23.23,0,0,1-.24.24Z"/><path d="M76.49,72.32a.22.22,0,0,1-.24-.24v-1h0a3.74,3.74,0,0,1-3.4,1.52c-2.19,0-3.87-1.13-3.87-3.46s1.68-3.55,4.49-3.55h2.62c.09,0,.14,0,.14-.15v-.84c0-1.58-.62-2.25-2.76-2.25a4.44,4.44,0,0,0-2.78.81c-.12.1-.27.1-.34,0L69.67,62a.24.24,0,0,1,0-.33,6.38,6.38,0,0,1,3.91-1.13c3.27,0,4.51,1.08,4.51,3.91v7.61a.22.22,0,0,1-.24.24ZM76.2,68.6V67.33a.12.12,0,0,0-.14-.14H73.75c-2,0-2.85.57-2.85,1.87s.86,1.8,2.39,1.8C75.1,70.86,76.2,70,76.2,68.6Z"/><path d="M84.55,69.49a8.77,8.77,0,0,1-.38-2.93,8.65,8.65,0,0,1,.38-2.9,4.87,4.87,0,0,1,9.07,0,8.37,8.37,0,0,1,.39,2.9,8.48,8.48,0,0,1-.39,2.93,4.87,4.87,0,0,1-9.07,0Zm7.13-.58a7.6,7.6,0,0,0,.26-2.35,7.5,7.5,0,0,0-.26-2.33,2.76,2.76,0,0,0-5.18,0,7.16,7.16,0,0,0-.27,2.33,7.26,7.26,0,0,0,.27,2.35,2.76,2.76,0,0,0,5.18,0Z"/><path d="M96.05,76.64a.22.22,0,0,1-.24-.24V61.06a.23.23,0,0,1,.24-.24h1.53a.23.23,0,0,1,.24.24v1.08h0a3.48,3.48,0,0,1,3.26-1.58,3.8,3.8,0,0,1,4,2.76,9.57,9.57,0,0,1,.41,3.24,9.68,9.68,0,0,1-.41,3.27,3.8,3.8,0,0,1-4,2.76A3.49,3.49,0,0,1,97.85,71h0V76.4a.22.22,0,0,1-.24.24Zm7.1-7.68a8,8,0,0,0,.27-2.4,8.21,8.21,0,0,0-.27-2.4,2.71,2.71,0,0,0-5.06,0,7.25,7.25,0,0,0-.27,2.4,7.14,7.14,0,0,0,.27,2.4,2.7,2.7,0,0,0,5.06,0Z"/><path d="M107,69.47a9.05,9.05,0,0,1-.39-2.91,8.87,8.87,0,0,1,.36-2.9,4.84,4.84,0,0,1,9,0,10,10,0,0,1,.36,3.28.24.24,0,0,1-.27.25h-7.27c-.1,0-.14,0-.14.14a4.3,4.3,0,0,0,.19,1.39,2.83,2.83,0,0,0,2.9,2,3.74,3.74,0,0,0,3-1.27.25.25,0,0,1,.36,0l1,.89a.22.22,0,0,1,0,.34,5.59,5.59,0,0,1-4.49,2A4.44,4.44,0,0,1,107,69.47Zm7.15-3.89c.09,0,.14,0,.14-.15a4,4,0,0,0-.17-1.29,2.84,2.84,0,0,0-5.28,0,4,4,0,0,0-.16,1.29c0,.1,0,.15.14.15Z"/><path d="M118.37,72.32a.22.22,0,0,1-.24-.24v-11a.23.23,0,0,1,.24-.24h1.53a.23.23,0,0,1,.24.24v1.18h0a3.2,3.2,0,0,1,3-1.68,3.58,3.58,0,0,1,2.36.86c.12.12.14.22.05.34l-.89,1.18a.22.22,0,0,1-.34,0,3.28,3.28,0,0,0-1.78-.55c-1.75,0-2.47,1.37-2.47,3.36v6.29a.22.22,0,0,1-.24.24Z"/><path d="M132.91,72.32a.23.23,0,0,1-.24-.24v-1h0a3.77,3.77,0,0,1-3.41,1.52c-2.19,0-3.87-1.13-3.87-3.46s1.68-3.55,4.49-3.55h2.62c.1,0,.14,0,.14-.15v-.84c0-1.58-.62-2.25-2.76-2.25a4.47,4.47,0,0,0-2.78.81c-.12.1-.27.1-.34,0L126.09,62a.25.25,0,0,1,0-.33,6.4,6.4,0,0,1,3.91-1.13c3.27,0,4.52,1.08,4.52,3.91v7.61a.23.23,0,0,1-.24.24Zm-.29-3.72V67.33c0-.1,0-.14-.14-.14h-2.31c-2,0-2.85.57-2.85,1.87s.86,1.8,2.4,1.8C131.52,70.86,132.62,70,132.62,68.6Z"/><path d="M136.63,63.66a4.45,4.45,0,0,1,4.54-3.1,4.6,4.6,0,0,1,3.93,1.94.23.23,0,0,1-.07.34L144,63.7a.21.21,0,0,1-.33,0,2.82,2.82,0,0,0-2.47-1.25,2.49,2.49,0,0,0-2.57,1.8,10.27,10.27,0,0,0,0,4.68,2.49,2.49,0,0,0,2.57,1.8,2.82,2.82,0,0,0,2.47-1.24.21.21,0,0,1,.33,0l1.06.87c.14.12.14.21.07.33a4.61,4.61,0,0,1-3.93,2,4.46,4.46,0,0,1-4.54-3.1,9.81,9.81,0,0,1-.36-2.93A9.69,9.69,0,0,1,136.63,63.66Z"/><path d="M147.05,58.23a.22.22,0,0,1-.24-.24V56.24a.23.23,0,0,1,.24-.24h1.63a.23.23,0,0,1,.24.24V58a.23.23,0,0,1-.24.24Zm0,14.09a.23.23,0,0,1-.24-.24v-11a.23.23,0,0,1,.24-.24h1.54a.23.23,0,0,1,.24.24v11a.23.23,0,0,1-.24.24Z"/><path d="M151.05,69.49a8.77,8.77,0,0,1-.38-2.93,8.65,8.65,0,0,1,.38-2.9,4.87,4.87,0,0,1,9.08,0,8.65,8.65,0,0,1,.38,2.9,8.77,8.77,0,0,1-.38,2.93,4.87,4.87,0,0,1-9.08,0Zm7.13-.58a7.55,7.55,0,0,0,.27-2.35,7.45,7.45,0,0,0-.27-2.33,2.76,2.76,0,0,0-5.18,0,7.45,7.45,0,0,0-.27,2.33,7.55,7.55,0,0,0,.27,2.35,2.76,2.76,0,0,0,5.18,0Zm-3.45-10c-.15,0-.22-.09-.15-.24l1.83-3a.4.4,0,0,1,.4-.24h1.59a.14.14,0,0,1,.12.24l-2.21,3a.48.48,0,0,1-.46.24Z"/><path d="M169.77,72.32a.23.23,0,0,1-.24-.24V65.36c0-1.85-.84-2.93-2.56-2.93a2.58,2.58,0,0,0-2.64,2.81v6.84a.23.23,0,0,1-.24.24h-1.54a.23.23,0,0,1-.24-.24v-11a.23.23,0,0,1,.24-.24h1.54a.23.23,0,0,1,.24.24v1.06h0a3.63,3.63,0,0,1,3.22-1.56c2.49,0,4,1.7,4,4.32v7.2a.23.23,0,0,1-.24.24Z"/><path d="M177.91,63.66a4.45,4.45,0,0,1,4.54-3.1,4.6,4.6,0,0,1,3.93,1.94.23.23,0,0,1-.07.34l-1.06.86a.21.21,0,0,1-.33,0,2.82,2.82,0,0,0-2.47-1.25,2.49,2.49,0,0,0-2.57,1.8,10.27,10.27,0,0,0,0,4.68,2.49,2.49,0,0,0,2.57,1.8,2.82,2.82,0,0,0,2.47-1.24.21.21,0,0,1,.33,0l1.06.87c.14.12.14.21.07.33a4.61,4.61,0,0,1-3.93,2,4.46,4.46,0,0,1-4.54-3.1,9.81,9.81,0,0,1-.36-2.93A9.69,9.69,0,0,1,177.91,63.66Z"/><path d="M187.53,69.49a8.77,8.77,0,0,1-.38-2.93,8.65,8.65,0,0,1,.38-2.9,4.87,4.87,0,0,1,9.08,0,8.65,8.65,0,0,1,.38,2.9,8.77,8.77,0,0,1-.38,2.93,4.87,4.87,0,0,1-9.08,0Zm7.13-.58a7.55,7.55,0,0,0,.27-2.35,7.45,7.45,0,0,0-.27-2.33,2.76,2.76,0,0,0-5.18,0,7.45,7.45,0,0,0-.27,2.33,7.55,7.55,0,0,0,.27,2.35,2.76,2.76,0,0,0,5.18,0Z"/><path d="M206.25,72.32a.23.23,0,0,1-.24-.24V65.36c0-1.85-.84-2.93-2.56-2.93a2.59,2.59,0,0,0-2.65,2.81v6.84a.22.22,0,0,1-.24.24H199a.22.22,0,0,1-.24-.24v-11a.23.23,0,0,1,.24-.24h1.53a.23.23,0,0,1,.24.24v1.06h0A3.63,3.63,0,0,1,204,60.56c2.5,0,4,1.7,4,4.32v7.2a.23.23,0,0,1-.24.24Z"/><path d="M215,76.64a.23.23,0,0,1-.24-.24V61.06a.23.23,0,0,1,.24-.24h1.54a.23.23,0,0,1,.24.24v1.08h0A3.51,3.51,0,0,1,220,60.56a3.81,3.81,0,0,1,4,2.76,9.57,9.57,0,0,1,.41,3.24,9.68,9.68,0,0,1-.41,3.27,3.81,3.81,0,0,1-4,2.76A3.52,3.52,0,0,1,216.76,71h0V76.4a.23.23,0,0,1-.24.24ZM222.07,69a8,8,0,0,0,.26-2.4,8.26,8.26,0,0,0-.26-2.4,2.72,2.72,0,0,0-5.07,0,7.59,7.59,0,0,0-.26,2.4A7.47,7.47,0,0,0,217,69a2.71,2.71,0,0,0,5.07,0Z"/><path d="M226.44,72.32a.22.22,0,0,1-.24-.24v-11a.23.23,0,0,1,.24-.24H228a.23.23,0,0,1,.24.24v1.18h0a3.2,3.2,0,0,1,3-1.68,3.58,3.58,0,0,1,2.36.86c.12.12.14.22,0,.34l-.88,1.18a.22.22,0,0,1-.34,0,3.28,3.28,0,0,0-1.78-.55c-1.75,0-2.47,1.37-2.47,3.36v6.29a.22.22,0,0,1-.24.24Z"/><path d="M233.85,69.47a9.1,9.1,0,0,1-.38-2.91,8.87,8.87,0,0,1,.36-2.9,4.83,4.83,0,0,1,9,0,10,10,0,0,1,.36,3.28.23.23,0,0,1-.26.25h-7.27c-.1,0-.15,0-.15.14a4.3,4.3,0,0,0,.19,1.39,2.84,2.84,0,0,0,2.91,2,3.74,3.74,0,0,0,3-1.27.25.25,0,0,1,.36,0l1,.89a.22.22,0,0,1,0,.34,5.59,5.59,0,0,1-4.49,2A4.45,4.45,0,0,1,233.85,69.47ZM241,65.58a.13.13,0,0,0,.15-.15,4,4,0,0,0-.17-1.29,2.84,2.84,0,0,0-5.28,0,4,4,0,0,0-.17,1.29.13.13,0,0,0,.15.15Z"/><path d="M244.68,63.66a4.43,4.43,0,0,1,4.53-3.1,4.62,4.62,0,0,1,3.94,1.94.23.23,0,0,1-.07.34L252,63.7a.22.22,0,0,1-.34,0,2.81,2.81,0,0,0-2.47-1.25,2.5,2.5,0,0,0-2.57,1.8,10.66,10.66,0,0,0,0,4.68,2.5,2.5,0,0,0,2.57,1.8,2.8,2.8,0,0,0,2.47-1.24.22.22,0,0,1,.34,0l1.06.87c.14.12.14.21.07.33a4.62,4.62,0,0,1-3.94,2,4.44,4.44,0,0,1-4.53-3.1,9.81,9.81,0,0,1-.36-2.93A9.69,9.69,0,0,1,244.68,63.66Z"/><path d="M261.57,72.32a.23.23,0,0,1-.24-.24v-1h0a3.77,3.77,0,0,1-3.41,1.52c-2.18,0-3.86-1.13-3.86-3.46s1.68-3.55,4.48-3.55h2.62c.1,0,.14,0,.14-.15v-.84c0-1.58-.62-2.25-2.76-2.25a4.47,4.47,0,0,0-2.78.81.22.22,0,0,1-.34,0L254.76,62a.24.24,0,0,1,0-.33,6.42,6.42,0,0,1,3.92-1.13c3.26,0,4.51,1.08,4.51,3.91v7.61a.23.23,0,0,1-.24.24Zm-.29-3.72V67.33c0-.1,0-.14-.14-.14h-2.3c-2,0-2.86.57-2.86,1.87s.86,1.8,2.4,1.8C260.18,70.86,261.28,70,261.28,68.6Z"/><path d="M272.85,72.32a.23.23,0,0,1-.24-.24V71h0a3.52,3.52,0,0,1-3.15,1.59c-2.52,0-4-1.73-4-4.35V61.06a.23.23,0,0,1,.24-.24h1.54a.23.23,0,0,1,.24.24v6.7c0,1.87.84,2.95,2.54,2.95a2.55,2.55,0,0,0,2.59-2.83V61.06a.23.23,0,0,1,.24-.24h1.54a.23.23,0,0,1,.24.24v11a.23.23,0,0,1-.24.24Z"/><path d="M276.79,63.66a4.45,4.45,0,0,1,4.53-3.1,4.6,4.6,0,0,1,3.94,1.94.23.23,0,0,1-.07.34l-1.06.86a.21.21,0,0,1-.33,0,2.84,2.84,0,0,0-2.48-1.25,2.51,2.51,0,0,0-2.57,1.8,10.66,10.66,0,0,0,0,4.68,2.51,2.51,0,0,0,2.57,1.8,2.83,2.83,0,0,0,2.48-1.24.21.21,0,0,1,.33,0l1.06.87c.14.12.14.21.07.33a4.61,4.61,0,0,1-3.94,2,4.46,4.46,0,0,1-4.53-3.1,9.81,9.81,0,0,1-.36-2.93A9.69,9.69,0,0,1,276.79,63.66Z"/><path d="M287.2,58.23A.23.23,0,0,1,287,58V56.24a.23.23,0,0,1,.24-.24h1.63a.23.23,0,0,1,.25.24V58a.23.23,0,0,1-.25.24Zm.05,14.09a.23.23,0,0,1-.24-.24v-11a.23.23,0,0,1,.24-.24h1.54a.23.23,0,0,1,.24.24v11a.23.23,0,0,1-.24.24Z"/><path d="M291.21,69.49a8.77,8.77,0,0,1-.38-2.93,8.65,8.65,0,0,1,.38-2.9,4.87,4.87,0,0,1,9.07,0,8.37,8.37,0,0,1,.39,2.9,8.48,8.48,0,0,1-.39,2.93,4.87,4.87,0,0,1-9.07,0Zm7.13-.58a7.6,7.6,0,0,0,.26-2.35,7.5,7.5,0,0,0-.26-2.33,2.77,2.77,0,0,0-5.19,0,7.5,7.5,0,0,0-.26,2.33,7.6,7.6,0,0,0,.26,2.35,2.77,2.77,0,0,0,5.19,0Zm-3.46-10c-.14,0-.21-.09-.14-.24l1.82-3a.43.43,0,0,1,.41-.24h1.59a.14.14,0,0,1,.11.24l-2.2,3A.48.48,0,0,1,296,59Z"/><path d="M309.93,72.32a.23.23,0,0,1-.24-.24V65.36c0-1.85-.84-2.93-2.57-2.93a2.58,2.58,0,0,0-2.64,2.81v6.84a.22.22,0,0,1-.24.24h-1.53a.22.22,0,0,1-.24-.24v-11a.23.23,0,0,1,.24-.24h1.53a.23.23,0,0,1,.24.24v1.06h0a3.62,3.62,0,0,1,3.21-1.56c2.5,0,4,1.7,4,4.32v7.2a.23.23,0,0,1-.24.24Z"/><path d="M313.79,70a.23.23,0,0,1,.24-.24h1.83a.23.23,0,0,1,.24.24v2.06a.23.23,0,0,1-.24.24H314a.23.23,0,0,1-.24-.24Z"/></g></g></svg>