<svg xmlns="http://www.w3.org/2000/svg" viewBox="0 0 397.67 77.12"><title>3b</title><g id="Capa_2" data-name="Capa 2"><g id="answer_copia" data-name="answer copia"><path d="M.74.72A.23.23,0,0,1,1,.48H2.52a.4.4,0,0,1,.41.24L10.32,13h.1V.72a.23.23,0,0,1,.24-.24h1.51a.23.23,0,0,1,.24.24V16.56a.23.23,0,0,1-.24.24H10.63a.39.39,0,0,1-.4-.24L2.81,4.37H2.74V16.56a.23.23,0,0,1-.24.24H1a.23.23,0,0,1-.24-.24Z"/><path d="M14.64,14A8.77,8.77,0,0,1,14.26,11a8.65,8.65,0,0,1,.38-2.9A4.44,4.44,0,0,1,19.18,5a4.43,4.43,0,0,1,4.53,3.1A8.37,8.37,0,0,1,24.1,11,8.48,8.48,0,0,1,23.71,14a4.47,4.47,0,0,1-4.53,3.1A4.47,4.47,0,0,1,14.64,14Zm7.13-.58A7.56,7.56,0,0,0,22,11a7.5,7.5,0,0,0-.26-2.33,2.56,2.56,0,0,0-2.59-1.8,2.57,2.57,0,0,0-2.6,1.8A7.5,7.5,0,0,0,16.32,11a7.56,7.56,0,0,0,.26,2.35,2.57,2.57,0,0,0,2.6,1.8A2.56,2.56,0,0,0,21.77,13.39Z"/><path d="M29.9,14A9.1,9.1,0,0,1,29.52,11a8.87,8.87,0,0,1,.36-2.9A4.44,4.44,0,0,1,34.39,5a4.44,4.44,0,0,1,4.51,3.1,10,10,0,0,1,.36,3.28.23.23,0,0,1-.26.25H31.73c-.1,0-.15,0-.15.14a4.27,4.27,0,0,0,.2,1.39,2.83,2.83,0,0,0,2.9,2,3.74,3.74,0,0,0,3-1.27.25.25,0,0,1,.36-.05l1,.89a.22.22,0,0,1,0,.34,5.59,5.59,0,0,1-4.49,2A4.45,4.45,0,0,1,29.9,14Zm7.16-3.89c.09,0,.14-.05.14-.15A4,4,0,0,0,37,8.62a2.58,2.58,0,0,0-2.64-1.8,2.6,2.6,0,0,0-2.64,1.8,4,4,0,0,0-.17,1.29.13.13,0,0,0,.15.15Z"/><path d="M48.53,16.8a.22.22,0,0,1-.24-.24V9.84c0-1.85-.84-2.93-2.57-2.93a2.58,2.58,0,0,0-2.64,2.81v6.84a.23.23,0,0,1-.24.24H41.3a.23.23,0,0,1-.24-.24v-11a.23.23,0,0,1,.24-.24h1.54a.23.23,0,0,1,.24.24V6.6h0A3.65,3.65,0,0,1,46.32,5c2.5,0,4,1.7,4,4.32v7.2a.22.22,0,0,1-.24.24Z"/><path d="M53.3,16.8a.23.23,0,0,1-.24-.24V7.08a.12.12,0,0,0-.14-.14h-1a.23.23,0,0,1-.24-.24V5.54a.23.23,0,0,1,.24-.24h1a.12.12,0,0,0,.14-.14v-1c0-2.72,1.11-3.7,3.51-3.7h.89a.23.23,0,0,1,.24.24V2.11a.23.23,0,0,1-.24.24h-.63c-1.46,0-1.75.31-1.75,1.73V5.16a.12.12,0,0,0,.14.14h2.24a.23.23,0,0,1,.24.24V6.7a.23.23,0,0,1-.24.24H55.22a.12.12,0,0,0-.14.14v9.48a.23.23,0,0,1-.24.24Z"/><path d="M58.51,14A8.77,8.77,0,0,1,58.13,11a8.65,8.65,0,0,1,.38-2.9,4.87,4.87,0,0,1,9.07,0A8.37,8.37,0,0,1,68,11,8.48,8.48,0,0,1,67.58,14a4.87,4.87,0,0,1-9.07,0Zm7.13-.58A7.56,7.56,0,0,0,65.9,11a7.5,7.5,0,0,0-.26-2.33,2.76,2.76,0,0,0-5.18,0A7.16,7.16,0,0,0,60.19,11a7.22,7.22,0,0,0,.27,2.35,2.76,2.76,0,0,0,5.18,0Z"/><path d="M77,21.12a.22.22,0,0,1-.24-.24V15.46h0a3.49,3.49,0,0,1-3.26,1.61,3.8,3.8,0,0,1-4-2.76A9.68,9.68,0,0,1,69.07,11a9.53,9.53,0,0,1,.41-3.24,3.8,3.8,0,0,1,4-2.76A3.48,3.48,0,0,1,76.7,6.62h0V5.54A.23.23,0,0,1,77,5.3H78.5a.23.23,0,0,1,.24.24V20.88a.22.22,0,0,1-.24.24Zm-.51-7.68a7.14,7.14,0,0,0,.27-2.4,7.25,7.25,0,0,0-.27-2.4,2.71,2.71,0,0,0-5.06,0,8.21,8.21,0,0,0-.27,2.4,8,8,0,0,0,.27,2.4,2.7,2.7,0,0,0,5.06,0Z"/><path d="M88.46,16.8a.23.23,0,0,1-.24-.24V15.48h0a3.51,3.51,0,0,1-3.14,1.59c-2.52,0-4-1.73-4-4.35V5.54a.23.23,0,0,1,.24-.24h1.54a.23.23,0,0,1,.24.24v6.7c0,1.87.84,2.95,2.54,2.95a2.55,2.55,0,0,0,2.59-2.83V5.54a.23.23,0,0,1,.24-.24H90a.23.23,0,0,1,.24.24v11a.23.23,0,0,1-.24.24Z"/><path d="M92.42,14A9.1,9.1,0,0,1,92,11a8.87,8.87,0,0,1,.36-2.9,4.83,4.83,0,0,1,9,0,10,10,0,0,1,.36,3.28.23.23,0,0,1-.26.25H94.25c-.1,0-.15,0-.15.14a4.3,4.3,0,0,0,.19,1.39,2.84,2.84,0,0,0,2.91,2,3.74,3.74,0,0,0,3-1.27.25.25,0,0,1,.36-.05l1,.89a.22.22,0,0,1,0,.34,5.59,5.59,0,0,1-4.49,2A4.45,4.45,0,0,1,92.42,14Zm7.16-3.89c.09,0,.14-.05.14-.15a4,4,0,0,0-.17-1.29,2.84,2.84,0,0,0-5.28,0,4,4,0,0,0-.17,1.29.13.13,0,0,0,.15.15Z"/><path d="M107.11,15.34a.23.23,0,0,1,0-.34l1-1.05a.23.23,0,0,1,.34,0A5.6,5.6,0,0,0,112,15.27c1.68,0,2.52-.73,2.52-1.76s-.43-1.41-2.23-1.61l-1.22-.12c-2.26-.24-3.44-1.36-3.44-3.24,0-2.18,1.56-3.5,4.28-3.5A6.88,6.88,0,0,1,116,6.31a.24.24,0,0,1,0,.34l-.82,1a.24.24,0,0,1-.34.05,6,6,0,0,0-3.09-.94c-1.44,0-2.19.65-2.19,1.59s.55,1.39,2.26,1.56l1.2.12c2.33.21,3.46,1.39,3.46,3.24,0,2.25-1.64,3.77-4.64,3.77A7.18,7.18,0,0,1,107.11,15.34Z"/><path d="M125.45,16.8a.22.22,0,0,1-.24-.24V15.48h0A3.5,3.5,0,0,1,122,17.07c-2.52,0-4-1.73-4-4.35V5.54a.23.23,0,0,1,.24-.24h1.54a.23.23,0,0,1,.24.24v6.7c0,1.87.84,2.95,2.54,2.95a2.55,2.55,0,0,0,2.6-2.83V5.54a.23.23,0,0,1,.24-.24H127a.23.23,0,0,1,.24.24v11a.22.22,0,0,1-.24.24Z"/><path d="M141,16.8a.22.22,0,0,1-.24-.24v-1h0a3.74,3.74,0,0,1-3.4,1.52c-2.19,0-3.87-1.13-3.87-3.46s1.68-3.55,4.49-3.55h2.62c.09,0,.14-.05.14-.15V9.07c0-1.58-.62-2.25-2.76-2.25a4.44,4.44,0,0,0-2.78.81c-.13.1-.27.1-.34,0l-.65-1.11a.24.24,0,0,1,0-.33A6.38,6.38,0,0,1,138.14,5c3.27,0,4.51,1.08,4.51,3.91v7.61a.22.22,0,0,1-.24.24Zm-.29-3.72V11.81a.12.12,0,0,0-.14-.14h-2.31c-2,0-2.85.57-2.85,1.87s.86,1.8,2.4,1.8C139.61,15.34,140.71,14.5,140.71,13.08Z"/><path d="M148.39,16.92c-2.23,0-3.1-1-3.1-3.26V7.08c0-.1,0-.14-.14-.14h-1A.23.23,0,0,1,144,6.7V5.54a.23.23,0,0,1,.24-.24h1c.1,0,.14,0,.14-.14V1.92a.23.23,0,0,1,.24-.24h1.54a.23.23,0,0,1,.24.24V5.16a.12.12,0,0,0,.14.14h1.83a.23.23,0,0,1,.24.24V6.7a.23.23,0,0,1-.24.24h-1.83a.12.12,0,0,0-.14.14v6.5c0,1.16.43,1.47,1.46,1.47h.51a.23.23,0,0,1,.24.24v1.39a.23.23,0,0,1-.24.24Z"/><path d="M150.89,14A9.05,9.05,0,0,1,150.5,11a8.87,8.87,0,0,1,.36-2.9,4.84,4.84,0,0,1,9,0,10,10,0,0,1,.36,3.28.24.24,0,0,1-.27.25h-7.27c-.1,0-.14,0-.14.14a4.3,4.3,0,0,0,.19,1.39,2.83,2.83,0,0,0,2.9,2,3.74,3.74,0,0,0,3-1.27.25.25,0,0,1,.36-.05l1,.89a.22.22,0,0,1,0,.34,5.59,5.59,0,0,1-4.49,2A4.44,4.44,0,0,1,150.89,14ZM158,10.06c.09,0,.14-.05.14-.15A4,4,0,0,0,158,8.62a2.84,2.84,0,0,0-5.28,0,4,4,0,0,0-.16,1.29c0,.1,0,.15.14.15Z"/><path d="M169.51,16.8a.23.23,0,0,1-.24-.24V9.84c0-1.85-.84-2.93-2.57-2.93a2.58,2.58,0,0,0-2.64,2.81v6.84a.22.22,0,0,1-.24.24h-1.53a.22.22,0,0,1-.24-.24v-11a.23.23,0,0,1,.24-.24h1.53a.23.23,0,0,1,.24.24V6.6h0A3.62,3.62,0,0,1,167.3,5c2.5,0,4,1.7,4,4.32v7.2a.23.23,0,0,1-.24.24Z"/><path d="M173.33,8.14A4.43,4.43,0,0,1,177.86,5,4.62,4.62,0,0,1,181.8,7a.23.23,0,0,1-.07.34l-1.06.86a.22.22,0,0,1-.34,0,2.82,2.82,0,0,0-2.47-1.25,2.5,2.5,0,0,0-2.57,1.8A7.75,7.75,0,0,0,175,11a7.81,7.81,0,0,0,.26,2.35,2.5,2.5,0,0,0,2.57,1.8A2.82,2.82,0,0,0,180.33,14a.22.22,0,0,1,.34,0l1.06.87c.14.12.14.21.07.33a4.62,4.62,0,0,1-3.94,2,4.44,4.44,0,0,1-4.53-3.1A9.76,9.76,0,0,1,173,11,9.63,9.63,0,0,1,173.33,8.14Z"/><path d="M183.74,2.71a.23.23,0,0,1-.24-.24V.72a.23.23,0,0,1,.24-.24h1.63a.23.23,0,0,1,.24.24V2.47a.22.22,0,0,1-.24.24Zm0,14.09a.22.22,0,0,1-.24-.24v-11a.23.23,0,0,1,.24-.24h1.54a.23.23,0,0,1,.24.24v11a.23.23,0,0,1-.24.24Z"/><path d="M187.75,14a8.48,8.48,0,0,1-.39-2.93,8.37,8.37,0,0,1,.39-2.9,4.87,4.87,0,0,1,9.07,0,8.37,8.37,0,0,1,.39,2.9,8.48,8.48,0,0,1-.39,2.93,4.87,4.87,0,0,1-9.07,0Zm7.13-.58a7.56,7.56,0,0,0,.26-2.35,7.5,7.5,0,0,0-.26-2.33,2.77,2.77,0,0,0-5.19,0,7.5,7.5,0,0,0-.26,2.33,7.56,7.56,0,0,0,.26,2.35,2.77,2.77,0,0,0,5.19,0Zm-3.46-10c-.14,0-.21-.09-.14-.24L193.1.24a.43.43,0,0,1,.41-.24h1.58c.15,0,.22.12.12.24l-2.21,3a.47.47,0,0,1-.45.24Z"/><path d="M206.47,16.8a.22.22,0,0,1-.24-.24V9.84c0-1.85-.84-2.93-2.57-2.93A2.58,2.58,0,0,0,201,9.72v6.84a.23.23,0,0,1-.24.24h-1.54a.23.23,0,0,1-.24-.24v-11a.23.23,0,0,1,.24-.24h1.54a.23.23,0,0,1,.24.24V6.6h0A3.65,3.65,0,0,1,204.26,5c2.5,0,4,1.7,4,4.32v7.2a.23.23,0,0,1-.25.24Z"/><path d="M214.63,14a9.05,9.05,0,0,1-.39-2.91,8.87,8.87,0,0,1,.36-2.9,4.84,4.84,0,0,1,9,0,10,10,0,0,1,.36,3.28.24.24,0,0,1-.27.25h-7.27a.12.12,0,0,0-.14.14,4.3,4.3,0,0,0,.19,1.39,2.84,2.84,0,0,0,2.9,2,3.78,3.78,0,0,0,3-1.27.25.25,0,0,1,.36-.05l1,.89a.22.22,0,0,1,0,.34,5.59,5.59,0,0,1-4.48,2A4.45,4.45,0,0,1,214.63,14Zm7.15-3.89c.1,0,.14-.05.14-.15a4,4,0,0,0-.16-1.29,2.84,2.84,0,0,0-5.28,0,4,4,0,0,0-.17,1.29c0,.1.05.15.14.15Z"/><path d="M233.25,16.8a.23.23,0,0,1-.24-.24V9.84c0-1.85-.84-2.93-2.57-2.93a2.58,2.58,0,0,0-2.64,2.81v6.84a.22.22,0,0,1-.24.24H226a.22.22,0,0,1-.24-.24v-11A.23.23,0,0,1,226,5.3h1.53a.23.23,0,0,1,.24.24V6.6h0A3.62,3.62,0,0,1,231,5c2.5,0,4,1.7,4,4.32v7.2a.23.23,0,0,1-.24.24Z"/><path d="M242,16.8a.23.23,0,0,1-.24-.24v-11A.23.23,0,0,1,242,5.3h1.54a.23.23,0,0,1,.24.24V6.72h0A3.23,3.23,0,0,1,246.81,5a3.56,3.56,0,0,1,2.35.86c.12.12.15.22.05.34l-.89,1.18a.21.21,0,0,1-.33,0,3.31,3.31,0,0,0-1.78-.55c-1.75,0-2.47,1.37-2.47,3.36v6.29a.23.23,0,0,1-.24.24Z"/><path d="M249.38,14A9.1,9.1,0,0,1,249,11a8.87,8.87,0,0,1,.36-2.9,4.83,4.83,0,0,1,9,0,10,10,0,0,1,.36,3.28.24.24,0,0,1-.26.25H251.2a.12.12,0,0,0-.14.14,4.3,4.3,0,0,0,.19,1.39,2.84,2.84,0,0,0,2.91,2,3.77,3.77,0,0,0,3-1.27.25.25,0,0,1,.36-.05l1,.89a.22.22,0,0,1,0,.34,5.62,5.62,0,0,1-4.49,2A4.45,4.45,0,0,1,249.38,14Zm7.15-3.89a.13.13,0,0,0,.15-.15,4,4,0,0,0-.17-1.29,2.84,2.84,0,0,0-5.28,0,4,4,0,0,0-.17,1.29c0,.1.05.15.14.15Z"/><path d="M267.5,16.8a.23.23,0,0,1-.24-.24v-1h0a3.77,3.77,0,0,1-3.41,1.52c-2.19,0-3.87-1.13-3.87-3.46s1.68-3.55,4.49-3.55h2.62c.09,0,.14-.05.14-.15V9.07c0-1.58-.62-2.25-2.76-2.25a4.47,4.47,0,0,0-2.78.81c-.12.1-.27.1-.34,0l-.65-1.11a.25.25,0,0,1,.05-.33A6.4,6.4,0,0,1,264.64,5c3.27,0,4.52,1.08,4.52,3.91v7.61a.23.23,0,0,1-.24.24Zm-.29-3.72V11.81a.12.12,0,0,0-.14-.14h-2.31c-2,0-2.85.57-2.85,1.87s.86,1.8,2.4,1.8C266.11,15.34,267.21,14.5,267.21,13.08Z"/><path d="M274.32,16.92c-2,0-2.81-1-2.81-3V.72a.23.23,0,0,1,.24-.24h1.53a.23.23,0,0,1,.24.24V13.78c0,1,.36,1.27,1.16,1.27h.45a.23.23,0,0,1,.24.24v1.39a.22.22,0,0,1-.24.24Z"/><path d="M277,2.71a.23.23,0,0,1-.25-.24V.72A.23.23,0,0,1,277,.48h1.63a.23.23,0,0,1,.24.24V2.47a.23.23,0,0,1-.24.24Zm0,14.09a.23.23,0,0,1-.24-.24v-11A.23.23,0,0,1,277,5.3h1.54a.23.23,0,0,1,.24.24v11a.23.23,0,0,1-.24.24Z"/><path d="M280.87,16.8a.22.22,0,0,1-.24-.24V15.29a.35.35,0,0,1,.09-.26L287,7.18v0h-5.86a.23.23,0,0,1-.24-.24V5.54a.23.23,0,0,1,.24-.24h8a.23.23,0,0,1,.24.24V6.89a.35.35,0,0,1-.1.26l-6.26,7.78V15h6.12a.23.23,0,0,1,.24.24v1.34a.23.23,0,0,1-.24.24Z"/><path d="M298.24,16.8a.23.23,0,0,1-.24-.24v-1h0a3.77,3.77,0,0,1-3.41,1.52c-2.18,0-3.86-1.13-3.86-3.46s1.68-3.55,4.48-3.55h2.62a.13.13,0,0,0,.15-.15V9.07c0-1.58-.63-2.25-2.77-2.25a4.47,4.47,0,0,0-2.78.81.22.22,0,0,1-.34,0l-.64-1.11a.24.24,0,0,1,0-.33A6.42,6.42,0,0,1,295.39,5c3.26,0,4.51,1.08,4.51,3.91v7.61a.23.23,0,0,1-.24.24ZM298,13.08V11.81c0-.1,0-.14-.15-.14h-2.3c-2,0-2.86.57-2.86,1.87s.86,1.8,2.4,1.8C296.85,15.34,298,14.5,298,13.08Z"/><path d="M302.54,16.8a.22.22,0,0,1-.24-.24v-11a.23.23,0,0,1,.24-.24h1.53a.23.23,0,0,1,.24.24V6.72h0A3.2,3.2,0,0,1,307.39,5a3.58,3.58,0,0,1,2.35.86c.12.12.14.22.05.34l-.89,1.18a.22.22,0,0,1-.34,0,3.25,3.25,0,0,0-1.77-.55c-1.75,0-2.48,1.37-2.48,3.36v6.29a.22.22,0,0,1-.24.24Z"/><path d="M313.12,21.12a.23.23,0,0,1-.24-.24V19.49a.23.23,0,0,1,.24-.24h.39c1.12,0,1.51-.31,1.51-1.54V5.54a.23.23,0,0,1,.24-.24h1.53a.23.23,0,0,1,.24.24V17.67c0,2.47-1.1,3.45-3.43,3.45Zm2.09-18.41a.23.23,0,0,1-.24-.24V.72a.23.23,0,0,1,.24-.24h1.63a.23.23,0,0,1,.24.24V2.47a.22.22,0,0,1-.24.24Z"/><path d="M319.22,14a8.48,8.48,0,0,1-.39-2.93,8.37,8.37,0,0,1,.39-2.9,4.87,4.87,0,0,1,9.07,0,8.4,8.4,0,0,1,.38,2.9,8.52,8.52,0,0,1-.38,2.93,4.87,4.87,0,0,1-9.07,0Zm7.13-.58a7.56,7.56,0,0,0,.26-2.35,7.5,7.5,0,0,0-.26-2.33,2.77,2.77,0,0,0-5.19,0A7.5,7.5,0,0,0,320.9,11a7.56,7.56,0,0,0,.26,2.35,2.77,2.77,0,0,0,5.19,0Z"/><path d="M330.71,16.8a.23.23,0,0,1-.24-.24v-11a.23.23,0,0,1,.24-.24h1.54a.23.23,0,0,1,.24.24V6.72h0A3.23,3.23,0,0,1,335.56,5a3.6,3.6,0,0,1,2.36.86c.12.12.14.22,0,.34l-.88,1.18a.22.22,0,0,1-.34,0A3.31,3.31,0,0,0,335,6.91c-1.75,0-2.47,1.37-2.47,3.36v6.29a.23.23,0,0,1-.24.24Z"/><path d="M346.34,16.8a.22.22,0,0,1-.24-.24V9.84c0-1.85-.84-2.93-2.57-2.93a2.58,2.58,0,0,0-2.64,2.81v6.84a.23.23,0,0,1-.24.24h-1.54a.23.23,0,0,1-.24-.24v-11a.23.23,0,0,1,.24-.24h1.54a.23.23,0,0,1,.24.24V6.6h0A3.65,3.65,0,0,1,344.13,5c2.5,0,4,1.7,4,4.32v7.2a.22.22,0,0,1-.24.24Z"/><path d="M357.45,16.8a.23.23,0,0,1-.24-.24v-1h0a3.77,3.77,0,0,1-3.41,1.52c-2.19,0-3.87-1.13-3.87-3.46s1.68-3.55,4.49-3.55H357c.09,0,.14-.05.14-.15V9.07c0-1.58-.62-2.25-2.76-2.25a4.47,4.47,0,0,0-2.78.81c-.12.1-.27.1-.34,0l-.65-1.11a.24.24,0,0,1,.05-.33A6.4,6.4,0,0,1,354.59,5c3.27,0,4.52,1.08,4.52,3.91v7.61a.23.23,0,0,1-.24.24Zm-.29-3.72V11.81a.12.12,0,0,0-.14-.14h-2.31c-2,0-2.85.57-2.85,1.87s.86,1.8,2.4,1.8C356.06,15.34,357.16,14.5,357.16,13.08Z"/><path d="M368.71,16.8a.22.22,0,0,1-.24-.24v-1.1h0a3.49,3.49,0,0,1-3.26,1.61,3.8,3.8,0,0,1-4-2.76,9.68,9.68,0,0,1-.41-3.27,9.53,9.53,0,0,1,.41-3.24,3.8,3.8,0,0,1,4-2.76,3.48,3.48,0,0,1,3.26,1.58h0V.72a.23.23,0,0,1,.24-.24h1.53a.23.23,0,0,1,.24.24V16.56a.22.22,0,0,1-.24.24Zm-.51-3.36a7.41,7.41,0,0,0,.27-2.4,7.53,7.53,0,0,0-.27-2.4,2.71,2.71,0,0,0-5.06,0,8.21,8.21,0,0,0-.27,2.4,8,8,0,0,0,.27,2.4,2.7,2.7,0,0,0,5.06,0Z"/><path d="M379.94,16.8a.22.22,0,0,1-.24-.24v-1h0a3.74,3.74,0,0,1-3.4,1.52c-2.19,0-3.87-1.13-3.87-3.46s1.68-3.55,4.49-3.55h2.62c.09,0,.14-.05.14-.15V9.07c0-1.58-.62-2.25-2.76-2.25a4.44,4.44,0,0,0-2.78.81c-.12.1-.27.1-.34,0l-.65-1.11a.24.24,0,0,1,.05-.33A6.38,6.38,0,0,1,377.08,5c3.27,0,4.51,1.08,4.51,3.91v7.61a.22.22,0,0,1-.24.24Zm-.29-3.72V11.81a.12.12,0,0,0-.14-.14H377.2c-2,0-2.85.57-2.85,1.87s.86,1.8,2.4,1.8C378.55,15.34,379.65,14.5,379.65,13.08Z"/><path d="M383.2,15.34a.25.25,0,0,1,0-.34l1-1.05a.22.22,0,0,1,.33,0,5.62,5.62,0,0,0,3.55,1.32c1.68,0,2.52-.73,2.52-1.76s-.43-1.41-2.23-1.61l-1.22-.12c-2.26-.24-3.43-1.36-3.43-3.24,0-2.18,1.56-3.5,4.27-3.5a6.88,6.88,0,0,1,4.08,1.27.24.24,0,0,1,.05.34l-.82,1a.24.24,0,0,1-.34.05,6,6,0,0,0-3.09-.94c-1.44,0-2.19.65-2.19,1.59s.56,1.39,2.26,1.56l1.2.12c2.33.21,3.46,1.39,3.46,3.24,0,2.25-1.64,3.77-4.64,3.77A7.18,7.18,0,0,1,383.2,15.34Z"/><path d="M7.9,44.8a.22.22,0,0,1-.24-.24v-1.1h0a3.49,3.49,0,0,1-3.26,1.61,3.8,3.8,0,0,1-4-2.76A9.68,9.68,0,0,1,0,39,9.53,9.53,0,0,1,.41,35.8a3.8,3.8,0,0,1,4-2.76,3.48,3.48,0,0,1,3.26,1.58h0v-5.9a.23.23,0,0,1,.24-.24H9.43a.23.23,0,0,1,.24.24V44.56a.22.22,0,0,1-.24.24Zm-.51-3.36A7.41,7.41,0,0,0,7.66,39a7.53,7.53,0,0,0-.27-2.4,2.44,2.44,0,0,0-2.54-1.73,2.44,2.44,0,0,0-2.52,1.73A8.21,8.21,0,0,0,2.06,39a8,8,0,0,0,.27,2.4,2.45,2.45,0,0,0,2.52,1.75A2.46,2.46,0,0,0,7.39,41.44Z"/><path d="M11.86,42A9.05,9.05,0,0,1,11.47,39a8.87,8.87,0,0,1,.36-2.9A4.44,4.44,0,0,1,16.34,33a4.46,4.46,0,0,1,4.52,3.1,10,10,0,0,1,.36,3.28.24.24,0,0,1-.27.25H13.68c-.1,0-.14,0-.14.14a4.3,4.3,0,0,0,.19,1.39,2.83,2.83,0,0,0,2.9,2,3.74,3.74,0,0,0,2.95-1.27.26.26,0,0,1,.37-.05l1,.89a.22.22,0,0,1,0,.34,5.59,5.59,0,0,1-4.49,2A4.44,4.44,0,0,1,11.86,42ZM19,38.06c.1,0,.14-.05.14-.15A4,4,0,0,0,19,36.62a2.6,2.6,0,0,0-2.65-1.8,2.58,2.58,0,0,0-2.63,1.8,3.74,3.74,0,0,0-.17,1.29c0,.1,0,.15.14.15Z"/><path d="M27,42A8.77,8.77,0,0,1,26.64,39a8.65,8.65,0,0,1,.38-2.9A4.45,4.45,0,0,1,31.56,33a4.45,4.45,0,0,1,4.54,3.1,8.65,8.65,0,0,1,.38,2.9A8.77,8.77,0,0,1,36.1,42a4.49,4.49,0,0,1-4.54,3.1A4.49,4.49,0,0,1,27,42Zm7.13-.58A7.5,7.5,0,0,0,34.42,39a7.45,7.45,0,0,0-.27-2.33,2.76,2.76,0,0,0-5.18,0A7.5,7.5,0,0,0,28.71,39,7.56,7.56,0,0,0,29,41.39a2.76,2.76,0,0,0,5.18,0Z"/><path d="M38.52,44.8a.23.23,0,0,1-.24-.24v-11a.23.23,0,0,1,.24-.24h1.54a.23.23,0,0,1,.24.24v1.18h0a3.2,3.2,0,0,1,3-1.68,3.56,3.56,0,0,1,2.35.86c.12.12.15.22.05.34l-.89,1.18a.22.22,0,0,1-.34,0,3.25,3.25,0,0,0-1.77-.55c-1.75,0-2.47,1.37-2.47,3.36v6.29a.23.23,0,0,1-.24.24Z"/><path d="M53.45,44.8a.22.22,0,0,1-.24-.24v-1.1h0a3.49,3.49,0,0,1-3.26,1.61,3.81,3.81,0,0,1-4-2.76A9.68,9.68,0,0,1,45.55,39,9.53,9.53,0,0,1,46,35.8a3.81,3.81,0,0,1,4-2.76,3.48,3.48,0,0,1,3.26,1.58h0v-5.9a.23.23,0,0,1,.24-.24H55a.22.22,0,0,1,.23.24V44.56a.22.22,0,0,1-.23.24Zm-.51-3.36a7.14,7.14,0,0,0,.27-2.4,7.25,7.25,0,0,0-.27-2.4,2.71,2.71,0,0,0-5.06,0,8.26,8.26,0,0,0-.26,2.4,8,8,0,0,0,.26,2.4,2.7,2.7,0,0,0,5.06,0Z"/><path d="M57.41,42A9.05,9.05,0,0,1,57,39a8.87,8.87,0,0,1,.36-2.9,4.84,4.84,0,0,1,9,0,10,10,0,0,1,.36,3.28.24.24,0,0,1-.27.25H59.23a.12.12,0,0,0-.14.14,4.3,4.3,0,0,0,.19,1.39,2.84,2.84,0,0,0,2.9,2,3.78,3.78,0,0,0,3-1.27.25.25,0,0,1,.36-.05l1,.89a.22.22,0,0,1,0,.34,5.59,5.59,0,0,1-4.48,2A4.45,4.45,0,0,1,57.41,42Zm7.15-3.89a.13.13,0,0,0,.15-.15,4,4,0,0,0-.17-1.29,2.84,2.84,0,0,0-5.28,0,4,4,0,0,0-.17,1.29c0,.1,0,.15.14.15Z"/><path d="M76,44.8a.23.23,0,0,1-.24-.24V37.84c0-1.85-.84-2.93-2.57-2.93a2.59,2.59,0,0,0-2.64,2.81v6.84a.22.22,0,0,1-.24.24H68.81a.22.22,0,0,1-.24-.24v-11a.23.23,0,0,1,.24-.24h1.53a.23.23,0,0,1,.24.24V34.6h0A3.62,3.62,0,0,1,73.83,33c2.49,0,4,1.7,4,4.32v7.2a.23.23,0,0,1-.24.24Z"/><path d="M84.6,49.12a.23.23,0,0,1-.24-.24V47.49a.23.23,0,0,1,.24-.24H85c.94,0,1.44-.41,2-1.73l.38-1.05L83.14,33.54c0-.14,0-.24.19-.24H85a.29.29,0,0,1,.29.24l3,8.31h.05l2.9-8.31a.29.29,0,0,1,.29-.24h1.63c.15,0,.24.1.19.24L88.85,45.69c-1,2.71-1.9,3.43-3.63,3.43Z"/><path d="M105.79,44.8a.23.23,0,0,1-.24-.24v-1h0a3.77,3.77,0,0,1-3.41,1.52c-2.18,0-3.86-1.13-3.86-3.46s1.68-3.55,4.48-3.55h2.62c.1,0,.14-.05.14-.15v-.84c0-1.58-.62-2.25-2.76-2.25a4.47,4.47,0,0,0-2.78.81.22.22,0,0,1-.34,0L99,34.5a.24.24,0,0,1,0-.33A6.42,6.42,0,0,1,102.94,33c3.26,0,4.51,1.08,4.51,3.91v7.61a.23.23,0,0,1-.24.24Zm-.29-3.72V39.81c0-.1,0-.14-.14-.14h-2.3c-2,0-2.86.57-2.86,1.87s.86,1.8,2.4,1.8C104.4,43.34,105.5,42.5,105.5,41.08Z"/><path d="M109.06,43.34a.23.23,0,0,1,0-.34l1-1a.23.23,0,0,1,.34,0,5.6,5.6,0,0,0,3.55,1.32c1.68,0,2.52-.73,2.52-1.76s-.43-1.41-2.23-1.61L113,39.78c-2.25-.24-3.43-1.36-3.43-3.24,0-2.18,1.56-3.5,4.27-3.5a6.88,6.88,0,0,1,4.08,1.27.24.24,0,0,1,0,.34l-.82,1a.23.23,0,0,1-.33,0,6.07,6.07,0,0,0-3.1-.94c-1.44,0-2.18.65-2.18,1.59s.55,1.39,2.25,1.56l1.2.12c2.33.21,3.46,1.39,3.46,3.24,0,2.25-1.63,3.77-4.63,3.77A7.16,7.16,0,0,1,109.06,43.34Z"/><path d="M119.86,42a9.05,9.05,0,0,1-.39-2.91,8.87,8.87,0,0,1,.36-2.9,4.84,4.84,0,0,1,9,0,10,10,0,0,1,.36,3.28.24.24,0,0,1-.27.25h-7.27c-.1,0-.14,0-.14.14a4.3,4.3,0,0,0,.19,1.39,2.83,2.83,0,0,0,2.9,2,3.74,3.74,0,0,0,3-1.27.25.25,0,0,1,.36-.05l1,.89a.22.22,0,0,1,0,.34,5.59,5.59,0,0,1-4.49,2A4.44,4.44,0,0,1,119.86,42ZM127,38.06c.09,0,.14-.05.14-.15a4,4,0,0,0-.17-1.29,2.84,2.84,0,0,0-5.28,0,4,4,0,0,0-.16,1.29c0,.1,0,.15.14.15Z"/><path d="M130.7,42a8.77,8.77,0,0,1-.38-2.93,8.65,8.65,0,0,1,.38-2.9,4.87,4.87,0,0,1,9.08,0,8.65,8.65,0,0,1,.38,2.9,8.77,8.77,0,0,1-.38,2.93,4.87,4.87,0,0,1-9.08,0Zm7.13-.58A7.5,7.5,0,0,0,138.1,39a7.45,7.45,0,0,0-.27-2.33,2.76,2.76,0,0,0-5.18,0,7.45,7.45,0,0,0-.27,2.33,7.5,7.5,0,0,0,.27,2.35,2.76,2.76,0,0,0,5.18,0Z"/><path d="M153.48,44.8a.22.22,0,0,1-.24-.24v-1.1h0A3.49,3.49,0,0,1,150,45.07a3.81,3.81,0,0,1-4-2.76,9.68,9.68,0,0,1-.41-3.27A9.53,9.53,0,0,1,146,35.8,3.81,3.81,0,0,1,150,33a3.48,3.48,0,0,1,3.26,1.58h0v-5.9a.23.23,0,0,1,.24-.24H155a.22.22,0,0,1,.23.24V44.56a.22.22,0,0,1-.23.24ZM153,41.44a7.14,7.14,0,0,0,.27-2.4,7.25,7.25,0,0,0-.27-2.4,2.71,2.71,0,0,0-5.06,0,8.26,8.26,0,0,0-.26,2.4,8,8,0,0,0,.26,2.4,2.7,2.7,0,0,0,5.06,0Z"/><path d="M165,44.8a.22.22,0,0,1-.24-.24V43.48h0a3.51,3.51,0,0,1-3.14,1.59c-2.52,0-4-1.73-4-4.35V33.54a.23.23,0,0,1,.24-.24h1.54a.23.23,0,0,1,.24.24v6.7c0,1.87.84,2.95,2.54,2.95a2.55,2.55,0,0,0,2.6-2.83V33.54a.23.23,0,0,1,.24-.24h1.53a.23.23,0,0,1,.24.24v11a.22.22,0,0,1-.24.24Z"/><path d="M169.49,44.8a.22.22,0,0,1-.24-.24v-11a.23.23,0,0,1,.24-.24H171a.23.23,0,0,1,.24.24v1.18h0a3.2,3.2,0,0,1,3-1.68,3.58,3.58,0,0,1,2.36.86c.12.12.14.22.05.34l-.89,1.18a.22.22,0,0,1-.34,0,3.28,3.28,0,0,0-1.78-.55c-1.75,0-2.47,1.37-2.47,3.36v6.29a.22.22,0,0,1-.24.24Z"/><path d="M184,44.8a.23.23,0,0,1-.24-.24v-1h0a3.77,3.77,0,0,1-3.41,1.52c-2.19,0-3.87-1.13-3.87-3.46s1.68-3.55,4.49-3.55h2.62c.1,0,.14-.05.14-.15v-.84c0-1.58-.62-2.25-2.76-2.25a4.47,4.47,0,0,0-2.78.81c-.12.1-.27.1-.34,0l-.65-1.11a.25.25,0,0,1,0-.33A6.4,6.4,0,0,1,181.17,33c3.27,0,4.52,1.08,4.52,3.91v7.61a.23.23,0,0,1-.24.24Zm-.29-3.72V39.81c0-.1,0-.14-.14-.14h-2.31c-2,0-2.85.57-2.85,1.87s.86,1.8,2.4,1.8C182.64,43.34,183.74,42.5,183.74,41.08Z"/><path d="M195.55,44.8a.23.23,0,0,1-.24-.24V37.84c0-1.85-.84-2.93-2.57-2.93a2.58,2.58,0,0,0-2.64,2.81v6.84a.22.22,0,0,1-.24.24h-1.53a.22.22,0,0,1-.24-.24v-11a.23.23,0,0,1,.24-.24h1.53a.23.23,0,0,1,.24.24V34.6h0A3.62,3.62,0,0,1,193.34,33c2.5,0,4,1.7,4,4.32v7.2a.23.23,0,0,1-.24.24Z"/><path d="M203,44.92c-2.23,0-3.1-1-3.1-3.26V35.08a.12.12,0,0,0-.14-.14h-1a.23.23,0,0,1-.24-.24V33.54a.23.23,0,0,1,.24-.24h1a.12.12,0,0,0,.14-.14V29.92a.23.23,0,0,1,.24-.24h1.54a.23.23,0,0,1,.24.24v3.24a.12.12,0,0,0,.14.14h1.83a.23.23,0,0,1,.24.24V34.7a.23.23,0,0,1-.24.24H202.1a.12.12,0,0,0-.14.14v6.5c0,1.16.43,1.47,1.46,1.47h.51a.23.23,0,0,1,.24.24v1.39a.23.23,0,0,1-.24.24Z"/><path d="M205.53,42a9.1,9.1,0,0,1-.38-2.91,8.87,8.87,0,0,1,.36-2.9,4.83,4.83,0,0,1,9,0,10,10,0,0,1,.36,3.28.23.23,0,0,1-.26.25h-7.27c-.1,0-.15,0-.15.14a4.27,4.27,0,0,0,.2,1.39,2.83,2.83,0,0,0,2.9,2,3.74,3.74,0,0,0,2.95-1.27.25.25,0,0,1,.36-.05l1,.89a.22.22,0,0,1,0,.34,5.59,5.59,0,0,1-4.49,2A4.45,4.45,0,0,1,205.53,42Zm7.16-3.89c.09,0,.14-.05.14-.15a4,4,0,0,0-.17-1.29,2.84,2.84,0,0,0-5.28,0,4,4,0,0,0-.17,1.29.13.13,0,0,0,.15.15Z"/><path d="M220.7,42a9.1,9.1,0,0,1-.38-2.91,8.87,8.87,0,0,1,.36-2.9,4.83,4.83,0,0,1,9,0,10,10,0,0,1,.36,3.28.23.23,0,0,1-.26.25h-7.27c-.1,0-.15,0-.15.14a4.3,4.3,0,0,0,.19,1.39,2.84,2.84,0,0,0,2.91,2,3.74,3.74,0,0,0,3-1.27.25.25,0,0,1,.36-.05l1,.89a.22.22,0,0,1,0,.34,5.59,5.59,0,0,1-4.49,2A4.45,4.45,0,0,1,220.7,42Zm7.15-3.89a.13.13,0,0,0,.15-.15,4,4,0,0,0-.17-1.29,2.84,2.84,0,0,0-5.28,0,4,4,0,0,0-.17,1.29.13.13,0,0,0,.15.15Z"/><path d="M234.62,44.92c-2,0-2.81-1-2.81-3V28.72a.23.23,0,0,1,.24-.24h1.54a.23.23,0,0,1,.24.24V41.78c0,1,.36,1.27,1.15,1.27h.46a.23.23,0,0,1,.24.24v1.39a.23.23,0,0,1-.24.24Z"/><path d="M248.85,44.8a.23.23,0,0,1-.24-.24V37.84c0-1.85-.84-2.93-2.56-2.93a2.58,2.58,0,0,0-2.64,2.81v6.84a.23.23,0,0,1-.24.24h-1.54a.23.23,0,0,1-.24-.24V28.72a.23.23,0,0,1,.24-.24h1.54a.23.23,0,0,1,.24.24V34.6h0A3.63,3.63,0,0,1,246.65,33c2.49,0,4,1.7,4,4.32v7.2a.23.23,0,0,1-.24.24Z"/><path d="M252.69,42a8.77,8.77,0,0,1-.38-2.93,8.65,8.65,0,0,1,.38-2.9,4.87,4.87,0,0,1,9.08,0,8.65,8.65,0,0,1,.38,2.9,8.77,8.77,0,0,1-.38,2.93,4.87,4.87,0,0,1-9.08,0Zm7.13-.58a7.5,7.5,0,0,0,.27-2.35,7.45,7.45,0,0,0-.27-2.33,2.76,2.76,0,0,0-5.18,0,7.45,7.45,0,0,0-.27,2.33,7.5,7.5,0,0,0,.27,2.35,2.76,2.76,0,0,0,5.18,0Z"/><path d="M264.19,44.8a.22.22,0,0,1-.24-.24v-11a.23.23,0,0,1,.24-.24h1.54a.23.23,0,0,1,.24.24v1.18h0A3.2,3.2,0,0,1,269,33a3.58,3.58,0,0,1,2.35.86c.12.12.14.22.05.34l-.89,1.18a.22.22,0,0,1-.34,0,3.25,3.25,0,0,0-1.77-.55c-1.75,0-2.47,1.37-2.47,3.36v6.29a.23.23,0,0,1-.24.24Z"/><path d="M278.73,44.8a.23.23,0,0,1-.24-.24v-1h0a3.77,3.77,0,0,1-3.41,1.52c-2.18,0-3.86-1.13-3.86-3.46s1.68-3.55,4.49-3.55h2.61a.13.13,0,0,0,.15-.15v-.84c0-1.58-.63-2.25-2.76-2.25a4.48,4.48,0,0,0-2.79.81c-.12.1-.26.1-.33,0l-.65-1.11a.24.24,0,0,1,0-.33A6.42,6.42,0,0,1,275.88,33c3.26,0,4.51,1.08,4.51,3.91v7.61a.23.23,0,0,1-.24.24Zm-.28-3.72V39.81c0-.1-.05-.14-.15-.14H276c-2,0-2.86.57-2.86,1.87s.86,1.8,2.4,1.8C277.34,43.34,278.45,42.5,278.45,41.08Z"/><path d="M283,44.8a.22.22,0,0,1-.24-.24v-11a.23.23,0,0,1,.24-.24h1.54a.23.23,0,0,1,.24.24v1.18h0A3.2,3.2,0,0,1,287.88,33a3.58,3.58,0,0,1,2.35.86c.12.12.14.22,0,.34l-.89,1.18a.22.22,0,0,1-.34,0,3.25,3.25,0,0,0-1.77-.55c-1.75,0-2.47,1.37-2.47,3.36v6.29a.23.23,0,0,1-.24.24Z"/><path d="M291.38,30.71a.23.23,0,0,1-.24-.24V28.72a.23.23,0,0,1,.24-.24H293a.23.23,0,0,1,.24.24v1.75a.22.22,0,0,1-.24.24Zm.05,14.09a.23.23,0,0,1-.24-.24v-11a.23.23,0,0,1,.24-.24H293a.23.23,0,0,1,.25.24v11a.23.23,0,0,1-.25.24Z"/><path d="M295.39,42A8.73,8.73,0,0,1,295,39a8.62,8.62,0,0,1,.39-2.9,4.87,4.87,0,0,1,9.07,0,8.37,8.37,0,0,1,.39,2.9,8.48,8.48,0,0,1-.39,2.93,4.87,4.87,0,0,1-9.07,0Zm7.13-.58a7.56,7.56,0,0,0,.26-2.35,7.5,7.5,0,0,0-.26-2.33,2.77,2.77,0,0,0-5.19,0,7.5,7.5,0,0,0-.26,2.33,7.56,7.56,0,0,0,.26,2.35,2.77,2.77,0,0,0,5.19,0Z"/><path d="M313.72,44.92c-2,0-2.8-1-2.8-3V28.72a.23.23,0,0,1,.24-.24h1.53a.23.23,0,0,1,.24.24V41.78c0,1,.36,1.27,1.15,1.27h.46a.23.23,0,0,1,.24.24v1.39a.23.23,0,0,1-.24.24Z"/><path d="M323.13,44.8a.23.23,0,0,1-.24-.24v-1h0a3.77,3.77,0,0,1-3.41,1.52c-2.18,0-3.86-1.13-3.86-3.46s1.68-3.55,4.48-3.55h2.62c.1,0,.14-.05.14-.15v-.84c0-1.58-.62-2.25-2.76-2.25a4.47,4.47,0,0,0-2.78.81.22.22,0,0,1-.34,0l-.64-1.11a.24.24,0,0,1,0-.33A6.42,6.42,0,0,1,320.28,33c3.26,0,4.51,1.08,4.51,3.91v7.61a.23.23,0,0,1-.24.24Zm-.29-3.72V39.81c0-.1,0-.14-.14-.14h-2.3c-2,0-2.86.57-2.86,1.87s.86,1.8,2.4,1.8C321.74,43.34,322.84,42.5,322.84,41.08Z"/><path d="M327.43,44.8a.22.22,0,0,1-.24-.24V28.72a.23.23,0,0,1,.24-.24H329a.23.23,0,0,1,.25.24v5.9h0A3.48,3.48,0,0,1,332.49,33a3.79,3.79,0,0,1,4,2.76,9.29,9.29,0,0,1,.41,3.24,9.43,9.43,0,0,1-.41,3.27,3.79,3.79,0,0,1-4,2.76,3.49,3.49,0,0,1-3.26-1.61h0v1.1a.23.23,0,0,1-.25.24Zm7.1-3.36a7.68,7.68,0,0,0,.27-2.4,7.88,7.88,0,0,0-.27-2.4,2.71,2.71,0,0,0-5.06,0,7.59,7.59,0,0,0-.26,2.4,7.47,7.47,0,0,0,.26,2.4,2.7,2.7,0,0,0,5.06,0Z"/><path d="M338.35,42A8.48,8.48,0,0,1,338,39a8.37,8.37,0,0,1,.39-2.9,4.87,4.87,0,0,1,9.07,0,8.65,8.65,0,0,1,.38,2.9,8.77,8.77,0,0,1-.38,2.93,4.87,4.87,0,0,1-9.07,0Zm7.13-.58a7.56,7.56,0,0,0,.26-2.35,7.5,7.5,0,0,0-.26-2.33,2.77,2.77,0,0,0-5.19,0A7.5,7.5,0,0,0,340,39a7.56,7.56,0,0,0,.26,2.35,2.77,2.77,0,0,0,5.19,0Z"/><path d="M349.84,44.8a.23.23,0,0,1-.24-.24v-11a.23.23,0,0,1,.24-.24h1.54a.23.23,0,0,1,.24.24v1.18h0A3.23,3.23,0,0,1,354.69,33a3.56,3.56,0,0,1,2.35.86c.12.12.15.22,0,.34l-.89,1.18a.21.21,0,0,1-.33,0,3.31,3.31,0,0,0-1.78-.55c-1.75,0-2.47,1.37-2.47,3.36v6.29a.23.23,0,0,1-.24.24Z"/><path d="M364.39,44.8a.22.22,0,0,1-.24-.24v-1h0a3.74,3.74,0,0,1-3.4,1.52c-2.19,0-3.87-1.13-3.87-3.46s1.68-3.55,4.49-3.55H364c.09,0,.14-.05.14-.15v-.84c0-1.58-.62-2.25-2.76-2.25a4.44,4.44,0,0,0-2.78.81c-.12.1-.27.1-.34,0l-.65-1.11a.24.24,0,0,1,.05-.33A6.38,6.38,0,0,1,361.53,33C364.8,33,366,34.12,366,37v7.61a.22.22,0,0,1-.24.24Zm-.29-3.72V39.81a.12.12,0,0,0-.14-.14h-2.31c-2,0-2.85.57-2.85,1.87s.86,1.8,2.4,1.8C363,43.34,364.1,42.5,364.1,41.08Z"/><path d="M371.2,44.92c-2,0-2.8-1-2.8-3V28.72a.23.23,0,0,1,.24-.24h1.53a.23.23,0,0,1,.24.24V41.78c0,1,.36,1.27,1.15,1.27H372a.23.23,0,0,1,.24.24v1.39a.23.23,0,0,1-.24.24Z"/><path d="M373.72,42.26h1.68a.22.22,0,0,1,.24.24v2.23a.77.77,0,0,1-.14.53l-1.49,2a.36.36,0,0,1-.31.16.21.21,0,0,1-.22-.21V42.5A.23.23,0,0,1,373.72,42.26Z"/><path d="M.38,70A9.1,9.1,0,0,1,0,67a8.87,8.87,0,0,1,.36-2.9A4.44,4.44,0,0,1,4.87,61a4.44,4.44,0,0,1,4.51,3.1,9.62,9.62,0,0,1,.37,3.28.24.24,0,0,1-.27.25H2.21c-.1,0-.15,0-.15.14a4.27,4.27,0,0,0,.2,1.39,2.83,2.83,0,0,0,2.9,2,3.74,3.74,0,0,0,2.95-1.27.25.25,0,0,1,.36,0l1,.89a.22.22,0,0,1,0,.34,5.59,5.59,0,0,1-4.49,2A4.46,4.46,0,0,1,.38,70Zm7.16-3.89c.09,0,.14,0,.14-.15a4,4,0,0,0-.17-1.29,2.58,2.58,0,0,0-2.64-1.8,2.6,2.6,0,0,0-2.64,1.8,4,4,0,0,0-.17,1.29.13.13,0,0,0,.15.15Z"/><path d="M10.27,71.34a.25.25,0,0,1,0-.34l1-1a.22.22,0,0,1,.33,0,5.62,5.62,0,0,0,3.55,1.32c1.69,0,2.53-.73,2.53-1.76s-.44-1.41-2.24-1.61l-1.22-.11c-2.26-.25-3.43-1.37-3.43-3.25,0-2.18,1.56-3.5,4.27-3.5a6.88,6.88,0,0,1,4.08,1.27.24.24,0,0,1,.05.34l-.82,1a.23.23,0,0,1-.33,0,6.07,6.07,0,0,0-3.1-.94c-1.44,0-2.18.65-2.18,1.59s.55,1.39,2.25,1.56l1.2.12c2.33.21,3.46,1.39,3.46,3.24,0,2.25-1.63,3.77-4.63,3.77A7.19,7.19,0,0,1,10.27,71.34Z"/><path d="M24.24,72.92c-2.23,0-3.1-1-3.1-3.26V63.08c0-.1,0-.14-.14-.14H20a.23.23,0,0,1-.24-.24V61.54A.23.23,0,0,1,20,61.3h1c.1,0,.14,0,.14-.14V57.92a.23.23,0,0,1,.24-.24h1.54a.23.23,0,0,1,.24.24v3.24a.12.12,0,0,0,.14.14h1.83a.23.23,0,0,1,.24.24V62.7a.23.23,0,0,1-.24.24H23.3a.12.12,0,0,0-.14.14v6.5c0,1.16.43,1.47,1.47,1.47h.5a.23.23,0,0,1,.24.24v1.39a.23.23,0,0,1-.24.24Z"/><path d="M33.53,72.8a.22.22,0,0,1-.24-.24v-1h0a3.74,3.74,0,0,1-3.4,1.52c-2.19,0-3.87-1.13-3.87-3.46s1.68-3.55,4.49-3.55H33.1c.09,0,.14,0,.14-.15v-.84c0-1.58-.62-2.25-2.76-2.25a4.44,4.44,0,0,0-2.78.81c-.12.1-.27.1-.34,0l-.65-1.11a.24.24,0,0,1,.05-.33A6.4,6.4,0,0,1,30.67,61c3.27,0,4.52,1.08,4.52,3.91v7.61a.23.23,0,0,1-.24.24Zm-.29-3.72V67.81a.12.12,0,0,0-.14-.14H30.79c-2,0-2.85.57-2.85,1.87s.86,1.8,2.4,1.8C32.14,71.34,33.24,70.5,33.24,69.08Z"/><path d="M36.31,71.34a.25.25,0,0,1,0-.34l1-1a.22.22,0,0,1,.33,0,5.62,5.62,0,0,0,3.55,1.32c1.68,0,2.53-.73,2.53-1.76s-.44-1.41-2.24-1.61l-1.22-.11c-2.26-.25-3.43-1.37-3.43-3.25,0-2.18,1.56-3.5,4.27-3.5a6.88,6.88,0,0,1,4.08,1.27.24.24,0,0,1,0,.34l-.82,1a.24.24,0,0,1-.34,0A6,6,0,0,0,41,62.79c-1.44,0-2.19.65-2.19,1.59s.56,1.39,2.26,1.56l1.2.12c2.33.21,3.46,1.39,3.46,3.24,0,2.25-1.64,3.77-4.64,3.77A7.18,7.18,0,0,1,36.31,71.34Z"/><path d="M58,72.8a.23.23,0,0,1-.24-.24v-1.1h0a3.5,3.5,0,0,1-3.26,1.61,3.79,3.79,0,0,1-4-2.76A9.43,9.43,0,0,1,50.09,67a9.32,9.32,0,0,1,.41-3.24,3.79,3.79,0,0,1,4-2.76,3.49,3.49,0,0,1,3.26,1.58h0v-5.9a.23.23,0,0,1,.24-.24h1.54a.23.23,0,0,1,.24.24V72.56a.22.22,0,0,1-.24.24Zm-.5-3.36a7.47,7.47,0,0,0,.26-2.4,7.59,7.59,0,0,0-.26-2.4,2.71,2.71,0,0,0-5.06,0,7.88,7.88,0,0,0-.27,2.4,7.68,7.68,0,0,0,.27,2.4,2.7,2.7,0,0,0,5.06,0Z"/><path d="M62,58.71a.22.22,0,0,1-.24-.24V56.72a.23.23,0,0,1,.24-.24H63.6a.23.23,0,0,1,.24.24v1.75a.23.23,0,0,1-.24.24ZM62,72.8a.22.22,0,0,1-.24-.24v-11A.23.23,0,0,1,62,61.3h1.53a.23.23,0,0,1,.24.24v11a.22.22,0,0,1-.24.24Z"/><path d="M65,71.34A.23.23,0,0,1,65,71l1-1a.23.23,0,0,1,.34,0,5.6,5.6,0,0,0,3.55,1.32c1.68,0,2.52-.73,2.52-1.76S72,68.1,70.18,67.9L69,67.79c-2.25-.25-3.43-1.37-3.43-3.25,0-2.18,1.56-3.5,4.27-3.5a6.88,6.88,0,0,1,4.08,1.27.24.24,0,0,1,0,.34l-.82,1a.23.23,0,0,1-.33,0,6.07,6.07,0,0,0-3.1-.94c-1.44,0-2.18.65-2.18,1.59s.55,1.39,2.25,1.56l1.2.12c2.33.21,3.46,1.39,3.46,3.24,0,2.25-1.63,3.77-4.63,3.77A7.16,7.16,0,0,1,65,71.34Z"/><path d="M79,72.92c-2.23,0-3.09-1-3.09-3.26V63.08c0-.1,0-.14-.15-.14h-1a.23.23,0,0,1-.24-.24V61.54a.23.23,0,0,1,.24-.24h1c.1,0,.15,0,.15-.14V57.92a.23.23,0,0,1,.24-.24h1.53a.23.23,0,0,1,.24.24v3.24c0,.1,0,.14.15.14h1.82a.23.23,0,0,1,.24.24V62.7a.23.23,0,0,1-.24.24H78.05c-.1,0-.15,0-.15.14v6.5c0,1.16.44,1.47,1.47,1.47h.5a.23.23,0,0,1,.24.24v1.39a.22.22,0,0,1-.24.24Z"/><path d="M81.55,72.8a.23.23,0,0,1-.24-.24v-11a.23.23,0,0,1,.24-.24h1.54a.23.23,0,0,1,.24.24v1.18h0A3.21,3.21,0,0,1,86.4,61a3.56,3.56,0,0,1,2.35.86c.12.12.15.22,0,.34l-.89,1.18a.21.21,0,0,1-.33,0,3.31,3.31,0,0,0-1.78-.55c-1.75,0-2.47,1.37-2.47,3.36v6.29a.23.23,0,0,1-.24.24Z"/><path d="M95.62,72.8a.22.22,0,0,1-.24-.24v-1h0a3.75,3.75,0,0,1-3.41,1.52c-2.18,0-3.86-1.13-3.86-3.46s1.68-3.55,4.49-3.55h2.61a.13.13,0,0,0,.15-.15v-.84c0-1.58-.63-2.25-2.76-2.25a4.5,4.5,0,0,0-2.79.81c-.12.1-.26.1-.33,0L88.8,62.5a.24.24,0,0,1,0-.33A6.38,6.38,0,0,1,92.76,61C96,61,97.27,62.12,97.27,65v7.61a.22.22,0,0,1-.24.24Zm-.29-3.72V67.81c0-.1,0-.14-.15-.14h-2.3c-2,0-2.86.57-2.86,1.87s.87,1.8,2.4,1.8C94.22,71.34,95.33,70.5,95.33,69.08Z"/><path d="M98.86,64.14a4.43,4.43,0,0,1,4.53-3.1A4.62,4.62,0,0,1,107.33,63a.23.23,0,0,1-.07.34l-1.06.86a.22.22,0,0,1-.34,0,2.82,2.82,0,0,0-2.47-1.25,2.5,2.5,0,0,0-2.57,1.8,10.66,10.66,0,0,0,0,4.68,2.5,2.5,0,0,0,2.57,1.8A2.82,2.82,0,0,0,105.86,70a.22.22,0,0,1,.34,0l1.06.87c.14.12.14.21.07.33a4.62,4.62,0,0,1-3.94,1.95A4.44,4.44,0,0,1,98.86,70,9.81,9.81,0,0,1,98.5,67,9.69,9.69,0,0,1,98.86,64.14Z"/><path d="M108,64.14a4.43,4.43,0,0,1,4.53-3.1A4.62,4.62,0,0,1,116.45,63a.23.23,0,0,1-.07.34l-1.06.86a.22.22,0,0,1-.34,0,2.82,2.82,0,0,0-2.47-1.25,2.5,2.5,0,0,0-2.57,1.8,10.66,10.66,0,0,0,0,4.68,2.5,2.5,0,0,0,2.57,1.8A2.82,2.82,0,0,0,115,70a.22.22,0,0,1,.34,0l1.06.87c.14.12.14.21.07.33a4.62,4.62,0,0,1-3.94,1.95A4.44,4.44,0,0,1,108,70a9.81,9.81,0,0,1-.36-2.93A9.69,9.69,0,0,1,108,64.14Z"/><path d="M117.91,58.71a.23.23,0,0,1-.24-.24V56.72a.23.23,0,0,1,.24-.24h1.63a.23.23,0,0,1,.24.24v1.75a.22.22,0,0,1-.24.24Zm0,14.09a.22.22,0,0,1-.24-.24v-11a.23.23,0,0,1,.24-.24h1.54a.23.23,0,0,1,.24.24v11a.23.23,0,0,1-.24.24Z"/><path d="M121.44,70a8.48,8.48,0,0,1-.39-2.93,8.37,8.37,0,0,1,.39-2.9,4.87,4.87,0,0,1,9.07,0,8.37,8.37,0,0,1,.39,2.9,8.48,8.48,0,0,1-.39,2.93,4.87,4.87,0,0,1-9.07,0Zm7.13-.58a7.6,7.6,0,0,0,.26-2.35,7.5,7.5,0,0,0-.26-2.33,2.77,2.77,0,0,0-5.19,0,7.5,7.5,0,0,0-.26,2.33,7.6,7.6,0,0,0,.26,2.35,2.77,2.77,0,0,0,5.19,0Z"/><path d="M139.68,72.8a.23.23,0,0,1-.24-.24V65.84c0-1.85-.84-2.93-2.57-2.93a2.58,2.58,0,0,0-2.64,2.81v6.84a.23.23,0,0,1-.24.24h-1.54a.23.23,0,0,1-.24-.24v-11a.23.23,0,0,1,.24-.24H134a.23.23,0,0,1,.24.24V62.6h0A3.65,3.65,0,0,1,137.47,61c2.5,0,4,1.7,4,4.32v7.2a.23.23,0,0,1-.25.24Z"/><path d="M143,70a9.05,9.05,0,0,1-.39-2.91,8.87,8.87,0,0,1,.36-2.9,4.84,4.84,0,0,1,9,0,10,10,0,0,1,.36,3.28.24.24,0,0,1-.27.25h-7.27a.12.12,0,0,0-.14.14,4.3,4.3,0,0,0,.19,1.39,2.84,2.84,0,0,0,2.9,2,3.78,3.78,0,0,0,3-1.27.25.25,0,0,1,.36,0l1,.89a.22.22,0,0,1,0,.34,5.59,5.59,0,0,1-4.48,2A4.45,4.45,0,0,1,143,70Zm7.15-3.89c.1,0,.14,0,.14-.15a4,4,0,0,0-.16-1.29,2.84,2.84,0,0,0-5.28,0,4,4,0,0,0-.17,1.29c0,.1.05.15.14.15Z"/><path d="M152.93,71.34a.23.23,0,0,1,0-.34l1-1a.23.23,0,0,1,.34,0,5.6,5.6,0,0,0,3.55,1.32c1.68,0,2.52-.73,2.52-1.76s-.43-1.41-2.23-1.61l-1.23-.11c-2.25-.25-3.43-1.37-3.43-3.25,0-2.18,1.56-3.5,4.27-3.5a6.88,6.88,0,0,1,4.08,1.27.24.24,0,0,1,.05.34l-.82,1a.23.23,0,0,1-.33,0,6.07,6.07,0,0,0-3.1-.94c-1.44,0-2.18.65-2.18,1.59s.55,1.39,2.25,1.56l1.2.12c2.33.21,3.46,1.39,3.46,3.24,0,2.25-1.63,3.77-4.63,3.77A7.16,7.16,0,0,1,152.93,71.34Z"/><path d="M167.64,77.12a.22.22,0,0,1-.24-.24V61.54a.23.23,0,0,1,.24-.24h1.53a.23.23,0,0,1,.24.24v1.08h0A3.48,3.48,0,0,1,172.7,61a3.8,3.8,0,0,1,4,2.76,9.57,9.57,0,0,1,.41,3.24,9.68,9.68,0,0,1-.41,3.27,3.8,3.8,0,0,1-4,2.76,3.49,3.49,0,0,1-3.26-1.61h0v5.42a.22.22,0,0,1-.24.24Zm7.1-7.68A8,8,0,0,0,175,67a8.21,8.21,0,0,0-.27-2.4,2.71,2.71,0,0,0-5.06,0,7.53,7.53,0,0,0-.27,2.4,7.41,7.41,0,0,0,.27,2.4,2.7,2.7,0,0,0,5.06,0Z"/><path d="M185.62,72.8a.22.22,0,0,1-.24-.24V71.48h0a3.51,3.51,0,0,1-3.14,1.59c-2.52,0-4-1.73-4-4.35V61.54a.23.23,0,0,1,.24-.24H180a.23.23,0,0,1,.24.24v6.7c0,1.87.84,3,2.54,3a2.55,2.55,0,0,0,2.6-2.83V61.54a.23.23,0,0,1,.24-.24h1.53a.23.23,0,0,1,.24.24v11a.23.23,0,0,1-.24.24Z"/><path d="M189.09,70a9.1,9.1,0,0,1-.38-2.91,8.87,8.87,0,0,1,.36-2.9,4.83,4.83,0,0,1,9,0,10,10,0,0,1,.36,3.28.23.23,0,0,1-.26.25h-7.27c-.1,0-.15,0-.15.14a4.27,4.27,0,0,0,.2,1.39,2.83,2.83,0,0,0,2.9,2,3.74,3.74,0,0,0,2.95-1.27.25.25,0,0,1,.36,0l1,.89a.22.22,0,0,1,0,.34,5.59,5.59,0,0,1-4.49,2A4.45,4.45,0,0,1,189.09,70Zm7.16-3.89c.09,0,.14,0,.14-.15a4,4,0,0,0-.17-1.29,2.84,2.84,0,0,0-5.28,0,4,4,0,0,0-.17,1.29.13.13,0,0,0,.15.15Z"/><path d="M207,72.8a.23.23,0,0,1-.24-.24v-1.1h0a3.5,3.5,0,0,1-3.26,1.61,3.79,3.79,0,0,1-4-2.76,9.43,9.43,0,0,1-.41-3.27,9.32,9.32,0,0,1,.41-3.24,3.79,3.79,0,0,1,4-2.76,3.49,3.49,0,0,1,3.26,1.58h0v-5.9a.23.23,0,0,1,.24-.24h1.54a.23.23,0,0,1,.24.24V72.56a.23.23,0,0,1-.24.24Zm-.5-3.36a7.47,7.47,0,0,0,.26-2.4,7.59,7.59,0,0,0-.26-2.4,2.71,2.71,0,0,0-5.06,0,7.88,7.88,0,0,0-.27,2.4,7.68,7.68,0,0,0,.27,2.4,2.7,2.7,0,0,0,5.06,0Z"/><path d="M210.45,70a9.1,9.1,0,0,1-.38-2.91,8.87,8.87,0,0,1,.36-2.9,4.83,4.83,0,0,1,9,0,10,10,0,0,1,.36,3.28.23.23,0,0,1-.26.25h-7.27c-.1,0-.15,0-.15.14a4.27,4.27,0,0,0,.2,1.39,2.83,2.83,0,0,0,2.9,2,3.74,3.74,0,0,0,3-1.27.25.25,0,0,1,.36,0l1,.89a.22.22,0,0,1,0,.34,5.59,5.59,0,0,1-4.49,2A4.45,4.45,0,0,1,210.45,70Zm7.16-3.89c.09,0,.14,0,.14-.15a4,4,0,0,0-.17-1.29,2.84,2.84,0,0,0-5.28,0,4,4,0,0,0-.17,1.29.13.13,0,0,0,.15.15Z"/><path d="M228.6,72.8a.22.22,0,0,1-.24-.24V65.84c0-1.85-.84-2.93-2.57-2.93a2.58,2.58,0,0,0-2.64,2.81v6.84a.23.23,0,0,1-.24.24h-1.54a.23.23,0,0,1-.24-.24v-11a.23.23,0,0,1,.24-.24h1.54a.23.23,0,0,1,.24.24V62.6h0A3.65,3.65,0,0,1,226.39,61c2.5,0,4,1.7,4,4.32v7.2a.23.23,0,0,1-.25.24Z"/><path d="M235.77,64.14a4.45,4.45,0,0,1,4.54-3.1A4.62,4.62,0,0,1,244.25,63c.07.12.07.22-.08.34l-1,.86a.22.22,0,0,1-.34,0,2.82,2.82,0,0,0-2.47-1.25,2.5,2.5,0,0,0-2.57,1.8,10.66,10.66,0,0,0,0,4.68,2.5,2.5,0,0,0,2.57,1.8A2.82,2.82,0,0,0,242.78,70a.22.22,0,0,1,.34,0l1,.87c.15.12.15.21.08.33a4.62,4.62,0,0,1-3.94,1.95,4.46,4.46,0,0,1-4.54-3.1,10.15,10.15,0,0,1-.36-2.93A10,10,0,0,1,235.77,64.14Z"/><path d="M252.19,72.8a.23.23,0,0,1-.24-.24v-1h0a3.77,3.77,0,0,1-3.41,1.52c-2.19,0-3.87-1.13-3.87-3.46s1.68-3.55,4.49-3.55h2.62c.09,0,.14,0,.14-.15v-.84c0-1.58-.62-2.25-2.76-2.25a4.47,4.47,0,0,0-2.78.81c-.12.1-.27.1-.34,0l-.65-1.11a.25.25,0,0,1,0-.33A6.4,6.4,0,0,1,249.33,61c3.27,0,4.52,1.08,4.52,3.91v7.61a.23.23,0,0,1-.24.24Zm-.29-3.72V67.81a.12.12,0,0,0-.14-.14h-2.31c-2,0-2.85.57-2.85,1.87s.86,1.8,2.4,1.8C250.8,71.34,251.9,70.5,251.9,69.08Z"/><path d="M263,72.8a.23.23,0,0,1-.24-.24V71.48h0a3.52,3.52,0,0,1-3.15,1.59c-2.52,0-4-1.73-4-4.35V61.54a.23.23,0,0,1,.24-.24h1.53a.23.23,0,0,1,.24.24v6.7c0,1.87.84,3,2.55,3a2.55,2.55,0,0,0,2.59-2.83V61.54a.23.23,0,0,1,.24-.24h1.54a.23.23,0,0,1,.24.24v11a.23.23,0,0,1-.24.24Z"/><path d="M266,71.34a.23.23,0,0,1,0-.34l1-1a.23.23,0,0,1,.34,0,5.6,5.6,0,0,0,3.55,1.32c1.68,0,2.52-.73,2.52-1.76s-.43-1.41-2.23-1.61l-1.23-.11c-2.25-.25-3.43-1.37-3.43-3.25,0-2.18,1.56-3.5,4.27-3.5a6.85,6.85,0,0,1,4.08,1.27.24.24,0,0,1,.05.34l-.81,1a.24.24,0,0,1-.34,0,6,6,0,0,0-3.1-.94c-1.43,0-2.18.65-2.18,1.59s.55,1.39,2.26,1.56l1.2.12c2.33.21,3.45,1.39,3.45,3.24,0,2.25-1.63,3.77-4.63,3.77A7.16,7.16,0,0,1,266,71.34Z"/><path d="M283.58,72.8a.23.23,0,0,1-.24-.24v-1h0a3.77,3.77,0,0,1-3.41,1.52c-2.19,0-3.87-1.13-3.87-3.46s1.68-3.55,4.49-3.55h2.62c.1,0,.14,0,.14-.15v-.84c0-1.58-.62-2.25-2.76-2.25a4.47,4.47,0,0,0-2.78.81c-.12.1-.27.1-.34,0l-.65-1.11a.25.25,0,0,1,.05-.33A6.4,6.4,0,0,1,280.72,61c3.27,0,4.52,1.08,4.52,3.91v7.61a.23.23,0,0,1-.24.24Zm-.29-3.72V67.81c0-.1,0-.14-.14-.14h-2.31c-2,0-2.85.57-2.85,1.87s.86,1.8,2.4,1.8C282.19,71.34,283.29,70.5,283.29,69.08Z"/><path d="M287.4,72.8a.22.22,0,0,1-.24-.24v-11a.23.23,0,0,1,.24-.24h1.53a.23.23,0,0,1,.24.24v1.18h0A3.2,3.2,0,0,1,292.25,61a3.58,3.58,0,0,1,2.35.86c.12.12.14.22,0,.34l-.89,1.18a.22.22,0,0,1-.34,0,3.28,3.28,0,0,0-1.78-.55c-1.75,0-2.47,1.37-2.47,3.36v6.29a.22.22,0,0,1-.24.24Z"/><path d="M306.36,72.8a.22.22,0,0,1-.24-.24v-1h0a3.75,3.75,0,0,1-3.41,1.52c-2.18,0-3.86-1.13-3.86-3.46s1.68-3.55,4.49-3.55h2.61a.13.13,0,0,0,.15-.15v-.84c0-1.58-.63-2.25-2.76-2.25a4.5,4.5,0,0,0-2.79.81c-.12.1-.26.1-.33,0l-.65-1.11a.24.24,0,0,1,0-.33A6.38,6.38,0,0,1,303.5,61C306.76,61,308,62.12,308,65v7.61a.22.22,0,0,1-.24.24Zm-.29-3.72V67.81c0-.1-.05-.14-.15-.14h-2.3c-2,0-2.86.57-2.86,1.87s.87,1.8,2.4,1.8C305,71.34,306.07,70.5,306.07,69.08Z"/><path d="M310.08,64.14a4.43,4.43,0,0,1,4.53-3.1A4.6,4.6,0,0,1,318.55,63a.23.23,0,0,1-.07.34l-1.06.86a.22.22,0,0,1-.34,0,2.82,2.82,0,0,0-2.47-1.25,2.5,2.5,0,0,0-2.57,1.8,10.66,10.66,0,0,0,0,4.68,2.5,2.5,0,0,0,2.57,1.8A2.82,2.82,0,0,0,317.08,70a.22.22,0,0,1,.34,0l1.06.87c.14.12.14.21.07.33a4.61,4.61,0,0,1-3.94,1.95,4.44,4.44,0,0,1-4.53-3.1,9.81,9.81,0,0,1-.36-2.93A9.69,9.69,0,0,1,310.08,64.14Z"/><path d="M319.68,64.14a4.43,4.43,0,0,1,4.53-3.1A4.62,4.62,0,0,1,328.15,63a.23.23,0,0,1-.07.34l-1.06.86a.22.22,0,0,1-.34,0,2.82,2.82,0,0,0-2.47-1.25,2.5,2.5,0,0,0-2.57,1.8,10.66,10.66,0,0,0,0,4.68,2.5,2.5,0,0,0,2.57,1.8A2.82,2.82,0,0,0,326.68,70a.22.22,0,0,1,.34,0l1.06.87c.14.12.14.21.07.33a4.62,4.62,0,0,1-3.94,1.95,4.44,4.44,0,0,1-4.53-3.1,9.81,9.81,0,0,1-.36-2.93A9.69,9.69,0,0,1,319.68,64.14Z"/><path d="M330.09,58.71a.23.23,0,0,1-.24-.24V56.72a.23.23,0,0,1,.24-.24h1.63a.23.23,0,0,1,.24.24v1.75a.22.22,0,0,1-.24.24Zm.05,14.09a.23.23,0,0,1-.24-.24v-11a.23.23,0,0,1,.24-.24h1.54a.23.23,0,0,1,.24.24v11a.23.23,0,0,1-.24.24Z"/><path d="M341.61,72.8a.23.23,0,0,1-.24-.24v-1.1h0a3.52,3.52,0,0,1-3.27,1.61,3.81,3.81,0,0,1-4-2.76,9.68,9.68,0,0,1-.41-3.27,9.57,9.57,0,0,1,.41-3.24,3.81,3.81,0,0,1,4-2.76,3.51,3.51,0,0,1,3.27,1.58h0v-5.9a.23.23,0,0,1,.24-.24h1.54a.23.23,0,0,1,.24.24V72.56a.23.23,0,0,1-.24.24Zm-.5-3.36a7.47,7.47,0,0,0,.26-2.4,7.59,7.59,0,0,0-.26-2.4,2.72,2.72,0,0,0-5.07,0,8.26,8.26,0,0,0-.26,2.4,8,8,0,0,0,.26,2.4,2.71,2.71,0,0,0,5.07,0Z"/><path d="M345.57,70a9.1,9.1,0,0,1-.38-2.91,8.87,8.87,0,0,1,.36-2.9,4.83,4.83,0,0,1,9,0,10,10,0,0,1,.36,3.28.23.23,0,0,1-.26.25H347.4c-.1,0-.15,0-.15.14a4.3,4.3,0,0,0,.19,1.39,2.84,2.84,0,0,0,2.91,2,3.74,3.74,0,0,0,2.95-1.27.25.25,0,0,1,.36,0l1,.89a.22.22,0,0,1,0,.34,5.59,5.59,0,0,1-4.49,2A4.45,4.45,0,0,1,345.57,70Zm7.15-3.89a.13.13,0,0,0,.15-.15,4,4,0,0,0-.17-1.29,2.84,2.84,0,0,0-5.28,0,4,4,0,0,0-.17,1.29.13.13,0,0,0,.15.15Z"/><path d="M364.2,72.8a.22.22,0,0,1-.24-.24V65.84c0-1.85-.84-2.93-2.57-2.93a2.58,2.58,0,0,0-2.64,2.81v6.84a.23.23,0,0,1-.24.24H357a.23.23,0,0,1-.24-.24v-11a.23.23,0,0,1,.24-.24h1.54a.23.23,0,0,1,.24.24V62.6h0A3.63,3.63,0,0,1,362,61c2.49,0,4,1.7,4,4.32v7.2a.22.22,0,0,1-.24.24Z"/><path d="M371.68,72.92c-2.23,0-3.09-1-3.09-3.26V63.08c0-.1,0-.14-.15-.14h-1a.23.23,0,0,1-.24-.24V61.54a.23.23,0,0,1,.24-.24h1c.1,0,.15,0,.15-.14V57.92a.23.23,0,0,1,.24-.24h1.53a.23.23,0,0,1,.24.24v3.24c0,.1,0,.14.15.14h1.82a.23.23,0,0,1,.24.24V62.7a.23.23,0,0,1-.24.24h-1.82c-.1,0-.15,0-.15.14v6.5c0,1.16.44,1.47,1.47,1.47h.5a.23.23,0,0,1,.24.24v1.39a.23.23,0,0,1-.24.24Z"/><path d="M374.18,70a9.05,9.05,0,0,1-.39-2.91,8.82,8.82,0,0,1,.37-2.9,4.83,4.83,0,0,1,9,0,10,10,0,0,1,.36,3.28.24.24,0,0,1-.26.25H376a.12.12,0,0,0-.14.14,4.3,4.3,0,0,0,.19,1.39,2.84,2.84,0,0,0,2.91,2,3.77,3.77,0,0,0,3-1.27.25.25,0,0,1,.36,0l1,.89a.22.22,0,0,1,0,.34,5.62,5.62,0,0,1-4.49,2A4.45,4.45,0,0,1,374.18,70Zm7.15-3.89a.13.13,0,0,0,.15-.15,4,4,0,0,0-.17-1.29,2.84,2.84,0,0,0-5.28,0,4,4,0,0,0-.17,1.29c0,.1.05.15.14.15Z"/><path d="M384.55,71.34a.23.23,0,0,1,0-.34l1-1a.23.23,0,0,1,.34,0,5.6,5.6,0,0,0,3.55,1.32c1.68,0,2.52-.73,2.52-1.76s-.43-1.41-2.23-1.61l-1.23-.11c-2.25-.25-3.43-1.37-3.43-3.25,0-2.18,1.56-3.5,4.27-3.5a6.88,6.88,0,0,1,4.08,1.27.24.24,0,0,1,.05.34l-.81,1a.24.24,0,0,1-.34,0,6,6,0,0,0-3.1-.94c-1.44,0-2.18.65-2.18,1.59s.55,1.39,2.26,1.56l1.2.12c2.32.21,3.45,1.39,3.45,3.24,0,2.25-1.63,3.77-4.63,3.77A7.16,7.16,0,0,1,384.55,71.34Z"/><path d="M395.37,70.5a.23.23,0,0,1,.24-.24h1.82a.22.22,0,0,1,.24.24v2.06a.22.22,0,0,1-.24.24h-1.82a.23.23,0,0,1-.24-.24Z"/></g></g></svg>