<svg xmlns="http://www.w3.org/2000/svg" viewBox="0 0 629.72 47.41"><title>3c</title><g id="Capa_2" data-name="Capa 2"><g id="respuestas_contorno" data-name="respuestas contorno"><path d="M0,7.72a12.45,12.45,0,0,1,.4-4.2A4.81,4.81,0,0,1,5.37,0a5,5,0,0,1,4.8,3,.22.22,0,0,1-.09.29l-1.32.64a.22.22,0,0,1-.31-.11,3.26,3.26,0,0,0-3.08-2A3,3,0,0,0,2.27,4,12,12,0,0,0,2,7.72a12.12,12.12,0,0,0,.29,3.7,3,3,0,0,0,3.1,2.2,3.27,3.27,0,0,0,3.08-2,.22.22,0,0,1,.31-.11l1.32.64a.21.21,0,0,1,.09.28,5,5,0,0,1-4.8,3,4.81,4.81,0,0,1-5-3.52A12.48,12.48,0,0,1,0,7.72Z"/><path d="M11.77,12.61a8,8,0,0,1-.35-2.69,7.92,7.92,0,0,1,.35-2.66,4.08,4.08,0,0,1,4.16-2.84,4.09,4.09,0,0,1,4.16,2.84,7.92,7.92,0,0,1,.35,2.66,8,8,0,0,1-.35,2.69,4.12,4.12,0,0,1-4.16,2.84A4.1,4.1,0,0,1,11.77,12.61Zm6.53-.53a6.73,6.73,0,0,0,.25-2.16,6.57,6.57,0,0,0-.25-2.13,2.34,2.34,0,0,0-2.37-1.65,2.34,2.34,0,0,0-2.38,1.65,6.91,6.91,0,0,0-.24,2.13,7.09,7.09,0,0,0,.24,2.16,2.34,2.34,0,0,0,2.38,1.65A2.34,2.34,0,0,0,18.3,12.08Z"/><path d="M29.37,15.2a.2.2,0,0,1-.22-.22V8.82c0-1.69-.77-2.68-2.35-2.68a2.36,2.36,0,0,0-2.42,2.57V15a.2.2,0,0,1-.22.22H22.75a.2.2,0,0,1-.22-.22V4.88a.2.2,0,0,1,.22-.21h1.41a.2.2,0,0,1,.22.21v1h0a3.34,3.34,0,0,1,3-1.43C29.63,4.42,31,6,31,8.38V15a.2.2,0,0,1-.22.22Z"/><path d="M37.73,12.59a8.36,8.36,0,0,1-.35-2.67,8.17,8.17,0,0,1,.33-2.66,4.07,4.07,0,0,1,4.13-2.84A4.08,4.08,0,0,1,46,7.26a9.21,9.21,0,0,1,.33,3,.22.22,0,0,1-.24.22H39.4c-.09,0-.13,0-.13.13a3.9,3.9,0,0,0,.18,1.27,2.6,2.6,0,0,0,2.66,1.83,3.43,3.43,0,0,0,2.7-1.17.22.22,0,0,1,.33,0l.91.81a.2.2,0,0,1,0,.31A5.13,5.13,0,0,1,42,15.45,4.08,4.08,0,0,1,37.73,12.59ZM44.29,9a.12.12,0,0,0,.13-.13,3.72,3.72,0,0,0-.16-1.19,2.6,2.6,0,0,0-4.84,0,3.75,3.75,0,0,0-.15,1.19c0,.09,0,.13.13.13Z"/><path d="M50.93,15.31c-1.85,0-2.57-.88-2.57-2.77V.46a.2.2,0,0,1,.22-.22H50a.2.2,0,0,1,.22.22v12c0,.88.33,1.17,1.06,1.17h.42a.21.21,0,0,1,.22.22v1.27a.2.2,0,0,1-.22.22Z"/><path d="M58.58,15.2a.2.2,0,0,1-.22-.22V6.29a.12.12,0,0,0-.13-.13h-.9a.21.21,0,0,1-.22-.22V4.88a.2.2,0,0,1,.22-.21h.9c.09,0,.13,0,.13-.14v-.9c0-2.49,1-3.39,3.22-3.39h.81a.21.21,0,0,1,.22.22V1.74a.21.21,0,0,1-.22.22h-.57c-1.34,0-1.61.28-1.61,1.58v1a.12.12,0,0,0,.13.14h2a.2.2,0,0,1,.22.21V5.94a.21.21,0,0,1-.22.22h-2a.12.12,0,0,0-.13.13V15a.2.2,0,0,1-.22.22ZM65.19,2.29A.2.2,0,0,1,65,2.07V.46a.2.2,0,0,1,.22-.22h1.49a.21.21,0,0,1,.22.22V2.07a.21.21,0,0,1-.22.22Zm0,12.91A.2.2,0,0,1,65,15V4.88a.2.2,0,0,1,.22-.21h1.41a.2.2,0,0,1,.22.21V15a.2.2,0,0,1-.22.22Z"/><path d="M76.43,15.2a.2.2,0,0,1-.22-.22V8.82c0-1.69-.77-2.68-2.36-2.68a2.36,2.36,0,0,0-2.42,2.57V15a.2.2,0,0,1-.22.22H69.8a.2.2,0,0,1-.22-.22V4.88a.2.2,0,0,1,.22-.21h1.41a.2.2,0,0,1,.22.21v1h0a3.35,3.35,0,0,1,3-1.43c2.29,0,3.66,1.57,3.66,4V15a.2.2,0,0,1-.22.22Z"/><path d="M91.67,15.2a.2.2,0,0,1-.22-.22V14h0a3.21,3.21,0,0,1-3,1.48,3.48,3.48,0,0,1-3.63-2.53,8.72,8.72,0,0,1-.38-3,8.64,8.64,0,0,1,.38-3,3.48,3.48,0,0,1,3.63-2.53,3.2,3.2,0,0,1,3,1.46h0V.46a.21.21,0,0,1,.22-.22h1.41a.21.21,0,0,1,.22.22V15a.2.2,0,0,1-.22.22Zm-.46-3.08a6.63,6.63,0,0,0,.24-2.2,6.79,6.79,0,0,0-.24-2.2,2.49,2.49,0,0,0-4.64,0,7.43,7.43,0,0,0-.24,2.2,7.18,7.18,0,0,0,.24,2.2,2.48,2.48,0,0,0,4.64,0Z"/><path d="M95.74,12.59a8.36,8.36,0,0,1-.35-2.67,8.17,8.17,0,0,1,.33-2.66,4.43,4.43,0,0,1,8.27,0,9.21,9.21,0,0,1,.33,3,.22.22,0,0,1-.24.22H97.41a.12.12,0,0,0-.13.13,3.9,3.9,0,0,0,.18,1.27,2.6,2.6,0,0,0,2.66,1.83,3.47,3.47,0,0,0,2.71-1.17.22.22,0,0,1,.33,0l.9.81a.2.2,0,0,1,0,.31A5.11,5.11,0,0,1,100,15.45,4.08,4.08,0,0,1,95.74,12.59ZM102.3,9c.09,0,.13,0,.13-.13a3.75,3.75,0,0,0-.15-1.19,2.6,2.6,0,0,0-4.84,0,3.72,3.72,0,0,0-.16,1.19.12.12,0,0,0,.13.13Z"/><path d="M110.86.46a.2.2,0,0,1,.22-.22h1.4a.37.37,0,0,1,.38.22l6.77,11.22h.09V.46a.21.21,0,0,1,.22-.22h1.39a.21.21,0,0,1,.22.22V15a.2.2,0,0,1-.22.22h-1.41a.36.36,0,0,1-.37-.22l-6.8-11.17h-.07V15a.2.2,0,0,1-.22.22h-1.38a.2.2,0,0,1-.22-.22Z"/><path d="M124.23,12a13,13,0,0,1-.4-4.23,13,13,0,0,1,.4-4.22,5.46,5.46,0,0,1,10.19,0,12.77,12.77,0,0,1,.39,4.22,12.81,12.81,0,0,1-.39,4.23,5.46,5.46,0,0,1-10.19,0Zm8.27-.55a12.7,12.7,0,0,0,.33-3.68,12.66,12.66,0,0,0-.33-3.67,3.38,3.38,0,0,0-6.35,0,12.66,12.66,0,0,0-.33,3.67,12.7,12.7,0,0,0,.33,3.68,3.38,3.38,0,0,0,6.35,0Z"/><path d="M141.68,15.2a.2.2,0,0,1-.22-.22V4.88a.2.2,0,0,1,.22-.21h1.4a.2.2,0,0,1,.22.21V6h0a2.93,2.93,0,0,1,2.79-1.54,3.26,3.26,0,0,1,2.16.79c.11.12.13.2,0,.31l-.81,1.08a.21.21,0,0,1-.31.05,3,3,0,0,0-1.63-.51c-1.61,0-2.27,1.25-2.27,3.08V15a.2.2,0,0,1-.22.22Z"/><path d="M148.91,12.59a8.36,8.36,0,0,1-.35-2.67,8.17,8.17,0,0,1,.33-2.66,4.44,4.44,0,0,1,8.28,0,9.5,9.5,0,0,1,.33,3,.22.22,0,0,1-.25.22h-6.66c-.09,0-.14,0-.14.13a3.9,3.9,0,0,0,.18,1.27,2.6,2.6,0,0,0,2.66,1.83A3.44,3.44,0,0,0,156,12.56a.22.22,0,0,1,.33,0l.9.81a.2.2,0,0,1,0,.31,5.1,5.1,0,0,1-4.11,1.81A4.09,4.09,0,0,1,148.91,12.59ZM155.47,9c.09,0,.13,0,.13-.13a3.75,3.75,0,0,0-.15-1.19,2.6,2.6,0,0,0-4.84,0,3.72,3.72,0,0,0-.16,1.19c0,.09.05.13.14.13Z"/><path d="M166,15.2a.2.2,0,0,1-.21-.22v-.92h0a3.46,3.46,0,0,1-3.12,1.39c-2,0-3.54-1-3.54-3.17S160.6,9,163.17,9h2.4c.09,0,.13,0,.13-.13V8.12c0-1.45-.57-2.07-2.53-2.07a4.07,4.07,0,0,0-2.55.75.2.2,0,0,1-.31,0l-.59-1a.23.23,0,0,1,0-.31,5.81,5.81,0,0,1,3.59-1c3,0,4.13,1,4.13,3.59v7a.2.2,0,0,1-.22.22Zm-.26-3.41V10.63c0-.09,0-.13-.13-.13h-2.11c-1.83,0-2.62.52-2.62,1.71s.79,1.65,2.2,1.65C164.69,13.86,165.7,13.09,165.7,11.79Z"/><path d="M172.65,15.31c-1.85,0-2.57-.88-2.57-2.77V.46a.21.21,0,0,1,.22-.22h1.41a.21.21,0,0,1,.22.22v12c0,.88.33,1.17,1,1.17h.42a.21.21,0,0,1,.22.22v1.27a.2.2,0,0,1-.22.22Z"/><path d="M175.51,2.29a.21.21,0,0,1-.22-.22V.46a.21.21,0,0,1,.22-.22H177a.21.21,0,0,1,.22.22V2.07a.21.21,0,0,1-.22.22Zm.05,12.91a.21.21,0,0,1-.23-.22V4.88a.21.21,0,0,1,.23-.21H177a.2.2,0,0,1,.22.21V15a.2.2,0,0,1-.22.22Z"/><path d="M179.54,15.2a.2.2,0,0,1-.22-.22V13.82a.3.3,0,0,1,.09-.24l5.78-7.2v0h-5.37a.21.21,0,0,1-.22-.22V4.88a.2.2,0,0,1,.22-.21h7.35a.2.2,0,0,1,.22.21V6.12a.32.32,0,0,1-.09.24l-5.74,7.13v0h5.61a.21.21,0,0,1,.22.22V15a.2.2,0,0,1-.22.22Z"/><path d="M195.91,15.2a.2.2,0,0,1-.22-.22v-.92h0a3.44,3.44,0,0,1-3.12,1.39c-2,0-3.54-1-3.54-3.17S190.54,9,193.11,9h2.4c.09,0,.13,0,.13-.13V8.12c0-1.45-.57-2.07-2.53-2.07a4.07,4.07,0,0,0-2.55.75.2.2,0,0,1-.31,0l-.59-1a.23.23,0,0,1,0-.31,5.81,5.81,0,0,1,3.59-1c3,0,4.13,1,4.13,3.59v7a.2.2,0,0,1-.22.22Zm-.27-3.41V10.63c0-.09,0-.13-.13-.13H193.4c-1.83,0-2.62.52-2.62,1.71s.79,1.65,2.2,1.65C194.63,13.86,195.64,13.09,195.64,11.79Z"/><path d="M200.28,15.2a.2.2,0,0,1-.22-.22V4.88a.2.2,0,0,1,.22-.21h1.41a.2.2,0,0,1,.22.21V6h0a2.94,2.94,0,0,1,2.8-1.54,3.24,3.24,0,0,1,2.15.79c.11.12.14.2.05.31l-.82,1.08a.21.21,0,0,1-.31.05,2.93,2.93,0,0,0-1.62-.51c-1.61,0-2.27,1.25-2.27,3.08V15a.2.2,0,0,1-.22.22Z"/><path d="M219.2,15.2A.2.2,0,0,1,219,15V14h0a3.2,3.2,0,0,1-3,1.48,3.48,3.48,0,0,1-3.63-2.53,8.72,8.72,0,0,1-.38-3,8.64,8.64,0,0,1,.38-3A3.48,3.48,0,0,1,216,4.42a3.19,3.19,0,0,1,3,1.46h0V.46a.21.21,0,0,1,.22-.22h1.41a.21.21,0,0,1,.22.22V15a.2.2,0,0,1-.22.22Zm-.46-3.08a6.63,6.63,0,0,0,.24-2.2,6.79,6.79,0,0,0-.24-2.2,2.49,2.49,0,0,0-4.64,0,7.43,7.43,0,0,0-.24,2.2,7.18,7.18,0,0,0,.24,2.2,2.48,2.48,0,0,0,4.64,0Z"/><path d="M223.27,12.59a8.36,8.36,0,0,1-.35-2.67,8.17,8.17,0,0,1,.33-2.66,4.43,4.43,0,0,1,8.27,0,9.21,9.21,0,0,1,.33,3,.22.22,0,0,1-.24.22h-6.67a.12.12,0,0,0-.13.13A3.9,3.9,0,0,0,225,11.9a2.6,2.6,0,0,0,2.66,1.83,3.46,3.46,0,0,0,2.71-1.17.22.22,0,0,1,.33,0l.9.81a.2.2,0,0,1,0,.31,5.11,5.11,0,0,1-4.11,1.81A4.08,4.08,0,0,1,223.27,12.59ZM229.83,9c.09,0,.13,0,.13-.13a3.75,3.75,0,0,0-.15-1.19,2.6,2.6,0,0,0-4.84,0,3.72,3.72,0,0,0-.16,1.19.12.12,0,0,0,.13.13Z"/><path d="M233.21,13.86a.23.23,0,0,1,0-.31l.91-1a.2.2,0,0,1,.3,0,5.17,5.17,0,0,0,3.26,1.21c1.54,0,2.31-.66,2.31-1.61s-.39-1.3-2-1.47l-1.13-.11c-2.07-.22-3.14-1.26-3.14-3,0-2,1.43-3.22,3.91-3.22a6.3,6.3,0,0,1,3.74,1.17.22.22,0,0,1,0,.31l-.75.94a.22.22,0,0,1-.31,0A5.54,5.54,0,0,0,237.48,6c-1.32,0-2,.59-2,1.45s.51,1.28,2.07,1.43l1.1.11c2.13.2,3.17,1.28,3.17,3,0,2.07-1.5,3.46-4.25,3.46A6.57,6.57,0,0,1,233.21,13.86Z"/><path d="M244.06,19.17a.21.21,0,0,1-.22-.22V4.88a.2.2,0,0,1,.22-.21h1.41a.2.2,0,0,1,.22.21v1h0a3.2,3.2,0,0,1,3-1.46A3.48,3.48,0,0,1,252.33,7a8.64,8.64,0,0,1,.38,3,8.72,8.72,0,0,1-.38,3,3.48,3.48,0,0,1-3.63,2.53,3.21,3.21,0,0,1-3-1.48h0v5a.21.21,0,0,1-.22.22Zm6.51-7.05a7.14,7.14,0,0,0,.25-2.2,7.39,7.39,0,0,0-.25-2.2,2.49,2.49,0,0,0-4.64,0,7.08,7.08,0,0,0-.24,2.2,6.92,6.92,0,0,0,.24,2.2,2.48,2.48,0,0,0,4.64,0Z"/><path d="M257.33,15.31c-1.85,0-2.58-.88-2.58-2.77V.46A.21.21,0,0,1,255,.24h1.41a.21.21,0,0,1,.22.22v12c0,.88.33,1.17,1.06,1.17h.42a.21.21,0,0,1,.22.22v1.27a.2.2,0,0,1-.22.22Z"/><path d="M266.39,15.2a.2.2,0,0,1-.22-.22v-.92h0A3.46,3.46,0,0,1,263,15.45c-2,0-3.55-1-3.55-3.17S261,9,263.6,9H266a.12.12,0,0,0,.13-.13V8.12c0-1.45-.57-2.07-2.53-2.07A4.13,4.13,0,0,0,261,6.8a.19.19,0,0,1-.3,0l-.6-1a.24.24,0,0,1,.05-.31,5.8,5.8,0,0,1,3.58-1c3,0,4.14,1,4.14,3.59v7a.2.2,0,0,1-.22.22Zm-.26-3.41V10.63a.12.12,0,0,0-.13-.13h-2.12c-1.82,0-2.61.52-2.61,1.71s.79,1.65,2.2,1.65C265.12,13.86,266.13,13.09,266.13,11.79Z"/><path d="M270.17,15.2A.2.2,0,0,1,270,15V13.82a.33.33,0,0,1,.08-.24l5.79-7.2v0h-5.37a.21.21,0,0,1-.22-.22V4.88a.2.2,0,0,1,.22-.21h7.35a.2.2,0,0,1,.22.21V6.12a.32.32,0,0,1-.09.24l-5.74,7.13v0h5.61a.21.21,0,0,1,.22.22V15a.2.2,0,0,1-.22.22Z"/><path d="M286.54,15.2a.2.2,0,0,1-.22-.22v-.92h0a3.46,3.46,0,0,1-3.12,1.39c-2,0-3.55-1-3.55-3.17S281.17,9,283.75,9h2.4c.09,0,.13,0,.13-.13V8.12c0-1.45-.57-2.07-2.53-2.07a4.07,4.07,0,0,0-2.55.75c-.11.09-.25.09-.31,0l-.6-1a.24.24,0,0,1,0-.31,5.8,5.8,0,0,1,3.58-1c3,0,4.14,1,4.14,3.59v7a.2.2,0,0,1-.22.22Zm-.26-3.41V10.63c0-.09,0-.13-.13-.13H284c-1.83,0-2.62.52-2.62,1.71s.79,1.65,2.2,1.65C285.27,13.86,286.28,13.09,286.28,11.79Z"/><path d="M304.17,15.2A.2.2,0,0,1,304,15V8.82c0-1.69-.77-2.68-2.36-2.68a2.37,2.37,0,0,0-2.42,2.57V15a.2.2,0,0,1-.22.22h-1.41a.2.2,0,0,1-.22-.22V8.82c0-1.69-.77-2.68-2.35-2.68a2.36,2.36,0,0,0-2.42,2.57V15a.2.2,0,0,1-.22.22h-1.41a.2.2,0,0,1-.22-.22V4.88a.2.2,0,0,1,.22-.21h1.41a.2.2,0,0,1,.22.21v1h0a3.73,3.73,0,0,1,6,.22h0A3.94,3.94,0,0,1,302,4.42c2.44,0,3.76,1.57,3.76,4V15a.2.2,0,0,1-.22.22Z"/><path d="M308.59,2.29a.2.2,0,0,1-.22-.22V.46a.2.2,0,0,1,.22-.22h1.49a.21.21,0,0,1,.22.22V2.07a.21.21,0,0,1-.22.22Zm0,12.91a.2.2,0,0,1-.22-.22V4.88a.2.2,0,0,1,.22-.21H310a.2.2,0,0,1,.22.21V15a.2.2,0,0,1-.22.22Z"/><path d="M312.7,12.59a8.36,8.36,0,0,1-.35-2.67,8.17,8.17,0,0,1,.33-2.66,4.43,4.43,0,0,1,8.27,0,9.21,9.21,0,0,1,.33,3,.22.22,0,0,1-.24.22h-6.67c-.09,0-.13,0-.13.13a3.9,3.9,0,0,0,.18,1.27,2.6,2.6,0,0,0,2.66,1.83,3.47,3.47,0,0,0,2.71-1.17.22.22,0,0,1,.33,0l.9.81a.2.2,0,0,1,0,.31,5.13,5.13,0,0,1-4.12,1.81A4.08,4.08,0,0,1,312.7,12.59ZM319.26,9a.12.12,0,0,0,.13-.13,4.06,4.06,0,0,0-.15-1.19,2.61,2.61,0,0,0-4.85,0,3.75,3.75,0,0,0-.15,1.19c0,.09,0,.13.13.13Z"/><path d="M330.21,15.2A.2.2,0,0,1,330,15V8.82c0-1.69-.77-2.68-2.35-2.68a2.36,2.36,0,0,0-2.42,2.57V15a.2.2,0,0,1-.22.22h-1.41a.2.2,0,0,1-.22-.22V4.88a.2.2,0,0,1,.22-.21H325a.2.2,0,0,1,.22.21v1h0a3.35,3.35,0,0,1,2.95-1.43c2.29,0,3.65,1.57,3.65,4V15a.2.2,0,0,1-.22.22Z"/><path d="M337.52,15.31c-2,0-2.84-.92-2.84-3v-6a.12.12,0,0,0-.14-.13h-.87a.2.2,0,0,1-.22-.22V4.88a.2.2,0,0,1,.22-.21h.87a.13.13,0,0,0,.14-.14v-3a.21.21,0,0,1,.22-.22h1.41a.21.21,0,0,1,.22.22v3c0,.09,0,.14.13.14h1.67a.2.2,0,0,1,.22.21V5.94a.21.21,0,0,1-.22.22h-1.67a.12.12,0,0,0-.13.13v6c0,1.05.39,1.34,1.34,1.34h.46a.21.21,0,0,1,.22.22v1.27a.2.2,0,0,1-.22.22Z"/><path d="M340.24,12.61a8,8,0,0,1-.35-2.69,7.92,7.92,0,0,1,.35-2.66,4.47,4.47,0,0,1,8.32,0,7.92,7.92,0,0,1,.35,2.66,8,8,0,0,1-.35,2.69,4.47,4.47,0,0,1-8.32,0Zm6.54-.53A7.09,7.09,0,0,0,347,9.92a6.91,6.91,0,0,0-.24-2.13,2.53,2.53,0,0,0-4.75,0,6.57,6.57,0,0,0-.25,2.13,6.73,6.73,0,0,0,.25,2.16,2.53,2.53,0,0,0,4.75,0Z"/><path d="M362,15.2a.2.2,0,0,1-.22-.22V14h0a3.21,3.21,0,0,1-3,1.48,3.48,3.48,0,0,1-3.63-2.53,8.72,8.72,0,0,1-.38-3,8.64,8.64,0,0,1,.38-3,3.48,3.48,0,0,1,3.63-2.53,3.2,3.2,0,0,1,3,1.46h0V.46A.21.21,0,0,1,362,.24h1.41a.21.21,0,0,1,.22.22V15a.2.2,0,0,1-.22.22Zm-.46-3.08a6.92,6.92,0,0,0,.24-2.2,7.08,7.08,0,0,0-.24-2.2,2.49,2.49,0,0,0-4.64,0,7.39,7.39,0,0,0-.25,2.2,7.14,7.14,0,0,0,.25,2.2,2.48,2.48,0,0,0,4.64,0Z"/><path d="M366.07,12.59a8.36,8.36,0,0,1-.35-2.67,8.17,8.17,0,0,1,.33-2.66,4.43,4.43,0,0,1,8.27,0,9.21,9.21,0,0,1,.33,3,.22.22,0,0,1-.24.22h-6.67c-.09,0-.13,0-.13.13a3.9,3.9,0,0,0,.18,1.27,2.6,2.6,0,0,0,2.66,1.83,3.47,3.47,0,0,0,2.71-1.17.22.22,0,0,1,.33,0l.9.81a.2.2,0,0,1,0,.31,5.13,5.13,0,0,1-4.12,1.81A4.08,4.08,0,0,1,366.07,12.59ZM372.63,9a.12.12,0,0,0,.13-.13,4.06,4.06,0,0,0-.15-1.19,2.61,2.61,0,0,0-4.85,0,3.75,3.75,0,0,0-.15,1.19c0,.09,0,.13.13.13Z"/><path d="M381.18.46a.21.21,0,0,1,.22-.22h1.52a.21.21,0,0,1,.22.22V6.6a.12.12,0,0,0,.13.13h6.5a.12.12,0,0,0,.13-.13V.46a.21.21,0,0,1,.22-.22h1.52a.21.21,0,0,1,.22.22V15a.2.2,0,0,1-.22.22h-1.52a.2.2,0,0,1-.22-.22V8.69a.12.12,0,0,0-.13-.13h-6.5a.12.12,0,0,0-.13.13V15a.2.2,0,0,1-.22.22H381.4a.2.2,0,0,1-.22-.22Z"/><path d="M394.34,12.59A8.36,8.36,0,0,1,394,9.92a8.17,8.17,0,0,1,.33-2.66,4.43,4.43,0,0,1,8.27,0,9.21,9.21,0,0,1,.33,3,.22.22,0,0,1-.24.22H396c-.09,0-.13,0-.13.13a3.9,3.9,0,0,0,.18,1.27,2.6,2.6,0,0,0,2.66,1.83,3.43,3.43,0,0,0,2.7-1.17c.12-.11.22-.13.33,0l.91.81a.2.2,0,0,1,0,.31,5.13,5.13,0,0,1-4.12,1.81A4.08,4.08,0,0,1,394.34,12.59ZM400.9,9a.12.12,0,0,0,.13-.13,4.06,4.06,0,0,0-.15-1.19,2.61,2.61,0,0,0-4.85,0,3.75,3.75,0,0,0-.15,1.19c0,.09,0,.13.13.13Z"/><path d="M405.23,15.2A.2.2,0,0,1,405,15V4.88a.2.2,0,0,1,.22-.21h1.41a.2.2,0,0,1,.22.21V6h0a2.94,2.94,0,0,1,2.79-1.54,3.26,3.26,0,0,1,2.16.79c.11.12.13.2.05.31l-.82,1.08a.21.21,0,0,1-.31.05,2.94,2.94,0,0,0-1.63-.51c-1.6,0-2.26,1.25-2.26,3.08V15a.2.2,0,0,1-.22.22Z"/><path d="M413.37,15.2a.2.2,0,0,1-.22-.22V4.88a.2.2,0,0,1,.22-.21h1.41a.2.2,0,0,1,.22.21V6h0a2.94,2.94,0,0,1,2.79-1.54,3.26,3.26,0,0,1,2.16.79c.11.12.13.2,0,.31L419.2,6.6a.21.21,0,0,1-.31.05,2.94,2.94,0,0,0-1.63-.51c-1.6,0-2.26,1.25-2.26,3.08V15a.2.2,0,0,1-.22.22Z"/><path d="M427.14,15.2a.2.2,0,0,1-.22-.22v-.92h0a3.46,3.46,0,0,1-3.12,1.39c-2,0-3.55-1-3.55-3.17S421.77,9,424.35,9h2.4a.12.12,0,0,0,.13-.13V8.12c0-1.45-.57-2.07-2.53-2.07a4.07,4.07,0,0,0-2.55.75c-.11.09-.25.09-.31,0l-.6-1a.24.24,0,0,1,.05-.31,5.8,5.8,0,0,1,3.58-1c3,0,4.14,1,4.14,3.59v7a.2.2,0,0,1-.22.22Zm-.26-3.41V10.63a.12.12,0,0,0-.13-.13h-2.12c-1.82,0-2.61.52-2.61,1.71s.79,1.65,2.2,1.65C425.87,13.86,426.88,13.09,426.88,11.79Z"/><path d="M444.76,15.2a.2.2,0,0,1-.22-.22V8.82c0-1.69-.76-2.68-2.35-2.68a2.37,2.37,0,0,0-2.42,2.57V15a.2.2,0,0,1-.22.22h-1.41a.2.2,0,0,1-.22-.22V8.82c0-1.69-.77-2.68-2.35-2.68a2.36,2.36,0,0,0-2.42,2.57V15a.2.2,0,0,1-.22.22h-1.41a.2.2,0,0,1-.22-.22V4.88a.2.2,0,0,1,.22-.21h1.41a.2.2,0,0,1,.22.21v1h0a3.73,3.73,0,0,1,6,.22h0a3.93,3.93,0,0,1,3.41-1.65c2.44,0,3.76,1.57,3.76,4V15a.2.2,0,0,1-.22.22Z"/><path d="M449.19,2.29a.21.21,0,0,1-.23-.22V.46a.21.21,0,0,1,.23-.22h1.49a.21.21,0,0,1,.22.22V2.07a.21.21,0,0,1-.22.22Zm0,12.91A.2.2,0,0,1,449,15V4.88a.2.2,0,0,1,.22-.21h1.41a.2.2,0,0,1,.22.21V15a.2.2,0,0,1-.22.22Z"/><path d="M453.3,12.59A8.36,8.36,0,0,1,453,9.92a8.17,8.17,0,0,1,.33-2.66,4.43,4.43,0,0,1,8.27,0,9.21,9.21,0,0,1,.33,3,.22.22,0,0,1-.24.22H455c-.09,0-.13,0-.13.13A4.23,4.23,0,0,0,455,11.9a2.62,2.62,0,0,0,2.67,1.83,3.43,3.43,0,0,0,2.7-1.17.22.22,0,0,1,.33,0l.91.81a.2.2,0,0,1,0,.31,5.13,5.13,0,0,1-4.12,1.81A4.08,4.08,0,0,1,453.3,12.59ZM459.86,9a.12.12,0,0,0,.13-.13,3.72,3.72,0,0,0-.16-1.19,2.6,2.6,0,0,0-4.84,0,3.75,3.75,0,0,0-.15,1.19c0,.09,0,.13.13.13Z"/><path d="M470.81,15.2a.2.2,0,0,1-.22-.22V8.82c0-1.69-.77-2.68-2.35-2.68a2.36,2.36,0,0,0-2.42,2.57V15a.2.2,0,0,1-.22.22h-1.41A.2.2,0,0,1,464,15V4.88a.2.2,0,0,1,.22-.21h1.41a.2.2,0,0,1,.22.21v1h0a3.34,3.34,0,0,1,3-1.43c2.29,0,3.65,1.57,3.65,4V15a.2.2,0,0,1-.22.22Z"/><path d="M478.11,15.31c-2,0-2.83-.92-2.83-3v-6a.12.12,0,0,0-.14-.13h-.88a.21.21,0,0,1-.22-.22V4.88a.2.2,0,0,1,.22-.21h.88a.13.13,0,0,0,.14-.14v-3a.2.2,0,0,1,.22-.22h1.4a.2.2,0,0,1,.22.22v3a.13.13,0,0,0,.14.14h1.67a.2.2,0,0,1,.22.21V5.94a.21.21,0,0,1-.22.22h-1.67a.12.12,0,0,0-.14.13v6c0,1.05.4,1.34,1.35,1.34h.46a.21.21,0,0,1,.22.22v1.27a.2.2,0,0,1-.22.22Z"/><path d="M487.51,15.2a.2.2,0,0,1-.22-.22v-.92h0a3.47,3.47,0,0,1-3.13,1.39c-2,0-3.54-1-3.54-3.17S482.14,9,484.71,9h2.4c.09,0,.13,0,.13-.13V8.12c0-1.45-.57-2.07-2.53-2.07a4.12,4.12,0,0,0-2.55.75.2.2,0,0,1-.31,0l-.59-1a.24.24,0,0,1,0-.31,5.85,5.85,0,0,1,3.59-1c3,0,4.14,1,4.14,3.59v7a.2.2,0,0,1-.22.22Zm-.27-3.41V10.63c0-.09,0-.13-.13-.13H485c-1.83,0-2.62.52-2.62,1.71s.79,1.65,2.2,1.65C486.23,13.86,487.24,13.09,487.24,11.79Z"/><path d="M490.94,13.86a.21.21,0,0,1,0-.31l.9-1a.21.21,0,0,1,.31,0,5.13,5.13,0,0,0,3.26,1.21c1.54,0,2.31-.66,2.31-1.61s-.4-1.3-2.05-1.47l-1.12-.11c-2.07-.22-3.15-1.26-3.15-3,0-2,1.43-3.22,3.92-3.22a6.3,6.3,0,0,1,3.74,1.17.21.21,0,0,1,0,.31l-.75.94a.21.21,0,0,1-.3,0A5.57,5.57,0,0,0,495.21,6c-1.32,0-2,.59-2,1.45s.5,1.28,2.06,1.43l1.1.11c2.14.2,3.17,1.28,3.17,3,0,2.07-1.49,3.46-4.24,3.46A6.55,6.55,0,0,1,490.94,13.86Z"/><path d="M501.52,12.87h1.54a.21.21,0,0,1,.22.22v2.05a.68.68,0,0,1-.13.48l-1.36,1.81a.35.35,0,0,1-.29.15.2.2,0,0,1-.2-.2V13.09A.21.21,0,0,1,501.52,12.87Z"/><path d="M509.4,12.59A8.32,8.32,0,0,1,509,9.92a8.12,8.12,0,0,1,.34-2.66,4.43,4.43,0,0,1,8.27,0,9.21,9.21,0,0,1,.33,3,.22.22,0,0,1-.24.22h-6.67c-.09,0-.13,0-.13.13a3.93,3.93,0,0,0,.17,1.27,2.62,2.62,0,0,0,2.67,1.83,3.43,3.43,0,0,0,2.7-1.17.22.22,0,0,1,.33,0l.9.81a.21.21,0,0,1,0,.31,5.13,5.13,0,0,1-4.12,1.81A4.08,4.08,0,0,1,509.4,12.59ZM516,9c.09,0,.14,0,.14-.13a3.72,3.72,0,0,0-.16-1.19,2.6,2.6,0,0,0-4.84,0,3.75,3.75,0,0,0-.15,1.19c0,.09,0,.13.13.13Z"/><path d="M526.67,19.17a.21.21,0,0,1-.22-.22V14h0a3.21,3.21,0,0,1-3,1.48,3.49,3.49,0,0,1-3.63-2.53,9,9,0,0,1-.37-3,8.92,8.92,0,0,1,.37-3,3.49,3.49,0,0,1,3.63-2.53,3.2,3.2,0,0,1,3,1.46h0v-1a.2.2,0,0,1,.22-.21h1.41a.2.2,0,0,1,.22.21V19a.21.21,0,0,1-.22.22Zm-.46-7.05a6.92,6.92,0,0,0,.24-2.2,7.08,7.08,0,0,0-.24-2.2,2.5,2.5,0,0,0-4.65,0,7.78,7.78,0,0,0-.24,2.2,7.51,7.51,0,0,0,.24,2.2,2.48,2.48,0,0,0,4.65,0Z"/><path d="M537.65,15.2a.2.2,0,0,1-.22-.22V14h0a3.21,3.21,0,0,1-2.88,1.46c-2.31,0-3.65-1.59-3.65-4V4.88a.2.2,0,0,1,.22-.21h1.41a.2.2,0,0,1,.22.21V11c0,1.72.77,2.71,2.33,2.71a2.34,2.34,0,0,0,2.38-2.6V4.88a.2.2,0,0,1,.22-.21h1.4a.2.2,0,0,1,.22.21V15a.2.2,0,0,1-.22.22Z"/><path d="M542.18,2.29a.2.2,0,0,1-.22-.22V.46a.2.2,0,0,1,.22-.22h1.49a.2.2,0,0,1,.22.22V2.07a.2.2,0,0,1-.22.22Zm0,12.91A.2.2,0,0,1,542,15V4.88a.2.2,0,0,1,.22-.21h1.41a.2.2,0,0,1,.22.21V15a.2.2,0,0,1-.22.22Z"/><path d="M546.8,19.17a.2.2,0,0,1-.22-.22V4.88a.2.2,0,0,1,.22-.21h1.41a.19.19,0,0,1,.21.21v1h0a3.18,3.18,0,0,1,3-1.46A3.48,3.48,0,0,1,555.07,7a8.67,8.67,0,0,1,.37,3,8.75,8.75,0,0,1-.37,3,3.48,3.48,0,0,1-3.63,2.53,3.19,3.19,0,0,1-3-1.48h0v5a.2.2,0,0,1-.21.22Zm6.51-7.05a7.18,7.18,0,0,0,.24-2.2,7.43,7.43,0,0,0-.24-2.2,2.49,2.49,0,0,0-4.64,0,6.73,6.73,0,0,0-.25,2.2,6.58,6.58,0,0,0,.25,2.2,2.48,2.48,0,0,0,4.64,0Z"/><path d="M557.25,12.61a7.71,7.71,0,0,1-.36-2.69,7.64,7.64,0,0,1,.36-2.66,4.46,4.46,0,0,1,8.31,0,7.64,7.64,0,0,1,.36,2.66,7.71,7.71,0,0,1-.36,2.69,4.46,4.46,0,0,1-8.31,0Zm6.53-.53A6.78,6.78,0,0,0,564,9.92a6.61,6.61,0,0,0-.24-2.13,2.53,2.53,0,0,0-4.75,0,6.61,6.61,0,0,0-.24,2.13,6.78,6.78,0,0,0,.24,2.16,2.53,2.53,0,0,0,4.75,0Z"/><path d="M567.28,13.86a.21.21,0,0,1,0-.31l.9-1a.21.21,0,0,1,.31,0,5.13,5.13,0,0,0,3.26,1.21c1.54,0,2.31-.66,2.31-1.61s-.4-1.3-2-1.47l-1.12-.11c-2.07-.22-3.15-1.26-3.15-3,0-2,1.43-3.22,3.92-3.22a6.3,6.3,0,0,1,3.74,1.17.21.21,0,0,1,0,.31l-.75.94a.21.21,0,0,1-.3,0A5.57,5.57,0,0,0,571.55,6c-1.32,0-2,.59-2,1.45s.51,1.28,2.07,1.43l1.1.11c2.14.2,3.17,1.28,3.17,3,0,2.07-1.49,3.46-4.25,3.46A6.54,6.54,0,0,1,567.28,13.86Z"/><path d="M582.39,19.17a.21.21,0,0,1-.22-.22V17.67a.21.21,0,0,1,.22-.22h.4c.86,0,1.32-.38,1.78-1.59l.35-1-3.87-10c0-.13,0-.21.18-.21h1.54a.25.25,0,0,1,.26.21l2.77,7.62h.05l2.66-7.62a.25.25,0,0,1,.26-.21h1.5c.13,0,.22.08.18.21L586.29,16c-.93,2.48-1.74,3.15-3.33,3.15Z"/><path d="M596.32.22A.28.28,0,0,1,596.6,0h1.19a.16.16,0,0,1,.16.22l-4.89,15a.28.28,0,0,1-.28.22h-1.17a.15.15,0,0,1-.15-.22Z"/><path d="M599.93,12.61a7.71,7.71,0,0,1-.36-2.69,7.64,7.64,0,0,1,.36-2.66,4.46,4.46,0,0,1,8.31,0,7.67,7.67,0,0,1,.35,2.66,7.75,7.75,0,0,1-.35,2.69,4.46,4.46,0,0,1-8.31,0Zm6.53-.53a6.78,6.78,0,0,0,.24-2.16,6.61,6.61,0,0,0-.24-2.13,2.53,2.53,0,0,0-4.75,0,6.61,6.61,0,0,0-.24,2.13,6.78,6.78,0,0,0,.24,2.16,2.53,2.53,0,0,0,4.75,0Z"/><path d="M.53,28.46a.21.21,0,0,1,.22-.22h9a.21.21,0,0,1,.22.22v1.39a.21.21,0,0,1-.22.22H2.62c-.09,0-.13,0-.13.13v4.4c0,.09,0,.13.13.13H8.67a.21.21,0,0,1,.22.22v1.39a.21.21,0,0,1-.22.22h-6c-.09,0-.13,0-.13.13v4.56a.12.12,0,0,0,.13.13H9.75a.21.21,0,0,1,.22.22V43a.2.2,0,0,1-.22.22h-9A.2.2,0,0,1,.53,43Z"/><path d="M12.25,43.2A.2.2,0,0,1,12,43V28.46a.21.21,0,0,1,.22-.22h5.33c2.88,0,4.75,1.76,4.75,4.47s-1.87,4.47-4.75,4.47H14.12a.12.12,0,0,0-.13.13V43a.2.2,0,0,1-.22.22ZM20.4,32.71c0-1.63-1.08-2.64-2.93-2.64H14.12a.12.12,0,0,0-.13.13v5a.12.12,0,0,0,.13.13h3.35C19.32,35.35,20.4,34.34,20.4,32.71Z"/><path d="M24.4,43.2a.2.2,0,0,1-.22-.22V28.46a.21.21,0,0,1,.22-.22h5.32c2.89,0,4.76,1.76,4.76,4.47s-1.87,4.47-4.76,4.47H26.27c-.09,0-.13,0-.13.13V43a.2.2,0,0,1-.22.22Zm8.14-10.49c0-1.63-1.08-2.64-2.93-2.64H26.27c-.09,0-.13,0-.13.13v5c0,.09,0,.13.13.13h3.34C31.46,35.35,32.54,34.34,32.54,32.71Z"/><path d="M54.14,43.2a.2.2,0,0,1-.22-.22V36.82c0-1.69-.77-2.68-2.35-2.68a2.37,2.37,0,0,0-2.42,2.57V43a.2.2,0,0,1-.22.22H47.52A.2.2,0,0,1,47.3,43V36.82c0-1.69-.77-2.68-2.35-2.68a2.36,2.36,0,0,0-2.42,2.57V43a.2.2,0,0,1-.22.22H40.9a.2.2,0,0,1-.22-.22V32.88a.2.2,0,0,1,.22-.21h1.41a.2.2,0,0,1,.22.21v1h0a3.73,3.73,0,0,1,6,.22h0A3.93,3.93,0,0,1,52,32.42c2.44,0,3.76,1.57,3.76,4V43a.2.2,0,0,1-.22.22Z"/><path d="M64.33,43.2a.2.2,0,0,1-.22-.22v-.92h0A3.47,3.47,0,0,1,61,43.45c-2,0-3.54-1-3.54-3.17S59,37,61.53,37h2.4c.09,0,.13,0,.13-.13v-.77c0-1.45-.57-2.07-2.53-2.07A4.12,4.12,0,0,0,59,34.8a.2.2,0,0,1-.31,0l-.59-1a.24.24,0,0,1,0-.31,5.85,5.85,0,0,1,3.59-1c3,0,4.14,1,4.14,3.59v7a.2.2,0,0,1-.22.22Zm-.27-3.41V38.63c0-.09,0-.13-.13-.13H61.82c-1.83,0-2.62.52-2.62,1.71s.79,1.65,2.2,1.65C63.05,41.86,64.06,41.09,64.06,39.79Z"/><path d="M74.89,43.2a.2.2,0,0,1-.22-.22V36.82c0-1.69-.77-2.68-2.36-2.68a2.36,2.36,0,0,0-2.42,2.57V43a.2.2,0,0,1-.22.22h-1.4A.21.21,0,0,1,68,43V32.88a.21.21,0,0,1,.23-.21h1.4a.2.2,0,0,1,.22.21v1h0a3.32,3.32,0,0,1,2.94-1.43c2.29,0,3.66,1.57,3.66,4V43a.2.2,0,0,1-.22.22Z"/><path d="M81.75,43.31c-2,0-2.84-.92-2.84-3v-6a.12.12,0,0,0-.13-.13H77.9a.21.21,0,0,1-.22-.22V32.88a.2.2,0,0,1,.22-.21h.88c.09,0,.13-.05.13-.14v-3a.21.21,0,0,1,.22-.22h1.41a.21.21,0,0,1,.22.22v3a.12.12,0,0,0,.13.14h1.68a.2.2,0,0,1,.22.21v1.06a.21.21,0,0,1-.22.22H80.89a.12.12,0,0,0-.13.13v6c0,1.05.4,1.34,1.34,1.34h.47a.21.21,0,0,1,.22.22v1.27a.2.2,0,0,1-.22.22Z"/><path d="M84,40.59a8.36,8.36,0,0,1-.35-2.67A8.17,8.17,0,0,1,84,35.26a4.43,4.43,0,0,1,8.27,0,9.21,9.21,0,0,1,.33,3,.22.22,0,0,1-.24.22H85.71c-.09,0-.13,0-.13.13a4.23,4.23,0,0,0,.17,1.27,2.62,2.62,0,0,0,2.67,1.83,3.43,3.43,0,0,0,2.7-1.17.22.22,0,0,1,.33,0l.91.81a.2.2,0,0,1,0,.31,5.13,5.13,0,0,1-4.12,1.81A4.08,4.08,0,0,1,84,40.59ZM90.6,37a.12.12,0,0,0,.13-.13,3.72,3.72,0,0,0-.16-1.19,2.6,2.6,0,0,0-4.84,0,3.75,3.75,0,0,0-.15,1.19c0,.09,0,.13.13.13Z"/><path d="M101.11,43.2a.2.2,0,0,1-.22-.22V36.82c0-1.69-.77-2.68-2.35-2.68a2.36,2.36,0,0,0-2.42,2.57V43a.2.2,0,0,1-.22.22H94.49a.2.2,0,0,1-.22-.22V32.88a.2.2,0,0,1,.22-.21H95.9a.2.2,0,0,1,.22.21v1h0a3.34,3.34,0,0,1,3-1.43c2.29,0,3.65,1.57,3.65,4V43a.2.2,0,0,1-.22.22Z"/><path d="M104.7,45.84a.19.19,0,0,1,0-.3l.9-.91a.21.21,0,0,1,.33,0,3.52,3.52,0,0,0,2.49,1.06c1.73,0,2.66-.9,2.66-2.84V41.62h0a3,3,0,0,1-2.93,1.45,3.45,3.45,0,0,1-3.54-2.55,8.08,8.08,0,0,1-.35-2.77,8.08,8.08,0,0,1,.35-2.77,3.46,3.46,0,0,1,3.54-2.56,3,3,0,0,1,2.93,1.46h0v-1a.2.2,0,0,1,.22-.21h1.41a.2.2,0,0,1,.22.21v9.86c0,3-1.63,4.67-4.6,4.67A4.74,4.74,0,0,1,104.7,45.84Zm6.16-6.05a6.52,6.52,0,0,0,.24-2,6.72,6.72,0,0,0-.24-2,2.38,2.38,0,0,0-4.47,0,6.51,6.51,0,0,0-.26,2,6.32,6.32,0,0,0,.26,2,2.15,2.15,0,0,0,2.22,1.59A2.19,2.19,0,0,0,110.86,39.79Z"/><path d="M121.62,43.2a.2.2,0,0,1-.22-.22v-.92h0a3.46,3.46,0,0,1-3.12,1.39c-2,0-3.54-1-3.54-3.17S116.25,37,118.82,37h2.4c.09,0,.13,0,.13-.13v-.77c0-1.45-.57-2.07-2.53-2.07a4.07,4.07,0,0,0-2.55.75.2.2,0,0,1-.31,0l-.59-1a.23.23,0,0,1,0-.31,5.81,5.81,0,0,1,3.59-1c3,0,4.13,1,4.13,3.59v7a.2.2,0,0,1-.22.22Zm-.27-3.41V38.63c0-.09,0-.13-.13-.13h-2.11c-1.83,0-2.62.52-2.62,1.71s.79,1.65,2.2,1.65C120.34,41.86,121.35,41.09,121.35,39.79Z"/><path d="M131.82,43.31c-1.85,0-2.57-.88-2.57-2.77V28.46a.21.21,0,0,1,.22-.22h1.41a.21.21,0,0,1,.22.22v12c0,.88.33,1.17,1.05,1.17h.42a.21.21,0,0,1,.22.22v1.27a.2.2,0,0,1-.22.22Z"/><path d="M133.78,40.61a8,8,0,0,1-.35-2.69,7.92,7.92,0,0,1,.35-2.66,4.47,4.47,0,0,1,8.32,0,7.92,7.92,0,0,1,.35,2.66,8,8,0,0,1-.35,2.69,4.47,4.47,0,0,1-8.32,0Zm6.53-.53a6.73,6.73,0,0,0,.25-2.16,6.57,6.57,0,0,0-.25-2.13,2.53,2.53,0,0,0-4.75,0,6.91,6.91,0,0,0-.24,2.13,7.09,7.09,0,0,0,.24,2.16,2.53,2.53,0,0,0,4.75,0Z"/><path d="M143.37,41.86a.21.21,0,0,1,0-.31l.9-1a.21.21,0,0,1,.31,0,5.13,5.13,0,0,0,3.26,1.21c1.54,0,2.31-.66,2.31-1.61s-.4-1.3-2.05-1.47L147,38.61c-2.07-.22-3.15-1.26-3.15-3,0-2,1.43-3.22,3.92-3.22a6.3,6.3,0,0,1,3.74,1.17.21.21,0,0,1,0,.31l-.74.94a.22.22,0,0,1-.31,0,5.54,5.54,0,0,0-2.84-.86c-1.32,0-2,.59-2,1.45s.5,1.28,2.07,1.43l1.1.11c2.13.2,3.16,1.28,3.16,3,0,2.07-1.49,3.46-4.24,3.46A6.55,6.55,0,0,1,143.37,41.86Z"/><path d="M171,43.2a.2.2,0,0,1-.22-.22V36.82c0-1.69-.77-2.68-2.35-2.68A2.37,2.37,0,0,0,166,36.71V43a.2.2,0,0,1-.22.22h-1.41a.2.2,0,0,1-.22-.22V36.82c0-1.69-.77-2.68-2.35-2.68a2.36,2.36,0,0,0-2.42,2.57V43a.2.2,0,0,1-.22.22h-1.41a.2.2,0,0,1-.22-.22V32.88a.2.2,0,0,1,.22-.21h1.41a.2.2,0,0,1,.22.21v1h0a3.73,3.73,0,0,1,6,.22h0a3.92,3.92,0,0,1,3.41-1.65c2.44,0,3.76,1.57,3.76,4V43a.2.2,0,0,1-.22.22Z"/><path d="M175,30.29a.21.21,0,0,1-.22-.22V28.46a.21.21,0,0,1,.22-.22h1.5a.21.21,0,0,1,.22.22v1.61a.21.21,0,0,1-.22.22Zm0,12.91a.2.2,0,0,1-.22-.22V32.88a.2.2,0,0,1,.22-.21h1.41a.19.19,0,0,1,.21.21V43a.2.2,0,0,1-.21.22Z"/><path d="M178.2,41.86a.21.21,0,0,1,0-.31l.9-1a.21.21,0,0,1,.31,0,5.12,5.12,0,0,0,3.25,1.21c1.54,0,2.31-.66,2.31-1.61s-.39-1.3-2-1.47l-1.13-.11c-2.06-.22-3.14-1.26-3.14-3,0-2,1.43-3.22,3.92-3.22a6.3,6.3,0,0,1,3.74,1.17.21.21,0,0,1,0,.31l-.75.94a.22.22,0,0,1-.31,0,5.54,5.54,0,0,0-2.84-.86c-1.32,0-2,.59-2,1.45s.51,1.28,2.07,1.43l1.1.11c2.14.2,3.17,1.28,3.17,3,0,2.07-1.5,3.46-4.25,3.46A6.52,6.52,0,0,1,178.2,41.86Z"/><path d="M201.85,43.2a.2.2,0,0,1-.22-.22V36.82c0-1.69-.77-2.68-2.36-2.68a2.38,2.38,0,0,0-2.42,2.57V43a.2.2,0,0,1-.22.22h-1.4A.21.21,0,0,1,195,43V36.82c0-1.69-.76-2.68-2.35-2.68a2.36,2.36,0,0,0-2.42,2.57V43a.2.2,0,0,1-.22.22H188.6a.2.2,0,0,1-.22-.22V32.88a.2.2,0,0,1,.22-.21H190a.2.2,0,0,1,.22.21v1h0a3.73,3.73,0,0,1,6,.22h0a3.94,3.94,0,0,1,3.41-1.65c2.45,0,3.77,1.57,3.77,4V43a.2.2,0,0,1-.22.22Z"/><path d="M205.37,40.61a7.71,7.71,0,0,1-.36-2.69,7.64,7.64,0,0,1,.36-2.66,4.46,4.46,0,0,1,8.31,0,7.64,7.64,0,0,1,.36,2.66,7.71,7.71,0,0,1-.36,2.69,4.46,4.46,0,0,1-8.31,0Zm6.53-.53a6.78,6.78,0,0,0,.24-2.16,6.61,6.61,0,0,0-.24-2.13,2.53,2.53,0,0,0-4.75,0,6.61,6.61,0,0,0-.24,2.13,6.78,6.78,0,0,0,.24,2.16,2.53,2.53,0,0,0,4.75,0Z"/><path d="M215,41.86a.21.21,0,0,1,0-.31l.9-1a.21.21,0,0,1,.31,0,5.12,5.12,0,0,0,3.25,1.21c1.54,0,2.31-.66,2.31-1.61s-.39-1.3-2-1.47l-1.12-.11c-2.07-.22-3.15-1.26-3.15-3,0-2,1.43-3.22,3.92-3.22a6.3,6.3,0,0,1,3.74,1.17.21.21,0,0,1,0,.31l-.75.94a.22.22,0,0,1-.31,0,5.54,5.54,0,0,0-2.83-.86c-1.32,0-2,.59-2,1.45s.51,1.28,2.07,1.43l1.1.11c2.14.2,3.17,1.28,3.17,3,0,2.07-1.5,3.46-4.25,3.46A6.54,6.54,0,0,1,215,41.86Z"/><path d="M235.7,47.17a.21.21,0,0,1-.22-.22V42h0a3.2,3.2,0,0,1-3,1.48,3.48,3.48,0,0,1-3.63-2.53,8.72,8.72,0,0,1-.38-3,8.64,8.64,0,0,1,.38-3,3.48,3.48,0,0,1,3.63-2.53,3.19,3.19,0,0,1,3,1.46h0v-1a.2.2,0,0,1,.22-.21h1.41a.2.2,0,0,1,.22.21V47a.21.21,0,0,1-.22.22Zm-.46-7.05a6.63,6.63,0,0,0,.24-2.2,6.79,6.79,0,0,0-.24-2.2,2.49,2.49,0,0,0-4.64,0,7.43,7.43,0,0,0-.24,2.2,7.18,7.18,0,0,0,.24,2.2,2.48,2.48,0,0,0,4.64,0Z"/><path d="M246.24,43.2A.2.2,0,0,1,246,43V42h0a3.22,3.22,0,0,1-2.88,1.46c-2.31,0-3.66-1.59-3.66-4V32.88a.2.2,0,0,1,.22-.21h1.41a.2.2,0,0,1,.22.21V39c0,1.72.77,2.71,2.34,2.71a2.34,2.34,0,0,0,2.37-2.6V32.88a.2.2,0,0,1,.22-.21h1.41a.2.2,0,0,1,.22.21V43a.2.2,0,0,1-.22.22Z"/><path d="M249.87,40.59a8.36,8.36,0,0,1-.35-2.67,8.17,8.17,0,0,1,.33-2.66,4.43,4.43,0,0,1,8.27,0,9.21,9.21,0,0,1,.33,3,.22.22,0,0,1-.24.22h-6.67a.12.12,0,0,0-.13.13,3.9,3.9,0,0,0,.18,1.27,2.6,2.6,0,0,0,2.66,1.83A3.47,3.47,0,0,0,257,40.56a.22.22,0,0,1,.33,0l.9.81a.2.2,0,0,1,0,.31,5.12,5.12,0,0,1-4.11,1.81A4.08,4.08,0,0,1,249.87,40.59ZM256.43,37c.09,0,.13,0,.13-.13a3.75,3.75,0,0,0-.15-1.19,2.6,2.6,0,0,0-4.84,0,3.72,3.72,0,0,0-.16,1.19.12.12,0,0,0,.13.13Z"/><path d="M266.88,43.2c-.16,0-.22-.08-.27-.22l-3.78-10.1c-.05-.13,0-.21.17-.21h1.52c.16,0,.22.06.29.21l2.73,7.57h0l2.66-7.57a.26.26,0,0,1,.27-.21H272c.16,0,.22.08.18.21L268.42,43a.28.28,0,0,1-.29.22Z"/><path d="M279.5,43.2a.2.2,0,0,1-.21-.22v-.92h0a3.44,3.44,0,0,1-3.12,1.39c-2,0-3.54-1-3.54-3.17S274.14,37,276.71,37h2.4c.09,0,.13,0,.13-.13v-.77c0-1.45-.57-2.07-2.53-2.07a4.07,4.07,0,0,0-2.55.75.2.2,0,0,1-.31,0l-.59-1a.23.23,0,0,1,0-.31,5.81,5.81,0,0,1,3.59-1c3,0,4.13,1,4.13,3.59v7a.2.2,0,0,1-.22.22Zm-.26-3.41V38.63c0-.09,0-.13-.13-.13H277c-1.83,0-2.62.52-2.62,1.71s.79,1.65,2.2,1.65C278.23,41.86,279.24,41.09,279.24,39.79Z"/><path d="M293.56,43.2a.2.2,0,0,1-.22-.22v-.92h0a3.46,3.46,0,0,1-3.12,1.39c-2,0-3.55-1-3.55-3.17S288.19,37,290.77,37h2.4a.12.12,0,0,0,.13-.13v-.77c0-1.45-.57-2.07-2.53-2.07a4.07,4.07,0,0,0-2.55.75c-.11.09-.25.09-.31,0l-.6-1a.24.24,0,0,1,.05-.31,5.8,5.8,0,0,1,3.58-1c3,0,4.14,1,4.14,3.59v7a.2.2,0,0,1-.22.22Zm-.26-3.41V38.63a.12.12,0,0,0-.13-.13h-2.12c-1.82,0-2.61.52-2.61,1.71s.79,1.65,2.2,1.65C292.29,41.86,293.3,41.09,293.3,39.79Z"/><path d="M307.86,43.2a.2.2,0,0,1-.22-.22V42h0a3.22,3.22,0,0,1-2.88,1.46c-2.31,0-3.65-1.59-3.65-4V32.88a.2.2,0,0,1,.22-.21h1.4a.2.2,0,0,1,.22.21V39c0,1.72.77,2.71,2.34,2.71a2.34,2.34,0,0,0,2.37-2.6V32.88a.2.2,0,0,1,.22-.21h1.41a.2.2,0,0,1,.22.21V43a.2.2,0,0,1-.22.22Z"/><path d="M314.84,43.31c-2,0-2.84-.92-2.84-3v-6a.12.12,0,0,0-.13-.13H311a.2.2,0,0,1-.22-.22V32.88a.2.2,0,0,1,.22-.21h.88a.12.12,0,0,0,.13-.14v-3a.21.21,0,0,1,.22-.22h1.41a.21.21,0,0,1,.22.22v3c0,.09,0,.14.13.14h1.67a.2.2,0,0,1,.22.21v1.06a.21.21,0,0,1-.22.22H314a.12.12,0,0,0-.13.13v6c0,1.05.39,1.34,1.34,1.34h.46a.21.21,0,0,1,.22.22v1.27a.2.2,0,0,1-.22.22Z"/><path d="M317.59,30.29a.2.2,0,0,1-.22-.22V28.46a.2.2,0,0,1,.22-.22h1.49a.21.21,0,0,1,.22.22v1.61a.21.21,0,0,1-.22.22Zm0,12.91a.2.2,0,0,1-.22-.22V32.88a.2.2,0,0,1,.22-.21H319a.2.2,0,0,1,.22.21V43a.2.2,0,0,1-.22.22Z"/><path d="M324.08,43.31c-1.85,0-2.58-.88-2.58-2.77V28.46a.21.21,0,0,1,.22-.22h1.41a.21.21,0,0,1,.22.22v12c0,.88.33,1.17,1.06,1.17h.41a.2.2,0,0,1,.22.22v1.27a.2.2,0,0,1-.22.22Z"/><path d="M326.5,30.29a.21.21,0,0,1-.23-.22V28.46a.21.21,0,0,1,.23-.22H328a.21.21,0,0,1,.22.22v1.61a.21.21,0,0,1-.22.22Zm0,12.91a.2.2,0,0,1-.22-.22V32.88a.2.2,0,0,1,.22-.21H328a.2.2,0,0,1,.22.21V43a.2.2,0,0,1-.22.22Z"/><path d="M330.08,43.2a.2.2,0,0,1-.22-.22V41.82a.3.3,0,0,1,.09-.24l5.79-7.2v0h-5.37a.2.2,0,0,1-.22-.22V32.88a.2.2,0,0,1,.22-.21h7.35a.2.2,0,0,1,.22.21v1.24a.36.36,0,0,1-.09.24l-5.75,7.13v0h5.62a.21.21,0,0,1,.22.22V43a.2.2,0,0,1-.22.22Z"/><path d="M346,43.2a.2.2,0,0,1-.22-.22v-.92h0a3.47,3.47,0,0,1-3.13,1.39c-2,0-3.54-1-3.54-3.17S340.64,37,343.21,37h2.4c.09,0,.13,0,.13-.13v-.77c0-1.45-.57-2.07-2.53-2.07a4.12,4.12,0,0,0-2.55.75.2.2,0,0,1-.31,0l-.59-1a.24.24,0,0,1,0-.31,5.85,5.85,0,0,1,3.59-1c3,0,4.14,1,4.14,3.59v7a.2.2,0,0,1-.22.22Zm-.27-3.41V38.63c0-.09,0-.13-.13-.13H343.5c-1.83,0-2.62.52-2.62,1.71s.79,1.65,2.2,1.65C344.73,41.86,345.74,41.09,345.74,39.79Z"/><path d="M350,43.2a.2.2,0,0,1-.22-.22V32.88a.2.2,0,0,1,.22-.21h1.4a.2.2,0,0,1,.22.21V34h0a2.93,2.93,0,0,1,2.79-1.54,3.26,3.26,0,0,1,2.16.79c.11.12.13.2,0,.31l-.81,1.08a.21.21,0,0,1-.31,0,3,3,0,0,0-1.63-.51c-1.61,0-2.27,1.25-2.27,3.08V43a.2.2,0,0,1-.22.22Z"/><path d="M363.92,43.31c-1.85,0-2.58-.88-2.58-2.77V28.46a.21.21,0,0,1,.22-.22H363a.21.21,0,0,1,.22.22v12c0,.88.33,1.17,1.06,1.17h.41a.2.2,0,0,1,.22.22v1.27a.2.2,0,0,1-.22.22Z"/><path d="M365.87,40.61a8,8,0,0,1-.35-2.69,7.92,7.92,0,0,1,.35-2.66,4.47,4.47,0,0,1,8.32,0,7.92,7.92,0,0,1,.35,2.66,8,8,0,0,1-.35,2.69,4.47,4.47,0,0,1-8.32,0Zm6.54-.53a7.09,7.09,0,0,0,.24-2.16,6.91,6.91,0,0,0-.24-2.13,2.53,2.53,0,0,0-4.75,0,6.57,6.57,0,0,0-.25,2.13,6.73,6.73,0,0,0,.25,2.16,2.53,2.53,0,0,0,4.75,0Z"/><path d="M393.62,43.2a.2.2,0,0,1-.22-.22V36.82c0-1.69-.77-2.68-2.36-2.68a2.37,2.37,0,0,0-2.42,2.57V43a.2.2,0,0,1-.22.22H387a.2.2,0,0,1-.22-.22V36.82c0-1.69-.77-2.68-2.35-2.68A2.36,2.36,0,0,0,382,36.71V43a.2.2,0,0,1-.22.22h-1.41a.2.2,0,0,1-.22-.22V32.88a.2.2,0,0,1,.22-.21h1.41a.2.2,0,0,1,.22.21v1h0a3.73,3.73,0,0,1,6,.22h0a3.94,3.94,0,0,1,3.41-1.65c2.44,0,3.77,1.57,3.77,4V43a.21.21,0,0,1-.23.22Z"/><path d="M403.8,43.2a.2.2,0,0,1-.22-.22v-.92h0a3.46,3.46,0,0,1-3.12,1.39c-2,0-3.55-1-3.55-3.17S398.43,37,401,37h2.4a.12.12,0,0,0,.13-.13v-.77c0-1.45-.57-2.07-2.53-2.07a4.07,4.07,0,0,0-2.55.75c-.12.09-.25.09-.31,0l-.6-1a.24.24,0,0,1,.05-.31,5.8,5.8,0,0,1,3.58-1c3,0,4.14,1,4.14,3.59v7a.2.2,0,0,1-.22.22Zm-.26-3.41V38.63a.12.12,0,0,0-.13-.13h-2.12c-1.82,0-2.62.52-2.62,1.71s.8,1.65,2.21,1.65C402.53,41.86,403.54,41.09,403.54,39.79Z"/><path d="M406.79,41.86a.23.23,0,0,1,0-.31l.91-1a.2.2,0,0,1,.3,0,5.13,5.13,0,0,0,3.26,1.21c1.54,0,2.31-.66,2.31-1.61s-.4-1.3-2.05-1.47l-1.12-.11c-2.07-.22-3.15-1.26-3.15-3,0-2,1.43-3.22,3.92-3.22a6.3,6.3,0,0,1,3.74,1.17.22.22,0,0,1,0,.31l-.75.94a.22.22,0,0,1-.31,0,5.54,5.54,0,0,0-2.84-.86c-1.32,0-2,.59-2,1.45s.51,1.28,2.07,1.43l1.1.11c2.13.2,3.17,1.28,3.17,3,0,2.07-1.5,3.46-4.25,3.46A6.55,6.55,0,0,1,406.79,41.86Z"/><path d="M420.63,35.26a4.09,4.09,0,0,1,4.16-2.84,4.21,4.21,0,0,1,3.61,1.79c.06.11.06.19-.07.3l-1,.8a.21.21,0,0,1-.31,0,2.58,2.58,0,0,0-2.26-1.14,2.29,2.29,0,0,0-2.36,1.65,7.21,7.21,0,0,0-.24,2.13,7.3,7.3,0,0,0,.24,2.16,2.29,2.29,0,0,0,2.36,1.65,2.58,2.58,0,0,0,2.26-1.14.21.21,0,0,1,.31,0l1,.8c.13.11.13.19.07.3a4.23,4.23,0,0,1-3.61,1.79,4.09,4.09,0,0,1-4.16-2.84,9.08,9.08,0,0,1-.33-2.69A9,9,0,0,1,420.63,35.26Z"/><path d="M429.45,40.59a8.36,8.36,0,0,1-.35-2.67,8.17,8.17,0,0,1,.33-2.66,4.43,4.43,0,0,1,8.27,0,9.21,9.21,0,0,1,.33,3,.21.21,0,0,1-.24.22h-6.67a.12.12,0,0,0-.13.13,3.9,3.9,0,0,0,.18,1.27,2.6,2.6,0,0,0,2.66,1.83,3.47,3.47,0,0,0,2.71-1.17.22.22,0,0,1,.33,0l.9.81a.2.2,0,0,1,0,.31,5.1,5.1,0,0,1-4.11,1.81A4.08,4.08,0,0,1,429.45,40.59ZM436,37c.09,0,.13,0,.13-.13A3.75,3.75,0,0,0,436,35.7a2.6,2.6,0,0,0-4.84,0,3.72,3.72,0,0,0-.16,1.19.12.12,0,0,0,.13.13Z"/><path d="M439.9,43.2a.2.2,0,0,1-.22-.22V32.88a.2.2,0,0,1,.22-.21h1.41a.2.2,0,0,1,.22.21V34h0a2.94,2.94,0,0,1,2.8-1.54,3.26,3.26,0,0,1,2.15.79c.11.12.13.2.05.31l-.82,1.08a.21.21,0,0,1-.31,0,2.93,2.93,0,0,0-1.62-.51c-1.61,0-2.27,1.25-2.27,3.08V43a.2.2,0,0,1-.22.22Z"/><path d="M446.68,35.26a4.09,4.09,0,0,1,4.16-2.84,4.2,4.2,0,0,1,3.6,1.79c.07.11.07.19-.06.3l-1,.8a.21.21,0,0,1-.31,0,2.58,2.58,0,0,0-2.26-1.14,2.29,2.29,0,0,0-2.36,1.65,7.21,7.21,0,0,0-.24,2.13,7.3,7.3,0,0,0,.24,2.16,2.29,2.29,0,0,0,2.36,1.65,2.58,2.58,0,0,0,2.26-1.14.21.21,0,0,1,.31,0l1,.8c.13.11.13.19.06.3a4.22,4.22,0,0,1-3.6,1.79,4.09,4.09,0,0,1-4.16-2.84,9.08,9.08,0,0,1-.33-2.69A9,9,0,0,1,446.68,35.26Z"/><path d="M462.17,43.2A.2.2,0,0,1,462,43v-.92h0a3.44,3.44,0,0,1-3.12,1.39c-2,0-3.54-1-3.54-3.17S456.8,37,459.37,37h2.4c.09,0,.13,0,.13-.13v-.77c0-1.45-.57-2.07-2.53-2.07a4.09,4.09,0,0,0-2.55.75.2.2,0,0,1-.31,0l-.59-1a.23.23,0,0,1,0-.31,5.83,5.83,0,0,1,3.59-1c3,0,4.13,1,4.13,3.59v7a.2.2,0,0,1-.22.22Zm-.27-3.41V38.63c0-.09,0-.13-.13-.13h-2.11c-1.83,0-2.62.52-2.62,1.71s.79,1.65,2.2,1.65C460.89,41.86,461.9,41.09,461.9,39.79Z"/><path d="M476.22,43.2A.2.2,0,0,1,476,43v-.92h0a3.46,3.46,0,0,1-3.12,1.39c-2,0-3.54-1-3.54-3.17S470.86,37,473.43,37h2.4c.09,0,.13,0,.13-.13v-.77c0-1.45-.57-2.07-2.53-2.07a4.07,4.07,0,0,0-2.55.75.2.2,0,0,1-.31,0l-.59-1a.23.23,0,0,1,0-.31,5.81,5.81,0,0,1,3.59-1c3,0,4.13,1,4.13,3.59v7a.2.2,0,0,1-.22.22ZM476,39.79V38.63c0-.09,0-.13-.13-.13h-2.11c-1.83,0-2.62.52-2.62,1.71s.79,1.65,2.2,1.65C475,41.86,476,41.09,476,39.79Z"/><path d="M483.17,41.86a.23.23,0,0,1,0-.31l.91-1a.2.2,0,0,1,.3,0,5.17,5.17,0,0,0,3.26,1.21c1.54,0,2.31-.66,2.31-1.61s-.39-1.3-2-1.47l-1.13-.11c-2.07-.22-3.14-1.26-3.14-3,0-2,1.43-3.22,3.91-3.22a6.3,6.3,0,0,1,3.74,1.17.22.22,0,0,1,0,.31l-.75.94a.22.22,0,0,1-.31,0,5.54,5.54,0,0,0-2.84-.86c-1.32,0-2,.59-2,1.45s.51,1.28,2.07,1.43l1.1.11c2.13.2,3.17,1.28,3.17,3,0,2.07-1.5,3.46-4.25,3.46A6.57,6.57,0,0,1,483.17,41.86Z"/><path d="M500,43.2a.2.2,0,0,1-.22-.22V42h0a3.22,3.22,0,0,1-2.88,1.46c-2.31,0-3.65-1.59-3.65-4V32.88a.2.2,0,0,1,.22-.21h1.4a.21.21,0,0,1,.23.21V39c0,1.72.77,2.71,2.33,2.71a2.34,2.34,0,0,0,2.37-2.6V32.88a.2.2,0,0,1,.22-.21h1.41a.2.2,0,0,1,.22.21V43a.2.2,0,0,1-.22.22Z"/><path d="M514.24,43.2A.2.2,0,0,1,514,43v-.92h0a3.47,3.47,0,0,1-3.13,1.39c-2,0-3.54-1-3.54-3.17S508.87,37,511.45,37h2.39c.09,0,.14,0,.14-.13v-.77c0-1.45-.58-2.07-2.53-2.07a4.13,4.13,0,0,0-2.56.75.2.2,0,0,1-.31,0l-.59-1a.23.23,0,0,1,.05-.31,5.8,5.8,0,0,1,3.58-1c3,0,4.14,1,4.14,3.59v7a.2.2,0,0,1-.22.22ZM514,39.79V38.63c0-.09-.05-.13-.14-.13h-2.11c-1.82,0-2.62.52-2.62,1.71s.8,1.65,2.2,1.65C513,41.86,514,41.09,514,39.79ZM511,31c-.13,0-.19-.09-.13-.22L512.54,28a.4.4,0,0,1,.38-.22h1.45c.13,0,.2.11.11.22l-2,2.71A.44.44,0,0,1,512,31Z"/><path d="M518.18,43.2A.2.2,0,0,1,518,43V32.88a.2.2,0,0,1,.22-.21h1.4a.2.2,0,0,1,.22.21V34h0a2.93,2.93,0,0,1,2.79-1.54,3.26,3.26,0,0,1,2.16.79c.11.12.13.2,0,.31L524,34.6a.21.21,0,0,1-.31,0,2.94,2.94,0,0,0-1.63-.51c-1.61,0-2.27,1.25-2.27,3.08V43a.2.2,0,0,1-.22.22Z"/><path d="M525,40.59a8.36,8.36,0,0,1-.35-2.67,8.17,8.17,0,0,1,.33-2.66,4.44,4.44,0,0,1,8.28,0,9.21,9.21,0,0,1,.33,3,.22.22,0,0,1-.25.22h-6.66c-.09,0-.14,0-.14.13a3.9,3.9,0,0,0,.18,1.27,2.6,2.6,0,0,0,2.66,1.83,3.44,3.44,0,0,0,2.71-1.17.22.22,0,0,1,.33,0l.9.81a.2.2,0,0,1,0,.31,5.1,5.1,0,0,1-4.11,1.81A4.09,4.09,0,0,1,525,40.59ZM531.53,37c.09,0,.13,0,.13-.13a3.75,3.75,0,0,0-.15-1.19,2.6,2.6,0,0,0-4.84,0,3.72,3.72,0,0,0-.16,1.19c0,.09,0,.13.14.13Z"/><path d="M541.58,43.2a.2.2,0,0,1-.21-.22v-.92h0a3.46,3.46,0,0,1-3.12,1.39c-2,0-3.54-1-3.54-3.17S536.22,37,538.79,37h2.4c.09,0,.13,0,.13-.13v-.77c0-1.45-.57-2.07-2.53-2.07a4.07,4.07,0,0,0-2.55.75.2.2,0,0,1-.31,0l-.59-1a.23.23,0,0,1,0-.31,5.81,5.81,0,0,1,3.59-1c3,0,4.13,1,4.13,3.59v7a.2.2,0,0,1-.22.22Zm-.26-3.41V38.63c0-.09,0-.13-.13-.13h-2.11c-1.83,0-2.62.52-2.62,1.71s.79,1.65,2.2,1.65C540.31,41.86,541.32,41.09,541.32,39.79Z"/><path d="M555.86,43.2a.2.2,0,0,1-.22-.22V42h0a3.21,3.21,0,0,1-3,1.48A3.48,3.48,0,0,1,549,40.92a8.72,8.72,0,0,1-.38-3,8.64,8.64,0,0,1,.38-3,3.48,3.48,0,0,1,3.63-2.53,3.2,3.2,0,0,1,3,1.46h0V28.46a.21.21,0,0,1,.22-.22h1.41a.21.21,0,0,1,.22.22V43a.2.2,0,0,1-.22.22Zm-.46-3.08a6.63,6.63,0,0,0,.24-2.2,6.79,6.79,0,0,0-.24-2.2,2.49,2.49,0,0,0-4.64,0,7.43,7.43,0,0,0-.24,2.2,7.18,7.18,0,0,0,.24,2.2,2.48,2.48,0,0,0,4.64,0Z"/><path d="M559.49,40.59a8.36,8.36,0,0,1-.35-2.67,8.17,8.17,0,0,1,.33-2.66,4.43,4.43,0,0,1,8.27,0,9.21,9.21,0,0,1,.33,3,.22.22,0,0,1-.24.22h-6.67a.12.12,0,0,0-.13.13,3.9,3.9,0,0,0,.18,1.27,2.6,2.6,0,0,0,2.66,1.83,3.47,3.47,0,0,0,2.71-1.17.22.22,0,0,1,.33,0l.9.81a.2.2,0,0,1,0,.31,5.11,5.11,0,0,1-4.11,1.81A4.08,4.08,0,0,1,559.49,40.59ZM566.05,37c.09,0,.13,0,.13-.13A3.75,3.75,0,0,0,566,35.7a2.6,2.6,0,0,0-4.84,0,3.72,3.72,0,0,0-.16,1.19.12.12,0,0,0,.13.13Z"/><path d="M576.74,43.31c-2,0-2.84-.92-2.84-3v-6a.12.12,0,0,0-.13-.13h-.88a.21.21,0,0,1-.22-.22V32.88a.2.2,0,0,1,.22-.21h.88c.09,0,.13-.05.13-.14v-3a.21.21,0,0,1,.22-.22h1.41a.21.21,0,0,1,.22.22v3c0,.09,0,.14.13.14h1.67a.2.2,0,0,1,.22.21v1.06a.2.2,0,0,1-.22.22h-1.67a.12.12,0,0,0-.13.13v6c0,1.05.4,1.34,1.34,1.34h.46a.2.2,0,0,1,.22.22v1.27a.2.2,0,0,1-.22.22Z"/><path d="M579.53,43.2a.2.2,0,0,1-.22-.22V32.88a.2.2,0,0,1,.22-.21h1.41a.2.2,0,0,1,.22.21V34h0a3,3,0,0,1,2.8-1.54,3.24,3.24,0,0,1,2.15.79c.11.12.14.2,0,.31l-.82,1.08a.2.2,0,0,1-.3,0,3,3,0,0,0-1.63-.51c-1.61,0-2.27,1.25-2.27,3.08V43a.2.2,0,0,1-.22.22Z"/><path d="M592.87,43.2a.2.2,0,0,1-.22-.22v-.92h0a3.44,3.44,0,0,1-3.12,1.39c-2,0-3.54-1-3.54-3.17S587.5,37,590.07,37h2.4c.09,0,.13,0,.13-.13v-.77c0-1.45-.57-2.07-2.53-2.07a4.07,4.07,0,0,0-2.55.75.2.2,0,0,1-.31,0l-.59-1a.23.23,0,0,1,0-.31,5.81,5.81,0,0,1,3.59-1c3,0,4.13,1,4.13,3.59v7a.2.2,0,0,1-.22.22Zm-.27-3.41V38.63c0-.09,0-.13-.13-.13h-2.11c-1.83,0-2.62.52-2.62,1.71s.79,1.65,2.2,1.65C591.59,41.86,592.6,41.09,592.6,39.79Z"/><path d="M596.8,43.2a.2.2,0,0,1-.22-.22V28.46a.21.21,0,0,1,.22-.22h1.41a.21.21,0,0,1,.22.22v5.42h0a3.2,3.2,0,0,1,3-1.46A3.49,3.49,0,0,1,605.08,35a8.92,8.92,0,0,1,.37,3,9,9,0,0,1-.37,3,3.49,3.49,0,0,1-3.63,2.53,3.21,3.21,0,0,1-3-1.48h0v1a.2.2,0,0,1-.22.22Zm6.52-3.08a7.51,7.51,0,0,0,.24-2.2,7.78,7.78,0,0,0-.24-2.2,2.5,2.5,0,0,0-4.65,0,7.08,7.08,0,0,0-.24,2.2,6.92,6.92,0,0,0,.24,2.2,2.48,2.48,0,0,0,4.65,0Z"/><path d="M613.48,43.2a.2.2,0,0,1-.22-.22v-.92h0a3.47,3.47,0,0,1-3.13,1.39c-2,0-3.54-1-3.54-3.17S608.11,37,610.69,37h2.39c.09,0,.14,0,.14-.13v-.77c0-1.45-.58-2.07-2.53-2.07a4.13,4.13,0,0,0-2.56.75c-.11.09-.24.09-.3,0l-.6-1a.24.24,0,0,1,0-.31,5.8,5.8,0,0,1,3.58-1c3,0,4.14,1,4.14,3.59v7a.2.2,0,0,1-.22.22Zm-.26-3.41V38.63c0-.09-.05-.13-.14-.13H611c-1.82,0-2.62.52-2.62,1.71s.8,1.65,2.2,1.65C612.2,41.86,613.22,41.09,613.22,39.79Z"/><path d="M615.46,47.17a.21.21,0,0,1-.22-.22V45.67a.21.21,0,0,1,.22-.22h.35c1,0,1.39-.29,1.39-1.41V32.88a.2.2,0,0,1,.22-.21h1.41a.19.19,0,0,1,.21.21V44c0,2.26-1,3.17-3.14,3.17Zm1.91-16.88a.21.21,0,0,1-.22-.22V28.46a.21.21,0,0,1,.22-.22h1.5a.21.21,0,0,1,.22.22v1.61a.21.21,0,0,1-.22.22Z"/><path d="M621.05,40.61a7.71,7.71,0,0,1-.36-2.69,7.64,7.64,0,0,1,.36-2.66,4.46,4.46,0,0,1,8.31,0,7.64,7.64,0,0,1,.36,2.66,7.71,7.71,0,0,1-.36,2.69,4.46,4.46,0,0,1-8.31,0Zm6.53-.53a6.78,6.78,0,0,0,.24-2.16,6.61,6.61,0,0,0-.24-2.13,2.53,2.53,0,0,0-4.75,0,6.61,6.61,0,0,0-.24,2.13,6.78,6.78,0,0,0,.24,2.16,2.53,2.53,0,0,0,4.75,0Z"/></g></g></svg>