<svg xmlns="http://www.w3.org/2000/svg" viewBox="0 0 394.95 76.91"><title>3c</title><g id="Capa_2" data-name="Capa 2"><g id="answer_copia" data-name="answer copia"><path d="M1.41.5A.23.23,0,0,1,1.65.26H3.18A.4.4,0,0,1,3.59.5L11,12.75h.1V.5a.23.23,0,0,1,.24-.24h1.51a.23.23,0,0,1,.24.24V16.35a.23.23,0,0,1-.24.24H11.3a.41.41,0,0,1-.41-.24L3.47,4.15H3.4v12.2a.23.23,0,0,1-.24.24H1.65a.23.23,0,0,1-.24-.24Z"/><path d="M15.52,13a14.06,14.06,0,0,1-.43-4.61,14,14,0,0,1,.43-4.6A5.39,5.39,0,0,1,21.06,0a5.4,5.4,0,0,1,5.57,3.82,14,14,0,0,1,.43,4.6A14.06,14.06,0,0,1,26.63,13a5.4,5.4,0,0,1-5.57,3.82A5.39,5.39,0,0,1,15.52,13Zm9-.6a13.65,13.65,0,0,0,.36-4,13.62,13.62,0,0,0-.36-4A3.32,3.32,0,0,0,21.06,2a3.31,3.31,0,0,0-3.45,2.43,13.62,13.62,0,0,0-.36,4,13.65,13.65,0,0,0,.36,4,3.31,3.31,0,0,0,3.45,2.43A3.32,3.32,0,0,0,24.54,12.43Z"/><path d="M33.59,16.59a.23.23,0,0,1-.24-.24v-11a.23.23,0,0,1,.24-.24h1.54a.23.23,0,0,1,.24.24V6.5h0a3.2,3.2,0,0,1,3-1.68,3.53,3.53,0,0,1,2.35.87c.12.12.14.21.05.33L40,7.2a.22.22,0,0,1-.33,0,3.23,3.23,0,0,0-1.78-.55c-1.75,0-2.47,1.36-2.47,3.36v6.29a.23.23,0,0,1-.24.24Z"/><path d="M41,13.73a8.94,8.94,0,0,1-.39-2.9A8.93,8.93,0,0,1,41,7.92a4.45,4.45,0,0,1,4.51-3.1A4.46,4.46,0,0,1,50,7.92a10.08,10.08,0,0,1,.36,3.29.24.24,0,0,1-.27.24H42.83a.12.12,0,0,0-.14.14,4.37,4.37,0,0,0,.19,1.4,2.83,2.83,0,0,0,2.9,2,3.78,3.78,0,0,0,3-1.27c.12-.13.24-.15.35-.05l1,.89a.21.21,0,0,1,0,.33,5.59,5.59,0,0,1-4.48,2A4.45,4.45,0,0,1,41,13.73Zm7.15-3.89a.13.13,0,0,0,.14-.14,4.06,4.06,0,0,0-.17-1.3,2.84,2.84,0,0,0-5.28,0,4.08,4.08,0,0,0-.16,1.3.12.12,0,0,0,.14.14Z"/><path d="M59.13,16.59a.23.23,0,0,1-.24-.24v-1h0a3.77,3.77,0,0,1-3.41,1.51c-2.18,0-3.86-1.13-3.86-3.46s1.68-3.55,4.49-3.55h2.61c.1,0,.15-.05.15-.14V8.86c0-1.59-.63-2.26-2.76-2.26a4.5,4.5,0,0,0-2.79.82c-.12.09-.26.09-.33,0l-.65-1.1a.26.26,0,0,1,0-.34,6.38,6.38,0,0,1,3.91-1.13c3.27,0,4.51,1.08,4.51,3.92v7.61a.23.23,0,0,1-.24.24Zm-.29-3.72V11.59c0-.09-.05-.14-.15-.14h-2.3c-2,0-2.86.57-2.86,1.87s.87,1.8,2.4,1.8C57.73,15.12,58.84,14.28,58.84,12.87Z"/><path d="M65.94,16.71c-2,0-2.81-1-2.81-3V.5a.23.23,0,0,1,.24-.24h1.54a.23.23,0,0,1,.24.24V13.56c0,1,.36,1.27,1.15,1.27h.46a.23.23,0,0,1,.24.24v1.4a.23.23,0,0,1-.24.24Z"/><path d="M68.58,2.5a.23.23,0,0,1-.24-.24V.5a.23.23,0,0,1,.24-.24h1.63a.23.23,0,0,1,.24.24V2.26a.23.23,0,0,1-.24.24Zm0,14.09a.23.23,0,0,1-.24-.24v-11a.23.23,0,0,1,.24-.24h1.54a.23.23,0,0,1,.24.24v11a.23.23,0,0,1-.24.24Z"/><path d="M72.49,16.59a.23.23,0,0,1-.24-.24V15.07a.37.37,0,0,1,.1-.26L78.66,7v0H72.81a.22.22,0,0,1-.24-.24V5.33a.22.22,0,0,1,.24-.24h8a.22.22,0,0,1,.24.24V6.67a.38.38,0,0,1-.09.27L74.7,14.71v0h6.12a.23.23,0,0,1,.24.24v1.35a.23.23,0,0,1-.24.24Z"/><path d="M89.87,16.59a.23.23,0,0,1-.24-.24v-1h0a3.79,3.79,0,0,1-3.41,1.51c-2.19,0-3.87-1.13-3.87-3.46S84,9.84,86.82,9.84h2.62a.13.13,0,0,0,.14-.14V8.86c0-1.59-.62-2.26-2.76-2.26A4.46,4.46,0,0,0,84,7.42a.22.22,0,0,1-.34,0l-.65-1.1a.27.27,0,0,1,0-.34A6.4,6.4,0,0,1,87,4.82c3.27,0,4.52,1.08,4.52,3.92v7.61a.23.23,0,0,1-.24.24Zm-.29-3.72V11.59a.13.13,0,0,0-.14-.14H87.13c-2,0-2.85.57-2.85,1.87s.86,1.8,2.4,1.8C88.48,15.12,89.58,14.28,89.58,12.87Z"/><path d="M94.17,16.59a.23.23,0,0,1-.24-.24v-11a.22.22,0,0,1,.24-.24H95.7a.22.22,0,0,1,.24.24V6.5h0a3.2,3.2,0,0,1,3-1.68,3.54,3.54,0,0,1,2.36.87c.12.12.14.21,0,.33l-.88,1.18a.23.23,0,0,1-.34,0,3.2,3.2,0,0,0-1.78-.55c-1.75,0-2.47,1.36-2.47,3.36v6.29a.23.23,0,0,1-.24.24Z"/><path d="M113.85,16.59a.23.23,0,0,1-.24-.24V15.24h0a3.49,3.49,0,0,1-3.26,1.61,3.8,3.8,0,0,1-4-2.76,9.58,9.58,0,0,1-.41-3.26,9.63,9.63,0,0,1,.41-3.25,3.8,3.8,0,0,1,4-2.76,3.48,3.48,0,0,1,3.26,1.59h0V.5a.23.23,0,0,1,.24-.24h1.53a.23.23,0,0,1,.24.24V16.35a.23.23,0,0,1-.24.24Zm-.51-3.36a7.45,7.45,0,0,0,.27-2.4,7.56,7.56,0,0,0-.27-2.41,2.72,2.72,0,0,0-5.06,0,8.29,8.29,0,0,0-.27,2.41,8,8,0,0,0,.27,2.4,2.7,2.7,0,0,0,5.06,0Z"/><path d="M117.33,13.73a8.67,8.67,0,0,1-.39-2.9,8.93,8.93,0,0,1,.36-2.91,4.84,4.84,0,0,1,9,0,10.08,10.08,0,0,1,.36,3.29.24.24,0,0,1-.27.24h-7.27c-.1,0-.15.05-.15.14a4.33,4.33,0,0,0,.2,1.4,2.83,2.83,0,0,0,2.9,2,3.74,3.74,0,0,0,3-1.27c.12-.13.24-.15.36-.05l1,.89a.21.21,0,0,1,0,.33,5.59,5.59,0,0,1-4.49,2A4.44,4.44,0,0,1,117.33,13.73Zm7.15-3.89a.13.13,0,0,0,.14-.14,4.06,4.06,0,0,0-.17-1.3,2.84,2.84,0,0,0-5.28,0A4.06,4.06,0,0,0,119,9.7c0,.09,0,.14.15.14Z"/><path d="M127.21,15.12a.24.24,0,0,1,0-.33l1-1.06a.22.22,0,0,1,.33,0,5.62,5.62,0,0,0,3.55,1.32c1.69,0,2.53-.72,2.53-1.75s-.44-1.42-2.24-1.61l-1.22-.12c-2.26-.24-3.43-1.37-3.43-3.24,0-2.19,1.56-3.51,4.27-3.51a6.88,6.88,0,0,1,4.08,1.28.23.23,0,0,1,.05.33l-.82,1a.23.23,0,0,1-.33,0,6.07,6.07,0,0,0-3.1-.93c-1.44,0-2.18.64-2.18,1.58s.55,1.39,2.25,1.56l1.2.12c2.33.22,3.46,1.39,3.46,3.24,0,2.26-1.63,3.77-4.63,3.77A7.14,7.14,0,0,1,127.21,15.12Z"/><path d="M138.08,20.91a.23.23,0,0,1-.24-.24V5.33a.23.23,0,0,1,.24-.24h1.54a.23.23,0,0,1,.24.24V6.41h0a3.51,3.51,0,0,1,3.27-1.59,3.81,3.81,0,0,1,4,2.76,9.63,9.63,0,0,1,.41,3.25,9.58,9.58,0,0,1-.41,3.26,3.81,3.81,0,0,1-4,2.76,3.52,3.52,0,0,1-3.27-1.61h0v5.43a.23.23,0,0,1-.24.24Zm7.11-7.68a8.09,8.09,0,0,0,.26-2.4,8.33,8.33,0,0,0-.26-2.41,2.73,2.73,0,0,0-5.07,0,7.62,7.62,0,0,0-.26,2.41,7.51,7.51,0,0,0,.26,2.4,2.71,2.71,0,0,0,5.07,0Z"/><path d="M151.6,16.71c-2,0-2.81-1-2.81-3V.5A.23.23,0,0,1,149,.26h1.54a.23.23,0,0,1,.24.24V13.56c0,1,.35,1.27,1.15,1.27h.45a.23.23,0,0,1,.24.24v1.4a.23.23,0,0,1-.24.24Z"/><path d="M160.53,16.59a.23.23,0,0,1-.24-.24v-1h0a3.77,3.77,0,0,1-3.41,1.51c-2.18,0-3.86-1.13-3.86-3.46s1.68-3.55,4.49-3.55h2.61c.1,0,.15-.05.15-.14V8.86c0-1.59-.63-2.26-2.76-2.26a4.5,4.5,0,0,0-2.79.82c-.12.09-.26.09-.33,0l-.65-1.1a.26.26,0,0,1,0-.34,6.36,6.36,0,0,1,3.91-1.13c3.26,0,4.51,1.08,4.51,3.92v7.61a.23.23,0,0,1-.24.24Zm-.29-3.72V11.59c0-.09-.05-.14-.15-.14h-2.3c-2,0-2.86.57-2.86,1.87s.87,1.8,2.4,1.8C159.13,15.12,160.24,14.28,160.24,12.87Z"/><path d="M163.69,16.59a.23.23,0,0,1-.24-.24V15.07a.37.37,0,0,1,.1-.26L169.86,7v0H164a.22.22,0,0,1-.23-.24V5.33a.22.22,0,0,1,.23-.24h8a.22.22,0,0,1,.24.24V6.67a.38.38,0,0,1-.09.27l-6.27,7.77v0H172a.23.23,0,0,1,.24.24v1.35a.23.23,0,0,1-.24.24Z"/><path d="M180.59,16.59a.23.23,0,0,1-.24-.24v-1h0a3.79,3.79,0,0,1-3.41,1.51c-2.19,0-3.87-1.13-3.87-3.46s1.68-3.55,4.49-3.55h2.62a.13.13,0,0,0,.14-.14V8.86c0-1.59-.62-2.26-2.76-2.26a4.44,4.44,0,0,0-2.78.82.22.22,0,0,1-.34,0l-.65-1.1a.26.26,0,0,1,0-.34,6.38,6.38,0,0,1,3.91-1.13c3.27,0,4.51,1.08,4.51,3.92v7.61a.23.23,0,0,1-.24.24Zm-.29-3.72V11.59a.13.13,0,0,0-.14-.14h-2.31c-2,0-2.85.57-2.85,1.87s.86,1.8,2.4,1.8C179.2,15.12,180.3,14.28,180.3,12.87Z"/><path d="M198.85,16.59a.23.23,0,0,1-.24-.24V9.63c0-1.85-.84-2.93-2.56-2.93a2.59,2.59,0,0,0-2.64,2.8v6.85a.23.23,0,0,1-.25.24h-1.53a.23.23,0,0,1-.24-.24V9.63c0-1.85-.84-2.93-2.57-2.93a2.58,2.58,0,0,0-2.64,2.8v6.85a.23.23,0,0,1-.24.24H184.4a.23.23,0,0,1-.24-.24v-11a.23.23,0,0,1,.24-.24h1.54a.23.23,0,0,1,.24.24v1h0a3.67,3.67,0,0,1,3.22-1.56,3.62,3.62,0,0,1,3.36,1.8h0a4.28,4.28,0,0,1,3.72-1.8c2.66,0,4.1,1.71,4.1,4.32v7.21a.23.23,0,0,1-.24.24Z"/><path d="M202.72,2.5a.23.23,0,0,1-.24-.24V.5a.23.23,0,0,1,.24-.24h1.63a.23.23,0,0,1,.24.24V2.26a.23.23,0,0,1-.24.24Zm0,14.09a.23.23,0,0,1-.24-.24v-11a.23.23,0,0,1,.24-.24h1.54a.23.23,0,0,1,.24.24v11a.23.23,0,0,1-.24.24Z"/><path d="M206.24,13.73a9,9,0,0,1-.38-2.9,8.93,8.93,0,0,1,.36-2.91,4.83,4.83,0,0,1,9,0,9.73,9.73,0,0,1,.37,3.29.24.24,0,0,1-.27.24h-7.27c-.1,0-.15.05-.15.14a4.33,4.33,0,0,0,.2,1.4,2.83,2.83,0,0,0,2.9,2A3.74,3.74,0,0,0,214,13.71c.12-.13.24-.15.36-.05l1,.89a.21.21,0,0,1,0,.33,5.59,5.59,0,0,1-4.49,2A4.45,4.45,0,0,1,206.24,13.73Zm7.16-3.89a.13.13,0,0,0,.14-.14,4.06,4.06,0,0,0-.17-1.3,2.84,2.84,0,0,0-5.28,0,4.06,4.06,0,0,0-.17,1.3c0,.09.05.14.15.14Z"/><path d="M224.39,16.59a.23.23,0,0,1-.24-.24V9.63c0-1.85-.84-2.93-2.57-2.93a2.58,2.58,0,0,0-2.64,2.8v6.85a.23.23,0,0,1-.24.24h-1.54a.23.23,0,0,1-.24-.24v-11a.23.23,0,0,1,.24-.24h1.54a.23.23,0,0,1,.24.24v1h0a3.67,3.67,0,0,1,3.22-1.56c2.5,0,4,1.71,4,4.32v7.21a.23.23,0,0,1-.24.24Z"/><path d="M231.4,16.71c-2.24,0-3.1-1-3.1-3.27V6.86a.13.13,0,0,0-.14-.14h-1a.23.23,0,0,1-.24-.24V5.33a.22.22,0,0,1,.24-.24h1c.09,0,.14,0,.14-.15V1.7a.23.23,0,0,1,.24-.24h1.54a.23.23,0,0,1,.24.24V4.94c0,.1,0,.15.14.15h1.82a.22.22,0,0,1,.24.24V6.48a.23.23,0,0,1-.24.24h-1.82a.12.12,0,0,0-.14.14v6.51c0,1.15.43,1.46,1.46,1.46h.5a.23.23,0,0,1,.24.24v1.4a.23.23,0,0,1-.24.24Z"/><path d="M233.41,13.75a8.7,8.7,0,0,1-.38-2.92,8.68,8.68,0,0,1,.38-2.91,4.87,4.87,0,0,1,9.07,0,8.4,8.4,0,0,1,.39,2.91,8.42,8.42,0,0,1-.39,2.92,4.87,4.87,0,0,1-9.07,0Zm7.13-.57a7.64,7.64,0,0,0,.26-2.35,7.41,7.41,0,0,0-.26-2.33,2.76,2.76,0,0,0-5.18,0,7.08,7.08,0,0,0-.27,2.33,7.29,7.29,0,0,0,.27,2.35,2.76,2.76,0,0,0,5.18,0Z"/><path d="M255.23,16.59a.23.23,0,0,1-.24-.24V15.24h0a3.49,3.49,0,0,1-3.26,1.61,3.81,3.81,0,0,1-4-2.76,9.58,9.58,0,0,1-.41-3.26,9.63,9.63,0,0,1,.41-3.25,3.81,3.81,0,0,1,4-2.76A3.48,3.48,0,0,1,255,6.41h0V.5a.23.23,0,0,1,.24-.24h1.53A.23.23,0,0,1,257,.5V16.35a.23.23,0,0,1-.24.24Zm-.51-3.36a7.17,7.17,0,0,0,.27-2.4,7.28,7.28,0,0,0-.27-2.41,2.72,2.72,0,0,0-5.06,0,8.33,8.33,0,0,0-.26,2.41,8.09,8.09,0,0,0,.26,2.4,2.7,2.7,0,0,0,5.06,0Z"/><path d="M258.71,13.73a8.94,8.94,0,0,1-.39-2.9,8.93,8.93,0,0,1,.36-2.91,4.84,4.84,0,0,1,9,0,10.08,10.08,0,0,1,.36,3.29.24.24,0,0,1-.27.24h-7.27a.13.13,0,0,0-.14.14,4.37,4.37,0,0,0,.19,1.4,2.84,2.84,0,0,0,2.9,2,3.78,3.78,0,0,0,3-1.27c.12-.13.24-.15.36-.05l1,.89a.21.21,0,0,1,0,.33,5.59,5.59,0,0,1-4.48,2A4.45,4.45,0,0,1,258.71,13.73Zm7.15-3.89A.12.12,0,0,0,266,9.7a4.08,4.08,0,0,0-.16-1.3,2.84,2.84,0,0,0-5.28,0,4.06,4.06,0,0,0-.17,1.3.13.13,0,0,0,.14.14Z"/><path d="M273.28.5a.23.23,0,0,1,.24-.24h1.65a.23.23,0,0,1,.24.24V7.2c0,.1,0,.14.15.14h7.08a.12.12,0,0,0,.14-.14V.5A.23.23,0,0,1,283,.26h1.66a.23.23,0,0,1,.24.24V16.35a.23.23,0,0,1-.24.24H283a.23.23,0,0,1-.24-.24V9.48a.12.12,0,0,0-.14-.14h-7.08c-.1,0-.15,0-.15.14v6.87a.23.23,0,0,1-.24.24h-1.65a.23.23,0,0,1-.24-.24Z"/><path d="M286.67,13.73a8.94,8.94,0,0,1-.39-2.9,8.93,8.93,0,0,1,.36-2.91,4.84,4.84,0,0,1,9,0,10.08,10.08,0,0,1,.36,3.29.24.24,0,0,1-.27.24h-7.27a.13.13,0,0,0-.14.14,4.37,4.37,0,0,0,.19,1.4,2.84,2.84,0,0,0,2.9,2,3.78,3.78,0,0,0,3-1.27c.12-.13.24-.15.36-.05l1,.89a.21.21,0,0,1,0,.33,5.59,5.59,0,0,1-4.48,2A4.45,4.45,0,0,1,286.67,13.73Zm7.15-3.89A.12.12,0,0,0,294,9.7a4.08,4.08,0,0,0-.16-1.3,2.84,2.84,0,0,0-5.28,0,4.06,4.06,0,0,0-.17,1.3.13.13,0,0,0,.14.14Z"/><path d="M297.59,16.59a.23.23,0,0,1-.24-.24v-11a.22.22,0,0,1,.24-.24h1.53a.22.22,0,0,1,.24.24V6.5h0a3.2,3.2,0,0,1,3.05-1.68,3.53,3.53,0,0,1,2.35.87c.12.12.14.21,0,.33L304,7.2a.23.23,0,0,1-.34,0,3.19,3.19,0,0,0-1.77-.55c-1.76,0-2.48,1.36-2.48,3.36v6.29a.23.23,0,0,1-.24.24Z"/><path d="M305.51,16.59a.23.23,0,0,1-.24-.24v-11a.22.22,0,0,1,.24-.24H307a.22.22,0,0,1,.24.24V6.5h0a3.2,3.2,0,0,1,3.05-1.68,3.53,3.53,0,0,1,2.35.87c.12.12.14.21.05.33l-.89,1.18a.23.23,0,0,1-.34,0,3.19,3.19,0,0,0-1.77-.55c-1.76,0-2.48,1.36-2.48,3.36v6.29a.23.23,0,0,1-.24.24Z"/><path d="M319.57,16.59a.23.23,0,0,1-.24-.24v-1h0a3.79,3.79,0,0,1-3.41,1.51c-2.18,0-3.86-1.13-3.86-3.46s1.68-3.55,4.48-3.55h2.62a.12.12,0,0,0,.14-.14V8.86c0-1.59-.62-2.26-2.76-2.26a4.46,4.46,0,0,0-2.78.82.22.22,0,0,1-.34,0l-.64-1.1a.26.26,0,0,1,0-.34,6.42,6.42,0,0,1,3.92-1.13c3.26,0,4.51,1.08,4.51,3.92v7.61a.23.23,0,0,1-.24.24Zm-.29-3.72V11.59a.12.12,0,0,0-.14-.14h-2.3c-2,0-2.86.57-2.86,1.87s.86,1.8,2.4,1.8C318.18,15.12,319.28,14.28,319.28,12.87Z"/><path d="M337.84,16.59a.23.23,0,0,1-.24-.24V9.63c0-1.85-.84-2.93-2.57-2.93a2.59,2.59,0,0,0-2.64,2.8v6.85a.23.23,0,0,1-.24.24h-1.54a.23.23,0,0,1-.24-.24V9.63c0-1.85-.84-2.93-2.57-2.93a2.58,2.58,0,0,0-2.64,2.8v6.85a.23.23,0,0,1-.24.24h-1.53a.23.23,0,0,1-.24-.24v-11a.22.22,0,0,1,.24-.24h1.53a.22.22,0,0,1,.24.24v1h0a4.06,4.06,0,0,1,6.57.24h0a4.29,4.29,0,0,1,3.72-1.8c2.66,0,4.1,1.71,4.1,4.32v7.21a.23.23,0,0,1-.24.24Z"/><path d="M341.7,2.5a.23.23,0,0,1-.24-.24V.5a.23.23,0,0,1,.24-.24h1.63a.23.23,0,0,1,.24.24V2.26a.23.23,0,0,1-.24.24Zm.05,14.09a.23.23,0,0,1-.24-.24v-11a.22.22,0,0,1,.24-.24h1.53a.22.22,0,0,1,.24.24v11a.23.23,0,0,1-.24.24Z"/><path d="M345.23,13.73a8.94,8.94,0,0,1-.39-2.9,8.93,8.93,0,0,1,.36-2.91,4.84,4.84,0,0,1,9,0,10.08,10.08,0,0,1,.36,3.29.24.24,0,0,1-.27.24h-7.27a.12.12,0,0,0-.14.14,4.37,4.37,0,0,0,.19,1.4,2.84,2.84,0,0,0,2.9,2,3.78,3.78,0,0,0,3-1.27c.12-.13.24-.15.36-.05l1,.89a.21.21,0,0,1,0,.33,5.59,5.59,0,0,1-4.48,2A4.45,4.45,0,0,1,345.23,13.73Zm7.15-3.89a.12.12,0,0,0,.14-.14,4.08,4.08,0,0,0-.16-1.3,2.84,2.84,0,0,0-5.28,0,3.8,3.8,0,0,0-.17,1.3.12.12,0,0,0,.14.14Z"/><path d="M363.37,16.59a.23.23,0,0,1-.24-.24V9.63c0-1.85-.84-2.93-2.57-2.93a2.58,2.58,0,0,0-2.64,2.8v6.85a.23.23,0,0,1-.24.24h-1.53a.23.23,0,0,1-.24-.24v-11a.22.22,0,0,1,.24-.24h1.53a.22.22,0,0,1,.24.24v1h0a3.64,3.64,0,0,1,3.21-1.56c2.5,0,4,1.71,4,4.32v7.21a.23.23,0,0,1-.24.24Z"/><path d="M370.38,16.71c-2.23,0-3.1-1-3.1-3.27V6.86a.13.13,0,0,0-.14-.14h-1a.23.23,0,0,1-.24-.24V5.33a.22.22,0,0,1,.24-.24h1c.09,0,.14,0,.14-.15V1.7a.23.23,0,0,1,.24-.24h1.54a.23.23,0,0,1,.24.24V4.94c0,.1.05.15.14.15h1.83a.23.23,0,0,1,.24.24V6.48a.23.23,0,0,1-.24.24h-1.83a.13.13,0,0,0-.14.14v6.51c0,1.15.43,1.46,1.46,1.46h.51a.23.23,0,0,1,.24.24v1.4a.23.23,0,0,1-.24.24Z"/><path d="M379.67,16.59a.23.23,0,0,1-.24-.24v-1h0A3.77,3.77,0,0,1,376,16.85c-2.18,0-3.86-1.13-3.86-3.46s1.68-3.55,4.49-3.55h2.62a.13.13,0,0,0,.14-.14V8.86c0-1.59-.63-2.26-2.76-2.26a4.5,4.5,0,0,0-2.79.82c-.12.09-.26.09-.33,0l-.65-1.1a.26.26,0,0,1,0-.34,6.38,6.38,0,0,1,3.91-1.13c3.27,0,4.51,1.08,4.51,3.92v7.61a.23.23,0,0,1-.24.24Zm-.29-3.72V11.59a.13.13,0,0,0-.14-.14h-2.31c-2,0-2.85.57-2.85,1.87s.86,1.8,2.39,1.8C378.28,15.12,379.38,14.28,379.38,12.87Z"/><path d="M382.45,15.12a.22.22,0,0,1,0-.33l1-1.06a.23.23,0,0,1,.34,0,5.6,5.6,0,0,0,3.55,1.32c1.68,0,2.52-.72,2.52-1.75s-.43-1.42-2.23-1.61l-1.22-.12c-2.26-.24-3.44-1.37-3.44-3.24,0-2.19,1.56-3.51,4.28-3.51a6.88,6.88,0,0,1,4.08,1.28.23.23,0,0,1,.05.33l-.82,1a.24.24,0,0,1-.34,0,6,6,0,0,0-3.09-.93c-1.44,0-2.19.64-2.19,1.58s.55,1.39,2.26,1.56l1.2.12c2.33.22,3.46,1.39,3.46,3.24,0,2.26-1.64,3.77-4.64,3.77A7.13,7.13,0,0,1,382.45,15.12Z"/><path d="M393,14h1.67a.23.23,0,0,1,.24.24v2.23a.77.77,0,0,1-.14.53l-1.49,2a.37.37,0,0,1-.31.17.22.22,0,0,1-.22-.22V14.28A.23.23,0,0,1,393,14Z"/><path d="M1.05,41.73a8.94,8.94,0,0,1-.39-2.9A8.93,8.93,0,0,1,1,35.92a4.46,4.46,0,0,1,4.52-3.1,4.46,4.46,0,0,1,4.51,3.1,10.08,10.08,0,0,1,.36,3.29.24.24,0,0,1-.27.24H2.87a.13.13,0,0,0-.14.14A4.37,4.37,0,0,0,2.92,41a2.83,2.83,0,0,0,2.9,2,3.78,3.78,0,0,0,3-1.27c.12-.13.24-.15.36-.05l1,.89a.21.21,0,0,1,0,.33,5.59,5.59,0,0,1-4.48,2A4.45,4.45,0,0,1,1.05,41.73ZM8.2,37.84a.12.12,0,0,0,.14-.14,4.08,4.08,0,0,0-.16-1.3,2.61,2.61,0,0,0-2.64-1.8A2.59,2.59,0,0,0,2.9,36.4a4.06,4.06,0,0,0-.17,1.3.13.13,0,0,0,.14.14Z"/><path d="M19.41,48.91a.23.23,0,0,1-.24-.24V43.24h0a3.49,3.49,0,0,1-3.26,1.61,3.8,3.8,0,0,1-4-2.76,9.58,9.58,0,0,1-.41-3.26,9.63,9.63,0,0,1,.41-3.25,3.8,3.8,0,0,1,4-2.76,3.48,3.48,0,0,1,3.26,1.59h0V33.33a.22.22,0,0,1,.24-.24h1.53a.22.22,0,0,1,.24.24V48.67a.23.23,0,0,1-.24.24Zm-.51-7.68a7.17,7.17,0,0,0,.27-2.4,7.28,7.28,0,0,0-.27-2.41,2.43,2.43,0,0,0-2.54-1.72,2.44,2.44,0,0,0-2.52,1.72,8.33,8.33,0,0,0-.26,2.41,8.09,8.09,0,0,0,.26,2.4A2.46,2.46,0,0,0,16.36,43,2.46,2.46,0,0,0,18.9,41.23Z"/><path d="M30.9,44.59a.23.23,0,0,1-.24-.24V43.27h0a3.51,3.51,0,0,1-3.15,1.58c-2.52,0-4-1.73-4-4.35V33.33a.23.23,0,0,1,.24-.24h1.54a.23.23,0,0,1,.24.24V40c0,1.88.84,3,2.54,3a2.55,2.55,0,0,0,2.59-2.83V33.33a.23.23,0,0,1,.24-.24h1.54a.23.23,0,0,1,.24.24v11a.23.23,0,0,1-.24.24Z"/><path d="M35.37,30.5a.23.23,0,0,1-.24-.24V28.5a.23.23,0,0,1,.24-.24H37a.23.23,0,0,1,.24.24v1.76a.23.23,0,0,1-.24.24Zm0,14.09a.23.23,0,0,1-.24-.24v-11a.23.23,0,0,1,.24-.24H37a.23.23,0,0,1,.24.24v11a.23.23,0,0,1-.24.24Z"/><path d="M39.93,48.91a.23.23,0,0,1-.24-.24V33.33a.22.22,0,0,1,.24-.24h1.53a.22.22,0,0,1,.24.24v1.08h0A3.48,3.48,0,0,1,45,32.82a3.81,3.81,0,0,1,4,2.76,9.63,9.63,0,0,1,.41,3.25A9.58,9.58,0,0,1,49,42.09a3.81,3.81,0,0,1-4,2.76,3.49,3.49,0,0,1-3.26-1.61h0v5.43a.23.23,0,0,1-.24.24ZM47,41.23a8.09,8.09,0,0,0,.26-2.4A8.33,8.33,0,0,0,47,36.42a2.72,2.72,0,0,0-5.06,0,7.28,7.28,0,0,0-.27,2.41,7.17,7.17,0,0,0,.27,2.4,2.7,2.7,0,0,0,5.06,0Z"/><path d="M50.85,41.75a8.42,8.42,0,0,1-.39-2.92,8.4,8.4,0,0,1,.39-2.91,4.43,4.43,0,0,1,4.53-3.1,4.45,4.45,0,0,1,4.54,3.1,8.68,8.68,0,0,1,.38,2.91,8.7,8.7,0,0,1-.38,2.92,4.48,4.48,0,0,1-4.54,3.1A4.46,4.46,0,0,1,50.85,41.75ZM58,41.18a7.29,7.29,0,0,0,.27-2.35A7.08,7.08,0,0,0,58,36.5a2.76,2.76,0,0,0-5.18,0,7.41,7.41,0,0,0-.26,2.33,7.64,7.64,0,0,0,.26,2.35,2.76,2.76,0,0,0,5.18,0Z"/><path d="M61.31,43.12a.22.22,0,0,1,0-.33l1-1.06a.23.23,0,0,1,.34,0,5.6,5.6,0,0,0,3.55,1.32c1.68,0,2.52-.72,2.52-1.75s-.43-1.42-2.23-1.61l-1.23-.12c-2.25-.24-3.43-1.37-3.43-3.24,0-2.19,1.56-3.51,4.28-3.51a6.88,6.88,0,0,1,4.08,1.28.22.22,0,0,1,0,.33l-.81,1a.24.24,0,0,1-.34,0A6,6,0,0,0,66,34.58c-1.44,0-2.19.64-2.19,1.58s.55,1.39,2.26,1.56l1.2.12c2.33.22,3.45,1.39,3.45,3.24,0,2.26-1.63,3.77-4.63,3.77A7.11,7.11,0,0,1,61.31,43.12Z"/><path d="M76.84,48.91a.23.23,0,0,1-.24-.24v-1.4a.23.23,0,0,1,.24-.24h.43c.93,0,1.44-.4,1.94-1.72l.39-1.06L75.37,33.33c0-.15,0-.24.19-.24h1.68a.27.27,0,0,1,.29.24l3,8.3h0l2.9-8.3a.28.28,0,0,1,.29-.24h1.63c.14,0,.24.09.19.24L81.08,45.47c-1,2.72-1.89,3.44-3.62,3.44Z"/><path d="M91.55,28.24a.31.31,0,0,1,.31-.24h1.3a.17.17,0,0,1,.17.24L88,44.61a.32.32,0,0,1-.32.24H86.41a.17.17,0,0,1-.17-.24Z"/><path d="M95,41.75a8.7,8.7,0,0,1-.38-2.92A8.68,8.68,0,0,1,95,35.92a4.87,4.87,0,0,1,9.08,0,8.68,8.68,0,0,1,.38,2.91,8.7,8.7,0,0,1-.38,2.92,4.87,4.87,0,0,1-9.08,0Zm7.13-.57a7.29,7.29,0,0,0,.27-2.35,7.08,7.08,0,0,0-.27-2.33,2.76,2.76,0,0,0-5.18,0,7.36,7.36,0,0,0-.27,2.33A7.59,7.59,0,0,0,97,41.18a2.76,2.76,0,0,0,5.18,0Z"/><path d="M110.63,28.5a.23.23,0,0,1,.24-.24h9.82a.22.22,0,0,1,.23.24V30a.22.22,0,0,1-.23.24h-7.78c-.1,0-.15,0-.15.14v4.8c0,.1,0,.14.15.14h6.6a.23.23,0,0,1,.24.24V37.1a.23.23,0,0,1-.24.24h-6.6c-.1,0-.15,0-.15.14v5c0,.1,0,.14.15.14h7.78a.22.22,0,0,1,.23.24v1.52a.22.22,0,0,1-.23.24h-9.82a.23.23,0,0,1-.24-.24Z"/><path d="M122.94,44.59a.23.23,0,0,1-.24-.24V28.5a.23.23,0,0,1,.24-.24h5.81c3.14,0,5.18,1.92,5.18,4.88s-2,4.87-5.18,4.87H125a.12.12,0,0,0-.14.14v6.2a.23.23,0,0,1-.24.24Zm8.88-11.45c0-1.78-1.18-2.88-3.19-2.88H125c-.1,0-.14,0-.14.14v5.47c0,.1,0,.15.14.15h3.65C130.64,36,131.82,34.91,131.82,33.14Z"/><path d="M135.71,44.59a.23.23,0,0,1-.24-.24V28.5a.23.23,0,0,1,.24-.24h5.81c3.14,0,5.18,1.92,5.18,4.88s-2,4.87-5.18,4.87h-3.77c-.1,0-.15.05-.15.14v6.2a.23.23,0,0,1-.24.24Zm8.88-11.45c0-1.78-1.18-2.88-3.19-2.88h-3.65c-.1,0-.15,0-.15.14v5.47a.13.13,0,0,0,.15.15h3.65C143.41,36,144.59,34.91,144.59,33.14Z"/><path d="M167.2,44.59a.23.23,0,0,1-.24-.24V37.63c0-1.85-.84-2.93-2.57-2.93a2.59,2.59,0,0,0-2.64,2.8v6.85a.23.23,0,0,1-.24.24H160a.23.23,0,0,1-.24-.24V37.63c0-1.85-.84-2.93-2.57-2.93a2.58,2.58,0,0,0-2.64,2.8v6.85a.23.23,0,0,1-.24.24h-1.53a.23.23,0,0,1-.24-.24v-11a.22.22,0,0,1,.24-.24h1.53a.22.22,0,0,1,.24.24v1.05h0a4.06,4.06,0,0,1,6.57.24h0a4.29,4.29,0,0,1,3.72-1.8c2.66,0,4.1,1.71,4.1,4.32v7.21a.23.23,0,0,1-.24.24Z"/><path d="M178.31,44.59a.23.23,0,0,1-.24-.24v-1h0a3.75,3.75,0,0,1-3.4,1.51c-2.19,0-3.87-1.13-3.87-3.46s1.68-3.55,4.49-3.55h2.62a.13.13,0,0,0,.14-.14v-.84c0-1.59-.62-2.26-2.76-2.26a4.44,4.44,0,0,0-2.78.82.22.22,0,0,1-.34,0l-.65-1.1a.26.26,0,0,1,0-.34,6.38,6.38,0,0,1,3.91-1.13c3.27,0,4.51,1.08,4.51,3.92v7.61a.23.23,0,0,1-.24.24ZM178,40.87V39.59a.13.13,0,0,0-.14-.14h-2.31c-2,0-2.85.57-2.85,1.87s.86,1.8,2.4,1.8C176.92,43.12,178,42.28,178,40.87Z"/><path d="M189.83,44.59a.23.23,0,0,1-.24-.24V37.63c0-1.85-.84-2.93-2.57-2.93a2.58,2.58,0,0,0-2.64,2.8v6.85a.23.23,0,0,1-.24.24H182.6a.23.23,0,0,1-.24-.24v-11a.23.23,0,0,1,.24-.24h1.54a.23.23,0,0,1,.24.24v1.05h0a3.67,3.67,0,0,1,3.22-1.56c2.5,0,4,1.71,4,4.32v7.21a.23.23,0,0,1-.24.24Z"/><path d="M197.32,44.71c-2.24,0-3.1-1-3.1-3.27V34.86a.13.13,0,0,0-.14-.14h-1a.23.23,0,0,1-.25-.24V33.33a.23.23,0,0,1,.25-.24h1c.09,0,.14-.05.14-.15V29.7a.23.23,0,0,1,.24-.24H196a.23.23,0,0,1,.25.24v3.24c0,.1,0,.15.14.15h1.82a.22.22,0,0,1,.24.24v1.15a.23.23,0,0,1-.24.24h-1.82a.12.12,0,0,0-.14.14v6.51c0,1.15.43,1.46,1.46,1.46h.5a.23.23,0,0,1,.24.24v1.4a.23.23,0,0,1-.24.24Z"/><path d="M199.81,41.73a9,9,0,0,1-.38-2.9,8.93,8.93,0,0,1,.36-2.91,4.83,4.83,0,0,1,9,0,10.08,10.08,0,0,1,.36,3.29.23.23,0,0,1-.26.24h-7.27c-.1,0-.15,0-.15.14a4.37,4.37,0,0,0,.19,1.4,2.84,2.84,0,0,0,2.91,2,3.74,3.74,0,0,0,2.95-1.27c.12-.13.24-.15.36-.05l1,.89a.21.21,0,0,1,0,.33,5.59,5.59,0,0,1-4.49,2A4.45,4.45,0,0,1,199.81,41.73ZM207,37.84c.1,0,.15-.05.15-.14a4.06,4.06,0,0,0-.17-1.3,2.84,2.84,0,0,0-5.28,0,4.06,4.06,0,0,0-.17,1.3c0,.09,0,.14.15.14Z"/><path d="M218.44,44.59a.23.23,0,0,1-.24-.24V37.63c0-1.85-.84-2.93-2.57-2.93A2.58,2.58,0,0,0,213,37.5v6.85a.23.23,0,0,1-.24.24h-1.54a.23.23,0,0,1-.24-.24v-11a.23.23,0,0,1,.24-.24h1.54a.23.23,0,0,1,.24.24v1.05h0a3.66,3.66,0,0,1,3.22-1.56c2.49,0,4,1.71,4,4.32v7.21a.23.23,0,0,1-.24.24Z"/><path d="M222.35,47.47a.22.22,0,0,1,0-.34l1-1a.22.22,0,0,1,.36,0,3.86,3.86,0,0,0,2.72,1.15c1.89,0,2.9-1,2.9-3.1V42.86h0a3.31,3.31,0,0,1-3.19,1.58,3.77,3.77,0,0,1-3.87-2.78,9,9,0,0,1-.38-3,8.92,8.92,0,0,1,.38-3,3.78,3.78,0,0,1,3.87-2.79,3.31,3.31,0,0,1,3.19,1.59h0V33.33a.23.23,0,0,1,.24-.24h1.54a.23.23,0,0,1,.24.24V44.08c0,3.27-1.78,5.09-5,5.09A5.2,5.2,0,0,1,222.35,47.47Zm6.72-6.6a7.11,7.11,0,0,0,.26-2.24,7.16,7.16,0,0,0-.26-2.23,2.6,2.6,0,0,0-4.88,0,7.3,7.3,0,0,0-.28,2.23,7.24,7.24,0,0,0,.28,2.24,2.59,2.59,0,0,0,4.88,0Z"/><path d="M240.8,44.59a.23.23,0,0,1-.24-.24v-1h0a3.79,3.79,0,0,1-3.41,1.51c-2.18,0-3.86-1.13-3.86-3.46s1.68-3.55,4.48-3.55h2.62a.12.12,0,0,0,.14-.14v-.84c0-1.59-.62-2.26-2.76-2.26a4.46,4.46,0,0,0-2.78.82.22.22,0,0,1-.34,0l-.64-1.1a.26.26,0,0,1,0-.34A6.42,6.42,0,0,1,238,32.82c3.26,0,4.51,1.08,4.51,3.92v7.61a.23.23,0,0,1-.24.24Zm-.29-3.72V39.59a.12.12,0,0,0-.14-.14h-2.3c-2,0-2.86.57-2.86,1.87s.86,1.8,2.4,1.8C239.41,43.12,240.51,42.28,240.51,40.87Z"/><path d="M251.94,44.71c-2,0-2.81-1-2.81-3V28.5a.23.23,0,0,1,.24-.24h1.54a.23.23,0,0,1,.24.24V41.56c0,1,.36,1.27,1.15,1.27h.45a.23.23,0,0,1,.24.24v1.4a.23.23,0,0,1-.24.24Z"/><path d="M254.07,41.75a8.7,8.7,0,0,1-.38-2.92,8.68,8.68,0,0,1,.38-2.91,4.87,4.87,0,0,1,9.08,0,8.68,8.68,0,0,1,.38,2.91,8.7,8.7,0,0,1-.38,2.92,4.87,4.87,0,0,1-9.08,0Zm7.13-.57a7.59,7.59,0,0,0,.27-2.35,7.36,7.36,0,0,0-.27-2.33,2.76,2.76,0,0,0-5.18,0,7.36,7.36,0,0,0-.27,2.33,7.59,7.59,0,0,0,.27,2.35,2.76,2.76,0,0,0,5.18,0Z"/><path d="M264.54,43.12a.22.22,0,0,1,0-.33l1-1.06a.23.23,0,0,1,.34,0,5.6,5.6,0,0,0,3.55,1.32c1.68,0,2.52-.72,2.52-1.75s-.43-1.42-2.23-1.61l-1.23-.12c-2.25-.24-3.43-1.37-3.43-3.24,0-2.19,1.56-3.51,4.27-3.51a6.88,6.88,0,0,1,4.08,1.28.23.23,0,0,1,.05.33l-.81,1a.24.24,0,0,1-.34,0,6,6,0,0,0-3.1-.93c-1.44,0-2.18.64-2.18,1.58s.55,1.39,2.26,1.56l1.2.12c2.32.22,3.45,1.39,3.45,3.24,0,2.26-1.63,3.77-4.63,3.77A7.11,7.11,0,0,1,264.54,43.12Z"/><path d="M294.66,44.59a.23.23,0,0,1-.24-.24V37.63c0-1.85-.84-2.93-2.57-2.93a2.59,2.59,0,0,0-2.64,2.8v6.85a.23.23,0,0,1-.24.24h-1.54a.23.23,0,0,1-.24-.24V37.63c0-1.85-.84-2.93-2.56-2.93A2.58,2.58,0,0,0,282,37.5v6.85a.23.23,0,0,1-.25.24h-1.53a.23.23,0,0,1-.24-.24v-11a.23.23,0,0,1,.24-.24h1.53a.23.23,0,0,1,.25.24v1.05h0a3.66,3.66,0,0,1,3.22-1.56,3.62,3.62,0,0,1,3.36,1.8h0a4.29,4.29,0,0,1,3.72-1.8c2.66,0,4.1,1.71,4.1,4.32v7.21a.23.23,0,0,1-.24.24Z"/><path d="M299,30.5a.23.23,0,0,1-.24-.24V28.5a.23.23,0,0,1,.24-.24h1.63a.23.23,0,0,1,.24.24v1.76a.23.23,0,0,1-.24.24Zm.05,14.09a.23.23,0,0,1-.24-.24v-11a.23.23,0,0,1,.24-.24h1.53a.23.23,0,0,1,.25.24v11a.23.23,0,0,1-.25.24Z"/><path d="M302.53,43.12a.22.22,0,0,1,0-.33l1-1.06a.23.23,0,0,1,.34,0,5.6,5.6,0,0,0,3.55,1.32c1.68,0,2.52-.72,2.52-1.75s-.43-1.42-2.23-1.61l-1.23-.12c-2.25-.24-3.43-1.37-3.43-3.24,0-2.19,1.56-3.51,4.28-3.51a6.88,6.88,0,0,1,4.08,1.28.22.22,0,0,1,0,.33l-.81,1a.24.24,0,0,1-.34,0,6,6,0,0,0-3.09-.93c-1.45,0-2.19.64-2.19,1.58s.55,1.39,2.26,1.56l1.2.12c2.33.22,3.45,1.39,3.45,3.24,0,2.26-1.63,3.77-4.63,3.77A7.11,7.11,0,0,1,302.53,43.12Z"/><path d="M328.33,44.59a.23.23,0,0,1-.24-.24V37.63c0-1.85-.84-2.93-2.57-2.93a2.59,2.59,0,0,0-2.64,2.8v6.85a.23.23,0,0,1-.24.24h-1.53a.23.23,0,0,1-.24-.24V37.63c0-1.85-.84-2.93-2.57-2.93a2.58,2.58,0,0,0-2.64,2.8v6.85a.23.23,0,0,1-.24.24h-1.54a.23.23,0,0,1-.24-.24v-11a.23.23,0,0,1,.24-.24h1.54a.23.23,0,0,1,.24.24v1.05h0a3.66,3.66,0,0,1,3.22-1.56,3.62,3.62,0,0,1,3.36,1.8h0a4.29,4.29,0,0,1,3.72-1.8c2.67,0,4.11,1.71,4.11,4.32v7.21a.23.23,0,0,1-.24.24Z"/><path d="M332.17,41.75a8.42,8.42,0,0,1-.39-2.92,8.4,8.4,0,0,1,.39-2.91,4.87,4.87,0,0,1,9.07,0,8.43,8.43,0,0,1,.38,2.91,8.45,8.45,0,0,1-.38,2.92,4.87,4.87,0,0,1-9.07,0Zm7.13-.57a7.64,7.64,0,0,0,.26-2.35,7.41,7.41,0,0,0-.26-2.33,2.77,2.77,0,0,0-5.19,0,7.41,7.41,0,0,0-.26,2.33,7.64,7.64,0,0,0,.26,2.35,2.77,2.77,0,0,0,5.19,0Z"/><path d="M342.63,43.12a.24.24,0,0,1,0-.33l1-1.06a.22.22,0,0,1,.33,0,5.62,5.62,0,0,0,3.55,1.32c1.68,0,2.53-.72,2.53-1.75s-.44-1.42-2.24-1.61l-1.22-.12c-2.26-.24-3.43-1.37-3.43-3.24,0-2.19,1.56-3.51,4.27-3.51a6.88,6.88,0,0,1,4.08,1.28.23.23,0,0,1,.05.33l-.82,1a.24.24,0,0,1-.34,0,6,6,0,0,0-3.09-.93c-1.44,0-2.19.64-2.19,1.58s.56,1.39,2.26,1.56l1.2.12c2.33.22,3.46,1.39,3.46,3.24,0,2.26-1.64,3.77-4.64,3.77A7.13,7.13,0,0,1,342.63,43.12Z"/><path d="M365.26,48.91a.23.23,0,0,1-.24-.24V43.24h0a3.5,3.5,0,0,1-3.26,1.61,3.79,3.79,0,0,1-4-2.76,9.34,9.34,0,0,1-.41-3.26,9.38,9.38,0,0,1,.41-3.25,3.79,3.79,0,0,1,4-2.76A3.49,3.49,0,0,1,365,34.41h0V33.33a.23.23,0,0,1,.24-.24h1.54a.22.22,0,0,1,.24.24V48.67a.23.23,0,0,1-.24.24Zm-.5-7.68a7.51,7.51,0,0,0,.26-2.4,7.62,7.62,0,0,0-.26-2.41,2.72,2.72,0,0,0-5.06,0,8,8,0,0,0-.27,2.41,7.72,7.72,0,0,0,.27,2.4,2.7,2.7,0,0,0,5.06,0Z"/><path d="M376.76,44.59a.23.23,0,0,1-.24-.24V43.27h0a3.51,3.51,0,0,1-3.15,1.58c-2.52,0-4-1.73-4-4.35V33.33a.22.22,0,0,1,.24-.24h1.53a.22.22,0,0,1,.24.24V40c0,1.88.84,3,2.55,3a2.55,2.55,0,0,0,2.59-2.83V33.33a.23.23,0,0,1,.24-.24h1.54a.23.23,0,0,1,.24.24v11a.23.23,0,0,1-.24.24Z"/><path d="M380.72,41.73a8.94,8.94,0,0,1-.39-2.9,8.62,8.62,0,0,1,.37-2.91,4.83,4.83,0,0,1,9,0,10.08,10.08,0,0,1,.36,3.29.24.24,0,0,1-.26.24h-7.28a.13.13,0,0,0-.14.14,4.37,4.37,0,0,0,.19,1.4,2.84,2.84,0,0,0,2.9,2,3.78,3.78,0,0,0,3-1.27c.12-.13.24-.15.36-.05l1,.89a.21.21,0,0,1,0,.33,5.62,5.62,0,0,1-4.49,2A4.45,4.45,0,0,1,380.72,41.73Zm7.15-3.89c.1,0,.15-.05.15-.14a4.06,4.06,0,0,0-.17-1.3,2.84,2.84,0,0,0-5.28,0,4.06,4.06,0,0,0-.17,1.3.13.13,0,0,0,.14.14Z"/><path d="M4.43,72.59c-.17,0-.24-.1-.29-.24L0,61.33c0-.15,0-.24.2-.24H1.86c.17,0,.24.07.31.24l3,8.25h0l2.9-8.25a.28.28,0,0,1,.29-.24H10c.17,0,.24.09.2.24l-4.11,11a.31.31,0,0,1-.31.24Z"/><path d="M17.73,72.59a.23.23,0,0,1-.24-.24v-1h0a3.75,3.75,0,0,1-3.4,1.51c-2.19,0-3.87-1.13-3.87-3.46s1.68-3.55,4.49-3.55H17.3a.13.13,0,0,0,.14-.14v-.84c0-1.59-.62-2.26-2.76-2.26a4.44,4.44,0,0,0-2.78.82.22.22,0,0,1-.34,0l-.65-1.1A.26.26,0,0,1,11,62a6.38,6.38,0,0,1,3.91-1.13c3.27,0,4.51,1.08,4.51,3.92v7.61a.23.23,0,0,1-.24.24Zm-.29-3.72V67.59a.13.13,0,0,0-.14-.14H15c-2,0-2.85.58-2.85,1.87s.86,1.8,2.4,1.8C16.34,71.12,17.44,70.28,17.44,68.87Z"/><path d="M32.1,72.59a.23.23,0,0,1-.24-.24v-1h0a3.79,3.79,0,0,1-3.41,1.51c-2.18,0-3.86-1.13-3.86-3.46s1.68-3.55,4.49-3.55h2.61c.1,0,.15,0,.15-.14v-.84c0-1.59-.63-2.26-2.76-2.26a4.48,4.48,0,0,0-2.79.82c-.12.09-.26.09-.33,0l-.65-1.1a.26.26,0,0,1,0-.34,6.42,6.42,0,0,1,3.92-1.13c3.26,0,4.51,1.08,4.51,3.92v7.61a.23.23,0,0,1-.24.24Zm-.28-3.72V67.59c0-.09-.05-.14-.15-.14h-2.3c-2,0-2.86.58-2.86,1.87s.86,1.8,2.4,1.8C30.71,71.12,31.82,70.28,31.82,68.87Z"/><path d="M46.74,72.59a.23.23,0,0,1-.24-.24V71.27h0a3.51,3.51,0,0,1-3.15,1.58c-2.52,0-4-1.73-4-4.35V61.33a.23.23,0,0,1,.24-.24h1.54a.23.23,0,0,1,.24.24V68c0,1.87.84,3,2.54,3a2.55,2.55,0,0,0,2.59-2.83V61.33a.23.23,0,0,1,.24-.24h1.54a.23.23,0,0,1,.24.24v11a.23.23,0,0,1-.24.24Z"/><path d="M53.87,72.71c-2.23,0-3.1-1-3.1-3.27V62.86a.12.12,0,0,0-.14-.14h-1a.23.23,0,0,1-.24-.24V61.33a.23.23,0,0,1,.24-.24h1c.1,0,.14-.05.14-.15V57.7a.23.23,0,0,1,.24-.24h1.54a.23.23,0,0,1,.24.24v3.24c0,.1.05.15.14.15h1.83a.23.23,0,0,1,.24.24v1.15a.23.23,0,0,1-.24.24H52.93a.13.13,0,0,0-.14.14v6.51c0,1.15.43,1.46,1.46,1.46h.51a.23.23,0,0,1,.24.24v1.4a.23.23,0,0,1-.24.24Z"/><path d="M56.39,58.5a.23.23,0,0,1-.24-.24V56.5a.23.23,0,0,1,.24-.24H58a.23.23,0,0,1,.24.24v1.76a.23.23,0,0,1-.24.24Zm0,14.09a.23.23,0,0,1-.24-.24v-11a.22.22,0,0,1,.24-.24H58a.22.22,0,0,1,.24.24v11a.23.23,0,0,1-.24.24Z"/><path d="M63,72.71c-2,0-2.81-1-2.81-3V56.5a.23.23,0,0,1,.24-.24H62a.23.23,0,0,1,.24.24V69.56c0,1,.36,1.27,1.15,1.27h.46a.23.23,0,0,1,.24.24v1.4a.23.23,0,0,1-.24.24Z"/><path d="M65.15,58.5a.23.23,0,0,1-.24-.24V56.5a.23.23,0,0,1,.24-.24h1.63a.23.23,0,0,1,.24.24v1.76a.23.23,0,0,1-.24.24Zm0,14.09a.23.23,0,0,1-.24-.24v-11a.22.22,0,0,1,.24-.24h1.53a.22.22,0,0,1,.24.24v11a.23.23,0,0,1-.24.24Z"/><path d="M68.58,72.59a.23.23,0,0,1-.24-.24V71.07a.37.37,0,0,1,.1-.26L74.75,63v-.05H68.89a.23.23,0,0,1-.24-.24V61.33a.23.23,0,0,1,.24-.24h8a.23.23,0,0,1,.24.24v1.34a.35.35,0,0,1-.1.27l-6.26,7.77v.05h6.12a.23.23,0,0,1,.24.24v1.35a.23.23,0,0,1-.24.24Z"/><path d="M85.48,72.59a.23.23,0,0,1-.24-.24v-1h0a3.75,3.75,0,0,1-3.4,1.51c-2.19,0-3.87-1.13-3.87-3.46s1.68-3.55,4.49-3.55h2.62a.13.13,0,0,0,.14-.14v-.84c0-1.59-.62-2.26-2.76-2.26a4.44,4.44,0,0,0-2.78.82.22.22,0,0,1-.34,0l-.65-1.1a.26.26,0,0,1,0-.34,6.38,6.38,0,0,1,3.91-1.13c3.27,0,4.51,1.08,4.51,3.92v7.61a.23.23,0,0,1-.24.24Zm-.29-3.72V67.59a.13.13,0,0,0-.14-.14H82.74c-2,0-2.85.58-2.85,1.87s.86,1.8,2.4,1.8C84.09,71.12,85.19,70.28,85.19,68.87Z"/><path d="M89.29,72.59a.23.23,0,0,1-.24-.24v-11a.23.23,0,0,1,.24-.24h1.54a.23.23,0,0,1,.24.24V62.5h0a3.23,3.23,0,0,1,3-1.68,3.51,3.51,0,0,1,2.35.87c.12.12.15.21.05.33l-.89,1.18a.21.21,0,0,1-.33,0,3.23,3.23,0,0,0-1.78-.55c-1.75,0-2.47,1.36-2.47,3.36v6.29a.23.23,0,0,1-.24.24Z"/><path d="M103.57,72.71c-2,0-2.8-1-2.8-3V56.5a.22.22,0,0,1,.23-.24h1.54a.23.23,0,0,1,.24.24V69.56c0,1,.36,1.27,1.15,1.27h.46a.23.23,0,0,1,.24.24v1.4a.23.23,0,0,1-.24.24Z"/><path d="M105.23,69.75a8.42,8.42,0,0,1-.39-2.92,8.4,8.4,0,0,1,.39-2.91,4.87,4.87,0,0,1,9.07,0,8.4,8.4,0,0,1,.39,2.91,8.42,8.42,0,0,1-.39,2.92,4.87,4.87,0,0,1-9.07,0Zm7.13-.57a7.64,7.64,0,0,0,.26-2.35,7.41,7.41,0,0,0-.26-2.33,2.77,2.77,0,0,0-5.19,0,7.41,7.41,0,0,0-.26,2.33,7.64,7.64,0,0,0,.26,2.35,2.77,2.77,0,0,0,5.19,0Z"/><path d="M134.53,72.59a.23.23,0,0,1-.24-.24V65.63c0-1.85-.84-2.93-2.56-2.93a2.59,2.59,0,0,0-2.65,2.8v6.85a.23.23,0,0,1-.24.24h-1.53a.23.23,0,0,1-.24-.24V65.63c0-1.85-.84-2.93-2.57-2.93a2.58,2.58,0,0,0-2.64,2.8v6.85a.23.23,0,0,1-.24.24h-1.54a.23.23,0,0,1-.24-.24v-11a.23.23,0,0,1,.24-.24h1.54a.23.23,0,0,1,.24.24v1.05h0a3.67,3.67,0,0,1,3.22-1.56,3.62,3.62,0,0,1,3.36,1.8h0a4.27,4.27,0,0,1,3.71-1.8c2.67,0,4.11,1.71,4.11,4.32v7.21a.23.23,0,0,1-.24.24Z"/><path d="M145.16,72.59a.23.23,0,0,1-.24-.24v-1h0a3.79,3.79,0,0,1-3.41,1.51c-2.18,0-3.86-1.13-3.86-3.46s1.68-3.55,4.49-3.55h2.61c.1,0,.15,0,.15-.14v-.84c0-1.59-.63-2.26-2.76-2.26a4.48,4.48,0,0,0-2.79.82c-.12.09-.26.09-.33,0l-.65-1.1a.26.26,0,0,1,.05-.34,6.36,6.36,0,0,1,3.91-1.13c3.26,0,4.51,1.08,4.51,3.92v7.61a.23.23,0,0,1-.24.24Zm-.28-3.72V67.59c0-.09,0-.14-.15-.14h-2.3c-2,0-2.86.58-2.86,1.87s.87,1.8,2.4,1.8C143.77,71.12,144.88,70.28,144.88,68.87Zm-3.24-9.65c-.15,0-.22-.1-.15-.24l1.83-3a.42.42,0,0,1,.4-.24h1.59a.14.14,0,0,1,.12.24l-2.21,3a.48.48,0,0,1-.46.24Z"/><path d="M148,71.12a.22.22,0,0,1,0-.33l1-1.06a.23.23,0,0,1,.34,0,5.6,5.6,0,0,0,3.55,1.32c1.68,0,2.52-.72,2.52-1.75s-.43-1.42-2.23-1.61l-1.23-.12c-2.25-.24-3.43-1.37-3.43-3.24,0-2.19,1.56-3.51,4.27-3.51a6.86,6.86,0,0,1,4.08,1.28.23.23,0,0,1,0,.33l-.81,1a.24.24,0,0,1-.34,0,6,6,0,0,0-3.1-.93c-1.44,0-2.18.64-2.18,1.58s.55,1.39,2.26,1.56l1.2.12c2.32.22,3.45,1.39,3.45,3.24,0,2.26-1.63,3.77-4.63,3.77A7.11,7.11,0,0,1,148,71.12Z"/><path d="M162.08,63.92a4.46,4.46,0,0,1,4.54-3.1,4.62,4.62,0,0,1,3.94,2c.07.12.07.21-.08.33l-1,.87a.22.22,0,0,1-.34,0,2.82,2.82,0,0,0-2.47-1.24,2.5,2.5,0,0,0-2.57,1.8,10.66,10.66,0,0,0,0,4.68,2.5,2.5,0,0,0,2.57,1.8,2.82,2.82,0,0,0,2.47-1.25.22.22,0,0,1,.34,0l1,.86c.15.12.15.22.08.34a4.62,4.62,0,0,1-3.94,1.94,4.45,4.45,0,0,1-4.54-3.1,12,12,0,0,1,0-5.83Z"/><path d="M171.23,69.73a11.44,11.44,0,0,1,0-5.81,4.84,4.84,0,0,1,9,0,10.08,10.08,0,0,1,.36,3.29.24.24,0,0,1-.27.24h-7.27a.12.12,0,0,0-.14.14,4.37,4.37,0,0,0,.19,1.4,2.84,2.84,0,0,0,2.9,2,3.78,3.78,0,0,0,3-1.27c.12-.13.24-.15.36,0l1,.88a.22.22,0,0,1,0,.34,5.59,5.59,0,0,1-4.48,2A4.45,4.45,0,0,1,171.23,69.73Zm7.15-3.89a.12.12,0,0,0,.14-.14,4.08,4.08,0,0,0-.16-1.3,2.84,2.84,0,0,0-5.28,0,3.8,3.8,0,0,0-.17,1.3.12.12,0,0,0,.14.14Z"/><path d="M182.15,72.59a.23.23,0,0,1-.24-.24v-11a.22.22,0,0,1,.24-.24h1.53a.22.22,0,0,1,.24.24V62.5h0a3.2,3.2,0,0,1,3-1.68,3.54,3.54,0,0,1,2.36.87c.12.12.14.21.05.33l-.89,1.18a.23.23,0,0,1-.34,0,3.19,3.19,0,0,0-1.77-.55c-1.76,0-2.48,1.36-2.48,3.36v6.29a.23.23,0,0,1-.24.24Z"/><path d="M189.06,63.92a4.46,4.46,0,0,1,4.54-3.1,4.61,4.61,0,0,1,3.93,2c.07.12.07.21-.07.33L196.4,64a.21.21,0,0,1-.33,0,2.82,2.82,0,0,0-2.47-1.24A2.49,2.49,0,0,0,191,64.5a10.27,10.27,0,0,0,0,4.68A2.49,2.49,0,0,0,193.6,71a2.82,2.82,0,0,0,2.47-1.25.21.21,0,0,1,.33,0l1.06.86a.23.23,0,0,1,.07.34,4.6,4.6,0,0,1-3.93,1.94,4.45,4.45,0,0,1-4.54-3.1,12,12,0,0,1,0-5.83Z"/><path d="M205.48,72.59a.23.23,0,0,1-.24-.24v-1h0a3.77,3.77,0,0,1-3.41,1.51c-2.18,0-3.86-1.13-3.86-3.46s1.68-3.55,4.49-3.55H205c.1,0,.15,0,.15-.14v-.84c0-1.59-.63-2.26-2.76-2.26a4.5,4.5,0,0,0-2.79.82c-.12.09-.26.09-.33,0l-.65-1.1a.26.26,0,0,1,.05-.34,6.36,6.36,0,0,1,3.91-1.13c3.26,0,4.51,1.08,4.51,3.92v7.61a.23.23,0,0,1-.24.24Zm-.29-3.72V67.59c0-.09-.05-.14-.15-.14h-2.3c-2,0-2.86.58-2.86,1.87s.87,1.8,2.4,1.8C204.08,71.12,205.19,70.28,205.19,68.87Z"/><path d="M220.09,72.59a.23.23,0,0,1-.24-.24V71.24h0a3.51,3.51,0,0,1-3.27,1.61,3.81,3.81,0,0,1-4-2.76,9.58,9.58,0,0,1-.41-3.26,9.63,9.63,0,0,1,.41-3.25,3.81,3.81,0,0,1,4-2.76,3.5,3.5,0,0,1,3.27,1.59h0V56.5a.23.23,0,0,1,.24-.24h1.54a.23.23,0,0,1,.24.24V72.35a.23.23,0,0,1-.24.24Zm-.5-3.36a7.51,7.51,0,0,0,.26-2.4,7.62,7.62,0,0,0-.26-2.41,2.73,2.73,0,0,0-5.07,0,8.33,8.33,0,0,0-.26,2.41,8.09,8.09,0,0,0,.26,2.4,2.71,2.71,0,0,0,5.07,0Z"/><path d="M223.57,69.73a9,9,0,0,1-.38-2.9,8.93,8.93,0,0,1,.36-2.91,4.83,4.83,0,0,1,9,0,10.08,10.08,0,0,1,.36,3.29.23.23,0,0,1-.26.24H225.4c-.1,0-.15,0-.15.14a4.37,4.37,0,0,0,.19,1.4,2.84,2.84,0,0,0,2.91,2,3.74,3.74,0,0,0,3-1.27c.12-.13.24-.15.36,0l1,.88a.22.22,0,0,1,0,.34,5.59,5.59,0,0,1-4.49,2A4.45,4.45,0,0,1,223.57,69.73Zm7.15-3.89c.1,0,.15,0,.15-.14a4.06,4.06,0,0,0-.17-1.3,2.84,2.84,0,0,0-5.28,0,4.06,4.06,0,0,0-.17,1.3c0,.09.05.14.15.14Z"/><path d="M237.3,71.12a.22.22,0,0,1,0-.33l1-1.06a.23.23,0,0,1,.34,0,5.6,5.6,0,0,0,3.55,1.32c1.68,0,2.52-.72,2.52-1.75s-.43-1.42-2.23-1.61l-1.23-.12c-2.25-.24-3.43-1.37-3.43-3.24,0-2.19,1.56-3.51,4.28-3.51a6.9,6.9,0,0,1,4.08,1.28.22.22,0,0,1,0,.33l-.81,1a.24.24,0,0,1-.34,0,6,6,0,0,0-3.1-.93c-1.44,0-2.18.64-2.18,1.58s.55,1.39,2.26,1.56l1.2.12c2.32.22,3.45,1.39,3.45,3.24,0,2.26-1.63,3.77-4.63,3.77A7.11,7.11,0,0,1,237.3,71.12Z"/><path d="M255.16,72.59a.23.23,0,0,1-.25-.24V71.27h0a3.51,3.51,0,0,1-3.14,1.58c-2.52,0-4-1.73-4-4.35V61.33a.23.23,0,0,1,.24-.24h1.54a.23.23,0,0,1,.24.24V68c0,1.87.84,3,2.54,3a2.55,2.55,0,0,0,2.59-2.83V61.33a.23.23,0,0,1,.25-.24h1.53a.23.23,0,0,1,.24.24v11a.23.23,0,0,1-.24.24Z"/><path d="M269.75,72.59a.23.23,0,0,1-.24-.24v-1h0a3.77,3.77,0,0,1-3.41,1.51c-2.18,0-3.86-1.13-3.86-3.46s1.68-3.55,4.49-3.55h2.61c.1,0,.15,0,.15-.14v-.84c0-1.59-.63-2.26-2.76-2.26a4.5,4.5,0,0,0-2.79.82c-.12.09-.26.09-.33,0l-.65-1.1A.26.26,0,0,1,263,62a6.38,6.38,0,0,1,3.91-1.13c3.26,0,4.51,1.08,4.51,3.92v7.61a.23.23,0,0,1-.24.24Zm-.29-3.72V67.59c0-.09,0-.14-.15-.14H267c-2,0-2.86.58-2.86,1.87s.87,1.8,2.4,1.8C268.35,71.12,269.46,70.28,269.46,68.87Zm-3.24-9.65c-.15,0-.22-.1-.15-.24l1.83-3a.42.42,0,0,1,.41-.24h1.58c.14,0,.22.12.12.24l-2.21,3a.47.47,0,0,1-.45.24Z"/><path d="M273.56,72.59a.23.23,0,0,1-.24-.24v-11a.23.23,0,0,1,.24-.24h1.54a.23.23,0,0,1,.24.24V62.5h0a3.21,3.21,0,0,1,3.05-1.68,3.51,3.51,0,0,1,2.35.87c.12.12.15.21.05.33l-.89,1.18a.21.21,0,0,1-.33,0,3.23,3.23,0,0,0-1.78-.55c-1.75,0-2.47,1.36-2.47,3.36v6.29a.23.23,0,0,1-.24.24Z"/><path d="M280.5,69.73a11.44,11.44,0,0,1,0-5.81,4.84,4.84,0,0,1,9,0,10.08,10.08,0,0,1,.36,3.29.24.24,0,0,1-.27.24h-7.27a.13.13,0,0,0-.14.14,4.37,4.37,0,0,0,.19,1.4,2.84,2.84,0,0,0,2.9,2,3.78,3.78,0,0,0,3-1.27c.12-.13.24-.15.36,0l1,.88a.22.22,0,0,1,0,.34,5.59,5.59,0,0,1-4.48,2A4.45,4.45,0,0,1,280.5,69.73Zm7.15-3.89a.12.12,0,0,0,.14-.14,4.08,4.08,0,0,0-.16-1.3,2.84,2.84,0,0,0-5.28,0,4.06,4.06,0,0,0-.17,1.3.13.13,0,0,0,.14.14Z"/><path d="M298.14,72.59a.23.23,0,0,1-.24-.24v-1h0a3.75,3.75,0,0,1-3.4,1.51c-2.19,0-3.87-1.13-3.87-3.46s1.68-3.55,4.49-3.55h2.62a.13.13,0,0,0,.14-.14v-.84c0-1.59-.62-2.26-2.76-2.26a4.44,4.44,0,0,0-2.78.82.22.22,0,0,1-.34,0l-.65-1.1a.26.26,0,0,1,.05-.34,6.38,6.38,0,0,1,3.91-1.13c3.27,0,4.51,1.08,4.51,3.92v7.61a.23.23,0,0,1-.24.24Zm-.29-3.72V67.59a.13.13,0,0,0-.14-.14H295.4c-2,0-2.85.58-2.85,1.87s.86,1.8,2.4,1.8C296.75,71.12,297.85,70.28,297.85,68.87Z"/><path d="M312.75,72.59a.23.23,0,0,1-.24-.24V71.24h0a3.5,3.5,0,0,1-3.26,1.61,3.79,3.79,0,0,1-4-2.76,9.34,9.34,0,0,1-.41-3.26,9.38,9.38,0,0,1,.41-3.25,3.79,3.79,0,0,1,4-2.76,3.49,3.49,0,0,1,3.26,1.59h0V56.5a.23.23,0,0,1,.24-.24h1.54a.23.23,0,0,1,.24.24V72.35a.23.23,0,0,1-.24.24Zm-.5-3.36a7.51,7.51,0,0,0,.26-2.4,7.62,7.62,0,0,0-.26-2.41,2.72,2.72,0,0,0-5.06,0,8,8,0,0,0-.27,2.41,7.72,7.72,0,0,0,.27,2.4,2.7,2.7,0,0,0,5.06,0Z"/><path d="M316.23,69.73a9,9,0,0,1-.38-2.9,8.93,8.93,0,0,1,.36-2.91,4.83,4.83,0,0,1,9,0,10.08,10.08,0,0,1,.36,3.29.23.23,0,0,1-.26.24h-7.27c-.1,0-.15,0-.15.14a4.33,4.33,0,0,0,.2,1.4,2.83,2.83,0,0,0,2.9,2A3.74,3.74,0,0,0,324,69.71c.12-.13.24-.15.36,0l1,.88a.22.22,0,0,1,0,.34,5.59,5.59,0,0,1-4.49,2A4.45,4.45,0,0,1,316.23,69.73Zm7.16-3.89a.13.13,0,0,0,.14-.14,4.06,4.06,0,0,0-.17-1.3,2.84,2.84,0,0,0-5.28,0,4.06,4.06,0,0,0-.17,1.3c0,.09,0,.14.15.14Z"/><path d="M334.57,72.71c-2.23,0-3.1-1-3.1-3.27V62.86a.12.12,0,0,0-.14-.14h-1a.23.23,0,0,1-.24-.24V61.33a.23.23,0,0,1,.24-.24h1c.1,0,.14-.05.14-.15V57.7a.23.23,0,0,1,.24-.24h1.54a.23.23,0,0,1,.24.24v3.24c0,.1.05.15.14.15h1.83a.23.23,0,0,1,.24.24v1.15a.23.23,0,0,1-.24.24h-1.83a.13.13,0,0,0-.14.14v6.51c0,1.15.43,1.46,1.46,1.46h.51a.23.23,0,0,1,.24.24v1.4a.23.23,0,0,1-.24.24Z"/><path d="M337.62,72.59a.23.23,0,0,1-.24-.24v-11a.22.22,0,0,1,.24-.24h1.53a.22.22,0,0,1,.24.24V62.5h0a3.2,3.2,0,0,1,3.05-1.68,3.53,3.53,0,0,1,2.35.87c.12.12.14.21.05.33L344,63.2a.23.23,0,0,1-.34,0,3.19,3.19,0,0,0-1.77-.55c-1.76,0-2.48,1.36-2.48,3.36v6.29a.23.23,0,0,1-.24.24Z"/><path d="M352.16,72.59a.23.23,0,0,1-.24-.24v-1h0a3.79,3.79,0,0,1-3.41,1.51c-2.18,0-3.87-1.13-3.87-3.46s1.69-3.55,4.49-3.55h2.62a.12.12,0,0,0,.14-.14v-.84c0-1.59-.62-2.26-2.76-2.26a4.46,4.46,0,0,0-2.78.82.22.22,0,0,1-.34,0l-.64-1.1a.26.26,0,0,1,0-.34,6.42,6.42,0,0,1,3.92-1.13c3.26,0,4.51,1.08,4.51,3.92v7.61a.23.23,0,0,1-.24.24Zm-.29-3.72V67.59a.12.12,0,0,0-.14-.14h-2.3c-2,0-2.86.58-2.86,1.87s.86,1.8,2.4,1.8C350.77,71.12,351.87,70.28,351.87,68.87Z"/><path d="M356.46,72.59a.23.23,0,0,1-.24-.24V56.5a.23.23,0,0,1,.24-.24H358a.23.23,0,0,1,.24.24v5.91h0a3.48,3.48,0,0,1,3.26-1.59,3.8,3.8,0,0,1,4,2.76,9.63,9.63,0,0,1,.41,3.25,9.58,9.58,0,0,1-.41,3.26,3.8,3.8,0,0,1-4,2.76,3.49,3.49,0,0,1-3.26-1.61h0v1.11a.23.23,0,0,1-.24.24Zm7.1-3.36a8,8,0,0,0,.27-2.4,8.29,8.29,0,0,0-.27-2.41,2.72,2.72,0,0,0-5.06,0,7.56,7.56,0,0,0-.27,2.41,7.45,7.45,0,0,0,.27,2.4,2.7,2.7,0,0,0,5.06,0Z"/><path d="M374.65,72.59a.23.23,0,0,1-.24-.24v-1h0A3.79,3.79,0,0,1,371,72.85c-2.19,0-3.87-1.13-3.87-3.46s1.68-3.55,4.49-3.55h2.62a.13.13,0,0,0,.14-.14v-.84c0-1.59-.62-2.26-2.76-2.26a4.46,4.46,0,0,0-2.78.82.22.22,0,0,1-.34,0l-.65-1.1a.27.27,0,0,1,.05-.34,6.4,6.4,0,0,1,3.91-1.13c3.27,0,4.52,1.08,4.52,3.92v7.61a.23.23,0,0,1-.24.24Zm-.29-3.72V67.59a.13.13,0,0,0-.14-.14h-2.31c-2,0-2.85.58-2.85,1.87s.86,1.8,2.4,1.8C373.26,71.12,374.36,70.28,374.36,68.87Z"/><path d="M376.81,76.91a.23.23,0,0,1-.24-.24v-1.4a.23.23,0,0,1,.24-.24h.38c1.13,0,1.52-.31,1.52-1.53V61.33a.22.22,0,0,1,.24-.24h1.53a.22.22,0,0,1,.24.24V73.45c0,2.47-1.1,3.46-3.43,3.46ZM378.9,58.5a.23.23,0,0,1-.24-.24V56.5a.23.23,0,0,1,.24-.24h1.63a.23.23,0,0,1,.24.24v1.76a.23.23,0,0,1-.24.24Z"/><path d="M382.91,69.75a8.42,8.42,0,0,1-.39-2.92,8.4,8.4,0,0,1,.39-2.91,4.87,4.87,0,0,1,9.07,0,8.68,8.68,0,0,1,.38,2.91,8.7,8.7,0,0,1-.38,2.92,4.87,4.87,0,0,1-9.07,0Zm7.12-.57a7.29,7.29,0,0,0,.27-2.35A7.08,7.08,0,0,0,390,64.5a2.76,2.76,0,0,0-5.18,0,7.41,7.41,0,0,0-.26,2.33,7.64,7.64,0,0,0,.26,2.35,2.76,2.76,0,0,0,5.18,0Z"/></g></g></svg>