<svg xmlns="http://www.w3.org/2000/svg" viewBox="0 0 575.86 43.45"><title>4a</title><g id="Capa_2" data-name="Capa 2"><g id="respuestas_contorno" data-name="respuestas contorno"><path d="M.15,7.72a12.45,12.45,0,0,1,.4-4.2A4.81,4.81,0,0,1,5.52,0a5,5,0,0,1,4.8,3,.22.22,0,0,1-.09.29l-1.32.64a.23.23,0,0,1-.31-.11,3.26,3.26,0,0,0-3.08-2A3,3,0,0,0,2.42,4a12,12,0,0,0-.29,3.69,12.12,12.12,0,0,0,.29,3.7,3,3,0,0,0,3.1,2.2,3.27,3.27,0,0,0,3.08-2,.22.22,0,0,1,.31-.11l1.32.64a.21.21,0,0,1,.09.28,5,5,0,0,1-4.8,3,4.81,4.81,0,0,1-5-3.52A12.48,12.48,0,0,1,.15,7.72Z"/><path d="M18.83,15.2a.2.2,0,0,1-.22-.22V14h0a3.22,3.22,0,0,1-2.88,1.46c-2.31,0-3.65-1.59-3.65-4V4.88a.2.2,0,0,1,.22-.21h1.4a.2.2,0,0,1,.22.21V11c0,1.72.77,2.71,2.34,2.71a2.34,2.34,0,0,0,2.37-2.6V4.88a.2.2,0,0,1,.22-.21h1.41a.2.2,0,0,1,.22.21V15a.2.2,0,0,1-.22.22Z"/><path d="M36.65,15.2a.2.2,0,0,1-.22-.22V8.82c0-1.69-.77-2.68-2.35-2.68a2.37,2.37,0,0,0-2.42,2.57V15a.2.2,0,0,1-.22.22H30a.2.2,0,0,1-.22-.22V8.82c0-1.69-.77-2.68-2.35-2.68A2.36,2.36,0,0,0,25,8.71V15a.2.2,0,0,1-.22.22H23.41a.2.2,0,0,1-.22-.22V4.88a.2.2,0,0,1,.22-.21h1.41a.2.2,0,0,1,.22.21v1h0a3.34,3.34,0,0,1,3-1.43,3.33,3.33,0,0,1,3.08,1.65h0a3.92,3.92,0,0,1,3.41-1.65c2.44,0,3.76,1.57,3.76,4V15a.2.2,0,0,1-.22.22Z"/><path d="M41.12,19.17A.21.21,0,0,1,40.9,19V4.88a.2.2,0,0,1,.22-.21h1.41a.2.2,0,0,1,.22.21v1h0a3.19,3.19,0,0,1,3-1.46A3.48,3.48,0,0,1,49.39,7a8.67,8.67,0,0,1,.37,3,8.75,8.75,0,0,1-.37,3,3.48,3.48,0,0,1-3.63,2.53,3.2,3.2,0,0,1-3-1.48h0v5a.21.21,0,0,1-.22.22Zm6.51-7.05a7.18,7.18,0,0,0,.24-2.2,7.43,7.43,0,0,0-.24-2.2,2.49,2.49,0,0,0-4.64,0,6.79,6.79,0,0,0-.24,2.2,6.63,6.63,0,0,0,.24,2.2,2.48,2.48,0,0,0,4.64,0Z"/><path d="M54.38,15.31c-1.84,0-2.57-.88-2.57-2.77V.46A.21.21,0,0,1,52,.24h1.41a.21.21,0,0,1,.22.22v12c0,.88.33,1.17,1.05,1.17h.42a.21.21,0,0,1,.22.22v1.27a.2.2,0,0,1-.22.22Z"/><path d="M63.45,15.2a.2.2,0,0,1-.22-.22v-.92h0a3.47,3.47,0,0,1-3.13,1.39c-2,0-3.54-1-3.54-3.17S58.08,9,60.65,9h2.4c.09,0,.13,0,.13-.13V8.12c0-1.45-.57-2.07-2.53-2.07a4.12,4.12,0,0,0-2.55.75.2.2,0,0,1-.31,0l-.59-1a.24.24,0,0,1,0-.31,5.85,5.85,0,0,1,3.59-1c3,0,4.14,1,4.14,3.59v7a.2.2,0,0,1-.22.22Zm-.27-3.41V10.63c0-.09,0-.13-.13-.13H60.94c-1.83,0-2.62.52-2.62,1.71s.79,1.65,2.2,1.65C62.17,13.86,63.18,13.09,63.18,11.79Z"/><path d="M71.7,7.26a4.09,4.09,0,0,1,4.16-2.84,4.2,4.2,0,0,1,3.6,1.79c.07.11.07.19-.06.3l-1,.8a.21.21,0,0,1-.31,0,2.58,2.58,0,0,0-2.26-1.14A2.29,2.29,0,0,0,73.5,7.79a7.21,7.21,0,0,0-.24,2.13,7.3,7.3,0,0,0,.24,2.16,2.29,2.29,0,0,0,2.36,1.65,2.58,2.58,0,0,0,2.26-1.14.21.21,0,0,1,.31,0l1,.8c.13.11.13.19.06.3a4.22,4.22,0,0,1-3.6,1.79,4.09,4.09,0,0,1-4.16-2.84,9.08,9.08,0,0,1-.33-2.69A9,9,0,0,1,71.7,7.26Z"/><path d="M81,12.61a8,8,0,0,1-.35-2.69A7.92,7.92,0,0,1,81,7.26a4.47,4.47,0,0,1,8.32,0,7.92,7.92,0,0,1,.35,2.66,8,8,0,0,1-.35,2.69,4.47,4.47,0,0,1-8.32,0Zm6.53-.53a6.73,6.73,0,0,0,.25-2.16,6.57,6.57,0,0,0-.25-2.13,2.53,2.53,0,0,0-4.75,0,6.91,6.91,0,0,0-.24,2.13,7.09,7.09,0,0,0,.24,2.16,2.53,2.53,0,0,0,4.75,0Z"/><path d="M98.56,15.2a.2.2,0,0,1-.22-.22V8.82c0-1.69-.77-2.68-2.35-2.68a2.36,2.36,0,0,0-2.42,2.57V15a.21.21,0,0,1-.23.22h-1.4a.2.2,0,0,1-.22-.22V4.88a.2.2,0,0,1,.22-.21h1.4a.21.21,0,0,1,.23.21v1h0a3.34,3.34,0,0,1,3-1.43c2.28,0,3.65,1.57,3.65,4V15a.2.2,0,0,1-.22.22Z"/><path d="M109.73,15.31c-1.84,0-2.57-.88-2.57-2.77V.46a.21.21,0,0,1,.22-.22h1.41a.21.21,0,0,1,.22.22v12c0,.88.33,1.17,1,1.17h.42a.21.21,0,0,1,.22.22v1.27a.2.2,0,0,1-.22.22Z"/><path d="M112.13,12.61a8,8,0,0,1-.35-2.69,7.92,7.92,0,0,1,.35-2.66,4.47,4.47,0,0,1,8.32,0,7.92,7.92,0,0,1,.35,2.66,8,8,0,0,1-.35,2.69,4.47,4.47,0,0,1-8.32,0Zm6.54-.53a7.09,7.09,0,0,0,.24-2.16,6.91,6.91,0,0,0-.24-2.13,2.54,2.54,0,0,0-4.76,0,6.91,6.91,0,0,0-.24,2.13,7.09,7.09,0,0,0,.24,2.16,2.54,2.54,0,0,0,4.76,0Z"/><path d="M122.16,13.86a.23.23,0,0,1,0-.31l.91-1a.2.2,0,0,1,.3,0,5.15,5.15,0,0,0,3.26,1.21c1.54,0,2.31-.66,2.31-1.61s-.4-1.3-2-1.47l-1.13-.11c-2.07-.22-3.14-1.26-3.14-3,0-2,1.43-3.22,3.91-3.22a6.3,6.3,0,0,1,3.74,1.17.22.22,0,0,1,.05.31l-.75.94a.22.22,0,0,1-.31,0A5.54,5.54,0,0,0,126.43,6c-1.32,0-2,.59-2,1.45s.51,1.28,2.07,1.43l1.1.11c2.13.2,3.17,1.28,3.17,3,0,2.07-1.5,3.46-4.25,3.46A6.55,6.55,0,0,1,122.16,13.86Z"/><path d="M137.41,19.17a.21.21,0,0,1-.22-.22V4.88a.2.2,0,0,1,.22-.21h1.41a.2.2,0,0,1,.22.21v1h0a3.2,3.2,0,0,1,3-1.46A3.48,3.48,0,0,1,145.68,7a8.64,8.64,0,0,1,.38,3,8.72,8.72,0,0,1-.38,3,3.48,3.48,0,0,1-3.63,2.53,3.21,3.21,0,0,1-3-1.48h0v5a.21.21,0,0,1-.22.22Zm6.51-7.05a7.14,7.14,0,0,0,.25-2.2,7.39,7.39,0,0,0-.25-2.2,2.49,2.49,0,0,0-4.64,0,6.79,6.79,0,0,0-.24,2.2,6.63,6.63,0,0,0,.24,2.2,2.48,2.48,0,0,0,4.64,0Z"/><path d="M148.37,15.2a.2.2,0,0,1-.22-.22V4.88a.2.2,0,0,1,.22-.21h1.4a.2.2,0,0,1,.22.21V6h0a2.93,2.93,0,0,1,2.79-1.54,3.26,3.26,0,0,1,2.16.79c.11.12.13.2,0,.31L154.2,6.6a.21.21,0,0,1-.31.05,3,3,0,0,0-1.63-.51c-1.61,0-2.27,1.25-2.27,3.08V15a.2.2,0,0,1-.22.22Z"/><path d="M155.6,12.61a8,8,0,0,1-.35-2.69,7.92,7.92,0,0,1,.35-2.66,4.47,4.47,0,0,1,8.32,0,7.92,7.92,0,0,1,.35,2.66,8,8,0,0,1-.35,2.69,4.47,4.47,0,0,1-8.32,0Zm6.54-.53a7.09,7.09,0,0,0,.24-2.16,6.91,6.91,0,0,0-.24-2.13,2.53,2.53,0,0,0-4.75,0,6.57,6.57,0,0,0-.25,2.13,6.73,6.73,0,0,0,.25,2.16,2.53,2.53,0,0,0,4.75,0Z"/><path d="M169.42,15.31c-2,0-2.84-.92-2.84-3v-6a.12.12,0,0,0-.13-.13h-.88a.21.21,0,0,1-.22-.22V4.88a.2.2,0,0,1,.22-.21h.88c.09,0,.13,0,.13-.14v-3a.21.21,0,0,1,.22-.22h1.41a.21.21,0,0,1,.22.22v3c0,.09,0,.14.13.14h1.67a.2.2,0,0,1,.22.21V5.94a.2.2,0,0,1-.22.22h-1.67a.12.12,0,0,0-.13.13v6c0,1.05.4,1.34,1.34,1.34h.46a.2.2,0,0,1,.22.22v1.27a.2.2,0,0,1-.22.22Z"/><path d="M172.15,12.61a7.71,7.71,0,0,1-.36-2.69,7.64,7.64,0,0,1,.36-2.66,4.46,4.46,0,0,1,8.31,0,7.64,7.64,0,0,1,.36,2.66,7.71,7.71,0,0,1-.36,2.69,4.46,4.46,0,0,1-8.31,0Zm6.53-.53a6.78,6.78,0,0,0,.24-2.16,6.61,6.61,0,0,0-.24-2.13,2.53,2.53,0,0,0-4.75,0,6.61,6.61,0,0,0-.24,2.13,6.78,6.78,0,0,0,.24,2.16,2.53,2.53,0,0,0,4.75,0Z"/><path d="M182.6,7.26a4.08,4.08,0,0,1,4.15-2.84,4.21,4.21,0,0,1,3.61,1.79c.07.11.07.19-.06.3l-1,.8a.21.21,0,0,1-.31,0,2.58,2.58,0,0,0-2.27-1.14,2.28,2.28,0,0,0-2.35,1.65,6.89,6.89,0,0,0-.24,2.13,7,7,0,0,0,.24,2.16,2.28,2.28,0,0,0,2.35,1.65A2.58,2.58,0,0,0,189,12.59a.21.21,0,0,1,.31,0l1,.8c.13.11.13.19.06.3a4.23,4.23,0,0,1-3.61,1.79,4.08,4.08,0,0,1-4.15-2.84,9.08,9.08,0,0,1-.33-2.69A9,9,0,0,1,182.6,7.26Z"/><path d="M191.86,12.61a8,8,0,0,1-.35-2.69,7.92,7.92,0,0,1,.35-2.66,4.47,4.47,0,0,1,8.32,0,7.92,7.92,0,0,1,.35,2.66,8,8,0,0,1-.35,2.69,4.47,4.47,0,0,1-8.32,0Zm6.53-.53a6.73,6.73,0,0,0,.25-2.16,6.57,6.57,0,0,0-.25-2.13,2.53,2.53,0,0,0-4.75,0,6.61,6.61,0,0,0-.24,2.13,6.78,6.78,0,0,0,.24,2.16,2.53,2.53,0,0,0,4.75,0Z"/><path d="M205.15,15.31c-1.85,0-2.58-.88-2.58-2.77V.46a.21.21,0,0,1,.22-.22h1.41a.21.21,0,0,1,.22.22v12c0,.88.33,1.17,1.06,1.17h.41a.2.2,0,0,1,.22.22v1.27a.2.2,0,0,1-.22.22Z"/><path d="M207.54,12.61a8,8,0,0,1-.35-2.69,7.92,7.92,0,0,1,.35-2.66,4.47,4.47,0,0,1,8.32,0,7.92,7.92,0,0,1,.35,2.66,8,8,0,0,1-.35,2.69,4.47,4.47,0,0,1-8.32,0Zm6.54-.53a7.09,7.09,0,0,0,.24-2.16,6.91,6.91,0,0,0-.24-2.13,2.53,2.53,0,0,0-4.75,0,6.57,6.57,0,0,0-.25,2.13,6.73,6.73,0,0,0,.25,2.16,2.53,2.53,0,0,0,4.75,0Z"/><path d="M217.58,13.86a.21.21,0,0,1,0-.31l.9-1a.21.21,0,0,1,.31,0A5.12,5.12,0,0,0,222,13.8c1.54,0,2.31-.66,2.31-1.61s-.39-1.3-2-1.47l-1.13-.11c-2.06-.22-3.14-1.26-3.14-3,0-2,1.43-3.22,3.91-3.22a6.3,6.3,0,0,1,3.74,1.17.22.22,0,0,1,.05.31l-.75.94a.22.22,0,0,1-.31,0A5.54,5.54,0,0,0,221.84,6c-1.32,0-2,.59-2,1.45s.51,1.28,2.07,1.43L223,9c2.13.2,3.17,1.28,3.17,3,0,2.07-1.5,3.46-4.25,3.46A6.52,6.52,0,0,1,217.58,13.86Z"/><path d="M239.2,15.2A.2.2,0,0,1,239,15V14h0a3.21,3.21,0,0,1-3,1.48,3.48,3.48,0,0,1-3.63-2.53,8.72,8.72,0,0,1-.38-3,8.64,8.64,0,0,1,.38-3A3.48,3.48,0,0,1,236,4.42a3.2,3.2,0,0,1,3,1.46h0V.46a.21.21,0,0,1,.22-.22h1.41a.21.21,0,0,1,.22.22V15a.2.2,0,0,1-.22.22Zm-.46-3.08a6.63,6.63,0,0,0,.24-2.2,6.79,6.79,0,0,0-.24-2.2,2.49,2.49,0,0,0-4.64,0,7.43,7.43,0,0,0-.24,2.2,7.18,7.18,0,0,0,.24,2.2,2.48,2.48,0,0,0,4.64,0Z"/><path d="M243.27,12.59a8.36,8.36,0,0,1-.35-2.67,8.17,8.17,0,0,1,.33-2.66,4.43,4.43,0,0,1,8.27,0,9.21,9.21,0,0,1,.33,3,.22.22,0,0,1-.24.22h-6.67c-.09,0-.13,0-.13.13A3.9,3.9,0,0,0,245,11.9a2.6,2.6,0,0,0,2.66,1.83,3.47,3.47,0,0,0,2.71-1.17.22.22,0,0,1,.33,0l.9.81a.2.2,0,0,1,0,.31,5.12,5.12,0,0,1-4.11,1.81A4.08,4.08,0,0,1,243.27,12.59ZM249.83,9c.09,0,.13,0,.13-.13a3.75,3.75,0,0,0-.15-1.19,2.61,2.61,0,0,0-4.85,0,3.75,3.75,0,0,0-.15,1.19c0,.09,0,.13.13.13Z"/><path d="M257.61,13.86a.23.23,0,0,1,0-.31l.91-1a.21.21,0,0,1,.31,0,5.1,5.1,0,0,0,3.25,1.21c1.54,0,2.31-.66,2.31-1.61s-.39-1.3-2.05-1.47l-1.12-.11c-2.07-.22-3.14-1.26-3.14-3,0-2,1.43-3.22,3.91-3.22a6.3,6.3,0,0,1,3.74,1.17.22.22,0,0,1,0,.31l-.75.94a.22.22,0,0,1-.31,0A5.54,5.54,0,0,0,261.88,6c-1.32,0-2,.59-2,1.45s.51,1.28,2.07,1.43l1.1.11c2.13.2,3.17,1.28,3.17,3,0,2.07-1.5,3.46-4.25,3.46A6.55,6.55,0,0,1,257.61,13.86Z"/><path d="M268,12.59a8.36,8.36,0,0,1-.35-2.67,8.17,8.17,0,0,1,.33-2.66,4.44,4.44,0,0,1,8.28,0,9.5,9.5,0,0,1,.33,3,.22.22,0,0,1-.25.22h-6.66c-.09,0-.13,0-.13.13a3.93,3.93,0,0,0,.17,1.27,2.6,2.6,0,0,0,2.66,1.83A3.44,3.44,0,0,0,275,12.56a.22.22,0,0,1,.33,0l.9.81a.2.2,0,0,1,0,.31,5.1,5.1,0,0,1-4.11,1.81A4.09,4.09,0,0,1,268,12.59ZM274.51,9c.09,0,.13,0,.13-.13a3.75,3.75,0,0,0-.15-1.19,2.6,2.6,0,0,0-4.84,0,3.75,3.75,0,0,0-.15,1.19c0,.09,0,.13.13.13Z"/><path d="M278.4,17.84a.2.2,0,0,1,0-.3l.9-.91a.21.21,0,0,1,.33,0,3.5,3.5,0,0,0,2.48,1.06c1.74,0,2.67-.9,2.67-2.84V13.62h0a3,3,0,0,1-2.93,1.45,3.45,3.45,0,0,1-3.54-2.55A8.06,8.06,0,0,1,278,9.75,8.06,8.06,0,0,1,278.32,7a3.45,3.45,0,0,1,3.54-2.56,3,3,0,0,1,2.93,1.46h0v-1a.2.2,0,0,1,.22-.21h1.4a.21.21,0,0,1,.23.21v9.86c0,3-1.63,4.67-4.6,4.67A4.76,4.76,0,0,1,278.4,17.84Zm6.17-6.05a6.52,6.52,0,0,0,.24-2,6.72,6.72,0,0,0-.24-2,2.38,2.38,0,0,0-4.47,0,6.48,6.48,0,0,0-.27,2.05,6.29,6.29,0,0,0,.27,2,2.15,2.15,0,0,0,2.22,1.59A2.19,2.19,0,0,0,284.57,11.79Z"/><path d="M296,15.2a.2.2,0,0,1-.22-.22V14h0a3.22,3.22,0,0,1-2.88,1.46c-2.31,0-3.65-1.59-3.65-4V4.88a.2.2,0,0,1,.22-.21h1.41a.2.2,0,0,1,.22.21V11c0,1.72.77,2.71,2.33,2.71a2.34,2.34,0,0,0,2.37-2.6V4.88a.2.2,0,0,1,.22-.21h1.41a.2.2,0,0,1,.22.21V15a.2.2,0,0,1-.22.22Z"/><path d="M300.58,15.2a.2.2,0,0,1-.22-.22V4.88a.2.2,0,0,1,.22-.21H302a.2.2,0,0,1,.22.21V6h0A2.94,2.94,0,0,1,305,4.42a3.26,3.26,0,0,1,2.16.79c.11.12.13.2,0,.31l-.81,1.08a.21.21,0,0,1-.31.05,2.94,2.94,0,0,0-1.63-.51c-1.6,0-2.26,1.25-2.26,3.08V15a.2.2,0,0,1-.22.22Z"/><path d="M308.67,2.29a.2.2,0,0,1-.21-.22V.46a.2.2,0,0,1,.21-.22h1.5a.21.21,0,0,1,.22.22V2.07a.21.21,0,0,1-.22.22Zm.05,12.91a.2.2,0,0,1-.22-.22V4.88a.2.2,0,0,1,.22-.21h1.41a.2.2,0,0,1,.22.21V15a.2.2,0,0,1-.22.22Z"/><path d="M319.68,15.2a.2.2,0,0,1-.22-.22V14h0a3.19,3.19,0,0,1-3,1.48,3.48,3.48,0,0,1-3.63-2.53,8.75,8.75,0,0,1-.37-3,8.67,8.67,0,0,1,.37-3,3.48,3.48,0,0,1,3.63-2.53,3.18,3.18,0,0,1,3,1.46h0V.46a.2.2,0,0,1,.22-.22h1.4a.2.2,0,0,1,.22.22V15a.2.2,0,0,1-.22.22Zm-.47-3.08a6.58,6.58,0,0,0,.25-2.2,6.73,6.73,0,0,0-.25-2.2,2.49,2.49,0,0,0-4.64,0,7.78,7.78,0,0,0-.24,2.2,7.51,7.51,0,0,0,.24,2.2,2.48,2.48,0,0,0,4.64,0Z"/><path d="M330.41,15.2a.2.2,0,0,1-.22-.22v-.92h0A3.47,3.47,0,0,1,327,15.45c-2,0-3.54-1-3.54-3.17S325,9,327.62,9H330c.09,0,.14,0,.14-.13V8.12c0-1.45-.57-2.07-2.53-2.07a4.13,4.13,0,0,0-2.56.75c-.11.09-.24.09-.3,0l-.6-1a.24.24,0,0,1,0-.31,5.8,5.8,0,0,1,3.58-1c3,0,4.14,1,4.14,3.59v7a.2.2,0,0,1-.22.22Zm-.26-3.41V10.63c0-.09,0-.13-.14-.13H327.9c-1.82,0-2.62.52-2.62,1.71s.8,1.65,2.21,1.65C329.14,13.86,330.15,13.09,330.15,11.79Z"/><path d="M341.17,15.2A.2.2,0,0,1,341,15V14h0a3.21,3.21,0,0,1-3,1.48,3.49,3.49,0,0,1-3.63-2.53,9,9,0,0,1-.37-3,8.92,8.92,0,0,1,.37-3,3.49,3.49,0,0,1,3.63-2.53,3.2,3.2,0,0,1,3,1.46h0V.46a.21.21,0,0,1,.22-.22h1.41a.21.21,0,0,1,.22.22V15a.2.2,0,0,1-.22.22Zm-.46-3.08a6.92,6.92,0,0,0,.24-2.2,7.08,7.08,0,0,0-.24-2.2,2.5,2.5,0,0,0-4.65,0,7.78,7.78,0,0,0-.24,2.2,7.51,7.51,0,0,0,.24,2.2,2.48,2.48,0,0,0,4.65,0Z"/><path d="M349.64,12.59a8.36,8.36,0,0,1-.35-2.67,8.17,8.17,0,0,1,.33-2.66,4.43,4.43,0,0,1,8.27,0,9.21,9.21,0,0,1,.33,3,.22.22,0,0,1-.24.22h-6.67c-.09,0-.13,0-.13.13a4.23,4.23,0,0,0,.17,1.27A2.62,2.62,0,0,0,354,13.73a3.43,3.43,0,0,0,2.7-1.17.22.22,0,0,1,.33,0l.91.81a.2.2,0,0,1,0,.31,5.13,5.13,0,0,1-4.12,1.81A4.08,4.08,0,0,1,349.64,12.59ZM356.2,9a.12.12,0,0,0,.13-.13,3.72,3.72,0,0,0-.16-1.19,2.6,2.6,0,0,0-4.84,0,3.75,3.75,0,0,0-.15,1.19c0,.09,0,.13.13.13Z"/><path d="M359.58,13.86a.21.21,0,0,1,0-.31l.9-1a.21.21,0,0,1,.31,0,5.13,5.13,0,0,0,3.26,1.21c1.54,0,2.31-.66,2.31-1.61s-.4-1.3-2.05-1.47l-1.12-.11c-2.07-.22-3.15-1.26-3.15-3,0-2,1.43-3.22,3.92-3.22a6.3,6.3,0,0,1,3.74,1.17.22.22,0,0,1,.05.31l-.75.94a.22.22,0,0,1-.31,0A5.54,5.54,0,0,0,363.85,6c-1.32,0-2,.59-2,1.45s.5,1.28,2.07,1.43L365,9c2.13.2,3.16,1.28,3.16,3,0,2.07-1.49,3.46-4.24,3.46A6.55,6.55,0,0,1,359.58,13.86Z"/><path d="M373.27,15.31c-2,0-2.84-.92-2.84-3v-6a.12.12,0,0,0-.13-.13h-.88a.2.2,0,0,1-.22-.22V4.88a.2.2,0,0,1,.22-.21h.88a.12.12,0,0,0,.13-.14v-3a.21.21,0,0,1,.22-.22h1.41a.21.21,0,0,1,.22.22v3c0,.09,0,.14.13.14h1.67a.2.2,0,0,1,.22.21V5.94a.21.21,0,0,1-.22.22h-1.67a.12.12,0,0,0-.13.13v6c0,1.05.39,1.34,1.34,1.34h.46a.21.21,0,0,1,.22.22v1.27a.2.2,0,0,1-.22.22Z"/><path d="M382.66,15.2a.2.2,0,0,1-.22-.22v-.92h0a3.47,3.47,0,0,1-3.13,1.39c-2,0-3.54-1-3.54-3.17S377.29,9,379.87,9h2.39c.09,0,.14,0,.14-.13V8.12c0-1.45-.58-2.07-2.53-2.07a4.13,4.13,0,0,0-2.56.75.2.2,0,0,1-.31,0l-.59-1a.23.23,0,0,1,0-.31,5.8,5.8,0,0,1,3.58-1c3,0,4.14,1,4.14,3.59v7a.2.2,0,0,1-.22.22Zm-.26-3.41V10.63c0-.09,0-.13-.14-.13h-2.11c-1.82,0-2.62.52-2.62,1.71s.8,1.65,2.2,1.65C381.38,13.86,382.4,13.09,382.4,11.79Z"/><path d="M387,15.2a.2.2,0,0,1-.22-.22V.46A.21.21,0,0,1,387,.24h1.41a.21.21,0,0,1,.22.22V5.88h0a3.19,3.19,0,0,1,3-1.46A3.48,3.48,0,0,1,395.31,7a8.67,8.67,0,0,1,.37,3,8.75,8.75,0,0,1-.37,3,3.48,3.48,0,0,1-3.63,2.53,3.2,3.2,0,0,1-3-1.48h0v1a.2.2,0,0,1-.22.22Zm6.51-3.08a7.18,7.18,0,0,0,.24-2.2,7.43,7.43,0,0,0-.24-2.2,2.49,2.49,0,0,0-4.64,0,6.79,6.79,0,0,0-.24,2.2,6.63,6.63,0,0,0,.24,2.2,2.48,2.48,0,0,0,4.64,0Z"/><path d="M400.3,15.31c-1.84,0-2.57-.88-2.57-2.77V.46A.21.21,0,0,1,398,.24h1.41a.21.21,0,0,1,.22.22v12c0,.88.33,1.17,1.05,1.17h.42a.21.21,0,0,1,.22.22v1.27a.2.2,0,0,1-.22.22Z"/><path d="M402.7,12.59a8.36,8.36,0,0,1-.35-2.67,8.17,8.17,0,0,1,.33-2.66,4.43,4.43,0,0,1,8.27,0,9.21,9.21,0,0,1,.33,3,.22.22,0,0,1-.24.22h-6.67a.12.12,0,0,0-.13.13,3.9,3.9,0,0,0,.18,1.27,2.6,2.6,0,0,0,2.66,1.83,3.47,3.47,0,0,0,2.71-1.17.22.22,0,0,1,.33,0l.9.81a.2.2,0,0,1,0,.31,5.13,5.13,0,0,1-4.12,1.81A4.08,4.08,0,0,1,402.7,12.59ZM409.26,9c.09,0,.13,0,.13-.13a3.75,3.75,0,0,0-.15-1.19,2.6,2.6,0,0,0-4.84,0,3.72,3.72,0,0,0-.16,1.19.12.12,0,0,0,.13.13Z"/><path d="M413.06,7.26a4.1,4.1,0,0,1,4.16-2.84,4.21,4.21,0,0,1,3.61,1.79c.07.11.07.19-.07.3l-1,.8a.21.21,0,0,1-.31,0,2.59,2.59,0,0,0-2.27-1.14,2.28,2.28,0,0,0-2.35,1.65,6.89,6.89,0,0,0-.24,2.13,7,7,0,0,0,.24,2.16,2.28,2.28,0,0,0,2.35,1.65,2.59,2.59,0,0,0,2.27-1.14.21.21,0,0,1,.31,0l1,.8c.14.11.14.19.07.3a4.23,4.23,0,0,1-3.61,1.79,4.1,4.1,0,0,1-4.16-2.84,9.08,9.08,0,0,1-.33-2.69A9,9,0,0,1,413.06,7.26Z"/><path d="M423.05,2.29a.21.21,0,0,1-.22-.22V.46a.21.21,0,0,1,.22-.22h1.5a.21.21,0,0,1,.22.22V2.07a.21.21,0,0,1-.22.22Zm0,12.91a.2.2,0,0,1-.22-.22V4.88a.2.2,0,0,1,.22-.21h1.41a.2.2,0,0,1,.22.21V15a.2.2,0,0,1-.22.22Z"/><path d="M434.05,15.2a.2.2,0,0,1-.22-.22V14h0a3.21,3.21,0,0,1-3,1.48,3.48,3.48,0,0,1-3.63-2.53,8.72,8.72,0,0,1-.38-3,8.64,8.64,0,0,1,.38-3,3.48,3.48,0,0,1,3.63-2.53,3.2,3.2,0,0,1,3,1.46h0V.46a.21.21,0,0,1,.22-.22h1.41a.21.21,0,0,1,.22.22V15a.2.2,0,0,1-.22.22Zm-.46-3.08a6.92,6.92,0,0,0,.24-2.2,7.08,7.08,0,0,0-.24-2.2,2.49,2.49,0,0,0-4.64,0,7.39,7.39,0,0,0-.25,2.2,7.14,7.14,0,0,0,.25,2.2,2.48,2.48,0,0,0,4.64,0Z"/><path d="M438.12,12.61a8,8,0,0,1-.35-2.69,7.92,7.92,0,0,1,.35-2.66,4.47,4.47,0,0,1,8.32,0,7.92,7.92,0,0,1,.35,2.66,8,8,0,0,1-.35,2.69,4.47,4.47,0,0,1-8.32,0Zm6.54-.53a7.09,7.09,0,0,0,.24-2.16,6.91,6.91,0,0,0-.24-2.13,2.54,2.54,0,0,0-4.76,0,6.91,6.91,0,0,0-.24,2.13,7.09,7.09,0,0,0,.24,2.16,2.54,2.54,0,0,0,4.76,0Z"/><path d="M448.15,13.86a.21.21,0,0,1,0-.31l.9-1a.21.21,0,0,1,.31,0,5.13,5.13,0,0,0,3.26,1.21c1.54,0,2.31-.66,2.31-1.61s-.4-1.3-2.05-1.47l-1.12-.11c-2.07-.22-3.15-1.26-3.15-3,0-2,1.43-3.22,3.92-3.22a6.3,6.3,0,0,1,3.74,1.17.21.21,0,0,1,0,.31l-.74.94a.22.22,0,0,1-.31,0A5.54,5.54,0,0,0,452.42,6c-1.32,0-2,.59-2,1.45s.5,1.28,2.07,1.43l1.1.11c2.13.2,3.16,1.28,3.16,3,0,2.07-1.49,3.46-4.24,3.46A6.55,6.55,0,0,1,448.15,13.86Z"/><path d="M463.4,19.17a.2.2,0,0,1-.22-.22V4.88a.2.2,0,0,1,.22-.21h1.41a.19.19,0,0,1,.21.21v1h0a3.19,3.19,0,0,1,3-1.46A3.48,3.48,0,0,1,471.67,7a8.67,8.67,0,0,1,.37,3,8.75,8.75,0,0,1-.37,3A3.48,3.48,0,0,1,468,15.45a3.2,3.2,0,0,1-3-1.48h0v5a.2.2,0,0,1-.21.22Zm6.51-7.05a7.18,7.18,0,0,0,.24-2.2,7.43,7.43,0,0,0-.24-2.2,2.49,2.49,0,0,0-4.64,0,6.73,6.73,0,0,0-.25,2.2,6.58,6.58,0,0,0,.25,2.2,2.48,2.48,0,0,0,4.64,0Z"/><path d="M480.51,15.2a.2.2,0,0,1-.22-.22v-.92h0a3.46,3.46,0,0,1-3.12,1.39c-2,0-3.55-1-3.55-3.17S475.15,9,477.72,9h2.4c.09,0,.13,0,.13-.13V8.12c0-1.45-.57-2.07-2.53-2.07a4.07,4.07,0,0,0-2.55.75c-.11.09-.25.09-.31,0l-.6-1a.24.24,0,0,1,.05-.31,5.81,5.81,0,0,1,3.59-1c3,0,4.13,1,4.13,3.59v7a.2.2,0,0,1-.22.22Zm-.26-3.41V10.63c0-.09,0-.13-.13-.13H478c-1.82,0-2.61.52-2.61,1.71s.79,1.65,2.2,1.65C479.24,13.86,480.25,13.09,480.25,11.79Z"/><path d="M484.89,15.2a.2.2,0,0,1-.22-.22V4.88a.2.2,0,0,1,.22-.21h1.41a.2.2,0,0,1,.22.21V6h0a2.94,2.94,0,0,1,2.79-1.54,3.26,3.26,0,0,1,2.16.79c.11.12.13.2.05.31l-.82,1.08a.21.21,0,0,1-.31.05,2.93,2.93,0,0,0-1.62-.51c-1.61,0-2.27,1.25-2.27,3.08V15a.2.2,0,0,1-.22.22Z"/><path d="M498.66,15.2a.2.2,0,0,1-.22-.22v-.92h0a3.46,3.46,0,0,1-3.12,1.39c-2,0-3.55-1-3.55-3.17S493.29,9,495.87,9h2.4c.09,0,.13,0,.13-.13V8.12c0-1.45-.57-2.07-2.53-2.07a4.07,4.07,0,0,0-2.55.75.2.2,0,0,1-.31,0l-.59-1a.23.23,0,0,1,0-.31,5.81,5.81,0,0,1,3.59-1c3,0,4.13,1,4.13,3.59v7a.2.2,0,0,1-.22.22Zm-.26-3.41V10.63c0-.09,0-.13-.13-.13h-2.11c-1.83,0-2.62.52-2.62,1.71s.79,1.65,2.2,1.65C497.39,13.86,498.4,13.09,498.4,11.79Z"/><path d="M510.28,15.31c-2,0-2.84-.92-2.84-3v-6a.12.12,0,0,0-.13-.13h-.88a.21.21,0,0,1-.22-.22V4.88a.2.2,0,0,1,.22-.21h.88c.09,0,.13,0,.13-.14v-3a.21.21,0,0,1,.22-.22h1.41a.21.21,0,0,1,.22.22v3c0,.09,0,.14.13.14h1.67a.2.2,0,0,1,.22.21V5.94a.2.2,0,0,1-.22.22h-1.67a.12.12,0,0,0-.13.13v6c0,1.05.39,1.34,1.34,1.34h.46a.2.2,0,0,1,.22.22v1.27a.2.2,0,0,1-.22.22Z"/><path d="M513.51,15.2a.2.2,0,0,1-.22-.22V4.88a.2.2,0,0,1,.22-.21h1.41a.2.2,0,0,1,.22.21V6h0A2.94,2.94,0,0,1,518,4.42a3.26,3.26,0,0,1,2.15.79c.11.12.14.2,0,.31l-.82,1.08a.21.21,0,0,1-.31.05,2.93,2.93,0,0,0-1.62-.51c-1.61,0-2.27,1.25-2.27,3.08V15a.2.2,0,0,1-.22.22Z"/><path d="M527.28,15.2a.2.2,0,0,1-.21-.22v-.92h0a3.46,3.46,0,0,1-3.12,1.39c-2,0-3.54-1-3.54-3.17S521.92,9,524.49,9h2.4c.09,0,.13,0,.13-.13V8.12c0-1.45-.57-2.07-2.53-2.07a4.07,4.07,0,0,0-2.55.75.2.2,0,0,1-.31,0l-.59-1a.23.23,0,0,1,0-.31,5.81,5.81,0,0,1,3.59-1c3,0,4.13,1,4.13,3.59v7a.2.2,0,0,1-.22.22ZM527,11.79V10.63c0-.09,0-.13-.13-.13h-2.11c-1.83,0-2.62.52-2.62,1.71s.79,1.65,2.2,1.65C526,13.86,527,13.09,527,11.79Z"/><path d="M531.66,15.2a.2.2,0,0,1-.22-.22V.46a.21.21,0,0,1,.22-.22h1.41a.21.21,0,0,1,.22.22V5.88h0a3.2,3.2,0,0,1,3-1.46A3.48,3.48,0,0,1,539.93,7a8.64,8.64,0,0,1,.38,3,8.72,8.72,0,0,1-.38,3,3.48,3.48,0,0,1-3.63,2.53,3.21,3.21,0,0,1-3-1.48h0v1a.2.2,0,0,1-.22.22Zm6.51-3.08a7.14,7.14,0,0,0,.25-2.2,7.39,7.39,0,0,0-.25-2.2,2.49,2.49,0,0,0-4.64,0,7.08,7.08,0,0,0-.24,2.2,6.92,6.92,0,0,0,.24,2.2,2.48,2.48,0,0,0,4.64,0Z"/><path d="M548.78,15.2a.2.2,0,0,1-.22-.22v-.92h0a3.47,3.47,0,0,1-3.13,1.39c-2,0-3.54-1-3.54-3.17S543.41,9,546,9h2.4c.09,0,.13,0,.13-.13V8.12c0-1.45-.57-2.07-2.53-2.07a4.12,4.12,0,0,0-2.55.75.2.2,0,0,1-.31,0l-.59-1a.24.24,0,0,1,0-.31,5.85,5.85,0,0,1,3.59-1c3,0,4.14,1,4.14,3.59v7a.2.2,0,0,1-.22.22Zm-.27-3.41V10.63c0-.09,0-.13-.13-.13h-2.11c-1.83,0-2.62.52-2.62,1.71s.79,1.65,2.2,1.65C547.5,13.86,548.51,13.09,548.51,11.79Z"/><path d="M551.2,19.17A.21.21,0,0,1,551,19V17.67a.21.21,0,0,1,.22-.22h.35c1,0,1.39-.29,1.39-1.41V4.88a.2.2,0,0,1,.22-.21h1.4a.2.2,0,0,1,.22.21V16c0,2.26-1,3.17-3.14,3.17Zm1.91-16.88a.21.21,0,0,1-.22-.22V.46a.21.21,0,0,1,.22-.22h1.5a.21.21,0,0,1,.22.22V2.07a.21.21,0,0,1-.22.22Z"/><path d="M557.23,12.61a7.71,7.71,0,0,1-.36-2.69,7.64,7.64,0,0,1,.36-2.66,4.46,4.46,0,0,1,8.31,0,7.92,7.92,0,0,1,.35,2.66,8,8,0,0,1-.35,2.69,4.46,4.46,0,0,1-8.31,0Zm6.53-.53A6.78,6.78,0,0,0,564,9.92a6.61,6.61,0,0,0-.24-2.13,2.53,2.53,0,0,0-4.75,0,6.61,6.61,0,0,0-.24,2.13,6.78,6.78,0,0,0,.24,2.16,2.53,2.53,0,0,0,4.75,0Z"/><path d="M567.26,13.86a.21.21,0,0,1,0-.31l.9-1a.21.21,0,0,1,.31,0,5.12,5.12,0,0,0,3.25,1.21c1.54,0,2.31-.66,2.31-1.61s-.39-1.3-2-1.47l-1.12-.11c-2.07-.22-3.15-1.26-3.15-3,0-2,1.43-3.22,3.92-3.22a6.3,6.3,0,0,1,3.74,1.17.21.21,0,0,1,0,.31l-.75.94a.22.22,0,0,1-.31,0A5.54,5.54,0,0,0,571.53,6c-1.32,0-2,.59-2,1.45s.51,1.28,2.07,1.43l1.1.11c2.14.2,3.17,1.28,3.17,3,0,2.07-1.5,3.46-4.25,3.46A6.54,6.54,0,0,1,567.26,13.86Z"/><path d="M.35,40.59A8.36,8.36,0,0,1,0,37.92a8.17,8.17,0,0,1,.33-2.66,4.08,4.08,0,0,1,4.14-2.84A4.08,4.08,0,0,1,8.6,35.26a9.21,9.21,0,0,1,.33,3,.22.22,0,0,1-.24.22H2a.12.12,0,0,0-.13.13,3.9,3.9,0,0,0,.18,1.27,2.6,2.6,0,0,0,2.66,1.83,3.44,3.44,0,0,0,2.71-1.17.22.22,0,0,1,.33,0l.9.81a.2.2,0,0,1,0,.31,5.11,5.11,0,0,1-4.11,1.81A4.08,4.08,0,0,1,.35,40.59ZM6.91,37C7,37,7,37,7,36.89a3.75,3.75,0,0,0-.15-1.19,2.38,2.38,0,0,0-2.42-1.65A2.38,2.38,0,0,0,2.05,35.7a3.72,3.72,0,0,0-.16,1.19A.12.12,0,0,0,2,37Z"/><path d="M13.55,43.31c-1.85,0-2.57-.88-2.57-2.77V28.46a.21.21,0,0,1,.22-.22h1.41a.21.21,0,0,1,.22.22v12c0,.88.33,1.17,1.05,1.17h.42a.21.21,0,0,1,.22.22v1.27a.2.2,0,0,1-.22.22Z"/><path d="M16,40.59a8.36,8.36,0,0,1-.35-2.67,8.17,8.17,0,0,1,.33-2.66,4.07,4.07,0,0,1,4.13-2.84,4.08,4.08,0,0,1,4.14,2.84,9.21,9.21,0,0,1,.33,3,.22.22,0,0,1-.24.22H17.62c-.09,0-.13,0-.13.13a3.9,3.9,0,0,0,.18,1.27,2.6,2.6,0,0,0,2.66,1.83A3.43,3.43,0,0,0,23,40.56c.12-.11.22-.13.33,0l.91.81a.2.2,0,0,1,0,.31,5.13,5.13,0,0,1-4.12,1.81A4.08,4.08,0,0,1,16,40.59ZM22.51,37a.12.12,0,0,0,.13-.13,4.06,4.06,0,0,0-.15-1.19,2.4,2.4,0,0,0-2.43-1.65,2.4,2.4,0,0,0-2.42,1.65,3.75,3.75,0,0,0-.15,1.19c0,.09,0,.13.13.13ZM19.23,31c-.13,0-.2-.09-.13-.22L20.77,28a.4.4,0,0,1,.37-.22h1.45c.14,0,.2.11.11.22l-2,2.71a.44.44,0,0,1-.42.22Z"/><path d="M26.31,35.26a4.1,4.1,0,0,1,4.16-2.84,4.21,4.21,0,0,1,3.61,1.79c.06.11.06.19-.07.3l-1,.8a.19.19,0,0,1-.3,0,2.59,2.59,0,0,0-2.27-1.14,2.28,2.28,0,0,0-2.35,1.65,6.85,6.85,0,0,0-.25,2.13,6.94,6.94,0,0,0,.25,2.16,2.28,2.28,0,0,0,2.35,1.65,2.59,2.59,0,0,0,2.27-1.14.19.19,0,0,1,.3,0l1,.8c.13.11.13.19.07.3a4.23,4.23,0,0,1-3.61,1.79,4.1,4.1,0,0,1-4.16-2.84A9.08,9.08,0,0,1,26,37.92,9,9,0,0,1,26.31,35.26Z"/><path d="M39.18,43.31c-2,0-2.84-.92-2.84-3v-6a.12.12,0,0,0-.13-.13h-.88a.21.21,0,0,1-.22-.22V32.88a.2.2,0,0,1,.22-.21h.88c.09,0,.13-.05.13-.14v-3a.21.21,0,0,1,.22-.22H38a.21.21,0,0,1,.22.22v3a.12.12,0,0,0,.13.14H40a.2.2,0,0,1,.22.21v1.06a.21.21,0,0,1-.22.22H38.32a.12.12,0,0,0-.13.13v6c0,1.05.4,1.34,1.34,1.34H40a.21.21,0,0,1,.22.22v1.27a.2.2,0,0,1-.22.22Z"/><path d="M42.42,43.2a.21.21,0,0,1-.23-.22V32.88a.21.21,0,0,1,.23-.21h1.4a.2.2,0,0,1,.22.21V34h0a2.93,2.93,0,0,1,2.79-1.54,3.26,3.26,0,0,1,2.16.79c.11.12.13.2,0,.31l-.81,1.08a.21.21,0,0,1-.31,0,3,3,0,0,0-1.63-.51c-1.61,0-2.27,1.25-2.27,3.08V43a.2.2,0,0,1-.22.22Z"/><path d="M50.51,30.29a.21.21,0,0,1-.22-.22V28.46a.21.21,0,0,1,.22-.22H52a.21.21,0,0,1,.22.22v1.61a.21.21,0,0,1-.22.22Zm0,12.91a.2.2,0,0,1-.22-.22V32.88a.2.2,0,0,1,.22-.21H52a.2.2,0,0,1,.22.21V43a.2.2,0,0,1-.22.22Z"/><path d="M54.6,35.26a4.1,4.1,0,0,1,4.16-2.84,4.21,4.21,0,0,1,3.61,1.79c.06.11.06.19-.07.3l-1,.8a.19.19,0,0,1-.3,0,2.59,2.59,0,0,0-2.27-1.14,2.28,2.28,0,0,0-2.35,1.65,6.85,6.85,0,0,0-.25,2.13,6.94,6.94,0,0,0,.25,2.16,2.28,2.28,0,0,0,2.35,1.65A2.59,2.59,0,0,0,61,40.59a.19.19,0,0,1,.3,0l1,.8c.13.11.13.19.07.3a4.23,4.23,0,0,1-3.61,1.79,4.1,4.1,0,0,1-4.16-2.84,9.08,9.08,0,0,1-.33-2.69A9,9,0,0,1,54.6,35.26Z"/><path d="M63.86,40.61a8,8,0,0,1-.35-2.69,7.92,7.92,0,0,1,.35-2.66,4.47,4.47,0,0,1,8.32,0,7.92,7.92,0,0,1,.35,2.66,8,8,0,0,1-.35,2.69,4.47,4.47,0,0,1-8.32,0Zm6.54-.53a6.78,6.78,0,0,0,.24-2.16,6.61,6.61,0,0,0-.24-2.13,2.53,2.53,0,0,0-4.75,0,6.57,6.57,0,0,0-.25,2.13,6.73,6.73,0,0,0,.25,2.16,2.53,2.53,0,0,0,4.75,0Z"/><path d="M73.9,41.86a.21.21,0,0,1,0-.31l.9-1a.21.21,0,0,1,.31,0,5.12,5.12,0,0,0,3.25,1.21c1.54,0,2.31-.66,2.31-1.61s-.39-1.3-2-1.47l-1.13-.11c-2.06-.22-3.14-1.26-3.14-3,0-2,1.43-3.22,3.91-3.22A6.26,6.26,0,0,1,82,33.59a.21.21,0,0,1,0,.31l-.75.94a.22.22,0,0,1-.31,0A5.54,5.54,0,0,0,78.17,34c-1.33,0-2,.59-2,1.45s.51,1.28,2.07,1.43l1.1.11c2.14.2,3.17,1.28,3.17,3,0,2.07-1.5,3.46-4.25,3.46A6.52,6.52,0,0,1,73.9,41.86Z"/></g></g></svg>