<svg xmlns="http://www.w3.org/2000/svg" viewBox="0 0 373.96 48.91"><title>4a</title><g id="Capa_2" data-name="Capa 2"><g id="answer_copia" data-name="answer copia"><path d="M.17,8.42A13.79,13.79,0,0,1,.6,3.84,5.25,5.25,0,0,1,6,0a5.46,5.46,0,0,1,5.24,3.29.24.24,0,0,1-.1.31l-1.44.7a.25.25,0,0,1-.34-.12A3.54,3.54,0,0,0,6,2a3.28,3.28,0,0,0-3.38,2.4,13.24,13.24,0,0,0-.31,4,13.28,13.28,0,0,0,.31,4A3.28,3.28,0,0,0,6,14.86a3.54,3.54,0,0,0,3.36-2.19.25.25,0,0,1,.34-.12l1.44.7a.24.24,0,0,1,.1.31A5.46,5.46,0,0,1,6,16.85,5.25,5.25,0,0,1,.6,13,13.83,13.83,0,0,1,.17,8.42Z"/><path d="M20.54,16.59a.23.23,0,0,1-.24-.24V15.27h0a3.51,3.51,0,0,1-3.14,1.58c-2.52,0-4-1.73-4-4.35V5.33a.23.23,0,0,1,.24-.24h1.54a.23.23,0,0,1,.24.24V12c0,1.88.84,3,2.54,3a2.55,2.55,0,0,0,2.59-2.83V5.33a.23.23,0,0,1,.24-.24h1.54a.23.23,0,0,1,.24.24v11a.23.23,0,0,1-.24.24Z"/><path d="M40,16.59a.23.23,0,0,1-.24-.24V9.63c0-1.85-.84-2.93-2.56-2.93a2.59,2.59,0,0,0-2.64,2.8v6.85a.23.23,0,0,1-.24.24H32.76a.23.23,0,0,1-.24-.24V9.63c0-1.85-.84-2.93-2.57-2.93a2.58,2.58,0,0,0-2.64,2.8v6.85a.23.23,0,0,1-.24.24H25.54a.23.23,0,0,1-.25-.24v-11a.23.23,0,0,1,.25-.24h1.53a.23.23,0,0,1,.24.24v1h0a3.64,3.64,0,0,1,3.21-1.56,3.62,3.62,0,0,1,3.36,1.8h0a4.28,4.28,0,0,1,3.72-1.8c2.66,0,4.1,1.71,4.1,4.32v7.21a.23.23,0,0,1-.24.24Z"/><path d="M44.86,20.91a.23.23,0,0,1-.24-.24V5.33a.22.22,0,0,1,.24-.24h1.53a.22.22,0,0,1,.24.24V6.41h0a3.48,3.48,0,0,1,3.26-1.59,3.81,3.81,0,0,1,4,2.76,9.63,9.63,0,0,1,.41,3.25,9.58,9.58,0,0,1-.41,3.26,3.81,3.81,0,0,1-4,2.76,3.49,3.49,0,0,1-3.26-1.61h0v5.43a.23.23,0,0,1-.24.24ZM52,13.23a8.09,8.09,0,0,0,.26-2.4A8.33,8.33,0,0,0,52,8.42a2.72,2.72,0,0,0-5.06,0,7.28,7.28,0,0,0-.27,2.41,7.17,7.17,0,0,0,.27,2.4,2.7,2.7,0,0,0,5.06,0Z"/><path d="M59.33,16.71c-2,0-2.81-1-2.81-3V.5a.23.23,0,0,1,.24-.24h1.53a.23.23,0,0,1,.25.24V13.56c0,1,.35,1.27,1.15,1.27h.45a.23.23,0,0,1,.24.24v1.4a.23.23,0,0,1-.24.24Z"/><path d="M69.21,16.59a.22.22,0,0,1-.23-.24v-1h0a3.79,3.79,0,0,1-3.41,1.51c-2.18,0-3.86-1.13-3.86-3.46s1.68-3.55,4.49-3.55h2.61c.1,0,.15-.05.15-.14V8.86c0-1.59-.63-2.26-2.76-2.26a4.48,4.48,0,0,0-2.79.82c-.12.09-.26.09-.33,0l-.65-1.1A.26.26,0,0,1,62.45,6a6.36,6.36,0,0,1,3.91-1.13c3.26,0,4.51,1.08,4.51,3.92v7.61a.23.23,0,0,1-.24.24Zm-.28-3.72V11.59c0-.09-.05-.14-.15-.14h-2.3c-2,0-2.86.57-2.86,1.87s.87,1.8,2.4,1.8C67.82,15.12,68.93,14.28,68.93,12.87Z"/><path d="M78.21,7.92a4.46,4.46,0,0,1,4.54-3.1,4.62,4.62,0,0,1,3.94,1.95c.07.12.07.21-.07.33L85.56,8a.22.22,0,0,1-.34,0A2.82,2.82,0,0,0,82.75,6.7a2.5,2.5,0,0,0-2.57,1.8,7.75,7.75,0,0,0-.26,2.33,7.81,7.81,0,0,0,.26,2.35A2.5,2.5,0,0,0,82.75,15a2.82,2.82,0,0,0,2.47-1.25.22.22,0,0,1,.34,0l1.06.86a.23.23,0,0,1,.07.34,4.62,4.62,0,0,1-3.94,1.94,4.45,4.45,0,0,1-4.54-3.1,10.08,10.08,0,0,1-.36-2.92A10.1,10.1,0,0,1,78.21,7.92Z"/><path d="M88.32,13.75a8.42,8.42,0,0,1-.39-2.92,8.4,8.4,0,0,1,.39-2.91,4.87,4.87,0,0,1,9.07,0,8.68,8.68,0,0,1,.38,2.91,8.7,8.7,0,0,1-.38,2.92,4.87,4.87,0,0,1-9.07,0Zm7.13-.57a7.64,7.64,0,0,0,.26-2.35,7.41,7.41,0,0,0-.26-2.33,2.77,2.77,0,0,0-5.19,0A7.41,7.41,0,0,0,90,10.83a7.64,7.64,0,0,0,.26,2.35,2.77,2.77,0,0,0,5.19,0Z"/><path d="M107.52,16.59a.23.23,0,0,1-.24-.24V9.63c0-1.85-.84-2.93-2.57-2.93a2.58,2.58,0,0,0-2.64,2.8v6.85a.23.23,0,0,1-.24.24h-1.54a.23.23,0,0,1-.24-.24v-11a.23.23,0,0,1,.24-.24h1.54a.23.23,0,0,1,.24.24v1h0a3.67,3.67,0,0,1,3.22-1.56c2.5,0,4,1.71,4,4.32v7.21a.23.23,0,0,1-.24.24Z"/><path d="M119.71,16.71c-2,0-2.81-1-2.81-3V.5a.23.23,0,0,1,.24-.24h1.54a.23.23,0,0,1,.24.24V13.56c0,1,.36,1.27,1.15,1.27h.46a.23.23,0,0,1,.24.24v1.4a.23.23,0,0,1-.24.24Z"/><path d="M122.33,13.75a8.42,8.42,0,0,1-.39-2.92,8.4,8.4,0,0,1,.39-2.91,4.87,4.87,0,0,1,9.07,0,8.68,8.68,0,0,1,.38,2.91,8.7,8.7,0,0,1-.38,2.92,4.87,4.87,0,0,1-9.07,0Zm7.12-.57a7.29,7.29,0,0,0,.27-2.35,7.08,7.08,0,0,0-.27-2.33,2.76,2.76,0,0,0-5.18,0,7.41,7.41,0,0,0-.26,2.33,7.64,7.64,0,0,0,.26,2.35,2.76,2.76,0,0,0,5.18,0Z"/><path d="M133.27,15.12a.22.22,0,0,1,0-.33l1-1.06a.23.23,0,0,1,.34,0,5.6,5.6,0,0,0,3.55,1.32c1.68,0,2.52-.72,2.52-1.75s-.43-1.42-2.23-1.61l-1.22-.12c-2.26-.24-3.44-1.37-3.44-3.24,0-2.19,1.56-3.51,4.28-3.51a6.88,6.88,0,0,1,4.08,1.28.22.22,0,0,1,0,.33l-.81,1a.24.24,0,0,1-.34,0,6,6,0,0,0-3.09-.93c-1.44,0-2.19.64-2.19,1.58s.55,1.39,2.26,1.56l1.2.12c2.33.22,3.45,1.39,3.45,3.24,0,2.26-1.63,3.77-4.63,3.77A7.13,7.13,0,0,1,133.27,15.12Z"/><path d="M149.9,20.91a.23.23,0,0,1-.24-.24V5.33a.23.23,0,0,1,.24-.24h1.54a.23.23,0,0,1,.24.24V6.41h0A3.49,3.49,0,0,1,155,4.82a3.81,3.81,0,0,1,4,2.76,9.66,9.66,0,0,1,.4,3.25,9.61,9.61,0,0,1-.4,3.26,3.81,3.81,0,0,1-4,2.76,3.5,3.5,0,0,1-3.26-1.61h0v5.43a.23.23,0,0,1-.24.24ZM157,13.23a8.09,8.09,0,0,0,.26-2.4A8.33,8.33,0,0,0,157,8.42a2.73,2.73,0,0,0-5.07,0,7.62,7.62,0,0,0-.26,2.41,7.51,7.51,0,0,0,.26,2.4,2.71,2.71,0,0,0,5.07,0Z"/><path d="M161.85,16.59a.23.23,0,0,1-.24-.24v-11a.23.23,0,0,1,.24-.24h1.54a.23.23,0,0,1,.24.24V6.5h0a3.21,3.21,0,0,1,3-1.68,3.51,3.51,0,0,1,2.35.87c.12.12.15.21,0,.33l-.89,1.18a.21.21,0,0,1-.33,0,3.23,3.23,0,0,0-1.78-.55c-1.75,0-2.47,1.36-2.47,3.36v6.29a.23.23,0,0,1-.24.24Z"/><path d="M169.75,13.75a8.42,8.42,0,0,1-.39-2.92,8.4,8.4,0,0,1,.39-2.91,4.87,4.87,0,0,1,9.07,0,8.4,8.4,0,0,1,.39,2.91,8.42,8.42,0,0,1-.39,2.92,4.87,4.87,0,0,1-9.07,0Zm7.13-.57a7.64,7.64,0,0,0,.26-2.35,7.41,7.41,0,0,0-.26-2.33,2.77,2.77,0,0,0-5.19,0,7.41,7.41,0,0,0-.26,2.33,7.64,7.64,0,0,0,.26,2.35,2.77,2.77,0,0,0,5.19,0Z"/><path d="M184.82,16.71c-2.23,0-3.1-1-3.1-3.27V6.86a.12.12,0,0,0-.14-.14h-1a.23.23,0,0,1-.24-.24V5.33a.23.23,0,0,1,.24-.24h1c.1,0,.14,0,.14-.15V1.7a.23.23,0,0,1,.24-.24h1.54a.23.23,0,0,1,.24.24V4.94c0,.1,0,.15.14.15h1.83a.23.23,0,0,1,.24.24V6.48a.23.23,0,0,1-.24.24h-1.83a.13.13,0,0,0-.14.14v6.51c0,1.15.43,1.46,1.47,1.46h.5a.23.23,0,0,1,.24.24v1.4a.23.23,0,0,1-.24.24Z"/><path d="M187.8,13.75a8.42,8.42,0,0,1-.39-2.92,8.4,8.4,0,0,1,.39-2.91,4.87,4.87,0,0,1,9.07,0,8.68,8.68,0,0,1,.38,2.91,8.7,8.7,0,0,1-.38,2.92,4.87,4.87,0,0,1-9.07,0Zm7.12-.57a7.29,7.29,0,0,0,.27-2.35,7.08,7.08,0,0,0-.27-2.33,2.76,2.76,0,0,0-5.18,0,7.41,7.41,0,0,0-.26,2.33,7.64,7.64,0,0,0,.26,2.35,2.76,2.76,0,0,0,5.18,0Z"/><path d="M199.2,7.92a4.44,4.44,0,0,1,4.53-3.1,4.62,4.62,0,0,1,3.94,1.95c.07.12.07.21-.07.33L206.54,8a.22.22,0,0,1-.34,0,2.82,2.82,0,0,0-2.47-1.24,2.5,2.5,0,0,0-2.57,1.8,7.75,7.75,0,0,0-.26,2.33,7.81,7.81,0,0,0,.26,2.35,2.5,2.5,0,0,0,2.57,1.8,2.82,2.82,0,0,0,2.47-1.25.22.22,0,0,1,.34,0l1.06.86a.23.23,0,0,1,.07.34,4.62,4.62,0,0,1-3.94,1.94,4.43,4.43,0,0,1-4.53-3.1,9.74,9.74,0,0,1-.36-2.92A9.76,9.76,0,0,1,199.2,7.92Z"/><path d="M209.3,13.75a8.7,8.7,0,0,1-.38-2.92,8.68,8.68,0,0,1,.38-2.91,4.87,4.87,0,0,1,9.07,0,8.4,8.4,0,0,1,.39,2.91,8.42,8.42,0,0,1-.39,2.92,4.87,4.87,0,0,1-9.07,0Zm7.13-.57a7.64,7.64,0,0,0,.26-2.35,7.41,7.41,0,0,0-.26-2.33,2.77,2.77,0,0,0-5.19,0,7.41,7.41,0,0,0-.26,2.33,7.64,7.64,0,0,0,.26,2.35,2.77,2.77,0,0,0,5.19,0Z"/><path d="M223.8,16.71c-2,0-2.81-1-2.81-3V.5a.23.23,0,0,1,.24-.24h1.53A.23.23,0,0,1,223,.5V13.56c0,1,.36,1.27,1.16,1.27h.45a.23.23,0,0,1,.24.24v1.4a.23.23,0,0,1-.24.24Z"/><path d="M226.41,13.75a8.7,8.7,0,0,1-.38-2.92,8.68,8.68,0,0,1,.38-2.91,4.87,4.87,0,0,1,9.07,0,8.4,8.4,0,0,1,.39,2.91,8.42,8.42,0,0,1-.39,2.92,4.87,4.87,0,0,1-9.07,0Zm7.13-.57a7.64,7.64,0,0,0,.26-2.35,7.41,7.41,0,0,0-.26-2.33,2.76,2.76,0,0,0-5.18,0,7.08,7.08,0,0,0-.27,2.33,7.29,7.29,0,0,0,.27,2.35,2.76,2.76,0,0,0,5.18,0Z"/><path d="M237.36,15.12a.22.22,0,0,1,0-.33l1-1.06a.23.23,0,0,1,.34,0,5.6,5.6,0,0,0,3.55,1.32c1.68,0,2.52-.72,2.52-1.75s-.43-1.42-2.23-1.61l-1.23-.12c-2.25-.24-3.43-1.37-3.43-3.24,0-2.19,1.56-3.51,4.27-3.51a6.88,6.88,0,0,1,4.08,1.28.23.23,0,0,1,0,.33l-.82,1a.23.23,0,0,1-.33,0,6.07,6.07,0,0,0-3.1-.93c-1.44,0-2.18.64-2.18,1.58s.55,1.39,2.25,1.56l1.2.12c2.33.22,3.46,1.39,3.46,3.24,0,2.26-1.63,3.77-4.63,3.77A7.11,7.11,0,0,1,237.36,15.12Z"/><path d="M261,16.59a.23.23,0,0,1-.24-.24V15.24h0a3.49,3.49,0,0,1-3.26,1.61,3.81,3.81,0,0,1-4-2.76,9.58,9.58,0,0,1-.41-3.26,9.63,9.63,0,0,1,.41-3.25,3.81,3.81,0,0,1,4-2.76,3.48,3.48,0,0,1,3.26,1.59h0V.5A.23.23,0,0,1,261,.26h1.53a.23.23,0,0,1,.24.24V16.35a.23.23,0,0,1-.24.24Zm-.51-3.36a7.17,7.17,0,0,0,.27-2.4,7.28,7.28,0,0,0-.27-2.41,2.72,2.72,0,0,0-5.06,0,8.33,8.33,0,0,0-.26,2.41,8.09,8.09,0,0,0,.26,2.4,2.7,2.7,0,0,0,5.06,0Z"/><path d="M265.39,13.73a8.94,8.94,0,0,1-.39-2.9,8.93,8.93,0,0,1,.36-2.91,4.84,4.84,0,0,1,9,0,10.08,10.08,0,0,1,.36,3.29.24.24,0,0,1-.27.24h-7.27a.13.13,0,0,0-.14.14,4.37,4.37,0,0,0,.19,1.4,2.83,2.83,0,0,0,2.9,2,3.78,3.78,0,0,0,3-1.27c.12-.13.24-.15.36-.05l1,.89a.21.21,0,0,1,0,.33,5.59,5.59,0,0,1-4.48,2A4.45,4.45,0,0,1,265.39,13.73Zm7.15-3.89a.12.12,0,0,0,.14-.14,4.08,4.08,0,0,0-.16-1.3,2.84,2.84,0,0,0-5.28,0,4.06,4.06,0,0,0-.17,1.3.13.13,0,0,0,.14.14Z"/><path d="M281,15.12a.22.22,0,0,1,0-.33l1-1.06a.23.23,0,0,1,.34,0,5.6,5.6,0,0,0,3.55,1.32c1.68,0,2.52-.72,2.52-1.75s-.43-1.42-2.23-1.61L285,11.57c-2.26-.24-3.43-1.37-3.43-3.24,0-2.19,1.56-3.51,4.27-3.51a6.88,6.88,0,0,1,4.08,1.28.23.23,0,0,1,.05.33l-.82,1a.23.23,0,0,1-.33,0,6.07,6.07,0,0,0-3.1-.93c-1.44,0-2.18.64-2.18,1.58s.55,1.39,2.25,1.56l1.2.12c2.33.22,3.46,1.39,3.46,3.24,0,2.26-1.63,3.77-4.63,3.77A7.09,7.09,0,0,1,281,15.12Z"/><path d="M292.31,13.73a9,9,0,0,1-.38-2.9,8.93,8.93,0,0,1,.36-2.91,4.84,4.84,0,0,1,9,0,10.08,10.08,0,0,1,.36,3.29.24.24,0,0,1-.27.24h-7.27a.12.12,0,0,0-.14.14,4.37,4.37,0,0,0,.19,1.4,2.83,2.83,0,0,0,2.9,2,3.74,3.74,0,0,0,3-1.27c.12-.13.24-.15.36-.05l1,.89a.21.21,0,0,1,0,.33,5.59,5.59,0,0,1-4.49,2A4.46,4.46,0,0,1,292.31,13.73Zm7.16-3.89a.13.13,0,0,0,.14-.14,4.06,4.06,0,0,0-.17-1.3,2.84,2.84,0,0,0-5.28,0A4.08,4.08,0,0,0,294,9.7a.12.12,0,0,0,.14.14Z"/><path d="M303.71,19.47a.22.22,0,0,1,0-.34l1-1a.23.23,0,0,1,.36,0,3.85,3.85,0,0,0,2.71,1.15c1.9,0,2.91-1,2.91-3.1V14.86h0a3.31,3.31,0,0,1-3.2,1.58,3.77,3.77,0,0,1-3.86-2.78,9,9,0,0,1-.39-3,8.89,8.89,0,0,1,.39-3,3.78,3.78,0,0,1,3.86-2.79,3.32,3.32,0,0,1,3.2,1.59h0V5.33a.22.22,0,0,1,.24-.24h1.54a.23.23,0,0,1,.24.24V16.08c0,3.27-1.78,5.09-5,5.09A5.23,5.23,0,0,1,303.71,19.47Zm6.73-6.6a7.11,7.11,0,0,0,.26-2.24,7.16,7.16,0,0,0-.26-2.23,2.6,2.6,0,0,0-4.88,0,7.3,7.3,0,0,0-.28,2.23,7.24,7.24,0,0,0,.28,2.24,2.59,2.59,0,0,0,4.88,0Z"/><path d="M322.92,16.59a.23.23,0,0,1-.25-.24V15.27h0a3.51,3.51,0,0,1-3.14,1.58c-2.52,0-4-1.73-4-4.35V5.33a.23.23,0,0,1,.24-.24h1.54a.23.23,0,0,1,.24.24V12c0,1.88.84,3,2.54,3a2.55,2.55,0,0,0,2.59-2.83V5.33a.23.23,0,0,1,.25-.24h1.53a.22.22,0,0,1,.24.24v11a.23.23,0,0,1-.24.24Z"/><path d="M327.91,16.59a.23.23,0,0,1-.24-.24v-11a.22.22,0,0,1,.24-.24h1.53a.22.22,0,0,1,.24.24V6.5h0a3.2,3.2,0,0,1,3-1.68,3.54,3.54,0,0,1,2.36.87c.12.12.14.21,0,.33l-.88,1.18a.23.23,0,0,1-.34,0,3.2,3.2,0,0,0-1.78-.55c-1.75,0-2.47,1.36-2.47,3.36v6.29a.23.23,0,0,1-.24.24Z"/><path d="M336.74,2.5a.23.23,0,0,1-.24-.24V.5a.23.23,0,0,1,.24-.24h1.63a.23.23,0,0,1,.24.24V2.26a.23.23,0,0,1-.24.24Zm.05,14.09a.23.23,0,0,1-.24-.24v-11a.22.22,0,0,1,.24-.24h1.53a.22.22,0,0,1,.24.24v11a.23.23,0,0,1-.24.24Z"/><path d="M348.74,16.59a.23.23,0,0,1-.24-.24V15.24h0a3.49,3.49,0,0,1-3.26,1.61,3.81,3.81,0,0,1-4-2.76,9.58,9.58,0,0,1-.41-3.26,9.63,9.63,0,0,1,.41-3.25,3.81,3.81,0,0,1,4-2.76,3.48,3.48,0,0,1,3.26,1.59h0V.5a.23.23,0,0,1,.24-.24h1.53a.23.23,0,0,1,.24.24V16.35a.23.23,0,0,1-.24.24Zm-.51-3.36a7.17,7.17,0,0,0,.27-2.4,7.28,7.28,0,0,0-.27-2.41,2.72,2.72,0,0,0-5.06,0,8.33,8.33,0,0,0-.26,2.41,8.09,8.09,0,0,0,.26,2.4,2.7,2.7,0,0,0,5.06,0Z"/><path d="M360.45,16.59a.23.23,0,0,1-.24-.24v-1h0a3.79,3.79,0,0,1-3.41,1.51c-2.19,0-3.87-1.13-3.87-3.46s1.68-3.55,4.49-3.55H360a.13.13,0,0,0,.14-.14V8.86c0-1.59-.62-2.26-2.76-2.26a4.46,4.46,0,0,0-2.78.82.22.22,0,0,1-.34,0l-.65-1.1a.27.27,0,0,1,.05-.34,6.4,6.4,0,0,1,3.91-1.13c3.27,0,4.52,1.08,4.52,3.92v7.61a.23.23,0,0,1-.24.24Zm-.29-3.72V11.59a.13.13,0,0,0-.14-.14h-2.31c-2,0-2.85.57-2.85,1.87s.86,1.8,2.4,1.8C359.06,15.12,360.16,14.28,360.16,12.87Z"/><path d="M372.19,16.59a.23.23,0,0,1-.24-.24V15.24h0a3.49,3.49,0,0,1-3.26,1.61,3.8,3.8,0,0,1-4-2.76,9.58,9.58,0,0,1-.41-3.26,9.63,9.63,0,0,1,.41-3.25,3.8,3.8,0,0,1,4-2.76,3.48,3.48,0,0,1,3.26,1.59h0V.5a.23.23,0,0,1,.24-.24h1.53A.23.23,0,0,1,374,.5V16.35a.23.23,0,0,1-.24.24Zm-.51-3.36a7.17,7.17,0,0,0,.27-2.4,7.28,7.28,0,0,0-.27-2.41,2.72,2.72,0,0,0-5.06,0,8.29,8.29,0,0,0-.27,2.41,8,8,0,0,0,.27,2.4,2.7,2.7,0,0,0,5.06,0Z"/><path d="M.38,41.73A9,9,0,0,1,0,38.83a8.93,8.93,0,0,1,.36-2.91,4.45,4.45,0,0,1,4.51-3.1,4.44,4.44,0,0,1,4.51,3.1,9.8,9.8,0,0,1,.36,3.29.23.23,0,0,1-.26.24H2.21c-.1,0-.15,0-.15.14a4.33,4.33,0,0,0,.2,1.4,2.83,2.83,0,0,0,2.9,2,3.74,3.74,0,0,0,2.95-1.27c.12-.13.24-.15.36-.05l1,.89a.21.21,0,0,1,0,.33,5.59,5.59,0,0,1-4.49,2A4.45,4.45,0,0,1,.38,41.73Zm7.16-3.89a.13.13,0,0,0,.14-.14,4.06,4.06,0,0,0-.17-1.3,2.59,2.59,0,0,0-2.64-1.8,2.61,2.61,0,0,0-2.64,1.8,4.06,4.06,0,0,0-.17,1.3c0,.09,0,.14.15.14Z"/><path d="M11.23,43.12a.24.24,0,0,1,0-.33l1-1.06a.22.22,0,0,1,.33,0,5.62,5.62,0,0,0,3.55,1.32c1.68,0,2.53-.72,2.53-1.75s-.44-1.42-2.24-1.61l-1.22-.12c-2.26-.24-3.43-1.37-3.43-3.24,0-2.19,1.56-3.51,4.27-3.51a6.88,6.88,0,0,1,4.08,1.28.23.23,0,0,1,.05.33l-.82,1a.24.24,0,0,1-.34,0,6,6,0,0,0-3.09-.93c-1.44,0-2.19.64-2.19,1.58s.56,1.39,2.26,1.56l1.2.12c2.33.22,3.46,1.39,3.46,3.24,0,2.26-1.64,3.77-4.64,3.77A7.13,7.13,0,0,1,11.23,43.12Z"/><path d="M26.16,44.71c-2.23,0-3.1-1-3.1-3.27V34.86a.12.12,0,0,0-.14-.14H22a.23.23,0,0,1-.24-.24V33.33a.23.23,0,0,1,.24-.24h1c.1,0,.14-.05.14-.15V29.7a.23.23,0,0,1,.24-.24h1.54a.23.23,0,0,1,.24.24v3.24c0,.1.05.15.14.15h1.83a.23.23,0,0,1,.24.24v1.15a.23.23,0,0,1-.24.24H25.22a.13.13,0,0,0-.14.14v6.51c0,1.15.43,1.46,1.46,1.46h.51a.23.23,0,0,1,.24.24v1.4a.23.23,0,0,1-.24.24Z"/><path d="M36.41,44.59a.23.23,0,0,1-.24-.24v-1h0a3.75,3.75,0,0,1-3.4,1.51c-2.19,0-3.87-1.13-3.87-3.46s1.68-3.55,4.49-3.55H36a.13.13,0,0,0,.14-.14v-.84c0-1.59-.62-2.26-2.76-2.26a4.44,4.44,0,0,0-2.78.82.22.22,0,0,1-.34,0l-.65-1.1a.26.26,0,0,1,.05-.34,6.38,6.38,0,0,1,3.91-1.13c3.27,0,4.51,1.08,4.51,3.92v7.61a.23.23,0,0,1-.24.24Zm-.29-3.72V39.59a.13.13,0,0,0-.14-.14H33.67c-2,0-2.85.57-2.85,1.87s.86,1.8,2.4,1.8C35,43.12,36.12,42.28,36.12,40.87Z"/><path d="M41.18,44.59a.23.23,0,0,1-.24-.24V28.5a.23.23,0,0,1,.24-.24h1.54a.23.23,0,0,1,.24.24v5.91h0a3.51,3.51,0,0,1,3.27-1.59,3.81,3.81,0,0,1,4,2.76,9.63,9.63,0,0,1,.41,3.25,9.58,9.58,0,0,1-.41,3.26,3.81,3.81,0,0,1-4,2.76A3.52,3.52,0,0,1,43,43.24h0v1.11a.23.23,0,0,1-.24.24Zm7.11-3.36a8.09,8.09,0,0,0,.26-2.4,8.33,8.33,0,0,0-.26-2.41,2.73,2.73,0,0,0-5.07,0A7.62,7.62,0,0,0,43,38.83a7.51,7.51,0,0,0,.26,2.4,2.71,2.71,0,0,0,5.07,0Z"/><path d="M55.66,44.71c-2,0-2.81-1-2.81-3V28.5a.23.23,0,0,1,.24-.24h1.53a.23.23,0,0,1,.24.24V41.56c0,1,.36,1.27,1.16,1.27h.45a.23.23,0,0,1,.24.24v1.4a.23.23,0,0,1-.24.24Z"/><path d="M58.27,41.73a9,9,0,0,1-.38-2.9,8.93,8.93,0,0,1,.36-2.91,4.83,4.83,0,0,1,9,0,10.08,10.08,0,0,1,.36,3.29.23.23,0,0,1-.26.24H60.1c-.1,0-.15,0-.15.14a4.37,4.37,0,0,0,.19,1.4,2.84,2.84,0,0,0,2.91,2,3.74,3.74,0,0,0,3-1.27c.12-.13.24-.15.36-.05l1,.89a.21.21,0,0,1,0,.33,5.59,5.59,0,0,1-4.49,2A4.45,4.45,0,0,1,58.27,41.73Zm7.15-3.89c.1,0,.15-.05.15-.14a4.06,4.06,0,0,0-.17-1.3,2.84,2.84,0,0,0-5.28,0A4.06,4.06,0,0,0,60,37.7c0,.09,0,.14.15.14Z"/><path d="M69.58,35.92a4.44,4.44,0,0,1,4.53-3.1,4.62,4.62,0,0,1,3.94,2c.07.12.07.21-.07.33L76.92,36a.22.22,0,0,1-.34,0,2.82,2.82,0,0,0-2.47-1.24,2.5,2.5,0,0,0-2.57,1.8,7.75,7.75,0,0,0-.26,2.33,7.81,7.81,0,0,0,.26,2.35A2.5,2.5,0,0,0,74.11,43a2.82,2.82,0,0,0,2.47-1.25.22.22,0,0,1,.34,0l1.06.86a.23.23,0,0,1,.07.34,4.62,4.62,0,0,1-3.94,1.94,4.43,4.43,0,0,1-4.53-3.1,9.68,9.68,0,0,1-.37-2.92A9.71,9.71,0,0,1,69.58,35.92Z"/><path d="M80.47,30.5a.23.23,0,0,1-.24-.24V28.5a.23.23,0,0,1,.24-.24H82.1a.23.23,0,0,1,.24.24v1.76a.23.23,0,0,1-.24.24Zm0,14.09a.23.23,0,0,1-.24-.24v-11a.23.23,0,0,1,.24-.24h1.53a.22.22,0,0,1,.24.24v11a.23.23,0,0,1-.24.24Z"/><path d="M92.47,44.59a.23.23,0,0,1-.24-.24V43.24h0a3.52,3.52,0,0,1-3.27,1.61,3.81,3.81,0,0,1-4-2.76,9.58,9.58,0,0,1-.41-3.26A9.63,9.63,0,0,1,85,35.58a3.81,3.81,0,0,1,4-2.76,3.51,3.51,0,0,1,3.27,1.59h0V28.5a.23.23,0,0,1,.24-.24H94a.23.23,0,0,1,.24.24V44.35a.23.23,0,0,1-.24.24ZM92,41.23a7.51,7.51,0,0,0,.26-2.4A7.62,7.62,0,0,0,92,36.42a2.73,2.73,0,0,0-5.07,0,8.33,8.33,0,0,0-.26,2.41,8.09,8.09,0,0,0,.26,2.4,2.71,2.71,0,0,0,5.07,0Z"/><path d="M96.91,41.75a8.7,8.7,0,0,1-.38-2.92,8.68,8.68,0,0,1,.38-2.91,4.87,4.87,0,0,1,9.07,0,8.4,8.4,0,0,1,.39,2.91,8.42,8.42,0,0,1-.39,2.92,4.87,4.87,0,0,1-9.07,0Zm7.13-.57a7.64,7.64,0,0,0,.26-2.35A7.41,7.41,0,0,0,104,36.5a2.77,2.77,0,0,0-5.19,0,7.41,7.41,0,0,0-.26,2.33,7.64,7.64,0,0,0,.26,2.35,2.77,2.77,0,0,0,5.19,0Z"/><path d="M107.85,43.12a.24.24,0,0,1,0-.33l1-1.06a.22.22,0,0,1,.33,0,5.63,5.63,0,0,0,3.56,1.32c1.68,0,2.52-.72,2.52-1.75s-.44-1.42-2.24-1.61l-1.22-.12c-2.25-.24-3.43-1.37-3.43-3.24,0-2.19,1.56-3.51,4.27-3.51a6.88,6.88,0,0,1,4.08,1.28.23.23,0,0,1,.05.33l-.82,1a.23.23,0,0,1-.33,0,6.07,6.07,0,0,0-3.1-.93c-1.44,0-2.18.64-2.18,1.58s.55,1.39,2.25,1.56l1.2.12c2.33.22,3.46,1.39,3.46,3.24,0,2.26-1.63,3.77-4.63,3.77A7.16,7.16,0,0,1,107.85,43.12Z"/><path d="M124.49,48.91a.23.23,0,0,1-.24-.24V33.33a.22.22,0,0,1,.24-.24H126a.22.22,0,0,1,.24.24v1.08h0a3.48,3.48,0,0,1,3.26-1.59,3.81,3.81,0,0,1,4,2.76,9.63,9.63,0,0,1,.41,3.25,9.58,9.58,0,0,1-.41,3.26,3.81,3.81,0,0,1-4,2.76,3.49,3.49,0,0,1-3.26-1.61h0v5.43a.23.23,0,0,1-.24.24Zm7.1-7.68a8.09,8.09,0,0,0,.26-2.4,8.33,8.33,0,0,0-.26-2.41,2.72,2.72,0,0,0-5.06,0,7.28,7.28,0,0,0-.27,2.41,7.17,7.17,0,0,0,.27,2.4,2.7,2.7,0,0,0,5.06,0Z"/><path d="M143.16,44.59a.23.23,0,0,1-.24-.24v-1h0a3.75,3.75,0,0,1-3.4,1.51c-2.19,0-3.87-1.13-3.87-3.46s1.68-3.55,4.49-3.55h2.62a.13.13,0,0,0,.14-.14v-.84c0-1.59-.62-2.26-2.76-2.26a4.44,4.44,0,0,0-2.78.82.22.22,0,0,1-.34,0l-.65-1.1a.26.26,0,0,1,0-.34,6.38,6.38,0,0,1,3.91-1.13c3.27,0,4.51,1.08,4.51,3.92v7.61a.23.23,0,0,1-.24.24Zm-.29-3.72V39.59a.13.13,0,0,0-.14-.14h-2.31c-2,0-2.85.57-2.85,1.87s.86,1.8,2.4,1.8C141.77,43.12,142.87,42.28,142.87,40.87Z"/><path d="M147.93,44.59a.23.23,0,0,1-.24-.24v-11a.23.23,0,0,1,.24-.24h1.54a.23.23,0,0,1,.24.24V34.5h0a3.23,3.23,0,0,1,3.05-1.68,3.49,3.49,0,0,1,2.35.87c.12.12.15.21.05.33l-.89,1.18a.21.21,0,0,1-.33,0,3.23,3.23,0,0,0-1.78-.55c-1.75,0-2.47,1.36-2.47,3.36v6.29a.23.23,0,0,1-.24.24Z"/><path d="M163,44.59a.23.23,0,0,1-.24-.24v-1h0a3.79,3.79,0,0,1-3.41,1.51c-2.19,0-3.87-1.13-3.87-3.46s1.68-3.55,4.49-3.55h2.62a.13.13,0,0,0,.14-.14v-.84c0-1.59-.62-2.26-2.76-2.26a4.46,4.46,0,0,0-2.78.82.22.22,0,0,1-.34,0l-.65-1.1a.26.26,0,0,1,.05-.34,6.38,6.38,0,0,1,3.91-1.13c3.27,0,4.52,1.08,4.52,3.92v7.61a.23.23,0,0,1-.24.24Zm-.29-3.72V39.59a.13.13,0,0,0-.14-.14h-2.31c-2,0-2.85.57-2.85,1.87s.86,1.8,2.4,1.8C161.57,43.12,162.67,42.28,162.67,40.87Z"/><path d="M175.63,44.71c-2.23,0-3.1-1-3.1-3.27V34.86a.12.12,0,0,0-.14-.14h-1a.23.23,0,0,1-.24-.24V33.33a.23.23,0,0,1,.24-.24h1c.1,0,.14-.05.14-.15V29.7a.23.23,0,0,1,.24-.24h1.54a.23.23,0,0,1,.24.24v3.24c0,.1,0,.15.14.15h1.83a.23.23,0,0,1,.24.24v1.15a.23.23,0,0,1-.24.24h-1.83a.13.13,0,0,0-.14.14v6.51c0,1.15.43,1.46,1.46,1.46h.51a.23.23,0,0,1,.24.24v1.4a.23.23,0,0,1-.24.24Z"/><path d="M179.16,44.59a.23.23,0,0,1-.24-.24v-11a.22.22,0,0,1,.24-.24h1.53a.22.22,0,0,1,.24.24V34.5h0a3.2,3.2,0,0,1,3-1.68,3.53,3.53,0,0,1,2.35.87c.12.12.14.21,0,.33l-.89,1.18a.23.23,0,0,1-.34,0,3.19,3.19,0,0,0-1.77-.55c-1.76,0-2.48,1.36-2.48,3.36v6.29a.23.23,0,0,1-.24.24Z"/><path d="M194.18,44.59a.23.23,0,0,1-.24-.24v-1h0a3.79,3.79,0,0,1-3.41,1.51c-2.18,0-3.86-1.13-3.86-3.46s1.68-3.55,4.48-3.55h2.62a.12.12,0,0,0,.14-.14v-.84c0-1.59-.62-2.26-2.76-2.26a4.46,4.46,0,0,0-2.78.82.22.22,0,0,1-.34,0l-.64-1.1a.26.26,0,0,1,0-.34,6.42,6.42,0,0,1,3.92-1.13c3.26,0,4.51,1.08,4.51,3.92v7.61a.23.23,0,0,1-.24.24Zm-.29-3.72V39.59a.12.12,0,0,0-.14-.14h-2.3c-2,0-2.86.57-2.86,1.87s.86,1.8,2.4,1.8C192.79,43.12,193.89,42.28,193.89,40.87Z"/><path d="M199,44.59a.23.23,0,0,1-.24-.24V28.5a.23.23,0,0,1,.24-.24h1.53a.23.23,0,0,1,.24.24v5.91h0A3.48,3.48,0,0,1,204,32.82a3.8,3.8,0,0,1,4,2.76,9.63,9.63,0,0,1,.41,3.25,9.58,9.58,0,0,1-.41,3.26,3.8,3.8,0,0,1-4,2.76,3.49,3.49,0,0,1-3.26-1.61h0v1.11a.23.23,0,0,1-.24.24Zm7.1-3.36a8,8,0,0,0,.27-2.4,8.29,8.29,0,0,0-.27-2.41,2.72,2.72,0,0,0-5.06,0,7.56,7.56,0,0,0-.27,2.41,7.45,7.45,0,0,0,.27,2.4,2.7,2.7,0,0,0,5.06,0Z"/><path d="M217.63,44.59a.23.23,0,0,1-.24-.24v-1h0A3.79,3.79,0,0,1,214,44.85c-2.19,0-3.87-1.13-3.87-3.46s1.68-3.55,4.49-3.55h2.62a.13.13,0,0,0,.14-.14v-.84c0-1.59-.62-2.26-2.76-2.26a4.46,4.46,0,0,0-2.78.82.22.22,0,0,1-.34,0l-.65-1.1a.27.27,0,0,1,.05-.34,6.42,6.42,0,0,1,3.92-1.13c3.26,0,4.51,1.08,4.51,3.92v7.61a.23.23,0,0,1-.24.24Zm-.29-3.72V39.59a.13.13,0,0,0-.14-.14h-2.31c-2,0-2.85.57-2.85,1.87s.86,1.8,2.4,1.8C216.24,43.12,217.34,42.28,217.34,40.87Z"/><path d="M220.27,48.91a.23.23,0,0,1-.24-.24v-1.4a.23.23,0,0,1,.24-.24h.38c1.13,0,1.52-.31,1.52-1.53V33.33a.22.22,0,0,1,.24-.24h1.53a.22.22,0,0,1,.24.24V45.45c0,2.47-1.1,3.46-3.43,3.46Zm2.09-18.41a.23.23,0,0,1-.24-.24V28.5a.23.23,0,0,1,.24-.24H224a.23.23,0,0,1,.24.24v1.76a.23.23,0,0,1-.24.24Z"/><path d="M226.85,41.75a8.42,8.42,0,0,1-.39-2.92,8.4,8.4,0,0,1,.39-2.91,4.87,4.87,0,0,1,9.07,0,8.68,8.68,0,0,1,.38,2.91,8.7,8.7,0,0,1-.38,2.92,4.87,4.87,0,0,1-9.07,0Zm7.12-.57a7.29,7.29,0,0,0,.27-2.35A7.08,7.08,0,0,0,234,36.5a2.76,2.76,0,0,0-5.18,0,7.41,7.41,0,0,0-.26,2.33,7.64,7.64,0,0,0,.26,2.35,2.76,2.76,0,0,0,5.18,0Z"/><path d="M237.79,43.12a.22.22,0,0,1,0-.33l1-1.06a.23.23,0,0,1,.34,0,5.6,5.6,0,0,0,3.55,1.32c1.68,0,2.52-.72,2.52-1.75s-.43-1.42-2.23-1.61l-1.22-.12c-2.26-.24-3.44-1.37-3.44-3.24,0-2.19,1.56-3.51,4.28-3.51a6.88,6.88,0,0,1,4.08,1.28.23.23,0,0,1,0,.33l-.82,1a.24.24,0,0,1-.34,0,6,6,0,0,0-3.09-.93c-1.44,0-2.19.64-2.19,1.58s.55,1.39,2.26,1.56l1.2.12c2.33.22,3.45,1.39,3.45,3.24,0,2.26-1.63,3.77-4.63,3.77A7.13,7.13,0,0,1,237.79,43.12Z"/><path d="M253.87,41.73a9,9,0,0,1-.38-2.9,8.93,8.93,0,0,1,.36-2.91,4.83,4.83,0,0,1,9,0,10.08,10.08,0,0,1,.36,3.29.24.24,0,0,1-.26.24h-7.28a.13.13,0,0,0-.14.14,4.37,4.37,0,0,0,.19,1.4,2.84,2.84,0,0,0,2.91,2,3.77,3.77,0,0,0,3-1.27c.12-.13.24-.15.36-.05l1,.89a.21.21,0,0,1,0,.33,5.62,5.62,0,0,1-4.49,2A4.45,4.45,0,0,1,253.87,41.73ZM261,37.84c.1,0,.15-.05.15-.14a4.06,4.06,0,0,0-.17-1.3,2.84,2.84,0,0,0-5.28,0,4.06,4.06,0,0,0-.17,1.3.13.13,0,0,0,.14.14Z"/><path d="M268.27,44.71c-2,0-2.81-1-2.81-3V28.5a.23.23,0,0,1,.24-.24h1.54a.23.23,0,0,1,.24.24V41.56c0,1,.36,1.27,1.15,1.27h.46a.23.23,0,0,1,.24.24v1.4a.23.23,0,0,1-.24.24Z"/><path d="M270.88,41.73a9,9,0,0,1-.38-2.9,8.93,8.93,0,0,1,.36-2.91,4.84,4.84,0,0,1,9,0,10.08,10.08,0,0,1,.36,3.29.24.24,0,0,1-.27.24h-7.27a.12.12,0,0,0-.14.14,4.37,4.37,0,0,0,.19,1.4,2.83,2.83,0,0,0,2.9,2,3.74,3.74,0,0,0,2.95-1.27c.12-.13.24-.15.36-.05l1,.89a.21.21,0,0,1,0,.33,5.59,5.59,0,0,1-4.49,2A4.46,4.46,0,0,1,270.88,41.73ZM278,37.84a.13.13,0,0,0,.14-.14,4.06,4.06,0,0,0-.17-1.3,2.84,2.84,0,0,0-5.28,0,4.08,4.08,0,0,0-.16,1.3.12.12,0,0,0,.14.14Zm-3.58-6.62c-.14,0-.21-.1-.14-.24l1.82-3a.44.44,0,0,1,.41-.24h1.58c.15,0,.22.12.12.24L276,31a.46.46,0,0,1-.45.24Z"/><path d="M282.19,35.92a4.46,4.46,0,0,1,4.53-3.1,4.61,4.61,0,0,1,3.94,2c.07.12.07.21-.07.33l-1.06.87a.21.21,0,0,1-.33,0,2.82,2.82,0,0,0-2.48-1.24,2.49,2.49,0,0,0-2.56,1.8,7.39,7.39,0,0,0-.27,2.33,7.45,7.45,0,0,0,.27,2.35,2.49,2.49,0,0,0,2.56,1.8,2.83,2.83,0,0,0,2.48-1.25.21.21,0,0,1,.33,0l1.06.86a.23.23,0,0,1,.07.34,4.6,4.6,0,0,1-3.94,1.94,4.45,4.45,0,0,1-4.53-3.1,9.74,9.74,0,0,1-.36-2.92A9.76,9.76,0,0,1,282.19,35.92Z"/><path d="M296.23,44.71c-2.23,0-3.1-1-3.1-3.27V34.86a.13.13,0,0,0-.14-.14h-1a.23.23,0,0,1-.24-.24V33.33a.22.22,0,0,1,.24-.24h1c.09,0,.14-.05.14-.15V29.7a.23.23,0,0,1,.24-.24h1.54a.23.23,0,0,1,.24.24v3.24c0,.1.05.15.14.15h1.83a.23.23,0,0,1,.24.24v1.15a.23.23,0,0,1-.24.24h-1.83a.13.13,0,0,0-.14.14v6.51c0,1.15.43,1.46,1.46,1.46h.51a.23.23,0,0,1,.24.24v1.4a.23.23,0,0,1-.24.24Z"/><path d="M299.76,44.59a.23.23,0,0,1-.24-.24v-11a.22.22,0,0,1,.24-.24h1.53a.22.22,0,0,1,.24.24V34.5h0a3.2,3.2,0,0,1,3-1.68,3.54,3.54,0,0,1,2.36.87c.12.12.14.21,0,.33l-.88,1.18a.23.23,0,0,1-.34,0A3.2,3.2,0,0,0,304,34.7c-1.75,0-2.47,1.36-2.47,3.36v6.29a.23.23,0,0,1-.24.24Z"/><path d="M308.59,30.5a.23.23,0,0,1-.24-.24V28.5a.23.23,0,0,1,.24-.24h1.63a.23.23,0,0,1,.24.24v1.76a.23.23,0,0,1-.24.24Zm.05,14.09a.23.23,0,0,1-.24-.24v-11a.22.22,0,0,1,.24-.24h1.53a.22.22,0,0,1,.24.24v11a.23.23,0,0,1-.24.24Z"/><path d="M313.05,35.92a4.46,4.46,0,0,1,4.54-3.1,4.61,4.61,0,0,1,3.93,2c.08.12.08.21-.07.33L320.4,36a.22.22,0,0,1-.34,0,2.82,2.82,0,0,0-2.47-1.24A2.49,2.49,0,0,0,315,36.5a7.75,7.75,0,0,0-.26,2.33,7.81,7.81,0,0,0,.26,2.35,2.49,2.49,0,0,0,2.57,1.8,2.82,2.82,0,0,0,2.47-1.25.22.22,0,0,1,.34,0l1.05.86c.15.12.15.22.07.34a4.6,4.6,0,0,1-3.93,1.94,4.45,4.45,0,0,1-4.54-3.1,10.08,10.08,0,0,1-.36-2.92A10.1,10.1,0,0,1,313.05,35.92Z"/><path d="M323.16,41.75a8.42,8.42,0,0,1-.39-2.92,8.4,8.4,0,0,1,.39-2.91,4.87,4.87,0,0,1,9.07,0,8.68,8.68,0,0,1,.38,2.91,8.7,8.7,0,0,1-.38,2.92,4.87,4.87,0,0,1-9.07,0Zm7.12-.57a7.29,7.29,0,0,0,.27-2.35,7.08,7.08,0,0,0-.27-2.33,2.76,2.76,0,0,0-5.18,0,7.41,7.41,0,0,0-.26,2.33,7.64,7.64,0,0,0,.26,2.35,2.76,2.76,0,0,0,5.18,0Z"/><path d="M334.1,43.12a.22.22,0,0,1,0-.33l1-1.06a.23.23,0,0,1,.34,0A5.6,5.6,0,0,0,339,43.05c1.68,0,2.52-.72,2.52-1.75s-.43-1.42-2.23-1.61L338,39.57c-2.26-.24-3.44-1.37-3.44-3.24,0-2.19,1.56-3.51,4.28-3.51A6.88,6.88,0,0,1,343,34.1a.22.22,0,0,1,0,.33l-.81,1a.24.24,0,0,1-.34,0,6,6,0,0,0-3.09-.93c-1.44,0-2.19.64-2.19,1.58s.55,1.39,2.26,1.56l1.2.12c2.33.22,3.45,1.39,3.45,3.24,0,2.26-1.63,3.77-4.63,3.77A7.13,7.13,0,0,1,334.1,43.12Z"/><path d="M345.4,42.28a.23.23,0,0,1,.24-.24h1.83a.23.23,0,0,1,.24.24v2.07a.23.23,0,0,1-.24.24h-1.83a.23.23,0,0,1-.24-.24Z"/></g></g></svg>