<svg xmlns="http://www.w3.org/2000/svg" viewBox="0 0 385.22 77.12"><title>4b</title><g id="Capa_2" data-name="Capa 2"><g id="answer_copia" data-name="answer copia"><path d="M10.37,16.8c-.17,0-.24-.07-.31-.24L6.79,9.89H3.19a.13.13,0,0,0-.14.14v6.53a.23.23,0,0,1-.24.24H1.15a.23.23,0,0,1-.24-.24V.72A.23.23,0,0,1,1.15.48H7.06c3,0,5.11,1.87,5.11,4.7A4.44,4.44,0,0,1,9,9.62l3.48,6.89c.1.15,0,.29-.14.29ZM10,5.18c0-1.7-1.13-2.71-3-2.71H3.19c-.09,0-.14,0-.14.15V7.75c0,.1.05.15.14.15H7C8.9,7.9,10,6.89,10,5.18Z"/><path d="M14.16,14A9.1,9.1,0,0,1,13.78,11a8.87,8.87,0,0,1,.36-2.9A4.42,4.42,0,0,1,18.65,5a4.45,4.45,0,0,1,4.51,3.1,10,10,0,0,1,.36,3.28.24.24,0,0,1-.26.25H16a.12.12,0,0,0-.14.14A4.3,4.3,0,0,0,16,13.2a2.84,2.84,0,0,0,2.91,2,3.77,3.77,0,0,0,2.95-1.27.25.25,0,0,1,.36-.05l1,.89a.22.22,0,0,1,0,.34,5.62,5.62,0,0,1-4.49,2A4.45,4.45,0,0,1,14.16,14Zm7.15-3.89a.13.13,0,0,0,.15-.15,4,4,0,0,0-.17-1.29,2.6,2.6,0,0,0-2.64-1.8A2.58,2.58,0,0,0,16,8.62a4,4,0,0,0-.17,1.29c0,.1.05.15.14.15Z"/><path d="M32.76,16.8a.23.23,0,0,1-.24-.24v-1h0a3.77,3.77,0,0,1-3.41,1.52c-2.19,0-3.87-1.13-3.87-3.46s1.68-3.55,4.49-3.55h2.62c.09,0,.14-.05.14-.15V9.07c0-1.58-.62-2.25-2.76-2.25a4.47,4.47,0,0,0-2.78.81c-.12.1-.27.1-.34,0L25.94,6.5a.25.25,0,0,1,0-.33A6.4,6.4,0,0,1,29.9,5C33.17,5,34.42,6.12,34.42,9v7.61a.23.23,0,0,1-.24.24Zm-.29-3.72V11.81a.12.12,0,0,0-.14-.14H30c-2,0-2.85.57-2.85,1.87s.86,1.8,2.4,1.8C31.37,15.34,32.47,14.5,32.47,13.08Z"/><path d="M40.06,16.92c-2,0-2.81-1-2.81-3V.72a.23.23,0,0,1,.24-.24H39a.23.23,0,0,1,.24.24V13.78c0,1,.36,1.27,1.16,1.27h.45a.23.23,0,0,1,.24.24v1.39a.22.22,0,0,1-.24.24Z"/><path d="M43.18,2.71a.22.22,0,0,1-.24-.24V.72a.23.23,0,0,1,.24-.24h1.63a.23.23,0,0,1,.24.24V2.47a.23.23,0,0,1-.24.24Zm0,14.09a.23.23,0,0,1-.24-.24v-11a.23.23,0,0,1,.24-.24h1.54a.23.23,0,0,1,.24.24v11a.23.23,0,0,1-.24.24Z"/><path d="M47.64,8.14A4.45,4.45,0,0,1,52.18,5,4.6,4.6,0,0,1,56.11,7a.23.23,0,0,1-.07.34L55,8.18a.21.21,0,0,1-.33,0,2.82,2.82,0,0,0-2.47-1.25,2.49,2.49,0,0,0-2.57,1.8A7.7,7.7,0,0,0,49.34,11a7.76,7.76,0,0,0,.27,2.35,2.49,2.49,0,0,0,2.57,1.8A2.82,2.82,0,0,0,54.65,14a.21.21,0,0,1,.33,0l1.06.87c.14.12.14.21.07.33a4.61,4.61,0,0,1-3.93,2A4.46,4.46,0,0,1,47.64,14,9.81,9.81,0,0,1,47.28,11,9.69,9.69,0,0,1,47.64,8.14Z"/><path d="M57.74,14A9.1,9.1,0,0,1,57.36,11a8.87,8.87,0,0,1,.36-2.9,4.83,4.83,0,0,1,9,0,10,10,0,0,1,.36,3.28.23.23,0,0,1-.26.25H59.57c-.1,0-.15,0-.15.14a4.27,4.27,0,0,0,.2,1.39,2.83,2.83,0,0,0,2.9,2,3.74,3.74,0,0,0,2.95-1.27.25.25,0,0,1,.36-.05l1,.89a.22.22,0,0,1,0,.34,5.59,5.59,0,0,1-4.49,2A4.45,4.45,0,0,1,57.74,14Zm7.16-3.89c.09,0,.14-.05.14-.15a4,4,0,0,0-.17-1.29,2.84,2.84,0,0,0-5.28,0,4,4,0,0,0-.17,1.29.13.13,0,0,0,.15.15Z"/><path d="M81.14,16.8a.23.23,0,0,1-.24-.24v-1h0a3.77,3.77,0,0,1-3.41,1.52c-2.18,0-3.86-1.13-3.86-3.46s1.68-3.55,4.48-3.55h2.62c.1,0,.14-.05.14-.15V9.07c0-1.58-.62-2.25-2.76-2.25a4.47,4.47,0,0,0-2.78.81.22.22,0,0,1-.34,0L74.33,6.5a.24.24,0,0,1,0-.33A6.42,6.42,0,0,1,78.29,5C81.55,5,82.8,6.12,82.8,9v7.61a.23.23,0,0,1-.24.24Zm-.29-3.72V11.81c0-.1,0-.14-.14-.14h-2.3c-2,0-2.86.57-2.86,1.87s.86,1.8,2.4,1.8C79.75,15.34,80.85,14.5,80.85,13.08Z"/><path d="M85.34,8.14A4.45,4.45,0,0,1,89.88,5,4.6,4.6,0,0,1,93.81,7c.08.12.08.22-.07.34l-1,.86a.22.22,0,0,1-.34,0,2.82,2.82,0,0,0-2.47-1.25,2.49,2.49,0,0,0-2.57,1.8A7.75,7.75,0,0,0,87.05,11a7.81,7.81,0,0,0,.26,2.35,2.49,2.49,0,0,0,2.57,1.8A2.82,2.82,0,0,0,92.35,14a.22.22,0,0,1,.34,0l1,.87c.15.12.15.21.07.33a4.61,4.61,0,0,1-3.93,2A4.46,4.46,0,0,1,85.34,14,10.15,10.15,0,0,1,85,11,10,10,0,0,1,85.34,8.14Z"/><path d="M99.38,16.92c-2.23,0-3.09-1-3.09-3.26V7.08c0-.1-.05-.14-.15-.14h-1a.23.23,0,0,1-.24-.24V5.54a.23.23,0,0,1,.24-.24h1c.1,0,.15,0,.15-.14V1.92a.23.23,0,0,1,.24-.24h1.53a.23.23,0,0,1,.24.24V5.16c0,.1,0,.14.15.14h1.82a.23.23,0,0,1,.24.24V6.7a.23.23,0,0,1-.24.24H98.45c-.1,0-.15,0-.15.14v6.5c0,1.16.43,1.47,1.47,1.47h.5a.23.23,0,0,1,.24.24v1.39a.23.23,0,0,1-.24.24Z"/><path d="M102.86,2.71a.23.23,0,0,1-.24-.24V.72a.23.23,0,0,1,.24-.24h1.63a.23.23,0,0,1,.24.24V2.47a.22.22,0,0,1-.24.24Zm0,14.09a.23.23,0,0,1-.24-.24v-11a.23.23,0,0,1,.24-.24h1.54a.23.23,0,0,1,.24.24v11a.23.23,0,0,1-.24.24Z"/><path d="M110.73,16.8a.27.27,0,0,1-.28-.24l-4.13-11c0-.14,0-.24.19-.24h1.66c.16,0,.24.08.31.24l3,8.26h0l2.91-8.26a.28.28,0,0,1,.28-.24h1.64c.16,0,.24.1.19.24l-4.11,11a.3.3,0,0,1-.31.24Z"/><path d="M118.34,2.71a.23.23,0,0,1-.24-.24V.72a.23.23,0,0,1,.24-.24H120a.23.23,0,0,1,.24.24V2.47a.22.22,0,0,1-.24.24Zm0,14.09a.23.23,0,0,1-.24-.24v-11a.23.23,0,0,1,.24-.24h1.54a.23.23,0,0,1,.24.24v11a.23.23,0,0,1-.24.24Z"/><path d="M130.34,16.8a.23.23,0,0,1-.24-.24v-1.1h0a3.51,3.51,0,0,1-3.27,1.61,3.81,3.81,0,0,1-4-2.76,9.71,9.71,0,0,1-.4-3.27,9.56,9.56,0,0,1,.4-3.24,3.81,3.81,0,0,1,4-2.76,3.5,3.5,0,0,1,3.27,1.58h0V.72a.23.23,0,0,1,.24-.24h1.54a.23.23,0,0,1,.24.24V16.56a.23.23,0,0,1-.24.24Zm-.5-3.36a7.47,7.47,0,0,0,.26-2.4,7.59,7.59,0,0,0-.26-2.4,2.72,2.72,0,0,0-5.07,0,8.26,8.26,0,0,0-.26,2.4,8,8,0,0,0,.26,2.4,2.71,2.71,0,0,0,5.07,0Z"/><path d="M142.05,16.8a.23.23,0,0,1-.24-.24v-1h0a3.77,3.77,0,0,1-3.41,1.52c-2.18,0-3.86-1.13-3.86-3.46s1.68-3.55,4.49-3.55h2.61a.13.13,0,0,0,.15-.15V9.07c0-1.58-.63-2.25-2.76-2.25a4.48,4.48,0,0,0-2.79.81c-.12.1-.26.1-.33,0l-.65-1.11a.24.24,0,0,1,0-.33A6.36,6.36,0,0,1,139.2,5c3.26,0,4.51,1.08,4.51,3.91v7.61a.23.23,0,0,1-.24.24Zm-.28-3.72V11.81c0-.1-.05-.14-.15-.14h-2.3c-2,0-2.86.57-2.86,1.87s.87,1.8,2.4,1.8C140.66,15.34,141.77,14.5,141.77,13.08Z"/><path d="M153.79,16.8a.23.23,0,0,1-.24-.24v-1.1h0a3.52,3.52,0,0,1-3.27,1.61,3.81,3.81,0,0,1-4-2.76,9.68,9.68,0,0,1-.41-3.27,9.53,9.53,0,0,1,.41-3.24,3.81,3.81,0,0,1,4-2.76,3.51,3.51,0,0,1,3.27,1.58h0V.72a.23.23,0,0,1,.24-.24h1.54a.23.23,0,0,1,.24.24V16.56a.23.23,0,0,1-.24.24Zm-.5-3.36a7.47,7.47,0,0,0,.26-2.4,7.59,7.59,0,0,0-.26-2.4,2.72,2.72,0,0,0-5.07,0A8.26,8.26,0,0,0,148,11a8,8,0,0,0,.26,2.4,2.71,2.71,0,0,0,5.07,0Z"/><path d="M158.23,14a9.1,9.1,0,0,1-.38-2.91,8.87,8.87,0,0,1,.36-2.9,4.83,4.83,0,0,1,9,0,10,10,0,0,1,.36,3.28.24.24,0,0,1-.26.25h-7.28a.12.12,0,0,0-.14.14,4.3,4.3,0,0,0,.19,1.39,2.84,2.84,0,0,0,2.91,2,3.77,3.77,0,0,0,3-1.27.25.25,0,0,1,.36-.05l1,.89a.22.22,0,0,1,0,.34,5.62,5.62,0,0,1-4.49,2A4.45,4.45,0,0,1,158.23,14Zm7.15-3.89a.13.13,0,0,0,.15-.15,4,4,0,0,0-.17-1.29,2.84,2.84,0,0,0-5.28,0,4,4,0,0,0-.17,1.29c0,.1.05.15.14.15Z"/><path d="M169.08,15.34a.23.23,0,0,1,0-.34l1-1.05a.23.23,0,0,1,.34,0A5.6,5.6,0,0,0,174,15.27c1.68,0,2.52-.73,2.52-1.76s-.43-1.41-2.23-1.61L173,11.78c-2.25-.24-3.43-1.36-3.43-3.24,0-2.18,1.56-3.5,4.27-3.5a6.88,6.88,0,0,1,4.08,1.27.24.24,0,0,1,0,.34l-.81,1a.24.24,0,0,1-.34.05,6,6,0,0,0-3.1-.94c-1.44,0-2.18.65-2.18,1.59s.55,1.39,2.26,1.56l1.2.12c2.32.21,3.45,1.39,3.45,3.24,0,2.25-1.63,3.77-4.63,3.77A7.16,7.16,0,0,1,169.08,15.34Z"/><path d="M185.16,14a9.05,9.05,0,0,1-.39-2.91,8.87,8.87,0,0,1,.36-2.9,4.84,4.84,0,0,1,9,0,10,10,0,0,1,.36,3.28.24.24,0,0,1-.27.25H187a.12.12,0,0,0-.14.14A4.3,4.3,0,0,0,187,13.2a2.83,2.83,0,0,0,2.9,2,3.78,3.78,0,0,0,3-1.27.25.25,0,0,1,.36-.05l1,.89a.22.22,0,0,1,0,.34,5.59,5.59,0,0,1-4.48,2A4.45,4.45,0,0,1,185.16,14Zm7.15-3.89c.1,0,.14-.05.14-.15a4,4,0,0,0-.16-1.29,2.84,2.84,0,0,0-5.28,0,4,4,0,0,0-.17,1.29c0,.1,0,.15.14.15Z"/><path d="M199.56,16.92c-2,0-2.81-1-2.81-3V.72A.23.23,0,0,1,197,.48h1.54a.23.23,0,0,1,.24.24V13.78c0,1,.36,1.27,1.15,1.27h.45a.23.23,0,0,1,.24.24v1.39a.22.22,0,0,1-.24.24Z"/><path d="M202.17,14a9.1,9.1,0,0,1-.38-2.91,8.87,8.87,0,0,1,.36-2.9,4.83,4.83,0,0,1,9,0,10,10,0,0,1,.36,3.28.23.23,0,0,1-.26.25H204c-.1,0-.15,0-.15.14a4.27,4.27,0,0,0,.2,1.39,2.83,2.83,0,0,0,2.9,2,3.74,3.74,0,0,0,3-1.27.25.25,0,0,1,.36-.05l1,.89a.22.22,0,0,1,0,.34,5.59,5.59,0,0,1-4.49,2A4.45,4.45,0,0,1,202.17,14Zm7.16-3.89c.09,0,.14-.05.14-.15a4,4,0,0,0-.17-1.29,2.84,2.84,0,0,0-5.28,0,4,4,0,0,0-.17,1.29.13.13,0,0,0,.15.15Zm-3.58-6.63c-.14,0-.22-.09-.14-.24L207.43.24a.42.42,0,0,1,.41-.24h1.58c.15,0,.22.12.12.24l-2.21,3a.47.47,0,0,1-.45.24Z"/><path d="M213.48,8.14A4.44,4.44,0,0,1,218,5,4.6,4.6,0,0,1,222,7a.23.23,0,0,1-.07.34l-1.06.86a.22.22,0,0,1-.34,0A2.81,2.81,0,0,0,218,6.91a2.5,2.5,0,0,0-2.57,1.8,7.75,7.75,0,0,0-.26,2.33,7.81,7.81,0,0,0,.26,2.35,2.5,2.5,0,0,0,2.57,1.8A2.8,2.8,0,0,0,220.48,14a.22.22,0,0,1,.34,0l1.06.87c.14.12.14.21.07.33a4.61,4.61,0,0,1-3.94,2,4.45,4.45,0,0,1-4.53-3.1,9.81,9.81,0,0,1-.36-2.93A9.69,9.69,0,0,1,213.48,8.14Z"/><path d="M227.52,16.92c-2.24,0-3.1-1-3.1-3.26V7.08a.12.12,0,0,0-.14-.14h-1a.23.23,0,0,1-.24-.24V5.54a.23.23,0,0,1,.24-.24h1a.12.12,0,0,0,.14-.14V1.92a.23.23,0,0,1,.24-.24h1.54a.23.23,0,0,1,.24.24V5.16c0,.1,0,.14.14.14h1.82a.23.23,0,0,1,.24.24V6.7a.23.23,0,0,1-.24.24h-1.82c-.1,0-.14,0-.14.14v6.5c0,1.16.43,1.47,1.46,1.47h.5a.23.23,0,0,1,.24.24v1.39a.22.22,0,0,1-.24.24Z"/><path d="M231,16.8a.23.23,0,0,1-.24-.24v-11A.23.23,0,0,1,231,5.3h1.54a.23.23,0,0,1,.24.24V6.72h0a3.23,3.23,0,0,1,3-1.68,3.56,3.56,0,0,1,2.35.86c.13.12.15.22,0,.34l-.89,1.18a.21.21,0,0,1-.33,0,3.28,3.28,0,0,0-1.78-.55c-1.75,0-2.47,1.37-2.47,3.36v6.29a.23.23,0,0,1-.24.24Z"/><path d="M239.88,2.71a.22.22,0,0,1-.24-.24V.72a.23.23,0,0,1,.24-.24h1.63a.23.23,0,0,1,.24.24V2.47a.23.23,0,0,1-.24.24Zm0,14.09a.23.23,0,0,1-.24-.24v-11a.23.23,0,0,1,.24-.24h1.54a.23.23,0,0,1,.24.24v11a.23.23,0,0,1-.24.24Z"/><path d="M244.34,8.14A4.45,4.45,0,0,1,248.88,5,4.6,4.6,0,0,1,252.81,7c.08.12.08.22-.07.34l-1.06.86a.21.21,0,0,1-.33,0,2.82,2.82,0,0,0-2.47-1.25,2.49,2.49,0,0,0-2.57,1.8A7.7,7.7,0,0,0,246,11a7.76,7.76,0,0,0,.27,2.35,2.49,2.49,0,0,0,2.57,1.8A2.82,2.82,0,0,0,251.35,14a.21.21,0,0,1,.33,0l1.06.87c.15.12.15.21.07.33a4.61,4.61,0,0,1-3.93,2,4.46,4.46,0,0,1-4.54-3.1A9.81,9.81,0,0,1,244,11,9.69,9.69,0,0,1,244.34,8.14Z"/><path d="M261.72,16.8a.22.22,0,0,1-.24-.24v-1h0A3.75,3.75,0,0,1,258,17.07c-2.18,0-3.86-1.13-3.86-3.46s1.68-3.55,4.49-3.55h2.61a.13.13,0,0,0,.15-.15V9.07c0-1.58-.63-2.25-2.76-2.25a4.5,4.5,0,0,0-2.79.81c-.12.1-.26.1-.33,0L254.9,6.5a.24.24,0,0,1,0-.33A6.38,6.38,0,0,1,258.86,5c3.27,0,4.51,1.08,4.51,3.91v7.61a.22.22,0,0,1-.24.24Zm-.29-3.72V11.81c0-.1-.05-.14-.15-.14H259c-2,0-2.86.57-2.86,1.87s.87,1.8,2.4,1.8C260.32,15.34,261.43,14.5,261.43,13.08Z"/><path d="M265.46,15.34a.23.23,0,0,1,0-.34l1-1.05a.23.23,0,0,1,.34,0,5.6,5.6,0,0,0,3.55,1.32c1.68,0,2.52-.73,2.52-1.76s-.43-1.41-2.23-1.61l-1.22-.12c-2.26-.24-3.44-1.36-3.44-3.24,0-2.18,1.56-3.5,4.28-3.5a6.88,6.88,0,0,1,4.08,1.27.24.24,0,0,1,.05.34l-.82,1a.24.24,0,0,1-.34.05,6,6,0,0,0-3.09-.94c-1.44,0-2.19.65-2.19,1.59s.55,1.39,2.26,1.56l1.2.12c2.33.21,3.45,1.39,3.45,3.24,0,2.25-1.63,3.77-4.63,3.77A7.18,7.18,0,0,1,265.46,15.34Z"/><path d="M281.06,15.34a.23.23,0,0,1,0-.34L282,14a.23.23,0,0,1,.34,0,5.6,5.6,0,0,0,3.55,1.32c1.68,0,2.52-.73,2.52-1.76s-.43-1.41-2.23-1.61L285,11.78c-2.26-.24-3.44-1.36-3.44-3.24,0-2.18,1.56-3.5,4.28-3.5a6.88,6.88,0,0,1,4.08,1.27.24.24,0,0,1,.05.34l-.82,1a.24.24,0,0,1-.34.05,6,6,0,0,0-3.09-.94c-1.44,0-2.19.65-2.19,1.59s.55,1.39,2.26,1.56l1.2.12c2.33.21,3.45,1.39,3.45,3.24,0,2.25-1.63,3.77-4.63,3.77A7.18,7.18,0,0,1,281.06,15.34Z"/><path d="M292.34,14A8.52,8.52,0,0,1,292,11a8.4,8.4,0,0,1,.38-2.9,4.87,4.87,0,0,1,9.07,0,8.37,8.37,0,0,1,.39,2.9,8.48,8.48,0,0,1-.39,2.93,4.87,4.87,0,0,1-9.07,0Zm7.13-.58a7.56,7.56,0,0,0,.26-2.35,7.5,7.5,0,0,0-.26-2.33,2.77,2.77,0,0,0-5.19,0A7.5,7.5,0,0,0,294,11a7.56,7.56,0,0,0,.26,2.35,2.77,2.77,0,0,0,5.19,0Z"/><path d="M306.84,16.92c-2,0-2.81-1-2.81-3V.72a.23.23,0,0,1,.24-.24h1.53a.23.23,0,0,1,.24.24V13.78c0,1,.36,1.27,1.16,1.27h.45a.23.23,0,0,1,.24.24v1.39a.22.22,0,0,1-.24.24Z"/><path d="M309.45,14a8.77,8.77,0,0,1-.38-2.93,8.65,8.65,0,0,1,.38-2.9,4.87,4.87,0,0,1,9.07,0,8.37,8.37,0,0,1,.39,2.9,8.48,8.48,0,0,1-.39,2.93,4.87,4.87,0,0,1-9.07,0Zm7.13-.58a7.56,7.56,0,0,0,.26-2.35,7.5,7.5,0,0,0-.26-2.33,2.77,2.77,0,0,0-5.19,0,7.5,7.5,0,0,0-.26,2.33,7.56,7.56,0,0,0,.26,2.35,2.77,2.77,0,0,0,5.19,0Z"/><path d="M325.19,15.34a.25.25,0,0,1,0-.34l1-1.05a.22.22,0,0,1,.33,0,5.63,5.63,0,0,0,3.56,1.32c1.68,0,2.52-.73,2.52-1.76s-.44-1.41-2.24-1.61l-1.22-.12c-2.25-.24-3.43-1.36-3.43-3.24,0-2.18,1.56-3.5,4.27-3.5a6.88,6.88,0,0,1,4.08,1.27.24.24,0,0,1,.05.34l-.82,1a.23.23,0,0,1-.33.05,6.07,6.07,0,0,0-3.1-.94c-1.44,0-2.18.65-2.18,1.59s.55,1.39,2.25,1.56l1.2.12c2.33.21,3.46,1.39,3.46,3.24,0,2.25-1.63,3.77-4.63,3.77A7.21,7.21,0,0,1,325.19,15.34Z"/><path d="M337,2.71a.22.22,0,0,1-.24-.24V.72A.23.23,0,0,1,337,.48h1.63a.23.23,0,0,1,.24.24V2.47a.23.23,0,0,1-.24.24Zm0,14.09a.22.22,0,0,1-.24-.24v-11A.23.23,0,0,1,337,5.3h1.53a.23.23,0,0,1,.24.24v11a.22.22,0,0,1-.24.24Z"/><path d="M.53,36.14A4.45,4.45,0,0,1,5.06,33,4.6,4.6,0,0,1,9,35a.23.23,0,0,1-.07.34l-1.06.86a.21.21,0,0,1-.33,0,2.84,2.84,0,0,0-2.48-1.25,2.49,2.49,0,0,0-2.56,1.8A7.39,7.39,0,0,0,2.23,39a7.45,7.45,0,0,0,.27,2.35,2.49,2.49,0,0,0,2.56,1.8A2.83,2.83,0,0,0,7.54,42a.21.21,0,0,1,.33,0l1.06.87c.14.12.14.21.07.33a4.61,4.61,0,0,1-3.94,2A4.46,4.46,0,0,1,.53,42,9.81,9.81,0,0,1,.17,39,9.69,9.69,0,0,1,.53,36.14Z"/><path d="M18.46,44.8a.22.22,0,0,1-.24-.24V43.48h0a3.5,3.5,0,0,1-3.14,1.59c-2.52,0-4-1.73-4-4.35V33.54a.23.23,0,0,1,.24-.24h1.54a.23.23,0,0,1,.24.24v6.7c0,1.87.84,2.95,2.54,2.95a2.55,2.55,0,0,0,2.6-2.83V33.54a.23.23,0,0,1,.24-.24H20a.23.23,0,0,1,.24.24v11a.22.22,0,0,1-.24.24Z"/><path d="M22.89,42A9.1,9.1,0,0,1,22.51,39a8.87,8.87,0,0,1,.36-2.9A4.44,4.44,0,0,1,27.38,33a4.46,4.46,0,0,1,4.52,3.1,10,10,0,0,1,.36,3.28.24.24,0,0,1-.27.25H24.72c-.1,0-.14,0-.14.14a4.3,4.3,0,0,0,.19,1.39,2.83,2.83,0,0,0,2.9,2,3.74,3.74,0,0,0,2.95-1.27.25.25,0,0,1,.36-.05l1,.89a.22.22,0,0,1,0,.34,5.59,5.59,0,0,1-4.49,2A4.46,4.46,0,0,1,22.89,42Zm7.16-3.89c.09,0,.14-.05.14-.15A4,4,0,0,0,30,36.62a2.58,2.58,0,0,0-2.64-1.8,2.6,2.6,0,0,0-2.64,1.8,4,4,0,0,0-.16,1.29c0,.1,0,.15.14.15Z"/><path d="M42,44.8a.23.23,0,0,1-.24-.24V37.84c0-1.85-.84-2.93-2.57-2.93a2.58,2.58,0,0,0-2.64,2.81v6.84a.22.22,0,0,1-.24.24H34.77a.22.22,0,0,1-.23-.24v-11a.22.22,0,0,1,.23-.24h1.54a.23.23,0,0,1,.24.24V34.6h0A3.65,3.65,0,0,1,39.79,33c2.5,0,4,1.7,4,4.32v7.2a.23.23,0,0,1-.24.24Z"/><path d="M50,44.92c-2.24,0-3.1-1-3.1-3.26V35.08a.12.12,0,0,0-.14-.14h-1a.23.23,0,0,1-.24-.24V33.54a.23.23,0,0,1,.24-.24h1a.12.12,0,0,0,.14-.14V29.92a.23.23,0,0,1,.24-.24h1.54a.23.23,0,0,1,.24.24v3.24c0,.1,0,.14.14.14h1.82a.23.23,0,0,1,.24.24V34.7a.23.23,0,0,1-.24.24H49c-.1,0-.14,0-.14.14v6.5c0,1.16.43,1.47,1.46,1.47h.5a.23.23,0,0,1,.24.24v1.39a.22.22,0,0,1-.24.24Z"/><path d="M60.22,44.8a.23.23,0,0,1-.25-.24v-1h0a3.75,3.75,0,0,1-3.41,1.52c-2.18,0-3.86-1.13-3.86-3.46s1.68-3.55,4.49-3.55h2.61a.13.13,0,0,0,.15-.15v-.84c0-1.58-.63-2.25-2.76-2.25a4.48,4.48,0,0,0-2.79.81c-.12.1-.26.1-.33,0L53.4,34.5a.24.24,0,0,1,.05-.33A6.36,6.36,0,0,1,57.36,33c3.26,0,4.51,1.08,4.51,3.91v7.61a.22.22,0,0,1-.24.24Zm-.29-3.72V39.81c0-.1,0-.14-.15-.14h-2.3c-2,0-2.86.57-2.86,1.87s.87,1.8,2.4,1.8C58.82,43.34,59.93,42.5,59.93,41.08Z"/><path d="M69.21,36.14A4.45,4.45,0,0,1,73.75,33,4.62,4.62,0,0,1,77.69,35c.07.12.07.22-.08.34l-1,.86a.22.22,0,0,1-.34,0,2.82,2.82,0,0,0-2.47-1.25,2.5,2.5,0,0,0-2.57,1.8A7.75,7.75,0,0,0,70.92,39a7.81,7.81,0,0,0,.26,2.35,2.5,2.5,0,0,0,2.57,1.8A2.82,2.82,0,0,0,76.22,42a.22.22,0,0,1,.34,0l1,.87c.15.12.15.21.08.33a4.62,4.62,0,0,1-3.94,2A4.46,4.46,0,0,1,69.21,42,10.15,10.15,0,0,1,68.85,39,10,10,0,0,1,69.21,36.14Z"/><path d="M79.32,42A8.48,8.48,0,0,1,78.93,39a8.37,8.37,0,0,1,.39-2.9,4.87,4.87,0,0,1,9.07,0,8.65,8.65,0,0,1,.38,2.9A8.77,8.77,0,0,1,88.39,42a4.87,4.87,0,0,1-9.07,0Zm7.13-.58A7.56,7.56,0,0,0,86.71,39a7.5,7.5,0,0,0-.26-2.33,2.77,2.77,0,0,0-5.19,0A7.5,7.5,0,0,0,81,39a7.56,7.56,0,0,0,.26,2.35,2.77,2.77,0,0,0,5.19,0Z"/><path d="M98.52,44.8a.22.22,0,0,1-.24-.24V37.84c0-1.85-.84-2.93-2.57-2.93a2.58,2.58,0,0,0-2.64,2.81v6.84a.23.23,0,0,1-.24.24H91.29a.23.23,0,0,1-.24-.24v-11a.23.23,0,0,1,.24-.24h1.54a.23.23,0,0,1,.24.24V34.6h0A3.65,3.65,0,0,1,96.31,33c2.5,0,4,1.7,4,4.32v7.2a.23.23,0,0,1-.25.24Z"/><path d="M115.17,44.8a.23.23,0,0,1-.24-.24V43.48h0a3.51,3.51,0,0,1-3.14,1.59c-2.52,0-4-1.73-4-4.35V33.54a.23.23,0,0,1,.24-.24h1.54a.23.23,0,0,1,.24.24v6.7c0,1.87.84,2.95,2.54,2.95a2.55,2.55,0,0,0,2.59-2.83V33.54a.23.23,0,0,1,.24-.24h1.54a.23.23,0,0,1,.24.24v11a.23.23,0,0,1-.24.24Z"/><path d="M127.39,44.8a.23.23,0,0,1-.24-.24V37.84c0-1.85-.84-2.93-2.57-2.93a2.58,2.58,0,0,0-2.64,2.81v6.84a.23.23,0,0,1-.24.24h-1.54a.22.22,0,0,1-.23-.24v-11a.22.22,0,0,1,.23-.24h1.54a.23.23,0,0,1,.24.24V34.6h0A3.62,3.62,0,0,1,125.18,33c2.5,0,4,1.7,4,4.32v7.2a.23.23,0,0,1-.24.24Z"/><path d="M139,44.8a.23.23,0,0,1-.24-.24v-1h0a3.77,3.77,0,0,1-3.41,1.52c-2.18,0-3.87-1.13-3.87-3.46s1.69-3.55,4.49-3.55h2.62c.09,0,.14-.05.14-.15v-.84c0-1.58-.62-2.25-2.76-2.25a4.47,4.47,0,0,0-2.78.81.22.22,0,0,1-.34,0l-.65-1.11a.25.25,0,0,1,.05-.33A6.42,6.42,0,0,1,136.13,33c3.26,0,4.51,1.08,4.51,3.91v7.61a.23.23,0,0,1-.24.24Zm-.29-3.72V39.81a.12.12,0,0,0-.14-.14h-2.31c-2,0-2.85.57-2.85,1.87s.86,1.8,2.4,1.8C137.59,43.34,138.69,42.5,138.69,41.08Z"/><path d="M148.56,49.12a.22.22,0,0,1-.24-.24V33.54a.23.23,0,0,1,.24-.24h1.53a.23.23,0,0,1,.24.24v1.08h0A3.48,3.48,0,0,1,153.62,33a3.8,3.8,0,0,1,4,2.76A9.53,9.53,0,0,1,158,39a9.68,9.68,0,0,1-.41,3.27,3.8,3.8,0,0,1-4,2.76,3.49,3.49,0,0,1-3.26-1.61h0v5.42a.22.22,0,0,1-.24.24Zm7.1-7.68a8,8,0,0,0,.27-2.4,8.21,8.21,0,0,0-.27-2.4,2.71,2.71,0,0,0-5.06,0,7.25,7.25,0,0,0-.27,2.4,7.14,7.14,0,0,0,.27,2.4,2.7,2.7,0,0,0,5.06,0Z"/><path d="M160,42a9.05,9.05,0,0,1-.39-2.91,8.87,8.87,0,0,1,.36-2.9,4.84,4.84,0,0,1,9,0,10,10,0,0,1,.36,3.28.24.24,0,0,1-.27.25h-7.27c-.1,0-.14,0-.14.14a4.3,4.3,0,0,0,.19,1.39,2.83,2.83,0,0,0,2.9,2,3.74,3.74,0,0,0,3-1.27.25.25,0,0,1,.36-.05l1,.89a.22.22,0,0,1,0,.34,5.59,5.59,0,0,1-4.49,2A4.44,4.44,0,0,1,160,42Zm7.15-3.89c.09,0,.14-.05.14-.15a4,4,0,0,0-.17-1.29,2.84,2.84,0,0,0-5.28,0,4,4,0,0,0-.16,1.29c0,.1,0,.15.14.15Z"/><path d="M171.84,44.8a.22.22,0,0,1-.24-.24v-11a.23.23,0,0,1,.24-.24h1.53a.23.23,0,0,1,.24.24v1.18h0a3.2,3.2,0,0,1,3-1.68,3.58,3.58,0,0,1,2.36.86c.12.12.14.22,0,.34l-.88,1.18a.22.22,0,0,1-.34,0,3.28,3.28,0,0,0-1.78-.55c-1.75,0-2.47,1.37-2.47,3.36v6.29a.22.22,0,0,1-.24.24Z"/><path d="M179.49,43.34a.25.25,0,0,1,0-.34l1-1a.22.22,0,0,1,.33,0,5.62,5.62,0,0,0,3.55,1.32c1.69,0,2.53-.73,2.53-1.76s-.44-1.41-2.24-1.61l-1.22-.12c-2.26-.24-3.43-1.36-3.43-3.24,0-2.18,1.56-3.5,4.27-3.5a6.88,6.88,0,0,1,4.08,1.27.24.24,0,0,1,.05.34l-.82,1a.24.24,0,0,1-.34,0,6,6,0,0,0-3.09-.94c-1.44,0-2.18.65-2.18,1.59s.55,1.39,2.25,1.56l1.2.12c2.33.21,3.46,1.39,3.46,3.24,0,2.25-1.64,3.77-4.64,3.77A7.18,7.18,0,0,1,179.49,43.34Z"/><path d="M190.77,42a8.77,8.77,0,0,1-.38-2.93,8.65,8.65,0,0,1,.38-2.9,4.87,4.87,0,0,1,9.07,0,8.37,8.37,0,0,1,.39,2.9,8.48,8.48,0,0,1-.39,2.93,4.87,4.87,0,0,1-9.07,0Zm7.13-.58a7.56,7.56,0,0,0,.26-2.35,7.5,7.5,0,0,0-.26-2.33,2.76,2.76,0,0,0-5.18,0,7.16,7.16,0,0,0-.27,2.33,7.22,7.22,0,0,0,.27,2.35,2.76,2.76,0,0,0,5.18,0Z"/><path d="M210,44.8a.23.23,0,0,1-.24-.24V37.84c0-1.85-.84-2.93-2.57-2.93a2.58,2.58,0,0,0-2.64,2.81v6.84a.22.22,0,0,1-.24.24h-1.53a.22.22,0,0,1-.24-.24v-11a.23.23,0,0,1,.24-.24h1.53a.23.23,0,0,1,.24.24V34.6h0A3.62,3.62,0,0,1,207.76,33c2.5,0,4,1.7,4,4.32v7.2a.23.23,0,0,1-.24.24Z"/><path d="M221.56,44.8a.23.23,0,0,1-.24-.24v-1h0a3.77,3.77,0,0,1-3.41,1.52c-2.18,0-3.86-1.13-3.86-3.46s1.68-3.55,4.49-3.55h2.61a.13.13,0,0,0,.15-.15v-.84c0-1.58-.63-2.25-2.76-2.25a4.48,4.48,0,0,0-2.79.81.22.22,0,0,1-.34,0l-.64-1.11a.24.24,0,0,1,.05-.33A6.36,6.36,0,0,1,218.71,33c3.26,0,4.51,1.08,4.51,3.91v7.61a.23.23,0,0,1-.24.24Zm-.28-3.72V39.81c0-.1-.05-.14-.15-.14h-2.3c-2,0-2.86.57-2.86,1.87s.87,1.8,2.4,1.8C220.17,43.34,221.28,42.5,221.28,41.08Z"/><path d="M230.56,36.14A4.45,4.45,0,0,1,235.1,33,4.62,4.62,0,0,1,239,35c.07.12.07.22-.08.34l-1.05.86a.22.22,0,0,1-.34,0,2.82,2.82,0,0,0-2.47-1.25,2.5,2.5,0,0,0-2.57,1.8,7.75,7.75,0,0,0-.26,2.33,7.81,7.81,0,0,0,.26,2.35,2.5,2.5,0,0,0,2.57,1.8A2.82,2.82,0,0,0,237.57,42a.22.22,0,0,1,.34,0l1.05.87c.15.12.15.21.08.33a4.62,4.62,0,0,1-3.94,2,4.46,4.46,0,0,1-4.54-3.1A10.15,10.15,0,0,1,230.2,39,10,10,0,0,1,230.56,36.14Z"/><path d="M240.67,42a9.05,9.05,0,0,1-.39-2.91,8.87,8.87,0,0,1,.36-2.9,4.84,4.84,0,0,1,9,0,10,10,0,0,1,.36,3.28.24.24,0,0,1-.27.25h-7.27c-.1,0-.14,0-.14.14a4.3,4.3,0,0,0,.19,1.39,2.83,2.83,0,0,0,2.9,2,3.74,3.74,0,0,0,2.95-1.27.26.26,0,0,1,.37-.05l1,.89a.22.22,0,0,1,0,.34,5.59,5.59,0,0,1-4.48,2A4.45,4.45,0,0,1,240.67,42Zm7.15-3.89c.1,0,.14-.05.14-.15a4,4,0,0,0-.16-1.29,2.84,2.84,0,0,0-5.29,0,4,4,0,0,0-.16,1.29c0,.1,0,.15.14.15Z"/><path d="M252.55,44.8a.22.22,0,0,1-.24-.24v-11a.23.23,0,0,1,.24-.24h1.53a.23.23,0,0,1,.24.24v1.18h0a3.2,3.2,0,0,1,3-1.68,3.58,3.58,0,0,1,2.36.86c.12.12.14.22.05.34l-.89,1.18a.22.22,0,0,1-.34,0,3.28,3.28,0,0,0-1.77-.55c-1.76,0-2.48,1.37-2.48,3.36v6.29a.22.22,0,0,1-.24.24Z"/><path d="M264.52,44.92c-2.23,0-3.09-1-3.09-3.26V35.08c0-.1-.05-.14-.15-.14h-1a.23.23,0,0,1-.24-.24V33.54a.23.23,0,0,1,.24-.24h1c.1,0,.15,0,.15-.14V29.92a.23.23,0,0,1,.24-.24h1.53a.23.23,0,0,1,.24.24v3.24c0,.1.05.14.15.14h1.82a.23.23,0,0,1,.24.24V34.7a.23.23,0,0,1-.24.24h-1.82c-.1,0-.15,0-.15.14v6.5c0,1.16.43,1.47,1.47,1.47h.5a.23.23,0,0,1,.24.24v1.39a.23.23,0,0,1-.24.24Z"/><path d="M268,30.71a.23.23,0,0,1-.24-.24V28.72a.23.23,0,0,1,.24-.24h1.64a.22.22,0,0,1,.23.24v1.75a.22.22,0,0,1-.23.24Zm.05,14.09a.23.23,0,0,1-.24-.24v-11a.23.23,0,0,1,.24-.24h1.54a.23.23,0,0,1,.24.24v11a.23.23,0,0,1-.24.24Z"/><path d="M273.43,44.8a.22.22,0,0,1-.24-.24V35.08c0-.1-.05-.14-.15-.14h-1a.23.23,0,0,1-.24-.24V33.54a.23.23,0,0,1,.24-.24h1c.1,0,.15,0,.15-.14v-1c0-2.72,1.1-3.7,3.5-3.7h.89a.23.23,0,0,1,.24.24v1.39a.23.23,0,0,1-.24.24H277c-1.46,0-1.75.31-1.75,1.73v1.08c0,.1.05.14.15.14h2.23a.23.23,0,0,1,.24.24V34.7a.23.23,0,0,1-.24.24h-2.23c-.1,0-.15,0-.15.14v9.48a.22.22,0,0,1-.24.24Zm7.2-14.09a.22.22,0,0,1-.24-.24V28.72a.23.23,0,0,1,.24-.24h1.63a.23.23,0,0,1,.24.24v1.75a.23.23,0,0,1-.24.24Zm0,14.09a.23.23,0,0,1-.24-.24v-11a.23.23,0,0,1,.24-.24h1.54a.23.23,0,0,1,.24.24v11a.23.23,0,0,1-.24.24Z"/><path d="M285.09,36.14a4.45,4.45,0,0,1,4.54-3.1A4.6,4.6,0,0,1,293.56,35c.08.12.08.22-.07.34l-1.06.86a.21.21,0,0,1-.33,0,2.82,2.82,0,0,0-2.47-1.25,2.49,2.49,0,0,0-2.57,1.8,7.7,7.7,0,0,0-.27,2.33,7.76,7.76,0,0,0,.27,2.35,2.49,2.49,0,0,0,2.57,1.8A2.82,2.82,0,0,0,292.1,42a.21.21,0,0,1,.33,0l1.06.87c.15.12.15.21.07.33a4.61,4.61,0,0,1-3.93,2,4.46,4.46,0,0,1-4.54-3.1,9.81,9.81,0,0,1-.36-2.93A9.69,9.69,0,0,1,285.09,36.14Z"/><path d="M302.47,44.8a.22.22,0,0,1-.24-.24v-1h0a3.75,3.75,0,0,1-3.41,1.52c-2.18,0-3.86-1.13-3.86-3.46s1.68-3.55,4.49-3.55H302a.13.13,0,0,0,.15-.15v-.84c0-1.58-.63-2.25-2.76-2.25a4.5,4.5,0,0,0-2.79.81c-.12.1-.26.1-.33,0l-.65-1.11a.24.24,0,0,1,.05-.33A6.38,6.38,0,0,1,299.61,33c3.26,0,4.51,1.08,4.51,3.91v7.61a.22.22,0,0,1-.24.24Zm-.29-3.72V39.81c0-.1-.05-.14-.15-.14h-2.3c-2,0-2.86.57-2.86,1.87s.87,1.8,2.4,1.8C301.07,43.34,302.18,42.5,302.18,41.08Z"/><path d="M314.2,44.8a.23.23,0,0,1-.24-.24v-1.1h0a3.51,3.51,0,0,1-3.27,1.61,3.81,3.81,0,0,1-4-2.76A9.68,9.68,0,0,1,306.3,39a9.53,9.53,0,0,1,.41-3.24,3.81,3.81,0,0,1,4-2.76,3.5,3.5,0,0,1,3.27,1.58h0v-5.9a.23.23,0,0,1,.24-.24h1.54a.23.23,0,0,1,.24.24V44.56a.23.23,0,0,1-.24.24Zm-.5-3.36A7.47,7.47,0,0,0,314,39a7.59,7.59,0,0,0-.26-2.4,2.72,2.72,0,0,0-5.07,0,8.26,8.26,0,0,0-.26,2.4,8,8,0,0,0,.26,2.4,2.71,2.71,0,0,0,5.07,0Z"/><path d="M325.91,44.8a.23.23,0,0,1-.24-.24v-1h0a3.77,3.77,0,0,1-3.41,1.52c-2.18,0-3.86-1.13-3.86-3.46s1.68-3.55,4.49-3.55h2.61a.13.13,0,0,0,.15-.15v-.84c0-1.58-.63-2.25-2.76-2.25a4.48,4.48,0,0,0-2.79.81c-.12.1-.26.1-.33,0l-.65-1.11a.25.25,0,0,1,0-.33A6.42,6.42,0,0,1,323.06,33c3.26,0,4.51,1.08,4.51,3.91v7.61a.23.23,0,0,1-.24.24Zm-.28-3.72V39.81c0-.1-.05-.14-.15-.14h-2.3c-2,0-2.86.57-2.86,1.87s.87,1.8,2.4,1.8C324.52,43.34,325.63,42.5,325.63,41.08Z"/><path d="M334.91,36.14a4.45,4.45,0,0,1,4.54-3.1A4.62,4.62,0,0,1,343.39,35c.07.12.07.22-.08.34l-1.05.86a.22.22,0,0,1-.34,0,2.82,2.82,0,0,0-2.47-1.25,2.5,2.5,0,0,0-2.57,1.8,7.75,7.75,0,0,0-.26,2.33,7.81,7.81,0,0,0,.26,2.35,2.5,2.5,0,0,0,2.57,1.8A2.82,2.82,0,0,0,341.92,42a.22.22,0,0,1,.34,0l1.05.87c.15.12.15.21.08.33a4.62,4.62,0,0,1-3.94,2,4.46,4.46,0,0,1-4.54-3.1,10.15,10.15,0,0,1-.36-2.93A10,10,0,0,1,334.91,36.14Z"/><path d="M345,42a8.48,8.48,0,0,1-.39-2.93,8.37,8.37,0,0,1,.39-2.9,4.87,4.87,0,0,1,9.07,0,8.65,8.65,0,0,1,.38,2.9,8.77,8.77,0,0,1-.38,2.93A4.87,4.87,0,0,1,345,42Zm7.13-.58a7.56,7.56,0,0,0,.26-2.35,7.5,7.5,0,0,0-.26-2.33,2.77,2.77,0,0,0-5.19,0A7.5,7.5,0,0,0,346.7,39a7.56,7.56,0,0,0,.26,2.35,2.77,2.77,0,0,0,5.19,0Z"/><path d="M371.44,44.8a.23.23,0,0,1-.24-.24V37.84c0-1.85-.84-2.93-2.57-2.93A2.6,2.6,0,0,0,366,37.72v6.84a.22.22,0,0,1-.24.24h-1.53a.22.22,0,0,1-.24-.24V37.84c0-1.85-.84-2.93-2.57-2.93a2.58,2.58,0,0,0-2.64,2.81v6.84a.23.23,0,0,1-.24.24H357a.23.23,0,0,1-.24-.24v-11a.23.23,0,0,1,.24-.24h1.54a.23.23,0,0,1,.24.24V34.6h0a4.07,4.07,0,0,1,6.58.24h0a4.3,4.3,0,0,1,3.72-1.8c2.67,0,4.11,1.7,4.11,4.32v7.2a.23.23,0,0,1-.24.24Z"/><path d="M375.76,42a8.77,8.77,0,0,1-.38-2.93,8.65,8.65,0,0,1,.38-2.9,4.87,4.87,0,0,1,9.07,0,8.37,8.37,0,0,1,.39,2.9,8.48,8.48,0,0,1-.39,2.93,4.87,4.87,0,0,1-9.07,0Zm7.13-.58a7.56,7.56,0,0,0,.26-2.35,7.5,7.5,0,0,0-.26-2.33,2.76,2.76,0,0,0-5.18,0,7.16,7.16,0,0,0-.27,2.33,7.22,7.22,0,0,0,.27,2.35,2.76,2.76,0,0,0,5.18,0Z"/><path d="M.07,71.34a.25.25,0,0,1,0-.34l1-1a.22.22,0,0,1,.33,0,5.62,5.62,0,0,0,3.55,1.32c1.68,0,2.53-.73,2.53-1.76S7,68.1,5.23,67.9L4,67.79C1.75,67.54.58,66.42.58,64.54c0-2.18,1.56-3.5,4.27-3.5a6.88,6.88,0,0,1,4.08,1.27.24.24,0,0,1,.05.34l-.82,1a.24.24,0,0,1-.34,0,6,6,0,0,0-3.09-.94c-1.44,0-2.19.65-2.19,1.59s.56,1.39,2.26,1.56l1.2.12c2.33.21,3.46,1.39,3.46,3.24,0,2.25-1.64,3.77-4.64,3.77A7.18,7.18,0,0,1,.07,71.34Z"/><path d="M18.89,72.8a.22.22,0,0,1-.24-.24V71.48h0a3.5,3.5,0,0,1-3.14,1.59c-2.52,0-4-1.73-4-4.35V61.54a.23.23,0,0,1,.24-.24h1.53a.23.23,0,0,1,.24.24v6.7c0,1.87.84,3,2.55,3a2.55,2.55,0,0,0,2.59-2.83V61.54a.23.23,0,0,1,.24-.24h1.53a.23.23,0,0,1,.24.24v11a.22.22,0,0,1-.24.24Z"/><path d="M23.88,77.12a.22.22,0,0,1-.24-.24V61.54a.23.23,0,0,1,.24-.24h1.54a.23.23,0,0,1,.24.24v1.08h0A3.49,3.49,0,0,1,28.94,61a3.79,3.79,0,0,1,4,2.76A9.32,9.32,0,0,1,33.31,67a9.43,9.43,0,0,1-.41,3.27,3.79,3.79,0,0,1-4,2.76,3.5,3.5,0,0,1-3.26-1.61h0v5.42a.23.23,0,0,1-.24.24ZM31,69.44a7.68,7.68,0,0,0,.27-2.4,7.88,7.88,0,0,0-.27-2.4,2.43,2.43,0,0,0-2.52-1.73,2.44,2.44,0,0,0-2.54,1.73,7.59,7.59,0,0,0-.26,2.4,7.47,7.47,0,0,0,.26,2.4,2.46,2.46,0,0,0,2.54,1.75A2.45,2.45,0,0,0,31,69.44Z"/><path d="M35.28,70A9.05,9.05,0,0,1,34.89,67a8.82,8.82,0,0,1,.37-2.9A4.42,4.42,0,0,1,39.77,61a4.45,4.45,0,0,1,4.51,3.1,10,10,0,0,1,.36,3.28.24.24,0,0,1-.26.25H37.1a.12.12,0,0,0-.14.14,4.3,4.3,0,0,0,.19,1.39,2.84,2.84,0,0,0,2.91,2A3.77,3.77,0,0,0,43,69.92a.25.25,0,0,1,.36,0l1,.89a.22.22,0,0,1,0,.34,5.62,5.62,0,0,1-4.49,2A4.45,4.45,0,0,1,35.28,70Zm7.15-3.89a.13.13,0,0,0,.15-.15,4,4,0,0,0-.17-1.29,2.84,2.84,0,0,0-5.28,0A4,4,0,0,0,37,65.91c0,.1,0,.15.14.15Z"/><path d="M47.16,72.8a.23.23,0,0,1-.24-.24v-11a.23.23,0,0,1,.24-.24H48.7a.23.23,0,0,1,.24.24v1.18h0A3.2,3.2,0,0,1,52,61a3.58,3.58,0,0,1,2.35.86c.12.12.14.22,0,.34l-.89,1.18a.22.22,0,0,1-.34,0,3.25,3.25,0,0,0-1.77-.55c-1.75,0-2.47,1.37-2.47,3.36v6.29a.23.23,0,0,1-.24.24Z"/><path d="M58.87,72.8c-.17,0-.24-.09-.29-.24l-4.12-11c-.05-.14,0-.24.19-.24H56.3c.17,0,.24.08.32.24l3,8.26h0l2.9-8.26a.29.29,0,0,1,.29-.24h1.63c.17,0,.24.1.2.24l-4.11,11a.3.3,0,0,1-.31.24Z"/><path d="M66.48,58.71a.23.23,0,0,1-.24-.24V56.72a.23.23,0,0,1,.24-.24h1.63a.23.23,0,0,1,.24.24v1.75a.22.22,0,0,1-.24.24Zm0,14.09a.22.22,0,0,1-.24-.24v-11a.23.23,0,0,1,.24-.24h1.53a.23.23,0,0,1,.24.24v11a.22.22,0,0,1-.24.24Z"/><path d="M70.49,71.34a.23.23,0,0,1,0-.34l1-1a.23.23,0,0,1,.34,0,5.6,5.6,0,0,0,3.55,1.32c1.68,0,2.52-.73,2.52-1.76s-.43-1.41-2.23-1.61l-1.23-.11C72.17,67.54,71,66.42,71,64.54c0-2.18,1.56-3.5,4.27-3.5a6.88,6.88,0,0,1,4.08,1.27.24.24,0,0,1,0,.34l-.82,1a.23.23,0,0,1-.33,0,6.07,6.07,0,0,0-3.1-.94c-1.44,0-2.18.65-2.18,1.59s.55,1.39,2.26,1.56l1.19.12c2.33.21,3.46,1.39,3.46,3.24,0,2.25-1.63,3.77-4.63,3.77A7.16,7.16,0,0,1,70.49,71.34Z"/><path d="M81.77,70A8.48,8.48,0,0,1,81.38,67a8.37,8.37,0,0,1,.39-2.9,4.87,4.87,0,0,1,9.07,0,8.65,8.65,0,0,1,.38,2.9A8.77,8.77,0,0,1,90.84,70a4.87,4.87,0,0,1-9.07,0Zm7.12-.58A7.26,7.26,0,0,0,89.16,67a7.16,7.16,0,0,0-.27-2.33,2.76,2.76,0,0,0-5.18,0A7.5,7.5,0,0,0,83.45,67a7.6,7.6,0,0,0,.26,2.35,2.76,2.76,0,0,0,5.18,0Z"/><path d="M93.74,72.8a.23.23,0,0,1-.24-.24v-11a.23.23,0,0,1,.24-.24h1.54a.23.23,0,0,1,.24.24v1.18h0a3.21,3.21,0,0,1,3-1.68,3.56,3.56,0,0,1,2.35.86c.12.12.15.22,0,.34l-.89,1.18a.21.21,0,0,1-.33,0A3.31,3.31,0,0,0,98,62.91c-1.75,0-2.47,1.37-2.47,3.36v6.29a.23.23,0,0,1-.24.24Z"/><path d="M100.49,70.5a.22.22,0,0,1,.24-.24h1.82a.23.23,0,0,1,.24.24v2.06a.23.23,0,0,1-.24.24h-1.82a.22.22,0,0,1-.24-.24Z"/></g></g></svg>