<svg xmlns="http://www.w3.org/2000/svg" viewBox="0 0 626.1 43.45"><title>4c</title><g id="Capa_2" data-name="Capa 2"><g id="respuestas_contorno" data-name="respuestas contorno"><path d="M.08,13.58a.24.24,0,0,1,0-.33L1,12.1a.2.2,0,0,1,.31,0,6.91,6.91,0,0,0,4.18,1.54c2.07,0,3.3-1,3.3-2.55,0-1.28-.72-2.14-3.12-2.44l-.75-.11C2,8.12.54,6.73.54,4.38.54,1.72,2.45,0,5.42,0A7.89,7.89,0,0,1,10,1.39a.19.19,0,0,1,0,.3L9.27,2.9A.21.21,0,0,1,9,3,6.62,6.62,0,0,0,5.36,1.83c-1.83,0-2.84,1-2.84,2.42,0,1.25.84,2.09,3.15,2.4l.72.11c2.93.39,4.4,1.73,4.4,4.18,0,2.61-1.85,4.51-5.45,4.51A8.22,8.22,0,0,1,.08,13.58Z"/><path d="M13.06,2.29a.21.21,0,0,1-.22-.22V.46a.21.21,0,0,1,.22-.22h1.49a.2.2,0,0,1,.22.22V2.07a.2.2,0,0,1-.22.22Zm0,12.91a.2.2,0,0,1-.22-.22V4.88a.2.2,0,0,1,.22-.21h1.41a.2.2,0,0,1,.22.21V15a.2.2,0,0,1-.22.22Z"/><path d="M22.08,15.2a.2.2,0,0,1-.22-.22V4.88a.2.2,0,0,1,.22-.21h1.41a.19.19,0,0,1,.21.21V6h0a2.93,2.93,0,0,1,2.79-1.54,3.26,3.26,0,0,1,2.16.79c.11.12.13.2,0,.31L27.91,6.6a.21.21,0,0,1-.31.05A2.94,2.94,0,0,0,26,6.14c-1.61,0-2.27,1.25-2.27,3.08V15a.2.2,0,0,1-.21.22Z"/><path d="M29.31,12.59A8.66,8.66,0,0,1,29,9.92a8.17,8.17,0,0,1,.33-2.66,4.09,4.09,0,0,1,4.14-2.84,4.1,4.1,0,0,1,4.14,2.84,9.21,9.21,0,0,1,.33,3,.22.22,0,0,1-.25.22H31c-.09,0-.14,0-.14.13A3.9,3.9,0,0,0,31,11.9a2.61,2.61,0,0,0,2.66,1.83,3.44,3.44,0,0,0,2.71-1.17.22.22,0,0,1,.33,0l.9.81a.2.2,0,0,1,0,.31,5.1,5.1,0,0,1-4.11,1.81A4.09,4.09,0,0,1,29.31,12.59ZM35.87,9C36,9,36,9,36,8.89a3.75,3.75,0,0,0-.15-1.19A2.6,2.6,0,0,0,31,7.7a3.72,3.72,0,0,0-.16,1.19c0,.09,0,.13.14.13Z"/><path d="M46.36,15.2a.2.2,0,0,1-.21-.22v-.92h0A3.46,3.46,0,0,1,43,15.45c-2,0-3.54-1-3.54-3.17S41,9,43.57,9H46c.09,0,.13,0,.13-.13V8.12c0-1.45-.57-2.07-2.53-2.07A4.07,4.07,0,0,0,41,6.8a.2.2,0,0,1-.31,0l-.59-1a.23.23,0,0,1,0-.31,5.83,5.83,0,0,1,3.59-1c3,0,4.13,1,4.13,3.59v7a.2.2,0,0,1-.22.22Zm-.26-3.41V10.63c0-.09,0-.13-.13-.13H43.86c-1.83,0-2.62.52-2.62,1.71s.79,1.65,2.2,1.65C45.09,13.86,46.1,13.09,46.1,11.79Z"/><path d="M53.05,15.31c-1.85,0-2.57-.88-2.57-2.77V.46A.21.21,0,0,1,50.7.24h1.41a.21.21,0,0,1,.22.22v12c0,.88.33,1.17,1.05,1.17h.42a.21.21,0,0,1,.22.22v1.27a.2.2,0,0,1-.22.22Z"/><path d="M55.91,2.29a.21.21,0,0,1-.22-.22V.46a.21.21,0,0,1,.22-.22h1.5a.21.21,0,0,1,.22.22V2.07a.21.21,0,0,1-.22.22ZM56,15.2a.2.2,0,0,1-.22-.22V4.88A.2.2,0,0,1,56,4.67h1.4a.2.2,0,0,1,.22.21V15a.2.2,0,0,1-.22.22Z"/><path d="M59.94,15.2a.2.2,0,0,1-.22-.22V13.82a.3.3,0,0,1,.09-.24l5.78-7.2v0H60.22A.21.21,0,0,1,60,6.12V4.88a.2.2,0,0,1,.22-.21h7.35a.2.2,0,0,1,.22.21V6.12a.32.32,0,0,1-.09.24L62,13.49v0h5.61a.21.21,0,0,1,.22.22V15a.2.2,0,0,1-.22.22Z"/><path d="M76.31,15.2a.2.2,0,0,1-.22-.22v-.92h0a3.44,3.44,0,0,1-3.12,1.39c-2,0-3.54-1-3.54-3.17S70.94,9,73.51,9h2.4C76,9,76,9,76,8.89V8.12c0-1.45-.57-2.07-2.53-2.07A4.09,4.09,0,0,0,71,6.8a.2.2,0,0,1-.31,0l-.59-1a.23.23,0,0,1,0-.31,5.83,5.83,0,0,1,3.59-1c3,0,4.13,1,4.13,3.59v7a.2.2,0,0,1-.22.22ZM76,11.79V10.63c0-.09,0-.13-.13-.13H73.8c-1.83,0-2.62.52-2.62,1.71s.79,1.65,2.2,1.65C75,13.86,76,13.09,76,11.79Z"/><path d="M87.92,15.31c-2,0-2.84-.92-2.84-3v-6A.12.12,0,0,0,85,6.16h-.88a.21.21,0,0,1-.22-.22V4.88a.2.2,0,0,1,.22-.21H85c.09,0,.13,0,.13-.14v-3a.21.21,0,0,1,.22-.22h1.41a.21.21,0,0,1,.22.22v3a.12.12,0,0,0,.13.14h1.68a.2.2,0,0,1,.22.21V5.94a.21.21,0,0,1-.22.22H87.06a.12.12,0,0,0-.13.13v6c0,1.05.4,1.34,1.34,1.34h.47a.21.21,0,0,1,.22.22v1.27a.2.2,0,0,1-.22.22Z"/><path d="M91.15,15.2a.2.2,0,0,1-.21-.22V4.88a.19.19,0,0,1,.21-.21h1.41a.2.2,0,0,1,.22.21V6h0a3,3,0,0,1,2.8-1.54,3.26,3.26,0,0,1,2.16.79c.11.12.13.2,0,.31L97,6.6a.21.21,0,0,1-.31.05,3,3,0,0,0-1.63-.51c-1.61,0-2.27,1.25-2.27,3.08V15a.2.2,0,0,1-.22.22Z"/><path d="M104.93,15.2a.2.2,0,0,1-.22-.22v-.92h0a3.47,3.47,0,0,1-3.13,1.39c-2,0-3.54-1-3.54-3.17S99.56,9,102.13,9h2.4c.09,0,.13,0,.13-.13V8.12c0-1.45-.57-2.07-2.53-2.07a4.09,4.09,0,0,0-2.55.75.2.2,0,0,1-.31,0l-.59-1a.23.23,0,0,1,0-.31,5.85,5.85,0,0,1,3.59-1c3,0,4.14,1,4.14,3.59v7a.2.2,0,0,1-.22.22Zm-.27-3.41V10.63c0-.09,0-.13-.13-.13h-2.11c-1.83,0-2.62.52-2.62,1.71s.79,1.65,2.2,1.65C103.65,13.86,104.66,13.09,104.66,11.79Z"/><path d="M109.31,15.2a.2.2,0,0,1-.22-.22V.46a.2.2,0,0,1,.22-.22h1.4a.2.2,0,0,1,.22.22V5.88h0a3.2,3.2,0,0,1,3-1.46A3.49,3.49,0,0,1,117.58,7a8.92,8.92,0,0,1,.37,3,9,9,0,0,1-.37,3A3.49,3.49,0,0,1,114,15.45,3.21,3.21,0,0,1,111,14h0v1a.2.2,0,0,1-.22.22Zm6.51-3.08a7.51,7.51,0,0,0,.24-2.2,7.78,7.78,0,0,0-.24-2.2,2.49,2.49,0,0,0-4.64,0,6.73,6.73,0,0,0-.25,2.2,6.58,6.58,0,0,0,.25,2.2,2.48,2.48,0,0,0,4.64,0Z"/><path d="M126.42,15.2a.2.2,0,0,1-.22-.22v-.92h0a3.47,3.47,0,0,1-3.12,1.39c-2,0-3.55-1-3.55-3.17S121.05,9,123.63,9H126c.09,0,.14,0,.14-.13V8.12c0-1.45-.57-2.07-2.53-2.07a4.13,4.13,0,0,0-2.56.75c-.11.09-.24.09-.3,0l-.6-1a.24.24,0,0,1,0-.31,5.8,5.8,0,0,1,3.58-1c3,0,4.14,1,4.14,3.59v7a.2.2,0,0,1-.22.22Zm-.26-3.41V10.63c0-.09,0-.13-.14-.13h-2.11c-1.82,0-2.62.52-2.62,1.71s.8,1.65,2.21,1.65C125.15,13.86,126.16,13.09,126.16,11.79Z"/><path d="M128.84,19.17a.21.21,0,0,1-.22-.22V17.67a.21.21,0,0,1,.22-.22h.35c1,0,1.39-.29,1.39-1.41V4.88a.2.2,0,0,1,.22-.21h1.41a.2.2,0,0,1,.22.21V16c0,2.26-1,3.17-3.15,3.17Zm1.92-16.88a.21.21,0,0,1-.23-.22V.46a.21.21,0,0,1,.23-.22h1.49a.21.21,0,0,1,.22.22V2.07a.21.21,0,0,1-.22.22Z"/><path d="M134.87,12.61a8,8,0,0,1-.35-2.69,7.92,7.92,0,0,1,.35-2.66,4.47,4.47,0,0,1,8.32,0,7.92,7.92,0,0,1,.35,2.66,8,8,0,0,1-.35,2.69,4.47,4.47,0,0,1-8.32,0Zm6.53-.53a6.73,6.73,0,0,0,.25-2.16,6.57,6.57,0,0,0-.25-2.13,2.53,2.53,0,0,0-4.75,0,6.61,6.61,0,0,0-.24,2.13,6.78,6.78,0,0,0,.24,2.16,2.53,2.53,0,0,0,4.75,0Z"/><path d="M144.9,13.86a.21.21,0,0,1,0-.31l.9-1a.21.21,0,0,1,.31,0,5.13,5.13,0,0,0,3.26,1.21c1.54,0,2.31-.66,2.31-1.61s-.4-1.3-2.05-1.47l-1.12-.11c-2.07-.22-3.15-1.26-3.15-3,0-2,1.43-3.22,3.92-3.22A6.3,6.3,0,0,1,153,5.59a.21.21,0,0,1,0,.31l-.75.94a.21.21,0,0,1-.3,0A5.57,5.57,0,0,0,149.17,6c-1.32,0-2,.59-2,1.45s.5,1.28,2.06,1.43l1.11.11c2.13.2,3.16,1.28,3.16,3,0,2.07-1.49,3.46-4.24,3.46A6.55,6.55,0,0,1,144.9,13.86Z"/><path d="M166.53,15.2a.2.2,0,0,1-.22-.22V14h0a3.19,3.19,0,0,1-3,1.48,3.49,3.49,0,0,1-3.63-2.53,9,9,0,0,1-.37-3,8.92,8.92,0,0,1,.37-3,3.49,3.49,0,0,1,3.63-2.53,3.18,3.18,0,0,1,3,1.46h0V.46a.2.2,0,0,1,.22-.22h1.41a.2.2,0,0,1,.21.22V15a.2.2,0,0,1-.21.22Zm-.47-3.08a6.58,6.58,0,0,0,.25-2.2,6.73,6.73,0,0,0-.25-2.2,2.49,2.49,0,0,0-4.64,0,7.78,7.78,0,0,0-.24,2.2,7.51,7.51,0,0,0,.24,2.2,2.48,2.48,0,0,0,4.64,0Z"/><path d="M170.6,12.59a8.32,8.32,0,0,1-.36-2.67,8.17,8.17,0,0,1,.33-2.66,4.44,4.44,0,0,1,8.28,0,9.21,9.21,0,0,1,.33,3,.22.22,0,0,1-.24.22h-6.67c-.09,0-.13,0-.13.13a3.93,3.93,0,0,0,.17,1.27A2.61,2.61,0,0,0,175,13.73a3.44,3.44,0,0,0,2.71-1.17.22.22,0,0,1,.33,0l.9.81a.21.21,0,0,1,0,.31,5.13,5.13,0,0,1-4.12,1.81A4.08,4.08,0,0,1,170.6,12.59ZM177.15,9c.09,0,.13,0,.13-.13a3.75,3.75,0,0,0-.15-1.19,2.6,2.6,0,0,0-4.84,0,3.75,3.75,0,0,0-.15,1.19c0,.09,0,.13.13.13Z"/><path d="M192.05,15.2a.2.2,0,0,1-.22-.22v-.92h0a3.46,3.46,0,0,1-3.12,1.39c-2,0-3.54-1-3.54-3.17S186.68,9,189.25,9h2.4c.09,0,.13,0,.13-.13V8.12c0-1.45-.57-2.07-2.53-2.07a4.07,4.07,0,0,0-2.55.75.2.2,0,0,1-.31,0l-.59-1a.23.23,0,0,1,0-.31,5.81,5.81,0,0,1,3.59-1c3,0,4.13,1,4.13,3.59v7a.2.2,0,0,1-.22.22Zm-.27-3.41V10.63c0-.09,0-.13-.13-.13h-2.11c-1.83,0-2.62.52-2.62,1.71s.79,1.65,2.2,1.65C190.77,13.86,191.78,13.09,191.78,11.79Z"/><path d="M198.73,15.31c-1.85,0-2.57-.88-2.57-2.77V.46a.21.21,0,0,1,.22-.22h1.41a.21.21,0,0,1,.22.22v12c0,.88.33,1.17,1.05,1.17h.42a.21.21,0,0,1,.22.22v1.27a.2.2,0,0,1-.22.22Z"/><path d="M204.36,15.31c-2,0-2.83-.92-2.83-3v-6a.12.12,0,0,0-.14-.13h-.87a.21.21,0,0,1-.23-.22V4.88a.21.21,0,0,1,.23-.21h.87a.13.13,0,0,0,.14-.14v-3a.2.2,0,0,1,.22-.22h1.4a.2.2,0,0,1,.22.22v3a.13.13,0,0,0,.14.14h1.67a.2.2,0,0,1,.22.21V5.94a.21.21,0,0,1-.22.22h-1.67a.12.12,0,0,0-.14.13v6c0,1.05.4,1.34,1.35,1.34h.46a.21.21,0,0,1,.22.22v1.27a.2.2,0,0,1-.22.22Z"/><path d="M214,15.2a.2.2,0,0,1-.22-.22V14h0a3.22,3.22,0,0,1-2.88,1.46c-2.31,0-3.66-1.59-3.66-4V4.88a.2.2,0,0,1,.22-.21h1.41a.2.2,0,0,1,.22.21V11c0,1.72.77,2.71,2.34,2.71a2.34,2.34,0,0,0,2.37-2.6V4.88a.2.2,0,0,1,.22-.21h1.41a.2.2,0,0,1,.22.21V15a.2.2,0,0,1-.22.22Z"/><path d="M218.58,15.2a.2.2,0,0,1-.22-.22V4.88a.2.2,0,0,1,.22-.21H220a.2.2,0,0,1,.22.21V6h0A2.93,2.93,0,0,1,223,4.42a3.26,3.26,0,0,1,2.16.79c.11.12.13.2,0,.31l-.81,1.08a.21.21,0,0,1-.31.05,3,3,0,0,0-1.63-.51c-1.61,0-2.27,1.25-2.27,3.08V15a.2.2,0,0,1-.22.22Z"/><path d="M232.35,15.2a.2.2,0,0,1-.22-.22v-.92h0A3.47,3.47,0,0,1,229,15.45c-2,0-3.54-1-3.54-3.17S227,9,229.55,9H232c.09,0,.14,0,.14-.13V8.12c0-1.45-.58-2.07-2.54-2.07A4.12,4.12,0,0,0,227,6.8a.2.2,0,0,1-.31,0l-.59-1a.24.24,0,0,1,0-.31,5.85,5.85,0,0,1,3.59-1c3,0,4.14,1,4.14,3.59v7a.2.2,0,0,1-.22.22Zm-.26-3.41V10.63c0-.09-.05-.13-.14-.13h-2.11c-1.83,0-2.62.52-2.62,1.71s.79,1.65,2.2,1.65C231.07,13.86,232.09,13.09,232.09,11.79Z"/><path d="M235.78,13.86a.21.21,0,0,1,0-.31l.9-1a.21.21,0,0,1,.31,0,5.13,5.13,0,0,0,3.26,1.21c1.54,0,2.31-.66,2.31-1.61s-.4-1.3-2.05-1.47l-1.12-.11c-2.07-.22-3.15-1.26-3.15-3,0-2,1.43-3.22,3.92-3.22a6.3,6.3,0,0,1,3.74,1.17.21.21,0,0,1,0,.31l-.75.94a.21.21,0,0,1-.3,0A5.57,5.57,0,0,0,240.05,6c-1.32,0-2,.59-2,1.45s.5,1.28,2.06,1.43l1.1.11c2.14.2,3.17,1.28,3.17,3,0,2.07-1.49,3.46-4.24,3.46A6.55,6.55,0,0,1,235.78,13.86Z"/><path d="M257.41,15.2a.2.2,0,0,1-.22-.22V14h0a3.19,3.19,0,0,1-3,1.48,3.49,3.49,0,0,1-3.63-2.53,9,9,0,0,1-.37-3,8.92,8.92,0,0,1,.37-3,3.49,3.49,0,0,1,3.63-2.53,3.18,3.18,0,0,1,3,1.46h0V.46a.2.2,0,0,1,.22-.22h1.4a.2.2,0,0,1,.22.22V15a.2.2,0,0,1-.22.22Zm-.47-3.08a6.58,6.58,0,0,0,.25-2.2,6.73,6.73,0,0,0-.25-2.2,2.49,2.49,0,0,0-4.64,0,7.78,7.78,0,0,0-.24,2.2,7.51,7.51,0,0,0,.24,2.2,2.48,2.48,0,0,0,4.64,0Z"/><path d="M261.48,12.61a7.71,7.71,0,0,1-.36-2.69,7.64,7.64,0,0,1,.36-2.66,4.46,4.46,0,0,1,8.31,0,7.92,7.92,0,0,1,.35,2.66,8,8,0,0,1-.35,2.69,4.46,4.46,0,0,1-8.31,0Zm6.53-.53a6.78,6.78,0,0,0,.24-2.16A6.61,6.61,0,0,0,268,7.79a2.53,2.53,0,0,0-4.75,0A6.61,6.61,0,0,0,263,9.92a6.78,6.78,0,0,0,.24,2.16,2.53,2.53,0,0,0,4.75,0Z"/><path d="M279.08,15.2a.2.2,0,0,1-.22-.22V8.82c0-1.69-.77-2.68-2.36-2.68a2.36,2.36,0,0,0-2.42,2.57V15a.2.2,0,0,1-.22.22h-1.41a.2.2,0,0,1-.22-.22V4.88a.2.2,0,0,1,.22-.21h1.41a.2.2,0,0,1,.22.21v1h0a3.35,3.35,0,0,1,2.95-1.43c2.29,0,3.65,1.57,3.65,4V15a.2.2,0,0,1-.22.22Z"/><path d="M289.92,15.2a.2.2,0,0,1-.22-.22V14h0a3.21,3.21,0,0,1-3,1.48,3.48,3.48,0,0,1-3.63-2.53,8.72,8.72,0,0,1-.38-3,8.64,8.64,0,0,1,.38-3,3.48,3.48,0,0,1,3.63-2.53,3.2,3.2,0,0,1,3,1.46h0V.46a.21.21,0,0,1,.22-.22h1.41a.21.21,0,0,1,.22.22V15a.2.2,0,0,1-.22.22Zm-.46-3.08a6.63,6.63,0,0,0,.24-2.2,6.79,6.79,0,0,0-.24-2.2,2.49,2.49,0,0,0-4.64,0,7.43,7.43,0,0,0-.24,2.2,7.18,7.18,0,0,0,.24,2.2,2.48,2.48,0,0,0,4.64,0Z"/><path d="M294,12.59a8.36,8.36,0,0,1-.35-2.67A8.17,8.17,0,0,1,294,7.26a4.43,4.43,0,0,1,8.27,0,9.21,9.21,0,0,1,.33,3,.22.22,0,0,1-.24.22h-6.67a.12.12,0,0,0-.13.13,3.9,3.9,0,0,0,.18,1.27,2.6,2.6,0,0,0,2.66,1.83,3.47,3.47,0,0,0,2.71-1.17.22.22,0,0,1,.33,0l.9.81a.2.2,0,0,1,0,.31,5.12,5.12,0,0,1-4.11,1.81A4.08,4.08,0,0,1,294,12.59ZM300.55,9c.09,0,.13,0,.13-.13a3.75,3.75,0,0,0-.15-1.19,2.6,2.6,0,0,0-4.84,0,3.72,3.72,0,0,0-.16,1.19.12.12,0,0,0,.13.13Z"/><path d="M308.77,12.59a8.36,8.36,0,0,1-.35-2.67,8.17,8.17,0,0,1,.33-2.66,4.44,4.44,0,0,1,8.28,0,9.21,9.21,0,0,1,.33,3,.22.22,0,0,1-.25.22h-6.66c-.09,0-.14,0-.14.13a3.9,3.9,0,0,0,.18,1.27,2.6,2.6,0,0,0,2.66,1.83,3.44,3.44,0,0,0,2.71-1.17.22.22,0,0,1,.33,0l.9.81a.2.2,0,0,1,0,.31A5.1,5.1,0,0,1,313,15.45,4.09,4.09,0,0,1,308.77,12.59ZM315.33,9c.09,0,.13,0,.13-.13a3.75,3.75,0,0,0-.15-1.19,2.6,2.6,0,0,0-4.84,0,3.72,3.72,0,0,0-.16,1.19c0,.09.05.13.14.13Z"/><path d="M325.72,15.2c-.16,0-.22,0-.33-.19l-2.56-3.72h0L320.26,15a.33.33,0,0,1-.33.19h-1.56c-.18,0-.22-.11-.16-.22L321.8,9.7l-3.28-4.82c-.07-.11,0-.21.15-.21h1.59a.32.32,0,0,1,.33.19l2.22,3.28h0l2.27-3.28a.31.31,0,0,1,.31-.19H327c.18,0,.22.1.16.21l-3.3,4.82,3.6,5.28c.07.11,0,.22-.15.22Z"/><path d="M329.21,2.29a.21.21,0,0,1-.22-.22V.46a.21.21,0,0,1,.22-.22h1.5a.21.21,0,0,1,.22.22V2.07a.21.21,0,0,1-.22.22Zm.05,12.91A.2.2,0,0,1,329,15V4.88a.2.2,0,0,1,.22-.21h1.41a.19.19,0,0,1,.21.21V15a.2.2,0,0,1-.21.22Z"/><path d="M332.89,13.86a.21.21,0,0,1,0-.31l.9-1a.21.21,0,0,1,.31,0,5.12,5.12,0,0,0,3.25,1.21c1.54,0,2.31-.66,2.31-1.61s-.39-1.3-2-1.47l-1.13-.11c-2.06-.22-3.14-1.26-3.14-3,0-2,1.43-3.22,3.92-3.22A6.35,6.35,0,0,1,341,5.59a.23.23,0,0,1,0,.31l-.75.94a.22.22,0,0,1-.31,0A5.54,5.54,0,0,0,337.15,6c-1.32,0-2,.59-2,1.45s.51,1.28,2.07,1.43l1.1.11c2.13.2,3.17,1.28,3.17,3,0,2.07-1.5,3.46-4.25,3.46A6.52,6.52,0,0,1,332.89,13.86Z"/><path d="M346.57,15.31c-2.05,0-2.84-.92-2.84-3v-6a.12.12,0,0,0-.13-.13h-.88a.21.21,0,0,1-.22-.22V4.88a.2.2,0,0,1,.22-.21h.88c.09,0,.13,0,.13-.14v-3a.21.21,0,0,1,.22-.22h1.41a.21.21,0,0,1,.22.22v3c0,.09,0,.14.13.14h1.67a.2.2,0,0,1,.22.21V5.94a.2.2,0,0,1-.22.22h-1.67a.12.12,0,0,0-.13.13v6c0,1.05.4,1.34,1.34,1.34h.46a.2.2,0,0,1,.22.22v1.27a.2.2,0,0,1-.22.22Z"/><path d="M349.3,12.59a8.32,8.32,0,0,1-.36-2.67,8.46,8.46,0,0,1,.33-2.66,4.44,4.44,0,0,1,8.28,0,9.21,9.21,0,0,1,.33,3,.22.22,0,0,1-.24.22H351c-.09,0-.13,0-.13.13A3.93,3.93,0,0,0,351,11.9a2.62,2.62,0,0,0,2.67,1.83,3.43,3.43,0,0,0,2.7-1.17.22.22,0,0,1,.33,0l.9.81a.21.21,0,0,1,0,.31,5.13,5.13,0,0,1-4.12,1.81A4.08,4.08,0,0,1,349.3,12.59ZM355.85,9c.09,0,.14,0,.14-.13a3.72,3.72,0,0,0-.16-1.19,2.6,2.6,0,0,0-4.84,0,3.75,3.75,0,0,0-.15,1.19c0,.09,0,.13.13.13Z"/><path d="M364.06,7.26a4.09,4.09,0,0,1,4.16-2.84,4.22,4.22,0,0,1,3.61,1.79c.06.11.06.19-.07.3l-1,.8a.21.21,0,0,1-.31,0,2.58,2.58,0,0,0-2.26-1.14,2.29,2.29,0,0,0-2.36,1.65,7.21,7.21,0,0,0-.24,2.13,7.3,7.3,0,0,0,.24,2.16,2.29,2.29,0,0,0,2.36,1.65,2.58,2.58,0,0,0,2.26-1.14.21.21,0,0,1,.31,0l1,.8c.13.11.13.19.07.3a4.24,4.24,0,0,1-3.61,1.79,4.09,4.09,0,0,1-4.16-2.84,9.08,9.08,0,0,1-.33-2.69A9,9,0,0,1,364.06,7.26Z"/><path d="M380,15.2a.2.2,0,0,1-.22-.22v-.92h0a3.47,3.47,0,0,1-3.13,1.39c-2,0-3.54-1-3.54-3.17S374.62,9,377.19,9h2.4c.09,0,.13,0,.13-.13V8.12c0-1.45-.57-2.07-2.53-2.07a4.12,4.12,0,0,0-2.55.75.2.2,0,0,1-.31,0l-.59-1a.23.23,0,0,1,0-.31,5.85,5.85,0,0,1,3.59-1c3,0,4.14,1,4.14,3.59v7a.2.2,0,0,1-.22.22Zm-.27-3.41V10.63c0-.09,0-.13-.13-.13h-2.11c-1.83,0-2.62.52-2.62,1.71s.79,1.65,2.2,1.65C378.71,13.86,379.72,13.09,379.72,11.79Z"/><path d="M384.36,15.2a.2.2,0,0,1-.21-.22V.46a.2.2,0,0,1,.21-.22h1.41a.2.2,0,0,1,.22.22V5.88h0a3.18,3.18,0,0,1,3-1.46A3.49,3.49,0,0,1,392.64,7a8.92,8.92,0,0,1,.37,3,9,9,0,0,1-.37,3A3.49,3.49,0,0,1,389,15.45,3.19,3.19,0,0,1,386,14h0v1a.2.2,0,0,1-.22.22Zm6.52-3.08a7.51,7.51,0,0,0,.24-2.2,7.78,7.78,0,0,0-.24-2.2,2.49,2.49,0,0,0-4.64,0,6.73,6.73,0,0,0-.25,2.2,6.58,6.58,0,0,0,.25,2.2,2.48,2.48,0,0,0,4.64,0Z"/><path d="M397.63,15.31c-1.85,0-2.57-.88-2.57-2.77V.46a.21.21,0,0,1,.22-.22h1.41a.21.21,0,0,1,.22.22v12c0,.88.33,1.17,1,1.17h.42a.21.21,0,0,1,.22.22v1.27a.2.2,0,0,1-.22.22Z"/><path d="M400,12.59a8.36,8.36,0,0,1-.35-2.67A8.17,8.17,0,0,1,400,7.26a4.43,4.43,0,0,1,8.27,0,9.21,9.21,0,0,1,.33,3,.22.22,0,0,1-.24.22H401.7c-.09,0-.13,0-.13.13a3.93,3.93,0,0,0,.17,1.27,2.62,2.62,0,0,0,2.67,1.83,3.43,3.43,0,0,0,2.7-1.17.22.22,0,0,1,.33,0l.91.81a.2.2,0,0,1,0,.31,5.13,5.13,0,0,1-4.12,1.81A4.08,4.08,0,0,1,400,12.59ZM406.59,9a.12.12,0,0,0,.13-.13,3.72,3.72,0,0,0-.16-1.19,2.6,2.6,0,0,0-4.84,0,3.75,3.75,0,0,0-.15,1.19c0,.09,0,.13.13.13Z"/><path d="M410,13.86a.21.21,0,0,1,0-.31l.9-1a.21.21,0,0,1,.31,0,5.13,5.13,0,0,0,3.26,1.21c1.54,0,2.31-.66,2.31-1.61s-.4-1.3-2.05-1.47l-1.12-.11c-2.07-.22-3.15-1.26-3.15-3,0-2,1.43-3.22,3.92-3.22a6.3,6.3,0,0,1,3.74,1.17.22.22,0,0,1,.05.31l-.75.94a.22.22,0,0,1-.31,0A5.54,5.54,0,0,0,414.24,6c-1.32,0-2,.59-2,1.45s.5,1.28,2.07,1.43l1.1.11c2.13.2,3.17,1.28,3.17,3,0,2.07-1.5,3.46-4.25,3.46A6.55,6.55,0,0,1,410,13.86Z"/><path d="M424.71,12.59a8.36,8.36,0,0,1-.35-2.67,8.17,8.17,0,0,1,.33-2.66,4.43,4.43,0,0,1,8.27,0,9.21,9.21,0,0,1,.33,3,.22.22,0,0,1-.24.22h-6.67a.12.12,0,0,0-.13.13,3.9,3.9,0,0,0,.18,1.27,2.6,2.6,0,0,0,2.66,1.83,3.44,3.44,0,0,0,2.71-1.17.22.22,0,0,1,.33,0l.9.81a.2.2,0,0,1,0,.31,5.11,5.11,0,0,1-4.11,1.81A4.08,4.08,0,0,1,424.71,12.59ZM431.27,9c.09,0,.13,0,.13-.13a3.75,3.75,0,0,0-.15-1.19,2.6,2.6,0,0,0-4.84,0,3.72,3.72,0,0,0-.16,1.19.12.12,0,0,0,.13.13Z"/><path d="M442.22,15.2A.2.2,0,0,1,442,15V8.82c0-1.69-.77-2.68-2.35-2.68a2.36,2.36,0,0,0-2.42,2.57V15a.2.2,0,0,1-.22.22H435.6a.2.2,0,0,1-.22-.22V4.88a.2.2,0,0,1,.22-.21H437a.2.2,0,0,1,.22.21v1h0a3.35,3.35,0,0,1,2.95-1.43c2.29,0,3.65,1.57,3.65,4V15a.2.2,0,0,1-.22.22Z"/><path d="M446.18,12.59a8.36,8.36,0,0,1-.35-2.67,8.17,8.17,0,0,1,.33-2.66,4.44,4.44,0,0,1,8.28,0,9.5,9.5,0,0,1,.33,3,.22.22,0,0,1-.25.22h-6.67a.12.12,0,0,0-.13.13,3.9,3.9,0,0,0,.18,1.27,2.6,2.6,0,0,0,2.66,1.83,3.44,3.44,0,0,0,2.71-1.17.22.22,0,0,1,.33,0l.9.81a.2.2,0,0,1,0,.31,5.1,5.1,0,0,1-4.11,1.81A4.09,4.09,0,0,1,446.18,12.59ZM452.74,9c.09,0,.13,0,.13-.13a3.75,3.75,0,0,0-.15-1.19,2.6,2.6,0,0,0-4.84,0,3.72,3.72,0,0,0-.16,1.19.12.12,0,0,0,.13.13Z"/><path d="M457.07,15.2a.2.2,0,0,1-.22-.22V4.88a.2.2,0,0,1,.22-.21h1.41a.2.2,0,0,1,.22.21V6h0a3,3,0,0,1,2.8-1.54,3.24,3.24,0,0,1,2.15.79c.11.12.14.2.05.31L462.9,6.6a.2.2,0,0,1-.3.05A3,3,0,0,0,461,6.14c-1.61,0-2.27,1.25-2.27,3.08V15a.2.2,0,0,1-.22.22Z"/><path d="M464.38,17.84a.19.19,0,0,1,0-.3l.9-.91a.21.21,0,0,1,.33,0,3.52,3.52,0,0,0,2.49,1.06c1.73,0,2.66-.9,2.66-2.84V13.62h0a3,3,0,0,1-2.93,1.45,3.45,3.45,0,0,1-3.54-2.55,8.08,8.08,0,0,1-.35-2.77A8.08,8.08,0,0,1,464.29,7a3.46,3.46,0,0,1,3.54-2.56,3,3,0,0,1,2.93,1.46h0v-1a.2.2,0,0,1,.22-.21h1.41a.2.2,0,0,1,.22.21v9.86c0,3-1.63,4.67-4.6,4.67A4.74,4.74,0,0,1,464.38,17.84Zm6.16-6.05a6.52,6.52,0,0,0,.24-2,6.72,6.72,0,0,0-.24-2,2.38,2.38,0,0,0-4.47,0,6.82,6.82,0,0,0-.26,2.05,6.61,6.61,0,0,0,.26,2,2.15,2.15,0,0,0,2.22,1.59A2.19,2.19,0,0,0,470.54,11.79Z"/><path d="M475.53,2.29a.21.21,0,0,1-.22-.22V.46a.21.21,0,0,1,.22-.22H477a.21.21,0,0,1,.22.22V2.07a.21.21,0,0,1-.22.22Zm0,12.91a.2.2,0,0,1-.22-.22V4.88a.2.2,0,0,1,.22-.21H477a.2.2,0,0,1,.22.21V15a.2.2,0,0,1-.22.22Z"/><path d="M479.56,15.2a.2.2,0,0,1-.22-.22V13.82a.33.33,0,0,1,.08-.24l5.79-7.2v0h-5.37a.21.21,0,0,1-.22-.22V4.88a.2.2,0,0,1,.22-.21h7.35a.2.2,0,0,1,.22.21V6.12a.32.32,0,0,1-.09.24l-5.74,7.13v0h5.61a.21.21,0,0,1,.22.22V15a.2.2,0,0,1-.22.22Z"/><path d="M495.92,15.2a.2.2,0,0,1-.22-.22v-.92h0a3.46,3.46,0,0,1-3.12,1.39c-2,0-3.54-1-3.54-3.17S490.56,9,493.13,9h2.4c.09,0,.13,0,.13-.13V8.12c0-1.45-.57-2.07-2.53-2.07a4.07,4.07,0,0,0-2.55.75.2.2,0,0,1-.31,0l-.59-1a.23.23,0,0,1,0-.31,5.81,5.81,0,0,1,3.59-1c3,0,4.13,1,4.13,3.59v7a.2.2,0,0,1-.22.22Zm-.26-3.41V10.63c0-.09,0-.13-.13-.13h-2.11c-1.83,0-2.62.52-2.62,1.71s.79,1.65,2.2,1.65C494.65,13.86,495.66,13.09,495.66,11.79Z"/><path d="M506.68,15.2a.2.2,0,0,1-.22-.22V14h0a3.2,3.2,0,0,1-3,1.48,3.48,3.48,0,0,1-3.63-2.53,8.72,8.72,0,0,1-.38-3,8.64,8.64,0,0,1,.38-3,3.48,3.48,0,0,1,3.63-2.53,3.19,3.19,0,0,1,3,1.46h0V.46a.21.21,0,0,1,.22-.22h1.41a.21.21,0,0,1,.22.22V15a.2.2,0,0,1-.22.22Zm-.46-3.08a6.63,6.63,0,0,0,.24-2.2,6.79,6.79,0,0,0-.24-2.2,2.49,2.49,0,0,0-4.64,0,7.43,7.43,0,0,0-.24,2.2,7.18,7.18,0,0,0,.24,2.2,2.48,2.48,0,0,0,4.64,0Z"/><path d="M510.75,12.61a8,8,0,0,1-.35-2.69,7.92,7.92,0,0,1,.35-2.66,4.47,4.47,0,0,1,8.32,0,7.92,7.92,0,0,1,.35,2.66,8,8,0,0,1-.35,2.69,4.47,4.47,0,0,1-8.32,0Zm6.54-.53a7.09,7.09,0,0,0,.24-2.16,6.91,6.91,0,0,0-.24-2.13,2.54,2.54,0,0,0-4.76,0,6.91,6.91,0,0,0-.24,2.13,7.09,7.09,0,0,0,.24,2.16,2.54,2.54,0,0,0,4.76,0Z"/><path d="M520.78,13.86a.21.21,0,0,1,0-.31l.91-1a.2.2,0,0,1,.3,0,5.13,5.13,0,0,0,3.26,1.21c1.54,0,2.31-.66,2.31-1.61s-.4-1.3-2-1.47l-1.12-.11c-2.07-.22-3.15-1.26-3.15-3,0-2,1.44-3.22,3.92-3.22a6.3,6.3,0,0,1,3.74,1.17.22.22,0,0,1,.05.31l-.75.94a.22.22,0,0,1-.31,0A5.54,5.54,0,0,0,525.05,6c-1.32,0-2,.59-2,1.45s.51,1.28,2.07,1.43l1.1.11c2.13.2,3.17,1.28,3.17,3,0,2.07-1.5,3.46-4.25,3.46A6.55,6.55,0,0,1,520.78,13.86Z"/><path d="M538.87,15.31c-2,0-2.84-.92-2.84-3v-6a.12.12,0,0,0-.13-.13H535a.2.2,0,0,1-.22-.22V4.88a.2.2,0,0,1,.22-.21h.88a.12.12,0,0,0,.13-.14v-3a.21.21,0,0,1,.22-.22h1.41a.21.21,0,0,1,.22.22v3c0,.09,0,.14.13.14h1.67a.2.2,0,0,1,.22.21V5.94a.21.21,0,0,1-.22.22H538a.12.12,0,0,0-.13.13v6c0,1.05.39,1.34,1.34,1.34h.46a.21.21,0,0,1,.22.22v1.27a.2.2,0,0,1-.22.22Z"/><path d="M542.1,15.2a.2.2,0,0,1-.22-.22V4.88a.2.2,0,0,1,.22-.21h1.41a.2.2,0,0,1,.22.21V6h0a2.94,2.94,0,0,1,2.79-1.54,3.26,3.26,0,0,1,2.16.79c.11.12.13.2,0,.31l-.82,1.08a.21.21,0,0,1-.31.05A2.93,2.93,0,0,0,546,6.14c-1.61,0-2.27,1.25-2.27,3.08V15a.2.2,0,0,1-.22.22Z"/><path d="M555.87,15.2a.2.2,0,0,1-.22-.22v-.92h0a3.46,3.46,0,0,1-3.12,1.39c-2,0-3.55-1-3.55-3.17S550.5,9,553.08,9h2.4a.12.12,0,0,0,.13-.13V8.12c0-1.45-.57-2.07-2.53-2.07a4.07,4.07,0,0,0-2.55.75c-.11.09-.25.09-.31,0l-.6-1a.24.24,0,0,1,0-.31,5.8,5.8,0,0,1,3.58-1c3,0,4.14,1,4.14,3.59v7a.2.2,0,0,1-.22.22Zm-.26-3.41V10.63a.12.12,0,0,0-.13-.13h-2.12c-1.82,0-2.61.52-2.61,1.71s.79,1.65,2.2,1.65C554.6,13.86,555.61,13.09,555.61,11.79Z"/><path d="M563.09,15.31c-2.05,0-2.84-.92-2.84-3v-6a.12.12,0,0,0-.13-.13h-.88a.2.2,0,0,1-.22-.22V4.88a.2.2,0,0,1,.22-.21h.88c.09,0,.13,0,.13-.14v-3a.21.21,0,0,1,.22-.22h1.41a.21.21,0,0,1,.22.22v3c0,.09,0,.14.13.14h1.67a.2.2,0,0,1,.22.21V5.94a.21.21,0,0,1-.22.22h-1.67a.12.12,0,0,0-.13.13v6c0,1.05.39,1.34,1.34,1.34h.46a.21.21,0,0,1,.22.22v1.27a.2.2,0,0,1-.22.22Z"/><path d="M565.82,12.59a8.32,8.32,0,0,1-.36-2.67,8.17,8.17,0,0,1,.33-2.66,4.44,4.44,0,0,1,8.28,0,9.21,9.21,0,0,1,.33,3,.22.22,0,0,1-.25.22h-6.66c-.09,0-.13,0-.13.13a3.93,3.93,0,0,0,.17,1.27,2.61,2.61,0,0,0,2.66,1.83,3.44,3.44,0,0,0,2.71-1.17.22.22,0,0,1,.33,0l.9.81a.2.2,0,0,1,0,.31A5.1,5.1,0,0,1,570,15.45,4.08,4.08,0,0,1,565.82,12.59ZM572.37,9c.09,0,.13,0,.13-.13a3.75,3.75,0,0,0-.15-1.19,2.6,2.6,0,0,0-4.84,0,3.75,3.75,0,0,0-.15,1.19c0,.09,0,.13.13.13Z"/><path d="M587.49,15.2a.2.2,0,0,1-.22-.22V14h0a3.19,3.19,0,0,1-3,1.48,3.49,3.49,0,0,1-3.63-2.53,9,9,0,0,1-.37-3,8.92,8.92,0,0,1,.37-3,3.49,3.49,0,0,1,3.63-2.53,3.18,3.18,0,0,1,3,1.46h0V.46a.2.2,0,0,1,.22-.22h1.4a.2.2,0,0,1,.22.22V15a.2.2,0,0,1-.22.22ZM587,12.12a6.58,6.58,0,0,0,.25-2.2,6.73,6.73,0,0,0-.25-2.2,2.49,2.49,0,0,0-4.64,0,7.43,7.43,0,0,0-.24,2.2,7.18,7.18,0,0,0,.24,2.2,2.48,2.48,0,0,0,4.64,0Z"/><path d="M591.55,12.59a8.66,8.66,0,0,1-.35-2.67,8.17,8.17,0,0,1,.33-2.66,4.44,4.44,0,0,1,8.28,0,9.21,9.21,0,0,1,.33,3,.22.22,0,0,1-.25.22h-6.66c-.09,0-.13,0-.13.13a3.93,3.93,0,0,0,.17,1.27,2.61,2.61,0,0,0,2.66,1.83,3.44,3.44,0,0,0,2.71-1.17.22.22,0,0,1,.33,0l.9.81a.2.2,0,0,1,0,.31,5.1,5.1,0,0,1-4.11,1.81A4.1,4.1,0,0,1,591.55,12.59ZM598.11,9c.09,0,.13,0,.13-.13a3.75,3.75,0,0,0-.15-1.19,2.6,2.6,0,0,0-4.84,0,3.75,3.75,0,0,0-.15,1.19c0,.09,0,.13.13.13Z"/><path d="M613.47,15.2a.2.2,0,0,1-.22-.22V8.82c0-1.69-.77-2.68-2.36-2.68a2.36,2.36,0,0,0-2.42,2.57V15a.2.2,0,0,1-.22.22h-1.4a.21.21,0,0,1-.23-.22V4.88a.21.21,0,0,1,.23-.21h1.4a.2.2,0,0,1,.22.21v1h0a3.35,3.35,0,0,1,3-1.43c2.29,0,3.66,1.57,3.66,4V15a.2.2,0,0,1-.22.22Z"/><path d="M617.43,12.61a7.71,7.71,0,0,1-.36-2.69,7.64,7.64,0,0,1,.36-2.66,4.46,4.46,0,0,1,8.31,0,7.64,7.64,0,0,1,.36,2.66,7.71,7.71,0,0,1-.36,2.69,4.46,4.46,0,0,1-8.31,0Zm6.53-.53a6.78,6.78,0,0,0,.24-2.16A6.61,6.61,0,0,0,624,7.79a2.53,2.53,0,0,0-4.75,0A6.61,6.61,0,0,0,619,9.92a6.78,6.78,0,0,0,.24,2.16,2.53,2.53,0,0,0,4.75,0Z"/><path d="M.47,40.59a8.36,8.36,0,0,1-.35-2.67,8.17,8.17,0,0,1,.33-2.66,4.09,4.09,0,0,1,4.14-2.84,4.1,4.1,0,0,1,4.14,2.84,9.5,9.5,0,0,1,.33,3,.22.22,0,0,1-.25.22H2.15c-.09,0-.14,0-.14.13a3.9,3.9,0,0,0,.18,1.27,2.6,2.6,0,0,0,2.66,1.83,3.44,3.44,0,0,0,2.71-1.17.22.22,0,0,1,.33,0l.9.81a.2.2,0,0,1,0,.31A5.1,5.1,0,0,1,4.7,43.45,4.09,4.09,0,0,1,.47,40.59ZM7,37c.09,0,.13,0,.13-.13A3.75,3.75,0,0,0,7,35.7a2.38,2.38,0,0,0-2.42-1.65A2.38,2.38,0,0,0,2.17,35.7,3.72,3.72,0,0,0,2,36.89c0,.09.05.13.14.13Z"/><path d="M18,43.2a.2.2,0,0,1-.22-.22V36.82c0-1.69-.77-2.68-2.36-2.68A2.36,2.36,0,0,0,13,36.71V43a.2.2,0,0,1-.22.22H11.36a.2.2,0,0,1-.22-.22V32.88a.2.2,0,0,1,.22-.21h1.41a.2.2,0,0,1,.22.21v1h0a3.35,3.35,0,0,1,3-1.43c2.29,0,3.65,1.57,3.65,4V43a.2.2,0,0,1-.21.22Z"/><path d="M25.29,43.31c-2.05,0-2.84-.92-2.84-3v-6a.12.12,0,0,0-.13-.13h-.88a.21.21,0,0,1-.22-.22V32.88a.2.2,0,0,1,.22-.21h.88c.09,0,.13-.05.13-.14v-3a.21.21,0,0,1,.22-.22h1.41a.21.21,0,0,1,.22.22v3c0,.09,0,.14.13.14H26.1a.2.2,0,0,1,.22.21v1.06a.2.2,0,0,1-.22.22H24.43a.12.12,0,0,0-.13.13v6c0,1.05.4,1.34,1.34,1.34h.46a.2.2,0,0,1,.22.22v1.27a.2.2,0,0,1-.22.22Z"/><path d="M28.52,43.2A.2.2,0,0,1,28.3,43V32.88a.2.2,0,0,1,.22-.21h1.41a.2.2,0,0,1,.22.21V34h0A3,3,0,0,1,33,32.42a3.24,3.24,0,0,1,2.15.79c.11.12.14.2.05.31l-.82,1.08a.2.2,0,0,1-.3,0,3,3,0,0,0-1.63-.51c-1.61,0-2.27,1.25-2.27,3.08V43a.2.2,0,0,1-.22.22Z"/><path d="M42.3,43.2a.2.2,0,0,1-.22-.22v-.92h0a3.46,3.46,0,0,1-3.12,1.39c-2,0-3.54-1-3.54-3.17S36.93,37,39.5,37h2.4c.09,0,.13,0,.13-.13v-.77c0-1.45-.57-2.07-2.53-2.07A4.07,4.07,0,0,0,37,34.8a.2.2,0,0,1-.31,0l-.59-1a.23.23,0,0,1,0-.31,5.81,5.81,0,0,1,3.59-1c3,0,4.13,1,4.13,3.59v7a.2.2,0,0,1-.22.22ZM42,39.79V38.63c0-.09,0-.13-.13-.13H39.79c-1.83,0-2.62.52-2.62,1.71s.79,1.65,2.2,1.65C41,41.86,42,41.09,42,39.79Z"/><path d="M46.67,43.2a.2.2,0,0,1-.22-.22V32.88a.2.2,0,0,1,.22-.21h1.41a.2.2,0,0,1,.22.21V34h0a2.94,2.94,0,0,1,2.8-1.54,3.24,3.24,0,0,1,2.15.79c.11.12.14.2,0,.31L52.5,34.6a.21.21,0,0,1-.31,0,2.93,2.93,0,0,0-1.62-.51c-1.61,0-2.27,1.25-2.27,3.08V43a.2.2,0,0,1-.22.22Z"/><path d="M58.71,40.59a8.32,8.32,0,0,1-.36-2.67,8.17,8.17,0,0,1,.33-2.66,4.44,4.44,0,0,1,8.28,0,9.21,9.21,0,0,1,.33,3,.22.22,0,0,1-.25.22H60.38c-.09,0-.13,0-.13.13a3.93,3.93,0,0,0,.17,1.27,2.61,2.61,0,0,0,2.66,1.83,3.44,3.44,0,0,0,2.71-1.17.22.22,0,0,1,.33,0l.9.81a.2.2,0,0,1,0,.31,5.1,5.1,0,0,1-4.11,1.81A4.08,4.08,0,0,1,58.71,40.59ZM65.26,37c.09,0,.13,0,.13-.13a3.75,3.75,0,0,0-.15-1.19,2.6,2.6,0,0,0-4.84,0,3.75,3.75,0,0,0-.15,1.19c0,.09,0,.13.13.13Z"/><path d="M76.22,43.2A.2.2,0,0,1,76,43V36.82c0-1.69-.77-2.68-2.36-2.68a2.36,2.36,0,0,0-2.42,2.57V43a.2.2,0,0,1-.22.22H69.6a.2.2,0,0,1-.22-.22V32.88a.2.2,0,0,1,.22-.21H71a.2.2,0,0,1,.22.21v1h0a3.32,3.32,0,0,1,2.94-1.43c2.29,0,3.66,1.57,3.66,4V43a.2.2,0,0,1-.22.22Z"/><path d="M84.56,35.26a4.08,4.08,0,0,1,4.15-2.84,4.21,4.21,0,0,1,3.61,1.79c.07.11.07.19-.06.3l-1,.8a.21.21,0,0,1-.31,0,2.59,2.59,0,0,0-2.27-1.14,2.28,2.28,0,0,0-2.35,1.65,6.89,6.89,0,0,0-.24,2.13,7,7,0,0,0,.24,2.16,2.28,2.28,0,0,0,2.35,1.65A2.59,2.59,0,0,0,91,40.59a.21.21,0,0,1,.31,0l1,.8c.13.11.13.19.06.3a4.23,4.23,0,0,1-3.61,1.79,4.08,4.08,0,0,1-4.15-2.84,9.08,9.08,0,0,1-.33-2.69A9,9,0,0,1,84.56,35.26Z"/><path d="M93.82,40.61a8,8,0,0,1-.36-2.69,7.88,7.88,0,0,1,.36-2.66,4.46,4.46,0,0,1,8.31,0,7.64,7.64,0,0,1,.36,2.66,7.71,7.71,0,0,1-.36,2.69,4.46,4.46,0,0,1-8.31,0Zm6.53-.53a6.78,6.78,0,0,0,.24-2.16,6.61,6.61,0,0,0-.24-2.13,2.53,2.53,0,0,0-4.75,0,6.61,6.61,0,0,0-.24,2.13,6.78,6.78,0,0,0,.24,2.16,2.53,2.53,0,0,0,4.75,0Z"/><path d="M111.42,43.2a.2.2,0,0,1-.22-.22V36.82c0-1.69-.77-2.68-2.36-2.68a2.36,2.36,0,0,0-2.42,2.57V43a.2.2,0,0,1-.22.22h-1.41a.2.2,0,0,1-.22-.22V32.88a.2.2,0,0,1,.22-.21h1.41a.2.2,0,0,1,.22.21v1h0a3.35,3.35,0,0,1,3-1.43c2.29,0,3.66,1.57,3.66,4V43a.2.2,0,0,1-.22.22Z"/><path d="M118.72,43.31c-2,0-2.84-.92-2.84-3v-6a.12.12,0,0,0-.13-.13h-.88a.21.21,0,0,1-.22-.22V32.88a.2.2,0,0,1,.22-.21h.88c.09,0,.13-.05.13-.14v-3a.21.21,0,0,1,.22-.22h1.41a.21.21,0,0,1,.22.22v3c0,.09,0,.14.13.14h1.67a.21.21,0,0,1,.23.21v1.06a.21.21,0,0,1-.23.22h-1.67a.12.12,0,0,0-.13.13v6c0,1.05.4,1.34,1.34,1.34h.46a.21.21,0,0,1,.23.22v1.27a.21.21,0,0,1-.23.22Z"/><path d="M128.11,43.2a.2.2,0,0,1-.21-.22v-.92h0a3.46,3.46,0,0,1-3.12,1.39c-2,0-3.54-1-3.54-3.17S122.75,37,125.32,37h2.4c.09,0,.13,0,.13-.13v-.77c0-1.45-.57-2.07-2.53-2.07a4.07,4.07,0,0,0-2.55.75.2.2,0,0,1-.31,0l-.59-1a.23.23,0,0,1,0-.31,5.83,5.83,0,0,1,3.59-1c3,0,4.13,1,4.13,3.59v7a.2.2,0,0,1-.22.22Zm-.26-3.41V38.63c0-.09,0-.13-.13-.13h-2.11c-1.83,0-2.62.52-2.62,1.71s.79,1.65,2.2,1.65C126.84,41.86,127.85,41.09,127.85,39.79Z"/><path d="M132,35.26a4.1,4.1,0,0,1,4.16-2.84,4.21,4.21,0,0,1,3.61,1.79c.07.11.07.19-.06.3l-1,.8a.21.21,0,0,1-.31,0,2.59,2.59,0,0,0-2.27-1.14,2.28,2.28,0,0,0-2.35,1.65,6.89,6.89,0,0,0-.24,2.13,7,7,0,0,0,.24,2.16,2.28,2.28,0,0,0,2.35,1.65,2.59,2.59,0,0,0,2.27-1.14.21.21,0,0,1,.31,0l1,.8c.13.11.13.19.06.3a4.23,4.23,0,0,1-3.61,1.79A4.1,4.1,0,0,1,132,40.61a9.43,9.43,0,0,1-.33-2.69A9.35,9.35,0,0,1,132,35.26Z"/><path d="M144.83,43.31c-2,0-2.83-.92-2.83-3v-6a.12.12,0,0,0-.14-.13H141a.21.21,0,0,1-.22-.22V32.88a.2.2,0,0,1,.22-.21h.88a.13.13,0,0,0,.14-.14v-3a.2.2,0,0,1,.22-.22h1.4a.2.2,0,0,1,.22.22v3a.13.13,0,0,0,.14.14h1.67a.2.2,0,0,1,.22.21v1.06a.21.21,0,0,1-.22.22H144a.12.12,0,0,0-.14.13v6c0,1.05.4,1.34,1.35,1.34h.46a.21.21,0,0,1,.22.22v1.27a.2.2,0,0,1-.22.22Z"/><path d="M147.56,40.61a8,8,0,0,1-.35-2.69,7.92,7.92,0,0,1,.35-2.66,4.47,4.47,0,0,1,8.32,0,7.92,7.92,0,0,1,.35,2.66,8,8,0,0,1-.35,2.69,4.47,4.47,0,0,1-8.32,0Zm6.54-.53a7.09,7.09,0,0,0,.24-2.16,6.91,6.91,0,0,0-.24-2.13,2.54,2.54,0,0,0-4.76,0,6.91,6.91,0,0,0-.24,2.13,7.09,7.09,0,0,0,.24,2.16,2.54,2.54,0,0,0,4.76,0Z"/><path d="M162.41,35.26a4.09,4.09,0,0,1,4.16-2.84,4.21,4.21,0,0,1,3.61,1.79c.06.11.06.19-.07.3l-1,.8a.19.19,0,0,1-.3,0,2.59,2.59,0,0,0-2.27-1.14,2.3,2.3,0,0,0-2.36,1.65,7.21,7.21,0,0,0-.24,2.13,7.3,7.3,0,0,0,.24,2.16,2.3,2.3,0,0,0,2.36,1.65,2.59,2.59,0,0,0,2.27-1.14.19.19,0,0,1,.3,0l1,.8c.13.11.13.19.07.3a4.23,4.23,0,0,1-3.61,1.79,4.09,4.09,0,0,1-4.16-2.84,9.08,9.08,0,0,1-.33-2.69A9,9,0,0,1,162.41,35.26Z"/><path d="M171.67,40.61a8,8,0,0,1-.35-2.69,7.92,7.92,0,0,1,.35-2.66,4.47,4.47,0,0,1,8.32,0,7.92,7.92,0,0,1,.35,2.66,8,8,0,0,1-.35,2.69,4.47,4.47,0,0,1-8.32,0Zm6.54-.53a7.09,7.09,0,0,0,.24-2.16,6.91,6.91,0,0,0-.24-2.13,2.54,2.54,0,0,0-4.76,0,6.91,6.91,0,0,0-.24,2.13,7.09,7.09,0,0,0,.24,2.16,2.54,2.54,0,0,0,4.76,0Z"/><path d="M189.27,43.2a.2.2,0,0,1-.22-.22V36.82c0-1.69-.77-2.68-2.35-2.68a2.36,2.36,0,0,0-2.42,2.57V43a.2.2,0,0,1-.22.22h-1.41a.2.2,0,0,1-.22-.22V32.88a.2.2,0,0,1,.22-.21h1.41a.2.2,0,0,1,.22.21v1h0a3.35,3.35,0,0,1,2.95-1.43c2.29,0,3.65,1.57,3.65,4V43a.2.2,0,0,1-.22.22Z"/><path d="M197.63,40.59a8.36,8.36,0,0,1-.35-2.67,8.17,8.17,0,0,1,.33-2.66,4.43,4.43,0,0,1,8.27,0,9.21,9.21,0,0,1,.33,3,.21.21,0,0,1-.24.22H199.3a.12.12,0,0,0-.13.13,3.9,3.9,0,0,0,.18,1.27A2.6,2.6,0,0,0,202,41.73a3.44,3.44,0,0,0,2.71-1.17.22.22,0,0,1,.33,0l.9.81a.2.2,0,0,1,0,.31,5.1,5.1,0,0,1-4.11,1.81A4.08,4.08,0,0,1,197.63,40.59ZM204.19,37c.09,0,.13,0,.13-.13a3.75,3.75,0,0,0-.15-1.19,2.6,2.6,0,0,0-4.84,0,3.72,3.72,0,0,0-.16,1.19.12.12,0,0,0,.13.13Z"/><path d="M210.83,43.31c-1.85,0-2.57-.88-2.57-2.77V28.46a.21.21,0,0,1,.22-.22h1.41a.21.21,0,0,1,.22.22v12c0,.88.33,1.17,1,1.17h.42a.21.21,0,0,1,.22.22v1.27a.2.2,0,0,1-.22.22Z"/><path d="M216,43.31c-1.85,0-2.57-.88-2.57-2.77V28.46a.21.21,0,0,1,.22-.22h1.41a.21.21,0,0,1,.22.22v12c0,.88.33,1.17,1.05,1.17h.42a.21.21,0,0,1,.22.22v1.27a.2.2,0,0,1-.22.22Z"/><path d="M218.4,40.61a8,8,0,0,1-.35-2.69,7.92,7.92,0,0,1,.35-2.66,4.47,4.47,0,0,1,8.32,0,7.92,7.92,0,0,1,.35,2.66,8,8,0,0,1-.35,2.69,4.47,4.47,0,0,1-8.32,0Zm6.54-.53a7.09,7.09,0,0,0,.24-2.16,6.91,6.91,0,0,0-.24-2.13,2.54,2.54,0,0,0-4.76,0,6.91,6.91,0,0,0-.24,2.13,7.09,7.09,0,0,0,.24,2.16,2.54,2.54,0,0,0,4.76,0Z"/><path d="M228.43,41.86a.21.21,0,0,1,0-.31l.9-1a.21.21,0,0,1,.31,0,5.13,5.13,0,0,0,3.26,1.21c1.54,0,2.31-.66,2.31-1.61s-.4-1.3-2.05-1.47L232,38.61c-2.07-.22-3.15-1.26-3.15-3,0-2,1.43-3.22,3.92-3.22a6.3,6.3,0,0,1,3.74,1.17.22.22,0,0,1,0,.31l-.75.94a.22.22,0,0,1-.31,0A5.54,5.54,0,0,0,232.7,34c-1.32,0-2,.59-2,1.45s.5,1.28,2.07,1.43l1.1.11c2.13.2,3.16,1.28,3.16,3,0,2.07-1.49,3.46-4.24,3.46A6.55,6.55,0,0,1,228.43,41.86Z"/><path d="M256.92,43.2a.2.2,0,0,1-.22-.22V36.82c0-1.69-.77-2.68-2.35-2.68a2.37,2.37,0,0,0-2.42,2.57V43a.2.2,0,0,1-.22.22H250.3a.2.2,0,0,1-.22-.22V36.82c0-1.69-.77-2.68-2.35-2.68a2.36,2.36,0,0,0-2.42,2.57V43a.2.2,0,0,1-.22.22h-1.41a.2.2,0,0,1-.22-.22V32.88a.2.2,0,0,1,.22-.21h1.41a.2.2,0,0,1,.22.21v1h0a3.73,3.73,0,0,1,6,.22h0a3.92,3.92,0,0,1,3.41-1.65c2.44,0,3.76,1.57,3.76,4V43a.2.2,0,0,1-.22.22Z"/><path d="M261.34,30.29a.21.21,0,0,1-.22-.22V28.46a.21.21,0,0,1,.22-.22h1.5a.21.21,0,0,1,.22.22v1.61a.21.21,0,0,1-.22.22Zm.05,12.91a.2.2,0,0,1-.22-.22V32.88a.2.2,0,0,1,.22-.21h1.41a.2.2,0,0,1,.22.21V43a.2.2,0,0,1-.22.22Z"/><path d="M265.46,40.59a8.32,8.32,0,0,1-.36-2.67,7.86,7.86,0,0,1,.34-2.66,4.43,4.43,0,0,1,8.27,0,9.21,9.21,0,0,1,.33,3,.22.22,0,0,1-.24.22h-6.67c-.09,0-.13,0-.13.13a3.93,3.93,0,0,0,.17,1.27,2.62,2.62,0,0,0,2.67,1.83,3.43,3.43,0,0,0,2.7-1.17.22.22,0,0,1,.33,0l.9.81a.21.21,0,0,1,0,.31,5.13,5.13,0,0,1-4.12,1.81A4.08,4.08,0,0,1,265.46,40.59ZM272,37c.09,0,.14,0,.14-.13A3.72,3.72,0,0,0,272,35.7a2.6,2.6,0,0,0-4.84,0,3.75,3.75,0,0,0-.15,1.19c0,.09,0,.13.13.13Z"/><path d="M283,43.2a.2.2,0,0,1-.22-.22V36.82c0-1.69-.77-2.68-2.36-2.68A2.36,2.36,0,0,0,278,36.71V43a.2.2,0,0,1-.22.22h-1.4a.2.2,0,0,1-.22-.22V32.88a.2.2,0,0,1,.22-.21h1.4a.2.2,0,0,1,.22.21v1h0a3.33,3.33,0,0,1,2.94-1.43c2.29,0,3.66,1.57,3.66,4V43a.2.2,0,0,1-.22.22Z"/><path d="M290.27,43.31c-2,0-2.84-.92-2.84-3v-6a.12.12,0,0,0-.13-.13h-.88a.21.21,0,0,1-.22-.22V32.88a.2.2,0,0,1,.22-.21h.88c.09,0,.13-.05.13-.14v-3a.21.21,0,0,1,.22-.22h1.41a.21.21,0,0,1,.22.22v3a.12.12,0,0,0,.13.14h1.68a.2.2,0,0,1,.22.21v1.06a.21.21,0,0,1-.22.22h-1.68a.12.12,0,0,0-.13.13v6c0,1.05.4,1.34,1.34,1.34h.47a.21.21,0,0,1,.22.22v1.27a.2.2,0,0,1-.22.22Z"/><path d="M293.51,43.2a.2.2,0,0,1-.22-.22V32.88a.2.2,0,0,1,.22-.21h1.4a.2.2,0,0,1,.22.21V34h0A2.93,2.93,0,0,1,298,32.42a3.26,3.26,0,0,1,2.16.79c.11.12.13.2,0,.31l-.81,1.08a.21.21,0,0,1-.31,0,3,3,0,0,0-1.63-.51c-1.61,0-2.27,1.25-2.27,3.08V43a.2.2,0,0,1-.22.22Z"/><path d="M307.28,43.2a.2.2,0,0,1-.22-.22v-.92h0a3.47,3.47,0,0,1-3.13,1.39c-2,0-3.54-1-3.54-3.17S301.91,37,304.48,37h2.4c.09,0,.14,0,.14-.13v-.77c0-1.45-.58-2.07-2.54-2.07a4.12,4.12,0,0,0-2.55.75.2.2,0,0,1-.31,0l-.59-1a.24.24,0,0,1,0-.31,5.85,5.85,0,0,1,3.59-1c3,0,4.14,1,4.14,3.59v7a.2.2,0,0,1-.22.22ZM307,39.79V38.63c0-.09,0-.13-.14-.13h-2.11c-1.83,0-2.62.52-2.62,1.71s.79,1.65,2.2,1.65C306,41.86,307,41.09,307,39.79Z"/><path d="M310.71,41.86a.21.21,0,0,1,0-.31l.9-1a.21.21,0,0,1,.31,0,5.13,5.13,0,0,0,3.26,1.21c1.54,0,2.31-.66,2.31-1.61s-.4-1.3-2.05-1.47l-1.12-.11c-2.07-.22-3.15-1.26-3.15-3,0-2,1.43-3.22,3.92-3.22a6.3,6.3,0,0,1,3.74,1.17.21.21,0,0,1,0,.31l-.75.94a.21.21,0,0,1-.3,0A5.57,5.57,0,0,0,315,34c-1.32,0-2,.59-2,1.45s.5,1.28,2.06,1.43l1.1.11c2.14.2,3.17,1.28,3.17,3,0,2.07-1.49,3.46-4.24,3.46A6.55,6.55,0,0,1,310.71,41.86Z"/><path d="M326,43.2a.2.2,0,0,1-.22-.22V32.88a.2.2,0,0,1,.22-.21h1.4a.2.2,0,0,1,.22.21V34h0a3,3,0,0,1,2.8-1.54,3.26,3.26,0,0,1,2.16.79c.11.12.13.2,0,.31l-.81,1.08a.21.21,0,0,1-.31,0,3,3,0,0,0-1.63-.51c-1.61,0-2.27,1.25-2.27,3.08V43a.2.2,0,0,1-.22.22Z"/><path d="M333.19,40.59a8.36,8.36,0,0,1-.35-2.67,8.17,8.17,0,0,1,.33-2.66,4.43,4.43,0,0,1,8.27,0,9.21,9.21,0,0,1,.33,3,.21.21,0,0,1-.24.22h-6.67a.12.12,0,0,0-.13.13,3.9,3.9,0,0,0,.18,1.27,2.6,2.6,0,0,0,2.66,1.83,3.44,3.44,0,0,0,2.71-1.17.22.22,0,0,1,.33,0l.9.81a.2.2,0,0,1,0,.31,5.1,5.1,0,0,1-4.11,1.81A4.09,4.09,0,0,1,333.19,40.59ZM339.75,37c.09,0,.13,0,.13-.13a3.75,3.75,0,0,0-.15-1.19,2.6,2.6,0,0,0-4.84,0,3.72,3.72,0,0,0-.16,1.19.12.12,0,0,0,.13.13Z"/><path d="M350.24,43.2A.2.2,0,0,1,350,43v-.92h0a3.46,3.46,0,0,1-3.12,1.39c-2,0-3.55-1-3.55-3.17S344.87,37,347.45,37h2.4c.09,0,.13,0,.13-.13v-.77c0-1.45-.57-2.07-2.53-2.07a4.07,4.07,0,0,0-2.55.75c-.11.09-.25.09-.31,0l-.6-1a.24.24,0,0,1,.05-.31,5.8,5.8,0,0,1,3.58-1c3,0,4.14,1,4.14,3.59v7a.2.2,0,0,1-.22.22ZM350,39.79V38.63c0-.09,0-.13-.13-.13h-2.12c-1.82,0-2.61.52-2.61,1.71s.79,1.65,2.2,1.65C349,41.86,350,41.09,350,39.79Z"/><path d="M356.93,43.31c-1.85,0-2.57-.88-2.57-2.77V28.46a.2.2,0,0,1,.22-.22H356a.2.2,0,0,1,.22.22v12c0,.88.33,1.17,1.06,1.17h.42a.21.21,0,0,1,.22.22v1.27a.2.2,0,0,1-.22.22Z"/><path d="M359.79,30.29a.21.21,0,0,1-.22-.22V28.46a.21.21,0,0,1,.22-.22h1.5a.21.21,0,0,1,.22.22v1.61a.21.21,0,0,1-.22.22Zm0,12.91a.2.2,0,0,1-.22-.22V32.88a.2.2,0,0,1,.22-.21h1.41a.2.2,0,0,1,.22.21V43a.2.2,0,0,1-.22.22Z"/><path d="M363.82,43.2a.2.2,0,0,1-.22-.22V41.82a.33.33,0,0,1,.08-.24l5.79-7.2v0H364.1a.21.21,0,0,1-.22-.22V32.88a.2.2,0,0,1,.22-.21h7.35a.2.2,0,0,1,.22.21v1.24a.32.32,0,0,1-.09.24l-5.74,7.13v0h5.61a.21.21,0,0,1,.22.22V43a.2.2,0,0,1-.22.22Z"/><path d="M380.18,43.2A.2.2,0,0,1,380,43v-.92h0a3.46,3.46,0,0,1-3.12,1.39c-2,0-3.55-1-3.55-3.17S374.82,37,377.39,37h2.4c.09,0,.13,0,.13-.13v-.77c0-1.45-.57-2.07-2.53-2.07a4.07,4.07,0,0,0-2.55.75.2.2,0,0,1-.31,0l-.59-1a.23.23,0,0,1,0-.31,5.81,5.81,0,0,1,3.59-1c3,0,4.13,1,4.13,3.59v7a.2.2,0,0,1-.22.22Zm-.26-3.41V38.63c0-.09,0-.13-.13-.13h-2.11c-1.83,0-2.62.52-2.62,1.71s.79,1.65,2.2,1.65C378.91,41.86,379.92,41.09,379.92,39.79Z"/><path d="M391.27,43.31c-1.85,0-2.57-.88-2.57-2.77V28.46a.2.2,0,0,1,.22-.22h1.41a.21.21,0,0,1,.22.22v12c0,.88.33,1.17,1.05,1.17H392a.21.21,0,0,1,.22.22v1.27a.2.2,0,0,1-.22.22Z"/><path d="M400.34,43.2a.2.2,0,0,1-.22-.22v-.92h0A3.44,3.44,0,0,1,397,43.45c-2,0-3.54-1-3.54-3.17S395,37,397.54,37h2.4c.09,0,.13,0,.13-.13v-.77c0-1.45-.57-2.07-2.53-2.07a4.07,4.07,0,0,0-2.55.75.2.2,0,0,1-.31,0l-.59-1a.23.23,0,0,1,0-.31,5.83,5.83,0,0,1,3.59-1c3,0,4.13,1,4.13,3.59v7a.2.2,0,0,1-.22.22Zm-.27-3.41V38.63c0-.09,0-.13-.13-.13h-2.11c-1.83,0-2.62.52-2.62,1.71s.79,1.65,2.2,1.65C399.06,41.86,400.07,41.09,400.07,39.79Z"/><path d="M415.27,43.2a.2.2,0,0,1-.22-.22v-.92h0a3.46,3.46,0,0,1-3.12,1.39c-2,0-3.55-1-3.55-3.17S409.9,37,412.48,37h2.4c.09,0,.13,0,.13-.13v-.77c0-1.45-.57-2.07-2.53-2.07a4.07,4.07,0,0,0-2.55.75.2.2,0,0,1-.31,0l-.6-1a.24.24,0,0,1,.05-.31,5.81,5.81,0,0,1,3.59-1c3,0,4.13,1,4.13,3.59v7a.2.2,0,0,1-.22.22ZM415,39.79V38.63c0-.09,0-.13-.13-.13h-2.11c-1.83,0-2.62.52-2.62,1.71s.79,1.65,2.2,1.65C414,41.86,415,41.09,415,39.79Z"/><path d="M419.12,35.26a4.1,4.1,0,0,1,4.16-2.84,4.21,4.21,0,0,1,3.61,1.79c.07.11.07.19-.07.3l-1,.8a.2.2,0,0,1-.3,0,2.59,2.59,0,0,0-2.27-1.14,2.28,2.28,0,0,0-2.35,1.65,6.89,6.89,0,0,0-.24,2.13,7,7,0,0,0,.24,2.16,2.28,2.28,0,0,0,2.35,1.65,2.59,2.59,0,0,0,2.27-1.14.2.2,0,0,1,.3,0l1,.8c.14.11.14.19.07.3a4.23,4.23,0,0,1-3.61,1.79,4.1,4.1,0,0,1-4.16-2.84,9.43,9.43,0,0,1-.33-2.69A9.35,9.35,0,0,1,419.12,35.26Z"/><path d="M432,43.31c-2,0-2.84-.92-2.84-3v-6a.12.12,0,0,0-.13-.13h-.88a.21.21,0,0,1-.22-.22V32.88a.2.2,0,0,1,.22-.21H429c.09,0,.13-.05.13-.14v-3a.21.21,0,0,1,.22-.22h1.41a.2.2,0,0,1,.22.22v3a.12.12,0,0,0,.13.14h1.68a.2.2,0,0,1,.22.21v1.06a.21.21,0,0,1-.22.22h-1.68a.12.12,0,0,0-.13.13v6c0,1.05.4,1.34,1.35,1.34h.46a.21.21,0,0,1,.22.22v1.27a.2.2,0,0,1-.22.22Z"/><path d="M435.18,30.29a.21.21,0,0,1-.22-.22V28.46a.21.21,0,0,1,.22-.22h1.5a.21.21,0,0,1,.22.22v1.61a.21.21,0,0,1-.22.22Zm.05,12.91A.2.2,0,0,1,435,43V32.88a.2.2,0,0,1,.22-.21h1.4a.2.2,0,0,1,.22.21V43a.2.2,0,0,1-.22.22Z"/><path d="M442.4,43.2c-.16,0-.22-.08-.27-.22l-3.78-10.1c0-.13,0-.21.17-.21H440c.16,0,.22.06.29.21l2.73,7.57h0l2.67-7.57a.25.25,0,0,1,.26-.21h1.49c.16,0,.22.08.18.21L443.94,43a.28.28,0,0,1-.29.22Z"/><path d="M449.37,30.29a.21.21,0,0,1-.22-.22V28.46a.21.21,0,0,1,.22-.22h1.5a.21.21,0,0,1,.22.22v1.61a.21.21,0,0,1-.22.22Zm.05,12.91a.21.21,0,0,1-.23-.22V32.88a.21.21,0,0,1,.23-.21h1.4a.2.2,0,0,1,.22.21V43a.2.2,0,0,1-.22.22Z"/><path d="M460.37,43.2a.2.2,0,0,1-.22-.22V42h0a3.21,3.21,0,0,1-3,1.48,3.48,3.48,0,0,1-3.63-2.53,8.72,8.72,0,0,1-.38-3,8.64,8.64,0,0,1,.38-3,3.48,3.48,0,0,1,3.63-2.53,3.2,3.2,0,0,1,3,1.46h0V28.46a.21.21,0,0,1,.22-.22h1.41a.21.21,0,0,1,.22.22V43a.2.2,0,0,1-.22.22Zm-.46-3.08a6.63,6.63,0,0,0,.24-2.2,6.79,6.79,0,0,0-.24-2.2,2.49,2.49,0,0,0-4.64,0,7.39,7.39,0,0,0-.25,2.2,7.14,7.14,0,0,0,.25,2.2,2.48,2.48,0,0,0,4.64,0Z"/><path d="M471.11,43.2a.2.2,0,0,1-.22-.22v-.92h0a3.47,3.47,0,0,1-3.13,1.39c-2,0-3.54-1-3.54-3.17S465.74,37,468.31,37h2.4c.09,0,.13,0,.13-.13v-.77c0-1.45-.57-2.07-2.53-2.07a4.09,4.09,0,0,0-2.55.75.2.2,0,0,1-.31,0l-.59-1a.23.23,0,0,1,0-.31,5.83,5.83,0,0,1,3.59-1c3,0,4.14,1,4.14,3.59v7a.2.2,0,0,1-.22.22Zm-.27-3.41V38.63c0-.09,0-.13-.13-.13H468.6c-1.83,0-2.62.52-2.62,1.71s.79,1.65,2.2,1.65C469.83,41.86,470.84,41.09,470.84,39.79Z"/><path d="M481.87,43.2a.2.2,0,0,1-.22-.22V42h0a3.19,3.19,0,0,1-3,1.48A3.48,3.48,0,0,1,475,40.92a8.75,8.75,0,0,1-.37-3,8.67,8.67,0,0,1,.37-3,3.48,3.48,0,0,1,3.63-2.53,3.18,3.18,0,0,1,3,1.46h0V28.46a.2.2,0,0,1,.22-.22h1.4a.2.2,0,0,1,.22.22V43a.2.2,0,0,1-.22.22Zm-.47-3.08a6.58,6.58,0,0,0,.25-2.2,6.73,6.73,0,0,0-.25-2.2,2.49,2.49,0,0,0-4.64,0,7.78,7.78,0,0,0-.24,2.2,7.51,7.51,0,0,0,.24,2.2,2.48,2.48,0,0,0,4.64,0Z"/></g></g></svg>