<svg xmlns="http://www.w3.org/2000/svg" viewBox="0 0 363.97 72.85"><title>4c</title><g id="Capa_2" data-name="Capa 2"><g id="answer_copia" data-name="answer copia"><path d="M.09,14.81a.26.26,0,0,1,0-.36L1.12,13.2a.21.21,0,0,1,.33,0A7.53,7.53,0,0,0,6,14.86c2.26,0,3.6-1.13,3.6-2.79,0-1.39-.79-2.32-3.4-2.66l-.82-.12C2.22,8.86.59,7.34.59,4.78.59,1.87,2.68,0,5.92,0a8.65,8.65,0,0,1,5,1.51.22.22,0,0,1,0,.34l-.81,1.32a.24.24,0,0,1-.34.05A7.18,7.18,0,0,0,5.85,2c-2,0-3.1,1.08-3.1,2.64,0,1.37.91,2.28,3.43,2.62L7,7.37c3.2.43,4.8,1.89,4.8,4.56,0,2.86-2,4.92-5.95,4.92A9,9,0,0,1,.09,14.81Z"/><path d="M14.73,2.5a.23.23,0,0,1-.25-.24V.5a.23.23,0,0,1,.25-.24h1.63A.23.23,0,0,1,16.6.5V2.26a.23.23,0,0,1-.24.24Zm0,14.09a.23.23,0,0,1-.24-.24v-11a.23.23,0,0,1,.24-.24h1.54a.23.23,0,0,1,.24.24v11a.23.23,0,0,1-.24.24Z"/><path d="M25.52,16.59a.23.23,0,0,1-.24-.24v-11a.23.23,0,0,1,.24-.24h1.54a.23.23,0,0,1,.24.24V6.5h0a3.23,3.23,0,0,1,3.05-1.68,3.54,3.54,0,0,1,2.36.87c.12.12.14.21,0,.33L31.89,7.2a.23.23,0,0,1-.34,0,3.23,3.23,0,0,0-1.78-.55C28,6.7,27.3,8.06,27.3,10.06v6.29a.23.23,0,0,1-.24.24Z"/><path d="M33.9,13.73a9,9,0,0,1-.38-2.9,8.93,8.93,0,0,1,.36-2.91,4.44,4.44,0,0,1,4.51-3.1,4.45,4.45,0,0,1,4.51,3.1,10.08,10.08,0,0,1,.36,3.29.23.23,0,0,1-.26.24H35.73c-.1,0-.15.05-.15.14a4.37,4.37,0,0,0,.19,1.4,2.84,2.84,0,0,0,2.91,2,3.74,3.74,0,0,0,3-1.27c.12-.13.24-.15.36-.05l1,.89a.21.21,0,0,1,0,.33,5.59,5.59,0,0,1-4.49,2A4.45,4.45,0,0,1,33.9,13.73Zm7.15-3.89c.1,0,.15-.05.15-.14A4.06,4.06,0,0,0,41,8.4a2.84,2.84,0,0,0-5.28,0,4.06,4.06,0,0,0-.17,1.3c0,.09.05.14.15.14Z"/><path d="M53,16.59a.23.23,0,0,1-.24-.24v-1h0a3.79,3.79,0,0,1-3.41,1.51c-2.18,0-3.87-1.13-3.87-3.46s1.69-3.55,4.49-3.55h2.62a.12.12,0,0,0,.14-.14V8.86c0-1.59-.62-2.26-2.76-2.26a4.46,4.46,0,0,0-2.78.82.22.22,0,0,1-.34,0l-.65-1.1A.27.27,0,0,1,46.21,6a6.42,6.42,0,0,1,3.92-1.13c3.26,0,4.51,1.08,4.51,3.92v7.61a.23.23,0,0,1-.24.24Zm-.29-3.72V11.59a.12.12,0,0,0-.14-.14H50.24c-2,0-2.85.57-2.85,1.87s.86,1.8,2.4,1.8C51.59,15.12,52.69,14.28,52.69,12.87Z"/><path d="M60.76,16.71c-2,0-2.81-1-2.81-3V.5a.23.23,0,0,1,.24-.24h1.54A.23.23,0,0,1,60,.5V13.56c0,1,.35,1.27,1.15,1.27h.45a.23.23,0,0,1,.24.24v1.4a.23.23,0,0,1-.24.24Z"/><path d="M64.36,2.5a.23.23,0,0,1-.24-.24V.5a.23.23,0,0,1,.24-.24H66a.23.23,0,0,1,.24.24V2.26A.23.23,0,0,1,66,2.5Zm0,14.09a.23.23,0,0,1-.24-.24v-11a.23.23,0,0,1,.24-.24h1.54a.23.23,0,0,1,.24.24v11a.23.23,0,0,1-.24.24Z"/><path d="M69.23,16.59a.23.23,0,0,1-.24-.24V15.07a.36.36,0,0,1,.09-.26L75.4,7v0H69.54a.23.23,0,0,1-.24-.24V5.33a.23.23,0,0,1,.24-.24h8a.23.23,0,0,1,.24.24V6.67a.39.39,0,0,1-.1.27l-6.26,7.77v0h6.12a.23.23,0,0,1,.24.24v1.35a.23.23,0,0,1-.24.24Z"/><path d="M87.56,16.59a.23.23,0,0,1-.24-.24v-1h0a3.77,3.77,0,0,1-3.41,1.51c-2.18,0-3.86-1.13-3.86-3.46s1.68-3.55,4.49-3.55h2.61c.1,0,.15-.05.15-.14V8.86c0-1.59-.63-2.26-2.76-2.26a4.48,4.48,0,0,0-2.79.82c-.12.09-.26.09-.33,0l-.65-1.1a.26.26,0,0,1,0-.34,6.36,6.36,0,0,1,3.91-1.13c3.26,0,4.51,1.08,4.51,3.92v7.61a.23.23,0,0,1-.24.24Zm-.28-3.72V11.59c0-.09,0-.14-.15-.14h-2.3c-2,0-2.86.57-2.86,1.87s.87,1.8,2.4,1.8C86.17,15.12,87.28,14.28,87.28,12.87Z"/><path d="M101.2,16.71c-2.24,0-3.1-1-3.1-3.27V6.86A.13.13,0,0,0,98,6.72H97a.23.23,0,0,1-.24-.24V5.33A.22.22,0,0,1,97,5.09h1c.09,0,.14,0,.14-.15V1.7a.23.23,0,0,1,.24-.24h1.54a.23.23,0,0,1,.24.24V4.94c0,.1,0,.15.14.15h1.82a.22.22,0,0,1,.24.24V6.48a.23.23,0,0,1-.24.24h-1.82a.12.12,0,0,0-.14.14v6.51c0,1.15.43,1.46,1.46,1.46h.5a.23.23,0,0,1,.24.24v1.4a.23.23,0,0,1-.24.24Z"/><path d="M105.2,16.59a.23.23,0,0,1-.24-.24v-11a.23.23,0,0,1,.24-.24h1.54a.23.23,0,0,1,.24.24V6.5h0a3.23,3.23,0,0,1,3-1.68,3.49,3.49,0,0,1,2.35.87c.12.12.15.21,0,.33l-.89,1.18a.21.21,0,0,1-.33,0,3.23,3.23,0,0,0-1.78-.55c-1.75,0-2.47,1.36-2.47,3.36v6.29a.23.23,0,0,1-.24.24Z"/><path d="M120.71,16.59a.23.23,0,0,1-.24-.24v-1h0a3.75,3.75,0,0,1-3.4,1.51c-2.19,0-3.87-1.13-3.87-3.46s1.68-3.55,4.49-3.55h2.62a.13.13,0,0,0,.14-.14V8.86c0-1.59-.62-2.26-2.76-2.26a4.44,4.44,0,0,0-2.78.82.22.22,0,0,1-.34,0l-.65-1.1a.26.26,0,0,1,0-.34,6.38,6.38,0,0,1,3.91-1.13c3.27,0,4.51,1.08,4.51,3.92v7.61a.23.23,0,0,1-.24.24Zm-.29-3.72V11.59a.13.13,0,0,0-.14-.14H118c-2,0-2.85.57-2.85,1.87s.86,1.8,2.4,1.8C119.32,15.12,120.42,14.28,120.42,12.87Z"/><path d="M126,16.59a.23.23,0,0,1-.24-.24V.5A.23.23,0,0,1,126,.26h1.54a.23.23,0,0,1,.24.24V6.41h0A3.51,3.51,0,0,1,131,4.82a3.81,3.81,0,0,1,4,2.76,9.63,9.63,0,0,1,.41,3.25,9.58,9.58,0,0,1-.41,3.26,3.81,3.81,0,0,1-4,2.76,3.52,3.52,0,0,1-3.27-1.61h0v1.11a.23.23,0,0,1-.24.24Zm7.11-3.36a8.09,8.09,0,0,0,.26-2.4,8.33,8.33,0,0,0-.26-2.41,2.73,2.73,0,0,0-5.07,0,7.62,7.62,0,0,0-.26,2.41,7.51,7.51,0,0,0,.26,2.4,2.71,2.71,0,0,0,5.07,0Z"/><path d="M145.12,16.59a.23.23,0,0,1-.24-.24v-1h0a3.77,3.77,0,0,1-3.41,1.51c-2.18,0-3.86-1.13-3.86-3.46s1.68-3.55,4.49-3.55h2.61c.1,0,.15-.05.15-.14V8.86c0-1.59-.63-2.26-2.76-2.26a4.5,4.5,0,0,0-2.79.82c-.12.09-.26.09-.33,0l-.65-1.1a.26.26,0,0,1,0-.34,6.38,6.38,0,0,1,3.91-1.13c3.26,0,4.51,1.08,4.51,3.92v7.61a.23.23,0,0,1-.24.24Zm-.29-3.72V11.59c0-.09-.05-.14-.15-.14h-2.3c-2,0-2.86.57-2.86,1.87s.87,1.8,2.4,1.8C143.72,15.12,144.83,14.28,144.83,12.87Z"/><path d="M148.23,20.91a.22.22,0,0,1-.23-.24v-1.4a.22.22,0,0,1,.23-.24h.39c1.13,0,1.51-.31,1.51-1.53V5.33a.23.23,0,0,1,.24-.24h1.54a.23.23,0,0,1,.24.24V17.45c0,2.47-1.11,3.46-3.43,3.46ZM150.32,2.5a.23.23,0,0,1-.24-.24V.5a.23.23,0,0,1,.24-.24H152a.23.23,0,0,1,.24.24V2.26a.23.23,0,0,1-.24.24Z"/><path d="M155.29,13.75a8.7,8.7,0,0,1-.38-2.92,8.68,8.68,0,0,1,.38-2.91,4.87,4.87,0,0,1,9.07,0,8.4,8.4,0,0,1,.39,2.91,8.42,8.42,0,0,1-.39,2.92,4.87,4.87,0,0,1-9.07,0Zm7.13-.57a7.64,7.64,0,0,0,.26-2.35,7.41,7.41,0,0,0-.26-2.33,2.77,2.77,0,0,0-5.19,0,7.41,7.41,0,0,0-.26,2.33,7.64,7.64,0,0,0,.26,2.35,2.77,2.77,0,0,0,5.19,0Z"/><path d="M166.72,15.12a.22.22,0,0,1,0-.33l1-1.06a.23.23,0,0,1,.34,0,5.6,5.6,0,0,0,3.55,1.32c1.68,0,2.52-.72,2.52-1.75s-.43-1.42-2.23-1.61l-1.23-.12c-2.25-.24-3.43-1.37-3.43-3.24,0-2.19,1.56-3.51,4.27-3.51a6.88,6.88,0,0,1,4.08,1.28.23.23,0,0,1,.05.33l-.82,1a.23.23,0,0,1-.33,0,6.07,6.07,0,0,0-3.1-.93c-1.44,0-2.18.64-2.18,1.58s.55,1.39,2.25,1.56l1.2.12c2.33.22,3.46,1.39,3.46,3.24,0,2.26-1.63,3.77-4.63,3.77A7.09,7.09,0,0,1,166.72,15.12Z"/><path d="M191.27,16.59a.23.23,0,0,1-.24-.24V15.24h0a3.49,3.49,0,0,1-3.26,1.61,3.8,3.8,0,0,1-4-2.76,9.58,9.58,0,0,1-.41-3.26,9.63,9.63,0,0,1,.41-3.25,3.8,3.8,0,0,1,4-2.76A3.48,3.48,0,0,1,191,6.41h0V.5a.23.23,0,0,1,.24-.24h1.53A.23.23,0,0,1,193,.5V16.35a.23.23,0,0,1-.24.24Zm-.51-3.36a7.17,7.17,0,0,0,.27-2.4,7.28,7.28,0,0,0-.27-2.41,2.72,2.72,0,0,0-5.06,0,8.33,8.33,0,0,0-.26,2.41,8.09,8.09,0,0,0,.26,2.4,2.7,2.7,0,0,0,5.06,0Z"/><path d="M196.19,13.73a8.94,8.94,0,0,1-.39-2.9,8.93,8.93,0,0,1,.36-2.91,4.84,4.84,0,0,1,9,0,10.08,10.08,0,0,1,.36,3.29.24.24,0,0,1-.27.24H198a.12.12,0,0,0-.14.14,4.37,4.37,0,0,0,.19,1.4,2.83,2.83,0,0,0,2.9,2,3.74,3.74,0,0,0,2.95-1.27c.13-.13.24-.15.36-.05l1,.89a.21.21,0,0,1,0,.33,5.59,5.59,0,0,1-4.48,2A4.45,4.45,0,0,1,196.19,13.73Zm7.15-3.89a.12.12,0,0,0,.14-.14,3.8,3.8,0,0,0-.17-1.3,2.84,2.84,0,0,0-5.28,0,4.08,4.08,0,0,0-.16,1.3.12.12,0,0,0,.14.14Z"/><path d="M220.55,16.59a.23.23,0,0,1-.24-.24v-1h0a3.77,3.77,0,0,1-3.41,1.51c-2.18,0-3.86-1.13-3.86-3.46s1.68-3.55,4.49-3.55h2.61c.1,0,.15-.05.15-.14V8.86c0-1.59-.62-2.26-2.76-2.26a4.5,4.5,0,0,0-2.79.82c-.12.09-.26.09-.33,0l-.65-1.1a.26.26,0,0,1,.05-.34,6.38,6.38,0,0,1,3.91-1.13c3.27,0,4.51,1.08,4.51,3.92v7.61a.23.23,0,0,1-.24.24Zm-.29-3.72V11.59c0-.09,0-.14-.15-.14h-2.3c-2,0-2.86.57-2.86,1.87s.87,1.8,2.4,1.8C219.15,15.12,220.26,14.28,220.26,12.87Z"/><path d="M228.32,16.71c-2,0-2.81-1-2.81-3V.5a.23.23,0,0,1,.24-.24h1.54a.23.23,0,0,1,.24.24V13.56c0,1,.36,1.27,1.15,1.27h.46a.23.23,0,0,1,.24.24v1.4a.23.23,0,0,1-.24.24Z"/><path d="M235,16.71c-2.24,0-3.1-1-3.1-3.27V6.86a.13.13,0,0,0-.14-.14h-1a.23.23,0,0,1-.24-.24V5.33a.22.22,0,0,1,.24-.24h1c.09,0,.14,0,.14-.15V1.7a.23.23,0,0,1,.24-.24h1.54a.23.23,0,0,1,.24.24V4.94c0,.1,0,.15.14.15h1.82a.22.22,0,0,1,.24.24V6.48a.23.23,0,0,1-.24.24H234a.12.12,0,0,0-.14.14v6.51c0,1.15.43,1.46,1.46,1.46h.5a.23.23,0,0,1,.24.24v1.4a.23.23,0,0,1-.24.24Z"/><path d="M245.94,16.59a.23.23,0,0,1-.24-.24V15.27h0a3.49,3.49,0,0,1-3.14,1.58c-2.52,0-4-1.73-4-4.35V5.33a.22.22,0,0,1,.24-.24h1.53a.22.22,0,0,1,.24.24V12c0,1.88.84,3,2.55,3a2.55,2.55,0,0,0,2.59-2.83V5.33a.23.23,0,0,1,.24-.24h1.54a.23.23,0,0,1,.24.24v11a.23.23,0,0,1-.24.24Z"/><path d="M251.41,16.59a.23.23,0,0,1-.24-.24v-11a.23.23,0,0,1,.24-.24H253a.23.23,0,0,1,.24.24V6.5h0a3.2,3.2,0,0,1,3-1.68,3.53,3.53,0,0,1,2.35.87c.12.12.14.21.05.33l-.89,1.18a.23.23,0,0,1-.34,0,3.17,3.17,0,0,0-1.77-.55c-1.75,0-2.47,1.36-2.47,3.36v6.29a.23.23,0,0,1-.24.24Z"/><path d="M266.91,16.59a.22.22,0,0,1-.23-.24v-1h0a3.79,3.79,0,0,1-3.41,1.51c-2.18,0-3.86-1.13-3.86-3.46s1.68-3.55,4.49-3.55h2.61c.1,0,.15-.05.15-.14V8.86c0-1.59-.63-2.26-2.76-2.26a4.48,4.48,0,0,0-2.79.82c-.12.09-.26.09-.33,0l-.65-1.1a.26.26,0,0,1,0-.34,6.36,6.36,0,0,1,3.91-1.13c3.26,0,4.51,1.08,4.51,3.92v7.61a.23.23,0,0,1-.24.24Zm-.28-3.72V11.59c0-.09-.05-.14-.15-.14h-2.3c-2,0-2.86.57-2.86,1.87s.87,1.8,2.4,1.8C265.52,15.12,266.63,14.28,266.63,12.87Z"/><path d="M271.14,15.12a.22.22,0,0,1,0-.33l1-1.06a.23.23,0,0,1,.34,0A5.6,5.6,0,0,0,276,15.05c1.68,0,2.52-.72,2.52-1.75s-.43-1.42-2.23-1.61l-1.23-.12c-2.25-.24-3.43-1.37-3.43-3.24,0-2.19,1.56-3.51,4.27-3.51A6.83,6.83,0,0,1,280,6.1a.21.21,0,0,1,.05.33l-.81,1a.24.24,0,0,1-.34,0,6,6,0,0,0-3.09-.93c-1.45,0-2.19.64-2.19,1.58s.55,1.39,2.26,1.56l1.2.12c2.33.22,3.45,1.39,3.45,3.24,0,2.26-1.63,3.77-4.63,3.77A7.11,7.11,0,0,1,271.14,15.12Z"/><path d="M295.69,16.59a.23.23,0,0,1-.24-.24V15.24h0a3.52,3.52,0,0,1-3.27,1.61,3.81,3.81,0,0,1-4-2.76,9.58,9.58,0,0,1-.41-3.26,9.63,9.63,0,0,1,.41-3.25,3.81,3.81,0,0,1,4-2.76,3.51,3.51,0,0,1,3.27,1.59h0V.5a.23.23,0,0,1,.24-.24h1.54a.23.23,0,0,1,.24.24V16.35a.23.23,0,0,1-.24.24Zm-.5-3.36a7.51,7.51,0,0,0,.26-2.4,7.62,7.62,0,0,0-.26-2.41,2.73,2.73,0,0,0-5.07,0,8.33,8.33,0,0,0-.26,2.41,8.09,8.09,0,0,0,.26,2.4,2.71,2.71,0,0,0,5.07,0Z"/><path d="M300.61,13.75a8.7,8.7,0,0,1-.38-2.92,8.68,8.68,0,0,1,.38-2.91,4.87,4.87,0,0,1,9.07,0,8.4,8.4,0,0,1,.39,2.91,8.42,8.42,0,0,1-.39,2.92,4.87,4.87,0,0,1-9.07,0Zm7.13-.57a7.64,7.64,0,0,0,.26-2.35,7.41,7.41,0,0,0-.26-2.33,2.77,2.77,0,0,0-5.19,0,7.41,7.41,0,0,0-.26,2.33,7.64,7.64,0,0,0,.26,2.35,2.77,2.77,0,0,0,5.19,0Z"/><path d="M320.29,16.59a.23.23,0,0,1-.24-.24V9.63c0-1.85-.84-2.93-2.57-2.93a2.58,2.58,0,0,0-2.64,2.8v6.85a.23.23,0,0,1-.24.24h-1.54a.23.23,0,0,1-.24-.24v-11a.23.23,0,0,1,.24-.24h1.54a.23.23,0,0,1,.24.24v1h0a3.64,3.64,0,0,1,3.21-1.56c2.5,0,4,1.71,4,4.32v7.21a.23.23,0,0,1-.24.24Z"/><path d="M332.6,16.59a.23.23,0,0,1-.24-.24V15.24h0a3.51,3.51,0,0,1-3.27,1.61,3.81,3.81,0,0,1-4-2.76,9.58,9.58,0,0,1-.41-3.26,9.63,9.63,0,0,1,.41-3.25,3.81,3.81,0,0,1,4-2.76,3.5,3.5,0,0,1,3.27,1.59h0V.5a.23.23,0,0,1,.24-.24h1.54a.23.23,0,0,1,.24.24V16.35a.23.23,0,0,1-.24.24Zm-.5-3.36a7.51,7.51,0,0,0,.26-2.4,7.62,7.62,0,0,0-.26-2.41,2.73,2.73,0,0,0-5.07,0,8.33,8.33,0,0,0-.26,2.41,8.09,8.09,0,0,0,.26,2.4,2.71,2.71,0,0,0,5.07,0Z"/><path d="M337.52,13.73a9,9,0,0,1-.38-2.9,8.93,8.93,0,0,1,.36-2.91,4.83,4.83,0,0,1,9,0,10.08,10.08,0,0,1,.36,3.29.23.23,0,0,1-.26.24h-7.27c-.1,0-.15.05-.15.14a4.37,4.37,0,0,0,.19,1.4,2.84,2.84,0,0,0,2.91,2,3.74,3.74,0,0,0,2.95-1.27c.12-.13.24-.15.36-.05l1,.89a.21.21,0,0,1,0,.33,5.59,5.59,0,0,1-4.49,2A4.45,4.45,0,0,1,337.52,13.73Zm7.15-3.89c.1,0,.15-.05.15-.14a4.06,4.06,0,0,0-.17-1.3,2.84,2.84,0,0,0-5.28,0,4.06,4.06,0,0,0-.17,1.3c0,.09.05.14.15.14Z"/><path d="M.52,41.73a8.94,8.94,0,0,1-.39-2.9,8.93,8.93,0,0,1,.36-2.91A4.46,4.46,0,0,1,5,32.82a4.46,4.46,0,0,1,4.51,3.1,10.08,10.08,0,0,1,.36,3.29.24.24,0,0,1-.27.24H2.34a.13.13,0,0,0-.14.14A4.37,4.37,0,0,0,2.39,41a2.84,2.84,0,0,0,2.9,2,3.78,3.78,0,0,0,3-1.27c.12-.13.24-.15.36-.05l1,.89a.21.21,0,0,1,0,.33,5.59,5.59,0,0,1-4.48,2A4.45,4.45,0,0,1,.52,41.73Zm7.15-3.89a.12.12,0,0,0,.14-.14,4.08,4.08,0,0,0-.16-1.3A2.61,2.61,0,0,0,5,34.6a2.59,2.59,0,0,0-2.64,1.8,4.06,4.06,0,0,0-.17,1.3.13.13,0,0,0,.14.14Z"/><path d="M19.48,44.59c-.17,0-.24-.05-.36-.22l-2.79-4.06h0l-2.78,4.06a.37.37,0,0,1-.36.22H11.46c-.19,0-.24-.12-.17-.24l3.92-5.77-3.58-5.25c-.07-.12,0-.24.17-.24h1.73a.35.35,0,0,1,.36.21l2.42,3.58h0l2.48-3.58a.34.34,0,0,1,.33-.21h1.73c.19,0,.24.12.17.24l-3.6,5.25,3.93,5.77c.08.12,0,.24-.16.24Z"/><path d="M23.77,30.5a.23.23,0,0,1-.24-.24V28.5a.23.23,0,0,1,.24-.24H25.4a.23.23,0,0,1,.25.24v1.76a.23.23,0,0,1-.25.24Zm.05,14.09a.23.23,0,0,1-.24-.24v-11a.23.23,0,0,1,.24-.24h1.54a.23.23,0,0,1,.24.24v11a.23.23,0,0,1-.24.24Z"/><path d="M28.26,43.12a.22.22,0,0,1,0-.33l1-1.06a.23.23,0,0,1,.34,0,5.62,5.62,0,0,0,3.55,1.32c1.68,0,2.52-.72,2.52-1.75s-.43-1.42-2.23-1.61l-1.22-.12c-2.26-.24-3.43-1.37-3.43-3.24,0-2.19,1.55-3.51,4.27-3.51a6.88,6.88,0,0,1,4.08,1.28.23.23,0,0,1,.05.33l-.82,1a.24.24,0,0,1-.34,0,6,6,0,0,0-3.09-.93c-1.44,0-2.19.64-2.19,1.58s.56,1.39,2.26,1.56l1.2.12c2.33.22,3.46,1.39,3.46,3.24,0,2.26-1.64,3.77-4.64,3.77A7.13,7.13,0,0,1,28.26,43.12Z"/><path d="M43.67,44.71c-2.23,0-3.1-1-3.1-3.27V34.86a.13.13,0,0,0-.14-.14h-1a.23.23,0,0,1-.24-.24V33.33a.22.22,0,0,1,.24-.24h1c.09,0,.14-.05.14-.15V29.7a.23.23,0,0,1,.24-.24h1.54a.23.23,0,0,1,.24.24v3.24c0,.1,0,.15.14.15h1.83a.23.23,0,0,1,.24.24v1.15a.23.23,0,0,1-.24.24H42.73a.13.13,0,0,0-.14.14v6.51c0,1.15.43,1.46,1.46,1.46h.51a.23.23,0,0,1,.24.24v1.4a.23.23,0,0,1-.24.24Z"/><path d="M47.13,41.73a8.94,8.94,0,0,1-.39-2.9,8.93,8.93,0,0,1,.36-2.91,4.45,4.45,0,0,1,4.51-3.1,4.46,4.46,0,0,1,4.52,3.1,10.08,10.08,0,0,1,.36,3.29.24.24,0,0,1-.27.24H49a.12.12,0,0,0-.14.14A4.37,4.37,0,0,0,49,41a2.83,2.83,0,0,0,2.9,2,3.74,3.74,0,0,0,3-1.27c.12-.13.24-.15.36-.05l1,.89a.21.21,0,0,1,0,.33,5.59,5.59,0,0,1-4.49,2A4.43,4.43,0,0,1,47.13,41.73Zm7.15-3.89a.13.13,0,0,0,.14-.14,4.06,4.06,0,0,0-.17-1.3,2.84,2.84,0,0,0-5.28,0,4.08,4.08,0,0,0-.16,1.3.12.12,0,0,0,.14.14Z"/><path d="M64.19,35.92a4.46,4.46,0,0,1,4.54-3.1,4.61,4.61,0,0,1,3.93,2c.07.12.07.21-.07.33L71.53,36a.21.21,0,0,1-.33,0,2.82,2.82,0,0,0-2.47-1.24,2.49,2.49,0,0,0-2.57,1.8,7.7,7.7,0,0,0-.27,2.33,7.76,7.76,0,0,0,.27,2.35A2.49,2.49,0,0,0,68.73,43a2.82,2.82,0,0,0,2.47-1.25.21.21,0,0,1,.33,0l1.06.86a.23.23,0,0,1,.07.34,4.6,4.6,0,0,1-3.93,1.94,4.45,4.45,0,0,1-4.54-3.1,9.74,9.74,0,0,1-.36-2.92A9.76,9.76,0,0,1,64.19,35.92Z"/><path d="M82.05,44.59a.23.23,0,0,1-.24-.24v-1h0a3.77,3.77,0,0,1-3.41,1.51c-2.18,0-3.86-1.13-3.86-3.46s1.68-3.55,4.49-3.55h2.61c.1,0,.15-.05.15-.14v-.84c0-1.59-.63-2.26-2.76-2.26a4.5,4.5,0,0,0-2.79.82c-.12.09-.26.09-.33,0l-.65-1.1a.26.26,0,0,1,0-.34,6.36,6.36,0,0,1,3.91-1.13c3.26,0,4.51,1.08,4.51,3.92v7.61a.23.23,0,0,1-.24.24Zm-.29-3.72V39.59c0-.09-.05-.14-.15-.14h-2.3c-2,0-2.86.57-2.86,1.87s.87,1.8,2.4,1.8C80.65,43.12,81.76,42.28,81.76,40.87Z"/><path d="M87.3,44.59a.23.23,0,0,1-.24-.24V28.5a.23.23,0,0,1,.24-.24h1.54a.23.23,0,0,1,.24.24v5.91h0a3.49,3.49,0,0,1,3.26-1.59,3.79,3.79,0,0,1,4,2.76,9.38,9.38,0,0,1,.41,3.25,9.34,9.34,0,0,1-.41,3.26,3.79,3.79,0,0,1-4,2.76,3.5,3.5,0,0,1-3.26-1.61h0v1.11a.23.23,0,0,1-.24.24Zm7.1-3.36a7.72,7.72,0,0,0,.27-2.4,8,8,0,0,0-.27-2.41,2.72,2.72,0,0,0-5.06,0,7.62,7.62,0,0,0-.26,2.41,7.51,7.51,0,0,0,.26,2.4,2.7,2.7,0,0,0,5.06,0Z"/><path d="M102.25,44.71c-2,0-2.81-1-2.81-3V28.5a.23.23,0,0,1,.24-.24h1.54a.23.23,0,0,1,.24.24V41.56c0,1,.36,1.27,1.15,1.27h.46a.23.23,0,0,1,.24.24v1.4a.23.23,0,0,1-.24.24Z"/><path d="M105.35,41.73a8.94,8.94,0,0,1-.39-2.9,8.93,8.93,0,0,1,.36-2.91,4.84,4.84,0,0,1,9,0,10.08,10.08,0,0,1,.36,3.29.24.24,0,0,1-.27.24h-7.27a.13.13,0,0,0-.14.14,4.37,4.37,0,0,0,.19,1.4,2.84,2.84,0,0,0,2.9,2,3.78,3.78,0,0,0,3-1.27c.12-.13.24-.15.36-.05l1,.89a.21.21,0,0,1,0,.33,5.59,5.59,0,0,1-4.48,2A4.45,4.45,0,0,1,105.35,41.73Zm7.15-3.89c.1,0,.15-.05.15-.14a4.06,4.06,0,0,0-.17-1.3,2.84,2.84,0,0,0-5.28,0,4.06,4.06,0,0,0-.17,1.3.13.13,0,0,0,.14.14Z"/><path d="M116.68,43.12a.22.22,0,0,1,0-.33l1-1.06a.23.23,0,0,1,.34,0,5.6,5.6,0,0,0,3.55,1.32c1.68,0,2.52-.72,2.52-1.75s-.43-1.42-2.23-1.61l-1.23-.12c-2.25-.24-3.43-1.37-3.43-3.24,0-2.19,1.56-3.51,4.27-3.51a6.88,6.88,0,0,1,4.08,1.28.23.23,0,0,1,0,.33l-.82,1a.23.23,0,0,1-.33,0,6.07,6.07,0,0,0-3.1-.93c-1.44,0-2.18.64-2.18,1.58s.55,1.39,2.25,1.56l1.2.12c2.33.22,3.46,1.39,3.46,3.24,0,2.26-1.63,3.77-4.63,3.77A7.11,7.11,0,0,1,116.68,43.12Z"/><path d="M133.72,41.73a8.94,8.94,0,0,1-.39-2.9,8.93,8.93,0,0,1,.36-2.91,4.84,4.84,0,0,1,9,0,10.08,10.08,0,0,1,.36,3.29.24.24,0,0,1-.27.24h-7.27a.12.12,0,0,0-.14.14,4.37,4.37,0,0,0,.19,1.4,2.83,2.83,0,0,0,2.9,2,3.74,3.74,0,0,0,2.95-1.27c.12-.13.24-.15.36-.05l1,.89a.21.21,0,0,1,0,.33,5.59,5.59,0,0,1-4.49,2A4.43,4.43,0,0,1,133.72,41.73Zm7.15-3.89a.13.13,0,0,0,.14-.14,4.06,4.06,0,0,0-.17-1.3,2.84,2.84,0,0,0-5.28,0,4.08,4.08,0,0,0-.16,1.3.12.12,0,0,0,.14.14Z"/><path d="M153.3,44.59a.23.23,0,0,1-.24-.24V37.63c0-1.85-.84-2.93-2.57-2.93a2.58,2.58,0,0,0-2.64,2.8v6.85a.23.23,0,0,1-.24.24h-1.54a.23.23,0,0,1-.24-.24v-11a.23.23,0,0,1,.24-.24h1.54a.23.23,0,0,1,.24.24v1.05h0a3.64,3.64,0,0,1,3.21-1.56c2.5,0,4,1.71,4,4.32v7.21a.23.23,0,0,1-.24.24Z"/><path d="M158.1,41.73a8.94,8.94,0,0,1-.39-2.9,8.93,8.93,0,0,1,.36-2.91,4.84,4.84,0,0,1,9,0,10.08,10.08,0,0,1,.36,3.29.24.24,0,0,1-.26.24h-7.28a.13.13,0,0,0-.14.14A4.37,4.37,0,0,0,160,41a2.84,2.84,0,0,0,2.91,2,3.77,3.77,0,0,0,3-1.27c.12-.13.24-.15.36-.05l1,.89a.21.21,0,0,1,0,.33,5.62,5.62,0,0,1-4.49,2A4.45,4.45,0,0,1,158.1,41.73Zm7.15-3.89c.1,0,.15-.05.15-.14a4.06,4.06,0,0,0-.17-1.3,2.84,2.84,0,0,0-5.28,0,4.06,4.06,0,0,0-.17,1.3.13.13,0,0,0,.14.14Z"/><path d="M170.46,44.59a.23.23,0,0,1-.24-.24v-11a.22.22,0,0,1,.24-.24H172a.22.22,0,0,1,.24.24V34.5h0a3.2,3.2,0,0,1,3.05-1.68,3.53,3.53,0,0,1,2.35.87c.12.12.14.21.05.33l-.89,1.18a.23.23,0,0,1-.34,0,3.17,3.17,0,0,0-1.77-.55c-1.75,0-2.48,1.36-2.48,3.36v6.29a.23.23,0,0,1-.24.24Z"/><path d="M178.91,47.47a.22.22,0,0,1,0-.34l1-1a.22.22,0,0,1,.36,0A3.86,3.86,0,0,0,183,47.3c1.89,0,2.9-1,2.9-3.1V42.86h0a3.3,3.3,0,0,1-3.19,1.58,3.77,3.77,0,0,1-3.87-2.78,9,9,0,0,1-.38-3,8.92,8.92,0,0,1,.38-3,3.78,3.78,0,0,1,3.87-2.79,3.3,3.3,0,0,1,3.19,1.59h0V33.33a.23.23,0,0,1,.24-.24h1.54a.23.23,0,0,1,.24.24V44.08c0,3.27-1.78,5.09-5,5.09A5.2,5.2,0,0,1,178.91,47.47Zm6.72-6.6a7.11,7.11,0,0,0,.26-2.24,7.16,7.16,0,0,0-.26-2.23,2.6,2.6,0,0,0-4.88,0,7.3,7.3,0,0,0-.28,2.23,7.24,7.24,0,0,0,.28,2.24,2.59,2.59,0,0,0,4.88,0Z"/><path d="M191.56,30.5a.23.23,0,0,1-.25-.24V28.5a.23.23,0,0,1,.25-.24h1.63a.23.23,0,0,1,.24.24v1.76a.23.23,0,0,1-.24.24Zm0,14.09a.23.23,0,0,1-.24-.24v-11a.23.23,0,0,1,.24-.24h1.54a.23.23,0,0,1,.24.24v11a.23.23,0,0,1-.24.24Z"/><path d="M196.43,44.59a.23.23,0,0,1-.24-.24V43.07a.36.36,0,0,1,.09-.26L202.59,35v-.05h-5.85a.22.22,0,0,1-.24-.24V33.33a.22.22,0,0,1,.24-.24h8a.22.22,0,0,1,.24.24v1.34a.38.38,0,0,1-.09.27l-6.26,7.77v0h6.11A.23.23,0,0,1,205,43v1.35a.23.23,0,0,1-.24.24Z"/><path d="M214.76,44.59a.23.23,0,0,1-.24-.24v-1h0a3.79,3.79,0,0,1-3.41,1.51c-2.18,0-3.86-1.13-3.86-3.46s1.68-3.55,4.48-3.55h2.62c.1,0,.15-.05.15-.14v-.84c0-1.59-.63-2.26-2.77-2.26a4.46,4.46,0,0,0-2.78.82.22.22,0,0,1-.34,0l-.64-1.1a.26.26,0,0,1,0-.34,6.42,6.42,0,0,1,3.92-1.13c3.26,0,4.51,1.08,4.51,3.92v7.61a.23.23,0,0,1-.24.24Zm-.28-3.72V39.59c0-.09,0-.14-.15-.14H212c-2,0-2.86.57-2.86,1.87s.86,1.8,2.4,1.8C213.37,43.12,214.48,42.28,214.48,40.87Z"/><path d="M227,44.59a.23.23,0,0,1-.24-.24V43.24h0a3.52,3.52,0,0,1-3.27,1.61,3.81,3.81,0,0,1-4-2.76,9.58,9.58,0,0,1-.41-3.26,9.63,9.63,0,0,1,.41-3.25,3.81,3.81,0,0,1,4-2.76,3.51,3.51,0,0,1,3.27,1.59h0V28.5a.23.23,0,0,1,.24-.24h1.54a.22.22,0,0,1,.23.24V44.35a.22.22,0,0,1-.23.24Zm-.5-3.36a7.51,7.51,0,0,0,.26-2.4,7.62,7.62,0,0,0-.26-2.41,2.73,2.73,0,0,0-5.07,0,8.33,8.33,0,0,0-.26,2.41,8.09,8.09,0,0,0,.26,2.4,2.71,2.71,0,0,0,5.07,0Z"/><path d="M231.9,41.75a8.42,8.42,0,0,1-.39-2.92,8.4,8.4,0,0,1,.39-2.91,4.87,4.87,0,0,1,9.07,0,8.68,8.68,0,0,1,.38,2.91,8.7,8.7,0,0,1-.38,2.92,4.87,4.87,0,0,1-9.07,0Zm7.13-.57a7.64,7.64,0,0,0,.26-2.35A7.41,7.41,0,0,0,239,36.5a2.77,2.77,0,0,0-5.19,0,7.41,7.41,0,0,0-.26,2.33,7.64,7.64,0,0,0,.26,2.35,2.77,2.77,0,0,0,5.19,0Z"/><path d="M243.32,43.12a.24.24,0,0,1,0-.33l1-1.06a.22.22,0,0,1,.33,0,5.62,5.62,0,0,0,3.55,1.32c1.68,0,2.52-.72,2.52-1.75s-.43-1.42-2.23-1.61l-1.22-.12c-2.26-.24-3.43-1.37-3.43-3.24,0-2.19,1.56-3.51,4.27-3.51a6.88,6.88,0,0,1,4.08,1.28.23.23,0,0,1,0,.33l-.82,1a.24.24,0,0,1-.34,0,6,6,0,0,0-3.09-.93c-1.44,0-2.19.64-2.19,1.58s.56,1.39,2.26,1.56l1.2.12c2.33.22,3.46,1.39,3.46,3.24,0,2.26-1.64,3.77-4.64,3.77A7.13,7.13,0,0,1,243.32,43.12Z"/><path d="M264,44.71c-2.23,0-3.1-1-3.1-3.27V34.86a.12.12,0,0,0-.14-.14h-1a.23.23,0,0,1-.24-.24V33.33a.22.22,0,0,1,.24-.24h1c.1,0,.14-.05.14-.15V29.7a.23.23,0,0,1,.24-.24h1.54a.23.23,0,0,1,.24.24v3.24c0,.1.05.15.14.15h1.83a.23.23,0,0,1,.24.24v1.15a.23.23,0,0,1-.24.24h-1.83a.13.13,0,0,0-.14.14v6.51c0,1.15.43,1.46,1.46,1.46h.51a.23.23,0,0,1,.24.24v1.4a.23.23,0,0,1-.24.24Z"/><path d="M268,44.59a.23.23,0,0,1-.24-.24v-11a.22.22,0,0,1,.24-.24h1.53a.22.22,0,0,1,.24.24V34.5h0a3.2,3.2,0,0,1,3.05-1.68,3.53,3.53,0,0,1,2.35.87c.12.12.14.21,0,.33l-.89,1.18a.23.23,0,0,1-.34,0,3.19,3.19,0,0,0-1.77-.55c-1.76,0-2.48,1.36-2.48,3.36v6.29a.23.23,0,0,1-.24.24Z"/><path d="M283.52,44.59a.23.23,0,0,1-.24-.24v-1h0a3.79,3.79,0,0,1-3.41,1.51c-2.18,0-3.87-1.13-3.87-3.46s1.69-3.55,4.49-3.55h2.62a.12.12,0,0,0,.14-.14v-.84c0-1.59-.62-2.26-2.76-2.26a4.46,4.46,0,0,0-2.78.82.22.22,0,0,1-.34,0l-.64-1.1a.26.26,0,0,1,0-.34,6.42,6.42,0,0,1,3.92-1.13c3.26,0,4.51,1.08,4.51,3.92v7.61a.23.23,0,0,1-.24.24Zm-.29-3.72V39.59a.12.12,0,0,0-.14-.14h-2.3c-2,0-2.86.57-2.86,1.87s.86,1.8,2.4,1.8C282.13,43.12,283.23,42.28,283.23,40.87Z"/><path d="M291.87,44.71c-2.23,0-3.09-1-3.09-3.27V34.86c0-.09,0-.14-.15-.14h-1a.23.23,0,0,1-.24-.24V33.33a.23.23,0,0,1,.24-.24h1a.13.13,0,0,0,.15-.15V29.7a.23.23,0,0,1,.24-.24h1.53a.23.23,0,0,1,.24.24v3.24a.13.13,0,0,0,.15.15h1.82a.22.22,0,0,1,.24.24v1.15a.23.23,0,0,1-.24.24h-1.82c-.1,0-.15.05-.15.14v6.51c0,1.15.44,1.46,1.47,1.46h.5a.23.23,0,0,1,.24.24v1.4a.23.23,0,0,1-.24.24Z"/><path d="M295.33,41.73a9,9,0,0,1-.38-2.9,8.67,8.67,0,0,1,.36-2.91,4.83,4.83,0,0,1,9,0,10.08,10.08,0,0,1,.36,3.29.24.24,0,0,1-.26.24h-7.28a.13.13,0,0,0-.14.14,4.37,4.37,0,0,0,.19,1.4,2.84,2.84,0,0,0,2.91,2,3.77,3.77,0,0,0,2.95-1.27c.12-.13.24-.15.36-.05l1,.89a.21.21,0,0,1,0,.33,5.62,5.62,0,0,1-4.49,2A4.45,4.45,0,0,1,295.33,41.73Zm7.15-3.89c.1,0,.15-.05.15-.14a4.06,4.06,0,0,0-.17-1.3,2.84,2.84,0,0,0-5.28,0,4.06,4.06,0,0,0-.17,1.3.13.13,0,0,0,.14.14Z"/><path d="M319.93,44.59a.23.23,0,0,1-.24-.24V43.24h0a3.52,3.52,0,0,1-3.27,1.61,3.81,3.81,0,0,1-4-2.76,9.58,9.58,0,0,1-.41-3.26,9.63,9.63,0,0,1,.41-3.25,3.81,3.81,0,0,1,4-2.76,3.51,3.51,0,0,1,3.27,1.59h0V28.5a.23.23,0,0,1,.24-.24h1.54a.23.23,0,0,1,.24.24V44.35a.23.23,0,0,1-.24.24Zm-.5-3.36a7.51,7.51,0,0,0,.26-2.4,7.62,7.62,0,0,0-.26-2.41,2.73,2.73,0,0,0-5.07,0,8.33,8.33,0,0,0-.26,2.41,8.09,8.09,0,0,0,.26,2.4,2.71,2.71,0,0,0,5.07,0Z"/><path d="M324.85,41.73a9,9,0,0,1-.38-2.9,8.93,8.93,0,0,1,.36-2.91,4.83,4.83,0,0,1,9,0,10.08,10.08,0,0,1,.36,3.29.24.24,0,0,1-.26.24h-7.28a.13.13,0,0,0-.14.14,4.37,4.37,0,0,0,.19,1.4,2.84,2.84,0,0,0,2.91,2,3.77,3.77,0,0,0,2.95-1.27c.12-.13.24-.15.36-.05l1,.89a.21.21,0,0,1,0,.33,5.62,5.62,0,0,1-4.49,2A4.45,4.45,0,0,1,324.85,41.73ZM332,37.84c.1,0,.15-.05.15-.14a4.06,4.06,0,0,0-.17-1.3,2.84,2.84,0,0,0-5.28,0,4.06,4.06,0,0,0-.17,1.3.13.13,0,0,0,.14.14Z"/><path d="M349.71,44.59a.23.23,0,0,1-.24-.24V37.63c0-1.85-.84-2.93-2.56-2.93a2.58,2.58,0,0,0-2.64,2.8v6.85a.23.23,0,0,1-.24.24h-1.54a.23.23,0,0,1-.24-.24v-11a.23.23,0,0,1,.24-.24H344a.23.23,0,0,1,.24.24v1.05h0a3.66,3.66,0,0,1,3.22-1.56c2.49,0,4,1.71,4,4.32v7.21a.23.23,0,0,1-.24.24Z"/><path d="M354.51,41.75a8.7,8.7,0,0,1-.38-2.92,8.68,8.68,0,0,1,.38-2.91,4.87,4.87,0,0,1,9.08,0,8.68,8.68,0,0,1,.38,2.91,8.7,8.7,0,0,1-.38,2.92,4.87,4.87,0,0,1-9.08,0Zm7.13-.57a7.59,7.59,0,0,0,.27-2.35,7.36,7.36,0,0,0-.27-2.33,2.76,2.76,0,0,0-5.18,0,7.36,7.36,0,0,0-.27,2.33,7.59,7.59,0,0,0,.27,2.35,2.76,2.76,0,0,0,5.18,0Z"/><path d="M.52,69.73a11.44,11.44,0,0,1,0-5.81A4.46,4.46,0,0,1,5,60.82a4.46,4.46,0,0,1,4.51,3.1,10.08,10.08,0,0,1,.36,3.29.24.24,0,0,1-.27.24H2.34a.13.13,0,0,0-.14.14A4.37,4.37,0,0,0,2.39,69a2.84,2.84,0,0,0,2.9,2,3.78,3.78,0,0,0,3-1.27c.12-.13.24-.15.36,0l1,.88a.22.22,0,0,1,0,.34,5.59,5.59,0,0,1-4.48,2A4.45,4.45,0,0,1,.52,69.73Zm7.15-3.89a.12.12,0,0,0,.14-.14,4.08,4.08,0,0,0-.16-1.3A2.61,2.61,0,0,0,5,62.6a2.59,2.59,0,0,0-2.64,1.8,4.06,4.06,0,0,0-.17,1.3.13.13,0,0,0,.14.14Z"/><path d="M20.1,72.59a.23.23,0,0,1-.24-.24V65.63c0-1.85-.84-2.93-2.57-2.93a2.58,2.58,0,0,0-2.64,2.8v6.85a.23.23,0,0,1-.24.24H12.88a.23.23,0,0,1-.24-.24v-11a.22.22,0,0,1,.24-.24h1.53a.22.22,0,0,1,.24.24v1.05h0a3.64,3.64,0,0,1,3.21-1.56c2.5,0,4,1.71,4,4.32v7.21a.23.23,0,0,1-.24.24Z"/><path d="M28.55,72.71c-2.23,0-3.1-1-3.1-3.27V62.86a.13.13,0,0,0-.14-.14h-1a.23.23,0,0,1-.24-.24V61.33a.22.22,0,0,1,.24-.24h1c.09,0,.14-.05.14-.15V57.7a.23.23,0,0,1,.24-.24h1.54a.23.23,0,0,1,.24.24v3.24c0,.1.05.15.14.15h1.83a.23.23,0,0,1,.24.24v1.15a.23.23,0,0,1-.24.24H27.61a.13.13,0,0,0-.14.14v6.51c0,1.15.43,1.46,1.46,1.46h.51a.23.23,0,0,1,.24.24v1.4a.23.23,0,0,1-.24.24Z"/><path d="M32.56,72.59a.23.23,0,0,1-.24-.24v-11a.22.22,0,0,1,.24-.24h1.53a.22.22,0,0,1,.24.24V62.5h0a3.2,3.2,0,0,1,3-1.68,3.54,3.54,0,0,1,2.36.87c.12.12.14.21.05.33l-.89,1.18a.23.23,0,0,1-.34,0,3.19,3.19,0,0,0-1.77-.55c-1.76,0-2.48,1.36-2.48,3.36v6.29a.23.23,0,0,1-.24.24Z"/><path d="M48.06,72.59a.23.23,0,0,1-.24-.24v-1h0a3.79,3.79,0,0,1-3.41,1.51c-2.18,0-3.87-1.13-3.87-3.46s1.69-3.55,4.49-3.55h2.62a.12.12,0,0,0,.14-.14v-.84c0-1.59-.62-2.26-2.76-2.26a4.46,4.46,0,0,0-2.78.82.22.22,0,0,1-.34,0l-.65-1.1a.27.27,0,0,1,0-.34,6.42,6.42,0,0,1,3.92-1.13c3.26,0,4.51,1.08,4.51,3.92v7.61a.23.23,0,0,1-.24.24Zm-.29-3.72V67.59a.12.12,0,0,0-.14-.14H45.32c-2,0-2.85.58-2.85,1.87s.86,1.8,2.4,1.8C46.67,71.12,47.77,70.28,47.77,68.87Z"/><path d="M53.32,72.59a.23.23,0,0,1-.24-.24v-11a.22.22,0,0,1,.24-.24h1.53a.22.22,0,0,1,.24.24V62.5h0a3.2,3.2,0,0,1,3.05-1.68,3.53,3.53,0,0,1,2.35.87c.12.12.14.21,0,.33l-.89,1.18a.23.23,0,0,1-.34,0,3.2,3.2,0,0,0-1.78-.55c-1.75,0-2.47,1.36-2.47,3.36v6.29a.23.23,0,0,1-.24.24Z"/><path d="M67.4,69.73a9,9,0,0,1-.38-2.9,8.93,8.93,0,0,1,.36-2.91,4.83,4.83,0,0,1,9,0,9.73,9.73,0,0,1,.37,3.29.24.24,0,0,1-.27.24H69.23c-.1,0-.15,0-.15.14a4.33,4.33,0,0,0,.2,1.4,2.83,2.83,0,0,0,2.9,2,3.74,3.74,0,0,0,2.95-1.27c.12-.13.24-.15.36,0l1,.88a.22.22,0,0,1,0,.34,5.59,5.59,0,0,1-4.49,2A4.46,4.46,0,0,1,67.4,69.73Zm7.16-3.89a.13.13,0,0,0,.14-.14,4.06,4.06,0,0,0-.17-1.3,2.84,2.84,0,0,0-5.28,0,4.06,4.06,0,0,0-.17,1.3c0,.09,0,.14.15.14Z"/><path d="M87,72.59a.23.23,0,0,1-.24-.24V65.63c0-1.85-.84-2.93-2.57-2.93a2.58,2.58,0,0,0-2.64,2.8v6.85a.23.23,0,0,1-.24.24H79.76a.23.23,0,0,1-.24-.24v-11a.23.23,0,0,1,.24-.24H81.3a.23.23,0,0,1,.24.24v1.05h0a3.67,3.67,0,0,1,3.22-1.56c2.5,0,4,1.71,4,4.32v7.21a.23.23,0,0,1-.24.24Z"/><path d="M97,63.92a4.46,4.46,0,0,1,4.54-3.1,4.62,4.62,0,0,1,3.94,2c.07.12.07.21-.08.33l-1,.87a.22.22,0,0,1-.34,0,2.82,2.82,0,0,0-2.47-1.24A2.5,2.5,0,0,0,99,64.5a10.66,10.66,0,0,0,0,4.68,2.5,2.5,0,0,0,2.57,1.8,2.82,2.82,0,0,0,2.47-1.25.22.22,0,0,1,.34,0l1,.86c.15.12.15.22.08.34a4.62,4.62,0,0,1-3.94,1.94A4.45,4.45,0,0,1,97,69.75a12,12,0,0,1,0-5.83Z"/><path d="M107.63,69.75a8.42,8.42,0,0,1-.39-2.92,8.4,8.4,0,0,1,.39-2.91,4.87,4.87,0,0,1,9.07,0,8.43,8.43,0,0,1,.38,2.91,8.45,8.45,0,0,1-.38,2.92,4.87,4.87,0,0,1-9.07,0Zm7.13-.57a7.64,7.64,0,0,0,.26-2.35,7.41,7.41,0,0,0-.26-2.33,2.77,2.77,0,0,0-5.19,0,7.41,7.41,0,0,0-.26,2.33,7.64,7.64,0,0,0,.26,2.35,2.77,2.77,0,0,0,5.19,0Z"/><path d="M127.31,72.59a.23.23,0,0,1-.24-.24V65.63c0-1.85-.84-2.93-2.57-2.93a2.58,2.58,0,0,0-2.64,2.8v6.85a.23.23,0,0,1-.24.24h-1.54a.23.23,0,0,1-.24-.24v-11a.23.23,0,0,1,.24-.24h1.54a.23.23,0,0,1,.24.24v1.05h0a3.67,3.67,0,0,1,3.22-1.56c2.5,0,4,1.71,4,4.32v7.21a.23.23,0,0,1-.24.24Z"/><path d="M135.76,72.71c-2.24,0-3.1-1-3.1-3.27V62.86c0-.09,0-.14-.15-.14h-.95a.23.23,0,0,1-.25-.24V61.33a.23.23,0,0,1,.25-.24h.95a.13.13,0,0,0,.15-.15V57.7a.23.23,0,0,1,.24-.24h1.54a.23.23,0,0,1,.24.24v3.24c0,.1,0,.15.14.15h1.82a.22.22,0,0,1,.24.24v1.15a.23.23,0,0,1-.24.24h-1.82a.12.12,0,0,0-.14.14v6.51c0,1.15.43,1.46,1.46,1.46h.5a.23.23,0,0,1,.24.24v1.4a.23.23,0,0,1-.24.24Z"/><path d="M146.48,72.59a.23.23,0,0,1-.24-.24v-1h0a3.79,3.79,0,0,1-3.41,1.51c-2.18,0-3.86-1.13-3.86-3.46s1.68-3.55,4.49-3.55h2.61c.1,0,.15,0,.15-.14v-.84c0-1.59-.63-2.26-2.76-2.26a4.48,4.48,0,0,0-2.79.82.22.22,0,0,1-.34,0l-.64-1.1a.25.25,0,0,1,.05-.34,6.36,6.36,0,0,1,3.91-1.13c3.26,0,4.51,1.08,4.51,3.92v7.61a.23.23,0,0,1-.24.24Zm-.28-3.72V67.59c0-.09,0-.14-.15-.14h-2.3c-2,0-2.86.58-2.86,1.87s.86,1.8,2.4,1.8C145.09,71.12,146.2,70.28,146.2,68.87Z"/><path d="M151.16,63.92a4.46,4.46,0,0,1,4.54-3.1,4.62,4.62,0,0,1,3.94,2c.07.12.07.21-.08.33l-1.05.87a.22.22,0,0,1-.34,0,2.82,2.82,0,0,0-2.47-1.24,2.5,2.5,0,0,0-2.57,1.8,10.66,10.66,0,0,0,0,4.68A2.5,2.5,0,0,0,155.7,71a2.82,2.82,0,0,0,2.47-1.25.22.22,0,0,1,.34,0l1.05.86c.15.12.15.22.08.34a4.62,4.62,0,0,1-3.94,1.94,4.45,4.45,0,0,1-4.54-3.1,12,12,0,0,1,0-5.83Z"/><path d="M165.68,72.71c-2.23,0-3.09-1-3.09-3.27V62.86c0-.09-.05-.14-.15-.14h-1a.23.23,0,0,1-.24-.24V61.33a.23.23,0,0,1,.24-.24h1a.13.13,0,0,0,.15-.15V57.7a.23.23,0,0,1,.24-.24h1.53a.23.23,0,0,1,.24.24v3.24a.13.13,0,0,0,.15.15h1.82a.22.22,0,0,1,.24.24v1.15a.23.23,0,0,1-.24.24h-1.82c-.1,0-.15.05-.15.14v6.51c0,1.15.44,1.46,1.47,1.46h.5a.23.23,0,0,1,.24.24v1.4a.23.23,0,0,1-.24.24Z"/><path d="M169.14,69.75a11.09,11.09,0,0,1,0-5.83,4.87,4.87,0,0,1,9.07,0,8.4,8.4,0,0,1,.39,2.91,8.42,8.42,0,0,1-.39,2.92,4.87,4.87,0,0,1-9.07,0Zm7.13-.57a7.64,7.64,0,0,0,.26-2.35,7.41,7.41,0,0,0-.26-2.33,2.77,2.77,0,0,0-5.19,0,7.41,7.41,0,0,0-.26,2.33,7.64,7.64,0,0,0,.26,2.35,2.77,2.77,0,0,0,5.19,0Z"/><path d="M186.3,63.92a4.46,4.46,0,0,1,4.53-3.1,4.61,4.61,0,0,1,3.94,2c.07.12.07.21-.07.33l-1.06.87a.21.21,0,0,1-.33,0,2.82,2.82,0,0,0-2.48-1.24,2.49,2.49,0,0,0-2.56,1.8,10.27,10.27,0,0,0,0,4.68,2.49,2.49,0,0,0,2.56,1.8,2.83,2.83,0,0,0,2.48-1.25.21.21,0,0,1,.33,0l1.06.86a.23.23,0,0,1,.07.34,4.6,4.6,0,0,1-3.94,1.94,4.45,4.45,0,0,1-4.53-3.1,12,12,0,0,1,0-5.83Z"/><path d="M196.88,69.75a8.7,8.7,0,0,1-.38-2.92,8.68,8.68,0,0,1,.38-2.91,4.87,4.87,0,0,1,9.08,0,8.68,8.68,0,0,1,.38,2.91,8.7,8.7,0,0,1-.38,2.92,4.87,4.87,0,0,1-9.08,0Zm7.13-.57a7.64,7.64,0,0,0,.26-2.35A7.41,7.41,0,0,0,204,64.5a2.76,2.76,0,0,0-5.18,0,7.08,7.08,0,0,0-.27,2.33,7.29,7.29,0,0,0,.27,2.35,2.76,2.76,0,0,0,5.18,0Z"/><path d="M216.56,72.59a.23.23,0,0,1-.24-.24V65.63c0-1.85-.84-2.93-2.57-2.93a2.58,2.58,0,0,0-2.64,2.8v6.85a.23.23,0,0,1-.24.24h-1.53a.23.23,0,0,1-.24-.24v-11a.22.22,0,0,1,.24-.24h1.53a.22.22,0,0,1,.24.24v1.05h0a3.64,3.64,0,0,1,3.21-1.56c2.5,0,4,1.71,4,4.32v7.21a.23.23,0,0,1-.24.24Z"/><path d="M226.64,69.73a9,9,0,0,1-.38-2.9,8.93,8.93,0,0,1,.36-2.91,4.83,4.83,0,0,1,9,0,10.08,10.08,0,0,1,.36,3.29.23.23,0,0,1-.26.24h-7.27c-.1,0-.15,0-.15.14a4.37,4.37,0,0,0,.19,1.4,2.84,2.84,0,0,0,2.91,2,3.74,3.74,0,0,0,3-1.27c.12-.13.24-.15.36,0l1,.88a.22.22,0,0,1,0,.34,5.59,5.59,0,0,1-4.49,2A4.45,4.45,0,0,1,226.64,69.73Zm7.15-3.89c.1,0,.15,0,.15-.14a4.06,4.06,0,0,0-.17-1.3,2.84,2.84,0,0,0-5.28,0,4.06,4.06,0,0,0-.17,1.3c0,.09.05.14.15.14Z"/><path d="M241.52,72.71c-2,0-2.81-1-2.81-3V56.5a.23.23,0,0,1,.24-.24h1.54a.23.23,0,0,1,.24.24V69.56c0,1,.36,1.27,1.15,1.27h.46a.23.23,0,0,1,.24.24v1.4a.23.23,0,0,1-.24.24Z"/><path d="M247.64,72.71c-2,0-2.81-1-2.81-3V56.5a.23.23,0,0,1,.24-.24h1.54a.23.23,0,0,1,.24.24V69.56c0,1,.36,1.27,1.15,1.27h.46a.23.23,0,0,1,.24.24v1.4a.23.23,0,0,1-.24.24Z"/><path d="M250.74,69.75a8.42,8.42,0,0,1-.39-2.92,8.4,8.4,0,0,1,.39-2.91,4.87,4.87,0,0,1,9.07,0,8.68,8.68,0,0,1,.38,2.91,8.7,8.7,0,0,1-.38,2.92,4.87,4.87,0,0,1-9.07,0Zm7.13-.57a7.64,7.64,0,0,0,.26-2.35,7.41,7.41,0,0,0-.26-2.33,2.77,2.77,0,0,0-5.19,0,7.41,7.41,0,0,0-.26,2.33,7.64,7.64,0,0,0,.26,2.35,2.77,2.77,0,0,0,5.19,0Z"/><path d="M262.16,71.12a.22.22,0,0,1,0-.33l1-1.06a.22.22,0,0,1,.33,0A5.62,5.62,0,0,0,267,71.05c1.68,0,2.52-.72,2.52-1.75s-.43-1.42-2.23-1.61l-1.22-.12c-2.26-.24-3.44-1.37-3.44-3.24,0-2.19,1.57-3.51,4.28-3.51A6.88,6.88,0,0,1,271,62.1a.23.23,0,0,1,.05.33l-.82,1a.24.24,0,0,1-.34,0,6,6,0,0,0-3.09-.93c-1.44,0-2.19.64-2.19,1.58s.56,1.39,2.26,1.56l1.2.12c2.33.22,3.46,1.39,3.46,3.24,0,2.26-1.64,3.77-4.64,3.77A7.13,7.13,0,0,1,262.16,71.12Z"/><path d="M273.94,70.28a.23.23,0,0,1,.25-.24H276a.23.23,0,0,1,.24.24v2.07a.23.23,0,0,1-.24.24h-1.82a.23.23,0,0,1-.25-.24Z"/></g></g></svg>