<svg xmlns="http://www.w3.org/2000/svg" viewBox="0 0 627.13 47.16"><title>5b</title><g id="Capa_2" data-name="Capa 2"><g id="respuestas_contorno" data-name="respuestas contorno"><path d="M.08,13.58a.24.24,0,0,1,0-.33L1,12.1a.2.2,0,0,1,.31,0,6.91,6.91,0,0,0,4.18,1.54c2.07,0,3.3-1,3.3-2.55,0-1.28-.72-2.14-3.12-2.44l-.75-.11C2,8.12.54,6.73.54,4.38.54,1.72,2.45,0,5.42,0A7.89,7.89,0,0,1,10,1.39a.19.19,0,0,1,0,.3L9.27,2.9A.21.21,0,0,1,9,3,6.62,6.62,0,0,0,5.36,1.83c-1.83,0-2.84,1-2.84,2.42,0,1.25.84,2.09,3.15,2.39l.72.11c2.93.4,4.4,1.74,4.4,4.19,0,2.61-1.85,4.51-5.45,4.51A8.22,8.22,0,0,1,.08,13.58Z"/><path d="M12.62,2.29a.21.21,0,0,1-.22-.22V.46a.21.21,0,0,1,.22-.22h1.49a.2.2,0,0,1,.22.22V2.07a.2.2,0,0,1-.22.22Zm0,12.91a.2.2,0,0,1-.22-.22V4.88a.21.21,0,0,1,.22-.22h1.41a.21.21,0,0,1,.22.22V15a.2.2,0,0,1-.22.22Z"/><path d="M20.76,15.2a.2.2,0,0,1-.22-.22V4.88a.2.2,0,0,1,.22-.22h1.41a.21.21,0,0,1,.22.22V6h0A2.93,2.93,0,0,1,25.2,4.42a3.26,3.26,0,0,1,2.16.79c.11.11.13.2,0,.31L26.59,6.6a.2.2,0,0,1-.31,0,3,3,0,0,0-1.63-.5c-1.6,0-2.26,1.25-2.26,3.08V15a.2.2,0,0,1-.22.22Z"/><path d="M27.55,12.59a8.66,8.66,0,0,1-.35-2.67,8.17,8.17,0,0,1,.33-2.66,4.08,4.08,0,0,1,4.14-2.84,4.1,4.1,0,0,1,4.14,2.84,9.21,9.21,0,0,1,.33,3,.22.22,0,0,1-.25.22H29.23c-.09,0-.13,0-.13.13a3.93,3.93,0,0,0,.17,1.27,2.61,2.61,0,0,0,2.66,1.83,3.44,3.44,0,0,0,2.71-1.17.22.22,0,0,1,.33,0l.9.81a.2.2,0,0,1,0,.31,5.1,5.1,0,0,1-4.11,1.81A4.1,4.1,0,0,1,27.55,12.59ZM34.11,9c.09,0,.13,0,.13-.13a3.75,3.75,0,0,0-.15-1.19,2.37,2.37,0,0,0-2.42-1.65A2.37,2.37,0,0,0,29.25,7.7a3.75,3.75,0,0,0-.15,1.19c0,.09,0,.13.13.13Z"/><path d="M44.17,15.2a.21.21,0,0,1-.23-.22v-.92h0a3.46,3.46,0,0,1-3.12,1.39c-2,0-3.54-1-3.54-3.17S38.8,9,41.37,9h2.4c.09,0,.13,0,.13-.13V8.12c0-1.45-.57-2.07-2.53-2.07a4.09,4.09,0,0,0-2.55.75.2.2,0,0,1-.31,0l-.59-1a.22.22,0,0,1,0-.3,5.81,5.81,0,0,1,3.59-1c3,0,4.13,1,4.13,3.59v7a.2.2,0,0,1-.22.22Zm-.27-3.41V10.63c0-.09,0-.13-.13-.13H41.66C39.83,10.5,39,11,39,12.21s.79,1.65,2.2,1.65C42.89,13.86,43.9,13.09,43.9,11.79Z"/><path d="M50.41,15.31c-1.85,0-2.57-.88-2.57-2.77V.46a.21.21,0,0,1,.22-.22h1.41a.21.21,0,0,1,.22.22v12c0,.88.33,1.17,1.05,1.17h.42a.21.21,0,0,1,.22.22v1.27a.2.2,0,0,1-.22.22Z"/><path d="M52.83,2.29a.21.21,0,0,1-.22-.22V.46a.21.21,0,0,1,.22-.22h1.5a.21.21,0,0,1,.22.22V2.07a.21.21,0,0,1-.22.22Zm.05,12.91a.2.2,0,0,1-.22-.22V4.88a.2.2,0,0,1,.22-.22h1.4a.2.2,0,0,1,.22.22V15a.2.2,0,0,1-.22.22Z"/><path d="M56.42,15.2A.2.2,0,0,1,56.2,15V13.82a.3.3,0,0,1,.09-.24l5.78-7.2v0H56.7a.21.21,0,0,1-.22-.22V4.88a.21.21,0,0,1,.22-.22h7.35a.2.2,0,0,1,.22.22V6.12a.35.35,0,0,1-.08.24l-5.75,7.13v0h5.61a.2.2,0,0,1,.22.22V15a.2.2,0,0,1-.22.22Z"/><path d="M72.35,15.2a.2.2,0,0,1-.22-.22v-.92h0A3.44,3.44,0,0,1,69,15.45c-2,0-3.54-1-3.54-3.17S67,9,69.55,9H72c.09,0,.13,0,.13-.13V8.12c0-1.45-.57-2.07-2.53-2.07A4.09,4.09,0,0,0,67,6.8a.2.2,0,0,1-.31,0l-.59-1a.22.22,0,0,1,0-.3,5.83,5.83,0,0,1,3.59-1c3,0,4.13,1,4.13,3.59v7a.2.2,0,0,1-.22.22Zm-.27-3.41V10.63c0-.09,0-.13-.13-.13H69.84c-1.83,0-2.62.52-2.62,1.71s.79,1.65,2.2,1.65C71.07,13.86,72.08,13.09,72.08,11.79Z"/><path d="M86.4,15.2a.2.2,0,0,1-.22-.22v-.92h0A3.46,3.46,0,0,1,83,15.45c-2,0-3.54-1-3.54-3.17S81,9,83.61,9H86c.09,0,.13,0,.13-.13V8.12c0-1.45-.57-2.07-2.53-2.07a4.07,4.07,0,0,0-2.55.75c-.11.09-.25.09-.31,0l-.59-1a.22.22,0,0,1,0-.3,5.81,5.81,0,0,1,3.59-1c3,0,4.13,1,4.13,3.59v7a.2.2,0,0,1-.22.22Zm-.26-3.41V10.63c0-.09,0-.13-.13-.13H83.9c-1.83,0-2.62.52-2.62,1.71s.79,1.65,2.2,1.65C85.13,13.86,86.14,13.09,86.14,11.79Z"/><path d="M89.81,7.26A4.09,4.09,0,0,1,94,4.42,4.22,4.22,0,0,1,97.58,6.2c.07.11.07.2-.07.31l-1,.79a.2.2,0,0,1-.31,0A2.59,2.59,0,0,0,94,6.14a2.28,2.28,0,0,0-2.35,1.65,6.89,6.89,0,0,0-.24,2.13,7,7,0,0,0,.24,2.16A2.28,2.28,0,0,0,94,13.73a2.59,2.59,0,0,0,2.27-1.14.21.21,0,0,1,.31,0l1,.8c.14.11.14.19.07.3A4.23,4.23,0,0,1,94,15.45a4.1,4.1,0,0,1-4.16-2.84,9.08,9.08,0,0,1-.33-2.69A9,9,0,0,1,89.81,7.26Z"/><path d="M102.24,15.31c-2,0-2.84-.92-2.84-3v-6c0-.09,0-.13-.13-.13h-.88a.21.21,0,0,1-.22-.22V4.88a.21.21,0,0,1,.22-.22h.88c.09,0,.13,0,.13-.13v-3a.21.21,0,0,1,.22-.22H101a.2.2,0,0,1,.22.22v3a.12.12,0,0,0,.13.13h1.68a.21.21,0,0,1,.22.22V5.94a.21.21,0,0,1-.22.22h-1.68a.12.12,0,0,0-.13.13v6c0,1.05.4,1.34,1.35,1.34h.46a.21.21,0,0,1,.22.22v1.27a.2.2,0,0,1-.22.22Z"/><path d="M105,2.29a.21.21,0,0,1-.22-.22V.46A.21.21,0,0,1,105,.24h1.5a.21.21,0,0,1,.22.22V2.07a.21.21,0,0,1-.22.22ZM105,15.2a.2.2,0,0,1-.22-.22V4.88a.2.2,0,0,1,.22-.22h1.4a.2.2,0,0,1,.22.22V15a.2.2,0,0,1-.22.22Z"/><path d="M111.77,15.2c-.16,0-.22-.08-.27-.22l-3.78-10.1c0-.13,0-.22.18-.22h1.51c.16,0,.22.07.29.22l2.73,7.57h0l2.67-7.57a.26.26,0,0,1,.26-.22h1.5c.15,0,.21.09.17.22L113.31,15a.27.27,0,0,1-.29.22Z"/><path d="M118.3,2.29a.21.21,0,0,1-.22-.22V.46a.21.21,0,0,1,.22-.22h1.5a.21.21,0,0,1,.22.22V2.07a.21.21,0,0,1-.22.22Zm0,12.91a.2.2,0,0,1-.22-.22V4.88a.2.2,0,0,1,.22-.22h1.4a.2.2,0,0,1,.22.22V15a.2.2,0,0,1-.22.22Z"/><path d="M128.86,15.2a.2.2,0,0,1-.22-.22V14h0a3.21,3.21,0,0,1-3,1.48A3.48,3.48,0,0,1,122,12.92a8.72,8.72,0,0,1-.38-3A8.64,8.64,0,0,1,122,7a3.48,3.48,0,0,1,3.63-2.53,3.21,3.21,0,0,1,3,1.45h0V.46a.21.21,0,0,1,.22-.22h1.41a.21.21,0,0,1,.22.22V15a.2.2,0,0,1-.22.22Zm-.46-3.08a6.63,6.63,0,0,0,.24-2.2,6.79,6.79,0,0,0-.24-2.2,2.49,2.49,0,0,0-4.64,0,7.39,7.39,0,0,0-.24,2.2,7.18,7.18,0,0,0,.24,2.2,2.48,2.48,0,0,0,4.64,0Z"/><path d="M139.16,15.2a.2.2,0,0,1-.22-.22v-.92h0a3.47,3.47,0,0,1-3.13,1.39c-2,0-3.54-1-3.54-3.17S133.79,9,136.36,9h2.4c.09,0,.13,0,.13-.13V8.12c0-1.45-.57-2.07-2.53-2.07a4.12,4.12,0,0,0-2.55.75.2.2,0,0,1-.31,0l-.59-1a.22.22,0,0,1,0-.3,5.85,5.85,0,0,1,3.59-1c3,0,4.14,1,4.14,3.59v7a.2.2,0,0,1-.22.22Zm-.27-3.41V10.63c0-.09,0-.13-.13-.13h-2.11c-1.83,0-2.62.52-2.62,1.71s.79,1.65,2.2,1.65C137.88,13.86,138.89,13.09,138.89,11.79Z"/><path d="M149.48,15.2a.2.2,0,0,1-.22-.22V14h0a3.19,3.19,0,0,1-3,1.48,3.49,3.49,0,0,1-3.63-2.53,9,9,0,0,1-.37-3,8.92,8.92,0,0,1,.37-3,3.49,3.49,0,0,1,3.63-2.53,3.19,3.19,0,0,1,3,1.45h0V.46a.2.2,0,0,1,.22-.22h1.4a.2.2,0,0,1,.22.22V15a.2.2,0,0,1-.22.22ZM149,12.12a6.58,6.58,0,0,0,.25-2.2,6.73,6.73,0,0,0-.25-2.2,2.49,2.49,0,0,0-4.64,0,7.39,7.39,0,0,0-.24,2.2,7.18,7.18,0,0,0,.24,2.2,2.48,2.48,0,0,0,4.64,0Z"/><path d="M153.1,12.59a8.66,8.66,0,0,1-.35-2.67,8.17,8.17,0,0,1,.33-2.66,4.44,4.44,0,0,1,8.28,0,9.21,9.21,0,0,1,.33,3,.22.22,0,0,1-.25.22h-6.66c-.09,0-.13,0-.13.13a3.93,3.93,0,0,0,.17,1.27,2.61,2.61,0,0,0,2.66,1.83,3.44,3.44,0,0,0,2.71-1.17.22.22,0,0,1,.33,0l.9.81a.2.2,0,0,1,0,.31,5.1,5.1,0,0,1-4.11,1.81A4.09,4.09,0,0,1,153.1,12.59ZM159.66,9c.09,0,.13,0,.13-.13a3.75,3.75,0,0,0-.15-1.19,2.6,2.6,0,0,0-4.84,0,3.75,3.75,0,0,0-.15,1.19c0,.09,0,.13.13.13Z"/><path d="M162.61,13.86a.21.21,0,0,1,0-.31l.9-1a.21.21,0,0,1,.31,0,5.13,5.13,0,0,0,3.26,1.21c1.53,0,2.31-.66,2.31-1.61s-.4-1.3-2-1.47l-1.12-.11c-2.07-.22-3.15-1.26-3.15-3,0-2,1.43-3.21,3.92-3.21a6.3,6.3,0,0,1,3.74,1.17.21.21,0,0,1,0,.31l-.75.94a.21.21,0,0,1-.3,0A5.61,5.61,0,0,0,166.88,6c-1.32,0-2,.59-2,1.45s.51,1.28,2.07,1.43L168,9c2.14.2,3.17,1.28,3.17,3,0,2.07-1.49,3.46-4.25,3.46A6.54,6.54,0,0,1,162.61,13.86Z"/><path d="M183.35,15.2a.2.2,0,0,1-.21-.22V14h0a3.2,3.2,0,0,1-3,1.48,3.48,3.48,0,0,1-3.63-2.53,8.75,8.75,0,0,1-.37-3,8.67,8.67,0,0,1,.37-3,3.48,3.48,0,0,1,3.63-2.53,3.2,3.2,0,0,1,3,1.45h0V.46a.2.2,0,0,1,.21-.22h1.41a.2.2,0,0,1,.22.22V15a.2.2,0,0,1-.22.22Zm-.46-3.08a6.58,6.58,0,0,0,.25-2.2,6.73,6.73,0,0,0-.25-2.2,2.49,2.49,0,0,0-4.64,0,7.39,7.39,0,0,0-.24,2.2,7.18,7.18,0,0,0,.24,2.2,2.48,2.48,0,0,0,4.64,0Z"/><path d="M187,12.59a8.36,8.36,0,0,1-.35-2.67A8.17,8.17,0,0,1,187,7.26a4.44,4.44,0,0,1,8.28,0,9.5,9.5,0,0,1,.33,3,.22.22,0,0,1-.25.22h-6.66c-.09,0-.14,0-.14.13a3.9,3.9,0,0,0,.18,1.27,2.6,2.6,0,0,0,2.66,1.83,3.44,3.44,0,0,0,2.71-1.17.22.22,0,0,1,.33,0l.9.81a.2.2,0,0,1,0,.31,5.1,5.1,0,0,1-4.11,1.81A4.09,4.09,0,0,1,187,12.59ZM193.54,9c.09,0,.13,0,.13-.13a3.75,3.75,0,0,0-.15-1.19,2.6,2.6,0,0,0-4.84,0,3.72,3.72,0,0,0-.16,1.19c0,.09,0,.13.14.13Z"/><path d="M207.55,15.2a.2.2,0,0,1-.21-.22v-.92h0a3.46,3.46,0,0,1-3.12,1.39c-2,0-3.54-1-3.54-3.17S202.19,9,204.76,9h2.4c.09,0,.13,0,.13-.13V8.12c0-1.45-.57-2.07-2.53-2.07a4.07,4.07,0,0,0-2.55.75.2.2,0,0,1-.31,0l-.59-1a.22.22,0,0,1,0-.3,5.81,5.81,0,0,1,3.59-1c3,0,4.13,1,4.13,3.59v7a.2.2,0,0,1-.22.22Zm-.26-3.41V10.63c0-.09,0-.13-.13-.13h-2.11c-1.83,0-2.62.52-2.62,1.71s.79,1.65,2.2,1.65C206.28,13.86,207.29,13.09,207.29,11.79Z"/><path d="M213.8,15.31c-1.85,0-2.57-.88-2.57-2.77V.46a.21.21,0,0,1,.22-.22h1.41a.21.21,0,0,1,.22.22v12c0,.88.33,1.17,1,1.17h.42a.21.21,0,0,1,.22.22v1.27a.2.2,0,0,1-.22.22Z"/><path d="M219,15.31c-2,0-2.83-.92-2.83-3v-6c0-.09,0-.13-.14-.13h-.88a.21.21,0,0,1-.22-.22V4.88a.21.21,0,0,1,.22-.22H216c.09,0,.14,0,.14-.13v-3a.2.2,0,0,1,.22-.22h1.4a.2.2,0,0,1,.22.22v3c0,.09.05.13.14.13h1.67a.21.21,0,0,1,.22.22V5.94a.21.21,0,0,1-.22.22h-1.67c-.09,0-.14,0-.14.13v6c0,1.05.4,1.34,1.35,1.34h.46a.21.21,0,0,1,.22.22v1.27a.2.2,0,0,1-.22.22Z"/><path d="M228.19,15.2A.2.2,0,0,1,228,15V14h0a3.22,3.22,0,0,1-2.88,1.46c-2.31,0-3.66-1.59-3.66-4V4.88a.21.21,0,0,1,.22-.22H223a.21.21,0,0,1,.22.22V11c0,1.72.77,2.71,2.34,2.71a2.34,2.34,0,0,0,2.37-2.6V4.88a.21.21,0,0,1,.22-.22h1.41a.21.21,0,0,1,.22.22V15a.2.2,0,0,1-.22.22Z"/><path d="M232.33,15.2a.21.21,0,0,1-.23-.22V4.88a.21.21,0,0,1,.23-.22h1.4a.2.2,0,0,1,.22.22V6h0a2.93,2.93,0,0,1,2.79-1.54,3.26,3.26,0,0,1,2.16.79c.11.11.13.2,0,.31l-.81,1.08a.2.2,0,0,1-.31,0,3,3,0,0,0-1.63-.5c-1.61,0-2.27,1.25-2.27,3.08V15a.2.2,0,0,1-.22.22Z"/><path d="M245.66,15.2a.2.2,0,0,1-.22-.22v-.92h0a3.47,3.47,0,0,1-3.13,1.39c-2,0-3.54-1-3.54-3.17S240.29,9,242.86,9h2.4c.09,0,.13,0,.13-.13V8.12c0-1.45-.57-2.07-2.53-2.07a4.12,4.12,0,0,0-2.55.75.2.2,0,0,1-.31,0l-.59-1a.22.22,0,0,1,0-.3,5.85,5.85,0,0,1,3.59-1c3,0,4.14,1,4.14,3.59v7a.2.2,0,0,1-.22.22Zm-.27-3.41V10.63c0-.09,0-.13-.13-.13h-2.11c-1.83,0-2.62.52-2.62,1.71s.79,1.65,2.2,1.65C244.38,13.86,245.39,13.09,245.39,11.79Z"/><path d="M253,7.26a4.07,4.07,0,0,1,4.16-2.84,4.22,4.22,0,0,1,3.6,1.78c.07.11.07.2-.06.31l-1,.79a.2.2,0,0,1-.31,0,2.58,2.58,0,0,0-2.26-1.14,2.29,2.29,0,0,0-2.36,1.65,7.21,7.21,0,0,0-.24,2.13,7.3,7.3,0,0,0,.24,2.16,2.29,2.29,0,0,0,2.36,1.65,2.58,2.58,0,0,0,2.26-1.14.21.21,0,0,1,.31,0l1,.8c.13.11.13.19.06.3a4.22,4.22,0,0,1-3.6,1.79A4.09,4.09,0,0,1,253,12.61a9.08,9.08,0,0,1-.33-2.69A9,9,0,0,1,253,7.26Z"/><path d="M261.85,12.61a8,8,0,0,1-.35-2.69,7.92,7.92,0,0,1,.35-2.66,4.47,4.47,0,0,1,8.32,0,7.92,7.92,0,0,1,.35,2.66,8,8,0,0,1-.35,2.69,4.47,4.47,0,0,1-8.32,0Zm6.53-.53a6.73,6.73,0,0,0,.25-2.16,6.57,6.57,0,0,0-.25-2.13,2.53,2.53,0,0,0-4.75,0,6.91,6.91,0,0,0-.24,2.13,7.09,7.09,0,0,0,.24,2.16,2.53,2.53,0,0,0,4.75,0Z"/><path d="M279,15.2a.2.2,0,0,1-.22-.22V8.82c0-1.69-.77-2.68-2.35-2.68A2.36,2.36,0,0,0,274,8.71V15a.21.21,0,0,1-.23.22h-1.4a.2.2,0,0,1-.22-.22V4.88a.2.2,0,0,1,.22-.22h1.4a.21.21,0,0,1,.23.22v1h0A3.34,3.34,0,0,1,277,4.42c2.28,0,3.65,1.56,3.65,4V15a.2.2,0,0,1-.22.22Z"/><path d="M297.58,15.2a.2.2,0,0,1-.22-.22V8.82c0-1.69-.77-2.68-2.36-2.68a2.36,2.36,0,0,0-2.42,2.57V15a.2.2,0,0,1-.22.22H291a.2.2,0,0,1-.22-.22V.46A.21.21,0,0,1,291,.24h1.41a.21.21,0,0,1,.22.22V5.85h0a3.35,3.35,0,0,1,2.95-1.43c2.29,0,3.65,1.56,3.65,4V15a.2.2,0,0,1-.21.22Z"/><path d="M301.1,12.59a8.32,8.32,0,0,1-.36-2.67,8.17,8.17,0,0,1,.33-2.66,4.44,4.44,0,0,1,8.28,0,9.21,9.21,0,0,1,.33,3,.22.22,0,0,1-.24.22h-6.67c-.09,0-.13,0-.13.13a3.93,3.93,0,0,0,.17,1.27,2.61,2.61,0,0,0,2.66,1.83,3.44,3.44,0,0,0,2.71-1.17.22.22,0,0,1,.33,0l.9.81a.21.21,0,0,1,0,.31,5.13,5.13,0,0,1-4.12,1.81A4.08,4.08,0,0,1,301.1,12.59ZM307.65,9c.09,0,.13,0,.13-.13a3.75,3.75,0,0,0-.15-1.19,2.6,2.6,0,0,0-4.84,0,3.75,3.75,0,0,0-.15,1.19c0,.09,0,.13.13.13Z"/><path d="M311.55,15.2a.2.2,0,0,1-.22-.22V4.88a.2.2,0,0,1,.22-.22H313a.2.2,0,0,1,.22.22V6h0A2.93,2.93,0,0,1,316,4.42a3.26,3.26,0,0,1,2.16.79c.11.11.13.2,0,.31l-.81,1.08a.2.2,0,0,1-.31,0,3,3,0,0,0-1.63-.5c-1.61,0-2.27,1.25-2.27,3.08V15a.2.2,0,0,1-.22.22Z"/><path d="M319.25,15.2A.21.21,0,0,1,319,15V4.88a.21.21,0,0,1,.23-.22h1.4a.21.21,0,0,1,.22.22V6h0a2.93,2.93,0,0,1,2.79-1.54,3.26,3.26,0,0,1,2.16.79c.11.11.13.2,0,.31l-.81,1.08a.2.2,0,0,1-.31,0,3,3,0,0,0-1.63-.5c-1.61,0-2.27,1.25-2.27,3.08V15a.2.2,0,0,1-.22.22Z"/><path d="M332.58,15.2a.2.2,0,0,1-.22-.22v-.92h0a3.47,3.47,0,0,1-3.13,1.39c-2,0-3.54-1-3.54-3.17S327.21,9,329.78,9h2.4c.09,0,.13,0,.13-.13V8.12c0-1.45-.57-2.07-2.53-2.07a4.12,4.12,0,0,0-2.55.75.2.2,0,0,1-.31,0l-.59-1a.22.22,0,0,1,0-.3,5.85,5.85,0,0,1,3.59-1c3,0,4.14,1,4.14,3.59v7a.2.2,0,0,1-.22.22Zm-.27-3.41V10.63c0-.09,0-.13-.13-.13h-2.11c-1.83,0-2.62.52-2.62,1.71s.79,1.65,2.2,1.65C331.3,13.86,332.31,13.09,332.31,11.79Z"/><path d="M349.76,15.2a.2.2,0,0,1-.22-.22V8.82c0-1.69-.77-2.68-2.35-2.68a2.37,2.37,0,0,0-2.42,2.57V15a.2.2,0,0,1-.22.22h-1.41a.2.2,0,0,1-.22-.22V8.82c0-1.69-.77-2.68-2.36-2.68a2.36,2.36,0,0,0-2.42,2.57V15a.2.2,0,0,1-.22.22h-1.4a.21.21,0,0,1-.23-.22V4.88a.21.21,0,0,1,.23-.22h1.4a.2.2,0,0,1,.22.22v1h0a3.72,3.72,0,0,1,6,.22h0a3.92,3.92,0,0,1,3.41-1.65c2.44,0,3.76,1.56,3.76,4V15a.2.2,0,0,1-.22.22Z"/><path d="M353.74,2.29a.21.21,0,0,1-.22-.22V.46a.21.21,0,0,1,.22-.22h1.5a.21.21,0,0,1,.22.22V2.07a.21.21,0,0,1-.22.22Zm0,12.91a.2.2,0,0,1-.22-.22V4.88a.21.21,0,0,1,.22-.22h1.41a.21.21,0,0,1,.22.22V15a.2.2,0,0,1-.22.22Z"/><path d="M357.41,12.59a8.36,8.36,0,0,1-.35-2.67,8.17,8.17,0,0,1,.33-2.66,4.44,4.44,0,0,1,8.28,0,9.21,9.21,0,0,1,.33,3,.22.22,0,0,1-.25.22h-6.66c-.09,0-.14,0-.14.13a3.9,3.9,0,0,0,.18,1.27,2.6,2.6,0,0,0,2.66,1.83,3.44,3.44,0,0,0,2.71-1.17.22.22,0,0,1,.33,0l.9.81a.2.2,0,0,1,0,.31,5.1,5.1,0,0,1-4.11,1.81A4.09,4.09,0,0,1,357.41,12.59ZM364,9c.09,0,.13,0,.13-.13A3.75,3.75,0,0,0,364,7.7a2.6,2.6,0,0,0-4.84,0A3.72,3.72,0,0,0,359,8.89c0,.09.05.13.14.13Z"/><path d="M374.49,15.2a.2.2,0,0,1-.22-.22V8.82c0-1.69-.77-2.68-2.36-2.68a2.36,2.36,0,0,0-2.42,2.57V15a.2.2,0,0,1-.22.22h-1.41a.2.2,0,0,1-.22-.22V4.88a.21.21,0,0,1,.22-.22h1.41a.21.21,0,0,1,.22.22v1h0a3.35,3.35,0,0,1,2.95-1.43c2.29,0,3.65,1.56,3.65,4V15a.2.2,0,0,1-.21.22Z"/><path d="M381.35,15.31c-2.05,0-2.84-.92-2.84-3v-6c0-.09,0-.13-.13-.13h-.88a.21.21,0,0,1-.22-.22V4.88a.21.21,0,0,1,.22-.22h.88c.09,0,.13,0,.13-.13v-3a.21.21,0,0,1,.22-.22h1.41a.21.21,0,0,1,.22.22v3c0,.09,0,.13.13.13h1.67a.2.2,0,0,1,.22.22V5.94a.2.2,0,0,1-.22.22h-1.67c-.09,0-.13,0-.13.13v6c0,1.05.4,1.34,1.34,1.34h.46a.2.2,0,0,1,.22.22v1.27a.2.2,0,0,1-.22.22Z"/><path d="M390.3,15.2a.2.2,0,0,1-.22-.22v-.92h0a3.46,3.46,0,0,1-3.12,1.39c-2,0-3.54-1-3.54-3.17S384.94,9,387.51,9h2.4c.09,0,.13,0,.13-.13V8.12c0-1.45-.57-2.07-2.53-2.07A4.07,4.07,0,0,0,385,6.8a.2.2,0,0,1-.31,0l-.59-1a.22.22,0,0,1,0-.3,5.81,5.81,0,0,1,3.59-1c3,0,4.13,1,4.13,3.59v7a.2.2,0,0,1-.22.22ZM390,11.79V10.63c0-.09,0-.13-.13-.13H387.8c-1.83,0-2.62.52-2.62,1.71s.79,1.65,2.2,1.65C389,13.86,390,13.09,390,11.79Z"/><path d="M393.29,13.86a.23.23,0,0,1,0-.31l.91-1a.21.21,0,0,1,.31,0,5.12,5.12,0,0,0,3.25,1.21c1.54,0,2.31-.66,2.31-1.61s-.39-1.3-2.05-1.47l-1.12-.11c-2.06-.22-3.14-1.26-3.14-3,0-2,1.43-3.21,3.91-3.21a6.3,6.3,0,0,1,3.74,1.17.22.22,0,0,1,0,.31l-.75.94a.22.22,0,0,1-.31,0A5.54,5.54,0,0,0,397.56,6c-1.32,0-2,.59-2,1.45s.51,1.28,2.07,1.43l1.1.11c2.13.2,3.17,1.28,3.17,3,0,2.07-1.5,3.46-4.25,3.46A6.55,6.55,0,0,1,393.29,13.86Z"/><path d="M407.53,19.16a.2.2,0,0,1-.22-.22V17.67a.21.21,0,0,1,.22-.22h.4c.85,0,1.32-.38,1.78-1.59l.35-1-3.87-10c-.05-.13,0-.22.17-.22h1.54a.27.27,0,0,1,.27.22l2.77,7.62h0l2.67-7.62a.26.26,0,0,1,.26-.22h1.5c.13,0,.22.09.17.22L411.42,16c-.92,2.48-1.73,3.14-3.32,3.14Z"/><path d="M420.29,12.59a8.36,8.36,0,0,1-.35-2.67,8.17,8.17,0,0,1,.33-2.66,4.43,4.43,0,0,1,8.27,0,9.21,9.21,0,0,1,.33,3,.22.22,0,0,1-.24.22H422c-.09,0-.13,0-.13.13A3.93,3.93,0,0,0,422,11.9a2.62,2.62,0,0,0,2.67,1.83,3.43,3.43,0,0,0,2.7-1.17.22.22,0,0,1,.33,0l.9.81a.19.19,0,0,1,0,.31,5.13,5.13,0,0,1-4.12,1.81A4.08,4.08,0,0,1,420.29,12.59ZM426.85,9a.12.12,0,0,0,.13-.13,3.72,3.72,0,0,0-.16-1.19,2.6,2.6,0,0,0-4.84,0,3.75,3.75,0,0,0-.15,1.19c0,.09,0,.13.13.13Z"/><path d="M429.79,13.86a.21.21,0,0,1,0-.31l.9-1a.21.21,0,0,1,.31,0,5.13,5.13,0,0,0,3.26,1.21c1.54,0,2.31-.66,2.31-1.61s-.4-1.3-2.05-1.47l-1.12-.11c-2.07-.22-3.15-1.26-3.15-3,0-2,1.43-3.21,3.92-3.21a6.3,6.3,0,0,1,3.74,1.17.21.21,0,0,1,0,.31l-.74.94a.22.22,0,0,1-.31,0A5.54,5.54,0,0,0,434.06,6c-1.32,0-2,.59-2,1.45s.5,1.28,2.07,1.43l1.1.11c2.13.2,3.17,1.28,3.17,3,0,2.07-1.5,3.46-4.25,3.46A6.55,6.55,0,0,1,429.79,13.86Z"/><path d="M443,15.31c-2.05,0-2.84-.92-2.84-3v-6a.12.12,0,0,0-.13-.13h-.88a.2.2,0,0,1-.22-.22V4.88a.2.2,0,0,1,.22-.22h.88a.12.12,0,0,0,.13-.13v-3a.21.21,0,0,1,.22-.22h1.41a.21.21,0,0,1,.22.22v3c0,.09,0,.13.13.13h1.67a.21.21,0,0,1,.22.22V5.94a.21.21,0,0,1-.22.22h-1.67c-.09,0-.13,0-.13.13v6c0,1.05.39,1.34,1.34,1.34h.46a.21.21,0,0,1,.22.22v1.27a.2.2,0,0,1-.22.22Z"/><path d="M452,15.2a.2.2,0,0,1-.22-.22v-.92h0a3.47,3.47,0,0,1-3.13,1.39c-2,0-3.54-1-3.54-3.17S446.62,9,449.2,9h2.39c.09,0,.14,0,.14-.13V8.12c0-1.45-.58-2.07-2.53-2.07a4.13,4.13,0,0,0-2.56.75c-.11.09-.24.09-.3,0l-.6-1a.23.23,0,0,1,.05-.3,5.8,5.8,0,0,1,3.58-1c3,0,4.14,1,4.14,3.59v7a.2.2,0,0,1-.22.22Zm-.26-3.41V10.63c0-.09-.05-.13-.14-.13h-2.11c-1.82,0-2.62.52-2.62,1.71s.8,1.65,2.2,1.65C450.71,13.86,451.73,13.09,451.73,11.79Z"/><path d="M459.36,7.26a4.07,4.07,0,0,1,4.16-2.84,4.24,4.24,0,0,1,3.61,1.78.22.22,0,0,1-.07.31l-1,.79a.2.2,0,0,1-.31,0,2.58,2.58,0,0,0-2.26-1.14,2.29,2.29,0,0,0-2.36,1.65,7.21,7.21,0,0,0-.24,2.13,7.3,7.3,0,0,0,.24,2.16,2.29,2.29,0,0,0,2.36,1.65,2.58,2.58,0,0,0,2.26-1.14.21.21,0,0,1,.31,0l1,.8c.13.11.13.19.07.3a4.24,4.24,0,0,1-3.61,1.79,4.09,4.09,0,0,1-4.16-2.84A9.08,9.08,0,0,1,459,9.92,9,9,0,0,1,459.36,7.26Z"/><path d="M474.85,15.2a.2.2,0,0,1-.22-.22v-.92h0a3.47,3.47,0,0,1-3.13,1.39c-2,0-3.54-1-3.54-3.17S469.48,9,472.05,9h2.4c.09,0,.13,0,.13-.13V8.12c0-1.45-.57-2.07-2.53-2.07a4.09,4.09,0,0,0-2.55.75.2.2,0,0,1-.31,0l-.59-1a.22.22,0,0,1,0-.3,5.85,5.85,0,0,1,3.59-1c3,0,4.14,1,4.14,3.59v7a.2.2,0,0,1-.22.22Zm-.27-3.41V10.63c0-.09,0-.13-.13-.13h-2.11c-1.83,0-2.62.52-2.62,1.71s.79,1.65,2.2,1.65C473.57,13.86,474.58,13.09,474.58,11.79Z"/><path d="M478.28,12.59a8.36,8.36,0,0,1-.35-2.67,8.17,8.17,0,0,1,.33-2.66,4.43,4.43,0,0,1,8.27,0,9.21,9.21,0,0,1,.33,3,.22.22,0,0,1-.24.22H480c-.09,0-.13,0-.13.13A3.93,3.93,0,0,0,480,11.9a2.62,2.62,0,0,0,2.67,1.83,3.43,3.43,0,0,0,2.7-1.17.22.22,0,0,1,.33,0l.91.81a.2.2,0,0,1,0,.31,5.13,5.13,0,0,1-4.12,1.81A4.08,4.08,0,0,1,478.28,12.59ZM484.84,9a.12.12,0,0,0,.13-.13,3.72,3.72,0,0,0-.16-1.19,2.6,2.6,0,0,0-4.84,0,3.75,3.75,0,0,0-.15,1.19c0,.09,0,.13.13.13Z"/><path d="M498.85,15.2a.2.2,0,0,1-.22-.22v-.92h0a3.47,3.47,0,0,1-3.13,1.39c-2,0-3.54-1-3.54-3.17S493.48,9,496.05,9h2.4c.09,0,.14,0,.14-.13V8.12c0-1.45-.58-2.07-2.54-2.07a4.12,4.12,0,0,0-2.55.75.2.2,0,0,1-.31,0l-.59-1a.22.22,0,0,1,0-.3,5.85,5.85,0,0,1,3.59-1c3,0,4.14,1,4.14,3.59v7a.2.2,0,0,1-.22.22Zm-.26-3.41V10.63c0-.09,0-.13-.14-.13h-2.11c-1.82,0-2.62.52-2.62,1.71s.8,1.65,2.2,1.65C497.57,13.86,498.59,13.09,498.59,11.79Z"/><path d="M505.1,15.31c-1.85,0-2.58-.88-2.58-2.77V.46a.21.21,0,0,1,.22-.22h1.41a.21.21,0,0,1,.22.22v12c0,.88.33,1.17,1.06,1.17h.41a.2.2,0,0,1,.22.22v1.27a.2.2,0,0,1-.22.22Z"/><path d="M507.05,12.59a8.36,8.36,0,0,1-.35-2.67A8.17,8.17,0,0,1,507,7.26a4.44,4.44,0,0,1,8.28,0,9.5,9.5,0,0,1,.33,3,.22.22,0,0,1-.25.22h-6.66c-.09,0-.14,0-.14.13a3.9,3.9,0,0,0,.18,1.27,2.6,2.6,0,0,0,2.66,1.83,3.44,3.44,0,0,0,2.71-1.17.22.22,0,0,1,.33,0l.9.81a.2.2,0,0,1,0,.31,5.1,5.1,0,0,1-4.11,1.81A4.09,4.09,0,0,1,507.05,12.59ZM513.61,9c.09,0,.13,0,.13-.13a3.75,3.75,0,0,0-.15-1.19,2.6,2.6,0,0,0-4.84,0,3.72,3.72,0,0,0-.16,1.19c0,.09.05.13.14.13Z"/><path d="M517.5,15.2a.2.2,0,0,1-.22-.22V4.88a.21.21,0,0,1,.22-.22h1.41a.21.21,0,0,1,.22.22V6h0A3,3,0,0,1,522,4.42a3.24,3.24,0,0,1,2.15.79c.11.11.14.2,0,.31l-.82,1.08a.19.19,0,0,1-.3,0,3,3,0,0,0-1.63-.5c-1.61,0-2.27,1.25-2.27,3.08V15a.2.2,0,0,1-.22.22Z"/><path d="M528,15.31c-2,0-2.84-.92-2.84-3v-6c0-.09,0-.13-.13-.13h-.88a.21.21,0,0,1-.22-.22V4.88a.21.21,0,0,1,.22-.22h.88c.09,0,.13,0,.13-.13v-3a.21.21,0,0,1,.22-.22h1.41a.21.21,0,0,1,.22.22v3a.12.12,0,0,0,.13.13h1.67a.21.21,0,0,1,.23.22V5.94a.21.21,0,0,1-.23.22h-1.67a.12.12,0,0,0-.13.13v6c0,1.05.4,1.34,1.34,1.34h.46a.21.21,0,0,1,.23.22v1.27a.21.21,0,0,1-.23.22Z"/><path d="M530.33,12.59A8.36,8.36,0,0,1,530,9.92a8.17,8.17,0,0,1,.33-2.66,4.43,4.43,0,0,1,8.27,0,9.21,9.21,0,0,1,.33,3,.22.22,0,0,1-.24.22H532c-.09,0-.13,0-.13.13A4.23,4.23,0,0,0,532,11.9a2.62,2.62,0,0,0,2.67,1.83,3.43,3.43,0,0,0,2.7-1.17.22.22,0,0,1,.33,0l.91.81a.2.2,0,0,1,0,.31,5.13,5.13,0,0,1-4.12,1.81A4.08,4.08,0,0,1,530.33,12.59ZM536.89,9a.12.12,0,0,0,.13-.13,3.72,3.72,0,0,0-.16-1.19,2.6,2.6,0,0,0-4.84,0,3.75,3.75,0,0,0-.15,1.19c0,.09,0,.13.13.13Z"/><path d="M1,43.2A.2.2,0,0,1,.76,43V32.88A.21.21,0,0,1,1,32.66H2.39a.21.21,0,0,1,.22.22V34h0a2.94,2.94,0,0,1,2.79-1.54,3.26,3.26,0,0,1,2.16.79c.11.11.13.2,0,.31L6.81,34.6a.2.2,0,0,1-.31,0,3,3,0,0,0-1.63-.5c-1.6,0-2.26,1.25-2.26,3.08V43a.2.2,0,0,1-.22.22Z"/><path d="M14.31,43.2a.2.2,0,0,1-.22-.22v-.92h0A3.46,3.46,0,0,1,11,43.45c-2,0-3.55-1-3.55-3.17S8.94,37,11.52,37h2.4a.12.12,0,0,0,.13-.13v-.77c0-1.45-.57-2.07-2.53-2.07A4.07,4.07,0,0,0,9,34.8c-.11.09-.25.09-.31,0l-.6-1a.23.23,0,0,1,0-.3,5.8,5.8,0,0,1,3.58-1c3,0,4.14,1,4.14,3.59v7a.2.2,0,0,1-.22.22Zm-.26-3.41V38.63a.12.12,0,0,0-.13-.13H11.8c-1.82,0-2.61.52-2.61,1.71s.79,1.65,2.2,1.65C13,41.86,14.05,41.09,14.05,39.79Zm-3-8.84c-.13,0-.2-.09-.13-.22L12.62,28A.4.4,0,0,1,13,27.8h1.45c.14,0,.2.11.11.22l-2,2.71a.44.44,0,0,1-.42.22Z"/><path d="M18.25,47.16a.2.2,0,0,1-.22-.22V32.88a.21.21,0,0,1,.22-.22h1.41a.21.21,0,0,1,.22.22v1h0a3.21,3.21,0,0,1,3-1.45A3.48,3.48,0,0,1,26.52,35a8.64,8.64,0,0,1,.38,3,8.72,8.72,0,0,1-.38,3,3.48,3.48,0,0,1-3.63,2.53,3.21,3.21,0,0,1-3-1.48h0v5a.2.2,0,0,1-.22.22Zm6.51-7a7.18,7.18,0,0,0,.24-2.2,7.39,7.39,0,0,0-.24-2.2,2.23,2.23,0,0,0-2.31-1.58,2.24,2.24,0,0,0-2.33,1.58,6.79,6.79,0,0,0-.24,2.2,6.63,6.63,0,0,0,.24,2.2,2.26,2.26,0,0,0,2.33,1.61A2.25,2.25,0,0,0,24.76,40.12Z"/><path d="M28.72,30.29a.21.21,0,0,1-.22-.22V28.46a.21.21,0,0,1,.22-.22h1.5a.21.21,0,0,1,.22.22v1.61a.21.21,0,0,1-.22.22Zm.05,12.91a.2.2,0,0,1-.22-.22V32.88a.2.2,0,0,1,.22-.22h1.4a.2.2,0,0,1,.22.22V43a.2.2,0,0,1-.22.22Z"/><path d="M39.28,43.2a.2.2,0,0,1-.22-.22V42h0a3.21,3.21,0,0,1-3,1.48,3.48,3.48,0,0,1-3.63-2.53,8.72,8.72,0,0,1-.38-3,8.64,8.64,0,0,1,.38-3,3.48,3.48,0,0,1,3.63-2.53,3.21,3.21,0,0,1,3,1.45h0V28.46a.21.21,0,0,1,.22-.22h1.41a.21.21,0,0,1,.22.22V43a.2.2,0,0,1-.22.22Zm-.46-3.08a6.63,6.63,0,0,0,.24-2.2,6.79,6.79,0,0,0-.24-2.2,2.49,2.49,0,0,0-4.64,0,7.39,7.39,0,0,0-.24,2.2,7.18,7.18,0,0,0,.24,2.2,2.48,2.48,0,0,0,4.64,0Z"/><path d="M49.58,43.2a.2.2,0,0,1-.22-.22v-.92h0a3.47,3.47,0,0,1-3.13,1.39c-2,0-3.54-1-3.54-3.17S44.21,37,46.78,37h2.4c.09,0,.13,0,.13-.13v-.77c0-1.45-.57-2.07-2.53-2.07a4.12,4.12,0,0,0-2.55.75.2.2,0,0,1-.31,0l-.59-1a.22.22,0,0,1,0-.3,5.85,5.85,0,0,1,3.59-1c3,0,4.14,1,4.14,3.59v7a.2.2,0,0,1-.22.22Zm-.27-3.41V38.63c0-.09,0-.13-.13-.13H47.07c-1.83,0-2.62.52-2.62,1.71s.79,1.65,2.2,1.65C48.3,41.86,49.31,41.09,49.31,39.79Z"/><path d="M66.76,43.2a.2.2,0,0,1-.22-.22V36.82c0-1.69-.77-2.68-2.35-2.68a2.37,2.37,0,0,0-2.42,2.57V43a.2.2,0,0,1-.22.22H60.14a.2.2,0,0,1-.22-.22V36.82c0-1.69-.77-2.68-2.36-2.68a2.36,2.36,0,0,0-2.42,2.57V43a.2.2,0,0,1-.22.22h-1.4a.21.21,0,0,1-.23-.22V32.88a.21.21,0,0,1,.23-.22h1.4a.2.2,0,0,1,.22.22v1h0a3.72,3.72,0,0,1,6,.22h0a3.92,3.92,0,0,1,3.41-1.65c2.44,0,3.76,1.56,3.76,4V43a.2.2,0,0,1-.22.22Z"/><path d="M70.28,40.59a8.36,8.36,0,0,1-.35-2.67,8.17,8.17,0,0,1,.33-2.66,4.43,4.43,0,0,1,8.27,0,9.21,9.21,0,0,1,.33,3,.22.22,0,0,1-.24.22H72c-.09,0-.13,0-.13.13A3.93,3.93,0,0,0,72,39.9a2.62,2.62,0,0,0,2.67,1.83,3.43,3.43,0,0,0,2.7-1.17.22.22,0,0,1,.33,0l.91.81a.2.2,0,0,1,0,.31,5.13,5.13,0,0,1-4.12,1.81A4.08,4.08,0,0,1,70.28,40.59ZM76.84,37a.12.12,0,0,0,.13-.13,3.72,3.72,0,0,0-.16-1.19,2.6,2.6,0,0,0-4.84,0,3.75,3.75,0,0,0-.15,1.19c0,.09,0,.13.13.13Z"/><path d="M87.35,43.2a.2.2,0,0,1-.22-.22V36.82c0-1.69-.77-2.68-2.35-2.68a2.36,2.36,0,0,0-2.42,2.57V43a.2.2,0,0,1-.22.22H80.73a.2.2,0,0,1-.22-.22V32.88a.21.21,0,0,1,.22-.22h1.41a.21.21,0,0,1,.22.22v1h0a3.34,3.34,0,0,1,3-1.43c2.28,0,3.65,1.56,3.65,4V43a.2.2,0,0,1-.22.22Z"/><path d="M94.21,43.31c-2,0-2.83-.92-2.83-3v-6c0-.09,0-.13-.14-.13h-.88a.21.21,0,0,1-.22-.22V32.88a.21.21,0,0,1,.22-.22h.88c.09,0,.14,0,.14-.13v-3a.2.2,0,0,1,.22-.22H93a.2.2,0,0,1,.22.22v3c0,.09,0,.13.14.13H95a.21.21,0,0,1,.22.22v1.06a.21.21,0,0,1-.22.22H93.36c-.09,0-.14,0-.14.13v6c0,1.05.4,1.34,1.35,1.34H95a.21.21,0,0,1,.22.22v1.27a.2.2,0,0,1-.22.22Z"/><path d="M96.5,40.59a8.36,8.36,0,0,1-.35-2.67,8.17,8.17,0,0,1,.33-2.66,4.43,4.43,0,0,1,8.27,0,9.21,9.21,0,0,1,.33,3,.22.22,0,0,1-.24.22H98.17a.12.12,0,0,0-.13.13,3.9,3.9,0,0,0,.18,1.27,2.6,2.6,0,0,0,2.66,1.83,3.46,3.46,0,0,0,2.71-1.17.22.22,0,0,1,.33,0l.9.81a.2.2,0,0,1,0,.31,5.11,5.11,0,0,1-4.11,1.81A4.08,4.08,0,0,1,96.5,40.59ZM103.06,37c.09,0,.13,0,.13-.13A3.75,3.75,0,0,0,103,35.7a2.6,2.6,0,0,0-4.84,0A3.72,3.72,0,0,0,98,36.89a.12.12,0,0,0,.13.13Z"/><path d="M117.07,43.2a.2.2,0,0,1-.22-.22v-.92h0a3.46,3.46,0,0,1-3.12,1.39c-2,0-3.55-1-3.55-3.17S111.7,37,114.28,37h2.4a.12.12,0,0,0,.13-.13v-.77c0-1.45-.57-2.07-2.53-2.07a4.07,4.07,0,0,0-2.55.75c-.11.09-.25.09-.31,0l-.6-1a.23.23,0,0,1,.05-.3,5.8,5.8,0,0,1,3.58-1c3,0,4.14,1,4.14,3.59v7a.2.2,0,0,1-.22.22Zm-.26-3.41V38.63a.12.12,0,0,0-.13-.13h-2.12c-1.82,0-2.61.52-2.61,1.71s.79,1.65,2.2,1.65C115.8,41.86,116.81,41.09,116.81,39.79Z"/><path d="M127.28,43.31c-1.85,0-2.58-.88-2.58-2.77V28.46a.21.21,0,0,1,.23-.22h1.4a.2.2,0,0,1,.22.22v12c0,.88.33,1.17,1.06,1.17H128a.21.21,0,0,1,.22.22v1.27a.2.2,0,0,1-.22.22Z"/><path d="M135.9,43.2a.2.2,0,0,1-.22-.22v-.92h0a3.46,3.46,0,0,1-3.12,1.39c-2,0-3.54-1-3.54-3.17S130.53,37,133.11,37h2.4c.09,0,.13,0,.13-.13v-.77c0-1.45-.57-2.07-2.53-2.07a4.07,4.07,0,0,0-2.55.75c-.11.09-.25.09-.31,0l-.59-1a.22.22,0,0,1,0-.3,5.81,5.81,0,0,1,3.59-1c3,0,4.13,1,4.13,3.59v7a.2.2,0,0,1-.22.22Zm-.26-3.41V38.63c0-.09,0-.13-.13-.13H133.4c-1.83,0-2.62.52-2.62,1.71s.79,1.65,2.2,1.65C134.63,41.86,135.64,41.09,135.64,39.79Z"/><path d="M138.89,41.86a.23.23,0,0,1,0-.31l.91-1a.2.2,0,0,1,.3,0,5.17,5.17,0,0,0,3.26,1.21c1.54,0,2.31-.66,2.31-1.61s-.4-1.3-2-1.47l-1.12-.11c-2.06-.22-3.14-1.26-3.14-3,0-2,1.43-3.21,3.91-3.21A6.3,6.3,0,0,1,147,33.59a.22.22,0,0,1,.05.31l-.75.94a.22.22,0,0,1-.31,0,5.54,5.54,0,0,0-2.84-.86c-1.32,0-2,.59-2,1.45s.51,1.28,2.07,1.43l1.1.11c2.13.2,3.17,1.28,3.17,3,0,2.07-1.5,3.46-4.25,3.46A6.55,6.55,0,0,1,138.89,41.86Z"/><path d="M153.26,47.16a.2.2,0,0,1-.22-.22V32.88a.21.21,0,0,1,.22-.22h1.41a.21.21,0,0,1,.22.22v1h0a3.21,3.21,0,0,1,3-1.45A3.48,3.48,0,0,1,161.53,35a8.64,8.64,0,0,1,.38,3,8.72,8.72,0,0,1-.38,3,3.48,3.48,0,0,1-3.63,2.53,3.21,3.21,0,0,1-3-1.48h0v5a.2.2,0,0,1-.22.22Zm6.51-7a7.14,7.14,0,0,0,.25-2.2,7.35,7.35,0,0,0-.25-2.2,2.49,2.49,0,0,0-4.64,0,6.79,6.79,0,0,0-.24,2.2,6.63,6.63,0,0,0,.24,2.2,2.48,2.48,0,0,0,4.64,0Z"/><path d="M163.27,40.59a8.36,8.36,0,0,1-.35-2.67,8.17,8.17,0,0,1,.33-2.66,4.43,4.43,0,0,1,8.27,0,9.21,9.21,0,0,1,.33,3,.22.22,0,0,1-.24.22h-6.67c-.09,0-.13,0-.13.13A3.9,3.9,0,0,0,165,39.9a2.6,2.6,0,0,0,2.66,1.83,3.43,3.43,0,0,0,2.7-1.17c.12-.11.23-.13.34,0l.9.81a.2.2,0,0,1,0,.31,5.13,5.13,0,0,1-4.12,1.81A4.08,4.08,0,0,1,163.27,40.59ZM169.83,37c.09,0,.13,0,.13-.13a3.75,3.75,0,0,0-.15-1.19,2.61,2.61,0,0,0-4.85,0,3.75,3.75,0,0,0-.15,1.19c0,.09,0,.13.13.13Z"/><path d="M173.72,43.2a.2.2,0,0,1-.22-.22V32.88a.21.21,0,0,1,.22-.22h1.41a.21.21,0,0,1,.22.22V34h0a2.94,2.94,0,0,1,2.79-1.54,3.26,3.26,0,0,1,2.16.79c.11.11.13.2,0,.31l-.81,1.08a.2.2,0,0,1-.31,0,3,3,0,0,0-1.63-.5c-1.6,0-2.26,1.25-2.26,3.08V43a.2.2,0,0,1-.22.22Z"/><path d="M180.3,41.86a.21.21,0,0,1,0-.31l.9-1a.21.21,0,0,1,.31,0,5.12,5.12,0,0,0,3.25,1.21c1.54,0,2.31-.66,2.31-1.61s-.39-1.3-2-1.47l-1.12-.11c-2.07-.22-3.15-1.26-3.15-3,0-2,1.43-3.21,3.92-3.21a6.3,6.3,0,0,1,3.74,1.17.21.21,0,0,1,0,.31l-.75.94a.22.22,0,0,1-.31,0,5.54,5.54,0,0,0-2.83-.86c-1.32,0-2,.59-2,1.45s.51,1.28,2.07,1.43l1.1.11c2.14.2,3.17,1.28,3.17,3,0,2.07-1.5,3.46-4.25,3.46A6.54,6.54,0,0,1,180.3,41.86Z"/><path d="M190.2,40.61a8,8,0,0,1-.35-2.69,7.92,7.92,0,0,1,.35-2.66,4.47,4.47,0,0,1,8.32,0,7.92,7.92,0,0,1,.35,2.66,8,8,0,0,1-.35,2.69,4.47,4.47,0,0,1-8.32,0Zm6.53-.53a6.78,6.78,0,0,0,.24-2.16,6.61,6.61,0,0,0-.24-2.13,2.53,2.53,0,0,0-4.75,0,6.61,6.61,0,0,0-.24,2.13,6.78,6.78,0,0,0,.24,2.16,2.53,2.53,0,0,0,4.75,0Z"/><path d="M207.36,43.2a.2.2,0,0,1-.22-.22V36.82c0-1.69-.77-2.68-2.36-2.68a2.36,2.36,0,0,0-2.42,2.57V43a.2.2,0,0,1-.22.22h-1.4a.2.2,0,0,1-.22-.22V32.88a.2.2,0,0,1,.22-.22h1.4a.21.21,0,0,1,.22.22v1h0a3.32,3.32,0,0,1,2.94-1.43c2.29,0,3.66,1.56,3.66,4V43a.2.2,0,0,1-.22.22Z"/><path d="M217.54,43.2a.2.2,0,0,1-.22-.22v-.92h0a3.46,3.46,0,0,1-3.12,1.39c-2,0-3.55-1-3.55-3.17S212.18,37,214.75,37h2.4c.09,0,.13,0,.13-.13v-.77c0-1.45-.57-2.07-2.53-2.07a4.07,4.07,0,0,0-2.55.75c-.11.09-.25.09-.31,0l-.6-1a.23.23,0,0,1,.05-.3,5.81,5.81,0,0,1,3.59-1c3,0,4.13,1,4.13,3.59v7a.2.2,0,0,1-.22.22Zm-.26-3.41V38.63c0-.09,0-.13-.13-.13H215c-1.82,0-2.61.52-2.61,1.71s.79,1.65,2.2,1.65C216.27,41.86,217.28,41.09,217.28,39.79Z"/><path d="M220.53,41.86a.23.23,0,0,1,0-.31l.91-1a.21.21,0,0,1,.31,0A5.12,5.12,0,0,0,225,41.8c1.54,0,2.31-.66,2.31-1.61s-.39-1.3-2-1.47l-1.13-.11c-2.07-.22-3.14-1.26-3.14-3,0-2,1.43-3.21,3.91-3.21a6.3,6.3,0,0,1,3.74,1.17.22.22,0,0,1,0,.31l-.75.94a.22.22,0,0,1-.31,0A5.54,5.54,0,0,0,224.8,34c-1.32,0-2,.59-2,1.45s.51,1.28,2.07,1.43L226,37c2.13.2,3.17,1.28,3.17,3,0,2.07-1.5,3.46-4.25,3.46A6.57,6.57,0,0,1,220.53,41.86Z"/><path d="M241.28,47.16a.2.2,0,0,1-.22-.22V42h0a3.21,3.21,0,0,1-3,1.48,3.48,3.48,0,0,1-3.63-2.53,8.72,8.72,0,0,1-.38-3,8.64,8.64,0,0,1,.38-3,3.48,3.48,0,0,1,3.63-2.53,3.21,3.21,0,0,1,3,1.45h0v-1a.21.21,0,0,1,.22-.22h1.41a.21.21,0,0,1,.22.22V46.94a.2.2,0,0,1-.22.22Zm-.46-7a6.63,6.63,0,0,0,.24-2.2,6.79,6.79,0,0,0-.24-2.2,2.49,2.49,0,0,0-4.64,0,7.39,7.39,0,0,0-.24,2.2,7.18,7.18,0,0,0,.24,2.2,2.48,2.48,0,0,0,4.64,0Z"/><path d="M251.82,43.2a.2.2,0,0,1-.22-.22V42h0a3.23,3.23,0,0,1-2.89,1.46c-2.31,0-3.65-1.59-3.65-4V32.88a.21.21,0,0,1,.22-.22h1.41a.21.21,0,0,1,.22.22V39c0,1.72.77,2.71,2.33,2.71a2.34,2.34,0,0,0,2.38-2.6V32.88a.21.21,0,0,1,.22-.22h1.41a.21.21,0,0,1,.22.22V43a.2.2,0,0,1-.22.22Z"/><path d="M255.45,40.59a8.36,8.36,0,0,1-.35-2.67,8.17,8.17,0,0,1,.33-2.66,4.43,4.43,0,0,1,8.27,0,9.21,9.21,0,0,1,.33,3,.22.22,0,0,1-.24.22h-6.67c-.09,0-.13,0-.13.13a3.93,3.93,0,0,0,.17,1.27,2.62,2.62,0,0,0,2.67,1.83,3.43,3.43,0,0,0,2.7-1.17.22.22,0,0,1,.33,0l.91.81a.2.2,0,0,1,0,.31,5.13,5.13,0,0,1-4.12,1.81A4.08,4.08,0,0,1,255.45,40.59ZM262,37a.12.12,0,0,0,.13-.13A3.72,3.72,0,0,0,262,35.7a2.6,2.6,0,0,0-4.84,0,3.75,3.75,0,0,0-.15,1.19c0,.09,0,.13.13.13Z"/><path d="M268.91,41.86a.21.21,0,0,1,0-.31l.9-1a.21.21,0,0,1,.31,0,5.13,5.13,0,0,0,3.26,1.21c1.54,0,2.31-.66,2.31-1.61s-.4-1.3-2.05-1.47l-1.12-.11c-2.07-.22-3.15-1.26-3.15-3,0-2,1.43-3.21,3.92-3.21A6.3,6.3,0,0,1,277,33.59a.21.21,0,0,1,0,.31l-.74.94a.22.22,0,0,1-.31,0,5.54,5.54,0,0,0-2.84-.86c-1.32,0-2,.59-2,1.45s.5,1.28,2.07,1.43l1.1.11c2.13.2,3.17,1.28,3.17,3,0,2.07-1.5,3.46-4.25,3.46A6.55,6.55,0,0,1,268.91,41.86Z"/><path d="M278.81,40.59a8.36,8.36,0,0,1-.35-2.67,8.17,8.17,0,0,1,.33-2.66,4.43,4.43,0,0,1,8.27,0,9.21,9.21,0,0,1,.33,3,.22.22,0,0,1-.24.22h-6.67a.12.12,0,0,0-.13.13,3.9,3.9,0,0,0,.18,1.27,2.6,2.6,0,0,0,2.66,1.83,3.47,3.47,0,0,0,2.71-1.17.22.22,0,0,1,.33,0l.9.81a.2.2,0,0,1,0,.31A5.12,5.12,0,0,1,283,43.45,4.08,4.08,0,0,1,278.81,40.59ZM285.37,37c.09,0,.13,0,.13-.13a3.75,3.75,0,0,0-.15-1.19,2.6,2.6,0,0,0-4.84,0,3.72,3.72,0,0,0-.16,1.19.12.12,0,0,0,.13.13Z"/><path d="M292.71,40.59a8.66,8.66,0,0,1-.35-2.67,8.17,8.17,0,0,1,.33-2.66,4.44,4.44,0,0,1,8.28,0,9.21,9.21,0,0,1,.33,3,.22.22,0,0,1-.25.22h-6.66c-.09,0-.13,0-.13.13a3.93,3.93,0,0,0,.17,1.27,2.61,2.61,0,0,0,2.66,1.83,3.44,3.44,0,0,0,2.71-1.17.22.22,0,0,1,.33,0l.9.81a.2.2,0,0,1,0,.31,5.1,5.1,0,0,1-4.11,1.81A4.1,4.1,0,0,1,292.71,40.59ZM299.27,37c.09,0,.13,0,.13-.13a3.75,3.75,0,0,0-.15-1.19,2.6,2.6,0,0,0-4.84,0,3.75,3.75,0,0,0-.15,1.19c0,.09,0,.13.13.13Z"/><path d="M309.79,43.2a.2.2,0,0,1-.22-.22V36.82c0-1.69-.77-2.68-2.36-2.68a2.36,2.36,0,0,0-2.42,2.57V43a.2.2,0,0,1-.22.22h-1.41a.2.2,0,0,1-.22-.22V32.88a.21.21,0,0,1,.22-.22h1.41a.21.21,0,0,1,.22.22v1h0a3.35,3.35,0,0,1,2.95-1.43c2.29,0,3.66,1.56,3.66,4V43a.2.2,0,0,1-.22.22Z"/><path d="M313.28,35.26a4.09,4.09,0,0,1,4.16-2.84,4.22,4.22,0,0,1,3.61,1.78c.07.11.07.2-.06.31l-1,.79a.2.2,0,0,1-.31,0,2.59,2.59,0,0,0-2.27-1.14,2.28,2.28,0,0,0-2.35,1.65,6.89,6.89,0,0,0-.24,2.13,7,7,0,0,0,.24,2.16,2.28,2.28,0,0,0,2.35,1.65,2.59,2.59,0,0,0,2.27-1.14.21.21,0,0,1,.31,0l1,.8c.13.11.13.19.06.3a4.23,4.23,0,0,1-3.61,1.79,4.1,4.1,0,0,1-4.16-2.84,9.43,9.43,0,0,1-.33-2.69A9.35,9.35,0,0,1,313.28,35.26Z"/><path d="M329.28,43.2a.2.2,0,0,1-.22-.22V42h0a3.23,3.23,0,0,1-2.89,1.46c-2.3,0-3.65-1.59-3.65-4V32.88a.21.21,0,0,1,.22-.22h1.41a.21.21,0,0,1,.22.22V39c0,1.72.77,2.71,2.33,2.71a2.34,2.34,0,0,0,2.38-2.6V32.88a.21.21,0,0,1,.22-.22h1.41a.21.21,0,0,1,.22.22V43a.2.2,0,0,1-.22.22Z"/><path d="M332.91,40.59a8.36,8.36,0,0,1-.35-2.67,8.17,8.17,0,0,1,.33-2.66,4.43,4.43,0,0,1,8.27,0,9.21,9.21,0,0,1,.33,3,.22.22,0,0,1-.24.22h-6.67c-.09,0-.13,0-.13.13a3.93,3.93,0,0,0,.17,1.27,2.62,2.62,0,0,0,2.67,1.83,3.43,3.43,0,0,0,2.7-1.17.22.22,0,0,1,.33,0l.91.81a.2.2,0,0,1,0,.31,5.13,5.13,0,0,1-4.12,1.81A4.08,4.08,0,0,1,332.91,40.59ZM339.46,37c.09,0,.14,0,.14-.13a3.72,3.72,0,0,0-.16-1.19,2.6,2.6,0,0,0-4.84,0,3.75,3.75,0,0,0-.15,1.19c0,.09,0,.13.13.13Z"/><path d="M350,43.2a.2.2,0,0,1-.22-.22V36.82c0-1.69-.77-2.68-2.35-2.68A2.36,2.36,0,0,0,345,36.71V43a.2.2,0,0,1-.22.22h-1.41a.2.2,0,0,1-.22-.22V32.88a.21.21,0,0,1,.22-.22h1.41a.21.21,0,0,1,.22.22v1h0A3.34,3.34,0,0,1,348,32.42c2.28,0,3.65,1.56,3.65,4V43a.2.2,0,0,1-.22.22Z"/><path d="M356.84,43.31c-2,0-2.83-.92-2.83-3v-6c0-.09-.05-.13-.14-.13H353a.21.21,0,0,1-.22-.22V32.88a.21.21,0,0,1,.22-.22h.88c.09,0,.14,0,.14-.13v-3a.2.2,0,0,1,.22-.22h1.4a.2.2,0,0,1,.22.22v3c0,.09,0,.13.14.13h1.67a.21.21,0,0,1,.22.22v1.06a.21.21,0,0,1-.22.22H356c-.09,0-.14,0-.14.13v6c0,1.05.4,1.34,1.35,1.34h.46a.21.21,0,0,1,.22.22v1.27a.2.2,0,0,1-.22.22Z"/><path d="M359.64,43.2a.2.2,0,0,1-.22-.22V32.88a.21.21,0,0,1,.22-.22h1.41a.21.21,0,0,1,.22.22V34h0a2.93,2.93,0,0,1,2.79-1.54,3.26,3.26,0,0,1,2.16.79c.11.11.13.2,0,.31l-.81,1.08a.2.2,0,0,1-.31,0,3,3,0,0,0-1.63-.5c-1.6,0-2.26,1.25-2.26,3.08V43a.2.2,0,0,1-.22.22Z"/><path d="M373,43.2a.2.2,0,0,1-.22-.22v-.92h0a3.47,3.47,0,0,1-3.13,1.39c-2,0-3.54-1-3.54-3.17S367.6,37,370.18,37h2.39c.09,0,.14,0,.14-.13v-.77c0-1.45-.58-2.07-2.53-2.07a4.13,4.13,0,0,0-2.56.75.2.2,0,0,1-.31,0l-.59-1a.22.22,0,0,1,0-.3,5.8,5.8,0,0,1,3.58-1c3,0,4.14,1,4.14,3.59v7a.2.2,0,0,1-.22.22Zm-.26-3.41V38.63c0-.09,0-.13-.14-.13h-2.11c-1.82,0-2.62.52-2.62,1.71s.8,1.65,2.2,1.65C371.69,41.86,372.71,41.09,372.71,39.79Z"/><path d="M383.53,43.2a.2.2,0,0,1-.22-.22V36.82c0-1.69-.77-2.68-2.35-2.68a2.36,2.36,0,0,0-2.43,2.57V43a.2.2,0,0,1-.21.22h-1.41a.2.2,0,0,1-.22-.22V32.88a.2.2,0,0,1,.22-.22h1.41a.2.2,0,0,1,.21.22v1h0a3.34,3.34,0,0,1,2.95-1.43c2.28,0,3.65,1.56,3.65,4V43a.2.2,0,0,1-.22.22Z"/><path d="M397.68,43.2a.2.2,0,0,1-.22-.22v-.92h0a3.44,3.44,0,0,1-3.12,1.39c-2,0-3.54-1-3.54-3.17S392.31,37,394.88,37h2.4c.09,0,.13,0,.13-.13v-.77c0-1.45-.57-2.07-2.53-2.07a4.07,4.07,0,0,0-2.55.75.2.2,0,0,1-.31,0l-.59-1a.22.22,0,0,1,0-.3,5.81,5.81,0,0,1,3.59-1c3,0,4.13,1,4.13,3.59v7a.2.2,0,0,1-.22.22Zm-.27-3.41V38.63c0-.09,0-.13-.13-.13h-2.11c-1.83,0-2.62.52-2.62,1.71s.79,1.65,2.2,1.65C396.4,41.86,397.41,41.09,397.41,39.79Z"/><path d="M403.92,43.31c-1.85,0-2.57-.88-2.57-2.77V28.46a.21.21,0,0,1,.22-.22H403a.21.21,0,0,1,.22.22v12c0,.88.33,1.17,1.05,1.17h.42a.21.21,0,0,1,.22.22v1.27a.2.2,0,0,1-.22.22Z"/><path d="M406.39,43.2a.2.2,0,0,1-.22-.22V32.88a.2.2,0,0,1,.22-.22h1.4a.2.2,0,0,1,.22.22V34h0a2.93,2.93,0,0,1,2.79-1.54,3.26,3.26,0,0,1,2.16.79c.11.11.13.2,0,.31l-.81,1.08a.2.2,0,0,1-.31,0,3,3,0,0,0-1.63-.5c-1.61,0-2.27,1.25-2.27,3.08V43a.2.2,0,0,1-.22.22Z"/><path d="M413.18,40.59a8.36,8.36,0,0,1-.35-2.67,8.17,8.17,0,0,1,.33-2.66,4.44,4.44,0,0,1,8.28,0,9.21,9.21,0,0,1,.33,3,.22.22,0,0,1-.25.22h-6.66c-.09,0-.14,0-.14.13a3.9,3.9,0,0,0,.18,1.27,2.61,2.61,0,0,0,2.66,1.83,3.44,3.44,0,0,0,2.71-1.17.22.22,0,0,1,.33,0l.9.81a.2.2,0,0,1,0,.31,5.1,5.1,0,0,1-4.11,1.81A4.09,4.09,0,0,1,413.18,40.59ZM419.74,37c.09,0,.13,0,.13-.13a3.75,3.75,0,0,0-.15-1.19,2.6,2.6,0,0,0-4.84,0,3.72,3.72,0,0,0-.16,1.19c0,.09,0,.13.14.13Z"/><path d="M430,43.2a.21.21,0,0,1-.23-.22V42h0a3.2,3.2,0,0,1-3,1.48,3.48,3.48,0,0,1-3.63-2.53,8.72,8.72,0,0,1-.38-3,8.64,8.64,0,0,1,.38-3,3.48,3.48,0,0,1,3.63-2.53,3.2,3.2,0,0,1,3,1.45h0V28.46a.21.21,0,0,1,.23-.22h1.4a.21.21,0,0,1,.22.22V43a.2.2,0,0,1-.22.22Zm-.47-3.08a6.63,6.63,0,0,0,.24-2.2,6.79,6.79,0,0,0-.24-2.2,2.49,2.49,0,0,0-4.64,0,7.39,7.39,0,0,0-.24,2.2,7.18,7.18,0,0,0,.24,2.2,2.48,2.48,0,0,0,4.64,0Z"/><path d="M433.64,40.59a8.36,8.36,0,0,1-.35-2.67,8.17,8.17,0,0,1,.33-2.66,4.44,4.44,0,0,1,8.28,0,9.5,9.5,0,0,1,.33,3,.22.22,0,0,1-.25.22h-6.66c-.09,0-.14,0-.14.13a3.9,3.9,0,0,0,.18,1.27A2.6,2.6,0,0,0,438,41.73a3.44,3.44,0,0,0,2.71-1.17.22.22,0,0,1,.33,0l.9.81a.2.2,0,0,1,0,.31,5.1,5.1,0,0,1-4.11,1.81A4.09,4.09,0,0,1,433.64,40.59ZM440.2,37c.09,0,.13,0,.13-.13a3.75,3.75,0,0,0-.15-1.19,2.6,2.6,0,0,0-4.84,0,3.72,3.72,0,0,0-.16,1.19c0,.09.05.13.14.13Z"/><path d="M450.47,43.2a.2.2,0,0,1-.22-.22V42h0a3.2,3.2,0,0,1-3,1.48,3.48,3.48,0,0,1-3.63-2.53,8.75,8.75,0,0,1-.37-3,8.67,8.67,0,0,1,.37-3,3.48,3.48,0,0,1,3.63-2.53,3.2,3.2,0,0,1,3,1.45h0V28.46a.21.21,0,0,1,.22-.22h1.41a.2.2,0,0,1,.22.22V43a.2.2,0,0,1-.22.22ZM450,40.12a6.63,6.63,0,0,0,.24-2.2,6.79,6.79,0,0,0-.24-2.2,2.49,2.49,0,0,0-4.64,0,7.39,7.39,0,0,0-.24,2.2,7.18,7.18,0,0,0,.24,2.2,2.48,2.48,0,0,0,4.64,0Z"/><path d="M454.1,40.61a8,8,0,0,1-.35-2.69,7.92,7.92,0,0,1,.35-2.66,4.47,4.47,0,0,1,8.32,0,7.92,7.92,0,0,1,.35,2.66,8,8,0,0,1-.35,2.69,4.47,4.47,0,0,1-8.32,0Zm6.54-.53a7.09,7.09,0,0,0,.24-2.16,6.91,6.91,0,0,0-.24-2.13,2.53,2.53,0,0,0-4.75,0,6.57,6.57,0,0,0-.25,2.13,6.73,6.73,0,0,0,.25,2.16,2.53,2.53,0,0,0,4.75,0Z"/><path d="M464.64,43.2a.2.2,0,0,1-.22-.22V32.88a.21.21,0,0,1,.22-.22h1.41a.21.21,0,0,1,.22.22V34h0a2.94,2.94,0,0,1,2.8-1.54,3.26,3.26,0,0,1,2.15.79c.11.11.13.2.05.31l-.82,1.08a.2.2,0,0,1-.31,0,3,3,0,0,0-1.62-.5c-1.61,0-2.27,1.25-2.27,3.08V43a.2.2,0,0,1-.22.22Z"/><path d="M482.68,43.2a.2.2,0,0,1-.22-.22V42h0a3.21,3.21,0,0,1-3,1.48,3.48,3.48,0,0,1-3.63-2.53,8.72,8.72,0,0,1-.38-3,8.64,8.64,0,0,1,.38-3,3.48,3.48,0,0,1,3.63-2.53,3.21,3.21,0,0,1,3,1.45h0V28.46a.21.21,0,0,1,.22-.22h1.41a.21.21,0,0,1,.22.22V43a.2.2,0,0,1-.22.22Zm-.46-3.08a6.63,6.63,0,0,0,.24-2.2,6.79,6.79,0,0,0-.24-2.2,2.49,2.49,0,0,0-4.64,0,7.39,7.39,0,0,0-.24,2.2,7.18,7.18,0,0,0,.24,2.2,2.48,2.48,0,0,0,4.64,0Z"/><path d="M486.31,40.59a8.36,8.36,0,0,1-.35-2.67,8.17,8.17,0,0,1,.33-2.66,4.43,4.43,0,0,1,8.27,0,9.21,9.21,0,0,1,.33,3,.22.22,0,0,1-.24.22H488a.12.12,0,0,0-.13.13A3.9,3.9,0,0,0,488,39.9a2.6,2.6,0,0,0,2.66,1.83,3.47,3.47,0,0,0,2.71-1.17.22.22,0,0,1,.33,0l.9.81a.2.2,0,0,1,0,.31,5.13,5.13,0,0,1-4.12,1.81A4.08,4.08,0,0,1,486.31,40.59ZM492.87,37c.09,0,.13,0,.13-.13a3.75,3.75,0,0,0-.15-1.19,2.6,2.6,0,0,0-4.84,0,3.72,3.72,0,0,0-.16,1.19A.12.12,0,0,0,488,37Z"/><path d="M499.07,43.31c-1.85,0-2.57-.88-2.57-2.77V28.46a.2.2,0,0,1,.22-.22h1.4a.21.21,0,0,1,.23.22v12c0,.88.33,1.17,1,1.17h.42a.21.21,0,0,1,.22.22v1.27a.2.2,0,0,1-.22.22Z"/><path d="M511.65,43.2a.2.2,0,0,1-.21-.22v-.92h0a3.46,3.46,0,0,1-3.12,1.39c-2,0-3.54-1-3.54-3.17S506.29,37,508.86,37h2.4c.09,0,.13,0,.13-.13v-.77c0-1.45-.57-2.07-2.53-2.07a4.07,4.07,0,0,0-2.55.75.2.2,0,0,1-.31,0l-.59-1a.22.22,0,0,1,0-.3,5.81,5.81,0,0,1,3.59-1c3,0,4.13,1,4.13,3.59v7a.2.2,0,0,1-.22.22Zm-.26-3.41V38.63c0-.09,0-.13-.13-.13h-2.11c-1.83,0-2.62.52-2.62,1.71s.79,1.65,2.2,1.65C510.38,41.86,511.39,41.09,511.39,39.79Zm-3-8.84c-.13,0-.2-.09-.13-.22L510,28a.4.4,0,0,1,.38-.22h1.45a.13.13,0,0,1,.11.22l-2,2.71a.44.44,0,0,1-.42.22Z"/><path d="M515.59,43.2a.2.2,0,0,1-.22-.22V32.88a.21.21,0,0,1,.22-.22H517a.21.21,0,0,1,.22.22V34h0a2.94,2.94,0,0,1,2.8-1.54,3.26,3.26,0,0,1,2.15.79c.11.11.13.2,0,.31l-.82,1.08a.2.2,0,0,1-.31,0,3,3,0,0,0-1.62-.5c-1.61,0-2.27,1.25-2.27,3.08V43a.2.2,0,0,1-.22.22Z"/><path d="M522.39,40.59a8.36,8.36,0,0,1-.35-2.67,8.17,8.17,0,0,1,.33-2.66,4.43,4.43,0,0,1,8.27,0,9.21,9.21,0,0,1,.33,3,.22.22,0,0,1-.24.22h-6.67c-.09,0-.13,0-.13.13a4.23,4.23,0,0,0,.17,1.27,2.62,2.62,0,0,0,2.67,1.83,3.43,3.43,0,0,0,2.7-1.17.22.22,0,0,1,.33,0l.91.81a.2.2,0,0,1,0,.31,5.13,5.13,0,0,1-4.12,1.81A4.08,4.08,0,0,1,522.39,40.59ZM529,37a.12.12,0,0,0,.13-.13,3.72,3.72,0,0,0-.16-1.19,2.6,2.6,0,0,0-4.84,0,3.75,3.75,0,0,0-.15,1.19c0,.09,0,.13.13.13Z"/><path d="M539,43.2a.2.2,0,0,1-.22-.22v-.92h0a3.47,3.47,0,0,1-3.13,1.39c-2,0-3.54-1-3.54-3.17S533.63,37,536.21,37h2.39c.09,0,.14,0,.14-.13v-.77c0-1.45-.58-2.07-2.53-2.07a4.13,4.13,0,0,0-2.56.75c-.11.09-.24.09-.3,0l-.6-1a.23.23,0,0,1,0-.3,5.8,5.8,0,0,1,3.58-1c3,0,4.14,1,4.14,3.59v7a.2.2,0,0,1-.22.22Zm-.26-3.41V38.63c0-.09,0-.13-.14-.13h-2.11c-1.82,0-2.62.52-2.62,1.71s.8,1.65,2.2,1.65C537.72,41.86,538.74,41.09,538.74,39.79Z"/><path d="M553.28,43.2a.2.2,0,0,1-.22-.22V42h0a3.21,3.21,0,0,1-3,1.48,3.49,3.49,0,0,1-3.63-2.53,9,9,0,0,1-.37-3,8.92,8.92,0,0,1,.37-3A3.49,3.49,0,0,1,550,32.42a3.22,3.22,0,0,1,3,1.45h0V28.46a.21.21,0,0,1,.22-.22h1.41a.21.21,0,0,1,.22.22V43a.2.2,0,0,1-.22.22Zm-.46-3.08a6.92,6.92,0,0,0,.24-2.2,7.08,7.08,0,0,0-.24-2.2,2.5,2.5,0,0,0-4.65,0,7.74,7.74,0,0,0-.24,2.2,7.51,7.51,0,0,0,.24,2.2,2.48,2.48,0,0,0,4.65,0Z"/><path d="M556.91,40.59a8.32,8.32,0,0,1-.36-2.67,8.46,8.46,0,0,1,.33-2.66,4.44,4.44,0,0,1,8.28,0,9.21,9.21,0,0,1,.33,3,.22.22,0,0,1-.24.22h-6.67c-.09,0-.13,0-.13.13a3.93,3.93,0,0,0,.17,1.27,2.62,2.62,0,0,0,2.67,1.83,3.43,3.43,0,0,0,2.7-1.17.22.22,0,0,1,.33,0l.9.81a.21.21,0,0,1,0,.31,5.13,5.13,0,0,1-4.12,1.81A4.08,4.08,0,0,1,556.91,40.59ZM563.46,37c.09,0,.14,0,.14-.13a3.72,3.72,0,0,0-.16-1.19,2.6,2.6,0,0,0-4.84,0,3.75,3.75,0,0,0-.15,1.19c0,.09,0,.13.13.13Z"/><path d="M574.15,43.31c-2,0-2.83-.92-2.83-3v-6c0-.09-.05-.13-.14-.13h-.88a.21.21,0,0,1-.22-.22V32.88a.21.21,0,0,1,.22-.22h.88c.09,0,.14,0,.14-.13v-3a.2.2,0,0,1,.22-.22h1.4a.2.2,0,0,1,.22.22v3c0,.09.05.13.14.13H575a.21.21,0,0,1,.22.22v1.06a.21.21,0,0,1-.22.22H573.3c-.09,0-.14,0-.14.13v6c0,1.05.4,1.34,1.35,1.34H575a.21.21,0,0,1,.22.22v1.27a.2.2,0,0,1-.22.22Z"/><path d="M577,43.2a.2.2,0,0,1-.22-.22V32.88a.21.21,0,0,1,.22-.22h1.41a.21.21,0,0,1,.22.22V34h0a2.93,2.93,0,0,1,2.79-1.54,3.26,3.26,0,0,1,2.16.79c.11.11.13.2,0,.31l-.81,1.08a.2.2,0,0,1-.31,0,3,3,0,0,0-1.63-.5c-1.6,0-2.26,1.25-2.26,3.08V43a.2.2,0,0,1-.22.22Z"/><path d="M590.28,43.2a.2.2,0,0,1-.22-.22v-.92h0a3.47,3.47,0,0,1-3.13,1.39c-2,0-3.54-1-3.54-3.17S584.91,37,587.49,37h2.39c.09,0,.14,0,.14-.13v-.77c0-1.45-.58-2.07-2.53-2.07a4.13,4.13,0,0,0-2.56.75c-.11.09-.24.09-.3,0l-.6-1a.23.23,0,0,1,.05-.3,5.8,5.8,0,0,1,3.58-1c3,0,4.14,1,4.14,3.59v7a.2.2,0,0,1-.22.22ZM590,39.79V38.63c0-.09,0-.13-.14-.13h-2.11c-1.82,0-2.62.52-2.62,1.71s.8,1.65,2.2,1.65C589,41.86,590,41.09,590,39.79Z"/><path d="M594.22,43.2A.2.2,0,0,1,594,43V28.46a.21.21,0,0,1,.22-.22h1.41a.21.21,0,0,1,.22.22v5.41h0a3.2,3.2,0,0,1,3-1.45A3.48,3.48,0,0,1,602.49,35a8.67,8.67,0,0,1,.37,3,8.75,8.75,0,0,1-.37,3,3.48,3.48,0,0,1-3.63,2.53,3.2,3.2,0,0,1-3-1.48h0v1a.2.2,0,0,1-.22.22Zm6.51-3.08a7.18,7.18,0,0,0,.24-2.2,7.39,7.39,0,0,0-.24-2.2,2.49,2.49,0,0,0-4.64,0,6.79,6.79,0,0,0-.24,2.2,6.63,6.63,0,0,0,.24,2.2,2.48,2.48,0,0,0,4.64,0Z"/><path d="M610.89,43.2a.2.2,0,0,1-.22-.22v-.92h0a3.46,3.46,0,0,1-3.12,1.39c-2,0-3.54-1-3.54-3.17S605.52,37,608.1,37h2.4c.09,0,.13,0,.13-.13v-.77c0-1.45-.57-2.07-2.53-2.07a4.07,4.07,0,0,0-2.55.75.2.2,0,0,1-.31,0l-.59-1a.22.22,0,0,1,0-.3,5.81,5.81,0,0,1,3.59-1c3,0,4.13,1,4.13,3.59v7a.2.2,0,0,1-.22.22Zm-.26-3.41V38.63c0-.09,0-.13-.13-.13h-2.11c-1.83,0-2.62.52-2.62,1.71s.79,1.65,2.2,1.65C609.62,41.86,610.63,41.09,610.63,39.79Z"/><path d="M612.87,47.16a.2.2,0,0,1-.22-.22V45.67a.21.21,0,0,1,.22-.22h.36c1,0,1.38-.29,1.38-1.41V32.88a.21.21,0,0,1,.22-.22h1.41a.21.21,0,0,1,.22.22V44c0,2.26-1,3.16-3.15,3.16Zm1.92-16.87a.21.21,0,0,1-.22-.22V28.46a.21.21,0,0,1,.22-.22h1.49a.2.2,0,0,1,.22.22v1.61a.2.2,0,0,1-.22.22Z"/><path d="M618.46,40.61a8,8,0,0,1-.35-2.69,7.92,7.92,0,0,1,.35-2.66,4.47,4.47,0,0,1,8.32,0,7.92,7.92,0,0,1,.35,2.66,8,8,0,0,1-.35,2.69,4.47,4.47,0,0,1-8.32,0Zm6.54-.53a7.09,7.09,0,0,0,.24-2.16,6.91,6.91,0,0,0-.24-2.13,2.54,2.54,0,0,0-4.76,0,6.91,6.91,0,0,0-.24,2.13,7.09,7.09,0,0,0,.24,2.16,2.54,2.54,0,0,0,4.76,0Z"/></g></g></svg>