<svg xmlns="http://www.w3.org/2000/svg" viewBox="0 0 383.17 72.85"><title>5c</title><g id="Capa_2" data-name="Capa 2"><g id="answer_copia" data-name="answer copia"><path d="M.09,14.81a.26.26,0,0,1,0-.36L1.12,13.2a.21.21,0,0,1,.33,0A7.53,7.53,0,0,0,6,14.86c2.26,0,3.6-1.13,3.6-2.79,0-1.39-.79-2.32-3.4-2.66l-.82-.12C2.22,8.86.59,7.34.59,4.78.59,1.87,2.68,0,5.92,0a8.65,8.65,0,0,1,5,1.51.22.22,0,0,1,0,.34l-.81,1.32a.24.24,0,0,1-.34.05A7.18,7.18,0,0,0,5.85,2c-2,0-3.1,1.08-3.1,2.64,0,1.37.91,2.28,3.43,2.62L7,7.37c3.2.43,4.8,1.89,4.8,4.56,0,2.86-2,4.92-5.95,4.92A9,9,0,0,1,.09,14.81Z"/><path d="M14.22,13.73a9,9,0,0,1-.38-2.9,8.93,8.93,0,0,1,.36-2.91,4.45,4.45,0,0,1,4.51-3.1,4.45,4.45,0,0,1,4.51,3.1,10.08,10.08,0,0,1,.36,3.29.23.23,0,0,1-.26.24H16.05c-.1,0-.15.05-.15.14a4.37,4.37,0,0,0,.19,1.4A2.84,2.84,0,0,0,19,15,3.74,3.74,0,0,0,22,13.71c.12-.13.24-.15.36-.05l1,.89a.21.21,0,0,1,0,.33,5.59,5.59,0,0,1-4.49,2A4.45,4.45,0,0,1,14.22,13.73Zm7.15-3.89c.1,0,.15-.05.15-.14a4.06,4.06,0,0,0-.17-1.3,2.59,2.59,0,0,0-2.64-1.8,2.59,2.59,0,0,0-2.64,1.8,4.06,4.06,0,0,0-.17,1.3c0,.09,0,.14.15.14Z"/><path d="M38.82,16.59a.23.23,0,0,1-.24-.24V15.24h0a3.52,3.52,0,0,1-3.27,1.61,3.81,3.81,0,0,1-4-2.76,9.58,9.58,0,0,1-.41-3.26,9.63,9.63,0,0,1,.41-3.25,3.81,3.81,0,0,1,4-2.76,3.51,3.51,0,0,1,3.27,1.59h0V.5a.23.23,0,0,1,.24-.24h1.54A.23.23,0,0,1,40.6.5V16.35a.23.23,0,0,1-.24.24Zm-.5-3.36a7.51,7.51,0,0,0,.26-2.4,7.62,7.62,0,0,0-.26-2.41A2.44,2.44,0,0,0,35.77,6.7a2.45,2.45,0,0,0-2.52,1.72A8.33,8.33,0,0,0,33,10.83a8.09,8.09,0,0,0,.26,2.4,2.71,2.71,0,0,0,5.07,0Z"/><path d="M43.74,13.73a9,9,0,0,1-.38-2.9,8.93,8.93,0,0,1,.36-2.91,4.44,4.44,0,0,1,4.51-3.1,4.45,4.45,0,0,1,4.51,3.1,10.08,10.08,0,0,1,.36,3.29.23.23,0,0,1-.26.24H45.56a.13.13,0,0,0-.14.14,4.37,4.37,0,0,0,.19,1.4,2.84,2.84,0,0,0,2.91,2,3.74,3.74,0,0,0,2.95-1.27c.12-.13.24-.15.36-.05l1,.89a.21.21,0,0,1,0,.33,5.59,5.59,0,0,1-4.49,2A4.45,4.45,0,0,1,43.74,13.73Zm7.15-3.89c.1,0,.15-.05.15-.14a4.06,4.06,0,0,0-.17-1.3,2.84,2.84,0,0,0-5.28,0,4.06,4.06,0,0,0-.17,1.3.13.13,0,0,0,.14.14Z"/><path d="M58.62,16.71c-2,0-2.81-1-2.81-3V.5a.23.23,0,0,1,.24-.24h1.54a.23.23,0,0,1,.24.24V13.56c0,1,.36,1.27,1.15,1.27h.46a.23.23,0,0,1,.24.24v1.4a.23.23,0,0,1-.24.24Z"/><path d="M62.22,2.5A.23.23,0,0,1,62,2.26V.5a.23.23,0,0,1,.24-.24h1.63a.23.23,0,0,1,.24.24V2.26a.23.23,0,0,1-.24.24Zm.05,14.09a.23.23,0,0,1-.24-.24v-11a.22.22,0,0,1,.24-.24h1.54a.23.23,0,0,1,.24.24v11a.23.23,0,0,1-.24.24Z"/><path d="M82.19,16.59a.23.23,0,0,1-.24-.24V9.63c0-1.85-.84-2.93-2.57-2.93a2.59,2.59,0,0,0-2.64,2.8v6.85a.23.23,0,0,1-.24.24H75a.23.23,0,0,1-.24-.24V9.63c0-1.85-.84-2.93-2.57-2.93a2.58,2.58,0,0,0-2.64,2.8v6.85a.23.23,0,0,1-.24.24H67.74a.23.23,0,0,1-.24-.24v-11a.23.23,0,0,1,.24-.24h1.54a.23.23,0,0,1,.24.24v1h0a3.66,3.66,0,0,1,3.22-1.56,3.62,3.62,0,0,1,3.36,1.8h0a4.29,4.29,0,0,1,3.72-1.8C82.53,4.82,84,6.53,84,9.14v7.21a.23.23,0,0,1-.24.24Z"/><path d="M87.49,2.5a.23.23,0,0,1-.24-.24V.5a.23.23,0,0,1,.24-.24h1.63a.23.23,0,0,1,.24.24V2.26a.23.23,0,0,1-.24.24Zm.05,14.09a.23.23,0,0,1-.24-.24v-11a.23.23,0,0,1,.24-.24h1.54a.23.23,0,0,1,.24.24v11a.23.23,0,0,1-.24.24Z"/><path d="M96.11,16.71c-2.23,0-3.1-1-3.1-3.27V6.86a.13.13,0,0,0-.14-.14h-1a.23.23,0,0,1-.24-.24V5.33a.22.22,0,0,1,.24-.24h1c.09,0,.14,0,.14-.15V1.7a.23.23,0,0,1,.24-.24h1.54A.23.23,0,0,1,95,1.7V4.94c0,.1,0,.15.14.15H97a.23.23,0,0,1,.24.24V6.48a.23.23,0,0,1-.24.24H95.17a.13.13,0,0,0-.14.14v6.51c0,1.15.43,1.46,1.46,1.46H97a.23.23,0,0,1,.24.24v1.4a.23.23,0,0,1-.24.24Z"/><path d="M106.84,16.59a.23.23,0,0,1-.24-.24v-1h0a3.77,3.77,0,0,1-3.41,1.51c-2.18,0-3.86-1.13-3.86-3.46s1.68-3.55,4.49-3.55h2.61c.1,0,.15-.05.15-.14V8.86c0-1.59-.63-2.26-2.76-2.26a4.5,4.5,0,0,0-2.79.82c-.12.09-.26.09-.33,0L100,6.29a.26.26,0,0,1,0-.34A6.38,6.38,0,0,1,104,4.82c3.26,0,4.51,1.08,4.51,3.92v7.61a.23.23,0,0,1-.24.24Zm-.29-3.72V11.59c0-.09,0-.14-.15-.14h-2.3c-2,0-2.86.57-2.86,1.87s.87,1.8,2.4,1.8C105.44,15.12,106.55,14.28,106.55,12.87Z"/><path d="M116.34,15.12a.22.22,0,0,1,0-.33l1-1.06a.23.23,0,0,1,.34,0,5.6,5.6,0,0,0,3.55,1.32c1.68,0,2.52-.72,2.52-1.75s-.43-1.42-2.23-1.61l-1.22-.12c-2.26-.24-3.44-1.37-3.44-3.24,0-2.19,1.56-3.51,4.28-3.51A6.88,6.88,0,0,1,125.2,6.1a.22.22,0,0,1,0,.33l-.81,1a.24.24,0,0,1-.34,0A6,6,0,0,0,121,6.58c-1.44,0-2.19.64-2.19,1.58s.55,1.39,2.26,1.56l1.2.12c2.33.22,3.46,1.39,3.46,3.24,0,2.26-1.64,3.77-4.64,3.77A7.13,7.13,0,0,1,116.34,15.12Z"/><path d="M128.1,13.75a8.45,8.45,0,0,1-.38-2.92,8.43,8.43,0,0,1,.38-2.91,4.87,4.87,0,0,1,9.07,0,8.4,8.4,0,0,1,.39,2.91,8.42,8.42,0,0,1-.39,2.92,4.87,4.87,0,0,1-9.07,0Zm7.13-.57a7.64,7.64,0,0,0,.26-2.35,7.41,7.41,0,0,0-.26-2.33,2.77,2.77,0,0,0-5.19,0,7.41,7.41,0,0,0-.26,2.33,7.64,7.64,0,0,0,.26,2.35,2.77,2.77,0,0,0,5.19,0Z"/><path d="M143.07,16.71c-2,0-2.8-1-2.8-3V.5a.23.23,0,0,1,.24-.24H142a.23.23,0,0,1,.24.24V13.56c0,1,.36,1.27,1.16,1.27h.45a.23.23,0,0,1,.24.24v1.4a.23.23,0,0,1-.24.24Z"/><path d="M146.17,13.75a8.7,8.7,0,0,1-.38-2.92,8.68,8.68,0,0,1,.38-2.91,4.87,4.87,0,0,1,9.07,0,8.4,8.4,0,0,1,.39,2.91,8.42,8.42,0,0,1-.39,2.92,4.87,4.87,0,0,1-9.07,0Zm7.13-.57a7.64,7.64,0,0,0,.26-2.35,7.41,7.41,0,0,0-.26-2.33,2.77,2.77,0,0,0-5.19,0,7.41,7.41,0,0,0-.26,2.33,7.64,7.64,0,0,0,.26,2.35,2.77,2.77,0,0,0,5.19,0Z"/><path d="M163.35,13.73a9,9,0,0,1-.38-2.9,8.93,8.93,0,0,1,.36-2.91,4.83,4.83,0,0,1,9,0,9.73,9.73,0,0,1,.37,3.29.24.24,0,0,1-.27.24h-7.27c-.1,0-.15.05-.15.14a4.33,4.33,0,0,0,.2,1.4,2.83,2.83,0,0,0,2.9,2,3.74,3.74,0,0,0,3-1.27c.12-.13.24-.15.36-.05l1,.89a.21.21,0,0,1,0,.33,5.59,5.59,0,0,1-4.49,2A4.46,4.46,0,0,1,163.35,13.73Zm7.16-3.89a.13.13,0,0,0,.14-.14,4.06,4.06,0,0,0-.17-1.3,2.84,2.84,0,0,0-5.28,0A4.06,4.06,0,0,0,165,9.7c0,.09.05.14.15.14Z"/><path d="M182.94,16.59a.23.23,0,0,1-.24-.24V9.63c0-1.85-.84-2.93-2.57-2.93a2.58,2.58,0,0,0-2.64,2.8v6.85a.23.23,0,0,1-.24.24h-1.54a.23.23,0,0,1-.24-.24v-11a.23.23,0,0,1,.24-.24h1.54a.23.23,0,0,1,.24.24v1h0a3.67,3.67,0,0,1,3.22-1.56c2.5,0,4,1.71,4,4.32v7.21a.23.23,0,0,1-.24.24Z"/><path d="M193,7.92a4.46,4.46,0,0,1,4.54-3.1,4.62,4.62,0,0,1,3.94,1.95c.07.12.07.21-.08.33l-1,.87a.22.22,0,0,1-.34,0,2.82,2.82,0,0,0-2.47-1.24A2.5,2.5,0,0,0,195,8.5a7.75,7.75,0,0,0-.26,2.33,7.81,7.81,0,0,0,.26,2.35,2.5,2.5,0,0,0,2.57,1.8A2.82,2.82,0,0,0,200,13.73a.22.22,0,0,1,.34,0l1,.86c.15.12.15.22.08.34a4.62,4.62,0,0,1-3.94,1.94,4.45,4.45,0,0,1-4.54-3.1,10.08,10.08,0,0,1-.36-2.92A10.1,10.1,0,0,1,193,7.92Z"/><path d="M210.85,16.59a.23.23,0,0,1-.24-.24v-1h0a3.79,3.79,0,0,1-3.41,1.51c-2.19,0-3.87-1.13-3.87-3.46S205,9.84,207.8,9.84h2.62a.13.13,0,0,0,.14-.14V8.86c0-1.59-.62-2.26-2.76-2.26a4.46,4.46,0,0,0-2.78.82.22.22,0,0,1-.34,0L204,6.29a.26.26,0,0,1,.05-.34A6.4,6.4,0,0,1,208,4.82c3.27,0,4.52,1.08,4.52,3.92v7.61a.23.23,0,0,1-.24.24Zm-.29-3.72V11.59a.13.13,0,0,0-.14-.14h-2.31c-2,0-2.85.57-2.85,1.87s.86,1.8,2.4,1.8C209.46,15.12,210.56,14.28,210.56,12.87Z"/><path d="M215.07,15.12a.24.24,0,0,1,0-.33l1-1.06a.22.22,0,0,1,.33,0A5.63,5.63,0,0,0,220,15.05c1.68,0,2.52-.72,2.52-1.75s-.44-1.42-2.24-1.61L219,11.57c-2.26-.24-3.43-1.37-3.43-3.24,0-2.19,1.56-3.51,4.27-3.51a6.88,6.88,0,0,1,4.08,1.28.23.23,0,0,1,0,.33l-.82,1a.23.23,0,0,1-.33,0,6.07,6.07,0,0,0-3.1-.93c-1.44,0-2.18.64-2.18,1.58s.55,1.39,2.25,1.56l1.2.12c2.33.22,3.46,1.39,3.46,3.24,0,2.26-1.63,3.77-4.63,3.77A7.14,7.14,0,0,1,215.07,15.12Z"/><path d="M226.83,13.75a8.7,8.7,0,0,1-.38-2.92,8.68,8.68,0,0,1,.38-2.91,4.87,4.87,0,0,1,9.08,0,8.68,8.68,0,0,1,.38,2.91,8.7,8.7,0,0,1-.38,2.92,4.87,4.87,0,0,1-9.08,0Zm7.13-.57a7.59,7.59,0,0,0,.27-2.35A7.36,7.36,0,0,0,234,8.5a2.76,2.76,0,0,0-5.18,0,7.36,7.36,0,0,0-.27,2.33,7.59,7.59,0,0,0,.27,2.35,2.76,2.76,0,0,0,5.18,0Z"/><path d="M251.53,16.59a.23.23,0,0,1-.24-.24V15.24h0A3.52,3.52,0,0,1,248,16.85a3.81,3.81,0,0,1-4-2.76,9.58,9.58,0,0,1-.41-3.26A9.63,9.63,0,0,1,244,7.58a3.81,3.81,0,0,1,4-2.76,3.51,3.51,0,0,1,3.27,1.59h0V.5a.23.23,0,0,1,.24-.24h1.54a.23.23,0,0,1,.24.24V16.35a.23.23,0,0,1-.24.24Zm-.5-3.36a7.51,7.51,0,0,0,.26-2.4A7.62,7.62,0,0,0,251,8.42a2.73,2.73,0,0,0-5.07,0,8.33,8.33,0,0,0-.26,2.41,8.09,8.09,0,0,0,.26,2.4,2.71,2.71,0,0,0,5.07,0Z"/><path d="M256.45,13.73a8.94,8.94,0,0,1-.39-2.9,8.93,8.93,0,0,1,.36-2.91,4.84,4.84,0,0,1,9,0,10.08,10.08,0,0,1,.36,3.29.24.24,0,0,1-.26.24h-7.28a.13.13,0,0,0-.14.14,4.37,4.37,0,0,0,.19,1.4,2.84,2.84,0,0,0,2.91,2,3.77,3.77,0,0,0,2.95-1.27c.12-.13.24-.15.36-.05l1,.89a.21.21,0,0,1,0,.33,5.62,5.62,0,0,1-4.49,2A4.45,4.45,0,0,1,256.45,13.73Zm7.15-3.89a.12.12,0,0,0,.14-.14,4.08,4.08,0,0,0-.16-1.3,2.84,2.84,0,0,0-5.28,0,4.06,4.06,0,0,0-.17,1.3.13.13,0,0,0,.14.14Z"/><path d="M277.18,16.71c-2.23,0-3.09-1-3.09-3.27V6.86c0-.09,0-.14-.15-.14h-1a.23.23,0,0,1-.24-.24V5.33a.23.23,0,0,1,.24-.24h1a.13.13,0,0,0,.15-.15V1.7a.23.23,0,0,1,.24-.24h1.53a.23.23,0,0,1,.24.24V4.94a.13.13,0,0,0,.15.15h1.82a.22.22,0,0,1,.24.24V6.48a.23.23,0,0,1-.24.24h-1.82c-.1,0-.15,0-.15.14v6.51c0,1.15.44,1.46,1.47,1.46h.5a.23.23,0,0,1,.24.24v1.4a.23.23,0,0,1-.24.24Z"/><path d="M281.19,16.59a.23.23,0,0,1-.24-.24v-11a.23.23,0,0,1,.24-.24h1.54a.23.23,0,0,1,.24.24V6.5h0A3.21,3.21,0,0,1,286,4.82a3.51,3.51,0,0,1,2.35.87c.12.12.15.21.05.33l-.89,1.18a.21.21,0,0,1-.33,0,3.23,3.23,0,0,0-1.78-.55c-1.75,0-2.47,1.36-2.47,3.36v6.29a.23.23,0,0,1-.24.24Z"/><path d="M296.7,16.59a.23.23,0,0,1-.24-.24v-1h0A3.77,3.77,0,0,1,293,16.85c-2.18,0-3.86-1.13-3.86-3.46s1.68-3.55,4.49-3.55h2.62a.13.13,0,0,0,.14-.14V8.86c0-1.59-.62-2.26-2.76-2.26a4.5,4.5,0,0,0-2.79.82c-.12.09-.26.09-.33,0l-.65-1.1a.26.26,0,0,1,.05-.34,6.38,6.38,0,0,1,3.91-1.13c3.27,0,4.51,1.08,4.51,3.92v7.61a.23.23,0,0,1-.24.24Zm-.29-3.72V11.59a.13.13,0,0,0-.14-.14H294c-2,0-2.86.57-2.86,1.87s.87,1.8,2.4,1.8C295.31,15.12,296.41,14.28,296.41,12.87Z"/><path d="M302,16.59a.23.23,0,0,1-.24-.24V.5A.23.23,0,0,1,302,.26h1.54a.23.23,0,0,1,.24.24V6.41h0A3.51,3.51,0,0,1,307,4.82a3.81,3.81,0,0,1,4,2.76,9.63,9.63,0,0,1,.41,3.25,9.58,9.58,0,0,1-.41,3.26,3.81,3.81,0,0,1-4,2.76,3.52,3.52,0,0,1-3.27-1.61h0v1.11a.23.23,0,0,1-.24.24Zm7.11-3.36a8.09,8.09,0,0,0,.26-2.4,8.33,8.33,0,0,0-.26-2.41,2.73,2.73,0,0,0-5.07,0,7.62,7.62,0,0,0-.26,2.41,7.51,7.51,0,0,0,.26,2.4,2.71,2.71,0,0,0,5.07,0Z"/><path d="M321.11,16.59a.23.23,0,0,1-.24-.24v-1h0a3.77,3.77,0,0,1-3.41,1.51c-2.18,0-3.86-1.13-3.86-3.46s1.68-3.55,4.49-3.55h2.61c.1,0,.15-.05.15-.14V8.86c0-1.59-.63-2.26-2.76-2.26a4.5,4.5,0,0,0-2.79.82c-.12.09-.26.09-.33,0l-.65-1.1a.26.26,0,0,1,0-.34,6.38,6.38,0,0,1,3.91-1.13c3.26,0,4.51,1.08,4.51,3.92v7.61a.23.23,0,0,1-.24.24Zm-.29-3.72V11.59c0-.09-.05-.14-.15-.14h-2.3c-2,0-2.86.57-2.86,1.87s.87,1.8,2.4,1.8C319.71,15.12,320.82,14.28,320.82,12.87Z"/><path d="M324.23,20.91a.23.23,0,0,1-.25-.24v-1.4a.23.23,0,0,1,.25-.24h.38c1.13,0,1.51-.31,1.51-1.53V5.33a.23.23,0,0,1,.24-.24h1.54a.23.23,0,0,1,.24.24V17.45c0,2.47-1.11,3.46-3.43,3.46ZM326.31,2.5a.23.23,0,0,1-.24-.24V.5a.23.23,0,0,1,.24-.24H328a.23.23,0,0,1,.24.24V2.26a.23.23,0,0,1-.24.24Z"/><path d="M338.55,16.59a.23.23,0,0,1-.24-.24v-1h0a3.79,3.79,0,0,1-3.41,1.51c-2.18,0-3.86-1.13-3.86-3.46s1.68-3.55,4.48-3.55h2.62a.12.12,0,0,0,.14-.14V8.86c0-1.59-.62-2.26-2.76-2.26a4.46,4.46,0,0,0-2.78.82.22.22,0,0,1-.34,0l-.64-1.1a.26.26,0,0,1,0-.34,6.42,6.42,0,0,1,3.92-1.13c3.26,0,4.51,1.08,4.51,3.92v7.61a.23.23,0,0,1-.24.24Zm-.29-3.72V11.59a.12.12,0,0,0-.14-.14h-2.3c-2,0-2.86.57-2.86,1.87s.86,1.8,2.4,1.8C337.16,15.12,338.26,14.28,338.26,12.87Z"/><path d="M343.81,16.59a.23.23,0,0,1-.24-.24v-11a.22.22,0,0,1,.24-.24h1.53a.22.22,0,0,1,.24.24V6.5h0a3.2,3.2,0,0,1,3.05-1.68,3.53,3.53,0,0,1,2.35.87c.12.12.14.21.05.33l-.89,1.18a.23.23,0,0,1-.34,0,3.17,3.17,0,0,0-1.77-.55c-1.75,0-2.48,1.36-2.48,3.36v6.29a.23.23,0,0,1-.24.24Z"/><path d="M357.9,13.73a8.94,8.94,0,0,1-.39-2.9,8.93,8.93,0,0,1,.36-2.91,4.84,4.84,0,0,1,9,0,10.08,10.08,0,0,1,.36,3.29.24.24,0,0,1-.27.24h-7.27a.12.12,0,0,0-.14.14,4.37,4.37,0,0,0,.19,1.4,2.83,2.83,0,0,0,2.9,2,3.74,3.74,0,0,0,2.95-1.27c.12-.13.24-.15.36-.05l1,.89a.21.21,0,0,1,0,.33,5.59,5.59,0,0,1-4.49,2A4.44,4.44,0,0,1,357.9,13.73Zm7.15-3.89a.12.12,0,0,0,.14-.14A3.8,3.8,0,0,0,365,8.4a2.84,2.84,0,0,0-5.28,0,4.08,4.08,0,0,0-.16,1.3.12.12,0,0,0,.14.14Z"/><path d="M377.48,16.59a.23.23,0,0,1-.24-.24V9.63c0-1.85-.84-2.93-2.57-2.93A2.58,2.58,0,0,0,372,9.5v6.85a.23.23,0,0,1-.24.24h-1.53a.23.23,0,0,1-.24-.24v-11a.22.22,0,0,1,.24-.24h1.53a.22.22,0,0,1,.24.24v1h0a3.64,3.64,0,0,1,3.21-1.56c2.5,0,4,1.71,4,4.32v7.21a.23.23,0,0,1-.24.24Z"/><path d="M1.07,48.91a.23.23,0,0,1-.24-.24V33.33a.23.23,0,0,1,.24-.24H2.61a.23.23,0,0,1,.24.24v1.08h0a3.49,3.49,0,0,1,3.26-1.59,3.79,3.79,0,0,1,4,2.76,9.38,9.38,0,0,1,.41,3.25,9.34,9.34,0,0,1-.41,3.26,3.79,3.79,0,0,1-4,2.76,3.5,3.5,0,0,1-3.26-1.61h0v5.43a.23.23,0,0,1-.24.24Zm7.1-7.68a7.72,7.72,0,0,0,.27-2.4,8,8,0,0,0-.27-2.41A2.43,2.43,0,0,0,5.65,34.7a2.43,2.43,0,0,0-2.54,1.72,7.62,7.62,0,0,0-.26,2.41,7.51,7.51,0,0,0,.26,2.4A2.46,2.46,0,0,0,5.65,43,2.46,2.46,0,0,0,8.17,41.23Z"/><path d="M13,41.75a8.67,8.67,0,0,1-.39-2.92A8.64,8.64,0,0,1,13,35.92a4.43,4.43,0,0,1,4.53-3.1A4.44,4.44,0,0,1,22,35.92a8.4,8.4,0,0,1,.39,2.91A8.42,8.42,0,0,1,22,41.75a4.46,4.46,0,0,1-4.54,3.1A4.46,4.46,0,0,1,13,41.75Zm7.13-.57a7.64,7.64,0,0,0,.26-2.35,7.41,7.41,0,0,0-.26-2.33,2.56,2.56,0,0,0-2.6-1.8,2.55,2.55,0,0,0-2.59,1.8,7.41,7.41,0,0,0-.26,2.33,7.64,7.64,0,0,0,.26,2.35A2.56,2.56,0,0,0,17.48,43,2.57,2.57,0,0,0,20.08,41.18Z"/><path d="M24.37,43.12a.24.24,0,0,1,0-.33l1-1.06a.22.22,0,0,1,.33,0,5.62,5.62,0,0,0,3.55,1.32c1.69,0,2.53-.72,2.53-1.75s-.44-1.42-2.24-1.61l-1.22-.12c-2.26-.24-3.43-1.37-3.43-3.24,0-2.19,1.56-3.51,4.27-3.51a6.88,6.88,0,0,1,4.08,1.28.23.23,0,0,1,.05.33l-.82,1a.23.23,0,0,1-.33,0,6.07,6.07,0,0,0-3.1-.93c-1.44,0-2.18.64-2.18,1.58s.55,1.39,2.25,1.56l1.2.12c2.33.22,3.46,1.39,3.46,3.24,0,2.26-1.63,3.77-4.63,3.77A7.14,7.14,0,0,1,24.37,43.12Z"/><path d="M39.78,44.71c-2.23,0-3.1-1-3.1-3.27V34.86a.12.12,0,0,0-.14-.14h-1a.23.23,0,0,1-.24-.24V33.33a.23.23,0,0,1,.24-.24h1c.1,0,.14-.05.14-.15V29.7a.23.23,0,0,1,.24-.24h1.54a.23.23,0,0,1,.24.24v3.24c0,.1,0,.15.14.15h1.83a.23.23,0,0,1,.24.24v1.15a.23.23,0,0,1-.24.24H38.84a.13.13,0,0,0-.14.14v6.51c0,1.15.43,1.46,1.46,1.46h.51a.23.23,0,0,1,.24.24v1.4a.23.23,0,0,1-.24.24Z"/><path d="M43.24,41.73a8.94,8.94,0,0,1-.39-2.9,8.93,8.93,0,0,1,.36-2.91,4.46,4.46,0,0,1,4.52-3.1,4.46,4.46,0,0,1,4.51,3.1,10.08,10.08,0,0,1,.36,3.29.24.24,0,0,1-.27.24H45.06a.13.13,0,0,0-.14.14,4.37,4.37,0,0,0,.19,1.4A2.83,2.83,0,0,0,48,43a3.78,3.78,0,0,0,3-1.27c.12-.13.24-.15.35-.05l1,.89a.21.21,0,0,1,0,.33,5.59,5.59,0,0,1-4.48,2A4.45,4.45,0,0,1,43.24,41.73Zm7.15-3.89a.13.13,0,0,0,.14-.14,4.39,4.39,0,0,0-.16-1.3,2.84,2.84,0,0,0-5.29,0,4.39,4.39,0,0,0-.16,1.3.13.13,0,0,0,.14.14Z"/><path d="M54.56,43.12a.24.24,0,0,1,0-.33l1-1.06a.23.23,0,0,1,.34,0,5.6,5.6,0,0,0,3.55,1.32c1.68,0,2.52-.72,2.52-1.75s-.43-1.42-2.23-1.61l-1.23-.12c-2.26-.24-3.43-1.37-3.43-3.24,0-2.19,1.56-3.51,4.27-3.51a6.88,6.88,0,0,1,4.08,1.28.23.23,0,0,1,0,.33l-.82,1a.23.23,0,0,1-.33,0,6.07,6.07,0,0,0-3.1-.93c-1.44,0-2.18.64-2.18,1.58s.55,1.39,2.25,1.56l1.2.12c2.33.22,3.46,1.39,3.46,3.24,0,2.26-1.63,3.77-4.63,3.77A7.14,7.14,0,0,1,54.56,43.12Z"/><path d="M71.6,41.75a8.7,8.7,0,0,1-.38-2.92,8.68,8.68,0,0,1,.38-2.91,4.87,4.87,0,0,1,9.08,0,8.68,8.68,0,0,1,.38,2.91,8.7,8.7,0,0,1-.38,2.92,4.87,4.87,0,0,1-9.08,0Zm7.13-.57A7.59,7.59,0,0,0,79,38.83a7.36,7.36,0,0,0-.27-2.33,2.76,2.76,0,0,0-5.18,0,7.36,7.36,0,0,0-.27,2.33,7.59,7.59,0,0,0,.27,2.35,2.76,2.76,0,0,0,5.18,0Z"/><path d="M88.31,43.12a.22.22,0,0,1,0-.33l1-1.06a.23.23,0,0,1,.34,0,5.6,5.6,0,0,0,3.55,1.32c1.68,0,2.52-.72,2.52-1.75s-.43-1.42-2.23-1.61l-1.23-.12c-2.25-.24-3.43-1.37-3.43-3.24,0-2.19,1.56-3.51,4.27-3.51a6.88,6.88,0,0,1,4.08,1.28.23.23,0,0,1,0,.33l-.81,1a.24.24,0,0,1-.34,0,6,6,0,0,0-3.1-.93c-1.44,0-2.18.64-2.18,1.58s.55,1.39,2.26,1.56l1.2.12c2.32.22,3.45,1.39,3.45,3.24,0,2.26-1.63,3.77-4.63,3.77A7.11,7.11,0,0,1,88.31,43.12Z"/><path d="M100.57,30.5a.23.23,0,0,1-.24-.24V28.5a.23.23,0,0,1,.24-.24h1.63a.23.23,0,0,1,.24.24v1.76a.23.23,0,0,1-.24.24Zm.05,14.09a.23.23,0,0,1-.24-.24v-11a.23.23,0,0,1,.24-.24h1.54a.23.23,0,0,1,.24.24v11a.23.23,0,0,1-.24.24Z"/><path d="M109.19,44.71c-2.23,0-3.1-1-3.1-3.27V34.86a.13.13,0,0,0-.14-.14h-1a.23.23,0,0,1-.24-.24V33.33a.22.22,0,0,1,.24-.24h1c.09,0,.14-.05.14-.15V29.7a.23.23,0,0,1,.24-.24h1.54a.23.23,0,0,1,.24.24v3.24c0,.1,0,.15.14.15h1.83a.23.23,0,0,1,.24.24v1.15a.23.23,0,0,1-.24.24h-1.83a.13.13,0,0,0-.14.14v6.51c0,1.15.43,1.46,1.46,1.46h.51a.23.23,0,0,1,.24.24v1.4a.23.23,0,0,1-.24.24Z"/><path d="M113.15,30.5a.23.23,0,0,1-.24-.24V28.5a.23.23,0,0,1,.24-.24h1.63a.23.23,0,0,1,.24.24v1.76a.23.23,0,0,1-.24.24Zm0,14.09a.23.23,0,0,1-.24-.24v-11a.22.22,0,0,1,.24-.24h1.53a.22.22,0,0,1,.24.24v11a.23.23,0,0,1-.24.24Z"/><path d="M118.11,41.75a8.7,8.7,0,0,1-.38-2.92,8.68,8.68,0,0,1,.38-2.91,4.87,4.87,0,0,1,9.08,0,8.68,8.68,0,0,1,.38,2.91,8.7,8.7,0,0,1-.38,2.92,4.87,4.87,0,0,1-9.08,0Zm7.13-.57a7.29,7.29,0,0,0,.27-2.35,7.08,7.08,0,0,0-.27-2.33,2.76,2.76,0,0,0-5.18,0,7.41,7.41,0,0,0-.26,2.33,7.64,7.64,0,0,0,.26,2.35,2.76,2.76,0,0,0,5.18,0Z"/><path d="M129.54,43.12a.22.22,0,0,1,0-.33l1-1.06a.23.23,0,0,1,.34,0,5.6,5.6,0,0,0,3.55,1.32c1.68,0,2.52-.72,2.52-1.75s-.43-1.42-2.23-1.61l-1.22-.12c-2.26-.24-3.44-1.37-3.44-3.24,0-2.19,1.56-3.51,4.27-3.51a6.91,6.91,0,0,1,4.09,1.28.22.22,0,0,1,0,.33l-.81,1a.24.24,0,0,1-.34,0,6,6,0,0,0-3.1-.93c-1.44,0-2.18.64-2.18,1.58s.55,1.39,2.26,1.56l1.2.12c2.33.22,3.45,1.39,3.45,3.24,0,2.26-1.63,3.77-4.63,3.77A7.13,7.13,0,0,1,129.54,43.12Z"/><path d="M146.55,35.92a4.46,4.46,0,0,1,4.54-3.1,4.62,4.62,0,0,1,3.94,2c.07.12.07.21-.08.33l-1,.87a.22.22,0,0,1-.34,0,2.82,2.82,0,0,0-2.47-1.24,2.5,2.5,0,0,0-2.57,1.8,7.75,7.75,0,0,0-.26,2.33,7.81,7.81,0,0,0,.26,2.35,2.5,2.5,0,0,0,2.57,1.8,2.82,2.82,0,0,0,2.47-1.25.22.22,0,0,1,.34,0l1,.86c.15.12.15.22.08.34a4.62,4.62,0,0,1-3.94,1.94,4.45,4.45,0,0,1-4.54-3.1,10.08,10.08,0,0,1-.36-2.92A10.1,10.1,0,0,1,146.55,35.92Z"/><path d="M157.14,41.75a8.42,8.42,0,0,1-.39-2.92,8.4,8.4,0,0,1,.39-2.91,4.87,4.87,0,0,1,9.07,0,8.43,8.43,0,0,1,.38,2.91,8.45,8.45,0,0,1-.38,2.92,4.87,4.87,0,0,1-9.07,0Zm7.13-.57a7.64,7.64,0,0,0,.26-2.35,7.41,7.41,0,0,0-.26-2.33,2.77,2.77,0,0,0-5.19,0,7.41,7.41,0,0,0-.26,2.33,7.64,7.64,0,0,0,.26,2.35,2.77,2.77,0,0,0,5.19,0Z"/><path d="M176.82,44.59a.23.23,0,0,1-.24-.24V37.63c0-1.85-.84-2.93-2.57-2.93a2.58,2.58,0,0,0-2.64,2.8v6.85a.23.23,0,0,1-.24.24h-1.54a.23.23,0,0,1-.24-.24v-11a.23.23,0,0,1,.24-.24h1.54a.23.23,0,0,1,.24.24v1.05h0a3.67,3.67,0,0,1,3.22-1.56c2.5,0,4,1.71,4,4.32v7.21a.23.23,0,0,1-.24.24Z"/><path d="M190.55,44.71c-2.24,0-3.1-1-3.1-3.27V34.86a.13.13,0,0,0-.14-.14h-1a.23.23,0,0,1-.24-.24V33.33a.22.22,0,0,1,.24-.24h1c.09,0,.14-.05.14-.15V29.7a.23.23,0,0,1,.24-.24h1.54a.23.23,0,0,1,.24.24v3.24c0,.1,0,.15.14.15h1.82a.22.22,0,0,1,.24.24v1.15a.23.23,0,0,1-.24.24h-1.82a.12.12,0,0,0-.14.14v6.51c0,1.15.43,1.46,1.46,1.46h.5a.23.23,0,0,1,.24.24v1.4a.23.23,0,0,1-.24.24Z"/><path d="M194.55,44.59a.23.23,0,0,1-.24-.24v-11a.23.23,0,0,1,.24-.24h1.54a.23.23,0,0,1,.24.24V34.5h0a3.23,3.23,0,0,1,3.05-1.68,3.51,3.51,0,0,1,2.35.87c.12.12.15.21.05.33l-.89,1.18a.21.21,0,0,1-.33,0,3.23,3.23,0,0,0-1.78-.55c-1.75,0-2.47,1.36-2.47,3.36v6.29a.23.23,0,0,1-.24.24Z"/><path d="M210.06,44.59a.23.23,0,0,1-.24-.24v-1h0a3.75,3.75,0,0,1-3.4,1.51c-2.19,0-3.87-1.13-3.87-3.46s1.68-3.55,4.49-3.55h2.62a.13.13,0,0,0,.14-.14v-.84c0-1.59-.62-2.26-2.76-2.26a4.44,4.44,0,0,0-2.78.82c-.13.09-.27.09-.34,0l-.65-1.1a.26.26,0,0,1,0-.34,6.38,6.38,0,0,1,3.91-1.13c3.27,0,4.51,1.08,4.51,3.92v7.61a.23.23,0,0,1-.24.24Zm-.29-3.72V39.59a.13.13,0,0,0-.14-.14h-2.31c-2,0-2.85.57-2.85,1.87s.86,1.8,2.4,1.8C208.67,43.12,209.77,42.28,209.77,40.87Zm-3.24-9.65c-.14,0-.22-.1-.14-.24l1.82-3a.44.44,0,0,1,.41-.24h1.58c.15,0,.22.12.12.24l-2.21,3a.47.47,0,0,1-.45.24Z"/><path d="M222.54,44.59a.23.23,0,0,1-.24-.24V37.63c0-1.85-.84-2.93-2.57-2.93a2.58,2.58,0,0,0-2.64,2.8v6.85a.23.23,0,0,1-.24.24h-1.54a.23.23,0,0,1-.24-.24v-11a.23.23,0,0,1,.24-.24h1.54a.23.23,0,0,1,.24.24v1.05h0a3.67,3.67,0,0,1,3.22-1.56c2.5,0,4,1.71,4,4.32v7.21a.23.23,0,0,1-.24.24Z"/><path d="M226.86,43.12a.22.22,0,0,1,0-.33l1-1.06a.23.23,0,0,1,.34,0,5.6,5.6,0,0,0,3.55,1.32c1.68,0,2.52-.72,2.52-1.75s-.43-1.42-2.23-1.61l-1.23-.12c-2.25-.24-3.43-1.37-3.43-3.24,0-2.19,1.56-3.51,4.27-3.51a6.88,6.88,0,0,1,4.08,1.28.23.23,0,0,1,0,.33l-.81,1a.24.24,0,0,1-.34,0,6,6,0,0,0-3.1-.93c-1.44,0-2.18.64-2.18,1.58s.55,1.39,2.25,1.56l1.21.12c2.32.22,3.45,1.39,3.45,3.24,0,2.26-1.63,3.77-4.63,3.77A7.11,7.11,0,0,1,226.86,43.12Z"/><path d="M239.12,30.5a.23.23,0,0,1-.24-.24V28.5a.23.23,0,0,1,.24-.24h1.63a.23.23,0,0,1,.24.24v1.76a.23.23,0,0,1-.24.24Zm0,14.09a.23.23,0,0,1-.24-.24v-11a.22.22,0,0,1,.24-.24h1.53a.22.22,0,0,1,.24.24v11a.23.23,0,0,1-.24.24Z"/><path d="M247.74,44.71c-2.24,0-3.1-1-3.1-3.27V34.86a.13.13,0,0,0-.14-.14h-1a.23.23,0,0,1-.24-.24V33.33a.22.22,0,0,1,.24-.24h1c.09,0,.14-.05.14-.15V29.7a.23.23,0,0,1,.24-.24h1.54a.23.23,0,0,1,.24.24v3.24c0,.1.05.15.14.15h1.83a.23.23,0,0,1,.24.24v1.15a.23.23,0,0,1-.24.24H246.8a.13.13,0,0,0-.14.14v6.51c0,1.15.43,1.46,1.46,1.46h.51a.23.23,0,0,1,.24.24v1.4a.23.23,0,0,1-.24.24Z"/><path d="M251.19,41.75a8.7,8.7,0,0,1-.38-2.92,8.68,8.68,0,0,1,.38-2.91,4.87,4.87,0,0,1,9.08,0,8.68,8.68,0,0,1,.38,2.91,8.7,8.7,0,0,1-.38,2.92,4.87,4.87,0,0,1-9.08,0Zm7.13-.57a7.59,7.59,0,0,0,.27-2.35,7.36,7.36,0,0,0-.27-2.33,2.76,2.76,0,0,0-5.18,0,7.08,7.08,0,0,0-.27,2.33,7.29,7.29,0,0,0,.27,2.35,2.76,2.76,0,0,0,5.18,0Z"/><path d="M275.89,44.59a.23.23,0,0,1-.24-.24V43.24h0a3.52,3.52,0,0,1-3.27,1.61,3.81,3.81,0,0,1-4-2.76,9.58,9.58,0,0,1-.41-3.26,9.63,9.63,0,0,1,.41-3.25,3.81,3.81,0,0,1,4-2.76,3.51,3.51,0,0,1,3.27,1.59h0V28.5a.23.23,0,0,1,.24-.24h1.54a.22.22,0,0,1,.23.24V44.35a.22.22,0,0,1-.23.24Zm-.5-3.36a7.51,7.51,0,0,0,.26-2.4,7.62,7.62,0,0,0-.26-2.41,2.73,2.73,0,0,0-5.07,0,8.33,8.33,0,0,0-.26,2.41,8.09,8.09,0,0,0,.26,2.4,2.71,2.71,0,0,0,5.07,0Z"/><path d="M280.81,41.73a8.94,8.94,0,0,1-.39-2.9,8.93,8.93,0,0,1,.36-2.91,4.84,4.84,0,0,1,9,0,10.08,10.08,0,0,1,.36,3.29.24.24,0,0,1-.27.24h-7.27a.13.13,0,0,0-.14.14,4.37,4.37,0,0,0,.19,1.4,2.84,2.84,0,0,0,2.9,2,3.78,3.78,0,0,0,3-1.27c.12-.13.24-.15.36-.05l1,.89a.21.21,0,0,1,0,.33,5.59,5.59,0,0,1-4.48,2A4.45,4.45,0,0,1,280.81,41.73ZM288,37.84a.12.12,0,0,0,.14-.14,4.08,4.08,0,0,0-.16-1.3,2.84,2.84,0,0,0-5.28,0,4.06,4.06,0,0,0-.17,1.3.13.13,0,0,0,.14.14Z"/><path d="M298.45,48.91a.23.23,0,0,1-.24-.24V33.33a.22.22,0,0,1,.24-.24H300a.23.23,0,0,1,.25.24v1.08h0a3.48,3.48,0,0,1,3.26-1.59,3.8,3.8,0,0,1,4,2.76,9.38,9.38,0,0,1,.41,3.25,9.34,9.34,0,0,1-.41,3.26,3.8,3.8,0,0,1-4,2.76,3.49,3.49,0,0,1-3.26-1.61h0v5.43a.23.23,0,0,1-.25.24Zm7.1-7.68a8,8,0,0,0,.27-2.4,8.29,8.29,0,0,0-.27-2.41,2.72,2.72,0,0,0-5.06,0,7.62,7.62,0,0,0-.26,2.41,7.51,7.51,0,0,0,.26,2.4,2.7,2.7,0,0,0,5.06,0Z"/><path d="M310.33,41.73a8.94,8.94,0,0,1-.39-2.9,8.62,8.62,0,0,1,.37-2.91,4.83,4.83,0,0,1,9,0,10.08,10.08,0,0,1,.36,3.29.24.24,0,0,1-.26.24h-7.28a.13.13,0,0,0-.14.14,4.37,4.37,0,0,0,.19,1.4,2.84,2.84,0,0,0,2.9,2,3.78,3.78,0,0,0,3-1.27c.12-.13.24-.15.36-.05l1,.89a.21.21,0,0,1,0,.33,5.62,5.62,0,0,1-4.49,2A4.45,4.45,0,0,1,310.33,41.73Zm7.15-3.89c.1,0,.15-.05.15-.14a4.06,4.06,0,0,0-.17-1.3,2.84,2.84,0,0,0-5.28,0,4.06,4.06,0,0,0-.17,1.3.13.13,0,0,0,.14.14Z"/><path d="M322.69,44.59a.23.23,0,0,1-.24-.24v-11a.22.22,0,0,1,.24-.24h1.54a.23.23,0,0,1,.24.24V34.5h0a3.2,3.2,0,0,1,3.05-1.68,3.53,3.53,0,0,1,2.35.87c.12.12.14.21.05.33l-.89,1.18a.23.23,0,0,1-.34,0,3.17,3.17,0,0,0-1.77-.55c-1.75,0-2.47,1.36-2.47,3.36v6.29a.23.23,0,0,1-.24.24Z"/><path d="M330.82,43.12a.24.24,0,0,1,0-.33l1-1.06a.22.22,0,0,1,.33,0,5.63,5.63,0,0,0,3.56,1.32c1.68,0,2.52-.72,2.52-1.75s-.44-1.42-2.24-1.61l-1.22-.12c-2.26-.24-3.43-1.37-3.43-3.24,0-2.19,1.56-3.51,4.27-3.51a6.88,6.88,0,0,1,4.08,1.28.23.23,0,0,1,.05.33l-.82,1a.23.23,0,0,1-.33,0,6.07,6.07,0,0,0-3.1-.93c-1.44,0-2.18.64-2.18,1.58s.55,1.39,2.25,1.56l1.2.12c2.33.22,3.46,1.39,3.46,3.24,0,2.26-1.63,3.77-4.63,3.77A7.14,7.14,0,0,1,330.82,43.12Z"/><path d="M342.58,41.75a8.7,8.7,0,0,1-.38-2.92,8.68,8.68,0,0,1,.38-2.91,4.87,4.87,0,0,1,9.08,0,8.68,8.68,0,0,1,.38,2.91,8.7,8.7,0,0,1-.38,2.92,4.87,4.87,0,0,1-9.08,0Zm7.13-.57a7.59,7.59,0,0,0,.27-2.35,7.36,7.36,0,0,0-.27-2.33,2.76,2.76,0,0,0-5.18,0,7.36,7.36,0,0,0-.27,2.33,7.59,7.59,0,0,0,.27,2.35,2.76,2.76,0,0,0,5.18,0Z"/><path d="M362.26,44.59a.23.23,0,0,1-.24-.24V37.63c0-1.85-.84-2.93-2.56-2.93a2.58,2.58,0,0,0-2.64,2.8v6.85a.23.23,0,0,1-.24.24H355a.23.23,0,0,1-.24-.24v-11a.23.23,0,0,1,.24-.24h1.54a.23.23,0,0,1,.24.24v1.05h0a3.66,3.66,0,0,1,3.22-1.56c2.49,0,4,1.71,4,4.32v7.21a.23.23,0,0,1-.24.24Z"/><path d="M374.34,44.59a.23.23,0,0,1-.24-.24v-1h0a3.77,3.77,0,0,1-3.41,1.51c-2.18,0-3.86-1.13-3.86-3.46s1.68-3.55,4.49-3.55h2.61c.1,0,.15-.05.15-.14v-.84c0-1.59-.63-2.26-2.76-2.26a4.5,4.5,0,0,0-2.79.82c-.12.09-.26.09-.33,0l-.65-1.1a.26.26,0,0,1,.05-.34,6.38,6.38,0,0,1,3.91-1.13c3.26,0,4.51,1.08,4.51,3.92v7.61a.23.23,0,0,1-.24.24Zm-.29-3.72V39.59c0-.09-.05-.14-.15-.14h-2.3c-2,0-2.86.57-2.86,1.87s.87,1.8,2.4,1.8C372.94,43.12,374.05,42.28,374.05,40.87Z"/><path d="M382.11,44.71c-2,0-2.81-1-2.81-3V28.5a.23.23,0,0,1,.24-.24h1.54a.23.23,0,0,1,.24.24V41.56c0,1,.36,1.27,1.15,1.27h.46a.23.23,0,0,1,.24.24v1.4a.23.23,0,0,1-.24.24Z"/><path d="M.52,69.73a11.44,11.44,0,0,1,0-5.81A4.46,4.46,0,0,1,5,60.82a4.46,4.46,0,0,1,4.51,3.1,10.08,10.08,0,0,1,.36,3.29.24.24,0,0,1-.27.24H2.34a.13.13,0,0,0-.14.14A4.37,4.37,0,0,0,2.39,69a2.84,2.84,0,0,0,2.9,2,3.78,3.78,0,0,0,3-1.27c.12-.13.24-.15.36,0l1,.88a.22.22,0,0,1,0,.34,5.59,5.59,0,0,1-4.48,2A4.45,4.45,0,0,1,.52,69.73Zm7.15-3.89a.12.12,0,0,0,.14-.14,4.08,4.08,0,0,0-.16-1.3A2.61,2.61,0,0,0,5,62.6a2.59,2.59,0,0,0-2.64,1.8,4.06,4.06,0,0,0-.17,1.3.13.13,0,0,0,.14.14Z"/><path d="M19.48,72.59c-.17,0-.24,0-.36-.22l-2.79-4.06h0l-2.78,4.06a.37.37,0,0,1-.36.22H11.46c-.19,0-.24-.12-.17-.24l3.92-5.77-3.58-5.25c-.07-.12,0-.24.17-.24h1.73a.35.35,0,0,1,.36.21l2.42,3.58h0l2.48-3.58a.34.34,0,0,1,.33-.21h1.73c.19,0,.24.12.17.24l-3.6,5.25,3.93,5.77c.08.12,0,.24-.16.24Z"/><path d="M26.92,72.71c-2.23,0-3.1-1-3.1-3.27V62.86a.13.13,0,0,0-.14-.14h-1a.23.23,0,0,1-.24-.24V61.33a.22.22,0,0,1,.24-.24h1c.09,0,.14-.05.14-.15V57.7a.23.23,0,0,1,.24-.24H25.6a.23.23,0,0,1,.24.24v3.24c0,.1.05.15.14.15h1.83a.23.23,0,0,1,.24.24v1.15a.23.23,0,0,1-.24.24H26a.13.13,0,0,0-.14.14v6.51c0,1.15.43,1.46,1.46,1.46h.51a.23.23,0,0,1,.24.24v1.4a.23.23,0,0,1-.24.24Z"/><path d="M30.92,72.59a.22.22,0,0,1-.23-.24v-11a.22.22,0,0,1,.23-.24h1.54a.23.23,0,0,1,.24.24V62.5h0a3.2,3.2,0,0,1,3-1.68,3.54,3.54,0,0,1,2.36.87c.12.12.14.21,0,.33l-.88,1.18a.23.23,0,0,1-.34,0,3.2,3.2,0,0,0-1.78-.55c-1.75,0-2.47,1.36-2.47,3.36v6.29a.23.23,0,0,1-.24.24Z"/><path d="M39.3,69.73a9,9,0,0,1-.38-2.9,8.93,8.93,0,0,1,.36-2.91,4.45,4.45,0,0,1,4.51-3.1,4.45,4.45,0,0,1,4.51,3.1,10.08,10.08,0,0,1,.36,3.29.23.23,0,0,1-.26.24H41.13c-.1,0-.15,0-.15.14a4.37,4.37,0,0,0,.19,1.4,2.84,2.84,0,0,0,2.91,2,3.74,3.74,0,0,0,3-1.27c.12-.13.24-.15.36,0l1,.88a.22.22,0,0,1,0,.34,5.59,5.59,0,0,1-4.49,2A4.45,4.45,0,0,1,39.3,69.73Zm7.15-3.89c.1,0,.15,0,.15-.14a4.06,4.06,0,0,0-.17-1.3,2.84,2.84,0,0,0-5.28,0A4.06,4.06,0,0,0,41,65.7c0,.09.05.14.15.14Z"/><path d="M66.11,72.59a.23.23,0,0,1-.24-.24V65.63c0-1.85-.84-2.93-2.57-2.93a2.59,2.59,0,0,0-2.64,2.8v6.85a.23.23,0,0,1-.24.24H58.89a.23.23,0,0,1-.24-.24V65.63c0-1.85-.84-2.93-2.57-2.93a2.58,2.58,0,0,0-2.64,2.8v6.85a.23.23,0,0,1-.24.24H51.66a.23.23,0,0,1-.24-.24v-11a.23.23,0,0,1,.24-.24H53.2a.23.23,0,0,1,.24.24v1.05h0a3.66,3.66,0,0,1,3.22-1.56A3.62,3.62,0,0,1,60,62.62h0a4.29,4.29,0,0,1,3.72-1.8c2.67,0,4.11,1.71,4.11,4.32v7.21a.23.23,0,0,1-.24.24Z"/><path d="M70.91,69.75a11.09,11.09,0,0,1,0-5.83,4.87,4.87,0,0,1,9.07,0,8.4,8.4,0,0,1,.39,2.91A8.42,8.42,0,0,1,80,69.75a4.87,4.87,0,0,1-9.07,0ZM78,69.18a7.64,7.64,0,0,0,.26-2.35A7.41,7.41,0,0,0,78,64.5a2.77,2.77,0,0,0-5.19,0,7.41,7.41,0,0,0-.26,2.33,7.64,7.64,0,0,0,.26,2.35,2.77,2.77,0,0,0,5.19,0Z"/><path d="M82.84,70.28a.23.23,0,0,1,.24-.24H84.9a.23.23,0,0,1,.24.24v2.07a.23.23,0,0,1-.24.24H83.08a.23.23,0,0,1-.24-.24Z"/></g></g></svg>