<svg xmlns="http://www.w3.org/2000/svg" viewBox="0 0 589.97 47.17"><title>5c</title><g id="Capa_2" data-name="Capa 2"><g id="respuestas_contorno" data-name="respuestas contorno"><path d="M.08,13.58a.24.24,0,0,1,0-.33L1,12.1a.2.2,0,0,1,.31,0,6.91,6.91,0,0,0,4.18,1.54c2.07,0,3.3-1,3.3-2.55,0-1.28-.72-2.14-3.12-2.44l-.75-.11C2,8.12.54,6.73.54,4.38.54,1.72,2.45,0,5.42,0A7.89,7.89,0,0,1,10,1.39a.19.19,0,0,1,0,.3L9.27,2.9A.21.21,0,0,1,9,3,6.62,6.62,0,0,0,5.36,1.83c-1.83,0-2.84,1-2.84,2.42,0,1.25.84,2.09,3.15,2.4l.72.11c2.93.39,4.4,1.73,4.4,4.18,0,2.61-1.85,4.51-5.45,4.51A8.22,8.22,0,0,1,.08,13.58Z"/><path d="M12.6,12.59a8.32,8.32,0,0,1-.36-2.67,8.17,8.17,0,0,1,.33-2.66,4.09,4.09,0,0,1,4.14-2.84,4.1,4.1,0,0,1,4.14,2.84,9.21,9.21,0,0,1,.33,3,.22.22,0,0,1-.24.22H14.27c-.09,0-.13,0-.13.13a3.93,3.93,0,0,0,.17,1.27A2.61,2.61,0,0,0,17,13.73a3.44,3.44,0,0,0,2.71-1.17.22.22,0,0,1,.33,0l.9.81a.21.21,0,0,1,0,.31,5.13,5.13,0,0,1-4.12,1.81A4.08,4.08,0,0,1,12.6,12.59ZM19.15,9c.09,0,.13,0,.13-.13a3.75,3.75,0,0,0-.15-1.19,2.38,2.38,0,0,0-2.42-1.65A2.38,2.38,0,0,0,14.29,7.7a3.75,3.75,0,0,0-.15,1.19c0,.09,0,.13.13.13Z"/><path d="M34.27,15.2a.2.2,0,0,1-.22-.22V14h0a3.19,3.19,0,0,1-3,1.48,3.48,3.48,0,0,1-3.63-2.53,8.75,8.75,0,0,1-.37-3,8.67,8.67,0,0,1,.37-3A3.48,3.48,0,0,1,31,4.42a3.18,3.18,0,0,1,3,1.46h0V.46a.2.2,0,0,1,.22-.22h1.4a.2.2,0,0,1,.22.22V15a.2.2,0,0,1-.22.22Zm-.47-3.08a6.58,6.58,0,0,0,.25-2.2,6.73,6.73,0,0,0-.25-2.2,2.24,2.24,0,0,0-2.33-1.58,2.24,2.24,0,0,0-2.31,1.58,7.78,7.78,0,0,0-.24,2.2,7.51,7.51,0,0,0,.24,2.2,2.25,2.25,0,0,0,2.31,1.61A2.25,2.25,0,0,0,33.8,12.12Z"/><path d="M38.34,12.59A8,8,0,0,1,38,9.92a8.17,8.17,0,0,1,.33-2.66,4.09,4.09,0,0,1,4.14-2.84,4.1,4.1,0,0,1,4.14,2.84,9.21,9.21,0,0,1,.33,3,.22.22,0,0,1-.25.22H40c-.09,0-.13,0-.13.13a3.93,3.93,0,0,0,.17,1.27,2.61,2.61,0,0,0,2.66,1.83,3.44,3.44,0,0,0,2.71-1.17.22.22,0,0,1,.33,0l.9.81a.2.2,0,0,1,0,.31,5.1,5.1,0,0,1-4.11,1.81A4.08,4.08,0,0,1,38.34,12.59ZM44.89,9C45,9,45,9,45,8.89a3.75,3.75,0,0,0-.15-1.19A2.6,2.6,0,0,0,40,7.7a3.75,3.75,0,0,0-.15,1.19c0,.09,0,.13.13.13Z"/><path d="M51.53,15.31c-1.84,0-2.57-.88-2.57-2.77V.46a.21.21,0,0,1,.22-.22h1.41a.21.21,0,0,1,.22.22v12c0,.88.33,1.17,1,1.17h.42a.2.2,0,0,1,.22.22v1.27a.2.2,0,0,1-.22.22Z"/><path d="M54.4,2.29a.2.2,0,0,1-.22-.22V.46A.2.2,0,0,1,54.4.24h1.49a.21.21,0,0,1,.22.22V2.07a.21.21,0,0,1-.22.22Zm0,12.91a.2.2,0,0,1-.22-.22V4.88a.2.2,0,0,1,.22-.21h1.41a.2.2,0,0,1,.22.21V15a.2.2,0,0,1-.22.22Z"/><path d="M72.26,15.2A.2.2,0,0,1,72,15V8.82c0-1.69-.77-2.68-2.35-2.68a2.37,2.37,0,0,0-2.42,2.57V15a.2.2,0,0,1-.22.22H65.64a.2.2,0,0,1-.22-.22V8.82c0-1.69-.77-2.68-2.36-2.68a2.36,2.36,0,0,0-2.42,2.57V15a.2.2,0,0,1-.22.22H59a.2.2,0,0,1-.22-.22V4.88A.2.2,0,0,1,59,4.67h1.41a.2.2,0,0,1,.22.21v1h0a3.73,3.73,0,0,1,6,.22h0a3.92,3.92,0,0,1,3.41-1.65c2.44,0,3.76,1.57,3.76,4V15a.2.2,0,0,1-.22.22Z"/><path d="M76.68,2.29a.21.21,0,0,1-.22-.22V.46a.21.21,0,0,1,.22-.22h1.5a.21.21,0,0,1,.22.22V2.07a.21.21,0,0,1-.22.22Zm0,12.91A.2.2,0,0,1,76.5,15V4.88a.2.2,0,0,1,.22-.21h1.41a.2.2,0,0,1,.22.21V15a.2.2,0,0,1-.22.22Z"/><path d="M84.14,15.31c-2,0-2.84-.92-2.84-3v-6a.12.12,0,0,0-.13-.13h-.88a.21.21,0,0,1-.22-.22V4.88a.2.2,0,0,1,.22-.21h.88c.09,0,.13,0,.13-.14v-3a.21.21,0,0,1,.22-.22h1.41a.21.21,0,0,1,.22.22v3c0,.09,0,.14.13.14H85a.2.2,0,0,1,.22.21V5.94a.21.21,0,0,1-.22.22H83.28a.12.12,0,0,0-.13.13v6c0,1.05.39,1.34,1.34,1.34H85a.21.21,0,0,1,.22.22v1.27a.2.2,0,0,1-.22.22Z"/><path d="M93.53,15.2a.2.2,0,0,1-.22-.22v-.92h0a3.46,3.46,0,0,1-3.12,1.39c-2,0-3.55-1-3.55-3.17S88.16,9,90.74,9h2.4a.12.12,0,0,0,.13-.13V8.12c0-1.45-.57-2.07-2.53-2.07a4.07,4.07,0,0,0-2.55.75c-.11.09-.25.09-.31,0l-.6-1a.24.24,0,0,1,0-.31,5.8,5.8,0,0,1,3.58-1c3,0,4.14,1,4.14,3.59v7a.2.2,0,0,1-.22.22Zm-.26-3.41V10.63a.12.12,0,0,0-.13-.13H91c-1.82,0-2.61.52-2.61,1.71s.79,1.65,2.2,1.65C92.26,13.86,93.27,13.09,93.27,11.79Z"/><path d="M101.36,13.86a.21.21,0,0,1,0-.31l.91-1a.2.2,0,0,1,.3,0,5.13,5.13,0,0,0,3.26,1.21c1.54,0,2.31-.66,2.31-1.61s-.4-1.3-2-1.47L105,10.61c-2.07-.22-3.15-1.26-3.15-3,0-2,1.44-3.22,3.92-3.22a6.3,6.3,0,0,1,3.74,1.17.22.22,0,0,1,0,.31l-.75.94a.22.22,0,0,1-.31,0A5.54,5.54,0,0,0,105.63,6c-1.32,0-2,.59-2,1.45s.51,1.28,2.07,1.43l1.1.11c2.13.2,3.17,1.28,3.17,3,0,2.07-1.5,3.46-4.25,3.46A6.55,6.55,0,0,1,101.36,13.86Z"/><path d="M111.7,12.61a8,8,0,0,1-.35-2.69,7.92,7.92,0,0,1,.35-2.66,4.47,4.47,0,0,1,8.32,0,7.92,7.92,0,0,1,.35,2.66,8,8,0,0,1-.35,2.69,4.47,4.47,0,0,1-8.32,0Zm6.54-.53a7.09,7.09,0,0,0,.24-2.16,6.91,6.91,0,0,0-.24-2.13,2.54,2.54,0,0,0-4.76,0,6.91,6.91,0,0,0-.24,2.13,7.09,7.09,0,0,0,.24,2.16,2.54,2.54,0,0,0,4.76,0Z"/><path d="M125,15.31c-1.85,0-2.57-.88-2.57-2.77V.46a.21.21,0,0,1,.22-.22h1.41a.21.21,0,0,1,.22.22v12c0,.88.33,1.17,1,1.17h.42a.21.21,0,0,1,.22.22v1.27a.2.2,0,0,1-.22.22Z"/><path d="M127.39,12.61A8,8,0,0,1,127,9.92a7.92,7.92,0,0,1,.35-2.66,4.47,4.47,0,0,1,8.32,0,7.92,7.92,0,0,1,.35,2.66,8,8,0,0,1-.35,2.69,4.47,4.47,0,0,1-8.32,0Zm6.53-.53a6.73,6.73,0,0,0,.25-2.16,6.57,6.57,0,0,0-.25-2.13,2.53,2.53,0,0,0-4.75,0,6.61,6.61,0,0,0-.24,2.13,6.78,6.78,0,0,0,.24,2.16,2.53,2.53,0,0,0,4.75,0Z"/><path d="M142.26,12.59a8.36,8.36,0,0,1-.35-2.67,8.17,8.17,0,0,1,.33-2.66,4.43,4.43,0,0,1,8.27,0,9.21,9.21,0,0,1,.33,3,.22.22,0,0,1-.24.22h-6.67c-.09,0-.13,0-.13.13A3.9,3.9,0,0,0,144,11.9a2.6,2.6,0,0,0,2.66,1.83,3.47,3.47,0,0,0,2.71-1.17.22.22,0,0,1,.33,0l.9.81a.2.2,0,0,1,0,.31,5.13,5.13,0,0,1-4.12,1.81A4.08,4.08,0,0,1,142.26,12.59ZM148.82,9a.12.12,0,0,0,.13-.13,3.72,3.72,0,0,0-.16-1.19,2.6,2.6,0,0,0-4.84,0,3.75,3.75,0,0,0-.15,1.19c0,.09,0,.13.13.13Z"/><path d="M159.77,15.2a.2.2,0,0,1-.22-.22V8.82c0-1.69-.77-2.68-2.35-2.68a2.36,2.36,0,0,0-2.42,2.57V15a.2.2,0,0,1-.22.22h-1.41a.2.2,0,0,1-.22-.22V4.88a.2.2,0,0,1,.22-.21h1.41a.2.2,0,0,1,.22.21v1h0a3.35,3.35,0,0,1,2.95-1.43c2.29,0,3.65,1.57,3.65,4V15a.2.2,0,0,1-.22.22Z"/><path d="M168.11,7.26a4.09,4.09,0,0,1,4.16-2.84,4.22,4.22,0,0,1,3.61,1.79c.06.11.06.19-.07.3l-1,.8a.21.21,0,0,1-.31,0,2.58,2.58,0,0,0-2.26-1.14,2.29,2.29,0,0,0-2.36,1.65,7.21,7.21,0,0,0-.24,2.13,7.3,7.3,0,0,0,.24,2.16,2.29,2.29,0,0,0,2.36,1.65,2.58,2.58,0,0,0,2.26-1.14.21.21,0,0,1,.31,0l1,.8c.13.11.13.19.07.3a4.24,4.24,0,0,1-3.61,1.79,4.09,4.09,0,0,1-4.16-2.84,9.08,9.08,0,0,1-.33-2.69A9,9,0,0,1,168.11,7.26Z"/><path d="M184,15.2a.2.2,0,0,1-.22-.22v-.92h0a3.47,3.47,0,0,1-3.13,1.39c-2,0-3.54-1-3.54-3.17S178.67,9,181.24,9h2.4c.09,0,.13,0,.13-.13V8.12c0-1.45-.57-2.07-2.53-2.07a4.12,4.12,0,0,0-2.55.75.2.2,0,0,1-.31,0l-.59-1a.24.24,0,0,1,0-.31,5.85,5.85,0,0,1,3.59-1c3,0,4.14,1,4.14,3.59v7a.2.2,0,0,1-.22.22Zm-.27-3.41V10.63c0-.09,0-.13-.13-.13h-2.11c-1.83,0-2.62.52-2.62,1.71s.79,1.65,2.2,1.65C182.76,13.86,183.77,13.09,183.77,11.79Z"/><path d="M187.47,13.86a.21.21,0,0,1,0-.31l.9-1a.21.21,0,0,1,.31,0,5.13,5.13,0,0,0,3.26,1.21c1.54,0,2.31-.66,2.31-1.61s-.4-1.3-2.05-1.47l-1.12-.11c-2.07-.22-3.15-1.26-3.15-3,0-2,1.43-3.22,3.92-3.22a6.3,6.3,0,0,1,3.74,1.17.21.21,0,0,1,0,.31l-.75.94a.21.21,0,0,1-.3,0A5.57,5.57,0,0,0,191.74,6c-1.32,0-2,.59-2,1.45s.5,1.28,2.06,1.43l1.1.11c2.14.2,3.17,1.28,3.17,3,0,2.07-1.49,3.46-4.24,3.46A6.55,6.55,0,0,1,187.47,13.86Z"/><path d="M197.81,12.61a8,8,0,0,1-.35-2.69,7.92,7.92,0,0,1,.35-2.66,4.47,4.47,0,0,1,8.32,0,7.92,7.92,0,0,1,.35,2.66,8,8,0,0,1-.35,2.69,4.47,4.47,0,0,1-8.32,0Zm6.53-.53a6.73,6.73,0,0,0,.25-2.16,6.57,6.57,0,0,0-.25-2.13,2.53,2.53,0,0,0-4.75,0,6.91,6.91,0,0,0-.24,2.13,7.09,7.09,0,0,0,.24,2.16,2.53,2.53,0,0,0,4.75,0Z"/><path d="M219.57,15.2a.2.2,0,0,1-.22-.22V14h0a3.21,3.21,0,0,1-3,1.48,3.49,3.49,0,0,1-3.63-2.53,9,9,0,0,1-.37-3,8.92,8.92,0,0,1,.37-3,3.49,3.49,0,0,1,3.63-2.53,3.2,3.2,0,0,1,3,1.46h0V.46a.21.21,0,0,1,.22-.22H221a.21.21,0,0,1,.22.22V15a.2.2,0,0,1-.22.22Zm-.46-3.08a6.92,6.92,0,0,0,.24-2.2,7.08,7.08,0,0,0-.24-2.2,2.5,2.5,0,0,0-4.65,0,7.78,7.78,0,0,0-.24,2.2,7.51,7.51,0,0,0,.24,2.2,2.48,2.48,0,0,0,4.65,0Z"/><path d="M223.64,12.59a8.32,8.32,0,0,1-.36-2.67,8.46,8.46,0,0,1,.33-2.66,4.44,4.44,0,0,1,8.28,0,9.21,9.21,0,0,1,.33,3,.22.22,0,0,1-.24.22h-6.67c-.09,0-.13,0-.13.13a3.93,3.93,0,0,0,.17,1.27A2.62,2.62,0,0,0,228,13.73a3.43,3.43,0,0,0,2.7-1.17.22.22,0,0,1,.33,0l.9.81a.21.21,0,0,1,0,.31,5.13,5.13,0,0,1-4.12,1.81A4.08,4.08,0,0,1,223.64,12.59ZM230.19,9c.09,0,.14,0,.14-.13a3.72,3.72,0,0,0-.16-1.19,2.6,2.6,0,0,0-4.84,0,3.75,3.75,0,0,0-.15,1.19c0,.09,0,.13.13.13Z"/><path d="M241.77,15.31c-2.05,0-2.84-.92-2.84-3v-6a.12.12,0,0,0-.14-.13h-.88a.21.21,0,0,1-.22-.22V4.88a.2.2,0,0,1,.22-.21h.88a.13.13,0,0,0,.14-.14v-3a.2.2,0,0,1,.22-.22h1.4a.2.2,0,0,1,.22.22v3a.13.13,0,0,0,.14.14h1.67a.2.2,0,0,1,.22.21V5.94a.21.21,0,0,1-.22.22h-1.67a.12.12,0,0,0-.14.13v6c0,1.05.4,1.34,1.35,1.34h.46a.21.21,0,0,1,.22.22v1.27a.2.2,0,0,1-.22.22Z"/><path d="M245,15.2a.2.2,0,0,1-.22-.22V4.88a.2.2,0,0,1,.22-.21h1.41a.2.2,0,0,1,.22.21V6h0a2.93,2.93,0,0,1,2.79-1.54,3.26,3.26,0,0,1,2.16.79c.11.12.13.2,0,.31l-.81,1.08a.21.21,0,0,1-.31.05,2.94,2.94,0,0,0-1.63-.51c-1.6,0-2.26,1.25-2.26,3.08V15a.2.2,0,0,1-.22.22Z"/><path d="M258.77,15.2a.2.2,0,0,1-.22-.22v-.92h0a3.47,3.47,0,0,1-3.13,1.39c-2,0-3.54-1-3.54-3.17S253.4,9,256,9h2.39c.09,0,.14,0,.14-.13V8.12c0-1.45-.57-2.07-2.53-2.07a4.13,4.13,0,0,0-2.56.75c-.11.09-.24.09-.3,0l-.6-1a.24.24,0,0,1,0-.31,5.8,5.8,0,0,1,3.58-1c3,0,4.14,1,4.14,3.59v7a.2.2,0,0,1-.22.22Zm-.26-3.41V10.63c0-.09-.05-.13-.14-.13h-2.11c-1.82,0-2.62.52-2.62,1.71s.8,1.65,2.2,1.65C257.49,13.86,258.51,13.09,258.51,11.79Z"/><path d="M263.15,15.2a.2.2,0,0,1-.22-.22V.46a.21.21,0,0,1,.22-.22h1.41a.21.21,0,0,1,.22.22V5.88h0a3.19,3.19,0,0,1,3-1.46A3.48,3.48,0,0,1,271.42,7a8.67,8.67,0,0,1,.37,3,8.75,8.75,0,0,1-.37,3,3.48,3.48,0,0,1-3.63,2.53,3.2,3.2,0,0,1-3-1.48h0v1a.2.2,0,0,1-.22.22Zm6.51-3.08a7.18,7.18,0,0,0,.24-2.2,7.43,7.43,0,0,0-.24-2.2,2.49,2.49,0,0,0-4.64,0,6.79,6.79,0,0,0-.24,2.2,6.63,6.63,0,0,0,.24,2.2,2.48,2.48,0,0,0,4.64,0Z"/><path d="M280.26,15.2A.2.2,0,0,1,280,15v-.92h0a3.46,3.46,0,0,1-3.12,1.39c-2,0-3.55-1-3.55-3.17S274.9,9,277.47,9h2.4c.09,0,.13,0,.13-.13V8.12c0-1.45-.57-2.07-2.53-2.07a4.07,4.07,0,0,0-2.55.75.2.2,0,0,1-.31,0l-.59-1a.23.23,0,0,1,0-.31,5.81,5.81,0,0,1,3.59-1c3,0,4.13,1,4.13,3.59v7a.2.2,0,0,1-.22.22ZM280,11.79V10.63c0-.09,0-.13-.13-.13h-2.11c-1.83,0-2.62.52-2.62,1.71s.79,1.65,2.2,1.65C279,13.86,280,13.09,280,11.79Z"/><path d="M282.68,19.17a.21.21,0,0,1-.22-.22V17.67a.21.21,0,0,1,.22-.22H283c1,0,1.39-.29,1.39-1.41V4.88a.2.2,0,0,1,.22-.21h1.41a.2.2,0,0,1,.22.21V16c0,2.26-1,3.17-3.15,3.17ZM284.6,2.29a.21.21,0,0,1-.22-.22V.46a.21.21,0,0,1,.22-.22h1.49a.2.2,0,0,1,.22.22V2.07a.2.2,0,0,1-.22.22Z"/><path d="M295.38,15.2a.2.2,0,0,1-.22-.22v-.92h0A3.47,3.47,0,0,1,292,15.45c-2,0-3.54-1-3.54-3.17S290,9,292.58,9H295c.09,0,.13,0,.13-.13V8.12c0-1.45-.57-2.07-2.53-2.07A4.12,4.12,0,0,0,290,6.8a.2.2,0,0,1-.31,0l-.59-1a.24.24,0,0,1,0-.31,5.85,5.85,0,0,1,3.59-1c3,0,4.14,1,4.14,3.59v7a.2.2,0,0,1-.22.22Zm-.27-3.41V10.63c0-.09,0-.13-.13-.13h-2.11c-1.83,0-2.62.52-2.62,1.71s.79,1.65,2.2,1.65C294.1,13.86,295.11,13.09,295.11,11.79Z"/><path d="M299.76,15.2a.21.21,0,0,1-.23-.22V4.88a.21.21,0,0,1,.23-.21h1.4a.2.2,0,0,1,.22.21V6h0a2.93,2.93,0,0,1,2.79-1.54,3.26,3.26,0,0,1,2.16.79c.11.12.13.2,0,.31l-.81,1.08a.21.21,0,0,1-.31.05,3,3,0,0,0-1.63-.51c-1.61,0-2.27,1.25-2.27,3.08V15a.2.2,0,0,1-.22.22Z"/><path d="M311.79,12.59a8.36,8.36,0,0,1-.35-2.67,8.17,8.17,0,0,1,.33-2.66,4.43,4.43,0,0,1,8.27,0,9.21,9.21,0,0,1,.33,3,.22.22,0,0,1-.24.22h-6.67c-.09,0-.13,0-.13.13a3.93,3.93,0,0,0,.17,1.27,2.62,2.62,0,0,0,2.67,1.83,3.43,3.43,0,0,0,2.7-1.17.22.22,0,0,1,.33,0l.9.81a.19.19,0,0,1,0,.31A5.13,5.13,0,0,1,316,15.45,4.08,4.08,0,0,1,311.79,12.59ZM318.35,9a.12.12,0,0,0,.13-.13,3.72,3.72,0,0,0-.16-1.19,2.6,2.6,0,0,0-4.84,0,3.75,3.75,0,0,0-.15,1.19c0,.09,0,.13.13.13Z"/><path d="M329.3,15.2a.2.2,0,0,1-.22-.22V8.82c0-1.69-.77-2.68-2.35-2.68a2.36,2.36,0,0,0-2.42,2.57V15a.2.2,0,0,1-.22.22h-1.41a.2.2,0,0,1-.22-.22V4.88a.2.2,0,0,1,.22-.21h1.41a.2.2,0,0,1,.22.21v1h0a3.34,3.34,0,0,1,2.95-1.43c2.28,0,3.65,1.57,3.65,4V15a.2.2,0,0,1-.22.22Z"/><path d="M338.17,19.17a.21.21,0,0,1-.23-.22V4.88a.21.21,0,0,1,.23-.21h1.4a.2.2,0,0,1,.22.21v1h0a3.18,3.18,0,0,1,3-1.46A3.49,3.49,0,0,1,346.44,7a8.92,8.92,0,0,1,.37,3,9,9,0,0,1-.37,3,3.49,3.49,0,0,1-3.63,2.53,3.19,3.19,0,0,1-3-1.48h0v5a.2.2,0,0,1-.22.22Zm6.51-7.05a7.51,7.51,0,0,0,.24-2.2,7.78,7.78,0,0,0-.24-2.2,2.49,2.49,0,0,0-4.64,0,6.73,6.73,0,0,0-.25,2.2,6.58,6.58,0,0,0,.25,2.2,2.48,2.48,0,0,0,4.64,0Z"/><path d="M348.61,12.61a8,8,0,0,1-.35-2.69,7.92,7.92,0,0,1,.35-2.66,4.47,4.47,0,0,1,8.32,0,7.67,7.67,0,0,1,.35,2.66,7.75,7.75,0,0,1-.35,2.69,4.47,4.47,0,0,1-8.32,0Zm6.54-.53a6.78,6.78,0,0,0,.24-2.16,6.61,6.61,0,0,0-.24-2.13,2.53,2.53,0,0,0-4.75,0,6.61,6.61,0,0,0-.24,2.13,6.78,6.78,0,0,0,.24,2.16,2.53,2.53,0,0,0,4.75,0Z"/><path d="M358.65,13.86a.21.21,0,0,1,0-.31l.9-1a.21.21,0,0,1,.31,0,5.12,5.12,0,0,0,3.25,1.21c1.54,0,2.31-.66,2.31-1.61s-.39-1.3-2-1.47l-1.12-.11c-2.07-.22-3.15-1.26-3.15-3,0-2,1.43-3.22,3.91-3.22a6.31,6.31,0,0,1,3.75,1.17.21.21,0,0,1,0,.31l-.75.94a.22.22,0,0,1-.31,0A5.54,5.54,0,0,0,362.92,6c-1.32,0-2,.59-2,1.45s.51,1.28,2.07,1.43l1.1.11c2.14.2,3.17,1.28,3.17,3,0,2.07-1.5,3.46-4.25,3.46A6.54,6.54,0,0,1,358.65,13.86Z"/><path d="M372.33,15.31c-2.05,0-2.84-.92-2.84-3v-6a.12.12,0,0,0-.13-.13h-.88a.21.21,0,0,1-.22-.22V4.88a.2.2,0,0,1,.22-.21h.88c.09,0,.13,0,.13-.14v-3a.21.21,0,0,1,.22-.22h1.41a.21.21,0,0,1,.22.22v3a.12.12,0,0,0,.13.14h1.68a.2.2,0,0,1,.22.21V5.94a.21.21,0,0,1-.22.22h-1.68a.12.12,0,0,0-.13.13v6c0,1.05.4,1.34,1.34,1.34h.47a.21.21,0,0,1,.22.22v1.27a.2.2,0,0,1-.22.22Z"/><path d="M375.06,12.59a8.36,8.36,0,0,1-.35-2.67A8.17,8.17,0,0,1,375,7.26a4.43,4.43,0,0,1,8.27,0,9.21,9.21,0,0,1,.33,3,.22.22,0,0,1-.24.22h-6.67c-.09,0-.13,0-.13.13a3.93,3.93,0,0,0,.17,1.27,2.62,2.62,0,0,0,2.67,1.83,3.43,3.43,0,0,0,2.7-1.17.22.22,0,0,1,.33,0l.91.81a.2.2,0,0,1,0,.31,5.13,5.13,0,0,1-4.12,1.81A4.08,4.08,0,0,1,375.06,12.59ZM381.61,9c.09,0,.14,0,.14-.13a3.72,3.72,0,0,0-.16-1.19,2.6,2.6,0,0,0-4.84,0,3.75,3.75,0,0,0-.15,1.19c0,.09,0,.13.13.13Z"/><path d="M385,13.86a.21.21,0,0,1,0-.31l.9-1a.21.21,0,0,1,.31,0,5.13,5.13,0,0,0,3.26,1.21c1.54,0,2.31-.66,2.31-1.61s-.4-1.3-2-1.47l-1.12-.11c-2.07-.22-3.15-1.26-3.15-3,0-2,1.43-3.22,3.92-3.22a6.3,6.3,0,0,1,3.74,1.17.22.22,0,0,1,.05.31l-.75.94a.22.22,0,0,1-.31,0A5.54,5.54,0,0,0,389.27,6c-1.32,0-2,.59-2,1.45s.5,1.28,2.07,1.43l1.1.11c2.13.2,3.16,1.28,3.16,3,0,2.07-1.49,3.46-4.24,3.46A6.55,6.55,0,0,1,385,13.86Z"/><path d="M399.74,12.61a8,8,0,0,1-.35-2.69,7.92,7.92,0,0,1,.35-2.66,4.47,4.47,0,0,1,8.32,0,7.92,7.92,0,0,1,.35,2.66,8,8,0,0,1-.35,2.69,4.47,4.47,0,0,1-8.32,0Zm6.54-.53a7.09,7.09,0,0,0,.24-2.16,6.91,6.91,0,0,0-.24-2.13,2.54,2.54,0,0,0-4.76,0,6.91,6.91,0,0,0-.24,2.13,7.09,7.09,0,0,0,.24,2.16,2.54,2.54,0,0,0,4.76,0Z"/><path d="M414.17,13.86a.23.23,0,0,1,0-.31l.91-1a.2.2,0,0,1,.3,0,5.15,5.15,0,0,0,3.26,1.21c1.54,0,2.31-.66,2.31-1.61s-.4-1.3-2.05-1.47l-1.12-.11c-2.07-.22-3.15-1.26-3.15-3,0-2,1.43-3.22,3.92-3.22a6.3,6.3,0,0,1,3.74,1.17.22.22,0,0,1,0,.31l-.75.94a.22.22,0,0,1-.31,0A5.54,5.54,0,0,0,418.44,6c-1.32,0-2,.59-2,1.45s.5,1.28,2.07,1.43l1.1.11c2.13.2,3.17,1.28,3.17,3,0,2.07-1.5,3.46-4.25,3.46A6.55,6.55,0,0,1,414.17,13.86Z"/><path d="M425,2.29a.2.2,0,0,1-.22-.22V.46A.2.2,0,0,1,425,.24h1.49a.21.21,0,0,1,.22.22V2.07a.21.21,0,0,1-.22.22Zm0,12.91a.2.2,0,0,1-.22-.22V4.88a.2.2,0,0,1,.22-.21h1.41a.2.2,0,0,1,.22.21V15a.2.2,0,0,1-.22.22Z"/><path d="M432.43,15.31c-2,0-2.83-.92-2.83-3v-6a.12.12,0,0,0-.14-.13h-.88a.21.21,0,0,1-.22-.22V4.88a.2.2,0,0,1,.22-.21h.88a.13.13,0,0,0,.14-.14v-3a.2.2,0,0,1,.21-.22h1.41a.21.21,0,0,1,.22.22v3a.12.12,0,0,0,.13.14h1.68a.2.2,0,0,1,.22.21V5.94a.21.21,0,0,1-.22.22h-1.68a.12.12,0,0,0-.13.13v6c0,1.05.4,1.34,1.34,1.34h.47a.21.21,0,0,1,.22.22v1.27a.2.2,0,0,1-.22.22Z"/><path d="M435.62,2.29a.21.21,0,0,1-.22-.22V.46a.21.21,0,0,1,.22-.22h1.5a.21.21,0,0,1,.22.22V2.07a.21.21,0,0,1-.22.22Zm.05,12.91a.2.2,0,0,1-.22-.22V4.88a.2.2,0,0,1,.22-.21h1.4a.2.2,0,0,1,.22.21V15a.2.2,0,0,1-.22.22Z"/><path d="M439.74,12.61a7.71,7.71,0,0,1-.36-2.69,7.64,7.64,0,0,1,.36-2.66,4.46,4.46,0,0,1,8.31,0,7.92,7.92,0,0,1,.35,2.66,8,8,0,0,1-.35,2.69,4.46,4.46,0,0,1-8.31,0Zm6.53-.53a6.78,6.78,0,0,0,.24-2.16,6.61,6.61,0,0,0-.24-2.13,2.53,2.53,0,0,0-4.75,0,6.61,6.61,0,0,0-.24,2.13,6.78,6.78,0,0,0,.24,2.16,2.53,2.53,0,0,0,4.75,0Z"/><path d="M449.77,13.86a.21.21,0,0,1,0-.31l.9-1a.21.21,0,0,1,.31,0,5.12,5.12,0,0,0,3.25,1.21c1.54,0,2.31-.66,2.31-1.61s-.39-1.3-2-1.47l-1.12-.11c-2.07-.22-3.15-1.26-3.15-3,0-2,1.43-3.22,3.92-3.22a6.3,6.3,0,0,1,3.74,1.17.21.21,0,0,1,0,.31l-.75.94a.22.22,0,0,1-.31,0A5.54,5.54,0,0,0,454,6c-1.32,0-2,.59-2,1.45s.51,1.28,2.07,1.43l1.1.11c2.14.2,3.17,1.28,3.17,3,0,2.07-1.5,3.46-4.25,3.46A6.54,6.54,0,0,1,449.77,13.86Z"/><path d="M464.48,7.26a4.1,4.1,0,0,1,4.16-2.84,4.21,4.21,0,0,1,3.61,1.79c.07.11.07.19-.06.3l-1,.8a.21.21,0,0,1-.31,0,2.59,2.59,0,0,0-2.27-1.14,2.28,2.28,0,0,0-2.35,1.65,6.89,6.89,0,0,0-.24,2.13,7,7,0,0,0,.24,2.16,2.28,2.28,0,0,0,2.35,1.65,2.59,2.59,0,0,0,2.27-1.14.21.21,0,0,1,.31,0l1,.8c.13.11.13.19.06.3a4.23,4.23,0,0,1-3.61,1.79,4.1,4.1,0,0,1-4.16-2.84,9.43,9.43,0,0,1-.33-2.69A9.35,9.35,0,0,1,464.48,7.26Z"/><path d="M473.75,12.61a8,8,0,0,1-.36-2.69,7.88,7.88,0,0,1,.36-2.66,4.46,4.46,0,0,1,8.31,0,7.64,7.64,0,0,1,.36,2.66,7.71,7.71,0,0,1-.36,2.69,4.46,4.46,0,0,1-8.31,0Zm6.53-.53a6.78,6.78,0,0,0,.24-2.16,6.61,6.61,0,0,0-.24-2.13,2.53,2.53,0,0,0-4.75,0,6.61,6.61,0,0,0-.24,2.13,6.78,6.78,0,0,0,.24,2.16,2.53,2.53,0,0,0,4.75,0Z"/><path d="M491.35,15.2a.2.2,0,0,1-.22-.22V8.82c0-1.69-.77-2.68-2.36-2.68a2.36,2.36,0,0,0-2.42,2.57V15a.2.2,0,0,1-.22.22h-1.41a.2.2,0,0,1-.22-.22V4.88a.2.2,0,0,1,.22-.21h1.41a.2.2,0,0,1,.22.21v1h0a3.35,3.35,0,0,1,2.95-1.43c2.29,0,3.66,1.57,3.66,4V15a.2.2,0,0,1-.22.22Z"/><path d="M503.05,15.31c-2,0-2.84-.92-2.84-3v-6a.12.12,0,0,0-.13-.13h-.88a.21.21,0,0,1-.22-.22V4.88a.2.2,0,0,1,.22-.21h.88c.09,0,.13,0,.13-.14v-3a.21.21,0,0,1,.22-.22h1.41a.21.21,0,0,1,.22.22v3c0,.09,0,.14.13.14h1.67a.21.21,0,0,1,.23.21V5.94a.21.21,0,0,1-.23.22h-1.67a.12.12,0,0,0-.13.13v6c0,1.05.4,1.34,1.34,1.34h.46a.21.21,0,0,1,.23.22v1.27a.21.21,0,0,1-.23.22Z"/><path d="M506.28,15.2a.2.2,0,0,1-.22-.22V4.88a.2.2,0,0,1,.22-.21h1.41a.2.2,0,0,1,.22.21V6h0a3,3,0,0,1,2.8-1.54,3.24,3.24,0,0,1,2.15.79c.11.12.14.2,0,.31l-.82,1.08a.2.2,0,0,1-.3.05,3,3,0,0,0-1.63-.51c-1.61,0-2.27,1.25-2.27,3.08V15a.2.2,0,0,1-.22.22Z"/><path d="M520.06,15.2a.2.2,0,0,1-.22-.22v-.92h0a3.44,3.44,0,0,1-3.12,1.39c-2,0-3.54-1-3.54-3.17S514.69,9,517.26,9h2.4c.09,0,.13,0,.13-.13V8.12c0-1.45-.57-2.07-2.53-2.07a4.09,4.09,0,0,0-2.55.75.2.2,0,0,1-.31,0l-.59-1a.23.23,0,0,1,0-.31,5.83,5.83,0,0,1,3.59-1c3,0,4.14,1,4.14,3.59v7a.21.21,0,0,1-.23.22Zm-.27-3.41V10.63c0-.09,0-.13-.13-.13h-2.11c-1.83,0-2.62.52-2.62,1.71s.79,1.65,2.2,1.65C518.78,13.86,519.79,13.09,519.79,11.79Z"/><path d="M531.06,15.2a.2.2,0,0,1-.22-.22V8.82c0-1.69-.77-2.68-2.36-2.68a2.36,2.36,0,0,0-2.42,2.57V15a.2.2,0,0,1-.22.22h-1.41a.2.2,0,0,1-.22-.22V4.88a.2.2,0,0,1,.22-.21h1.41a.2.2,0,0,1,.22.21v1h0A3.35,3.35,0,0,1,529,4.42c2.29,0,3.66,1.57,3.66,4V15a.2.2,0,0,1-.22.22Z"/><path d="M534.58,13.86a.21.21,0,0,1,0-.31l.9-1a.21.21,0,0,1,.31,0A5.12,5.12,0,0,0,539,13.8c1.54,0,2.31-.66,2.31-1.61s-.39-1.3-2-1.47l-1.13-.11c-2.06-.22-3.14-1.26-3.14-3,0-2,1.43-3.22,3.91-3.22a6.3,6.3,0,0,1,3.74,1.17.22.22,0,0,1,0,.31l-.75.94a.22.22,0,0,1-.31,0A5.54,5.54,0,0,0,538.84,6c-1.32,0-2,.59-2,1.45s.51,1.28,2.07,1.43L540,9c2.14.2,3.17,1.28,3.17,3,0,2.07-1.5,3.46-4.25,3.46A6.52,6.52,0,0,1,534.58,13.86Z"/><path d="M545.38,2.29a.21.21,0,0,1-.22-.22V.46a.21.21,0,0,1,.22-.22h1.49a.2.2,0,0,1,.22.22V2.07a.2.2,0,0,1-.22.22Zm0,12.91a.2.2,0,0,1-.22-.22V4.88a.2.2,0,0,1,.22-.21h1.41a.2.2,0,0,1,.22.21V15a.2.2,0,0,1-.22.22Z"/><path d="M552.84,15.31c-2.05,0-2.84-.92-2.84-3v-6a.12.12,0,0,0-.14-.13H549a.2.2,0,0,1-.21-.22V4.88a.19.19,0,0,1,.21-.21h.88a.13.13,0,0,0,.14-.14v-3a.21.21,0,0,1,.22-.22h1.4a.21.21,0,0,1,.23.22v3c0,.09,0,.14.13.14h1.67a.2.2,0,0,1,.22.21V5.94a.21.21,0,0,1-.22.22H552a.12.12,0,0,0-.13.13v6c0,1.05.39,1.34,1.34,1.34h.46a.21.21,0,0,1,.22.22v1.27a.2.2,0,0,1-.22.22Z"/><path d="M555.56,12.61a8,8,0,0,1-.35-2.69,7.92,7.92,0,0,1,.35-2.66,4.47,4.47,0,0,1,8.32,0,7.92,7.92,0,0,1,.35,2.66,8,8,0,0,1-.35,2.69,4.47,4.47,0,0,1-8.32,0Zm6.54-.53a7.09,7.09,0,0,0,.24-2.16,6.91,6.91,0,0,0-.24-2.13,2.53,2.53,0,0,0-4.75,0,6.57,6.57,0,0,0-.25,2.13,6.73,6.73,0,0,0,.25,2.16,2.53,2.53,0,0,0,4.75,0Z"/><path d="M577.32,15.2a.2.2,0,0,1-.22-.22V14h0a3.21,3.21,0,0,1-3,1.48,3.48,3.48,0,0,1-3.63-2.53,8.72,8.72,0,0,1-.38-3,8.64,8.64,0,0,1,.38-3,3.48,3.48,0,0,1,3.63-2.53,3.2,3.2,0,0,1,3,1.46h0V.46a.21.21,0,0,1,.22-.22h1.41a.21.21,0,0,1,.22.22V15a.2.2,0,0,1-.22.22Zm-.46-3.08a6.92,6.92,0,0,0,.24-2.2,7.08,7.08,0,0,0-.24-2.2,2.49,2.49,0,0,0-4.64,0,7.39,7.39,0,0,0-.25,2.2,7.14,7.14,0,0,0,.25,2.2,2.48,2.48,0,0,0,4.64,0Z"/><path d="M581.39,12.59A8.36,8.36,0,0,1,581,9.92a8.17,8.17,0,0,1,.33-2.66,4.43,4.43,0,0,1,8.27,0,9.21,9.21,0,0,1,.33,3,.22.22,0,0,1-.24.22h-6.67c-.09,0-.13,0-.13.13a3.9,3.9,0,0,0,.18,1.27,2.6,2.6,0,0,0,2.66,1.83,3.47,3.47,0,0,0,2.71-1.17.22.22,0,0,1,.33,0l.9.81a.2.2,0,0,1,0,.31,5.13,5.13,0,0,1-4.12,1.81A4.08,4.08,0,0,1,581.39,12.59ZM588,9a.12.12,0,0,0,.13-.13,4.06,4.06,0,0,0-.15-1.19,2.61,2.61,0,0,0-4.85,0,3.75,3.75,0,0,0-.15,1.19c0,.09,0,.13.13.13Z"/><path d="M1,47.17A.21.21,0,0,1,.76,47V32.88A.2.2,0,0,1,1,32.67H2.39a.2.2,0,0,1,.22.21v1h0a3.2,3.2,0,0,1,3-1.46A3.48,3.48,0,0,1,9.25,35a8.64,8.64,0,0,1,.38,3,8.72,8.72,0,0,1-.38,3,3.48,3.48,0,0,1-3.63,2.53,3.21,3.21,0,0,1-3-1.48h0v5a.21.21,0,0,1-.22.22Zm6.51-7.05a7.18,7.18,0,0,0,.24-2.2,7.43,7.43,0,0,0-.24-2.2,2.23,2.23,0,0,0-2.31-1.58,2.24,2.24,0,0,0-2.33,1.58,6.79,6.79,0,0,0-.24,2.2,6.63,6.63,0,0,0,.24,2.2,2.26,2.26,0,0,0,2.33,1.61A2.25,2.25,0,0,0,7.49,40.12Z"/><path d="M11.43,40.59a8.36,8.36,0,0,1-.35-2.67,8.17,8.17,0,0,1,.33-2.66,4.07,4.07,0,0,1,4.13-2.84,4.08,4.08,0,0,1,4.14,2.84,9.21,9.21,0,0,1,.33,3,.22.22,0,0,1-.24.22H13.1c-.09,0-.13,0-.13.13a3.9,3.9,0,0,0,.18,1.27,2.6,2.6,0,0,0,2.66,1.83,3.47,3.47,0,0,0,2.71-1.17.22.22,0,0,1,.33,0l.9.81a.2.2,0,0,1,0,.31,5.13,5.13,0,0,1-4.12,1.81A4.08,4.08,0,0,1,11.43,40.59ZM18,37a.12.12,0,0,0,.13-.13A3.72,3.72,0,0,0,18,35.7a2.38,2.38,0,0,0-2.42-1.65,2.4,2.4,0,0,0-2.42,1.65A3.75,3.75,0,0,0,13,36.89c0,.09,0,.13.13.13Z"/><path d="M22.32,43.2A.2.2,0,0,1,22.1,43V32.88a.2.2,0,0,1,.22-.21h1.41a.2.2,0,0,1,.22.21V34h0a2.94,2.94,0,0,1,2.79-1.54,3.26,3.26,0,0,1,2.16.79c.11.12.13.2,0,.31l-.81,1.08a.21.21,0,0,1-.31,0,2.94,2.94,0,0,0-1.63-.51c-1.6,0-2.26,1.25-2.26,3.08V43a.2.2,0,0,1-.22.22Z"/><path d="M29.34,41.86a.21.21,0,0,1,0-.31l.9-1a.21.21,0,0,1,.31,0A5.12,5.12,0,0,0,33.8,41.8c1.54,0,2.31-.66,2.31-1.61s-.39-1.3-2-1.47l-1.13-.11c-2.06-.22-3.14-1.26-3.14-3,0-2,1.43-3.22,3.92-3.22a6.3,6.3,0,0,1,3.74,1.17.21.21,0,0,1,0,.31l-.75.94a.22.22,0,0,1-.31,0A5.54,5.54,0,0,0,33.6,34c-1.32,0-2,.59-2,1.45s.51,1.28,2.07,1.43l1.1.11c2.14.2,3.17,1.28,3.17,3,0,2.07-1.5,3.46-4.25,3.46A6.52,6.52,0,0,1,29.34,41.86Z"/><path d="M39.68,40.61a8,8,0,0,1-.36-2.69,7.88,7.88,0,0,1,.36-2.66,4.08,4.08,0,0,1,4.16-2.84A4.07,4.07,0,0,1,48,35.26a7.64,7.64,0,0,1,.36,2.66A7.71,7.71,0,0,1,48,40.61a4.09,4.09,0,0,1-4.15,2.84A4.1,4.1,0,0,1,39.68,40.61Zm6.53-.53a6.78,6.78,0,0,0,.24-2.16,6.61,6.61,0,0,0-.24-2.13,2.53,2.53,0,0,0-4.75,0,6.61,6.61,0,0,0-.24,2.13,6.78,6.78,0,0,0,.24,2.16,2.53,2.53,0,0,0,4.75,0Z"/><path d="M57.28,43.2a.2.2,0,0,1-.22-.22V36.82c0-1.69-.77-2.68-2.36-2.68a2.36,2.36,0,0,0-2.42,2.57V43a.2.2,0,0,1-.22.22H50.65a.2.2,0,0,1-.21-.22V32.88a.19.19,0,0,1,.21-.21h1.41a.2.2,0,0,1,.22.21v1h0a3.35,3.35,0,0,1,3-1.43c2.29,0,3.66,1.57,3.66,4V43a.2.2,0,0,1-.22.22Z"/><path d="M67.9,43.2a.2.2,0,0,1-.22-.22v-.92h0a3.46,3.46,0,0,1-3.12,1.39c-2,0-3.55-1-3.55-3.17S62.53,37,65.11,37h2.4c.09,0,.13,0,.13-.13v-.77c0-1.45-.57-2.07-2.53-2.07a4.07,4.07,0,0,0-2.55.75c-.11.09-.25.09-.31,0l-.6-1a.24.24,0,0,1,.05-.31,5.8,5.8,0,0,1,3.58-1c3,0,4.14,1,4.14,3.59v7a.2.2,0,0,1-.22.22Zm-.26-3.41V38.63c0-.09,0-.13-.13-.13H65.4c-1.83,0-2.62.52-2.62,1.71s.79,1.65,2.2,1.65C66.63,41.86,67.64,41.09,67.64,39.79Z"/><path d="M74.59,43.31c-1.85,0-2.57-.88-2.57-2.77V28.46a.2.2,0,0,1,.22-.22h1.4a.2.2,0,0,1,.22.22v12c0,.88.33,1.17,1.06,1.17h.42a.21.21,0,0,1,.22.22v1.27a.2.2,0,0,1-.22.22Z"/><path d="M81.39,40.59A8.36,8.36,0,0,1,81,37.92a8.17,8.17,0,0,1,.33-2.66,4.43,4.43,0,0,1,8.27,0,9.21,9.21,0,0,1,.33,3,.22.22,0,0,1-.24.22H83.06c-.09,0-.13,0-.13.13a3.93,3.93,0,0,0,.17,1.27,2.62,2.62,0,0,0,2.67,1.83,3.43,3.43,0,0,0,2.7-1.17.22.22,0,0,1,.33,0l.9.81a.21.21,0,0,1,0,.31,5.13,5.13,0,0,1-4.12,1.81A4.08,4.08,0,0,1,81.39,40.59ZM87.94,37c.09,0,.14,0,.14-.13a3.72,3.72,0,0,0-.16-1.19,2.6,2.6,0,0,0-4.84,0,3.75,3.75,0,0,0-.15,1.19c0,.09,0,.13.13.13Z"/><path d="M98.33,43.2A.35.35,0,0,1,98,43l-2.55-3.72h0L92.87,43a.32.32,0,0,1-.33.19H91c-.18,0-.22-.11-.15-.22l3.58-5.28-3.28-4.82c-.06-.11,0-.21.16-.21h1.58a.32.32,0,0,1,.33.19l2.22,3.28h0l2.26-3.28a.32.32,0,0,1,.31-.19H99.6c.18,0,.22.1.16.21l-3.3,4.82L100.07,43c.06.11,0,.22-.16.22Z"/><path d="M104.71,43.31c-2,0-2.84-.92-2.84-3v-6a.12.12,0,0,0-.13-.13h-.88a.21.21,0,0,1-.22-.22V32.88a.2.2,0,0,1,.22-.21h.88c.09,0,.13-.05.13-.14v-3a.21.21,0,0,1,.22-.22h1.41a.21.21,0,0,1,.22.22v3c0,.09,0,.14.13.14h1.67a.2.2,0,0,1,.22.21v1.06a.21.21,0,0,1-.22.22h-1.67a.12.12,0,0,0-.13.13v6c0,1.05.39,1.34,1.34,1.34h.46a.21.21,0,0,1,.22.22v1.27a.2.2,0,0,1-.22.22Z"/><path d="M107.94,43.2a.2.2,0,0,1-.22-.22V32.88a.2.2,0,0,1,.22-.21h1.41a.2.2,0,0,1,.22.21V34h0a2.94,2.94,0,0,1,2.8-1.54,3.26,3.26,0,0,1,2.15.79c.11.12.13.2,0,.31l-.82,1.08a.21.21,0,0,1-.31,0,2.93,2.93,0,0,0-1.62-.51c-1.61,0-2.27,1.25-2.27,3.08V43a.2.2,0,0,1-.22.22Z"/><path d="M115.18,40.59a8.36,8.36,0,0,1-.35-2.67,8.17,8.17,0,0,1,.33-2.66,4.43,4.43,0,0,1,8.27,0,9.21,9.21,0,0,1,.33,3,.22.22,0,0,1-.24.22h-6.67c-.09,0-.13,0-.13.13a3.64,3.64,0,0,0,.18,1.27,2.6,2.6,0,0,0,2.66,1.83,3.43,3.43,0,0,0,2.7-1.17.22.22,0,0,1,.33,0l.91.81a.2.2,0,0,1,0,.31,5.13,5.13,0,0,1-4.12,1.81A4.08,4.08,0,0,1,115.18,40.59ZM121.74,37a.12.12,0,0,0,.13-.13,3.72,3.72,0,0,0-.16-1.19,2.6,2.6,0,0,0-4.84,0,3.75,3.75,0,0,0-.15,1.19c0,.09,0,.13.13.13Z"/><path d="M139.31,43.2a.2.2,0,0,1-.21-.22V36.82c0-1.69-.78-2.68-2.36-2.68a2.37,2.37,0,0,0-2.42,2.57V43a.2.2,0,0,1-.22.22h-1.41a.2.2,0,0,1-.22-.22V36.82c0-1.69-.77-2.68-2.35-2.68a2.36,2.36,0,0,0-2.42,2.57V43a.2.2,0,0,1-.22.22h-1.41a.2.2,0,0,1-.22-.22V32.88a.2.2,0,0,1,.22-.21h1.41a.2.2,0,0,1,.22.21v1h0a3.73,3.73,0,0,1,6,.22h0a3.93,3.93,0,0,1,3.41-1.65c2.44,0,3.76,1.57,3.76,4V43a.2.2,0,0,1-.22.22Z"/><path d="M143.27,40.61a8,8,0,0,1-.35-2.69,7.92,7.92,0,0,1,.35-2.66,4.47,4.47,0,0,1,8.32,0,7.92,7.92,0,0,1,.35,2.66,8,8,0,0,1-.35,2.69,4.47,4.47,0,0,1-8.32,0Zm6.54-.53a7.09,7.09,0,0,0,.24-2.16,6.91,6.91,0,0,0-.24-2.13,2.54,2.54,0,0,0-4.76,0,6.91,6.91,0,0,0-.24,2.13,7.09,7.09,0,0,0,.24,2.16,2.54,2.54,0,0,0,4.76,0Z"/><path d="M153.77,41.09a.2.2,0,0,1,.22-.22h1.67a.21.21,0,0,1,.22.22V43a.2.2,0,0,1-.22.22H154a.2.2,0,0,1-.22-.22Z"/></g></g></svg>