<svg xmlns="http://www.w3.org/2000/svg" viewBox="0 0 393.52 76.64"><title>6a</title><g id="Capa_2" data-name="Capa 2"><g id="answer_copia" data-name="answer copia"><path d="M5.09,16.32a.22.22,0,0,1-.24-.24V2.14A.13.13,0,0,0,4.7,2H.24A.23.23,0,0,1,0,1.75V.24A.23.23,0,0,1,.24,0H11.59a.23.23,0,0,1,.24.24V1.75a.22.22,0,0,1-.24.24H7.13A.13.13,0,0,0,7,2.14V16.08a.22.22,0,0,1-.24.24Z"/><path d="M11,13.47a9.1,9.1,0,0,1-.38-2.91A8.87,8.87,0,0,1,11,7.66a4.44,4.44,0,0,1,4.51-3.1A4.45,4.45,0,0,1,20,7.66a10,10,0,0,1,.36,3.28.23.23,0,0,1-.26.25H12.82c-.1,0-.15,0-.15.14a4.3,4.3,0,0,0,.19,1.39,2.84,2.84,0,0,0,2.91,2,3.74,3.74,0,0,0,2.95-1.27.25.25,0,0,1,.36,0l1,.89a.21.21,0,0,1,0,.34,5.59,5.59,0,0,1-4.49,2A4.45,4.45,0,0,1,11,13.47Zm7.15-3.89a.13.13,0,0,0,.15-.15,4,4,0,0,0-.17-1.29,2.58,2.58,0,0,0-2.64-1.8,2.58,2.58,0,0,0-2.64,1.8,4,4,0,0,0-.17,1.29.13.13,0,0,0,.15.15Z"/><path d="M29.62,16.32a.22.22,0,0,1-.24-.24V9.36c0-1.85-.84-2.93-2.57-2.93a2.58,2.58,0,0,0-2.64,2.81v6.84a.23.23,0,0,1-.24.24H22.39a.23.23,0,0,1-.24-.24v-11a.23.23,0,0,1,.24-.24h1.54a.23.23,0,0,1,.24.24V6.12h0a3.63,3.63,0,0,1,3.22-1.56c2.49,0,4,1.7,4,4.32v7.2a.22.22,0,0,1-.24.24Z"/><path d="M33.53,19.2a.21.21,0,0,1,0-.33l1-1a.23.23,0,0,1,.36,0A3.81,3.81,0,0,0,37.61,19c1.89,0,2.9-1,2.9-3.09V14.59h0a3.3,3.3,0,0,1-3.19,1.59,3.78,3.78,0,0,1-3.87-2.79,8.92,8.92,0,0,1-.38-3,9,9,0,0,1,.38-3A3.77,3.77,0,0,1,37.3,4.56a3.3,3.3,0,0,1,3.19,1.58h0V5.06a.23.23,0,0,1,.24-.24h1.54a.23.23,0,0,1,.24.24V15.82c0,3.26-1.78,5.09-5,5.09A5.18,5.18,0,0,1,33.53,19.2Zm6.72-6.6a7.08,7.08,0,0,0,.26-2.23,7.12,7.12,0,0,0-.26-2.23,2.59,2.59,0,0,0-4.87,0,6.93,6.93,0,0,0-.29,2.23,6.89,6.89,0,0,0,.29,2.23,2.34,2.34,0,0,0,2.42,1.73A2.38,2.38,0,0,0,40.25,12.6Z"/><path d="M52,16.32a.23.23,0,0,1-.24-.24v-1h0a3.77,3.77,0,0,1-3.41,1.52c-2.18,0-3.86-1.13-3.86-3.46s1.68-3.55,4.49-3.55h2.61a.13.13,0,0,0,.15-.15V8.59c0-1.58-.63-2.25-2.76-2.25a4.48,4.48,0,0,0-2.79.81c-.12.1-.26.1-.33,0L45.17,6a.24.24,0,0,1,0-.33,6.36,6.36,0,0,1,3.91-1.13c3.26,0,4.51,1.08,4.51,3.91v7.61a.23.23,0,0,1-.24.24ZM51.7,12.6V11.33c0-.1-.05-.14-.15-.14h-2.3c-2,0-2.86.57-2.86,1.87s.87,1.8,2.4,1.8C50.59,14.86,51.7,14,51.7,12.6Z"/><path d="M60.05,13.47a9.05,9.05,0,0,1-.39-2.91A8.87,8.87,0,0,1,60,7.66a4.84,4.84,0,0,1,9,0,10,10,0,0,1,.36,3.28.24.24,0,0,1-.27.25H61.87c-.1,0-.14,0-.14.14a4.3,4.3,0,0,0,.19,1.39,2.84,2.84,0,0,0,2.9,2,3.78,3.78,0,0,0,3-1.27.25.25,0,0,1,.36,0l1,.89a.22.22,0,0,1,0,.34,5.59,5.59,0,0,1-4.48,2A4.45,4.45,0,0,1,60.05,13.47ZM67.2,9.58c.1,0,.14-.05.14-.15a4,4,0,0,0-.16-1.29,2.84,2.84,0,0,0-5.28,0,3.74,3.74,0,0,0-.17,1.29c0,.1,0,.15.14.15Z"/><path d="M78.67,16.32a.23.23,0,0,1-.24-.24V9.36c0-1.85-.84-2.93-2.57-2.93a2.58,2.58,0,0,0-2.64,2.81v6.84a.22.22,0,0,1-.24.24H71.45a.22.22,0,0,1-.24-.24v-11a.23.23,0,0,1,.24-.24H73a.23.23,0,0,1,.24.24V6.12h0a3.62,3.62,0,0,1,3.21-1.56c2.5,0,4,1.7,4,4.32v7.2a.23.23,0,0,1-.24.24Z"/><path d="M86.81,7.66a4.43,4.43,0,0,1,4.53-3.1A4.62,4.62,0,0,1,95.28,6.5a.23.23,0,0,1-.07.34l-1.06.86a.22.22,0,0,1-.34,0,2.82,2.82,0,0,0-2.47-1.25,2.5,2.5,0,0,0-2.57,1.8,7.75,7.75,0,0,0-.26,2.33,7.81,7.81,0,0,0,.26,2.35,2.5,2.5,0,0,0,2.57,1.8,2.82,2.82,0,0,0,2.47-1.24.22.22,0,0,1,.34,0l1.06.87c.14.12.14.21.07.33a4.62,4.62,0,0,1-3.94,1.95,4.44,4.44,0,0,1-4.53-3.1,9.81,9.81,0,0,1-.36-2.93A9.69,9.69,0,0,1,86.81,7.66Z"/><path d="M104.25,16.32a.23.23,0,0,1-.24-.24V15h0a3.51,3.51,0,0,1-3.14,1.59c-2.52,0-4-1.73-4-4.35V5.06a.23.23,0,0,1,.24-.24h1.54a.23.23,0,0,1,.24.24v6.7c0,1.87.84,3,2.54,3A2.55,2.55,0,0,0,104,11.88V5.06a.23.23,0,0,1,.24-.24h1.54a.23.23,0,0,1,.24.24v11a.23.23,0,0,1-.24.24Z"/><path d="M108.21,13.47a9.1,9.1,0,0,1-.38-2.91,8.87,8.87,0,0,1,.36-2.9,4.83,4.83,0,0,1,9,0,10,10,0,0,1,.36,3.28.23.23,0,0,1-.26.25H110c-.1,0-.15,0-.15.14a4.27,4.27,0,0,0,.2,1.39,2.83,2.83,0,0,0,2.9,2,3.74,3.74,0,0,0,3-1.27.25.25,0,0,1,.36,0l1,.89a.22.22,0,0,1,0,.34,5.59,5.59,0,0,1-4.49,2A4.45,4.45,0,0,1,108.21,13.47Zm7.16-3.89c.09,0,.14-.05.14-.15a4,4,0,0,0-.17-1.29,2.84,2.84,0,0,0-5.28,0,4,4,0,0,0-.17,1.29.13.13,0,0,0,.15.15Z"/><path d="M126.84,16.32a.22.22,0,0,1-.24-.24V9.36c0-1.85-.84-2.93-2.57-2.93a2.58,2.58,0,0,0-2.64,2.81v6.84a.23.23,0,0,1-.24.24h-1.54a.23.23,0,0,1-.24-.24v-11a.23.23,0,0,1,.24-.24h1.54a.23.23,0,0,1,.24.24V6.12h0a3.65,3.65,0,0,1,3.22-1.56c2.5,0,4,1.7,4,4.32v7.2a.22.22,0,0,1-.24.24Z"/><path d="M134.32,16.44c-2.23,0-3.09-1-3.09-3.26V6.6c0-.1,0-.14-.15-.14h-1a.23.23,0,0,1-.24-.24V5.06a.23.23,0,0,1,.24-.24h1c.1,0,.15,0,.15-.14V1.44a.23.23,0,0,1,.24-.24H133a.23.23,0,0,1,.24.24V4.68c0,.1,0,.14.15.14h1.82a.23.23,0,0,1,.24.24V6.22a.23.23,0,0,1-.24.24h-1.82c-.1,0-.15,0-.15.14v6.5c0,1.16.44,1.47,1.47,1.47h.5a.23.23,0,0,1,.24.24V16.2a.22.22,0,0,1-.24.24Z"/><path d="M144.09,16.32a.23.23,0,0,1-.24-.24v-1h0a3.77,3.77,0,0,1-3.41,1.52c-2.18,0-3.86-1.13-3.86-3.46s1.68-3.55,4.48-3.55h2.62c.1,0,.14-.05.14-.15V8.59c0-1.58-.62-2.25-2.76-2.25a4.47,4.47,0,0,0-2.78.81.22.22,0,0,1-.34,0L137.28,6a.24.24,0,0,1,0-.33,6.42,6.42,0,0,1,3.92-1.13c3.26,0,4.51,1.08,4.51,3.91v7.61a.23.23,0,0,1-.24.24Zm-.29-3.72V11.33c0-.1,0-.14-.14-.14h-2.3c-2,0-2.86.57-2.86,1.87s.86,1.8,2.4,1.8C142.7,14.86,143.8,14,143.8,12.6Z"/><path d="M159.43,16.32a.22.22,0,0,1-.24-.24v-1h0a3.74,3.74,0,0,1-3.4,1.52c-2.19,0-3.87-1.13-3.87-3.46s1.68-3.55,4.49-3.55H159c.09,0,.14-.05.14-.15V8.59c0-1.58-.62-2.25-2.76-2.25a4.44,4.44,0,0,0-2.78.81c-.12.1-.27.1-.34,0L152.61,6a.24.24,0,0,1,0-.33,6.38,6.38,0,0,1,3.91-1.13c3.27,0,4.51,1.08,4.51,3.91v7.61a.22.22,0,0,1-.24.24Zm-.29-3.72V11.33a.12.12,0,0,0-.14-.14h-2.31c-2,0-2.85.57-2.85,1.87s.86,1.8,2.4,1.8C158,14.86,159.14,14,159.14,12.6Z"/><path d="M166.24,16.44c-2,0-2.8-1-2.8-3V.24a.23.23,0,0,1,.24-.24h1.53a.23.23,0,0,1,.24.24V13.3c0,1,.36,1.27,1.15,1.27h.46a.23.23,0,0,1,.24.24V16.2a.23.23,0,0,1-.24.24Z"/><path d="M173.25,16.32a.23.23,0,0,1-.24-.24v-11a.23.23,0,0,1,.24-.24h1.54a.23.23,0,0,1,.24.24V6.24h0a3.21,3.21,0,0,1,3-1.68,3.56,3.56,0,0,1,2.35.86c.12.12.15.22.05.34l-.89,1.18a.21.21,0,0,1-.33,0,3.31,3.31,0,0,0-1.78-.55c-1.75,0-2.47,1.37-2.47,3.36v6.29a.23.23,0,0,1-.24.24Z"/><path d="M180.67,13.47a9.05,9.05,0,0,1-.39-2.91,8.87,8.87,0,0,1,.36-2.9,4.84,4.84,0,0,1,9,0,10,10,0,0,1,.36,3.28.24.24,0,0,1-.26.25h-7.28a.12.12,0,0,0-.14.14,4.3,4.3,0,0,0,.19,1.39,2.84,2.84,0,0,0,2.9,2,3.78,3.78,0,0,0,3-1.27.25.25,0,0,1,.36,0l1,.89a.22.22,0,0,1,0,.34,5.62,5.62,0,0,1-4.49,2A4.45,4.45,0,0,1,180.67,13.47Zm7.15-3.89c.1,0,.14-.05.14-.15a4,4,0,0,0-.16-1.29,2.84,2.84,0,0,0-5.28,0,4,4,0,0,0-.17,1.29c0,.1.05.15.14.15Z"/><path d="M198.79,16.32a.22.22,0,0,1-.24-.24v-1h0a3.74,3.74,0,0,1-3.4,1.52c-2.19,0-3.87-1.13-3.87-3.46s1.68-3.55,4.49-3.55h2.62c.09,0,.14-.05.14-.15V8.59c0-1.58-.62-2.25-2.76-2.25a4.44,4.44,0,0,0-2.78.81c-.12.1-.27.1-.34,0L192,6a.24.24,0,0,1,.05-.33,6.38,6.38,0,0,1,3.91-1.13c3.27,0,4.51,1.08,4.51,3.91v7.61a.22.22,0,0,1-.24.24Zm-.29-3.72V11.33a.12.12,0,0,0-.14-.14h-2.31c-2,0-2.85.57-2.85,1.87s.86,1.8,2.4,1.8C197.4,14.86,198.5,14,198.5,12.6Z"/><path d="M205.6,16.44c-2,0-2.8-1-2.8-3V.24A.23.23,0,0,1,203,0h1.53a.23.23,0,0,1,.24.24V13.3c0,1,.36,1.27,1.15,1.27h.46a.23.23,0,0,1,.24.24V16.2a.23.23,0,0,1-.24.24Z"/><path d="M208.24,2.23A.23.23,0,0,1,208,2V.24a.23.23,0,0,1,.24-.24h1.64a.23.23,0,0,1,.24.24V2a.23.23,0,0,1-.24.24Zm0,14.09a.23.23,0,0,1-.24-.24v-11a.23.23,0,0,1,.24-.24h1.54a.23.23,0,0,1,.24.24v11a.23.23,0,0,1-.24.24Z"/><path d="M212.16,16.32a.22.22,0,0,1-.24-.24V14.81a.35.35,0,0,1,.09-.26l6.31-7.85v0h-5.85a.23.23,0,0,1-.24-.24V5.06a.23.23,0,0,1,.24-.24h8a.23.23,0,0,1,.24.24V6.41a.35.35,0,0,1-.09.26l-6.27,7.78v.05h6.12a.22.22,0,0,1,.24.24v1.34a.22.22,0,0,1-.24.24Z"/><path d="M229.53,16.32a.23.23,0,0,1-.24-.24v-1h0a3.77,3.77,0,0,1-3.41,1.52c-2.18,0-3.86-1.13-3.86-3.46s1.68-3.55,4.48-3.55h2.62c.1,0,.14-.05.14-.15V8.59c0-1.58-.62-2.25-2.76-2.25a4.47,4.47,0,0,0-2.78.81.22.22,0,0,1-.34,0L222.72,6a.24.24,0,0,1,0-.33,6.42,6.42,0,0,1,3.92-1.13c3.26,0,4.51,1.08,4.51,3.91v7.61a.23.23,0,0,1-.24.24Zm-.29-3.72V11.33c0-.1,0-.14-.14-.14h-2.3c-2,0-2.86.57-2.86,1.87s.86,1.8,2.4,1.8C228.14,14.86,229.24,14,229.24,12.6Z"/><path d="M233.83,16.32a.22.22,0,0,1-.24-.24v-11a.23.23,0,0,1,.24-.24h1.53a.23.23,0,0,1,.24.24V6.24h0a3.2,3.2,0,0,1,3.05-1.68,3.58,3.58,0,0,1,2.35.86c.12.12.14.22.05.34l-.89,1.18a.22.22,0,0,1-.34,0,3.28,3.28,0,0,0-1.77-.55c-1.76,0-2.48,1.37-2.48,3.36v6.29a.22.22,0,0,1-.24.24Z"/><path d="M246,13.47a8.78,8.78,0,0,1-.39-2.91,8.87,8.87,0,0,1,.36-2.9,4.84,4.84,0,0,1,9,0,10,10,0,0,1,.36,3.28.24.24,0,0,1-.27.25h-7.27c-.1,0-.14,0-.14.14a4.3,4.3,0,0,0,.19,1.39,2.83,2.83,0,0,0,2.9,2,3.74,3.74,0,0,0,2.95-1.27.25.25,0,0,1,.36,0l1,.89a.22.22,0,0,1,0,.34,5.59,5.59,0,0,1-4.49,2A4.44,4.44,0,0,1,246,13.47Zm7.15-3.89c.09,0,.14-.05.14-.15a4,4,0,0,0-.17-1.29,2.84,2.84,0,0,0-5.28,0,4,4,0,0,0-.16,1.29c0,.1,0,.15.14.15Z"/><path d="M259.92,16.44c-2,0-2.81-1-2.81-3V.24a.23.23,0,0,1,.24-.24h1.53a.23.23,0,0,1,.24.24V13.3c0,1,.36,1.27,1.15,1.27h.46a.23.23,0,0,1,.24.24V16.2a.22.22,0,0,1-.24.24Z"/><path d="M269.44,16.44c-2,0-2.81-1-2.81-3V.24a.23.23,0,0,1,.24-.24h1.54a.23.23,0,0,1,.24.24V13.3c0,1,.36,1.27,1.15,1.27h.46a.23.23,0,0,1,.24.24V16.2a.23.23,0,0,1-.24.24Z"/><path d="M271.58,13.47a9.05,9.05,0,0,1-.39-2.91,8.87,8.87,0,0,1,.36-2.9,4.84,4.84,0,0,1,9,0,10,10,0,0,1,.36,3.28.24.24,0,0,1-.27.25H273.4a.12.12,0,0,0-.14.14,4.3,4.3,0,0,0,.19,1.39,2.84,2.84,0,0,0,2.9,2,3.78,3.78,0,0,0,3-1.27.25.25,0,0,1,.36,0l1,.89a.22.22,0,0,1,0,.34,5.59,5.59,0,0,1-4.48,2A4.45,4.45,0,0,1,271.58,13.47Zm7.15-3.89c.1,0,.14-.05.14-.15a4,4,0,0,0-.16-1.29,2.84,2.84,0,0,0-5.28,0,4,4,0,0,0-.17,1.29c0,.1.05.15.14.15Z"/><path d="M285.81,16.32c-.17,0-.24-.09-.29-.24l-4.13-11c0-.14,0-.24.2-.24h1.65c.17,0,.24.08.31.24l3,8.26h.05l2.9-8.26a.29.29,0,0,1,.29-.24h1.63c.17,0,.24.1.19.24l-4.1,11a.3.3,0,0,1-.31.24Z"/><path d="M299.59,16.32a.22.22,0,0,1-.24-.24v-1h0a3.75,3.75,0,0,1-3.41,1.52c-2.18,0-3.86-1.13-3.86-3.46s1.68-3.55,4.49-3.55h2.61a.13.13,0,0,0,.15-.15V8.59c0-1.58-.63-2.25-2.76-2.25a4.5,4.5,0,0,0-2.79.81c-.12.1-.26.1-.33,0L292.77,6a.24.24,0,0,1,.05-.33,6.38,6.38,0,0,1,3.91-1.13c3.27,0,4.51,1.08,4.51,3.91v7.61a.22.22,0,0,1-.24.24Zm-.29-3.72V11.33c0-.1-.05-.14-.15-.14h-2.3c-2,0-2.86.57-2.86,1.87s.87,1.8,2.4,1.8C298.19,14.86,299.3,14,299.3,12.6Z"/><path d="M311.11,16.32a.22.22,0,0,1-.24-.24V9.36c0-1.85-.84-2.93-2.57-2.93a2.58,2.58,0,0,0-2.64,2.81v6.84a.23.23,0,0,1-.24.24h-1.54a.23.23,0,0,1-.24-.24v-11a.23.23,0,0,1,.24-.24h1.54a.23.23,0,0,1,.24.24V6.12h0a3.63,3.63,0,0,1,3.22-1.56c2.5,0,4,1.7,4,4.32v7.2a.22.22,0,0,1-.24.24Z"/><path d="M318.59,16.44c-2.23,0-3.09-1-3.09-3.26V6.6c0-.1-.05-.14-.15-.14h-1a.23.23,0,0,1-.24-.24V5.06a.23.23,0,0,1,.24-.24h1c.1,0,.15,0,.15-.14V1.44a.23.23,0,0,1,.24-.24h1.53a.23.23,0,0,1,.24.24V4.68c0,.1.05.14.15.14h1.82a.23.23,0,0,1,.24.24V6.22a.23.23,0,0,1-.24.24h-1.82c-.1,0-.15,0-.15.14v6.5c0,1.16.44,1.47,1.47,1.47h.5a.23.23,0,0,1,.24.24V16.2a.22.22,0,0,1-.24.24Z"/><path d="M328.36,16.32a.23.23,0,0,1-.24-.24v-1h0a3.77,3.77,0,0,1-3.41,1.52c-2.18,0-3.86-1.13-3.86-3.46s1.68-3.55,4.48-3.55h2.62c.1,0,.14-.05.14-.15V8.59c0-1.58-.62-2.25-2.76-2.25a4.47,4.47,0,0,0-2.78.81.22.22,0,0,1-.34,0L321.55,6a.24.24,0,0,1,0-.33,6.42,6.42,0,0,1,3.92-1.13c3.26,0,4.51,1.08,4.51,3.91v7.61a.23.23,0,0,1-.24.24Zm-.29-3.72V11.33c0-.1,0-.14-.14-.14h-2.3c-2,0-2.86.57-2.86,1.87s.86,1.8,2.4,1.8C327,14.86,328.07,14,328.07,12.6Z"/><path d="M347.11,16.32a.22.22,0,0,1-.24-.24V9.36c0-1.85-.84-2.93-2.57-2.93a2.59,2.59,0,0,0-2.64,2.81v6.84a.23.23,0,0,1-.24.24h-1.54a.23.23,0,0,1-.24-.24V9.36c0-1.85-.84-2.93-2.57-2.93a2.58,2.58,0,0,0-2.64,2.81v6.84a.22.22,0,0,1-.24.24h-1.53a.22.22,0,0,1-.24-.24v-11a.23.23,0,0,1,.24-.24h1.53a.23.23,0,0,1,.24.24V6.12h0a4.06,4.06,0,0,1,6.57.24h0a4.29,4.29,0,0,1,3.72-1.8c2.66,0,4.1,1.7,4.1,4.32v7.2a.22.22,0,0,1-.24.24Z"/><path d="M351.45,2.23a.23.23,0,0,1-.24-.24V.24a.23.23,0,0,1,.24-.24h1.63a.23.23,0,0,1,.24.24V2a.22.22,0,0,1-.24.24Zm.05,14.09a.22.22,0,0,1-.24-.24v-11a.23.23,0,0,1,.24-.24H353a.23.23,0,0,1,.24.24v11a.22.22,0,0,1-.24.24Z"/><path d="M355.46,13.47a9.05,9.05,0,0,1-.39-2.91,8.87,8.87,0,0,1,.36-2.9,4.84,4.84,0,0,1,9,0,10,10,0,0,1,.36,3.28.24.24,0,0,1-.27.25h-7.27a.12.12,0,0,0-.14.14,4.3,4.3,0,0,0,.19,1.39,2.84,2.84,0,0,0,2.9,2,3.78,3.78,0,0,0,3-1.27.25.25,0,0,1,.36,0l1,.89a.22.22,0,0,1,0,.34,5.59,5.59,0,0,1-4.48,2A4.45,4.45,0,0,1,355.46,13.47Zm7.15-3.89c.1,0,.14-.05.14-.15a4,4,0,0,0-.16-1.29,2.84,2.84,0,0,0-5.28,0,4,4,0,0,0-.17,1.29c0,.1.05.15.14.15Z"/><path d="M374.08,16.32a.23.23,0,0,1-.24-.24V9.36c0-1.85-.84-2.93-2.57-2.93a2.58,2.58,0,0,0-2.64,2.81v6.84a.22.22,0,0,1-.24.24h-1.53a.22.22,0,0,1-.24-.24v-11a.23.23,0,0,1,.24-.24h1.53a.23.23,0,0,1,.24.24V6.12h0a3.62,3.62,0,0,1,3.21-1.56c2.5,0,4,1.7,4,4.32v7.2a.23.23,0,0,1-.24.24Z"/><path d="M381.57,16.44c-2.23,0-3.1-1-3.1-3.26V6.6a.12.12,0,0,0-.14-.14h-1a.23.23,0,0,1-.24-.24V5.06a.23.23,0,0,1,.24-.24h1a.12.12,0,0,0,.14-.14V1.44a.23.23,0,0,1,.24-.24h1.54a.23.23,0,0,1,.24.24V4.68a.12.12,0,0,0,.14.14h1.83a.23.23,0,0,1,.24.24V6.22a.23.23,0,0,1-.24.24h-1.83a.12.12,0,0,0-.14.14v6.5c0,1.16.43,1.47,1.46,1.47h.51a.23.23,0,0,1,.24.24V16.2a.23.23,0,0,1-.24.24Z"/><path d="M384.06,13.49a8.77,8.77,0,0,1-.38-2.93,8.65,8.65,0,0,1,.38-2.9,4.87,4.87,0,0,1,9.08,0,8.65,8.65,0,0,1,.38,2.9,8.77,8.77,0,0,1-.38,2.93,4.87,4.87,0,0,1-9.08,0Zm7.13-.58a7.22,7.22,0,0,0,.27-2.35,7.16,7.16,0,0,0-.27-2.33,2.76,2.76,0,0,0-5.18,0,7.5,7.5,0,0,0-.26,2.33,7.56,7.56,0,0,0,.26,2.35,2.76,2.76,0,0,0,5.18,0Z"/><path d="M1.54,48.64a.22.22,0,0,1-.24-.24V47a.23.23,0,0,1,.24-.24H2c.93,0,1.44-.41,1.94-1.73l.39-1L.07,33.06c0-.14,0-.24.19-.24H1.94a.29.29,0,0,1,.29.24l3,8.31h0l2.91-8.31a.29.29,0,0,1,.29-.24h1.63c.14,0,.24.1.19.24L5.78,45.21c-1,2.71-1.89,3.43-3.62,3.43Z"/><path d="M19.1,44.44c-2.23,0-3.09-1-3.09-3.26V34.6c0-.1-.05-.14-.15-.14h-1a.23.23,0,0,1-.24-.24V33.06a.23.23,0,0,1,.24-.24h1c.1,0,.15,0,.15-.14V29.44a.23.23,0,0,1,.24-.24h1.53a.23.23,0,0,1,.24.24v3.24c0,.1.05.14.15.14H20a.23.23,0,0,1,.24.24v1.16a.23.23,0,0,1-.24.24H18.17c-.1,0-.15,0-.15.14v6.5c0,1.16.44,1.47,1.47,1.47H20a.23.23,0,0,1,.24.24V44.2a.22.22,0,0,1-.24.24Z"/><path d="M22.15,44.32a.23.23,0,0,1-.24-.24v-11a.23.23,0,0,1,.24-.24h1.54a.23.23,0,0,1,.24.24v1.18h0A3.21,3.21,0,0,1,27,32.56a3.56,3.56,0,0,1,2.35.86c.12.12.15.22,0,.34l-.89,1.18a.21.21,0,0,1-.33,0,3.31,3.31,0,0,0-1.78-.55c-1.75,0-2.47,1.37-2.47,3.36v6.29a.23.23,0,0,1-.24.24Z"/><path d="M36.7,44.32a.22.22,0,0,1-.24-.24v-1h0A3.75,3.75,0,0,1,33,44.59c-2.18,0-3.86-1.13-3.86-3.46s1.68-3.55,4.49-3.55h2.61a.13.13,0,0,0,.15-.15v-.84c0-1.58-.63-2.25-2.76-2.25a4.5,4.5,0,0,0-2.79.81c-.12.1-.26.1-.33,0L29.88,34a.24.24,0,0,1,.05-.33,6.38,6.38,0,0,1,3.91-1.13c3.26,0,4.51,1.08,4.51,3.91v7.61a.22.22,0,0,1-.24.24Zm-.29-3.72V39.33c0-.1,0-.14-.15-.14H34c-2,0-2.86.57-2.86,1.87s.87,1.8,2.4,1.8C35.3,42.86,36.41,42,36.41,40.6Z"/><path d="M40,42.86a.23.23,0,0,1,0-.34l1-1.05a.23.23,0,0,1,.34,0,5.6,5.6,0,0,0,3.55,1.32c1.68,0,2.52-.73,2.52-1.76s-.43-1.41-2.23-1.61L43.9,39.3c-2.26-.24-3.44-1.36-3.44-3.24,0-2.18,1.56-3.5,4.28-3.5a6.88,6.88,0,0,1,4.08,1.27.23.23,0,0,1,0,.34l-.81,1a.24.24,0,0,1-.34,0,6,6,0,0,0-3.09-.94c-1.44,0-2.19.65-2.19,1.59s.55,1.39,2.26,1.56l1.2.12c2.33.21,3.45,1.39,3.45,3.24,0,2.25-1.63,3.77-4.63,3.77A7.18,7.18,0,0,1,40,42.86Z"/><path d="M53.83,44.44c-2,0-2.81-1-2.81-3V28.24a.23.23,0,0,1,.24-.24H52.8a.23.23,0,0,1,.24.24V41.3c0,1,.36,1.27,1.15,1.27h.46a.23.23,0,0,1,.24.24V44.2a.23.23,0,0,1-.24.24Z"/><path d="M63.24,44.32a.23.23,0,0,1-.24-.24v-1h0a3.77,3.77,0,0,1-3.41,1.52c-2.19,0-3.87-1.13-3.87-3.46s1.68-3.55,4.49-3.55h2.62c.09,0,.14,0,.14-.15v-.84c0-1.58-.62-2.25-2.76-2.25a4.47,4.47,0,0,0-2.78.81c-.12.1-.27.1-.34,0L56.42,34a.25.25,0,0,1,0-.33,6.4,6.4,0,0,1,3.91-1.13c3.27,0,4.52,1.08,4.52,3.91v7.61a.23.23,0,0,1-.24.24ZM63,40.6V39.33a.12.12,0,0,0-.14-.14H60.5c-2,0-2.85.57-2.85,1.87s.86,1.8,2.4,1.8C61.85,42.86,63,42,63,40.6Z"/><path d="M74.5,44.32a.22.22,0,0,1-.24-.24V43h0A3.49,3.49,0,0,1,71,44.59a3.8,3.8,0,0,1-4-2.76,9.68,9.68,0,0,1-.41-3.27A9.53,9.53,0,0,1,67,35.32a3.8,3.8,0,0,1,4-2.76,3.48,3.48,0,0,1,3.26,1.58h0v-5.9A.23.23,0,0,1,74.5,28H76a.23.23,0,0,1,.24.24V44.08a.22.22,0,0,1-.24.24ZM74,41a7.41,7.41,0,0,0,.27-2.4,7.53,7.53,0,0,0-.27-2.4,2.71,2.71,0,0,0-5.06,0,8.21,8.21,0,0,0-.27,2.4,8,8,0,0,0,.27,2.4A2.7,2.7,0,0,0,74,41Z"/><path d="M78.46,41.49a8.48,8.48,0,0,1-.39-2.93,8.37,8.37,0,0,1,.39-2.9,4.87,4.87,0,0,1,9.07,0,8.65,8.65,0,0,1,.38,2.9,8.77,8.77,0,0,1-.38,2.93,4.87,4.87,0,0,1-9.07,0Zm7.12-.58a7.22,7.22,0,0,0,.27-2.35,7.16,7.16,0,0,0-.27-2.33,2.76,2.76,0,0,0-5.18,0,7.5,7.5,0,0,0-.26,2.33,7.56,7.56,0,0,0,.26,2.35,2.76,2.76,0,0,0,5.18,0Z"/><path d="M101.23,44.32a.23.23,0,0,1-.24-.24V43h0a3.51,3.51,0,0,1-3.27,1.61,3.81,3.81,0,0,1-4-2.76,9.68,9.68,0,0,1-.41-3.27,9.53,9.53,0,0,1,.41-3.24,3.81,3.81,0,0,1,4-2.76A3.5,3.5,0,0,1,101,34.14h0v-5.9a.23.23,0,0,1,.24-.24h1.54a.23.23,0,0,1,.24.24V44.08a.23.23,0,0,1-.24.24Zm-.5-3.36a7.47,7.47,0,0,0,.26-2.4,7.59,7.59,0,0,0-.26-2.4,2.72,2.72,0,0,0-5.07,0,8.26,8.26,0,0,0-.26,2.4,8,8,0,0,0,.26,2.4,2.71,2.71,0,0,0,5.07,0Z"/><path d="M105.19,41.47a9.1,9.1,0,0,1-.38-2.91,8.87,8.87,0,0,1,.36-2.9,4.83,4.83,0,0,1,9,0,10,10,0,0,1,.36,3.28.23.23,0,0,1-.26.25H107c-.1,0-.15,0-.15.14a4.3,4.3,0,0,0,.19,1.39,2.84,2.84,0,0,0,2.91,2,3.74,3.74,0,0,0,3-1.27.25.25,0,0,1,.36,0l1,.89a.22.22,0,0,1,0,.34,5.59,5.59,0,0,1-4.49,2A4.45,4.45,0,0,1,105.19,41.47Zm7.15-3.89a.13.13,0,0,0,.15-.15,4,4,0,0,0-.17-1.29,2.84,2.84,0,0,0-5.28,0,4,4,0,0,0-.17,1.29.13.13,0,0,0,.15.15Z"/><path d="M120.33,35.66a4.45,4.45,0,0,1,4.54-3.1,4.62,4.62,0,0,1,3.94,1.94.23.23,0,0,1-.07.34l-1.06.86a.22.22,0,0,1-.34,0,2.82,2.82,0,0,0-2.47-1.25,2.5,2.5,0,0,0-2.57,1.8,7.75,7.75,0,0,0-.26,2.33,7.81,7.81,0,0,0,.26,2.35,2.5,2.5,0,0,0,2.57,1.8,2.82,2.82,0,0,0,2.47-1.24.22.22,0,0,1,.34,0l1.06.87c.14.12.14.21.07.33a4.62,4.62,0,0,1-3.94,2,4.46,4.46,0,0,1-4.54-3.1,10.15,10.15,0,0,1-.36-2.93A10,10,0,0,1,120.33,35.66Z"/><path d="M137.23,44.32a.23.23,0,0,1-.24-.24v-1h0a3.77,3.77,0,0,1-3.41,1.52c-2.19,0-3.87-1.13-3.87-3.46s1.68-3.55,4.49-3.55h2.62c.1,0,.14,0,.14-.15v-.84c0-1.58-.62-2.25-2.76-2.25a4.47,4.47,0,0,0-2.78.81c-.12.1-.27.1-.34,0L130.41,34a.25.25,0,0,1,.05-.33,6.42,6.42,0,0,1,3.92-1.13c3.26,0,4.51,1.08,4.51,3.91v7.61a.23.23,0,0,1-.24.24Zm-.29-3.72V39.33c0-.1,0-.14-.14-.14h-2.31c-2,0-2.85.57-2.85,1.87s.86,1.8,2.4,1.8C135.84,42.86,136.94,42,136.94,40.6Z"/><path d="M141.53,44.32a.22.22,0,0,1-.24-.24v-11a.23.23,0,0,1,.24-.24h1.53a.23.23,0,0,1,.24.24v1.18h0a3.2,3.2,0,0,1,3-1.68,3.58,3.58,0,0,1,2.35.86c.12.12.14.22.05.34l-.89,1.18a.22.22,0,0,1-.34,0,3.28,3.28,0,0,0-1.78-.55c-1.75,0-2.47,1.37-2.47,3.36v6.29a.22.22,0,0,1-.24.24Z"/><path d="M149,47.2a.21.21,0,0,1,0-.33l1-1a.23.23,0,0,1,.36,0A3.84,3.84,0,0,0,153.1,47c1.89,0,2.9-1,2.9-3.09V42.59h0a3.32,3.32,0,0,1-3.2,1.59,3.77,3.77,0,0,1-3.86-2.79,8.89,8.89,0,0,1-.39-3,9,9,0,0,1,.39-3,3.76,3.76,0,0,1,3.86-2.78,3.31,3.31,0,0,1,3.2,1.58h0V33.06a.23.23,0,0,1,.24-.24h1.54a.23.23,0,0,1,.24.24V43.82c0,3.26-1.78,5.09-5,5.09A5.21,5.21,0,0,1,149,47.2Zm6.73-6.6a7.08,7.08,0,0,0,.26-2.23,7.12,7.12,0,0,0-.26-2.23,2.6,2.6,0,0,0-4.88,0,7.22,7.22,0,0,0-.29,2.23,7.18,7.18,0,0,0,.29,2.23,2.59,2.59,0,0,0,4.88,0Z"/><path d="M167.47,44.32a.23.23,0,0,1-.24-.24v-1h0a3.77,3.77,0,0,1-3.41,1.52c-2.19,0-3.87-1.13-3.87-3.46s1.68-3.55,4.49-3.55H167c.1,0,.14,0,.14-.15v-.84c0-1.58-.62-2.25-2.76-2.25a4.47,4.47,0,0,0-2.78.81c-.12.1-.27.1-.34,0L160.65,34a.25.25,0,0,1,0-.33,6.42,6.42,0,0,1,3.92-1.13c3.26,0,4.51,1.08,4.51,3.91v7.61a.23.23,0,0,1-.24.24Zm-.29-3.72V39.33c0-.1,0-.14-.14-.14h-2.31c-2,0-2.85.57-2.85,1.87s.86,1.8,2.4,1.8C166.08,42.86,167.18,42,167.18,40.6Z"/><path d="M170.73,42.86a.25.25,0,0,1,0-.34l1-1.05a.22.22,0,0,1,.33,0,5.63,5.63,0,0,0,3.56,1.32c1.68,0,2.52-.73,2.52-1.76s-.43-1.41-2.23-1.61l-1.23-.12c-2.25-.24-3.43-1.36-3.43-3.24,0-2.18,1.56-3.5,4.27-3.5a6.88,6.88,0,0,1,4.08,1.27.24.24,0,0,1,0,.34l-.82,1a.23.23,0,0,1-.33,0,6.07,6.07,0,0,0-3.1-.94c-1.44,0-2.18.65-2.18,1.59s.55,1.39,2.25,1.56l1.2.12c2.33.21,3.46,1.39,3.46,3.24,0,2.25-1.63,3.77-4.63,3.77A7.19,7.19,0,0,1,170.73,42.86Z"/><path d="M188.93,44.44c-2,0-2.81-1-2.81-3V28.24a.23.23,0,0,1,.24-.24h1.53a.23.23,0,0,1,.24.24V41.3c0,1,.36,1.27,1.16,1.27h.45a.23.23,0,0,1,.24.24V44.2a.22.22,0,0,1-.24.24Z"/><path d="M198.33,44.32a.23.23,0,0,1-.24-.24v-1h0a3.77,3.77,0,0,1-3.41,1.52c-2.18,0-3.86-1.13-3.86-3.46s1.68-3.55,4.49-3.55h2.61a.13.13,0,0,0,.15-.15v-.84c0-1.58-.63-2.25-2.76-2.25a4.48,4.48,0,0,0-2.79.81c-.12.1-.26.1-.33,0L191.52,34a.24.24,0,0,1,0-.33,6.36,6.36,0,0,1,3.91-1.13c3.26,0,4.51,1.08,4.51,3.91v7.61a.23.23,0,0,1-.24.24Zm-.28-3.72V39.33c0-.1-.05-.14-.15-.14h-2.3c-2,0-2.86.57-2.86,1.87s.87,1.8,2.4,1.8C196.94,42.86,198.05,42,198.05,40.6Z"/><path d="M201.6,42.86a.23.23,0,0,1,0-.34l1-1.05a.23.23,0,0,1,.34,0,5.6,5.6,0,0,0,3.55,1.32c1.68,0,2.52-.73,2.52-1.76s-.43-1.41-2.23-1.61l-1.23-.12c-2.25-.24-3.43-1.36-3.43-3.24,0-2.18,1.56-3.5,4.27-3.5a6.88,6.88,0,0,1,4.08,1.27.24.24,0,0,1,.05.34l-.81,1a.24.24,0,0,1-.34,0,6,6,0,0,0-3.1-.94c-1.44,0-2.18.65-2.18,1.59s.55,1.39,2.26,1.56l1.2.12c2.32.21,3.45,1.39,3.45,3.24,0,2.25-1.63,3.77-4.63,3.77A7.16,7.16,0,0,1,201.6,42.86Z"/><path d="M217.27,44.32a.23.23,0,0,1-.24-.24v-11a.23.23,0,0,1,.24-.24h1.54a.23.23,0,0,1,.24.24v1.18h0a3.2,3.2,0,0,1,3.05-1.68,3.58,3.58,0,0,1,2.35.86c.12.12.14.22.05.34l-.89,1.18a.22.22,0,0,1-.34,0,3.25,3.25,0,0,0-1.77-.55c-1.75,0-2.47,1.37-2.47,3.36v6.29a.23.23,0,0,1-.24.24Z"/><path d="M224.69,41.47a9.05,9.05,0,0,1-.39-2.91,8.87,8.87,0,0,1,.36-2.9,4.84,4.84,0,0,1,9,0,10,10,0,0,1,.36,3.28.24.24,0,0,1-.27.25h-7.27c-.1,0-.14,0-.14.14a4.3,4.3,0,0,0,.19,1.39,2.83,2.83,0,0,0,2.9,2,3.74,3.74,0,0,0,2.95-1.27.25.25,0,0,1,.36,0l1,.89a.22.22,0,0,1,0,.34,5.59,5.59,0,0,1-4.49,2A4.44,4.44,0,0,1,224.69,41.47Zm7.15-3.89c.09,0,.14,0,.14-.15a4,4,0,0,0-.17-1.29,2.84,2.84,0,0,0-5.28,0,4,4,0,0,0-.16,1.29c0,.1,0,.15.14.15Z"/><path d="M235.51,35.66a4.45,4.45,0,0,1,4.54-3.1A4.6,4.6,0,0,1,244,34.5a.23.23,0,0,1-.07.34l-1.06.86a.21.21,0,0,1-.33,0,2.82,2.82,0,0,0-2.47-1.25,2.49,2.49,0,0,0-2.57,1.8,7.7,7.7,0,0,0-.27,2.33,7.76,7.76,0,0,0,.27,2.35,2.49,2.49,0,0,0,2.57,1.8,2.82,2.82,0,0,0,2.47-1.24.21.21,0,0,1,.33,0l1.06.87c.14.12.14.21.07.33a4.61,4.61,0,0,1-3.93,2,4.46,4.46,0,0,1-4.54-3.1,9.81,9.81,0,0,1-.36-2.93A9.69,9.69,0,0,1,235.51,35.66Z"/><path d="M245.13,41.49a8.77,8.77,0,0,1-.38-2.93,8.65,8.65,0,0,1,.38-2.9,4.87,4.87,0,0,1,9.08,0,8.65,8.65,0,0,1,.38,2.9,8.77,8.77,0,0,1-.38,2.93,4.87,4.87,0,0,1-9.08,0Zm7.13-.58a7.5,7.5,0,0,0,.27-2.35,7.45,7.45,0,0,0-.27-2.33,2.76,2.76,0,0,0-5.18,0,7.45,7.45,0,0,0-.27,2.33,7.5,7.5,0,0,0,.27,2.35,2.76,2.76,0,0,0,5.18,0Z"/><path d="M271.08,44.32a.22.22,0,0,1-.24-.24V37.36c0-1.85-.84-2.93-2.57-2.93a2.59,2.59,0,0,0-2.64,2.81v6.84a.23.23,0,0,1-.24.24h-1.54a.23.23,0,0,1-.24-.24V37.36c0-1.85-.84-2.93-2.57-2.93a2.58,2.58,0,0,0-2.64,2.81v6.84a.22.22,0,0,1-.24.24h-1.53a.22.22,0,0,1-.24-.24v-11a.23.23,0,0,1,.24-.24h1.53a.23.23,0,0,1,.24.24v1.06h0a4.07,4.07,0,0,1,6.58.24h0a4.29,4.29,0,0,1,3.72-1.8c2.66,0,4.1,1.7,4.1,4.32v7.2a.22.22,0,0,1-.24.24Z"/><path d="M274.92,41.47a9.05,9.05,0,0,1-.39-2.91,8.87,8.87,0,0,1,.36-2.9,4.84,4.84,0,0,1,9,0,10,10,0,0,1,.36,3.28.24.24,0,0,1-.27.25h-7.27a.12.12,0,0,0-.14.14,4.3,4.3,0,0,0,.19,1.39,2.84,2.84,0,0,0,2.9,2,3.78,3.78,0,0,0,3-1.27.25.25,0,0,1,.36,0l1,.89a.22.22,0,0,1,0,.34,5.59,5.59,0,0,1-4.48,2A4.45,4.45,0,0,1,274.92,41.47Zm7.15-3.89c.1,0,.14,0,.14-.15a4,4,0,0,0-.16-1.29,2.84,2.84,0,0,0-5.28,0,4,4,0,0,0-.17,1.29c0,.1,0,.15.14.15Z"/><path d="M293.54,44.32a.23.23,0,0,1-.24-.24V37.36c0-1.85-.84-2.93-2.57-2.93a2.58,2.58,0,0,0-2.64,2.81v6.84a.22.22,0,0,1-.24.24h-1.53a.22.22,0,0,1-.24-.24v-11a.23.23,0,0,1,.24-.24h1.53a.23.23,0,0,1,.24.24v1.06h0a3.62,3.62,0,0,1,3.21-1.56c2.5,0,4,1.7,4,4.32v7.2a.23.23,0,0,1-.24.24Z"/><path d="M304.89,44.32a.23.23,0,0,1-.24-.24V43h0a3.5,3.5,0,0,1-3.26,1.61,3.81,3.81,0,0,1-4-2.76,9.71,9.71,0,0,1-.4-3.27,9.56,9.56,0,0,1,.4-3.24,3.81,3.81,0,0,1,4-2.76,3.49,3.49,0,0,1,3.26,1.58h0v-5.9a.23.23,0,0,1,.24-.24h1.54a.23.23,0,0,1,.24.24V44.08a.23.23,0,0,1-.24.24Zm-.5-3.36a7.47,7.47,0,0,0,.26-2.4,7.59,7.59,0,0,0-.26-2.4,2.72,2.72,0,0,0-5.07,0,8.26,8.26,0,0,0-.26,2.4,8,8,0,0,0,.26,2.4,2.71,2.71,0,0,0,5.07,0Z"/><path d="M316.13,44.32a.22.22,0,0,1-.24-.24v-1h0a3.75,3.75,0,0,1-3.41,1.52c-2.18,0-3.86-1.13-3.86-3.46s1.68-3.55,4.49-3.55h2.61a.13.13,0,0,0,.15-.15v-.84c0-1.58-.63-2.25-2.76-2.25a4.5,4.5,0,0,0-2.79.81c-.12.1-.26.1-.33,0L309.31,34a.24.24,0,0,1,.05-.33,6.36,6.36,0,0,1,3.91-1.13c3.26,0,4.51,1.08,4.51,3.91v7.61a.22.22,0,0,1-.24.24Zm-.29-3.72V39.33c0-.1,0-.14-.15-.14h-2.3c-2,0-2.86.57-2.86,1.87s.87,1.8,2.4,1.8C314.73,42.86,315.84,42,315.84,40.6Z"/><path d="M319.85,35.66a4.43,4.43,0,0,1,4.53-3.1,4.62,4.62,0,0,1,3.94,1.94.23.23,0,0,1-.07.34l-1.06.86a.22.22,0,0,1-.34,0,2.82,2.82,0,0,0-2.47-1.25,2.5,2.5,0,0,0-2.57,1.8,7.75,7.75,0,0,0-.26,2.33,7.81,7.81,0,0,0,.26,2.35,2.5,2.5,0,0,0,2.57,1.8,2.82,2.82,0,0,0,2.47-1.24.22.22,0,0,1,.34,0l1.06.87c.14.12.14.21.07.33a4.62,4.62,0,0,1-3.94,2,4.44,4.44,0,0,1-4.53-3.1,9.76,9.76,0,0,1-.37-2.93A9.63,9.63,0,0,1,319.85,35.66Z"/><path d="M330.26,30.23A.23.23,0,0,1,330,30V28.24a.23.23,0,0,1,.24-.24h1.63a.23.23,0,0,1,.24.24V30a.22.22,0,0,1-.24.24Zm.05,14.09a.22.22,0,0,1-.24-.24v-11a.23.23,0,0,1,.24-.24h1.53a.23.23,0,0,1,.24.24v11a.22.22,0,0,1-.24.24Z"/><path d="M334.27,41.49a8.48,8.48,0,0,1-.39-2.93,8.37,8.37,0,0,1,.39-2.9,4.87,4.87,0,0,1,9.07,0,8.37,8.37,0,0,1,.39,2.9,8.48,8.48,0,0,1-.39,2.93,4.87,4.87,0,0,1-9.07,0Zm7.13-.58a7.56,7.56,0,0,0,.26-2.35,7.5,7.5,0,0,0-.26-2.33,2.77,2.77,0,0,0-5.19,0,7.5,7.5,0,0,0-.26,2.33,7.56,7.56,0,0,0,.26,2.35,2.77,2.77,0,0,0,5.19,0Z"/><path d="M353,44.32a.22.22,0,0,1-.24-.24V37.36c0-1.85-.84-2.93-2.57-2.93a2.58,2.58,0,0,0-2.64,2.81v6.84a.23.23,0,0,1-.24.24h-1.54a.23.23,0,0,1-.24-.24v-11a.23.23,0,0,1,.24-.24h1.54a.23.23,0,0,1,.24.24v1.06h0a3.65,3.65,0,0,1,3.22-1.56c2.5,0,4,1.7,4,4.32v7.2a.22.22,0,0,1-.24.24Z"/><path d="M356.83,41.47a9.05,9.05,0,0,1-.39-2.91,8.87,8.87,0,0,1,.36-2.9,4.84,4.84,0,0,1,9,0,10,10,0,0,1,.36,3.28.24.24,0,0,1-.27.25h-7.27a.12.12,0,0,0-.14.14,4.3,4.3,0,0,0,.19,1.39,2.84,2.84,0,0,0,2.9,2,3.78,3.78,0,0,0,3-1.27.25.25,0,0,1,.36,0l1,.89a.22.22,0,0,1,0,.34,5.59,5.59,0,0,1-4.48,2A4.45,4.45,0,0,1,356.83,41.47ZM364,37.58c.1,0,.14,0,.14-.15a4,4,0,0,0-.16-1.29,2.84,2.84,0,0,0-5.28,0,4,4,0,0,0-.17,1.29c0,.1.05.15.14.15Z"/><path d="M367.2,42.86a.23.23,0,0,1,0-.34l1-1.05a.23.23,0,0,1,.34,0,5.6,5.6,0,0,0,3.55,1.32c1.68,0,2.52-.73,2.52-1.76s-.43-1.41-2.23-1.61l-1.23-.12c-2.25-.24-3.43-1.36-3.43-3.24,0-2.18,1.56-3.5,4.27-3.5a6.88,6.88,0,0,1,4.08,1.27.24.24,0,0,1,.05.34l-.82,1a.23.23,0,0,1-.33,0,6.07,6.07,0,0,0-3.1-.94c-1.44,0-2.18.65-2.18,1.59s.55,1.39,2.25,1.56l1.2.12c2.33.21,3.46,1.39,3.46,3.24,0,2.25-1.63,3.77-4.63,3.77A7.16,7.16,0,0,1,367.2,42.86Z"/><path d="M8.64,72.32a.23.23,0,0,1-.24-.24V71h0a3.52,3.52,0,0,1-3.27,1.61,3.81,3.81,0,0,1-4-2.76,9.68,9.68,0,0,1-.41-3.27,9.57,9.57,0,0,1,.41-3.24,3.81,3.81,0,0,1,4-2.76,3.51,3.51,0,0,1,3.27,1.58h0v-5.9A.23.23,0,0,1,8.64,56h1.54a.23.23,0,0,1,.24.24V72.08a.23.23,0,0,1-.24.24ZM8.14,69a7.47,7.47,0,0,0,.26-2.4,7.59,7.59,0,0,0-.26-2.4,2.46,2.46,0,0,0-2.55-1.73,2.45,2.45,0,0,0-2.52,1.73,8.26,8.26,0,0,0-.26,2.4A8,8,0,0,0,3.07,69a2.46,2.46,0,0,0,2.52,1.75A2.48,2.48,0,0,0,8.14,69Z"/><path d="M12.6,69.47a9.1,9.1,0,0,1-.38-2.91,8.87,8.87,0,0,1,.36-2.9,4.42,4.42,0,0,1,4.51-3.1,4.45,4.45,0,0,1,4.51,3.1A10,10,0,0,1,22,66.94a.24.24,0,0,1-.26.25H14.42a.12.12,0,0,0-.14.14,4.3,4.3,0,0,0,.19,1.39,2.84,2.84,0,0,0,2.91,2,3.77,3.77,0,0,0,2.95-1.27.25.25,0,0,1,.36,0l1,.89a.22.22,0,0,1,0,.34,5.62,5.62,0,0,1-4.49,2A4.45,4.45,0,0,1,12.6,69.47Zm7.15-3.89a.13.13,0,0,0,.15-.15,4,4,0,0,0-.17-1.29,2.6,2.6,0,0,0-2.64-1.8,2.58,2.58,0,0,0-2.64,1.8,4,4,0,0,0-.17,1.29c0,.1.05.15.14.15Z"/><path d="M28.32,76.64a.23.23,0,0,1-.24-.24V61.06a.23.23,0,0,1,.24-.24h1.54a.23.23,0,0,1,.24.24v1.08h0a3.49,3.49,0,0,1,3.26-1.58,3.79,3.79,0,0,1,4,2.76,9.32,9.32,0,0,1,.41,3.24,9.43,9.43,0,0,1-.41,3.27,3.79,3.79,0,0,1-4,2.76A3.5,3.5,0,0,1,30.12,71h0V76.4a.23.23,0,0,1-.24.24ZM35.42,69a7.68,7.68,0,0,0,.27-2.4,7.88,7.88,0,0,0-.27-2.4,2.43,2.43,0,0,0-2.52-1.73,2.44,2.44,0,0,0-2.54,1.73,7.59,7.59,0,0,0-.26,2.4,7.47,7.47,0,0,0,.26,2.4,2.46,2.46,0,0,0,2.54,1.75A2.45,2.45,0,0,0,35.42,69Z"/><path d="M39.24,69.49a8.77,8.77,0,0,1-.38-2.93,8.65,8.65,0,0,1,.38-2.9,4.44,4.44,0,0,1,4.54-3.1,4.43,4.43,0,0,1,4.53,3.1,8.37,8.37,0,0,1,.39,2.9,8.48,8.48,0,0,1-.39,2.93,4.47,4.47,0,0,1-4.53,3.1A4.47,4.47,0,0,1,39.24,69.49Zm7.13-.58a7.6,7.6,0,0,0,.26-2.35,7.5,7.5,0,0,0-.26-2.33,2.77,2.77,0,0,0-5.19,0,7.5,7.5,0,0,0-.26,2.33,7.6,7.6,0,0,0,.26,2.35,2.77,2.77,0,0,0,5.19,0Z"/><path d="M49.7,70.86a.25.25,0,0,1,0-.34l1-1a.22.22,0,0,1,.33,0,5.63,5.63,0,0,0,3.56,1.32c1.68,0,2.52-.73,2.52-1.76s-.44-1.41-2.24-1.61l-1.22-.11c-2.26-.25-3.43-1.37-3.43-3.25,0-2.18,1.56-3.5,4.27-3.5a6.88,6.88,0,0,1,4.08,1.27.24.24,0,0,1,0,.34l-.82,1a.23.23,0,0,1-.33,0,6.07,6.07,0,0,0-3.1-.94c-1.44,0-2.18.65-2.18,1.59s.55,1.39,2.25,1.56l1.2.12c2.33.21,3.46,1.39,3.46,3.24,0,2.25-1.63,3.77-4.63,3.77A7.19,7.19,0,0,1,49.7,70.86Z"/><path d="M64.15,72.44c-2.23,0-3.09-1-3.09-3.26V62.6c0-.1-.05-.14-.15-.14H60a.23.23,0,0,1-.24-.24V61.06a.23.23,0,0,1,.24-.24h1c.1,0,.15,0,.15-.14V57.44a.23.23,0,0,1,.24-.24h1.53a.23.23,0,0,1,.24.24v3.24c0,.1,0,.14.15.14H65a.23.23,0,0,1,.24.24v1.16a.23.23,0,0,1-.24.24H63.22c-.1,0-.15,0-.15.14v6.5c0,1.16.43,1.47,1.47,1.47H65a.23.23,0,0,1,.24.24V72.2a.23.23,0,0,1-.24.24Z"/><path d="M74.18,72.32a.23.23,0,0,1-.24-.24V71h0a3.51,3.51,0,0,1-3.14,1.59c-2.52,0-4-1.73-4-4.35V61.06a.23.23,0,0,1,.24-.24h1.54a.23.23,0,0,1,.24.24v6.7c0,1.87.84,2.95,2.54,2.95a2.55,2.55,0,0,0,2.59-2.83V61.06a.23.23,0,0,1,.24-.24h1.54a.23.23,0,0,1,.24.24v11a.23.23,0,0,1-.24.24Z"/><path d="M78.69,72.32a.22.22,0,0,1-.23-.24v-11a.22.22,0,0,1,.23-.24h1.54a.23.23,0,0,1,.24.24v1.18h0a3.2,3.2,0,0,1,3-1.68,3.58,3.58,0,0,1,2.36.86c.12.12.14.22,0,.34l-.88,1.18a.22.22,0,0,1-.34,0,3.28,3.28,0,0,0-1.78-.55c-1.75,0-2.47,1.37-2.47,3.36v6.29a.22.22,0,0,1-.24.24Z"/><path d="M93.24,72.32a.23.23,0,0,1-.24-.24v-1h0a3.77,3.77,0,0,1-3.41,1.52c-2.19,0-3.87-1.13-3.87-3.46s1.68-3.55,4.49-3.55h2.62c.09,0,.14,0,.14-.15v-.84c0-1.58-.62-2.25-2.76-2.25a4.47,4.47,0,0,0-2.78.81c-.12.1-.27.1-.34,0L86.42,62a.25.25,0,0,1,0-.33,6.4,6.4,0,0,1,3.91-1.13c3.27,0,4.52,1.08,4.52,3.91v7.61a.23.23,0,0,1-.24.24ZM93,68.6V67.33a.12.12,0,0,0-.14-.14H90.5c-2,0-2.85.57-2.85,1.87s.86,1.8,2.4,1.8C91.85,70.86,93,70,93,68.6Z"/><path d="M101.71,76.64a.23.23,0,0,1-.24-.24V75a.23.23,0,0,1,.24-.24h.43c.94,0,1.44-.41,2-1.73l.38-1.05-4.22-10.93c0-.14,0-.24.19-.24h1.68a.29.29,0,0,1,.29.24l3,8.31h0l2.9-8.31a.29.29,0,0,1,.29-.24h1.63c.15,0,.24.1.2.24L106,73.21c-1,2.71-1.9,3.43-3.63,3.43Z"/><path d="M115.63,69.47a9.1,9.1,0,0,1-.38-2.91,8.87,8.87,0,0,1,.36-2.9,4.83,4.83,0,0,1,9,0,10,10,0,0,1,.36,3.28.23.23,0,0,1-.26.25h-7.28a.12.12,0,0,0-.14.14,4.3,4.3,0,0,0,.19,1.39,2.84,2.84,0,0,0,2.91,2,3.77,3.77,0,0,0,3-1.27.25.25,0,0,1,.36,0l1,.89a.22.22,0,0,1,0,.34,5.62,5.62,0,0,1-4.49,2A4.45,4.45,0,0,1,115.63,69.47Zm7.15-3.89a.13.13,0,0,0,.15-.15,4,4,0,0,0-.17-1.29,2.84,2.84,0,0,0-5.28,0,4,4,0,0,0-.17,1.29c0,.1,0,.15.14.15Z"/><path d="M129.55,72.44c-2,0-2.81-1-2.81-3V56.24A.23.23,0,0,1,127,56h1.54a.23.23,0,0,1,.24.24V69.3c0,1,.36,1.27,1.15,1.27h.46a.23.23,0,0,1,.24.24V72.2a.23.23,0,0,1-.24.24Z"/><path d="M143.54,72.32a.23.23,0,0,1-.24-.24V71h0a3.52,3.52,0,0,1-3.15,1.59c-2.52,0-4-1.73-4-4.35V61.06a.23.23,0,0,1,.24-.24h1.54a.23.23,0,0,1,.24.24v6.7c0,1.87.84,2.95,2.54,2.95a2.55,2.55,0,0,0,2.59-2.83V61.06a.23.23,0,0,1,.24-.24h1.54a.23.23,0,0,1,.24.24v11a.23.23,0,0,1-.24.24Z"/><path d="M147,70.86a.25.25,0,0,1,0-.34l1-1a.22.22,0,0,1,.33,0,5.62,5.62,0,0,0,3.55,1.32c1.68,0,2.52-.73,2.52-1.76s-.43-1.41-2.23-1.61L151,67.31c-2.26-.25-3.43-1.37-3.43-3.25,0-2.18,1.56-3.5,4.27-3.5a6.88,6.88,0,0,1,4.08,1.27.24.24,0,0,1,.05.34l-.82,1a.24.24,0,0,1-.34,0,6,6,0,0,0-3.09-.94c-1.44,0-2.19.65-2.19,1.59s.56,1.39,2.26,1.56l1.2.12c2.33.21,3.46,1.39,3.46,3.24,0,2.25-1.64,3.77-4.64,3.77A7.18,7.18,0,0,1,147,70.86Z"/><path d="M157.82,69.49a8.77,8.77,0,0,1-.38-2.93,8.65,8.65,0,0,1,.38-2.9,4.87,4.87,0,0,1,9.07,0,8.37,8.37,0,0,1,.39,2.9,8.48,8.48,0,0,1-.39,2.93,4.87,4.87,0,0,1-9.07,0Zm7.13-.58a7.6,7.6,0,0,0,.26-2.35,7.5,7.5,0,0,0-.26-2.33,2.76,2.76,0,0,0-5.18,0,7.16,7.16,0,0,0-.27,2.33,7.26,7.26,0,0,0,.27,2.35,2.76,2.76,0,0,0,5.18,0Z"/><path d="M180.6,72.32a.22.22,0,0,1-.24-.24V71h0a3.49,3.49,0,0,1-3.26,1.61,3.81,3.81,0,0,1-4-2.76,9.68,9.68,0,0,1-.41-3.27,9.57,9.57,0,0,1,.41-3.24,3.81,3.81,0,0,1,4-2.76,3.48,3.48,0,0,1,3.26,1.58h0v-5.9a.23.23,0,0,1,.24-.24h1.53a.23.23,0,0,1,.24.24V72.08a.22.22,0,0,1-.24.24ZM180.09,69a7.14,7.14,0,0,0,.27-2.4,7.25,7.25,0,0,0-.27-2.4,2.71,2.71,0,0,0-5.06,0,8.26,8.26,0,0,0-.26,2.4A8,8,0,0,0,175,69a2.7,2.7,0,0,0,5.06,0Z"/><path d="M184.56,69.47a9.05,9.05,0,0,1-.39-2.91,8.87,8.87,0,0,1,.36-2.9,4.84,4.84,0,0,1,9,0,10,10,0,0,1,.36,3.28.24.24,0,0,1-.27.25h-7.27c-.1,0-.14,0-.14.14a4.3,4.3,0,0,0,.19,1.39,2.83,2.83,0,0,0,2.9,2,3.74,3.74,0,0,0,2.95-1.27.25.25,0,0,1,.36,0l1,.89a.22.22,0,0,1,0,.34,5.59,5.59,0,0,1-4.49,2A4.44,4.44,0,0,1,184.56,69.47Zm7.15-3.89c.09,0,.14,0,.14-.15a4,4,0,0,0-.17-1.29,2.84,2.84,0,0,0-5.28,0,4,4,0,0,0-.16,1.29c0,.1,0,.15.14.15Z"/><path d="M207.5,72.32a.23.23,0,0,1-.24-.24V65.36c0-1.85-.84-2.93-2.57-2.93a2.58,2.58,0,0,0-2.64,2.81v6.84a.22.22,0,0,1-.24.24h-1.53a.22.22,0,0,1-.24-.24V56.24a.23.23,0,0,1,.24-.24h1.53a.23.23,0,0,1,.24.24v5.88h0a3.62,3.62,0,0,1,3.21-1.56c2.5,0,4,1.7,4,4.32v7.2a.23.23,0,0,1-.24.24Z"/><path d="M211.34,69.47a9.1,9.1,0,0,1-.38-2.91,8.87,8.87,0,0,1,.36-2.9,4.83,4.83,0,0,1,9,0,10,10,0,0,1,.36,3.28.24.24,0,0,1-.26.25h-7.28a.12.12,0,0,0-.14.14,4.3,4.3,0,0,0,.19,1.39,2.84,2.84,0,0,0,2.91,2,3.77,3.77,0,0,0,2.95-1.27.25.25,0,0,1,.36,0l1,.89a.22.22,0,0,1,0,.34,5.62,5.62,0,0,1-4.49,2A4.45,4.45,0,0,1,211.34,69.47Zm7.15-3.89a.13.13,0,0,0,.15-.15,4,4,0,0,0-.17-1.29,2.84,2.84,0,0,0-5.28,0,4,4,0,0,0-.17,1.29c0,.1,0,.15.14.15Z"/><path d="M222.74,72.32a.23.23,0,0,1-.24-.24v-11a.23.23,0,0,1,.24-.24h1.54a.23.23,0,0,1,.24.24v1.18h0a3.2,3.2,0,0,1,3.05-1.68,3.58,3.58,0,0,1,2.35.86c.12.12.14.22.05.34l-.89,1.18a.22.22,0,0,1-.34,0,3.25,3.25,0,0,0-1.77-.55c-1.75,0-2.47,1.37-2.47,3.36v6.29a.23.23,0,0,1-.24.24Z"/><path d="M231.14,72.32a.23.23,0,0,1-.24-.24v-11a.23.23,0,0,1,.24-.24h1.54a.23.23,0,0,1,.24.24v1.18h0A3.2,3.2,0,0,1,236,60.56a3.58,3.58,0,0,1,2.35.86c.12.12.14.22,0,.34l-.89,1.18a.22.22,0,0,1-.34,0,3.25,3.25,0,0,0-1.77-.55c-1.75,0-2.47,1.37-2.47,3.36v6.29a.23.23,0,0,1-.24.24Z"/><path d="M245.68,72.32a.23.23,0,0,1-.24-.24v-1h0A3.77,3.77,0,0,1,242,72.59c-2.18,0-3.86-1.13-3.86-3.46s1.68-3.55,4.49-3.55h2.61a.13.13,0,0,0,.15-.15v-.84c0-1.58-.63-2.25-2.76-2.25a4.48,4.48,0,0,0-2.79.81c-.12.1-.26.1-.33,0L238.87,62a.24.24,0,0,1,0-.33,6.36,6.36,0,0,1,3.91-1.13c3.26,0,4.51,1.08,4.51,3.91v7.61a.23.23,0,0,1-.24.24Zm-.28-3.72V67.33c0-.1-.05-.14-.15-.14H243c-2,0-2.86.57-2.86,1.87s.87,1.8,2.4,1.8C244.29,70.86,245.4,70,245.4,68.6Z"/><path d="M264.43,72.32a.23.23,0,0,1-.24-.24V65.36c0-1.85-.84-2.93-2.57-2.93A2.59,2.59,0,0,0,259,65.24v6.84a.23.23,0,0,1-.24.24H257.2a.23.23,0,0,1-.24-.24V65.36c0-1.85-.84-2.93-2.56-2.93a2.58,2.58,0,0,0-2.64,2.81v6.84a.23.23,0,0,1-.24.24H250a.23.23,0,0,1-.24-.24v-11a.23.23,0,0,1,.24-.24h1.54a.23.23,0,0,1,.24.24v1.06h0a4.07,4.07,0,0,1,6.58.24h0a4.29,4.29,0,0,1,3.72-1.8c2.67,0,4.11,1.7,4.11,4.32v7.2a.23.23,0,0,1-.24.24Z"/><path d="M269.25,58.23A.23.23,0,0,1,269,58V56.24a.23.23,0,0,1,.24-.24h1.63a.23.23,0,0,1,.24.24V58a.22.22,0,0,1-.24.24Zm.05,14.09a.23.23,0,0,1-.24-.24v-11a.23.23,0,0,1,.24-.24h1.54a.23.23,0,0,1,.24.24v11a.23.23,0,0,1-.24.24Z"/><path d="M273.74,69.47a9.05,9.05,0,0,1-.39-2.91,8.82,8.82,0,0,1,.37-2.9,4.83,4.83,0,0,1,9,0,10,10,0,0,1,.36,3.28.24.24,0,0,1-.26.25h-7.28a.12.12,0,0,0-.14.14,4.3,4.3,0,0,0,.19,1.39,2.84,2.84,0,0,0,2.91,2,3.77,3.77,0,0,0,3-1.27.25.25,0,0,1,.36,0l1,.89a.22.22,0,0,1,0,.34,5.62,5.62,0,0,1-4.49,2A4.45,4.45,0,0,1,273.74,69.47Zm7.15-3.89a.13.13,0,0,0,.15-.15,4,4,0,0,0-.17-1.29,2.84,2.84,0,0,0-5.28,0,4,4,0,0,0-.17,1.29c0,.1.05.15.14.15Z"/><path d="M292.84,72.32a.23.23,0,0,1-.24-.24V65.36c0-1.85-.84-2.93-2.56-2.93a2.58,2.58,0,0,0-2.64,2.81v6.84a.23.23,0,0,1-.24.24h-1.54a.23.23,0,0,1-.24-.24v-11a.23.23,0,0,1,.24-.24h1.54a.23.23,0,0,1,.24.24v1.06h0a3.63,3.63,0,0,1,3.22-1.56c2.49,0,4,1.7,4,4.32v7.2a.23.23,0,0,1-.24.24Z"/><path d="M300.81,72.44c-2.23,0-3.1-1-3.1-3.26V62.6c0-.1,0-.14-.14-.14h-1a.23.23,0,0,1-.24-.24V61.06a.23.23,0,0,1,.24-.24h1c.1,0,.14,0,.14-.14V57.44a.23.23,0,0,1,.25-.24h1.53a.23.23,0,0,1,.24.24v3.24c0,.1,0,.14.15.14h1.82a.23.23,0,0,1,.24.24v1.16a.23.23,0,0,1-.24.24h-1.82c-.1,0-.15,0-.15.14v6.5c0,1.16.43,1.47,1.47,1.47h.5a.23.23,0,0,1,.24.24V72.2a.23.23,0,0,1-.24.24Z"/><path d="M311.06,72.32a.23.23,0,0,1-.24-.24v-1h0a3.77,3.77,0,0,1-3.41,1.52c-2.19,0-3.87-1.13-3.87-3.46s1.68-3.55,4.49-3.55h2.62c.09,0,.14,0,.14-.15v-.84c0-1.58-.62-2.25-2.76-2.25a4.47,4.47,0,0,0-2.78.81c-.12.1-.27.1-.34,0L304.24,62a.24.24,0,0,1,.05-.33,6.4,6.4,0,0,1,3.91-1.13c3.27,0,4.52,1.08,4.52,3.91v7.61a.23.23,0,0,1-.24.24Zm-.29-3.72V67.33a.12.12,0,0,0-.14-.14h-2.31c-2,0-2.85.57-2.85,1.87s.86,1.8,2.4,1.8C309.67,70.86,310.77,70,310.77,68.6Z"/><path d="M314.8,70.86a.25.25,0,0,1,0-.34l1-1a.22.22,0,0,1,.33,0,5.63,5.63,0,0,0,3.56,1.32c1.68,0,2.52-.73,2.52-1.76s-.44-1.41-2.24-1.61l-1.22-.11c-2.26-.25-3.43-1.37-3.43-3.25,0-2.18,1.56-3.5,4.27-3.5a6.88,6.88,0,0,1,4.08,1.27.24.24,0,0,1,0,.34l-.82,1a.23.23,0,0,1-.33,0,6.07,6.07,0,0,0-3.1-.94c-1.44,0-2.18.65-2.18,1.59s.55,1.39,2.25,1.56l1.2.12c2.33.21,3.46,1.39,3.46,3.24,0,2.25-1.63,3.77-4.63,3.77A7.19,7.19,0,0,1,314.8,70.86Z"/></g></g></svg>