<svg xmlns="http://www.w3.org/2000/svg" viewBox="0 0 588.33 74.92"><title>6a</title><g id="Capa_2" data-name="Capa 2"><g id="respuestas_contorno" data-name="respuestas contorno"><path d="M4.67,15a.21.21,0,0,1-.23-.22V2c0-.09,0-.13-.13-.13H.22A.21.21,0,0,1,0,1.61V.22A.21.21,0,0,1,.22,0H10.63a.21.21,0,0,1,.22.22V1.61a.21.21,0,0,1-.22.22H6.54c-.09,0-.14,0-.14.13V14.74a.21.21,0,0,1-.22.22Z"/><path d="M10.52,12.34a8.2,8.2,0,0,1-.36-2.66A8.17,8.17,0,0,1,10.49,7a4.08,4.08,0,0,1,4.14-2.84A4.08,4.08,0,0,1,18.77,7a9.18,9.18,0,0,1,.33,3,.21.21,0,0,1-.24.22H12.19c-.09,0-.13.05-.13.14a3.93,3.93,0,0,0,.17,1.27,2.62,2.62,0,0,0,2.67,1.83,3.43,3.43,0,0,0,2.7-1.17.22.22,0,0,1,.33,0l.9.81a.21.21,0,0,1,0,.31,5.13,5.13,0,0,1-4.12,1.8A4.07,4.07,0,0,1,10.52,12.34Zm6.55-3.56a.12.12,0,0,0,.14-.13,3.68,3.68,0,0,0-.16-1.19,2.37,2.37,0,0,0-2.42-1.65,2.37,2.37,0,0,0-2.42,1.65,3.71,3.71,0,0,0-.15,1.19.12.12,0,0,0,.13.13Z"/><path d="M28,15a.21.21,0,0,1-.22-.22V8.58c0-1.69-.77-2.68-2.35-2.68A2.36,2.36,0,0,0,23,8.47v6.27a.2.2,0,0,1-.22.22h-1.4a.2.2,0,0,1-.22-.22V4.64a.2.2,0,0,1,.22-.22h1.4a.2.2,0,0,1,.22.22v1h0a3.34,3.34,0,0,1,3-1.43c2.28,0,3.65,1.56,3.65,4v6.6a.21.21,0,0,1-.22.22Z"/><path d="M32.05,17.6a.21.21,0,0,1,0-.31l.9-.9a.21.21,0,0,1,.33,0,3.5,3.5,0,0,0,2.48,1.06c1.74,0,2.67-.9,2.67-2.84V13.38h0a3,3,0,0,1-2.93,1.45A3.45,3.45,0,0,1,32,12.28a8.06,8.06,0,0,1-.36-2.77A8.08,8.08,0,0,1,32,6.73a3.45,3.45,0,0,1,3.54-2.55,3,3,0,0,1,2.93,1.45h0v-1a.2.2,0,0,1,.22-.22h1.4a.21.21,0,0,1,.23.22V14.5c0,3-1.63,4.66-4.6,4.66A4.76,4.76,0,0,1,32.05,17.6Zm6.16-6.05a6.24,6.24,0,0,0,.25-2,6.34,6.34,0,0,0-.25-2,2.37,2.37,0,0,0-4.46,0,6.48,6.48,0,0,0-.27,2.05,6.37,6.37,0,0,0,.27,2A2.15,2.15,0,0,0,36,13.14,2.17,2.17,0,0,0,38.21,11.55Z"/><path d="M49.41,15a.21.21,0,0,1-.22-.22v-.92h0a3.45,3.45,0,0,1-3.12,1.38c-2,0-3.55-1-3.55-3.16S44,8.78,46.62,8.78H49a.12.12,0,0,0,.13-.13V7.88c0-1.46-.57-2.07-2.53-2.07a4.07,4.07,0,0,0-2.55.75c-.11.09-.25.09-.31,0l-.6-1a.24.24,0,0,1,.05-.31,5.87,5.87,0,0,1,3.58-1c3,0,4.14,1,4.14,3.59v7a.21.21,0,0,1-.22.22Zm-.26-3.41V10.39a.12.12,0,0,0-.13-.14H46.9c-1.82,0-2.61.53-2.61,1.72s.79,1.65,2.2,1.65C48.14,13.62,49.15,12.85,49.15,11.55Z"/><path d="M57.68,12.34a8.25,8.25,0,0,1-.35-2.66A8.17,8.17,0,0,1,57.66,7a4.44,4.44,0,0,1,8.28,0,9.47,9.47,0,0,1,.33,3c0,.14-.09.22-.25.22H59.36a.13.13,0,0,0-.14.14,3.9,3.9,0,0,0,.18,1.27,2.6,2.6,0,0,0,2.66,1.83,3.44,3.44,0,0,0,2.71-1.17.22.22,0,0,1,.33,0l.9.81a.2.2,0,0,1,0,.31,5.09,5.09,0,0,1-4.11,1.8A4.08,4.08,0,0,1,57.68,12.34Zm6.56-3.56a.12.12,0,0,0,.13-.13,3.71,3.71,0,0,0-.15-1.19,2.6,2.6,0,0,0-4.84,0,3.68,3.68,0,0,0-.16,1.19.12.12,0,0,0,.14.13Z"/><path d="M75.2,15a.2.2,0,0,1-.22-.22V8.58c0-1.69-.77-2.68-2.36-2.68A2.36,2.36,0,0,0,70.2,8.47v6.27A.21.21,0,0,1,70,15H68.57a.21.21,0,0,1-.22-.22V4.64a.21.21,0,0,1,.22-.22H70a.21.21,0,0,1,.22.22v1h0a3.35,3.35,0,0,1,3-1.43c2.29,0,3.65,1.56,3.65,4v6.6a.2.2,0,0,1-.22.22Z"/><path d="M83.53,7a4.09,4.09,0,0,1,4.16-2.84A4.22,4.22,0,0,1,91.3,6c.07.11.07.2-.07.31l-1,.79A.2.2,0,0,1,90,7,2.59,2.59,0,0,0,87.69,5.9a2.28,2.28,0,0,0-2.35,1.65,6.89,6.89,0,0,0-.24,2.13,7,7,0,0,0,.24,2.16,2.28,2.28,0,0,0,2.35,1.65A2.6,2.6,0,0,0,90,12.34a.2.2,0,0,1,.31,0l1,.79c.14.11.14.2.07.31a4.22,4.22,0,0,1-3.61,1.78,4.09,4.09,0,0,1-4.16-2.83,9.08,9.08,0,0,1-.33-2.69A9,9,0,0,1,83.53,7Z"/><path d="M100,15a.21.21,0,0,1-.22-.22v-1h0a3.22,3.22,0,0,1-2.89,1.45c-2.31,0-3.65-1.58-3.65-4V4.64a.21.21,0,0,1,.22-.22h1.41a.21.21,0,0,1,.22.22v6.14c0,1.72.77,2.71,2.33,2.71a2.34,2.34,0,0,0,2.38-2.6V4.64a.21.21,0,0,1,.22-.22h1.41a.21.21,0,0,1,.22.22v10.1a.21.21,0,0,1-.22.22Z"/><path d="M104,12.34a8.2,8.2,0,0,1-.36-2.66A8.17,8.17,0,0,1,104,7a4.44,4.44,0,0,1,8.28,0,9.18,9.18,0,0,1,.33,3,.21.21,0,0,1-.24.22h-6.67c-.09,0-.13.05-.13.14a3.93,3.93,0,0,0,.17,1.27,2.62,2.62,0,0,0,2.67,1.83,3.43,3.43,0,0,0,2.7-1.17.22.22,0,0,1,.33,0l.9.81a.21.21,0,0,1,0,.31,5.13,5.13,0,0,1-4.12,1.8A4.07,4.07,0,0,1,104,12.34Zm6.55-3.56a.12.12,0,0,0,.14-.13,3.68,3.68,0,0,0-.16-1.19,2.6,2.6,0,0,0-4.84,0,3.71,3.71,0,0,0-.15,1.19.12.12,0,0,0,.13.13Z"/><path d="M121.55,15a.21.21,0,0,1-.22-.22V8.58c0-1.69-.77-2.68-2.36-2.68a2.36,2.36,0,0,0-2.42,2.57v6.27a.2.2,0,0,1-.22.22h-1.4a.2.2,0,0,1-.22-.22V4.64a.2.2,0,0,1,.22-.22h1.4a.2.2,0,0,1,.22.22v1h0a3.32,3.32,0,0,1,2.94-1.43c2.29,0,3.66,1.56,3.66,4v6.6A.21.21,0,0,1,123,15Z"/><path d="M128.85,15.07c-2,0-2.84-.92-2.84-3v-6c0-.09,0-.13-.13-.13H125a.21.21,0,0,1-.22-.22V4.64a.21.21,0,0,1,.22-.22h.88c.09,0,.13,0,.13-.13v-3a.21.21,0,0,1,.22-.22h1.41a.21.21,0,0,1,.22.22v3a.12.12,0,0,0,.13.13h1.68a.21.21,0,0,1,.22.22V5.7a.21.21,0,0,1-.22.22H128a.12.12,0,0,0-.13.13v6c0,1.06.4,1.35,1.34,1.35h.47a.2.2,0,0,1,.22.22v1.27a.21.21,0,0,1-.22.22Z"/><path d="M138.25,15a.2.2,0,0,1-.22-.22v-.92h0a3.44,3.44,0,0,1-3.12,1.38c-2,0-3.54-1-3.54-3.16s1.54-3.26,4.11-3.26h2.4a.12.12,0,0,0,.13-.13V7.88c0-1.46-.57-2.07-2.53-2.07a4.09,4.09,0,0,0-2.55.75.19.19,0,0,1-.31,0l-.59-1a.23.23,0,0,1,0-.31,5.9,5.9,0,0,1,3.59-1c3,0,4.14,1,4.14,3.59v7a.21.21,0,0,1-.23.22ZM138,11.55V10.39c0-.09,0-.14-.13-.14h-2.11c-1.83,0-2.62.53-2.62,1.72s.79,1.65,2.2,1.65C137,13.62,138,12.85,138,11.55Z"/><path d="M153.18,15a.21.21,0,0,1-.22-.22v-.92h0a3.45,3.45,0,0,1-3.12,1.38c-2,0-3.54-1-3.54-3.16s1.54-3.26,4.11-3.26h2.4a.12.12,0,0,0,.13-.13V7.88c0-1.46-.57-2.07-2.53-2.07a4.07,4.07,0,0,0-2.55.75.19.19,0,0,1-.31,0l-.59-1a.23.23,0,0,1,0-.31,5.88,5.88,0,0,1,3.59-1c3,0,4.13,1,4.13,3.59v7a.21.21,0,0,1-.22.22Zm-.26-3.41V10.39c0-.09,0-.14-.13-.14h-2.11c-1.83,0-2.62.53-2.62,1.72s.79,1.65,2.2,1.65C151.91,13.62,152.92,12.85,152.92,11.55Z"/><path d="M159.87,15.07c-1.85,0-2.57-.88-2.57-2.77V.22a.21.21,0,0,1,.22-.22h1.41a.21.21,0,0,1,.22.22v12c0,.88.33,1.17,1,1.17h.42a.2.2,0,0,1,.22.22v1.27a.21.21,0,0,1-.22.22Z"/><path d="M167.17,15a.21.21,0,0,1-.22-.22V4.64a.21.21,0,0,1,.22-.22h1.41a.21.21,0,0,1,.22.22V5.72h0a3,3,0,0,1,2.8-1.54,3.26,3.26,0,0,1,2.16.79c.11.11.13.2,0,.31L173,6.36a.2.2,0,0,1-.31,0,3,3,0,0,0-1.63-.5c-1.61,0-2.27,1.25-2.27,3.08v5.76a.21.21,0,0,1-.22.22Z"/><path d="M174.41,12.34a8.25,8.25,0,0,1-.35-2.66A8.17,8.17,0,0,1,174.39,7a4.43,4.43,0,0,1,8.27,0,9.18,9.18,0,0,1,.33,3c0,.14-.08.22-.24.22h-6.67a.12.12,0,0,0-.13.14,3.9,3.9,0,0,0,.18,1.27,2.6,2.6,0,0,0,2.66,1.83,3.46,3.46,0,0,0,2.71-1.17.22.22,0,0,1,.33,0l.9.81a.2.2,0,0,1,0,.31,5.09,5.09,0,0,1-4.11,1.8A4.07,4.07,0,0,1,174.41,12.34ZM181,8.78a.12.12,0,0,0,.13-.13A3.71,3.71,0,0,0,181,7.46a2.6,2.6,0,0,0-4.84,0A3.68,3.68,0,0,0,176,8.65a.12.12,0,0,0,.13.13Z"/><path d="M191.46,15a.21.21,0,0,1-.22-.22v-.92h0a3.45,3.45,0,0,1-3.12,1.38c-2,0-3.55-1-3.55-3.16s1.54-3.26,4.12-3.26h2.4a.12.12,0,0,0,.13-.13V7.88c0-1.46-.57-2.07-2.53-2.07a4.07,4.07,0,0,0-2.55.75c-.11.09-.25.09-.31,0l-.6-1a.24.24,0,0,1,0-.31,5.87,5.87,0,0,1,3.58-1c3,0,4.14,1,4.14,3.59v7a.21.21,0,0,1-.22.22Zm-.26-3.41V10.39a.12.12,0,0,0-.13-.14H189c-1.82,0-2.61.53-2.61,1.72s.79,1.65,2.2,1.65C190.19,13.62,191.2,12.85,191.2,11.55Z"/><path d="M198.15,15.07c-1.85,0-2.57-.88-2.57-2.77V.22A.2.2,0,0,1,195.8,0h1.4a.2.2,0,0,1,.22.22v12c0,.88.33,1.17,1.06,1.17h.42a.2.2,0,0,1,.22.22v1.27a.21.21,0,0,1-.22.22Z"/><path d="M201,2.05a.21.21,0,0,1-.22-.22V.22A.21.21,0,0,1,201,0h1.5a.21.21,0,0,1,.22.22V1.83a.21.21,0,0,1-.22.22Zm0,12.91a.21.21,0,0,1-.22-.22V4.64a.21.21,0,0,1,.22-.22h1.41a.21.21,0,0,1,.22.22v10.1a.21.21,0,0,1-.22.22Z"/><path d="M205,15a.21.21,0,0,1-.23-.22V13.58a.38.38,0,0,1,.09-.25l5.79-7.19v0h-5.37a.2.2,0,0,1-.22-.22V4.64a.21.21,0,0,1,.22-.22h7.35a.21.21,0,0,1,.22.22V5.87a.34.34,0,0,1-.09.25l-5.74,7.13v0h5.61a.21.21,0,0,1,.22.22v1.23a.21.21,0,0,1-.22.22Z"/><path d="M221.4,15a.21.21,0,0,1-.22-.22v-.92h0A3.45,3.45,0,0,1,218,15.2c-2,0-3.54-1-3.54-3.16s1.54-3.26,4.11-3.26H221a.12.12,0,0,0,.13-.13V7.88c0-1.46-.57-2.07-2.53-2.07a4.07,4.07,0,0,0-2.55.75c-.11.09-.25.09-.31,0l-.59-1a.23.23,0,0,1,0-.31,5.88,5.88,0,0,1,3.59-1c3,0,4.13,1,4.13,3.59v7a.21.21,0,0,1-.22.22Zm-.26-3.41V10.39c0-.09,0-.14-.13-.14H218.9c-1.83,0-2.62.53-2.62,1.72s.79,1.65,2.2,1.65C220.13,13.62,221.14,12.85,221.14,11.55Z"/><path d="M225.78,15a.21.21,0,0,1-.22-.22V4.64a.21.21,0,0,1,.22-.22h1.41a.21.21,0,0,1,.22.22V5.72h0a2.94,2.94,0,0,1,2.8-1.54,3.26,3.26,0,0,1,2.15.79c.11.11.13.2.05.31l-.82,1.08a.2.2,0,0,1-.31,0,2.93,2.93,0,0,0-1.62-.5c-1.61,0-2.27,1.25-2.27,3.08v5.76a.21.21,0,0,1-.22.22Z"/><path d="M237.81,12.34a8.25,8.25,0,0,1-.35-2.66A8.17,8.17,0,0,1,237.79,7a4.44,4.44,0,0,1,8.28,0,9.18,9.18,0,0,1,.33,3c0,.14-.09.22-.25.22h-6.66a.13.13,0,0,0-.14.14,3.9,3.9,0,0,0,.18,1.27,2.6,2.6,0,0,0,2.66,1.83,3.44,3.44,0,0,0,2.71-1.17.22.22,0,0,1,.33,0l.9.81a.2.2,0,0,1,0,.31A5.09,5.09,0,0,1,242,15.2,4.08,4.08,0,0,1,237.81,12.34Zm6.56-3.56a.12.12,0,0,0,.13-.13,3.71,3.71,0,0,0-.15-1.19,2.6,2.6,0,0,0-4.84,0,3.68,3.68,0,0,0-.16,1.19.12.12,0,0,0,.14.13Z"/><path d="M251,15.07c-1.84,0-2.57-.88-2.57-2.77V.22a.21.21,0,0,1,.22-.22h1.41a.21.21,0,0,1,.22.22v12c0,.88.33,1.17,1.05,1.17h.42a.2.2,0,0,1,.22.22v1.27a.21.21,0,0,1-.22.22Z"/><path d="M260.63,15.07c-1.85,0-2.58-.88-2.58-2.77V.22a.21.21,0,0,1,.22-.22h1.41a.21.21,0,0,1,.22.22v12c0,.88.33,1.17,1.06,1.17h.42a.2.2,0,0,1,.22.22v1.27a.21.21,0,0,1-.22.22Z"/><path d="M263,12.34a8.54,8.54,0,0,1-.35-2.66A8.17,8.17,0,0,1,263,7a4.44,4.44,0,0,1,8.28,0,9.18,9.18,0,0,1,.33,3c0,.14-.09.22-.25.22H264.7c-.09,0-.13.05-.13.14a3.93,3.93,0,0,0,.17,1.27,2.61,2.61,0,0,0,2.66,1.83,3.44,3.44,0,0,0,2.71-1.17.22.22,0,0,1,.33,0l.9.81a.2.2,0,0,1,0,.31,5.09,5.09,0,0,1-4.11,1.8A4.09,4.09,0,0,1,263,12.34Zm6.56-3.56a.12.12,0,0,0,.13-.13,3.71,3.71,0,0,0-.15-1.19,2.6,2.6,0,0,0-4.84,0,3.71,3.71,0,0,0-.15,1.19.12.12,0,0,0,.13.13Z"/><path d="M276.51,15a.26.26,0,0,1-.26-.22l-3.79-10.1c0-.13,0-.22.18-.22h1.52c.15,0,.22.07.28.22l2.73,7.57h.05l2.66-7.57a.26.26,0,0,1,.26-.22h1.5c.15,0,.22.09.17.22l-3.76,10.1a.28.28,0,0,1-.28.22Z"/><path d="M289.58,15a.21.21,0,0,1-.22-.22v-.92h0a3.47,3.47,0,0,1-3.13,1.38c-2,0-3.54-1-3.54-3.16s1.54-3.26,4.12-3.26h2.39a.12.12,0,0,0,.14-.13V7.88c0-1.46-.58-2.07-2.53-2.07a4.13,4.13,0,0,0-2.56.75.19.19,0,0,1-.31,0l-.59-1a.23.23,0,0,1,.05-.31,5.87,5.87,0,0,1,3.58-1c3,0,4.14,1,4.14,3.59v7a.21.21,0,0,1-.22.22Zm-.26-3.41V10.39a.13.13,0,0,0-.14-.14h-2.11c-1.82,0-2.62.53-2.62,1.72s.8,1.65,2.2,1.65C288.3,13.62,289.32,12.85,289.32,11.55Z"/><path d="M300.58,15a.21.21,0,0,1-.22-.22V8.58c0-1.69-.77-2.68-2.35-2.68a2.37,2.37,0,0,0-2.43,2.57v6.27a.2.2,0,0,1-.21.22H294a.2.2,0,0,1-.22-.22V4.64a.2.2,0,0,1,.22-.22h1.41a.2.2,0,0,1,.21.22v1h0a3.34,3.34,0,0,1,2.95-1.43c2.28,0,3.65,1.56,3.65,4v6.6A.21.21,0,0,1,302,15Z"/><path d="M307.88,15.07c-2,0-2.84-.92-2.84-3v-6c0-.09,0-.13-.13-.13H304a.21.21,0,0,1-.22-.22V4.64a.21.21,0,0,1,.22-.22h.88c.09,0,.13,0,.13-.13v-3a.21.21,0,0,1,.22-.22h1.41a.21.21,0,0,1,.22.22v3a.12.12,0,0,0,.13.13h1.68a.21.21,0,0,1,.22.22V5.7a.21.21,0,0,1-.22.22H307a.12.12,0,0,0-.13.13v6c0,1.06.4,1.35,1.34,1.35h.47a.2.2,0,0,1,.22.22v1.27a.21.21,0,0,1-.22.22Z"/><path d="M317.28,15a.21.21,0,0,1-.22-.22v-.92h0a3.47,3.47,0,0,1-3.13,1.38c-2,0-3.54-1-3.54-3.16s1.54-3.26,4.11-3.26h2.4a.12.12,0,0,0,.13-.13V7.88c0-1.46-.57-2.07-2.53-2.07a4.09,4.09,0,0,0-2.55.75.19.19,0,0,1-.31,0l-.59-1a.23.23,0,0,1,0-.31,5.9,5.9,0,0,1,3.59-1c3,0,4.14,1,4.14,3.59v7a.21.21,0,0,1-.22.22ZM317,11.55V10.39c0-.09,0-.14-.13-.14h-2.11c-1.83,0-2.62.53-2.62,1.72s.79,1.65,2.2,1.65C316,13.62,317,12.85,317,11.55Z"/><path d="M334.9,15a.21.21,0,0,1-.22-.22V8.58c0-1.69-.77-2.68-2.35-2.68a2.37,2.37,0,0,0-2.42,2.57v6.27a.21.21,0,0,1-.22.22h-1.41a.21.21,0,0,1-.22-.22V8.58c0-1.69-.77-2.68-2.36-2.68a2.36,2.36,0,0,0-2.42,2.57v6.27a.21.21,0,0,1-.22.22h-1.41a.21.21,0,0,1-.22-.22V4.64a.21.21,0,0,1,.22-.22h1.41a.21.21,0,0,1,.22.22v1h0a3.35,3.35,0,0,1,2.95-1.43,3.3,3.3,0,0,1,3.08,1.65h0a3.92,3.92,0,0,1,3.41-1.65c2.44,0,3.76,1.56,3.76,4v6.6a.21.21,0,0,1-.22.22Z"/><path d="M339.32,2.05a.21.21,0,0,1-.22-.22V.22a.21.21,0,0,1,.22-.22h1.5a.21.21,0,0,1,.22.22V1.83a.21.21,0,0,1-.22.22Zm0,12.91a.21.21,0,0,1-.22-.22V4.64a.21.21,0,0,1,.22-.22h1.41a.21.21,0,0,1,.22.22v10.1a.21.21,0,0,1-.22.22Z"/><path d="M343.43,12.34a8.25,8.25,0,0,1-.35-2.66A8.17,8.17,0,0,1,343.41,7a4.43,4.43,0,0,1,8.27,0,9.18,9.18,0,0,1,.33,3c0,.14-.08.22-.24.22h-6.66a.13.13,0,0,0-.14.14,3.9,3.9,0,0,0,.18,1.27,2.6,2.6,0,0,0,2.66,1.83,3.44,3.44,0,0,0,2.71-1.17.22.22,0,0,1,.33,0l.9.81a.2.2,0,0,1,0,.31,5.09,5.09,0,0,1-4.11,1.8A4.08,4.08,0,0,1,343.43,12.34ZM350,8.78a.12.12,0,0,0,.13-.13A3.71,3.71,0,0,0,350,7.46a2.6,2.6,0,0,0-4.84,0A3.68,3.68,0,0,0,345,8.65a.12.12,0,0,0,.14.13Z"/><path d="M361,15a.2.2,0,0,1-.22-.22V8.58c0-1.69-.77-2.68-2.36-2.68A2.36,2.36,0,0,0,356,8.47v6.27a.21.21,0,0,1-.22.22h-1.41a.21.21,0,0,1-.22-.22V4.64a.21.21,0,0,1,.22-.22h1.41a.21.21,0,0,1,.22.22v1h0a3.35,3.35,0,0,1,2.95-1.43c2.29,0,3.65,1.56,3.65,4v6.6a.2.2,0,0,1-.22.22Z"/><path d="M368.25,15.07c-2.05,0-2.84-.92-2.84-3v-6c0-.09,0-.13-.13-.13h-.88a.21.21,0,0,1-.22-.22V4.64a.21.21,0,0,1,.22-.22h.88c.09,0,.13,0,.13-.13v-3a.21.21,0,0,1,.22-.22H367a.21.21,0,0,1,.22.22v3c0,.09,0,.13.13.13h1.67a.2.2,0,0,1,.22.22V5.7a.2.2,0,0,1-.22.22h-1.67c-.09,0-.13,0-.13.13v6c0,1.06.4,1.35,1.34,1.35h.46a.2.2,0,0,1,.22.22v1.27a.2.2,0,0,1-.22.22Z"/><path d="M371,12.37a7.75,7.75,0,0,1-.36-2.69A7.64,7.64,0,0,1,371,7a4.46,4.46,0,0,1,8.31,0,7.64,7.64,0,0,1,.36,2.66,7.75,7.75,0,0,1-.36,2.69,4.47,4.47,0,0,1-8.31,0Zm6.53-.53a6.82,6.82,0,0,0,.24-2.16,6.61,6.61,0,0,0-.24-2.13,2.53,2.53,0,0,0-4.75,0,6.61,6.61,0,0,0-.24,2.13,6.82,6.82,0,0,0,.24,2.16,2.53,2.53,0,0,0,4.75,0Z"/><path d="M386.22,18.92a.21.21,0,0,1-.22-.22V17.43a.2.2,0,0,1,.22-.22h.4c.86,0,1.32-.38,1.78-1.59l.35-1-3.87-10c0-.13,0-.22.18-.22h1.54a.26.26,0,0,1,.26.22l2.77,7.62h.05l2.66-7.62a.26.26,0,0,1,.26-.22h1.5c.13,0,.22.09.17.22l-4.15,11.14c-.93,2.48-1.74,3.14-3.33,3.14Z"/><path d="M403.21,15.07c-2,0-2.84-.92-2.84-3v-6a.12.12,0,0,0-.13-.13h-.88a.2.2,0,0,1-.22-.22V4.64a.2.2,0,0,1,.22-.22h.88a.12.12,0,0,0,.13-.13v-3a.21.21,0,0,1,.22-.22H402a.21.21,0,0,1,.22.22v3c0,.09,0,.13.13.13H404a.21.21,0,0,1,.22.22V5.7a.21.21,0,0,1-.22.22h-1.67c-.09,0-.13,0-.13.13v6c0,1.06.39,1.35,1.34,1.35H404a.2.2,0,0,1,.22.22v1.27a.21.21,0,0,1-.22.22Z"/><path d="M406.44,15a.21.21,0,0,1-.22-.22V4.64a.21.21,0,0,1,.22-.22h1.41a.21.21,0,0,1,.22.22V5.72h0a2.94,2.94,0,0,1,2.79-1.54A3.26,3.26,0,0,1,413,5c.11.11.13.2,0,.31l-.81,1.08a.2.2,0,0,1-.31,0,2.93,2.93,0,0,0-1.63-.5c-1.6,0-2.26,1.25-2.26,3.08v5.76a.21.21,0,0,1-.22.22Z"/><path d="M420.21,15a.21.21,0,0,1-.22-.22v-.92h0a3.45,3.45,0,0,1-3.12,1.38c-2,0-3.55-1-3.55-3.16s1.54-3.26,4.12-3.26h2.4a.12.12,0,0,0,.13-.13V7.88c0-1.46-.57-2.07-2.53-2.07a4.13,4.13,0,0,0-2.56.75c-.11.09-.24.09-.3,0l-.6-1a.24.24,0,0,1,.05-.31,5.87,5.87,0,0,1,3.58-1c3,0,4.14,1,4.14,3.59v7a.21.21,0,0,1-.22.22ZM420,11.55V10.39a.12.12,0,0,0-.13-.14H417.7c-1.82,0-2.62.53-2.62,1.72s.8,1.65,2.21,1.65C418.94,13.62,420,12.85,420,11.55Z"/><path d="M423.64,13.62a.21.21,0,0,1,0-.31l.9-1a.23.23,0,0,1,.31,0,5.1,5.1,0,0,0,3.26,1.21c1.54,0,2.31-.66,2.31-1.6s-.4-1.3-2.05-1.48l-1.12-.11c-2.07-.22-3.15-1.25-3.15-3,0-2,1.43-3.21,3.92-3.21a6.3,6.3,0,0,1,3.74,1.17.21.21,0,0,1,.05.3l-.75.95a.22.22,0,0,1-.31.05,5.45,5.45,0,0,0-2.84-.86c-1.32,0-2,.59-2,1.45s.51,1.28,2.07,1.43l1.1.11c2.13.2,3.17,1.28,3.17,3,0,2.07-1.5,3.45-4.25,3.45A6.55,6.55,0,0,1,423.64,13.62Z"/><path d="M436.8,15.07c-1.85,0-2.58-.88-2.58-2.77V.22a.21.21,0,0,1,.22-.22h1.41a.21.21,0,0,1,.22.22v12c0,.88.33,1.17,1.06,1.17h.42a.2.2,0,0,1,.22.22v1.27a.21.21,0,0,1-.22.22Z"/><path d="M445.86,15a.21.21,0,0,1-.22-.22v-.92h0a3.45,3.45,0,0,1-3.12,1.38c-2,0-3.55-1-3.55-3.16s1.54-3.26,4.12-3.26h2.4a.12.12,0,0,0,.13-.13V7.88c0-1.46-.57-2.07-2.53-2.07a4.07,4.07,0,0,0-2.55.75c-.11.09-.25.09-.31,0l-.6-1a.24.24,0,0,1,.05-.31,5.87,5.87,0,0,1,3.58-1c3,0,4.14,1,4.14,3.59v7a.21.21,0,0,1-.22.22Zm-.26-3.41V10.39a.12.12,0,0,0-.13-.14h-2.12c-1.82,0-2.61.53-2.61,1.72s.79,1.65,2.2,1.65C444.59,13.62,445.6,12.85,445.6,11.55Z"/><path d="M456.62,15a.21.21,0,0,1-.22-.22v-1h0a3.2,3.2,0,0,1-3,1.47,3.47,3.47,0,0,1-3.63-2.53,8.62,8.62,0,0,1-.38-3,8.61,8.61,0,0,1,.38-3,3.48,3.48,0,0,1,3.63-2.53,3.21,3.21,0,0,1,3,1.45h0V.22a.21.21,0,0,1,.22-.22H458a.21.21,0,0,1,.22.22V14.74A.21.21,0,0,1,458,15Zm-.46-3.08a6.92,6.92,0,0,0,.24-2.2,7.08,7.08,0,0,0-.24-2.2,2.49,2.49,0,0,0-4.64,0,7.3,7.3,0,0,0-.25,2.2,7.14,7.14,0,0,0,.25,2.2,2.48,2.48,0,0,0,4.64,0Z"/><path d="M460.69,12.37a8,8,0,0,1-.35-2.69A7.92,7.92,0,0,1,460.69,7,4.47,4.47,0,0,1,469,7a7.92,7.92,0,0,1,.35,2.66,8,8,0,0,1-.35,2.69,4.47,4.47,0,0,1-8.32,0Zm6.54-.53a7.13,7.13,0,0,0,.24-2.16,6.91,6.91,0,0,0-.24-2.13,2.54,2.54,0,0,0-4.76,0,6.91,6.91,0,0,0-.24,2.13,7.13,7.13,0,0,0,.24,2.16,2.54,2.54,0,0,0,4.76,0Z"/><path d="M482.45,15a.21.21,0,0,1-.22-.22v-1h0a3.21,3.21,0,0,1-3,1.47,3.48,3.48,0,0,1-3.63-2.53,8.9,8.9,0,0,1-.37-3,8.89,8.89,0,0,1,.37-3,3.49,3.49,0,0,1,3.63-2.53,3.22,3.22,0,0,1,3,1.45h0V.22a.21.21,0,0,1,.22-.22h1.41a.21.21,0,0,1,.22.22V14.74a.21.21,0,0,1-.22.22ZM482,11.88a6.92,6.92,0,0,0,.24-2.2,7.08,7.08,0,0,0-.24-2.2,2.5,2.5,0,0,0-4.65,0,7.69,7.69,0,0,0-.24,2.2,7.51,7.51,0,0,0,.24,2.2,2.48,2.48,0,0,0,4.65,0Z"/><path d="M486.52,12.34a8.25,8.25,0,0,1-.35-2.66A8.17,8.17,0,0,1,486.5,7a4.43,4.43,0,0,1,8.27,0,9.18,9.18,0,0,1,.33,3,.21.21,0,0,1-.24.22h-6.67c-.09,0-.13.05-.13.14a3.93,3.93,0,0,0,.17,1.27,2.62,2.62,0,0,0,2.67,1.83,3.43,3.43,0,0,0,2.7-1.17.22.22,0,0,1,.33,0l.9.81a.21.21,0,0,1,0,.31,5.13,5.13,0,0,1-4.12,1.8A4.07,4.07,0,0,1,486.52,12.34Zm6.55-3.56a.12.12,0,0,0,.14-.13,3.68,3.68,0,0,0-.16-1.19,2.6,2.6,0,0,0-4.84,0,3.71,3.71,0,0,0-.15,1.19.12.12,0,0,0,.13.13Z"/><path d="M501.28,7a4.07,4.07,0,0,1,4.16-2.84A4.24,4.24,0,0,1,509.05,6a.22.22,0,0,1-.07.31l-1,.79a.2.2,0,0,1-.31,0,2.58,2.58,0,0,0-2.26-1.14,2.29,2.29,0,0,0-2.36,1.65,7.21,7.21,0,0,0-.24,2.13,7.3,7.3,0,0,0,.24,2.16,2.29,2.29,0,0,0,2.36,1.65,2.59,2.59,0,0,0,2.26-1.15.2.2,0,0,1,.31,0l1,.79a.22.22,0,0,1,.07.31,4.24,4.24,0,0,1-3.61,1.78,4.08,4.08,0,0,1-4.16-2.83A9.08,9.08,0,0,1,501,9.68,9,9,0,0,1,501.28,7Z"/><path d="M517.21,15a.21.21,0,0,1-.22-.22v-.92h0a3.47,3.47,0,0,1-3.13,1.38c-2,0-3.54-1-3.54-3.16s1.54-3.26,4.11-3.26h2.4a.12.12,0,0,0,.13-.13V7.88c0-1.46-.57-2.07-2.53-2.07a4.12,4.12,0,0,0-2.55.75.19.19,0,0,1-.31,0l-.59-1a.24.24,0,0,1,0-.31,5.92,5.92,0,0,1,3.59-1c3,0,4.14,1,4.14,3.59v7a.21.21,0,0,1-.22.22Zm-.27-3.41V10.39c0-.09,0-.14-.13-.14H514.7c-1.83,0-2.62.53-2.62,1.72s.79,1.65,2.2,1.65C515.93,13.62,516.94,12.85,516.94,11.55Z"/><path d="M521.59,15a.2.2,0,0,1-.22-.22V4.64a.2.2,0,0,1,.22-.22H523a.2.2,0,0,1,.22.22V5.72h0A2.93,2.93,0,0,1,526,4.18a3.26,3.26,0,0,1,2.16.79c.11.11.13.2,0,.31l-.81,1.08a.2.2,0,0,1-.31,0,3,3,0,0,0-1.63-.5c-1.61,0-2.27,1.25-2.27,3.08v5.76A.2.2,0,0,1,523,15Z"/><path d="M528.89,17.6a.2.2,0,0,1,0-.31l.9-.9a.21.21,0,0,1,.33,0,3.54,3.54,0,0,0,2.49,1.06c1.74,0,2.66-.9,2.66-2.84V13.38h0a3,3,0,0,1-2.93,1.45,3.45,3.45,0,0,1-3.54-2.55,8.34,8.34,0,0,1-.35-2.77,8.36,8.36,0,0,1,.35-2.78,3.45,3.45,0,0,1,3.54-2.55,3,3,0,0,1,2.93,1.45h0v-1a.21.21,0,0,1,.22-.22h1.41a.21.21,0,0,1,.22.22V14.5c0,3-1.63,4.66-4.6,4.66A4.74,4.74,0,0,1,528.89,17.6Zm6.16-6.05a6.28,6.28,0,0,0,.24-2,6.38,6.38,0,0,0-.24-2,2.38,2.38,0,0,0-4.47,0,6.82,6.82,0,0,0-.26,2.05,6.7,6.7,0,0,0,.26,2,2.37,2.37,0,0,0,4.47,0Z"/><path d="M546.25,15a.21.21,0,0,1-.22-.22v-.92h0a3.47,3.47,0,0,1-3.13,1.38c-2,0-3.54-1-3.54-3.16s1.54-3.26,4.11-3.26h2.4a.12.12,0,0,0,.13-.13V7.88c0-1.46-.57-2.07-2.53-2.07a4.12,4.12,0,0,0-2.55.75.19.19,0,0,1-.31,0l-.59-1a.24.24,0,0,1,0-.31,5.92,5.92,0,0,1,3.59-1c3,0,4.14,1,4.14,3.59v7a.21.21,0,0,1-.22.22ZM546,11.55V10.39c0-.09,0-.14-.13-.14h-2.11c-1.83,0-2.62.53-2.62,1.72s.79,1.65,2.2,1.65C545,13.62,546,12.85,546,11.55Z"/><path d="M549.68,13.62a.21.21,0,0,1,0-.31l.9-1a.23.23,0,0,1,.31,0,5.07,5.07,0,0,0,3.26,1.21c1.54,0,2.31-.66,2.31-1.6s-.4-1.3-2.05-1.48l-1.12-.11c-2.07-.22-3.15-1.25-3.15-3,0-2,1.43-3.21,3.92-3.21a6.3,6.3,0,0,1,3.74,1.17c.11.06.11.19,0,.3l-.75.95a.21.21,0,0,1-.3.05A5.48,5.48,0,0,0,554,5.79c-1.32,0-2,.59-2,1.45s.5,1.28,2.06,1.43l1.1.11c2.14.2,3.17,1.28,3.17,3,0,2.07-1.49,3.45-4.24,3.45A6.55,6.55,0,0,1,549.68,13.62Z"/><path d="M567.23,15.07c-1.84,0-2.57-.88-2.57-2.77V.22a.21.21,0,0,1,.22-.22h1.41a.21.21,0,0,1,.22.22v12c0,.88.33,1.17,1,1.17H568a.2.2,0,0,1,.22.22v1.27a.2.2,0,0,1-.22.22Z"/><path d="M576.3,15a.21.21,0,0,1-.22-.22v-.92h0a3.47,3.47,0,0,1-3.13,1.38c-2,0-3.54-1-3.54-3.16s1.54-3.26,4.11-3.26h2.4a.12.12,0,0,0,.14-.13V7.88c0-1.46-.58-2.07-2.54-2.07a4.12,4.12,0,0,0-2.55.75.19.19,0,0,1-.31,0l-.59-1a.24.24,0,0,1,0-.31,5.92,5.92,0,0,1,3.59-1c3,0,4.14,1,4.14,3.59v7a.21.21,0,0,1-.22.22ZM576,11.55V10.39a.13.13,0,0,0-.14-.14h-2.11c-1.83,0-2.62.53-2.62,1.72s.79,1.65,2.2,1.65C575,13.62,576,12.85,576,11.55Z"/><path d="M579.73,13.62a.21.21,0,0,1,0-.31l.9-1a.23.23,0,0,1,.31,0,5.07,5.07,0,0,0,3.26,1.21c1.54,0,2.31-.66,2.31-1.6s-.4-1.3-2-1.48l-1.12-.11c-2.07-.22-3.15-1.25-3.15-3,0-2,1.43-3.21,3.92-3.21a6.3,6.3,0,0,1,3.74,1.17c.11.06.11.19,0,.3l-.74.95a.22.22,0,0,1-.31.05A5.45,5.45,0,0,0,584,5.79c-1.32,0-2,.59-2,1.45s.5,1.28,2.06,1.43l1.11.11c2.13.2,3.16,1.28,3.16,3,0,2.07-1.49,3.45-4.24,3.45A6.55,6.55,0,0,1,579.73,13.62Z"/><path d="M1.54,43a.21.21,0,0,1-.22-.22V32.64a.21.21,0,0,1,.22-.22H3a.21.21,0,0,1,.22.22v1.08h0A2.94,2.94,0,0,1,6,32.18,3.26,3.26,0,0,1,8.14,33c.11.11.13.2,0,.31l-.82,1.08a.2.2,0,0,1-.31,0,2.93,2.93,0,0,0-1.62-.5c-1.61,0-2.27,1.25-2.27,3.08v5.76A.21.21,0,0,1,3,43Z"/><path d="M8.78,40.34a8.25,8.25,0,0,1-.35-2.66A8.17,8.17,0,0,1,8.76,35a4.06,4.06,0,0,1,4.13-2.84A4.07,4.07,0,0,1,17,35a9.18,9.18,0,0,1,.33,3,.21.21,0,0,1-.24.22H10.45c-.09,0-.13,0-.13.14a3.93,3.93,0,0,0,.17,1.27,2.62,2.62,0,0,0,2.67,1.83,3.43,3.43,0,0,0,2.7-1.17.22.22,0,0,1,.33,0l.91.81a.2.2,0,0,1,0,.31A5.13,5.13,0,0,1,13,43.2,4.07,4.07,0,0,1,8.78,40.34Zm6.55-3.56a.12.12,0,0,0,.14-.13,3.68,3.68,0,0,0-.16-1.19,2.37,2.37,0,0,0-2.42-1.65,2.37,2.37,0,0,0-2.42,1.65,3.71,3.71,0,0,0-.15,1.19.12.12,0,0,0,.13.13Z"/><path d="M19.14,35a4.07,4.07,0,0,1,4.16-2.84A4.24,4.24,0,0,1,26.91,34a.22.22,0,0,1-.07.31l-1,.79a.2.2,0,0,1-.31,0A2.58,2.58,0,0,0,23.3,33.9a2.29,2.29,0,0,0-2.36,1.65,7.21,7.21,0,0,0-.24,2.13,7.3,7.3,0,0,0,.24,2.16,2.29,2.29,0,0,0,2.36,1.65,2.59,2.59,0,0,0,2.26-1.15.2.2,0,0,1,.31,0l1,.79a.22.22,0,0,1,.07.31A4.24,4.24,0,0,1,23.3,43.2a4.08,4.08,0,0,1-4.16-2.83,9.08,9.08,0,0,1-.33-2.69A9,9,0,0,1,19.14,35Z"/><path d="M28.4,40.37a8,8,0,0,1-.35-2.69A7.92,7.92,0,0,1,28.4,35a4.06,4.06,0,0,1,4.16-2.84A4.06,4.06,0,0,1,36.72,35a7.92,7.92,0,0,1,.35,2.66,8,8,0,0,1-.35,2.69,4.09,4.09,0,0,1-4.16,2.83A4.09,4.09,0,0,1,28.4,40.37Zm6.54-.53a7.13,7.13,0,0,0,.24-2.16,6.91,6.91,0,0,0-.24-2.13,2.54,2.54,0,0,0-4.76,0,6.91,6.91,0,0,0-.24,2.13,7.13,7.13,0,0,0,.24,2.16,2.54,2.54,0,0,0,4.76,0Z"/><path d="M52.63,43a.2.2,0,0,1-.22-.22V36.58c0-1.69-.77-2.68-2.36-2.68a2.37,2.37,0,0,0-2.42,2.57v6.27a.21.21,0,0,1-.22.22H46a.21.21,0,0,1-.22-.22V36.58c0-1.69-.77-2.68-2.35-2.68A2.36,2.36,0,0,0,41,36.47v6.27a.21.21,0,0,1-.22.22H39.38a.21.21,0,0,1-.22-.22V32.64a.21.21,0,0,1,.22-.22h1.41a.21.21,0,0,1,.22.22v1h0A3.35,3.35,0,0,1,44,32.18a3.31,3.31,0,0,1,3.08,1.65h0a3.94,3.94,0,0,1,3.41-1.65c2.44,0,3.76,1.56,3.76,4v6.6A.2.2,0,0,1,54,43Z"/><path d="M56.58,40.34a8.25,8.25,0,0,1-.35-2.66A8.17,8.17,0,0,1,56.56,35a4.43,4.43,0,0,1,8.27,0,9.11,9.11,0,0,1,.34,3c0,.14-.09.22-.25.22H58.26a.13.13,0,0,0-.14.14,3.9,3.9,0,0,0,.18,1.27A2.6,2.6,0,0,0,61,41.49a3.44,3.44,0,0,0,2.71-1.17.22.22,0,0,1,.33,0l.9.81a.2.2,0,0,1,0,.31,5.09,5.09,0,0,1-4.11,1.8A4.08,4.08,0,0,1,56.58,40.34Zm6.56-3.56a.12.12,0,0,0,.13-.13,3.71,3.71,0,0,0-.15-1.19,2.6,2.6,0,0,0-4.84,0,3.68,3.68,0,0,0-.16,1.19.12.12,0,0,0,.14.13Z"/><path d="M74.1,43a.2.2,0,0,1-.22-.22V36.58c0-1.69-.77-2.68-2.36-2.68a2.36,2.36,0,0,0-2.42,2.57v6.27a.21.21,0,0,1-.22.22H67.47a.21.21,0,0,1-.22-.22V32.64a.21.21,0,0,1,.22-.22h1.41a.21.21,0,0,1,.22.22v1h0a3.35,3.35,0,0,1,2.95-1.43c2.29,0,3.65,1.56,3.65,4v6.6a.2.2,0,0,1-.22.22Z"/><path d="M84.94,43a.21.21,0,0,1-.22-.22v-1h0a3.2,3.2,0,0,1-3,1.47,3.47,3.47,0,0,1-3.63-2.53,8.62,8.62,0,0,1-.38-3,8.61,8.61,0,0,1,.38-3,3.48,3.48,0,0,1,3.63-2.53,3.21,3.21,0,0,1,3,1.45h0V28.22a.21.21,0,0,1,.22-.22h1.41a.21.21,0,0,1,.22.22V42.74a.21.21,0,0,1-.22.22Zm-.46-3.08a6.63,6.63,0,0,0,.24-2.2,6.79,6.79,0,0,0-.24-2.2,2.49,2.49,0,0,0-4.64,0,7.35,7.35,0,0,0-.24,2.2,7.18,7.18,0,0,0,.24,2.2,2.48,2.48,0,0,0,4.64,0Z"/><path d="M95.68,43a.21.21,0,0,1-.22-.22v-.92h0a3.47,3.47,0,0,1-3.13,1.38c-2,0-3.54-1-3.54-3.16s1.54-3.26,4.11-3.26h2.4a.12.12,0,0,0,.13-.13v-.77c0-1.46-.57-2.07-2.53-2.07a4.12,4.12,0,0,0-2.55.75.19.19,0,0,1-.31,0l-.59-1a.23.23,0,0,1,0-.31,5.92,5.92,0,0,1,3.59-1c3,0,4.14,1,4.14,3.59v7A.21.21,0,0,1,97,43Zm-.27-3.41V38.39c0-.09,0-.14-.13-.14H93.17c-1.83,0-2.62.53-2.62,1.72s.79,1.65,2.2,1.65C94.4,41.62,95.41,40.85,95.41,39.55Z"/><path d="M99.53,35a4.07,4.07,0,0,1,4.16-2.84,4.22,4.22,0,0,1,3.6,1.78c.07.11.07.2-.06.31l-1,.79a.2.2,0,0,1-.31,0,2.58,2.58,0,0,0-2.26-1.14,2.29,2.29,0,0,0-2.36,1.65,7.21,7.21,0,0,0-.24,2.13,7.3,7.3,0,0,0,.24,2.16,2.29,2.29,0,0,0,2.36,1.65A2.59,2.59,0,0,0,106,40.34a.2.2,0,0,1,.31,0l1,.79c.13.11.13.2.06.31a4.22,4.22,0,0,1-3.6,1.78,4.08,4.08,0,0,1-4.16-2.83,9.08,9.08,0,0,1-.33-2.69A9,9,0,0,1,99.53,35Z"/><path d="M109.52,30.05a.21.21,0,0,1-.23-.22V28.22a.21.21,0,0,1,.23-.22H111a.21.21,0,0,1,.22.22v1.61a.21.21,0,0,1-.22.22Zm0,12.91a.21.21,0,0,1-.22-.22V32.64a.21.21,0,0,1,.22-.22H111a.21.21,0,0,1,.22.22v10.1A.21.21,0,0,1,111,43Z"/><path d="M113.63,40.37a8,8,0,0,1-.35-2.69,7.92,7.92,0,0,1,.35-2.66A4.47,4.47,0,0,1,122,35a7.92,7.92,0,0,1,.35,2.66,8,8,0,0,1-.35,2.69,4.47,4.47,0,0,1-8.32,0Zm6.53-.53a6.77,6.77,0,0,0,.25-2.16,6.57,6.57,0,0,0-.25-2.13,2.53,2.53,0,0,0-4.75,0,6.61,6.61,0,0,0-.24,2.13,6.82,6.82,0,0,0,.24,2.16,2.53,2.53,0,0,0,4.75,0Z"/><path d="M131.23,43a.21.21,0,0,1-.22-.22V36.58c0-1.69-.77-2.68-2.36-2.68a2.36,2.36,0,0,0-2.42,2.57v6.27A.2.2,0,0,1,126,43h-1.4a.2.2,0,0,1-.22-.22V32.64a.2.2,0,0,1,.22-.22H126a.2.2,0,0,1,.22.22v1h0a3.32,3.32,0,0,1,3-1.43c2.28,0,3.65,1.56,3.65,4v6.6a.21.21,0,0,1-.22.22Z"/><path d="M135.19,40.34a8.25,8.25,0,0,1-.35-2.66,8.17,8.17,0,0,1,.33-2.66,4.43,4.43,0,0,1,8.27,0,9.18,9.18,0,0,1,.33,3,.21.21,0,0,1-.24.22h-6.67c-.09,0-.13,0-.13.14a3.93,3.93,0,0,0,.17,1.27,2.62,2.62,0,0,0,2.67,1.83,3.43,3.43,0,0,0,2.7-1.17.22.22,0,0,1,.33,0l.91.81a.2.2,0,0,1,0,.31,5.13,5.13,0,0,1-4.12,1.8A4.07,4.07,0,0,1,135.19,40.34Zm6.56-3.56a.12.12,0,0,0,.13-.13,3.68,3.68,0,0,0-.16-1.19,2.6,2.6,0,0,0-4.84,0,3.71,3.71,0,0,0-.15,1.19.12.12,0,0,0,.13.13Z"/><path d="M145.13,41.62a.21.21,0,0,1,0-.31l.9-1a.23.23,0,0,1,.31,0,5.07,5.07,0,0,0,3.26,1.21c1.54,0,2.31-.66,2.31-1.6s-.4-1.3-2-1.48l-1.12-.11c-2.07-.22-3.15-1.25-3.15-3,0-2,1.43-3.21,3.92-3.21a6.3,6.3,0,0,1,3.74,1.17c.11.06.11.19,0,.3l-.74,1a.22.22,0,0,1-.31,0,5.45,5.45,0,0,0-2.84-.86c-1.32,0-2,.59-2,1.45s.5,1.28,2.07,1.43l1.1.11c2.13.2,3.17,1.28,3.17,3,0,2.07-1.5,3.45-4.25,3.45A6.55,6.55,0,0,1,145.13,41.62Z"/><path d="M171.16,43a.21.21,0,0,1-.22-.22v-1h0a3.21,3.21,0,0,1-3,1.47,3.48,3.48,0,0,1-3.63-2.53,8.9,8.9,0,0,1-.37-3,8.89,8.89,0,0,1,.37-3,3.49,3.49,0,0,1,3.63-2.53,3.22,3.22,0,0,1,3,1.45h0V28.22a.21.21,0,0,1,.22-.22h1.41a.21.21,0,0,1,.22.22V42.74a.21.21,0,0,1-.22.22Zm-.46-3.08a6.92,6.92,0,0,0,.24-2.2,7.08,7.08,0,0,0-.24-2.2,2.5,2.5,0,0,0-4.65,0,7.69,7.69,0,0,0-.24,2.2,7.51,7.51,0,0,0,.24,2.2,2.48,2.48,0,0,0,4.65,0Z"/><path d="M175.23,40.34a8.25,8.25,0,0,1-.35-2.66,8.17,8.17,0,0,1,.33-2.66,4.43,4.43,0,0,1,8.27,0,9.18,9.18,0,0,1,.33,3,.21.21,0,0,1-.24.22H176.9c-.09,0-.13,0-.13.14a3.93,3.93,0,0,0,.17,1.27,2.62,2.62,0,0,0,2.67,1.83,3.43,3.43,0,0,0,2.7-1.17.22.22,0,0,1,.33,0l.9.81a.21.21,0,0,1,0,.31,5.13,5.13,0,0,1-4.12,1.8A4.07,4.07,0,0,1,175.23,40.34Zm6.55-3.56a.12.12,0,0,0,.14-.13,3.68,3.68,0,0,0-.16-1.19,2.6,2.6,0,0,0-4.84,0,3.71,3.71,0,0,0-.15,1.19.12.12,0,0,0,.13.13Z"/><path d="M197.14,43a.21.21,0,0,1-.22-.22V36.58c0-1.69-.77-2.68-2.36-2.68a2.36,2.36,0,0,0-2.42,2.57v6.27a.2.2,0,0,1-.22.22h-1.4a.2.2,0,0,1-.22-.22V28.22a.2.2,0,0,1,.22-.22h1.4a.2.2,0,0,1,.22.22v5.39h0a3.34,3.34,0,0,1,3-1.43c2.28,0,3.65,1.56,3.65,4v6.6a.21.21,0,0,1-.22.22Z"/><path d="M201.56,30.05a.21.21,0,0,1-.22-.22V28.22a.21.21,0,0,1,.22-.22h1.5a.21.21,0,0,1,.22.22v1.61a.21.21,0,0,1-.22.22Zm0,12.91a.21.21,0,0,1-.22-.22V32.64a.21.21,0,0,1,.22-.22H203a.21.21,0,0,1,.22.22v10.1A.21.21,0,0,1,203,43Z"/><path d="M205.74,45.6a.2.2,0,0,1,0-.31l.9-.9a.21.21,0,0,1,.33,0,3.54,3.54,0,0,0,2.49,1.06c1.74,0,2.66-.9,2.66-2.84V41.38h0a3,3,0,0,1-2.93,1.45,3.45,3.45,0,0,1-3.54-2.55,8.34,8.34,0,0,1-.35-2.77,8.36,8.36,0,0,1,.35-2.78,3.45,3.45,0,0,1,3.54-2.55,3,3,0,0,1,2.93,1.45h0v-1a.21.21,0,0,1,.22-.22h1.41a.21.21,0,0,1,.22.22V42.5c0,3-1.63,4.66-4.6,4.66A4.74,4.74,0,0,1,205.74,45.6Zm6.16-6.05a6.28,6.28,0,0,0,.24-2,6.38,6.38,0,0,0-.24-2,2.38,2.38,0,0,0-4.47,0,6.82,6.82,0,0,0-.26,2,6.7,6.7,0,0,0,.26,2,2.37,2.37,0,0,0,4.47,0Z"/><path d="M216.89,30.05a.21.21,0,0,1-.22-.22V28.22a.21.21,0,0,1,.22-.22h1.5a.21.21,0,0,1,.22.22v1.61a.21.21,0,0,1-.22.22ZM216.94,43a.21.21,0,0,1-.22-.22V32.64a.21.21,0,0,1,.22-.22h1.41a.21.21,0,0,1,.22.22v10.1a.21.21,0,0,1-.22.22Z"/><path d="M221,40.34a8.2,8.2,0,0,1-.36-2.66A8.46,8.46,0,0,1,221,35a4.44,4.44,0,0,1,8.28,0,9.18,9.18,0,0,1,.33,3,.21.21,0,0,1-.24.22h-6.67c-.09,0-.13,0-.13.14a3.93,3.93,0,0,0,.17,1.27,2.62,2.62,0,0,0,2.67,1.83,3.43,3.43,0,0,0,2.7-1.17.22.22,0,0,1,.33,0l.9.81a.21.21,0,0,1,0,.31,5.13,5.13,0,0,1-4.12,1.8A4.07,4.07,0,0,1,221,40.34Zm6.55-3.56a.12.12,0,0,0,.14-.13,3.68,3.68,0,0,0-.16-1.19,2.6,2.6,0,0,0-4.84,0,3.71,3.71,0,0,0-.15,1.19.12.12,0,0,0,.13.13Z"/><path d="M238.52,43a.21.21,0,0,1-.22-.22V36.58c0-1.69-.77-2.68-2.35-2.68a2.37,2.37,0,0,0-2.43,2.57v6.27a.2.2,0,0,1-.21.22H231.9a.2.2,0,0,1-.22-.22V32.64a.2.2,0,0,1,.22-.22h1.41a.2.2,0,0,1,.21.22v1h0a3.34,3.34,0,0,1,2.95-1.43c2.28,0,3.65,1.56,3.65,4v6.6a.21.21,0,0,1-.22.22Z"/><path d="M242.48,40.34a8.25,8.25,0,0,1-.35-2.66,8.17,8.17,0,0,1,.33-2.66,4.43,4.43,0,0,1,8.27,0,9.18,9.18,0,0,1,.33,3,.21.21,0,0,1-.24.22h-6.67c-.09,0-.13,0-.13.14a3.93,3.93,0,0,0,.17,1.27,2.62,2.62,0,0,0,2.67,1.83,3.43,3.43,0,0,0,2.7-1.17.22.22,0,0,1,.33,0l.91.81a.2.2,0,0,1,0,.31,5.13,5.13,0,0,1-4.12,1.8A4.07,4.07,0,0,1,242.48,40.34ZM249,36.78a.12.12,0,0,0,.13-.13,3.68,3.68,0,0,0-.16-1.19,2.6,2.6,0,0,0-4.84,0,3.71,3.71,0,0,0-.15,1.19.12.12,0,0,0,.13.13Z"/><path d="M257.77,46.92a.21.21,0,0,1-.22-.22V32.64a.21.21,0,0,1,.22-.22h1.41a.21.21,0,0,1,.22.22v1h0a3.2,3.2,0,0,1,3-1.45A3.48,3.48,0,0,1,266,34.71a8.61,8.61,0,0,1,.38,3,8.62,8.62,0,0,1-.38,3,3.47,3.47,0,0,1-3.63,2.53,3.19,3.19,0,0,1-3-1.47h0v5a.21.21,0,0,1-.22.22Zm6.51-7a7.18,7.18,0,0,0,.24-2.2,7.35,7.35,0,0,0-.24-2.2,2.49,2.49,0,0,0-4.64,0,6.79,6.79,0,0,0-.24,2.2,6.63,6.63,0,0,0,.24,2.2,2.48,2.48,0,0,0,4.64,0Z"/><path d="M268.22,40.37a8,8,0,0,1-.35-2.69,7.92,7.92,0,0,1,.35-2.66,4.47,4.47,0,0,1,8.32,0,7.92,7.92,0,0,1,.35,2.66,8,8,0,0,1-.35,2.69,4.47,4.47,0,0,1-8.32,0Zm6.53-.53a6.77,6.77,0,0,0,.25-2.16,6.57,6.57,0,0,0-.25-2.13,2.53,2.53,0,0,0-4.75,0,6.61,6.61,0,0,0-.24,2.13,6.82,6.82,0,0,0,.24,2.16,2.53,2.53,0,0,0,4.75,0Z"/><path d="M278.25,41.62a.21.21,0,0,1,0-.31l.9-1a.23.23,0,0,1,.31,0,5.07,5.07,0,0,0,3.26,1.21c1.54,0,2.31-.66,2.31-1.6s-.4-1.3-2-1.48l-1.12-.11c-2.07-.22-3.15-1.25-3.15-3,0-2,1.43-3.21,3.92-3.21a6.3,6.3,0,0,1,3.74,1.17c.11.06.11.19,0,.3l-.74,1a.22.22,0,0,1-.31,0,5.48,5.48,0,0,0-2.84-.86c-1.32,0-2,.59-2,1.45s.5,1.28,2.06,1.43l1.1.11c2.14.2,3.17,1.28,3.17,3,0,2.07-1.49,3.45-4.24,3.45A6.55,6.55,0,0,1,278.25,41.62Z"/><path d="M291.93,43.07c-2,0-2.83-.92-2.83-3v-6c0-.09-.05-.13-.14-.13h-.88a.21.21,0,0,1-.22-.22V32.64a.21.21,0,0,1,.22-.22H289c.09,0,.14,0,.14-.13v-3a.2.2,0,0,1,.22-.22h1.4a.2.2,0,0,1,.22.22v3c0,.09.05.13.14.13h1.67a.21.21,0,0,1,.22.22V33.7a.21.21,0,0,1-.22.22h-1.67c-.09,0-.14,0-.14.13v6c0,1.06.4,1.35,1.35,1.35h.46a.2.2,0,0,1,.22.22v1.27a.21.21,0,0,1-.22.22Z"/><path d="M301.57,43a.21.21,0,0,1-.22-.22v-1h0a3.21,3.21,0,0,1-2.88,1.45c-2.31,0-3.66-1.58-3.66-4V32.64a.21.21,0,0,1,.22-.22h1.41a.21.21,0,0,1,.22.22v6.14c0,1.72.77,2.71,2.33,2.71a2.34,2.34,0,0,0,2.38-2.6V32.64a.21.21,0,0,1,.22-.22H303a.21.21,0,0,1,.22.22v10.1A.21.21,0,0,1,303,43Z"/><path d="M306.15,43a.2.2,0,0,1-.22-.22V32.64a.2.2,0,0,1,.22-.22h1.4a.2.2,0,0,1,.22.22v1.08h0a2.93,2.93,0,0,1,2.79-1.54,3.26,3.26,0,0,1,2.16.79c.11.11.13.2,0,.31L312,34.36a.2.2,0,0,1-.31,0,3,3,0,0,0-1.63-.5c-1.61,0-2.27,1.25-2.27,3.08v5.76a.2.2,0,0,1-.22.22Z"/><path d="M319.92,43a.21.21,0,0,1-.22-.22v-.92h0a3.47,3.47,0,0,1-3.13,1.38c-2,0-3.54-1-3.54-3.16s1.54-3.26,4.11-3.26h2.4a.12.12,0,0,0,.13-.13v-.77c0-1.46-.57-2.07-2.53-2.07a4.12,4.12,0,0,0-2.55.75.19.19,0,0,1-.31,0l-.59-1a.24.24,0,0,1,0-.31,5.92,5.92,0,0,1,3.59-1c3,0,4.14,1,4.14,3.59v7a.21.21,0,0,1-.22.22Zm-.27-3.41V38.39c0-.09,0-.14-.13-.14h-2.11c-1.83,0-2.62.53-2.62,1.72s.79,1.65,2.2,1.65C318.64,41.62,319.65,40.85,319.65,39.55Z"/><path d="M326.61,43.07c-1.85,0-2.58-.88-2.58-2.77V28.22a.21.21,0,0,1,.22-.22h1.41a.21.21,0,0,1,.22.22v12c0,.88.33,1.17,1.06,1.17h.41a.2.2,0,0,1,.22.22v1.27a.2.2,0,0,1-.22.22Z"/><path d="M329.35,40.63h1.54a.2.2,0,0,1,.22.22v2a.68.68,0,0,1-.13.48l-1.36,1.8a.36.36,0,0,1-.29.16.2.2,0,0,1-.2-.2V40.85A.21.21,0,0,1,329.35,40.63Z"/><path d="M344.36,43a.21.21,0,0,1-.22-.22V36.58c0-1.69-.77-2.68-2.35-2.68a2.36,2.36,0,0,0-2.43,2.57v6.27a.2.2,0,0,1-.21.22h-1.41a.2.2,0,0,1-.22-.22V28.22a.2.2,0,0,1,.22-.22h1.41a.2.2,0,0,1,.21.22v5.39h0a3.34,3.34,0,0,1,2.95-1.43c2.28,0,3.65,1.56,3.65,4v6.6a.21.21,0,0,1-.22.22Z"/><path d="M355,43a.2.2,0,0,1-.22-.22v-.92h0a3.44,3.44,0,0,1-3.12,1.38c-2,0-3.54-1-3.54-3.16s1.54-3.26,4.11-3.26h2.4a.12.12,0,0,0,.13-.13v-.77c0-1.46-.57-2.07-2.53-2.07a4.07,4.07,0,0,0-2.55.75.19.19,0,0,1-.31,0l-.59-1a.23.23,0,0,1,0-.31,5.88,5.88,0,0,1,3.59-1c3,0,4.13,1,4.13,3.59v7a.2.2,0,0,1-.22.22Zm-.27-3.41V38.39c0-.09,0-.14-.13-.14h-2.11c-1.83,0-2.62.53-2.62,1.72s.79,1.65,2.2,1.65C353.71,41.62,354.72,40.85,354.72,39.55Z"/><path d="M358.92,45.6a.2.2,0,0,1,0-.31l.91-.9a.21.21,0,0,1,.33,0,3.5,3.5,0,0,0,2.48,1.06c1.74,0,2.67-.9,2.67-2.84V41.38h0a3,3,0,0,1-2.92,1.45,3.46,3.46,0,0,1-3.55-2.55,8.34,8.34,0,0,1-.35-2.77,8.36,8.36,0,0,1,.35-2.78,3.46,3.46,0,0,1,3.55-2.55,3,3,0,0,1,2.92,1.45h0v-1a.2.2,0,0,1,.21-.22H367a.2.2,0,0,1,.22.22V42.5c0,3-1.63,4.66-4.6,4.66A4.75,4.75,0,0,1,358.92,45.6Zm6.16-6.05a6.24,6.24,0,0,0,.25-2,6.34,6.34,0,0,0-.25-2,2.37,2.37,0,0,0-4.46,0,6.48,6.48,0,0,0-.27,2,6.37,6.37,0,0,0,.27,2,2.14,2.14,0,0,0,2.22,1.59A2.17,2.17,0,0,0,365.08,39.55Z"/><path d="M376.28,43a.21.21,0,0,1-.22-.22v-.92h0a3.47,3.47,0,0,1-3.13,1.38c-2,0-3.54-1-3.54-3.16s1.54-3.26,4.12-3.26h2.39a.12.12,0,0,0,.14-.13v-.77c0-1.46-.58-2.07-2.53-2.07a4.13,4.13,0,0,0-2.56.75c-.11.09-.24.09-.3,0l-.6-1a.24.24,0,0,1,.05-.31,5.87,5.87,0,0,1,3.58-1c3,0,4.14,1,4.14,3.59v7a.21.21,0,0,1-.22.22ZM376,39.55V38.39a.13.13,0,0,0-.14-.14h-2.11c-1.82,0-2.62.53-2.62,1.72s.8,1.65,2.2,1.65C375,41.62,376,40.85,376,39.55Z"/><path d="M391.46,43a.21.21,0,0,1-.22-.22v-1h0a3.21,3.21,0,0,1-2.88,1.45c-2.31,0-3.66-1.58-3.66-4V32.64a.21.21,0,0,1,.22-.22h1.41a.21.21,0,0,1,.22.22v6.14c0,1.72.77,2.71,2.33,2.71a2.34,2.34,0,0,0,2.38-2.6V32.64a.21.21,0,0,1,.22-.22h1.41a.21.21,0,0,1,.22.22v10.1a.21.21,0,0,1-.22.22Z"/><path d="M395.09,41.62a.21.21,0,0,1,0-.31l.9-1a.23.23,0,0,1,.31,0,5.07,5.07,0,0,0,3.26,1.21c1.54,0,2.31-.66,2.31-1.6s-.4-1.3-2.05-1.48l-1.12-.11c-2.07-.22-3.15-1.25-3.15-3,0-2,1.43-3.21,3.92-3.21a6.3,6.3,0,0,1,3.74,1.17c.11.06.11.19,0,.3l-.75,1a.21.21,0,0,1-.3,0,5.48,5.48,0,0,0-2.84-.86c-1.32,0-2,.59-2,1.45s.5,1.28,2.06,1.43l1.1.11c2.14.2,3.17,1.28,3.17,3,0,2.07-1.49,3.45-4.24,3.45A6.55,6.55,0,0,1,395.09,41.62Z"/><path d="M405.43,40.37a8,8,0,0,1-.35-2.69,7.92,7.92,0,0,1,.35-2.66,4.47,4.47,0,0,1,8.32,0,7.92,7.92,0,0,1,.35,2.66,8,8,0,0,1-.35,2.69,4.47,4.47,0,0,1-8.32,0Zm6.53-.53a6.77,6.77,0,0,0,.25-2.16,6.57,6.57,0,0,0-.25-2.13,2.53,2.53,0,0,0-4.75,0,6.91,6.91,0,0,0-.24,2.13,7.13,7.13,0,0,0,.24,2.16,2.53,2.53,0,0,0,4.75,0Z"/><path d="M427.19,43a.21.21,0,0,1-.22-.22v-1h0a3.21,3.21,0,0,1-3,1.47,3.48,3.48,0,0,1-3.63-2.53,8.9,8.9,0,0,1-.37-3,8.89,8.89,0,0,1,.37-3A3.49,3.49,0,0,1,424,32.18a3.22,3.22,0,0,1,3,1.45h0V28.22a.21.21,0,0,1,.22-.22h1.41a.21.21,0,0,1,.22.22V42.74a.21.21,0,0,1-.22.22Zm-.46-3.08a6.92,6.92,0,0,0,.24-2.2,7.08,7.08,0,0,0-.24-2.2,2.5,2.5,0,0,0-4.65,0,7.69,7.69,0,0,0-.24,2.2,7.51,7.51,0,0,0,.24,2.2,2.48,2.48,0,0,0,4.65,0Z"/><path d="M431.26,40.34a8.2,8.2,0,0,1-.36-2.66,8.17,8.17,0,0,1,.33-2.66,4.44,4.44,0,0,1,8.28,0,9.18,9.18,0,0,1,.33,3,.21.21,0,0,1-.24.22h-6.67c-.09,0-.13,0-.13.14a3.93,3.93,0,0,0,.17,1.27,2.62,2.62,0,0,0,2.67,1.83,3.43,3.43,0,0,0,2.7-1.17.22.22,0,0,1,.33,0l.9.81a.21.21,0,0,1,0,.31,5.13,5.13,0,0,1-4.12,1.8A4.07,4.07,0,0,1,431.26,40.34Zm6.55-3.56a.12.12,0,0,0,.14-.13,3.68,3.68,0,0,0-.16-1.19,2.6,2.6,0,0,0-4.84,0,3.71,3.71,0,0,0-.15,1.19.12.12,0,0,0,.13.13Z"/><path d="M453.17,43a.21.21,0,0,1-.22-.22V36.58c0-1.69-.77-2.68-2.36-2.68a2.36,2.36,0,0,0-2.42,2.57v6.27A.2.2,0,0,1,448,43h-1.4a.2.2,0,0,1-.22-.22V28.22a.2.2,0,0,1,.22-.22H448a.2.2,0,0,1,.22.22v5.39h0a3.32,3.32,0,0,1,2.95-1.43c2.28,0,3.65,1.56,3.65,4v6.6a.21.21,0,0,1-.22.22Z"/><path d="M457.13,40.34a8.25,8.25,0,0,1-.35-2.66,8.17,8.17,0,0,1,.33-2.66,4.43,4.43,0,0,1,8.27,0,9.18,9.18,0,0,1,.33,3,.21.21,0,0,1-.24.22H458.8c-.09,0-.13,0-.13.14a3.93,3.93,0,0,0,.17,1.27,2.62,2.62,0,0,0,2.67,1.83,3.43,3.43,0,0,0,2.7-1.17.22.22,0,0,1,.33,0l.91.81a.2.2,0,0,1,0,.31,5.13,5.13,0,0,1-4.12,1.8A4.07,4.07,0,0,1,457.13,40.34Zm6.56-3.56a.12.12,0,0,0,.13-.13,3.68,3.68,0,0,0-.16-1.19,2.6,2.6,0,0,0-4.84,0,3.71,3.71,0,0,0-.15,1.19.12.12,0,0,0,.13.13Z"/><path d="M468,43a.21.21,0,0,1-.22-.22V32.64a.21.21,0,0,1,.22-.22h1.41a.21.21,0,0,1,.22.22v1.08h0a2.93,2.93,0,0,1,2.79-1.54,3.26,3.26,0,0,1,2.16.79c.11.11.13.2,0,.31l-.81,1.08a.2.2,0,0,1-.31,0,2.93,2.93,0,0,0-1.63-.5c-1.6,0-2.26,1.25-2.26,3.08v5.76a.21.21,0,0,1-.22.22Z"/><path d="M476.16,43a.2.2,0,0,1-.22-.22V32.64a.2.2,0,0,1,.22-.22h1.41a.21.21,0,0,1,.22.22v1.08h0a2.93,2.93,0,0,1,2.79-1.54,3.26,3.26,0,0,1,2.16.79c.11.11.13.2,0,.31L482,34.36a.2.2,0,0,1-.31,0,2.93,2.93,0,0,0-1.63-.5c-1.6,0-2.26,1.25-2.26,3.08v5.76a.21.21,0,0,1-.22.22Z"/><path d="M489.93,43a.21.21,0,0,1-.22-.22v-.92h0a3.47,3.47,0,0,1-3.13,1.38c-2,0-3.54-1-3.54-3.16s1.54-3.26,4.12-3.26h2.39a.12.12,0,0,0,.14-.13v-.77c0-1.46-.58-2.07-2.53-2.07a4.13,4.13,0,0,0-2.56.75.19.19,0,0,1-.31,0l-.59-1a.23.23,0,0,1,.05-.31,5.87,5.87,0,0,1,3.58-1c3,0,4.14,1,4.14,3.59v7a.21.21,0,0,1-.22.22Zm-.26-3.41V38.39a.13.13,0,0,0-.14-.14h-2.11c-1.82,0-2.62.53-2.62,1.72s.8,1.65,2.2,1.65C488.65,41.62,489.67,40.85,489.67,39.55Z"/><path d="M507.55,43a.21.21,0,0,1-.22-.22V36.58c0-1.69-.77-2.68-2.35-2.68a2.37,2.37,0,0,0-2.42,2.57v6.27a.21.21,0,0,1-.22.22h-1.41a.21.21,0,0,1-.22-.22V36.58c0-1.69-.77-2.68-2.35-2.68a2.36,2.36,0,0,0-2.42,2.57v6.27a.21.21,0,0,1-.22.22h-1.41a.2.2,0,0,1-.22-.22V32.64a.2.2,0,0,1,.22-.22h1.41a.21.21,0,0,1,.22.22v1h0a3.73,3.73,0,0,1,6,.22h0a3.92,3.92,0,0,1,3.41-1.65c2.44,0,3.76,1.56,3.76,4v6.6A.21.21,0,0,1,509,43Z"/><path d="M512,30.05a.21.21,0,0,1-.22-.22V28.22A.21.21,0,0,1,512,28h1.5a.21.21,0,0,1,.22.22v1.61a.21.21,0,0,1-.22.22ZM512,43a.2.2,0,0,1-.22-.22V32.64a.2.2,0,0,1,.22-.22h1.4a.2.2,0,0,1,.22.22v10.1a.2.2,0,0,1-.22.22Z"/><path d="M516.09,40.34a8.2,8.2,0,0,1-.36-2.66,8.17,8.17,0,0,1,.33-2.66,4.44,4.44,0,0,1,8.28,0,9.18,9.18,0,0,1,.33,3,.21.21,0,0,1-.24.22h-6.67c-.09,0-.13,0-.13.14a3.93,3.93,0,0,0,.17,1.27,2.61,2.61,0,0,0,2.66,1.83,3.44,3.44,0,0,0,2.71-1.17.22.22,0,0,1,.33,0l.9.81a.21.21,0,0,1,0,.31,5.13,5.13,0,0,1-4.12,1.8A4.07,4.07,0,0,1,516.09,40.34Zm6.55-3.56a.12.12,0,0,0,.13-.13,3.71,3.71,0,0,0-.15-1.19,2.6,2.6,0,0,0-4.84,0,3.71,3.71,0,0,0-.15,1.19.12.12,0,0,0,.13.13Z"/><path d="M533.6,43a.21.21,0,0,1-.22-.22V36.58c0-1.69-.77-2.68-2.36-2.68a2.36,2.36,0,0,0-2.42,2.57v6.27a.2.2,0,0,1-.22.22H527a.2.2,0,0,1-.22-.22V32.64a.2.2,0,0,1,.22-.22h1.4a.2.2,0,0,1,.22.22v1h0a3.32,3.32,0,0,1,2.94-1.43c2.29,0,3.66,1.56,3.66,4v6.6A.21.21,0,0,1,535,43Z"/><path d="M540.9,43.07c-2,0-2.84-.92-2.84-3v-6c0-.09,0-.13-.13-.13h-.88a.21.21,0,0,1-.22-.22V32.64a.21.21,0,0,1,.22-.22h.88c.09,0,.13,0,.13-.13v-3a.21.21,0,0,1,.22-.22h1.41a.21.21,0,0,1,.22.22v3a.12.12,0,0,0,.13.13h1.68a.21.21,0,0,1,.22.22V33.7a.21.21,0,0,1-.22.22H540a.12.12,0,0,0-.13.13v6c0,1.06.4,1.35,1.34,1.35h.47a.2.2,0,0,1,.22.22v1.27a.21.21,0,0,1-.22.22Z"/><path d="M550.3,43a.2.2,0,0,1-.22-.22v-.92h0a3.44,3.44,0,0,1-3.12,1.38c-2,0-3.54-1-3.54-3.16s1.54-3.26,4.11-3.26h2.4a.12.12,0,0,0,.13-.13v-.77c0-1.46-.57-2.07-2.53-2.07a4.09,4.09,0,0,0-2.55.75.19.19,0,0,1-.31,0l-.59-1a.23.23,0,0,1,0-.31,5.9,5.9,0,0,1,3.59-1c3,0,4.13,1,4.13,3.59v7a.2.2,0,0,1-.22.22ZM550,39.55V38.39c0-.09,0-.14-.13-.14h-2.11c-1.83,0-2.62.53-2.62,1.72s.79,1.65,2.2,1.65C549,41.62,550,40.85,550,39.55Z"/><path d="M553.73,41.62a.21.21,0,0,1,0-.31l.9-1a.23.23,0,0,1,.31,0,5.07,5.07,0,0,0,3.25,1.21c1.54,0,2.31-.66,2.31-1.6s-.39-1.3-2-1.48l-1.12-.11c-2.07-.22-3.15-1.25-3.15-3,0-2,1.43-3.21,3.92-3.21a6.3,6.3,0,0,1,3.74,1.17c.11.06.11.19,0,.3l-.75,1a.22.22,0,0,1-.31,0,5.44,5.44,0,0,0-2.83-.86c-1.32,0-2,.59-2,1.45s.51,1.28,2.07,1.43l1.1.11c2.14.2,3.17,1.28,3.17,3,0,2.07-1.5,3.45-4.25,3.45A6.52,6.52,0,0,1,553.73,41.62Z"/><path d="M14.79,71a.2.2,0,0,1-.22-.22V64.58c0-1.69-.77-2.68-2.36-2.68a2.37,2.37,0,0,0-2.42,2.57v6.27a.21.21,0,0,1-.22.22H8.16a.21.21,0,0,1-.22-.22V64.58c0-1.69-.77-2.68-2.35-2.68a2.36,2.36,0,0,0-2.42,2.57v6.27A.21.21,0,0,1,3,71H1.54a.21.21,0,0,1-.22-.22V60.64a.21.21,0,0,1,.22-.22H3a.21.21,0,0,1,.22.22v1h0a3.35,3.35,0,0,1,2.95-1.43,3.3,3.3,0,0,1,3.08,1.65h0a3.94,3.94,0,0,1,3.41-1.65c2.44,0,3.76,1.56,3.76,4v6.6a.2.2,0,0,1-.22.22Z"/><path d="M18.74,68.34a10.58,10.58,0,0,1,0-5.32,4.08,4.08,0,0,1,4.14-2.84A4.09,4.09,0,0,1,27,63a9.18,9.18,0,0,1,.33,3c0,.14-.09.22-.25.22H20.42a.13.13,0,0,0-.14.14,3.9,3.9,0,0,0,.18,1.27,2.6,2.6,0,0,0,2.66,1.83,3.44,3.44,0,0,0,2.71-1.17.22.22,0,0,1,.33,0l.9.81a.2.2,0,0,1,0,.31A5.09,5.09,0,0,1,23,71.2,4.08,4.08,0,0,1,18.74,68.34Zm6.56-3.56a.12.12,0,0,0,.13-.13,3.71,3.71,0,0,0-.15-1.19,2.37,2.37,0,0,0-2.42-1.65,2.37,2.37,0,0,0-2.42,1.65,3.68,3.68,0,0,0-.16,1.19.12.12,0,0,0,.14.13Z"/><path d="M29.11,63a4.07,4.07,0,0,1,4.15-2.84A4.22,4.22,0,0,1,36.87,62c.07.11.07.2-.06.31l-1,.79a.2.2,0,0,1-.31,0,2.58,2.58,0,0,0-2.27-1.14,2.28,2.28,0,0,0-2.35,1.65,6.89,6.89,0,0,0-.24,2.13,7,7,0,0,0,.24,2.16,2.28,2.28,0,0,0,2.35,1.65,2.59,2.59,0,0,0,2.27-1.15.2.2,0,0,1,.31,0l1,.79c.13.11.13.2.06.31a4.22,4.22,0,0,1-3.61,1.78,4.07,4.07,0,0,1-4.15-2.83,11,11,0,0,1,0-5.35Z"/><path d="M45,71a.21.21,0,0,1-.22-.22v-.92h0a3.45,3.45,0,0,1-3.12,1.38c-2,0-3.54-1-3.54-3.16s1.54-3.26,4.11-3.26h2.4a.12.12,0,0,0,.13-.13v-.77c0-1.46-.57-2.07-2.53-2.07a4.07,4.07,0,0,0-2.55.75.19.19,0,0,1-.31,0l-.59-1a.23.23,0,0,1,0-.31,5.88,5.88,0,0,1,3.59-1c3,0,4.13,1,4.13,3.59v7a.21.21,0,0,1-.22.22Zm-.26-3.41V66.39c0-.09,0-.14-.13-.14H42.53c-1.83,0-2.62.53-2.62,1.72s.79,1.65,2.2,1.65C43.76,69.62,44.77,68.85,44.77,67.55Zm-3-8.84c-.13,0-.2-.09-.13-.22l1.67-2.71a.4.4,0,0,1,.37-.22h1.46a.13.13,0,0,1,.11.22l-2,2.71a.44.44,0,0,1-.42.22Z"/><path d="M56,71a.21.21,0,0,1-.23-.22V64.58c0-1.69-.77-2.68-2.35-2.68A2.36,2.36,0,0,0,51,64.47v6.27a.21.21,0,0,1-.22.22H49.41a.21.21,0,0,1-.22-.22V60.64a.21.21,0,0,1,.22-.22h1.41a.21.21,0,0,1,.22.22v1h0A3.35,3.35,0,0,1,54,60.18c2.29,0,3.65,1.56,3.65,4v6.6a.2.2,0,0,1-.22.22Z"/><path d="M60.46,58.05a.2.2,0,0,1-.22-.22V56.22a.2.2,0,0,1,.22-.22H62a.21.21,0,0,1,.22.22v1.61a.21.21,0,0,1-.22.22ZM60.5,71a.21.21,0,0,1-.22-.22V60.64a.21.21,0,0,1,.22-.22h1.41a.21.21,0,0,1,.22.22v10.1a.21.21,0,0,1-.22.22Z"/><path d="M64.55,63a4.07,4.07,0,0,1,4.16-2.84A4.22,4.22,0,0,1,72.31,62c.07.11.07.2-.06.31l-1,.79A.2.2,0,0,1,71,63a2.58,2.58,0,0,0-2.26-1.14,2.29,2.29,0,0,0-2.36,1.65,7.21,7.21,0,0,0-.24,2.13,7.3,7.3,0,0,0,.24,2.16,2.29,2.29,0,0,0,2.36,1.65A2.59,2.59,0,0,0,71,68.34a.2.2,0,0,1,.31,0l1,.79c.13.11.13.2.06.31a4.22,4.22,0,0,1-3.6,1.78,4.08,4.08,0,0,1-4.16-2.83,11,11,0,0,1,0-5.35Z"/><path d="M80.48,71a.2.2,0,0,1-.22-.22v-.92h0a3.44,3.44,0,0,1-3.12,1.38c-2,0-3.54-1-3.54-3.16s1.54-3.26,4.11-3.26h2.4a.12.12,0,0,0,.13-.13v-.77c0-1.46-.57-2.07-2.53-2.07a4.09,4.09,0,0,0-2.55.75.19.19,0,0,1-.31,0l-.59-1a.23.23,0,0,1,0-.31,5.88,5.88,0,0,1,3.59-1c3,0,4.13,1,4.13,3.59v7a.2.2,0,0,1-.22.22Zm-.27-3.41V66.39c0-.09,0-.14-.13-.14H78c-1.83,0-2.62.53-2.62,1.72s.79,1.65,2.2,1.65C79.2,69.62,80.21,68.85,80.21,67.55Z"/><path d="M83.91,69.62a.21.21,0,0,1,0-.31l.9-1a.23.23,0,0,1,.31,0,5.07,5.07,0,0,0,3.25,1.21c1.54,0,2.31-.66,2.31-1.6s-.39-1.3-2-1.48l-1.12-.11c-2.07-.22-3.15-1.25-3.15-3,0-2,1.43-3.21,3.92-3.21A6.3,6.3,0,0,1,92,61.35c.11.06.11.19,0,.3l-.75,1a.22.22,0,0,1-.31,0,5.44,5.44,0,0,0-2.83-.86c-1.33,0-2,.59-2,1.45s.51,1.28,2.07,1.43l1.1.11c2.14.2,3.17,1.28,3.17,3,0,2.07-1.5,3.45-4.25,3.45A6.52,6.52,0,0,1,83.91,69.62Z"/><path d="M98.65,68.37a7.75,7.75,0,0,1-.36-2.69A7.6,7.6,0,0,1,98.65,63,4.46,4.46,0,0,1,107,63a7.6,7.6,0,0,1,.36,2.66,7.75,7.75,0,0,1-.36,2.69,4.47,4.47,0,0,1-8.31,0Zm6.53-.53a6.82,6.82,0,0,0,.24-2.16,6.61,6.61,0,0,0-.24-2.13,2.53,2.53,0,0,0-4.75,0,6.61,6.61,0,0,0-.24,2.13,6.82,6.82,0,0,0,.24,2.16,2.53,2.53,0,0,0,4.75,0Z"/><path d="M113.08,69.62a.21.21,0,0,1,0-.31l.9-1a.23.23,0,0,1,.31,0,5.07,5.07,0,0,0,3.25,1.21c1.54,0,2.31-.66,2.31-1.6s-.39-1.3-2-1.48l-1.12-.11c-2.07-.22-3.15-1.25-3.15-3,0-2,1.43-3.21,3.92-3.21a6.3,6.3,0,0,1,3.74,1.17c.11.06.11.19,0,.3l-.75,1a.22.22,0,0,1-.31,0,5.44,5.44,0,0,0-2.83-.86c-1.32,0-2,.59-2,1.45s.51,1.28,2.07,1.43l1.1.11c2.14.2,3.17,1.28,3.17,3,0,2.07-1.5,3.45-4.25,3.45A6.54,6.54,0,0,1,113.08,69.62Z"/><path d="M123.42,68.37a8,8,0,0,1-.35-2.69,7.88,7.88,0,0,1,.35-2.66,4.46,4.46,0,0,1,8.31,0,7.6,7.6,0,0,1,.36,2.66,7.75,7.75,0,0,1-.36,2.69,4.47,4.47,0,0,1-8.31,0Zm6.53-.53a6.82,6.82,0,0,0,.24-2.16,6.61,6.61,0,0,0-.24-2.13,2.53,2.53,0,0,0-4.75,0,6.61,6.61,0,0,0-.24,2.13,6.82,6.82,0,0,0,.24,2.16,2.53,2.53,0,0,0,4.75,0Z"/><path d="M136.71,71.07c-1.85,0-2.58-.88-2.58-2.77V56.22a.21.21,0,0,1,.22-.22h1.41a.21.21,0,0,1,.22.22v12c0,.88.33,1.17,1.06,1.17h.41a.2.2,0,0,1,.22.22v1.27a.2.2,0,0,1-.22.22Z"/><path d="M139.56,58.05a.21.21,0,0,1-.22-.22V56.22a.21.21,0,0,1,.22-.22h1.5a.21.21,0,0,1,.22.22v1.61a.21.21,0,0,1-.22.22ZM139.61,71a.21.21,0,0,1-.22-.22V60.64a.21.21,0,0,1,.22-.22H141a.21.21,0,0,1,.22.22v10.1A.21.21,0,0,1,141,71Z"/><path d="M143.66,63a4.07,4.07,0,0,1,4.15-2.84A4.22,4.22,0,0,1,151.42,62c.07.11.07.2-.06.31l-1,.79a.2.2,0,0,1-.31,0,2.58,2.58,0,0,0-2.27-1.14,2.28,2.28,0,0,0-2.35,1.65,6.89,6.89,0,0,0-.24,2.13,7,7,0,0,0,.24,2.16,2.28,2.28,0,0,0,2.35,1.65,2.59,2.59,0,0,0,2.27-1.15.2.2,0,0,1,.31,0l1,.79c.13.11.13.2.06.31a4.22,4.22,0,0,1-3.61,1.78,4.07,4.07,0,0,1-4.15-2.83,11,11,0,0,1,0-5.35Z"/><path d="M153.64,58.05a.21.21,0,0,1-.22-.22V56.22a.21.21,0,0,1,.22-.22h1.5a.21.21,0,0,1,.22.22v1.61a.21.21,0,0,1-.22.22ZM153.69,71a.21.21,0,0,1-.22-.22V60.64a.21.21,0,0,1,.22-.22h1.41a.21.21,0,0,1,.22.22v10.1a.21.21,0,0,1-.22.22Z"/><path d="M161.1,71.07c-2,0-2.84-.92-2.84-3v-6c0-.09,0-.13-.13-.13h-.88a.21.21,0,0,1-.22-.22V60.64a.21.21,0,0,1,.22-.22h.88c.09,0,.13,0,.13-.13v-3a.21.21,0,0,1,.22-.22h1.41a.21.21,0,0,1,.22.22v3a.12.12,0,0,0,.13.13h1.68a.21.21,0,0,1,.22.22V61.7a.21.21,0,0,1-.22.22h-1.68a.12.12,0,0,0-.13.13v6c0,1.06.4,1.35,1.34,1.35h.47a.2.2,0,0,1,.22.22v1.27a.21.21,0,0,1-.22.22Z"/><path d="M163.83,68.34a10.58,10.58,0,0,1,0-5.32,4.43,4.43,0,0,1,8.27,0,9.18,9.18,0,0,1,.33,3,.21.21,0,0,1-.24.22H165.5c-.09,0-.13,0-.13.14a3.9,3.9,0,0,0,.18,1.27,2.6,2.6,0,0,0,2.66,1.83,3.43,3.43,0,0,0,2.7-1.17.22.22,0,0,1,.33,0l.91.81a.2.2,0,0,1,0,.31,5.13,5.13,0,0,1-4.12,1.8A4.07,4.07,0,0,1,163.83,68.34Zm6.56-3.56a.12.12,0,0,0,.13-.13,3.68,3.68,0,0,0-.16-1.19,2.6,2.6,0,0,0-4.84,0,3.71,3.71,0,0,0-.15,1.19.12.12,0,0,0,.13.13Z"/><path d="M185.28,71a.21.21,0,0,1-.22-.22v-.92h0a3.47,3.47,0,0,1-3.13,1.38c-2,0-3.54-1-3.54-3.16s1.54-3.26,4.12-3.26h2.39a.12.12,0,0,0,.14-.13v-.77c0-1.46-.58-2.07-2.53-2.07a4.13,4.13,0,0,0-2.56.75c-.11.09-.24.09-.3,0l-.6-1a.23.23,0,0,1,.05-.31,5.87,5.87,0,0,1,3.58-1c3,0,4.14,1,4.14,3.59v7a.21.21,0,0,1-.22.22ZM185,67.55V66.39a.13.13,0,0,0-.14-.14h-2.11c-1.82,0-2.62.53-2.62,1.72s.8,1.65,2.2,1.65C184,69.62,185,68.85,185,67.55Z"/><path d="M189.44,74.92a.21.21,0,0,1-.22-.22V73.43a.2.2,0,0,1,.22-.22h.39c.86,0,1.32-.38,1.79-1.59l.35-1-3.87-10c0-.13,0-.22.17-.22h1.54a.27.27,0,0,1,.27.22l2.77,7.62h0l2.66-7.62a.27.27,0,0,1,.27-.22h1.49c.14,0,.22.09.18.22l-4.16,11.14c-.92,2.48-1.74,3.14-3.32,3.14Z"/><path d="M205.59,71a.2.2,0,0,1-.22-.22v-1h0a3.2,3.2,0,0,1-2.88,1.45c-2.31,0-3.65-1.58-3.65-4V60.64a.21.21,0,0,1,.22-.22h1.41a.21.21,0,0,1,.22.22v6.14c0,1.72.77,2.71,2.33,2.71a2.34,2.34,0,0,0,2.38-2.6V60.64a.2.2,0,0,1,.22-.22H207a.2.2,0,0,1,.22.22v10.1A.2.2,0,0,1,207,71Z"/><path d="M216.54,71a.21.21,0,0,1-.22-.22v-1h0a3.2,3.2,0,0,1-3,1.47,3.47,3.47,0,0,1-3.63-2.53,8.62,8.62,0,0,1-.38-3,8.61,8.61,0,0,1,.38-3,3.48,3.48,0,0,1,3.63-2.53,3.21,3.21,0,0,1,3,1.45h0V56.22a.21.21,0,0,1,.22-.22H218a.21.21,0,0,1,.22.22V70.74A.21.21,0,0,1,218,71Zm-.46-3.08a6.63,6.63,0,0,0,.24-2.2,6.79,6.79,0,0,0-.24-2.2,2.49,2.49,0,0,0-4.64,0,7.3,7.3,0,0,0-.25,2.2,7.14,7.14,0,0,0,.25,2.2,2.48,2.48,0,0,0,4.64,0Z"/><path d="M227.28,71a.21.21,0,0,1-.22-.22v-.92h0a3.47,3.47,0,0,1-3.13,1.38c-2,0-3.54-1-3.54-3.16s1.54-3.26,4.11-3.26h2.4a.12.12,0,0,0,.13-.13v-.77c0-1.46-.57-2.07-2.53-2.07a4.09,4.09,0,0,0-2.55.75.19.19,0,0,1-.31,0l-.59-1a.23.23,0,0,1,0-.31,5.9,5.9,0,0,1,3.59-1c3,0,4.14,1,4.14,3.59v7a.21.21,0,0,1-.22.22ZM227,67.55V66.39c0-.09,0-.14-.13-.14h-2.11c-1.83,0-2.62.53-2.62,1.72s.79,1.65,2.2,1.65C226,69.62,227,68.85,227,67.55Z"/><path d="M231.17,68.85a.21.21,0,0,1,.22-.22h1.67a.21.21,0,0,1,.22.22v1.89a.21.21,0,0,1-.22.22h-1.67a.21.21,0,0,1-.22-.22Z"/></g></g></svg>