<svg xmlns="http://www.w3.org/2000/svg" viewBox="0 0 595.91 47.17"><title>6b</title><g id="Capa_2" data-name="Capa 2"><g id="respuestas_contorno" data-name="respuestas contorno"><path d="M5.21.22A.26.26,0,0,1,5.47,0H6.9a.3.3,0,0,1,.29.22l5.12,14.52a.15.15,0,0,1-.15.22H10.62a.27.27,0,0,1-.29-.22L9.19,11.49h-6L2,14.74a.28.28,0,0,1-.28.22H.17A.16.16,0,0,1,0,14.74ZM8.55,9.68,6.2,2.88h0L3.78,9.68Z"/><path d="M20.17,15a.2.2,0,0,1-.22-.22V8.58c0-1.69-.77-2.68-2.36-2.68a2.36,2.36,0,0,0-2.42,2.57v6.27A.21.21,0,0,1,15,15H13.54a.21.21,0,0,1-.22-.22V4.64a.21.21,0,0,1,.22-.22H15a.21.21,0,0,1,.22.22v1h0a3.35,3.35,0,0,1,3-1.43c2.29,0,3.66,1.56,3.66,4v6.6a.21.21,0,0,1-.22.22Z"/><path d="M30.35,15a.21.21,0,0,1-.22-.22v-.92h0A3.45,3.45,0,0,1,27,15.2c-2,0-3.55-1-3.55-3.16S25,8.78,27.56,8.78H30a.12.12,0,0,0,.13-.13V7.88c0-1.45-.57-2.07-2.53-2.07A4.07,4.07,0,0,0,25,6.56c-.11.09-.25.09-.31,0l-.6-1a.24.24,0,0,1,0-.31,5.87,5.87,0,0,1,3.58-1c3,0,4.14,1,4.14,3.59v7a.21.21,0,0,1-.22.22Zm-.26-3.41V10.39a.12.12,0,0,0-.13-.14H27.84c-1.82,0-2.61.53-2.61,1.72s.79,1.65,2.2,1.65C29.08,13.62,30.09,12.85,30.09,11.55Z"/><path d="M36.6,15.07c-1.85,0-2.57-.88-2.57-2.77V.22A.2.2,0,0,1,34.25,0h1.4a.2.2,0,0,1,.22.22v12c0,.88.33,1.17,1.06,1.17h.42a.2.2,0,0,1,.22.22v1.27a.21.21,0,0,1-.22.22Z"/><path d="M39,2.05a.21.21,0,0,1-.22-.22V.22A.21.21,0,0,1,39,0h1.5a.21.21,0,0,1,.22.22V1.83a.21.21,0,0,1-.22.22Zm0,12.91a.21.21,0,0,1-.22-.22V4.64a.21.21,0,0,1,.22-.22h1.41a.21.21,0,0,1,.22.22v10.1a.21.21,0,0,1-.22.22Z"/><path d="M42.67,7a4.08,4.08,0,0,1,4.16-2.84A4.22,4.22,0,0,1,50.44,6a.22.22,0,0,1-.07.31l-1,.79a.19.19,0,0,1-.3,0A2.59,2.59,0,0,0,46.83,5.9a2.3,2.3,0,0,0-2.36,1.65,7.21,7.21,0,0,0-.24,2.13,7.3,7.3,0,0,0,.24,2.16,2.3,2.3,0,0,0,2.36,1.65,2.6,2.6,0,0,0,2.27-1.15.19.19,0,0,1,.3,0l1,.79a.22.22,0,0,1,.07.31,4.22,4.22,0,0,1-3.61,1.78,4.09,4.09,0,0,1-4.16-2.83,9.08,9.08,0,0,1-.33-2.69A9,9,0,0,1,42.67,7Z"/><path d="M51.49,12.34a8.25,8.25,0,0,1-.35-2.66A8.17,8.17,0,0,1,51.47,7a4.43,4.43,0,0,1,8.27,0,9.18,9.18,0,0,1,.33,3c0,.14-.08.22-.24.22H53.17a.13.13,0,0,0-.14.14,3.9,3.9,0,0,0,.18,1.27,2.6,2.6,0,0,0,2.66,1.83,3.44,3.44,0,0,0,2.71-1.17.22.22,0,0,1,.33,0l.9.81a.2.2,0,0,1,0,.31,5.09,5.09,0,0,1-4.11,1.8A4.08,4.08,0,0,1,51.49,12.34Zm6.56-3.56c.09,0,.13,0,.13-.13A3.71,3.71,0,0,0,58,7.46a2.6,2.6,0,0,0-4.84,0A3.68,3.68,0,0,0,53,8.65c0,.09,0,.13.14.13Z"/><path d="M65.4,12.34A8.2,8.2,0,0,1,65,9.68,8.17,8.17,0,0,1,65.37,7a4.44,4.44,0,0,1,8.28,0A9.18,9.18,0,0,1,74,10a.21.21,0,0,1-.24.22H67.07c-.09,0-.13.05-.13.14a3.93,3.93,0,0,0,.17,1.27,2.62,2.62,0,0,0,2.67,1.83,3.43,3.43,0,0,0,2.7-1.17.22.22,0,0,1,.33,0l.9.81a.21.21,0,0,1,0,.31,5.13,5.13,0,0,1-4.12,1.8A4.07,4.07,0,0,1,65.4,12.34ZM72,8.78c.09,0,.14,0,.14-.13a3.68,3.68,0,0,0-.16-1.19,2.6,2.6,0,0,0-4.84,0,3.71,3.71,0,0,0-.15,1.19c0,.09,0,.13.13.13Z"/><path d="M78.16,15.07c-1.85,0-2.58-.88-2.58-2.77V.22A.21.21,0,0,1,75.8,0h1.41a.21.21,0,0,1,.22.22v12c0,.88.33,1.17,1.06,1.17h.41a.2.2,0,0,1,.22.22v1.27a.2.2,0,0,1-.22.22Z"/><path d="M84.58,18.92a.21.21,0,0,1-.22-.22V4.64a.21.21,0,0,1,.22-.22H86a.21.21,0,0,1,.22.22v1h0a3.21,3.21,0,0,1,3-1.45,3.48,3.48,0,0,1,3.63,2.53,8.61,8.61,0,0,1,.38,3,8.62,8.62,0,0,1-.38,3,3.47,3.47,0,0,1-3.63,2.53,3.2,3.2,0,0,1-3-1.47h0v5a.21.21,0,0,1-.22.22Zm6.51-7a7.18,7.18,0,0,0,.24-2.2,7.39,7.39,0,0,0-.24-2.2,2.49,2.49,0,0,0-4.64,0,6.79,6.79,0,0,0-.24,2.2,6.63,6.63,0,0,0,.24,2.2,2.48,2.48,0,0,0,4.64,0Z"/><path d="M94.59,12.34a8.25,8.25,0,0,1-.35-2.66A8.17,8.17,0,0,1,94.57,7a4.43,4.43,0,0,1,8.27,0,9.18,9.18,0,0,1,.33,3,.21.21,0,0,1-.24.22H96.26c-.09,0-.13.05-.13.14a3.9,3.9,0,0,0,.18,1.27A2.6,2.6,0,0,0,99,13.49a3.43,3.43,0,0,0,2.7-1.17.22.22,0,0,1,.33,0l.91.81a.2.2,0,0,1,0,.31,5.13,5.13,0,0,1-4.12,1.8A4.07,4.07,0,0,1,94.59,12.34Zm6.56-3.56a.12.12,0,0,0,.13-.13,3.68,3.68,0,0,0-.16-1.19,2.6,2.6,0,0,0-4.84,0,3.71,3.71,0,0,0-.15,1.19c0,.09,0,.13.13.13Z"/><path d="M104.09,13.62a.23.23,0,0,1,0-.31l.91-1a.22.22,0,0,1,.3,0,5.1,5.1,0,0,0,3.26,1.21c1.54,0,2.31-.66,2.31-1.6s-.4-1.3-2.05-1.48l-1.12-.11c-2.07-.22-3.14-1.25-3.14-3,0-2,1.43-3.21,3.91-3.21a6.3,6.3,0,0,1,3.74,1.17.21.21,0,0,1,.05.3l-.75.95a.22.22,0,0,1-.31.05,5.54,5.54,0,0,0-2.84-.86c-1.32,0-2,.59-2,1.45s.51,1.28,2.07,1.43l1.1.11c2.13.2,3.17,1.28,3.17,3,0,2.07-1.5,3.45-4.25,3.45A6.55,6.55,0,0,1,104.09,13.62Z"/><path d="M114,12.37a8,8,0,0,1-.35-2.69A7.92,7.92,0,0,1,114,7a4.47,4.47,0,0,1,8.32,0,7.92,7.92,0,0,1,.35,2.66,8,8,0,0,1-.35,2.69,4.47,4.47,0,0,1-8.32,0Zm6.54-.53a7.13,7.13,0,0,0,.24-2.16,6.91,6.91,0,0,0-.24-2.13,2.53,2.53,0,0,0-4.75,0,6.57,6.57,0,0,0-.25,2.13,6.77,6.77,0,0,0,.25,2.16,2.53,2.53,0,0,0,4.75,0Z"/><path d="M134.65,15a.21.21,0,0,1-.22-.22v-.92h0a3.46,3.46,0,0,1-3.13,1.38c-2,0-3.54-1-3.54-3.16s1.54-3.26,4.12-3.26h2.4a.12.12,0,0,0,.13-.13V7.88c0-1.45-.57-2.07-2.53-2.07a4.13,4.13,0,0,0-2.56.75c-.11.09-.24.09-.3,0l-.6-1a.24.24,0,0,1,0-.31,5.87,5.87,0,0,1,3.58-1c3,0,4.14,1,4.14,3.59v7A.21.21,0,0,1,136,15Zm-.26-3.41V10.39a.12.12,0,0,0-.13-.14h-2.12c-1.82,0-2.62.53-2.62,1.72s.8,1.65,2.2,1.65C133.38,13.62,134.39,12.85,134.39,11.55Z"/><path d="M155.79,15a.21.21,0,0,1-.22-.22V8.58c0-1.69-.77-2.68-2.35-2.68a2.37,2.37,0,0,0-2.42,2.57v6.27a.21.21,0,0,1-.22.22h-1.41a.21.21,0,0,1-.22-.22V8.58c0-1.69-.77-2.68-2.35-2.68a2.36,2.36,0,0,0-2.42,2.57v6.27A.21.21,0,0,1,144,15h-1.41a.21.21,0,0,1-.22-.22V4.64a.21.21,0,0,1,.22-.22H144a.21.21,0,0,1,.22.22v1h0a3.73,3.73,0,0,1,6,.22h0a3.93,3.93,0,0,1,3.41-1.65c2.44,0,3.76,1.56,3.76,4v6.6a.21.21,0,0,1-.22.22Z"/><path d="M166,15a.21.21,0,0,1-.22-.22v-.92h0a3.47,3.47,0,0,1-3.13,1.38c-2,0-3.54-1-3.54-3.16s1.54-3.26,4.11-3.26h2.4c.09,0,.13,0,.13-.13V7.88c0-1.45-.57-2.07-2.53-2.07a4.12,4.12,0,0,0-2.55.75.2.2,0,0,1-.31,0l-.59-1a.24.24,0,0,1,0-.31,5.92,5.92,0,0,1,3.59-1c3,0,4.14,1,4.14,3.59v7a.21.21,0,0,1-.22.22Zm-.27-3.41V10.39c0-.09,0-.14-.13-.14h-2.11c-1.83,0-2.62.53-2.62,1.72s.79,1.65,2.2,1.65C164.7,13.62,165.71,12.85,165.71,11.55Z"/><path d="M176.54,15a.21.21,0,0,1-.22-.22V8.58c0-1.69-.77-2.68-2.36-2.68a2.36,2.36,0,0,0-2.42,2.57v6.27a.2.2,0,0,1-.22.22h-1.4a.2.2,0,0,1-.22-.22V4.64a.2.2,0,0,1,.22-.22h1.4a.2.2,0,0,1,.22.22v1h0a3.32,3.32,0,0,1,2.94-1.43c2.29,0,3.66,1.56,3.66,4v6.6A.21.21,0,0,1,178,15Z"/><path d="M180.52,2.05a.21.21,0,0,1-.22-.22V.22a.21.21,0,0,1,.22-.22H182a.21.21,0,0,1,.22.22V1.83a.21.21,0,0,1-.22.22Zm0,12.91a.21.21,0,0,1-.22-.22V4.64a.21.21,0,0,1,.22-.22H182a.21.21,0,0,1,.22.22v10.1A.21.21,0,0,1,182,15Z"/><path d="M184.7,18.92a.21.21,0,0,1-.22-.22V4.64a.21.21,0,0,1,.22-.22h1.41a.21.21,0,0,1,.22.22v1h0a3.21,3.21,0,0,1,3-1.45A3.48,3.48,0,0,1,193,6.71a8.61,8.61,0,0,1,.38,3,8.62,8.62,0,0,1-.38,3,3.47,3.47,0,0,1-3.63,2.53,3.2,3.2,0,0,1-3-1.47h0v5a.21.21,0,0,1-.22.22Zm6.51-7a7.18,7.18,0,0,0,.24-2.2,7.39,7.39,0,0,0-.24-2.2,2.49,2.49,0,0,0-4.64,0,6.79,6.79,0,0,0-.24,2.2,6.63,6.63,0,0,0,.24,2.2,2.48,2.48,0,0,0,4.64,0Z"/><path d="M201.62,15a.21.21,0,0,1-.22-.22v-1h0a3.22,3.22,0,0,1-2.89,1.45c-2.31,0-3.65-1.58-3.65-4V4.64a.21.21,0,0,1,.22-.22h1.41a.21.21,0,0,1,.22.22v6.14c0,1.72.77,2.71,2.33,2.71a2.34,2.34,0,0,0,2.38-2.6V4.64a.21.21,0,0,1,.22-.22H203a.21.21,0,0,1,.22.22v10.1A.21.21,0,0,1,203,15Z"/><path d="M208.06,15.07c-1.84,0-2.57-.88-2.57-2.77V.22a.21.21,0,0,1,.22-.22h1.41a.21.21,0,0,1,.22.22v12c0,.88.33,1.17,1,1.17h.42a.2.2,0,0,1,.22.22v1.27a.21.21,0,0,1-.22.22Z"/><path d="M216.69,15a.21.21,0,0,1-.22-.22v-.92h0a3.47,3.47,0,0,1-3.13,1.38c-2,0-3.54-1-3.54-3.16s1.54-3.26,4.11-3.26h2.4c.09,0,.13,0,.13-.13V7.88c0-1.45-.57-2.07-2.53-2.07a4.12,4.12,0,0,0-2.55.75.2.2,0,0,1-.31,0l-.59-1a.23.23,0,0,1,0-.31,5.92,5.92,0,0,1,3.59-1c3,0,4.14,1,4.14,3.59v7A.21.21,0,0,1,218,15Zm-.27-3.41V10.39c0-.09,0-.14-.13-.14h-2.11c-1.83,0-2.62.53-2.62,1.72s.79,1.65,2.2,1.65C215.41,13.62,216.42,12.85,216.42,11.55Z"/><path d="M220.63,15a.2.2,0,0,1-.22-.22V4.64a.2.2,0,0,1,.22-.22H222a.2.2,0,0,1,.22.22V5.72h0a2.93,2.93,0,0,1,2.79-1.54,3.26,3.26,0,0,1,2.16.79c.11.11.13.2,0,.31l-.81,1.08a.2.2,0,0,1-.31,0,3,3,0,0,0-1.63-.5c-1.61,0-2.27,1.25-2.27,3.08v5.76A.2.2,0,0,1,222,15Z"/><path d="M231.34,13.62a.21.21,0,0,1,0-.31l.9-1a.23.23,0,0,1,.31,0,5.07,5.07,0,0,0,3.26,1.21c1.54,0,2.31-.66,2.31-1.6s-.4-1.3-2.05-1.48L235,10.36c-2.07-.22-3.15-1.25-3.15-3,0-2,1.43-3.21,3.92-3.21a6.3,6.3,0,0,1,3.74,1.17c.11.06.11.19,0,.3l-.75.95a.21.21,0,0,1-.3.05,5.61,5.61,0,0,0-2.84-.86c-1.32,0-2,.59-2,1.45s.51,1.28,2.07,1.43l1.1.11c2.14.2,3.17,1.28,3.17,3,0,2.07-1.49,3.45-4.25,3.45A6.54,6.54,0,0,1,231.34,13.62Z"/><path d="M241.7,2.05a.21.21,0,0,1-.22-.22V.22A.21.21,0,0,1,241.7,0h1.5a.21.21,0,0,1,.22.22V1.83a.21.21,0,0,1-.22.22Zm0,12.91a.21.21,0,0,1-.22-.22V4.64a.21.21,0,0,1,.22-.22h1.41a.21.21,0,0,1,.22.22v10.1a.21.21,0,0,1-.22.22Z"/><path d="M248.89,13.62a.23.23,0,0,1,0-.31l.91-1a.22.22,0,0,1,.3,0,5.1,5.1,0,0,0,3.26,1.21c1.54,0,2.31-.66,2.31-1.6s-.4-1.3-2-1.48l-1.12-.11c-2.07-.22-3.14-1.25-3.14-3,0-2,1.43-3.21,3.91-3.21A6.3,6.3,0,0,1,257,5.35a.21.21,0,0,1,.05.3l-.75.95a.22.22,0,0,1-.31.05,5.54,5.54,0,0,0-2.84-.86c-1.32,0-2,.59-2,1.45s.51,1.28,2.07,1.43l1.1.11c2.13.2,3.17,1.28,3.17,3,0,2.07-1.5,3.45-4.25,3.45A6.55,6.55,0,0,1,248.89,13.62Z"/><path d="M259.26,2.05a.21.21,0,0,1-.23-.22V.22a.21.21,0,0,1,.23-.22h1.49a.21.21,0,0,1,.22.22V1.83a.21.21,0,0,1-.22.22Zm0,12.91a.21.21,0,0,1-.22-.22V4.64a.21.21,0,0,1,.22-.22h1.41a.21.21,0,0,1,.22.22v10.1a.21.21,0,0,1-.22.22Z"/><path d="M262.93,12.34a8.25,8.25,0,0,1-.35-2.66A8.17,8.17,0,0,1,262.91,7a4.43,4.43,0,0,1,8.27,0,9.18,9.18,0,0,1,.33,3,.21.21,0,0,1-.24.22H264.6c-.09,0-.13.05-.13.14a3.93,3.93,0,0,0,.17,1.27,2.62,2.62,0,0,0,2.67,1.83,3.43,3.43,0,0,0,2.7-1.17.22.22,0,0,1,.33,0l.91.81a.2.2,0,0,1,0,.31,5.13,5.13,0,0,1-4.12,1.8A4.07,4.07,0,0,1,262.93,12.34Zm6.56-3.56a.12.12,0,0,0,.13-.13,3.68,3.68,0,0,0-.16-1.19,2.6,2.6,0,0,0-4.84,0,3.71,3.71,0,0,0-.15,1.19c0,.09,0,.13.13.13Z"/><path d="M280,15a.21.21,0,0,1-.22-.22V8.58c0-1.69-.77-2.68-2.35-2.68A2.36,2.36,0,0,0,275,8.47v6.27a.21.21,0,0,1-.22.22h-1.41a.21.21,0,0,1-.22-.22V4.64a.21.21,0,0,1,.22-.22h1.41a.21.21,0,0,1,.22.22v1h0a3.34,3.34,0,0,1,3-1.43c2.29,0,3.65,1.56,3.65,4v6.6a.21.21,0,0,1-.22.22Z"/><path d="M286.86,15.07c-2,0-2.83-.92-2.83-3v-6c0-.09,0-.13-.14-.13H283a.21.21,0,0,1-.22-.22V4.64a.21.21,0,0,1,.22-.22h.88c.09,0,.14,0,.14-.13v-3a.2.2,0,0,1,.22-.22h1.4a.2.2,0,0,1,.22.22v3c0,.09.05.13.14.13h1.67a.21.21,0,0,1,.22.22V5.7a.21.21,0,0,1-.22.22H286c-.09,0-.14,0-.14.13v6c0,1.06.4,1.35,1.35,1.35h.46a.2.2,0,0,1,.22.22v1.27a.21.21,0,0,1-.22.22Z"/><path d="M289.15,12.34a8.25,8.25,0,0,1-.35-2.66A8.17,8.17,0,0,1,289.13,7a4.43,4.43,0,0,1,8.27,0,9.18,9.18,0,0,1,.33,3,.21.21,0,0,1-.24.22h-6.67a.12.12,0,0,0-.13.14,3.9,3.9,0,0,0,.18,1.27,2.6,2.6,0,0,0,2.66,1.83,3.47,3.47,0,0,0,2.71-1.17.22.22,0,0,1,.33,0l.9.81a.2.2,0,0,1,0,.31,5.1,5.1,0,0,1-4.11,1.8A4.07,4.07,0,0,1,289.15,12.34Zm6.56-3.56c.09,0,.13,0,.13-.13a3.71,3.71,0,0,0-.15-1.19,2.6,2.6,0,0,0-4.84,0,3.68,3.68,0,0,0-.16,1.19.12.12,0,0,0,.13.13Z"/><path d="M305.87,15.07c-1.85,0-2.57-.88-2.57-2.77V.22a.21.21,0,0,1,.22-.22h1.41a.21.21,0,0,1,.22.22v12c0,.88.33,1.17,1.05,1.17h.42a.2.2,0,0,1,.22.22v1.27a.21.21,0,0,1-.22.22Z"/><path d="M314.5,15a.2.2,0,0,1-.22-.22v-.92h0a3.44,3.44,0,0,1-3.12,1.38c-2,0-3.54-1-3.54-3.16s1.54-3.26,4.11-3.26h2.4c.09,0,.13,0,.13-.13V7.88c0-1.45-.57-2.07-2.53-2.07a4.09,4.09,0,0,0-2.55.75.2.2,0,0,1-.31,0l-.59-1a.23.23,0,0,1,0-.31,5.9,5.9,0,0,1,3.59-1c3,0,4.13,1,4.13,3.59v7a.2.2,0,0,1-.22.22Zm-.27-3.41V10.39c0-.09,0-.14-.13-.14H312c-1.83,0-2.62.53-2.62,1.72s.79,1.65,2.2,1.65C313.22,13.62,314.23,12.85,314.23,11.55Z"/><path d="M321.86,7A4.09,4.09,0,0,1,326,4.18,4.22,4.22,0,0,1,329.63,6c.07.11.07.2-.06.31l-1,.79a.2.2,0,0,1-.31,0A2.59,2.59,0,0,0,326,5.9a2.28,2.28,0,0,0-2.35,1.65,6.89,6.89,0,0,0-.24,2.13,7,7,0,0,0,.24,2.16A2.28,2.28,0,0,0,326,13.49a2.6,2.6,0,0,0,2.27-1.15.2.2,0,0,1,.31,0l1,.79c.13.11.13.2.06.31A4.22,4.22,0,0,1,326,15.2a4.09,4.09,0,0,1-4.16-2.83,9.43,9.43,0,0,1-.33-2.69A9.35,9.35,0,0,1,321.86,7Z"/><path d="M337.35,15a.21.21,0,0,1-.22-.22v-.92h0A3.45,3.45,0,0,1,334,15.2c-2,0-3.55-1-3.55-3.16s1.54-3.26,4.12-3.26H337c.09,0,.13,0,.13-.13V7.88c0-1.45-.57-2.07-2.53-2.07a4.07,4.07,0,0,0-2.55.75c-.11.09-.25.09-.31,0l-.6-1a.24.24,0,0,1,0-.31,5.88,5.88,0,0,1,3.59-1c3,0,4.13,1,4.13,3.59v7a.21.21,0,0,1-.22.22Zm-.26-3.41V10.39c0-.09,0-.14-.13-.14h-2.11c-1.83,0-2.62.53-2.62,1.72s.79,1.65,2.2,1.65C336.08,13.62,337.09,12.85,337.09,11.55Z"/><path d="M341.29,18.92a.21.21,0,0,1-.22-.22V4.64a.21.21,0,0,1,.22-.22h1.41a.21.21,0,0,1,.22.22v1h0a3.21,3.21,0,0,1,3-1.45,3.48,3.48,0,0,1,3.63,2.53,8.61,8.61,0,0,1,.38,3,8.62,8.62,0,0,1-.38,3,3.47,3.47,0,0,1-3.63,2.53,3.2,3.2,0,0,1-3-1.47h0v5a.21.21,0,0,1-.22.22Zm6.51-7a7.14,7.14,0,0,0,.25-2.2,7.35,7.35,0,0,0-.25-2.2,2.49,2.49,0,0,0-4.64,0,7.08,7.08,0,0,0-.24,2.2,6.92,6.92,0,0,0,.24,2.2,2.48,2.48,0,0,0,4.64,0Z"/><path d="M358,15a.21.21,0,0,1-.22-.22v-.92h0a3.47,3.47,0,0,1-3.13,1.38c-2,0-3.54-1-3.54-3.16s1.54-3.26,4.11-3.26h2.4c.09,0,.13,0,.13-.13V7.88c0-1.45-.57-2.07-2.53-2.07a4.09,4.09,0,0,0-2.55.75.2.2,0,0,1-.31,0l-.59-1a.23.23,0,0,1,0-.31,5.9,5.9,0,0,1,3.59-1c3,0,4.14,1,4.14,3.59v7a.21.21,0,0,1-.22.22Zm-.27-3.41V10.39c0-.09,0-.14-.13-.14h-2.11c-1.83,0-2.62.53-2.62,1.72s.79,1.65,2.2,1.65C356.69,13.62,357.7,12.85,357.7,11.55Z"/><path d="M361.38,7a4.07,4.07,0,0,1,4.15-2.84A4.22,4.22,0,0,1,369.14,6c.07.11.07.2-.06.31l-1,.79a.2.2,0,0,1-.31,0,2.58,2.58,0,0,0-2.27-1.14,2.28,2.28,0,0,0-2.35,1.65,6.89,6.89,0,0,0-.24,2.13,7,7,0,0,0,.24,2.16,2.28,2.28,0,0,0,2.35,1.65,2.59,2.59,0,0,0,2.27-1.15.2.2,0,0,1,.31,0l1,.79c.13.11.13.2.06.31a4.22,4.22,0,0,1-3.61,1.78,4.07,4.07,0,0,1-4.15-2.83,9.08,9.08,0,0,1-.33-2.69A9,9,0,0,1,361.38,7Z"/><path d="M370.92,2.05a.21.21,0,0,1-.22-.22V.22a.21.21,0,0,1,.22-.22h1.5a.21.21,0,0,1,.22.22V1.83a.21.21,0,0,1-.22.22ZM371,15a.21.21,0,0,1-.22-.22V4.64a.21.21,0,0,1,.22-.22h1.41a.21.21,0,0,1,.22.22v10.1a.21.21,0,0,1-.22.22Z"/><path d="M381.48,15a.21.21,0,0,1-.22-.22v-1h0a3.19,3.19,0,0,1-3,1.47,3.47,3.47,0,0,1-3.63-2.53,8.65,8.65,0,0,1-.37-3,8.63,8.63,0,0,1,.37-3,3.48,3.48,0,0,1,3.63-2.53,3.2,3.2,0,0,1,3,1.45h0V.22a.21.21,0,0,1,.22-.22h1.41a.21.21,0,0,1,.22.22V14.74a.21.21,0,0,1-.22.22ZM381,11.88a6.63,6.63,0,0,0,.24-2.2,6.79,6.79,0,0,0-.24-2.2,2.49,2.49,0,0,0-4.64,0,7.39,7.39,0,0,0-.24,2.2,7.18,7.18,0,0,0,.24,2.2,2.48,2.48,0,0,0,4.64,0Z"/><path d="M391.78,15a.21.21,0,0,1-.22-.22v-.92h0a3.47,3.47,0,0,1-3.13,1.38c-2,0-3.54-1-3.54-3.16s1.54-3.26,4.12-3.26h2.39c.09,0,.14,0,.14-.13V7.88c0-1.45-.58-2.07-2.53-2.07a4.13,4.13,0,0,0-2.56.75c-.11.09-.24.09-.3,0l-.6-1a.24.24,0,0,1,.05-.31,5.87,5.87,0,0,1,3.58-1c3,0,4.14,1,4.14,3.59v7a.21.21,0,0,1-.22.22Zm-.26-3.41V10.39a.13.13,0,0,0-.14-.14h-2.11c-1.82,0-2.62.53-2.62,1.72s.8,1.65,2.2,1.65C390.5,13.62,391.52,12.85,391.52,11.55Z"/><path d="M402.1,15a.21.21,0,0,1-.22-.22v-1h0a3.21,3.21,0,0,1-3,1.47,3.48,3.48,0,0,1-3.63-2.53,8.9,8.9,0,0,1-.37-3,8.89,8.89,0,0,1,.37-3,3.49,3.49,0,0,1,3.63-2.53,3.22,3.22,0,0,1,3,1.45h0V.22A.21.21,0,0,1,402.1,0h1.41a.21.21,0,0,1,.22.22V14.74a.21.21,0,0,1-.22.22Zm-.46-3.08a6.92,6.92,0,0,0,.24-2.2,7.08,7.08,0,0,0-.24-2.2,2.5,2.5,0,0,0-4.65,0,7.74,7.74,0,0,0-.24,2.2,7.51,7.51,0,0,0,.24,2.2,2.48,2.48,0,0,0,4.65,0Z"/><path d="M416.57,15a.21.21,0,0,1-.22-.22v-1h0a3.19,3.19,0,0,1-3,1.47,3.47,3.47,0,0,1-3.63-2.53,8.65,8.65,0,0,1-.37-3,8.63,8.63,0,0,1,.37-3,3.48,3.48,0,0,1,3.63-2.53,3.2,3.2,0,0,1,3,1.45h0V.22a.21.21,0,0,1,.22-.22H418a.21.21,0,0,1,.22.22V14.74A.21.21,0,0,1,418,15Zm-.46-3.08a6.63,6.63,0,0,0,.24-2.2,6.79,6.79,0,0,0-.24-2.2,2.49,2.49,0,0,0-4.64,0,7.39,7.39,0,0,0-.24,2.2,7.18,7.18,0,0,0,.24,2.2,2.48,2.48,0,0,0,4.64,0Z"/><path d="M420.2,12.34a8.25,8.25,0,0,1-.35-2.66A8.17,8.17,0,0,1,420.18,7a4.43,4.43,0,0,1,8.27,0,9.18,9.18,0,0,1,.33,3c0,.14-.08.22-.24.22h-6.66a.13.13,0,0,0-.14.14,3.9,3.9,0,0,0,.18,1.27,2.6,2.6,0,0,0,2.66,1.83,3.44,3.44,0,0,0,2.71-1.17.22.22,0,0,1,.33,0l.9.81a.2.2,0,0,1,0,.31,5.09,5.09,0,0,1-4.11,1.8A4.08,4.08,0,0,1,420.2,12.34Zm6.56-3.56c.09,0,.13,0,.13-.13a3.71,3.71,0,0,0-.15-1.19,2.6,2.6,0,0,0-4.84,0,3.68,3.68,0,0,0-.16,1.19c0,.09.05.13.14.13Z"/><path d="M434.61,15a.21.21,0,0,1-.22-.22V4.64a.21.21,0,0,1,.22-.22H436a.21.21,0,0,1,.22.22V5.72h0a3,3,0,0,1,2.8-1.54,3.24,3.24,0,0,1,2.15.79c.11.11.14.2.05.31l-.82,1.08a.19.19,0,0,1-.3,0,3.07,3.07,0,0,0-1.63-.5c-1.61,0-2.27,1.25-2.27,3.08v5.76A.21.21,0,0,1,436,15Z"/><path d="M441.41,12.34a8.25,8.25,0,0,1-.35-2.66A8.17,8.17,0,0,1,441.39,7a4.43,4.43,0,0,1,8.27,0,9.18,9.18,0,0,1,.33,3,.21.21,0,0,1-.24.22h-6.67c-.09,0-.13.05-.13.14a3.9,3.9,0,0,0,.18,1.27,2.6,2.6,0,0,0,2.66,1.83,3.47,3.47,0,0,0,2.71-1.17.22.22,0,0,1,.33,0l.9.81a.2.2,0,0,1,0,.31,5.12,5.12,0,0,1-4.11,1.8A4.07,4.07,0,0,1,441.41,12.34ZM448,8.78c.09,0,.13,0,.13-.13A3.71,3.71,0,0,0,448,7.46a2.61,2.61,0,0,0-4.85,0A3.71,3.71,0,0,0,443,8.65c0,.09,0,.13.13.13Z"/><path d="M458,15a.21.21,0,0,1-.22-.22v-.92h0a3.45,3.45,0,0,1-3.12,1.38c-2,0-3.55-1-3.55-3.16s1.54-3.26,4.12-3.26h2.4a.12.12,0,0,0,.13-.13V7.88c0-1.45-.57-2.07-2.53-2.07a4.13,4.13,0,0,0-2.56.75c-.11.09-.24.09-.3,0l-.6-1a.24.24,0,0,1,.05-.31,5.87,5.87,0,0,1,3.58-1c3,0,4.14,1,4.14,3.59v7a.21.21,0,0,1-.22.22Zm-.26-3.41V10.39a.12.12,0,0,0-.13-.14h-2.12c-1.82,0-2.62.53-2.62,1.72s.8,1.65,2.21,1.65C456.75,13.62,457.76,12.85,457.76,11.55Z"/><path d="M464.27,15.07c-1.85,0-2.58-.88-2.58-2.77V.22a.21.21,0,0,1,.22-.22h1.41a.21.21,0,0,1,.22.22v12c0,.88.33,1.17,1.06,1.17H465a.2.2,0,0,1,.22.22v1.27a.21.21,0,0,1-.22.22Z"/><path d="M466.69,2.05a.21.21,0,0,1-.22-.22V.22a.21.21,0,0,1,.22-.22h1.49a.2.2,0,0,1,.22.22V1.83a.2.2,0,0,1-.22.22Zm0,12.91a.21.21,0,0,1-.22-.22V4.64a.21.21,0,0,1,.22-.22h1.41a.21.21,0,0,1,.22.22v10.1a.21.21,0,0,1-.22.22Z"/><path d="M470.27,15a.21.21,0,0,1-.22-.22V13.58a.38.38,0,0,1,.09-.25l5.79-7.19v0h-5.37a.21.21,0,0,1-.22-.22V4.64a.21.21,0,0,1,.22-.22h7.35a.21.21,0,0,1,.22.22V5.88a.33.33,0,0,1-.09.24l-5.74,7.13v0h5.61a.21.21,0,0,1,.22.22v1.23a.21.21,0,0,1-.22.22Z"/><path d="M486.2,15a.21.21,0,0,1-.22-.22v-.92h0a3.45,3.45,0,0,1-3.12,1.38c-2,0-3.55-1-3.55-3.16s1.54-3.26,4.12-3.26h2.4a.12.12,0,0,0,.13-.13V7.88c0-1.45-.57-2.07-2.53-2.07a4.07,4.07,0,0,0-2.55.75c-.11.09-.25.09-.31,0l-.6-1a.24.24,0,0,1,.05-.31,5.87,5.87,0,0,1,3.58-1c3,0,4.14,1,4.14,3.59v7a.21.21,0,0,1-.22.22Zm-.26-3.41V10.39a.12.12,0,0,0-.13-.14h-2.12c-1.82,0-2.61.53-2.61,1.72s.79,1.65,2.2,1.65C484.93,13.62,485.94,12.85,485.94,11.55Z"/><path d="M490.14,15a.21.21,0,0,1-.22-.22V4.64a.21.21,0,0,1,.22-.22h1.41a.21.21,0,0,1,.22.22V5.72h0a2.94,2.94,0,0,1,2.79-1.54,3.26,3.26,0,0,1,2.16.79c.11.11.13.2,0,.31L496,6.36a.2.2,0,0,1-.31,0A3,3,0,0,0,494,5.9c-1.6,0-2.26,1.25-2.26,3.08v5.76a.21.21,0,0,1-.22.22Z"/><path d="M501.29,12.34a8.25,8.25,0,0,1-.35-2.66A8.17,8.17,0,0,1,501.27,7a4.43,4.43,0,0,1,8.27,0,9.18,9.18,0,0,1,.33,3c0,.14-.08.22-.24.22H503a.12.12,0,0,0-.13.14,3.9,3.9,0,0,0,.18,1.27,2.6,2.6,0,0,0,2.66,1.83,3.44,3.44,0,0,0,2.71-1.17.22.22,0,0,1,.33,0l.9.81a.2.2,0,0,1,0,.31,5.09,5.09,0,0,1-4.11,1.8A4.07,4.07,0,0,1,501.29,12.34Zm6.56-3.56c.09,0,.13,0,.13-.13a3.71,3.71,0,0,0-.15-1.19,2.6,2.6,0,0,0-4.84,0,3.68,3.68,0,0,0-.16,1.19.12.12,0,0,0,.13.13Z"/><path d="M514.05,15.07c-1.85,0-2.57-.88-2.57-2.77V.22A.21.21,0,0,1,511.7,0h1.41a.21.21,0,0,1,.22.22v12c0,.88.33,1.17,1,1.17h.42a.2.2,0,0,1,.22.22v1.27a.21.21,0,0,1-.22.22Z"/><path d="M523.31,15.07c-2,0-2.83-.92-2.83-3v-6c0-.09-.05-.13-.14-.13h-.88a.21.21,0,0,1-.22-.22V4.64a.21.21,0,0,1,.22-.22h.88c.09,0,.14,0,.14-.13v-3a.2.2,0,0,1,.22-.22h1.4a.2.2,0,0,1,.22.22v3c0,.09,0,.13.14.13h1.67a.21.21,0,0,1,.22.22V5.7a.21.21,0,0,1-.22.22h-1.67c-.09,0-.14,0-.14.13v6c0,1.06.4,1.35,1.35,1.35h.46a.2.2,0,0,1,.22.22v1.27a.21.21,0,0,1-.22.22Z"/><path d="M526.11,15a.21.21,0,0,1-.22-.22V4.64a.21.21,0,0,1,.22-.22h1.41a.21.21,0,0,1,.22.22V5.72h0a2.93,2.93,0,0,1,2.79-1.54,3.26,3.26,0,0,1,2.16.79c.11.11.13.2,0,.31l-.81,1.08a.2.2,0,0,1-.31,0A3,3,0,0,0,530,5.9c-1.6,0-2.26,1.25-2.26,3.08v5.76a.21.21,0,0,1-.22.22Z"/><path d="M539.44,15a.21.21,0,0,1-.22-.22v-.92h0a3.47,3.47,0,0,1-3.13,1.38c-2,0-3.54-1-3.54-3.16s1.54-3.26,4.12-3.26H539c.09,0,.14,0,.14-.13V7.88c0-1.45-.58-2.07-2.53-2.07a4.13,4.13,0,0,0-2.56.75c-.11.09-.24.09-.3,0l-.6-1a.24.24,0,0,1,0-.31,5.87,5.87,0,0,1,3.58-1c3,0,4.14,1,4.14,3.59v7a.21.21,0,0,1-.22.22Zm-.26-3.41V10.39a.13.13,0,0,0-.14-.14h-2.11c-1.82,0-2.62.53-2.62,1.72s.8,1.65,2.2,1.65C538.16,13.62,539.18,12.85,539.18,11.55Z"/><path d="M542.43,13.62a.21.21,0,0,1,0-.31l.9-1a.23.23,0,0,1,.31,0,5.07,5.07,0,0,0,3.26,1.21c1.54,0,2.31-.66,2.31-1.6s-.4-1.3-2.05-1.48L546,10.36c-2.07-.22-3.15-1.25-3.15-3,0-2,1.43-3.21,3.92-3.21a6.3,6.3,0,0,1,3.74,1.17c.11.06.11.19,0,.3l-.74.95a.22.22,0,0,1-.31.05,5.54,5.54,0,0,0-2.84-.86c-1.32,0-2,.59-2,1.45s.5,1.28,2.07,1.43l1.1.11c2.13.2,3.16,1.28,3.16,3,0,2.07-1.49,3.45-4.24,3.45A6.55,6.55,0,0,1,542.43,13.62Z"/><path d="M555.15,15.07c-1.85,0-2.58-.88-2.58-2.77V.22a.21.21,0,0,1,.22-.22h1.41a.21.21,0,0,1,.22.22v12c0,.88.33,1.17,1.06,1.17h.42a.2.2,0,0,1,.22.22v1.27a.21.21,0,0,1-.22.22Z"/><path d="M563.77,15a.21.21,0,0,1-.22-.22v-.92h0a3.45,3.45,0,0,1-3.12,1.38c-2,0-3.55-1-3.55-3.16S558.4,8.78,561,8.78h2.4a.12.12,0,0,0,.13-.13V7.88c0-1.45-.57-2.07-2.53-2.07a4.13,4.13,0,0,0-2.56.75c-.11.09-.24.09-.3,0l-.6-1a.24.24,0,0,1,.05-.31,5.87,5.87,0,0,1,3.58-1c3,0,4.14,1,4.14,3.59v7a.21.21,0,0,1-.22.22Zm-.26-3.41V10.39a.12.12,0,0,0-.13-.14h-2.12c-1.82,0-2.62.53-2.62,1.72s.8,1.65,2.21,1.65C562.5,13.62,563.51,12.85,563.51,11.55Z"/><path d="M574.09,15a.21.21,0,0,1-.22-.22v-1h0a3.2,3.2,0,0,1-3,1.47,3.48,3.48,0,0,1-3.64-2.53,8.9,8.9,0,0,1-.37-3,8.89,8.89,0,0,1,.37-3,3.49,3.49,0,0,1,3.64-2.53,3.21,3.21,0,0,1,3,1.45h0V.22a.21.21,0,0,1,.22-.22h1.41a.21.21,0,0,1,.22.22V14.74a.21.21,0,0,1-.22.22Zm-.46-3.08a6.92,6.92,0,0,0,.24-2.2,7.08,7.08,0,0,0-.24-2.2,2.5,2.5,0,0,0-4.65,0,7.74,7.74,0,0,0-.24,2.2,7.51,7.51,0,0,0,.24,2.2,2.48,2.48,0,0,0,4.65,0Z"/><path d="M577.72,12.37a8,8,0,0,1-.35-2.69A7.92,7.92,0,0,1,577.72,7,4.47,4.47,0,0,1,586,7a7.92,7.92,0,0,1,.35,2.66,8,8,0,0,1-.35,2.69,4.47,4.47,0,0,1-8.32,0Zm6.53-.53a6.77,6.77,0,0,0,.25-2.16,6.57,6.57,0,0,0-.25-2.13,2.53,2.53,0,0,0-4.75,0,6.91,6.91,0,0,0-.24,2.13,7.13,7.13,0,0,0,.24,2.16,2.53,2.53,0,0,0,4.75,0Z"/><path d="M587.31,13.62a.21.21,0,0,1,0-.31l.9-1a.23.23,0,0,1,.31,0,5.07,5.07,0,0,0,3.26,1.21c1.54,0,2.31-.66,2.31-1.6s-.4-1.3-2.05-1.48l-1.12-.11c-2.07-.22-3.15-1.25-3.15-3,0-2,1.43-3.21,3.92-3.21a6.3,6.3,0,0,1,3.74,1.17c.11.06.11.19,0,.3l-.75.95a.21.21,0,0,1-.3.05,5.57,5.57,0,0,0-2.84-.86c-1.32,0-2,.59-2,1.45s.5,1.28,2.06,1.43l1.1.11c2.14.2,3.17,1.28,3.17,3,0,2.07-1.49,3.45-4.24,3.45A6.55,6.55,0,0,1,587.31,13.62Z"/><path d="M7.89,43a.21.21,0,0,1-.22-.22v-1h0a3.2,3.2,0,0,1-3,1.47A3.47,3.47,0,0,1,1,40.67a8.62,8.62,0,0,1-.38-3,8.61,8.61,0,0,1,.38-3,3.48,3.48,0,0,1,3.63-2.53,3.21,3.21,0,0,1,3,1.45h0V28.22A.21.21,0,0,1,7.89,28H9.3a.21.21,0,0,1,.22.22V42.74A.21.21,0,0,1,9.3,43Zm-.46-3.08a6.92,6.92,0,0,0,.24-2.2,7.08,7.08,0,0,0-.24-2.2A2.24,2.24,0,0,0,5.1,33.9a2.23,2.23,0,0,0-2.31,1.58,7.35,7.35,0,0,0-.25,2.2,7.14,7.14,0,0,0,.25,2.2A2.25,2.25,0,0,0,5.1,41.49,2.26,2.26,0,0,0,7.43,39.88Z"/><path d="M11.52,40.34a8.25,8.25,0,0,1-.35-2.66A8.17,8.17,0,0,1,11.5,35a4.06,4.06,0,0,1,4.13-2.84A4.07,4.07,0,0,1,19.77,35a9.18,9.18,0,0,1,.33,3,.21.21,0,0,1-.24.22H13.19c-.09,0-.13,0-.13.14a3.9,3.9,0,0,0,.18,1.27,2.6,2.6,0,0,0,2.66,1.83,3.43,3.43,0,0,0,2.7-1.17c.12-.11.23-.13.33,0l.91.81a.2.2,0,0,1,0,.31,5.13,5.13,0,0,1-4.12,1.8A4.07,4.07,0,0,1,11.52,40.34Zm6.56-3.56a.12.12,0,0,0,.13-.13,4,4,0,0,0-.15-1.19,2.39,2.39,0,0,0-2.43-1.65,2.39,2.39,0,0,0-2.42,1.65,3.71,3.71,0,0,0-.15,1.19c0,.09,0,.13.13.13Z"/><path d="M28.24,43.07c-1.85,0-2.57-.88-2.57-2.77V28.22a.2.2,0,0,1,.22-.22h1.4a.2.2,0,0,1,.22.22v12c0,.88.33,1.17,1.06,1.17H29a.2.2,0,0,1,.22.22v1.27a.21.21,0,0,1-.22.22Z"/><path d="M36.86,43a.21.21,0,0,1-.22-.22v-.92h0A3.45,3.45,0,0,1,33.5,43.2c-2,0-3.54-1-3.54-3.16s1.54-3.26,4.11-3.26h2.4c.09,0,.13,0,.13-.13v-.77c0-1.45-.57-2.07-2.53-2.07a4.07,4.07,0,0,0-2.55.75.2.2,0,0,1-.31,0l-.59-1a.23.23,0,0,1,0-.31,5.88,5.88,0,0,1,3.59-1c3,0,4.13,1,4.13,3.59v7a.21.21,0,0,1-.22.22Zm-.26-3.41V38.39c0-.09,0-.14-.13-.14H34.36c-1.83,0-2.62.53-2.62,1.72s.79,1.65,2.2,1.65C35.59,41.62,36.6,40.85,36.6,39.55Z"/><path d="M44.23,35a4.09,4.09,0,0,1,4.16-2.84A4.22,4.22,0,0,1,52,34c.07.11.07.2-.07.31l-1,.79a.2.2,0,0,1-.31,0,2.59,2.59,0,0,0-2.27-1.14A2.28,2.28,0,0,0,46,35.55a6.89,6.89,0,0,0-.24,2.13A7,7,0,0,0,46,39.84a2.28,2.28,0,0,0,2.35,1.65,2.6,2.6,0,0,0,2.27-1.15.2.2,0,0,1,.31,0l1,.79c.14.11.14.2.07.31a4.22,4.22,0,0,1-3.61,1.78,4.09,4.09,0,0,1-4.16-2.83,9.08,9.08,0,0,1-.33-2.69A9,9,0,0,1,44.23,35Z"/><path d="M59.72,43a.21.21,0,0,1-.22-.22v-.92h0a3.45,3.45,0,0,1-3.12,1.38c-2,0-3.55-1-3.55-3.16s1.54-3.26,4.12-3.26h2.4a.12.12,0,0,0,.13-.13v-.77c0-1.45-.57-2.07-2.53-2.07a4.13,4.13,0,0,0-2.56.75c-.11.09-.24.09-.3,0l-.6-1a.24.24,0,0,1,.05-.31,5.87,5.87,0,0,1,3.58-1c3,0,4.14,1,4.14,3.59v7A.21.21,0,0,1,61,43Zm-.26-3.41V38.39a.12.12,0,0,0-.13-.14H57.21c-1.82,0-2.61.53-2.61,1.72s.79,1.65,2.2,1.65C58.45,41.62,59.46,40.85,59.46,39.55Z"/><path d="M63.66,43a.21.21,0,0,1-.22-.22V32.64a.21.21,0,0,1,.22-.22h1.41a.21.21,0,0,1,.22.22v1.08h0a2.94,2.94,0,0,1,2.79-1.54,3.26,3.26,0,0,1,2.16.79c.11.11.13.2,0,.31l-.81,1.08a.2.2,0,0,1-.31,0,3,3,0,0,0-1.63-.5c-1.6,0-2.26,1.25-2.26,3.08v5.76a.21.21,0,0,1-.22.22Z"/><path d="M70.52,45.6a.2.2,0,0,1,0-.31l.91-.9a.21.21,0,0,1,.33,0,3.5,3.5,0,0,0,2.48,1.06c1.74,0,2.67-.9,2.67-2.84V41.38h0A3,3,0,0,1,74,42.83a3.46,3.46,0,0,1-3.55-2.55,8.34,8.34,0,0,1-.35-2.77,8.4,8.4,0,0,1,.35-2.78A3.46,3.46,0,0,1,74,32.18a3,3,0,0,1,2.92,1.45h0v-1a.2.2,0,0,1,.22-.22h1.4a.2.2,0,0,1,.22.22V42.5c0,3-1.62,4.67-4.59,4.67A4.76,4.76,0,0,1,70.52,45.6Zm6.16-6.05a6.24,6.24,0,0,0,.25-2,6.34,6.34,0,0,0-.25-2,2.37,2.37,0,0,0-4.46,0,6.48,6.48,0,0,0-.27,2,6.37,6.37,0,0,0,.27,2,2.14,2.14,0,0,0,2.22,1.59A2.17,2.17,0,0,0,76.68,39.55Z"/><path d="M87.44,43a.21.21,0,0,1-.22-.22v-.92h0a3.47,3.47,0,0,1-3.13,1.38c-2,0-3.54-1-3.54-3.16s1.54-3.26,4.12-3.26H87c.09,0,.14,0,.14-.13v-.77c0-1.45-.58-2.07-2.53-2.07a4.13,4.13,0,0,0-2.56.75c-.11.09-.24.09-.3,0l-.6-1a.24.24,0,0,1,0-.31,5.87,5.87,0,0,1,3.58-1c3,0,4.14,1,4.14,3.59v7a.21.21,0,0,1-.22.22Zm-.26-3.41V38.39a.13.13,0,0,0-.14-.14H84.93c-1.82,0-2.62.53-2.62,1.72s.8,1.65,2.2,1.65C86.16,41.62,87.18,40.85,87.18,39.55Z"/><path d="M91.11,40.63h1.54a.2.2,0,0,1,.22.22v2a.68.68,0,0,1-.13.48l-1.36,1.8a.36.36,0,0,1-.29.16.2.2,0,0,1-.2-.2V40.85A.21.21,0,0,1,91.11,40.63Z"/><path d="M102.58,43a.2.2,0,0,1-.22-.22V32.64a.2.2,0,0,1,.22-.22H104a.2.2,0,0,1,.22.22v1.08h0A2.93,2.93,0,0,1,107,32.18a3.26,3.26,0,0,1,2.16.79c.11.11.13.2,0,.31l-.81,1.08a.2.2,0,0,1-.31,0,3,3,0,0,0-1.63-.5c-1.61,0-2.27,1.25-2.27,3.08v5.76A.2.2,0,0,1,104,43Z"/><path d="M109.37,40.34a8.25,8.25,0,0,1-.35-2.66,8.17,8.17,0,0,1,.33-2.66,4.43,4.43,0,0,1,8.27,0,9.18,9.18,0,0,1,.33,3c0,.14-.08.22-.24.22h-6.66a.13.13,0,0,0-.14.14,3.9,3.9,0,0,0,.18,1.27,2.6,2.6,0,0,0,2.66,1.83,3.44,3.44,0,0,0,2.71-1.17.22.22,0,0,1,.33,0l.9.81a.2.2,0,0,1,0,.31,5.09,5.09,0,0,1-4.11,1.8A4.08,4.08,0,0,1,109.37,40.34Zm6.56-3.56c.09,0,.13,0,.13-.13a3.71,3.71,0,0,0-.15-1.19,2.6,2.6,0,0,0-4.84,0,3.68,3.68,0,0,0-.16,1.19c0,.09,0,.13.14.13Z"/><path d="M126,43a.21.21,0,0,1-.22-.22v-.92h0a3.45,3.45,0,0,1-3.12,1.38c-2,0-3.54-1-3.54-3.16s1.54-3.26,4.11-3.26h2.4c.09,0,.13,0,.13-.13v-.77c0-1.45-.57-2.07-2.53-2.07a4.07,4.07,0,0,0-2.55.75c-.11.09-.25.09-.31,0l-.59-1a.23.23,0,0,1,0-.31,5.88,5.88,0,0,1,3.59-1c3,0,4.13,1,4.13,3.59v7a.21.21,0,0,1-.22.22Zm-.26-3.41V38.39c0-.09,0-.14-.13-.14h-2.11c-1.83,0-2.62.53-2.62,1.72s.79,1.65,2.2,1.65C124.71,41.62,125.72,40.85,125.72,39.55Z"/><path d="M132.23,43.07c-1.85,0-2.57-.88-2.57-2.77V28.22a.2.2,0,0,1,.22-.22h1.41a.21.21,0,0,1,.22.22v12c0,.88.33,1.17,1.05,1.17H133a.2.2,0,0,1,.22.22v1.27a.21.21,0,0,1-.22.22Z"/><path d="M134.7,43a.21.21,0,0,1-.23-.22V32.64a.21.21,0,0,1,.23-.22h1.4a.2.2,0,0,1,.22.22v10.1a.2.2,0,0,1-.22.22Zm.17-12.25c-.13,0-.2-.09-.13-.22l1.67-2.71a.4.4,0,0,1,.38-.22h1.45c.13,0,.2.11.11.22l-2,2.71a.44.44,0,0,1-.41.22Z"/><path d="M138.3,35a4.09,4.09,0,0,1,4.16-2.84A4.22,4.22,0,0,1,146.07,34c.07.11.07.2-.07.31l-1,.79a.2.2,0,0,1-.31,0,2.59,2.59,0,0,0-2.27-1.14,2.28,2.28,0,0,0-2.35,1.65,6.89,6.89,0,0,0-.24,2.13,7,7,0,0,0,.24,2.16,2.28,2.28,0,0,0,2.35,1.65,2.6,2.6,0,0,0,2.27-1.15.2.2,0,0,1,.31,0l1,.79c.14.11.14.2.07.31a4.22,4.22,0,0,1-3.61,1.78,4.09,4.09,0,0,1-4.16-2.83,9.08,9.08,0,0,1-.33-2.69A9,9,0,0,1,138.3,35Z"/><path d="M147.12,40.34a8.25,8.25,0,0,1-.35-2.66A8.17,8.17,0,0,1,147.1,35a4.44,4.44,0,0,1,8.28,0,9.18,9.18,0,0,1,.33,3c0,.14-.09.22-.25.22H148.8a.13.13,0,0,0-.14.14,3.9,3.9,0,0,0,.18,1.27,2.6,2.6,0,0,0,2.66,1.83,3.44,3.44,0,0,0,2.71-1.17.22.22,0,0,1,.33,0l.9.81a.2.2,0,0,1,0,.31,5.09,5.09,0,0,1-4.11,1.8A4.08,4.08,0,0,1,147.12,40.34Zm6.56-3.56c.09,0,.13,0,.13-.13a3.71,3.71,0,0,0-.15-1.19,2.6,2.6,0,0,0-4.84,0,3.68,3.68,0,0,0-.16,1.19c0,.09.05.13.14.13Z"/><path d="M159.88,43.07c-1.84,0-2.57-.88-2.57-2.77V28.22a.21.21,0,0,1,.22-.22h1.41a.21.21,0,0,1,.22.22v12c0,.88.33,1.17,1.05,1.17h.42a.2.2,0,0,1,.22.22v1.27a.21.21,0,0,1-.22.22Z"/><path d="M161.84,40.37a8,8,0,0,1-.35-2.69,7.92,7.92,0,0,1,.35-2.66,4.47,4.47,0,0,1,8.32,0,7.92,7.92,0,0,1,.35,2.66,8,8,0,0,1-.35,2.69,4.47,4.47,0,0,1-8.32,0Zm6.54-.53a7.13,7.13,0,0,0,.24-2.16,6.91,6.91,0,0,0-.24-2.13,2.54,2.54,0,0,0-4.76,0,6.91,6.91,0,0,0-.24,2.13,7.13,7.13,0,0,0,.24,2.16,2.54,2.54,0,0,0,4.76,0Z"/><path d="M175.81,35A4.09,4.09,0,0,1,180,32.18,4.22,4.22,0,0,1,183.58,34a.22.22,0,0,1-.07.31l-1,.79a.19.19,0,0,1-.3,0A2.59,2.59,0,0,0,180,33.9a2.28,2.28,0,0,0-2.35,1.65,6.85,6.85,0,0,0-.25,2.13,6.94,6.94,0,0,0,.25,2.16A2.28,2.28,0,0,0,180,41.49a2.6,2.6,0,0,0,2.27-1.15.19.19,0,0,1,.3,0l1,.79a.22.22,0,0,1,.07.31A4.22,4.22,0,0,1,180,43.2a4.09,4.09,0,0,1-4.16-2.83,9.08,9.08,0,0,1-.33-2.69A9,9,0,0,1,175.81,35Z"/><path d="M184.63,40.37a8,8,0,0,1-.35-2.69,7.92,7.92,0,0,1,.35-2.66A4.47,4.47,0,0,1,193,35a7.92,7.92,0,0,1,.35,2.66,8,8,0,0,1-.35,2.69,4.47,4.47,0,0,1-8.32,0Zm6.54-.53a7.13,7.13,0,0,0,.24-2.16,6.91,6.91,0,0,0-.24-2.13,2.53,2.53,0,0,0-4.75,0,6.57,6.57,0,0,0-.25,2.13,6.77,6.77,0,0,0,.25,2.16,2.53,2.53,0,0,0,4.75,0Z"/><path d="M201.8,43a.2.2,0,0,1-.22-.22V36.58c0-1.69-.77-2.68-2.36-2.68a2.36,2.36,0,0,0-2.42,2.57v6.27a.21.21,0,0,1-.22.22h-1.41a.21.21,0,0,1-.22-.22V32.64a.21.21,0,0,1,.22-.22h1.41a.21.21,0,0,1,.22.22v1h0a3.35,3.35,0,0,1,3-1.43c2.29,0,3.65,1.56,3.65,4v6.6a.2.2,0,0,1-.22.22Z"/><path d="M212.09,43.07c-1.85,0-2.57-.88-2.57-2.77V28.22a.2.2,0,0,1,.22-.22h1.4a.2.2,0,0,1,.22.22v12c0,.88.33,1.17,1.06,1.17h.42a.2.2,0,0,1,.22.22v1.27a.21.21,0,0,1-.22.22Z"/><path d="M220.71,43a.21.21,0,0,1-.22-.22v-.92h0a3.45,3.45,0,0,1-3.12,1.38c-2,0-3.54-1-3.54-3.16s1.54-3.26,4.11-3.26h2.4c.09,0,.13,0,.13-.13v-.77c0-1.45-.57-2.07-2.53-2.07a4.07,4.07,0,0,0-2.55.75.2.2,0,0,1-.31,0l-.59-1a.23.23,0,0,1,0-.31,5.88,5.88,0,0,1,3.59-1c3,0,4.13,1,4.13,3.59v7A.21.21,0,0,1,222,43Zm-.26-3.41V38.39c0-.09,0-.14-.13-.14h-2.11c-1.83,0-2.62.53-2.62,1.72s.79,1.65,2.2,1.65C219.44,41.62,220.45,40.85,220.45,39.55Z"/><path d="M227.66,41.62a.23.23,0,0,1,0-.31l.91-1a.22.22,0,0,1,.3,0,5.12,5.12,0,0,0,3.26,1.21c1.54,0,2.31-.66,2.31-1.6s-.39-1.3-2-1.48l-1.13-.11c-2.07-.22-3.14-1.25-3.14-3,0-2,1.43-3.21,3.91-3.21a6.3,6.3,0,0,1,3.74,1.17.21.21,0,0,1,.05.3l-.75,1a.22.22,0,0,1-.31,0,5.54,5.54,0,0,0-2.84-.86c-1.32,0-2,.59-2,1.45s.51,1.28,2.07,1.43l1.1.11c2.13.2,3.17,1.28,3.17,3,0,2.07-1.5,3.45-4.25,3.45A6.57,6.57,0,0,1,227.66,41.62Z"/><path d="M244.47,43a.21.21,0,0,1-.22-.22v-1h0a3.21,3.21,0,0,1-2.88,1.45c-2.31,0-3.65-1.58-3.65-4V32.64a.2.2,0,0,1,.22-.22h1.41a.21.21,0,0,1,.22.22v6.14c0,1.72.77,2.71,2.33,2.71a2.34,2.34,0,0,0,2.37-2.6V32.64a.21.21,0,0,1,.22-.22h1.41a.21.21,0,0,1,.22.22v10.1a.21.21,0,0,1-.22.22Z"/><path d="M248.61,46.92a.21.21,0,0,1-.22-.22V32.64a.21.21,0,0,1,.22-.22H250a.21.21,0,0,1,.22.22v1h0a3.2,3.2,0,0,1,3-1.45,3.48,3.48,0,0,1,3.63,2.53,8.61,8.61,0,0,1,.38,3,8.62,8.62,0,0,1-.38,3,3.47,3.47,0,0,1-3.63,2.53,3.19,3.19,0,0,1-3-1.47h0v5a.21.21,0,0,1-.22.22Zm6.51-7a7.18,7.18,0,0,0,.24-2.2,7.39,7.39,0,0,0-.24-2.2,2.49,2.49,0,0,0-4.64,0,6.79,6.79,0,0,0-.24,2.2,6.63,6.63,0,0,0,.24,2.2,2.48,2.48,0,0,0,4.64,0Z"/><path d="M258.62,40.34a8.25,8.25,0,0,1-.35-2.66A8.17,8.17,0,0,1,258.6,35a4.43,4.43,0,0,1,8.27,0,9.18,9.18,0,0,1,.33,3,.21.21,0,0,1-.24.22h-6.67c-.09,0-.13,0-.13.14a3.93,3.93,0,0,0,.17,1.27A2.62,2.62,0,0,0,263,41.49a3.43,3.43,0,0,0,2.7-1.17.22.22,0,0,1,.33,0l.91.81a.2.2,0,0,1,0,.31,5.13,5.13,0,0,1-4.12,1.8A4.07,4.07,0,0,1,258.62,40.34Zm6.56-3.56a.12.12,0,0,0,.13-.13,3.68,3.68,0,0,0-.16-1.19,2.6,2.6,0,0,0-4.84,0,3.71,3.71,0,0,0-.15,1.19c0,.09,0,.13.13.13Z"/><path d="M269.07,43a.21.21,0,0,1-.22-.22V32.64a.21.21,0,0,1,.22-.22h1.41a.21.21,0,0,1,.22.22v1.08h0a2.93,2.93,0,0,1,2.79-1.54,3.26,3.26,0,0,1,2.16.79c.11.11.13.2,0,.31l-.81,1.08a.2.2,0,0,1-.31,0,3,3,0,0,0-1.63-.5c-1.6,0-2.26,1.25-2.26,3.08v5.76a.21.21,0,0,1-.22.22Z"/><path d="M279.36,43a.26.26,0,0,1-.26-.22l-3.78-10.1c-.05-.13,0-.22.17-.22H277c.15,0,.22.07.29.22L280,40.21h.05l2.66-7.57a.26.26,0,0,1,.26-.22h1.5c.15,0,.22.09.18.22l-3.77,10.1a.28.28,0,0,1-.28.22Z"/><path d="M285.9,30.05a.21.21,0,0,1-.22-.22V28.22a.21.21,0,0,1,.22-.22h1.49a.2.2,0,0,1,.22.22v1.61a.2.2,0,0,1-.22.22Zm0,12.91a.21.21,0,0,1-.22-.22V32.64a.21.21,0,0,1,.22-.22h1.41a.21.21,0,0,1,.22.22v10.1a.21.21,0,0,1-.22.22Z"/><path d="M289.13,41.62a.21.21,0,0,1,0-.31l.9-1a.23.23,0,0,1,.31,0,5.07,5.07,0,0,0,3.26,1.21c1.54,0,2.31-.66,2.31-1.6s-.4-1.3-2.05-1.48l-1.12-.11c-2.07-.22-3.15-1.25-3.15-3,0-2,1.43-3.21,3.92-3.21a6.3,6.3,0,0,1,3.74,1.17c.11.06.11.19,0,.3l-.74,1a.22.22,0,0,1-.31,0,5.54,5.54,0,0,0-2.84-.86c-1.32,0-2,.59-2,1.45s.5,1.28,2.07,1.43l1.1.11c2.13.2,3.16,1.28,3.16,3,0,2.07-1.49,3.45-4.24,3.45A6.55,6.55,0,0,1,289.13,41.62Z"/><path d="M299.49,30.05a.21.21,0,0,1-.22-.22V28.22a.21.21,0,0,1,.22-.22H301a.21.21,0,0,1,.22.22v1.61a.21.21,0,0,1-.22.22ZM299.54,43a.2.2,0,0,1-.22-.22V32.64a.2.2,0,0,1,.22-.22H301a.2.2,0,0,1,.21.22v10.1A.2.2,0,0,1,301,43Z"/><path d="M303.17,40.37a7.75,7.75,0,0,1-.36-2.69,7.64,7.64,0,0,1,.36-2.66,4.46,4.46,0,0,1,8.31,0,7.64,7.64,0,0,1,.36,2.66,7.75,7.75,0,0,1-.36,2.69,4.47,4.47,0,0,1-8.31,0Zm6.53-.53a6.82,6.82,0,0,0,.24-2.16,6.61,6.61,0,0,0-.24-2.13,2.53,2.53,0,0,0-4.75,0,6.61,6.61,0,0,0-.24,2.13,6.82,6.82,0,0,0,.24,2.16,2.53,2.53,0,0,0,4.75,0Zm-3.17-9.13c-.13,0-.2-.09-.13-.22l1.67-2.71a.4.4,0,0,1,.38-.22h1.45c.13,0,.2.11.11.22l-2,2.71a.46.46,0,0,1-.42.22Z"/><path d="M320.33,43a.2.2,0,0,1-.22-.22V36.58c0-1.69-.77-2.68-2.36-2.68a2.36,2.36,0,0,0-2.42,2.57v6.27a.21.21,0,0,1-.22.22H313.7a.21.21,0,0,1-.22-.22V32.64a.21.21,0,0,1,.22-.22h1.41a.21.21,0,0,1,.22.22v1h0a3.35,3.35,0,0,1,2.95-1.43c2.29,0,3.65,1.56,3.65,4v6.6a.2.2,0,0,1-.21.22Z"/><path d="M334.69,43a.21.21,0,0,1-.22-.22v-1h0a3.2,3.2,0,0,1-3,1.47,3.47,3.47,0,0,1-3.63-2.53,8.62,8.62,0,0,1-.38-3,8.61,8.61,0,0,1,.38-3,3.48,3.48,0,0,1,3.63-2.53,3.21,3.21,0,0,1,3,1.45h0V28.22a.21.21,0,0,1,.22-.22h1.41a.21.21,0,0,1,.22.22V42.74a.21.21,0,0,1-.22.22Zm-.46-3.08a6.63,6.63,0,0,0,.24-2.2,6.79,6.79,0,0,0-.24-2.2,2.49,2.49,0,0,0-4.64,0,7.39,7.39,0,0,0-.24,2.2,7.18,7.18,0,0,0,.24,2.2,2.48,2.48,0,0,0,4.64,0Z"/><path d="M338.32,40.34a8.25,8.25,0,0,1-.35-2.66A8.17,8.17,0,0,1,338.3,35a4.43,4.43,0,0,1,8.27,0,9.18,9.18,0,0,1,.33,3,.21.21,0,0,1-.24.22H340a.12.12,0,0,0-.13.14,3.9,3.9,0,0,0,.18,1.27,2.6,2.6,0,0,0,2.66,1.83,3.47,3.47,0,0,0,2.71-1.17.22.22,0,0,1,.33,0l.9.81a.2.2,0,0,1,0,.31,5.12,5.12,0,0,1-4.11,1.8A4.07,4.07,0,0,1,338.32,40.34Zm6.56-3.56c.09,0,.13,0,.13-.13a3.71,3.71,0,0,0-.15-1.19,2.6,2.6,0,0,0-4.84,0,3.68,3.68,0,0,0-.16,1.19.12.12,0,0,0,.13.13Z"/><path d="M359.13,43a.21.21,0,0,1-.22-.22v-1h0A3.21,3.21,0,0,1,356,43.2c-2.31,0-3.65-1.58-3.65-4V32.64a.2.2,0,0,1,.22-.22H354a.2.2,0,0,1,.22.22v6.14c0,1.72.77,2.71,2.34,2.71a2.34,2.34,0,0,0,2.37-2.6V32.64a.21.21,0,0,1,.22-.22h1.41a.21.21,0,0,1,.22.22v10.1a.21.21,0,0,1-.22.22Z"/><path d="M369.89,43a.21.21,0,0,1-.22-.22V36.58c0-1.69-.77-2.68-2.35-2.68a2.36,2.36,0,0,0-2.42,2.57v6.27a.21.21,0,0,1-.22.22h-1.41a.21.21,0,0,1-.22-.22V32.64a.21.21,0,0,1,.22-.22h1.41a.21.21,0,0,1,.22.22v1h0a3.35,3.35,0,0,1,2.95-1.43c2.29,0,3.65,1.56,3.65,4v6.6a.21.21,0,0,1-.22.22Z"/><path d="M377.35,35a4.07,4.07,0,0,1,4.16-2.84A4.24,4.24,0,0,1,385.12,34a.22.22,0,0,1-.07.31l-1,.79a.2.2,0,0,1-.31,0,2.58,2.58,0,0,0-2.26-1.14,2.29,2.29,0,0,0-2.36,1.65,7.21,7.21,0,0,0-.24,2.13,7.3,7.3,0,0,0,.24,2.16,2.29,2.29,0,0,0,2.36,1.65,2.59,2.59,0,0,0,2.26-1.15.2.2,0,0,1,.31,0l1,.79a.22.22,0,0,1,.07.31,4.24,4.24,0,0,1-3.61,1.78,4.08,4.08,0,0,1-4.16-2.83,9.08,9.08,0,0,1-.33-2.69A9,9,0,0,1,377.35,35Z"/><path d="M386.17,40.37a8,8,0,0,1-.35-2.69,7.92,7.92,0,0,1,.35-2.66,4.47,4.47,0,0,1,8.32,0,7.92,7.92,0,0,1,.35,2.66,8,8,0,0,1-.35,2.69,4.47,4.47,0,0,1-8.32,0Zm6.53-.53a6.77,6.77,0,0,0,.25-2.16,6.57,6.57,0,0,0-.25-2.13,2.53,2.53,0,0,0-4.75,0,6.91,6.91,0,0,0-.24,2.13,7.13,7.13,0,0,0,.24,2.16,2.53,2.53,0,0,0,4.75,0Z"/><path d="M410,43a.21.21,0,0,1-.22-.22V36.58c0-1.69-.77-2.68-2.35-2.68A2.37,2.37,0,0,0,405,36.47v6.27a.21.21,0,0,1-.22.22h-1.41a.21.21,0,0,1-.22-.22V36.58c0-1.69-.77-2.68-2.35-2.68a2.36,2.36,0,0,0-2.42,2.57v6.27a.21.21,0,0,1-.22.22h-1.41a.21.21,0,0,1-.22-.22V32.64a.21.21,0,0,1,.22-.22h1.41a.21.21,0,0,1,.22.22v1h0a3.73,3.73,0,0,1,6,.22h0a3.93,3.93,0,0,1,3.41-1.65c2.44,0,3.76,1.56,3.76,4v6.6a.21.21,0,0,1-.22.22Z"/><path d="M414,46.92a.21.21,0,0,1-.22-.22V32.64a.21.21,0,0,1,.22-.22h1.41a.21.21,0,0,1,.22.22v1h0a3.2,3.2,0,0,1,3-1.45,3.48,3.48,0,0,1,3.63,2.53,8.63,8.63,0,0,1,.37,3,8.65,8.65,0,0,1-.37,3,3.47,3.47,0,0,1-3.63,2.53,3.19,3.19,0,0,1-3-1.47h0v5a.21.21,0,0,1-.22.22Zm6.51-7a7.18,7.18,0,0,0,.24-2.2,7.39,7.39,0,0,0-.24-2.2,2.49,2.49,0,0,0-4.64,0,6.79,6.79,0,0,0-.24,2.2,6.63,6.63,0,0,0,.24,2.2,2.48,2.48,0,0,0,4.64,0Z"/><path d="M430.65,43a.21.21,0,0,1-.22-.22v-.92h0a3.45,3.45,0,0,1-3.12,1.38c-2,0-3.54-1-3.54-3.16s1.54-3.26,4.11-3.26h2.4c.09,0,.13,0,.13-.13v-.77c0-1.45-.57-2.07-2.53-2.07a4.07,4.07,0,0,0-2.55.75.2.2,0,0,1-.31,0l-.59-1a.23.23,0,0,1,0-.31,5.88,5.88,0,0,1,3.59-1c3,0,4.13,1,4.13,3.59v7A.21.21,0,0,1,432,43Zm-.26-3.41V38.39c0-.09,0-.14-.13-.14h-2.11c-1.83,0-2.62.53-2.62,1.72s.79,1.65,2.2,1.65C429.38,41.62,430.39,40.85,430.39,39.55Z"/><path d="M441.21,43a.21.21,0,0,1-.22-.22V36.58c0-1.69-.77-2.68-2.35-2.68a2.36,2.36,0,0,0-2.42,2.57v6.27A.21.21,0,0,1,436,43h-1.41a.21.21,0,0,1-.22-.22V32.64a.21.21,0,0,1,.22-.22H436a.21.21,0,0,1,.22.22v1h0a3.35,3.35,0,0,1,2.95-1.43c2.29,0,3.65,1.56,3.65,4v6.6a.21.21,0,0,1-.22.22Zm-2.83-13.13a2.35,2.35,0,0,0-1.17-.4,2.1,2.1,0,0,0-1.39.7c-.08.09-.17.05-.17,0V29a.5.5,0,0,1,.15-.39,2.14,2.14,0,0,1,1.5-.71,2.49,2.49,0,0,1,1.38.47,2.33,2.33,0,0,0,1.17.39,2.1,2.1,0,0,0,1.39-.7c.08-.09.17-.05.17,0v1.06a.5.5,0,0,1-.15.39,2.14,2.14,0,0,1-1.5.71A2.67,2.67,0,0,1,438.38,29.83Z"/><path d="M444.73,40.34a8.25,8.25,0,0,1-.35-2.66,8.17,8.17,0,0,1,.33-2.66A4.43,4.43,0,0,1,453,35a9.18,9.18,0,0,1,.33,3c0,.14-.08.22-.24.22h-6.66a.13.13,0,0,0-.14.14,3.9,3.9,0,0,0,.18,1.27,2.6,2.6,0,0,0,2.66,1.83,3.44,3.44,0,0,0,2.71-1.17.22.22,0,0,1,.33,0l.9.81a.2.2,0,0,1,0,.31A5.09,5.09,0,0,1,449,43.2,4.08,4.08,0,0,1,444.73,40.34Zm6.56-3.56c.09,0,.13,0,.13-.13a3.71,3.71,0,0,0-.15-1.19,2.6,2.6,0,0,0-4.84,0,3.68,3.68,0,0,0-.16,1.19c0,.09.05.13.14.13Z"/><path d="M455.18,43a.21.21,0,0,1-.22-.22V32.64a.21.21,0,0,1,.22-.22h1.41a.21.21,0,0,1,.22.22v1.08h0a3,3,0,0,1,2.8-1.54,3.24,3.24,0,0,1,2.15.79c.11.11.14.2.05.31L461,34.36a.19.19,0,0,1-.3,0,3.07,3.07,0,0,0-1.63-.5c-1.61,0-2.27,1.25-2.27,3.08v5.76a.21.21,0,0,1-.22.22Z"/><path d="M462,40.37a8,8,0,0,1-.35-2.69A7.92,7.92,0,0,1,462,35a4.47,4.47,0,0,1,8.32,0,7.92,7.92,0,0,1,.35,2.66,8,8,0,0,1-.35,2.69,4.47,4.47,0,0,1-8.32,0Zm6.54-.53a7.13,7.13,0,0,0,.24-2.16,6.91,6.91,0,0,0-.24-2.13,2.54,2.54,0,0,0-4.76,0,6.91,6.91,0,0,0-.24,2.13,7.13,7.13,0,0,0,.24,2.16,2.54,2.54,0,0,0,4.76,0Z"/><path d="M472,40.85a.21.21,0,0,1,.22-.22h1.68a.21.21,0,0,1,.22.22v1.89a.21.21,0,0,1-.22.22h-1.68a.21.21,0,0,1-.22-.22Z"/></g></g></svg>