<svg xmlns="http://www.w3.org/2000/svg" viewBox="0 0 372.1 76.64"><title>7a</title><g id="Capa_2" data-name="Capa 2"><g id="answer_copia" data-name="answer copia"><path d="M5.59,16.32a.3.3,0,0,1-.29-.24L0,.29C0,.1.05,0,.19,0H1.82a.3.3,0,0,1,.34.24l4.18,12.6h0l4-12.6A.29.29,0,0,1,10.73,0h1.66c.14,0,.24.1.16.29L7.3,16.08a.3.3,0,0,1-.29.24Z"/><path d="M13.47,13.47a8.78,8.78,0,0,1-.39-2.91,8.87,8.87,0,0,1,.36-2.9A4.44,4.44,0,0,1,18,4.56a4.46,4.46,0,0,1,4.52,3.1,10,10,0,0,1,.36,3.28.24.24,0,0,1-.27.25H15.29c-.1,0-.15,0-.15.14a4.27,4.27,0,0,0,.2,1.39,2.83,2.83,0,0,0,2.9,2,3.74,3.74,0,0,0,3-1.27.25.25,0,0,1,.36,0l1,.89a.22.22,0,0,1,0,.34,5.59,5.59,0,0,1-4.49,2A4.44,4.44,0,0,1,13.47,13.47Zm7.15-3.89c.09,0,.14-.05.14-.15a4,4,0,0,0-.17-1.29A2.58,2.58,0,0,0,18,6.34a2.6,2.6,0,0,0-2.64,1.8,4,4,0,0,0-.17,1.29.13.13,0,0,0,.15.15Z"/><path d="M26.3,16.32a.23.23,0,0,1-.24-.24v-11a.23.23,0,0,1,.24-.24h1.54a.23.23,0,0,1,.24.24V6.24h0a3.23,3.23,0,0,1,3-1.68,3.58,3.58,0,0,1,2.36.86c.12.12.14.22,0,.34l-.88,1.18a.22.22,0,0,1-.34,0,3.31,3.31,0,0,0-1.78-.55c-1.75,0-2.47,1.37-2.47,3.36v6.29a.23.23,0,0,1-.24.24Z"/><path d="M36.1,2.23A.22.22,0,0,1,35.86,2V.24A.23.23,0,0,1,36.1,0h1.63A.23.23,0,0,1,38,.24V2a.23.23,0,0,1-.24.24Zm0,14.09a.23.23,0,0,1-.24-.24v-11a.23.23,0,0,1,.24-.24h1.54a.23.23,0,0,1,.24.24v11a.23.23,0,0,1-.24.24Z"/><path d="M42.48,16.32a.23.23,0,0,1-.24-.24V6.6a.12.12,0,0,0-.14-.14h-1a.23.23,0,0,1-.24-.24V5.06a.23.23,0,0,1,.24-.24h1a.12.12,0,0,0,.14-.14v-1c0-2.72,1.1-3.7,3.5-3.7h.89a.23.23,0,0,1,.24.24V1.63a.22.22,0,0,1-.24.24H46c-1.47,0-1.75.31-1.75,1.73V4.68c0,.1,0,.14.14.14h2.23a.23.23,0,0,1,.24.24V6.22a.23.23,0,0,1-.24.24H44.4c-.1,0-.14,0-.14.14v9.48a.23.23,0,0,1-.24.24Zm7.2-14.09A.23.23,0,0,1,49.44,2V.24A.23.23,0,0,1,49.68,0h1.63a.23.23,0,0,1,.24.24V2a.22.22,0,0,1-.24.24Zm0,14.09a.22.22,0,0,1-.24-.24v-11a.23.23,0,0,1,.24-.24h1.53a.23.23,0,0,1,.25.24v11a.23.23,0,0,1-.25.24Z"/><path d="M62.64,20.64a.23.23,0,0,1-.24-.24V15h0a3.52,3.52,0,0,1-3.27,1.61,3.81,3.81,0,0,1-4-2.76,9.68,9.68,0,0,1-.41-3.27,9.53,9.53,0,0,1,.41-3.24,3.81,3.81,0,0,1,4-2.76,3.51,3.51,0,0,1,3.27,1.58h0V5.06a.23.23,0,0,1,.24-.24h1.54a.23.23,0,0,1,.24.24V20.4a.23.23,0,0,1-.24.24ZM62.14,13a7.47,7.47,0,0,0,.26-2.4,7.59,7.59,0,0,0-.26-2.4,2.72,2.72,0,0,0-5.07,0,8.26,8.26,0,0,0-.26,2.4,8,8,0,0,0,.26,2.4,2.71,2.71,0,0,0,5.07,0Z"/><path d="M75.58,16.32a.22.22,0,0,1-.24-.24V15h0a3.5,3.5,0,0,1-3.14,1.59c-2.52,0-4-1.73-4-4.35V5.06a.23.23,0,0,1,.24-.24H70a.23.23,0,0,1,.24.24v6.7c0,1.87.84,3,2.54,3a2.55,2.55,0,0,0,2.6-2.83V5.06a.23.23,0,0,1,.24-.24h1.53a.23.23,0,0,1,.24.24v11a.22.22,0,0,1-.24.24Z"/><path d="M81,13.47a9.05,9.05,0,0,1-.39-2.91A8.87,8.87,0,0,1,81,7.66a4.84,4.84,0,0,1,9,0,10,10,0,0,1,.36,3.28.24.24,0,0,1-.27.25H82.8c-.1,0-.14,0-.14.14a4.3,4.3,0,0,0,.19,1.39,2.83,2.83,0,0,0,2.9,2,3.74,3.74,0,0,0,3-1.27.25.25,0,0,1,.36,0l1,.89a.22.22,0,0,1,0,.34,5.59,5.59,0,0,1-4.49,2A4.44,4.44,0,0,1,81,13.47Zm7.15-3.89c.09,0,.14-.05.14-.15a4,4,0,0,0-.17-1.29,2.84,2.84,0,0,0-5.28,0,4,4,0,0,0-.16,1.29c0,.1,0,.15.14.15Z"/><path d="M102.1,16.44c-2,0-2.81-1-2.81-3V.24A.23.23,0,0,1,99.53,0h1.53a.23.23,0,0,1,.24.24V13.3c0,1,.36,1.27,1.16,1.27h.45a.23.23,0,0,1,.24.24V16.2a.22.22,0,0,1-.24.24Z"/><path d="M112.94,16.32a.23.23,0,0,1-.24-.24v-1h0a3.77,3.77,0,0,1-3.41,1.52c-2.18,0-3.86-1.13-3.86-3.46s1.68-3.55,4.48-3.55h2.62a.13.13,0,0,0,.15-.15V8.59c0-1.58-.63-2.25-2.77-2.25a4.47,4.47,0,0,0-2.78.81.22.22,0,0,1-.34,0L106.13,6a.23.23,0,0,1,.05-.33,6.36,6.36,0,0,1,3.91-1.13c3.26,0,4.51,1.08,4.51,3.91v7.61a.23.23,0,0,1-.24.24Zm-.28-3.72V11.33c0-.1,0-.14-.15-.14h-2.3c-2,0-2.86.57-2.86,1.87s.87,1.8,2.4,1.8C111.55,14.86,112.66,14,112.66,12.6Z"/><path d="M117.65,14.86a.23.23,0,0,1,0-.34l1-1a.23.23,0,0,1,.34,0,5.6,5.6,0,0,0,3.55,1.32c1.68,0,2.52-.73,2.52-1.76s-.43-1.41-2.23-1.61l-1.23-.12c-2.25-.24-3.43-1.36-3.43-3.24,0-2.18,1.56-3.5,4.27-3.5a6.88,6.88,0,0,1,4.08,1.27.24.24,0,0,1,0,.34l-.81,1a.24.24,0,0,1-.34,0,6,6,0,0,0-3.1-.94c-1.44,0-2.18.65-2.18,1.59s.55,1.39,2.26,1.56l1.2.12C125.9,9.79,127,11,127,12.82c0,2.25-1.63,3.77-4.63,3.77A7.16,7.16,0,0,1,117.65,14.86Z"/><path d="M135.62,7.66a4.45,4.45,0,0,1,4.54-3.1,4.59,4.59,0,0,1,3.93,1.94c.08.12.08.22-.07.34L143,7.7a.22.22,0,0,1-.34,0,2.82,2.82,0,0,0-2.47-1.25,2.49,2.49,0,0,0-2.57,1.8,7.75,7.75,0,0,0-.26,2.33,7.81,7.81,0,0,0,.26,2.35,2.49,2.49,0,0,0,2.57,1.8,2.82,2.82,0,0,0,2.47-1.24.22.22,0,0,1,.34,0l1.05.87c.15.12.15.21.07.33a4.59,4.59,0,0,1-3.93,1.95,4.46,4.46,0,0,1-4.54-3.1,10.15,10.15,0,0,1-.36-2.93A10,10,0,0,1,135.62,7.66Z"/><path d="M146.69,13.49a8.48,8.48,0,0,1-.39-2.93,8.37,8.37,0,0,1,.39-2.9,4.87,4.87,0,0,1,9.07,0,8.65,8.65,0,0,1,.38,2.9,8.77,8.77,0,0,1-.38,2.93,4.87,4.87,0,0,1-9.07,0Zm7.12-.58a7.22,7.22,0,0,0,.27-2.35,7.16,7.16,0,0,0-.27-2.33,2.76,2.76,0,0,0-5.18,0,7.5,7.5,0,0,0-.26,2.33,7.56,7.56,0,0,0,.26,2.35,2.76,2.76,0,0,0,5.18,0Z"/><path d="M166.85,16.32a.22.22,0,0,1-.24-.24V9.36c0-1.85-.84-2.93-2.57-2.93a2.58,2.58,0,0,0-2.64,2.81v6.84a.23.23,0,0,1-.24.24h-1.54a.23.23,0,0,1-.24-.24v-11a.23.23,0,0,1,.24-.24h1.54a.23.23,0,0,1,.24.24V6.12h0a3.63,3.63,0,0,1,3.22-1.56c2.5,0,4,1.7,4,4.32v7.2a.22.22,0,0,1-.24.24Z"/><path d="M179.64,16.32a.22.22,0,0,1-.24-.24V15h0a3.49,3.49,0,0,1-3.26,1.61,3.81,3.81,0,0,1-4-2.76,9.68,9.68,0,0,1-.41-3.27,9.53,9.53,0,0,1,.41-3.24,3.81,3.81,0,0,1,4-2.76,3.48,3.48,0,0,1,3.26,1.58h0V.24a.23.23,0,0,1,.24-.24h1.54a.22.22,0,0,1,.23.24V16.08a.22.22,0,0,1-.23.24ZM179.13,13a7.14,7.14,0,0,0,.27-2.4,7.25,7.25,0,0,0-.27-2.4,2.71,2.71,0,0,0-5.06,0,8.26,8.26,0,0,0-.26,2.4,8,8,0,0,0,.26,2.4,2.7,2.7,0,0,0,5.06,0Z"/><path d="M185.54,2.23A.23.23,0,0,1,185.3,2V.24a.23.23,0,0,1,.24-.24h1.63a.23.23,0,0,1,.24.24V2a.22.22,0,0,1-.24.24Zm.05,14.09a.23.23,0,0,1-.24-.24v-11a.23.23,0,0,1,.24-.24h1.54a.23.23,0,0,1,.24.24v11a.23.23,0,0,1-.24.24Z"/><path d="M191,7.66a4.43,4.43,0,0,1,4.53-3.1,4.62,4.62,0,0,1,3.94,1.94.23.23,0,0,1-.07.34l-1.06.86a.22.22,0,0,1-.34,0,2.82,2.82,0,0,0-2.47-1.25,2.5,2.5,0,0,0-2.57,1.8,7.75,7.75,0,0,0-.26,2.33,7.81,7.81,0,0,0,.26,2.35,2.5,2.5,0,0,0,2.57,1.8A2.82,2.82,0,0,0,198,13.47a.22.22,0,0,1,.34,0l1.06.87c.14.12.14.21.07.33a4.62,4.62,0,0,1-3.94,1.95,4.44,4.44,0,0,1-4.53-3.1,9.81,9.81,0,0,1-.36-2.93A9.69,9.69,0,0,1,191,7.66Z"/><path d="M202.82,2.23a.23.23,0,0,1-.24-.24V.24a.23.23,0,0,1,.24-.24h1.63a.23.23,0,0,1,.24.24V2a.22.22,0,0,1-.24.24Zm.05,14.09a.22.22,0,0,1-.24-.24v-11a.23.23,0,0,1,.24-.24h1.54a.23.23,0,0,1,.24.24v11a.23.23,0,0,1-.24.24Z"/><path d="M208.27,13.49a8.77,8.77,0,0,1-.38-2.93,8.65,8.65,0,0,1,.38-2.9,4.87,4.87,0,0,1,9.07,0,8.37,8.37,0,0,1,.39,2.9,8.48,8.48,0,0,1-.39,2.93,4.87,4.87,0,0,1-9.07,0Zm7.13-.58a7.56,7.56,0,0,0,.26-2.35,7.5,7.5,0,0,0-.26-2.33,2.77,2.77,0,0,0-5.19,0,7.5,7.5,0,0,0-.26,2.33,7.56,7.56,0,0,0,.26,2.35,2.77,2.77,0,0,0,5.19,0Z"/><path d="M228.43,16.32a.23.23,0,0,1-.24-.24V9.36c0-1.85-.84-2.93-2.57-2.93A2.58,2.58,0,0,0,223,9.24v6.84a.22.22,0,0,1-.24.24H221.2a.22.22,0,0,1-.23-.24v-11a.22.22,0,0,1,.23-.24h1.54a.23.23,0,0,1,.24.24V6.12h0a3.62,3.62,0,0,1,3.21-1.56c2.5,0,4,1.7,4,4.32v7.2a.23.23,0,0,1-.24.24Z"/><path d="M233.71,13.47a9.05,9.05,0,0,1-.39-2.91,8.87,8.87,0,0,1,.36-2.9,4.84,4.84,0,0,1,9,0,10,10,0,0,1,.36,3.28.24.24,0,0,1-.27.25h-7.27a.12.12,0,0,0-.14.14,4.3,4.3,0,0,0,.19,1.39,2.84,2.84,0,0,0,2.9,2,3.78,3.78,0,0,0,3-1.27.25.25,0,0,1,.36,0l1,.89a.22.22,0,0,1,0,.34,5.59,5.59,0,0,1-4.48,2A4.45,4.45,0,0,1,233.71,13.47Zm7.15-3.89a.13.13,0,0,0,.15-.15,4,4,0,0,0-.17-1.29,2.84,2.84,0,0,0-5.28,0,4,4,0,0,0-.17,1.29c0,.1.05.15.14.15Z"/><path d="M245.52,14.86a.23.23,0,0,1,0-.34l1-1a.23.23,0,0,1,.34,0,5.6,5.6,0,0,0,3.55,1.32c1.68,0,2.52-.73,2.52-1.76s-.43-1.41-2.23-1.61l-1.23-.12C247.2,11.06,246,9.94,246,8.06c0-2.18,1.56-3.5,4.27-3.5a6.88,6.88,0,0,1,4.08,1.27.24.24,0,0,1,0,.34l-.82,1a.23.23,0,0,1-.33,0,6.07,6.07,0,0,0-3.1-.94C248.73,6.31,248,7,248,7.9s.55,1.39,2.25,1.56l1.2.12c2.33.21,3.46,1.39,3.46,3.24,0,2.25-1.63,3.77-4.63,3.77A7.16,7.16,0,0,1,245.52,14.86Z"/><path d="M271,16.32a.22.22,0,0,1-.24-.24V15h0a3.49,3.49,0,0,1-3.26,1.61,3.81,3.81,0,0,1-4-2.76,9.68,9.68,0,0,1-.41-3.27,9.53,9.53,0,0,1,.41-3.24,3.81,3.81,0,0,1,4-2.76,3.48,3.48,0,0,1,3.26,1.58h0V.24A.23.23,0,0,1,271,0h1.53a.23.23,0,0,1,.24.24V16.08a.22.22,0,0,1-.24.24ZM270.52,13a7.14,7.14,0,0,0,.27-2.4,7.25,7.25,0,0,0-.27-2.4,2.71,2.71,0,0,0-5.06,0,8.26,8.26,0,0,0-.26,2.4,8,8,0,0,0,.26,2.4,2.7,2.7,0,0,0,5.06,0Z"/><path d="M276.43,13.47a9.05,9.05,0,0,1-.39-2.91,8.87,8.87,0,0,1,.36-2.9,4.84,4.84,0,0,1,9,0,10,10,0,0,1,.36,3.28.24.24,0,0,1-.27.25h-7.27a.12.12,0,0,0-.14.14,4.3,4.3,0,0,0,.19,1.39,2.84,2.84,0,0,0,2.9,2,3.78,3.78,0,0,0,3-1.27.25.25,0,0,1,.36,0l1,.89a.22.22,0,0,1,0,.34,5.59,5.59,0,0,1-4.48,2A4.45,4.45,0,0,1,276.43,13.47Zm7.15-3.89c.1,0,.14-.05.14-.15a4,4,0,0,0-.16-1.29,2.84,2.84,0,0,0-5.28,0,4,4,0,0,0-.17,1.29c0,.1.05.15.14.15Z"/><path d="M291.79,16.44c-2,0-2.81-1-2.81-3V.24a.23.23,0,0,1,.24-.24h1.54a.23.23,0,0,1,.24.24V13.3c0,1,.36,1.27,1.15,1.27h.45a.23.23,0,0,1,.24.24V16.2a.22.22,0,0,1-.24.24Z"/><path d="M300.64,14.86a.25.25,0,0,1,0-.34l1-1a.22.22,0,0,1,.33,0,5.63,5.63,0,0,0,3.56,1.32c1.68,0,2.52-.73,2.52-1.76s-.44-1.41-2.24-1.61l-1.22-.12c-2.26-.24-3.43-1.36-3.43-3.24,0-2.18,1.56-3.5,4.27-3.5a6.88,6.88,0,0,1,4.08,1.27.24.24,0,0,1,.05.34l-.82,1a.23.23,0,0,1-.33,0,6.07,6.07,0,0,0-3.1-.94c-1.44,0-2.18.65-2.18,1.59s.55,1.39,2.25,1.56l1.2.12C308.9,9.79,310,11,310,12.82c0,2.25-1.63,3.77-4.63,3.77A7.19,7.19,0,0,1,300.64,14.86Z"/><path d="M320.42,16.32a.23.23,0,0,1-.24-.24V15h0A3.52,3.52,0,0,1,317,16.59c-2.52,0-4-1.73-4-4.35V5.06a.23.23,0,0,1,.24-.24h1.53a.23.23,0,0,1,.24.24v6.7c0,1.87.84,3,2.55,3a2.55,2.55,0,0,0,2.59-2.83V5.06a.23.23,0,0,1,.24-.24H322a.23.23,0,0,1,.24.24v11a.23.23,0,0,1-.24.24Z"/><path d="M325.82,13.47a9.05,9.05,0,0,1-.39-2.91,8.56,8.56,0,0,1,.37-2.9,4.83,4.83,0,0,1,9,0,10,10,0,0,1,.36,3.28.24.24,0,0,1-.26.25h-7.28a.12.12,0,0,0-.14.14,4.3,4.3,0,0,0,.19,1.39,2.84,2.84,0,0,0,2.9,2,3.78,3.78,0,0,0,3-1.27.25.25,0,0,1,.36,0l1,.89a.22.22,0,0,1,0,.34,5.62,5.62,0,0,1-4.49,2A4.45,4.45,0,0,1,325.82,13.47ZM333,9.58a.13.13,0,0,0,.15-.15A4,4,0,0,0,333,8.14a2.84,2.84,0,0,0-5.28,0,4,4,0,0,0-.17,1.29c0,.1.05.15.14.15Z"/><path d="M341.18,16.44c-2,0-2.81-1-2.81-3V.24a.23.23,0,0,1,.24-.24h1.54a.23.23,0,0,1,.24.24V13.3c0,1,.36,1.27,1.15,1.27H342a.23.23,0,0,1,.24.24V16.2a.22.22,0,0,1-.24.24Z"/><path d="M344.75,13.49a8.77,8.77,0,0,1-.38-2.93,8.65,8.65,0,0,1,.38-2.9,4.87,4.87,0,0,1,9.08,0,8.65,8.65,0,0,1,.38,2.9,8.77,8.77,0,0,1-.38,2.93,4.87,4.87,0,0,1-9.08,0Zm7.13-.58a7.5,7.5,0,0,0,.27-2.35,7.45,7.45,0,0,0-.27-2.33,2.76,2.76,0,0,0-5.18,0,7.45,7.45,0,0,0-.27,2.33,7.5,7.5,0,0,0,.27,2.35,2.76,2.76,0,0,0,5.18,0Z"/><path d="M363.31,20.64a.22.22,0,0,1-.24-.24V19a.23.23,0,0,1,.24-.24h.43c.93,0,1.44-.41,1.94-1.73l.39-1L361.84,5.06c0-.14,0-.24.19-.24h1.68a.29.29,0,0,1,.29.24l3,8.31h0L370,5.06a.29.29,0,0,1,.29-.24h1.63c.14,0,.24.1.19.24l-4.54,12.15c-1,2.71-1.89,3.43-3.62,3.43Z"/><path d="M.72,42.86a.23.23,0,0,1,0-.34l1-1.05a.23.23,0,0,1,.34,0,5.6,5.6,0,0,0,3.55,1.32c1.68,0,2.52-.73,2.52-1.76s-.43-1.41-2.23-1.61L4.66,39.3c-2.26-.24-3.44-1.36-3.44-3.24,0-2.18,1.56-3.5,4.28-3.5a6.88,6.88,0,0,1,4.08,1.27.24.24,0,0,1,.05.34l-.82,1a.24.24,0,0,1-.34,0,6,6,0,0,0-3.09-.94c-1.44,0-2.19.65-2.19,1.59s.55,1.39,2.26,1.56l1.2.12c2.33.21,3.46,1.39,3.46,3.24,0,2.25-1.64,3.77-4.64,3.77A7.18,7.18,0,0,1,.72,42.86Z"/><path d="M20.5,44.32a.22.22,0,0,1-.24-.24V43h0a3.5,3.5,0,0,1-3.14,1.59c-2.52,0-4-1.73-4-4.35V33.06a.23.23,0,0,1,.24-.24h1.54a.23.23,0,0,1,.24.24v6.7c0,1.87.84,3,2.54,3a2.55,2.55,0,0,0,2.6-2.83V33.06a.23.23,0,0,1,.24-.24H22a.23.23,0,0,1,.24.24v11a.22.22,0,0,1-.24.24Z"/><path d="M31.63,35.66a4.45,4.45,0,0,1,4.54-3.1A4.6,4.6,0,0,1,40.1,34.5c.08.12.08.22-.07.34L39,35.7a.22.22,0,0,1-.34,0,2.82,2.82,0,0,0-2.47-1.25,2.49,2.49,0,0,0-2.57,1.8,7.75,7.75,0,0,0-.26,2.33,7.81,7.81,0,0,0,.26,2.35,2.49,2.49,0,0,0,2.57,1.8,2.82,2.82,0,0,0,2.47-1.24.22.22,0,0,1,.34,0l1.05.87c.15.12.15.21.07.33a4.61,4.61,0,0,1-3.93,2,4.46,4.46,0,0,1-4.54-3.1,10.15,10.15,0,0,1-.36-2.93A10,10,0,0,1,31.63,35.66Z"/><path d="M50,44.32a.22.22,0,0,1-.24-.24v-1h0a3.74,3.74,0,0,1-3.4,1.52c-2.19,0-3.87-1.13-3.87-3.46s1.68-3.55,4.49-3.55h2.62c.09,0,.14,0,.14-.15v-.84c0-1.58-.62-2.25-2.76-2.25a4.44,4.44,0,0,0-2.78.81c-.13.1-.27.1-.34,0L43.15,34a.24.24,0,0,1,.05-.33,6.38,6.38,0,0,1,3.91-1.13c3.27,0,4.51,1.08,4.51,3.91v7.61a.22.22,0,0,1-.24.24Zm-.29-3.72V39.33a.12.12,0,0,0-.14-.14H47.23c-2,0-2.85.57-2.85,1.87s.86,1.8,2.4,1.8C48.58,42.86,49.68,42,49.68,40.6Z"/><path d="M58.22,44.44c-2,0-2.8-1-2.8-3V28.24a.23.23,0,0,1,.24-.24h1.53a.23.23,0,0,1,.24.24V41.3c0,1,.36,1.27,1.15,1.27H59a.23.23,0,0,1,.24.24V44.2a.23.23,0,0,1-.24.24Z"/><path d="M61.7,44.32a.23.23,0,0,1-.24-.24V42.81a.35.35,0,0,1,.1-.26l6.31-7.85v-.05H62a.23.23,0,0,1-.24-.24V33.06a.23.23,0,0,1,.24-.24h8a.23.23,0,0,1,.24.24v1.35a.35.35,0,0,1-.09.26l-6.27,7.78v0H70a.22.22,0,0,1,.24.24v1.34a.22.22,0,0,1-.24.24Z"/><path d="M80.52,44.32a.23.23,0,0,1-.24-.24v-1h0a3.77,3.77,0,0,1-3.41,1.52c-2.19,0-3.87-1.13-3.87-3.46s1.68-3.55,4.49-3.55h2.62c.09,0,.14,0,.14-.15v-.84c0-1.58-.62-2.25-2.76-2.25a4.47,4.47,0,0,0-2.78.81c-.12.1-.27.1-.34,0L73.7,34a.24.24,0,0,1,0-.33,6.4,6.4,0,0,1,3.91-1.13c3.27,0,4.52,1.08,4.52,3.91v7.61a.23.23,0,0,1-.24.24Zm-.29-3.72V39.33a.12.12,0,0,0-.14-.14H77.78c-2,0-2.85.57-2.85,1.87s.86,1.8,2.4,1.8C79.13,42.86,80.23,42,80.23,40.6Z"/><path d="M93.22,44.32a.22.22,0,0,1-.24-.24V43h0a3.49,3.49,0,0,1-3.26,1.61,3.8,3.8,0,0,1-4-2.76,9.68,9.68,0,0,1-.41-3.27,9.53,9.53,0,0,1,.41-3.24,3.8,3.8,0,0,1,4-2.76A3.48,3.48,0,0,1,93,34.14h0v-5.9a.23.23,0,0,1,.24-.24h1.53a.23.23,0,0,1,.24.24V44.08a.22.22,0,0,1-.24.24ZM92.71,41a7.41,7.41,0,0,0,.27-2.4,7.53,7.53,0,0,0-.27-2.4,2.71,2.71,0,0,0-5.06,0,8.21,8.21,0,0,0-.27,2.4,8,8,0,0,0,.27,2.4,2.7,2.7,0,0,0,5.06,0Z"/><path d="M98.62,41.49a8.48,8.48,0,0,1-.39-2.93,8.37,8.37,0,0,1,.39-2.9,4.87,4.87,0,0,1,9.07,0,8.65,8.65,0,0,1,.38,2.9,8.77,8.77,0,0,1-.38,2.93,4.87,4.87,0,0,1-9.07,0Zm7.12-.58a7.22,7.22,0,0,0,.27-2.35,7.16,7.16,0,0,0-.27-2.33,2.76,2.76,0,0,0-5.18,0,7.5,7.5,0,0,0-.26,2.33,7.56,7.56,0,0,0,.26,2.35,2.76,2.76,0,0,0,5.18,0Z"/><path d="M124.27,44.32a.23.23,0,0,1-.24-.24V43h0a3.51,3.51,0,0,1-3.27,1.61,3.81,3.81,0,0,1-4-2.76,9.68,9.68,0,0,1-.41-3.27,9.53,9.53,0,0,1,.41-3.24,3.81,3.81,0,0,1,4-2.76A3.5,3.5,0,0,1,124,34.14h0v-5.9a.23.23,0,0,1,.24-.24h1.54a.23.23,0,0,1,.24.24V44.08a.23.23,0,0,1-.24.24Zm-.5-3.36a7.47,7.47,0,0,0,.26-2.4,7.59,7.59,0,0,0-.26-2.4,2.72,2.72,0,0,0-5.07,0,8.26,8.26,0,0,0-.26,2.4,8,8,0,0,0,.26,2.4,2.71,2.71,0,0,0,5.07,0Z"/><path d="M129.67,41.47a9.1,9.1,0,0,1-.38-2.91,8.87,8.87,0,0,1,.36-2.9,4.83,4.83,0,0,1,9,0,10,10,0,0,1,.36,3.28.23.23,0,0,1-.26.25H131.5c-.1,0-.15,0-.15.14a4.3,4.3,0,0,0,.19,1.39,2.84,2.84,0,0,0,2.91,2,3.74,3.74,0,0,0,3-1.27.25.25,0,0,1,.36,0l1,.89a.22.22,0,0,1,0,.34,5.59,5.59,0,0,1-4.49,2A4.45,4.45,0,0,1,129.67,41.47Zm7.15-3.89a.13.13,0,0,0,.15-.15,4,4,0,0,0-.17-1.29,2.84,2.84,0,0,0-5.28,0,4,4,0,0,0-.17,1.29.13.13,0,0,0,.15.15Z"/><path d="M147.24,42.86a.23.23,0,0,1,0-.34l1-1.05a.23.23,0,0,1,.34,0,5.6,5.6,0,0,0,3.55,1.32c1.68,0,2.52-.73,2.52-1.76s-.43-1.41-2.23-1.61l-1.22-.12c-2.26-.24-3.44-1.36-3.44-3.24,0-2.18,1.56-3.5,4.27-3.5a6.83,6.83,0,0,1,4.08,1.27.22.22,0,0,1,0,.34l-.81,1a.24.24,0,0,1-.34,0,6,6,0,0,0-3.1-.94c-1.43,0-2.18.65-2.18,1.59s.55,1.39,2.26,1.56l1.2.12c2.33.21,3.45,1.39,3.45,3.24,0,2.25-1.63,3.77-4.63,3.77A7.18,7.18,0,0,1,147.24,42.86Z"/><path d="M159.48,41.47a9.05,9.05,0,0,1-.39-2.91,8.87,8.87,0,0,1,.36-2.9,4.84,4.84,0,0,1,9,0,10,10,0,0,1,.36,3.28.24.24,0,0,1-.26.25H161.3a.12.12,0,0,0-.14.14,4.3,4.3,0,0,0,.19,1.39,2.84,2.84,0,0,0,2.91,2,3.77,3.77,0,0,0,3-1.27.25.25,0,0,1,.36,0l1,.89a.22.22,0,0,1,0,.34,5.62,5.62,0,0,1-4.49,2A4.45,4.45,0,0,1,159.48,41.47Zm7.15-3.89c.1,0,.14,0,.14-.15a4,4,0,0,0-.16-1.29,2.84,2.84,0,0,0-5.28,0,4,4,0,0,0-.17,1.29c0,.1.05.15.14.15Z"/><path d="M171.84,47.2a.21.21,0,0,1,0-.33l1-1a.22.22,0,0,1,.36,0A3.81,3.81,0,0,0,175.92,47c1.89,0,2.9-1,2.9-3.09V42.59h0a3.3,3.3,0,0,1-3.19,1.59,3.78,3.78,0,0,1-3.87-2.79,8.92,8.92,0,0,1-.38-3,9,9,0,0,1,.38-3,3.77,3.77,0,0,1,3.87-2.78,3.3,3.3,0,0,1,3.19,1.58h0V33.06a.23.23,0,0,1,.24-.24h1.54a.23.23,0,0,1,.24.24V43.82c0,3.26-1.78,5.09-5,5.09A5.2,5.2,0,0,1,171.84,47.2Zm6.72-6.6a7.08,7.08,0,0,0,.26-2.23,7.12,7.12,0,0,0-.26-2.23,2.59,2.59,0,0,0-4.87,0,6.93,6.93,0,0,0-.29,2.23,6.89,6.89,0,0,0,.29,2.23,2.34,2.34,0,0,0,2.42,1.73A2.38,2.38,0,0,0,178.56,40.6Z"/><path d="M192,44.32a.23.23,0,0,1-.24-.24V43h0a3.52,3.52,0,0,1-3.15,1.59c-2.52,0-4-1.73-4-4.35V33.06a.23.23,0,0,1,.24-.24h1.53a.23.23,0,0,1,.24.24v6.7c0,1.87.84,3,2.55,3a2.55,2.55,0,0,0,2.59-2.83V33.06a.23.23,0,0,1,.24-.24h1.54a.23.23,0,0,1,.24.24v11a.23.23,0,0,1-.24.24Z"/><path d="M198,44.32a.23.23,0,0,1-.24-.24v-11a.23.23,0,0,1,.24-.24h1.54a.23.23,0,0,1,.24.24v1.18h0a3.2,3.2,0,0,1,3.05-1.68,3.56,3.56,0,0,1,2.35.86c.12.12.15.22,0,.34l-.89,1.18a.22.22,0,0,1-.34,0,3.25,3.25,0,0,0-1.77-.55c-1.75,0-2.47,1.37-2.47,3.36v6.29a.23.23,0,0,1-.24.24Z"/><path d="M207.74,30.23a.23.23,0,0,1-.24-.24V28.24a.23.23,0,0,1,.24-.24h1.63a.23.23,0,0,1,.24.24V30a.22.22,0,0,1-.24.24Zm0,14.09a.23.23,0,0,1-.24-.24v-11a.23.23,0,0,1,.24-.24h1.54a.23.23,0,0,1,.24.24v11a.23.23,0,0,1-.24.24Z"/><path d="M220.7,44.32a.23.23,0,0,1-.24-.24V43h0a3.51,3.51,0,0,1-3.27,1.61,3.81,3.81,0,0,1-4-2.76,9.68,9.68,0,0,1-.41-3.27,9.53,9.53,0,0,1,.41-3.24,3.81,3.81,0,0,1,4-2.76,3.5,3.5,0,0,1,3.27,1.58h0v-5.9a.23.23,0,0,1,.24-.24h1.54a.23.23,0,0,1,.24.24V44.08a.23.23,0,0,1-.24.24ZM220.2,41a7.47,7.47,0,0,0,.26-2.4,7.59,7.59,0,0,0-.26-2.4,2.72,2.72,0,0,0-5.07,0,8.26,8.26,0,0,0-.26,2.4,8,8,0,0,0,.26,2.4,2.71,2.71,0,0,0,5.07,0Z"/><path d="M233.37,44.32a.23.23,0,0,1-.24-.24v-1h0a3.77,3.77,0,0,1-3.41,1.52c-2.18,0-3.86-1.13-3.86-3.46s1.68-3.55,4.49-3.55h2.61a.13.13,0,0,0,.15-.15v-.84c0-1.58-.63-2.25-2.76-2.25a4.48,4.48,0,0,0-2.79.81c-.12.1-.26.1-.33,0L226.56,34a.24.24,0,0,1,.05-.33,6.36,6.36,0,0,1,3.91-1.13c3.26,0,4.51,1.08,4.51,3.91v7.61a.23.23,0,0,1-.24.24Zm-.28-3.72V39.33c0-.1-.05-.14-.15-.14h-2.3c-2,0-2.86.57-2.86,1.87s.87,1.8,2.4,1.8C232,42.86,233.09,42,233.09,40.6Z"/><path d="M246.07,44.32a.23.23,0,0,1-.24-.24V43h0a3.52,3.52,0,0,1-3.27,1.61,3.81,3.81,0,0,1-4-2.76,9.68,9.68,0,0,1-.41-3.27,9.53,9.53,0,0,1,.41-3.24,3.81,3.81,0,0,1,4-2.76,3.51,3.51,0,0,1,3.27,1.58h0v-5.9a.23.23,0,0,1,.24-.24h1.54a.23.23,0,0,1,.24.24V44.08a.23.23,0,0,1-.24.24Zm-.5-3.36a7.47,7.47,0,0,0,.26-2.4,7.59,7.59,0,0,0-.26-2.4,2.72,2.72,0,0,0-5.07,0,8.26,8.26,0,0,0-.26,2.4,8,8,0,0,0,.26,2.4,2.71,2.71,0,0,0,5.07,0Z"/><path d="M257.78,48.64a.23.23,0,0,1-.24-.24V33.06a.23.23,0,0,1,.24-.24h1.54a.23.23,0,0,1,.24.24v1.08h0a3.5,3.5,0,0,1,3.27-1.58,3.81,3.81,0,0,1,4,2.76,9.56,9.56,0,0,1,.4,3.24,9.71,9.71,0,0,1-.4,3.27,3.81,3.81,0,0,1-4,2.76A3.51,3.51,0,0,1,259.58,43h0V48.4a.23.23,0,0,1-.24.24ZM264.89,41a8,8,0,0,0,.26-2.4,8.26,8.26,0,0,0-.26-2.4,2.72,2.72,0,0,0-5.07,0,7.59,7.59,0,0,0-.26,2.4,7.47,7.47,0,0,0,.26,2.4,2.71,2.71,0,0,0,5.07,0Z"/><path d="M277.41,44.32a.23.23,0,0,1-.24-.24v-1h0a3.77,3.77,0,0,1-3.41,1.52c-2.18,0-3.86-1.13-3.86-3.46s1.68-3.55,4.49-3.55H277a.13.13,0,0,0,.15-.15v-.84c0-1.58-.63-2.25-2.76-2.25a4.48,4.48,0,0,0-2.79.81c-.12.1-.26.1-.33,0L270.6,34a.24.24,0,0,1,0-.33,6.36,6.36,0,0,1,3.91-1.13c3.26,0,4.51,1.08,4.51,3.91v7.61a.23.23,0,0,1-.24.24Zm-.28-3.72V39.33c0-.1-.05-.14-.15-.14h-2.3c-2,0-2.86.57-2.86,1.87s.87,1.8,2.4,1.8C276,42.86,277.13,42,277.13,40.6Z"/><path d="M283.15,44.32a.23.23,0,0,1-.24-.24v-11a.23.23,0,0,1,.24-.24h1.54a.23.23,0,0,1,.24.24v1.18h0A3.2,3.2,0,0,1,288,32.56a3.58,3.58,0,0,1,2.35.86c.12.12.14.22,0,.34l-.89,1.18a.22.22,0,0,1-.34,0,3.25,3.25,0,0,0-1.77-.55c-1.75,0-2.47,1.37-2.47,3.36v6.29a.23.23,0,0,1-.24.24Z"/><path d="M299.14,44.32a.23.23,0,0,1-.25-.24v-1h0a3.75,3.75,0,0,1-3.41,1.52c-2.18,0-3.86-1.13-3.86-3.46s1.68-3.55,4.49-3.55h2.61a.13.13,0,0,0,.15-.15v-.84c0-1.58-.63-2.25-2.76-2.25a4.48,4.48,0,0,0-2.79.81c-.12.1-.26.1-.33,0L292.32,34a.24.24,0,0,1,.05-.33,6.36,6.36,0,0,1,3.91-1.13c3.26,0,4.51,1.08,4.51,3.91v7.61a.23.23,0,0,1-.24.24Zm-.29-3.72V39.33c0-.1-.05-.14-.15-.14h-2.3c-2,0-2.86.57-2.86,1.87s.87,1.8,2.4,1.8C297.74,42.86,298.85,42,298.85,40.6Z"/><path d="M310.08,41.47a9.05,9.05,0,0,1-.39-2.91,8.87,8.87,0,0,1,.36-2.9,4.84,4.84,0,0,1,9,0,10,10,0,0,1,.36,3.28.24.24,0,0,1-.26.25H311.9a.12.12,0,0,0-.14.14,4.3,4.3,0,0,0,.19,1.39,2.84,2.84,0,0,0,2.9,2,3.78,3.78,0,0,0,3-1.27.25.25,0,0,1,.36,0l1,.89a.22.22,0,0,1,0,.34,5.62,5.62,0,0,1-4.49,2A4.45,4.45,0,0,1,310.08,41.47Zm7.15-3.89c.1,0,.14,0,.14-.15a4,4,0,0,0-.16-1.29,2.84,2.84,0,0,0-5.28,0,4,4,0,0,0-.17,1.29c0,.1.05.15.14.15Z"/><path d="M325.75,44.32c-.17,0-.24-.09-.29-.24l-4.13-11c0-.14,0-.24.2-.24h1.65c.17,0,.24.08.31.24l3,8.26h0l2.9-8.26a.29.29,0,0,1,.29-.24h1.63c.17,0,.24.1.19.24l-4.1,11a.3.3,0,0,1-.31.24Z"/><path d="M334.32,30.23a.22.22,0,0,1-.24-.24V28.24a.23.23,0,0,1,.24-.24H336a.23.23,0,0,1,.24.24V30a.23.23,0,0,1-.24.24Zm.05,14.09a.22.22,0,0,1-.24-.24v-11a.23.23,0,0,1,.24-.24h1.53a.23.23,0,0,1,.24.24v11a.22.22,0,0,1-.24.24Z"/><path d="M343.41,44.44c-2.23,0-3.09-1-3.09-3.26V34.6c0-.1-.05-.14-.15-.14h-1a.23.23,0,0,1-.24-.24V33.06a.23.23,0,0,1,.24-.24h1c.1,0,.15,0,.15-.14V29.44a.23.23,0,0,1,.24-.24h1.53a.23.23,0,0,1,.24.24v3.24c0,.1.05.14.15.14h1.82a.23.23,0,0,1,.24.24v1.16a.23.23,0,0,1-.24.24h-1.82c-.1,0-.15,0-.15.14v6.5c0,1.16.44,1.47,1.47,1.47h.5a.23.23,0,0,1,.24.24V44.2a.22.22,0,0,1-.24.24Z"/><path d="M354.62,44.32a.23.23,0,0,1-.24-.24v-1h0A3.77,3.77,0,0,1,351,44.59c-2.18,0-3.86-1.13-3.86-3.46s1.68-3.55,4.48-3.55h2.62c.1,0,.14,0,.14-.15v-.84c0-1.58-.62-2.25-2.76-2.25a4.47,4.47,0,0,0-2.78.81.22.22,0,0,1-.34,0L347.81,34a.24.24,0,0,1,0-.33,6.42,6.42,0,0,1,3.92-1.13c3.26,0,4.51,1.08,4.51,3.91v7.61a.23.23,0,0,1-.24.24Zm-.29-3.72V39.33c0-.1,0-.14-.14-.14h-2.3c-2,0-2.86.57-2.86,1.87s.86,1.8,2.4,1.8C353.23,42.86,354.33,42,354.33,40.6Z"/><path d="M360.36,44.32a.22.22,0,0,1-.24-.24v-11a.23.23,0,0,1,.24-.24h1.53a.23.23,0,0,1,.24.24v1.18h0a3.2,3.2,0,0,1,3-1.68,3.58,3.58,0,0,1,2.35.86c.12.12.14.22.05.34l-.89,1.18a.22.22,0,0,1-.34,0,3.28,3.28,0,0,0-1.77-.55c-1.76,0-2.48,1.37-2.48,3.36v6.29a.22.22,0,0,1-.24.24Z"/><path d="M1.7,58.23A.22.22,0,0,1,1.47,58V56.24A.22.22,0,0,1,1.7,56H3.34a.23.23,0,0,1,.24.24V58a.23.23,0,0,1-.24.24Zm.05,14.09a.23.23,0,0,1-.24-.24v-11a.23.23,0,0,1,.24-.24H3.29a.23.23,0,0,1,.24.24v11a.23.23,0,0,1-.24.24Z"/><path d="M14.45,72.32a.22.22,0,0,1-.24-.24V65.36c0-1.85-.84-2.93-2.57-2.93A2.58,2.58,0,0,0,9,65.24v6.84a.23.23,0,0,1-.24.24H7.22A.23.23,0,0,1,7,72.08v-11a.23.23,0,0,1,.24-.24H8.76a.23.23,0,0,1,.24.24v1.06H9a3.65,3.65,0,0,1,3.22-1.56c2.5,0,4,1.7,4,4.32v7.2a.22.22,0,0,1-.24.24Z"/><path d="M19.22,63.66a4.45,4.45,0,0,1,4.54-3.1A4.62,4.62,0,0,1,27.7,62.5c.07.12.07.22-.08.34l-1.05.86a.22.22,0,0,1-.34,0,2.82,2.82,0,0,0-2.47-1.25,2.5,2.5,0,0,0-2.57,1.8,10.66,10.66,0,0,0,0,4.68,2.5,2.5,0,0,0,2.57,1.8,2.82,2.82,0,0,0,2.47-1.24.22.22,0,0,1,.34,0l1.05.87c.15.12.15.21.08.33a4.62,4.62,0,0,1-3.94,2,4.46,4.46,0,0,1-4.54-3.1,10.15,10.15,0,0,1-.36-2.93A10,10,0,0,1,19.22,63.66Z"/><path d="M30.6,58.23a.23.23,0,0,1-.24-.24V56.24A.23.23,0,0,1,30.6,56h1.63a.23.23,0,0,1,.24.24V58a.22.22,0,0,1-.24.24Zm0,14.09a.22.22,0,0,1-.24-.24v-11a.23.23,0,0,1,.24-.24h1.53a.23.23,0,0,1,.24.24v11a.22.22,0,0,1-.24.24Z"/><path d="M43.08,72.32a.23.23,0,0,1-.24-.24V71h0a3.52,3.52,0,0,1-3.27,1.61,3.81,3.81,0,0,1-4-2.76,9.68,9.68,0,0,1-.41-3.27,9.57,9.57,0,0,1,.41-3.24,3.81,3.81,0,0,1,4-2.76,3.51,3.51,0,0,1,3.27,1.58h0v-5.9a.23.23,0,0,1,.24-.24h1.54a.23.23,0,0,1,.24.24V72.08a.23.23,0,0,1-.24.24ZM42.58,69a7.47,7.47,0,0,0,.26-2.4,7.59,7.59,0,0,0-.26-2.4,2.72,2.72,0,0,0-5.07,0,8.26,8.26,0,0,0-.26,2.4,8,8,0,0,0,.26,2.4,2.71,2.71,0,0,0,5.07,0Z"/><path d="M48,69.47a9.1,9.1,0,0,1-.38-2.91,8.87,8.87,0,0,1,.36-2.9,4.42,4.42,0,0,1,4.51-3.1A4.45,4.45,0,0,1,57,63.66a10,10,0,0,1,.36,3.28.24.24,0,0,1-.26.25H49.82a.12.12,0,0,0-.14.14,4.3,4.3,0,0,0,.19,1.39,2.84,2.84,0,0,0,2.91,2,3.77,3.77,0,0,0,2.95-1.27.25.25,0,0,1,.36,0l1,.89a.22.22,0,0,1,0,.34,5.62,5.62,0,0,1-4.49,2A4.45,4.45,0,0,1,48,69.47Zm7.15-3.89a.13.13,0,0,0,.15-.15,4,4,0,0,0-.17-1.29,2.84,2.84,0,0,0-5.28,0,4,4,0,0,0-.17,1.29c0,.1,0,.15.14.15Z"/><path d="M67.58,72.32a.23.23,0,0,1-.24-.24V65.36c0-1.85-.84-2.93-2.56-2.93a2.58,2.58,0,0,0-2.64,2.81v6.84a.23.23,0,0,1-.24.24H60.36a.23.23,0,0,1-.24-.24v-11a.23.23,0,0,1,.24-.24H61.9a.23.23,0,0,1,.24.24v1.06h0a3.63,3.63,0,0,1,3.22-1.56c2.49,0,4,1.7,4,4.32v7.2a.23.23,0,0,1-.24.24Z"/><path d="M76,72.44c-2.23,0-3.1-1-3.1-3.26V62.6c0-.1,0-.14-.14-.14h-1a.23.23,0,0,1-.24-.24V61.06a.23.23,0,0,1,.24-.24h1c.1,0,.14,0,.14-.14V57.44a.23.23,0,0,1,.25-.24h1.53a.23.23,0,0,1,.24.24v3.24a.12.12,0,0,0,.14.14h1.83a.23.23,0,0,1,.24.24v1.16a.23.23,0,0,1-.24.24H75.09a.12.12,0,0,0-.14.14v6.5c0,1.16.43,1.47,1.47,1.47h.5a.23.23,0,0,1,.24.24V72.2a.23.23,0,0,1-.24.24Z"/><path d="M79.49,69.47a9.05,9.05,0,0,1-.39-2.91,8.87,8.87,0,0,1,.36-2.9,4.84,4.84,0,0,1,9,0,10,10,0,0,1,.36,3.28.24.24,0,0,1-.27.25H81.31a.12.12,0,0,0-.14.14,4.3,4.3,0,0,0,.19,1.39,2.84,2.84,0,0,0,2.9,2,3.78,3.78,0,0,0,3-1.27.25.25,0,0,1,.36,0l1,.89a.22.22,0,0,1,0,.34,5.59,5.59,0,0,1-4.48,2A4.45,4.45,0,0,1,79.49,69.47Zm7.15-3.89c.1,0,.14,0,.14-.15a4,4,0,0,0-.16-1.29,2.84,2.84,0,0,0-5.28,0,4,4,0,0,0-.17,1.29c0,.1,0,.15.14.15Z"/><path d="M90.82,70.86a.23.23,0,0,1,0-.34l1-1a.23.23,0,0,1,.34,0,5.6,5.6,0,0,0,3.55,1.32c1.68,0,2.52-.73,2.52-1.76s-.43-1.41-2.23-1.61l-1.23-.11c-2.25-.25-3.43-1.37-3.43-3.25,0-2.18,1.56-3.5,4.27-3.5a6.88,6.88,0,0,1,4.08,1.27.24.24,0,0,1,0,.34l-.82,1a.23.23,0,0,1-.33,0,6.07,6.07,0,0,0-3.1-.94c-1.44,0-2.18.65-2.18,1.59s.55,1.39,2.25,1.56l1.2.12c2.33.21,3.46,1.39,3.46,3.24,0,2.25-1.63,3.77-4.63,3.77A7.16,7.16,0,0,1,90.82,70.86Z"/><path d="M108.26,76.64a.23.23,0,0,1-.24-.24V75a.23.23,0,0,1,.24-.24h.43c.94,0,1.45-.41,2-1.73L111,72,106.8,61.06c0-.14,0-.24.19-.24h1.68a.29.29,0,0,1,.29.24l3,8.31h0l2.91-8.31a.28.28,0,0,1,.28-.24h1.64c.14,0,.24.1.19.24l-4.54,12.15c-1,2.71-1.89,3.43-3.62,3.43Z"/><path d="M123.93,56a.31.31,0,0,1,.32-.24h1.29c.15,0,.22.09.17.24l-5.33,16.37a.3.3,0,0,1-.31.24H118.8a.16.16,0,0,1-.17-.24Z"/><path d="M128.35,69.49a8.77,8.77,0,0,1-.38-2.93,8.65,8.65,0,0,1,.38-2.9,4.87,4.87,0,0,1,9.07,0,8.37,8.37,0,0,1,.39,2.9,8.48,8.48,0,0,1-.39,2.93,4.87,4.87,0,0,1-9.07,0Zm7.13-.58a7.6,7.6,0,0,0,.26-2.35,7.5,7.5,0,0,0-.26-2.33,2.77,2.77,0,0,0-5.19,0,7.5,7.5,0,0,0-.26,2.33,7.6,7.6,0,0,0,.26,2.35,2.77,2.77,0,0,0,5.19,0Z"/><path d="M152.81,72.32a.22.22,0,0,1-.24-.24v-1h0a3.75,3.75,0,0,1-3.41,1.52c-2.18,0-3.86-1.13-3.86-3.46s1.68-3.55,4.49-3.55h2.61a.13.13,0,0,0,.15-.15v-.84c0-1.58-.63-2.25-2.76-2.25a4.5,4.5,0,0,0-2.79.81c-.12.1-.26.1-.33,0L146,62a.24.24,0,0,1,0-.33A6.38,6.38,0,0,1,150,60.56c3.26,0,4.51,1.08,4.51,3.91v7.61a.22.22,0,0,1-.24.24Zm-.29-3.72V67.33c0-.1-.05-.14-.15-.14h-2.3c-2,0-2.86.57-2.86,1.87s.87,1.8,2.4,1.8C151.41,70.86,152.52,70,152.52,68.6Z"/><path d="M157.49,63.66a4.43,4.43,0,0,1,4.53-3.1A4.62,4.62,0,0,1,166,62.5a.23.23,0,0,1-.07.34l-1.06.86a.22.22,0,0,1-.34,0A2.82,2.82,0,0,0,162,62.43a2.5,2.5,0,0,0-2.57,1.8,10.66,10.66,0,0,0,0,4.68,2.5,2.5,0,0,0,2.57,1.8,2.82,2.82,0,0,0,2.47-1.24.22.22,0,0,1,.34,0l1.06.87c.14.12.14.21.07.33a4.62,4.62,0,0,1-3.94,2,4.44,4.44,0,0,1-4.53-3.1,9.81,9.81,0,0,1-.36-2.93A9.69,9.69,0,0,1,157.49,63.66Z"/><path d="M168.05,63.66a4.43,4.43,0,0,1,4.53-3.1,4.62,4.62,0,0,1,3.94,1.94.23.23,0,0,1-.07.34l-1.06.86a.22.22,0,0,1-.34,0,2.82,2.82,0,0,0-2.47-1.25,2.5,2.5,0,0,0-2.57,1.8,10.66,10.66,0,0,0,0,4.68,2.5,2.5,0,0,0,2.57,1.8,2.82,2.82,0,0,0,2.47-1.24.22.22,0,0,1,.34,0l1.06.87c.14.12.14.21.07.33a4.62,4.62,0,0,1-3.94,2,4.44,4.44,0,0,1-4.53-3.1,9.76,9.76,0,0,1-.37-2.93A9.63,9.63,0,0,1,168.05,63.66Z"/><path d="M179.42,58.23a.23.23,0,0,1-.24-.24V56.24a.23.23,0,0,1,.24-.24h1.63a.23.23,0,0,1,.24.24V58a.22.22,0,0,1-.24.24Zm.05,14.09a.23.23,0,0,1-.24-.24v-11a.23.23,0,0,1,.24-.24H181a.23.23,0,0,1,.24.24v11a.23.23,0,0,1-.24.24Z"/><path d="M191.9,72.32a.23.23,0,0,1-.24-.24V71h0a3.51,3.51,0,0,1-3.27,1.61,3.81,3.81,0,0,1-4-2.76,9.68,9.68,0,0,1-.41-3.27,9.57,9.57,0,0,1,.41-3.24,3.81,3.81,0,0,1,4-2.76,3.5,3.5,0,0,1,3.27,1.58h0v-5.9a.23.23,0,0,1,.24-.24h1.54a.23.23,0,0,1,.24.24V72.08a.23.23,0,0,1-.24.24ZM191.4,69a7.47,7.47,0,0,0,.26-2.4,7.59,7.59,0,0,0-.26-2.4,2.72,2.72,0,0,0-5.07,0,8.26,8.26,0,0,0-.26,2.4,8,8,0,0,0,.26,2.4,2.71,2.71,0,0,0,5.07,0Z"/><path d="M196.82,69.47a9.1,9.1,0,0,1-.38-2.91,8.87,8.87,0,0,1,.36-2.9,4.83,4.83,0,0,1,9,0,10,10,0,0,1,.36,3.28.23.23,0,0,1-.26.25h-7.28a.12.12,0,0,0-.14.14,4.3,4.3,0,0,0,.19,1.39,2.84,2.84,0,0,0,2.91,2,3.74,3.74,0,0,0,3-1.27.25.25,0,0,1,.36,0l1,.89a.22.22,0,0,1,0,.34,5.59,5.59,0,0,1-4.49,2A4.45,4.45,0,0,1,196.82,69.47ZM204,65.58a.13.13,0,0,0,.15-.15,4,4,0,0,0-.17-1.29,2.84,2.84,0,0,0-5.28,0,4,4,0,0,0-.17,1.29c0,.1.05.15.14.15Z"/><path d="M216.41,72.32a.22.22,0,0,1-.24-.24V65.36c0-1.85-.84-2.93-2.57-2.93A2.58,2.58,0,0,0,211,65.24v6.84a.23.23,0,0,1-.24.24h-1.54a.23.23,0,0,1-.24-.24v-11a.23.23,0,0,1,.24-.24h1.54a.23.23,0,0,1,.24.24v1.06h0a3.63,3.63,0,0,1,3.22-1.56c2.49,0,4,1.7,4,4.32v7.2a.22.22,0,0,1-.24.24Z"/><path d="M224.85,72.44c-2.23,0-3.09-1-3.09-3.26V62.6c0-.1,0-.14-.15-.14h-1a.23.23,0,0,1-.24-.24V61.06a.23.23,0,0,1,.24-.24h1c.1,0,.15,0,.15-.14V57.44a.23.23,0,0,1,.24-.24h1.53a.23.23,0,0,1,.24.24v3.24c0,.1,0,.14.15.14h1.82a.23.23,0,0,1,.24.24v1.16a.23.23,0,0,1-.24.24h-1.82c-.1,0-.15,0-.15.14v6.5c0,1.16.43,1.47,1.47,1.47h.5a.23.23,0,0,1,.24.24V72.2a.22.22,0,0,1-.24.24Z"/><path d="M228.31,69.47a9.05,9.05,0,0,1-.39-2.91,8.87,8.87,0,0,1,.36-2.9,4.84,4.84,0,0,1,9,0,10,10,0,0,1,.36,3.28.24.24,0,0,1-.26.25h-7.28a.12.12,0,0,0-.14.14,4.3,4.3,0,0,0,.19,1.39,2.84,2.84,0,0,0,2.91,2A3.77,3.77,0,0,0,236,69.44a.25.25,0,0,1,.36,0l1,.89a.22.22,0,0,1,0,.34,5.62,5.62,0,0,1-4.49,2A4.45,4.45,0,0,1,228.31,69.47Zm7.15-3.89c.1,0,.14,0,.14-.15a4,4,0,0,0-.16-1.29,2.84,2.84,0,0,0-5.28,0,4,4,0,0,0-.17,1.29c0,.1,0,.15.14.15Z"/><path d="M239.64,70.86a.23.23,0,0,1,0-.34l1-1a.23.23,0,0,1,.34,0,5.6,5.6,0,0,0,3.55,1.32c1.68,0,2.52-.73,2.52-1.76s-.43-1.41-2.23-1.61l-1.23-.11c-2.25-.25-3.43-1.37-3.43-3.25,0-2.18,1.56-3.5,4.27-3.5a6.88,6.88,0,0,1,4.08,1.27.24.24,0,0,1,0,.34l-.82,1a.23.23,0,0,1-.33,0,6.07,6.07,0,0,0-3.1-.94c-1.44,0-2.18.65-2.18,1.59s.55,1.39,2.25,1.56l1.2.12c2.33.21,3.46,1.39,3.46,3.24,0,2.25-1.63,3.77-4.63,3.77A7.16,7.16,0,0,1,239.64,70.86Z"/></g></g></svg>