<svg xmlns="http://www.w3.org/2000/svg" viewBox="0 0 604.59 47.6"><title>7b</title><g id="Capa_2" data-name="Capa 2"><g id="respuestas_contorno" data-name="respuestas contorno"><path d="M4.67,15.4a.21.21,0,0,1-.23-.22V2.4c0-.09,0-.13-.13-.13H.22A.21.21,0,0,1,0,2.05V.66A.21.21,0,0,1,.22.44H10.63a.21.21,0,0,1,.22.22V2.05a.21.21,0,0,1-.22.22H6.54c-.09,0-.14,0-.14.13V15.18a.21.21,0,0,1-.22.22Z"/><path d="M10.08,12.78a8.2,8.2,0,0,1-.36-2.66,8.17,8.17,0,0,1,.33-2.66,4.08,4.08,0,0,1,4.14-2.84,4.09,4.09,0,0,1,4.14,2.84,9.18,9.18,0,0,1,.33,3,.21.21,0,0,1-.24.22H11.75c-.09,0-.13.05-.13.14a3.93,3.93,0,0,0,.17,1.27,2.62,2.62,0,0,0,2.67,1.83,3.43,3.43,0,0,0,2.7-1.17.22.22,0,0,1,.33,0l.9.81a.21.21,0,0,1,0,.31,5.13,5.13,0,0,1-4.12,1.8A4.07,4.07,0,0,1,10.08,12.78Zm6.55-3.56c.09,0,.13,0,.13-.13a3.71,3.71,0,0,0-.15-1.19,2.37,2.37,0,0,0-2.42-1.65A2.37,2.37,0,0,0,11.77,7.9a3.71,3.71,0,0,0-.15,1.19c0,.09,0,.13.13.13Z"/><path d="M27.15,15.4a.21.21,0,0,1-.22-.22V9c0-1.69-.77-2.68-2.36-2.68a2.36,2.36,0,0,0-2.42,2.57v6.27a.2.2,0,0,1-.22.22h-1.4a.2.2,0,0,1-.22-.22V5.08a.2.2,0,0,1,.22-.22h1.4a.2.2,0,0,1,.22.22v1h0a3.32,3.32,0,0,1,2.94-1.43c2.29,0,3.66,1.56,3.66,4v6.6a.21.21,0,0,1-.22.22Z"/><path d="M30.73,18a.21.21,0,0,1,0-.31l.9-.9a.21.21,0,0,1,.33,0,3.5,3.5,0,0,0,2.48,1.06c1.74,0,2.67-.9,2.67-2.84V13.82h0a3,3,0,0,1-2.92,1.45,3.45,3.45,0,0,1-3.54-2.55A8.06,8.06,0,0,1,30.29,10a8.12,8.12,0,0,1,.36-2.78,3.45,3.45,0,0,1,3.54-2.55,3,3,0,0,1,2.92,1.45h0v-1a.2.2,0,0,1,.22-.22h1.4a.2.2,0,0,1,.22.22v9.86c0,3-1.62,4.66-4.59,4.66A4.76,4.76,0,0,1,30.73,18Zm6.16-6a6.24,6.24,0,0,0,.25-2,6.34,6.34,0,0,0-.25-2,2.37,2.37,0,0,0-4.46,0,6.48,6.48,0,0,0-.27,2,6.37,6.37,0,0,0,.27,2,2.15,2.15,0,0,0,2.22,1.59A2.17,2.17,0,0,0,36.89,12Z"/><path d="M47.65,15.4a.21.21,0,0,1-.22-.22v-.92h0a3.45,3.45,0,0,1-3.12,1.38c-2,0-3.55-1-3.55-3.16s1.54-3.26,4.12-3.26h2.4a.12.12,0,0,0,.13-.13V8.32c0-1.45-.57-2.07-2.53-2.07A4.07,4.07,0,0,0,42.31,7,.21.21,0,0,1,42,7l-.6-1a.24.24,0,0,1,.05-.31,5.87,5.87,0,0,1,3.58-1c3,0,4.14,1,4.14,3.59v7a.21.21,0,0,1-.22.22ZM47.39,12V10.83a.12.12,0,0,0-.13-.14H45.14c-1.82,0-2.61.53-2.61,1.72s.79,1.65,2.2,1.65C46.38,14.06,47.39,13.29,47.39,12Z"/><path d="M55.55,19.36a.21.21,0,0,1-.22-.22V5.08a.21.21,0,0,1,.22-.22H57a.21.21,0,0,1,.22.22v1h0a3.21,3.21,0,0,1,3-1.45,3.48,3.48,0,0,1,3.63,2.53,8.61,8.61,0,0,1,.38,3,8.62,8.62,0,0,1-.38,3,3.47,3.47,0,0,1-3.63,2.53,3.2,3.2,0,0,1-3-1.47h0v5a.21.21,0,0,1-.22.22Zm6.51-7a7.18,7.18,0,0,0,.24-2.2,7.39,7.39,0,0,0-.24-2.2,2.49,2.49,0,0,0-4.64,0,6.79,6.79,0,0,0-.24,2.2,6.63,6.63,0,0,0,.24,2.2,2.48,2.48,0,0,0,4.64,0Z"/><path d="M66.06,15.4a.21.21,0,0,1-.22-.22V5.08a.21.21,0,0,1,.22-.22h1.41a.21.21,0,0,1,.22.22V6.16h0a3,3,0,0,1,2.8-1.54,3.26,3.26,0,0,1,2.16.79c.11.11.13.2,0,.31L71.9,6.8a.2.2,0,0,1-.31,0A3,3,0,0,0,70,6.34c-1.61,0-2.27,1.25-2.27,3.08v5.76a.21.21,0,0,1-.22.22Z"/><path d="M72.86,12.78a8.25,8.25,0,0,1-.35-2.66,8.17,8.17,0,0,1,.33-2.66,4.43,4.43,0,0,1,8.27,0,9.18,9.18,0,0,1,.33,3c0,.14-.08.22-.24.22H74.53a.12.12,0,0,0-.13.14,3.9,3.9,0,0,0,.18,1.27,2.6,2.6,0,0,0,2.66,1.83A3.44,3.44,0,0,0,80,12.76a.22.22,0,0,1,.33,0l.9.81a.2.2,0,0,1,0,.31,5.09,5.09,0,0,1-4.11,1.8A4.07,4.07,0,0,1,72.86,12.78Zm6.56-3.56c.09,0,.13,0,.13-.13A3.71,3.71,0,0,0,79.4,7.9a2.6,2.6,0,0,0-4.84,0,3.68,3.68,0,0,0-.16,1.19.12.12,0,0,0,.13.13Z"/><path d="M82.78,7.46a4.09,4.09,0,0,1,4.16-2.84A4.22,4.22,0,0,1,90.55,6.4c.07.11.07.2-.06.31l-1,.79a.2.2,0,0,1-.31,0,2.59,2.59,0,0,0-2.27-1.14A2.28,2.28,0,0,0,84.59,8a6.89,6.89,0,0,0-.24,2.13,7,7,0,0,0,.24,2.16,2.28,2.28,0,0,0,2.35,1.65,2.6,2.6,0,0,0,2.27-1.15.2.2,0,0,1,.31,0l1,.79c.13.11.13.2.06.31a4.22,4.22,0,0,1-3.61,1.78,4.09,4.09,0,0,1-4.16-2.83,9.43,9.43,0,0,1-.33-2.69A9.35,9.35,0,0,1,82.78,7.46Z"/><path d="M98.27,15.4a.21.21,0,0,1-.22-.22v-.92h0a3.45,3.45,0,0,1-3.12,1.38c-2,0-3.55-1-3.55-3.16s1.54-3.26,4.12-3.26h2.4A.12.12,0,0,0,98,9.09V8.32c0-1.45-.57-2.07-2.53-2.07A4.07,4.07,0,0,0,92.93,7a.21.21,0,0,1-.31,0L92,6a.24.24,0,0,1,0-.31,5.87,5.87,0,0,1,3.58-1c3,0,4.14,1,4.14,3.59v7a.21.21,0,0,1-.22.22ZM98,12V10.83a.12.12,0,0,0-.13-.14H95.76c-1.82,0-2.61.53-2.61,1.72s.79,1.65,2.2,1.65C97,14.06,98,13.29,98,12Z"/><path d="M108.61,15.4a.21.21,0,0,1-.22-.22v-1h0a3.21,3.21,0,0,1-2.88,1.45c-2.31,0-3.65-1.58-3.65-4V5.08a.2.2,0,0,1,.22-.22h1.4a.2.2,0,0,1,.22.22v6.14c0,1.72.77,2.71,2.34,2.71a2.34,2.34,0,0,0,2.37-2.6V5.08a.21.21,0,0,1,.22-.22H110a.21.21,0,0,1,.22.22v10.1a.21.21,0,0,1-.22.22Z"/><path d="M112.22,7.46a4.07,4.07,0,0,1,4.16-2.84A4.22,4.22,0,0,1,120,6.4a.22.22,0,0,1-.07.31l-1,.79a.2.2,0,0,1-.31,0,2.58,2.58,0,0,0-2.26-1.14A2.29,2.29,0,0,0,114,8a7.21,7.21,0,0,0-.24,2.13,7.3,7.3,0,0,0,.24,2.16,2.29,2.29,0,0,0,2.36,1.65,2.59,2.59,0,0,0,2.26-1.15.2.2,0,0,1,.31,0l1,.79a.22.22,0,0,1,.07.31,4.22,4.22,0,0,1-3.61,1.78,4.08,4.08,0,0,1-4.16-2.83,9.08,9.08,0,0,1-.33-2.69A9,9,0,0,1,112.22,7.46Z"/><path d="M121.77,2.49a.21.21,0,0,1-.22-.22V.66a.21.21,0,0,1,.22-.22h1.49a.2.2,0,0,1,.22.22V2.27a.2.2,0,0,1-.22.22Zm0,12.91a.21.21,0,0,1-.22-.22V5.08a.21.21,0,0,1,.22-.22h1.41a.21.21,0,0,1,.22.22v10.1a.21.21,0,0,1-.22.22Z"/><path d="M125.44,12.81a8,8,0,0,1-.35-2.69,7.92,7.92,0,0,1,.35-2.66,4.47,4.47,0,0,1,8.32,0,7.92,7.92,0,0,1,.35,2.66,8,8,0,0,1-.35,2.69,4.47,4.47,0,0,1-8.32,0Zm6.54-.53a7.13,7.13,0,0,0,.24-2.16A6.91,6.91,0,0,0,132,8a2.54,2.54,0,0,0-4.76,0,6.91,6.91,0,0,0-.24,2.13,7.13,7.13,0,0,0,.24,2.16,2.54,2.54,0,0,0,4.76,0Zm-3.17-9.13c-.13,0-.2-.09-.13-.22L130.35.22a.4.4,0,0,1,.37-.22h1.45c.14,0,.2.11.11.22l-2,2.71a.44.44,0,0,1-.42.22Z"/><path d="M142.6,15.4a.21.21,0,0,1-.22-.22V9c0-1.69-.77-2.68-2.35-2.68a2.36,2.36,0,0,0-2.42,2.57v6.27a.21.21,0,0,1-.22.22H136a.21.21,0,0,1-.22-.22V5.08a.21.21,0,0,1,.22-.22h1.41a.21.21,0,0,1,.22.22v1h0a3.35,3.35,0,0,1,3-1.43c2.29,0,3.65,1.56,3.65,4v6.6a.21.21,0,0,1-.22.22Z"/><path d="M150.46,19.36a.2.2,0,0,1-.22-.22V17.87a.2.2,0,0,1,.22-.22h.39c.86,0,1.32-.38,1.78-1.59l.36-1-3.88-10c0-.13,0-.22.18-.22h1.54a.26.26,0,0,1,.26.22l2.78,7.62h0l2.66-7.62a.27.27,0,0,1,.27-.22h1.49c.13,0,.22.09.18.22l-4.16,11.14c-.92,2.48-1.74,3.14-3.32,3.14Z"/><path d="M163.19,7.46a4.09,4.09,0,0,1,4.16-2.84A4.22,4.22,0,0,1,171,6.4c.07.11.07.2-.07.31l-1,.79a.19.19,0,0,1-.3,0,2.59,2.59,0,0,0-2.27-1.14A2.28,2.28,0,0,0,165,8a6.85,6.85,0,0,0-.25,2.13,6.94,6.94,0,0,0,.25,2.16,2.28,2.28,0,0,0,2.35,1.65,2.6,2.6,0,0,0,2.27-1.15.19.19,0,0,1,.3,0l1,.79c.14.11.14.2.07.31a4.22,4.22,0,0,1-3.61,1.78,4.09,4.09,0,0,1-4.16-2.83,9.08,9.08,0,0,1-.33-2.69A9,9,0,0,1,163.19,7.46Z"/><path d="M179.19,15.4a.21.21,0,0,1-.22-.22v-1h0a3.22,3.22,0,0,1-2.89,1.45c-2.31,0-3.65-1.58-3.65-4V5.08a.21.21,0,0,1,.22-.22H174a.21.21,0,0,1,.22.22v6.14c0,1.72.77,2.71,2.33,2.71a2.34,2.34,0,0,0,2.38-2.6V5.08a.21.21,0,0,1,.22-.22h1.41a.21.21,0,0,1,.22.22v10.1a.21.21,0,0,1-.22.22Z"/><path d="M182.82,12.78a8.2,8.2,0,0,1-.36-2.66,8.17,8.17,0,0,1,.33-2.66,4.44,4.44,0,0,1,8.28,0,9.18,9.18,0,0,1,.33,3,.21.21,0,0,1-.24.22h-6.67c-.09,0-.13.05-.13.14a3.93,3.93,0,0,0,.17,1.27,2.61,2.61,0,0,0,2.66,1.83,3.44,3.44,0,0,0,2.71-1.17.22.22,0,0,1,.33,0l.9.81a.21.21,0,0,1,0,.31,5.13,5.13,0,0,1-4.12,1.8A4.07,4.07,0,0,1,182.82,12.78Zm6.55-3.56c.09,0,.13,0,.13-.13a3.71,3.71,0,0,0-.15-1.19,2.6,2.6,0,0,0-4.84,0,3.71,3.71,0,0,0-.15,1.19c0,.09,0,.13.13.13Z"/><path d="M199.89,15.4a.21.21,0,0,1-.22-.22V9c0-1.69-.77-2.68-2.36-2.68a2.36,2.36,0,0,0-2.42,2.57v6.27a.2.2,0,0,1-.22.22h-1.4a.2.2,0,0,1-.22-.22V5.08a.2.2,0,0,1,.22-.22h1.4a.2.2,0,0,1,.22.22v1h0a3.32,3.32,0,0,1,2.94-1.43c2.29,0,3.66,1.56,3.66,4v6.6a.21.21,0,0,1-.22.22Z"/><path d="M206.75,15.51c-2,0-2.84-.92-2.84-3v-6c0-.09,0-.13-.13-.13h-.88a.21.21,0,0,1-.22-.22V5.08a.21.21,0,0,1,.22-.22h.88c.09,0,.13,0,.13-.13v-3a.21.21,0,0,1,.22-.22h1.41a.21.21,0,0,1,.22.22v3a.12.12,0,0,0,.13.13h1.68a.21.21,0,0,1,.22.22V6.14a.21.21,0,0,1-.22.22h-1.68a.12.12,0,0,0-.13.13v6c0,1.06.4,1.35,1.34,1.35h.47a.2.2,0,0,1,.22.22v1.27a.21.21,0,0,1-.22.22Z"/><path d="M209,12.78a8.25,8.25,0,0,1-.35-2.66A8.17,8.17,0,0,1,209,7.46a4.43,4.43,0,0,1,8.27,0,9.18,9.18,0,0,1,.33,3,.21.21,0,0,1-.24.22h-6.67c-.09,0-.13.05-.13.14a4.23,4.23,0,0,0,.17,1.27,2.62,2.62,0,0,0,2.67,1.83,3.43,3.43,0,0,0,2.7-1.17.22.22,0,0,1,.33,0l.91.81a.2.2,0,0,1,0,.31,5.13,5.13,0,0,1-4.12,1.8A4.07,4.07,0,0,1,209,12.78Zm6.56-3.56a.12.12,0,0,0,.13-.13,3.68,3.68,0,0,0-.16-1.19,2.6,2.6,0,0,0-4.84,0,3.71,3.71,0,0,0-.15,1.19c0,.09,0,.13.13.13Z"/><path d="M222.92,7.46a4.07,4.07,0,0,1,4.16-2.84,4.22,4.22,0,0,1,3.61,1.78.22.22,0,0,1-.07.31l-1,.79a.19.19,0,0,1-.3,0,2.59,2.59,0,0,0-2.27-1.14A2.3,2.3,0,0,0,224.72,8a7.21,7.21,0,0,0-.24,2.13,7.3,7.3,0,0,0,.24,2.16,2.3,2.3,0,0,0,2.36,1.65,2.6,2.6,0,0,0,2.27-1.15.19.19,0,0,1,.3,0l1,.79a.22.22,0,0,1,.07.31,4.22,4.22,0,0,1-3.61,1.78,4.08,4.08,0,0,1-4.16-2.83,9.08,9.08,0,0,1-.33-2.69A9,9,0,0,1,222.92,7.46Z"/><path d="M231.74,12.81a8,8,0,0,1-.35-2.69,7.92,7.92,0,0,1,.35-2.66,4.47,4.47,0,0,1,8.32,0,7.92,7.92,0,0,1,.35,2.66,8,8,0,0,1-.35,2.69,4.47,4.47,0,0,1-8.32,0Zm6.54-.53a7.13,7.13,0,0,0,.24-2.16A6.91,6.91,0,0,0,238.28,8a2.54,2.54,0,0,0-4.76,0,6.91,6.91,0,0,0-.24,2.13,7.13,7.13,0,0,0,.24,2.16,2.54,2.54,0,0,0,4.76,0Z"/><path d="M248.9,15.4a.21.21,0,0,1-.22-.22V9c0-1.69-.77-2.68-2.35-2.68a2.36,2.36,0,0,0-2.42,2.57v6.27a.21.21,0,0,1-.22.22h-1.41a.21.21,0,0,1-.22-.22V5.08a.21.21,0,0,1,.22-.22h1.41a.21.21,0,0,1,.22.22v1h0a3.35,3.35,0,0,1,2.95-1.43c2.29,0,3.65,1.56,3.65,4v6.6a.21.21,0,0,1-.22.22Z"/><path d="M263.29,15.4a.21.21,0,0,1-.22-.22v-1h0a3.21,3.21,0,0,1-2.88,1.45c-2.31,0-3.66-1.58-3.66-4V5.08a.21.21,0,0,1,.22-.22h1.41a.21.21,0,0,1,.22.22v6.14c0,1.72.77,2.71,2.33,2.71a2.34,2.34,0,0,0,2.38-2.6V5.08a.21.21,0,0,1,.22-.22h1.41a.21.21,0,0,1,.22.22v10.1a.21.21,0,0,1-.22.22Z"/><path d="M274.05,15.4a.21.21,0,0,1-.22-.22V9c0-1.69-.77-2.68-2.36-2.68a2.36,2.36,0,0,0-2.42,2.57v6.27a.2.2,0,0,1-.22.22h-1.4a.2.2,0,0,1-.22-.22V5.08a.2.2,0,0,1,.22-.22h1.4a.2.2,0,0,1,.22.22v1h0A3.32,3.32,0,0,1,272,4.62c2.29,0,3.66,1.56,3.66,4v6.6a.21.21,0,0,1-.22.22Z"/><path d="M281.09,14.06a.21.21,0,0,1,0-.31l.9-1a.23.23,0,0,1,.31,0A5.07,5.07,0,0,0,285.55,14c1.54,0,2.31-.66,2.31-1.6s-.39-1.3-2-1.48l-1.12-.11c-2.07-.22-3.15-1.25-3.15-3,0-2,1.43-3.21,3.91-3.21a6.31,6.31,0,0,1,3.75,1.17c.11.06.11.19,0,.3l-.75,1a.21.21,0,0,1-.31,0,5.63,5.63,0,0,0-2.83-.85c-1.32,0-2,.59-2,1.45s.51,1.28,2.07,1.43l1.1.11c2.14.2,3.17,1.28,3.17,3,0,2.07-1.5,3.45-4.25,3.45A6.52,6.52,0,0,1,281.09,14.06Z"/><path d="M291,12.78a8.2,8.2,0,0,1-.36-2.66A8.46,8.46,0,0,1,291,7.46a4.44,4.44,0,0,1,8.28,0,9.18,9.18,0,0,1,.33,3,.21.21,0,0,1-.24.22h-6.67c-.09,0-.13.05-.13.14a3.93,3.93,0,0,0,.17,1.27,2.62,2.62,0,0,0,2.67,1.83,3.43,3.43,0,0,0,2.7-1.17.22.22,0,0,1,.33,0l.9.81a.21.21,0,0,1,0,.31,5.13,5.13,0,0,1-4.12,1.8A4.07,4.07,0,0,1,291,12.78Zm6.55-3.56c.09,0,.14,0,.14-.13a3.68,3.68,0,0,0-.16-1.19,2.6,2.6,0,0,0-4.84,0,3.71,3.71,0,0,0-.15,1.19c0,.09,0,.13.13.13Z"/><path d="M301,18a.2.2,0,0,1,0-.31l.9-.9a.21.21,0,0,1,.33,0,3.52,3.52,0,0,0,2.49,1.06c1.73,0,2.66-.9,2.66-2.84V13.82h0a3,3,0,0,1-2.93,1.45,3.45,3.45,0,0,1-3.54-2.55,8.08,8.08,0,0,1-.35-2.77,8.14,8.14,0,0,1,.35-2.78,3.45,3.45,0,0,1,3.54-2.55,3,3,0,0,1,2.93,1.45h0v-1a.21.21,0,0,1,.22-.22H309a.21.21,0,0,1,.22.22v9.86c0,3-1.63,4.66-4.6,4.66A4.72,4.72,0,0,1,301,18Zm6.16-6a6.57,6.57,0,0,0,.24-2,6.68,6.68,0,0,0-.24-2,2.38,2.38,0,0,0-4.47,0,6.51,6.51,0,0,0-.26,2,6.4,6.4,0,0,0,.26,2,2.15,2.15,0,0,0,2.22,1.59A2.19,2.19,0,0,0,307.16,12Z"/><path d="M318.16,15.4a.21.21,0,0,1-.22-.22v-1h0A3.22,3.22,0,0,1,315,15.64c-2.31,0-3.65-1.58-3.65-4V5.08a.21.21,0,0,1,.22-.22H313a.21.21,0,0,1,.22.22v6.14c0,1.72.77,2.71,2.33,2.71a2.34,2.34,0,0,0,2.38-2.6V5.08a.21.21,0,0,1,.22-.22h1.41a.21.21,0,0,1,.22.22v10.1a.21.21,0,0,1-.22.22Z"/><path d="M328.92,15.4a.2.2,0,0,1-.22-.22V9c0-1.69-.78-2.68-2.36-2.68a2.36,2.36,0,0,0-2.42,2.57v6.27a.21.21,0,0,1-.22.22h-1.41a.21.21,0,0,1-.22-.22V5.08a.21.21,0,0,1,.22-.22h1.41a.21.21,0,0,1,.22.22v1h0a3.35,3.35,0,0,1,2.95-1.43c2.29,0,3.65,1.56,3.65,4v6.6a.2.2,0,0,1-.22.22Z"/><path d="M339.32,15.4a.21.21,0,0,1-.22-.22v-1h0a3.2,3.2,0,0,1-3,1.47,3.47,3.47,0,0,1-3.63-2.53,8.62,8.62,0,0,1-.38-3,8.61,8.61,0,0,1,.38-3,3.48,3.48,0,0,1,3.63-2.53,3.21,3.21,0,0,1,3,1.45h0V.66a.21.21,0,0,1,.22-.22h1.41a.21.21,0,0,1,.22.22V15.18a.21.21,0,0,1-.22.22Zm-.46-3.08a6.92,6.92,0,0,0,.24-2.2,7.08,7.08,0,0,0-.24-2.2,2.49,2.49,0,0,0-4.64,0,7.35,7.35,0,0,0-.25,2.2,7.14,7.14,0,0,0,.25,2.2,2.48,2.48,0,0,0,4.64,0Z"/><path d="M343,12.81a8,8,0,0,1-.35-2.69A7.92,7.92,0,0,1,343,7.46a4.47,4.47,0,0,1,8.32,0,7.92,7.92,0,0,1,.35,2.66,8,8,0,0,1-.35,2.69,4.47,4.47,0,0,1-8.32,0Zm6.53-.53a6.77,6.77,0,0,0,.25-2.16A6.57,6.57,0,0,0,349.48,8a2.53,2.53,0,0,0-4.75,0,6.91,6.91,0,0,0-.24,2.13,7.13,7.13,0,0,0,.24,2.16,2.53,2.53,0,0,0,4.75,0Z"/><path d="M356.5,14.06a.21.21,0,0,1,0-.31l.9-1a.23.23,0,0,1,.31,0A5.07,5.07,0,0,0,361,14c1.54,0,2.31-.66,2.31-1.6s-.4-1.3-2-1.48l-1.12-.11c-2.07-.22-3.15-1.25-3.15-3,0-2,1.43-3.21,3.92-3.21a6.3,6.3,0,0,1,3.74,1.17c.11.06.11.19,0,.3l-.74,1a.21.21,0,0,1-.31,0,5.64,5.64,0,0,0-2.84-.85c-1.32,0-2,.59-2,1.45s.5,1.28,2.07,1.43l1.1.11c2.13.2,3.16,1.28,3.16,3,0,2.07-1.49,3.45-4.24,3.45A6.55,6.55,0,0,1,356.5,14.06Z"/><path d="M366.4,12.78a8.25,8.25,0,0,1-.35-2.66,8.17,8.17,0,0,1,.33-2.66,4.43,4.43,0,0,1,8.27,0,9.18,9.18,0,0,1,.33,3,.21.21,0,0,1-.24.22h-6.67a.12.12,0,0,0-.13.14,3.9,3.9,0,0,0,.18,1.27,2.6,2.6,0,0,0,2.66,1.83,3.47,3.47,0,0,0,2.71-1.17.22.22,0,0,1,.33,0l.9.81a.2.2,0,0,1,0,.31,5.12,5.12,0,0,1-4.11,1.8A4.07,4.07,0,0,1,366.4,12.78ZM373,9.22c.09,0,.13,0,.13-.13a3.71,3.71,0,0,0-.15-1.19,2.6,2.6,0,0,0-4.84,0,3.68,3.68,0,0,0-.16,1.19.12.12,0,0,0,.13.13Z"/><path d="M383.47,15.4a.21.21,0,0,1-.22-.22V9c0-1.69-.77-2.68-2.35-2.68a2.36,2.36,0,0,0-2.42,2.57v6.27a.21.21,0,0,1-.22.22h-1.41a.21.21,0,0,1-.22-.22V5.08a.21.21,0,0,1,.22-.22h1.41a.21.21,0,0,1,.22.22v1h0a3.35,3.35,0,0,1,2.95-1.43c2.29,0,3.65,1.56,3.65,4v6.6a.21.21,0,0,1-.22.22Z"/><path d="M393.88,15.4a.21.21,0,0,1-.22-.22v-1h0a3.2,3.2,0,0,1-3,1.47A3.48,3.48,0,0,1,387,13.11a8.9,8.9,0,0,1-.37-3,8.89,8.89,0,0,1,.37-3,3.49,3.49,0,0,1,3.64-2.53,3.21,3.21,0,0,1,3,1.45h0V.66a.21.21,0,0,1,.22-.22h1.41a.21.21,0,0,1,.22.22V15.18a.21.21,0,0,1-.22.22Zm-.46-3.08a6.92,6.92,0,0,0,.24-2.2,7.08,7.08,0,0,0-.24-2.2,2.5,2.5,0,0,0-4.65,0,7.74,7.74,0,0,0-.24,2.2,7.51,7.51,0,0,0,.24,2.2,2.48,2.48,0,0,0,4.65,0Z"/><path d="M397.51,12.78a8.25,8.25,0,0,1-.35-2.66,8.17,8.17,0,0,1,.33-2.66,4.43,4.43,0,0,1,8.27,0,9.18,9.18,0,0,1,.33,3,.21.21,0,0,1-.24.22h-6.67c-.09,0-.13.05-.13.14a4.23,4.23,0,0,0,.17,1.27,2.62,2.62,0,0,0,2.67,1.83,3.43,3.43,0,0,0,2.7-1.17.22.22,0,0,1,.33,0l.91.81a.2.2,0,0,1,0,.31,5.13,5.13,0,0,1-4.12,1.8A4.07,4.07,0,0,1,397.51,12.78Zm6.56-3.56a.12.12,0,0,0,.13-.13A3.68,3.68,0,0,0,404,7.9a2.6,2.6,0,0,0-4.84,0,3.71,3.71,0,0,0-.15,1.19c0,.09,0,.13.13.13Z"/><path d="M408,15.4a.21.21,0,0,1-.22-.22V5.08a.21.21,0,0,1,.22-.22h1.41a.21.21,0,0,1,.22.22V6.16h0a2.93,2.93,0,0,1,2.79-1.54,3.26,3.26,0,0,1,2.16.79c.11.11.13.2,0,.31l-.81,1.08a.2.2,0,0,1-.31,0,3,3,0,0,0-1.63-.5c-1.6,0-2.26,1.25-2.26,3.08v5.76a.21.21,0,0,1-.22.22Z"/><path d="M414.76,12.81a7.75,7.75,0,0,1-.36-2.69,7.64,7.64,0,0,1,.36-2.66,4.46,4.46,0,0,1,8.31,0,7.64,7.64,0,0,1,.36,2.66,7.75,7.75,0,0,1-.36,2.69,4.47,4.47,0,0,1-8.31,0Zm6.53-.53a6.82,6.82,0,0,0,.24-2.16A6.61,6.61,0,0,0,421.29,8a2.53,2.53,0,0,0-4.75,0,6.61,6.61,0,0,0-.24,2.13,6.82,6.82,0,0,0,.24,2.16,2.53,2.53,0,0,0,4.75,0Z"/><path d="M435.63,15.4a.21.21,0,0,1-.22-.22v-1h0a3.19,3.19,0,0,1-3,1.47,3.47,3.47,0,0,1-3.63-2.53,8.65,8.65,0,0,1-.37-3,8.63,8.63,0,0,1,.37-3,3.48,3.48,0,0,1,3.63-2.53,3.2,3.2,0,0,1,3,1.45h0V.66a.21.21,0,0,1,.22-.22H437a.21.21,0,0,1,.22.22V15.18a.21.21,0,0,1-.22.22Zm-.46-3.08a6.63,6.63,0,0,0,.24-2.2,6.79,6.79,0,0,0-.24-2.2,2.49,2.49,0,0,0-4.64,0,7.39,7.39,0,0,0-.24,2.2,7.18,7.18,0,0,0,.24,2.2,2.48,2.48,0,0,0,4.64,0Z"/><path d="M439.26,12.78a8.25,8.25,0,0,1-.35-2.66,8.17,8.17,0,0,1,.33-2.66,4.43,4.43,0,0,1,8.27,0,9.18,9.18,0,0,1,.33,3c0,.14-.08.22-.24.22h-6.66a.13.13,0,0,0-.14.14A3.9,3.9,0,0,0,441,12.1a2.6,2.6,0,0,0,2.66,1.83,3.44,3.44,0,0,0,2.71-1.17.22.22,0,0,1,.33,0l.9.81a.2.2,0,0,1,0,.31,5.09,5.09,0,0,1-4.11,1.8A4.08,4.08,0,0,1,439.26,12.78Zm6.56-3.56c.09,0,.13,0,.13-.13a3.71,3.71,0,0,0-.15-1.19,2.6,2.6,0,0,0-4.84,0,3.68,3.68,0,0,0-.16,1.19c0,.09.05.13.14.13Z"/><path d="M456.51,15.51c-2.05,0-2.84-.92-2.84-3v-6c0-.09,0-.13-.13-.13h-.88a.21.21,0,0,1-.22-.22V5.08a.21.21,0,0,1,.22-.22h.88c.09,0,.13,0,.13-.13v-3a.21.21,0,0,1,.22-.22h1.41a.21.21,0,0,1,.22.22v3a.12.12,0,0,0,.13.13h1.68a.21.21,0,0,1,.22.22V6.14a.21.21,0,0,1-.22.22h-1.68a.12.12,0,0,0-.13.13v6c0,1.06.4,1.35,1.34,1.35h.47a.2.2,0,0,1,.22.22v1.27a.21.21,0,0,1-.22.22Z"/><path d="M459.3,15.4a.21.21,0,0,1-.22-.22V5.08a.21.21,0,0,1,.22-.22h1.41a.21.21,0,0,1,.22.22V6.16h0a2.93,2.93,0,0,1,2.79-1.54,3.26,3.26,0,0,1,2.16.79c.11.11.13.2,0,.31l-.81,1.08a.2.2,0,0,1-.31,0,3,3,0,0,0-1.63-.5c-1.61,0-2.27,1.25-2.27,3.08v5.76a.21.21,0,0,1-.22.22Z"/><path d="M472.64,15.4a.21.21,0,0,1-.22-.22v-.92h0a3.47,3.47,0,0,1-3.13,1.38c-2,0-3.54-1-3.54-3.16s1.54-3.26,4.11-3.26h2.4c.09,0,.13,0,.13-.13V8.32c0-1.45-.57-2.07-2.53-2.07a4.12,4.12,0,0,0-2.55.75A.21.21,0,0,1,467,7l-.59-1a.23.23,0,0,1,0-.31,5.9,5.9,0,0,1,3.59-1c3,0,4.14,1,4.14,3.59v7a.21.21,0,0,1-.22.22ZM472.37,12V10.83c0-.09,0-.14-.13-.14h-2.11c-1.83,0-2.62.53-2.62,1.72s.79,1.65,2.2,1.65C471.36,14.06,472.37,13.29,472.37,12Z"/><path d="M475.63,14.06a.21.21,0,0,1,0-.31l.9-1a.23.23,0,0,1,.31,0A5.07,5.07,0,0,0,480.09,14c1.54,0,2.32-.66,2.32-1.6s-.4-1.3-2.05-1.48l-1.12-.11c-2.07-.22-3.15-1.25-3.15-3,0-2,1.43-3.21,3.92-3.21a6.3,6.3,0,0,1,3.74,1.17c.11.06.11.19,0,.3L483,7a.2.2,0,0,1-.3,0,5.7,5.7,0,0,0-2.84-.85c-1.32,0-2,.59-2,1.45S478.4,9,480,9.11l1.1.11c2.14.2,3.17,1.28,3.17,3,0,2.07-1.49,3.45-4.25,3.45A6.54,6.54,0,0,1,475.63,14.06Z"/><path d="M488.34,15.51c-1.84,0-2.57-.88-2.57-2.77V.66A.21.21,0,0,1,486,.44h1.41a.21.21,0,0,1,.22.22v12c0,.88.33,1.17,1.05,1.17h.42a.2.2,0,0,1,.22.22v1.27a.21.21,0,0,1-.22.22Z"/><path d="M497,15.4a.21.21,0,0,1-.22-.22v-.92h0a3.47,3.47,0,0,1-3.13,1.38c-2,0-3.54-1-3.54-3.16s1.54-3.26,4.11-3.26h2.4c.09,0,.14,0,.14-.13V8.32c0-1.45-.58-2.07-2.54-2.07a4.12,4.12,0,0,0-2.55.75.21.21,0,0,1-.31,0l-.59-1a.24.24,0,0,1,0-.31,5.92,5.92,0,0,1,3.59-1c3,0,4.14,1,4.14,3.59v7a.21.21,0,0,1-.22.22ZM496.71,12V10.83a.13.13,0,0,0-.14-.14h-2.11c-1.83,0-2.62.53-2.62,1.72s.79,1.65,2.2,1.65C495.69,14.06,496.71,13.29,496.71,12Z"/><path d="M507.29,15.4a.2.2,0,0,1-.22-.22v-1h0a3.18,3.18,0,0,1-3,1.47,3.48,3.48,0,0,1-3.63-2.53,8.9,8.9,0,0,1-.37-3,8.89,8.89,0,0,1,.37-3,3.49,3.49,0,0,1,3.63-2.53,3.19,3.19,0,0,1,3,1.45h0V.66a.2.2,0,0,1,.22-.22h1.41a.21.21,0,0,1,.22.22V15.18a.21.21,0,0,1-.22.22Zm-.46-3.08a6.92,6.92,0,0,0,.24-2.2,7.08,7.08,0,0,0-.24-2.2,2.5,2.5,0,0,0-4.65,0,7.74,7.74,0,0,0-.24,2.2,7.51,7.51,0,0,0,.24,2.2,2.48,2.48,0,0,0,4.65,0Z"/><path d="M510.92,12.81a7.75,7.75,0,0,1-.36-2.69,7.64,7.64,0,0,1,.36-2.66,4.46,4.46,0,0,1,8.31,0,7.67,7.67,0,0,1,.35,2.66,7.78,7.78,0,0,1-.35,2.69,4.47,4.47,0,0,1-8.31,0Zm6.53-.53a6.82,6.82,0,0,0,.24-2.16A6.61,6.61,0,0,0,517.45,8a2.53,2.53,0,0,0-4.75,0,6.61,6.61,0,0,0-.24,2.13,6.82,6.82,0,0,0,.24,2.16,2.53,2.53,0,0,0,4.75,0Z"/><path d="M531.79,19.36a.21.21,0,0,1-.22-.22v-5h0a3.19,3.19,0,0,1-3,1.47,3.47,3.47,0,0,1-3.63-2.53,8.62,8.62,0,0,1-.38-3,8.61,8.61,0,0,1,.38-3,3.48,3.48,0,0,1,3.63-2.53,3.2,3.2,0,0,1,3,1.45h0v-1a.21.21,0,0,1,.22-.22h1.41a.21.21,0,0,1,.22.22V19.14a.21.21,0,0,1-.22.22Zm-.46-7a6.63,6.63,0,0,0,.24-2.2,6.79,6.79,0,0,0-.24-2.2,2.49,2.49,0,0,0-4.64,0,7.39,7.39,0,0,0-.24,2.2,7.18,7.18,0,0,0,.24,2.2,2.48,2.48,0,0,0,4.64,0Z"/><path d="M542.33,15.4a.21.21,0,0,1-.22-.22v-1h0a3.21,3.21,0,0,1-2.88,1.45c-2.31,0-3.65-1.58-3.65-4V5.08a.2.2,0,0,1,.22-.22h1.4a.2.2,0,0,1,.22.22v6.14c0,1.72.77,2.71,2.34,2.71a2.34,2.34,0,0,0,2.37-2.6V5.08a.21.21,0,0,1,.22-.22h1.41a.21.21,0,0,1,.22.22v10.1a.21.21,0,0,1-.22.22Z"/><path d="M546,12.78a8.25,8.25,0,0,1-.35-2.66,8.17,8.17,0,0,1,.33-2.66,4.43,4.43,0,0,1,8.27,0,9.18,9.18,0,0,1,.33,3,.21.21,0,0,1-.24.22h-6.67c-.09,0-.13.05-.13.14a3.9,3.9,0,0,0,.18,1.27,2.6,2.6,0,0,0,2.66,1.83,3.47,3.47,0,0,0,2.71-1.17.22.22,0,0,1,.33,0l.9.81a.2.2,0,0,1,0,.31,5.12,5.12,0,0,1-4.11,1.8A4.07,4.07,0,0,1,546,12.78Zm6.56-3.56c.09,0,.13,0,.13-.13a3.71,3.71,0,0,0-.15-1.19,2.6,2.6,0,0,0-4.84,0,3.43,3.43,0,0,0-.16,1.19c0,.09,0,.13.13.13Z"/><path d="M563.21,15.51c-2.05,0-2.84-.92-2.84-3v-6c0-.09,0-.13-.13-.13h-.88a.21.21,0,0,1-.22-.22V5.08a.21.21,0,0,1,.22-.22h.88c.09,0,.13,0,.13-.13v-3a.21.21,0,0,1,.22-.22H562a.21.21,0,0,1,.22.22v3c0,.09,0,.13.13.13H564a.2.2,0,0,1,.22.22V6.14a.2.2,0,0,1-.22.22h-1.67c-.09,0-.13,0-.13.13v6c0,1.06.4,1.35,1.34,1.35H564a.2.2,0,0,1,.22.22v1.27a.2.2,0,0,1-.22.22Z"/><path d="M565.5,12.78a8.2,8.2,0,0,1-.36-2.66,8.17,8.17,0,0,1,.33-2.66,4.44,4.44,0,0,1,8.28,0,9.18,9.18,0,0,1,.33,3c0,.14-.09.22-.25.22h-6.66c-.09,0-.13.05-.13.14a3.93,3.93,0,0,0,.17,1.27,2.62,2.62,0,0,0,2.67,1.83,3.43,3.43,0,0,0,2.7-1.17.22.22,0,0,1,.33,0l.9.81a.2.2,0,0,1,0,.31,5.09,5.09,0,0,1-4.11,1.8A4.07,4.07,0,0,1,565.5,12.78Zm6.55-3.56c.09,0,.13,0,.13-.13A3.71,3.71,0,0,0,572,7.9a2.6,2.6,0,0,0-4.84,0A3.71,3.71,0,0,0,567,9.09c0,.09,0,.13.13.13Z"/><path d="M582.57,15.4a.21.21,0,0,1-.22-.22V9c0-1.69-.77-2.68-2.36-2.68a2.36,2.36,0,0,0-2.42,2.57v6.27a.2.2,0,0,1-.22.22H576a.2.2,0,0,1-.22-.22V5.08a.2.2,0,0,1,.22-.22h1.4a.2.2,0,0,1,.22.22v1h0a3.32,3.32,0,0,1,2.94-1.43c2.29,0,3.66,1.56,3.66,4v6.6a.21.21,0,0,1-.22.22Z"/><path d="M586.15,18a.21.21,0,0,1,0-.31l.9-.9a.21.21,0,0,1,.33,0,3.5,3.5,0,0,0,2.48,1.06c1.74,0,2.67-.9,2.67-2.84V13.82h0a3,3,0,0,1-2.93,1.45,3.45,3.45,0,0,1-3.54-2.55,8.06,8.06,0,0,1-.36-2.77,8.12,8.12,0,0,1,.36-2.78,3.45,3.45,0,0,1,3.54-2.55,3,3,0,0,1,2.93,1.45h0v-1a.2.2,0,0,1,.22-.22h1.4a.21.21,0,0,1,.23.22v9.86c0,3-1.63,4.66-4.6,4.66A4.76,4.76,0,0,1,586.15,18Zm6.16-6a6.24,6.24,0,0,0,.25-2,6.34,6.34,0,0,0-.25-2,2.37,2.37,0,0,0-4.46,0,6.48,6.48,0,0,0-.27,2,6.37,6.37,0,0,0,.27,2,2.15,2.15,0,0,0,2.22,1.59A2.17,2.17,0,0,0,592.31,12Z"/><path d="M603.07,15.4a.21.21,0,0,1-.22-.22v-.92h0a3.45,3.45,0,0,1-3.12,1.38c-2,0-3.55-1-3.55-3.16s1.54-3.26,4.12-3.26h2.4a.12.12,0,0,0,.13-.13V8.32c0-1.45-.57-2.07-2.53-2.07a4.07,4.07,0,0,0-2.55.75.21.21,0,0,1-.31,0l-.6-1a.24.24,0,0,1,0-.31,5.87,5.87,0,0,1,3.58-1c3,0,4.14,1,4.14,3.59v7a.21.21,0,0,1-.22.22ZM602.81,12V10.83a.12.12,0,0,0-.13-.14h-2.12c-1.82,0-2.61.53-2.61,1.72s.79,1.65,2.2,1.65C601.8,14.06,602.81,13.29,602.81,12Z"/><path d="M1,35.46a4.09,4.09,0,0,1,4.16-2.84A4.22,4.22,0,0,1,8.78,34.4a.22.22,0,0,1-.07.31l-1,.79c-.12.09-.22.09-.31,0a2.59,2.59,0,0,0-2.27-1.14A2.28,2.28,0,0,0,2.82,36a6.85,6.85,0,0,0-.25,2.13,6.94,6.94,0,0,0,.25,2.16,2.28,2.28,0,0,0,2.35,1.65,2.6,2.6,0,0,0,2.27-1.15c.09-.11.19-.11.31,0l1,.79a.22.22,0,0,1,.07.31,4.22,4.22,0,0,1-3.61,1.78A4.09,4.09,0,0,1,1,40.81a9.08,9.08,0,0,1-.33-2.69A9,9,0,0,1,1,35.46Z"/><path d="M9.83,40.81a8,8,0,0,1-.35-2.69,7.92,7.92,0,0,1,.35-2.66A4.08,4.08,0,0,1,14,32.62a4.06,4.06,0,0,1,4.16,2.84,7.92,7.92,0,0,1,.35,2.66,8,8,0,0,1-.35,2.69A4.09,4.09,0,0,1,14,43.64,4.11,4.11,0,0,1,9.83,40.81Zm6.54-.53a7.13,7.13,0,0,0,.24-2.16A6.91,6.91,0,0,0,16.37,36,2.34,2.34,0,0,0,14,34.34,2.34,2.34,0,0,0,11.62,36a6.61,6.61,0,0,0-.24,2.13,6.82,6.82,0,0,0,.24,2.16A2.35,2.35,0,0,0,14,41.93,2.35,2.35,0,0,0,16.37,40.28Z"/><path d="M27,43.4a.21.21,0,0,1-.23-.22V37c0-1.69-.77-2.68-2.35-2.68A2.36,2.36,0,0,0,22,36.91v6.27a.21.21,0,0,1-.22.22H20.37a.21.21,0,0,1-.22-.22V33.08a.21.21,0,0,1,.22-.22h1.41a.21.21,0,0,1,.22.22v1h0A3.35,3.35,0,0,1,25,32.62c2.29,0,3.65,1.56,3.65,4v6.6a.2.2,0,0,1-.22.22Z"/><path d="M37.4,43.4a.21.21,0,0,1-.22-.22v-1h0a3.2,3.2,0,0,1-3,1.47,3.47,3.47,0,0,1-3.63-2.53,8.62,8.62,0,0,1-.38-3,8.61,8.61,0,0,1,.38-3,3.48,3.48,0,0,1,3.63-2.53,3.21,3.21,0,0,1,3,1.45h0V28.66a.21.21,0,0,1,.22-.22h1.41a.21.21,0,0,1,.22.22V43.18a.21.21,0,0,1-.22.22Zm-.46-3.08a6.92,6.92,0,0,0,.24-2.2,7.08,7.08,0,0,0-.24-2.2,2.24,2.24,0,0,0-2.33-1.58,2.23,2.23,0,0,0-2.31,1.58,7.35,7.35,0,0,0-.25,2.2,7.14,7.14,0,0,0,.25,2.2,2.48,2.48,0,0,0,4.64,0Z"/><path d="M41.49,30.49a.21.21,0,0,1-.22-.22V28.66a.21.21,0,0,1,.22-.22H43a.21.21,0,0,1,.22.22v1.61a.21.21,0,0,1-.22.22Zm0,12.91a.2.2,0,0,1-.22-.22V33.08a.2.2,0,0,1,.22-.22h1.4a.2.2,0,0,1,.22.22v10.1a.2.2,0,0,1-.22.22Z"/><path d="M45.14,35.46a4.09,4.09,0,0,1,4.16-2.84,4.22,4.22,0,0,1,3.61,1.78c.07.11.07.2-.07.31l-1,.79a.2.2,0,0,1-.31,0,2.59,2.59,0,0,0-2.27-1.14A2.28,2.28,0,0,0,47,36a6.89,6.89,0,0,0-.24,2.13A7,7,0,0,0,47,40.28a2.28,2.28,0,0,0,2.35,1.65,2.6,2.6,0,0,0,2.27-1.15.2.2,0,0,1,.31,0l1,.79c.14.11.14.2.07.31a4.22,4.22,0,0,1-3.61,1.78,4.09,4.09,0,0,1-4.16-2.83,9.43,9.43,0,0,1-.33-2.69A9.35,9.35,0,0,1,45.14,35.46Z"/><path d="M54.69,30.49a.21.21,0,0,1-.22-.22V28.66a.21.21,0,0,1,.22-.22h1.5a.21.21,0,0,1,.22.22v1.61a.21.21,0,0,1-.22.22Zm.05,12.91a.21.21,0,0,1-.23-.22V33.08a.21.21,0,0,1,.23-.22h1.4a.2.2,0,0,1,.22.22v10.1a.2.2,0,0,1-.22.22Z"/><path d="M58.36,40.81A8,8,0,0,1,58,38.12a7.92,7.92,0,0,1,.35-2.66,4.47,4.47,0,0,1,8.32,0A7.92,7.92,0,0,1,67,38.12a8,8,0,0,1-.35,2.69,4.47,4.47,0,0,1-8.32,0Zm6.54-.53a6.82,6.82,0,0,0,.24-2.16A6.61,6.61,0,0,0,64.9,36a2.53,2.53,0,0,0-4.75,0,6.57,6.57,0,0,0-.25,2.13,6.77,6.77,0,0,0,.25,2.16,2.53,2.53,0,0,0,4.75,0Z"/><path d="M75.53,43.4a.21.21,0,0,1-.23-.22V37c0-1.69-.76-2.68-2.35-2.68a2.36,2.36,0,0,0-2.42,2.57v6.27a.21.21,0,0,1-.22.22H68.9a.21.21,0,0,1-.22-.22V33.08a.21.21,0,0,1,.22-.22h1.41a.21.21,0,0,1,.22.22v1h0a3.35,3.35,0,0,1,3-1.43c2.29,0,3.65,1.56,3.65,4v6.6a.2.2,0,0,1-.22.22Z"/><path d="M79,40.78a8.25,8.25,0,0,1-.35-2.66A8.17,8.17,0,0,1,79,35.46a4.43,4.43,0,0,1,8.27,0,9.11,9.11,0,0,1,.34,3c0,.14-.09.22-.25.22H80.72a.13.13,0,0,0-.14.14,3.9,3.9,0,0,0,.18,1.27,2.6,2.6,0,0,0,2.66,1.83,3.44,3.44,0,0,0,2.71-1.17.22.22,0,0,1,.33,0l.9.81a.2.2,0,0,1,0,.31,5.09,5.09,0,0,1-4.11,1.8A4.08,4.08,0,0,1,79,40.78Zm6.56-3.56c.09,0,.13,0,.13-.13a3.71,3.71,0,0,0-.15-1.19,2.6,2.6,0,0,0-4.84,0,3.68,3.68,0,0,0-.16,1.19c0,.09,0,.13.14.13Z"/><path d="M88.55,42.06a.21.21,0,0,1,0-.31l.9-1a.23.23,0,0,1,.31,0A5.07,5.07,0,0,0,93,42c1.54,0,2.31-.66,2.31-1.6s-.39-1.3-2-1.48l-1.12-.11c-2.07-.22-3.15-1.25-3.15-3,0-2,1.43-3.21,3.92-3.21a6.3,6.3,0,0,1,3.74,1.17c.11.06.11.19,0,.3L96,35a.21.21,0,0,1-.31,0,5.63,5.63,0,0,0-2.83-.85c-1.32,0-2,.59-2,1.45s.51,1.28,2.07,1.43l1.1.11c2.14.2,3.17,1.28,3.17,3,0,2.07-1.5,3.45-4.25,3.45A6.54,6.54,0,0,1,88.55,42.06Z"/><path d="M116.16,43.4a.21.21,0,0,1-.22-.22V37c0-1.69-.77-2.68-2.36-2.68a2.38,2.38,0,0,0-2.42,2.57v6.27a.2.2,0,0,1-.22.22h-1.4a.2.2,0,0,1-.22-.22V37c0-1.69-.77-2.68-2.36-2.68a2.36,2.36,0,0,0-2.42,2.57v6.27a.21.21,0,0,1-.22.22h-1.41a.21.21,0,0,1-.22-.22V33.08a.21.21,0,0,1,.22-.22h1.41a.21.21,0,0,1,.22.22v1h0a3.35,3.35,0,0,1,3-1.43,3.3,3.3,0,0,1,3.08,1.65h0A3.94,3.94,0,0,1,114,32.62c2.45,0,3.77,1.56,3.77,4v6.6a.21.21,0,0,1-.22.22Z"/><path d="M119.68,40.78a8.2,8.2,0,0,1-.36-2.66,8.17,8.17,0,0,1,.33-2.66,4.44,4.44,0,0,1,8.28,0,9.18,9.18,0,0,1,.33,3,.21.21,0,0,1-.24.22h-6.67c-.09,0-.13.05-.13.14a3.93,3.93,0,0,0,.17,1.27,2.62,2.62,0,0,0,2.67,1.83,3.43,3.43,0,0,0,2.7-1.17.22.22,0,0,1,.33,0l.9.81a.21.21,0,0,1,0,.31,5.13,5.13,0,0,1-4.12,1.8A4.07,4.07,0,0,1,119.68,40.78Zm6.55-3.56c.09,0,.14,0,.14-.13a3.68,3.68,0,0,0-.16-1.19,2.6,2.6,0,0,0-4.84,0,3.71,3.71,0,0,0-.15,1.19c0,.09,0,.13.13.13Z"/><path d="M136.51,43.4a.21.21,0,0,1-.22-.22v-1h0a3.21,3.21,0,0,1-3,1.47,3.48,3.48,0,0,1-3.63-2.53,8.9,8.9,0,0,1-.37-3,8.89,8.89,0,0,1,.37-3,3.49,3.49,0,0,1,3.63-2.53,3.22,3.22,0,0,1,3,1.45h0V28.66a.21.21,0,0,1,.22-.22h1.41a.21.21,0,0,1,.22.22V43.18a.21.21,0,0,1-.22.22Zm-.46-3.08a6.92,6.92,0,0,0,.24-2.2,7.08,7.08,0,0,0-.24-2.2,2.5,2.5,0,0,0-4.65,0,7.74,7.74,0,0,0-.24,2.2,7.51,7.51,0,0,0,.24,2.2,2.48,2.48,0,0,0,4.65,0Z"/><path d="M140.6,30.49a.21.21,0,0,1-.22-.22V28.66a.21.21,0,0,1,.22-.22h1.49a.2.2,0,0,1,.22.22v1.61a.2.2,0,0,1-.22.22Zm0,12.91a.21.21,0,0,1-.22-.22V33.08a.21.21,0,0,1,.22-.22h1.41a.21.21,0,0,1,.22.22v10.1a.21.21,0,0,1-.22.22Z"/><path d="M144.78,43.4a.21.21,0,0,1-.22-.22V28.66a.21.21,0,0,1,.22-.22h1.41a.21.21,0,0,1,.22.22v5.41h0a3.2,3.2,0,0,1,3-1.45,3.48,3.48,0,0,1,3.63,2.53,8.63,8.63,0,0,1,.37,3,8.65,8.65,0,0,1-.37,3,3.47,3.47,0,0,1-3.63,2.53,3.19,3.19,0,0,1-3-1.47h0v1a.21.21,0,0,1-.22.22Zm6.51-3.08a7.18,7.18,0,0,0,.24-2.2,7.39,7.39,0,0,0-.24-2.2,2.49,2.49,0,0,0-4.64,0,6.79,6.79,0,0,0-.24,2.2,6.63,6.63,0,0,0,.24,2.2,2.48,2.48,0,0,0,4.64,0Z"/><path d="M157.6,43.51c-1.84,0-2.57-.88-2.57-2.77V28.66a.21.21,0,0,1,.22-.22h1.41a.21.21,0,0,1,.22.22v12c0,.88.33,1.17,1.05,1.17h.42a.2.2,0,0,1,.22.22v1.27a.21.21,0,0,1-.22.22Z"/><path d="M159.56,40.78a8.25,8.25,0,0,1-.35-2.66,8.17,8.17,0,0,1,.33-2.66,4.43,4.43,0,0,1,8.27,0,9.18,9.18,0,0,1,.33,3,.21.21,0,0,1-.24.22h-6.67a.12.12,0,0,0-.13.14,3.9,3.9,0,0,0,.18,1.27,2.6,2.6,0,0,0,2.66,1.83,3.46,3.46,0,0,0,2.71-1.17.22.22,0,0,1,.33,0l.9.81a.2.2,0,0,1,0,.31,5.1,5.1,0,0,1-4.11,1.8A4.07,4.07,0,0,1,159.56,40.78Zm6.56-3.56c.09,0,.13,0,.13-.13a3.71,3.71,0,0,0-.15-1.19,2.6,2.6,0,0,0-4.84,0,3.68,3.68,0,0,0-.16,1.19.12.12,0,0,0,.13.13Z"/><path d="M183.26,43.4a.21.21,0,0,1-.22-.22V37c0-1.69-.77-2.68-2.36-2.68a2.37,2.37,0,0,0-2.42,2.57v6.27a.21.21,0,0,1-.22.22h-1.41a.21.21,0,0,1-.22-.22V37c0-1.69-.77-2.68-2.35-2.68a2.36,2.36,0,0,0-2.42,2.57v6.27a.21.21,0,0,1-.22.22H170a.21.21,0,0,1-.22-.22V33.08a.21.21,0,0,1,.22-.22h1.41a.21.21,0,0,1,.22.22v1h0a3.35,3.35,0,0,1,3-1.43,3.3,3.3,0,0,1,3.08,1.65h0a3.94,3.94,0,0,1,3.41-1.65c2.45,0,3.77,1.56,3.77,4v6.6a.21.21,0,0,1-.22.22Z"/><path d="M186.78,40.78a8.2,8.2,0,0,1-.36-2.66,8.17,8.17,0,0,1,.33-2.66,4.44,4.44,0,0,1,8.28,0,9.18,9.18,0,0,1,.33,3c0,.14-.09.22-.25.22h-6.66c-.09,0-.13.05-.13.14a3.93,3.93,0,0,0,.17,1.27,2.61,2.61,0,0,0,2.66,1.83,3.44,3.44,0,0,0,2.71-1.17.22.22,0,0,1,.33,0l.9.81a.2.2,0,0,1,0,.31,5.09,5.09,0,0,1-4.11,1.8A4.07,4.07,0,0,1,186.78,40.78Zm6.55-3.56c.09,0,.13,0,.13-.13a3.71,3.71,0,0,0-.15-1.19,2.6,2.6,0,0,0-4.84,0,3.71,3.71,0,0,0-.15,1.19c0,.09,0,.13.13.13Z"/><path d="M203.85,43.4a.21.21,0,0,1-.22-.22V37c0-1.69-.77-2.68-2.36-2.68a2.36,2.36,0,0,0-2.42,2.57v6.27a.21.21,0,0,1-.22.22h-1.41a.21.21,0,0,1-.22-.22V33.08a.21.21,0,0,1,.22-.22h1.41a.21.21,0,0,1,.22.22v1h0a3.32,3.32,0,0,1,2.94-1.43c2.29,0,3.66,1.56,3.66,4v6.6a.21.21,0,0,1-.22.22Z"/><path d="M210.71,43.51c-2,0-2.84-.92-2.84-3v-6c0-.09,0-.13-.13-.13h-.88a.21.21,0,0,1-.22-.22V33.08a.21.21,0,0,1,.22-.22h.88c.09,0,.13,0,.13-.13v-3a.21.21,0,0,1,.22-.22h1.41a.21.21,0,0,1,.22.22v3c0,.09,0,.13.13.13h1.68a.21.21,0,0,1,.22.22v1.06a.21.21,0,0,1-.22.22h-1.68c-.09,0-.13,0-.13.13v6c0,1.06.4,1.35,1.34,1.35h.47a.2.2,0,0,1,.22.22v1.27a.21.21,0,0,1-.22.22Z"/><path d="M213,40.78a8.25,8.25,0,0,1-.35-2.66,8.17,8.17,0,0,1,.33-2.66,4.43,4.43,0,0,1,8.27,0,9.18,9.18,0,0,1,.33,3,.21.21,0,0,1-.24.22h-6.67c-.09,0-.13.05-.13.14a3.93,3.93,0,0,0,.17,1.27,2.62,2.62,0,0,0,2.67,1.83,3.43,3.43,0,0,0,2.7-1.17.22.22,0,0,1,.33,0l.91.81a.2.2,0,0,1,0,.31,5.13,5.13,0,0,1-4.12,1.8A4.07,4.07,0,0,1,213,40.78Zm6.56-3.56a.12.12,0,0,0,.13-.13,3.68,3.68,0,0,0-.16-1.19,2.6,2.6,0,0,0-4.84,0,3.71,3.71,0,0,0-.15,1.19c0,.09,0,.13.13.13Z"/><path d="M226.46,42.06a.21.21,0,0,1,0-.31l.9-1a.23.23,0,0,1,.31,0A5.07,5.07,0,0,0,230.93,42c1.54,0,2.31-.66,2.31-1.6s-.4-1.3-2.05-1.48l-1.12-.11c-2.07-.22-3.15-1.25-3.15-3,0-2,1.43-3.21,3.92-3.21a6.3,6.3,0,0,1,3.74,1.17.21.21,0,0,1,0,.3l-.75.95a.21.21,0,0,1-.31,0,5.64,5.64,0,0,0-2.84-.85c-1.32,0-2,.59-2,1.45s.5,1.28,2.07,1.43l1.1.11c2.13.2,3.16,1.28,3.16,3,0,2.07-1.49,3.45-4.24,3.45A6.55,6.55,0,0,1,226.46,42.06Z"/><path d="M236.36,40.78a8.25,8.25,0,0,1-.35-2.66,8.17,8.17,0,0,1,.33-2.66,4.43,4.43,0,0,1,8.27,0,9.18,9.18,0,0,1,.33,3,.21.21,0,0,1-.24.22H238a.12.12,0,0,0-.13.14,3.9,3.9,0,0,0,.18,1.27,2.6,2.6,0,0,0,2.66,1.83,3.46,3.46,0,0,0,2.71-1.17.22.22,0,0,1,.33,0l.9.81a.2.2,0,0,1,0,.31,5.1,5.1,0,0,1-4.11,1.8A4.07,4.07,0,0,1,236.36,40.78Zm6.56-3.56c.09,0,.13,0,.13-.13a3.71,3.71,0,0,0-.15-1.19,2.6,2.6,0,0,0-4.84,0,3.68,3.68,0,0,0-.16,1.19.12.12,0,0,0,.13.13Z"/><path d="M246.37,46a.2.2,0,0,1,0-.31l.9-.9a.22.22,0,0,1,.34,0,3.5,3.5,0,0,0,2.48,1.06c1.74,0,2.66-.9,2.66-2.84V41.82h0a3,3,0,0,1-2.92,1.45,3.46,3.46,0,0,1-3.55-2.55,8.34,8.34,0,0,1-.35-2.77,8.4,8.4,0,0,1,.35-2.78,3.46,3.46,0,0,1,3.55-2.55,3,3,0,0,1,2.92,1.45h0v-1a.21.21,0,0,1,.22-.22h1.41a.21.21,0,0,1,.22.22v9.86c0,3-1.63,4.66-4.6,4.66A4.75,4.75,0,0,1,246.37,46Zm6.16-6a6.28,6.28,0,0,0,.24-2,6.38,6.38,0,0,0-.24-2.05,2.37,2.37,0,0,0-4.46,0A6.48,6.48,0,0,0,247.8,38a6.37,6.37,0,0,0,.27,2,2.14,2.14,0,0,0,2.22,1.59A2.17,2.17,0,0,0,252.53,40Z"/><path d="M263.53,43.4a.21.21,0,0,1-.22-.22v-1h0a3.21,3.21,0,0,1-2.88,1.45c-2.31,0-3.66-1.58-3.66-4V33.08a.21.21,0,0,1,.22-.22h1.41a.2.2,0,0,1,.22.22v6.14c0,1.72.77,2.71,2.34,2.71a2.34,2.34,0,0,0,2.37-2.6V33.08a.21.21,0,0,1,.22-.22h1.41a.21.21,0,0,1,.22.22v10.1a.21.21,0,0,1-.22.22Z"/><path d="M267.67,43.4a.21.21,0,0,1-.22-.22V33.08a.21.21,0,0,1,.22-.22h1.41a.2.2,0,0,1,.21.22v1.08h0a2.93,2.93,0,0,1,2.79-1.54,3.26,3.26,0,0,1,2.16.79c.11.11.13.2,0,.31l-.81,1.08a.2.2,0,0,1-.31,0,3,3,0,0,0-1.63-.5c-1.6,0-2.27,1.25-2.27,3.08v5.76a.2.2,0,0,1-.21.22Z"/><path d="M281,43.4a.21.21,0,0,1-.22-.22v-.92h0a3.47,3.47,0,0,1-3.13,1.38c-2,0-3.54-1-3.54-3.16s1.54-3.26,4.12-3.26h2.39c.09,0,.14,0,.14-.13v-.77c0-1.45-.58-2.07-2.53-2.07a4.13,4.13,0,0,0-2.56.75.21.21,0,0,1-.31,0l-.59-1a.24.24,0,0,1,0-.31,5.92,5.92,0,0,1,3.59-1c3,0,4.14,1,4.14,3.59v7a.21.21,0,0,1-.22.22ZM280.74,40V38.83a.13.13,0,0,0-.14-.14h-2.11c-1.82,0-2.62.53-2.62,1.72s.8,1.65,2.2,1.65C279.72,42.06,280.74,41.29,280.74,40Z"/><path d="M284,42.06a.21.21,0,0,1,0-.31l.9-1a.23.23,0,0,1,.31,0A5.07,5.07,0,0,0,288.46,42c1.54,0,2.31-.66,2.31-1.6s-.4-1.3-2-1.48l-1.12-.11c-2.07-.22-3.15-1.25-3.15-3,0-2,1.43-3.21,3.92-3.21a6.3,6.3,0,0,1,3.74,1.17c.11.06.11.19,0,.3l-.74.95a.21.21,0,0,1-.31,0,5.64,5.64,0,0,0-2.84-.85c-1.32,0-2,.59-2,1.45s.5,1.28,2.07,1.43l1.09.11c2.14.2,3.17,1.28,3.17,3,0,2.07-1.49,3.45-4.24,3.45A6.55,6.55,0,0,1,284,42.06Z"/></g></g></svg>