<svg xmlns="http://www.w3.org/2000/svg" viewBox="0 0 388.12 77.39"><title>7c</title><g id="Capa_2" data-name="Capa 2"><g id="answer_copia" data-name="answer copia"><path d="M5.09,16.8a.22.22,0,0,1-.24-.24V2.62a.13.13,0,0,0-.15-.15H.24A.23.23,0,0,1,0,2.23V.72A.23.23,0,0,1,.24.48H11.59a.23.23,0,0,1,.24.24V2.23a.22.22,0,0,1-.24.24H7.13A.13.13,0,0,0,7,2.62V16.56a.22.22,0,0,1-.24.24Z"/><path d="M13.39,14A9.1,9.1,0,0,1,13,11a8.87,8.87,0,0,1,.36-2.9A4.44,4.44,0,0,1,17.88,5a4.45,4.45,0,0,1,4.51,3.1,10,10,0,0,1,.36,3.28.23.23,0,0,1-.26.25H15.22c-.1,0-.15,0-.15.14a4.3,4.3,0,0,0,.19,1.39,2.84,2.84,0,0,0,2.91,2,3.74,3.74,0,0,0,2.95-1.27.25.25,0,0,1,.36-.05l1,.89a.22.22,0,0,1,0,.34,5.59,5.59,0,0,1-4.49,2A4.45,4.45,0,0,1,13.39,14Zm7.15-3.89a.13.13,0,0,0,.15-.15,4,4,0,0,0-.17-1.29,2.58,2.58,0,0,0-2.64-1.8,2.58,2.58,0,0,0-2.64,1.8,4,4,0,0,0-.17,1.29.13.13,0,0,0,.15.15Z"/><path d="M34.42,16.8a.22.22,0,0,1-.24-.24V9.84c0-1.85-.84-2.93-2.57-2.93A2.58,2.58,0,0,0,29,9.72v6.84a.23.23,0,0,1-.24.24H27.19a.23.23,0,0,1-.24-.24v-11a.23.23,0,0,1,.24-.24h1.54a.23.23,0,0,1,.24.24V6.6h0A3.63,3.63,0,0,1,32.21,5c2.49,0,4,1.7,4,4.32v7.2a.22.22,0,0,1-.24.24Z"/><path d="M40.73,19.68a.21.21,0,0,1,0-.33l1-1a.22.22,0,0,1,.35,0,3.86,3.86,0,0,0,2.72,1.15c1.89,0,2.9-1,2.9-3.09V15.07h0a3.3,3.3,0,0,1-3.19,1.59,3.78,3.78,0,0,1-3.87-2.79,8.92,8.92,0,0,1-.38-3,9,9,0,0,1,.38-3A3.77,3.77,0,0,1,44.5,5a3.3,3.3,0,0,1,3.19,1.58h0V5.54A.23.23,0,0,1,48,5.3h1.54a.23.23,0,0,1,.24.24V16.3c0,3.26-1.78,5.09-5,5.09A5.18,5.18,0,0,1,40.73,19.68Zm6.72-6.6a7.08,7.08,0,0,0,.26-2.23,7.12,7.12,0,0,0-.26-2.23,2.59,2.59,0,0,0-4.87,0,6.93,6.93,0,0,0-.29,2.23,6.89,6.89,0,0,0,.29,2.23A2.34,2.34,0,0,0,45,14.81,2.38,2.38,0,0,0,47.45,13.08Z"/><path d="M61.58,16.8a.23.23,0,0,1-.24-.24v-1h0a3.77,3.77,0,0,1-3.41,1.52c-2.18,0-3.86-1.13-3.86-3.46s1.68-3.55,4.49-3.55h2.61c.1,0,.14-.05.14-.15V9.07c0-1.58-.62-2.25-2.75-2.25a4.48,4.48,0,0,0-2.79.81c-.12.1-.26.1-.33,0L54.77,6.5a.24.24,0,0,1,0-.33A6.42,6.42,0,0,1,58.73,5C62,5,63.24,6.12,63.24,9v7.61a.23.23,0,0,1-.24.24Zm-.29-3.72V11.81c0-.1,0-.14-.14-.14h-2.3c-2,0-2.86.57-2.86,1.87s.86,1.8,2.4,1.8C60.19,15.34,61.29,14.5,61.29,13.08Z"/><path d="M75,21.12a.22.22,0,0,1-.24-.24V5.54A.23.23,0,0,1,75,5.3h1.53a.23.23,0,0,1,.24.24V6.62h0A3.48,3.48,0,0,1,80.06,5,3.8,3.8,0,0,1,84,7.8,9.53,9.53,0,0,1,84.43,11,9.68,9.68,0,0,1,84,14.31a3.8,3.8,0,0,1-4,2.76,3.49,3.49,0,0,1-3.26-1.61h0v5.42a.22.22,0,0,1-.24.24Zm7.1-7.68a8,8,0,0,0,.27-2.4,8.21,8.21,0,0,0-.27-2.4,2.71,2.71,0,0,0-5.06,0,7.53,7.53,0,0,0-.27,2.4,7.41,7.41,0,0,0,.27,2.4,2.7,2.7,0,0,0,5.06,0Z"/><path d="M88.87,16.8a.23.23,0,0,1-.24-.24v-11a.23.23,0,0,1,.24-.24h1.54a.23.23,0,0,1,.24.24V6.72h0a3.2,3.2,0,0,1,3-1.68,3.56,3.56,0,0,1,2.35.86c.12.12.14.22.05.34l-.89,1.18a.21.21,0,0,1-.33,0,3.31,3.31,0,0,0-1.78-.55c-1.75,0-2.47,1.37-2.47,3.36v6.29a.23.23,0,0,1-.24.24Z"/><path d="M98.69,14A9.05,9.05,0,0,1,98.3,11a8.87,8.87,0,0,1,.36-2.9,4.84,4.84,0,0,1,9,0,10,10,0,0,1,.36,3.28.24.24,0,0,1-.27.25h-7.27a.12.12,0,0,0-.14.14,4.3,4.3,0,0,0,.19,1.39,2.83,2.83,0,0,0,2.9,2,3.78,3.78,0,0,0,3-1.27.25.25,0,0,1,.36-.05l1,.89a.22.22,0,0,1,0,.34,5.59,5.59,0,0,1-4.49,2A4.44,4.44,0,0,1,98.69,14Zm7.15-3.89c.1,0,.14-.05.14-.15a4,4,0,0,0-.16-1.29,2.84,2.84,0,0,0-5.28,0,4,4,0,0,0-.17,1.29c0,.1,0,.15.14.15Z"/><path d="M111.91,8.14A4.45,4.45,0,0,1,116.45,5,4.6,4.6,0,0,1,120.38,7c.08.12.08.22-.07.34l-1.06.86a.21.21,0,0,1-.33,0,2.82,2.82,0,0,0-2.47-1.25,2.49,2.49,0,0,0-2.57,1.8,7.75,7.75,0,0,0-.26,2.33,7.81,7.81,0,0,0,.26,2.35,2.49,2.49,0,0,0,2.57,1.8A2.82,2.82,0,0,0,118.92,14a.21.21,0,0,1,.33,0l1.06.87c.15.12.15.21.07.33a4.61,4.61,0,0,1-3.93,2,4.46,4.46,0,0,1-4.54-3.1,9.81,9.81,0,0,1-.36-2.93A9.69,9.69,0,0,1,111.91,8.14Z"/><path d="M131.21,16.8a.22.22,0,0,1-.24-.24v-1h0a3.74,3.74,0,0,1-3.4,1.52c-2.19,0-3.87-1.13-3.87-3.46s1.68-3.55,4.49-3.55h2.62c.09,0,.14-.05.14-.15V9.07c0-1.58-.63-2.25-2.76-2.25a4.44,4.44,0,0,0-2.78.81c-.13.1-.27.1-.34,0l-.65-1.11a.24.24,0,0,1,0-.33A6.38,6.38,0,0,1,128.35,5c3.27,0,4.51,1.08,4.51,3.91v7.61a.22.22,0,0,1-.24.24Zm-.29-3.72V11.81a.12.12,0,0,0-.14-.14h-2.31c-2,0-2.85.57-2.85,1.87s.86,1.8,2.39,1.8C129.82,15.34,130.92,14.5,130.92,13.08Z"/><path d="M144.89,16.8a.22.22,0,0,1-.24-.24V15.48h0a3.5,3.5,0,0,1-3.14,1.59c-2.52,0-4-1.73-4-4.35V5.54a.22.22,0,0,1,.23-.24h1.54a.23.23,0,0,1,.24.24v6.7c0,1.87.84,2.95,2.54,2.95a2.55,2.55,0,0,0,2.6-2.83V5.54a.23.23,0,0,1,.24-.24h1.53a.23.23,0,0,1,.24.24v11a.22.22,0,0,1-.24.24Z"/><path d="M151.22,8.14A4.45,4.45,0,0,1,155.76,5,4.63,4.63,0,0,1,159.7,7c.07.12.07.22-.08.34l-1.05.86a.22.22,0,0,1-.34,0,2.82,2.82,0,0,0-2.47-1.25,2.49,2.49,0,0,0-2.57,1.8,7.75,7.75,0,0,0-.26,2.33,7.81,7.81,0,0,0,.26,2.35,2.49,2.49,0,0,0,2.57,1.8A2.82,2.82,0,0,0,158.23,14a.22.22,0,0,1,.34,0l1.05.87c.15.12.15.21.08.33a4.64,4.64,0,0,1-3.94,2,4.46,4.46,0,0,1-4.54-3.1,10.15,10.15,0,0,1-.36-2.93A10,10,0,0,1,151.22,8.14Z"/><path d="M164,2.71a.22.22,0,0,1-.24-.24V.72A.23.23,0,0,1,164,.48h1.63a.23.23,0,0,1,.24.24V2.47a.23.23,0,0,1-.24.24Zm0,14.09a.22.22,0,0,1-.23-.24v-11a.22.22,0,0,1,.23-.24h1.54a.23.23,0,0,1,.24.24v11a.22.22,0,0,1-.24.24Z"/><path d="M170.45,14a8.48,8.48,0,0,1-.39-2.93,8.37,8.37,0,0,1,.39-2.9,4.87,4.87,0,0,1,9.07,0,8.65,8.65,0,0,1,.38,2.9,8.77,8.77,0,0,1-.38,2.93,4.87,4.87,0,0,1-9.07,0Zm7.12-.58a7.22,7.22,0,0,0,.27-2.35,7.16,7.16,0,0,0-.27-2.33,2.76,2.76,0,0,0-5.18,0,7.5,7.5,0,0,0-.26,2.33,7.56,7.56,0,0,0,.26,2.35,2.76,2.76,0,0,0,5.18,0Zm-3.45-10c-.15,0-.22-.09-.15-.24L175.8.24a.41.41,0,0,1,.41-.24h1.58c.14,0,.22.12.12.24l-2.21,3a.47.47,0,0,1-.45.24Z"/><path d="M191.57,16.8a.22.22,0,0,1-.24-.24V9.84c0-1.85-.84-2.93-2.57-2.93a2.58,2.58,0,0,0-2.64,2.81v6.84a.23.23,0,0,1-.24.24h-1.54a.23.23,0,0,1-.24-.24v-11a.23.23,0,0,1,.24-.24h1.54a.23.23,0,0,1,.24.24V6.6h0A3.63,3.63,0,0,1,189.36,5c2.49,0,4,1.7,4,4.32v7.2a.22.22,0,0,1-.24.24Z"/><path d="M204.93,21.12a.23.23,0,0,1-.24-.24V19.49a.23.23,0,0,1,.24-.24h.43c.94,0,1.44-.41,1.95-1.73l.38-1.05L203.47,5.54c-.05-.14,0-.24.19-.24h1.68a.29.29,0,0,1,.29.24l3,8.31h0l2.91-8.31a.28.28,0,0,1,.28-.24h1.64c.14,0,.24.1.19.24l-4.54,12.15c-1,2.71-1.89,3.43-3.62,3.43Z"/><path d="M223.63,8.14A4.45,4.45,0,0,1,228.16,5,4.6,4.6,0,0,1,232.1,7a.23.23,0,0,1-.07.34L231,8.18a.21.21,0,0,1-.33,0,2.84,2.84,0,0,0-2.48-1.25,2.49,2.49,0,0,0-2.56,1.8,7.39,7.39,0,0,0-.27,2.33,7.45,7.45,0,0,0,.27,2.35,2.49,2.49,0,0,0,2.56,1.8A2.83,2.83,0,0,0,230.64,14a.21.21,0,0,1,.33,0l1.06.87c.14.12.14.21.07.33a4.61,4.61,0,0,1-3.94,2,4.46,4.46,0,0,1-4.53-3.1,9.81,9.81,0,0,1-.36-2.93A9.69,9.69,0,0,1,223.63,8.14Z"/><path d="M243.48,16.8a.22.22,0,0,1-.24-.24V15.48h0a3.5,3.5,0,0,1-3.14,1.59c-2.52,0-4-1.73-4-4.35V5.54a.23.23,0,0,1,.24-.24h1.54a.23.23,0,0,1,.24.24v6.7c0,1.87.84,2.95,2.54,2.95a2.55,2.55,0,0,0,2.6-2.83V5.54a.23.23,0,0,1,.24-.24H245a.23.23,0,0,1,.24.24v11a.22.22,0,0,1-.24.24Z"/><path d="M249.84,14a9.05,9.05,0,0,1-.39-2.91,8.87,8.87,0,0,1,.36-2.9,4.84,4.84,0,0,1,9,0,10,10,0,0,1,.36,3.28.24.24,0,0,1-.27.25h-7.27c-.1,0-.14,0-.14.14a4.3,4.3,0,0,0,.19,1.39,2.83,2.83,0,0,0,2.9,2,3.74,3.74,0,0,0,2.95-1.27.25.25,0,0,1,.36-.05l1,.89a.22.22,0,0,1,0,.34,5.59,5.59,0,0,1-4.49,2A4.44,4.44,0,0,1,249.84,14ZM257,10.06c.09,0,.14-.05.14-.15A4,4,0,0,0,257,8.62a2.84,2.84,0,0,0-5.28,0,4,4,0,0,0-.16,1.29c0,.1,0,.15.14.15Z"/><path d="M270.86,16.8a.22.22,0,0,1-.24-.24V9.84c0-1.85-.84-2.93-2.57-2.93a2.58,2.58,0,0,0-2.64,2.81v6.84a.23.23,0,0,1-.24.24h-1.54a.23.23,0,0,1-.24-.24v-11a.23.23,0,0,1,.24-.24h1.54a.23.23,0,0,1,.24.24V6.6h0A3.65,3.65,0,0,1,268.65,5c2.5,0,4,1.7,4,4.32v7.2a.23.23,0,0,1-.24.24Z"/><path d="M280.75,16.92c-2.24,0-3.1-1-3.1-3.26V7.08a.12.12,0,0,0-.14-.14h-1a.23.23,0,0,1-.24-.24V5.54a.23.23,0,0,1,.24-.24h1a.12.12,0,0,0,.14-.14V1.92a.23.23,0,0,1,.24-.24h1.54a.23.23,0,0,1,.24.24V5.16c0,.1,0,.14.14.14h1.82a.23.23,0,0,1,.25.24V6.7a.23.23,0,0,1-.25.24h-1.82c-.1,0-.14,0-.14.14v6.5c0,1.16.43,1.47,1.46,1.47h.5a.23.23,0,0,1,.25.24v1.39a.23.23,0,0,1-.25.24Z"/><path d="M285.64,14a9.1,9.1,0,0,1-.38-2.91,8.87,8.87,0,0,1,.36-2.9,4.83,4.83,0,0,1,9,0,10,10,0,0,1,.36,3.28.23.23,0,0,1-.26.25h-7.27c-.1,0-.15,0-.15.14a4.3,4.3,0,0,0,.19,1.39,2.84,2.84,0,0,0,2.91,2,3.74,3.74,0,0,0,2.95-1.27.25.25,0,0,1,.36-.05l1,.89a.22.22,0,0,1,0,.34,5.59,5.59,0,0,1-4.49,2A4.45,4.45,0,0,1,285.64,14Zm7.15-3.89a.13.13,0,0,0,.15-.15,4,4,0,0,0-.17-1.29,2.84,2.84,0,0,0-5.28,0,4,4,0,0,0-.17,1.29.13.13,0,0,0,.15.15Z"/><path d="M305.59,8.14A4.43,4.43,0,0,1,310.12,5,4.6,4.6,0,0,1,314.06,7a.23.23,0,0,1-.07.34l-1.06.86a.22.22,0,0,1-.34,0,2.82,2.82,0,0,0-2.47-1.25,2.5,2.5,0,0,0-2.57,1.8,7.75,7.75,0,0,0-.26,2.33,7.81,7.81,0,0,0,.26,2.35,2.5,2.5,0,0,0,2.57,1.8A2.82,2.82,0,0,0,312.59,14a.22.22,0,0,1,.34,0l1.06.87c.14.12.14.21.07.33a4.61,4.61,0,0,1-3.94,2,4.44,4.44,0,0,1-4.53-3.1,9.81,9.81,0,0,1-.36-2.93A9.69,9.69,0,0,1,305.59,8.14Z"/><path d="M317.61,14a8.77,8.77,0,0,1-.38-2.93,8.65,8.65,0,0,1,.38-2.9,4.87,4.87,0,0,1,9.07,0,8.37,8.37,0,0,1,.39,2.9,8.48,8.48,0,0,1-.39,2.93,4.87,4.87,0,0,1-9.07,0Zm7.13-.58A7.56,7.56,0,0,0,325,11a7.5,7.5,0,0,0-.26-2.33,2.77,2.77,0,0,0-5.19,0,7.5,7.5,0,0,0-.26,2.33,7.56,7.56,0,0,0,.26,2.35,2.77,2.77,0,0,0,5.19,0Z"/><path d="M338.73,16.8a.23.23,0,0,1-.24-.24V9.84c0-1.85-.84-2.93-2.57-2.93a2.58,2.58,0,0,0-2.64,2.81v6.84a.22.22,0,0,1-.24.24h-1.53a.22.22,0,0,1-.24-.24v-11a.23.23,0,0,1,.24-.24H333a.23.23,0,0,1,.24.24V6.6h0A3.62,3.62,0,0,1,336.52,5c2.5,0,4,1.7,4,4.32v7.2a.23.23,0,0,1-.24.24Z"/><path d="M359.23,16.8a.22.22,0,0,1-.24-.24V15.48h0a3.5,3.5,0,0,1-3.14,1.59c-2.52,0-4-1.73-4-4.35V5.54a.23.23,0,0,1,.24-.24h1.54a.23.23,0,0,1,.24.24v6.7c0,1.87.84,2.95,2.54,2.95a2.55,2.55,0,0,0,2.6-2.83V5.54a.23.23,0,0,1,.24-.24h1.53a.23.23,0,0,1,.24.24v11a.22.22,0,0,1-.24.24Z"/><path d="M373.36,16.8a.23.23,0,0,1-.24-.24V9.84c0-1.85-.84-2.93-2.57-2.93a2.58,2.58,0,0,0-2.64,2.81v6.84a.22.22,0,0,1-.24.24h-1.53a.22.22,0,0,1-.24-.24v-11a.23.23,0,0,1,.24-.24h1.53a.23.23,0,0,1,.24.24V6.6h0A3.62,3.62,0,0,1,371.15,5c2.5,0,4,1.7,4,4.32v7.2a.23.23,0,0,1-.24.24Z"/><path d="M.65,43.34a.23.23,0,0,1,0-.34l1-1A.23.23,0,0,1,2,42a5.6,5.6,0,0,0,3.55,1.32C7.2,43.27,8,42.54,8,41.51S7.61,40.1,5.81,39.9l-1.23-.12c-2.25-.24-3.43-1.36-3.43-3.24,0-2.18,1.56-3.5,4.27-3.5A6.88,6.88,0,0,1,9.5,34.31a.22.22,0,0,1,.05.34l-.81,1a.24.24,0,0,1-.34,0,6,6,0,0,0-3.1-.94c-1.44,0-2.18.65-2.18,1.59s.55,1.39,2.26,1.56l1.2.12C8.9,38.27,10,39.45,10,41.3c0,2.25-1.63,3.77-4.63,3.77A7.16,7.16,0,0,1,.65,43.34Z"/><path d="M12.41,42A9.05,9.05,0,0,1,12,39a8.87,8.87,0,0,1,.36-2.9A4.44,4.44,0,0,1,16.9,33a4.46,4.46,0,0,1,4.51,3.1,10,10,0,0,1,.36,3.28.24.24,0,0,1-.27.25H14.23a.12.12,0,0,0-.14.14,4.3,4.3,0,0,0,.19,1.39,2.84,2.84,0,0,0,2.9,2,3.78,3.78,0,0,0,3-1.27.25.25,0,0,1,.36-.05l1,.89a.22.22,0,0,1,0,.34,5.59,5.59,0,0,1-4.48,2A4.45,4.45,0,0,1,12.41,42Zm7.15-3.89c.1,0,.14-.05.14-.15a4,4,0,0,0-.16-1.29,2.6,2.6,0,0,0-2.64-1.8,2.58,2.58,0,0,0-2.64,1.8,4,4,0,0,0-.17,1.29c0,.1.05.15.14.15Z"/><path d="M24.29,47.68a.21.21,0,0,1,0-.33l1-1a.23.23,0,0,1,.36,0,3.81,3.81,0,0,0,2.71,1.15c1.89,0,2.9-1,2.9-3.09V43.07h0a3.3,3.3,0,0,1-3.19,1.59,3.78,3.78,0,0,1-3.87-2.79,8.92,8.92,0,0,1-.38-3,9,9,0,0,1,.38-3A3.77,3.77,0,0,1,28.06,33a3.3,3.3,0,0,1,3.19,1.58h0V33.54a.23.23,0,0,1,.24-.24h1.54a.23.23,0,0,1,.24.24V44.3c0,3.26-1.78,5.09-5,5.09A5.18,5.18,0,0,1,24.29,47.68ZM31,41.08a7.08,7.08,0,0,0,.26-2.23A7.12,7.12,0,0,0,31,36.62a2.36,2.36,0,0,0-2.45-1.71,2.34,2.34,0,0,0-2.42,1.71,6.93,6.93,0,0,0-.29,2.23,6.89,6.89,0,0,0,.29,2.23,2.34,2.34,0,0,0,2.42,1.73A2.38,2.38,0,0,0,31,41.08Z"/><path d="M44,44.8a.22.22,0,0,1-.24-.24V43.48h0a3.5,3.5,0,0,1-3.14,1.59c-2.52,0-4-1.73-4-4.35V33.54a.23.23,0,0,1,.24-.24h1.53a.23.23,0,0,1,.24.24v6.7c0,1.87.84,2.95,2.55,2.95a2.55,2.55,0,0,0,2.59-2.83V33.54A.23.23,0,0,1,44,33.3H45.5a.23.23,0,0,1,.24.24v11a.22.22,0,0,1-.24.24Z"/><path d="M56.66,44.8a.23.23,0,0,1-.24-.24V37.84c0-1.85-.84-2.93-2.56-2.93a2.59,2.59,0,0,0-2.65,2.81v6.84a.22.22,0,0,1-.24.24H49.44a.22.22,0,0,1-.24-.24v-11a.23.23,0,0,1,.24-.24H51a.23.23,0,0,1,.24.24V34.6h0A3.63,3.63,0,0,1,54.46,33c2.49,0,4,1.7,4,4.32v7.2a.23.23,0,0,1-.24.24Z"/><path d="M69,44.8a.22.22,0,0,1-.24-.24v-1.1h0a3.5,3.5,0,0,1-3.26,1.61,3.8,3.8,0,0,1-4-2.76A9.43,9.43,0,0,1,61.08,39a9.29,9.29,0,0,1,.41-3.24,3.8,3.8,0,0,1,4-2.76,3.49,3.49,0,0,1,3.26,1.58h0v-5.9a.23.23,0,0,1,.24-.24h1.53a.23.23,0,0,1,.24.24V44.56a.22.22,0,0,1-.24.24Zm-.51-3.36a7.41,7.41,0,0,0,.27-2.4,7.53,7.53,0,0,0-.27-2.4,2.71,2.71,0,0,0-5.06,0,7.88,7.88,0,0,0-.27,2.4,7.68,7.68,0,0,0,.27,2.4,2.7,2.7,0,0,0,5.06,0Z"/><path d="M73.89,42A8.77,8.77,0,0,1,73.51,39a8.65,8.65,0,0,1,.38-2.9,4.87,4.87,0,0,1,9.08,0,8.65,8.65,0,0,1,.38,2.9A8.77,8.77,0,0,1,83,42a4.87,4.87,0,0,1-9.08,0ZM81,41.39A7.5,7.5,0,0,0,81.29,39,7.45,7.45,0,0,0,81,36.71a2.76,2.76,0,0,0-5.18,0A7.45,7.45,0,0,0,75.57,39a7.5,7.5,0,0,0,.27,2.35,2.76,2.76,0,0,0,5.18,0Z"/><path d="M90.6,43.34a.23.23,0,0,1,0-.34l1-1a.23.23,0,0,1,.34,0,5.6,5.6,0,0,0,3.55,1.32c1.68,0,2.52-.73,2.52-1.76s-.43-1.41-2.23-1.61l-1.23-.12c-2.25-.24-3.43-1.36-3.43-3.24,0-2.18,1.56-3.5,4.27-3.5a6.88,6.88,0,0,1,4.08,1.27.24.24,0,0,1,0,.34l-.81,1a.24.24,0,0,1-.34,0,6,6,0,0,0-3.1-.94c-1.44,0-2.18.65-2.18,1.59s.55,1.39,2.26,1.56l1.2.12c2.32.21,3.45,1.39,3.45,3.24,0,2.25-1.63,3.77-4.63,3.77A7.16,7.16,0,0,1,90.6,43.34Z"/><path d="M102.36,42A9.05,9.05,0,0,1,102,39a8.87,8.87,0,0,1,.36-2.9,4.84,4.84,0,0,1,9,0,10,10,0,0,1,.36,3.28.24.24,0,0,1-.27.25h-7.27a.12.12,0,0,0-.14.14,4.3,4.3,0,0,0,.19,1.39,2.84,2.84,0,0,0,2.9,2,3.78,3.78,0,0,0,3-1.27.25.25,0,0,1,.36-.05l1,.89a.22.22,0,0,1,0,.34,5.59,5.59,0,0,1-4.48,2A4.45,4.45,0,0,1,102.36,42Zm7.15-3.89c.1,0,.14-.05.14-.15a4,4,0,0,0-.16-1.29,2.84,2.84,0,0,0-5.28,0,4,4,0,0,0-.17,1.29c0,.1,0,.15.14.15Z"/><path d="M121.94,44.8a.23.23,0,0,1-.24-.24V37.84c0-1.85-.84-2.93-2.57-2.93a2.58,2.58,0,0,0-2.64,2.81v6.84a.22.22,0,0,1-.24.24h-1.53a.22.22,0,0,1-.24-.24v-11a.23.23,0,0,1,.24-.24h1.53a.23.23,0,0,1,.24.24V34.6h0A3.62,3.62,0,0,1,119.73,33c2.5,0,4,1.7,4,4.32v7.2a.23.23,0,0,1-.24.24Z"/><path d="M134.25,44.8a.23.23,0,0,1-.24-.24v-1.1h0a3.5,3.5,0,0,1-3.26,1.61,3.79,3.79,0,0,1-4-2.76,9.43,9.43,0,0,1-.41-3.27,9.29,9.29,0,0,1,.41-3.24,3.79,3.79,0,0,1,4-2.76A3.49,3.49,0,0,1,134,34.62h0v-5.9a.23.23,0,0,1,.24-.24h1.54a.23.23,0,0,1,.24.24V44.56a.23.23,0,0,1-.24.24Zm-.5-3.36A7.47,7.47,0,0,0,134,39a7.59,7.59,0,0,0-.26-2.4,2.71,2.71,0,0,0-5.06,0,7.88,7.88,0,0,0-.27,2.4,7.68,7.68,0,0,0,.27,2.4,2.7,2.7,0,0,0,5.06,0Z"/><path d="M139.17,42a9.1,9.1,0,0,1-.38-2.91,8.87,8.87,0,0,1,.36-2.9,4.83,4.83,0,0,1,9,0,10,10,0,0,1,.36,3.28.23.23,0,0,1-.26.25H141c-.1,0-.15,0-.15.14a4.27,4.27,0,0,0,.2,1.39,2.83,2.83,0,0,0,2.9,2,3.74,3.74,0,0,0,3-1.27.25.25,0,0,1,.36-.05l1,.89a.22.22,0,0,1,0,.34,5.59,5.59,0,0,1-4.49,2A4.45,4.45,0,0,1,139.17,42Zm7.16-3.89c.09,0,.14-.05.14-.15a4,4,0,0,0-.17-1.29,2.84,2.84,0,0,0-5.28,0,4,4,0,0,0-.17,1.29.13.13,0,0,0,.15.15Z"/><path d="M151.53,44.8a.23.23,0,0,1-.24-.24v-11a.23.23,0,0,1,.24-.24h1.54a.23.23,0,0,1,.24.24v1.18h0a3.23,3.23,0,0,1,3-1.68,3.56,3.56,0,0,1,2.35.86c.12.12.15.22.05.34l-.89,1.18a.21.21,0,0,1-.33,0,3.31,3.31,0,0,0-1.78-.55c-1.75,0-2.47,1.37-2.47,3.36v6.29a.23.23,0,0,1-.24.24Z"/><path d="M159.91,42a8.77,8.77,0,0,1-.38-2.93,8.65,8.65,0,0,1,.38-2.9,4.87,4.87,0,0,1,9.07,0,8.37,8.37,0,0,1,.39,2.9A8.48,8.48,0,0,1,169,42a4.87,4.87,0,0,1-9.07,0Zm7.13-.58A7.56,7.56,0,0,0,167.3,39a7.5,7.5,0,0,0-.26-2.33,2.77,2.77,0,0,0-5.19,0,7.5,7.5,0,0,0-.26,2.33,7.56,7.56,0,0,0,.26,2.35,2.77,2.77,0,0,0,5.19,0Z"/><path d="M184.61,44.8a.22.22,0,0,1-.24-.24v-1.1h0a3.49,3.49,0,0,1-3.26,1.61,3.79,3.79,0,0,1-4-2.76,9.43,9.43,0,0,1-.41-3.27,9.29,9.29,0,0,1,.41-3.24,3.79,3.79,0,0,1,4-2.76,3.48,3.48,0,0,1,3.26,1.58h0v-5.9a.23.23,0,0,1,.24-.24h1.53a.23.23,0,0,1,.24.24V44.56a.22.22,0,0,1-.24.24Zm-.51-3.36a7.41,7.41,0,0,0,.27-2.4,7.53,7.53,0,0,0-.27-2.4,2.71,2.71,0,0,0-5.06,0,7.88,7.88,0,0,0-.27,2.4,7.68,7.68,0,0,0,.27,2.4,2.7,2.7,0,0,0,5.06,0Z"/><path d="M189.53,42a9.05,9.05,0,0,1-.39-2.91,8.87,8.87,0,0,1,.36-2.9,4.84,4.84,0,0,1,9,0,10,10,0,0,1,.36,3.28.24.24,0,0,1-.27.25h-7.27c-.1,0-.14,0-.14.14a4.3,4.3,0,0,0,.19,1.39,2.83,2.83,0,0,0,2.9,2,3.74,3.74,0,0,0,2.95-1.27.25.25,0,0,1,.36-.05l1,.89a.22.22,0,0,1,0,.34,5.59,5.59,0,0,1-4.49,2A4.44,4.44,0,0,1,189.53,42Zm7.15-3.89c.09,0,.14-.05.14-.15a4,4,0,0,0-.17-1.29,2.84,2.84,0,0,0-5.28,0,4,4,0,0,0-.16,1.29c0,.1,0,.15.14.15Z"/><path d="M210.26,44.92c-2.23,0-3.09-1-3.09-3.26V35.08c0-.1,0-.14-.15-.14h-1a.23.23,0,0,1-.24-.24V33.54a.23.23,0,0,1,.24-.24h1c.1,0,.15,0,.15-.14V29.92a.23.23,0,0,1,.24-.24h1.53a.23.23,0,0,1,.24.24v3.24c0,.1,0,.14.15.14h1.82a.23.23,0,0,1,.24.24V34.7a.23.23,0,0,1-.24.24h-1.82c-.1,0-.15,0-.15.14v6.5c0,1.16.43,1.47,1.47,1.47h.5a.23.23,0,0,1,.24.24v1.39a.23.23,0,0,1-.24.24Z"/><path d="M214.27,44.8a.23.23,0,0,1-.24-.24v-11a.23.23,0,0,1,.24-.24h1.53a.23.23,0,0,1,.24.24v1.18h0A3.2,3.2,0,0,1,219.12,33a3.58,3.58,0,0,1,2.35.86c.12.12.14.22.05.34l-.89,1.18a.22.22,0,0,1-.34,0,3.25,3.25,0,0,0-1.77-.55c-1.75,0-2.48,1.37-2.48,3.36v6.29a.22.22,0,0,1-.24.24Z"/><path d="M229.77,44.8a.23.23,0,0,1-.24-.24v-1h0a3.77,3.77,0,0,1-3.41,1.52c-2.18,0-3.86-1.13-3.86-3.46s1.68-3.55,4.49-3.55h2.61a.13.13,0,0,0,.15-.15v-.84c0-1.58-.63-2.25-2.76-2.25a4.48,4.48,0,0,0-2.79.81c-.12.1-.26.1-.33,0L223,34.5a.24.24,0,0,1,0-.33A6.42,6.42,0,0,1,226.92,33c3.26,0,4.51,1.08,4.51,3.91v7.61a.23.23,0,0,1-.24.24Zm-.28-3.72V39.81c0-.1-.05-.14-.15-.14H227c-2,0-2.86.57-2.86,1.87s.86,1.8,2.4,1.8C228.38,43.34,229.49,42.5,229.49,41.08Z"/><path d="M234,43.34a.23.23,0,0,1,0-.34l1-1a.23.23,0,0,1,.34,0,5.6,5.6,0,0,0,3.55,1.32c1.68,0,2.52-.73,2.52-1.76s-.43-1.41-2.23-1.61l-1.23-.12c-2.25-.24-3.43-1.36-3.43-3.24,0-2.18,1.56-3.5,4.27-3.5a6.88,6.88,0,0,1,4.08,1.27.24.24,0,0,1,.05.34l-.81,1a.24.24,0,0,1-.34,0,6,6,0,0,0-3.1-.94c-1.44,0-2.18.65-2.18,1.59s.55,1.39,2.26,1.56l1.2.12c2.32.21,3.45,1.39,3.45,3.24,0,2.25-1.63,3.77-4.63,3.77A7.16,7.16,0,0,1,234,43.34Z"/><path d="M248.83,44.92c-2,0-2.81-1-2.81-3V28.72a.23.23,0,0,1,.24-.24h1.54a.23.23,0,0,1,.24.24V41.78c0,1,.36,1.27,1.15,1.27h.46a.23.23,0,0,1,.24.24v1.39a.23.23,0,0,1-.24.24Z"/><path d="M259.2,44.8a.22.22,0,0,1-.24-.24v-1h0a3.74,3.74,0,0,1-3.4,1.52c-2.19,0-3.87-1.13-3.87-3.46s1.68-3.55,4.49-3.55h2.62c.09,0,.14-.05.14-.15v-.84c0-1.58-.62-2.25-2.76-2.25a4.44,4.44,0,0,0-2.78.81c-.12.1-.27.1-.34,0l-.65-1.11a.24.24,0,0,1,.05-.33A6.38,6.38,0,0,1,256.34,33c3.27,0,4.51,1.08,4.51,3.91v7.61a.22.22,0,0,1-.24.24Zm-.29-3.72V39.81a.12.12,0,0,0-.14-.14h-2.31c-2,0-2.85.57-2.85,1.87s.86,1.8,2.39,1.8C257.81,43.34,258.91,42.5,258.91,41.08Z"/><path d="M271.41,44.8a.23.23,0,0,1-.24-.24v-1.1h0a3.5,3.5,0,0,1-3.26,1.61,3.81,3.81,0,0,1-4-2.76,9.71,9.71,0,0,1-.4-3.27,9.56,9.56,0,0,1,.4-3.24,3.81,3.81,0,0,1,4-2.76,3.49,3.49,0,0,1,3.26,1.58h0v-5.9a.23.23,0,0,1,.24-.24H273a.23.23,0,0,1,.24.24V44.56a.23.23,0,0,1-.24.24Zm-.5-3.36a7.47,7.47,0,0,0,.26-2.4,7.59,7.59,0,0,0-.26-2.4,2.72,2.72,0,0,0-5.07,0,8.26,8.26,0,0,0-.26,2.4,8,8,0,0,0,.26,2.4,2.71,2.71,0,0,0,5.07,0Z"/><path d="M276.33,42A8.77,8.77,0,0,1,276,39a8.65,8.65,0,0,1,.38-2.9,4.87,4.87,0,0,1,9.08,0,8.65,8.65,0,0,1,.38,2.9,8.77,8.77,0,0,1-.38,2.93,4.87,4.87,0,0,1-9.08,0Zm7.13-.58a7.5,7.5,0,0,0,.27-2.35,7.45,7.45,0,0,0-.27-2.33,2.76,2.76,0,0,0-5.18,0A7.16,7.16,0,0,0,278,39a7.22,7.22,0,0,0,.27,2.35,2.76,2.76,0,0,0,5.18,0Z"/><path d="M301,49.12a.22.22,0,0,1-.24-.24V43.46h0a3.49,3.49,0,0,1-3.26,1.61,3.81,3.81,0,0,1-4-2.76,9.68,9.68,0,0,1-.41-3.27,9.53,9.53,0,0,1,.41-3.24,3.81,3.81,0,0,1,4-2.76,3.48,3.48,0,0,1,3.26,1.58h0V33.54a.23.23,0,0,1,.24-.24h1.54a.22.22,0,0,1,.23.24V48.88a.22.22,0,0,1-.23.24Zm-.51-7.68a7.14,7.14,0,0,0,.27-2.4,7.25,7.25,0,0,0-.27-2.4,2.71,2.71,0,0,0-5.06,0,8.26,8.26,0,0,0-.26,2.4,8,8,0,0,0,.26,2.4,2.7,2.7,0,0,0,5.06,0Z"/><path d="M313.49,44.8a.22.22,0,0,1-.24-.24V43.48h0a3.51,3.51,0,0,1-3.14,1.59c-2.52,0-4-1.73-4-4.35V33.54a.23.23,0,0,1,.24-.24h1.54a.23.23,0,0,1,.24.24v6.7c0,1.87.84,2.95,2.54,2.95a2.55,2.55,0,0,0,2.6-2.83V33.54a.23.23,0,0,1,.24-.24H315a.23.23,0,0,1,.24.24v11a.22.22,0,0,1-.24.24Z"/><path d="M318.4,42A9.1,9.1,0,0,1,318,39a8.87,8.87,0,0,1,.36-2.9,4.83,4.83,0,0,1,9,0,10,10,0,0,1,.36,3.28.23.23,0,0,1-.26.25h-7.27c-.1,0-.15,0-.15.14a4.27,4.27,0,0,0,.2,1.39,2.83,2.83,0,0,0,2.9,2,3.74,3.74,0,0,0,2.95-1.27.25.25,0,0,1,.36-.05l1,.89a.22.22,0,0,1,0,.34,5.59,5.59,0,0,1-4.49,2A4.45,4.45,0,0,1,318.4,42Zm7.16-3.89c.09,0,.14-.05.14-.15a4,4,0,0,0-.17-1.29,2.84,2.84,0,0,0-5.28,0,4,4,0,0,0-.17,1.29.13.13,0,0,0,.15.15Z"/><path d="M339.14,44.92c-2.23,0-3.1-1-3.1-3.26V35.08c0-.1,0-.14-.14-.14h-1a.23.23,0,0,1-.24-.24V33.54a.23.23,0,0,1,.24-.24h1c.1,0,.14,0,.14-.14V29.92a.23.23,0,0,1,.24-.24h1.54a.23.23,0,0,1,.24.24v3.24a.12.12,0,0,0,.14.14H340a.23.23,0,0,1,.24.24V34.7a.23.23,0,0,1-.24.24H338.2a.12.12,0,0,0-.14.14v6.5c0,1.16.43,1.47,1.46,1.47H340a.23.23,0,0,1,.24.24v1.39a.23.23,0,0,1-.24.24Z"/><path d="M342.6,42a9.05,9.05,0,0,1-.39-2.91,8.87,8.87,0,0,1,.36-2.9,4.84,4.84,0,0,1,9,0,10,10,0,0,1,.36,3.28.24.24,0,0,1-.27.25h-7.27c-.1,0-.14,0-.14.14a4.3,4.3,0,0,0,.19,1.39,2.83,2.83,0,0,0,2.9,2,3.74,3.74,0,0,0,2.95-1.27.25.25,0,0,1,.36-.05l1,.89a.22.22,0,0,1,0,.34,5.59,5.59,0,0,1-4.49,2A4.44,4.44,0,0,1,342.6,42Zm7.15-3.89c.09,0,.14-.05.14-.15a4,4,0,0,0-.17-1.29,2.84,2.84,0,0,0-5.28,0,4,4,0,0,0-.16,1.29c0,.1,0,.15.14.15Z"/><path d="M362.18,44.8a.23.23,0,0,1-.24-.24V37.84c0-1.85-.84-2.93-2.57-2.93a2.58,2.58,0,0,0-2.64,2.81v6.84a.22.22,0,0,1-.24.24H355a.22.22,0,0,1-.24-.24v-11a.23.23,0,0,1,.24-.24h1.53a.23.23,0,0,1,.24.24V34.6h0A3.62,3.62,0,0,1,360,33c2.5,0,4,1.7,4,4.32v7.2a.23.23,0,0,1-.24.24Z"/><path d="M367.05,47.68a.21.21,0,0,1,0-.33l1-1a.23.23,0,0,1,.36,0,3.83,3.83,0,0,0,2.71,1.15c1.9,0,2.91-1,2.91-3.09V43.07h0a3.3,3.3,0,0,1-3.19,1.59A3.77,3.77,0,0,1,367,41.87a8.89,8.89,0,0,1-.39-3,9,9,0,0,1,.39-3A3.76,3.76,0,0,1,370.82,33,3.3,3.3,0,0,1,374,34.62h0V33.54a.23.23,0,0,1,.24-.24h1.53a.23.23,0,0,1,.24.24V44.3c0,3.26-1.77,5.09-5,5.09A5.21,5.21,0,0,1,367.05,47.68Zm6.72-6.6a7,7,0,0,0,.27-2.23,7.08,7.08,0,0,0-.27-2.23,2.59,2.59,0,0,0-4.87,0,7.22,7.22,0,0,0-.29,2.23,7.18,7.18,0,0,0,.29,2.23,2.34,2.34,0,0,0,2.42,1.73A2.38,2.38,0,0,0,373.77,41.08Z"/><path d="M386.47,44.8a.22.22,0,0,1-.24-.24v-1h0a3.74,3.74,0,0,1-3.4,1.52c-2.19,0-3.87-1.13-3.87-3.46s1.68-3.55,4.49-3.55H386c.09,0,.14-.05.14-.15v-.84c0-1.58-.62-2.25-2.76-2.25a4.44,4.44,0,0,0-2.78.81c-.12.1-.27.1-.34,0l-.65-1.11a.24.24,0,0,1,.05-.33A6.38,6.38,0,0,1,383.61,33c3.27,0,4.51,1.08,4.51,3.91v7.61a.22.22,0,0,1-.24.24Zm-.29-3.72V39.81a.12.12,0,0,0-.14-.14h-2.31c-2,0-2.85.57-2.85,1.87s.86,1.8,2.4,1.8C385.08,43.34,386.18,42.5,386.18,41.08Z"/><path d="M1.1,64.14A4.45,4.45,0,0,1,5.64,61,4.62,4.62,0,0,1,9.58,63c.07.12.07.22-.08.34l-1.05.86a.22.22,0,0,1-.34,0,2.82,2.82,0,0,0-2.47-1.25,2.5,2.5,0,0,0-2.57,1.8,10.66,10.66,0,0,0,0,4.68,2.5,2.5,0,0,0,2.57,1.8A2.82,2.82,0,0,0,8.11,70a.22.22,0,0,1,.34,0l1.05.87c.15.12.15.21.08.33a4.62,4.62,0,0,1-3.94,1.95A4.46,4.46,0,0,1,1.1,70,10.15,10.15,0,0,1,.74,67,10,10,0,0,1,1.1,64.14Z"/><path d="M11.69,70A8.48,8.48,0,0,1,11.3,67a8.37,8.37,0,0,1,.39-2.9A4.43,4.43,0,0,1,16.22,61a4.44,4.44,0,0,1,4.54,3.1,8.65,8.65,0,0,1,.38,2.9A8.77,8.77,0,0,1,20.76,70a4.47,4.47,0,0,1-4.54,3.1A4.47,4.47,0,0,1,11.69,70Zm7.13-.58A7.6,7.6,0,0,0,19.08,67a7.5,7.5,0,0,0-.26-2.33,2.57,2.57,0,0,0-2.6-1.8,2.56,2.56,0,0,0-2.59,1.8A7.5,7.5,0,0,0,13.37,67a7.6,7.6,0,0,0,.26,2.35,2.56,2.56,0,0,0,2.59,1.8A2.57,2.57,0,0,0,18.82,69.39Z"/><path d="M31.37,72.8a.22.22,0,0,1-.24-.24V65.84c0-1.85-.84-2.93-2.57-2.93a2.58,2.58,0,0,0-2.64,2.81v6.84a.23.23,0,0,1-.24.24H24.14a.23.23,0,0,1-.24-.24v-11a.23.23,0,0,1,.24-.24h1.54a.23.23,0,0,1,.24.24V62.6h0A3.65,3.65,0,0,1,29.16,61c2.5,0,4,1.7,4,4.32v7.2a.22.22,0,0,1-.24.24Z"/><path d="M43.68,72.8a.23.23,0,0,1-.24-.24v-1.1h0a3.52,3.52,0,0,1-3.27,1.61,3.81,3.81,0,0,1-4-2.76A9.68,9.68,0,0,1,35.78,67a9.57,9.57,0,0,1,.41-3.24,3.81,3.81,0,0,1,4-2.76,3.51,3.51,0,0,1,3.27,1.58h0v-5.9a.23.23,0,0,1,.24-.24h1.54a.23.23,0,0,1,.24.24V72.56a.23.23,0,0,1-.24.24Zm-.5-3.36a7.47,7.47,0,0,0,.26-2.4,7.59,7.59,0,0,0-.26-2.4,2.72,2.72,0,0,0-5.07,0,8.26,8.26,0,0,0-.26,2.4,8,8,0,0,0,.26,2.4,2.71,2.71,0,0,0,5.07,0Z"/><path d="M49.1,58.71a.23.23,0,0,1-.24-.24V56.72a.23.23,0,0,1,.24-.24h1.64a.23.23,0,0,1,.24.24v1.75a.23.23,0,0,1-.24.24Zm0,14.09a.23.23,0,0,1-.24-.24v-11a.23.23,0,0,1,.24-.24h1.54a.23.23,0,0,1,.24.24v11a.23.23,0,0,1-.24.24Z"/><path d="M54.05,64.14A4.45,4.45,0,0,1,58.58,61,4.6,4.6,0,0,1,62.52,63a.23.23,0,0,1-.07.34l-1.06.86a.21.21,0,0,1-.33,0,2.84,2.84,0,0,0-2.48-1.25A2.49,2.49,0,0,0,56,64.71a10.27,10.27,0,0,0,0,4.68,2.49,2.49,0,0,0,2.56,1.8A2.83,2.83,0,0,0,61.06,70a.21.21,0,0,1,.33,0l1.06.87c.14.12.14.21.07.33a4.61,4.61,0,0,1-3.94,1.95A4.46,4.46,0,0,1,54.05,70,9.81,9.81,0,0,1,53.69,67,9.69,9.69,0,0,1,54.05,64.14Z"/><path d="M65.42,58.71a.23.23,0,0,1-.24-.24V56.72a.23.23,0,0,1,.24-.24h1.63a.23.23,0,0,1,.24.24v1.75a.22.22,0,0,1-.24.24Zm0,14.09a.23.23,0,0,1-.24-.24v-11a.23.23,0,0,1,.24-.24H67a.23.23,0,0,1,.24.24v11a.23.23,0,0,1-.24.24Z"/><path d="M70.39,70A8.77,8.77,0,0,1,70,67a8.65,8.65,0,0,1,.38-2.9,4.87,4.87,0,0,1,9.07,0,8.37,8.37,0,0,1,.39,2.9A8.48,8.48,0,0,1,79.46,70a4.87,4.87,0,0,1-9.07,0Zm7.13-.58A7.6,7.6,0,0,0,77.78,67a7.5,7.5,0,0,0-.26-2.33,2.77,2.77,0,0,0-5.19,0A7.5,7.5,0,0,0,72.07,67a7.6,7.6,0,0,0,.26,2.35,2.77,2.77,0,0,0,5.19,0Z"/><path d="M90.07,72.8a.23.23,0,0,1-.24-.24V65.84c0-1.85-.84-2.93-2.57-2.93a2.58,2.58,0,0,0-2.64,2.81v6.84a.22.22,0,0,1-.24.24H82.85a.22.22,0,0,1-.24-.24v-11a.23.23,0,0,1,.24-.24h1.53a.23.23,0,0,1,.24.24V62.6h0A3.62,3.62,0,0,1,87.86,61c2.5,0,4,1.7,4,4.32v7.2a.23.23,0,0,1-.24.24Z"/><path d="M94.87,70A9.1,9.1,0,0,1,94.49,67a8.87,8.87,0,0,1,.36-2.9,4.83,4.83,0,0,1,9,0,10,10,0,0,1,.36,3.28.24.24,0,0,1-.26.25H96.69a.12.12,0,0,0-.14.14,4.3,4.3,0,0,0,.19,1.39,2.84,2.84,0,0,0,2.91,2,3.77,3.77,0,0,0,2.95-1.27.25.25,0,0,1,.36,0l1,.89a.22.22,0,0,1,0,.34,5.61,5.61,0,0,1-4.49,2A4.45,4.45,0,0,1,94.87,70ZM102,66.06a.13.13,0,0,0,.15-.15,4,4,0,0,0-.17-1.29,2.84,2.84,0,0,0-5.28,0,4,4,0,0,0-.17,1.29c0,.1,0,.15.14.15Z"/><path d="M106.2,71.34a.23.23,0,0,1,0-.34l1-1a.23.23,0,0,1,.34,0,5.6,5.6,0,0,0,3.55,1.32c1.68,0,2.52-.73,2.52-1.76s-.43-1.41-2.23-1.61l-1.23-.11c-2.25-.25-3.43-1.37-3.43-3.25,0-2.18,1.56-3.5,4.27-3.5a6.88,6.88,0,0,1,4.08,1.27.24.24,0,0,1,0,.34l-.81,1a.24.24,0,0,1-.34,0,6,6,0,0,0-3.1-.94c-1.44,0-2.18.65-2.18,1.59s.55,1.39,2.26,1.56l1.2.12c2.32.21,3.45,1.39,3.45,3.24,0,2.25-1.63,3.77-4.63,3.77A7.16,7.16,0,0,1,106.2,71.34Z"/><path d="M138.24,72.8a.22.22,0,0,1-.24-.24V65.84c0-1.85-.84-2.93-2.57-2.93a2.59,2.59,0,0,0-2.64,2.81v6.84a.23.23,0,0,1-.24.24H131a.23.23,0,0,1-.24-.24V65.84c0-1.85-.84-2.93-2.56-2.93a2.58,2.58,0,0,0-2.64,2.81v6.84a.23.23,0,0,1-.24.24h-1.54a.22.22,0,0,1-.24-.24v-11a.23.23,0,0,1,.24-.24h1.54a.23.23,0,0,1,.24.24V62.6h0a4.07,4.07,0,0,1,6.58.24h0a4.29,4.29,0,0,1,3.72-1.8c2.66,0,4.1,1.7,4.1,4.32v7.2a.22.22,0,0,1-.24.24Z"/><path d="M143,70a9.05,9.05,0,0,1-.39-2.91,8.87,8.87,0,0,1,.36-2.9,4.84,4.84,0,0,1,9,0,10,10,0,0,1,.36,3.28.24.24,0,0,1-.27.25h-7.27c-.1,0-.14,0-.14.14a4.3,4.3,0,0,0,.19,1.39,2.84,2.84,0,0,0,2.9,2,3.78,3.78,0,0,0,3-1.27.25.25,0,0,1,.36,0l1,.89a.22.22,0,0,1,0,.34,5.59,5.59,0,0,1-4.48,2A4.45,4.45,0,0,1,143,70Zm7.15-3.89c.1,0,.14,0,.14-.15a4,4,0,0,0-.16-1.29,2.84,2.84,0,0,0-5.29,0,4,4,0,0,0-.16,1.29c0,.1,0,.15.14.15Z"/><path d="M162.36,72.8a.22.22,0,0,1-.24-.24v-1.1h0a3.49,3.49,0,0,1-3.26,1.61,3.8,3.8,0,0,1-4-2.76,9.68,9.68,0,0,1-.41-3.27,9.57,9.57,0,0,1,.41-3.24,3.8,3.8,0,0,1,4-2.76,3.48,3.48,0,0,1,3.26,1.58h0v-5.9a.23.23,0,0,1,.24-.24h1.53a.23.23,0,0,1,.24.24V72.56a.22.22,0,0,1-.24.24Zm-.51-3.36a7.41,7.41,0,0,0,.27-2.4,7.53,7.53,0,0,0-.27-2.4,2.71,2.71,0,0,0-5.06,0,8.21,8.21,0,0,0-.27,2.4,8,8,0,0,0,.27,2.4,2.7,2.7,0,0,0,5.06,0Z"/><path d="M167.78,58.71a.23.23,0,0,1-.24-.24V56.72a.23.23,0,0,1,.24-.24h1.63a.23.23,0,0,1,.24.24v1.75a.22.22,0,0,1-.24.24Zm.05,14.09a.22.22,0,0,1-.24-.24v-11a.23.23,0,0,1,.24-.24h1.53a.23.23,0,0,1,.24.24v11a.22.22,0,0,1-.24.24Z"/><path d="M173.3,72.8a.23.23,0,0,1-.24-.24V56.72a.23.23,0,0,1,.24-.24h1.54a.23.23,0,0,1,.24.24v5.9h0A3.49,3.49,0,0,1,178.36,61a3.81,3.81,0,0,1,4,2.76,9.59,9.59,0,0,1,.4,3.24,9.71,9.71,0,0,1-.4,3.27,3.81,3.81,0,0,1-4,2.76,3.5,3.5,0,0,1-3.26-1.61h0v1.1a.23.23,0,0,1-.24.24Zm7.11-3.36a8,8,0,0,0,.26-2.4,8.26,8.26,0,0,0-.26-2.4,2.72,2.72,0,0,0-5.07,0,7.59,7.59,0,0,0-.26,2.4,7.47,7.47,0,0,0,.26,2.4,2.71,2.71,0,0,0,5.07,0Z"/><path d="M188.25,72.92c-2,0-2.81-1-2.81-3V56.72a.23.23,0,0,1,.24-.24h1.54a.23.23,0,0,1,.24.24V69.78c0,1,.36,1.27,1.15,1.27h.46a.23.23,0,0,1,.24.24v1.39a.23.23,0,0,1-.24.24Z"/><path d="M191.35,70A9.05,9.05,0,0,1,191,67a8.87,8.87,0,0,1,.36-2.9,4.84,4.84,0,0,1,9,0,10,10,0,0,1,.36,3.28.24.24,0,0,1-.27.25h-7.27a.12.12,0,0,0-.14.14,4.3,4.3,0,0,0,.19,1.39,2.84,2.84,0,0,0,2.9,2,3.78,3.78,0,0,0,3-1.27.25.25,0,0,1,.36,0l1,.89a.22.22,0,0,1,0,.34,5.59,5.59,0,0,1-4.48,2A4.45,4.45,0,0,1,191.35,70Zm7.15-3.89c.1,0,.14,0,.14-.15a4,4,0,0,0-.16-1.29,2.84,2.84,0,0,0-5.28,0,4,4,0,0,0-.17,1.29c0,.1.05.15.14.15Z"/><path d="M218.16,72.8a.22.22,0,0,1-.24-.24V65.84c0-1.85-.84-2.93-2.57-2.93a2.59,2.59,0,0,0-2.64,2.81v6.84a.23.23,0,0,1-.24.24h-1.54a.23.23,0,0,1-.24-.24V65.84c0-1.85-.84-2.93-2.57-2.93a2.58,2.58,0,0,0-2.64,2.81v6.84a.22.22,0,0,1-.24.24h-1.53a.22.22,0,0,1-.24-.24v-11a.23.23,0,0,1,.24-.24h1.53a.23.23,0,0,1,.24.24V62.6h0a4.06,4.06,0,0,1,6.57.24h0a4.29,4.29,0,0,1,3.72-1.8c2.66,0,4.1,1.7,4.1,4.32v7.2a.22.22,0,0,1-.24.24Z"/><path d="M223,70a8.78,8.78,0,0,1-.39-2.91,8.87,8.87,0,0,1,.36-2.9,4.84,4.84,0,0,1,9,0,10,10,0,0,1,.36,3.28.24.24,0,0,1-.27.25h-7.27c-.1,0-.14,0-.14.14a4.3,4.3,0,0,0,.19,1.39,2.83,2.83,0,0,0,2.9,2,3.74,3.74,0,0,0,3-1.27.25.25,0,0,1,.36,0l1,.89a.22.22,0,0,1,0,.34,5.59,5.59,0,0,1-4.49,2A4.44,4.44,0,0,1,223,70Zm7.15-3.89c.09,0,.14,0,.14-.15a4,4,0,0,0-.17-1.29,2.84,2.84,0,0,0-5.28,0,4,4,0,0,0-.16,1.29c0,.1,0,.15.14.15Z"/><path d="M242.54,72.8a.22.22,0,0,1-.24-.24V65.84c0-1.85-.84-2.93-2.57-2.93a2.58,2.58,0,0,0-2.64,2.81v6.84a.23.23,0,0,1-.24.24h-1.54a.23.23,0,0,1-.24-.24v-11a.23.23,0,0,1,.24-.24h1.54a.23.23,0,0,1,.24.24V62.6h0A3.65,3.65,0,0,1,240.33,61c2.5,0,4,1.7,4,4.32v7.2a.23.23,0,0,1-.24.24Z"/><path d="M251,72.92c-2.24,0-3.1-1-3.1-3.26V63.08a.12.12,0,0,0-.14-.14h-1a.23.23,0,0,1-.24-.24V61.54a.23.23,0,0,1,.24-.24h1a.12.12,0,0,0,.14-.14V57.92a.23.23,0,0,1,.24-.24h1.54a.23.23,0,0,1,.24.24v3.24c0,.1,0,.14.14.14h1.82a.23.23,0,0,1,.24.24V62.7a.23.23,0,0,1-.24.24h-1.82c-.1,0-.14,0-.14.14v6.5c0,1.16.43,1.47,1.46,1.47h.5a.23.23,0,0,1,.24.24v1.39a.22.22,0,0,1-.24.24Z"/><path d="M254.44,70a9.1,9.1,0,0,1-.38-2.91,8.87,8.87,0,0,1,.36-2.9,4.83,4.83,0,0,1,9,0,10,10,0,0,1,.36,3.28.23.23,0,0,1-.26.25h-7.27c-.1,0-.15,0-.15.14a4.3,4.3,0,0,0,.19,1.39,2.84,2.84,0,0,0,2.91,2,3.74,3.74,0,0,0,2.95-1.27.25.25,0,0,1,.36,0l1,.89a.22.22,0,0,1,0,.34,5.59,5.59,0,0,1-4.49,2A4.45,4.45,0,0,1,254.44,70Zm7.15-3.89a.13.13,0,0,0,.15-.15,4,4,0,0,0-.17-1.29,2.84,2.84,0,0,0-5.28,0,4,4,0,0,0-.17,1.29.13.13,0,0,0,.15.15Z"/><path d="M271.05,71.34a.23.23,0,0,1,0-.34l1-1a.23.23,0,0,1,.34,0,5.6,5.6,0,0,0,3.55,1.32c1.68,0,2.52-.73,2.52-1.76s-.43-1.41-2.23-1.61L275,67.79c-2.26-.25-3.44-1.37-3.44-3.25,0-2.18,1.56-3.5,4.28-3.5a6.88,6.88,0,0,1,4.08,1.27.24.24,0,0,1,0,.34l-.82,1a.24.24,0,0,1-.34,0,6,6,0,0,0-3.09-.94c-1.44,0-2.19.65-2.19,1.59s.55,1.39,2.26,1.56l1.2.12c2.33.21,3.45,1.39,3.45,3.24,0,2.25-1.63,3.77-4.63,3.77A7.18,7.18,0,0,1,271.05,71.34Z"/><path d="M282.81,70a9.1,9.1,0,0,1-.38-2.91,8.87,8.87,0,0,1,.36-2.9,4.83,4.83,0,0,1,9,0,10,10,0,0,1,.36,3.28.24.24,0,0,1-.26.25h-7.28a.12.12,0,0,0-.14.14,4.3,4.3,0,0,0,.19,1.39,2.84,2.84,0,0,0,2.91,2,3.77,3.77,0,0,0,3-1.27.25.25,0,0,1,.36,0l1,.89a.22.22,0,0,1,0,.34,5.62,5.62,0,0,1-4.49,2A4.45,4.45,0,0,1,282.81,70ZM290,66.06a.13.13,0,0,0,.15-.15,4,4,0,0,0-.17-1.29,2.84,2.84,0,0,0-5.28,0,4,4,0,0,0-.17,1.29c0,.1.05.15.14.15Z"/><path d="M294.69,75.68a.21.21,0,0,1,0-.33l1-1a.23.23,0,0,1,.36,0,3.83,3.83,0,0,0,2.71,1.15c1.9,0,2.9-1,2.9-3.09V71.07h0a3.3,3.3,0,0,1-3.19,1.59,3.78,3.78,0,0,1-3.87-2.79,9.18,9.18,0,0,1-.38-3,9.28,9.28,0,0,1,.38-3A3.77,3.77,0,0,1,298.46,61a3.3,3.3,0,0,1,3.19,1.58h0V61.54a.23.23,0,0,1,.24-.24h1.54a.23.23,0,0,1,.24.24V72.3c0,3.26-1.78,5.09-5,5.09A5.2,5.2,0,0,1,294.69,75.68Zm6.72-6.6a9.69,9.69,0,0,0,0-4.46,2.59,2.59,0,0,0-4.87,0,7.22,7.22,0,0,0-.29,2.23,7.13,7.13,0,0,0,.29,2.23A2.34,2.34,0,0,0,299,70.81,2.38,2.38,0,0,0,301.41,69.08Z"/><path d="M314.37,72.8a.23.23,0,0,1-.24-.24V71.48h0A3.52,3.52,0,0,1,311,73.07c-2.52,0-4-1.73-4-4.35V61.54a.23.23,0,0,1,.24-.24h1.53a.23.23,0,0,1,.24.24v6.7c0,1.87.84,3,2.55,3a2.55,2.55,0,0,0,2.59-2.83V61.54a.23.23,0,0,1,.24-.24h1.54a.23.23,0,0,1,.24.24v11a.23.23,0,0,1-.24.24Z"/><path d="M319.84,72.8a.23.23,0,0,1-.24-.24v-11a.23.23,0,0,1,.24-.24h1.54a.23.23,0,0,1,.24.24v1.18h0A3.21,3.21,0,0,1,324.69,61a3.56,3.56,0,0,1,2.35.86c.12.12.15.22,0,.34l-.89,1.18a.21.21,0,0,1-.33,0,3.31,3.31,0,0,0-1.78-.55c-1.75,0-2.47,1.37-2.47,3.36v6.29a.23.23,0,0,1-.24.24Z"/><path d="M335.35,72.8a.22.22,0,0,1-.24-.24v-1h0a3.75,3.75,0,0,1-3.41,1.52c-2.18,0-3.86-1.13-3.86-3.46s1.68-3.55,4.49-3.55h2.61a.13.13,0,0,0,.15-.15v-.84c0-1.58-.63-2.25-2.76-2.25a4.5,4.5,0,0,0-2.79.81c-.12.1-.26.1-.33,0l-.65-1.11a.24.24,0,0,1,.05-.33A6.38,6.38,0,0,1,332.49,61C335.75,61,337,62.12,337,65v7.61a.22.22,0,0,1-.24.24Zm-.29-3.72V67.81c0-.1-.05-.14-.15-.14h-2.3c-2,0-2.86.57-2.86,1.87s.87,1.8,2.4,1.8C334,71.34,335.06,70.5,335.06,69.08Z"/><path d="M339.57,71.34a.23.23,0,0,1,0-.34l1-1a.23.23,0,0,1,.34,0,5.6,5.6,0,0,0,3.55,1.32c1.68,0,2.52-.73,2.52-1.76s-.43-1.41-2.23-1.61l-1.22-.11c-2.26-.25-3.44-1.37-3.44-3.25,0-2.18,1.56-3.5,4.28-3.5a6.88,6.88,0,0,1,4.08,1.27.23.23,0,0,1,0,.34l-.81,1a.24.24,0,0,1-.34,0,6,6,0,0,0-3.09-.94c-1.44,0-2.19.65-2.19,1.59s.55,1.39,2.26,1.56l1.2.12c2.33.21,3.45,1.39,3.45,3.24,0,2.25-1.63,3.77-4.63,3.77A7.18,7.18,0,0,1,339.57,71.34Z"/></g></g></svg>