<svg xmlns="http://www.w3.org/2000/svg" viewBox="0 0 370.97 76.64"><title>8a</title><g id="Capa_2" data-name="Capa 2"><g id="answer_copia" data-name="answer copia"><path d="M5.59,16.32a.3.3,0,0,1-.29-.24L0,.29C0,.1.05,0,.19,0H1.82a.3.3,0,0,1,.34.24l4.18,12.6h0l4-12.6A.29.29,0,0,1,10.73,0h1.66c.14,0,.24.1.16.29L7.3,16.08a.3.3,0,0,1-.29.24Z"/><path d="M13,13.47a9.1,9.1,0,0,1-.38-2.91A8.87,8.87,0,0,1,13,7.66a4.44,4.44,0,0,1,4.51-3.1A4.46,4.46,0,0,1,22,7.66a10,10,0,0,1,.36,3.28.24.24,0,0,1-.27.25H14.81c-.1,0-.14,0-.14.14a4.3,4.3,0,0,0,.19,1.39,2.83,2.83,0,0,0,2.9,2,3.74,3.74,0,0,0,2.95-1.27.25.25,0,0,1,.36,0l1,.89a.22.22,0,0,1,0,.34,5.59,5.59,0,0,1-4.49,2A4.45,4.45,0,0,1,13,13.47Zm7.16-3.89c.09,0,.14-.05.14-.15a4,4,0,0,0-.17-1.29,2.58,2.58,0,0,0-2.64-1.8,2.6,2.6,0,0,0-2.64,1.8,4,4,0,0,0-.16,1.29c0,.1,0,.15.14.15Z"/><path d="M25.34,16.32a.23.23,0,0,1-.24-.24v-11a.23.23,0,0,1,.24-.24h1.54a.23.23,0,0,1,.24.24V6.24h0a3.23,3.23,0,0,1,3.05-1.68,3.58,3.58,0,0,1,2.36.86c.12.12.14.22,0,.34l-.88,1.18a.22.22,0,0,1-.34,0,3.31,3.31,0,0,0-1.78-.55c-1.75,0-2.47,1.37-2.47,3.36v6.29a.23.23,0,0,1-.24.24Z"/><path d="M34.66,2.23A.22.22,0,0,1,34.42,2V.24A.23.23,0,0,1,34.66,0h1.63a.23.23,0,0,1,.24.24V2a.23.23,0,0,1-.24.24Zm0,14.09a.22.22,0,0,1-.23-.24v-11a.22.22,0,0,1,.23-.24h1.54a.23.23,0,0,1,.24.24v11a.22.22,0,0,1-.24.24Z"/><path d="M40.56,16.32a.23.23,0,0,1-.24-.24V6.6a.12.12,0,0,0-.14-.14h-1A.23.23,0,0,1,39,6.22V5.06a.23.23,0,0,1,.24-.24h1a.12.12,0,0,0,.14-.14v-1c0-2.72,1.1-3.7,3.5-3.7h.89A.23.23,0,0,1,45,.24V1.63a.22.22,0,0,1-.24.24h-.62c-1.47,0-1.75.31-1.75,1.73V4.68c0,.1,0,.14.14.14h2.23a.23.23,0,0,1,.24.24V6.22a.23.23,0,0,1-.24.24H42.48c-.1,0-.14,0-.14.14v9.48a.23.23,0,0,1-.24.24Zm7.2-14.09A.23.23,0,0,1,47.52,2V.24A.23.23,0,0,1,47.76,0h1.63a.23.23,0,0,1,.24.24V2a.22.22,0,0,1-.24.24Zm.05,14.09a.22.22,0,0,1-.24-.24v-11a.23.23,0,0,1,.24-.24h1.53a.23.23,0,0,1,.25.24v11a.23.23,0,0,1-.25.24Z"/><path d="M60.24,20.64A.23.23,0,0,1,60,20.4V15h0a3.52,3.52,0,0,1-3.27,1.61,3.81,3.81,0,0,1-4-2.76,9.68,9.68,0,0,1-.41-3.27,9.53,9.53,0,0,1,.41-3.24,3.81,3.81,0,0,1,4-2.76A3.51,3.51,0,0,1,60,6.14h0V5.06a.23.23,0,0,1,.24-.24h1.54a.23.23,0,0,1,.24.24V20.4a.23.23,0,0,1-.24.24ZM59.74,13a7.47,7.47,0,0,0,.26-2.4,7.59,7.59,0,0,0-.26-2.4,2.72,2.72,0,0,0-5.07,0,8.26,8.26,0,0,0-.26,2.4,8,8,0,0,0,.26,2.4,2.71,2.71,0,0,0,5.07,0Z"/><path d="M72.7,16.32a.22.22,0,0,1-.24-.24V15h0a3.5,3.5,0,0,1-3.14,1.59c-2.52,0-4-1.73-4-4.35V5.06a.23.23,0,0,1,.24-.24h1.54a.23.23,0,0,1,.24.24v6.7c0,1.87.84,3,2.54,3a2.55,2.55,0,0,0,2.6-2.83V5.06a.23.23,0,0,1,.24-.24h1.53a.23.23,0,0,1,.24.24v11a.22.22,0,0,1-.24.24Z"/><path d="M77.62,13.47a9.05,9.05,0,0,1-.39-2.91,8.87,8.87,0,0,1,.36-2.9,4.84,4.84,0,0,1,9,0A10,10,0,0,1,87,10.94a.24.24,0,0,1-.27.25H79.44c-.1,0-.14,0-.14.14a4.3,4.3,0,0,0,.19,1.39,2.83,2.83,0,0,0,2.9,2,3.74,3.74,0,0,0,3-1.27.25.25,0,0,1,.36,0l1,.89a.22.22,0,0,1,0,.34,5.59,5.59,0,0,1-4.49,2A4.44,4.44,0,0,1,77.62,13.47Zm7.15-3.89c.09,0,.14-.05.14-.15a4,4,0,0,0-.17-1.29,2.84,2.84,0,0,0-5.28,0,4,4,0,0,0-.16,1.29c0,.1,0,.15.14.15Z"/><path d="M94.7,13.47a9.1,9.1,0,0,1-.38-2.91,8.87,8.87,0,0,1,.36-2.9,4.83,4.83,0,0,1,9,0,10,10,0,0,1,.36,3.28.23.23,0,0,1-.26.25H96.53c-.1,0-.15,0-.15.14a4.27,4.27,0,0,0,.2,1.39,2.83,2.83,0,0,0,2.9,2,3.74,3.74,0,0,0,3-1.27.25.25,0,0,1,.36,0l1,.89a.22.22,0,0,1,0,.34,5.59,5.59,0,0,1-4.49,2A4.45,4.45,0,0,1,94.7,13.47Zm7.16-3.89c.09,0,.14-.05.14-.15a4,4,0,0,0-.17-1.29,2.84,2.84,0,0,0-5.28,0,4,4,0,0,0-.17,1.29.13.13,0,0,0,.15.15Z"/><path d="M109.58,16.44c-2,0-2.8-1-2.8-3V.24A.23.23,0,0,1,107,0h1.53a.23.23,0,0,1,.24.24V13.3c0,1,.36,1.27,1.15,1.27h.46a.23.23,0,0,1,.24.24V16.2a.23.23,0,0,1-.24.24Z"/><path d="M118,13.47a9.05,9.05,0,0,1-.39-2.91,8.87,8.87,0,0,1,.36-2.9,4.84,4.84,0,0,1,9,0,10,10,0,0,1,.36,3.28.24.24,0,0,1-.26.25h-7.28a.12.12,0,0,0-.14.14,4.3,4.3,0,0,0,.19,1.39,2.84,2.84,0,0,0,2.91,2,3.77,3.77,0,0,0,3-1.27.25.25,0,0,1,.36,0l1,.89a.22.22,0,0,1,0,.34,5.62,5.62,0,0,1-4.49,2A4.45,4.45,0,0,1,118,13.47Zm7.15-3.89a.13.13,0,0,0,.15-.15,4,4,0,0,0-.17-1.29,2.84,2.84,0,0,0-5.28,0,4,4,0,0,0-.17,1.29c0,.1,0,.15.14.15Z"/><path d="M129.29,14.86a.23.23,0,0,1,0-.34l1-1a.23.23,0,0,1,.34,0,5.6,5.6,0,0,0,3.55,1.32c1.68,0,2.52-.73,2.52-1.76s-.43-1.41-2.23-1.61l-1.23-.12c-2.25-.24-3.43-1.36-3.43-3.24,0-2.18,1.56-3.5,4.27-3.5a6.88,6.88,0,0,1,4.08,1.27.24.24,0,0,1,.05.34l-.81,1a.24.24,0,0,1-.34,0,6,6,0,0,0-3.1-.94c-1.44,0-2.18.65-2.18,1.59s.55,1.39,2.25,1.56l1.21.12c2.32.21,3.45,1.39,3.45,3.24,0,2.25-1.63,3.77-4.63,3.77A7.16,7.16,0,0,1,129.29,14.86Z"/><path d="M144.69,16.44c-2.23,0-3.09-1-3.09-3.26V6.6c0-.1,0-.14-.15-.14h-1a.23.23,0,0,1-.24-.24V5.06a.23.23,0,0,1,.24-.24h1c.1,0,.15,0,.15-.14V1.44a.23.23,0,0,1,.24-.24h1.53a.23.23,0,0,1,.24.24V4.68c0,.1,0,.14.15.14h1.82a.23.23,0,0,1,.24.24V6.22a.23.23,0,0,1-.24.24h-1.82c-.1,0-.15,0-.15.14v6.5c0,1.16.44,1.47,1.47,1.47h.5a.23.23,0,0,1,.24.24V16.2a.22.22,0,0,1-.24.24Z"/><path d="M155.42,16.32a.23.23,0,0,1-.24-.24v-1h0a3.77,3.77,0,0,1-3.41,1.52c-2.18,0-3.86-1.13-3.86-3.46s1.68-3.55,4.48-3.55H155a.13.13,0,0,0,.15-.15V8.59c0-1.58-.63-2.25-2.77-2.25a4.47,4.47,0,0,0-2.78.81.22.22,0,0,1-.34,0L148.61,6a.24.24,0,0,1,0-.33,6.42,6.42,0,0,1,3.92-1.13c3.26,0,4.51,1.08,4.51,3.91v7.61a.23.23,0,0,1-.24.24Zm-.28-3.72V11.33c0-.1,0-.14-.15-.14h-2.3c-2,0-2.86.57-2.86,1.87s.86,1.8,2.4,1.8C154,14.86,155.14,14,155.14,12.6Z"/><path d="M167.64,16.32a.23.23,0,0,1-.24-.24V15h0a3.52,3.52,0,0,1-3.27,1.61,3.81,3.81,0,0,1-4-2.76,9.68,9.68,0,0,1-.41-3.27,9.53,9.53,0,0,1,.41-3.24,3.81,3.81,0,0,1,4-2.76,3.51,3.51,0,0,1,3.27,1.58h0V.24a.23.23,0,0,1,.24-.24h1.54a.23.23,0,0,1,.24.24V16.08a.23.23,0,0,1-.24.24Zm-.5-3.36a7.47,7.47,0,0,0,.26-2.4,7.59,7.59,0,0,0-.26-2.4,2.72,2.72,0,0,0-5.07,0,8.26,8.26,0,0,0-.26,2.4,8,8,0,0,0,.26,2.4,2.71,2.71,0,0,0,5.07,0Z"/><path d="M172.56,13.49a8.48,8.48,0,0,1-.39-2.93,8.37,8.37,0,0,1,.39-2.9,4.87,4.87,0,0,1,9.07,0,8.4,8.4,0,0,1,.38,2.9,8.52,8.52,0,0,1-.38,2.93,4.87,4.87,0,0,1-9.07,0Zm7.13-.58a7.56,7.56,0,0,0,.26-2.35,7.5,7.5,0,0,0-.26-2.33,2.77,2.77,0,0,0-5.19,0,7.5,7.5,0,0,0-.26,2.33,7.56,7.56,0,0,0,.26,2.35,2.77,2.77,0,0,0,5.19,0Z"/><path d="M197.26,16.32a.23.23,0,0,1-.25-.24V15h0a3.5,3.5,0,0,1-3.26,1.61,3.79,3.79,0,0,1-4-2.76,9.43,9.43,0,0,1-.41-3.27,9.29,9.29,0,0,1,.41-3.24,3.79,3.79,0,0,1,4-2.76A3.49,3.49,0,0,1,197,6.14h0V.24a.23.23,0,0,1,.25-.24h1.53a.23.23,0,0,1,.24.24V16.08a.23.23,0,0,1-.24.24ZM196.75,13a7.47,7.47,0,0,0,.26-2.4,7.59,7.59,0,0,0-.26-2.4,2.71,2.71,0,0,0-5.06,0,7.88,7.88,0,0,0-.27,2.4,7.68,7.68,0,0,0,.27,2.4,2.7,2.7,0,0,0,5.06,0Z"/><path d="M202.17,13.47a9.1,9.1,0,0,1-.38-2.91,8.87,8.87,0,0,1,.36-2.9,4.84,4.84,0,0,1,9,0,10,10,0,0,1,.36,3.28.24.24,0,0,1-.27.25H204c-.1,0-.15,0-.15.14a4.27,4.27,0,0,0,.2,1.39,2.83,2.83,0,0,0,2.9,2,3.74,3.74,0,0,0,3-1.27.25.25,0,0,1,.36,0l1,.89a.22.22,0,0,1,0,.34,5.59,5.59,0,0,1-4.49,2A4.45,4.45,0,0,1,202.17,13.47Zm7.16-3.89c.09,0,.14-.05.14-.15a4,4,0,0,0-.17-1.29,2.84,2.84,0,0,0-5.28,0,4,4,0,0,0-.17,1.29.13.13,0,0,0,.15.15Z"/><path d="M222.33,16.44c-2,0-2.8-1-2.8-3V.24a.23.23,0,0,1,.24-.24h1.53a.23.23,0,0,1,.24.24V13.3c0,1,.36,1.27,1.15,1.27h.46a.23.23,0,0,1,.24.24V16.2a.23.23,0,0,1-.24.24Z"/><path d="M225.43,13.49a8.77,8.77,0,0,1-.38-2.93,8.65,8.65,0,0,1,.38-2.9,4.87,4.87,0,0,1,9.07,0,8.37,8.37,0,0,1,.39,2.9,8.48,8.48,0,0,1-.39,2.93,4.87,4.87,0,0,1-9.07,0Zm7.13-.58a7.56,7.56,0,0,0,.26-2.35,7.5,7.5,0,0,0-.26-2.33,2.77,2.77,0,0,0-5.19,0,7.5,7.5,0,0,0-.26,2.33,7.56,7.56,0,0,0,.26,2.35,2.77,2.77,0,0,0,5.19,0Z"/><path d="M236.85,14.86a.25.25,0,0,1,0-.34l1-1a.22.22,0,0,1,.33,0,5.63,5.63,0,0,0,3.56,1.32c1.68,0,2.52-.73,2.52-1.76s-.44-1.41-2.24-1.61l-1.22-.12c-2.26-.24-3.43-1.36-3.43-3.24,0-2.18,1.56-3.5,4.27-3.5a6.88,6.88,0,0,1,4.08,1.27.24.24,0,0,1,0,.34l-.82,1a.23.23,0,0,1-.33,0,6.07,6.07,0,0,0-3.1-.94c-1.44,0-2.18.65-2.18,1.59s.55,1.39,2.25,1.56l1.2.12c2.33.21,3.46,1.39,3.46,3.24,0,2.25-1.63,3.77-4.63,3.77A7.19,7.19,0,0,1,236.85,14.86Z"/><path d="M253.41,14.86a.25.25,0,0,1,0-.34l1-1a.22.22,0,0,1,.33,0,5.63,5.63,0,0,0,3.56,1.32c1.68,0,2.52-.73,2.52-1.76s-.44-1.41-2.24-1.61l-1.22-.12c-2.26-.24-3.43-1.36-3.43-3.24,0-2.18,1.56-3.5,4.27-3.5a6.88,6.88,0,0,1,4.08,1.27.24.24,0,0,1,.05.34l-.82,1a.23.23,0,0,1-.33,0,6.07,6.07,0,0,0-3.1-.94c-1.44,0-2.18.65-2.18,1.59s.55,1.39,2.25,1.56l1.2.12c2.33.21,3.46,1.39,3.46,3.24,0,2.25-1.63,3.77-4.63,3.77A7.19,7.19,0,0,1,253.41,14.86Z"/><path d="M265.68,2.23a.22.22,0,0,1-.24-.24V.24a.23.23,0,0,1,.24-.24h1.63a.23.23,0,0,1,.24.24V2a.23.23,0,0,1-.24.24Zm0,14.09a.23.23,0,0,1-.24-.24v-11a.23.23,0,0,1,.24-.24h1.54a.23.23,0,0,1,.24.24v11a.23.23,0,0,1-.24.24Z"/><path d="M270.17,14.86a.23.23,0,0,1,0-.34l1-1a.22.22,0,0,1,.33,0A5.63,5.63,0,0,0,275,14.79c1.68,0,2.52-.73,2.52-1.76s-.43-1.41-2.23-1.61l-1.23-.12c-2.26-.24-3.43-1.36-3.43-3.24,0-2.18,1.56-3.5,4.27-3.5A6.88,6.88,0,0,1,279,5.83a.24.24,0,0,1,.05.34l-.82,1a.23.23,0,0,1-.33,0,6.07,6.07,0,0,0-3.1-.94c-1.44,0-2.18.65-2.18,1.59s.55,1.39,2.25,1.56l1.2.12c2.33.21,3.46,1.39,3.46,3.24,0,2.25-1.63,3.77-4.63,3.77A7.14,7.14,0,0,1,270.17,14.86Z"/><path d="M285.57,16.44c-2.23,0-3.09-1-3.09-3.26V6.6c0-.1-.05-.14-.15-.14h-1a.23.23,0,0,1-.24-.24V5.06a.23.23,0,0,1,.24-.24h1c.1,0,.15,0,.15-.14V1.44a.23.23,0,0,1,.24-.24h1.53a.23.23,0,0,1,.24.24V4.68c0,.1.05.14.15.14h1.82a.23.23,0,0,1,.24.24V6.22a.23.23,0,0,1-.24.24h-1.82c-.1,0-.15,0-.15.14v6.5c0,1.16.44,1.47,1.47,1.47h.5a.23.23,0,0,1,.24.24V16.2a.23.23,0,0,1-.24.24Z"/><path d="M289,13.47a9.05,9.05,0,0,1-.39-2.91,8.56,8.56,0,0,1,.37-2.9,4.83,4.83,0,0,1,9,0,10,10,0,0,1,.36,3.28.24.24,0,0,1-.26.25h-7.28a.12.12,0,0,0-.14.14,4.3,4.3,0,0,0,.19,1.39,2.84,2.84,0,0,0,2.9,2,3.78,3.78,0,0,0,3-1.27.25.25,0,0,1,.36,0l1,.89a.22.22,0,0,1,0,.34,5.62,5.62,0,0,1-4.49,2A4.45,4.45,0,0,1,289,13.47Zm7.15-3.89a.13.13,0,0,0,.15-.15,4,4,0,0,0-.17-1.29,2.84,2.84,0,0,0-5.28,0,4,4,0,0,0-.17,1.29c0,.1.05.15.14.15Z"/><path d="M315.84,16.32a.22.22,0,0,1-.24-.24V9.36c0-1.85-.84-2.93-2.57-2.93a2.59,2.59,0,0,0-2.64,2.81v6.84a.23.23,0,0,1-.24.24h-1.54a.23.23,0,0,1-.24-.24V9.36c0-1.85-.84-2.93-2.57-2.93a2.58,2.58,0,0,0-2.63,2.81v6.84a.23.23,0,0,1-.24.24h-1.54a.22.22,0,0,1-.24-.24v-11a.23.23,0,0,1,.24-.24h1.54a.23.23,0,0,1,.24.24V6.12h0a4.07,4.07,0,0,1,6.58.24h0a4.29,4.29,0,0,1,3.72-1.8c2.66,0,4.1,1.7,4.1,4.32v7.2a.22.22,0,0,1-.24.24Z"/><path d="M327.91,16.32a.22.22,0,0,1-.24-.24v-1h0a3.74,3.74,0,0,1-3.4,1.52c-2.19,0-3.87-1.13-3.87-3.46s1.68-3.55,4.49-3.55h2.62c.09,0,.14-.05.14-.15V8.59c0-1.58-.62-2.25-2.76-2.25a4.44,4.44,0,0,0-2.78.81c-.12.1-.27.1-.34,0L321.09,6a.24.24,0,0,1,.05-.33,6.38,6.38,0,0,1,3.91-1.13c3.27,0,4.51,1.08,4.51,3.91v7.61a.22.22,0,0,1-.24.24Zm-.29-3.72V11.33a.12.12,0,0,0-.14-.14h-2.31c-2,0-2.85.57-2.85,1.87s.86,1.8,2.4,1.8C326.52,14.86,327.62,14,327.62,12.6Z"/><path d="M332.13,14.86a.25.25,0,0,1,0-.34l1-1a.22.22,0,0,1,.33,0A5.62,5.62,0,0,0,337,14.79c1.68,0,2.52-.73,2.52-1.76s-.43-1.41-2.23-1.61l-1.22-.12c-2.26-.24-3.43-1.36-3.43-3.24,0-2.18,1.56-3.5,4.27-3.5A6.88,6.88,0,0,1,341,5.83a.24.24,0,0,1,.05.34l-.82,1a.23.23,0,0,1-.33,0,6.07,6.07,0,0,0-3.1-.94c-1.44,0-2.19.65-2.19,1.59s.56,1.39,2.26,1.56l1.2.12c2.33.21,3.46,1.39,3.46,3.24,0,2.25-1.63,3.77-4.63,3.77A7.19,7.19,0,0,1,332.13,14.86Z"/><path d="M356.68,16.32a.23.23,0,0,1-.24-.24V15h0a3.5,3.5,0,0,1-3.26,1.61,3.79,3.79,0,0,1-4-2.76,9.43,9.43,0,0,1-.41-3.27,9.29,9.29,0,0,1,.41-3.24,3.79,3.79,0,0,1,4-2.76,3.49,3.49,0,0,1,3.26,1.58h0V.24a.23.23,0,0,1,.24-.24h1.54a.23.23,0,0,1,.24.24V16.08a.23.23,0,0,1-.24.24Zm-.5-3.36a7.47,7.47,0,0,0,.26-2.4,7.59,7.59,0,0,0-.26-2.4,2.71,2.71,0,0,0-5.06,0,7.88,7.88,0,0,0-.27,2.4,7.68,7.68,0,0,0,.27,2.4,2.7,2.7,0,0,0,5.06,0Z"/><path d="M361.6,13.47a9.1,9.1,0,0,1-.38-2.91,8.87,8.87,0,0,1,.36-2.9,4.83,4.83,0,0,1,9,0,9.89,9.89,0,0,1,.37,3.28.24.24,0,0,1-.27.25h-7.27c-.1,0-.15,0-.15.14a4.27,4.27,0,0,0,.2,1.39,2.83,2.83,0,0,0,2.9,2,3.74,3.74,0,0,0,2.95-1.27.25.25,0,0,1,.36,0l1,.89a.22.22,0,0,1,0,.34,5.59,5.59,0,0,1-4.49,2A4.45,4.45,0,0,1,361.6,13.47Zm7.16-3.89c.09,0,.14-.05.14-.15a4,4,0,0,0-.17-1.29,2.84,2.84,0,0,0-5.28,0,4,4,0,0,0-.17,1.29.13.13,0,0,0,.15.15Z"/><path d="M1.75,48.64a.23.23,0,0,1-.24-.24V33.06a.23.23,0,0,1,.24-.24H3.29a.23.23,0,0,1,.24.24v1.08h0a3.5,3.5,0,0,1,3.27-1.58,3.81,3.81,0,0,1,4,2.76,9.53,9.53,0,0,1,.41,3.24,9.68,9.68,0,0,1-.41,3.27,3.81,3.81,0,0,1-4,2.76A3.51,3.51,0,0,1,3.55,43h0V48.4a.23.23,0,0,1-.24.24ZM8.86,41a8,8,0,0,0,.26-2.4,8.26,8.26,0,0,0-.26-2.4,2.45,2.45,0,0,0-2.52-1.73,2.45,2.45,0,0,0-2.55,1.73,7.59,7.59,0,0,0-.26,2.4A7.47,7.47,0,0,0,3.79,41a2.47,2.47,0,0,0,2.55,1.75A2.46,2.46,0,0,0,8.86,41Z"/><path d="M14.18,44.32a.23.23,0,0,1-.24-.24v-11a.23.23,0,0,1,.24-.24h1.54a.23.23,0,0,1,.24.24v1.18h0A3.23,3.23,0,0,1,19,32.56a3.6,3.6,0,0,1,2.36.86c.12.12.14.22,0,.34l-.88,1.18a.22.22,0,0,1-.34,0,3.31,3.31,0,0,0-1.78-.55c-1.75,0-2.47,1.37-2.47,3.36v6.29a.23.23,0,0,1-.24.24Z"/><path d="M22.56,41.47a9.1,9.1,0,0,1-.38-2.91,8.87,8.87,0,0,1,.36-2.9,4.42,4.42,0,0,1,4.51-3.1,4.45,4.45,0,0,1,4.51,3.1,10,10,0,0,1,.36,3.28.23.23,0,0,1-.26.25H24.39c-.1,0-.15,0-.15.14a4.3,4.3,0,0,0,.19,1.39,2.84,2.84,0,0,0,2.91,2,3.74,3.74,0,0,0,2.95-1.27.25.25,0,0,1,.36,0l1,.89a.22.22,0,0,1,0,.34,5.61,5.61,0,0,1-4.49,2A4.45,4.45,0,0,1,22.56,41.47Zm7.15-3.89a.13.13,0,0,0,.15-.15,4,4,0,0,0-.17-1.29,2.6,2.6,0,0,0-2.64-1.8,2.58,2.58,0,0,0-2.64,1.8,4,4,0,0,0-.17,1.29.13.13,0,0,0,.15.15Z"/><path d="M37.75,44.32a.27.27,0,0,1-.28-.24l-4.13-11c-.05-.14,0-.24.19-.24h1.65c.17,0,.25.08.32.24l3,8.26h.05l2.91-8.26a.28.28,0,0,1,.28-.24h1.63c.17,0,.25.1.2.24l-4.11,11a.3.3,0,0,1-.31.24Z"/><path d="M45.24,41.47a9.1,9.1,0,0,1-.38-2.91,8.87,8.87,0,0,1,.36-2.9,4.42,4.42,0,0,1,4.51-3.1,4.45,4.45,0,0,1,4.51,3.1,10,10,0,0,1,.36,3.28.23.23,0,0,1-.26.25H47.06a.12.12,0,0,0-.14.14,4.3,4.3,0,0,0,.19,1.39,2.84,2.84,0,0,0,2.91,2A3.76,3.76,0,0,0,53,41.44a.25.25,0,0,1,.36,0l1,.89a.22.22,0,0,1,0,.34,5.61,5.61,0,0,1-4.49,2A4.45,4.45,0,0,1,45.24,41.47Zm7.15-3.89a.13.13,0,0,0,.15-.15,4,4,0,0,0-.17-1.29,2.84,2.84,0,0,0-5.28,0,4,4,0,0,0-.17,1.29c0,.1,0,.15.14.15Z"/><path d="M64.82,44.32a.23.23,0,0,1-.24-.24V37.36c0-1.85-.84-2.93-2.56-2.93a2.58,2.58,0,0,0-2.64,2.81v6.84a.23.23,0,0,1-.24.24H57.6a.23.23,0,0,1-.24-.24v-11a.23.23,0,0,1,.24-.24h1.54a.23.23,0,0,1,.24.24v1.06h0a3.63,3.63,0,0,1,3.22-1.56c2.49,0,4,1.7,4,4.32v7.2a.23.23,0,0,1-.24.24Z"/><path d="M69.6,35.66a4.45,4.45,0,0,1,4.54-3.1,4.6,4.6,0,0,1,3.93,1.94.23.23,0,0,1-.07.34l-1.06.86a.21.21,0,0,1-.33,0,2.82,2.82,0,0,0-2.47-1.25,2.49,2.49,0,0,0-2.57,1.8,7.7,7.7,0,0,0-.27,2.33,7.76,7.76,0,0,0,.27,2.35,2.49,2.49,0,0,0,2.57,1.8,2.82,2.82,0,0,0,2.47-1.24.21.21,0,0,1,.33,0l1.06.87c.14.12.14.21.07.33a4.61,4.61,0,0,1-3.93,2,4.46,4.46,0,0,1-4.54-3.1,9.81,9.81,0,0,1-.36-2.93A9.69,9.69,0,0,1,69.6,35.66Z"/><path d="M81,30.23a.22.22,0,0,1-.23-.24V28.24A.22.22,0,0,1,81,28h1.64a.23.23,0,0,1,.24.24V30a.23.23,0,0,1-.24.24Zm0,14.09a.23.23,0,0,1-.24-.24v-11a.23.23,0,0,1,.24-.24h1.54a.23.23,0,0,1,.24.24v11a.23.23,0,0,1-.24.24Z"/><path d="M85.94,41.49a8.77,8.77,0,0,1-.38-2.93,8.65,8.65,0,0,1,.38-2.9,4.87,4.87,0,0,1,9.08,0,8.65,8.65,0,0,1,.38,2.9A8.77,8.77,0,0,1,95,41.49a4.87,4.87,0,0,1-9.08,0Zm7.13-.58a7.5,7.5,0,0,0,.27-2.35,7.45,7.45,0,0,0-.27-2.33,2.76,2.76,0,0,0-5.18,0,7.16,7.16,0,0,0-.27,2.33,7.22,7.22,0,0,0,.27,2.35,2.76,2.76,0,0,0,5.18,0ZM89.62,31c-.15,0-.22-.09-.15-.24l1.83-2.95a.4.4,0,0,1,.4-.24h1.59a.14.14,0,0,1,.12.24L91.2,30.71a.48.48,0,0,1-.46.24Z"/><path d="M105.62,44.32a.23.23,0,0,1-.24-.24V37.36c0-1.85-.84-2.93-2.57-2.93a2.58,2.58,0,0,0-2.63,2.81v6.84a.23.23,0,0,1-.25.24H98.4a.22.22,0,0,1-.24-.24v-11a.23.23,0,0,1,.24-.24h1.53a.23.23,0,0,1,.25.24v1.06h0a3.62,3.62,0,0,1,3.22-1.56c2.49,0,4,1.7,4,4.32v7.2a.23.23,0,0,1-.24.24Z"/><path d="M115.68,35.66a4.45,4.45,0,0,1,4.53-3.1,4.6,4.6,0,0,1,3.94,1.94.23.23,0,0,1-.07.34L123,35.7a.21.21,0,0,1-.33,0,2.84,2.84,0,0,0-2.48-1.25,2.49,2.49,0,0,0-2.56,1.8,7.39,7.39,0,0,0-.27,2.33,7.45,7.45,0,0,0,.27,2.35,2.49,2.49,0,0,0,2.56,1.8,2.83,2.83,0,0,0,2.48-1.24.21.21,0,0,1,.33,0l1.06.87c.14.12.14.21.07.33a4.61,4.61,0,0,1-3.94,2,4.46,4.46,0,0,1-4.53-3.1,9.81,9.81,0,0,1-.36-2.93A9.69,9.69,0,0,1,115.68,35.66Z"/><path d="M126.26,41.49a8.77,8.77,0,0,1-.38-2.93,8.65,8.65,0,0,1,.38-2.9,4.87,4.87,0,0,1,9.08,0,8.65,8.65,0,0,1,.38,2.9,8.77,8.77,0,0,1-.38,2.93,4.87,4.87,0,0,1-9.08,0Zm7.13-.58a7.56,7.56,0,0,0,.26-2.35,7.5,7.5,0,0,0-.26-2.33,2.76,2.76,0,0,0-5.18,0,7.16,7.16,0,0,0-.27,2.33,7.22,7.22,0,0,0,.27,2.35,2.76,2.76,0,0,0,5.18,0Z"/><path d="M145.94,44.32a.23.23,0,0,1-.24-.24V37.36c0-1.85-.84-2.93-2.57-2.93a2.58,2.58,0,0,0-2.64,2.81v6.84a.22.22,0,0,1-.24.24h-1.53a.22.22,0,0,1-.24-.24v-11a.23.23,0,0,1,.24-.24h1.53a.23.23,0,0,1,.24.24v1.06h0a3.62,3.62,0,0,1,3.21-1.56c2.5,0,4,1.7,4,4.32v7.2a.23.23,0,0,1-.24.24Z"/><path d="M154.39,44.44c-2.23,0-3.1-1-3.1-3.26V34.6c0-.1,0-.14-.14-.14h-1a.23.23,0,0,1-.24-.24V33.06a.23.23,0,0,1,.24-.24h1c.1,0,.14,0,.14-.14V29.44a.23.23,0,0,1,.24-.24h1.54a.23.23,0,0,1,.24.24v3.24a.12.12,0,0,0,.14.14h1.83a.23.23,0,0,1,.24.24v1.16a.23.23,0,0,1-.24.24h-1.83a.12.12,0,0,0-.14.14v6.5c0,1.16.43,1.47,1.46,1.47h.51a.23.23,0,0,1,.24.24V44.2a.23.23,0,0,1-.24.24Z"/><path d="M158.4,44.32a.22.22,0,0,1-.24-.24v-11a.23.23,0,0,1,.24-.24h1.53a.23.23,0,0,1,.24.24v1.18h0a3.2,3.2,0,0,1,3.05-1.68,3.58,3.58,0,0,1,2.35.86c.12.12.14.22.05.34l-.89,1.18a.22.22,0,0,1-.34,0,3.28,3.28,0,0,0-1.77-.55c-1.76,0-2.48,1.37-2.48,3.36v6.29a.22.22,0,0,1-.24.24Z"/><path d="M173.9,44.32a.23.23,0,0,1-.24-.24v-1h0a3.77,3.77,0,0,1-3.41,1.52c-2.18,0-3.86-1.13-3.86-3.46s1.68-3.55,4.48-3.55h2.62c.1,0,.14,0,.14-.15v-.84c0-1.58-.62-2.25-2.76-2.25a4.47,4.47,0,0,0-2.78.81c-.12.1-.27.1-.34,0L167.09,34a.24.24,0,0,1,0-.33,6.42,6.42,0,0,1,3.92-1.13c3.26,0,4.51,1.08,4.51,3.91v7.61a.23.23,0,0,1-.24.24Zm-.29-3.72V39.33c0-.1,0-.14-.14-.14h-2.3c-2,0-2.86.57-2.86,1.87s.86,1.8,2.4,1.8C172.51,42.86,173.61,42,173.61,40.6Z"/><path d="M183.86,35.66a4.45,4.45,0,0,1,4.54-3.1,4.6,4.6,0,0,1,3.93,1.94c.08.12.08.22-.07.34l-1,.86a.22.22,0,0,1-.34,0,2.82,2.82,0,0,0-2.47-1.25,2.49,2.49,0,0,0-2.57,1.8,7.75,7.75,0,0,0-.26,2.33,7.81,7.81,0,0,0,.26,2.35,2.49,2.49,0,0,0,2.57,1.8,2.82,2.82,0,0,0,2.47-1.24.22.22,0,0,1,.34,0l1,.87c.15.12.15.21.07.33a4.61,4.61,0,0,1-3.93,2,4.46,4.46,0,0,1-4.54-3.1,9.81,9.81,0,0,1-.36-2.93A9.69,9.69,0,0,1,183.86,35.66Z"/><path d="M201.72,44.32a.22.22,0,0,1-.24-.24v-1h0a3.74,3.74,0,0,1-3.4,1.52c-2.19,0-3.87-1.13-3.87-3.46s1.68-3.55,4.49-3.55h2.62c.09,0,.14,0,.14-.15v-.84c0-1.58-.63-2.25-2.76-2.25a4.44,4.44,0,0,0-2.78.81c-.13.1-.27.1-.34,0L194.9,34a.24.24,0,0,1,0-.33,6.38,6.38,0,0,1,3.91-1.13c3.27,0,4.51,1.08,4.51,3.91v7.61a.22.22,0,0,1-.24.24Zm-.29-3.72V39.33a.12.12,0,0,0-.14-.14H199c-2,0-2.85.57-2.85,1.87s.86,1.8,2.39,1.8C200.33,42.86,201.43,42,201.43,40.6Z"/><path d="M207,44.32a.23.23,0,0,1-.24-.24v-11a.23.23,0,0,1,.24-.24h1.54a.23.23,0,0,1,.24.24v11a.23.23,0,0,1-.24.24Zm.2-13.37c-.15,0-.22-.09-.15-.24l1.82-2.95a.43.43,0,0,1,.41-.24h1.59a.14.14,0,0,1,.12.24l-2.21,2.95a.48.48,0,0,1-.46.24Z"/><path d="M219.41,44.32a.22.22,0,0,1-.24-.24V43h0a3.5,3.5,0,0,1-3.26,1.61,3.8,3.8,0,0,1-4-2.76,9.43,9.43,0,0,1-.41-3.27,9.29,9.29,0,0,1,.41-3.24,3.8,3.8,0,0,1,4-2.76,3.49,3.49,0,0,1,3.26,1.58h0v-5.9a.23.23,0,0,1,.24-.24h1.53a.23.23,0,0,1,.24.24V44.08a.22.22,0,0,1-.24.24ZM218.9,41a7.41,7.41,0,0,0,.27-2.4,7.53,7.53,0,0,0-.27-2.4,2.71,2.71,0,0,0-5.06,0,7.88,7.88,0,0,0-.27,2.4,7.68,7.68,0,0,0,.27,2.4,2.7,2.7,0,0,0,5.06,0Z"/><path d="M231.6,44.32a.22.22,0,0,1-.24-.24v-1h0a3.75,3.75,0,0,1-3.41,1.52c-2.18,0-3.86-1.13-3.86-3.46s1.68-3.55,4.49-3.55h2.61a.13.13,0,0,0,.15-.15v-.84c0-1.58-.63-2.25-2.76-2.25a4.5,4.5,0,0,0-2.79.81c-.12.1-.26.1-.33,0L224.78,34a.24.24,0,0,1,.05-.33,6.38,6.38,0,0,1,3.91-1.13c3.27,0,4.51,1.08,4.51,3.91v7.61a.22.22,0,0,1-.24.24Zm-.29-3.72V39.33c0-.1-.05-.14-.15-.14h-2.3c-2,0-2.86.57-2.86,1.87s.87,1.8,2.4,1.8C230.2,42.86,231.31,42,231.31,40.6Z"/><path d="M235.82,42.86a.23.23,0,0,1,0-.34l1-1.05a.23.23,0,0,1,.34,0,5.6,5.6,0,0,0,3.55,1.32c1.68,0,2.52-.73,2.52-1.76s-.43-1.41-2.23-1.61l-1.22-.12c-2.26-.24-3.44-1.36-3.44-3.24,0-2.18,1.56-3.5,4.28-3.5a6.88,6.88,0,0,1,4.08,1.27.23.23,0,0,1,0,.34l-.81,1a.24.24,0,0,1-.34,0,6,6,0,0,0-3.09-.94c-1.44,0-2.19.65-2.19,1.59s.55,1.39,2.26,1.56l1.2.12c2.33.21,3.46,1.39,3.46,3.24,0,2.25-1.64,3.77-4.64,3.77A7.18,7.18,0,0,1,235.82,42.86Z"/><path d="M247.84,41.78h1.68a.22.22,0,0,1,.24.24v2.23a.77.77,0,0,1-.14.53l-1.49,2a.36.36,0,0,1-.31.16.21.21,0,0,1-.22-.21V42A.23.23,0,0,1,247.84,41.78Z"/><path d="M257.4,41.47a9.05,9.05,0,0,1-.39-2.91,8.87,8.87,0,0,1,.36-2.9,4.84,4.84,0,0,1,9,0,10,10,0,0,1,.36,3.28.24.24,0,0,1-.27.25h-7.27c-.1,0-.14,0-.14.14a4.3,4.3,0,0,0,.19,1.39,2.83,2.83,0,0,0,2.9,2,3.74,3.74,0,0,0,2.95-1.27.25.25,0,0,1,.36,0l1,.89a.22.22,0,0,1,0,.34,5.59,5.59,0,0,1-4.49,2A4.44,4.44,0,0,1,257.4,41.47Zm7.15-3.89c.09,0,.14,0,.14-.15a4,4,0,0,0-.17-1.29,2.84,2.84,0,0,0-5.28,0,4,4,0,0,0-.16,1.29c0,.1,0,.15.14.15Z"/><path d="M268.72,42.86a.25.25,0,0,1,0-.34l1-1.05a.22.22,0,0,1,.33,0,5.63,5.63,0,0,0,3.56,1.32c1.68,0,2.52-.73,2.52-1.76s-.44-1.41-2.24-1.61l-1.22-.12c-2.26-.24-3.43-1.36-3.43-3.24,0-2.18,1.56-3.5,4.27-3.5a6.88,6.88,0,0,1,4.08,1.27.24.24,0,0,1,.05.34l-.82,1a.23.23,0,0,1-.33,0,6.07,6.07,0,0,0-3.1-.94c-1.44,0-2.18.65-2.18,1.59s.55,1.39,2.25,1.56l1.2.12c2.33.21,3.46,1.39,3.46,3.24,0,2.25-1.63,3.77-4.63,3.77A7.19,7.19,0,0,1,268.72,42.86Z"/><path d="M284.13,44.44c-2.23,0-3.09-1-3.09-3.26V34.6c0-.1-.05-.14-.15-.14h-1a.23.23,0,0,1-.24-.24V33.06a.23.23,0,0,1,.24-.24h1c.1,0,.15,0,.15-.14V29.44a.23.23,0,0,1,.24-.24h1.53a.23.23,0,0,1,.24.24v3.24c0,.1.05.14.15.14H285a.23.23,0,0,1,.24.24v1.16a.23.23,0,0,1-.24.24H283.2c-.1,0-.15,0-.15.14v6.5c0,1.16.43,1.47,1.47,1.47h.5a.23.23,0,0,1,.24.24V44.2a.23.23,0,0,1-.24.24Z"/><path d="M288.14,44.32a.23.23,0,0,1-.24-.24v-11a.23.23,0,0,1,.24-.24h1.54a.23.23,0,0,1,.24.24v1.18h0A3.2,3.2,0,0,1,293,32.56a3.58,3.58,0,0,1,2.35.86c.12.12.14.22.05.34l-.89,1.18a.22.22,0,0,1-.34,0,3.25,3.25,0,0,0-1.77-.55c-1.75,0-2.47,1.37-2.47,3.36v6.29a.23.23,0,0,1-.24.24Z"/><path d="M304.48,44.32a.23.23,0,0,1-.24-.24V43h0a3.51,3.51,0,0,1-3.14,1.59c-2.53,0-4-1.73-4-4.35V33.06a.23.23,0,0,1,.24-.24h1.54a.23.23,0,0,1,.24.24v6.7c0,1.87.84,3,2.54,3a2.55,2.55,0,0,0,2.59-2.83V33.06a.23.23,0,0,1,.24-.24H306a.23.23,0,0,1,.24.24v11a.23.23,0,0,1-.24.24Z"/><path d="M309.38,35.66a4.45,4.45,0,0,1,4.54-3.1,4.6,4.6,0,0,1,3.93,1.94.23.23,0,0,1-.07.34l-1.06.86a.21.21,0,0,1-.33,0,2.82,2.82,0,0,0-2.47-1.25,2.49,2.49,0,0,0-2.57,1.8,7.39,7.39,0,0,0-.27,2.33,7.45,7.45,0,0,0,.27,2.35,2.49,2.49,0,0,0,2.57,1.8,2.82,2.82,0,0,0,2.47-1.24.21.21,0,0,1,.33,0l1.06.87c.14.12.14.21.07.33a4.61,4.61,0,0,1-3.93,2,4.46,4.46,0,0,1-4.54-3.1,9.81,9.81,0,0,1-.36-2.93A9.69,9.69,0,0,1,309.38,35.66Z"/><path d="M323.9,44.44c-2.23,0-3.1-1-3.1-3.26V34.6a.12.12,0,0,0-.14-.14h-1a.23.23,0,0,1-.24-.24V33.06a.23.23,0,0,1,.24-.24h1a.12.12,0,0,0,.14-.14V29.44a.23.23,0,0,1,.24-.24h1.54a.23.23,0,0,1,.24.24v3.24a.12.12,0,0,0,.14.14h1.83a.23.23,0,0,1,.24.24v1.16a.23.23,0,0,1-.24.24H323a.12.12,0,0,0-.14.14v6.5c0,1.16.43,1.47,1.46,1.47h.51a.23.23,0,0,1,.24.24V44.2a.23.23,0,0,1-.24.24Z"/><path d="M334.89,44.32a.23.23,0,0,1-.24-.24V43h0a3.52,3.52,0,0,1-3.15,1.59c-2.52,0-4-1.73-4-4.35V33.06a.23.23,0,0,1,.24-.24h1.53a.23.23,0,0,1,.24.24v6.7c0,1.87.84,3,2.55,3a2.55,2.55,0,0,0,2.59-2.83V33.06a.23.23,0,0,1,.24-.24h1.54a.23.23,0,0,1,.24.24v11a.23.23,0,0,1-.24.24Z"/><path d="M340.36,44.32a.23.23,0,0,1-.24-.24v-11a.23.23,0,0,1,.24-.24h1.54a.23.23,0,0,1,.24.24v1.18h0a3.21,3.21,0,0,1,3-1.68,3.56,3.56,0,0,1,2.35.86c.12.12.15.22.05.34l-.89,1.18a.21.21,0,0,1-.33,0,3.31,3.31,0,0,0-1.78-.55c-1.75,0-2.47,1.37-2.47,3.36v6.29a.23.23,0,0,1-.24.24Z"/><path d="M355.87,44.32a.22.22,0,0,1-.24-.24v-1h0a3.75,3.75,0,0,1-3.41,1.52c-2.18,0-3.86-1.13-3.86-3.46s1.68-3.55,4.49-3.55h2.61a.13.13,0,0,0,.15-.15v-.84c0-1.58-.63-2.25-2.76-2.25a4.5,4.5,0,0,0-2.79.81c-.12.1-.26.1-.33,0L349.05,34a.24.24,0,0,1,.05-.33A6.38,6.38,0,0,1,353,32.56c3.26,0,4.51,1.08,4.51,3.91v7.61a.22.22,0,0,1-.24.24Zm-.29-3.72V39.33c0-.1-.05-.14-.15-.14h-2.3c-2,0-2.86.57-2.86,1.87s.87,1.8,2.4,1.8C354.47,42.86,355.58,42,355.58,40.6Z"/><path d="M360.83,41.78h1.68a.22.22,0,0,1,.24.24v2.23a.77.77,0,0,1-.14.53l-1.49,2a.36.36,0,0,1-.31.16.21.21,0,0,1-.22-.21V42A.23.23,0,0,1,360.83,41.78Z"/><path d="M8.47,72.32a.23.23,0,0,1-.24-.24v-1h0A3.77,3.77,0,0,1,4.8,72.59c-2.18,0-3.86-1.13-3.86-3.46s1.68-3.55,4.49-3.55H8c.1,0,.14,0,.14-.15v-.84c0-1.58-.62-2.25-2.75-2.25a4.48,4.48,0,0,0-2.79.81.22.22,0,0,1-.34,0L1.66,62a.24.24,0,0,1,0-.33,6.42,6.42,0,0,1,3.92-1.13c3.26,0,4.51,1.08,4.51,3.91v7.61a.23.23,0,0,1-.24.24ZM8.18,68.6V67.33c0-.1,0-.14-.14-.14H5.74c-2,0-2.86.57-2.86,1.87s.86,1.8,2.4,1.8C7.08,70.86,8.18,70,8.18,68.6ZM4.94,59c-.14,0-.21-.09-.14-.24l1.83-3a.4.4,0,0,1,.4-.24H8.62a.14.14,0,0,1,.12.24l-2.21,3a.48.48,0,0,1-.46.24Z"/><path d="M13.73,72.32a.22.22,0,0,1-.24-.24v-11a.23.23,0,0,1,.24-.24h1.53a.23.23,0,0,1,.25.24v1.18h0a3.2,3.2,0,0,1,3-1.68,3.58,3.58,0,0,1,2.35.86c.12.12.14.22.05.34l-.89,1.18a.22.22,0,0,1-.34,0A3.28,3.28,0,0,0,18,62.43c-1.76,0-2.47,1.37-2.47,3.36v6.29a.23.23,0,0,1-.25.24Z"/><path d="M22.1,69.47a9.1,9.1,0,0,1-.38-2.91,8.87,8.87,0,0,1,.36-2.9,4.44,4.44,0,0,1,4.51-3.1,4.46,4.46,0,0,1,4.52,3.1,10,10,0,0,1,.36,3.28.24.24,0,0,1-.27.25H23.93c-.1,0-.14,0-.14.14A4.3,4.3,0,0,0,24,68.72a2.83,2.83,0,0,0,2.9,2,3.74,3.74,0,0,0,2.95-1.27.25.25,0,0,1,.36,0l1,.89a.22.22,0,0,1,0,.34,5.59,5.59,0,0,1-4.49,2A4.46,4.46,0,0,1,22.1,69.47Zm7.16-3.89c.09,0,.14,0,.14-.15a4,4,0,0,0-.17-1.29,2.58,2.58,0,0,0-2.64-1.8A2.6,2.6,0,0,0,24,64.14a4,4,0,0,0-.16,1.29c0,.1,0,.15.14.15Z"/><path d="M41.18,72.32a.22.22,0,0,1-.23-.24v-1h0a3.77,3.77,0,0,1-3.41,1.52c-2.18,0-3.86-1.13-3.86-3.46s1.68-3.55,4.49-3.55h2.61a.13.13,0,0,0,.15-.15v-.84c0-1.58-.63-2.25-2.76-2.25a4.48,4.48,0,0,0-2.79.81c-.12.1-.26.1-.33,0L34.37,62a.24.24,0,0,1,.05-.33,6.36,6.36,0,0,1,3.91-1.13c3.26,0,4.51,1.08,4.51,3.91v7.61a.22.22,0,0,1-.24.24ZM40.9,68.6V67.33c0-.1,0-.14-.15-.14h-2.3c-2,0-2.86.57-2.86,1.87s.87,1.8,2.4,1.8C39.79,70.86,40.9,70,40.9,68.6Z"/><path d="M45.41,70.86a.23.23,0,0,1,0-.34l1-1a.23.23,0,0,1,.34,0,5.6,5.6,0,0,0,3.55,1.32c1.68,0,2.52-.73,2.52-1.76s-.43-1.41-2.23-1.61l-1.23-.11c-2.25-.25-3.43-1.37-3.43-3.25,0-2.18,1.56-3.5,4.27-3.5a6.85,6.85,0,0,1,4.08,1.27.22.22,0,0,1,.05.34l-.81,1a.24.24,0,0,1-.34,0,6,6,0,0,0-3.1-.94c-1.43,0-2.18.65-2.18,1.59s.55,1.39,2.26,1.56l1.2.12c2.33.21,3.45,1.39,3.45,3.24,0,2.25-1.63,3.77-4.63,3.77A7.16,7.16,0,0,1,45.41,70.86Z"/><path d="M70,72.32a.23.23,0,0,1-.24-.24V71h0a3.52,3.52,0,0,1-3.27,1.61,3.81,3.81,0,0,1-4-2.76,9.68,9.68,0,0,1-.41-3.27,9.57,9.57,0,0,1,.41-3.24,3.81,3.81,0,0,1,4-2.76,3.51,3.51,0,0,1,3.27,1.58h0v-5.9A.23.23,0,0,1,70,56H71.5a.23.23,0,0,1,.24.24V72.08a.23.23,0,0,1-.24.24ZM69.46,69a7.47,7.47,0,0,0,.26-2.4,7.59,7.59,0,0,0-.26-2.4,2.72,2.72,0,0,0-5.07,0,8.26,8.26,0,0,0-.26,2.4,8,8,0,0,0,.26,2.4,2.71,2.71,0,0,0,5.07,0Z"/><path d="M74.88,69.47a9.1,9.1,0,0,1-.38-2.91,8.87,8.87,0,0,1,.36-2.9,4.83,4.83,0,0,1,9,0,10,10,0,0,1,.36,3.28.24.24,0,0,1-.26.25H76.7a.12.12,0,0,0-.14.14,4.3,4.3,0,0,0,.19,1.39,2.84,2.84,0,0,0,2.91,2,3.77,3.77,0,0,0,3-1.27.25.25,0,0,1,.36,0l1,.89a.22.22,0,0,1,0,.34,5.61,5.61,0,0,1-4.49,2A4.45,4.45,0,0,1,74.88,69.47ZM82,65.58a.13.13,0,0,0,.15-.15A4,4,0,0,0,82,64.14a2.84,2.84,0,0,0-5.28,0,4,4,0,0,0-.17,1.29c0,.1,0,.15.14.15Z"/><path d="M99.24,72.32a.23.23,0,0,1-.24-.24v-1h0a3.77,3.77,0,0,1-3.41,1.52c-2.19,0-3.87-1.13-3.87-3.46s1.68-3.55,4.49-3.55h2.62c.09,0,.14,0,.14-.15v-.84c0-1.58-.62-2.25-2.76-2.25a4.47,4.47,0,0,0-2.78.81c-.12.1-.27.1-.34,0L92.42,62a.25.25,0,0,1,0-.33,6.42,6.42,0,0,1,3.92-1.13c3.26,0,4.51,1.08,4.51,3.91v7.61a.23.23,0,0,1-.24.24ZM99,68.6V67.33a.12.12,0,0,0-.14-.14H96.5c-2,0-2.85.57-2.85,1.87s.86,1.8,2.4,1.8C97.85,70.86,99,70,99,68.6Z"/><path d="M103.92,63.66a4.45,4.45,0,0,1,4.54-3.1,4.6,4.6,0,0,1,3.93,1.94c.08.12.08.22-.07.34l-1.06.86a.21.21,0,0,1-.33,0,2.82,2.82,0,0,0-2.47-1.25,2.49,2.49,0,0,0-2.57,1.8,10.27,10.27,0,0,0,0,4.68,2.49,2.49,0,0,0,2.57,1.8,2.82,2.82,0,0,0,2.47-1.24.21.21,0,0,1,.33,0l1.06.87c.15.12.15.21.07.33a4.61,4.61,0,0,1-3.93,2,4.46,4.46,0,0,1-4.54-3.1,9.81,9.81,0,0,1-.36-2.93A9.69,9.69,0,0,1,103.92,63.66Z"/><path d="M114.48,63.66a4.45,4.45,0,0,1,4.54-3.1A4.6,4.6,0,0,1,123,62.5a.23.23,0,0,1-.07.34l-1.06.86a.21.21,0,0,1-.33,0A2.82,2.82,0,0,0,119,62.43a2.49,2.49,0,0,0-2.57,1.8,10.27,10.27,0,0,0,0,4.68,2.49,2.49,0,0,0,2.57,1.8,2.82,2.82,0,0,0,2.47-1.24.21.21,0,0,1,.33,0l1.06.87c.14.12.14.21.07.33a4.61,4.61,0,0,1-3.93,2,4.46,4.46,0,0,1-4.54-3.1,9.81,9.81,0,0,1-.36-2.93A9.69,9.69,0,0,1,114.48,63.66Z"/><path d="M125.06,69.47a9.1,9.1,0,0,1-.38-2.91,8.87,8.87,0,0,1,.36-2.9,4.83,4.83,0,0,1,9,0,9.89,9.89,0,0,1,.37,3.28.24.24,0,0,1-.27.25h-7.27c-.1,0-.15,0-.15.14a4.27,4.27,0,0,0,.2,1.39,2.83,2.83,0,0,0,2.9,2,3.74,3.74,0,0,0,2.95-1.27.25.25,0,0,1,.36,0l1,.89a.22.22,0,0,1,0,.34,5.59,5.59,0,0,1-4.49,2A4.45,4.45,0,0,1,125.06,69.47Zm7.16-3.89c.09,0,.14,0,.14-.15a4,4,0,0,0-.17-1.29,2.84,2.84,0,0,0-5.28,0,4,4,0,0,0-.17,1.29.13.13,0,0,0,.15.15Z"/><path d="M136.39,70.86a.25.25,0,0,1,0-.34l1-1a.22.22,0,0,1,.33,0,5.62,5.62,0,0,0,3.55,1.32c1.68,0,2.52-.73,2.52-1.76s-.43-1.41-2.23-1.61l-1.22-.11c-2.26-.25-3.43-1.37-3.43-3.25,0-2.18,1.56-3.5,4.27-3.5a6.88,6.88,0,0,1,4.08,1.27.24.24,0,0,1,.05.34l-.82,1a.24.24,0,0,1-.34,0,6,6,0,0,0-3.09-.94c-1.44,0-2.19.65-2.19,1.59s.56,1.39,2.26,1.56l1.2.12c2.33.21,3.46,1.39,3.46,3.24,0,2.25-1.64,3.77-4.64,3.77A7.18,7.18,0,0,1,136.39,70.86Z"/><path d="M148.15,69.49a8.77,8.77,0,0,1-.38-2.93,8.65,8.65,0,0,1,.38-2.9,4.87,4.87,0,0,1,9.07,0,8.37,8.37,0,0,1,.39,2.9,8.48,8.48,0,0,1-.39,2.93,4.87,4.87,0,0,1-9.07,0Zm7.13-.58a7.6,7.6,0,0,0,.26-2.35,7.5,7.5,0,0,0-.26-2.33,2.77,2.77,0,0,0-5.19,0,7.5,7.5,0,0,0-.26,2.33,7.6,7.6,0,0,0,.26,2.35,2.77,2.77,0,0,0,5.19,0Z"/><path d="M165.74,76.64a.23.23,0,0,1-.24-.24V75a.23.23,0,0,1,.24-.24h.44c.93,0,1.44-.41,1.94-1.73L168.5,72l-4.22-10.93c-.05-.14,0-.24.19-.24h1.68a.29.29,0,0,1,.29.24l3,8.31h0l2.91-8.31a.28.28,0,0,1,.28-.24h1.64c.14,0,.24.1.19.24L170,73.21c-1,2.71-1.9,3.43-3.62,3.43Z"/><path d="M181.58,69.47a9.1,9.1,0,0,1-.38-2.91,8.87,8.87,0,0,1,.36-2.9,4.83,4.83,0,0,1,9,0,10,10,0,0,1,.36,3.28.23.23,0,0,1-.26.25h-7.27c-.1,0-.15,0-.15.14a4.3,4.3,0,0,0,.19,1.39,2.84,2.84,0,0,0,2.91,2,3.74,3.74,0,0,0,2.95-1.27.25.25,0,0,1,.36,0l1,.89a.22.22,0,0,1,0,.34,5.59,5.59,0,0,1-4.49,2A4.45,4.45,0,0,1,181.58,69.47Zm7.15-3.89a.13.13,0,0,0,.15-.15,4,4,0,0,0-.17-1.29,2.84,2.84,0,0,0-5.28,0,4,4,0,0,0-.17,1.29.13.13,0,0,0,.15.15Z"/><path d="M200.9,76.64a.23.23,0,0,1-.24-.24V71h0a3.51,3.51,0,0,1-3.27,1.61,3.81,3.81,0,0,1-4-2.76,9.71,9.71,0,0,1-.4-3.27,9.59,9.59,0,0,1,.4-3.24,3.81,3.81,0,0,1,4-2.76,3.5,3.5,0,0,1,3.27,1.58h0V61.06a.23.23,0,0,1,.24-.24h1.54a.23.23,0,0,1,.24.24V76.4a.23.23,0,0,1-.24.24ZM200.4,69a7.47,7.47,0,0,0,.26-2.4,7.59,7.59,0,0,0-.26-2.4,2.72,2.72,0,0,0-5.07,0,8.26,8.26,0,0,0-.26,2.4,8,8,0,0,0,.26,2.4,2.71,2.71,0,0,0,5.07,0Z"/><path d="M213.36,72.32a.23.23,0,0,1-.24-.24V71h0A3.5,3.5,0,0,1,210,72.59c-2.52,0-4-1.73-4-4.35V61.06a.23.23,0,0,1,.24-.24h1.53a.23.23,0,0,1,.24.24v6.7c0,1.87.84,2.95,2.55,2.95a2.55,2.55,0,0,0,2.59-2.83V61.06a.23.23,0,0,1,.24-.24h1.53a.23.23,0,0,1,.25.24v11a.23.23,0,0,1-.25.24Z"/><path d="M218.78,58.23a.23.23,0,0,1-.24-.24V56.24a.23.23,0,0,1,.24-.24h1.63a.23.23,0,0,1,.24.24V58a.22.22,0,0,1-.24.24Zm.05,14.09a.23.23,0,0,1-.24-.24v-11a.23.23,0,0,1,.24-.24h1.54a.23.23,0,0,1,.24.24v11a.23.23,0,0,1-.24.24Z"/><path d="M224.3,76.64a.23.23,0,0,1-.24-.24V61.06a.23.23,0,0,1,.24-.24h1.54a.23.23,0,0,1,.24.24v1.08h0a3.5,3.5,0,0,1,3.27-1.58,3.81,3.81,0,0,1,4,2.76,9.59,9.59,0,0,1,.4,3.24,9.71,9.71,0,0,1-.4,3.27,3.81,3.81,0,0,1-4,2.76A3.51,3.51,0,0,1,226.1,71h0V76.4a.23.23,0,0,1-.24.24ZM231.41,69a8,8,0,0,0,.26-2.4,8.26,8.26,0,0,0-.26-2.4,2.72,2.72,0,0,0-5.07,0,7.59,7.59,0,0,0-.26,2.4,7.47,7.47,0,0,0,.26,2.4,2.71,2.71,0,0,0,5.07,0Z"/><path d="M236.18,69.49a8.77,8.77,0,0,1-.38-2.93,8.65,8.65,0,0,1,.38-2.9,4.87,4.87,0,0,1,9.07,0,8.37,8.37,0,0,1,.39,2.9,8.48,8.48,0,0,1-.39,2.93,4.87,4.87,0,0,1-9.07,0Zm7.13-.58a7.6,7.6,0,0,0,.26-2.35,7.5,7.5,0,0,0-.26-2.33,2.76,2.76,0,0,0-5.18,0,7.16,7.16,0,0,0-.27,2.33,7.26,7.26,0,0,0,.27,2.35,2.76,2.76,0,0,0,5.18,0Z"/><path d="M247.6,70.86a.25.25,0,0,1,0-.34l1-1a.23.23,0,0,1,.34,0,5.6,5.6,0,0,0,3.55,1.32c1.68,0,2.52-.73,2.52-1.76s-.43-1.41-2.24-1.61l-1.22-.11c-2.25-.25-3.43-1.37-3.43-3.25,0-2.18,1.56-3.5,4.27-3.5a6.88,6.88,0,0,1,4.08,1.27.24.24,0,0,1,.05.34l-.82,1a.23.23,0,0,1-.33,0,6.07,6.07,0,0,0-3.1-.94c-1.44,0-2.18.65-2.18,1.59s.55,1.39,2.25,1.56l1.2.12c2.33.21,3.46,1.39,3.46,3.24,0,2.25-1.63,3.77-4.63,3.77A7.21,7.21,0,0,1,247.6,70.86Z"/><path d="M272.16,72.32a.22.22,0,0,1-.24-.24V71h0a3.49,3.49,0,0,1-3.26,1.61,3.8,3.8,0,0,1-4-2.76,9.68,9.68,0,0,1-.41-3.27,9.57,9.57,0,0,1,.41-3.24,3.8,3.8,0,0,1,4-2.76,3.48,3.48,0,0,1,3.26,1.58h0v-5.9a.23.23,0,0,1,.24-.24h1.53a.23.23,0,0,1,.24.24V72.08a.22.22,0,0,1-.24.24ZM271.65,69a7.41,7.41,0,0,0,.27-2.4,7.53,7.53,0,0,0-.27-2.4,2.71,2.71,0,0,0-5.06,0,8.21,8.21,0,0,0-.27,2.4,8,8,0,0,0,.27,2.4,2.7,2.7,0,0,0,5.06,0Z"/><path d="M277.08,69.47a9.05,9.05,0,0,1-.39-2.91,8.87,8.87,0,0,1,.36-2.9,4.84,4.84,0,0,1,9,0,10,10,0,0,1,.36,3.28.24.24,0,0,1-.27.25H278.9c-.1,0-.14,0-.14.14a4.3,4.3,0,0,0,.19,1.39,2.83,2.83,0,0,0,2.9,2,3.74,3.74,0,0,0,2.95-1.27.26.26,0,0,1,.37,0l1,.89a.22.22,0,0,1,0,.34,5.59,5.59,0,0,1-4.49,2A4.44,4.44,0,0,1,277.08,69.47Zm7.15-3.89c.1,0,.14,0,.14-.15a4,4,0,0,0-.16-1.29,2.84,2.84,0,0,0-5.28,0,3.74,3.74,0,0,0-.17,1.29c0,.1,0,.15.14.15Z"/><path d="M301.44,72.32a.22.22,0,0,1-.24-.24v-1h0a3.75,3.75,0,0,1-3.41,1.52c-2.18,0-3.86-1.13-3.86-3.46s1.68-3.55,4.49-3.55H301c.09,0,.14,0,.14-.15v-.84c0-1.58-.63-2.25-2.76-2.25a4.5,4.5,0,0,0-2.79.81c-.12.1-.26.1-.33,0L294.62,62a.24.24,0,0,1,.05-.33,6.38,6.38,0,0,1,3.91-1.13c3.26,0,4.51,1.08,4.51,3.91v7.61a.22.22,0,0,1-.24.24Zm-.29-3.72V67.33a.12.12,0,0,0-.14-.14H298.7c-2,0-2.86.57-2.86,1.87s.87,1.8,2.4,1.8C300.05,70.86,301.15,70,301.15,68.6Z"/><path d="M309.21,72.44c-2,0-2.81-1-2.81-3V56.24a.23.23,0,0,1,.24-.24h1.54a.23.23,0,0,1,.24.24V69.3c0,1,.36,1.27,1.15,1.27H310a.23.23,0,0,1,.24.24V72.2a.23.23,0,0,1-.24.24Z"/><path d="M315.84,72.44c-2.24,0-3.1-1-3.1-3.26V62.6a.12.12,0,0,0-.14-.14h-1a.23.23,0,0,1-.24-.24V61.06a.23.23,0,0,1,.24-.24h1a.12.12,0,0,0,.14-.14V57.44a.23.23,0,0,1,.24-.24h1.54a.23.23,0,0,1,.24.24v3.24c0,.1,0,.14.14.14h1.82a.23.23,0,0,1,.25.24v1.16a.23.23,0,0,1-.25.24H314.9c-.1,0-.14,0-.14.14v6.5c0,1.16.43,1.47,1.46,1.47h.5a.23.23,0,0,1,.25.24V72.2a.23.23,0,0,1-.25.24Z"/><path d="M326.83,72.32a.22.22,0,0,1-.24-.24V71h0a3.49,3.49,0,0,1-3.14,1.59c-2.52,0-4-1.73-4-4.35V61.06a.23.23,0,0,1,.24-.24h1.53a.23.23,0,0,1,.24.24v6.7c0,1.87.84,2.95,2.55,2.95a2.55,2.55,0,0,0,2.59-2.83V61.06a.23.23,0,0,1,.24-.24h1.54a.22.22,0,0,1,.23.24v11a.22.22,0,0,1-.23.24Z"/><path d="M332.3,72.32a.23.23,0,0,1-.24-.24v-11a.23.23,0,0,1,.24-.24h1.54a.23.23,0,0,1,.24.24v1.18h0a3.2,3.2,0,0,1,3-1.68,3.56,3.56,0,0,1,2.35.86c.12.12.14.22.05.34l-.89,1.18a.22.22,0,0,1-.34,0,3.25,3.25,0,0,0-1.77-.55c-1.75,0-2.47,1.37-2.47,3.36v6.29a.23.23,0,0,1-.24.24Z"/><path d="M347.8,72.32a.22.22,0,0,1-.23-.24v-1h0a3.75,3.75,0,0,1-3.41,1.52c-2.18,0-3.86-1.13-3.86-3.46s1.68-3.55,4.49-3.55h2.61a.13.13,0,0,0,.15-.15v-.84c0-1.58-.63-2.25-2.76-2.25a4.48,4.48,0,0,0-2.79.81c-.12.1-.26.1-.33,0L341,62a.24.24,0,0,1,.05-.33A6.36,6.36,0,0,1,345,60.56c3.26,0,4.51,1.08,4.51,3.91v7.61a.22.22,0,0,1-.24.24Zm-.28-3.72V67.33c0-.1,0-.14-.15-.14h-2.3c-2,0-2.86.57-2.86,1.87s.87,1.8,2.4,1.8C346.41,70.86,347.52,70,347.52,68.6Z"/><path d="M352,70.86a.23.23,0,0,1,0-.34l1-1a.23.23,0,0,1,.34,0,5.6,5.6,0,0,0,3.55,1.32c1.68,0,2.52-.73,2.52-1.76s-.43-1.41-2.23-1.61L356,67.31c-2.26-.25-3.44-1.37-3.44-3.25,0-2.18,1.56-3.5,4.27-3.5a6.89,6.89,0,0,1,4.09,1.27.23.23,0,0,1,0,.34l-.81,1a.24.24,0,0,1-.34,0,6,6,0,0,0-3.1-.94c-1.43,0-2.18.65-2.18,1.59s.55,1.39,2.26,1.56l1.2.12c2.33.21,3.45,1.39,3.45,3.24,0,2.25-1.63,3.77-4.63,3.77A7.18,7.18,0,0,1,352,70.86Z"/></g></g></svg>