<svg xmlns="http://www.w3.org/2000/svg" viewBox="0 0 374.3 77.39"><title>8c</title><g id="Capa_2" data-name="Capa 2"><g id="answer_copia" data-name="answer copia"><path d="M.74.72A.23.23,0,0,1,1,.48H2.64a.23.23,0,0,1,.24.24v14a.13.13,0,0,0,.14.14H10.8a.23.23,0,0,1,.24.24v1.51a.22.22,0,0,1-.24.24H1a.23.23,0,0,1-.24-.24Z"/><path d="M20.09,16.8a.22.22,0,0,1-.24-.24v-1h0a3.74,3.74,0,0,1-3.4,1.52c-2.19,0-3.87-1.13-3.87-3.46s1.68-3.55,4.49-3.55h2.62c.09,0,.14-.05.14-.15V9.07c0-1.58-.62-2.25-2.76-2.25a4.44,4.44,0,0,0-2.78.81c-.12.1-.27.1-.34,0L13.27,6.5a.24.24,0,0,1,.05-.33A6.38,6.38,0,0,1,17.23,5C20.5,5,21.74,6.12,21.74,9v7.61a.22.22,0,0,1-.24.24Zm-.29-3.72V11.81a.12.12,0,0,0-.14-.14H17.35c-2,0-2.85.57-2.85,1.87s.86,1.8,2.4,1.8C18.7,15.34,19.8,14.5,19.8,13.08Z"/><path d="M30.62,16.8a.23.23,0,0,1-.24-.24v-11a.23.23,0,0,1,.24-.24h1.54a.23.23,0,0,1,.24.24V6.72h0a3.23,3.23,0,0,1,3-1.68,3.56,3.56,0,0,1,2.35.86c.12.12.15.22,0,.34L37,7.42a.21.21,0,0,1-.33,0,3.31,3.31,0,0,0-1.78-.55c-1.75,0-2.47,1.37-2.47,3.36v6.29a.23.23,0,0,1-.24.24Z"/><path d="M39,14A9.1,9.1,0,0,1,38.62,11,8.87,8.87,0,0,1,39,8.14,4.42,4.42,0,0,1,43.49,5,4.45,4.45,0,0,1,48,8.14a10,10,0,0,1,.36,3.28.24.24,0,0,1-.26.25H40.82a.12.12,0,0,0-.14.14,4.3,4.3,0,0,0,.19,1.39,2.84,2.84,0,0,0,2.91,2,3.77,3.77,0,0,0,2.95-1.27.25.25,0,0,1,.36-.05l1,.89a.22.22,0,0,1,0,.34,5.62,5.62,0,0,1-4.49,2A4.45,4.45,0,0,1,39,14Zm7.15-3.89a.13.13,0,0,0,.15-.15,4,4,0,0,0-.17-1.29,2.84,2.84,0,0,0-5.28,0,4,4,0,0,0-.17,1.29c0,.1,0,.15.14.15Z"/><path d="M54.19,16.8c-.17,0-.24-.09-.29-.24l-4.12-11c-.05-.14,0-.24.19-.24h1.65c.17,0,.24.08.32.24l3,8.26H55l2.9-8.26a.29.29,0,0,1,.29-.24h1.63c.17,0,.24.1.2.24l-4.11,11a.3.3,0,0,1-.31.24Z"/><path d="M62.28,2.71A.23.23,0,0,1,62,2.47V.72a.23.23,0,0,1,.24-.24h1.63a.23.23,0,0,1,.24.24V2.47a.22.22,0,0,1-.24.24Zm0,14.09a.22.22,0,0,1-.24-.24v-11a.23.23,0,0,1,.24-.24h1.53a.23.23,0,0,1,.24.24v11a.22.22,0,0,1-.24.24Z"/><path d="M66.77,15.34a.23.23,0,0,1,0-.34l1-1.05a.23.23,0,0,1,.34,0,5.6,5.6,0,0,0,3.55,1.32c1.68,0,2.52-.73,2.52-1.76s-.43-1.41-2.23-1.61l-1.23-.12c-2.25-.24-3.43-1.36-3.43-3.24,0-2.18,1.56-3.5,4.27-3.5a6.88,6.88,0,0,1,4.08,1.27.24.24,0,0,1,0,.34l-.81,1a.24.24,0,0,1-.34.05,6,6,0,0,0-3.1-.94c-1.44,0-2.18.65-2.18,1.59s.55,1.39,2.26,1.56l1.2.12c2.32.21,3.45,1.39,3.45,3.24,0,2.25-1.63,3.77-4.63,3.77A7.16,7.16,0,0,1,66.77,15.34Z"/><path d="M79,2.71a.23.23,0,0,1-.24-.24V.72A.23.23,0,0,1,79,.48h1.63a.23.23,0,0,1,.24.24V2.47a.22.22,0,0,1-.24.24Zm0,14.09a.22.22,0,0,1-.24-.24v-11a.23.23,0,0,1,.24-.24h1.54a.23.23,0,0,1,.24.24v11a.23.23,0,0,1-.24.24Z"/><path d="M84,14A8.48,8.48,0,0,1,83.61,11,8.37,8.37,0,0,1,84,8.14a4.87,4.87,0,0,1,9.07,0,8.37,8.37,0,0,1,.39,2.9A8.48,8.48,0,0,1,93.07,14,4.87,4.87,0,0,1,84,14Zm7.13-.58A7.56,7.56,0,0,0,91.39,11a7.5,7.5,0,0,0-.26-2.33,2.77,2.77,0,0,0-5.19,0A7.5,7.5,0,0,0,85.68,11a7.56,7.56,0,0,0,.26,2.35,2.77,2.77,0,0,0,5.19,0Zm-3.46-10c-.14,0-.21-.09-.14-.24L89.35.24A.43.43,0,0,1,89.76,0h1.58c.15,0,.22.12.12.24l-2.21,3a.47.47,0,0,1-.45.24Z"/><path d="M103.68,16.8a.23.23,0,0,1-.24-.24V9.84c0-1.85-.84-2.93-2.57-2.93a2.58,2.58,0,0,0-2.64,2.81v6.84a.23.23,0,0,1-.24.24H96.45a.23.23,0,0,1-.24-.24v-11a.23.23,0,0,1,.24-.24H98a.23.23,0,0,1,.24.24V6.6h0A3.65,3.65,0,0,1,101.47,5c2.5,0,4,1.7,4,4.32v7.2a.23.23,0,0,1-.25.24Z"/><path d="M121.27,16.8a.23.23,0,0,1-.24-.24v-1.1h0a3.52,3.52,0,0,1-3.27,1.61,3.81,3.81,0,0,1-4-2.76,9.68,9.68,0,0,1-.41-3.27,9.53,9.53,0,0,1,.41-3.24,3.81,3.81,0,0,1,4-2.76A3.51,3.51,0,0,1,121,6.62h0V.72a.23.23,0,0,1,.24-.24h1.54a.23.23,0,0,1,.24.24V16.56a.23.23,0,0,1-.24.24Zm-.5-3.36A7.47,7.47,0,0,0,121,11a7.59,7.59,0,0,0-.26-2.4,2.72,2.72,0,0,0-5.07,0,8.26,8.26,0,0,0-.26,2.4,8,8,0,0,0,.26,2.4,2.71,2.71,0,0,0,5.07,0Z"/><path d="M126.19,14A9.05,9.05,0,0,1,125.8,11a8.56,8.56,0,0,1,.37-2.9,4.83,4.83,0,0,1,9,0,10,10,0,0,1,.36,3.28.24.24,0,0,1-.26.25H128a.12.12,0,0,0-.14.14,4.3,4.3,0,0,0,.19,1.39,2.84,2.84,0,0,0,2.91,2,3.77,3.77,0,0,0,2.95-1.27.25.25,0,0,1,.36-.05l1,.89a.22.22,0,0,1,0,.34,5.62,5.62,0,0,1-4.49,2A4.45,4.45,0,0,1,126.19,14Zm7.15-3.89a.13.13,0,0,0,.15-.15,4,4,0,0,0-.17-1.29,2.84,2.84,0,0,0-5.28,0,4,4,0,0,0-.17,1.29c0,.1,0,.15.14.15Z"/><path d="M143.28,14a9.05,9.05,0,0,1-.39-2.91,8.87,8.87,0,0,1,.36-2.9,4.84,4.84,0,0,1,9,0,10,10,0,0,1,.36,3.28.24.24,0,0,1-.27.25H145.1c-.1,0-.14,0-.14.14a4.3,4.3,0,0,0,.19,1.39,2.84,2.84,0,0,0,2.9,2,3.78,3.78,0,0,0,3-1.27.25.25,0,0,1,.36-.05l1,.89a.22.22,0,0,1,0,.34,5.59,5.59,0,0,1-4.48,2A4.45,4.45,0,0,1,143.28,14Zm7.15-3.89c.1,0,.14-.05.14-.15a4,4,0,0,0-.16-1.29,2.84,2.84,0,0,0-5.28,0A3.74,3.74,0,0,0,145,9.91c0,.1,0,.15.14.15Z"/><path d="M154.61,15.34a.23.23,0,0,1,0-.34l1-1.05a.22.22,0,0,1,.33,0,5.63,5.63,0,0,0,3.56,1.32c1.68,0,2.52-.73,2.52-1.76s-.43-1.41-2.23-1.61l-1.23-.12c-2.25-.24-3.43-1.36-3.43-3.24,0-2.18,1.56-3.5,4.27-3.5a6.88,6.88,0,0,1,4.08,1.27.24.24,0,0,1,0,.34l-.82,1a.23.23,0,0,1-.33.05,6.07,6.07,0,0,0-3.1-.94c-1.44,0-2.18.65-2.18,1.59s.55,1.39,2.25,1.56l1.2.12c2.33.21,3.46,1.39,3.46,3.24,0,2.25-1.63,3.77-4.63,3.77A7.16,7.16,0,0,1,154.61,15.34Z"/><path d="M170,16.92c-2.23,0-3.09-1-3.09-3.26V7.08c0-.1,0-.14-.15-.14h-1a.23.23,0,0,1-.24-.24V5.54a.23.23,0,0,1,.24-.24h1c.1,0,.15,0,.15-.14V1.92a.23.23,0,0,1,.24-.24h1.53a.23.23,0,0,1,.24.24V5.16c0,.1,0,.14.15.14h1.82a.23.23,0,0,1,.24.24V6.7a.23.23,0,0,1-.24.24h-1.82c-.1,0-.15,0-.15.14v6.5c0,1.16.44,1.47,1.47,1.47h.5a.23.23,0,0,1,.24.24v1.39a.23.23,0,0,1-.24.24Z"/><path d="M174,16.8a.23.23,0,0,1-.24-.24v-11A.23.23,0,0,1,174,5.3h1.54a.23.23,0,0,1,.24.24V6.72h0A3.21,3.21,0,0,1,178.87,5a3.56,3.56,0,0,1,2.35.86c.12.12.15.22.05.34l-.89,1.18a.21.21,0,0,1-.33,0,3.31,3.31,0,0,0-1.78-.55c-1.75,0-2.47,1.37-2.47,3.36v6.29a.23.23,0,0,1-.24.24Z"/><path d="M190.37,16.8a.22.22,0,0,1-.24-.24V15.48h0A3.5,3.5,0,0,1,187,17.07c-2.52,0-4-1.73-4-4.35V5.54a.23.23,0,0,1,.24-.24h1.54a.23.23,0,0,1,.24.24v6.7c0,1.87.84,2.95,2.54,2.95a2.55,2.55,0,0,0,2.6-2.83V5.54a.23.23,0,0,1,.24-.24h1.53a.23.23,0,0,1,.24.24v11a.22.22,0,0,1-.24.24Z"/><path d="M195.26,8.14A4.45,4.45,0,0,1,199.8,5,4.6,4.6,0,0,1,203.73,7a.23.23,0,0,1-.07.34l-1.06.86a.21.21,0,0,1-.33,0,2.82,2.82,0,0,0-2.47-1.25,2.49,2.49,0,0,0-2.57,1.8A7.7,7.7,0,0,0,197,11a7.76,7.76,0,0,0,.27,2.35,2.49,2.49,0,0,0,2.57,1.8A2.82,2.82,0,0,0,202.27,14a.21.21,0,0,1,.33,0l1.06.87c.14.12.14.21.07.33a4.61,4.61,0,0,1-3.93,2,4.46,4.46,0,0,1-4.54-3.1A9.81,9.81,0,0,1,194.9,11,9.69,9.69,0,0,1,195.26,8.14Z"/><path d="M209.78,16.92c-2.23,0-3.1-1-3.1-3.26V7.08c0-.1,0-.14-.14-.14h-1a.23.23,0,0,1-.24-.24V5.54a.23.23,0,0,1,.24-.24h1c.1,0,.14,0,.14-.14V1.92a.23.23,0,0,1,.24-.24h1.54a.23.23,0,0,1,.24.24V5.16a.12.12,0,0,0,.14.14h1.83a.23.23,0,0,1,.24.24V6.7a.23.23,0,0,1-.24.24h-1.83a.12.12,0,0,0-.14.14v6.5c0,1.16.43,1.47,1.46,1.47h.51a.23.23,0,0,1,.24.24v1.39a.23.23,0,0,1-.24.24Z"/><path d="M220.77,16.8a.23.23,0,0,1-.24-.24V15.48h0a3.52,3.52,0,0,1-3.15,1.59c-2.52,0-4-1.73-4-4.35V5.54a.23.23,0,0,1,.24-.24h1.54a.23.23,0,0,1,.24.24v6.7c0,1.87.84,2.95,2.54,2.95a2.55,2.55,0,0,0,2.59-2.83V5.54a.23.23,0,0,1,.24-.24h1.54a.23.23,0,0,1,.24.24v11a.23.23,0,0,1-.24.24Z"/><path d="M226.24,16.8a.23.23,0,0,1-.24-.24v-11a.23.23,0,0,1,.24-.24h1.54a.23.23,0,0,1,.24.24V6.72h0A3.23,3.23,0,0,1,231.09,5a3.56,3.56,0,0,1,2.35.86c.12.12.15.22.05.34l-.89,1.18a.21.21,0,0,1-.33,0,3.31,3.31,0,0,0-1.78-.55c-1.75,0-2.47,1.37-2.47,3.36v6.29a.23.23,0,0,1-.24.24Z"/><path d="M241.75,16.8a.22.22,0,0,1-.24-.24v-1h0a3.74,3.74,0,0,1-3.4,1.52c-2.19,0-3.87-1.13-3.87-3.46s1.68-3.55,4.49-3.55h2.62c.09,0,.14-.05.14-.15V9.07c0-1.58-.62-2.25-2.76-2.25a4.44,4.44,0,0,0-2.78.81c-.12.1-.27.1-.34,0l-.65-1.11a.24.24,0,0,1,0-.33A6.38,6.38,0,0,1,238.89,5c3.27,0,4.51,1.08,4.51,3.91v7.61a.22.22,0,0,1-.24.24Zm-.29-3.72V11.81a.12.12,0,0,0-.14-.14H239c-2,0-2.85.57-2.85,1.87s.86,1.8,2.4,1.8C240.36,15.34,241.46,14.5,241.46,13.08Z"/><path d="M246,15.34a.25.25,0,0,1,0-.34L247,14a.22.22,0,0,1,.33,0,5.62,5.62,0,0,0,3.55,1.32c1.68,0,2.52-.73,2.52-1.76s-.43-1.41-2.23-1.61l-1.22-.12c-2.26-.24-3.43-1.36-3.43-3.24,0-2.18,1.56-3.5,4.27-3.5a6.88,6.88,0,0,1,4.08,1.27.24.24,0,0,1,0,.34l-.82,1a.24.24,0,0,1-.34.05,6,6,0,0,0-3.09-.94c-1.44,0-2.19.65-2.19,1.59s.56,1.39,2.26,1.56l1.2.12c2.33.21,3.46,1.39,3.46,3.24,0,2.25-1.64,3.77-4.64,3.77A7.18,7.18,0,0,1,246,15.34Z"/><path d="M263.42,21.12a.23.23,0,0,1-.24-.24V19.49a.23.23,0,0,1,.24-.24h.43c.94,0,1.44-.41,1.95-1.73l.38-1.05L262,5.54c0-.14,0-.24.19-.24h1.68a.29.29,0,0,1,.29.24l3,8.31h.05l2.9-8.31a.29.29,0,0,1,.29-.24H272c.15,0,.24.1.19.24l-4.53,12.15c-1,2.71-1.9,3.43-3.63,3.43Z"/><path d="M286.53,16.8a.23.23,0,0,1-.24-.24v-1h0a3.77,3.77,0,0,1-3.41,1.52c-2.19,0-3.86-1.13-3.86-3.46s1.67-3.55,4.48-3.55h2.62c.1,0,.14-.05.14-.15V9.07c0-1.58-.62-2.25-2.76-2.25a4.47,4.47,0,0,0-2.78.81c-.12.1-.27.1-.34,0l-.65-1.11a.25.25,0,0,1,.05-.33A6.42,6.42,0,0,1,283.68,5c3.26,0,4.51,1.08,4.51,3.91v7.61a.23.23,0,0,1-.24.24Zm-.29-3.72V11.81c0-.1,0-.14-.14-.14h-2.31c-2,0-2.85.57-2.85,1.87s.86,1.8,2.4,1.8C285.14,15.34,286.24,14.5,286.24,13.08Z"/><path d="M299,16.8a.23.23,0,0,1-.24-.24V9.84c0-1.85-.84-2.93-2.57-2.93a2.58,2.58,0,0,0-2.64,2.81v6.84a.22.22,0,0,1-.24.24h-1.53a.22.22,0,0,1-.24-.24v-11a.23.23,0,0,1,.24-.24h1.53a.23.23,0,0,1,.24.24V6.6h0A3.62,3.62,0,0,1,296.8,5c2.5,0,4,1.7,4,4.32v7.2a.23.23,0,0,1-.24.24Z"/><path d="M311.32,16.8a.23.23,0,0,1-.24-.24v-1.1h0a3.51,3.51,0,0,1-3.27,1.61,3.81,3.81,0,0,1-4-2.76,9.71,9.71,0,0,1-.4-3.27,9.56,9.56,0,0,1,.4-3.24,3.81,3.81,0,0,1,4-2.76,3.5,3.5,0,0,1,3.27,1.58h0V.72a.23.23,0,0,1,.24-.24h1.54a.23.23,0,0,1,.24.24V16.56a.23.23,0,0,1-.24.24Zm-.5-3.36a7.47,7.47,0,0,0,.26-2.4,7.59,7.59,0,0,0-.26-2.4,2.72,2.72,0,0,0-5.07,0,8.26,8.26,0,0,0-.26,2.4,8,8,0,0,0,.26,2.4,2.71,2.71,0,0,0,5.07,0Z"/><path d="M323.52,16.8a.22.22,0,0,1-.24-.24v-1h0a3.75,3.75,0,0,1-3.41,1.52c-2.18,0-3.86-1.13-3.86-3.46s1.68-3.55,4.49-3.55h2.61a.13.13,0,0,0,.15-.15V9.07c0-1.58-.63-2.25-2.76-2.25a4.5,4.5,0,0,0-2.79.81c-.12.1-.26.1-.33,0L316.7,6.5a.24.24,0,0,1,.05-.33A6.38,6.38,0,0,1,320.66,5c3.26,0,4.51,1.08,4.51,3.91v7.61a.22.22,0,0,1-.24.24Zm-.29-3.72V11.81c0-.1-.05-.14-.15-.14h-2.3c-2,0-2.86.57-2.86,1.87s.87,1.8,2.4,1.8C322.12,15.34,323.23,14.5,323.23,13.08Z"/><path d="M343.22,16.8a.23.23,0,0,1-.24-.24V9.84c0-1.85-.84-2.93-2.57-2.93a2.6,2.6,0,0,0-2.64,2.81v6.84a.22.22,0,0,1-.24.24H336a.22.22,0,0,1-.24-.24V9.84c0-1.85-.84-2.93-2.57-2.93a2.58,2.58,0,0,0-2.64,2.81v6.84a.23.23,0,0,1-.24.24h-1.54a.23.23,0,0,1-.24-.24v-11a.23.23,0,0,1,.24-.24h1.54a.23.23,0,0,1,.24.24V6.6h0a4.07,4.07,0,0,1,6.58.24h0A4.29,4.29,0,0,1,340.89,5c2.67,0,4.11,1.7,4.11,4.32v7.2a.23.23,0,0,1-.24.24Z"/><path d="M348.52,2.71a.23.23,0,0,1-.24-.24V.72a.23.23,0,0,1,.24-.24h1.64a.22.22,0,0,1,.23.24V2.47a.22.22,0,0,1-.23.24Zm.05,14.09a.23.23,0,0,1-.24-.24v-11a.23.23,0,0,1,.24-.24h1.54a.23.23,0,0,1,.24.24v11a.23.23,0,0,1-.24.24Z"/><path d="M353.49,14a8.77,8.77,0,0,1-.38-2.93,8.65,8.65,0,0,1,.38-2.9,4.87,4.87,0,0,1,9.07,0A8.37,8.37,0,0,1,363,11a8.48,8.48,0,0,1-.39,2.93,4.87,4.87,0,0,1-9.07,0Zm7.13-.58a7.56,7.56,0,0,0,.26-2.35,7.5,7.5,0,0,0-.26-2.33,2.77,2.77,0,0,0-5.19,0,7.5,7.5,0,0,0-.26,2.33,7.56,7.56,0,0,0,.26,2.35,2.77,2.77,0,0,0,5.19,0Z"/><path d="M364.91,15.34a.25.25,0,0,1,0-.34l1-1.05a.22.22,0,0,1,.33,0,5.63,5.63,0,0,0,3.56,1.32c1.68,0,2.52-.73,2.52-1.76s-.43-1.41-2.24-1.61l-1.22-.12c-2.26-.24-3.43-1.36-3.43-3.24,0-2.18,1.56-3.5,4.27-3.5a6.88,6.88,0,0,1,4.08,1.27.24.24,0,0,1,.05.34l-.82,1a.23.23,0,0,1-.33.05,6.07,6.07,0,0,0-3.1-.94c-1.44,0-2.18.65-2.18,1.59s.55,1.39,2.25,1.56l1.2.12c2.33.21,3.46,1.39,3.46,3.24,0,2.25-1.63,3.77-4.63,3.77A7.19,7.19,0,0,1,364.91,15.34Z"/><path d="M7.9,44.8a.22.22,0,0,1-.24-.24v-1.1h0a3.49,3.49,0,0,1-3.26,1.61,3.8,3.8,0,0,1-4-2.76A9.68,9.68,0,0,1,0,39,9.53,9.53,0,0,1,.41,35.8a3.8,3.8,0,0,1,4-2.76,3.48,3.48,0,0,1,3.26,1.58h0v-5.9a.23.23,0,0,1,.24-.24H9.43a.23.23,0,0,1,.24.24V44.56a.22.22,0,0,1-.24.24Zm-.51-3.36A7.41,7.41,0,0,0,7.66,39a7.53,7.53,0,0,0-.27-2.4,2.44,2.44,0,0,0-2.54-1.73,2.44,2.44,0,0,0-2.52,1.73A8.21,8.21,0,0,0,2.06,39a8,8,0,0,0,.27,2.4,2.45,2.45,0,0,0,2.52,1.75A2.46,2.46,0,0,0,7.39,41.44Z"/><path d="M12.82,42A9.05,9.05,0,0,1,12.43,39a8.87,8.87,0,0,1,.36-2.9A4.44,4.44,0,0,1,17.3,33a4.46,4.46,0,0,1,4.52,3.1,10,10,0,0,1,.36,3.28.24.24,0,0,1-.27.25H14.64c-.1,0-.14,0-.14.14a4.3,4.3,0,0,0,.19,1.39,2.83,2.83,0,0,0,2.9,2,3.74,3.74,0,0,0,2.95-1.27.25.25,0,0,1,.36-.05l1,.89a.22.22,0,0,1,0,.34,5.59,5.59,0,0,1-4.49,2A4.44,4.44,0,0,1,12.82,42ZM20,38.06c.09,0,.14-.05.14-.15a4,4,0,0,0-.17-1.29,2.58,2.58,0,0,0-2.64-1.8,2.6,2.6,0,0,0-2.64,1.8,4,4,0,0,0-.16,1.29c0,.1,0,.15.14.15Z"/><path d="M25.18,44.8a.22.22,0,0,1-.24-.24V28.72a.23.23,0,0,1,.24-.24h1.53a.23.23,0,0,1,.24.24v5.9h0A3.48,3.48,0,0,1,30.24,33a3.81,3.81,0,0,1,4,2.76A9.53,9.53,0,0,1,34.61,39a9.68,9.68,0,0,1-.41,3.27,3.81,3.81,0,0,1-4,2.76A3.49,3.49,0,0,1,27,43.46h0v1.1a.22.22,0,0,1-.24.24Zm7.1-3.36a8,8,0,0,0,.26-2.4,8.26,8.26,0,0,0-.26-2.4,2.44,2.44,0,0,0-2.52-1.73,2.44,2.44,0,0,0-2.54,1.73A7.25,7.25,0,0,0,27,39a7.14,7.14,0,0,0,.27,2.4,2.46,2.46,0,0,0,2.54,1.75A2.45,2.45,0,0,0,32.28,41.44Z"/><path d="M37.06,42A9.05,9.05,0,0,1,36.67,39a8.87,8.87,0,0,1,.36-2.9A4.44,4.44,0,0,1,41.54,33a4.46,4.46,0,0,1,4.52,3.1,10,10,0,0,1,.36,3.28.24.24,0,0,1-.27.25H38.88c-.1,0-.14,0-.14.14a4.3,4.3,0,0,0,.19,1.39,2.83,2.83,0,0,0,2.9,2,3.74,3.74,0,0,0,3-1.27.25.25,0,0,1,.36-.05l1,.89a.22.22,0,0,1,0,.34,5.59,5.59,0,0,1-4.49,2A4.44,4.44,0,0,1,37.06,42Zm7.15-3.89c.09,0,.14-.05.14-.15a4,4,0,0,0-.17-1.29,2.84,2.84,0,0,0-5.28,0,4,4,0,0,0-.16,1.29c0,.1,0,.15.14.15Z"/><path d="M56.64,44.8a.23.23,0,0,1-.24-.24V37.84c0-1.85-.84-2.93-2.57-2.93a2.58,2.58,0,0,0-2.64,2.81v6.84a.22.22,0,0,1-.24.24H49.42a.22.22,0,0,1-.24-.24v-11a.23.23,0,0,1,.24-.24H51a.23.23,0,0,1,.24.24V34.6h0A3.62,3.62,0,0,1,54.43,33c2.5,0,4,1.7,4,4.32v7.2a.23.23,0,0,1-.24.24Z"/><path d="M67.27,44.8a.23.23,0,0,1-.24-.24v-11a.23.23,0,0,1,.24-.24h1.54a.23.23,0,0,1,.24.24v1.18h0A3.21,3.21,0,0,1,72.12,33a3.56,3.56,0,0,1,2.35.86c.12.12.15.22,0,.34l-.89,1.18a.21.21,0,0,1-.33,0,3.31,3.31,0,0,0-1.78-.55c-1.75,0-2.47,1.37-2.47,3.36v6.29a.23.23,0,0,1-.24.24Z"/><path d="M75.65,42A9.05,9.05,0,0,1,75.26,39a8.87,8.87,0,0,1,.36-2.9,4.84,4.84,0,0,1,9,0A10,10,0,0,1,85,39.42a.24.24,0,0,1-.27.25H77.47a.12.12,0,0,0-.14.14,4.3,4.3,0,0,0,.19,1.39,2.84,2.84,0,0,0,2.9,2,3.78,3.78,0,0,0,3-1.27.25.25,0,0,1,.36-.05l1,.89a.22.22,0,0,1,0,.34,5.59,5.59,0,0,1-4.48,2A4.45,4.45,0,0,1,75.65,42Zm7.15-3.89c.1,0,.14-.05.14-.15a4,4,0,0,0-.16-1.29,2.84,2.84,0,0,0-5.28,0,4,4,0,0,0-.17,1.29c0,.1,0,.15.14.15Z"/><path d="M94.73,44.8a.22.22,0,0,1-.24-.24v-1h0a3.74,3.74,0,0,1-3.4,1.52c-2.19,0-3.87-1.13-3.87-3.46s1.68-3.55,4.49-3.55H94.3c.09,0,.14-.05.14-.15v-.84c0-1.58-.62-2.25-2.76-2.25a4.44,4.44,0,0,0-2.78.81c-.12.1-.27.1-.34,0l-.65-1.11a.24.24,0,0,1,0-.33A6.38,6.38,0,0,1,91.87,33c3.27,0,4.51,1.08,4.51,3.91v7.61a.22.22,0,0,1-.24.24Zm-.29-3.72V39.81a.12.12,0,0,0-.14-.14H92c-2,0-2.85.57-2.85,1.87s.86,1.8,2.4,1.8C93.34,43.34,94.44,42.5,94.44,41.08Z"/><path d="M102.5,44.92c-2,0-2.8-1-2.8-3V28.72a.23.23,0,0,1,.24-.24h1.53a.23.23,0,0,1,.24.24V41.78c0,1,.36,1.27,1.15,1.27h.46a.23.23,0,0,1,.24.24v1.39a.23.23,0,0,1-.24.24Z"/><path d="M106.1,30.71a.23.23,0,0,1-.24-.24V28.72a.23.23,0,0,1,.24-.24h1.64a.23.23,0,0,1,.24.24v1.75a.23.23,0,0,1-.24.24Zm.05,14.09a.23.23,0,0,1-.24-.24v-11a.23.23,0,0,1,.24-.24h1.54a.23.23,0,0,1,.24.24v11a.23.23,0,0,1-.24.24Z"/><path d="M111,44.8a.22.22,0,0,1-.24-.24V43.29a.35.35,0,0,1,.09-.26l6.31-7.85v0h-5.85a.23.23,0,0,1-.24-.24V33.54a.23.23,0,0,1,.24-.24h8a.23.23,0,0,1,.24.24v1.35a.35.35,0,0,1-.09.26l-6.27,7.78v0h6.12a.22.22,0,0,1,.24.24v1.34a.22.22,0,0,1-.24.24Z"/><path d="M129.31,44.8a.23.23,0,0,1-.24-.24v-1h0a3.77,3.77,0,0,1-3.41,1.52c-2.18,0-3.86-1.13-3.86-3.46s1.68-3.55,4.48-3.55h2.62c.1,0,.14-.05.14-.15v-.84c0-1.58-.62-2.25-2.76-2.25a4.47,4.47,0,0,0-2.78.81c-.12.1-.27.1-.34,0l-.64-1.11a.24.24,0,0,1,0-.33A6.42,6.42,0,0,1,126.46,33C129.72,33,131,34.12,131,37v7.61a.23.23,0,0,1-.24.24ZM129,41.08V39.81c0-.1,0-.14-.14-.14h-2.3c-2,0-2.86.57-2.86,1.87s.86,1.8,2.4,1.8C127.92,43.34,129,42.5,129,41.08Z"/><path d="M134.57,44.8a.22.22,0,0,1-.24-.24v-11a.23.23,0,0,1,.24-.24h1.53a.23.23,0,0,1,.24.24v1.18h0a3.2,3.2,0,0,1,3-1.68,3.58,3.58,0,0,1,2.35.86c.12.12.14.22,0,.34l-.89,1.18a.22.22,0,0,1-.34,0,3.28,3.28,0,0,0-1.77-.55c-1.76,0-2.48,1.37-2.48,3.36v6.29a.22.22,0,0,1-.24.24Z"/><path d="M142.7,43.34a.25.25,0,0,1,0-.34l1-1a.22.22,0,0,1,.33,0,5.63,5.63,0,0,0,3.56,1.32c1.67,0,2.52-.73,2.52-1.76s-.44-1.41-2.24-1.61l-1.22-.12c-2.26-.24-3.43-1.36-3.43-3.24,0-2.18,1.56-3.5,4.27-3.5a6.88,6.88,0,0,1,4.08,1.27.24.24,0,0,1,.05.34l-.82,1a.23.23,0,0,1-.33,0,6.07,6.07,0,0,0-3.1-.94c-1.44,0-2.19.65-2.19,1.59s.56,1.39,2.26,1.56l1.2.12c2.33.21,3.46,1.39,3.46,3.24,0,2.25-1.63,3.77-4.63,3.77A7.19,7.19,0,0,1,142.7,43.34Z"/><path d="M154.46,42a9.1,9.1,0,0,1-.38-2.91,8.87,8.87,0,0,1,.36-2.9,4.83,4.83,0,0,1,9,0,10,10,0,0,1,.36,3.28.23.23,0,0,1-.26.25h-7.27c-.1,0-.15,0-.15.14a4.3,4.3,0,0,0,.19,1.39,2.84,2.84,0,0,0,2.91,2,3.74,3.74,0,0,0,2.95-1.27.25.25,0,0,1,.36-.05l1,.89a.22.22,0,0,1,0,.34,5.59,5.59,0,0,1-4.49,2A4.45,4.45,0,0,1,154.46,42Zm7.16-3.89c.09,0,.14-.05.14-.15a4,4,0,0,0-.17-1.29,2.84,2.84,0,0,0-5.28,0,4,4,0,0,0-.17,1.29.13.13,0,0,0,.15.15Z"/><path d="M172.1,49.12a.23.23,0,0,1-.24-.24V33.54a.23.23,0,0,1,.24-.24h1.54a.23.23,0,0,1,.24.24v1.08h0A3.5,3.5,0,0,1,177.17,33a3.81,3.81,0,0,1,4,2.76,9.53,9.53,0,0,1,.41,3.24,9.68,9.68,0,0,1-.41,3.27,3.81,3.81,0,0,1-4,2.76,3.51,3.51,0,0,1-3.27-1.61h0v5.42a.23.23,0,0,1-.24.24Zm7.11-7.68a8,8,0,0,0,.26-2.4,8.26,8.26,0,0,0-.26-2.4,2.72,2.72,0,0,0-5.07,0,7.59,7.59,0,0,0-.26,2.4,7.47,7.47,0,0,0,.26,2.4,2.71,2.71,0,0,0,5.07,0Z"/><path d="M184,42A9.1,9.1,0,0,1,183.6,39a8.87,8.87,0,0,1,.36-2.9,4.83,4.83,0,0,1,9,0,10,10,0,0,1,.36,3.28.23.23,0,0,1-.26.25h-7.27c-.1,0-.15,0-.15.14a4.3,4.3,0,0,0,.19,1.39,2.84,2.84,0,0,0,2.91,2,3.74,3.74,0,0,0,3-1.27.25.25,0,0,1,.36-.05l1,.89a.22.22,0,0,1,0,.34,5.59,5.59,0,0,1-4.49,2A4.45,4.45,0,0,1,184,42Zm7.15-3.89a.13.13,0,0,0,.15-.15,4,4,0,0,0-.17-1.29,2.84,2.84,0,0,0-5.28,0,4,4,0,0,0-.17,1.29.13.13,0,0,0,.15.15Z"/><path d="M196.34,44.8a.23.23,0,0,1-.24-.24v-11a.23.23,0,0,1,.24-.24h1.54a.23.23,0,0,1,.24.24v1.18h0A3.21,3.21,0,0,1,201.19,33a3.56,3.56,0,0,1,2.35.86c.12.12.15.22.05.34l-.89,1.18a.21.21,0,0,1-.33,0,3.31,3.31,0,0,0-1.78-.55c-1.75,0-2.47,1.37-2.47,3.36v6.29a.23.23,0,0,1-.24.24Z"/><path d="M205.65,30.71a.23.23,0,0,1-.24-.24V28.72a.23.23,0,0,1,.24-.24h1.64a.23.23,0,0,1,.24.24v1.75a.23.23,0,0,1-.24.24Zm0,14.09a.23.23,0,0,1-.24-.24v-11a.23.23,0,0,1,.24-.24h1.54a.23.23,0,0,1,.24.24v11a.23.23,0,0,1-.24.24Z"/><path d="M210.62,42a8.77,8.77,0,0,1-.38-2.93,8.65,8.65,0,0,1,.38-2.9,4.87,4.87,0,0,1,9.07,0,8.37,8.37,0,0,1,.39,2.9,8.48,8.48,0,0,1-.39,2.93,4.87,4.87,0,0,1-9.07,0Zm7.13-.58A7.56,7.56,0,0,0,218,39a7.5,7.5,0,0,0-.26-2.33,2.76,2.76,0,0,0-5.18,0A7.16,7.16,0,0,0,212.3,39a7.22,7.22,0,0,0,.27,2.35,2.76,2.76,0,0,0,5.18,0Zm-3.46-10c-.14,0-.21-.09-.14-.24l1.82-3a.43.43,0,0,1,.41-.24H218a.14.14,0,0,1,.12.24l-2.21,3a.48.48,0,0,1-.46.24Z"/><path d="M230,44.8a.22.22,0,0,1-.24-.24v-1.1h0a3.49,3.49,0,0,1-3.26,1.61,3.81,3.81,0,0,1-4-2.76,9.68,9.68,0,0,1-.41-3.27,9.53,9.53,0,0,1,.41-3.24,3.81,3.81,0,0,1,4-2.76,3.48,3.48,0,0,1,3.26,1.58h0v-5.9a.23.23,0,0,1,.24-.24h1.53a.23.23,0,0,1,.24.24V44.56a.22.22,0,0,1-.24.24Zm-.51-3.36a7.14,7.14,0,0,0,.27-2.4,7.25,7.25,0,0,0-.27-2.4,2.71,2.71,0,0,0-5.06,0,8.26,8.26,0,0,0-.26,2.4,8,8,0,0,0,.26,2.4,2.7,2.7,0,0,0,5.06,0Z"/><path d="M235.46,30.71a.23.23,0,0,1-.24-.24V28.72a.23.23,0,0,1,.24-.24h1.63a.23.23,0,0,1,.24.24v1.75a.22.22,0,0,1-.24.24Zm0,14.09a.23.23,0,0,1-.24-.24v-11a.23.23,0,0,1,.24-.24H237a.23.23,0,0,1,.25.24v11a.23.23,0,0,1-.25.24Z"/><path d="M240.41,36.14a4.43,4.43,0,0,1,4.53-3.1A4.62,4.62,0,0,1,248.88,35a.23.23,0,0,1-.07.34l-1.06.86a.22.22,0,0,1-.34,0,2.82,2.82,0,0,0-2.47-1.25,2.5,2.5,0,0,0-2.57,1.8,7.75,7.75,0,0,0-.26,2.33,7.81,7.81,0,0,0,.26,2.35,2.5,2.5,0,0,0,2.57,1.8A2.82,2.82,0,0,0,247.41,42a.22.22,0,0,1,.34,0l1.06.87c.14.12.14.21.07.33a4.62,4.62,0,0,1-3.94,2,4.44,4.44,0,0,1-4.53-3.1A9.76,9.76,0,0,1,240,39,9.63,9.63,0,0,1,240.41,36.14Z"/><path d="M258.26,44.8a.23.23,0,0,1-.24-.24v-1h0a3.77,3.77,0,0,1-3.41,1.52c-2.19,0-3.87-1.13-3.87-3.46s1.68-3.55,4.49-3.55h2.62c.09,0,.14-.05.14-.15v-.84c0-1.58-.62-2.25-2.76-2.25a4.47,4.47,0,0,0-2.78.81c-.12.1-.27.1-.34,0l-.65-1.11a.25.25,0,0,1,.05-.33A6.42,6.42,0,0,1,255.41,33c3.26,0,4.51,1.08,4.51,3.91v7.61a.23.23,0,0,1-.24.24ZM258,41.08V39.81a.12.12,0,0,0-.14-.14h-2.31c-2,0-2.85.57-2.85,1.87s.86,1.8,2.4,1.8C256.87,43.34,258,42.5,258,41.08Z"/><path d="M278,44.8a.22.22,0,0,1-.24-.24V37.84c0-1.85-.84-2.93-2.57-2.93a2.59,2.59,0,0,0-2.64,2.81v6.84a.23.23,0,0,1-.24.24h-1.54a.23.23,0,0,1-.24-.24V37.84c0-1.85-.84-2.93-2.57-2.93a2.58,2.58,0,0,0-2.64,2.81v6.84a.22.22,0,0,1-.24.24h-1.53a.22.22,0,0,1-.24-.24v-11a.23.23,0,0,1,.24-.24h1.53a.23.23,0,0,1,.24.24V34.6h0a4.06,4.06,0,0,1,6.57.24h0a4.29,4.29,0,0,1,3.72-1.8c2.66,0,4.1,1.7,4.1,4.32v7.2a.22.22,0,0,1-.24.24Z"/><path d="M282.76,42a9.1,9.1,0,0,1-.38-2.91,8.87,8.87,0,0,1,.36-2.9,4.83,4.83,0,0,1,9,0,9.89,9.89,0,0,1,.37,3.28.24.24,0,0,1-.27.25h-7.27c-.1,0-.15,0-.15.14a4.27,4.27,0,0,0,.2,1.39,2.83,2.83,0,0,0,2.9,2,3.74,3.74,0,0,0,2.95-1.27.25.25,0,0,1,.36-.05l1,.89a.22.22,0,0,1,0,.34,5.59,5.59,0,0,1-4.49,2A4.45,4.45,0,0,1,282.76,42Zm7.16-3.89c.09,0,.14-.05.14-.15a4,4,0,0,0-.17-1.29,2.84,2.84,0,0,0-5.28,0,4,4,0,0,0-.17,1.29.13.13,0,0,0,.15.15Z"/><path d="M302.35,44.8a.22.22,0,0,1-.24-.24V37.84c0-1.85-.84-2.93-2.57-2.93a2.58,2.58,0,0,0-2.64,2.81v6.84a.23.23,0,0,1-.24.24h-1.54a.23.23,0,0,1-.24-.24v-11a.23.23,0,0,1,.24-.24h1.54a.23.23,0,0,1,.24.24V34.6h0A3.65,3.65,0,0,1,300.14,33c2.5,0,4,1.7,4,4.32v7.2a.23.23,0,0,1-.25.24Z"/><path d="M310.8,44.92c-2.24,0-3.1-1-3.1-3.26V35.08a.12.12,0,0,0-.14-.14h-1a.23.23,0,0,1-.24-.24V33.54a.23.23,0,0,1,.24-.24h1a.12.12,0,0,0,.14-.14V29.92a.23.23,0,0,1,.24-.24h1.54a.23.23,0,0,1,.24.24v3.24c0,.1,0,.14.14.14h1.82a.23.23,0,0,1,.24.24V34.7a.23.23,0,0,1-.24.24h-1.82c-.1,0-.14,0-.14.14v6.5c0,1.16.43,1.47,1.46,1.47h.5a.23.23,0,0,1,.24.24v1.39a.22.22,0,0,1-.24.24Z"/><path d="M314.25,42a9.1,9.1,0,0,1-.38-2.91,8.87,8.87,0,0,1,.36-2.9,4.83,4.83,0,0,1,9,0,10,10,0,0,1,.36,3.28.23.23,0,0,1-.26.25h-7.27c-.1,0-.15,0-.15.14a4.3,4.3,0,0,0,.19,1.39,2.84,2.84,0,0,0,2.91,2,3.74,3.74,0,0,0,3-1.27.25.25,0,0,1,.36-.05l1,.89a.22.22,0,0,1,0,.34,5.59,5.59,0,0,1-4.49,2A4.45,4.45,0,0,1,314.25,42Zm7.15-3.89a.13.13,0,0,0,.15-.15,4,4,0,0,0-.17-1.29,2.84,2.84,0,0,0-5.28,0,4,4,0,0,0-.17,1.29.13.13,0,0,0,.15.15Z"/><path d="M331.89,49.12a.23.23,0,0,1-.24-.24V33.54a.23.23,0,0,1,.24-.24h1.54a.23.23,0,0,1,.24.24v1.08h0A3.5,3.5,0,0,1,337,33a3.81,3.81,0,0,1,4,2.76,9.56,9.56,0,0,1,.4,3.24,9.71,9.71,0,0,1-.4,3.27,3.81,3.81,0,0,1-4,2.76,3.51,3.51,0,0,1-3.27-1.61h0v5.42a.23.23,0,0,1-.24.24ZM339,41.44a8,8,0,0,0,.26-2.4,8.26,8.26,0,0,0-.26-2.4,2.72,2.72,0,0,0-5.07,0,7.59,7.59,0,0,0-.26,2.4,7.47,7.47,0,0,0,.26,2.4,2.71,2.71,0,0,0,5.07,0Z"/><path d="M351,44.8a.23.23,0,0,1-.24-.24v-1h0a3.77,3.77,0,0,1-3.41,1.52c-2.18,0-3.86-1.13-3.86-3.46s1.68-3.55,4.49-3.55h2.61a.13.13,0,0,0,.15-.15v-.84c0-1.58-.63-2.25-2.76-2.25a4.48,4.48,0,0,0-2.79.81c-.12.1-.26.1-.33,0l-.65-1.11a.24.24,0,0,1,0-.33A6.36,6.36,0,0,1,348.19,33c3.26,0,4.51,1.08,4.51,3.91v7.61a.23.23,0,0,1-.24.24Zm-.28-3.72V39.81c0-.1-.05-.14-.15-.14h-2.3c-2,0-2.86.57-2.86,1.87s.87,1.8,2.4,1.8C349.65,43.34,350.76,42.5,350.76,41.08Z"/><path d="M356.3,44.8a.23.23,0,0,1-.24-.24v-11a.23.23,0,0,1,.24-.24h1.54a.23.23,0,0,1,.24.24v1.18h0a3.2,3.2,0,0,1,3-1.68,3.58,3.58,0,0,1,2.35.86c.12.12.14.22.05.34l-.89,1.18a.22.22,0,0,1-.34,0,3.25,3.25,0,0,0-1.77-.55c-1.75,0-2.47,1.37-2.47,3.36v6.29a.23.23,0,0,1-.24.24Z"/><path d="M371.8,44.8a.23.23,0,0,1-.24-.24v-1h0a3.77,3.77,0,0,1-3.41,1.52c-2.18,0-3.86-1.13-3.86-3.46s1.68-3.55,4.49-3.55h2.61a.13.13,0,0,0,.15-.15v-.84c0-1.58-.63-2.25-2.76-2.25a4.48,4.48,0,0,0-2.79.81c-.12.1-.26.1-.33,0L365,34.5a.24.24,0,0,1,.05-.33A6.36,6.36,0,0,1,369,33c3.26,0,4.51,1.08,4.51,3.91v7.61a.23.23,0,0,1-.24.24Zm-.28-3.72V39.81c0-.1,0-.14-.15-.14h-2.3c-2,0-2.86.57-2.86,1.87s.87,1.8,2.4,1.8C370.41,43.34,371.52,42.5,371.52,41.08Z"/><path d="M.38,70A9.1,9.1,0,0,1,0,67a8.87,8.87,0,0,1,.36-2.9A4.44,4.44,0,0,1,4.87,61a4.44,4.44,0,0,1,4.51,3.1,9.62,9.62,0,0,1,.37,3.28.24.24,0,0,1-.27.25H2.21c-.1,0-.15,0-.15.14a4.27,4.27,0,0,0,.2,1.39,2.83,2.83,0,0,0,2.9,2,3.74,3.74,0,0,0,2.95-1.27.25.25,0,0,1,.36,0l1,.89a.22.22,0,0,1,0,.34,5.59,5.59,0,0,1-4.49,2A4.45,4.45,0,0,1,.38,70Zm7.16-3.89c.09,0,.14,0,.14-.15a4,4,0,0,0-.17-1.29,2.58,2.58,0,0,0-2.64-1.8,2.6,2.6,0,0,0-2.64,1.8,4,4,0,0,0-.17,1.29.13.13,0,0,0,.15.15Z"/><path d="M11.71,71.34a.25.25,0,0,1,0-.34l1-1A.22.22,0,0,1,13,70a5.62,5.62,0,0,0,3.55,1.32c1.68,0,2.52-.73,2.52-1.76s-.43-1.41-2.23-1.61l-1.22-.11c-2.26-.25-3.43-1.37-3.43-3.25,0-2.18,1.56-3.5,4.27-3.5a6.88,6.88,0,0,1,4.08,1.27.24.24,0,0,1,.05.34l-.82,1a.24.24,0,0,1-.34,0,6,6,0,0,0-3.09-.94c-1.44,0-2.19.65-2.19,1.59s.56,1.39,2.26,1.56l1.2.12c2.33.21,3.46,1.39,3.46,3.24,0,2.25-1.64,3.77-4.64,3.77A7.18,7.18,0,0,1,11.71,71.34Z"/><path d="M27.12,72.92c-2.23,0-3.1-1-3.1-3.26V63.08c0-.1,0-.14-.14-.14h-1a.23.23,0,0,1-.24-.24V61.54a.23.23,0,0,1,.24-.24h1c.1,0,.14,0,.14-.14V57.92a.23.23,0,0,1,.24-.24H25.8a.23.23,0,0,1,.24.24v3.24a.12.12,0,0,0,.14.14H28a.23.23,0,0,1,.24.24V62.7a.23.23,0,0,1-.24.24H26.18a.12.12,0,0,0-.14.14v6.5c0,1.16.43,1.47,1.46,1.47H28a.23.23,0,0,1,.24.24v1.39a.23.23,0,0,1-.24.24Z"/><path d="M37.85,72.8a.22.22,0,0,1-.24-.24v-1h0a3.74,3.74,0,0,1-3.4,1.52c-2.19,0-3.87-1.13-3.87-3.46S32,66.06,34.8,66.06h2.62c.09,0,.14,0,.14-.15v-.84c0-1.58-.62-2.25-2.76-2.25a4.44,4.44,0,0,0-2.78.81c-.12.1-.27.1-.34,0L31,62.5a.24.24,0,0,1,0-.33A6.38,6.38,0,0,1,35,61c3.27,0,4.51,1.08,4.51,3.91v7.61a.22.22,0,0,1-.24.24Zm-.29-3.72V67.81a.12.12,0,0,0-.14-.14H35.11c-2,0-2.85.57-2.85,1.87s.86,1.8,2.4,1.8C36.46,71.34,37.56,70.5,37.56,69.08Z"/><path d="M43.1,72.8a.23.23,0,0,1-.24-.24V56.72a.23.23,0,0,1,.24-.24h1.54a.23.23,0,0,1,.24.24v5.9h0A3.51,3.51,0,0,1,48.17,61a3.81,3.81,0,0,1,4,2.76A9.57,9.57,0,0,1,52.54,67a9.68,9.68,0,0,1-.41,3.27,3.81,3.81,0,0,1-4,2.76,3.52,3.52,0,0,1-3.27-1.61h0v1.1a.23.23,0,0,1-.24.24Zm7.11-3.36a8,8,0,0,0,.26-2.4,8.26,8.26,0,0,0-.26-2.4,2.72,2.72,0,0,0-5.07,0,7.59,7.59,0,0,0-.26,2.4,7.47,7.47,0,0,0,.26,2.4,2.71,2.71,0,0,0,5.07,0Z"/><path d="M58.06,72.92c-2,0-2.81-1-2.81-3V56.72a.23.23,0,0,1,.24-.24H57a.23.23,0,0,1,.24.24V69.78c0,1,.36,1.27,1.16,1.27h.45a.23.23,0,0,1,.24.24v1.39a.22.22,0,0,1-.24.24Z"/><path d="M61.15,70A9.1,9.1,0,0,1,60.77,67a8.87,8.87,0,0,1,.36-2.9,4.83,4.83,0,0,1,9,0,10,10,0,0,1,.36,3.28.23.23,0,0,1-.26.25H63c-.1,0-.15,0-.15.14A4.3,4.3,0,0,0,63,69.2a2.84,2.84,0,0,0,2.91,2,3.74,3.74,0,0,0,2.95-1.27.25.25,0,0,1,.36,0l1,.89a.22.22,0,0,1,0,.34,5.59,5.59,0,0,1-4.49,2A4.45,4.45,0,0,1,61.15,70Zm7.15-3.89a.13.13,0,0,0,.15-.15,4,4,0,0,0-.17-1.29,2.84,2.84,0,0,0-5.28,0,4,4,0,0,0-.17,1.29.13.13,0,0,0,.15.15Z"/><path d="M72.94,64.14A4.43,4.43,0,0,1,77.47,61,4.62,4.62,0,0,1,81.41,63a.23.23,0,0,1-.07.34l-1.06.86a.22.22,0,0,1-.34,0,2.82,2.82,0,0,0-2.47-1.25,2.5,2.5,0,0,0-2.57,1.8,10.66,10.66,0,0,0,0,4.68,2.5,2.5,0,0,0,2.57,1.8A2.82,2.82,0,0,0,79.94,70a.22.22,0,0,1,.34,0l1.06.87c.14.12.14.21.07.33a4.62,4.62,0,0,1-3.94,1.95A4.44,4.44,0,0,1,72.94,70,9.81,9.81,0,0,1,72.58,67,9.69,9.69,0,0,1,72.94,64.14Z"/><path d="M83.52,70A9.05,9.05,0,0,1,83.13,67a8.56,8.56,0,0,1,.37-2.9,4.83,4.83,0,0,1,9,0,10,10,0,0,1,.36,3.28.24.24,0,0,1-.26.25H85.34a.12.12,0,0,0-.14.14,4.3,4.3,0,0,0,.19,1.39,2.84,2.84,0,0,0,2.91,2,3.77,3.77,0,0,0,3-1.27.25.25,0,0,1,.36,0l1,.89a.22.22,0,0,1,0,.34,5.62,5.62,0,0,1-4.49,2A4.45,4.45,0,0,1,83.52,70Zm7.15-3.89a.13.13,0,0,0,.15-.15,4,4,0,0,0-.17-1.29,2.84,2.84,0,0,0-5.28,0,4,4,0,0,0-.17,1.29c0,.1,0,.15.14.15Z"/><path d="M95.88,72.8a.22.22,0,0,1-.24-.24v-11a.23.23,0,0,1,.24-.24h1.53a.23.23,0,0,1,.24.24v1.18h0a3.2,3.2,0,0,1,3-1.68,3.58,3.58,0,0,1,2.35.86c.12.12.14.22,0,.34l-.89,1.18a.22.22,0,0,1-.34,0,3.25,3.25,0,0,0-1.77-.55c-1.75,0-2.48,1.37-2.48,3.36v6.29a.22.22,0,0,1-.24.24Z"/><path d="M117.48,77.12a.22.22,0,0,1-.24-.24V71.46h0A3.49,3.49,0,0,1,114,73.07a3.81,3.81,0,0,1-4-2.76,9.68,9.68,0,0,1-.41-3.27A9.57,9.57,0,0,1,110,63.8,3.81,3.81,0,0,1,114,61a3.48,3.48,0,0,1,3.26,1.58h0V61.54a.23.23,0,0,1,.24-.24H119a.23.23,0,0,1,.24.24V76.88a.22.22,0,0,1-.24.24ZM117,69.44a7.14,7.14,0,0,0,.27-2.4,7.25,7.25,0,0,0-.27-2.4,2.71,2.71,0,0,0-5.06,0,8.26,8.26,0,0,0-.26,2.4,8,8,0,0,0,.26,2.4,2.7,2.7,0,0,0,5.06,0Z"/><path d="M129.93,72.8a.23.23,0,0,1-.24-.24V71.48h0a3.51,3.51,0,0,1-3.14,1.59c-2.52,0-4-1.73-4-4.35V61.54a.23.23,0,0,1,.24-.24h1.54a.23.23,0,0,1,.24.24v6.7c0,1.87.84,3,2.54,3a2.55,2.55,0,0,0,2.59-2.83V61.54a.23.23,0,0,1,.24-.24h1.54a.23.23,0,0,1,.24.24v11a.22.22,0,0,1-.24.24Z"/><path d="M134.85,70a9.1,9.1,0,0,1-.38-2.91,8.87,8.87,0,0,1,.36-2.9,4.83,4.83,0,0,1,9,0,10,10,0,0,1,.36,3.28.23.23,0,0,1-.26.25h-7.27c-.1,0-.15,0-.15.14a4.27,4.27,0,0,0,.2,1.39,2.83,2.83,0,0,0,2.9,2,3.74,3.74,0,0,0,3-1.27.25.25,0,0,1,.36,0l1,.89a.22.22,0,0,1,0,.34,5.59,5.59,0,0,1-4.49,2A4.45,4.45,0,0,1,134.85,70ZM142,66.06c.09,0,.14,0,.14-.15a4,4,0,0,0-.17-1.29,2.84,2.84,0,0,0-5.28,0,4,4,0,0,0-.17,1.29.13.13,0,0,0,.15.15Z"/><path d="M151.94,70a9.1,9.1,0,0,1-.38-2.91,8.87,8.87,0,0,1,.36-2.9,4.83,4.83,0,0,1,9,0,10,10,0,0,1,.36,3.28.23.23,0,0,1-.26.25h-7.27c-.1,0-.15,0-.15.14a4.3,4.3,0,0,0,.19,1.39,2.84,2.84,0,0,0,2.91,2,3.74,3.74,0,0,0,2.95-1.27.25.25,0,0,1,.36,0l1,.89a.22.22,0,0,1,0,.34,5.59,5.59,0,0,1-4.49,2A4.45,4.45,0,0,1,151.94,70Zm7.15-3.89a.13.13,0,0,0,.15-.15,4,4,0,0,0-.17-1.29,2.84,2.84,0,0,0-5.28,0,4,4,0,0,0-.17,1.29.13.13,0,0,0,.15.15Z"/><path d="M163.27,71.34a.23.23,0,0,1,0-.34l1-1a.23.23,0,0,1,.34,0,5.6,5.6,0,0,0,3.55,1.32c1.68,0,2.52-.73,2.52-1.76s-.43-1.41-2.23-1.61l-1.22-.11c-2.26-.25-3.44-1.37-3.44-3.25,0-2.18,1.56-3.5,4.28-3.5a6.88,6.88,0,0,1,4.08,1.27.23.23,0,0,1,0,.34l-.81,1a.24.24,0,0,1-.34,0,6,6,0,0,0-3.09-.94c-1.44,0-2.19.65-2.19,1.59s.55,1.39,2.26,1.56l1.2.12c2.33.21,3.45,1.39,3.45,3.24,0,2.25-1.63,3.77-4.63,3.77A7.18,7.18,0,0,1,163.27,71.34Z"/><path d="M179.83,71.34a.23.23,0,0,1,0-.34l1-1a.23.23,0,0,1,.34,0,5.6,5.6,0,0,0,3.55,1.32c1.68,0,2.52-.73,2.52-1.76s-.43-1.41-2.23-1.61l-1.23-.11c-2.25-.25-3.43-1.37-3.43-3.25,0-2.18,1.56-3.5,4.28-3.5a6.88,6.88,0,0,1,4.08,1.27.23.23,0,0,1,0,.34l-.81,1a.24.24,0,0,1-.34,0,6,6,0,0,0-3.09-.94c-1.45,0-2.19.65-2.19,1.59s.55,1.39,2.26,1.56l1.2.12c2.32.21,3.45,1.39,3.45,3.24,0,2.25-1.63,3.77-4.63,3.77A7.16,7.16,0,0,1,179.83,71.34Z"/><path d="M191.59,70A9.05,9.05,0,0,1,191.2,67a8.87,8.87,0,0,1,.36-2.9,4.84,4.84,0,0,1,9,0,10,10,0,0,1,.36,3.28.24.24,0,0,1-.26.25h-7.28a.12.12,0,0,0-.14.14,4.3,4.3,0,0,0,.19,1.39,2.84,2.84,0,0,0,2.91,2,3.77,3.77,0,0,0,2.95-1.27.25.25,0,0,1,.36,0l1,.89a.22.22,0,0,1,0,.34,5.62,5.62,0,0,1-4.49,2A4.45,4.45,0,0,1,191.59,70Zm7.15-3.89c.1,0,.14,0,.14-.15a4,4,0,0,0-.16-1.29,2.84,2.84,0,0,0-5.28,0,4,4,0,0,0-.17,1.29c0,.1,0,.15.14.15Z"/><path d="M203.47,75.68a.21.21,0,0,1,0-.33l1-1a.23.23,0,0,1,.36,0,3.83,3.83,0,0,0,2.71,1.15c1.9,0,2.9-1,2.9-3.09V71.07h0a3.3,3.3,0,0,1-3.19,1.59,3.78,3.78,0,0,1-3.87-2.79,8.92,8.92,0,0,1-.38-3,9,9,0,0,1,.38-3A3.77,3.77,0,0,1,207.24,61a3.3,3.3,0,0,1,3.19,1.58h0V61.54a.23.23,0,0,1,.24-.24h1.54a.23.23,0,0,1,.24.24V72.3c0,3.26-1.78,5.09-5,5.09A5.18,5.18,0,0,1,203.47,75.68Zm6.72-6.6a9.69,9.69,0,0,0,0-4.46,2.59,2.59,0,0,0-4.87,0,7.22,7.22,0,0,0-.29,2.23,7.13,7.13,0,0,0,.29,2.23,2.34,2.34,0,0,0,2.42,1.73A2.38,2.38,0,0,0,210.19,69.08Z"/><path d="M223.15,72.8a.23.23,0,0,1-.24-.24V71.48h0a3.52,3.52,0,0,1-3.15,1.59c-2.52,0-4-1.73-4-4.35V61.54a.23.23,0,0,1,.24-.24h1.53a.23.23,0,0,1,.24.24v6.7c0,1.87.84,3,2.55,3a2.55,2.55,0,0,0,2.59-2.83V61.54a.23.23,0,0,1,.24-.24h1.54a.23.23,0,0,1,.24.24v11a.23.23,0,0,1-.24.24Z"/><path d="M228.62,72.8a.23.23,0,0,1-.24-.24v-11a.23.23,0,0,1,.24-.24h1.54a.23.23,0,0,1,.24.24v1.18h0A3.2,3.2,0,0,1,233.47,61a3.56,3.56,0,0,1,2.35.86c.12.12.14.22.05.34L235,63.42a.21.21,0,0,1-.33,0,3.31,3.31,0,0,0-1.78-.55c-1.75,0-2.47,1.37-2.47,3.36v6.29a.23.23,0,0,1-.24.24Z"/><path d="M237,70a8.48,8.48,0,0,1-.39-2.93,8.37,8.37,0,0,1,.39-2.9,4.87,4.87,0,0,1,9.07,0,8.65,8.65,0,0,1,.38,2.9,8.77,8.77,0,0,1-.38,2.93A4.87,4.87,0,0,1,237,70Zm7.13-.58a7.6,7.6,0,0,0,.26-2.35,7.5,7.5,0,0,0-.26-2.33,2.77,2.77,0,0,0-5.19,0,7.5,7.5,0,0,0-.26,2.33,7.6,7.6,0,0,0,.26,2.35,2.77,2.77,0,0,0,5.19,0Z"/></g></g></svg>