<svg xmlns="http://www.w3.org/2000/svg" viewBox="0 0 622.39 75.36"><title>9a</title><g id="Capa_2" data-name="Capa 2"><g id="respuestas_contorno" data-name="respuestas contorno"><path d="M9.35,15.4c-.15,0-.22-.06-.28-.22l-3-6.12H2.77c-.09,0-.13,0-.13.14v6a.21.21,0,0,1-.22.22H.9a.21.21,0,0,1-.22-.22V.66A.21.21,0,0,1,.9.44H6.32C9.11.44,11,2.16,11,4.75A4.06,4.06,0,0,1,8.05,8.82l3.19,6.32c.09.13,0,.26-.13.26ZM9,4.75C9,3.19,8,2.27,6.27,2.27H2.77c-.09,0-.13,0-.13.13V7.11a.12.12,0,0,0,.13.13h3.5C8,7.24,9,6.31,9,4.75Z"/><path d="M12.83,12.78a8.2,8.2,0,0,1-.36-2.66,8.17,8.17,0,0,1,.33-2.66,4.08,4.08,0,0,1,4.14-2.84,4.08,4.08,0,0,1,4.14,2.84,9.18,9.18,0,0,1,.33,3,.21.21,0,0,1-.24.22H14.5c-.09,0-.13.05-.13.14a3.93,3.93,0,0,0,.17,1.27,2.62,2.62,0,0,0,2.67,1.83,3.43,3.43,0,0,0,2.7-1.17.22.22,0,0,1,.33,0l.9.81a.21.21,0,0,1,0,.31,5.13,5.13,0,0,1-4.12,1.8A4.07,4.07,0,0,1,12.83,12.78Zm6.55-3.56a.12.12,0,0,0,.13-.13,3.71,3.71,0,0,0-.15-1.19,2.37,2.37,0,0,0-2.42-1.65A2.37,2.37,0,0,0,14.52,7.9a3.71,3.71,0,0,0-.15,1.19.12.12,0,0,0,.13.13Z"/><path d="M29.88,15.4a.21.21,0,0,1-.22-.22v-.92h0a3.47,3.47,0,0,1-3.13,1.38c-2,0-3.54-1-3.54-3.16s1.54-3.26,4.11-3.26h2.4a.12.12,0,0,0,.13-.13V8.32c0-1.46-.57-2.07-2.53-2.07A4.09,4.09,0,0,0,24.53,7a.2.2,0,0,1-.31,0l-.59-1a.23.23,0,0,1,0-.31,5.9,5.9,0,0,1,3.59-1c3,0,4.14,1,4.14,3.59v7a.21.21,0,0,1-.23.22ZM29.61,12V10.83c0-.09,0-.14-.13-.14H27.37c-1.83,0-2.62.53-2.62,1.72s.79,1.65,2.2,1.65C28.6,14.06,29.61,13.29,29.61,12Z"/><path d="M36.56,15.51c-1.84,0-2.57-.88-2.57-2.77V.66a.21.21,0,0,1,.22-.22h1.41a.21.21,0,0,1,.22.22v12c0,.88.33,1.17,1,1.17h.42a.2.2,0,0,1,.22.22v1.27a.21.21,0,0,1-.22.22Z"/><path d="M39.42,2.49a.21.21,0,0,1-.22-.22V.66a.21.21,0,0,1,.22-.22h1.5a.21.21,0,0,1,.22.22V2.27a.21.21,0,0,1-.22.22Zm0,12.91a.2.2,0,0,1-.22-.22V5.08a.2.2,0,0,1,.22-.22h1.41a.21.21,0,0,1,.22.22v10.1a.21.21,0,0,1-.22.22Z"/><path d="M43.45,15.4a.21.21,0,0,1-.22-.22V14a.34.34,0,0,1,.09-.25L49.1,6.58v0H43.74a.21.21,0,0,1-.23-.22V5.08a.21.21,0,0,1,.23-.22h7.34a.2.2,0,0,1,.22.22V6.31a.38.38,0,0,1-.08.25l-5.75,7.13v0h5.61a.2.2,0,0,1,.22.22v1.23a.2.2,0,0,1-.22.22Z"/><path d="M59.82,15.4a.21.21,0,0,1-.22-.22v-.92h0a3.47,3.47,0,0,1-3.13,1.38c-2,0-3.54-1-3.54-3.16S54.45,9.22,57,9.22h2.4a.12.12,0,0,0,.13-.13V8.32c0-1.46-.57-2.07-2.53-2.07A4.09,4.09,0,0,0,54.47,7a.2.2,0,0,1-.31,0l-.59-1a.23.23,0,0,1,0-.31,5.92,5.92,0,0,1,3.59-1c3,0,4.14,1,4.14,3.59v7a.21.21,0,0,1-.22.22ZM59.55,12V10.83c0-.09,0-.14-.13-.14H57.31c-1.83,0-2.62.53-2.62,1.72s.79,1.65,2.2,1.65C58.54,14.06,59.55,13.29,59.55,12Z"/><path d="M64.19,15.4a.21.21,0,0,1-.22-.22V5.08a.21.21,0,0,1,.22-.22H65.6a.2.2,0,0,1,.22.22V6.16h0a3,3,0,0,1,2.8-1.54,3.26,3.26,0,0,1,2.16.79c.11.11.13.2,0,.31L70,6.8a.2.2,0,0,1-.31,0,3,3,0,0,0-1.63-.5c-1.61,0-2.27,1.25-2.27,3.08v5.76a.2.2,0,0,1-.22.22Z"/><path d="M82.9,15.4a.21.21,0,0,1-.23-.22v-.92h0a3.45,3.45,0,0,1-3.12,1.38c-2,0-3.54-1-3.54-3.16s1.54-3.26,4.11-3.26h2.4a.12.12,0,0,0,.13-.13V8.32c0-1.46-.57-2.07-2.53-2.07A4.09,4.09,0,0,0,77.55,7a.2.2,0,0,1-.31,0l-.59-1a.23.23,0,0,1,0-.31,5.88,5.88,0,0,1,3.59-1c3,0,4.13,1,4.13,3.59v7a.2.2,0,0,1-.22.22ZM82.63,12V10.83c0-.09,0-.14-.13-.14H80.39c-1.83,0-2.62.53-2.62,1.72s.79,1.65,2.2,1.65C81.62,14.06,82.63,13.29,82.63,12Z"/><path d="M93.9,15.4a.21.21,0,0,1-.23-.22V9c0-1.69-.76-2.68-2.35-2.68A2.36,2.36,0,0,0,88.9,8.91v6.27a.21.21,0,0,1-.22.22H87.27a.21.21,0,0,1-.22-.22V5.08a.21.21,0,0,1,.22-.22h1.41a.21.21,0,0,1,.22.22v1h0a3.35,3.35,0,0,1,3-1.43c2.29,0,3.65,1.56,3.65,4v6.6a.2.2,0,0,1-.22.22Z"/><path d="M104.52,15.4a.21.21,0,0,1-.22-.22v-.92h0a3.47,3.47,0,0,1-3.13,1.38c-2,0-3.54-1-3.54-3.16s1.54-3.26,4.12-3.26h2.39a.12.12,0,0,0,.14-.13V8.32c0-1.46-.58-2.07-2.53-2.07A4.13,4.13,0,0,0,99.17,7c-.11.08-.24.08-.3,0l-.6-1a.24.24,0,0,1,0-.31,5.87,5.87,0,0,1,3.58-1c3,0,4.14,1,4.14,3.59v7a.21.21,0,0,1-.22.22ZM104.26,12V10.83a.13.13,0,0,0-.14-.14H102c-1.82,0-2.62.53-2.62,1.72s.8,1.65,2.2,1.65C103.25,14.06,104.26,13.29,104.26,12Zm-3-8.84c-.14,0-.2-.09-.14-.22L102.83.22A.39.39,0,0,1,103.2,0h1.45c.13,0,.2.11.11.22l-2,2.71a.44.44,0,0,1-.42.22Z"/><path d="M111.21,15.51c-1.85,0-2.58-.88-2.58-2.77V.66a.21.21,0,0,1,.22-.22h1.41a.21.21,0,0,1,.22.22v12c0,.88.33,1.17,1.06,1.17H112a.2.2,0,0,1,.22.22v1.27a.21.21,0,0,1-.22.22Z"/><path d="M114.07,2.49a.21.21,0,0,1-.22-.22V.66a.21.21,0,0,1,.22-.22h1.49a.2.2,0,0,1,.22.22V2.27a.2.2,0,0,1-.22.22Zm0,12.91a.21.21,0,0,1-.22-.22V5.08a.21.21,0,0,1,.22-.22h1.41a.21.21,0,0,1,.22.22v10.1a.21.21,0,0,1-.22.22Z"/><path d="M117.74,14.06a.21.21,0,0,1,0-.31l.9-1a.23.23,0,0,1,.31,0A5.07,5.07,0,0,0,122.21,14c1.54,0,2.31-.66,2.31-1.6s-.4-1.3-2-1.48l-1.12-.11c-2.07-.22-3.15-1.25-3.15-3,0-2,1.43-3.21,3.92-3.21a6.3,6.3,0,0,1,3.74,1.17c.11.06.11.19,0,.3l-.74,1a.21.21,0,0,1-.31,0A5.54,5.54,0,0,0,122,6.23c-1.32,0-2,.59-2,1.45s.5,1.28,2.07,1.43l1.1.11c2.13.2,3.16,1.28,3.16,3,0,2.07-1.49,3.45-4.24,3.45A6.55,6.55,0,0,1,117.74,14.06Z"/><path d="M128.54,2.49a.21.21,0,0,1-.22-.22V.66a.21.21,0,0,1,.22-.22H130a.21.21,0,0,1,.22.22V2.27a.21.21,0,0,1-.22.22Zm.05,12.91a.2.2,0,0,1-.22-.22V5.08a.2.2,0,0,1,.22-.22H130a.2.2,0,0,1,.21.22v10.1a.2.2,0,0,1-.21.22Z"/><path d="M132.22,14.06a.21.21,0,0,1,0-.31l.9-1a.23.23,0,0,1,.31,0A5.07,5.07,0,0,0,136.68,14c1.54,0,2.31-.66,2.31-1.6s-.39-1.3-2-1.48l-1.12-.11c-2.07-.22-3.15-1.25-3.15-3,0-2,1.43-3.21,3.91-3.21a6.26,6.26,0,0,1,3.74,1.17c.12.06.12.19,0,.3l-.75,1a.21.21,0,0,1-.31,0,5.53,5.53,0,0,0-2.83-.85c-1.32,0-2,.59-2,1.45S135,9,136.55,9.11l1.1.11c2.14.2,3.17,1.28,3.17,3,0,2.07-1.5,3.45-4.25,3.45A6.54,6.54,0,0,1,132.22,14.06Z"/><path d="M153.84,15.4a.21.21,0,0,1-.22-.22v-1h0a3.2,3.2,0,0,1-3,1.47A3.47,3.47,0,0,1,147,13.11a8.62,8.62,0,0,1-.38-3,8.61,8.61,0,0,1,.38-3,3.48,3.48,0,0,1,3.63-2.53,3.21,3.21,0,0,1,3,1.45h0V.66a.21.21,0,0,1,.22-.22h1.41a.21.21,0,0,1,.22.22V15.18a.21.21,0,0,1-.22.22Zm-.46-3.08a6.63,6.63,0,0,0,.24-2.2,6.75,6.75,0,0,0-.24-2.2,2.49,2.49,0,0,0-4.64,0,7.35,7.35,0,0,0-.24,2.2,7.18,7.18,0,0,0,.24,2.2,2.48,2.48,0,0,0,4.64,0Z"/><path d="M157.91,12.78a8.25,8.25,0,0,1-.35-2.66,8.17,8.17,0,0,1,.33-2.66,4.43,4.43,0,0,1,8.27,0,9.18,9.18,0,0,1,.33,3c0,.14-.08.22-.24.22h-6.67a.12.12,0,0,0-.13.14,3.9,3.9,0,0,0,.18,1.27,2.6,2.6,0,0,0,2.66,1.83A3.47,3.47,0,0,0,165,12.76a.22.22,0,0,1,.33,0l.9.81a.2.2,0,0,1,0,.31,5.09,5.09,0,0,1-4.11,1.8A4.07,4.07,0,0,1,157.91,12.78Zm6.56-3.56a.12.12,0,0,0,.13-.13,3.71,3.71,0,0,0-.15-1.19,2.6,2.6,0,0,0-4.84,0,3.68,3.68,0,0,0-.16,1.19.12.12,0,0,0,.13.13Z"/><path d="M173.2,15.4a.21.21,0,0,1-.22-.22V5.08a.21.21,0,0,1,.22-.22h1.41a.21.21,0,0,1,.22.22V6.16h0a2.94,2.94,0,0,1,2.8-1.54,3.26,3.26,0,0,1,2.15.79c.11.11.13.2,0,.31L179,6.8a.2.2,0,0,1-.31,0,2.93,2.93,0,0,0-1.62-.5c-1.61,0-2.27,1.25-2.27,3.08v5.76a.21.21,0,0,1-.22.22Z"/><path d="M181.3,2.49a.21.21,0,0,1-.22-.22V.66a.21.21,0,0,1,.22-.22h1.49a.21.21,0,0,1,.22.22V2.27a.21.21,0,0,1-.22.22Zm0,12.91a.21.21,0,0,1-.22-.22V5.08a.21.21,0,0,1,.22-.22h1.41a.21.21,0,0,1,.22.22v10.1a.21.21,0,0,1-.22.22Z"/><path d="M185.41,12.78a8.25,8.25,0,0,1-.35-2.66,8.17,8.17,0,0,1,.33-2.66,4.43,4.43,0,0,1,8.27,0,9.18,9.18,0,0,1,.33,3,.21.21,0,0,1-.24.22h-6.67a.12.12,0,0,0-.13.14,3.9,3.9,0,0,0,.18,1.27,2.6,2.6,0,0,0,2.66,1.83,3.47,3.47,0,0,0,2.71-1.17.22.22,0,0,1,.33,0l.9.81a.2.2,0,0,1,0,.31,5.13,5.13,0,0,1-4.12,1.8A4.07,4.07,0,0,1,185.41,12.78ZM192,9.22a.12.12,0,0,0,.13-.13A3.71,3.71,0,0,0,192,7.9a2.61,2.61,0,0,0-4.85,0A4,4,0,0,0,187,9.09a.12.12,0,0,0,.13.13Z"/><path d="M195.35,14.06a.23.23,0,0,1,0-.31l.91-1a.22.22,0,0,1,.3,0A5.1,5.1,0,0,0,199.82,14c1.54,0,2.31-.66,2.31-1.6s-.39-1.3-2-1.48L199,10.8c-2.07-.22-3.14-1.25-3.14-3,0-2,1.43-3.21,3.91-3.21a6.3,6.3,0,0,1,3.74,1.17.21.21,0,0,1,.05.3l-.75,1a.21.21,0,0,1-.31,0,5.54,5.54,0,0,0-2.84-.85c-1.32,0-2,.59-2,1.45s.51,1.28,2.07,1.43l1.1.11c2.13.2,3.17,1.28,3.17,3,0,2.07-1.5,3.45-4.25,3.45A6.57,6.57,0,0,1,195.35,14.06Z"/><path d="M205.76,18a.2.2,0,0,1,0-.31l.9-.9a.21.21,0,0,1,.33,0,3.54,3.54,0,0,0,2.49,1.06c1.74,0,2.66-.9,2.66-2.84V13.82h0a3,3,0,0,1-2.93,1.45,3.45,3.45,0,0,1-3.54-2.55,8.34,8.34,0,0,1-.35-2.77,8.36,8.36,0,0,1,.35-2.78,3.45,3.45,0,0,1,3.54-2.55,3,3,0,0,1,2.93,1.45h0v-1a.21.21,0,0,1,.22-.22h1.41a.21.21,0,0,1,.22.22v9.86c0,3-1.63,4.66-4.6,4.66A4.74,4.74,0,0,1,205.76,18Zm6.16-6a6.28,6.28,0,0,0,.24-2,6.38,6.38,0,0,0-.24-2,2.38,2.38,0,0,0-4.47,0,6.82,6.82,0,0,0-.26,2,6.7,6.7,0,0,0,.26,2,2.37,2.37,0,0,0,4.47,0Z"/><path d="M216.45,12.81a8,8,0,0,1-.35-2.69,7.92,7.92,0,0,1,.35-2.66,4.47,4.47,0,0,1,8.32,0,7.92,7.92,0,0,1,.35,2.66,8,8,0,0,1-.35,2.69,4.47,4.47,0,0,1-8.32,0Zm6.54-.53a7.13,7.13,0,0,0,.24-2.16A6.91,6.91,0,0,0,223,8a2.54,2.54,0,0,0-4.76,0,6.91,6.91,0,0,0-.24,2.13,7.13,7.13,0,0,0,.24,2.16,2.54,2.54,0,0,0,4.76,0Z"/><path d="M231.83,15.4a.21.21,0,0,1-.22-.22V.66a.21.21,0,0,1,.22-.22h1.41a.21.21,0,0,1,.22.22V6.07h0a3.21,3.21,0,0,1,3-1.45,3.48,3.48,0,0,1,3.63,2.53,8.61,8.61,0,0,1,.38,3,8.62,8.62,0,0,1-.38,3,3.47,3.47,0,0,1-3.63,2.53,3.2,3.2,0,0,1-3-1.47h0v1a.21.21,0,0,1-.22.22Zm6.51-3.08a7.18,7.18,0,0,0,.24-2.2,7.35,7.35,0,0,0-.24-2.2,2.49,2.49,0,0,0-4.64,0,6.75,6.75,0,0,0-.24,2.2,6.63,6.63,0,0,0,.24,2.2,2.48,2.48,0,0,0,4.64,0Z"/><path d="M249.19,15.4a.21.21,0,0,1-.22-.22v-1h0a3.22,3.22,0,0,1-2.89,1.45c-2.31,0-3.65-1.58-3.65-4V5.08a.21.21,0,0,1,.22-.22H244a.21.21,0,0,1,.22.22v6.14c0,1.72.77,2.71,2.33,2.71a2.34,2.34,0,0,0,2.38-2.6V5.08a.21.21,0,0,1,.22-.22h1.41a.21.21,0,0,1,.22.22v10.1a.21.21,0,0,1-.22.22Z"/><path d="M252.82,14.06a.21.21,0,0,1,0-.31l.9-1a.23.23,0,0,1,.31,0A5.07,5.07,0,0,0,257.28,14c1.54,0,2.31-.66,2.31-1.6s-.39-1.3-2-1.48l-1.12-.11c-2.07-.22-3.15-1.25-3.15-3,0-2,1.43-3.21,3.92-3.21a6.3,6.3,0,0,1,3.74,1.17c.11.06.11.19,0,.3l-.75,1a.21.21,0,0,1-.31,0,5.53,5.53,0,0,0-2.83-.85c-1.32,0-2,.59-2,1.45s.51,1.28,2.07,1.43l1.1.11c2.14.2,3.17,1.28,3.17,3,0,2.07-1.5,3.45-4.25,3.45A6.52,6.52,0,0,1,252.82,14.06Z"/><path d="M263.14,7.46a4.07,4.07,0,0,1,4.15-2.84A4.22,4.22,0,0,1,270.9,6.4c.07.11.07.2-.06.31l-1,.79a.2.2,0,0,1-.31,0,2.59,2.59,0,0,0-2.27-1.14A2.28,2.28,0,0,0,264.94,8a6.89,6.89,0,0,0-.24,2.13,7,7,0,0,0,.24,2.16,2.28,2.28,0,0,0,2.35,1.65,2.6,2.6,0,0,0,2.27-1.15.2.2,0,0,1,.31,0l1,.79c.13.11.13.2.06.31a4.22,4.22,0,0,1-3.61,1.78,4.07,4.07,0,0,1-4.15-2.83,9.08,9.08,0,0,1-.33-2.69A9,9,0,0,1,263.14,7.46Z"/><path d="M279.06,15.4a.21.21,0,0,1-.22-.22v-.92h0a3.45,3.45,0,0,1-3.12,1.38c-2,0-3.54-1-3.54-3.16s1.53-3.26,4.11-3.26h2.4a.12.12,0,0,0,.13-.13V8.32c0-1.46-.57-2.07-2.53-2.07a4.07,4.07,0,0,0-2.55.75.2.2,0,0,1-.31,0l-.59-1a.23.23,0,0,1,0-.31,5.88,5.88,0,0,1,3.59-1c3,0,4.13,1,4.13,3.59v7a.21.21,0,0,1-.22.22ZM278.8,12V10.83a.12.12,0,0,0-.13-.14h-2.11c-1.83,0-2.62.53-2.62,1.72s.79,1.65,2.2,1.65C277.79,14.06,278.8,13.29,278.8,12Z"/><path d="M290.06,15.4a.21.21,0,0,1-.22-.22V9c0-1.69-.77-2.68-2.35-2.68a2.36,2.36,0,0,0-2.42,2.57v6.27a.21.21,0,0,1-.22.22h-1.41a.21.21,0,0,1-.22-.22V5.08a.21.21,0,0,1,.22-.22h1.41a.21.21,0,0,1,.22.22v1h0a3.35,3.35,0,0,1,3-1.43c2.29,0,3.65,1.56,3.65,4v6.6a.21.21,0,0,1-.22.22Z"/><path d="M300.91,15.4a.21.21,0,0,1-.22-.22v-1h0a3.21,3.21,0,0,1-3,1.47A3.48,3.48,0,0,1,294,13.11a8.9,8.9,0,0,1-.37-3,8.89,8.89,0,0,1,.37-3,3.49,3.49,0,0,1,3.63-2.53,3.22,3.22,0,0,1,3,1.45h0V.66a.21.21,0,0,1,.22-.22h1.41a.21.21,0,0,1,.22.22V15.18a.21.21,0,0,1-.22.22Zm-.46-3.08a6.92,6.92,0,0,0,.24-2.2,7,7,0,0,0-.24-2.2,2.5,2.5,0,0,0-4.65,0,7.69,7.69,0,0,0-.24,2.2,7.51,7.51,0,0,0,.24,2.2,2.48,2.48,0,0,0,4.65,0Z"/><path d="M305,12.81a8,8,0,0,1-.35-2.69A7.92,7.92,0,0,1,305,7.46a4.47,4.47,0,0,1,8.32,0,7.92,7.92,0,0,1,.35,2.66,8,8,0,0,1-.35,2.69,4.47,4.47,0,0,1-8.32,0Zm6.53-.53a6.77,6.77,0,0,0,.25-2.16A6.57,6.57,0,0,0,311.51,8a2.53,2.53,0,0,0-4.75,0,6.61,6.61,0,0,0-.24,2.13,6.82,6.82,0,0,0,.24,2.16,2.53,2.53,0,0,0,4.75,0Z"/><path d="M320.36,19.36a.2.2,0,0,1-.22-.22V5.08a.2.2,0,0,1,.22-.22h1.4a.2.2,0,0,1,.22.22v1h0a3.2,3.2,0,0,1,3-1.45,3.48,3.48,0,0,1,3.63,2.53,8.63,8.63,0,0,1,.37,3,8.65,8.65,0,0,1-.37,3A3.47,3.47,0,0,1,325,15.64a3.19,3.19,0,0,1-3-1.47h0v5a.2.2,0,0,1-.22.22Zm6.51-7a7.18,7.18,0,0,0,.24-2.2,7.35,7.35,0,0,0-.24-2.2,2.49,2.49,0,0,0-4.64,0,6.69,6.69,0,0,0-.25,2.2,6.58,6.58,0,0,0,.25,2.2,2.48,2.48,0,0,0,4.64,0Z"/><path d="M330.81,12.81a7.75,7.75,0,0,1-.36-2.69,7.64,7.64,0,0,1,.36-2.66,4.46,4.46,0,0,1,8.31,0,7.64,7.64,0,0,1,.36,2.66,7.75,7.75,0,0,1-.36,2.69,4.47,4.47,0,0,1-8.31,0Zm6.53-.53a6.82,6.82,0,0,0,.24-2.16A6.61,6.61,0,0,0,337.34,8a2.53,2.53,0,0,0-4.75,0,6.61,6.61,0,0,0-.24,2.13,6.82,6.82,0,0,0,.24,2.16,2.53,2.53,0,0,0,4.75,0Z"/><path d="M340.84,14.06a.21.21,0,0,1,0-.31l.9-1a.23.23,0,0,1,.31,0A5.07,5.07,0,0,0,345.31,14c1.53,0,2.31-.66,2.31-1.6s-.4-1.3-2.05-1.48l-1.12-.11c-2.07-.22-3.15-1.25-3.15-3,0-2,1.43-3.21,3.92-3.21A6.3,6.3,0,0,1,349,5.79c.11.06.11.19,0,.3l-.75,1a.2.2,0,0,1-.3,0,5.6,5.6,0,0,0-2.84-.85c-1.32,0-2,.59-2,1.45s.51,1.28,2.07,1.43l1.1.11c2.14.2,3.17,1.28,3.17,3,0,2.07-1.49,3.45-4.25,3.45A6.54,6.54,0,0,1,340.84,14.06Z"/><path d="M351.64,2.49a.21.21,0,0,1-.22-.22V.66a.21.21,0,0,1,.22-.22h1.5a.21.21,0,0,1,.22.22V2.27a.21.21,0,0,1-.22.22Zm0,12.91a.21.21,0,0,1-.22-.22V5.08a.21.21,0,0,1,.22-.22h1.41a.21.21,0,0,1,.22.22v10.1a.21.21,0,0,1-.22.22Z"/><path d="M356.26,15.4a.21.21,0,0,1-.22-.22V.66a.21.21,0,0,1,.22-.22h1.41a.21.21,0,0,1,.22.22V6.07h0a3.21,3.21,0,0,1,3-1.45,3.48,3.48,0,0,1,3.63,2.53,8.61,8.61,0,0,1,.38,3,8.62,8.62,0,0,1-.38,3,3.47,3.47,0,0,1-3.63,2.53,3.2,3.2,0,0,1-3-1.47h0v1a.21.21,0,0,1-.22.22Zm6.51-3.08a7.18,7.18,0,0,0,.24-2.2,7.35,7.35,0,0,0-.24-2.2,2.49,2.49,0,0,0-4.64,0,6.75,6.75,0,0,0-.24,2.2,6.63,6.63,0,0,0,.24,2.2,2.48,2.48,0,0,0,4.64,0Z"/><path d="M369.53,15.51c-1.85,0-2.58-.88-2.58-2.77V.66a.21.21,0,0,1,.22-.22h1.41a.21.21,0,0,1,.22.22v12c0,.88.33,1.17,1.06,1.17h.41a.2.2,0,0,1,.22.22v1.27a.2.2,0,0,1-.22.22Z"/><path d="M371.92,12.78a8.25,8.25,0,0,1-.35-2.66,8.17,8.17,0,0,1,.33-2.66,4.43,4.43,0,0,1,8.27,0,9.18,9.18,0,0,1,.33,3c0,.14-.08.22-.24.22H373.6a.13.13,0,0,0-.14.14,3.9,3.9,0,0,0,.18,1.27,2.6,2.6,0,0,0,2.66,1.83A3.44,3.44,0,0,0,379,12.76a.22.22,0,0,1,.33,0l.9.81a.2.2,0,0,1,0,.31,5.09,5.09,0,0,1-4.11,1.8A4.08,4.08,0,0,1,371.92,12.78Zm6.56-3.56a.12.12,0,0,0,.13-.13,3.71,3.71,0,0,0-.15-1.19,2.6,2.6,0,0,0-4.84,0,3.68,3.68,0,0,0-.16,1.19.12.12,0,0,0,.14.13Z"/><path d="M381.87,14.06a.21.21,0,0,1,0-.31l.9-1a.23.23,0,0,1,.31,0A5.07,5.07,0,0,0,386.33,14c1.54,0,2.31-.66,2.31-1.6s-.39-1.3-2-1.48l-1.12-.11c-2.07-.22-3.15-1.25-3.15-3,0-2,1.43-3.21,3.92-3.21A6.3,6.3,0,0,1,390,5.79c.11.06.11.19,0,.3l-.75,1a.21.21,0,0,1-.31,0,5.53,5.53,0,0,0-2.83-.85c-1.32,0-2,.59-2,1.45s.51,1.28,2.07,1.43l1.1.11c2.14.2,3.17,1.28,3.17,3,0,2.07-1.5,3.45-4.25,3.45A6.54,6.54,0,0,1,381.87,14.06Z"/><path d="M397.46,15.4a.2.2,0,0,1-.21-.22V6.49c0-.09-.05-.13-.14-.13h-.9a.21.21,0,0,1-.22-.22V5.08a.21.21,0,0,1,.22-.22h.9c.09,0,.14,0,.14-.13v-.9c0-2.49,1-3.39,3.21-3.39h.81a.21.21,0,0,1,.22.22V1.94a.21.21,0,0,1-.22.22h-.57c-1.34,0-1.61.28-1.61,1.58v1c0,.09.05.13.14.13h2a.21.21,0,0,1,.22.22V6.14a.21.21,0,0,1-.22.22h-2c-.09,0-.14,0-.14.13v8.69a.21.21,0,0,1-.22.22Z"/><path d="M409.39,15.4a.21.21,0,0,1-.22-.22v-.92h0A3.47,3.47,0,0,1,406,15.64c-2,0-3.54-1-3.54-3.16s1.54-3.26,4.11-3.26H409a.12.12,0,0,0,.14-.13V8.32c0-1.46-.58-2.07-2.54-2.07A4.12,4.12,0,0,0,404,7c-.11.08-.24.08-.3,0l-.6-1a.25.25,0,0,1,0-.31,5.92,5.92,0,0,1,3.59-1c3,0,4.14,1,4.14,3.59v7a.21.21,0,0,1-.22.22ZM409.13,12V10.83a.13.13,0,0,0-.14-.14h-2.11c-1.82,0-2.62.53-2.62,1.72s.8,1.65,2.2,1.65C408.11,14.06,409.13,13.29,409.13,12Z"/><path d="M416.08,15.51c-1.85,0-2.58-.88-2.58-2.77V.66a.21.21,0,0,1,.22-.22h1.41a.21.21,0,0,1,.22.22v12c0,.88.33,1.17,1.06,1.17h.42A.2.2,0,0,1,417,14v1.27a.2.2,0,0,1-.21.22Z"/><path d="M421.25,15.51c-1.85,0-2.58-.88-2.58-2.77V.66a.21.21,0,0,1,.22-.22h1.41a.21.21,0,0,1,.22.22v12c0,.88.33,1.17,1.06,1.17H422a.2.2,0,0,1,.21.22v1.27a.2.2,0,0,1-.21.22Z"/><path d="M430.31,15.4a.21.21,0,0,1-.22-.22v-.92h0a3.47,3.47,0,0,1-3.13,1.38c-2,0-3.54-1-3.54-3.16s1.54-3.26,4.12-3.26h2.4a.12.12,0,0,0,.13-.13V8.32c0-1.46-.57-2.07-2.53-2.07A4.13,4.13,0,0,0,425,7c-.11.08-.24.08-.3,0l-.6-1a.24.24,0,0,1,.05-.31,5.87,5.87,0,0,1,3.58-1c3,0,4.14,1,4.14,3.59v7a.21.21,0,0,1-.22.22ZM430.05,12V10.83a.12.12,0,0,0-.13-.14H427.8c-1.82,0-2.62.53-2.62,1.72s.8,1.65,2.2,1.65C429,14.06,430.05,13.29,430.05,12Z"/><path d="M433.74,14.06a.21.21,0,0,1,0-.31l.9-1a.23.23,0,0,1,.31,0A5.1,5.1,0,0,0,438.21,14c1.54,0,2.31-.66,2.31-1.6s-.4-1.3-2-1.48l-1.12-.11c-2.07-.22-3.15-1.25-3.15-3,0-2,1.43-3.21,3.92-3.21a6.3,6.3,0,0,1,3.74,1.17.21.21,0,0,1,.05.3l-.75,1a.21.21,0,0,1-.31,0A5.54,5.54,0,0,0,438,6.23c-1.32,0-2,.59-2,1.45s.5,1.28,2.07,1.43l1.1.11c2.13.2,3.16,1.28,3.16,3,0,2.07-1.49,3.45-4.24,3.45A6.55,6.55,0,0,1,433.74,14.06Z"/><path d="M455.37,15.4a.21.21,0,0,1-.22-.22v-1h0a3.21,3.21,0,0,1-3,1.47,3.48,3.48,0,0,1-3.63-2.53,8.9,8.9,0,0,1-.37-3,8.89,8.89,0,0,1,.37-3,3.49,3.49,0,0,1,3.63-2.53,3.22,3.22,0,0,1,3,1.45h0V.66a.21.21,0,0,1,.22-.22h1.41a.21.21,0,0,1,.22.22V15.18a.21.21,0,0,1-.22.22Zm-.46-3.08a6.92,6.92,0,0,0,.24-2.2,7,7,0,0,0-.24-2.2,2.5,2.5,0,0,0-4.65,0,7.69,7.69,0,0,0-.24,2.2,7.51,7.51,0,0,0,.24,2.2,2.48,2.48,0,0,0,4.65,0Z"/><path d="M459.44,12.78a8.2,8.2,0,0,1-.36-2.66,8.12,8.12,0,0,1,.34-2.66,4.43,4.43,0,0,1,8.27,0,9.18,9.18,0,0,1,.33,3,.21.21,0,0,1-.24.22h-6.67c-.09,0-.13.05-.13.14a3.93,3.93,0,0,0,.17,1.27,2.62,2.62,0,0,0,2.67,1.83,3.43,3.43,0,0,0,2.7-1.17.22.22,0,0,1,.33,0l.9.81a.21.21,0,0,1,0,.31,5.13,5.13,0,0,1-4.12,1.8A4.07,4.07,0,0,1,459.44,12.78ZM466,9.22a.12.12,0,0,0,.13-.13A3.68,3.68,0,0,0,466,7.9a2.6,2.6,0,0,0-4.84,0A3.71,3.71,0,0,0,461,9.09a.12.12,0,0,0,.13.13Z"/><path d="M474.2,7.46a4.07,4.07,0,0,1,4.16-2.84A4.24,4.24,0,0,1,482,6.4a.22.22,0,0,1-.07.31l-1,.79a.2.2,0,0,1-.31,0,2.58,2.58,0,0,0-2.26-1.14A2.29,2.29,0,0,0,476,8a7.21,7.21,0,0,0-.24,2.13,7.3,7.3,0,0,0,.24,2.16,2.29,2.29,0,0,0,2.36,1.65,2.59,2.59,0,0,0,2.26-1.15.2.2,0,0,1,.31,0l1,.79a.22.22,0,0,1,.07.31,4.24,4.24,0,0,1-3.61,1.78,4.08,4.08,0,0,1-4.16-2.83,9.08,9.08,0,0,1-.33-2.69A9,9,0,0,1,474.2,7.46Z"/><path d="M483.46,12.81a8,8,0,0,1-.35-2.69,7.92,7.92,0,0,1,.35-2.66,4.47,4.47,0,0,1,8.32,0,7.92,7.92,0,0,1,.35,2.66,8,8,0,0,1-.35,2.69,4.47,4.47,0,0,1-8.32,0Zm6.54-.53a7.13,7.13,0,0,0,.24-2.16A6.91,6.91,0,0,0,490,8a2.54,2.54,0,0,0-4.76,0,6.91,6.91,0,0,0-.24,2.13,7.13,7.13,0,0,0,.24,2.16,2.54,2.54,0,0,0,4.76,0Z"/><path d="M501.06,15.4a.21.21,0,0,1-.22-.22V9c0-1.69-.77-2.68-2.35-2.68a2.36,2.36,0,0,0-2.42,2.57v6.27a.21.21,0,0,1-.22.22h-1.41a.21.21,0,0,1-.22-.22V5.08a.21.21,0,0,1,.22-.22h1.41a.21.21,0,0,1,.22.22v1h0a3.35,3.35,0,0,1,3-1.43c2.29,0,3.65,1.56,3.65,4v6.6a.21.21,0,0,1-.22.22Z"/><path d="M508.37,15.51c-2.05,0-2.84-.92-2.84-3v-6a.12.12,0,0,0-.13-.13h-.89a.21.21,0,0,1-.22-.22V5.08a.21.21,0,0,1,.22-.22h.89a.12.12,0,0,0,.13-.13v-3a.21.21,0,0,1,.22-.22h1.41a.21.21,0,0,1,.22.22v3c0,.09,0,.13.13.13h1.67a.21.21,0,0,1,.22.22V6.14a.21.21,0,0,1-.22.22h-1.67c-.09,0-.13,0-.13.13v6c0,1.06.39,1.35,1.34,1.35h.46a.2.2,0,0,1,.22.22v1.27a.21.21,0,0,1-.22.22Z"/><path d="M511.09,12.78a8.25,8.25,0,0,1-.35-2.66,8.17,8.17,0,0,1,.33-2.66,4.43,4.43,0,0,1,8.27,0,9.18,9.18,0,0,1,.33,3c0,.14-.08.22-.24.22h-6.67a.12.12,0,0,0-.13.14,3.9,3.9,0,0,0,.18,1.27,2.6,2.6,0,0,0,2.66,1.83,3.44,3.44,0,0,0,2.71-1.17.22.22,0,0,1,.33,0l.9.81a.2.2,0,0,1,0,.31,5.09,5.09,0,0,1-4.11,1.8A4.08,4.08,0,0,1,511.09,12.78Zm6.56-3.56a.12.12,0,0,0,.13-.13,3.71,3.71,0,0,0-.15-1.19,2.6,2.6,0,0,0-4.84,0,3.68,3.68,0,0,0-.16,1.19.12.12,0,0,0,.13.13Z"/><path d="M528.61,15.4a.2.2,0,0,1-.22-.22V9c0-1.69-.77-2.68-2.36-2.68a2.36,2.36,0,0,0-2.42,2.57v6.27a.21.21,0,0,1-.22.22H522a.21.21,0,0,1-.22-.22V5.08a.21.21,0,0,1,.22-.22h1.41a.21.21,0,0,1,.22.22v1h0a3.35,3.35,0,0,1,3-1.43c2.29,0,3.65,1.56,3.65,4v6.6a.2.2,0,0,1-.22.22Z"/><path d="M532.54,7.46a4.09,4.09,0,0,1,4.16-2.84,4.22,4.22,0,0,1,3.61,1.78c.07.11.07.2-.07.31l-1,.79a.19.19,0,0,1-.3,0,2.59,2.59,0,0,0-2.27-1.14A2.28,2.28,0,0,0,534.35,8a6.85,6.85,0,0,0-.25,2.13,6.94,6.94,0,0,0,.25,2.16,2.28,2.28,0,0,0,2.35,1.65A2.6,2.6,0,0,0,539,12.78a.19.19,0,0,1,.3,0l1,.79c.14.11.14.2.07.31a4.22,4.22,0,0,1-3.61,1.78,4.09,4.09,0,0,1-4.16-2.83,9.08,9.08,0,0,1-.33-2.69A9,9,0,0,1,532.54,7.46Z"/><path d="M542.53,2.49a.21.21,0,0,1-.22-.22V.66a.21.21,0,0,1,.22-.22H544a.21.21,0,0,1,.22.22V2.27a.21.21,0,0,1-.22.22Zm0,12.91a.21.21,0,0,1-.22-.22V5.08a.21.21,0,0,1,.22-.22H544a.21.21,0,0,1,.22.22v10.1a.21.21,0,0,1-.22.22Z"/><path d="M546.64,12.81a8,8,0,0,1-.35-2.69,7.92,7.92,0,0,1,.35-2.66,4.47,4.47,0,0,1,8.32,0,7.92,7.92,0,0,1,.35,2.66,8,8,0,0,1-.35,2.69,4.47,4.47,0,0,1-8.32,0Zm6.54-.53a7.13,7.13,0,0,0,.24-2.16A6.91,6.91,0,0,0,553.18,8a2.53,2.53,0,0,0-4.75,0,6.57,6.57,0,0,0-.25,2.13,6.77,6.77,0,0,0,.25,2.16,2.53,2.53,0,0,0,4.75,0ZM550,3.15c-.13,0-.2-.09-.13-.22L551.55.22a.4.4,0,0,1,.37-.22h1.46c.13,0,.2.11.11.22l-2,2.71a.44.44,0,0,1-.42.22Z"/><path d="M564.24,15.4a.21.21,0,0,1-.22-.22V9c0-1.69-.77-2.68-2.35-2.68a2.36,2.36,0,0,0-2.42,2.57v6.27a.21.21,0,0,1-.22.22h-1.41a.21.21,0,0,1-.22-.22V5.08a.21.21,0,0,1,.22-.22H559a.21.21,0,0,1,.22.22v1h0a3.35,3.35,0,0,1,3-1.43c2.29,0,3.65,1.56,3.65,4v6.6a.21.21,0,0,1-.22.22Z"/><path d="M572.6,12.78a8.25,8.25,0,0,1-.35-2.66,8.17,8.17,0,0,1,.33-2.66,4.43,4.43,0,0,1,8.27,0,9.18,9.18,0,0,1,.33,3c0,.14-.08.22-.24.22h-6.67a.12.12,0,0,0-.13.14,3.9,3.9,0,0,0,.18,1.27A2.6,2.6,0,0,0,577,13.93a3.44,3.44,0,0,0,2.71-1.17.22.22,0,0,1,.33,0l.9.81a.2.2,0,0,1,0,.31,5.09,5.09,0,0,1-4.11,1.8A4.07,4.07,0,0,1,572.6,12.78Zm6.56-3.56a.12.12,0,0,0,.13-.13,3.71,3.71,0,0,0-.15-1.19,2.6,2.6,0,0,0-4.84,0,3.68,3.68,0,0,0-.16,1.19.12.12,0,0,0,.13.13Z"/><path d="M590.12,15.4a.2.2,0,0,1-.22-.22V9c0-1.69-.77-2.68-2.36-2.68a2.36,2.36,0,0,0-2.42,2.57v6.27a.21.21,0,0,1-.22.22h-1.41a.21.21,0,0,1-.22-.22V5.08a.21.21,0,0,1,.22-.22h1.41a.21.21,0,0,1,.22.22v1h0a3.35,3.35,0,0,1,3-1.43c2.29,0,3.65,1.56,3.65,4v6.6a.2.2,0,0,1-.22.22Z"/><path d="M601.29,15.51c-1.85,0-2.57-.88-2.57-2.77V.66a.2.2,0,0,1,.22-.22h1.4a.2.2,0,0,1,.22.22v12c0,.88.33,1.17,1.06,1.17H602a.2.2,0,0,1,.22.22v1.27a.21.21,0,0,1-.22.22Z"/><path d="M610.35,15.4a.21.21,0,0,1-.22-.22v-.92h0A3.45,3.45,0,0,1,607,15.64c-2,0-3.54-1-3.54-3.16s1.54-3.26,4.11-3.26H610a.12.12,0,0,0,.13-.13V8.32c0-1.46-.57-2.07-2.53-2.07A4.07,4.07,0,0,0,605,7a.2.2,0,0,1-.31,0l-.59-1a.23.23,0,0,1,0-.31,5.88,5.88,0,0,1,3.59-1c3,0,4.13,1,4.13,3.59v7a.21.21,0,0,1-.22.22ZM610.09,12V10.83c0-.09,0-.14-.13-.14h-2.11c-1.83,0-2.62.53-2.62,1.72s.79,1.65,2.2,1.65C609.08,14.06,610.09,13.29,610.09,12Z"/><path d="M613.79,14.06a.21.21,0,0,1,0-.31l.9-1a.23.23,0,0,1,.31,0A5.07,5.07,0,0,0,618.25,14c1.54,0,2.31-.66,2.31-1.6s-.39-1.3-2-1.48l-1.13-.11c-2.06-.22-3.14-1.25-3.14-3,0-2,1.43-3.21,3.92-3.21a6.35,6.35,0,0,1,3.74,1.17.22.22,0,0,1,0,.3l-.75,1a.21.21,0,0,1-.31,0,5.54,5.54,0,0,0-2.84-.85c-1.32,0-2,.59-2,1.45s.51,1.28,2.07,1.43l1.1.11c2.13.2,3.17,1.28,3.17,3,0,2.07-1.5,3.45-4.25,3.45A6.52,6.52,0,0,1,613.79,14.06Z"/><path d="M.35,40.78A8.25,8.25,0,0,1,0,38.12a8.17,8.17,0,0,1,.33-2.66,4.07,4.07,0,0,1,4.14-2.84A4.07,4.07,0,0,1,8.6,35.46a9.18,9.18,0,0,1,.33,3,.21.21,0,0,1-.24.22H2a.12.12,0,0,0-.13.14,3.9,3.9,0,0,0,.18,1.27,2.6,2.6,0,0,0,2.66,1.83,3.44,3.44,0,0,0,2.71-1.17.22.22,0,0,1,.33,0l.9.81a.2.2,0,0,1,0,.31,5.1,5.1,0,0,1-4.11,1.8A4.07,4.07,0,0,1,.35,40.78Zm6.56-3.56A.12.12,0,0,0,7,37.09a3.71,3.71,0,0,0-.15-1.19,2.37,2.37,0,0,0-2.42-1.65A2.37,2.37,0,0,0,2.05,35.9a3.68,3.68,0,0,0-.16,1.19.12.12,0,0,0,.13.13Z"/><path d="M10.3,42.06a.21.21,0,0,1,0-.31l.9-1a.23.23,0,0,1,.31,0A5.07,5.07,0,0,0,14.76,42c1.54,0,2.31-.66,2.31-1.6s-.39-1.3-2-1.48L13.9,38.8c-2.06-.22-3.14-1.25-3.14-3,0-2,1.43-3.21,3.91-3.21a6.34,6.34,0,0,1,3.75,1.17.22.22,0,0,1,0,.3l-.75.95a.21.21,0,0,1-.31,0,5.54,5.54,0,0,0-2.84-.85c-1.32,0-2,.59-2,1.45s.51,1.28,2.07,1.43l1.1.11c2.14.2,3.17,1.28,3.17,3,0,2.07-1.5,3.45-4.25,3.45A6.52,6.52,0,0,1,10.3,42.06Z"/><path d="M24,43.51c-2.05,0-2.84-.92-2.84-3v-6c0-.09,0-.13-.13-.13h-.88a.21.21,0,0,1-.22-.22V33.08a.21.21,0,0,1,.22-.22H21c.09,0,.13,0,.13-.13v-3a.21.21,0,0,1,.22-.22h1.41a.21.21,0,0,1,.22.22v3c0,.09,0,.13.13.13h1.67a.2.2,0,0,1,.22.22v1.06a.2.2,0,0,1-.22.22H23.12c-.09,0-.13,0-.13.13v6c0,1.06.4,1.35,1.34,1.35h.46A.2.2,0,0,1,25,42v1.27a.2.2,0,0,1-.22.22Z"/><path d="M27.21,43.4a.21.21,0,0,1-.22-.22V33.08a.21.21,0,0,1,.22-.22h1.41a.21.21,0,0,1,.22.22v1.08h0a3,3,0,0,1,2.8-1.54,3.24,3.24,0,0,1,2.15.79c.11.11.14.2,0,.31L33,34.8a.19.19,0,0,1-.3,0,3,3,0,0,0-1.63-.5c-1.61,0-2.27,1.25-2.27,3.08v5.76a.21.21,0,0,1-.22.22Z"/><path d="M41.76,43.4a.2.2,0,0,1-.22-.22v-1h0a3.2,3.2,0,0,1-2.88,1.45c-2.31,0-3.65-1.58-3.65-4V33.08a.21.21,0,0,1,.22-.22h1.41a.21.21,0,0,1,.22.22v6.14c0,1.72.77,2.71,2.33,2.71a2.34,2.34,0,0,0,2.38-2.6V33.08a.2.2,0,0,1,.22-.22h1.4a.2.2,0,0,1,.22.22v10.1a.2.2,0,0,1-.22.22Z"/><path d="M45.8,35.46A4.09,4.09,0,0,1,50,32.62a4.22,4.22,0,0,1,3.61,1.78c.07.11.07.2-.07.31l-1,.79a.2.2,0,0,1-.31,0A2.59,2.59,0,0,0,50,34.34,2.28,2.28,0,0,0,47.61,36a6.89,6.89,0,0,0-.24,2.13,7,7,0,0,0,.24,2.16A2.28,2.28,0,0,0,50,41.93a2.6,2.6,0,0,0,2.27-1.15.2.2,0,0,1,.31,0l1,.79c.14.11.14.2.07.31A4.22,4.22,0,0,1,50,43.64a4.09,4.09,0,0,1-4.16-2.83,9.08,9.08,0,0,1-.33-2.69A9,9,0,0,1,45.8,35.46Z"/><path d="M58.67,43.51c-2,0-2.84-.92-2.84-3v-6c0-.09,0-.13-.13-.13h-.88a.21.21,0,0,1-.22-.22V33.08a.21.21,0,0,1,.22-.22h.88c.09,0,.13,0,.13-.13v-3a.21.21,0,0,1,.22-.22h1.41a.21.21,0,0,1,.22.22v3c0,.09,0,.13.14.13h1.67a.21.21,0,0,1,.22.22v1.06a.21.21,0,0,1-.22.22H57.82c-.09,0-.14,0-.14.13v6c0,1.06.4,1.35,1.35,1.35h.46a.2.2,0,0,1,.22.22v1.27a.21.21,0,0,1-.22.22Z"/><path d="M68.31,43.4a.21.21,0,0,1-.22-.22v-1h0a3.22,3.22,0,0,1-2.89,1.45c-2.31,0-3.65-1.58-3.65-4V33.08a.21.21,0,0,1,.22-.22h1.41a.21.21,0,0,1,.22.22v6.14c0,1.72.77,2.71,2.33,2.71a2.34,2.34,0,0,0,2.38-2.6V33.08a.21.21,0,0,1,.22-.22h1.41a.21.21,0,0,1,.22.22v10.1a.21.21,0,0,1-.22.22Z"/><path d="M72.88,43.4a.21.21,0,0,1-.22-.22V33.08a.21.21,0,0,1,.22-.22h1.41a.21.21,0,0,1,.22.22v1.08h0a3,3,0,0,1,2.8-1.54,3.26,3.26,0,0,1,2.16.79c.1.11.13.2,0,.31l-.82,1.08a.19.19,0,0,1-.3,0,3,3,0,0,0-1.63-.5c-1.61,0-2.27,1.25-2.27,3.08v5.76a.21.21,0,0,1-.22.22Z"/><path d="M86.66,43.4a.2.2,0,0,1-.22-.22v-.92h0a3.47,3.47,0,0,1-3.13,1.38c-2,0-3.54-1-3.54-3.16s1.54-3.26,4.11-3.26h2.4a.12.12,0,0,0,.13-.13v-.77c0-1.46-.57-2.07-2.53-2.07a4.09,4.09,0,0,0-2.55.75A.2.2,0,0,1,81,35l-.59-1a.23.23,0,0,1,0-.31,5.9,5.9,0,0,1,3.59-1c3,0,4.13,1,4.13,3.59v7a.2.2,0,0,1-.21.22ZM86.39,40V38.83c0-.09,0-.14-.13-.14H84.15c-1.83,0-2.62.53-2.62,1.72s.79,1.65,2.2,1.65C85.38,42.06,86.39,41.29,86.39,40Z"/><path d="M90.09,42.06a.21.21,0,0,1,0-.31l.9-1a.23.23,0,0,1,.31,0A5.07,5.07,0,0,0,94.55,42c1.54,0,2.31-.66,2.31-1.6s-.39-1.3-2-1.48L93.7,38.8c-2.07-.22-3.15-1.25-3.15-3,0-2,1.43-3.21,3.92-3.21a6.3,6.3,0,0,1,3.74,1.17c.11.06.11.19,0,.3L97.5,35a.21.21,0,0,1-.31,0,5.53,5.53,0,0,0-2.83-.85c-1.32,0-2,.59-2,1.45s.51,1.28,2.07,1.43l1.1.11c2.14.2,3.17,1.28,3.17,3,0,2.07-1.5,3.45-4.25,3.45A6.54,6.54,0,0,1,90.09,42.06Z"/><path d="M100.67,41.07h1.54a.21.21,0,0,1,.22.22v2.05a.68.68,0,0,1-.13.48l-1.37,1.8a.35.35,0,0,1-.28.16.2.2,0,0,1-.2-.2V41.29A.21.21,0,0,1,100.67,41.07Z"/><path d="M115.45,43.4a.21.21,0,0,1-.22-.22v-1h0a3.21,3.21,0,0,1-2.88,1.45c-2.31,0-3.65-1.58-3.65-4V33.08a.21.21,0,0,1,.22-.22h1.41a.21.21,0,0,1,.22.22v6.14c0,1.72.77,2.71,2.33,2.71a2.34,2.34,0,0,0,2.37-2.6V33.08a.21.21,0,0,1,.22-.22h1.41a.2.2,0,0,1,.22.22v10.1a.2.2,0,0,1-.22.22Z"/><path d="M119.08,42.06a.23.23,0,0,1,0-.31l.91-1a.22.22,0,0,1,.3,0A5.1,5.1,0,0,0,123.55,42c1.54,0,2.31-.66,2.31-1.6s-.4-1.3-2-1.48l-1.12-.11c-2.07-.22-3.14-1.25-3.14-3,0-2,1.43-3.21,3.91-3.21a6.3,6.3,0,0,1,3.74,1.17.21.21,0,0,1,0,.3l-.75.95a.21.21,0,0,1-.31,0,5.54,5.54,0,0,0-2.84-.85c-1.32,0-2,.59-2,1.45s.51,1.28,2.07,1.43l1.1.11c2.13.2,3.17,1.28,3.17,3,0,2.07-1.5,3.45-4.25,3.45A6.55,6.55,0,0,1,119.08,42.06Z"/><path d="M129.42,40.81a8,8,0,0,1-.35-2.69,7.92,7.92,0,0,1,.35-2.66,4.47,4.47,0,0,1,8.32,0,7.92,7.92,0,0,1,.35,2.66,8,8,0,0,1-.35,2.69,4.47,4.47,0,0,1-8.32,0Zm6.54-.53a7.13,7.13,0,0,0,.24-2.16A6.91,6.91,0,0,0,136,36a2.53,2.53,0,0,0-4.75,0,6.57,6.57,0,0,0-.25,2.13,6.77,6.77,0,0,0,.25,2.16,2.53,2.53,0,0,0,4.75,0Z"/><path d="M151.18,43.4a.21.21,0,0,1-.22-.22v-1h0a3.2,3.2,0,0,1-3,1.47,3.47,3.47,0,0,1-3.63-2.53,8.62,8.62,0,0,1-.38-3,8.61,8.61,0,0,1,.38-3A3.48,3.48,0,0,1,148,32.62a3.21,3.21,0,0,1,3,1.45h0V28.66a.21.21,0,0,1,.22-.22h1.41a.21.21,0,0,1,.22.22V43.18a.21.21,0,0,1-.22.22Zm-.46-3.08a6.63,6.63,0,0,0,.24-2.2,6.75,6.75,0,0,0-.24-2.2,2.49,2.49,0,0,0-4.64,0,7.3,7.3,0,0,0-.25,2.2,7.14,7.14,0,0,0,.25,2.2,2.48,2.48,0,0,0,4.64,0Z"/><path d="M155.25,40.78a8.25,8.25,0,0,1-.35-2.66,8.17,8.17,0,0,1,.33-2.66,4.43,4.43,0,0,1,8.27,0,9.18,9.18,0,0,1,.33,3,.21.21,0,0,1-.24.22h-6.67c-.09,0-.13.05-.13.14A3.9,3.9,0,0,0,157,40.1a2.6,2.6,0,0,0,2.66,1.83,3.47,3.47,0,0,0,2.71-1.17.22.22,0,0,1,.33,0l.9.81a.2.2,0,0,1,0,.31,5.12,5.12,0,0,1-4.11,1.8A4.07,4.07,0,0,1,155.25,40.78Zm6.56-3.56a.12.12,0,0,0,.13-.13,3.71,3.71,0,0,0-.15-1.19,2.6,2.6,0,0,0-4.84,0,3.43,3.43,0,0,0-.16,1.19.12.12,0,0,0,.13.13Z"/><path d="M170.54,47.36a.21.21,0,0,1-.22-.22V33.08a.21.21,0,0,1,.22-.22H172a.21.21,0,0,1,.22.22v1h0a3.21,3.21,0,0,1,3-1.45,3.48,3.48,0,0,1,3.63,2.53,8.61,8.61,0,0,1,.38,3,8.62,8.62,0,0,1-.38,3,3.47,3.47,0,0,1-3.63,2.53,3.2,3.2,0,0,1-3-1.47h0v5a.21.21,0,0,1-.22.22Zm6.51-7a7.14,7.14,0,0,0,.25-2.2,7.3,7.3,0,0,0-.25-2.2,2.49,2.49,0,0,0-4.64,0,7,7,0,0,0-.24,2.2,6.92,6.92,0,0,0,.24,2.2,2.48,2.48,0,0,0,4.64,0Z"/><path d="M181.5,43.4a.2.2,0,0,1-.22-.22V33.08a.2.2,0,0,1,.22-.22h1.41a.2.2,0,0,1,.21.22v1.08h0a2.93,2.93,0,0,1,2.79-1.54,3.26,3.26,0,0,1,2.16.79c.11.11.13.2,0,.31l-.81,1.08a.2.2,0,0,1-.31,0,2.93,2.93,0,0,0-1.63-.5c-1.61,0-2.27,1.25-2.27,3.08v5.76a.2.2,0,0,1-.21.22Z"/><path d="M188.73,40.81a8,8,0,0,1-.35-2.69,7.92,7.92,0,0,1,.35-2.66,4.47,4.47,0,0,1,8.32,0,7.92,7.92,0,0,1,.35,2.66,8,8,0,0,1-.35,2.69,4.47,4.47,0,0,1-8.32,0Zm6.54-.53a6.82,6.82,0,0,0,.24-2.16,6.61,6.61,0,0,0-.24-2.13,2.53,2.53,0,0,0-4.75,0,6.57,6.57,0,0,0-.25,2.13,6.77,6.77,0,0,0,.25,2.16,2.53,2.53,0,0,0,4.75,0Z"/><path d="M199.18,35.46a4.09,4.09,0,0,1,4.16-2.84A4.22,4.22,0,0,1,207,34.4c.07.11.07.2-.07.31l-1,.79a.2.2,0,0,1-.31,0,2.59,2.59,0,0,0-2.27-1.14A2.28,2.28,0,0,0,201,36a6.89,6.89,0,0,0-.24,2.13,7,7,0,0,0,.24,2.16,2.28,2.28,0,0,0,2.35,1.65,2.6,2.6,0,0,0,2.27-1.15.2.2,0,0,1,.31,0l1,.79c.14.11.14.2.07.31a4.22,4.22,0,0,1-3.61,1.78,4.09,4.09,0,0,1-4.16-2.83,9.43,9.43,0,0,1-.33-2.69A9.35,9.35,0,0,1,199.18,35.46Z"/><path d="M208.45,40.78a8.2,8.2,0,0,1-.36-2.66,8.17,8.17,0,0,1,.33-2.66,4.44,4.44,0,0,1,8.28,0,9.18,9.18,0,0,1,.33,3c0,.14-.09.22-.25.22h-6.66c-.09,0-.13.05-.13.14a3.93,3.93,0,0,0,.17,1.27,2.61,2.61,0,0,0,2.66,1.83,3.44,3.44,0,0,0,2.71-1.17.22.22,0,0,1,.33,0l.9.81a.2.2,0,0,1,0,.31,5.09,5.09,0,0,1-4.11,1.8A4.07,4.07,0,0,1,208.45,40.78ZM215,37.22a.12.12,0,0,0,.13-.13A3.71,3.71,0,0,0,215,35.9a2.6,2.6,0,0,0-4.84,0,3.71,3.71,0,0,0-.15,1.19.12.12,0,0,0,.13.13Z"/><path d="M225.72,43.4a.2.2,0,0,1-.22-.22v-1h0a3.18,3.18,0,0,1-3,1.47,3.48,3.48,0,0,1-3.63-2.53,8.9,8.9,0,0,1-.37-3,8.89,8.89,0,0,1,.37-3,3.49,3.49,0,0,1,3.63-2.53,3.19,3.19,0,0,1,3,1.45h0V28.66a.2.2,0,0,1,.22-.22h1.4a.2.2,0,0,1,.22.22V43.18a.2.2,0,0,1-.22.22Zm-.47-3.08a6.58,6.58,0,0,0,.25-2.2,6.69,6.69,0,0,0-.25-2.2,2.49,2.49,0,0,0-4.64,0,7.69,7.69,0,0,0-.24,2.2,7.51,7.51,0,0,0,.24,2.2,2.48,2.48,0,0,0,4.64,0Z"/><path d="M230.25,30.49a.21.21,0,0,1-.22-.22V28.66a.21.21,0,0,1,.22-.22h1.49a.2.2,0,0,1,.22.22v1.61a.2.2,0,0,1-.22.22Zm0,12.91a.21.21,0,0,1-.22-.22V33.08a.21.21,0,0,1,.22-.22h1.41a.21.21,0,0,1,.22.22v10.1a.21.21,0,0,1-.22.22Z"/><path d="M248.11,43.4a.21.21,0,0,1-.22-.22V37c0-1.69-.77-2.68-2.35-2.68a2.37,2.37,0,0,0-2.42,2.57v6.27a.21.21,0,0,1-.22.22h-1.41a.21.21,0,0,1-.22-.22V37c0-1.69-.77-2.68-2.35-2.68a2.36,2.36,0,0,0-2.42,2.57v6.27a.21.21,0,0,1-.23.22h-1.4a.2.2,0,0,1-.22-.22V33.08a.2.2,0,0,1,.22-.22h1.4a.21.21,0,0,1,.23.22v1h0a3.73,3.73,0,0,1,6,.22h0A3.92,3.92,0,0,1,246,32.62c2.44,0,3.76,1.56,3.76,4v6.6a.21.21,0,0,1-.22.22Z"/><path d="M252.53,30.49a.21.21,0,0,1-.22-.22V28.66a.21.21,0,0,1,.22-.22H254a.21.21,0,0,1,.22.22v1.61a.21.21,0,0,1-.22.22Zm.05,12.91a.2.2,0,0,1-.22-.22V33.08a.2.2,0,0,1,.22-.22H254a.2.2,0,0,1,.21.22v10.1a.2.2,0,0,1-.21.22Z"/><path d="M256.65,40.78a8.2,8.2,0,0,1-.36-2.66,8.17,8.17,0,0,1,.33-2.66,4.44,4.44,0,0,1,8.28,0,9.18,9.18,0,0,1,.33,3,.21.21,0,0,1-.24.22h-6.67c-.09,0-.13.05-.13.14a3.93,3.93,0,0,0,.17,1.27A2.61,2.61,0,0,0,261,41.93a3.44,3.44,0,0,0,2.71-1.17.22.22,0,0,1,.33,0l.9.81a.21.21,0,0,1,0,.31,5.13,5.13,0,0,1-4.12,1.8A4.07,4.07,0,0,1,256.65,40.78Zm6.55-3.56a.12.12,0,0,0,.13-.13,3.71,3.71,0,0,0-.15-1.19,2.6,2.6,0,0,0-4.84,0,3.71,3.71,0,0,0-.15,1.19.12.12,0,0,0,.13.13Z"/><path d="M274.16,43.4a.21.21,0,0,1-.22-.22V37c0-1.69-.77-2.68-2.36-2.68a2.36,2.36,0,0,0-2.42,2.57v6.27a.2.2,0,0,1-.22.22h-1.4a.2.2,0,0,1-.22-.22V33.08a.2.2,0,0,1,.22-.22h1.4a.2.2,0,0,1,.22.22v1h0a3.32,3.32,0,0,1,2.94-1.43c2.29,0,3.66,1.56,3.66,4v6.6a.21.21,0,0,1-.22.22Z"/><path d="M281.46,43.51c-2,0-2.84-.92-2.84-3v-6c0-.09,0-.13-.13-.13h-.88a.21.21,0,0,1-.22-.22V33.08a.21.21,0,0,1,.22-.22h.88c.09,0,.13,0,.13-.13v-3a.21.21,0,0,1,.22-.22h1.41a.21.21,0,0,1,.22.22v3a.12.12,0,0,0,.13.13h1.68a.21.21,0,0,1,.22.22v1.06a.21.21,0,0,1-.22.22H280.6a.12.12,0,0,0-.13.13v6c0,1.06.4,1.35,1.34,1.35h.47a.2.2,0,0,1,.22.22v1.27a.21.21,0,0,1-.22.22Z"/><path d="M284.19,40.81a8,8,0,0,1-.35-2.69,7.92,7.92,0,0,1,.35-2.66,4.47,4.47,0,0,1,8.32,0,7.92,7.92,0,0,1,.35,2.66,8,8,0,0,1-.35,2.69,4.47,4.47,0,0,1-8.32,0Zm6.53-.53a6.77,6.77,0,0,0,.25-2.16,6.57,6.57,0,0,0-.25-2.13A2.53,2.53,0,0,0,286,36a6.91,6.91,0,0,0-.24,2.13,7.13,7.13,0,0,0,.24,2.16,2.53,2.53,0,0,0,4.75,0Z"/><path d="M294.22,42.06a.21.21,0,0,1,0-.31l.9-1a.23.23,0,0,1,.31,0A5.07,5.07,0,0,0,298.69,42c1.54,0,2.31-.66,2.31-1.6s-.4-1.3-2.05-1.48l-1.12-.11c-2.07-.22-3.15-1.25-3.15-3,0-2,1.43-3.21,3.92-3.21a6.3,6.3,0,0,1,3.74,1.17c.11.06.11.19,0,.3l-.74.95a.21.21,0,0,1-.31,0,5.54,5.54,0,0,0-2.84-.85c-1.32,0-2,.59-2,1.45s.5,1.28,2.07,1.43l1.1.11c2.13.2,3.17,1.28,3.17,3,0,2.07-1.5,3.45-4.25,3.45A6.55,6.55,0,0,1,294.22,42.06Z"/><path d="M309,40.78a8.25,8.25,0,0,1-.35-2.66,8.17,8.17,0,0,1,.33-2.66,4.43,4.43,0,0,1,8.27,0,9.18,9.18,0,0,1,.33,3,.21.21,0,0,1-.24.22h-6.67a.12.12,0,0,0-.13.14,3.9,3.9,0,0,0,.18,1.27,2.6,2.6,0,0,0,2.66,1.83,3.47,3.47,0,0,0,2.71-1.17.22.22,0,0,1,.33,0l.9.81a.2.2,0,0,1,0,.31,5.12,5.12,0,0,1-4.11,1.8A4.07,4.07,0,0,1,309,40.78Zm6.56-3.56a.12.12,0,0,0,.13-.13,3.71,3.71,0,0,0-.15-1.19,2.6,2.6,0,0,0-4.84,0,3.68,3.68,0,0,0-.16,1.19.12.12,0,0,0,.13.13Z"/><path d="M318.9,42.06a.23.23,0,0,1,0-.31l.91-1a.22.22,0,0,1,.3,0A5.1,5.1,0,0,0,323.37,42c1.54,0,2.31-.66,2.31-1.6s-.39-1.3-2-1.48l-1.13-.11c-2.07-.22-3.14-1.25-3.14-3,0-2,1.43-3.21,3.91-3.21A6.3,6.3,0,0,1,327,33.79a.21.21,0,0,1,.05.3l-.75.95a.21.21,0,0,1-.31,0,5.54,5.54,0,0,0-2.84-.85c-1.32,0-2,.59-2,1.45s.51,1.28,2.07,1.43l1.1.11c2.13.2,3.17,1.28,3.17,3,0,2.07-1.5,3.45-4.25,3.45A6.55,6.55,0,0,1,318.9,42.06Z"/><path d="M332.59,43.51c-2,0-2.84-.92-2.84-3v-6c0-.09,0-.13-.13-.13h-.88a.21.21,0,0,1-.22-.22V33.08a.21.21,0,0,1,.22-.22h.88c.09,0,.13,0,.13-.13v-3a.21.21,0,0,1,.22-.22h1.41a.21.21,0,0,1,.22.22v3c0,.09,0,.13.13.13h1.67a.21.21,0,0,1,.22.22v1.06a.21.21,0,0,1-.22.22h-1.67c-.09,0-.13,0-.13.13v6c0,1.06.4,1.35,1.34,1.35h.46a.2.2,0,0,1,.22.22v1.27a.21.21,0,0,1-.22.22Z"/><path d="M342,43.4a.21.21,0,0,1-.22-.22v-.92h0a3.45,3.45,0,0,1-3.12,1.38c-2,0-3.55-1-3.55-3.16s1.54-3.26,4.12-3.26h2.4a.12.12,0,0,0,.13-.13v-.77c0-1.46-.57-2.07-2.53-2.07a4.07,4.07,0,0,0-2.55.75.2.2,0,0,1-.31,0l-.6-1a.24.24,0,0,1,0-.31,5.87,5.87,0,0,1,3.58-1c3,0,4.14,1,4.14,3.59v7a.21.21,0,0,1-.22.22ZM341.72,40V38.83a.12.12,0,0,0-.13-.14h-2.12c-1.82,0-2.61.53-2.61,1.72s.79,1.65,2.2,1.65C340.71,42.06,341.72,41.29,341.72,40Z"/><path d="M346.36,43.4a.21.21,0,0,1-.22-.22V28.66a.21.21,0,0,1,.22-.22h1.41a.21.21,0,0,1,.22.22v5.41h0a3.21,3.21,0,0,1,3-1.45,3.48,3.48,0,0,1,3.63,2.53,8.61,8.61,0,0,1,.38,3,8.62,8.62,0,0,1-.38,3A3.47,3.47,0,0,1,351,43.64a3.2,3.2,0,0,1-3-1.47h0v1a.21.21,0,0,1-.22.22Zm6.51-3.08a7.14,7.14,0,0,0,.25-2.2,7.3,7.3,0,0,0-.25-2.2,2.49,2.49,0,0,0-4.64,0,6.75,6.75,0,0,0-.24,2.2,6.63,6.63,0,0,0,.24,2.2,2.48,2.48,0,0,0,4.64,0Z"/><path d="M359.63,43.51c-1.85,0-2.58-.88-2.58-2.77V28.66a.21.21,0,0,1,.22-.22h1.41a.21.21,0,0,1,.22.22v12c0,.88.33,1.17,1.06,1.17h.41a.2.2,0,0,1,.22.22v1.27a.2.2,0,0,1-.22.22Z"/><path d="M362,40.78a8.25,8.25,0,0,1-.35-2.66,8.17,8.17,0,0,1,.33-2.66,4.43,4.43,0,0,1,8.27,0,8.91,8.91,0,0,1,.33,3c0,.14-.08.22-.24.22H363.7a.13.13,0,0,0-.14.14,3.9,3.9,0,0,0,.18,1.27,2.6,2.6,0,0,0,2.66,1.83,3.44,3.44,0,0,0,2.71-1.17.22.22,0,0,1,.33,0l.9.81a.2.2,0,0,1,0,.31,5.09,5.09,0,0,1-4.11,1.8A4.08,4.08,0,0,1,362,40.78Zm6.56-3.56a.12.12,0,0,0,.13-.13,3.71,3.71,0,0,0-.15-1.19,2.6,2.6,0,0,0-4.84,0,3.68,3.68,0,0,0-.16,1.19.12.12,0,0,0,.14.13Z"/><path d="M372.39,35.46a4.07,4.07,0,0,1,4.15-2.84,4.22,4.22,0,0,1,3.61,1.78c.07.11.07.2-.06.31l-1,.79a.2.2,0,0,1-.31,0,2.59,2.59,0,0,0-2.27-1.14A2.28,2.28,0,0,0,374.19,36a6.89,6.89,0,0,0-.24,2.13,7,7,0,0,0,.24,2.16,2.28,2.28,0,0,0,2.35,1.65,2.6,2.6,0,0,0,2.27-1.15.2.2,0,0,1,.31,0l1,.79c.13.11.13.2.06.31a4.22,4.22,0,0,1-3.61,1.78,4.07,4.07,0,0,1-4.15-2.83,9.08,9.08,0,0,1-.33-2.69A9,9,0,0,1,372.39,35.46Z"/><path d="M382.37,30.49a.21.21,0,0,1-.22-.22V28.66a.21.21,0,0,1,.22-.22h1.5a.21.21,0,0,1,.22.22v1.61a.21.21,0,0,1-.22.22Zm.05,12.91a.21.21,0,0,1-.22-.22V33.08a.21.21,0,0,1,.22-.22h1.41a.21.21,0,0,1,.22.22v10.1a.21.21,0,0,1-.22.22Z"/><path d="M393.37,43.4a.21.21,0,0,1-.22-.22v-1h0a3.19,3.19,0,0,1-3,1.47,3.47,3.47,0,0,1-3.63-2.53,8.62,8.62,0,0,1-.38-3,8.61,8.61,0,0,1,.38-3,3.48,3.48,0,0,1,3.63-2.53,3.2,3.2,0,0,1,3,1.45h0V28.66a.21.21,0,0,1,.22-.22h1.41a.21.21,0,0,1,.22.22V43.18a.21.21,0,0,1-.22.22Zm-.46-3.08a6.63,6.63,0,0,0,.24-2.2,6.75,6.75,0,0,0-.24-2.2,2.49,2.49,0,0,0-4.64,0,7.35,7.35,0,0,0-.24,2.2,7.18,7.18,0,0,0,.24,2.2,2.48,2.48,0,0,0,4.64,0Z"/><path d="M397.44,40.81a8,8,0,0,1-.35-2.69,7.92,7.92,0,0,1,.35-2.66,4.47,4.47,0,0,1,8.32,0,7.92,7.92,0,0,1,.35,2.66,8,8,0,0,1-.35,2.69,4.47,4.47,0,0,1-8.32,0Zm6.54-.53a7.13,7.13,0,0,0,.24-2.16A6.91,6.91,0,0,0,404,36a2.54,2.54,0,0,0-4.76,0,6.91,6.91,0,0,0-.24,2.13,7.13,7.13,0,0,0,.24,2.16,2.54,2.54,0,0,0,4.76,0Z"/><path d="M407.47,42.06a.23.23,0,0,1,0-.31l.91-1a.22.22,0,0,1,.3,0A5.12,5.12,0,0,0,411.94,42c1.54,0,2.31-.66,2.31-1.6s-.39-1.3-2-1.48l-1.13-.11c-2.07-.22-3.14-1.25-3.14-3,0-2,1.43-3.21,3.91-3.21a6.3,6.3,0,0,1,3.74,1.17.21.21,0,0,1,.05.3l-.75.95a.21.21,0,0,1-.31,0,5.54,5.54,0,0,0-2.84-.85c-1.32,0-2,.59-2,1.45s.51,1.28,2.07,1.43l1.1.11c2.13.2,3.17,1.28,3.17,3,0,2.07-1.5,3.45-4.25,3.45A6.57,6.57,0,0,1,407.47,42.06Z"/><path d="M422.72,47.36a.21.21,0,0,1-.22-.22V33.08a.21.21,0,0,1,.22-.22h1.41a.21.21,0,0,1,.22.22v1h0a3.21,3.21,0,0,1,3-1.45A3.48,3.48,0,0,1,431,35.15a8.61,8.61,0,0,1,.38,3,8.62,8.62,0,0,1-.38,3,3.47,3.47,0,0,1-3.63,2.53,3.2,3.2,0,0,1-3-1.47h0v5a.21.21,0,0,1-.22.22Zm6.51-7a7.14,7.14,0,0,0,.25-2.2,7.3,7.3,0,0,0-.25-2.2,2.49,2.49,0,0,0-4.64,0,7,7,0,0,0-.24,2.2,6.92,6.92,0,0,0,.24,2.2,2.48,2.48,0,0,0,4.64,0Z"/><path d="M439.84,43.4a.21.21,0,0,1-.22-.22v-.92h0a3.44,3.44,0,0,1-3.12,1.38c-2,0-3.54-1-3.54-3.16s1.54-3.26,4.11-3.26h2.4a.12.12,0,0,0,.13-.13v-.77c0-1.46-.57-2.07-2.53-2.07a4.09,4.09,0,0,0-2.55.75.2.2,0,0,1-.31,0l-.59-1a.23.23,0,0,1,0-.31,5.9,5.9,0,0,1,3.59-1c3,0,4.14,1,4.14,3.59v7a.21.21,0,0,1-.22.22ZM439.57,40V38.83c0-.09,0-.14-.13-.14h-2.11c-1.83,0-2.62.53-2.62,1.72s.79,1.65,2.2,1.65C438.56,42.06,439.57,41.29,439.57,40Z"/><path d="M444.21,43.4a.21.21,0,0,1-.22-.22V33.08a.21.21,0,0,1,.22-.22h1.41a.21.21,0,0,1,.22.22v1.08h0a3,3,0,0,1,2.8-1.54,3.26,3.26,0,0,1,2.16.79c.1.11.13.2,0,.31L450,34.8a.19.19,0,0,1-.3,0,3,3,0,0,0-1.63-.5c-1.61,0-2.27,1.25-2.27,3.08v5.76a.21.21,0,0,1-.22.22Z"/><path d="M458,43.4a.21.21,0,0,1-.22-.22v-.92h0a3.47,3.47,0,0,1-3.13,1.38c-2,0-3.54-1-3.54-3.16s1.54-3.26,4.11-3.26h2.4a.12.12,0,0,0,.13-.13v-.77c0-1.46-.57-2.07-2.53-2.07a4.09,4.09,0,0,0-2.55.75.2.2,0,0,1-.31,0l-.59-1a.23.23,0,0,1,0-.31,5.92,5.92,0,0,1,3.59-1c3,0,4.14,1,4.14,3.59v7a.21.21,0,0,1-.22.22ZM457.72,40V38.83c0-.09,0-.14-.13-.14h-2.11c-1.83,0-2.62.53-2.62,1.72s.79,1.65,2.2,1.65C456.71,42.06,457.72,41.29,457.72,40Z"/><path d="M469.6,43.51c-2,0-2.84-.92-2.84-3v-6c0-.09,0-.13-.13-.13h-.88a.21.21,0,0,1-.22-.22V33.08a.21.21,0,0,1,.22-.22h.88c.09,0,.13,0,.13-.13v-3a.21.21,0,0,1,.22-.22h1.41a.21.21,0,0,1,.22.22v3a.12.12,0,0,0,.13.13h1.68a.21.21,0,0,1,.22.22v1.06a.21.21,0,0,1-.22.22h-1.68a.12.12,0,0,0-.13.13v6c0,1.06.4,1.35,1.34,1.35h.47a.2.2,0,0,1,.22.22v1.27a.21.21,0,0,1-.22.22Z"/><path d="M472.84,43.4a.2.2,0,0,1-.22-.22V33.08a.2.2,0,0,1,.22-.22h1.4a.2.2,0,0,1,.22.22v1.08h0a2.93,2.93,0,0,1,2.79-1.54,3.26,3.26,0,0,1,2.16.79c.11.11.13.2,0,.31l-.81,1.08a.2.2,0,0,1-.31,0,3,3,0,0,0-1.63-.5c-1.61,0-2.27,1.25-2.27,3.08v5.76a.2.2,0,0,1-.22.22Z"/><path d="M486.61,43.4a.21.21,0,0,1-.22-.22v-.92h0a3.47,3.47,0,0,1-3.13,1.38c-2,0-3.54-1-3.54-3.16s1.54-3.26,4.11-3.26h2.4a.12.12,0,0,0,.13-.13v-.77c0-1.46-.57-2.07-2.53-2.07a4.12,4.12,0,0,0-2.55.75.2.2,0,0,1-.31,0l-.59-1a.24.24,0,0,1,0-.31,5.92,5.92,0,0,1,3.59-1c3,0,4.14,1,4.14,3.59v7a.21.21,0,0,1-.22.22ZM486.34,40V38.83c0-.09,0-.14-.13-.14H484.1c-1.83,0-2.62.53-2.62,1.72s.79,1.65,2.2,1.65C485.33,42.06,486.34,41.29,486.34,40Z"/><path d="M491,43.4a.21.21,0,0,1-.23-.22V28.66a.21.21,0,0,1,.23-.22h1.4a.2.2,0,0,1,.22.22v5.41h0a3.19,3.19,0,0,1,3-1.45,3.49,3.49,0,0,1,3.63,2.53,8.89,8.89,0,0,1,.37,3,8.9,8.9,0,0,1-.37,3,3.48,3.48,0,0,1-3.63,2.53,3.18,3.18,0,0,1-3-1.47h0v1a.2.2,0,0,1-.22.22Zm6.51-3.08a7.51,7.51,0,0,0,.24-2.2,7.69,7.69,0,0,0-.24-2.2,2.49,2.49,0,0,0-4.64,0,6.69,6.69,0,0,0-.25,2.2,6.58,6.58,0,0,0,.25,2.2,2.48,2.48,0,0,0,4.64,0Z"/><path d="M508.1,43.4a.21.21,0,0,1-.22-.22v-.92h0a3.45,3.45,0,0,1-3.12,1.38c-2,0-3.55-1-3.55-3.16s1.54-3.26,4.12-3.26h2.4a.12.12,0,0,0,.13-.13v-.77c0-1.46-.57-2.07-2.53-2.07a4.13,4.13,0,0,0-2.56.75.19.19,0,0,1-.3,0l-.6-1a.24.24,0,0,1,0-.31,5.87,5.87,0,0,1,3.58-1c3,0,4.14,1,4.14,3.59v7a.21.21,0,0,1-.22.22ZM507.84,40V38.83a.12.12,0,0,0-.13-.14h-2.12c-1.82,0-2.61.53-2.61,1.72s.79,1.65,2.2,1.65C506.83,42.06,507.84,41.29,507.84,40Z"/><path d="M510.52,47.36a.21.21,0,0,1-.22-.22V45.87a.2.2,0,0,1,.22-.22h.35c1,0,1.39-.29,1.39-1.41V33.08a.21.21,0,0,1,.22-.22h1.41a.21.21,0,0,1,.22.22V44.19c0,2.27-1,3.17-3.15,3.17Zm1.92-16.87a.2.2,0,0,1-.22-.22V28.66a.2.2,0,0,1,.22-.22h1.49a.21.21,0,0,1,.22.22v1.61a.21.21,0,0,1-.22.22Z"/><path d="M516.55,40.81a8,8,0,0,1-.35-2.69,7.92,7.92,0,0,1,.35-2.66,4.47,4.47,0,0,1,8.32,0,7.92,7.92,0,0,1,.35,2.66,8,8,0,0,1-.35,2.69,4.47,4.47,0,0,1-8.32,0Zm6.53-.53a6.77,6.77,0,0,0,.25-2.16,6.57,6.57,0,0,0-.25-2.13,2.53,2.53,0,0,0-4.75,0,6.91,6.91,0,0,0-.24,2.13,7.13,7.13,0,0,0,.24,2.16,2.53,2.53,0,0,0,4.75,0Z"/><path d="M531.42,40.78a8.25,8.25,0,0,1-.35-2.66,8.17,8.17,0,0,1,.33-2.66,4.43,4.43,0,0,1,8.27,0,9.18,9.18,0,0,1,.33,3,.21.21,0,0,1-.24.22h-6.67c-.09,0-.13.05-.13.14a3.9,3.9,0,0,0,.18,1.27,2.6,2.6,0,0,0,2.66,1.83,3.43,3.43,0,0,0,2.7-1.17c.12-.11.23-.13.33,0l.91.81a.2.2,0,0,1,0,.31,5.12,5.12,0,0,1-4.11,1.8A4.07,4.07,0,0,1,531.42,40.78ZM538,37.22a.12.12,0,0,0,.13-.13A3.71,3.71,0,0,0,538,35.9a2.61,2.61,0,0,0-4.85,0,3.71,3.71,0,0,0-.15,1.19.12.12,0,0,0,.13.13Z"/><path d="M548.93,43.4a.21.21,0,0,1-.22-.22V37c0-1.69-.77-2.68-2.35-2.68a2.36,2.36,0,0,0-2.42,2.57v6.27a.21.21,0,0,1-.22.22h-1.41a.21.21,0,0,1-.22-.22V33.08a.21.21,0,0,1,.22-.22h1.41a.21.21,0,0,1,.22.22v1h0a3.35,3.35,0,0,1,2.95-1.43c2.29,0,3.65,1.56,3.65,4v6.6a.21.21,0,0,1-.22.22Z"/><path d="M564,43.4a.21.21,0,0,1-.22-.22v-.92h0a3.47,3.47,0,0,1-3.13,1.38c-2,0-3.54-1-3.54-3.16s1.54-3.26,4.12-3.26h2.39a.12.12,0,0,0,.13-.13v-.77c0-1.46-.57-2.07-2.52-2.07a4.13,4.13,0,0,0-2.56.75.2.2,0,0,1-.31,0l-.59-1a.24.24,0,0,1,0-.31,5.92,5.92,0,0,1,3.59-1c3,0,4.14,1,4.14,3.59v7a.21.21,0,0,1-.22.22ZM563.69,40V38.83c0-.09,0-.14-.13-.14h-2.11c-1.83,0-2.62.53-2.62,1.72s.79,1.65,2.2,1.65C562.68,42.06,563.69,41.29,563.69,40Z"/><path d="M570.65,43.51c-1.85,0-2.58-.88-2.58-2.77V28.66a.21.21,0,0,1,.22-.22h1.41a.21.21,0,0,1,.22.22v12c0,.88.33,1.17,1.06,1.17h.41a.2.2,0,0,1,.22.22v1.27a.2.2,0,0,1-.22.22Z"/><path d="M576.28,43.51c-2,0-2.84-.92-2.84-3v-6c0-.09,0-.13-.13-.13h-.88a.21.21,0,0,1-.22-.22V33.08a.21.21,0,0,1,.22-.22h.88c.09,0,.13,0,.13-.13v-3a.21.21,0,0,1,.22-.22h1.41a.21.21,0,0,1,.22.22v3c0,.09,0,.13.13.13h1.67a.21.21,0,0,1,.22.22v1.06a.21.21,0,0,1-.22.22h-1.67c-.09,0-.13,0-.13.13v6c0,1.06.39,1.35,1.34,1.35h.46a.2.2,0,0,1,.22.22v1.27a.21.21,0,0,1-.22.22Z"/><path d="M585.92,43.4a.21.21,0,0,1-.23-.22v-1h0a3.21,3.21,0,0,1-2.88,1.45c-2.31,0-3.65-1.58-3.65-4V33.08a.21.21,0,0,1,.22-.22h1.41a.21.21,0,0,1,.22.22v6.14c0,1.72.77,2.71,2.33,2.71a2.34,2.34,0,0,0,2.37-2.6V33.08a.21.21,0,0,1,.23-.22h1.4a.21.21,0,0,1,.22.22v10.1a.21.21,0,0,1-.22.22Z"/><path d="M590.49,43.4a.21.21,0,0,1-.22-.22V33.08a.21.21,0,0,1,.22-.22h1.41a.21.21,0,0,1,.22.22v1.08h0a2.94,2.94,0,0,1,2.79-1.54,3.26,3.26,0,0,1,2.16.79c.11.11.13.2,0,.31l-.81,1.08a.2.2,0,0,1-.31,0,2.93,2.93,0,0,0-1.63-.5c-1.6,0-2.26,1.25-2.26,3.08v5.76a.21.21,0,0,1-.22.22Z"/><path d="M604.26,43.4a.21.21,0,0,1-.22-.22v-.92h0a3.45,3.45,0,0,1-3.12,1.38c-2,0-3.55-1-3.55-3.16s1.54-3.26,4.12-3.26h2.4a.12.12,0,0,0,.13-.13v-.77c0-1.46-.57-2.07-2.53-2.07a4.07,4.07,0,0,0-2.55.75.2.2,0,0,1-.31,0l-.6-1a.24.24,0,0,1,0-.31,5.87,5.87,0,0,1,3.58-1c3,0,4.14,1,4.14,3.59v7a.21.21,0,0,1-.22.22ZM604,40V38.83a.12.12,0,0,0-.13-.14h-2.12c-1.82,0-2.61.53-2.61,1.72s.79,1.65,2.19,1.65C603,42.06,604,41.29,604,40Z"/><path d="M607.69,42.06a.21.21,0,0,1,0-.31l.9-1a.23.23,0,0,1,.31,0A5.1,5.1,0,0,0,612.16,42c1.54,0,2.31-.66,2.31-1.6s-.4-1.3-2.05-1.48l-1.12-.11c-2.07-.22-3.14-1.25-3.14-3,0-2,1.42-3.21,3.91-3.21a6.3,6.3,0,0,1,3.74,1.17.21.21,0,0,1,.05.3l-.75.95a.21.21,0,0,1-.31,0,5.54,5.54,0,0,0-2.84-.85c-1.32,0-2,.59-2,1.45s.51,1.28,2.07,1.43l1.1.11c2.13.2,3.17,1.28,3.17,3,0,2.07-1.5,3.45-4.25,3.45A6.55,6.55,0,0,1,607.69,42.06Z"/><path d="M618.27,41.07h1.55a.21.21,0,0,1,.22.22v2.05a.69.69,0,0,1-.14.48l-1.36,1.8a.36.36,0,0,1-.29.16.2.2,0,0,1-.2-.2V41.29A.21.21,0,0,1,618.27,41.07Z"/><path d="M.86,71.4a.21.21,0,0,1-.22-.22V61.08a.21.21,0,0,1,.22-.22H2.27a.21.21,0,0,1,.22.22v1.08h0A2.93,2.93,0,0,1,5.3,60.62a3.26,3.26,0,0,1,2.16.79c.11.11.13.2,0,.31L6.69,62.8a.2.2,0,0,1-.31,0,2.93,2.93,0,0,0-1.63-.5c-1.6,0-2.26,1.25-2.26,3.08v5.76a.21.21,0,0,1-.22.22Z"/><path d="M8.1,68.78a10.43,10.43,0,0,1,0-5.32,4.08,4.08,0,0,1,4.14-2.84,4.08,4.08,0,0,1,4.14,2.84,9.18,9.18,0,0,1,.33,3c0,.14-.09.22-.25.22H9.77c-.09,0-.13,0-.13.14a3.93,3.93,0,0,0,.17,1.27,2.61,2.61,0,0,0,2.66,1.83,3.44,3.44,0,0,0,2.71-1.17.22.22,0,0,1,.33,0l.9.81a.2.2,0,0,1,0,.31,5.09,5.09,0,0,1-4.11,1.8A4.07,4.07,0,0,1,8.1,68.78Zm6.55-3.56a.12.12,0,0,0,.13-.13,3.71,3.71,0,0,0-.15-1.19,2.37,2.37,0,0,0-2.42-1.65A2.37,2.37,0,0,0,9.79,63.9a3.71,3.71,0,0,0-.15,1.19.12.12,0,0,0,.13.13Z"/><path d="M19,75.36a.2.2,0,0,1-.22-.22V61.08a.2.2,0,0,1,.22-.22h1.4a.2.2,0,0,1,.22.22v1h0a3.19,3.19,0,0,1,3-1.45,3.49,3.49,0,0,1,3.63,2.53,8.89,8.89,0,0,1,.37,3,8.9,8.9,0,0,1-.37,3,3.48,3.48,0,0,1-3.63,2.53,3.18,3.18,0,0,1-3-1.47h0v5a.2.2,0,0,1-.22.22Zm6.51-7a7.51,7.51,0,0,0,.24-2.2,7.69,7.69,0,0,0-.24-2.2,2.24,2.24,0,0,0-2.31-1.58,2.23,2.23,0,0,0-2.33,1.58,6.69,6.69,0,0,0-.25,2.2,6.58,6.58,0,0,0,.25,2.2,2.25,2.25,0,0,0,2.33,1.61A2.25,2.25,0,0,0,25.5,68.32Z"/><path d="M29.43,68.81a8,8,0,0,1-.35-2.69,7.88,7.88,0,0,1,.35-2.66,4.08,4.08,0,0,1,4.16-2.84,4.06,4.06,0,0,1,4.16,2.84,7.63,7.63,0,0,1,.35,2.66,7.78,7.78,0,0,1-.35,2.69,4.09,4.09,0,0,1-4.16,2.83A4.11,4.11,0,0,1,29.43,68.81ZM36,68.28a6.82,6.82,0,0,0,.24-2.16A6.61,6.61,0,0,0,36,64a2.53,2.53,0,0,0-4.75,0A6.61,6.61,0,0,0,31,66.12a6.82,6.82,0,0,0,.24,2.16,2.53,2.53,0,0,0,4.75,0Z"/><path d="M40.41,71.4a.21.21,0,0,1-.22-.22V61.08a.21.21,0,0,1,.22-.22h1.41a.21.21,0,0,1,.22.22v1.08h0a3,3,0,0,1,2.8-1.54,3.24,3.24,0,0,1,2.15.79c.11.11.14.2.05.31l-.82,1.08a.19.19,0,0,1-.3,0,3,3,0,0,0-1.63-.5c-1.61,0-2.27,1.25-2.27,3.08v5.76a.21.21,0,0,1-.22.22Z"/><path d="M51.39,71.51c-2,0-2.84-.92-2.84-3v-6c0-.09,0-.13-.13-.13h-.88a.21.21,0,0,1-.22-.22V61.08a.21.21,0,0,1,.22-.22h.88c.09,0,.13,0,.13-.13v-3a.21.21,0,0,1,.22-.22h1.41a.21.21,0,0,1,.22.22v3a.12.12,0,0,0,.13.13h1.68a.21.21,0,0,1,.22.22v1.06a.21.21,0,0,1-.22.22H50.53a.12.12,0,0,0-.13.13v6c0,1.06.4,1.35,1.34,1.35h.47a.2.2,0,0,1,.22.22v1.27a.21.21,0,0,1-.22.22Z"/><path d="M54.12,68.78a10.58,10.58,0,0,1,0-5.32,4.43,4.43,0,0,1,8.27,0,9.18,9.18,0,0,1,.33,3,.21.21,0,0,1-.24.22H55.79c-.09,0-.13,0-.13.14a4.23,4.23,0,0,0,.17,1.27,2.62,2.62,0,0,0,2.67,1.83,3.43,3.43,0,0,0,2.7-1.17.22.22,0,0,1,.33,0l.91.81a.2.2,0,0,1,0,.31,5.13,5.13,0,0,1-4.12,1.8A4.07,4.07,0,0,1,54.12,68.78Zm6.56-3.56a.12.12,0,0,0,.13-.13,3.68,3.68,0,0,0-.16-1.19,2.6,2.6,0,0,0-4.84,0,3.71,3.71,0,0,0-.15,1.19.12.12,0,0,0,.13.13Z"/><path d="M68.46,70.06a.21.21,0,0,1,0-.31l.9-1a.23.23,0,0,1,.31,0A5.07,5.07,0,0,0,72.93,70c1.54,0,2.31-.66,2.31-1.6s-.4-1.3-2-1.48l-1.12-.11c-2.07-.22-3.15-1.25-3.15-3,0-2,1.43-3.21,3.92-3.21a6.3,6.3,0,0,1,3.74,1.17.21.21,0,0,1,0,.3l-.75.95a.21.21,0,0,1-.31,0,5.54,5.54,0,0,0-2.84-.85c-1.32,0-2,.59-2,1.45s.5,1.28,2.07,1.43l1.1.11c2.13.2,3.17,1.28,3.17,3,0,2.07-1.5,3.45-4.25,3.45A6.55,6.55,0,0,1,68.46,70.06Z"/><path d="M79.26,58.49a.21.21,0,0,1-.22-.22V56.66a.21.21,0,0,1,.22-.22h1.5a.21.21,0,0,1,.22.22v1.61a.21.21,0,0,1-.22.22Zm0,12.91a.21.21,0,0,1-.22-.22V61.08a.21.21,0,0,1,.22-.22h1.41a.21.21,0,0,1,.22.22v10.1a.21.21,0,0,1-.22.22Z"/><path d="M86.72,71.51c-2,0-2.84-.92-2.84-3v-6c0-.09,0-.13-.13-.13h-.88a.21.21,0,0,1-.22-.22V61.08a.21.21,0,0,1,.22-.22h.88c.09,0,.13,0,.13-.13v-3a.21.21,0,0,1,.22-.22h1.41a.21.21,0,0,1,.22.22v3a.12.12,0,0,0,.13.13h1.68a.21.21,0,0,1,.22.22v1.06a.21.21,0,0,1-.22.22H85.86a.12.12,0,0,0-.13.13v6c0,1.06.4,1.35,1.34,1.35h.47a.2.2,0,0,1,.22.22v1.27a.21.21,0,0,1-.22.22Z"/><path d="M96.36,71.4a.21.21,0,0,1-.22-.22v-1h0a3.22,3.22,0,0,1-2.89,1.45c-2.31,0-3.65-1.58-3.65-4V61.08a.21.21,0,0,1,.22-.22h1.41a.21.21,0,0,1,.22.22v6.14c0,1.72.77,2.71,2.33,2.71a2.34,2.34,0,0,0,2.38-2.6V61.08a.21.21,0,0,1,.22-.22h1.41a.21.21,0,0,1,.22.22v10.1a.21.21,0,0,1-.22.22Z"/><path d="M107.09,71.4a.21.21,0,0,1-.22-.22v-.92h0a3.45,3.45,0,0,1-3.12,1.38c-2,0-3.55-1-3.55-3.16s1.55-3.26,4.12-3.26h2.4a.12.12,0,0,0,.13-.13v-.77c0-1.46-.57-2.07-2.53-2.07a4.07,4.07,0,0,0-2.55.75.2.2,0,0,1-.31,0l-.6-1a.24.24,0,0,1,0-.31,5.88,5.88,0,0,1,3.59-1c3,0,4.13,1,4.13,3.59v7a.21.21,0,0,1-.22.22ZM106.83,68V66.83c0-.09,0-.14-.13-.14h-2.12c-1.82,0-2.61.53-2.61,1.72s.79,1.65,2.2,1.65C105.82,70.06,106.83,69.29,106.83,68Z"/><path d="M110.94,63.46a4.09,4.09,0,0,1,4.16-2.84,4.22,4.22,0,0,1,3.61,1.78c.07.11.07.2-.07.31l-1,.79a.2.2,0,0,1-.31,0,2.59,2.59,0,0,0-2.27-1.14A2.28,2.28,0,0,0,112.75,64a6.85,6.85,0,0,0-.25,2.13,6.94,6.94,0,0,0,.25,2.16,2.28,2.28,0,0,0,2.35,1.65,2.6,2.6,0,0,0,2.27-1.15.2.2,0,0,1,.31,0l1,.79c.14.11.14.2.07.31a4.22,4.22,0,0,1-3.61,1.78,4.09,4.09,0,0,1-4.16-2.83,11,11,0,0,1,0-5.35Z"/><path d="M120.93,58.49a.21.21,0,0,1-.22-.22V56.66a.21.21,0,0,1,.22-.22h1.5a.21.21,0,0,1,.22.22v1.61a.21.21,0,0,1-.22.22Zm0,12.91a.21.21,0,0,1-.23-.22V61.08a.21.21,0,0,1,.23-.22h1.4a.21.21,0,0,1,.22.22v10.1a.21.21,0,0,1-.22.22Z"/><path d="M125,68.81a8,8,0,0,1-.35-2.69,7.88,7.88,0,0,1,.35-2.66,4.47,4.47,0,0,1,8.32,0,7.88,7.88,0,0,1,.35,2.66,8,8,0,0,1-.35,2.69,4.47,4.47,0,0,1-8.32,0Zm6.54-.53a7.13,7.13,0,0,0,.24-2.16,6.91,6.91,0,0,0-.24-2.13,2.53,2.53,0,0,0-4.75,0,6.57,6.57,0,0,0-.25,2.13,6.77,6.77,0,0,0,.25,2.16,2.53,2.53,0,0,0,4.75,0Zm-3.17-9.13c-.13,0-.2-.09-.13-.22L130,56.22a.4.4,0,0,1,.38-.22h1.45c.13,0,.2.11.11.22l-2,2.71a.44.44,0,0,1-.42.22Z"/><path d="M142.65,71.4a.21.21,0,0,1-.23-.22V65c0-1.69-.76-2.68-2.35-2.68a2.36,2.36,0,0,0-2.42,2.57v6.27a.21.21,0,0,1-.22.22H136a.21.21,0,0,1-.22-.22V61.08a.21.21,0,0,1,.22-.22h1.41a.21.21,0,0,1,.22.22v1h0a3.35,3.35,0,0,1,3-1.43c2.29,0,3.65,1.56,3.65,4v6.6a.2.2,0,0,1-.22.22Z"/><path d="M157.67,71.4a.21.21,0,0,1-.22-.22v-.92h0a3.47,3.47,0,0,1-3.13,1.38c-2,0-3.54-1-3.54-3.16s1.54-3.26,4.12-3.26h2.39a.12.12,0,0,0,.14-.13v-.77c0-1.46-.58-2.07-2.53-2.07a4.13,4.13,0,0,0-2.56.75c-.11.08-.24.08-.3,0l-.6-1a.24.24,0,0,1,.05-.31,5.87,5.87,0,0,1,3.58-1c3,0,4.14,1,4.14,3.59v7a.21.21,0,0,1-.22.22ZM157.41,68V66.83a.13.13,0,0,0-.14-.14h-2.11c-1.82,0-2.62.53-2.62,1.72s.8,1.65,2.21,1.65C156.4,70.06,157.41,69.29,157.41,68Z"/><path d="M169.29,71.51c-2,0-2.84-.92-2.84-3v-6a.12.12,0,0,0-.13-.13h-.88a.2.2,0,0,1-.22-.22V61.08a.2.2,0,0,1,.22-.22h.88a.12.12,0,0,0,.13-.13v-3a.21.21,0,0,1,.22-.22h1.41a.21.21,0,0,1,.22.22v3c0,.09,0,.13.13.13h1.67a.21.21,0,0,1,.22.22v1.06a.21.21,0,0,1-.22.22h-1.67c-.09,0-.13,0-.13.13v6c0,1.06.39,1.35,1.34,1.35h.46a.2.2,0,0,1,.22.22v1.27a.21.21,0,0,1-.22.22Z"/><path d="M172.52,71.4a.21.21,0,0,1-.22-.22V61.08a.21.21,0,0,1,.22-.22h1.41a.21.21,0,0,1,.22.22v1.08h0A2.94,2.94,0,0,1,177,60.62a3.26,3.26,0,0,1,2.16.79c.11.11.13.2,0,.31l-.82,1.08a.2.2,0,0,1-.31,0,2.93,2.93,0,0,0-1.63-.5c-1.6,0-2.26,1.25-2.26,3.08v5.76a.21.21,0,0,1-.22.22Z"/><path d="M186.29,71.4a.21.21,0,0,1-.22-.22v-.92h0a3.45,3.45,0,0,1-3.12,1.38c-2,0-3.55-1-3.55-3.16s1.54-3.26,4.12-3.26h2.4a.12.12,0,0,0,.13-.13v-.77c0-1.46-.57-2.07-2.53-2.07A4.07,4.07,0,0,0,181,63a.2.2,0,0,1-.31,0l-.6-1a.24.24,0,0,1,.05-.31,5.87,5.87,0,0,1,3.58-1c3,0,4.14,1,4.14,3.59v7a.21.21,0,0,1-.22.22ZM186,68V66.83a.12.12,0,0,0-.13-.14h-2.12c-1.82,0-2.61.53-2.61,1.72s.79,1.65,2.2,1.65C185,70.06,186,69.29,186,68Z"/><path d="M193.2,71.4a.26.26,0,0,1-.26-.22l-3.79-10.1c0-.13,0-.22.18-.22h1.51c.16,0,.23.07.29.22l2.73,7.57h0l2.67-7.57a.26.26,0,0,1,.26-.22h1.5c.15,0,.22.09.17.22l-3.76,10.1a.28.28,0,0,1-.29.22Z"/><path d="M199.62,68.78a10.58,10.58,0,0,1,0-5.32,4.43,4.43,0,0,1,8.27,0,9.18,9.18,0,0,1,.33,3c0,.14-.08.22-.24.22H201.3a.13.13,0,0,0-.14.14,3.9,3.9,0,0,0,.18,1.27A2.6,2.6,0,0,0,204,69.93a3.44,3.44,0,0,0,2.71-1.17.22.22,0,0,1,.33,0l.9.81a.2.2,0,0,1,0,.31,5.09,5.09,0,0,1-4.11,1.8A4.08,4.08,0,0,1,199.62,68.78Zm6.56-3.56a.12.12,0,0,0,.13-.13,3.71,3.71,0,0,0-.15-1.19,2.6,2.6,0,0,0-4.84,0,3.68,3.68,0,0,0-.16,1.19.12.12,0,0,0,.14.13Zm-3.28-6.07c-.13,0-.2-.09-.13-.22l1.67-2.71a.4.4,0,0,1,.38-.22h1.45c.13,0,.2.11.11.22l-2,2.71a.44.44,0,0,1-.41.22Z"/><path d="M209.57,70.06a.21.21,0,0,1,0-.31l.9-1a.23.23,0,0,1,.31,0A5.07,5.07,0,0,0,214,70c1.54,0,2.31-.66,2.31-1.6s-.39-1.3-2-1.48l-1.13-.11c-2.06-.22-3.14-1.25-3.14-3,0-2,1.43-3.21,3.92-3.21a6.3,6.3,0,0,1,3.74,1.17c.11.06.11.19,0,.3L217,63a.21.21,0,0,1-.31,0,5.54,5.54,0,0,0-2.84-.85c-1.32,0-2,.59-2,1.45s.51,1.28,2.07,1.43l1.1.11c2.14.2,3.17,1.28,3.17,3,0,2.07-1.5,3.45-4.25,3.45A6.52,6.52,0,0,1,209.57,70.06Z"/><path d="M231.19,71.4a.21.21,0,0,1-.22-.22v-1h0a3.19,3.19,0,0,1-3,1.47,3.47,3.47,0,0,1-3.63-2.53,8.62,8.62,0,0,1-.38-3,8.61,8.61,0,0,1,.38-3A3.48,3.48,0,0,1,228,60.62a3.2,3.2,0,0,1,3,1.45h0V56.66a.21.21,0,0,1,.22-.22h1.41a.21.21,0,0,1,.22.22V71.18a.21.21,0,0,1-.22.22Zm-.46-3.08a6.63,6.63,0,0,0,.24-2.2,6.75,6.75,0,0,0-.24-2.2,2.49,2.49,0,0,0-4.64,0,7.35,7.35,0,0,0-.24,2.2,7.18,7.18,0,0,0,.24,2.2,2.48,2.48,0,0,0,4.64,0Z"/><path d="M235.26,68.78a10.58,10.58,0,0,1,0-5.32,4.43,4.43,0,0,1,8.27,0,9.18,9.18,0,0,1,.33,3,.21.21,0,0,1-.24.22h-6.67a.12.12,0,0,0-.13.14A3.9,3.9,0,0,0,237,68.1a2.6,2.6,0,0,0,2.66,1.83,3.44,3.44,0,0,0,2.71-1.17.22.22,0,0,1,.33,0l.9.81a.2.2,0,0,1,0,.31,5.1,5.1,0,0,1-4.11,1.8A4.07,4.07,0,0,1,235.26,68.78Zm6.56-3.56a.12.12,0,0,0,.13-.13,3.71,3.71,0,0,0-.15-1.19,2.6,2.6,0,0,0-4.84,0,3.68,3.68,0,0,0-.16,1.19.12.12,0,0,0,.13.13Z"/><path d="M250.55,71.4a.21.21,0,0,1-.22-.22V61.08a.21.21,0,0,1,.22-.22H252a.21.21,0,0,1,.22.22v1.08h0a3,3,0,0,1,2.8-1.54,3.24,3.24,0,0,1,2.15.79c.11.11.14.2.05.31l-.82,1.08a.19.19,0,0,1-.3,0,3,3,0,0,0-1.63-.5c-1.61,0-2.27,1.25-2.27,3.08v5.76a.21.21,0,0,1-.22.22Z"/><path d="M257.79,68.78a10.58,10.58,0,0,1,0-5.32,4.43,4.43,0,0,1,8.27,0,9.18,9.18,0,0,1,.33,3,.21.21,0,0,1-.24.22h-6.67c-.09,0-.13,0-.13.14a3.9,3.9,0,0,0,.18,1.27,2.6,2.6,0,0,0,2.66,1.83,3.43,3.43,0,0,0,2.7-1.17c.12-.11.22-.13.33,0l.91.81a.2.2,0,0,1,0,.31,5.13,5.13,0,0,1-4.12,1.8A4.07,4.07,0,0,1,257.79,68.78Zm6.56-3.56a.12.12,0,0,0,.13-.13,4,4,0,0,0-.15-1.19,2.61,2.61,0,0,0-4.85,0,3.71,3.71,0,0,0-.15,1.19.12.12,0,0,0,.13.13Z"/><path d="M269,71.4a.21.21,0,0,1-.22-.22V62.49c0-.09,0-.13-.13-.13h-.9a.21.21,0,0,1-.22-.22V61.08a.21.21,0,0,1,.22-.22h.9c.09,0,.13,0,.13-.13v-.9c0-2.49,1-3.39,3.21-3.39h.82a.21.21,0,0,1,.22.22v1.28a.21.21,0,0,1-.22.22h-.57c-1.35,0-1.61.28-1.61,1.58v1c0,.09,0,.13.13.13h2a.21.21,0,0,1,.22.22v1.06a.21.21,0,0,1-.22.22h-2c-.09,0-.13,0-.13.13v8.69a.21.21,0,0,1-.22.22Z"/><path d="M281.2,71.4a.21.21,0,0,1-.22-.22v-1h0a3.22,3.22,0,0,1-2.89,1.45c-2.31,0-3.65-1.58-3.65-4V61.08a.21.21,0,0,1,.22-.22h1.41a.21.21,0,0,1,.22.22v6.14c0,1.72.77,2.71,2.33,2.71a2.34,2.34,0,0,0,2.38-2.6V61.08a.21.21,0,0,1,.22-.22h1.41a.21.21,0,0,1,.22.22v10.1a.21.21,0,0,1-.22.22Z"/><path d="M284.83,70.06a.21.21,0,0,1,0-.31l.9-1a.23.23,0,0,1,.31,0A5.07,5.07,0,0,0,289.29,70c1.54,0,2.31-.66,2.31-1.6s-.39-1.3-2-1.48l-1.13-.11c-2.06-.22-3.14-1.25-3.14-3,0-2,1.43-3.21,3.92-3.21A6.3,6.3,0,0,1,293,61.79c.11.06.11.19,0,.3l-.75.95a.21.21,0,0,1-.31,0,5.54,5.54,0,0,0-2.84-.85c-1.32,0-2,.59-2,1.45s.51,1.28,2.07,1.43l1.1.11c2.14.2,3.17,1.28,3.17,3,0,2.07-1.5,3.45-4.25,3.45A6.52,6.52,0,0,1,284.83,70.06Z"/><path d="M295.17,68.78a10.43,10.43,0,0,1,0-5.32,4.44,4.44,0,0,1,8.28,0,9.18,9.18,0,0,1,.33,3,.21.21,0,0,1-.24.22h-6.67c-.09,0-.13,0-.13.14a3.93,3.93,0,0,0,.17,1.27,2.62,2.62,0,0,0,2.67,1.83,3.43,3.43,0,0,0,2.7-1.17.22.22,0,0,1,.33,0l.9.81a.21.21,0,0,1,0,.31,5.13,5.13,0,0,1-4.12,1.8A4.07,4.07,0,0,1,295.17,68.78Zm6.55-3.56a.12.12,0,0,0,.14-.13,3.68,3.68,0,0,0-.16-1.19,2.6,2.6,0,0,0-4.84,0,3.71,3.71,0,0,0-.15,1.19.12.12,0,0,0,.13.13Z"/><path d="M313.29,71.51c-2,0-2.83-.92-2.83-3v-6c0-.09,0-.13-.14-.13h-.88a.21.21,0,0,1-.22-.22V61.08a.21.21,0,0,1,.22-.22h.88c.09,0,.14,0,.14-.13v-3a.2.2,0,0,1,.22-.22h1.4a.2.2,0,0,1,.22.22v3c0,.09.05.13.14.13h1.67a.21.21,0,0,1,.22.22v1.06a.21.21,0,0,1-.22.22h-1.67c-.09,0-.14,0-.14.13v6c0,1.06.4,1.35,1.35,1.35h.46a.2.2,0,0,1,.22.22v1.27a.21.21,0,0,1-.22.22Z"/><path d="M316,68.81a8,8,0,0,1-.35-2.69,7.88,7.88,0,0,1,.35-2.66,4.47,4.47,0,0,1,8.32,0,7.88,7.88,0,0,1,.35,2.66,8,8,0,0,1-.35,2.69,4.47,4.47,0,0,1-8.32,0Zm6.54-.53a7.13,7.13,0,0,0,.24-2.16,6.91,6.91,0,0,0-.24-2.13,2.54,2.54,0,0,0-4.76,0,6.91,6.91,0,0,0-.24,2.13,7.13,7.13,0,0,0,.24,2.16,2.54,2.54,0,0,0,4.76,0Z"/><path d="M340.24,71.4a.27.27,0,0,1-.26-.22l-2.38-7.55h0l-2.4,7.55a.27.27,0,0,1-.26.22h-1.28a.27.27,0,0,1-.26-.22l-3.3-10.1a.15.15,0,0,1,.15-.22h1.5c.15,0,.22,0,.28.22l2.34,7.62h0l2.38-7.62a.26.26,0,0,1,.26-.22h1.14a.28.28,0,0,1,.29.22l2.4,7.62h0l2.27-7.62a.25.25,0,0,1,.28-.22h1.5a.15.15,0,0,1,.15.22l-3.32,10.1a.26.26,0,0,1-.26.22Z"/><path d="M346.4,68.81a8,8,0,0,1-.35-2.69,7.88,7.88,0,0,1,.35-2.66,4.47,4.47,0,0,1,8.32,0,7.88,7.88,0,0,1,.35,2.66,8,8,0,0,1-.35,2.69,4.47,4.47,0,0,1-8.32,0Zm6.54-.53a7.13,7.13,0,0,0,.24-2.16,6.91,6.91,0,0,0-.24-2.13,2.54,2.54,0,0,0-4.76,0,6.91,6.91,0,0,0-.24,2.13,7.13,7.13,0,0,0,.24,2.16,2.54,2.54,0,0,0,4.76,0Z"/><path d="M357.38,71.4a.21.21,0,0,1-.22-.22V61.08a.21.21,0,0,1,.22-.22h1.41a.21.21,0,0,1,.22.22v1.08h0a2.94,2.94,0,0,1,2.8-1.54,3.26,3.26,0,0,1,2.15.79c.11.11.13.2,0,.31l-.82,1.08a.2.2,0,0,1-.31,0,2.93,2.93,0,0,0-1.62-.5c-1.61,0-2.27,1.25-2.27,3.08v5.76a.21.21,0,0,1-.22.22Z"/><path d="M372.32,71.4a.37.37,0,0,1-.35-.22l-3-4.9-1.83,2.13v2.77a.21.21,0,0,1-.22.22h-1.41a.21.21,0,0,1-.22-.22V56.66a.21.21,0,0,1,.22-.22h1.41a.21.21,0,0,1,.22.22V66l4.16-4.91a.47.47,0,0,1,.39-.2h1.63c.13,0,.18.11.09.22l-3.24,3.76,3.9,6.34a.14.14,0,0,1-.13.22Z"/><path d="M375.4,69.29a.21.21,0,0,1,.22-.22h1.67a.21.21,0,0,1,.22.22v1.89a.21.21,0,0,1-.22.22h-1.67a.21.21,0,0,1-.22-.22Z"/></g></g></svg>