<svg xmlns="http://www.w3.org/2000/svg" viewBox="0 0 400.14 77.12"><title>9a</title><g id="Capa_2" data-name="Capa 2"><g id="answer_copia" data-name="answer copia"><path d="M10.61,16.8c-.17,0-.24-.07-.31-.24L7,9.89H3.43a.13.13,0,0,0-.14.14v6.53a.23.23,0,0,1-.24.24H1.39a.23.23,0,0,1-.24-.24V.72A.23.23,0,0,1,1.39.48H7.3c3,0,5.11,1.87,5.11,4.7A4.44,4.44,0,0,1,9.19,9.62l3.48,6.89c.1.15,0,.29-.14.29ZM10.27,5.18c0-1.7-1.13-2.71-3-2.71H3.43c-.09,0-.14,0-.14.15V7.75c0,.1,0,.15.14.15H7.25C9.14,7.9,10.27,6.89,10.27,5.18Z"/><path d="M14.88,14A9.1,9.1,0,0,1,14.5,11a8.87,8.87,0,0,1,.36-2.9A4.42,4.42,0,0,1,19.37,5a4.45,4.45,0,0,1,4.51,3.1,10,10,0,0,1,.36,3.28.24.24,0,0,1-.26.25H16.7a.12.12,0,0,0-.14.14,4.3,4.3,0,0,0,.19,1.39,2.84,2.84,0,0,0,2.91,2,3.77,3.77,0,0,0,2.95-1.27.25.25,0,0,1,.36-.05l1,.89a.22.22,0,0,1,0,.34,5.62,5.62,0,0,1-4.49,2A4.45,4.45,0,0,1,14.88,14ZM22,10.06a.13.13,0,0,0,.15-.15A4,4,0,0,0,22,8.62a2.59,2.59,0,0,0-2.64-1.8,2.58,2.58,0,0,0-2.64,1.8,4,4,0,0,0-.17,1.29c0,.1.05.15.14.15Z"/><path d="M34,16.8a.23.23,0,0,1-.24-.24v-1h0a3.77,3.77,0,0,1-3.41,1.52c-2.19,0-3.87-1.13-3.87-3.46s1.68-3.55,4.49-3.55h2.62c.1,0,.14-.05.14-.15V9.07c0-1.58-.62-2.25-2.76-2.25a4.47,4.47,0,0,0-2.78.81c-.12.1-.27.1-.34,0L27.14,6.5a.25.25,0,0,1,.05-.33A6.4,6.4,0,0,1,31.1,5C34.37,5,35.62,6.12,35.62,9v7.61a.23.23,0,0,1-.24.24Zm-.29-3.72V11.81c0-.1,0-.14-.14-.14H31.22c-2,0-2.85.57-2.85,1.87s.86,1.8,2.4,1.8C32.57,15.34,33.67,14.5,33.67,13.08Z"/><path d="M41.74,16.92c-2,0-2.81-1-2.81-3V.72a.23.23,0,0,1,.24-.24H40.7a.23.23,0,0,1,.24.24V13.78c0,1,.36,1.27,1.16,1.27h.45a.23.23,0,0,1,.24.24v1.39a.22.22,0,0,1-.24.24Z"/><path d="M45.34,2.71a.22.22,0,0,1-.24-.24V.72a.23.23,0,0,1,.24-.24H47a.23.23,0,0,1,.24.24V2.47a.23.23,0,0,1-.24.24Zm0,14.09a.23.23,0,0,1-.24-.24v-11a.23.23,0,0,1,.24-.24h1.54a.23.23,0,0,1,.24.24v11a.23.23,0,0,1-.24.24Z"/><path d="M50.21,16.8a.22.22,0,0,1-.24-.24V15.29a.35.35,0,0,1,.09-.26l6.32-7.85v0H50.52a.23.23,0,0,1-.24-.24V5.54a.23.23,0,0,1,.24-.24h8a.23.23,0,0,1,.24.24V6.89a.35.35,0,0,1-.1.26l-6.26,7.78V15h6.12a.23.23,0,0,1,.24.24v1.34a.23.23,0,0,1-.24.24Z"/><path d="M68.54,16.8a.23.23,0,0,1-.24-.24v-1h0a3.77,3.77,0,0,1-3.41,1.52c-2.18,0-3.86-1.13-3.86-3.46s1.68-3.55,4.49-3.55h2.61a.13.13,0,0,0,.15-.15V9.07c0-1.58-.63-2.25-2.76-2.25a4.48,4.48,0,0,0-2.79.81c-.12.1-.26.1-.33,0L61.73,6.5a.24.24,0,0,1,.05-.33A6.36,6.36,0,0,1,65.69,5C69,5,70.2,6.12,70.2,9v7.61a.23.23,0,0,1-.24.24Zm-.28-3.72V11.81c0-.1-.05-.14-.15-.14h-2.3c-2,0-2.86.57-2.86,1.87s.87,1.8,2.4,1.8C67.15,15.34,68.26,14.5,68.26,13.08Z"/><path d="M73.8,16.8a.23.23,0,0,1-.24-.24v-11a.23.23,0,0,1,.24-.24h1.54a.23.23,0,0,1,.24.24V6.72h0A3.2,3.2,0,0,1,78.65,5,3.58,3.58,0,0,1,81,5.9c.12.12.14.22,0,.34l-.89,1.18a.22.22,0,0,1-.34,0,3.25,3.25,0,0,0-1.77-.55c-1.75,0-2.47,1.37-2.47,3.36v6.29a.23.23,0,0,1-.24.24Z"/><path d="M95.16,16.8a.23.23,0,0,1-.24-.24v-1h0a3.77,3.77,0,0,1-3.41,1.52c-2.19,0-3.87-1.13-3.87-3.46s1.68-3.55,4.49-3.55h2.62c.09,0,.14-.05.14-.15V9.07c0-1.58-.62-2.25-2.76-2.25a4.47,4.47,0,0,0-2.78.81c-.12.1-.27.1-.34,0L88.34,6.5a.24.24,0,0,1,0-.33A6.4,6.4,0,0,1,92.3,5C95.57,5,96.82,6.12,96.82,9v7.61a.23.23,0,0,1-.24.24Zm-.29-3.72V11.81a.12.12,0,0,0-.14-.14H92.42c-2,0-2.85.57-2.85,1.87s.86,1.8,2.4,1.8C93.77,15.34,94.87,14.5,94.87,13.08Z"/><path d="M107.64,16.8a.23.23,0,0,1-.24-.24V9.84c0-1.85-.84-2.93-2.57-2.93a2.58,2.58,0,0,0-2.64,2.81v6.84a.22.22,0,0,1-.24.24h-1.53a.22.22,0,0,1-.24-.24v-11a.23.23,0,0,1,.24-.24H102a.23.23,0,0,1,.24.24V6.6h0A3.65,3.65,0,0,1,105.43,5c2.5,0,4,1.7,4,4.32v7.2a.23.23,0,0,1-.24.24Z"/><path d="M119.71,16.8a.23.23,0,0,1-.24-.24v-1h0A3.77,3.77,0,0,1,116,17.07c-2.18,0-3.87-1.13-3.87-3.46s1.69-3.55,4.49-3.55h2.62c.1,0,.14-.05.14-.15V9.07c0-1.58-.62-2.25-2.76-2.25a4.47,4.47,0,0,0-2.78.81.22.22,0,0,1-.34,0l-.65-1.11a.25.25,0,0,1,0-.33A6.42,6.42,0,0,1,116.86,5c3.26,0,4.51,1.08,4.51,3.91v7.61a.23.23,0,0,1-.24.24Zm-.29-3.72V11.81c0-.1,0-.14-.14-.14H117c-2,0-2.85.57-2.85,1.87s.86,1.8,2.4,1.8C118.32,15.34,119.42,14.5,119.42,13.08Zm-3.24-9.65c-.14,0-.21-.09-.14-.24L117.86.24a.43.43,0,0,1,.41-.24h1.59a.14.14,0,0,1,.12.24l-2.21,3a.48.48,0,0,1-.46.24Z"/><path d="M127.49,16.92c-2,0-2.81-1-2.81-3V.72a.23.23,0,0,1,.24-.24h1.54a.23.23,0,0,1,.24.24V13.78c0,1,.35,1.27,1.15,1.27h.45a.23.23,0,0,1,.24.24v1.39a.22.22,0,0,1-.24.24Z"/><path d="M131.09,2.71a.22.22,0,0,1-.24-.24V.72a.23.23,0,0,1,.24-.24h1.63a.23.23,0,0,1,.24.24V2.47a.23.23,0,0,1-.24.24Zm0,14.09a.23.23,0,0,1-.24-.24v-11a.23.23,0,0,1,.24-.24h1.54a.23.23,0,0,1,.24.24v11a.23.23,0,0,1-.24.24Z"/><path d="M135.57,15.34a.25.25,0,0,1,0-.34l1-1.05a.22.22,0,0,1,.33,0,5.63,5.63,0,0,0,3.56,1.32c1.68,0,2.52-.73,2.52-1.76s-.43-1.41-2.24-1.61l-1.22-.12c-2.26-.24-3.43-1.36-3.43-3.24,0-2.18,1.56-3.5,4.27-3.5a6.88,6.88,0,0,1,4.08,1.27.24.24,0,0,1,0,.34l-.82,1a.23.23,0,0,1-.33.05,6.07,6.07,0,0,0-3.1-.94c-1.44,0-2.18.65-2.18,1.59s.55,1.39,2.25,1.56l1.2.12c2.33.21,3.46,1.39,3.46,3.24,0,2.25-1.63,3.77-4.63,3.77A7.19,7.19,0,0,1,135.57,15.34Z"/><path d="M147.84,2.71a.22.22,0,0,1-.24-.24V.72a.23.23,0,0,1,.24-.24h1.63a.23.23,0,0,1,.24.24V2.47a.23.23,0,0,1-.24.24Zm0,14.09a.22.22,0,0,1-.24-.24v-11a.23.23,0,0,1,.24-.24h1.53a.23.23,0,0,1,.24.24v11a.22.22,0,0,1-.24.24Z"/><path d="M152.33,15.34a.23.23,0,0,1,0-.34l1-1.05a.23.23,0,0,1,.34,0,5.6,5.6,0,0,0,3.55,1.32c1.68,0,2.52-.73,2.52-1.76s-.43-1.41-2.23-1.61l-1.23-.12c-2.25-.24-3.43-1.36-3.43-3.24,0-2.18,1.56-3.5,4.27-3.5a6.88,6.88,0,0,1,4.08,1.27.24.24,0,0,1,0,.34l-.82,1a.23.23,0,0,1-.33.05,6.07,6.07,0,0,0-3.1-.94c-1.44,0-2.18.65-2.18,1.59s.55,1.39,2.25,1.56l1.2.12c2.33.21,3.46,1.39,3.46,3.24,0,2.25-1.63,3.77-4.63,3.77A7.16,7.16,0,0,1,152.33,15.34Z"/><path d="M176.88,16.8a.22.22,0,0,1-.24-.24v-1.1h0a3.49,3.49,0,0,1-3.26,1.61,3.8,3.8,0,0,1-4-2.76A9.68,9.68,0,0,1,169,11a9.53,9.53,0,0,1,.41-3.24,3.8,3.8,0,0,1,4-2.76,3.48,3.48,0,0,1,3.26,1.58h0V.72a.23.23,0,0,1,.24-.24h1.53a.23.23,0,0,1,.24.24V16.56a.22.22,0,0,1-.24.24Zm-.51-3.36a7.14,7.14,0,0,0,.27-2.4,7.25,7.25,0,0,0-.27-2.4,2.71,2.71,0,0,0-5.06,0A8.21,8.21,0,0,0,171,11a8,8,0,0,0,.27,2.4,2.7,2.7,0,0,0,5.06,0Z"/><path d="M181.8,14a9.05,9.05,0,0,1-.39-2.91,8.87,8.87,0,0,1,.36-2.9,4.84,4.84,0,0,1,9,0,10,10,0,0,1,.36,3.28.24.24,0,0,1-.27.25h-7.27a.12.12,0,0,0-.14.14,4.3,4.3,0,0,0,.19,1.39,2.84,2.84,0,0,0,2.9,2,3.78,3.78,0,0,0,3-1.27.25.25,0,0,1,.36-.05l1,.89a.22.22,0,0,1,0,.34,5.59,5.59,0,0,1-4.48,2A4.45,4.45,0,0,1,181.8,14ZM189,10.06c.1,0,.14-.05.14-.15a4,4,0,0,0-.16-1.29,2.84,2.84,0,0,0-5.28,0,4,4,0,0,0-.17,1.29c0,.1.05.15.14.15Z"/><path d="M199.44,16.8a.22.22,0,0,1-.24-.24v-11a.23.23,0,0,1,.24-.24H201a.23.23,0,0,1,.24.24V6.72h0a3.2,3.2,0,0,1,3-1.68,3.58,3.58,0,0,1,2.35.86c.12.12.14.22.05.34l-.89,1.18a.22.22,0,0,1-.34,0,3.28,3.28,0,0,0-1.77-.55c-1.76,0-2.48,1.37-2.48,3.36v6.29a.22.22,0,0,1-.24.24Z"/><path d="M208.75,2.71a.23.23,0,0,1-.24-.24V.72a.23.23,0,0,1,.24-.24h1.63a.23.23,0,0,1,.24.24V2.47a.22.22,0,0,1-.24.24Zm.05,14.09a.22.22,0,0,1-.24-.24v-11a.23.23,0,0,1,.24-.24h1.53a.23.23,0,0,1,.24.24v11a.22.22,0,0,1-.24.24Z"/><path d="M213.72,14a9.05,9.05,0,0,1-.39-2.91,8.87,8.87,0,0,1,.36-2.9,4.84,4.84,0,0,1,9,0,10,10,0,0,1,.36,3.28.24.24,0,0,1-.27.25h-7.27a.12.12,0,0,0-.14.14,4.3,4.3,0,0,0,.19,1.39,2.83,2.83,0,0,0,2.9,2,3.78,3.78,0,0,0,3-1.27c.12-.12.24-.14.35-.05l1,.89a.22.22,0,0,1,0,.34,5.59,5.59,0,0,1-4.48,2A4.45,4.45,0,0,1,213.72,14Zm7.15-3.89c.09,0,.14-.05.14-.15a4.32,4.32,0,0,0-.16-1.29,2.84,2.84,0,0,0-5.29,0,4.32,4.32,0,0,0-.16,1.29c0,.1,0,.15.14.15Z"/><path d="M225,15.34a.25.25,0,0,1,0-.34L226,14a.22.22,0,0,1,.33,0,5.63,5.63,0,0,0,3.56,1.32c1.68,0,2.52-.73,2.52-1.76s-.44-1.41-2.23-1.61L229,11.78c-2.26-.24-3.43-1.36-3.43-3.24,0-2.18,1.56-3.5,4.27-3.5a6.88,6.88,0,0,1,4.08,1.27.24.24,0,0,1,0,.34l-.82,1a.23.23,0,0,1-.33.05,6.07,6.07,0,0,0-3.1-.94c-1.44,0-2.18.65-2.18,1.59s.55,1.39,2.25,1.56l1.2.12c2.33.21,3.46,1.39,3.46,3.24,0,2.25-1.63,3.77-4.63,3.77A7.19,7.19,0,0,1,225,15.34Z"/><path d="M236.88,19.68a.21.21,0,0,1,0-.33l1-1a.23.23,0,0,1,.36,0A3.86,3.86,0,0,0,241,19.51c1.89,0,2.9-1,2.9-3.09V15.07h0a3.32,3.32,0,0,1-3.2,1.59,3.78,3.78,0,0,1-3.86-2.79,8.92,8.92,0,0,1-.38-3,9,9,0,0,1,.38-3A3.77,3.77,0,0,1,240.64,5a3.31,3.31,0,0,1,3.2,1.58h0V5.54a.23.23,0,0,1,.24-.24h1.54a.23.23,0,0,1,.24.24V16.3c0,3.26-1.78,5.09-5,5.09A5.17,5.17,0,0,1,236.88,19.68Zm6.72-6.6a7.08,7.08,0,0,0,.26-2.23,7.12,7.12,0,0,0-.26-2.23,2.6,2.6,0,0,0-4.88,0,7.26,7.26,0,0,0-.28,2.23,7.21,7.21,0,0,0,.28,2.23,2.59,2.59,0,0,0,4.88,0Z"/><path d="M249,14a8.77,8.77,0,0,1-.38-2.93,8.65,8.65,0,0,1,.38-2.9,4.87,4.87,0,0,1,9.07,0,8.37,8.37,0,0,1,.39,2.9,8.48,8.48,0,0,1-.39,2.93A4.87,4.87,0,0,1,249,14Zm7.13-.58a7.56,7.56,0,0,0,.26-2.35,7.5,7.5,0,0,0-.26-2.33,2.77,2.77,0,0,0-5.19,0A7.5,7.5,0,0,0,250.7,11a7.56,7.56,0,0,0,.26,2.35,2.77,2.77,0,0,0,5.19,0Z"/><path d="M266.76,16.8a.22.22,0,0,1-.24-.24V.72a.23.23,0,0,1,.24-.24h1.53a.23.23,0,0,1,.24.24v5.9h0A3.48,3.48,0,0,1,271.82,5a3.81,3.81,0,0,1,4,2.76,9.53,9.53,0,0,1,.41,3.24,9.68,9.68,0,0,1-.41,3.27,3.81,3.81,0,0,1-4,2.76,3.49,3.49,0,0,1-3.26-1.61h0v1.1a.22.22,0,0,1-.24.24Zm7.1-3.36a8,8,0,0,0,.26-2.4,8.26,8.26,0,0,0-.26-2.4,2.71,2.71,0,0,0-5.06,0,7.25,7.25,0,0,0-.27,2.4,7.14,7.14,0,0,0,.27,2.4,2.7,2.7,0,0,0,5.06,0Z"/><path d="M286.17,16.8a.23.23,0,0,1-.24-.24V15.48h0a3.52,3.52,0,0,1-3.15,1.59c-2.52,0-4-1.73-4-4.35V5.54A.23.23,0,0,1,279,5.3h1.53a.23.23,0,0,1,.24.24v6.7c0,1.87.84,2.95,2.55,2.95a2.55,2.55,0,0,0,2.59-2.83V5.54a.23.23,0,0,1,.24-.24h1.54a.23.23,0,0,1,.24.24v11a.23.23,0,0,1-.24.24Z"/><path d="M290.61,15.34a.23.23,0,0,1,0-.34l1-1.05a.23.23,0,0,1,.34,0,5.6,5.6,0,0,0,3.55,1.32c1.68,0,2.52-.73,2.52-1.76s-.43-1.41-2.23-1.61l-1.22-.12c-2.26-.24-3.43-1.36-3.43-3.24,0-2.18,1.55-3.5,4.27-3.5a6.88,6.88,0,0,1,4.08,1.27.24.24,0,0,1,0,.34l-.82,1a.24.24,0,0,1-.34.05,6,6,0,0,0-3.09-.94c-1.44,0-2.19.65-2.19,1.59s.55,1.39,2.26,1.56l1.2.12c2.33.21,3.46,1.39,3.46,3.24,0,2.25-1.64,3.77-4.64,3.77A7.18,7.18,0,0,1,290.61,15.34Z"/><path d="M302.35,8.14A4.43,4.43,0,0,1,306.88,5,4.62,4.62,0,0,1,310.82,7a.23.23,0,0,1-.07.34l-1.06.86a.21.21,0,0,1-.33,0,2.84,2.84,0,0,0-2.48-1.25,2.5,2.5,0,0,0-2.57,1.8,7.75,7.75,0,0,0-.26,2.33,7.81,7.81,0,0,0,.26,2.35,2.5,2.5,0,0,0,2.57,1.8A2.83,2.83,0,0,0,309.36,14a.21.21,0,0,1,.33,0l1.06.87c.14.12.14.21.07.33a4.62,4.62,0,0,1-3.94,2,4.44,4.44,0,0,1-4.53-3.1A9.81,9.81,0,0,1,302,11,9.69,9.69,0,0,1,302.35,8.14Z"/><path d="M320.2,16.8a.23.23,0,0,1-.24-.24v-1h0a3.77,3.77,0,0,1-3.41,1.52c-2.18,0-3.86-1.13-3.86-3.46s1.68-3.55,4.48-3.55h2.62c.1,0,.14-.05.14-.15V9.07c0-1.58-.62-2.25-2.76-2.25a4.47,4.47,0,0,0-2.78.81.22.22,0,0,1-.34,0l-.64-1.11a.24.24,0,0,1,0-.33A6.42,6.42,0,0,1,317.35,5c3.26,0,4.51,1.08,4.51,3.91v7.61a.23.23,0,0,1-.24.24Zm-.29-3.72V11.81c0-.1,0-.14-.14-.14h-2.3c-2,0-2.86.57-2.86,1.87s.86,1.8,2.4,1.8C318.81,15.34,319.91,14.5,319.91,13.08Z"/><path d="M332.68,16.8a.23.23,0,0,1-.24-.24V9.84c0-1.85-.84-2.93-2.56-2.93a2.59,2.59,0,0,0-2.65,2.81v6.84a.22.22,0,0,1-.24.24h-1.53a.22.22,0,0,1-.24-.24v-11a.23.23,0,0,1,.24-.24H327a.23.23,0,0,1,.24.24V6.6h0A3.62,3.62,0,0,1,330.47,5c2.5,0,4,1.7,4,4.32v7.2a.23.23,0,0,1-.24.24Z"/><path d="M345,16.8a.23.23,0,0,1-.24-.24v-1.1h0a3.5,3.5,0,0,1-3.26,1.61,3.79,3.79,0,0,1-4-2.76A9.43,9.43,0,0,1,337.1,11a9.29,9.29,0,0,1,.41-3.24,3.79,3.79,0,0,1,4-2.76,3.49,3.49,0,0,1,3.26,1.58h0V.72A.23.23,0,0,1,345,.48h1.54a.23.23,0,0,1,.24.24V16.56a.23.23,0,0,1-.24.24Zm-.5-3.36a7.47,7.47,0,0,0,.26-2.4,7.59,7.59,0,0,0-.26-2.4,2.71,2.71,0,0,0-5.06,0,7.88,7.88,0,0,0-.27,2.4,7.68,7.68,0,0,0,.27,2.4,2.7,2.7,0,0,0,5.06,0Z"/><path d="M349.91,14a8.77,8.77,0,0,1-.38-2.93,8.65,8.65,0,0,1,.38-2.9,4.87,4.87,0,0,1,9.08,0,8.65,8.65,0,0,1,.38,2.9A8.77,8.77,0,0,1,359,14a4.87,4.87,0,0,1-9.08,0Zm7.13-.58a7.5,7.5,0,0,0,.27-2.35A7.45,7.45,0,0,0,357,8.71a2.76,2.76,0,0,0-5.18,0,7.45,7.45,0,0,0-.27,2.33,7.5,7.5,0,0,0,.27,2.35,2.76,2.76,0,0,0,5.18,0Z"/><path d="M367.65,21.12a.22.22,0,0,1-.24-.24V5.54a.23.23,0,0,1,.24-.24h1.54a.23.23,0,0,1,.24.24V6.62h0A3.49,3.49,0,0,1,372.71,5a3.79,3.79,0,0,1,4,2.76,9.29,9.29,0,0,1,.41,3.24,9.43,9.43,0,0,1-.41,3.27,3.79,3.79,0,0,1-4,2.76,3.5,3.5,0,0,1-3.26-1.61h0v5.42a.23.23,0,0,1-.24.24Zm7.1-7.68A7.68,7.68,0,0,0,375,11a7.88,7.88,0,0,0-.27-2.4,2.71,2.71,0,0,0-5.06,0,7.59,7.59,0,0,0-.26,2.4,7.47,7.47,0,0,0,.26,2.4,2.7,2.7,0,0,0,5.06,0Z"/><path d="M379.53,14a8.73,8.73,0,0,1-.39-2.93,8.62,8.62,0,0,1,.39-2.9,4.87,4.87,0,0,1,9.07,0A8.37,8.37,0,0,1,389,11,8.48,8.48,0,0,1,388.6,14a4.87,4.87,0,0,1-9.07,0Zm7.13-.58a7.56,7.56,0,0,0,.26-2.35,7.5,7.5,0,0,0-.26-2.33,2.77,2.77,0,0,0-5.19,0,7.5,7.5,0,0,0-.26,2.33,7.56,7.56,0,0,0,.26,2.35,2.77,2.77,0,0,0,5.19,0Z"/><path d="M390.9,11.11V9.72a.23.23,0,0,1,.24-.24h6.39a.23.23,0,0,1,.24.24v1.39a.23.23,0,0,1-.24.24h-6.39A.23.23,0,0,1,390.9,11.11Z"/><path d="M.31,43.34a.25.25,0,0,1,0-.34l1-1a.22.22,0,0,1,.33,0,5.62,5.62,0,0,0,3.55,1.32c1.68,0,2.53-.73,2.53-1.76S7.27,40.1,5.47,39.9l-1.22-.12C2,39.54.82,38.42.82,36.54c0-2.18,1.56-3.5,4.27-3.5a6.88,6.88,0,0,1,4.08,1.27.24.24,0,0,1,.05.34l-.82,1a.24.24,0,0,1-.34,0A6,6,0,0,0,5,34.79c-1.44,0-2.19.65-2.19,1.59S3.34,37.77,5,37.94l1.2.12c2.33.21,3.46,1.39,3.46,3.24,0,2.25-1.64,3.77-4.64,3.77A7.18,7.18,0,0,1,.31,43.34Z"/><path d="M12.58,30.71a.22.22,0,0,1-.24-.24V28.72a.23.23,0,0,1,.24-.24h1.63a.23.23,0,0,1,.24.24v1.75a.23.23,0,0,1-.24.24Zm0,14.09a.23.23,0,0,1-.24-.24v-11a.23.23,0,0,1,.24-.24h1.54a.23.23,0,0,1,.24.24v11a.23.23,0,0,1-.24.24Z"/><path d="M18.1,44.8a.22.22,0,0,1-.24-.24V28.72a.23.23,0,0,1,.24-.24h1.53a.23.23,0,0,1,.24.24v5.9h0A3.48,3.48,0,0,1,23.16,33a3.81,3.81,0,0,1,4,2.76A9.53,9.53,0,0,1,27.53,39a9.68,9.68,0,0,1-.41,3.27,3.81,3.81,0,0,1-4,2.76,3.49,3.49,0,0,1-3.26-1.61h0v1.1a.22.22,0,0,1-.24.24Zm7.1-3.36a8,8,0,0,0,.26-2.4,8.26,8.26,0,0,0-.26-2.4,2.44,2.44,0,0,0-2.52-1.73,2.44,2.44,0,0,0-2.54,1.73,7.25,7.25,0,0,0-.27,2.4,7.14,7.14,0,0,0,.27,2.4,2.46,2.46,0,0,0,2.54,1.75A2.45,2.45,0,0,0,25.2,41.44Z"/><path d="M33.05,44.92c-2,0-2.81-1-2.81-3V28.72a.23.23,0,0,1,.24-.24H32a.23.23,0,0,1,.24.24V41.78c0,1,.36,1.27,1.15,1.27h.45a.23.23,0,0,1,.24.24v1.39a.22.22,0,0,1-.24.24Z"/><path d="M36.14,42A9.1,9.1,0,0,1,35.76,39a8.87,8.87,0,0,1,.36-2.9A4.44,4.44,0,0,1,40.63,33a4.44,4.44,0,0,1,4.51,3.1,10,10,0,0,1,.36,3.28.23.23,0,0,1-.26.25H38c-.1,0-.15,0-.15.14A4,4,0,0,0,38,41.2a2.83,2.83,0,0,0,2.9,2,3.74,3.74,0,0,0,2.95-1.27.25.25,0,0,1,.36-.05l1,.89a.22.22,0,0,1,0,.34,5.59,5.59,0,0,1-4.49,2A4.45,4.45,0,0,1,36.14,42Zm7.15-3.89a.13.13,0,0,0,.15-.15,4,4,0,0,0-.17-1.29,2.84,2.84,0,0,0-5.28,0,4,4,0,0,0-.17,1.29.13.13,0,0,0,.15.15Z"/><path d="M47.47,43.34a.25.25,0,0,1,0-.34l1-1a.22.22,0,0,1,.33,0,5.6,5.6,0,0,0,3.55,1.32c1.68,0,2.52-.73,2.52-1.76s-.43-1.41-2.23-1.61l-1.22-.12C49.15,39.54,48,38.42,48,36.54c0-2.18,1.57-3.5,4.28-3.5a6.88,6.88,0,0,1,4.08,1.27.24.24,0,0,1,.05.34l-.82,1a.24.24,0,0,1-.34,0,6,6,0,0,0-3.09-.94c-1.44,0-2.19.65-2.19,1.59s.55,1.39,2.26,1.56l1.2.12c2.33.21,3.46,1.39,3.46,3.24,0,2.25-1.64,3.77-4.64,3.77A7.18,7.18,0,0,1,47.47,43.34Z"/><path d="M65.45,44.8a.22.22,0,0,1-.24-.24V35.08c0-.1,0-.14-.15-.14h-1a.23.23,0,0,1-.24-.24V33.54a.23.23,0,0,1,.24-.24h1c.1,0,.15,0,.15-.14v-1c0-2.72,1.1-3.7,3.5-3.7h.89a.23.23,0,0,1,.24.24v1.39a.23.23,0,0,1-.24.24H69c-1.46,0-1.75.31-1.75,1.73v1.08c0,.1,0,.14.15.14H69.6a.23.23,0,0,1,.24.24V34.7a.23.23,0,0,1-.24.24H67.37c-.1,0-.15,0-.15.14v9.48a.22.22,0,0,1-.24.24Z"/><path d="M78.93,44.8a.22.22,0,0,1-.23-.24v-1h0a3.77,3.77,0,0,1-3.41,1.52c-2.18,0-3.86-1.13-3.86-3.46s1.68-3.55,4.49-3.55H78.5a.13.13,0,0,0,.15-.15v-.84c0-1.58-.63-2.25-2.76-2.25a4.48,4.48,0,0,0-2.79.81c-.12.1-.26.1-.33,0l-.65-1.11a.24.24,0,0,1,0-.33A6.36,6.36,0,0,1,76.08,33c3.26,0,4.51,1.08,4.51,3.91v7.61a.23.23,0,0,1-.24.24Zm-.28-3.72V39.81c0-.1-.05-.14-.15-.14H76.2c-2,0-2.86.57-2.86,1.87s.87,1.8,2.4,1.8C77.54,43.34,78.65,42.5,78.65,41.08Z"/><path d="M86.71,44.92c-2,0-2.81-1-2.81-3V28.72a.23.23,0,0,1,.24-.24h1.54a.23.23,0,0,1,.24.24V41.78c0,1,.36,1.27,1.15,1.27h.46a.23.23,0,0,1,.24.24v1.39a.23.23,0,0,1-.24.24Z"/><path d="M92.83,44.92c-2,0-2.81-1-2.81-3V28.72a.23.23,0,0,1,.24-.24H91.8a.23.23,0,0,1,.24.24V41.78c0,1,.36,1.27,1.15,1.27h.46a.23.23,0,0,1,.24.24v1.39a.23.23,0,0,1-.24.24Z"/><path d="M103.2,44.8a.22.22,0,0,1-.24-.24v-1h0a3.74,3.74,0,0,1-3.4,1.52c-2.19,0-3.87-1.13-3.87-3.46s1.68-3.55,4.49-3.55h2.62c.09,0,.14-.05.14-.15v-.84c0-1.58-.62-2.25-2.76-2.25a4.44,4.44,0,0,0-2.78.81c-.12.1-.27.1-.34,0l-.65-1.11a.24.24,0,0,1,.05-.33A6.38,6.38,0,0,1,100.34,33c3.27,0,4.52,1.08,4.52,3.91v7.61a.23.23,0,0,1-.24.24Zm-.29-3.72V39.81a.12.12,0,0,0-.14-.14h-2.31c-2,0-2.85.57-2.85,1.87s.86,1.8,2.4,1.8C101.81,43.34,102.91,42.5,102.91,41.08Z"/><path d="M107.42,43.34a.25.25,0,0,1,0-.34l1-1a.22.22,0,0,1,.33,0,5.62,5.62,0,0,0,3.55,1.32c1.68,0,2.52-.73,2.52-1.76s-.43-1.41-2.23-1.61l-1.22-.12c-2.26-.24-3.43-1.36-3.43-3.24,0-2.18,1.56-3.5,4.27-3.5a6.88,6.88,0,0,1,4.08,1.27.24.24,0,0,1,0,.34l-.82,1a.24.24,0,0,1-.34,0,6,6,0,0,0-3.09-.94c-1.44,0-2.19.65-2.19,1.59s.56,1.39,2.26,1.56l1.2.12c2.33.21,3.46,1.39,3.46,3.24,0,2.25-1.64,3.77-4.64,3.77A7.18,7.18,0,0,1,107.42,43.34Z"/><path d="M132,44.8a.23.23,0,0,1-.24-.24v-1.1h0a3.5,3.5,0,0,1-3.26,1.61,3.79,3.79,0,0,1-4-2.76,9.43,9.43,0,0,1-.41-3.27,9.29,9.29,0,0,1,.41-3.24,3.79,3.79,0,0,1,4-2.76,3.49,3.49,0,0,1,3.26,1.58h0v-5.9a.23.23,0,0,1,.24-.24h1.54a.23.23,0,0,1,.24.24V44.56a.23.23,0,0,1-.24.24Zm-.5-3.36a7.47,7.47,0,0,0,.26-2.4,7.59,7.59,0,0,0-.26-2.4,2.71,2.71,0,0,0-5.06,0,7.88,7.88,0,0,0-.27,2.4,7.68,7.68,0,0,0,.27,2.4,2.7,2.7,0,0,0,5.06,0Z"/><path d="M136.89,42a9.1,9.1,0,0,1-.38-2.91,8.87,8.87,0,0,1,.36-2.9,4.83,4.83,0,0,1,9,0,10,10,0,0,1,.36,3.28.23.23,0,0,1-.26.25h-7.27c-.1,0-.15,0-.15.14a4.27,4.27,0,0,0,.2,1.39,2.83,2.83,0,0,0,2.9,2,3.74,3.74,0,0,0,3-1.27.25.25,0,0,1,.36-.05l1,.89a.22.22,0,0,1,0,.34,5.59,5.59,0,0,1-4.49,2A4.45,4.45,0,0,1,136.89,42Zm7.16-3.89c.09,0,.14-.05.14-.15a4,4,0,0,0-.17-1.29,2.84,2.84,0,0,0-5.28,0,4,4,0,0,0-.17,1.29.13.13,0,0,0,.15.15Z"/><path d="M154,36.14a4.45,4.45,0,0,1,4.53-3.1A4.6,4.6,0,0,1,162.43,35a.23.23,0,0,1-.07.34l-1.06.86a.21.21,0,0,1-.33,0,2.84,2.84,0,0,0-2.48-1.25,2.49,2.49,0,0,0-2.56,1.8,7.39,7.39,0,0,0-.27,2.33,7.45,7.45,0,0,0,.27,2.35,2.49,2.49,0,0,0,2.56,1.8A2.83,2.83,0,0,0,161,42a.21.21,0,0,1,.33,0l1.06.87c.14.12.14.21.07.33a4.61,4.61,0,0,1-3.94,2A4.46,4.46,0,0,1,154,42,9.81,9.81,0,0,1,153.6,39,9.69,9.69,0,0,1,154,36.14Z"/><path d="M164.54,42a8.77,8.77,0,0,1-.38-2.93,8.65,8.65,0,0,1,.38-2.9,4.87,4.87,0,0,1,9.07,0A8.37,8.37,0,0,1,174,39a8.48,8.48,0,0,1-.39,2.93,4.87,4.87,0,0,1-9.07,0Zm7.13-.58a7.56,7.56,0,0,0,.26-2.35,7.5,7.5,0,0,0-.26-2.33,2.77,2.77,0,0,0-5.19,0,7.5,7.5,0,0,0-.26,2.33,7.56,7.56,0,0,0,.26,2.35,2.77,2.77,0,0,0,5.19,0Z"/><path d="M184.22,44.8a.23.23,0,0,1-.24-.24V37.84c0-1.85-.84-2.93-2.57-2.93a2.58,2.58,0,0,0-2.64,2.81v6.84a.22.22,0,0,1-.24.24H177a.22.22,0,0,1-.24-.24v-11a.23.23,0,0,1,.24-.24h1.53a.23.23,0,0,1,.24.24V34.6h0A3.62,3.62,0,0,1,182,33c2.5,0,4,1.7,4,4.32v7.2a.23.23,0,0,1-.24.24Z"/><path d="M192.67,44.92c-2.23,0-3.1-1-3.1-3.26V35.08a.12.12,0,0,0-.14-.14h-1a.23.23,0,0,1-.24-.24V33.54a.23.23,0,0,1,.24-.24h1a.12.12,0,0,0,.14-.14V29.92a.23.23,0,0,1,.24-.24h1.54a.23.23,0,0,1,.24.24v3.24a.12.12,0,0,0,.14.14h1.83a.23.23,0,0,1,.24.24V34.7a.23.23,0,0,1-.24.24h-1.83a.12.12,0,0,0-.14.14v6.5c0,1.16.43,1.47,1.46,1.47h.51a.23.23,0,0,1,.24.24v1.39a.23.23,0,0,1-.24.24Z"/><path d="M196.13,42a8.78,8.78,0,0,1-.39-2.91,8.87,8.87,0,0,1,.36-2.9,4.84,4.84,0,0,1,9,0,10,10,0,0,1,.36,3.28.24.24,0,0,1-.27.25H198c-.1,0-.15,0-.15.14a4.27,4.27,0,0,0,.2,1.39,2.83,2.83,0,0,0,2.9,2,3.74,3.74,0,0,0,2.95-1.27.25.25,0,0,1,.36-.05l1,.89a.22.22,0,0,1,0,.34,5.59,5.59,0,0,1-4.49,2A4.43,4.43,0,0,1,196.13,42Zm7.15-3.89c.09,0,.14-.05.14-.15a4,4,0,0,0-.17-1.29,2.84,2.84,0,0,0-5.28,0,4,4,0,0,0-.17,1.29.13.13,0,0,0,.15.15Z"/><path d="M215.71,44.8a.22.22,0,0,1-.24-.24V37.84c0-1.85-.84-2.93-2.57-2.93a2.58,2.58,0,0,0-2.64,2.81v6.84a.23.23,0,0,1-.24.24h-1.54a.23.23,0,0,1-.24-.24v-11a.23.23,0,0,1,.24-.24H210a.23.23,0,0,1,.24.24V34.6h0A3.65,3.65,0,0,1,213.5,33c2.5,0,4,1.7,4,4.32v7.2a.22.22,0,0,1-.24.24Z"/><path d="M220.48,36.14A4.45,4.45,0,0,1,225,33,4.62,4.62,0,0,1,229,35c.07.12.07.22-.08.34l-1,.86a.22.22,0,0,1-.34,0A2.82,2.82,0,0,0,225,34.91a2.5,2.5,0,0,0-2.57,1.8,7.75,7.75,0,0,0-.26,2.33,7.81,7.81,0,0,0,.26,2.35,2.5,2.5,0,0,0,2.57,1.8A2.82,2.82,0,0,0,227.49,42a.22.22,0,0,1,.34,0l1,.87c.15.12.15.21.08.33a4.62,4.62,0,0,1-3.94,2,4.46,4.46,0,0,1-4.54-3.1,10.15,10.15,0,0,1-.36-2.93A10,10,0,0,1,220.48,36.14Z"/><path d="M231.86,30.71a.22.22,0,0,1-.24-.24V28.72a.23.23,0,0,1,.24-.24h1.63a.23.23,0,0,1,.24.24v1.75a.22.22,0,0,1-.24.24Zm0,14.09a.22.22,0,0,1-.24-.24v-11a.23.23,0,0,1,.24-.24h1.53a.23.23,0,0,1,.24.24v11a.22.22,0,0,1-.24.24Z"/><path d="M236.83,42a8.48,8.48,0,0,1-.39-2.93,8.37,8.37,0,0,1,.39-2.9,4.87,4.87,0,0,1,9.07,0,8.65,8.65,0,0,1,.38,2.9A8.77,8.77,0,0,1,245.9,42a4.87,4.87,0,0,1-9.07,0Zm7.13-.58a7.56,7.56,0,0,0,.26-2.35,7.5,7.5,0,0,0-.26-2.33,2.77,2.77,0,0,0-5.19,0,7.5,7.5,0,0,0-.26,2.33,7.56,7.56,0,0,0,.26,2.35,2.77,2.77,0,0,0,5.19,0Zm-3.46-10c-.14,0-.22-.09-.14-.24l1.82-3a.43.43,0,0,1,.41-.24h1.58c.15,0,.22.12.12.24l-2.21,3a.47.47,0,0,1-.45.24Z"/><path d="M256.51,44.8a.22.22,0,0,1-.24-.24V37.84c0-1.85-.84-2.93-2.57-2.93a2.58,2.58,0,0,0-2.64,2.81v6.84a.23.23,0,0,1-.24.24h-1.54a.23.23,0,0,1-.24-.24v-11a.23.23,0,0,1,.24-.24h1.54a.23.23,0,0,1,.24.24V34.6h0A3.63,3.63,0,0,1,254.3,33c2.49,0,4,1.7,4,4.32v7.2a.22.22,0,0,1-.24.24Z"/><path d="M266.59,42A9.05,9.05,0,0,1,266.2,39a8.87,8.87,0,0,1,.36-2.9,4.84,4.84,0,0,1,9,0,10,10,0,0,1,.36,3.28.24.24,0,0,1-.27.25h-7.27c-.1,0-.14,0-.14.14a4.3,4.3,0,0,0,.19,1.39,2.83,2.83,0,0,0,2.9,2,3.74,3.74,0,0,0,2.95-1.27c.13-.12.24-.14.36-.05l1,.89a.22.22,0,0,1,0,.34,5.59,5.59,0,0,1-4.48,2A4.45,4.45,0,0,1,266.59,42Zm7.15-3.89c.09,0,.14-.05.14-.15a4,4,0,0,0-.17-1.29,2.84,2.84,0,0,0-5.28,0,4,4,0,0,0-.16,1.29c0,.1,0,.15.14.15Z"/><path d="M286.17,44.8a.23.23,0,0,1-.24-.24V37.84c0-1.85-.84-2.93-2.57-2.93a2.58,2.58,0,0,0-2.64,2.81v6.84a.22.22,0,0,1-.24.24H279a.22.22,0,0,1-.24-.24v-11a.23.23,0,0,1,.24-.24h1.53a.23.23,0,0,1,.24.24V34.6h0A3.62,3.62,0,0,1,284,33c2.5,0,4,1.7,4,4.32v7.2a.23.23,0,0,1-.24.24Z"/><path d="M299.32,44.92c-2,0-2.81-1-2.81-3V28.72a.23.23,0,0,1,.24-.24h1.54a.23.23,0,0,1,.24.24V41.78c0,1,.36,1.27,1.15,1.27h.46a.23.23,0,0,1,.24.24v1.39a.23.23,0,0,1-.24.24Z"/><path d="M309.69,44.8a.23.23,0,0,1-.24-.24v-1h0A3.77,3.77,0,0,1,306,45.07c-2.19,0-3.87-1.13-3.87-3.46s1.68-3.55,4.49-3.55h2.62c.09,0,.14-.05.14-.15v-.84c0-1.58-.62-2.25-2.76-2.25a4.47,4.47,0,0,0-2.78.81c-.12.1-.27.1-.34,0l-.65-1.11a.25.25,0,0,1,.05-.33A6.4,6.4,0,0,1,306.83,33c3.27,0,4.52,1.08,4.52,3.91v7.61a.23.23,0,0,1-.24.24Zm-.29-3.72V39.81a.12.12,0,0,0-.14-.14H307c-2,0-2.85.57-2.85,1.87s.86,1.8,2.4,1.8C308.3,43.34,309.4,42.5,309.4,41.08Z"/><path d="M313.91,43.34a.25.25,0,0,1,0-.34l1-1a.22.22,0,0,1,.33,0,5.63,5.63,0,0,0,3.56,1.32c1.68,0,2.52-.73,2.52-1.76s-.43-1.41-2.24-1.61l-1.22-.12c-2.26-.24-3.43-1.36-3.43-3.24,0-2.18,1.56-3.5,4.27-3.5a6.88,6.88,0,0,1,4.08,1.27.24.24,0,0,1,.05.34l-.82,1a.23.23,0,0,1-.33,0,6.07,6.07,0,0,0-3.1-.94c-1.44,0-2.18.65-2.18,1.59s.55,1.39,2.25,1.56l1.2.12c2.33.21,3.46,1.39,3.46,3.24,0,2.25-1.63,3.77-4.63,3.77A7.19,7.19,0,0,1,313.91,43.34Z"/><path d="M331,42a9.1,9.1,0,0,1-.38-2.91,8.87,8.87,0,0,1,.36-2.9,4.83,4.83,0,0,1,9,0,10,10,0,0,1,.36,3.28.23.23,0,0,1-.26.25h-7.27c-.1,0-.15,0-.15.14a4.27,4.27,0,0,0,.2,1.39,2.83,2.83,0,0,0,2.9,2,3.74,3.74,0,0,0,2.95-1.27.25.25,0,0,1,.36-.05l1,.89a.22.22,0,0,1,0,.34,5.59,5.59,0,0,1-4.49,2A4.45,4.45,0,0,1,331,42Zm7.16-3.89c.09,0,.14-.05.14-.15a4,4,0,0,0-.17-1.29,2.84,2.84,0,0,0-5.28,0,4,4,0,0,0-.17,1.29.13.13,0,0,0,.15.15Z"/><path d="M342.28,43.34a.25.25,0,0,1,0-.34l1-1a.22.22,0,0,1,.33,0,5.6,5.6,0,0,0,3.55,1.32c1.68,0,2.52-.73,2.52-1.76s-.43-1.41-2.23-1.61l-1.22-.12c-2.26-.24-3.43-1.36-3.43-3.24,0-2.18,1.56-3.5,4.27-3.5a6.88,6.88,0,0,1,4.08,1.27.24.24,0,0,1,.05.34l-.82,1a.24.24,0,0,1-.34,0,6,6,0,0,0-3.09-.94c-1.44,0-2.19.65-2.19,1.59s.55,1.39,2.26,1.56l1.2.12c2.33.21,3.46,1.39,3.46,3.24,0,2.25-1.64,3.77-4.64,3.77A7.18,7.18,0,0,1,342.28,43.34Z"/><path d="M357.69,44.92c-2.23,0-3.1-1-3.1-3.26V35.08a.12.12,0,0,0-.14-.14h-1a.23.23,0,0,1-.24-.24V33.54a.23.23,0,0,1,.24-.24h1a.12.12,0,0,0,.14-.14V29.92a.23.23,0,0,1,.24-.24h1.54a.23.23,0,0,1,.24.24v3.24a.12.12,0,0,0,.14.14h1.83a.23.23,0,0,1,.24.24V34.7a.23.23,0,0,1-.24.24h-1.83a.12.12,0,0,0-.14.14v6.5c0,1.16.43,1.47,1.46,1.47h.51a.23.23,0,0,1,.24.24v1.39a.23.23,0,0,1-.24.24Z"/><path d="M361.7,44.8a.22.22,0,0,1-.24-.24v-11a.23.23,0,0,1,.24-.24h1.53a.23.23,0,0,1,.24.24v1.18h0a3.2,3.2,0,0,1,3-1.68,3.58,3.58,0,0,1,2.36.86c.12.12.14.22.05.34l-.89,1.18a.22.22,0,0,1-.34,0,3.28,3.28,0,0,0-1.77-.55c-1.76,0-2.48,1.37-2.48,3.36v6.29a.22.22,0,0,1-.24.24Z"/><path d="M378,44.8a.23.23,0,0,1-.24-.24V43.48h0a3.52,3.52,0,0,1-3.15,1.59c-2.52,0-4-1.73-4-4.35V33.54a.23.23,0,0,1,.24-.24h1.53a.23.23,0,0,1,.24.24v6.7c0,1.87.84,2.95,2.55,2.95a2.55,2.55,0,0,0,2.59-2.83V33.54a.23.23,0,0,1,.24-.24h1.54a.23.23,0,0,1,.24.24v11a.23.23,0,0,1-.24.24Z"/><path d="M382.94,36.14a4.43,4.43,0,0,1,4.53-3.1A4.62,4.62,0,0,1,391.41,35a.23.23,0,0,1-.07.34l-1.06.86a.22.22,0,0,1-.34,0,2.81,2.81,0,0,0-2.47-1.25,2.5,2.5,0,0,0-2.57,1.8,7.75,7.75,0,0,0-.26,2.33,7.81,7.81,0,0,0,.26,2.35,2.5,2.5,0,0,0,2.57,1.8A2.8,2.8,0,0,0,389.94,42a.22.22,0,0,1,.34,0l1.06.87c.14.12.14.21.07.33a4.62,4.62,0,0,1-3.94,2,4.44,4.44,0,0,1-4.53-3.1,9.81,9.81,0,0,1-.36-2.93A9.69,9.69,0,0,1,382.94,36.14Z"/><path d="M393.28,39.11V37.72a.23.23,0,0,1,.24-.24h6.38a.23.23,0,0,1,.24.24v1.39a.22.22,0,0,1-.24.24h-6.38A.23.23,0,0,1,393.28,39.11Z"/><path d="M4.44,72.92c-2.23,0-3.1-1-3.1-3.26V63.08c0-.1,0-.14-.14-.14h-1A.23.23,0,0,1,0,62.7V61.54a.23.23,0,0,1,.24-.24h1c.1,0,.14,0,.14-.14V57.92a.23.23,0,0,1,.24-.24H3.12a.23.23,0,0,1,.24.24v3.24a.12.12,0,0,0,.14.14H5.33a.23.23,0,0,1,.24.24V62.7a.23.23,0,0,1-.24.24H3.5a.12.12,0,0,0-.14.14v6.5c0,1.16.43,1.47,1.46,1.47h.51a.23.23,0,0,1,.24.24v1.39a.23.23,0,0,1-.24.24Z"/><path d="M15.43,72.8a.23.23,0,0,1-.24-.24V71.48h0A3.52,3.52,0,0,1,12,73.07c-2.52,0-4-1.73-4-4.35V61.54a.23.23,0,0,1,.24-.24H9.82a.23.23,0,0,1,.24.24v6.7c0,1.87.84,3,2.54,3a2.55,2.55,0,0,0,2.59-2.83V61.54a.23.23,0,0,1,.24-.24H17a.23.23,0,0,1,.24.24v11a.23.23,0,0,1-.24.24Z"/><path d="M20.9,72.8a.23.23,0,0,1-.24-.24v-11a.23.23,0,0,1,.24-.24h1.54a.23.23,0,0,1,.24.24v1.18h0A3.23,3.23,0,0,1,25.75,61a3.56,3.56,0,0,1,2.35.86c.12.12.15.22,0,.34l-.89,1.18a.21.21,0,0,1-.33,0,3.31,3.31,0,0,0-1.78-.55c-1.75,0-2.47,1.37-2.47,3.36v6.29a.23.23,0,0,1-.24.24Z"/><path d="M36.41,72.8a.22.22,0,0,1-.24-.24v-1h0a3.74,3.74,0,0,1-3.4,1.52c-2.19,0-3.87-1.13-3.87-3.46s1.68-3.55,4.49-3.55H36c.09,0,.14,0,.14-.15v-.84c0-1.58-.62-2.25-2.76-2.25a4.44,4.44,0,0,0-2.78.81c-.12.1-.27.1-.34,0l-.65-1.11a.24.24,0,0,1,.05-.33A6.38,6.38,0,0,1,33.55,61c3.27,0,4.51,1.08,4.51,3.91v7.61a.22.22,0,0,1-.24.24Zm-.29-3.72V67.81a.12.12,0,0,0-.14-.14H33.67c-2,0-2.85.57-2.85,1.87s.86,1.8,2.4,1.8C35,71.34,36.12,70.5,36.12,69.08Z"/><path d="M40.63,71.34a.25.25,0,0,1,0-.34l1-1A.22.22,0,0,1,42,70a5.62,5.62,0,0,0,3.55,1.32c1.68,0,2.52-.73,2.52-1.76s-.43-1.41-2.23-1.61l-1.22-.11c-2.26-.25-3.43-1.37-3.43-3.25,0-2.18,1.56-3.5,4.27-3.5a6.88,6.88,0,0,1,4.08,1.27.24.24,0,0,1,0,.34l-.82,1a.24.24,0,0,1-.34,0,6,6,0,0,0-3.09-.94c-1.44,0-2.19.65-2.19,1.59s.56,1.39,2.26,1.56l1.2.12c2.33.21,3.46,1.39,3.46,3.24,0,2.25-1.64,3.77-4.64,3.77A7.18,7.18,0,0,1,40.63,71.34Z"/><path d="M52.66,70.26h1.68a.23.23,0,0,1,.24.24v2.23a.78.78,0,0,1-.15.53l-1.49,2a.36.36,0,0,1-.31.16.21.21,0,0,1-.21-.21V70.5A.22.22,0,0,1,52.66,70.26Z"/><path d="M62.76,72.8a.23.23,0,0,1-.24-.24v-11a.23.23,0,0,1,.24-.24h1.53a.23.23,0,0,1,.25.24v1.18h0a3.2,3.2,0,0,1,3-1.68A3.58,3.58,0,0,1,70,61.9c.12.12.14.22.05.34l-.89,1.18a.22.22,0,0,1-.34,0A3.25,3.25,0,0,0,67,62.91c-1.75,0-2.47,1.37-2.47,3.36v6.29a.23.23,0,0,1-.25.24Z"/><path d="M71.14,70A9.05,9.05,0,0,1,70.75,67a8.87,8.87,0,0,1,.36-2.9,4.84,4.84,0,0,1,9,0,10,10,0,0,1,.36,3.28.24.24,0,0,1-.27.25H73c-.1,0-.14,0-.14.14A4.3,4.3,0,0,0,73,69.2a2.83,2.83,0,0,0,2.9,2,3.74,3.74,0,0,0,3-1.27.25.25,0,0,1,.36,0l1,.89a.22.22,0,0,1,0,.34,5.59,5.59,0,0,1-4.49,2A4.44,4.44,0,0,1,71.14,70Zm7.15-3.89c.09,0,.14,0,.14-.15a4,4,0,0,0-.17-1.29,2.84,2.84,0,0,0-5.28,0,4,4,0,0,0-.16,1.29c0,.1,0,.15.14.15Z"/><path d="M83.5,77.12a.22.22,0,0,1-.24-.24V61.54a.23.23,0,0,1,.24-.24H85a.23.23,0,0,1,.24.24v1.08h0A3.51,3.51,0,0,1,88.56,61a3.81,3.81,0,0,1,4,2.76A9.57,9.57,0,0,1,92.93,67a9.68,9.68,0,0,1-.41,3.27,3.81,3.81,0,0,1-4,2.76,3.52,3.52,0,0,1-3.27-1.61h0v5.42a.22.22,0,0,1-.24.24Zm7.1-7.68a8,8,0,0,0,.26-2.4,8.26,8.26,0,0,0-.26-2.4,2.71,2.71,0,0,0-5.06,0,7.25,7.25,0,0,0-.27,2.4,7.14,7.14,0,0,0,.27,2.4,2.7,2.7,0,0,0,5.06,0Z"/><path d="M95.38,70A8.48,8.48,0,0,1,95,67a8.37,8.37,0,0,1,.39-2.9,4.87,4.87,0,0,1,9.07,0,8.65,8.65,0,0,1,.38,2.9,8.77,8.77,0,0,1-.38,2.93,4.87,4.87,0,0,1-9.07,0Zm7.12-.58a7.26,7.26,0,0,0,.27-2.35,7.16,7.16,0,0,0-.27-2.33,2.76,2.76,0,0,0-5.18,0A7.5,7.5,0,0,0,97.06,67a7.6,7.6,0,0,0,.26,2.35,2.76,2.76,0,0,0,5.18,0Z"/><path d="M107.83,72.8a.23.23,0,0,1-.24-.24v-11a.23.23,0,0,1,.24-.24h1.54a.23.23,0,0,1,.24.24v1.18h0A3.2,3.2,0,0,1,112.68,61a3.56,3.56,0,0,1,2.35.86c.12.12.15.22,0,.34l-.89,1.18a.21.21,0,0,1-.33,0,3.31,3.31,0,0,0-1.78-.55c-1.75,0-2.47,1.37-2.47,3.36v6.29a.23.23,0,0,1-.24.24Z"/><path d="M120.29,72.92c-2.24,0-3.1-1-3.1-3.26V63.08a.12.12,0,0,0-.14-.14h-1a.23.23,0,0,1-.24-.24V61.54a.23.23,0,0,1,.24-.24h1a.12.12,0,0,0,.14-.14V57.92a.23.23,0,0,1,.24-.24H119a.23.23,0,0,1,.24.24v3.24a.12.12,0,0,0,.14.14h1.83a.23.23,0,0,1,.24.24V62.7a.23.23,0,0,1-.24.24h-1.83a.12.12,0,0,0-.14.14v6.5c0,1.16.43,1.47,1.46,1.47h.51a.23.23,0,0,1,.24.24v1.39a.23.23,0,0,1-.24.24Z"/><path d="M131,72.8a.22.22,0,0,1-.24-.24v-1h0a3.75,3.75,0,0,1-3.41,1.52c-2.18,0-3.86-1.13-3.86-3.46s1.68-3.55,4.49-3.55h2.61a.13.13,0,0,0,.15-.15v-.84c0-1.58-.63-2.25-2.76-2.25a4.5,4.5,0,0,0-2.79.81c-.12.1-.26.1-.33,0l-.65-1.11a.24.24,0,0,1,0-.33A6.38,6.38,0,0,1,128.16,61c3.26,0,4.51,1.08,4.51,3.91v7.61a.22.22,0,0,1-.24.24Zm-.29-3.72V67.81c0-.1,0-.14-.15-.14h-2.3c-2,0-2.86.57-2.86,1.87s.87,1.8,2.4,1.8C129.62,71.34,130.73,70.5,130.73,69.08Z"/><path d="M136.27,72.8a.23.23,0,0,1-.24-.24v-11a.23.23,0,0,1,.24-.24h1.54a.23.23,0,0,1,.24.24v1.18h0A3.2,3.2,0,0,1,141.12,61a3.56,3.56,0,0,1,2.35.86c.12.12.15.22.05.34l-.89,1.18a.22.22,0,0,1-.34,0,3.25,3.25,0,0,0-1.77-.55c-1.75,0-2.47,1.37-2.47,3.36v6.29a.23.23,0,0,1-.24.24Z"/><path d="M150.33,64.14a4.45,4.45,0,0,1,4.54-3.1A4.62,4.62,0,0,1,158.81,63c.07.12.07.22-.08.34l-1,.86a.22.22,0,0,1-.34,0,2.82,2.82,0,0,0-2.47-1.25,2.5,2.5,0,0,0-2.57,1.8,10.66,10.66,0,0,0,0,4.68,2.5,2.5,0,0,0,2.57,1.8A2.82,2.82,0,0,0,157.34,70a.22.22,0,0,1,.34,0l1,.87c.15.12.15.21.08.33a4.62,4.62,0,0,1-3.94,1.95,4.46,4.46,0,0,1-4.54-3.1A10.15,10.15,0,0,1,150,67,10,10,0,0,1,150.33,64.14Z"/><path d="M160.92,70a8.48,8.48,0,0,1-.39-2.93,8.37,8.37,0,0,1,.39-2.9,4.87,4.87,0,0,1,9.07,0,8.62,8.62,0,0,1,.39,2.9A8.73,8.73,0,0,1,170,70a4.87,4.87,0,0,1-9.07,0Zm7.13-.58a7.6,7.6,0,0,0,.26-2.35,7.5,7.5,0,0,0-.26-2.33,2.77,2.77,0,0,0-5.19,0A7.5,7.5,0,0,0,162.6,67a7.6,7.6,0,0,0,.26,2.35,2.77,2.77,0,0,0,5.19,0Z"/><path d="M180.6,72.8a.22.22,0,0,1-.24-.24V65.84c0-1.85-.84-2.93-2.57-2.93a2.58,2.58,0,0,0-2.64,2.81v6.84a.23.23,0,0,1-.24.24h-1.54a.23.23,0,0,1-.24-.24v-11a.23.23,0,0,1,.24-.24h1.54a.23.23,0,0,1,.24.24V62.6h0A3.65,3.65,0,0,1,178.39,61c2.5,0,4,1.7,4,4.32v7.2a.23.23,0,0,1-.25.24Z"/><path d="M190.87,60.73a.23.23,0,0,1-.24-.24v-2a.73.73,0,0,1,.17-.51L192,56.62a.43.43,0,0,1,.32-.19c.14,0,.21.1.21.24v3.82a.23.23,0,0,1-.24.24Zm3.77,0a.23.23,0,0,1-.24-.24v-2a.72.72,0,0,1,.14-.51l1.25-1.37a.46.46,0,0,1,.34-.19.22.22,0,0,1,.21.24v3.82a.23.23,0,0,1-.24.24Z"/><path d="M208.94,72.8c-.17,0-.24-.07-.31-.24l-3.26-6.67h-3.6c-.1,0-.15,0-.15.14v6.53a.22.22,0,0,1-.24.24h-1.66a.23.23,0,0,1-.24-.24V56.72a.23.23,0,0,1,.24-.24h5.91c3.05,0,5.11,1.87,5.11,4.7a4.46,4.46,0,0,1-3.21,4.45L211,72.51c.09.15,0,.29-.15.29Zm-.33-11.62c0-1.7-1.13-2.71-3-2.71h-3.81a.13.13,0,0,0-.15.15v5.13a.13.13,0,0,0,.15.15h3.81C207.48,63.9,208.61,62.89,208.61,61.18Z"/><path d="M213.81,56.72a.23.23,0,0,1,.24-.24h9.82a.23.23,0,0,1,.24.24v1.51a.23.23,0,0,1-.24.24h-7.78c-.09,0-.14.05-.14.15v4.8a.13.13,0,0,0,.14.14h6.6a.23.23,0,0,1,.24.24v1.51a.22.22,0,0,1-.24.24h-6.6c-.09,0-.14,0-.14.15v5a.13.13,0,0,0,.14.14h7.78a.23.23,0,0,1,.24.24v1.51a.23.23,0,0,1-.24.24h-9.82a.23.23,0,0,1-.24-.24Z"/><path d="M226.84,56.72a.23.23,0,0,1,.24-.24h9.82a.23.23,0,0,1,.24.24v1.51a.23.23,0,0,1-.24.24h-7.77a.13.13,0,0,0-.15.15v5a.13.13,0,0,0,.15.15h6.59A.22.22,0,0,1,236,64v1.51a.22.22,0,0,1-.24.24h-6.59c-.1,0-.15,0-.15.14v6.7a.23.23,0,0,1-.24.24h-1.66a.23.23,0,0,1-.24-.24Z"/><path d="M239.59,67.11V56.72a.23.23,0,0,1,.24-.24h1.65a.23.23,0,0,1,.24.24V67.09c0,2.64,1.47,4,3.65,4s3.63-1.34,3.63-4V56.72a.23.23,0,0,1,.24-.24h1.65a.23.23,0,0,1,.24.24V67.11c0,3.84-2.18,6-5.76,6S239.59,71,239.59,67.11Z"/><path d="M253.77,71a.26.26,0,0,1,0-.36l1.05-1.25a.22.22,0,0,1,.34,0,7.53,7.53,0,0,0,4.56,1.68c2.26,0,3.6-1.12,3.6-2.78,0-1.39-.79-2.33-3.41-2.66l-.81-.13c-3.17-.43-4.8-1.94-4.8-4.51,0-2.9,2.09-4.77,5.33-4.77a8.61,8.61,0,0,1,5,1.51.21.21,0,0,1,.05.33l-.82,1.32a.23.23,0,0,1-.33,0,7.25,7.25,0,0,0-3.94-1.22c-2,0-3.09,1.08-3.09,2.64,0,1.37.91,2.28,3.43,2.61l.79.12c3.19.44,4.8,1.9,4.8,4.56,0,2.86-2,4.93-5.95,4.93A9,9,0,0,1,253.77,71Z"/><path d="M268.27,56.72a.23.23,0,0,1,.24-.24h9.82a.22.22,0,0,1,.23.24v1.51a.22.22,0,0,1-.23.24h-7.78a.13.13,0,0,0-.15.15v4.8c0,.09.05.14.15.14h6.6a.23.23,0,0,1,.24.24v1.51a.23.23,0,0,1-.24.24h-6.6a.13.13,0,0,0-.15.15v5c0,.09.05.14.15.14h7.78a.22.22,0,0,1,.23.24v1.51a.22.22,0,0,1-.23.24h-9.82a.22.22,0,0,1-.24-.24Z"/><path d="M289.92,72.8a.22.22,0,0,1-.24-.24V58.62a.13.13,0,0,0-.15-.15h-4.46a.22.22,0,0,1-.24-.24V56.72a.23.23,0,0,1,.24-.24h11.35a.23.23,0,0,1,.24.24v1.51a.23.23,0,0,1-.24.24H292a.13.13,0,0,0-.15.15V72.56a.22.22,0,0,1-.24.24Z"/><path d="M298,69.25a14.1,14.1,0,0,1-.43-4.61A14.1,14.1,0,0,1,298,60a6,6,0,0,1,11.12,0,14.1,14.1,0,0,1,.43,4.61,14.1,14.1,0,0,1-.43,4.61,6,6,0,0,1-11.12,0Zm9-.6a14.09,14.09,0,0,0,.36-4,14.09,14.09,0,0,0-.36-4,3.7,3.7,0,0,0-6.94,0,14.09,14.09,0,0,0-.36,4,14.09,14.09,0,0,0,.36,4,3.7,3.7,0,0,0,6.94,0Z"/><path d="M329,72.8c-.14,0-.21-.09-.26-.24l-3.48-12.17h-.05l-3.45,12.17a.3.3,0,0,1-.29.24h-1.32a.26.26,0,0,1-.27-.24l-3.93-15.84c-.05-.14,0-.24.19-.24h1.58a.25.25,0,0,1,.29.24l2.91,12.12h0l3.39-12.12a.31.31,0,0,1,.29-.24h1.22c.17,0,.24.1.29.24l3.45,12.12h.05l2.83-12.12a.3.3,0,0,1,.32-.24h1.56c.16,0,.21.1.19.24l-3.94,15.84a.28.28,0,0,1-.29.24Z"/><path d="M336.31,69.25a14.1,14.1,0,0,1-.43-4.61,14.1,14.1,0,0,1,.43-4.61,6,6,0,0,1,11.11,0,14.1,14.1,0,0,1,.43,4.61,14.1,14.1,0,0,1-.43,4.61,5.95,5.95,0,0,1-11.11,0Zm9-.6a14.09,14.09,0,0,0,.36-4,14.09,14.09,0,0,0-.36-4,3.69,3.69,0,0,0-6.93,0,13.7,13.7,0,0,0-.36,4,13.7,13.7,0,0,0,.36,4,3.69,3.69,0,0,0,6.93,0Z"/><path d="M360.28,72.8c-.16,0-.24-.07-.31-.24l-3.26-6.67h-3.6c-.1,0-.15,0-.15.14v6.53a.22.22,0,0,1-.24.24h-1.65a.22.22,0,0,1-.24-.24V56.72a.23.23,0,0,1,.24-.24H357c3,0,5.11,1.87,5.11,4.7a4.45,4.45,0,0,1-3.21,4.45l3.48,6.88c.09.15,0,.29-.15.29ZM360,61.18c0-1.7-1.13-2.71-3-2.71h-3.81a.13.13,0,0,0-.15.15v5.13a.13.13,0,0,0,.15.15h3.81C358.82,63.9,360,62.89,360,61.18Z"/><path d="M365.15,56.72a.23.23,0,0,1,.24-.24h1.66a.23.23,0,0,1,.24.24v8.5l6.94-8.52a.4.4,0,0,1,.38-.22h2c.14,0,.22.14.1.29l-5.09,6.12,5.59,9.65c.1.14,0,.26-.14.26h-1.92c-.17,0-.24,0-.34-.22l-4.58-8-2.91,3.51v4.51a.22.22,0,0,1-.24.24h-1.66a.23.23,0,0,1-.24-.24Z"/><path d="M379,60.54V56.72a.23.23,0,0,1,.24-.24h1.46a.23.23,0,0,1,.24.24v2a.65.65,0,0,1-.15.51l-1.24,1.36a.39.39,0,0,1-.34.2A.22.22,0,0,1,379,60.54Zm3.76,0V56.72a.23.23,0,0,1,.24-.24h1.47a.23.23,0,0,1,.24.24v2a.73.73,0,0,1-.17.51l-1.25,1.36a.41.41,0,0,1-.31.2A.21.21,0,0,1,382.72,60.54Z"/><path d="M385.39,70.5a.22.22,0,0,1,.24-.24h1.82a.22.22,0,0,1,.24.24v2.06a.22.22,0,0,1-.24.24h-1.82a.22.22,0,0,1-.24-.24Z"/></g></g></svg>