<svg xmlns="http://www.w3.org/2000/svg" viewBox="0 0 475.01 262.83"><title>r1</title><g id="Capa_2" data-name="Capa 2"><g id="fondo"><path d="M44.33,6.8a.52.52,0,0,1,.52-.4h3.68a.52.52,0,0,1,.52.4l9.2,26.4c.08.24,0,.4-.28.4H54.05a.48.48,0,0,1-.52-.4l-1.8-5.28H41.49l-1.8,5.28a.48.48,0,0,1-.52.4H35.29c-.28,0-.36-.16-.28-.4Zm6,16.92-3.6-10.56h-.12L42.93,23.72Z" transform="translate(-7.17 -6.4)"/><path d="M73.29,33.6a.38.38,0,0,1-.4-.4V22.08c0-2.48-1.24-4.2-3.64-4.2s-3.68,1.72-3.68,4.2V33.2a.38.38,0,0,1-.4.4H61.49a.38.38,0,0,1-.4-.4V14.72a.38.38,0,0,1,.4-.4h3.68a.38.38,0,0,1,.4.4v1.4h0a6,6,0,0,1,5.08-2.24c4.12,0,6.68,3,6.68,7.16V33.2a.38.38,0,0,1-.4.4Z" transform="translate(-7.17 -6.4)"/><path d="M87.85,33.84c-3.88,0-5.36-1.88-5.36-5.64V18a.21.21,0,0,0-.24-.24H81a.38.38,0,0,1-.4-.4V14.72a.38.38,0,0,1,.4-.4h1.28a.21.21,0,0,0,.24-.24V8.8a.38.38,0,0,1,.4-.4h3.68a.38.38,0,0,1,.4.4v5.28a.21.21,0,0,0,.24.24h2.56a.38.38,0,0,1,.4.4V17.4a.38.38,0,0,1-.4.4H87.21A.21.21,0,0,0,87,18V28c0,1.36.56,1.8,1.8,1.8h1a.38.38,0,0,1,.4.4v3.2a.38.38,0,0,1-.4.4Z" transform="translate(-7.17 -6.4)"/><path d="M93.89,28.68A15,15,0,0,1,93.21,24a15.36,15.36,0,0,1,.64-4.76c1.08-3.36,4-5.32,7.88-5.32s6.84,2,7.92,5.32a17.27,17.27,0,0,1,.64,5.8.39.39,0,0,1-.44.4H98a.21.21,0,0,0-.24.24,4.48,4.48,0,0,0,4.6,4.4,5.81,5.81,0,0,0,4.52-1.84.41.41,0,0,1,.6-.08l2.36,2.08a.36.36,0,0,1,0,.56A10.16,10.16,0,0,1,101.93,34C97.85,34,95,32,93.89,28.68Zm11.64-8.52a4.12,4.12,0,0,0-7.56,0,4.89,4.89,0,0,0-.24,1.64A.21.21,0,0,0,98,22h7.56a.21.21,0,0,0,.24-.24A4.89,4.89,0,0,0,105.53,20.16Z" transform="translate(-7.17 -6.4)"/><path d="M123.33,40.8a.38.38,0,0,1-.4-.4V14.72a.38.38,0,0,1,.4-.4H127a.38.38,0,0,1,.4.4v1.44h0c.92-1.32,2.52-2.28,5.12-2.28,3.28,0,5.68,1.56,6.68,4.64a16.07,16.07,0,0,1,.68,5.44,16.07,16.07,0,0,1-.68,5.44c-1,3.08-3.4,4.64-6.68,4.64-2.6,0-4.2-1-5.12-2.28h0V40.4a.38.38,0,0,1-.4.4ZM135,27.56a11.37,11.37,0,0,0,.4-3.6,11.37,11.37,0,0,0-.4-3.6,3.82,3.82,0,0,0-7.16,0,11.37,11.37,0,0,0-.4,3.6,11.37,11.37,0,0,0,.4,3.6,3.82,3.82,0,0,0,7.16,0Z" transform="translate(-7.17 -6.4)"/><path d="M143.53,28.72a14.24,14.24,0,0,1-.64-4.76,14.24,14.24,0,0,1,.64-4.76c1.08-3.36,4-5.32,8-5.32s6.84,2,7.92,5.32a14.24,14.24,0,0,1,.64,4.76,14.24,14.24,0,0,1-.64,4.76c-1.08,3.36-4,5.32-7.92,5.32S144.61,32.08,143.53,28.72Zm11.56-1.2a10.89,10.89,0,0,0,.4-3.56,11,11,0,0,0-.4-3.56,3.56,3.56,0,0,0-3.6-2.52,3.61,3.61,0,0,0-3.64,2.52,11,11,0,0,0-.4,3.56,10.89,10.89,0,0,0,.4,3.56A3.61,3.61,0,0,0,151.49,30,3.56,3.56,0,0,0,155.09,27.52Z" transform="translate(-7.17 -6.4)"/><path d="M162.89,31a.39.39,0,0,1,0-.56l2.28-2.4a.39.39,0,0,1,.56,0,8.92,8.92,0,0,0,5.64,2.2c2.36,0,3.56-1,3.56-2.28,0-1.16-.68-1.88-3.2-2.12l-2.08-.2c-3.92-.4-5.92-2.4-5.92-5.68,0-3.72,2.68-6.08,7.48-6.08a11.69,11.69,0,0,1,7.24,2.36.4.4,0,0,1,.08.56l-2,2.36a.39.39,0,0,1-.56.08,9.31,9.31,0,0,0-5-1.6c-1.92,0-2.92.84-2.92,2s.68,1.8,3.16,2l2.08.2c4,.4,6,2.48,6,5.64,0,3.84-2.8,6.52-8.08,6.52A12,12,0,0,1,162.89,31Z" transform="translate(-7.17 -6.4)"/><path d="M183.57,10.68a.38.38,0,0,1-.4-.4V6.8a.38.38,0,0,1,.4-.4h3.68a.38.38,0,0,1,.4.4v3.48a.38.38,0,0,1-.4.4Zm0,22.92a.38.38,0,0,1-.4-.4V14.72a.38.38,0,0,1,.4-.4h3.68a.38.38,0,0,1,.4.4V33.2a.38.38,0,0,1-.4.4Z" transform="translate(-7.17 -6.4)"/><path d="M197.21,31.76h0V33.2a.38.38,0,0,1-.4.4h-3.68a.38.38,0,0,1-.4-.4V6.8a.38.38,0,0,1,.4-.4h3.68a.38.38,0,0,1,.4.4v9.36h0c.92-1.32,2.52-2.28,5.12-2.28,3.28,0,5.68,1.56,6.68,4.64a16.07,16.07,0,0,1,.68,5.44A16.07,16.07,0,0,1,209,29.4c-1,3.08-3.4,4.64-6.68,4.64C199.73,34,198.13,33.08,197.21,31.76Zm7.52-4.2a11.37,11.37,0,0,0,.4-3.6,11.37,11.37,0,0,0-.4-3.6,3.82,3.82,0,0,0-7.16,0,11.37,11.37,0,0,0-.4,3.6,11.37,11.37,0,0,0,.4,3.6,3.82,3.82,0,0,0,7.16,0Z" transform="translate(-7.17 -6.4)"/><path d="M218.89,33.84c-3.76,0-5.28-1.8-5.28-5.52V6.8a.38.38,0,0,1,.4-.4h3.68a.38.38,0,0,1,.4.4V28.08c0,1.32.52,1.76,1.68,1.76h.88a.38.38,0,0,1,.4.4v3.2a.38.38,0,0,1-.4.4Z" transform="translate(-7.17 -6.4)"/><path d="M224.17,28.68a15,15,0,0,1-.68-4.72,15.36,15.36,0,0,1,.64-4.76c1.08-3.36,4-5.32,7.88-5.32s6.84,2,7.92,5.32a17.27,17.27,0,0,1,.64,5.8.39.39,0,0,1-.44.4H228.25a.21.21,0,0,0-.24.24,4.48,4.48,0,0,0,4.6,4.4,5.81,5.81,0,0,0,4.52-1.84.41.41,0,0,1,.6-.08l2.36,2.08a.36.36,0,0,1,0,.56A10.16,10.16,0,0,1,232.21,34C228.13,34,225.25,32,224.17,28.68Zm11.64-8.52a4.12,4.12,0,0,0-7.56,0A4.89,4.89,0,0,0,228,21.8a.21.21,0,0,0,.24.24h7.56a.21.21,0,0,0,.24-.24A4.89,4.89,0,0,0,235.81,20.16Z" transform="translate(-7.17 -6.4)"/><path d="M243.41,31a.39.39,0,0,1,0-.56l2.28-2.4a.39.39,0,0,1,.56,0,8.92,8.92,0,0,0,5.64,2.2c2.36,0,3.56-1,3.56-2.28,0-1.16-.68-1.88-3.2-2.12l-2.08-.2c-3.92-.4-5.92-2.4-5.92-5.68,0-3.72,2.68-6.08,7.48-6.08A11.69,11.69,0,0,1,259,16.24a.4.4,0,0,1,.08.56l-2,2.36a.39.39,0,0,1-.56.08,9.31,9.31,0,0,0-5-1.6c-1.92,0-2.92.84-2.92,2s.68,1.8,3.16,2l2.08.2c4,.4,6,2.48,6,5.64,0,3.84-2.8,6.52-8.08,6.52A12,12,0,0,1,243.41,31Z" transform="translate(-7.17 -6.4)"/><path d="M283.81,33.6a.38.38,0,0,1-.4-.4V31.8h0c-.92,1.32-2.72,2.24-5.44,2.24-3.52,0-6.48-1.84-6.48-5.88,0-4.2,3-6.12,7.72-6.12h3.92a.21.21,0,0,0,.24-.24v-.92c0-2.2-1-3.2-4.28-3.2a6.76,6.76,0,0,0-4.4,1.32.36.36,0,0,1-.56-.08l-1.48-2.64a.37.37,0,0,1,.08-.52,11.25,11.25,0,0,1,6.84-1.88c5.88,0,8,2,8,6.72V33.2a.37.37,0,0,1-.39.4Zm-.48-6.48V25.64a.21.21,0,0,0-.24-.24h-3.2c-2.88,0-4.16.8-4.16,2.6,0,1.6,1.16,2.4,3.32,2.4C281.81,30.4,283.33,29.32,283.33,27.12Z" transform="translate(-7.17 -6.4)"/><path d="M298.09,33.84c-3.88,0-5.36-1.88-5.36-5.64V18a.21.21,0,0,0-.24-.24h-1.28a.38.38,0,0,1-.4-.4V14.72a.38.38,0,0,1,.4-.4h1.28a.21.21,0,0,0,.24-.24V8.8a.38.38,0,0,1,.4-.4h3.68a.38.38,0,0,1,.4.4v5.28a.21.21,0,0,0,.24.24H300a.38.38,0,0,1,.4.4V17.4a.38.38,0,0,1-.4.4h-2.56a.21.21,0,0,0-.24.24V28c0,1.36.56,1.8,1.8,1.8h1a.38.38,0,0,1,.4.4v3.2a.38.38,0,0,1-.4.4Z" transform="translate(-7.17 -6.4)"/><path d="M316,33.6a.38.38,0,0,1-.4-.4V31.8h0c-.92,1.32-2.72,2.24-5.44,2.24-3.52,0-6.48-1.84-6.48-5.88,0-4.2,3-6.12,7.72-6.12h3.92a.21.21,0,0,0,.24-.24v-.92c0-2.2-1-3.2-4.28-3.2a6.76,6.76,0,0,0-4.4,1.32.36.36,0,0,1-.56-.08l-1.48-2.64a.37.37,0,0,1,.08-.52,11.25,11.25,0,0,1,6.84-1.88c5.88,0,8,2,8,6.72V33.2a.38.38,0,0,1-.4.4Zm-.48-6.48V25.64a.21.21,0,0,0-.24-.24h-3.2c-2.88,0-4.16.8-4.16,2.6,0,1.6,1.16,2.4,3.32,2.4C314,30.4,315.49,29.32,315.49,27.12Z" transform="translate(-7.17 -6.4)"/><path d="M336.49,40.8a.38.38,0,0,1-.4-.4V31.76h0c-.92,1.32-2.52,2.28-5.12,2.28-3.28,0-5.68-1.56-6.68-4.64a16.07,16.07,0,0,1-.68-5.44,16.07,16.07,0,0,1,.68-5.44c1-3.08,3.4-4.64,6.68-4.64,2.6,0,4.2,1,5.12,2.28h0V14.72a.38.38,0,0,1,.4-.4h3.68a.38.38,0,0,1,.39.4V40.4a.38.38,0,0,1-.39.4Zm-.8-13.24a11.37,11.37,0,0,0,.4-3.6,11.37,11.37,0,0,0-.4-3.6,3.82,3.82,0,0,0-7.16,0,11.37,11.37,0,0,0-.4,3.6,11.37,11.37,0,0,0,.4,3.6,3.82,3.82,0,0,0,7.16,0Z" transform="translate(-7.17 -6.4)"/><path d="M357.45,33.6a.38.38,0,0,1-.4-.4V31.8h0A5.91,5.91,0,0,1,352,34c-4.12,0-6.64-3-6.64-7.16V14.72a.38.38,0,0,1,.4-.4h3.68a.38.38,0,0,1,.4.4V25.84c0,2.48,1.16,4.2,3.6,4.2,2.28,0,3.6-1.72,3.6-4.16V14.72a.38.38,0,0,1,.4-.4h3.67a.38.38,0,0,1,.4.4V33.2a.38.38,0,0,1-.4.4Z" transform="translate(-7.17 -6.4)"/><path d="M366.21,28.68a15,15,0,0,1-.68-4.72,15.36,15.36,0,0,1,.64-4.76c1.08-3.36,4-5.32,7.88-5.32s6.83,2,7.91,5.32a17.27,17.27,0,0,1,.64,5.8.39.39,0,0,1-.44.4H370.29a.21.21,0,0,0-.24.24,4.48,4.48,0,0,0,4.6,4.4,5.81,5.81,0,0,0,4.52-1.84.4.4,0,0,1,.59-.08l2.36,2.08a.36.36,0,0,1,0,.56A10.14,10.14,0,0,1,374.25,34C370.17,34,367.29,32,366.21,28.68Zm11.64-8.52a4.12,4.12,0,0,0-7.56,0,4.89,4.89,0,0,0-.24,1.64.21.21,0,0,0,.24.24h7.56a.21.21,0,0,0,.23-.24A5.18,5.18,0,0,0,377.85,20.16Z" transform="translate(-7.17 -6.4)"/><path d="M385.45,31a.39.39,0,0,1,0-.56l2.28-2.4a.39.39,0,0,1,.56,0,8.92,8.92,0,0,0,5.64,2.2c2.36,0,3.56-1,3.56-2.28,0-1.16-.68-1.88-3.2-2.12l-2.08-.2c-3.92-.4-5.92-2.4-5.92-5.68,0-3.72,2.68-6.08,7.48-6.08A11.66,11.66,0,0,1,401,16.24a.4.4,0,0,1,.08.56l-2,2.36a.39.39,0,0,1-.56.08,9.25,9.25,0,0,0-5-1.6c-1.92,0-2.92.84-2.92,2s.68,1.8,3.16,2l2.08.2c4,.4,5.95,2.48,5.95,5.64,0,3.84-2.8,6.52-8.07,6.52A12,12,0,0,1,385.45,31Z" transform="translate(-7.17 -6.4)"/><path d="M426.24,33.6a.38.38,0,0,1-.4-.4V31.76h0c-.92,1.32-2.52,2.28-5.11,2.28-3.28,0-5.68-1.56-6.68-4.64a16.07,16.07,0,0,1-.68-5.44,16.07,16.07,0,0,1,.68-5.44c1-3.08,3.4-4.64,6.68-4.64,2.59,0,4.19,1,5.11,2.28h0V6.8a.38.38,0,0,1,.4-.4h3.68a.38.38,0,0,1,.4.4V33.2a.38.38,0,0,1-.4.4Zm-.8-6a11.37,11.37,0,0,0,.4-3.6,11.37,11.37,0,0,0-.4-3.6,3.82,3.82,0,0,0-7.15,0,11.37,11.37,0,0,0-.4,3.6,11.37,11.37,0,0,0,.4,3.6,3.82,3.82,0,0,0,7.15,0Z" transform="translate(-7.17 -6.4)"/><path d="M435,28.68a15,15,0,0,1-.68-4.72A15.36,15.36,0,0,1,435,19.2c1.08-3.36,4-5.32,7.88-5.32s6.83,2,7.91,5.32a17.27,17.27,0,0,1,.64,5.8.39.39,0,0,1-.44.4H439.09a.21.21,0,0,0-.24.24,4.48,4.48,0,0,0,4.59,4.4A5.81,5.81,0,0,0,448,28.2a.41.41,0,0,1,.6-.08l2.36,2.08a.36.36,0,0,1,0,.56A10.16,10.16,0,0,1,443,34C439,34,436.09,32,435,28.68Zm11.63-8.52a4.11,4.11,0,0,0-7.55,0,4.89,4.89,0,0,0-.24,1.64.21.21,0,0,0,.24.24h7.55a.21.21,0,0,0,.24-.24A4.89,4.89,0,0,0,446.64,20.16Z" transform="translate(-7.17 -6.4)"/><path d="M32.57,71.6a.38.38,0,0,1-.4-.4V69.8h0C31.21,71.12,29.41,72,26.69,72c-3.52,0-6.48-1.84-6.48-5.88,0-4.2,3-6.12,7.72-6.12h3.92a.21.21,0,0,0,.24-.24v-.92c0-2.2-1-3.2-4.28-3.2A6.76,6.76,0,0,0,23.41,57a.36.36,0,0,1-.56-.08l-1.48-2.64a.37.37,0,0,1,.08-.52,11.25,11.25,0,0,1,6.84-1.88c5.88,0,8,2,8,6.72V71.2a.38.38,0,0,1-.4.4Zm-.48-6.48V63.64a.21.21,0,0,0-.24-.24h-3.2c-2.88,0-4.16.8-4.16,2.6,0,1.6,1.16,2.4,3.32,2.4C30.57,68.4,32.09,67.32,32.09,65.12Z" transform="translate(-7.17 -6.4)"/><path d="M53.41,71.6a.38.38,0,0,1-.4-.4V60.08c0-2.48-1.24-4.2-3.64-4.2s-3.68,1.72-3.68,4.2V71.2a.38.38,0,0,1-.4.4H41.61a.38.38,0,0,1-.4-.4V52.72a.38.38,0,0,1,.4-.4h3.68a.38.38,0,0,1,.4.4v1.4h0a6,6,0,0,1,5.08-2.24c4.12,0,6.68,3,6.68,7.16V71.2a.38.38,0,0,1-.4.4Z" transform="translate(-7.17 -6.4)"/><path d="M62.73,48.68a.38.38,0,0,1-.4-.4V44.8a.38.38,0,0,1,.4-.4h3.68a.38.38,0,0,1,.4.4v3.48a.38.38,0,0,1-.4.4Zm0,22.92a.38.38,0,0,1-.4-.4V52.72a.38.38,0,0,1,.4-.4h3.68a.38.38,0,0,1,.4.4V71.2a.38.38,0,0,1-.4.4Z" transform="translate(-7.17 -6.4)"/><path d="M95.85,71.6a.38.38,0,0,1-.4-.4V60.08c0-2.48-1.24-4.2-3.64-4.2s-3.68,1.72-3.68,4.2V71.2a.38.38,0,0,1-.4.4H84.05a.38.38,0,0,1-.4-.4V60.08c0-2.48-1.24-4.2-3.64-4.2s-3.68,1.72-3.68,4.2V71.2a.38.38,0,0,1-.4.4H72.25a.38.38,0,0,1-.4-.4V52.72a.38.38,0,0,1,.4-.4h3.68a.38.38,0,0,1,.4.4v1.4h0a6,6,0,0,1,5.08-2.24,6.2,6.2,0,0,1,5.28,2.56h0a7.88,7.88,0,0,1,6.16-2.56c4.48,0,7,3,7,7.16V71.2a.38.38,0,0,1-.4.4Z" transform="translate(-7.17 -6.4)"/><path d="M116.25,71.6a.38.38,0,0,1-.4-.4V69.8h0c-.92,1.32-2.72,2.24-5.44,2.24-3.52,0-6.48-1.84-6.48-5.88,0-4.2,3-6.12,7.72-6.12h3.92a.21.21,0,0,0,.24-.24v-.92c0-2.2-1-3.2-4.28-3.2a6.76,6.76,0,0,0-4.4,1.32.36.36,0,0,1-.56-.08l-1.48-2.64a.37.37,0,0,1,.08-.52A11.25,11.25,0,0,1,112,51.88c5.88,0,8,2,8,6.72V71.2a.38.38,0,0,1-.4.4Zm-.48-6.48V63.64a.21.21,0,0,0-.24-.24h-3.2c-2.88,0-4.16.8-4.16,2.6,0,1.6,1.16,2.4,3.32,2.4C114.25,68.4,115.77,67.32,115.77,65.12Z" transform="translate(-7.17 -6.4)"/><path d="M130.09,71.84c-3.76,0-5.28-1.8-5.28-5.52V44.8a.38.38,0,0,1,.4-.4h3.68a.38.38,0,0,1,.4.4V66.08c0,1.32.52,1.76,1.68,1.76h.88a.38.38,0,0,1,.4.4v3.2a.38.38,0,0,1-.4.4Z" transform="translate(-7.17 -6.4)"/><path d="M135.37,66.68a15,15,0,0,1-.68-4.72,15.36,15.36,0,0,1,.64-4.76c1.08-3.36,4-5.32,7.88-5.32s6.84,2,7.92,5.32a17.27,17.27,0,0,1,.64,5.8.39.39,0,0,1-.44.4H139.45a.21.21,0,0,0-.24.24,4.48,4.48,0,0,0,4.6,4.4,5.81,5.81,0,0,0,4.52-1.84.41.41,0,0,1,.6-.08l2.36,2.08a.36.36,0,0,1,0,.56A10.16,10.16,0,0,1,143.41,72C139.33,72,136.45,70,135.37,66.68ZM147,58.16a4.12,4.12,0,0,0-7.56,0,4.89,4.89,0,0,0-.24,1.64.21.21,0,0,0,.24.24H147a.21.21,0,0,0,.24-.24A4.89,4.89,0,0,0,147,58.16Z" transform="translate(-7.17 -6.4)"/><path d="M154.61,69a.39.39,0,0,1,0-.56l2.28-2.4a.39.39,0,0,1,.56,0,8.92,8.92,0,0,0,5.64,2.2c2.36,0,3.56-1,3.56-2.28,0-1.16-.68-1.88-3.2-2.12l-2.08-.2c-3.92-.4-5.92-2.4-5.92-5.68,0-3.72,2.68-6.08,7.48-6.08a11.69,11.69,0,0,1,7.24,2.36.4.4,0,0,1,.08.56l-2,2.36a.39.39,0,0,1-.56.08,9.31,9.31,0,0,0-5-1.6c-1.92,0-2.92.84-2.92,2s.68,1.8,3.16,2l2.08.2c4,.4,6,2.48,6,5.64,0,3.84-2.8,6.52-8.08,6.52A12,12,0,0,1,154.61,69Z" transform="translate(-7.17 -6.4)"/><path d="M174.61,67.12a.38.38,0,0,1,.4-.4h3.76a.38.38,0,0,1,.4.4v4.36a1,1,0,0,1-.28.84l-3.32,3.44A.76.76,0,0,1,175,76a.38.38,0,0,1-.4-.4Z" transform="translate(-7.17 -6.4)"/><path d="M196.33,69.76h0V71.2a.38.38,0,0,1-.4.4h-3.68a.38.38,0,0,1-.4-.4V44.8a.38.38,0,0,1,.4-.4h3.68a.38.38,0,0,1,.4.4v9.36h0c.92-1.32,2.52-2.28,5.12-2.28,3.28,0,5.68,1.56,6.68,4.64a16.07,16.07,0,0,1,.68,5.44,16.07,16.07,0,0,1-.68,5.44c-1,3.08-3.4,4.64-6.68,4.64C198.85,72,197.25,71.08,196.33,69.76Zm7.52-4.2a11.37,11.37,0,0,0,.4-3.6,11.37,11.37,0,0,0-.4-3.6,3.82,3.82,0,0,0-7.16,0,11.37,11.37,0,0,0-.4,3.6,11.37,11.37,0,0,0,.4,3.6,3.82,3.82,0,0,0,7.16,0Z" transform="translate(-7.17 -6.4)"/><path d="M224.65,71.6a.38.38,0,0,1-.4-.4V69.8h0a5.91,5.91,0,0,1-5,2.24c-4.12,0-6.64-3-6.64-7.16V52.72a.38.38,0,0,1,.4-.4h3.68a.38.38,0,0,1,.4.4V63.84c0,2.48,1.16,4.2,3.6,4.2,2.28,0,3.6-1.72,3.6-4.16V52.72a.38.38,0,0,1,.4-.4h3.68a.38.38,0,0,1,.4.4V71.2a.38.38,0,0,1-.4.4Z" transform="translate(-7.17 -6.4)"/><path d="M232.61,69a.39.39,0,0,1,0-.56l2.28-2.4a.39.39,0,0,1,.56,0,8.92,8.92,0,0,0,5.64,2.2c2.36,0,3.56-1,3.56-2.28,0-1.16-.68-1.88-3.2-2.12l-2.08-.2c-3.92-.4-5.92-2.4-5.92-5.68,0-3.72,2.68-6.08,7.48-6.08a11.69,11.69,0,0,1,7.24,2.36.4.4,0,0,1,.08.56l-2,2.36a.39.39,0,0,1-.56.08,9.31,9.31,0,0,0-5-1.6c-1.92,0-2.92.84-2.92,2s.68,1.8,3.16,2l2.08.2c4,.4,6,2.48,6,5.64,0,3.84-2.8,6.52-8.08,6.52A12,12,0,0,1,232.61,69Z" transform="translate(-7.17 -6.4)"/><path d="M264.77,78.8a.38.38,0,0,1-.4-.4V69.76h0c-.92,1.32-2.52,2.28-5.12,2.28-3.28,0-5.68-1.56-6.68-4.64a16.07,16.07,0,0,1-.68-5.44,16.07,16.07,0,0,1,.68-5.44c1-3.08,3.4-4.64,6.68-4.64,2.6,0,4.2,1,5.12,2.28h0V52.72a.38.38,0,0,1,.4-.4h3.68a.38.38,0,0,1,.4.4V78.4a.38.38,0,0,1-.4.4ZM264,65.56a11.37,11.37,0,0,0,.4-3.6,11.37,11.37,0,0,0-.4-3.6,3.82,3.82,0,0,0-7.16,0,11.37,11.37,0,0,0-.4,3.6,11.37,11.37,0,0,0,.4,3.6,3.82,3.82,0,0,0,7.16,0Z" transform="translate(-7.17 -6.4)"/><path d="M285.73,71.6a.38.38,0,0,1-.4-.4V69.8h0a5.91,5.91,0,0,1-5,2.24c-4.12,0-6.64-3-6.64-7.16V52.72a.38.38,0,0,1,.4-.4h3.68a.38.38,0,0,1,.4.4V63.84c0,2.48,1.16,4.2,3.6,4.2,2.28,0,3.6-1.72,3.6-4.16V52.72a.38.38,0,0,1,.4-.4h3.68a.38.38,0,0,1,.4.4V71.2a.38.38,0,0,1-.4.4Z" transform="translate(-7.17 -6.4)"/><path d="M294.49,66.68a15,15,0,0,1-.68-4.72,15.36,15.36,0,0,1,.64-4.76c1.08-3.36,4-5.32,7.88-5.32s6.84,2,7.92,5.32a17.27,17.27,0,0,1,.64,5.8.39.39,0,0,1-.44.4H298.57a.21.21,0,0,0-.24.24,4.48,4.48,0,0,0,4.6,4.4,5.81,5.81,0,0,0,4.52-1.84.41.41,0,0,1,.6-.08l2.36,2.08a.37.37,0,0,1,0,.56A10.16,10.16,0,0,1,302.53,72C298.45,72,295.57,70,294.49,66.68Zm11.64-8.52a4.12,4.12,0,0,0-7.56,0,4.89,4.89,0,0,0-.24,1.64.21.21,0,0,0,.24.24h7.56a.21.21,0,0,0,.24-.24A4.89,4.89,0,0,0,306.13,58.16Z" transform="translate(-7.17 -6.4)"/><path d="M323.93,71.6a.38.38,0,0,1-.4-.4V52.72a.38.38,0,0,1,.4-.4h3.68a.38.38,0,0,1,.4.4v1.64h0a5.52,5.52,0,0,1,5-2.48,5.78,5.78,0,0,1,4,1.6c.21.2.25.36.09.56l-2.12,2.68a.36.36,0,0,1-.56.08,5.21,5.21,0,0,0-2.84-.92c-2.52,0-3.64,1.8-3.64,4.88V71.2a.38.38,0,0,1-.4.4Z" transform="translate(-7.17 -6.4)"/><path d="M338.89,66.68a15,15,0,0,1-.68-4.72,15.36,15.36,0,0,1,.64-4.76c1.08-3.36,4-5.32,7.88-5.32s6.83,2,7.91,5.32a17.27,17.27,0,0,1,.64,5.8.39.39,0,0,1-.44.4H343a.21.21,0,0,0-.24.24,4.48,4.48,0,0,0,4.6,4.4,5.81,5.81,0,0,0,4.52-1.84.4.4,0,0,1,.59-.08l2.36,2.08a.36.36,0,0,1,0,.56A10.14,10.14,0,0,1,346.93,72C342.85,72,340,70,338.89,66.68Zm11.64-8.52a4.12,4.12,0,0,0-7.56,0,4.89,4.89,0,0,0-.24,1.64A.21.21,0,0,0,343,60h7.56a.21.21,0,0,0,.24-.24A4.89,4.89,0,0,0,350.53,58.16Z" transform="translate(-7.17 -6.4)"/><path d="M360.29,71.6a.38.38,0,0,1-.4-.4V56a.21.21,0,0,0-.24-.24h-1.28a.38.38,0,0,1-.4-.4V52.72a.38.38,0,0,1,.4-.4h1.28a.21.21,0,0,0,.24-.24V50.84c0-4.48,2.2-6.44,6.4-6.44h1.76a.38.38,0,0,1,.4.4V48a.38.38,0,0,1-.4.4h-1.24c-2,0-2.44.48-2.44,2.36v1.32a.21.21,0,0,0,.24.24h3.44a.38.38,0,0,1,.4.4V55.4a.38.38,0,0,1-.4.4h-3.44a.21.21,0,0,0-.24.24V71.2a.38.38,0,0,1-.4.4Z" transform="translate(-7.17 -6.4)"/><path d="M383.44,71.6a.38.38,0,0,1-.4-.4V69.8h0A5.91,5.91,0,0,1,378,72c-4.12,0-6.64-3-6.64-7.16V52.72a.38.38,0,0,1,.4-.4h3.68a.38.38,0,0,1,.4.4V63.84c0,2.48,1.16,4.2,3.6,4.2,2.27,0,3.59-1.72,3.59-4.16V52.72a.38.38,0,0,1,.4-.4h3.68a.38.38,0,0,1,.4.4V71.2a.38.38,0,0,1-.4.4Z" transform="translate(-7.17 -6.4)"/><path d="M392.17,76.36a.36.36,0,0,1,0-.56l2.36-2.36a.37.37,0,0,1,.6,0,5.92,5.92,0,0,0,4.2,1.8c2.95,0,4.31-1.6,4.31-4.6v-1.8h0c-.88,1.36-2.52,2.24-5,2.24a6.44,6.44,0,0,1-6.56-4.68,14.69,14.69,0,0,1-.64-4.92,14.44,14.44,0,0,1,.64-4.88,6.43,6.43,0,0,1,6.56-4.72c2.47,0,4.11.88,5,2.28h0V52.72a.38.38,0,0,1,.4-.4h3.68a.38.38,0,0,1,.4.4V70.4c0,5.52-3.08,8.84-9,8.84A9.54,9.54,0,0,1,392.17,76.36Zm11.07-11.72a9,9,0,0,0,.44-3.16,9.28,9.28,0,0,0-.44-3.16,3.61,3.61,0,0,0-6.83,0,9.28,9.28,0,0,0-.44,3.16,9,9,0,0,0,.44,3.16,3.59,3.59,0,0,0,6.83,0Z" transform="translate(-7.17 -6.4)"/><path d="M413.61,48.68a.38.38,0,0,1-.4-.4V44.8a.38.38,0,0,1,.4-.4h3.68a.38.38,0,0,1,.4.4v3.48a.38.38,0,0,1-.4.4Zm0,22.92a.38.38,0,0,1-.4-.4V52.72a.38.38,0,0,1,.4-.4h3.68a.38.38,0,0,1,.4.4V71.2a.38.38,0,0,1-.4.4Z" transform="translate(-7.17 -6.4)"/><path d="M422.33,66.72a14.24,14.24,0,0,1-.64-4.76,14.24,14.24,0,0,1,.64-4.76c1.08-3.36,4-5.32,7.95-5.32s6.84,2,7.92,5.32a14.24,14.24,0,0,1,.64,4.76,14.24,14.24,0,0,1-.64,4.76c-1.08,3.36-4,5.32-7.92,5.32S423.41,70.08,422.33,66.72Zm11.55-1.2a10.89,10.89,0,0,0,.4-3.56,11,11,0,0,0-.4-3.56,3.56,3.56,0,0,0-3.6-2.52,3.61,3.61,0,0,0-3.63,2.52,11,11,0,0,0-.4,3.56,10.89,10.89,0,0,0,.4,3.56A3.61,3.61,0,0,0,430.28,68,3.56,3.56,0,0,0,433.88,65.52Z" transform="translate(-7.17 -6.4)"/><path d="M451.13,66.68a15,15,0,0,1-.68-4.72,15.36,15.36,0,0,1,.64-4.76c1.08-3.36,4-5.32,7.87-5.32s6.84,2,7.92,5.32a17.27,17.27,0,0,1,.64,5.8.39.39,0,0,1-.44.4H455.2a.21.21,0,0,0-.24.24,4.48,4.48,0,0,0,4.6,4.4,5.81,5.81,0,0,0,4.52-1.84.41.41,0,0,1,.6-.08L467,68.2a.36.36,0,0,1,0,.56A10.16,10.16,0,0,1,459.16,72C455.08,72,452.21,70,451.13,66.68Zm11.63-8.52a4.12,4.12,0,0,0-7.56,0A4.89,4.89,0,0,0,455,59.8a.21.21,0,0,0,.24.24h7.56a.21.21,0,0,0,.24-.24A4.89,4.89,0,0,0,462.76,58.16Z" transform="translate(-7.17 -6.4)"/><path d="M11.17,86.68a.38.38,0,0,1-.4-.4V82.8a.38.38,0,0,1,.4-.4h3.68a.38.38,0,0,1,.4.4v3.48a.38.38,0,0,1-.4.4Zm0,22.92a.38.38,0,0,1-.4-.4V90.72a.38.38,0,0,1,.4-.4h3.68a.38.38,0,0,1,.4.4V109.2a.38.38,0,0,1-.4.4Z" transform="translate(-7.17 -6.4)"/><path d="M32.49,109.6a.38.38,0,0,1-.4-.4V98.08c0-2.48-1.24-4.2-3.64-4.2s-3.68,1.72-3.68,4.2V109.2a.38.38,0,0,1-.4.4H20.69a.38.38,0,0,1-.4-.4V90.72a.38.38,0,0,1,.4-.4h3.68a.38.38,0,0,1,.4.4v1.4h0a6,6,0,0,1,5.08-2.24c4.12,0,6.68,3,6.68,7.16V109.2a.38.38,0,0,1-.4.4Z" transform="translate(-7.17 -6.4)"/><path d="M47.05,109.84c-3.88,0-5.36-1.88-5.36-5.64V94a.21.21,0,0,0-.24-.24H40.17a.38.38,0,0,1-.4-.4V90.72a.38.38,0,0,1,.4-.4h1.28a.21.21,0,0,0,.24-.24V84.8a.38.38,0,0,1,.4-.4h3.68a.38.38,0,0,1,.4.4v5.28a.21.21,0,0,0,.24.24H49a.38.38,0,0,1,.4.4V93.4a.38.38,0,0,1-.4.4H46.41a.21.21,0,0,0-.24.24v10c0,1.36.56,1.8,1.8,1.8h1a.38.38,0,0,1,.4.4v3.2a.38.38,0,0,1-.4.4Z" transform="translate(-7.17 -6.4)"/><path d="M53.09,104.68a15,15,0,0,1-.68-4.72,15.36,15.36,0,0,1,.64-4.76c1.08-3.36,4-5.32,7.88-5.32s6.84,2,7.92,5.32a17.27,17.27,0,0,1,.64,5.8.39.39,0,0,1-.44.4H57.17a.21.21,0,0,0-.24.24,4.48,4.48,0,0,0,4.6,4.4,5.81,5.81,0,0,0,4.52-1.84.41.41,0,0,1,.6-.08L69,106.2a.36.36,0,0,1,0,.56A10.16,10.16,0,0,1,61.13,110C57.05,110,54.17,108,53.09,104.68Zm11.64-8.52a4.12,4.12,0,0,0-7.56,0,4.89,4.89,0,0,0-.24,1.64.21.21,0,0,0,.24.24h7.56A.21.21,0,0,0,65,97.8,4.89,4.89,0,0,0,64.73,96.16Z" transform="translate(-7.17 -6.4)"/><path d="M85.69,109.6a.38.38,0,0,1-.4-.4V98.08c0-2.48-1.24-4.2-3.64-4.2S78,95.6,78,98.08V109.2a.38.38,0,0,1-.4.4H73.89a.38.38,0,0,1-.4-.4V90.72a.38.38,0,0,1,.4-.4h3.68a.38.38,0,0,1,.4.4v1.4h0a6,6,0,0,1,5.08-2.24c4.12,0,6.68,3,6.68,7.16V109.2a.38.38,0,0,1-.4.4Z" transform="translate(-7.17 -6.4)"/><path d="M100.25,109.84c-3.88,0-5.36-1.88-5.36-5.64V94a.21.21,0,0,0-.24-.24H93.37a.38.38,0,0,1-.4-.4V90.72a.38.38,0,0,1,.4-.4h1.28a.21.21,0,0,0,.24-.24V84.8a.38.38,0,0,1,.4-.4H99a.38.38,0,0,1,.4.4v5.28a.21.21,0,0,0,.24.24h2.56a.38.38,0,0,1,.4.4V93.4a.38.38,0,0,1-.4.4H99.61a.21.21,0,0,0-.24.24v10c0,1.36.56,1.8,1.8,1.8h1a.38.38,0,0,1,.4.4v3.2a.38.38,0,0,1-.4.4Z" transform="translate(-7.17 -6.4)"/><path d="M106.29,104.68a15,15,0,0,1-.68-4.72,15.36,15.36,0,0,1,.64-4.76c1.08-3.36,4-5.32,7.88-5.32s6.84,2,7.92,5.32a17.27,17.27,0,0,1,.64,5.8.39.39,0,0,1-.44.4H110.37a.21.21,0,0,0-.24.24,4.48,4.48,0,0,0,4.6,4.4,5.81,5.81,0,0,0,4.52-1.84.41.41,0,0,1,.6-.08l2.36,2.08a.36.36,0,0,1,0,.56,10.16,10.16,0,0,1-7.92,3.28C110.25,110,107.37,108,106.29,104.68Zm11.64-8.52a4.12,4.12,0,0,0-7.56,0,4.89,4.89,0,0,0-.24,1.64.21.21,0,0,0,.24.24h7.56a.21.21,0,0,0,.24-.24A4.89,4.89,0,0,0,117.93,96.16Z" transform="translate(-7.17 -6.4)"/><path d="M135.73,116.8a.38.38,0,0,1-.4-.4V90.72a.38.38,0,0,1,.4-.4h3.68a.38.38,0,0,1,.4.4v1.44h0c.92-1.32,2.52-2.28,5.12-2.28,3.28,0,5.68,1.56,6.68,4.64a16.07,16.07,0,0,1,.68,5.44,16.07,16.07,0,0,1-.68,5.44c-1,3.08-3.4,4.64-6.68,4.64-2.6,0-4.2-1-5.12-2.28h0v8.64a.38.38,0,0,1-.4.4Zm11.64-13.24a11.37,11.37,0,0,0,.4-3.6,11.37,11.37,0,0,0-.4-3.6,3.82,3.82,0,0,0-7.16,0,11.37,11.37,0,0,0-.4,3.6,11.37,11.37,0,0,0,.4,3.6,3.82,3.82,0,0,0,7.16,0Z" transform="translate(-7.17 -6.4)"/><path d="M156.73,109.6a.38.38,0,0,1-.4-.4V90.72a.38.38,0,0,1,.4-.4h3.68a.38.38,0,0,1,.4.4v1.64h0a5.52,5.52,0,0,1,5-2.48,5.82,5.82,0,0,1,4,1.6c.2.2.24.36.08.56l-2.12,2.68a.36.36,0,0,1-.56.08,5.21,5.21,0,0,0-2.84-.92c-2.52,0-3.64,1.8-3.64,4.88V109.2a.38.38,0,0,1-.4.4Z" transform="translate(-7.17 -6.4)"/><path d="M171.65,104.72A14.24,14.24,0,0,1,171,100a14.24,14.24,0,0,1,.64-4.76c1.08-3.36,4-5.32,8-5.32s6.84,2,7.92,5.32a14.24,14.24,0,0,1,.64,4.76,14.24,14.24,0,0,1-.64,4.76c-1.08,3.36-4,5.32-7.92,5.32S172.73,108.08,171.65,104.72Zm11.56-1.2a10.89,10.89,0,0,0,.4-3.56,11,11,0,0,0-.4-3.56,3.56,3.56,0,0,0-3.6-2.52A3.61,3.61,0,0,0,176,96.4a11,11,0,0,0-.4,3.56,10.89,10.89,0,0,0,.4,3.56,3.61,3.61,0,0,0,3.64,2.52A3.56,3.56,0,0,0,183.21,103.52Z" transform="translate(-7.17 -6.4)"/><path d="M197.81,109.84c-3.88,0-5.36-1.88-5.36-5.64V94a.21.21,0,0,0-.24-.24h-1.28a.38.38,0,0,1-.4-.4V90.72a.38.38,0,0,1,.4-.4h1.28a.21.21,0,0,0,.24-.24V84.8a.38.38,0,0,1,.4-.4h3.68a.38.38,0,0,1,.4.4v5.28a.21.21,0,0,0,.24.24h2.56a.38.38,0,0,1,.4.4V93.4a.38.38,0,0,1-.4.4h-2.56a.21.21,0,0,0-.24.24v10c0,1.36.56,1.8,1.8,1.8h1a.38.38,0,0,1,.4.4v3.2a.38.38,0,0,1-.4.4Z" transform="translate(-7.17 -6.4)"/><path d="M203.85,104.68a15,15,0,0,1-.68-4.72,15.36,15.36,0,0,1,.64-4.76c1.08-3.36,4-5.32,7.88-5.32s6.84,2,7.92,5.32a17.27,17.27,0,0,1,.64,5.8.39.39,0,0,1-.44.4H207.93a.21.21,0,0,0-.24.24,4.48,4.48,0,0,0,4.6,4.4,5.81,5.81,0,0,0,4.52-1.84.41.41,0,0,1,.6-.08l2.36,2.08a.36.36,0,0,1,0,.56,10.16,10.16,0,0,1-7.92,3.28C207.81,110,204.93,108,203.85,104.68Zm11.64-8.52a4.12,4.12,0,0,0-7.56,0,4.89,4.89,0,0,0-.24,1.64.21.21,0,0,0,.24.24h7.56a.21.21,0,0,0,.24-.24A4.89,4.89,0,0,0,215.49,96.16Z" transform="translate(-7.17 -6.4)"/><path d="M223.85,114.36a.36.36,0,0,1,0-.56l2.36-2.36a.38.38,0,0,1,.6,0,5.92,5.92,0,0,0,4.2,1.8c3,0,4.32-1.6,4.32-4.6v-1.8h0c-.88,1.36-2.52,2.24-5,2.24a6.44,6.44,0,0,1-6.56-4.68,14.69,14.69,0,0,1-.64-4.92,14.44,14.44,0,0,1,.64-4.88,6.43,6.43,0,0,1,6.56-4.72c2.48,0,4.12.88,5,2.28h0V90.72a.38.38,0,0,1,.4-.4h3.68a.38.38,0,0,1,.4.4V108.4c0,5.52-3.08,8.84-9,8.84A9.54,9.54,0,0,1,223.85,114.36Zm11.08-11.72a9,9,0,0,0,.44-3.16,9.28,9.28,0,0,0-.44-3.16,3.62,3.62,0,0,0-6.84,0,9.28,9.28,0,0,0-.44,3.16,9,9,0,0,0,.44,3.16,3.6,3.6,0,0,0,6.84,0Z" transform="translate(-7.17 -6.4)"/><path d="M244.53,104.68a15,15,0,0,1-.68-4.72,15.36,15.36,0,0,1,.64-4.76c1.08-3.36,4-5.32,7.88-5.32s6.84,2,7.92,5.32a17.27,17.27,0,0,1,.64,5.8.39.39,0,0,1-.44.4H248.61a.21.21,0,0,0-.24.24A4.48,4.48,0,0,0,253,106a5.81,5.81,0,0,0,4.52-1.84.41.41,0,0,1,.6-.08l2.36,2.08a.36.36,0,0,1,0,.56,10.16,10.16,0,0,1-7.92,3.28C248.49,110,245.61,108,244.53,104.68Zm11.64-8.52a4.12,4.12,0,0,0-7.56,0,4.89,4.89,0,0,0-.24,1.64.21.21,0,0,0,.24.24h7.56a.21.21,0,0,0,.24-.24A4.89,4.89,0,0,0,256.17,96.16Z" transform="translate(-7.17 -6.4)"/><path d="M265.33,109.6a.38.38,0,0,1-.4-.4V90.72a.38.38,0,0,1,.4-.4H269a.38.38,0,0,1,.4.4v1.64h0a5.52,5.52,0,0,1,5-2.48,5.82,5.82,0,0,1,4,1.6c.2.2.24.36.08.56l-2.12,2.68a.36.36,0,0,1-.56.08,5.21,5.21,0,0,0-2.84-.92c-2.52,0-3.64,1.8-3.64,4.88V109.2a.38.38,0,0,1-.4.4Z" transform="translate(-7.17 -6.4)"/><path d="M279.53,107a.39.39,0,0,1,0-.56l2.28-2.4a.39.39,0,0,1,.56,0,8.92,8.92,0,0,0,5.64,2.2c2.36,0,3.56-1,3.56-2.28,0-1.16-.68-1.88-3.2-2.12l-2.08-.2c-3.92-.4-5.92-2.4-5.92-5.68,0-3.72,2.68-6.08,7.48-6.08a11.69,11.69,0,0,1,7.24,2.36.4.4,0,0,1,.08.56l-2,2.36a.39.39,0,0,1-.56.08,9.31,9.31,0,0,0-5-1.6c-1.92,0-2.92.84-2.92,2s.68,1.8,3.16,2l2.08.2c4,.4,6,2.48,6,5.64,0,3.84-2.8,6.52-8.08,6.52A12,12,0,0,1,279.53,107Z" transform="translate(-7.17 -6.4)"/><path d="M299.45,104.68a15,15,0,0,1-.68-4.72,15.36,15.36,0,0,1,.64-4.76c1.08-3.36,4-5.32,7.88-5.32s6.83,2,7.91,5.32a17.27,17.27,0,0,1,.64,5.8.39.39,0,0,1-.44.4H303.53a.21.21,0,0,0-.24.24,4.48,4.48,0,0,0,4.6,4.4,5.81,5.81,0,0,0,4.52-1.84.4.4,0,0,1,.59-.08l2.36,2.08a.36.36,0,0,1,0,.56,10.14,10.14,0,0,1-7.91,3.28C303.41,110,300.53,108,299.45,104.68Zm11.64-8.52a4.12,4.12,0,0,0-7.56,0,4.89,4.89,0,0,0-.24,1.64.21.21,0,0,0,.24.24h7.56a.21.21,0,0,0,.24-.24A4.89,4.89,0,0,0,311.09,96.16Z" transform="translate(-7.17 -6.4)"/><path d="M328.05,104.72a15.15,15.15,0,0,1-.6-4.76,15.15,15.15,0,0,1,.6-4.76c1.12-3.44,4.08-5.32,8-5.32a8.39,8.39,0,0,1,6.67,3,.39.39,0,0,1,0,.56l-2.52,2.2a.36.36,0,0,1-.56-.08A4.36,4.36,0,0,0,336,93.88a3.54,3.54,0,0,0-3.6,2.52A11.33,11.33,0,0,0,332,100a11.6,11.6,0,0,0,.4,3.6A3.55,3.55,0,0,0,336,106a4.36,4.36,0,0,0,3.55-1.68.36.36,0,0,1,.56,0l2.52,2.2c.2.16.16.36,0,.56a8.49,8.49,0,0,1-6.67,3C332.13,110,329.17,108.16,328.05,104.72Z" transform="translate(-7.17 -6.4)"/><path d="M346.29,104.72a14.24,14.24,0,0,1-.64-4.76,14.24,14.24,0,0,1,.64-4.76c1.08-3.36,4-5.32,7.95-5.32s6.84,2,7.92,5.32a14.24,14.24,0,0,1,.64,4.76,14.24,14.24,0,0,1-.64,4.76c-1.08,3.36-4,5.32-7.92,5.32S347.37,108.08,346.29,104.72Zm11.55-1.2a10.89,10.89,0,0,0,.4-3.56,11,11,0,0,0-.4-3.56,3.56,3.56,0,0,0-3.6-2.52,3.61,3.61,0,0,0-3.63,2.52,11,11,0,0,0-.4,3.56,10.89,10.89,0,0,0,.4,3.56,3.61,3.61,0,0,0,3.63,2.52A3.56,3.56,0,0,0,357.84,103.52Z" transform="translate(-7.17 -6.4)"/><path d="M379,109.6a.38.38,0,0,1-.4-.4V98.08c0-2.48-1.24-4.2-3.64-4.2s-3.67,1.72-3.67,4.2V109.2a.38.38,0,0,1-.4.4h-3.68a.38.38,0,0,1-.4-.4V90.72a.38.38,0,0,1,.4-.4h3.68a.38.38,0,0,1,.4.4v1.4h0a6,6,0,0,1,5.07-2.24c4.12,0,6.68,3,6.68,7.16V109.2a.38.38,0,0,1-.4.4Z" transform="translate(-7.17 -6.4)"/><path d="M396.17,104.72a14.24,14.24,0,0,1-.64-4.76,14.24,14.24,0,0,1,.64-4.76c1.08-3.36,4-5.32,7.95-5.32s6.84,2,7.92,5.32a14.24,14.24,0,0,1,.64,4.76,14.24,14.24,0,0,1-.64,4.76c-1.08,3.36-4,5.32-7.92,5.32S397.25,108.08,396.17,104.72Zm11.55-1.2a10.89,10.89,0,0,0,.4-3.56,11,11,0,0,0-.4-3.56,3.56,3.56,0,0,0-3.6-2.52,3.61,3.61,0,0,0-3.64,2.52,11,11,0,0,0-.4,3.56,10.89,10.89,0,0,0,.4,3.56,3.61,3.61,0,0,0,3.64,2.52A3.56,3.56,0,0,0,407.72,103.52Z" transform="translate(-7.17 -6.4)"/><path d="M421.2,107.76h0v1.44a.38.38,0,0,1-.4.4h-3.68a.38.38,0,0,1-.4-.4V82.8a.38.38,0,0,1,.4-.4h3.68a.38.38,0,0,1,.4.4v9.36h0c.92-1.32,2.52-2.28,5.12-2.28,3.28,0,5.68,1.56,6.68,4.64a16.07,16.07,0,0,1,.68,5.44,16.07,16.07,0,0,1-.68,5.44c-1,3.08-3.4,4.64-6.68,4.64C423.72,110,422.12,109.08,421.2,107.76Zm7.52-4.2a11.37,11.37,0,0,0,.4-3.6,11.37,11.37,0,0,0-.4-3.6,3.82,3.82,0,0,0-7.16,0,11.37,11.37,0,0,0-.4,3.6,11.37,11.37,0,0,0,.4,3.6,3.82,3.82,0,0,0,7.16,0Z" transform="translate(-7.17 -6.4)"/><path d="M434.56,116.8a.38.38,0,0,1-.39-.4v-3.2a.38.38,0,0,1,.39-.4h.88c1.6,0,2.24-.52,2.24-2.28V90.72a.38.38,0,0,1,.4-.4h3.68a.38.38,0,0,1,.4.4v19.72c0,4.44-2.28,6.36-6.47,6.36Zm3.52-30.12a.38.38,0,0,1-.4-.4V82.8a.38.38,0,0,1,.4-.4h3.68a.38.38,0,0,1,.4.4v3.48a.38.38,0,0,1-.4.4Z" transform="translate(-7.17 -6.4)"/><path d="M446.84,104.68a15,15,0,0,1-.67-4.72,15.4,15.4,0,0,1,.63-4.76c1.08-3.36,4-5.32,7.88-5.32s6.84,2,7.92,5.32a17.27,17.27,0,0,1,.64,5.8.39.39,0,0,1-.44.4H450.92a.21.21,0,0,0-.24.24,4.48,4.48,0,0,0,4.6,4.4,5.81,5.81,0,0,0,4.52-1.84.41.41,0,0,1,.6-.08l2.36,2.08a.36.36,0,0,1,0,.56,10.16,10.16,0,0,1-7.92,3.28C450.8,110,447.92,108,446.84,104.68Zm11.64-8.52a4.12,4.12,0,0,0-7.56,0,4.89,4.89,0,0,0-.24,1.64.21.21,0,0,0,.24.24h7.56a.21.21,0,0,0,.24-.24A4.89,4.89,0,0,0,458.48,96.16Z" transform="translate(-7.17 -6.4)"/><path d="M466.12,100.56V97.4a.38.38,0,0,1,.4-.4h11a.38.38,0,0,1,.4.4v3.16a.38.38,0,0,1-.4.4h-11A.38.38,0,0,1,466.12,100.56Z" transform="translate(-7.17 -6.4)"/><path d="M24.27,147.84c-3.88,0-5.36-1.88-5.36-5.64V132a.21.21,0,0,0-.24-.24H17.39a.38.38,0,0,1-.4-.4v-2.68a.38.38,0,0,1,.4-.4h1.28a.21.21,0,0,0,.24-.24V122.8a.38.38,0,0,1,.4-.4H23a.38.38,0,0,1,.4.4v5.28a.21.21,0,0,0,.24.24h2.56a.38.38,0,0,1,.4.4v2.68a.38.38,0,0,1-.4.4H23.63a.21.21,0,0,0-.24.24v10c0,1.36.56,1.8,1.8,1.8h1a.38.38,0,0,1,.4.4v3.2a.38.38,0,0,1-.4.4Z" transform="translate(-7.17 -6.4)"/><path d="M30.27,142.72a18,18,0,0,1,0-9.52c1.08-3.36,4-5.32,8-5.32s6.84,2,7.92,5.32a18,18,0,0,1,0,9.52c-1.08,3.36-4,5.32-7.92,5.32S31.35,146.08,30.27,142.72Zm11.56-1.2a10.89,10.89,0,0,0,.4-3.56,11,11,0,0,0-.4-3.56,3.56,3.56,0,0,0-3.6-2.52,3.61,3.61,0,0,0-3.64,2.52,11,11,0,0,0-.4,3.56,10.89,10.89,0,0,0,.4,3.56A3.61,3.61,0,0,0,38.23,144,3.56,3.56,0,0,0,41.83,141.52Z" transform="translate(-7.17 -6.4)"/><path d="M49.63,145a.39.39,0,0,1,0-.56l2.28-2.4a.39.39,0,0,1,.56,0,8.92,8.92,0,0,0,5.64,2.2c2.36,0,3.56-1,3.56-2.28,0-1.16-.68-1.88-3.2-2.12l-2.08-.2c-3.92-.4-5.92-2.4-5.92-5.68,0-3.72,2.68-6.08,7.48-6.08a11.69,11.69,0,0,1,7.24,2.36.4.4,0,0,1,.08.56l-2,2.36a.39.39,0,0,1-.56.08,9.31,9.31,0,0,0-5-1.6c-1.92,0-2.92.84-2.92,2s.68,1.8,3.16,2l2.08.2c4,.4,6,2.48,6,5.64,0,3.84-2.8,6.52-8.08,6.52A12,12,0,0,1,49.63,145Z" transform="translate(-7.17 -6.4)"/><path d="M78.15,142.72a18,18,0,0,1,0-9.52c1.08-3.36,4-5.32,8-5.32s6.84,2,7.92,5.32a18,18,0,0,1,0,9.52C93,146.08,90,148,86.11,148S79.23,146.08,78.15,142.72Zm11.56-1.2a10.89,10.89,0,0,0,.4-3.56,11,11,0,0,0-.4-3.56,3.56,3.56,0,0,0-3.6-2.52,3.61,3.61,0,0,0-3.64,2.52,11,11,0,0,0-.4,3.56,10.89,10.89,0,0,0,.4,3.56A3.61,3.61,0,0,0,86.11,144,3.56,3.56,0,0,0,89.71,141.52Z" transform="translate(-7.17 -6.4)"/><path d="M107,142.68a15,15,0,0,1-.68-4.72,15.36,15.36,0,0,1,.64-4.76c1.08-3.36,4-5.32,7.88-5.32s6.84,2,7.92,5.32a17.27,17.27,0,0,1,.64,5.8.39.39,0,0,1-.44.4H111a.21.21,0,0,0-.24.24,4.48,4.48,0,0,0,4.6,4.4,5.81,5.81,0,0,0,4.52-1.84.41.41,0,0,1,.6-.08l2.36,2.08a.36.36,0,0,1,0,.56A10.16,10.16,0,0,1,115,148C110.91,148,108,146,107,142.68Zm11.64-8.52a4.12,4.12,0,0,0-7.56,0,4.89,4.89,0,0,0-.24,1.64.21.21,0,0,0,.24.24h7.56a.21.21,0,0,0,.24-.24A4.89,4.89,0,0,0,118.59,134.16Z" transform="translate(-7.17 -6.4)"/><path d="M132.55,147.84c-3.76,0-5.28-1.8-5.28-5.52V120.8a.38.38,0,0,1,.4-.4h3.68a.38.38,0,0,1,.4.4v21.28c0,1.32.52,1.76,1.68,1.76h.88a.38.38,0,0,1,.4.4v3.2a.38.38,0,0,1-.4.4Z" transform="translate(-7.17 -6.4)"/><path d="M137.83,142.68a15,15,0,0,1-.68-4.72,15.36,15.36,0,0,1,.64-4.76c1.08-3.36,4-5.32,7.88-5.32s6.84,2,7.92,5.32a17.27,17.27,0,0,1,.64,5.8.39.39,0,0,1-.44.4H141.91a.21.21,0,0,0-.24.24,4.48,4.48,0,0,0,4.6,4.4,5.81,5.81,0,0,0,4.52-1.84.41.41,0,0,1,.6-.08l2.36,2.08a.36.36,0,0,1,0,.56,10.16,10.16,0,0,1-7.92,3.28C141.79,148,138.91,146,137.83,142.68Zm11.64-8.52a4.12,4.12,0,0,0-7.56,0,4.89,4.89,0,0,0-.24,1.64.21.21,0,0,0,.24.24h7.56a.21.21,0,0,0,.24-.24A4.89,4.89,0,0,0,149.47,134.16Z" transform="translate(-7.17 -6.4)"/><path d="M182.23,147.6a.37.37,0,0,1-.4-.4V136.08c0-2.48-1.24-4.2-3.64-4.2s-3.68,1.72-3.68,4.2V147.2a.38.38,0,0,1-.4.4h-3.68a.38.38,0,0,1-.4-.4V136.08c0-2.48-1.24-4.2-3.64-4.2s-3.68,1.72-3.68,4.2V147.2a.38.38,0,0,1-.4.4h-3.68a.38.38,0,0,1-.4-.4V128.72a.38.38,0,0,1,.4-.4h3.68a.38.38,0,0,1,.4.4v1.4h0a6,6,0,0,1,5.08-2.24,6.2,6.2,0,0,1,5.28,2.56h0a7.88,7.88,0,0,1,6.16-2.56c4.47,0,7,3,7,7.16V147.2a.38.38,0,0,1-.4.4Z" transform="translate(-7.17 -6.4)"/><path d="M190.79,142.68a15,15,0,0,1-.68-4.72,15.36,15.36,0,0,1,.64-4.76c1.08-3.36,4-5.32,7.88-5.32s6.84,2,7.92,5.32a17.27,17.27,0,0,1,.64,5.8.39.39,0,0,1-.44.4H194.87a.21.21,0,0,0-.24.24,4.48,4.48,0,0,0,4.6,4.4,5.81,5.81,0,0,0,4.52-1.84.41.41,0,0,1,.6-.08l2.36,2.08a.36.36,0,0,1,0,.56,10.16,10.16,0,0,1-7.92,3.28C194.75,148,191.87,146,190.79,142.68Zm11.64-8.52a4.12,4.12,0,0,0-7.56,0,4.89,4.89,0,0,0-.24,1.64.21.21,0,0,0,.24.24h7.56a.21.21,0,0,0,.24-.24A4.89,4.89,0,0,0,202.43,134.16Z" transform="translate(-7.17 -6.4)"/><path d="M223.39,147.6a.38.38,0,0,1-.4-.4V136.08c0-2.48-1.24-4.2-3.64-4.2s-3.68,1.72-3.68,4.2V147.2a.38.38,0,0,1-.4.4h-3.68a.38.38,0,0,1-.4-.4V128.72a.38.38,0,0,1,.4-.4h3.68a.38.38,0,0,1,.4.4v1.4h0a6,6,0,0,1,5.08-2.24c4.12,0,6.68,3,6.68,7.16V147.2a.38.38,0,0,1-.4.4Z" transform="translate(-7.17 -6.4)"/><path d="M238,147.84c-3.88,0-5.36-1.88-5.36-5.64V132a.21.21,0,0,0-.24-.24h-1.28a.38.38,0,0,1-.4-.4v-2.68a.38.38,0,0,1,.4-.4h1.28a.21.21,0,0,0,.24-.24V122.8a.38.38,0,0,1,.4-.4h3.68a.38.38,0,0,1,.4.4v5.28a.21.21,0,0,0,.24.24h2.56a.38.38,0,0,1,.4.4v2.68a.38.38,0,0,1-.4.4h-2.56a.21.21,0,0,0-.24.24v10c0,1.36.56,1.8,1.8,1.8h1a.38.38,0,0,1,.4.4v3.2a.38.38,0,0,1-.4.4Z" transform="translate(-7.17 -6.4)"/><path d="M244,142.72a18,18,0,0,1,0-9.52c1.08-3.36,4-5.32,8-5.32s6.84,2,7.92,5.32a18,18,0,0,1,0,9.52c-1.08,3.36-4,5.32-7.92,5.32S245,146.08,244,142.72Zm11.56-1.2a10.89,10.89,0,0,0,.4-3.56,11,11,0,0,0-.4-3.56,3.56,3.56,0,0,0-3.6-2.52,3.61,3.61,0,0,0-3.64,2.52,11,11,0,0,0-.4,3.56,10.89,10.89,0,0,0,.4,3.56,3.61,3.61,0,0,0,3.64,2.52A3.56,3.56,0,0,0,255.51,141.52Z" transform="translate(-7.17 -6.4)"/><path d="M263.31,145a.39.39,0,0,1,0-.56l2.28-2.4a.39.39,0,0,1,.56,0,8.92,8.92,0,0,0,5.64,2.2c2.36,0,3.56-1,3.56-2.28,0-1.16-.68-1.88-3.2-2.12l-2.08-.2c-3.92-.4-5.92-2.4-5.92-5.68,0-3.72,2.68-6.08,7.48-6.08a11.69,11.69,0,0,1,7.24,2.36.4.4,0,0,1,.08.56l-2,2.36a.39.39,0,0,1-.56.08,9.31,9.31,0,0,0-5-1.6c-1.92,0-2.92.84-2.92,2s.68,1.8,3.16,2l2.08.2c4,.4,6,2.48,6,5.64,0,3.84-2.8,6.52-8.08,6.52A12,12,0,0,1,263.31,145Z" transform="translate(-7.17 -6.4)"/><path d="M292.63,154.8a.38.38,0,0,1-.4-.4V128.72a.38.38,0,0,1,.4-.4h3.68a.38.38,0,0,1,.4.4v1.44h0c.92-1.32,2.52-2.28,5.12-2.28,3.28,0,5.67,1.56,6.67,4.64a16.07,16.07,0,0,1,.68,5.44,16.07,16.07,0,0,1-.68,5.44c-1,3.08-3.39,4.64-6.67,4.64-2.6,0-4.2-1-5.12-2.28h0v8.64a.38.38,0,0,1-.4.4Zm11.64-13.24a16.4,16.4,0,0,0,0-7.2,3.82,3.82,0,0,0-7.16,0,16.4,16.4,0,0,0,0,7.2,3.82,3.82,0,0,0,7.16,0Z" transform="translate(-7.17 -6.4)"/><path d="M324.7,147.6a.38.38,0,0,1-.4-.4v-1.4h0c-.92,1.32-2.71,2.24-5.43,2.24-3.52,0-6.48-1.84-6.48-5.88,0-4.2,3-6.12,7.72-6.12H324c.17,0,.24-.08.24-.24v-.92c0-2.2-1-3.2-4.27-3.2a6.76,6.76,0,0,0-4.4,1.32.36.36,0,0,1-.56-.08l-1.48-2.64a.37.37,0,0,1,.08-.52,11.25,11.25,0,0,1,6.84-1.88c5.87,0,8,2,8,6.72v12.6a.38.38,0,0,1-.4.4Zm-.48-6.48v-1.48c0-.16-.07-.24-.24-.24h-3.19c-2.88,0-4.16.8-4.16,2.6,0,1.6,1.16,2.4,3.32,2.4C322.71,144.4,324.22,143.32,324.22,141.12Z" transform="translate(-7.17 -6.4)"/><path d="M333.75,147.6a.38.38,0,0,1-.4-.4V128.72a.38.38,0,0,1,.4-.4h3.68a.38.38,0,0,1,.4.4v1.64h0a5.52,5.52,0,0,1,5-2.48,5.82,5.82,0,0,1,4,1.6c.2.2.24.36.08.56l-2.12,2.68a.36.36,0,0,1-.56.08,5.15,5.15,0,0,0-2.83-.92c-2.52,0-3.64,1.8-3.64,4.88V147.2a.38.38,0,0,1-.4.4Z" transform="translate(-7.17 -6.4)"/><path d="M360.22,147.6a.38.38,0,0,1-.4-.4v-1.4h0c-.92,1.32-2.72,2.24-5.43,2.24-3.52,0-6.48-1.84-6.48-5.88,0-4.2,3-6.12,7.71-6.12h3.92a.21.21,0,0,0,.24-.24v-.92c0-2.2-1-3.2-4.28-3.2a6.75,6.75,0,0,0-4.39,1.32.36.36,0,0,1-.56-.08L349,130.28a.37.37,0,0,1,.08-.52,11.24,11.24,0,0,1,6.83-1.88c5.88,0,8,2,8,6.72v12.6a.38.38,0,0,1-.4.4Zm-.48-6.48v-1.48a.21.21,0,0,0-.24-.24h-3.2c-2.87,0-4.15.8-4.15,2.6,0,1.6,1.16,2.4,3.31,2.4C358.22,144.4,359.74,143.32,359.74,141.12Z" transform="translate(-7.17 -6.4)"/><path d="M377.15,142.68a15,15,0,0,1-.68-4.72,15.36,15.36,0,0,1,.64-4.76c1.08-3.36,4-5.32,7.88-5.32s6.83,2,7.91,5.32a17.27,17.27,0,0,1,.64,5.8.39.39,0,0,1-.44.4H381.23a.21.21,0,0,0-.24.24,4.48,4.48,0,0,0,4.59,4.4,5.81,5.81,0,0,0,4.52-1.84.41.41,0,0,1,.6-.08l2.36,2.08a.36.36,0,0,1,0,.56,10.15,10.15,0,0,1-7.91,3.28C381.11,148,378.23,146,377.15,142.68Zm11.63-8.52a4.11,4.11,0,0,0-7.55,0,4.89,4.89,0,0,0-.24,1.64.21.21,0,0,0,.24.24h7.55a.21.21,0,0,0,.24-.24A4.89,4.89,0,0,0,388.78,134.16Z" transform="translate(-7.17 -6.4)"/><path d="M402.75,147.6a.52.52,0,0,1-.52-.4l-6.8-18.48c-.08-.24.08-.4.32-.4h3.92a.51.51,0,0,1,.48.4l4.23,12.52h.08l4.16-12.52a.51.51,0,0,1,.48-.4h3.84c.24,0,.4.16.32.4l-6.8,18.48a.52.52,0,0,1-.52.4Z" transform="translate(-7.17 -6.4)"/><path d="M416.59,124.68a.38.38,0,0,1-.4-.4V120.8a.38.38,0,0,1,.4-.4h3.68a.38.38,0,0,1,.4.4v3.48a.38.38,0,0,1-.4.4Zm0,22.92a.38.38,0,0,1-.4-.4V128.72a.38.38,0,0,1,.4-.4h3.68a.38.38,0,0,1,.4.4V147.2a.38.38,0,0,1-.4.4Z" transform="translate(-7.17 -6.4)"/><path d="M431.34,147.84c-3.88,0-5.35-1.88-5.35-5.64V132a.21.21,0,0,0-.24-.24h-1.28a.38.38,0,0,1-.4-.4v-2.68a.38.38,0,0,1,.4-.4h1.28a.21.21,0,0,0,.24-.24V122.8a.38.38,0,0,1,.4-.4h3.67a.38.38,0,0,1,.4.4v5.28a.21.21,0,0,0,.24.24h2.56a.38.38,0,0,1,.4.4v2.68a.38.38,0,0,1-.4.4H430.7a.21.21,0,0,0-.24.24v10c0,1.36.56,1.8,1.8,1.8h1a.38.38,0,0,1,.4.4v3.2a.38.38,0,0,1-.4.4Z" transform="translate(-7.17 -6.4)"/><path d="M449.22,147.6a.38.38,0,0,1-.4-.4v-1.4h0c-.92,1.32-2.72,2.24-5.44,2.24-3.52,0-6.47-1.84-6.47-5.88,0-4.2,2.95-6.12,7.71-6.12h3.92a.21.21,0,0,0,.24-.24v-.92c0-2.2-1-3.2-4.28-3.2a6.76,6.76,0,0,0-4.4,1.32.36.36,0,0,1-.56-.08L438,130.28a.38.38,0,0,1,.07-.52,11.27,11.27,0,0,1,6.84-1.88c5.88,0,8,2,8,6.72v12.6a.38.38,0,0,1-.4.4Zm-.48-6.48v-1.48a.21.21,0,0,0-.24-.24h-3.2c-2.88,0-4.16.8-4.16,2.6,0,1.6,1.16,2.4,3.32,2.4C447.22,144.4,448.74,143.32,448.74,141.12Z" transform="translate(-7.17 -6.4)"/><path d="M458.27,147.6a.38.38,0,0,1-.4-.4V128.72a.38.38,0,0,1,.4-.4h3.67a.38.38,0,0,1,.4.4v1.64h0a5.52,5.52,0,0,1,5-2.48,5.82,5.82,0,0,1,4,1.6c.2.2.24.36.08.56l-2.12,2.68a.36.36,0,0,1-.56.08,5.21,5.21,0,0,0-2.84-.92c-2.52,0-3.64,1.8-3.64,4.88V147.2a.38.38,0,0,1-.4.4Z" transform="translate(-7.17 -6.4)"/><path d="M39.71,192.8a.38.38,0,0,1-.4-.4V166.72a.38.38,0,0,1,.4-.4h3.68a.38.38,0,0,1,.4.4v1.44h0c.92-1.32,2.52-2.28,5.12-2.28,3.28,0,5.68,1.56,6.68,4.64a22.1,22.1,0,0,1,0,10.88c-1,3.08-3.4,4.64-6.68,4.64-2.6,0-4.2-1-5.12-2.28h0v8.64a.38.38,0,0,1-.4.4Zm11.64-13.24a16.4,16.4,0,0,0,0-7.2,3.45,3.45,0,0,0-3.56-2.48,3.47,3.47,0,0,0-3.6,2.48,16.4,16.4,0,0,0,0,7.2,3.47,3.47,0,0,0,3.6,2.48A3.45,3.45,0,0,0,51.35,179.56Z" transform="translate(-7.17 -6.4)"/><path d="M59.91,180.72a18,18,0,0,1,0-9.52c1.08-3.36,4-5.32,8-5.32s6.84,2,7.92,5.32a18,18,0,0,1,0,9.52c-1.08,3.36-4,5.32-7.92,5.32S61,184.08,59.91,180.72Zm11.56-1.2a10.89,10.89,0,0,0,.4-3.56,11,11,0,0,0-.4-3.56,3.56,3.56,0,0,0-3.6-2.52,3.61,3.61,0,0,0-3.64,2.52,11,11,0,0,0-.4,3.56,10.89,10.89,0,0,0,.4,3.56A3.61,3.61,0,0,0,67.87,182,3.56,3.56,0,0,0,71.47,179.52Z" transform="translate(-7.17 -6.4)"/><path d="M79.27,183a.39.39,0,0,1,0-.56l2.28-2.4a.39.39,0,0,1,.56,0,8.92,8.92,0,0,0,5.64,2.2c2.36,0,3.56-1,3.56-2.28,0-1.16-.68-1.88-3.2-2.12l-2.08-.2c-3.92-.4-5.92-2.4-5.92-5.68,0-3.72,2.68-6.08,7.48-6.08a11.69,11.69,0,0,1,7.24,2.36.4.4,0,0,1,.08.56l-2,2.36a.39.39,0,0,1-.56.08,9.31,9.31,0,0,0-5-1.6c-1.92,0-2.92.84-2.92,2s.68,1.8,3.16,2l2.08.2c4,.4,6,2.48,6,5.64,0,3.84-2.8,6.52-8.08,6.52A12,12,0,0,1,79.27,183Z" transform="translate(-7.17 -6.4)"/><path d="M100,162.68a.38.38,0,0,1-.4-.4V158.8a.38.38,0,0,1,.4-.4h3.68a.38.38,0,0,1,.4.4v3.48a.38.38,0,0,1-.4.4Zm0,22.92a.38.38,0,0,1-.4-.4V166.72a.38.38,0,0,1,.4-.4h3.68a.38.38,0,0,1,.4.4V185.2a.38.38,0,0,1-.4.4Z" transform="translate(-7.17 -6.4)"/><path d="M113.59,183.76h0v1.44a.38.38,0,0,1-.4.4h-3.68a.38.38,0,0,1-.4-.4V158.8a.38.38,0,0,1,.4-.4h3.68a.38.38,0,0,1,.4.4v9.36h0c.92-1.32,2.52-2.28,5.12-2.28,3.28,0,5.68,1.56,6.68,4.64a22.1,22.1,0,0,1,0,10.88c-1,3.08-3.4,4.64-6.68,4.64C116.11,186,114.51,185.08,113.59,183.76Zm7.52-4.2a16.4,16.4,0,0,0,0-7.2,3.82,3.82,0,0,0-7.16,0,16.4,16.4,0,0,0,0,7.2,3.82,3.82,0,0,0,7.16,0Z" transform="translate(-7.17 -6.4)"/><path d="M135.27,185.84c-3.76,0-5.28-1.8-5.28-5.52V158.8a.38.38,0,0,1,.4-.4h3.68a.38.38,0,0,1,.4.4v21.28c0,1.32.52,1.76,1.68,1.76H137a.38.38,0,0,1,.4.4v3.2a.38.38,0,0,1-.4.4Z" transform="translate(-7.17 -6.4)"/><path d="M140.55,180.68a15,15,0,0,1-.68-4.72,15.36,15.36,0,0,1,.64-4.76c1.08-3.36,4-5.32,7.88-5.32s6.84,2,7.92,5.32A17.27,17.27,0,0,1,157,177a.39.39,0,0,1-.44.4H144.63a.21.21,0,0,0-.24.24A4.48,4.48,0,0,0,149,182a5.81,5.81,0,0,0,4.52-1.84.41.41,0,0,1,.6-.08l2.36,2.08a.36.36,0,0,1,0,.56,10.16,10.16,0,0,1-7.92,3.28C144.51,186,141.63,184,140.55,180.68Zm11.64-8.52a4.12,4.12,0,0,0-7.56,0,4.89,4.89,0,0,0-.24,1.64.21.21,0,0,0,.24.24h7.56a.21.21,0,0,0,.24-.24A4.89,4.89,0,0,0,152.19,172.16Z" transform="translate(-7.17 -6.4)"/><path d="M159.79,183a.39.39,0,0,1,0-.56l2.28-2.4a.39.39,0,0,1,.56,0,8.92,8.92,0,0,0,5.64,2.2c2.36,0,3.56-1,3.56-2.28,0-1.16-.68-1.88-3.2-2.12l-2.08-.2c-3.92-.4-5.92-2.4-5.92-5.68,0-3.72,2.68-6.08,7.48-6.08a11.69,11.69,0,0,1,7.24,2.36.4.4,0,0,1,.08.56l-2,2.36a.39.39,0,0,1-.56.08,9.31,9.31,0,0,0-5-1.6c-1.92,0-2.92.84-2.92,2s.68,1.8,3.16,2l2.08.2c4,.4,6,2.48,6,5.64,0,3.84-2.8,6.52-8.08,6.52A12,12,0,0,1,159.79,183Z" transform="translate(-7.17 -6.4)"/><path d="M212.7,185.6a.38.38,0,0,1-.4-.4V174.08c0-2.48-1.24-4.2-3.63-4.2s-3.68,1.72-3.68,4.2V185.2a.38.38,0,0,1-.4.4h-3.68a.38.38,0,0,1-.4-.4V174.08c0-2.48-1.24-4.2-3.64-4.2s-3.68,1.72-3.68,4.2V185.2a.38.38,0,0,1-.4.4h-3.68a.38.38,0,0,1-.4-.4V166.72a.38.38,0,0,1,.4-.4h3.68a.38.38,0,0,1,.4.4v1.4h0a6,6,0,0,1,5.08-2.24,6.2,6.2,0,0,1,5.28,2.56h0a7.88,7.88,0,0,1,6.16-2.56c4.47,0,7,3,7,7.16V185.2a.38.38,0,0,1-.4.4Z" transform="translate(-7.17 -6.4)"/><path d="M221.23,180.72a18,18,0,0,1,0-9.52c1.08-3.36,4-5.32,8-5.32s6.84,2,7.92,5.32a18,18,0,0,1,0,9.52c-1.08,3.36-4,5.32-7.92,5.32S222.31,184.08,221.23,180.72Zm11.56-1.2a10.89,10.89,0,0,0,.4-3.56,11,11,0,0,0-.4-3.56,3.56,3.56,0,0,0-3.6-2.52,3.61,3.61,0,0,0-3.64,2.52,11,11,0,0,0-.4,3.56,10.89,10.89,0,0,0,.4,3.56,3.61,3.61,0,0,0,3.64,2.52A3.56,3.56,0,0,0,232.79,179.52Z" transform="translate(-7.17 -6.4)"/><path d="M242.15,185.6a.38.38,0,0,1-.4-.4V166.72a.38.38,0,0,1,.4-.4h3.68a.38.38,0,0,1,.4.4v1.64h0a5.52,5.52,0,0,1,5-2.48,5.82,5.82,0,0,1,4,1.6c.2.2.24.36.08.56l-2.12,2.68a.36.36,0,0,1-.56.08,5.21,5.21,0,0,0-2.84-.92c-2.52,0-3.64,1.8-3.64,4.88V185.2a.38.38,0,0,1-.4.4Z" transform="translate(-7.17 -6.4)"/><path d="M269.39,185.6a.38.38,0,0,1-.4-.4v-1.44h0c-.92,1.32-2.52,2.28-5.12,2.28-3.28,0-5.68-1.56-6.68-4.64a22.1,22.1,0,0,1,0-10.88c1-3.08,3.4-4.64,6.68-4.64,2.6,0,4.2,1,5.12,2.28h0V158.8a.38.38,0,0,1,.4-.4h3.68a.38.38,0,0,1,.4.4v26.4a.38.38,0,0,1-.4.4Zm-.8-6a16.4,16.4,0,0,0,0-7.2,3.82,3.82,0,0,0-7.16,0,16.4,16.4,0,0,0,0,7.2,3.82,3.82,0,0,0,7.16,0Z" transform="translate(-7.17 -6.4)"/><path d="M278.15,180.68a15,15,0,0,1-.68-4.72,15.36,15.36,0,0,1,.64-4.76c1.08-3.36,4-5.32,7.88-5.32s6.84,2,7.92,5.32a17.27,17.27,0,0,1,.64,5.8.39.39,0,0,1-.44.4H282.23a.21.21,0,0,0-.24.24,4.48,4.48,0,0,0,4.6,4.4,5.81,5.81,0,0,0,4.52-1.84.41.41,0,0,1,.6-.08l2.36,2.08a.36.36,0,0,1,0,.56,10.16,10.16,0,0,1-7.92,3.28C282.11,186,279.23,184,278.15,180.68Zm11.64-8.52a4.12,4.12,0,0,0-7.56,0,4.89,4.89,0,0,0-.24,1.64.21.21,0,0,0,.24.24h7.56a.21.21,0,0,0,.24-.24A4.89,4.89,0,0,0,289.79,172.16Z" transform="translate(-7.17 -6.4)"/><path d="M310.43,185.6a.38.38,0,0,1-.4-.4v-1.44h0c-.92,1.32-2.52,2.28-5.12,2.28-3.28,0-5.68-1.56-6.68-4.64a22.1,22.1,0,0,1,0-10.88c1-3.08,3.4-4.64,6.68-4.64,2.6,0,4.2,1,5.12,2.28h0V158.8a.38.38,0,0,1,.4-.4h3.68a.38.38,0,0,1,.4.4v26.4a.38.38,0,0,1-.4.4Zm-.8-6a16.4,16.4,0,0,0,0-7.2,3.82,3.82,0,0,0-7.16,0,16.4,16.4,0,0,0,0,7.2,3.82,3.82,0,0,0,7.16,0Z" transform="translate(-7.17 -6.4)"/><path d="M331.39,185.6a.38.38,0,0,1-.4-.4v-1.4h0a5.91,5.91,0,0,1-5,2.24c-4.12,0-6.64-3-6.64-7.16V166.72a.38.38,0,0,1,.4-.4h3.68a.38.38,0,0,1,.4.4v11.12c0,2.48,1.16,4.2,3.6,4.2,2.28,0,3.6-1.72,3.6-4.16V166.72a.38.38,0,0,1,.4-.4h3.68a.38.38,0,0,1,.4.4V185.2a.38.38,0,0,1-.4.4Z" transform="translate(-7.17 -6.4)"/><path d="M340.91,185.6a.38.38,0,0,1-.4-.4V166.72a.38.38,0,0,1,.4-.4h3.68a.38.38,0,0,1,.4.4v1.64h0a5.52,5.52,0,0,1,5-2.48,5.82,5.82,0,0,1,4,1.6c.2.2.24.36.08.56L352,170.72a.36.36,0,0,1-.56.08,5.21,5.21,0,0,0-2.84-.92c-2.52,0-3.64,1.8-3.64,4.88V185.2a.38.38,0,0,1-.4.4Z" transform="translate(-7.17 -6.4)"/><path d="M367.39,185.6a.38.38,0,0,1-.4-.4v-1.4h0c-.92,1.32-2.72,2.24-5.44,2.24-3.52,0-6.48-1.84-6.48-5.88,0-4.2,3-6.12,7.72-6.12h3.92a.21.21,0,0,0,.24-.24v-.92c0-2.2-1-3.2-4.28-3.2a6.76,6.76,0,0,0-4.4,1.32.36.36,0,0,1-.56-.08l-1.48-2.64a.37.37,0,0,1,.08-.52,11.25,11.25,0,0,1,6.84-1.88c5.88,0,8,2,8,6.72v12.6a.38.38,0,0,1-.4.4Zm-.48-6.48v-1.48a.21.21,0,0,0-.24-.24h-3.2c-2.88,0-4.16.8-4.16,2.6,0,1.6,1.16,2.4,3.32,2.4C365.39,182.4,366.91,181.32,366.91,179.12Z" transform="translate(-7.17 -6.4)"/><path d="M374.87,183a.39.39,0,0,1,0-.56l2.28-2.4a.39.39,0,0,1,.56,0,8.92,8.92,0,0,0,5.64,2.2c2.36,0,3.56-1,3.56-2.28,0-1.16-.68-1.88-3.2-2.12l-2.08-.2c-3.92-.4-5.92-2.4-5.92-5.68,0-3.72,2.68-6.08,7.48-6.08a11.64,11.64,0,0,1,7.23,2.36.4.4,0,0,1,.08.56l-1.95,2.36a.39.39,0,0,1-.56.08,9.31,9.31,0,0,0-5-1.6c-1.92,0-2.92.84-2.92,2s.68,1.8,3.16,2l2.08.2c4,.4,6,2.48,6,5.64,0,3.84-2.8,6.52-8.08,6.52A12,12,0,0,1,374.87,183Z" transform="translate(-7.17 -6.4)"/><path d="M394.87,181.12a.38.38,0,0,1,.4-.4H399a.38.38,0,0,1,.4.4v4.36a1,1,0,0,1-.28.84l-3.32,3.44a.76.76,0,0,1-.56.28.38.38,0,0,1-.4-.4Z" transform="translate(-7.17 -6.4)"/><path d="M424.26,185.6a.38.38,0,0,1-.4-.4V174.08c0-2.48-1.24-4.2-3.64-4.2s-3.67,1.72-3.67,4.2V185.2a.38.38,0,0,1-.4.4h-3.68a.38.38,0,0,1-.4-.4V166.72a.38.38,0,0,1,.4-.4h3.68a.38.38,0,0,1,.4.4v1.4h0a5.94,5.94,0,0,1,5.07-2.24c4.12,0,6.68,3,6.68,7.16V185.2a.38.38,0,0,1-.4.4Z" transform="translate(-7.17 -6.4)"/><path d="M432.79,180.72a18,18,0,0,1,0-9.52c1.08-3.36,4-5.32,7.95-5.32s6.84,2,7.92,5.32a18,18,0,0,1,0,9.52c-1.08,3.36-4,5.32-7.92,5.32S433.87,184.08,432.79,180.72Zm11.55-1.2a10.89,10.89,0,0,0,.4-3.56,11,11,0,0,0-.4-3.56,3.56,3.56,0,0,0-3.6-2.52,3.61,3.61,0,0,0-3.64,2.52,11,11,0,0,0-.4,3.56,10.89,10.89,0,0,0,.4,3.56,3.61,3.61,0,0,0,3.64,2.52A3.56,3.56,0,0,0,444.34,179.52Z" transform="translate(-7.17 -6.4)"/><path d="M29.37,223.6a.38.38,0,0,1-.4-.4V212.08c0-2.48-1.24-4.2-3.64-4.2s-3.68,1.72-3.68,4.2V223.2a.38.38,0,0,1-.4.4H17.57a.38.38,0,0,1-.4-.4V196.8a.38.38,0,0,1,.4-.4h3.68a.38.38,0,0,1,.4.4v9.32h0a6,6,0,0,1,5.08-2.24c4.12,0,6.68,3,6.68,7.16V223.2a.38.38,0,0,1-.4.4Z" transform="translate(-7.17 -6.4)"/><path d="M49.77,223.6a.38.38,0,0,1-.4-.4v-1.4h0c-.92,1.32-2.72,2.24-5.44,2.24-3.52,0-6.48-1.84-6.48-5.88,0-4.2,3-6.12,7.72-6.12h3.92a.21.21,0,0,0,.24-.24v-.92c0-2.2-1-3.2-4.28-3.2a6.76,6.76,0,0,0-4.4,1.32.36.36,0,0,1-.56-.08l-1.48-2.64a.37.37,0,0,1,.08-.52,11.25,11.25,0,0,1,6.84-1.88c5.88,0,8,2,8,6.72v12.6a.38.38,0,0,1-.4.4Zm-.48-6.48v-1.48a.21.21,0,0,0-.24-.24h-3.2c-2.88,0-4.16.8-4.16,2.6,0,1.6,1.16,2.4,3.32,2.4C47.77,220.4,49.29,219.32,49.29,217.12Z" transform="translate(-7.17 -6.4)"/><path d="M58,228.36a.36.36,0,0,1,0-.56l2.36-2.36a.37.37,0,0,1,.6,0,5.92,5.92,0,0,0,4.2,1.8c3,0,4.32-1.6,4.32-4.6v-1.8h0c-.88,1.36-2.52,2.24-5,2.24a6.44,6.44,0,0,1-6.56-4.68,14.69,14.69,0,0,1-.64-4.92,14.44,14.44,0,0,1,.64-4.88,6.43,6.43,0,0,1,6.56-4.72c2.48,0,4.12.88,5,2.28h0v-1.44a.38.38,0,0,1,.4-.4h3.68a.38.38,0,0,1,.4.4V222.4c0,5.52-3.08,8.84-9,8.84A9.54,9.54,0,0,1,58,228.36Zm11.08-11.72a9,9,0,0,0,.44-3.16,9.28,9.28,0,0,0-.44-3.16,3.62,3.62,0,0,0-6.84,0,9.28,9.28,0,0,0-.44,3.16,9,9,0,0,0,.44,3.16,3.6,3.6,0,0,0,6.84,0Z" transform="translate(-7.17 -6.4)"/><path d="M90.53,223.6a.38.38,0,0,1-.4-.4v-1.4h0c-.92,1.32-2.72,2.24-5.44,2.24-3.52,0-6.48-1.84-6.48-5.88,0-4.2,3-6.12,7.72-6.12h3.92a.21.21,0,0,0,.24-.24v-.92c0-2.2-1-3.2-4.28-3.2a6.76,6.76,0,0,0-4.4,1.32.36.36,0,0,1-.56-.08l-1.48-2.64a.37.37,0,0,1,.08-.52,11.25,11.25,0,0,1,6.84-1.88c5.88,0,8,2,8,6.72v12.6a.38.38,0,0,1-.4.4Zm-.48-6.48v-1.48a.21.21,0,0,0-.24-.24h-3.2c-2.88,0-4.16.8-4.16,2.6,0,1.6,1.16,2.4,3.32,2.4C88.53,220.4,90.05,219.32,90.05,217.12Z" transform="translate(-7.17 -6.4)"/><path d="M131.81,223.6a.38.38,0,0,1-.4-.4V212.08c0-2.48-1.24-4.2-3.64-4.2s-3.68,1.72-3.68,4.2V223.2a.38.38,0,0,1-.4.4H120a.38.38,0,0,1-.4-.4V212.08c0-2.48-1.24-4.2-3.64-4.2s-3.68,1.72-3.68,4.2V223.2a.38.38,0,0,1-.4.4h-3.68a.38.38,0,0,1-.4-.4V204.72a.38.38,0,0,1,.4-.4h3.68a.38.38,0,0,1,.4.4v1.4h0a6,6,0,0,1,5.08-2.24,6.2,6.2,0,0,1,5.28,2.56h0a7.88,7.88,0,0,1,6.16-2.56c4.48,0,7,3,7,7.16V223.2a.38.38,0,0,1-.4.4Z" transform="translate(-7.17 -6.4)"/><path d="M140.33,218.72a18,18,0,0,1,0-9.52c1.08-3.36,4-5.32,8-5.32s6.84,2,7.92,5.32a18,18,0,0,1,0,9.52c-1.08,3.36-4,5.32-7.92,5.32S141.41,222.08,140.33,218.72Zm11.56-1.2a10.89,10.89,0,0,0,.4-3.56,11,11,0,0,0-.4-3.56,3.56,3.56,0,0,0-3.6-2.52,3.61,3.61,0,0,0-3.64,2.52,11,11,0,0,0-.4,3.56,10.89,10.89,0,0,0,.4,3.56,3.61,3.61,0,0,0,3.64,2.52A3.56,3.56,0,0,0,151.89,217.52Z" transform="translate(-7.17 -6.4)"/><path d="M166.05,223.6a.52.52,0,0,1-.52-.4l-6.8-18.48c-.08-.24.08-.4.32-.4H163a.51.51,0,0,1,.48.4l4.24,12.52h.08l4.16-12.52a.51.51,0,0,1,.48-.4h3.84c.24,0,.4.16.32.4l-6.8,18.48a.52.52,0,0,1-.52.4Z" transform="translate(-7.17 -6.4)"/><path d="M179.89,200.68a.38.38,0,0,1-.4-.4V196.8a.38.38,0,0,1,.4-.4h3.68a.38.38,0,0,1,.4.4v3.48a.38.38,0,0,1-.4.4Zm0,22.92a.38.38,0,0,1-.4-.4V204.72a.38.38,0,0,1,.4-.4h3.68a.38.38,0,0,1,.4.4V223.2a.38.38,0,0,1-.4.4Z" transform="translate(-7.17 -6.4)"/><path d="M213,223.6a.38.38,0,0,1-.4-.4V212.08c0-2.48-1.24-4.2-3.64-4.2s-3.68,1.72-3.68,4.2V223.2a.38.38,0,0,1-.4.4h-3.68a.38.38,0,0,1-.4-.4V212.08c0-2.48-1.24-4.2-3.64-4.2s-3.68,1.72-3.68,4.2V223.2a.38.38,0,0,1-.4.4h-3.68a.38.38,0,0,1-.4-.4V204.72a.38.38,0,0,1,.4-.4h3.68a.38.38,0,0,1,.4.4v1.4h0a6,6,0,0,1,5.08-2.24,6.2,6.2,0,0,1,5.28,2.56h0a7.88,7.88,0,0,1,6.16-2.56c4.48,0,7,3,7,7.16V223.2a.37.37,0,0,1-.39.4Z" transform="translate(-7.17 -6.4)"/><path d="M222.33,200.68a.38.38,0,0,1-.4-.4V196.8a.38.38,0,0,1,.4-.4H226a.38.38,0,0,1,.4.4v3.48a.38.38,0,0,1-.4.4Zm0,22.92a.38.38,0,0,1-.4-.4V204.72a.38.38,0,0,1,.4-.4H226a.38.38,0,0,1,.4.4V223.2a.38.38,0,0,1-.4.4Z" transform="translate(-7.17 -6.4)"/><path d="M231.09,218.68a15,15,0,0,1-.68-4.72,15.36,15.36,0,0,1,.64-4.76c1.08-3.36,4-5.32,7.88-5.32s6.84,2,7.92,5.32a17.27,17.27,0,0,1,.64,5.8.39.39,0,0,1-.44.4H235.17a.21.21,0,0,0-.24.24,4.48,4.48,0,0,0,4.6,4.4,5.81,5.81,0,0,0,4.52-1.84.41.41,0,0,1,.6-.08L247,220.2a.36.36,0,0,1,0,.56,10.16,10.16,0,0,1-7.92,3.28C235.05,224,232.17,222,231.09,218.68Zm11.64-8.52a4.12,4.12,0,0,0-7.56,0,4.89,4.89,0,0,0-.24,1.64.21.21,0,0,0,.24.24h7.56a.21.21,0,0,0,.24-.24A4.89,4.89,0,0,0,242.73,210.16Z" transform="translate(-7.17 -6.4)"/><path d="M263.69,223.6a.38.38,0,0,1-.4-.4V212.08c0-2.48-1.24-4.2-3.64-4.2s-3.68,1.72-3.68,4.2V223.2a.38.38,0,0,1-.4.4h-3.68a.38.38,0,0,1-.4-.4V204.72a.38.38,0,0,1,.4-.4h3.68a.38.38,0,0,1,.4.4v1.4h0a6,6,0,0,1,5.08-2.24c4.12,0,6.68,3,6.68,7.16V223.2a.38.38,0,0,1-.4.4Z" transform="translate(-7.17 -6.4)"/><path d="M278.25,223.84c-3.88,0-5.36-1.88-5.36-5.64V208a.21.21,0,0,0-.24-.24h-1.28a.38.38,0,0,1-.4-.4v-2.68a.38.38,0,0,1,.4-.4h1.28a.21.21,0,0,0,.24-.24V198.8a.38.38,0,0,1,.4-.4H277a.38.38,0,0,1,.4.4v5.28a.21.21,0,0,0,.24.24h2.56a.38.38,0,0,1,.4.4v2.68a.38.38,0,0,1-.4.4h-2.56a.21.21,0,0,0-.24.24v10c0,1.36.56,1.8,1.8,1.8h1a.38.38,0,0,1,.4.4v3.2a.38.38,0,0,1-.4.4Z" transform="translate(-7.17 -6.4)"/><path d="M284.25,218.72a18,18,0,0,1,0-9.52c1.08-3.36,4-5.32,8-5.32s6.84,2,7.92,5.32a18,18,0,0,1,0,9.52c-1.08,3.36-4,5.32-7.92,5.32S285.33,222.08,284.25,218.72Zm11.56-1.2a10.89,10.89,0,0,0,.4-3.56,11,11,0,0,0-.4-3.56,3.56,3.56,0,0,0-3.6-2.52,3.61,3.61,0,0,0-3.64,2.52,11,11,0,0,0-.4,3.56,10.89,10.89,0,0,0,.4,3.56,3.61,3.61,0,0,0,3.64,2.52A3.56,3.56,0,0,0,295.81,217.52Z" transform="translate(-7.17 -6.4)"/><path d="M303.61,221a.39.39,0,0,1,0-.56l2.28-2.4a.39.39,0,0,1,.56,0,8.92,8.92,0,0,0,5.64,2.2c2.36,0,3.56-1,3.56-2.28,0-1.16-.68-1.88-3.2-2.12l-2.08-.2c-3.92-.4-5.92-2.4-5.92-5.68,0-3.72,2.68-6.08,7.48-6.08a11.69,11.69,0,0,1,7.24,2.36.4.4,0,0,1,.08.56l-2,2.36a.39.39,0,0,1-.56.08,9.31,9.31,0,0,0-5-1.6c-1.92,0-2.92.84-2.92,2s.68,1.8,3.16,2l2.08.2c4,.4,6,2.48,6,5.64,0,3.84-2.8,6.52-8.08,6.52A12,12,0,0,1,303.61,221Z" transform="translate(-7.17 -6.4)"/><path d="M337.05,221.76h0v1.44a.38.38,0,0,1-.4.4h-3.68a.38.38,0,0,1-.4-.4V196.8a.38.38,0,0,1,.4-.4h3.68a.38.38,0,0,1,.4.4v9.36h0c.92-1.32,2.52-2.28,5.12-2.28,3.28,0,5.67,1.56,6.67,4.64a22.1,22.1,0,0,1,0,10.88c-1,3.08-3.39,4.64-6.67,4.64C339.57,224,338,223.08,337.05,221.76Zm7.52-4.2a16.4,16.4,0,0,0,0-7.2,3.82,3.82,0,0,0-7.16,0,16.4,16.4,0,0,0,0,7.2,3.82,3.82,0,0,0,7.16,0Z" transform="translate(-7.17 -6.4)"/><path d="M353.93,223.6a.38.38,0,0,1-.4-.4V204.72a.38.38,0,0,1,.4-.4h3.68a.38.38,0,0,1,.4.4v1.64h0a5.52,5.52,0,0,1,5-2.48,5.78,5.78,0,0,1,4,1.6c.21.2.25.36.09.56l-2.12,2.68a.36.36,0,0,1-.56.08,5.21,5.21,0,0,0-2.84-.92c-2.52,0-3.64,1.8-3.64,4.88V223.2a.38.38,0,0,1-.4.4Z" transform="translate(-7.17 -6.4)"/><path d="M381.48,223.6a.38.38,0,0,1-.4-.4v-1.4h0a5.91,5.91,0,0,1-5,2.24c-4.12,0-6.64-3-6.64-7.16V204.72a.38.38,0,0,1,.4-.4h3.68a.38.38,0,0,1,.4.4v11.12c0,2.48,1.16,4.2,3.6,4.2,2.27,0,3.59-1.72,3.59-4.16V204.72a.38.38,0,0,1,.4-.4h3.68a.38.38,0,0,1,.4.4V223.2a.38.38,0,0,1-.4.4Z" transform="translate(-7.17 -6.4)"/><path d="M389.45,221a.39.39,0,0,1,0-.56l2.28-2.4a.39.39,0,0,1,.56,0,8.92,8.92,0,0,0,5.64,2.2c2.35,0,3.55-1,3.55-2.28,0-1.16-.68-1.88-3.19-2.12l-2.08-.2c-3.92-.4-5.92-2.4-5.92-5.68,0-3.72,2.68-6.08,7.48-6.08a11.68,11.68,0,0,1,7.23,2.36.4.4,0,0,1,.08.56l-2,2.36a.39.39,0,0,1-.56.08,9.3,9.3,0,0,0-5-1.6c-1.92,0-2.92.84-2.92,2s.68,1.8,3.16,2l2.07.2c4,.4,6,2.48,6,5.64,0,3.84-2.8,6.52-8.07,6.52A12,12,0,0,1,389.45,221Z" transform="translate(-7.17 -6.4)"/><path d="M409.29,218.72a19.18,19.18,0,0,1,0-9.52c1.12-3.44,4.08-5.32,8-5.32a8.39,8.39,0,0,1,6.67,3,.39.39,0,0,1,0,.56l-2.52,2.2a.36.36,0,0,1-.56-.08,4.36,4.36,0,0,0-3.55-1.68,3.54,3.54,0,0,0-3.6,2.52,11.33,11.33,0,0,0-.4,3.56,11.6,11.6,0,0,0,.4,3.6,3.55,3.55,0,0,0,3.6,2.48,4.36,4.36,0,0,0,3.55-1.68.36.36,0,0,1,.56,0l2.52,2.2c.2.16.16.36,0,.56a8.49,8.49,0,0,1-6.67,3C413.37,224,410.41,222.16,409.29,218.72Z" transform="translate(-7.17 -6.4)"/><path d="M427.53,218.72a18,18,0,0,1,0-9.52c1.08-3.36,4-5.32,8-5.32s6.84,2,7.92,5.32a18,18,0,0,1,0,9.52c-1.08,3.36-4,5.32-7.92,5.32S428.61,222.08,427.53,218.72Zm11.55-1.2a10.89,10.89,0,0,0,.4-3.56,11,11,0,0,0-.4-3.56,3.56,3.56,0,0,0-3.6-2.52,3.61,3.61,0,0,0-3.64,2.52,11,11,0,0,0-.4,3.56,10.89,10.89,0,0,0,.4,3.56,3.61,3.61,0,0,0,3.64,2.52A3.56,3.56,0,0,0,439.08,217.52Z" transform="translate(-7.17 -6.4)"/><path d="M446.89,221a.39.39,0,0,1,0-.56l2.28-2.4a.39.39,0,0,1,.56,0,8.88,8.88,0,0,0,5.63,2.2c2.36,0,3.56-1,3.56-2.28,0-1.16-.68-1.88-3.2-2.12l-2.08-.2c-3.91-.4-5.91-2.4-5.91-5.68,0-3.72,2.68-6.08,7.47-6.08a11.69,11.69,0,0,1,7.24,2.36.4.4,0,0,1,.08.56l-2,2.36a.39.39,0,0,1-.56.08,9.31,9.31,0,0,0-5-1.6c-1.92,0-2.92.84-2.92,2s.68,1.8,3.16,2l2.08.2c4,.4,6,2.48,6,5.64,0,3.84-2.8,6.52-8.08,6.52A12,12,0,0,1,446.89,221Z" transform="translate(-7.17 -6.4)"/><path d="M466.88,219.12a.38.38,0,0,1,.4-.4H471a.38.38,0,0,1,.4.4v4.36a1,1,0,0,1-.28.84l-3.32,3.44a.76.76,0,0,1-.56.28.38.38,0,0,1-.4-.4Z" transform="translate(-7.17 -6.4)"/><path d="M19.53,261.6a.38.38,0,0,1-.4-.4v-1.4h0c-.92,1.32-2.72,2.24-5.44,2.24-3.52,0-6.48-1.84-6.48-5.88,0-4.2,3-6.12,7.72-6.12h3.92a.21.21,0,0,0,.24-.24v-.92c0-2.2-1-3.2-4.28-3.2a6.76,6.76,0,0,0-4.4,1.32.36.36,0,0,1-.56-.08l-1.48-2.64a.37.37,0,0,1,.08-.52,11.25,11.25,0,0,1,6.84-1.88c5.88,0,8,2,8,6.72v12.6a.38.38,0,0,1-.4.4Zm-.48-6.48v-1.48a.21.21,0,0,0-.24-.24h-3.2c-2.88,0-4.16.8-4.16,2.6,0,1.6,1.16,2.4,3.32,2.4C17.53,258.4,19.05,257.32,19.05,255.12Z" transform="translate(-7.17 -6.4)"/><path d="M33.37,261.84c-3.76,0-5.28-1.8-5.28-5.52V234.8a.38.38,0,0,1,.4-.4h3.68a.38.38,0,0,1,.4.4v21.28c0,1.32.52,1.76,1.68,1.76h.88a.38.38,0,0,1,.4.4v3.2a.38.38,0,0,1-.4.4Z" transform="translate(-7.17 -6.4)"/><path d="M38.65,256.68A15,15,0,0,1,38,252a15.36,15.36,0,0,1,.64-4.76c1.08-3.36,4-5.32,7.88-5.32s6.84,2,7.92,5.32a17.27,17.27,0,0,1,.64,5.8.39.39,0,0,1-.44.4H42.73a.21.21,0,0,0-.24.24,4.48,4.48,0,0,0,4.6,4.4,5.81,5.81,0,0,0,4.52-1.84.41.41,0,0,1,.6-.08l2.36,2.08a.36.36,0,0,1,0,.56A10.16,10.16,0,0,1,46.69,262C42.61,262,39.73,260,38.65,256.68Zm11.64-8.52a3.74,3.74,0,0,0-3.76-2.48,3.76,3.76,0,0,0-3.8,2.48,4.89,4.89,0,0,0-.24,1.64.21.21,0,0,0,.24.24h7.56a.21.21,0,0,0,.24-.24A4.89,4.89,0,0,0,50.29,248.16Zm-5.8-8.76c-.24,0-.36-.16-.24-.4l3-5a.76.76,0,0,1,.72-.4h3.64c.24,0,.36.2.2.4L48,239a.93.93,0,0,1-.8.4Z" transform="translate(-7.17 -6.4)"/><path d="M55.93,268.8a.38.38,0,0,1-.4-.4v-3.2a.38.38,0,0,1,.4-.4h.88c1.6,0,2.24-.52,2.24-2.28v-19.8a.38.38,0,0,1,.4-.4h3.68a.38.38,0,0,1,.4.4v19.72c0,4.44-2.28,6.36-6.48,6.36Zm3.52-30.12a.38.38,0,0,1-.4-.4V234.8a.38.38,0,0,1,.4-.4h3.68a.38.38,0,0,1,.4.4v3.48a.38.38,0,0,1-.4.4Z" transform="translate(-7.17 -6.4)"/><path d="M68.21,256.68a15,15,0,0,1-.68-4.72,15.36,15.36,0,0,1,.64-4.76c1.08-3.36,4-5.32,7.88-5.32s6.84,2,7.92,5.32a17.27,17.27,0,0,1,.64,5.8.39.39,0,0,1-.44.4H72.29a.21.21,0,0,0-.24.24,4.48,4.48,0,0,0,4.6,4.4,5.81,5.81,0,0,0,4.52-1.84.41.41,0,0,1,.6-.08l2.36,2.08a.36.36,0,0,1,0,.56A10.16,10.16,0,0,1,76.25,262C72.17,262,69.29,260,68.21,256.68Zm11.64-8.52a4.12,4.12,0,0,0-7.56,0,4.89,4.89,0,0,0-.24,1.64.21.21,0,0,0,.24.24h7.56a.21.21,0,0,0,.24-.24A4.89,4.89,0,0,0,79.85,248.16Z" transform="translate(-7.17 -6.4)"/><path d="M87.45,259a.39.39,0,0,1,0-.56l2.28-2.4a.39.39,0,0,1,.56,0,8.92,8.92,0,0,0,5.64,2.2c2.36,0,3.56-1,3.56-2.28,0-1.16-.68-1.88-3.2-2.12l-2.08-.2c-3.92-.4-5.92-2.4-5.92-5.68,0-3.72,2.68-6.08,7.48-6.08a11.69,11.69,0,0,1,7.24,2.36.4.4,0,0,1,.08.56l-2,2.36a.39.39,0,0,1-.56.08,9.31,9.31,0,0,0-5-1.6c-1.92,0-2.92.84-2.92,2s.68,1.8,3.16,2l2.08.2c4,.4,6,2.48,6,5.64,0,3.84-2.8,6.52-8.08,6.52A12,12,0,0,1,87.45,259Z" transform="translate(-7.17 -6.4)"/><path d="M107.37,256.68a15,15,0,0,1-.68-4.72,15.36,15.36,0,0,1,.64-4.76c1.08-3.36,4-5.32,7.88-5.32s6.84,2,7.92,5.32a17.27,17.27,0,0,1,.64,5.8.39.39,0,0,1-.44.4H111.45a.21.21,0,0,0-.24.24,4.48,4.48,0,0,0,4.6,4.4,5.81,5.81,0,0,0,4.52-1.84.41.41,0,0,1,.6-.08l2.36,2.08a.36.36,0,0,1,0,.56,10.16,10.16,0,0,1-7.92,3.28C111.33,262,108.45,260,107.37,256.68ZM119,248.16a4.12,4.12,0,0,0-7.56,0,4.89,4.89,0,0,0-.24,1.64.21.21,0,0,0,.24.24H119a.21.21,0,0,0,.24-.24A4.89,4.89,0,0,0,119,248.16Z" transform="translate(-7.17 -6.4)"/><path d="M141.61,261.84c-3.76,0-5.28-1.8-5.28-5.52V234.8a.38.38,0,0,1,.4-.4h3.68a.38.38,0,0,1,.4.4v21.28c0,1.32.52,1.76,1.68,1.76h.88a.38.38,0,0,1,.4.4v3.2a.38.38,0,0,1-.4.4Z" transform="translate(-7.17 -6.4)"/><path d="M146.89,256.68a15,15,0,0,1-.68-4.72,15.36,15.36,0,0,1,.64-4.76c1.08-3.36,4-5.32,7.88-5.32s6.84,2,7.92,5.32a17.27,17.27,0,0,1,.64,5.8.39.39,0,0,1-.44.4H151a.21.21,0,0,0-.24.24,4.48,4.48,0,0,0,4.6,4.4,5.81,5.81,0,0,0,4.52-1.84.41.41,0,0,1,.6-.08l2.36,2.08a.36.36,0,0,1,0,.56,10.16,10.16,0,0,1-7.92,3.28C150.85,262,148,260,146.89,256.68Zm11.64-8.52a4.12,4.12,0,0,0-7.56,0,4.89,4.89,0,0,0-.24,1.64.21.21,0,0,0,.24.24h7.56a.21.21,0,0,0,.24-.24A4.89,4.89,0,0,0,158.53,248.16Z" transform="translate(-7.17 -6.4)"/><path d="M179.49,261.6a.38.38,0,0,1-.4-.4V250.08c0-2.48-1.24-4.2-3.64-4.2s-3.68,1.72-3.68,4.2V261.2a.38.38,0,0,1-.4.4h-3.68a.38.38,0,0,1-.4-.4V242.72a.38.38,0,0,1,.4-.4h3.68a.38.38,0,0,1,.4.4v1.4h0a6,6,0,0,1,5.08-2.24c4.12,0,6.68,3,6.68,7.16V261.2a.38.38,0,0,1-.4.4Z" transform="translate(-7.17 -6.4)"/><path d="M194.05,261.84c-3.88,0-5.36-1.88-5.36-5.64V246a.21.21,0,0,0-.24-.24h-1.28a.38.38,0,0,1-.4-.4v-2.68a.38.38,0,0,1,.4-.4h1.28a.21.21,0,0,0,.24-.24V236.8a.38.38,0,0,1,.4-.4h3.68a.38.38,0,0,1,.4.4v5.28a.21.21,0,0,0,.24.24H196a.38.38,0,0,1,.4.4v2.68a.38.38,0,0,1-.4.4h-2.56a.21.21,0,0,0-.24.24v10c0,1.36.56,1.8,1.8,1.8h1a.38.38,0,0,1,.4.4v3.2a.38.38,0,0,1-.4.4Z" transform="translate(-7.17 -6.4)"/><path d="M211.93,261.6a.38.38,0,0,1-.4-.4v-1.4h0c-.92,1.32-2.72,2.24-5.44,2.24-3.52,0-6.48-1.84-6.48-5.88,0-4.2,3-6.12,7.72-6.12h3.92a.21.21,0,0,0,.24-.24v-.92c0-2.2-1-3.2-4.28-3.2a6.76,6.76,0,0,0-4.4,1.32.36.36,0,0,1-.56-.08l-1.48-2.64a.37.37,0,0,1,.08-.52,11.25,11.25,0,0,1,6.84-1.88c5.88,0,8,2,8,6.72v12.6a.38.38,0,0,1-.4.4Zm-.48-6.48v-1.48a.21.21,0,0,0-.24-.24H208c-2.88,0-4.16.8-4.16,2.6,0,1.6,1.16,2.4,3.32,2.4C209.93,258.4,211.45,257.32,211.45,255.12Z" transform="translate(-7.17 -6.4)"/><path d="M244.56,261.6a.37.37,0,0,1-.39-.4V250.08c0-2.48-1.24-4.2-3.64-4.2s-3.68,1.72-3.68,4.2V261.2a.38.38,0,0,1-.4.4h-3.68a.38.38,0,0,1-.4-.4V250.08c0-2.48-1.24-4.2-3.64-4.2s-3.68,1.72-3.68,4.2V261.2a.38.38,0,0,1-.4.4H221a.38.38,0,0,1-.4-.4V242.72a.38.38,0,0,1,.4-.4h3.68a.38.38,0,0,1,.4.4v1.4h0a6,6,0,0,1,5.08-2.24,6.2,6.2,0,0,1,5.28,2.56h0a7.88,7.88,0,0,1,6.16-2.56c4.47,0,7,3,7,7.16V261.2a.38.38,0,0,1-.4.4Z" transform="translate(-7.17 -6.4)"/><path d="M253.13,256.68a15,15,0,0,1-.68-4.72,15.36,15.36,0,0,1,.64-4.76c1.08-3.36,4-5.32,7.88-5.32s6.84,2,7.92,5.32a17.27,17.27,0,0,1,.64,5.8.39.39,0,0,1-.44.4H257.21a.21.21,0,0,0-.24.24,4.48,4.48,0,0,0,4.6,4.4,5.81,5.81,0,0,0,4.52-1.84.41.41,0,0,1,.6-.08l2.36,2.08a.36.36,0,0,1,0,.56,10.16,10.16,0,0,1-7.92,3.28C257.09,262,254.21,260,253.13,256.68Zm11.64-8.52a4.12,4.12,0,0,0-7.56,0,4.89,4.89,0,0,0-.24,1.64.21.21,0,0,0,.24.24h7.56a.21.21,0,0,0,.24-.24A4.89,4.89,0,0,0,264.77,248.16Z" transform="translate(-7.17 -6.4)"/><path d="M285.73,261.6a.38.38,0,0,1-.4-.4V250.08c0-2.48-1.24-4.2-3.64-4.2s-3.68,1.72-3.68,4.2V261.2a.38.38,0,0,1-.4.4h-3.68a.38.38,0,0,1-.4-.4V242.72a.38.38,0,0,1,.4-.4h3.68a.38.38,0,0,1,.4.4v1.4h0a6,6,0,0,1,5.08-2.24c4.12,0,6.68,3,6.68,7.16V261.2a.38.38,0,0,1-.4.4Z" transform="translate(-7.17 -6.4)"/><path d="M300.29,261.84c-3.88,0-5.36-1.88-5.36-5.64V246a.21.21,0,0,0-.24-.24h-1.28a.38.38,0,0,1-.4-.4v-2.68a.38.38,0,0,1,.4-.4h1.28a.21.21,0,0,0,.24-.24V236.8a.38.38,0,0,1,.4-.4H299a.38.38,0,0,1,.4.4v5.28a.21.21,0,0,0,.24.24h2.56a.38.38,0,0,1,.4.4v2.68a.38.38,0,0,1-.4.4h-2.56a.21.21,0,0,0-.24.24v10c0,1.36.56,1.8,1.8,1.8h1a.38.38,0,0,1,.4.4v3.2a.38.38,0,0,1-.4.4Z" transform="translate(-7.17 -6.4)"/><path d="M306.33,256.68a15,15,0,0,1-.68-4.72,15.36,15.36,0,0,1,.64-4.76c1.08-3.36,4-5.32,7.88-5.32s6.83,2,7.91,5.32a17.27,17.27,0,0,1,.64,5.8.39.39,0,0,1-.44.4H310.41a.21.21,0,0,0-.24.24,4.48,4.48,0,0,0,4.6,4.4,5.81,5.81,0,0,0,4.52-1.84.4.4,0,0,1,.59-.08l2.36,2.08a.36.36,0,0,1,0,.56,10.14,10.14,0,0,1-7.91,3.28C310.29,262,307.41,260,306.33,256.68ZM318,248.16a4.12,4.12,0,0,0-7.56,0,4.89,4.89,0,0,0-.24,1.64.21.21,0,0,0,.24.24H318a.22.22,0,0,0,.24-.24A5.16,5.16,0,0,0,318,248.16Z" transform="translate(-7.17 -6.4)"/><path d="M347.24,261.6a.38.38,0,0,1-.4-.4v-1.44h0c-.92,1.32-2.51,2.28-5.11,2.28-3.28,0-5.68-1.56-6.68-4.64a22.1,22.1,0,0,1,0-10.88c1-3.08,3.4-4.64,6.68-4.64,2.6,0,4.19,1,5.11,2.28h0V234.8a.38.38,0,0,1,.4-.4h3.68a.38.38,0,0,1,.4.4v26.4a.38.38,0,0,1-.4.4Zm-.8-6a16.4,16.4,0,0,0,0-7.2,3.82,3.82,0,0,0-7.15,0,16.4,16.4,0,0,0,0,7.2,3.82,3.82,0,0,0,7.15,0Z" transform="translate(-7.17 -6.4)"/><path d="M356,256.68a15,15,0,0,1-.68-4.72,15.36,15.36,0,0,1,.64-4.76c1.08-3.36,4-5.32,7.88-5.32s6.83,2,7.91,5.32a17.27,17.27,0,0,1,.64,5.8.39.39,0,0,1-.44.4H360.09a.21.21,0,0,0-.24.24,4.48,4.48,0,0,0,4.6,4.4A5.8,5.8,0,0,0,369,256.2a.41.41,0,0,1,.6-.08l2.36,2.08a.36.36,0,0,1,0,.56,10.15,10.15,0,0,1-7.91,3.28C360,262,357.09,260,356,256.68Zm11.64-8.52a4.12,4.12,0,0,0-7.56,0,4.89,4.89,0,0,0-.24,1.64.21.21,0,0,0,.24.24h7.56a.21.21,0,0,0,.23-.24A5.18,5.18,0,0,0,367.65,248.16Z" transform="translate(-7.17 -6.4)"/><path d="M381.61,261.84c-3.76,0-5.28-1.8-5.28-5.52V234.8a.38.38,0,0,1,.4-.4h3.68a.38.38,0,0,1,.4.4v21.28c0,1.32.52,1.76,1.68,1.76h.88a.38.38,0,0,1,.4.4v3.2a.38.38,0,0,1-.4.4Z" transform="translate(-7.17 -6.4)"/><path d="M401.08,261.84c-3.75,0-5.27-1.8-5.27-5.52V234.8a.38.38,0,0,1,.4-.4h3.68a.38.38,0,0,1,.4.4v21.28c0,1.32.52,1.76,1.67,1.76h.88a.38.38,0,0,1,.4.4v3.2a.38.38,0,0,1-.4.4Z" transform="translate(-7.17 -6.4)"/><path d="M418.56,261.6a.38.38,0,0,1-.4-.4v-1.4h0a5.91,5.91,0,0,1-5,2.24c-4.12,0-6.63-3-6.63-7.16V242.72a.38.38,0,0,1,.4-.4h3.67a.38.38,0,0,1,.4.4v11.12c0,2.48,1.16,4.2,3.6,4.2,2.28,0,3.6-1.72,3.6-4.16V242.72a.38.38,0,0,1,.4-.4h3.68a.38.38,0,0,1,.4.4V261.2a.38.38,0,0,1-.4.4Z" transform="translate(-7.17 -6.4)"/><path d="M427.29,266.36a.35.35,0,0,1,0-.56l2.35-2.36a.37.37,0,0,1,.6,0,5.92,5.92,0,0,0,4.2,1.8c3,0,4.32-1.6,4.32-4.6v-1.8h0c-.88,1.36-2.52,2.24-5,2.24a6.43,6.43,0,0,1-6.55-4.68,14.69,14.69,0,0,1-.64-4.92,14.44,14.44,0,0,1,.64-4.88,6.42,6.42,0,0,1,6.55-4.72c2.48,0,4.12.88,5,2.28h0v-1.44a.38.38,0,0,1,.4-.4h3.68a.38.38,0,0,1,.4.4V260.4c0,5.52-3.08,8.84-9,8.84A9.51,9.51,0,0,1,427.29,266.36Zm11.07-11.72a9,9,0,0,0,.44-3.16,9.28,9.28,0,0,0-.44-3.16,3.62,3.62,0,0,0-6.84,0,9.28,9.28,0,0,0-.44,3.16,9,9,0,0,0,.44,3.16,3.6,3.6,0,0,0,6.84,0Z" transform="translate(-7.17 -6.4)"/><path d="M459.8,261.6a.38.38,0,0,1-.4-.4v-1.4h0c-.92,1.32-2.72,2.24-5.44,2.24-3.52,0-6.47-1.84-6.47-5.88,0-4.2,2.95-6.12,7.71-6.12h3.92a.21.21,0,0,0,.24-.24v-.92c0-2.2-1-3.2-4.28-3.2a6.71,6.71,0,0,0-4.39,1.32.37.37,0,0,1-.57-.08l-1.47-2.64a.37.37,0,0,1,.08-.52,11.22,11.22,0,0,1,6.83-1.88c5.88,0,8,2,8,6.72v12.6a.38.38,0,0,1-.4.4Zm-.48-6.48v-1.48a.21.21,0,0,0-.24-.24h-3.2c-2.88,0-4.16.8-4.16,2.6,0,1.6,1.16,2.4,3.32,2.4C457.8,258.4,459.32,257.32,459.32,255.12Z" transform="translate(-7.17 -6.4)"/><path d="M468.84,261.6a.38.38,0,0,1-.4-.4V242.72a.38.38,0,0,1,.4-.4h3.68a.38.38,0,0,1,.4.4v1.64h0a5.52,5.52,0,0,1,5-2.48,5.82,5.82,0,0,1,4,1.6c.2.2.24.36.08.56L480,246.72a.36.36,0,0,1-.56.08,5.21,5.21,0,0,0-2.84-.92c-2.52,0-3.64,1.8-3.64,4.88V261.2a.38.38,0,0,1-.4.4Z" transform="translate(-7.17 -6.4)"/></g></g></svg>