<svg xmlns="http://www.w3.org/2000/svg" viewBox="0 0 366.86 77.12"><title>respuesta</title><g id="Capa_2" data-name="Capa 2"><g id="Capa_1-2" data-name="Capa 1"><path d="M.74.72A.23.23,0,0,1,1,.48h5.5C9.24.48,11.06,1.66,11.81,4a14.14,14.14,0,0,1,.43,4.68,14.14,14.14,0,0,1-.43,4.68c-.75,2.31-2.57,3.48-5.33,3.48H1a.23.23,0,0,1-.24-.24ZM3,14.81H6c2,0,3.2-.65,3.72-2.23a11.78,11.78,0,0,0,.34-3.94,11.7,11.7,0,0,0-.34-3.93C9.22,3.12,8,2.47,6,2.47H3c-.09,0-.14,0-.14.15V14.67A.13.13,0,0,0,3,14.81Z"/><path d="M14.86,14A9.05,9.05,0,0,1,14.47,11a8.87,8.87,0,0,1,.36-2.9A4.44,4.44,0,0,1,19.34,5a4.46,4.46,0,0,1,4.52,3.1,10,10,0,0,1,.36,3.28.24.24,0,0,1-.27.25H16.68c-.1,0-.14,0-.14.14a4.3,4.3,0,0,0,.19,1.39,2.83,2.83,0,0,0,2.9,2,3.74,3.74,0,0,0,2.95-1.27.25.25,0,0,1,.36-.05l1,.89a.22.22,0,0,1,0,.34,5.59,5.59,0,0,1-4.49,2A4.44,4.44,0,0,1,14.86,14ZM22,10.06c.09,0,.14-.05.14-.15A4,4,0,0,0,22,8.62a2.58,2.58,0,0,0-2.64-1.8,2.6,2.6,0,0,0-2.64,1.8,4,4,0,0,0-.16,1.29c0,.1,0,.15.14.15Z"/><path d="M29.74,16.92c-2,0-2.81-1-2.81-3V.72a.23.23,0,0,1,.24-.24H28.7a.23.23,0,0,1,.24.24V13.78c0,1,.36,1.27,1.16,1.27h.45a.23.23,0,0,1,.24.24v1.39a.22.22,0,0,1-.24.24Z"/><path d="M33.34,2.71a.22.22,0,0,1-.24-.24V.72a.23.23,0,0,1,.24-.24H35a.23.23,0,0,1,.24.24V2.47a.23.23,0,0,1-.24.24Zm0,14.09a.23.23,0,0,1-.24-.24v-11a.23.23,0,0,1,.24-.24h1.54a.23.23,0,0,1,.24.24v11a.23.23,0,0,1-.24.24Z"/><path d="M53.3,16.8a.23.23,0,0,1-.24-.24V9.84c0-1.85-.84-2.93-2.56-2.93a2.59,2.59,0,0,0-2.64,2.81v6.84a.23.23,0,0,1-.24.24H46.08a.23.23,0,0,1-.24-.24V9.84c0-1.85-.84-2.93-2.57-2.93a2.58,2.58,0,0,0-2.64,2.81v6.84a.22.22,0,0,1-.24.24H38.86a.22.22,0,0,1-.24-.24v-11a.23.23,0,0,1,.24-.24h1.53a.23.23,0,0,1,.24.24V6.6h0A3.62,3.62,0,0,1,43.87,5a3.62,3.62,0,0,1,3.36,1.8h0A4.28,4.28,0,0,1,51,5c2.66,0,4.1,1.71,4.1,4.32v7.2a.23.23,0,0,1-.24.24Z"/><path d="M58.61,2.71a.22.22,0,0,1-.24-.24V.72a.23.23,0,0,1,.24-.24h1.63a.23.23,0,0,1,.24.24V2.47a.23.23,0,0,1-.24.24Zm0,14.09a.22.22,0,0,1-.23-.24v-11a.22.22,0,0,1,.23-.24h1.54a.23.23,0,0,1,.24.24v11a.23.23,0,0,1-.24.24Z"/><path d="M67.22,16.92c-2.23,0-3.09-1-3.09-3.26V7.08c0-.09,0-.14-.15-.14H63a.23.23,0,0,1-.24-.24V5.54A.23.23,0,0,1,63,5.3h1c.1,0,.15,0,.15-.14V1.92a.23.23,0,0,1,.24-.24H65.9a.23.23,0,0,1,.24.24V5.16c0,.1,0,.14.15.14h1.82a.23.23,0,0,1,.24.24V6.7a.23.23,0,0,1-.24.24H66.29c-.1,0-.15,0-.15.14v6.5c0,1.16.43,1.47,1.47,1.47h.5a.23.23,0,0,1,.24.24v1.39a.23.23,0,0,1-.24.24Z"/><path d="M70.68,14A9.05,9.05,0,0,1,70.29,11a8.87,8.87,0,0,1,.36-2.9,4.84,4.84,0,0,1,9,0A10,10,0,0,1,80,11.42a.24.24,0,0,1-.26.25H72.5a.12.12,0,0,0-.14.14,4.3,4.3,0,0,0,.19,1.39,2.84,2.84,0,0,0,2.91,2,3.77,3.77,0,0,0,3-1.27.25.25,0,0,1,.36-.05l1,.89a.22.22,0,0,1,0,.34,5.62,5.62,0,0,1-4.49,2A4.45,4.45,0,0,1,70.68,14Zm7.15-3.89c.1,0,.14-.05.14-.15a4,4,0,0,0-.16-1.29,2.84,2.84,0,0,0-5.28,0,4,4,0,0,0-.17,1.29c0,.1,0,.15.14.15Z"/><path d="M87.77,14A9.05,9.05,0,0,1,87.38,11a8.87,8.87,0,0,1,.36-2.9,4.84,4.84,0,0,1,9,0,10,10,0,0,1,.36,3.28.24.24,0,0,1-.27.25H89.59c-.1,0-.14,0-.14.14a4.3,4.3,0,0,0,.19,1.39,2.83,2.83,0,0,0,2.9,2,3.78,3.78,0,0,0,3-1.27.25.25,0,0,1,.36-.05l1,.89a.22.22,0,0,1,0,.34,5.59,5.59,0,0,1-4.48,2A4.45,4.45,0,0,1,87.77,14Zm7.15-3.89c.1,0,.14-.05.14-.15a3.74,3.74,0,0,0-.17-1.29,2.83,2.83,0,0,0-5.27,0,3.74,3.74,0,0,0-.17,1.29c0,.1,0,.15.14.15Z"/><path d="M102.65,16.92c-2,0-2.81-1-2.81-3V.72a.23.23,0,0,1,.24-.24h1.54a.23.23,0,0,1,.24.24V13.78c0,1,.35,1.27,1.15,1.27h.45a.23.23,0,0,1,.24.24v1.39a.22.22,0,0,1-.24.24Z"/><path d="M118.29,16.8a.23.23,0,0,1-.24-.24v-1h0a3.75,3.75,0,0,1-3.41,1.52c-2.18,0-3.86-1.13-3.86-3.46s1.68-3.55,4.49-3.55h2.61a.13.13,0,0,0,.15-.15V9.07c0-1.58-.63-2.25-2.76-2.25a4.48,4.48,0,0,0-2.79.81c-.12.1-.26.1-.33,0l-.65-1.11a.24.24,0,0,1,0-.33A6.36,6.36,0,0,1,115.44,5C118.7,5,120,6.12,120,9v7.61a.22.22,0,0,1-.24.24ZM118,13.08V11.81c0-.1-.05-.14-.15-.14h-2.3c-2,0-2.86.57-2.86,1.87s.87,1.8,2.4,1.8C116.9,15.34,118,14.5,118,13.08Z"/><path d="M123,8.14A4.45,4.45,0,0,1,127.51,5a4.62,4.62,0,0,1,3.94,2c.07.11.07.21-.07.33l-1.06.86a.22.22,0,0,1-.34,0,2.82,2.82,0,0,0-2.47-1.25,2.5,2.5,0,0,0-2.57,1.8,7.75,7.75,0,0,0-.26,2.33,7.81,7.81,0,0,0,.26,2.35,2.5,2.5,0,0,0,2.57,1.8A2.82,2.82,0,0,0,130,14a.22.22,0,0,1,.34,0l1.06.87c.14.12.14.21.07.33a4.62,4.62,0,0,1-3.94,2A4.46,4.46,0,0,1,123,14a10.15,10.15,0,0,1-.36-2.93A10,10,0,0,1,123,8.14Z"/><path d="M133.53,8.14A4.45,4.45,0,0,1,138.07,5,4.62,4.62,0,0,1,142,7c.07.11.07.21-.08.33l-1.05.86a.22.22,0,0,1-.34,0,2.82,2.82,0,0,0-2.47-1.25,2.5,2.5,0,0,0-2.57,1.8,7.75,7.75,0,0,0-.26,2.33,7.81,7.81,0,0,0,.26,2.35,2.5,2.5,0,0,0,2.57,1.8A2.82,2.82,0,0,0,140.54,14a.22.22,0,0,1,.34,0l1.05.87c.15.12.15.21.08.33a4.62,4.62,0,0,1-3.94,2,4.46,4.46,0,0,1-4.54-3.1,10.15,10.15,0,0,1-.36-2.93A10,10,0,0,1,133.53,8.14Z"/><path d="M144.12,14a9.05,9.05,0,0,1-.39-2.91,8.87,8.87,0,0,1,.36-2.9,4.84,4.84,0,0,1,9,0,10,10,0,0,1,.36,3.28.24.24,0,0,1-.27.25h-7.27a.12.12,0,0,0-.14.14A4.3,4.3,0,0,0,146,13.2a2.84,2.84,0,0,0,2.9,2,3.78,3.78,0,0,0,3-1.27.25.25,0,0,1,.36-.05l1,.89a.22.22,0,0,1,0,.34,5.59,5.59,0,0,1-4.48,2A4.45,4.45,0,0,1,144.12,14Zm7.15-3.89c.1,0,.14-.05.14-.15a4,4,0,0,0-.16-1.29,2.84,2.84,0,0,0-5.28,0,4,4,0,0,0-.17,1.29c0,.1,0,.15.14.15Z"/><path d="M155.45,15.34a.23.23,0,0,1,0-.34l1-1.05a.23.23,0,0,1,.34,0,5.6,5.6,0,0,0,3.55,1.32c1.68,0,2.52-.72,2.52-1.76s-.43-1.41-2.23-1.6l-1.23-.12c-2.25-.25-3.43-1.37-3.43-3.25,0-2.18,1.56-3.5,4.27-3.5a6.88,6.88,0,0,1,4.08,1.27.24.24,0,0,1,0,.34l-.82,1a.23.23,0,0,1-.33.05,6.07,6.07,0,0,0-3.1-.94c-1.44,0-2.18.65-2.18,1.59s.55,1.39,2.25,1.56l1.2.12c2.33.21,3.46,1.39,3.46,3.24,0,2.25-1.63,3.77-4.63,3.77A7.14,7.14,0,0,1,155.45,15.34Z"/><path d="M167.21,14a8.45,8.45,0,0,1-.39-2.93,8.37,8.37,0,0,1,.39-2.9,4.87,4.87,0,0,1,9.07,0,8.65,8.65,0,0,1,.38,2.9,8.73,8.73,0,0,1-.38,2.93,4.87,4.87,0,0,1-9.07,0Zm7.12-.58A7.22,7.22,0,0,0,174.6,11a7.16,7.16,0,0,0-.27-2.33,2.76,2.76,0,0,0-5.18,0,7.45,7.45,0,0,0-.27,2.33,7.5,7.5,0,0,0,.27,2.35,2.76,2.76,0,0,0,5.18,0Z"/><path d="M191.66,16.8a.23.23,0,0,1-.24-.24v-1h0A3.77,3.77,0,0,1,188,17.07c-2.19,0-3.86-1.13-3.86-3.46s1.67-3.55,4.48-3.55h2.62c.1,0,.14-.05.14-.15V9.07c0-1.58-.62-2.25-2.76-2.25a4.47,4.47,0,0,0-2.78.81c-.12.1-.27.1-.34,0l-.65-1.11a.25.25,0,0,1,0-.33A6.4,6.4,0,0,1,188.8,5c3.27,0,4.52,1.08,4.52,3.91v7.61a.23.23,0,0,1-.24.24Zm-.29-3.72V11.81c0-.1,0-.14-.14-.14h-2.31c-2,0-2.85.57-2.85,1.87s.86,1.8,2.4,1.8C190.27,15.34,191.37,14.5,191.37,13.08Z"/><path d="M208.92,16.8a.22.22,0,0,1-.24-.24v-1h0a3.74,3.74,0,0,1-3.41,1.52c-2.18,0-3.86-1.13-3.86-3.46s1.68-3.55,4.49-3.55h2.61a.13.13,0,0,0,.15-.15V9.07c0-1.58-.63-2.25-2.76-2.25a4.5,4.5,0,0,0-2.79.81c-.12.1-.26.1-.33,0L202.1,6.5a.24.24,0,0,1,.05-.33A6.38,6.38,0,0,1,206.06,5c3.27,0,4.51,1.08,4.51,3.91v7.61a.22.22,0,0,1-.24.24Zm-.29-3.72V11.81c0-.1,0-.14-.15-.14h-2.3c-2,0-2.86.57-2.86,1.87s.87,1.8,2.4,1.8C207.53,15.34,208.63,14.5,208.63,13.08Zm-3.24-9.65c-.15,0-.22-.09-.15-.24L207.07.24a.43.43,0,0,1,.41-.24h1.58c.15,0,.22.12.12.24l-2.21,3a.47.47,0,0,1-.45.24Z"/><path d="M214.17,16.8a.23.23,0,0,1-.24-.24v-11a.23.23,0,0,1,.24-.24h1.54a.23.23,0,0,1,.24.24V6.72h0A3.21,3.21,0,0,1,219,5a3.51,3.51,0,0,1,2.35.87c.12.11.15.21,0,.33l-.89,1.18a.21.21,0,0,1-.33,0,3.31,3.31,0,0,0-1.78-.55c-1.75,0-2.47,1.37-2.47,3.36v6.29a.23.23,0,0,1-.24.24Z"/><path d="M222.55,14a9.05,9.05,0,0,1-.39-2.91,8.82,8.82,0,0,1,.37-2.9,4.83,4.83,0,0,1,9,0,10,10,0,0,1,.36,3.28.24.24,0,0,1-.26.25h-7.28a.12.12,0,0,0-.14.14,4.3,4.3,0,0,0,.19,1.39,2.84,2.84,0,0,0,2.91,2,3.77,3.77,0,0,0,2.95-1.27.25.25,0,0,1,.36-.05l1,.89a.22.22,0,0,1,0,.34,5.62,5.62,0,0,1-4.49,2A4.45,4.45,0,0,1,222.55,14Zm7.15-3.89a.13.13,0,0,0,.15-.15,4,4,0,0,0-.17-1.29,2.84,2.84,0,0,0-5.28,0,4,4,0,0,0-.17,1.29c0,.1.05.15.14.15Z"/><path d="M241.63,16.8a.23.23,0,0,1-.24-.24v-1h0A3.77,3.77,0,0,1,238,17.07c-2.19,0-3.87-1.13-3.87-3.46s1.68-3.55,4.49-3.55h2.62c.09,0,.14-.05.14-.15V9.07c0-1.58-.62-2.25-2.76-2.25a4.47,4.47,0,0,0-2.78.81c-.12.1-.27.1-.34,0l-.65-1.11a.24.24,0,0,1,.05-.33A6.38,6.38,0,0,1,238.77,5C242,5,243.29,6.12,243.29,9v7.61a.23.23,0,0,1-.25.24Zm-.29-3.72V11.81a.12.12,0,0,0-.14-.14h-2.31c-2,0-2.85.57-2.85,1.87s.86,1.8,2.4,1.8C240.24,15.34,241.34,14.5,241.34,13.08Z"/><path d="M245.85,15.34a.25.25,0,0,1,0-.34l1-1.05a.22.22,0,0,1,.33,0,5.62,5.62,0,0,0,3.55,1.32c1.69,0,2.53-.72,2.53-1.76s-.44-1.41-2.24-1.6l-1.22-.12c-2.26-.25-3.43-1.37-3.43-3.25,0-2.18,1.56-3.5,4.27-3.5a6.88,6.88,0,0,1,4.08,1.27.24.24,0,0,1,0,.34l-.82,1a.23.23,0,0,1-.33.05,6.07,6.07,0,0,0-3.1-.94c-1.44,0-2.18.65-2.18,1.59s.55,1.39,2.25,1.56l1.2.12c2.33.21,3.46,1.39,3.46,3.24,0,2.25-1.63,3.77-4.63,3.77A7.19,7.19,0,0,1,245.85,15.34Z"/><path d="M270.41,16.8a.22.22,0,0,1-.24-.24v-1.1h0a3.49,3.49,0,0,1-3.26,1.61,3.79,3.79,0,0,1-4-2.76,9.43,9.43,0,0,1-.41-3.27,9.32,9.32,0,0,1,.41-3.24,3.79,3.79,0,0,1,4-2.76,3.46,3.46,0,0,1,3.26,1.59h0V.72a.23.23,0,0,1,.24-.24h1.53a.23.23,0,0,1,.24.24V16.56a.22.22,0,0,1-.24.24Zm-.51-3.36a7.41,7.41,0,0,0,.27-2.4,7.53,7.53,0,0,0-.27-2.4,2.71,2.71,0,0,0-5.06,0,7.88,7.88,0,0,0-.27,2.4,7.68,7.68,0,0,0,.27,2.4,2.7,2.7,0,0,0,5.06,0Z"/><path d="M275.32,14a9.1,9.1,0,0,1-.38-2.91,8.87,8.87,0,0,1,.36-2.9,4.84,4.84,0,0,1,9,0,10,10,0,0,1,.36,3.28.24.24,0,0,1-.27.25h-7.27c-.1,0-.15,0-.15.14a4.27,4.27,0,0,0,.2,1.39,2.83,2.83,0,0,0,2.9,2,3.74,3.74,0,0,0,2.95-1.27.25.25,0,0,1,.36-.05l1,.89a.22.22,0,0,1,0,.34,5.59,5.59,0,0,1-4.49,2A4.46,4.46,0,0,1,275.32,14Zm7.16-3.89c.09,0,.14-.05.14-.15a4,4,0,0,0-.17-1.29,2.84,2.84,0,0,0-5.28,0A4,4,0,0,0,277,9.91a.13.13,0,0,0,.15.15Z"/><path d="M296.06,16.92c-2.23,0-3.1-1-3.1-3.26V7.08a.12.12,0,0,0-.14-.14h-1a.23.23,0,0,1-.24-.24V5.54a.23.23,0,0,1,.24-.24h1c.1,0,.14,0,.14-.14V1.92a.23.23,0,0,1,.25-.24h1.53a.23.23,0,0,1,.24.24V5.16c0,.1,0,.14.15.14H297a.23.23,0,0,1,.24.24V6.7a.23.23,0,0,1-.24.24h-1.82c-.1,0-.15,0-.15.14v6.5c0,1.16.43,1.47,1.47,1.47h.5a.23.23,0,0,1,.24.24v1.39a.23.23,0,0,1-.24.24Z"/><path d="M300.07,16.8a.22.22,0,0,1-.24-.24v-11a.23.23,0,0,1,.24-.24h1.53a.23.23,0,0,1,.24.24V6.72h0A3.2,3.2,0,0,1,304.92,5a3.53,3.53,0,0,1,2.35.87c.12.11.14.21.05.33l-.89,1.18a.22.22,0,0,1-.34,0,3.28,3.28,0,0,0-1.77-.55c-1.76,0-2.48,1.37-2.48,3.36v6.29a.22.22,0,0,1-.24.24Z"/><path d="M315.57,16.8a.23.23,0,0,1-.24-.24v-1h0a3.77,3.77,0,0,1-3.41,1.52c-2.18,0-3.86-1.13-3.86-3.46s1.68-3.55,4.49-3.55h2.61a.13.13,0,0,0,.15-.15V9.07c0-1.58-.63-2.25-2.76-2.25a4.48,4.48,0,0,0-2.79.81.22.22,0,0,1-.34,0l-.64-1.11a.24.24,0,0,1,0-.33A6.42,6.42,0,0,1,312.72,5C316,5,317.23,6.12,317.23,9v7.61a.23.23,0,0,1-.24.24Zm-.28-3.72V11.81c0-.1-.05-.14-.15-.14h-2.3c-2,0-2.86.57-2.86,1.87s.86,1.8,2.4,1.8C314.18,15.34,315.29,14.5,315.29,13.08Z"/><path d="M320.83,16.8a.22.22,0,0,1-.24-.24V.72a.23.23,0,0,1,.24-.24h1.54a.23.23,0,0,1,.24.24V6.63h0A3.47,3.47,0,0,1,325.89,5a3.8,3.8,0,0,1,4,2.76,9.32,9.32,0,0,1,.41,3.24,9.43,9.43,0,0,1-.41,3.27,3.8,3.8,0,0,1-4,2.76,3.5,3.5,0,0,1-3.26-1.61h0v1.1a.23.23,0,0,1-.24.24Zm7.1-3.36a7.68,7.68,0,0,0,.27-2.4,7.88,7.88,0,0,0-.27-2.4,2.71,2.71,0,0,0-5.06,0,7.59,7.59,0,0,0-.26,2.4,7.47,7.47,0,0,0,.26,2.4,2.7,2.7,0,0,0,5.06,0Z"/><path d="M340,16.8a.23.23,0,0,1-.24-.24v-1h0a3.77,3.77,0,0,1-3.41,1.52c-2.18,0-3.86-1.13-3.86-3.46s1.68-3.55,4.48-3.55h2.62c.1,0,.14-.05.14-.15V9.07c0-1.58-.62-2.25-2.76-2.25a4.47,4.47,0,0,0-2.78.81c-.12.1-.27.1-.34,0l-.64-1.11a.24.24,0,0,1,0-.33A6.42,6.42,0,0,1,337.13,5c3.26,0,4.51,1.08,4.51,3.91v7.61a.23.23,0,0,1-.24.24Zm-.29-3.72V11.81c0-.1,0-.14-.14-.14h-2.3c-2,0-2.86.57-2.86,1.87s.86,1.8,2.4,1.8C338.59,15.34,339.69,14.5,339.69,13.08Z"/><path d="M343.1,21.12a.23.23,0,0,1-.24-.24V19.49a.23.23,0,0,1,.24-.24h.38c1.13,0,1.52-.31,1.52-1.54V5.54a.23.23,0,0,1,.24-.24h1.53a.23.23,0,0,1,.24.24V17.67c0,2.47-1.1,3.45-3.43,3.45Zm2.09-18.41a.22.22,0,0,1-.24-.24V.72a.23.23,0,0,1,.24-.24h1.63a.23.23,0,0,1,.24.24V2.47a.23.23,0,0,1-.24.24Z"/><path d="M350.16,14a8.45,8.45,0,0,1-.39-2.93,8.37,8.37,0,0,1,.39-2.9,4.87,4.87,0,0,1,9.07,0,8.65,8.65,0,0,1,.38,2.9,8.73,8.73,0,0,1-.38,2.93,4.87,4.87,0,0,1-9.07,0Zm7.13-.58a7.56,7.56,0,0,0,.26-2.35,7.5,7.5,0,0,0-.26-2.33,2.77,2.77,0,0,0-5.19,0,7.5,7.5,0,0,0-.26,2.33,7.56,7.56,0,0,0,.26,2.35,2.77,2.77,0,0,0,5.19,0Z"/><path d="M7.9,49.12a.22.22,0,0,1-.24-.24V43.46h0a3.49,3.49,0,0,1-3.26,1.61,3.8,3.8,0,0,1-4-2.76A9.68,9.68,0,0,1,0,39,9.57,9.57,0,0,1,.41,35.8a3.8,3.8,0,0,1,4-2.76,3.46,3.46,0,0,1,3.26,1.59h0V33.54a.23.23,0,0,1,.24-.24H9.43a.23.23,0,0,1,.24.24V48.88a.22.22,0,0,1-.24.24Zm-.51-7.68A7.41,7.41,0,0,0,7.66,39a7.53,7.53,0,0,0-.27-2.4,2.44,2.44,0,0,0-2.54-1.73,2.44,2.44,0,0,0-2.52,1.73A8.21,8.21,0,0,0,2.06,39a8,8,0,0,0,.27,2.4,2.45,2.45,0,0,0,2.52,1.75A2.46,2.46,0,0,0,7.39,41.44Z"/><path d="M20.35,44.8a.23.23,0,0,1-.24-.24V43.48h0a3.52,3.52,0,0,1-3.15,1.59c-2.52,0-4-1.73-4-4.35V33.54a.23.23,0,0,1,.24-.24h1.54a.23.23,0,0,1,.24.24v6.7c0,1.87.84,2.95,2.54,2.95a2.55,2.55,0,0,0,2.59-2.83V33.54a.23.23,0,0,1,.24-.24h1.54a.23.23,0,0,1,.24.24v11a.23.23,0,0,1-.24.24Z"/><path d="M25.27,42A9.1,9.1,0,0,1,24.89,39a8.87,8.87,0,0,1,.36-2.9A4.43,4.43,0,0,1,29.76,33a4.45,4.45,0,0,1,4.51,3.1,10,10,0,0,1,.36,3.28.23.23,0,0,1-.26.25H27.1c-.1,0-.15,0-.15.14a4.3,4.3,0,0,0,.19,1.39,2.84,2.84,0,0,0,2.91,2A3.74,3.74,0,0,0,33,41.92a.25.25,0,0,1,.36-.05l1,.89a.22.22,0,0,1,0,.34,5.59,5.59,0,0,1-4.49,2A4.45,4.45,0,0,1,25.27,42Zm7.15-3.89a.13.13,0,0,0,.15-.15,4,4,0,0,0-.17-1.29,2.59,2.59,0,0,0-2.64-1.8,2.58,2.58,0,0,0-2.64,1.8A4,4,0,0,0,27,37.91a.13.13,0,0,0,.15.15Z"/><path d="M42.91,49.12a.23.23,0,0,1-.24-.24V33.54a.23.23,0,0,1,.24-.24h1.54a.23.23,0,0,1,.24.24v1.09h0A3.47,3.47,0,0,1,48,33a3.81,3.81,0,0,1,4,2.76,9.59,9.59,0,0,1,.4,3.24,9.71,9.71,0,0,1-.4,3.27,3.81,3.81,0,0,1-4,2.76,3.5,3.5,0,0,1-3.26-1.61h0v5.42a.23.23,0,0,1-.24.24ZM50,41.44a8,8,0,0,0,.26-2.4,8.26,8.26,0,0,0-.26-2.4,2.72,2.72,0,0,0-5.07,0,7.59,7.59,0,0,0-.26,2.4,7.47,7.47,0,0,0,.26,2.4,2.71,2.71,0,0,0,5.07,0Z"/><path d="M62.33,44.8a.22.22,0,0,1-.24-.24V43.48h0a3.5,3.5,0,0,1-3.14,1.59c-2.52,0-4-1.73-4-4.35V33.54a.22.22,0,0,1,.23-.24h1.54a.23.23,0,0,1,.24.24v6.7c0,1.87.84,2.95,2.55,2.95a2.55,2.55,0,0,0,2.59-2.83V33.54a.23.23,0,0,1,.24-.24h1.53a.23.23,0,0,1,.24.24v11a.22.22,0,0,1-.24.24Z"/><path d="M67.25,42A9.05,9.05,0,0,1,66.86,39a8.87,8.87,0,0,1,.36-2.9,4.84,4.84,0,0,1,9,0,10,10,0,0,1,.36,3.28.24.24,0,0,1-.27.25H69.07c-.1,0-.14,0-.14.14a4.3,4.3,0,0,0,.19,1.39,2.83,2.83,0,0,0,2.9,2,3.74,3.74,0,0,0,3-1.27c.13-.12.24-.14.36-.05l1,.89a.22.22,0,0,1,0,.34,5.59,5.59,0,0,1-4.48,2A4.45,4.45,0,0,1,67.25,42Zm7.15-3.89c.1,0,.14-.05.14-.15a4,4,0,0,0-.16-1.29,2.84,2.84,0,0,0-5.29,0,4,4,0,0,0-.16,1.29c0,.1,0,.15.14.15Z"/><path d="M86.57,44.8a.22.22,0,0,1-.24-.24v-1.1h0A3.49,3.49,0,0,1,83,45.07a3.8,3.8,0,0,1-4-2.76A9.68,9.68,0,0,1,78.67,39a9.57,9.57,0,0,1,.41-3.24A3.8,3.8,0,0,1,83,33a3.46,3.46,0,0,1,3.26,1.59h0V28.72a.23.23,0,0,1,.24-.24H88.1a.23.23,0,0,1,.24.24V44.56a.22.22,0,0,1-.24.24Zm-.51-3.36a7.14,7.14,0,0,0,.27-2.4,7.25,7.25,0,0,0-.27-2.4,2.71,2.71,0,0,0-5.06,0,8.21,8.21,0,0,0-.27,2.4,8,8,0,0,0,.27,2.4,2.7,2.7,0,0,0,5.06,0Z"/><path d="M98.76,44.8a.23.23,0,0,1-.24-.24v-1h0a3.77,3.77,0,0,1-3.41,1.52c-2.19,0-3.87-1.13-3.87-3.46s1.68-3.55,4.49-3.55h2.62c.09,0,.14-.05.14-.15v-.84c0-1.58-.62-2.25-2.76-2.25a4.47,4.47,0,0,0-2.78.81c-.12.1-.27.1-.34,0l-.65-1.11a.24.24,0,0,1,0-.33A6.4,6.4,0,0,1,95.9,33c3.27,0,4.52,1.08,4.52,3.91v7.61a.23.23,0,0,1-.24.24Zm-.29-3.72V39.81a.12.12,0,0,0-.14-.14H96c-2,0-2.85.57-2.85,1.87s.86,1.8,2.4,1.8C97.37,43.34,98.47,42.5,98.47,41.08Z"/><path d="M111.24,44.8a.23.23,0,0,1-.24-.24V37.84c0-1.85-.84-2.93-2.57-2.93a2.58,2.58,0,0,0-2.64,2.81v6.84a.22.22,0,0,1-.24.24H104a.22.22,0,0,1-.23-.24v-11a.22.22,0,0,1,.23-.24h1.54a.23.23,0,0,1,.24.24V34.6h0A3.65,3.65,0,0,1,109,33c2.5,0,4,1.71,4,4.32v7.2a.23.23,0,0,1-.24.24Z"/><path d="M125,44.92c-2.24,0-3.1-1-3.1-3.26V35.08a.13.13,0,0,0-.14-.14h-1a.23.23,0,0,1-.24-.24V33.54a.23.23,0,0,1,.24-.24h1a.12.12,0,0,0,.14-.14V29.92a.23.23,0,0,1,.24-.24h1.54a.23.23,0,0,1,.24.24v3.24c0,.1,0,.14.14.14h1.82a.23.23,0,0,1,.24.24V34.7a.23.23,0,0,1-.24.24H124a.12.12,0,0,0-.14.14v6.5c0,1.16.43,1.47,1.46,1.47h.5a.23.23,0,0,1,.24.24v1.39a.22.22,0,0,1-.24.24Z"/><path d="M128.42,42A9.1,9.1,0,0,1,128,39a8.87,8.87,0,0,1,.36-2.9,4.83,4.83,0,0,1,9,0,10,10,0,0,1,.36,3.28.23.23,0,0,1-.26.25h-7.27c-.1,0-.15,0-.15.14a4.3,4.3,0,0,0,.19,1.39,2.84,2.84,0,0,0,2.91,2,3.74,3.74,0,0,0,3-1.27.25.25,0,0,1,.36-.05l1,.89a.22.22,0,0,1,0,.34,5.59,5.59,0,0,1-4.49,2A4.45,4.45,0,0,1,128.42,42Zm7.15-3.89a.13.13,0,0,0,.15-.15,4,4,0,0,0-.17-1.29,2.84,2.84,0,0,0-5.28,0,4,4,0,0,0-.17,1.29.13.13,0,0,0,.15.15Z"/><path d="M148,44.8a.22.22,0,0,1-.24-.24V37.84c0-1.85-.84-2.93-2.57-2.93a2.58,2.58,0,0,0-2.64,2.81v6.84a.23.23,0,0,1-.24.24h-1.54a.23.23,0,0,1-.24-.24v-11a.23.23,0,0,1,.24-.24h1.54a.23.23,0,0,1,.24.24V34.6h0A3.63,3.63,0,0,1,145.8,33c2.49,0,4,1.71,4,4.32v7.2a.22.22,0,0,1-.24.24Z"/><path d="M152.81,42a9.05,9.05,0,0,1-.39-2.91,8.87,8.87,0,0,1,.36-2.9,4.84,4.84,0,0,1,9,0,10,10,0,0,1,.36,3.28.24.24,0,0,1-.27.25h-7.27c-.1,0-.14,0-.14.14a4.3,4.3,0,0,0,.19,1.39,2.83,2.83,0,0,0,2.9,2,3.74,3.74,0,0,0,2.95-1.27.25.25,0,0,1,.36-.05l1,.89a.22.22,0,0,1,0,.34,5.59,5.59,0,0,1-4.49,2A4.44,4.44,0,0,1,152.81,42ZM160,38.06c.09,0,.14-.05.14-.15a4,4,0,0,0-.17-1.29,2.84,2.84,0,0,0-5.28,0,4,4,0,0,0-.16,1.29c0,.1,0,.15.14.15Z"/><path d="M165.17,44.8a.22.22,0,0,1-.24-.24v-11a.23.23,0,0,1,.24-.24h1.53a.23.23,0,0,1,.24.24v1.18h0A3.2,3.2,0,0,1,170,33a3.54,3.54,0,0,1,2.36.87c.12.11.14.21,0,.33l-.88,1.18a.22.22,0,0,1-.34,0,3.28,3.28,0,0,0-1.78-.55c-1.75,0-2.47,1.37-2.47,3.36v6.29a.22.22,0,0,1-.24.24Z"/><path d="M179.8,44.8a.22.22,0,0,1-.23-.24v-11a.22.22,0,0,1,.23-.24h1.54a.23.23,0,0,1,.24.24v1.18h0a3.2,3.2,0,0,1,3-1.68,3.54,3.54,0,0,1,2.36.87c.12.11.14.21,0,.33l-.88,1.18a.22.22,0,0,1-.34,0,3.28,3.28,0,0,0-1.78-.55c-1.75,0-2.47,1.37-2.47,3.36v6.29a.22.22,0,0,1-.24.24Z"/><path d="M189.12,30.71a.22.22,0,0,1-.24-.24V28.72a.23.23,0,0,1,.24-.24h1.63a.23.23,0,0,1,.24.24v1.75a.23.23,0,0,1-.24.24Zm0,14.09a.22.22,0,0,1-.24-.24v-11a.23.23,0,0,1,.24-.24h1.53a.23.23,0,0,1,.24.24v11a.22.22,0,0,1-.24.24Z"/><path d="M194.08,42A9.1,9.1,0,0,1,193.7,39a8.87,8.87,0,0,1,.36-2.9,4.84,4.84,0,0,1,9,0,10,10,0,0,1,.36,3.28.24.24,0,0,1-.27.25h-7.27c-.1,0-.14,0-.14.14A4.3,4.3,0,0,0,196,41.2a2.83,2.83,0,0,0,2.9,2,3.74,3.74,0,0,0,2.95-1.27.25.25,0,0,1,.36-.05l1,.89a.22.22,0,0,1,0,.34,5.59,5.59,0,0,1-4.49,2A4.46,4.46,0,0,1,194.08,42Zm7.16-3.89c.09,0,.14-.05.14-.15a4,4,0,0,0-.17-1.29,2.84,2.84,0,0,0-5.28,0,4,4,0,0,0-.16,1.29c0,.1,0,.15.14.15Z"/><path d="M205.41,43.34a.25.25,0,0,1,0-.34l1-1a.22.22,0,0,1,.33,0,5.63,5.63,0,0,0,3.56,1.32c1.67,0,2.51-.72,2.51-1.76s-.43-1.41-2.23-1.6l-1.22-.12c-2.26-.25-3.43-1.37-3.43-3.25,0-2.18,1.56-3.5,4.27-3.5a6.88,6.88,0,0,1,4.08,1.27.24.24,0,0,1,0,.34l-.82,1a.23.23,0,0,1-.33,0,6.07,6.07,0,0,0-3.1-.94c-1.44,0-2.19.65-2.19,1.59s.56,1.39,2.26,1.56l1.2.12c2.33.21,3.46,1.39,3.46,3.24,0,2.25-1.63,3.77-4.63,3.77A7.19,7.19,0,0,1,205.41,43.34Z"/><path d="M217.24,47.68a.21.21,0,0,1,0-.33l1-1a.23.23,0,0,1,.36,0,3.83,3.83,0,0,0,2.71,1.15c1.9,0,2.91-1,2.91-3.09V43.07h0a3.32,3.32,0,0,1-3.2,1.59,3.77,3.77,0,0,1-3.86-2.79,8.89,8.89,0,0,1-.39-3,8.89,8.89,0,0,1,.39-3A3.76,3.76,0,0,1,221,33a3.32,3.32,0,0,1,3.2,1.59h0V33.54a.23.23,0,0,1,.24-.24H226a.23.23,0,0,1,.25.24V44.3c0,3.26-1.78,5.09-5,5.09A5.21,5.21,0,0,1,217.24,47.68Zm6.72-6.6a6.76,6.76,0,0,0,.27-2.23,6.84,6.84,0,0,0-.27-2.23,2.59,2.59,0,0,0-4.87,0,7.22,7.22,0,0,0-.29,2.23,7.13,7.13,0,0,0,.29,2.23,2.58,2.58,0,0,0,4.87,0Z"/><path d="M229.39,42A8.45,8.45,0,0,1,229,39a8.37,8.37,0,0,1,.39-2.9,4.87,4.87,0,0,1,9.07,0,8.65,8.65,0,0,1,.38,2.9,8.73,8.73,0,0,1-.38,2.93,4.87,4.87,0,0,1-9.07,0Zm7.13-.58a7.56,7.56,0,0,0,.26-2.35,7.5,7.5,0,0,0-.26-2.33,2.77,2.77,0,0,0-5.19,0,7.5,7.5,0,0,0-.26,2.33,7.56,7.56,0,0,0,.26,2.35,2.77,2.77,0,0,0,5.19,0Z"/><path d="M254.08,44.8a.23.23,0,0,1-.24-.24v-1.1h0a3.5,3.5,0,0,1-3.26,1.61,3.79,3.79,0,0,1-4-2.76,9.43,9.43,0,0,1-.41-3.27,9.32,9.32,0,0,1,.41-3.24,3.79,3.79,0,0,1,4-2.76,3.47,3.47,0,0,1,3.26,1.59h0V28.72a.23.23,0,0,1,.24-.24h1.54a.23.23,0,0,1,.24.24V44.56a.23.23,0,0,1-.24.24Zm-.5-3.36a7.47,7.47,0,0,0,.26-2.4,7.59,7.59,0,0,0-.26-2.4,2.71,2.71,0,0,0-5.06,0,7.88,7.88,0,0,0-.27,2.4,7.68,7.68,0,0,0,.27,2.4,2.7,2.7,0,0,0,5.06,0Z"/><path d="M259,42a9.1,9.1,0,0,1-.38-2.91,8.87,8.87,0,0,1,.36-2.9,4.83,4.83,0,0,1,9,0,10,10,0,0,1,.36,3.28.23.23,0,0,1-.26.25h-7.27c-.1,0-.15,0-.15.14a4.27,4.27,0,0,0,.2,1.39,2.83,2.83,0,0,0,2.9,2,3.74,3.74,0,0,0,3-1.27.25.25,0,0,1,.36-.05l1,.89a.22.22,0,0,1,0,.34,5.59,5.59,0,0,1-4.49,2A4.45,4.45,0,0,1,259,42Zm7.16-3.89c.09,0,.14-.05.14-.15a4,4,0,0,0-.17-1.29,2.84,2.84,0,0,0-5.28,0,4,4,0,0,0-.17,1.29.13.13,0,0,0,.15.15Z"/><path d="M276.07,36.14A4.44,4.44,0,0,1,280.6,33a4.61,4.61,0,0,1,3.94,2c.07.11.07.21-.07.33l-1.06.86a.21.21,0,0,1-.33,0,2.84,2.84,0,0,0-2.48-1.25,2.49,2.49,0,0,0-2.56,1.8,7.39,7.39,0,0,0-.27,2.33,7.45,7.45,0,0,0,.27,2.35,2.49,2.49,0,0,0,2.56,1.8A2.83,2.83,0,0,0,283.08,42a.21.21,0,0,1,.33,0l1.06.87c.14.12.14.21.07.33a4.61,4.61,0,0,1-3.94,2,4.45,4.45,0,0,1-4.53-3.1,9.81,9.81,0,0,1-.36-2.93A9.69,9.69,0,0,1,276.07,36.14Z"/><path d="M293.92,44.8a.23.23,0,0,1-.24-.24v-1h0a3.77,3.77,0,0,1-3.41,1.52c-2.18,0-3.86-1.13-3.86-3.46s1.68-3.55,4.49-3.55h2.61a.13.13,0,0,0,.15-.15v-.84c0-1.58-.63-2.25-2.76-2.25a4.48,4.48,0,0,0-2.79.81c-.12.1-.26.1-.33,0l-.65-1.11a.24.24,0,0,1,.05-.33A6.36,6.36,0,0,1,291.07,33c3.26,0,4.51,1.08,4.51,3.91v7.61a.23.23,0,0,1-.24.24Zm-.28-3.72V39.81c0-.1-.05-.14-.15-.14h-2.3c-2,0-2.86.57-2.86,1.87s.87,1.8,2.4,1.8C292.53,43.34,293.64,42.5,293.64,41.08Z"/><path d="M299.18,44.8a.23.23,0,0,1-.24-.24v-11a.23.23,0,0,1,.24-.24h1.53a.23.23,0,0,1,.25.24v11a.23.23,0,0,1-.25.24Zm.19-13.37c-.14,0-.21-.09-.14-.24l1.82-3a.43.43,0,0,1,.41-.24H303c.15,0,.22.12.12.24l-2.2,3a.49.49,0,0,1-.46.24Z"/><path d="M311.61,44.8a.23.23,0,0,1-.24-.24v-1.1h0a3.52,3.52,0,0,1-3.27,1.61,3.81,3.81,0,0,1-4-2.76,9.68,9.68,0,0,1-.41-3.27,9.57,9.57,0,0,1,.41-3.24,3.81,3.81,0,0,1,4-2.76,3.49,3.49,0,0,1,3.27,1.59h0V28.72a.23.23,0,0,1,.24-.24h1.54a.23.23,0,0,1,.24.24V44.56a.23.23,0,0,1-.24.24Zm-.5-3.36a7.47,7.47,0,0,0,.26-2.4,7.59,7.59,0,0,0-.26-2.4,2.72,2.72,0,0,0-5.07,0,8.26,8.26,0,0,0-.26,2.4,8,8,0,0,0,.26,2.4,2.71,2.71,0,0,0,5.07,0Z"/><path d="M323.8,44.8a.23.23,0,0,1-.24-.24v-1h0a3.77,3.77,0,0,1-3.41,1.52c-2.18,0-3.86-1.13-3.86-3.46s1.68-3.55,4.48-3.55h2.62a.13.13,0,0,0,.15-.15v-.84c0-1.58-.63-2.25-2.77-2.25a4.47,4.47,0,0,0-2.78.81.22.22,0,0,1-.34,0L317,34.5a.23.23,0,0,1,.05-.33A6.36,6.36,0,0,1,321,33c3.26,0,4.51,1.08,4.51,3.91v7.61a.23.23,0,0,1-.24.24Zm-.28-3.72V39.81c0-.1,0-.14-.15-.14h-2.3c-2,0-2.86.57-2.86,1.87s.86,1.8,2.4,1.8C322.41,43.34,323.52,42.5,323.52,41.08Z"/><path d="M328,43.34a.23.23,0,0,1,0-.34l1-1a.23.23,0,0,1,.34,0,5.6,5.6,0,0,0,3.55,1.32c1.68,0,2.52-.72,2.52-1.76s-.43-1.41-2.23-1.6L332,39.79c-2.25-.25-3.43-1.37-3.43-3.25,0-2.18,1.56-3.5,4.27-3.5a6.88,6.88,0,0,1,4.08,1.27.24.24,0,0,1,.05.34l-.81,1a.24.24,0,0,1-.34,0,6,6,0,0,0-3.1-.94c-1.44,0-2.18.65-2.18,1.59s.55,1.39,2.25,1.56l1.21.12c2.32.21,3.45,1.39,3.45,3.24,0,2.25-1.63,3.77-4.63,3.77A7.16,7.16,0,0,1,328,43.34Z"/><path d="M352.58,44.8a.23.23,0,0,1-.24-.24v-1.1h0a3.49,3.49,0,0,1-3.26,1.61,3.81,3.81,0,0,1-4-2.76,9.68,9.68,0,0,1-.41-3.27,9.57,9.57,0,0,1,.41-3.24,3.81,3.81,0,0,1,4-2.76,3.46,3.46,0,0,1,3.26,1.59h0V28.72a.23.23,0,0,1,.24-.24h1.54a.23.23,0,0,1,.24.24V44.56a.23.23,0,0,1-.24.24Zm-.51-3.36a7.14,7.14,0,0,0,.27-2.4,7.25,7.25,0,0,0-.27-2.4,2.71,2.71,0,0,0-5.06,0,8.26,8.26,0,0,0-.26,2.4,8,8,0,0,0,.26,2.4,2.7,2.7,0,0,0,5.06,0Z"/><path d="M357.5,42a9.05,9.05,0,0,1-.39-2.91,8.87,8.87,0,0,1,.36-2.9,4.84,4.84,0,0,1,9,0,10,10,0,0,1,.36,3.28.24.24,0,0,1-.26.25h-7.28a.12.12,0,0,0-.14.14,4.3,4.3,0,0,0,.19,1.39,2.84,2.84,0,0,0,2.91,2,3.77,3.77,0,0,0,3-1.27.25.25,0,0,1,.36-.05l1,.89a.22.22,0,0,1,0,.34,5.62,5.62,0,0,1-4.49,2A4.45,4.45,0,0,1,357.5,42Zm7.15-3.89c.1,0,.14-.05.14-.15a4,4,0,0,0-.16-1.29,2.84,2.84,0,0,0-5.28,0,4,4,0,0,0-.17,1.29c0,.1.05.15.14.15Z"/><path d="M.38,70A8.73,8.73,0,0,1,0,67a8.65,8.65,0,0,1,.38-2.9A4.45,4.45,0,0,1,4.92,61a4.45,4.45,0,0,1,4.54,3.1A8.65,8.65,0,0,1,9.84,67,8.73,8.73,0,0,1,9.46,70a4.49,4.49,0,0,1-4.54,3.1A4.49,4.49,0,0,1,.38,70Zm7.13-.58A7.5,7.5,0,0,0,7.78,67a7.45,7.45,0,0,0-.27-2.33,2.56,2.56,0,0,0-2.59-1.8,2.56,2.56,0,0,0-2.59,1.8,10.27,10.27,0,0,0,0,4.68,2.54,2.54,0,0,0,2.59,1.8A2.54,2.54,0,0,0,7.51,69.39Z"/><path d="M12.84,72.8a.23.23,0,0,1-.24-.24V56.72a.23.23,0,0,1,.24-.24h1.54a.23.23,0,0,1,.24.24v5.91h0A3.47,3.47,0,0,1,17.9,61a3.79,3.79,0,0,1,4,2.76A9.32,9.32,0,0,1,22.27,67a9.43,9.43,0,0,1-.41,3.27,3.79,3.79,0,0,1-4,2.76,3.5,3.5,0,0,1-3.26-1.61h0v1.1a.23.23,0,0,1-.24.24Zm7.1-3.36a7.68,7.68,0,0,0,.27-2.4,7.88,7.88,0,0,0-.27-2.4,2.43,2.43,0,0,0-2.52-1.73,2.44,2.44,0,0,0-2.54,1.73,7.59,7.59,0,0,0-.26,2.4,7.47,7.47,0,0,0,.26,2.4,2.46,2.46,0,0,0,2.54,1.75A2.45,2.45,0,0,0,19.94,69.44Z"/><path d="M23.13,77.12a.23.23,0,0,1-.24-.24V75.49a.23.23,0,0,1,.24-.24h.39c1.13,0,1.51-.31,1.51-1.54V61.54a.23.23,0,0,1,.24-.24h1.54a.23.23,0,0,1,.24.24V73.67c0,2.47-1.11,3.45-3.43,3.45Zm2.09-18.41a.23.23,0,0,1-.24-.24V56.72a.23.23,0,0,1,.24-.24h1.64a.23.23,0,0,1,.24.24v1.75a.23.23,0,0,1-.24.24Z"/><path d="M30.19,70A9.1,9.1,0,0,1,29.81,67a8.87,8.87,0,0,1,.36-2.9A4.43,4.43,0,0,1,34.68,61a4.45,4.45,0,0,1,4.51,3.1,10,10,0,0,1,.36,3.28.23.23,0,0,1-.26.25H32c-.1,0-.15,0-.15.14a4.3,4.3,0,0,0,.19,1.39,2.84,2.84,0,0,0,2.91,2,3.76,3.76,0,0,0,3-1.27.25.25,0,0,1,.36,0l1,.89a.22.22,0,0,1,0,.34,5.59,5.59,0,0,1-4.49,2A4.45,4.45,0,0,1,30.19,70Zm7.15-3.89a.13.13,0,0,0,.15-.15,4,4,0,0,0-.17-1.29,2.59,2.59,0,0,0-2.64-1.8A2.58,2.58,0,0,0,32,64.62a4,4,0,0,0-.17,1.29.13.13,0,0,0,.15.15Z"/><path d="M45.65,72.92c-2.24,0-3.1-1-3.1-3.26V63.08a.13.13,0,0,0-.14-.14h-1a.23.23,0,0,1-.24-.24V61.54a.23.23,0,0,1,.24-.24h1a.12.12,0,0,0,.14-.14V57.92a.23.23,0,0,1,.24-.24h1.54a.23.23,0,0,1,.24.24v3.24a.12.12,0,0,0,.14.14h1.83a.23.23,0,0,1,.24.24V62.7a.23.23,0,0,1-.24.24H44.71a.13.13,0,0,0-.14.14v6.5c0,1.16.43,1.47,1.46,1.47h.51a.23.23,0,0,1,.24.24v1.39a.23.23,0,0,1-.24.24Z"/><path d="M49.1,70A8.73,8.73,0,0,1,48.72,67a8.65,8.65,0,0,1,.38-2.9A4.45,4.45,0,0,1,53.64,61a4.45,4.45,0,0,1,4.54,3.1,8.65,8.65,0,0,1,.38,2.9A8.73,8.73,0,0,1,58.18,70a4.49,4.49,0,0,1-4.54,3.1A4.49,4.49,0,0,1,49.1,70Zm7.13-.58a10.27,10.27,0,0,0,0-4.68,2.76,2.76,0,0,0-5.18,0A7.16,7.16,0,0,0,50.78,67a7.22,7.22,0,0,0,.27,2.35,2.76,2.76,0,0,0,5.18,0Z"/><path d="M60.53,71.34a.23.23,0,0,1,0-.34l1-1a.23.23,0,0,1,.34,0,5.6,5.6,0,0,0,3.55,1.32c1.68,0,2.52-.72,2.52-1.76s-.43-1.41-2.23-1.6l-1.23-.12C62.21,67.55,61,66.42,61,64.54c0-2.18,1.56-3.5,4.27-3.5a6.88,6.88,0,0,1,4.08,1.27.24.24,0,0,1,.05.34l-.81,1a.24.24,0,0,1-.34,0,6,6,0,0,0-3.1-.94c-1.44,0-2.18.65-2.18,1.59s.55,1.39,2.25,1.56l1.21.12c2.32.21,3.45,1.39,3.45,3.24,0,2.25-1.63,3.77-4.63,3.77A7.16,7.16,0,0,1,60.53,71.34Z"/><path d="M81.21,72.92c-2.23,0-3.09-1-3.09-3.26V63.08c0-.09-.05-.14-.15-.14H77a.23.23,0,0,1-.24-.24V61.54A.23.23,0,0,1,77,61.3h1c.1,0,.15,0,.15-.14V57.92a.23.23,0,0,1,.24-.24h1.53a.23.23,0,0,1,.24.24v3.24c0,.1.05.14.15.14H82.1a.23.23,0,0,1,.24.24V62.7a.23.23,0,0,1-.24.24H80.28c-.1,0-.15.05-.15.14v6.5c0,1.16.44,1.47,1.47,1.47h.5a.23.23,0,0,1,.24.24v1.39a.22.22,0,0,1-.24.24Z"/><path d="M91.94,72.8a.23.23,0,0,1-.24-.24v-1h0a3.77,3.77,0,0,1-3.41,1.52c-2.18,0-3.86-1.13-3.86-3.46s1.68-3.55,4.48-3.55h2.62c.1,0,.14,0,.14-.15v-.84c0-1.58-.62-2.25-2.76-2.25a4.47,4.47,0,0,0-2.78.81.22.22,0,0,1-.34,0l-.64-1.11a.24.24,0,0,1,0-.33A6.42,6.42,0,0,1,89.09,61c3.26,0,4.51,1.08,4.51,3.91v7.61a.23.23,0,0,1-.24.24Zm-.29-3.72V67.81c0-.1,0-.14-.14-.14h-2.3c-2,0-2.86.57-2.86,1.87s.86,1.8,2.4,1.8C90.55,71.34,91.65,70.5,91.65,69.08Z"/><path d="M105,72.92c-2,0-2.81-1-2.81-3V56.72a.23.23,0,0,1,.24-.24H104a.23.23,0,0,1,.24.24V69.78c0,1,.36,1.27,1.15,1.27h.45a.23.23,0,0,1,.24.24v1.39a.22.22,0,0,1-.24.24Z"/><path d="M108.09,70a9.1,9.1,0,0,1-.38-2.91,8.87,8.87,0,0,1,.36-2.9,4.83,4.83,0,0,1,9,0,9.89,9.89,0,0,1,.37,3.28.24.24,0,0,1-.27.25h-7.27c-.1,0-.15,0-.15.14a4.27,4.27,0,0,0,.2,1.39,2.83,2.83,0,0,0,2.9,2,3.74,3.74,0,0,0,2.95-1.27.25.25,0,0,1,.36,0l1,.89a.22.22,0,0,1,0,.34,5.59,5.59,0,0,1-4.49,2A4.45,4.45,0,0,1,108.09,70Zm7.16-3.89c.09,0,.14,0,.14-.15a4,4,0,0,0-.17-1.29,2.84,2.84,0,0,0-5.28,0,4,4,0,0,0-.17,1.29.13.13,0,0,0,.15.15Z"/><path d="M119.42,71.34a.23.23,0,0,1,0-.34l1-1a.23.23,0,0,1,.34,0,5.62,5.62,0,0,0,3.55,1.32c1.68,0,2.52-.72,2.52-1.76s-.43-1.41-2.23-1.6l-1.22-.12c-2.26-.24-3.44-1.37-3.44-3.25,0-2.18,1.56-3.5,4.28-3.5a6.88,6.88,0,0,1,4.08,1.27.24.24,0,0,1,.05.34l-.82,1a.24.24,0,0,1-.34,0,6,6,0,0,0-3.09-.94c-1.44,0-2.19.65-2.19,1.59s.56,1.39,2.26,1.56l1.2.12c2.33.21,3.46,1.39,3.46,3.24,0,2.25-1.64,3.77-4.64,3.77A7.18,7.18,0,0,1,119.42,71.34Z"/><path d="M136.44,64.14A4.43,4.43,0,0,1,141,61a4.62,4.62,0,0,1,3.94,2c.07.11.07.21-.07.33l-1.06.86a.21.21,0,0,1-.33,0A2.84,2.84,0,0,0,141,62.91a2.5,2.5,0,0,0-2.57,1.8,10.66,10.66,0,0,0,0,4.68,2.5,2.5,0,0,0,2.57,1.8A2.83,2.83,0,0,0,143.45,70a.21.21,0,0,1,.33,0l1.06.87c.14.12.14.21.07.33A4.62,4.62,0,0,1,141,73.07a4.44,4.44,0,0,1-4.53-3.1,9.81,9.81,0,0,1-.36-2.93A9.69,9.69,0,0,1,136.44,64.14Z"/><path d="M147,70a8.73,8.73,0,0,1-.38-2.93,8.65,8.65,0,0,1,.38-2.9,4.87,4.87,0,0,1,9.07,0,8.37,8.37,0,0,1,.39,2.9,8.45,8.45,0,0,1-.39,2.93A4.87,4.87,0,0,1,147,70Zm7.13-.58a7.56,7.56,0,0,0,.26-2.35,7.5,7.5,0,0,0-.26-2.33,2.77,2.77,0,0,0-5.19,0A7.5,7.5,0,0,0,148.7,67a7.56,7.56,0,0,0,.26,2.35,2.77,2.77,0,0,0,5.19,0Z"/><path d="M173.93,72.8a.22.22,0,0,1-.24-.24V65.84c0-1.85-.84-2.93-2.57-2.93a2.59,2.59,0,0,0-2.64,2.81v6.84a.23.23,0,0,1-.24.24H166.7a.23.23,0,0,1-.24-.24V65.84c0-1.85-.84-2.93-2.57-2.93a2.58,2.58,0,0,0-2.64,2.81v6.84a.22.22,0,0,1-.24.24h-1.53a.22.22,0,0,1-.24-.24v-11a.23.23,0,0,1,.24-.24H161a.23.23,0,0,1,.24.24V62.6h0a4.06,4.06,0,0,1,6.57.24h0A4.29,4.29,0,0,1,171.6,61c2.66,0,4.1,1.71,4.1,4.32v7.2a.22.22,0,0,1-.24.24Z"/><path d="M178.72,70a8.73,8.73,0,0,1-.38-2.93,8.65,8.65,0,0,1,.38-2.9,4.87,4.87,0,0,1,9.08,0,8.65,8.65,0,0,1,.38,2.9A8.73,8.73,0,0,1,187.8,70a4.87,4.87,0,0,1-9.08,0Zm7.13-.58a10.27,10.27,0,0,0,0-4.68,2.76,2.76,0,0,0-5.18,0,10.27,10.27,0,0,0,0,4.68,2.76,2.76,0,0,0,5.18,0Z"/><path d="M203.68,72.8a.23.23,0,0,1-.24-.24V65.84c0-1.85-.84-2.93-2.56-2.93a2.58,2.58,0,0,0-2.64,2.81v6.84a.23.23,0,0,1-.24.24h-1.54a.22.22,0,0,1-.24-.24V56.72a.23.23,0,0,1,.24-.24H198a.23.23,0,0,1,.24.24V62.6h0A3.63,3.63,0,0,1,201.48,61c2.49,0,4,1.71,4,4.32v7.2a.23.23,0,0,1-.24.24Z"/><path d="M208.48,70A9.1,9.1,0,0,1,208.1,67a8.87,8.87,0,0,1,.36-2.9,4.83,4.83,0,0,1,9,0,10,10,0,0,1,.36,3.28.23.23,0,0,1-.26.25h-7.27c-.1,0-.15,0-.15.14a4,4,0,0,0,.2,1.39,2.83,2.83,0,0,0,2.9,2,3.74,3.74,0,0,0,3-1.27.25.25,0,0,1,.36,0l1,.89a.22.22,0,0,1,0,.34,5.59,5.59,0,0,1-4.49,2A4.45,4.45,0,0,1,208.48,70Zm7.15-3.89a.13.13,0,0,0,.15-.15,4,4,0,0,0-.17-1.29,2.84,2.84,0,0,0-5.28,0,4,4,0,0,0-.17,1.29.13.13,0,0,0,.15.15Z"/><path d="M220.84,72.8a.23.23,0,0,1-.24-.24v-11a.23.23,0,0,1,.24-.24h1.54a.23.23,0,0,1,.24.24v1.18h0A3.23,3.23,0,0,1,225.69,61a3.51,3.51,0,0,1,2.35.87c.12.11.15.21.05.33l-.89,1.18a.21.21,0,0,1-.33,0,3.31,3.31,0,0,0-1.78-.55c-1.75,0-2.47,1.37-2.47,3.36v6.29a.23.23,0,0,1-.24.24Z"/><path d="M230.2,72.8a.23.23,0,0,1-.24-.24v-11a.23.23,0,0,1,.24-.24h1.54a.23.23,0,0,1,.24.24v1.18h0A3.23,3.23,0,0,1,235.05,61a3.51,3.51,0,0,1,2.35.87c.12.11.15.21,0,.33l-.89,1.18a.21.21,0,0,1-.33,0,3.31,3.31,0,0,0-1.78-.55c-1.75,0-2.47,1.37-2.47,3.36v6.29a.23.23,0,0,1-.24.24Z"/><path d="M245.71,72.8a.22.22,0,0,1-.24-.24v-1h0a3.74,3.74,0,0,1-3.4,1.52c-2.19,0-3.87-1.13-3.87-3.46s1.68-3.55,4.49-3.55h2.62c.09,0,.14,0,.14-.15v-.84c0-1.58-.62-2.25-2.76-2.25a4.44,4.44,0,0,0-2.78.81c-.12.1-.27.1-.34,0l-.65-1.11a.24.24,0,0,1,.05-.33A6.38,6.38,0,0,1,242.85,61c3.27,0,4.51,1.08,4.51,3.91v7.61a.22.22,0,0,1-.24.24Zm-.29-3.72V67.81a.12.12,0,0,0-.14-.14H243c-2,0-2.85.57-2.85,1.87s.86,1.8,2.4,1.8C244.32,71.34,245.42,70.5,245.42,69.08Z"/><path d="M265.41,72.8a.23.23,0,0,1-.24-.24V65.84c0-1.85-.84-2.93-2.57-2.93A2.6,2.6,0,0,0,260,65.72v6.84a.22.22,0,0,1-.24.24h-1.53a.22.22,0,0,1-.24-.24V65.84c0-1.85-.84-2.93-2.57-2.93a2.58,2.58,0,0,0-2.64,2.81v6.84a.23.23,0,0,1-.24.24H251a.23.23,0,0,1-.24-.24v-11a.23.23,0,0,1,.24-.24h1.54a.23.23,0,0,1,.24.24V62.6h0a4.07,4.07,0,0,1,6.58.24h0a4.3,4.3,0,0,1,3.72-1.8c2.67,0,4.11,1.71,4.11,4.32v7.2a.23.23,0,0,1-.24.24Z"/><path d="M270.71,58.71a.23.23,0,0,1-.24-.24V56.72a.23.23,0,0,1,.24-.24h1.64a.23.23,0,0,1,.24.24v1.75a.23.23,0,0,1-.24.24Zm.05,14.09a.23.23,0,0,1-.24-.24v-11a.23.23,0,0,1,.24-.24h1.54a.23.23,0,0,1,.24.24v11a.23.23,0,0,1-.24.24Z"/><path d="M275.68,70A9.1,9.1,0,0,1,275.3,67a8.87,8.87,0,0,1,.36-2.9,4.83,4.83,0,0,1,9,0,10,10,0,0,1,.36,3.28.23.23,0,0,1-.26.25h-7.27c-.1,0-.15,0-.15.14a4.6,4.6,0,0,0,.19,1.39,2.84,2.84,0,0,0,2.91,2,3.74,3.74,0,0,0,3-1.27.25.25,0,0,1,.36,0l1,.89a.22.22,0,0,1,0,.34,5.59,5.59,0,0,1-4.49,2A4.45,4.45,0,0,1,275.68,70Zm7.16-3.89c.09,0,.14,0,.14-.15a4,4,0,0,0-.17-1.29,2.84,2.84,0,0,0-5.28,0,4,4,0,0,0-.17,1.29.13.13,0,0,0,.15.15Z"/><path d="M295.27,72.8a.22.22,0,0,1-.24-.24V65.84c0-1.85-.84-2.93-2.57-2.93a2.58,2.58,0,0,0-2.64,2.81v6.84a.23.23,0,0,1-.24.24H288a.23.23,0,0,1-.24-.24v-11a.23.23,0,0,1,.24-.24h1.54a.23.23,0,0,1,.24.24V62.6h0A3.65,3.65,0,0,1,293.06,61c2.5,0,4,1.71,4,4.32v7.2a.22.22,0,0,1-.24.24Z"/><path d="M303.71,72.92c-2.23,0-3.09-1-3.09-3.26V63.08c0-.09-.05-.14-.15-.14h-1a.22.22,0,0,1-.23-.24V61.54a.22.22,0,0,1,.23-.24h1c.1,0,.15,0,.15-.14V57.92a.23.23,0,0,1,.24-.24h1.53a.23.23,0,0,1,.24.24v3.24c0,.1.05.14.15.14h1.82a.23.23,0,0,1,.24.24V62.7a.23.23,0,0,1-.24.24h-1.82c-.1,0-.15.05-.15.14v6.5c0,1.16.44,1.47,1.47,1.47h.5a.23.23,0,0,1,.24.24v1.39a.22.22,0,0,1-.24.24Z"/><path d="M314.44,72.8a.23.23,0,0,1-.24-.24v-1h0a3.77,3.77,0,0,1-3.41,1.52c-2.18,0-3.86-1.13-3.86-3.46s1.68-3.55,4.48-3.55H314a.13.13,0,0,0,.15-.15v-.84c0-1.58-.63-2.25-2.77-2.25a4.47,4.47,0,0,0-2.78.81c-.12.1-.26.1-.33,0l-.65-1.11a.24.24,0,0,1,0-.33A6.42,6.42,0,0,1,311.59,61c3.26,0,4.51,1.08,4.51,3.91v7.61a.23.23,0,0,1-.24.24Zm-.28-3.72V67.81c0-.1-.05-.14-.15-.14h-2.3c-2,0-2.86.57-2.86,1.87s.86,1.8,2.4,1.8C313.05,71.34,314.16,70.5,314.16,69.08Z"/><path d="M318.67,71.34a.23.23,0,0,1,0-.34l1-1a.23.23,0,0,1,.34,0,5.6,5.6,0,0,0,3.55,1.32c1.68,0,2.52-.72,2.52-1.76s-.43-1.41-2.23-1.6l-1.23-.12c-2.25-.24-3.43-1.37-3.43-3.25,0-2.18,1.56-3.5,4.27-3.5a6.88,6.88,0,0,1,4.08,1.27.24.24,0,0,1,.05.34l-.81,1a.24.24,0,0,1-.34,0,6,6,0,0,0-3.1-.94c-1.44,0-2.18.65-2.18,1.59s.55,1.39,2.25,1.56l1.21.12c2.32.21,3.45,1.39,3.45,3.24,0,2.25-1.63,3.77-4.63,3.77A7.16,7.16,0,0,1,318.67,71.34Z"/><path d="M330.45,70.5a.23.23,0,0,1,.24-.24h1.82a.22.22,0,0,1,.24.24v2.06a.22.22,0,0,1-.24.24h-1.82a.23.23,0,0,1-.24-.24Z"/></g></g></svg>