<svg xmlns="http://www.w3.org/2000/svg" viewBox="0 0 415.18 322.23"><defs><style>.cls-1{font-size:40px;font-family:DINNextLTPro-Medium, DIN Next LT Pro;font-weight:500;}.cls-1,.cls-10{letter-spacing:-0.06em;}.cls-2{letter-spacing:-0.08em;}.cls-3{letter-spacing:-0.06em;}.cls-4{letter-spacing:-0.07em;}.cls-5{letter-spacing:-0.07em;}.cls-6{letter-spacing:-0.07em;}.cls-7{letter-spacing:-0.07em;}.cls-8{letter-spacing:-0.08em;}.cls-9{letter-spacing:-0.08em;}.cls-11{letter-spacing:-0.07em;}</style></defs><title>r11</title><g id="Capa_2" data-name="Capa 2"><g id="fondo"><text class="cls-1" transform="translate(14.47 33.6)">Ante cualquier t<tspan class="cls-2" x="238.55" y="0">r</tspan><tspan class="cls-3" x="252.35" y="0">abajo en </tspan><tspan x="-3.52" y="38">a</tspan><tspan class="cls-4" x="15" y="38">l</tspan><tspan class="cls-3" x="23.92" y="38">tu</tspan><tspan class="cls-2" x="53.72" y="38">r</tspan><tspan x="67.52" y="38">as </tspan><tspan class="cls-5" x="110.6" y="38">r</tspan><tspan x="124.72" y="38">ecue</tspan><tspan class="cls-6" x="197.56" y="38">r</tspan><tspan x="211.72" y="38">de siemp</tspan><tspan class="cls-7" x="351.19" y="38">r</tspan><tspan x="365.31" y="38">e </tspan><tspan x="10.78" y="76">contar con su equipo de </tspan><tspan x="-13.44" y="114">seguridad (arnés</tspan><tspan class="cls-8" x="245.56" y="114">,</tspan><tspan class="cls-3" x="252.24" y="114" xml:space="preserve"> eslingas</tspan><tspan class="cls-9" x="386.99" y="114">,</tspan><tspan x="393.67" y="114"> </tspan><tspan class="cls-2"><tspan x="-12.68" y="152">c</tspan><tspan class="cls-10" x="3.2" y="152">asco,botas</tspan><tspan class="cls-8" x="166.2" y="152">,</tspan><tspan class="cls-3" x="172.88" y="152" xml:space="preserve"> guantes</tspan><tspan class="cls-8" x="302.75" y="152">,</tspan><tspan class="cls-10" x="309.43" y="152" xml:space="preserve">  etc.)</tspan><tspan class="cls-8" x="385.99" y="152">.</tspan><tspan class="cls-10" x="392.91" y="152"> </tspan></tspan><tspan x="-8.78" y="190">Seguir los p</tspan><tspan class="cls-7" x="170.34" y="190">r</tspan><tspan x="184.46" y="190">ocedimientos </tspan><tspan x="34.6" y="228">de t</tspan><tspan class="cls-2" x="89.92" y="228">r</tspan><tspan x="103.72" y="228">abajo segu</tspan><tspan class="cls-11" x="268" y="228">r</tspan><tspan x="282.12" y="228">o en </tspan><tspan x="133.12" y="266">a</tspan><tspan class="cls-4" x="151.64" y="266">l</tspan><tspan class="cls-3" x="160.56" y="266">tu</tspan><tspan class="cls-2" x="190.36" y="266">r</tspan><tspan x="204.16" y="266">as</tspan><tspan class="cls-9" x="240.2" y="266">.</tspan></text></g></g></svg>