<svg xmlns="http://www.w3.org/2000/svg" viewBox="0 0 487.58 347.23"><defs><style>.cls-1{font-size:40px;font-family:DINNextLTPro-Medium, DIN Next LT Pro;font-weight:500;letter-spacing:-0.09em;}.cls-2{letter-spacing:-0.02em;}.cls-3{letter-spacing:-0.02em;}.cls-4{letter-spacing:-0.02em;}.cls-5{letter-spacing:-0.04em;}.cls-6{letter-spacing:-0.04em;}.cls-7{letter-spacing:-0.03em;}.cls-8{letter-spacing:-0.04em;}.cls-9{letter-spacing:-0.04em;}.cls-10{letter-spacing:-0.02em;}.cls-11{letter-spacing:-0.03em;}.cls-12{letter-spacing:-0.03em;}.cls-13{letter-spacing:-0.03em;}</style></defs><title>r2</title><g id="Capa_2" data-name="Capa 2"><g id="fondo"><text class="cls-1" transform="translate(15.79 33.6)">T<tspan class="cls-2" x="18.32" y="0">enga en cuenta que si </tspan><tspan class="cls-3" x="387.71" y="0">v</tspan><tspan class="cls-4" x="406.31" y="0">a a </tspan><tspan class="cls-4"><tspan x="57.54" y="38">t</tspan><tspan class="cls-5" x="69.58" y="38">r</tspan><tspan x="84.98" y="38">abajar en espacios </tspan><tspan x="-3.06" y="76">encer</tspan><tspan class="cls-6" x="92.46" y="76">r</tspan><tspan class="cls-2" x="107.86" y="76">ados o a p</tspan><tspan class="cls-7" x="275.38" y="76">r</tspan><tspan x="291.09" y="76">ofundidad </tspan><tspan x="32.16" y="114">debe contar con (arnes</tspan><tspan class="cls-8" x="414.75" y="114">,</tspan><tspan class="cls-2" x="423.03" y="114"> </tspan><tspan x="6.78" y="152">guantes</tspan><tspan class="cls-8" x="140.82" y="152">,</tspan><tspan class="cls-2" x="149.1" y="152" xml:space="preserve"> gafas</tspan><tspan class="cls-8" x="250.06" y="152">,</tspan><tspan x="258.34" y="152"> </tspan><tspan class="cls-5" x="266.98" y="152">c</tspan><tspan x="284.46" y="152">asco</tspan><tspan class="cls-9" x="362.01" y="152">,</tspan><tspan x="370.29" y="152" xml:space="preserve"> etc)</tspan><tspan class="cls-9" x="440.13" y="152">,</tspan><tspan class="cls-2" x="448.41" y="152"> </tspan></tspan><tspan class="cls-10"><tspan x="52.54" y="190">v</tspan><tspan class="cls-11" x="71.14" y="190">ay</tspan><tspan class="cls-2" x="109.38" y="190">a acompañado de </tspan></tspan><tspan class="cls-4"><tspan x="16.72" y="228">pe</tspan><tspan class="cls-12" x="57.76" y="228">r</tspan><tspan class="cls-2" x="73.52" y="228">sonal </tspan><tspan class="cls-6" x="173.48" y="228">c</tspan><tspan x="190.96" y="228">apacitado pa</tspan><tspan class="cls-6" x="402.95" y="228">r</tspan><tspan class="cls-2" x="418.35" y="228">a </tspan></tspan><tspan class="cls-13"><tspan x="15.8" y="266">r</tspan><tspan class="cls-2" x="31.52" y="266" xml:space="preserve">eaccionar  en </tspan><tspan class="cls-6" x="262.16" y="266">c</tspan><tspan class="cls-2" x="279.64" y="266">aso de un </tspan></tspan><tspan class="cls-4"><tspan x="147.04" y="304">incidente</tspan><tspan class="cls-8" x="299.63" y="304">.</tspan><tspan x="308.16" y="304"> </tspan></tspan></text></g></g></svg>