<svg xmlns="http://www.w3.org/2000/svg" viewBox="0 0 201.9 170.46"><defs><style>.cls-1{fill:#717171;}.cls-2{fill:#2f3032;opacity:0.5;}.cls-3{fill:#b1382c;}.cls-4{fill:#252323;}.cls-5{fill:#90c5e0;}.cls-6{fill:#abd3e9;}.cls-7{fill:#b9d9ed;}.cls-8{fill:#1f181f;}.cls-9{fill:#392a37;}.cls-10{fill:#422f40;}.cls-11{fill:#50394d;}.cls-12{fill:#a6a6a6;}.cls-13{fill:#e8e8e5;}.cls-14{fill:#4e4e4e;}.cls-15{fill:#929292;}.cls-16{fill:#dbdcd7;}.cls-17{fill:#c2c2c2;}.cls-18{fill:#b5635b;}.cls-19{fill:#62a3ca;}.cls-20{fill:#7bb6da;}.cls-21{fill:#b4c0d0;}.cls-22{fill:#705f5f;}.cls-23{fill:#3b3333;}.cls-24{fill:#554949;}.cls-25{fill:#4a4347;}.cls-26{fill:#cec8b9;}.cls-27{fill:#999181;}.cls-28{fill:#fff;}.cls-29{fill:#b0e3e7;}.cls-30{fill:#955019;}.cls-31{fill:#b66b2a;}.cls-32{fill:#e48a30;}.cls-33{fill:#cd772f;}.cls-34{fill:#fbf4c7;}.cls-35{fill:#8caba4;}.cls-36{fill:#5189a9;}.cls-37{fill:#f5f8ff;}.cls-38{fill:#7489a2;}.cls-39{fill:#746458;}.cls-40{fill:#aabbfc;}.cls-41{fill:#ca7d74;}.cls-42{fill:#dce2e6;}.cls-43{fill:#b1c0d4;}.cls-44{fill:#d16e5d;}.cls-45{fill:#f4d765;}.cls-46{fill:#80b9ea;}.cls-47{fill:#bd7839;}</style></defs><title>Recurso 36</title><g id="Capa_2" data-name="Capa 2"><g id="personajes"><path class="cls-1" d="M25.89,92.54a23.79,23.79,0,0,0,.46-2.89A4.87,4.87,0,0,0,26.18,87a4.46,4.46,0,0,0-2.11-2,1.68,1.68,0,0,0-1.45,0,45.36,45.36,0,0,0-1.22,6.52,35.55,35.55,0,0,0-.31,4,13.07,13.07,0,0,0,.07,3.59,2.58,2.58,0,0,0,1.16,1.24.8.8,0,0,0,.61.21c.31-.08.41-.45.46-.76.21,0,.49.29.64,0,.45-.79.31-1.73.82-2.49s1.12-1.14,1.62-1.76a.57.57,0,0,0,.15-.3c0-.22-.19-.39-.4-.46-.46-.16-.85-.12-.69-.72S25.78,93.06,25.89,92.54Z"/><path class="cls-2" d="M63.39,106.19h0L153.7,53.71,198.5,81c2.11,1.23,4.63,2.9,2.73,4.45L73.51,158.86C43.87,175.34,40.31,171,31,165.59L9,152.84c-6.05-3.51-12.64-5.57-6.54-9Z"/><polygon class="cls-3" points="60.39 125.16 61.29 126 63.54 127.93 84.88 113.05 60.39 125.16"/><path class="cls-4" d="M171.42,94.12,160.58,85.8s6.33-3.36,6.58-3.33,3.63,1.69,3.63,1.69S175.66,88.34,171.42,94.12Z"/><polygon points="78.71 146.55 40.56 125.27 40.25 114.69 78.4 135.97 80.78 142.32 78.71 146.55"/><polygon class="cls-5" points="41.17 136.9 27.43 141.83 11.08 127.28 11.66 120.05 22.81 105.59 55.45 124.92 41.17 136.9"/><polygon class="cls-6" points="8.22 117.76 20.76 102.61 22.81 105.59 12.42 119.06 8.22 117.76"/><polygon class="cls-7" points="41.04 135 26.46 140.64 10.11 126.09 12.88 119.2 23.84 105.34 54.48 123.73 41.04 135"/><polygon class="cls-6" points="41.17 136.9 55.61 124.7 61.29 126 44.33 152.54 41.17 136.9"/><path class="cls-8" d="M61.64,161,75.78,137.3,68.39,133l0,0c-1.77-1-4.21-.8-6.9.75C56,137,51.62,144.49,51.62,150.67c0,3,1,5.06,2.68,6.1h0l.15.09.12.07Z"/><path class="cls-9" d="M73.23,138.79,63.2,133a11.59,11.59,0,0,0-1.73.81C56,137,51.62,144.49,51.62,150.67a10.16,10.16,0,0,0,.43,3l7.72,4.45A11.72,11.72,0,0,0,62.4,157a17.54,17.54,0,0,0,2.9-2.13l7.43-12.46A17.8,17.8,0,0,0,73.23,138.79Z"/><path class="cls-10" d="M78.47,143.46c0,6.17-4.4,13.72-9.84,16.85s-9.84.66-9.84-5.51,4.4-13.72,9.84-16.86S78.47,137.28,78.47,143.46Z"/><path class="cls-10" d="M77.4,144.07c0,5.51-3.93,12.23-8.77,15s-8.77.6-8.77-4.91,3.92-12.23,8.77-15S77.4,138.57,77.4,144.07Z"/><path class="cls-11" d="M76.36,144.68c0,4.84-3.46,10.77-7.73,13.23s-7.73.52-7.73-4.33,3.46-10.78,7.73-13.23S76.36,139.83,76.36,144.68Z"/><path class="cls-1" d="M75.48,145.18a15,15,0,0,1-6.85,11.73c-3.78,2.18-6.85.46-6.85-3.84a15,15,0,0,1,6.85-11.72C72.41,139.17,75.48,140.88,75.48,145.18Z"/><path class="cls-12" d="M68.54,141.4a15,15,0,0,0-6.76,11.67,7.16,7.16,0,0,0,.19,1.67l5,2.89a8,8,0,0,0,1.66-.72,15,15,0,0,0,6.84-11.51Z"/><path class="cls-13" d="M64.8,144.89a15.5,15.5,0,0,0-2.77,6l8.29,4.79a15.86,15.86,0,0,0,3.92-5.35Z"/><path class="cls-13" d="M64.8,144.89a15.5,15.5,0,0,0-2.77,6l8.29,4.79a15.86,15.86,0,0,0,3.92-5.35Z"/><path class="cls-14" d="M73.29,145.11a11.9,11.9,0,0,1-5.45,9.32c-3,1.74-5.44.37-5.44-3.05a11.91,11.91,0,0,1,5.44-9.32C70.85,140.33,73.29,141.69,73.29,145.11Z"/><path class="cls-15" d="M72.33,145.34a10.24,10.24,0,0,1-4.67,8c-2.58,1.48-4.68.31-4.68-2.62a10.25,10.25,0,0,1,4.68-8C70.24,141.24,72.33,142.41,72.33,145.34Z"/><path class="cls-1" d="M65.23,144.88a.82.82,0,0,0-.26-.23,12.83,12.83,0,0,0-.77,1.11,1.09,1.09,0,0,0,.69,0A.58.58,0,0,0,65.23,144.88Z"/><path class="cls-1" d="M72.27,147.65c.31-.41.24-.77-.15-.8a1.7,1.7,0,0,0-1.27.68c-.31.41-.25.77.14.8A1.73,1.73,0,0,0,72.27,147.65Z"/><path class="cls-1" d="M64.07,150.81c.1-.49-.14-.67-.54-.42a2.5,2.5,0,0,0-.92,1.36c-.1.49.14.67.54.42A2.5,2.5,0,0,0,64.07,150.81Z"/><path class="cls-1" d="M70.08,142.19c-.14-.39-.47-.35-.74.11a2.1,2.1,0,0,0-.23,1.54c.14.39.47.35.74-.11A2.1,2.1,0,0,0,70.08,142.19Z"/><path class="cls-1" d="M64,147.45c.37-.33.38-.72,0-.87a.94.94,0,0,0-.3-.06,11.8,11.8,0,0,0-.6,1.31A1.55,1.55,0,0,0,64,147.45Z"/><path class="cls-1" d="M63.81,153.37c.07.45.38.47.71.06a2.38,2.38,0,0,0,.46-1.54c-.07-.44-.39-.47-.71-.06A2.32,2.32,0,0,0,63.81,153.37Z"/><path class="cls-1" d="M63.73,149.24c.26-.45.13-.77-.28-.71a1.54,1.54,0,0,0-.66.32,10.71,10.71,0,0,0-.3,1.31h0A2,2,0,0,0,63.73,149.24Z"/><path class="cls-1" d="M71.38,150.16c.39-.26.46-.66.16-.89a1.16,1.16,0,0,0-1.25,0c-.39.26-.47.66-.17.89A1.18,1.18,0,0,0,71.38,150.16Z"/><path class="cls-1" d="M68.39,153.05a1.2,1.2,0,0,0-.6-1.13c-.34-.13-.64.15-.65.63a1.18,1.18,0,0,0,.59,1.12C68.08,153.81,68.38,153.53,68.39,153.05Z"/><path class="cls-1" d="M65.55,152.6a1.78,1.78,0,0,0,.07,1.46c.23.31.56.17.75-.32a1.78,1.78,0,0,0-.07-1.46C66.07,152,65.73,152.11,65.55,152.6Z"/><path class="cls-1" d="M70.22,151.46a1,1,0,0,0-1-.59.59.59,0,0,0-.46.84,1,1,0,0,0,1,.59A.59.59,0,0,0,70.22,151.46Z"/><path class="cls-1" d="M70.85,144.9a2.49,2.49,0,0,0,.73-1.47c0-.48-.25-.6-.62-.27a2.45,2.45,0,0,0-.74,1.47C70.19,145.11,70.47,145.23,70.85,144.9Z"/><path class="cls-1" d="M65.54,144a1,1,0,0,0,.65.48c.38.05.64-.28.58-.73a1.16,1.16,0,0,0-.33-.64A10.77,10.77,0,0,0,65.54,144Z"/><path class="cls-1" d="M71.93,144.87a2.31,2.31,0,0,0-1.1,1.14c-.2.48,0,.75.4.6a2.23,2.23,0,0,0,1.1-1.14C72.53,145,72.35,144.72,71.93,144.87Z"/><path class="cls-1" d="M67.4,142.34l0,.09a1.45,1.45,0,0,0,.31,1.34c.29.25.61,0,.72-.46a1.47,1.47,0,0,0-.31-1.34l0,0-.21.11Z"/><path class="cls-1" d="M70.18,146.38a6.34,6.34,0,0,1-2.89,5c-1.6.92-2.89.2-2.89-1.62a6.33,6.33,0,0,1,2.89-5C68.88,143.85,70.18,144.57,70.18,146.38Z"/><path class="cls-12" d="M68.09,144.45a2.62,2.62,0,0,0-.8.32,6.29,6.29,0,0,0-2.89,4.94,2.68,2.68,0,0,0,.26,1.21l2.64-.54c1-.89,1.16-1.91,1.75-3.2Z"/><path class="cls-16" d="M68.16,149.25a9.29,9.29,0,0,0,.51-1.15,10.89,10.89,0,0,1-3-1.78,6.82,6.82,0,0,0-1.06,2.23A10.24,10.24,0,0,1,68.16,149.25Z"/><path class="cls-17" d="M70.18,147.7a4.5,4.5,0,0,1-2.06,3.52c-1.13.65-2.05.14-2.05-1.15a4.5,4.5,0,0,1,2.05-3.52C69.26,145.9,70.18,146.41,70.18,147.7Z"/><path class="cls-14" d="M69.55,148.49a2.42,2.42,0,0,1-1.11,1.9c-.61.36-1.11.08-1.11-.62a2.46,2.46,0,0,1,1.11-1.91C69.06,147.51,69.55,147.79,69.55,148.49Z"/><path d="M61.64,161l-4.33-2.5-.12-.07-.15-.09h0c-1.66-1-2.68-3.14-2.68-6.1,0-6.18,4.41-13.72,9.85-16.86,2.69-1.55,5.13-1.72,6.9-.75v0l-.48-.28v0c-1.78-1-4.22-.79-6.91.76-5.44,3.13-9.85,10.67-9.85,16.85,0,3,1,5.06,2.68,6.11h0l.15.08.12.07L61.64,161Z"/><path d="M61.64,161l-2.12-1.23-.13-.07-.14-.08h0c-1.65-1-2.67-3.15-2.67-6.11,0-6.18,4.41-13.72,9.84-16.85,2.69-1.55,5.13-1.73,6.91-.76h0l-.49-.28h0c-1.78-1-4.21-.79-6.91.76-5.43,3.13-9.84,10.68-9.84,16.85,0,3,1,5.06,2.67,6.11h0l.15.08.12.07L61.64,161Z"/><path class="cls-8" d="M154.57,108.45l14.14-23.72-7.39-4.26v0c-1.78-1-4.22-.8-6.91.75-5.44,3.13-9.84,10.68-9.84,16.85,0,3,1,5.06,2.67,6.11h0l.14.09.12.07Z"/><path class="cls-9" d="M166.16,86.22l-10-5.79a11.59,11.59,0,0,0-1.73.81c-5.44,3.13-9.84,10.68-9.84,16.85a9.87,9.87,0,0,0,.43,3l7.72,4.45a11.91,11.91,0,0,0,2.63-1.13,18.41,18.41,0,0,0,2.9-2.13l7.43-12.46A17.86,17.86,0,0,0,166.16,86.22Z"/><path class="cls-10" d="M171.41,90.89c0,6.17-4.41,13.72-9.85,16.85s-9.84.66-9.84-5.51,4.41-13.72,9.84-16.86S171.41,84.71,171.41,90.89Z"/><path class="cls-10" d="M170.34,91.5c0,5.51-3.93,12.23-8.78,15s-8.77.59-8.77-4.91,3.93-12.23,8.77-15S170.34,86,170.34,91.5Z"/><path class="cls-11" d="M169.28,92.1c0,4.85-3.46,10.78-7.73,13.24s-7.73.52-7.73-4.33,3.46-10.78,7.73-13.24S169.28,87.25,169.28,92.1Z"/><path class="cls-1" d="M168.4,92.61a15,15,0,0,1-6.85,11.73c-3.78,2.18-6.85.46-6.85-3.84a15,15,0,0,1,6.85-11.72C165.33,86.6,168.4,88.31,168.4,92.61Z"/><path class="cls-12" d="M161.46,88.83a15,15,0,0,0-6.76,11.67,7.23,7.23,0,0,0,.19,1.67l5,2.88a7.46,7.46,0,0,0,1.66-.71,15,15,0,0,0,6.84-11.51Z"/><path class="cls-13" d="M157.72,92.32a15.69,15.69,0,0,0-2.78,6l8.3,4.79a15.72,15.72,0,0,0,3.92-5.34Z"/><path class="cls-13" d="M157.72,92.32a15.69,15.69,0,0,0-2.78,6l8.3,4.79a15.72,15.72,0,0,0,3.92-5.34Z"/><path class="cls-14" d="M166.21,92.54a11.9,11.9,0,0,1-5.45,9.32c-3,1.73-5.44.37-5.44-3a11.91,11.91,0,0,1,5.44-9.32C163.77,87.76,166.21,89.12,166.21,92.54Z"/><path class="cls-15" d="M165.25,92.77a10.23,10.23,0,0,1-4.67,8c-2.58,1.49-4.68.32-4.68-2.61a10.25,10.25,0,0,1,4.68-8C163.15,88.67,165.25,89.84,165.25,92.77Z"/><path class="cls-1" d="M158.14,92.31a.69.69,0,0,0-.25-.23,10.94,10.94,0,0,0-.77,1.11,1.09,1.09,0,0,0,.69,0A.57.57,0,0,0,158.14,92.31Z"/><path class="cls-1" d="M165.19,95.08c.31-.41.24-.77-.15-.8a1.7,1.7,0,0,0-1.27.68c-.31.41-.25.76.14.8A1.77,1.77,0,0,0,165.19,95.08Z"/><path class="cls-1" d="M157,98.24c.1-.49-.14-.67-.54-.42a2.5,2.5,0,0,0-.92,1.36c-.1.48.14.67.54.42A2.5,2.5,0,0,0,157,98.24Z"/><path class="cls-1" d="M163,89.62c-.14-.4-.47-.35-.74.11a2.1,2.1,0,0,0-.23,1.54c.14.39.47.34.74-.11A2.1,2.1,0,0,0,163,89.62Z"/><path class="cls-1" d="M156.94,94.88c.37-.33.38-.72,0-.87a.94.94,0,0,0-.3-.06,11.8,11.8,0,0,0-.6,1.31A1.55,1.55,0,0,0,156.94,94.88Z"/><path class="cls-1" d="M156.73,100.8c.07.44.38.47.7.06a2.33,2.33,0,0,0,.47-1.54c-.07-.44-.39-.47-.71-.06A2.32,2.32,0,0,0,156.73,100.8Z"/><path class="cls-1" d="M156.65,96.67c.26-.45.13-.77-.28-.71a1.54,1.54,0,0,0-.66.32,10.71,10.71,0,0,0-.3,1.31h0A2,2,0,0,0,156.65,96.67Z"/><path class="cls-1" d="M164.29,97.59c.4-.26.47-.66.17-.89a1.14,1.14,0,0,0-1.25,0c-.39.26-.47.66-.17.89A1.16,1.16,0,0,0,164.29,97.59Z"/><path class="cls-1" d="M161.31,100.48a1.2,1.2,0,0,0-.6-1.13c-.34-.13-.64.15-.65.63a1.19,1.19,0,0,0,.59,1.12C161,101.24,161.29,101,161.31,100.48Z"/><path class="cls-1" d="M158.47,100a1.77,1.77,0,0,0,.07,1.46c.23.32.56.18.75-.31a1.77,1.77,0,0,0-.08-1.46C159,99.4,158.65,99.54,158.47,100Z"/><path class="cls-1" d="M163.14,98.89a1,1,0,0,0-1-.59.59.59,0,0,0-.46.84,1,1,0,0,0,1,.58A.57.57,0,0,0,163.14,98.89Z"/><path class="cls-1" d="M163.77,92.33a2.52,2.52,0,0,0,.73-1.47c0-.48-.25-.6-.63-.27a2.49,2.49,0,0,0-.73,1.47C163.11,92.54,163.39,92.66,163.77,92.33Z"/><path class="cls-1" d="M158.46,91.4a1,1,0,0,0,.65.48c.38.05.64-.28.58-.73a1.16,1.16,0,0,0-.33-.64A10.77,10.77,0,0,0,158.46,91.4Z"/><path class="cls-1" d="M164.85,92.3a2.23,2.23,0,0,0-1.1,1.14c-.2.48,0,.75.4.6a2.23,2.23,0,0,0,1.1-1.14C165.45,92.42,165.27,92.15,164.85,92.3Z"/><path class="cls-1" d="M160.32,89.77l0,.09a1.45,1.45,0,0,0,.31,1.34c.29.25.61,0,.72-.46A1.47,1.47,0,0,0,161,89.4l0,0-.21.11C160.61,89.57,160.47,89.67,160.32,89.77Z"/><path class="cls-1" d="M163.1,93.81a6.34,6.34,0,0,1-2.89,5c-1.6.92-2.9.2-2.9-1.62a6.34,6.34,0,0,1,2.9-5C161.8,91.27,163.1,92,163.1,93.81Z"/><path class="cls-12" d="M161,91.88a2.86,2.86,0,0,0-.8.31,6.34,6.34,0,0,0-2.9,5,2.55,2.55,0,0,0,.27,1.21l2.64-.54c1-.89,1.16-1.91,1.75-3.2Z"/><path class="cls-16" d="M161.08,96.68a9.29,9.29,0,0,0,.51-1.15,10.89,10.89,0,0,1-3-1.78A6.82,6.82,0,0,0,157.49,96,10.06,10.06,0,0,1,161.08,96.68Z"/><path class="cls-17" d="M163.09,95.13A4.52,4.52,0,0,1,161,98.65c-1.13.65-2,.13-2-1.15A4.5,4.5,0,0,1,161,94C162.17,93.33,163.09,93.84,163.09,95.13Z"/><path class="cls-14" d="M162.47,95.92a2.42,2.42,0,0,1-1.11,1.9c-.61.35-1.11.08-1.11-.62a2.46,2.46,0,0,1,1.11-1.91C162,94.94,162.47,95.22,162.47,95.92Z"/><path d="M154.57,108.45l-4.33-2.5-.12-.07-.14-.09h0c-1.65-1-2.67-3.14-2.67-6.11,0-6.17,4.4-13.72,9.84-16.85,2.69-1.55,5.13-1.72,6.91-.75v0l-.49-.28v0c-1.78-1-4.22-.79-6.91.76-5.43,3.13-9.84,10.67-9.84,16.85,0,3,1,5.06,2.67,6.11h0l.14.08.13.07,4.81,2.78Z"/><path d="M154.57,108.45l-2.12-1.23-.12-.07-.15-.08h0c-1.66-1-2.68-3.15-2.68-6.11,0-6.18,4.41-13.72,9.85-16.85,2.69-1.55,5.13-1.73,6.91-.76h0l-.48-.29v0c-1.78-1-4.22-.79-6.91.76C153.43,87,149,94.5,149,100.67c0,3,1,5.06,2.68,6.11h0l.15.08.12.07,2.61,1.51Z"/><path class="cls-18" d="M65.42,133.72l-11,6.29-9.09.15S57.58,130.35,61.29,126l3.42,2.92Z"/><path class="cls-19" d="M45.35,140.16l.76,20s11.15-6.2,11.26-6.22a1.22,1.22,0,0,1,.47,0c.72-6.31,5.18-13.4,10.57-16.51,2.56-1.47,4.9-1.82,6.77-1.14,2.12.77,3.54,2.88,3.83,6,0,.35,0,.72,0,1.1a16.18,16.18,0,0,1-.35,3.17l1.39-.8,41.22-25.53,3-1,24.57-12.51,1.94-.73a12,12,0,0,1-.36-2.94c0-.28,0-.58,0-.9.41-6.52,5-14.09,10.64-17.34,4.22-2.45,7.91-1.74,9.62,1.36a1,1,0,0,1,.68.56c.65,1.2.46,2.5.49,3.82a26.39,26.39,0,0,1-.44,3.53c1.58-.87,12.13-7,12.13-7V66.57a1,1,0,0,0-.41-.9l-.21-.09c-.44-.16-22.1,12.21-22.78,12.3-1.29.19-2.84,4.09-3.75,3.17a3.49,3.49,0,0,0-.52-.49l0,0-2.26,1.33-57,23.6h0l-.22.09c-.09.07-.2.12-.33.21-2.2,1.25-6.31,3.35-7.31,3.12a.6.6,0,0,1-.16-.08l-25,19.06L61.29,126Z"/><path class="cls-20" d="M7.76,118.83l0,2.07L8,131.46l0,2.12L8.47,138l37.64,22.1L45.46,141a5.14,5.14,0,0,0-2.57-4.27l-33-19.14A1.4,1.4,0,0,0,7.76,118.83Z"/><path class="cls-21" d="M33.65,153.15l-3.3-1.94-14.47-10.1s-.93-13.37-.81-17.82c.11-4.23,17.26,8.78,17.26,8.78a3.08,3.08,0,0,1,.27-1l1.46.84a5.15,5.15,0,0,1,2.56,4.28l.59,17.22Z"/><path class="cls-19" d="M79.05,143.38a16.77,16.77,0,0,1-.34,3.17l1.38-.8,68.74-39,2-.73a11.16,11.16,0,0,1-.38-3c0-.29,0-4.9.06-5.21L79,138C79.06,138.34,79.05,143,79.05,143.38Z"/><path class="cls-19" d="M79.05,144.17c0-.38,0-5,0-5.38l71.44-40.12c0,.27-.05,4-.06,5a.91.91,0,0,0-.39.6,5.73,5.73,0,0,0,0,2l-1.17.52-68.74,39-1.38.79A9.77,9.77,0,0,0,79.05,144.17Z"/><path class="cls-22" d="M159.53,82.54c5-2.89,10.23-1.43,12.11,2.39-.77-.58-2.49-1.63-3.2-2.16a2,2,0,0,0-2.54-.06c-1.73-.39-2.3.21-4.59,1.52-5.88,3.39-12.17,11.32-12.17,18a11.38,11.38,0,0,0,.09,1.47c.06.47-.5,2.62-.4,3.05,0,0,.46-5.55.46-6.38A19.72,19.72,0,0,1,159.53,82.54Z"/><path class="cls-23" d="M148.64,104.42a13.28,13.28,0,0,0,.19,2.34l2-.73a9.21,9.21,0,0,1-.25-1.33,11.6,11.6,0,0,1-.1-1.48c0-6.69,4.78-14.86,10.66-18.25,2.58-1.48,4.94-1.8,6.78-1.13,2.37.85,3.88,3.34,3.88,7.1a16.79,16.79,0,0,1-.34,3.18l1.39-.8a18.77,18.77,0,0,0,.25-3c0-7.66-5.47-10.72-12.22-6.84S148.64,96.77,148.64,104.42Z"/><path class="cls-22" d="M48.25,159.26a4.65,4.65,0,0,1-4.42-.09L5.68,137.6l0-1.93a2.5,2.5,0,0,1,.7-1.79l1.6-1.62.27,2.86,35.62,20.14a4.65,4.65,0,0,0,4.42.08L58,150.09l-.71,4.28Z"/><path class="cls-24" d="M48.25,160.91a4.65,4.65,0,0,1-4.42-.08L7.77,140.44a4.2,4.2,0,0,1-2.13-3.57l0-1.57,38.22,21.62a4.65,4.65,0,0,0,4.42.08L58,151.75,57.25,156Z"/><path class="cls-22" d="M54.52,151.88A21.47,21.47,0,0,1,56.35,146c2.65-5.82,4.74-7.91,9.61-10.71,3.28-1.89,7.91-3.26,10.88-1,2,1.54,2.71,3.1,3.35,6.39-3.44-8.2-9.09-5.37-13.79-2.66A20.84,20.84,0,0,0,59,146c1.32-.91-1.67,7.33-1.67,7.33l-1,.22c-.15.91,1.17.63,1.17,1.51,0,.46-.61-3.3-1-2.74Z"/><path class="cls-23" d="M57.74,155.78c-.59.38-1.2.74-1.82,1.07,0-7.66,5.47-17,12.21-20.9s12.22-.82,12.22,6.85a18.78,18.78,0,0,1-.26,2.95l-1.38.8a16.77,16.77,0,0,0,.34-3.17c0-3.77-1.51-6.26-3.88-7.11-1.84-.67-4.2-.34-6.78,1.13-5.88,3.39-10.66,11.56-10.66,18.25C57.73,155.69,57.74,155.73,57.74,155.78Z"/><path class="cls-5" d="M20.76,102.61,33.9,68.81l40,23.45L70.52,103l-7.65,21.33L61.29,126h0c-.85,1.46-10.6-2.6-21.79-9.06S19.92,104.07,20.76,102.61Z"/><path class="cls-25" d="M22.78,102c2.47,2.71,9.33,7.58,17.8,12.47s16.17,8.42,19.74,9.19c-.58.71-1.15,1.43-1.69,2.17l-.11.15c-3.8-1-11-4.4-19-9-9-5.22-16.26-10.42-18.25-13A14.53,14.53,0,0,0,22.78,102Z"/><path class="cls-26" d="M30.65,107.43c2.33,1.62,5.14,3.42,8.4,5.35l1.52-1.55,3.48-3.54.25-.26,1.1.62,7.73,4.57-5.05,5.14.73.37c1.16.6,2.25,1.12,3.28,1.6l1.67.77.24.1c.44.18.85.37,1.27.55h0l.72.29.11,0c.58.22,1.14.44,1.63.61l.72.26a18.13,18.13,0,0,0,1.87.5c.11,0,.24,0,.33,0l.37,0h.07l2.41-4.15L71.9,95l-5.69-3.29-.43-.25s0,0,0,0L52.89,84l-1.75-1-2.52-1.46-.25-.14L30.1,94.89l-1.8,1.4,5.36,2.08,1.26.49,2.69,1.49Z"/><path class="cls-26" d="M24.68,94.89l8.91-22.43,2.52,1.87-2.22,1.28L28.2,94.77l.06.93,0,.59-.14-.05-.45,0-4.83,4.91a3.08,3.08,0,0,1-.31-.46Z"/><path class="cls-27" d="M25.36,95.86l1.28.45,1.07,0,.45,0,.14.05.88-.68.31.11,4.18,2.65,1.25.49,2.69,1.49,4.27,2.36,1,1.94,1.4,2.77,0,0,1.09.61,7.74,4.58,10.41,6.16-2.4,4.15h-.08l-.37,0a2.21,2.21,0,0,1-.33,0,17.15,17.15,0,0,1-1.86-.51l-.73-.25c-.5-.17-1.05-.38-1.64-.61l-.08,0h0l-.72-.29h0L54,120.6l-.22-.1c-.54-.24-1.11-.5-1.69-.78q-1.53-.7-3.27-1.59c-.24-.11-.48-.24-.72-.36h0c-2.25-1.15-4.72-2.49-7.35-4q-.87-.49-1.68-1c-3.26-1.92-6.07-3.72-8.4-5.33-4.16-2.84-6.82-5.09-7.77-6.27a3.08,3.08,0,0,1-.31-.46Z"/><path class="cls-25" d="M22.57,100.71a2.15,2.15,0,0,0,.32.46c.93,1.19,3.6,3.43,7.76,6.26,2.33,1.62,5.14,3.42,8.4,5.35.26.14.51.3.76.46s.6.35.92.52.57.33.85.49c2.31,1.33,4.5,2.5,6.5,3.51l.73.37c1.16.6,2.25,1.12,3.28,1.6l1.67.77.24.1c.44.18.85.37,1.27.55h0l.72.29h0s0,0,.08,0c.58.22,1.14.44,1.63.61l.72.26a18.13,18.13,0,0,0,1.87.5c.11,0,.24,0,.33,0l.37,0h.07l.5-.83h-.08a1.71,1.71,0,0,1-.37,0,1.56,1.56,0,0,1-.33,0,14.74,14.74,0,0,1-1.85-.5l-.74-.25c-.49-.18-1-.38-1.63-.62,0,0-.07,0-.08,0h0c-.24-.08-.48-.19-.72-.28l0,0-1.27-.55-.24-.1-1.67-.77c-1-.48-2.12-1-3.28-1.6l-.71-.36h0c-2.06-1-4.29-2.25-6.65-3.6-.24-.14-.47-.26-.71-.41l-1.06-.61c-.21-.11-.41-.24-.62-.37q-4.89-2.89-8.4-5.34c-4.16-2.84-6.81-5.08-7.76-6.27a2,2,0,0,1-.32-.46Z"/><path class="cls-28" d="M33.89,75.61l2.22-1.28,12,6.92h0l.25.15-2.68,4.84-17.38,10,0-.59-.06-.93Z"/><polygon class="cls-3" points="85.55 92.56 71.18 100.79 63.29 123.29 91.78 107.43 85.55 92.56"/><polygon class="cls-3" points="86.45 93.87 91.11 109.64 89.08 109.47 84.88 94.77 86.45 93.87"/><polygon class="cls-3" points="90.42 91.56 95.99 105.83 91.11 109.64 86.45 93.87 90.42 91.56"/><polygon class="cls-3" points="90.41 91.55 95.98 105.82 95.98 105.84 96.31 105.65 96.53 105.52 96.55 105.52 183.55 56.2 183.55 56.18 183.36 32.4 183.34 30.3 92.77 79.61 92.48 81.03 90.41 91.55"/><polygon class="cls-19" points="92.33 121.95 160.19 80.14 160.99 79.69 183.23 66.75 183.55 66.57 183.55 56.18 96.31 105.61 96.31 105.65 92.33 121.95"/><path class="cls-29" d="M36.32,61.58,142.73,0l40.61,23.49L76.43,85.38S35.46,62,36.32,61.58Z"/><polygon class="cls-5" points="36.32 61.58 76.44 85.38 73.86 92.26 33.9 68.81 36.32 61.58"/><polygon class="cls-19" points="73.86 92.26 88.67 92.56 90.41 91.55 102.13 84.78 183.39 33.87 183.36 32.4 183.34 23.49 76.43 85.38 73.86 92.26"/><polygon class="cls-19" points="54.58 133.39 183.55 62.09 183.55 56.18 183.36 28.8 73.96 91.94 71.73 98.98 71.38 100.07 70.16 103.9 62.87 124.32 54.58 133.39"/><path class="cls-25" d="M51.1,126.31l.92-.62c.47-.32.47-.77,0-1l-6.84-3.15a3,3,0,0,0-3,.5l-.59.54a.48.48,0,0,0,.11.87l6.62,3.14A3,3,0,0,0,51.1,126.31Z"/><polygon class="cls-22" points="176.83 94.68 190.9 86.56 183.55 82.29 183.55 86.38 172.93 92.43 176.83 94.68"/><polygon class="cls-23" points="190.9 87.56 176.83 95.68 176.83 94.68 190.9 86.56 190.9 87.56"/><polygon class="cls-24" points="176.83 95.68 172.92 93.42 172.93 92.43 176.83 94.68 176.83 95.68"/><polygon class="cls-22" points="80.99 147.9 152.82 106.54 150.62 105.28 78.67 146.59 80.99 147.9"/><polygon class="cls-23" points="152.82 107.53 80.99 148.9 80.99 147.9 152.82 106.54 152.82 107.53"/><polygon class="cls-24" points="80.99 148.9 78.22 147.22 78.22 146.23 80.99 147.9 80.99 148.9"/><path class="cls-30" d="M57.82,135a3.68,3.68,0,0,1-1.67,2.87c-.92.53-1.67.11-1.67-.94a3.66,3.66,0,0,1,1.67-2.86C57.07,133.58,57.82,134,57.82,135Z"/><path class="cls-31" d="M56.62,133.92a1.66,1.66,0,0,0-.47.19A3.66,3.66,0,0,0,54.48,137a1.58,1.58,0,0,0,.15.7l1.53-.32a4.49,4.49,0,0,0,1-1.85Z"/><path class="cls-32" d="M56.66,136.7A5,5,0,0,0,57,136a6.46,6.46,0,0,1-1.76-1,4,4,0,0,0-.61,1.29A6,6,0,0,1,56.66,136.7Z"/><path class="cls-33" d="M57.82,135.81a2.6,2.6,0,0,1-1.19,2c-.65.38-1.18.08-1.18-.66a2.62,2.62,0,0,1,1.18-2C57.29,134.76,57.82,135.06,57.82,135.81Z"/><path class="cls-25" d="M11.87,144.62a2.05,2.05,0,0,1-1-1.56v-2.77c0-.55.45-.74,1-.42l7.32,4.22a2.09,2.09,0,0,1,1,1.56v2.78c0,.54-.45.73-1,.42Z"/><path class="cls-34" d="M11.87,144.06a2.05,2.05,0,0,1-1-1.56v-2.78c0-.54.45-.73,1-.41l7.32,4.22a2.09,2.09,0,0,1,1,1.56v2.78c0,.54-.45.73-1,.42Z"/><path class="cls-35" d="M20,145a1.65,1.65,0,0,0-.8-1.24l-7.32-4.23c-.43-.25-.79-.1-.8.33Z"/><path class="cls-35" d="M11.07,142.63a1.68,1.68,0,0,0,.8,1.24l7.32,4.23c.44.25.79.1.8-.32Z"/><path class="cls-36" d="M126.73,104.81,145.38,94l.42-.24,0,9.35-18.65,10.77-.41.24Zm18.51-10-18,10.37v8.08l17.95-10.37Z"/><path class="cls-36" d="M102.77,118.36l18.65-10.76.42-.24,0,9.36-18.65,10.76-.42.24Zm18.51-10-18,10.36v8.08l18-10.36Z"/><path class="cls-25" d="M17.18,131.48a1.84,1.84,0,0,1-.89-1.39l-.12-1.36c0-.49.4-.66.89-.37l17.26,10a1.84,1.84,0,0,1,.89,1.4l.11,1.35c0,.49-.39.66-.88.38Z"/><path class="cls-25" d="M17.59,136.92a1.86,1.86,0,0,1-.89-1.4l-.11-1.36c0-.48.39-.65.88-.37l17.26,10a1.84,1.84,0,0,1,.89,1.4l.12,1.35c0,.49-.4.66-.89.38Z"/><path class="cls-37" d="M16.18,128.73l.11,1.35a1.87,1.87,0,0,0,.88,1.41l17.27,10c.49.28.89.11.89-.37v0a1.63,1.63,0,0,1-.25-.1L17.83,131a1.81,1.81,0,0,1-.88-1.39l-.13-1.33A.46.46,0,0,0,16.18,128.73Z"/><path class="cls-37" d="M16.59,134.16l.11,1.36a1.86,1.86,0,0,0,.89,1.4l17.27,10c.48.28.88.11.88-.37v0a.8.8,0,0,1-.23-.11l-17.27-10a1.87,1.87,0,0,1-.88-1.41l-.12-1.33A.47.47,0,0,0,16.59,134.16Z"/><path class="cls-34" d="M27.51,138.39a4.21,4.21,0,0,0-1.88-3.4,1.66,1.66,0,0,0-1.52-.2,1.4,1.4,0,0,0-.58,1.25,4.39,4.39,0,0,0,2,3.45C26.6,140.14,27.5,139.65,27.51,138.39Z"/><path class="cls-36" d="M67.48,119.91l1.21,3,.45,8.49,4.7-2.21,9.23,5.16,7.42-4.41.28-41.82c.24-.08.43-.44.68-.52l0,42.54L83,135l-9.26-5.19-5.22,2.45-.48-9.35L67,120.2Z"/><path class="cls-36" d="M90.77,88.07c.24-.08.43-.44.68-.52l0,27.89-.83.47Z"/><path class="cls-38" d="M68.3,128.83l-.22-5.89L67,120.2l.53-.29,1.21,3,.21,5.62Z"/><path class="cls-36" d="M73.78,129.84l-5.22,2.45-.48-9.35L67,120.2l.53-.29,1.21,3,.45,8.49,4.7-2.21,4.54,2.54-.65.37Z"/><polygon class="cls-39" points="72.64 101.17 88.88 91.72 88.88 109.67 74.53 117.44 67.85 121.43 67.51 116.37 72.64 101.17"/><path class="cls-1" d="M67.11,119.31c.23-1.58-.16-4.07,1.15-5.28a1.82,1.82,0,0,1,1.35-.3c.57,0,1.13,0,1.7,0a2.57,2.57,0,0,1,1.73.71c1,.87.66,2.86.56,4-.12,1.51-.36,3-.53,4.51a9,9,0,0,1-.46,2.29c-.51,1.21-1.92,1.43-3.08,1.47a2.08,2.08,0,0,1-1.74-.59,1.57,1.57,0,0,1-.34-1.23c0-.62,0-1.26,0-1.88a1.2,1.2,0,0,0,0-.5.21.21,0,0,0-.07-.13.31.31,0,0,0-.19,0,4.26,4.26,0,0,0-1.4.69,2.27,2.27,0,0,1-1.44.41.42.42,0,0,1-.19-.09.4.4,0,0,1-.09-.2,3.7,3.7,0,0,1,.76-3.21c.54-.66,1.27-.58,2-.54H67a.2.2,0,0,0,.11,0A.17.17,0,0,0,67.11,119.31Z"/><polygon class="cls-36" points="71.38 100.07 91.33 88.56 91.33 87.66 71.73 98.98 71.38 100.07"/><path class="cls-25" d="M88.07,114.5A3.44,3.44,0,0,1,90.65,111l0,11.6-1,.28c-.9.25-1.52.78-1.52-1.51C88.14,121.33,88,117.79,88.07,114.5Z"/><polygon class="cls-40" points="51.88 124.21 52.3 124.49 48.71 127.14 48.12 126.95 51.88 124.21"/><polygon class="cls-40" points="50.51 123.5 50.92 123.79 47.34 126.44 46.74 126.25 50.51 123.5"/><polygon class="cls-40" points="49.13 122.8 49.55 123.08 45.96 125.73 45.37 125.55 49.13 122.8"/><polygon class="cls-40" points="47.76 122.09 48.17 122.38 44.58 125.03 43.99 124.84 47.76 122.09"/><polygon class="cls-40" points="46.28 121.47 46.69 121.75 43.1 124.41 42.51 124.22 46.28 121.47"/><polygon class="cls-40" points="44.51 121.05 44.92 121.33 41.34 123.98 40.74 123.8 44.51 121.05"/><path class="cls-25" d="M30.06,114.35l.8-.52a.58.58,0,0,0,0-1l-6-4.23a2.22,2.22,0,0,0-2.58.1l-.52.48a.56.56,0,0,0,.1.92l5.78,4.2A2.28,2.28,0,0,0,30.06,114.35Z"/><polygon class="cls-40" points="30.74 112.27 31.1 112.63 27.96 114.87 27.45 114.6 30.74 112.27"/><polygon class="cls-40" points="29.54 111.34 29.9 111.7 26.76 113.95 26.25 113.67 29.54 111.34"/><polygon class="cls-40" points="28.33 110.42 28.7 110.77 25.56 113.02 25.05 112.74 28.33 110.42"/><polygon class="cls-40" points="27.13 109.49 27.5 109.85 24.36 112.1 23.84 111.82 27.13 109.49"/><polygon class="cls-40" points="25.84 108.64 26.2 108.99 23.07 111.24 22.55 110.96 25.84 108.64"/><polygon class="cls-40" points="24.29 107.95 24.66 108.31 21.52 110.55 21.01 110.28 24.29 107.95"/><polygon class="cls-5" points="40.64 135.3 12.88 119.2 11.76 120.11 41.17 136.9 42.01 136.2 40.64 135.3"/><polygon class="cls-41" points="12.42 119.06 11.76 120.11 12.88 119.2 12.42 119.06"/><path class="cls-42" d="M37.69,140.29l.22,6.25a4.26,4.26,0,0,0,2.25,3.62l4,2.15a3.36,3.36,0,0,0,3.37-.12,2.12,2.12,0,0,0,.95-1.76v-7.86A1,1,0,0,0,47,141.7a3.42,3.42,0,0,1-1.63.43h0a3.19,3.19,0,0,1-1.64-.45l-4.23-2.46a1.21,1.21,0,0,0-.63-.16A1.19,1.19,0,0,0,37.69,140.29Z"/><path class="cls-43" d="M37.69,140.29l.22,6.25a4.2,4.2,0,0,0,.41,1.69l1.47-.44L45.88,151l2.6-.87v-7.54A1,1,0,0,0,47,141.7a3.42,3.42,0,0,1-1.63.43h0a3.19,3.19,0,0,1-1.64-.45l-4.23-2.46a1.21,1.21,0,0,0-.63-.16A1.19,1.19,0,0,0,37.69,140.29Z"/><path class="cls-37" d="M44.66,150.85l-5-2.83a1.69,1.69,0,0,1-.8-1.27V144c0-.44.36-.59.8-.33l5,2.83a1.66,1.66,0,0,1,.81,1.27v2.77C45.47,151,45.11,151.11,44.66,150.85Z"/><path class="cls-37" d="M38.86,139.06v2.53a1.64,1.64,0,0,0,.81,1.26l5,2.83c.44.26.8.12.8-.33v-2.78a.9.9,0,0,0-.11-.44,3.19,3.19,0,0,1-1.64-.45l-4.23-2.46A1.21,1.21,0,0,0,38.86,139.06Z"/><path class="cls-33" d="M45.89,142.43V151s1.73-.45,1.78-.81,0-8.17,0-8.17Z"/><path class="cls-42" d="M7.81,120.9l.06,3.15,0,.9L8,129.3l0,2.16.07.07a2.61,2.61,0,0,0,.61.41l2.8,1.5,1.37.81a1.37,1.37,0,0,0,.63.16h0a1.22,1.22,0,0,0,1.14-1.24l-.23-6.25a4.55,4.55,0,0,0-.47-1.83,4.21,4.21,0,0,0-1.17-1.38,3.18,3.18,0,0,0-.6-.41l-2.8-1.5L8,121Z"/><path class="cls-43" d="M7.87,124.05l-.06-3.15L8,121l1.38.81,2.8,1.5a3.18,3.18,0,0,1,.6.41A4.21,4.21,0,0,1,14,125.09a4.55,4.55,0,0,1,.47,1.83l.23,6.25a1.16,1.16,0,0,1-.26.75l-1.25-1.65-5.2-3L7.89,125Z"/><path class="cls-37" d="M7.89,125,8,129.3l.2.14,5,2.83c.45.25.81.11.81-.33v-2.78a1.64,1.64,0,0,0-.81-1.27l-5-2.83A.58.58,0,0,0,7.89,125Z"/><path class="cls-37" d="M7.81,120.9l.06,3.15a3.3,3.3,0,0,0,.3.22l5,2.83c.45.25.81.11.81-.33v-1.68a4.21,4.21,0,0,0-1.17-1.38,3.18,3.18,0,0,0-.6-.41l-2.8-1.5L8,121Z"/><path class="cls-44" d="M181.25,27.19v1.45a.79.79,0,0,1-.38.67l-2.6,1.5a.33.33,0,0,1-.48-.28v-.17L180,29.11a.79.79,0,0,0,.39-.67V27.16l.42-.24A.31.31,0,0,1,181.25,27.19Z"/><path class="cls-45" d="M180.36,27.16v1.28a.79.79,0,0,1-.39.67l-2.18,1.25V29.08a.76.76,0,0,1,.39-.66Z"/><path class="cls-44" d="M130.45,56.36v1.45a.75.75,0,0,1-.38.66l-2.6,1.5a.31.31,0,0,1-.47-.27v-.18l2.17-1.25a.77.77,0,0,0,.39-.66V56.33l.42-.24A.31.31,0,0,1,130.45,56.36Z"/><path class="cls-45" d="M129.56,56.33v1.28a.77.77,0,0,1-.39.66L127,59.52V58.25a.79.79,0,0,1,.38-.67Z"/><path class="cls-44" d="M82.17,84.29v1.45a.76.76,0,0,1-.39.66l-2.6,1.5a.31.31,0,0,1-.47-.27v-.17l2.17-1.26a.76.76,0,0,0,.39-.66V84.26l.42-.24A.32.32,0,0,1,82.17,84.29Z"/><path class="cls-45" d="M81.27,84.26v1.28a.76.76,0,0,1-.39.66l-2.17,1.26V86.18a.79.79,0,0,1,.38-.67Z"/><path class="cls-46" d="M181.25,84.46v1.46a.78.78,0,0,1-.38.66l-2.6,1.5a.32.32,0,0,1-.48-.27v-.18L180,86.38a.77.77,0,0,0,.39-.67V84.44l.42-.25A.32.32,0,0,1,181.25,84.46Z"/><path class="cls-45" d="M180.36,84.44v1.27a.77.77,0,0,1-.39.67l-2.18,1.25V86.36a.77.77,0,0,1,.39-.67Z"/><path class="cls-46" d="M130.45,113.63v1.45a.76.76,0,0,1-.38.67l-2.6,1.5A.32.32,0,0,1,127,117v-.17l2.17-1.25a.79.79,0,0,0,.39-.67V113.6l.42-.24A.31.31,0,0,1,130.45,113.63Z"/><path class="cls-45" d="M129.56,113.6v1.28a.79.79,0,0,1-.39.67L127,116.8v-1.27a.77.77,0,0,1,.38-.67Z"/><path class="cls-46" d="M87.31,138.73v1.45a.76.76,0,0,1-.39.66l-2.6,1.5a.31.31,0,0,1-.47-.27v-.17L86,140.64a.76.76,0,0,0,.39-.66V138.7l.42-.24A.32.32,0,0,1,87.31,138.73Z"/><path class="cls-45" d="M86.41,138.7V140a.76.76,0,0,1-.39.66l-2.17,1.26v-1.28a.79.79,0,0,1,.38-.67Z"/><path class="cls-25" d="M71.09,85.64,70.79,87a.52.52,0,0,0,.25.59l2.29,1.35a.38.38,0,0,0,.53-.24l0-.16L72,87.36a.53.53,0,0,1-.25-.6L72,85.61l-.37-.21A.38.38,0,0,0,71.09,85.64Z"/><path class="cls-47" d="M72,85.61l-.26,1.15a.53.53,0,0,0,.25.6l1.91,1.13.27-1.15a.55.55,0,0,0-.25-.6Z"/><path class="cls-25" d="M36.47,65.19l-.3,1.31a.54.54,0,0,0,.25.6l2.29,1.35a.39.39,0,0,0,.53-.25l0-.15-1.92-1.13a.53.53,0,0,1-.25-.6l.27-1.15L37,65A.39.39,0,0,0,36.47,65.19Z"/><path class="cls-47" d="M37.38,65.17l-.27,1.15a.53.53,0,0,0,.25.6l1.92,1.13.26-1.15a.53.53,0,0,0-.25-.6Z"/></g></g></svg>