<?xml version="1.0" encoding="utf-8"?>
<!-- Generator: Adobe Illustrator 23.0.3, SVG Export Plug-In . SVG Version: 6.00 Build 0)  -->
<svg version="1.1" id="Capa_1" xmlns="http://www.w3.org/2000/svg" xmlns:xlink="http://www.w3.org/1999/xlink" x="0px" y="0px"
	 viewBox="0 0 195 195" style="enable-background:new 0 0 195 195;" xml:space="preserve">
<style type="text/css">
	.st0{opacity:0;}
	.st1{fill:#FAFAFA;}
	.st2{fill:#ED1C24;}
</style>
<title>alerta</title>
<g class="st0">
	<g>
		<g id="otros">
			<image style="overflow:visible;opacity:0.4;enable-background:new    ;" width="195" height="195" xlink:href="23832B61.png" >
			</image>
			<circle class="st1" cx="97.2" cy="87.4" r="81.9"/>
			<path class="st2" d="M97.2,174.7c-48.2,0-87.3-39.1-87.3-87.3S49,0.1,97.2,0.1s87.3,39.1,87.3,87.3c0,0,0,0,0,0
				C184.4,135.6,145.4,174.6,97.2,174.7z M97.2,10.9c-42.3,0-76.5,34.3-76.6,76.5c0,42.3,34.3,76.5,76.5,76.6s76.5-34.3,76.6-76.5
				c0,0,0,0,0,0C173.7,45.2,139.4,10.9,97.2,10.9L97.2,10.9z"/>
			<circle class="st2" cx="97.2" cy="131.8" r="13"/>
			<path class="st2" d="M91.8,30h10.9c4.2,0,7.6,3.4,7.6,7.6v67.5c0,4.2-3.4,7.6-7.6,7.6H91.8c-4.2,0-7.6-3.4-7.6-7.6V37.6
				C84.2,33.4,87.6,30,91.8,30z"/>
		</g>
	</g>
</g>
</svg>
