<svg xmlns="http://www.w3.org/2000/svg" xmlns:xlink="http://www.w3.org/1999/xlink" viewBox="0 0 77.5 118.77"><defs><style>.cls-1{fill:none;}.cls-2{fill:#fff;}.cls-3{fill:#c1e5f1;}.cls-4{fill:#97d3e8;}.cls-5{fill:#b2b2b2;}.cls-6{fill:#6bb3c6;}.cls-7{fill:#dadada;}.cls-11,.cls-8{opacity:0.1;}.cls-9{fill:#e6a871;}.cls-10{fill:#ffbb7d;}.cls-11,.cls-12{fill:#1d1d1b;}.cls-12{opacity:0.3;}.cls-13{fill:#244146;}.cls-14{fill:#f3edeb;}.cls-15{fill:#0a1214;}.cls-16{fill:#335d65;}.cls-17{fill:#589fb0;}.cls-18{fill:#91b3bc;}.cls-19{opacity:0.25;}.cls-20{clip-path:url(#clip-path);}.cls-21{fill:#f2d0b8;}.cls-22{fill:#e5e5e5;}.cls-23{fill:#cbcbcb;}.cls-24{fill:#f2f2f2;}.cls-25{clip-path:url(#clip-path-2);}.cls-26{fill:#f1ccad;}.cls-27{fill:#eec1a6;}.cls-28{clip-path:url(#clip-path-3);}.cls-29{fill:#212426;}.cls-30{fill:#42484d;}.cls-31{fill:#2c3033;}.cls-32{fill:#e1771c;}.cls-33{fill:#e8a126;}.cls-34{clip-path:url(#clip-path-4);}.cls-35{clip-path:url(#clip-path-5);}.cls-36{opacity:0.05;}.cls-37{clip-path:url(#clip-path-6);}.cls-38{fill:#f0c7a3;}.cls-39{fill:#e5aa89;}.cls-40{clip-path:url(#clip-path-7);}.cls-41{clip-path:url(#clip-path-8);}.cls-42{fill:#f1cdb2;}.cls-43{fill:#450000;}.cls-44{fill:#360000;}.cls-45{fill:#590000;}.cls-46{fill:#6e0000;}.cls-47{fill:#edbc2e;}.cls-48{fill:#d06b19;}.cls-49{fill:url(#Degradado_sin_nombre_291);}.cls-50{fill:#cc513b;}.cls-51{fill:#f1725c;}.cls-52{fill:#9d9d9c;}.cls-53{fill:#878787;}.cls-54{fill:#c6c6c6;}.cls-55{fill:#ededed;}</style><clipPath id="clip-path"><path class="cls-1" d="M11.86,82.94a1,1,0,0,0-1.47.13c-1.82,2.28-1,7-1,7h0a1.25,1.25,0,0,0,2.5,0,19.83,19.83,0,0,0,.74-4.43A3.05,3.05,0,0,0,11.86,82.94Z"/></clipPath><clipPath id="clip-path-2"><path class="cls-1" d="M12.19,94.11s.34-.07.31-.75A2.83,2.83,0,0,0,12.19,92l-.3-2a1.26,1.26,0,1,0-2.51,0,20.85,20.85,0,0,0,.15,2.11,1.89,1.89,0,0,0-.15,1.16,1.07,1.07,0,0,0,1,1,15,15,0,0,1,.72,2.49,2.08,2.08,0,0,1-.26.65c-.19.29-.11,1-.17,1.33a5.79,5.79,0,0,0-.08.78s-.11.27,0,.37a.18.18,0,0,0,.22,0s.06.24.48.16a1.07,1.07,0,0,0,.76-.45,3,3,0,0,0,.44-1.2c0-.41-.2-1.18-.2-1.58S12.19,94.11,12.19,94.11Z"/></clipPath><clipPath id="clip-path-3"><path class="cls-1" d="M7.68,105.09h0a1.75,1.75,0,0,1,3.48.25,1.94,1.94,0,0,1,0,.24h0l-.31,1.92-.25,4s.15.82-.15,1.08c0,0,1.58,1,1.82,1.54s.51,1.94-.91,1.83-1.63-1.21-2.47-1.48S7.2,114,7.74,113a14.27,14.27,0,0,1-.23-1.74A33.24,33.24,0,0,1,7.68,105.09Z"/></clipPath><clipPath id="clip-path-4"><path class="cls-1" d="M7.53,100.05c-.07-.38-.41-2.15.28-2.75a3.24,3.24,0,0,1,3-1,.84.84,0,0,1,.84.74,7,7,0,0,1,.17,2.79l-.3,3.92-.36,2h0a1.75,1.75,0,0,1-3.46-.37s0-.1,0-.15l.07-2.6S7.6,100.43,7.53,100.05Z"/></clipPath><clipPath id="clip-path-5"><path class="cls-1" d="M3.87,111.22l.12-3.9.26-1.62a1.75,1.75,0,0,1,3.5,0,1.93,1.93,0,0,1,0,.42h0L7.21,109a30,30,0,0,0-.12,3.21c.12,1-.28,1.26-.28,1.26A4.82,4.82,0,0,0,8,115.49a1.17,1.17,0,0,1,.24,1.11c.08.87-1,.67-1,.67-2.09-.54-2.07-1.93-2.65-2.36a1.12,1.12,0,0,1-.27-1.24l-.24-.09Z"/></clipPath><clipPath id="clip-path-6"><path class="cls-1" d="M4.32,97.54a3.21,3.21,0,0,1,3-1,.84.84,0,0,1,.84.74,7,7,0,0,1,.17,2.79L8,104l-.26,2h0a1.75,1.75,0,0,1-3.47-.28s0,0,0-.08h0v-2.8s-.15-2.14-.22-2.53S3.62,98.14,4.32,97.54Z"/></clipPath><clipPath id="clip-path-7"><path class="cls-1" d="M6,99.3c-.26-.34-.42-.67-.28-.76s.51.37.77.17,0-.53-.27-.64-.39-.45-.68-.77-.75-.3-.74-.83,0-1.82,0-1.82A1.61,1.61,0,0,0,5,93.57a1.44,1.44,0,0,0-.34-.94L4.46,91A1.25,1.25,0,1,0,2,91l.09,1.92A1.59,1.59,0,0,0,2,94.22a1,1,0,0,0,1,.75,19,19,0,0,0,.67,2.66,7,7,0,0,0,.65,1.45c.86,1.36,2.29,1.26,2.45.88S6.29,99.64,6,99.3Z"/></clipPath><clipPath id="clip-path-8"><path class="cls-1" d="M4.41,83.86A1,1,0,0,0,3,84c-1.83,2.28-1,7-1,7H2a1.25,1.25,0,0,0,2.5,0,20.3,20.3,0,0,0,.73-4.43A3,3,0,0,0,4.41,83.86Z"/></clipPath><linearGradient id="Degradado_sin_nombre_291" x1="5015.41" y1="77.08" x2="5021.01" y2="77.08" gradientTransform="translate(-5009.85)" gradientUnits="userSpaceOnUse"><stop offset="0" stop-color="#e1771c"/><stop offset="0.5" stop-color="#dc731b"/><stop offset="1" stop-color="#d06b19"/></linearGradient></defs><title>Recurso 55</title><g id="Capa_2" data-name="Capa 2"><g id="personajes"><polygon class="cls-2" points="7.99 34.27 7.79 105.56 70.79 69.37 70.79 0 9.5 35.15 7.99 34.27"/><path class="cls-3" d="M49.22,32.35v6a2.36,2.36,0,0,0,.75.12c.94,0,1.87-.48,2.79-.26a2.93,2.93,0,0,1,1.73,1.5c.39.69.64,1.45,1.06,2.11a1.21,1.21,0,0,0,.42.45,2.1,2.1,0,0,0,1.09.1,2.38,2.38,0,0,1,1.9.95c.6.83.65,2.06,1.48,2.67s2.09.26,3.08.65c1.53.6,1.84,2.62,2.92,3.87a5.21,5.21,0,0,0,4,1.52h.35V19.89Z"/><polygon class="cls-4" points="61.78 25.09 70.79 19.89 70.79 69.2 61.78 74.4 61.78 25.09"/><path class="cls-4" d="M70.79,19.89V52h-.35a5.21,5.21,0,0,1-4-1.52c-1.08-1.25-3.09-3.47-4.62-4.07-1-.38,0,4.57-1.44,5-1.76.57-.63-7-.84-7.59V34.32L53.85,36.2v1.18a.85.85,0,0,1-1.08.81h0c-.92-.22-1.85.27-2.79.26a2.36,2.36,0,0,1-.75-.12v-6Z"/><path class="cls-4" d="M53.55,36.41a1,1,0,0,1,.3.79c0,1,0,2.16,0,3.21,0,.25-.06.64-.48.64-.24,0-.35-.29-.38-.53-.19-1.65.16-1.9-.2-1.83a.9.9,0,0,0-.09.63c0,.22,0,.48-.24.55s-.46-.21-.48-.46a3.74,3.74,0,0,0,0-.75c-.14,0-.2.16-.2.29l0,1.17a1.07,1.07,0,0,1-.07.44.36.36,0,0,1-.36.22c-.22,0-.29-.32-.31-.54a8,8,0,0,0-.1-1.14c0-.28,0,.21-.5.21s-.42-.8-.46-1c-.15.31.18,1.44-.69,1.42a11,11,0,0,1,0-1.72.43.43,0,0,1,.06-.22.41.41,0,0,1,.17-.15,11.88,11.88,0,0,1,3.09-1.31A1.08,1.08,0,0,1,53.55,36.41Z"/><path class="cls-5" d="M61.07,73.8v.07a.2.2,0,0,1,0-.07Z"/><path class="cls-6" d="M52.86,73.8a2,2,0,0,0,1,1.43.71.71,0,0,0,.17.11,4,4,0,0,0,.66.31,6.72,6.72,0,0,0,4.49,0,4.45,4.45,0,0,0,.66-.31l.17-.1a2.8,2.8,0,0,0,.37-.29l.07-.06.09-.08v0h0l.06-.06.06-.08,0-.05a1,1,0,0,0,.08-.11.59.59,0,0,0,0-.08.24.24,0,0,0,.06-.11l0,0a.78.78,0,0,0,0-.14v0A.19.19,0,0,0,61,74h0l0-.1v0a.2.2,0,0,1,0-.07A2,2,0,0,0,59.87,72a6.46,6.46,0,0,0-5.81,0,2.17,2.17,0,0,0-1.19,1.48A1.3,1.3,0,0,0,52.86,73.8Zm3.37,2.07s0,0,0,0l-.31,0h-.06l-.28,0h0l-.24-.06-.13,0-.26-.08a4.85,4.85,0,0,1-.69-.32l-.2-.12a3.05,3.05,0,0,1-.61-.56,1.84,1.84,0,0,1-.25-.48l0-.09a1.42,1.42,0,0,1,0-.2,1.86,1.86,0,0,1,1.13-1.73,6.08,6.08,0,0,1,5.51,0,1.88,1.88,0,0,1,1.13,1.73l0,.11a1.21,1.21,0,0,1,0,.18.3.3,0,0,1,0,.1,1.53,1.53,0,0,1-.21.37l-.06.08a.46.46,0,0,1-.07.07.23.23,0,0,1-.07.07,2.44,2.44,0,0,1-.42.35l-.19.12a4.05,4.05,0,0,1-.7.32,2.46,2.46,0,0,1-.29.09,3.15,3.15,0,0,1-.44.11h0l-.17,0-.62.08h-1Z"/><path class="cls-7" d="M52.85,73.8l.25,1.73.13,1,.06.37.08.57a1.76,1.76,0,0,0,0,.31l.48,3.38a1.51,1.51,0,0,0,.9,1.25,4.77,4.77,0,0,0,4.35,0A1.49,1.49,0,0,0,60,81.14l.49-3.42,0-.21.09-.65,0-.33L61,74.2a.3.3,0,0,0,0-.1l0-.2,0,.1h0a.19.19,0,0,1,0,.08v0a.78.78,0,0,1,0,.14l0,0a.24.24,0,0,1-.06.11.59.59,0,0,1,0,.08,1,1,0,0,1-.08.11l0,.05-.06.08-.06.06h0v0l-.09.08-.07.06a2.8,2.8,0,0,1-.37.29l-.17.1a4.45,4.45,0,0,1-.66.31,6.72,6.72,0,0,1-4.49,0,4,4,0,0,1-.66-.31.71.71,0,0,1-.17-.11,2,2,0,0,1-1-1.43Z"/><path class="cls-6" d="M53.08,73.8a1.65,1.65,0,0,0,.32.77,3.05,3.05,0,0,0,.61.56l.2.12a4.85,4.85,0,0,0,.69.32,6.46,6.46,0,0,0,4.12,0,4.05,4.05,0,0,0,.7-.32l.19-.12a2.64,2.64,0,0,0,.62-.57,1.58,1.58,0,0,0,.32-.76,1.88,1.88,0,0,0-1.13-1.73,6.08,6.08,0,0,0-5.51,0A1.86,1.86,0,0,0,53.08,73.8Z"/><path class="cls-4" d="M53.4,74.57a3.05,3.05,0,0,0,.61.56l.2.12a4.85,4.85,0,0,0,.69.32,6.46,6.46,0,0,0,4.12,0,4.05,4.05,0,0,0,.7-.32l.19-.12a2.64,2.64,0,0,0,.62-.57,2.8,2.8,0,0,0-.81-.68,6.08,6.08,0,0,0-5.51,0A2.68,2.68,0,0,0,53.4,74.57Z"/><path class="cls-6" d="M52.85,73.8l.25,1.73h0c.12,0,.23-.1.28-.22s.15.09.17.18c.1.29,0,.79.23.93s.19-.8.46-.39c.14.21-.06.79.17.91s.19-.19.22-.33,0-.43.23-.32.09,1.12.2,1.67c0,.14.09.29.22.31s.3-.19.33-.37,0-.68.24-.48.07.78.15,1.14c0,.19,0,.37.23.45a.45.45,0,0,0,.52-.26,1.45,1.45,0,0,0,.11-.62c0-.45,0-.9,0-1.35,0-.14,0-.31.19-.34s.36.43.61.39.16-.11.22-.18.16-.15.25-.1.08.28.18.38a.22.22,0,0,0,.31,0,.75.75,0,0,0,.13-.32.43.43,0,0,1,.19-.28l.12,1.36a1,1,0,0,0,.11.46.37.37,0,0,0,.39.2c.21,0,.28-.3.31-.51A8.65,8.65,0,0,0,60,76c0-.1,0-.24.12-.22a.54.54,0,0,1,0,.31c0,.11,0,.24.14.27s.21-.07.26-.16a4.29,4.29,0,0,0,.28-1.44c0-.2.12-.4.15-.6a.3.3,0,0,0,0-.1V74h0a.59.59,0,0,0,0-.19l-.19.1a1.21,1.21,0,0,1,0,.18.3.3,0,0,1,0,.1,1.53,1.53,0,0,1-.21.37l-.06.08a.46.46,0,0,1-.07.07.23.23,0,0,1-.07.07,2.44,2.44,0,0,1-.42.35l-.19.12a4.05,4.05,0,0,1-.7.32,2.46,2.46,0,0,1-.29.09,3.15,3.15,0,0,1-.44.11h0l-.17,0-.62.08h-1l-.28,0-.31,0a5,5,0,0,1-1.46-.45,2.76,2.76,0,0,1-1-.6,2.64,2.64,0,0,1-.59-1.34,1.3,1.3,0,0,0,0,.34Z"/><ellipse class="cls-8" cx="69.32" cy="79.45" rx="8.24" ry="3.63" transform="translate(-10.04 10.02) rotate(-7.71)"/><path class="cls-9" d="M57.67,41.47l-.38-.39a3.48,3.48,0,0,0,.47-.51.53.53,0,0,1,.25-.12c.25,0,.75-.09.8.12s-.65.34-.65.34C58,41.13,57.78,41.35,57.67,41.47Z"/><path class="cls-9" d="M57.76,41.83l-.38-.39a3.48,3.48,0,0,0,.47-.51.53.53,0,0,1,.25-.12c.25,0,.75-.09.8.12s-.65.34-.65.34Z"/><path class="cls-10" d="M57.1,41.37a.57.57,0,0,0,0,.19,1,1,0,0,0,.12.19.21.21,0,0,1,.06.1s0,0,0,.07a.19.19,0,0,0,0,.14s0,0,0,0,.14.15.14.2a.09.09,0,0,1,0,0,.44.44,0,0,0,.21.3,4,4,0,0,0,.81.46l1,.47,0-.09.3-.61L60,42.6l-.17-.18L59.45,42l-.26-.27-.48-.51h-.05l-.09,0A5.62,5.62,0,0,1,58,41l-.39-.18.29-.31h0a2,2,0,0,0,.38-.08.75.75,0,0,0,.2-.1.16.16,0,0,0,.06-.17c0-.2-.5-.16-.76-.12h0a.37.37,0,0,0-.24.12l-.09.1a3.06,3.06,0,0,1-.44.45c-.16.21,0,.34.07.48h0S57.11,41.3,57.1,41.37Z"/><path class="cls-10" d="M58.21,41.36l.94,1.09.25.3.27.3.1-.26.1-.23c0-.05,0-.1,0-.14a5.51,5.51,0,0,1-.18-1.15,1,1,0,0,0-.09-.34,1.27,1.27,0,0,1-.15-.74.25.25,0,0,0-.25-.28h0c-.14,0-.18.25-.18.5v.11a.76.76,0,0,0,0,.15.74.74,0,0,1-.37.53l-.17.08Z"/><path class="cls-11" d="M57.45,41.5c-.12-.09-.23-.19-.34-.29s0,.09,0,.16l.11,0A.72.72,0,0,1,57.45,41.5Z"/><path class="cls-11" d="M57.54,42a1,1,0,0,0-.33-.26.24.24,0,0,1,.06.09.22.22,0,0,1,0,.08A.44.44,0,0,1,57.54,42Z"/><path class="cls-11" d="M57.71,42.45a4.13,4.13,0,0,0-.39-.34c0,.07.14.15.14.2a.09.09,0,0,1,0,0A1.17,1.17,0,0,1,57.71,42.45Z"/><path class="cls-12" d="M69.93,76.39a.83.83,0,0,0,0,1.13l1.08.62A7.9,7.9,0,0,0,72,76.07l-.76.05-.47-.05A.89.89,0,0,0,69.93,76.39Z"/><path class="cls-13" d="M58.1,38.93a.49.49,0,0,1,.58.37l.25,1.22a.76.76,0,0,0,0,.15.74.74,0,0,1-.37.53A5.62,5.62,0,0,1,58,41l-.1-.49-.1-.48-.11-.53A.48.48,0,0,1,58.1,38.93Z"/><path class="cls-10" d="M73.13,61.5v.26h0v.47l-.11.52-.27.41c-.15.17-.3.15-.37,0a.26.26,0,0,1,0-.27l.2-.33.07-.51v-.75h0l.17,0Z"/><path class="cls-8" d="M73.13,61.76h0v.47l-.11.52-.27.41c-.15.17-.3.15-.37,0,.24,0,.38-.16.48-.42a.49.49,0,0,0,.07-.51.74.74,0,0,0,0-.69Z"/><path class="cls-10" d="M73.53,61.72v.64l-.07.59-.33.49c-.16.19-.33.15-.38,0a.25.25,0,0,1,0-.23l.25-.42v-.53l0-.68Z"/><path class="cls-8" d="M73.53,61.93v.43l-.07.59-.33.49c-.16.19-.33.15-.38,0,.26,0,.51-.16.56-.54a.42.42,0,0,0,0-.48.55.55,0,0,0,0-.58Z"/><path class="cls-10" d="M74,62.48l-.1.61-.26.48a.2.2,0,0,1-.32,0,.18.18,0,0,1,0-.19l.18-.44,0-.53,0-.67.5.07V62Z"/><path class="cls-8" d="M74,62.48l-.1.61-.26.48a.2.2,0,0,1-.32,0c.29,0,.37-.23.41-.51a.72.72,0,0,0,.09-.54.55.55,0,0,0,0-.54H74Z"/><path class="cls-10" d="M74.41,61.7a.39.39,0,0,1-.09.22s0,0-.07.06a.46.46,0,0,1-.33.06h-.07a3.81,3.81,0,0,1-.72-.25,1.81,1.81,0,0,1-.37-.23l-.07-.08h0a.1.1,0,0,1,0,0v-.06l.09-.45.38-2,.92.32.11,0,0,.76C74.45,60.36,74.43,61,74.41,61.7Z"/><path class="cls-10" d="M74.41,61.69l-.08.79-.09.46-.21.39a.16.16,0,0,1-.24.05.14.14,0,0,1-.05-.14l.12-.37.08-.38,0-.45v0l.38-.22Z"/><path class="cls-8" d="M72.83,61.41l0,0,0,.1a1.48,1.48,0,0,0,0,.59,3,3,0,0,1-.16.48l.07-.51v-.75h0l.09-.45.18-.44.31,0A1.06,1.06,0,0,1,72.83,61.41Z"/><path class="cls-10" d="M73.23,60.57a1,1,0,0,1-.53.79l-.09.54a.68.68,0,0,1-.23.38.16.16,0,0,1-.22,0,.22.22,0,0,1-.07-.22l.07-.23.11-.45v-.73a1.67,1.67,0,0,1,.68-1V58.9l.31.08A7.06,7.06,0,0,1,73.23,60.57Z"/><path class="cls-8" d="M74.41,61.7l-.08.78-.09.46-.2.39a.18.18,0,0,1-.24.06h0c.2,0,.28-.22.31-.46a.36.36,0,0,0,.09-.4c.1-.18,0-.33-.06-.49a2.14,2.14,0,0,0,0-.27c.07-.45.15-1.35-.27-1.67a1.35,1.35,0,0,0,.13-.83l.11,0,0,.76C74.45,60.36,74.43,61,74.41,61.7Z"/><path class="cls-8" d="M73.23,60.57a1,1,0,0,1-.53.79l-.09.54a.68.68,0,0,1-.23.38.16.16,0,0,1-.22,0c.3,0,.44-.35.44-1A1,1,0,0,0,73.23,60.57Z"/><path class="cls-8" d="M74.19,61.76a2.14,2.14,0,0,1,0,.27.52.52,0,0,1-.22,0h-.07a3.81,3.81,0,0,1-.72-.25,1.81,1.81,0,0,1-.37-.23l-.07-.08C73.14,61.73,73.86,62,74.19,61.76Z"/><path class="cls-14" d="M74.91,52.49a3.69,3.69,0,0,1,.11.93c0,1.47-.3,3.39-.61,6.41-.19.88-2,.86-2,0-.25-3.18.11,1.46-.48-6.19l-.32-2-.12-.8,0-.29-.13-.85L71,47.88c-.36-2,2.38-2.37,2.78-.2l.37,1.57.18.78.06.26.18.77Z"/><path class="cls-15" d="M70,77.52l1.08.62A12.69,12.69,0,0,0,73,79c1,.31,1.53.08,1.62-.4a5.23,5.23,0,0,0-.16-2l-.09-.54L74.17,75,72,74.81h0L72,75h0l.14.85,0,.18H72l-.76.05-.47-.05a.89.89,0,0,0-.81.32A.83.83,0,0,0,70,77.52Z"/><path class="cls-15" d="M64.06,80.66a16.07,16.07,0,0,0,3,1.48,2.42,2.42,0,0,0,1,.12.66.66,0,0,0,.62-.53,5,5,0,0,0-.17-2V78.22l-1-.12-1.29-.16,0,1,0,.28-.93.06-.47-.05a.91.91,0,0,0-.81.32A.83.83,0,0,0,64.06,80.66Z"/><path class="cls-16" d="M65.2,69.53s0,.12,0,.22c.08,1.34.51,7.4.54,8.39a1.16,1.16,0,0,0,.45.78,2.63,2.63,0,0,0,.84.46,2.9,2.9,0,0,0,.57.12,1.86,1.86,0,0,0,.89-.1,1,1,0,0,0,.65-.92c-.29-6.25.11-2.33-.18-8.65l.63-3.31L70,64.26l.89-4.65,0-.15v0l-.85.07H70l-.48,0-2.09.18-.35,0h-.12l-.42,0-.14,0-.25,0,0,.27,0,.18v.24l0,.13v.24l0,.23-.78,8.12A2.62,2.62,0,0,0,65.2,69.53Z"/><path class="cls-16" d="M68.74,59.83l0,.35.52,4.06h0l.29,2.28.27,2.11a41.8,41.8,0,0,0,1.53,6.43,1.39,1.39,0,0,0,.6.75.41.41,0,0,0,.11.07,2.25,2.25,0,0,0,2.23.17,1.15,1.15,0,0,0,.45-1.24c-.17-.83-1-5.68-1.4-7.38l-.2-4.13a1.1,1.1,0,0,0,0-.18,7.72,7.72,0,0,0,.12-1v-.33c0-.06,0-.12,0-.18a11,11,0,0,0,0-1.15c0-.06,0-.12,0-.18s0-.32,0-.47a8.29,8.29,0,0,0-.35-1.55h0l-.61.23-.12,0-.65.24-1.5.56-.54.2Z"/><path class="cls-16" d="M63.85,47.63c.16.74.3,1.45.42,2.15,0,.13,0,.26.07.39l.09.53a2.34,2.34,0,0,0,0,.26c0,.24.07.46.1.69.09.59.17,1.16.24,1.7a62.83,62.83,0,0,0,1.3,6.49,3.12,3.12,0,0,0,.89.07l.45,0a9.49,9.49,0,0,0,3.49-.47,4.29,4.29,0,0,0,2-1.18,5.55,5.55,0,0,0,.27-2.06c0-4.74.35-9.38-.9-10l-.75-.12-1.43-.22a20.87,20.87,0,0,0-2.58.43,14.25,14.25,0,0,1-1.68.61c-.37.11-.74.23-1.17.39Z"/><path class="cls-14" d="M58.29,44.35c.05.32.12.71.22,1.17.16.75.42,1.71.8,2.89.14.42.58.55,1,.75a21.48,21.48,0,0,0,4.07,1.78l.11,0a1.16,1.16,0,0,0,.56,0,1.72,1.72,0,0,0,1-1.82,1.86,1.86,0,0,0-1.29-1.79l0,0c-.4-.16-.73-.28-1-.38a15.07,15.07,0,0,0-1.82-.5c-.52-1.23-1.39-2.92-1.81-3.93a1.2,1.2,0,0,0-1.8.65A5.68,5.68,0,0,0,58.29,44.35Z"/><path class="cls-12" d="M67.45,62.62a4,4,0,0,0,5.2-1.26,3.52,3.52,0,0,1-2.15,2.16A25,25,0,0,0,71,70.64c.34,1.7,1,2.75,1,5.14v0a1.39,1.39,0,0,1-.6-.75,41.8,41.8,0,0,1-1.53-6.43l-.27-2.11.31-2.85A3.59,3.59,0,0,1,67.45,62.62Z"/><path class="cls-12" d="M70.45,56.43a8.37,8.37,0,0,1-.54,3.19,5.4,5.4,0,0,1,1.63-.76c-1.08-2.94-.33-6.28-1.27-9.27A55.76,55.76,0,0,1,70.45,56.43Z"/><path class="cls-14" d="M65.83,46.91a3.09,3.09,0,0,1,1.59,2.89L72.13,49a4.66,4.66,0,0,0-.61-2.89l-1.43-.22a16.63,16.63,0,0,0-2.49.37A16.51,16.51,0,0,1,65.83,46.91Z"/><path class="cls-14" d="M64.27,49.78c0,.13,0,.26.07.39l.09.53a2.34,2.34,0,0,0,0,.26c0,.24.07.46.1.69.09.59.17,1.16.24,1.7a1.08,1.08,0,0,0,.42-.1c.82-.35,1-1.7.76-4.14h0Z"/><path class="cls-13" d="M69.61,41.41l-1.42-1a2,2,0,0,0-2.68-.07c-.21.25-.16.73.42,1l1.23.55Z"/><path class="cls-10" d="M70.14,43.36a6.1,6.1,0,0,1-.31,1.11,2.24,2.24,0,0,1-.66.92,1.69,1.69,0,0,1-1.21.33,1.38,1.38,0,0,1-.39-.09.92.92,0,0,1-.34-.21,1,1,0,0,1-.24-.57h0a.59.59,0,0,1,0-.14,9.39,9.39,0,0,1,.24-3.21,2.38,2.38,0,0,1,.15-.45,1.3,1.3,0,0,1,1.2-.62,2.56,2.56,0,0,1,1.31.51,1.18,1.18,0,0,1,.29.26,3.3,3.3,0,0,1,.18.32A6.8,6.8,0,0,1,70.14,43.36Z"/><path class="cls-11" d="M68.19,44.85l-.12.68a.39.39,0,0,1,0,.14.1.1,0,0,1-.06,0,1.38,1.38,0,0,1-.39-.09.92.92,0,0,1-.34-.21,1,1,0,0,1-.24-.57h0c.36.5.7.18,1-1C68,44.43,68.28,44.28,68.19,44.85Z"/><rect class="cls-10" x="67.47" y="43.42" width="3.45" height="2.67" transform="translate(13.73 105.7) rotate(-80.59)"/><path class="cls-10" d="M70,46a.58.58,0,0,1-.18,1.08,2.09,2.09,0,0,1-1.86-.31.58.58,0,0,1,.18-1.08A2.09,2.09,0,0,1,70,46Z"/><path class="cls-15" d="M67.72,41.83A1.37,1.37,0,0,1,68.14,43c0,.45-.17.89-.21,1.35a1.46,1.46,0,0,0,.41,1.24,1.84,1.84,0,0,0,.89.32c.41.06,1,.13,1.17-.22,2.9-4.68-.22-5.55-.59-5.64a2,2,0,0,0-2.59,1.36C67.2,41.62,67.6,41.73,67.72,41.83Z"/><path class="cls-10" d="M68.27,42.86a.37.37,0,0,0-.34.21,1.61,1.61,0,0,0-.13.49,1.22,1.22,0,0,0,0,.63.28.28,0,0,0,.1.14.23.23,0,0,0,.26,0,.5.5,0,0,0,.13-.22,3.2,3.2,0,0,0,.19-.72.51.51,0,0,0,0-.3A.27.27,0,0,0,68.27,42.86Z"/><path class="cls-16" d="M67.83,39.83a1.83,1.83,0,0,1,1.81-.3c1.11.34,1.89.89,2,2.07a3.33,3.33,0,0,1,0,1c0,.22-.55.3-.77.3-2.85,0-3.7-1.44-3.65-1.61A6.11,6.11,0,0,1,67.83,39.83Z"/><path class="cls-13" d="M68.16,42.29l-2.23-1,1.4-.31A2,2,0,0,0,68.16,42.29Z"/><path class="cls-3" d="M59.54,34.32a.44.44,0,0,1-.17.39h0a.43.43,0,0,1-.4,0,1.14,1.14,0,0,1-.32-.3,1.31,1.31,0,0,1-.28-.75.44.44,0,0,1,.18-.4.41.41,0,0,1,.42.05,1.29,1.29,0,0,1,.51.61A1.19,1.19,0,0,1,59.54,34.32Z"/><polygon class="cls-3" points="59.37 34.71 59.37 34.71 59.34 34.72 54.88 37.33 54.54 36.74 54.03 35.84 58.52 33.22 59.03 34.12 59.37 34.71"/><path class="cls-17" d="M55.06,36.93a.41.41,0,0,1-.18.39.39.39,0,0,1-.42,0,1.32,1.32,0,0,1-.61-1.05c0-.39.27-.54.61-.35a1.35,1.35,0,0,1,.5.62A1.12,1.12,0,0,1,55.06,36.93Z"/><path class="cls-18" d="M59.54,34.32a.44.44,0,0,1-.17.39h0l-4.46,2.61h0a.41.41,0,0,0,.18-.39,1.12,1.12,0,0,0-.1-.43l3.66-2.13.41-.25.42-.24A1.19,1.19,0,0,1,59.54,34.32Z"/><path class="cls-14" d="M58.13,39.34h0a.13.13,0,0,0,.09-.15L58,38a.66.66,0,0,0-.69-.5l-2.05.19a.34.34,0,0,1-.36-.22l-.36-.94a.13.13,0,0,0-.16-.07.12.12,0,0,0-.07.15l.36.94a.61.61,0,0,0,.62.39l2-.19a.4.4,0,0,1,.43.31L58,39.25A.11.11,0,0,0,58.13,39.34Z"/><path class="cls-12" d="M58.29,44.35c.05.32.12.71.22,1.17.16.75.42,1.71.8,2.89.14.42.58.55,1,.75a21.48,21.48,0,0,0,4.07,1.78l.11,0c0,.24.07.46.1.69.09.59.17,1.16.24,1.7a62.83,62.83,0,0,0,1.3,6.49l0,.27,0,.18v.24l0,.13v.24l0,.23-.78,8.12a2.62,2.62,0,0,0,0,.28s0,.12,0,.22c.08,1.34.51,7.4.54,8.39a1.16,1.16,0,0,0,.45.78,2.63,2.63,0,0,0,.84.46,19.85,19.85,0,0,1-.59-10c-.12-3.28-.28-6.47.55-9.43,0,0,0-.1,0-.15l.11-.33a20.45,20.45,0,0,1-1.92-6.18,18.48,18.48,0,0,1-.2-2.32c0-.28,0-.55,0-.82a4.23,4.23,0,0,1-.7.06A6.78,6.78,0,0,1,60,48.32,10.1,10.1,0,0,1,58.29,44.35Z"/><polygon class="cls-4" points="49.22 32.35 70.79 20.39 70.79 0 49.2 12.38 49.22 32.35"/><ellipse class="cls-19" cx="7.79" cy="115.13" rx="7.79" ry="3.63"/><g class="cls-20"><path class="cls-21" d="M9.67,90.45A5.75,5.75,0,0,0,9.81,92c.21.72.44,1.44.49,1.62s.32,1,.56,1.7c.09.28.18.55.24.78a2.51,2.51,0,0,1,.13.56.13.13,0,0,1,0,.06,1.71,1.71,0,0,1-.29.81,2.44,2.44,0,0,0-.11.9c0,.22-.13.91-.13.91v.23l-.06.16.06.17.17,0,0,.1.39,0a5.8,5.8,0,0,0,.62-.33,6,6,0,0,0,.5-1.17c0-.07-.15-1.14-.21-1.51,0-.1,0-.4,0-.79,0-1.06-.09-2.86-.08-3.63a7.44,7.44,0,0,0-.2-1.59c-.11-.47-.23-.88-.3-1.12A13,13,0,0,1,11.42,88s-1.32-.53-1.62-.29S9.64,90,9.67,90.45"/><path class="cls-22" d="M12.4,87.34a1.93,1.93,0,0,1,0,.24.49.49,0,0,1,0,.12c-.07.82-.33,1.6-.42,2.43a7.61,7.61,0,0,0,.15,2.07.24.24,0,0,0,0,.08.77.77,0,0,0,0,.15c0,.25.11.5.14.76s0,.24,0,.37c0,.4-.34.35-.65.36h-.13a2.81,2.81,0,0,1-.71-.07,1.43,1.43,0,0,1-.94-.62.94.94,0,0,1-.13-.4c-.1-.49-.18-1-.24-1.48A10,10,0,0,1,9.38,90c0-.47,0-.93,0-1.39s0-1,.08-1.53c0-.16,0-.32,0-.48a11.87,11.87,0,0,1,.42-2.12,6,6,0,0,1,.42-1c.15-.26.25-.57.59-.63h.33a1.19,1.19,0,0,1,.71.53,3.18,3.18,0,0,1,.49,1.39h0s0,.08,0,.12V85c0,.76-.07,1.54-.09,2.31"/><path class="cls-23" d="M12.24,92.62a1.45,1.45,0,0,1,0,.62c-.07.26-.36.44-.57.58l-.16.1a2.81,2.81,0,0,1-.71-.07,1.43,1.43,0,0,1-.94-.62.94.94,0,0,1-.13-.4c-.1-.49-.18-1-.24-1.48A10,10,0,0,1,9.38,90c0-.47,0-.93,0-1.39s0-1,.08-1.53c0-.16,0-.32,0-.48a11.87,11.87,0,0,1,.42-2.12,6,6,0,0,1,.42-1c.15-.26.25-.57.59-.63h.3a1.14,1.14,0,0,0-.31.46,12.59,12.59,0,0,0-.87,3.53.55.55,0,0,0,.09.42.51.51,0,0,0,.32.13l.4.06-.6.25a.16.16,0,0,1,0,.23c-.05.08-.13.12-.19.19s-.11.16-.07.23.35,0,.49.13a1.5,1.5,0,0,1-.37.28,1,1,0,0,0-.32.87c.06.34.53.27.84.3l-.55.46c-.28.26-.18.47-.16.82s0,.61.4.58a.6.6,0,0,0,.42,1.06,1.13,1.13,0,0,0,.81-.36,4.78,4.78,0,0,1,.39-.39s0,0,.06,0,0,0,0,0a2.09,2.09,0,0,1,.14.48"/><path class="cls-23" d="M12.4,87.34a1.93,1.93,0,0,1,0,.24.49.49,0,0,1,0,.12c-.07.82-.33,1.6-.42,2.43a7.61,7.61,0,0,0,.15,2.07,3.9,3.9,0,0,1-.16-.84,5.63,5.63,0,0,0-.11-.81.37.37,0,0,0-.14-.22,1.37,1.37,0,0,0-.35-.08,1,1,0,0,0-.38-.06,1.11,1.11,0,0,0,.63-.26c.08-.07.32-.29.18-.41a.48.48,0,0,0-.24-.06h-.17a1.43,1.43,0,0,0,.73-.83,1.23,1.23,0,0,0,.12-.63c0-.19-.2-.28-.37-.35a.8.8,0,0,1-.44-.27,1.59,1.59,0,0,0,.81,0c-.06-.13-.12-.26-.19-.38s0,0,0,0,.2,0,.21-.11c-.28-.22-.72-.07-1-.27a1.24,1.24,0,0,0,.69,0,1.1,1.1,0,0,0,.48-.81,2.84,2.84,0,0,0,.11-.71c0,.76-.07,1.54-.09,2.31"/><path class="cls-24" d="M12.2,92.19l-.1-.12a1.3,1.3,0,0,1-.38.62,1.46,1.46,0,0,1-.61.3,1.28,1.28,0,0,1-.9-.12,1.13,1.13,0,0,1-.45-.42,1,1,0,0,1-.12-.28,1.45,1.45,0,0,0-.17.72,2.25,2.25,0,0,0,.11.77,1,1,0,0,0,.15.27.92.92,0,0,0,.46.26A3.58,3.58,0,0,0,12.11,94l.13-.07a.69.69,0,0,0,.17-.48,4.29,4.29,0,0,0,0-.72,1.64,1.64,0,0,0-.18-.54"/></g><g class="cls-25"><path class="cls-21" d="M9.68,90.45A5.26,5.26,0,0,0,9.81,92c.21.72.44,1.44.5,1.62s.32,1,.55,1.7c.1.28.18.55.25.78a4.71,4.71,0,0,1,.13.56v.06a1.61,1.61,0,0,1-.29.81,2.67,2.67,0,0,0-.11.9c0,.22-.13.91-.13.91v.23l-.06.16.06.17.16,0,0,.1.39,0a5,5,0,0,0,.61-.33,6.12,6.12,0,0,0,.51-1.17c0-.07-.15-1.14-.21-1.51a6.83,6.83,0,0,1-.05-.79c-.05-1.06-.09-2.86-.09-3.63a7.44,7.44,0,0,0-.2-1.59c-.1-.47-.23-.88-.29-1.12A12.07,12.07,0,0,1,11.42,88s-1.32-.53-1.61-.29S9.64,90,9.68,90.45"/><path class="cls-26" d="M11.49,97.12a1.83,1.83,0,0,0,.07-.32.56.56,0,0,1,.14-.3h0s0,0,0,0a.27.27,0,0,1,.1.19,1.15,1.15,0,0,1-.07.48.72.72,0,0,0,0,.48.85.85,0,0,0,.2.22.52.52,0,0,1,.1.11.66.66,0,0,1,0,.15l.05.29a.38.38,0,0,1,0,.15.58.58,0,0,1,0,.18c-.09.27-.19.55-.31.82a.25.25,0,0,1,0,.07.1.1,0,0,1-.09,0c-.05,0,0-.1,0-.15a2,2,0,0,0,.16-.62.79.79,0,0,0-.21-.71.16.16,0,0,0-.17,0s-.06.1-.08.15a.75.75,0,0,1-.1.17.62.62,0,0,0-.07.19c0,.16-.09.32-.13.48a.3.3,0,0,1,0,.1.1.1,0,0,1-.09,0s0-.07-.06-.11a3.18,3.18,0,0,1,.08-.81c0-.12,0-.25,0-.36a1.69,1.69,0,0,1,.08-.34,4.21,4.21,0,0,0,.34-.52"/><path class="cls-27" d="M11.65,98.43l.07.45a1.21,1.21,0,0,1,0,.33l-.19.36-.27.19-.27.15s.25-.24.27-.39,0-.3,0-.3a4.33,4.33,0,0,1,.07-.51.58.58,0,0,1,.06-.11Z"/><path class="cls-22" d="M12.41,87.34c0,.08,0,.16,0,.24s0,.08,0,.12c-.08.82-.34,1.6-.42,2.43a7.61,7.61,0,0,0,.15,2.07s0,0,0,.08l0,.15c0,.25.1.5.13.76a2.22,2.22,0,0,1,0,.37c0,.4-.34.35-.65.36h-.13a2.81,2.81,0,0,1-.71-.07,1.45,1.45,0,0,1-.95-.62,1.34,1.34,0,0,1-.13-.4c-.09-.49-.17-1-.23-1.48A10,10,0,0,1,9.38,90c0-.47,0-.93,0-1.39s0-1,.08-1.53c0-.16,0-.32,0-.48A11.05,11.05,0,0,1,10,84.5a5.25,5.25,0,0,1,.42-1c.15-.26.24-.57.59-.63h.32a1.13,1.13,0,0,1,.71.53,3.33,3.33,0,0,1,.5,1.39h0v.12a.37.37,0,0,1,0,.11c0,.76-.07,1.54-.09,2.31"/><path class="cls-23" d="M12.25,92.62a1.45,1.45,0,0,1,0,.62c-.06.26-.35.44-.56.58l-.16.1a2.81,2.81,0,0,1-.71-.07,1.45,1.45,0,0,1-.95-.62,1.34,1.34,0,0,1-.13-.4c-.09-.49-.17-1-.23-1.48A10,10,0,0,1,9.38,90c0-.47,0-.93,0-1.39s0-1,.08-1.53c0-.16,0-.32,0-.48A11.05,11.05,0,0,1,10,84.5a5.25,5.25,0,0,1,.42-1c.15-.26.24-.57.59-.63h.29a1.23,1.23,0,0,0-.3.46,12.59,12.59,0,0,0-.87,3.53.48.48,0,0,0,.09.42.51.51,0,0,0,.31.13l.41.06-.6.25c.08,0,.07.16,0,.23s-.13.12-.19.19a.21.21,0,0,0-.06.23c.08.16.34,0,.49.13a1.78,1.78,0,0,1-.38.28,1,1,0,0,0-.32.87c.07.34.54.27.84.3l-.55.46c-.27.26-.18.47-.15.82s0,.61.39.58a.61.61,0,0,0,.43,1.06,1.17,1.17,0,0,0,.81-.36,3.59,3.59,0,0,1,.39-.39,0,0,0,0,1,.05,0s0,0,0,0a2.74,2.74,0,0,1,.14.48"/><path class="cls-23" d="M12.41,87.34c0,.08,0,.16,0,.24s0,.08,0,.12c-.08.82-.34,1.6-.42,2.43a7.61,7.61,0,0,0,.15,2.07,3.39,3.39,0,0,1-.17-.84,4.48,4.48,0,0,0-.1-.81.42.42,0,0,0-.14-.22,1.45,1.45,0,0,0-.36-.08,1,1,0,0,0-.38-.06,1.11,1.11,0,0,0,.63-.26c.09-.07.33-.29.18-.41a.44.44,0,0,0-.23-.06h-.18a1.45,1.45,0,0,0,.74-.83,1.22,1.22,0,0,0,.11-.63c0-.19-.2-.28-.36-.35a.83.83,0,0,1-.45-.27,1.63,1.63,0,0,0,.82,0L12,87s0,0,0,0,.2,0,.2-.11c-.27-.22-.72-.07-1-.27a1.24,1.24,0,0,0,.69,0,1.11,1.11,0,0,0,.49-.81A2.84,2.84,0,0,0,12.5,85c0,.76-.07,1.54-.09,2.31"/><path class="cls-24" d="M12.2,92.19l-.09-.12a1.47,1.47,0,0,1-.38.62,1.58,1.58,0,0,1-.61.3,1.28,1.28,0,0,1-.9-.12,1.1,1.1,0,0,1-.46-.42,1.36,1.36,0,0,1-.11-.28,1.35,1.35,0,0,0-.17.72,2,2,0,0,0,.11.77.78.78,0,0,0,.14.27,1,1,0,0,0,.47.26A3.6,3.6,0,0,0,12.12,94l.13-.07a.64.64,0,0,0,.16-.48,3.45,3.45,0,0,0,0-.72,1.45,1.45,0,0,0-.19-.54"/></g><g class="cls-28"><path class="cls-29" d="M9.85,112.06a1.31,1.31,0,0,0,.57,1.07c.58.35,1.61,1.16,1.61,1.16a1.84,1.84,0,0,1,.25,1,.93.93,0,0,1-.31.42c-.47.4-1.42.09-1.81-.3a6.66,6.66,0,0,0-.94-.82,6.94,6.94,0,0,0-1.09-.45.65.65,0,0,1-.45-.51,1.08,1.08,0,0,1,.08-.56.71.71,0,0,1,.28-.29l.38-.25.55-.36Z"/><path class="cls-30" d="M8,113.64c.07.21.54.34.72.41a3.59,3.59,0,0,0,.43.14,2.29,2.29,0,0,1,.51.37c.19.16.38.32.55.49a2.07,2.07,0,0,0,1.15.47.71.71,0,0,0,.55-.07,1,1,0,0,0,.42-.53.78.78,0,0,0,0-.16.83.83,0,0,0,0-.22,1.5,1.5,0,0,0-.57-.86,15.57,15.57,0,0,0-1.27-.91,1.27,1.27,0,0,1-.57-1.07l-.89.11-.76.5-.33.21A6.22,6.22,0,0,0,8,113.64"/><path class="cls-31" d="M8,113.64c.07.21.54.34.72.41a3.59,3.59,0,0,0,.43.14,2.29,2.29,0,0,1,.51.37c.19.16.38.32.55.49a2.07,2.07,0,0,0,1.15.47.71.71,0,0,0,.55-.07,1,1,0,0,0,.42-.53.78.78,0,0,0,0-.16c-.2,0-.4.11-.6.15a1.57,1.57,0,0,1-1.24-.28c-.14-.11-.27-.25-.41-.36a4.63,4.63,0,0,0-.73-.39,2,2,0,0,1-.69-.45.85.85,0,0,1-.22-.76.31.31,0,0,0-.2-.36l-.33.21A6.22,6.22,0,0,0,8,113.64"/><path class="cls-32" d="M11.48,96.89a.68.68,0,0,0-.15-.27h0a.47.47,0,0,0-.12-.09c-.88-.58-3.24.15-3.55,1.27,0,.06,0,.13-.05.22a5.72,5.72,0,0,0,0,1.8,18,18,0,0,1,.2,4.1c-.07,1-.15,2.74-.22,3.64a38.12,38.12,0,0,0,.08,4.66c.07.41.11.69.11.69l.08,0a3.93,3.93,0,0,0,.6.19,2.35,2.35,0,0,0,.65,0c.54-.06,1.15-.23,1.31-.83a2.54,2.54,0,0,0,0-.78c0-.65.11-3.35.22-4s.38-1.41.48-2.13c.22-1.6.36-4,.48-5.59,0-.12,0-.23,0-.36s0-.45,0-.68A6.09,6.09,0,0,0,11.48,96.89Z"/><path class="cls-33" d="M9.33,105.88a.78.78,0,0,1-.17-.26,4.72,4.72,0,0,1,.35-2.52,9.79,9.79,0,0,0,.54-1.77,4.43,4.43,0,0,0,.11-1.27s0-2.64-.95-3.54a2.3,2.3,0,0,0-1.56,1.27c0,.06,0,.13-.05.22a5.72,5.72,0,0,0,0,1.8,18,18,0,0,1,.2,4.1c-.08,1.25-.18,3.15-.27,4.22,0,.46,0,3,0,3.43h0c0,.16.05.31.07.47h0c0,.37.1.66.12.79h0a.35.35,0,0,0,.06.09h0L8,113c.13,0,.25-.38.26-.54.08-.77.17-3.59.28-4.35.08-.51,0-1.42.68-1.55a1.89,1.89,0,0,1,.67,0,1.19,1.19,0,0,0,.65-.05A1.81,1.81,0,0,1,9.33,105.88Z"/><path class="cls-8" d="M11.48,96.89a.68.68,0,0,0-.15-.27h0a.47.47,0,0,0-.12-.09,2.52,2.52,0,0,0-2,0h0L9,96.6l-.06,0-.24.11h0l-.23.13h0L8.26,97a.1.1,0,0,0,0,0l-.15.13s0,0,0,0a1.35,1.35,0,0,0-.28.36h0a.9.9,0,0,0-.08.21c0,.06,0,.13-.05.22a5.72,5.72,0,0,0,0,1.8,18,18,0,0,1,.2,4.1c-.08,1.25-.18,3.15-.27,4.22,0,.46,0,3,0,3.43h0c0,.16.05.31.07.47h0l0,.16h0c.07.41.11.69.11.69l0,0h0L8,113H8a3.48,3.48,0,0,0,.53.16,2.35,2.35,0,0,0,.65,0c.54-.06,1.15-.23,1.31-.83a2.54,2.54,0,0,0,0-.78c0-.65.11-3.35.22-4s.38-1.41.48-2.13c.22-1.6.36-4,.48-5.59,0-.12,0-.23,0-.36s0-.45,0-.68A6.09,6.09,0,0,0,11.48,96.89Z"/></g><g class="cls-34"><path class="cls-32" d="M11.48,96.89a.68.68,0,0,0-.15-.27h0a.47.47,0,0,0-.12-.09c-.88-.58-3.24.15-3.55,1.27,0,.06,0,.13-.05.22a5.72,5.72,0,0,0,0,1.8,18,18,0,0,1,.2,4.1c-.07,1-.15,2.74-.22,3.64a38.12,38.12,0,0,0,.08,4.66c.07.41.11.69.11.69l.08,0a3.93,3.93,0,0,0,.6.19,2.35,2.35,0,0,0,.65,0c.54-.06,1.15-.23,1.31-.83a2.54,2.54,0,0,0,0-.78c0-.65.11-3.35.22-4s.38-1.41.48-2.13c.22-1.6.36-4,.48-5.59,0-.12,0-.23,0-.36s0-.45,0-.68A6.09,6.09,0,0,0,11.48,96.89Z"/><path class="cls-33" d="M9.33,105.88a.78.78,0,0,1-.17-.26,4.72,4.72,0,0,1,.35-2.52,9.79,9.79,0,0,0,.54-1.77,4.43,4.43,0,0,0,.11-1.27s0-2.64-.95-3.54a2.3,2.3,0,0,0-1.56,1.27c0,.06,0,.13-.05.22a5.72,5.72,0,0,0,0,1.8,18,18,0,0,1,.2,4.1c-.08,1.25-.18,3.15-.27,4.22,0,.46,0,3,0,3.43h0c0,.16.05.31.07.47h0c0,.37.1.66.12.79h0a.35.35,0,0,0,.06.09h0L8,113c.13,0,.25-.38.26-.54.08-.77.17-3.59.28-4.35.08-.51,0-1.42.68-1.55a1.89,1.89,0,0,1,.67,0,1.19,1.19,0,0,0,.65-.05A1.81,1.81,0,0,1,9.33,105.88Z"/><path class="cls-8" d="M11.48,96.89a.68.68,0,0,0-.15-.27h0a.47.47,0,0,0-.12-.09,2.52,2.52,0,0,0-2,0h0L9,96.6l-.06,0-.24.11h0l-.23.13h0L8.26,97a.1.1,0,0,0,0,0l-.15.13s0,0,0,0a1.35,1.35,0,0,0-.28.36h0a.9.9,0,0,0-.08.21c0,.06,0,.13-.05.22a5.72,5.72,0,0,0,0,1.8,18,18,0,0,1,.2,4.1c-.08,1.25-.18,3.15-.27,4.22,0,.46,0,3,0,3.43h0c0,.16.05.31.07.47h0l0,.16h0c.07.41.11.69.11.69l0,0h0L8,113H8a3.48,3.48,0,0,0,.53.16,2.35,2.35,0,0,0,.65,0c.54-.06,1.15-.23,1.31-.83a2.54,2.54,0,0,0,0-.78c0-.65.11-3.35.22-4s.38-1.41.48-2.13c.22-1.6.36-4,.48-5.59,0-.12,0-.23,0-.36s0-.45,0-.68A6.09,6.09,0,0,0,11.48,96.89Z"/></g><g class="cls-35"><path class="cls-29" d="M4.6,113.2s-.09.21-.09.22a2.13,2.13,0,0,0-.11.33,1.27,1.27,0,0,0,0,.67,2.38,2.38,0,0,0,.51.75A12.17,12.17,0,0,0,6,116.55a2.25,2.25,0,0,0,1.45.62c.84,0,.78-.26.75-.76s-.81-1.22-.95-1.51-.62-1.28-.62-1.28l-.67-.4Z"/><path class="cls-30" d="M4.64,114.06a3.41,3.41,0,0,0,.74,1.5,2.86,2.86,0,0,0,2.07,1.29c.84,0,.78-.26.76-.76h0c0-.5-.8-1.21-.94-1.5l-.63-1.28L6,112.9l-1.36,0a.24.24,0,0,0,0,.08,1.85,1.85,0,0,0,.06,1.1"/><path class="cls-31" d="M4.64,114.06a3.41,3.41,0,0,0,.74,1.5,2.86,2.86,0,0,0,2.07,1.29c.84,0,.78-.26.76-.76H8.15a4.47,4.47,0,0,1-1,.2,1.7,1.7,0,0,1-.94-.19,2.12,2.12,0,0,1-.54-.45,3.47,3.47,0,0,1-.44-.57,2.77,2.77,0,0,1-.27-.67,3.1,3.1,0,0,1-.1-1v-.12a.47.47,0,0,0-.33-.28,1.85,1.85,0,0,0,.06,1.1"/><path class="cls-33" d="M8,97.14a.83.83,0,0,0-.16-.28h0a.47.47,0,0,0-.12-.09c-.9-.59-3.33.15-3.65,1.31,0,.06,0,.13,0,.22a5.47,5.47,0,0,0,0,1.85,25.82,25.82,0,0,1,.2,5c-.07,1.06-.15,2.05-.22,3a35.57,35.57,0,0,0,.08,4.73c.07.42.11.71.11.71l.09,0a3.11,3.11,0,0,0,.62.19,2.42,2.42,0,0,0,.66.05c.56-.06,1.19-.24,1.35-.85a2.75,2.75,0,0,0,0-.81,38.92,38.92,0,0,1,.23-4c.13-.74.38-1.44.48-2.18.23-1.64.37-4.08.5-5.72l0-.37c0-.23,0-.47,0-.71A6.12,6.12,0,0,0,8,97.14Z"/><path class="cls-32" d="M5.82,106.36a.9.9,0,0,1-.17-.26A4.82,4.82,0,0,1,6,103.52a10.52,10.52,0,0,0,.56-1.81,5.15,5.15,0,0,0,.11-1.31s0-2.71-1-3.64A2.34,2.34,0,0,0,4.1,98.07c0,.06,0,.13,0,.22a5.47,5.47,0,0,0,0,1.85,25.82,25.82,0,0,1,.2,5c-.08,1.29-.18,4.53-.27,5.63a6.05,6.05,0,0,0,0,1.41h0c0,.16,0,.32.07.48h0c.06.38.1.68.12.8h0a.22.22,0,0,0,.07.09h0l.06,0c.14,0,.26-.39.28-.55.07-.79.17-1.58.29-2.36.07-.53,0-3.52.7-3.65a2,2,0,0,1,.68,0A1.17,1.17,0,0,0,7,107,1.88,1.88,0,0,1,5.82,106.36Z"/><path class="cls-36" d="M8,97.14a.83.83,0,0,0-.16-.28h0a.47.47,0,0,0-.12-.09,2.6,2.6,0,0,0-2,0h0l-.25.09h0l-.21.1,0,0L5,97.08l-.09,0-.16.11-.06.05-.13.11a.46.46,0,0,0-.07.07.76.76,0,0,0-.09.09l-.08.09-.11.17s0,0,0,0a1.43,1.43,0,0,0-.08.22c0,.06,0,.13,0,.22a5.47,5.47,0,0,0,0,1.85,25.82,25.82,0,0,1,.2,5l-.06.89c0,.09,0,.18,0,.28s0,.39,0,.59l0,.29c0,.22,0,.44,0,.65l0,.28h0c0,.2,0,2.45,0,2.65a6.05,6.05,0,0,0,0,1.41h0c0,.16,0,.32.07.48h0l0,.16h0c0,.12,0,.22.05.32v0l0,.16v0l0,.19.06,0h0l.06,0h0a3,3,0,0,0,.56.16,2.42,2.42,0,0,0,.66.05c.56-.06,1.19-.24,1.35-.85a2.75,2.75,0,0,0,0-.81,38.92,38.92,0,0,1,.23-4c.13-.74.38-1.44.48-2.18.23-1.64.37-4.08.5-5.72l0-.37c0-.23,0-.47,0-.71A6.12,6.12,0,0,0,8,97.14Z"/></g><g class="cls-37"><path class="cls-33" d="M8,97.14a.83.83,0,0,0-.16-.28h0a.47.47,0,0,0-.12-.09c-.9-.59-3.33.15-3.65,1.31,0,.06,0,.13,0,.22a5.47,5.47,0,0,0,0,1.85,25.82,25.82,0,0,1,.2,5c-.07,1.06-.15,2.05-.22,3a35.57,35.57,0,0,0,.08,4.73c.07.42.11.71.11.71l.09,0a3.11,3.11,0,0,0,.62.19,2.42,2.42,0,0,0,.66.05c.56-.06,1.19-.24,1.35-.85a2.75,2.75,0,0,0,0-.81,38.92,38.92,0,0,1,.23-4c.13-.74.38-1.44.48-2.18.23-1.64.37-4.08.5-5.72l0-.37c0-.23,0-.47,0-.71A6.12,6.12,0,0,0,8,97.14Z"/><path class="cls-32" d="M5.82,106.36a.9.9,0,0,1-.17-.26A4.82,4.82,0,0,1,6,103.52a10.52,10.52,0,0,0,.56-1.81,5.15,5.15,0,0,0,.11-1.31s0-2.71-1-3.64A2.34,2.34,0,0,0,4.1,98.07c0,.06,0,.13,0,.22a5.47,5.47,0,0,0,0,1.85,25.82,25.82,0,0,1,.2,5c-.08,1.29-.18,4.53-.27,5.63a6.05,6.05,0,0,0,0,1.41h0c0,.16,0,.32.07.48h0c.06.38.1.68.12.8h0a.22.22,0,0,0,.07.09h0l.06,0c.14,0,.26-.39.28-.55.07-.79.17-1.58.29-2.36.07-.53,0-3.52.7-3.65a2,2,0,0,1,.68,0A1.17,1.17,0,0,0,7,107,1.88,1.88,0,0,1,5.82,106.36Z"/><path class="cls-36" d="M8,97.14a.83.83,0,0,0-.16-.28h0a.47.47,0,0,0-.12-.09,2.6,2.6,0,0,0-2,0h0l-.25.09h0l-.21.1,0,0L5,97.08l-.09,0-.16.11-.06.05-.13.11a.46.46,0,0,0-.07.07.76.76,0,0,0-.09.09l-.08.09-.11.17s0,0,0,0a1.43,1.43,0,0,0-.08.22c0,.06,0,.13,0,.22a5.47,5.47,0,0,0,0,1.85,25.82,25.82,0,0,1,.2,5l-.06.89c0,.09,0,.18,0,.28s0,.39,0,.59l0,.29c0,.22,0,.44,0,.65l0,.28h0c0,.2,0,2.45,0,2.65a6.05,6.05,0,0,0,0,1.41h0c0,.16,0,.32.07.48h0l0,.16h0c0,.12,0,.22.05.32v0l0,.16v0l0,.19.06,0h0l.06,0h0a3,3,0,0,0,.56.16,2.42,2.42,0,0,0,.66.05c.56-.06,1.19-.24,1.35-.85a2.75,2.75,0,0,0,0-.81,38.92,38.92,0,0,1,.23-4c.13-.74.38-1.44.48-2.18.23-1.64.37-4.08.5-5.72l0-.37c0-.23,0-.47,0-.71A6.12,6.12,0,0,0,8,97.14Z"/></g><path class="cls-29" d="M4.25,97.51h0A7.81,7.81,0,0,0,7,97.93a7.34,7.34,0,0,0,.82-.08,13.79,13.79,0,0,0,1.8-.41l.11,0a7.59,7.59,0,0,0,.84-.3,1.59,1.59,0,0,0,.53-.39h0l0-.68-.05,0a.74.74,0,0,0-.33,0l-.87.13c-.58.09-1.16.18-1.74.23a7.55,7.55,0,0,1-2.07-.07,7.31,7.31,0,0,0-1-.19,1.47,1.47,0,0,0-.66.13l0,0c0,.46-.11.91-.14,1.24"/><path class="cls-22" d="M11.78,86.87a24,24,0,0,0-.19,2.4c0,.8-.09,1.59-.12,2.39-.05,1.3-.09,2.61-.06,3.92v.22a1,1,0,0,1-.11.47.9.9,0,0,1-.28.3l-.21.13a6.79,6.79,0,0,1-1.23.55l-.2.07-.22.06h0a6.58,6.58,0,0,1-1.65.24,7,7,0,0,1-1.65-.14l-.56-.14A.78.78,0,0,1,4.86,97a4.91,4.91,0,0,1-.5-1.34A6.63,6.63,0,0,1,4.1,94c0-.44.11-.8.08-1.25,0-.08,0-.15,0-.23-.06-.89-.11-1.78-.12-2.67,0-.23,0-.46,0-.68,0-.77,0-1.53.05-2.3a7.48,7.48,0,0,0,0-1.24,1.46,1.46,0,0,0-.25-.65,3.69,3.69,0,0,0-.5-.45.5.5,0,0,1-.15-.26.55.55,0,0,1,0-.22.44.44,0,0,1,.31-.36c.46-.19.91-.48,1.34-.71a3.67,3.67,0,0,1,.78-.32L6,82.5l.21-.06.29-.07.13,0a1.34,1.34,0,0,1,.4,0l.12,0a1.65,1.65,0,0,0,.73.12,9,9,0,0,1,1.58.11l.81.1.28,0h0a3.33,3.33,0,0,1,.9.51,2.47,2.47,0,0,1,.39,1.12,7.89,7.89,0,0,1-.08,2.52"/><path class="cls-23" d="M9.64,93.32c0,.58,0,1.17,0,1.75s0,1-.1,1.47c0,.14,0,.28-.06.42a2.08,2.08,0,0,1-.06.36s-.12,0-.14,0l-.14,0a3.12,3.12,0,0,0,.08-.65c.06-.45.09-.91.11-1.37s0-1.13.05-1.69V91.82c0-.61,0-1.23,0-1.84s0-1.13-.05-1.69,0-.92-.05-1.38,0-.67,0-1S9.07,85.28,9,85l.19.36a2.86,2.86,0,0,1,.26,1.32c0,.44,0,.87.06,1.31s0,1.1.05,1.65,0,1.22,0,1.83,0,1.25,0,1.88"/><path class="cls-33" d="M11.7,92v1.11c0,.46,0,.93,0,1.39s0,1,0,1.45.06,1.21-.5,1.46l0,0a2.42,2.42,0,0,1-.36.1l-.45.09a1.42,1.42,0,0,1-.53.1c.07-.6.17-1.18.2-1.77,0-.21,0-.41,0-.61s0-.4,0-.6,0-.23,0-.35c0-.52,0-1,.05-1.58,0-.32,0-.64,0-1a.57.57,0,0,0,0-.13c.12-2.47.27-5-.63-7.36l0-.33.18-1c0-.1,0-.23.15-.26a1.22,1.22,0,0,1,.33,0,1.93,1.93,0,0,1,.34,0,.93.93,0,0,1,.41.11,1.52,1.52,0,0,1,.53.51l.09.13a2,2,0,0,1,.29.69,2.71,2.71,0,0,1,.09.57,5.52,5.52,0,0,1,0,1.22c-.15,1.55-.23,3.1-.26,4.65,0,.46,0,.92,0,1.38"/><path class="cls-32" d="M12,85.93a85.17,85.17,0,0,0-.25,10c0,.51.06,1.21-.5,1.46l0,0c0-.7.15-1.39.1-2.09s0-1.64.06-2.45c0-1.31,0-2.62.05-3.93,0-.19,0-.44-.23-.48s-.37,0-.37-.12a1,1,0,0,0,.75-.69,2.85,2.85,0,0,0,.1-1l0-1.14a5.07,5.07,0,0,0-.22-1.56c-.18-.49-.88-1.21-1.41-1.17a3.18,3.18,0,0,1,.62,0,1.08,1.08,0,0,1,.41.11,1.44,1.44,0,0,1,.53.51l.09.13a2,2,0,0,1,.29.69,2.71,2.71,0,0,1,.09.57,5.52,5.52,0,0,1,0,1.22"/><path class="cls-33" d="M8.7,92.15c0,.29,0,.59,0,.89q0,.81,0,1.62l0,.9c0,.76-.09,1.51-.15,2.26a.52.52,0,0,1-.07.25l0,0a.45.45,0,0,1-.21.09,6.24,6.24,0,0,1-3.32-.1A.39.39,0,0,1,4.65,98a.48.48,0,0,1-.12-.26l-.78-3.41c-.1-.47-.21-.94-.31-1.41a17.12,17.12,0,0,1-.35-2.67,25.49,25.49,0,0,1,.4-4.52q.07-.5.18-1h0A.71.71,0,0,0,3.45,84c-.06,0-.13-.11-.11-.18a.16.16,0,0,1,.07-.07,6.52,6.52,0,0,1,2-1,.7.7,0,0,1,.63.07,3.4,3.4,0,0,1,.63.78,9.3,9.3,0,0,1,.81,1.26,9.44,9.44,0,0,1,1,2.81,15.35,15.35,0,0,1,.2,2c0,.84.07,1.68.07,2.52"/><path class="cls-32" d="M8.42,98.07l0,0a.45.45,0,0,1-.21.09,6.24,6.24,0,0,1-3.32-.1A.39.39,0,0,1,4.65,98a.48.48,0,0,1-.12-.26l-.78-3.41c-.1-.47-.21-.94-.31-1.41a4,4,0,0,1,.34-1,1.77,1.77,0,0,0,.3-.93c0-.41,0-.82,0-1.23,0-.23,0-.46,0-.68,0-.77,0-1.53.05-2.3a7.48,7.48,0,0,0,0-1.24,1.46,1.46,0,0,0-.25-.65,1.17,1.17,0,0,0-.19-.2,3.76,3.76,0,0,1-.31-.25.3.3,0,0,1-.14-.25h0a.77.77,0,0,1,0-.3.41.41,0,0,1,.07-.15.35.35,0,0,1,.1-.08c.26-.18.51-.38.78-.54a4.26,4.26,0,0,1,.87-.4c.3-.1.61-.16.92-.25l.13.19L6,82.76l-.8.48a1,1,0,0,0-.32.25c-.26.35,0,.84.2,1.24a4.85,4.85,0,0,1,.21,2.67,1.59,1.59,0,0,0,.11,1.1,1.49,1.49,0,0,0,.9.65A1.76,1.76,0,0,0,7.48,89a3.7,3.7,0,0,1-1.4.48A1.9,1.9,0,0,0,5,90.07a2.76,2.76,0,0,0-.14,1.25,21.62,21.62,0,0,0,.3,3c0,.18,0,.35,0,.53.06.44.16.87.25,1.3a2.86,2.86,0,0,0,.72,1.35,2.13,2.13,0,0,0,1.37.65,4.9,4.9,0,0,0,.94-.08"/><path class="cls-24" d="M9.49,82.48a4.54,4.54,0,0,1,.14,1,1.1,1.1,0,0,1-.17.61,1.16,1.16,0,0,1-.53.42,2.31,2.31,0,0,1,.2.63,1.47,1.47,0,0,0,0,.29c0,.09.11.21.11.3A1.19,1.19,0,0,1,9.61,85c.18-.21.38-.4.55-.63a1.12,1.12,0,0,0-.67-1.85"/><path class="cls-22" d="M11.72,90.58c0,.46,0,.92,0,1.38a4.41,4.41,0,0,1-1.55.81c0-.32,0-.77,0-1.09a2.45,2.45,0,0,0,1.48-1.12Z"/><path class="cls-22" d="M11.71,94.46a4.52,4.52,0,0,1-1.63.84c0-.2,0-.4,0-.6s0-.37,0-.49a2.6,2.6,0,0,0,1.6-1.14h0c0,.46,0,.93,0,1.39"/><path class="cls-22" d="M8.12,87.55c0-.15.05-.45-.17-.46a.59.59,0,0,0-.19,0,4.25,4.25,0,0,1-1.27.23,3.57,3.57,0,0,1-.57,0c-.11,0-.28-.08-.34,0a1.89,1.89,0,0,0,0,.47c0,.33,0,.67.07,1a.55.55,0,0,0,.07.31.63.63,0,0,0,.24.19c.32.18.65.34,1,.49a.53.53,0,0,0,.12,0c.24,0,.43-.27.56-.45s.14-.21.21-.31a2.78,2.78,0,0,0,.21-.27,1.55,1.55,0,0,0,0-.21c0-.37,0-.73,0-1.1"/><path class="cls-32" d="M4.65,98A1.32,1.32,0,0,1,3.5,97C3.18,96,2,86.69,3.32,83.77l.74.39.17.81.31,5.47Z"/><path class="cls-22" d="M8.67,94.66l0,.9c-.31,0-.61,0-.91,0a29.82,29.82,0,0,1-4.56-.5l-.12-1a25,25,0,0,0,5.62.52"/><path class="cls-22" d="M8.7,92.15c0,.29,0,.59,0,.89a7.88,7.88,0,0,1-1,0,28.33,28.33,0,0,1-4.86-.67l-.08-1.11a22.6,22.6,0,0,0,5.91.84"/><path class="cls-38" d="M6,82.48A2,2,0,0,0,6.84,82a.52.52,0,0,0,.1-.39h0a1,1,0,0,1,.91-.85C9.64,80.71,9.53,82,9.53,82h0a2.18,2.18,0,0,1,0,.4h0a3.38,3.38,0,0,0,0,.45,1.52,1.52,0,0,0,0,.21,2.26,2.26,0,0,1,0,.37c-.06.42-.17.82-.62.91a1.32,1.32,0,0,1-.76-.09,3,3,0,0,1-.76-.36l-.62-.41,0,0-.2-.14C5.91,82.83,6,82.48,6,82.48Z"/><path class="cls-39" d="M6.32,83.12,6.22,83l0,0a.44.44,0,0,1-.08-.11v0L6,82.72H6a.51.51,0,0,1,0-.09v-.15A2,2,0,0,0,6.84,82a.52.52,0,0,0,.1-.39h0a1,1,0,0,1,.91-.85C9.64,80.71,9.53,82,9.53,82h0a2.18,2.18,0,0,1,0,.4h0a3.38,3.38,0,0,0,0,.45,1.52,1.52,0,0,0,0,.21.84.84,0,0,1-.38.06,1.55,1.55,0,0,1-.74-.3c-.22-.16-.42-.35-.63-.51s-.39-.25-.58-.15a.4.4,0,0,0-.2.27,1.27,1.27,0,0,0,0,.34,2.85,2.85,0,0,1-.12.58.69.69,0,0,1-.05.13l0,0-.2-.14-.2-.17A.08.08,0,0,0,6.32,83.12Z"/><path class="cls-24" d="M8.88,84.45H8.61a.58.58,0,0,1-.23-.09l-.23-.1a5.4,5.4,0,0,1-.47-.3c-.49-.31-1.18-.69-1.17-1.36,0-.09,0-.38.09-.42a4.8,4.8,0,0,0-.63.15l-.31.1a1.92,1.92,0,0,0-.31.11s0,0,0,.11a.78.78,0,0,1,0,.14c0,.09.08.18.13.27a2.89,2.89,0,0,0,.33.5,3.64,3.64,0,0,0,.91.8,5.21,5.21,0,0,0,.57.3l.57.25c.21.11.45.17.66.26a1,1,0,0,1,.28.17l.29.28s.07.14.1.14A3.6,3.6,0,0,0,9,84.53a.12.12,0,0,0,0-.07H8.88Z"/><g class="cls-40"><path class="cls-21" d="M2.24,90.49a17.24,17.24,0,0,0,.56,3.26c.16.77.34,1.54.53,2.31,0,.21.11.39.15.6s0,.16,0,.24a4.21,4.21,0,0,0,.12.48,7,7,0,0,0,.53,1.33,2.48,2.48,0,0,0,.74,1,3,3,0,0,0,.34.2,2.24,2.24,0,0,0,.36.14c.11,0,.22,0,.34,0a1.48,1.48,0,0,0,.42,0,.31.31,0,0,0,.26-.29.16.16,0,0,0,0-.09.39.39,0,0,0-.13-.06,1.68,1.68,0,0,1-.32-.09A.4.4,0,0,1,6,99.47a.52.52,0,0,1-.12-.17,1.9,1.9,0,0,1-.2-.61c0-.09,0-.38.13-.31A.61.61,0,0,1,6,98.5a.33.33,0,0,0,.11.09.85.85,0,0,0,.17.06.38.38,0,0,0,.15,0s.11,0,.12-.08,0-.22-.13-.3l-.15-.12c-.16-.09-.21-.22-.31-.36a2.3,2.3,0,0,0-.38-.32l-.4-.28a.68.68,0,0,1-.34-.44,1.58,1.58,0,0,1,0-.38v-.22c0-.56,0-1.13-.09-1.68-.06-.9-.13-1.79-.2-2.68,0-.28-.08-.55-.11-.83a2.17,2.17,0,0,1,.06-.57c.1-.58.08-1.16.2-1.73a1.38,1.38,0,0,0,0-.45c-.06-.33-.58-.48-.84-.61a6,6,0,0,0-.59-.22c-.07,0-.47-.18-.53-.13a1.05,1.05,0,0,0-.3.57,8.43,8.43,0,0,0-.16,1.8c0,.29,0,.57,0,.86"/><path class="cls-27" d="M2.26,89.63a8.43,8.43,0,0,1,.16-1.8,1.05,1.05,0,0,1,.3-.57s.26,0,.41.09a1.15,1.15,0,0,0-.26.53,8.32,8.32,0,0,0-.16,1.8c0,.28,0,.57,0,.86a17.24,17.24,0,0,0,.56,3.26c.16.77.34,1.54.53,2.3a6,6,0,0,1,.15.61c0,.08,0,.16,0,.23a4.21,4.21,0,0,0,.12.48,7.05,7.05,0,0,0,.53,1.34,2.48,2.48,0,0,0,.74,1l.34.19a1.33,1.33,0,0,0,.33.13H6c-.12,0-.23,0-.34,0a2.24,2.24,0,0,1-.36-.14,3,3,0,0,1-.34-.2,2.48,2.48,0,0,1-.74-1,7,7,0,0,1-.53-1.33,4.21,4.21,0,0,1-.12-.48c0-.08,0-.16,0-.24s-.1-.39-.15-.6c-.19-.77-.37-1.54-.53-2.31a17.24,17.24,0,0,1-.56-3.26c0-.29,0-.57,0-.86"/><path class="cls-22" d="M4.91,88.14c0,.08,0,.16,0,.23v.12c-.08.81-.33,1.57-.41,2.37a7.62,7.62,0,0,0,.14,2,.24.24,0,0,0,0,.08.68.68,0,0,0,0,.14c0,.25.1.5.13.74a2.22,2.22,0,0,1,0,.37c0,.39-.33.34-.64.34H4.06a2.76,2.76,0,0,1-.7-.06,1.4,1.4,0,0,1-.92-.61,1,1,0,0,1-.12-.39c-.09-.47-.17-.95-.23-1.43A9.69,9.69,0,0,1,2,90.75c0-.45,0-.9,0-1.35s0-1,.07-1.49c0-.16,0-.31.05-.47a11.22,11.22,0,0,1,.41-2.06,4.71,4.71,0,0,1,.41-1c.14-.25.24-.56.57-.61h.08a.74.74,0,0,1,.21,0h0a1.15,1.15,0,0,1,.69.51A3.17,3.17,0,0,1,5,85.66H5s0,.08,0,.11v.11c0,.75-.06,1.51-.08,2.25"/><path class="cls-23" d="M4.75,93.28a1.4,1.4,0,0,1,0,.61c-.06.26-.34.44-.55.57a1.19,1.19,0,0,1-.15.09,2.76,2.76,0,0,1-.7-.06,1.4,1.4,0,0,1-.92-.61,1,1,0,0,1-.12-.39c-.09-.47-.17-.95-.23-1.43A9.69,9.69,0,0,1,2,90.75c0-.45,0-.9,0-1.35s0-1,.07-1.49c0-.16,0-.31.05-.47a11.22,11.22,0,0,1,.41-2.06,4.71,4.71,0,0,1,.41-1c.14-.25.24-.56.57-.61h.08a.74.74,0,0,1,.21,0,1.11,1.11,0,0,0-.3.45,12.31,12.31,0,0,0-.84,3.43.51.51,0,0,0,.08.42A.56.56,0,0,0,3,88.2l.39.06c-.19.08-.38.17-.58.24a.16.16,0,0,1,0,.23,1,1,0,0,1-.18.18.21.21,0,0,0-.06.23c.08.15.33,0,.47.13a1.61,1.61,0,0,1-.36.27,1,1,0,0,0-.31.85c.06.33.52.26.81.29l-.53.45c-.27.25-.18.46-.16.79s0,.6.39.57a.59.59,0,0,0,.42,1,1.11,1.11,0,0,0,.79-.35,2.73,2.73,0,0,1,.38-.38l.05,0s0,0,0,0a2.24,2.24,0,0,1,.14.46"/><path class="cls-23" d="M4.91,88.14c0,.08,0,.16,0,.23v.12c-.08.81-.33,1.57-.41,2.37a7.62,7.62,0,0,0,.14,2,3.75,3.75,0,0,1-.16-.81,4.27,4.27,0,0,0-.1-.8.39.39,0,0,0-.14-.21A1.3,1.3,0,0,0,3.88,91a1.19,1.19,0,0,0-.37-.06,1.07,1.07,0,0,0,.61-.25c.09-.07.32-.28.18-.4a.46.46,0,0,0-.23-.06H3.9a1.44,1.44,0,0,0,.71-.8,1.21,1.21,0,0,0,.12-.62c0-.19-.2-.28-.36-.34a.78.78,0,0,1-.43-.27,1.41,1.41,0,0,0,.79,0c-.06-.12-.12-.25-.19-.37s0,0,0,0,.2,0,.21-.1c-.27-.22-.71-.07-1-.27a1.12,1.12,0,0,0,.68,0,1.09,1.09,0,0,0,.47-.78,3.28,3.28,0,0,0,.1-.7c0,.75-.06,1.51-.08,2.25"/><path class="cls-24" d="M4.7,92.87a.47.47,0,0,0-.09-.12,1.25,1.25,0,0,1-.37.6,1.33,1.33,0,0,1-.59.3,1.23,1.23,0,0,1-.88-.12,1,1,0,0,1-.44-.41,1.28,1.28,0,0,1-.11-.27,1.3,1.3,0,0,0-.17.7,1.93,1.93,0,0,0,.11.75.6.6,0,0,0,.14.26.83.83,0,0,0,.45.26,3.55,3.55,0,0,0,1.88-.19.34.34,0,0,0,.12-.06.66.66,0,0,0,.16-.47,4.18,4.18,0,0,0,0-.71,1.42,1.42,0,0,0-.19-.52"/></g><g class="cls-41"><path class="cls-21" d="M2.22,90.49a18.1,18.1,0,0,0,.57,3.26c.16.77.34,1.54.52,2.31.06.21.12.39.16.6s0,.16,0,.24l.12.48a6.4,6.4,0,0,0,.54,1.33,2.48,2.48,0,0,0,.74,1,2.33,2.33,0,0,0,.34.2,1.92,1.92,0,0,0,.36.14c.11,0,.22,0,.34,0a1.48,1.48,0,0,0,.42,0,.32.32,0,0,0,.26-.29.18.18,0,0,0,0-.09.45.45,0,0,0-.12-.06,1.68,1.68,0,0,1-.32-.09A.35.35,0,0,1,6,99.47a.41.41,0,0,1-.12-.17,2.21,2.21,0,0,1-.21-.61c0-.09,0-.38.14-.31A.61.61,0,0,1,6,98.5a.43.43,0,0,0,.1.09,1.27,1.27,0,0,0,.18.06.38.38,0,0,0,.15,0,.2.2,0,0,0,.12-.08c0-.14,0-.22-.13-.3l-.16-.12a1.05,1.05,0,0,1-.3-.36,2.3,2.3,0,0,0-.38-.32l-.41-.28a.7.7,0,0,1-.33-.44,1.58,1.58,0,0,1,0-.38,1.62,1.62,0,0,0,0-.22c0-.56,0-1.13-.08-1.68-.06-.9-.13-1.79-.21-2.68,0-.28-.07-.55-.1-.83a1.81,1.81,0,0,1,.06-.57c.09-.58.07-1.16.2-1.73a1.15,1.15,0,0,0,0-.45c0-.33-.57-.48-.83-.61s-.39-.16-.59-.22-.47-.18-.53-.13a1,1,0,0,0-.3.57,8.43,8.43,0,0,0-.16,1.8c0,.29,0,.57,0,.86"/><path class="cls-27" d="M2.25,89.63a8.43,8.43,0,0,1,.16-1.8,1,1,0,0,1,.3-.57s.26,0,.41.09a1.15,1.15,0,0,0-.26.53,8.32,8.32,0,0,0-.16,1.8c0,.28,0,.57,0,.86a17.24,17.24,0,0,0,.56,3.26c.16.77.34,1.54.53,2.3,0,.21.11.39.15.61a1.55,1.55,0,0,0,.05.23,4.21,4.21,0,0,0,.12.48,7.05,7.05,0,0,0,.53,1.34,2.48,2.48,0,0,0,.74,1l.34.19a1.33,1.33,0,0,0,.33.13H6c-.12,0-.23,0-.34,0a1.92,1.92,0,0,1-.36-.14,2.33,2.33,0,0,1-.34-.2,2.48,2.48,0,0,1-.74-1,6.4,6.4,0,0,1-.54-1.33l-.12-.48c0-.08,0-.16,0-.24s-.1-.39-.16-.6c-.18-.77-.36-1.54-.52-2.31a18.1,18.1,0,0,1-.57-3.26c0-.29,0-.57,0-.86"/><path class="cls-22" d="M4.89,88.14a1.69,1.69,0,0,1,0,.23.49.49,0,0,1,0,.12c-.07.81-.32,1.57-.41,2.37a7.62,7.62,0,0,0,.15,2s0,.05,0,.08l0,.14c0,.25.1.5.13.74a2.22,2.22,0,0,1,0,.37c0,.39-.34.34-.64.34H4.05a2.72,2.72,0,0,1-.7-.06,1.4,1.4,0,0,1-.92-.61,1,1,0,0,1-.12-.39c-.1-.47-.17-.95-.23-1.43A8.31,8.31,0,0,1,2,90.75c0-.45,0-.9,0-1.35s0-1,.08-1.49c0-.16,0-.31,0-.47a10.44,10.44,0,0,1,.41-2.06,4.71,4.71,0,0,1,.41-1c.14-.25.23-.56.57-.61h.07a.79.79,0,0,1,.22,0h0a1.15,1.15,0,0,1,.69.51A3.17,3.17,0,0,1,5,85.66H5a.37.37,0,0,0,0,.11v.11c0,.75-.07,1.51-.09,2.25"/><path class="cls-23" d="M4.74,93.28a1.4,1.4,0,0,1,0,.61c-.06.26-.34.44-.55.57a1.19,1.19,0,0,1-.15.09,2.72,2.72,0,0,1-.7-.06,1.4,1.4,0,0,1-.92-.61,1,1,0,0,1-.12-.39c-.1-.47-.17-.95-.23-1.43A8.31,8.31,0,0,1,2,90.75c0-.45,0-.9,0-1.35s0-1,.08-1.49c0-.16,0-.31,0-.47a10.44,10.44,0,0,1,.41-2.06,4.71,4.71,0,0,1,.41-1c.14-.25.23-.56.57-.61h.07a.79.79,0,0,1,.22,0,1,1,0,0,0-.3.45,12.32,12.32,0,0,0-.85,3.43.55.55,0,0,0,.09.42A.56.56,0,0,0,3,88.2l.39.06-.58.24a.17.17,0,0,1,0,.23,1.53,1.53,0,0,1-.18.18.23.23,0,0,0-.07.23c.08.15.34,0,.48.13a1.47,1.47,0,0,1-.37.27,1,1,0,0,0-.31.85c.07.33.52.26.82.29l-.54.45c-.26.25-.17.46-.15.79s0,.6.39.57a.59.59,0,0,0,.41,1,1.09,1.09,0,0,0,.79-.35,4.54,4.54,0,0,1,.38-.38l0,0s0,0,0,0a3.09,3.09,0,0,1,.14.46"/><path class="cls-23" d="M4.89,88.14a1.69,1.69,0,0,1,0,.23.49.49,0,0,1,0,.12c-.07.81-.32,1.57-.41,2.37a7.62,7.62,0,0,0,.15,2,3.75,3.75,0,0,1-.16-.81,5.3,5.3,0,0,0-.1-.8.39.39,0,0,0-.14-.21A1.37,1.37,0,0,0,3.86,91a1.09,1.09,0,0,0-.36-.06,1.07,1.07,0,0,0,.61-.25c.08-.07.32-.28.17-.4a.4.4,0,0,0-.22-.06H3.89a1.44,1.44,0,0,0,.71-.8,1.2,1.2,0,0,0,.11-.62c0-.19-.19-.28-.35-.34a.84.84,0,0,1-.44-.27,1.45,1.45,0,0,0,.8,0l-.19-.37s0,0,0,0,.2,0,.2-.1c-.27-.22-.7-.07-1-.27a1.09,1.09,0,0,0,.67,0,1.07,1.07,0,0,0,.48-.78,3.28,3.28,0,0,0,.1-.7c0,.75-.07,1.51-.09,2.25"/><path class="cls-24" d="M4.69,92.87l-.09-.12a1.25,1.25,0,0,1-.37.6,1.38,1.38,0,0,1-.59.3,1.22,1.22,0,0,1-.88-.12,1,1,0,0,1-.44-.41.93.93,0,0,1-.12-.27,1.39,1.39,0,0,0-.16.7,1.93,1.93,0,0,0,.11.75.6.6,0,0,0,.14.26.79.79,0,0,0,.45.26,3.5,3.5,0,0,0,1.87-.19.23.23,0,0,0,.12-.06.67.67,0,0,0,.17-.47,4.18,4.18,0,0,0,0-.71,1.24,1.24,0,0,0-.18-.52"/></g><path class="cls-42" d="M6.24,80.07a.19.19,0,0,0,0,.08.4.4,0,0,0,0,.24,1.65,1.65,0,0,0,.42.59h0a1.29,1.29,0,0,0,.18.16c.07.11.15.2.2.28a.91.91,0,0,1,.12.17,3.1,3.1,0,0,0,1.17.91l.06,0,.14.08.05,0h0l0,0,0,0c.72.34,1.3.31,1.58.06s.41-1.42.41-1.42c0-.22.05-.45.11-.66,0,0,0,0,0-.06,0-.25,0-.48,0-.74a3.18,3.18,0,0,1,.08-.33,1.48,1.48,0,0,0-.08-.69L10.58,78c0-.17-.09-.33-.13-.49a1.51,1.51,0,0,0-.54-1,2.22,2.22,0,0,0-1.16-.43s-1.43,1.08-1.57,1.14a2.26,2.26,0,0,0-1,2,2.66,2.66,0,0,0,.1.77.05.05,0,0,1,0,0v0"/><path class="cls-39" d="M10.58,78a6.5,6.5,0,0,0-2.17-.52,2.08,2.08,0,0,0-.66,0,1.09,1.09,0,0,0-.56.32,1.1,1.1,0,0,0-.16.73,2.81,2.81,0,0,0,.18.86,8.44,8.44,0,0,1,.38,1.71,2,2,0,0,0,.15-.43,2.78,2.78,0,0,0,.11-.95c0-.12,0-.24-.07-.36a2.57,2.57,0,0,1,0-.73.34.34,0,0,1,.13-.3,1.23,1.23,0,0,1,.43-.1,16,16,0,0,1,1.83-.1,1.17,1.17,0,0,0,.49-.07Z"/><path class="cls-43" d="M5.57,78.33A9.57,9.57,0,0,0,6,79.88c0,.06,0,.12.07.19l.09.2,0,.07a1.67,1.67,0,0,0,.47.64h0s0-.06,0-.09a1.56,1.56,0,0,0-.15-.39.73.73,0,0,1-.06-.21.28.28,0,0,1,0-.13.33.33,0,0,1,0-.14.41.41,0,0,1,.52-.1.86.86,0,0,1,.35.44,2.6,2.6,0,0,1,.1.25l.06.15a.75.75,0,0,0,.07.12s0-.06,0-.09a.5.5,0,0,0,0-.12c0-.17,0-.35,0-.53a3.37,3.37,0,0,0,0-.71c0-.17-.09-.33-.13-.5a.6.6,0,0,1,.13-.6,1.19,1.19,0,0,1,.51-.27,4.53,4.53,0,0,1,1.5,0,2.89,2.89,0,0,0,.88,0,.84.84,0,0,1,.2,0c.08,0,.1-.1.12-.18a1.83,1.83,0,0,0,0-.66,3.29,3.29,0,0,0-.21-.6.59.59,0,0,0-.37-.3,2.54,2.54,0,0,0-.61-.19,3.63,3.63,0,0,0-1,0,3.7,3.7,0,0,0-2.06.57c-.19.16-.36.31-.51.46L6,77.17a1.32,1.32,0,0,0-.4,1.16"/><path class="cls-44" d="M5.57,78.33A9.57,9.57,0,0,0,6,79.88c0,.06,0,.12.07.19l.09.2,0,.07a1.67,1.67,0,0,0,.47.64h0s0-.06,0-.09a1.56,1.56,0,0,0-.15-.39.73.73,0,0,1-.06-.21.28.28,0,0,1,0-.13.33.33,0,0,1,0-.14.41.41,0,0,1,.52-.1.86.86,0,0,1,.35.44,2.6,2.6,0,0,1,.1.25l.06.15a.75.75,0,0,0,.07.12s0-.06,0-.09a.5.5,0,0,0,0-.12c0-.17,0-.35,0-.53a3.37,3.37,0,0,0,0-.71c0-.17-.09-.33-.13-.5,0,.39.11.79.1,1.19,0,.06,0,.14-.1.13a.1.1,0,0,1,0,0c-.11-.12-.18-.28-.28-.41a.56.56,0,0,0-.42-.24.63.63,0,0,0-.4.19l-.08,0c-.09,0-.15-.07-.18-.16a3.24,3.24,0,0,1-.3-1.78,5.42,5.42,0,0,0,.14-.7,1.32,1.32,0,0,0-.4,1.16"/><path class="cls-45" d="M6.08,77.06a1.09,1.09,0,0,0-.29.51.61.61,0,0,0,.15.52.7.7,0,0,0,.67.14,2.06,2.06,0,0,0,.62-.33,2.27,2.27,0,0,1,.63-.34,3,3,0,0,1,.52,0H9.76a1.55,1.55,0,0,0,.68-.12.64.64,0,0,0,.07-1A2.92,2.92,0,0,0,8.65,76a3.7,3.7,0,0,0-2.06.57,5.29,5.29,0,0,0-.51.46"/><path class="cls-46" d="M8.74,76.16l.47,0a1.8,1.8,0,0,1,.47.12.77.77,0,0,1,.34.22.22.22,0,0,1,.05.08c.06.15,0,.26-.17.31a4,4,0,0,1-1.34,0c-.6,0-1.13.43-1.73.5a.32.32,0,0,1-.27-.06.22.22,0,0,1,0-.21.39.39,0,0,1,.1-.19A2.22,2.22,0,0,1,7,76.6a2.58,2.58,0,0,1,.76-.28,2,2,0,0,1,.41-.08,2.67,2.67,0,0,1,.48-.08h.06"/><path class="cls-47" d="M12.19,78.14,12,77.91a3.85,3.85,0,0,0-1-.81A5.53,5.53,0,0,0,10,76.56a5.75,5.75,0,0,0-2.53-.35,3.11,3.11,0,0,0-.44.07,4.44,4.44,0,0,0-.52.15,1.82,1.82,0,0,0-.69.48.17.17,0,0,1,0-.12A2,2,0,0,0,5.41,78a1.43,1.43,0,0,0,.2.59,2.08,2.08,0,0,0,.48.5,2.24,2.24,0,0,0,.4.22,2.23,2.23,0,0,0,.93.25.43.43,0,0,1,.16,0c.36.14.64.39,1,.5a5.8,5.8,0,0,0,1.17.17,3.34,3.34,0,0,0,1.67-.36,1.55,1.55,0,0,0,.44-.32,1.3,1.3,0,0,0,.31-1.37"/><path class="cls-48" d="M5.77,76.91a.25.25,0,0,0,0,.12,1.72,1.72,0,0,1,.69-.48A3.13,3.13,0,0,1,7,76.39l.44-.07a5.9,5.9,0,0,1,2.53.36,5,5,0,0,1,1.09.54A3.85,3.85,0,0,1,12,78l.15.23a.78.78,0,0,1,.09.34.9.9,0,0,0-.09-.46L12,77.91a3.85,3.85,0,0,0-1-.81A5.53,5.53,0,0,0,10,76.56a5.75,5.75,0,0,0-2.53-.35,3.11,3.11,0,0,0-.44.07,4.44,4.44,0,0,0-.52.15,1.82,1.82,0,0,0-.69.48.25.25,0,0,1,0-.12,2,2,0,0,0-.36,1.1,2.13,2.13,0,0,1,.36-1"/><path class="cls-48" d="M11.88,79.37a1.52,1.52,0,0,1-.44.31A3.24,3.24,0,0,1,9.77,80a5.69,5.69,0,0,1-1.17-.17c-.38-.11-.66-.36-1-.49a.44.44,0,0,0-.16,0,2.37,2.37,0,0,1-.93-.24,3.18,3.18,0,0,1-.4-.23,1.91,1.91,0,0,1-.48-.5,1.34,1.34,0,0,1-.2-.59v0a.61.61,0,0,0,0,.19,1.43,1.43,0,0,0,.2.59,2.08,2.08,0,0,0,.48.5,2.24,2.24,0,0,0,.4.22,2.23,2.23,0,0,0,.93.25.43.43,0,0,1,.16,0c.36.14.64.39,1,.5a5.69,5.69,0,0,0,1.17.17,3.34,3.34,0,0,0,1.67-.36,1.55,1.55,0,0,0,.44-.32,1.5,1.5,0,0,0,.4-1,1.58,1.58,0,0,1-.4.9"/><path class="cls-49" d="M7.45,74.94a2.38,2.38,0,0,0-1.2.73,2.93,2.93,0,0,0-.69,2,1.25,1.25,0,0,0,.48,1,4.15,4.15,0,0,0,3.6.41c.52-.17,1.3-.46,1.48-1a.87.87,0,0,0,0-.36,2.23,2.23,0,0,0-.27-.92,7.74,7.74,0,0,0-.43-.73A2.57,2.57,0,0,0,9.08,75a2.89,2.89,0,0,0-.88-.14,2.72,2.72,0,0,0-.75.11"/><path class="cls-33" d="M11.24,78.16a.34.34,0,0,1,0,.14.51.51,0,0,1-.09.13,1.32,1.32,0,0,1-.43.34l-.2.09h-.07l-.09,0s0,0,0-.08l-.06-.09-.08-.12L10,78.08l-.38-.62-.36-.59-.67-.69-.5-.49-.86-.2-1.12.24a3.88,3.88,0,0,1,1-.74h0l.13-.07a2.1,2.1,0,0,1,.7-.16,1.86,1.86,0,0,1,.66.1,1,1,0,0,1,.22.09,2.22,2.22,0,0,1,.42.25,3,3,0,0,1,.38.33,4.14,4.14,0,0,1,.35.38c.11.13.21.27.31.41s.18.28.26.42l.22.41a2.53,2.53,0,0,1,.18.37,2.92,2.92,0,0,1,.14.31l.14.33"/><path class="cls-48" d="M10.2,78.89l0-.07,0-.08a2.44,2.44,0,0,0-.1-.24l-.14-.32c-.06-.12-.13-.25-.19-.38l-.23-.41c-.09-.14-.18-.28-.28-.42s-.2-.27-.31-.4a4,4,0,0,0-.35-.36,3.68,3.68,0,0,0-.39-.3,2.3,2.3,0,0,0-.42-.2l-.18,0-.17,0A1.79,1.79,0,0,0,6,76.09a.52.52,0,0,0-.11.1L6,76a1,1,0,0,1,.24-.3.8.8,0,0,1,.22-.13,1.94,1.94,0,0,1,.71-.17,1.71,1.71,0,0,1,.67.1l.22.08a2.65,2.65,0,0,1,.42.26,2.8,2.8,0,0,1,.38.32c.12.12.24.25.35.38s.21.28.3.42.18.28.27.42.15.27.22.41l.18.37a2.92,2.92,0,0,1,.14.31l.09.22s0,.07,0,.11,0,.06,0,.09a.16.16,0,0,1-.1,0h-.08s0,0-.06,0"/><path class="cls-50" d="M69.22,84.49l0,0-.59.35.25.43h0a2.82,2.82,0,0,1-2.49,3.07l-.65.38.48.8.29-.17.74,5.85,5.21,3.7.64-.37.79-5.92a10.69,10.69,0,0,1-2.55-5.94,2.72,2.72,0,0,0-1.24-2.11.9.9,0,0,0-.82-.1h0Z"/><path class="cls-51" d="M69.42,85c-.68-.39-1.22-.07-1.22.71a2.82,2.82,0,0,1-2.5,3.07l.87,6.85,5.85,3.33L73.21,93a10.81,10.81,0,0,1-2.56-5.94A2.67,2.67,0,0,0,69.42,85Z"/><path class="cls-50" d="M70.09,86.67c0,.42-.29.59-.66.38a1.5,1.5,0,0,1-.67-1.14c0-.42.3-.59.66-.38A1.43,1.43,0,0,1,70.09,86.67Z"/><polygon class="cls-50" points="73.21 93.01 73.06 98.55 63.37 104.22 64.8 97.93 73.21 93.01"/><path class="cls-51" d="M65.7,88.74c3-1.28,5.36,1,7.51,4.27L64.8,97.93c-2.54-3-5-5-7.51-4.27Z"/><path class="cls-50" d="M70.09,86.67c0,.42-.29.59-.66.38a1.5,1.5,0,0,1-.67-1.14c0-.42.3-.59.66-.38A1.43,1.43,0,0,1,70.09,86.67Z"/><rect class="cls-50" x="59.66" y="88" width="10.49" height="1.87" transform="translate(-36.04 44.98) rotate(-30.35)"/><path class="cls-50" d="M60.17,89.79l0,0-.59.35.25.43h0a2.82,2.82,0,0,1-2.5,3.07l-.64.38.47.8.3-.17.74,5.85,5.2,3.7.65-.37.79-5.92A10.71,10.71,0,0,1,62.24,92,2.68,2.68,0,0,0,61,89.88a.91.91,0,0,0-.83-.1h0Z"/><path class="cls-51" d="M60.37,90.26c-.68-.39-1.23-.07-1.22.71A2.82,2.82,0,0,1,56.65,94l.87,6.85,5.84,3.33.79-5.91a10.79,10.79,0,0,1-2.55-5.94A2.69,2.69,0,0,0,60.37,90.26Z"/><path class="cls-50" d="M61,92c0,.42-.29.59-.66.38a1.45,1.45,0,0,1-.67-1.14c0-.42.29-.59.66-.38A1.43,1.43,0,0,1,61,92Z"/><polygon class="cls-52" points="68.65 94.28 69.81 95.31 69.8 94.79 68.65 94.28"/><polygon class="cls-53" points="68.82 95.55 68.62 96.87 69.12 95.62 68.82 95.55"/><polygon class="cls-53" points="69.36 95.23 69.16 96.56 69.66 95.3 69.36 95.23"/><polygon class="cls-5" points="69.16 96.56 68.62 96.87 69.12 95.62 69.66 95.3 69.16 96.56"/><polygon class="cls-52" points="67.74 94.83 68.89 95.86 68.89 95.34 67.74 94.83"/><polygon class="cls-54" points="69.81 95.31 68.89 95.86 68.89 95.34 69.8 94.79 69.81 95.31"/><polygon class="cls-55" points="68.89 95.34 67.74 94.83 68.65 94.28 69.8 94.79 68.89 95.34"/></g></g></svg>