<svg xmlns="http://www.w3.org/2000/svg" xmlns:xlink="http://www.w3.org/1999/xlink" viewBox="0 0 178.85 117.62"><defs><style>.cls-1{fill:none;}.cls-2{isolation:isolate;}.cls-3{fill:url(#linear-gradient);}.cls-4{fill:url(#linear-gradient-2);}.cls-5{fill:url(#linear-gradient-3);}.cls-6{fill:#66491f;}.cls-7{fill:url(#linear-gradient-4);}.cls-8{fill:#514f4d;}.cls-9{fill:#333130;}.cls-10{clip-path:url(#clip-path);}.cls-11{fill:#171512;}.cls-12{fill:#879196;}.cls-13{fill:url(#linear-gradient-5);}.cls-14{fill:#b0b9be;}.cls-14,.cls-41{opacity:0.5;}.cls-14,.cls-25,.cls-34{mix-blend-mode:multiply;}.cls-15{fill:#c9cfd2;}.cls-15,.cls-22{opacity:0.8;}.cls-15,.cls-22,.cls-41{mix-blend-mode:screen;}.cls-16{fill:url(#linear-gradient-6);}.cls-17{clip-path:url(#clip-path-2);}.cls-18{fill:url(#linear-gradient-7);}.cls-19{fill:url(#linear-gradient-8);}.cls-20{fill:url(#linear-gradient-9);}.cls-21,.cls-37{fill:#84632e;}.cls-21,.cls-24{opacity:0.7;}.cls-22{fill:url(#linear-gradient-10);}.cls-23,.cls-24{fill:#303e41;}.cls-25,.cls-34,.cls-42{opacity:0.4;}.cls-25{fill:url(#linear-gradient-11);}.cls-26{fill:#202b2d;}.cls-27{fill:url(#linear-gradient-12);}.cls-28{fill:#d81d2f;}.cls-29{fill:#b2802d;}.cls-30{fill:#e5ac4f;}.cls-31{fill:#cecece;}.cls-32{fill:#d3dcdd;}.cls-33{fill:#e58a1f;}.cls-34{fill:#825c1f;}.cls-35{fill:url(#linear-gradient-13);}.cls-36{fill:url(#linear-gradient-14);}.cls-38{fill:url(#linear-gradient-15);}.cls-39{fill:url(#linear-gradient-16);}.cls-40{fill:url(#linear-gradient-17);}.cls-41{fill:#f9ce98;}.cls-42{fill:#b78633;}</style><linearGradient id="linear-gradient" x1="1052.49" y1="-84.06" x2="1052.49" y2="-76.43" gradientTransform="translate(-961.31 -63.17) rotate(8.48)" gradientUnits="userSpaceOnUse"><stop offset="0" stop-color="#ffc564"/><stop offset="1" stop-color="#daa54d"/></linearGradient><linearGradient id="linear-gradient-2" x1="1056.79" y1="-85.51" x2="1050.91" y2="-80.11" gradientTransform="translate(-961.31 -63.17) rotate(8.48)" gradientUnits="userSpaceOnUse"><stop offset="0" stop-color="#e3ac53"/><stop offset="1" stop-color="#daa54d"/></linearGradient><linearGradient id="linear-gradient-3" x1="1056.57" y1="-85.29" x2="1051.15" y2="-80.31" gradientTransform="translate(-961.31 -63.17) rotate(8.48)" gradientUnits="userSpaceOnUse"><stop offset="0.49" stop-color="#a3835d"/><stop offset="0.51" stop-color="#ffe7bf"/></linearGradient><linearGradient id="linear-gradient-4" x1="789.14" y1="92.13" x2="801.05" y2="106.35" gradientTransform="translate(-689.78)" gradientUnits="userSpaceOnUse"><stop offset="0" stop-color="#323232"/><stop offset="0.26" stop-color="#201f1d"/><stop offset="1" stop-color="#12100c"/></linearGradient><clipPath id="clip-path"><path class="cls-1" d="M103.5,93.68A15.67,15.67,0,0,1,110.61,106c0,4.53-3.21,6.37-7.16,4.1a15.74,15.74,0,0,1-7.12-12.34C96.34,93.22,99.56,91.41,103.5,93.68Z"/></clipPath><linearGradient id="linear-gradient-5" x1="793.7" y1="91.5" x2="793.7" y2="115.53" gradientTransform="translate(-689.78)" gradientUnits="userSpaceOnUse"><stop offset="0" stop-color="#b0b9be"/><stop offset="0.51" stop-color="#b0b9be"/><stop offset="0.62" stop-color="#b7bfc3"/><stop offset="0.8" stop-color="#cacfd3"/><stop offset="1" stop-color="#e8eaeb"/><stop offset="1" stop-color="#e9ebec"/></linearGradient><linearGradient id="linear-gradient-6" x1="702.78" y1="42.19" x2="714.7" y2="56.41" xlink:href="#linear-gradient-4"/><clipPath id="clip-path-2"><path class="cls-1" d="M17.15,43.74a15.66,15.66,0,0,1,7.1,12.31c0,4.53-3.21,6.37-7.15,4.1A15.71,15.71,0,0,1,10,47.81C10,43.28,13.2,41.47,17.15,43.74Z"/></clipPath><linearGradient id="linear-gradient-7" x1="707.35" y1="41.56" x2="707.35" y2="65.59" xlink:href="#linear-gradient-5"/><linearGradient id="linear-gradient-8" x1="751.02" y1="78.25" x2="749.52" y2="80.83" gradientTransform="translate(-689.78)" gradientUnits="userSpaceOnUse"><stop offset="0" stop-color="#b07f2d"/><stop offset="1" stop-color="#daa54d"/></linearGradient><linearGradient id="linear-gradient-9" x1="759.65" y1="82.14" x2="808.91" y2="26.39" gradientTransform="translate(-689.78)" gradientUnits="userSpaceOnUse"><stop offset="0" stop-color="#c27116"/><stop offset="0.19" stop-color="#d28628"/><stop offset="0.52" stop-color="#eba643"/><stop offset="0.81" stop-color="#faba54"/><stop offset="1" stop-color="#ffc15a"/></linearGradient><linearGradient id="linear-gradient-10" x1="861.06" y1="60.91" x2="699.24" y2="27.72" gradientTransform="translate(-689.78)" gradientUnits="userSpaceOnUse"><stop offset="0" stop-color="#ffbf5c"/><stop offset="1" stop-color="#634a21"/></linearGradient><linearGradient id="linear-gradient-11" x1="862.62" y1="69.03" x2="799.66" y2="69.03" gradientTransform="translate(-689.78)" gradientUnits="userSpaceOnUse"><stop offset="0.41" stop-color="#ffdeb1"/><stop offset="0.61" stop-color="#e6b777"/><stop offset="1" stop-color="#b36800"/></linearGradient><linearGradient id="linear-gradient-12" x1="809.81" y1="111.14" x2="874.8" y2="85.51" gradientTransform="translate(-689.78)" gradientUnits="userSpaceOnUse"><stop offset="0" stop-color="#d7a249"/><stop offset="0.24" stop-color="#e4ac4f"/><stop offset="0.69" stop-color="#f8bb57"/><stop offset="1" stop-color="#ffc15a"/></linearGradient><linearGradient id="linear-gradient-13" x1="787.63" y1="77.33" x2="786.96" y2="78.49" gradientTransform="translate(-689.78)" gradientUnits="userSpaceOnUse"><stop offset="0" stop-color="#bdc5c7"/><stop offset="1" stop-color="#9ea4a6"/></linearGradient><linearGradient id="linear-gradient-14" x1="757.56" y1="60.07" x2="756.88" y2="61.23" xlink:href="#linear-gradient-13"/><linearGradient id="linear-gradient-15" x1="576.95" y1="71.12" x2="576.95" y2="79.84" gradientTransform="translate(-541.03 13.81) rotate(-4.6)" xlink:href="#linear-gradient"/><linearGradient id="linear-gradient-16" x1="581.54" y1="69.79" x2="575.25" y2="75.57" gradientTransform="translate(-541.03 13.81) rotate(-4.6)" xlink:href="#linear-gradient-2"/><linearGradient id="linear-gradient-17" x1="581.26" y1="70.02" x2="575.46" y2="75.35" gradientTransform="translate(-541.03 13.81) rotate(-4.6)" gradientUnits="userSpaceOnUse"><stop offset="0.49" stop-color="#6092a3"/><stop offset="0.51" stop-color="#c4e3ff"/></linearGradient></defs><title>2 (2)</title><g class="cls-2"><g id="Capa_2" data-name="Capa 2"><g id="personajes"><g id="_2" data-name="2"><path class="cls-3" d="M95.73,7.54c-.68-.45-8.15,1.75-8.17,2.51,0,1.42,2.34,3.12,2.87,3.2,1.33.2,4.08-1.46,4.42-1.75a5.48,5.48,0,0,0,1.64-3.11C96.47,8.12,95.87,7.64,95.73,7.54Z"/><path class="cls-4" d="M96.29,8.05c-.66-.44-8,1.78-8,2.53,0,1.4,1.67,2.6,2.2,2.68,1.32.2,4.57-1,4.91-1.31C96,11.42,97,8.49,96.29,8.05Z"/><path class="cls-5" d="M90.56,12.94c-.32,0-1.89-1.1-1.85-2.33.42-.59,6.61-2.5,7.44-2.29a.64.64,0,0,1,.07.33,5.85,5.85,0,0,1-1,3.07C94.93,11.94,91.76,13.13,90.56,12.94Z"/><path class="cls-6" d="M8.24,36.55,5.72,38.82C3.69,40,4,43.31,5.66,46L49.27,20.62c.21-3.4,2.95-6.54,5-7.72Z"/><path class="cls-6" d="M91.76,90.12l-.58,2.52c-2,1.18-1.21,4.6.26,6.72l13.62-7.92,30-18.35c.2-3.43,2.94-6.58,5-7.76Z"/><path class="cls-7" d="M108.82,87.6c-2.73-1.57-5.2-1.72-7-.68L96.55,90h0c-1.78,1-2.88,3.2-2.89,6.29,0,6.22,4.54,13.52,9.95,16.65,3.07,1.77,5,1.77,6.77,1l5.33-3.09c1.76-1,2.85-3.2,2.86-6.29C118.61,98.33,114.21,90.72,108.82,87.6Z"/><path class="cls-8" d="M113.29,107.53c0,6.22-4.44,8.73-9.84,5.61s-9.8-10.71-9.78-16.93,4.43-8.74,9.84-5.61S113.31,101.33,113.29,107.53Z"/><path class="cls-9" d="M103.5,92.81c-4.36-2.52-7.91-.49-7.93,4.5A17.36,17.36,0,0,0,103.45,111c4.35,2.51,7.9.49,7.91-4.52S107.85,95.32,103.5,92.81Z"/><g class="cls-10"><path class="cls-11" d="M104.07,93.57c-3.81-2.2-6.91-.43-6.92,3.94A15.16,15.16,0,0,0,104,109.42c3.8,2.2,6.9.43,6.91-4A15.18,15.18,0,0,0,104.07,93.57Z"/><path class="cls-12" d="M104.69,92.89c-2-1.15-3.79-1.25-5.09-.49l-.75.43h0c-1.29.75-2.09,2.34-2.1,4.6a15.77,15.77,0,0,0,7.13,12.36c2.12,1.22,4,1.25,5.33.34l-.23.16.75-.44c1.28-.74,2.08-2.33,2.09-4.58A15.8,15.8,0,0,0,104.69,92.89ZM99,93.66l.28.27,2.67,4.78a1.42,1.42,0,0,1,.14.41l-3.74-2-.4-.47A5.17,5.17,0,0,1,99,93.66Zm2.71,6a.41.41,0,0,1-.2-.06A.41.41,0,0,0,101.69,99.71Zm-2.18,3.48A14.2,14.2,0,0,1,98,98.45l3.48,2.12a1.32,1.32,0,0,1,.53.74v0c.08.3,0,.56-.11.66l-2,1.27Zm.71,1.24.12-.36,2.1-1.07a.4.4,0,0,1,.39,0,1.2,1.2,0,0,1,.26.21l0,0a1.3,1.3,0,0,1,.36.81l.09,4.07A14.51,14.51,0,0,1,100.22,104.43Zm3.34-6.12a1,1,0,0,1-.29-.33l-2.84-4.73-.08-.35a5.31,5.31,0,0,1,3.11.64l.21.58Zm.78-4.73Zm4.74,5.91a14.26,14.26,0,0,1,1.52,4.74l-3.48-2.12a1.35,1.35,0,0,1-.53-.75v0a.74.74,0,0,1,.08-.69l2-1.25Zm-.72-1.24-.14.41-2,1h0a.53.53,0,0,1-.46-.07,1.2,1.2,0,0,1-.26-.21h0a1.26,1.26,0,0,1-.37-.82L105,94.51A14.21,14.21,0,0,1,108.36,98.25Zm-3.24,10.89-.21-.59.11-4.19a1.2,1.2,0,0,1,.3.33l2.83,4.73.08.35A5.32,5.32,0,0,1,105.12,109.14Zm4.48-.13-.28-.27L106.66,104a1,1,0,0,1-.14-.41l3.73,2,.4.47A5.08,5.08,0,0,1,109.6,109Z"/><path class="cls-13" d="M103.94,93.33c-4-2.28-7.17-.45-7.18,4.09a15.77,15.77,0,0,0,7.13,12.36c4,2.28,7.18.45,7.19-4.09A15.74,15.74,0,0,0,103.94,93.33Zm5.14,6.16a13.82,13.82,0,0,1,1.58,5.41h-.41l-3.88-2.36a1.34,1.34,0,0,1-.52-.74v0c-.09-.3,0-.56.11-.66l2.7-1.71Zm-4.6-5.37a14,14,0,0,1,3.88,4.13l-.14.41-2.82,1.45a.43.43,0,0,1-.39,0,1,1,0,0,1-.26-.21l0,0a1.37,1.37,0,0,1-.37-.81l-.09-4.55Zm-5.65-.6.43.41,2.67,4.78a.91.91,0,0,1,.09.8v0c-.09.19-.28.25-.52.12l-3.9-2.13L97.18,97A4.64,4.64,0,0,1,98.83,93.52Zm-.07,10.1a13.66,13.66,0,0,1-1.58-5.41h.41l3.87,2.36a1.32,1.32,0,0,1,.53.74v0c.08.3,0,.56-.11.66l-2.7,1.71Zm4.6,5.37a14,14,0,0,1-3.89-4.13l.14-.42,2.83-1.44a.4.4,0,0,1,.39,0,1.2,1.2,0,0,1,.26.21l0,0a1.3,1.3,0,0,1,.36.81l.1,4.55Zm.19-10.47c0,.27-.16.41-.38.38h0a.75.75,0,0,1-.24-.08,1.15,1.15,0,0,1-.39-.4l-2.83-4.73-.14-.58a4.74,4.74,0,0,1,3.91.43l.21.58Zm.35,10.81,0,0,0,0Zm0-15.56h0Zm.46,15.8-.21-.58.11-4.41a.35.35,0,0,1,.39-.38h0a.75.75,0,0,1,.24.08,1.25,1.25,0,0,1,.39.4l2.83,4.73.13.58A4.79,4.79,0,0,1,104.38,109.57Zm4.63,0-.44-.41-2.66-4.78a.91.91,0,0,1-.09-.8v0a.34.34,0,0,1,.52-.12l3.91,2.13.4.47A4.66,4.66,0,0,1,109,109.59Z"/><path class="cls-14" d="M103.89,99.67a3.59,3.59,0,0,1,1.63,2.81c0,1-.74,1.45-1.64.93a3.58,3.58,0,0,1-1.62-2.81C102.26,99.57,103,99.15,103.89,99.67Z"/><path class="cls-15" d="M104.06,103.28a3.61,3.61,0,0,1-1.62-2.81,1.24,1.24,0,0,1,.34-.93,1.1,1.1,0,0,0-.52,1.06,3.58,3.58,0,0,0,1.62,2.81,1.07,1.07,0,0,0,1.31,0A1.19,1.19,0,0,1,104.06,103.28Z"/></g><path class="cls-16" d="M22.46,37.66c-2.72-1.57-5.19-1.71-7-.68L10.2,40.06h0c-1.77,1-2.87,3.2-2.88,6.29,0,6.22,4.53,13.52,10,16.65,3.07,1.77,5,1.77,6.77,1l5.32-3.09c1.76-1,2.86-3.2,2.87-6.29C32.25,48.39,27.86,40.78,22.46,37.66Z"/><path class="cls-8" d="M26.93,57.59c0,6.22-4.44,8.73-9.84,5.61S7.3,52.49,7.32,46.27s4.42-8.74,9.84-5.61S27,51.39,26.93,57.59Z"/><path class="cls-9" d="M17.15,42.87c-4.37-2.51-7.92-.49-7.93,4.5A17.36,17.36,0,0,0,17.1,61c4.34,2.51,7.89.48,7.91-4.53S21.49,45.38,17.15,42.87Z"/><g class="cls-17"><path class="cls-11" d="M17.72,43.64c-3.81-2.21-6.91-.44-6.93,3.93a15.2,15.2,0,0,0,6.88,11.92c3.8,2.19,6.9.42,6.92-4A15.16,15.16,0,0,0,17.72,43.64Z"/><path class="cls-12" d="M18.33,43c-2-1.14-3.79-1.25-5.09-.49l-.74.43h0c-1.3.74-2.1,2.33-2.11,4.59a15.75,15.75,0,0,0,7.14,12.36c2.11,1.22,4,1.25,5.33.34l-.23.16.74-.44c1.29-.74,2.09-2.33,2.09-4.58A15.77,15.77,0,0,0,18.33,43Zm-5.71.77.29.27,2.66,4.78a1.18,1.18,0,0,1,.14.41l-3.73-2-.41-.47A5.25,5.25,0,0,1,12.62,43.72Zm2.71,6.05a.38.38,0,0,1-.19-.06A.38.38,0,0,0,15.33,49.77Zm-2.18,3.48a14.33,14.33,0,0,1-1.52-4.74l3.48,2.12a1.32,1.32,0,0,1,.53.74v0c.09.3,0,.56-.1.66l-2,1.27Zm.71,1.24.12-.36,2.11-1.07a.44.44,0,0,1,.39,0,1.16,1.16,0,0,1,.25.21l0,0a1.31,1.31,0,0,1,.37.81l.08,4.07A14.52,14.52,0,0,1,13.86,54.49Zm3.35-6.12a1.07,1.07,0,0,1-.3-.33l-2.83-4.72L14,43a5.25,5.25,0,0,1,3.11.63l.21.58ZM18,43.64Zm4.74,5.91a14.05,14.05,0,0,1,1.53,4.74l-3.49-2.12a1.33,1.33,0,0,1-.52-.75v0a.71.71,0,0,1,.08-.69l2-1.25ZM22,48.31l-.14.42-2,1h0a.55.55,0,0,1-.46-.06,1.05,1.05,0,0,1-.26-.22h0a1.37,1.37,0,0,1-.37-.82l-.08-4.07A14.39,14.39,0,0,1,22,48.31ZM18.77,59.2l-.21-.58.11-4.2a1.17,1.17,0,0,1,.29.33l2.83,4.73.09.35A5.3,5.3,0,0,1,18.77,59.2Zm4.48-.12L23,58.8,20.3,54a1.39,1.39,0,0,1-.14-.42l3.74,2,.4.47A5.28,5.28,0,0,1,23.25,59.08Z"/><path class="cls-18" d="M17.59,43.39c-3.95-2.28-7.17-.45-7.19,4.09a15.75,15.75,0,0,0,7.14,12.36c3.95,2.28,7.17.45,7.19-4.09A15.78,15.78,0,0,0,17.59,43.39Zm5.13,6.16A13.68,13.68,0,0,1,24.31,55H23.9L20,52.6a1.32,1.32,0,0,1-.53-.74v0c-.08-.3-.05-.56.11-.66l2.7-1.71Zm-4.59-5.37A14,14,0,0,1,22,48.31l-.14.42L19,50.17a.43.43,0,0,1-.39-.05,1.2,1.2,0,0,1-.26-.21v0a1.26,1.26,0,0,1-.37-.81l-.1-4.55Zm-5.66-.6.44.41,2.66,4.78a1,1,0,0,1,.1.8v0a.34.34,0,0,1-.52.12l-3.91-2.13-.4-.47A4.66,4.66,0,0,1,12.47,43.58Zm-.06,10.1a13.68,13.68,0,0,1-1.59-5.41h.41l3.88,2.36a1.32,1.32,0,0,1,.53.74v0c.09.3,0,.56-.1.66l-2.71,1.71ZM17,59.05a14,14,0,0,1-3.88-4.13l.14-.42,2.83-1.44a.44.44,0,0,1,.39,0,1.16,1.16,0,0,1,.25.21l0,0a1.31,1.31,0,0,1,.37.81l.09,4.55Zm.2-10.47c0,.27-.16.41-.39.38h0a.75.75,0,0,1-.24-.08,1.25,1.25,0,0,1-.39-.4l-2.83-4.73-.13-.58a4.78,4.78,0,0,1,3.91.43l.21.58Zm.34,10.81h0l0,0Zm0-15.56h0l0,0ZM18,59.64l-.21-.59.12-4.41c0-.26.16-.4.38-.37h0a.81.81,0,0,1,.25.08,1.13,1.13,0,0,1,.38.4l2.83,4.73.14.58A4.81,4.81,0,0,1,18,59.64Zm4.63,0-.43-.41-2.66-4.78a.88.88,0,0,1-.1-.8v0a.34.34,0,0,1,.52-.12l3.91,2.13.4.47A4.63,4.63,0,0,1,22.65,59.65Z"/><path class="cls-14" d="M17.54,49.73a3.56,3.56,0,0,1,1.62,2.81c0,1-.73,1.45-1.63.93a3.54,3.54,0,0,1-1.62-2.81C15.91,49.63,16.64,49.21,17.54,49.73Z"/><path class="cls-15" d="M17.71,53.34a3.58,3.58,0,0,1-1.62-2.81,1.27,1.27,0,0,1,.33-.93,1.12,1.12,0,0,0-.51,1.06,3.54,3.54,0,0,0,1.62,2.81,1.05,1.05,0,0,0,1.3,0A1.17,1.17,0,0,1,17.71,53.34Z"/></g><path class="cls-19" d="M80.94,82.56,42.25,59.74l-12.78.07a24.45,24.45,0,0,1-.68,3.33L91.44,99.38v-4Z"/><path class="cls-20" d="M175.84,83.1s.31-11-.21-16a5.57,5.57,0,0,0-2.26-3.94L159.18,52.85s-14.77-15.92-20-21.16a14.64,14.64,0,0,0-3-2.3l-29-16.7a14.23,14.23,0,0,0-5-1.77c-4.66-.7-15.38-1.36-15.88-1.57-4.6-2-31.07-12.81-44.46-8.23,0,0-19.42,6.91-31,15.73a24.32,24.32,0,0,0-9.51,18c0,.22,0,.41-.05.57l-.41.3a2.56,2.56,0,0,0-.78,1.64c-.58,3.15,2.26,6.74,5,8.35l.56.32v-.11c.41-6.87,5.32-9.77,11.5-6.44l.4.22c6.33,3.66,11.56,12.54,11.87,20.19l62,35.67c.39-6.9,5.32-9.8,11.51-6.47l.4.22c6.25,3.61,11.43,12.31,11.85,19.9l16.48,8a6.67,6.67,0,0,0,4.7,0c12.85-4.49,42.75-22.44,42.31-26.09l.14-4.06C178.85,85.07,175.84,83.1,175.84,83.1Zm-45.26-41a42,42,0,0,0,8.12-6.35,35.94,35.94,0,0,1,9.06,14.46Z"/><path class="cls-21" d="M91.56,94.57,40.79,65.32s.63-15.45.83-18.73c.11-1.72,2.38-8.44,2.43-8.57l.75.21S42.51,44.44,42.38,47c-.17,3.12-.88,17-.77,18L72.33,82.77v-20L75,55.47l.54.35-2.6,7.36V83.11L91.66,93.92C91.62,94.14,91.59,94.35,91.56,94.57Z"/><path class="cls-21" d="M107.22,74.28l-1.38,5.1V91.05c.2.16.39.33.59.51l0-11.73,1.35-5.2Z"/><path class="cls-22" d="M22.6,32.4c7.78,4.06,14.24,3.07,19.61,2.41,9.79-1.2,22.58-2.39,26.14-2.72a3.05,3.05,0,0,1,1.8.38c5.35,3,26.67,15.46,33.62,19.82A10.63,10.63,0,0,1,107.33,56c3.94,6.82,11.45,19.63,13.3,22.16,3.07,4.82,6.31,9.15,12.2,11.72a9,9,0,0,0,6.82.12c13.11-5,33.27-19.22,35.53-24.46a5.58,5.58,0,0,0-1.81-2.31L159.18,52.85s-14.77-15.92-20-21.16a14.64,14.64,0,0,0-3-2.3l-29-16.7a14.23,14.23,0,0,0-5-1.77c-4.66-.7-15.38-1.36-15.88-1.57-4.6-2-31.07-12.81-44.46-8.23,0,0-19.42,6.91-31,15.73l0,0C6.49,22.2,17.62,29.8,22.6,32.4Zm108,9.69c.8-.51,1.55-1,2.26-1.5l.23-.16c.65-.45,1.25-.89,1.83-1.34.21-.15.4-.31.6-.46.41-.33.81-.66,1.2-1l.51-.45c.52-.47,1-1,1.49-1.44,0,0,0,0,.05,0,.29-.29.59-.59.85-.88a170.53,170.53,0,0,1,16.58,18.78,2.3,2.3,0,0,1,.06,2.68c-6.57,9.21-22.16,16.19-31.73,18.8A4.1,4.1,0,0,1,120,73.42L107.32,53.49A131.86,131.86,0,0,0,130.58,42.09Z"/><path class="cls-23" d="M44.25,37.7,108,74.39c0-6.68-4.48-19.79-10-23.31C91.09,46.65,76.23,38,70.69,34.76a3.46,3.46,0,0,0-2.18-.45C63.68,34.92,45.35,37.24,44.25,37.7Z"/><path class="cls-23" d="M82.7,10.48c-4.94,1-23.37,5.77-40.05,23.05l25.74-2.77C88,15.28,101.33,11.88,101.33,11.88,97.21,11.21,83.31,10.36,82.7,10.48Z"/><path class="cls-24" d="M124.51,75.17c9.57-2.61,25.16-9.59,31.73-18.8a2.3,2.3,0,0,0-.06-2.68A170.53,170.53,0,0,0,139.6,34.91c-6,6.8-22.91,15.29-32.28,18.58L120,73.42A4.1,4.1,0,0,0,124.51,75.17Z"/><path class="cls-25" d="M175.84,83.1s0-1.07,0-2.7c0-1.31,0-3,0-4.71,0-.43,0-.88,0-1.32,0-1.77,0-3.57-.13-5.12,0-.77-.1-1.49-.16-2.11a7.1,7.1,0,0,0-.21-1l-.12-.33-.12-.28c-2.23,5.18-21.53,19.15-34.45,24.22A17,17,0,0,1,128,89.59C103.55,79.36,9.62,33.76,7.28,21.85c-.07-.5-.15-1-.23-1.41L7,20.5A24.51,24.51,0,0,0,1.32,34.85c0,.22,0,.41-.05.57l-.41.3a2.56,2.56,0,0,0-.78,1.64c-.58,3.15,2.26,6.74,5,8.35l.56.32v-.11c.41-6.87,5.32-9.77,11.5-6.44l.4.22c6.33,3.66,11.56,12.54,11.87,20.19l62,35.67c.39-6.9,5.32-9.8,11.51-6.47l.4.22c6.25,3.61,11.43,12.31,11.85,19.9l16.48,8a6.67,6.67,0,0,0,4.7,0c12.85-4.49,42.75-22.44,42.31-26.09l.14-4.06C178.85,85.07,175.84,83.1,175.84,83.1Z"/><path class="cls-26" d="M45.47,37.91,108.16,74l-.63.37h0a25.78,25.78,0,0,0-.61-5.16,41.91,41.91,0,0,0-1.35-5.06,37,37,0,0,0-4.48-9.43,12.45,12.45,0,0,0-3.62-3.61l-4.54-2.71L83.84,43l-9.08-5.4c-1.5-.89-3.06-1.85-4.52-2.67a3.84,3.84,0,0,0-2.39-.17l-2.62.34L54.75,36.5l-5.23.73C48.19,37.44,46.77,37.67,45.47,37.91Zm-1.38-.6c1.89-.46,3.54-.62,5.31-.89l5.25-.72,10.49-1.34L67.76,34a4.59,4.59,0,0,1,2.79.24c1.61.91,3,1.82,4.58,2.72l9.06,5.45,9.07,5.44,4.53,2.72a13.36,13.36,0,0,1,3.84,3.76,37.51,37.51,0,0,1,4.65,9.57,45.32,45.32,0,0,1,1.43,5.13,27.86,27.86,0,0,1,.67,5.32h0a.42.42,0,0,1-.4.43.4.4,0,0,1-.22-.06h0L44,38.07,44,38a.39.39,0,0,1-.14-.54A.37.37,0,0,1,44.09,37.31Z"/><path class="cls-26" d="M124.39,74.75A77,77,0,0,0,139.14,69a82.83,82.83,0,0,0,8.21-4.78,38.69,38.69,0,0,0,3.13-2.4,34.86,34.86,0,0,0,2.89-2.68c.44-.49.89-1,1.31-1.46l1.2-1.53a1.85,1.85,0,0,0,.25-1.55,2,2,0,0,0-.39-.73l-.59-.8c-1.59-2.12-3.26-4.18-5-6.19-3.45-4-7.16-7.82-10.86-11.65h.61c-.54.53-1,1.11-1.62,1.61s-1.12,1-1.72,1.48q-1.75,1.42-3.63,2.68c-2.49,1.7-5.08,3.22-7.71,4.66a136.4,136.4,0,0,1-17.79,8.21l.19-.54,7.75,12.15,3.87,6.08,1,1.51a3.86,3.86,0,0,0,1.1,1.2A3.71,3.71,0,0,0,124.39,74.75Zm.24.84a4.57,4.57,0,0,1-3.8-.66,4.74,4.74,0,0,1-1.32-1.44l-1-1.52-3.85-6.1L107,53.68a.36.36,0,0,1,.11-.5l.07,0a136.51,136.51,0,0,0,17.72-8.07c2.61-1.45,5.16-3,7.61-4.7,1.22-.85,2.41-1.74,3.55-2.69.59-.46,1.12-1,1.66-1.47s1-1.05,1.55-1.57v0a.42.42,0,0,1,.59,0h0c3.77,3.76,7.45,7.62,10.94,11.66,1.73,2,3.42,4.09,5,6.23l.59.8a2.76,2.76,0,0,1,.53,1,2.72,2.72,0,0,1-.36,2.27l-1.25,1.61c-.44.52-.91,1-1.36,1.51a36.38,36.38,0,0,1-2.95,2.74,39.84,39.84,0,0,1-3.2,2.45,82.91,82.91,0,0,1-8.31,4.84A78.22,78.22,0,0,1,124.63,75.59Z"/><path class="cls-26" d="M82.77,10.82A59.34,59.34,0,0,0,72,14.08c-1.74.69-3.46,1.45-5.14,2.3-.84.42-1.68.83-2.5,1.3s-1.66.88-2.45,1.38l-3.83,2.19-2.34,1.57c-.78.51-1.52,1.1-2.28,1.65S52,25.58,51.24,26.19L49.06,28,47,29.85c-1.42,1.24-2.7,2.62-4.05,3.92h0l-.29-.59L55.47,31.8l12.88-1.29h0l-.13,0c2.41-1.87,6.26-4.43,8.77-6.18s5-3.43,7.68-5,5.3-3.05,8.06-4.36a50.81,50.81,0,0,1,8.54-3.31h0V12c-3.08-.38-6.2-.56-9.3-.78L87.35,11,85,10.87l-1.17,0C83.49,10.82,83,10.81,82.77,10.82Zm-.14-.68a10.23,10.23,0,0,1,1.25,0l1.17.06,2.33.15,4.67.35c3.11.25,6.21.51,9.31,1a.16.16,0,0,1,.12.18.15.15,0,0,1-.12.12h0a51,51,0,0,0-8.45,3.34c-2.74,1.32-5.39,2.82-8,4.4s-5.13,3.27-7.63,5l-5.12,3.39L68.54,31l-.13.05h0L55.55,32.5,42.69,33.88a.35.35,0,0,1-.4-.3.38.38,0,0,1,.1-.29h0c1.37-1.31,2.65-2.7,4.09-3.94l2.11-1.9,2.2-1.8c.73-.61,1.49-1.17,2.25-1.73s1.51-1.15,2.3-1.67l2.36-1.58,3.85-2.2c.8-.51,1.65-.93,2.48-1.4s1.67-.88,2.52-1.31c1.69-.85,3.43-1.62,5.19-2.33A61.44,61.44,0,0,1,82.63,10.14Z"/><path class="cls-26" d="M82.7,10.48c-4.94,1-23.37,5.77-40.05,23.05l3.06-.29C61.19,16.59,84.89,10.55,84.89,10.55,84.08,10.52,82.8,10.46,82.7,10.48Z"/><path class="cls-27" d="M139.12,110.46c10.42-3.51,32.15-17.09,39.63-24-.43-1.63-2.53-3.12-2.84-3.33-6.53,9.71-36.36,25.7-43.12,25.7-1.92,0-14.46-3.94-14.46-3.94s10.36,4.71,13.26,5.62A12.19,12.19,0,0,0,139.12,110.46Z"/><path class="cls-28" d="M134.43,94.29Z"/><path class="cls-28" d="M142.53,92.67c-.2-.69-.78-.82-1.46-.58-1.08.39-4.53,2-6.9,1.89a2.2,2.2,0,0,0-1.41.4c-1.57,1.21-4.22,4.35-4.76,5.84-.29.81,2.93,1.65,3.35,1.78,2.27.68,4.88.09,7-.75,1.55-.6,4.61-2.16,4.61-4.23A21.54,21.54,0,0,0,142.53,92.67Z"/><path class="cls-28" d="M170.39,75.39c.09-1.12,1.36-1.85,2.37-2.79a17.33,17.33,0,0,0,3-3.26c.43.36.72,7,.21,7.92-.95,1.7-4,3.83-4.67,3C170.54,79.23,170.26,77,170.39,75.39Z"/><path class="cls-29" d="M165.32,86.59a102.74,102.74,0,0,1-14.74,8.68l-3-7.28c8.65-4.82,15.09-8.87,19-12.23Z"/><path class="cls-30" d="M165.89,76.39l-1.23,9.91a104.37,104.37,0,0,1-14.28,8.46l.2.51a102.74,102.74,0,0,0,14.74-8.68l1.35-10.83Z"/><path class="cls-31" d="M150.68,86.25V91l11.93-7v-5C159.86,80.89,155.09,83.72,150.68,86.25Z"/><path class="cls-32" d="M6.17,21.38c0,.16-.28,1.92,1.86,4.55A2.41,2.41,0,0,1,6.28,30,4,4,0,0,1,3,27.13C2.72,25.32,4.52,21.66,6.17,21.38Z"/><path class="cls-33" d="M8,25.93A10.4,10.4,0,0,1,7,24.4a11.51,11.51,0,0,1-2.38,4.9A3.43,3.43,0,0,0,6.28,30,2.41,2.41,0,0,0,8,25.93Z"/><path class="cls-34" d="M98.3,80.69l-1.57-.91a2,2,0,0,1-1-1.54v-2c0-.54.44-.73,1-.42l1.57.91a2,2,0,0,1,1,1.55v2C99.28,80.82,98.84,81,98.3,80.69Z"/><path class="cls-35" d="M99.56,79.87l-4.09-2.36a1.61,1.61,0,0,1-.77-1.23h0c0-.43.34-.57.77-.33l4.09,2.36a1.64,1.64,0,0,1,.77,1.23h0C100.33,80,100,80.11,99.56,79.87Z"/><path class="cls-34" d="M68.22,63.43l-1.57-.91a2,2,0,0,1-1-1.54V59c0-.54.44-.73,1-.42l1.57.91a2.06,2.06,0,0,1,1,1.55v2C69.2,63.56,68.76,63.75,68.22,63.43Z"/><path class="cls-36" d="M69.48,62.61l-4.09-2.36A1.64,1.64,0,0,1,64.62,59h0c0-.43.35-.57.77-.33l4.09,2.36a1.61,1.61,0,0,1,.77,1.23h0C70.25,62.71,69.91,62.85,69.48,62.61Z"/><polygon class="cls-26" points="82.7 42.04 79.56 39.99 73.84 54.75 77.08 56.67 82.7 42.04"/><polygon class="cls-26" points="104.24 59.75 103.36 58.05 98.88 69.4 100.06 70.1 104.24 59.75"/><path class="cls-37" d="M43.3,1.67h0Z"/><path class="cls-37" d="M43.3,1.67h0Z"/><path class="cls-26" d="M43.52,40.64l2.55-1.37a7.24,7.24,0,0,1,3.2-2.82l-6.05.5Z"/><path class="cls-38" d="M42.76,36.11c-.82-.22-7.12,4.4-7,5.14.26,1.41,2.71,2.58,3.22,2.54,1.32-.1,3.67-2.66,4-3.08.41-.62,1.23-2.9.87-4C43.72,36.44,42.94,36.16,42.76,36.11Z"/><path class="cls-39" d="M43.5,36.43c-.82-.21-7.12,4.4-7,5.14a3.18,3.18,0,0,0,2.56,2.22c1.31-.11,4.33-2.34,4.61-2.76C44.21,40.25,44.36,36.66,43.5,36.43Z"/><path class="cls-40" d="M39.05,43.44a2.93,2.93,0,0,1-2.19-1.93c.24-.7,5.63-4.65,6.57-4.73a.84.84,0,0,1,.17.34,7,7,0,0,1-.2,3.72C43.17,41.17,40.24,43.34,39.05,43.44Z"/><path class="cls-41" d="M41,2.62s2.35-.15,5.88,0c1.77.07,3.83.18,6,.41s4.53.55,6.86,1,4.62,1,6.76,1.54c1.07.29,2.09.58,3,.92s1.88.61,2.69,1a40.55,40.55,0,0,1,3.92,1.7l1.46.7-1.5-.59L74.4,8.51l-2.28-.77c-.82-.3-1.75-.54-2.71-.83s-2-.54-3.06-.82c-2.12-.56-4.42-1-6.73-1.44S55,3.87,52.82,3.6s-4.22-.49-6-.62C43.33,2.67,41,2.62,41,2.62Z"/><path class="cls-42" d="M18.05,14.88a6.78,6.78,0,0,0,.49,1.21,15.22,15.22,0,0,0,1.87,2.85,20.59,20.59,0,0,0,1.51,1.71c.6.55,1.2,1.15,1.88,1.71A26.11,26.11,0,0,0,26,24a26.35,26.35,0,0,0,2.36,1.52c.79.52,1.63,1,2.45,1.39s1.64.85,2.45,1.21,1.57.76,2.34,1l2.12.86c1.33.53,2.45.91,3.23,1.2l1.23.45-1.26-.34c-.8-.23-2-.46-3.33-.93l-2.18-.76c-.79-.25-1.57-.62-2.4-1S31.3,28,30.47,27.5s-1.7-.85-2.51-1.37a25.93,25.93,0,0,1-2.38-1.59,25.24,25.24,0,0,1-2.17-1.72A23,23,0,0,1,21.55,21c-.53-.64-1.05-1.22-1.45-1.82a13.45,13.45,0,0,1-1.67-3A7.23,7.23,0,0,1,18.05,14.88Z"/></g></g></g></g></svg>