<svg xmlns="http://www.w3.org/2000/svg" xmlns:xlink="http://www.w3.org/1999/xlink" viewBox="0 0 172.13 116.73"><defs><style>.cls-1{isolation:isolate;}.cls-2{fill:#1b1b1b;}.cls-3{fill:#363636;}.cls-4{fill:#353333;}.cls-5{fill:#302d2d;}.cls-6{fill:#2c2929;}.cls-7{fill:#242222;}.cls-8{fill:#4c4747;}.cls-9{fill:#3a3636;}.cls-10{fill:#202020;}.cls-11{fill:#2d2d2d;}.cls-12{fill:#ceccb8;}.cls-13{fill:#aaa797;}.cls-14{fill:#272727;}.cls-15{fill:#8e352b;}.cls-16{fill:#494949;}.cls-17{fill:#3b3b3b;}.cls-18{fill:#78aeda;opacity:0.2;}.cls-19,.cls-30{opacity:0.6;}.cls-19,.cls-23,.cls-24,.cls-30{mix-blend-mode:soft-light;}.cls-20{fill:#b34236;}.cls-21{fill:#353539;}.cls-22{fill:#344450;}.cls-23{opacity:0.3;}.cls-24,.cls-28{opacity:0.8;}.cls-25{fill:#fff;}.cls-26{fill:#9b3831;}.cls-27{fill:#7f2d26;}.cls-29{fill:#3a434b;}.cls-31{fill:#435b6d;}.cls-32{fill:#98bbd3;}.cls-33{fill:#7ca0ba;}.cls-34{fill:#b9def5;}.cls-35{fill:#7c0b13;}.cls-36{fill:#cf402c;}.cls-37{fill:#e5e5e7;}.cls-38{fill:#b1c0d4;}.cls-39{fill:#3f3f3f;}.cls-40{fill:#970000;}.cls-41{fill:#ad1717;}.cls-42{fill:#9b0000;}.cls-43{fill:url(#linear-gradient);}.cls-44{fill:#211915;}.cls-45{fill:#be0811;}</style><linearGradient id="linear-gradient" x1="12.29" y1="84.21" x2="29.36" y2="91.75" gradientUnits="userSpaceOnUse"><stop offset="0" stop-color="#fded00"/><stop offset="0.27" stop-color="#fcea00"/><stop offset="0.45" stop-color="#f9e200"/><stop offset="0.6" stop-color="#f3d300"/><stop offset="0.74" stop-color="#ebbd00"/><stop offset="0.86" stop-color="#e0a200"/><stop offset="0.98" stop-color="#d38100"/><stop offset="1" stop-color="#d17b00"/></linearGradient></defs><title>Recurso 33</title><g class="cls-1"><g id="Capa_2" data-name="Capa 2"><g id="personajes"><path d="M106.09,37.63,115.84,32a4.06,4.06,0,0,1,3.4-.52l11.6,3.85a1.59,1.59,0,0,1,.95,1.43l.28,2.9v2a2.7,2.7,0,0,1-1.24,2.13l-5.19,3a2.07,2.07,0,0,1-2.41.08l-.77-.65-.21-.14a1.75,1.75,0,0,0-1-.2,3.39,3.39,0,0,0-1.25.43l-12.39,7.15c-.68.4-1.29.11-1.37-.63L105,39.69A2.35,2.35,0,0,1,106.09,37.63Z"/><path d="M157.7,48.21,132.2,62.93s-.7-13.53,13.16-21.54S157.7,48.21,157.7,48.21Z"/><path class="cls-2" d="M161.3,44.09a10.89,10.89,0,0,1,1.23,5.42v1.9l-5.16-3v-1.9a11,11,0,0,0-1.18-5.33A5.76,5.76,0,0,1,161.3,44.09Z"/><path class="cls-3" d="M150.35,39.52l1.27-.74c4-2.3,7.57-2.35,10-.58l7.84-4.52a1.62,1.62,0,0,1,2.65,1.53V37.9a15.29,15.29,0,0,1-6.9,12l-2.7,1.56v-1.9a10.89,10.89,0,0,0-1.23-5.42c-2.38-4-7.76-4.09-13.57,1.08-5.4,4.81-8.91,11.47-8.91,18.7v.58l-1.42.81a2,2,0,0,1-1,.27V62.39C136.39,53.89,143,43.78,150.35,39.52Z"/><path class="cls-3" d="M150.35,39.52l1.27-.74c4-2.3,7.57-2.35,10-.58l7.84-4.52a1.62,1.62,0,0,1,2.65,1.53V37.9a15.29,15.29,0,0,1-6.9,12l-2.7,1.56v-1.9a10.89,10.89,0,0,0-1.23-5.42c-2.38-4-7.76-4.09-13.57,1.08-5.4,4.81-8.91,11.47-8.91,18.7v.58l-1.42.81a2,2,0,0,1-1,.27V62.39C136.39,53.89,143,43.78,150.35,39.52Z"/><polygon class="cls-4" points="142.85 41.46 111.45 23.33 114.27 22.01 140.72 37.28 142.85 41.46"/><polygon points="122.97 38.44 119.77 36.6 126.61 41.26 130.45 43.48 122.97 38.44"/><g class="cls-1"><path class="cls-5" d="M116.74,28.45c1.93-1.77,4.55-2.32,6.53-1.18l.23.14.77.51-.22-.14a5.63,5.63,0,0,0-6.49,1.14Z"/></g><path class="cls-6" d="M113.4,55.76l-10.05,5.81V74.1L123.8,62.3v-.53c0-3.32-1.16-5.64-3-6.73S116.28,54.1,113.4,55.76Z"/><path class="cls-7" d="M119.43,50.75a6.14,6.14,0,0,1-.76,3.16h0c-1.79-.66-4.09-.36-6.6,1.09Z"/><path class="cls-8" d="M88.29,48.5l13.62-7.86a3,3,0,0,0,1.37-2.37V36.94a1.77,1.77,0,0,0-.74-1.63,1.45,1.45,0,0,0-1.17-.09,21.36,21.36,0,0,0-6.79,3.6,92.3,92.3,0,0,1-7.84,5.59Z"/><path class="cls-9" d="M94.58,38.82a21.36,21.36,0,0,1,6.79-3.6,1.45,1.45,0,0,1,1.17.09l-11.9-6.87a1.44,1.44,0,0,0-1.17-.09A21.46,21.46,0,0,0,82.68,32a92.3,92.3,0,0,1-7.84,5.59l1.55,4.09,11.9,6.87-1.55-4.09A92.3,92.3,0,0,0,94.58,38.82Z"/><path class="cls-8" d="M84.14,28.71h0a1.84,1.84,0,0,1,2-.47,1,1,0,0,1,.31.26,13.18,13.18,0,0,1,1.75,2.94,18.69,18.69,0,0,1,1.37,5.1,15.65,15.65,0,0,0,.68,3.05l.66,2a48.57,48.57,0,0,1-4.18,2.84L82.49,33.05C82,31.83,82.81,29.79,84.14,28.71Z"/><path class="cls-9" d="M84.14,28.71h0a1.84,1.84,0,0,1,2-.47L74.26,21.37a1.86,1.86,0,0,0-2,.47h0c-1.33,1.08-2.11,3.13-1.65,4.34l4.25,11.36,11.9,6.87L82.49,33.05C82,31.83,82.81,29.79,84.14,28.71Z"/><path class="cls-7" d="M104.86,42.34a6.14,6.14,0,0,1-.76,3.16h0c-1.79-.66-4.09-.36-6.6,1.09Z"/><path class="cls-8" d="M105.81,58.61l13.62-7.87a3,3,0,0,0,1.36-2.36V47.05a1.77,1.77,0,0,0-.73-1.63,1.47,1.47,0,0,0-1.18-.09,21.46,21.46,0,0,0-6.79,3.6,93,93,0,0,1-7.84,5.59Z"/><path class="cls-9" d="M112.09,48.93a21.46,21.46,0,0,1,6.79-3.6,1.47,1.47,0,0,1,1.18.09l-11.9-6.87a1.45,1.45,0,0,0-1.17-.09,21.5,21.5,0,0,0-6.8,3.6,92.18,92.18,0,0,1-7.83,5.59l1.55,4.09,11.9,6.87-1.56-4.09A93,93,0,0,0,112.09,48.93Z"/><path class="cls-8" d="M101.66,38.82h0a1.84,1.84,0,0,1,2-.47,1,1,0,0,1,.31.26,13.57,13.57,0,0,1,1.75,2.94,19.06,19.06,0,0,1,1.37,5.1,16.42,16.42,0,0,0,.67,3.05l.67,2a48.65,48.65,0,0,1-4.19,2.84L100,43.16C99.55,41.94,100.33,39.9,101.66,38.82Z"/><path class="cls-9" d="M101.66,38.82h0a1.84,1.84,0,0,1,2-.47L91.78,31.48a1.86,1.86,0,0,0-2,.47h0c-1.33,1.08-2.11,3.12-1.66,4.34l4.26,11.36,11.89,6.87L100,43.16C99.55,41.94,100.33,39.9,101.66,38.82Z"/><path d="M70.62,96.7l-23.2,11.49S45,94.42,58.82,86.42,70.62,96.7,70.62,96.7Z"/><path class="cls-2" d="M75.81,98.85v1.58a2.47,2.47,0,0,1-1.23-.33l-4.19-2.41a1.73,1.73,0,0,1-.87-1.5v-.9a11.58,11.58,0,0,0-.69-4.16C72.87,90.71,75.79,93.66,75.81,98.85Z"/><path class="cls-10" d="M137.69,48.84a18.27,18.27,0,0,1,6.37-6.72,8.23,8.23,0,0,1,4.2-1.24l1.39,0h0a4.83,4.83,0,0,1,2.31.62l4.42,2.58c-1.87-1.07-4.31-.73-6.74.68a19.41,19.41,0,0,0-6.73,7.09c-3.7,6.42-3.68,13.35.05,15.47l-4.43-2.57a6.92,6.92,0,0,1-2.47-2.93C134.32,59,134.85,53.74,137.69,48.84Z"/><path class="cls-11" d="M142.92,51.89a19.41,19.41,0,0,1,6.73-7.09c2.43-1.41,4.87-1.75,6.74-.68a7.07,7.07,0,0,1,2.68,4.35c.24,1.09-12,19.22-12,19.22a7.39,7.39,0,0,1-4.07-.33C139.17,65.15,139.22,58.31,142.92,51.89Z"/><path class="cls-10" d="M144,67.18c3.52,2,9.24-1.27,12.76-7.37s3.52-12.7,0-14.73-9.24,1.26-12.76,7.36S140.44,65.14,144,67.18Z"/><path d="M146.35,63c2.2,1.28,5.78-.79,8-4.61s2.2-8,0-9.22-5.79.79-8,4.61S144.14,61.77,146.35,63Z"/><path class="cls-12" d="M146,63.59c2.38,1.37,6.24-.86,8.62-5s2.38-8.57,0-9.94-6.24.85-8.62,5S143.66,62.21,146,63.59Zm.32-9.77a12.42,12.42,0,0,1,2.5-3.12v3.21a7.07,7.07,0,0,0-.58.82l-2.65.54A13.12,13.12,0,0,1,146.35,53.82Zm8.71-4-2.64,2.52a1.67,1.67,0,0,0-.59-.16V49a3.26,3.26,0,0,1,2.51.24A2.78,2.78,0,0,1,155.06,49.82Zm-.31,7.84L153.12,56a6.45,6.45,0,0,0,.22-.92L156,52.56A10.8,10.8,0,0,1,154.75,57.66Zm-6.4,5.72L150,59.84a4.48,4.48,0,0,0,.72-.42l1.64,1.66A7.45,7.45,0,0,1,148.35,63.38Zm-3.65-4.3,2.64-.53a2.69,2.69,0,0,0,.22.66l-1.63,3.54A4.52,4.52,0,0,1,144.7,59.08Z"/><path class="cls-13" d="M148.06,53.45v-2c.26-.27.52-.53.79-.77v3.21a7.07,7.07,0,0,0-.58.82l-2.65.54c.1-.23.2-.45.31-.68l1.55-.31A6.43,6.43,0,0,1,148.06,53.45Z"/><path class="cls-13" d="M146.73,58.67l.61-.12a2.69,2.69,0,0,0,.22.66l-1.63,3.54a3.26,3.26,0,0,1-.64-.78l1.49-3.22A.56.56,0,0,1,146.73,58.67Z"/><path class="cls-13" d="M156,52.56a10.8,10.8,0,0,1-1.23,5.1l-.68-.69a11.46,11.46,0,0,0,1.08-3.61Z"/><path class="cls-13" d="M151.55,60.62l-1.05-1.06.2-.14,1.64,1.66a7.45,7.45,0,0,1-4,2.3l.35-.77A8.56,8.56,0,0,0,151.55,60.62Z"/><path class="cls-13" d="M153.92,49a4,4,0,0,1,.42.2,2.78,2.78,0,0,1,.72.61l-2.64,2.52a1.67,1.67,0,0,0-.59-.16v-.49l2.44-2.33A2.89,2.89,0,0,0,153.92,49Z"/><path class="cls-14" d="M149.8,57.06c.3.17.78-.11,1.08-.62s.3-1.07,0-1.24-.78.1-1.08.62S149.51,56.89,149.8,57.06Z"/><path class="cls-14" d="M150,54.4c.17.1.45-.06.62-.36s.17-.61,0-.71-.45.06-.62.36S149.86,54.3,150,54.4Z"/><path class="cls-14" d="M151.56,56.75a1,1,0,0,0-.5.71c0,.3.12.47.36.37a1,1,0,0,0,.51-.71C152,56.82,151.8,56.66,151.56,56.75Z"/><path class="cls-14" d="M149.62,58.29c0-.25-.26-.31-.5-.13a.94.94,0,0,0-.36.79c0,.25.26.31.5.13A.93.93,0,0,0,149.62,58.29Z"/><path class="cls-14" d="M148.68,56.84a.79.79,0,0,0,.19-.79c-.11-.19-.37-.14-.59.12a.77.77,0,0,0-.19.79C148.2,57.14,148.46,57.09,148.68,56.84Z"/><path class="cls-14" d="M151.81,54.35c-.11.31,0,.57.19.57s.48-.25.59-.56,0-.57-.19-.57S151.92,54,151.81,54.35Z"/><path class="cls-10" d="M53,97.75A18.19,18.19,0,0,1,59.35,91a8,8,0,0,1,4.2-1.24l1.39,0h0a4.83,4.83,0,0,1,2.31.62L71.68,93c-1.87-1.06-4.31-.72-6.74.69a19.33,19.33,0,0,0-6.73,7.09c-3.7,6.42-3.68,13.34,0,15.47l-4.43-2.57a6.92,6.92,0,0,1-2.47-2.94C49.61,107.87,50.14,102.65,53,97.75Z"/><path class="cls-11" d="M58.21,100.8a19.33,19.33,0,0,1,6.73-7.09C67.37,92.3,69.81,92,71.68,93a7.09,7.09,0,0,1,2.68,4.36c.24,1.09-12,19.21-12,19.21a7.4,7.4,0,0,1-4.07-.32C54.46,114.06,54.51,107.22,58.21,100.8Z"/><path class="cls-10" d="M59.25,116.08c3.53,2,9.24-1.26,12.76-7.36S75.53,96,72,94s-9.23,1.27-12.76,7.37S55.73,114.05,59.25,116.08Z"/><path d="M61.64,112c2.2,1.27,5.78-.79,8-4.61s2.2-8,0-9.22-5.79.79-8,4.61S59.43,110.68,61.64,112Z"/><path class="cls-12" d="M61.32,112.49c2.38,1.38,6.24-.85,8.62-5s2.38-8.57,0-10-6.24.86-8.62,5S59,111.12,61.32,112.49Zm.32-9.76a12.66,12.66,0,0,1,2.5-3.13v3.21a7.2,7.2,0,0,0-.58.83l-2.65.53A13.92,13.92,0,0,1,61.64,102.73Zm8.71-4-2.64,2.52a1.47,1.47,0,0,0-.59-.15V97.88a3.26,3.26,0,0,1,2.51.24A3,3,0,0,1,70.35,98.72ZM70,106.56l-1.63-1.65a6.45,6.45,0,0,0,.22-.92l2.64-2.52A10.74,10.74,0,0,1,70,106.56Zm-6.4,5.73,1.63-3.54a4.48,4.48,0,0,0,.72-.42L67.63,110A7.47,7.47,0,0,1,63.64,112.29ZM60,108l2.64-.54a2.64,2.64,0,0,0,.22.67l-1.63,3.54A4.53,4.53,0,0,1,60,108Z"/><path class="cls-13" d="M63.35,102.36v-2c.26-.28.52-.54.79-.78v3.21a7.2,7.2,0,0,0-.58.83l-2.65.53c.1-.22.2-.45.31-.67l1.55-.31A6.43,6.43,0,0,1,63.35,102.36Z"/><path class="cls-13" d="M62,107.58l.61-.13a2.64,2.64,0,0,0,.22.67l-1.63,3.54a3.26,3.26,0,0,1-.64-.78l1.49-3.22A.56.56,0,0,0,62,107.58Z"/><path class="cls-13" d="M71.27,101.47A10.74,10.74,0,0,1,70,106.56l-.67-.68a11.78,11.78,0,0,0,1.07-3.61Z"/><path class="cls-13" d="M66.84,109.53l-1-1.06.2-.14L67.63,110a7.47,7.47,0,0,1-4,2.31l.35-.77A8.86,8.86,0,0,0,66.84,109.53Z"/><path class="cls-13" d="M69.21,97.92a2.67,2.67,0,0,1,.42.2,3,3,0,0,1,.72.6l-2.64,2.52a1.47,1.47,0,0,0-.59-.15v-.5l2.44-2.32A2.32,2.32,0,0,0,69.21,97.92Z"/><path class="cls-14" d="M65.09,106c.3.18.78-.1,1.08-.62s.3-1.07,0-1.24-.78.11-1.08.62S64.8,105.79,65.09,106Z"/><path class="cls-14" d="M65.32,103.31c.17.1.45-.06.62-.36s.17-.62,0-.72-.45.07-.62.36S65.15,103.21,65.32,103.31Z"/><path class="cls-14" d="M66.85,105.66a.94.94,0,0,0-.5.71c0,.3.12.46.36.37a1,1,0,0,0,.51-.71C67.25,105.73,67.09,105.56,66.85,105.66Z"/><path class="cls-14" d="M64.91,107.2c0-.26-.26-.32-.5-.13a.93.93,0,0,0-.36.79c0,.25.26.31.5.13A.94.94,0,0,0,64.91,107.2Z"/><path class="cls-14" d="M64,105.75a.81.81,0,0,0,.19-.8c-.11-.18-.37-.13-.59.12a.79.79,0,0,0-.19.8C63.49,106.05,63.75,106,64,105.75Z"/><path class="cls-14" d="M67.1,103.25c-.11.32,0,.57.19.58s.49-.25.6-.57,0-.57-.2-.57S67.21,102.94,67.1,103.25Z"/><path class="cls-15" d="M44,113.13a1.65,1.65,0,0,0,2.47,1.37L49,113v-1.56c0-8.5,6-18.94,13.39-23.19l1.28-.74c7.37-4.25,13.39-.77,13.39,7.73v3.46L137,64.15s.17-1.35.17-2C137.12,57,140,50.33,143.6,46a21,21,0,0,1,5.63-4.58,10.82,10.82,0,0,1,4.4-1.43s.84.14,1.11.21l12.63-7.29a1.74,1.74,0,0,0,.84-1.82c-.68-3.56-1.83-5-5.71-4-6,1.52-20,6.6-20,6.6L117.5,24c-4-1.51-9.14-.68-14.39,2.35L52.28,55.74A6.37,6.37,0,0,0,50,58.09a10.76,10.76,0,0,0-1,2.5,145.8,145.8,0,0,0-5.08,30h0C43.52,97.1,43.71,105.16,44,113.13Zm62.11-75.5L115.84,32a4.06,4.06,0,0,1,3.4-.52l11.6,3.85a1.59,1.59,0,0,1,.95,1.43l.28,2.9v2a2.7,2.7,0,0,1-1.24,2.13l-5.19,3a2.07,2.07,0,0,1-2.41.08l-.77-.65a1.68,1.68,0,0,0-1.19-.34,3.39,3.39,0,0,0-1.25.43l-12.39,7.15c-.68.4-1.29.11-1.37-.63L105,39.69A2.35,2.35,0,0,1,106.09,37.63Z"/><path class="cls-16" d="M168.21,31.05c-.07-.33-.13-.64-.21-.94,3.26,1.94,4.13,2.79,4.13,5.1a1.62,1.62,0,0,0-2.65-1.53l-7.84,4.52a6.51,6.51,0,0,0-1.54-1.13l7.27-4.2A1.74,1.74,0,0,0,168.21,31.05Z"/><path class="cls-17" d="M103.6,39.34l1.48,15.13a1.07,1.07,0,0,0,.25.63c.23.36.68.44,1.21.13l13.32-7.69a1.65,1.65,0,0,1,1.94,0l1,.84a1.76,1.76,0,0,0,2.09,0l10.31-6a2,2,0,0,0,.92-1.6v-3.4l0-.34a2,2,0,0,0-1.2-1.78L119.79,30a4.48,4.48,0,0,0-3.81.56L104.85,37A2.67,2.67,0,0,0,103.6,39.34Zm2.49-1.71L115.84,32a4.06,4.06,0,0,1,3.4-.52l11.6,3.85a1.59,1.59,0,0,1,.95,1.43l.28,2.9v2a2.7,2.7,0,0,1-1.24,2.13l-5.19,3a2.07,2.07,0,0,1-2.41.08l-.77-.65a1.68,1.68,0,0,0-1.19-.34,3.39,3.39,0,0,0-1.25.43l-12.39,7.15c-.68.4-1.29.11-1.37-.63L105,39.69A2.35,2.35,0,0,1,106.09,37.63Z"/><path class="cls-2" d="M119.57,44.91a1.69,1.69,0,0,1,1,.2l1.7,1h0a1.77,1.77,0,0,0-1-.2,3.39,3.39,0,0,0-1.25.43l-12.39,7.15c-.68.4-1.29.11-1.37-.63l-.05-.51,12.1-7A3.15,3.15,0,0,1,119.57,44.91Z"/><path class="cls-2" d="M123.94,45.82l5.19-3a2.73,2.73,0,0,0,1.24-2.14v-2l-.29-2.9a2,2,0,0,0-.21-.77l1,.32a1.59,1.59,0,0,1,.95,1.43l.28,2.9v2a2.7,2.7,0,0,1-1.24,2.13l-5.19,3a2.07,2.07,0,0,1-2.41.08l-.76-.64A2.76,2.76,0,0,0,123.94,45.82Z"/><path class="cls-18" d="M106.09,37.63,115.84,32a4.06,4.06,0,0,1,3.4-.52l11.6,3.85a1.59,1.59,0,0,1,.95,1.43l.28,2.9v2a2.7,2.7,0,0,1-1.24,2.13l-5.19,3a2.07,2.07,0,0,1-2.41.08l-.77-.65-.21-.14a1.75,1.75,0,0,0-1-.2,3.39,3.39,0,0,0-1.25.43l-12.39,7.15c-.68.4-1.29.11-1.37-.63L105,39.69A2.35,2.35,0,0,1,106.09,37.63Z"/><polygon points="118.14 47.41 119.06 46.88 115.84 32 114.92 32.53 118.14 47.41"/><path class="cls-19" d="M101.21,38.2l1.47,15.08c.2,2.11.31,4.24.31,6.36V81.47c0,.55.39.78.87.5L133.78,64.7a1.65,1.65,0,0,0,.82-1.43V62.05a26.07,26.07,0,0,1,2.46-10.45l0-.07V37.92c0-.77,0-1.54-.11-2.3l0-.14a2,2,0,0,0-1.23-1.82L121,28.57c-2.71-1-5.06.12-7,1.27l-12,6.9A1.68,1.68,0,0,0,101.21,38.2Zm.91-1.2L114,30.15c1.94-1.12,4.23-2.23,6.85-1.24L135.46,34a2,2,0,0,1,1.23,1.82h0c.07.77.11,1.54.11,2.3V51.45a26.91,26.91,0,0,0-2.56,10.8v.89a1.64,1.64,0,0,1-.82,1.43L104,81.58c-.38.22-.68,0-.68-.39V59.47c0-2.12-.11-4.24-.31-6.35l-1.46-15A1.27,1.27,0,0,1,102.12,37Z"/><path class="cls-20" d="M121.66,25.64,117.5,24,77.14.73,80.73,2q8.26,4.13,17,9C106.3,15.85,114.29,20.77,121.66,25.64Z"/><path class="cls-3" d="M150.35,39.52l1.27-.74c4-2.3,7.57-2.35,10-.58l7.84-4.52a1.62,1.62,0,0,1,2.65,1.53V37.9a15.29,15.29,0,0,1-6.9,12l-2.7,1.56v-1.9a10.89,10.89,0,0,0-1.23-5.42c-2.38-4-7.76-4.09-13.57,1.08-5.4,4.81-8.91,11.47-8.91,18.7v.58l-1.42.81a2,2,0,0,1-1,.27V62.39C136.39,53.89,143,43.78,150.35,39.52Z"/><path class="cls-16" d="M157.72,36.17a8.21,8.21,0,0,1,3.92,2A6.72,6.72,0,0,0,157.86,37h0a11.93,11.93,0,0,0-6.24,1.82l-1.27.74c-7.37,4.26-14,14.37-14,22.87v3.14a2.08,2.08,0,0,1-1-.27l-.17-.1V61.7c0-8.5,6-18.94,13.39-23.19l1.28-.74C152.8,36.08,155.51,35.6,157.72,36.17Z"/><path class="cls-21" d="M97.7,11h0Q89,6.12,80.73,2l18,6.38a158.77,158.77,0,0,1,43.76,25.27l-20.8-8c-7.37-4.87-15.36-9.79-24-14.63Z"/><path class="cls-22" d="M99.05,8.65c1.55.55,3.07,1.14,4.57,1.8a159,159,0,0,1,16.89,8.6,157.78,157.78,0,0,1,18.62,12.8l-17.2-6.63a7.49,7.49,0,0,1-1.41-.72c-6.69-4.35-13.87-8.73-21.54-13-5.47-3.08-10.82-5.91-16-8.54Z"/><path class="cls-23" d="M108.73,58.53v4.14a.84.84,0,0,1-.37.64l-1.87,1.08c-.2.12-.37,0-.37-.22V60a.84.84,0,0,1,.37-.64l1.87-1.08C108.56,58.19,108.73,58.29,108.73,58.53Z"/><g class="cls-24"><path class="cls-25" d="M108.36,63.31l-1.87,1.08c-.2.12-.37,0-.37-.22v0l1.55-.87c.3-.17.69-.33.72-.78a7.74,7.74,0,0,1,.34-2.68v2.88A.84.84,0,0,1,108.36,63.31Z"/></g><path class="cls-23" d="M106.16,59.81h0l1.58-.91c.16-.09.29,0,.29.17v3.25a.66.66,0,0,1-.29.51l-1.62.93V60A.6.6,0,0,1,106.16,59.81Z"/><path class="cls-11" d="M107,59.91l-.87.5v3.53l.87-.5a1,1,0,0,0,.34-.37,1.31,1.31,0,0,0,.18-.63V60.3a.46.46,0,0,0-.18-.42A.31.31,0,0,0,107,59.91Z"/><path class="cls-10" d="M106.81,59.8a.32.32,0,0,1,.34,0l.18.1a.31.31,0,0,0-.34,0l-.87.5V60.2Z"/><path class="cls-26" d="M9.66,34.78a6.29,6.29,0,0,1,2.25-2.35L62.75,3.09C68,.06,73.08-.77,77.14.73L117.5,24c-4-1.51-9.14-.68-14.39,2.35L52.28,55.74A6.37,6.37,0,0,0,50,58.09a10.76,10.76,0,0,0-1,2.5L8.63,37.28A10.94,10.94,0,0,1,9.66,34.78Z"/><path class="cls-27" d="M3.55,67.25a145.8,145.8,0,0,1,5.08-30L49,60.59a145.8,145.8,0,0,0-5.08,30c-.31,5.14-.26,11.23-.1,17.48h0c-6.35-3.12-14-7.21-20.89-11.2C16.29,93,9.13,88.54,3.45,84.74,3.28,78.49,3.24,72.4,3.55,67.25Z"/><path class="cls-3" d="M23.53,76.53c0-.08.08-.6.1-.7q1.2-8.4,3.1-16.28l14,8a4.29,4.29,0,0,1,2.05,4c-.43,3.86-.77,7.89-1,12a2.67,2.67,0,0,1-1.33,2.33,2.37,2.37,0,0,1-1.17.27,3.21,3.21,0,0,1-1.6-.48L23.4,77.44c0-.3.08-.61.13-.91Z"/><g class="cls-28"><path class="cls-29" d="M26.53,60.42c4.43,2.63,9.31,5.28,13.74,7.91a3.48,3.48,0,0,1,1.66,3.16q-.68,5.88-1,12c-.09,1.6-1.39,2.27-2.81,1.43-4.72-2.8-9.88-5.61-14.59-8.41,0-.08.08-.6.1-.7q1.14-7.93,2.9-15.41Z"/></g><path class="cls-3" d="M7,64A107.54,107.54,0,0,1,9.89,53.17a2.26,2.26,0,0,1,1.39-1.44,2.78,2.78,0,0,1,2.38.31l12.39,7.11A181.71,181.71,0,0,0,22.72,77L8.94,69.11A4.76,4.76,0,0,1,7,64Z"/><g class="cls-28"><path class="cls-29" d="M13.22,52.77c4.44,2.64,8.19,4.61,12.63,7.25q-1.84,7.8-3,16.1c-4.72-2.8-8.75-4.94-13.47-7.74A4,4,0,0,1,7.79,64.2a109.66,109.66,0,0,1,2.9-10.76,1.61,1.61,0,0,1,2.53-.67Z"/></g><path class="cls-19" d="M14.72,76.11a.51.51,0,0,1,.23-.46.49.49,0,0,1,.51.06l2.81,1.69A1.57,1.57,0,0,1,19,78.65l0,1.32a.5.5,0,0,1-.22.47.56.56,0,0,1-.52-.06l-2.81-1.69a1.59,1.59,0,0,1-.69-1.26Z"/><g class="cls-30"><path d="M18.21,80.17l-2.81-1.7a1.16,1.16,0,0,1-.52-.93l0-1.32a.38.38,0,0,1,.16-.35.41.41,0,0,1,.39,0l2.8,1.69a1.15,1.15,0,0,1,.52.93l0,1.32a.34.34,0,0,1-.55.31Z"/></g><path class="cls-31" d="M18.78,78.54a1.15,1.15,0,0,0-.52-.93l-2.8-1.69-.07,0a.22.22,0,0,0,0,.08l0,1.32a1.15,1.15,0,0,0,.52.93l2.8,1.69.07,0s0,0,0-.08Z"/><path class="cls-32" d="M18.78,79v-.44a6.2,6.2,0,0,1-3.31-2.06l-.1-.13-.47.26A7,7,0,0,0,18.78,79Z"/><path class="cls-33" d="M18.78,79a7,7,0,0,1-3.88-2.37v.52a7,7,0,0,0,3.88,2.31Z"/><path class="cls-19" d="M26.78,56.24l.68.41a173.52,173.52,0,0,0-3.83,19.18c0,.1-.09.62-.1.7h0c-.86,6.1-1.44,12.41-1.75,18.87l-.69-.4A191.38,191.38,0,0,1,26.78,56.24Z"/><g class="cls-30"><path d="M42.06,89.7c.15-2,.3-3.88.45-5.77.49-6.33,1-12.31,1.45-16.77a1.48,1.48,0,0,0-.73-1.45L11.13,47.23a.51.51,0,0,0-.73.25,72.39,72.39,0,0,0-5,20.59C5,72.46,4.89,78,5,85.47v.2l-.66-.4c-.06-7.39.08-12.88.43-17.25A72.93,72.93,0,0,1,9.78,47.26a1.16,1.16,0,0,1,1.69-.59l32.1,18.48a2.15,2.15,0,0,1,1,2.08c-.5,4.44-1,10.42-1.45,16.75-.15,1.89-.3,3.82-.46,5.77-.35,4.39-.48,9.91-.42,17.38v.2l-.66-.39C41.58,99.55,41.71,94.07,42.06,89.7Z"/></g><path class="cls-27" d="M46.92,51.5l54-31.17a1.06,1.06,0,0,1,1,0l1.37.79a.35.35,0,0,1,.2.28.34.34,0,0,1-.2.28l-54,31.18a1,1,0,0,1-1,0l-1.38-.79a.3.3,0,0,1,0-.57Z"/><path class="cls-19" d="M46.92,52.07l1.38.79a1,1,0,0,0,1,0l54-31.18a.34.34,0,0,0,.2-.28v.37a.35.35,0,0,1-.2.29l-54,31.17a1,1,0,0,1-1,0l-1.38-.79a.35.35,0,0,1-.2-.28v-.37A.35.35,0,0,0,46.92,52.07Z"/><path class="cls-27" d="M15.82,33.55l54-31.18a1.12,1.12,0,0,1,1,0l1.37.8a.32.32,0,0,1,.2.28.33.33,0,0,1-.2.28l-54,31.18a1.1,1.1,0,0,1-1,0l-1.38-.8a.3.3,0,0,1,0-.56Z"/><path class="cls-19" d="M15.82,34.11l1.38.8a1.1,1.1,0,0,0,1,0l54-31.18a.33.33,0,0,0,.2-.28v.37a.33.33,0,0,1-.2.28l-54,31.18a1.1,1.1,0,0,1-1,0l-1.38-.8a.33.33,0,0,1-.2-.28v-.37A.35.35,0,0,0,15.82,34.11Z"/><path class="cls-27" d="M22,37.14,76,6a1.12,1.12,0,0,1,1,0l1.37.8a.32.32,0,0,1,.2.28.33.33,0,0,1-.2.28l-54,31.18a1.1,1.1,0,0,1-1,0L22,37.7a.34.34,0,0,1-.2-.28A.35.35,0,0,1,22,37.14Z"/><path class="cls-19" d="M22,37.7l1.38.8a1.1,1.1,0,0,0,1,0l54-31.18a.33.33,0,0,0,.2-.28v.37a.33.33,0,0,1-.2.28l-54,31.18a1.1,1.1,0,0,1-1,0L22,38.08a.35.35,0,0,1-.2-.29v-.37A.34.34,0,0,0,22,37.7Z"/><path class="cls-27" d="M28.26,40.73l54-31.18a1.12,1.12,0,0,1,1,0l1.37.8a.3.3,0,0,1,0,.56l-54,31.18a1.1,1.1,0,0,1-1,0l-1.38-.8a.33.33,0,0,1-.2-.28A.35.35,0,0,1,28.26,40.73Z"/><path class="cls-19" d="M28.26,41.29l1.38.8a1.1,1.1,0,0,0,1,0l54-31.18a.33.33,0,0,0,.2-.28V11a.33.33,0,0,1-.2.28l-54,31.18a1,1,0,0,1-1,0l-1.38-.79a.35.35,0,0,1-.2-.28V41A.33.33,0,0,0,28.26,41.29Z"/><path class="cls-27" d="M34.48,44.32l54-31.17a1.06,1.06,0,0,1,1,0l1.37.79a.3.3,0,0,1,0,.56l-54,31.18a1.1,1.1,0,0,1-1,0l-1.38-.8a.33.33,0,0,1-.2-.28A.35.35,0,0,1,34.48,44.32Z"/><path class="cls-19" d="M34.48,44.89l1.38.79a1.1,1.1,0,0,0,1,0l54-31.18a.33.33,0,0,0,.2-.28v.37a.32.32,0,0,1-.2.28l-54,31.18a1,1,0,0,1-1,0l-1.38-.79a.35.35,0,0,1-.2-.28V44.6A.35.35,0,0,0,34.48,44.89Z"/><path class="cls-27" d="M40.7,47.91l54-31.17a1.06,1.06,0,0,1,1,0l1.37.79a.3.3,0,0,1,0,.56l-54,31.18a1.1,1.1,0,0,1-1,0l-1.38-.79a.3.3,0,0,1,0-.57Z"/><path class="cls-19" d="M40.7,48.48l1.38.79a1.1,1.1,0,0,0,1,0l54-31.18a.33.33,0,0,0,.2-.28v.37a.32.32,0,0,1-.2.28l-54,31.18a1,1,0,0,1-1,0l-1.38-.79a.35.35,0,0,1-.2-.28V48.2A.35.35,0,0,0,40.7,48.48Z"/><path class="cls-2" d="M133.44,40.06l3.53,2c.63.37,1.14,0,1.14-.86h0A2.73,2.73,0,0,0,137,39l-2.86-1.65c-.71-.41-1.29,0-1.29,1v.49A1.52,1.52,0,0,0,133.44,40.06Z"/><path class="cls-16" d="M138.11,41.23h0A2.73,2.73,0,0,0,137,39l-2.86-1.65a.75.75,0,0,0-1.14.25,2,2,0,0,1,1.74-1.06,1.07,1.07,0,0,1,.53.16l2.86,1.65a2.73,2.73,0,0,1,1.14,2.19v0a1.63,1.63,0,0,1-1.93,1.6C137.78,42.3,138.11,41.91,138.11,41.23Z"/><path class="cls-11" d="M136.69,44.3l2.19,1.26c.59.34,1.07,0,1.07-.81v-8a2.55,2.55,0,0,0-1.07-2l-3.75-2.17c-.59-.34-1.07,0-1.07.81v5.95A6.33,6.33,0,0,0,136.69,44.3Z"/><path class="cls-34" d="M138.88,45c.3.17.55-.06.55-.5v-8a1.43,1.43,0,0,0-.55-1.14l-3.75-2.16c-.3-.17-.55.06-.55.5v6a5.17,5.17,0,0,0,2.11,4.13Z"/><path class="cls-16" d="M136.54,32.63l3.75,2.16a2.59,2.59,0,0,1,1.07,2.05v7.1a1.38,1.38,0,0,1-.08.48,1.86,1.86,0,0,1-2.08,1.26c.43.07.75-.29.75-.93v-8a2.55,2.55,0,0,0-1.07-2l-3.75-2.17a.91.91,0,0,0-.44-.13A3.39,3.39,0,0,1,136.54,32.63Z"/><path class="cls-35" d="M162.5,27.06c-6,1.52-20,6.6-20,6.6A158.77,158.77,0,0,0,98.7,8.39s9.62-3.48,16.35-5.54c1.39-.43,6-2.12,13.36.61,5.51,2,11.48,5.41,18.59,9.52,9.69,5.6,16.95,10,19.64,14.09a8,8,0,0,1,.72,1.28C166.54,26.84,165.16,26.39,162.5,27.06Z"/><path class="cls-20" d="M98.7,8.39h0C119,4,131.76,6,136.81,7.29a47.57,47.57,0,0,1,11.36,4.83c4.43,2.56,8.68,5.27,10.39,7.86-6.95,2.95-12.11,9.65-16.1,13.68A158.77,158.77,0,0,0,98.7,8.39Z"/><path class="cls-19" d="M150.76,24.42c2.25-2.13,5.66-4.3,7.8-4.44-6.95,2.95-12.11,9.65-16.1,13.68A49.83,49.83,0,0,1,150.76,24.42Z"/><path class="cls-21" d="M138.15,27.54a1.2,1.2,0,0,0,1.17,0c.4-.19.52-.52.27-.73a1.17,1.17,0,0,0-1.17-.05C138,27,137.91,27.32,138.15,27.54Z"/><path class="cls-21" d="M107.54,9.86a1.19,1.19,0,0,0,1.17,0c.39-.19.51-.52.26-.73a1.15,1.15,0,0,0-1.17,0C107.41,9.32,107.29,9.64,107.54,9.86Z"/><path class="cls-36" d="M163.28,26.87c-1,1.09,1.43,4.34,3.9,2.25a4.35,4.35,0,0,0,.34-.41C166.61,26.46,164.81,26.63,163.28,26.87Z"/><path class="cls-37" d="M158.77,20.12a23.46,23.46,0,0,1,7.85,6.73,4.21,4.21,0,0,1,.74,1.5c-.73-1.35-1.91-1.85-4.06-1.46l0,0C163.55,25.3,163,23.7,158.77,20.12Z"/><path class="cls-38" d="M158.77,20.12a23.46,23.46,0,0,1,7.85,6.73,4.21,4.21,0,0,1,.74,1.5c-.73-1.35-1.91-1.85-4.06-1.46l0,0C163.55,25.3,163,23.7,158.77,20.12Z"/><path class="cls-16" d="M.93,84.17l2.48-1.44s0,.65,0,1.23a1.5,1.5,0,0,0,.66,1.21c5.57,3.71,12.44,8,18.81,11.66,6.9,4,14.54,8.08,20.89,11.2h0l6.38-3.68,1.77,1-7.16,4.13a2.06,2.06,0,0,0-.93,1.61c-7.24-3.36-15-7.32-23.07-12C13.16,94.66,6.23,90.16,0,85.77A2,2,0,0,1,.93,84.17Z"/><path class="cls-16" d="M45,116.16Z"/><path class="cls-39" d="M20.81,99.1c8.07,4.69,15.83,8.65,23.07,12v2.69A2.58,2.58,0,0,0,45,116.16c-.09-.06-12.87-6.13-24.14-12.64C10.51,97.58,1.66,91.16,1.08,90.83A2.57,2.57,0,0,1,0,88.46V85.77C6.23,90.16,13.16,94.66,20.81,99.1Z"/><path class="cls-3" d="M44.81,109.5,52,105.37c2.12-6.55,6.79-13,12.17-16.08l1.28-.74c7-4.07,12.83-.74,12.83,7.41V98.8a1.08,1.08,0,0,1-.54.93l-.66.37a2.48,2.48,0,0,1-1.24.33V98.85c0-6.75-5-9.71-10.86-6.39-6.49,3.64-11.77,12.72-11.77,20.18l-5.65,3.27a2.23,2.23,0,0,1-3.65-2.11v-2.69A2.06,2.06,0,0,1,44.81,109.5Z"/><path class="cls-16" d="M65.42,88.55l-1.28.74c-5.38,3.11-10,9.53-12.17,16.08l-2.43,1.4c1.64-7.35,6.77-15,12.84-18.49l1.28-.74a11.22,11.22,0,0,1,7.09-1.75A7.9,7.9,0,0,1,77,90.28C74.9,86.52,70.49,85.63,65.42,88.55Z"/><path class="cls-3" d="M82.5,91.78l48.58-28.05a5.09,5.09,0,0,0,2.13-4.06h0c0-1.57-1-2.29-2.13-1.61L82.5,86.11a5.11,5.11,0,0,0-2.13,4.06h0C80.37,91.74,81.33,92.46,82.5,91.78Z"/><path class="cls-10" d="M81.93,85.78l48.59-28.05a1.94,1.94,0,0,1,.67-.24h0a1.68,1.68,0,0,1,1.7.87,1.23,1.23,0,0,0-1.81-.3L82.5,86.11a5.11,5.11,0,0,0-2.13,4.06c0,1.08.45,1.76,1.12,1.85a1.72,1.72,0,0,1-1.42-1,2.52,2.52,0,0,1-.26-1.21A5.11,5.11,0,0,1,81.93,85.78Z"/><polygon class="cls-19" points="103.28 73.46 103.84 73.79 103.84 79.46 103.55 79.63 103.55 73.95 102.99 73.63 103.28 73.46"/><path class="cls-40" d="M2.43,68.62l.6.45a2.5,2.5,0,0,1,1,2v9.6c0,.77-.47,1.12-1,.79l-.44-.25a.81.81,0,0,1-.41-.7c-.05-2.59-.06-5.12,0-7.53A30.82,30.82,0,0,1,2.43,68.62Z"/><path class="cls-41" d="M4.07,80.65v-9.6a2.5,2.5,0,0,0-1-2L3,69H3l-.43-.25c-.2-.12-.07-.24.05-.31l.93-.54,0,.64c0,.1.12.17.12.17a2.5,2.5,0,0,1,1,2v9.6a1.19,1.19,0,0,1-.09.49,1.22,1.22,0,0,1-1,.74C3.85,81.51,4.07,81.18,4.07,80.65Z"/><path class="cls-40" d="M43.1,92.2l.36.21.38.1c-.17,3.64-.18,8-.11,12.24a1.42,1.42,0,0,1-.63-.17,2.51,2.51,0,0,1-1-2V93C42.06,92.22,42.53,91.87,43.1,92.2Z"/><path class="cls-41" d="M43.84,92.51l.38-.1,1.76-1c.48-.28.88-.06.88.5v10.24a2,2,0,0,1-.88,1.52l-1.48.85a1.41,1.41,0,0,1-.77.24v-.24C43.66,100.3,43.67,96.15,43.84,92.51Z"/><path class="cls-42" d="M43.36,91.76h0a1,1,0,0,1,.3.11c.13.08.21.08.4,0l1.34-.77a.83.83,0,0,1,.33-.12h0a1.13,1.13,0,0,1,1,.59h0c-.13-.28-.44-.35-.8-.14l-1.76,1a.74.74,0,0,1-.76,0l-.36-.21a.61.61,0,0,0-.91.19h0A1.19,1.19,0,0,1,43.36,91.76Z"/><polygon class="cls-43" points="28.17 97.37 13.34 89.75 13.34 78.52 28.17 86.99 28.17 97.37"/><polygon class="cls-25" points="28.17 88.54 13.34 80.19 13.34 78.52 28.17 86.99 28.17 88.54"/><polygon class="cls-25" points="28.17 97.37 13.34 89.75 13.34 88.07 28.17 95.83 28.17 97.37"/><polygon class="cls-44" points="13.34 80.19 14.19 79 15.27 79.62 14.42 80.8 13.34 80.19"/><polygon class="cls-44" points="15.48 81.39 16.33 80.23 17.41 80.84 16.56 82 15.48 81.39"/><polygon class="cls-44" points="17.63 82.61 18.48 81.46 19.56 82.07 18.71 83.22 17.63 82.61"/><polygon class="cls-44" points="19.79 83.82 20.64 82.69 21.72 83.31 20.87 84.43 19.79 83.82"/><polygon class="cls-44" points="21.93 85.03 22.78 83.91 23.86 84.53 23.01 85.63 21.93 85.03"/><polygon class="cls-44" points="24.08 86.24 24.93 85.14 26.01 85.76 25.16 86.85 24.08 86.24"/><polygon class="cls-44" points="26.24 87.45 27.09 86.38 28.17 86.99 27.32 88.06 26.24 87.45"/><polygon class="cls-44" points="28.17 95.83 27.32 96.94 26.24 96.38 27.09 95.26 28.17 95.83"/><polygon class="cls-44" points="26.03 94.71 25.18 95.84 24.1 95.28 24.95 94.14 26.03 94.71"/><polygon class="cls-44" points="23.87 93.58 23.02 94.73 21.94 94.17 22.79 93.02 23.87 93.58"/><polygon class="cls-44" points="21.72 92.45 20.87 93.62 19.79 93.06 20.64 91.89 21.72 92.45"/><polygon class="cls-44" points="19.58 91.33 18.73 92.52 17.65 91.96 18.5 90.77 19.58 91.33"/><polygon class="cls-44" points="17.42 90.21 16.57 91.41 15.49 90.86 16.34 89.64 17.42 90.21"/><polygon class="cls-44" points="15.27 89.08 14.42 90.3 13.34 89.75 14.19 88.52 15.27 89.08"/><path class="cls-44" d="M26.86,90c0,.43-.33.6-.74.38L15.34,84.52a1.57,1.57,0,0,1-.74-1.24v-1c0-.46.33-.65.74-.42l10.78,6a1.51,1.51,0,0,1,.74,1.19Z"/><path class="cls-25" d="M17,85l-.48-.26V82.86l.4.23a1.81,1.81,0,0,1,.4.28,1.27,1.27,0,0,1,.22.33,1,1,0,0,1,.07.37.39.39,0,0,1-.1.31.31.31,0,0,1-.27.05L17,84.32Zm-.34-.34.2.11v-.72l.07,0a1.23,1.23,0,0,0,.27.12.22.22,0,0,0,.2,0,.28.28,0,0,0,.07-.22.66.66,0,0,0-.05-.28.78.78,0,0,0-.16-.24,1.16,1.16,0,0,0-.34-.23l-.26-.15ZM17,84l-.14-.07v-.45l.13.07a.69.69,0,0,1,.2.15.38.38,0,0,1,.09.24.13.13,0,0,1,0,.1.08.08,0,0,1-.09,0A.47.47,0,0,1,17,84Zm0-.29v.14l.11,0h0s0,0,0,0a.08.08,0,0,0,0-.06Z"/><path class="cls-25" d="M18.68,86l-1-.56v-1.9l1,.57v.52l-.54-.3v.1l.54.3v.52l-.54-.3v.23l.54.3Zm-.88-.64.74.41v-.22l-.54-.3V84.7l.54.3v-.21l-.54-.3v-.4l.54.3v-.21l-.74-.42Z"/><path class="cls-25" d="M19.66,86.53l-.9-.49v-1.9l.48.27v1.37l.42.24ZM18.9,86l.62.34v-.21l-.42-.23V84.49l-.2-.12Z"/><path class="cls-25" d="M20.15,86.8l-.48-.26V84.65l.48.27Zm-.34-.34.2.11V85l-.2-.11Z"/><path class="cls-25" d="M21.14,87.38a1.43,1.43,0,0,1-.47-.38,1.87,1.87,0,0,1-.33-.54,1.56,1.56,0,0,1-.13-.57.57.57,0,0,1,.23-.52.65.65,0,0,1,.69,0,2,2,0,0,1,.41.32,2.17,2.17,0,0,1,.31.43l.07.11-.34.18-.07-.11a1.09,1.09,0,0,0-.38-.41.33.33,0,0,0-.31,0,.28.28,0,0,0-.12.26.8.8,0,0,0,.12.4.92.92,0,0,0,.33.32.34.34,0,0,0,.2.05h0L21,86.74v-.51l.95.53v.17a.62.62,0,0,1-.12.4.39.39,0,0,1-.3.17A.76.76,0,0,1,21.14,87.38Zm0-1.8a.57.57,0,0,0-.59-.06.52.52,0,0,0-.19.44,1.28,1.28,0,0,0,.11.49,1.59,1.59,0,0,0,.27.45,1.42,1.42,0,0,0,.41.33.6.6,0,0,0,.36.1.3.3,0,0,0,.25-.14.5.5,0,0,0,.1-.33v0l-.68-.37v.2l.47.26-.06.08a.19.19,0,0,1-.16.1.44.44,0,0,1-.27-.07,1.1,1.1,0,0,1-.42-.41,1,1,0,0,1-.17-.54.35.35,0,0,1,.16-.34.42.42,0,0,1,.41.05,1.32,1.32,0,0,1,.45.46l.14-.08a1.77,1.77,0,0,0-.24-.32A1.73,1.73,0,0,0,21.13,85.58Z"/><path class="cls-25" d="M23.31,88.53l-.53-.29-.22-.56v.44l-.48-.26V86l.4.22a2,2,0,0,1,.4.28,1.21,1.21,0,0,1,.22.32,1,1,0,0,1,.08.37.38.38,0,0,1-.09.28.23.23,0,0,1-.16.06Zm-.45-.39.22.12-.35-.9h.07c.08,0,.14,0,.17,0a.25.25,0,0,0,.07-.21.66.66,0,0,0-.06-.27.76.76,0,0,0-.15-.23,1.47,1.47,0,0,0-.35-.24l-.26-.14v1.55l.2.11V87Zm-.3-1.08L22.42,87v-.44l.13.07.17.12a.34.34,0,0,1,.09.12.39.39,0,0,1,0,.14c0,.08,0,.12-.07.13A.33.33,0,0,1,22.56,87.06Zm0-.28v.13c.11.06.13,0,.13,0s0,0,0,0v0l0,0Z"/><path class="cls-25" d="M24.11,89a1.64,1.64,0,0,1-.64-.64,1.55,1.55,0,0,1-.25-.81.72.72,0,0,1,.11-.42.42.42,0,0,1,.33-.17.8.8,0,0,1,.45.12,1.63,1.63,0,0,1,.62.63,1.6,1.6,0,0,1,.26.82.56.56,0,0,1-.26.54A.65.65,0,0,1,24.11,89Zm0-1.77a.64.64,0,0,0-.38-.1.31.31,0,0,0-.27.14.54.54,0,0,0-.1.35,1.34,1.34,0,0,0,.21.69,1.4,1.4,0,0,0,.54.54.56.56,0,0,0,.52.06.46.46,0,0,0,.22-.45,1.28,1.28,0,0,0-.22-.7A1.47,1.47,0,0,0,24.11,87.24Zm0,1.41a1.05,1.05,0,0,1-.35-.32,1,1,0,0,1-.2-.58.36.36,0,0,1,.16-.35.39.39,0,0,1,.38,0,1,1,0,0,1,.39.39,1,1,0,0,1,.16.51.35.35,0,0,1-.16.34A.36.36,0,0,1,24.11,88.65Zm0-1.05a.27.27,0,0,0-.28,0,.28.28,0,0,0-.12.27.72.72,0,0,0,.15.43.66.66,0,0,0,.26.24.24.24,0,0,0,.4-.23.73.73,0,0,0-.12-.38A.8.8,0,0,0,24.1,87.6Z"/><path class="cls-45" d="M17.24,83.43a1.55,1.55,0,0,0-.37-.26L16.54,83v1.76l.34.19v-.72a1.45,1.45,0,0,0,.29.13.27.27,0,0,0,.24,0,.37.37,0,0,0,.08-.26.88.88,0,0,0-.06-.33A.92.92,0,0,0,17.24,83.43Zm-.29.44-.07,0v-.29l.06,0a1,1,0,0,1,.17.12.3.3,0,0,1,.05.15.14.14,0,0,1,0,.07l-.05,0A.81.81,0,0,1,17,83.87Z"/><polygon class="cls-45" points="17.73 85.39 18.61 85.88 18.61 85.5 18.07 85.21 18.07 84.82 18.61 85.12 18.61 84.75 18.07 84.45 18.07 84.21 18.61 84.51 18.61 84.14 17.73 83.64 17.73 85.39"/><polygon class="cls-45" points="19.17 84.45 18.83 84.26 18.83 86 19.59 86.42 19.59 86.06 19.17 85.82 19.17 84.45"/><polygon class="cls-45" points="19.74 86.5 20.08 86.68 20.08 84.96 19.74 84.77 19.74 86.5"/><path class="cls-45" d="M21.1,86.34v.36l.42.23a.2.2,0,0,1-.13.09.41.41,0,0,1-.24-.07,1,1,0,0,1-.37-.36.89.89,0,0,1-.15-.47.3.3,0,0,1,.14-.3.38.38,0,0,1,.36.05,1.17,1.17,0,0,1,.43.45l0,0,.24-.12,0,0a2,2,0,0,0-.29-.41,2,2,0,0,0-.38-.29.58.58,0,0,0-.64,0,.53.53,0,0,0-.21.48,1.3,1.3,0,0,0,.12.52,1.71,1.71,0,0,0,.3.5,1.34,1.34,0,0,0,.44.35.67.67,0,0,0,.39.12.36.36,0,0,0,.28-.16.59.59,0,0,0,.11-.36v-.1Z"/><path class="cls-45" d="M23,87.4a.36.36,0,0,0,.08-.25.92.92,0,0,0-.07-.32.88.88,0,0,0-.19-.27,1.42,1.42,0,0,0-.37-.26l-.33-.19v1.71l.34.19v-.67l.33.85.38.2-.37-.94A.25.25,0,0,0,23,87.4ZM22.77,87c0,.05,0,.08,0,.09a.44.44,0,0,1-.17-.07l-.07,0v-.28l.06,0a.71.71,0,0,1,.15.1.18.18,0,0,1,.05.07A.15.15,0,0,1,22.77,87Z"/><path class="cls-45" d="M24.68,87.74a1.67,1.67,0,0,0-.57-.58.78.78,0,0,0-.42-.11.41.41,0,0,0-.3.16.61.61,0,0,0-.1.38,1.45,1.45,0,0,0,.23.76,1.59,1.59,0,0,0,.59.59.6.6,0,0,0,.57.06.52.52,0,0,0,.24-.5A1.47,1.47,0,0,0,24.68,87.74Zm-.58-.22a.92.92,0,0,1,.34.34.91.91,0,0,1,.14.45.31.31,0,0,1-.14.3.33.33,0,0,1-.33,0,.85.85,0,0,1-.31-.29.88.88,0,0,1-.17-.5.33.33,0,0,1,.14-.31A.34.34,0,0,1,24.1,87.52Z"/><path class="cls-25" d="M15,86.21a1.2,1.2,0,0,1-.46-.46,1.29,1.29,0,0,1-.17-.67.63.63,0,0,1,.16-.5.41.41,0,0,1,.46,0,1.06,1.06,0,0,1,.43.41,1.22,1.22,0,0,1,.17.55v.06l-.47-.23v-.06a.36.36,0,0,0,0-.19s0-.07-.07-.08-.14,0-.14.29a.82.82,0,0,0,0,.31.22.22,0,0,0,.09.1s.11.06.13-.12v0l.47.28v.06a.38.38,0,0,1-.19.34A.5.5,0,0,1,15,86.21Zm0-1.49a.33.33,0,0,0-.38,0,.56.56,0,0,0-.14.44,1.1,1.1,0,0,0,.15.57.87.87,0,0,0,.38.38.38.38,0,0,0,.33,0,.25.25,0,0,0,.15-.22l-.26-.16c0,.19-.15.16-.22.12a.48.48,0,0,1-.18-.21,1.2,1.2,0,0,1,0-.38c0-.32.08-.44.24-.35a.36.36,0,0,1,.15.17.64.64,0,0,1,.06.22l.26.12a1.17,1.17,0,0,0-.13-.4A1,1,0,0,0,14.94,84.72Z"/><path class="cls-25" d="M16.79,87.17l-.52-.27-.07-.32-.26-.14-.08.24-.43-.23.43-1.32.49.26Zm-.44-.34.29.15-.36-1.51-.34-.18-.37,1.12.21.11.08-.24.42.22Zm-.11-.54-.34-.19.17-.6ZM16,86.06l.07,0,0-.16Z"/><path class="cls-25" d="M18.05,87.85l-.55-.29-.19-.65,0,0v.55l-.5-.27V85.63l.72.39a1.12,1.12,0,0,1,.38.33.81.81,0,0,1,.14.43A.41.41,0,0,1,18,87a.18.18,0,0,1-.16.08Zm-.48-.37.32.17-.22-.71h0c.08,0,.13,0,.15,0a.29.29,0,0,0,0-.17.52.52,0,0,0-.1-.31.82.82,0,0,0-.31-.27l-.62-.34v1.31l.29.16v-.55l.21.12Zm-.18-.83-.22-.12v-.39l.24.13a.35.35,0,0,1,.2.31c0,.06,0,.1-.07.11A.24.24,0,0,1,17.39,86.65Zm-.11-.18.11.07a.18.18,0,0,0,.09,0s0,0,0,0,0-.08-.09-.13l-.13-.07Z"/><path class="cls-25" d="M18.65,88.2a1.21,1.21,0,0,1-.45-.45A1.34,1.34,0,0,1,18,87.1a.59.59,0,0,1,.17-.48c.11-.1.28-.09.5,0a1.16,1.16,0,0,1,.4.36,1.27,1.27,0,0,1,.2.51v.06l-.38-.16.37.2v.9L19,88.37v-.05s0,0,0-.07A.4.4,0,0,1,18.65,88.2Zm.05-1.43c-.19-.11-.33-.12-.42,0a.52.52,0,0,0-.14.42,1.16,1.16,0,0,0,.14.56.94.94,0,0,0,.37.37c.14.08.24.08.31,0l.05,0,0,.1s0,.09,0,.14l.1,0v-.67l-.47-.26v.19l.21.11v.06c0,.07,0,.12-.07.14a.18.18,0,0,1-.15,0,.41.41,0,0,1-.19-.2.83.83,0,0,1-.08-.4c0-.31.09-.42.25-.33a.46.46,0,0,1,.22.33l.27.12a1.09,1.09,0,0,0-.15-.35A.85.85,0,0,0,18.7,86.77Zm0,.31c-.09,0-.14,0-.14.27a.64.64,0,0,0,.05.31.32.32,0,0,0,.11.12.1.1,0,0,0,.09,0l0,0-.2-.1v-.42l.2.11v0C18.79,87.13,18.72,87.09,18.69,87.08Z"/><path class="cls-25" d="M20.63,89.24,20.12,89l-.07-.31-.27-.14-.08.23-.42-.23.42-1.29.5.27Zm-.43-.35.29.16-.37-1.49-.34-.18-.36,1.09.21.11.07-.23.42.23Zm-.11-.53-.35-.18.17-.59Zm-.21-.22.07,0,0-.15Z"/><path class="cls-25" d="M22.1,90l-1-.54V88l.5.27v1l.5.28Zm-.89-.6.79.43v-.23l-.5-.27v-1l-.29-.16Z"/><path class="cls-25" d="M23.37,90.71l-.52-.28-.07-.31L22.52,90l-.08.23L22,90l.43-1.27.49.27Zm-.44-.35.29.16-.37-1.47-.33-.18-.37,1.07.21.12.08-.24.42.23Zm-.11-.52-.34-.19.17-.57Zm-.21-.22.07,0,0-.15Z"/><path class="cls-25" d="M24.63,91.38l-.55-.29-.19-.63,0,0V91l-.5-.27V89.21l.72.39a1.12,1.12,0,0,1,.38.33.78.78,0,0,1,.14.42.39.39,0,0,1-.05.2.21.21,0,0,1-.16.08ZM24.15,91l.32.17-.22-.69h.05c.08,0,.13,0,.15,0a.25.25,0,0,0,0-.16.52.52,0,0,0-.1-.31.9.9,0,0,0-.31-.26l-.62-.34v1.27l.29.15v-.52l.21.11ZM24,90.21l-.22-.12v-.37l.24.13a.33.33,0,0,1,.2.29c0,.06,0,.1-.07.11A.19.19,0,0,1,24,90.21ZM23.86,90l.11.06.09,0s0,0,0,0,0-.08-.09-.13l-.13-.07Z"/><path class="cls-25" d="M25.23,91.73a1.26,1.26,0,0,1-.45-.44,1.3,1.3,0,0,1-.17-.64.57.57,0,0,1,.17-.46c.11-.09.28-.07.5,0a1.13,1.13,0,0,1,.4.35,1.24,1.24,0,0,1,.2.49v.07L25.51,91l.37.2v.88l-.29-.16v0s0,0,0-.07A.45.45,0,0,1,25.23,91.73Zm.05-1.38c-.19-.1-.33-.12-.42,0a.46.46,0,0,0-.14.4,1.09,1.09,0,0,0,.14.54.94.94,0,0,0,.37.37c.14.07.24.08.31,0l.05,0,0,.1s0,.08,0,.13l.1.06v-.65L25.3,91v.18l.21.11v.06c0,.07,0,.11-.07.13a.17.17,0,0,1-.15,0,.46.46,0,0,1-.19-.2.81.81,0,0,1-.08-.39c0-.3.09-.4.25-.32a.48.48,0,0,1,.22.33l.27.12a1,1,0,0,0-.15-.34A.85.85,0,0,0,25.28,90.35Zm0,.3c-.09-.05-.14,0-.14.26a.62.62,0,0,0,.05.3.29.29,0,0,0,.11.11.1.1,0,0,0,.09,0l0,0-.2-.11v-.4l.2.11v0C25.37,90.7,25.3,90.66,25.27,90.65Z"/><path class="cls-25" d="M27.21,92.77l-.51-.27-.07-.31-.27-.14-.08.22L25.86,92l.42-1.23.5.26Zm-.43-.34.29.15-.37-1.44L26.36,91,26,92l.21.11.07-.23.42.23Zm-.11-.51-.35-.19.17-.56Zm-.21-.23.07,0,0-.15Z"/><path class="cls-25" d="M17.61,89.4l-.49-.26V88.5l-.47-1.15.56.3.19.5.18-.3.47.25-.44.65Zm-.38-.32.27.15v-.56l.37-.55L17.65,88l-.25.4-.26-.67-.3-.16.39,1Z"/><path class="cls-25" d="M19.69,90.5l-.51-.27-.08-.32-.26-.14-.08.24-.43-.23.43-1.3.49.26Zm-.44-.35.29.15-.36-1.48-.34-.18-.36,1.1.2.11.08-.24.42.23Zm-.11-.53-.34-.18.17-.59Zm-.2-.22.06,0,0-.15Z"/><path class="cls-25" d="M20.88,91.12l-.4-.21-.37-.84v.65l-.42-.23V89l.45.24.32.71v0s0,0,0-.08v-.47l.43.22Zm-.34-.29.23.12V89.67l-.21-.11v.35a2.53,2.53,0,0,0,0,.38l.08.53-.18-.55a2.47,2.47,0,0,0-.13-.33l-.28-.64-.29-.16v1.29l.21.12v-.63a1.31,1.31,0,0,0,0-.23l.1,0c0,.13.09.25.13.35Z"/><path class="cls-25" d="M21.57,91.51a1.17,1.17,0,0,1-.46-.45,1.29,1.29,0,0,1-.17-.65.59.59,0,0,1,.16-.48.45.45,0,0,1,.47,0,1.18,1.18,0,0,1,.43.4,1.21,1.21,0,0,1,.16.53V91l-.48-.23v-.06a.45.45,0,0,0,0-.18s-.05-.07-.08-.08-.13,0-.13.28a.69.69,0,0,0,0,.29.17.17,0,0,0,.09.11s.11.06.12-.12v0l.46.28v.06a.33.33,0,0,1-.19.32A.5.5,0,0,1,21.57,91.51Zm0-1.44c-.17-.08-.29-.09-.39,0a.51.51,0,0,0-.14.42,1.09,1.09,0,0,0,.15.56,1,1,0,0,0,.38.37.42.42,0,0,0,.33,0,.25.25,0,0,0,.15-.22l-.25-.15c0,.18-.15.15-.22.11a.39.39,0,0,1-.18-.2.89.89,0,0,1-.06-.37c0-.31.08-.42.24-.34a.53.53,0,0,1,.16.17.65.65,0,0,1,.06.21l.25.12a.86.86,0,0,0-.13-.38A1,1,0,0,0,21.57,90.07Z"/><path class="cls-25" d="M23.39,92.45l-.5-.26v-.54l-.19-.1v.53l-.5-.26v-1.5l.5.27v.51l.19.1v-.51l.5.27ZM23,92.13l.29.15V91L23,90.86v.51l-.4-.22v-.5l-.29-.16v1.27l.29.16v-.54l.4.21Z"/><path class="cls-25" d="M24.74,93.16l-.51-.27-.07-.31-.27-.14-.08.23-.42-.22.42-1.27.49.27Zm-.43-.34.29.15-.37-1.45-.34-.18-.36,1.07.21.11.07-.23.42.22Zm-.12-.52-.34-.18.17-.57Zm-.2-.22.07,0L24,92Z"/><path class="cls-44" d="M15.13,85.68l.36.21c0,.17-.08.28-.18.32a.41.41,0,0,1-.36-.06,1,1,0,0,1-.42-.42,1.19,1.19,0,0,1-.16-.62.6.6,0,0,1,.15-.47c.1-.08.24-.07.42,0a1.07,1.07,0,0,1,.39.37,1.17,1.17,0,0,1,.16.51l-.37-.18a.49.49,0,0,0,0-.23A.25.25,0,0,0,15,85c-.13-.07-.19,0-.19.32a.94.94,0,0,0,.05.34.31.31,0,0,0,.13.16C15.06,85.88,15.12,85.83,15.13,85.68Z"/><path class="cls-44" d="M16.31,86.86l-.07-.32-.34-.18-.08.24-.32-.17.4-1.22.41.22.4,1.65ZM16,86.08l.2.11-.1-.47Z"/><path class="cls-44" d="M18,87.75l-.43-.23-.19-.65-.13-.06v.54l-.39-.21V85.71l.67.37a.91.91,0,0,1,.34.3.6.6,0,0,1,.13.37.33.33,0,0,1,0,.19s-.09.07-.18.07Zm-.75-1.25.17.09a.15.15,0,0,0,.12,0s0,0,0-.07a.24.24,0,0,0-.15-.22l-.19-.1Z"/><path class="cls-44" d="M19.25,87.65v.79l-.2-.11a.84.84,0,0,0-.05-.17c-.08.07-.19.06-.35,0a1.08,1.08,0,0,1-.41-.41,1.28,1.28,0,0,1-.16-.6.59.59,0,0,1,.16-.46c.1-.08.25-.07.46,0a1,1,0,0,1,.36.33,1,1,0,0,1,.19.46l-.38-.17a.38.38,0,0,0-.18-.31c-.13-.07-.19,0-.19.3a.84.84,0,0,0,.06.36.46.46,0,0,0,.15.16c.05,0,.09,0,.12,0s.05,0,.05-.1l-.21-.11v-.3Z"/><path class="cls-44" d="M20.16,88.93l-.07-.32-.35-.18-.07.23-.32-.17.39-1.19.42.23.4,1.61Zm-.35-.77.21.11-.11-.46Z"/><path class="cls-44" d="M22.05,89.6v.34l-.89-.48V88.07l.39.21v1Z"/><path class="cls-44" d="M22.89,90.4l-.07-.31-.34-.19-.08.23L22.08,90l.4-1.17.41.22.4,1.6Zm-.34-.77.2.12-.1-.46Z"/><path class="cls-44" d="M24.55,91.29l-.43-.24-.19-.62-.13-.07v.53l-.39-.21V89.3l.67.36a.91.91,0,0,1,.34.3.59.59,0,0,1,.13.36.3.3,0,0,1-.05.18s-.09.07-.18.06Zm-.75-1.22.17.09.12,0a.07.07,0,0,0,.05-.07A.25.25,0,0,0,24,89.9l-.19-.1Z"/><path class="cls-44" d="M25.83,91.21V92l-.2-.1a.69.69,0,0,0-.05-.17c-.08.06-.19.06-.35,0a1,1,0,0,1-.41-.4,1.21,1.21,0,0,1-.16-.59.54.54,0,0,1,.16-.43c.1-.08.25-.07.46,0a1,1,0,0,1,.36.33,1,1,0,0,1,.19.44l-.38-.16a.38.38,0,0,0-.18-.31c-.13-.07-.19,0-.19.29a.71.71,0,0,0,.06.34.34.34,0,0,0,.15.16.14.14,0,0,0,.12,0,.1.1,0,0,0,.05-.1l-.21-.11V90.9Z"/><path class="cls-44" d="M26.74,92.46l-.07-.3L26.32,92l-.07.23L25.93,92l.39-1.15.42.23.4,1.57Zm-.35-.75.21.11-.11-.45Z"/><path class="cls-44" d="M18,88.11l-.4.6v.6l-.38-.2v-.6l-.43-1.05.43.23.22.59.21-.36Z"/><path class="cls-44" d="M19.21,90.19l-.07-.32-.34-.18-.08.24-.32-.17.4-1.2.41.22.41,1.62Zm-.34-.77.2.11-.1-.47Z"/><path class="cls-44" d="M20.83,91l-.32-.17-.35-.8c-.05-.11-.09-.23-.14-.37a1.49,1.49,0,0,1,0,.25v.68l-.32-.17v-1.4l.37.2.3.67a2.75,2.75,0,0,1,.14.34,2.53,2.53,0,0,1,0-.38v-.42l.32.17Z"/><path class="cls-44" d="M21.75,91l.36.21c0,.16-.07.26-.17.3a.44.44,0,0,1-.37-.06,1,1,0,0,1-.42-.41,1.22,1.22,0,0,1-.16-.6.55.55,0,0,1,.15-.45.38.38,0,0,1,.43,0,1,1,0,0,1,.39.36,1,1,0,0,1,.15.49l-.36-.18a.52.52,0,0,0-.05-.23.45.45,0,0,0-.12-.12c-.12-.07-.19,0-.19.31a.87.87,0,0,0,.05.33.44.44,0,0,0,.14.16C21.68,91.19,21.74,91.14,21.75,91Z"/><path class="cls-44" d="M23.34,91v1.38L23,92.16v-.54l-.3-.16V92l-.4-.21V90.41l.4.21v.51l.3.16v-.51Z"/><path class="cls-44" d="M24.27,92.86l-.08-.31-.34-.18-.07.23-.32-.17.39-1.17.42.22.4,1.59Zm-.35-.76.21.11L24,91.76Z"/><path class="cls-44" d="M28.17,97.37,13.34,89.75V78.52L28.17,87ZM13.54,89.62,28,97.05v-10L13.54,78.87Z"/><path class="cls-25" d="M17.59,90.12l-.12-.06,0-.11a.26.26,0,0,1,0-.07h0s0,0,0,0V90l-.1,0v-.39l.15.08.08,0a.16.16,0,0,1,0,.07.19.19,0,0,1,0,.07.09.09,0,0,1,0,.07h0v0a.19.19,0,0,1,0,.08Zm-.1-.09,0,0,0,0a.24.24,0,0,0,0-.07l0,0,0,0,.05,0h.05a.07.07,0,0,0,0,0,.11.11,0,0,0,0,0,.05.05,0,0,0,0,0s0,0-.06,0l-.12-.06v.31h0V89.8h0l0,0s0,0,0,0a.17.17,0,0,1,0,.07Zm-.1-.22-.07,0v-.13l.07,0,.05,0,0,0a.11.11,0,0,1,0,0s0,0,0,0,0,0,0,0S17.43,89.84,17.39,89.81Zm0,0,0,0,.05,0h0v0a0,0,0,0,0,0,0v0l0,0,0,0Z"/><path class="cls-25" d="M17.73,90.2a.24.24,0,0,1-.1-.1.43.43,0,0,1,0-.11s0-.08,0-.09.05,0,.09,0a.2.2,0,0,1,.09.09.32.32,0,0,1,0,.14v0h0v0l0,0A.13.13,0,0,1,17.73,90.2Zm0-.26s-.05,0-.06,0a.1.1,0,0,0,0,.08.19.19,0,0,0,0,.08.16.16,0,0,0,.07.07.08.08,0,0,0,.06,0s0,0,0,0h-.08l0,0a.19.19,0,0,1,0-.07v0l.15.08a.17.17,0,0,0,0-.1A.09.09,0,0,0,17.73,89.94Zm0,.14h0s0,0,0,0h0a0,0,0,0,1,0,0h0Zm.08,0L17.67,90v0a.06.06,0,0,1,0,0s0,0,0,0,0,0,.05,0a.13.13,0,0,1,0,.06ZM17.71,90l.05,0h0a0,0,0,0,0,0,0h0Z"/><path class="cls-25" d="M18,90.36l-.08-.07a.36.36,0,0,1,0-.09v0l.07,0,0,0a.16.16,0,0,1,0-.09s0,0,0,0,0,0,.08,0l.08.06a.3.3,0,0,1,0,.08v0l-.05,0,0,0a.11.11,0,0,1,0,.08.05.05,0,0,1,0,.05A.1.1,0,0,1,18,90.36Zm-.08-.13s0,0,0,0l.06,0s.06,0,.07,0,0,0,0,0,0,0,0,0L18,90.2c-.05,0-.06,0-.06-.06s0,0,0,0a0,0,0,0,1,0,0h0l0,0s0,0,0,0h0s0,0,0,0,0,0-.06,0-.05,0-.06,0,0,0,0,0,0,0,0,0l.09.07s0,0,0,0a0,0,0,0,1,0,0s0,0,0,0H18s0,0,0,0l0,0Zm0,0v0l0,0h0Zm0-.1.05,0v0h0Z"/><path class="cls-25" d="M18.33,90.52l-.06,0-.05-.08a.3.3,0,0,1,0-.1.14.14,0,0,1,0-.06,0,0,0,0,1,.05,0,.07.07,0,0,1,.06,0,.22.22,0,0,1,.1.09.2.2,0,0,1,0,.13.1.1,0,0,1,0,.09A.12.12,0,0,1,18.33,90.52Zm0-.26,0,0,0,0a.09.09,0,0,0,0,0,.15.15,0,0,0,0,.07l0,.06,0,0s.06,0,.08,0a.08.08,0,0,0,0-.06.44.44,0,0,0,0-.1A.16.16,0,0,0,18.33,90.26Zm0,.2s0,0,0,0a.19.19,0,0,1,0-.08.08.08,0,0,1,0-.06h0s0,0,.06.06a.19.19,0,0,1,0,.08.08.08,0,0,1,0,.06S18.36,90.47,18.33,90.46Zm0-.15s0,0,0,0,0,0,0,0a.09.09,0,0,0,0,.05l0,0h0s0,0,0,0a.07.07,0,0,0,0,0S18.35,90.32,18.33,90.31Z"/><path class="cls-25" d="M18.63,90.67l-.1,0v-.39l.1,0Zm-.06-.07h0V90.3h0Z"/><path class="cls-25" d="M18.8,90.76a.1.1,0,0,1-.05,0,.21.21,0,0,1,0-.06v-.24l.09,0v.19h.05v-.19l.1.05v.29l-.09,0H18.8Zm-.06-.29v.14a.07.07,0,0,0,0,0,.05.05,0,0,0,0,0,.07.07,0,0,0,.06,0h0s0,0,0,0,0,0,0,0a.38.38,0,0,1,0-.08v-.09Zm.15.29,0,0v-.22h0v.09a.07.07,0,0,1,0,0h0Z"/><path class="cls-25" d="M19.14,90.94a.2.2,0,0,1-.09-.09.2.2,0,0,1,0-.13.1.1,0,0,1,0-.09.1.1,0,0,1,.09,0,.22.22,0,0,1,.07.06.41.41,0,0,1,.05.09v0l-.09,0v-.05h0s0,0,0,0,0,0,0,0,0,0,0,0h0v0l.09.07v0s0,0,0,0A.08.08,0,0,1,19.14,90.94Zm0-.26a.06.06,0,0,0-.07,0s0,0,0,.07a.16.16,0,0,0,0,.1s0,0,.07.06a.07.07,0,0,0,.06,0s0,0,0,0l0,0s0,0,0,0,0,0,0,0a.1.1,0,0,1-.05-.06.15.15,0,0,1,0-.08.08.08,0,0,1,0-.06h.05a.08.08,0,0,1,0,0s0,0,0,0h0l0,0Z"/><path class="cls-25" d="M19.41,91.08l-.09,0v-.38l.09,0ZM19.35,91h0v-.21h0Zm0-.28h0v0l0,0Z"/><path class="cls-25" d="M19.61,91.19l-.06,0a.25.25,0,0,1-.05-.08.3.3,0,0,1,0-.1.14.14,0,0,1,0-.06s0,0,0,0h0l0-.08.12.06-.08.05a.27.27,0,0,1,.07.08.22.22,0,0,1,0,.13.13.13,0,0,1,0,.09A.12.12,0,0,1,19.61,91.19Zm0-.26-.05,0,0,0a.05.05,0,0,0,0,0,.14.14,0,0,0,0,.07l0,.06.05,0s.06,0,.07,0a.09.09,0,0,0,0-.07.29.29,0,0,0,0-.09A.18.18,0,0,0,19.61,90.93Zm0-.07h0Zm0,.27a.12.12,0,0,1-.05,0,.19.19,0,0,1,0-.08.08.08,0,0,1,0-.06h.05l.06.06a.19.19,0,0,1,0,.08.08.08,0,0,1,0,.06A.07.07,0,0,1,19.61,91.13Zm0-.15h0s0,0,0,0a.07.07,0,0,0,0,0s0,0,0,0h0s0,0,0,0a.07.07,0,0,0,0,0Z"/><path class="cls-25" d="M20.05,91.41l-.09,0v-.19h0s0,0,0,0h0v.19l-.1,0V91l.09,0H20l0,0s0,0,0,.05a.05.05,0,0,1,0,0v.22ZM20,91.34l0,0v-.14s0,0,0,0v0s0,0,0,0l0,0h-.05s0,0,.06,0l0,0v.17Zm-.14-.07h0v-.15h0v-.07h0Z"/><path class="cls-25" d="M20.41,91.6a.13.13,0,0,1-.09-.09.35.35,0,0,1,0-.16c0-.07,0-.11,0-.13s0,0,.08,0a.2.2,0,0,1,.08.08.31.31,0,0,1,0,.17c0,.07,0,.12,0,.14S20.45,91.62,20.41,91.6Zm0-.34a0,0,0,0,0-.06,0,.29.29,0,0,0,0,.12.24.24,0,0,0,0,.13.2.2,0,0,0,.06.07.06.06,0,0,0,.06,0,.23.23,0,0,0,0-.11.61.61,0,0,0,0-.15Zm0,.29s0,0,0,0a.08.08,0,0,1,0,0s0,0,0-.09a.54.54,0,0,1,0-.08s0,0,0,0,0,0,.06,0a.08.08,0,0,1,0,0s0,.05,0,.09,0,.07,0,.09a0,0,0,0,1,0,0A0,0,0,0,1,20.41,91.55Zm0-.24h0v.18s0,0,0,0h0v-.18Z"/><path class="cls-25" d="M20.7,91.76a.24.24,0,0,1-.08-.09.4.4,0,0,1,0-.17.19.19,0,0,1,0-.13.06.06,0,0,1,.08,0,.2.2,0,0,1,.09.09.4.4,0,0,1,0,.17.19.19,0,0,1,0,.13S20.74,91.78,20.7,91.76Zm0-.35h-.05s0,0,0,.11a.46.46,0,0,0,0,.14.17.17,0,0,0,.06.06s.05,0,.06,0,0,0,0-.11a.26.26,0,0,0,0-.14A.09.09,0,0,0,20.7,91.41Zm0,.3,0,0a.17.17,0,0,0,0-.05v-.09a.2.2,0,0,1,0-.09s0,0,0,0a.11.11,0,0,1,.07,0s0,0,0,0a.25.25,0,0,1,0,.1s0,.07,0,.08a0,0,0,0,1,0,0Zm0-.24h0a0,0,0,0,0,0,0,.56.56,0,0,0,0,.07.78.78,0,0,0,0,.09,0,0,0,0,0,0,0,0,0,0,0,0,0,0s0,0,0,0a.24.24,0,0,0,0-.07.38.38,0,0,0,0-.08,0,0,0,0,0,0,0Z"/><path class="cls-25" d="M21,91.91a.18.18,0,0,1-.08-.07.21.21,0,0,1,0-.1v0l.09,0v0a0,0,0,0,0,0,0s0,0,0,0h0v0s0,0,0,0h0v-.09l-.08-.06v0l0,0,0,0,.06,0a.15.15,0,0,1,.08.08.13.13,0,0,1,0,.08.05.05,0,0,1,0,0,.05.05,0,0,1,0,0,.19.19,0,0,1,0,.07s0,.06,0,.07A.1.1,0,0,1,21,91.91Zm-.08-.14a.08.08,0,0,0,0,0,.17.17,0,0,0,.06.06.06.06,0,0,0,.06,0,0,0,0,0,0,0,0,.17.17,0,0,0,0,0s0,0,0,0h0a.14.14,0,0,1,0,.07.05.05,0,0,1,0,0s0,0,0,0a.08.08,0,0,1,0,0,.08.08,0,0,1,0,0ZM21,91.7h0s0,0,0,0a.11.11,0,0,0,0,0L21,91.56h-.07v0h0s0,0,0,0l0,0,0,0a.05.05,0,0,1,0,0Zm0,0h0v0h0s0,0,0,0h0Z"/><path class="cls-25" d="M21.3,92.07a.19.19,0,0,1-.08-.07.21.21,0,0,1,0-.12.08.08,0,0,1,0,0h0a0,0,0,0,1,0,0,.14.14,0,0,1,0-.06.06.06,0,0,1,0-.06.08.08,0,0,1,.08,0s.07,0,.08.07a.26.26,0,0,1,0,.1.05.05,0,0,1,0,0h0s0,0,0,0a.14.14,0,0,1,0,.07.08.08,0,0,1,0,.07A.08.08,0,0,1,21.3,92.07Zm0-.35s0,0-.05,0,0,0,0,0a0,0,0,0,0,0,0,.05.05,0,0,0,0,0l0,0h0l0,0s0,0,0,0a.13.13,0,0,0,0,.08.1.1,0,0,0,.06,0,0,0,0,0,0,.06,0,.08.08,0,0,0,0-.05.09.09,0,0,0,0,0l0,0,0,0h.06a0,0,0,0,0,0,0,.14.14,0,0,0,0-.06A.1.1,0,0,0,21.29,91.72Zm0,.3a.12.12,0,0,1-.05,0,.14.14,0,0,1,0-.06.05.05,0,0,1,0,0s0,0,0,0a.1.1,0,0,1,.05,0,.14.14,0,0,1,0,.06.06.06,0,0,1,0,0A0,0,0,0,1,21.3,92Zm0-.11h0s0,0,0,0a0,0,0,0,0,0,0s0,0,0,0h0s0,0,0,0a0,0,0,0,0,0,0Zm0-.06,0,0a.11.11,0,0,1,0,0s0,0,0,0,0,0,0,0,0,0,0,0l0,0a.05.05,0,0,1,0,0Zm0-.08h0a0,0,0,0,0,0,0s0,0,0,0,0,0,0,0h0v0h0S21.3,91.78,21.29,91.77Z"/><path class="cls-25" d="M21.59,92.22a.2.2,0,0,1-.09-.09.35.35,0,0,1,0-.16.19.19,0,0,1,0-.13.07.07,0,0,1,.09,0,.26.26,0,0,1,.12.25c0,.07,0,.12,0,.13A.06.06,0,0,1,21.59,92.22Zm0-.34s0,0-.06,0,0,.06,0,.12a.24.24,0,0,0,0,.13.09.09,0,0,0,.06.06,0,0,0,0,0,.06,0,.29.29,0,0,0,0-.12.52.52,0,0,0,0-.14Zm0,.29,0,0a.08.08,0,0,1,0,0s0,0,0-.09,0-.07,0-.09l0,0s0,0,.06,0,0,0,0,0,0,0,0,.09,0,.07,0,.09l0,0S21.6,92.17,21.59,92.17Zm0-.24h0v.18h0s0,0,0-.08v-.1Z"/><path class="cls-25" d="M21.88,92.38a.24.24,0,0,1-.08-.09.4.4,0,0,1,0-.17.19.19,0,0,1,0-.13.06.06,0,0,1,.08,0,.2.2,0,0,1,.09.09.4.4,0,0,1,0,.17.19.19,0,0,1,0,.13S21.92,92.4,21.88,92.38Zm0-.35a0,0,0,0,0-.05,0s0,0,0,.11a.46.46,0,0,0,0,.14.17.17,0,0,0,.06.06h.06s0,0,0-.11a.26.26,0,0,0,0-.14A.09.09,0,0,0,21.88,92Zm0,.29,0,0s0,0,0,0v-.18l0,0a.07.07,0,0,1,.06,0s0,0,0,.05a.22.22,0,0,1,0,.09.2.2,0,0,1,0,.09s0,0,0,0Zm0-.24h0s0,0,0,0,0,0,0,.07a.38.38,0,0,0,0,.08,0,0,0,0,0,0,0h0a0,0,0,0,0,0,0,.35.35,0,0,0,0-.07.38.38,0,0,0,0-.08,0,0,0,0,0,0,0Z"/><path class="cls-25" d="M22.38,92.63l-.13-.07v-.38l.13.07s.05,0,.06,0l.06.06,0,.08a.28.28,0,0,1,0,.09s0,.06,0,.07a.07.07,0,0,1,0,.05h0Zm-.1-.09.1,0a.06.06,0,0,0,.05,0s0,0,0,0,0,0,0,0,0,0,0-.06a.22.22,0,0,0,0-.08l0-.06a.08.08,0,0,0,0,0l-.05,0-.1-.05Zm.09,0-.06,0v-.26l.05,0,.05,0,0,0a.26.26,0,0,1,0,.12.15.15,0,0,1,0,.07l0,0h0Zm0,0h0l0,0h0v-.13l0,0a0,0,0,0,0,0,0s0,0,0,0h0Z"/><path class="cls-25" d="M22.89,92.9l-.28-.15v-.37l.27.14v.09l-.17-.09v0l.16.08v.1l-.16-.08v0l.18.09Zm-.24-.17.2.11v0l-.17-.09V92.6l.15.08v0l-.15-.08v-.11l.17.09v0l-.2-.11Z"/><path class="cls-25" d="M23.35,93.14,23.11,93v0a.14.14,0,0,1,0-.06l.07-.05.05,0a0,0,0,0,0,0,0s0,0,0,0a0,0,0,0,0,0,0h0a0,0,0,0,0,0,0v0l-.09-.06v0s0-.06,0-.07a.12.12,0,0,1,.08,0,.3.3,0,0,1,.08.08.19.19,0,0,1,0,.1v0l0,0,0,0h0l.09.05Zm-.2-.14.17.09v0L23.19,93v0h0l0,0s0,0,0,0,0,0,0,0a0,0,0,0,0,0,0,.14.14,0,0,0,0-.06.34.34,0,0,0-.06-.06h-.06s0,0,0,0l0,0s0,0,0,0h0l0,0a.07.07,0,0,1,0,0s0,0,0,0l-.05,0s-.06,0-.07,0S23.15,93,23.15,93Z"/><path class="cls-25" d="M23.53,93.24a.38.38,0,0,1-.09-.09.35.35,0,0,1,0-.16c0-.07,0-.11,0-.13a.06.06,0,0,1,.08,0,.2.2,0,0,1,.09.09.35.35,0,0,1,0,.16.19.19,0,0,1,0,.13S23.57,93.26,23.53,93.24Zm0-.34a0,0,0,0,0-.06,0,.27.27,0,0,0,0,.11.33.33,0,0,0,0,.14.17.17,0,0,0,.06.06s0,0,.06,0,0,0,0-.11a.3.3,0,0,0,0-.14S23.56,92.91,23.53,92.9Zm0,.29,0,0s0,0,0,0,0,0,0-.09,0-.07,0-.09,0,0,0,0,0,0,.06,0a.08.08,0,0,1,0,0,.22.22,0,0,1,0,.09.54.54,0,0,1,0,.08s0,0,0,0Zm0-.24h0s0,0,0,.08v.08a0,0,0,0,1,0,0h0V93Z"/><path class="cls-25" d="M23.83,93.39a.2.2,0,0,1-.09-.09.35.35,0,0,1,0-.16.19.19,0,0,1,0-.13s.05,0,.09,0a.24.24,0,0,1,.08.09.4.4,0,0,1,0,.17.21.21,0,0,1,0,.13A.08.08,0,0,1,23.83,93.39Zm0-.34h-.06s0,0,0,.11a.19.19,0,0,0,0,.13.13.13,0,0,0,.06.07,0,0,0,0,0,.05,0,.14.14,0,0,0,0-.11.26.26,0,0,0,0-.14A.1.1,0,0,0,23.83,93.05Zm0,.29s0,0,0,0a.06.06,0,0,1,0,0,.2.2,0,0,1,0-.09s0-.07,0-.08,0,0,0,0a.11.11,0,0,1,.06,0s0,0,0,0v.18l0,0Zm0-.24h0a0,0,0,0,0,0,0,.35.35,0,0,0,0,.07.38.38,0,0,0,0,.08s0,0,0,0,0,0,0,0h0a.38.38,0,0,0,0-.08.35.35,0,0,0,0-.07,0,0,0,0,0,0,0Z"/><path class="cls-25" d="M24.12,93.55a.27.27,0,0,1-.08-.07.42.42,0,0,1,0-.1v0l.1,0v0s0,0,0,0a0,0,0,0,0,0,0h0s0,0,0,0,0,0,0,0a0,0,0,0,0,0,0,0,0,0,0,0,0,0h0L24,93.32l0-.19.19.1v.1l-.11-.06h0s.05,0,.08.08a.2.2,0,0,1,0,.11.09.09,0,0,1,0,.07S24.17,93.57,24.12,93.55ZM24,93.41s0,0,0,0l.06.05s.06,0,.07,0,0,0,0-.05a.12.12,0,0,0,0-.08.12.12,0,0,0-.05,0h-.07l0-.1.11.06v0l-.13-.06,0,.12,0,0a0,0,0,0,1,.05,0l.05,0a.14.14,0,0,1,0,.07.08.08,0,0,1,0,0,0,0,0,0,1-.05,0s0,0,0,0,0,0,0,0Z"/><path class="cls-44" d="M17.28,89.94v-.35l.13.07s.06,0,.07,0a.1.1,0,0,1,0,.05.13.13,0,0,1,0,.06.08.08,0,0,1,0,.06s0,0-.06,0l0,0,0,.08,0,.09-.08,0,0-.1,0-.07,0,0,0,0h0V90Zm.06-.17.05,0,.05,0h0v0s0,0,0,0l0,0,0,0-.05,0Z"/><path class="cls-44" d="M17.77,90.12l.06,0,0,0a.11.11,0,0,1-.07,0,.2.2,0,0,1-.08-.08.22.22,0,0,1,0-.1.12.12,0,0,1,0-.09.08.08,0,0,1,.08,0,.2.2,0,0,1,.08.08.23.23,0,0,1,0,.13l-.15-.08a.09.09,0,0,0,0,0s0,0,0,0h0Zm0-.07s0,0,0,0l0,0a0,0,0,0,0,0,0s0,0,0,0Z"/><path class="cls-44" d="M17.92,90.2l.06,0s0,0,0,0l0,0h0a0,0,0,0,0,0,0,0,0,0,0,0,0,0l0,0c-.05,0-.08-.06-.09-.08a.11.11,0,0,1,0-.07s0,0,0,0,0,0,.07,0l.07.05,0,.07-.06,0a0,0,0,0,0,0,0l0,0h0s0,0,0,0h0s0,0,.05.05a.45.45,0,0,1,.07.07.11.11,0,0,1,0,.06s0,0,0,0,0,0-.08,0L18,90.28A.13.13,0,0,1,17.92,90.2Z"/><path class="cls-44" d="M18.22,90.3a.07.07,0,0,1,0,0,.05.05,0,0,1,0,0l.06,0a.14.14,0,0,1,.09.08.2.2,0,0,1,0,.11s0,.06,0,.07-.05,0-.09,0l0,0a.18.18,0,0,1-.05-.07A.19.19,0,0,1,18.22,90.3Zm.06,0s0,0,0,.06,0,0,0,0h0a.08.08,0,0,0,0,0,.14.14,0,0,0,0-.07.08.08,0,0,0,0,0,0,0,0,0,0,0,0S18.28,90.31,18.28,90.34Z"/><path class="cls-44" d="M18.55,90.61v-.35l.06,0v.35Z"/><path class="cls-44" d="M18.87,90.77v0H18.8l0,0s0,0,0,0a.35.35,0,0,1,0-.06v-.15l.06,0v.11s0,.06,0,.07,0,0,0,0a0,0,0,0,0,0,0h0s0,0,0,0,0,0,0-.06v-.11l.06,0v.25Z"/><path class="cls-44" d="M19.24,90.79l-.06,0s0,0,0,0l0,0h0a.2.2,0,0,0,0,.05s0,0,0,.07l0,0h0s0,0,0,0l.06,0s0,.05,0,.05,0,0-.07,0a.16.16,0,0,1-.08-.08.2.2,0,0,1,0-.11s0-.07,0-.08a.08.08,0,0,1,.08,0,.1.1,0,0,1,.06,0A.3.3,0,0,1,19.24,90.79Z"/><path class="cls-44" d="M19.34,90.74v-.07l.06,0v.06Zm0,.28v-.25l.06,0v.25Z"/><path class="cls-44" d="M19.5,91a.07.07,0,0,1,0,0,.05.05,0,0,1,0,0l.06,0a.18.18,0,0,1,.09.08.23.23,0,0,1,0,.11.1.1,0,0,1,0,.08.1.1,0,0,1-.09,0l-.06,0a.43.43,0,0,1,0-.07A.19.19,0,0,1,19.5,91Zm.06,0s0,0,0,.06,0,0,0,0h0a.08.08,0,0,0,0-.05.14.14,0,0,0,0-.07l0,0h0S19.56,91,19.56,91Zm0-.14,0-.06.07,0-.06,0Z"/><path class="cls-44" d="M20,91.38l-.06,0v-.12a.35.35,0,0,0,0-.06,0,0,0,0,0,0,0s0,0,0,0h0l0,0v.17l-.06,0V91l.05,0v0a.08.08,0,0,1,.08,0l0,0,0,0a0,0,0,0,1,0,0s0,0,0,0Z"/><path class="cls-44" d="M20.41,91.24a.16.16,0,0,1,.07.07.33.33,0,0,1,0,.15.19.19,0,0,1,0,.13h-.07a.27.27,0,0,1-.07-.08.33.33,0,0,1,0-.15.19.19,0,0,1,0-.13A.06.06,0,0,1,20.41,91.24Zm0,.05h0s0,0,0,0,0,0,0,.08a.22.22,0,0,0,0,.09v0s0,0,0,0,0,0,0,0,0,0,0,0,0,0,0-.08,0-.07,0-.08,0,0,0,0S20.42,91.29,20.41,91.29Z"/><path class="cls-44" d="M20.7,91.39a.19.19,0,0,1,.08.07.35.35,0,0,1,0,.16.17.17,0,0,1,0,.12s0,0-.08,0a.19.19,0,0,1-.07-.08.28.28,0,0,1,0-.15.17.17,0,0,1,0-.12A.08.08,0,0,1,20.7,91.39Zm0,.06a0,0,0,0,0,0,0l0,0v.17s0,0,0,0,0,0,0,0h0s0,0,0,0V91.5s0,0,0,0Z"/><path class="cls-44" d="M20.9,91.74l.05,0s0,0,0,0l0,0h0s0,0,0,0a.07.07,0,0,0,0,0l0,0h0v0h0s0,0,0,0a0,0,0,0,0,0,0s0,0,0,0h0s0,0,0,0l-.06,0a.08.08,0,0,1,0,0h0l.05,0a.13.13,0,0,1,.07.06.25.25,0,0,1,0,.07,0,0,0,0,1-.05,0,.12.12,0,0,1,.05,0,.13.13,0,0,1,0,.06.06.06,0,0,1,0,.06.06.06,0,0,1-.07,0,.13.13,0,0,1-.07-.06A.16.16,0,0,1,20.9,91.74Z"/><path class="cls-44" d="M21.24,91.83l0,0a.11.11,0,0,1,0-.05.06.06,0,0,1,0,0s0,0,.07,0a.22.22,0,0,1,.07.06.13.13,0,0,1,0,.08v0a.05.05,0,0,1,0,0,.07.07,0,0,1,0,0,.14.14,0,0,1,0,.06.06.06,0,0,1,0,.06.06.06,0,0,1-.07,0,.11.11,0,0,1-.07-.06.13.13,0,0,1,0-.1.05.05,0,0,1,0,0Zm0,.09s0,0,0,0l0,0h0s0,0,0,0,0,0,0,0,0,0,0,0a0,0,0,0,0,0,0S21.25,91.9,21.25,91.92Zm0-.15s0,0,0,0l0,0h0s0,0,0,0a0,0,0,0,0,0,0l0,0h0S21.26,91.76,21.26,91.77Z"/><path class="cls-44" d="M21.59,91.86a.16.16,0,0,1,.07.07.33.33,0,0,1,0,.15.19.19,0,0,1,0,.13.06.06,0,0,1-.07,0,.12.12,0,0,1-.07-.07.33.33,0,0,1,0-.15.19.19,0,0,1,0-.13A.06.06,0,0,1,21.59,91.86Zm0,0h0s0,0,0,0,0,0,0,.08,0,.07,0,.08,0,0,0,0,0,0,0,0h0a0,0,0,0,0,0,0s0,0,0-.08,0-.07,0-.08,0,0,0,0S21.6,91.91,21.59,91.91Z"/><path class="cls-44" d="M21.88,92a.16.16,0,0,1,.07.07.25.25,0,0,1,0,.16c0,.06,0,.1,0,.12a.08.08,0,0,1-.07,0,.19.19,0,0,1-.07-.08.28.28,0,0,1,0-.15.17.17,0,0,1,0-.12S21.85,92,21.88,92Zm0,.06h0a0,0,0,0,0,0,0v.17s0,0,0,0h0l0,0v-.17l0,0Z"/><path class="cls-44" d="M22.26,92.21l.12.06.06,0,0,.06,0,.07s0,0,0,.08,0,0,0,.07a.08.08,0,0,1,0,0h0l-.06,0-.12-.06Zm.07.09v.23l0,0,0,0h0s0,0,0,0a.07.07,0,0,0,0-.05.15.15,0,0,0,0-.07s0,0,0,0l0,0-.05,0Z"/><path class="cls-44" d="M22.63,92.74v-.33l.23.12v0l-.17-.08v.07l.16.08v.06l-.16-.08v.09l.18.09v.06Z"/><path class="cls-44" d="M23.34,93.05v.06L23.13,93a.08.08,0,0,1,0,0l.07,0,0,0a.05.05,0,0,0,0,0s0,0,0,0l0,0h0s0,0,0,0l-.06,0s0,0,0-.06,0,0,.07,0a.23.23,0,0,1,.07.07.13.13,0,0,1,0,.08v0l0,0,0,0,0,0h0Z"/><path class="cls-44" d="M23.53,92.88a.16.16,0,0,1,.07.07.33.33,0,0,1,0,.15q0,.11,0,.12s0,0-.07,0a.19.19,0,0,1-.07-.08.26.26,0,0,1,0-.14.19.19,0,0,1,0-.13A.06.06,0,0,1,23.53,92.88Zm0,.05h0a0,0,0,0,0,0,0s0,0,0,.08,0,.07,0,.08,0,0,0,0l0,0h0s0,0,0,0,0,0,0-.08,0-.07,0-.08,0,0,0,0Z"/><path class="cls-44" d="M23.83,93a.23.23,0,0,1,.07.07.35.35,0,0,1,0,.16.17.17,0,0,1,0,.12.06.06,0,0,1-.07,0,.18.18,0,0,1-.08-.07.33.33,0,0,1,0-.15c0-.06,0-.1,0-.12A.08.08,0,0,1,23.83,93Zm0,.06h0l0,0v.17s0,0,0,0a0,0,0,0,0,0,0s0,0,0,0,0,0,0,0v-.16s0,0,0,0Z"/><path class="cls-44" d="M24,93.38l.06,0a.08.08,0,0,0,0,0l0,0h0s0,0,0,0,0,0,0-.06l0,0h0l0,0,0-.16.16.08v.06l-.12-.06v.06h.05a.17.17,0,0,1,.06.06.19.19,0,0,1,0,.1.08.08,0,0,1,0,.06s-.05,0-.09,0a.13.13,0,0,1-.07-.06A.16.16,0,0,1,24,93.38Z"/></g></g></g></svg>