<svg xmlns="http://www.w3.org/2000/svg" xmlns:xlink="http://www.w3.org/1999/xlink" viewBox="0 0 95.57 84.7"><defs><style>.cls-1{fill:none;}.cls-2{isolation:isolate;}.cls-3{opacity:0.2;}.cls-4{clip-path:url(#clip-path);}.cls-5{fill:#f2d0b8;}.cls-6{fill:#e5e5e5;}.cls-7{fill:#cbcbcb;}.cls-8{fill:#f2f2f2;}.cls-9{clip-path:url(#clip-path-2);}.cls-10{fill:#f1ccad;}.cls-11{fill:#eec1a6;}.cls-12{clip-path:url(#clip-path-3);}.cls-13{fill:#212426;}.cls-14{fill:#42484d;}.cls-15{fill:#2c3033;}.cls-16{fill:#e1771c;}.cls-17{fill:#e8a126;}.cls-18{opacity:0.1;}.cls-19{clip-path:url(#clip-path-4);}.cls-20{clip-path:url(#clip-path-5);}.cls-21{opacity:0.05;}.cls-22{clip-path:url(#clip-path-6);}.cls-23{fill:#f0c7a3;}.cls-24{fill:#e5aa89;}.cls-25{clip-path:url(#clip-path-7);}.cls-26{clip-path:url(#clip-path-8);}.cls-27{fill:#f1cdb2;}.cls-28{fill:#450000;}.cls-29{fill:#360000;}.cls-30{fill:#590000;}.cls-31{fill:#6e0000;}.cls-32{fill:#edbc2e;}.cls-33{fill:#d06b19;}.cls-34{fill:url(#Degradado_sin_nombre_291);}.cls-35,.cls-37{fill:gray;}.cls-36{fill:#292929;}.cls-37{opacity:0.78;mix-blend-mode:multiply;}.cls-38,.cls-54{fill:#333;}.cls-38{opacity:0.5;}.cls-39{clip-path:url(#clip-path-9);}.cls-40{fill:#f0c6b4;}.cls-41{fill:#e6e6e6;}.cls-42{fill:#c7a495;}.cls-43{fill:#fff;}.cls-44,.cls-46{fill:#f15a24;}.cls-44{opacity:0.3;}.cls-45{fill:#141414;}.cls-47{fill:url(#Degradado_sin_nombre_291-2);}.cls-48{fill:#8c6239;}.cls-49{fill:#e0b69b;}.cls-50{fill:#9ea3aa;}.cls-51{fill:#555c66;}.cls-52{fill:#6f7885;}.cls-53{fill:#754c24;}</style><clipPath id="clip-path"><path class="cls-1" d="M79.07,10.53a1.2,1.2,0,0,1-.32,1.71c-2.88,1.9-8.36.39-8.36.39h0a1.48,1.48,0,0,1,.32-2.94A23.51,23.51,0,0,1,76,9.3,3.61,3.61,0,0,1,79.07,10.53Z"/></clipPath><clipPath id="clip-path-2"><path class="cls-1" d="M67.58,6.43s.32-.25.92.28a3.26,3.26,0,0,1,1,1.3l1.58,1.75a1.48,1.48,0,0,1-1.87,2.3,22.25,22.25,0,0,1-1.82-1.72s-.42,0-1.18-.73A1.26,1.26,0,0,1,66,7.89,17.12,17.12,0,0,0,64.3,5.36a2.75,2.75,0,0,0-.79-.25c-.41,0-1-.67-1.35-.84a7.5,7.5,0,0,1-.77-.5s-.33-.11-.37-.26.13-.22.13-.22-.17-.24.22-.56a1.29,1.29,0,0,1,1-.37,3.78,3.78,0,0,1,1.43.5c.39.28.93,1.06,1.29,1.37S67.58,6.43,67.58,6.43Z"/></clipPath><clipPath id="clip-path-3"><path class="cls-1" d="M80.89,35.89h0a2.07,2.07,0,0,0-4.12.3,2.66,2.66,0,0,0,0,.28h0l.37,2.28.29,4.76s-.17,1,.17,1.28c0,0-1.86,1.12-2.15,1.82s-.6,2.29,1.08,2.17,1.93-1.44,2.92-1.75,2-.56,1.35-1.83a19,19,0,0,0,.28-2.06A39.74,39.74,0,0,0,80.89,35.89Z"/></clipPath><clipPath id="clip-path-4"><path class="cls-1" d="M81.07,29.93c.08-.45.48-2.55-.34-3.26a3.8,3.8,0,0,0-3.51-1.21,1,1,0,0,0-1,.88,8.27,8.27,0,0,0-.2,3.3l.35,4.64.43,2.31h0v0h0a2.07,2.07,0,0,0,4.1-.43,1.1,1.1,0,0,0,0-.18l-.08-3.09S81,30.38,81.07,29.93Z"/></clipPath><clipPath id="clip-path-5"><path class="cls-1" d="M85.4,43.14l-.14-4.61L85,36.62a2.07,2.07,0,1,0-4.14,0,1.91,1.91,0,0,0,.06.48h0l.58,3.35a34.42,34.42,0,0,1,.14,3.79c-.14,1.2.33,1.49.33,1.49a5.68,5.68,0,0,1-1.44,2.45,1.4,1.4,0,0,0-.28,1.32c-.1,1,1.17.79,1.17.79,2.47-.64,2.44-2.28,3.13-2.8A1.31,1.31,0,0,0,84.82,46l.29-.11Z"/></clipPath><clipPath id="clip-path-6"><path class="cls-1" d="M84.88,27a3.86,3.86,0,0,0-3.52-1.21,1,1,0,0,0-1,.89,8.46,8.46,0,0,0-.2,3.3l.35,4.64.31,2.37h0A2.07,2.07,0,0,0,85,36.62a.31.31,0,0,0,0-.1h0V33.2s.18-2.53.26-3S85.69,27.67,84.88,27Z"/></clipPath><clipPath id="clip-path-7"><path class="cls-1" d="M88.81,27.6c.24-.44.37-.86.18-.94s-.52.53-.87.35,0-.64.2-.8.37-.6.65-1,.82-.49.71-1.11-.28-2.14-.28-2.14A1.88,1.88,0,0,1,89,20.71a1.72,1.72,0,0,1,.22-1.16l-.08-2A1.48,1.48,0,0,1,92,17.09l.25,2.26a1.89,1.89,0,0,1,.36,1.55,1.26,1.26,0,0,1-1,1.06,23.05,23.05,0,0,1-.28,3.24A8.22,8.22,0,0,1,90.86,27c-.75,1.75-2.44,1.9-2.7,1.49S88.58,28.05,88.81,27.6Z"/></clipPath><clipPath id="clip-path-8"><path class="cls-1" d="M83.7,11.48a1.22,1.22,0,0,1,1.42-1c3.4.64,6.29,5.52,6.29,5.52h0a1.48,1.48,0,0,1-2.27,1.9,23.71,23.71,0,0,1-4.08-3.4A3.64,3.64,0,0,1,83.7,11.48Z"/></clipPath><linearGradient id="Degradado_sin_nombre_291" x1="-1405.63" y1="2.75" x2="-1399.01" y2="2.75" gradientTransform="matrix(-1, 0, 0, 1, -1322.23, 0)" gradientUnits="userSpaceOnUse"><stop offset="0" stop-color="#e1771c"/><stop offset="0.5" stop-color="#dc731b"/><stop offset="1" stop-color="#d06b19"/></linearGradient><clipPath id="clip-path-9"><polygon class="cls-1" points="30.38 59.57 58.58 76.08 74.56 66.63 48.94 51.73 48.94 46.5 44.18 43.17 44.18 34.87 34.13 34.87 34.13 45.13 24.49 56.12 24.49 59.04 30.38 59.57"/></clipPath><linearGradient id="Degradado_sin_nombre_291-2" x1="-760.04" y1="373.37" x2="-753.74" y2="373.37" gradientTransform="matrix(-0.98, 0.18, 0.18, 0.98, -772.36, -190.71)" xlink:href="#Degradado_sin_nombre_291"/></defs><title>Recurso 47</title><g class="cls-2"><g id="Capa_2" data-name="Capa 2"><g id="personajes"><ellipse class="cls-3" cx="80.76" cy="47.51" rx="12.62" ry="5.68"/><g class="cls-4"><path class="cls-5" d="M70,12.27a6.71,6.71,0,0,1-1.85-.33c-.82-.33-1.64-.69-1.86-.77s-1.11-.48-1.94-.84L63.45,10a3.16,3.16,0,0,0-.64-.21h-.07a2,2,0,0,0-1,.25,3,3,0,0,1-1.07,0c-.26,0-1.08.05-1.08.05l-.28,0-.19.05-.2-.09,0-.19-.12,0V9.3a5,5,0,0,1,.47-.69,6.93,6.93,0,0,1,1.42-.47c.09,0,1.34.31,1.77.42.11,0,.45.08.92.15,1.24.16,3.36.42,4.27.5a9,9,0,0,1,1.84.41c.55.17,1,.37,1.29.47a14.15,14.15,0,0,0,2.25.4s.48,1.61.16,1.93-2.71-.06-3.25-.15"/><path class="cls-6" d="M74,9.4h-.42c-1,0-1.93.22-2.91.23A8.71,8.71,0,0,1,68.2,9.2l-.1,0-.17,0c-.29-.08-.58-.18-.88-.24a3.11,3.11,0,0,0-.44-.08c-.47,0-.45.36-.49.73v.15a3.45,3.45,0,0,0,0,.85,1.73,1.73,0,0,0,.63,1.18,1.32,1.32,0,0,0,.46.19q.86.25,1.71.45a14.34,14.34,0,0,0,1.56.31l1.64.13c.6,0,1.2.07,1.81.07.19,0,.38,0,.57,0A12.73,12.73,0,0,0,77,12.61a6.59,6.59,0,0,0,1.24-.38c.32-.15.7-.22.81-.62a.29.29,0,0,1,0-.09,2.44,2.44,0,0,0,0-.26v0a1.45,1.45,0,0,0-.55-.9A3.94,3.94,0,0,0,77,9.59h0l-.13,0-.14,0c-.89-.14-1.82-.09-2.73-.15"/><path class="cls-7" d="M67.72,9A1.73,1.73,0,0,0,67,8.91a1.37,1.37,0,0,0-.75.61,1.09,1.09,0,0,0-.13.17,3.45,3.45,0,0,0,0,.85,1.73,1.73,0,0,0,.63,1.18,1.32,1.32,0,0,0,.46.19q.86.25,1.71.45a14.34,14.34,0,0,0,1.56.31l1.64.13c.6,0,1.2.07,1.81.07.19,0,.38,0,.57,0A12.73,12.73,0,0,0,77,12.61a6.59,6.59,0,0,0,1.24-.38c.32-.15.7-.22.81-.62a.29.29,0,0,1,0-.09,2.44,2.44,0,0,0,0-.26,1.31,1.31,0,0,1-.57.3,15,15,0,0,1-4.26.64.66.66,0,0,1-.49-.15.66.66,0,0,1-.11-.39l0-.48-.36.67c0-.09-.18-.1-.27,0s-.15.14-.24.2a.23.23,0,0,1-.28.05c-.18-.11,0-.41-.1-.59a1.81,1.81,0,0,0-.37.41,1.2,1.2,0,0,1-1.06.28c-.39-.11-.26-.66-.27-1l-.6.6c-.34.29-.57.16-1,.09s-.73-.09-.64-.53a.72.72,0,0,1-1.2-.62,1.34,1.34,0,0,1,.51-.91c.17-.15.35-.26.5-.42s0,0,0-.06,0,0-.06-.06A3,3,0,0,0,67.72,9"/><path class="cls-7" d="M74,9.4h-.42c-1,0-1.93.22-2.91.23A8.71,8.71,0,0,1,68.2,9.2a4.44,4.44,0,0,0,1,.29,6.2,6.2,0,0,1,1,.21.46.46,0,0,1,.24.19,2.12,2.12,0,0,1,.06.43,1.68,1.68,0,0,1,0,.45,1.23,1.23,0,0,1,.37-.71c.09-.1.38-.35.5-.17a.56.56,0,0,1,0,.29,1.33,1.33,0,0,0,0,.2,1.65,1.65,0,0,1,1-.77,1.48,1.48,0,0,1,.75-.07c.23.06.32.27.38.48a1,1,0,0,0,.27.55,1.84,1.84,0,0,1,.08-1l.42.26,0,0c.1,0,0-.23.15-.23.23.35,0,.86.21,1.23a1.3,1.3,0,0,1,.11-.81,1.3,1.3,0,0,1,1-.48,3.47,3.47,0,0,1,.85,0c-.89-.14-1.82-.09-2.73-.15"/><path class="cls-8" d="M68.21,9.1a.86.86,0,0,1,.14.13,1.58,1.58,0,0,0-.77.37,1.91,1.91,0,0,0-.43.69,1.49,1.49,0,0,0,0,1.08,1.3,1.3,0,0,0,.44.57,1.1,1.1,0,0,0,.32.17,1.72,1.72,0,0,1-.87.13A2.53,2.53,0,0,1,66.2,12a1,1,0,0,1-.31-.2,1,1,0,0,1-.25-.58A4.24,4.24,0,0,1,66.08,9a.42.42,0,0,1,.09-.14.76.76,0,0,1,.59-.15,5,5,0,0,1,.85.11,1.93,1.93,0,0,1,.6.28"/></g><g class="cls-9"><path class="cls-5" d="M69.05,11.48a6.89,6.89,0,0,1-1.35-1.31c-.5-.73-1-1.48-1.11-1.66s-.65-1-1.14-1.79l-.54-.81a3.81,3.81,0,0,0-.41-.53l0,0a2.08,2.08,0,0,0-1-.35,3.14,3.14,0,0,1-.9-.56c-.21-.16-.93-.56-.93-.56l-.21-.18-.19-.06-.11-.19.14-.13-.08-.11.26-.38a6,6,0,0,1,.77-.32,7.67,7.67,0,0,1,1.44.41c.07.06.94,1,1.24,1.33a9.1,9.1,0,0,0,.68.63c.94.84,2.55,2.22,3.27,2.8A8.79,8.79,0,0,1,70.16,9c.36.45.63.87.8,1.11a15,15,0,0,0,1.65,1.58s-.5,1.61-.94,1.69-2.22-1.55-2.62-1.93"/><path class="cls-10" d="M64.3,4.82a3.65,3.65,0,0,1,.34.18.71.71,0,0,0,.37.1l0,0s0,0,0,0A.34.34,0,0,0,65,4.8a1.3,1.3,0,0,0-.49-.3.89.89,0,0,1-.43-.38,1,1,0,0,1,0-.35.52.52,0,0,0,0-.17.76.76,0,0,0-.11-.14l-.23-.26a.53.53,0,0,0-.13-.13A.56.56,0,0,0,63.32,3c-.32-.12-.65-.25-1-.34a.21.21,0,0,0-.11,0s-.07,0-.07.06.07.11.13.12a2.39,2.39,0,0,1,.69.31,1,1,0,0,1,.49.73.18.18,0,0,1-.09.18.27.27,0,0,1-.19,0A1,1,0,0,0,63,4a.58.58,0,0,1-.22-.08l-.55-.24a.2.2,0,0,0-.11,0,.11.11,0,0,0-.1.06A.15.15,0,0,0,62,3.8a3.59,3.59,0,0,0,.8.53,2.82,2.82,0,0,0,.36.24,2.64,2.64,0,0,0,.38.18,4.51,4.51,0,0,1,.73.07"/><path class="cls-11" d="M63.21,3.69l-.36-.39a1.8,1.8,0,0,0-.3-.26l-.47-.1-.37.11-.34.14a1.15,1.15,0,0,1,.56,0l.3.2a4,4,0,0,0,.51.31.53.53,0,0,0,.15,0Z"/><path class="cls-6" d="M74,11.3l-.23-.16-.12-.09c-.81-.55-1.72-.89-2.54-1.43a9,9,0,0,1-1.79-1.69l-.06-.07-.12-.13c-.2-.24-.38-.48-.59-.7a3,3,0,0,0-.32-.3c-.39-.28-.58,0-.82.33l-.09.12a3.34,3.34,0,0,0-.48.7,1.68,1.68,0,0,0-.13,1.33,1.44,1.44,0,0,0,.27.42q.55.67,1.17,1.32a13.26,13.26,0,0,0,1.13,1.12l1.28,1c.48.37,1,.73,1.46,1.07l.48.32a13.19,13.19,0,0,0,2.26,1.2,6.56,6.56,0,0,0,1.24.37c.35.06.7.21,1-.06a.46.46,0,0,0,.07-.07l.16-.21s0,0,0,0a1.4,1.4,0,0,0,0-1,4,4,0,0,0-.91-1.49h0l-.1-.09-.1-.09c-.67-.62-1.47-1.1-2.18-1.65"/><path class="cls-7" d="M69,7.5A1.8,1.8,0,0,0,68.43,7a1.39,1.39,0,0,0-1,.08l-.2.08a3.34,3.34,0,0,0-.48.7,1.68,1.68,0,0,0-.13,1.33,1.44,1.44,0,0,0,.27.42q.55.67,1.17,1.32a13.26,13.26,0,0,0,1.13,1.12l1.28,1c.48.37,1,.73,1.46,1.07l.48.32a13.19,13.19,0,0,0,2.26,1.2,6.56,6.56,0,0,0,1.24.37c.35.06.7.21,1-.06a.46.46,0,0,0,.07-.07l.16-.21a1.32,1.32,0,0,1-.65-.06,14.94,14.94,0,0,1-3.89-1.85.62.62,0,0,1-.32-.39.62.62,0,0,1,.12-.39l.24-.42L72,13c0-.11-.09-.19-.19-.2a1.75,1.75,0,0,0-.32,0,.26.26,0,0,1-.26-.12c-.08-.19.23-.34.25-.54a1.71,1.71,0,0,0-.54.13,1.24,1.24,0,0,1-1-.36c-.26-.31.16-.69.35-1l-.83.16c-.44.06-.56-.19-.86-.47s-.55-.48-.24-.8a.71.71,0,0,1-.65-1.18,1.34,1.34,0,0,1,.94-.47c.21,0,.43,0,.65-.07l.06,0a.1.1,0,0,0,0-.09A4.14,4.14,0,0,0,69,7.5"/><path class="cls-7" d="M74,11.3l-.23-.16-.12-.09c-.81-.55-1.72-.89-2.54-1.43a9,9,0,0,1-1.79-1.69,4.84,4.84,0,0,0,.64.78,6.41,6.41,0,0,1,.68.7.55.55,0,0,1,.09.3,1.93,1.93,0,0,1-.19.38,1.6,1.6,0,0,1-.23.4A1.26,1.26,0,0,1,71,10.1c.13,0,.51-.08.5.14a.43.43,0,0,1-.11.26l-.12.17a1.67,1.67,0,0,1,1.3-.05,1.46,1.46,0,0,1,.67.36.61.61,0,0,1,.05.6,1,1,0,0,0-.09.61,1.78,1.78,0,0,1,.61-.75c.07.15.13.3.2.46l0,0c.08.06.17-.17.25-.11,0,.42-.47.71-.51,1.14a1.42,1.42,0,0,1,.54-.62,1.38,1.38,0,0,1,1.11.16,4.16,4.16,0,0,1,.73.44c-.67-.62-1.47-1.1-2.18-1.65"/><path class="cls-8" d="M69.34,7.86a1.21,1.21,0,0,1,0,.18,1.57,1.57,0,0,0-.85-.12,1.73,1.73,0,0,0-.74.34,1.46,1.46,0,0,0-.56.92,1.36,1.36,0,0,0,0,.72,1.26,1.26,0,0,0,.18.32,1.58,1.58,0,0,1-.79-.38A2.72,2.72,0,0,1,66,9.16a1.11,1.11,0,0,1-.14-.34A1.11,1.11,0,0,1,66,8.2a4.34,4.34,0,0,1,1.62-1.62.52.52,0,0,1,.15-.06.74.74,0,0,1,.57.21,4.28,4.28,0,0,1,.64.56,1.69,1.69,0,0,1,.35.57"/></g><g class="cls-12"><path class="cls-13" d="M78.32,44.13a1.53,1.53,0,0,1-.67,1.27c-.69.41-1.91,1.38-1.91,1.38A2.08,2.08,0,0,0,75.46,48a1,1,0,0,0,.35.5c.57.47,1.68.09,2.15-.36a7.87,7.87,0,0,1,1.11-1,8.57,8.57,0,0,1,1.29-.54.73.73,0,0,0,.53-.59,1.11,1.11,0,0,0-.1-.67.83.83,0,0,0-.32-.35L80,44.68l-.65-.42Z"/><path class="cls-14" d="M80.58,46c-.08.26-.65.41-.86.5l-.5.16a2.21,2.21,0,0,0-.61.44,7.16,7.16,0,0,0-.65.57,2.42,2.42,0,0,1-1.36.56.87.87,0,0,1-.65-.08,1.16,1.16,0,0,1-.5-.63.52.52,0,0,1,0-.18,1.24,1.24,0,0,1,0-.27,1.78,1.78,0,0,1,.67-1c.42-.32,1.07-.81,1.51-1.07a1.55,1.55,0,0,0,.68-1.27l1,.13.9.59.39.25A8.57,8.57,0,0,1,80.58,46"/><path class="cls-15" d="M80.58,46c-.08.26-.65.41-.86.5l-.5.16a2.21,2.21,0,0,0-.61.44,7.16,7.16,0,0,0-.65.57,2.42,2.42,0,0,1-1.36.56.87.87,0,0,1-.65-.08,1.16,1.16,0,0,1-.5-.63.52.52,0,0,1,0-.18c.24,0,.46.12.7.17a1.83,1.83,0,0,0,1.47-.33c.17-.13.32-.29.49-.42a4.79,4.79,0,0,1,.86-.47,2.24,2.24,0,0,0,.81-.53,1,1,0,0,0,.27-.9.38.38,0,0,1,.23-.43l.39.25A8.57,8.57,0,0,1,80.58,46"/><path class="cls-16" d="M76.4,26.18a.71.71,0,0,1,.18-.32h0a.71.71,0,0,1,.14-.1c1-.68,3.83.17,4.2,1.5,0,.07,0,.16.06.26a6.92,6.92,0,0,1,0,2.13,20.38,20.38,0,0,0-.24,4.85c.08,1.22.17,3.24.26,4.31a44.06,44.06,0,0,1-.1,5.51c-.08.48-.13.82-.13.82l-.1,0a4.09,4.09,0,0,1-.71.22,2.4,2.4,0,0,1-.76,0c-.64-.07-1.37-.28-1.55-1a3.21,3.21,0,0,1,0-.93,46.3,46.3,0,0,0-.26-4.71c-.15-.85-.44-1.66-.56-2.52-.26-1.89-.43-4.71-.58-6.61l0-.42c0-.27,0-.54,0-.81A7.17,7.17,0,0,1,76.4,26.18Z"/><path class="cls-17" d="M78.94,36.82a.75.75,0,0,0,.2-.3,5.65,5.65,0,0,0-.41-3,11.49,11.49,0,0,1-.64-2.09,5.38,5.38,0,0,1-.13-1.5s0-3.12,1.12-4.2a2.72,2.72,0,0,1,1.85,1.51c0,.07,0,.16.06.26a6.92,6.92,0,0,1,0,2.13,20.38,20.38,0,0,0-.24,4.85c.1,1.48.21,3.73.31,5,0,.55,0,3.53,0,4.07h0c0,.18-.06.37-.08.55h0c-.07.44-.12.79-.15.94h0a.26.26,0,0,1-.07.1l0,0-.07,0c-.16,0-.3-.45-.32-.64-.08-.9-.2-4.24-.33-5.15-.09-.6,0-1.67-.8-1.83a2.62,2.62,0,0,0-.79,0,1.39,1.39,0,0,1-.78-.06A2.1,2.1,0,0,0,78.94,36.82Z"/><path class="cls-18" d="M76.4,26.18a.71.71,0,0,1,.18-.32h0a.71.71,0,0,1,.14-.1,3,3,0,0,1,2.35,0h0l.26.1.06,0,.28.13h0l.27.15h0l.21.15.06,0,.17.15.06,0a2.24,2.24,0,0,1,.33.43v0a1.17,1.17,0,0,1,.09.24c0,.07,0,.16.06.26a6.92,6.92,0,0,1,0,2.13,20.38,20.38,0,0,0-.24,4.85c.1,1.48.21,3.73.31,5,0,.55,0,3.53,0,4.07h0c0,.18-.06.37-.08.55h0l0,.19h0c-.08.48-.13.82-.13.82l-.06,0h0l0,0-.07,0h0a4.69,4.69,0,0,1-.64.19,2.4,2.4,0,0,1-.76,0c-.64-.07-1.37-.28-1.55-1a3.21,3.21,0,0,1,0-.93,46.3,46.3,0,0,0-.26-4.71c-.15-.85-.44-1.66-.56-2.52-.26-1.89-.43-4.71-.58-6.61l0-.42c0-.27,0-.54,0-.81A7.17,7.17,0,0,1,76.4,26.18Z"/></g><g class="cls-19"><path class="cls-16" d="M76.4,26.18a.71.71,0,0,1,.18-.32h0a.71.71,0,0,1,.14-.1c1-.68,3.83.17,4.2,1.5,0,.07,0,.16.06.26a6.92,6.92,0,0,1,0,2.13,20.38,20.38,0,0,0-.24,4.85c.08,1.22.17,3.24.26,4.31a44.06,44.06,0,0,1-.1,5.51c-.08.48-.13.82-.13.82l-.1,0a4.09,4.09,0,0,1-.71.22,2.4,2.4,0,0,1-.76,0c-.64-.07-1.37-.28-1.55-1a3.21,3.21,0,0,1,0-.93,46.3,46.3,0,0,0-.26-4.71c-.15-.85-.44-1.66-.56-2.52-.26-1.89-.43-4.71-.58-6.61l0-.42c0-.27,0-.54,0-.81A7.17,7.17,0,0,1,76.4,26.18Z"/><path class="cls-17" d="M78.94,36.82a.75.75,0,0,0,.2-.3,5.65,5.65,0,0,0-.41-3,11.49,11.49,0,0,1-.64-2.09,5.38,5.38,0,0,1-.13-1.5s0-3.12,1.12-4.2a2.72,2.72,0,0,1,1.85,1.51c0,.07,0,.16.06.26a6.92,6.92,0,0,1,0,2.13,20.38,20.38,0,0,0-.24,4.85c.1,1.48.21,3.73.31,5,0,.55,0,3.53,0,4.07h0c0,.18-.06.37-.08.55h0c-.07.44-.12.79-.15.94h0a.26.26,0,0,1-.07.1l0,0-.07,0c-.16,0-.3-.45-.32-.64-.08-.9-.2-4.24-.33-5.15-.09-.6,0-1.67-.8-1.83a2.62,2.62,0,0,0-.79,0,1.39,1.39,0,0,1-.78-.06A2.1,2.1,0,0,0,78.94,36.82Z"/><path class="cls-18" d="M76.4,26.18a.71.71,0,0,1,.18-.32h0a.71.71,0,0,1,.14-.1,3,3,0,0,1,2.35,0h0l.26.1.06,0,.28.13h0l.27.15h0l.21.15.06,0,.17.15.06,0a2.24,2.24,0,0,1,.33.43v0a1.17,1.17,0,0,1,.09.24c0,.07,0,.16.06.26a6.92,6.92,0,0,1,0,2.13,20.38,20.38,0,0,0-.24,4.85c.1,1.48.21,3.73.31,5,0,.55,0,3.53,0,4.07h0c0,.18-.06.37-.08.55h0l0,.19h0c-.08.48-.13.82-.13.82l-.06,0h0l0,0-.07,0h0a4.69,4.69,0,0,1-.64.19,2.4,2.4,0,0,1-.76,0c-.64-.07-1.37-.28-1.55-1a3.21,3.21,0,0,1,0-.93,46.3,46.3,0,0,0-.26-4.71c-.15-.85-.44-1.66-.56-2.52-.26-1.89-.43-4.71-.58-6.61l0-.42c0-.27,0-.54,0-.81A7.17,7.17,0,0,1,76.4,26.18Z"/></g><g class="cls-20"><path class="cls-13" d="M84.54,45.49l.11.26a3.56,3.56,0,0,1,.13.39,1.51,1.51,0,0,1,0,.79,2.91,2.91,0,0,1-.6.89,13.61,13.61,0,0,1-1.28,1.62,2.61,2.61,0,0,1-1.71.74c-1,0-.93-.3-.9-.89s1-1.45,1.13-1.79.74-1.51.74-1.51l.79-.48Z"/><path class="cls-14" d="M84.5,46.5a4.21,4.21,0,0,1-.88,1.77,3.43,3.43,0,0,1-2.46,1.53c-1,0-.92-.31-.89-.9h0c0-.59,1-1.43,1.12-1.77l.74-1.51.79-.48,1.61,0,0,.09a2.25,2.25,0,0,1-.06,1.3"/><path class="cls-15" d="M84.5,46.5a4.21,4.21,0,0,1-.88,1.77,3.43,3.43,0,0,1-2.46,1.53c-1,0-.92-.31-.89-.9h.07a4.87,4.87,0,0,0,1.12.24,2.09,2.09,0,0,0,1.11-.22,2.74,2.74,0,0,0,.64-.53,4.09,4.09,0,0,0,.52-.68,3.26,3.26,0,0,0,.32-.8,3.45,3.45,0,0,0,.12-1.24v-.14a.55.55,0,0,1,.38-.33,2.25,2.25,0,0,1-.06,1.3"/><path class="cls-17" d="M80.47,26.48a.87.87,0,0,1,.19-.33h0l.14-.11c1.07-.7,4,.18,4.32,1.55,0,.07,0,.16.06.26a6.7,6.7,0,0,1,0,2.19,29.36,29.36,0,0,0-.25,5.87c.09,1.26.18,2.43.27,3.52a43.59,43.59,0,0,1-.1,5.6c-.08.5-.13.84-.13.84l-.1,0a4.44,4.44,0,0,1-.74.23,2.53,2.53,0,0,1-.78,0c-.66-.07-1.4-.28-1.59-1a3.35,3.35,0,0,1,0-1,44.75,44.75,0,0,0-.27-4.78c-.15-.87-.45-1.7-.58-2.59-.26-1.93-.43-4.81-.59-6.76l0-.44c0-.27,0-.55,0-.83A7.55,7.55,0,0,1,80.47,26.48Z"/><path class="cls-16" d="M83.09,37.39a.79.79,0,0,0,.2-.31,5.68,5.68,0,0,0-.42-3,12.32,12.32,0,0,1-.66-2.14c0-.14-.26-1.52-.13-1.55s0-3.21,1.15-4.31a2.79,2.79,0,0,1,1.9,1.55c0,.07,0,.16.06.26a6.7,6.7,0,0,1,0,2.19,29.36,29.36,0,0,0-.25,5.87c.1,1.53.22,5.36.33,6.66a7.87,7.87,0,0,1,0,1.68h0c0,.19-.06.38-.08.57h0c-.07.45-.13.8-.15,1h0a.29.29,0,0,1-.07.1l0,0-.08,0c-.17,0-.3-.46-.32-.65-.09-.93-.21-1.86-.34-2.79-.1-.62,0-4.16-.83-4.32a2.45,2.45,0,0,0-.81,0,1.45,1.45,0,0,1-.8-.06A2.22,2.22,0,0,0,83.09,37.39Z"/><path class="cls-21" d="M80.47,26.48a.87.87,0,0,1,.19-.33h0l.14-.11a3.09,3.09,0,0,1,2.42,0h0l.29.11,0,0,.26.11.06,0,.19.11.11.06a1.33,1.33,0,0,1,.19.14l.08.05a.86.86,0,0,1,.14.13l.1.08.09.11a.52.52,0,0,1,.1.11,1.37,1.37,0,0,1,.13.2.05.05,0,0,1,0,0,.77.77,0,0,1,.1.25c0,.07,0,.16.06.26a6.7,6.7,0,0,1,0,2.19,29.36,29.36,0,0,0-.25,5.87c0,.36,0,.71.08,1.05,0,.11,0,.22,0,.33l.06.7c0,.12,0,.23,0,.35l.06.76,0,.33h0c0,.24,0,2.91.06,3.14a7.87,7.87,0,0,1,0,1.68h0c0,.19-.06.38-.08.57h0l0,.19h0c0,.14,0,.27-.06.38v0l0,.18v0l0,.22-.06,0h0l0,0-.08,0h0a4.49,4.49,0,0,1-.66.2,2.53,2.53,0,0,1-.78,0c-.66-.07-1.4-.28-1.59-1a3.35,3.35,0,0,1,0-1,44.75,44.75,0,0,0-.27-4.78c-.15-.87-.45-1.7-.58-2.59-.26-1.93-.43-4.81-.59-6.76l0-.44c0-.27,0-.55,0-.83A7.55,7.55,0,0,1,80.47,26.48Z"/></g><g class="cls-22"><path class="cls-17" d="M80.47,26.48a.87.87,0,0,1,.19-.33h0l.14-.11c1.07-.7,4,.18,4.32,1.55,0,.07,0,.16.06.26a6.7,6.7,0,0,1,0,2.19,29.36,29.36,0,0,0-.25,5.87c.09,1.26.18,2.43.27,3.52a43.59,43.59,0,0,1-.1,5.6c-.08.5-.13.84-.13.84l-.1,0a4.44,4.44,0,0,1-.74.23,2.53,2.53,0,0,1-.78,0c-.66-.07-1.4-.28-1.59-1a3.35,3.35,0,0,1,0-1,44.75,44.75,0,0,0-.27-4.78c-.15-.87-.45-1.7-.58-2.59-.26-1.93-.43-4.81-.59-6.76l0-.44c0-.27,0-.55,0-.83A7.55,7.55,0,0,1,80.47,26.48Z"/><path class="cls-16" d="M83.09,37.39a.79.79,0,0,0,.2-.31,5.68,5.68,0,0,0-.42-3,12.32,12.32,0,0,1-.66-2.14c0-.14-.26-1.52-.13-1.55s0-3.21,1.15-4.31a2.79,2.79,0,0,1,1.9,1.55c0,.07,0,.16.06.26a6.7,6.7,0,0,1,0,2.19,29.36,29.36,0,0,0-.25,5.87c.1,1.53.22,5.36.33,6.66a7.87,7.87,0,0,1,0,1.68h0c0,.19-.06.38-.08.57h0c-.07.45-.13.8-.15,1h0a.29.29,0,0,1-.07.1l0,0-.08,0c-.17,0-.3-.46-.32-.65-.09-.93-.21-1.86-.34-2.79-.1-.62,0-4.16-.83-4.32a2.45,2.45,0,0,0-.81,0,1.45,1.45,0,0,1-.8-.06A2.22,2.22,0,0,0,83.09,37.39Z"/><path class="cls-21" d="M80.47,26.48a.87.87,0,0,1,.19-.33h0l.14-.11a3.09,3.09,0,0,1,2.42,0h0l.29.11,0,0,.26.11.06,0,.19.11.11.06a1.33,1.33,0,0,1,.19.14l.08.05a.86.86,0,0,1,.14.13l.1.08.09.11a.52.52,0,0,1,.1.11,1.37,1.37,0,0,1,.13.2.05.05,0,0,1,0,0,.77.77,0,0,1,.1.25c0,.07,0,.16.06.26a6.7,6.7,0,0,1,0,2.19,29.36,29.36,0,0,0-.25,5.87c0,.36,0,.71.08,1.05,0,.11,0,.22,0,.33l.06.7c0,.12,0,.23,0,.35l.06.76,0,.33h0c0,.24,0,2.91.06,3.14a7.87,7.87,0,0,1,0,1.68h0c0,.19-.06.38-.08.57h0l0,.19h0c0,.14,0,.27-.06.38v0l0,.18v0l0,.22-.06,0h0l0,0-.08,0h0a4.49,4.49,0,0,1-.66.2,2.53,2.53,0,0,1-.78,0c-.66-.07-1.4-.28-1.59-1a3.35,3.35,0,0,1,0-1,44.75,44.75,0,0,0-.27-4.78c-.15-.87-.45-1.7-.58-2.59-.26-1.93-.43-4.81-.59-6.76l0-.44c0-.27,0-.55,0-.83A7.55,7.55,0,0,1,80.47,26.48Z"/></g><path class="cls-13" d="M85,26.92h0a9.24,9.24,0,0,1-3.3.48,7.77,7.77,0,0,1-1-.09,17.25,17.25,0,0,1-2.13-.48l-.13,0a7,7,0,0,1-1-.36A1.87,1.87,0,0,1,76.8,26h0c0-.27,0-.54,0-.81l.06,0a.9.9,0,0,1,.4,0l1,.15c.68.11,1.37.22,2,.28a8.75,8.75,0,0,0,2.45-.09A8.55,8.55,0,0,1,84,25.28a1.72,1.72,0,0,1,.78.14l0,0c.07.54.13,1.07.17,1.47"/><path class="cls-6" d="M76,14.33a24.51,24.51,0,0,1,.22,2.84c0,.94.11,1.88.14,2.82.07,1.55.11,3.1.08,4.64a1.13,1.13,0,0,0,0,.26,1.11,1.11,0,0,0,.13.57,1,1,0,0,0,.34.34,1.43,1.43,0,0,0,.24.16,7.84,7.84,0,0,0,1.45.65l.24.09.26.07h0a8,8,0,0,0,1.95.28,7.5,7.5,0,0,0,2-.17c.22,0,.45-.1.67-.16a.92.92,0,0,0,.48-.4,5.65,5.65,0,0,0,.59-1.59,7.74,7.74,0,0,0,.31-2A14.71,14.71,0,0,1,85,21.22a2.35,2.35,0,0,0,0-.27c.08-1.05.13-2.1.16-3.16,0-.26,0-.53,0-.8,0-.91,0-1.81-.06-2.72a8.15,8.15,0,0,1,0-1.47,1.74,1.74,0,0,1,.29-.77,4,4,0,0,1,.6-.53.62.62,0,0,0,.18-.31,1.13,1.13,0,0,0,0-.26.51.51,0,0,0-.36-.42,15.11,15.11,0,0,1-1.59-.85,4.29,4.29,0,0,0-.93-.37l-.41-.13-.26-.07A1.89,1.89,0,0,0,82.3,9l-.15,0a1.85,1.85,0,0,0-.47,0l-.15,0c-.38.09-.46.2-.86.14a13.4,13.4,0,0,0-1.87.13l-1,.12-.33,0h0a4,4,0,0,0-1.07.6A3,3,0,0,0,76,11.35a9.31,9.31,0,0,0,.09,3"/><path class="cls-7" d="M78.57,22c0,.69,0,1.38.05,2.07s.06,1.17.12,1.75c0,.16,0,.32.07.49a2.14,2.14,0,0,0,.07.43l.17,0a.86.86,0,0,0,.17,0c-.07,0-.09-.72-.1-.77-.07-.54-.11-1.09-.13-1.63s0-1.33-.06-2V20.19c0-.72,0-1.45,0-2.18L79,16c0-.55,0-1.09.07-1.64,0-.39,0-.78.06-1.17s.08-.75.14-1.12c-.08.14-.16.28-.23.43a3.6,3.6,0,0,0-.31,1.56c0,.52-.05,1-.07,1.55l-.06,2c0,.72,0,1.45,0,2.17s0,1.48,0,2.22"/><path class="cls-17" d="M76.14,20.35v1.32c0,.55,0,1.09,0,1.64l0,1.71c0,.61-.07,1.44.59,1.74l0,0a3.25,3.25,0,0,0,.42.11l.54.12a1.71,1.71,0,0,0,.63.11c-.09-.7-.2-1.39-.24-2.1,0-.24,0-.48,0-.71s0-.48,0-.71,0-.28,0-.41c0-.63,0-1.25-.07-1.88,0-.38,0-.76,0-1.14a.66.66,0,0,0,0-.14c-.14-2.94-.32-6,.74-8.71l-.05-.39c-.07-.4-.15-.8-.22-1.21,0-.11,0-.26-.18-.3a1.67,1.67,0,0,0-.39,0,1.79,1.79,0,0,0-.4,0,1.41,1.41,0,0,0-.49.12,1.9,1.9,0,0,0-.62.61l-.1.15a2.4,2.4,0,0,0-.35.82,3.9,3.9,0,0,0-.11.67,7.82,7.82,0,0,0,.06,1.45c.18,1.83.28,3.66.31,5.5,0,.54,0,1.08,0,1.63"/><path class="cls-16" d="M75.8,13.22A98.88,98.88,0,0,1,76.1,25c0,.61-.07,1.43.59,1.74l0,0c0-.83-.17-1.65-.13-2.48s0-1.93-.06-2.89c0-1.55,0-3.11-.06-4.66,0-.22,0-.52.27-.57s.44,0,.44-.14a1.16,1.16,0,0,1-.89-.81A3.48,3.48,0,0,1,76.18,14c0-.45,0-.89,0-1.34a5.65,5.65,0,0,1,.26-1.84c.22-.59,1-1.44,1.66-1.4a3.56,3.56,0,0,0-.73,0,1.67,1.67,0,0,0-.49.12,1.9,1.9,0,0,0-.62.61l-.1.15a2.4,2.4,0,0,0-.35.82,3.12,3.12,0,0,0-.11.67,7.82,7.82,0,0,0,.06,1.45"/><path class="cls-17" d="M79.68,20.57v1.06c0,.64,0,1.28,0,1.92,0,.35,0,.71,0,1.06,0,.9.1,1.79.18,2.68a.57.57,0,0,0,.08.29l0,0a.49.49,0,0,0,.25.12,7.39,7.39,0,0,0,3.93-.12.55.55,0,0,0,.25-.13.68.68,0,0,0,.14-.31c.31-1.34.61-2.69.92-4,.13-.56.25-1.12.37-1.68a18.61,18.61,0,0,0,.41-3.15A31,31,0,0,0,85.85,13c-.06-.4-.13-.78-.21-1.17v0a.82.82,0,0,1,.26-.88c.07-.06.16-.13.13-.21A.18.18,0,0,0,86,10.6a7.62,7.62,0,0,0-2.31-1.21.82.82,0,0,0-.75.08,4,4,0,0,0-.74.92,10.21,10.21,0,0,0-1,1.49A11,11,0,0,0,80,15.2a19.3,19.3,0,0,0-.23,2.4q-.08,1.48-.09,3"/><path class="cls-16" d="M80,27.58l0,0a.49.49,0,0,0,.25.12,7.39,7.39,0,0,0,3.93-.12.55.55,0,0,0,.25-.13.68.68,0,0,0,.14-.31c.31-1.34.61-2.69.92-4,.13-.56.25-1.12.37-1.68a4.91,4.91,0,0,0-.4-1.11,2.05,2.05,0,0,1-.35-1.11c0-.49,0-1,0-1.46,0-.26,0-.53,0-.8,0-.91,0-1.81-.06-2.72a8.15,8.15,0,0,1,0-1.47,1.74,1.74,0,0,1,.29-.77,1.66,1.66,0,0,1,.23-.23c.12-.1.26-.19.37-.3a.36.36,0,0,0,.17-.29h0a1,1,0,0,0-.05-.36.42.42,0,0,0-.08-.18,1,1,0,0,0-.11-.1c-.32-.21-.6-.45-.93-.64a5.81,5.81,0,0,0-1-.46c-.36-.12-.73-.19-1.09-.3l-.16.22.15.09,1,.56a1.16,1.16,0,0,1,.36.3c.32.42,0,1-.23,1.47A5.84,5.84,0,0,0,83.73,15a1.79,1.79,0,0,1-.13,1.29,1.74,1.74,0,0,1-1.06.78,2.08,2.08,0,0,1-1.41-.17,4.44,4.44,0,0,0,1.65.57,2.18,2.18,0,0,1,1.34.69,3.2,3.2,0,0,1,.17,1.48,26.21,26.21,0,0,1-.36,3.54c0,.22,0,.42,0,.63-.08.52-.19,1-.3,1.54a3.32,3.32,0,0,1-.85,1.6,2.53,2.53,0,0,1-1.63.77,5.77,5.77,0,0,1-1.1-.1"/><path class="cls-8" d="M78.75,9.13a6.41,6.41,0,0,0-.17,1.14,1.5,1.5,0,0,0,.2.72,1.41,1.41,0,0,0,.63.5,2.72,2.72,0,0,0-.23.75,2,2,0,0,1-.06.34,1.48,1.48,0,0,0-.13.35,1.48,1.48,0,0,0-.37-.86,9.32,9.32,0,0,1-.66-.75,1.32,1.32,0,0,1,.79-2.19"/><path class="cls-6" d="M76.11,18.72c0,.54,0,1.08,0,1.63a5.21,5.21,0,0,0,1.82,1c0-.38,0-.9,0-1.28a2.91,2.91,0,0,1-1.75-1.34Z"/><path class="cls-6" d="M76.13,23.31a5.08,5.08,0,0,0,1.93,1c0-.24,0-.48,0-.71s0-.45,0-.58a3.09,3.09,0,0,1-1.9-1.36h0c0,.55,0,1.09,0,1.64"/><path class="cls-6" d="M80.38,15.14c0-.18-.06-.54.2-.55a.87.87,0,0,1,.22.05,4.53,4.53,0,0,0,1.5.28,5.08,5.08,0,0,0,.68,0c.12,0,.33-.1.4.06a2.1,2.1,0,0,1,0,.55c0,.4,0,.8-.08,1.2a.91.91,0,0,1-.08.37.8.8,0,0,1-.29.22c-.38.21-.77.4-1.17.58a.7.7,0,0,1-.14,0c-.29,0-.51-.31-.67-.53L80.67,17a1.28,1.28,0,0,1-.24-.32.7.7,0,0,1-.05-.25c0-.43,0-.86,0-1.29"/><path class="cls-16" d="M84.48,27.49a1.58,1.58,0,0,0,1.36-1.21c.38-1.2,1.84-12.16.21-15.62l-.88.47-.2.95-.36,6.48Z"/><path class="cls-6" d="M79.72,23.55c0,.35,0,.71,0,1.06.36,0,.72.05,1.07.05a33.06,33.06,0,0,0,5.4-.6l.14-1.13a30,30,0,0,1-6.65.62"/><path class="cls-6" d="M79.68,20.57v1.06a11.37,11.37,0,0,0,1.15.06,31.75,31.75,0,0,0,5.75-.8l.1-1.3s-4.54,1.23-7,1"/><path class="cls-23" d="M82.87,9.14a2.47,2.47,0,0,1-1-.61.76.76,0,0,1-.11-.47h0a1.22,1.22,0,0,0-1.08-1c-2.12,0-2,1.55-2,1.55h0a3,3,0,0,0,0,.47h0a3.15,3.15,0,0,1,0,.53,1.09,1.09,0,0,1,0,.26,2.12,2.12,0,0,0,0,.44c.07.49.2,1,.73,1.08a1.54,1.54,0,0,0,.9-.12,3.22,3.22,0,0,0,.9-.42c.24-.17.49-.32.73-.48a.18.18,0,0,1,.07,0l.23-.17C83,9.54,82.87,9.14,82.87,9.14Z"/><path class="cls-24" d="M82.5,9.89a.75.75,0,0,0,.12-.14l0,0,.09-.13v0l.07-.13h0l0-.1v0a.09.09,0,0,0,0,0V9.14a2.47,2.47,0,0,1-1-.61.76.76,0,0,1-.11-.47h0a1.22,1.22,0,0,0-1.08-1c-2.12,0-2,1.55-2,1.55h0a3,3,0,0,0,0,.47h0a3.15,3.15,0,0,1,0,.53,1.09,1.09,0,0,1,0,.26,1,1,0,0,0,.45.07A1.9,1.9,0,0,0,80,9.57c.26-.19.49-.41.74-.61s.46-.28.68-.17a.48.48,0,0,1,.25.32,1.75,1.75,0,0,1,0,.4,4,4,0,0,0,.14.69l.06.16a.18.18,0,0,1,.07,0l.23-.17.23-.2Z"/><path class="cls-8" d="M79.47,11.47l.33,0a.59.59,0,0,0,.26-.1c.09,0,.19-.08.28-.12s.37-.24.55-.36c.58-.37,1.4-.81,1.39-1.6,0-.11,0-.46-.11-.5a5.11,5.11,0,0,1,.75.18l.36.12a1.26,1.26,0,0,1,.37.13s0,.05,0,.12l-.06.17-.15.32a3.91,3.91,0,0,1-.4.6,4.19,4.19,0,0,1-1.07.94,4.37,4.37,0,0,1-.68.35c-.22.1-.45.19-.66.3s-.53.19-.79.31a1.77,1.77,0,0,0-.33.19l-.34.34s-.08.16-.12.17a4.17,4.17,0,0,1,.25-1.45.14.14,0,0,1,0-.08h.11Z"/><g class="cls-25"><path class="cls-5" d="M91.6,16.59a20.53,20.53,0,0,1,0,3.92c0,.93-.11,1.86-.19,2.79,0,.26-.06.48-.06.74a2.62,2.62,0,0,0,0,.28c0,.2,0,.39,0,.59a8,8,0,0,1-.38,1.66,2.93,2.93,0,0,1-.67,1.31,3.37,3.37,0,0,1-.37.29,1.87,1.87,0,0,1-.38.24,2.59,2.59,0,0,1-.4.09,1.63,1.63,0,0,1-.49.09.4.4,0,0,1-.36-.29.2.2,0,0,1,0-.11.23.23,0,0,1,.14-.09l.35-.17a.51.51,0,0,0,.18-.14.61.61,0,0,0,.11-.23,2.3,2.3,0,0,0,.13-.74c0-.11,0-.45-.22-.34s-.11.12-.16.17a1.31,1.31,0,0,1-.11.12.93.93,0,0,1-.19.11.58.58,0,0,1-.18,0s-.13,0-.15-.07,0-.27.09-.38.1-.11.16-.16a1.4,1.4,0,0,0,.29-.48,2.38,2.38,0,0,1,.39-.45l.41-.4a.85.85,0,0,0,.32-.58,1.71,1.71,0,0,0,0-.45c0-.09,0-.17,0-.26-.07-.66-.16-1.32-.22-2-.09-1.05-.18-2.11-.26-3.17,0-.32,0-.65,0-1A2.48,2.48,0,0,0,89,16.9c-.22-.66-.3-1.34-.55-2a1.34,1.34,0,0,1-.14-.52c0-.39.58-.66.87-.85a5.14,5.14,0,0,1,.64-.38c.08,0,.52-.3.59-.25a1.2,1.2,0,0,1,.46.62,9.74,9.74,0,0,1,.53,2.06c.06.34.13.67.18,1"/><path class="cls-11" d="M91.42,15.59a9.74,9.74,0,0,0-.53-2.06,1.2,1.2,0,0,0-.46-.62c-.05,0-.3.09-.46.18a1.35,1.35,0,0,1,.4.57,10,10,0,0,1,.53,2.07c.06.33.13.67.18,1a20.54,20.54,0,0,1,0,3.92c0,.93-.11,1.86-.19,2.79,0,.26-.06.48-.06.74,0,.09,0,.19,0,.28s0,.39,0,.58a7.7,7.7,0,0,1-.38,1.66A2.91,2.91,0,0,1,89.68,28a4.57,4.57,0,0,1-.36.29,2.16,2.16,0,0,1-.36.22l.09,0a2.59,2.59,0,0,0,.4-.09,1.87,1.87,0,0,0,.38-.24,3.37,3.37,0,0,0,.37-.29,2.93,2.93,0,0,0,.67-1.31,8,8,0,0,0,.38-1.66c0-.2,0-.39,0-.59a2.62,2.62,0,0,1,0-.28c0-.26,0-.48.06-.74.08-.93.15-1.86.19-2.79a20.53,20.53,0,0,0,0-3.92c0-.33-.12-.66-.18-1"/><path class="cls-6" d="M88.05,14.35a2.56,2.56,0,0,0,0,.27.74.74,0,0,0,0,.14c.23.92.67,1.76.92,2.69a9,9,0,0,1,.21,2.38s0,.06,0,.1v.17c0,.3,0,.6,0,.89a3.11,3.11,0,0,0,0,.43c.1.45.46.34.81.29l.15,0a3.24,3.24,0,0,0,.8-.2,1.66,1.66,0,0,0,1-.88,1.33,1.33,0,0,0,.07-.48c0-.57,0-1.15,0-1.72A13.17,13.17,0,0,0,92,16.85l-.27-1.58c-.12-.57-.23-1.15-.37-1.72,0-.18-.1-.36-.14-.54a14,14,0,0,0-.87-2.34,6.15,6.15,0,0,0-.66-1.07c-.22-.27-.39-.61-.79-.61h-.09l-.25,0,0,0a1.34,1.34,0,0,0-.71.73,3.73,3.73,0,0,0-.31,1.67v0a.57.57,0,0,0,0,.13s0,.08,0,.13c.09.88.36,1.75.53,2.61"/><path class="cls-7" d="M89.19,20.33a1.63,1.63,0,0,0,.1.71,1.29,1.29,0,0,0,.75.56l.2.08a3.24,3.24,0,0,0,.8-.2,1.66,1.66,0,0,0,1-.88,1.33,1.33,0,0,0,.07-.48c0-.57,0-1.15,0-1.72A13.17,13.17,0,0,0,92,16.85l-.27-1.58c-.12-.57-.23-1.15-.37-1.72,0-.18-.1-.36-.14-.54a14,14,0,0,0-.87-2.34,6.15,6.15,0,0,0-.66-1.07c-.22-.27-.39-.61-.79-.61h-.09l-.25,0a1.3,1.3,0,0,1,.43.47,14.62,14.62,0,0,1,1.64,3.86.47.47,0,0,1-.36.7l-.45.15.73.17a.19.19,0,0,0,0,.27,2.2,2.2,0,0,0,.25.17.26.26,0,0,1,.12.26c-.07.19-.39.09-.53.24a1.73,1.73,0,0,0,.47.24,1.23,1.23,0,0,1,.53.94c0,.39-.56.4-.9.5l.71.42c.36.24.28.5.32.9s.09.7-.35.73a.69.69,0,0,1-.28,1.28,1.3,1.3,0,0,1-1-.26,6.15,6.15,0,0,0-.52-.37l-.06,0s0,0,0,.08a4.27,4.27,0,0,0-.07.56"/><path class="cls-7" d="M88.05,14.35a2.56,2.56,0,0,0,0,.27.74.74,0,0,0,0,.14c.23.92.67,1.76.92,2.69a9,9,0,0,1,.21,2.38,4.57,4.57,0,0,0,0-1,5,5,0,0,1,0-1,.45.45,0,0,1,.12-.27c.1-.09.27-.1.39-.16a1.48,1.48,0,0,1,.42-.14,1.19,1.19,0,0,1-.76-.17c-.11-.07-.43-.27-.28-.43a.39.39,0,0,1,.25-.12l.2-.05a1.6,1.6,0,0,1-1-.8,1.43,1.43,0,0,1-.24-.69c0-.23.17-.37.35-.47a1,1,0,0,0,.45-.39,1.79,1.79,0,0,1-.92.15l.15-.46s0,0,0-.05-.23,0-.25-.08c.27-.31.8-.22,1.11-.5a1.36,1.36,0,0,1-.79.09c-.36-.1-.56-.48-.7-.83a3.66,3.66,0,0,1-.26-.79c.09.88.36,1.75.53,2.61"/><path class="cls-8" d="M89.17,19.84a1.19,1.19,0,0,1,.08-.16,1.63,1.63,0,0,0,.55.64,1.73,1.73,0,0,0,.75.23,1.43,1.43,0,0,0,1-.3,1.34,1.34,0,0,0,.44-.56,1.37,1.37,0,0,0,.08-.35,1.73,1.73,0,0,1,.33.79,2.48,2.48,0,0,1,0,.9,1,1,0,0,1-.11.34,1,1,0,0,1-.49.38,4.09,4.09,0,0,1-2.22.13.38.38,0,0,1-.15-.05.75.75,0,0,1-.28-.52,3.85,3.85,0,0,1-.11-.83,1.55,1.55,0,0,1,.12-.64"/></g><g class="cls-26"><path class="cls-5" d="M90.79,15.73a20.65,20.65,0,0,1,2,3.35c.46.82.89,1.65,1.31,2.48.12.22.2.44.33.66a2,2,0,0,1,.14.25c.1.17.18.34.27.52a8,8,0,0,1,.55,1.61,2.94,2.94,0,0,1,.11,1.47,2.28,2.28,0,0,1-.15.44,1.9,1.9,0,0,1-.21.4,3.83,3.83,0,0,1-.28.29,1.7,1.7,0,0,1-.38.33.36.36,0,0,1-.45-.06.13.13,0,0,1,0-.1.21.21,0,0,1,.07-.15,3,3,0,0,0,.21-.33.64.64,0,0,0,.09-.21.69.69,0,0,0,0-.25,1.94,1.94,0,0,0-.28-.7c-.06-.1-.25-.38-.36-.18a1,1,0,0,0,0,.23.41.41,0,0,1,0,.16.72.72,0,0,1-.11.19.37.37,0,0,1-.12.13.2.2,0,0,1-.17,0c-.15-.09-.15-.22-.12-.37s0-.15,0-.22a1.37,1.37,0,0,0,0-.57,2.33,2.33,0,0,1,.09-.58c0-.18.1-.37.14-.56a.84.84,0,0,0,0-.66,2.26,2.26,0,0,0-.27-.36l-.17-.2c-.41-.53-.83-1-1.22-1.57-.64-.85-1.27-1.7-1.89-2.56-.19-.27-.36-.55-.55-.82a2.18,2.18,0,0,0-.49-.47c-.53-.44-1-1-1.52-1.4a1.34,1.34,0,0,1-.38-.37c-.21-.33.14-.87.28-1.18a6.88,6.88,0,0,1,.35-.66c0-.08.29-.52.38-.53a1.2,1.2,0,0,1,.71.29A10.21,10.21,0,0,1,90.1,15c.23.25.47.5.69.76"/><path class="cls-11" d="M90.1,15a10.21,10.21,0,0,0-1.53-1.48,1.2,1.2,0,0,0-.71-.29c-.07,0-.21.24-.3.4a1.31,1.31,0,0,1,.64.28,9.75,9.75,0,0,1,1.53,1.48c.23.25.47.5.69.76a20.65,20.65,0,0,1,2,3.35c.46.82.89,1.65,1.31,2.48.12.22.2.44.33.66a2,2,0,0,1,.14.25,5.12,5.12,0,0,1,.27.52A8,8,0,0,1,95,25a3.06,3.06,0,0,1,.12,1.47,3.29,3.29,0,0,1-.16.44,1.62,1.62,0,0,1-.19.37l.07-.07a3.83,3.83,0,0,0,.28-.29,1.9,1.9,0,0,0,.21-.4,2.28,2.28,0,0,0,.15-.44,2.94,2.94,0,0,0-.11-1.47A8,8,0,0,0,94.85,23c-.09-.18-.17-.35-.27-.52a2,2,0,0,0-.14-.25c-.13-.22-.21-.44-.33-.66-.42-.83-.85-1.66-1.31-2.48a20.65,20.65,0,0,0-2-3.35c-.22-.26-.46-.51-.69-.76"/><path class="cls-6" d="M86.58,15.69c.07.06.13.13.19.19a.47.47,0,0,0,.1.1c.69.67,1.5,1.15,2.2,1.81a9.05,9.05,0,0,1,1.43,1.92l0,.08a1.19,1.19,0,0,1,.09.15c.16.26.29.52.46.76a2.27,2.27,0,0,0,.26.35c.32.34.56.05.83-.18l.12-.09a4,4,0,0,0,.57-.6,1.68,1.68,0,0,0,.36-1.25,1.41,1.41,0,0,0-.2-.45c-.28-.5-.58-1-.9-1.46a12.69,12.69,0,0,0-.89-1.28l-1.06-1.19c-.4-.44-.8-.86-1.22-1.27-.13-.14-.27-.26-.4-.39a13.38,13.38,0,0,0-2-1.54,6.51,6.51,0,0,0-1.12-.56c-.33-.12-.65-.32-1-.11l-.07.05a1.11,1.11,0,0,0-.19.18s0,0,0,0a1.37,1.37,0,0,0-.22,1,3.77,3.77,0,0,0,.61,1.59h0l.07.1.09.11c.53.7,1.22,1.29,1.81,1.95"/><path class="cls-7" d="M90.69,20.17a1.84,1.84,0,0,0,.46.56,1.38,1.38,0,0,0,.94.08l.2,0a3.65,3.65,0,0,0,.58-.6,1.67,1.67,0,0,0,.36-1.25,1.41,1.41,0,0,0-.2-.45c-.28-.5-.58-1-.9-1.46a12.69,12.69,0,0,0-.89-1.28l-1.06-1.19c-.4-.44-.8-.86-1.22-1.27-.13-.14-.27-.26-.4-.39a12.68,12.68,0,0,0-2-1.53,5.9,5.9,0,0,0-1.12-.57c-.33-.12-.65-.32-1-.11l-.07.05a1.11,1.11,0,0,0-.19.18,1.25,1.25,0,0,1,.61.17,14.33,14.33,0,0,1,3.42,2.42.63.63,0,0,1,.24.44.69.69,0,0,1-.18.35l-.31.36.71-.24a.19.19,0,0,0,.16.22,1.46,1.46,0,0,0,.3,0,.27.27,0,0,1,.24.16c0,.2-.28.28-.33.48a1.6,1.6,0,0,0,.53,0,1.2,1.2,0,0,1,.94.52c.2.34-.27.64-.51.9l.83,0c.44,0,.51.28.75.6s.45.55.09.8a.7.7,0,0,1,.43,1.25,1.28,1.28,0,0,1-1,.29c-.22,0-.43-.05-.64,0,0,0,0,0-.06,0s0,.06,0,.08a4.61,4.61,0,0,0,.23.52"/><path class="cls-7" d="M86.58,15.69c.07.06.13.13.19.19a.47.47,0,0,0,.1.1c.69.67,1.5,1.15,2.2,1.81a9.05,9.05,0,0,1,1.43,1.92,4.26,4.26,0,0,0-.49-.85,5.66,5.66,0,0,1-.52-.79.45.45,0,0,1,0-.3c0-.13.17-.23.25-.34a1.49,1.49,0,0,1,.28-.34,1.18,1.18,0,0,1-.74.25c-.13,0-.51,0-.47-.22a.51.51,0,0,1,.16-.23,1.85,1.85,0,0,0,.14-.14,1.62,1.62,0,0,1-1.26-.17,1.42,1.42,0,0,1-.57-.46.6.6,0,0,1,.05-.59,1,1,0,0,0,.19-.57,1.77,1.77,0,0,1-.71.62l-.12-.47a.05.05,0,0,0,0,0c-.07-.08-.19.13-.26.06.07-.41.57-.61.68-1a1,1,0,0,1-1.65.16,3.27,3.27,0,0,1-.63-.54c.53.7,1.22,1.29,1.81,1.95"/><path class="cls-8" d="M90.42,19.77a1.09,1.09,0,0,1,0-.18,1.5,1.5,0,0,0,.79.25,1.65,1.65,0,0,0,.76-.19,1.46,1.46,0,0,0,.7-.79,1.28,1.28,0,0,0,.08-.7,1.35,1.35,0,0,0-.11-.34,1.62,1.62,0,0,1,.69.5,2.33,2.33,0,0,1,.48.76.84.84,0,0,1,.08.34,1,1,0,0,1-.21.59,4.16,4.16,0,0,1-1.82,1.27.42.42,0,0,1-.16,0,.74.74,0,0,1-.51-.3,3.62,3.62,0,0,1-.52-.65,1.49,1.49,0,0,1-.24-.6"/></g><path class="cls-27" d="M82.6,6.28l0,.1a.7.7,0,0,1,0,.28,2.16,2.16,0,0,1-.5.7h0l-.21.19c-.09.13-.18.24-.24.32a2.42,2.42,0,0,0-.14.21,3.86,3.86,0,0,1-1.39,1.08L80,9.2l-.16.09-.06,0,0,0-.05,0,0,0c-.85.41-1.53.37-1.86.07s-.48-1.68-.48-1.68c0-.25-.07-.53-.13-.78a.64.64,0,0,1,0-.07c0-.3,0-.57,0-.88,0-.13-.07-.26-.1-.39a1.73,1.73,0,0,1,.1-.81c.09-.33.18-.66.28-1s.11-.39.16-.59a1.79,1.79,0,0,1,.63-1.14,2.6,2.6,0,0,1,1.38-.51S81.32,2.9,81.49,3a2.74,2.74,0,0,1,1.19,2.32,3,3,0,0,1-.12.91l0,0,0,0"/><path class="cls-24" d="M77.46,3.84A7.85,7.85,0,0,1,80,3.23a2.54,2.54,0,0,1,.78,0,1.19,1.19,0,0,1,.66.38,1.29,1.29,0,0,1,.2.86,4,4,0,0,1-.22,1,8.81,8.81,0,0,0-.45,2A2.05,2.05,0,0,1,80.82,7a3.33,3.33,0,0,1-.13-1.13c0-.14.06-.28.08-.42a3.61,3.61,0,0,0,.07-.87.43.43,0,0,0-.15-.34,1,1,0,0,0-.52-.12A17.39,17.39,0,0,0,78,4,1.41,1.41,0,0,1,77.43,4Z"/><path class="cls-28" d="M83.39,4.22a11.86,11.86,0,0,1-.52,1.84l-.09.22a2.44,2.44,0,0,1-.1.24.94.94,0,0,0,0,.09,2.05,2.05,0,0,1-.56.75h0a.38.38,0,0,1,0-.1,2,2,0,0,1,.17-.46,2.41,2.41,0,0,0,.08-.25V6.4a.44.44,0,0,0-.06-.16.46.46,0,0,0-.6-.12,1,1,0,0,0-.42.52c0,.1-.08.2-.12.3s0,.12-.08.17a1,1,0,0,1-.07.15l0-.11a.68.68,0,0,1,0-.14c0-.21,0-.42,0-.63a3.92,3.92,0,0,1,0-.84c0-.2.1-.4.14-.6a.66.66,0,0,0-.15-.7,1.2,1.2,0,0,0-.6-.32,5.43,5.43,0,0,0-1.78-.07,3.3,3.3,0,0,1-1,0,1.68,1.68,0,0,0-.24-.06c-.09,0-.11-.12-.13-.21a2,2,0,0,1,0-.78,3.49,3.49,0,0,1,.24-.71c.08-.2.26-.27.44-.36a3.08,3.08,0,0,1,.73-.22,3.9,3.9,0,0,1,1.23,0,4.37,4.37,0,0,1,2.44.68,7.89,7.89,0,0,1,.59.54l.13.13a1.57,1.57,0,0,1,.48,1.37"/><path class="cls-29" d="M83.39,4.22a11.86,11.86,0,0,1-.52,1.84l-.09.22a2.44,2.44,0,0,1-.1.24.94.94,0,0,0,0,.09,2.05,2.05,0,0,1-.56.75h0a.38.38,0,0,1,0-.1,2,2,0,0,1,.17-.46,2.41,2.41,0,0,0,.08-.25V6.4a.44.44,0,0,0-.06-.16.46.46,0,0,0-.6-.12,1,1,0,0,0-.42.52c0,.1-.08.2-.12.3s0,.12-.08.17a1,1,0,0,1-.07.15l0-.11a.68.68,0,0,1,0-.14c0-.21,0-.42,0-.63a3.92,3.92,0,0,1,0-.84c0-.2.1-.4.14-.6a11.16,11.16,0,0,1-.11,1.41c0,.08,0,.17.12.16l.06,0c.12-.15.21-.33.33-.48a.66.66,0,0,1,.49-.29.78.78,0,0,1,.48.23.33.33,0,0,0,.1.06c.1,0,.17-.09.21-.19a3.87,3.87,0,0,0,.36-2.11,4.93,4.93,0,0,1-.18-.83,1.57,1.57,0,0,1,.48,1.37"/><path class="cls-30" d="M82.79,2.72a1.3,1.3,0,0,1,.34.6.7.7,0,0,1-.18.62.83.83,0,0,1-.79.17,2.54,2.54,0,0,1-.74-.4,2.34,2.34,0,0,0-.73-.39,2.25,2.25,0,0,0-.63-.06H78.43a1.74,1.74,0,0,1-.81-.14.76.76,0,0,1-.07-1.23,3.49,3.49,0,0,1,2.2-.38,4.37,4.37,0,0,1,2.44.68,7.12,7.12,0,0,1,.6.54"/><path class="cls-31" d="M79.64,1.65l-.56,0a2.19,2.19,0,0,0-.56.14.87.87,0,0,0-.39.26.23.23,0,0,0-.07.1.3.3,0,0,0,.2.37,4.75,4.75,0,0,0,1.6.05c.71.06,1.33.51,2,.59a.37.37,0,0,0,.31-.07.26.26,0,0,0,.06-.24.63.63,0,0,0-.12-.23,2.73,2.73,0,0,0-.49-.47,2.78,2.78,0,0,0-.9-.33,2.73,2.73,0,0,0-.48-.1,5.67,5.67,0,0,0-.57-.1h-.07"/><path class="cls-32" d="M75.56,4a1.12,1.12,0,0,1,.18-.28,4.86,4.86,0,0,1,1.15-1,6.2,6.2,0,0,1,1.29-.64,7,7,0,0,1,3-.42,4.51,4.51,0,0,1,.53.09,3.28,3.28,0,0,1,.61.18,2,2,0,0,1,.82.57.24.24,0,0,0,0-.14,2.27,2.27,0,0,1,.43,1.36,1.58,1.58,0,0,1-.24.7,2.14,2.14,0,0,1-.57.59,3.17,3.17,0,0,1-.47.27,2.69,2.69,0,0,1-1.1.29.41.41,0,0,0-.19,0,12.25,12.25,0,0,1-1.21.58,6.29,6.29,0,0,1-1.37.2,3.91,3.91,0,0,1-2-.42,1.9,1.9,0,0,1-.52-.37A1.54,1.54,0,0,1,75.56,4"/><path class="cls-33" d="M83.15,2.54a.22.22,0,0,1,0,.14,2.1,2.1,0,0,0-.82-.56,4.31,4.31,0,0,0-.61-.19l-.52-.08a7,7,0,0,0-3,.42,5.75,5.75,0,0,0-1.29.64,4.82,4.82,0,0,0-1.15.95,1.67,1.67,0,0,0-.18.28,1,1,0,0,0-.11.4A1,1,0,0,1,75.56,4a1.12,1.12,0,0,1,.18-.28,4.86,4.86,0,0,1,1.15-1,6.2,6.2,0,0,1,1.29-.64,7,7,0,0,1,3-.42,4.71,4.71,0,0,1,.52.09,3.28,3.28,0,0,1,.61.18,2,2,0,0,1,.82.57.24.24,0,0,0,0-.14,2.3,2.3,0,0,1,.43,1.3,2.56,2.56,0,0,0-.43-1.17"/><path class="cls-33" d="M75.92,5.45a1.9,1.9,0,0,0,.52.37,3.92,3.92,0,0,0,2,.43,7.8,7.8,0,0,0,1.37-.2A12.31,12.31,0,0,0,81,5.46a.62.62,0,0,1,.19,0,2.69,2.69,0,0,0,1.1-.29,2.42,2.42,0,0,0,.47-.26,2.18,2.18,0,0,0,.57-.6,1.54,1.54,0,0,0,.24-.69V3.55a.81.81,0,0,1,0,.22,1.58,1.58,0,0,1-.24.7,2.14,2.14,0,0,1-.57.59,3.17,3.17,0,0,1-.47.27,2.69,2.69,0,0,1-1.1.29.41.41,0,0,0-.19,0,12.25,12.25,0,0,1-1.21.58,6.29,6.29,0,0,1-1.37.2,3.91,3.91,0,0,1-2-.42,1.9,1.9,0,0,1-.52-.37,1.84,1.84,0,0,1-.47-1.24,1.88,1.88,0,0,0,.47,1.06"/><path class="cls-34" d="M81.17.21a3,3,0,0,1,1.42.87,3.49,3.49,0,0,1,.81,2.39,1.49,1.49,0,0,1-.57,1.2,5,5,0,0,1-4.26.48C78,5,77,4.6,76.82,3.92a1.24,1.24,0,0,1,0-.43A2.87,2.87,0,0,1,77.1,2.4c.15-.29.34-.58.52-.86a2.91,2.91,0,0,1,.67-.77,3.09,3.09,0,0,1,.94-.52,3.39,3.39,0,0,1,1-.17,3,3,0,0,1,.89.13"/><path class="cls-17" d="M76.68,4a.5.5,0,0,0,0,.17.49.49,0,0,0,.1.15,1.54,1.54,0,0,0,.51.4,1.75,1.75,0,0,0,.24.11l.08,0,.11,0s-.06-.06,0-.1a.61.61,0,0,0,.07-.1,1.3,1.3,0,0,0,.1-.15l.26-.61.45-.74.43-.7.79-.8.59-.59,1-.24,1.32.28A4.72,4.72,0,0,0,81.55.27h0L81.39.19A2.34,2.34,0,0,0,80.57,0a2.14,2.14,0,0,0-.79.12l-.26.1a3.06,3.06,0,0,0-.49.3,3.5,3.5,0,0,0-.46.39,5.92,5.92,0,0,0-.41.45,5.6,5.6,0,0,0-.36.49,5.19,5.19,0,0,0-.31.5,3.72,3.72,0,0,0-.27.48c-.07.14-.15.29-.21.43l-.16.37L76.68,4"/><path class="cls-33" d="M77.91,4.88s0,0,0-.07a.42.42,0,0,0,0-.1l.12-.28c.05-.13.11-.25.17-.38s.14-.3.22-.45.18-.33.28-.49.21-.33.32-.49a4.45,4.45,0,0,1,.38-.48,3.32,3.32,0,0,1,.41-.43,3.1,3.1,0,0,1,.46-.35,2.3,2.3,0,0,1,.5-.24l.21-.05a.64.64,0,0,1,.2,0,2.11,2.11,0,0,1,1.63.53,1.42,1.42,0,0,1,.13.12c0-.08-.06-.17-.1-.24a1.36,1.36,0,0,0-.27-.36,1.4,1.4,0,0,0-.26-.16,2.51,2.51,0,0,0-.85-.2,2.14,2.14,0,0,0-.79.12l-.26.1a2.48,2.48,0,0,0-.49.3,3.5,3.5,0,0,0-.46.39,5.92,5.92,0,0,0-.41.45,5.6,5.6,0,0,0-.36.49c-.11.16-.21.33-.31.49s-.18.32-.27.49L78,4c-.06.12-.11.25-.16.37s-.08.18-.11.27a.61.61,0,0,0,0,.12s0,.08,0,.12a.14.14,0,0,0,.11,0h.1s.06,0,.07,0"/><polygon class="cls-35" points="16.11 60.34 23.12 56.29 43.77 68.22 36.74 72.27 16.11 60.34"/><ellipse class="cls-36" cx="42.39" cy="68.23" rx="0.43" ry="0.23"/><ellipse class="cls-36" cx="36.97" cy="71.36" rx="0.43" ry="0.23"/><ellipse class="cls-36" cx="23.13" cy="57.08" rx="0.43" ry="0.23"/><ellipse class="cls-36" cx="17.72" cy="60.22" rx="0.43" ry="0.23"/><ellipse class="cls-37" cx="32.65" cy="62.71" rx="0.43" ry="0.23"/><path class="cls-37" d="M32.65,62.67a.46.46,0,0,0-.36.14.5.5,0,0,0,.36.13.49.49,0,0,0,.35-.13A.46.46,0,0,0,32.65,62.67Z"/><ellipse class="cls-36" cx="27.23" cy="65.85" rx="0.43" ry="0.23"/><polygon class="cls-35" points="37.69 72.77 44.7 68.71 65.34 80.65 58.32 84.7 37.69 72.77"/><ellipse class="cls-36" cx="63.94" cy="80.71" rx="0.43" ry="0.23"/><ellipse class="cls-36" cx="58.52" cy="83.85" rx="0.43" ry="0.23"/><ellipse class="cls-36" cx="44.68" cy="69.57" rx="0.43" ry="0.23"/><ellipse class="cls-36" cx="39.27" cy="72.7" rx="0.43" ry="0.23"/><ellipse class="cls-36" cx="54.19" cy="75.2" rx="0.43" ry="0.23"/><ellipse class="cls-36" cx="48.78" cy="78.33" rx="0.43" ry="0.23"/><polygon class="cls-38" points="0 38.19 7.48 33.86 28.13 45.8 21 50.34 0 38.19"/><polygon class="cls-35" points="0.47 37.92 7.48 33.86 28.13 45.8 21.1 49.85 0.47 37.92"/><ellipse class="cls-36" cx="26.72" cy="45.86" rx="0.43" ry="0.23"/><ellipse class="cls-36" cx="21.3" cy="48.99" rx="0.43" ry="0.23"/><ellipse class="cls-36" cx="7.46" cy="34.72" rx="0.43" ry="0.23"/><ellipse class="cls-36" cx="2.05" cy="37.85" rx="0.43" ry="0.23"/><ellipse class="cls-36" cx="16.98" cy="40.35" rx="0.43" ry="0.23"/><ellipse class="cls-36" cx="11.56" cy="43.48" rx="0.43" ry="0.23"/><polygon class="cls-38" points="2.05 36.67 9.53 32.34 30.17 44.28 23.05 48.81 2.05 36.67"/><polygon class="cls-35" points="2.52 36.39 9.53 32.34 30.17 44.28 23.15 48.33 2.52 36.39"/><ellipse class="cls-36" cx="28.76" cy="44.34" rx="0.43" ry="0.23"/><ellipse class="cls-36" cx="23.35" cy="47.47" rx="0.43" ry="0.23"/><ellipse class="cls-36" cx="9.51" cy="33.19" rx="0.43" ry="0.23"/><ellipse class="cls-36" cx="4.09" cy="36.33" rx="0.43" ry="0.23"/><ellipse class="cls-36" cx="19.02" cy="38.82" rx="0.43" ry="0.23"/><ellipse class="cls-36" cx="13.61" cy="41.96" rx="0.43" ry="0.23"/><polygon class="cls-38" points="4.09 35.39 11.58 31.06 32.22 43 25.09 47.53 4.09 35.39"/><polygon class="cls-35" points="4.56 35.12 11.58 31.06 32.22 43 25.2 47.05 4.56 35.12"/><ellipse class="cls-36" cx="30.81" cy="43.06" rx="0.43" ry="0.23"/><ellipse class="cls-36" cx="25.4" cy="46.19" rx="0.43" ry="0.23"/><ellipse class="cls-36" cx="11.56" cy="31.91" rx="0.43" ry="0.23"/><ellipse class="cls-36" cx="6.14" cy="35.05" rx="0.43" ry="0.23"/><ellipse class="cls-36" cx="21.07" cy="37.54" rx="0.43" ry="0.23"/><ellipse class="cls-36" cx="15.65" cy="40.68" rx="0.43" ry="0.23"/><g class="cls-39"><ellipse class="cls-3" cx="43.61" cy="69.23" rx="19.19" ry="8.13" transform="translate(-13.66 10.8) rotate(-12.22)"/><path class="cls-15" d="M33.35,70.76a7.59,7.59,0,0,1-1.51,2.42s-.83,1.08,0,1.67c2,.9,3.9-1.69,3.9-1.69s1.74-.34,2.1-1.69c.21-.6-.81-1.94-.81-1.94S33.7,70.7,33.35,70.76Z"/><path class="cls-16" d="M40.61,62s-7,3.87-7.51,3.91a10.31,10.31,0,0,1,4,3.71A2,2,0,0,1,36,71.18a3.8,3.8,0,0,1-2.93,0c-1.3-1.79-5.21-3.25-5.45-4.72-.2-.93,2-2.77,2-2.77s5.08-6.18,8.84-7.57a24.67,24.67,0,0,1,2.17,3.28Z"/><path class="cls-17" d="M29.34,68.27c-.88-.62-1.59-1.21-1.69-1.81-.2-.93,2-2.77,2-2.77s4.47-5.43,8.12-7.25a4.36,4.36,0,0,1,.81.49,1.17,1.17,0,0,1,.31.36.38.38,0,0,1-.09.44c-.13.09-.31.06-.45.12-.3.14-.27.62-.54.82s-.5.11-.75.18-.57.4-.84.62a5.87,5.87,0,0,1-1.29.61,1.67,1.67,0,0,0-1,1c-.17.65.33,1.28.42,2a1.26,1.26,0,0,0-.9.17c-.09.07-.16.16-.25.23-.36.28-1,.14-1.26.51a3,3,0,0,0-.21.59c-.2.47-.77.63-1.27.74a3.58,3.58,0,0,0-1.29.43,1.26,1.26,0,0,0-.63,1.14,2.29,2.29,0,0,0,.61,1A2.18,2.18,0,0,1,29.34,68.27Z"/><path class="cls-40" d="M30,58s2.39-1.44,3.21-2.08A16.88,16.88,0,0,0,35,54l1.62-1.45-2.22-1.86-1,1.36s-1.41,1.36-2.2,2.07A25.31,25.31,0,0,0,28.8,57.2Z"/><path class="cls-36" d="M28.8,57.2s-.92-.78-1.56-.61-1,.22-1.18.45-.62.94-.55,1.09c2.1,1.41,2.67.31,2.9.25l.93.66A2,2,0,0,0,30,58,2.06,2.06,0,0,0,28.8,57.2Z"/><path class="cls-41" d="M37.91,44.63a6.55,6.55,0,0,0-1.52,3s-.87,1.45-2.18,3.19a4.53,4.53,0,0,1,2.15,2.35c.84-1,2.08-2.27,2.08-2.27l1-5.36S38.09,44.47,37.91,44.63Z"/><path class="cls-42" d="M42.52,42.93a5.47,5.47,0,0,0,.44.73,6.34,6.34,0,0,0,.65.77l-1.73,3.19-2.72-.94,1.91-4Z"/><path class="cls-43" d="M40.39,46.5c1,.57,2.66-2.24,3.11-2.2,1.16.65,2.31,1.72,3.38,2.42l-1,11.75-5.25.27-3.09-3.63s-1.2-5-1.1-6.31a10.43,10.43,0,0,1,1.47-3.86L40,44.55S39.42,45.93,40.39,46.5Z"/><path class="cls-17" d="M41.88,43.7c-3-.4-4,5.1-4,5.1l-1-.58S38.32,42.59,41,43Z"/><path class="cls-17" d="M42.38,58.47A21.21,21.21,0,0,1,42,51.12a.56.56,0,0,0-.29-.55l-4.83-2.51a.18.18,0,0,0-.27.14,31.25,31.25,0,0,0,.93,8.5Z"/><path class="cls-44" d="M38.54,50.07a16,16,0,0,0,1.68.61,1.63,1.63,0,0,1,.75.41,1.52,1.52,0,0,1,.28.68,8.18,8.18,0,0,1-.07,2.79.76.76,0,0,1-.23.52.78.78,0,0,1-.34.09,4.85,4.85,0,0,1-2.35-.69,1.86,1.86,0,0,1-.73-.53,1.81,1.81,0,0,1-.26-.78,22,22,0,0,1-.35-2.42c0-.37-.23-1.88.55-1.37A9.78,9.78,0,0,0,38.54,50.07Z"/><polygon class="cls-45" points="54.07 62.38 53.73 63.18 55.09 65.61 56.52 64.75 54.8 61.85 54.07 62.38"/><path class="cls-15" d="M55,66.89a1.62,1.62,0,0,0,1.53.88A3,3,0,0,0,58.6,66,10,10,0,0,0,57,61.85a1.75,1.75,0,0,0-1.76-.61c-.53.1-1.17,1.14-1.17,1.14a1.17,1.17,0,0,1,1.16.54,3.41,3.41,0,0,1,.32,2.15C55.42,66,54.9,66.61,55,66.89Z"/><path class="cls-17" d="M38.09,55.71s3.15,2.45,6.09,1.47l2.07-.74a29.7,29.7,0,0,1,1.53,3.43c.55,1.87.6,5.86.94,6.43,1.35-1.38,3.06-2.08,4.58-3.62.59-.16,1.73.57,2.14,1.95a2.37,2.37,0,0,1-.37,2.4c-1.42.21-5.94,4.76-7.57,5.36-2.6.58-5.38-9.08-5.61-9.47-3.46-.77-1-2.52-4-6.47Z"/><path class="cls-46" d="M46.71,61a2.72,2.72,0,0,1-2-.49,3,3,0,0,1-1-1.78,3.51,3.51,0,0,0,1.15,1.64A3.09,3.09,0,0,0,46.71,61Z"/><path class="cls-16" d="M41.89,62.92c-2-.44-2-1.22-2.27-2.55,0,0,0,0,0-.07a2.24,2.24,0,0,0,1.19,1.32c.61.28,1.38.29,1.85.78a2.58,2.58,0,0,1,.42.74,59.31,59.31,0,0,0,3.42,6.69,1.53,1.53,0,0,0,.39.48,1.31,1.31,0,0,0,.52.2,2.52,2.52,0,0,0,1.65,0,2.53,2.53,0,0,0,1-1.31l.65-1.41a.51.51,0,0,0,.79.35c.24-.21.24-.63.51-.81s.69,0,1-.23.23-.89.61-1.08c.19-.1.41,0,.62-.08.51-.1.66-.82.43-1.28a3.85,3.85,0,0,0-1.12-1.08A2.45,2.45,0,0,1,53,63c.11-.1.23-.18.33-.29.59-.16,1.73.57,2.14,1.95a2.37,2.37,0,0,1-.37,2.4c-1.42.21-5.94,4.76-7.57,5.36C44.9,73,42.12,63.31,41.89,62.92Z"/><path class="cls-40" d="M44.76,55.13a6.33,6.33,0,0,1,0,1.24c-.78-.06-3.1,1.51-4.35,1.32-.27.13-.74,1.59-.07,1.88,3.47-.37,3.73.11,6.72-.64,1-.3.71-4.21.71-4.21Z"/><path class="cls-41" d="M45.31,46.68c1.77-.79,2.72,1.23,2.88,1.93a12.23,12.23,0,0,1,0,3.51,15.75,15.75,0,0,1-.13,3.17,5.28,5.28,0,0,1-3.78.12s0-1.95,0-4.58C44.25,50.83,43.78,47.54,45.31,46.68Z"/><path class="cls-17" d="M45.67,45.8c-3-.4-4,5.1-4,5.1l-1-.58s1.5-5.63,4.17-5.21Z"/><path class="cls-27" d="M42.61,42.21a.31.31,0,0,1,0,.1.73.73,0,0,1,0,.26,2,2,0,0,1-.35.74h0a2.09,2.09,0,0,1-.16.22c-.06.13-.13.25-.17.34a1.6,1.6,0,0,0-.1.22,3.55,3.55,0,0,1-1.1,1.25l-.06,0-.14.11-.05,0,0,0,0,0,0,0c-.72.53-1.37.61-1.73.39S38,44.51,38,44.51c-.09-.23-.15-.48-.26-.71a.14.14,0,0,1,0-.06c-.1-.27-.09-.53-.18-.81s-.12-.23-.16-.35a1.58,1.58,0,0,1-.05-.78l.09-1c0-.19,0-.38,0-.57a1.79,1.79,0,0,1,.39-1.18,2.53,2.53,0,0,1,1.2-.71s1.81.9,2,.94a2.58,2.58,0,0,1,1.52,2,2.86,2.86,0,0,1,0,.87l0,0,0,0"/><path class="cls-24" d="M37.39,40.82a7.53,7.53,0,0,1,2.3-1,2.56,2.56,0,0,1,.73-.09,1.08,1.08,0,0,1,.68.24,1.17,1.17,0,0,1,.33.77,3.29,3.29,0,0,1,0,1,8.69,8.69,0,0,0-.07,2,1.79,1.79,0,0,1-.25-.45,2.94,2.94,0,0,1-.32-1c0-.13,0-.27,0-.41a3.81,3.81,0,0,0-.09-.82.45.45,0,0,0-.2-.3,1.21,1.21,0,0,0-.5,0,15.37,15.37,0,0,0-2,.26,1.52,1.52,0,0,1-.56,0Z"/><path class="cls-28" d="M43,40.15A10.68,10.68,0,0,1,42.83,42a1.85,1.85,0,0,0,0,.23l-.06.23a.29.29,0,0,1,0,.09,1.76,1.76,0,0,1-.39.8v0a.34.34,0,0,1,0-.1,1.48,1.48,0,0,1,.08-.46,1.07,1.07,0,0,0,0-.25.58.58,0,0,0,0-.14.28.28,0,0,0-.08-.15.47.47,0,0,0-.59,0,1,1,0,0,0-.3.56l-.06.3a1.16,1.16,0,0,1,0,.18.83.83,0,0,1,0,.15s0-.07-.05-.1a.56.56,0,0,1,0-.12c-.06-.19-.09-.4-.14-.58a3.12,3.12,0,0,1-.14-.8c0-.19,0-.39,0-.58a.65.65,0,0,0-.26-.63,1.3,1.3,0,0,0-.63-.2,5.1,5.1,0,0,0-1.67.25,3.21,3.21,0,0,1-1,.19,1.69,1.69,0,0,0-.23,0c-.09,0-.13-.1-.16-.17a2.11,2.11,0,0,1-.14-.74,4.24,4.24,0,0,1,.11-.7.7.7,0,0,1,.35-.41,2.43,2.43,0,0,1,.64-.33,3.68,3.68,0,0,1,1.14-.24,4.18,4.18,0,0,1,2.4.21c.24.14.46.27.65.4l.14.11A1.45,1.45,0,0,1,43,40.15"/><path class="cls-29" d="M43,40.15A10.68,10.68,0,0,1,42.83,42a1.85,1.85,0,0,0,0,.23l-.06.23a.29.29,0,0,1,0,.09,1.85,1.85,0,0,1-.38.8h0v0a.34.34,0,0,1,0-.1,1.48,1.48,0,0,1,.08-.46,1.07,1.07,0,0,0,0-.25.58.58,0,0,0,0-.14.28.28,0,0,0-.08-.15.47.47,0,0,0-.59,0,1,1,0,0,0-.3.56l-.06.3a1.16,1.16,0,0,1,0,.18.83.83,0,0,1,0,.15s0-.07-.05-.1a.56.56,0,0,1,0-.12c-.06-.19-.09-.4-.14-.58a3.12,3.12,0,0,1-.14-.8c0-.19,0-.39,0-.58.14.42,0,.9.14,1.34,0,.07.07.15.13.12l0,0c.09-.16.14-.34.23-.51a.64.64,0,0,1,.41-.36.74.74,0,0,1,.49.14l.09,0c.1,0,.15-.12.17-.22a3.68,3.68,0,0,0,0-2,5.27,5.27,0,0,1-.31-.74A1.45,1.45,0,0,1,43,40.15"/><path class="cls-30" d="M42.17,38.85a1.17,1.17,0,0,1,.43.51.66.66,0,0,1-.06.61.78.78,0,0,1-.71.29,2.4,2.4,0,0,1-.76-.24,2.52,2.52,0,0,0-.76-.25,2.41,2.41,0,0,0-.59.06l-1.52.27a1.76,1.76,0,0,1-.79,0A.73.73,0,0,1,37.13,39a3.35,3.35,0,0,1,2-.73,4.18,4.18,0,0,1,2.4.21,5.7,5.7,0,0,1,.65.4"/><path class="cls-31" d="M39.05,38.4c-.17,0-.35.07-.52.12a1.83,1.83,0,0,0-.49.23.82.82,0,0,0-.33.31.37.37,0,0,0-.05.11.29.29,0,0,0,.26.3,4.62,4.62,0,0,0,1.5-.22c.67-.07,1.33.25,2,.2a.36.36,0,0,0,.28-.12.25.25,0,0,0,0-.24.55.55,0,0,0-.15-.19,2.38,2.38,0,0,0-.54-.35,4.48,4.48,0,0,0-1.37-.17,3.25,3.25,0,0,0-.54,0h-.07"/><path class="cls-32" d="M35.64,41.3a1.48,1.48,0,0,1,.12-.29,4.34,4.34,0,0,1,.92-1.09,5.46,5.46,0,0,1,1.09-.82,6.65,6.65,0,0,1,2.72-.91,4.34,4.34,0,0,1,.51,0,4.09,4.09,0,0,1,.6.07,2,2,0,0,1,.87.38.2.2,0,0,0,0-.13,2.15,2.15,0,0,1,.64,1.2,1.54,1.54,0,0,1-.11.7,2.16,2.16,0,0,1-.43.65,2.52,2.52,0,0,1-.39.33,2.59,2.59,0,0,1-1,.46.48.48,0,0,0-.17,0c-.37.22-.63.56-1,.75a6.37,6.37,0,0,1-1.25.43A3.82,3.82,0,0,1,36.81,43a1.55,1.55,0,0,1-.55-.26,1.45,1.45,0,0,1-.62-1.45"/><path class="cls-33" d="M42.49,38.63a.29.29,0,0,1,0,.13,2,2,0,0,0-.87-.39,2.91,2.91,0,0,0-.6-.06,4.21,4.21,0,0,0-.5,0,6.5,6.5,0,0,0-2.73.91,5.76,5.76,0,0,0-1.09.82,4.34,4.34,0,0,0-.92,1.09,2.52,2.52,0,0,0-.12.29.86.86,0,0,0,0,.39.92.92,0,0,1,0-.52,1.48,1.48,0,0,1,.12-.29,4.34,4.34,0,0,1,.92-1.09,5.46,5.46,0,0,1,1.09-.82,6.65,6.65,0,0,1,2.72-.91,4.34,4.34,0,0,1,.51,0,4.09,4.09,0,0,1,.6.07,2,2,0,0,1,.87.38.2.2,0,0,0,0-.13,2.24,2.24,0,0,1,.63,1.14,2.43,2.43,0,0,0-.6-1"/><path class="cls-33" d="M36.23,42.59a1.55,1.55,0,0,0,.55.26,3.82,3.82,0,0,0,1.93.06A8,8,0,0,0,40,42.48c.4-.2.66-.53,1-.76a.48.48,0,0,1,.17,0,2.57,2.57,0,0,0,1-.45,2.12,2.12,0,0,0,.39-.34,2,2,0,0,0,.43-.65,1.48,1.48,0,0,0,.11-.69s0,0,0,0a1.18,1.18,0,0,1,0,.2,1.54,1.54,0,0,1-.11.7,2.16,2.16,0,0,1-.43.65,2.52,2.52,0,0,1-.39.33,2.59,2.59,0,0,1-1,.46.48.48,0,0,0-.17,0c-.37.22-.63.56-1,.75a6.37,6.37,0,0,1-1.25.43A3.82,3.82,0,0,1,36.81,43a1.55,1.55,0,0,1-.55-.26,1.7,1.7,0,0,1-.66-1.07,1.81,1.81,0,0,0,.63.91"/><path class="cls-47" d="M40.23,36.78a2.84,2.84,0,0,1,1.48.57,3.32,3.32,0,0,1,1.17,2.1,1.42,1.42,0,0,1-.33,1.22,4.68,4.68,0,0,1-3.89,1.18c-.61-.08-1.53-.24-1.85-.84a1.15,1.15,0,0,1-.12-.4,2.72,2.72,0,0,1,.12-1.07c.09-.31.21-.6.33-.9a2.89,2.89,0,0,1,.49-.83,2.93,2.93,0,0,1,.8-.65,3.08,3.08,0,0,1,1-.34,3.46,3.46,0,0,1,.85,0"/><path class="cls-17" d="M36.69,41.12a.42.42,0,0,0,0,.16.37.37,0,0,0,.12.13,1.4,1.4,0,0,0,.54.28,1.05,1.05,0,0,0,.24.06h.19s-.07,0,0-.09a1.17,1.17,0,0,0,0-.11l.06-.15.14-.62.29-.76.29-.73.6-.89.45-.66.91-.39,1.28,0a4.14,4.14,0,0,0-1.23-.62h0l-.15-.05a2.21,2.21,0,0,0-.81,0,2,2,0,0,0-.71.24l-.23.14a2.86,2.86,0,0,0-.41.37,3.13,3.13,0,0,0-.36.44,4,4,0,0,0-.3.49,5,5,0,0,0-.26.52l-.21.52c-.06.16-.11.33-.16.49a3.74,3.74,0,0,0-.12.45,2.49,2.49,0,0,0-.09.37c0,.09-.08.37-.09.39"/><path class="cls-33" d="M38,41.72l0-.08s0-.06,0-.09l.06-.29c0-.13.07-.26.1-.38s.08-.31.13-.46.11-.34.18-.51.14-.35.21-.52.17-.34.27-.51a3.39,3.39,0,0,1,.68-.87,1.88,1.88,0,0,1,.43-.31.76.76,0,0,1,.18-.09l.18-.06a2,2,0,0,1,1.63.22l.13.08a2.39,2.39,0,0,0-.13-.21,1,1,0,0,0-.31-.28.94.94,0,0,0-.28-.1,2.11,2.11,0,0,0-.83,0,2.21,2.21,0,0,0-.71.24l-.22.15a2.86,2.86,0,0,0-.42.36,4.94,4.94,0,0,0-.36.44c-.11.16-.21.33-.3.49s-.18.35-.25.52-.15.35-.21.52-.12.33-.17.5l-.12.45-.09.37a2.56,2.56,0,0,0,0,.27l0,.12s0,.08,0,.11a.17.17,0,0,0,.12,0l.09,0s.06,0,.06,0"/><path class="cls-48" d="M38.42,60.89c.15.08.15.22,0,.3l-.44.26a.58.58,0,0,1-.53,0h0c-.14-.08-.15-.22,0-.3l.43-.26a.58.58,0,0,1,.53,0Z"/><polygon class="cls-48" points="38.53 61.04 37.35 61.3 37.28 52.3 38.46 52.06 38.53 61.04"/><path class="cls-49" d="M38.35,51.89c.15.09.15.22,0,.31l-.44.25a.58.58,0,0,1-.53,0h0c-.15-.09-.15-.22,0-.31l.43-.25a.58.58,0,0,1,.53,0Z"/><polygon class="cls-50" points="35.77 53.69 36.88 54.32 40.83 52 40.82 51.85 39.72 51.22 38.24 51.1 35.77 52.55 35.77 53.69"/><polygon class="cls-51" points="36.88 54.32 40.83 52 40.82 51.85 39.35 51.73 36.88 53.18 36.88 54.32"/><polygon class="cls-52" points="35.77 52.55 35.77 53.69 36.88 54.32 36.88 53.18 35.77 52.55"/><polygon class="cls-52" points="38.24 51.1 39.72 51.22 40.83 51.85 39.35 51.73 38.24 51.1"/><path class="cls-53" d="M38.35,51.67c.15.09.15.23,0,.31l-.43.26a.62.62,0,0,1-.53,0h0c-.15-.08-.15-.22,0-.31l.43-.25a.58.58,0,0,1,.53,0Z"/><path class="cls-36" d="M40.34,59.57c.09-.26.57-1.46,0-2-.81-.18-1.19-.81-1.56-.81a.57.57,0,0,0-.34.12v.85c0,.27-.06.44-.51.46-.66,0-.58-.73-.58-.73s-.71.23-.71.71a4.81,4.81,0,0,0,.44,2.15,1.74,1.74,0,0,0,1.45.26C38.92,60.57,39.36,59.9,40.34,59.57Z"/></g><path class="cls-36" d="M32.47,61.11l.06,1.7h.23l.13-1.7A.31.31,0,0,0,32.47,61.11Z"/><ellipse class="cls-54" cx="32.68" cy="60.99" rx="0.43" ry="0.23"/></g></g></g></svg>