<svg xmlns="http://www.w3.org/2000/svg" xmlns:xlink="http://www.w3.org/1999/xlink" viewBox="0 0 174.62 114.25"><defs><style>.cls-1{fill:none;}.cls-2{isolation:isolate;}.cls-3{fill:url(#linear-gradient);}.cls-4{fill:url(#linear-gradient-2);}.cls-5{fill:url(#linear-gradient-3);}.cls-6{fill:#22323f;}.cls-7{fill:url(#linear-gradient-4);}.cls-8{fill:#514f4d;}.cls-9{fill:#333130;}.cls-10{clip-path:url(#clip-path);}.cls-11{fill:#171512;}.cls-12{fill:#879196;}.cls-13{fill:url(#linear-gradient-5);}.cls-14{fill:#b0b9be;}.cls-14,.cls-40{opacity:0.5;}.cls-14,.cls-25,.cls-34{mix-blend-mode:multiply;}.cls-15{fill:#c9cfd2;}.cls-15,.cls-22,.cls-24{opacity:0.8;}.cls-15,.cls-22,.cls-40{mix-blend-mode:screen;}.cls-16{fill:url(#linear-gradient-6);}.cls-17{clip-path:url(#clip-path-2);}.cls-18{fill:url(#linear-gradient-7);}.cls-19{fill:url(#linear-gradient-8);}.cls-20{fill:url(#linear-gradient-9);}.cls-21{fill:#563184;opacity:0.7;}.cls-22{fill:url(#linear-gradient-10);}.cls-23{fill:#303e41;}.cls-24{fill:#334547;}.cls-25,.cls-34,.cls-41{opacity:0.4;}.cls-25{fill:url(#linear-gradient-11);}.cls-26{fill:#202b2d;}.cls-27{fill:url(#linear-gradient-12);}.cls-28{fill:#d81d2f;}.cls-29{fill:#6e30b2;}.cls-30{fill:#9753e5;}.cls-31{fill:#cecece;}.cls-32{fill:#d3dcdd;}.cls-33{fill:#e58a1f;}.cls-34{fill:#4d2182;}.cls-35{fill:url(#linear-gradient-13);}.cls-36{fill:url(#linear-gradient-14);}.cls-37{fill:url(#linear-gradient-15);}.cls-38{fill:url(#linear-gradient-16);}.cls-39{fill:url(#linear-gradient-17);}.cls-40{fill:#b976ee;}.cls-41{fill:#7536b7;}</style><linearGradient id="linear-gradient" x1="-4952.97" y1="410.49" x2="-4952.97" y2="417.94" gradientTransform="matrix(-0.99, 0.15, 0.15, 0.99, -4874.79, 332.09)" gradientUnits="userSpaceOnUse"><stop offset="0" stop-color="#af69ff"/><stop offset="1" stop-color="#9151da"/></linearGradient><linearGradient id="linear-gradient-2" x1="-4948.78" y1="409.07" x2="-4954.52" y2="414.35" gradientTransform="matrix(-0.99, 0.15, 0.15, 0.99, -4874.79, 332.09)" gradientUnits="userSpaceOnUse"><stop offset="0" stop-color="#9857e3"/><stop offset="1" stop-color="#9151da"/></linearGradient><linearGradient id="linear-gradient-3" x1="-4948.99" y1="409.28" x2="-4954.28" y2="414.15" gradientTransform="matrix(-0.99, 0.15, 0.15, 0.99, -4874.79, 332.09)" gradientUnits="userSpaceOnUse"><stop offset="0.49" stop-color="#6092a3"/><stop offset="0.51" stop-color="#c4e3ff"/></linearGradient><linearGradient id="linear-gradient-4" x1="-5118.53" y1="89.36" x2="-5106.89" y2="103.25" gradientTransform="matrix(-1, 0, 0, 1, -5040.91, 0)" gradientUnits="userSpaceOnUse"><stop offset="0" stop-color="#323232"/><stop offset="0.26" stop-color="#201f1d"/><stop offset="1" stop-color="#12100c"/></linearGradient><clipPath id="clip-path"><path class="cls-1" d="M73.57,90.88a15.3,15.3,0,0,0-6.94,12c0,4.42,3.13,6.22,7,4a15.35,15.35,0,0,0,7-12.05C80.55,90.43,77.42,88.66,73.57,90.88Z"/></clipPath><linearGradient id="linear-gradient-5" x1="-5114.07" y1="88.75" x2="-5114.07" y2="112.22" gradientTransform="matrix(-1, 0, 0, 1, -5040.91, 0)" gradientUnits="userSpaceOnUse"><stop offset="0" stop-color="#b0b9be"/><stop offset="0.51" stop-color="#b0b9be"/><stop offset="0.62" stop-color="#b7bfc3"/><stop offset="0.8" stop-color="#cacfd3"/><stop offset="1" stop-color="#e8eaeb"/><stop offset="1" stop-color="#e9ebec"/></linearGradient><linearGradient id="linear-gradient-6" x1="-5202.84" y1="40.61" x2="-5191.2" y2="54.5" xlink:href="#linear-gradient-4"/><clipPath id="clip-path-2"><path class="cls-1" d="M157.88,42.13a15.27,15.27,0,0,0-6.94,12c0,4.43,3.13,6.22,7,4a15.34,15.34,0,0,0,7-12C164.86,41.67,161.73,39.9,157.88,42.13Z"/></clipPath><linearGradient id="linear-gradient-7" x1="-5198.38" y1="39.99" x2="-5198.38" y2="63.46" xlink:href="#linear-gradient-5"/><linearGradient id="linear-gradient-8" x1="-5155.75" y1="75.81" x2="-5157.2" y2="78.34" gradientTransform="matrix(-1, 0, 0, 1, -5040.91, 0)" gradientUnits="userSpaceOnUse"><stop offset="0" stop-color="#6d30b0"/><stop offset="1" stop-color="#9151da"/></linearGradient><linearGradient id="linear-gradient-9" x1="-5147.31" y1="79.61" x2="-5099.22" y2="25.19" gradientTransform="matrix(-1, 0, 0, 1, -5040.91, 0)" gradientUnits="userSpaceOnUse"><stop offset="0" stop-color="#773eb8"/><stop offset="0.15" stop-color="#7c42bf"/><stop offset="0.66" stop-color="#8c4dd3"/><stop offset="1" stop-color="#9151da"/></linearGradient><linearGradient id="linear-gradient-10" x1="-5048.31" y1="58.89" x2="-5206.3" y2="26.48" gradientTransform="matrix(-1, 0, 0, 1, -5040.91, 0)" gradientUnits="userSpaceOnUse"><stop offset="0" stop-color="#a561ff"/><stop offset="1" stop-color="#412363"/></linearGradient><linearGradient id="linear-gradient-11" x1="-5046.79" y1="66.81" x2="-5108.25" y2="66.81" gradientTransform="matrix(-1, 0, 0, 1, -5040.91, 0)" gradientUnits="userSpaceOnUse"><stop offset="0.41" stop-color="#b79ede"/><stop offset="0.69" stop-color="#8c64ca"/><stop offset="1" stop-color="#5920b3"/></linearGradient><linearGradient id="linear-gradient-12" x1="-5098.35" y1="107.93" x2="-5034.89" y2="82.9" gradientTransform="matrix(-1, 0, 0, 1, -5040.91, 0)" gradientUnits="userSpaceOnUse"><stop offset="0" stop-color="#8e4dd7"/><stop offset="0.24" stop-color="#9753e4"/><stop offset="0.69" stop-color="#a55cf8"/><stop offset="1" stop-color="#aa5fff"/></linearGradient><linearGradient id="linear-gradient-13" x1="-5120" y1="74.91" x2="-5120.65" y2="76.05" gradientTransform="matrix(-1, 0, 0, 1, -5040.91, 0)" gradientUnits="userSpaceOnUse"><stop offset="0" stop-color="#bdc5c7"/><stop offset="1" stop-color="#9ea4a6"/></linearGradient><linearGradient id="linear-gradient-14" x1="-5149.36" y1="58.06" x2="-5150.02" y2="59.2" xlink:href="#linear-gradient-13"/><linearGradient id="linear-gradient-15" x1="-5245.66" y1="-191.43" x2="-5245.66" y2="-182.91" gradientTransform="matrix(-1, -0.08, -0.08, 1, -5108.44, -192.95)" xlink:href="#linear-gradient"/><linearGradient id="linear-gradient-16" x1="-5241.18" y1="-192.72" x2="-5247.32" y2="-187.08" gradientTransform="matrix(-1, -0.08, -0.08, 1, -5108.44, -192.95)" xlink:href="#linear-gradient-2"/><linearGradient id="linear-gradient-17" x1="-5241.46" y1="-192.5" x2="-5247.12" y2="-187.29" gradientTransform="matrix(-1, -0.08, -0.08, 1, -5108.44, -192.95)" xlink:href="#linear-gradient-3"/></defs><title>2</title><g class="cls-2"><g id="Capa_2" data-name="Capa 2"><g id="personajes"><g id="_2" data-name="2"><path class="cls-3" d="M81.16,6.78c.66-.44,8,1.71,8,2.45,0,1.39-2.29,3-2.8,3.12-1.3.2-4-1.42-4.32-1.7a5.42,5.42,0,0,1-1.6-3C80.43,7.35,81,6.88,81.16,6.78Z"/><path class="cls-4" d="M80.61,7.28c.64-.43,7.76,1.74,7.78,2.46a3.22,3.22,0,0,1-2.14,2.62c-1.29.2-4.47-1-4.79-1.27C80.86,10.57,80,7.71,80.61,7.28Z"/><path class="cls-5" d="M86.2,12.05C86.51,12,88.05,11,88,9.78c-.41-.58-6.46-2.45-7.27-2.24a.76.76,0,0,0-.06.33,5.61,5.61,0,0,0,1,3C81.93,11.08,85,12.24,86.2,12.05Z"/><path class="cls-6" d="M166.57,35.11,169,37.32c2,1.15,1.64,4.38.06,7L126.51,19.55c-.2-3.32-2.87-6.39-4.85-7.54Z"/><path class="cls-6" d="M85,87.41l.57,2.46c2,1.15,1.17,4.49-.26,6.55L72,88.69,42.76,70.78c-.19-3.35-2.86-6.43-4.85-7.58Z"/><path class="cls-7" d="M68.38,84.94c2.66-1.53,5.07-1.67,6.81-.66l5.16,3h0c1.73,1,2.8,3.12,2.81,6.14,0,6.08-4.42,13.2-9.71,16.25-3,1.73-4.85,1.73-6.61,1l-5.2-3c-1.72-1-2.79-3.12-2.8-6.13C58.82,95.42,63.11,88,68.38,84.94Z"/><path class="cls-8" d="M73.56,87.87c5.28-3.05,9.59-.58,9.6,5.48s-4.26,13.48-9.54,16.53-9.59.6-9.61-5.48S68.28,90.92,73.56,87.87Z"/><path class="cls-9" d="M73.56,90c4.26-2.46,7.73-.49,7.74,4.39s-3.43,10.86-7.69,13.32-7.71.47-7.72-4.42A17,17,0,0,1,73.56,90Z"/><g class="cls-10"><path class="cls-11" d="M73,90.78c3.72-2.15,6.75-.43,6.76,3.84a14.82,14.82,0,0,1-6.72,11.63c-3.71,2.14-6.74.42-6.75-3.86A14.8,14.8,0,0,1,73,90.78Z"/><path class="cls-12" d="M65.44,102.18c0,2.2.78,3.75,2,4.48l.73.43-.23-.16c1.29.89,3.14.86,5.2-.33a15.37,15.37,0,0,0,7-12.07c0-2.21-.79-3.76-2.06-4.48h0l-.73-.42c-1.27-.74-3-.64-5,.48A15.35,15.35,0,0,0,65.44,102.18ZM79,93.74l-.4.46-3.64,2a1.16,1.16,0,0,1,.13-.4l2.6-4.66.28-.27A5.1,5.1,0,0,1,79,93.74Zm-3.49,3a.43.43,0,0,1-.18.06A.43.43,0,0,0,75.52,96.71Zm1.57,3.53-2-1.23c-.16-.1-.19-.36-.11-.65v0a1.35,1.35,0,0,1,.51-.73L79,95.54a13.77,13.77,0,0,1-1.48,4.62ZM73.51,105l.08-4a1.33,1.33,0,0,1,.36-.79l0,0a1.46,1.46,0,0,1,.25-.2.41.41,0,0,1,.38,0l2.05,1,.12.34A14,14,0,0,1,73.51,105ZM73.4,91.31l.2-.57a5.32,5.32,0,0,1,3-.62l-.08.35L73.8,95.08a1.31,1.31,0,0,1-.29.32Zm-.65-.53Zm-4.21,5.69,1.94,1.22a.72.72,0,0,1,.08.67v0a1.32,1.32,0,0,1-.51.73l-3.41,2.07a14.15,14.15,0,0,1,1.49-4.63Zm3.54-4.78-.08,4a1.3,1.3,0,0,1-.36.79l0,0a.88.88,0,0,1-.25.2.58.58,0,0,1-.45.07h0l-2-1-.14-.41A14,14,0,0,1,72.08,91.69ZM69,106.59l.08-.34,2.76-4.62a1.12,1.12,0,0,1,.29-.32l.11,4.09L72,106A5.19,5.19,0,0,1,69,106.59ZM66.58,103l.39-.46,3.65-2a1.07,1.07,0,0,1-.14.4l-2.6,4.67-.27.26A5,5,0,0,1,66.58,103Z"/><path class="cls-13" d="M66.16,102.61c0,4.43,3.17,6.22,7,4a15.37,15.37,0,0,0,7-12.07c0-4.43-3.16-6.22-7-4A15.39,15.39,0,0,0,66.16,102.61Zm2.38-6.14,2.64,1.66c.15.1.19.36.1.65v0a1.23,1.23,0,0,1-.51.73L67,101.84h-.39a13.38,13.38,0,0,1,1.54-5.28Zm4.27-4.82-.08,4.44a1.24,1.24,0,0,1-.37.79v0a1.16,1.16,0,0,1-.25.21.43.43,0,0,1-.39,0L69,95.75l-.14-.41a13.59,13.59,0,0,1,3.79-4Zm6.92,2.52-.39.46-3.82,2.08a.33.33,0,0,1-.5-.12v0a.9.9,0,0,1,.09-.78l2.6-4.66.43-.41A4.55,4.55,0,0,1,79.73,94.17Zm-2,6.5L75.14,99c-.16-.1-.19-.36-.11-.65v0a1.35,1.35,0,0,1,.51-.73l3.79-2.3h.4a13.35,13.35,0,0,1-1.55,5.28Zm-4.27,4.82.09-4.45a1.33,1.33,0,0,1,.36-.79l0,0a1.46,1.46,0,0,1,.25-.2.41.41,0,0,1,.38,0l2.76,1.41.14.41a13.68,13.68,0,0,1-3.79,4Zm-.1-14.18.2-.57a4.67,4.67,0,0,1,3.82-.41l-.13.56-2.77,4.62a1.12,1.12,0,0,1-.37.38.59.59,0,0,1-.24.09h0c-.22,0-.37-.11-.38-.37Zm-.24,14.86,0,0h0Zm0-15.18h0Zm-4.23,15.82.14-.56,2.76-4.62a1.1,1.1,0,0,1,.38-.39.75.75,0,0,1,.24-.08h0c.21,0,.37.1.37.37l.11,4.3-.2.57A4.67,4.67,0,0,1,68.89,106.81ZM66.58,103l.39-.46,3.82-2.08a.33.33,0,0,1,.51.12v0a.87.87,0,0,1-.09.78L68.61,106l-.42.4A4.53,4.53,0,0,1,66.58,103Z"/><path class="cls-14" d="M73.18,96.73a3.49,3.49,0,0,0-1.58,2.75c0,1,.72,1.41,1.59.9a3.48,3.48,0,0,0,1.59-2.74C74.77,96.63,74.06,96.22,73.18,96.73Z"/><path class="cls-15" d="M73,100.25a3.5,3.5,0,0,0,1.58-2.74,1.22,1.22,0,0,0-.33-.91,1.11,1.11,0,0,1,.51,1,3.48,3.48,0,0,1-1.59,2.74,1,1,0,0,1-1.27,0A1.16,1.16,0,0,0,73,100.25Z"/></g><path class="cls-16" d="M152.69,36.19c2.66-1.54,5.07-1.68,6.81-.67l5.16,3h0c1.73,1,2.8,3.12,2.81,6.14,0,6.08-4.42,13.2-9.71,16.26-3,1.73-4.85,1.73-6.61.95l-5.2-3c-1.72-1-2.79-3.12-2.8-6.13C143.13,46.66,147.42,39.23,152.69,36.19Z"/><path class="cls-8" d="M157.87,39.11c5.28-3,9.59-.58,9.6,5.48s-4.25,13.48-9.54,16.53-9.59.6-9.61-5.47S152.59,42.16,157.87,39.11Z"/><path class="cls-9" d="M157.88,41.28c4.26-2.46,7.72-.49,7.74,4.39A17,17,0,0,1,157.93,59c-4.25,2.45-7.71.48-7.73-4.42A16.93,16.93,0,0,1,157.88,41.28Z"/><g class="cls-17"><path class="cls-11" d="M157.32,42c3.72-2.15,6.75-.42,6.76,3.84a14.82,14.82,0,0,1-6.72,11.64c-3.71,2.14-6.74.41-6.75-3.87A14.8,14.8,0,0,1,157.32,42Z"/><path class="cls-12" d="M149.75,53.43c0,2.2.78,3.75,2,4.48l.73.42-.23-.16c1.29.9,3.14.87,5.2-.32a15.38,15.38,0,0,0,7-12.07c0-2.21-.79-3.76-2.05-4.49h0l-.73-.42c-1.27-.74-3-.64-5,.48A15.38,15.38,0,0,0,149.75,53.43ZM163.32,45l-.4.46-3.64,2a1.25,1.25,0,0,1,.13-.4l2.6-4.67.28-.27A5.07,5.07,0,0,1,163.32,45Zm-3.48,3a.38.38,0,0,1-.19.06A.38.38,0,0,0,159.84,48Zm1.56,3.53-2-1.23c-.16-.1-.19-.36-.11-.65v0a1.32,1.32,0,0,1,.51-.73l3.41-2.07a14,14,0,0,1-1.49,4.62Zm-3.58,4.78.08-4a1.28,1.28,0,0,1,.36-.79l0,0a1.16,1.16,0,0,1,.25-.21.41.41,0,0,1,.38-.05L161,52.27l.12.35A14,14,0,0,1,157.82,56.26Zm-.11-13.7.2-.58a5.22,5.22,0,0,1,3-.61l-.08.34-2.76,4.62a1.24,1.24,0,0,1-.29.31Zm-.65-.54Zm-4.21,5.69,1.94,1.22a.7.7,0,0,1,.08.67v0a1.32,1.32,0,0,1-.51.73L151,52.42a13.89,13.89,0,0,1,1.48-4.63Zm3.54-4.77-.08,4a1.28,1.28,0,0,1-.36.79l0,0a1.16,1.16,0,0,1-.25.21.53.53,0,0,1-.45.06h0l-1.95-1-.14-.41A13.82,13.82,0,0,1,156.39,42.94Zm-3.13,14.89.08-.34,2.76-4.61a1.35,1.35,0,0,1,.29-.33l.11,4.1-.21.57A5.18,5.18,0,0,1,153.26,57.83Zm-2.37-3.62.4-.45,3.64-2a1.18,1.18,0,0,1-.14.41l-2.59,4.66-.28.27A5.17,5.17,0,0,1,150.89,54.21Z"/><path class="cls-18" d="M150.48,53.85c0,4.43,3.16,6.22,7,4a15.38,15.38,0,0,0,7-12.07c0-4.44-3.16-6.23-7-4A15.34,15.34,0,0,0,150.48,53.85Zm2.37-6.14,2.64,1.66c.16.1.19.36.1.65v0a1.2,1.2,0,0,1-.51.72l-3.79,2.31h-.39a13.43,13.43,0,0,1,1.54-5.28Zm4.28-4.82L157,47.33a1.33,1.33,0,0,1-.36.8h0a1.16,1.16,0,0,1-.25.21.41.41,0,0,1-.38,0L153.27,47l-.14-.41a13.43,13.43,0,0,1,3.79-4Zm6.92,2.52-.4.46L159.84,48a.33.33,0,0,1-.51-.12v0a.91.91,0,0,1,.09-.77l2.6-4.67.43-.4A4.53,4.53,0,0,1,164.05,45.41Zm-2,6.5-2.64-1.66c-.16-.1-.19-.36-.11-.65v0a1.32,1.32,0,0,1,.51-.73l3.79-2.31h.4a13.4,13.4,0,0,1-1.55,5.28Zm-4.28,4.82.09-4.44a1.28,1.28,0,0,1,.36-.79l0,0a1.16,1.16,0,0,1,.25-.21.41.41,0,0,1,.38-.05l2.76,1.41.14.41a13.72,13.72,0,0,1-3.79,4Zm-.1-14.17.2-.58a4.67,4.67,0,0,1,3.82-.41l-.13.56-2.77,4.62a1.07,1.07,0,0,1-.37.39.75.75,0,0,1-.24.08h0c-.22,0-.37-.11-.38-.37Zm-.24,14.85,0,0h0Zm0-15.17,0,0h0Zm-4.22,15.81.13-.56,2.76-4.61a1.09,1.09,0,0,1,.38-.39.59.59,0,0,1,.24-.09h0c.21,0,.37.11.37.37l.12,4.3-.21.57A4.65,4.65,0,0,1,153.21,58.05Zm-2.32-3.84.4-.45,3.81-2.09c.23-.12.42-.07.51.12v0a.91.91,0,0,1-.1.78l-2.6,4.66-.42.41A4.56,4.56,0,0,1,150.89,54.21Z"/><path class="cls-14" d="M157.49,48a3.5,3.5,0,0,0-1.58,2.75c0,1,.72,1.41,1.59.9a3.48,3.48,0,0,0,1.59-2.74C159.08,47.87,158.37,47.46,157.49,48Z"/><path class="cls-15" d="M157.33,51.5a3.53,3.53,0,0,0,1.58-2.75,1.2,1.2,0,0,0-.33-.9,1.07,1.07,0,0,1,.51,1,3.48,3.48,0,0,1-1.59,2.74,1,1,0,0,1-1.27,0A1.15,1.15,0,0,0,157.33,51.5Z"/></g><path class="cls-19" d="M95.59,80l37.78-22.27,12.47.06a22.48,22.48,0,0,0,.67,3.25L85.34,96.44V92.58Z"/><path class="cls-20" d="M0,84.39l.13,4c-.43,3.57,28.77,21.09,41.31,25.47a6.48,6.48,0,0,0,4.59,0L62.12,106c.42-7.41,5.47-15.9,11.58-19.43l.38-.21c6-3.26,10.86-.42,11.24,6.32l60.54-34.83c.3-7.47,5.41-16.14,11.6-19.71l.39-.22c6-3.24,10.82-.42,11.23,6.29v.11l.55-.32c2.7-1.56,5.48-5.07,4.91-8.14a2.54,2.54,0,0,0-.76-1.61c-.24-.18-.41-.29-.41-.29,0-.16,0-.35,0-.56a23.81,23.81,0,0,0-9.28-17.58,78.8,78.8,0,0,0-11-6.8,21.37,21.37,0,0,0-5.67-2.27,42.19,42.19,0,0,0-6.8-1c-1.68-.08-3.09-1-4.71-1.43s-3.26-.4-4.86-1a35,35,0,0,0-7.9-2.17C121.59,1.1,120.35,0,118.72,0a26.49,26.49,0,0,0-4.64.86c-3.53.75-7,1.7-10.44,2.79A136,136,0,0,0,90.37,8.54c-.49.21-11,.86-15.5,1.54A13.81,13.81,0,0,0,70,11.81L41.69,28.11a14.61,14.61,0,0,0-2.94,2.25C33.62,35.48,19.2,51,19.2,51L5.35,61.12A5.45,5.45,0,0,0,3.14,65c-.5,4.84-.2,15.58-.2,15.58S0,82.48,0,84.39Zm30.36-36A34.94,34.94,0,0,1,39.2,34.32a41.36,41.36,0,0,0,7.93,6.19Z"/><path class="cls-21" d="M85.22,91.75,134.8,63.19s-.62-15.08-.82-18.29c-.11-1.67-2.32-8.23-2.37-8.36l-.73.2s2.23,6.07,2.36,8.54c.16,3,.86,16.62.75,17.53L104,80.23V60.66l-2.61-7.08-.53.34,2.55,7.18V80.56L85.12,91.12A6.37,6.37,0,0,1,85.22,91.75Z"/><path class="cls-21" d="M69.93,71.94l1.35,5V88.31l-.57.5,0-11.45-1.32-5.08Z"/><path class="cls-22" d="M164.07,15.88c-.8-.6-1.59-1.16-2.39-1.71-.47-.33-1-.64-1.45-1l-1-.63c-.54-.34-1.1-.67-1.66-1l-1-.57-1.5-.85c-.45-.25-.9-.5-1.36-.74l-1.15-.61C151.34,8.14,149.46,7,148,6.93s-3,.83-4.65.75-2.77.91-4.37,1.17-2.81-1-4.19-1.33-2.47.2-3.71,0C130,7.25,129.29,6.28,128.28,6c-1.4-.36-2.07.38-3.31-.62a15.43,15.43,0,0,0-2.5-1.88c-.44-.23-.94-.28-1.28-.62s-.42-1-.73-1.36c-1.47-1.91-5.1-1-7-.54-1.52.34-3,.69-4.54,1.1l-.26.07c-1.52.41-3,.86-4.53,1.33-.26.08-.52.15-.77.24-1.93.61-3.84,1.26-5.75,2l-1.34.49c-2,.74-4,1.51-5.89,2.35-.49.21-11,.86-15.5,1.54A13.81,13.81,0,0,0,70,11.81L41.69,28.11a14.61,14.61,0,0,0-2.94,2.25C33.62,35.48,19.2,51,19.2,51L5.35,61.12a4.9,4.9,0,0,0-1,1l-.09.12a5.38,5.38,0,0,0-.67,1.16c2.2,5.11,21.88,19,34.69,23.88a8.8,8.8,0,0,0,6.65-.12c5.75-2.51,8.92-6.74,11.91-11.44,1.81-2.47,9.14-15,13-21.63a10.31,10.31,0,0,1,3.47-3.6c6.79-4.26,27.6-16.39,32.83-19.35a3,3,0,0,1,1.76-.37c3.47.32,16,1.49,25.52,2.66,5.24.64,11.55,1.6,19.14-2.36C157.42,28.52,168.28,21.1,164.07,15.88ZM69.84,51.64,57.49,71.1a4,4,0,0,1-4.44,1.71c-9.34-2.55-24.56-9.37-31-18.36a2.24,2.24,0,0,1,.05-2.61A166.56,166.56,0,0,1,38.32,33.5c.25.29.55.58.83.86l.05,0c.45.47.95.94,1.45,1.4l.51.44c.37.33.76.65,1.17,1l.58.46c.56.43,1.15.86,1.78,1.3l.23.16c.7.48,1.42,1,2.2,1.46A128.83,128.83,0,0,0,69.84,51.64Z"/><path class="cls-23" d="M131.41,36.23,69.22,72.05c0-6.52,4.38-19.33,9.72-22.76C85.69,45,100.19,36.48,105.6,33.35a3.43,3.43,0,0,1,2.13-.43C112.45,33.51,130.34,35.78,131.41,36.23Z"/><path class="cls-23" d="M93.88,9.65c4.82.94,22.81,5.63,39.1,22.51l-25.13-2.71C88.71,14.34,75.68,11,75.68,11,79.71,10.37,93.28,9.53,93.88,9.65Z"/><path class="cls-24" d="M53.05,72.81c-9.34-2.55-24.56-9.37-31-18.36a2.24,2.24,0,0,1,.05-2.61A166.56,166.56,0,0,1,38.32,33.5c5.9,6.64,22.37,14.93,31.52,18.14L57.49,71.1A4,4,0,0,1,53.05,72.81Z"/><path class="cls-25" d="M2.94,80.55s0-1,0-2.64c0-1.27,0-2.89,0-4.59,0-.43,0-.86,0-1.29,0-1.73.05-3.49.13-5,0-.76.09-1.45.15-2.06a6.44,6.44,0,0,1,.21-1l.12-.33c0-.09.08-.18.12-.27,2.17,5.06,21,18.7,33.63,23.64a16.53,16.53,0,0,0,12.44-.13c23.86-10,115.56-54.51,117.85-66.14.07-.49.15-.94.23-1.38l0,.06a23.94,23.94,0,0,1,5.54,14c0,.21,0,.4,0,.56,0,0,.17.11.41.29a2.54,2.54,0,0,1,.76,1.61c.57,3.07-2.21,6.58-4.91,8.14l-.55.32v-.11c-.41-6.71-5.2-9.53-11.23-6.29l-.39.22c-6.19,3.57-11.3,12.24-11.6,19.71L85.32,92.72c-.38-6.74-5.19-9.58-11.24-6.32-.13.06-.25.14-.38.21-6.11,3.53-11.16,12-11.58,19.43L46,113.84a6.48,6.48,0,0,1-4.59,0C28.9,109.44-.3,91.92.13,88.35l-.13-4C0,82.48,2.94,80.55,2.94,80.55Z"/><path class="cls-26" d="M126.27,35.77l-5.11-.72L110.93,33.7l-2.56-.33a3.66,3.66,0,0,0-2.33.16c-1.43.81-2.94,1.74-4.41,2.6l-8.87,5.28L83.89,46.7l-4.44,2.64a12,12,0,0,0-3.53,3.53,35.38,35.38,0,0,0-4.38,9.2A42.32,42.32,0,0,0,70.22,67a26.05,26.05,0,0,0-.59,5h0L69,71.69l61.21-35.26C129,36.2,127.57,36,126.27,35.77Zm5.55.26a.38.38,0,0,1-.15.52l0,0L69.43,72.4h0a.39.39,0,0,1-.21.06.4.4,0,0,1-.39-.42h0a25.68,25.68,0,0,1,.65-5.19,41.45,41.45,0,0,1,1.39-5A36.36,36.36,0,0,1,75.4,52.5a12.86,12.86,0,0,1,3.74-3.68l4.43-2.65,8.85-5.32,8.84-5.31c1.5-.89,2.91-1.77,4.48-2.66a4.43,4.43,0,0,1,2.72-.23L111,33l10.25,1.32,5.11.69c1.74.27,3.35.43,5.19.87A.43.43,0,0,1,131.82,36Z"/><path class="cls-26" d="M56.17,71.89a3.77,3.77,0,0,0,1.07-1.17l.95-1.48L62,63.31l7.57-11.86.18.52a133.77,133.77,0,0,1-17.37-8c-2.56-1.41-5.1-2.89-7.52-4.55-1.22-.82-2.41-1.69-3.55-2.62-.59-.45-1.13-1-1.68-1.45S38.55,34.29,38,33.77l.59,0C35,37.52,31.37,41.22,28,45.16c-1.68,2-3.32,4-4.87,6l-.58.78a2.09,2.09,0,0,0-.38.72,1.77,1.77,0,0,0,.25,1.51l1.16,1.49c.42.49.86.95,1.29,1.43a36.74,36.74,0,0,0,2.81,2.62c1,.83,2,1.6,3.07,2.34a80.82,80.82,0,0,0,8,4.67,74.87,74.87,0,0,0,14.4,5.64A3.63,3.63,0,0,0,56.17,71.89ZM38.38,67.52a82,82,0,0,1-8.11-4.73,38,38,0,0,1-3.13-2.39,36.4,36.4,0,0,1-2.88-2.68c-.44-.49-.9-1-1.32-1.47l-1.23-1.58a2.59,2.59,0,0,1-.35-2.2,2.7,2.7,0,0,1,.51-1l.59-.78c1.56-2.09,3.21-4.11,4.9-6.09,3.4-4,7-7.71,10.67-11.38h0a.41.41,0,0,1,.58,0h0c.51.51,1,1.06,1.51,1.54s1.06,1,1.63,1.44q1.66,1.38,3.47,2.62a84.07,84.07,0,0,0,7.42,4.59A133.34,133.34,0,0,0,70,51.3l.07,0a.35.35,0,0,1,.11.49l-7.5,11.9-3.75,6-.94,1.49a4.45,4.45,0,0,1-5,2A76.13,76.13,0,0,1,38.38,67.52Z"/><path class="cls-26" d="M92.75,10l-1.14,0-2.27.11-4.55.27c-3,.22-6.08.39-9.08.76v-.29h0a49.29,49.29,0,0,1,8.34,3.23c2.7,1.28,5.31,2.73,7.87,4.25s5,3.18,7.5,4.86,6.21,4.21,8.56,6l-.12-.05h0l12.57,1.26L133,31.82l-.29.58h0c-1.33-1.27-2.57-2.62-4-3.82l-2.05-1.84L124.59,25c-.7-.59-1.44-1.14-2.18-1.68S121,22.2,120.18,21.7l-2.28-1.54L114.16,18c-.77-.49-1.59-.9-2.39-1.35s-1.62-.86-2.44-1.27c-1.64-.82-3.32-1.57-5-2.25A58.28,58.28,0,0,0,93.81,10C93.56,10,93.1,10,92.75,10Zm11.82,2.54c1.72.68,3.41,1.43,5.06,2.27.83.41,1.66.81,2.47,1.28s1.63.87,2.41,1.36l3.76,2.15,2.3,1.54c.78.51,1.5,1.09,2.25,1.63s1.49,1.1,2.2,1.69l2.14,1.76,2.07,1.85c1.4,1.21,2.65,2.58,4,3.86h0a.36.36,0,0,1,.09.29.34.34,0,0,1-.38.29l-12.56-1.35-12.55-1.46h0a.21.21,0,0,1-.12-.05l-3.54-2.71-5-3.31c-2.43-1.69-4.89-3.37-7.44-4.89s-5.13-3-7.8-4.3a49.58,49.58,0,0,0-8.26-3.26h0a.17.17,0,0,1-.11-.12.15.15,0,0,1,.12-.18c3-.49,6-.75,9.09-1l4.55-.34,2.28-.14,1.15-.06a11.68,11.68,0,0,1,1.21,0A59.51,59.51,0,0,1,104.57,12.53Z"/><path class="cls-26" d="M93.88,9.65c4.82.94,22.81,5.63,39.1,22.51l-3-.29C114.87,15.62,91.74,9.72,91.74,9.72,92.53,9.69,93.77,9.63,93.88,9.65Z"/><path class="cls-27" d="M38.79,107.27C28.62,103.83,7.4,90.58.09,83.85c.42-1.59,2.48-3,2.78-3.25,6.38,9.48,35.5,25.09,42.1,25.09,1.88,0,14.12-3.85,14.12-3.85s-10.11,4.6-13,5.49A11.91,11.91,0,0,1,38.79,107.27Z"/><path class="cls-28" d="M43.37,91.47Z"/><path class="cls-28" d="M35.46,89.89c.19-.67.76-.79,1.42-.56,1.06.38,4.43,1.92,6.74,1.85a2.05,2.05,0,0,1,1.38.39,18.78,18.78,0,0,1,4.64,5.7c.29.79-2.85,1.61-3.26,1.73a11,11,0,0,1-6.86-.72C38,97.68,35,96.16,35,94.14A21.27,21.27,0,0,1,35.46,89.89Z"/><path class="cls-28" d="M8.26,73c-.09-1.1-1.33-1.81-2.32-2.73a17.34,17.34,0,0,1-3-3.18c-.41.35-.7,6.84-.2,7.73.93,1.66,3.92,3.74,4.56,2.92C8.12,76.77,8.39,74.63,8.26,73Z"/><path class="cls-29" d="M13.21,84A99,99,0,0,0,27.6,92.43l2.88-7.11C22,80.62,15.74,76.66,11.89,73.38Z"/><path class="cls-30" d="M12.65,74l1.21,9.67A101.67,101.67,0,0,0,27.8,91.94l-.2.49A99,99,0,0,1,13.21,84L11.89,73.38Z"/><path class="cls-31" d="M27.5,83.63v4.58L15.86,81.36v-4.9C18.54,78.39,23.2,81.16,27.5,83.63Z"/><path class="cls-32" d="M168.6,20.29c0,.15.26,1.88-1.82,4.44a2.36,2.36,0,0,0,1.71,4,4,4,0,0,0,3.21-2.78C172,24.14,170.2,20.56,168.6,20.29Z"/><path class="cls-33" d="M166.78,24.73a9.35,9.35,0,0,0,1-1.49A11.26,11.26,0,0,0,170.12,28a3.28,3.28,0,0,1-1.63.67A2.36,2.36,0,0,1,166.78,24.73Z"/><path class="cls-34" d="M78.64,78.2l1.54-.89a2,2,0,0,0,1-1.5v-2c0-.53-.43-.71-1-.4l-1.54.88a2,2,0,0,0-1,1.51v2C77.69,78.33,78.11,78.51,78.64,78.2Z"/><path class="cls-35" d="M77.42,77.39l4-2.3a1.57,1.57,0,0,0,.76-1.19h0c0-.42-.34-.57-.76-.33l-4,2.31a1.56,1.56,0,0,0-.76,1.19h0C76.66,77.49,77,77.64,77.42,77.39Z"/><path class="cls-34" d="M108,61.35l1.54-.89a2,2,0,0,0,1-1.51V57c0-.53-.43-.71-1-.4l-1.54.88a2,2,0,0,0-1,1.51v2C107.05,61.47,107.48,61.66,108,61.35Z"/><path class="cls-36" d="M106.79,60.54l4-2.3a1.57,1.57,0,0,0,.76-1.2h0c0-.41-.34-.56-.76-.32l-4,2.3a1.59,1.59,0,0,0-.76,1.2h0C106,60.64,106.37,60.78,106.79,60.54Z"/><polygon class="cls-26" points="93.88 40.47 96.94 38.46 102.52 52.87 99.36 54.74 93.88 40.47"/><polygon class="cls-26" points="72.85 57.75 73.71 56.1 78.08 67.17 76.92 67.86 72.85 57.75"/><path class="cls-26" d="M132.12,39.1l-2.48-1.34A7,7,0,0,0,126.51,35l5.91.48Z"/><path class="cls-37" d="M132.87,34.67c.8-.21,6.95,4.3,6.82,5-.26,1.38-2.66,2.52-3.15,2.48-1.29-.1-3.59-2.6-3.86-3-.4-.6-1.2-2.83-.85-3.88C131.93,35,132.69,34.72,132.87,34.67Z"/><path class="cls-38" d="M132.14,35c.81-.21,7,4.3,6.82,5a3.1,3.1,0,0,1-2.49,2.16c-1.29-.11-4.24-2.28-4.51-2.69C131.45,38.71,131.3,35.21,132.14,35Z"/><path class="cls-39" d="M136.49,41.83A2.87,2.87,0,0,0,138.63,40c-.23-.69-5.5-4.55-6.42-4.62a.68.68,0,0,0-.16.33,6.61,6.61,0,0,0,.2,3.63C132.47,39.62,135.33,41.73,136.49,41.83Z"/><path class="cls-40" d="M100.25,8.28a35.9,35.9,0,0,1,3.82-1.66c.8-.34,1.7-.6,2.63-.93s1.94-.62,3-.9c2.08-.58,4.33-1.07,6.59-1.5,1.59-.28,3.17-.51,4.73-.7a3.55,3.55,0,0,0,.86.51c-1.78.23-3.62.51-5.47.86-2.25.4-4.49.86-6.56,1.41-1,.27-2,.51-3,.8S105,6.68,104.2,7L102,7.73l-1.69.65L98.82,9Z"/><path class="cls-41" d="M157,14a6.46,6.46,0,0,1-.47,1.18,14.73,14.73,0,0,1-1.83,2.78,19.75,19.75,0,0,1-1.48,1.67c-.58.53-1.16,1.12-1.83,1.67a24.9,24.9,0,0,1-2.11,1.61A26,26,0,0,1,147,24.35c-.77.5-1.59.93-2.39,1.35a26.42,26.42,0,0,1-2.39,1.18c-.79.34-1.53.74-2.28,1l-2.08.84c-1.29.51-2.39.88-3.15,1.17l-1.2.44L134.7,30c.78-.23,1.93-.46,3.25-.92l2.14-.74a24.18,24.18,0,0,0,2.33-.94,27,27,0,0,0,2.45-1.15,27.86,27.86,0,0,0,2.45-1.34,26.74,26.74,0,0,0,2.32-1.55,22.44,22.44,0,0,0,2.12-1.69,21.93,21.93,0,0,0,1.82-1.77c.51-.62,1-1.19,1.42-1.78a12.5,12.5,0,0,0,1.62-3A6.3,6.3,0,0,0,157,14Z"/></g></g></g></g></svg>