<svg xmlns="http://www.w3.org/2000/svg" xmlns:xlink="http://www.w3.org/1999/xlink" viewBox="0 0 88.54 62.38"><defs><style>.cls-1{isolation:isolate;}.cls-2{fill:#a5a5a7;opacity:0.78;}.cls-18,.cls-2,.cls-20,.cls-4{mix-blend-mode:multiply;}.cls-3{fill:#67bacd;}.cls-18,.cls-20,.cls-4{opacity:0.58;}.cls-4{fill:url(#linear-gradient);}.cls-5{fill:#6496a1;}.cls-6{fill:#85c8d7;}.cls-7{opacity:0.7;}.cls-8{fill:#21565c;}.cls-9{fill:#66bfc6;}.cls-10{fill:#4d8f95;}.cls-11{fill:#6d8895;}.cls-12{fill:#c0d5de;}.cls-13{fill:#569095;}.cls-14{fill:#73c0c6;}.cls-15{fill:#6c787d;}.cls-16{fill:#24282a;}.cls-17,.cls-19,.cls-21{opacity:0.75;mix-blend-mode:soft-light;}.cls-17{fill:url(#linear-gradient-2);}.cls-18{fill:url(#linear-gradient-3);}.cls-19{fill:url(#linear-gradient-4);}.cls-20{fill:url(#linear-gradient-5);}.cls-21{fill:url(#linear-gradient-6);}</style><linearGradient id="linear-gradient" x1="72.62" y1="49.85" x2="88.04" y2="49.85" gradientUnits="userSpaceOnUse"><stop offset="0.02" stop-color="#dbf4f8"/><stop offset="0.05" stop-color="#b8e0e6"/><stop offset="0.09" stop-color="#91cad2"/><stop offset="0.13" stop-color="#72b8c1"/><stop offset="0.17" stop-color="#59aab4"/><stop offset="0.22" stop-color="#48a0ab"/><stop offset="0.27" stop-color="#3d9aa6"/><stop offset="0.33" stop-color="#3a98a4"/><stop offset="0.42" stop-color="#3e9aa6"/><stop offset="0.52" stop-color="#4ba1ac"/><stop offset="0.61" stop-color="#5facb5"/><stop offset="0.71" stop-color="#7cbbc3"/><stop offset="0.81" stop-color="#a2ced4"/><stop offset="0.91" stop-color="#cfe6e9"/><stop offset="1" stop-color="#fff"/></linearGradient><linearGradient id="linear-gradient-2" x1="74.93" y1="39.17" x2="79.22" y2="39.17" gradientUnits="userSpaceOnUse"><stop offset="0" stop-color="#fff"/><stop offset="1" stop-color="#89b3c6"/></linearGradient><linearGradient id="linear-gradient-3" x1="42.27" y1="34.4" x2="57.69" y2="34.4" xlink:href="#linear-gradient"/><linearGradient id="linear-gradient-4" x1="44.58" y1="23.72" x2="48.87" y2="23.72" xlink:href="#linear-gradient-2"/><linearGradient id="linear-gradient-5" x1="14.7" y1="16.95" x2="30.12" y2="16.95" xlink:href="#linear-gradient"/><linearGradient id="linear-gradient-6" x1="17.01" y1="6.27" x2="21.3" y2="6.27" xlink:href="#linear-gradient-2"/></defs><title>Recurso 44</title><g class="cls-1"><g id="Capa_2" data-name="Capa 2"><g id="personajes"><path class="cls-2" d="M70.31,51.93H82.65l-2.2,10.44h-19a3.5,3.5,0,0,1-1.9-6.43l2.36-1.52A15.56,15.56,0,0,1,70.31,51.93Z"/><path class="cls-3" d="M75.83,61.41l3.55.68,4-.16,3.38-1.48L88,58.58v-.12h0V37.66a.37.37,0,0,1,0,.11A870746358307.13,870746358307.13,0,0,1,88,38a.3.3,0,0,1,0,.1.5.5,0,0,1,0,.12s0,.07,0,.1,0,.08,0,.11l0,.1,0,.12,0,.1a.54.54,0,0,1,0,.11l0,.1-.06.11-.06.1-.07.11-.07.09a1,1,0,0,1-.08.11l-.08.09a.48.48,0,0,1-.09.11l-.08.09-.11.11L86.9,40l-.12.1a.39.39,0,0,1-.1.08l-.13.11-.09.08-.15.1-.1.08-.18.11-.09.06-.28.16a12,12,0,0,1-10.9-.11l-.26-.16-.08-.06-.17-.11-.09-.08-.13-.1-.09-.08-.13-.1L73.73,40l-.11-.1-.08-.09-.1-.1-.07-.09-.09-.11-.06-.09a.44.44,0,0,1-.08-.11l-.06-.09a.39.39,0,0,1-.06-.11L73,39a.54.54,0,0,1,0-.11l0-.1s0-.07,0-.11a.36.36,0,0,1,0-.09s0-.08,0-.11l0-.1s0-.07,0-.11l0-.1a.43.43,0,0,1,0-.11s0-.07,0-.1a.37.37,0,0,0,0-.11V58.51c0,.06,0,.14,0,.21L74,60.23Z"/><path class="cls-4" d="M75.83,61.41l3.55.68,4-.16,3.38-1.48L88,58.58v-.12h0V37.66a.37.37,0,0,1,0,.11A870746358307.13,870746358307.13,0,0,1,88,38a.3.3,0,0,1,0,.1.5.5,0,0,1,0,.12s0,.07,0,.1,0,.08,0,.11l0,.1,0,.12,0,.1a.54.54,0,0,1,0,.11l0,.1-.06.11-.06.1-.07.11-.07.09a1,1,0,0,1-.08.11l-.08.09a.48.48,0,0,1-.09.11l-.08.09-.11.11L86.9,40l-.12.1a.39.39,0,0,1-.1.08l-.13.11-.09.08-.15.1-.1.08-.18.11-.09.06-.28.16a12,12,0,0,1-10.9-.11l-.26-.16-.08-.06-.17-.11-.09-.08-.13-.1-.09-.08-.13-.1L73.73,40l-.11-.1-.08-.09-.1-.1-.07-.09-.09-.11-.06-.09a.44.44,0,0,1-.08-.11l-.06-.09a.39.39,0,0,1-.06-.11L73,39a.54.54,0,0,1,0-.11l0-.1s0-.07,0-.11a.36.36,0,0,1,0-.09s0-.08,0-.11l0-.1s0-.07,0-.11l0-.1a.43.43,0,0,1,0-.11s0-.07,0-.1a.37.37,0,0,0,0-.11V58.51c0,.06,0,.14,0,.21L74,60.23Z"/><path class="cls-5" d="M75,35a9.54,9.54,0,0,1,2.75-1c.62-.13,1-.18,1.3-.22a12,12,0,0,1,1.28-.07,12.59,12.59,0,0,1,2.56.27,9.33,9.33,0,0,1,3,1.11A4,4,0,0,1,88,37.93v0a.41.41,0,0,0,0-.11.37.37,0,0,0,0-.11,3.75,3.75,0,0,0-2.15-3.13,9.33,9.33,0,0,0-3-1.11,12.59,12.59,0,0,0-2.56-.27,12,12,0,0,0-1.28.07c-.29,0-.68.09-1.3.21a9.86,9.86,0,0,0-2.75,1c-1.61.9-2.4,2.1-2.37,3.3v.1a.37.37,0,0,1,0,.11,0,0,0,0,1,0,0A4.11,4.11,0,0,1,75,35Z"/><path class="cls-6" d="M88,38a.3.3,0,0,1,0,.1.5.5,0,0,1,0,.12s0,.07,0,.1,0,.08,0,.11l0,.1,0,.12,0,.1a.54.54,0,0,1,0,.11l0,.1-.06.11-.06.1-.07.11-.07.09a1,1,0,0,1-.08.11l-.08.09a.48.48,0,0,1-.09.11l-.08.09-.11.11L86.9,40l-.12.1a.39.39,0,0,1-.1.08l-.13.11-.09.08-.15.1-.1.08-.18.11-.09.06-.28.16a12,12,0,0,1-10.9-.11l-.26-.16-.08-.06-.17-.11-.09-.08-.13-.1-.09-.08-.13-.1L73.73,40l-.11-.1-.08-.09-.1-.1-.07-.09-.09-.11-.06-.09a.44.44,0,0,1-.08-.11l-.06-.09a.39.39,0,0,1-.06-.11L73,39a.54.54,0,0,1,0-.11l0-.1s0-.07,0-.11a.36.36,0,0,1,0-.09s0-.08,0-.11l0-.1s0-.07,0-.11l0-.1a.43.43,0,0,1,0-.11.17.17,0,0,1,0-.07,2.23,2.23,0,0,0,0,.37v.1a.37.37,0,0,1,0,.11s0,.06,0,.1a.52.52,0,0,0,0,.11.36.36,0,0,0,0,.1s0,.07,0,.11l0,.1s0,.07,0,.11a.36.36,0,0,0,0,.09s0,.08,0,.11l0,.1a.54.54,0,0,0,0,.11l.06.09a.39.39,0,0,0,.06.11l.06.1.08.1.06.09.09.11.07.09.1.1.08.09.11.1.08.09.13.1.09.08.13.11.09.07.17.11.08.06.26.17a12,12,0,0,0,10.9.11l.28-.17.09-.06.18-.11.1-.08.15-.1.09-.08a.69.69,0,0,0,.13-.11.39.39,0,0,0,.1-.08l.12-.1.08-.09.11-.11.08-.09.09-.1.08-.1.08-.11.07-.09.07-.11.06-.1.06-.11,0-.1a.54.54,0,0,0,0-.11l0-.1s0-.08,0-.11l0-.11s0-.07,0-.11,0-.07,0-.1a.52.52,0,0,0,0-.11.43.43,0,0,0,0-.11.41.41,0,0,0,0-.11.38.38,0,0,0,0-.1.49.49,0,0,0,0-.12c0-.11,0-.23,0-.34Z"/><path class="cls-6" d="M72.67,38.14l0,.1s0,.07,0,.11l0,.1s0,.07,0,.11a.36.36,0,0,0,0,.09s0,.08,0,.11l0,.1A.54.54,0,0,0,73,39l.06.09a.39.39,0,0,0,.06.11l.06.09a.44.44,0,0,0,.08.11l.06.09.09.11.07.09.1.1.08.09.11.1.08.09.13.1.09.08.13.1.09.08.17.11.08.06.26.16a12,12,0,0,0,10.9.11l.28-.16.09-.06.18-.11.1-.08.15-.1.09-.08.13-.11a.39.39,0,0,0,.1-.08l.12-.1.08-.09.11-.11.08-.09a.48.48,0,0,0,.09-.11l.08-.09a1,1,0,0,0,.08-.11l.07-.09.07-.11.06-.1.06-.11,0-.1a.54.54,0,0,0,0-.11l0-.1,0-.12,0-.1s0-.07,0-.11,0-.07,0-.1a.5.5,0,0,0,0-.12.3.3,0,0,0,0-.1v-.06a4,4,0,0,0-2.13-2.79,9.33,9.33,0,0,0-3-1.11,12.59,12.59,0,0,0-2.56-.27,12,12,0,0,0-1.28.07c-.29,0-.68.09-1.3.22A9.54,9.54,0,0,0,75,35,4.11,4.11,0,0,0,72.64,38a.17.17,0,0,0,0,.07A.43.43,0,0,0,72.67,38.14Z"/><g class="cls-7"><rect class="cls-8" x="80.27" y="42.51" width="0.12" height="19.42"/><rect class="cls-9" x="80.27" y="42.51" width="0.05" height="19.42"/></g><g class="cls-7"><rect class="cls-8" x="85.16" y="41.5" width="0.12" height="19.43"/><rect class="cls-9" x="85.16" y="41.5" width="0.05" height="19.43"/></g><g class="cls-7"><rect class="cls-10" x="87.68" y="39.45" width="0.12" height="19.42"/><rect class="cls-8" x="87.68" y="39.45" width="0.05" height="19.42"/></g><g class="cls-7"><rect class="cls-10" x="73.02" y="39.45" width="0.12" height="19.42" transform="translate(146.16 98.33) rotate(180)"/><rect class="cls-8" x="73.09" y="39.45" width="0.05" height="19.42" transform="translate(146.22 98.33) rotate(180)"/></g><g class="cls-7"><rect class="cls-8" x="75.28" y="41.5" width="0.12" height="19.43"/><rect class="cls-9" x="75.28" y="41.5" width="0.05" height="19.43"/></g><path class="cls-11" d="M88.5,37.9c0,.07,0,.15,0,.21l-.06.25c0,.07,0,.14,0,.2s-.07.16-.1.25l-.09.2c0,.08-.1.16-.14.24a2,2,0,0,1-.12.19c0,.08-.13.16-.19.24l-.14.18-.24.23-.17.17-.31.25-.18.13a5.21,5.21,0,0,1-.55.36,12.77,12.77,0,0,1-11.58,0c-.2-.11-.39-.24-.57-.36l-.16-.13-.33-.25-.16-.17a2.89,2.89,0,0,1-.25-.24c-.06-.06-.1-.12-.15-.18l-.19-.24a2.12,2.12,0,0,1-.12-.2c0-.08-.1-.16-.14-.24s-.06-.14-.09-.2a2.56,2.56,0,0,1-.11-.24c0-.07,0-.14-.05-.21a1.83,1.83,0,0,1-.06-.25c0-.07,0-.14,0-.21s0-.16,0-.24h0v.31c0,1.22.8,2.45,2.42,3.38a12.75,12.75,0,0,0,11.57,0c1.59-.92,2.38-2.12,2.38-3.33v-.32C88.51,37.75,88.5,37.83,88.5,37.9Z"/><path class="cls-12" d="M86.1,34.29a12.77,12.77,0,0,0-11.58,0c-1.59.92-2.38,2.12-2.38,3.33,0,.08,0,.16,0,.25s0,.14,0,.2a1.83,1.83,0,0,0,.06.25c0,.07,0,.14.05.21a2.56,2.56,0,0,0,.11.24,1.21,1.21,0,0,0,.09.2c0,.08.09.16.14.24a2.12,2.12,0,0,0,.12.2l.19.24c0,.06.09.12.15.18a2.89,2.89,0,0,0,.25.24,1.21,1.21,0,0,0,.16.16l.33.26.16.13.57.36a12.77,12.77,0,0,0,11.58,0l.55-.36.18-.13.31-.25.17-.16.24-.24.14-.18c.06-.08.14-.16.19-.24a2,2,0,0,0,.12-.19c0-.08.1-.16.14-.24l.09-.2.1-.24c0-.07,0-.14,0-.21l.06-.24c0-.07,0-.14,0-.21C88.61,36.59,87.81,35.28,86.1,34.29ZM88,37.87c0,.07,0,.13,0,.2a1.89,1.89,0,0,1,0,.23c0,.06,0,.13-.05.19a1.45,1.45,0,0,1-.09.22l-.08.2-.14.22a1.74,1.74,0,0,1-.11.18,1.92,1.92,0,0,1-.18.22,1.09,1.09,0,0,1-.13.17,2.39,2.39,0,0,1-.23.22l-.16.16a3.67,3.67,0,0,1-.29.23l-.16.13c-.16.11-.34.23-.52.33a12,12,0,0,1-10.87,0,5.37,5.37,0,0,1-.53-.34.83.83,0,0,1-.15-.11c-.11-.08-.22-.16-.31-.24l-.16-.16a2.5,2.5,0,0,1-.23-.23,1.15,1.15,0,0,1-.14-.17l-.18-.22a1.74,1.74,0,0,1-.11-.18c0-.08-.1-.15-.14-.23s0-.13-.08-.19-.07-.15-.1-.23,0-.13-.05-.19a1.89,1.89,0,0,1,0-.23c0-.07,0-.13,0-.2a1.79,1.79,0,0,1,0-.23,3.81,3.81,0,0,1,2.23-3.13,12,12,0,0,1,10.87,0C87.36,35.42,88.1,36.66,88,37.87Z"/><path class="cls-11" d="M88.52,57.56c0,.07,0,.14,0,.22a2.1,2.1,0,0,1-.06.24c0,.07,0,.14,0,.21l-.1.24a1.76,1.76,0,0,1-.09.2c0,.08-.09.16-.14.24l-.12.19-.19.24c0,.06-.09.13-.14.18l-.24.24-.17.17-.32.24-.17.14a4.48,4.48,0,0,1-.56.36,12.78,12.78,0,0,1-11.61,0c-.2-.12-.39-.24-.56-.36l-.16-.13-.34-.26-.16-.16a2,2,0,0,1-.25-.25l-.15-.18-.19-.24a1.32,1.32,0,0,1-.12-.2,1.94,1.94,0,0,1-.15-.24,1.19,1.19,0,0,1-.08-.2,1.22,1.22,0,0,1-.1-.24,1.66,1.66,0,0,1-.06-.21,2.27,2.27,0,0,1-.06-.25c0-.07,0-.14,0-.21a2,2,0,0,1,0-.25h0v.32c0,1.23.8,2.45,2.42,3.39a12.78,12.78,0,0,0,11.61,0,4.09,4.09,0,0,0,2.39-3.34v-.32C88.54,57.41,88.52,57.49,88.52,57.56Z"/><path class="cls-12" d="M88,55.68v1.43a2.16,2.16,0,0,1,0,.44,1.27,1.27,0,0,1,0,.2L88,58c0,.06,0,.13,0,.19a2.18,2.18,0,0,1-.09.23c0,.06,0,.13-.08.19l-.14.22a1.08,1.08,0,0,1-.11.18c0,.08-.12.15-.18.23l-.13.17a2.39,2.39,0,0,1-.23.22l-.16.16-.29.23-.16.13c-.17.11-.34.23-.53.33a12,12,0,0,1-10.9,0c-.18-.11-.36-.22-.53-.34L74.22,60l-.31-.25-.16-.15-.23-.23-.14-.17c-.06-.08-.13-.15-.18-.23a1.74,1.74,0,0,1-.11-.18,1.76,1.76,0,0,1-.14-.23c0-.06,0-.13-.08-.19a1.6,1.6,0,0,1-.1-.23c0-.06,0-.13,0-.19l-.06-.23a1.34,1.34,0,0,1,0-.2,1.79,1.79,0,0,1,0-.23,2.83,2.83,0,0,1,0-.29V55.63a3,3,0,0,0-.53,1.67,1.94,1.94,0,0,0,0,.24c0,.07,0,.15,0,.22a2.1,2.1,0,0,0,.06.24,1.66,1.66,0,0,0,.06.21,1.22,1.22,0,0,0,.1.24,1.19,1.19,0,0,0,.08.2,2.07,2.07,0,0,0,.15.25,2,2,0,0,0,.12.19c.06.09.13.16.19.24s.1.13.15.18a2,2,0,0,0,.25.25l.16.16.34.26.16.13c.17.12.36.24.56.36a12.84,12.84,0,0,0,11.61,0c.2-.12.39-.24.56-.36l.17-.14.32-.24.17-.17.24-.24c0-.05.09-.12.14-.18l.19-.24.12-.19c0-.08.1-.16.14-.24a1.21,1.21,0,0,0,.09-.2l.1-.24c0-.07,0-.14,0-.21a2.1,2.1,0,0,0,.06-.24c0-.07,0-.14,0-.21A3,3,0,0,0,88,55.68Z"/><path class="cls-13" d="M88.52,52.76c0,.07,0,.14,0,.21a2.27,2.27,0,0,1-.06.25l0,.2c0,.09-.07.16-.1.25s-.05.13-.09.2-.09.16-.14.24l-.12.19-.19.24-.14.18-.24.24-.17.17-.32.24-.17.14a6,6,0,0,1-.56.36,12.81,12.81,0,0,1-11.61,0c-.2-.12-.39-.24-.56-.36l-.16-.13-.34-.26L73.32,55a2,2,0,0,1-.25-.25l-.15-.18-.19-.24-.12-.19c0-.09-.11-.17-.15-.25a1.67,1.67,0,0,1-.08-.2,1.22,1.22,0,0,1-.1-.24c0-.07,0-.15-.06-.21a2.27,2.27,0,0,1-.06-.25c0-.07,0-.14,0-.21a1.94,1.94,0,0,1,0-.24v.3c0,1.22.8,2.45,2.42,3.39a12.84,12.84,0,0,0,11.61,0c1.59-.93,2.38-2.13,2.39-3.34v-.32C88.54,52.61,88.52,52.69,88.52,52.76Z"/><path class="cls-14" d="M88,50.88V52.3a2.26,2.26,0,0,1,0,.45,1.41,1.41,0,0,1,0,.2l-.06.23c0,.06,0,.13,0,.19a2.18,2.18,0,0,1-.09.23c0,.06,0,.13-.08.19l-.14.22a1.74,1.74,0,0,1-.11.18c0,.08-.12.15-.18.23l-.13.17-.23.22s-.1.11-.16.16l-.29.23-.16.13c-.17.11-.34.23-.53.33a12,12,0,0,1-10.9,0c-.18-.11-.36-.22-.53-.34l-.15-.12a2.55,2.55,0,0,1-.31-.24l-.16-.15-.23-.23c0-.06-.09-.12-.14-.17s-.13-.15-.18-.23a1.74,1.74,0,0,1-.11-.18c0-.08-.1-.15-.14-.23s0-.12-.08-.19a1.6,1.6,0,0,1-.1-.23c0-.06,0-.13,0-.19l-.06-.23a1.34,1.34,0,0,1,0-.2,1.79,1.79,0,0,1,0-.23,2.64,2.64,0,0,1,0-.29V50.82a3.08,3.08,0,0,0-.53,1.68,1.94,1.94,0,0,0,0,.24c0,.07,0,.15,0,.22a2.1,2.1,0,0,0,.06.24,1.66,1.66,0,0,0,.06.21,1.22,1.22,0,0,0,.1.24,1.8,1.8,0,0,0,.08.21c0,.08.1.16.15.24a2,2,0,0,0,.12.19l.19.24.15.19a2.89,2.89,0,0,0,.25.24l.16.16.34.26a1,1,0,0,0,.16.12,6,6,0,0,0,.56.37,12.84,12.84,0,0,0,11.61,0c.2-.12.39-.24.56-.36l.17-.14.32-.24.17-.17.24-.24.14-.18a2.23,2.23,0,0,0,.19-.24l.12-.19c0-.08.1-.16.14-.24a1.76,1.76,0,0,0,.09-.2l.1-.24c0-.07,0-.14,0-.21A2.1,2.1,0,0,0,88.5,53c0-.07,0-.14,0-.21A3,3,0,0,0,88,50.88Z"/><path class="cls-13" d="M88.52,52c0,.08,0,.15,0,.22a2.1,2.1,0,0,1-.06.24c0,.07,0,.14,0,.21l-.1.24a1.21,1.21,0,0,1-.09.2c0,.08-.09.16-.14.24l-.12.2-.19.24c0,.05-.09.12-.14.18l-.24.23-.17.17-.32.25-.17.13a4.48,4.48,0,0,1-.56.36,12.78,12.78,0,0,1-11.61,0c-.2-.12-.39-.24-.56-.36l-.16-.13c-.12-.08-.23-.17-.34-.26l-.16-.16a2.89,2.89,0,0,1-.25-.24l-.15-.19-.19-.24a2,2,0,0,1-.12-.19c0-.08-.11-.16-.15-.24a1.8,1.8,0,0,1-.08-.21,1.22,1.22,0,0,1-.1-.24,1.66,1.66,0,0,1-.06-.21,2.1,2.1,0,0,1-.06-.24c0-.08,0-.15,0-.22a1.94,1.94,0,0,1,0-.24h0V52c0,1.23.8,2.46,2.42,3.39a12.78,12.78,0,0,0,11.61,0,4.09,4.09,0,0,0,2.39-3.34v-.31C88.54,51.82,88.52,51.9,88.52,52Z"/><path class="cls-14" d="M88,50.09v1.43A2.26,2.26,0,0,1,88,52a1.21,1.21,0,0,1,0,.19l-.06.23c0,.06,0,.13,0,.2a2,2,0,0,1-.09.22c0,.06,0,.13-.08.19s-.09.15-.14.23a1.74,1.74,0,0,1-.11.18l-.18.22a1.09,1.09,0,0,1-.13.17,2.39,2.39,0,0,1-.23.22,1.21,1.21,0,0,1-.16.16l-.29.23-.16.13c-.17.11-.34.23-.53.34a12,12,0,0,1-10.9,0,6,6,0,0,1-.53-.34l-.15-.11a2.6,2.6,0,0,1-.31-.25L73.75,54l-.23-.23s-.09-.11-.14-.17l-.18-.22-.11-.19L73,53l-.08-.2a2.14,2.14,0,0,1-.1-.22l0-.2-.06-.23a1.27,1.27,0,0,1,0-.2,1.79,1.79,0,0,1,0-.23c0-.09,0-.19,0-.29V50a3,3,0,0,0-.53,1.67,2.29,2.29,0,0,0,0,.25c0,.07,0,.14,0,.21a2.1,2.1,0,0,0,.06.24,1.66,1.66,0,0,0,.06.21,1,1,0,0,0,.1.24,1.8,1.8,0,0,0,.08.21c0,.08.1.16.15.24a2,2,0,0,0,.12.19l.19.24.15.19a2.89,2.89,0,0,0,.25.24l.16.16c.11.09.22.18.34.26l.16.13c.17.12.36.24.56.36a12.84,12.84,0,0,0,11.61,0,6,6,0,0,0,.56-.36l.17-.13.32-.25.17-.17.24-.23.14-.18.19-.24.12-.2c0-.08.1-.16.14-.24a1.21,1.21,0,0,0,.09-.2l.1-.24c0-.07,0-.14,0-.21a2.1,2.1,0,0,0,.06-.24c0-.07,0-.14,0-.21A3,3,0,0,0,88,50.09Z"/><path class="cls-13" d="M88.52,51.15c0,.07,0,.14,0,.21a2.27,2.27,0,0,1-.06.25c0,.07,0,.14,0,.21s-.07.15-.1.24-.05.13-.09.2-.09.16-.14.24l-.12.19-.19.24-.14.18-.24.24-.17.17-.32.25-.17.13a6,6,0,0,1-.56.36,12.78,12.78,0,0,1-11.61,0c-.2-.12-.39-.24-.56-.36l-.16-.13-.34-.26-.16-.16a2.89,2.89,0,0,1-.25-.24l-.15-.19-.19-.24a2,2,0,0,1-.12-.19c0-.09-.11-.17-.15-.25a1.19,1.19,0,0,1-.08-.2,1.22,1.22,0,0,1-.1-.24,1.66,1.66,0,0,1-.06-.21,1.83,1.83,0,0,1-.06-.25c0-.07,0-.14,0-.21a1.94,1.94,0,0,1,0-.24v.3c0,1.23.8,2.45,2.42,3.39a12.84,12.84,0,0,0,11.61,0,4.09,4.09,0,0,0,2.39-3.34v-.32C88.54,51,88.52,51.08,88.52,51.15Z"/><path class="cls-14" d="M88,49.27V50.7a2.16,2.16,0,0,1,0,.44,1.34,1.34,0,0,1,0,.2l-.06.23c0,.06,0,.13,0,.19a2.18,2.18,0,0,1-.09.23c0,.06,0,.13-.08.19l-.14.22-.11.19-.18.22-.13.17-.23.22s-.1.11-.16.16l-.29.23-.16.13c-.17.11-.34.23-.53.33a12,12,0,0,1-10.9,0c-.18-.11-.36-.22-.53-.34l-.15-.12a2.55,2.55,0,0,1-.31-.24l-.16-.15L73.52,53s-.09-.12-.14-.17-.13-.15-.18-.23a1.74,1.74,0,0,1-.11-.18L73,52.17l-.08-.2a2.14,2.14,0,0,1-.1-.22c0-.07,0-.14,0-.2l-.06-.23a1.34,1.34,0,0,1,0-.2,1.79,1.79,0,0,1,0-.23,2.83,2.83,0,0,1,0-.29V49.22a3,3,0,0,0-.53,1.67,1.94,1.94,0,0,0,0,.24c0,.08,0,.15,0,.22a2.1,2.1,0,0,0,.06.24,1.66,1.66,0,0,0,.06.21,1.22,1.22,0,0,0,.1.24,1.8,1.8,0,0,0,.08.21c0,.08.1.16.15.24a2,2,0,0,0,.12.19l.19.24.15.19a2.89,2.89,0,0,0,.25.24l.16.16.34.26a1,1,0,0,0,.16.12,6,6,0,0,0,.56.37,12.84,12.84,0,0,0,11.61,0c.2-.12.39-.24.56-.36l.17-.13.32-.25.17-.17.24-.23.14-.19.19-.23.12-.2c0-.08.1-.16.14-.24a1.76,1.76,0,0,0,.09-.2l.1-.24c0-.07,0-.14,0-.21a2.1,2.1,0,0,0,.06-.24c0-.07,0-.14,0-.21A3,3,0,0,0,88,49.27Z"/><path class="cls-13" d="M88.52,45.05c0,.07,0,.14,0,.21a2.1,2.1,0,0,1-.06.24c0,.07,0,.14,0,.21l-.1.24a1.21,1.21,0,0,1-.09.2c0,.08-.09.16-.14.24l-.12.2a2.11,2.11,0,0,1-.19.23l-.14.19-.24.23c-.06.06-.11.12-.17.17a3.92,3.92,0,0,1-.32.25l-.17.13a4.48,4.48,0,0,1-.56.36,12.78,12.78,0,0,1-11.61,0,4.48,4.48,0,0,1-.56-.36l-.16-.13-.34-.25-.16-.17a2.89,2.89,0,0,1-.25-.24l-.15-.19c-.06-.08-.13-.15-.19-.24a2,2,0,0,1-.12-.19c0-.08-.11-.16-.15-.24a1.8,1.8,0,0,1-.08-.21,1.22,1.22,0,0,1-.1-.24,1.66,1.66,0,0,1-.06-.21,2.1,2.1,0,0,1-.06-.24c0-.07,0-.15,0-.22a1.94,1.94,0,0,1,0-.24v.3c0,1.23.8,2.45,2.42,3.39a12.78,12.78,0,0,0,11.61,0,4.09,4.09,0,0,0,2.39-3.34v-.32C88.54,44.89,88.52,45,88.52,45.05Z"/><path class="cls-14" d="M88,43.16v1.43A2.16,2.16,0,0,1,88,45a1.27,1.27,0,0,1,0,.2l-.06.23c0,.06,0,.13,0,.2a2,2,0,0,1-.09.22c0,.06,0,.13-.08.19s-.09.15-.14.23a1.74,1.74,0,0,1-.11.18l-.18.22a1.09,1.09,0,0,1-.13.17,2.39,2.39,0,0,1-.23.22,1.21,1.21,0,0,1-.16.16l-.29.23-.16.13c-.17.12-.34.23-.53.34a12,12,0,0,1-10.9,0c-.18-.1-.36-.22-.53-.33l-.15-.12a2.6,2.6,0,0,1-.31-.25c-.06,0-.1-.1-.16-.15l-.23-.23s-.09-.11-.14-.17l-.18-.22a1.18,1.18,0,0,1-.11-.19L73,46.06l-.08-.2a2.14,2.14,0,0,1-.1-.22l0-.2-.06-.23a1.27,1.27,0,0,1,0-.2,1.64,1.64,0,0,1,0-.23c0-.09,0-.19,0-.29V43.11a3.07,3.07,0,0,0-.53,1.67,2.11,2.11,0,0,0,0,.25c0,.07,0,.14,0,.21s0,.16.06.25,0,.13.06.2a1.22,1.22,0,0,0,.1.24,1.8,1.8,0,0,0,.08.21c0,.08.1.16.15.24a1.22,1.22,0,0,0,.12.19,2.51,2.51,0,0,0,.19.24l.15.19a2.89,2.89,0,0,0,.25.24l.16.16c.11.09.22.18.34.26l.16.13a6,6,0,0,0,.56.36,12.84,12.84,0,0,0,11.61,0,4.48,4.48,0,0,0,.56-.36l.17-.13c.11-.09.22-.16.32-.25s.11-.11.17-.17l.24-.23c0-.06.09-.13.14-.18l.19-.24.12-.2a1.88,1.88,0,0,0,.14-.24,1.21,1.21,0,0,0,.09-.2l.1-.24c0-.07,0-.14,0-.21a2.1,2.1,0,0,0,.06-.24c0-.07,0-.14,0-.21A3,3,0,0,0,88,43.16Z"/><path class="cls-13" d="M88.52,44.26c0,.07,0,.14,0,.21a2.1,2.1,0,0,1-.06.24c0,.07,0,.14,0,.21l-.1.24a1.89,1.89,0,0,1-.09.21c0,.08-.09.15-.14.23l-.12.2-.19.24-.14.18-.24.24-.17.16a3.92,3.92,0,0,1-.32.25l-.17.14c-.17.12-.36.24-.56.36a12.84,12.84,0,0,1-11.61,0A6,6,0,0,1,74,47l-.16-.12-.34-.26c0-.06-.11-.11-.16-.16l-.25-.25L72.92,46l-.19-.24a2.12,2.12,0,0,1-.12-.2c0-.08-.11-.16-.15-.24a1.8,1.8,0,0,1-.08-.21,1,1,0,0,1-.1-.24,1.66,1.66,0,0,1-.06-.21,2.1,2.1,0,0,1-.06-.24c0-.07,0-.14,0-.22a1.94,1.94,0,0,1,0-.24h0v.32c0,1.22.8,2.45,2.42,3.38a12.81,12.81,0,0,0,11.61,0c1.59-.93,2.38-2.13,2.39-3.34V44C88.54,44.11,88.52,44.18,88.52,44.26Z"/><path class="cls-14" d="M88,42.38V43.8a2.26,2.26,0,0,1,0,.45,1.34,1.34,0,0,1,0,.2l-.06.22,0,.2a1.45,1.45,0,0,1-.09.22c0,.07,0,.13-.08.19s-.09.15-.14.23a1.74,1.74,0,0,1-.11.18c0,.08-.12.15-.18.23l-.13.17-.23.22-.16.15-.29.23-.16.13c-.17.12-.34.23-.53.34a12,12,0,0,1-10.9,0c-.18-.11-.36-.22-.53-.34l-.15-.12c-.11-.08-.22-.16-.31-.24s-.1-.11-.16-.15l-.23-.23c0-.06-.09-.12-.14-.17s-.13-.15-.18-.23a1.74,1.74,0,0,1-.11-.18c0-.08-.1-.15-.14-.23s0-.13-.08-.19a2.29,2.29,0,0,1-.1-.23c0-.06,0-.13,0-.2l-.06-.22a1.48,1.48,0,0,1,0-.21,1.64,1.64,0,0,1,0-.22c0-.1,0-.2,0-.3V42.32A3.08,3.08,0,0,0,72.12,44a1.94,1.94,0,0,0,0,.24c0,.07,0,.14,0,.21a1.83,1.83,0,0,0,.06.25,1.66,1.66,0,0,0,.06.21,1.22,1.22,0,0,0,.1.24l.08.2c0,.08.1.16.15.24a2.12,2.12,0,0,0,.12.2l.19.24.15.18.25.25c.05,0,.11.1.16.16l.34.26L74,47a4.48,4.48,0,0,0,.56.36,12.84,12.84,0,0,0,11.61,0,6,6,0,0,0,.56-.37l.17-.13a3.92,3.92,0,0,0,.32-.25l.17-.16.24-.24.14-.18.19-.24.12-.19c0-.08.1-.16.14-.24s.06-.14.09-.2.07-.16.1-.25,0-.13,0-.2a2.27,2.27,0,0,0,.06-.25c0-.06,0-.14,0-.21A3,3,0,0,0,88,42.38Z"/><path class="cls-13" d="M88.52,43.44c0,.07,0,.14,0,.21a2.1,2.1,0,0,1-.06.24c0,.07,0,.14,0,.21l-.1.24a1.21,1.21,0,0,1-.09.2,1.88,1.88,0,0,1-.14.24l-.12.2a2.11,2.11,0,0,1-.19.23l-.14.19-.24.23c-.06.06-.11.12-.17.17a3.92,3.92,0,0,1-.32.25l-.17.13a6,6,0,0,1-.56.37,12.84,12.84,0,0,1-11.61,0,6,6,0,0,1-.56-.37l-.16-.13-.34-.25-.16-.17a2.89,2.89,0,0,1-.25-.24l-.15-.19L72.73,45c0-.07-.08-.14-.12-.2s-.11-.16-.15-.24a1.8,1.8,0,0,1-.08-.21,1.22,1.22,0,0,1-.1-.24,1.66,1.66,0,0,1-.06-.21,2.1,2.1,0,0,1-.06-.24c0-.07,0-.15,0-.22a1.94,1.94,0,0,1,0-.24h0v.32c0,1.22.8,2.45,2.42,3.38a12.78,12.78,0,0,0,11.61,0,4.09,4.09,0,0,0,2.39-3.34v-.31C88.54,43.28,88.52,43.36,88.52,43.44Z"/><path class="cls-14" d="M88,41.56V43a2.26,2.26,0,0,1,0,.45,1.21,1.21,0,0,1,0,.19l-.06.23,0,.2a2,2,0,0,1-.09.22c0,.06,0,.13-.08.19s-.09.15-.14.23a1.74,1.74,0,0,1-.11.18,1.92,1.92,0,0,1-.18.22,1.09,1.09,0,0,1-.13.17l-.23.23-.16.15-.29.23-.16.13c-.17.12-.34.23-.53.34a12,12,0,0,1-10.9,0c-.18-.11-.36-.22-.53-.34l-.15-.12a2.6,2.6,0,0,1-.31-.25c-.06,0-.1-.1-.16-.15l-.23-.23s-.09-.11-.14-.17l-.18-.22a1.18,1.18,0,0,1-.11-.19,1.64,1.64,0,0,1-.14-.22c0-.07,0-.13-.08-.19a2.29,2.29,0,0,1-.1-.23l0-.2-.06-.23a1.27,1.27,0,0,1,0-.2,1.64,1.64,0,0,1,0-.23c0-.09,0-.19,0-.29V41.5a3.07,3.07,0,0,0-.53,1.67,2,2,0,0,0,0,.25c0,.07,0,.14,0,.21s0,.16.06.25a1.52,1.52,0,0,0,.06.2,1.63,1.63,0,0,0,.1.25l.08.2c0,.08.1.16.15.24a2.12,2.12,0,0,0,.12.2l.19.24.15.18a2.89,2.89,0,0,0,.25.24l.16.17.34.25.16.13a4.48,4.48,0,0,0,.56.36,12.84,12.84,0,0,0,11.61,0,4.48,4.48,0,0,0,.56-.36l.17-.13a3.92,3.92,0,0,0,.32-.25c.06,0,.11-.11.17-.17l.24-.23.14-.18.19-.24.12-.2a1.88,1.88,0,0,0,.14-.24,1.21,1.21,0,0,0,.09-.2l.1-.24c0-.07,0-.14,0-.2s0-.17.06-.25,0-.14,0-.21A3,3,0,0,0,88,41.56Z"/><path class="cls-11" d="M79.22,39.24a.11.11,0,0,0,0,0,.14.14,0,0,1,0,.07.09.09,0,0,1,0,0,.11.11,0,0,1,0,.06l0,.06,0,.06s0,0,0,0l0,.06,0,0-.07.06,0,0-.08.06-.05,0-.14.09a3.33,3.33,0,0,1-3,0L75.41,40l0,0-.09-.06,0,0-.06-.06,0,0,0-.06s0,0,0,0l0-.06a.14.14,0,0,1,0-.06l0-.06s0,0,0-.06,0,0,0-.06a.13.13,0,0,1,0-.06v-.06h0v.08a1.07,1.07,0,0,0,.63.88,3.33,3.33,0,0,0,3,0,1.06,1.06,0,0,0,.62-.87v0Z"/><path class="cls-12" d="M78.59,38.29a3.39,3.39,0,0,0-3,0,1.09,1.09,0,0,0-.62.88v.06a.13.13,0,0,0,0,.06s0,0,0,.06,0,0,0,.06l0,.06a.14.14,0,0,0,0,.06l0,.06s0,0,0,0l0,.06,0,0,.06.06,0,0,.09.06,0,0,.15.09a3.33,3.33,0,0,0,3,0l.14-.09.05,0,.08-.06,0,0,.07-.06,0,0,0-.06s0,0,0,0l0-.06,0-.06a.11.11,0,0,0,0-.06.09.09,0,0,0,0,0,.14.14,0,0,0,0-.07.11.11,0,0,1,0,0A1,1,0,0,0,78.59,38.29Zm.33,1s0,0,0,.06,0,0,0,0a.14.14,0,0,1,0,.06s0,0,0,0l0,.06,0,0,0,.06,0,0-.06,0,0,0-.08.05,0,0-.13.08a2.91,2.91,0,0,1-2.62,0l-.13-.09a.05.05,0,0,0,0,0l-.07-.06,0,0-.06-.06,0,0,0,0,0,0,0-.06,0,0,0-.05a.09.09,0,0,0,0,0s0,0,0,0a.09.09,0,0,0,0-.05v-.06a.91.91,0,0,1,.54-.75,2.88,2.88,0,0,1,2.62,0,.87.87,0,0,1,.54.81Z"/><path class="cls-15" d="M78.38,39.77a.57.57,0,0,1,.13.08h0l0,0,.08-.05,0,0,.06,0,0,0,0-.06,0,0,0-.06s0,0,0,0a.14.14,0,0,0,0-.06s0,0,0,0,0,0,0-.06v-.05a.87.87,0,0,0-.54-.81,2.88,2.88,0,0,0-2.62,0,.91.91,0,0,0-.54.75v.06a.09.09,0,0,1,0,.05s0,0,0,0a.09.09,0,0,1,0,0l0,.05,0,0,0,.06,0,0,0,0,0,0,.06.06,0,0,.07.06,0,0,.12-.07A2.82,2.82,0,0,1,78.38,39.77Z"/><path class="cls-16" d="M75.77,39.93a2.91,2.91,0,0,0,2.62,0l.12-.08a.57.57,0,0,0-.13-.08,2.82,2.82,0,0,0-2.62,0l-.12.07h0Z"/><path class="cls-17" d="M74.93,39.23a.13.13,0,0,0,0,.06s0,0,0,.06,0,0,0,.06l0,.06a.14.14,0,0,0,0,.06l0,.06,0,0,0,.06,0,0,.06.06.05,0,.08.06,0,0,.15.09a3.33,3.33,0,0,0,3,0l.15-.09s0,0,0,0l.08-.06,0,0,.06-.06,0,0,0-.06,0,0,0-.06,0-.06a.11.11,0,0,0,0-.06l0,0s0,0,0-.07a.11.11,0,0,1,0,0,1,1,0,0,0-.63-1,3.39,3.39,0,0,0-3,0,1.09,1.09,0,0,0-.62.88Z"/><path class="cls-2" d="M40,36.48H52.3L50.1,46.92h-19a3.5,3.5,0,0,1-1.9-6.43L31.53,39A15.56,15.56,0,0,1,40,36.48Z"/><path class="cls-3" d="M45.48,46l3.55.68,4-.16L56.37,45l1.32-1.87V43h0V22.21a.37.37,0,0,1,0,.11,1741492716616.6,1741492716616.6,0,0,0,0,.22.3.3,0,0,1,0,.1.5.5,0,0,1,0,.12s0,.07,0,.1,0,.08,0,.11l0,.1a.56.56,0,0,0,0,.12s0,.07,0,.1a.54.54,0,0,1,0,.11l-.05.1-.06.11-.06.1a.41.41,0,0,0-.07.11l-.07.09A1,1,0,0,1,57,24l-.08.09-.09.11-.08.09-.11.11-.08.09-.12.1a.39.39,0,0,1-.1.08l-.13.11-.09.08L56,25l-.1.08-.18.11-.09.06-.28.16a12,12,0,0,1-10.9-.11l-.26-.16-.08-.06L43.9,25l-.09-.08-.13-.1a.36.36,0,0,1-.09-.08l-.13-.1-.08-.09-.11-.1-.08-.09-.1-.1L43,24.12,42.93,24l-.06-.09a.44.44,0,0,1-.08-.11l-.06-.09-.07-.11a.41.41,0,0,0,0-.09.54.54,0,0,1,0-.11.93.93,0,0,1-.05-.1s0-.07,0-.11a.36.36,0,0,1,0-.09s0-.08,0-.11l0-.1,0-.11v-.1a.43.43,0,0,1,0-.11s0-.07,0-.1a.37.37,0,0,0,0-.11V43.06c0,.06,0,.14,0,.21l1.33,1.51Z"/><path class="cls-18" d="M45.48,46l3.55.68,4-.16L56.37,45l1.32-1.87V43h0V22.21a.37.37,0,0,1,0,.11,1741492716616.6,1741492716616.6,0,0,0,0,.22.3.3,0,0,1,0,.1.5.5,0,0,1,0,.12s0,.07,0,.1,0,.08,0,.11l0,.1a.56.56,0,0,0,0,.12s0,.07,0,.1a.54.54,0,0,1,0,.11l-.05.1-.06.11-.06.1a.41.41,0,0,0-.07.11l-.07.09A1,1,0,0,1,57,24l-.08.09-.09.11-.08.09-.11.11-.08.09-.12.1a.39.39,0,0,1-.1.08l-.13.11-.09.08L56,25l-.1.08-.18.11-.09.06-.28.16a12,12,0,0,1-10.9-.11l-.26-.16-.08-.06L43.9,25l-.09-.08-.13-.1a.36.36,0,0,1-.09-.08l-.13-.1-.08-.09-.11-.1-.08-.09-.1-.1L43,24.12,42.93,24l-.06-.09a.44.44,0,0,1-.08-.11l-.06-.09-.07-.11a.41.41,0,0,0,0-.09.54.54,0,0,1,0-.11.93.93,0,0,1-.05-.1s0-.07,0-.11a.36.36,0,0,1,0-.09s0-.08,0-.11l0-.1,0-.11v-.1a.43.43,0,0,1,0-.11s0-.07,0-.1a.37.37,0,0,0,0-.11V43.06c0,.06,0,.14,0,.21l1.33,1.51Z"/><path class="cls-5" d="M44.64,19.58a9.86,9.86,0,0,1,2.75-1c.62-.12,1-.17,1.3-.21A12,12,0,0,1,50,18.31a12.59,12.59,0,0,1,2.56.27,9.33,9.33,0,0,1,3,1.11,4,4,0,0,1,2.13,2.79v-.05a.41.41,0,0,0,0-.11.37.37,0,0,0,0-.11,3.77,3.77,0,0,0-2.15-3.13,9.33,9.33,0,0,0-3-1.11A12.59,12.59,0,0,0,50,17.7a12,12,0,0,0-1.28.07c-.3,0-.68.09-1.3.21a9.86,9.86,0,0,0-2.75,1c-1.61.9-2.4,2.1-2.37,3.3v.1a.37.37,0,0,1,0,.11,0,0,0,0,1,0,0A4.09,4.09,0,0,1,44.64,19.58Z"/><path class="cls-6" d="M57.65,22.54a.3.3,0,0,1,0,.1.5.5,0,0,1,0,.12s0,.07,0,.1,0,.08,0,.11l0,.1a.56.56,0,0,0,0,.12s0,.07,0,.1a.54.54,0,0,1,0,.11l-.05.1-.06.11-.06.1a.41.41,0,0,0-.07.11l-.07.09A1,1,0,0,1,57,24l-.08.09-.09.11-.08.09-.11.11-.08.09-.12.1a.39.39,0,0,1-.1.08l-.13.11-.09.08L56,25l-.1.08-.18.11-.09.06-.28.16a12,12,0,0,1-10.9-.11l-.26-.16-.08-.06L43.9,25l-.09-.08-.13-.1a.36.36,0,0,1-.09-.08l-.13-.1-.08-.09-.11-.1-.08-.09-.1-.1L43,24.12,42.93,24l-.06-.09a.44.44,0,0,1-.08-.11l-.06-.09-.07-.11a.41.41,0,0,0,0-.09.54.54,0,0,1,0-.11.93.93,0,0,1-.05-.1s0-.07,0-.11a.36.36,0,0,1,0-.09s0-.08,0-.11l0-.1,0-.11v-.1a.43.43,0,0,1,0-.11.17.17,0,0,1,0-.07,2.23,2.23,0,0,0,0,.37V23a.37.37,0,0,1,0,.11s0,.06,0,.1a.52.52,0,0,0,0,.11s0,.06,0,.1l0,.11,0,.1s0,.07,0,.11a.36.36,0,0,0,0,.09s0,.08,0,.11a.93.93,0,0,0,.05.1.54.54,0,0,0,0,.11.41.41,0,0,1,0,.09l.07.11.06.09a.44.44,0,0,0,.08.11l.06.09.09.11.07.09.1.1.08.09a.52.52,0,0,0,.11.1l.08.09.13.1a.36.36,0,0,0,.09.08l.13.1.09.08.17.11.08.06.26.17a12,12,0,0,0,10.9.11l.28-.17.09-.06.18-.11.1-.08.15-.1.09-.08a.69.69,0,0,0,.13-.11.39.39,0,0,0,.1-.08l.12-.1.08-.09.11-.11.08-.09.09-.1.08-.1.08-.11.07-.1a.61.61,0,0,1,.07-.1l.06-.1.06-.11a.47.47,0,0,0,.05-.1.54.54,0,0,0,0-.11s0-.07,0-.1a.56.56,0,0,1,0-.12l0-.1s0-.07,0-.11,0-.07,0-.1a.52.52,0,0,0,0-.11.43.43,0,0,0,0-.11.41.41,0,0,0,0-.11.38.38,0,0,0,0-.1.49.49,0,0,0,0-.12c0-.11,0-.23,0-.34Z"/><path class="cls-6" d="M42.32,22.69v.1l0,.11,0,.1s0,.07,0,.11a.36.36,0,0,0,0,.09s0,.08,0,.11a.93.93,0,0,0,.05.1.54.54,0,0,0,0,.11.41.41,0,0,1,0,.09l.07.11.06.09a.44.44,0,0,0,.08.11l.06.09.09.11.07.09.1.1.08.09.11.1.08.09.13.1a.36.36,0,0,0,.09.08l.13.1.09.08.17.11.08.06.26.16a12,12,0,0,0,10.9.11l.28-.16.09-.06.18-.11L56,25l.15-.1.09-.08.13-.11a.39.39,0,0,0,.1-.08l.12-.1.08-.09.11-.11.08-.09.09-.11L57,24a1,1,0,0,0,.08-.11l.07-.09a.41.41,0,0,1,.07-.11l.06-.1.06-.11.05-.1a.54.54,0,0,0,0-.11s0-.07,0-.1a.56.56,0,0,1,0-.12l0-.1s0-.07,0-.11,0-.07,0-.1a.5.5,0,0,0,0-.12.3.3,0,0,0,0-.1v-.06a4,4,0,0,0-2.13-2.79,9.33,9.33,0,0,0-3-1.11A12.59,12.59,0,0,0,50,18.31a12,12,0,0,0-1.28.07c-.3,0-.68.09-1.3.21a9.86,9.86,0,0,0-2.75,1,4.09,4.09,0,0,0-2.35,2.93.17.17,0,0,0,0,.07A.43.43,0,0,0,42.32,22.69Z"/><g class="cls-7"><rect class="cls-8" x="49.92" y="27.06" width="0.12" height="19.42"/><rect class="cls-9" x="49.92" y="27.06" width="0.05" height="19.42"/></g><g class="cls-7"><rect class="cls-8" x="54.81" y="26.05" width="0.12" height="19.43"/><rect class="cls-9" x="54.81" y="26.05" width="0.05" height="19.43"/></g><g class="cls-7"><rect class="cls-10" x="57.33" y="24" width="0.12" height="19.42"/><rect class="cls-8" x="57.33" y="24" width="0.05" height="19.42"/></g><g class="cls-7"><rect class="cls-10" x="42.67" y="24" width="0.12" height="19.42" transform="translate(85.46 67.43) rotate(180)"/><rect class="cls-8" x="42.74" y="24" width="0.05" height="19.42" transform="translate(85.52 67.43) rotate(180)"/></g><g class="cls-7"><rect class="cls-8" x="44.93" y="26.05" width="0.12" height="19.43"/><rect class="cls-9" x="44.93" y="26.05" width="0.05" height="19.43"/></g><path class="cls-11" d="M58.15,22.45c0,.07,0,.15,0,.21l-.06.25c0,.07,0,.13,0,.2s-.07.16-.1.25l-.09.2c0,.08-.1.16-.14.23l-.12.2-.19.24-.14.18-.24.23c-.06.06-.11.12-.17.17l-.31.25-.18.13a5.21,5.21,0,0,1-.55.36,12.77,12.77,0,0,1-11.58,0c-.2-.11-.39-.24-.57-.36l-.16-.13-.33-.25L43,24.64a2.89,2.89,0,0,1-.25-.24c-.06-.06-.1-.12-.15-.18s-.14-.16-.19-.24a2.12,2.12,0,0,1-.12-.2l-.15-.24c0-.07-.05-.14-.08-.2a2.56,2.56,0,0,1-.11-.24c0-.07,0-.14,0-.21a2.27,2.27,0,0,1-.06-.25c0-.07,0-.14,0-.21s0-.16,0-.24h0v.31c0,1.22.8,2.45,2.42,3.38a12.75,12.75,0,0,0,11.57,0c1.59-.92,2.38-2.12,2.38-3.33v-.32C58.16,22.3,58.15,22.38,58.15,22.45Z"/><path class="cls-12" d="M55.75,18.84a12.77,12.77,0,0,0-11.58,0c-1.59.92-2.38,2.12-2.38,3.33,0,.08,0,.16,0,.24s0,.15,0,.21a1.83,1.83,0,0,0,.06.25c0,.07,0,.14,0,.21a2.56,2.56,0,0,0,.11.24c0,.07.05.14.08.2l.15.24a2.12,2.12,0,0,0,.12.2c.05.08.13.16.19.24s.09.12.15.18a2.89,2.89,0,0,0,.25.24,1.21,1.21,0,0,0,.16.16l.33.26.16.13.57.36a12.77,12.77,0,0,0,11.58,0l.55-.36.18-.13.31-.25.17-.16c.08-.09.16-.16.24-.24l.14-.18.19-.24.12-.19c0-.08.1-.16.14-.24l.09-.2.1-.24c0-.07,0-.14,0-.21l.06-.24c0-.07,0-.14,0-.21C58.25,21.14,57.46,19.83,55.75,18.84Zm1.9,3.58c0,.07,0,.13,0,.2a1.89,1.89,0,0,1-.05.23c0,.06,0,.13,0,.19l-.09.22-.08.2-.14.22-.11.18a1.92,1.92,0,0,1-.18.22,1.09,1.09,0,0,1-.13.17,2.39,2.39,0,0,1-.23.22,1.21,1.21,0,0,1-.16.16,3.67,3.67,0,0,1-.29.23L56,25c-.16.11-.34.23-.52.33a12,12,0,0,1-10.87,0A5.37,5.37,0,0,1,44,25a.83.83,0,0,1-.15-.11c-.11-.08-.22-.16-.31-.24l-.16-.16a2.5,2.5,0,0,1-.23-.23,1.15,1.15,0,0,1-.14-.17l-.18-.22a1.74,1.74,0,0,1-.11-.18c0-.08-.1-.15-.14-.23a1.54,1.54,0,0,1-.08-.19c0-.08-.07-.15-.1-.23s0-.13,0-.19l-.06-.23a1.34,1.34,0,0,0,0-.2,1.79,1.79,0,0,1,0-.23A3.81,3.81,0,0,1,44.53,19,12,12,0,0,1,55.4,19C57,20,57.75,21.21,57.65,22.42Z"/><path class="cls-11" d="M58.17,42.11c0,.07,0,.14,0,.22a2.1,2.1,0,0,1-.06.24c0,.07,0,.14-.05.2s-.07.17-.1.25a1.76,1.76,0,0,1-.09.2c0,.08-.09.16-.14.24l-.12.19-.19.24c0,.06-.09.13-.14.18l-.24.24-.17.17-.32.24-.17.14a4.48,4.48,0,0,1-.56.36,12.78,12.78,0,0,1-11.61,0l-.57-.36-.15-.13-.34-.26L43,44.31a2,2,0,0,1-.25-.25c-.06-.06-.1-.12-.15-.18l-.19-.24a1.32,1.32,0,0,1-.12-.2,1.94,1.94,0,0,1-.15-.24L42,43l-.1-.24c0-.07,0-.14-.05-.21s0-.17-.06-.25,0-.14,0-.21a2,2,0,0,1,0-.25h0v.32c0,1.23.8,2.45,2.42,3.39a12.78,12.78,0,0,0,11.61,0,4.09,4.09,0,0,0,2.39-3.34v-.32C58.19,42,58.17,42,58.17,42.11Z"/><path class="cls-12" d="M57.67,40.23v1.43a2.16,2.16,0,0,1,0,.44,1.27,1.27,0,0,1,0,.2l-.06.23c0,.06,0,.13-.05.19l-.09.23c0,.06-.05.13-.08.19l-.14.22c0,.06-.07.13-.11.18s-.12.15-.18.23l-.13.17a2.39,2.39,0,0,1-.23.22c-.05.05-.1.11-.16.16l-.29.23-.16.13-.53.33a12,12,0,0,1-10.9,0c-.19-.11-.36-.22-.53-.34l-.15-.11-.31-.25-.16-.15-.23-.23L43,43.76c-.06-.08-.13-.15-.18-.23a1.74,1.74,0,0,1-.11-.18,1.76,1.76,0,0,1-.14-.23,1.54,1.54,0,0,1-.08-.19,1.6,1.6,0,0,1-.1-.23c0-.06,0-.13-.05-.19l-.06-.23a1.34,1.34,0,0,1,0-.2,1.79,1.79,0,0,1,0-.23,2.83,2.83,0,0,1,0-.29V40.18a3,3,0,0,0-.53,1.67,1.94,1.94,0,0,0,0,.24c0,.07,0,.15,0,.22a2.1,2.1,0,0,0,.06.24c0,.07,0,.14.05.21L42,43l.09.2a2.07,2.07,0,0,0,.15.25,2,2,0,0,0,.12.19c.06.09.13.16.19.24a1.3,1.3,0,0,0,.15.18,2,2,0,0,0,.25.25l.16.16.34.26.15.13.57.36a12.84,12.84,0,0,0,11.61,0c.2-.12.39-.24.56-.36l.17-.14.32-.24.17-.17.24-.24c.05,0,.09-.12.14-.18l.19-.24.12-.19c0-.08.1-.16.14-.24a1.21,1.21,0,0,0,.09-.2l.1-.24c0-.07,0-.14.05-.21a2.1,2.1,0,0,0,.06-.24c0-.07,0-.14,0-.21A3,3,0,0,0,57.67,40.23Z"/><path class="cls-13" d="M58.17,37.31c0,.07,0,.14,0,.21s0,.16-.06.25,0,.13-.05.2-.07.16-.1.25,0,.13-.09.2-.09.16-.14.24l-.12.19-.19.24-.14.18-.24.24-.17.17-.32.24-.17.14a6,6,0,0,1-.56.36,12.81,12.81,0,0,1-11.61,0l-.57-.36-.15-.13-.34-.26L43,39.51a2,2,0,0,1-.25-.25c-.06-.06-.1-.12-.15-.18l-.19-.24a2.12,2.12,0,0,1-.12-.2c0-.08-.11-.16-.15-.24L42,38.2l-.1-.24c0-.07,0-.15-.05-.21a2.27,2.27,0,0,1-.06-.25c0-.07,0-.14,0-.21a1.94,1.94,0,0,1,0-.24v.3c0,1.22.8,2.45,2.42,3.39a12.84,12.84,0,0,0,11.61,0c1.59-.93,2.38-2.13,2.39-3.34v-.32C58.19,37.16,58.17,37.24,58.17,37.31Z"/><path class="cls-14" d="M57.67,35.43v1.42a2.26,2.26,0,0,1,0,.45,1.41,1.41,0,0,1,0,.2l-.06.23c0,.06,0,.13-.05.19l-.09.23c0,.06-.05.13-.08.19l-.14.22-.11.18c-.05.08-.12.15-.18.23l-.13.17-.23.22-.16.16-.29.23-.16.13c-.17.11-.34.23-.53.33a12,12,0,0,1-10.9,0c-.19-.11-.36-.22-.53-.34l-.15-.12a2.55,2.55,0,0,1-.31-.24l-.16-.15-.23-.23c-.05-.06-.09-.12-.14-.17s-.13-.15-.18-.23a1.74,1.74,0,0,1-.11-.18c-.05-.08-.1-.15-.14-.23a1.08,1.08,0,0,1-.08-.19,1.6,1.6,0,0,1-.1-.23c0-.06,0-.13-.05-.19l-.06-.23a1.34,1.34,0,0,1,0-.2,1.79,1.79,0,0,1,0-.23,2.64,2.64,0,0,1,0-.29V35.37a3.08,3.08,0,0,0-.53,1.68,1.94,1.94,0,0,0,0,.24c0,.07,0,.15,0,.22a2.1,2.1,0,0,0,.06.24c0,.07,0,.14.05.21l.1.24.09.21a1.82,1.82,0,0,0,.15.23,1.32,1.32,0,0,0,.12.2l.19.24.15.19a2.89,2.89,0,0,0,.25.24l.16.16.34.26.15.12c.18.13.37.25.57.37a12.84,12.84,0,0,0,11.61,0c.2-.12.39-.24.56-.36l.17-.14.32-.24.17-.17.24-.24.14-.18a2.23,2.23,0,0,0,.19-.24l.12-.19c0-.08.1-.16.14-.24a1.76,1.76,0,0,0,.09-.2L58,38c0-.07,0-.14.05-.21a2.1,2.1,0,0,0,.06-.24c0-.07,0-.14,0-.21A3,3,0,0,0,57.67,35.43Z"/><path class="cls-13" d="M58.17,36.52c0,.08,0,.15,0,.22a2.1,2.1,0,0,1-.06.24c0,.07,0,.14-.05.21l-.1.24a1.21,1.21,0,0,1-.09.2c0,.08-.09.16-.14.24l-.12.2-.19.24s-.09.12-.14.18l-.24.23-.17.17-.32.25-.17.13a4.48,4.48,0,0,1-.56.36,12.78,12.78,0,0,1-11.61,0l-.57-.36-.15-.13c-.12-.08-.23-.17-.34-.26L43,38.72a2.89,2.89,0,0,1-.25-.24c-.06-.06-.1-.13-.15-.19l-.19-.24a2,2,0,0,1-.12-.19c0-.08-.11-.16-.15-.24L42,37.41l-.1-.24c0-.07,0-.14-.05-.21a2.1,2.1,0,0,1-.06-.24c0-.08,0-.15,0-.22a1.94,1.94,0,0,1,0-.24h0v.31c0,1.23.8,2.46,2.42,3.39A12.78,12.78,0,0,0,55.8,40a4.09,4.09,0,0,0,2.39-3.34V36.3C58.19,36.37,58.17,36.45,58.17,36.52Z"/><path class="cls-14" d="M57.67,34.64v1.43a2.16,2.16,0,0,1,0,.44,1.27,1.27,0,0,1,0,.2l-.06.23c0,.06,0,.13-.05.2l-.09.22c0,.06-.05.13-.08.19s-.09.15-.14.23l-.11.18-.18.22a1.09,1.09,0,0,1-.13.17,2.39,2.39,0,0,1-.23.22,1.21,1.21,0,0,1-.16.16l-.29.23-.16.13c-.17.11-.34.23-.53.34a12,12,0,0,1-10.9,0,4.79,4.79,0,0,1-.53-.34L43.87,39a2.6,2.6,0,0,1-.31-.25l-.16-.15-.23-.23c-.05-.05-.09-.11-.14-.17L42.85,38l-.11-.19-.14-.22a1.67,1.67,0,0,1-.08-.2,2.14,2.14,0,0,1-.1-.22c0-.07,0-.13-.05-.2l-.06-.23a1.34,1.34,0,0,1,0-.2,1.79,1.79,0,0,1,0-.23c0-.09,0-.19,0-.29V34.59a3,3,0,0,0-.53,1.67,2.29,2.29,0,0,0,0,.25c0,.07,0,.14,0,.21a2.1,2.1,0,0,0,.06.24c0,.07,0,.14.05.21l.1.24.09.21c0,.08.1.16.15.24a2,2,0,0,0,.12.19l.19.24c0,.06.09.13.15.19a2.89,2.89,0,0,0,.25.24l.16.16c.11.09.22.18.34.26l.15.13.57.36a12.84,12.84,0,0,0,11.61,0,6,6,0,0,0,.56-.36l.17-.13.32-.25.17-.17.24-.23.14-.18.19-.24.12-.2c0-.08.1-.16.14-.24a1.21,1.21,0,0,0,.09-.2l.1-.24c0-.07,0-.14.05-.21a2.1,2.1,0,0,0,.06-.24c0-.07,0-.14,0-.21A3,3,0,0,0,57.67,34.64Z"/><path class="cls-13" d="M58.17,35.7c0,.07,0,.14,0,.21a2.27,2.27,0,0,1-.06.25c0,.07,0,.14-.05.21s-.07.15-.1.24,0,.13-.09.2-.09.16-.14.24l-.12.19-.19.24-.14.18L57,37.9l-.17.17-.32.24-.17.14a6,6,0,0,1-.56.36,12.78,12.78,0,0,1-11.61,0l-.57-.36-.15-.13-.34-.26L43,37.9a2.89,2.89,0,0,1-.25-.24l-.15-.19-.19-.24a2,2,0,0,1-.12-.19c0-.09-.11-.17-.15-.25l-.09-.2-.1-.24c0-.07,0-.14-.05-.21a1.83,1.83,0,0,1-.06-.25c0-.07,0-.14,0-.21a1.94,1.94,0,0,1,0-.24v.3c0,1.23.8,2.45,2.42,3.39a12.84,12.84,0,0,0,11.61,0,4.09,4.09,0,0,0,2.39-3.34v-.32C58.19,35.55,58.17,35.63,58.17,35.7Z"/><path class="cls-14" d="M57.67,33.82v1.43a2.16,2.16,0,0,1,0,.44,1.34,1.34,0,0,1,0,.2l-.06.23c0,.06,0,.13-.05.19l-.09.23c0,.06-.05.13-.08.19l-.14.22-.11.19-.18.22-.13.17-.23.22c-.05,0-.1.11-.16.16l-.29.23-.16.13c-.17.11-.34.23-.53.33a12,12,0,0,1-10.9,0c-.19-.11-.36-.22-.53-.34l-.15-.12a2.55,2.55,0,0,1-.31-.24l-.16-.15-.23-.23c-.05-.05-.09-.12-.14-.17s-.13-.15-.18-.23a1.74,1.74,0,0,1-.11-.18l-.14-.22a1.67,1.67,0,0,1-.08-.2,2.14,2.14,0,0,1-.1-.22c0-.07,0-.14-.05-.2l-.06-.23a1.34,1.34,0,0,1,0-.2,1.79,1.79,0,0,1,0-.23,2.64,2.64,0,0,1,0-.29V33.77a3,3,0,0,0-.53,1.67,1.94,1.94,0,0,0,0,.24c0,.08,0,.15,0,.22a2.1,2.1,0,0,0,.06.24c0,.07,0,.14.05.21l.1.24.09.21c0,.08.1.16.15.24a2,2,0,0,0,.12.19l.19.24.15.19a2.89,2.89,0,0,0,.25.24l.16.16.34.26.15.12c.18.13.37.25.57.37a12.84,12.84,0,0,0,11.61,0c.2-.12.39-.24.56-.36l.17-.14.32-.24L57,37.9l.24-.23.14-.19.19-.23.12-.2c0-.08.1-.16.14-.24a1.76,1.76,0,0,0,.09-.2l.1-.24c0-.07,0-.14.05-.21a2.1,2.1,0,0,0,.06-.24c0-.07,0-.14,0-.21A3,3,0,0,0,57.67,33.82Z"/><path class="cls-13" d="M58.17,29.6c0,.07,0,.14,0,.21a2.1,2.1,0,0,1-.06.24c0,.07,0,.14-.05.21l-.1.24a1.21,1.21,0,0,1-.09.2c0,.08-.09.16-.14.24l-.12.2a2.11,2.11,0,0,1-.19.23l-.14.19-.24.23-.17.17a3.92,3.92,0,0,1-.32.25l-.17.13a4.48,4.48,0,0,1-.56.36,12.78,12.78,0,0,1-11.61,0,5.5,5.5,0,0,1-.57-.36l-.15-.13L43.13,32,43,31.79a2.89,2.89,0,0,1-.25-.24c-.06-.06-.1-.13-.15-.19s-.13-.15-.19-.24a2,2,0,0,1-.12-.19c0-.08-.11-.16-.15-.24L42,30.48l-.1-.24c0-.07,0-.14-.05-.21a2.1,2.1,0,0,1-.06-.24c0-.07,0-.15,0-.22a1.94,1.94,0,0,1,0-.24v.3c0,1.23.8,2.45,2.42,3.39A12.78,12.78,0,0,0,55.8,33a4.09,4.09,0,0,0,2.39-3.34v-.32C58.19,29.44,58.17,29.52,58.17,29.6Z"/><path class="cls-14" d="M57.67,27.71v1.43a2.16,2.16,0,0,1,0,.44,1.27,1.27,0,0,1,0,.2L57.6,30c0,.06,0,.13-.05.2l-.09.22c0,.06-.05.13-.08.19s-.09.15-.14.23l-.11.18-.18.22a1.09,1.09,0,0,1-.13.17,2.39,2.39,0,0,1-.23.22,1.21,1.21,0,0,1-.16.16l-.29.23-.16.13c-.17.12-.34.23-.53.34a12,12,0,0,1-10.9,0L44,32.16,43.87,32a2.6,2.6,0,0,1-.31-.25l-.16-.15-.23-.23c-.05-.05-.09-.11-.14-.17L42.85,31a1.18,1.18,0,0,1-.11-.19l-.14-.22a1.67,1.67,0,0,1-.08-.2,2.14,2.14,0,0,1-.1-.22c0-.07,0-.13-.05-.2l-.06-.23a1.27,1.27,0,0,1,0-.2,1.64,1.64,0,0,1,0-.23c0-.09,0-.19,0-.29V27.66a3.07,3.07,0,0,0-.53,1.67,2.11,2.11,0,0,0,0,.25c0,.07,0,.14,0,.21s0,.16.06.25,0,.13.05.2l.1.24.09.21c0,.08.1.16.15.24a1.22,1.22,0,0,0,.12.19,2.51,2.51,0,0,0,.19.24c0,.06.09.13.15.19a2.89,2.89,0,0,0,.25.24l.16.16c.11.09.22.18.34.26l.15.13c.18.12.37.25.57.36a12.84,12.84,0,0,0,11.61,0,4.48,4.48,0,0,0,.56-.36l.17-.13c.11-.09.22-.16.32-.25l.17-.17.24-.23c.05-.06.09-.13.14-.18l.19-.24.12-.2a1.88,1.88,0,0,0,.14-.24,1.21,1.21,0,0,0,.09-.2l.1-.24c0-.07,0-.14.05-.21a2.1,2.1,0,0,0,.06-.24c0-.07,0-.14,0-.21A3,3,0,0,0,57.67,27.71Z"/><path class="cls-13" d="M58.17,28.81c0,.07,0,.14,0,.21a2.1,2.1,0,0,1-.06.24c0,.07,0,.14-.05.21l-.1.24a1.89,1.89,0,0,1-.09.21c0,.08-.09.15-.14.23l-.12.2-.19.24-.14.18L57,31l-.17.17a3.92,3.92,0,0,1-.32.25l-.17.14c-.17.12-.36.24-.56.36a12.84,12.84,0,0,1-11.61,0c-.2-.12-.39-.24-.57-.37l-.15-.13-.34-.25L43,31a2.89,2.89,0,0,1-.25-.24c-.06-.06-.1-.12-.15-.18l-.19-.24a2.12,2.12,0,0,1-.12-.2c0-.08-.11-.16-.15-.24L42,29.69l-.1-.24c0-.07,0-.14-.05-.21a2.1,2.1,0,0,1-.06-.24c0-.07,0-.14,0-.22a1.94,1.94,0,0,1,0-.24h0v.32c0,1.22.8,2.45,2.42,3.38a12.81,12.81,0,0,0,11.61,0c1.59-.93,2.38-2.13,2.39-3.34v-.32C58.19,28.66,58.17,28.73,58.17,28.81Z"/><path class="cls-14" d="M57.67,26.93v1.42a2.26,2.26,0,0,1,0,.45,1.34,1.34,0,0,1,0,.2l-.06.22c0,.07,0,.13-.05.2l-.09.22c0,.07-.05.13-.08.19s-.09.15-.14.23l-.11.18c-.05.08-.12.15-.18.23l-.13.17-.23.22-.16.15-.29.23-.16.13c-.17.12-.34.23-.53.34a12,12,0,0,1-10.9,0c-.19-.11-.36-.22-.53-.34l-.15-.12c-.11-.08-.22-.16-.31-.24s-.1-.11-.16-.15l-.23-.23c-.05-.06-.09-.12-.14-.17s-.13-.15-.18-.23a1.18,1.18,0,0,1-.11-.19,1.64,1.64,0,0,1-.14-.22,1.54,1.54,0,0,1-.08-.19,2.29,2.29,0,0,1-.1-.23c0-.06,0-.13-.05-.2L42.31,29a1.48,1.48,0,0,1,0-.21,1.64,1.64,0,0,1,0-.22c0-.1,0-.2,0-.3V26.87a3.08,3.08,0,0,0-.53,1.68,1.94,1.94,0,0,0,0,.24c0,.07,0,.14,0,.21a1.83,1.83,0,0,0,.06.25c0,.07,0,.14.05.21l.1.24.09.2c0,.08.1.16.15.24a2.12,2.12,0,0,0,.12.2l.19.24c0,.06.09.12.15.18A2.89,2.89,0,0,0,43,31l.16.17.34.25.15.13a5.5,5.5,0,0,0,.57.36,12.84,12.84,0,0,0,11.61,0,6,6,0,0,0,.56-.37l.17-.13a3.92,3.92,0,0,0,.32-.25L57,31l.24-.23.14-.18.19-.24.12-.19c0-.08.1-.16.14-.24s.06-.14.09-.2.07-.16.1-.25,0-.13.05-.2a2.27,2.27,0,0,0,.06-.25c0-.06,0-.14,0-.21A3,3,0,0,0,57.67,26.93Z"/><path class="cls-13" d="M58.17,28c0,.07,0,.14,0,.21a2.1,2.1,0,0,1-.06.24c0,.07,0,.14-.05.21l-.1.24a1.21,1.21,0,0,1-.09.2,1.88,1.88,0,0,1-.14.24l-.12.2a2.11,2.11,0,0,1-.19.23l-.14.19-.24.23-.17.17a3.92,3.92,0,0,1-.32.25l-.17.13a6,6,0,0,1-.56.37,12.84,12.84,0,0,1-11.61,0c-.2-.12-.39-.24-.57-.37l-.15-.13-.34-.25L43,30.18a2.89,2.89,0,0,1-.25-.24,1.39,1.39,0,0,1-.15-.19l-.19-.23c-.05-.07-.08-.14-.12-.2s-.11-.16-.15-.24L42,28.87l-.1-.24c0-.07,0-.14-.05-.21a2.1,2.1,0,0,1-.06-.24c0-.07,0-.15,0-.22a1.94,1.94,0,0,1,0-.24h0V28c0,1.22.8,2.45,2.42,3.38a12.78,12.78,0,0,0,11.61,0,4.09,4.09,0,0,0,2.39-3.34v-.31C58.19,27.83,58.17,27.91,58.17,28Z"/><path class="cls-14" d="M57.67,26.11v1.42a2.26,2.26,0,0,1,0,.45,1.21,1.21,0,0,1,0,.19l-.06.23c0,.07,0,.13-.05.2l-.09.22c0,.06-.05.13-.08.19s-.09.15-.14.23l-.11.18a1.92,1.92,0,0,1-.18.22,1.09,1.09,0,0,1-.13.17c-.07.08-.15.15-.23.23l-.16.15-.29.23-.16.13c-.17.12-.34.23-.53.34a12,12,0,0,1-10.9,0c-.19-.11-.36-.22-.53-.34l-.15-.12a2.6,2.6,0,0,1-.31-.25c-.06,0-.1-.1-.16-.15l-.23-.23c-.05-.05-.09-.11-.14-.17l-.18-.22a1.18,1.18,0,0,1-.11-.19A1.64,1.64,0,0,1,42.6,29c0-.07-.05-.13-.08-.19a2.29,2.29,0,0,1-.1-.23c0-.07,0-.13-.05-.2l-.06-.23a1.27,1.27,0,0,1,0-.2,1.64,1.64,0,0,1,0-.23c0-.09,0-.19,0-.29V26.05a3.07,3.07,0,0,0-.53,1.67,2,2,0,0,0,0,.25c0,.07,0,.14,0,.21s0,.16.06.25,0,.13.05.2.07.16.1.25l.09.2c0,.08.1.16.15.24a2.12,2.12,0,0,0,.12.2l.19.24c0,.06.09.12.15.18a2.89,2.89,0,0,0,.25.24l.16.17.34.25.15.13a5.5,5.5,0,0,0,.57.36,12.84,12.84,0,0,0,11.61,0,4.48,4.48,0,0,0,.56-.36l.17-.13a3.92,3.92,0,0,0,.32-.25l.17-.17.24-.23.14-.18.19-.24.12-.2a1.88,1.88,0,0,0,.14-.24,1.21,1.21,0,0,0,.09-.2l.1-.24c0-.07,0-.14.05-.2s0-.17.06-.25,0-.14,0-.21A3,3,0,0,0,57.67,26.11Z"/><path class="cls-11" d="M48.87,23.79a.11.11,0,0,0,0,.05.14.14,0,0,1,0,.07.09.09,0,0,1,0,.05s0,0,0,.06l0,.06,0,.06s0,0,0,.05l0,.06,0,.05-.07.06,0,.05-.08.06,0,0-.14.09a3.33,3.33,0,0,1-3,0l-.15-.09,0,0-.09-.06,0-.05-.06-.06,0-.05,0-.06s0,0,0-.05l0-.06a.14.14,0,0,1,0-.06l0-.06s0,0,0-.06,0,0,0-.06a.13.13,0,0,1,0-.06v-.06h0v.08a1,1,0,0,0,.63.88,3.33,3.33,0,0,0,3,0,1.06,1.06,0,0,0,.62-.87v0Z"/><path class="cls-12" d="M48.24,22.84a3.39,3.39,0,0,0-3,0,1.06,1.06,0,0,0-.62.88v.06a.13.13,0,0,0,0,.06s0,0,0,.06,0,0,0,.06l0,.06a.14.14,0,0,0,0,.06l0,.06s0,0,0,.05l0,.06,0,.05.06.06,0,.05.09.06,0,0,.15.09a3.33,3.33,0,0,0,3,0l.14-.09,0,0,.08-.06,0-.05.07-.06,0-.05,0-.06s0,0,0-.05l0-.06,0-.06s0,0,0-.06a.09.09,0,0,0,0-.05.14.14,0,0,0,0-.07.11.11,0,0,1,0-.05A1,1,0,0,0,48.24,22.84Zm.33,1s0,0,0,.06,0,0,0,0a.14.14,0,0,1,0,.06s0,0,0,0l0,.06,0,0,0,.06,0,0-.06.05,0,0-.07.05,0,0-.13.08a2.93,2.93,0,0,1-2.63,0l-.12-.09a.05.05,0,0,0,0,0l-.07-.06s0,0,0,0l-.06-.06,0,0,0-.05,0,0L45,24l0-.05,0,0s0,0,0-.05a.09.09,0,0,1,0-.05.07.07,0,0,0,0-.05v-.06a.91.91,0,0,1,.54-.75A2.88,2.88,0,0,1,48,23a.87.87,0,0,1,.54.81Z"/><path class="cls-15" d="M48,24.32a.57.57,0,0,1,.13.08h0l0,0,.07-.05,0,0,.06-.05,0,0,0-.06,0,0,0-.06s0,0,0,0a.14.14,0,0,0,0-.06s0,0,0,0,0,0,0-.06v-.05A.87.87,0,0,0,48,23a2.88,2.88,0,0,0-2.62,0,.91.91,0,0,0-.54.75v.06a.07.07,0,0,1,0,.05.09.09,0,0,0,0,.05s0,0,0,.05l0,0L45,24l0,.06,0,0,0,.05,0,0,.06.06s0,0,0,0l.07.06,0,0,.12-.07A2.82,2.82,0,0,1,48,24.32Z"/><path class="cls-16" d="M45.41,24.48a2.93,2.93,0,0,0,2.63,0l.12-.08a.57.57,0,0,0-.13-.08,2.82,2.82,0,0,0-2.62,0l-.12.07h0Z"/><path class="cls-19" d="M44.58,23.78a.13.13,0,0,0,0,.06s0,0,0,.06,0,0,0,.06l0,.06a.14.14,0,0,0,0,.06.21.21,0,0,0,0,.06l0,.05,0,.06,0,.05.06.06,0,.05.08.06,0,0,.15.09a3.33,3.33,0,0,0,3,0l.14-.09,0,0,.08-.06,0-.05.06-.06,0-.05,0-.06a.1.1,0,0,0,0-.05l0-.06,0-.06s0,0,0-.06l0-.05s0,0,0-.07a.11.11,0,0,1,0-.05,1,1,0,0,0-.63-.95,3.39,3.39,0,0,0-3,0,1.06,1.06,0,0,0-.62.88Z"/><path class="cls-2" d="M12.39,19H24.73l-2.2,10.44H3.5A3.5,3.5,0,0,1,1.6,23L4,21.52A15.48,15.48,0,0,1,12.39,19Z"/><path class="cls-3" d="M17.91,28.51l3.55.68,4-.16,3.38-1.48,1.32-1.88v-.11h0V4.76a.45.45,0,0,1,0,.11.31.31,0,0,1,0,.1.49.49,0,0,1,0,.12s0,.07,0,.1l0,.11s0,.07,0,.11,0,.07,0,.11l0,.1s0,.08,0,.11l-.05.1a.61.61,0,0,1-.05.12.41.41,0,0,1,0,.09l-.06.11-.06.1-.07.11a.86.86,0,0,1-.07.1,1,1,0,0,0-.08.11l-.08.09a.43.43,0,0,1-.09.1l-.08.1a1.14,1.14,0,0,0-.11.11L29,7.05l-.12.11-.1.08-.13.11-.09.07-.15.11-.1.07-.18.12L28,7.78l-.28.16a12,12,0,0,1-10.9-.11l-.26-.17-.08,0-.17-.12-.09-.07-.13-.11A.71.71,0,0,1,16,7.24l-.13-.11-.08-.08L15.7,7l-.08-.09a.94.94,0,0,0-.1-.1l-.07-.1-.09-.1-.06-.09a.76.76,0,0,1-.08-.11l-.06-.09a.6.6,0,0,1-.06-.11L15,6.06A.47.47,0,0,1,15,6a.93.93,0,0,0-.05-.1s0-.07,0-.11a.3.3,0,0,1,0-.1s0-.07,0-.11l0-.1a.52.52,0,0,0,0-.11l0-.1a.36.36,0,0,1,0-.11s0-.06,0-.1a.45.45,0,0,0,0-.11v20.7c0,.06,0,.14,0,.21l1.34,1.51Z"/><path class="cls-20" d="M17.91,28.51l3.55.68,4-.16,3.38-1.48,1.32-1.88v-.11h0V4.76a.45.45,0,0,1,0,.11.31.31,0,0,1,0,.1.49.49,0,0,1,0,.12s0,.07,0,.1l0,.11s0,.07,0,.11,0,.07,0,.11l0,.1s0,.08,0,.11l-.05.1a.61.61,0,0,1-.05.12.41.41,0,0,1,0,.09l-.06.11-.06.1-.07.11a.86.86,0,0,1-.07.1,1,1,0,0,0-.08.11l-.08.09a.43.43,0,0,1-.09.1l-.08.1a1.14,1.14,0,0,0-.11.11L29,7.05l-.12.11-.1.08-.13.11-.09.07-.15.11-.1.07-.18.12L28,7.78l-.28.16a12,12,0,0,1-10.9-.11l-.26-.17-.08,0-.17-.12-.09-.07-.13-.11A.71.71,0,0,1,16,7.24l-.13-.11-.08-.08L15.7,7l-.08-.09a.94.94,0,0,0-.1-.1l-.07-.1-.09-.1-.06-.09a.76.76,0,0,1-.08-.11l-.06-.09a.6.6,0,0,1-.06-.11L15,6.06A.47.47,0,0,1,15,6a.93.93,0,0,0-.05-.1s0-.07,0-.11a.3.3,0,0,1,0-.1s0-.07,0-.11l0-.1a.52.52,0,0,0,0-.11l0-.1a.36.36,0,0,1,0-.11s0-.06,0-.1a.45.45,0,0,0,0-.11v20.7c0,.06,0,.14,0,.21l1.34,1.51Z"/><path class="cls-5" d="M17.07,2.13a9.86,9.86,0,0,1,2.75-1c.62-.12,1-.18,1.3-.21A12,12,0,0,1,22.4.86,12.74,12.74,0,0,1,25,1.13a9.36,9.36,0,0,1,3,1.11A4,4,0,0,1,30.09,5V5a.31.31,0,0,0,0-.1.45.45,0,0,0,0-.11A3.74,3.74,0,0,0,28,1.63,9.61,9.61,0,0,0,25,.51,13.33,13.33,0,0,0,22.4.25a12.32,12.32,0,0,0-2.58.28,9.86,9.86,0,0,0-2.75,1c-1.61.89-2.4,2.1-2.37,3.29v.1a.45.45,0,0,1,0,.11.08.08,0,0,1,0,0A4.11,4.11,0,0,1,17.07,2.13Z"/><path class="cls-6" d="M30.08,5.09s0,.07,0,.1l0,.11s0,.07,0,.11,0,.07,0,.11l0,.1s0,.08,0,.11l-.05.1a.61.61,0,0,1-.05.12.41.41,0,0,1,0,.09l-.06.11-.06.1-.07.11a.86.86,0,0,1-.07.1,1,1,0,0,0-.08.11l-.08.09a.43.43,0,0,1-.09.1l-.08.1a1.14,1.14,0,0,0-.11.11L29,7.05l-.12.11-.1.08-.13.11-.09.07-.15.11-.1.07-.18.12L28,7.78l-.28.16a12,12,0,0,1-10.9-.11l-.26-.17-.08,0-.17-.12-.09-.07-.13-.11A.71.71,0,0,1,16,7.24l-.13-.11-.08-.08L15.7,7l-.08-.09a.94.94,0,0,0-.1-.1l-.07-.1-.09-.1-.06-.09a.76.76,0,0,1-.08-.11l-.06-.09a.6.6,0,0,1-.06-.11L15,6.06A.47.47,0,0,1,15,6a.93.93,0,0,0-.05-.1s0-.07,0-.11a.3.3,0,0,1,0-.1s0-.07,0-.11l0-.1a.52.52,0,0,0,0-.11l0-.1a.36.36,0,0,1,0-.11.13.13,0,0,1,0-.06,2.17,2.17,0,0,0,0,.36v.1a.45.45,0,0,1,0,.11s0,.07,0,.1a.36.36,0,0,0,0,.11.3.3,0,0,0,0,.1.52.52,0,0,1,0,.11l0,.1s0,.08,0,.11a.3.3,0,0,0,0,.1s0,.08,0,.11,0,.07.05.1l0,.1.06.1a.6.6,0,0,0,.06.11l.06.09a.76.76,0,0,0,.08.11l.06.09.09.11a.35.35,0,0,1,.07.09.94.94,0,0,1,.1.1l.08.09.11.1a.6.6,0,0,0,.08.08l.13.11.09.08.13.1.09.07.17.12.08,0,.26.17a12,12,0,0,0,10.9.11L28,8.39l.09-.06.18-.12.1-.07.15-.1L28.63,8l.13-.1.1-.08L29,7.66l.08-.09.11-.1.08-.09a.87.87,0,0,0,.09-.11l.08-.09a1,1,0,0,1,.08-.11s0-.07.07-.1l.07-.1.06-.11.06-.1a.93.93,0,0,0,0-.1.61.61,0,0,0,.05-.12l.05-.1s0-.07,0-.11l0-.1s0-.07,0-.11,0-.07,0-.11l0-.11s0-.07,0-.1a.45.45,0,0,0,0-.11.41.41,0,0,0,0-.11.41.41,0,0,0,0-.11c0-.12,0-.23,0-.34Z"/><path class="cls-6" d="M14.75,5.23l0,.1a.52.52,0,0,1,0,.11l0,.1s0,.07,0,.11a.3.3,0,0,0,0,.1s0,.07,0,.11A.93.93,0,0,1,15,6a.47.47,0,0,0,0,.1l.06.1a.6.6,0,0,0,.06.11l.06.09a.76.76,0,0,0,.08.11l.06.09.09.1.07.1a.94.94,0,0,1,.1.1L15.7,7l.11.1.08.08.13.11a.71.71,0,0,0,.09.07l.13.11.09.07.17.12.08,0,.26.17a12,12,0,0,0,10.9.11L28,7.78l.09-.06.18-.12.1-.07.15-.11.09-.07.13-.11.1-.08L29,7.05,29.06,7a1.14,1.14,0,0,1,.11-.11l.08-.1a.43.43,0,0,0,.09-.1l.08-.09a1,1,0,0,1,.08-.11.86.86,0,0,0,.07-.1l.07-.11.06-.1L29.76,6a.41.41,0,0,0,0-.09.61.61,0,0,0,.05-.12l.05-.1s0-.07,0-.11l0-.1s0-.07,0-.11,0-.07,0-.11l0-.11s0-.07,0-.1V5A4,4,0,0,0,28,2.24a9.36,9.36,0,0,0-3-1.11A12.74,12.74,0,0,0,22.4.86a12,12,0,0,0-1.28.07c-.29,0-.68.09-1.3.21a9.86,9.86,0,0,0-2.75,1,4.11,4.11,0,0,0-2.35,2.93.13.13,0,0,0,0,.06A.36.36,0,0,0,14.75,5.23Z"/><g class="cls-7"><rect class="cls-8" x="22.35" y="9.61" width="0.12" height="19.42"/><rect class="cls-9" x="22.35" y="9.61" width="0.05" height="19.42"/></g><g class="cls-7"><rect class="cls-8" x="27.24" y="8.6" width="0.12" height="19.43"/><rect class="cls-9" x="27.24" y="8.6" width="0.05" height="19.43"/></g><g class="cls-7"><rect class="cls-10" x="29.76" y="6.55" width="0.12" height="19.42"/><rect class="cls-8" x="29.76" y="6.55" width="0.05" height="19.42"/></g><g class="cls-7"><rect class="cls-10" x="15.1" y="6.55" width="0.12" height="19.42" transform="translate(30.32 32.52) rotate(180)"/><rect class="cls-8" x="15.17" y="6.55" width="0.05" height="19.42" transform="translate(30.38 32.52) rotate(180)"/></g><g class="cls-7"><rect class="cls-8" x="17.36" y="8.6" width="0.12" height="19.43"/><rect class="cls-9" x="17.36" y="8.6" width="0.05" height="19.43"/></g><path class="cls-11" d="M30.58,5c0,.07,0,.14,0,.21l-.06.24c0,.07,0,.14-.05.21l-.1.24-.09.2c0,.08-.09.16-.14.24a2.12,2.12,0,0,1-.12.2c-.05.08-.13.15-.19.23L29.67,7l-.24.23-.17.17L29,7.61l-.18.13-.55.36a12.77,12.77,0,0,1-11.58,0l-.57-.36-.16-.13-.33-.26-.16-.16A2.89,2.89,0,0,1,15.17,7c-.06-.06-.1-.13-.15-.19l-.19-.23-.12-.2c-.05-.08-.1-.16-.14-.24a1.89,1.89,0,0,1-.09-.21,2.56,2.56,0,0,1-.11-.24c0-.07,0-.14,0-.21a2.1,2.1,0,0,1-.06-.24c0-.07,0-.14,0-.21s0-.16,0-.24V5c0,1.22.8,2.44,2.42,3.38a12.75,12.75,0,0,0,11.57,0c1.59-.92,2.38-2.13,2.38-3.33V4.77C30.59,4.85,30.58,4.92,30.58,5Z"/><path class="cls-12" d="M28.18,1.38a12.84,12.84,0,0,0-11.58,0,4.05,4.05,0,0,0-2.38,3.34c0,.08,0,.16,0,.24s0,.14,0,.21a1.68,1.68,0,0,0,.06.24c0,.08,0,.15,0,.21a2.72,2.72,0,0,0,.11.25c0,.06,0,.13.09.2s.09.16.14.24l.12.19.19.24c.05.06.09.13.15.19a2.89,2.89,0,0,0,.25.24l.16.16.33.26.16.13c.18.12.37.24.57.35a12.77,12.77,0,0,0,11.58,0l.55-.36L29,7.58l.31-.24.17-.17.24-.23a1.41,1.41,0,0,1,.14-.18c.06-.09.14-.16.19-.24a2.12,2.12,0,0,0,.12-.2l.14-.23.09-.21.1-.24c0-.06,0-.14.05-.2l.06-.25c0-.07,0-.14,0-.21C30.69,3.69,29.89,2.37,28.18,1.38ZM30.08,5a1.27,1.27,0,0,0,0,.2L30,5.39c0,.07,0,.13-.05.2a2,2,0,0,1-.09.22c0,.07-.05.13-.08.19s-.09.15-.14.23a1.74,1.74,0,0,1-.11.18l-.18.22a1.09,1.09,0,0,1-.13.17L29,7l-.17.16a3.67,3.67,0,0,1-.29.23,1,1,0,0,1-.16.12c-.16.12-.34.23-.52.34A12,12,0,0,1,17,7.87a5.37,5.37,0,0,1-.53-.34.88.88,0,0,1-.15-.12A2.55,2.55,0,0,1,16,7.17L15.85,7l-.23-.23s-.09-.11-.14-.17L15.3,6.4l-.11-.19L15.05,6c0-.07-.05-.13-.08-.19s-.07-.15-.1-.23,0-.13,0-.19,0-.16-.05-.23,0-.14,0-.2a2,2,0,0,1,0-.23A3.79,3.79,0,0,1,17,1.59a12,12,0,0,1,10.87,0C29.44,2.52,30.18,3.75,30.08,5Z"/><path class="cls-11" d="M30.6,24.66c0,.07,0,.14,0,.21a2.1,2.1,0,0,1-.06.24c0,.07,0,.14-.05.21l-.1.24a1.89,1.89,0,0,1-.09.21c0,.08-.09.16-.14.24a2,2,0,0,1-.12.19l-.19.24-.14.18-.24.24-.17.17-.32.24-.17.14c-.17.12-.36.24-.56.36a12.84,12.84,0,0,1-11.61,0,6,6,0,0,1-.56-.37l-.16-.12L15.56,27l-.16-.17a1.9,1.9,0,0,1-.25-.24L15,26.43l-.19-.24a2.12,2.12,0,0,1-.12-.2c0-.08-.11-.16-.15-.24a1.8,1.8,0,0,1-.08-.21,1,1,0,0,1-.1-.24c0-.07,0-.14-.06-.2s-.05-.17-.06-.25,0-.14,0-.21a2.11,2.11,0,0,1,0-.25h0v.32c0,1.22.8,2.45,2.42,3.39a12.84,12.84,0,0,0,11.61,0c1.59-.93,2.38-2.13,2.39-3.34v-.32C30.62,24.51,30.6,24.58,30.6,24.66Z"/><path class="cls-12" d="M30.1,22.78V24.2a2.26,2.26,0,0,1,0,.45,1.41,1.41,0,0,1,0,.2l-.06.23c0,.06,0,.13-.05.19s-.06.15-.09.23l-.08.18a1.76,1.76,0,0,1-.14.23,1.74,1.74,0,0,1-.11.18,1.92,1.92,0,0,1-.18.22l-.13.18-.23.22-.16.15-.29.24-.16.12c-.17.12-.34.23-.53.34a12,12,0,0,1-10.9,0c-.18-.11-.36-.22-.53-.34l-.15-.12c-.11-.08-.22-.16-.31-.24l-.16-.15-.23-.23-.14-.18a1.92,1.92,0,0,1-.18-.22l-.11-.18c-.05-.08-.1-.15-.14-.23s0-.13-.08-.19a2.29,2.29,0,0,1-.1-.23c0-.06,0-.13,0-.19l-.06-.23a1.34,1.34,0,0,1,0-.2,2,2,0,0,1,0-.23c0-.1,0-.2,0-.3V22.72a3.08,3.08,0,0,0-.53,1.68,1.94,1.94,0,0,0,0,.24c0,.07,0,.14,0,.21a2.27,2.27,0,0,0,.06.25,1.66,1.66,0,0,0,.06.21,1.22,1.22,0,0,0,.1.24,1.67,1.67,0,0,0,.08.2c0,.08.1.16.15.24a2.12,2.12,0,0,0,.12.2l.19.24.15.18a1.9,1.9,0,0,0,.25.24l.16.17.34.26.16.12a6,6,0,0,0,.56.37,12.84,12.84,0,0,0,11.61,0c.2-.12.39-.24.56-.36l.17-.14.32-.24.17-.17.24-.24.14-.18L30,26.2a2,2,0,0,0,.12-.19c.05-.08.1-.16.14-.24s.06-.14.09-.2l.1-.24c0-.07,0-.14.05-.21a2.1,2.1,0,0,0,.06-.24c0-.08,0-.15,0-.22A3,3,0,0,0,30.1,22.78Z"/><path class="cls-13" d="M30.6,19.86c0,.07,0,.14,0,.21a2.1,2.1,0,0,1-.06.24c0,.07,0,.14-.05.21l-.1.24a1.89,1.89,0,0,1-.09.21c0,.08-.09.15-.14.23a2.12,2.12,0,0,1-.12.2l-.19.24-.14.18-.24.23c-.06.06-.11.12-.17.17a3.92,3.92,0,0,1-.32.25l-.17.14c-.17.12-.36.24-.56.36a12.84,12.84,0,0,1-11.61,0,6,6,0,0,1-.56-.37l-.16-.12-.34-.26-.16-.17a2.89,2.89,0,0,1-.25-.24L15,21.63l-.19-.24a2.12,2.12,0,0,1-.12-.2c0-.08-.11-.16-.15-.24l-.08-.2a1.63,1.63,0,0,1-.1-.25,1.66,1.66,0,0,1-.06-.21,2.1,2.1,0,0,1-.06-.24c0-.07,0-.14,0-.22a1.94,1.94,0,0,1,0-.24h0v.32c0,1.22.8,2.45,2.42,3.38a12.81,12.81,0,0,0,11.61,0c1.59-.93,2.38-2.13,2.39-3.34v-.32C30.62,19.7,30.6,19.78,30.6,19.86Z"/><path class="cls-14" d="M30.1,18V19.4a2.26,2.26,0,0,1,0,.45,1.41,1.41,0,0,1,0,.2l-.06.22-.05.2a1.45,1.45,0,0,1-.09.22c0,.07-.05.13-.08.19s-.09.15-.14.23a1.74,1.74,0,0,1-.11.18,1.92,1.92,0,0,1-.18.22l-.13.18-.23.22-.16.15-.29.23-.16.13c-.17.12-.34.23-.53.34a12,12,0,0,1-10.9,0c-.18-.11-.36-.22-.53-.34l-.15-.12c-.11-.08-.22-.16-.31-.24s-.1-.11-.16-.16l-.23-.22c0-.06-.09-.12-.14-.17s-.13-.15-.18-.23l-.11-.19a1.64,1.64,0,0,1-.14-.22c0-.06,0-.13-.08-.19a2.29,2.29,0,0,1-.1-.23c0-.06,0-.13,0-.2L14.74,20a1.21,1.21,0,0,1,0-.19,2,2,0,0,1,0-.23c0-.1,0-.2,0-.3V17.92a3.07,3.07,0,0,0-.53,1.67,2,2,0,0,0,0,.25c0,.07,0,.14,0,.21a2.27,2.27,0,0,0,.06.25c0,.06,0,.14.06.21a1.22,1.22,0,0,0,.1.24,1.67,1.67,0,0,0,.08.2c0,.08.1.16.15.24a2.12,2.12,0,0,0,.12.2l.19.24.15.18a2.89,2.89,0,0,0,.25.24l.16.17.34.25.16.13a4.48,4.48,0,0,0,.56.36,12.84,12.84,0,0,0,11.61,0c.2-.12.39-.24.56-.36l.17-.14a3.92,3.92,0,0,0,.32-.25c.06,0,.11-.11.17-.17l.24-.23.14-.18L30,21.4a1.32,1.32,0,0,0,.12-.2,1.76,1.76,0,0,0,.14-.23c0-.07.06-.14.09-.2s.07-.16.1-.24,0-.14.05-.21a2.27,2.27,0,0,0,.06-.25c0-.07,0-.14,0-.21A3,3,0,0,0,30.1,18Z"/><path class="cls-13" d="M30.6,19.07c0,.07,0,.14,0,.21a1.83,1.83,0,0,1-.06.25c0,.06,0,.14-.05.2l-.1.25c0,.06-.05.13-.09.2s-.09.16-.14.24a2,2,0,0,1-.12.19l-.19.24-.14.18-.24.24-.17.17-.32.24-.17.14c-.17.12-.36.24-.56.36a12.78,12.78,0,0,1-11.61,0c-.2-.12-.39-.24-.56-.36l-.16-.13c-.12-.08-.23-.17-.34-.26l-.16-.16a2,2,0,0,1-.25-.25L15,20.84l-.19-.24a1.32,1.32,0,0,1-.12-.2,1.94,1.94,0,0,1-.15-.24,1.67,1.67,0,0,1-.08-.2,1.09,1.09,0,0,1-.1-.25,1.05,1.05,0,0,1-.06-.21,2.1,2.1,0,0,1-.06-.24c0-.07,0-.14,0-.21a2.11,2.11,0,0,1,0-.25h0v.32c0,1.23.8,2.45,2.42,3.39a12.81,12.81,0,0,0,11.61,0,4.09,4.09,0,0,0,2.39-3.34v-.32C30.62,18.92,30.6,19,30.6,19.07Z"/><path class="cls-14" d="M30.1,17.19v1.43a2.16,2.16,0,0,1,0,.44,1.34,1.34,0,0,1,0,.2l-.06.23c0,.06,0,.13-.05.19a2.18,2.18,0,0,1-.09.23c0,.06-.05.12-.08.19l-.14.22a1.08,1.08,0,0,1-.11.18c0,.08-.12.15-.18.23l-.13.17-.23.22-.16.16-.29.23-.16.12c-.17.12-.34.23-.53.34A12,12,0,0,1,17,22c-.18-.11-.36-.22-.53-.34l-.15-.12c-.11-.08-.22-.16-.31-.24l-.16-.15-.23-.23c0-.06-.09-.12-.14-.17s-.13-.15-.18-.23l-.11-.18a1.76,1.76,0,0,1-.14-.23c0-.06,0-.13-.08-.19a2.29,2.29,0,0,1-.1-.23c0-.06,0-.13,0-.19l-.06-.23a1.34,1.34,0,0,1,0-.2,1.79,1.79,0,0,1,0-.23,2.64,2.64,0,0,1,0-.29V17.14a3,3,0,0,0-.53,1.67,1.94,1.94,0,0,0,0,.24c0,.07,0,.14,0,.22a2.1,2.1,0,0,0,.06.24,1.66,1.66,0,0,0,.06.21,1.22,1.22,0,0,0,.1.24,1.19,1.19,0,0,0,.08.2,2.07,2.07,0,0,0,.15.25,2,2,0,0,0,.12.19l.19.24c.05.06.1.13.15.18a2,2,0,0,0,.25.25l.16.16.34.26.16.13c.17.12.36.24.56.36a12.84,12.84,0,0,0,11.61,0c.2-.12.39-.24.56-.36l.17-.14.32-.24.17-.17.24-.24.14-.18.19-.24a2,2,0,0,0,.12-.19c.05-.08.1-.16.14-.24a1.76,1.76,0,0,0,.09-.2l.1-.24c0-.07,0-.14.05-.21a2.1,2.1,0,0,0,.06-.24c0-.07,0-.14,0-.21A3,3,0,0,0,30.1,17.19Z"/><path class="cls-13" d="M30.6,18.25c0,.07,0,.14,0,.21a2.1,2.1,0,0,1-.06.24c0,.07,0,.14-.05.21l-.1.24a1.89,1.89,0,0,1-.09.21,1.76,1.76,0,0,1-.14.23,1.32,1.32,0,0,1-.12.2l-.19.24-.14.18-.24.24-.17.17-.32.24-.17.14c-.17.12-.36.24-.56.36a12.84,12.84,0,0,1-11.61,0,6,6,0,0,1-.56-.37l-.16-.12-.34-.26-.16-.16c-.09-.09-.18-.17-.25-.25L15,20l-.19-.24a2.12,2.12,0,0,1-.12-.2c0-.08-.11-.16-.15-.24l-.08-.2a1.3,1.3,0,0,1-.1-.25,1.66,1.66,0,0,1-.06-.21,2.1,2.1,0,0,1-.06-.24c0-.07,0-.14,0-.22a1.94,1.94,0,0,1,0-.24h0v.32c0,1.22.8,2.45,2.42,3.39a12.84,12.84,0,0,0,11.61,0,4.09,4.09,0,0,0,2.39-3.34V18C30.62,18.1,30.6,18.17,30.6,18.25Z"/><path class="cls-14" d="M30.1,16.37V17.8a2.16,2.16,0,0,1,0,.44,1.34,1.34,0,0,1,0,.2l-.06.22-.05.2a1.45,1.45,0,0,1-.09.22l-.08.2-.14.22a1.74,1.74,0,0,1-.11.18c0,.08-.12.15-.18.23l-.13.17L29,20.3l-.16.15-.29.23-.16.13c-.17.12-.34.23-.53.34a12,12,0,0,1-10.9,0c-.18-.11-.36-.22-.53-.34l-.15-.12c-.11-.08-.22-.16-.31-.24s-.1-.11-.16-.15l-.23-.23c0-.06-.09-.12-.14-.17s-.13-.15-.18-.23l-.11-.18c-.05-.08-.1-.15-.14-.23s0-.13-.08-.19a2.29,2.29,0,0,1-.1-.23c0-.06,0-.13,0-.2l-.06-.22a1.41,1.41,0,0,1,0-.2,2,2,0,0,1,0-.23c0-.1,0-.2,0-.3V16.31A3.08,3.08,0,0,0,14.2,18a1.94,1.94,0,0,0,0,.24c0,.07,0,.14,0,.21a1.83,1.83,0,0,0,.06.25,1.66,1.66,0,0,0,.06.21,1.22,1.22,0,0,0,.1.24,1.19,1.19,0,0,0,.08.2c0,.08.1.16.15.24a2.12,2.12,0,0,0,.12.2L15,20l.15.18c.07.08.16.16.25.25l.16.16.34.26.16.12a4.48,4.48,0,0,0,.56.36,12.81,12.81,0,0,0,11.61,0c.2-.12.39-.24.56-.36l.17-.14a3.92,3.92,0,0,0,.32-.25l.17-.16.24-.24.14-.18.19-.24a2,2,0,0,0,.12-.19c.05-.08.1-.16.14-.24s.06-.14.09-.2l.1-.24c0-.07,0-.14.05-.21a2.1,2.1,0,0,0,.06-.24c0-.07,0-.15,0-.22A3,3,0,0,0,30.1,16.37Z"/><path class="cls-13" d="M30.6,12.14c0,.07,0,.14,0,.22a2.1,2.1,0,0,1-.06.24c0,.07,0,.14-.05.21l-.1.24c0,.06-.05.13-.09.2s-.09.16-.14.24a2,2,0,0,1-.12.19l-.19.24-.14.18-.24.24-.17.17-.32.24-.17.14a4.48,4.48,0,0,1-.56.36,12.78,12.78,0,0,1-11.61,0c-.2-.12-.39-.24-.56-.36l-.16-.13-.34-.26-.16-.16a2,2,0,0,1-.25-.25L15,13.91l-.19-.24a1.32,1.32,0,0,1-.12-.2c0-.08-.11-.15-.15-.23a1.8,1.8,0,0,1-.08-.21,1.22,1.22,0,0,1-.1-.24,1.66,1.66,0,0,1-.06-.21c0-.09-.05-.17-.06-.25s0-.14,0-.21a2,2,0,0,1,0-.25h0v.32c0,1.23.8,2.45,2.42,3.39a12.81,12.81,0,0,0,11.61,0,4.09,4.09,0,0,0,2.39-3.34v-.32C30.62,12,30.6,12.06,30.6,12.14Z"/><path class="cls-14" d="M30.1,10.26v1.43a2.16,2.16,0,0,1,0,.44,1.27,1.27,0,0,1,0,.2l-.06.23c0,.06,0,.13-.05.19a2.18,2.18,0,0,1-.09.23c0,.06-.05.13-.08.19l-.14.22a1.08,1.08,0,0,1-.11.18c0,.08-.12.15-.18.23l-.13.17-.23.22c-.05.05-.1.11-.16.16l-.29.23-.16.13-.53.33A12,12,0,0,1,17,15c-.18-.11-.36-.22-.53-.34l-.15-.12c-.11-.08-.22-.16-.31-.24l-.16-.15L15.6,14l-.14-.17c-.06-.08-.13-.15-.18-.23l-.11-.18a1.76,1.76,0,0,1-.14-.23c0-.06,0-.13-.08-.19a1.6,1.6,0,0,1-.1-.23c0-.06,0-.13,0-.19l-.06-.23a1.41,1.41,0,0,1,0-.2,1.79,1.79,0,0,1,0-.23,2.64,2.64,0,0,1,0-.29V10.21a3,3,0,0,0-.53,1.67,1.94,1.94,0,0,0,0,.24c0,.07,0,.15,0,.22a2.1,2.1,0,0,0,.06.24,1.66,1.66,0,0,0,.06.21,1.22,1.22,0,0,0,.1.24,1.8,1.8,0,0,0,.08.21c0,.08.1.16.15.24a2,2,0,0,0,.12.19l.19.24.15.18a2,2,0,0,0,.25.25l.16.16.34.26.16.13c.17.12.36.24.56.36a12.84,12.84,0,0,0,11.61,0c.2-.12.39-.24.56-.36l.17-.14.32-.24.17-.17.24-.24.14-.18.19-.24a2,2,0,0,0,.12-.19c.05-.08.1-.16.14-.24a1.76,1.76,0,0,0,.09-.2l.1-.24c0-.07,0-.14.05-.21a2.1,2.1,0,0,0,.06-.24c0-.07,0-.14,0-.21A3,3,0,0,0,30.1,10.26Z"/><path class="cls-13" d="M30.6,11.35c0,.08,0,.15,0,.22a2.1,2.1,0,0,1-.06.24c0,.07,0,.14-.05.21l-.1.24a1.76,1.76,0,0,1-.09.2c0,.08-.09.16-.14.24a2.12,2.12,0,0,1-.12.2l-.19.23-.14.19-.24.23-.17.17L29,14l-.17.13a4.48,4.48,0,0,1-.56.36,12.78,12.78,0,0,1-11.61,0,6,6,0,0,1-.56-.36L15.9,14c-.12-.08-.23-.17-.34-.26l-.16-.16a2.89,2.89,0,0,1-.25-.24c-.05-.06-.1-.13-.15-.18s-.13-.17-.19-.25a2,2,0,0,1-.12-.19c0-.08-.11-.16-.15-.24a1.8,1.8,0,0,1-.08-.21,1.22,1.22,0,0,1-.1-.24,1.66,1.66,0,0,1-.06-.21,1.83,1.83,0,0,1-.06-.25c0-.07,0-.14,0-.21a1.94,1.94,0,0,1,0-.24h0v.31c0,1.23.8,2.46,2.42,3.39a12.78,12.78,0,0,0,11.61,0,4.09,4.09,0,0,0,2.39-3.34v-.32C30.62,11.2,30.6,11.28,30.6,11.35Z"/><path class="cls-14" d="M30.1,9.47V10.9a2.16,2.16,0,0,1,0,.44,1.27,1.27,0,0,1,0,.2l-.06.23c0,.07,0,.13-.05.19a1.57,1.57,0,0,1-.09.23c0,.07-.05.13-.08.19a1.64,1.64,0,0,1-.14.22,1.18,1.18,0,0,1-.11.19l-.18.22a1.09,1.09,0,0,1-.13.17,2.39,2.39,0,0,1-.23.22c-.05,0-.1.11-.16.16l-.29.23-.16.13c-.17.12-.34.23-.53.34a12.09,12.09,0,0,1-10.9,0l-.53-.34-.15-.12a2.6,2.6,0,0,1-.31-.25l-.16-.15-.23-.23c0-.05-.09-.11-.14-.17l-.18-.22-.11-.19L15,12.37l-.08-.2a2.14,2.14,0,0,1-.1-.22c0-.07,0-.13,0-.2l-.06-.23a1.27,1.27,0,0,1,0-.2,1.64,1.64,0,0,1,0-.22c0-.1,0-.2,0-.3V9.42a3.08,3.08,0,0,0-.53,1.68,1.94,1.94,0,0,0,0,.24c0,.07,0,.14,0,.21a2.1,2.1,0,0,0,.06.24,1.66,1.66,0,0,0,.06.21,1.22,1.22,0,0,0,.1.24,1.8,1.8,0,0,0,.08.21c0,.08.1.16.15.24s.07.13.12.2.13.15.19.24l.15.18a2.89,2.89,0,0,0,.25.24l.16.16c.11.09.22.18.34.26l.16.13c.17.12.36.24.56.36a12.84,12.84,0,0,0,11.61,0,4.48,4.48,0,0,0,.56-.36L29,14l.32-.25.17-.17.24-.23.14-.19a1.77,1.77,0,0,0,.31-.43l.14-.23a1.89,1.89,0,0,0,.09-.21l.1-.24c0-.07,0-.14.05-.21a2.1,2.1,0,0,0,.06-.24c0-.07,0-.14,0-.21A3,3,0,0,0,30.1,9.47Z"/><path class="cls-13" d="M30.6,10.53c0,.07,0,.15,0,.22a2.1,2.1,0,0,1-.06.24c0,.07,0,.14-.05.21l-.1.24a1.76,1.76,0,0,1-.09.2c0,.08-.09.16-.14.24a1.22,1.22,0,0,1-.12.19,2.23,2.23,0,0,1-.19.24l-.14.18-.24.24-.17.17-.32.24-.17.14a4.48,4.48,0,0,1-.56.36,12.78,12.78,0,0,1-11.61,0c-.2-.12-.39-.24-.56-.36l-.16-.13c-.12-.08-.23-.17-.34-.26l-.16-.16a2.89,2.89,0,0,1-.25-.24L15,12.3l-.19-.24a1.32,1.32,0,0,1-.12-.2,1.82,1.82,0,0,1-.15-.23,1.8,1.8,0,0,1-.08-.21,1.22,1.22,0,0,1-.1-.24A1.66,1.66,0,0,1,14.3,11a2.27,2.27,0,0,1-.06-.25c0-.07,0-.14,0-.21a2,2,0,0,1,0-.25h0v.31c0,1.23.8,2.45,2.42,3.39a12.81,12.81,0,0,0,11.61,0,4.09,4.09,0,0,0,2.39-3.34V10.3C30.62,10.38,30.6,10.46,30.6,10.53Z"/><path class="cls-14" d="M30.1,8.65v1.43a2.16,2.16,0,0,1,0,.44,1.27,1.27,0,0,1,0,.2L30,11c0,.06,0,.13-.05.19a1.57,1.57,0,0,1-.09.23c0,.06-.05.13-.08.19a1.64,1.64,0,0,1-.14.22.78.78,0,0,1-.11.18,2,2,0,0,1-.18.23l-.13.17a2.39,2.39,0,0,1-.23.22c-.05.05-.1.11-.16.16l-.29.23-.16.13c-.17.11-.34.23-.53.34a12.06,12.06,0,0,1-10.9,0,6,6,0,0,1-.53-.34L16.3,13,16,12.73l-.16-.15-.23-.23-.14-.17L15.28,12l-.11-.19a1.76,1.76,0,0,1-.14-.23c0-.06,0-.12-.08-.19a2.14,2.14,0,0,1-.1-.22l0-.2-.06-.23a1.34,1.34,0,0,1,0-.2,1.79,1.79,0,0,1,0-.23,2.64,2.64,0,0,1,0-.29V8.6a3,3,0,0,0-.53,1.67,1.94,1.94,0,0,0,0,.24c0,.07,0,.15,0,.22a2.1,2.1,0,0,0,.06.24,1.66,1.66,0,0,0,.06.21,1.22,1.22,0,0,0,.1.24,1.8,1.8,0,0,0,.08.21c0,.08.1.16.15.24a2,2,0,0,0,.12.19l.19.24.15.19a2.89,2.89,0,0,0,.25.24l.16.16.34.26.16.13c.17.12.36.24.56.36a12.84,12.84,0,0,0,11.61,0,6,6,0,0,0,.56-.36l.17-.14.32-.24.17-.17.24-.24a1.41,1.41,0,0,0,.14-.18,2.23,2.23,0,0,0,.19-.24,1.22,1.22,0,0,0,.12-.19c.05-.08.1-.16.14-.24a1.21,1.21,0,0,0,.09-.2l.1-.24c0-.07,0-.14.05-.21a2.1,2.1,0,0,0,.06-.24c0-.07,0-.14,0-.21A3,3,0,0,0,30.1,8.65Z"/><path class="cls-11" d="M21.3,6.34a.07.07,0,0,0,0,0,.11.11,0,0,1,0,.06.13.13,0,0,1,0,.06.14.14,0,0,1,0,.06l0,.06,0,.06s0,0,0,0l0,.06,0,0L21,6.91l0,0L20.87,7l-.05,0-.14.09a3.39,3.39,0,0,1-3,0l-.15-.1,0,0L17.36,7l0,0-.06-.06,0,0,0-.06s0,0,0-.06l0-.06,0,0,0-.07s0,0,0,0,0,0,0-.06a.13.13,0,0,0,0-.06V6.27h0v.08a1.07,1.07,0,0,0,.63.89,3.33,3.33,0,0,0,3,0,1.07,1.07,0,0,0,.62-.87v0Z"/><path class="cls-12" d="M20.67,5.39a3.33,3.33,0,0,0-3,0,1.07,1.07,0,0,0-.62.88v.06a.13.13,0,0,1,0,.06s0,0,0,.06,0,0,0,0l0,.07,0,0,0,.06s0,0,0,.06l0,.06,0,0,.06.06,0,0,.09.07,0,0,.15.1a3.39,3.39,0,0,0,3,0l.14-.09.05,0L21,7l0,0,.07-.06,0,0,0-.06s0,0,0,0l0-.06,0-.06a.14.14,0,0,0,0-.06.13.13,0,0,0,0-.06.11.11,0,0,0,0-.06.07.07,0,0,1,0,0A1,1,0,0,0,20.67,5.39Zm.33,1a.43.43,0,0,1,0,0l0,0a.14.14,0,0,1,0,.06l0,0,0,0,0,0,0,0,0,0-.06.06,0,0-.08,0,0,0a.57.57,0,0,1-.13.08,2.88,2.88,0,0,1-2.62,0,.57.57,0,0,1-.13-.08l0,0-.07-.06,0,0-.06-.06,0,0a.21.21,0,0,1,0-.06l0,0,0,0,0-.05a.17.17,0,0,1,0,0l0,0s0,0,0-.06a.06.06,0,0,0,0,0V6.26a.93.93,0,0,1,.54-.76,2.88,2.88,0,0,1,2.62,0,.9.9,0,0,1,.54.82Z"/><path class="cls-15" d="M20.46,6.86l.13.09h0l0,0,.08,0,0,0,.06-.06,0,0,0,0,0,0,0,0,0,0a.14.14,0,0,0,0-.06l0,0a.43.43,0,0,0,0,0v0a.9.9,0,0,0-.54-.82,2.88,2.88,0,0,0-2.62,0,.93.93,0,0,0-.54.76v.06a.06.06,0,0,1,0,0s0,0,0,.06l0,0a.17.17,0,0,0,0,0l0,.05,0,0,0,0a.21.21,0,0,0,0,.06l0,0,.06.06,0,0,.07.06,0,0,.12-.08A2.88,2.88,0,0,1,20.46,6.86Z"/><path class="cls-16" d="M17.85,7a2.88,2.88,0,0,0,2.62,0L20.59,7l-.13-.09a2.88,2.88,0,0,0-2.62,0l-.12.08h0A.57.57,0,0,0,17.85,7Z"/><path class="cls-21" d="M17,6.33v.06s0,0,0,.06,0,0,0,0l0,.07,0,0,0,.06,0,.06,0,.06,0,0,.06.06.05,0a.27.27,0,0,0,.08.07l0,0,.15.1a3.39,3.39,0,0,0,3,0l.15-.09,0,0L21,7l.05,0,.06-.06,0,0,0-.06,0,0,0-.06,0-.06a.14.14,0,0,0,0-.06s0,0,0-.06,0,0,0-.06a.07.07,0,0,1,0,0,1,1,0,0,0-.63-1,3.33,3.33,0,0,0-3,0,1.07,1.07,0,0,0-.62.88A.13.13,0,0,0,17,6.33Z"/></g></g></g></svg>