<svg xmlns="http://www.w3.org/2000/svg" xmlns:xlink="http://www.w3.org/1999/xlink" viewBox="0 0 156.27 128.77"><defs><style>.cls-1{isolation:isolate;}.cls-2{fill:#2f3032;opacity:0.5;}.cls-3{fill:#000009;}.cls-4{fill:#0c0c0e;}.cls-5{fill:#434345;}.cls-6{fill:#2f2f31;}.cls-7{fill:#1c1c1e;}.cls-8{fill:#d3d4d3;}.cls-9{fill:#abacac;}.cls-10{fill:#7e807f;}.cls-11{fill:#656566;}.cls-12{fill:#59595b;}.cls-13,.cls-14,.cls-19,.cls-25,.cls-40{mix-blend-mode:screen;}.cls-13{fill:url(#Áåçûìÿííûé_ãðàäèåíò_251);}.cls-14{fill:url(#Áåçûìÿííûé_ãðàäèåíò_251-2);}.cls-15{fill:#94c82f;}.cls-16{fill:#cec8b9;}.cls-17{fill:#fff;}.cls-18{fill:#999181;}.cls-19{fill:#616060;}.cls-20{fill:#686456;}.cls-21{fill:#39393b;}.cls-22{fill:#a6e839;}.cls-23{fill:#97c42e;}.cls-24{fill:#799f25;}.cls-25{fill:url(#Áåçûìÿííûé_ãðàäèåíò_38);}.cls-26,.cls-27,.cls-28,.cls-29{mix-blend-mode:multiply;}.cls-26{fill:url(#Áåçûìÿííûé_ãðàäèåíò_37);}.cls-27{fill:url(#Áåçûìÿííûé_ãðàäèåíò_37-2);}.cls-28{fill:url(#Áåçûìÿííûé_ãðàäèåíò_37-3);}.cls-30{fill:#93de34;}.cls-31{fill:#8e8e90;}.cls-32{fill:#d43f0f;}.cls-33{fill:#962809;}.cls-34{fill:#1d1d1f;}.cls-35{fill:#222224;}.cls-36{fill:#fbf6e4;}.cls-37{fill:#e59337;}.cls-38{fill:#141416;}.cls-39{fill:#746458;}.cls-40{fill:#323232;}.cls-41{fill:#9fd733;}.cls-42{fill:#7e7e80;}.cls-43{fill:#3a3a3c;}.cls-44{fill:#1a1a1b;}.cls-45{fill:#bbb980;}.cls-46{fill:#fbfbf8;}.cls-47{fill:#f4e8bd;}.cls-48{fill:#e8ca66;}.cls-49{fill:#85ac29;}.cls-50{fill:#a8ec38;}.cls-51{fill:#a1dc34;}.cls-52{fill:#608720;}.cls-53{fill:#89b82b;}.cls-54{fill:#5e5e5f;}</style><linearGradient id="Áåçûìÿííûé_ãðàäèåíò_251" x1="-4649.22" y1="71.58" x2="-4653.84" y2="84.91" gradientTransform="translate(4685.96)" gradientUnits="userSpaceOnUse"><stop offset="0.12"/><stop offset="0.2" stop-color="#171a21"/><stop offset="0.34" stop-color="#373e4f"/><stop offset="0.47" stop-color="#525c76"/><stop offset="0.61" stop-color="#667494"/><stop offset="0.74" stop-color="#7585aa"/><stop offset="0.87" stop-color="#7e8fb7"/><stop offset="0.98" stop-color="#8192bb"/></linearGradient><linearGradient id="Áåçûìÿííûé_ãðàäèåíò_251-2" x1="-4582.08" y1="110.3" x2="-4586.7" y2="123.63" xlink:href="#Áåçûìÿííûé_ãðàäèåíò_251"/><linearGradient id="Áåçûìÿííûé_ãðàäèåíò_38" x1="-4600.55" y1="27.48" x2="-4630.69" y2="92.43" gradientTransform="translate(4685.96)" gradientUnits="userSpaceOnUse"><stop offset="0.12" stop-color="#121f07"/><stop offset="0.43" stop-color="#3d5015"/><stop offset="0.8" stop-color="#6d8423"/><stop offset="0.98" stop-color="#7f9929"/></linearGradient><linearGradient id="Áåçûìÿííûé_ãðàäèåíò_37" x1="-4625.73" y1="98.87" x2="-4589.85" y2="19.92" gradientTransform="translate(4685.96)" gradientUnits="userSpaceOnUse"><stop offset="0" stop-color="#afffb2"/><stop offset="0.98" stop-color="#6ba126"/></linearGradient><linearGradient id="Áåçûìÿííûé_ãðàäèåíò_37-2" x1="-4619.86" y1="98.94" x2="-4614.82" y2="90.12" xlink:href="#Áåçûìÿííûé_ãðàäèåíò_37"/><linearGradient id="Áåçûìÿííûé_ãðàäèåíò_37-3" x1="-4617.45" y1="97.52" x2="-4615.69" y2="94.44" xlink:href="#Áåçûìÿííûé_ãðàäèåíò_37"/></defs><title>Recurso 38</title><g class="cls-1"><g id="Capa_2" data-name="Capa 2"><g id="personajes"><path class="cls-2" d="M151.8,102.85s4.29,3.22,3.94,4.93c-1.78,8.75-29.05,18.93-41.87,21-1.28.2-45.89-25.2-78-44.32C15.67,72.45,0,62.06,0,61.41,0,59.7,41.43,37.32,41.43,37.32Z"/><path class="cls-3" d="M93.39,110.19l5.08-3.25,7.31-5.29s-4.42-5.92-5.91-5.33S93,103.14,93,103.14Z"/><path class="cls-3" d="M26.75,72.21,31.84,69l7.3-5.29s-4.42-5.91-5.91-5.32-6.85,6.82-6.85,6.82Z"/><path class="cls-4" d="M44.63,62.09c-2-1.15-3.8-1.36-5.19-.77C37.77,62,30,65.87,30,65.87L41,85.22s7.65-3.59,9.07-4.32,2.45-2.57,2.45-5.16C52.54,70.73,49,64.61,44.63,62.09Z"/><path class="cls-5" d="M27.92,70.8c0,5,3.55,11.13,7.92,13.65s7.91.51,7.91-4.51-3.54-11.13-7.91-13.65S27.92,65.78,27.92,70.8Z"/><path class="cls-6" d="M28.19,71.28A16.16,16.16,0,0,0,35.53,84c4.06,2.34,7.34.47,7.34-4.19A16.16,16.16,0,0,0,35.53,67.1C31.47,64.76,28.19,66.63,28.19,71.28Z"/><path class="cls-7" d="M30.22,72.23a12.07,12.07,0,0,0,5.47,9.44c3,1.74,5.47.34,5.47-3.12a12.07,12.07,0,0,0-5.47-9.44C32.67,67.37,30.22,68.76,30.22,72.23Z"/><path class="cls-8" d="M30.93,72.54A10.8,10.8,0,0,0,35.84,81c2.71,1.57,4.91.31,4.91-2.8a10.8,10.8,0,0,0-4.91-8.46C33.13,68.17,30.93,69.43,30.93,72.54Z"/><path class="cls-9" d="M31.35,72.78a9.92,9.92,0,0,0,4.49,7.75c2.48,1.43,4.49.28,4.49-2.57a9.92,9.92,0,0,0-4.49-7.75C33.36,68.78,31.35,69.93,31.35,72.78Z"/><path class="cls-10" d="M32.7,73.56A6.92,6.92,0,0,0,35.84,79c1.73,1,3.13.2,3.13-1.79a6.91,6.91,0,0,0-3.13-5.41C34.11,70.77,32.7,71.57,32.7,73.56Z"/><path class="cls-10" d="M36.47,80.32A9.92,9.92,0,0,1,32,72.57a3.06,3.06,0,0,1,1.4-2.93c-1.22.21-2,1.33-2,3.14a9.92,9.92,0,0,0,4.49,7.75,3.23,3.23,0,0,0,3.09.36A3.69,3.69,0,0,1,36.47,80.32Z"/><path class="cls-10" d="M35.84,70.21c-1.43-.82-2.7-.79-3.52-.07a3.25,3.25,0,0,1,3,.38,9.92,9.92,0,0,1,4.49,7.75,3.38,3.38,0,0,1-1,2.64,3,3,0,0,0,1.44-3A9.92,9.92,0,0,0,35.84,70.21Z"/><path class="cls-11" d="M38.07,73.62a1.08,1.08,0,0,0,.5.86c.27.15.49,0,.49-.29a1.1,1.1,0,0,0-.49-.85C38.29,73.18,38.07,73.31,38.07,73.62Z"/><path class="cls-11" d="M32.73,76.78a1.11,1.11,0,0,0,.5.86c.27.15.5,0,.5-.29a1.11,1.11,0,0,0-.5-.85C33,76.34,32.73,76.47,32.73,76.78Z"/><path class="cls-11" d="M31.72,74.24a1.11,1.11,0,0,0,.5.85c.27.16.49,0,.49-.28a1.08,1.08,0,0,0-.47-.86C32,73.8,31.72,73.92,31.72,74.24Z"/><path class="cls-11" d="M31.74,71.83a1.1,1.1,0,0,0,.5.86c.27.15.49,0,.49-.29a1.1,1.1,0,0,0-.49-.85C32,71.39,31.74,71.52,31.74,71.83Z"/><path class="cls-11" d="M33.37,70.32a1.08,1.08,0,0,0,.5.86c.27.16.49,0,.49-.28a1.1,1.1,0,0,0-.49-.86C33.59,69.88,33.37,70,33.37,70.32Z"/><path class="cls-11" d="M36.09,71.23a1.08,1.08,0,0,0,.5.86c.27.16.49,0,.49-.28a1.1,1.1,0,0,0-.49-.86C36.31,70.79,36.09,70.92,36.09,71.23Z"/><path class="cls-11" d="M39,76.34a1.1,1.1,0,0,0,.49.86c.28.15.5,0,.5-.29a1.08,1.08,0,0,0-.5-.85C39.24,75.9,39,76,39,76.34Z"/><path class="cls-11" d="M38.75,78.87a1.13,1.13,0,0,0,.5.86c.27.15.5,0,.5-.29a1.11,1.11,0,0,0-.5-.85C39,78.43,38.75,78.56,38.75,78.87Z"/><path class="cls-11" d="M36.83,79.9a1.08,1.08,0,0,0,.5.86c.27.16.49,0,.49-.29a1.1,1.1,0,0,0-.49-.85C37.05,79.46,36.83,79.59,36.83,79.9Z"/><path class="cls-11" d="M34.54,78.87a1.1,1.1,0,0,0,.5.86c.27.15.49,0,.49-.29a1.1,1.1,0,0,0-.49-.85C34.76,78.43,34.54,78.56,34.54,78.87Z"/><path class="cls-8" d="M32.38,73.71a6.91,6.91,0,0,0,3.13,5.41c1.73,1,3.14.2,3.14-1.79a6.91,6.91,0,0,0-3.14-5.4C33.78,70.93,32.38,71.73,32.38,73.71Z"/><path class="cls-6" d="M32.86,74a5.87,5.87,0,0,0,2.65,4.58c1.47.84,2.65.17,2.65-1.51a5.83,5.83,0,0,0-2.65-4.58C34.05,71.64,32.86,72.31,32.86,74Z"/><path class="cls-12" d="M33.09,74.36a5,5,0,0,0,2.28,3.93c1.26.73,2.28.15,2.28-1.3a5,5,0,0,0-2.28-3.92C34.11,72.34,33.09,72.92,33.09,74.36Z"/><path class="cls-13" d="M35.51,73.28s-1.4-1-2.07.1a1.81,1.81,0,0,0-.21,1.14,7.16,7.16,0,0,0,1.91,1.91,17.91,17.91,0,0,0,2.19,1.27,2.77,2.77,0,0,0-.18-2.33C36.38,73.64,35.51,73.28,35.51,73.28Z"/><path class="cls-4" d="M111.76,100.81c-2-1.15-3.79-1.36-5.18-.78-1.67.7-9.45,4.56-9.45,4.56l11,19.35s7.65-3.59,9.07-4.32,2.45-2.58,2.45-5.16C119.68,109.44,116.13,103.33,111.76,100.81Z"/><path class="cls-5" d="M95.06,109.52c0,5,3.54,11.13,7.91,13.65s7.92.5,7.92-4.51S107.34,107.53,103,105,95.06,104.5,95.06,109.52Z"/><path class="cls-6" d="M95.32,110a16.17,16.17,0,0,0,7.35,12.67c4,2.34,7.34.46,7.34-4.19a16.18,16.18,0,0,0-7.34-12.66C98.61,103.47,95.32,105.35,95.32,110Z"/><path class="cls-7" d="M97.35,111a12.05,12.05,0,0,0,5.47,9.43c3,1.75,5.47.35,5.47-3.12a12.05,12.05,0,0,0-5.47-9.43C99.8,106.08,97.35,107.48,97.35,111Z"/><path class="cls-8" d="M98.07,111.25a10.82,10.82,0,0,0,4.9,8.47c2.71,1.56,4.91.31,4.91-2.8a10.8,10.8,0,0,0-4.91-8.46C100.26,106.89,98.07,108.14,98.07,111.25Z"/><path class="cls-9" d="M98.48,111.49a9.89,9.89,0,0,0,4.49,7.75c2.48,1.44,4.5.29,4.5-2.56a9.9,9.9,0,0,0-4.5-7.75C100.49,107.5,98.48,108.65,98.48,111.49Z"/><path class="cls-10" d="M99.84,112.28a6.92,6.92,0,0,0,3.13,5.41c1.73,1,3.14.19,3.14-1.79a6.92,6.92,0,0,0-3.14-5.41C101.24,109.49,99.84,110.29,99.84,112.28Z"/><path class="cls-10" d="M103.6,119a9.89,9.89,0,0,1-4.49-7.75,3.07,3.07,0,0,1,1.41-2.93c-1.23.22-2,1.34-2,3.14a9.89,9.89,0,0,0,4.49,7.75,3.24,3.24,0,0,0,3.09.37A3.7,3.7,0,0,1,103.6,119Z"/><path class="cls-10" d="M103,108.93c-1.43-.82-2.7-.79-3.52-.07a3.25,3.25,0,0,1,3,.38A9.88,9.88,0,0,1,107,117a3.42,3.42,0,0,1-1,2.64,3,3,0,0,0,1.44-2.95A9.9,9.9,0,0,0,103,108.93Z"/><path class="cls-11" d="M105.21,112.34a1.08,1.08,0,0,0,.49.85c.28.16.5,0,.5-.28a1.07,1.07,0,0,0-.5-.85C105.43,111.9,105.21,112,105.21,112.34Z"/><path class="cls-11" d="M99.87,115.5a1.08,1.08,0,0,0,.49.85c.28.16.5,0,.5-.28a1.07,1.07,0,0,0-.5-.85C100.09,115.06,99.87,115.19,99.87,115.5Z"/><path class="cls-11" d="M98.86,113a1.1,1.1,0,0,0,.49.86c.28.16.5,0,.5-.28a1.06,1.06,0,0,0-.48-.86C99.1,112.51,98.86,112.64,98.86,113Z"/><path class="cls-11" d="M98.88,110.55a1.08,1.08,0,0,0,.49.85c.28.16.5,0,.5-.28a1.07,1.07,0,0,0-.5-.85C99.1,110.11,98.88,110.23,98.88,110.55Z"/><path class="cls-11" d="M100.5,109a1.11,1.11,0,0,0,.5.86c.27.15.5,0,.5-.29a1.11,1.11,0,0,0-.5-.85C100.73,108.6,100.5,108.73,100.5,109Z"/><path class="cls-11" d="M103.22,110a1.11,1.11,0,0,0,.5.86c.27.16.5,0,.5-.29a1.11,1.11,0,0,0-.5-.85C103.45,109.51,103.22,109.64,103.22,110Z"/><path class="cls-11" d="M106.15,115.06a1.09,1.09,0,0,0,.5.85c.27.16.49,0,.49-.28a1.08,1.08,0,0,0-.49-.85C106.38,114.62,106.15,114.75,106.15,115.06Z"/><path class="cls-11" d="M105.89,117.59a1.1,1.1,0,0,0,.49.85c.28.16.5,0,.5-.28a1.07,1.07,0,0,0-.5-.85C106.11,117.15,105.89,117.27,105.89,117.59Z"/><path class="cls-11" d="M104,118.62a1.13,1.13,0,0,0,.5.86c.27.15.5,0,.5-.29a1.11,1.11,0,0,0-.5-.85C104.19,118.18,104,118.31,104,118.62Z"/><path class="cls-11" d="M101.67,117.59a1.11,1.11,0,0,0,.5.85c.27.16.5,0,.5-.28a1.09,1.09,0,0,0-.5-.85C101.9,117.15,101.67,117.27,101.67,117.59Z"/><path class="cls-8" d="M99.51,112.43a6.89,6.89,0,0,0,3.14,5.41c1.73,1,3.13.2,3.13-1.79a6.91,6.91,0,0,0-3.13-5.41C100.91,109.64,99.51,110.44,99.51,112.43Z"/><path class="cls-6" d="M100,112.71a5.82,5.82,0,0,0,2.66,4.57c1.46.85,2.65.17,2.65-1.51a5.84,5.84,0,0,0-2.65-4.57C101.18,110.35,100,111,100,112.71Z"/><path class="cls-12" d="M100.23,113.08A5,5,0,0,0,102.5,117c1.26.73,2.28.14,2.28-1.3a5,5,0,0,0-2.28-3.93C101.25,111.06,100.23,111.64,100.23,113.08Z"/><path class="cls-14" d="M102.65,112s-1.4-1-2.07.09a1.81,1.81,0,0,0-.22,1.15,7.16,7.16,0,0,0,1.91,1.91,18.8,18.8,0,0,0,2.19,1.27,2.79,2.79,0,0,0-.17-2.33C103.51,112.36,102.65,112,102.65,112Z"/><path class="cls-15" d="M150.44,89.84c.19.26.35.52.51.79a10.26,10.26,0,0,1,1,2.19,25.46,25.46,0,0,0,1.22-2.31c.3-.65.54-1.31.8-2h0l-.31-9.35L146.72,70l-.69-.42c-.68-.42-2-1.17-2-1.17s-9.54-17.74-11.27-20.54-3.48-6.71-8.22-10S115,31.52,115,31.52c-3.28-2-32.65-18.9-48.25-27.88h0L61.22.45A2.73,2.73,0,0,0,59.49,0h-.08a1.59,1.59,0,0,0-1,.55,2.16,2.16,0,0,0-.45,1L55.6,4.88l-.8,17.26.14,12.41-1.15.24s.38,5.08.65,6.33c0,.17.08.33.13.5a5.51,5.51,0,0,0,2.16,3.1c1.55,1.21,7.86,5.57,7.86,5.57a12.23,12.23,0,0,1,.35-2.22c.7-2.85,2.83-7,9.22-3.36a17.49,17.49,0,0,1,7.64,9.63A24.88,24.88,0,0,1,83,59.29a19,19,0,0,1,.19,2.45l3.06,1.35L129.35,88a58,58,0,0,1,5.55,3.83l.75-5A6.59,6.59,0,0,1,136,85.5c1.38-3.58,5.78-3.26,11.57,1.28A13.73,13.73,0,0,1,150.44,89.84Z"/><path class="cls-16" d="M143.58,66.8c-1.65,1.33-4.21,3.39-6.79,5.41C133.69,74.64,130.56,77,129,78c-.59.37-1.37.81-2.26,1.29-1.78,1-4,2.13-6.46,3.33-3.51,1.74-7.32,3.56-10.31,5l-3,1.43-.82-.48L94.32,65.72l12.41-7.23,10.2-5.92,6.42-3.74,7.33-4.26,3.77,6.49Z"/><path class="cls-17" d="M138.82,68.58l1.61-1.47s-1.67-3.84-3.64-7.54c-2.59-4.88-5.09-9.56-6.18-11.64a20,20,0,0,0-1.49-2.46l-11.88,6.85a4,4,0,0,0,1.08,1.06c1.54,1,4.18,2.64,5.86,3.9a62.49,62.49,0,0,1,6.63,6.32Z"/><polygon class="cls-18" points="103.47 83.82 104.82 80.12 118.22 73.9 122.92 75.4 138.79 63.54 143.58 66.8 128.88 79.19 106.91 89.02 106.09 88.53 103.47 83.82"/><path class="cls-19" d="M120.26,82.62c-3.51,1.74-7.32,3.56-10.31,5l-3.22-29.09,10.2-5.92Zm14.19-31.56-3.77-6.49-7.33,4.26,3.37,30.46c.89-.48,1.67-.92,2.26-1.29,1.58-1,4.71-3.36,7.81-5.79Z"/><path class="cls-20" d="M130.22,45l-.67.22L142,66.66c-3.65,3-11.71,9.41-14.59,11.2-4,2.49-15.64,8-21.32,10.67l.82.48c5.28-2.46,17.88-8.41,22.08-11,2.88-1.79,10.24-7.69,13.89-10.64Z"/><path class="cls-21" d="M131.64,81.22l12.92-12.74-1-1.69c-3.65,3-11.71,9.42-14.59,11.21-4.2,2.6-16.8,8.55-22.08,11l2,1Z"/><path class="cls-22" d="M130.22,45s-3,3.12-13.46,8.93c-13.92,7.7-22.29,11.26-22.29,11.26L83,59.29l-18-11.22L54.57,41.62,23,21.89l-.72-.44L58.45.58a1.59,1.59,0,0,1,1-.55h.08a2.34,2.34,0,0,1,1.08.13,3.4,3.4,0,0,1,.65.3l5.52,3.19h0c15.6,9,45,25.88,48.25,27.88,0,0,4.77,3,9.51,6.29S128.48,42.2,130.22,45Z"/><path class="cls-23" d="M124.5,37.81,84.94,60.64,93.54,66s8.37-3.56,22.29-11.25c10.5-5.81,14.85-10.17,14.85-10.17A20.61,20.61,0,0,0,124.5,37.81Z"/><path class="cls-23" d="M60.57.15c-3.48,2.12-8.63,5.17-15.47,9C35.05,14.67,27.65,19.05,23,21.89l-.72-.44L58.45.58a1.59,1.59,0,0,1,1-.55h.08A2.34,2.34,0,0,1,60.57.15Z"/><path class="cls-24" d="M120.3,111.39l-.36-8.75-8.41-10.29-.69-.42c-.69-.43-2-1.18-2-1.18S98.7,70.81,97,68,94,63.5,89.3,60.2s-11.45-7.26-11.45-7.26C74,50.58,34.9,28.1,24.07,21.87c-1.55-.89-2.88-.43-3.22,1.11l-.91,4.17L17.65,43.56,17.79,56l-.14.42s-.62,4.89-.35,6.14a5.69,5.69,0,0,0,2.28,3.61c.64.49,2.08,1.52,3.56,2.56A10.07,10.07,0,0,1,25.72,67c.43-.2.87-.36,1.29-.57l.35-.2a4.06,4.06,0,0,1,3.92-1.35c1.37-.42,3.22-.19,5.73,1.26a17.44,17.44,0,0,1,7.63,9.62c.13.36.25.73.35,1.08a23.24,23.24,0,0,1,1,6.32l3.07,1.35S89.7,107.8,92.2,109.42c.67.43,1.18.82,1.18.82v0a16.38,16.38,0,0,1,.93-5c.15-.49.86-1.27,1-1.67,1.39-3.59,9.3.16,15.1,4.7a13.72,13.72,0,0,1,2.76,2.91,11.19,11.19,0,0,1,1.23.54h2.5c.86,0,2.49.21,3.4-.24Z"/><path class="cls-25" d="M90.29,83.24a30.87,30.87,0,0,0,4.22,3.64L109.76,95l8.11,6.23-7.24-8.87-2.73-1.59s-6.47-17.54-14.29-25.19S63,44.83,63,44.83l-39.82-23s-1.39-1-2.29.95c0,.16-.95,4.33-.95,4.33L17.65,43.56,66.18,71S88.29,81.13,90.29,83.24Z"/><path class="cls-26" d="M119.4,111.39l-.36-8.75L109,95.39,93.3,87.2s-1.08-1.28-3.09-3.39-19.13-9.49-19.13-9.49L17.65,43.56,17.79,56l8,10.94s1.67-4.94,8.86-2.52S44,74.06,44,74.06L98.34,106.3l2-2.68,6.16.89,13,9.21,2.16-1Z"/><path class="cls-27" d="M94.7,103.47c-.49,1.9-1.31,6.72-1.31,6.72v0s-.66-.49-1.18-.82c-2.5-1.61-43.13-24.91-43.13-24.91L46,83.16a23.24,23.24,0,0,0-1-6.32Z"/><path class="cls-28" d="M92.2,109.42c.52.33,1.18.82,1.18.82v0s.17-1,.41-2.34l-48-26.91A18.13,18.13,0,0,1,46,83.16l3.07,1.35S89.7,107.81,92.2,109.42Z"/><g class="cls-29"><path class="cls-30" d="M93.41,108.56,79,100.22v-10l-.39-1.45L76.3,87.48V73.78l1.22-16.42A1.69,1.69,0,0,1,78.43,56a1.66,1.66,0,0,1,1.63.07c.73.45,1.74,1.09,3.11,2,3.68,2.33,7.72,5.13,9.78,8.17,1.3,1.91,3.83,6.72,5.87,10.6.93,1.76,1.77,3.35,2.36,4.43,1.9,3.44,4.22,8.91,4.24,9l0,.08.8,6.11-3.19,3.94L101,99.54c-2.35-.88-4-.72-5.09.51-1.49,1.68-2.41,8-2.42,8.06ZM79.59,99.87l13.34,7.7c.25-1.52,1.12-6.37,2.49-7.93s3.2-1.65,5.77-.68l1.66.63,2.75-3.39-.76-5.81c-.21-.49-2.4-5.61-4.2-8.87-.59-1.08-1.43-2.67-2.36-4.44-2-3.85-4.56-8.66-5.84-10.54-2-2.94-6-5.69-9.6-8l-3.11-2a1,1,0,0,0-1.59.82l-1.22,16.4V87.13l2.19,1.26.48,1.82Z"/></g><path class="cls-31" d="M94.21,103.28c.38.21.25.53.86.81,1.38-3.58,6.42-3.34,12.22,1.21a14.5,14.5,0,0,1,2.71,3.47c.18.26.51.11.67.38l1-.67a14.55,14.55,0,0,0-6.18-6.37c-4.72-2.73-5.46-2.67-7.08-2.69S94.71,101.17,94.21,103.28Z"/><path class="cls-32" d="M17.65,43.56a3.39,3.39,0,0,1,2.13,2.34c.22,1.64.38,11.48.38,11.48L17.79,56Z"/><path class="cls-33" d="M19.07,45.58c.21,1.54.37,10.35.39,11.38l.7.42S20,47.54,19.78,45.9a3.39,3.39,0,0,0-2.13-2.34v0A2.85,2.85,0,0,1,19.07,45.58Z"/><path class="cls-21" d="M156.27,92.78a35.37,35.37,0,0,1-.8,6.44,5.35,5.35,0,0,1-1,2.19s-7.39,7.15-11.07,9.46c-5.51,3.47-24.75,10.49-25,10.59h0l.11-1.5.58-8.32a7.46,7.46,0,0,0,.78-.13,19.44,19.44,0,0,0,1.92-.54S136,106.53,140,104.17c4.52-2.66,14.89-13.27,14.89-13.27l1-1.2Z"/><path class="cls-6" d="M119.42,118.92c-.11.34-.22.64-.32.91a10,10,0,0,1-.76,1.63h0a1.21,1.21,0,0,1-1.36.25c-.78-.36-4-1.49-4-1.49a20,20,0,0,0-2.59-10.2c-.16-.27-.33-.53-.51-.79l.78-1.18,1.58,1.09,4.64,2.2,2.91-.17,0,.34.14,2.8A16.73,16.73,0,0,1,119.42,118.92Z"/><path class="cls-34" d="M156.27,92.78a35.37,35.37,0,0,1-.8,6.44,5.35,5.35,0,0,1-1,2.19s-7.39,7.15-11.07,9.46c-5.51,3.47-24.75,10.49-25,10.59h0a1.21,1.21,0,0,1-1.36.25c-.78-.36-4-1.49-4-1.49a20,20,0,0,0-2.59-10.2,10.06,10.06,0,0,1,3.06,5.75c.5,3.57.58,3.85.58,3.85a11,11,0,0,0,4.42.34,5.18,5.18,0,0,0,.66-.14l.58-.2c2.43-1,18.63-6.73,20.63-8.28s8.73-5.78,12.84-9.73c2.34-2.25,2.81-7.25,2.81-7.25V89.7Z"/><path class="cls-6" d="M93.92,104.17c.38.21,1.67-1.17,2.28-.89,1-1.27,5-1.64,10.8,2.9a14,14,0,0,1,2.87,3.06c.18.26.35.53.51.79l1-.67a14.55,14.55,0,0,0-6.18-6.37c-4.72-2.73-5.46-2.66-7.08-2.69S94.42,102.06,93.92,104.17Z"/><path class="cls-31" d="M45,72.78s-.26-.54-1-1.64-2.27-4-7.56-7.06-7.15-1-7.15-1l-9.13-5.72L17.79,56v-1L16,56.71S17,61.29,17.3,62.54a5.71,5.71,0,0,0,2.28,3.61c.83.64,3,2.2,4.91,3.51a17.27,17.27,0,0,1,4.36-4.46,3.28,3.28,0,0,1,2.92-.44c1.32-.23,3,.09,5.24,1.37a17.48,17.48,0,0,1,7.64,9.63l49.92,26.73a4,4,0,0,1,.44-.57l.06-.12Z"/><path class="cls-6" d="M94.93,104.37a3.38,3.38,0,0,1,1.27-1.09l-51.95-30a17,17,0,0,0-.94-1.64c-.69-1.09-2.27-4-7.57-7.06s-7.15-1-7.15-1l-9.12-5.73-2.37-1.4L16,56.71s.38,5.08.65,6.33a5.71,5.71,0,0,0,2.29,3.61c1.54,1.2,7.86,5.56,7.86,5.56a12.24,12.24,0,0,1,.38-2.37c.75-2.85,2.92-6.83,9.19-3.2A17.49,17.49,0,0,1,44,76.26l50.34,29.07S94.85,104.47,94.93,104.37Z"/><path class="cls-35" d="M27.13,69.84a12.24,12.24,0,0,0-.38,2.37s-6.32-4.36-7.86-5.56A5.71,5.71,0,0,1,16.6,63c-.27-1.25-.65-6.33-.65-6.33s.83,5.93,2.7,7.94C19.5,65.54,23.24,67.71,27.13,69.84Z"/><polygon class="cls-36" points="17.75 45.35 18.54 45.8 18.65 50.47 17.79 49.97 17.75 45.35"/><polygon class="cls-37" points="17.75 51 18.54 51.45 18.65 56.12 17.79 55.62 17.75 51"/><path class="cls-6" d="M76.61,77.56l3.09,1.78a1.44,1.44,0,0,1,.52,1.12v2.6s0,.6-.58.25l-3-1.75Z"/><polygon class="cls-38" points="79.04 82.49 77.78 81.75 77.78 78.79 79.04 79.52 79.04 82.49"/><path class="cls-39" d="M101.82,86.55,100.21,88l-7.53-3.72s-.89-1-2.12-2.23A44.09,44.09,0,0,0,86.06,78c-1.16-.87-2.78-1.94-4.18-2.84L80.2,74.09a4.57,4.57,0,0,1-1.91-3.17l.58-12.28c-.09-1,.54-1.44,1.37-1,1.34.76,1.69,1,4.57,2.94.43.29,1,.64,1.67,1.1a18.75,18.75,0,0,1,6,6.92c.38.74.94,1.79,1.62,3.07l4.56,8.57C100.63,84,101.82,86.55,101.82,86.55Z"/><path class="cls-40" d="M94.11,71.7,90.56,82.08A44.09,44.09,0,0,0,86.06,78c-1.16-.87-2.78-1.94-4.18-2.84l4.6-13.44a18.75,18.75,0,0,1,6,6.92C92.87,69.37,93.43,70.42,94.11,71.7Z"/><path class="cls-20" d="M100.56,87.42,93,83.7a62,62,0,0,0-6.62-6.32c-1.68-1.26-4.32-2.93-5.86-3.9a4.54,4.54,0,0,1-1.91-3.17L79.22,58a1.21,1.21,0,0,1,0-.43,1,1,0,0,0-.37,1l-.58,12.28a4.54,4.54,0,0,0,1.91,3.17c1.54,1,4.18,2.64,5.86,3.9a62.49,62.49,0,0,1,6.63,6.32L100.21,88l1.61-1.48-.09-.2Z"/><path class="cls-41" d="M153.65,79.19s-10.55,10.49-14.77,13c-5.12,3.08-22.37,8.41-22.37,8.41l-8.41-10.3s17-7.84,22.27-11.12c3.78-2.35,14.19-10.72,14.19-10.72Z"/><path class="cls-21" d="M116.87,111.35s18.41-6.16,23.52-9.23c4.25-2.56,13.88-12.41,13.88-12.41l-.62-10.52s-10.55,10.49-14.77,13c-5.12,3.08-22.37,8.41-22.37,8.41Z"/><path class="cls-31" d="M121.72,111S136,106.52,140,104.17c4.52-2.66,15.08-12.91,15.08-12.91L156,89.7l-1.75-1,.06,1s-10,10.07-14.31,12.57-20.05,7.42-20.05,7.42a7.4,7.4,0,0,1-5.91-.52l-3.36-2.44v1.32l.13.22,4.4,2.65C117.72,112,119.1,111.85,121.72,111Z"/><path class="cls-42" d="M127.4,97.48l.68,8.87s10.54-3.7,12.09-4.78c2.19-1.53,8-6.82,8-6.82l-.66-9.25s-5.6,6-9.4,7.85A81.26,81.26,0,0,1,127.4,97.48Z"/><path class="cls-43" d="M147,90.08l-.23.24-.12.11-.52.51-.35.34a.23.23,0,0,0-.07.07l-.25.24c-1.11,1-2.67,2.49-4.15,3.7l-.55.44-.51.4a5.74,5.74,0,0,1-.5.36,3.53,3.53,0,0,1-.34.24l-.13.09-.45.28a13.78,13.78,0,0,1-1.34.64l-.17.07-1.05.43a.16.16,0,0,1-.09,0l-.84.34-.44.17,0,0-1.12.43-1.48.55-.25.1-.83.31-.29.11-2,.72-.16.06-.22.08-.07-.57L128.18,98a81.21,81.21,0,0,0,9.11-3.44l.8-.38a15.48,15.48,0,0,0,2.46-1.58,54.94,54.94,0,0,0,5.66-5.07c.22-.24.39-.42.49-.51l.05,0,0,0Z"/><path class="cls-43" d="M147.72,94.31s-5.21,5.25-8.18,7a8.41,8.41,0,0,1-.85.42l-.37.17c-2.89,1.25-9.11,3.47-9.11,3.47l-.33-3.16A77.72,77.72,0,0,0,137.6,99c.42-.18.82-.37,1.19-.55a15.38,15.38,0,0,0,2.1-1.31,56.61,56.61,0,0,0,6.59-5.94Z"/><path class="cls-44" d="M147,90.08a81.85,81.85,0,0,1-6.24,5.65,17.3,17.3,0,0,1-1.93,1.37,13.78,13.78,0,0,1-1.34.64c-2.93,1.25-9,3.42-9,3.42l-.07-.57c1.76-.63,6.9-2.51,9-3.47a7.45,7.45,0,0,0,.72-.37,21.05,21.05,0,0,0,2.53-1.84c2.72-2.23,5.65-5.18,5.65-5.18l-.16-2.2.58-.61Z"/><path class="cls-44" d="M140.78,95.73l-.51.4a5.74,5.74,0,0,1-.5.36,3.53,3.53,0,0,1-.34.24l-.13.09-.45.28a13.78,13.78,0,0,1-1.34.64l0-.62-.18-2.56.8-.38a15.48,15.48,0,0,0,2.46-1.58l.17,2.31Z"/><path class="cls-44" d="M141.08,99.6l-2.39,2.15-.26.24-.11-.07-.53-.3L137.6,99c.42-.18.82-.37,1.19-.55a15.38,15.38,0,0,0,2.1-1.31Z"/><path class="cls-44" d="M147.48,91.16s-.21.23-.58.6l.17,2.2s-5.21,5.25-8.18,7c-1.26.76-7.74,3.12-9.74,3.85l.06.56s8.83-3.16,10.33-4c3-1.78,8.18-7,8.18-7Z"/><path class="cls-45" d="M121.07,103.4a57.49,57.49,0,0,0,6-2.14l-.18-3.44a43.46,43.46,0,0,1-4.92,1.81c-2.87.9-4.88,1.42-4.88,1.42l.16,3.34C117.9,104.23,119.1,103.94,121.07,103.4Z"/><path class="cls-45" d="M121.07,104.28c-2,.56-3.15.84-3.8,1l.15,3.1a19.9,19.9,0,0,0,5.92-1.5c3.94-1.45,3.93-1.49,3.93-1.49l-.18-3.24A58.4,58.4,0,0,1,121.07,104.28Z"/><path class="cls-46" d="M124.35,100.3l-.08-1.45c-.66.24-1.44.51-2.33.78-2.87.9-4.88,1.42-4.88,1.42l.09,1.72,1.22-.33A58.5,58.5,0,0,0,124.35,100.3Z"/><path class="cls-46" d="M124.57,104.41l-.07-1.27c-1.17.44-2.37.85-3.43,1.14-2,.56-3.15.84-3.8,1l.08,1.68a33,33,0,0,0,3.29-1C124.59,104.46,124.57,104.41,124.57,104.41Z"/><path class="cls-45" d="M149.85,87.15a47.68,47.68,0,0,0,3.66-3.61L153.4,80a36.91,36.91,0,0,1-3.14,3.12c-1.84,1.65-2.39,2.25-2.39,2.25l.24,3.37C148.55,88.38,148.58,88.21,149.85,87.15Z"/><path class="cls-45" d="M149.89,88.06c-1.3,1.09-1.29,1.22-1.71,1.53l.22,3.13s.47,0,3.08-2.59,2.35-2.44,2.35-2.44l-.1-3.37A48,48,0,0,1,149.89,88.06Z"/><path class="cls-46" d="M152.35,82.69l0-1.55c-.51.52-1.19,1.18-2,2-1.84,1.65-2.39,2.25-2.39,2.25l.11,1.58.71-.61A44.46,44.46,0,0,0,152.35,82.69Z"/><path class="cls-46" d="M152.67,86.85l0-1.38c-.91.93-1.89,1.88-2.74,2.59-1.3,1.09-1.29,1.22-1.71,1.53l.11,1.57c.46-.39,1.11-1,2-1.88C152.84,86.8,152.67,86.85,152.67,86.85Z"/><path class="cls-47" d="M137.23,110.34v3.17a.64.64,0,0,0,.92.57l6.7-3.39a1.94,1.94,0,0,0,1.06-1.74v-3.24a.64.64,0,0,0-.93-.57l-6.7,3.48A1.93,1.93,0,0,0,137.23,110.34Z"/><path class="cls-48" d="M138,113.91a.56.56,0,0,1-.55-.56v-3a1.79,1.79,0,0,1,1-1.6l6.43-3.34a.58.58,0,0,1,.26-.06.56.56,0,0,1,.55.56V109a1.79,1.79,0,0,1-1,1.61l-6.43,3.26A.71.71,0,0,1,138,113.91Z"/><polygon class="cls-49" points="108.86 90.03 108.1 90.32 105.37 88.73 93.53 65.99 94.32 65.71 106.09 88.53 108.86 90.03"/><polygon class="cls-41" points="130.68 44.57 130.22 45 142.88 67.36 144.12 68.83 144.56 68.48 143.58 66.8 130.68 44.57"/><polygon class="cls-24" points="115.49 86.92 120.7 91.93 126.08 95.93 127.4 96.33 120.92 91.16 116.24 86.35 115.49 86.92"/><polygon class="cls-50" points="116.24 86.35 120.92 91.16 127.4 96.33 139.04 91.34 147.02 84.55 142.38 77.82 138.43 73.23 116.24 86.35"/><polygon class="cls-42" points="139.02 93.45 137.87 94.09 138.43 101.99 139.49 101.63 141.72 99.96 141.12 92.08 139.02 93.45"/><path d="M138.19,75.08l-.29-.3c-.15-.15-.54-.11-.85.09l-4.53,3c-.56.38-.73.89-.36,1.11l.32.18a.84.84,0,0,0,.78-.13l4.47-2.88C138.24,75.79,138.44,75.33,138.19,75.08Z"/><polygon class="cls-50" points="136.53 75.05 136.88 74.88 138.24 75.98 137.94 76.21 136.53 75.05"/><polygon class="cls-50" points="135.58 75.6 135.93 75.43 137.3 76.54 136.99 76.77 135.58 75.6"/><polygon class="cls-50" points="134.63 76.16 134.98 75.98 136.35 77.09 136.04 77.32 134.63 76.16"/><polygon class="cls-50" points="133.69 76.71 134.03 76.54 135.4 77.64 135.09 77.87 133.69 76.71"/><polygon class="cls-50" points="132.78 77.29 133.13 77.12 134.5 78.23 134.19 78.46 132.78 77.29"/><polygon class="cls-50" points="131.98 77.97 132.33 77.8 133.7 78.9 133.39 79.13 131.98 77.97"/><path d="M124.54,83.18l-.28-.34a.68.68,0,0,0-.76,0L119,85.2c-.63.34-.9.93-.56,1.27l.29.29a.73.73,0,0,0,.84,0l4.58-2.58C124.62,83.89,124.78,83.46,124.54,83.18Z"/><polygon class="cls-50" points="123.02 82.89 123.34 82.78 124.64 84.1 124.36 84.29 123.02 82.89"/><polygon class="cls-50" points="122.15 83.29 122.47 83.17 123.76 84.53 123.47 84.73 122.15 83.29"/><polygon class="cls-50" points="121.24 83.7 121.57 83.58 122.84 84.99 122.54 85.2 121.24 83.7"/><polygon class="cls-50" points="120.29 84.13 120.64 84.01 121.89 85.46 121.57 85.68 120.29 84.13"/><polygon class="cls-50" points="119.34 84.62 119.71 84.49 120.94 86 120.61 86.23 119.34 84.62"/><polygon class="cls-50" points="118.44 85.25 118.82 85.11 120.04 86.7 119.69 86.94 118.44 85.25"/><path class="cls-24" d="M55.57,62.75,68.4,70.16a2.23,2.23,0,0,0,3.1-1.87l1.71-11.84a4.83,4.83,0,0,0-2.17-5L58.2,44c-1.22-.71-2.87.29-3.1,1.87L53.4,57.75A4.83,4.83,0,0,0,55.57,62.75Z"/><path class="cls-51" d="M68.86,69.72,56,62.31a4.85,4.85,0,0,1-2.18-5l1.71-11.84a2.6,2.6,0,0,1,.54-1.23,2.53,2.53,0,0,0-1,1.67L53.4,57.75a4.83,4.83,0,0,0,2.17,5L68.4,70.16A2,2,0,0,0,71,69.52,1.92,1.92,0,0,1,68.86,69.72Z"/><path class="cls-52" d="M53.4,58.94,55.1,47.1a2.23,2.23,0,0,1,3.1-1.87L71,52.64a4.59,4.59,0,0,1,2.19,3.53A4.78,4.78,0,0,0,71,51.45L58.2,44c-1.22-.71-2.87.29-3.1,1.87L53.4,57.75a5.59,5.59,0,0,0,0,1.47C53.38,59.13,53.38,59,53.4,58.94Z"/><path class="cls-51" d="M56.54,61.5,68,68.1a2,2,0,0,0,2.75-1.66L72.23,55.9a4.3,4.3,0,0,0-1.93-4.46L58.88,44.85a2,2,0,0,0-2.76,1.66L54.6,57.05A4.29,4.29,0,0,0,56.54,61.5Z"/><path class="cls-53" d="M56,61.87l11.42,6.59a2,2,0,0,0,2.76-1.66l1.52-10.54a4.29,4.29,0,0,0-1.94-4.45l-11.42-6.6a2,2,0,0,0-2.75,1.66L54.08,57.42A4.3,4.3,0,0,0,56,61.87Z"/><path class="cls-24" d="M28.88,47.28l12.83,7.41a2.23,2.23,0,0,0,3.1-1.87L46.52,41a4.81,4.81,0,0,0-2.18-5L31.51,28.57c-1.22-.71-2.87.29-3.1,1.87l-1.7,11.84A4.83,4.83,0,0,0,28.88,47.28Z"/><path class="cls-51" d="M42.17,54.25,29.34,46.84a4.85,4.85,0,0,1-2.18-5L28.87,30a2.5,2.5,0,0,1,.54-1.23,2.56,2.56,0,0,0-1,1.67l-1.7,11.84a4.83,4.83,0,0,0,2.17,5l12.83,7.41a2,2,0,0,0,2.56-.64A1.9,1.9,0,0,1,42.17,54.25Z"/><path class="cls-52" d="M26.71,43.47l1.7-11.84a2.23,2.23,0,0,1,3.1-1.87l12.83,7.41a4.57,4.57,0,0,1,2.2,3.53A4.77,4.77,0,0,0,44.34,36L31.51,28.57c-1.22-.71-2.87.29-3.1,1.87l-1.7,11.84a5.59,5.59,0,0,0,0,1.47C26.69,43.66,26.69,43.57,26.71,43.47Z"/><path class="cls-51" d="M29.85,46l11.41,6.6A2,2,0,0,0,44,51l1.52-10.54A4.32,4.32,0,0,0,43.61,36L32.19,29.38A2,2,0,0,0,29.43,31L27.91,41.58A4.29,4.29,0,0,0,29.85,46Z"/><path class="cls-53" d="M29.32,46.4,40.74,53a2,2,0,0,0,2.76-1.66L45,40.79a4.3,4.3,0,0,0-1.94-4.45l-11.42-6.6A2,2,0,0,0,28.9,31.4L27.38,42A4.32,4.32,0,0,0,29.32,46.4Z"/><polygon class="cls-6" points="23.75 24.71 23.64 25.3 23.4 26.61 23.26 27.43 23.01 28.74 22.84 29.65 22.61 30.96 22.47 31.65 22.26 32.84 22.16 33.4 22.12 33.76 21.97 35.13 21.87 36.06 21.73 37.42 21.62 38.37 21.48 39.73 21.35 40.96 21.2 42.32 21.01 44.13 18.91 42.99 19.19 41.32 19.41 39.98 19.61 38.78 19.84 37.46 19.99 36.54 20.21 35.22 20.36 34.3 20.37 34.27 20.64 33 20.82 32.11 21.07 30.93 21.21 30.25 21.48 28.96 21.68 28.05 21.94 26.76 22.11 25.96 22.38 24.65 22.52 24 23.75 24.71"/><path class="cls-24" d="M120,38.47h0c.59-.34.51-.93-.17-1.33L60.5,2.79a2.54,2.54,0,0,0-2.3-.1h0c-.59.34-.52.94.16,1.33L117.7,38.38A2.57,2.57,0,0,0,120,38.47Z"/><path class="cls-24" d="M115,41.34h0c.59-.34.52-.94-.16-1.33L55.54,5.65a2.57,2.57,0,0,0-2.3-.1h0c-.59.34-.52.94.16,1.33l59.34,34.36A2.57,2.57,0,0,0,115,41.34Z"/><path class="cls-24" d="M110.08,44.2h0c.59-.34.52-.94-.16-1.33L50.58,8.51a2.57,2.57,0,0,0-2.3-.09h0c-.59.34-.52.93.17,1.33L107.78,44.1A2.54,2.54,0,0,0,110.08,44.2Z"/><path class="cls-24" d="M105.13,47.06h0c.59-.34.51-.94-.17-1.33L45.62,11.37a2.57,2.57,0,0,0-2.3-.09h0c-.59.34-.51.93.17,1.33L102.82,47A2.59,2.59,0,0,0,105.13,47.06Z"/><path class="cls-24" d="M100.17,49.92h0c.59-.34.51-.93-.17-1.33L40.67,14.24a2.54,2.54,0,0,0-2.3-.1h0c-.6.34-.52.94.16,1.33L97.87,49.83A2.57,2.57,0,0,0,100.17,49.92Z"/><path class="cls-24" d="M95.21,52.78h0c.59-.34.52-.93-.16-1.32L35.71,17.1a2.57,2.57,0,0,0-2.3-.1h0c-.59.34-.52.94.16,1.33L92.91,52.69A2.53,2.53,0,0,0,95.21,52.78Z"/><path class="cls-24" d="M90.25,55.65h0c.59-.34.52-.94-.16-1.33L30.75,20a2.53,2.53,0,0,0-2.3-.09h0c-.59.34-.52.93.16,1.32L88,55.55A2.54,2.54,0,0,0,90.25,55.65Z"/><path class="cls-50" d="M120,38h0c.59-.34.51-.94-.17-1.33L60.5,2.35a2.57,2.57,0,0,0-2.3-.1h0c-.59.35-.52.94.16,1.33L117.7,37.94A2.57,2.57,0,0,0,120,38Z"/><path class="cls-50" d="M115,40.9h0c.59-.34.52-.94-.16-1.33L55.54,5.21a2.57,2.57,0,0,0-2.3-.09h0c-.59.34-.52.93.16,1.33L112.74,40.8A2.54,2.54,0,0,0,115,40.9Z"/><path class="cls-50" d="M110.08,43.76h0c.59-.34.52-.93-.16-1.33L50.58,8.07A2.57,2.57,0,0,0,48.28,8h0c-.59.34-.52.94.17,1.33l59.33,34.36A2.57,2.57,0,0,0,110.08,43.76Z"/><path class="cls-50" d="M105.13,46.62h0c.59-.34.51-.93-.17-1.33L45.62,10.94a2.54,2.54,0,0,0-2.3-.1h0c-.59.34-.51.94.17,1.33l59.33,34.36A2.59,2.59,0,0,0,105.13,46.62Z"/><path class="cls-50" d="M100.17,49.49h0c.59-.34.51-.94-.17-1.33L40.67,13.8a2.57,2.57,0,0,0-2.3-.1h0c-.6.34-.52.94.16,1.33L97.87,49.39A2.57,2.57,0,0,0,100.17,49.49Z"/><path class="cls-50" d="M95.21,52.35h0c.59-.34.52-.94-.16-1.33L35.71,16.66a2.57,2.57,0,0,0-2.3-.09h0c-.59.34-.52.93.16,1.33L92.91,52.25A2.54,2.54,0,0,0,95.21,52.35Z"/><path class="cls-50" d="M90.25,55.21h0c.59-.34.52-.94-.16-1.33L30.75,19.52a2.57,2.57,0,0,0-2.3-.09h0c-.59.34-.52.93.16,1.33L88,55.11A2.54,2.54,0,0,0,90.25,55.21Z"/><path class="cls-5" d="M155.66,90.71s.38,4.34-.47,6.45-8.75,7.88-8.75,7.88v-.3a.73.73,0,0,0-1.08-.64l-7.81,4.27a1.73,1.73,0,0,0-.9,1.52v.4a80,80,0,0,1-8.68,3,67.86,67.86,0,0,1-8,1.73l-.13-3.16s17-5.11,21.46-8.17C146.23,100.24,155.66,90.71,155.66,90.71Z"/><path class="cls-5" d="M119.81,111.83l.13,3.16s-2.36,0-3.57,0a10.51,10.51,0,0,1-3.29-1.37,12.72,12.72,0,0,0-1.56-2.78l-1.14-1.2-.89-2.06-1.68-2.37c1.1.34,3.08,3.52,3.08,3.52s4.62,2.84,5.76,3A7.39,7.39,0,0,0,119.81,111.83Z"/><polygon class="cls-54" points="23.64 25.3 23.4 26.61 22.11 25.96 22.38 24.65 23.64 25.3"/><polygon class="cls-54" points="23.26 27.43 23.01 28.74 21.68 28.05 21.94 26.76 23.26 27.43"/><polygon class="cls-54" points="22.84 29.65 22.61 30.96 21.21 30.25 21.48 28.96 22.84 29.65"/><polygon class="cls-54" points="22.47 31.65 22.26 32.84 20.82 32.11 21.07 30.93 22.47 31.65"/><polygon class="cls-54" points="22.12 33.76 21.97 35.13 20.36 34.3 20.37 34.27 20.64 33 22.12 33.76"/><polygon class="cls-54" points="21.87 36.06 21.73 37.42 19.99 36.54 20.21 35.22 21.87 36.06"/><polygon class="cls-54" points="21.62 38.37 21.48 39.73 19.61 38.78 19.84 37.46 21.62 38.37"/><polygon class="cls-54" points="21.37 40.98 21.23 42.33 21.2 42.32 19.19 41.32 19.41 39.98 21.35 40.96 21.37 40.98"/></g></g></g></svg>