<svg xmlns="http://www.w3.org/2000/svg" xmlns:xlink="http://www.w3.org/1999/xlink" viewBox="0 0 15.58 44.01"><defs><style>.cls-1{fill:none;}.cls-2{opacity:0.25;}.cls-3{clip-path:url(#clip-path);}.cls-4{fill:#f2d0b8;}.cls-5{fill:#e5e5e5;}.cls-6{fill:#cbcbcb;}.cls-7{fill:#f2f2f2;}.cls-8{clip-path:url(#clip-path-2);}.cls-9{fill:#f1ccad;}.cls-10{fill:#eec1a6;}.cls-11{clip-path:url(#clip-path-3);}.cls-12{fill:#212426;}.cls-13{fill:#42484d;}.cls-14{fill:#2c3033;}.cls-15{fill:#e1771c;}.cls-16{fill:#e8a126;}.cls-17{opacity:0.1;}.cls-18{clip-path:url(#clip-path-4);}.cls-19{clip-path:url(#clip-path-5);}.cls-20{opacity:0.05;}.cls-21{clip-path:url(#clip-path-6);}.cls-22{fill:#f0c7a3;}.cls-23{fill:#e5aa89;}.cls-24{clip-path:url(#clip-path-7);}.cls-25{clip-path:url(#clip-path-8);}.cls-26{fill:#f1cdb2;}.cls-27{fill:#450000;}.cls-28{fill:#360000;}.cls-29{fill:#590000;}.cls-30{fill:#6e0000;}.cls-31{fill:#edbc2e;}.cls-32{fill:#d06b19;}.cls-33{fill:url(#Degradado_sin_nombre_291);}</style><clipPath id="clip-path"><path class="cls-1" d="M3.73,8.18a1,1,0,0,1,1.46.13c1.83,2.28,1,7,1,7h0a1.25,1.25,0,0,1-2.5,0,20.3,20.3,0,0,1-.73-4.43A3.05,3.05,0,0,1,3.73,8.18Z"/></clipPath><clipPath id="clip-path-2"><path class="cls-1" d="M3.39,19.35s-.34-.07-.31-.75a2.7,2.7,0,0,1,.32-1.36l.29-2a1.26,1.26,0,1,1,2.51,0,20.85,20.85,0,0,1-.15,2.11,1.89,1.89,0,0,1,.15,1.16,1.06,1.06,0,0,1-1,1,14.74,14.74,0,0,0-.73,2.49,2.08,2.08,0,0,0,.26.65c.19.29.12,1,.17,1.33a6.46,6.46,0,0,1,.09.78s.1.27,0,.37a.17.17,0,0,1-.21,0s-.07.24-.49.16A1.12,1.12,0,0,1,3.52,25a3,3,0,0,1-.44-1.2c0-.41.2-1.18.2-1.58S3.39,19.35,3.39,19.35Z"/></clipPath><clipPath id="clip-path-3"><path class="cls-1" d="M7.9,30.33h0a1.75,1.75,0,0,0-3.48.25,2,2,0,0,0,0,.24h0l.32,1.92.25,4s-.15.82.14,1.08c0,0-1.58.95-1.82,1.54s-.51,1.94.91,1.83S5.86,40,6.7,39.74s1.68-.47,1.14-1.54a14.27,14.27,0,0,0,.23-1.74A32.38,32.38,0,0,0,7.9,30.33Z"/></clipPath><clipPath id="clip-path-4"><path class="cls-1" d="M8.05,25.29c.07-.38.41-2.15-.28-2.75a3.22,3.22,0,0,0-3-1,.84.84,0,0,0-.84.74,7,7,0,0,0-.17,2.79L4.09,29l.36,2h0a1.76,1.76,0,0,0,3.47-.37.77.77,0,0,0,0-.15l-.06-2.6S8,25.67,8.05,25.29Z"/></clipPath><clipPath id="clip-path-5"><path class="cls-1" d="M11.71,36.46l-.11-3.9-.27-1.62a1.75,1.75,0,0,0-3.5,0,1.47,1.47,0,0,0,.06.42h0l.49,2.83a30,30,0,0,1,.12,3.21c-.12,1,.28,1.26.28,1.26a4.82,4.82,0,0,1-1.22,2.07,1.18,1.18,0,0,0-.23,1.11c-.09.87,1,.67,1,.67,2.09-.54,2.07-1.93,2.65-2.36a1.1,1.1,0,0,0,.27-1.24l.24-.09Z"/></clipPath><clipPath id="clip-path-6"><path class="cls-1" d="M11.27,22.78a3.23,3.23,0,0,0-3-1,.84.84,0,0,0-.84.74,7,7,0,0,0-.17,2.79l.3,3.93.26,2h0a1.75,1.75,0,0,0,3.47-.28v-.08h0v-2.8s.15-2.14.22-2.53S12,23.38,11.27,22.78Z"/></clipPath><clipPath id="clip-path-7"><path class="cls-1" d="M9.54,24.54c.26-.34.43-.67.28-.76s-.51.37-.77.17,0-.53.27-.64.39-.45.68-.77.75-.3.74-.83,0-1.82,0-1.82a1.61,1.61,0,0,1-.21-1.08,1.44,1.44,0,0,1,.34-.94l.2-1.67a1.26,1.26,0,1,1,2.51,0l-.09,1.92a1.63,1.63,0,0,1,.09,1.34,1.06,1.06,0,0,1-1,.75A19,19,0,0,1,12,22.87a7,7,0,0,1-.65,1.45c-.86,1.36-2.29,1.26-2.45.88S9.29,24.88,9.54,24.54Z"/></clipPath><clipPath id="clip-path-8"><path class="cls-1" d="M11.17,9.1a1,1,0,0,1,1.46.13c1.83,2.28,1,7,1,7h0a1.26,1.26,0,0,1-2.51,0,20.3,20.3,0,0,1-.73-4.43A3.05,3.05,0,0,1,11.17,9.1Z"/></clipPath><linearGradient id="Degradado_sin_nombre_291" x1="-1807.78" y1="2.32" x2="-1802.18" y2="2.32" gradientTransform="matrix(-1, 0, 0, 1, -1797.75, 0)" gradientUnits="userSpaceOnUse"><stop offset="0" stop-color="#e1771c"/><stop offset="0.5" stop-color="#dc731b"/><stop offset="1" stop-color="#d06b19"/></linearGradient></defs><title>Recurso 43</title><g id="Capa_2" data-name="Capa 2"><g id="personajes"><ellipse class="cls-2" cx="7.79" cy="40.37" rx="7.79" ry="3.63"/><g class="cls-3"><path class="cls-4" d="M5.91,15.69a6,6,0,0,1-.13,1.58c-.22.72-.45,1.44-.5,1.62s-.32,1-.56,1.7c-.09.28-.17.55-.24.78a2.51,2.51,0,0,0-.13.56V22a1.7,1.7,0,0,0,.28.81,2.69,2.69,0,0,1,.12.9c0,.22.13.91.13.91v.23l.06.16-.06.17-.16,0,0,.1-.39,0A5.8,5.8,0,0,1,3.67,25a6.74,6.74,0,0,1-.5-1.17c0-.07.15-1.14.21-1.51,0-.1,0-.4.05-.79,0-1.06.09-2.86.09-3.63a6.85,6.85,0,0,1,.2-1.59c.1-.47.22-.88.29-1.12a12.07,12.07,0,0,0,.16-1.92s1.32-.53,1.61-.29.17,2.28.13,2.75"/><path class="cls-5" d="M3.18,12.58c0,.08,0,.16,0,.24a.49.49,0,0,0,0,.12c.07.82.34,1.6.42,2.43a7.61,7.61,0,0,1-.15,2.07s0,0,0,.08l0,.15c0,.25-.1.5-.13.76a2.22,2.22,0,0,0,0,.37c0,.4.34.35.65.36h.13a2.81,2.81,0,0,0,.71-.07,1.45,1.45,0,0,0,1-.62,1.09,1.09,0,0,0,.12-.4c.1-.49.18-1,.24-1.48a10,10,0,0,0,.14-1.33c0-.47,0-.93,0-1.39s0-1-.08-1.53c0-.16,0-.32-.05-.48a11.05,11.05,0,0,0-.42-2.12,5.25,5.25,0,0,0-.42-1c-.15-.26-.24-.57-.59-.63H4.31a1.18,1.18,0,0,0-.72.53A3.46,3.46,0,0,0,3.1,10h0a.49.49,0,0,1,0,.12v.11c0,.76.07,1.54.09,2.31"/><path class="cls-6" d="M3.34,17.85a1.35,1.35,0,0,0,0,.63c.06.26.35.44.56.58l.16.1a2.81,2.81,0,0,0,.71-.07,1.45,1.45,0,0,0,1-.62,1.09,1.09,0,0,0,.12-.4c.1-.49.18-1,.24-1.48a10,10,0,0,0,.14-1.33c0-.47,0-.93,0-1.39s0-1-.08-1.53c0-.16,0-.32-.05-.48a11.05,11.05,0,0,0-.42-2.12,5.25,5.25,0,0,0-.42-1c-.15-.26-.24-.57-.59-.63h-.3a1.14,1.14,0,0,1,.31.46,12.59,12.59,0,0,1,.87,3.53.51.51,0,0,1-.09.42.58.58,0,0,1-.31.13l-.41.06.6.25c-.08,0-.07.16,0,.23a1.21,1.21,0,0,0,.2.19.21.21,0,0,1,.06.23c-.08.16-.34,0-.49.13a1.56,1.56,0,0,0,.38.28,1.07,1.07,0,0,1,.32.87c-.07.34-.54.27-.84.3l.55.46c.27.26.17.47.15.82s0,.61-.4.58a.6.6,0,0,1-.42,1.06A1.17,1.17,0,0,1,4,17.74a3.59,3.59,0,0,0-.39-.39.05.05,0,0,0-.05,0s0,0,0,.06a2.89,2.89,0,0,0-.14.47"/><path class="cls-6" d="M3.18,12.58c0,.08,0,.16,0,.24a.49.49,0,0,0,0,.12c.07.82.34,1.6.42,2.43a7.61,7.61,0,0,1-.15,2.07,3.91,3.91,0,0,0,.17-.84,4.48,4.48,0,0,1,.1-.81.42.42,0,0,1,.14-.22,1.45,1.45,0,0,1,.36-.08.93.93,0,0,1,.37-.06A1.17,1.17,0,0,1,4,15.17c-.08-.07-.32-.29-.17-.41A.44.44,0,0,1,4,14.7h.17a1.43,1.43,0,0,1-.73-.83,1.23,1.23,0,0,1-.12-.63c0-.19.2-.28.37-.35a.83.83,0,0,0,.45-.27,1.63,1.63,0,0,1-.82,0l.19-.38a.06.06,0,0,0,0,0c0-.09-.2,0-.21-.11.28-.22.73-.07,1-.27a1.24,1.24,0,0,1-.69,0A1.1,1.1,0,0,1,3.2,11a2.84,2.84,0,0,1-.11-.71c0,.76.07,1.54.09,2.31"/><path class="cls-7" d="M3.39,17.43l.09-.12a1.38,1.38,0,0,0,.38.62,1.58,1.58,0,0,0,.61.3,1.28,1.28,0,0,0,.9-.12,1.14,1.14,0,0,0,.45-.42,1.13,1.13,0,0,0,.12-.28,1.33,1.33,0,0,1,.17.71A2.05,2.05,0,0,1,6,18.9a1,1,0,0,1-.14.27,1,1,0,0,1-.47.26,3.69,3.69,0,0,1-1.92-.19l-.13-.07a.64.64,0,0,1-.16-.48,3.57,3.57,0,0,1,0-.73,1.47,1.47,0,0,1,.19-.53"/></g><g class="cls-8"><path class="cls-4" d="M5.91,15.69a5.75,5.75,0,0,1-.14,1.58c-.21.72-.44,1.44-.49,1.62s-.33,1-.56,1.7c-.09.28-.18.55-.25.78a4.71,4.71,0,0,0-.13.56V22a1.71,1.71,0,0,0,.29.81,2.44,2.44,0,0,1,.11.9c0,.22.13.91.13.91v.23l.07.16-.06.17-.17,0,0,.1-.39,0A5,5,0,0,1,3.67,25a6.12,6.12,0,0,1-.51-1.17c0-.07.15-1.14.22-1.51,0-.1,0-.4.05-.79,0-1.06.08-2.86.08-3.63a7.44,7.44,0,0,1,.2-1.59c.1-.47.23-.88.3-1.12a13,13,0,0,0,.15-1.92s1.32-.53,1.62-.29.16,2.28.13,2.75"/><path class="cls-9" d="M4.09,22.36c0-.1,0-.22-.07-.32a.54.54,0,0,0-.13-.3h0s0,0,0,0a.27.27,0,0,0-.1.19,1.33,1.33,0,0,0,.07.48.66.66,0,0,1,0,.48.6.6,0,0,1-.2.22.52.52,0,0,0-.1.11.66.66,0,0,0,0,.15l0,.29c0,.05,0,.1,0,.15a.58.58,0,0,0,0,.18c.1.27.19.55.31.82a.15.15,0,0,0,0,.07.08.08,0,0,0,.08,0c.05,0,0-.1,0-.15a2,2,0,0,1-.17-.62.85.85,0,0,1,.21-.71.16.16,0,0,1,.17,0c.05,0,.06.1.08.15a.75.75,0,0,0,.1.17.62.62,0,0,1,.07.19c.05.16.09.32.14.48a.13.13,0,0,0,0,.1.09.09,0,0,0,.09,0,.12.12,0,0,0,0-.11,3.18,3.18,0,0,0-.08-.81,1.42,1.42,0,0,0,0-.36,1.69,1.69,0,0,0-.08-.34,4.21,4.21,0,0,1-.34-.52"/><path class="cls-10" d="M3.93,23.67s0,.25-.06.45a1.62,1.62,0,0,0,0,.33l.19.36.27.19.27.15s-.25-.24-.27-.39,0-.3,0-.3A2.9,2.9,0,0,0,4.21,24a.58.58,0,0,0-.06-.11Z"/><path class="cls-5" d="M3.17,12.58c0,.08,0,.16,0,.24a.49.49,0,0,0,0,.12c.07.82.33,1.6.42,2.43a8,8,0,0,1-.15,2.07s0,0,0,.08,0,.1,0,.15c-.05.25-.11.5-.14.76a2.22,2.22,0,0,0,0,.37c0,.4.34.35.65.36H4a2.93,2.93,0,0,0,.72-.07,1.43,1.43,0,0,0,.94-.62,1.34,1.34,0,0,0,.13-.4c.09-.49.17-1,.23-1.48a10,10,0,0,0,.14-1.33c0-.47,0-.93,0-1.39s0-1-.08-1.53c0-.16,0-.32,0-.48a11.07,11.07,0,0,0-.43-2.12,4.69,4.69,0,0,0-.42-1c-.14-.26-.24-.57-.58-.63H4.3a1.16,1.16,0,0,0-.71.53A3.18,3.18,0,0,0,3.1,10h0a.49.49,0,0,0,0,.12v.11c0,.76.06,1.54.08,2.31"/><path class="cls-6" d="M3.33,17.85a1.49,1.49,0,0,0,0,.63c.07.26.35.44.57.58l.15.1a2.93,2.93,0,0,0,.72-.07,1.43,1.43,0,0,0,.94-.62,1.34,1.34,0,0,0,.13-.4c.09-.49.17-1,.23-1.48a10,10,0,0,0,.14-1.33c0-.47,0-.93,0-1.39s0-1-.08-1.53c0-.16,0-.32,0-.48a11.07,11.07,0,0,0-.43-2.12,4.69,4.69,0,0,0-.42-1c-.14-.26-.24-.57-.58-.63h-.3a1.12,1.12,0,0,1,.3.46,12.59,12.59,0,0,1,.87,3.53.51.51,0,0,1-.08.42.61.61,0,0,1-.32.13l-.41.06.6.25a.17.17,0,0,0,0,.23c.05.08.13.12.19.19a.21.21,0,0,1,.06.23c-.08.16-.34,0-.48.13a1.5,1.5,0,0,0,.37.28,1,1,0,0,1,.32.87c-.06.34-.53.27-.84.3l.55.46c.28.26.18.47.16.82s0,.61-.4.58a.61.61,0,0,1-.43,1.06A1.17,1.17,0,0,1,4,17.74a4.68,4.68,0,0,0-.38-.39.09.09,0,0,0-.06,0,.15.15,0,0,0,0,.06,4.41,4.41,0,0,0-.14.47"/><path class="cls-6" d="M3.17,12.58c0,.08,0,.16,0,.24a.49.49,0,0,0,0,.12c.07.82.33,1.6.42,2.43a8,8,0,0,1-.15,2.07,3.9,3.9,0,0,0,.16-.84,5.6,5.6,0,0,1,.1-.81.38.38,0,0,1,.15-.22,1.37,1.37,0,0,1,.35-.08,1,1,0,0,1,.38-.06A1.11,1.11,0,0,1,4,15.17c-.09-.07-.33-.29-.18-.41A.46.46,0,0,1,4,14.7h.18a1.4,1.4,0,0,1-.73-.83,1.23,1.23,0,0,1-.12-.63c0-.19.2-.28.37-.35a.84.84,0,0,0,.44-.27,1.59,1.59,0,0,1-.81,0c.06-.13.12-.26.19-.38s0,0,0,0-.2,0-.21-.11c.28-.22.72-.07,1-.27a1.24,1.24,0,0,1-.69,0A1.14,1.14,0,0,1,3.19,11a3.38,3.38,0,0,1-.1-.71c0,.76.06,1.54.08,2.31"/><path class="cls-7" d="M3.38,17.43l.09-.12a1.47,1.47,0,0,0,.38.62,1.58,1.58,0,0,0,.61.3,1.3,1.3,0,0,0,.91-.12,1.21,1.21,0,0,0,.45-.42,1.08,1.08,0,0,0,.11-.28,1.34,1.34,0,0,1,.18.71A2.06,2.06,0,0,1,6,18.9a.78.78,0,0,1-.14.27.91.91,0,0,1-.47.26,3.7,3.7,0,0,1-1.92-.19.47.47,0,0,1-.12-.07.65.65,0,0,1-.17-.48,4.45,4.45,0,0,1,0-.73,1.47,1.47,0,0,1,.19-.53"/></g><g class="cls-11"><path class="cls-12" d="M5.73,37.3a1.28,1.28,0,0,1-.57,1.07c-.58.35-1.61,1.16-1.61,1.16a1.77,1.77,0,0,0-.24,1,.84.84,0,0,0,.3.42c.48.4,1.42.09,1.82-.3a6.58,6.58,0,0,1,.93-.82,7.05,7.05,0,0,1,1.1-.45.64.64,0,0,0,.44-.51,1,1,0,0,0-.08-.56A.65.65,0,0,0,7.54,38l-.37-.25-.56-.36Z"/><path class="cls-13" d="M7.64,38.88c-.07.21-.55.34-.73.41a3.45,3.45,0,0,1-.42.14A2.14,2.14,0,0,0,6,39.8l-.55.49a2.07,2.07,0,0,1-1.14.47.74.74,0,0,1-.56-.07,1,1,0,0,1-.42-.53.78.78,0,0,1,0-.16l0-.22a1.5,1.5,0,0,1,.57-.86c.35-.27.91-.69,1.28-.91a1.28,1.28,0,0,0,.56-1.07l.89.11.76.49.33.22a7.06,7.06,0,0,1-.06,1.12"/><path class="cls-14" d="M7.64,38.88c-.07.21-.55.34-.73.41a3.45,3.45,0,0,1-.42.14A2.14,2.14,0,0,0,6,39.8l-.55.49a2.07,2.07,0,0,1-1.14.47.74.74,0,0,1-.56-.07,1,1,0,0,1-.42-.53.78.78,0,0,1,0-.16c.21,0,.4.11.6.15a1.57,1.57,0,0,0,1.24-.28c.14-.11.27-.25.41-.36a4.63,4.63,0,0,1,.73-.39A2,2,0,0,0,7,38.67a.8.8,0,0,0,.22-.76.33.33,0,0,1,.2-.37l.33.22a7.06,7.06,0,0,1-.06,1.12"/><path class="cls-15" d="M4.1,22.13a.59.59,0,0,1,.16-.27h0a.47.47,0,0,1,.12-.09c.88-.58,3.25.15,3.56,1.27,0,.06,0,.13,0,.22a5.44,5.44,0,0,1,0,1.8,17.43,17.43,0,0,0-.21,4.1c.07,1,.15,2.74.23,3.64a36.22,36.22,0,0,1-.09,4.66c-.06.41-.11.69-.11.69l-.08,0a3.93,3.93,0,0,1-.6.19,2.28,2.28,0,0,1-.64,0c-.55-.06-1.16-.23-1.32-.83a2.9,2.9,0,0,1,0-.78c0-.65-.11-3.35-.22-4s-.37-1.41-.47-2.13c-.22-1.6-.36-4-.49-5.59,0-.12,0-.23,0-.36l0-.68A6.09,6.09,0,0,1,4.1,22.13Z"/><path class="cls-16" d="M6.25,31.12a.56.56,0,0,0,.17-.26,4.81,4.81,0,0,0-.34-2.52,9.82,9.82,0,0,1-.55-1.77,4.82,4.82,0,0,1-.11-1.27s0-2.64,1-3.54A2.34,2.34,0,0,1,7.94,23c0,.06,0,.13,0,.22a5.44,5.44,0,0,1,0,1.8,17.43,17.43,0,0,0-.21,4.1c.09,1.25.19,3.15.27,4.22,0,.46,0,3,0,3.43H8c0,.16,0,.31-.07.47h0c0,.37-.1.66-.12.79h0a.35.35,0,0,1-.06.09h0l-.06,0c-.14,0-.25-.38-.27-.54-.07-.77-.17-3.59-.28-4.35-.07-.51,0-1.42-.68-1.55a1.89,1.89,0,0,0-.67,0,1.2,1.2,0,0,1-.65-.05A1.79,1.79,0,0,0,6.25,31.12Z"/><path class="cls-17" d="M4.1,22.13a.59.59,0,0,1,.16-.27h0a.47.47,0,0,1,.12-.09,2.52,2.52,0,0,1,2,0h0l.22.08,0,0,.24.11h0l.22.13h0l.18.12,0,0a.93.93,0,0,1,.15.13l.05,0a1.59,1.59,0,0,1,.28.36h0a1,1,0,0,1,.09.21c0,.06,0,.13,0,.22a5.44,5.44,0,0,1,0,1.8,17.43,17.43,0,0,0-.21,4.1c.09,1.25.19,3.15.27,4.22,0,.46,0,3,0,3.43H8c0,.16,0,.31-.07.47h0l0,.16h0c-.06.41-.11.69-.11.69l0,0h0l-.06,0h0a4.09,4.09,0,0,1-.54.16,2.28,2.28,0,0,1-.64,0c-.55-.06-1.16-.23-1.32-.83a2.9,2.9,0,0,1,0-.78c0-.65-.11-3.35-.22-4s-.37-1.41-.47-2.13c-.22-1.6-.36-4-.49-5.59,0-.12,0-.23,0-.36l0-.68A6.09,6.09,0,0,1,4.1,22.13Z"/></g><g class="cls-18"><path class="cls-15" d="M4.1,22.13a.59.59,0,0,1,.16-.27h0a.47.47,0,0,1,.12-.09c.88-.58,3.25.15,3.56,1.27,0,.06,0,.13,0,.22a5.44,5.44,0,0,1,0,1.8,17.43,17.43,0,0,0-.21,4.1c.07,1,.15,2.74.23,3.64a36.22,36.22,0,0,1-.09,4.66c-.06.41-.11.69-.11.69l-.08,0a3.93,3.93,0,0,1-.6.19,2.28,2.28,0,0,1-.64,0c-.55-.06-1.16-.23-1.32-.83a2.9,2.9,0,0,1,0-.78c0-.65-.11-3.35-.22-4s-.37-1.41-.47-2.13c-.22-1.6-.36-4-.49-5.59,0-.12,0-.23,0-.36l0-.68A6.09,6.09,0,0,1,4.1,22.13Z"/><path class="cls-16" d="M6.25,31.12a.56.56,0,0,0,.17-.26,4.81,4.81,0,0,0-.34-2.52,9.82,9.82,0,0,1-.55-1.77,4.82,4.82,0,0,1-.11-1.27s0-2.64,1-3.54A2.34,2.34,0,0,1,7.94,23c0,.06,0,.13,0,.22a5.44,5.44,0,0,1,0,1.8,17.43,17.43,0,0,0-.21,4.1c.09,1.25.19,3.15.27,4.22,0,.46,0,3,0,3.43H8c0,.16,0,.31-.07.47h0c0,.37-.1.66-.12.79h0a.35.35,0,0,1-.06.09h0l-.06,0c-.14,0-.25-.38-.27-.54-.07-.77-.17-3.59-.28-4.35-.07-.51,0-1.42-.68-1.55a1.89,1.89,0,0,0-.67,0,1.2,1.2,0,0,1-.65-.05A1.79,1.79,0,0,0,6.25,31.12Z"/><path class="cls-17" d="M4.1,22.13a.59.59,0,0,1,.16-.27h0a.47.47,0,0,1,.12-.09,2.52,2.52,0,0,1,2,0h0l.22.08,0,0,.24.11h0l.22.13h0l.18.12,0,0a.93.93,0,0,1,.15.13l.05,0a1.59,1.59,0,0,1,.28.36h0a1,1,0,0,1,.09.21c0,.06,0,.13,0,.22a5.44,5.44,0,0,1,0,1.8,17.43,17.43,0,0,0-.21,4.1c.09,1.25.19,3.15.27,4.22,0,.46,0,3,0,3.43H8c0,.16,0,.31-.07.47h0l0,.16h0c-.06.41-.11.69-.11.69l0,0h0l-.06,0h0a4.09,4.09,0,0,1-.54.16,2.28,2.28,0,0,1-.64,0c-.55-.06-1.16-.23-1.32-.83a2.9,2.9,0,0,1,0-.78c0-.65-.11-3.35-.22-4s-.37-1.41-.47-2.13c-.22-1.6-.36-4-.49-5.59,0-.12,0-.23,0-.36l0-.68A6.09,6.09,0,0,1,4.1,22.13Z"/></g><g class="cls-19"><path class="cls-12" d="M11,38.44l.09.22a1.42,1.42,0,0,1,.11.33,1.27,1.27,0,0,1,0,.67,2.38,2.38,0,0,1-.51.75,11.13,11.13,0,0,1-1.08,1.38,2.24,2.24,0,0,1-1.44.62c-.84,0-.79-.26-.76-.76s.81-1.22,1-1.51L9,38.86l.66-.4Z"/><path class="cls-13" d="M11,39.3a3.52,3.52,0,0,1-.74,1.5,2.9,2.9,0,0,1-2.08,1.29c-.84,0-.78-.26-.75-.76h0c0-.5.8-1.21.94-1.5L9,38.54l.66-.4,1.37,0,0,.08A1.9,1.9,0,0,1,11,39.3"/><path class="cls-14" d="M11,39.3a3.52,3.52,0,0,1-.74,1.5,2.9,2.9,0,0,1-2.08,1.29c-.84,0-.78-.26-.75-.76h.06a4.38,4.38,0,0,0,.94.2,1.68,1.68,0,0,0,.94-.19,2.12,2.12,0,0,0,.54-.45,3,3,0,0,0,.44-.57,2.77,2.77,0,0,0,.27-.67,3.1,3.1,0,0,0,.1-1v-.12A.45.45,0,0,1,11,38.2,1.9,1.9,0,0,1,11,39.3"/><path class="cls-16" d="M7.55,22.38a.68.68,0,0,1,.15-.28h0A.47.47,0,0,1,7.83,22c.91-.59,3.34.15,3.66,1.31,0,.06,0,.13,0,.22a5.74,5.74,0,0,1,0,1.85,25,25,0,0,0-.21,5c.07,1.06.15,2.05.23,3a37.47,37.47,0,0,1-.09,4.74c-.06.42-.11.71-.11.71l-.09,0a3.2,3.2,0,0,1-.61.19A2.42,2.42,0,0,1,10,39c-.57-.06-1.19-.24-1.35-.85a2.75,2.75,0,0,1,0-.81c0-.66-.11-3.39-.22-4S8,31.89,7.88,31.15c-.23-1.64-.37-4.08-.5-5.72l0-.37c0-.23,0-.47,0-.71A6.12,6.12,0,0,1,7.55,22.38Z"/><path class="cls-15" d="M9.76,31.6a.9.9,0,0,0,.17-.26,4.82,4.82,0,0,0-.35-2.58A9.74,9.74,0,0,1,9,27a5.15,5.15,0,0,1-.11-1.31s0-2.71,1-3.64a2.36,2.36,0,0,1,1.61,1.31c0,.06,0,.13,0,.22a5.74,5.74,0,0,1,0,1.85,25,25,0,0,0-.21,5c.08,1.29.19,4.53.27,5.63a6.05,6.05,0,0,1,0,1.41h0c0,.16,0,.32-.07.48h0c-.05.38-.1.68-.12.8h0l-.06.09h0l-.06,0c-.14,0-.26-.39-.27-.55-.08-.79-.18-1.58-.29-2.36-.08-.53,0-3.52-.7-3.65a2,2,0,0,0-.69,0,1.18,1.18,0,0,1-.67-.06A1.85,1.85,0,0,0,9.76,31.6Z"/><path class="cls-20" d="M7.55,22.38a.68.68,0,0,1,.15-.28h0A.47.47,0,0,1,7.83,22a2.62,2.62,0,0,1,2.05,0h0l.24.09h0l.21.1.06,0,.16.09.09.05.16.11.07.05.12.11.08.07.08.09.08.09a.82.82,0,0,1,.11.17s0,0,0,0a.85.85,0,0,1,.09.22c0,.06,0,.13,0,.22a5.74,5.74,0,0,1,0,1.85,25,25,0,0,0-.21,5l.06.89a2.46,2.46,0,0,1,0,.28c0,.2,0,.39,0,.59l0,.29c0,.22,0,.44.05.65l0,.27h0c0,.2,0,2.45.05,2.65a6.66,6.66,0,0,1-.05,1.41h0c0,.16,0,.32-.07.48h0l0,.16h0c0,.12,0,.22,0,.32v0l0,.16v0l0,.19-.05,0h0l-.06,0h0a3.12,3.12,0,0,1-.55.16A2.42,2.42,0,0,1,10,39c-.57-.06-1.19-.24-1.35-.85a2.75,2.75,0,0,1,0-.81c0-.66-.11-3.39-.22-4S8,31.89,7.88,31.15c-.23-1.64-.37-4.08-.5-5.72l0-.37c0-.23,0-.47,0-.71A6.12,6.12,0,0,1,7.55,22.38Z"/></g><g class="cls-21"><path class="cls-16" d="M7.55,22.38a.68.68,0,0,1,.15-.28h0A.47.47,0,0,1,7.83,22c.91-.59,3.34.15,3.66,1.31,0,.06,0,.13,0,.22a5.74,5.74,0,0,1,0,1.85,25,25,0,0,0-.21,5c.07,1.06.15,2.05.23,3a37.47,37.47,0,0,1-.09,4.74c-.06.42-.11.71-.11.71l-.09,0a3.2,3.2,0,0,1-.61.19A2.42,2.42,0,0,1,10,39c-.57-.06-1.19-.24-1.35-.85a2.75,2.75,0,0,1,0-.81c0-.66-.11-3.39-.22-4S8,31.89,7.88,31.15c-.23-1.64-.37-4.08-.5-5.72l0-.37c0-.23,0-.47,0-.71A6.12,6.12,0,0,1,7.55,22.38Z"/><path class="cls-15" d="M9.76,31.6a.9.9,0,0,0,.17-.26,4.82,4.82,0,0,0-.35-2.58A9.74,9.74,0,0,1,9,27a5.15,5.15,0,0,1-.11-1.31s0-2.71,1-3.64a2.36,2.36,0,0,1,1.61,1.31c0,.06,0,.13,0,.22a5.74,5.74,0,0,1,0,1.85,25,25,0,0,0-.21,5c.08,1.29.19,4.53.27,5.63a6.05,6.05,0,0,1,0,1.41h0c0,.16,0,.32-.07.48h0c-.05.38-.1.68-.12.8h0l-.06.09h0l-.06,0c-.14,0-.26-.39-.27-.55-.08-.79-.18-1.58-.29-2.36-.08-.53,0-3.52-.7-3.65a2,2,0,0,0-.69,0,1.18,1.18,0,0,1-.67-.06A1.85,1.85,0,0,0,9.76,31.6Z"/><path class="cls-20" d="M7.55,22.38a.68.68,0,0,1,.15-.28h0A.47.47,0,0,1,7.83,22a2.62,2.62,0,0,1,2.05,0h0l.24.09h0l.21.1.06,0,.16.09.09.05.16.11.07.05.12.11.08.07.08.09.08.09a.82.82,0,0,1,.11.17s0,0,0,0a.85.85,0,0,1,.09.22c0,.06,0,.13,0,.22a5.74,5.74,0,0,1,0,1.85,25,25,0,0,0-.21,5l.06.89a2.46,2.46,0,0,1,0,.28c0,.2,0,.39,0,.59l0,.29c0,.22,0,.44.05.65l0,.27h0c0,.2,0,2.45.05,2.65a6.66,6.66,0,0,1-.05,1.41h0c0,.16,0,.32-.07.48h0l0,.16h0c0,.12,0,.22,0,.32v0l0,.16v0l0,.19-.05,0h0l-.06,0h0a3.12,3.12,0,0,1-.55.16A2.42,2.42,0,0,1,10,39c-.57-.06-1.19-.24-1.35-.85a2.75,2.75,0,0,1,0-.81c0-.66-.11-3.39-.22-4S8,31.89,7.88,31.15c-.23-1.64-.37-4.08-.5-5.72l0-.37c0-.23,0-.47,0-.71A6.12,6.12,0,0,1,7.55,22.38Z"/></g><path class="cls-12" d="M11.33,22.75h0a7.78,7.78,0,0,1-2.79.41,7.58,7.58,0,0,1-.82-.08,13.79,13.79,0,0,1-1.8-.41l-.11,0a7.59,7.59,0,0,1-.84-.3A1.46,1.46,0,0,1,4.45,22h0c0-.22,0-.45,0-.68l0,0a.74.74,0,0,1,.33,0l.88.13c.57.09,1.15.18,1.73.23a7.55,7.55,0,0,0,2.07-.07,7.18,7.18,0,0,1,1-.19,1.46,1.46,0,0,1,.65.13.05.05,0,0,1,0,0c.06.46.11.91.14,1.24"/><path class="cls-5" d="M3.8,12.11A21.36,21.36,0,0,1,4,14.51c0,.8.09,1.59.12,2.39,0,1.3.09,2.61.06,3.92V21a1,1,0,0,0,.11.47.83.83,0,0,0,.29.3,1.37,1.37,0,0,0,.2.13A6.79,6.79,0,0,0,6,22.49l.2.07.22.06h0a6.58,6.58,0,0,0,1.65.24,7,7,0,0,0,1.65-.14l.56-.14a.75.75,0,0,0,.41-.34,4.6,4.6,0,0,0,.5-1.34,6.23,6.23,0,0,0,.26-1.72c0-.44-.11-.81-.07-1.25,0-.08,0-.15,0-.23.07-.89.11-1.78.13-2.67,0-.23,0-.46,0-.68,0-.77,0-1.53-.05-2.3a7.48,7.48,0,0,1,0-1.24,1.46,1.46,0,0,1,.25-.65,3.27,3.27,0,0,1,.51-.45.5.5,0,0,0,.15-.26.81.81,0,0,0,0-.22.44.44,0,0,0-.31-.36c-.46-.19-.91-.48-1.34-.71A3.67,3.67,0,0,0,10,7.85L9.6,7.74l-.22-.06L9.09,7.6,9,7.58a1.7,1.7,0,0,0-.39,0l-.13,0a1.65,1.65,0,0,1-.73.12,9,9,0,0,0-1.58.11l-.8.1L5,8H5a3.18,3.18,0,0,0-.9.51,2.48,2.48,0,0,0-.4,1.12,8.19,8.19,0,0,0,.08,2.52"/><path class="cls-6" d="M5.94,18.56c0,.58,0,1.17,0,1.75s0,1,.1,1.47l.06.42a2.08,2.08,0,0,0,.06.36s.13,0,.14,0l.15,0c-.06,0-.08-.6-.09-.65-.06-.45-.09-.91-.11-1.37s0-1.13,0-1.69,0-1.23,0-1.85,0-1.23,0-1.84,0-1.13,0-1.69l.06-1.38c0-.33,0-.67.05-1s.07-.63.12-.94l-.2.36a3.14,3.14,0,0,0-.26,1.32L6,13.2c0,.54,0,1.1,0,1.65s0,1.22,0,1.83,0,1.25,0,1.88"/><path class="cls-16" d="M3.88,17.2q0,.56,0,1.11c0,.46,0,.92,0,1.39s0,1,0,1.45-.05,1.21.5,1.46l0,0a2,2,0,0,0,.35.1l.46.09a1.37,1.37,0,0,0,.52.1c-.07-.6-.16-1.18-.2-1.77,0-.21,0-.41,0-.61s0-.4,0-.6,0-.23,0-.35c0-.52,0-1.05-.05-1.58,0-.32,0-.64,0-1a.57.57,0,0,0,0-.13c-.11-2.47-.27-5,.63-7.36l0-.33c-.07-.33-.13-.67-.19-1,0-.1,0-.23-.15-.26a1.22,1.22,0,0,0-.33,0,1.93,1.93,0,0,0-.34,0,1,1,0,0,0-.41.11A1.52,1.52,0,0,0,4,8.56l-.09.13a2,2,0,0,0-.29.69,2.71,2.71,0,0,0-.09.57,7.08,7.08,0,0,0,.05,1.22c.15,1.55.23,3.1.26,4.65,0,.46,0,.92,0,1.38"/><path class="cls-15" d="M3.6,11.17a83,83,0,0,1,.25,10c0,.51-.05,1.21.5,1.46l0,0c0-.7-.15-1.39-.11-2.09s0-1.64-.06-2.45c0-1.31,0-2.62,0-3.93,0-.19,0-.44.22-.48s.38,0,.37-.12A1,1,0,0,1,4,12.87a2.85,2.85,0,0,1-.1-1c0-.38,0-.76,0-1.14a4.78,4.78,0,0,1,.21-1.56c.19-.49.89-1.21,1.41-1.17a3.17,3.17,0,0,0-.62,0,1.19,1.19,0,0,0-.41.11A1.52,1.52,0,0,0,4,8.56l-.09.13a2,2,0,0,0-.29.69,2.71,2.71,0,0,0-.09.57,7.08,7.08,0,0,0,.05,1.22"/><path class="cls-16" d="M6.88,17.39v.89q0,.81,0,1.62c0,.3,0,.6,0,.9,0,.76.08,1.51.15,2.26a.51.51,0,0,0,.06.25l0,0a.5.5,0,0,0,.21.09,6.28,6.28,0,0,0,3.33-.1.39.39,0,0,0,.32-.37l.78-3.41c.11-.47.21-.94.31-1.41a16,16,0,0,0,.35-2.67,25.49,25.49,0,0,0-.4-4.52c-.05-.33-.11-.66-.17-1h0a.71.71,0,0,1,.22-.75c.06-.05.14-.11.11-.18s0,0-.06-.07a6.69,6.69,0,0,0-2-1A.7.7,0,0,0,9.59,8,3.4,3.4,0,0,0,9,8.78,10.39,10.39,0,0,0,8.15,10a9.44,9.44,0,0,0-1,2.81,17.27,17.27,0,0,0-.2,2c0,.84-.06,1.68-.07,2.52"/><path class="cls-15" d="M7.16,23.31l0,0a.5.5,0,0,0,.21.09,6.28,6.28,0,0,0,3.33-.1.39.39,0,0,0,.32-.37l.78-3.41c.11-.47.21-.94.31-1.41a4,4,0,0,0-.34-.95,1.85,1.85,0,0,1-.29-.93c0-.41,0-.82,0-1.23,0-.23,0-.46,0-.68,0-.77,0-1.53-.05-2.3a7.48,7.48,0,0,1,0-1.24,1.46,1.46,0,0,1,.25-.65,1.26,1.26,0,0,1,.2-.2l.31-.25a.32.32,0,0,0,.14-.25h0a1,1,0,0,0,0-.3A.41.41,0,0,0,12.26,9a.25.25,0,0,0-.1-.08c-.26-.18-.5-.38-.78-.54a4,4,0,0,0-.86-.4c-.31-.1-.62-.16-.92-.25l-.14.19L9.59,8l.81.48a1.07,1.07,0,0,1,.31.25c.27.35,0,.84-.2,1.24a4.94,4.94,0,0,0-.21,2.67,1.54,1.54,0,0,1-.11,1.1,1.5,1.5,0,0,1-.89.65,1.78,1.78,0,0,1-1.2-.14,3.76,3.76,0,0,0,1.4.48,1.9,1.9,0,0,1,1.13.58,2.51,2.51,0,0,1,.14,1.25,21.62,21.62,0,0,1-.3,3c0,.18,0,.35,0,.53-.07.44-.17.87-.26,1.3a2.78,2.78,0,0,1-.72,1.35,2.11,2.11,0,0,1-1.37.65,4.9,4.9,0,0,1-.94-.08"/><path class="cls-7" d="M6.09,7.71a4.73,4.73,0,0,0-.14,1,1.3,1.3,0,0,0,.17.61,1.16,1.16,0,0,0,.53.42,2.72,2.72,0,0,0-.2.63,1.45,1.45,0,0,1,0,.29,1.88,1.88,0,0,0-.12.3A1.23,1.23,0,0,0,6,10.2a8.39,8.39,0,0,1-.56-.63,1.13,1.13,0,0,1,.67-1.86"/><path class="cls-5" d="M3.86,15.82c0,.46,0,.92,0,1.38A4.41,4.41,0,0,0,5.43,18c0-.32,0-.77,0-1.09A2.45,2.45,0,0,1,3.9,15.8Z"/><path class="cls-5" d="M3.87,19.7a4.56,4.56,0,0,0,1.64.84c0-.2,0-.4,0-.6s0-.37,0-.49A2.6,2.6,0,0,1,3.9,18.31h0c0,.46,0,.92,0,1.39"/><path class="cls-5" d="M7.47,12.79c0-.15,0-.45.17-.46a.61.61,0,0,1,.18.05,4.26,4.26,0,0,0,1.28.23,3.69,3.69,0,0,0,.57,0c.1,0,.28-.08.33.05a1.51,1.51,0,0,1,0,.47c0,.33,0,.67-.07,1a.55.55,0,0,1-.07.31.57.57,0,0,1-.24.19c-.32.18-.65.34-1,.49l-.12,0c-.24,0-.42-.27-.56-.45s-.13-.21-.21-.31a1.71,1.71,0,0,1-.2-.27.52.52,0,0,1,0-.21c0-.37,0-.73,0-1.1"/><path class="cls-15" d="M10.94,23.23a1.31,1.31,0,0,0,1.14-1c.33-1,1.56-10.28.18-13.2l-.74.39-.17.81-.3,5.47Z"/><path class="cls-5" d="M6.91,19.9c0,.3,0,.6,0,.9.3,0,.6,0,.9,0a29.64,29.64,0,0,0,4.56-.5l.12-1a24.92,24.92,0,0,1-5.62.52"/><path class="cls-5" d="M6.88,17.39v.89a8,8,0,0,0,1,0,28.33,28.33,0,0,0,4.86-.67l.08-1.11a22.6,22.6,0,0,1-5.91.84"/><path class="cls-22" d="M9.57,7.72a2,2,0,0,1-.83-.52.57.57,0,0,1-.1-.39h0A1,1,0,0,0,7.73,6C5.94,6,6.05,7.27,6.05,7.27h0a2.18,2.18,0,0,0,0,.4H6a2.26,2.26,0,0,1,0,.45,1.49,1.49,0,0,1,0,.21A1.14,1.14,0,0,0,6,8.7c.06.42.16.82.62.91a1.33,1.33,0,0,0,.76-.09,2.88,2.88,0,0,0,.75-.36l.62-.41.06,0L9,8.57C9.67,8.06,9.57,7.72,9.57,7.72Z"/><path class="cls-23" d="M9.26,8.36l.1-.12s0,0,0,0l.07-.11v0A.41.41,0,0,0,9.54,8h0a.51.51,0,0,0,0-.09V7.72a2,2,0,0,1-.83-.52.57.57,0,0,1-.1-.39h0A1,1,0,0,0,7.73,6C5.94,6,6.05,7.27,6.05,7.27h0a2.18,2.18,0,0,0,0,.4H6a2.26,2.26,0,0,1,0,.45,1.49,1.49,0,0,1,0,.21.82.82,0,0,0,.38.06,1.55,1.55,0,0,0,.74-.3c.22-.16.41-.35.63-.51a.55.55,0,0,1,.57-.15.45.45,0,0,1,.21.27c0,.11,0,.22,0,.34a2.29,2.29,0,0,0,.11.58.69.69,0,0,0,0,.13l.06,0L9,8.57l.19-.17Z"/><path class="cls-7" d="M6.7,9.69H7a.85.85,0,0,0,.22-.09l.24-.1c.16-.09.31-.2.46-.3.49-.31,1.18-.69,1.18-1.36,0-.09,0-.38-.1-.42a4.44,4.44,0,0,1,.63.15l.31.1a1.42,1.42,0,0,1,.31.11s0,.05,0,.11L10.19,8c0,.09-.08.18-.13.27a2.41,2.41,0,0,1-.33.5,3.47,3.47,0,0,1-.91.8,3.86,3.86,0,0,1-.57.3l-.56.25c-.21.11-.45.17-.67.26a1,1,0,0,0-.28.17l-.28.28s-.08.14-.1.14a3.17,3.17,0,0,1,.21-1.22.1.1,0,0,1,0-.07H6.7Z"/><g class="cls-24"><path class="cls-4" d="M13.35,15.73A18.1,18.1,0,0,1,12.78,19c-.15.77-.34,1.54-.52,2.31-.06.21-.12.39-.16.6s0,.16,0,.24l-.12.48A6.4,6.4,0,0,1,11.4,24a2.48,2.48,0,0,1-.74,1,2.33,2.33,0,0,1-.34.2,1.92,1.92,0,0,1-.36.14c-.11,0-.22,0-.34,0a1.48,1.48,0,0,1-.42,0A.33.33,0,0,1,8.94,25,.18.18,0,0,1,9,25a.45.45,0,0,1,.12-.06,1.68,1.68,0,0,0,.32-.09.35.35,0,0,0,.17-.09.41.41,0,0,0,.12-.17,2.21,2.21,0,0,0,.21-.61c0-.09,0-.38-.14-.31a.61.61,0,0,0-.16.12.43.43,0,0,1-.1.09,1.27,1.27,0,0,1-.18.06.38.38,0,0,1-.15,0,.2.2,0,0,1-.12-.08c-.05-.14,0-.22.13-.3l.16-.12a1.05,1.05,0,0,0,.3-.36,2,2,0,0,1,.39-.32l.4-.28a.7.7,0,0,0,.33-.44,1.58,1.58,0,0,0,0-.38,1.62,1.62,0,0,1,0-.22c0-.56,0-1.13.08-1.68.06-.9.13-1.79.21-2.68,0-.28.07-.55.1-.83a1.81,1.81,0,0,0-.06-.57c-.09-.58-.07-1.16-.2-1.73a1.15,1.15,0,0,1,0-.45c.05-.33.57-.48.83-.61s.39-.16.59-.22.47-.18.53-.13a.94.94,0,0,1,.3.57,8.43,8.43,0,0,1,.16,1.8c0,.29,0,.57,0,.86"/><path class="cls-10" d="M13.32,14.87a8.43,8.43,0,0,0-.16-1.8.94.94,0,0,0-.3-.57s-.26,0-.41.09a1.15,1.15,0,0,1,.26.53,8.32,8.32,0,0,1,.16,1.8c0,.28,0,.57,0,.86A17.24,17.24,0,0,1,12.33,19c-.16.77-.34,1.54-.53,2.3-.05.21-.11.39-.15.61a1.55,1.55,0,0,1-.05.23c0,.16-.07.32-.11.48A7.82,7.82,0,0,1,11,24a2.48,2.48,0,0,1-.74,1l-.34.19a1.2,1.2,0,0,1-.33.13h.08c.12,0,.23,0,.34,0a1.92,1.92,0,0,0,.36-.14,2.33,2.33,0,0,0,.34-.2,2.48,2.48,0,0,0,.74-1,6.4,6.4,0,0,0,.54-1.33l.12-.48c0-.08,0-.16,0-.24s.1-.39.16-.6c.18-.77.37-1.54.52-2.31a18.1,18.1,0,0,0,.57-3.26c0-.29,0-.57,0-.86"/><path class="cls-5" d="M10.68,13.38a1.69,1.69,0,0,0,0,.23.49.49,0,0,0,0,.12c.07.81.32,1.57.41,2.37a7.62,7.62,0,0,1-.15,2s0,.05,0,.08l0,.14c0,.25-.1.5-.13.74a2.22,2.22,0,0,0,0,.37c0,.39.34.34.64.34h.12a2.72,2.72,0,0,0,.7-.06,1.4,1.4,0,0,0,.92-.61,1,1,0,0,0,.12-.39c.1-.47.17-.95.23-1.43A9.71,9.71,0,0,0,13.63,16c0-.45,0-.9,0-1.35s0-1-.08-1.49c0-.16,0-.31,0-.47a10.44,10.44,0,0,0-.41-2.06,4.71,4.71,0,0,0-.41-1c-.14-.25-.23-.56-.57-.61H12a.79.79,0,0,0-.22,0h0a1.15,1.15,0,0,0-.7.51,3.17,3.17,0,0,0-.48,1.36h0a.37.37,0,0,1,0,.11v.11c0,.75.07,1.51.09,2.25"/><path class="cls-6" d="M10.83,18.52a1.4,1.4,0,0,0,0,.61c.06.26.34.44.55.57l.15.09a2.72,2.72,0,0,0,.7-.06,1.4,1.4,0,0,0,.92-.61,1,1,0,0,0,.12-.39c.1-.47.17-.95.23-1.43A9.71,9.71,0,0,0,13.63,16c0-.45,0-.9,0-1.35s0-1-.08-1.49c0-.16,0-.31,0-.47a10.44,10.44,0,0,0-.41-2.06,4.71,4.71,0,0,0-.41-1c-.14-.25-.23-.56-.57-.61H12a.79.79,0,0,0-.22,0,1,1,0,0,1,.3.45A12.32,12.32,0,0,1,13,12.9a.55.55,0,0,1-.09.42.56.56,0,0,1-.31.12l-.39.06.58.24a.17.17,0,0,0,0,.23,1.53,1.53,0,0,0,.18.18c.06.06.11.16.07.23s-.34,0-.48.13a1.47,1.47,0,0,0,.37.27,1,1,0,0,1,.31.85c-.07.33-.52.26-.82.29l.54.45c.27.25.17.46.15.79s0,.6-.39.57a.59.59,0,0,1-.41,1,1.09,1.09,0,0,1-.79-.35,4.54,4.54,0,0,0-.38-.38s0,0-.05,0,0,0,0,0-.1.3-.14.46"/><path class="cls-6" d="M10.68,13.38a1.69,1.69,0,0,0,0,.23.49.49,0,0,0,0,.12c.07.81.32,1.57.41,2.37a7.62,7.62,0,0,1-.15,2,3.75,3.75,0,0,0,.16-.81,5.3,5.3,0,0,1,.1-.8.39.39,0,0,1,.14-.21,1.37,1.37,0,0,1,.35-.08,1.09,1.09,0,0,1,.36-.06,1.07,1.07,0,0,1-.61-.25c-.08-.07-.32-.28-.17-.4a.4.4,0,0,1,.22-.06h.18a1.42,1.42,0,0,1-.72-.8,1.32,1.32,0,0,1-.11-.62c0-.19.19-.28.36-.34a.86.86,0,0,0,.43-.27,1.45,1.45,0,0,1-.8,0l.19-.37s0,0,0,0-.2,0-.2-.1c.27-.22.7-.07,1-.27a1.09,1.09,0,0,1-.67,0,1.07,1.07,0,0,1-.48-.78,3.28,3.28,0,0,1-.1-.7c0,.75.07,1.51.09,2.25"/><path class="cls-7" d="M10.88,18.11,11,18a1.29,1.29,0,0,0,.37.6,1.38,1.38,0,0,0,.59.3,1.22,1.22,0,0,0,.88-.12,1,1,0,0,0,.44-.41.93.93,0,0,0,.12-.27,1.39,1.39,0,0,1,.16.7,1.93,1.93,0,0,1-.11.75.71.71,0,0,1-.13.26.85.85,0,0,1-.46.26A3.5,3.5,0,0,1,11,19.87a.27.27,0,0,1-.12-.06.67.67,0,0,1-.17-.47,4.18,4.18,0,0,1,0-.71,1.4,1.4,0,0,1,.18-.52"/></g><g class="cls-25"><path class="cls-4" d="M13.36,15.73A18.08,18.08,0,0,1,12.8,19c-.16.77-.35,1.54-.53,2.31,0,.21-.12.39-.16.6s0,.16,0,.24l-.12.48A6.4,6.4,0,0,1,11.41,24a2.48,2.48,0,0,1-.74,1,2.33,2.33,0,0,1-.34.2,2.13,2.13,0,0,1-.35.14c-.11,0-.23,0-.34,0a1.48,1.48,0,0,1-.42,0A.33.33,0,0,1,9,25,.36.36,0,0,1,9,25a.39.39,0,0,1,.13-.06,1.81,1.81,0,0,0,.31-.09.44.44,0,0,0,.18-.09.5.5,0,0,0,.11-.17,1.92,1.92,0,0,0,.21-.61c0-.09,0-.38-.14-.31s-.1.08-.15.12a.87.87,0,0,1-.11.09l-.17.06a.43.43,0,0,1-.16,0,.23.23,0,0,1-.12-.08c0-.14,0-.22.14-.3l.15-.12c.15-.09.2-.22.31-.36a1.7,1.7,0,0,1,.38-.32l.4-.28A.72.72,0,0,0,10.8,22a1.58,1.58,0,0,0,0-.38V21.4c0-.56,0-1.13.08-1.68.06-.9.13-1.79.21-2.68,0-.28.07-.55.1-.83a1.81,1.81,0,0,0-.06-.57c-.09-.58-.07-1.16-.2-1.73a1.38,1.38,0,0,1,0-.45c.05-.33.57-.48.84-.61a5.77,5.77,0,0,1,.58-.22c.08,0,.48-.18.53-.13a.94.94,0,0,1,.3.57,8.44,8.44,0,0,1,.17,1.8c0,.29,0,.57,0,.86"/><path class="cls-10" d="M13.34,14.87a8.44,8.44,0,0,0-.17-1.8.94.94,0,0,0-.3-.57s-.26,0-.41.09a1.06,1.06,0,0,1,.26.53,8.32,8.32,0,0,1,.16,1.8c0,.28,0,.57,0,.86A17.26,17.26,0,0,1,12.34,19c-.15.77-.34,1.54-.52,2.3-.05.21-.12.39-.16.61s0,.16,0,.23l-.12.48A6.48,6.48,0,0,1,11,24a2.48,2.48,0,0,1-.74,1l-.34.19a1.27,1.27,0,0,1-.32.13h.08c.11,0,.23,0,.34,0a2.13,2.13,0,0,0,.35-.14,2.33,2.33,0,0,0,.34-.2,2.48,2.48,0,0,0,.74-1A6.4,6.4,0,0,0,12,22.62l.12-.48c0-.08,0-.16,0-.24s.11-.39.16-.6c.18-.77.37-1.54.53-2.31a18.08,18.08,0,0,0,.56-3.26c0-.29,0-.57,0-.86"/><path class="cls-5" d="M10.69,13.38a1.69,1.69,0,0,0,0,.23.49.49,0,0,0,0,.12c.07.81.33,1.57.41,2.37a7.23,7.23,0,0,1-.15,2s0,.05,0,.08l0,.14c0,.25-.1.5-.13.74a2.23,2.23,0,0,0,0,.37c0,.39.33.34.63.34h.13a2.69,2.69,0,0,0,.69-.06,1.38,1.38,0,0,0,.92-.61,1.28,1.28,0,0,0,.13-.39c.09-.47.17-.95.23-1.43A11.62,11.62,0,0,0,13.64,16c0-.45,0-.9,0-1.35s0-1-.08-1.49c0-.16,0-.31,0-.47a11.22,11.22,0,0,0-.41-2.06,6.08,6.08,0,0,0-.41-1c-.15-.25-.24-.56-.58-.61H12a.79.79,0,0,0-.22,0h0a1.15,1.15,0,0,0-.7.51,3.31,3.31,0,0,0-.48,1.36h0V11a.41.41,0,0,0,0,.11c0,.75.07,1.51.09,2.25"/><path class="cls-6" d="M10.84,18.52a1.57,1.57,0,0,0,0,.61c.07.26.35.44.55.57l.16.09a2.69,2.69,0,0,0,.69-.06,1.38,1.38,0,0,0,.92-.61,1.28,1.28,0,0,0,.13-.39c.09-.47.17-.95.23-1.43A11.62,11.62,0,0,0,13.64,16c0-.45,0-.9,0-1.35s0-1-.08-1.49c0-.16,0-.31,0-.47a11.22,11.22,0,0,0-.41-2.06,6.08,6.08,0,0,0-.41-1c-.15-.25-.24-.56-.57-.61H12a.79.79,0,0,0-.22,0,1,1,0,0,1,.3.45A12.32,12.32,0,0,1,13,12.9a.51.51,0,0,1-.09.42.51.51,0,0,1-.3.12l-.4.06.58.24a.17.17,0,0,0,0,.23,1.62,1.62,0,0,0,.19.18.21.21,0,0,1,.06.23c-.08.15-.34,0-.48.13a1.47,1.47,0,0,0,.37.27,1,1,0,0,1,.31.85c-.06.33-.52.26-.82.29l.54.45c.27.25.17.46.15.79s0,.6-.39.57a.59.59,0,0,1-.41,1,1.09,1.09,0,0,1-.79-.35,4.54,4.54,0,0,0-.38-.38s0,0-.05,0,0,0,0,0-.1.3-.14.46"/><path class="cls-6" d="M10.69,13.38a1.69,1.69,0,0,0,0,.23.49.49,0,0,0,0,.12c.07.81.33,1.57.41,2.37a7.23,7.23,0,0,1-.15,2,3.23,3.23,0,0,0,.16-.81,7,7,0,0,1,.1-.8.39.39,0,0,1,.14-.21,1.37,1.37,0,0,1,.35-.08,1.15,1.15,0,0,1,.37-.06,1.1,1.1,0,0,1-.62-.25c-.08-.07-.31-.28-.17-.4a.44.44,0,0,1,.23-.06h.17a1.42,1.42,0,0,1-.72-.8,1.32,1.32,0,0,1-.11-.62c0-.19.19-.28.36-.34a.78.78,0,0,0,.43-.27,1.42,1.42,0,0,1-.79,0l.18-.37a.06.06,0,0,0,0,0c0-.08-.19,0-.2-.1.27-.22.7-.07,1-.27a1.09,1.09,0,0,1-.67,0,1.06,1.06,0,0,1-.47-.78,2.76,2.76,0,0,1-.11-.7c0,.75.07,1.51.09,2.25"/><path class="cls-7" d="M10.89,18.11,11,18a1.29,1.29,0,0,0,.37.6,1.36,1.36,0,0,0,.6.3,1.23,1.23,0,0,0,.88-.12,1.15,1.15,0,0,0,.44-.41,1.28,1.28,0,0,0,.11-.27,1.4,1.4,0,0,1,.17.7,2.13,2.13,0,0,1-.11.75.92.92,0,0,1-.14.26.85.85,0,0,1-.46.26A3.51,3.51,0,0,1,11,19.87a.27.27,0,0,1-.12-.06.67.67,0,0,1-.17-.47,4.18,4.18,0,0,1,0-.71,1.4,1.4,0,0,1,.18-.52"/></g><path class="cls-26" d="M9.34,5.31a.11.11,0,0,1,0,.08.5.5,0,0,1,0,.24,1.93,1.93,0,0,1-.43.59h0a1.29,1.29,0,0,1-.18.16c-.07.11-.14.2-.2.28a.91.91,0,0,0-.12.17,3.1,3.1,0,0,1-1.17.91l-.06,0L7,7.86l0,0H7l0,0,0,0c-.72.34-1.3.31-1.58.06s-.41-1.42-.41-1.42c0-.22,0-.45-.11-.66a.13.13,0,0,0,0-.06c0-.25,0-.48,0-.74s-.07-.22-.09-.33a1.62,1.62,0,0,1,.08-.69L5,3.26l.14-.5a1.5,1.5,0,0,1,.53-1,2.22,2.22,0,0,1,1.16-.43S8.27,2.45,8.41,2.51a2.29,2.29,0,0,1,1,2,2.7,2.7,0,0,1-.11.77l0,0v0"/><path class="cls-23" d="M5,3.25a6.56,6.56,0,0,1,2.18-.52,2,2,0,0,1,.65,0,1.09,1.09,0,0,1,.56.32,1.11,1.11,0,0,1,.17.73,3.15,3.15,0,0,1-.19.86A8.44,8.44,0,0,0,8,6.38,1.55,1.55,0,0,1,7.85,6a2.56,2.56,0,0,1-.12-1c0-.12,0-.24.07-.36a3,3,0,0,0,.06-.73.4.4,0,0,0-.13-.3,1.29,1.29,0,0,0-.44-.1,15.73,15.73,0,0,0-1.82-.1A1.12,1.12,0,0,1,5,3.34Z"/><path class="cls-27" d="M10,3.57a10.68,10.68,0,0,1-.43,1.55,1.08,1.08,0,0,0-.08.19,1.67,1.67,0,0,0-.08.2l0,.07a1.57,1.57,0,0,1-.47.64,0,0,0,0,1,0,0V6.14a1.56,1.56,0,0,1,.15-.39.73.73,0,0,0,.06-.21.62.62,0,0,0,0-.13.34.34,0,0,0,0-.14.4.4,0,0,0-.51-.1.81.81,0,0,0-.35.44c0,.08-.07.17-.11.25L8,6,8,6.13,8,6s0-.08,0-.12,0-.35,0-.53a2.82,2.82,0,0,1,0-.71A4.05,4.05,0,0,1,8,4.18a.58.58,0,0,0-.13-.6,1.19,1.19,0,0,0-.51-.27,4.53,4.53,0,0,0-1.5-.05,2.89,2.89,0,0,1-.88,0c-.06,0-.14,0-.2,0s-.1-.1-.11-.18a1.63,1.63,0,0,1,0-.66,4.27,4.27,0,0,1,.21-.6.62.62,0,0,1,.37-.3,2.54,2.54,0,0,1,.61-.19,3.63,3.63,0,0,1,1,0A3.74,3.74,0,0,1,9,1.84c.18.16.35.31.5.46l.11.11A1.32,1.32,0,0,1,10,3.57"/><path class="cls-28" d="M10,3.57a10.68,10.68,0,0,1-.43,1.55,1.08,1.08,0,0,0-.08.19,1.67,1.67,0,0,0-.08.2l0,.07a1.64,1.64,0,0,1-.46.64h0a0,0,0,0,1,0,0V6.14a1.56,1.56,0,0,1,.15-.39.73.73,0,0,0,.06-.21.62.62,0,0,0,0-.13.34.34,0,0,0,0-.14.4.4,0,0,0-.51-.1.81.81,0,0,0-.35.44c0,.08-.07.17-.11.25L8,6,8,6.13,8,6s0-.08,0-.12,0-.35,0-.53a2.82,2.82,0,0,1,0-.71A4.05,4.05,0,0,1,8,4.18c.05.39-.11.79-.09,1.19,0,.06,0,.14.09.13a.1.1,0,0,0,.05,0c.11-.12.18-.28.29-.41a.54.54,0,0,1,.41-.24A.68.68,0,0,1,9.2,5a.18.18,0,0,0,.07,0c.09,0,.15-.08.18-.16a3.34,3.34,0,0,0,.31-1.78,4.15,4.15,0,0,1-.15-.7A1.32,1.32,0,0,1,10,3.57"/><path class="cls-29" d="M9.5,2.3a1,1,0,0,1,.29.51.56.56,0,0,1-.15.52A.68.68,0,0,1,9,3.47a2.23,2.23,0,0,1-.63-.33,1.88,1.88,0,0,0-.62-.34,3.07,3.07,0,0,0-.53,0H5.82a1.55,1.55,0,0,1-.68-.12.64.64,0,0,1-.06-1,2.9,2.9,0,0,1,1.85-.32A3.74,3.74,0,0,1,9,1.84a5.23,5.23,0,0,1,.5.46"/><path class="cls-30" d="M6.85,1.4l-.48,0a1.91,1.91,0,0,0-.47.12.77.77,0,0,0-.34.22.22.22,0,0,0,0,.08.25.25,0,0,0,.17.31A4.06,4.06,0,0,0,7,2.2c.6,0,1.13.43,1.72.5A.32.32,0,0,0,9,2.64a.26.26,0,0,0,.05-.21A.69.69,0,0,0,9,2.24a2.65,2.65,0,0,0-.42-.4,2.38,2.38,0,0,0-.76-.28,1.86,1.86,0,0,0-.41-.08,2.57,2.57,0,0,0-.47-.08H6.85"/><path class="cls-31" d="M3.39,3.38a1.88,1.88,0,0,1,.16-.23,3.81,3.81,0,0,1,1-.81A5.53,5.53,0,0,1,5.61,1.8a5.75,5.75,0,0,1,2.53-.35,3.5,3.5,0,0,1,.45.07,4.91,4.91,0,0,1,.51.15,1.86,1.86,0,0,1,.7.48.25.25,0,0,0,0-.12,1.9,1.9,0,0,1,.36,1.16,1.43,1.43,0,0,1-.2.59,1.9,1.9,0,0,1-.48.5,1.94,1.94,0,0,1-.4.22,2.15,2.15,0,0,1-.93.25.43.43,0,0,0-.16,0c-.36.14-.64.39-1,.5a5.7,5.7,0,0,1-1.16.17,3.36,3.36,0,0,1-1.68-.36,1.71,1.71,0,0,1-.44-.32,1.32,1.32,0,0,1-.31-1.37"/><path class="cls-32" d="M9.81,2.15a.25.25,0,0,1,0,.12,1.75,1.75,0,0,0-.7-.48,3.33,3.33,0,0,0-.51-.16l-.45-.07a5.9,5.9,0,0,0-2.53.36,5,5,0,0,0-1.09.54,3.81,3.81,0,0,0-1,.81,1.88,1.88,0,0,0-.16.23,1,1,0,0,0-.09.34.9.9,0,0,1,.09-.46,1.88,1.88,0,0,1,.16-.23,3.81,3.81,0,0,1,1-.81A5.53,5.53,0,0,1,5.61,1.8a5.75,5.75,0,0,1,2.53-.35,3.5,3.5,0,0,1,.45.07,4.91,4.91,0,0,1,.51.15,1.86,1.86,0,0,1,.7.48.25.25,0,0,0,0-.12,2,2,0,0,1,.37,1.1,2.14,2.14,0,0,0-.37-1"/><path class="cls-32" d="M3.7,4.61a1.67,1.67,0,0,0,.44.31,3.25,3.25,0,0,0,1.68.36A5.7,5.7,0,0,0,7,5.11c.38-.11.66-.36,1-.49a.44.44,0,0,1,.16,0,2.29,2.29,0,0,0,.93-.24,2.6,2.6,0,0,0,.4-.23,1.76,1.76,0,0,0,.48-.5,1.34,1.34,0,0,0,.2-.59V3a1.21,1.21,0,0,1,0,.19,1.43,1.43,0,0,1-.2.59,1.9,1.9,0,0,1-.48.5,1.94,1.94,0,0,1-.4.22,2.15,2.15,0,0,1-.93.25.43.43,0,0,0-.16,0c-.36.14-.64.39-1,.5a6.49,6.49,0,0,1-1.16.17,3.36,3.36,0,0,1-1.68-.36,1.71,1.71,0,0,1-.44-.32,1.55,1.55,0,0,1-.4-1,1.65,1.65,0,0,0,.4.9"/><path class="cls-33" d="M8.14.17a2.56,2.56,0,0,1,1.2.74,3,3,0,0,1,.68,2,1.22,1.22,0,0,1-.48,1,4.15,4.15,0,0,1-3.6.41c-.51-.17-1.29-.46-1.48-1a.87.87,0,0,1,0-.36A2.4,2.4,0,0,1,4.7,2a7.85,7.85,0,0,1,.44-.73A2.68,2.68,0,0,1,5.7.65,2.72,2.72,0,0,1,6.5.21,2.89,2.89,0,0,1,7.38.07a3.23,3.23,0,0,1,.76.1"/><path class="cls-16" d="M4.35,3.4a.18.18,0,0,0,0,.14.46.46,0,0,0,.08.13A1.27,1.27,0,0,0,4.84,4l.2.1h.07l.09,0s0,0,0-.08L5.24,4l.08-.12.22-.52.38-.62.37-.59L7,1.42l.5-.49.86-.2L9.43,1a3.67,3.67,0,0,0-1-.74h0L8.32.16A2,2,0,0,0,7.63,0,1.91,1.91,0,0,0,7,.1L6.74.19a3.09,3.09,0,0,0-.42.25,3.9,3.9,0,0,0-.38.33,4.26,4.26,0,0,0-.35.38c-.1.13-.21.27-.3.41S5.11,1.84,5,2l-.22.41-.18.37c0,.1-.09.2-.14.31s-.13.31-.13.33"/><path class="cls-32" d="M5.39,4.13a.25.25,0,0,1,0-.07l0-.08.1-.24c0-.1.09-.21.14-.32L5.87,3l.24-.41c.08-.14.18-.28.27-.42a4,4,0,0,1,.32-.4,3,3,0,0,1,.35-.36,3.57,3.57,0,0,1,.38-.3A2.39,2.39,0,0,1,7.86,1L8,.9l.17,0a1.79,1.79,0,0,1,1.38.45.52.52,0,0,1,.11.1l-.08-.21a1.14,1.14,0,0,0-.23-.3A1,1,0,0,0,9.16.79,2,2,0,0,0,8.44.62a1.82,1.82,0,0,0-.66.09L7.56.8a2.91,2.91,0,0,0-.42.25,3.09,3.09,0,0,0-.39.33,4,4,0,0,0-.34.38l-.31.42c-.09.13-.18.28-.27.42L5.61,3l-.18.36c0,.11-.09.21-.14.31l-.09.23s0,.07,0,.11,0,.06,0,.09.07,0,.1,0h.08s.06,0,.07,0"/></g></g></svg>