<svg xmlns="http://www.w3.org/2000/svg" xmlns:xlink="http://www.w3.org/1999/xlink" viewBox="0 0 137.69 130.43"><defs><style>.cls-1{fill:none;}.cls-2{isolation:isolate;}.cls-3{opacity:0.7;}.cls-4,.cls-5{fill:#5c95da;}.cls-5{opacity:0.3;mix-blend-mode:multiply;}.cls-6{opacity:0.05;}.cls-7{opacity:0.25;}.cls-8{fill:#b2b2b2;}.cls-9{fill:#706f6f;}.cls-10{fill:#9d9d9c;}.cls-11{fill:#4d4d4d;}.cls-12{opacity:0.1;}.cls-13{clip-path:url(#clip-path);}.cls-14{fill:#f2d0b8;}.cls-15{fill:#e5e5e5;}.cls-16{fill:#cbcbcb;}.cls-17{fill:#f2f2f2;}.cls-18{clip-path:url(#clip-path-2);}.cls-19{fill:#f1ccad;}.cls-20{fill:#eec1a6;}.cls-21{clip-path:url(#clip-path-3);}.cls-22{fill:#212426;}.cls-23{fill:#42484d;}.cls-24{fill:#2c3033;}.cls-25{fill:#e1771c;}.cls-26{fill:#e8a126;}.cls-27{clip-path:url(#clip-path-4);}.cls-28{clip-path:url(#clip-path-5);}.cls-29{clip-path:url(#clip-path-6);}.cls-30{fill:#f0c7a3;}.cls-31{fill:#e5aa89;}.cls-32{clip-path:url(#clip-path-7);}.cls-33{clip-path:url(#clip-path-8);}.cls-34{fill:#f1cdb2;}.cls-35{fill:#450000;}.cls-36{fill:#360000;}.cls-37{fill:#590000;}.cls-38{fill:#6e0000;}.cls-39{fill:#edbc2e;}.cls-40{fill:#d06b19;}.cls-41{fill:url(#Degradado_sin_nombre_291);}</style><clipPath id="clip-path" transform="translate(0 -0.11)"><path class="cls-1" d="M51.47,17a1,1,0,0,1-1.47.08c-2.13-2-2-6.79-2-6.79h0A1.25,1.25,0,0,1,50.5,10a19.93,19.93,0,0,1,1.37,4.27A3.05,3.05,0,0,1,51.47,17Z"/></clipPath><clipPath id="clip-path-2" transform="translate(0 -0.11)"><path class="cls-1" d="M51.92,6.12s.3.17.07.81a2.73,2.73,0,0,1-.72,1.19L50.38,9.9A1.26,1.26,0,0,1,48,9.13a21,21,0,0,1,.79-2A2,2,0,0,1,49,6a1.06,1.06,0,0,1,1.3-.65A14.22,14.22,0,0,0,51.76,3.2a2.12,2.12,0,0,0,0-.69c-.09-.34.21-1,.25-1.32a5.82,5.82,0,0,1,.16-.77s0-.28.09-.36.22,0,.22,0,.13-.21.5,0a1.07,1.07,0,0,1,.59.67,3,3,0,0,1,0,1.27c-.1.39-.55,1.06-.68,1.44S51.92,6.12,51.92,6.12Z"/></clipPath><clipPath id="clip-path-3" transform="translate(0 -0.11)"><path class="cls-1" d="M38.43,31.38h0a1.75,1.75,0,0,0-2.27-2.65c-.07.05-.12.11-.18.16h0l-1.36,1.4-3.09,2.6s-.74.36-.78.75a6.24,6.24,0,0,0-2.32-.54c-.62.15-1.86.74-.93,1.82s1.94.59,2.65,1.1,1.39,1.07,1.92,0a13.81,13.81,0,0,0,1.54-.85A32.46,32.46,0,0,0,38.43,31.38Z"/></clipPath><clipPath id="clip-path-4" transform="translate(0 -0.11)"><path class="cls-1" d="M43.42,29.72c.38-.06,2.15-.37,2.47-1.23a3.24,3.24,0,0,0-.09-3.14.85.85,0,0,0-1-.52,6.8,6.8,0,0,0-2.67.83l-3.57,1.66-1.69,1h0a1.75,1.75,0,0,0,1.57,3.1.52.52,0,0,0,.13-.06l2.42-1S43,29.79,43.42,29.72Z"/></clipPath><clipPath id="clip-path-5" transform="translate(0 -0.11)"><path class="cls-1" d="M46.4,42.79l.07-3.9-.19-1.62a1.75,1.75,0,0,0-3.5-.17,1.93,1.93,0,0,0,0,.42h0l.35,2.85a28.62,28.62,0,0,1,0,3.21c-.17,1,.22,1.27.22,1.27a5,5,0,0,1-1.31,2,1.17,1.17,0,0,0-.29,1.1c-.13.86,1,.71,1,.71,2.11-.44,2.16-1.83,2.76-2.24a1.11,1.11,0,0,0,.33-1.22l.24-.08Z"/></clipPath><clipPath id="clip-path-6" transform="translate(0 -0.11)"><path class="cls-1" d="M49,29.47a3.23,3.23,0,0,0-2.42-2,.85.85,0,0,0-1.05.4,7.05,7.05,0,0,0-1.13,2.56l-1.09,3.78-.45,2h0a1.75,1.75,0,0,0,3.35,1s0-.06,0-.08h0l1-2.63s.88-2,1.08-2.29S49.39,30.28,49,29.47Z"/></clipPath><clipPath id="clip-path-7" transform="translate(0 -0.11)"><path class="cls-1" d="M56.77,33.81c.24-.35.39-.69.24-.77s-.49.39-.76.2,0-.54.24-.65.38-.47.65-.8.74-.33.71-.86,0-1.82,0-1.82A1.63,1.63,0,0,1,57.58,28a1.43,1.43,0,0,1,.3-.95L58,25.41a1.25,1.25,0,1,1,2.5-.1v1.93a1.62,1.62,0,0,1,.14,1.33,1.07,1.07,0,0,1-.95.79,18.92,18.92,0,0,1-.56,2.69,6.83,6.83,0,0,1-.6,1.47c-.81,1.39-2.24,1.35-2.41,1S56.52,34.16,56.77,33.81Z"/></clipPath><clipPath id="clip-path-8" transform="translate(0 -0.11)"><path class="cls-1" d="M55.54,18.54A1,1,0,0,1,57,18.13c2.54,1.44,3.5,6.15,3.5,6.15h0a1.25,1.25,0,0,1-.71,1.59,1.27,1.27,0,0,1-1.63-.71,20,20,0,0,1-2.31-3.84A3,3,0,0,1,55.54,18.54Z"/></clipPath><linearGradient id="Degradado_sin_nombre_291" x1="-2827.15" y1="-1827.8" x2="-2821.56" y2="-1827.8" gradientTransform="matrix(-0.83, -0.56, -0.56, 0.83, -3305.79, -67.5)" gradientUnits="userSpaceOnUse"><stop offset="0" stop-color="#e1771c"/><stop offset="0.5" stop-color="#dc731b"/><stop offset="1" stop-color="#d06b19"/></linearGradient></defs><title>Recurso 61</title><g class="cls-2"><g id="Capa_2" data-name="Capa 2"><g id="personajes"><g class="cls-3"><path class="cls-4" d="M72.61,31.1c-5.32,1.77-16.47-5.71-16.72-3.92s-12.45,3.63-15.66,3.13-14,2.91-16.49,5.92-4,5.52-8.06,8.78-7.31,4.4-11,7C.41,55-1.23,53.75,1,60.87s11.33,9.25,11.26,10.94,10.61,8.67,20.44,6.72S60,81.08,60,81.08s4.21,3.84,12.17.13S80.41,70.77,91,67.84s12.89-13,12.68-15.15-9.77-6.87-12-14.54S72.61,31.1,72.61,31.1Z" transform="translate(0 -0.11)"/><path class="cls-5" d="M4.7,52c3.67-2.57,7-3.7,11-7s5.54-5.76,8.06-8.78C25.61,34,32,31.56,36.47,30.65a7.76,7.76,0,0,0-1.94,1.48c-2.09,2.5-3.34,4.57-6.68,7.28s-2.17,6-5.21,8.16c-3.56,2.49-7.34,3.27-5.5,9.17s7.92,3.47,7.87,4.88S33.8,68.8,42,67.19,64.57,69.3,64.57,69.3s3.79-.39,10.38-3.46,6.55-5.08,15.3-7.51,4.18-6.13,4-7.87a75,75,0,0,0-1.33-9.34c3.38,5.94,10.53,9.76,10.71,11.57.21,2.11-2.12,12.22-12.68,15.15S80.11,77.5,72.15,81.21,60,81.08,60,81.08s-17.46-4.49-27.29-2.55-20.5-5-20.44-6.72S3.21,68,1,60.87.41,55,4.7,52Z" transform="translate(0 -0.11)"/><path class="cls-5" d="M1,60.87C3.21,68,12.32,70.12,12.25,71.81s10.61,8.67,20.44,6.72S60,81.08,60,81.08s4.21,3.84,12.17.13S80.41,70.77,91,67.84s12.89-13,12.68-15.15-9.77-6.87-12-14.54-19-7-19-7c-5.32,1.77-16.47-5.71-16.72-3.92s-12.45,3.63-15.66,3.13-14,2.91-16.49,5.92-4,5.51-8.06,8.78-7.31,4.4-11,7C.41,55-1.23,53.75,1,60.87Zm9.25-10.69c3.27-2.29,6.18-3.3,9.77-6.21s4.94-5.13,7.18-7.81S39,30.45,41.86,30.89s13.73-1.19,14-2.79S66,33.16,70.69,31.58c0,0,15-.54,16.94,6.28s10.49,11.08,10.68,13S96.42,61.69,87,64.29s-9.66,8.6-16.74,11.9-10.84-.11-10.84-.11-15.54-4-24.29-2.27S16.9,69.34,17,67.83s-8-3.4-10-9.74S6.42,52.85,10.24,50.18Z" transform="translate(0 -0.11)"/></g><path class="cls-6" d="M123.63,100.86c-7.08-13.64-12-18.55-25.64-25.58a1.28,1.28,0,0,0-.57-1h0l-12-6.93a1.27,1.27,0,0,0-.94-1,1.32,1.32,0,0,0-1.52-.26l-12.79-6a.76.76,0,0,0-.78.08,2.42,2.42,0,0,0-1.11,1.92.79.79,0,0,0,.32.72h0l11.63,8a1.32,1.32,0,0,0,1,1.19,1.27,1.27,0,0,0,1.36.3l12,6.93h0a1.19,1.19,0,0,0,1,.06c13,6.64,17.27,10.92,23.92,23.73,4.15,8,5.79,17.28,7.38,26.25,0,0,2.82,1.21,4.63-.82C131.47,128.46,128.11,109.5,123.63,100.86Z" transform="translate(0 -0.11)"/><ellipse class="cls-7" cx="129.55" cy="126.11" rx="8.14" ry="4.32"/><path class="cls-8" d="M70.46,58.49c0-.71-.5-1-1.11-.64a2.42,2.42,0,0,0-1.11,1.92c0,.71.49,1,1.11.64A2.45,2.45,0,0,0,70.46,58.49Z" transform="translate(0 -0.11)"/><polygon class="cls-8" points="84.23 64.33 81.38 69.26 68.56 60.38 70.13 57.67 84.23 64.33"/><path class="cls-9" d="M84.85,65.37c0-1.5-1-2.11-2.35-1.36a5.19,5.19,0,0,0-2.35,4.07c0,1.5,1,2.11,2.35,1.36A5.19,5.19,0,0,0,84.85,65.37Z" transform="translate(0 -0.11)"/><path class="cls-8" d="M85.46,65.72c0-1.5-1.06-2.11-2.36-1.36a5.21,5.21,0,0,0-2.35,4.07c0,1.5,1.06,2.11,2.35,1.36A5.2,5.2,0,0,0,85.46,65.72Z" transform="translate(0 -0.11)"/><path class="cls-10" d="M85.36,66.05c0-1.29-.9-1.81-2-1.17a4.48,4.48,0,0,0-2,3.5c0,1.28.9,1.8,2,1.16A4.44,4.44,0,0,0,85.36,66.05Z" transform="translate(0 -0.11)"/><polygon class="cls-10" points="97.42 71.92 94.57 76.85 81.94 69.59 84.79 64.65 97.42 71.92"/><path class="cls-8" d="M98,73.33c0-1.28-.9-1.8-2-1.16a4.44,4.44,0,0,0-2,3.49c0,1.29.9,1.81,2,1.17A4.48,4.48,0,0,0,98,73.33Z" transform="translate(0 -0.11)"/><path class="cls-11" d="M131.47,126.18s-3.36-19-7.84-27.6c-7.16-13.79-12.06-18.65-26.07-25.8a.46.46,0,0,0-.44,0,4.05,4.05,0,0,0-1.94,3.89.32.32,0,0,0,.17.25c13.13,6.69,17.42,10.95,24.11,23.82,4.15,8,5.79,17.28,7.38,26.25C126.84,127,129.66,128.21,131.47,126.18Z" transform="translate(0 -0.11)"/><ellipse class="cls-12" cx="44.12" cy="45.32" rx="17.89" ry="5.6" transform="translate(-7.36 8.47) rotate(-10.25)"/><g class="cls-13"><path class="cls-14" d="M48.23,9.87a5.47,5.47,0,0,1-.1-1.59c.11-.74.23-1.48.26-1.67s.18-1,.3-1.77c.05-.29.1-.57.13-.81a2.88,2.88,0,0,0,0-.56V3.41a1.73,1.73,0,0,0-.41-.77,2.85,2.85,0,0,1-.24-.87c0-.22-.26-.88-.26-.88l0-.23L47.85.51l0-.18h.16V.22l.38-.09a4.3,4.3,0,0,1,.66.24,6.5,6.5,0,0,1,.67,1.08c0,.07,0,1.15,0,1.53,0,.1,0,.39.06.79.11,1.05.33,2.84.44,3.61a7.09,7.09,0,0,1,0,1.59c0,.49-.09.9-.13,1.15a12.76,12.76,0,0,0,.13,1.93s-1.23.72-1.56.51-.49-2.23-.52-2.69" transform="translate(0 -0.11)"/><path class="cls-15" d="M51.38,12.55c0-.08,0-.16-.05-.23a.5.5,0,0,0,0-.12c-.2-.81-.57-1.54-.77-2.35a7.53,7.53,0,0,1-.15-2.07V7.55c0-.26,0-.52,0-.77a2.43,2.43,0,0,0,0-.38c-.08-.39-.39-.29-.69-.25l-.13,0a2.84,2.84,0,0,0-.7.16,1.46,1.46,0,0,0-.84.76A1,1,0,0,0,48,7.5c0,.5,0,1,0,1.49A10.09,10.09,0,0,0,48,10.34c.07.46.14.91.22,1.37s.18,1,.3,1.49c0,.16.07.32.11.48a11.41,11.41,0,0,0,.72,2,5,5,0,0,0,.57.94c.18.24.32.53.67.54h.07l.22,0h0a1.25,1.25,0,0,0,.63-.63,3.29,3.29,0,0,0,.28-1.45h0a.49.49,0,0,0,0-.12.45.45,0,0,0,0-.11c-.07-.76-.29-1.52-.42-2.27" transform="translate(0 -0.11)"/><path class="cls-16" d="M50.46,7.35a1.4,1.4,0,0,0-.08-.62c-.1-.25-.41-.39-.64-.49l-.17-.07a2.84,2.84,0,0,0-.7.16,1.46,1.46,0,0,0-.84.76A1,1,0,0,0,48,7.5c0,.5,0,1,0,1.49A10.09,10.09,0,0,0,48,10.34c.07.46.14.91.22,1.37s.18,1,.3,1.49c0,.16.07.32.11.48a11.41,11.41,0,0,0,.72,2,5,5,0,0,0,.57.94c.18.24.32.53.67.54h.07l.22,0a1.33,1.33,0,0,1-.37-.41,13,13,0,0,1-1.37-3.37.53.53,0,0,1,0-.43.48.48,0,0,1,.29-.17l.4-.12-.63-.16a.17.17,0,0,0,0-.24A1.7,1.7,0,0,0,49,12.1a.23.23,0,0,1-.1-.23c.06-.16.34-.07.47-.19a1.47,1.47,0,0,0-.41-.22,1.06,1.06,0,0,1-.44-.82c0-.34.49-.34.78-.42l-.61-.38c-.31-.21-.24-.43-.27-.78s-.07-.61.31-.63A.61.61,0,0,1,49,7.32a1.14,1.14,0,0,1,.85.24,4.59,4.59,0,0,0,.44.33.07.07,0,0,0,.06,0,.09.09,0,0,0,0-.06,3.4,3.4,0,0,0,.07-.49" transform="translate(0 -0.11)"/><path class="cls-16" d="M51.38,12.55c0-.08,0-.16-.05-.23a.5.5,0,0,0,0-.12c-.2-.81-.57-1.54-.77-2.35a7.53,7.53,0,0,1-.15-2.07,4,4,0,0,0,0,.85,4.61,4.61,0,0,1,0,.83.36.36,0,0,1-.11.23,1.26,1.26,0,0,1-.34.13,1.18,1.18,0,0,1-.36.12,1,1,0,0,1,.66.16c.09.06.36.24.23.38a.34.34,0,0,1-.22.09l-.17,0a1.43,1.43,0,0,1,.84.71,1.24,1.24,0,0,1,.21.61c0,.19-.16.31-.31.4a.82.82,0,0,0-.4.33,1.57,1.57,0,0,1,.8-.12c0,.13-.08.26-.13.4s0,0,0,0,.2,0,.21.07c-.24.27-.7.18-1,.42a.86.86,0,0,1,1.28.66,3.24,3.24,0,0,1,.21.69c-.07-.76-.29-1.52-.42-2.27" transform="translate(0 -0.11)"/><path class="cls-17" d="M50.47,7.77a.61.61,0,0,1-.07.14,1.42,1.42,0,0,0-.47-.56,1.61,1.61,0,0,0-.64-.21,1.27,1.27,0,0,0-.88.26,1.12,1.12,0,0,0-.39.47,1.63,1.63,0,0,0-.07.3,1.36,1.36,0,0,1-.27-.69,2,2,0,0,1,0-.78.77.77,0,0,1,.1-.29,1,1,0,0,1,.42-.32A3.52,3.52,0,0,1,50.13,6a.29.29,0,0,1,.13,0,.65.65,0,0,1,.24.45,4.41,4.41,0,0,1,.08.72,1.29,1.29,0,0,1-.11.55" transform="translate(0 -0.11)"/></g><g class="cls-18"><path class="cls-14" d="M48.4,8.83A5.73,5.73,0,0,1,49,7.36L50,6l1-1.44c.17-.24.34-.47.47-.67a2.43,2.43,0,0,0,.3-.49l0-.05a1.81,1.81,0,0,0,0-.87A2.38,2.38,0,0,1,52,1.57c.05-.22.15-.91.15-.91l.08-.22V.27l.11-.14.15.07.06-.09.38.08a5.12,5.12,0,0,1,.48.51A6.5,6.5,0,0,1,53.51,2c0,.07-.5,1-.67,1.38a6.55,6.55,0,0,0-.29.73c-.37,1-1,2.69-1.2,3.43A7.74,7.74,0,0,1,50.67,9c-.25.42-.49.76-.63,1a12.75,12.75,0,0,0-.74,1.79s-1.42.1-1.62-.23.55-2.22.72-2.65" transform="translate(0 -0.11)"/><path class="cls-19" d="M52.18,3a1.84,1.84,0,0,1,0,.33.5.5,0,0,0,0,.32s0,0,0,0h0a.26.26,0,0,0,.15-.14,1.57,1.57,0,0,0,.09-.48.68.68,0,0,1,.16-.46.82.82,0,0,1,.26-.14A.32.32,0,0,0,53,2.41a.34.34,0,0,0,.09-.12L53.26,2a.42.42,0,0,0,.06-.14.58.58,0,0,0,0-.19c0-.29,0-.58,0-.87a.29.29,0,0,0,0-.09.12.12,0,0,0-.08,0c-.05,0-.06.09-.05.14a2,2,0,0,1,0,.64.83.83,0,0,1-.42.61.17.17,0,0,1-.17,0,.25.25,0,0,1,0-.17,1.05,1.05,0,0,0,0-.19.67.67,0,0,1,0-.2l0-.51a.34.34,0,0,0,0-.1s-.05-.06-.08-.05-.07,0-.09.08a3.56,3.56,0,0,0-.17.8c0,.12-.07.23-.08.36a1.94,1.94,0,0,0,0,.34,4.44,4.44,0,0,1,.16.6" transform="translate(0 -0.11)"/><path class="cls-20" d="M52.74,1.84l.2-.4a1.5,1.5,0,0,0,.12-.32L53,.72a2.31,2.31,0,0,0-.2-.26l-.2-.22a1,1,0,0,1,.13.45L52.65,1a3.72,3.72,0,0,0-.09.51c0,.07,0,.12,0,.12Z" transform="translate(0 -0.11)"/><path class="cls-15" d="M50,12.63l.06-.23a.53.53,0,0,0,0-.12c.19-.81.18-1.63.35-2.44a8.05,8.05,0,0,1,.78-1.93.43.43,0,0,0,0-.07l.07-.13c.12-.23.25-.45.36-.68a2.55,2.55,0,0,0,.14-.35c.11-.39-.21-.44-.51-.54l-.12,0a3.38,3.38,0,0,0-.7-.16,1.46,1.46,0,0,0-1.09.3,1.21,1.21,0,0,0-.24.35c-.24.43-.47.87-.68,1.33A9,9,0,0,0,48,9.15c-.14.44-.28.88-.41,1.32s-.28,1-.4,1.48c0,.16-.07.32-.1.47a10.43,10.43,0,0,0-.25,2.15,5,5,0,0,0,.09,1.09c.06.29,0,.62.36.78l.07,0a1,1,0,0,0,.21.06h0a1.12,1.12,0,0,0,.84-.28,3.31,3.31,0,0,0,.9-1.17v0s0-.07.05-.1l0-.11c.28-.71.42-1.49.63-2.22" transform="translate(0 -0.11)"/><path class="cls-16" d="M51.52,7.56a1.53,1.53,0,0,0,.2-.59,1.18,1.18,0,0,0-.36-.73l-.12-.14a3.38,3.38,0,0,0-.7-.16,1.46,1.46,0,0,0-1.09.3,1.21,1.21,0,0,0-.24.35c-.24.43-.47.87-.68,1.33A9,9,0,0,0,48,9.15c-.14.44-.28.88-.41,1.32s-.28,1-.4,1.48c0,.16-.07.32-.1.47a10.35,10.35,0,0,0-.25,2.15,5,5,0,0,0,.09,1.09c.06.29,0,.62.36.78l.07,0a1,1,0,0,0,.21.06,1.17,1.17,0,0,1-.15-.53,13,13,0,0,1,.26-3.62.53.53,0,0,1,.22-.38.56.56,0,0,1,.34,0l.4.06-.49-.42a.15.15,0,0,0,.09-.21,1.08,1.08,0,0,0-.12-.24.21.21,0,0,1,0-.24c.13-.12.34.08.51,0a1.29,1.29,0,0,0-.28-.38,1,1,0,0,1,0-.93c.16-.3.59-.09.89,0,0,0-.35-.55-.38-.61-.18-.33,0-.5.1-.82s.21-.58.56-.43a.61.61,0,0,1,.73-.88,1.18,1.18,0,0,1,.66.6,3.23,3.23,0,0,0,.25.49s0,0,0,0,0,0,.07,0a4.85,4.85,0,0,0,.28-.41" transform="translate(0 -0.11)"/><path class="cls-16" d="M50,12.63l.06-.23a.53.53,0,0,0,0-.12c.19-.81.18-1.63.35-2.44a8.05,8.05,0,0,1,.78-1.93,4.19,4.19,0,0,0-.41.75,6.27,6.27,0,0,1-.35.74.37.37,0,0,1-.21.16,1.12,1.12,0,0,1-.36,0,1,1,0,0,1-.38,0,1,1,0,0,1,.52.43c.06.1.22.38,0,.45a.4.4,0,0,1-.24,0l-.17,0a1.41,1.41,0,0,1,.44,1,1.26,1.26,0,0,1-.08.64.51.51,0,0,1-.46.22.88.88,0,0,0-.51.12,1.53,1.53,0,0,1,.78.25l-.3.3,0,0c0,.08.19.08.17.16-.34.14-.71-.15-1.06,0a1.22,1.22,0,0,1,.65.24,1.14,1.14,0,0,1,.21.92,2.85,2.85,0,0,1-.12.71c.28-.71.42-1.49.63-2.22" transform="translate(0 -0.11)"/><path class="cls-17" d="M51.34,7.94l-.13.1A1.33,1.33,0,0,0,51,7.33a1.5,1.5,0,0,0-.49-.48,1.32,1.32,0,0,0-.89-.16A1.16,1.16,0,0,0,49.1,7a1.43,1.43,0,0,0-.2.23A1.4,1.4,0,0,1,49,6.45a2.27,2.27,0,0,1,.34-.7,1.14,1.14,0,0,1,.22-.22.9.9,0,0,1,.53-.1,3.62,3.62,0,0,1,1.77.77l.1.1a.72.72,0,0,1,0,.52,4.28,4.28,0,0,1-.25.68,1.34,1.34,0,0,1-.34.44" transform="translate(0 -0.11)"/></g><g class="cls-21"><path class="cls-22" d="M31.54,33.78a1.31,1.31,0,0,1-1.2.18c-.63-.26-1.9-.61-1.9-.61a1.86,1.86,0,0,0-.94.4.84.84,0,0,0-.16.49c0,.62.78,1.19,1.32,1.28a6.33,6.33,0,0,1,1.22.27,6.25,6.25,0,0,1,1,.61.62.62,0,0,0,.67.05,1,1,0,0,0,.4-.39.71.71,0,0,0,.07-.4c0-.15,0-.3,0-.45s0-.44,0-.66Z" transform="translate(0 -0.11)"/><path class="cls-23" d="M31.4,36.25c-.22.07-.6-.23-.77-.33l-.36-.26a2.08,2.08,0,0,0-.61-.2c-.23-.06-.47-.11-.71-.15a2.09,2.09,0,0,1-1.06-.64.73.73,0,0,1-.27-.49.89.89,0,0,1,.17-.65.43.43,0,0,1,.12-.11.86.86,0,0,1,.19-.11,1.52,1.52,0,0,1,1-.06c.43.13,1.09.33,1.49.49a1.31,1.31,0,0,0,1.2-.18l.44.78.05.91,0,.39a7.38,7.38,0,0,1-.94.61" transform="translate(0 -0.11)"/><path class="cls-24" d="M31.4,36.25c-.22.07-.6-.23-.77-.33l-.36-.26a2.08,2.08,0,0,0-.61-.2c-.23-.06-.47-.11-.71-.15a2.09,2.09,0,0,1-1.06-.64.73.73,0,0,1-.27-.49.89.89,0,0,1,.17-.65.43.43,0,0,1,.12-.11c.09.18.14.38.23.57a1.54,1.54,0,0,0,1,.83c.17,0,.35.07.53.12a4.17,4.17,0,0,1,.74.35,2,2,0,0,0,.77.29.85.85,0,0,0,.75-.27.31.31,0,0,1,.41-.06l0,.39a7.38,7.38,0,0,1-.94.61" transform="translate(0 -0.11)"/><path class="cls-25" d="M42.77,23.45a.68.68,0,0,1,.31,0h0a.37.37,0,0,1,.14,0c1,.36,1.81,2.69,1.09,3.61l-.15.17a5.66,5.66,0,0,1-1.46,1.05,17.37,17.37,0,0,0-3.42,2.27c-.78.67-2.11,1.75-2.79,2.34a34.46,34.46,0,0,1-3.8,2.7l-.62.33-.08,0a2.92,2.92,0,0,1-.5-.37,2.18,2.18,0,0,1-.42-.49A1.35,1.35,0,0,1,31,33.47a2.91,2.91,0,0,1,.62-.49,37.26,37.26,0,0,0,3.07-2.54c.51-.53.91-1.13,1.43-1.64,1.15-1.13,3-2.66,4.21-3.72l.27-.23.53-.43A5.92,5.92,0,0,1,42.77,23.45Z" transform="translate(0 -0.11)"/><path class="cls-26" d="M36.82,30.53a.76.76,0,0,0,.3,0A4.81,4.81,0,0,0,39,28.73,10,10,0,0,1,40,27.24c.08-.08.88-.9,1-.84s2.1-1.6,3.41-1.34a2.3,2.3,0,0,1-.09,2l-.15.17a5.66,5.66,0,0,1-1.46,1.05,17.37,17.37,0,0,0-3.42,2.27c-1,.81-2.43,2-3.23,2.72-.35.31-2.38,1.8-2.79,2h0l-.42.22h0l-.71.38H32l0,0-.06,0c-.05-.13.16-.43.28-.54C32.79,34.8,35,33,35.55,32.5c.37-.36,1.12-.86.84-1.47a2,2,0,0,0-.41-.52,1.36,1.36,0,0,1-.35-.56A1.87,1.87,0,0,0,36.82,30.53Z" transform="translate(0 -0.11)"/><path class="cls-12" d="M42.77,23.45a.68.68,0,0,1,.31,0h0a.37.37,0,0,1,.14,0,2.51,2.51,0,0,1,1.18,1.6h0a1.42,1.42,0,0,1,.07.22s0,0,0,.06a2.21,2.21,0,0,1,0,.25v0l0,.25v0a1.48,1.48,0,0,1,0,.21v.06c0,.07,0,.13,0,.2a.13.13,0,0,0,0,.06,1.25,1.25,0,0,1-.13.44h0l-.12.19-.15.17a5.66,5.66,0,0,1-1.46,1.05,17.37,17.37,0,0,0-3.42,2.27c-1,.81-2.43,2-3.23,2.72-.35.31-2.38,1.8-2.79,2h0l-.42.22h0l-.15.08h0l-.62.33,0,0h0l0,0-.06,0h0a3.11,3.11,0,0,1-.44-.34,2.18,2.18,0,0,1-.42-.49A1.35,1.35,0,0,1,31,33.47a2.91,2.91,0,0,1,.62-.49,37.26,37.26,0,0,0,3.07-2.54c.51-.53.91-1.13,1.43-1.64,1.15-1.13,3-2.66,4.21-3.72l.27-.23.53-.43A5.92,5.92,0,0,1,42.77,23.45Z" transform="translate(0 -0.11)"/></g><g class="cls-27"><path class="cls-25" d="M45,24.91a.6.6,0,0,1,.31.05h0a.35.35,0,0,1,.12.07c.85.62,1,3.09.07,3.78l-.19.12a5.61,5.61,0,0,1-1.69.61,17.46,17.46,0,0,0-3.9,1.26c-.94.43-2.52,1.1-3.33,1.49A38.23,38.23,0,0,1,32,33.87L31.3,34l-.06-.07a3.87,3.87,0,0,1-.38-.49,2.11,2.11,0,0,1-.27-.59,1.34,1.34,0,0,1,.31-1.52,3,3,0,0,1,.73-.3,36.91,36.91,0,0,0,3.64-1.61c.63-.37,1.18-.84,1.83-1.19,1.41-.77,3.59-1.75,5-2.43l.33-.15c.2-.1.41-.19.63-.28A5.91,5.91,0,0,1,45,24.91Z" transform="translate(0 -0.11)"/><path class="cls-26" d="M37.33,30.1a.78.78,0,0,0,.3.07A4.74,4.74,0,0,0,39.87,29a10,10,0,0,1,1.46-1.13c.09-.06,1.09-.64,1.15-.55s2.45-1,3.65-.37a2.33,2.33,0,0,1-.64,1.92l-.19.12a5.61,5.61,0,0,1-1.69.61,17.46,17.46,0,0,0-3.9,1.26c-1.15.52-2.89,1.28-3.86,1.74-.42.2-2.78,1.07-3.23,1.18h0l-.46.1h0l-.78.17h0l-.1,0,0,0,0,0c0-.13.26-.36.4-.43.7-.34,3.3-1.43,4-1.8.45-.25,1.31-.53,1.21-1.19a2.2,2.2,0,0,0-.26-.61,1.31,1.31,0,0,1-.18-.63A1.85,1.85,0,0,0,37.33,30.1Z" transform="translate(0 -0.11)"/><path class="cls-12" d="M45,24.91a.6.6,0,0,1,.31.05h0a.35.35,0,0,1,.12.07,2.51,2.51,0,0,1,.71,1.86h0v.3a2.11,2.11,0,0,1,0,.25v0c0,.09,0,.17,0,.26v0A1.6,1.6,0,0,1,46,28,.43.43,0,0,1,46,28c0,.07,0,.13-.07.19s0,0,0,.06a1.73,1.73,0,0,1-.25.39h0l-.17.15-.19.12a5.61,5.61,0,0,1-1.69.61,17.46,17.46,0,0,0-3.9,1.26c-1.15.52-2.89,1.28-3.86,1.74-.42.2-2.78,1.07-3.23,1.18h0l-.46.1h0l-.16,0h0L31.3,34l0,0h0l0,0,0,0h0a2.71,2.71,0,0,1-.34-.44,2.11,2.11,0,0,1-.27-.59,1.34,1.34,0,0,1,.31-1.52,3,3,0,0,1,.73-.3,36.91,36.91,0,0,0,3.64-1.61c.63-.37,1.18-.84,1.83-1.19,1.41-.77,3.59-1.75,5-2.43l.33-.15c.2-.1.41-.19.63-.28A5.91,5.91,0,0,1,45,24.91Z" transform="translate(0 -0.11)"/></g><g class="cls-28"><path class="cls-22" d="M45.58,44.74l.08.23a2,2,0,0,1,.09.33,1.28,1.28,0,0,1,0,.67,2.71,2.71,0,0,1-.54.73A12.08,12.08,0,0,1,44,48a2.29,2.29,0,0,1-1.47.55c-.84,0-.77-.29-.72-.79s.87-1.18,1-1.46.68-1.25.68-1.25l.69-.37Z" transform="translate(0 -0.11)"/><path class="cls-23" d="M45.5,45.6a3.49,3.49,0,0,1-.81,1.46,2.86,2.86,0,0,1-2.13,1.19c-.84,0-.77-.3-.72-.79v0c.06-.5.86-1.17,1-1.45s.69-1.24.69-1.24l.68-.38,1.36.05,0,.08a1.91,1.91,0,0,1-.11,1.1" transform="translate(0 -0.11)"/><path class="cls-24" d="M45.5,45.6a3.49,3.49,0,0,1-.81,1.46,2.86,2.86,0,0,1-2.13,1.19c-.84,0-.77-.3-.72-.79v0l.06,0a3.94,3.94,0,0,0,.94.24,1.78,1.78,0,0,0,.94-.14,2,2,0,0,0,.56-.42,3.49,3.49,0,0,0,.47-.56,2.56,2.56,0,0,0,.3-.65,2.88,2.88,0,0,0,.15-1v-.12a.48.48,0,0,1,.34-.26,1.91,1.91,0,0,1-.11,1.1" transform="translate(0 -0.11)"/><path class="cls-26" d="M42.9,28.53a.78.78,0,0,1,.17-.27h0a.38.38,0,0,1,.13-.09c.93-.55,3.32.31,3.58,1.48a1.09,1.09,0,0,1,0,.22,5.75,5.75,0,0,1-.11,1.85,24.93,24.93,0,0,0-.44,5c0,1.06,0,2,.08,3a35.52,35.52,0,0,1-.31,4.72c-.08.41-.14.7-.14.7l-.09,0a2.83,2.83,0,0,1-.62.16,2.09,2.09,0,0,1-.66,0c-.56-.09-1.18-.3-1.31-.92a2.69,2.69,0,0,1,0-.8,38.87,38.87,0,0,0,0-4c-.1-.75-.32-1.46-.39-2.21-.15-1.65-.18-4.09-.23-5.74,0-.12,0-.24,0-.37v-.7A6.4,6.4,0,0,1,42.9,28.53Z" transform="translate(0 -0.11)"/><path class="cls-25" d="M44.68,37.85a.68.68,0,0,0,.18-.26A4.86,4.86,0,0,0,44.63,35a9.67,9.67,0,0,1-.48-1.83c0-.12-.15-1.29,0-1.31s.08-2.71,1.14-3.6a2.37,2.37,0,0,1,1.54,1.39,1.09,1.09,0,0,1,0,.22,5.75,5.75,0,0,1-.11,1.85,24.93,24.93,0,0,0-.44,5c0,1.29,0,4.53,0,5.63a6.71,6.71,0,0,1-.11,1.41h0l-.09.47h0c-.08.38-.14.67-.17.8h0l-.06.09h0l-.06,0c-.14,0-.24-.41-.25-.57q-.06-1.19-.18-2.37c0-.53.14-3.51-.52-3.68a2.66,2.66,0,0,0-.69,0,1.27,1.27,0,0,1-.67-.08A1.89,1.89,0,0,0,44.68,37.85Z" transform="translate(0 -0.11)"/><path class="cls-6" d="M42.9,28.53a.78.78,0,0,1,.17-.27h0a.38.38,0,0,1,.13-.09,2.61,2.61,0,0,1,2,.09h0l.24.11h0l.22.11,0,0,.16.1.08.06a.61.61,0,0,1,.16.12l.06,0,.12.12a.46.46,0,0,1,.07.07.39.39,0,0,1,.08.1l.08.09a1.62,1.62,0,0,1,.1.18l0,0a.81.81,0,0,1,.07.22,1.09,1.09,0,0,1,0,.22,5.75,5.75,0,0,1-.11,1.85,24.93,24.93,0,0,0-.44,5c0,.3,0,.59,0,.88v.28c0,.2,0,.4,0,.6v.29c0,.22,0,.44,0,.65v.28h0c0,.2-.08,2.45-.07,2.65a6.71,6.71,0,0,1-.11,1.41h0l-.09.47h0l0,.16h0c0,.12,0,.22-.06.31v0l0,.15v0c0,.12,0,.19,0,.19l0,0h0l-.06,0h0a3.36,3.36,0,0,1-.56.13,2.09,2.09,0,0,1-.66,0c-.56-.09-1.18-.3-1.31-.92a2.69,2.69,0,0,1,0-.8,38.87,38.87,0,0,0,0-4c-.1-.75-.32-1.46-.39-2.21-.15-1.65-.18-4.09-.23-5.74,0-.12,0-.24,0-.37v-.7A6.4,6.4,0,0,1,42.9,28.53Z" transform="translate(0 -0.11)"/></g><g class="cls-29"><path class="cls-26" d="M45.6,27.8a.68.68,0,0,1,.25-.21h0a.39.39,0,0,1,.14-.05c1.06-.24,3.08,1.31,3,2.5a1.11,1.11,0,0,1,0,.23A5.65,5.65,0,0,1,48.27,32a25.57,25.57,0,0,0-1.92,4.58c-.31,1-.57,2-.83,2.87a36.19,36.19,0,0,1-1.73,4.4c-.2.37-.35.63-.35.63h-.09a3.37,3.37,0,0,1-.65,0,2.17,2.17,0,0,1-.63-.19c-.5-.25-1-.63-1-1.26a3,3,0,0,1,.26-.77,40.07,40.07,0,0,0,1.2-3.86c.13-.74.14-1.48.3-2.22.36-1.61,1.07-3.94,1.53-5.54,0-.11.06-.23.1-.35s.13-.45.21-.67A5.91,5.91,0,0,1,45.6,27.8Z" transform="translate(0 -0.11)"/><path class="cls-25" d="M44.46,37.21a.7.7,0,0,0,.26-.19,4.78,4.78,0,0,0,.56-2.54,10,10,0,0,1,.11-1.89c0-.11.24-1.27.35-1.26s.91-2.56,2.18-3.08A2.37,2.37,0,0,1,49,30a1.11,1.11,0,0,1,0,.23A5.65,5.65,0,0,1,48.27,32a25.57,25.57,0,0,0-1.92,4.58c-.37,1.24-1.41,4.31-1.7,5.37a6.46,6.46,0,0,1-.54,1.31h0l-.23.42h0l-.4.71h0l-.09.07h-.11c-.12-.08-.1-.45-.06-.61.2-.77.38-1.54.55-2.31.11-.52,1.19-3.3.61-3.67a2.27,2.27,0,0,0-.65-.22,1.27,1.27,0,0,1-.61-.28A1.88,1.88,0,0,0,44.46,37.21Z" transform="translate(0 -0.11)"/><path class="cls-6" d="M45.6,27.8a.68.68,0,0,1,.25-.21h0a.39.39,0,0,1,.14-.05,2.61,2.61,0,0,1,1.92.71h0l.2.17,0,0c.06.05.11.11.17.17l0,0,.12.14.06.08.11.16.05.07c0,.05,0,.1.08.14a.41.41,0,0,0,0,.09.56.56,0,0,1,0,.12.61.61,0,0,1,.05.12,1.29,1.29,0,0,1,0,.19s0,0,0,0A.89.89,0,0,1,49,30a1.11,1.11,0,0,1,0,.23A5.65,5.65,0,0,1,48.27,32a25.57,25.57,0,0,0-1.92,4.58c-.09.29-.17.57-.25.85a2.76,2.76,0,0,0-.08.27c-.06.19-.11.38-.16.57l-.08.28-.18.63-.08.27h0c-.05.19-.82,2.31-.87,2.5a6.46,6.46,0,0,1-.54,1.31h0l-.23.42h0l-.08.14h0c-.06.1-.11.2-.15.28l0,0-.07.13v0l-.1.17h-.16a3.36,3.36,0,0,1-.58,0,2.17,2.17,0,0,1-.63-.19c-.5-.25-1-.63-1-1.26a3,3,0,0,1,.26-.77,40.07,40.07,0,0,0,1.2-3.86c.13-.74.14-1.48.3-2.22.36-1.61,1.07-3.94,1.53-5.54,0-.11.06-.23.1-.35s.13-.45.21-.67A5.91,5.91,0,0,1,45.6,27.8Z" transform="translate(0 -0.11)"/></g><path class="cls-22" d="M49.39,30.28h0a7.8,7.8,0,0,1-2.54-1.24,7.91,7.91,0,0,1-.63-.52A14.48,14.48,0,0,1,45,27.18l-.08-.09a6,6,0,0,1-.52-.72,1.55,1.55,0,0,1-.22-.61h0c.11-.19.23-.39.36-.58h0a.77.77,0,0,1,.28.19c.22.19.44.39.65.6.43.4.85.8,1.3,1.17a7.13,7.13,0,0,0,1.76,1.1,6.75,6.75,0,0,1,.95.43,1.3,1.3,0,0,1,.47.46s0,0,0,0c-.21.41-.42.82-.58,1.11" transform="translate(0 -0.11)"/><path class="cls-15" d="M49.15,17.25c-.34.72-.78,1.4-1.19,2.09l-1.25,2c-.69,1.11-1.4,2.21-2.15,3.27l-.13.18a1,1,0,0,0-.17.46.79.79,0,0,0,.07.4.92.92,0,0,0,.09.23,6.85,6.85,0,0,0,.71,1.15l.12.17.15.17,0,0a7.34,7.34,0,0,0,1.23,1.13,7.24,7.24,0,0,0,1.44.8c.18.08.36.14.55.21a.79.79,0,0,0,.52,0,4.67,4.67,0,0,0,1.17-.83,6.24,6.24,0,0,0,1.18-1.28c.25-.36.37-.73.65-1.08l.14-.18c.55-.69,1.09-1.41,1.61-2.13l.39-.56c.43-.63.85-1.27,1.25-1.92a6.31,6.31,0,0,1,.67-1.05,1.5,1.5,0,0,1,.57-.4,4.18,4.18,0,0,1,.67-.09.43.43,0,0,0,.27-.13.59.59,0,0,0,.13-.18.45.45,0,0,0-.06-.47,13.1,13.1,0,0,1-.7-1.34,4.07,4.07,0,0,0-.47-.7c-.07-.1-.15-.19-.23-.29a2.09,2.09,0,0,1-.14-.17c-.07-.08-.13-.16-.2-.23l-.1-.09a1.24,1.24,0,0,0-.32-.23l-.12-.05c-.3-.12-.41-.08-.66-.31a10.91,10.91,0,0,0-1.37-.8l-.73-.37-.25-.14h0a3,3,0,0,0-1-.08,2.43,2.43,0,0,0-1,.7,8.18,8.18,0,0,0-1.35,2.13" transform="translate(0 -0.11)"/><path class="cls-16" d="M47.29,23.78c-.32.49-.65,1-.95,1.47s-.52.84-.75,1.28l-.18.37a2.11,2.11,0,0,0-.16.34s.09.09.1.11a.94.94,0,0,0,.1.1s.28-.54.3-.59c.21-.41.44-.8.68-1.19s.6-1,.91-1.42l1-1.53c.35-.51.71-1,1.07-1.51l1-1.37.82-1.11c.19-.26.39-.54.6-.79s.41-.48.63-.72l-.37.2a3,3,0,0,0-1,.94l-.78,1.05c-.32.44-.65.88-1,1.33s-.72,1-1.07,1.5-.71,1-1.06,1.54" transform="translate(0 -0.11)"/><path class="cls-26" d="M46.36,21.5l-.63.92-.79,1.14c-.27.39-.55.79-.84,1.19s-.72,1-.41,1.49l0,0a2.2,2.2,0,0,0,.24.28l.32.34c.12.12.23.31.39.37.27-.53.52-1.06.83-1.57a4.45,4.45,0,0,1,.33-.51l.32-.51a2.9,2.9,0,0,0,.19-.29c.28-.44.57-.89.84-1.34.17-.27.35-.54.51-.82a.61.61,0,0,0,.07-.1c1.3-2.12,2.61-4.33,4.66-5.74l.15-.29c.14-.32.28-.63.41-.95,0-.09.1-.21,0-.3a2.56,2.56,0,0,0-.26-.2,2.9,2.9,0,0,0-.29-.19,1.06,1.06,0,0,0-.4-.14,1.64,1.64,0,0,0-.72.13l-.14.05a2.18,2.18,0,0,0-.64.41,3.13,3.13,0,0,0-.39.42,6.24,6.24,0,0,0-.65,1c-.74,1.36-1.55,2.69-2.39,4l-.76,1.15" transform="translate(0 -0.11)"/><path class="cls-25" d="M49.51,16.36a86.1,86.1,0,0,1-5.4,8.39c-.3.42-.73,1-.42,1.49l0,0c.42-.56.66-1.23,1.09-1.79s.89-1.37,1.33-2.05l2.18-3.28c.1-.16.28-.34.46-.27s.29.23.37.11a1,1,0,0,1-.24-1,2.93,2.93,0,0,1,.51-.93c.23-.3.45-.61.67-.92A4.89,4.89,0,0,1,51.14,15,1.87,1.87,0,0,1,53,14.81a2.88,2.88,0,0,0-.51-.36,1.36,1.36,0,0,0-.4-.14,1.64,1.64,0,0,0-.72.13l-.14.05a2.18,2.18,0,0,0-.64.41,3.13,3.13,0,0,0-.39.42,6.24,6.24,0,0,0-.65,1" transform="translate(0 -0.11)"/><path class="cls-26" d="M48.73,23.34l-.51.74c-.3.45-.6.9-.88,1.36l-.48.76c-.4.64-.78,1.3-1.15,2a.49.49,0,0,0-.08.24s0,0,0,0a.41.41,0,0,0,.12.2,6.21,6.21,0,0,0,2.81,1.79.58.58,0,0,0,.23,0,.61.61,0,0,0,.24-.15l2.56-2.39c.36-.32.71-.66,1.06-1a16.27,16.27,0,0,0,1.79-2,25.08,25.08,0,0,0,2.21-4c.15-.3.28-.6.41-.92h0a.69.69,0,0,1,.6-.49c.07,0,.17,0,.19-.08a.21.21,0,0,0,0-.11,6.73,6.73,0,0,0-1-1.94.71.71,0,0,0-.56-.3,3.58,3.58,0,0,0-1,.29,9.35,9.35,0,0,0-1.38.58,9.51,9.51,0,0,0-2.41,1.76,17.61,17.61,0,0,0-1.3,1.56q-.77,1-1.47,2" transform="translate(0 -0.11)"/><path class="cls-25" d="M45.63,28.4s0,0,0,0a.41.41,0,0,0,.12.2,6.21,6.21,0,0,0,2.81,1.79.58.58,0,0,0,.23,0,.61.61,0,0,0,.24-.15l2.56-2.39c.36-.32.71-.66,1.06-1a4.61,4.61,0,0,0,.25-1,1.73,1.73,0,0,1,.28-.94l.73-1,.39-.56c.43-.63.85-1.27,1.25-1.92a6.31,6.31,0,0,1,.67-1.05,1.43,1.43,0,0,1,.57-.4,1.81,1.81,0,0,1,.27-.06,2.69,2.69,0,0,0,.4,0,.32.32,0,0,0,.26-.12h0a.87.87,0,0,0,.14-.27.51.51,0,0,0,0-.17.53.53,0,0,0,0-.12c-.12-.29-.21-.6-.35-.88a4.56,4.56,0,0,0-.49-.82c-.19-.25-.42-.48-.62-.72l-.21.07.06.14.4.85a1,1,0,0,1,.11.38c0,.44-.48.69-.86.92a4.88,4.88,0,0,0-1.67,2.08,1.62,1.62,0,0,1-.71.85,1.52,1.52,0,0,1-1.11,0,1.8,1.8,0,0,1-.91-.79,3.87,3.87,0,0,0,.89,1.18A1.92,1.92,0,0,1,53,23.74a2.72,2.72,0,0,1-.59,1.11,22.38,22.38,0,0,1-1.94,2.31c-.13.13-.19.29-.32.42-.3.33-.62.63-.94.93a2.85,2.85,0,0,1-1.36.72,2.13,2.13,0,0,1-1.5-.24,4.52,4.52,0,0,1-.72-.59" transform="translate(0 -0.11)"/><path class="cls-17" d="M53.51,14.9a4.92,4.92,0,0,0-.65.72,1.21,1.21,0,0,0-.21.6,1.17,1.17,0,0,0,.21.65,2.29,2.29,0,0,0-.52.41,2,2,0,0,1-.2.21c-.08.06-.21.11-.26.19a1.28,1.28,0,0,0,.14-.79c0-.27-.09-.55-.1-.83a1.12,1.12,0,0,1,1.59-1.16" transform="translate(0 -0.11)"/><path class="cls-15" d="M47.12,20.35l-.76,1.15A4.31,4.31,0,0,0,47.17,23l.58-.92a2.46,2.46,0,0,1-.59-1.77Z" transform="translate(0 -0.11)"/><path class="cls-15" d="M44.94,23.56a4.29,4.29,0,0,0,.88,1.62l.32-.51c.07-.09.23-.3.29-.4a2.58,2.58,0,0,1-.69-1.85h0l-.79,1.14" transform="translate(0 -0.11)"/><path class="cls-15" d="M51.79,19.88c.09-.13.22-.41.4-.29a.35.35,0,0,1,.13.14,4,4,0,0,0,.93.91,3,3,0,0,0,.48.3c.1,0,.28.09.25.23s-.22.27-.29.36l-.62.81a.69.69,0,0,1-.24.21.61.61,0,0,1-.3,0,10.37,10.37,0,0,1-1.1-.15l-.11,0a1,1,0,0,1-.21-.69c0-.12,0-.25,0-.37a1.3,1.3,0,0,1,0-.34.7.7,0,0,1,.08-.2c.18-.32.43-.59.61-.9" transform="translate(0 -0.11)"/><path class="cls-25" d="M48.79,30.46a1.33,1.33,0,0,0,1.52-.21c.84-.65,7.07-7.61,7.58-10.81l-.84-.09-.59.57-3.33,4.36Z" transform="translate(0 -0.11)"/><path class="cls-15" d="M47.34,25.44l-.48.76c.24.19.48.37.73.54a27.47,27.47,0,0,0,4,2.15l.64-.72a25.26,25.26,0,0,1-4.94-2.73" transform="translate(0 -0.11)"/><path class="cls-15" d="M48.73,23.34l-.51.74c.25.21.52.41.78.59a28.35,28.35,0,0,0,4.39,2.18l.69-.87a22.25,22.25,0,0,1-5.35-2.64" transform="translate(0 -0.11)"/><path class="cls-30" d="M56.39,16.87A2.1,2.1,0,0,1,56,16a.66.66,0,0,1,.15-.38h0a1,1,0,0,0-.27-1.22c-1.48-1-2.12.14-2.12.14h0a2.18,2.18,0,0,0-.23.33h0a2.92,2.92,0,0,1-.24.37l-.14.17a1.37,1.37,0,0,0-.22.3c-.18.37-.33.77,0,1.1a1.31,1.31,0,0,0,.68.35,3.34,3.34,0,0,0,.83.13c.24,0,.49,0,.74,0h.31C56.28,17.21,56.39,16.87,56.39,16.87Z" transform="translate(0 -0.11)"/><path class="cls-31" d="M55.78,17.22l.14,0h0l.13-.05h0a.41.41,0,0,0,.11-.07h0L56.3,17l0,0,0,0a0,0,0,0,0,0,0l0,0A2.1,2.1,0,0,1,56,16a.66.66,0,0,1,.15-.38h0a1,1,0,0,0-.27-1.22c-1.48-1-2.12.14-2.12.14h0a2.18,2.18,0,0,0-.23.33h0a2.92,2.92,0,0,1-.24.37l-.14.17a1,1,0,0,0,.28.26,1.48,1.48,0,0,0,.78.16c.27,0,.54-.05.81-.06a.57.57,0,0,1,.56.2.47.47,0,0,1,0,.33,2.39,2.39,0,0,1-.16.32,3.25,3.25,0,0,0-.23.54l0,.14h.31l.26,0Z" transform="translate(0 -0.11)"/><path class="cls-17" d="M52.91,16.88l.23.14a.53.53,0,0,0,.24.06,2.17,2.17,0,0,0,.25,0,5.15,5.15,0,0,0,.55,0c.59,0,1.37.1,1.74-.46,0-.08.22-.31.16-.4a3.28,3.28,0,0,1,.43.48,2.56,2.56,0,0,1,.2.26,1,1,0,0,1,.19.26s0,0,0,.09l-.12.09-.25.15a3,3,0,0,1-.56.23,3.5,3.5,0,0,1-1.2.15,4.48,4.48,0,0,1-.64-.07c-.21,0-.41-.09-.61-.11s-.46-.12-.7-.16a.87.87,0,0,0-.32,0c-.13,0-.26.05-.4.07s-.13.08-.16.06a3.64,3.64,0,0,1,.86-.89.13.13,0,0,1,.08,0l.05,0Z" transform="translate(0 -0.11)"/><g class="cls-32"><path class="cls-14" d="M60.23,24.86a17.36,17.36,0,0,1-.44,3.28c-.13.77-.28,1.55-.44,2.32,0,.21-.1.39-.13.61a2,2,0,0,1,0,.24,4.1,4.1,0,0,1-.1.48,6.67,6.67,0,0,1-.48,1.36,2.46,2.46,0,0,1-.7,1,2.39,2.39,0,0,1-.34.21,1.39,1.39,0,0,1-.35.16l-.33,0a2,2,0,0,1-.42,0,.33.33,0,0,1-.28-.28.14.14,0,0,1,0-.09.2.2,0,0,1,.13-.06l.31-.11a.46.46,0,0,0,.17-.09.59.59,0,0,0,.11-.19,1.81,1.81,0,0,0,.19-.61c0-.09,0-.38-.15-.31a.64.64,0,0,0-.15.13l-.11.1a.85.85,0,0,1-.17.06.39.39,0,0,1-.15,0s-.11,0-.12-.07,0-.23.12-.31l.14-.12a1.32,1.32,0,0,0,.3-.37A1.7,1.7,0,0,1,57.2,32l.39-.3a.73.73,0,0,0,.32-.45,1.61,1.61,0,0,0,0-.38v-.23c0-.56,0-1.12,0-1.68,0-.89.07-1.79.11-2.68,0-.28.05-.55.07-.83a2.18,2.18,0,0,0-.08-.57c-.12-.57-.12-1.16-.26-1.72a1.18,1.18,0,0,1-.07-.45c0-.33.56-.5.82-.64a5.89,5.89,0,0,1,.58-.24c.07,0,.46-.2.52-.16a1,1,0,0,1,.32.57A8.28,8.28,0,0,1,60.17,24c0,.28,0,.57.06.86" transform="translate(0 -0.11)"/><path class="cls-20" d="M60.17,24a8.36,8.36,0,0,0-.23-1.79,1,1,0,0,0-.32-.57s-.26.05-.41.11a1.1,1.1,0,0,1,.28.52,8.36,8.36,0,0,1,.23,1.79c0,.29.05.57.06.86a17.25,17.25,0,0,1-.44,3.28c-.13.78-.28,1.55-.44,2.32,0,.21-.1.4-.13.61a2,2,0,0,1,0,.24,4.74,4.74,0,0,1-.1.49,6.58,6.58,0,0,1-.48,1.35,2.56,2.56,0,0,1-.7,1,2.9,2.9,0,0,1-.33.2,1.54,1.54,0,0,1-.32.15h.08l.33,0a1.39,1.39,0,0,0,.35-.16,2.39,2.39,0,0,0,.34-.21,2.46,2.46,0,0,0,.7-1,6.67,6.67,0,0,0,.48-1.36,4.1,4.1,0,0,0,.1-.48,2,2,0,0,0,0-.24c0-.22.09-.4.13-.61.16-.77.31-1.55.44-2.32a17.36,17.36,0,0,0,.44-3.28c0-.29,0-.58-.06-.86" transform="translate(0 -0.11)"/><path class="cls-15" d="M57.47,22.61c0,.08,0,.16,0,.23s0,.08,0,.12c.11.8.39,1.55.5,2.35a7.69,7.69,0,0,1-.06,2s0,.05,0,.07,0,.1,0,.15c0,.25-.09.5-.11.74a2.32,2.32,0,0,0,0,.37c0,.39.34.33.65.32h.12a3.1,3.1,0,0,0,.69-.09,1.4,1.4,0,0,0,.9-.65,1,1,0,0,0,.11-.39c.07-.48.13-1,.17-1.44a9.72,9.72,0,0,0,.09-1.31c0-.46-.05-.91-.07-1.35s-.08-1-.14-1.49l-.06-.46a10.94,10.94,0,0,0-.49-2,5,5,0,0,0-.45-1c-.15-.25-.26-.55-.59-.59h-.08l-.21,0h0a1.14,1.14,0,0,0-.67.54,3.19,3.19,0,0,0-.43,1.37v.13a.4.4,0,0,0,0,.11c0,.74.12,1.5.17,2.24" transform="translate(0 -0.11)"/><path class="cls-16" d="M57.82,27.74a1.55,1.55,0,0,0,0,.61c.08.26.36.42.58.55l.15.09a3.1,3.1,0,0,0,.69-.09,1.4,1.4,0,0,0,.9-.65,1,1,0,0,0,.11-.39c.07-.48.13-1,.17-1.44a9.72,9.72,0,0,0,.09-1.31c0-.46-.05-.91-.07-1.35s-.08-1-.14-1.49l-.06-.46a10.94,10.94,0,0,0-.49-2,5,5,0,0,0-.45-1c-.15-.25-.26-.55-.59-.59h-.08l-.21,0a1,1,0,0,1,.31.43,12.33,12.33,0,0,1,1,3.41.48.48,0,0,1-.07.41.47.47,0,0,1-.3.14l-.39.08.59.21a.16.16,0,0,0,0,.23,1.54,1.54,0,0,0,.19.17.22.22,0,0,1,.08.23c-.08.16-.34,0-.47.15a1.41,1.41,0,0,0,.37.25,1,1,0,0,1,.34.84c0,.33-.51.28-.8.33l.55.42c.28.25.19.45.18.79s0,.6-.36.58a.59.59,0,0,1-.38,1.05,1.16,1.16,0,0,1-.8-.32,4.51,4.51,0,0,0-.39-.37l0,0s0,0-.05.06a2.8,2.8,0,0,0-.12.46" transform="translate(0 -0.11)"/><path class="cls-16" d="M57.47,22.61c0,.08,0,.16,0,.23s0,.08,0,.12c.11.8.39,1.55.5,2.35a7.69,7.69,0,0,1-.06,2,4.66,4.66,0,0,0,.13-.82,5.19,5.19,0,0,1,.06-.8.42.42,0,0,1,.14-.22,1.21,1.21,0,0,1,.34-.09,1.11,1.11,0,0,1,.36-.08,1,1,0,0,1-.62-.22c-.09-.07-.33-.27-.19-.39a.32.32,0,0,1,.23-.07l.17,0a1.37,1.37,0,0,1-.75-.78,1.27,1.27,0,0,1-.14-.61c0-.19.19-.28.35-.35a.89.89,0,0,0,.42-.28,1.51,1.51,0,0,1-.79,0c.05-.12.11-.25.17-.37v0c0-.08-.2,0-.21-.1.26-.23.7-.1,1-.3a1.21,1.21,0,0,1-.68,0,1.1,1.1,0,0,1-.5-.77,3.35,3.35,0,0,1-.13-.69c0,.74.12,1.5.17,2.24" transform="translate(0 -0.11)"/><path class="cls-17" d="M57.85,27.33l.09-.12a1.39,1.39,0,0,0,.39.59,1.68,1.68,0,0,0,.61.27,1.22,1.22,0,0,0,.87-.16,1,1,0,0,0,.43-.42,1.33,1.33,0,0,0,.1-.28,1.38,1.38,0,0,1,.19.69,1.94,1.94,0,0,1-.08.76.68.68,0,0,1-.13.27.82.82,0,0,1-.44.27A3.53,3.53,0,0,1,58,29.09a.45.45,0,0,1-.12-.06.64.64,0,0,1-.19-.47,4.09,4.09,0,0,1,0-.7,1.36,1.36,0,0,1,.16-.53" transform="translate(0 -0.11)"/></g><g class="cls-33"><path class="cls-14" d="M60,23.9a17.11,17.11,0,0,1,.67,3.24c.14.78.25,1.56.36,2.34,0,.21,0,.4.08.62s0,.16,0,.23,0,.33.06.49a6.93,6.93,0,0,1,0,1.44,2.54,2.54,0,0,1-.32,1.21,2.42,2.42,0,0,1-.25.31,1.66,1.66,0,0,1-.27.26c-.1.06-.21.1-.31.15a1.46,1.46,0,0,1-.39.16.32.32,0,0,1-.35-.17.17.17,0,0,1,0-.1.32.32,0,0,1,.1-.1l.26-.2a.57.57,0,0,0,.13-.14.78.78,0,0,0,0-.21,2,2,0,0,0,0-.64c0-.09-.1-.37-.24-.24a.48.48,0,0,0-.1.17s0,.08-.07.12a.81.81,0,0,1-.14.12.37.37,0,0,1-.14.07A.22.22,0,0,1,59,33c-.09-.11-.05-.22,0-.33l.1-.17a1.17,1.17,0,0,0,.16-.44,1.85,1.85,0,0,1,.23-.44c.1-.14.18-.28.27-.41a.7.7,0,0,0,.15-.54,1.65,1.65,0,0,0-.11-.36,1.8,1.8,0,0,0-.08-.21c-.18-.53-.37-1.06-.54-1.59-.27-.85-.54-1.71-.79-2.57-.08-.26-.14-.54-.21-.8a1.83,1.83,0,0,0-.27-.52c-.3-.5-.49-1.05-.82-1.53a1.33,1.33,0,0,1-.21-.41c-.07-.32.36-.65.56-.86a6.17,6.17,0,0,1,.46-.43c.06-.05.37-.34.45-.32a1.07,1.07,0,0,1,.49.43,8.67,8.67,0,0,1,.81,1.61c.11.26.23.52.34.79" transform="translate(0 -0.11)"/><path class="cls-20" d="M59.68,23.11a8.67,8.67,0,0,0-.81-1.61,1.07,1.07,0,0,0-.49-.43c-.06,0-.23.14-.35.24a1.1,1.1,0,0,1,.43.4,8.14,8.14,0,0,1,.82,1.61c.11.26.23.52.33.79a17.13,17.13,0,0,1,.68,3.24c.14.78.25,1.56.36,2.34,0,.21,0,.4.08.62a1.85,1.85,0,0,1,0,.23c0,.16,0,.33.07.49a6.3,6.3,0,0,1,0,1.44,2.42,2.42,0,0,1-.31,1.21,3.76,3.76,0,0,1-.25.31,1.9,1.9,0,0,1-.25.24l.07,0c.1,0,.21-.09.31-.15a1.66,1.66,0,0,0,.27-.26,2.42,2.42,0,0,0,.25-.31,2.54,2.54,0,0,0,.32-1.21,6.93,6.93,0,0,0,0-1.44c0-.16,0-.32-.06-.49s0-.15,0-.23-.05-.41-.08-.62c-.11-.78-.22-1.56-.36-2.34A17.11,17.11,0,0,0,60,23.9c-.11-.27-.23-.53-.34-.79" transform="translate(0 -0.11)"/><path class="cls-15" d="M56.67,22.7a2,2,0,0,0,.1.21.54.54,0,0,0,0,.11c.36.72.88,1.33,1.25,2.05A7.61,7.61,0,0,1,58.68,27a.22.22,0,0,1,0,.08.35.35,0,0,1,0,.14c.05.25.09.5.15.74s.07.23.11.35c.17.35.44.19.72.09l.12,0a3.26,3.26,0,0,0,.62-.31,1.19,1.19,0,0,0,.61-1.32c-.09-.47-.2-.95-.32-1.42A9.07,9.07,0,0,0,60.37,24l-.51-1.25c-.2-.45-.4-.91-.62-1.35-.07-.15-.15-.28-.22-.42a11.36,11.36,0,0,0-1.14-1.77,5.39,5.39,0,0,0-.74-.77c-.23-.18-.43-.43-.76-.36l-.07,0-.2.09s0,0,0,0a1.11,1.11,0,0,0-.46.73,3.18,3.18,0,0,0,.06,1.44h0l0,.11,0,.1c.23.71.62,1.38.91,2.06" transform="translate(0 -0.11)"/><path class="cls-16" d="M58.71,27.43a1.5,1.5,0,0,0,.21.57,1.17,1.17,0,0,0,.72.32l.18,0a3.26,3.26,0,0,0,.62-.31,1.19,1.19,0,0,0,.61-1.32c-.09-.47-.2-.95-.32-1.42A9.07,9.07,0,0,0,60.37,24l-.51-1.25c-.2-.45-.4-.91-.62-1.35-.07-.15-.15-.28-.22-.42a11.36,11.36,0,0,0-1.14-1.77,4.89,4.89,0,0,0-.74-.77c-.23-.18-.43-.43-.76-.36l-.07,0-.2.09a1.11,1.11,0,0,1,.44.31,12,12,0,0,1,2.05,2.88.53.53,0,0,1,.08.42.51.51,0,0,1-.24.22l-.35.21h.63c0,.07,0,.17.07.22a2.29,2.29,0,0,0,.23.1.2.2,0,0,1,.15.19c0,.17-.3.14-.4.29a1.29,1.29,0,0,0,.44.11,1,1,0,0,1,.6.68c.07.33-.38.44-.65.58l.66.21c.35.14.33.37.44.69s.2.56-.16.66a.6.6,0,0,1,0,1.12,1.08,1.08,0,0,1-.86,0,5.16,5.16,0,0,0-.49-.21h-.06a0,0,0,0,0,0,.06,2.85,2.85,0,0,0,0,.49" transform="translate(0 -0.11)"/><path class="cls-16" d="M56.67,22.7a2,2,0,0,0,.1.21.54.54,0,0,0,0,.11c.36.72.88,1.33,1.25,2.05A7.61,7.61,0,0,1,58.68,27a3.82,3.82,0,0,0-.15-.82,4.15,4.15,0,0,1-.2-.77.36.36,0,0,1,.05-.25c.07-.09.2-.13.29-.2a1,1,0,0,1,.32-.19,1,1,0,0,1-.66,0c-.1,0-.4-.14-.31-.3a.47.47,0,0,1,.19-.15l.16-.07a1.42,1.42,0,0,1-1-.48,1.39,1.39,0,0,1-.33-.53.48.48,0,0,1,.21-.45.8.8,0,0,0,.3-.41,1.48,1.48,0,0,1-.73.3c0-.14,0-.27,0-.41a.06.06,0,0,0,0,0c0-.08-.19.06-.22,0,.16-.31.62-.33.82-.62a1.19,1.19,0,0,1-.64.23,1.15,1.15,0,0,1-.73-.56,3.33,3.33,0,0,1-.35-.61c.23.71.62,1.38.91,2.06" transform="translate(0 -0.11)"/><path class="cls-17" d="M58.6,27a.83.83,0,0,1,0-.15,1.33,1.33,0,0,0,.57.42,1.48,1.48,0,0,0,.66.06,1.22,1.22,0,0,0,.77-.44,1.09,1.09,0,0,0,.26-.54,1,1,0,0,0,0-.3,1.31,1.31,0,0,1,.42.59,2.15,2.15,0,0,1,.17.74.75.75,0,0,1,0,.3.88.88,0,0,1-.33.41,3.48,3.48,0,0,1-1.81.51h-.13a.65.65,0,0,1-.33-.38,4.12,4.12,0,0,1-.24-.67,1.4,1.4,0,0,1,0-.54" transform="translate(0 -0.11)"/></g><path class="cls-34" d="M57.56,14.74a.16.16,0,0,1,0,.09.51.51,0,0,1-.16.17,1.79,1.79,0,0,1-.68.26h0l-.24,0-.32.11-.2.08a3.27,3.27,0,0,1-1.48.09h-.39c-.78-.12-1.24-.47-1.33-.83s.46-1.41.46-1.41c.09-.2.2-.4.28-.61,0,0,0,0,0,0,.11-.23.28-.39.4-.63s.07-.22.11-.32a1.63,1.63,0,0,1,.46-.52l.66-.56.39-.33a1.52,1.52,0,0,1,1-.49,2.2,2.2,0,0,1,1.2.3s.58,1.69.66,1.82a2.29,2.29,0,0,1-.27,2.19,2.66,2.66,0,0,1-.52.58.11.11,0,0,1,0,.05v0" transform="translate(0 -0.11)"/><path class="cls-31" d="M55.13,10.6a6.78,6.78,0,0,1,2.09.79,2.25,2.25,0,0,1,.52.4,1,1,0,0,1,.28.58,1,1,0,0,1-.27.69,3.09,3.09,0,0,1-.64.61,8.51,8.51,0,0,0-1.27,1.2,1.45,1.45,0,0,1,.12-.44,2.65,2.65,0,0,1,.44-.85c.08-.09.17-.17.26-.26a2.8,2.8,0,0,0,.46-.57.4.4,0,0,0,.06-.32,1.14,1.14,0,0,0-.3-.32A17.64,17.64,0,0,0,55.42,11a1.14,1.14,0,0,1-.36-.33Z" transform="translate(0 -0.11)"/><path class="cls-35" d="M59.09,13.68a9.16,9.16,0,0,1-1.23,1l-.17.11-.18.12-.07,0a1.64,1.64,0,0,1-.75.26h0l.06-.07a1.39,1.39,0,0,1,.34-.24l.17-.14.08-.11a.32.32,0,0,0,0-.14.39.39,0,0,0-.36-.37.88.88,0,0,0-.54.16c-.08.05-.15.11-.23.15l-.13.09-.12.07a.32.32,0,0,1,0-.09.37.37,0,0,1,0-.11c.08-.16.18-.31.27-.46a3.37,3.37,0,0,1,.41-.58c.12-.12.26-.23.39-.34a.59.59,0,0,0,.23-.57,1.26,1.26,0,0,0-.27-.51,4.52,4.52,0,0,0-1.21-.89,2.6,2.6,0,0,1-.73-.49c0-.06-.11-.09-.15-.15s0-.14,0-.21a1.84,1.84,0,0,1,.37-.55,3.17,3.17,0,0,1,.51-.37.55.55,0,0,1,.47-.05,2.62,2.62,0,0,1,.62.19,3.35,3.35,0,0,1,.87.57,3.61,3.61,0,0,1,1.38,1.64,4.1,4.1,0,0,1,.16.65l0,.16a1.31,1.31,0,0,1-.32,1.18" transform="translate(0 -0.11)"/><path class="cls-36" d="M59.09,13.68a9.16,9.16,0,0,1-1.23,1l-.17.11-.18.12-.07,0a1.78,1.78,0,0,1-.75.27h0l.06-.07a1.39,1.39,0,0,1,.34-.24l.17-.14.08-.11a.32.32,0,0,0,0-.14.39.39,0,0,0-.36-.37.88.88,0,0,0-.54.16c-.08.05-.15.11-.23.15l-.13.09-.12.07a.32.32,0,0,1,0-.09.37.37,0,0,1,0-.11c.08-.16.18-.31.27-.46a3.37,3.37,0,0,1,.41-.58c.12-.12.26-.23.39-.34-.18.35-.54.59-.75.93,0,.05,0,.13,0,.16h.06c.16,0,.31-.12.46-.17a.54.54,0,0,1,.48,0,.63.63,0,0,1,.23.39.2.2,0,0,0,0,.08c.05.07.16,0,.23,0a3.15,3.15,0,0,0,1.26-1.3,3.81,3.81,0,0,1,.27-.66,1.31,1.31,0,0,1-.32,1.18" transform="translate(0 -0.11)"/><path class="cls-37" d="M59.39,12.34a1.16,1.16,0,0,1,0,.59.62.62,0,0,1-.42.35.72.72,0,0,1-.63-.26,2.11,2.11,0,0,1-.33-.63,1.9,1.9,0,0,0-.33-.63,2.13,2.13,0,0,0-.4-.33l-1.14-.79a1.44,1.44,0,0,1-.5-.48.64.64,0,0,1,.54-.89,2.93,2.93,0,0,1,1.71.78,3.7,3.7,0,0,1,1.38,1.63,5.77,5.77,0,0,1,.17.66" transform="translate(0 -0.11)"/><path class="cls-38" d="M57.7,10.11l-.41-.26a2.27,2.27,0,0,0-.46-.16.9.9,0,0,0-.4,0l-.09,0a.25.25,0,0,0,0,.36c.24.38.73.51,1.08.79s.69,1,1.15,1.38a.28.28,0,0,0,.25.1.21.21,0,0,0,.16-.14A.41.41,0,0,0,59,12a1.87,1.87,0,0,0-.12-.56,2.45,2.45,0,0,0-.46-.66,2.06,2.06,0,0,0-.3-.29,2.73,2.73,0,0,0-.34-.34l0,0" transform="translate(0 -0.11)"/><path class="cls-39" d="M53.72,9.81A1.83,1.83,0,0,1,54,9.7a3.81,3.81,0,0,1,1.26-.12,4.91,4.91,0,0,1,1.21.17,5.86,5.86,0,0,1,2.29,1.13l.33.3a3.39,3.39,0,0,1,.33.42,1.77,1.77,0,0,1,.31.79.24.24,0,0,0,.08-.09,2,2,0,0,1-.35,1.16,1.31,1.31,0,0,1-.5.37,1.8,1.8,0,0,1-.68.14,2.57,2.57,0,0,1-1.36-.35.39.39,0,0,0-.14-.08,10.43,10.43,0,0,1-1.12-.17,5.75,5.75,0,0,1-1.06-.51,3.37,3.37,0,0,1-1.19-1.24,1.55,1.55,0,0,1-.18-.51,1.29,1.29,0,0,1,.51-1.3" transform="translate(0 -0.11)"/><path class="cls-40" d="M59.72,12.4a.22.22,0,0,1-.08.09,1.71,1.71,0,0,0-.3-.79,3.47,3.47,0,0,0-.34-.42,3.26,3.26,0,0,0-.33-.31,5.72,5.72,0,0,0-2.29-1.13,4.82,4.82,0,0,0-1.2-.16,3.76,3.76,0,0,0-1.26.11l-.26.11a.85.85,0,0,0-.27.23.92.92,0,0,1,.33-.32A1.83,1.83,0,0,1,54,9.7a3.81,3.81,0,0,1,1.26-.12,4.91,4.91,0,0,1,1.21.17,5.86,5.86,0,0,1,2.29,1.13l.33.3a3.39,3.39,0,0,1,.33.42,1.77,1.77,0,0,1,.31.79.24.24,0,0,0,.08-.09,2,2,0,0,1-.32,1.11,2,2,0,0,0,.25-1" transform="translate(0 -0.11)"/><path class="cls-40" d="M53.29,11a1.57,1.57,0,0,0,.19.51,3.34,3.34,0,0,0,1.18,1.24,6.08,6.08,0,0,0,1.06.51,10.82,10.82,0,0,0,1.12.17.37.37,0,0,1,.14.07,2.12,2.12,0,0,0,.9.32,1.83,1.83,0,0,0,.46,0,2,2,0,0,0,.68-.14,1.31,1.31,0,0,0,.5-.37l0,0-.11.15a1.31,1.31,0,0,1-.5.37,1.8,1.8,0,0,1-.68.14,2.57,2.57,0,0,1-1.36-.35.39.39,0,0,0-.14-.08,10.43,10.43,0,0,1-1.12-.17,5.75,5.75,0,0,1-1.06-.51,3.37,3.37,0,0,1-1.19-1.24,1.55,1.55,0,0,1-.18-.51A1.49,1.49,0,0,1,53.47,10a1.6,1.6,0,0,0-.18,1" transform="translate(0 -0.11)"/><path class="cls-41" d="M59.45,9.82A2.46,2.46,0,0,1,60,11.11a2.92,2.92,0,0,1-.57,2.05,1.26,1.26,0,0,1-1,.57A4.19,4.19,0,0,1,55.29,12c-.33-.43-.81-1.11-.64-1.69a1,1,0,0,1,.17-.32,2.43,2.43,0,0,1,.75-.61c.24-.13.51-.24.77-.36a2.69,2.69,0,0,1,.83-.22,2.82,2.82,0,0,1,.91.09,2.85,2.85,0,0,1,.81.38,2.72,2.72,0,0,1,.56.51" transform="translate(0 -0.11)"/><path class="cls-26" d="M54.5,10.35s-.08.07-.09.11a.38.38,0,0,0,0,.15,1.38,1.38,0,0,0,.17.52,1.18,1.18,0,0,0,.11.19l0,.06.07.06s0-.07,0-.08l.1,0,.13-.06.48-.3.66-.3.63-.28.94-.19.7-.13.82.32.78.82a3.72,3.72,0,0,0-.39-1.15h0a.75.75,0,0,0-.07-.12,2,2,0,0,0-.48-.53,2,2,0,0,0-.6-.29l-.24,0a2,2,0,0,0-.49,0,2.83,2.83,0,0,0-.5.05,4.6,4.6,0,0,0-.5.13,4.5,4.5,0,0,0-.48.16l-.46.2-.41.21-.36.21-.29.18-.3.19" transform="translate(0 -0.11)"/><path class="cls-40" d="M55,11.54l.06,0,.07-.05.21-.14.31-.18c.12-.08.24-.14.37-.21l.42-.21.46-.19a4.66,4.66,0,0,1,.49-.16,4,4,0,0,1,.5-.1l.48,0a2.32,2.32,0,0,1,.46.07l.17.06.16.08A1.81,1.81,0,0,1,60,11.59a.7.7,0,0,1,0,.14c0-.07,0-.14,0-.21a1,1,0,0,0,0-.38,1.22,1.22,0,0,0-.1-.24,2,2,0,0,0-.5-.54,1.67,1.67,0,0,0-.6-.29L58.62,10a2.68,2.68,0,0,0-.49,0,2.73,2.73,0,0,0-.5,0,4.05,4.05,0,0,0-.5.12l-.49.17-.46.2-.41.21-.36.2-.28.18-.21.14-.09.06s-.07,0-.07.07a.11.11,0,0,0,.06.09.18.18,0,0,0,.07,0,.07.07,0,0,0,.06,0" transform="translate(0 -0.11)"/></g></g></g></svg>