<svg xmlns="http://www.w3.org/2000/svg" xmlns:xlink="http://www.w3.org/1999/xlink" viewBox="0 0 157.71 115.08"><defs><style>.cls-1{fill:none;}.cls-2{isolation:isolate;}.cls-3,.cls-9{fill:#1d1d1b;}.cls-3{opacity:0.2;}.cls-4{fill:#9d9d9c;}.cls-5{fill:#c6c6c6;}.cls-6{fill:#706f6f;}.cls-7{fill:#dadada;}.cls-8{fill:#3c3c3b;}.cls-10{fill:#878787;}.cls-11{mix-blend-mode:multiply;}.cls-12{opacity:0.25;}.cls-13{fill:#c3c3c3;}.cls-14{fill:#f4f4f4;}.cls-15{fill:#fff;}.cls-16{fill:#212426;}.cls-17{fill:#f5de34;}.cls-18{clip-path:url(#clip-path);}.cls-19{fill:#f2d0b8;}.cls-20{fill:#e5e5e5;}.cls-21{fill:#cbcbcb;}.cls-22{fill:#f2f2f2;}.cls-23{clip-path:url(#clip-path-2);}.cls-24{fill:#f1ccad;}.cls-25{fill:#eec1a6;}.cls-26{clip-path:url(#clip-path-3);}.cls-27{fill:#42484d;}.cls-28{fill:#2c3033;}.cls-29{fill:#e1771c;}.cls-30{fill:#e8a126;}.cls-31{opacity:0.1;}.cls-32{clip-path:url(#clip-path-4);}.cls-33{clip-path:url(#clip-path-5);}.cls-34{opacity:0.05;}.cls-35{clip-path:url(#clip-path-6);}.cls-36{fill:#f0c7a3;}.cls-37{fill:#e5aa89;}.cls-38{clip-path:url(#clip-path-7);}.cls-39{clip-path:url(#clip-path-8);}.cls-40{fill:#f1cdb2;}.cls-41{fill:#450000;}.cls-42{fill:#360000;}.cls-43{fill:#590000;}.cls-44{fill:#6e0000;}.cls-45{fill:#edbc2e;}.cls-46{fill:#d06b19;}.cls-47{fill:url(#Degradado_sin_nombre_291);}</style><clipPath id="clip-path"><path class="cls-1" d="M80.35,11.87a1,1,0,0,1,1.46.13c1.83,2.28,1,7,1,7h0a1.26,1.26,0,0,1-2.51,0,20.3,20.3,0,0,1-.73-4.43A3.05,3.05,0,0,1,80.35,11.87Z"/></clipPath><clipPath id="clip-path-2"><path class="cls-1" d="M80,23s-.34-.07-.31-.75A2.7,2.7,0,0,1,80,20.93l.3-2a1.25,1.25,0,1,1,2.5,0,20.85,20.85,0,0,1-.15,2.11,1.89,1.89,0,0,1,.15,1.16,1.06,1.06,0,0,1-1,1,14.74,14.74,0,0,0-.73,2.49,2.25,2.25,0,0,0,.27.65c.19.29.11,1,.16,1.33a6.46,6.46,0,0,1,.09.78s.1.27,0,.37a.18.18,0,0,1-.22,0s-.06.24-.48.16a1.12,1.12,0,0,1-.77-.45,3.21,3.21,0,0,1-.44-1.2c0-.41.2-1.18.21-1.58S80,23,80,23Z"/></clipPath><clipPath id="clip-path-3"><path class="cls-1" d="M84.52,34h0a1.74,1.74,0,0,0-3.47.25,1.94,1.94,0,0,0,0,.24h0l.32,1.92.25,4s-.15.82.14,1.08c0,0-1.57,1-1.82,1.54s-.51,1.94.91,1.83,1.64-1.21,2.47-1.48S85,43,84.46,41.89a15.62,15.62,0,0,0,.24-1.74A33.39,33.39,0,0,0,84.52,34Z"/></clipPath><clipPath id="clip-path-4"><path class="cls-1" d="M84.67,29c.07-.38.41-2.15-.28-2.75a3.22,3.22,0,0,0-3-1,.84.84,0,0,0-.83.74,6.83,6.83,0,0,0-.17,2.79l.29,3.92.36,2h0a1.75,1.75,0,0,0,3.46-.37.77.77,0,0,0,0-.15l-.06-2.6S84.6,29.36,84.67,29Z"/></clipPath><clipPath id="clip-path-5"><path class="cls-1" d="M88.34,40.15l-.12-3.9L88,34.63a1.76,1.76,0,0,0-3.51,0,1.93,1.93,0,0,0,.06.42h0L85,37.88a30,30,0,0,1,.12,3.21c-.12,1,.28,1.26.28,1.26a4.89,4.89,0,0,1-1.21,2.07,1.17,1.17,0,0,0-.24,1.11c-.09.87,1,.67,1,.67,2.08-.54,2.06-1.93,2.64-2.36a1.1,1.1,0,0,0,.27-1.24l.24-.09Z"/></clipPath><clipPath id="clip-path-6"><path class="cls-1" d="M87.89,26.47a3.22,3.22,0,0,0-3-1,.84.84,0,0,0-.83.74A6.84,6.84,0,0,0,83.92,29l.29,3.93.27,2h0A1.75,1.75,0,0,0,88,34.63s0-.05,0-.08h0v-2.8s.14-2.14.21-2.53S88.58,27.07,87.89,26.47Z"/></clipPath><clipPath id="clip-path-7"><path class="cls-1" d="M86.17,28.23c.25-.34.42-.67.27-.76s-.51.37-.77.17,0-.53.27-.64.39-.45.68-.77.75-.3.74-.83,0-1.82,0-1.82a1.61,1.61,0,0,1-.21-1.08,1.44,1.44,0,0,1,.34-.94l.2-1.67a1.26,1.26,0,1,1,2.51,0l-.09,1.92a1.63,1.63,0,0,1,.09,1.34,1.06,1.06,0,0,1-1,.75,19,19,0,0,1-.67,2.66A7,7,0,0,1,88,28c-.86,1.36-2.29,1.26-2.45.88S85.91,28.57,86.17,28.23Z"/></clipPath><clipPath id="clip-path-8"><path class="cls-1" d="M87.79,12.79a1,1,0,0,1,1.47.13c1.82,2.28,1,7,1,7h0a1.25,1.25,0,0,1-2.5,0A19.83,19.83,0,0,1,87,15.46,3.05,3.05,0,0,1,87.79,12.79Z"/></clipPath><linearGradient id="Degradado_sin_nombre_291" x1="208.99" y1="6.01" x2="214.59" y2="6.01" gradientTransform="matrix(-1, 0, 0, 1, 295.63, 0)" gradientUnits="userSpaceOnUse"><stop offset="0" stop-color="#e1771c"/><stop offset="0.5" stop-color="#dc731b"/><stop offset="1" stop-color="#d06b19"/></linearGradient></defs><title>Recurso 59</title><g class="cls-2"><g id="Capa_2" data-name="Capa 2"><g id="personajes"><path class="cls-3" d="M77.51,59l.57.33a15.82,15.82,0,0,1,13.53.35c3.71,2.14,3.91,5.53.61,7.81l.57.33-1.28.74-.57-.33a15.85,15.85,0,0,1-13.53-.35c-3.7-2.14-3.9-5.54-.61-7.81l-.57-.33Z"/><path class="cls-4" d="M61.09,67.83a2.2,2.2,0,0,0,.74.29,3.31,3.31,0,0,0,.82.08h.07a1.09,1.09,0,0,1,.57.13l.69.39,4.93,2.85a.46.46,0,0,1,.21.23.59.59,0,0,1,0,.13v0c-.09.5.28.9,1,1.09l.24.06.27,0h.06l.19,0a.21.21,0,0,0,.15,0l0,0v.43h0v0h0s0,0,0,0a.28.28,0,0,1-.15,0l-.23,0h0c-1-.13-1.54-.54-1.51-1.1v-.24a.44.44,0,0,0-.21-.24L64,69.18l-.69-.4a1.2,1.2,0,0,0-.57-.13h-.07a2.91,2.91,0,0,1-1.56-.36.79.79,0,0,1-.33-.64v-.46A.79.79,0,0,0,61.09,67.83Z"/><path class="cls-4" d="M70.37,72.3a2.61,2.61,0,0,1,1.16-.37l.13,0,.63.66a.24.24,0,0,0,.27,0,.82.82,0,0,0,.22-.55h0v.49h0a.8.8,0,0,1-.22.52.24.24,0,0,1-.27,0l-.63-.66a.25.25,0,0,0-.13,0,3.85,3.85,0,0,0-.92.25l-.25-.25A.08.08,0,0,1,70.37,72.3Z"/><path class="cls-4" d="M63.17,66.86a.06.06,0,0,1,0,.08,1.36,1.36,0,0,1-.24.13l-.39-.41,0,0s0,0,0,0v-.45s0,0,0,0Z"/><path class="cls-5" d="M70.88,73.18l-.19,0h-.06l-.27,0-.24-.06c-.71-.19-1.08-.59-1-1.09v0a.59.59,0,0,0,0-.13.46.46,0,0,0-.21-.23L64,68.72l-.69-.39a1.09,1.09,0,0,0-.57-.13h-.07a3.31,3.31,0,0,1-.82-.08,2.2,2.2,0,0,1-.74-.29.79.79,0,0,1-.33-.64.44.44,0,0,1,0-.16.78.78,0,0,1,.21-.4.24.24,0,0,1,.26,0l.58.6.06.06a.19.19,0,0,0,.12,0,3.2,3.2,0,0,0,.71-.16,1,1,0,0,0,.21-.09,1.36,1.36,0,0,0,.24-.13.06.06,0,0,0,0-.08l-.66-.68s0,0,0,0,0,0,0,0a.27.27,0,0,1,.15,0h.05l.18,0h0c1,.14,1.59.58,1.49,1.2a.37.37,0,0,0,.22.38l4.93,2.85.69.4a1.17,1.17,0,0,0,.57.13h.08a2.89,2.89,0,0,1,1.55.36.79.79,0,0,1,.33.64h0a.82.82,0,0,1-.22.55.24.24,0,0,1-.27,0L71.66,72l-.13,0a2.61,2.61,0,0,0-1.16.37.08.08,0,0,0,0,.08l.25.25.09.09.13.14.2.2,0,0v0l0,0A.21.21,0,0,1,70.88,73.18Z"/><rect class="cls-6" x="58.98" y="58.48" width="20.62" height="2.06"/><ellipse class="cls-6" cx="69.29" cy="58.48" rx="10.31" ry="5.95"/><ellipse class="cls-6" cx="69.29" cy="60.55" rx="10.31" ry="5.95"/><path class="cls-6" d="M79.05,59.76v-1H59.53v1c0,1.45.95,2.89,2.86,4a15.25,15.25,0,0,0,13.8,0C78.1,62.65,79.05,61.21,79.05,59.76Z"/><ellipse class="cls-7" cx="69.29" cy="58.8" rx="9.76" ry="5.64"/><path class="cls-6" d="M77.82,59.24a4.53,4.53,0,0,1-2.47,3.06,13.41,13.41,0,0,1-12.12,0,4.53,4.53,0,0,1-2.47-3.06c-.22-1.41.61-2.86,2.47-3.94a13.41,13.41,0,0,1,12.12,0C77.21,56.38,78,57.83,77.82,59.24Z"/><path class="cls-8" d="M77.82,59.24a4.53,4.53,0,0,1-2.47,3.06,13.41,13.41,0,0,1-12.12,0,4.53,4.53,0,0,1-2.47-3.06,4.57,4.57,0,0,1,2.47-3.06,13.41,13.41,0,0,1,12.12,0A4.57,4.57,0,0,1,77.82,59.24Z"/><polygon class="cls-6" points="64.39 55.18 63.1 55.92 62.09 55.34 63.38 54.59 64.39 55.18"/><polygon class="cls-9" points="76.78 62.02 75.48 62.77 74.47 62.18 75.77 61.44 76.78 62.02"/><polygon class="cls-6" points="76.78 62.02 76.24 62.33 76.23 61.7 76.78 62.02"/><polygon class="cls-10" points="62.66 55.67 62.68 55.96 63.38 55.53 63.38 54.59 62.09 55.34 62.66 55.67"/><polygon class="cls-8" points="63.94 55.86 62.68 56.75 62.68 55.96 63.38 55.53 63.94 55.86"/><path class="cls-9" d="M77.82,59.24a4.53,4.53,0,0,1-2.47,3.06A10.91,10.91,0,0,1,72,63.49l-.09,0a14.43,14.43,0,0,1-3,.23A13.27,13.27,0,0,1,64.85,63l-.09,0c-.27-.1-.54-.21-.8-.33a5.13,5.13,0,0,1-.66-.34l-.07,0a6.06,6.06,0,0,1-1.82-1.55,4.08,4.08,0,0,1-.47-.83,3.42,3.42,0,0,1-.18-.68,4.1,4.1,0,0,1,1.86-2.66l.32-.22.29-.18c.24-.13.49-.26.75-.38a10.55,10.55,0,0,1,1.82-.63,14.41,14.41,0,0,1,6.66-.09,11,11,0,0,1,2.89,1.1A4.57,4.57,0,0,1,77.82,59.24Z"/><path class="cls-8" d="M95.43,63.11l-.12,0A5.55,5.55,0,0,0,93,59.5a15.82,15.82,0,0,0-13.34-2.22l-.52-.41-.62.26.06-.46-.7-.1-.17,1.28.43.06a5,5,0,0,0-2.44,2.44l-.12,0-.13,1h0c-.15,1.44.62,3,2.36,4.35a15.79,15.79,0,0,0,13.34,2.23l.52.4L93,67.73l.1-.76A4.32,4.32,0,0,0,95.29,64h0Z"/><path class="cls-10" d="M79.22,56l.52.41a15.82,15.82,0,0,1,13.34,2.22c3.38,2.63,3.11,6-.47,7.82l.51.4-1.37.56L91.23,67A15.82,15.82,0,0,1,77.89,64.8c-3.38-2.63-3.11-6,.47-7.82l-.52-.41Z"/><path class="cls-8" d="M92.11,59a6.71,6.71,0,0,1,1,.92,4.7,4.7,0,0,1,.7,1,3.41,3.41,0,0,1,.37,1.16c0,.06,0,.12,0,.18A3,3,0,0,1,94,63.5c0,.06-.05.11-.07.17a3.39,3.39,0,0,1-.67,1,4.82,4.82,0,0,1-1,.79,6.62,6.62,0,0,1-1.19.61,9.27,9.27,0,0,1-1.41.45,12.35,12.35,0,0,1-1.65.26,15.48,15.48,0,0,1-1.93,0l-.3,0a14.52,14.52,0,0,1-2.07-.29l-.29-.06a13.72,13.72,0,0,1-1.85-.57,11.06,11.06,0,0,1-1.52-.7,8.71,8.71,0,0,1-1.23-.81,6.71,6.71,0,0,1-1-.92,4.53,4.53,0,0,1-.7-1,3.53,3.53,0,0,1-.37-1.17c0-.06,0-.12,0-.17A3,3,0,0,1,77,59.9a1.22,1.22,0,0,1,.07-.17,3.52,3.52,0,0,1,.67-1,5,5,0,0,1,1-.79,6.73,6.73,0,0,1,1.2-.61,10.1,10.1,0,0,1,1.41-.45,12.36,12.36,0,0,1,1.65-.25,13.76,13.76,0,0,1,1.93,0l.29,0a16,16,0,0,1,2.08.29l.29.06a13.72,13.72,0,0,1,1.85.57,10.42,10.42,0,0,1,1.51.7A9.14,9.14,0,0,1,92.11,59Z"/><path class="cls-6" d="M91.53,59.42a.1.1,0,0,0,0-.18.39.39,0,0,0-.3,0l-1.1.45-.71-.56,1-.4c.09,0,.1-.11,0-.17a.32.32,0,0,0-.3,0l-1,.4-.71-.56.62-.25a.1.1,0,0,0,0-.18.4.4,0,0,0-.3,0l-.63.25-.85-.66a.32.32,0,0,0-.3,0l-1,.4-.85-.66a.32.32,0,0,0-.3,0l-1,.4-.52-.41a.32.32,0,0,0-.3,0c-.09,0-.1.11,0,.17l.53.41-.84.34-.83-.65a.32.32,0,0,0-.3,0c-.09,0-.1.11,0,.17l.84.65-.84.34-.93-.73a.39.39,0,0,0-.3,0,.1.1,0,0,0,0,.18l.94.72-.84.34-.84-.65a.32.32,0,0,0-.3,0c-.09,0-.1.11,0,.17l.83.65-.83.34L78.71,59a.32.32,0,0,0-.3,0c-.09,0-.1.11,0,.17l.53.41-1,.41c-.09,0-.1.11,0,.17l.85.67-1,.4c-.09,0-.1.11,0,.17l.85.67-.62.25c-.09,0-.1.11,0,.17a.32.32,0,0,0,.3,0l.62-.25.71.56-1,.4c-.09,0-.1.11,0,.17a.32.32,0,0,0,.3,0l1-.4.71.56-1.1.44a.1.1,0,0,0,0,.18.35.35,0,0,0,.3,0l1.1-.45.71.56-1,.4c-.09,0-.1.11,0,.17a.32.32,0,0,0,.3,0l1-.39.72.55-.62.25a.1.1,0,0,0,0,.18.35.35,0,0,0,.3,0l.62-.25.85.66a.32.32,0,0,0,.3,0l1-.4.85.66a.32.32,0,0,0,.3,0l1-.4.53.41a.32.32,0,0,0,.3,0c.09,0,.1-.11,0-.17l-.53-.41.83-.34.84.65a.32.32,0,0,0,.3,0c.09,0,.1-.11,0-.17l-.83-.65.84-.34.93.73a.35.35,0,0,0,.3,0c.09,0,.1-.12,0-.17l-.93-.73.84-.34.83.65a.32.32,0,0,0,.3,0c.09,0,.1-.11,0-.17l-.84-.65.84-.34.53.41a.32.32,0,0,0,.3,0c.09,0,.1-.11,0-.17l-.53-.41,1-.41c.09,0,.1-.11,0-.17l-.85-.66,1-.41c.09,0,.1-.11,0-.17l-.85-.67.62-.25c.09,0,.1-.11,0-.17a.32.32,0,0,0-.3,0l-.62.25-.72-.56,1-.39a.1.1,0,0,0,0-.18.32.32,0,0,0-.3,0l-1,.4-.72-.56Zm-1.7.36-.83.34-.72-.56.84-.34Zm-4.37,2.09.72.56-.84.34-.71-.56ZM84.35,62l-.71-.56.84-.34.71.56Zm1.44-.26.84-.34.71.56-.84.34Zm-.28-.21L84.8,61l.84-.34.71.56Zm-1-.77-.71-.56.84-.34.71.56Zm-.32.13-.84.34-.71-.56.84-.34ZM83,61.36l-.84.34-.71-.56.84-.34Zm.27.21.72.56-.84.34-.71-.56Zm1,.77.71.56-.83.34-.72-.56Zm1,.78.71.55-.83.34-.72-.56Zm.32-.14.84-.34.71.56-.83.34Zm1.17-.47.83-.34.72.56-.84.34ZM87.94,62l.84-.34.71.56-.84.34Zm-.28-.21L87,61.27l.84-.34.71.56Zm-1-.77L86,60.5l.84-.34.71.56Zm-1-.77L85,59.73l.84-.34.71.56Zm.45-1,.83-.34.71.56-.83.34ZM85.86,59l-.71-.55.83-.34.72.56Zm-.32.14-.84.33L84,59l.83-.34Zm-1.17.47-.83.34-.72-.56.84-.34Zm-1.16.47-.84.34-.71-.56.84-.34Zm-1.16.47-.84.34-.71-.56.84-.34Zm-1.16.47-.84.34-.71-.56.84-.34Zm.27.21.72.56-.84.34-.71-.56Zm1,.77.71.56-.83.34-.72-.56Zm1,.77.71.56-.83.34-.72-.56Zm1,.78.71.55-.84.34-.71-.56Zm1,.77.71.55-.84.34-.71-.55Zm.32-.13.84-.34.71.55-.84.34Zm1.16-.48.84-.33.71.55-.83.34Zm1.16-.47L88.6,63l.71.55-.83.34Zm1.17-.47.83-.33.72.55-.84.34Zm1.16-.47.83-.33.72.55-.84.34Zm-.28-.21-.71-.56.84-.34.71.56Zm-1-.77-.71-.56.84-.34.71.56Zm-1-.77L87.12,60l.84-.34.71.56Zm1-1.58-.84.34-.71-.56.83-.34Zm-1.7-1.33.71.56-.84.33L86.31,58ZM85,57.38l.71.56-.84.33-.71-.55Zm-1.16.47.71.55-.84.34L83,58.19Zm-1.17.47.72.55-.84.34-.71-.55Zm-1.16.47.71.56-.83.33-.72-.55Zm-1.16.47.71.56-.84.33-.71-.55Zm-2,.81.84-.34.71.56-.84.33Zm-.17,1.24L79,61l.72.56-.84.34Zm1,.77.84-.34.71.56-.83.34Zm1,.77.84-.34.71.56-.83.34Zm1,.77.84-.34.71.56-.84.34Zm1,.77.84-.33.71.55-.84.34Zm1.7,1.33-.71-.55.83-.34.72.55ZM86,66l-.71-.55.83-.34.72.55Zm1.16-.47L86.43,65l.84-.34.71.55Zm1.16-.47-.71-.55.84-.34.71.55Zm1.17-.47-.72-.55.84-.34.71.55Zm1.16-.47-.72-.55.84-.34.71.55Zm2-.81-.84.34-.71-.55.83-.34Zm.17-1.24-.84.34-.71-.56.84-.33Zm-1-.77-.84.34-.71-.56.84-.34Zm-1-.77-.83.34-.72-.56.84-.34Z"/><g class="cls-11"><polygon class="cls-12" points="77.88 27.77 7.68 68.19 6.39 67.29 76.98 27.25 77.88 27.77"/></g><polygon class="cls-13" points="76.98 3.39 76.98 27.25 77.88 27.77 77.88 3.91 76.98 3.39"/><polygon class="cls-14" points="78.72 3.43 78.72 27.29 77.88 27.77 77.88 3.91 78.72 3.43"/><polygon class="cls-15" points="77.82 2.91 76.98 3.39 77.88 3.91 78.72 3.42 77.82 2.91"/><polygon class="cls-16" points="77.89 9.72 74.62 11.61 73.46 12.28 71.7 13.29 70.54 13.96 68.78 14.98 67.62 15.65 65.86 16.66 64.7 17.32 62.94 18.34 61.78 19.01 60.02 20.03 58.86 20.7 57.1 21.71 55.95 22.38 54.19 23.39 54.18 23.39 53.02 24.06 51.27 25.08 50.11 25.74 48.35 26.76 47.19 27.43 45.42 28.45 44.27 29.11 44.27 29.11 42.51 30.13 41.35 30.79 39.59 31.81 38.43 32.48 36.67 33.49 35.51 34.16 33.75 35.18 32.6 35.84 32.59 35.84 30.84 36.86 30.83 36.86 29.68 37.53 27.91 38.54 26.75 39.21 24.99 40.23 23.84 40.9 22.08 41.91 20.92 42.58 19.16 43.59 19.15 43.59 18 44.26 16.24 45.28 15.08 45.95 13.32 46.96 12.16 47.63 10.4 48.65 9.24 49.31 9.24 49.31 6.97 50.62 6.96 48.42 10.27 46.51 11.42 45.85 13.18 44.83 14.35 44.16 16.11 43.14 17.26 42.48 17.26 42.48 19.02 41.46 20.18 40.8 21.95 39.78 23.1 39.12 24.86 38.1 26.02 37.43 27.78 36.41 28.93 35.75 28.94 35.75 30.7 34.73 30.71 34.73 31.86 34.06 33.62 33.05 34.77 32.38 36.54 31.36 37.69 30.7 39.46 29.68 40.61 29.01 40.62 29.01 42.37 28 42.38 28 43.53 27.33 43.53 27.33 45.3 26.31 46.45 25.65 48.22 24.62 49.37 23.96 49.38 23.96 51.13 22.95 52.29 22.28 54.05 21.26 54.05 21.26 55.21 20.59 56.97 19.58 58.13 18.91 59.89 17.9 61.05 17.23 62.81 16.21 63.97 15.54 65.73 14.53 66.89 13.86 68.64 12.85 69.8 12.18 71.56 11.16 72.72 10.49 74.48 9.48 75.64 8.81 77.88 7.52 77.89 9.72"/><polygon class="cls-17" points="75.64 8.81 74.62 11.61 73.46 12.28 74.48 9.48 75.64 8.81"/><polygon class="cls-17" points="72.72 10.49 71.7 13.29 70.54 13.96 71.56 11.16 72.72 10.49"/><polygon class="cls-17" points="69.8 12.18 68.78 14.98 67.62 15.65 68.64 12.85 69.8 12.18"/><polygon class="cls-17" points="66.89 13.86 65.86 16.66 64.7 17.32 65.73 14.53 66.89 13.86"/><polygon class="cls-17" points="63.97 15.54 62.94 18.34 61.78 19.01 62.81 16.21 63.97 15.54"/><polygon class="cls-17" points="61.05 17.23 60.02 20.03 58.86 20.7 59.89 17.89 61.05 17.23"/><polygon class="cls-17" points="58.13 18.91 57.1 21.71 55.95 22.38 56.97 19.58 58.13 18.91"/><polygon class="cls-17" points="55.21 20.59 54.19 23.39 54.18 23.39 53.02 24.06 54.05 21.26 54.05 21.26 55.21 20.59"/><polygon class="cls-17" points="52.29 22.28 51.27 25.08 50.11 25.74 51.13 22.95 52.29 22.28"/><polygon class="cls-17" points="49.37 23.96 48.35 26.76 47.19 27.43 48.22 24.62 49.37 23.96"/><polygon class="cls-17" points="46.45 25.65 45.42 28.45 44.27 29.11 45.3 26.31 46.45 25.65"/><polygon class="cls-17" points="43.53 27.33 42.51 30.13 41.35 30.79 42.37 28 42.38 28 43.53 27.33"/><polygon class="cls-17" points="40.61 29.01 39.59 31.81 38.43 32.48 39.46 29.68 40.61 29.01"/><polygon class="cls-17" points="37.69 30.7 36.67 33.49 35.51 34.16 36.54 31.36 37.69 30.7"/><polygon class="cls-17" points="34.77 32.38 33.75 35.18 32.6 35.84 33.62 33.05 34.77 32.38"/><polygon class="cls-17" points="31.86 34.06 30.84 36.86 30.83 36.86 29.68 37.53 30.7 34.73 30.71 34.73 31.86 34.06"/><polygon class="cls-17" points="28.93 35.75 27.91 38.54 26.75 39.21 27.78 36.41 28.93 35.75"/><polygon class="cls-17" points="26.02 37.43 24.99 40.23 23.84 40.9 24.86 38.1 26.02 37.43"/><polygon class="cls-17" points="23.1 39.12 22.08 41.91 20.92 42.58 21.95 39.78 23.1 39.12"/><polygon class="cls-17" points="20.18 40.8 19.16 43.59 19.15 43.59 18 44.26 19.02 41.46 20.18 40.8"/><polygon class="cls-17" points="17.26 42.48 16.24 45.28 15.08 45.95 16.11 43.14 17.26 42.48"/><polygon class="cls-17" points="14.35 44.16 13.32 46.96 12.16 47.63 13.18 44.83 14.35 44.16"/><polygon class="cls-17" points="11.42 45.85 10.4 48.65 9.24 49.31 10.27 46.51 11.42 45.85"/><polygon class="cls-13" points="5.95 44.29 5.95 68.15 6.84 68.67 6.84 44.81 5.95 44.29"/><polygon class="cls-15" points="6.78 43.81 5.95 44.29 6.84 44.81 7.68 44.33 6.78 43.81"/><polygon class="cls-14" points="7.68 44.33 7.68 68.19 6.84 68.67 6.84 44.81 7.68 44.33"/><g class="cls-11"><polygon class="cls-12" points="150.36 72.61 80.16 113.02 78.87 112.13 149.46 72.09 150.36 72.61"/></g><polygon class="cls-13" points="149.46 48.23 149.46 72.09 150.36 72.61 150.36 48.74 149.46 48.23"/><polygon class="cls-14" points="151.2 48.26 151.2 72.12 150.36 72.61 150.36 48.74 151.2 48.26"/><polygon class="cls-15" points="150.3 47.74 149.46 48.23 150.36 48.75 151.2 48.26 150.3 47.74"/><polygon class="cls-16" points="150.36 54.56 147.09 56.45 145.94 57.11 144.18 58.13 143.01 58.8 141.25 59.81 140.09 60.48 138.34 61.5 137.18 62.16 135.42 63.17 134.26 63.85 132.5 64.86 131.34 65.53 129.57 66.55 128.43 67.21 126.66 68.22 126.66 68.22 125.5 68.89 123.74 69.92 122.58 70.58 120.82 71.59 119.67 72.26 117.9 73.28 116.75 73.94 116.74 73.94 114.98 74.97 113.83 75.63 112.06 76.64 110.91 77.31 109.15 78.33 107.99 79 106.22 80.02 105.07 80.68 105.07 80.68 103.31 81.69 103.31 81.69 102.16 82.36 100.39 83.38 99.23 84.05 97.47 85.06 96.31 85.73 94.55 86.75 93.4 87.41 91.64 88.43 91.63 88.43 90.48 89.1 88.71 90.11 87.56 90.78 85.79 91.8 84.64 92.46 82.88 93.48 81.72 94.15 81.71 94.15 79.44 95.46 79.44 93.25 82.74 91.35 83.9 90.68 85.66 89.67 86.82 88.99 88.58 87.98 89.73 87.32 89.74 87.32 91.5 86.3 92.66 85.63 94.42 84.61 95.58 83.95 97.33 82.93 98.49 82.27 100.26 81.24 101.41 80.58 101.42 80.58 103.18 79.56 103.18 79.56 104.33 78.9 106.09 77.88 107.25 77.22 109.01 76.2 110.17 75.53 111.94 74.51 113.09 73.85 113.09 73.85 114.85 72.83 114.85 72.83 116 72.16 116.01 72.16 117.77 71.15 118.93 70.48 120.69 69.46 121.84 68.8 121.85 68.8 123.61 67.78 124.76 67.11 126.52 66.1 126.53 66.1 127.69 65.43 129.45 64.41 130.6 63.75 132.36 62.73 133.52 62.06 135.28 61.05 136.44 60.38 138.21 59.36 139.36 58.7 141.12 57.68 142.28 57.01 144.04 56 145.2 55.33 146.96 54.31 148.12 53.64 150.36 52.35 150.36 54.56"/><polygon class="cls-17" points="148.12 53.64 147.09 56.45 145.94 57.11 146.96 54.31 148.12 53.64"/><polygon class="cls-17" points="145.2 55.33 144.18 58.13 143.01 58.8 144.04 56 145.2 55.33"/><polygon class="cls-17" points="142.28 57.01 141.25 59.81 140.09 60.48 141.12 57.68 142.28 57.01"/><polygon class="cls-17" points="139.36 58.7 138.33 61.5 137.18 62.16 138.21 59.36 139.36 58.7"/><polygon class="cls-17" points="136.44 60.38 135.42 63.17 134.26 63.85 135.28 61.05 136.44 60.38"/><polygon class="cls-17" points="133.52 62.06 132.5 64.86 131.34 65.53 132.36 62.73 133.52 62.06"/><polygon class="cls-17" points="130.6 63.75 129.57 66.55 128.43 67.21 129.45 64.41 130.6 63.75"/><polygon class="cls-17" points="127.69 65.43 126.66 68.22 126.66 68.22 125.5 68.89 126.52 66.1 126.53 66.1 127.69 65.43"/><polygon class="cls-17" points="124.76 67.11 123.74 69.92 122.58 70.58 123.61 67.78 124.76 67.11"/><polygon class="cls-17" points="121.84 68.8 120.82 71.59 119.67 72.26 120.69 69.46 121.84 68.8"/><polygon class="cls-17" points="118.93 70.48 117.9 73.28 116.75 73.94 117.77 71.15 118.93 70.48"/><polygon class="cls-17" points="116 72.16 114.98 74.97 113.83 75.63 114.85 72.83 114.85 72.83 116 72.16"/><polygon class="cls-17" points="113.09 73.85 112.06 76.64 110.91 77.31 111.94 74.51 113.09 73.85"/><polygon class="cls-17" points="110.17 75.53 109.15 78.33 107.99 79 109.01 76.2 110.17 75.53"/><polygon class="cls-17" points="107.25 77.22 106.22 80.02 105.07 80.68 106.09 77.88 107.25 77.22"/><polygon class="cls-17" points="104.33 78.9 103.31 81.69 103.31 81.69 102.16 82.36 103.18 79.56 103.18 79.56 104.33 78.9"/><polygon class="cls-17" points="101.41 80.58 100.39 83.38 99.23 84.05 100.26 81.24 101.41 80.58"/><polygon class="cls-17" points="98.49 82.27 97.47 85.06 96.31 85.73 97.33 82.93 98.49 82.27"/><polygon class="cls-17" points="95.57 83.95 94.55 86.75 93.4 87.41 94.42 84.61 95.57 83.95"/><polygon class="cls-17" points="92.66 85.63 91.64 88.43 91.63 88.43 90.48 89.1 91.5 86.3 92.66 85.63"/><polygon class="cls-17" points="89.73 87.32 88.71 90.11 87.56 90.78 88.58 87.98 89.73 87.32"/><polygon class="cls-17" points="86.82 88.99 85.79 91.8 84.64 92.46 85.66 89.67 86.82 88.99"/><polygon class="cls-17" points="83.9 90.68 82.88 93.48 81.72 94.15 82.74 91.35 83.9 90.68"/><polygon class="cls-13" points="78.42 89.13 78.42 112.99 79.32 113.51 79.32 89.64 78.42 89.13"/><polygon class="cls-15" points="79.26 88.64 78.42 89.13 79.32 89.65 80.16 89.16 79.26 88.64"/><polygon class="cls-14" points="80.16 89.16 80.16 113.02 79.32 113.51 79.32 89.64 80.16 89.16"/><g class="cls-11"><polygon class="cls-12" points="0.84 74.18 71.04 114.59 72.33 113.7 1.74 73.66 0.84 74.18"/></g><polygon class="cls-13" points="1.74 49.8 1.74 73.66 0.84 74.18 0.84 50.32 1.74 49.8"/><polygon class="cls-14" points="0 49.83 0 73.7 0.84 74.18 0.84 50.32 0 49.83"/><polygon class="cls-15" points="0.9 49.31 1.74 49.8 0.84 50.32 0 49.83 0.9 49.31"/><polygon class="cls-16" points="0.83 56.13 4.11 58.02 5.26 58.69 7.02 59.7 8.19 60.37 9.95 61.39 11.1 62.05 12.86 63.07 14.02 63.73 15.78 64.75 16.94 65.42 18.7 66.44 19.86 67.11 21.62 68.12 22.77 68.78 24.53 69.8 24.54 69.8 25.7 70.47 27.46 71.49 28.61 72.15 30.38 73.17 31.53 73.83 33.3 74.86 34.45 75.52 34.46 75.52 36.22 76.54 37.37 77.2 39.13 78.22 40.29 78.88 42.05 79.9 43.21 80.57 44.98 81.59 46.13 82.25 46.13 82.25 47.89 83.27 47.89 83.27 49.04 83.94 50.81 84.95 51.97 85.62 53.73 86.63 54.88 87.3 56.65 88.32 57.8 88.99 59.56 90 59.57 90 60.72 90.67 62.49 91.69 63.64 92.35 65.4 93.37 66.56 94.04 68.32 95.05 69.48 95.72 69.48 95.72 71.75 97.03 71.76 94.83 68.46 92.92 67.3 92.26 65.54 91.24 64.38 90.57 62.62 89.55 61.47 88.89 61.46 88.89 59.7 87.87 58.54 87.21 56.77 86.18 55.62 85.52 53.86 84.51 52.71 83.84 50.94 82.82 49.79 82.16 49.78 82.16 48.02 81.13 48.02 81.13 46.87 80.47 45.1 79.46 43.95 78.79 42.19 77.77 41.03 77.1 39.26 76.08 38.11 75.42 38.11 75.42 36.35 74.41 36.34 74.41 35.2 73.74 35.19 73.74 33.43 72.72 32.27 72.05 30.5 71.03 29.35 70.37 29.35 70.37 27.59 69.35 26.44 68.69 24.68 67.67 24.67 67.67 23.51 67 21.75 65.99 20.59 65.32 18.83 64.3 17.68 63.63 15.92 62.62 14.75 61.95 12.99 60.94 11.84 60.27 10.08 59.25 8.92 58.58 7.16 57.57 6 56.9 4.24 55.88 3.08 55.22 0.84 53.92 0.83 56.13"/><polygon class="cls-17" points="3.08 55.22 4.11 58.02 5.26 58.69 4.24 55.88 3.08 55.22"/><polygon class="cls-17" points="6 56.9 7.02 59.7 8.19 60.37 7.16 57.57 6 56.9"/><polygon class="cls-17" points="8.92 58.58 9.95 61.39 11.1 62.05 10.08 59.25 8.92 58.58"/><polygon class="cls-17" points="11.84 60.27 12.86 63.07 14.02 63.73 12.99 60.94 11.84 60.27"/><polygon class="cls-17" points="14.75 61.95 15.78 64.75 16.94 65.42 15.92 62.62 14.75 61.95"/><polygon class="cls-17" points="17.68 63.63 18.7 66.44 19.86 67.11 18.83 64.3 17.68 63.63"/><polygon class="cls-17" points="20.59 65.32 21.62 68.12 22.77 68.78 21.75 65.99 20.59 65.32"/><polygon class="cls-17" points="23.51 67 24.53 69.8 24.54 69.8 25.7 70.47 24.68 67.67 24.67 67.67 23.51 67"/><polygon class="cls-17" points="26.44 68.69 27.46 71.49 28.61 72.15 27.59 69.35 26.44 68.69"/><polygon class="cls-17" points="29.35 70.37 30.38 73.17 31.53 73.83 30.5 71.03 29.35 70.37"/><polygon class="cls-17" points="32.27 72.05 33.3 74.86 34.45 75.52 33.43 72.72 32.27 72.05"/><polygon class="cls-17" points="35.2 73.74 36.22 76.54 37.37 77.2 36.35 74.41 36.34 74.41 35.2 73.74"/><polygon class="cls-17" points="38.11 75.42 39.13 78.22 40.29 78.88 39.26 76.08 38.11 75.42"/><polygon class="cls-17" points="41.03 77.1 42.05 79.9 43.21 80.57 42.19 77.77 41.03 77.1"/><polygon class="cls-17" points="43.95 78.79 44.98 81.59 46.13 82.25 45.1 79.46 43.95 78.79"/><polygon class="cls-17" points="46.87 80.47 47.89 83.27 47.89 83.27 49.04 83.94 48.02 81.13 48.02 81.13 46.87 80.47"/><polygon class="cls-17" points="49.79 82.16 50.81 84.95 51.97 85.62 50.94 82.82 49.79 82.16"/><polygon class="cls-17" points="52.71 83.84 53.73 86.63 54.88 87.3 53.86 84.51 52.71 83.84"/><polygon class="cls-17" points="55.62 85.52 56.65 88.32 57.8 88.99 56.77 86.18 55.62 85.52"/><polygon class="cls-17" points="58.54 87.21 59.56 90 59.57 90 60.72 90.67 59.7 87.87 58.54 87.21"/><polygon class="cls-17" points="61.47 88.89 62.49 91.69 63.64 92.35 62.62 89.55 61.47 88.89"/><polygon class="cls-17" points="64.38 90.57 65.41 93.37 66.56 94.04 65.54 91.24 64.38 90.57"/><polygon class="cls-17" points="67.3 92.26 68.32 95.05 69.48 95.72 68.46 92.92 67.3 92.26"/><polygon class="cls-13" points="72.78 90.7 72.78 114.56 71.88 115.08 71.88 91.22 72.78 90.7"/><polygon class="cls-15" points="71.94 90.22 72.78 90.7 71.88 91.22 71.04 90.73 71.94 90.22"/><polygon class="cls-14" points="71.04 90.73 71.04 114.59 71.88 115.08 71.88 91.22 71.04 90.73"/><g class="cls-11"><polygon class="cls-12" points="85.77 24.87 155.97 65.28 157.26 64.39 86.67 24.35 85.77 24.87"/></g><polygon class="cls-13" points="86.67 0.48 86.67 24.35 85.77 24.87 85.77 1 86.67 0.48"/><polygon class="cls-14" points="84.93 0.52 84.93 24.38 85.77 24.87 85.77 1 84.93 0.52"/><polygon class="cls-15" points="85.83 0 86.67 0.49 85.77 1 84.93 0.52 85.83 0"/><polygon class="cls-16" points="85.76 6.82 89.03 8.71 90.19 9.37 91.95 10.39 93.11 11.06 94.88 12.07 96.03 12.74 97.79 13.76 98.95 14.42 100.71 15.43 101.87 16.11 103.63 17.12 104.79 17.79 106.55 18.81 107.7 19.47 109.46 20.48 109.47 20.48 110.63 21.15 112.39 22.17 113.54 22.84 115.3 23.85 116.46 24.52 118.23 25.54 119.38 26.2 119.39 26.2 121.15 27.23 122.3 27.89 124.06 28.9 125.22 29.57 126.98 30.59 128.14 31.25 129.9 32.28 131.06 32.94 131.06 32.94 132.82 33.95 132.82 33.95 133.97 34.62 135.74 35.64 136.9 36.31 138.66 37.32 139.81 37.99 141.57 39 142.73 39.67 144.49 40.69 144.5 40.69 145.65 41.36 147.42 42.37 148.57 43.04 150.33 44.06 151.49 44.72 153.25 45.74 154.41 46.41 154.41 46.41 156.68 47.72 156.69 45.51 153.39 43.61 152.23 42.94 150.47 41.93 149.31 41.25 147.54 40.24 146.39 39.58 146.39 39.58 144.63 38.55 143.47 37.89 141.7 36.87 140.55 36.21 138.79 35.19 137.63 34.52 135.87 33.5 134.72 32.84 134.71 32.84 132.95 31.82 132.94 31.82 131.79 31.16 130.03 30.14 128.88 29.48 127.12 28.46 125.96 27.79 124.19 26.77 123.04 26.11 123.03 26.11 121.28 25.09 121.27 25.09 120.12 24.42 120.12 24.42 118.36 23.41 117.2 22.74 115.43 21.72 114.28 21.06 114.28 21.06 112.52 20.04 111.36 19.37 109.61 18.36 109.6 18.36 108.44 17.69 106.68 16.67 105.52 16 103.76 14.99 102.61 14.32 100.84 13.31 99.68 12.64 97.92 11.62 96.77 10.95 95.01 9.94 93.85 9.27 92.09 8.26 90.93 7.59 89.17 6.57 88.01 5.9 85.77 4.61 85.76 6.82"/><polygon class="cls-17" points="88.01 5.9 89.03 8.71 90.19 9.37 89.17 6.57 88.01 5.9"/><polygon class="cls-17" points="90.93 7.59 91.95 10.39 93.11 11.06 92.09 8.26 90.93 7.59"/><polygon class="cls-17" points="93.85 9.27 94.88 12.07 96.03 12.74 95.01 9.94 93.85 9.27"/><polygon class="cls-17" points="96.77 10.95 97.79 13.76 98.95 14.42 97.92 11.62 96.77 10.95"/><polygon class="cls-17" points="99.68 12.64 100.71 15.43 101.87 16.11 100.85 13.31 99.68 12.64"/><polygon class="cls-17" points="102.61 14.32 103.63 17.12 104.79 17.79 103.76 14.99 102.61 14.32"/><polygon class="cls-17" points="105.52 16 106.55 18.81 107.7 19.47 106.68 16.67 105.52 16"/><polygon class="cls-17" points="108.44 17.69 109.46 20.48 109.47 20.48 110.63 21.15 109.61 18.36 109.6 18.36 108.44 17.69"/><polygon class="cls-17" points="111.36 19.37 112.39 22.17 113.54 22.84 112.52 20.04 111.36 19.37"/><polygon class="cls-17" points="114.28 21.06 115.3 23.85 116.46 24.52 115.43 21.72 114.28 21.06"/><polygon class="cls-17" points="117.2 22.74 118.23 25.54 119.38 26.2 118.36 23.41 117.2 22.74"/><polygon class="cls-17" points="120.12 24.42 121.15 27.23 122.3 27.89 121.28 25.09 121.27 25.09 120.12 24.42"/><polygon class="cls-17" points="123.04 26.11 124.06 28.9 125.22 29.57 124.19 26.77 123.04 26.11"/><polygon class="cls-17" points="125.96 27.79 126.98 30.59 128.14 31.25 127.12 28.46 125.96 27.79"/><polygon class="cls-17" points="128.88 29.48 129.91 32.28 131.06 32.94 130.03 30.14 128.88 29.48"/><polygon class="cls-17" points="131.79 31.16 132.82 33.95 132.82 33.95 133.97 34.62 132.95 31.82 132.94 31.82 131.79 31.16"/><polygon class="cls-17" points="134.72 32.84 135.74 35.64 136.9 36.31 135.87 33.5 134.72 32.84"/><polygon class="cls-17" points="137.63 34.53 138.66 37.32 139.81 37.99 138.79 35.19 137.63 34.53"/><polygon class="cls-17" points="140.55 36.21 141.57 39 142.73 39.67 141.7 36.87 140.55 36.21"/><polygon class="cls-17" points="143.47 37.89 144.49 40.69 144.5 40.69 145.65 41.36 144.63 38.55 143.47 37.89"/><polygon class="cls-17" points="146.39 39.58 147.42 42.37 148.57 43.04 147.54 40.24 146.39 39.58"/><polygon class="cls-17" points="149.31 41.25 150.33 44.06 151.49 44.72 150.47 41.93 149.31 41.25"/><polygon class="cls-17" points="152.23 42.94 153.25 45.74 154.41 46.41 153.39 43.61 152.23 42.94"/><polygon class="cls-13" points="157.71 41.38 157.71 65.25 156.81 65.77 156.81 41.9 157.71 41.38"/><polygon class="cls-15" points="156.87 40.9 157.71 41.39 156.81 41.91 155.97 41.42 156.87 40.9"/><polygon class="cls-14" points="155.97 41.42 155.97 65.28 156.81 65.77 156.81 41.9 155.97 41.42"/><ellipse class="cls-12" cx="84.41" cy="44.06" rx="7.79" ry="3.63"/><g class="cls-18"><path class="cls-19" d="M82.53,19.38A5.26,5.26,0,0,1,82.4,21c-.21.72-.44,1.44-.5,1.62s-.32,1-.55,1.7c-.1.28-.18.55-.25.78a4.71,4.71,0,0,0-.13.56v.06a1.61,1.61,0,0,0,.29.81,2.67,2.67,0,0,1,.11.9c0,.22.13.91.13.91v.23l.07.16-.07.17-.16,0,0,.1-.38,0a5,5,0,0,1-.62-.33,6.12,6.12,0,0,1-.51-1.17c0-.07.15-1.14.21-1.51a6.83,6.83,0,0,0,0-.79c0-1.06.09-2.86.09-3.63a7.44,7.44,0,0,1,.2-1.59c.1-.47.23-.88.29-1.12a12.07,12.07,0,0,0,.16-1.92s1.32-.53,1.61-.29.17,2.28.13,2.75"/><path class="cls-20" d="M79.8,16.27c0,.08,0,.16,0,.24s0,.08,0,.12c.08.82.34,1.6.42,2.43a7.61,7.61,0,0,1-.15,2.07s0,.05,0,.08l0,.15c0,.25-.1.5-.13.76a2.22,2.22,0,0,0,0,.37c0,.4.34.35.65.36h.13a2.81,2.81,0,0,0,.71-.07,1.45,1.45,0,0,0,1-.62,1.34,1.34,0,0,0,.13-.4c.09-.49.17-1,.23-1.47A10.33,10.33,0,0,0,82.83,19c0-.47,0-.93,0-1.39s0-1-.08-1.53c0-.16,0-.32,0-.48a11.05,11.05,0,0,0-.42-2.12,5.25,5.25,0,0,0-.42-1c-.15-.26-.24-.57-.59-.63h-.32a1.13,1.13,0,0,0-.71.53,3.33,3.33,0,0,0-.5,1.39h0v.12a.37.37,0,0,0,0,.11c0,.76.07,1.55.09,2.31"/><path class="cls-21" d="M80,21.55a1.45,1.45,0,0,0,0,.62c.06.26.35.44.56.58l.16.1a2.81,2.81,0,0,0,.71-.07,1.45,1.45,0,0,0,1-.62,1.34,1.34,0,0,0,.13-.4c.09-.49.17-1,.23-1.47A10.33,10.33,0,0,0,82.83,19c0-.47,0-.93,0-1.39s0-1-.08-1.53c0-.16,0-.32,0-.48a11.05,11.05,0,0,0-.42-2.12,5.25,5.25,0,0,0-.42-1c-.15-.26-.24-.57-.59-.63H81a1.23,1.23,0,0,1,.3.46,12.59,12.59,0,0,1,.87,3.53.48.48,0,0,1-.09.42.51.51,0,0,1-.31.13l-.41.06.6.25c-.08,0-.07.16,0,.23s.13.12.19.19a.21.21,0,0,1,.06.23c-.08.16-.34,0-.49.13a1.78,1.78,0,0,0,.38.28,1,1,0,0,1,.32.87c-.07.34-.54.27-.84.31l.55.45c.28.26.18.47.16.82s0,.61-.4.58a.61.61,0,0,1-.43,1.06,1.17,1.17,0,0,1-.81-.36A3.59,3.59,0,0,0,80.2,21a0,0,0,0,0,0,0s0,0-.05.05a4,4,0,0,0-.14.48"/><path class="cls-21" d="M79.8,16.27c0,.08,0,.16,0,.24s0,.08,0,.12c.08.82.34,1.6.42,2.43a7.61,7.61,0,0,1-.15,2.07,3.39,3.39,0,0,0,.17-.84,4.48,4.48,0,0,1,.1-.81.38.38,0,0,1,.15-.22,1.28,1.28,0,0,1,.35-.08,1.16,1.16,0,0,1,.38-.06,1.11,1.11,0,0,1-.63-.26c-.09-.07-.33-.29-.18-.41a.44.44,0,0,1,.23-.06h.18a1.45,1.45,0,0,1-.74-.83,1.33,1.33,0,0,1-.11-.63c0-.19.2-.28.36-.35a.83.83,0,0,0,.45-.27,1.63,1.63,0,0,1-.82,0l.19-.38s0,0,0,0-.2,0-.2-.11c.27-.22.72-.07,1-.27a1.15,1.15,0,0,1-.69,0,1.11,1.11,0,0,1-.49-.81,2.84,2.84,0,0,1-.11-.71c0,.76.07,1.55.09,2.31"/><path class="cls-22" d="M80,21.12,80.1,21a1.47,1.47,0,0,0,.38.62,1.58,1.58,0,0,0,.61.3,1.28,1.28,0,0,0,.9-.12,1.1,1.1,0,0,0,.46-.42,1.36,1.36,0,0,0,.11-.28,1.35,1.35,0,0,1,.17.72,2,2,0,0,1-.11.77.7.7,0,0,1-.14.27,1,1,0,0,1-.47.26,3.6,3.6,0,0,1-1.92-.19.47.47,0,0,1-.12-.07.61.61,0,0,1-.17-.48,3.45,3.45,0,0,1,0-.72,1.45,1.45,0,0,1,.19-.54"/></g><g class="cls-23"><path class="cls-19" d="M82.53,19.38A5.75,5.75,0,0,1,82.39,21c-.21.72-.44,1.44-.49,1.62s-.32,1-.56,1.7c-.09.28-.18.55-.24.78a2.51,2.51,0,0,0-.13.56.13.13,0,0,0,0,.06,1.71,1.71,0,0,0,.29.81,2.44,2.44,0,0,1,.11.9c0,.22.13.91.13.91v.23l.06.16-.06.17-.17,0,0,.1-.39,0a5.8,5.8,0,0,1-.62-.33,6,6,0,0,1-.5-1.17c0-.07.15-1.14.21-1.51,0-.1,0-.4,0-.79,0-1.06.09-2.86.08-3.63a7.44,7.44,0,0,1,.2-1.59c.11-.47.23-.88.3-1.12a13,13,0,0,0,.15-1.92s1.32-.53,1.62-.29.16,2.28.13,2.75"/><path class="cls-24" d="M80.71,26.05a3,3,0,0,1-.06-.32.64.64,0,0,0-.14-.3h0s0,0,0,0a.33.33,0,0,0-.11.19,1.33,1.33,0,0,0,.07.48.72.72,0,0,1,0,.48.73.73,0,0,1-.21.22.48.48,0,0,0-.09.11.38.38,0,0,0,0,.15l0,.29a.77.77,0,0,0,0,.15c0,.06,0,.12,0,.18.1.27.19.55.31.82l0,.07a.08.08,0,0,0,.08,0c.05,0,0-.1,0-.15a2,2,0,0,1-.17-.62.85.85,0,0,1,.21-.71.16.16,0,0,1,.17,0s.06.1.08.15a1.63,1.63,0,0,0,.11.17.6.6,0,0,1,.06.19c0,.16.09.32.14.48a.3.3,0,0,0,0,.1.1.1,0,0,0,.09,0,.12.12,0,0,0,0-.11,3.17,3.17,0,0,0-.07-.81c0-.12,0-.25,0-.36a1.21,1.21,0,0,0-.09-.34c-.09-.19-.27-.32-.34-.52"/><path class="cls-25" d="M80.55,27.36s0,.25-.06.45a1.62,1.62,0,0,0,0,.33l.2.36s.21.16.27.19l.26.15s-.25-.24-.27-.39,0-.3,0-.3a4,4,0,0,0-.06-.51l-.06-.11Z"/><path class="cls-20" d="M79.8,16.27a1.93,1.93,0,0,0,0,.24.49.49,0,0,0,0,.12c.07.82.33,1.6.42,2.43a8,8,0,0,1-.15,2.07s0,.05,0,.08a.77.77,0,0,1,0,.15c0,.25-.11.5-.14.76a2.23,2.23,0,0,0,0,.37c0,.4.34.35.65.36h.13a2.85,2.85,0,0,0,.71-.07,1.43,1.43,0,0,0,.94-.62.94.94,0,0,0,.13-.4q.15-.74.24-1.47A10.29,10.29,0,0,0,82.82,19c0-.47,0-.93,0-1.39s0-1-.08-1.53c0-.16,0-.32,0-.48a11.87,11.87,0,0,0-.42-2.12,6,6,0,0,0-.42-1c-.15-.26-.25-.57-.59-.63h-.33a1.19,1.19,0,0,0-.71.53,3.18,3.18,0,0,0-.49,1.39h0s0,.08,0,.12V14a22.3,22.3,0,0,0,.09,2.31"/><path class="cls-21" d="M80,21.55a1.45,1.45,0,0,0,0,.62c.07.26.36.44.57.58l.16.1a2.85,2.85,0,0,0,.71-.07,1.43,1.43,0,0,0,.94-.62.94.94,0,0,0,.13-.4q.15-.74.24-1.47A10.29,10.29,0,0,0,82.82,19c0-.47,0-.93,0-1.39s0-1-.08-1.53c0-.16,0-.32,0-.48a11.87,11.87,0,0,0-.42-2.12,6,6,0,0,0-.42-1c-.15-.26-.25-.57-.59-.63H81a1.25,1.25,0,0,1,.31.46,12.59,12.59,0,0,1,.87,3.53.55.55,0,0,1-.09.42.51.51,0,0,1-.32.13l-.4.06.6.25a.16.16,0,0,0,0,.23c0,.08.13.12.19.19s.11.16.07.23-.35,0-.49.13a1.5,1.5,0,0,0,.37.28,1,1,0,0,1,.32.87c-.06.34-.53.27-.84.31l.55.45c.28.26.18.47.16.82s0,.61-.4.58a.6.6,0,0,1-.42,1.06,1.13,1.13,0,0,1-.81-.36c-.14-.13-.25-.28-.39-.39s0,0-.06,0,0,0,0,.05a2.09,2.09,0,0,0-.14.48"/><path class="cls-21" d="M79.8,16.27a1.93,1.93,0,0,0,0,.24.49.49,0,0,0,0,.12c.07.82.33,1.6.42,2.43a8,8,0,0,1-.15,2.07,3.9,3.9,0,0,0,.16-.84,5.63,5.63,0,0,1,.11-.81.37.37,0,0,1,.14-.22,1.37,1.37,0,0,1,.35-.08,1.26,1.26,0,0,1,.38-.06,1.11,1.11,0,0,1-.63-.26c-.08-.07-.32-.29-.18-.41a.48.48,0,0,1,.24-.06h.17a1.43,1.43,0,0,1-.73-.83,1.23,1.23,0,0,1-.12-.63c0-.19.2-.28.37-.35a.8.8,0,0,0,.44-.27,1.59,1.59,0,0,1-.81,0c.06-.13.12-.25.19-.38v0c0-.09-.2,0-.21-.11.28-.22.72-.07,1-.27a.87.87,0,0,1-1.18-.84,3.38,3.38,0,0,1-.1-.71,22.3,22.3,0,0,0,.09,2.31"/><path class="cls-22" d="M80,21.12l.1-.12a1.3,1.3,0,0,0,.38.62,1.46,1.46,0,0,0,.61.3,1.28,1.28,0,0,0,.9-.12,1.13,1.13,0,0,0,.45-.42,1,1,0,0,0,.12-.28,1.45,1.45,0,0,1,.17.72,2.25,2.25,0,0,1-.11.77.89.89,0,0,1-.15.27.92.92,0,0,1-.46.26,3.63,3.63,0,0,1-1.93-.19L80,22.86a.69.69,0,0,1-.17-.48,3.45,3.45,0,0,1,0-.72,1.44,1.44,0,0,1,.18-.54"/></g><g class="cls-26"><path class="cls-16" d="M82.35,41a1.28,1.28,0,0,1-.57,1.07c-.58.35-1.61,1.16-1.61,1.16a1.77,1.77,0,0,0-.24,1,.84.84,0,0,0,.3.42c.48.4,1.42.09,1.82-.3a6.58,6.58,0,0,1,.93-.82,7.05,7.05,0,0,1,1.1-.45.63.63,0,0,0,.44-.51,1,1,0,0,0-.08-.56.61.61,0,0,0-.28-.29l-.37-.25-.55-.36Z"/><path class="cls-27" d="M84.26,42.57c-.07.21-.55.34-.72.41a4.28,4.28,0,0,1-.43.14,1.91,1.91,0,0,0-.51.37,6.6,6.6,0,0,0-.55.49,2.13,2.13,0,0,1-1.15.47.71.71,0,0,1-.55-.07,1,1,0,0,1-.43-.53.81.81,0,0,1,0-.16,1.64,1.64,0,0,1,0-.22,1.5,1.5,0,0,1,.57-.86c.36-.27.91-.69,1.28-.91a1.3,1.3,0,0,0,.57-1.07l.88.11.76.5.33.21a7.06,7.06,0,0,1-.06,1.12"/><path class="cls-28" d="M84.26,42.57c-.07.21-.55.34-.72.41a4.28,4.28,0,0,1-.43.14,1.91,1.91,0,0,0-.51.37,6.6,6.6,0,0,0-.55.49,2.13,2.13,0,0,1-1.15.47.71.71,0,0,1-.55-.07,1,1,0,0,1-.43-.53.81.81,0,0,1,0-.16c.2,0,.39.11.59.15a1.52,1.52,0,0,0,1.24-.28c.15-.11.27-.25.42-.36a4.53,4.53,0,0,1,.72-.39,1.88,1.88,0,0,0,.69-.45.8.8,0,0,0,.22-.76.31.31,0,0,1,.2-.36l.33.21a7.06,7.06,0,0,1-.06,1.12"/><path class="cls-29" d="M80.72,25.82a.59.59,0,0,1,.16-.27h0a.31.31,0,0,1,.11-.09c.88-.58,3.25.15,3.56,1.27,0,.06,0,.13,0,.22a5.44,5.44,0,0,1,0,1.8,17.48,17.48,0,0,0-.2,4.1c.06,1,.14,2.74.22,3.64a36.22,36.22,0,0,1-.09,4.66c-.06.41-.11.69-.11.69l-.08,0a3.59,3.59,0,0,1-.6.19,2.28,2.28,0,0,1-.64,0c-.55-.06-1.16-.23-1.32-.83a2.9,2.9,0,0,1,0-.78,37.62,37.62,0,0,0-.22-4c-.13-.72-.37-1.41-.47-2.13-.22-1.6-.36-4-.49-5.59l0-.36,0-.68A6.09,6.09,0,0,1,80.72,25.82Z"/><path class="cls-30" d="M82.88,34.81a.78.78,0,0,0,.17-.26A4.82,4.82,0,0,0,82.7,32a9.82,9.82,0,0,1-.55-1.77c0-.11-.21-1.24-.1-1.27s0-2.64.94-3.54a2.34,2.34,0,0,1,1.57,1.27c0,.06,0,.13,0,.22a5.44,5.44,0,0,1,0,1.8,17.48,17.48,0,0,0-.2,4.1c.08,1.25.18,3.15.26,4.22,0,.46,0,3,0,3.43h0l-.06.47h0c-.06.37-.1.66-.12.79h0a.35.35,0,0,1-.06.09h0l-.06,0c-.14,0-.25-.38-.27-.54-.07-.77-.17-3.59-.28-4.35-.07-.51,0-1.42-.68-1.55a1.89,1.89,0,0,0-.67,0,1.2,1.2,0,0,1-.65,0A1.84,1.84,0,0,0,82.88,34.81Z"/><path class="cls-31" d="M80.72,25.82a.59.59,0,0,1,.16-.27h0a.31.31,0,0,1,.11-.09,2.52,2.52,0,0,1,2,0h0l.22.08.06,0,.23.11h0l.22.13h0l.18.12s0,0,0,0a.64.64,0,0,1,.15.13.1.1,0,0,1,0,0,1.59,1.59,0,0,1,.28.36h0a1.8,1.8,0,0,1,.08.21c0,.06,0,.13,0,.22a5.44,5.44,0,0,1,0,1.8,17.48,17.48,0,0,0-.2,4.1c.08,1.25.18,3.15.26,4.22,0,.46,0,3,0,3.43h0l-.06.47h0l0,.16h0c-.06.41-.11.69-.11.69l0,0h0l-.06,0h0a4.09,4.09,0,0,1-.54.16,2.28,2.28,0,0,1-.64,0c-.55-.06-1.16-.23-1.32-.83a2.9,2.9,0,0,1,0-.78,37.62,37.62,0,0,0-.22-4c-.13-.72-.37-1.41-.47-2.13-.22-1.6-.36-4-.49-5.59l0-.36,0-.68A6.09,6.09,0,0,1,80.72,25.82Z"/></g><g class="cls-32"><path class="cls-29" d="M80.72,25.82a.59.59,0,0,1,.16-.27h0a.31.31,0,0,1,.11-.09c.88-.58,3.25.15,3.56,1.27,0,.06,0,.13,0,.22a5.44,5.44,0,0,1,0,1.8,17.48,17.48,0,0,0-.2,4.1c.06,1,.14,2.74.22,3.64a36.22,36.22,0,0,1-.09,4.66c-.06.41-.11.69-.11.69l-.08,0a3.59,3.59,0,0,1-.6.19,2.28,2.28,0,0,1-.64,0c-.55-.06-1.16-.23-1.32-.83a2.9,2.9,0,0,1,0-.78,37.62,37.62,0,0,0-.22-4c-.13-.72-.37-1.41-.47-2.13-.22-1.6-.36-4-.49-5.59l0-.36,0-.68A6.09,6.09,0,0,1,80.72,25.82Z"/><path class="cls-30" d="M82.88,34.81a.78.78,0,0,0,.17-.26A4.82,4.82,0,0,0,82.7,32a9.82,9.82,0,0,1-.55-1.77c0-.11-.21-1.24-.1-1.27s0-2.64.94-3.54a2.34,2.34,0,0,1,1.57,1.27c0,.06,0,.13,0,.22a5.44,5.44,0,0,1,0,1.8,17.48,17.48,0,0,0-.2,4.1c.08,1.25.18,3.15.26,4.22,0,.46,0,3,0,3.43h0l-.06.47h0c-.06.37-.1.66-.12.79h0a.35.35,0,0,1-.06.09h0l-.06,0c-.14,0-.25-.38-.27-.54-.07-.77-.17-3.59-.28-4.35-.07-.51,0-1.42-.68-1.55a1.89,1.89,0,0,0-.67,0,1.2,1.2,0,0,1-.65,0A1.84,1.84,0,0,0,82.88,34.81Z"/><path class="cls-31" d="M80.72,25.82a.59.59,0,0,1,.16-.27h0a.31.31,0,0,1,.11-.09,2.52,2.52,0,0,1,2,0h0l.22.08.06,0,.23.11h0l.22.13h0l.18.12s0,0,0,0a.64.64,0,0,1,.15.13.1.1,0,0,1,0,0,1.59,1.59,0,0,1,.28.36h0a1.8,1.8,0,0,1,.08.21c0,.06,0,.13,0,.22a5.44,5.44,0,0,1,0,1.8,17.48,17.48,0,0,0-.2,4.1c.08,1.25.18,3.15.26,4.22,0,.46,0,3,0,3.43h0l-.06.47h0l0,.16h0c-.06.41-.11.69-.11.69l0,0h0l-.06,0h0a4.09,4.09,0,0,1-.54.16,2.28,2.28,0,0,1-.64,0c-.55-.06-1.16-.23-1.32-.83a2.9,2.9,0,0,1,0-.78,37.62,37.62,0,0,0-.22-4c-.13-.72-.37-1.41-.47-2.13-.22-1.6-.36-4-.49-5.59l0-.36,0-.68A6.09,6.09,0,0,1,80.72,25.82Z"/></g><g class="cls-33"><path class="cls-16" d="M87.6,42.13s.09.21.1.22.08.22.11.33a1.27,1.27,0,0,1,0,.67,2.22,2.22,0,0,1-.51.75,10.26,10.26,0,0,1-1.08,1.38,2.24,2.24,0,0,1-1.44.62c-.84,0-.78-.26-.76-.76s.81-1.22,1-1.51l.63-1.27.66-.41Z"/><path class="cls-27" d="M87.57,43a3.52,3.52,0,0,1-.74,1.5,2.9,2.9,0,0,1-2.08,1.29c-.84,0-.78-.26-.75-.76h0c0-.5.81-1.21,1-1.5l.62-1.28.67-.4,1.36,0,0,.08a1.82,1.82,0,0,1-.05,1.1"/><path class="cls-28" d="M87.57,43a3.52,3.52,0,0,1-.74,1.5,2.9,2.9,0,0,1-2.08,1.29c-.84,0-.78-.26-.75-.76h.06a4.34,4.34,0,0,0,1,.2,1.66,1.66,0,0,0,.93-.19,2.12,2.12,0,0,0,.54-.45,3.53,3.53,0,0,0,.45-.57,3.91,3.91,0,0,0,.27-.67,3.38,3.38,0,0,0,.1-1.05v-.12a.45.45,0,0,1,.32-.28,1.82,1.82,0,0,1-.05,1.1"/><path class="cls-30" d="M84.17,26.07a.69.69,0,0,1,.16-.28h0a.48.48,0,0,1,.11-.09c.91-.59,3.34.15,3.66,1.31,0,.06,0,.13,0,.22a5.74,5.74,0,0,1,0,1.85,25,25,0,0,0-.21,5c.07,1.06.15,2,.23,3a37.35,37.35,0,0,1-.09,4.73c-.06.42-.11.71-.11.71l-.08,0a3.11,3.11,0,0,1-.62.19,2.42,2.42,0,0,1-.66,0c-.56-.06-1.19-.24-1.35-.85a3.14,3.14,0,0,1,0-.81A38.57,38.57,0,0,0,85,37c-.13-.75-.38-1.45-.49-2.19-.23-1.64-.37-4.07-.5-5.72l0-.37,0-.71A6.12,6.12,0,0,1,84.17,26.07Z"/><path class="cls-29" d="M86.38,35.29a.73.73,0,0,0,.17-.26,4.82,4.82,0,0,0-.35-2.58,9.71,9.71,0,0,1-.56-1.81c0-.12-.22-1.28-.11-1.31s0-2.71,1-3.64A2.36,2.36,0,0,1,88.11,27c0,.06,0,.13,0,.22a5.74,5.74,0,0,1,0,1.85,25,25,0,0,0-.21,5c.09,1.29.19,4.53.28,5.63a6.65,6.65,0,0,1,0,1.41h0l-.06.48h0l-.13.81h0a.35.35,0,0,1-.06.09h0l-.07,0c-.14,0-.26-.39-.27-.55-.08-.79-.18-1.58-.29-2.36-.08-.53,0-3.52-.7-3.65a2,2,0,0,0-.69,0,1.28,1.28,0,0,1-.67,0A1.91,1.91,0,0,0,86.38,35.29Z"/><path class="cls-34" d="M84.17,26.07a.69.69,0,0,1,.16-.28h0a.48.48,0,0,1,.11-.09,2.62,2.62,0,0,1,2,0h0l.24.09h0l.22.1,0,0,.16.09.09,0,.16.12.07,0,.12.11a.27.27,0,0,1,.08.07l.08.09.09.09.1.17s0,0,0,0a.85.85,0,0,1,.09.22c0,.06,0,.13,0,.22a5.74,5.74,0,0,1,0,1.85,25,25,0,0,0-.21,5l.06.89a2.46,2.46,0,0,1,0,.28c0,.2,0,.4,0,.59l0,.29.06.65,0,.28h0c0,.2,0,2.45,0,2.65a6.65,6.65,0,0,1,0,1.41h0l-.06.48h0l0,.16h0c0,.12,0,.22,0,.32v0l0,.16v0l0,.19,0,0h0l-.07,0h0a2.88,2.88,0,0,1-.55.16,2.42,2.42,0,0,1-.66,0c-.56-.06-1.19-.24-1.35-.85a3.14,3.14,0,0,1,0-.81A38.57,38.57,0,0,0,85,37c-.13-.75-.38-1.45-.49-2.19-.23-1.64-.37-4.07-.5-5.72l0-.37,0-.71A6.12,6.12,0,0,1,84.17,26.07Z"/></g><g class="cls-35"><path class="cls-30" d="M84.17,26.07a.69.69,0,0,1,.16-.28h0a.48.48,0,0,1,.11-.09c.91-.59,3.34.15,3.66,1.31,0,.06,0,.13,0,.22a5.74,5.74,0,0,1,0,1.85,25,25,0,0,0-.21,5c.07,1.06.15,2,.23,3a37.35,37.35,0,0,1-.09,4.73c-.06.42-.11.71-.11.71l-.08,0a3.11,3.11,0,0,1-.62.19,2.42,2.42,0,0,1-.66,0c-.56-.06-1.19-.24-1.35-.85a3.14,3.14,0,0,1,0-.81A38.57,38.57,0,0,0,85,37c-.13-.75-.38-1.45-.49-2.19-.23-1.64-.37-4.07-.5-5.72l0-.37,0-.71A6.12,6.12,0,0,1,84.17,26.07Z"/><path class="cls-29" d="M86.38,35.29a.73.73,0,0,0,.17-.26,4.82,4.82,0,0,0-.35-2.58,9.71,9.71,0,0,1-.56-1.81c0-.12-.22-1.28-.11-1.31s0-2.71,1-3.64A2.36,2.36,0,0,1,88.11,27c0,.06,0,.13,0,.22a5.74,5.74,0,0,1,0,1.85,25,25,0,0,0-.21,5c.09,1.29.19,4.53.28,5.63a6.65,6.65,0,0,1,0,1.41h0l-.06.48h0l-.13.81h0a.35.35,0,0,1-.06.09h0l-.07,0c-.14,0-.26-.39-.27-.55-.08-.79-.18-1.58-.29-2.36-.08-.53,0-3.52-.7-3.65a2,2,0,0,0-.69,0,1.28,1.28,0,0,1-.67,0A1.91,1.91,0,0,0,86.38,35.29Z"/><path class="cls-34" d="M84.17,26.07a.69.69,0,0,1,.16-.28h0a.48.48,0,0,1,.11-.09,2.62,2.62,0,0,1,2,0h0l.24.09h0l.22.1,0,0,.16.09.09,0,.16.12.07,0,.12.11a.27.27,0,0,1,.08.07l.08.09.09.09.1.17s0,0,0,0a.85.85,0,0,1,.09.22c0,.06,0,.13,0,.22a5.74,5.74,0,0,1,0,1.85,25,25,0,0,0-.21,5l.06.89a2.46,2.46,0,0,1,0,.28c0,.2,0,.4,0,.59l0,.29.06.65,0,.28h0c0,.2,0,2.45,0,2.65a6.65,6.65,0,0,1,0,1.41h0l-.06.48h0l0,.16h0c0,.12,0,.22,0,.32v0l0,.16v0l0,.19,0,0h0l-.07,0h0a2.88,2.88,0,0,1-.55.16,2.42,2.42,0,0,1-.66,0c-.56-.06-1.19-.24-1.35-.85a3.14,3.14,0,0,1,0-.81A38.57,38.57,0,0,0,85,37c-.13-.75-.38-1.45-.49-2.19-.23-1.64-.37-4.07-.5-5.72l0-.37,0-.71A6.12,6.12,0,0,1,84.17,26.07Z"/></g><path class="cls-16" d="M88,26.44h0a7.75,7.75,0,0,1-2.79.41,7.58,7.58,0,0,1-.82-.08,14,14,0,0,1-1.79-.41l-.12,0a5.27,5.27,0,0,1-.84-.3,1.55,1.55,0,0,1-.52-.39h0c0-.22,0-.45,0-.68l0,0a.78.78,0,0,1,.34,0l.87.13c.58.09,1.15.18,1.73.23a7.54,7.54,0,0,0,2.07-.07,6.18,6.18,0,0,1,1-.18,1.32,1.32,0,0,1,.65.12.05.05,0,0,1,0,0c.06.46.11.91.14,1.24"/><path class="cls-20" d="M80.42,15.8a21.36,21.36,0,0,1,.19,2.4c0,.8.09,1.59.12,2.39.06,1.3.09,2.61.06,3.92v.22a1.08,1.08,0,0,0,.11.47.83.83,0,0,0,.29.3,1.37,1.37,0,0,0,.2.13,7.11,7.11,0,0,0,1.23.55l.21.07.21.06h0a6.66,6.66,0,0,0,1.66.24,7,7,0,0,0,1.64-.14l.57-.14a.76.76,0,0,0,.4-.34,4.33,4.33,0,0,0,.5-1.34,5.88,5.88,0,0,0,.26-1.72c0-.44-.11-.8-.07-1.25,0-.08,0-.15,0-.23.07-.89.11-1.78.13-2.67,0-.23,0-.46,0-.68,0-.77,0-1.53-.05-2.3a8.75,8.75,0,0,1,0-1.24,1.59,1.59,0,0,1,.25-.65,3.27,3.27,0,0,1,.51-.45.5.5,0,0,0,.15-.26.81.81,0,0,0,0-.22.44.44,0,0,0-.31-.36,14.33,14.33,0,0,1-1.34-.71,3.47,3.47,0,0,0-.78-.32l-.35-.11L86,11.37l-.29-.07-.12,0a1.34,1.34,0,0,0-.4,0l-.13,0a1.65,1.65,0,0,1-.73.12,10.17,10.17,0,0,0-1.58.11l-.8.1-.29,0h0a3.18,3.18,0,0,0-.9.51,2.47,2.47,0,0,0-.39,1.12,7.89,7.89,0,0,0,.07,2.52"/><path class="cls-21" d="M82.57,22.25c0,.58,0,1.17,0,1.75s.05,1,.1,1.47l.06.42a1.44,1.44,0,0,0,.07.36s.12,0,.14,0l.14,0c-.06,0-.08-.6-.08-.65-.06-.45-.09-.91-.11-1.37s0-1.13,0-1.69,0-1.23,0-1.84,0-1.23,0-1.85,0-1.13,0-1.69L83,15.84c0-.33,0-.67,0-1s.07-.63.12-.94l-.2.36a3.14,3.14,0,0,0-.26,1.32l-.06,1.31c0,.55,0,1.1,0,1.65s0,1.22,0,1.84,0,1.24,0,1.87"/><path class="cls-30" d="M80.51,20.89V22c0,.46,0,.93,0,1.39l0,1.45c0,.51,0,1.21.5,1.47h0a2,2,0,0,0,.35.1l.46.1a1.6,1.6,0,0,0,.53.09c-.08-.6-.17-1.18-.2-1.77,0-.21,0-.41,0-.61s0-.4,0-.6,0-.23,0-.35c0-.52,0-1.05,0-1.58,0-.32,0-.64,0-1v-.13c-.12-2.47-.28-5,.62-7.36l0-.33c-.06-.33-.13-.67-.19-1,0-.1,0-.23-.15-.26a1.22,1.22,0,0,0-.33,0,1.93,1.93,0,0,0-.34,0,1,1,0,0,0-.41.11,1.61,1.61,0,0,0-.53.51.57.57,0,0,0-.08.13,2.26,2.26,0,0,0-.3.69,2.71,2.71,0,0,0-.09.57,7.08,7.08,0,0,0,0,1.22c.15,1.55.23,3.1.26,4.65,0,.46,0,.92,0,1.38"/><path class="cls-29" d="M80.22,14.86a83,83,0,0,1,.25,10c0,.51,0,1.21.5,1.47h0c0-.7-.15-1.39-.11-2.09s0-1.64-.06-2.45c0-1.31,0-2.62,0-3.93,0-.19,0-.44.22-.48s.38,0,.37-.12a1,1,0,0,1-.75-.69,2.85,2.85,0,0,1-.1-1c0-.38,0-.76,0-1.14a4.79,4.79,0,0,1,.22-1.56c.18-.49.88-1.21,1.4-1.17a3.15,3.15,0,0,0-.62,0,1.19,1.19,0,0,0-.41.11,1.61,1.61,0,0,0-.53.51.57.57,0,0,0-.08.13,2.26,2.26,0,0,0-.3.69,2.71,2.71,0,0,0-.09.57,7.08,7.08,0,0,0,0,1.22"/><path class="cls-30" d="M83.5,21.08V22c0,.54,0,1.08,0,1.62q0,.45,0,.9c0,.76.08,1.51.15,2.26a.66.66,0,0,0,.06.25l0,0a.56.56,0,0,0,.21.09,6.18,6.18,0,0,0,3.33-.1.47.47,0,0,0,.21-.11.57.57,0,0,0,.12-.26c.25-1.14.51-2.27.77-3.41.11-.47.21-.94.31-1.41a17.14,17.14,0,0,0,.36-2.67,26.47,26.47,0,0,0-.41-4.52c0-.33-.1-.66-.17-1h0a.7.7,0,0,1,.23-.75c0-.05.13-.1.11-.18a.16.16,0,0,0-.07-.07,6.64,6.64,0,0,0-2-1,.72.72,0,0,0-.64.07,3.69,3.69,0,0,0-.63.78,10.39,10.39,0,0,0-.81,1.26,9.44,9.44,0,0,0-1,2.81,17.27,17.27,0,0,0-.2,2c0,.84-.06,1.68-.07,2.52"/><path class="cls-29" d="M83.78,27l0,0a.56.56,0,0,0,.21.09,6.28,6.28,0,0,0,3.33-.1.58.58,0,0,0,.21-.1.66.66,0,0,0,.12-.27c.25-1.14.51-2.27.77-3.41.11-.47.21-.94.31-1.41a4,4,0,0,0-.34-.95,1.85,1.85,0,0,1-.29-.93c0-.41,0-.82,0-1.23,0-.23,0-.46,0-.68,0-.77,0-1.53-.05-2.3a8.75,8.75,0,0,1,0-1.24,1.59,1.59,0,0,1,.25-.65,1.26,1.26,0,0,1,.2-.2l.31-.25a.32.32,0,0,0,.14-.25h0a1,1,0,0,0,0-.3.41.41,0,0,0-.07-.15.32.32,0,0,0-.09-.08c-.27-.18-.51-.38-.79-.54a4.48,4.48,0,0,0-.86-.4c-.3-.1-.62-.16-.92-.25l-.13.19.12.07.81.48a1.07,1.07,0,0,1,.31.25c.27.35,0,.84-.2,1.24a4.94,4.94,0,0,0-.21,2.67,1.54,1.54,0,0,1-.11,1.1,1.47,1.47,0,0,1-.89.65,1.75,1.75,0,0,1-1.19-.14,3.71,3.71,0,0,0,1.39.48,2,2,0,0,1,1.14.58,2.63,2.63,0,0,1,.13,1.25,20.19,20.19,0,0,1-.3,3c0,.18,0,.35,0,.53-.07.44-.16.87-.26,1.3a2.7,2.7,0,0,1-.72,1.35,2.11,2.11,0,0,1-1.37.65,5,5,0,0,1-.94-.08"/><path class="cls-22" d="M82.71,11.41a5.3,5.3,0,0,0-.14,1,1.3,1.3,0,0,0,.17.61,1.19,1.19,0,0,0,.54.42,2.34,2.34,0,0,0-.21.63,1.45,1.45,0,0,1,0,.29,1.21,1.21,0,0,0-.11.3,1.25,1.25,0,0,0-.32-.73,8.27,8.27,0,0,1-.55-.63,1.11,1.11,0,0,1,.66-1.85"/><path class="cls-20" d="M80.48,19.51c0,.46,0,.92,0,1.38a4.46,4.46,0,0,0,1.54.81c0-.32,0-.77,0-1.09a2.47,2.47,0,0,1-1.49-1.12Z"/><path class="cls-20" d="M80.5,23.39a4.44,4.44,0,0,0,1.63.84c0-.2,0-.4,0-.6s0-.37,0-.49A2.63,2.63,0,0,1,80.52,22h0c0,.46,0,.93,0,1.39"/><path class="cls-20" d="M84.09,16.48c0-.15,0-.45.17-.46a.61.61,0,0,1,.18.05,4.26,4.26,0,0,0,1.28.23,3.63,3.63,0,0,0,.57,0c.1,0,.28-.08.33.05a1.51,1.51,0,0,1,0,.47l-.06,1a.65.65,0,0,1-.08.31.54.54,0,0,1-.23.19c-.33.18-.66.34-1,.49a.53.53,0,0,1-.12,0c-.24,0-.42-.27-.56-.45l-.2-.31a1.31,1.31,0,0,1-.21-.27.78.78,0,0,1,0-.21c0-.37,0-.73,0-1.1"/><path class="cls-29" d="M87.56,26.93a1.32,1.32,0,0,0,1.14-1c.33-1,1.56-10.28.18-13.2l-.74.39L88,13.9l-.3,5.47Z"/><path class="cls-20" d="M83.54,23.59q0,.45,0,.9c.3,0,.61,0,.9,0A29.64,29.64,0,0,0,89,24l.13-1a25.07,25.07,0,0,1-5.62.52"/><path class="cls-20" d="M83.5,21.08V22a8,8,0,0,0,1,.05,28.16,28.16,0,0,0,4.86-.67l.09-1.11a22.26,22.26,0,0,1-5.92.84"/><path class="cls-36" d="M86.19,11.42a2.13,2.13,0,0,1-.83-.53.53.53,0,0,1-.09-.39h0a1,1,0,0,0-.91-.85c-1.79,0-1.68,1.31-1.68,1.31h0a2.18,2.18,0,0,0,0,.4h0a3.38,3.38,0,0,1,0,.45,1.49,1.49,0,0,1,0,.21,1.14,1.14,0,0,0,0,.37c.06.42.16.82.62.92a1.41,1.41,0,0,0,.76-.1,3.11,3.11,0,0,0,.76-.36l.61-.41.06,0,.2-.14C86.29,11.76,86.19,11.42,86.19,11.42Z"/><path class="cls-37" d="M85.88,12.05l.11-.12,0,0a.41.41,0,0,0,.07-.11v0a.41.41,0,0,0,.06-.11h0l0-.09v-.07a0,0,0,0,0,0,0,.06.06,0,0,0,0,0,2.13,2.13,0,0,1-.83-.53.53.53,0,0,1-.09-.39h0a1,1,0,0,0-.91-.85c-1.79,0-1.68,1.31-1.68,1.31h0a2.18,2.18,0,0,0,0,.4h0a3.38,3.38,0,0,1,0,.45,1.49,1.49,0,0,1,0,.21.82.82,0,0,0,.38.06,1.55,1.55,0,0,0,.74-.3c.22-.16.42-.35.63-.51s.38-.25.57-.15a.42.42,0,0,1,.21.27,1.86,1.86,0,0,1,0,.34,3.71,3.71,0,0,0,.11.58s0,.09,0,.13l.06,0,.2-.14.19-.17Z"/><path class="cls-22" d="M83.32,13.38h.28a.6.6,0,0,0,.22-.09l.24-.1c.16-.09.31-.2.47-.3.48-.31,1.17-.69,1.17-1.36,0-.09,0-.38-.1-.42a4.58,4.58,0,0,1,.64.15l.31.1a1.54,1.54,0,0,1,.3.11c.05,0,0,0,0,.11a.78.78,0,0,1,0,.14c0,.09-.08.18-.13.27a2.41,2.41,0,0,1-.33.5,3.32,3.32,0,0,1-.91.8,3.1,3.1,0,0,1-.57.3l-.56.25c-.21.11-.45.17-.67.27a.88.88,0,0,0-.28.16l-.28.28s-.07.14-.1.14a3.37,3.37,0,0,1,.21-1.22.16.16,0,0,1,0-.07h.09Z"/><g class="cls-38"><path class="cls-19" d="M90,19.42a17.26,17.26,0,0,1-.57,3.26c-.15.77-.34,1.54-.52,2.31,0,.21-.12.39-.16.6s0,.16,0,.24l-.12.48A6.4,6.4,0,0,1,88,27.64a2.48,2.48,0,0,1-.74,1,2.33,2.33,0,0,1-.34.2,2.13,2.13,0,0,1-.35.14c-.11,0-.23,0-.34,0a1.48,1.48,0,0,1-.42,0,.33.33,0,0,1-.27-.29.36.36,0,0,1,0-.09.39.39,0,0,1,.13-.06,1.81,1.81,0,0,0,.31-.09.35.35,0,0,0,.17-.09.41.41,0,0,0,.12-.17,1.84,1.84,0,0,0,.21-.61c0-.09,0-.38-.14-.31s-.1.08-.15.12a.87.87,0,0,1-.11.09l-.17.06a.43.43,0,0,1-.16,0,.23.23,0,0,1-.12-.08c0-.14,0-.22.14-.3l.15-.12c.15-.09.2-.22.31-.36a1.7,1.7,0,0,1,.38-.32l.4-.28a.72.72,0,0,0,.34-.44,1.58,1.58,0,0,0,0-.38v-.22c0-.56,0-1.12.08-1.68.06-.89.13-1.79.21-2.68,0-.28.07-.55.1-.83a1.81,1.81,0,0,0-.06-.57c-.09-.58-.07-1.16-.2-1.73a1.15,1.15,0,0,1,0-.45c0-.33.57-.48.84-.6a4.12,4.12,0,0,1,.58-.23c.08,0,.48-.18.53-.13a.94.94,0,0,1,.3.57,8.44,8.44,0,0,1,.17,1.8c0,.29,0,.57,0,.86"/><path class="cls-25" d="M90,18.56a8.44,8.44,0,0,0-.17-1.8.94.94,0,0,0-.3-.57s-.26,0-.41.09a1.15,1.15,0,0,1,.26.53,8.32,8.32,0,0,1,.16,1.8c0,.28,0,.57,0,.86A17.26,17.26,0,0,1,89,22.73c-.15.77-.34,1.54-.52,2.3a6.06,6.06,0,0,0-.16.61c0,.08,0,.16,0,.23l-.12.48a6.48,6.48,0,0,1-.54,1.34,2.48,2.48,0,0,1-.74,1l-.34.19a1,1,0,0,1-.32.13h.08c.11,0,.23,0,.34,0a2.13,2.13,0,0,0,.35-.14,2.33,2.33,0,0,0,.34-.2,2.48,2.48,0,0,0,.74-1,6.4,6.4,0,0,0,.54-1.33l.12-.48c0-.08,0-.16,0-.24s.11-.39.16-.6c.18-.77.37-1.54.52-2.31A17.26,17.26,0,0,0,90,19.42c0-.29,0-.57,0-.86"/><path class="cls-20" d="M87.3,17.07a1.69,1.69,0,0,0,0,.23.49.49,0,0,0,0,.12c.07.81.33,1.57.41,2.37a7.23,7.23,0,0,1-.15,2s0,.05,0,.08l0,.14c0,.25-.1.5-.13.74a2.23,2.23,0,0,0,0,.37c0,.39.33.34.63.34h.13a2.69,2.69,0,0,0,.69-.06,1.4,1.4,0,0,0,.92-.61,1.28,1.28,0,0,0,.13-.39c.09-.47.17-1,.23-1.43a11.62,11.62,0,0,0,.13-1.31c0-.45,0-.9,0-1.35s0-1-.08-1.49c0-.15,0-.31,0-.47a11.22,11.22,0,0,0-.41-2.06,6.08,6.08,0,0,0-.41-1c-.15-.25-.24-.56-.58-.61h-.07a.79.79,0,0,0-.22,0h0a1.15,1.15,0,0,0-.7.51,3.31,3.31,0,0,0-.48,1.36h0a.37.37,0,0,1,0,.11v.11c0,.75.07,1.51.09,2.25"/><path class="cls-21" d="M87.45,22.21a1.57,1.57,0,0,0,0,.61,1.13,1.13,0,0,0,.55.57l.16.09a2.69,2.69,0,0,0,.69-.06,1.4,1.4,0,0,0,.92-.61,1.28,1.28,0,0,0,.13-.39c.09-.47.17-1,.23-1.43a11.62,11.62,0,0,0,.13-1.31c0-.45,0-.9,0-1.35s0-1-.08-1.49c0-.15,0-.31,0-.47a11.22,11.22,0,0,0-.41-2.06,6.08,6.08,0,0,0-.41-1c-.15-.25-.24-.56-.58-.61h-.07a.79.79,0,0,0-.22,0,1,1,0,0,1,.3.45,12.3,12.3,0,0,1,.85,3.44.5.5,0,0,1-.09.41.51.51,0,0,1-.3.12l-.4.06.58.24a.17.17,0,0,0,0,.23,1.62,1.62,0,0,0,.19.18.21.21,0,0,1,.06.23c-.08.15-.34,0-.48.13a1.47,1.47,0,0,0,.37.27,1,1,0,0,1,.31.85c-.06.33-.52.26-.82.29l.54.45c.27.25.17.46.15.79s0,.6-.39.57a.59.59,0,0,1-.41,1,1.09,1.09,0,0,1-.79-.35,4.54,4.54,0,0,0-.38-.38l0,0s0,0,0,.05-.1.3-.14.46"/><path class="cls-21" d="M87.3,17.07a1.69,1.69,0,0,0,0,.23.49.49,0,0,0,0,.12c.07.81.33,1.57.41,2.37a7.23,7.23,0,0,1-.15,2,3.23,3.23,0,0,0,.16-.81,7,7,0,0,1,.1-.8A.39.39,0,0,1,88,20a1.37,1.37,0,0,1,.35-.08,1.1,1.1,0,0,1,.37-.06,1.1,1.1,0,0,1-.62-.25c-.08-.07-.31-.28-.17-.4a.44.44,0,0,1,.23-.06h.17a1.39,1.39,0,0,1-.72-.8,1.32,1.32,0,0,1-.11-.62c0-.19.19-.28.36-.34a.78.78,0,0,0,.43-.27,1.42,1.42,0,0,1-.79,0l.18-.37s0,0,0,0-.19,0-.2-.1c.27-.22.7-.07,1-.27a1.17,1.17,0,0,1-.67,0,1.1,1.1,0,0,1-.47-.79,2.76,2.76,0,0,1-.11-.7c0,.75.07,1.51.09,2.25"/><path class="cls-22" d="M87.5,21.8l.09-.12a1.33,1.33,0,0,0,.37.61,1.46,1.46,0,0,0,.6.29,1.23,1.23,0,0,0,.88-.12,1.15,1.15,0,0,0,.44-.41,1.28,1.28,0,0,0,.11-.27,1.4,1.4,0,0,1,.17.7,2.13,2.13,0,0,1-.11.75.92.92,0,0,1-.14.26.85.85,0,0,1-.46.26,3.51,3.51,0,0,1-1.87-.19.27.27,0,0,1-.12-.06.67.67,0,0,1-.17-.47,4.18,4.18,0,0,1,0-.71,1.4,1.4,0,0,1,.18-.52"/></g><g class="cls-39"><path class="cls-19" d="M90,19.42a17.24,17.24,0,0,1-.56,3.26c-.16.77-.34,1.54-.53,2.31,0,.21-.12.39-.15.6s0,.16,0,.24a4.21,4.21,0,0,1-.12.48A6.4,6.4,0,0,1,88,27.64a2.4,2.4,0,0,1-.74,1,1.9,1.9,0,0,1-.34.2,2.13,2.13,0,0,1-.35.14c-.11,0-.23,0-.34,0a1.48,1.48,0,0,1-.42,0,.31.31,0,0,1-.26-.29.16.16,0,0,1,0-.09.39.39,0,0,1,.13-.06,1.92,1.92,0,0,0,.32-.09.4.4,0,0,0,.17-.09.5.5,0,0,0,.11-.17,1.64,1.64,0,0,0,.21-.61c0-.09,0-.38-.14-.31s-.1.08-.15.12a.87.87,0,0,1-.11.09.85.85,0,0,1-.17.06.43.43,0,0,1-.16,0s-.1,0-.11-.08,0-.22.13-.3l.15-.12a1.08,1.08,0,0,0,.31-.36,1.7,1.7,0,0,1,.38-.32l.4-.28a.72.72,0,0,0,.34-.44,1.58,1.58,0,0,0,0-.38v-.22c0-.56,0-1.12.08-1.68.06-.89.13-1.79.21-2.68,0-.28.08-.55.1-.83a1.81,1.81,0,0,0,0-.57c-.1-.58-.08-1.16-.2-1.73a1.38,1.38,0,0,1,0-.45c0-.33.57-.48.84-.6a4.24,4.24,0,0,1,.59-.23c.07,0,.47-.18.53-.13a1.05,1.05,0,0,1,.3.57,8.43,8.43,0,0,1,.16,1.8c0,.29,0,.57,0,.86"/><path class="cls-25" d="M90,18.56a8.43,8.43,0,0,0-.16-1.8,1.05,1.05,0,0,0-.3-.57s-.27,0-.41.09a1.13,1.13,0,0,1,.25.53,8.32,8.32,0,0,1,.17,1.8c0,.28,0,.57,0,.86A18.08,18.08,0,0,1,89,22.73c-.16.77-.35,1.54-.53,2.3,0,.21-.12.39-.16.61s0,.16,0,.23l-.12.48a6.48,6.48,0,0,1-.54,1.34,2.48,2.48,0,0,1-.74,1l-.34.19a1,1,0,0,1-.32.13h.08c.11,0,.23,0,.34,0a2.13,2.13,0,0,0,.35-.14,1.9,1.9,0,0,0,.34-.2,2.4,2.4,0,0,0,.74-1,6.4,6.4,0,0,0,.54-1.33,4.21,4.21,0,0,0,.12-.48c0-.08,0-.16,0-.24s.1-.39.15-.6c.19-.77.37-1.54.53-2.31A17.24,17.24,0,0,0,90,19.42c0-.29,0-.57,0-.86"/><path class="cls-20" d="M87.31,17.07c0,.08,0,.16,0,.23s0,.08,0,.12c.07.81.33,1.57.41,2.37a7.62,7.62,0,0,1-.14,2s0,.05,0,.08,0,.09,0,.14c0,.25-.11.5-.14.74s0,.24,0,.37c0,.39.33.34.63.34h.13a2.65,2.65,0,0,0,.69-.06,1.38,1.38,0,0,0,.92-.61,1.28,1.28,0,0,0,.13-.39c.09-.47.17-1,.23-1.43a11.62,11.62,0,0,0,.13-1.31c0-.45,0-.9,0-1.35s0-1-.08-1.49c0-.15,0-.31,0-.47a11.22,11.22,0,0,0-.41-2.06,6.08,6.08,0,0,0-.41-1c-.14-.25-.24-.56-.57-.61h-.08a.7.7,0,0,0-.21,0h0a1.1,1.1,0,0,0-.69.51,3,3,0,0,0-.48,1.36h0a.45.45,0,0,0,0,.11.41.41,0,0,0,0,.11c0,.75.07,1.51.09,2.25"/><path class="cls-21" d="M87.47,22.21a1.41,1.41,0,0,0,0,.61c.07.26.35.44.56.57a1.19,1.19,0,0,0,.15.09,2.65,2.65,0,0,0,.69-.06,1.38,1.38,0,0,0,.92-.61,1.28,1.28,0,0,0,.13-.39c.09-.47.17-1,.23-1.43a11.62,11.62,0,0,0,.13-1.31c0-.45,0-.9,0-1.35s0-1-.08-1.49c0-.15,0-.31,0-.47a11.22,11.22,0,0,0-.41-2.06,6.08,6.08,0,0,0-.41-1c-.15-.25-.24-.56-.57-.61h-.08a.7.7,0,0,0-.21,0,1.1,1.1,0,0,1,.29.45,12.3,12.3,0,0,1,.85,3.44.53.53,0,0,1-.08.41.56.56,0,0,1-.31.12l-.4.06c.2.08.39.17.59.24a.16.16,0,0,0,0,.23,1.62,1.62,0,0,0,.19.18.21.21,0,0,1,.06.23c-.08.15-.33,0-.48.13a1.47,1.47,0,0,0,.37.27,1,1,0,0,1,.31.85c-.06.33-.52.26-.82.29l.54.45c.27.25.17.46.15.79s0,.6-.39.57a.59.59,0,0,1-.41,1,1.09,1.09,0,0,1-.79-.35,4.54,4.54,0,0,0-.38-.38l0,0s0,0-.05.05a3.09,3.09,0,0,0-.13.46"/><path class="cls-21" d="M87.31,17.07c0,.08,0,.16,0,.23s0,.08,0,.12c.07.81.33,1.57.41,2.37a7.62,7.62,0,0,1-.14,2,4.47,4.47,0,0,0,.16-.81,4.27,4.27,0,0,1,.1-.8A.31.31,0,0,1,88,20a1.21,1.21,0,0,1,.34-.08,1.15,1.15,0,0,1,.37-.06,1,1,0,0,1-.61-.25c-.09-.07-.32-.28-.18-.4a.44.44,0,0,1,.23-.06h.17a1.39,1.39,0,0,1-.72-.8,1.32,1.32,0,0,1-.11-.62c0-.19.2-.28.36-.34a.78.78,0,0,0,.43-.27,1.42,1.42,0,0,1-.79,0l.18-.37s0,0,0,0-.19,0-.2-.1c.27-.22.71-.07,1-.27a1.21,1.21,0,0,1-.68,0,1.1,1.1,0,0,1-.47-.79,3.29,3.29,0,0,1-.11-.7c0,.75.07,1.51.09,2.25"/><path class="cls-22" d="M87.51,21.8l.09-.12a1.42,1.42,0,0,0,.37.61,1.46,1.46,0,0,0,.6.29,1.23,1.23,0,0,0,.88-.12,1.08,1.08,0,0,0,.44-.41,1.28,1.28,0,0,0,.11-.27,1.3,1.3,0,0,1,.17.7,2.13,2.13,0,0,1-.11.75.6.6,0,0,1-.14.26.85.85,0,0,1-.46.26,3.51,3.51,0,0,1-1.87-.19.34.34,0,0,1-.12-.06.62.62,0,0,1-.16-.47,3.35,3.35,0,0,1,0-.71,1.61,1.61,0,0,1,.18-.52"/></g><path class="cls-40" d="M86,9a.11.11,0,0,1,0,.08.5.5,0,0,1,0,.24,1.94,1.94,0,0,1-.42.59h0l-.17.16-.21.28a.52.52,0,0,0-.11.17,3.3,3.3,0,0,1-1.17.91l-.06,0-.14.08,0,0h0l0,0,0,0c-.72.34-1.3.31-1.57.06s-.41-1.42-.41-1.42c-.05-.22-.06-.45-.11-.66l0-.06c0-.25,0-.48,0-.74a3.18,3.18,0,0,0-.09-.33,1.48,1.48,0,0,1,.09-.69c.07-.28.15-.55.23-.83s.09-.33.14-.49a1.54,1.54,0,0,1,.53-1,2.26,2.26,0,0,1,1.17-.43S84.89,6.14,85,6.2a2.29,2.29,0,0,1,1,2,2.65,2.65,0,0,1-.11.77s0,0,0,0a0,0,0,0,1,0,0"/><path class="cls-37" d="M81.62,6.94a6.62,6.62,0,0,1,2.18-.52,2,2,0,0,1,.65,0,1,1,0,0,1,.56.33,1.06,1.06,0,0,1,.17.72,3.15,3.15,0,0,1-.19.86,7.76,7.76,0,0,0-.37,1.72,1.43,1.43,0,0,1-.15-.44,2.56,2.56,0,0,1-.12-1c0-.12.05-.24.07-.36a3,3,0,0,0,.06-.73.4.4,0,0,0-.13-.3,1.28,1.28,0,0,0-.43-.1,16,16,0,0,0-1.83-.1A1.15,1.15,0,0,1,81.6,7Z"/><path class="cls-41" d="M86.63,7.26a8.63,8.63,0,0,1-.43,1.55c0,.06,0,.12-.08.19a1.67,1.67,0,0,0-.08.2l0,.07a1.67,1.67,0,0,1-.47.64h0a.28.28,0,0,1,0-.09,1.53,1.53,0,0,1,.14-.39,1,1,0,0,0,.07-.21V9.1a.34.34,0,0,0,0-.14.4.4,0,0,0-.51-.1.81.81,0,0,0-.35.44c0,.08-.07.17-.11.25l-.06.15-.06.12,0-.09s0-.08,0-.12,0-.35,0-.53a2.41,2.41,0,0,1,0-.71c0-.17.09-.33.12-.5a.58.58,0,0,0-.13-.6A1.13,1.13,0,0,0,84,7a4.52,4.52,0,0,0-1.5,0,2.89,2.89,0,0,1-.88,0c-.06,0-.13,0-.2,0s-.1-.1-.11-.18a1.63,1.63,0,0,1,0-.66,4.27,4.27,0,0,1,.21-.6.65.65,0,0,1,.37-.3A2.62,2.62,0,0,1,82.52,5a3.62,3.62,0,0,1,1,0,3.73,3.73,0,0,1,2.06.57c.18.16.35.31.5.46l.11.11a1.29,1.29,0,0,1,.4,1.16"/><path class="cls-42" d="M86.63,7.26a8.63,8.63,0,0,1-.43,1.55c0,.06,0,.12-.08.19a1.67,1.67,0,0,0-.08.2l0,.07a1.67,1.67,0,0,1-.47.64h0a.28.28,0,0,1,0-.09,1.53,1.53,0,0,1,.14-.39,1,1,0,0,0,.07-.21V9.1a.34.34,0,0,0,0-.14.4.4,0,0,0-.51-.1.81.81,0,0,0-.35.44c0,.08-.07.17-.11.25l-.06.15-.06.12,0-.09s0-.08,0-.12,0-.35,0-.53a2.41,2.41,0,0,1,0-.71c0-.17.09-.33.12-.5.06.39-.11.79-.09,1.19,0,.06,0,.14.09.13a.1.1,0,0,0,0,0c.11-.12.19-.28.29-.41a.55.55,0,0,1,.41-.24.68.68,0,0,1,.41.19l.08.05c.08,0,.14-.07.17-.16a3.16,3.16,0,0,0,.31-1.78,4.15,4.15,0,0,1-.15-.7,1.29,1.29,0,0,1,.4,1.16"/><path class="cls-43" d="M86.13,6a1.08,1.08,0,0,1,.28.51.56.56,0,0,1-.15.52.68.68,0,0,1-.66.14A2.23,2.23,0,0,1,85,6.83a2.08,2.08,0,0,0-.62-.34,3.07,3.07,0,0,0-.53,0H82.45a1.6,1.6,0,0,1-.69-.12.64.64,0,0,1-.06-1A2.92,2.92,0,0,1,83.56,5a3.73,3.73,0,0,1,2.06.57c.15.14.35.29.51.46"/><path class="cls-44" d="M83.47,5.09l-.48,0a2,2,0,0,0-.47.12.74.74,0,0,0-.33.22.16.16,0,0,0-.06.08.26.26,0,0,0,.17.32,4.34,4.34,0,0,0,1.35,0c.6,0,1.13.43,1.72.5a.31.31,0,0,0,.27-.06.22.22,0,0,0,0-.21.69.69,0,0,0-.1-.19,2.65,2.65,0,0,0-.42-.4,2.42,2.42,0,0,0-.75-.28A3.1,3.1,0,0,0,84,5.17a2.57,2.57,0,0,0-.47-.08h-.06"/><path class="cls-45" d="M80,7.08a1,1,0,0,1,.15-.24,4.07,4.07,0,0,1,1-.81,5,5,0,0,1,1.09-.54,5.68,5.68,0,0,1,2.52-.35,3.5,3.5,0,0,1,.45.07,4.91,4.91,0,0,1,.51.15,1.86,1.86,0,0,1,.7.48.24.24,0,0,0,0-.12,2,2,0,0,1,.37,1.16,1.45,1.45,0,0,1-.21.59,1.76,1.76,0,0,1-.48.5,1.94,1.94,0,0,1-.4.22,2.15,2.15,0,0,1-.92.25.47.47,0,0,0-.17,0,10.72,10.72,0,0,1-1,.5,5.6,5.6,0,0,1-1.16.17,3.38,3.38,0,0,1-1.68-.36,1.51,1.51,0,0,1-.43-.32A1.27,1.27,0,0,1,80,7.08"/><path class="cls-46" d="M86.43,5.84a.25.25,0,0,1,0,.12,1.75,1.75,0,0,0-.7-.48,3.33,3.33,0,0,0-.51-.16l-.45-.07a5.83,5.83,0,0,0-2.52.36,4.62,4.62,0,0,0-1.09.54,3.85,3.85,0,0,0-1,.81,1.14,1.14,0,0,0-.15.23.79.79,0,0,0-.1.34.85.85,0,0,1,.1-.45,1,1,0,0,1,.15-.24,4.07,4.07,0,0,1,1-.81,5,5,0,0,1,1.09-.54,5.68,5.68,0,0,1,2.52-.35,3.5,3.5,0,0,1,.45.07,4.91,4.91,0,0,1,.51.15,1.86,1.86,0,0,1,.7.48.24.24,0,0,0,0-.12,2,2,0,0,1,.37,1.1,2.14,2.14,0,0,0-.37-1"/><path class="cls-46" d="M80.33,8.3a1.48,1.48,0,0,0,.43.31A3.27,3.27,0,0,0,82.44,9,5.6,5.6,0,0,0,83.6,8.8c.38-.11.67-.36,1-.49a.47.47,0,0,1,.17,0,2.28,2.28,0,0,0,.92-.24,2.6,2.6,0,0,0,.4-.23,1.64,1.64,0,0,0,.48-.5,1.35,1.35,0,0,0,.21-.59v.15a1.45,1.45,0,0,1-.21.59,1.76,1.76,0,0,1-.48.5,1.94,1.94,0,0,1-.4.22,2.15,2.15,0,0,1-.92.25.47.47,0,0,0-.17,0,10.72,10.72,0,0,1-1,.5,5.6,5.6,0,0,1-1.16.17,3.38,3.38,0,0,1-1.68-.36,1.51,1.51,0,0,1-.43-.32,1.46,1.46,0,0,1-.4-1,1.52,1.52,0,0,0,.4.9"/><path class="cls-47" d="M84.76,3.87A2.49,2.49,0,0,1,86,4.6a2.92,2.92,0,0,1,.68,2,1.24,1.24,0,0,1-.47,1,4.15,4.15,0,0,1-3.6.41c-.52-.17-1.3-.46-1.49-1a1.16,1.16,0,0,1,0-.37,2.4,2.4,0,0,1,.27-.92c.13-.25.29-.49.44-.73a2.68,2.68,0,0,1,.56-.65,2.72,2.72,0,0,1,.8-.44A3,3,0,0,1,84,3.76a2.79,2.79,0,0,1,.76.11"/><path class="cls-30" d="M81,7.09a.23.23,0,0,0,0,.14.35.35,0,0,0,.08.13,1.3,1.3,0,0,0,.43.34l.2.09h.07s.09,0,.09,0,0,0,0-.08a.47.47,0,0,0,.06-.09.83.83,0,0,0,.08-.12L82.17,7l.37-.62.37-.59.67-.68.5-.5.86-.2,1.11.24a3.73,3.73,0,0,0-1-.74h0L85,3.85a2.16,2.16,0,0,0-.7-.16,1.82,1.82,0,0,0-.66.1.85.85,0,0,0-.22.09,2.22,2.22,0,0,0-.42.25,3.09,3.09,0,0,0-.39.33,4,4,0,0,0-.34.38c-.11.13-.21.27-.31.41l-.27.42-.22.41-.18.37c0,.1-.09.21-.14.31s-.13.31-.13.33"/><path class="cls-46" d="M82,7.82a.64.64,0,0,0,0-.07l0-.08.1-.24.15-.32.19-.38c.07-.14.15-.27.23-.41L83,5.9c.1-.14.21-.27.32-.4a3,3,0,0,1,.35-.36,2.88,2.88,0,0,1,.39-.3,2,2,0,0,1,.42-.2l.17,0,.17,0A1.81,1.81,0,0,1,86.21,5a.94.94,0,0,1,.1.1,1.8,1.8,0,0,0-.08-.21,1.14,1.14,0,0,0-.23-.3,1,1,0,0,0-.22-.13,2,2,0,0,0-.72-.17,1.66,1.66,0,0,0-.66.1l-.22.08a2.26,2.26,0,0,0-.42.26,3,3,0,0,0-.39.32c-.12.12-.23.25-.34.38l-.31.42c-.09.13-.18.28-.26.42s-.16.27-.23.41l-.18.37c0,.1-.09.2-.13.31a2.14,2.14,0,0,0-.1.22s0,.07,0,.11,0,.06,0,.09.06,0,.09,0H82s0,0,.06,0"/></g></g></g></svg>