<svg xmlns="http://www.w3.org/2000/svg" xmlns:xlink="http://www.w3.org/1999/xlink" viewBox="0 0 191.46 161.52"><defs><style>.cls-1{fill:#422f40;}.cls-2{fill:#2f3032;opacity:0.5;}.cls-3{fill:#b1382c;}.cls-4{fill:#252323;}.cls-5{fill:#fff;}.cls-6{fill:#f5f8ff;}.cls-7{fill:#1f181f;}.cls-8{fill:#392a37;}.cls-9{fill:#50394d;}.cls-10{fill:#717171;}.cls-11{fill:#a6a6a6;}.cls-12{fill:#e8e8e5;}.cls-13{fill:#4e4e4e;}.cls-14{fill:#929292;}.cls-15{fill:#dbdcd7;}.cls-16{fill:#c2c2c2;}.cls-17{fill:#c9d0d9;}.cls-18{fill:#bec4cc;}.cls-19{fill:#b4c0d0;}.cls-20{fill:#6086af;}.cls-21{fill:#435d76;}.cls-22{fill:#517292;}.cls-23{fill:#d4dae4;}.cls-24{fill:#cec8b9;}.cls-25{fill:url(#Áåçûìÿííûé_ãðàäèåíò_23);}.cls-26{fill:#999181;}.cls-27{fill:#4a4347;}.cls-28{fill:#edf8ff;}.cls-29{fill:#a8bbc1;}.cls-30{fill:#fbf4c7;}.cls-31{fill:#8caba4;}.cls-32{fill:#d16e5d;}.cls-33{fill:#f4d765;}.cls-34{fill:#746458;}.cls-35{fill:#c0ccdc;}.cls-36{fill:#dce2e6;}.cls-37{fill:#f2f2f2;}.cls-38{fill:#d7d7d7;}.cls-39{fill:#b6b6b6;}.cls-40{fill:#393939;}.cls-41{fill:#382436;}.cls-42{fill:#cd772f;}.cls-43{fill:#dde6df;}</style><linearGradient id="Áåçûìÿííûé_ãðàäèåíò_23" x1="-13507.44" y1="100.52" x2="-13512.8" y2="67.26" gradientTransform="matrix(-1, 0, 0, 1, -13491.93, 0)" gradientUnits="userSpaceOnUse"><stop offset="0.08" stop-color="#7491a7"/><stop offset="0.41" stop-color="#677e8f"/><stop offset="0.94" stop-color="#54626b"/></linearGradient></defs><title>Recurso 37</title><g id="Capa_2" data-name="Capa 2"><g id="personajes"><path class="cls-1" d="M16.59,83.09a27,27,0,0,0,.48-3,5.06,5.06,0,0,0-.18-2.73,4.61,4.61,0,0,0-2.16-2,1.65,1.65,0,0,0-1.47,0A46.94,46.94,0,0,0,12,82a36.79,36.79,0,0,0-.31,4.06,13.58,13.58,0,0,0,.07,3.66A2.63,2.63,0,0,0,13,91a.84.84,0,0,0,.63.2c.31-.07.41-.45.46-.76.22,0,.51.29.65,0,.46-.81.33-1.76.85-2.53s1.13-1.17,1.64-1.8a.55.55,0,0,0,.16-.3.52.52,0,0,0-.41-.48c-.47-.16-.87-.12-.71-.73S16.48,83.62,16.59,83.09Z"/><path class="cls-2" d="M58.61,99.67h0l83.69-49L188,78.48c2.16,1.25,4.73,3,2.78,4.54L75,149.69c-30.24,16.8-33.87,12.39-43.4,6.86l-22.43-13C3,140-3.74,137.87,2.48,134.35Z"/><polygon class="cls-3" points="51.78 116.36 52.7 117.22 55 119.19 82.81 100.3 51.78 116.36"/><path class="cls-4" d="M156.6,92.9l-11.06-8.49S152,81,152.26,81s3.7,1.73,3.7,1.73S160.93,87,156.6,92.9Z"/><polygon points="76.52 138.13 31.56 116.47 31.24 105.68 76.2 127.34 78.63 133.82 76.52 138.13"/><polygon class="cls-5" points="44.73 133.95 26.95 131.66 10.27 116.82 6.17 107.91 11.36 93.36 52.7 117.22 44.73 133.95"/><polygon class="cls-6" points="5.65 106.88 11.36 93.36 13.45 96.4 12.77 110.99 5.65 106.88"/><polygon class="cls-6" points="37.73 125.14 46.91 115.89 52.7 117.22 44.18 142.58 37.73 125.14"/><path class="cls-7" d="M59.1,152.89,73.53,128.7l-13.59-.64v0c-1.81-1,1.74-4.52-1-2.94-5.55,3.19-10,10.89-10,17.19,0,3,1,5.16,2.73,6.23h0l.15.08.12.08Z"/><path class="cls-8" d="M70.92,130.21l-10.22-5.9a10.78,10.78,0,0,0-1.77.83c-5.55,3.19-10,10.89-10,17.19a9.89,9.89,0,0,0,.44,3.07L57.2,150a12.22,12.22,0,0,0,2.68-1.16,17.66,17.66,0,0,0,3-2.17l7.58-12.71A17.12,17.12,0,0,0,70.92,130.21Z"/><path class="cls-1" d="M76.27,135c0,6.3-4.49,14-10,17.19s-10,.67-10-5.63,4.5-14,10-17.19S76.27,128.68,76.27,135Z"/><path class="cls-1" d="M75.18,135.61c0,5.61-4,12.47-9,15.32s-8.94.6-8.94-5,4-12.47,8.94-15.32S75.18,130,75.18,135.61Z"/><path class="cls-9" d="M74.12,136.22c0,4.95-3.53,11-7.89,13.5s-7.88.53-7.88-4.42,3.53-11,7.88-13.5S74.12,131.27,74.12,136.22Z"/><path class="cls-10" d="M73.22,136.74a15.31,15.31,0,0,1-7,12c-3.85,2.22-7,.47-7-3.92a15.32,15.32,0,0,1,7-12C70.09,130.6,73.22,132.35,73.22,136.74Z"/><path class="cls-11" d="M66.14,132.88a15.31,15.31,0,0,0-6.89,11.9,7.37,7.37,0,0,0,.19,1.7l5.1,3a8.07,8.07,0,0,0,1.69-.73,15.33,15.33,0,0,0,7-11.74Z"/><path class="cls-12" d="M62.32,136.43a16.17,16.17,0,0,0-2.82,6.13L68,147.45A16.13,16.13,0,0,0,72,142Z"/><path class="cls-12" d="M62.32,136.43a16.17,16.17,0,0,0-2.82,6.13L68,147.45A16.13,16.13,0,0,0,72,142Z"/><path class="cls-13" d="M71,136.66a12.15,12.15,0,0,1-5.55,9.51c-3.07,1.77-5.55.38-5.55-3.11a12.16,12.16,0,0,1,5.55-9.51C68.5,131.79,71,133.18,71,136.66Z"/><path class="cls-14" d="M70,136.9a10.43,10.43,0,0,1-4.77,8.15c-2.63,1.52-4.76.32-4.76-2.67a10.41,10.41,0,0,1,4.76-8.15C67.87,132.71,70,133.91,70,136.9Z"/><path class="cls-10" d="M62.76,136.42a.73.73,0,0,0-.26-.23c-.28.36-.54.74-.79,1.13a1,1,0,0,0,.71,0A.58.58,0,0,0,62.76,136.42Z"/><path class="cls-10" d="M69.94,139.25c.32-.42.26-.78-.14-.81a1.77,1.77,0,0,0-1.3.69c-.32.42-.25.78.15.81A1.67,1.67,0,0,0,69.94,139.25Z"/><path class="cls-10" d="M61.58,142.48c.11-.5-.14-.69-.55-.43a2.43,2.43,0,0,0-.93,1.38c-.11.5.14.69.55.43A2.48,2.48,0,0,0,61.58,142.48Z"/><path class="cls-10" d="M67.71,133.69c-.14-.41-.48-.36-.75.1a2.2,2.2,0,0,0-.24,1.57c.15.41.49.36.76-.1A2.14,2.14,0,0,0,67.71,133.69Z"/><path class="cls-10" d="M61.53,139.05c.38-.34.39-.74,0-.89a.78.78,0,0,0-.31,0,13.2,13.2,0,0,0-.62,1.32A1.52,1.52,0,0,0,61.53,139.05Z"/><path class="cls-10" d="M61.32,145.09c.07.45.39.48.72.06a2.36,2.36,0,0,0,.47-1.57c-.07-.45-.39-.48-.72-.06A2.36,2.36,0,0,0,61.32,145.09Z"/><path class="cls-10" d="M61.24,140.88c.26-.46.13-.79-.29-.72a1.52,1.52,0,0,0-.67.32,10.75,10.75,0,0,0-.3,1.34h0A2,2,0,0,0,61.24,140.88Z"/><path class="cls-10" d="M69,141.81c.4-.26.47-.67.17-.91a1.19,1.19,0,0,0-1.28.06c-.4.26-.48.67-.17.91A1.19,1.19,0,0,0,69,141.81Z"/><path class="cls-10" d="M66,144.76a1.22,1.22,0,0,0-.61-1.15c-.35-.14-.65.15-.67.64a1.24,1.24,0,0,0,.61,1.15C65.68,145.54,66,145.25,66,144.76Z"/><path class="cls-10" d="M63.09,144.3a1.8,1.8,0,0,0,.08,1.49c.23.32.57.18.76-.32a1.8,1.8,0,0,0-.08-1.49C63.62,143.66,63.28,143.8,63.09,144.3Z"/><path class="cls-10" d="M67.86,143.14a1,1,0,0,0-1-.6.6.6,0,0,0-.46.85,1,1,0,0,0,1,.6A.6.6,0,0,0,67.86,143.14Z"/><path class="cls-10" d="M68.5,136.44a2.47,2.47,0,0,0,.74-1.49c0-.49-.25-.61-.63-.27a2.43,2.43,0,0,0-.75,1.49C67.83,136.66,68.12,136.78,68.5,136.44Z"/><path class="cls-10" d="M63.09,135.5a.93.93,0,0,0,.65.49c.39,0,.66-.28.59-.75a1.13,1.13,0,0,0-.33-.65A11.16,11.16,0,0,0,63.09,135.5Z"/><path class="cls-10" d="M69.6,136.42a2.31,2.31,0,0,0-1.12,1.16c-.2.49,0,.76.41.61A2.27,2.27,0,0,0,70,137C70.21,136.54,70,136.27,69.6,136.42Z"/><path class="cls-10" d="M65,133.83a.42.42,0,0,0,0,.1,1.52,1.52,0,0,0,.32,1.37c.29.25.62,0,.73-.47a1.49,1.49,0,0,0-.32-1.37l0,0-.21.11Z"/><path class="cls-10" d="M67.81,138a6.46,6.46,0,0,1-3,5c-1.62.94-2.94.2-2.94-1.65a6.47,6.47,0,0,1,2.94-5.05C66.49,135.37,67.81,136.11,67.81,138Z"/><path class="cls-11" d="M65.69,136a2.77,2.77,0,0,0-.83.32,6.47,6.47,0,0,0-2.94,5.05,2.6,2.6,0,0,0,.27,1.23l2.69-.56c1-.9,1.18-1.94,1.78-3.26Z"/><path class="cls-15" d="M65.76,140.89a11.64,11.64,0,0,0,.52-1.18,11.12,11.12,0,0,1-3.11-1.81,6.74,6.74,0,0,0-1.07,2.27A10.46,10.46,0,0,1,65.76,140.89Z"/><path class="cls-16" d="M67.81,139.31a4.58,4.58,0,0,1-2.09,3.58c-1.16.67-2.1.14-2.1-1.17a4.59,4.59,0,0,1,2.1-3.59C66.87,137.47,67.81,138,67.81,139.31Z"/><path class="cls-13" d="M67.18,140.11A2.48,2.48,0,0,1,66,142.05c-.62.36-1.13.08-1.13-.64A2.49,2.49,0,0,1,66,139.47C66.67,139.11,67.18,139.39,67.18,140.11Z"/><path d="M59.11,152.89l-4.42-2.55-.13-.07-.14-.09h0c-1.69-1.07-2.73-3.21-2.73-6.23,0-6.3,4.5-14,10-17.19,2.75-1.58,5.24-1.76,7.05-.77v0l-.5-.28v0c-1.81-1-4.3-.81-7.05.77-5.54,3.19-10,10.89-10,17.19,0,3,1.05,5.16,2.73,6.23h0l.15.08.12.08,4.91,2.83Z"/><path d="M59.1,152.89l-2.16-1.25-.13-.07-.14-.09h0c-1.69-1.07-2.73-3.21-2.73-6.23,0-6.3,4.5-14,10-17.19,2.75-1.58,5.24-1.76,7.05-.77v0l-.5-.28v0c-1.81-1-4.3-.81-7.05.77-5.54,3.19-10,10.89-10,17.19,0,3,1.05,5.16,2.73,6.23h0l.15.08.12.08,2.66,1.53Z"/><path class="cls-7" d="M139.41,107.52l14.43-24.2L146.3,79v0c-1.82-1-4.3-.81-7,.77-5.55,3.2-10,10.89-10,17.19,0,3,1,5.16,2.73,6.23h0l.15.09.12.07Z"/><path class="cls-8" d="M151.24,84.84,141,78.93a12.73,12.73,0,0,0-1.77.83c-5.55,3.2-10,10.89-10,17.19a10,10,0,0,0,.44,3.08l7.87,4.54a12,12,0,0,0,2.69-1.16,18,18,0,0,0,3-2.17l7.58-12.71A17.79,17.79,0,0,0,151.24,84.84Z"/><path class="cls-1" d="M156.59,89.6c0,6.3-4.5,14-10,17.19s-10,.68-10-5.62,4.49-14,10-17.19S156.59,83.3,156.59,89.6Z"/><path class="cls-1" d="M155.49,90.23c0,5.61-4,12.47-8.94,15.32s-9,.6-9-5,4-12.48,9-15.32S155.49,84.61,155.49,90.23Z"/><path class="cls-9" d="M154.41,90.84c0,5-3.53,11-7.88,13.5s-7.88.53-7.88-4.41,3.53-11,7.88-13.5S154.41,85.9,154.41,90.84Z"/><path class="cls-10" d="M153.52,91.36a15.29,15.29,0,0,1-7,12c-3.86,2.22-7,.47-7-3.91a15.28,15.28,0,0,1,7-12C150.39,85.23,153.52,87,153.52,91.36Z"/><path class="cls-11" d="M146.44,87.5a15.32,15.32,0,0,0-6.9,11.91,7.43,7.43,0,0,0,.19,1.7l5.1,2.94a7.64,7.64,0,0,0,1.7-.73,15.37,15.37,0,0,0,7-11.74Z"/><path class="cls-12" d="M142.62,91.06a16.13,16.13,0,0,0-2.83,6.13l8.46,4.88a16.16,16.16,0,0,0,4-5.45Z"/><path class="cls-12" d="M142.62,91.06a16.13,16.13,0,0,0-2.83,6.13l8.46,4.88a16.16,16.16,0,0,0,4-5.45Z"/><path class="cls-13" d="M151.28,91.29a12.19,12.19,0,0,1-5.55,9.51c-3.07,1.76-5.56.37-5.56-3.11a12.14,12.14,0,0,1,5.56-9.51C148.79,86.41,151.28,87.8,151.28,91.29Z"/><path class="cls-14" d="M150.3,91.52a10.44,10.44,0,0,1-4.76,8.16c-2.63,1.51-4.77.32-4.77-2.67a10.45,10.45,0,0,1,4.77-8.16C148.17,87.34,150.3,88.53,150.3,91.52Z"/><path class="cls-10" d="M143.06,91.05a.82.82,0,0,0-.26-.23A12.69,12.69,0,0,0,142,92a1.15,1.15,0,0,0,.71,0A.59.59,0,0,0,143.06,91.05Z"/><path class="cls-10" d="M150.24,93.87c.32-.41.25-.77-.15-.81a1.75,1.75,0,0,0-1.3.7c-.31.41-.25.78.15.81A1.75,1.75,0,0,0,150.24,93.87Z"/><path class="cls-10" d="M141.88,97.1c.1-.49-.14-.69-.55-.42a2.5,2.5,0,0,0-.94,1.38c-.1.49.14.69.55.42A2.5,2.5,0,0,0,141.88,97.1Z"/><path class="cls-10" d="M148,88.31c-.15-.4-.48-.36-.76.11A2.18,2.18,0,0,0,147,90c.14.4.48.35.75-.11A2.14,2.14,0,0,0,148,88.31Z"/><path class="cls-10" d="M141.83,93.67c.37-.34.39-.73,0-.88a.73.73,0,0,0-.3-.06,11.44,11.44,0,0,0-.62,1.33A1.59,1.59,0,0,0,141.83,93.67Z"/><path class="cls-10" d="M141.62,99.72c.06.45.38.47.71.06a2.37,2.37,0,0,0,.47-1.58c-.07-.45-.39-.47-.72-.06A2.41,2.41,0,0,0,141.62,99.72Z"/><path class="cls-10" d="M141.53,95.5c.26-.46.14-.78-.28-.72a1.61,1.61,0,0,0-.68.32,11.16,11.16,0,0,0-.3,1.34h0A2.05,2.05,0,0,0,141.53,95.5Z"/><path class="cls-10" d="M149.33,96.44c.4-.27.48-.67.17-.91a1.17,1.17,0,0,0-1.28,0c-.4.27-.48.67-.17.91A1.17,1.17,0,0,0,149.33,96.44Z"/><path class="cls-10" d="M146.29,99.38a1.24,1.24,0,0,0-.61-1.14c-.36-.14-.66.14-.67.64a1.2,1.2,0,0,0,.61,1.14C146,100.16,146.27,99.88,146.29,99.38Z"/><path class="cls-10" d="M143.39,98.92a1.8,1.8,0,0,0,.07,1.49c.24.33.58.18.77-.32a1.85,1.85,0,0,0-.08-1.49C143.92,98.28,143.58,98.42,143.39,98.92Z"/><path class="cls-10" d="M148.16,97.77a1,1,0,0,0-1-.6.6.6,0,0,0-.46.85,1,1,0,0,0,1,.6A.6.6,0,0,0,148.16,97.77Z"/><path class="cls-10" d="M148.79,91.07a2.48,2.48,0,0,0,.75-1.5c0-.49-.26-.61-.64-.27a2.52,2.52,0,0,0-.74,1.5C148.13,91.29,148.41,91.41,148.79,91.07Z"/><path class="cls-10" d="M143.38,90.12a1,1,0,0,0,.66.5c.39,0,.65-.29.59-.75a1.13,1.13,0,0,0-.33-.65A11.11,11.11,0,0,0,143.38,90.12Z"/><path class="cls-10" d="M149.9,91.05a2.25,2.25,0,0,0-1.13,1.16c-.2.49,0,.76.41.6a2.25,2.25,0,0,0,1.13-1.16C150.51,91.16,150.32,90.89,149.9,91.05Z"/><path class="cls-10" d="M145.28,88.46a1,1,0,0,0,0,.1,1.55,1.55,0,0,0,.32,1.37c.29.24.62,0,.74-.47a1.54,1.54,0,0,0-.32-1.37l0,0-.21.11C145.58,88.26,145.43,88.36,145.28,88.46Z"/><path class="cls-10" d="M148.11,92.59a6.43,6.43,0,0,1-3,5c-1.63.94-2.95.2-2.95-1.65a6.43,6.43,0,0,1,2.95-5C146.79,90,148.11,90.74,148.11,92.59Z"/><path class="cls-11" d="M146,90.61a2.87,2.87,0,0,0-.82.33,6.43,6.43,0,0,0-2.95,5,2.68,2.68,0,0,0,.27,1.24l2.69-.56c1.05-.91,1.18-1.94,1.79-3.27Z"/><path class="cls-15" d="M146.05,95.51a9.12,9.12,0,0,0,.52-1.18,10.83,10.83,0,0,1-3.1-1.81,6.86,6.86,0,0,0-1.08,2.27A10.69,10.69,0,0,1,146.05,95.51Z"/><path class="cls-16" d="M148.11,93.93a4.6,4.6,0,0,1-2.1,3.59c-1.16.66-2.09.14-2.09-1.18A4.56,4.56,0,0,1,146,92.76C147.17,92.09,148.11,92.62,148.11,93.93Z"/><path class="cls-13" d="M147.47,94.73a2.47,2.47,0,0,1-1.13,1.94c-.63.37-1.14.08-1.14-.63a2.51,2.51,0,0,1,1.14-2C147,93.73,147.47,94,147.47,94.73Z"/><path d="M139.42,107.51,135,105l-.12-.07-.15-.09h0c-1.69-1.06-2.73-3.2-2.73-6.22,0-6.3,4.5-14,10-17.19,2.75-1.59,5.24-1.76,7.05-.78h0l-.5-.29v0c-1.81-1-4.3-.81-7,.77-5.55,3.2-10,10.89-10,17.19,0,3,1,5.16,2.72,6.23h0l.15.09.12.07,4.91,2.84Z"/><path d="M139.42,107.51l-2.17-1.25-.12-.07-.15-.09h0c-1.69-1.07-2.73-3.2-2.73-6.23,0-6.29,4.5-14,10-17.18,2.75-1.59,5.24-1.76,7.05-.78h0l-.5-.29v0c-1.81-1-4.3-.81-7.05.77-5.54,3.2-10,10.89-10,17.19,0,3,1.05,5.16,2.73,6.23h0l.15.09.12.07,2.66,1.54Z"/><path class="cls-17" d="M63,125.05l-11.2,6.41-7.7-2.33a144.31,144.31,0,0,1,8.64-11.9l3.49,3Z"/><path class="cls-18" d="M44.05,129.13l2,21.18s8.64-4.66,8.75-4.68a1.28,1.28,0,0,1,.48,0C56,139.21,60.51,132,66,128.8c2.61-1.5,5-1.85,6.91-1.16,2.16.79,3.61,2.94,3.9,6.15,0,.35,0,.73,0,1.11a17,17,0,0,1-.35,3.25l1.42-.83,53.63-33.13,3-1-1,2.57,2-.74a12,12,0,0,1-.37-3c0-.29,0-.6,0-.92.42-6.65,5.12-14.38,10.86-17.68,4.31-2.5,8.07-1.78,9.81,1.38a1.08,1.08,0,0,1,.7.57c.66,1.22.46,2.55.5,3.9a24.59,24.59,0,0,1-.46,3.6C158.21,92,169,85.73,169,85.73V64.8a1,1,0,0,0-.42-.92l-.21-.1c-.45-.16-22.54,12.46-23.23,12.56-1.33.19-2.91.5-3.83-.44a4.26,4.26,0,0,0-.53-.5l0,0-2.31,1.36L94.71,92.61h0l-.23.1c-.09.06-.21.11-.34.21-2.24,1.27-6.43,3.42-7.45,3.18a.4.4,0,0,1-.16-.08L55,119.18l-2.28-2Z"/><polygon class="cls-19" points="5.65 106.86 5.78 108.2 6.08 111.46 6.76 118.79 7 121.26 7.13 122.66 7.2 123.24 7.62 127.76 46 150.3 45.53 145.3 45.15 141.02 44.19 130.63 44.05 129.12 5.65 106.86"/><polygon class="cls-1" points="5.78 108.2 6.08 111.46 6.76 118.79 7 121.26 7.13 122.66 45.53 145.3 45.15 141.02 44.19 130.63 5.78 108.2"/><polygon class="cls-19" points="15.3 115.47 15.48 117.16 35.14 128.84 34.98 126.93 15.3 115.47"/><polygon class="cls-19" points="16.08 119.26 16.26 120.96 35.92 132.64 35.76 130.73 16.08 119.26"/><polygon class="cls-19" points="16.86 123.06 17.04 124.76 36.7 136.44 36.54 134.53 16.86 123.06"/><polygon class="cls-19" points="17.64 126.86 17.82 128.56 37.48 140.23 37.32 138.32 17.64 126.86"/><path class="cls-18" d="M76.86,134.89a15.89,15.89,0,0,1-.35,3.24l1.42-.81,55.63-31.53,2-.74a11.63,11.63,0,0,1-.38-3c0-.3,0-5,.06-5.31L76.84,129.41C76.87,129.75,76.86,134.51,76.86,134.89Z"/><path class="cls-18" d="M76.86,135.7c0-.38,0-5.14,0-5.48l58.39-32.68c0,.28-.06,4.13-.06,5.1a.89.89,0,0,0-.4.61,5.55,5.55,0,0,0,0,2l-1.19.52L77.93,137.33l-1.42.82A9.79,9.79,0,0,0,76.86,135.7Z"/><path class="cls-20" d="M144.47,81.08c5.12-2.94,10.44-1.45,12.36,2.45-.8-.6-2.54-1.67-3.27-2.21a2,2,0,0,0-2.59-.06c-1.77-.4-2.35.22-4.68,1.55-6,3.46-12.42,11.55-12.42,18.37a14.42,14.42,0,0,0,.09,1.51c.06.47-.51,2.67-.4,3.1,0,0,.47-5.66.47-6.5A20.12,20.12,0,0,1,144.47,81.08Z"/><path class="cls-21" d="M133.36,103.41a13.63,13.63,0,0,0,.2,2.38l2-.74a11.31,11.31,0,0,1-.25-1.36,12.09,12.09,0,0,1-.1-1.51c0-6.82,4.88-15.15,10.87-18.61,2.64-1.51,5-1.85,6.92-1.16,2.41.87,4,3.41,4,7.25a16.71,16.71,0,0,1-.35,3.24l1.41-.81a18.48,18.48,0,0,0,.26-3c0-7.82-5.58-10.94-12.46-7S133.36,95.6,133.36,103.41Z"/><path class="cls-20" d="M48.18,149.44a4.73,4.73,0,0,1-4.5-.09l-38.91-22,0-2a2.51,2.51,0,0,1,.72-1.83l1.63-1.65.27,2.91,36.34,20.55a4.75,4.75,0,0,0,4.5.08l7.17-3.7-.72,4.37Z"/><path class="cls-22" d="M48.18,151.12a4.7,4.7,0,0,1-4.5-.08L6.89,130.24a4.3,4.3,0,0,1-2.17-3.64l0-1.6,39,22.05a4.75,4.75,0,0,0,4.5.08l7.17-3.7-.72,4.37Z"/><path class="cls-23" d="M11.36,93.36l9.41-23.47L62.11,93.76h0L52.7,117.22h0c-.86,1.49-10.81-2.64-22.23-9.23S10.5,94.85,11.36,93.36Z"/><path class="cls-24" d="M20.77,100.54c2.3,1.6,5.06,3.37,8.26,5.26a2.38,2.38,0,0,1,.3.18l1.5-1.54L32.27,103l2.11-2.14.31-.31,1.11.63,7.89,4.66-5.13,5.25.73.37c1.18.59,2.29,1.13,3.34,1.63l1.73.77a2.24,2.24,0,0,0,.22.11c.45.2.89.39,1.29.55l.05,0,.74.31.1,0c.6.23,1.16.46,1.68.63l.74.25c.74.24,1.39.41,1.9.53l.33,0,.37,0h.08v0l2.45-4.23,6.23-17.94-5.83-3.34-.43-.26s0,0,0,0L41.13,83,40,82.36,39.34,82l-1.1-.63-1.47-.85-.26-.15L22.17,90.65l.32.11,1.36.53,1.27.5,2.75,1.52Z"/><path class="cls-25" d="M14.68,87.74l6.77-16.55L24,73.11l-2.26,1.3-3.49,13.2.07,1,0,.61-.14-.06-.46,0-4.92,5a3.5,3.5,0,0,1-.33-.48Z"/><path class="cls-26" d="M15.38,88.73l1.3.46,1.09-.06.46,0,.14.06,3.81,1.48.31.12,1.36.52,1.27.5,2.75,1.52,4.35,2.4,1,2,1.43,2.81,0,0,1.12.62,7.89,4.67,10.61,6.29-2.44,4.23h-.08l-.38,0a2,2,0,0,1-.33,0,18.62,18.62,0,0,1-1.91-.52l-.74-.25c-.51-.18-1.07-.4-1.67-.63l-.08,0h0c-.25-.09-.49-.2-.73-.3h0l-1.3-.56-.23-.1-1.72-.79c-1-.49-2.16-1-3.34-1.63-.24-.11-.49-.24-.73-.37h0c-2.3-1.17-4.82-2.54-7.5-4.08-.59-.34-1.16-.67-1.72-1-3.31-2-6.18-3.79-8.56-5.44-4.24-2.9-7-5.19-7.92-6.39a3.5,3.5,0,0,1-.33-.48Z"/><path class="cls-27" d="M13,92.82a3.28,3.28,0,0,0,.32.47c1,1.21,3.68,3.49,7.93,6.4,2.37,1.64,5.24,3.48,8.56,5.44.56.33,1.12.67,1.72,1,2.68,1.54,5.19,2.91,7.49,4.08h0c.25.13.49.26.73.37,1.19.61,2.3,1.14,3.34,1.63l1.72.78.23.11,1.3.56h0l.73.3h0a.2.2,0,0,1,.09,0c.6.23,1.16.45,1.67.62.25.1.51.18.74.26a17.87,17.87,0,0,0,1.9.52l.34,0,.37,0h.07l-.49.85h-.08l-.38,0a2,2,0,0,1-.33,0,18.62,18.62,0,0,1-1.91-.52l-.74-.25c-.51-.18-1.07-.4-1.67-.63l-.08,0h0c-.25-.09-.49-.2-.73-.3h0l-1.3-.56-.23-.1-1.72-.79c-1-.49-2.16-1-3.34-1.63-.24-.11-.49-.24-.73-.37h0c-2.3-1.17-4.82-2.54-7.5-4.08-.59-.34-1.16-.67-1.72-1-3.31-2-6.18-3.79-8.56-5.44-4.25-2.9-7-5.19-7.92-6.39a3.5,3.5,0,0,1-.33-.48Z"/><path class="cls-5" d="M21.76,74.41,24,73.11l12.21,7h0l.26.15L22.18,90.65l-3.81-1.48,0-.61-.07-1Z"/><polygon class="cls-3" points="82.81 81.65 62.11 93.76 52.7 117.22 89.16 96.81 82.81 81.65"/><path class="cls-28" d="M20.76,70l.65-.36h0l19.27-10,37.88,25.3L62.2,93.84s-9.87-5.08-21.29-11.67S20.77,69.89,20.76,70Z"/><polygon class="cls-3" points="84.41 80.73 89.16 96.81 87.09 96.64 82.81 81.65 84.41 80.73"/><polygon class="cls-3" points="88.46 78.37 94.14 92.93 89.16 96.81 84.41 80.73 88.46 78.37"/><path class="cls-6" d="M20.77,69.89l1.86,1.59L55.21,90.89l6.5,3.86.4-.52a2.62,2.62,0,0,1,.38-.56c1.43-2,6.26-5.41,15.59-11.33-9.6,9.54-7.89,16.82,12.52-9.57L77.67,80.35,36.76,56.07s0,2.4,0,2.44C26.43,65.06,21.5,68.38,20.77,69.89Z"/><polygon class="cls-18" points="78.08 82.34 94.13 92.92 94.13 92.94 94.47 92.74 94.7 92.61 94.71 92.61 168.97 50.55 168.97 50.54 168.78 28.98 168.76 26.84 77.67 77.47 77.83 81.84 78.08 82.34"/><polygon class="cls-3" points="90.41 109.38 145.14 78.64 145.96 78.18 168.65 64.98 168.97 64.8 168.97 50.54 94.47 92.71 94.47 92.74 90.41 109.38"/><path class="cls-29" d="M86.91,102.88a2.13,2.13,0,0,1,1.6-2.19l0,7.18-.63.18c-.56.15-.94.48-1-.94C87,107.11,86.85,104.92,86.91,102.88Z"/><path class="cls-6" d="M36.76,53.2,127.33,0l41.43,24L77.67,77.47S35.88,53.66,36.76,53.2Z"/><polygon class="cls-23" points="36.76 53.2 77.67 77.47 78.08 82.34 36.77 58.51 36.76 53.2"/><path class="cls-18" d="M62.48,93.67,86.68,79.4l1.77-1-4.71,2.68,85.07-53.28,0,1.21,0-5L77.67,77.47s11.53-4.64,11.24-2.25c-.41,3.28-10.81,7.1-10.83,7.12-.44.27-.89.56-1.32.84C68,88.84,63.85,91.75,62.48,93.67Z"/><path class="cls-17" d="M44.49,133.92l.64,7L169,69.16V50.54l-.16-20.94L78.08,82.34s-13.18,8-14.62,10c-.19.22-1.28,1.74-1.35,1.88l-.35.45L52.7,117.22l-8.64,11.91Z"/><path class="cls-27" d="M22.22,106.81l.59-.7a.79.79,0,0,0-.28-1.19L17,101.49a1.71,1.71,0,0,0-2.38.4l-.35.63a.82.82,0,0,0,.36,1.07L20,107A1.78,1.78,0,0,0,22.22,106.81Z"/><path class="cls-27" d="M42.51,117.76l.63-.75a.73.73,0,0,0-.31-1.15l-7.17-3.51a2,2,0,0,0-2.5.66l-.36.65a.73.73,0,0,0,.38,1l7,3.51A2,2,0,0,0,42.51,117.76Z"/><polygon class="cls-20" points="162.11 93.47 176.47 85.19 168.97 80.84 168.97 85 158.13 91.18 162.11 93.47"/><polygon class="cls-21" points="176.47 86.2 162.11 94.49 162.11 93.47 176.47 85.19 176.47 86.2"/><polygon class="cls-22" points="162.11 94.49 158.13 92.19 158.13 91.18 162.11 93.47 162.11 94.49"/><polygon class="cls-20" points="78.84 139.51 137.63 105.57 135.38 104.28 76.48 138.17 78.84 139.51"/><polygon class="cls-21" points="137.63 106.58 78.84 140.52 78.84 139.51 137.63 105.57 137.63 106.58"/><polygon class="cls-22" points="78.84 140.52 76.02 138.82 76.02 137.81 78.84 139.51 78.84 140.52"/><path class="cls-27" d="M19.31,139.06a2.09,2.09,0,0,1-1-1.59v-2.83c0-.56.45-.75,1-.43l7.46,4.31a2.08,2.08,0,0,1,1,1.59v2.83c0,.56-.45.75-1,.43Z"/><path class="cls-30" d="M19.31,138.49a2.11,2.11,0,0,1-1-1.59v-2.84c0-.55.45-.74,1-.42L26.77,138a2.08,2.08,0,0,1,1,1.59v2.83c0,.55-.45.75-1,.43Z"/><path class="cls-30" d="M26.77,142.61l-7.46-4.31a1.72,1.72,0,0,1-.82-1.29v-2.84c0-.45.37-.6.82-.34l7.46,4.31a1.66,1.66,0,0,1,.82,1.29v2.83C27.59,142.71,27.23,142.87,26.77,142.61Z"/><path class="cls-31" d="M27.59,139.41a1.68,1.68,0,0,0-.82-1.27l-7.46-4.31c-.45-.26-.8-.11-.81.33Z"/><path class="cls-31" d="M18.49,137a1.74,1.74,0,0,0,.82,1.27l7.46,4.31c.45.25.81.1.82-.33Z"/><path class="cls-32" d="M166.11,79.62V81.1a.79.79,0,0,1-.39.68l-2.65,1.53a.32.32,0,0,1-.48-.28v-.18l2.22-1.28a.79.79,0,0,0,.39-.68v-1.3l.43-.25A.32.32,0,0,1,166.11,79.62Z"/><path class="cls-33" d="M165.2,79.59v1.3a.79.79,0,0,1-.39.68l-2.22,1.28v-1.3a.79.79,0,0,1,.39-.68Z"/><path class="cls-32" d="M166,27.73v1.48a.79.79,0,0,1-.39.68l-2.65,1.53a.32.32,0,0,1-.48-.28V31l2.22-1.28a.77.77,0,0,0,.39-.67V27.7l.43-.24A.32.32,0,0,1,166,27.73Z"/><path class="cls-33" d="M165.05,27.7V29a.77.77,0,0,1-.39.67L162.44,31v-1.3a.79.79,0,0,1,.39-.68Z"/><path class="cls-32" d="M83.17,75.76v1.48a.78.78,0,0,1-.4.68l-2.65,1.53a.32.32,0,0,1-.48-.28V79l2.22-1.27a.79.79,0,0,0,.39-.68V75.73l.44-.24A.32.32,0,0,1,83.17,75.76Z"/><path class="cls-33" d="M82.25,75.73V77a.79.79,0,0,1-.39.68L79.64,79v-1.3A.79.79,0,0,1,80,77Z"/><path class="cls-32" d="M83.17,127.73v1.48a.78.78,0,0,1-.4.68l-2.65,1.53a.33.33,0,0,1-.48-.28V131l2.22-1.28a.79.79,0,0,0,.39-.68v-1.3l.44-.25A.33.33,0,0,1,83.17,127.73Z"/><path class="cls-33" d="M82.25,127.7V129a.79.79,0,0,1-.39.68L79.64,131v-1.3A.79.79,0,0,1,80,129Z"/><path class="cls-27" d="M75.28,106.08A5.71,5.71,0,0,0,78,101.19L77.87,89A2.87,2.87,0,0,0,75,86.15a2.83,2.83,0,0,0-1.49.43l-8,4.92a7.16,7.16,0,0,0-3,3.73l-4.25,12.26.54,8.59Z"/><path class="cls-34" d="M65.88,92.15l7.76-4.8a2.29,2.29,0,0,1,3.5,1.93l.12,11.91a5,5,0,0,1-2.41,4.35l-15.33,9.34-.47-7.48,4.12-11.87A6.43,6.43,0,0,1,65.88,92.15Z"/><path class="cls-1" d="M58.64,110.4c.24-1.61-.16-4.15,1.17-5.39a1.9,1.9,0,0,1,1.38-.31c.58,0,1.15,0,1.73,0a2.62,2.62,0,0,1,1.77.73c1.07.88.67,2.91.57,4.12-.12,1.54-.36,3.07-.54,4.6a8.84,8.84,0,0,1-.47,2.34c-.52,1.24-2,1.46-3.15,1.5a2.17,2.17,0,0,1-1.77-.59,1.61,1.61,0,0,1-.34-1.26c0-.64,0-1.28,0-1.92a1.43,1.43,0,0,0,0-.51.29.29,0,0,0-.08-.13.24.24,0,0,0-.19,0,4.45,4.45,0,0,0-1.43.71,2.29,2.29,0,0,1-1.47.41.28.28,0,0,1-.19-.09.31.31,0,0,1-.09-.2,3.71,3.71,0,0,1,.78-3.27c.55-.68,1.29-.59,2.08-.55h.1a.11.11,0,0,0,.11,0A.14.14,0,0,0,58.64,110.4Z"/><path class="cls-30" d="M27.18,128.07A4.79,4.79,0,0,0,25,124.21a1.86,1.86,0,0,0-1.72-.22,1.6,1.6,0,0,0-.66,1.41,5,5,0,0,0,2.23,3.92C26.14,130.06,27.17,129.5,27.18,128.07Z"/><path class="cls-35" d="M37.54,128.91l.3,4.76a2.09,2.09,0,0,0,1,1.79L43.31,138a.84.84,0,0,0,1.26-.72l0-1.31-.31-3.45a2.1,2.1,0,0,0-.45-1.31,2.25,2.25,0,0,0-.58-.48l-4-2.29-.4-.22a.7.7,0,0,0-.5-.1A.82.82,0,0,0,37.54,128.91Z"/><path class="cls-36" d="M38.31,128.09l.37,5.45a1.32,1.32,0,0,0,.71,1.08l3.13,1.63.78.43a.49.49,0,0,0,.75-.48l-.22-5a2.25,2.25,0,0,0-.58-.48l-4-2.29-.4-.22A.7.7,0,0,0,38.31,128.09Z"/><path class="cls-35" d="M38.11,137.53l.08,1.1a2.09,2.09,0,0,0,1,1.79l4.45,2.51a.84.84,0,0,0,1.26-.72l-.07-1.11a2.14,2.14,0,0,0-.45-1.31,2.25,2.25,0,0,0-.58-.48l-4-2.28-.4-.23a.7.7,0,0,0-.5-.1A.83.83,0,0,0,38.11,137.53Z"/><path class="cls-36" d="M38.88,136.7l.15,1.8a1.32,1.32,0,0,0,.71,1.08l3.13,1.63.77.43a.49.49,0,0,0,.76-.48v-1.37a2.25,2.25,0,0,0-.58-.48l-4-2.28-.4-.23A.7.7,0,0,0,38.88,136.7Z"/><path class="cls-20" d="M51.84,143.57a22,22,0,0,1,1.87-6c2.7-5.93,4.83-8.07,9.8-10.93,3.34-1.93,8.07-3.32,11.1-1,2,1.57,2.76,3.17,3.42,6.53-3.51-8.37-9.28-5.49-14.07-2.73a21.33,21.33,0,0,0-7.56,8.13c1.35-.93-1.7,7.48-1.7,7.48l-1,.22c-.15.93,1.19.64,1.19,1.54,0,.47-.62-3.37-1-2.79Z"/><path class="cls-21" d="M55.13,147.54a20.36,20.36,0,0,1-1.85,1.09c0-7.8,5.57-17.35,12.44-21.31s12.47-.84,12.47,7a19.55,19.55,0,0,1-.26,3l-1.42.81a16.63,16.63,0,0,0,.35-3.24c0-3.84-1.54-6.38-4-7.25C71,127,68.62,127.29,66,128.8c-6,3.46-10.87,11.79-10.87,18.61C55.12,147.46,55.13,147.5,55.13,147.54Z"/><polygon class="cls-5" points="42.37 115.28 42.8 115.6 40.52 118.8 39.97 118.59 42.37 115.28"/><polygon class="cls-5" points="41.02 114.47 41.45 114.8 39.17 118 38.62 117.79 41.02 114.47"/><polygon class="cls-5" points="39.67 113.67 40.1 113.99 37.82 117.19 37.27 116.98 39.67 113.67"/><polygon class="cls-5" points="38.32 112.86 38.75 113.19 36.47 116.39 35.92 116.18 38.32 112.86"/><polygon class="cls-5" points="36.91 112.16 37.34 112.48 35.05 115.68 34.51 115.47 36.91 112.16"/><polygon class="cls-5" points="35.31 111.69 35.74 112.02 33.45 115.22 32.91 115.01 35.31 111.69"/><polygon class="cls-5" points="22.82 104.78 23.17 105.17 20.8 107.83 20.32 107.54 22.82 104.78"/><polygon class="cls-5" points="21.53 103.94 21.88 104.33 19.51 106.99 19.03 106.7 21.53 103.94"/><polygon class="cls-5" points="20.13 103.23 20.48 103.61 18.11 106.28 17.63 105.98 20.13 103.23"/><polygon class="cls-5" points="18.98 102.23 19.34 102.62 16.96 105.28 16.49 104.99 18.98 102.23"/><polygon class="cls-5" points="17.72 101.37 18.07 101.76 15.7 104.42 15.22 104.13 17.72 101.37"/><polygon class="cls-5" points="16.48 100.5 16.84 100.88 14.46 103.55 14.12 103.11 16.48 100.5"/><path class="cls-23" d="M110.69,15.6l.51-.28,0,0L131.62,2.9l13.95,8L124,23.52C125,24.13,109.67,23.07,110.69,15.6Z"/><path class="cls-37" d="M103.62,15.6l.51-.28,0,0L124.55,2.9l14,8L117.57,23.52S103.62,15.55,103.62,15.6Z"/><polygon class="cls-38" points="103.62 15.6 101.75 20.39 115.7 28.37 117.57 23.52 103.62 15.6"/><polygon class="cls-39" points="117.57 23.52 115.7 28.37 141.37 13.4 138.5 10.89 117.57 23.52"/><path class="cls-40" d="M132.05,11l-7.56-4.3-14.62,8.88,7.56,4.24Z"/><path class="cls-37" d="M114.67,20.67l-.69-.48L132.71,8.91l.34.34-.22.13.35.2C129.54,11.65,124.18,15.18,114.67,20.67Z"/><path class="cls-37" d="M112.92,19.62l-.69-.48L131,7.86l.34.33-.22.14.35.19C127.79,10.59,122.44,14.12,112.92,19.62Z"/><path class="cls-37" d="M111.18,18.57l-.69-.49L129.21,6.8l.34.34-.21.13.35.2C126,9.54,120.69,13.07,111.18,18.57Z"/><path class="cls-37" d="M109.43,17.51l-.69-.48L127.47,5.75l.34.34-.22.13.35.19C124.3,8.48,118.94,12,109.43,17.51Z"/><path class="cls-41" d="M44.19,130.62l1.68-.92a2.22,2.22,0,0,1,3.26,1.79l.52,7.95a4.58,4.58,0,0,1-1.7,3.88l-2.42,2Z"/><polygon class="cls-19" points="33.01 123.72 34.54 140.15 37.61 141.98 36.1 125.25 33.01 123.72"/><polygon class="cls-19" points="13.7 112.35 15.23 128.78 18.3 130.61 16.79 113.89 13.7 112.35"/><path class="cls-42" d="M45.22,131.86l.37,9.58a1.14,1.14,0,0,0,1.88.81,3.45,3.45,0,0,0,1.42-2.1c0-1.47-.66-8.69-.66-8.69S47.34,129.13,45.22,131.86Z"/><path class="cls-35" d="M6.64,110.88,7,115.64a2.09,2.09,0,0,0,1,1.79l4.45,2.51a.84.84,0,0,0,1.26-.72l0-1.31-.31-3.45a2,2,0,0,0-1-1.8l-4-2.28-.4-.23a.7.7,0,0,0-.5-.09A.83.83,0,0,0,6.64,110.88Z"/><path class="cls-36" d="M7.42,110.06l.37,5.45a1.32,1.32,0,0,0,.71,1.08l3.13,1.62.78.44a.49.49,0,0,0,.75-.48l-.22-5a2.1,2.1,0,0,0-.58-.49l-4-2.28-.4-.23A.7.7,0,0,0,7.42,110.06Z"/><path class="cls-35" d="M7.22,119.49l.08,1.11a2.1,2.1,0,0,0,1,1.79l4.45,2.51a.84.84,0,0,0,1.26-.73l-.07-1.1a2.1,2.1,0,0,0-.45-1.31,2.25,2.25,0,0,0-.58-.48l-4-2.29-.4-.22a.7.7,0,0,0-.5-.1A.82.82,0,0,0,7.22,119.49Z"/><path class="cls-36" d="M8,118.67l.15,1.8a1.32,1.32,0,0,0,.71,1.08L12,123.17l.77.44a.5.5,0,0,0,.76-.49v-1.36a2.25,2.25,0,0,0-.58-.48l-4-2.29-.4-.22A.7.7,0,0,0,8,118.67Z"/><path class="cls-27" d="M30.35,105.75l.73.42.21.11c.29.18.58.34.87.5l.35-.93,1.87-5,.29-.76L41.13,83,40,82.36,39.34,82,31.13,103.7l-.3.74-.12.36Z"/><polygon class="cls-43" points="28.96 105.99 30.75 107.04 31.08 106.17 32.27 102.99 40.03 82.36 39.34 81.95 38.24 81.32 29.03 105.8 28.96 105.99"/></g></g></svg>