<svg xmlns="http://www.w3.org/2000/svg" xmlns:xlink="http://www.w3.org/1999/xlink" viewBox="0 0 18 113.52"><defs><style>.cls-1{fill:none;}.cls-2{opacity:0.25;}.cls-3{clip-path:url(#clip-path);}.cls-4{fill:#f2d0b8;}.cls-5{fill:#e5e5e5;}.cls-6{fill:#cbcbcb;}.cls-7{fill:#f2f2f2;}.cls-8{clip-path:url(#clip-path-2);}.cls-9{fill:#f1ccad;}.cls-10{fill:#eec1a6;}.cls-11{clip-path:url(#clip-path-3);}.cls-12{fill:#212426;}.cls-13{fill:#42484d;}.cls-14{fill:#2c3033;}.cls-15{fill:#e1771c;}.cls-16{fill:#e8a126;}.cls-17{opacity:0.1;}.cls-18{clip-path:url(#clip-path-4);}.cls-19{clip-path:url(#clip-path-5);}.cls-20{opacity:0.05;}.cls-21{clip-path:url(#clip-path-6);}.cls-22{fill:#f0c7a3;}.cls-23{fill:#e5aa89;}.cls-24{clip-path:url(#clip-path-7);}.cls-25{clip-path:url(#clip-path-8);}.cls-26{fill:#f1cdb2;}.cls-27{fill:#450000;}.cls-28{fill:#360000;}.cls-29{fill:#590000;}.cls-30{fill:#6e0000;}.cls-31{fill:#edbc2e;}.cls-32{fill:#d06b19;}.cls-33{fill:url(#Degradado_sin_nombre_291);}.cls-34{fill:#fff;}.cls-35{fill:#828282;}.cls-36{fill:#757575;}.cls-37{fill:#666;}.cls-38{fill:#5e5e5e;}.cls-39{fill:#9e9e9e;}</style><clipPath id="clip-path"><path class="cls-1" d="M5.62,77.77A1,1,0,0,1,7,78.3c1.13,2.7-1,7-1,7H6a1.25,1.25,0,0,1-2.39-.72,19.68,19.68,0,0,1,.51-4.46A3.05,3.05,0,0,1,5.62,77.77Z"/></clipPath><clipPath id="clip-path-2"><path class="cls-1" d="M2.22,88.41s-.31-.16-.1-.8a2.79,2.79,0,0,1,.68-1.22l.83-1.81A1.25,1.25,0,0,1,6,85.27a20.41,20.41,0,0,1-.72,2,1.94,1.94,0,0,1-.18,1.16,1.06,1.06,0,0,1-1.28.7,15.35,15.35,0,0,0-1.39,2.2,2.36,2.36,0,0,0,.08.7c.1.33-.18,1-.21,1.32a5.72,5.72,0,0,1-.13.77s0,.29-.08.37-.22,0-.22,0-.12.21-.5,0a1.08,1.08,0,0,1-.61-.64,3,3,0,0,1-.09-1.27c.09-.4.51-1.08.63-1.47S2.22,88.41,2.22,88.41Z"/></clipPath><clipPath id="clip-path-3"><path class="cls-1" d="M9.13,99.84h0a1.75,1.75,0,0,0-3.48.25,1.64,1.64,0,0,0,0,.23h0L6,102.26l.25,4s-.15.81.14,1.07c0,0-1.57,1-1.81,1.54s-.52,1.94.91,1.84,1.63-1.22,2.47-1.48,1.68-.48,1.13-1.55A15.62,15.62,0,0,0,9.31,106,33.42,33.42,0,0,0,9.13,99.84Z"/></clipPath><clipPath id="clip-path-4"><path class="cls-1" d="M9.29,94.81c.07-.39.41-2.16-.29-2.76a3.21,3.21,0,0,0-3-1,.84.84,0,0,0-.84.74A6.9,6.9,0,0,0,5,94.57l.3,3.92.35,1.94h0v0h0a1.75,1.75,0,0,0,3.46-.37s0-.1,0-.15l-.07-2.61S9.21,95.19,9.29,94.81Z"/></clipPath><clipPath id="clip-path-5"><path class="cls-1" d="M14.52,105.3l-.87-3.8L13.08,100a1.75,1.75,0,0,0-3.44.68,2.67,2.67,0,0,0,.13.4h0l1,2.68a29.44,29.44,0,0,1,.75,3.13c.07,1,.52,1.17.52,1.17a4.86,4.86,0,0,1-.8,2.27,1.19,1.19,0,0,0,0,1.14c.08.87,1.1.46,1.1.46,1.94-.93,1.65-2.29,2.13-2.83a1.12,1.12,0,0,0,0-1.27l.22-.13Z"/></clipPath><clipPath id="clip-path-6"><path class="cls-1" d="M12.88,91.55a3.26,3.26,0,0,0-3-1,.85.85,0,0,0-.84.75,7,7,0,0,0-.17,2.79L9.2,98l.26,2h0a1.75,1.75,0,0,0,3.47-.27v-.08h0V96.83s.15-2.14.22-2.52S13.57,92.16,12.88,91.55Z"/></clipPath><clipPath id="clip-path-7"><path class="cls-1" d="M13.58,93.67c.23-.36.37-.7.22-.78s-.48.41-.75.23,0-.54.22-.66.35-.48.62-.82.73-.35.68-.88-.08-1.82-.08-1.82a1.6,1.6,0,0,1-.29-1.07,1.39,1.39,0,0,1,.27-1l.07-1.68a1.25,1.25,0,1,1,2.5-.18L17.09,87a1.59,1.59,0,0,1,.19,1.33,1.06,1.06,0,0,1-.92.82,19.63,19.63,0,0,1-.47,2.7,7.11,7.11,0,0,1-.54,1.5c-.76,1.42-2.2,1.42-2.38,1.06S13.35,94,13.58,93.67Z"/></clipPath><clipPath id="clip-path-8"><path class="cls-1" d="M11.68,78.85a1,1,0,0,1,1.39-.47c2.6,1.34,3.75,6,3.75,6h0a1.25,1.25,0,0,1-2.3,1A19.42,19.42,0,0,1,12,81.61,3.06,3.06,0,0,1,11.68,78.85Z"/></clipPath><linearGradient id="Degradado_sin_nombre_291" x1="1973.41" y1="71.84" x2="1979.01" y2="71.84" gradientTransform="matrix(-1, 0, 0, 1, 1984.67, 0)" gradientUnits="userSpaceOnUse"><stop offset="0" stop-color="#e1771c"/><stop offset="0.5" stop-color="#dc731b"/><stop offset="1" stop-color="#d06b19"/></linearGradient></defs><title>Recurso 54</title><g id="Capa_2" data-name="Capa 2"><g id="personajes"><ellipse class="cls-2" cx="9.03" cy="109.89" rx="7.79" ry="3.63"/><g class="cls-3"><path class="cls-4" d="M5.65,85.59a5.47,5.47,0,0,1-.57,1.48c-.4.63-.82,1.26-.92,1.42s-.58.85-1,1.48l-.46.69a3.37,3.37,0,0,0-.27.5s0,0,0,0a1.69,1.69,0,0,0,0,.87,2.39,2.39,0,0,1-.14.88c0,.22-.12.92-.12.92l-.08.22,0,.17-.1.15-.16-.07,0,.09-.39-.07a5.38,5.38,0,0,1-.5-.49,6.58,6.58,0,0,1-.16-1.26c0-.06.46-1.06.62-1.4,0-.09.14-.36.27-.74.33-1,.87-2.72,1.08-3.47a7.48,7.48,0,0,1,.63-1.47c.23-.42.46-.78.59-1a11.84,11.84,0,0,0,.68-1.81s1.42-.15,1.63.17-.47,2.24-.63,2.68"/><path class="cls-5" d="M3.88,81.85a1.55,1.55,0,0,0,0,.23l0,.12c-.15.81-.12,1.63-.26,2.45a8.18,8.18,0,0,1-.72,1.95.25.25,0,0,1,0,.07l-.06.14c-.12.23-.24.45-.34.69a3.62,3.62,0,0,0-.13.35c-.09.39.23.43.53.52l.12,0a2.41,2.41,0,0,0,.71.13,1.41,1.41,0,0,0,1.08-.34,1.13,1.13,0,0,0,.23-.34c.22-.45.44-.9.63-1.36a9.58,9.58,0,0,0,.5-1.25c.13-.45.25-.89.37-1.33s.24-1,.34-1.49L6.85,82A11.93,11.93,0,0,0,7,79.8a5.7,5.7,0,0,0-.13-1.09c-.07-.29-.07-.62-.39-.77l-.07,0a.91.91,0,0,0-.21,0h0a1.21,1.21,0,0,0-.83.31,3.28,3.28,0,0,0-.86,1.2v0a.42.42,0,0,0,0,.1.49.49,0,0,0,0,.11c-.25.72-.36,1.51-.55,2.25"/><path class="cls-6" d="M2.58,87a1.61,1.61,0,0,0-.19.6,1.15,1.15,0,0,0,.39.71l.12.14a2.4,2.4,0,0,0,.7.13,1.42,1.42,0,0,0,1.09-.34,1.13,1.13,0,0,0,.23-.34c.22-.45.44-.9.63-1.36a9.58,9.58,0,0,0,.5-1.25c.13-.45.25-.89.37-1.33s.24-1,.34-1.49L6.85,82A11.93,11.93,0,0,0,7,79.8a5.7,5.7,0,0,0-.13-1.09c-.07-.29-.07-.62-.39-.77l-.07,0a.91.91,0,0,0-.21,0,1.13,1.13,0,0,1,.16.52A12.35,12.35,0,0,1,6.25,82a.5.5,0,0,1-.2.38.47.47,0,0,1-.33,0l-.41-.05.51.41a.15.15,0,0,0-.09.21,1.71,1.71,0,0,0,.13.23.23.23,0,0,1,0,.25c-.13.13-.34-.07-.51,0a1.69,1.69,0,0,0,.29.37,1,1,0,0,1,.06.92c-.15.31-.59.12-.89.06l.4.6c.2.32,0,.5-.07.82s-.19.59-.54.45a.61.61,0,0,1-.7.9A1.1,1.1,0,0,1,3.22,87,4.53,4.53,0,0,0,3,86.54a.08.08,0,0,0,0,0,.1.1,0,0,0-.07,0,3.35,3.35,0,0,0-.26.42"/><path class="cls-6" d="M3.88,81.85a1.55,1.55,0,0,0,0,.23l0,.12c-.15.81-.12,1.63-.26,2.45a8.18,8.18,0,0,1-.72,1.95,3.64,3.64,0,0,0,.39-.76,5.09,5.09,0,0,1,.32-.76.39.39,0,0,1,.2-.16,1.45,1.45,0,0,1,.36,0,1.2,1.2,0,0,1,.38,0,1.1,1.1,0,0,1-.53-.42c-.06-.09-.23-.37-.06-.44a.39.39,0,0,1,.24,0l.17,0a1.44,1.44,0,0,1-.47-1,1.13,1.13,0,0,1,.06-.63.5.5,0,0,1,.45-.24.86.86,0,0,0,.5-.14A1.57,1.57,0,0,1,4,81.93l.29-.31,0,0c0-.09-.19-.08-.17-.16.33-.14.72.12,1.06,0a1.18,1.18,0,0,1-.66-.21,1.15,1.15,0,0,1-.24-.91,3.46,3.46,0,0,1,.09-.72c-.25.72-.36,1.51-.55,2.25"/><path class="cls-7" d="M2.74,86.57l.13-.1a1.29,1.29,0,0,0,.19.7,1.47,1.47,0,0,0,.5.46,1.23,1.23,0,0,0,.9.13A1,1,0,0,0,5,87.49a1.06,1.06,0,0,0,.19-.24,1.43,1.43,0,0,1,0,.74,2.16,2.16,0,0,1-.32.71,1.1,1.1,0,0,1-.21.22.89.89,0,0,1-.53.12,3.68,3.68,0,0,1-1.79-.71l-.1-.1a.64.64,0,0,1,0-.51A4,4,0,0,1,2.41,87a1.5,1.5,0,0,1,.33-.46"/></g><g class="cls-8"><path class="cls-4" d="M5.64,85.59a5.47,5.47,0,0,1-.56,1.48c-.4.63-.82,1.26-.92,1.42L3.15,90c-.17.25-.32.49-.45.69a3.86,3.86,0,0,0-.28.49s0,0,0,.06a1.75,1.75,0,0,0,.05.86,2.65,2.65,0,0,1-.13.89c0,.22-.13.91-.13.91l-.07.23,0,.16L2,94.42l-.15-.07-.06.09-.38-.07a4.37,4.37,0,0,1-.5-.49,5.92,5.92,0,0,1-.17-1.26c0-.06.46-1.06.62-1.4a6.34,6.34,0,0,0,.27-.74c.33-1,.87-2.72,1.08-3.47a7.48,7.48,0,0,1,.63-1.47c.23-.43.46-.78.59-1a12.17,12.17,0,0,0,.69-1.81s1.41-.15,1.63.17-.48,2.24-.64,2.68"/><path class="cls-9" d="M2.06,91.5a1.83,1.83,0,0,1,0-.33A.51.51,0,0,0,2,90.85l0,0H2c-.07,0-.11.09-.15.15a1.3,1.3,0,0,0-.07.48.67.67,0,0,1-.14.46,1.13,1.13,0,0,1-.26.16.47.47,0,0,0-.12.07.46.46,0,0,0-.08.13L1,92.55a.58.58,0,0,0-.05.14.55.55,0,0,0,0,.18,8.69,8.69,0,0,0,.07.88.19.19,0,0,0,0,.08.07.07,0,0,0,.08,0s0-.09,0-.14a1.72,1.72,0,0,1,0-.64.77.77,0,0,1,.39-.62.17.17,0,0,1,.18,0s0,.11,0,.17a.6.6,0,0,0,.06.19.66.66,0,0,1,0,.2c0,.17,0,.34,0,.5a.16.16,0,0,0,0,.1.09.09,0,0,0,.08.06s.06,0,.08-.09a3.54,3.54,0,0,0,.15-.8c0-.12.06-.24.06-.36a1.37,1.37,0,0,0,0-.35,4.43,4.43,0,0,1-.18-.59"/><path class="cls-10" d="M1.54,92.72l-.18.41a1.81,1.81,0,0,0-.11.32l.09.39s.16.21.21.26l.21.21a1,1,0,0,1-.15-.44c0-.16,0-.3,0-.3a4,4,0,0,0,.08-.5.58.58,0,0,0,0-.13Z"/><path class="cls-5" d="M3.88,81.85l-.06.23a.36.36,0,0,0,0,.11c-.16.82-.12,1.64-.27,2.46a7.74,7.74,0,0,1-.71,1.95.16.16,0,0,0,0,.07.91.91,0,0,1-.07.14c-.11.23-.24.45-.33.69a1.48,1.48,0,0,0-.13.35c-.1.39.23.43.52.52l.13,0a3.32,3.32,0,0,0,.7.13,1.41,1.41,0,0,0,1.08-.34,1.18,1.18,0,0,0,.23-.35c.23-.44.44-.89.64-1.35a11.23,11.23,0,0,0,.5-1.25l.36-1.33c.13-.5.25-1,.34-1.49,0-.16.06-.32.09-.48A11.08,11.08,0,0,0,7,79.8a5,5,0,0,0-.12-1.09c-.07-.29-.08-.62-.39-.77l-.07,0a1,1,0,0,0-.22,0h0a1.17,1.17,0,0,0-.83.31,3.17,3.17,0,0,0-.85,1.2v0l0,.1,0,.11c-.26.72-.36,1.5-.55,2.25"/><path class="cls-6" d="M2.57,87a1.34,1.34,0,0,0-.18.6,1.19,1.19,0,0,0,.38.71.86.86,0,0,0,.13.14,3.32,3.32,0,0,0,.7.13,1.41,1.41,0,0,0,1.08-.34,1.18,1.18,0,0,0,.23-.35c.23-.44.44-.89.64-1.35a11.23,11.23,0,0,0,.5-1.25l.36-1.33c.13-.5.25-1,.34-1.49,0-.16.06-.32.09-.48A11.08,11.08,0,0,0,7,79.8a5,5,0,0,0-.12-1.09c-.07-.29-.08-.62-.39-.77l-.07,0a1,1,0,0,0-.22,0,1.14,1.14,0,0,1,.17.52A12.7,12.7,0,0,1,6.25,82a.55.55,0,0,1-.2.38.5.5,0,0,1-.34,0l-.41-.05.51.4a.17.17,0,0,0-.09.22,1.09,1.09,0,0,0,.14.23.23.23,0,0,1,0,.25c-.12.12-.34-.07-.5,0a1.57,1.57,0,0,0,.28.37,1,1,0,0,1,.07.92c-.16.31-.59.11-.89.06l.4.59c.19.33,0,.51-.07.83s-.2.59-.55.45a.6.6,0,0,1-.7.9A1.16,1.16,0,0,1,3.21,87c-.09-.16-.16-.33-.26-.48l-.05,0a.08.08,0,0,0-.06,0,3.37,3.37,0,0,0-.27.42"/><path class="cls-6" d="M3.88,81.85l-.06.23a.36.36,0,0,0,0,.11c-.16.82-.12,1.64-.27,2.46a7.74,7.74,0,0,1-.71,1.95,4.94,4.94,0,0,0,.39-.76,4.22,4.22,0,0,1,.32-.76.35.35,0,0,1,.2-.16,1.1,1.1,0,0,1,.36,0,1.24,1.24,0,0,1,.38,0,1.12,1.12,0,0,1-.54-.42c-.06-.09-.23-.37-.05-.44a.39.39,0,0,1,.24,0l.17,0a1.41,1.41,0,0,1-.48-1,1.35,1.35,0,0,1,.06-.63.5.5,0,0,1,.45-.24.84.84,0,0,0,.5-.14A1.56,1.56,0,0,1,4,81.93l.29-.31a.05.05,0,0,0,0,0c0-.08-.19-.07-.17-.15.33-.14.71.12,1.05,0a1.2,1.2,0,0,1-.65-.21,1.16,1.16,0,0,1-.25-.91,2.91,2.91,0,0,1,.1-.72c-.26.72-.36,1.5-.55,2.25"/><path class="cls-7" d="M2.74,86.57l.12-.1a1.38,1.38,0,0,0,.19.7,1.5,1.5,0,0,0,.51.46,1.23,1.23,0,0,0,.9.13A1.19,1.19,0,0,0,5,87.49a2.23,2.23,0,0,0,.19-.24,1.31,1.31,0,0,1,0,.73,2.12,2.12,0,0,1-.32.72.87.87,0,0,1-.21.22.87.87,0,0,1-.52.12,3.61,3.61,0,0,1-1.79-.71.52.52,0,0,1-.11-.1.69.69,0,0,1,0-.51A4,4,0,0,1,2.41,87a1.39,1.39,0,0,1,.33-.46"/></g><g class="cls-11"><path class="cls-12" d="M7,106.81a1.3,1.3,0,0,1-.57,1.07c-.59.35-1.62,1.17-1.62,1.17a1.85,1.85,0,0,0-.24,1,.94.94,0,0,0,.31.43c.47.4,1.41.08,1.81-.3a6,6,0,0,1,.93-.82,6.57,6.57,0,0,1,1.1-.46.64.64,0,0,0,.45-.5,1,1,0,0,0-.09-.56.66.66,0,0,0-.27-.3l-.38-.25-.55-.35Z"/><path class="cls-13" d="M8.87,108.39c-.07.21-.54.34-.72.42l-.43.14a1.67,1.67,0,0,0-.51.37,6.3,6.3,0,0,0-.55.48,2.07,2.07,0,0,1-1.15.47A.71.71,0,0,1,5,110.2a.9.9,0,0,1-.42-.52.44.44,0,0,1,0-.16.91.91,0,0,1,0-.23,1.44,1.44,0,0,1,.57-.86,15.43,15.43,0,0,1,1.27-.9A1.32,1.32,0,0,0,7,106.45l.88.11.77.5.33.21a7.25,7.25,0,0,1-.07,1.12"/><path class="cls-14" d="M8.87,108.39c-.07.21-.54.34-.72.42l-.43.14a1.67,1.67,0,0,0-.51.37,6.3,6.3,0,0,0-.55.48,2.07,2.07,0,0,1-1.15.47A.71.71,0,0,1,5,110.2a.9.9,0,0,1-.42-.52.44.44,0,0,1,0-.16,4.25,4.25,0,0,1,.59.15,1.6,1.6,0,0,0,1.25-.29c.14-.11.26-.24.41-.35a3.42,3.42,0,0,1,.73-.39,2.12,2.12,0,0,0,.68-.45.85.85,0,0,0,.23-.76.31.31,0,0,1,.2-.37l.33.21a7.25,7.25,0,0,1-.07,1.12"/><path class="cls-15" d="M5.34,91.64a.64.64,0,0,1,.15-.27h0l.11-.09c.89-.57,3.25.15,3.56,1.27,0,.06,0,.13.05.22a5.72,5.72,0,0,1,0,1.8,17.48,17.48,0,0,0-.2,4.1c.07,1,.15,2.74.22,3.64A36.22,36.22,0,0,1,9.12,107l-.1.69-.09,0a3.79,3.79,0,0,1-.6.18,2,2,0,0,1-.64,0c-.55,0-1.16-.23-1.31-.82a3,3,0,0,1,0-.79,37.76,37.76,0,0,0-.21-4c-.13-.72-.38-1.4-.48-2.13-.22-1.59-.36-4-.49-5.59,0-.11,0-.23,0-.35s0-.46,0-.69A5.59,5.59,0,0,1,5.34,91.64Z"/><path class="cls-16" d="M7.49,100.63a.85.85,0,0,0,.17-.25,4.75,4.75,0,0,0-.35-2.53,9.17,9.17,0,0,1-.54-1.76,4.46,4.46,0,0,1-.11-1.27s0-2.64,1-3.55a2.32,2.32,0,0,1,1.56,1.27c0,.06,0,.13.05.22a5.72,5.72,0,0,1,0,1.8,17.48,17.48,0,0,0-.2,4.1c.08,1.25.18,3.16.27,4.22,0,.46,0,3,0,3.44h0c0,.16-.05.31-.07.47h0c-.06.38-.1.67-.12.79H9a.35.35,0,0,1-.06.09l0,0-.06,0c-.13,0-.25-.38-.26-.54-.08-.76-.17-3.59-.29-4.35-.07-.51,0-1.41-.68-1.55a2.43,2.43,0,0,0-.66,0,1.24,1.24,0,0,1-.66-.05A1.81,1.81,0,0,0,7.49,100.63Z"/><path class="cls-17" d="M5.34,91.64a.64.64,0,0,1,.15-.27h0l.11-.09a2.59,2.59,0,0,1,2,0h0l.21.08.06,0,.23.11h0l.22.13h0a1.18,1.18,0,0,1,.18.13l0,0,.15.13,0,0a1.35,1.35,0,0,1,.28.36v0a1.19,1.19,0,0,1,.08.2,1.09,1.09,0,0,1,0,.22,5.44,5.44,0,0,1,0,1.8,17.48,17.48,0,0,0-.2,4.1c.08,1.25.18,3.16.27,4.22,0,.46,0,3,0,3.44h0c0,.16-.05.31-.07.47h0l0,.16h0l-.1.69,0,0H9l0,0-.06,0h0a2.75,2.75,0,0,1-.54.16,2,2,0,0,1-.64,0c-.55,0-1.16-.23-1.31-.82a3,3,0,0,1,0-.79,37.76,37.76,0,0,0-.21-4c-.13-.72-.38-1.4-.48-2.13-.22-1.59-.36-4-.49-5.59,0-.11,0-.23,0-.35s0-.46,0-.69A5.59,5.59,0,0,1,5.34,91.64Z"/></g><g class="cls-18"><path class="cls-15" d="M5.34,91.64a.64.64,0,0,1,.15-.27h0l.11-.09c.89-.57,3.25.15,3.56,1.27,0,.06,0,.13.05.22a5.72,5.72,0,0,1,0,1.8,17.48,17.48,0,0,0-.2,4.1c.07,1,.15,2.74.22,3.64A36.22,36.22,0,0,1,9.12,107l-.1.69-.09,0a3.79,3.79,0,0,1-.6.18,2,2,0,0,1-.64,0c-.55,0-1.16-.23-1.31-.82a3,3,0,0,1,0-.79,37.76,37.76,0,0,0-.21-4c-.13-.72-.38-1.4-.48-2.13-.22-1.59-.36-4-.49-5.59,0-.11,0-.23,0-.35s0-.46,0-.69A5.59,5.59,0,0,1,5.34,91.64Z"/><path class="cls-16" d="M7.49,100.63a.85.85,0,0,0,.17-.25,4.75,4.75,0,0,0-.35-2.53,9.17,9.17,0,0,1-.54-1.76,4.46,4.46,0,0,1-.11-1.27s0-2.64,1-3.55a2.32,2.32,0,0,1,1.56,1.27c0,.06,0,.13.05.22a5.72,5.72,0,0,1,0,1.8,17.48,17.48,0,0,0-.2,4.1c.08,1.25.18,3.16.27,4.22,0,.46,0,3,0,3.44h0c0,.16-.05.31-.07.47h0c-.06.38-.1.67-.12.79H9a.35.35,0,0,1-.06.09l0,0-.06,0c-.13,0-.25-.38-.26-.54-.08-.76-.17-3.59-.29-4.35-.07-.51,0-1.41-.68-1.55a2.43,2.43,0,0,0-.66,0,1.24,1.24,0,0,1-.66-.05A1.81,1.81,0,0,0,7.49,100.63Z"/><path class="cls-17" d="M5.34,91.64a.64.64,0,0,1,.15-.27h0l.11-.09a2.59,2.59,0,0,1,2,0h0l.21.08.06,0,.23.11h0l.22.13h0a1.18,1.18,0,0,1,.18.13l0,0,.15.13,0,0a1.35,1.35,0,0,1,.28.36v0a1.19,1.19,0,0,1,.08.2,1.09,1.09,0,0,1,0,.22,5.44,5.44,0,0,1,0,1.8,17.48,17.48,0,0,0-.2,4.1c.08,1.25.18,3.16.27,4.22,0,.46,0,3,0,3.44h0c0,.16-.05.31-.07.47h0l0,.16h0l-.1.69,0,0H9l0,0-.06,0h0a2.75,2.75,0,0,1-.54.16,2,2,0,0,1-.64,0c-.55,0-1.16-.23-1.31-.82a3,3,0,0,1,0-.79,37.76,37.76,0,0,0-.21-4c-.13-.72-.38-1.4-.48-2.13-.22-1.59-.36-4-.49-5.59,0-.11,0-.23,0-.35s0-.46,0-.69A5.59,5.59,0,0,1,5.34,91.64Z"/></g><g class="cls-19"><path class="cls-12" d="M14.19,107.39s.13.19.13.2a2.38,2.38,0,0,1,.18.3,1.25,1.25,0,0,1,.11.66,2.28,2.28,0,0,1-.35.84,10.87,10.87,0,0,1-.79,1.56,2.28,2.28,0,0,1-1.3.89c-.82.15-.81-.1-.89-.6s.56-1.35.64-1.66.37-1.38.37-1.38l.57-.52Z"/><path class="cls-13" d="M14.32,108.24a3.44,3.44,0,0,1-.43,1.61,2.92,2.92,0,0,1-1.78,1.68c-.83.15-.82-.11-.89-.6v0c-.07-.49.55-1.34.63-1.65s.37-1.37.37-1.37l.57-.53,1.33-.28,0,.07a1.9,1.9,0,0,1,.16,1.09"/><path class="cls-14" d="M14.32,108.24a3.44,3.44,0,0,1-.43,1.61,2.92,2.92,0,0,1-1.78,1.68c-.83.15-.82-.11-.89-.6v0h.06a3.43,3.43,0,0,0,1,0,1.71,1.71,0,0,0,.89-.36,2.27,2.27,0,0,0,.44-.54,3.35,3.35,0,0,0,.32-.66,2.72,2.72,0,0,0,.14-.7,3.08,3.08,0,0,0-.11-1l0-.12a.46.46,0,0,1,.26-.34,1.9,1.9,0,0,1,.16,1.09"/><path class="cls-16" d="M7.69,92.31a.81.81,0,0,1,.1-.31h0a.52.52,0,0,1,.1-.11c.77-.76,3.3-.5,3.84.57,0,0,0,.13.09.21a5.91,5.91,0,0,1,.33,1.82,25.76,25.76,0,0,0,.76,4.91c.28,1,.55,2,.81,2.87a36.66,36.66,0,0,1,.83,4.66c0,.42,0,.71,0,.71l-.08.06a3,3,0,0,1-.56.3,2.33,2.33,0,0,1-.64.17,1.36,1.36,0,0,1-1.49-.57,2.6,2.6,0,0,1-.18-.79c-.11-.65-.77-3.29-1-3.91s-.66-1.34-.9-2c-.55-1.56-1.16-3.92-1.61-5.51,0-.12-.06-.23-.1-.36s-.12-.45-.17-.68A6.37,6.37,0,0,1,7.69,92.31Z"/><path class="cls-15" d="M11.66,100.92a.81.81,0,0,0,.12-.29,4.88,4.88,0,0,0-.85-2.46A10,10,0,0,1,10,96.5c0-.1-.46-1.21-.36-1.26s-.57-2.65.24-3.76a2.37,2.37,0,0,1,1.84,1s0,.13.09.21a5.91,5.91,0,0,1,.33,1.82,25.76,25.76,0,0,0,.76,4.91c.34,1.25,1.07,4.4,1.37,5.46a6.62,6.62,0,0,1,.24,1.4h0c0,.16,0,.32,0,.48h0c0,.39,0,.69,0,.82h0a.66.66,0,0,1,0,.11l0,0,0,0c-.15,0-.33-.33-.38-.48-.23-.76-.48-1.52-.74-2.26-.18-.5-.71-3.44-1.4-3.45a2.26,2.26,0,0,0-.67.16,1.38,1.38,0,0,1-.67.08A1.91,1.91,0,0,0,11.66,100.92Z"/><path class="cls-20" d="M7.69,92.31a.81.81,0,0,1,.1-.31h0a.52.52,0,0,1,.1-.11,2.6,2.6,0,0,1,2-.4h0l.25,0h0a.86.86,0,0,1,.23.06h.06l.18.06.09,0a.75.75,0,0,1,.18.08l.08,0,.14.08.09.05.1.08.1.08a.93.93,0,0,1,.14.14s0,0,0,0a1.27,1.27,0,0,1,.13.19s0,.13.09.21a5.91,5.91,0,0,1,.33,1.82,25.76,25.76,0,0,0,.76,4.91l.24.85c0,.09.05.18.07.27s.11.39.16.57l.08.29.18.62.08.27h0c0,.19.51,2.4.56,2.59a6.62,6.62,0,0,1,.24,1.4h0c0,.16,0,.32,0,.48h0v.17h0c0,.12,0,.22,0,.32v.2c0,.12,0,.19,0,.19l0,0h0l0,0,0,0h0A3.3,3.3,0,0,1,14,108a2.33,2.33,0,0,1-.64.17,1.36,1.36,0,0,1-1.49-.57,2.6,2.6,0,0,1-.18-.79c-.11-.65-.77-3.29-1-3.91s-.66-1.34-.9-2c-.55-1.56-1.16-3.92-1.61-5.51,0-.12-.06-.23-.1-.36s-.12-.45-.17-.68A6.37,6.37,0,0,1,7.69,92.31Z"/></g><g class="cls-21"><path class="cls-16" d="M9.16,91.15a.68.68,0,0,1,.15-.28h0a.47.47,0,0,1,.12-.09c.91-.6,3.34.14,3.66,1.3,0,.06,0,.14,0,.23a5.68,5.68,0,0,1,0,1.84,25.12,25.12,0,0,0-.21,5c.07,1.06.15,2,.23,3a37.31,37.31,0,0,1-.09,4.73c-.06.42-.11.71-.11.71l-.09,0a3.77,3.77,0,0,1-.61.19,2.42,2.42,0,0,1-.66,0c-.57-.06-1.19-.24-1.35-.85a2.74,2.74,0,0,1,0-.81c0-.66-.11-3.38-.22-4s-.39-1.45-.49-2.19c-.23-1.64-.37-4.07-.5-5.72l0-.37c0-.23,0-.46,0-.7A6.18,6.18,0,0,1,9.16,91.15Z"/><path class="cls-15" d="M11.37,100.37a.78.78,0,0,0,.17-.26,4.84,4.84,0,0,0-.35-2.58,9.51,9.51,0,0,1-.57-1.81,5.07,5.07,0,0,1-.11-1.3s0-2.72,1-3.65a2.39,2.39,0,0,1,1.61,1.31c0,.06,0,.14,0,.23a5.68,5.68,0,0,1,0,1.84,25.12,25.12,0,0,0-.21,5c.09,1.29.19,4.53.28,5.62a6.75,6.75,0,0,1,0,1.42h0c0,.16,0,.32-.07.47h0c-.05.38-.1.68-.12.81h0a.35.35,0,0,1-.06.09l0,0-.06,0c-.14,0-.26-.39-.27-.55-.08-.79-.18-1.58-.29-2.36-.08-.52,0-3.51-.7-3.65a2,2,0,0,0-.69,0,1.27,1.27,0,0,1-.67,0A1.86,1.86,0,0,0,11.37,100.37Z"/><path class="cls-20" d="M9.16,91.15a.68.68,0,0,1,.15-.28h0a.47.47,0,0,1,.12-.09,2.61,2.61,0,0,1,2.05,0h0l.24.09,0,0L12,91,12,91l.16.1.09.05a.91.91,0,0,1,.16.11l.07,0,.12.1.08.07.08.09a.39.39,0,0,1,.08.1.62.62,0,0,1,.11.17s0,0,0,0a1,1,0,0,1,.09.21c0,.06,0,.14,0,.23a5.68,5.68,0,0,1,0,1.84,25.12,25.12,0,0,0-.21,5L13,100c0,.1,0,.19,0,.28s0,.4,0,.59l0,.3c0,.21,0,.43,0,.64l0,.28h0c0,.2,0,2.46,0,2.65a6.75,6.75,0,0,1,0,1.42h0c0,.16,0,.32-.07.47h0l0,.17h0c0,.12,0,.23-.05.32v0l0,.15v0l0,.19,0,0h0l0,0-.06,0h0a4.11,4.11,0,0,1-.55.17,2.42,2.42,0,0,1-.66,0c-.57-.06-1.19-.24-1.35-.85a2.74,2.74,0,0,1,0-.81c0-.66-.11-3.38-.22-4s-.39-1.45-.49-2.19c-.23-1.64-.37-4.07-.5-5.72l0-.37c0-.23,0-.46,0-.7A6.18,6.18,0,0,1,9.16,91.15Z"/></g><path class="cls-12" d="M12.57,92.27h0A7.56,7.56,0,0,1,9,92.6a14,14,0,0,1-1.79-.41l-.12,0a5.27,5.27,0,0,1-.84-.3,1.79,1.79,0,0,1-.52-.38h0c0-.22,0-.45,0-.68l0,0a1,1,0,0,1,.34,0l.87.13c.58.09,1.16.18,1.73.24a7.25,7.25,0,0,0,2.08-.08,5.89,5.89,0,0,1,1-.18,1.34,1.34,0,0,1,.66.12l0,0c.06.46.11.91.15,1.25"/><path class="cls-5" d="M5,81.62a24,24,0,0,1,.2,2.4c0,.8.08,1.59.11,2.39.06,1.31.09,2.61.07,3.92a.81.81,0,0,0,0,.22,1,1,0,0,0,.11.48,1,1,0,0,0,.28.29l.2.13A7.52,7.52,0,0,0,7.23,92l.21.06a.83.83,0,0,0,.21.06h0a6.92,6.92,0,0,0,3.3.1l.56-.14a.8.8,0,0,0,.41-.33,5.09,5.09,0,0,0,.5-1.35,6.62,6.62,0,0,0,.26-1.71,10.52,10.52,0,0,1-.08-1.26,1.77,1.77,0,0,0,0-.23c.07-.89.11-1.78.13-2.67,0-.23,0-.45,0-.68,0-.76,0-1.53,0-2.29a6.66,6.66,0,0,1,0-1.25,1.46,1.46,0,0,1,.25-.65,3.76,3.76,0,0,1,.5-.45.46.46,0,0,0,.15-.26.54.54,0,0,0,0-.22.43.43,0,0,0-.3-.36A13.33,13.33,0,0,1,12,77.68a3.77,3.77,0,0,0-.78-.32l-.35-.1-.21-.07-.3-.07-.12,0a1.35,1.35,0,0,0-.4,0l-.13,0a1.38,1.38,0,0,1-.72.12,11.56,11.56,0,0,0-1.58.11l-.81.1-.28,0h0a2.93,2.93,0,0,0-.9.5A2.5,2.5,0,0,0,5,79.11,8.14,8.14,0,0,0,5,81.62"/><path class="cls-6" d="M7.18,88.07c0,.59,0,1.17,0,1.75s0,1,.11,1.48a3.12,3.12,0,0,0,.06.41,1.43,1.43,0,0,0,.06.36s.12,0,.14,0l.14,0c-.06,0-.08-.61-.08-.66-.06-.45-.09-.91-.11-1.37s0-1.12,0-1.69,0-1.23,0-1.84,0-1.23,0-1.85,0-1.12.05-1.69,0-.92,0-1.38,0-.67,0-1,.07-.64.12-1c-.06.12-.13.24-.2.36a3.14,3.14,0,0,0-.26,1.32c0,.44,0,.87,0,1.31l-.06,1.65c0,.61,0,1.22,0,1.84s0,1.25,0,1.87"/><path class="cls-16" d="M5.12,86.71v1.12c0,.46,0,.92,0,1.38s0,1,0,1.45-.06,1.21.5,1.47h0a2,2,0,0,0,.35.1l.46.1a1.38,1.38,0,0,0,.53.09c-.07-.59-.17-1.18-.2-1.77,0-.2,0-.41,0-.61s0-.39,0-.6,0-.23,0-.34l-.06-1.59c0-.32,0-.64,0-1v-.12c-.12-2.48-.27-5,.62-7.36l0-.33c-.06-.34-.12-.68-.19-1,0-.09,0-.23-.15-.26a1.72,1.72,0,0,0-.33,0,1.93,1.93,0,0,0-.34,0,1.46,1.46,0,0,0-.41.11,1.58,1.58,0,0,0-.52.51l-.09.13a2.37,2.37,0,0,0-.3.69,2.82,2.82,0,0,0-.09.57,7.24,7.24,0,0,0,0,1.23c.16,1.54.24,3.09.27,4.64,0,.46,0,.92,0,1.38"/><path class="cls-15" d="M4.83,80.69a85.06,85.06,0,0,1,.26,10c0,.52-.06,1.21.5,1.47h0c0-.69-.15-1.39-.11-2.09s0-1.63,0-2.45c0-1.31,0-2.62,0-3.93,0-.19,0-.44.23-.48s.37,0,.37-.12a1,1,0,0,1-.75-.68,2.91,2.91,0,0,1-.11-1.06c0-.38,0-.76,0-1.14a5.05,5.05,0,0,1,.22-1.55c.18-.5.88-1.21,1.4-1.18a3.15,3.15,0,0,0-.62,0,1.91,1.91,0,0,0-.41.11,1.58,1.58,0,0,0-.52.51l-.09.13a2.37,2.37,0,0,0-.3.69,2.82,2.82,0,0,0-.09.57,7.24,7.24,0,0,0,0,1.23"/><path class="cls-16" d="M8.11,86.9v.9c0,.54,0,1.07,0,1.61,0,.3,0,.6,0,.9,0,.76.09,1.51.15,2.27a.51.51,0,0,0,.07.24.05.05,0,0,0,0,0,.36.36,0,0,0,.21.09,6.17,6.17,0,0,0,3.33-.1.51.51,0,0,0,.21-.1.61.61,0,0,0,.12-.27c.26-1.13.51-2.27.77-3.41.11-.47.22-.94.31-1.41A17.14,17.14,0,0,0,13.73,85a26.47,26.47,0,0,0-.41-4.52c0-.33-.1-.66-.17-1h0a.71.71,0,0,1,.22-.75c.06,0,.13-.1.11-.17a.14.14,0,0,0-.07-.08,6.38,6.38,0,0,0-1.95-1,.73.73,0,0,0-.63.06,3.63,3.63,0,0,0-.63.78,9.57,9.57,0,0,0-1.82,4.07,15.32,15.32,0,0,0-.19,2c0,.83-.07,1.67-.08,2.51"/><path class="cls-15" d="M8.4,92.82a.05.05,0,0,0,0,0,.36.36,0,0,0,.21.09,6.17,6.17,0,0,0,3.33-.1.51.51,0,0,0,.21-.1.61.61,0,0,0,.12-.27c.25-1.13.51-2.27.77-3.41.11-.47.22-.94.31-1.41a3.39,3.39,0,0,0-.33-.94,1.8,1.8,0,0,1-.3-.94c0-.41,0-.82,0-1.23,0-.23,0-.45,0-.68,0-.76,0-1.53,0-2.29a6.66,6.66,0,0,1,0-1.25,1.46,1.46,0,0,1,.25-.65.88.88,0,0,1,.19-.2,3.76,3.76,0,0,0,.31-.25A.3.3,0,0,0,13.6,79h0a1,1,0,0,0,0-.3s0-.11-.07-.15a.34.34,0,0,0-.09-.08c-.27-.18-.51-.38-.78-.54a4.83,4.83,0,0,0-.87-.39c-.3-.11-.61-.16-.92-.25l-.13.18.13.07.8.48a.86.86,0,0,1,.31.25c.27.36,0,.84-.19,1.25a4.71,4.71,0,0,0-.21,2.66,1.59,1.59,0,0,1-.11,1.1,1.55,1.55,0,0,1-.9.66,1.75,1.75,0,0,1-1.19-.15,3.71,3.71,0,0,0,1.39.48,1.86,1.86,0,0,1,1.14.59A2.72,2.72,0,0,1,12,86.07a21.48,21.48,0,0,1-.31,3c0,.18,0,.35,0,.53-.07.44-.16.87-.26,1.3a2.79,2.79,0,0,1-.71,1.36,2.2,2.2,0,0,1-1.38.64,4.87,4.87,0,0,1-.93-.08"/><path class="cls-7" d="M7.32,77.23a4.52,4.52,0,0,0-.13,1,1,1,0,0,0,.7,1,2.07,2.07,0,0,0-.2.64,2.74,2.74,0,0,1-.05.28,1.21,1.21,0,0,0-.11.3,1.25,1.25,0,0,0-.32-.72c-.18-.22-.39-.41-.55-.64a1.12,1.12,0,0,1,.66-1.85"/><path class="cls-5" d="M5.1,85.33c0,.46,0,.92,0,1.38a4.29,4.29,0,0,0,1.54.81c0-.32,0-.76,0-1.08a2.52,2.52,0,0,1-1.49-1.13Z"/><path class="cls-5" d="M5.11,89.21a4.15,4.15,0,0,0,1.63.84c0-.2,0-.39,0-.6s0-.37,0-.49a2.59,2.59,0,0,1-1.61-1.14h0c0,.46,0,.92,0,1.38"/><path class="cls-5" d="M8.7,82.31c0-.15,0-.46.17-.46a.65.65,0,0,1,.19,0,4.19,4.19,0,0,0,1.27.23,3.63,3.63,0,0,0,.57,0c.1,0,.28-.08.33.06s0,.34,0,.46l-.06,1a.78.78,0,0,1-.07.3.63.63,0,0,1-.24.19c-.33.18-.66.34-1,.49a.2.2,0,0,1-.11,0,.94.94,0,0,1-.57-.45L9,83.88a1.09,1.09,0,0,1-.21-.27.78.78,0,0,1,0-.21c0-.37,0-.73,0-1.09"/><path class="cls-15" d="M12.17,92.75a1.32,1.32,0,0,0,1.14-1c.33-1,1.56-10.27.18-13.2l-.74.4-.17.8-.3,5.47Z"/><path class="cls-5" d="M8.15,89.41c0,.3,0,.6,0,.9.3,0,.61,0,.91,0a28.68,28.68,0,0,0,4.56-.5l.12-1a25.07,25.07,0,0,1-5.62.52"/><path class="cls-5" d="M8.11,86.9v.9c.33,0,.66,0,1,0a27.15,27.15,0,0,0,4.85-.67l.09-1.1a22.84,22.84,0,0,1-5.92.83"/><path class="cls-22" d="M10.8,77.24a2.18,2.18,0,0,1-.83-.52.62.62,0,0,1-.09-.4h0A1,1,0,0,0,9,75.47c-1.79,0-1.67,1.31-1.67,1.31h0a3.05,3.05,0,0,0,0,.4h0a3.38,3.38,0,0,1,0,.45l0,.22a1.42,1.42,0,0,0,0,.36c.06.42.17.83.62.92a1.32,1.32,0,0,0,.76-.1,2.65,2.65,0,0,0,.76-.36c.2-.14.42-.26.62-.41l.05,0,.2-.15C10.9,77.58,10.8,77.24,10.8,77.24Z"/><path class="cls-23" d="M10.5,77.87l.1-.11,0,0,.07-.11,0,0a.61.61,0,0,0,0-.12h0a.32.32,0,0,0,0-.09v-.1a.1.1,0,0,0,0,0,2.18,2.18,0,0,1-.83-.52.62.62,0,0,1-.09-.4h0A1,1,0,0,0,9,75.47c-1.79,0-1.67,1.31-1.67,1.31h0a3.05,3.05,0,0,0,0,.4h0a3.38,3.38,0,0,1,0,.45l0,.22a1,1,0,0,0,.38.05,1.46,1.46,0,0,0,.74-.3c.22-.16.42-.35.63-.51a.59.59,0,0,1,.58-.15.43.43,0,0,1,.2.27,2,2,0,0,1,.05.34,3.71,3.71,0,0,0,.11.58.52.52,0,0,0,.06.13l.05,0,.2-.15a1.08,1.08,0,0,0,.19-.17Z"/><path class="cls-7" d="M7.94,79.21l.27,0a.58.58,0,0,0,.23-.09l.23-.1c.16-.09.31-.2.47-.3.49-.31,1.18-.69,1.17-1.36,0-.09,0-.38-.1-.42a4.61,4.61,0,0,1,.64.16l.31.09a2.65,2.65,0,0,1,.3.11s0,0,0,.11a.78.78,0,0,1-.05.14c0,.09-.08.18-.12.27a3.48,3.48,0,0,1-.34.51,3.69,3.69,0,0,1-.91.8,3.81,3.81,0,0,1-.57.29,5.69,5.69,0,0,0-.56.26c-.21.1-.45.16-.66.26a1,1,0,0,0-.29.16l-.28.28s-.07.14-.1.15a3.65,3.65,0,0,1,.21-1.23s0,0,0-.06h.1Z"/><g class="cls-24"><path class="cls-4" d="M16.73,84.6a18.16,18.16,0,0,1-.32,3.29c-.1.79-.23,1.57-.36,2.34a6.17,6.17,0,0,0-.11.62l0,.24c0,.16-.05.32-.08.48a7.29,7.29,0,0,1-.44,1.37A2.39,2.39,0,0,1,14.73,94a2.1,2.1,0,0,1-.33.22,1.2,1.2,0,0,1-.34.17,2,2,0,0,1-.34,0,1.5,1.5,0,0,1-.42,0,.31.31,0,0,1-.28-.27.14.14,0,0,1,0-.09s.07-.05.12-.07l.31-.11a.62.62,0,0,0,.16-.1.93.93,0,0,0,.11-.19,1.89,1.89,0,0,0,.16-.62c0-.09,0-.38-.16-.3s-.1.09-.15.13a.94.94,0,0,1-.1.1l-.17.07a.36.36,0,0,1-.15,0,.17.17,0,0,1-.12-.07c-.06-.13,0-.22.11-.31l.14-.12a1.17,1.17,0,0,0,.28-.39,1.94,1.94,0,0,1,.36-.34l.38-.32a.69.69,0,0,0,.3-.46,1.61,1.61,0,0,0,0-.38,1.64,1.64,0,0,1,0-.22c0-.56,0-1.12,0-1.68,0-.9,0-1.79,0-2.69,0-.28,0-.55,0-.83a1.85,1.85,0,0,0-.1-.57c-.13-.57-.16-1.15-.32-1.71a1.42,1.42,0,0,1-.08-.45c0-.33.54-.52.79-.66s.38-.19.57-.27.46-.21.52-.17a1.09,1.09,0,0,1,.34.55,8.37,8.37,0,0,1,.29,1.78c0,.29.07.57.09.86"/><path class="cls-10" d="M16.64,83.74A8.37,8.37,0,0,0,16.35,82a1.09,1.09,0,0,0-.34-.55c-.05,0-.26.06-.4.12a1.08,1.08,0,0,1,.29.51,8.28,8.28,0,0,1,.3,1.78c0,.29.06.57.08.86A17.31,17.31,0,0,1,16,88c-.1.79-.23,1.56-.36,2.34,0,.21-.09.4-.11.62l0,.24c0,.16-.05.32-.08.48A6.63,6.63,0,0,1,14.94,93a2.44,2.44,0,0,1-.66,1.06,1.9,1.9,0,0,1-.33.22,1.51,1.51,0,0,1-.31.16l.08,0a2,2,0,0,0,.34,0,1.2,1.2,0,0,0,.34-.17,2.1,2.1,0,0,0,.33-.22,2.39,2.39,0,0,0,.66-1.06,7.29,7.29,0,0,0,.44-1.37c0-.16.06-.32.08-.48l0-.24a6.17,6.17,0,0,1,.11-.62c.13-.77.26-1.55.36-2.34a18.16,18.16,0,0,0,.32-3.29c0-.29-.05-.57-.09-.86"/><path class="cls-5" d="M13.9,82.46a2,2,0,0,0,0,.23s0,.07,0,.11c.13.8.44,1.54.58,2.34a7.59,7.59,0,0,1,0,2,.22.22,0,0,0,0,.08c0,.05,0,.09,0,.14,0,.25-.06.5-.07.75a2.28,2.28,0,0,0,0,.37c0,.39.35.31.65.3h.13a2.78,2.78,0,0,0,.69-.12,1.16,1.16,0,0,0,1-1.07c.05-.48.1-1,.12-1.45a11.47,11.47,0,0,0,0-1.31l-.12-1.34c-.05-.5-.11-1-.19-1.48,0-.16,0-.31-.08-.47a10.37,10.37,0,0,0-.56-2,4.46,4.46,0,0,0-.48-1c-.16-.24-.27-.54-.61-.57a.21.21,0,0,0-.08,0l-.21,0h0a1.13,1.13,0,0,0-.65.57A3,3,0,0,0,13.64,80v.24c0,.74.18,1.49.26,2.24"/><path class="cls-6" d="M14.43,87.57a1.38,1.38,0,0,0,0,.61c.08.25.37.41.59.52l.16.09a2.78,2.78,0,0,0,.69-.12,1.16,1.16,0,0,0,1-1.07c.05-.48.1-1,.12-1.45a11.47,11.47,0,0,0,0-1.31l-.12-1.34c-.05-.5-.11-1-.19-1.48,0-.16,0-.31-.08-.47a10.37,10.37,0,0,0-.56-2,5,5,0,0,0-.48-1c-.16-.24-.27-.54-.61-.57a.21.21,0,0,0-.08,0l-.21,0a1.23,1.23,0,0,1,.33.42,12.54,12.54,0,0,1,1.09,3.37.51.51,0,0,1-.05.42.54.54,0,0,1-.3.15l-.39.09.6.19a.17.17,0,0,0,0,.23c.06.07.14.11.2.17a.19.19,0,0,1,.08.22c-.07.16-.33,0-.46.16a1.39,1.39,0,0,0,.38.25,1,1,0,0,1,.37.82c0,.33-.5.3-.79.36l.57.4c.28.24.2.45.21.78s0,.6-.35.59a.59.59,0,0,1-.34,1.06,1.09,1.09,0,0,1-.81-.29c-.14-.11-.26-.25-.4-.35l-.06,0s0,0,0,.06a3,3,0,0,0-.1.47"/><path class="cls-6" d="M13.9,82.46a2,2,0,0,0,0,.23s0,.07,0,.11c.13.8.44,1.54.58,2.34a7.59,7.59,0,0,1,0,2,4.59,4.59,0,0,0,.1-.83,4.29,4.29,0,0,1,0-.8.37.37,0,0,1,.12-.22,1.69,1.69,0,0,1,.34-.1,1.12,1.12,0,0,1,.36-.09,1.1,1.1,0,0,1-.63-.2c-.09-.06-.33-.26-.2-.39a.41.41,0,0,1,.22-.07l.17,0a1.38,1.38,0,0,1-.77-.75,1.22,1.22,0,0,1-.16-.6c0-.19.18-.29.33-.37a.84.84,0,0,0,.42-.29,1.55,1.55,0,0,1-.8.06c.06-.13.11-.25.16-.38a.06.06,0,0,0,0,0c0-.08-.2,0-.21-.09.25-.24.7-.12,1-.34a1.1,1.1,0,0,1-.67,0,1.11,1.11,0,0,1-.53-.75,3.2,3.2,0,0,1-.16-.68c0,.74.18,1.49.26,2.24"/><path class="cls-7" d="M14.44,87.16l.08-.13a1.27,1.27,0,0,0,.42.57,1.37,1.37,0,0,0,.61.25,1.21,1.21,0,0,0,.87-.18,1.13,1.13,0,0,0,.41-.43,1,1,0,0,0,.09-.29,1.37,1.37,0,0,1,.22.69,2.17,2.17,0,0,1-.05.76.93.93,0,0,1-.12.27.88.88,0,0,1-.44.29,3.64,3.64,0,0,1-1.88,0,.75.75,0,0,1-.13-.06.64.64,0,0,1-.19-.46,3.29,3.29,0,0,1,0-.7,1.34,1.34,0,0,1,.14-.53"/></g><g class="cls-25"><path class="cls-4" d="M16.38,84a17.55,17.55,0,0,1,.81,3.21c.17.77.31,1.54.45,2.32,0,.21.06.4.11.61a2,2,0,0,1,.05.24,4,4,0,0,1,.09.48,6.32,6.32,0,0,1,.05,1.44,2.44,2.44,0,0,1-.26,1.22,2.62,2.62,0,0,1-.23.32,1.38,1.38,0,0,1-.27.27,2.91,2.91,0,0,1-.3.17,1.3,1.3,0,0,1-.38.17.31.31,0,0,1-.36-.15.17.17,0,0,1,0-.1.18.18,0,0,1,.09-.1l.25-.22a.35.35,0,0,0,.12-.15.71.71,0,0,0,0-.21,1.9,1.9,0,0,0-.06-.63c0-.1-.12-.37-.25-.24a.44.44,0,0,0-.09.18s0,.09-.07.13L16,93.1a.37.37,0,0,1-.14.07.18.18,0,0,1-.14,0c-.1-.11-.06-.22,0-.33l.09-.17A1.24,1.24,0,0,0,16,92.2a1.57,1.57,0,0,1,.22-.45c.08-.14.16-.28.25-.42a.76.76,0,0,0,.13-.54,2.2,2.2,0,0,0-.13-.36l-.09-.21-.61-1.56c-.31-.84-.61-1.69-.9-2.53-.09-.27-.15-.54-.24-.8a1.77,1.77,0,0,0-.29-.5c-.32-.49-.54-1-.88-1.5a1.34,1.34,0,0,1-.23-.4c-.08-.32.33-.67.52-.89a6.25,6.25,0,0,1,.45-.44c.06,0,.36-.36.43-.34a1.06,1.06,0,0,1,.51.41A8.28,8.28,0,0,1,16,83.24c.13.26.26.51.38.78"/><path class="cls-10" d="M16,83.24a8.28,8.28,0,0,0-.87-1.57,1.06,1.06,0,0,0-.51-.41s-.23.14-.34.25a1.11,1.11,0,0,1,.45.38,8.16,8.16,0,0,1,.88,1.58c.13.25.26.51.37.77a17,17,0,0,1,.81,3.21c.17.77.32,1.55.46,2.32,0,.21.05.41.11.62a1.89,1.89,0,0,0,.05.23l.09.49a7.68,7.68,0,0,1,.05,1.44,2.45,2.45,0,0,1-.27,1.22,3.19,3.19,0,0,1-.23.32,1.42,1.42,0,0,1-.24.25l.07,0a2.91,2.91,0,0,0,.3-.17,1.38,1.38,0,0,0,.27-.27,2.62,2.62,0,0,0,.23-.32,2.44,2.44,0,0,0,.26-1.22,6.32,6.32,0,0,0-.05-1.44,4,4,0,0,0-.09-.48,2,2,0,0,0-.05-.24c-.05-.21-.07-.4-.11-.61-.14-.78-.28-1.55-.45-2.32A17.55,17.55,0,0,0,16.38,84c-.12-.27-.25-.52-.38-.78"/><path class="cls-5" d="M13,83l.11.21a.47.47,0,0,0,.05.1c.4.71.94,1.3,1.34,2a7.59,7.59,0,0,1,.69,1.9s0,0,0,.08l0,.14c.06.25.11.49.18.73a3.42,3.42,0,0,0,.13.34c.18.35.44.18.72.06l.11,0a2.27,2.27,0,0,0,.61-.34,1.39,1.39,0,0,0,.6-.93,1.33,1.33,0,0,0-.05-.4c-.11-.48-.23-1-.37-1.41a10.74,10.74,0,0,0-.41-1.25l-.57-1.22c-.21-.45-.43-.89-.67-1.33l-.24-.41a10.87,10.87,0,0,0-1.21-1.72,4.89,4.89,0,0,0-.78-.73c-.23-.18-.44-.42-.77-.33l-.07,0a.85.85,0,0,0-.19.1h0a1.2,1.2,0,0,0-.42.76,3.29,3.29,0,0,0,.11,1.43h0a.49.49,0,0,0,0,.11.69.69,0,0,0,0,.1c.26.7.67,1.35,1,2"/><path class="cls-6" d="M15.22,87.59a1.35,1.35,0,0,0,.23.56,1.15,1.15,0,0,0,.74.3l.17,0a2.27,2.27,0,0,0,.61-.34,1.39,1.39,0,0,0,.6-.93,1.33,1.33,0,0,0-.05-.4c-.11-.48-.23-1-.37-1.41a10.74,10.74,0,0,0-.41-1.25l-.57-1.22c-.21-.45-.43-.89-.67-1.33l-.24-.41a10.87,10.87,0,0,0-1.21-1.72,4.89,4.89,0,0,0-.78-.73c-.23-.18-.44-.42-.77-.33l-.07,0a.85.85,0,0,0-.19.1,1.13,1.13,0,0,1,.45.28,12.51,12.51,0,0,1,2.17,2.8A.51.51,0,0,1,15,82a.53.53,0,0,1-.23.24l-.33.22.63,0a.16.16,0,0,0,.07.22c.07,0,.16,0,.24.09s.16.1.15.18-.29.16-.38.31a1.57,1.57,0,0,0,.44.1,1,1,0,0,1,.63.65c.08.32-.37.45-.63.6l.68.19c.34.12.34.35.46.66s.22.56-.13.68a.59.59,0,0,1,0,1.11,1.11,1.11,0,0,1-.86,0c-.17-.06-.33-.15-.5-.2h-.06s0,0,0,.07a2.82,2.82,0,0,0,.07.47"/><path class="cls-6" d="M13,83l.11.21a.47.47,0,0,0,.05.1c.4.71.94,1.3,1.34,2a7.59,7.59,0,0,1,.69,1.9,3.93,3.93,0,0,0-.18-.81,4,4,0,0,1-.24-.77.34.34,0,0,1,.05-.24c.06-.1.19-.15.28-.22a.92.92,0,0,1,.31-.2,1.06,1.06,0,0,1-.66,0c-.11,0-.41-.13-.32-.29a.38.38,0,0,1,.18-.15l.15-.08a1.36,1.36,0,0,1-1-.45,1.14,1.14,0,0,1-.35-.51.49.49,0,0,1,.18-.46.87.87,0,0,0,.29-.42,1.49,1.49,0,0,1-.72.33c0-.13,0-.27,0-.41a.06.06,0,0,0,0,0c0-.07-.18.06-.22,0,.15-.31.61-.35.79-.65a1.15,1.15,0,0,1-.62.25,1.09,1.09,0,0,1-.75-.53,2.47,2.47,0,0,1-.38-.59c.26.7.67,1.35,1,2"/><path class="cls-7" d="M15.09,87.2l0-.15a1.32,1.32,0,0,0,.59.4,1.47,1.47,0,0,0,.66,0,1.23,1.23,0,0,0,.76-.47,1.08,1.08,0,0,0,.23-.55.76.76,0,0,0,0-.3,1.4,1.4,0,0,1,.44.58,2,2,0,0,1,.21.73.76.76,0,0,1,0,.3.85.85,0,0,1-.31.41,3.5,3.5,0,0,1-1.79.59.33.33,0,0,1-.14,0c-.16,0-.27-.23-.34-.37a4,4,0,0,1-.26-.65,1.47,1.47,0,0,1-.05-.55"/></g><path class="cls-26" d="M10.58,74.82a.29.29,0,0,1,0,.09.47.47,0,0,1,0,.23,1.78,1.78,0,0,1-.42.59h0L10,75.9a3.07,3.07,0,0,0-.2.27,1.13,1.13,0,0,0-.12.17,3.29,3.29,0,0,1-1.17.92l-.06,0-.14.08,0,0,0,0h0l0,0c-.72.34-1.29.31-1.57.06s-.41-1.42-.41-1.42c0-.22-.06-.45-.11-.66a.13.13,0,0,1,0-.06c0-.25,0-.48,0-.74s-.06-.22-.09-.33A1.63,1.63,0,0,1,6,73.6c.07-.28.15-.55.23-.83s.09-.33.14-.49a1.51,1.51,0,0,1,.54-1,2.22,2.22,0,0,1,1.16-.43S9.5,72,9.64,72a2.32,2.32,0,0,1,1,2,2.65,2.65,0,0,1-.11.77l0,0a0,0,0,0,0,0,0"/><path class="cls-23" d="M6.24,72.76a6.5,6.5,0,0,1,2.17-.52,2.44,2.44,0,0,1,.66,0,1,1,0,0,1,.55.33,1.06,1.06,0,0,1,.17.72,3.21,3.21,0,0,1-.18.87,7.06,7.06,0,0,0-.38,1.71,1.76,1.76,0,0,1-.15-.44A2.56,2.56,0,0,1,9,74.51,2.29,2.29,0,0,1,9,74.15a3.54,3.54,0,0,0,.05-.73A.36.36,0,0,0,9,73.13a.91.91,0,0,0-.43-.1,16,16,0,0,0-1.83-.11,1.15,1.15,0,0,1-.49-.07Z"/><path class="cls-27" d="M11.25,73.08a9.57,9.57,0,0,1-.44,1.55c0,.07-.05.13-.07.19l-.09.2,0,.08a1.71,1.71,0,0,1-.47.63l0,0a.28.28,0,0,1,0-.09,1.64,1.64,0,0,1,.14-.39.81.81,0,0,0,.07-.22.28.28,0,0,0,0-.13.27.27,0,0,0,0-.14.41.41,0,0,0-.51-.1.85.85,0,0,0-.35.44c0,.09-.07.17-.1.25a.52.52,0,0,1-.07.15,1.34,1.34,0,0,1-.06.12.2.2,0,0,1,0-.09.43.43,0,0,1,0-.11,4.84,4.84,0,0,1,0-.53,2.48,2.48,0,0,1,0-.72c0-.16.09-.33.12-.5a.58.58,0,0,0-.12-.6,1.23,1.23,0,0,0-.52-.27,4.51,4.51,0,0,0-1.5,0,2.82,2.82,0,0,1-.87,0,1.55,1.55,0,0,0-.21,0,.22.22,0,0,1-.11-.18,1.89,1.89,0,0,1,0-.67,3.19,3.19,0,0,1,.21-.59A.58.58,0,0,1,6.51,71a2.77,2.77,0,0,1,.62-.19,3.62,3.62,0,0,1,1,0,3.65,3.65,0,0,1,2.06.58c.18.15.36.3.51.45l.1.11a1.3,1.3,0,0,1,.41,1.16"/><path class="cls-28" d="M11.25,73.08a9.57,9.57,0,0,1-.44,1.55c0,.07-.05.13-.07.19l-.09.2,0,.08a1.71,1.71,0,0,1-.47.63h0l0,0a.28.28,0,0,1,0-.09,1.64,1.64,0,0,1,.14-.39.81.81,0,0,0,.07-.22.28.28,0,0,0,0-.13.27.27,0,0,0,0-.14.41.41,0,0,0-.51-.1.85.85,0,0,0-.35.44c0,.09-.07.17-.1.25a.52.52,0,0,1-.07.15,1.34,1.34,0,0,1-.06.12.2.2,0,0,1,0-.09.43.43,0,0,1,0-.11,4.84,4.84,0,0,1,0-.53,2.48,2.48,0,0,1,0-.72c0-.16.09-.33.12-.5a9.68,9.68,0,0,1-.09,1.19c0,.06,0,.14.1.13l.05,0c.1-.12.18-.27.28-.4a.54.54,0,0,1,.41-.25.62.62,0,0,1,.41.2l.08,0c.08,0,.14-.08.18-.17a3.21,3.21,0,0,0,.3-1.77,6,6,0,0,1-.15-.71,1.3,1.3,0,0,1,.41,1.16"/><path class="cls-29" d="M10.74,71.81a1.09,1.09,0,0,1,.29.51.63.63,0,0,1-.15.53.73.73,0,0,1-.67.13,1.86,1.86,0,0,1-.62-.33A2.23,2.23,0,0,0,9,72.32a1.84,1.84,0,0,0-.52,0H7.06a1.46,1.46,0,0,1-.69-.12.65.65,0,0,1-.06-1,2.92,2.92,0,0,1,1.86-.32,3.73,3.73,0,0,1,2.06.57c.16.14.35.29.51.46"/><path class="cls-30" d="M8.08,70.91l-.48,0a2,2,0,0,0-.47.12.91.91,0,0,0-.33.22.47.47,0,0,0-.06.09c0,.14,0,.25.18.31a4.27,4.27,0,0,0,1.34,0c.6.05,1.13.43,1.73.5a.3.3,0,0,0,.26-.06.21.21,0,0,0,.05-.2.47.47,0,0,0-.1-.2,2,2,0,0,0-.42-.39A2.21,2.21,0,0,0,9,71.07,2.93,2.93,0,0,0,8.62,71a2,2,0,0,0-.48-.09H8.08"/><path class="cls-31" d="M4.63,72.9a1.2,1.2,0,0,1,.15-.24,3.82,3.82,0,0,1,1-.8,4.61,4.61,0,0,1,1.09-.54A5.9,5.9,0,0,1,9.38,71l.44.07a3,3,0,0,1,.51.16,1.75,1.75,0,0,1,.7.48.25.25,0,0,0,0-.12,1.93,1.93,0,0,1,.36,1.15,1.35,1.35,0,0,1-.21.59,1.64,1.64,0,0,1-.48.5,2.6,2.6,0,0,1-.4.23,2.28,2.28,0,0,1-.92.24.41.41,0,0,0-.16,0c-.36.13-.65.38-1,.49a5.8,5.8,0,0,1-1.17.17,3.3,3.3,0,0,1-1.68-.36,1.48,1.48,0,0,1-.43-.31,1.3,1.3,0,0,1-.31-1.37"/><path class="cls-32" d="M11.05,71.66a.25.25,0,0,1,0,.12,1.86,1.86,0,0,0-.7-.48,4.28,4.28,0,0,0-.51-.15,2.36,2.36,0,0,0-.44-.07,5.75,5.75,0,0,0-2.53.35A5.53,5.53,0,0,0,5.76,72a3.85,3.85,0,0,0-1,.81,1.14,1.14,0,0,0-.15.23.69.69,0,0,0-.09.34.78.78,0,0,1,.09-.45,1,1,0,0,1,.15-.24,3.82,3.82,0,0,1,1-.8,4.61,4.61,0,0,1,1.09-.54A5.9,5.9,0,0,1,9.38,71l.44.07a3,3,0,0,1,.51.16,1.75,1.75,0,0,1,.7.48.25.25,0,0,0,0-.12,2,2,0,0,1,.36,1.1,2.24,2.24,0,0,0-.36-1"/><path class="cls-32" d="M4.94,74.12a1.31,1.31,0,0,0,.43.31,3.3,3.3,0,0,0,1.68.36,5.8,5.8,0,0,0,1.17-.17,10.58,10.58,0,0,0,1-.49.41.41,0,0,1,.16,0,2.28,2.28,0,0,0,.92-.24,1.6,1.6,0,0,0,.4-.23,1.64,1.64,0,0,0,.48-.5,1.35,1.35,0,0,0,.21-.59v.15a1.35,1.35,0,0,1-.21.59,1.64,1.64,0,0,1-.48.5,2.6,2.6,0,0,1-.4.23,2.28,2.28,0,0,1-.92.24.41.41,0,0,0-.16,0c-.36.13-.65.38-1,.49a5.8,5.8,0,0,1-1.17.17,3.3,3.3,0,0,1-1.68-.36,1.45,1.45,0,0,1-.83-1.36,1.52,1.52,0,0,0,.4.9"/><path class="cls-33" d="M9.37,69.69a2.52,2.52,0,0,1,1.2.73,3,3,0,0,1,.69,2,1.31,1.31,0,0,1-.48,1,4.15,4.15,0,0,1-3.6.4c-.52-.17-1.3-.46-1.48-1a.92.92,0,0,1,0-.37,2.45,2.45,0,0,1,.27-.92c.13-.25.29-.49.44-.73a2.72,2.72,0,0,1,.57-.65,2.43,2.43,0,0,1,.79-.43,2.67,2.67,0,0,1,1.64,0"/><path class="cls-16" d="M5.58,72.91a.34.34,0,0,0,0,.14.29.29,0,0,0,.08.13,1.41,1.41,0,0,0,.43.34l.2.09.08,0,.09,0s-.06-.05,0-.09a.7.7,0,0,0,.06-.09l.07-.12.23-.52.38-.62.36-.59.67-.68.5-.5.86-.2,1.11.24a4,4,0,0,0-1-.74h0l-.12-.06a1.89,1.89,0,0,0-.7-.17,2.11,2.11,0,0,0-.66.1L8,69.7a2.91,2.91,0,0,0-.42.25,3.09,3.09,0,0,0-.39.33c-.12.12-.23.25-.34.38s-.21.27-.31.41-.18.28-.26.43-.16.26-.23.4l-.18.37-.13.31c0,.08-.13.31-.14.33"/><path class="cls-32" d="M6.62,73.64a.14.14,0,0,0,0-.06.2.2,0,0,1,0-.08l.09-.24.15-.32c.06-.13.12-.26.19-.38s.15-.28.23-.42.18-.28.28-.42a3.9,3.9,0,0,1,.31-.4A4,4,0,0,1,8.28,71a2.88,2.88,0,0,1,.39-.3,2,2,0,0,1,.42-.2l.18,0,.17,0a1.8,1.8,0,0,1,1.38.45l.1.1a.7.7,0,0,0-.08-.2.83.83,0,0,0-.23-.3,1,1,0,0,0-.22-.14,2,2,0,0,0-.72-.17,1.86,1.86,0,0,0-.66.1,1,1,0,0,0-.22.09,2.22,2.22,0,0,0-.42.25A3,3,0,0,0,8,70.9a3.15,3.15,0,0,0-.35.38c-.11.13-.21.27-.31.41s-.18.28-.26.42-.15.27-.22.41a2.53,2.53,0,0,0-.18.37,2.92,2.92,0,0,0-.14.31l-.09.23a.42.42,0,0,0,0,.1s0,.07,0,.09.06,0,.09,0h.09a.07.07,0,0,0,.06,0"/><path class="cls-34" d="M4.25,19.89c.1,1.5.11,3,.13,4.49s0,3-.13,4.5c-.1-1.5-.11-3-.12-4.5S4.15,21.39,4.25,19.89Z"/><path class="cls-35" d="M9.77,27.26l.3,0L10,27.1a2.39,2.39,0,0,0-.33-.25l-.07.22Z"/><polygon class="cls-36" points="1.56 25.3 2.44 25.78 1.91 26.46 1.04 25.98 1.56 25.3"/><path class="cls-35" d="M10.48,28.4a1.45,1.45,0,0,1-.25,0,2.7,2.7,0,0,1-1.18-.65,1.6,1.6,0,0,0-1-.43l-4.75-.62a.58.58,0,0,1-.11.4l-.91.22A2.54,2.54,0,0,1,.61,25.93a.14.14,0,0,0,0-.06l.05-.75-.53.69h0a.85.85,0,0,0,0,.8A2.48,2.48,0,0,0,1.89,28a.77.77,0,0,0,.76-.23h0l.3-.38L7.52,28a1.6,1.6,0,0,1,1,.43,2.66,2.66,0,0,0,1.18.66s.6.15.87-.19h0l.52-.69ZM3.17,27.08Z"/><polygon class="cls-36" points="9.77 26.51 10.59 26.61 10.07 27.29 9.25 27.19 9.77 26.51"/><polygon class="cls-37" points="2.03 26.74 1.91 26.46 2.44 25.78 2.75 26.55 2.2 26.84 2.03 26.74"/><polygon class="cls-38" points="1.13 25.88 1.01 25.59 1.56 25.3 1.13 25.88"/><path class="cls-39" d="M9.05,27.71a2.7,2.7,0,0,0,1.18.65s.75.19,1-.31l-.08-.19-.82-.11-.7-.68.18-.56.82.1-.08-.19a2.13,2.13,0,0,0-1.34-.61h0s-.64,0-.74.41c0,0,0,.29-.75.2l-4.76-.61a2.5,2.5,0,0,0-1.51-.92c-.72-.09-1.07.37-.8,1a2.52,2.52,0,0,0,1.8,1.37c.56.07.9-.2.88-.64L8,27.28A1.6,1.6,0,0,1,9.05,27.71Zm-6.3-1.16-.55.29-.87-.48L1,25.59l.55-.29.87.48Z"/><path class="cls-36" d="M7.85,27.06s0,0,0,0h0a.52.52,0,0,0-.36-.27l-3.83-.49H3.58c0-.09.06-.16.18-.14l3.83.49a.49.49,0,0,1,.35.27h0C8,27,8,27.05,7.85,27.06Z"/><path class="cls-35" d="M7.85,27.06a.06.06,0,0,1-.06,0L4,26.57a.52.52,0,0,1-.36-.27h0s0,0,0-.06h.06l3.83.49a.52.52,0,0,1,.36.27h0S7.84,27.05,7.85,27.06Z"/><path class="cls-34" d="M11.61,0c.1,6.94.08,13.89.12,20.83s0,13.89-.12,20.83c-.11-6.94-.08-13.89-.13-20.83S11.5,6.94,11.61,0Z"/><path class="cls-34" d="M2.41,26c.11,3,.08,6,.13,9s0,6-.13,9c-.11-3-.08-6-.12-9S2.3,29,2.41,26Z"/><path class="cls-35" d="M7.88,43.86a.73.73,0,0,1-.37-.43h0l.19.62Z"/><path class="cls-35" d="M10.78,42.45v0Z"/><path class="cls-35" d="M10.51,43.29A2.75,2.75,0,0,1,8.58,44L4.92,47.91c.35.21.38.61,0,1A2.29,2.29,0,0,1,3,49.48a.71.71,0,0,1-.56-.43h0l.25.82h0a.74.74,0,0,0,.56.43,2.23,2.23,0,0,0,1.94-.58A.68.68,0,0,0,5.42,49h0l-.13-.43,3.54-3.75a2.7,2.7,0,0,0,1.93-.74.84.84,0,0,0,.27-.83h0l-.24-.81A.86.86,0,0,1,10.51,43.29Z"/><polygon class="cls-36" points="4.42 47.98 3.37 48.13 3.61 48.95 4.55 48.82 4.64 48.72 4.42 47.98"/><polygon class="cls-38" points="3.32 49.26 3.2 49.27 2.76 48.77 3.37 48.13 3.61 48.95 3.32 49.26"/><polygon class="cls-38" points="4.64 48.72 4.42 47.98 4.87 48.48 4.64 48.72"/><polygon class="cls-36" points="10.11 43.03 8.88 43.2 8.63 42.38 9.87 42.21 10.11 43.03"/><polygon class="cls-37" points="8.88 43.2 8.42 43.69 7.92 43.13 8.63 42.38 8.88 43.2"/><polygon class="cls-37" points="10.39 42.79 10.14 43.06 10.11 43.03 9.87 42.21 10.39 42.79"/><path class="cls-39" d="M7.8,42.64c-.45.47-.39,1,.08,1.22L4.22,47.74a2.25,2.25,0,0,0-1.55.62c-.44.47-.29,1,.34,1.12A2.29,2.29,0,0,0,5,48.9c.35-.38.32-.78,0-1L8.58,44a2.75,2.75,0,0,0,1.93-.74c.53-.57.35-1.16-.4-1.34A2.65,2.65,0,0,0,7.8,42.64ZM4.87,48.48l-.61.65-1.06.14-.44-.5.61-.65,1-.14Zm5.52-5.69-.72.76-1.23.17-.52-.59.71-.75,1.24-.17Z"/><path class="cls-34" d="M6.85,26c.1,3.86.08,7.72.12,11.58s0,7.72-.12,11.58c-.11-3.86-.08-7.72-.13-11.58S6.74,29.87,6.85,26Z"/></g></g></svg>