<svg xmlns="http://www.w3.org/2000/svg" xmlns:xlink="http://www.w3.org/1999/xlink" viewBox="0 0 376.53 135.48"><defs><style>.cls-1,.cls-27{fill:none;}.cls-2{isolation:isolate;}.cls-3{fill:#292929;}.cls-4{fill:#404040;}.cls-5{fill:#1c1c1c;}.cls-6{fill:#333;}.cls-7{fill:#212121;}.cls-8{fill:#454545;}.cls-9{fill:#2b2b2b;}.cls-10{fill:#171717;}.cls-11{fill:#e0bc31;}.cls-12{fill:#fb0;}.cls-13{fill:#d49c00;}.cls-14{fill:#ffc936;}.cls-15,.cls-46{opacity:0.1;}.cls-16{fill:#d63a3a;}.cls-17{fill:#ff5959;}.cls-18{fill:#9c9c9c;}.cls-19,.cls-26{fill:gray;}.cls-20{fill:#6b6b6b;}.cls-21{fill:#474747;}.cls-22{fill:#363636;}.cls-23{fill:#525252;}.cls-24{fill:#f5f5f5;}.cls-25{fill:#fff;}.cls-26{opacity:0.78;mix-blend-mode:multiply;}.cls-27{stroke:#333;stroke-linecap:round;stroke-miterlimit:10;stroke-width:0.75px;}.cls-28{clip-path:url(#clip-path);}.cls-29{fill:#e1771c;}.cls-30{fill:#e8a126;}.cls-31{fill:#42484d;}.cls-32{fill:#2c3033;}.cls-33{fill:#212426;}.cls-34{clip-path:url(#clip-path-2);}.cls-35{clip-path:url(#clip-path-3);}.cls-36{opacity:0.05;}.cls-37{clip-path:url(#clip-path-4);}.cls-38{clip-path:url(#clip-path-5);}.cls-39{fill:#f2d0b8;}.cls-40{fill:#eec1a6;}.cls-41{fill:#e5e5e5;}.cls-42{fill:#cbcbcb;}.cls-43{fill:#f2f2f2;}.cls-44{clip-path:url(#clip-path-6);}.cls-45{fill:#ffcea1;}.cls-46{fill:#1d1d1b;}.cls-47{fill:#450000;}.cls-48{fill:#dadada;}.cls-49{fill:#edbc2e;}.cls-50{fill:#d06b19;}.cls-51{fill:#e08700;}.cls-52{fill:#f39200;}.cls-53{fill:#3c3c3b;}.cls-54{fill:#1a1a1a;}.cls-55{clip-path:url(#clip-path-7);}.cls-56{fill:#ad4532;}.cls-57{fill:#cc513b;}.cls-58{fill:#ffdba7;}.cls-59{fill:#575756;}.cls-60{fill:#9d9d9c;}.cls-61{fill:#f1725c;}.cls-62{clip-path:url(#clip-path-8);}.cls-63{fill:#e6e6e6;}.cls-64{fill:#ccc;}</style><clipPath id="clip-path"><path class="cls-1" d="M90.88,111.32c-.23-.36-1.27-2-.81-2.88a3.49,3.49,0,0,1,2.57-2.2.92.92,0,0,1,1.14.42,7.38,7.38,0,0,1,1.27,2.73l1.26,4.06.41,2.09h0v0h0a1.89,1.89,0,0,1-3.62,1,.94.94,0,0,1,0-.16l-1-2.64S91.1,111.67,90.88,111.32Z"/></clipPath><clipPath id="clip-path-2"><path class="cls-1" d="M93.15,115.32h0a1.88,1.88,0,0,1,3.32,1.76,1.34,1.34,0,0,1-.13.23h0l-1.16,1.76-2,3.86s-.21.87-.61,1c0,0-.7,1.13-2.82-.84a16.51,16.51,0,0,1,.53-1.82A35.55,35.55,0,0,1,93.15,115.32Z"/></clipPath><clipPath id="clip-path-3"><path class="cls-1" d="M93.5,109.6A3.51,3.51,0,0,1,96,107.36a.91.91,0,0,1,1.14.4,7.4,7.4,0,0,1,1.32,2.71l1.32,4,.56,2.11h0a1.89,1.89,0,0,1-3.58,1.16l0-.09h0l-1.15-2.8s-1-2.07-1.26-2.43S93.06,110.49,93.5,109.6Z"/></clipPath><clipPath id="clip-path-4"><path class="cls-1" d="M95.93,122.92l.26-4.2.34-1.74a1.89,1.89,0,1,1,3.78.12,2.89,2.89,0,0,1-.07.44h0l-.62,3a30.33,30.33,0,0,0-.24,3.46c.09,1.1-.35,1.35-.35,1.35,0,.59-2.65.18-2.65.18l-.25-.1Z"/></clipPath><clipPath id="clip-path-5"><path class="cls-1" d="M102.67,93.85c-.36.3-.71.5-.81.35s.37-.58.14-.84-.57.08-.68.33-.46.44-.78.77-.28.83-.85.85-2,.17-2,.17a1.77,1.77,0,0,0-1.18-.17,1.54,1.54,0,0,0-1,.43l-1.79.31a1.35,1.35,0,1,0,.15,2.7L96,98.54a1.71,1.71,0,0,0,1.44,0,1.14,1.14,0,0,0,.75-1.1,20.85,20.85,0,0,0,2.83-.88,7.55,7.55,0,0,0,1.53-.79c1.41-1,1.22-2.54.8-2.69S103,93.56,102.67,93.85Z"/></clipPath><clipPath id="clip-path-6"><path class="cls-1" d="M91.34,93.53a1.1,1.1,0,0,1,1.58.1c2.06,2.39,1.32,7.51,1.32,7.51h0a1.35,1.35,0,0,1-2.7,0,21.38,21.38,0,0,1-1-4.74A3.3,3.3,0,0,1,91.34,93.53Z"/></clipPath><clipPath id="clip-path-7"><path class="cls-1" d="M97.38,97a1.11,1.11,0,0,0-.06,1.59c2.18,2.27,7.35,2,7.35,2h0A1.35,1.35,0,0,0,105,97.9a21.71,21.71,0,0,0-4.63-1.4A3.29,3.29,0,0,0,97.38,97Z"/></clipPath><clipPath id="clip-path-8"><path class="cls-1" d="M105.09,89.72c.13.43.17.83,0,.87s-.38-.57-.71-.46-.15.56,0,.75a4.15,4.15,0,0,1,.4,1c.18.43.65.59.44,1.12s-.63,1.86-.63,1.86a1.76,1.76,0,0,0-.62,1A1.55,1.55,0,0,0,104,97l-.43,1.77a1.35,1.35,0,0,0,2.54.94l.63-2a1.74,1.74,0,0,0,.59-1.33,1.13,1.13,0,0,0-.71-1.12,21.33,21.33,0,0,0,.32-2.94,7.1,7.1,0,0,0-.12-1.71c-.36-1.7-1.84-2.14-2.15-1.81S105,89.28,105.09,89.72Z"/></clipPath></defs><title>Recurso 51</title><g class="cls-2"><g id="Capa_2" data-name="Capa 2"><g id="personajes"><polygon class="cls-3" points="82.06 120.78 74.54 116.44 74.54 112.48 82.06 116.82 82.06 120.78"/><polygon class="cls-4" points="81.55 119.82 81.55 120.01 75.04 116.25 75.04 114.53 75.22 114.63 75.22 116.16 81.55 119.82"/><polygon class="cls-5" points="81.55 118.29 81.55 119.82 75.22 116.16 75.22 114.63 81.55 118.29"/><polygon class="cls-5" points="82.06 117.49 74.54 113.15 74.54 112.48 82.06 116.82 82.06 117.49"/><polygon class="cls-6" points="82.06 120.78 82.06 116.82 85.53 114.81 85.53 118.78 82.06 120.78"/><polygon class="cls-7" points="82.06 117.49 82.06 116.82 85.53 114.81 85.53 115.49 82.06 117.49"/><polygon class="cls-3" points="82.16 117.11 74.16 112.49 74.16 111.21 82.16 115.83 82.16 117.11"/><polygon class="cls-6" points="82.16 117.11 82.16 115.83 85.91 113.66 85.91 114.94 82.16 117.11"/><polygon class="cls-8" points="82.16 115.83 74.16 111.21 77.91 109.04 85.91 113.66 82.16 115.83"/><polygon class="cls-9" points="83.62 112.49 83.41 112.61 79.68 110.46 77.67 111.62 77.46 111.49 79.68 110.21 83.62 112.49"/><polygon class="cls-9" points="82.68 112.7 81.12 113.61 80.91 113.48 82.68 112.46 82.68 112.7"/><polygon class="cls-10" points="83.41 112.61 81.41 113.77 81.12 113.61 82.68 112.7 82.68 112.46 79.74 110.76 77.96 111.78 77.67 111.62 79.68 110.46 83.41 112.61"/><polygon class="cls-11" points="78.35 109.52 77.96 109.73 77.96 111.78 78.35 111.57 78.35 109.52"/><polygon class="cls-12" points="77.46 108.93 77.46 111.49 77.96 111.78 77.96 109.73 80.91 111.43 80.91 113.48 81.41 113.77 81.41 111.21 77.46 108.93"/><polygon class="cls-13" points="81.79 113.56 81.41 113.77 81.41 111.21 81.79 111 81.79 113.56"/><polygon class="cls-14" points="81.79 111 81.41 111.21 77.46 108.93 77.85 108.72 81.79 111"/><polygon class="cls-13" points="79.16 115.37 79.16 114.1 79.97 113.61 79.97 113.43 78.91 114.05 78.91 115.52 79.16 115.37"/><polygon class="cls-12" points="78.91 115.52 78.91 114.05 76.8 112.83 76.8 114.3 78.91 115.52"/><polygon class="cls-14" points="78.91 114.05 76.8 112.83 77.85 112.21 79.97 113.43 78.91 114.05"/><ellipse class="cls-15" cx="113.93" cy="130.37" rx="9.69" ry="4.51" transform="translate(-32.17 37.47) rotate(-16.4)"/><polygon class="cls-16" points="112.53 134.62 120.06 130.27 120.06 124.48 112.53 128.82 112.53 134.62"/><polygon class="cls-17" points="112.53 128.82 120.06 124.48 115.78 122.01 108.26 126.35 112.53 128.82"/><polygon class="cls-18" points="112.53 134.62 112.53 128.82 108.26 126.35 108.26 132.15 112.53 134.62"/><polygon class="cls-19" points="108.76 127.17 108.76 131.84 112.03 133.73 112.03 133.15 109.26 131.55 109.26 127.47 108.76 127.17"/><polygon class="cls-20" points="109.26 127.47 109.26 131.55 112.03 133.15 112.03 129.06 109.26 127.47"/><path class="cls-21" d="M109.61,130.62l.25-.15h0a.19.19,0,0,1,.19,0,.56.56,0,0,1,.25.44.21.21,0,0,1-.07.17h0l-.26.14Z"/><path class="cls-22" d="M110.05,131.08a.55.55,0,0,0-.26-.44c-.14-.09-.26,0-.26.14a.59.59,0,0,0,.26.45A.16.16,0,0,0,110.05,131.08Z"/><path class="cls-21" d="M110.69,131.17l.38-.21h0a.25.25,0,0,1,.27,0,.84.84,0,0,1,.38.66.27.27,0,0,1-.11.25h0l-.38.22Z"/><path class="cls-22" d="M111.34,131.86a.84.84,0,0,0-.38-.66c-.21-.12-.38,0-.38.22a.84.84,0,0,0,.38.66C111.17,132.2,111.34,132.1,111.34,131.86Z"/><polygon class="cls-23" points="109.56 127.96 109.56 129.11 111.74 130.37 111.74 130.17 109.72 129 109.72 128.05 109.56 127.96"/><polygon class="cls-24" points="109.72 128.05 109.72 129 111.74 130.17 111.74 129.22 109.72 128.05"/><polygon class="cls-9" points="111.11 129.08 111.23 129.14 111.23 129.88 111.11 129.81 111.11 129.08"/><polygon class="cls-25" points="97.17 73.95 96.85 84.41 123.44 91.98 123.75 81.52 97.17 73.95"/><ellipse class="cls-3" cx="122.6" cy="90.42" rx="0.3" ry="0.56" transform="translate(-28.21 68.88) rotate(-28.28)"/><ellipse class="cls-3" cx="122.85" cy="82.34" rx="0.3" ry="0.56" transform="translate(-24.35 68.04) rotate(-28.28)"/><ellipse class="cls-3" cx="97.76" cy="83.93" rx="0.3" ry="0.56" transform="translate(-28.1 56.34) rotate(-28.28)"/><ellipse class="cls-3" cx="98.01" cy="75.85" rx="0.3" ry="0.56" transform="translate(-24.24 55.49) rotate(-28.28)"/><ellipse class="cls-26" cx="109.79" cy="86.99" rx="0.3" ry="0.56" transform="translate(-28.11 62.4) rotate(-28.28)"/><path class="cls-26" d="M109.75,87a.26.26,0,1,1,.3-.16.26.26,0,1,1-.3.16Z"/><ellipse class="cls-3" cx="110.04" cy="78.91" rx="0.3" ry="0.56" transform="translate(-24.25 61.56) rotate(-28.28)"/><path class="cls-27" d="M.38.38s22.43,103.1,188.67,103.1S376.16.38,376.16.38"/><ellipse class="cls-15" cx="95.2" cy="125.67" rx="9.69" ry="4.51" transform="translate(-11.61 9.71) rotate(-5.5)"/><g class="cls-28"><path class="cls-29" d="M93.59,106.58a.8.8,0,0,0-.26-.21h0l-.15,0c-1.11-.23-3.2,1.43-3.06,2.68a1.2,1.2,0,0,0,0,.24,6,6,0,0,0,.73,1.79,19.17,19.17,0,0,1,1.83,4c.34,1.06.93,2.81,1.22,3.74a39.27,39.27,0,0,0,1.93,4.65l.38.65h.09a3.82,3.82,0,0,0,.68,0,2.67,2.67,0,0,0,.66-.21c.53-.28,1.07-.69,1-1.35a2.56,2.56,0,0,0-.29-.8c-.27-.64-1.21-3.4-1.35-4.08s-.18-1.56-.37-2.33c-.4-1.69-1.21-4.14-1.72-5.8,0-.12-.07-.24-.11-.37s-.15-.46-.24-.7A6.49,6.49,0,0,0,93.59,106.58Z"/><path class="cls-30" d="M95,116.46a1,1,0,0,1-.27-.19,5.26,5.26,0,0,1-.65-2.68,10.94,10.94,0,0,0-.15-2,5.14,5.14,0,0,0-.39-1.32s-1-2.66-2.36-3.18A2.48,2.48,0,0,0,90.1,109a1.2,1.2,0,0,0,0,.24,6,6,0,0,0,.73,1.79,19.17,19.17,0,0,1,1.83,4c.41,1.29,1.06,3.24,1.4,4.34.14.48,1.15,3,1.4,3.44h0c.09.15.17.3.25.45h0c.2.35.36.63.43.74h0a.24.24,0,0,0,.09.07h.12c.12-.08.1-.48,0-.64-.23-.8-1.25-3.67-1.44-4.48-.13-.55-.53-1.44.07-1.83a2.3,2.3,0,0,1,.68-.24,1.34,1.34,0,0,0,.63-.31A2,2,0,0,1,95,116.46Z"/><path class="cls-15" d="M93.59,106.58a.8.8,0,0,0-.26-.21h0l-.15,0a2.75,2.75,0,0,0-2,.79h0l-.18.16,0,0a1.8,1.8,0,0,0-.19.2l0,0c-.07.07-.12.15-.18.22v0a2.14,2.14,0,0,0-.13.19l0,0-.09.19s0,0,0,.06a1.46,1.46,0,0,0-.14.48h0a1,1,0,0,0,0,.24,1.2,1.2,0,0,0,0,.24,6,6,0,0,0,.73,1.79,19.17,19.17,0,0,1,1.83,4c.41,1.29,1.06,3.24,1.4,4.34.14.48,1.15,3,1.4,3.44h0c.09.15.17.3.25.45h0l.08.15h0l.38.65h.17a3.77,3.77,0,0,0,.6,0,2.67,2.67,0,0,0,.66-.21c.53-.28,1.07-.69,1-1.35a2.56,2.56,0,0,0-.29-.8c-.27-.64-1.21-3.4-1.35-4.08s-.18-1.56-.37-2.33c-.4-1.69-1.21-4.14-1.72-5.8,0-.12-.07-.24-.11-.37s-.15-.46-.24-.7A6.49,6.49,0,0,0,93.59,106.58Z"/></g><path class="cls-31" d="M94.66,125c.34-.78-.39-1.62-1.91-1.86l-2-1.53-1.21,2.74h0a.57.57,0,0,0,.09.62,1.89,1.89,0,0,0,1.54.68l3-.33a.57.57,0,0,0,.52-.32Z"/><path class="cls-32" d="M94.66,125c.22-.51,0-1-.63-1.41a.93.93,0,0,1-.06,1.18c-.61.62-2.92.15-4.28-.87l-.2.45h0a.59.59,0,0,0,.1.62,1.88,1.88,0,0,0,1.53.68l3-.33a.57.57,0,0,0,.52-.32Z"/><path class="cls-33" d="M94.73,124.64c-.24.3-.83.58-2.15.6a4.65,4.65,0,0,1-3-1l-.05.12h0a.59.59,0,0,0,.1.62,1.88,1.88,0,0,0,1.53.68l3-.33a.57.57,0,0,0,.52-.32h0A.83.83,0,0,0,94.73,124.64Z"/><g class="cls-34"><path class="cls-29" d="M100.48,108.88a.84.84,0,0,0,0-.33h0a.39.39,0,0,0-.08-.14c-.61-1-3.26-1.27-4.06-.3l-.14.2a6,6,0,0,0-.76,1.78,19.2,19.2,0,0,1-1.59,4.14c-.52,1-1.34,2.64-1.81,3.49a39.25,39.25,0,0,0-2,4.64c-.12.43-.19.72-.19.72l.06.08a4.75,4.75,0,0,0,.51.44,2.43,2.43,0,0,0,.62.32,1.45,1.45,0,0,0,1.66-.24,2.86,2.86,0,0,0,.36-.77c.26-.64,1.57-3.25,2-3.83s1-1.22,1.39-1.89c.92-1.48,2.1-3.77,2.92-5.3l.19-.34.33-.66A6.35,6.35,0,0,0,100.48,108.88Z"/><path class="cls-30" d="M94.43,116.82a1,1,0,0,1-.06-.33,5.1,5.1,0,0,1,1.45-2.34,11,11,0,0,0,1.31-1.5c.07-.1.75-1.14.66-1.21s1.19-2.59.61-3.91a2.48,2.48,0,0,0-2.1.57l-.14.2a6,6,0,0,0-.76,1.78,19.2,19.2,0,0,1-1.59,4.14c-.63,1.2-1.56,3-2.11,4-.24.44-1.32,2.93-1.46,3.41h0c0,.16-.09.32-.14.49h0c-.11.39-.19.7-.23.83h0s0,.09,0,.12l0,0a.12.12,0,0,1,0,0c.15,0,.42-.27.5-.42.41-.72,1.73-3.46,2.18-4.17.29-.47.64-1.38,1.35-1.23a2.42,2.42,0,0,1,.65.31,1.43,1.43,0,0,0,.66.24A2,2,0,0,1,94.43,116.82Z"/><path class="cls-15" d="M100.48,108.88a.84.84,0,0,0,0-.33h0a.39.39,0,0,0-.08-.14,2.74,2.74,0,0,0-2-.87h-.62l-.28,0h0l-.22,0h-.06l-.21.07-.06,0a1.76,1.76,0,0,0-.43.23h0a1.37,1.37,0,0,0-.17.17l-.14.2a6,6,0,0,0-.76,1.78,19.2,19.2,0,0,1-1.59,4.14c-.63,1.2-1.56,3-2.11,4-.24.44-1.32,2.93-1.46,3.41h0c0,.16-.09.32-.14.49h0l0,.17h0c-.12.43-.19.72-.19.72l0,.05h0l0,0a.12.12,0,0,1,0,0h0a3.5,3.5,0,0,0,.46.39,2.43,2.43,0,0,0,.62.32,1.45,1.45,0,0,0,1.66-.24,2.86,2.86,0,0,0,.36-.77c.26-.64,1.57-3.25,2-3.83s1-1.22,1.39-1.89c.92-1.48,2.1-3.77,2.92-5.3l.19-.34.33-.66A6.35,6.35,0,0,0,100.48,108.88Z"/></g><g class="cls-35"><path class="cls-30" d="M97,107.67a.59.59,0,0,0-.27-.21h0a.42.42,0,0,0-.16,0c-1.14-.22-3.26,1.52-3.1,2.81a1.48,1.48,0,0,0,0,.24,6.17,6.17,0,0,0,.78,1.83,27.83,27.83,0,0,1,2.26,4.87c.36,1.08.69,2.1,1,3a40.61,40.61,0,0,0,2,4.68l.41.67h.1a3.57,3.57,0,0,0,.69-.07,2.19,2.19,0,0,0,.68-.23c.53-.29,1.08-.72,1-1.4a3.14,3.14,0,0,0-.31-.82c-.29-.65-1.28-3.42-1.44-4.11s-.21-1.6-.41-2.38c-.45-1.73-1.31-4.22-1.86-5.91,0-.13-.08-.25-.13-.38s-.16-.48-.25-.72A6.84,6.84,0,0,0,97,107.67Z"/><path class="cls-29" d="M98.64,117.77a.73.73,0,0,1-.28-.19,5.21,5.21,0,0,1-.71-2.71,10.68,10.68,0,0,0-.19-2,5.23,5.23,0,0,0-.42-1.35s-1.08-2.72-2.48-3.23a2.56,2.56,0,0,0-1.06,2,1.48,1.48,0,0,0,0,.24,6.17,6.17,0,0,0,.78,1.83,27.83,27.83,0,0,1,2.26,4.87c.44,1.32,1.68,4.59,2,5.72a7.24,7.24,0,0,0,.63,1.39h0l.27.45h0c.21.36.38.64.46.76h0l.1.07h.11c.13-.09.09-.5,0-.67-.24-.81-.47-1.64-.68-2.47-.14-.55-1.42-3.51-.81-3.93a2.46,2.46,0,0,1,.7-.26,1.31,1.31,0,0,0,.64-.33A2,2,0,0,1,98.64,117.77Z"/><path class="cls-36" d="M97,107.67a.59.59,0,0,0-.27-.21h0a.42.42,0,0,0-.16,0,2.81,2.81,0,0,0-2,.84h0l-.2.19,0,0-.18.19,0,0-.12.16a.27.27,0,0,0-.07.08l-.12.18s0,.05,0,.08a1.09,1.09,0,0,0-.08.15l-.05.1s0,.09,0,.13l0,.13a1.55,1.55,0,0,0,0,.21v0a1,1,0,0,0,0,.25,1.48,1.48,0,0,0,0,.24,6.17,6.17,0,0,0,.78,1.83,27.83,27.83,0,0,1,2.26,4.87l.3.9.09.29c.07.21.14.41.2.61l.1.3.21.67.09.28h0c.06.21,1,2.47,1,2.67a7.24,7.24,0,0,0,.63,1.39h0l.27.45h0l.09.16h0l.18.3,0,0,.09.14v0l.11.18h.17a4.48,4.48,0,0,0,.62-.07,2.19,2.19,0,0,0,.68-.23c.53-.29,1.08-.72,1-1.4a3.14,3.14,0,0,0-.31-.82c-.29-.65-1.28-3.42-1.44-4.11s-.21-1.6-.41-2.38c-.45-1.73-1.31-4.22-1.86-5.91,0-.13-.08-.25-.13-.38s-.16-.48-.25-.72A6.84,6.84,0,0,0,97,107.67Z"/></g><path class="cls-31" d="M101.37,126c0-.86-1-1.36-2.46-1l-2.48-.65-.09,3h0a.56.56,0,0,0,.32.53,1.85,1.85,0,0,0,1.67.05l2.67-1.43a.57.57,0,0,0,.36-.49Z"/><path class="cls-32" d="M101.37,126c0-.56-.4-1-1.11-1.08a.94.94,0,0,1,.39,1.12c-.33.8-2.65,1.24-4.29.81l0,.49h0a.56.56,0,0,0,.32.53,1.85,1.85,0,0,0,1.67.05l2.67-1.43a.57.57,0,0,0,.36-.49Z"/><path class="cls-33" d="M101.32,125.63c-.12.37-.55.85-1.78,1.37a4.71,4.71,0,0,1-3.2.19v.13h0a.56.56,0,0,0,.32.53,1.85,1.85,0,0,0,1.67.05l2.67-1.43a.57.57,0,0,0,.36-.49h0A1,1,0,0,0,101.32,125.63Z"/><g class="cls-37"><path class="cls-30" d="M100.9,107.87a.66.66,0,0,0-.16-.3h0a.38.38,0,0,0-.12-.1c-1-.67-3.6.05-4,1.28,0,.07,0,.15-.05.24a6.1,6.1,0,0,0,0,2,27.69,27.69,0,0,1,.06,5.36c-.11,1.14-.23,2.2-.35,3.19a39.61,39.61,0,0,0-.06,5.11c0,.46.09.77.09.77l.09,0a4,4,0,0,0,.66.23,2.85,2.85,0,0,0,.71.07c.61,0,1.29-.22,1.49-.88a3.14,3.14,0,0,0,0-.87,42.12,42.12,0,0,1,.38-4.34c.17-.79.46-1.54.6-2.34.3-1.76.54-4.38.73-6.15,0-.13,0-.26,0-.4s0-.5.06-.76A6.36,6.36,0,0,0,100.9,107.87Z"/><path class="cls-29" d="M98.21,117.75a1,1,0,0,1-.18-.29,5.26,5.26,0,0,1,.47-2.77,10.85,10.85,0,0,0,.67-1.94,5.14,5.14,0,0,0,.16-1.4s.13-2.92-.93-4a2.57,2.57,0,0,0-1.78,1.35c0,.07,0,.15-.05.24a6.1,6.1,0,0,0,0,2,27.69,27.69,0,0,1,.06,5.36c-.14,1.38-.36,4.88-.49,6a6.53,6.53,0,0,0,0,1.53h0l.06.52h0c0,.41.09.73.1.87h0a.29.29,0,0,0,.07.1l0,0,.07,0c.15,0,.29-.41.31-.59.12-.84.25-1.69.4-2.53.1-.56.15-3.79.87-3.91a2.29,2.29,0,0,1,.74,0,1.39,1.39,0,0,0,.73,0A2,2,0,0,1,98.21,117.75Z"/><path class="cls-36" d="M100.9,107.87a.66.66,0,0,0-.16-.3h0a.38.38,0,0,0-.12-.1,2.79,2.79,0,0,0-2.21-.07h0a1.34,1.34,0,0,0-.26.09h0l-.24.1-.06,0-.18.09-.09.05-.18.12-.08.05-.13.11-.09.07-.09.1a.76.76,0,0,0-.09.09l-.13.18a.08.08,0,0,1,0,0,1.47,1.47,0,0,0-.1.22c0,.07,0,.15-.05.24a6.1,6.1,0,0,0,0,2,27.69,27.69,0,0,1,.06,5.36c0,.32-.07.64-.1,1l0,.3c0,.21,0,.43-.07.64l0,.31c0,.24,0,.47-.07.69l0,.3h0c0,.21-.12,2.64-.14,2.85a6.53,6.53,0,0,0,0,1.53h0l.06.52h0a.88.88,0,0,0,0,.17h0c0,.13,0,.24,0,.35v0l0,.16v0c0,.13,0,.21,0,.21l.06,0h0l0,0,.07,0h0a4,4,0,0,0,.59.2,2.85,2.85,0,0,0,.71.07c.61,0,1.29-.22,1.49-.88a3.14,3.14,0,0,0,0-.87,42.12,42.12,0,0,1,.38-4.34c.17-.79.46-1.54.6-2.34.3-1.76.54-4.38.73-6.15,0-.13,0-.26,0-.4s0-.5.06-.76A6.36,6.36,0,0,0,100.9,107.87Z"/></g><g class="cls-38"><path class="cls-39" d="M93.4,98.48a18.88,18.88,0,0,0,3.48-.8c.82-.22,1.64-.46,2.45-.71.22-.07.41-.15.64-.2l.26-.07a4.91,4.91,0,0,0,.51-.15,7.45,7.45,0,0,0,1.4-.66,2.63,2.63,0,0,0,1-.86,1.93,1.93,0,0,0,.19-.38,1.28,1.28,0,0,0,.13-.39,2.26,2.26,0,0,0,0-.37,1.14,1.14,0,0,0,0-.45.32.32,0,0,0-.32-.26.13.13,0,0,0-.1,0,.29.29,0,0,0,0,.14c0,.12,0,.23-.08.35a.43.43,0,0,1-.27.32,1.88,1.88,0,0,1-.64.26c-.1,0-.41.07-.35-.13a.7.7,0,0,1,.13-.17.83.83,0,0,0,.08-.12,1.39,1.39,0,0,0,.06-.19.33.33,0,0,0,0-.17s0-.11-.09-.12-.24,0-.32.16a1.63,1.63,0,0,0-.11.17c-.1.17-.24.23-.37.35a1.66,1.66,0,0,0-.32.43l-.29.45a.75.75,0,0,1-.45.39,1.84,1.84,0,0,1-.4.06h-.25l-1.8.19c-1,.12-1.92.25-2.87.39-.3,0-.59.11-.89.16a1.84,1.84,0,0,1-.62,0c-.63-.07-1.25,0-1.88-.11a1.35,1.35,0,0,0-.49,0c-.35.07-.48.64-.59.94a3.69,3.69,0,0,0-.21.64c0,.09-.17.52-.11.58a1.11,1.11,0,0,0,.64.29,9.69,9.69,0,0,0,1.94.07l.93,0"/><path class="cls-40" d="M92.47,98.51a9.69,9.69,0,0,1-1.94-.07,1.11,1.11,0,0,1-.64-.29s0-.28.07-.44a1.23,1.23,0,0,0,.59.24,9,9,0,0,0,1.94.07c.31,0,.62,0,.93,0a18.88,18.88,0,0,0,3.48-.8c.82-.22,1.64-.46,2.45-.71.23-.07.42-.15.65-.2l.25-.07a4.91,4.91,0,0,0,.51-.15,7.17,7.17,0,0,0,1.4-.66,2,2,0,0,0,1.23-1.24,1.48,1.48,0,0,0,.13-.35s0,0,0,.08a2.26,2.26,0,0,1,0,.37,1.28,1.28,0,0,1-.13.39,1.93,1.93,0,0,1-.19.38,2.63,2.63,0,0,1-1,.86,7.45,7.45,0,0,1-1.4.66,4.91,4.91,0,0,1-.51.15l-.26.07c-.23,0-.42.13-.64.2-.81.25-1.63.49-2.45.71a18.88,18.88,0,0,1-3.48.8l-.93,0"/><path class="cls-41" d="M90.71,95.74h.38c.87,0,1.7.25,2.58.3a8.32,8.32,0,0,0,2.16-.28l.08,0,.16,0c.26-.06.52-.14.79-.19l.39,0c.42,0,.38.34.41.67v.13a3.12,3.12,0,0,1,0,.75,1.49,1.49,0,0,1-.6,1,1,1,0,0,1-.41.16q-.76.2-1.53.33a9.69,9.69,0,0,1-1.4.22l-1.46.07c-.53,0-1.07,0-1.61,0l-.5,0a11.3,11.3,0,0,1-2.25-.32,5.22,5.22,0,0,1-1.09-.38c-.28-.14-.62-.22-.7-.58,0,0,0,0,0-.08a.88.88,0,0,1,0-.23v0a1.27,1.27,0,0,1,.52-.78,3.42,3.42,0,0,1,1.43-.6h.25c.8-.1,1.63,0,2.43-.05"/><path class="cls-42" d="M96.26,95.6a1.46,1.46,0,0,1,.65,0c.28.06.49.35.65.56l.11.16a3.12,3.12,0,0,1,0,.75,1.49,1.49,0,0,1-.6,1,1,1,0,0,1-.41.16q-.76.2-1.53.33a9.69,9.69,0,0,1-1.4.22l-1.46.07c-.53,0-1.07,0-1.61,0l-.5,0a11.3,11.3,0,0,1-2.25-.32,5.22,5.22,0,0,1-1.09-.38c-.28-.14-.62-.22-.7-.58,0,0,0,0,0-.08a.88.88,0,0,1,0-.23,1.09,1.09,0,0,0,.5.29,13.31,13.31,0,0,0,3.75.71.55.55,0,0,0,.44-.12.66.66,0,0,0,.12-.34c0-.14,0-.28,0-.43.1.21.2.41.29.62a.18.18,0,0,1,.25,0,1.8,1.8,0,0,1,.2.19.22.22,0,0,0,.25.05c.16-.09,0-.36.11-.52a1.66,1.66,0,0,1,.31.38,1.1,1.1,0,0,0,.94.28c.35-.08.25-.57.27-.9,0,0,.47.51.51.56.29.27.5.15.86.11s.65-.06.59-.45a.64.64,0,0,0,1.09-.51,1.21,1.21,0,0,0-.43-.83c-.14-.13-.3-.24-.43-.38s0,0,0-.06,0,0,.06,0a2.79,2.79,0,0,1,.49-.18"/><path class="cls-42" d="M90.71,95.74h.38c.87,0,1.7.25,2.58.3a8.32,8.32,0,0,0,2.16-.28A4.11,4.11,0,0,1,95,96a4.88,4.88,0,0,0-.85.15.52.52,0,0,0-.22.17,1.51,1.51,0,0,0-.06.37,1.09,1.09,0,0,0,0,.4,1.14,1.14,0,0,0-.31-.64c-.08-.09-.32-.33-.44-.17a.45.45,0,0,0-.05.25,1.21,1.21,0,0,1,0,.19,1.46,1.46,0,0,0-.9-.72,1.38,1.38,0,0,0-.67-.09c-.2,0-.29.23-.35.41a.94.94,0,0,1-.26.48,1.68,1.68,0,0,0,0-.86l-.38.22,0,0c-.09,0,0-.21-.12-.21-.22.3,0,.76-.23,1.08a1.17,1.17,0,0,0-.07-.72,1.16,1.16,0,0,0-.87-.46,2.8,2.8,0,0,0-.76-.07c.8-.1,1.63,0,2.43-.05"/><path class="cls-43" d="M95.82,95.68l-.13.1a1.54,1.54,0,0,1,.68.36,1.7,1.7,0,0,1,.35.63,1.3,1.3,0,0,1-.08,1,1.11,1.11,0,0,1-.41.5,1.55,1.55,0,0,1-.29.14,1.52,1.52,0,0,0,.76.14,2.48,2.48,0,0,0,.81-.16,1.31,1.31,0,0,0,.28-.17,1,1,0,0,0,.24-.51,3.81,3.81,0,0,0-.31-2,.35.35,0,0,0-.08-.13.72.72,0,0,0-.52-.15,4.65,4.65,0,0,0-.75.07,1.34,1.34,0,0,0-.55.23"/></g><g class="cls-44"><path class="cls-39" d="M94,101.55a6.07,6.07,0,0,1-.09,1.71c-.2.78-.42,1.57-.47,1.77s-.32,1.06-.54,1.85l-.24.85a3.6,3.6,0,0,0-.12.61v.06a1.83,1.83,0,0,0,.34.87,2.65,2.65,0,0,1,.15,1c0,.24.18,1,.18,1v.25l.07.16-.06.19-.18,0,0,.12-.42.06a5.27,5.27,0,0,1-.68-.34,6.81,6.81,0,0,1-.58-1.24c0-.07.12-1.24.17-1.64,0-.11,0-.43,0-.85,0-1.15,0-3.09,0-3.92a7.4,7.4,0,0,1,.15-1.72c.1-.52.22-1,.28-1.22A13.35,13.35,0,0,0,92,99s1.4-.62,1.73-.36.26,2.45.24,3"/><path class="cls-41" d="M90.91,98.3c0,.08,0,.17,0,.25a.51.51,0,0,0,0,.13c.11.89.42,1.72.54,2.61a8.42,8.42,0,0,1-.09,2.24s0,0,0,.08a1,1,0,0,0,0,.16c0,.28-.1.56-.12.83a2.68,2.68,0,0,0,0,.4c0,.44.38.37.72.36h.14a3.3,3.3,0,0,0,.76-.1,1.54,1.54,0,0,0,1-.7,1.37,1.37,0,0,0,.12-.44c.09-.53.15-1.06.2-1.6a10.1,10.1,0,0,0,.1-1.45c0-.5,0-1-.07-1.49s-.08-1.1-.14-1.64c0-.18,0-.35-.07-.52a11.88,11.88,0,0,0-.53-2.27A5.86,5.86,0,0,0,93,94.07c-.17-.27-.28-.61-.66-.65h-.08a.63.63,0,0,0-.24,0h0a1.33,1.33,0,0,0-.75.6,3.61,3.61,0,0,0-.48,1.52h0a.57.57,0,0,0,0,.13v.12c0,.83.13,1.66.18,2.49"/><path class="cls-42" d="M91.27,104a1.5,1.5,0,0,0,0,.67c.08.29.4.47.63.61l.18.1a3.3,3.3,0,0,0,.76-.1,1.54,1.54,0,0,0,1-.7,1.37,1.37,0,0,0,.12-.44c.09-.53.15-1.06.2-1.6a10.1,10.1,0,0,0,.1-1.45c0-.5,0-1-.07-1.49s-.08-1.1-.14-1.64c0-.18,0-.35-.07-.52a11.88,11.88,0,0,0-.53-2.27A5.86,5.86,0,0,0,93,94.07c-.17-.27-.28-.61-.66-.65h-.08a.63.63,0,0,0-.24,0,1.13,1.13,0,0,1,.35.48,13.75,13.75,0,0,1,1.06,3.77.6.6,0,0,1-.07.46.56.56,0,0,1-.34.15l-.44.09.66.24a.18.18,0,0,0,0,.25,1.24,1.24,0,0,0,.21.19.24.24,0,0,1,.08.26c-.08.17-.37,0-.52.15a1.52,1.52,0,0,0,.41.29,1.12,1.12,0,0,1,.38.93c-.06.36-.57.31-.89.35l.61.48c.3.27.21.5.19.87s0,.67-.41.64a.65.65,0,0,1-.41,1.16,1.25,1.25,0,0,1-.89-.36c-.15-.13-.27-.29-.43-.41l-.06,0s0,0,0,.06a2.83,2.83,0,0,0-.14.52"/><path class="cls-42" d="M90.91,98.3c0,.08,0,.17,0,.25a.51.51,0,0,0,0,.13c.11.89.42,1.72.54,2.61a8.42,8.42,0,0,1-.09,2.24,4.55,4.55,0,0,0,.15-.91,5.14,5.14,0,0,1,.08-.88.43.43,0,0,1,.15-.24,1.18,1.18,0,0,1,.38-.1,1.06,1.06,0,0,1,.4-.08,1.21,1.21,0,0,1-.69-.25c-.09-.08-.36-.31-.2-.44a.41.41,0,0,1,.24-.08l.19,0a1.51,1.51,0,0,1-.82-.86,1.43,1.43,0,0,1-.15-.67c0-.21.21-.32.39-.4a.83.83,0,0,0,.46-.31,1.61,1.61,0,0,1-.87,0c.06-.14.12-.27.19-.41s0,0,0,0-.22,0-.23-.1c.29-.26.78-.11,1.09-.34a1.28,1.28,0,0,1-.75,0,1.24,1.24,0,0,1-.55-.86,3.28,3.28,0,0,1-.14-.76c0,.83.13,1.66.18,2.49"/><path class="cls-43" d="M91.31,103.52a1.13,1.13,0,0,1,.1-.13,1.43,1.43,0,0,0,.43.65,1.46,1.46,0,0,0,.67.3,1.37,1.37,0,0,0,1-.16,1.25,1.25,0,0,0,.47-.47,1.42,1.42,0,0,0,.11-.31,1.49,1.49,0,0,1,.21.77,2.39,2.39,0,0,1-.09.84.91.91,0,0,1-.14.3,1.12,1.12,0,0,1-.5.3,4,4,0,0,1-2.08-.14l-.13-.07a.69.69,0,0,1-.2-.52,4.07,4.07,0,0,1,0-.78,1.51,1.51,0,0,1,.18-.58"/></g><path class="cls-41" d="M91,98.6a3.11,3.11,0,0,0,.23.28,6,6,0,0,0,1,.93,6.93,6.93,0,0,0,2,1,6,6,0,0,0,1.09.26,5.84,5.84,0,0,0,4.56-1c.27-1.12.46-2,.51-2.25a2.23,2.23,0,0,0,0-.63,3.07,3.07,0,0,0-1-1.56l0,0a11.91,11.91,0,0,0-1.08-.92c-.37-.28-.75-.55-1.14-.82a4.82,4.82,0,0,0-3.32-.88l-.4,0c-1.36.1-1.84,1.48-2.05,2.63C91.25,96.34,91.1,97.4,91,98.6Z"/><path class="cls-42" d="M95.31,101.09a5.84,5.84,0,0,0,4.56-1c.27-1.12.46-2,.51-2.25a2.23,2.23,0,0,0,0-.63,2.53,2.53,0,0,0-.71-1.25,1.45,1.45,0,0,1-.89.36,2.64,2.64,0,0,1-.16,1.94,1.47,1.47,0,0,1-.53.81c-.28.17-.75,0-.77-.29a1.57,1.57,0,0,1-1.17,1.2,2.58,2.58,0,0,1-1.72-.22,1.76,1.76,0,0,1-1.07-1.19,5.6,5.6,0,0,1-1.16-.27.61.61,0,0,1-.29-.17.59.59,0,0,1,0-.52,4.19,4.19,0,0,1,.34-.71,1.66,1.66,0,0,1-1-.71c-.1.68-.22,1.53-.33,2.46a3.11,3.11,0,0,0,.23.28,6,6,0,0,0,1,.93,6.93,6.93,0,0,0,2,1A6,6,0,0,0,95.31,101.09Z"/><path class="cls-30" d="M98.16,100.86a1.32,1.32,0,0,1-1.73-1.63h0c.19-.62.37-1.19.52-1.74.28-1,1-1.6,2.56-1.76,0,0-.65-.63-1-.92,0,0-1.35.76-1.35.76-1.58.24-3.85-1.41-2.23-1.85.07,0,1.17-.42,1.26-.43l-.08,0a4.63,4.63,0,0,0-2.36-.31,3.36,3.36,0,0,0-2.15,2.68c0,.36-.24,2-.38,3.23L91,98.6c-.48,3.87-.95,9.17-1,9.89s3.73,2.06,6,2.54a1.65,1.65,0,0,0,2-1.3c.54-2.63,1.38-7.26,2-9.94a.12.12,0,0,0-.21-.1A3.44,3.44,0,0,1,98.16,100.86Z"/><path class="cls-29" d="M92.66,109.33a4.78,4.78,0,0,1-1.5-2.55,23.76,23.76,0,0,1,0-2.8,6.8,6.8,0,0,1-.06-2.2c.09-.35.28-.66.4-1a8.26,8.26,0,0,0,.22-2.44c0-.54.08-1.07.14-1.61a4.07,4.07,0,0,1,.42-1.58,3.63,3.63,0,0,1,1.18-1.09A18,18,0,0,1,95,93.12a.5.5,0,0,0,.19-.13,5.34,5.34,0,0,0-1.48-.06c-2.06.09-2.19,1.35-2.33,2.34-.06.41-.45,3.33-.45,3.33-.48,3.87-.95,9.17-1,9.89,0,.56,2.36,1.54,4.5,2.15A11.67,11.67,0,0,1,92.66,109.33Z"/><path class="cls-45" d="M98,94.5l.58-4.16-3.3-.45L94.69,94a.36.36,0,0,0,0,.1v.07h0a.85.85,0,0,0,.38.62,2.63,2.63,0,0,0,2.34.33.87.87,0,0,0,.54-.5h0l0-.12Z"/><path class="cls-45" d="M96,90.24a8.52,8.52,0,0,0,0,1.43A2.77,2.77,0,0,0,96.4,93a2.1,2.1,0,0,0,1.32.85,2.07,2.07,0,0,0,.5,0,1.18,1.18,0,0,0,.49-.12,1.24,1.24,0,0,0,.5-.58h0l.07-.16a11.73,11.73,0,0,0,.9-3.92,2,2,0,0,0,0-.6A1.59,1.59,0,0,0,99,87.33a3.14,3.14,0,0,0-1.74.12,1.51,1.51,0,0,0-.45.2c-.12.09-.22.21-.34.31A9.07,9.07,0,0,0,96,90.24Z"/><path class="cls-45" d="M98.66,94.07v0Z"/><path class="cls-46" d="M97.77,92.73a5,5,0,0,0-.1.86c0,.32.38.31.55.3a1.18,1.18,0,0,0,.49-.12,1.24,1.24,0,0,0,.5-.58h0c-.62.45-.91,0-.83-1.57C98.19,92.31,97.87,92,97.77,92.73Z"/><path class="cls-47" d="M94.39,90.7a6.85,6.85,0,0,0,.08.75,11.66,11.66,0,0,0,.33,1.62.07.07,0,0,0,0,.05.7.7,0,0,0,.31.37,2.83,2.83,0,0,0,1,.29,2.24,2.24,0,0,0,1.18-.06.61.61,0,0,0,.14-.07,1.18,1.18,0,0,0,.25-.19,2.13,2.13,0,0,0,.56-1.07,1,1,0,0,0,0-.18c0-.16,0-.32.07-.49,0-.34.07-.67.14-1l0-.08c0-.08,0-.15.07-.22a1.55,1.55,0,0,1,.86-1c.18-.08.59-.11.74-.3,1-1.19-.92-2.5-2.59-2.59C97.19,86.54,94.12,86.44,94.39,90.7Z"/><path class="cls-45" d="M98.42,90.33a.44.44,0,0,1,.32.38,2.6,2.6,0,0,1-.28,1.38.37.37,0,0,1-.17.13.31.31,0,0,1-.3-.15.65.65,0,0,1-.08-.31,4.79,4.79,0,0,1,0-.93.81.81,0,0,1,.12-.35A.34.34,0,0,1,98.42,90.33Z"/><path class="cls-48" d="M94.39,90.7a6.85,6.85,0,0,0,.08.75,2.52,2.52,0,0,0,.54.21,3.12,3.12,0,0,0,.44.09,2.46,2.46,0,0,0,.47,0h0a2.82,2.82,0,0,0,2-1.18,1.3,1.3,0,0,0,.1-.15h0l-.29-.18-.21-.12-.06.08a2.19,2.19,0,0,1-1.62,1h-.06a1.91,1.91,0,0,1-.79-.1A2.14,2.14,0,0,1,94.39,90.7Z"/><path class="cls-49" d="M94.08,88.7a1.79,1.79,0,0,1,.2-.26,4.82,4.82,0,0,1,1.23-.8,5.72,5.72,0,0,1,1.33-.48,6.77,6.77,0,0,1,3-.08,4.07,4.07,0,0,1,.5.13,3.64,3.64,0,0,1,.57.25,1.79,1.79,0,0,1,1.05,1.89,1.53,1.53,0,0,1-.32.65,2.34,2.34,0,0,1-.61.52,3.44,3.44,0,0,1-.49.21,2.78,2.78,0,0,1-1.1.16.62.62,0,0,0-.19,0,10.73,10.73,0,0,1-1.24.44,6.31,6.31,0,0,1-1.37.05,3.87,3.87,0,0,1-1.89-.63,1.69,1.69,0,0,1-.46-.42,1.5,1.5,0,0,1-.18-1.62"/><path class="cls-50" d="M94.28,90.15a1.69,1.69,0,0,0,.46.42,3.87,3.87,0,0,0,1.89.63,7,7,0,0,0,1.37,0,10.73,10.73,0,0,0,1.24-.44.62.62,0,0,1,.19,0,2.55,2.55,0,0,0,1.09-.17,2.37,2.37,0,0,0,.5-.2,2.34,2.34,0,0,0,.61-.52,1.53,1.53,0,0,0,.32-.65v-.05a1.8,1.8,0,0,1,0,.22,1.53,1.53,0,0,1-.32.65,2.34,2.34,0,0,1-.61.52,3.11,3.11,0,0,1-.5.21,2.7,2.7,0,0,1-1.09.16.62.62,0,0,0-.19,0,10.73,10.73,0,0,1-1.24.44,7,7,0,0,1-1.37.05,3.87,3.87,0,0,1-1.89-.63,1.69,1.69,0,0,1-.46-.42,1.74,1.74,0,0,1-.33-1.26,1.78,1.78,0,0,0,.35,1.09"/><path class="cls-51" d="M95.51,87.61c-1.52.66-1.88,1.83-.82,2.61a5.21,5.21,0,0,0,4.65.22c1.51-.66,1.87-1.83.82-2.61A5.21,5.21,0,0,0,95.51,87.61Z"/><path class="cls-52" d="M96.51,90.57a5.51,5.51,0,0,0,2.72-.39c.73-.32,1.2-.78,1.25-1.24a1,1,0,0,0-.49-.88,3.43,3.43,0,0,0-1.66-.57,5.34,5.34,0,0,0-2.71.38c-.74.32-1.2.78-1.26,1.24a1,1,0,0,0,.49.89A3.58,3.58,0,0,0,96.51,90.57Z"/><path class="cls-52" d="M94.38,89c0,.37,1.71,1.49,1.7,1.51s4.36-1.41,4.4-1.58a3.42,3.42,0,0,0,0-.78C100,84.49,94.36,85.34,94.38,89Z"/><path class="cls-51" d="M96.93,90.67a.8.8,0,0,1-.6,0l.08-.68a.13.13,0,0,1,.12-.12l.38,0a.15.15,0,0,1,.07.05A.19.19,0,0,1,97,90Z"/><path class="cls-51" d="M100,89.79a.7.7,0,0,1-.46.23l.07-.68a.23.23,0,0,1,.1-.17L100,89s0,0,.06,0a.14.14,0,0,1,0,.07Z"/><path class="cls-53" d="M99,88.64c0,.12,0,.22.05.22s.08-.08.09-.2,0-.21,0-.22S99,88.53,99,88.64Z"/><path class="cls-53" d="M98.59,88.87c0,.12,0,.21,0,.22s.08-.09.09-.2,0-.22,0-.22S98.6,88.75,98.59,88.87Z"/><path class="cls-53" d="M98.19,89.09c0,.12,0,.22,0,.22s.08-.08.09-.2,0-.21,0-.22S98.2,89,98.19,89.09Z"/><path class="cls-49" d="M96.15,87.54a3.44,3.44,0,0,1,3.43-1.12,2.21,2.21,0,0,0-.57-.36A2.63,2.63,0,0,0,96.15,87.54Z"/><path class="cls-46" d="M95.27,87.08a5.56,5.56,0,0,1,2.12-1.37h-.07a3.39,3.39,0,0,0-1.18.35h0A3.68,3.68,0,0,0,95.27,87.08Z"/><path class="cls-49" d="M97.32,88.3a3.25,3.25,0,0,1,3-1,1.23,1.23,0,0,0-.17-.32A2.63,2.63,0,0,0,97.32,88.3Z"/><path class="cls-54" d="M90.6,101.78A13.32,13.32,0,0,0,99.07,104l-.21,1.09a12.78,12.78,0,0,1-8.4-2.12Z"/><path class="cls-54" d="M90.2,105.78a12.84,12.84,0,0,0,8.14,2.06c.06-.36.14-.73.21-1.11a13.44,13.44,0,0,1-8.24-2.16C90.27,105,90.23,105.4,90.2,105.78Z"/><g class="cls-55"><path class="cls-39" d="M104.16,100.24a18.5,18.5,0,0,0,3.57-.15c.85-.06,1.7-.15,2.54-.24.23,0,.44-.07.67-.08h.26l.53-.06a7.69,7.69,0,0,0,1.5-.39,2.67,2.67,0,0,0,1.19-.65c.09-.11.17-.22.25-.34a1.27,1.27,0,0,0,.2-.36,1.45,1.45,0,0,0,.08-.36,1.4,1.4,0,0,0,.06-.45.33.33,0,0,0-.27-.32l-.1,0a.29.29,0,0,0-.08.13,3.27,3.27,0,0,1-.14.33.52.52,0,0,1-.12.17.51.51,0,0,1-.21.1,2.16,2.16,0,0,1-.67.14c-.1,0-.41,0-.32-.19s.11-.1.16-.15.08-.06.11-.1a1.42,1.42,0,0,0,.08-.18.47.47,0,0,0,0-.16s0-.12-.07-.14-.24,0-.34.1l-.15.14c-.12.16-.27.19-.43.28a2.28,2.28,0,0,0-.39.37l-.36.39a.8.8,0,0,1-.52.3,2.82,2.82,0,0,1-.41,0,2,2,0,0,0-.24,0l-1.81-.15c-1-.06-1.93-.11-2.89-.15H105a2.09,2.09,0,0,1-.61-.14c-.6-.18-1.22-.24-1.82-.46a1.6,1.6,0,0,0-.48-.11c-.35,0-.59.55-.76.82a4.83,4.83,0,0,0-.32.59c0,.08-.26.48-.22.55a1.13,1.13,0,0,0,.58.4,8.73,8.73,0,0,0,1.9.43l.91.14"/><path class="cls-40" d="M103.25,100.1a8.86,8.86,0,0,1-1.9-.43,1.13,1.13,0,0,1-.58-.4s.08-.28.16-.42a1.19,1.19,0,0,0,.53.34,9,9,0,0,0,1.9.43c.3,0,.61.11.92.14a18.56,18.56,0,0,0,3.57-.14c.84-.06,1.69-.15,2.54-.24.23,0,.43-.07.67-.09h.25c.18,0,.36,0,.53-.06a7.79,7.79,0,0,0,1.51-.39,2.69,2.69,0,0,0,1.18-.65,2.13,2.13,0,0,0,.25-.34,1.09,1.09,0,0,0,.19-.33s0,.06,0,.09a1.45,1.45,0,0,1-.08.36,1.27,1.27,0,0,1-.2.36c-.08.12-.16.23-.25.34a2.69,2.69,0,0,1-1.18.65,8,8,0,0,1-1.51.39l-.53.06h-.26c-.23,0-.44.06-.67.08-.84.09-1.69.18-2.54.24a18.5,18.5,0,0,1-3.57.15l-.91-.14"/><path class="cls-41" d="M102,97.06l.24,0,.13,0c.85.19,1.63.57,2.48.77a8,8,0,0,0,2.18.12h.24c.27,0,.54,0,.81,0a2.56,2.56,0,0,1,.39,0c.42.07.32.4.28.72v.14a3,3,0,0,1-.17.73,1.49,1.49,0,0,1-.78.9,1.22,1.22,0,0,1-.43.08c-.52,0-1,.05-1.57.05a13.2,13.2,0,0,1-1.41,0l-1.45-.21c-.53-.09-1-.18-1.58-.29l-.49-.12a12.73,12.73,0,0,1-2.16-.72,5.46,5.46,0,0,1-1-.58c-.25-.19-.57-.33-.58-.7v-.08a1.57,1.57,0,0,1,0-.23,0,0,0,0,0,0,0,1.29,1.29,0,0,1,.65-.67,3.35,3.35,0,0,1,1.52-.32h.25c.81.06,1.6.28,2.4.41"/><path class="cls-42" d="M107.51,97.94a1.54,1.54,0,0,1,.65.07c.27.11.41.43.53.67a1.42,1.42,0,0,1,.08.18,3,3,0,0,1-.17.73,1.46,1.46,0,0,1-.78.9,1.22,1.22,0,0,1-.43.08c-.52,0-1,.05-1.57.05a13.2,13.2,0,0,1-1.41,0l-1.45-.21c-.53-.09-1-.18-1.58-.29l-.49-.12a12.73,12.73,0,0,1-2.16-.72,5.46,5.46,0,0,1-1-.58c-.25-.19-.57-.33-.58-.7v-.08a1.57,1.57,0,0,1,0-.23,1.17,1.17,0,0,0,.44.38,13.31,13.31,0,0,0,3.56,1.39.58.58,0,0,0,.45,0,.64.64,0,0,0,.18-.32l.12-.41c.06.22.12.44.17.66a.17.17,0,0,1,.25,0,1.37,1.37,0,0,1,.17.23.22.22,0,0,0,.23.1c.18-.07.08-.36.21-.5a1.78,1.78,0,0,1,.23.43,1.09,1.09,0,0,0,.87.45c.36,0,.35-.52.43-.83,0,0,.37.58.4.64.24.32.47.25.83.27s.65.06.66-.34a.63.63,0,0,0,1.16-.29,1.23,1.23,0,0,0-.26-.9,4.06,4.06,0,0,1-.36-.46,0,0,0,0,1,0-.05s0,0,.06,0a3.56,3.56,0,0,1,.52-.08"/><path class="cls-42" d="M102,97.06l.24,0,.13,0c.85.19,1.63.57,2.48.77a8,8,0,0,0,2.18.12,3.41,3.41,0,0,1-.9.06,4.94,4.94,0,0,0-.86,0,.39.39,0,0,0-.25.12,1.05,1.05,0,0,0-.13.35,1.1,1.1,0,0,0-.12.39,1.06,1.06,0,0,0-.18-.69c-.06-.1-.26-.38-.4-.24a.48.48,0,0,0-.1.23,1.16,1.16,0,0,1,0,.18,1.43,1.43,0,0,0-.75-.87,1.25,1.25,0,0,0-.64-.21c-.21,0-.33.17-.42.33a.88.88,0,0,1-.35.43,1.55,1.55,0,0,0,.12-.85l-.42.15h0c-.09,0,0-.21-.08-.23-.28.26-.18.75-.43,1a1.31,1.31,0,0,0,.07-.73,1.19,1.19,0,0,0-.78-.61,3.19,3.19,0,0,0-.73-.21c.81.06,1.6.28,2.4.41"/><path class="cls-43" d="M107.06,97.93l-.14.08a1.33,1.33,0,0,1,.82,1.16,1.3,1.3,0,0,1-.25.93,1.23,1.23,0,0,1-.49.41,1.16,1.16,0,0,1-.32.08,1.49,1.49,0,0,0,.73.28,2.26,2.26,0,0,0,.82,0,.77.77,0,0,0,.3-.11.92.92,0,0,0,.34-.46,3.78,3.78,0,0,0,.06-2,.35.35,0,0,0-.05-.13.69.69,0,0,0-.48-.25,3.91,3.91,0,0,0-.76-.07,1.62,1.62,0,0,0-.58.12"/></g><polygon class="cls-56" points="102.16 95.47 101.85 96 101.34 95.7 101.66 95.17 102.16 95.47"/><path class="cls-56" d="M102.94,92.05a.93.93,0,0,0-.2.38l-.51,2.65,0,.15a.34.34,0,0,1-.2.26l-.6.22c-.05,0-.09,0-.09-.07a1.62,1.62,0,0,1,0-.22,15.54,15.54,0,0,1,.25-2.56Z"/><path class="cls-57" d="M103.46,92.35a.79.79,0,0,0-.21.38l-.51,2.65,0,.15a.36.36,0,0,1-.2.26l-.6.22a.07.07,0,0,1-.09-.08c0-.07,0-.14,0-.21a14.39,14.39,0,0,1,.26-2.56Z"/><path class="cls-58" d="M102.11,93.24h0Z"/><path class="cls-53" d="M109.49,87.34h0a.1.1,0,0,1,.09,0,.27.27,0,0,1,.12.22.1.1,0,0,1,0,.08l-2.06,1.19-.18-.3Z"/><path class="cls-59" d="M107.67,88.71s.08,0,.08,0a.19.19,0,0,0-.08-.15s-.09,0-.09,0A.2.2,0,0,0,107.67,88.71Z"/><polygon class="cls-60" points="107.9 89.15 107.33 88.16 106.18 88.61 106.94 89.92 107.9 89.15"/><path class="cls-60" d="M107.62,89.12c.22.13.4,0,.4-.23a.9.9,0,0,0-.4-.7c-.23-.13-.41,0-.41.23A.88.88,0,0,0,107.62,89.12Z"/><path class="cls-53" d="M106.56,89.89c.3.17.54,0,.54-.31a1.17,1.17,0,0,0-.54-.93c-.29-.17-.53,0-.53.31A1.22,1.22,0,0,0,106.56,89.89Z"/><polygon class="cls-48" points="106.67 89.86 106.1 88.88 104.45 89.83 105.02 90.82 106.67 89.86"/><path class="cls-48" d="M106.38,89.84c.22.13.4,0,.4-.24a.91.91,0,0,0-.4-.7c-.22-.12-.4,0-.4.24A.91.91,0,0,0,106.38,89.84Z"/><path class="cls-60" d="M104.73,90.79c.23.13.41,0,.41-.23a.88.88,0,0,0-.41-.7c-.22-.13-.4,0-.4.23A.9.9,0,0,0,104.73,90.79Z"/><polygon class="cls-61" points="106.28 89.16 106.64 88.94 105.6 88.34 105.23 88.55 106.28 89.16"/><polygon class="cls-57" points="106.28 90.69 106.64 90.48 106.64 88.94 106.28 89.16 106.28 90.69"/><polygon class="cls-56" points="106.28 90.69 105.23 90.08 105.23 88.55 106.28 89.16 106.28 90.69"/><path class="cls-61" d="M105.34,89.93l-.6,1c-.07,0-2.54,2.41-2.54,2.41l-.83-.48a2.78,2.78,0,0,1,.08-.32l.21-.81a.51.51,0,0,0,0-.3.19.19,0,0,0-.11-.12h0a.11.11,0,0,1,0-.14v-.06a.36.36,0,0,1,0-.09.51.51,0,0,1,.14-.15l2.16-1.25,1.5-.87.84.48C105.55,89.82,105.51,90,105.34,89.93Z"/><path class="cls-57" d="M102.2,93.35c0-.12,0-.21.08-.32l.22-.81a.48.48,0,0,0,0-.29.21.21,0,0,0-.11-.13h0s-.06-.07,0-.14v-.06a.2.2,0,0,1,0-.08.37.37,0,0,1,.14-.16l2.16-1.25,1.5-.87v1.19l-.6,1Z"/><path class="cls-56" d="M104.46,91.64s0,.07.05,0h0s0-.07,0-.11v-1s0-.08,0-.06h0a.15.15,0,0,0-.05.12Z"/><path class="cls-56" d="M104.68,91.51s0,.07,0,0h0s0-.06,0-.11v-1s0-.07,0-.06h0a.15.15,0,0,0,0,.12Z"/><path class="cls-56" d="M104.9,91.38c0,.05,0,.07,0,.06h0a.15.15,0,0,0,0-.12v-1s0-.07,0,0h0s0,.06,0,.11Z"/><path class="cls-56" d="M105.12,91.25s0,.08,0,.06h0a.15.15,0,0,0,0-.12v-1s0-.07,0,0h0a.14.14,0,0,0,0,.11Z"/><path class="cls-56" d="M105.34,91.13s0,.07,0,.05h0a.14.14,0,0,0,0-.11v-1s0-.08,0-.06h0a.15.15,0,0,0,0,.12Z"/><g class="cls-62"><path class="cls-39" d="M105.64,100.06a18.2,18.2,0,0,0,.65-3.52c.13-.84.23-1.68.33-2.53,0-.23,0-.43.07-.67a2.17,2.17,0,0,0,0-.25,4.78,4.78,0,0,0,.06-.53,7.29,7.29,0,0,0,0-1.55,2.59,2.59,0,0,0-.38-1.3,2.08,2.08,0,0,0-.27-.32,1.32,1.32,0,0,0-.3-.28,2.11,2.11,0,0,0-.34-.16,1.65,1.65,0,0,0-.42-.16.33.33,0,0,0-.37.2.17.17,0,0,0,0,.1.27.27,0,0,0,.1.11,1.94,1.94,0,0,1,.29.21.4.4,0,0,1,.14.15.44.44,0,0,1,0,.22,1.78,1.78,0,0,1,0,.69c0,.1-.1.4-.26.27s-.07-.12-.11-.18a.57.57,0,0,0-.08-.13.93.93,0,0,0-.15-.13.51.51,0,0,0-.15-.07s-.12,0-.15,0,0,.24,0,.35l.11.18a1.33,1.33,0,0,1,.18.48,1.64,1.64,0,0,0,.27.46l.29.44a.72.72,0,0,1,.18.57,1.4,1.4,0,0,1-.11.4c0,.07,0,.15-.08.23-.18.57-.37,1.15-.54,1.73-.28.92-.54,1.85-.79,2.78-.08.29-.13.59-.21.88a2.23,2.23,0,0,1-.27.56c-.31.55-.51,1.14-.85,1.68a1.27,1.27,0,0,0-.21.44c-.07.35.4.69.62.92a5.47,5.47,0,0,0,.51.45c.06.05.41.35.48.33a1.13,1.13,0,0,0,.52-.47,9.16,9.16,0,0,0,.84-1.76c.12-.29.24-.57.34-.86"/><path class="cls-40" d="M105.3,100.92a9.16,9.16,0,0,1-.84,1.76,1.13,1.13,0,0,1-.52.47s-.25-.14-.38-.25a1.08,1.08,0,0,0,.46-.44,8.88,8.88,0,0,0,.84-1.76c.12-.28.24-.57.34-.86a18.24,18.24,0,0,0,.65-3.51c.13-.84.23-1.69.33-2.53,0-.23,0-.44.07-.67a2.34,2.34,0,0,0,0-.26,4.52,4.52,0,0,0,.06-.53,7.33,7.33,0,0,0,0-1.55,2.62,2.62,0,0,0-.38-1.3,2.69,2.69,0,0,0-.27-.32,1.35,1.35,0,0,0-.28-.25l.08,0a2.11,2.11,0,0,1,.34.16,1.32,1.32,0,0,1,.3.28,2.08,2.08,0,0,1,.27.32,2.59,2.59,0,0,1,.38,1.3,7.29,7.29,0,0,1,0,1.55,4.78,4.78,0,0,1-.06.53,2.17,2.17,0,0,1,0,.25c0,.24,0,.44-.07.67-.1.85-.2,1.69-.33,2.53a18.2,18.2,0,0,1-.65,3.52c-.1.29-.22.57-.34.86"/><path class="cls-41" d="M102.06,101.43a1.6,1.6,0,0,0,.1-.23l.06-.11c.37-.79.91-1.46,1.3-2.25a8,8,0,0,0,.6-2.09s0-.06,0-.09l0-.15c0-.27.08-.54.14-.8a2.38,2.38,0,0,1,.11-.38c.17-.39.46-.22.77-.11l.13,0a3,3,0,0,1,.68.33,1.49,1.49,0,0,1,.7,1,1.1,1.1,0,0,1,0,.44c-.08.51-.18,1-.3,1.54A10.61,10.61,0,0,1,106,99.9c-.17.46-.34.91-.52,1.36s-.41,1-.63,1.47l-.22.46a12,12,0,0,1-1.19,1.94,5.24,5.24,0,0,1-.79.84c-.24.21-.44.48-.8.41l-.08,0a.85.85,0,0,1-.22-.09h0a1.24,1.24,0,0,1-.51-.79,3.38,3.38,0,0,1,0-1.55h0a.56.56,0,0,0,0-.12.76.76,0,0,1,0-.11c.23-.77.62-1.5.92-2.25"/><path class="cls-42" d="M104.14,96.29a1.48,1.48,0,0,1,.22-.62,1.22,1.22,0,0,1,.77-.37l.19,0a3,3,0,0,1,.68.33,1.49,1.49,0,0,1,.7,1,1.1,1.1,0,0,1,0,.44c-.08.51-.18,1-.3,1.54A10.61,10.61,0,0,1,106,99.9c-.17.46-.34.91-.52,1.36s-.41,1-.63,1.47l-.22.46a12,12,0,0,1-1.19,1.94,5.24,5.24,0,0,1-.79.84c-.24.21-.44.48-.8.41l-.08,0a.85.85,0,0,1-.22-.09,1.12,1.12,0,0,0,.47-.34,13,13,0,0,0,2.14-3.16.53.53,0,0,0,.07-.45.6.6,0,0,0-.26-.24l-.38-.21.68,0c-.06-.07,0-.19.06-.24a2,2,0,0,1,.26-.11.24.24,0,0,0,.15-.21c0-.18-.33-.15-.44-.3a1.5,1.5,0,0,1,.47-.14,1.09,1.09,0,0,0,.63-.75c.06-.35-.43-.46-.71-.6l.71-.25c.36-.16.34-.4.45-.75s.2-.61-.19-.72a.64.64,0,0,0,0-1.2,1.21,1.21,0,0,0-.93.06c-.18.08-.34.19-.52.25,0,0,0,0-.06,0s0,0,0-.07a3.14,3.14,0,0,1,0-.52"/><path class="cls-42" d="M102.06,101.43a1.6,1.6,0,0,0,.1-.23l.06-.11c.37-.79.91-1.46,1.3-2.25a8,8,0,0,0,.6-2.09,3.84,3.84,0,0,1-.14.88,6.39,6.39,0,0,0-.2.84.41.41,0,0,0,.07.27,1.48,1.48,0,0,0,.32.21,1.1,1.1,0,0,0,.35.2,1.11,1.11,0,0,0-.72,0c-.11,0-.42.17-.32.34a.5.5,0,0,0,.2.15l.17.07a1.51,1.51,0,0,0-1,.55,1.37,1.37,0,0,0-.35.58c0,.2.1.35.24.48a.89.89,0,0,1,.34.43,1.68,1.68,0,0,0-.8-.31c0,.15,0,.3,0,.45a.06.06,0,0,1,0,0c0,.08-.2-.06-.24,0,.19.32.68.33.91.64a1.21,1.21,0,0,0-.7-.22,1.15,1.15,0,0,0-.77.62,2.82,2.82,0,0,0-.36.66c.23-.77.62-1.5.92-2.25"/><path class="cls-43" d="M104,96.72a.75.75,0,0,0,0,.16,1.45,1.45,0,0,1,.6-.47,1.58,1.58,0,0,1,.71-.08,1.32,1.32,0,0,1,.85.45,1.15,1.15,0,0,1,.29.57.92.92,0,0,1,0,.33A1.54,1.54,0,0,0,107,97a2.44,2.44,0,0,0,.17-.8.86.86,0,0,0-.05-.32.94.94,0,0,0-.36-.43,3.86,3.86,0,0,0-2-.51.32.32,0,0,0-.14,0c-.17.05-.28.27-.35.42a4.32,4.32,0,0,0-.23.72,1.47,1.47,0,0,0,0,.59"/></g><path class="cls-63" d="M76.48,84.35a.22.22,0,0,1,0-.08l.15-.69c-.59-1.67.17-2.41.39-2.58l.27-.57a.23.23,0,0,1,.29-.1.22.22,0,0,1,.1.29l-.32.67-.05,0s-.84.59-.26,2.18l0,0-.17.82a.22.22,0,0,1-.26.16A.21.21,0,0,1,76.48,84.35Z"/><circle class="cls-6" cx="76.69" cy="84.33" r="0.12"/><circle class="cls-6" cx="77.5" cy="80.52" r="0.12"/><path class="cls-64" d="M77.37,81.29,77,81s-1.08.71-.39,2.58l.44,0a2.88,2.88,0,0,1-.21-1.25C77,81.43,77.37,81.29,77.37,81.29Z"/><path class="cls-63" d="M47.46,67.26a.17.17,0,0,1,0-.07l.24-.67c-.36-1.73.49-2.36.73-2.51l.35-.52a.2.2,0,0,1,.29-.06.21.21,0,0,1,.07.29l-.41.62-.06,0s-.91.47-.54,2.12l0,.06-.29.79a.2.2,0,0,1-.27.12A.2.2,0,0,1,47.46,67.26Z"/><circle class="cls-6" cx="47.67" cy="67.27" r="0.12"/><circle class="cls-6" cx="48.97" cy="63.6" r="0.12"/><path class="cls-64" d="M48.74,64.34l-.3-.33s-1.16.56-.73,2.51l.45,0a2.77,2.77,0,0,1,0-1.27C48.38,64.44,48.74,64.34,48.74,64.34Z"/><path class="cls-63" d="M23.48,45.7l.05-.06.5-.5c.41-1.72,1.45-1.93,1.73-2l.53-.33a.22.22,0,1,1,.23.37l-.63.38h-.07s-1,0-1.39,1.7v.06l-.59.59a.22.22,0,0,1-.3,0A.24.24,0,0,1,23.48,45.7Z"/><circle class="cls-6" cx="23.67" cy="45.8" r="0.12"/><circle class="cls-6" cx="26.41" cy="43.03" r="0.12"/><path class="cls-64" d="M25.89,43.6l-.13-.42s-1.29,0-1.73,2l.39.22a2.9,2.9,0,0,1,.5-1.17C25.52,43.54,25.89,43.6,25.89,43.6Z"/><path class="cls-63" d="M4.77,17.41l.05-.05L5.43,17c.8-1.57,1.86-1.54,2.14-1.5l.6-.19a.21.21,0,0,1,.27.14.23.23,0,0,1-.14.27l-.7.23-.06,0s-1-.2-1.75,1.32l0,.06-.71.43a.22.22,0,0,1-.3-.07A.21.21,0,0,1,4.77,17.41Z"/><circle class="cls-6" cx="4.93" cy="17.55" r="0.12"/><circle class="cls-6" cx="8.24" cy="15.5" r="0.12"/><path class="cls-64" d="M7.6,15.94l0-.45S6.31,15.2,5.43,17l.33.31a2.8,2.8,0,0,1,.76-1C7.25,15.79,7.6,15.94,7.6,15.94Z"/><path class="cls-63" d="M300.74,84.35a.11.11,0,0,0,0-.08l-.15-.69c.58-1.67-.18-2.41-.4-2.58l-.27-.57a.22.22,0,0,0-.28-.1.22.22,0,0,0-.11.29l.32.67.06,0s.84.59.25,2.18l0,0,.18.82a.22.22,0,0,0,.26.16A.2.2,0,0,0,300.74,84.35Z"/><circle class="cls-6" cx="300.54" cy="84.33" r="0.12"/><circle class="cls-6" cx="299.73" cy="80.52" r="0.12"/><path class="cls-64" d="M299.85,81.29l.34-.29s1.08.71.4,2.58l-.45,0a2.71,2.71,0,0,0,.21-1.25C300.2,81.43,299.85,81.29,299.85,81.29Z"/><path class="cls-63" d="M267.35,96.43a.22.22,0,0,0,0-.08l-.15-.69c.59-1.67-.18-2.41-.39-2.58l-.28-.57a.22.22,0,0,0-.28-.1.21.21,0,0,0-.1.29l.32.67.05,0s.84.59.25,2.17l0,.06.18.82a.22.22,0,0,0,.26.16A.23.23,0,0,0,267.35,96.43Z"/><circle class="cls-6" cx="267.14" cy="96.41" r="0.12"/><circle class="cls-6" cx="266.33" cy="92.6" r="0.12"/><path class="cls-64" d="M266.46,93.37l.34-.29s1.07.71.39,2.58l-.45,0a2.78,2.78,0,0,0,.22-1.25C266.8,93.51,266.46,93.37,266.46,93.37Z"/><path class="cls-63" d="M218.08,104.51a.11.11,0,0,0,0-.08v-.7c.91-1.52.32-2.4.14-2.62l-.15-.6a.22.22,0,0,0-.42.1l.18.72,0,0s.7.75-.19,2.18l0,.06v.83a.22.22,0,0,0,.22.21A.22.22,0,0,0,218.08,104.51Z"/><circle class="cls-6" cx="217.88" cy="104.45" r="0.12"/><circle class="cls-6" cx="217.87" cy="100.55" r="0.12"/><path class="cls-64" d="M217.84,101.33l.39-.22s.91.92-.14,2.62l-.44-.12a2.88,2.88,0,0,0,.47-1.19C218.14,101.54,217.84,101.33,217.84,101.33Z"/><path class="cls-63" d="M181.49,101.47a.17.17,0,0,0,0,.07v.71c-.92,1.52-.32,2.4-.14,2.61l.15.61a.21.21,0,0,0,.26.16.22.22,0,0,0,.16-.26l-.18-.72,0,0s-.71-.75.19-2.19l0,0v-.83a.21.21,0,0,0-.22-.21A.22.22,0,0,0,181.49,101.47Z"/><circle class="cls-6" cx="181.69" cy="101.53" r="0.12"/><circle class="cls-6" cx="181.71" cy="105.43" r="0.12"/><path class="cls-64" d="M181.74,104.65l-.39.21s-.91-.91.14-2.61l.43.12a2.8,2.8,0,0,0-.46,1.19C181.43,104.44,181.74,104.65,181.74,104.65Z"/><path class="cls-63" d="M130.8,96.53a.24.24,0,0,0,0,.08v.7c-.91,1.52-.32,2.4-.14,2.62l.15.61a.22.22,0,0,0,.26.15.21.21,0,0,0,.16-.26l-.18-.72,0,0s-.7-.75.19-2.18l0-.06V96.6a.22.22,0,0,0-.22-.21A.21.21,0,0,0,130.8,96.53Z"/><circle class="cls-6" cx="131" cy="96.59" r="0.12"/><circle class="cls-6" cx="131.01" cy="100.49" r="0.12"/><path class="cls-64" d="M131,99.71l-.39.22s-.91-.92.14-2.62l.43.12a3,3,0,0,0-.46,1.19C130.74,99.5,131,99.71,131,99.71Z"/><path class="cls-63" d="M329.77,67.26a.17.17,0,0,0,0-.07l-.24-.67c.36-1.73-.5-2.36-.74-2.51l-.34-.52a.21.21,0,0,0-.36.23l.41.62.05,0s.91.47.54,2.12v.06l.28.79a.21.21,0,0,0,.28.12A.2.2,0,0,0,329.77,67.26Z"/><circle class="cls-6" cx="329.56" cy="67.27" r="0.12"/><circle class="cls-6" cx="328.26" cy="63.6" r="0.12"/><path class="cls-64" d="M328.49,64.34l.29-.33s1.17.56.74,2.51l-.45,0a3,3,0,0,0,.05-1.27C328.85,64.44,328.49,64.34,328.49,64.34Z"/><path class="cls-63" d="M353.74,45.7a.21.21,0,0,0,0-.06l-.5-.5c-.41-1.72-1.45-1.93-1.73-2l-.53-.33a.22.22,0,0,0-.23.37l.63.38h.06s1,0,1.39,1.7l0,.06.59.59a.22.22,0,0,0,.3,0A.21.21,0,0,0,353.74,45.7Z"/><circle class="cls-6" cx="353.56" cy="45.8" r="0.12"/><circle class="cls-6" cx="350.82" cy="43.03" r="0.12"/><path class="cls-64" d="M351.34,43.6l.13-.42s1.29,0,1.73,2l-.39.22a2.9,2.9,0,0,0-.5-1.17C351.71,43.54,351.34,43.6,351.34,43.6Z"/><path class="cls-63" d="M372.46,17.41l-.06-.05-.6-.37c-.8-1.57-1.87-1.54-2.14-1.5l-.6-.19a.22.22,0,1,0-.13.41l.7.23.06,0s1-.2,1.75,1.32l0,.06.71.43a.21.21,0,0,0,.29-.07A.23.23,0,0,0,372.46,17.41Z"/><circle class="cls-6" cx="372.3" cy="17.55" r="0.12"/><circle class="cls-6" cx="368.99" cy="15.5" r="0.12"/><path class="cls-64" d="M369.63,15.94l0-.45s1.25-.29,2.14,1.5l-.33.31a2.8,2.8,0,0,0-.76-1C370,15.79,369.63,15.94,369.63,15.94Z"/></g></g></g></svg>