<svg xmlns="http://www.w3.org/2000/svg" xmlns:xlink="http://www.w3.org/1999/xlink" viewBox="0 0 12.5 50.18"><defs><style>.cls-1{fill:none;}.cls-2{clip-path:url(#clip-path);}.cls-3{fill:#f2d0b8;}.cls-4{fill:#e5e5e5;}.cls-5{fill:#cbcbcb;}.cls-6{fill:#f2f2f2;}.cls-7{clip-path:url(#clip-path-2);}.cls-8{fill:#f1ccad;}.cls-9{fill:#eec1a6;}.cls-10{clip-path:url(#clip-path-3);}.cls-11{fill:#212426;}.cls-12{fill:#42484d;}.cls-13{fill:#2c3033;}.cls-14{fill:#e1771c;}.cls-15{fill:#e8a126;}.cls-16{opacity:0.1;}.cls-17{clip-path:url(#clip-path-4);}.cls-18{clip-path:url(#clip-path-5);}.cls-19{opacity:0.05;}.cls-20{clip-path:url(#clip-path-6);}.cls-21{fill:#f0c7a3;}.cls-22{fill:#e5aa89;}.cls-23{clip-path:url(#clip-path-7);}.cls-24{clip-path:url(#clip-path-8);}.cls-25{fill:#f1cdb2;}.cls-26{fill:#450000;}.cls-27{fill:#360000;}.cls-28{fill:#590000;}.cls-29{fill:#6e0000;}.cls-30{fill:#edbc2e;}.cls-31{fill:#d06b19;}.cls-32{fill:url(#Degradado_sin_nombre_291);}</style><clipPath id="clip-path" transform="translate(-0.18)"><path class="cls-1" d="M1,9.68a1.21,1.21,0,0,1,1.73.16c2.16,2.69,1.17,8.28,1.17,8.28h0a1.48,1.48,0,0,1-3,0A23.69,23.69,0,0,1,0,12.84,3.6,3.6,0,0,1,1,9.68Z"/></clipPath><clipPath id="clip-path-2" transform="translate(-0.18)"><path class="cls-1" d="M.56,22.9S.16,22.81.19,22A3.42,3.42,0,0,1,.56,20.4l.36-2.32a1.48,1.48,0,1,1,3,0,23.53,23.53,0,0,1-.17,2.49A2.35,2.35,0,0,1,3.88,22a1.26,1.26,0,0,1-1.22,1.22,17.57,17.57,0,0,0-.86,2.95,2.73,2.73,0,0,0,.31.77c.23.34.13,1.22.2,1.57a5.69,5.69,0,0,1,.1.92c0,.05.12.32,0,.44s-.26,0-.26,0-.07.29-.57.19a1.3,1.3,0,0,1-.9-.53A3.77,3.77,0,0,1,.19,28.1c0-.48.23-1.39.24-1.87S.56,22.9.56,22.9Z"/></clipPath><clipPath id="clip-path-3" transform="translate(-0.18)"><path class="cls-1" d="M5.89,35.89h0a2.06,2.06,0,0,0-4.11.3,1.33,1.33,0,0,0,0,.28h0l.37,2.28.3,4.76s-.18,1,.17,1.28c0,0-1.87,1.12-2.15,1.82s-.61,2.29,1.07,2.17S3.48,47.34,4.47,47s2-.56,1.35-1.83a16.57,16.57,0,0,0,.28-2.06A39.74,39.74,0,0,0,5.89,35.89Z"/></clipPath><clipPath id="clip-path-4" transform="translate(-0.18)"><path class="cls-1" d="M6.07,29.93c.09-.45.49-2.55-.33-3.26a3.83,3.83,0,0,0-3.51-1.21,1,1,0,0,0-1,.88,8.08,8.08,0,0,0-.2,3.3l.35,4.64.42,2.31h0v0h0a2.07,2.07,0,0,0,4.09-.43,1.1,1.1,0,0,0,0-.18l-.07-3.09S6,30.38,6.07,29.93Z"/></clipPath><clipPath id="clip-path-5" transform="translate(-0.18)"><path class="cls-1" d="M10.41,43.14l-.14-4.61L10,36.62a2.08,2.08,0,1,0-4.15,0,1.92,1.92,0,0,0,.07.48h0l.58,3.35a34.42,34.42,0,0,1,.14,3.79c-.14,1.2.34,1.49.34,1.49a5.8,5.8,0,0,1-1.45,2.45,1.43,1.43,0,0,0-.28,1.32c-.1,1,1.17.79,1.17.79,2.47-.64,2.45-2.28,3.14-2.8A1.3,1.3,0,0,0,9.82,46l.29-.11Z"/></clipPath><clipPath id="clip-path-6" transform="translate(-0.18)"><path class="cls-1" d="M9.88,27a3.85,3.85,0,0,0-3.51-1.21,1,1,0,0,0-1,.89,8.08,8.08,0,0,0-.2,3.3l.35,4.64.31,2.37h0A2.07,2.07,0,0,0,10,36.62s0-.07,0-.1h0V33.2s.17-2.53.25-3S10.7,27.67,9.88,27Z"/></clipPath><clipPath id="clip-path-7" transform="translate(-0.18)"><path class="cls-1" d="M7.84,29c.3-.4.5-.8.32-.9s-.6.44-.91.2.06-.63.32-.76.46-.53.81-.91.89-.35.87-1,.06-2.15.06-2.15a1.92,1.92,0,0,1-.25-1.28,1.77,1.77,0,0,1,.41-1.12l.23-2a1.49,1.49,0,0,1,3,0l-.11,2.28A1.93,1.93,0,0,1,12.67,23a1.25,1.25,0,0,1-1.16.88,22.58,22.58,0,0,1-.79,3.15A7.82,7.82,0,0,1,10,28.78c-1,1.61-2.71,1.49-2.9,1S7.54,29.44,7.84,29Z"/></clipPath><clipPath id="clip-path-8" transform="translate(-0.18)"><path class="cls-1" d="M9.76,10.77a1.19,1.19,0,0,1,1.73.16c2.16,2.69,1.17,8.28,1.17,8.28h0a1.48,1.48,0,0,1-3-.05,23.49,23.49,0,0,1-.87-5.23A3.59,3.59,0,0,1,9.76,10.77Z"/></clipPath><linearGradient id="Degradado_sin_nombre_291" x1="1137.88" y1="2.75" x2="1144.5" y2="2.75" gradientTransform="matrix(-1, 0, 0, 1, 1146.28, 0)" gradientUnits="userSpaceOnUse"><stop offset="0" stop-color="#e1771c"/><stop offset="0.5" stop-color="#dc731b"/><stop offset="1" stop-color="#d06b19"/></linearGradient></defs><title>Recurso 53</title><g id="Capa_2" data-name="Capa 2"><g id="personajes"><g class="cls-2"><path class="cls-3" d="M3.54,18.56a6.89,6.89,0,0,1-.16,1.88c-.25.84-.52,1.7-.58,1.91s-.39,1.15-.66,2c-.11.33-.21.65-.29.92a4.75,4.75,0,0,0-.16.66V26A2,2,0,0,0,2,27,3.14,3.14,0,0,1,2.16,28c0,.26.16,1.08.16,1.08v.27l.07.19-.07.2-.19,0,0,.12-.45.05a6.61,6.61,0,0,1-.74-.4A7.63,7.63,0,0,1,.3,28.15c0-.08.17-1.35.25-1.79,0-.12,0-.46.06-.93.05-1.25.1-3.38.1-4.3a8.2,8.2,0,0,1,.23-1.88c.13-.56.27-1,.35-1.32a15.11,15.11,0,0,0,.19-2.28S3,15,3.39,15.31s.19,2.7.15,3.25" transform="translate(-0.18)"/><path class="cls-4" d="M.31,14.89a2.44,2.44,0,0,0,0,.27c0,.05,0,.1,0,.15.09,1,.4,1.9.5,2.88a9.21,9.21,0,0,1-.18,2.45.29.29,0,0,1,0,.09.88.88,0,0,1,0,.17c-.06.31-.13.6-.16.9a2.28,2.28,0,0,0,0,.45c0,.47.41.41.77.42h.16a3.42,3.42,0,0,0,.84-.08,1.71,1.71,0,0,0,1.12-.74,1.52,1.52,0,0,0,.15-.47c.11-.58.21-1.16.28-1.74a14.27,14.27,0,0,0,.16-1.59c0-.55,0-1.1,0-1.64s-.05-1.2-.1-1.8c0-.2,0-.39,0-.58a14.19,14.19,0,0,0-.5-2.5,6.33,6.33,0,0,0-.5-1.2C2.55,10,2.43,9.65,2,9.59l-.09,0a1.14,1.14,0,0,0-.27,0h0a1.41,1.41,0,0,0-.84.63,3.81,3.81,0,0,0-.58,1.64v0a.66.66,0,0,0,0,.14.53.53,0,0,0,0,.13c-.05.91.08,1.83.11,2.74" transform="translate(-0.18)"/><path class="cls-5" d="M.5,21.13a1.55,1.55,0,0,0,0,.74c.08.31.42.52.67.69l.19.11a3.42,3.42,0,0,0,.84-.08,1.71,1.71,0,0,0,1.12-.74,1.52,1.52,0,0,0,.15-.47c.11-.58.21-1.16.28-1.74a14.27,14.27,0,0,0,.16-1.59c0-.55,0-1.1,0-1.64s-.05-1.2-.1-1.8c0-.2,0-.39,0-.58a14.19,14.19,0,0,0-.5-2.5,6.33,6.33,0,0,0-.5-1.2C2.55,10,2.43,9.65,2,9.59l-.09,0a1.14,1.14,0,0,0-.27,0,1.2,1.2,0,0,1,.36.54,14.65,14.65,0,0,1,1,4.17.64.64,0,0,1-.1.51.67.67,0,0,1-.37.14L2.11,15l.71.29a.19.19,0,0,0,0,.28,2.28,2.28,0,0,0,.22.22.25.25,0,0,1,.08.28c-.1.18-.41,0-.58.15a2.11,2.11,0,0,0,.44.33,1.19,1.19,0,0,1,.38,1c-.07.4-.63.32-1,.36l.65.54c.33.31.21.56.19,1s0,.73-.48.69a.71.71,0,0,1-.5,1.25,1.33,1.33,0,0,1-1-.42,5,5,0,0,0-.46-.46.09.09,0,0,0-.06,0,.11.11,0,0,0-.06.07,3.74,3.74,0,0,0-.16.56" transform="translate(-0.18)"/><path class="cls-5" d="M.31,14.89a2.44,2.44,0,0,0,0,.27c0,.05,0,.1,0,.15.09,1,.4,1.9.5,2.88a9.21,9.21,0,0,1-.18,2.45,4.24,4.24,0,0,0,.2-1,5.25,5.25,0,0,1,.12-1,.41.41,0,0,1,.17-.25,1.23,1.23,0,0,1,.42-.1A1.15,1.15,0,0,1,2,18.26,1.29,1.29,0,0,1,1.26,18c-.1-.08-.39-.34-.21-.48a.54.54,0,0,1,.28-.08h.2a1.69,1.69,0,0,1-.87-1,1.44,1.44,0,0,1-.13-.74c0-.23.23-.34.43-.42a1,1,0,0,0,.53-.32,1.88,1.88,0,0,1-1,0c.07-.15.15-.3.23-.45a.43.43,0,0,0,0-.05c0-.1-.24,0-.25-.12.33-.27.86-.09,1.21-.33A1.35,1.35,0,0,1,.9,14a1.35,1.35,0,0,1-.57-1,3.35,3.35,0,0,1-.13-.84c-.05.91.08,1.83.11,2.74" transform="translate(-0.18)"/><path class="cls-6" d="M.55,20.63l.11-.15a1.63,1.63,0,0,0,.45.73,1.69,1.69,0,0,0,.72.36,1.47,1.47,0,0,0,1.07-.14,1.44,1.44,0,0,0,.54-.5,1.33,1.33,0,0,0,.13-.33,1.56,1.56,0,0,1,.21.85,2.35,2.35,0,0,1-.14.91.88.88,0,0,1-.16.32,1,1,0,0,1-.56.31,4.29,4.29,0,0,1-2.27-.23.69.69,0,0,1-.15-.07.84.84,0,0,1-.2-.58,4.84,4.84,0,0,1,0-.85,2,2,0,0,1,.22-.63" transform="translate(-0.18)"/></g><g class="cls-7"><path class="cls-3" d="M3.53,18.56a6.77,6.77,0,0,1-.15,1.88c-.26.84-.53,1.7-.59,1.91s-.38,1.15-.66,2c-.11.33-.21.65-.29.92a4.75,4.75,0,0,0-.16.66V26A2.08,2.08,0,0,0,2,27,2.93,2.93,0,0,1,2.16,28c0,.26.15,1.08.15,1.08v.27l.08.19-.08.2-.19,0,0,.12-.46.05a5.84,5.84,0,0,1-.73-.4,7,7,0,0,1-.6-1.38c0-.08.18-1.35.25-1.79,0-.12,0-.46.06-.93.05-1.25.1-3.38.1-4.3a8.79,8.79,0,0,1,.24-1.88c.12-.56.27-1,.35-1.32a14.76,14.76,0,0,0,.18-2.28S3,15,3.38,15.31s.19,2.7.15,3.25" transform="translate(-0.18)"/><path class="cls-8" d="M1.38,26.46a2.79,2.79,0,0,1-.07-.38.64.64,0,0,0-.17-.35l0,0H1.06A.35.35,0,0,0,.94,26a1.41,1.41,0,0,0,.08.57.85.85,0,0,1,0,.57,1.18,1.18,0,0,1-.24.26.74.74,0,0,0-.12.13.84.84,0,0,0-.05.17l0,.34a1.1,1.1,0,0,0,0,.18,1.6,1.6,0,0,0,0,.21c.11.33.23.66.36,1a.2.2,0,0,0,.06.09.08.08,0,0,0,.1,0c.06,0,0-.12,0-.18a2.09,2.09,0,0,1-.2-.73.94.94,0,0,1,.25-.83c.06,0,.14-.09.2,0s.07.11.09.17a.69.69,0,0,0,.13.2.9.9,0,0,1,.08.23c.05.19.1.38.16.57a.36.36,0,0,0,0,.11A.12.12,0,0,0,2,29s.06-.08.07-.13a3.92,3.92,0,0,0-.1-1,3.13,3.13,0,0,0,0-.43,2.6,2.6,0,0,0-.1-.4,5,5,0,0,1-.41-.61" transform="translate(-0.18)"/><path class="cls-9" d="M1.2,28s-.05.29-.08.53a2.36,2.36,0,0,0,0,.4l.23.42a3.3,3.3,0,0,0,.32.22l.32.18s-.3-.28-.32-.46,0-.36,0-.36a4.35,4.35,0,0,0-.08-.6l-.07-.13Z" transform="translate(-0.18)"/><path class="cls-4" d="M.3,14.89a2.45,2.45,0,0,0,0,.27.76.76,0,0,0,0,.15c.08,1,.39,1.9.49,2.88a9.2,9.2,0,0,1-.17,2.45s0,.06,0,.09l0,.17c-.06.31-.12.6-.16.9a3.4,3.4,0,0,0,0,.45c0,.47.4.41.77.42h.15a3.37,3.37,0,0,0,.84-.08,1.71,1.71,0,0,0,1.12-.74,1.29,1.29,0,0,0,.15-.47c.11-.58.21-1.16.28-1.74a10.71,10.71,0,0,0,.16-1.59c0-.55,0-1.1,0-1.64s0-1.2-.09-1.8L3.71,14a12.59,12.59,0,0,0-.5-2.5,5.25,5.25,0,0,0-.5-1.2C2.54,10,2.43,9.65,2,9.59l-.09,0a1.06,1.06,0,0,0-.26,0h0a1.43,1.43,0,0,0-.85.63,3.94,3.94,0,0,0-.58,1.64v0S.2,12,.2,12v.13c-.06.91.08,1.83.1,2.74" transform="translate(-0.18)"/><path class="cls-5" d="M.49,21.13a1.86,1.86,0,0,0,0,.74c.08.31.42.52.67.69l.19.11a3.37,3.37,0,0,0,.84-.08,1.71,1.71,0,0,0,1.12-.74,1.29,1.29,0,0,0,.15-.47c.11-.58.21-1.16.28-1.74a10.71,10.71,0,0,0,.16-1.59c0-.55,0-1.1,0-1.64s0-1.2-.09-1.8L3.71,14a12.59,12.59,0,0,0-.5-2.5,5.25,5.25,0,0,0-.5-1.2C2.54,10,2.43,9.65,2,9.59l-.09,0a1.1,1.1,0,0,0-.26,0,1.39,1.39,0,0,1,.36.54,15.35,15.35,0,0,1,1,4.17.64.64,0,0,1-.11.51.67.67,0,0,1-.37.14L2.1,15l.71.29a.2.2,0,0,0,0,.28,2.44,2.44,0,0,0,.23.22.25.25,0,0,1,.07.28c-.1.18-.41,0-.58.15a1.94,1.94,0,0,0,.45.33,1.25,1.25,0,0,1,.38,1c-.08.4-.64.32-1,.36l.65.54c.33.31.21.56.19,1s0,.73-.47.69a.71.71,0,0,1-.5,1.25,1.31,1.31,0,0,1-1-.42c-.16-.15-.29-.33-.46-.46a.09.09,0,0,0-.07,0s0,0,0,.07a2.83,2.83,0,0,0-.17.56" transform="translate(-0.18)"/><path class="cls-5" d="M.3,14.89a2.45,2.45,0,0,0,0,.27.76.76,0,0,0,0,.15c.08,1,.39,1.9.49,2.88a9.2,9.2,0,0,1-.17,2.45,4.81,4.81,0,0,0,.19-1,6.27,6.27,0,0,1,.12-1,.51.51,0,0,1,.17-.25,1.23,1.23,0,0,1,.42-.1A1.15,1.15,0,0,1,2,18.26,1.32,1.32,0,0,1,1.25,18c-.1-.08-.38-.34-.21-.48a.54.54,0,0,1,.28-.08h.21a1.63,1.63,0,0,1-.87-1,1.44,1.44,0,0,1-.14-.74c0-.23.24-.34.44-.42a.94.94,0,0,0,.52-.32,1.84,1.84,0,0,1-1,0c.07-.15.14-.3.22-.45a0,0,0,0,0,0-.05c0-.1-.23,0-.24-.12.33-.27.85-.09,1.21-.33A1.34,1.34,0,0,1,.9,14a1.33,1.33,0,0,1-.58-1,3.87,3.87,0,0,1-.12-.84c-.06.91.08,1.83.1,2.74" transform="translate(-0.18)"/><path class="cls-6" d="M.55,20.63l.11-.15a1.63,1.63,0,0,0,.45.73,1.58,1.58,0,0,0,.72.36,1.47,1.47,0,0,0,1.6-.64,1.36,1.36,0,0,0,.14-.33,1.64,1.64,0,0,1,.2.85,2.54,2.54,0,0,1-.13.91.9.9,0,0,1-.17.32,1,1,0,0,1-.55.31,4.33,4.33,0,0,1-2.28-.23l-.15-.07a.79.79,0,0,1-.19-.58,4.83,4.83,0,0,1,0-.85,1.77,1.77,0,0,1,.23-.63" transform="translate(-0.18)"/></g><g class="cls-10"><path class="cls-11" d="M3.33,44.13a1.55,1.55,0,0,1-.68,1.27C2,45.81.74,46.78.74,46.78A2.17,2.17,0,0,0,.46,48a1,1,0,0,0,.36.5c.56.47,1.68.09,2.15-.36a7.79,7.79,0,0,1,1.1-1,8.69,8.69,0,0,1,1.3-.54A.73.73,0,0,0,5.89,46a1.18,1.18,0,0,0-.09-.67A.93.93,0,0,0,5.47,45L5,44.68l-.65-.42Z" transform="translate(-0.18)"/><path class="cls-12" d="M5.58,46c-.08.26-.64.41-.85.5l-.51.16a2.37,2.37,0,0,0-.61.44c-.22.18-.44.37-.65.57a2.37,2.37,0,0,1-1.35.56A.89.89,0,0,1,1,48.15a1.16,1.16,0,0,1-.5-.63,1,1,0,0,1,0-.18.84.84,0,0,1,0-.27,1.78,1.78,0,0,1,.67-1A17.23,17.23,0,0,1,2.65,45a1.53,1.53,0,0,0,.67-1.27l1,.13.91.59.39.25A7.65,7.65,0,0,1,5.58,46" transform="translate(-0.18)"/><path class="cls-13" d="M5.58,46c-.08.26-.64.41-.85.5l-.51.16a2.37,2.37,0,0,0-.61.44c-.22.18-.44.37-.65.57a2.37,2.37,0,0,1-1.35.56A.89.89,0,0,1,1,48.15a1.16,1.16,0,0,1-.5-.63,1,1,0,0,1,0-.18c.24,0,.47.12.71.17a1.85,1.85,0,0,0,1.47-.33c.16-.13.31-.29.48-.42A4.79,4.79,0,0,1,4,46.29a2.37,2.37,0,0,0,.82-.53,1,1,0,0,0,.26-.9.37.37,0,0,1,.24-.43l.39.25A7.65,7.65,0,0,1,5.58,46" transform="translate(-0.18)"/><path class="cls-14" d="M1.4,26.18a.81.81,0,0,1,.18-.32h0a.71.71,0,0,1,.14-.1c1-.68,3.84.17,4.2,1.5,0,.07,0,.16.06.26a6.62,6.62,0,0,1,0,2.13,20.92,20.92,0,0,0-.24,4.85c.08,1.22.17,3.24.26,4.31a42.23,42.23,0,0,1-.1,5.51c-.07.48-.13.82-.13.82l-.09,0a4.59,4.59,0,0,1-.72.22,2.4,2.4,0,0,1-.76,0c-.64-.07-1.36-.28-1.55-1a3.21,3.21,0,0,1,0-.93,43.59,43.59,0,0,0-.26-4.71c-.15-.85-.44-1.66-.56-2.52-.26-1.89-.42-4.71-.57-6.61l0-.42c0-.27,0-.54,0-.81A6.9,6.9,0,0,1,1.4,26.18Z" transform="translate(-0.18)"/><path class="cls-15" d="M4,36.82a1,1,0,0,0,.2-.3,5.75,5.75,0,0,0-.41-3,11.52,11.52,0,0,1-.65-2.09A5.38,5.38,0,0,1,3,29.94s0-3.12,1.12-4.2a2.72,2.72,0,0,1,1.85,1.51c0,.07,0,.16.06.26a6.62,6.62,0,0,1,0,2.13,20.92,20.92,0,0,0-.24,4.85c.1,1.48.22,3.73.32,5,0,.55,0,3.53,0,4.07H6c0,.18,0,.37-.08.55h0c-.07.44-.12.79-.14.94h0l-.07.1,0,0-.08,0c-.16,0-.29-.45-.31-.64-.09-.9-.2-4.24-.33-5.15-.09-.6,0-1.67-.81-1.83a2.62,2.62,0,0,0-.79,0,1.34,1.34,0,0,1-.77-.06A2.15,2.15,0,0,0,4,36.82Z" transform="translate(-0.18)"/><path class="cls-16" d="M1.4,26.18a.81.81,0,0,1,.18-.32h0a.71.71,0,0,1,.14-.1,3,3,0,0,1,2.35,0h0l.26.1.07,0,.27.13h0l.26.15H5l.2.15.06,0,.18.15s0,0,0,0a1.65,1.65,0,0,1,.33.43v0a1.17,1.17,0,0,1,.09.24c0,.07,0,.16.06.26a6.62,6.62,0,0,1,0,2.13,20.92,20.92,0,0,0-.24,4.85c.1,1.48.22,3.73.32,5,0,.55,0,3.53,0,4.07H6c0,.18,0,.37-.08.55h0l0,.19h0c-.07.48-.13.82-.13.82l0,0h0l0,0-.08,0h0a4.28,4.28,0,0,1-.64.19,2.4,2.4,0,0,1-.76,0c-.64-.07-1.36-.28-1.55-1a3.21,3.21,0,0,1,0-.93,43.59,43.59,0,0,0-.26-4.71c-.15-.85-.44-1.66-.56-2.52-.26-1.89-.42-4.71-.57-6.61l0-.42c0-.27,0-.54,0-.81A6.9,6.9,0,0,1,1.4,26.18Z" transform="translate(-0.18)"/></g><g class="cls-17"><path class="cls-14" d="M1.4,26.18a.81.81,0,0,1,.18-.32h0a.71.71,0,0,1,.14-.1c1-.68,3.84.17,4.2,1.5,0,.07,0,.16.06.26a6.62,6.62,0,0,1,0,2.13,20.92,20.92,0,0,0-.24,4.85c.08,1.22.17,3.24.26,4.31a42.23,42.23,0,0,1-.1,5.51c-.07.48-.13.82-.13.82l-.09,0a4.59,4.59,0,0,1-.72.22,2.4,2.4,0,0,1-.76,0c-.64-.07-1.36-.28-1.55-1a3.21,3.21,0,0,1,0-.93,43.59,43.59,0,0,0-.26-4.71c-.15-.85-.44-1.66-.56-2.52-.26-1.89-.42-4.71-.57-6.61l0-.42c0-.27,0-.54,0-.81A6.9,6.9,0,0,1,1.4,26.18Z" transform="translate(-0.18)"/><path class="cls-15" d="M4,36.82a1,1,0,0,0,.2-.3,5.75,5.75,0,0,0-.41-3,11.52,11.52,0,0,1-.65-2.09A5.38,5.38,0,0,1,3,29.94s0-3.12,1.12-4.2a2.72,2.72,0,0,1,1.85,1.51c0,.07,0,.16.06.26a6.62,6.62,0,0,1,0,2.13,20.92,20.92,0,0,0-.24,4.85c.1,1.48.22,3.73.32,5,0,.55,0,3.53,0,4.07H6c0,.18,0,.37-.08.55h0c-.07.44-.12.79-.14.94h0l-.07.1,0,0-.08,0c-.16,0-.29-.45-.31-.64-.09-.9-.2-4.24-.33-5.15-.09-.6,0-1.67-.81-1.83a2.62,2.62,0,0,0-.79,0,1.34,1.34,0,0,1-.77-.06A2.15,2.15,0,0,0,4,36.82Z" transform="translate(-0.18)"/><path class="cls-16" d="M1.4,26.18a.81.81,0,0,1,.18-.32h0a.71.71,0,0,1,.14-.1,3,3,0,0,1,2.35,0h0l.26.1.07,0,.27.13h0l.26.15H5l.2.15.06,0,.18.15s0,0,0,0a1.65,1.65,0,0,1,.33.43v0a1.17,1.17,0,0,1,.09.24c0,.07,0,.16.06.26a6.62,6.62,0,0,1,0,2.13,20.92,20.92,0,0,0-.24,4.85c.1,1.48.22,3.73.32,5,0,.55,0,3.53,0,4.07H6c0,.18,0,.37-.08.55h0l0,.19h0c-.07.48-.13.82-.13.82l0,0h0l0,0-.08,0h0a4.28,4.28,0,0,1-.64.19,2.4,2.4,0,0,1-.76,0c-.64-.07-1.36-.28-1.55-1a3.21,3.21,0,0,1,0-.93,43.59,43.59,0,0,0-.26-4.71c-.15-.85-.44-1.66-.56-2.52-.26-1.89-.42-4.71-.57-6.61l0-.42c0-.27,0-.54,0-.81A6.9,6.9,0,0,1,1.4,26.18Z" transform="translate(-0.18)"/></g><g class="cls-18"><path class="cls-11" d="M9.54,45.49l.11.26a2.23,2.23,0,0,1,.13.39,1.42,1.42,0,0,1,0,.79,2.91,2.91,0,0,1-.6.89,11.84,11.84,0,0,1-1.28,1.62,2.57,2.57,0,0,1-1.71.74c-1,0-.92-.3-.89-.89s1-1.45,1.12-1.79S7.14,46,7.14,46l.79-.48Z" transform="translate(-0.18)"/><path class="cls-12" d="M9.5,46.5a4.1,4.1,0,0,1-.88,1.77A3.41,3.41,0,0,1,6.17,49.8c-1,0-.93-.31-.9-.9h0c0-.59,1-1.43,1.12-1.77s.74-1.51.74-1.51l.78-.48,1.61,0a.25.25,0,0,1,0,.09,2.17,2.17,0,0,1-.06,1.3" transform="translate(-0.18)"/><path class="cls-13" d="M9.5,46.5a4.1,4.1,0,0,1-.88,1.77A3.41,3.41,0,0,1,6.17,49.8c-1,0-.93-.31-.9-.9h.08a4.68,4.68,0,0,0,1.11.24,2.15,2.15,0,0,0,1.12-.22,2.69,2.69,0,0,0,.63-.53,4.8,4.8,0,0,0,.53-.68,3.71,3.71,0,0,0,.32-.8,4,4,0,0,0,.12-1.24v-.14a.55.55,0,0,1,.38-.33,2.17,2.17,0,0,1-.06,1.3" transform="translate(-0.18)"/><path class="cls-15" d="M5.47,26.48a.87.87,0,0,1,.19-.33h0L5.81,26c1.07-.7,4,.18,4.33,1.55,0,.07,0,.16,0,.26a6.7,6.7,0,0,1,0,2.19,30.93,30.93,0,0,0-.25,5.87c.09,1.26.18,2.43.27,3.52a41.85,41.85,0,0,1-.1,5.6c-.07.5-.13.84-.13.84l-.1,0a4.26,4.26,0,0,1-.73.23,2.55,2.55,0,0,1-.78,0c-.67-.07-1.41-.28-1.6-1a3.35,3.35,0,0,1,0-1,47.52,47.52,0,0,0-.26-4.78c-.16-.87-.46-1.7-.58-2.59-.27-1.93-.44-4.81-.59-6.76,0-.15,0-.29,0-.44s0-.55,0-.83A7.26,7.26,0,0,1,5.47,26.48Z" transform="translate(-0.18)"/><path class="cls-14" d="M8.09,37.39a1,1,0,0,0,.21-.31,5.78,5.78,0,0,0-.42-3,12.35,12.35,0,0,1-.67-2.14,5.76,5.76,0,0,1-.13-1.55S7,27.13,8.23,26a2.81,2.81,0,0,1,1.91,1.55c0,.07,0,.16,0,.26a6.7,6.7,0,0,1,0,2.19,30.93,30.93,0,0,0-.25,5.87c.11,1.53.23,5.36.33,6.66a7.27,7.27,0,0,1-.05,1.68h0c0,.19,0,.38-.08.57h0c-.07.45-.12.8-.15,1h0a.29.29,0,0,1-.07.1l0,0-.08,0c-.16,0-.3-.46-.32-.65-.09-.93-.21-1.86-.34-2.79-.09-.62,0-4.16-.83-4.32a2.45,2.45,0,0,0-.81,0,1.46,1.46,0,0,1-.8-.06A2.2,2.2,0,0,0,8.09,37.39Z" transform="translate(-0.18)"/><path class="cls-19" d="M5.47,26.48a.87.87,0,0,1,.19-.33h0L5.81,26a3.09,3.09,0,0,1,2.42,0h0l.29.11.05,0,.25.11.06,0,.2.11.1.06a1.33,1.33,0,0,1,.19.14l.08.05.15.13.09.08.1.11.1.11a1.32,1.32,0,0,1,.12.2l0,0a1.86,1.86,0,0,1,.1.25c0,.07,0,.16,0,.26a6.7,6.7,0,0,1,0,2.19,30.93,30.93,0,0,0-.25,5.87c0,.36.05.71.08,1.05,0,.11,0,.22,0,.33l.06.7,0,.35.06.76,0,.33h0c0,.24,0,2.91.06,3.14a7.27,7.27,0,0,1-.05,1.68h0c0,.19,0,.38-.08.57h0l0,.19h0c0,.14,0,.27-.06.38v0l0,.18v0c0,.14,0,.22,0,.22l-.06,0h0l0,0-.08,0h0a4.31,4.31,0,0,1-.65.2,2.55,2.55,0,0,1-.78,0c-.67-.07-1.41-.28-1.6-1a3.35,3.35,0,0,1,0-1,47.52,47.52,0,0,0-.26-4.78c-.16-.87-.46-1.7-.58-2.59-.27-1.93-.44-4.81-.59-6.76,0-.15,0-.29,0-.44s0-.55,0-.83A7.26,7.26,0,0,1,5.47,26.48Z" transform="translate(-0.18)"/></g><g class="cls-20"><path class="cls-15" d="M5.47,26.48a.87.87,0,0,1,.19-.33h0L5.81,26c1.07-.7,4,.18,4.33,1.55,0,.07,0,.16,0,.26a6.7,6.7,0,0,1,0,2.19,30.93,30.93,0,0,0-.25,5.87c.09,1.26.18,2.43.27,3.52a41.85,41.85,0,0,1-.1,5.6c-.07.5-.13.84-.13.84l-.1,0a4.26,4.26,0,0,1-.73.23,2.55,2.55,0,0,1-.78,0c-.67-.07-1.41-.28-1.6-1a3.35,3.35,0,0,1,0-1,47.52,47.52,0,0,0-.26-4.78c-.16-.87-.46-1.7-.58-2.59-.27-1.93-.44-4.81-.59-6.76,0-.15,0-.29,0-.44s0-.55,0-.83A7.26,7.26,0,0,1,5.47,26.48Z" transform="translate(-0.18)"/><path class="cls-14" d="M8.09,37.39a1,1,0,0,0,.21-.31,5.78,5.78,0,0,0-.42-3,12.35,12.35,0,0,1-.67-2.14,5.76,5.76,0,0,1-.13-1.55S7,27.13,8.23,26a2.81,2.81,0,0,1,1.91,1.55c0,.07,0,.16,0,.26a6.7,6.7,0,0,1,0,2.19,30.93,30.93,0,0,0-.25,5.87c.11,1.53.23,5.36.33,6.66a7.27,7.27,0,0,1-.05,1.68h0c0,.19,0,.38-.08.57h0c-.07.45-.12.8-.15,1h0a.29.29,0,0,1-.07.1l0,0-.08,0c-.16,0-.3-.46-.32-.65-.09-.93-.21-1.86-.34-2.79-.09-.62,0-4.16-.83-4.32a2.45,2.45,0,0,0-.81,0,1.46,1.46,0,0,1-.8-.06A2.2,2.2,0,0,0,8.09,37.39Z" transform="translate(-0.18)"/><path class="cls-19" d="M5.47,26.48a.87.87,0,0,1,.19-.33h0L5.81,26a3.09,3.09,0,0,1,2.42,0h0l.29.11.05,0,.25.11.06,0,.2.11.1.06a1.33,1.33,0,0,1,.19.14l.08.05.15.13.09.08.1.11.1.11a1.32,1.32,0,0,1,.12.2l0,0a1.86,1.86,0,0,1,.1.25c0,.07,0,.16,0,.26a6.7,6.7,0,0,1,0,2.19,30.93,30.93,0,0,0-.25,5.87c0,.36.05.71.08,1.05,0,.11,0,.22,0,.33l.06.7,0,.35.06.76,0,.33h0c0,.24,0,2.91.06,3.14a7.27,7.27,0,0,1-.05,1.68h0c0,.19,0,.38-.08.57h0l0,.19h0c0,.14,0,.27-.06.38v0l0,.18v0c0,.14,0,.22,0,.22l-.06,0h0l0,0-.08,0h0a4.31,4.31,0,0,1-.65.2,2.55,2.55,0,0,1-.78,0c-.67-.07-1.41-.28-1.6-1a3.35,3.35,0,0,1,0-1,47.52,47.52,0,0,0-.26-4.78c-.16-.87-.46-1.7-.58-2.59-.27-1.93-.44-4.81-.59-6.76,0-.15,0-.29,0-.44s0-.55,0-.83A7.26,7.26,0,0,1,5.47,26.48Z" transform="translate(-0.18)"/></g><path class="cls-11" d="M10,26.92h0a9.24,9.24,0,0,1-3.3.48,8,8,0,0,1-1-.09,16.7,16.7,0,0,1-2.12-.48l-.14,0a6.88,6.88,0,0,1-1-.36A1.77,1.77,0,0,1,1.81,26h0c0-.27,0-.54,0-.81l.05,0a.9.9,0,0,1,.4,0c.34,0,.69.09,1,.15.68.11,1.37.22,2.05.28a8.75,8.75,0,0,0,2.45-.09A8.69,8.69,0,0,1,9,25.28a1.7,1.7,0,0,1,.77.14l0,0c.06.54.13,1.07.16,1.47" transform="translate(-0.18)"/><path class="cls-4" d="M1,14.33a27,27,0,0,1,.23,2.84c.05.94.1,1.88.14,2.82.06,1.55.1,3.1.07,4.64v.26a1.22,1.22,0,0,0,.13.57A1,1,0,0,0,2,25.8l.24.16a7.84,7.84,0,0,0,1.45.65l.25.09.25.07h0a8.06,8.06,0,0,0,2,.28,7.42,7.42,0,0,0,1.94-.17c.23,0,.45-.1.67-.16a.92.92,0,0,0,.48-.4,5.36,5.36,0,0,0,.59-1.59,7.34,7.34,0,0,0,.31-2A14.71,14.71,0,0,1,10,21.22c0-.09,0-.17,0-.27.08-1.05.13-2.1.15-3.16,0-.26,0-.53,0-.8,0-.91,0-1.81-.05-2.72a8.18,8.18,0,0,1-.05-1.47,1.87,1.87,0,0,1,.29-.77,4.53,4.53,0,0,1,.6-.53.55.55,0,0,0,.18-.31.76.76,0,0,0,0-.26.49.49,0,0,0-.36-.42,16.17,16.17,0,0,1-1.59-.85,4.22,4.22,0,0,0-.92-.37L7.9,9.16l-.25-.07A2.25,2.25,0,0,0,7.3,9L7.15,9a1.85,1.85,0,0,0-.47,0L6.53,9c-.37.09-.46.2-.86.14a13.48,13.48,0,0,0-1.87.13l-.95.12-.34,0h0a3.79,3.79,0,0,0-1.06.6A2.88,2.88,0,0,0,1,11.35a9.61,9.61,0,0,0,.09,3" transform="translate(-0.18)"/><path class="cls-5" d="M3.58,22c0,.69,0,1.38,0,2.07s.06,1.17.12,1.75c0,.16,0,.32.07.49a2.17,2.17,0,0,0,.08.43s.14,0,.16,0a1,1,0,0,0,.17,0c-.07,0-.09-.72-.1-.77-.07-.54-.1-1.09-.13-1.63s-.05-1.33-.05-2,0-1.46,0-2.19S4,18.74,4,18s0-1.33.06-2l.06-1.64c0-.39,0-.78.06-1.17s.09-.75.14-1.12l-.23.43a3.6,3.6,0,0,0-.31,1.56c0,.52,0,1-.07,1.55l-.06,2c0,.72,0,1.45,0,2.17s0,1.48,0,2.22" transform="translate(-0.18)"/><path class="cls-15" d="M1.14,20.35v1.32c0,.55,0,1.09,0,1.64L1.1,25c0,.61-.06,1.44.59,1.74l.05,0a2.75,2.75,0,0,0,.41.11L2.7,27a1.66,1.66,0,0,0,.62.11c-.09-.7-.2-1.39-.24-2.1,0-.24,0-.48,0-.71s0-.48,0-.71,0-.28,0-.41L3,21.31c0-.38,0-.76-.05-1.14V20c-.14-2.94-.33-6,.74-8.71l-.05-.39c-.08-.4-.15-.8-.23-1.21,0-.11,0-.26-.17-.3a1.71,1.71,0,0,0-.39,0,1.88,1.88,0,0,0-.41,0,1.31,1.31,0,0,0-.48.12,1.93,1.93,0,0,0-.63.61l-.1.15a2.61,2.61,0,0,0-.35.82,3.9,3.9,0,0,0-.11.67A8.8,8.8,0,0,0,.8,13.22c.18,1.83.28,3.66.32,5.5,0,.54,0,1.08,0,1.63" transform="translate(-0.18)"/><path class="cls-14" d="M.8,13.22A98.88,98.88,0,0,1,1.1,25c0,.61-.06,1.43.59,1.74l.05,0c0-.83-.18-1.65-.13-2.48s-.05-1.93-.07-2.89c0-1.55,0-3.11-.05-4.66,0-.22,0-.52.26-.57s.45,0,.44-.14a1.16,1.16,0,0,1-.89-.81A3.48,3.48,0,0,1,1.18,14c0-.45,0-.89.05-1.34a5.93,5.93,0,0,1,.25-1.84c.22-.59,1-1.44,1.67-1.4a3.65,3.65,0,0,0-.74,0,1.54,1.54,0,0,0-.48.12,1.93,1.93,0,0,0-.63.61l-.1.15a2.61,2.61,0,0,0-.35.82,3.9,3.9,0,0,0-.11.67A7.82,7.82,0,0,0,.8,13.22" transform="translate(-0.18)"/><path class="cls-15" d="M4.69,20.57c0,.36,0,.71,0,1.06,0,.64,0,1.28,0,1.92,0,.35,0,.71,0,1.06,0,.9.11,1.79.18,2.68a.7.7,0,0,0,.08.29l0,0a.49.49,0,0,0,.25.12,7.43,7.43,0,0,0,3.94-.12.6.6,0,0,0,.25-.13.58.58,0,0,0,.13-.31c.31-1.34.61-2.69.92-4,.13-.56.25-1.12.37-1.68a19.7,19.7,0,0,0,.42-3.15A30.07,30.07,0,0,0,10.85,13c-.06-.4-.12-.78-.21-1.17v0a.83.83,0,0,1,.26-.88c.07-.06.16-.13.13-.21A.14.14,0,0,0,11,10.6,7.51,7.51,0,0,0,8.64,9.39a.8.8,0,0,0-.74.08,3.75,3.75,0,0,0-.75.92,11.12,11.12,0,0,0-1,1.49A11,11,0,0,0,5,15.2a17.58,17.58,0,0,0-.24,2.4c0,1-.08,2-.08,3" transform="translate(-0.18)"/><path class="cls-14" d="M5,27.58l0,0a.49.49,0,0,0,.25.12,7.43,7.43,0,0,0,3.94-.12.6.6,0,0,0,.25-.13.58.58,0,0,0,.13-.31c.31-1.34.61-2.69.92-4,.13-.56.25-1.12.37-1.68a4.47,4.47,0,0,0-.4-1.11,2.23,2.23,0,0,1-.35-1.11c0-.49,0-1,.05-1.46,0-.26,0-.53,0-.8,0-.91,0-1.81-.05-2.72a9.22,9.22,0,0,1-.05-1.47,1.87,1.87,0,0,1,.29-.77,1.66,1.66,0,0,1,.23-.23c.12-.1.26-.19.37-.3a.36.36,0,0,0,.17-.29h0a1,1,0,0,0,0-.36.42.42,0,0,0-.08-.18.52.52,0,0,0-.11-.1c-.31-.21-.6-.45-.93-.64a5.5,5.5,0,0,0-1-.46c-.36-.12-.73-.19-1.09-.3l-.16.22.16.09.95.56a1.32,1.32,0,0,1,.37.3c.31.42,0,1-.24,1.47A5.74,5.74,0,0,0,8.74,15a1.84,1.84,0,0,1-.14,1.29A1.72,1.72,0,0,1,7.54,17a2.09,2.09,0,0,1-1.41-.17,4.55,4.55,0,0,0,1.66.57,2.18,2.18,0,0,1,1.34.69,3.07,3.07,0,0,1,.16,1.48,23.34,23.34,0,0,1-.36,3.54c0,.22,0,.42,0,.63-.08.52-.2,1-.31,1.54a3.16,3.16,0,0,1-.85,1.6,2.5,2.5,0,0,1-1.62.77A6,6,0,0,1,5,27.58" transform="translate(-0.18)"/><path class="cls-6" d="M3.75,9.13a5.59,5.59,0,0,0-.16,1.14,1.31,1.31,0,0,0,.2.72,1.36,1.36,0,0,0,.63.5,2.44,2.44,0,0,0-.24.75c0,.12,0,.22,0,.34a1.51,1.51,0,0,0-.14.35,1.48,1.48,0,0,0-.37-.86c-.22-.25-.46-.48-.66-.75a1.33,1.33,0,0,1,.79-2.19" transform="translate(-0.18)"/><path class="cls-4" d="M1.12,18.72c0,.54,0,1.08,0,1.63a5.17,5.17,0,0,0,1.83,1c0-.38,0-.9-.05-1.28a2.93,2.93,0,0,1-1.76-1.34Z" transform="translate(-0.18)"/><path class="cls-4" d="M1.13,23.31a5.15,5.15,0,0,0,1.93,1c0-.24,0-.48,0-.71s0-.45,0-.58a3.09,3.09,0,0,1-1.9-1.36h0c0,.55,0,1.09,0,1.64" transform="translate(-0.18)"/><path class="cls-4" d="M5.38,15.14c0-.18-.06-.54.2-.55a.79.79,0,0,1,.22.05,4.54,4.54,0,0,0,1.51.28,5,5,0,0,0,.67,0c.12,0,.34-.1.4.06a1.75,1.75,0,0,1,0,.55c0,.4-.05.8-.07,1.2a.78.78,0,0,1-.09.37.85.85,0,0,1-.28.22c-.39.21-.78.4-1.18.58a.58.58,0,0,1-.14,0c-.28,0-.5-.31-.66-.53s-.16-.25-.25-.37a1.57,1.57,0,0,1-.24-.32,1,1,0,0,1,0-.25c0-.43,0-.86,0-1.29" transform="translate(-0.18)"/><path class="cls-14" d="M9.49,27.49a1.57,1.57,0,0,0,1.35-1.21c.39-1.2,1.84-12.16.21-15.62l-.87.47-.21.95-.36,6.48Z" transform="translate(-0.18)"/><path class="cls-4" d="M4.73,23.55c0,.35,0,.71,0,1.06.36,0,.72.05,1.08.05a33,33,0,0,0,5.39-.6l.15-1.13a30.1,30.1,0,0,1-6.65.62" transform="translate(-0.18)"/><path class="cls-4" d="M4.69,20.57c0,.36,0,.71,0,1.06a11.07,11.07,0,0,0,1.15.06,31.74,31.74,0,0,0,5.74-.8l.11-1.3s-4.55,1.23-7,1" transform="translate(-0.18)"/><path class="cls-21" d="M7.87,9.14a2.47,2.47,0,0,1-1-.61.7.7,0,0,1-.12-.47h0a1.22,1.22,0,0,0-1.08-1c-2.12,0-2,1.55-2,1.55h0a2.48,2.48,0,0,0,0,.47h0a4.73,4.73,0,0,1,0,.53l0,.26a1.59,1.59,0,0,0,0,.44c.07.49.2,1,.74,1.08a1.56,1.56,0,0,0,.9-.12,3.3,3.3,0,0,0,.89-.42c.24-.17.5-.32.74-.48l.06,0,.24-.17C8,9.54,7.87,9.14,7.87,9.14Z" transform="translate(-0.18)"/><path class="cls-22" d="M7.5,9.89l.13-.14,0,0a.77.77,0,0,0,.09-.13l0,0a1.39,1.39,0,0,0,.06-.13h0a.19.19,0,0,0,0-.1V9.14a2.47,2.47,0,0,1-1-.61.7.7,0,0,1-.12-.47h0a1.22,1.22,0,0,0-1.08-1c-2.12,0-2,1.55-2,1.55h0a2.48,2.48,0,0,0,0,.47h0a4.73,4.73,0,0,1,0,.53l0,.26a1,1,0,0,0,.45.07A1.86,1.86,0,0,0,5,9.57c.26-.19.49-.41.75-.61a.7.7,0,0,1,.68-.17.5.5,0,0,1,.24.32,1.76,1.76,0,0,1,.06.4,4,4,0,0,0,.13.69l.07.16.06,0,.24-.17.22-.2Z" transform="translate(-0.18)"/><path class="cls-6" d="M4.48,11.47l.32,0a.68.68,0,0,0,.27-.1c.08,0,.19-.08.27-.12s.37-.24.56-.36c.57-.37,1.39-.81,1.39-1.6,0-.11,0-.46-.12-.5A5.11,5.11,0,0,1,7.92,9c.12,0,.25.07.37.12a1.2,1.2,0,0,1,.36.13c.06,0,0,.05,0,.12l-.06.17a2.3,2.3,0,0,1-.15.32,3.85,3.85,0,0,1-.39.6A4.23,4.23,0,0,1,7,11.35a4.27,4.27,0,0,1-.67.35c-.23.1-.45.19-.67.3s-.53.19-.79.31a1.77,1.77,0,0,0-.33.19c-.12.11-.22.23-.33.34S4.1,13,4.07,13a4,4,0,0,1,.24-1.45.22.22,0,0,1,.05-.08h.12Z" transform="translate(-0.18)"/><g class="cls-23"><path class="cls-3" d="M12.34,18.61a20.93,20.93,0,0,1-.67,3.86c-.19.92-.4,1.82-.62,2.73-.06.25-.14.46-.19.72,0,.09,0,.18,0,.28s-.09.37-.14.56A8.68,8.68,0,0,1,10,28.34a3,3,0,0,1-.88,1.2c-.13.08-.26.16-.4.23a1.65,1.65,0,0,1-.42.16,2.71,2.71,0,0,1-.41,0,1.61,1.61,0,0,1-.49,0,.36.36,0,0,1-.31-.34.13.13,0,0,1,0-.1.2.2,0,0,1,.15-.07l.37-.11a.7.7,0,0,0,.21-.11A.5.5,0,0,0,8,29a2.23,2.23,0,0,0,.25-.71c0-.12.05-.45-.16-.38a.9.9,0,0,0-.19.15.63.63,0,0,1-.12.11l-.21.07a.37.37,0,0,1-.18,0s-.12,0-.14-.09,0-.27.16-.36l.18-.14c.18-.11.24-.27.36-.42a1.82,1.82,0,0,1,.45-.38l.48-.34a.84.84,0,0,0,.4-.52,2.17,2.17,0,0,0,0-.44,2.44,2.44,0,0,1,0-.27c0-.67.05-1.33.09-2,.07-1,.16-2.11.25-3.17,0-.32.09-.65.12-1a2.22,2.22,0,0,0-.07-.68c-.11-.68-.09-1.37-.23-2.05a1.35,1.35,0,0,1-.06-.53c.06-.38.68-.56,1-.71s.46-.19.7-.27c.09,0,.55-.21.62-.15a1.22,1.22,0,0,1,.36.68,9.51,9.51,0,0,1,.19,2.12c0,.34,0,.68,0,1" transform="translate(-0.18)"/><path class="cls-9" d="M12.31,17.59a9.51,9.51,0,0,0-.19-2.12,1.22,1.22,0,0,0-.36-.68s-.31,0-.48.1a1.24,1.24,0,0,1,.3.63,10.18,10.18,0,0,1,.2,2.13c0,.34,0,.68,0,1a20.37,20.37,0,0,1-.66,3.86c-.19.91-.41,1.82-.63,2.72-.06.25-.13.47-.18.72,0,.09,0,.19-.05.28s-.09.38-.14.57A8.58,8.58,0,0,1,9.5,28.4a3,3,0,0,1-.87,1.19,3.3,3.3,0,0,1-.41.23,2.54,2.54,0,0,1-.38.16h.09a2.71,2.71,0,0,0,.41,0,2.14,2.14,0,0,0,.42-.16c.14-.07.27-.15.4-.23a3,3,0,0,0,.88-1.2,8.68,8.68,0,0,0,.63-1.58c.05-.19.1-.37.14-.56s0-.19,0-.28c.05-.26.13-.47.19-.72.22-.91.43-1.81.62-2.73a20.93,20.93,0,0,0,.67-3.86c0-.34,0-.68,0-1" transform="translate(-0.18)"/><path class="cls-4" d="M9.18,15.84c0,.09,0,.18,0,.27s0,.09,0,.14c.09.95.39,1.85.49,2.8a9.14,9.14,0,0,1-.17,2.39.29.29,0,0,0,0,.09l0,.17c-.05.3-.12.59-.16.88a3,3,0,0,0,0,.43c0,.46.39.4.75.41h.15a3.73,3.73,0,0,0,.82-.07,1.69,1.69,0,0,0,1.09-.72,1.25,1.25,0,0,0,.15-.46c.11-.57.2-1.13.27-1.7a11.64,11.64,0,0,0,.16-1.55c0-.54,0-1.07,0-1.6s-.05-1.17-.1-1.76c0-.18,0-.37-.05-.55A13.61,13.61,0,0,0,12,12.56a6.21,6.21,0,0,0-.49-1.16c-.17-.3-.28-.66-.68-.73h-.08a1.09,1.09,0,0,0-.26,0h0a1.34,1.34,0,0,0-.82.61,3.76,3.76,0,0,0-.57,1.6v0s0,.09,0,.13v.13a26.48,26.48,0,0,0,.1,2.67" transform="translate(-0.18)"/><path class="cls-5" d="M9.36,21.92a1.6,1.6,0,0,0,0,.72c.07.3.4.51.65.67l.18.11a3.73,3.73,0,0,0,.82-.07,1.69,1.69,0,0,0,1.09-.72,1.25,1.25,0,0,0,.15-.46c.11-.57.2-1.13.27-1.7a11.64,11.64,0,0,0,.16-1.55c0-.54,0-1.07,0-1.6s-.05-1.17-.1-1.76c0-.18,0-.37-.05-.55A13.61,13.61,0,0,0,12,12.56a6.21,6.21,0,0,0-.49-1.16c-.17-.3-.28-.66-.68-.73h-.08a1.09,1.09,0,0,0-.26,0,1.37,1.37,0,0,1,.35.53,14.62,14.62,0,0,1,1,4.07.57.57,0,0,1-.1.49.64.64,0,0,1-.36.14l-.47.08.69.28c-.09,0-.08.19,0,.27a1.45,1.45,0,0,0,.22.21.26.26,0,0,1,.08.28c-.1.18-.4,0-.56.14a1.38,1.38,0,0,0,.43.32,1.24,1.24,0,0,1,.37,1c-.08.39-.62.31-1,.35l.63.53c.32.3.21.54.18.94s0,.71-.46.67A.7.7,0,0,1,11,22.2a1.3,1.3,0,0,1-.93-.42,4.78,4.78,0,0,0-.45-.45s0,0-.06,0-.05,0-.06.06a3.6,3.6,0,0,0-.16.55" transform="translate(-0.18)"/><path class="cls-5" d="M9.18,15.84c0,.09,0,.18,0,.27s0,.09,0,.14c.09.95.39,1.85.49,2.8a9.14,9.14,0,0,1-.17,2.39,4.53,4.53,0,0,0,.19-1,6.15,6.15,0,0,1,.11-.95.46.46,0,0,1,.17-.24,1.76,1.76,0,0,1,.41-.1,1.25,1.25,0,0,1,.43-.07,1.25,1.25,0,0,1-.72-.29c-.1-.08-.38-.34-.21-.47a.53.53,0,0,1,.27-.08h.2a1.62,1.62,0,0,1-.84-.95,1.54,1.54,0,0,1-.14-.73c0-.22.23-.33.43-.41a1,1,0,0,0,.51-.31,1.76,1.76,0,0,1-.94,0c.07-.15.14-.29.22-.44v0c0-.1-.23,0-.24-.12.32-.26.83-.09,1.18-.32a1.44,1.44,0,0,1-.8,0A1.32,1.32,0,0,1,9.2,14a3.69,3.69,0,0,1-.12-.82,26.48,26.48,0,0,0,.1,2.67" transform="translate(-0.18)"/><path class="cls-6" d="M9.42,21.43a.76.76,0,0,1,.11-.14A1.48,1.48,0,0,0,10,22a1.75,1.75,0,0,0,.71.35,1.46,1.46,0,0,0,1.56-.62,1.2,1.2,0,0,0,.13-.33,1.59,1.59,0,0,1,.2.83,2.43,2.43,0,0,1-.13.89,1,1,0,0,1-.16.31,1,1,0,0,1-.54.31,4.11,4.11,0,0,1-2.22-.23l-.14-.07a.8.8,0,0,1-.2-.56,5.71,5.71,0,0,1,0-.83,1.7,1.7,0,0,1,.22-.62" transform="translate(-0.18)"/></g><g class="cls-24"><path class="cls-3" d="M12.35,18.61a20.91,20.91,0,0,1-.66,3.86c-.19.92-.41,1.82-.63,2.73-.06.25-.14.46-.18.72a2.33,2.33,0,0,0-.05.28c0,.19-.09.37-.15.56a7.44,7.44,0,0,1-.63,1.58,3,3,0,0,1-.88,1.2,3.81,3.81,0,0,1-.4.23,1.52,1.52,0,0,1-.42.16A2.71,2.71,0,0,1,8,30a1.68,1.68,0,0,1-.5,0,.37.37,0,0,1-.31-.34.18.18,0,0,1,0-.1.23.23,0,0,1,.15-.07l.38-.11a.78.78,0,0,0,.2-.11A.52.52,0,0,0,8.05,29a2,2,0,0,0,.24-.71c0-.12.06-.45-.16-.38a.84.84,0,0,0-.18.15.69.69,0,0,1-.13.11l-.2.07a.41.41,0,0,1-.19,0s-.12,0-.14-.09a.31.31,0,0,1,.16-.36l.18-.14c.18-.11.24-.27.37-.42a1.82,1.82,0,0,1,.45-.38l.47-.34a.81.81,0,0,0,.4-.52,2.18,2.18,0,0,0,0-.44,2.43,2.43,0,0,1,0-.27c0-.67.05-1.33.1-2,.07-1,.15-2.11.24-3.17,0-.32.09-.65.12-1a2,2,0,0,0-.07-.68c-.11-.68-.08-1.37-.23-2.05a1.35,1.35,0,0,1,0-.53c.06-.38.67-.56,1-.71s.46-.19.69-.27.56-.21.63-.15a1.21,1.21,0,0,1,.35.68,9.51,9.51,0,0,1,.19,2.12q0,.51,0,1" transform="translate(-0.18)"/><path class="cls-9" d="M12.32,17.59a9.51,9.51,0,0,0-.19-2.12,1.21,1.21,0,0,0-.35-.68s-.31,0-.49.1a1.34,1.34,0,0,1,.31.63,9.54,9.54,0,0,1,.19,2.13c0,.34,0,.68,0,1a21.22,21.22,0,0,1-.67,3.86c-.19.91-.4,1.82-.62,2.72-.06.25-.14.47-.19.72a2.74,2.74,0,0,1-.05.28c0,.19-.09.38-.14.57a8.53,8.53,0,0,1-.63,1.58,3,3,0,0,1-.88,1.19,3.18,3.18,0,0,1-.4.23,2.27,2.27,0,0,1-.39.16H8a2.71,2.71,0,0,0,.4,0,1.92,1.92,0,0,0,.42-.16,3.81,3.81,0,0,0,.4-.23,3,3,0,0,0,.88-1.2,7.44,7.44,0,0,0,.63-1.58c.06-.19.11-.37.15-.56a2.33,2.33,0,0,1,.05-.28c0-.26.12-.47.18-.72.22-.91.44-1.81.63-2.73a20.91,20.91,0,0,0,.66-3.86q0-.51,0-1" transform="translate(-0.18)"/><path class="cls-4" d="M9.19,15.84c0,.09,0,.18,0,.27a.66.66,0,0,0,0,.14c.08.95.38,1.85.48,2.8a9.14,9.14,0,0,1-.17,2.39.29.29,0,0,1,0,.09.86.86,0,0,1,0,.17c-.05.3-.12.59-.15.88a3,3,0,0,0,0,.43c0,.46.39.4.75.41h.15a3.79,3.79,0,0,0,.82-.07,1.72,1.72,0,0,0,1.09-.72,1.23,1.23,0,0,0,.14-.46c.11-.57.21-1.13.28-1.7a11.61,11.61,0,0,0,.15-1.55c0-.54,0-1.07,0-1.6s0-1.17-.09-1.76c0-.18,0-.37-.05-.55A13.63,13.63,0,0,0,12,12.56a6.17,6.17,0,0,0-.48-1.16c-.17-.3-.28-.66-.68-.73h-.09a1,1,0,0,0-.25,0h0a1.34,1.34,0,0,0-.82.61,3.76,3.76,0,0,0-.57,1.6v0a.57.57,0,0,1,0,.13v.13c-.05.89.08,1.78.1,2.67" transform="translate(-0.18)"/><path class="cls-5" d="M9.38,21.92a1.76,1.76,0,0,0,0,.72c.08.3.41.51.66.67l.18.11a3.79,3.79,0,0,0,.82-.07,1.72,1.72,0,0,0,1.09-.72,1.23,1.23,0,0,0,.14-.46c.11-.57.21-1.13.28-1.7a11.61,11.61,0,0,0,.15-1.55c0-.54,0-1.07,0-1.6s0-1.17-.09-1.76c0-.18,0-.37-.05-.55A13.63,13.63,0,0,0,12,12.56a6.17,6.17,0,0,0-.48-1.16c-.17-.3-.28-.66-.68-.73h-.09a1,1,0,0,0-.25,0,1.63,1.63,0,0,1,.35.53,14.62,14.62,0,0,1,1,4.07.6.6,0,0,1-.1.49.64.64,0,0,1-.37.14L11,16l.69.28a.19.19,0,0,0,0,.27,1.45,1.45,0,0,0,.22.21.25.25,0,0,1,.07.28c-.09.18-.39,0-.56.14a1.51,1.51,0,0,0,.43.32,1.18,1.18,0,0,1,.37,1c-.07.39-.62.31-1,.35l.64.53c.32.3.2.54.18.94s0,.71-.46.67A.7.7,0,0,1,11,22.2a1.32,1.32,0,0,1-.94-.42,6.25,6.25,0,0,0-.44-.45s0,0-.07,0,0,0-.05.06a3.6,3.6,0,0,0-.16.55" transform="translate(-0.18)"/><path class="cls-5" d="M9.19,15.84c0,.09,0,.18,0,.27a.66.66,0,0,0,0,.14c.08.95.38,1.85.48,2.8a9.14,9.14,0,0,1-.17,2.39,4.53,4.53,0,0,0,.19-1,6.17,6.17,0,0,1,.12-.95.45.45,0,0,1,.16-.24,1.89,1.89,0,0,1,.41-.1,1.31,1.31,0,0,1,.44-.07,1.3,1.3,0,0,1-.73-.29c-.1-.08-.37-.34-.2-.47a.47.47,0,0,1,.26-.08h.21a1.66,1.66,0,0,1-.85-.95,1.42,1.42,0,0,1-.13-.73c0-.22.23-.33.42-.41a1,1,0,0,0,.51-.31,1.76,1.76,0,0,1-.94,0c.07-.15.15-.29.22-.44s0,0,0,0-.23,0-.23-.12c.31-.26.83-.09,1.17-.32a1.45,1.45,0,0,1-.8,0A1.35,1.35,0,0,1,9.21,14a3.69,3.69,0,0,1-.12-.82c-.05.89.08,1.78.1,2.67" transform="translate(-0.18)"/><path class="cls-6" d="M9.43,21.43a1.71,1.71,0,0,1,.11-.14A1.5,1.5,0,0,0,10,22a1.65,1.65,0,0,0,.7.35,1.4,1.4,0,0,0,1-.14,1.34,1.34,0,0,0,.52-.48,1.22,1.22,0,0,0,.14-.33,1.59,1.59,0,0,1,.19.83,2.43,2.43,0,0,1-.12.89.85.85,0,0,1-.17.31,1,1,0,0,1-.54.31,4.07,4.07,0,0,1-2.21-.23.69.69,0,0,1-.15-.07.75.75,0,0,1-.19-.56,3.82,3.82,0,0,1,0-.83,1.69,1.69,0,0,1,.21-.62" transform="translate(-0.18)"/></g><path class="cls-25" d="M7.6,6.28a.19.19,0,0,1,0,.1.56.56,0,0,1,0,.28,2.16,2.16,0,0,1-.5.7h0a1.8,1.8,0,0,1-.21.19,3.78,3.78,0,0,1-.24.32,2.42,2.42,0,0,0-.14.21A3.79,3.79,0,0,1,5.12,9.16l-.07,0-.17.09-.06,0,0,0,0,0,0,0c-.85.41-1.54.37-1.86.07s-.49-1.68-.49-1.68c0-.25-.07-.53-.13-.78a.15.15,0,0,1,0-.07c-.06-.3,0-.57,0-.88a2.79,2.79,0,0,0-.1-.39,1.87,1.87,0,0,1,.1-.81c.09-.33.19-.66.28-1s.11-.39.16-.59a1.76,1.76,0,0,1,.64-1.14,2.58,2.58,0,0,1,1.37-.51S6.33,2.9,6.49,3a2.72,2.72,0,0,1,1.2,2.32,3.28,3.28,0,0,1-.13.91l0,0a0,0,0,0,0,0,0" transform="translate(-0.18)"/><path class="cls-22" d="M2.46,3.84A8,8,0,0,1,5,3.23a2.48,2.48,0,0,1,.77,0,1.19,1.19,0,0,1,.66.38,1.29,1.29,0,0,1,.2.86,3.58,3.58,0,0,1-.22,1,9.34,9.34,0,0,0-.44,2A1.48,1.48,0,0,1,5.83,7a3.34,3.34,0,0,1-.14-1.13c0-.14.06-.28.09-.42a3.61,3.61,0,0,0,.06-.87.43.43,0,0,0-.15-.34,1,1,0,0,0-.51-.12A17.55,17.55,0,0,0,3,4,1.43,1.43,0,0,1,2.43,4Z" transform="translate(-0.18)"/><path class="cls-26" d="M8.39,4.22a10.83,10.83,0,0,1-.51,1.84,2,2,0,0,0-.09.22,2.44,2.44,0,0,0-.1.24l0,.09a2,2,0,0,1-.56.75h0s0-.06,0-.1a2,2,0,0,1,.17-.46,1.21,1.21,0,0,0,.08-.25.43.43,0,0,0,0-.16.3.3,0,0,0,0-.16.48.48,0,0,0-.61-.12,1,1,0,0,0-.42.52l-.12.3a.87.87,0,0,1-.07.17A1,1,0,0,0,6,7.26a.49.49,0,0,1,0-.11c0-.05,0-.09,0-.14,0-.21,0-.42,0-.63a3.37,3.37,0,0,1,0-.84c0-.2.11-.4.15-.6a.68.68,0,0,0-.15-.7,1.28,1.28,0,0,0-.61-.32,5.43,5.43,0,0,0-1.78-.07,3.24,3.24,0,0,1-1,0c-.08,0-.17,0-.24-.06s-.12-.12-.14-.21a2,2,0,0,1,0-.78,4.26,4.26,0,0,1,.25-.71c.07-.2.25-.27.43-.36a3.08,3.08,0,0,1,.73-.22,3.9,3.9,0,0,1,1.23,0,4.35,4.35,0,0,1,2.44.68q.33.27.6.54l.12.13a1.52,1.52,0,0,1,.48,1.37" transform="translate(-0.18)"/><path class="cls-27" d="M8.39,4.22a10.83,10.83,0,0,1-.51,1.84,2,2,0,0,0-.09.22,2.44,2.44,0,0,0-.1.24l0,.09a2,2,0,0,1-.55.75h0s0-.06,0-.1a2,2,0,0,1,.17-.46,1.21,1.21,0,0,0,.08-.25.43.43,0,0,0,0-.16.3.3,0,0,0,0-.16.48.48,0,0,0-.61-.12,1,1,0,0,0-.42.52l-.12.3a.87.87,0,0,1-.07.17A1,1,0,0,0,6,7.26a.49.49,0,0,1,0-.11c0-.05,0-.09,0-.14,0-.21,0-.42,0-.63a3.37,3.37,0,0,1,0-.84c0-.2.11-.4.15-.6.06.47-.13.94-.11,1.41,0,.08,0,.17.11.16s0,0,.06,0,.21-.33.34-.48A.64.64,0,0,1,7,5.69a.78.78,0,0,1,.48.23A.2.2,0,0,0,7.52,6c.1,0,.17-.09.21-.19a3.87,3.87,0,0,0,.36-2.11,8.21,8.21,0,0,1-.18-.83,1.52,1.52,0,0,1,.48,1.37" transform="translate(-0.18)"/><path class="cls-28" d="M7.79,2.72a1.22,1.22,0,0,1,.34.6A.73.73,0,0,1,8,3.94a.83.83,0,0,1-.79.17,2.42,2.42,0,0,1-.74-.4,2.39,2.39,0,0,0-.74-.39,2.14,2.14,0,0,0-.62-.06H3.44a1.69,1.69,0,0,1-.81-.14.76.76,0,0,1-.08-1.23,3.49,3.49,0,0,1,2.2-.38,4.35,4.35,0,0,1,2.44.68,5.85,5.85,0,0,1,.6.54" transform="translate(-0.18)"/><path class="cls-29" d="M4.65,1.65c-.19,0-.38,0-.57,0a2.12,2.12,0,0,0-.55.14,1,1,0,0,0-.4.26.36.36,0,0,0-.07.1.3.3,0,0,0,.21.37,4.69,4.69,0,0,0,1.59.05c.71.06,1.34.51,2,.59a.4.4,0,0,0,.32-.07.26.26,0,0,0,0-.24.43.43,0,0,0-.12-.23,2.73,2.73,0,0,0-.49-.47,2.72,2.72,0,0,0-.89-.33,2.84,2.84,0,0,0-.49-.1,5.48,5.48,0,0,0-.56-.1H4.65" transform="translate(-0.18)"/><path class="cls-30" d="M.56,4a1.5,1.5,0,0,1,.18-.28,4.72,4.72,0,0,1,1.16-1,6.2,6.2,0,0,1,1.29-.64,6.91,6.91,0,0,1,3-.42,4.34,4.34,0,0,1,.52.09A3.28,3.28,0,0,1,7.31,2a2.06,2.06,0,0,1,.83.57.34.34,0,0,0,0-.14,2.2,2.2,0,0,1,.43,1.36,1.58,1.58,0,0,1-.24.7,2,2,0,0,1-.57.59,2.73,2.73,0,0,1-.47.27,2.64,2.64,0,0,1-1.09.29.44.44,0,0,0-.2,0,13.25,13.25,0,0,1-1.2.58,6.47,6.47,0,0,1-1.38.2,3.93,3.93,0,0,1-2-.42,1.71,1.71,0,0,1-.51-.37A1.56,1.56,0,0,1,.56,4" transform="translate(-0.18)"/><path class="cls-31" d="M8.15,2.54a.32.32,0,0,1,0,.14,2.14,2.14,0,0,0-.83-.56,4.31,4.31,0,0,0-.61-.19l-.52-.08a6.91,6.91,0,0,0-3,.42,5.75,5.75,0,0,0-1.29.64,4.68,4.68,0,0,0-1.16.95,2.68,2.68,0,0,0-.18.28,1,1,0,0,0-.11.4A1,1,0,0,1,.56,4a1.5,1.5,0,0,1,.18-.28,4.72,4.72,0,0,1,1.16-1,6.2,6.2,0,0,1,1.29-.64,6.91,6.91,0,0,1,3-.42,4.34,4.34,0,0,1,.52.09A3.28,3.28,0,0,1,7.31,2a2.06,2.06,0,0,1,.83.57.34.34,0,0,0,0-.14,2.31,2.31,0,0,1,.44,1.3,2.58,2.58,0,0,0-.44-1.17" transform="translate(-0.18)"/><path class="cls-31" d="M.93,5.45a1.71,1.71,0,0,0,.51.37,3.94,3.94,0,0,0,2,.43,8.06,8.06,0,0,0,1.38-.2A13.34,13.34,0,0,0,6,5.46a.65.65,0,0,1,.2,0A2.64,2.64,0,0,0,7.3,5.15a2.16,2.16,0,0,0,.47-.26,2,2,0,0,0,.57-.6,1.54,1.54,0,0,0,.24-.69s0,0,0-.05a1.62,1.62,0,0,1,0,.22,1.58,1.58,0,0,1-.24.7,2,2,0,0,1-.57.59,2.73,2.73,0,0,1-.47.27,2.64,2.64,0,0,1-1.09.29.44.44,0,0,0-.2,0,13.25,13.25,0,0,1-1.2.58,6.47,6.47,0,0,1-1.38.2,3.93,3.93,0,0,1-2-.42,1.71,1.71,0,0,1-.51-.37A1.8,1.8,0,0,1,.45,4.39,1.89,1.89,0,0,0,.93,5.45" transform="translate(-0.18)"/><path class="cls-32" d="M6.17.21a3,3,0,0,1,1.42.87A3.4,3.4,0,0,1,8.4,3.47a1.51,1.51,0,0,1-.56,1.2,5,5,0,0,1-4.26.48C3,5,2,4.6,1.82,3.92a1.23,1.23,0,0,1,0-.43A2.7,2.7,0,0,1,2.11,2.4c.15-.29.33-.58.51-.86A3.1,3.1,0,0,1,3.29.77a3,3,0,0,1,1-.52,3.33,3.33,0,0,1,1-.17,3,3,0,0,1,.89.13" transform="translate(-0.18)"/><path class="cls-15" d="M1.69,4a.34.34,0,0,0,0,.17.78.78,0,0,0,.1.15,1.65,1.65,0,0,0,.51.4l.24.11.09,0,.1,0s-.06-.06,0-.1l.07-.1.09-.15.27-.61.44-.74L4,2.49l.8-.8.59-.59,1-.24,1.31.28A4.5,4.5,0,0,0,6.55.27h0L6.4.19A2.44,2.44,0,0,0,5.57,0a2.06,2.06,0,0,0-.78.12l-.26.1a2.76,2.76,0,0,0-.5.3,5.58,5.58,0,0,0-.46.39,5.92,5.92,0,0,0-.41.45l-.36.49c-.11.16-.21.33-.31.5s-.18.31-.27.48L2,3.26l-.16.37L1.69,4" transform="translate(-0.18)"/><path class="cls-31" d="M2.92,4.88l0-.07,0-.1.12-.28c0-.13.11-.25.17-.38s.15-.3.23-.45.18-.33.27-.49a5.25,5.25,0,0,1,.33-.49,4.37,4.37,0,0,1,.37-.48,5.6,5.6,0,0,1,.41-.43,3.73,3.73,0,0,1,.46-.35,2.55,2.55,0,0,1,.5-.24l.21-.05a.64.64,0,0,1,.2,0,2.14,2.14,0,0,1,1.64.53A1.36,1.36,0,0,1,8,1.69a1,1,0,0,0-.1-.24,1.17,1.17,0,0,0-.27-.36A1.4,1.4,0,0,0,7.38.93a2.51,2.51,0,0,0-.85-.2,2.06,2.06,0,0,0-.78.12L5.49,1a2.55,2.55,0,0,0-.5.3,5.58,5.58,0,0,0-.46.39,4.28,4.28,0,0,0-.4.45c-.13.16-.25.32-.37.49s-.21.33-.31.49l-.27.49L3,4l-.16.37-.11.27a.61.61,0,0,1-.05.12s0,.08,0,.12a.16.16,0,0,0,.11,0h.11s.06,0,.07,0" transform="translate(-0.18)"/></g></g></svg>