<svg xmlns="http://www.w3.org/2000/svg" viewBox="0 0 77.9 121.77"><defs><style>.cls-1{fill:#3a3a3a;}.cls-2{fill:#4d4d4d;}.cls-3{fill:#a3a3a3;}.cls-4{fill:#e06f22;}.cls-5{fill:#af4c09;}.cls-6{fill:#c65c14;}</style></defs><title>Recurso 60</title><g id="Capa_2" data-name="Capa 2"><g id="personajes"><polygon class="cls-1" points="76.64 93.8 76.64 17.01 77.9 16.28 77.9 93.08 76.64 93.8"/><polygon class="cls-2" points="76.64 93.8 75.12 92.94 75.12 16.13 76.64 17.01 76.64 93.8"/><polygon class="cls-1" points="49.88 78.39 49.88 1.6 51.14 0.87 51.14 77.67 49.88 78.39"/><polygon class="cls-2" points="49.88 78.39 48.36 77.53 48.36 0.72 49.88 1.6 49.88 78.39"/><polygon class="cls-3" points="77.9 16.28 76.64 17.01 75.12 16.13 76.38 15.41 77.9 16.28"/><polygon class="cls-3" points="51.14 0.87 49.88 1.6 48.36 0.72 49.62 0 51.14 0.87"/><polygon class="cls-2" points="48.85 75.58 49.88 76.61 75.97 55.87 75.5 54.35 48.85 75.58"/><polygon class="cls-2" points="75.77 90.36 75.52 91.83 49.27 40.8 49.88 39.91 75.77 90.36"/><polygon class="cls-2" points="48.85 39.38 49.88 40.41 75.97 19.67 75.5 18.15 48.85 39.38"/><polygon class="cls-2" points="75.77 54.16 75.52 55.63 49.27 4.6 49.88 3.71 75.77 54.16"/><polygon class="cls-4" points="49.51 73.07 76.22 88.57 28.15 116.35 1.39 100.88 49.51 73.07"/><polygon class="cls-5" points="28.15 118.33 28.15 116.35 1.39 100.88 1.39 102.85 28.15 118.33"/><polygon class="cls-6" points="76.22 88.57 76.22 90.55 28.15 118.33 28.15 116.35 76.22 88.57"/><polygon class="cls-4" points="49.51 38.5 76.22 54 28.15 81.79 1.39 66.31 49.51 38.5"/><polygon class="cls-5" points="28.15 83.76 28.15 81.79 1.39 66.31 1.39 68.28 28.15 83.76"/><polygon class="cls-6" points="76.22 54 76.22 55.98 28.15 83.76 28.15 81.79 76.22 54"/><polygon class="cls-4" points="49.51 3.71 76.22 19.2 28.15 46.99 1.39 31.52 49.51 3.71"/><polygon class="cls-5" points="28.15 48.97 28.15 46.99 1.39 31.52 1.39 33.49 28.15 48.97"/><polygon class="cls-6" points="76.22 19.2 76.22 21.19 28.15 48.97 28.15 46.99 76.22 19.2"/><polygon class="cls-1" points="28.28 121.77 28.28 44.98 29.54 44.25 29.54 121.05 28.28 121.77"/><polygon class="cls-2" points="28.28 121.77 26.76 120.91 26.76 44.1 28.28 44.98 28.28 121.77"/><polygon class="cls-1" points="1.52 106.36 1.52 29.57 2.78 28.84 2.78 105.64 1.52 106.36"/><polygon class="cls-2" points="1.52 106.36 0 105.5 0 28.69 1.52 29.57 1.52 106.36"/><polygon class="cls-3" points="29.54 44.25 28.28 44.98 26.76 44.1 28.02 43.38 29.54 44.25"/><polygon class="cls-3" points="2.78 28.84 1.52 29.57 0 28.69 1.26 27.97 2.78 28.84"/><polygon class="cls-2" points="0.49 103.55 1.52 104.57 27.61 83.84 27.14 82.31 0.49 103.55"/><polygon class="cls-2" points="27.41 118.33 27.16 119.8 0.91 68.76 1.52 67.87 27.41 118.33"/><polygon class="cls-2" points="0.49 67.35 1.52 68.38 27.61 47.64 27.14 46.12 0.49 67.35"/><polygon class="cls-2" points="27.41 82.13 27.16 83.6 0.91 32.57 1.52 31.68 27.41 82.13"/></g></g></svg>