<svg xmlns="http://www.w3.org/2000/svg" xmlns:xlink="http://www.w3.org/1999/xlink" viewBox="0 0 25.47 50.6"><defs><style>.cls-1{fill:none;}.cls-2,.cls-22{opacity:0.1;}.cls-3{clip-path:url(#clip-path);}.cls-4{fill:#e1771c;}.cls-5{fill:#e8a126;}.cls-6{fill:#42484d;}.cls-7{fill:#2c3033;}.cls-8{fill:#212426;}.cls-9{clip-path:url(#clip-path-2);}.cls-10{clip-path:url(#clip-path-3);}.cls-11{opacity:0.05;}.cls-12{clip-path:url(#clip-path-4);}.cls-13{clip-path:url(#clip-path-5);}.cls-14{fill:#f2d0b8;}.cls-15{fill:#eec1a6;}.cls-16{fill:#e5e5e5;}.cls-17{fill:#cbcbcb;}.cls-18{fill:#f2f2f2;}.cls-19{clip-path:url(#clip-path-6);}.cls-20{clip-path:url(#clip-path-7);}.cls-21{fill:#ffcea1;}.cls-22{fill:#1d1d1b;}.cls-23{fill:#450000;}.cls-24{fill:#dadada;}.cls-25{fill:#edbc2e;}.cls-26{fill:#d06b19;}.cls-27{fill:#e08700;}.cls-28{fill:#f39200;}.cls-29{fill:#3c3c3b;}.cls-30{fill:#fff;}.cls-31{clip-path:url(#clip-path-8);}</style><clipPath id="clip-path"><path class="cls-1" d="M8.66,32.34c-.3-.29-1.69-1.65-1.45-2.61a3.49,3.49,0,0,1,2-2.74.92.92,0,0,1,1.2.15,7.54,7.54,0,0,1,1.87,2.36l2.16,3.66.88,1.94h0v0h0A1.89,1.89,0,0,1,12,36.93a.39.39,0,0,1-.08-.14l-1.55-2.35S9,32.64,8.66,32.34Z"/></clipPath><clipPath id="clip-path-2"><path class="cls-1" d="M11.8,35.71h0a1.89,1.89,0,0,1,3.64.95,1.83,1.83,0,0,1-.08.25h0l-.72,2-1.05,4.23s0,.89-.37,1.11c0,0-.42,1.27-2.93-.16a15.37,15.37,0,0,1,.09-1.9A35.39,35.39,0,0,1,11.8,35.71Z"/></clipPath><clipPath id="clip-path-3"><path class="cls-1" d="M10.82,30.06a3.46,3.46,0,0,1,1.95-2.76.91.91,0,0,1,1.2.12,7.41,7.41,0,0,1,1.91,2.34l2.22,3.61,1,1.92h0a1.89,1.89,0,0,1-3.22,2l0-.08h0l-1.77-2.46s-1.48-1.78-1.78-2.07S10.59,31,10.82,30.06Z"/></clipPath><clipPath id="clip-path-4"><path class="cls-1" d="M16.26,42.46l-.72-4.15-.07-1.76a1.89,1.89,0,1,1,3.7-.76,1.71,1.71,0,0,1,0,.45h0l.09,3.1a33.66,33.66,0,0,0,.57,3.42c.35,1,0,1.39,0,1.39.17.56-2.54.79-2.54.79l-.27,0Z"/></clipPath><clipPath id="clip-path-5"><path class="cls-1" d="M7.21,1.12c-.28.36-.46.71-.31.81s.56-.39.84-.17-.07.58-.31.69-.43.48-.75.82-.81.3-.81.88-.09,2-.09,2A1.73,1.73,0,0,1,6,7.28a1.54,1.54,0,0,1-.39,1l-.24,1.8A1.36,1.36,0,0,1,2.65,10L2.79,8a1.72,1.72,0,0,1-.08-1.45,1.13,1.13,0,0,1,1.07-.79,20.37,20.37,0,0,1,.77-2.86,7.7,7.7,0,0,1,.73-1.55C6.24-.13,7.78,0,7.94.42S7.5.75,7.21,1.12Z"/></clipPath><clipPath id="clip-path-6"><path class="cls-1" d="M8,16.88a1.1,1.1,0,0,1-1.52.46c-2.75-1.54-3.82-6.6-3.82-6.6h0a1.35,1.35,0,0,1,2.52-1,21.92,21.92,0,0,1,2.53,4.13A3.3,3.3,0,0,1,8,16.88Z"/></clipPath><clipPath id="clip-path-7"><path class="cls-1" d="M19.08,4.24c.12.44.15.85,0,.87s-.35-.58-.7-.48-.16.55,0,.75a4.17,4.17,0,0,1,.37,1c.16.44.63.61.4,1.14s-.69,1.84-.69,1.84a1.71,1.71,0,0,0-.65,1,1.54,1.54,0,0,0,0,1.08l-.49,1.75a1.35,1.35,0,0,0,2.51,1l.69-2a1.73,1.73,0,0,0,.64-1.3,1.14,1.14,0,0,0-.67-1.15,21.09,21.09,0,0,0,.42-2.93,7.86,7.86,0,0,0-.07-1.71C20.47,3.48,19,3,18.68,3.31S19,3.8,19.08,4.24Z"/></clipPath><clipPath id="clip-path-8"><path class="cls-1" d="M11.45,18.07a1.11,1.11,0,0,0,1.12,1.13c3.15,0,6.51-4,6.51-4h0a1.35,1.35,0,0,0-1.75-2.06,21.93,21.93,0,0,0-4.19,2.42A3.32,3.32,0,0,0,11.45,18.07Z"/></clipPath></defs><title>Recurso 52</title><g id="Capa_2" data-name="Capa 2"><g id="personajes"><ellipse class="cls-2" cx="16.18" cy="45.31" rx="9.69" ry="4.51" transform="translate(-13.77 7.66) rotate(-18.85)"/><g class="cls-3"><path class="cls-4" d="M10.21,27.1A.77.77,0,0,0,9.9,27h0a.43.43,0,0,0-.16,0C8.6,27,7,29.08,7.37,30.27c0,.06,0,.13.09.22a6.1,6.1,0,0,0,1.13,1.57,19,19,0,0,1,2.71,3.51c.57,1,1.56,2.52,2,3.36a38,38,0,0,0,3,4.07l.52.55.09,0a3.12,3.12,0,0,0,.65-.21,2.33,2.33,0,0,0,.6-.36,1.44,1.44,0,0,0,.65-1.54,3,3,0,0,0-.47-.71c-.41-.56-2-3-2.26-3.66s-.53-1.47-.89-2.18c-.79-1.54-2.14-3.74-3-5.24l-.2-.34c-.13-.2-.25-.41-.39-.62A7,7,0,0,0,10.21,27.1Z"/><path class="cls-5" d="M13.84,36.39a.86.86,0,0,1-.3-.12,5.19,5.19,0,0,1-1.26-2.45,10.49,10.49,0,0,0-.6-1.9c0-.11-.58-1.23-.69-1.19S9.4,28.37,8,28.17a2.51,2.51,0,0,0-.6,2.1c0,.06,0,.13.09.22a6.1,6.1,0,0,0,1.13,1.57,19,19,0,0,1,2.71,3.51c.7,1.16,1.78,2.91,2.36,3.9.26.43,1.82,2.65,2.16,3h0c.12.12.24.24.35.37h0c.28.3.5.53.6.62h0l.11,0h0l.08,0c.1-.11,0-.49-.1-.64-.41-.72-2.06-3.28-2.44-4-.24-.5-.84-1.28-.35-1.8a2.27,2.27,0,0,1,.61-.39,1.31,1.31,0,0,0,.54-.45A2,2,0,0,1,13.84,36.39Z"/><path class="cls-2" d="M10.21,27.1A.77.77,0,0,0,9.9,27h0a.43.43,0,0,0-.16,0A2.76,2.76,0,0,0,8,28.17H8c0,.07-.1.14-.14.21l0,.05a2,2,0,0,0-.14.25l0,0L7.51,29v0l-.08.21a.14.14,0,0,1,0,.06,1.6,1.6,0,0,0-.05.21s0,0,0,.06a1.69,1.69,0,0,0,0,.5h0a1.05,1.05,0,0,0,.06.24c0,.06,0,.13.09.22a6.1,6.1,0,0,0,1.13,1.57,19,19,0,0,1,2.71,3.51c.7,1.16,1.78,2.91,2.36,3.9.25.43,1.82,2.65,2.16,3h0c.12.12.24.24.35.37h0l.12.13h0l.52.55h.09l.08,0h0a2.89,2.89,0,0,0,.57-.19,2.33,2.33,0,0,0,.6-.36,1.44,1.44,0,0,0,.65-1.54,3,3,0,0,0-.47-.71c-.41-.56-2-3-2.26-3.66s-.53-1.47-.89-2.18c-.79-1.54-2.14-3.74-3-5.24l-.2-.34c-.13-.2-.25-.41-.39-.62A7,7,0,0,0,10.21,27.1Z"/></g><path class="cls-6" d="M15.49,44.76c.16-.84-.74-1.48-2.28-1.37l-2.35-1-.54,3h0a.57.57,0,0,0,.24.58,1.87,1.87,0,0,0,1.65.3l2.85-1a.56.56,0,0,0,.43-.43Z"/><path class="cls-7" d="M15.49,44.76c.1-.55-.25-1-.93-1.23a.93.93,0,0,1,.21,1.16c-.45.74-2.81.83-4.37.15l-.08.48h0a.57.57,0,0,0,.24.58,1.87,1.87,0,0,0,1.65.3l2.85-1a.56.56,0,0,0,.43-.43Z"/><path class="cls-8" d="M15.49,44.41c-.17.35-.67.76-2,1.08a4.66,4.66,0,0,1-3.19-.3l0,.13h0a.57.57,0,0,0,.24.58,1.87,1.87,0,0,0,1.65.3l2.85-1a.56.56,0,0,0,.43-.43h0A.83.83,0,0,0,15.49,44.41Z"/><g class="cls-9"><path class="cls-4" d="M17.44,27.75a.57.57,0,0,0-.11-.31h0a.4.4,0,0,0-.1-.12c-.82-.78-3.47-.48-4,.65a1.65,1.65,0,0,0-.09.22,5.9,5.9,0,0,0-.33,1.91,18.48,18.48,0,0,1-.6,4.39c-.27,1.08-.69,2.88-.95,3.82a39.79,39.79,0,0,0-.83,5c0,.45,0,.75,0,.75l.08.06a4.44,4.44,0,0,0,.6.31,1.94,1.94,0,0,0,.68.17c.59.05,1.27,0,1.55-.61a2.93,2.93,0,0,0,.18-.83c.11-.69.78-3.53,1-4.18s.67-1.42.92-2.17c.55-1.64,1.17-4.15,1.62-5.83,0-.12.06-.24.1-.37s.12-.48.17-.72A6.43,6.43,0,0,0,17.44,27.75Z"/><path class="cls-5" d="M13.39,36.87a.72.72,0,0,1-.13-.3A5.17,5.17,0,0,1,14.12,34a10.23,10.23,0,0,0,.93-1.76c0-.11.47-1.28.36-1.32s.57-2.8-.3-3.95a2.44,2.44,0,0,0-1.91,1,1.65,1.65,0,0,0-.09.22,5.9,5.9,0,0,0-.33,1.91,18.48,18.48,0,0,1-.6,4.39c-.33,1.31-.81,3.31-1.11,4.42-.13.49-.62,3.16-.64,3.66h0c0,.17,0,.34,0,.5h0c0,.4,0,.72,0,.86h0a.58.58,0,0,0,0,.11l0,0,.06,0c.15,0,.34-.36.39-.52.23-.8.89-3.77,1.16-4.56.18-.53.31-1.5,1-1.51a2.14,2.14,0,0,1,.7.15,1.4,1.4,0,0,0,.7.08A2,2,0,0,1,13.39,36.87Z"/><path class="cls-2" d="M17.44,27.75a.57.57,0,0,0-.11-.31h0a.4.4,0,0,0-.1-.12,2.73,2.73,0,0,0-2.11-.39h0l-.25,0H14.8l-.27.07h0l-.26.09h0l-.21.09-.06,0-.18.11-.06,0a1.65,1.65,0,0,0-.36.33h0a1.2,1.2,0,0,0-.13.21,1.65,1.65,0,0,0-.09.22,5.9,5.9,0,0,0-.33,1.91,18.94,18.94,0,0,1-.59,4.39c-.34,1.31-.82,3.31-1.12,4.42-.13.49-.62,3.16-.64,3.66h0c0,.17,0,.34,0,.5h0v.17h0c0,.45,0,.75,0,.75l0,0h0l0,0,.06,0h0a5.37,5.37,0,0,0,.54.27,1.94,1.94,0,0,0,.68.17c.59.05,1.27,0,1.55-.61a2.93,2.93,0,0,0,.18-.83c.11-.69.78-3.53,1-4.18s.67-1.42.92-2.17c.55-1.64,1.17-4.15,1.62-5.83,0-.12.07-.24.1-.37s.12-.48.17-.72A6.43,6.43,0,0,0,17.44,27.75Z"/></g><g class="cls-10"><path class="cls-5" d="M13.82,27.36a.77.77,0,0,0-.31-.14h-.18c-1.16.06-2.82,2.24-2.37,3.45a2,2,0,0,0,.1.23,6,6,0,0,0,1.19,1.6,27.85,27.85,0,0,1,3.32,4.21c.6,1,1.15,1.89,1.67,2.75a39.19,39.19,0,0,0,3.07,4.08l.54.55.1,0a3.81,3.81,0,0,0,.66-.22,2.35,2.35,0,0,0,.6-.38,1.49,1.49,0,0,0,.65-1.6,3.16,3.16,0,0,0-.49-.72A43,43,0,0,1,20,37.47c-.35-.73-.58-1.51-1-2.22-.83-1.58-2.24-3.8-3.17-5.33l-.21-.34L15.27,29A6.91,6.91,0,0,0,13.82,27.36Z"/><path class="cls-4" d="M17.71,36.83a.82.82,0,0,1-.32-.12,5.26,5.26,0,0,1-1.32-2.48,10.05,10.05,0,0,0-.65-1.94c-.05-.12-.62-1.26-.73-1.21S13,28.68,11.54,28.5A2.57,2.57,0,0,0,11,30.66a2,2,0,0,0,.1.23,6,6,0,0,0,1.19,1.6,27.85,27.85,0,0,1,3.32,4.21c.73,1.18,2.69,4.08,3.3,5.1A7.78,7.78,0,0,0,19.8,43h0l.36.37h0l.62.63h0l.11,0h0L21,44c.1-.11,0-.5-.11-.65-.43-.74-.84-1.49-1.24-2.25-.26-.51-2.19-3.09-1.69-3.64a2.39,2.39,0,0,1,.62-.41,1.47,1.47,0,0,0,.55-.47A2.07,2.07,0,0,1,17.71,36.83Z"/><path class="cls-11" d="M13.82,27.36a.77.77,0,0,0-.31-.14h-.18a2.83,2.83,0,0,0-1.79,1.29h0l-.15.23,0,0-.12.23,0,.05c0,.06,0,.12-.08.19a.93.93,0,0,1,0,.1c0,.06,0,.13-.07.2s0,.05,0,.08a1,1,0,0,0,0,.17l0,.11a.57.57,0,0,0,0,.13.68.68,0,0,0,0,.14,1.49,1.49,0,0,0,0,.21v0a.84.84,0,0,0,.06.24,2,2,0,0,0,.1.23,6,6,0,0,0,1.19,1.6,27.85,27.85,0,0,1,3.32,4.21l.5.82c.05.08.1.17.16.25l.33.55.16.27c.13.2.25.4.37.6l.15.26h0c.11.18,1.52,2.17,1.63,2.35A7.78,7.78,0,0,0,19.8,43h0l.36.37h0l.12.13h0l.24.25,0,0,.12.12,0,0,.14.14H21L21,44h0a4.56,4.56,0,0,0,.59-.2,2.35,2.35,0,0,0,.6-.38,1.49,1.49,0,0,0,.65-1.6,3.16,3.16,0,0,0-.49-.72A43,43,0,0,1,20,37.47c-.35-.73-.58-1.51-1-2.22-.83-1.58-2.24-3.8-3.17-5.33l-.21-.34L15.27,29A6.91,6.91,0,0,0,13.82,27.36Z"/></g><path class="cls-6" d="M22.26,44.18c-.17-.84-1.25-1.1-2.63-.41l-2.56-.06.6,2.94h0a.56.56,0,0,0,.44.45,1.84,1.84,0,0,0,1.64-.34l2.26-2a.55.55,0,0,0,.23-.56Z"/><path class="cls-7" d="M22.26,44.18c-.11-.55-.61-.84-1.33-.79a.93.93,0,0,1,.63,1c-.13.85-2.29,1.82-4,1.78l.1.48h0a.56.56,0,0,0,.44.45,1.84,1.84,0,0,0,1.64-.34l2.26-2a.55.55,0,0,0,.23-.56Z"/><path class="cls-8" d="M22.12,43.86c0,.38-.34,1-1.41,1.74a4.7,4.7,0,0,1-3.07.92l0,.13h0a.56.56,0,0,0,.44.45,1.84,1.84,0,0,0,1.64-.34l2.26-2a.55.55,0,0,0,.23-.56h0A1,1,0,0,0,22.12,43.86Z"/><g class="cls-12"><path class="cls-5" d="M17.62,26.67a.72.72,0,0,0-.22-.26h0a.37.37,0,0,0-.14-.07c-1.09-.43-3.49.88-3.58,2.17a1,1,0,0,0,0,.25,5.93,5.93,0,0,0,.43,1.94,28.11,28.11,0,0,1,1.29,5.21c.15,1.13.28,2.19.4,3.19a37.29,37.29,0,0,0,1.12,5c.15.43.27.72.27.72l.09,0a3.51,3.51,0,0,0,.7.07,2.36,2.36,0,0,0,.7-.09c.58-.19,1.21-.51,1.25-1.2a3.24,3.24,0,0,0-.15-.86,41.85,41.85,0,0,1-.64-4.31c0-.81.1-1.61.05-2.42-.12-1.78-.49-4.38-.71-6.15,0-.13,0-.26-.05-.4s-.07-.49-.12-.75A6.7,6.7,0,0,0,17.62,26.67Z"/><path class="cls-4" d="M17.28,36.9a.69.69,0,0,1-.24-.24,5.15,5.15,0,0,1-.18-2.8,11.65,11.65,0,0,0,.2-2c0-.12,0-1.4-.17-1.4s-.54-2.88-1.81-3.64a2.54,2.54,0,0,0-1.42,1.73,1,1,0,0,0,0,.25,5.93,5.93,0,0,0,.43,1.94,28.11,28.11,0,0,1,1.29,5.21c.19,1.38.78,4.82.92,6a6.87,6.87,0,0,0,.35,1.49h0l.18.49h0c.14.39.26.7.31.83h0l.08.09h0l.08,0c.14-.07.18-.47.17-.64-.09-.86-.16-1.71-.21-2.56,0-.57-.73-3.72-.05-4A2.24,2.24,0,0,1,18,37.5a1.42,1.42,0,0,0,.7-.2A2,2,0,0,1,17.28,36.9Z"/><path class="cls-11" d="M17.62,26.67a.72.72,0,0,0-.22-.26h0a.37.37,0,0,0-.14-.07,2.75,2.75,0,0,0-2.16.44h0l-.24.14,0,0-.2.15-.06,0-.15.13a.27.27,0,0,1-.08.07l-.15.16-.06.06-.1.14-.07.09a.75.75,0,0,0-.07.12l-.07.12a1.18,1.18,0,0,0-.07.2l0,0a1.09,1.09,0,0,0,0,.25,1,1,0,0,0,0,.25,5.93,5.93,0,0,0,.43,1.94,28.11,28.11,0,0,1,1.29,5.21l.12.94c0,.1,0,.2,0,.3s.05.43.08.64l0,.31c0,.24.06.47.08.7l0,.3h0c0,.21.5,2.6.52,2.81a6.87,6.87,0,0,0,.35,1.49h0l.18.49h0l.06.17h0q.06.18.12.33v0l.06.16v0l.08.19,0,0h0l.08,0h0a4.41,4.41,0,0,0,.62,0,2.36,2.36,0,0,0,.7-.09c.58-.19,1.21-.51,1.25-1.2a3.24,3.24,0,0,0-.15-.86,41.85,41.85,0,0,1-.64-4.31c0-.81.1-1.61.05-2.42-.12-1.78-.49-4.38-.71-6.15,0-.13,0-.26-.05-.4s-.07-.49-.12-.75A6.7,6.7,0,0,0,17.62,26.67Z"/></g><g class="cls-13"><path class="cls-14" d="M2.94,10.55A20,20,0,0,1,3.61,7c.19-.83.4-1.65.62-2.47.06-.23.13-.42.17-.65l.06-.26a4.84,4.84,0,0,1,.14-.51,7.21,7.21,0,0,1,.6-1.43A2.64,2.64,0,0,1,6,.64a2.64,2.64,0,0,1,.37-.2A1.77,1.77,0,0,1,6.77.29c.12,0,.25,0,.37,0a1.42,1.42,0,0,1,.46,0,.35.35,0,0,1,.27.32.11.11,0,0,1,0,.09.2.2,0,0,1-.14.06l-.34.1a.48.48,0,0,0-.19.09A.64.64,0,0,0,7,1.12a2.1,2.1,0,0,0-.23.65c0,.1,0,.41.14.34S7.06,2,7.11,2a.54.54,0,0,1,.12-.09.6.6,0,0,1,.19-.06.26.26,0,0,1,.29.07c0,.15,0,.24-.15.33l-.17.12a1.54,1.54,0,0,0-.34.38,1.69,1.69,0,0,1-.41.34c-.15.09-.29.2-.44.3a.76.76,0,0,0-.37.47,1.33,1.33,0,0,0,0,.4c0,.08,0,.16,0,.25,0,.6-.07,1.2-.12,1.81-.08,1-.17,1.92-.28,2.88,0,.3-.09.59-.12.89a2.11,2.11,0,0,0,0,.62c.09.62.06,1.25.18,1.87a1.36,1.36,0,0,1,0,.49c-.06.35-.62.5-.91.63a4.88,4.88,0,0,1-.64.23c-.08,0-.51.19-.57.14a1.12,1.12,0,0,1-.32-.63A9.06,9.06,0,0,1,3,11.48c0-.31,0-.62,0-.93"/><path class="cls-15" d="M3,11.48a9.06,9.06,0,0,0,.14,1.94,1.12,1.12,0,0,0,.32.63s.28,0,.44-.09a1.2,1.2,0,0,1-.27-.58,9.06,9.06,0,0,1-.14-1.94c0-.31,0-.62,0-.93A20,20,0,0,1,4.1,7c.19-.83.4-1.65.61-2.48a6.16,6.16,0,0,0,.18-.65L5,3.62c0-.17.08-.34.13-.51a7.24,7.24,0,0,1,.61-1.43A2.71,2.71,0,0,1,6.5.6,2.75,2.75,0,0,1,6.88.4,1.35,1.35,0,0,1,7.23.26H7.14c-.12,0-.25,0-.37,0a1.77,1.77,0,0,0-.38.15A2.64,2.64,0,0,0,6,.64,2.64,2.64,0,0,0,5.2,1.72a7.21,7.21,0,0,0-.6,1.43,4.84,4.84,0,0,0-.14.51l-.06.26c0,.23-.11.42-.17.65C4,5.39,3.8,6.21,3.61,7a20,20,0,0,0-.67,3.51c0,.31,0,.62,0,.93"/><path class="cls-16" d="M5.78,13.13a2.18,2.18,0,0,0,0-.25.49.49,0,0,0,0-.12c-.06-.87-.32-1.7-.39-2.57A7.94,7.94,0,0,1,5.56,8s0-.06,0-.09l0-.15c0-.27.12-.53.15-.8a1.72,1.72,0,0,0,0-.39c0-.42-.35-.37-.68-.39H5a3.12,3.12,0,0,0-.75.06,1.53,1.53,0,0,0-1,.63,1.3,1.3,0,0,0-.14.42c-.11.51-.2,1-.28,1.55a11.11,11.11,0,0,0-.16,1.4c0,.49,0,1,0,1.46s0,1.07.06,1.61c0,.17,0,.34,0,.5a12.09,12.09,0,0,0,.4,2.24,5.8,5.8,0,0,0,.42,1.07c.15.28.25.61.61.67h.34a1.24,1.24,0,0,0,.76-.54,3.37,3.37,0,0,0,.54-1.45v0s0-.08,0-.12v-.12c.06-.8,0-1.62,0-2.43"/><path class="cls-17" d="M5.71,7.58a1.61,1.61,0,0,0,0-.65c-.07-.28-.37-.48-.59-.63L5,6.2a3.12,3.12,0,0,0-.75.06,1.53,1.53,0,0,0-1,.63,1.3,1.3,0,0,0-.14.42c-.11.51-.2,1-.28,1.55a11.11,11.11,0,0,0-.16,1.4c0,.49,0,1,0,1.46s0,1.07.06,1.61c0,.17,0,.34,0,.5a12.09,12.09,0,0,0,.4,2.24,5.8,5.8,0,0,0,.42,1.07c.15.28.25.61.61.67h.31a1.25,1.25,0,0,1-.31-.49,13.59,13.59,0,0,1-.85-3.72.58.58,0,0,1,.1-.45A.67.67,0,0,1,3.76,13L4.18,13l-.62-.26a.18.18,0,0,0,0-.25c0-.08-.14-.13-.2-.2A.22.22,0,0,1,3.33,12c.09-.16.36,0,.51-.12a1.31,1.31,0,0,0-.39-.3,1.14,1.14,0,0,1-.32-.92c.08-.36.57-.28.89-.31l-.57-.49c-.28-.28-.18-.5-.15-.86s0-.65.43-.6A.64.64,0,0,1,4.2,7.3,1.2,1.2,0,0,1,5,7.7c.14.13.26.29.41.41a.05.05,0,0,0,0,0s0,0,0-.06a2.94,2.94,0,0,0,.16-.5"/><path class="cls-17" d="M5.78,13.13a2.18,2.18,0,0,0,0-.25.49.49,0,0,0,0-.12c-.06-.87-.32-1.7-.39-2.57A7.94,7.94,0,0,1,5.56,8a4.36,4.36,0,0,0-.19.87,5,5,0,0,1-.12.86A.4.4,0,0,1,5.1,10a1.23,1.23,0,0,1-.38.08,1,1,0,0,1-.4.06,1.15,1.15,0,0,1,.66.28c.09.08.34.31.18.43a.43.43,0,0,1-.25.07H4.73a1.51,1.51,0,0,1,.76.88,1.48,1.48,0,0,1,.11.66c0,.2-.22.3-.4.37a.93.93,0,0,0-.47.27,1.67,1.67,0,0,1,.86,0l-.21.39s0,0,0,0,.21,0,.22.11c-.3.23-.76.07-1.08.27a1.29,1.29,0,0,1,.73,0,1.2,1.2,0,0,1,.49.86,3.86,3.86,0,0,1,.1.75c.06-.8,0-1.62,0-2.43"/><path class="cls-18" d="M5.65,8a1.13,1.13,0,0,1-.1.13,1.39,1.39,0,0,0-.39-.66,1.53,1.53,0,0,0-.63-.33,1.35,1.35,0,0,0-1,.11,1.2,1.2,0,0,0-.49.43A1,1,0,0,0,3,8a1.52,1.52,0,0,1-.17-.76,2.22,2.22,0,0,1,.13-.81.78.78,0,0,1,.16-.28.86.86,0,0,1,.49-.27,3.76,3.76,0,0,1,2,.24l.13.07a.68.68,0,0,1,.17.51,4.84,4.84,0,0,1,0,.76A1.58,1.58,0,0,1,5.65,8"/></g><g class="cls-19"><path class="cls-14" d="M2.8,10.26a6.19,6.19,0,0,1-.5-1.64C2.22,7.82,2.16,7,2.13,6.8S2.06,5.7,2,4.88c0-.32,0-.63-.07-.88a4.1,4.1,0,0,0-.09-.61.42.42,0,0,0,0-.06c-.14-.36-.4-.49-.62-.7a2.94,2.94,0,0,1-.48-.85C.62,1.56.22.92.22.92L.14.69,0,.56V.36l.18,0L.16.2.53,0a4.55,4.55,0,0,1,.76.09,7.31,7.31,0,0,1,1,1c0,.07.31,1.21.4,1.61,0,.1.13.4.27.8C3.32,4.53,4,6.35,4.32,7.12a7.51,7.51,0,0,1,.44,1.67c.09.51.13,1,.16,1.23a12.86,12.86,0,0,0,.63,2s-1.11,1.07-1.5.94S3,10.74,2.8,10.26"/><path class="cls-16" d="M6.8,12.26,6.69,12l-.06-.12c-.41-.79-1-1.47-1.41-2.26a8.7,8.7,0,0,1-.69-2.13s0-.06,0-.09a.83.83,0,0,1,0-.15c-.06-.28-.1-.55-.17-.82a2.4,2.4,0,0,0-.12-.38c-.19-.4-.49-.22-.8-.1L3.26,6a3,3,0,0,0-.69.35,1.56,1.56,0,0,0-.69,1,1.38,1.38,0,0,0,0,.45c.1.52.22,1.05.36,1.57a9.27,9.27,0,0,0,.41,1.39c.19.47.38.93.58,1.38s.44,1,.69,1.49l.25.47a12.3,12.3,0,0,0,1.27,2,6.06,6.06,0,0,0,.84.84c.25.2.47.47.84.39l.08,0,.22-.1s0,0,0,0a1.3,1.3,0,0,0,.5-.82,3.56,3.56,0,0,0-.07-1.59h0a.56.56,0,0,0,0-.12.49.49,0,0,0,0-.11c-.26-.79-.69-1.52-1-2.28"/><path class="cls-17" d="M4.5,7.05a1.59,1.59,0,0,0-.24-.63,1.23,1.23,0,0,0-.8-.35l-.2,0a3,3,0,0,0-.69.35,1.56,1.56,0,0,0-.69,1,1.38,1.38,0,0,0,0,.45c.1.52.22,1.05.36,1.57a9.27,9.27,0,0,0,.41,1.39c.19.47.38.93.58,1.38s.44,1,.69,1.49l.25.47a12.3,12.3,0,0,0,1.27,2,6.06,6.06,0,0,0,.84.84c.25.2.47.47.84.39l.08,0,.22-.1A1.12,1.12,0,0,1,7,16.87a13.52,13.52,0,0,1-2.3-3.17.55.55,0,0,1-.09-.46A.62.62,0,0,1,4.85,13l.37-.23H4.53a.19.19,0,0,0-.07-.24,1.28,1.28,0,0,0-.27-.11A.23.23,0,0,1,4,12.19c0-.19.33-.17.44-.33A1.85,1.85,0,0,0,4,11.74,1.12,1.12,0,0,1,3.31,11c-.08-.37.42-.49.71-.65l-.73-.23c-.38-.15-.37-.4-.49-.75s-.23-.63.16-.75A.65.65,0,0,1,3,7.39a1.28,1.28,0,0,1,1,0,5.22,5.22,0,0,0,.54.24h.06a.08.08,0,0,0,0-.08,3.49,3.49,0,0,0,0-.53"/><path class="cls-17" d="M6.8,12.26,6.69,12l-.06-.12c-.41-.79-1-1.47-1.41-2.26a8.7,8.7,0,0,1-.69-2.13,4.49,4.49,0,0,0,.18.9,6.42,6.42,0,0,1,.23.86.49.49,0,0,1-.06.27c-.07.11-.22.15-.32.23a1,1,0,0,1-.35.21,1.21,1.21,0,0,1,.73,0c.11,0,.44.16.34.34a.4.4,0,0,1-.2.16l-.17.08A1.49,1.49,0,0,1,6,11.1a1.4,1.4,0,0,1,.38.58.55.55,0,0,1-.23.5.9.9,0,0,0-.33.45,1.66,1.66,0,0,1,.81-.33c0,.15,0,.3,0,.45a.07.07,0,0,0,0,.05c0,.08.21-.07.25,0-.19.34-.69.37-.91.69a1.31,1.31,0,0,1,.7-.26,1.22,1.22,0,0,1,.81.62,3.49,3.49,0,0,1,.4.67c-.26-.79-.69-1.52-1-2.28"/><path class="cls-18" d="M4.62,7.49a1,1,0,0,1,0,.17A1.46,1.46,0,0,0,4,7.19a1.51,1.51,0,0,0-.73-.05,1.31,1.31,0,0,0-.86.48,1.23,1.23,0,0,0-.28.6,1.22,1.22,0,0,0,0,.33,1.46,1.46,0,0,1-.46-.65,2.06,2.06,0,0,1-.2-.81.73.73,0,0,1,0-.33,1,1,0,0,1,.36-.46,3.94,3.94,0,0,1,2-.58H4a.71.71,0,0,1,.36.42,4,4,0,0,1,.27.73,1.4,1.4,0,0,1,0,.61"/></g><g class="cls-20"><path class="cls-14" d="M19.29,14.59a18.81,18.81,0,0,0,.77-3.48c.15-.84.28-1.68.41-2.52,0-.23,0-.44.09-.67,0-.08,0-.17.05-.25s.06-.35.08-.53a7.3,7.3,0,0,0,0-1.55,2.58,2.58,0,0,0-.33-1.31,2,2,0,0,0-.26-.34,1.28,1.28,0,0,0-.29-.28,3.41,3.41,0,0,0-.33-.17,1.38,1.38,0,0,0-.42-.17.33.33,0,0,0-.38.18.17.17,0,0,0,0,.1.27.27,0,0,0,.1.11l.28.22a.52.52,0,0,1,.14.16.57.57,0,0,1,0,.22,1.78,1.78,0,0,1,0,.69c0,.1-.11.4-.26.26s-.07-.13-.11-.19a.83.83,0,0,0-.07-.13.93.93,0,0,0-.15-.13.35.35,0,0,0-.15-.07.17.17,0,0,0-.15,0c-.1.12-.06.23,0,.35l.11.18a1.41,1.41,0,0,1,.16.49,1.77,1.77,0,0,0,.25.47c.1.15.19.3.28.45a.71.71,0,0,1,.16.58,1.94,1.94,0,0,1-.12.39l-.09.22c-.2.58-.41,1.14-.6,1.71-.3.92-.6,1.84-.88,2.76-.09.29-.15.59-.24.87a2.06,2.06,0,0,1-.29.55c-.33.54-.55,1.13-.9,1.65a1.13,1.13,0,0,0-.23.43c-.08.35.38.71.59,1a5.45,5.45,0,0,0,.5.46c.06,0,.39.37.47.35a1.13,1.13,0,0,0,.53-.46,9.16,9.16,0,0,0,.9-1.73c.12-.28.25-.56.37-.85"/><path class="cls-15" d="M18.92,15.44a9.16,9.16,0,0,1-.9,1.73,1.07,1.07,0,0,1-.53.46c-.06,0-.25-.15-.37-.26a1.2,1.2,0,0,0,.47-.43,8.57,8.57,0,0,0,.89-1.73c.13-.28.26-.56.38-.85a18.79,18.79,0,0,0,.76-3.48c.16-.84.29-1.68.42-2.52,0-.23,0-.44.09-.67s0-.17.05-.25.05-.35.07-.53a7.31,7.31,0,0,0,0-1.55,2.58,2.58,0,0,0-.33-1.31c-.08-.12-.17-.23-.26-.34a1.66,1.66,0,0,0-.27-.26l.08,0a3.41,3.41,0,0,1,.33.17,1.28,1.28,0,0,1,.29.28,2.88,2.88,0,0,1,.27.34,2.67,2.67,0,0,1,.32,1.31,7.3,7.3,0,0,1,0,1.55c0,.18-.05.35-.08.53s0,.17-.05.25c0,.23-.06.44-.09.67-.13.84-.26,1.68-.41,2.52a18.81,18.81,0,0,1-.77,3.48c-.12.29-.24.57-.37.85"/><path class="cls-16" d="M15.67,15.85c0-.08.07-.15.1-.22l.06-.12c.4-.77,1-1.43,1.38-2.2a8.22,8.22,0,0,0,.67-2.07s0-.06,0-.09l0-.15c.06-.27.1-.54.17-.79a2.4,2.4,0,0,1,.12-.38c.18-.38.47-.21.78-.09l.12,0a3,3,0,0,1,.67.35,1.49,1.49,0,0,1,.68,1,1.32,1.32,0,0,1,0,.44c-.1.51-.22,1-.35,1.53a13.2,13.2,0,0,1-.4,1.36l-.57,1.34c-.22.49-.44,1-.69,1.45-.07.16-.15.3-.23.45a12,12,0,0,1-1.25,1.9,5.71,5.71,0,0,1-.81.82c-.25.19-.47.46-.82.38l-.08,0a1,1,0,0,1-.21-.1l0,0a1.2,1.2,0,0,1-.48-.8,3.34,3.34,0,0,1,.07-1.54v0l0-.11a.37.37,0,0,1,.05-.11,23.19,23.19,0,0,1,1-2.22"/><path class="cls-17" d="M17.92,10.78a1.54,1.54,0,0,1,.23-.62,1.24,1.24,0,0,1,.78-.34l.19,0a3,3,0,0,1,.67.35,1.49,1.49,0,0,1,.68,1,1.32,1.32,0,0,1,0,.44c-.1.51-.22,1-.35,1.53a13.2,13.2,0,0,1-.4,1.36l-.57,1.34c-.22.49-.44,1-.68,1.45-.08.16-.16.3-.24.45a12,12,0,0,1-1.25,1.9,5.71,5.71,0,0,1-.81.82c-.25.19-.47.46-.82.38l-.08,0a1,1,0,0,1-.21-.1,1.23,1.23,0,0,0,.47-.32,13.22,13.22,0,0,0,2.25-3.1.54.54,0,0,0,.08-.44.51.51,0,0,0-.25-.25l-.37-.22h.68c-.06-.07,0-.18.07-.23a1,1,0,0,1,.26-.11.21.21,0,0,0,.15-.2c0-.19-.32-.17-.42-.32a1.48,1.48,0,0,1,.47-.12,1.08,1.08,0,0,0,.66-.72c.07-.36-.41-.48-.7-.63l.72-.23c.37-.15.36-.39.48-.73s.22-.61-.16-.73a.64.64,0,0,0,0-1.2,1.23,1.23,0,0,0-.94,0,3.54,3.54,0,0,1-.53.23.06.06,0,0,1-.06,0,.11.11,0,0,1,0-.07,3.32,3.32,0,0,1,.06-.52"/><path class="cls-17" d="M15.67,15.85c0-.08.07-.15.1-.22l.06-.12c.4-.77,1-1.43,1.38-2.2a8.22,8.22,0,0,0,.67-2.07,3.72,3.72,0,0,1-.17.87,6.14,6.14,0,0,0-.23.84.51.51,0,0,0,.06.27c.07.1.22.14.31.22a1.48,1.48,0,0,0,.34.21,1.08,1.08,0,0,0-.71,0c-.11,0-.43.15-.34.32a.47.47,0,0,0,.21.16l.16.08a1.48,1.48,0,0,0-1,.51,1.36,1.36,0,0,0-.36.57c-.05.2.08.35.22.49a.83.83,0,0,1,.32.44,1.54,1.54,0,0,0-.79-.33l0,.44s0,0,0,0-.2-.06-.24,0c.18.33.67.36.88.68a1.19,1.19,0,0,0-.68-.25,1.21,1.21,0,0,0-.8.59,3.33,3.33,0,0,0-.38.66,23.19,23.19,0,0,1,1-2.22"/><path class="cls-18" d="M17.8,11.21a.94.94,0,0,0,0,.16,1.46,1.46,0,0,1,.61-.46,1.59,1.59,0,0,1,.72-.05,1.39,1.39,0,0,1,.83.48,1.29,1.29,0,0,1,.27.58,1.22,1.22,0,0,1,0,.33,1.49,1.49,0,0,0,.45-.63,2.05,2.05,0,0,0,.2-.8.85.85,0,0,0,0-.32,1,1,0,0,0-.35-.44,3.74,3.74,0,0,0-1.95-.58.39.39,0,0,0-.15,0c-.17,0-.29.25-.35.4a3.67,3.67,0,0,0-.27.72,1.46,1.46,0,0,0,0,.59"/></g><path class="cls-16" d="M5.8,20l.29.22a6.21,6.21,0,0,0,1.21.67,6.94,6.94,0,0,0,2.19.52,5.24,5.24,0,0,0,1.12,0,5.84,5.84,0,0,0,4.2-2.07c0-1.16,0-2,0-2.31a2.17,2.17,0,0,0-.1-.62c-.18-.53-.88-1-1.36-1.29l0,0A13.78,13.78,0,0,0,12,14.4c-.42-.19-.86-.36-1.29-.53a4.8,4.8,0,0,0-1.07-.31,4.52,4.52,0,0,0-2.37.22l-.38.12c-1.3.41-1.45,1.86-1.38,3C5.57,17.68,5.67,18.75,5.8,20Z"/><path class="cls-17" d="M10.61,21.36a5.84,5.84,0,0,0,4.2-2.07c0-1.16,0-2,0-2.31a2.17,2.17,0,0,0-.1-.62,2.51,2.51,0,0,0-1-1,1.47,1.47,0,0,1-.79.56,2.57,2.57,0,0,1,.3,1.92,1.47,1.47,0,0,1-.33.91c-.24.23-.72.21-.82-.1A1.56,1.56,0,0,1,11.2,20a2.54,2.54,0,0,1-1.72.19,1.8,1.8,0,0,1-1.32-.91,5.92,5.92,0,0,1-1.19,0,.6.6,0,0,1-.32-.1.58.58,0,0,1-.12-.5,4.05,4.05,0,0,1,.16-.77,1.67,1.67,0,0,1-1.13-.47c.06.69.14,1.54.24,2.48l.29.22a6.21,6.21,0,0,0,1.21.67,6.94,6.94,0,0,0,2.19.52A5.24,5.24,0,0,0,10.61,21.36Z"/><path class="cls-5" d="M13.33,20.49a1.32,1.32,0,0,1-2.05-1.19v0c0-.64.09-1.24.1-1.81,0-1.09.61-1.79,2.09-2.3,0,0-.78-.46-1.21-.66,0,0-1.14,1.05-1.14,1.05-1.47.6-4.07-.49-2.59-1.28.06,0,1-.68,1.13-.72l-.09,0a4.6,4.6,0,0,0-2.37.25,3.35,3.35,0,0,0-1.47,3.1c0,.36.23,2,.38,3.24L5.8,20c.44,3.87,1.2,9.14,1.31,9.85s4.11,1.14,6.46,1.08a1.67,1.67,0,0,0,1.62-1.72c-.09-2.68-.34-7.38-.38-10.13a.12.12,0,0,0-.23-.05A3.47,3.47,0,0,1,13.33,20.49Z"/><path class="cls-4" d="M9.94,30a4.74,4.74,0,0,1-2-2.13,25.11,25.11,0,0,1-.67-2.72A6.79,6.79,0,0,1,6.66,23c0-.36.11-.71.15-1.06a8.06,8.06,0,0,0-.34-2.43c-.11-.53-.17-1.06-.23-1.59a3.94,3.94,0,0,1,0-1.64A3.65,3.65,0,0,1,7.17,15c.42-.44.87-.87,1.33-1.27a.52.52,0,0,0,.15-.18,5.49,5.49,0,0,0-1.45.29c-2,.56-1.82,1.81-1.72,2.82C5.51,17,5.8,20,5.8,20c.44,3.87,1.2,9.14,1.31,9.85.09.55,2.65.95,4.88,1.06A11.27,11.27,0,0,1,9.94,30Z"/><path class="cls-21" d="M11.69,14.33l-.4-4.17L8,10.48l.4,4.12a.34.34,0,0,0,0,.1v.07h0a.87.87,0,0,0,.52.51,2.58,2.58,0,0,0,2.35-.22.87.87,0,0,0,.41-.61h0v-.12Z"/><path class="cls-21" d="M8.77,10.65a9.7,9.7,0,0,0,.3,1.4,2.82,2.82,0,0,0,.74,1.2,2.1,2.1,0,0,0,1.48.52,1.62,1.62,0,0,0,.49-.08,1.2,1.2,0,0,0,.45-.23,1.27,1.27,0,0,0,.35-.68h0a.85.85,0,0,0,0-.17,11.8,11.8,0,0,0,0-4A2.74,2.74,0,0,0,12.44,8,1.62,1.62,0,0,0,11,7.13a3.16,3.16,0,0,0-1.67.52,1.58,1.58,0,0,0-.39.29c-.1.12-.16.26-.25.39A8.7,8.7,0,0,0,8.77,10.65Z"/><path class="cls-21" d="M12.25,13.77v0Z"/><path class="cls-22" d="M11.08,12.66a4.93,4.93,0,0,0,.1.86c.08.31.44.22.6.17a1.2,1.2,0,0,0,.45-.23,1.27,1.27,0,0,0,.35-.68h0c-.5.59-.89.17-1.17-1.33C11.39,12.16,11,12,11.08,12.66Z"/><path class="cls-23" d="M7.32,11.47c.07.23.15.46.25.71a12,12,0,0,0,.69,1.5l0,0a.64.64,0,0,0,.39.29,2.72,2.72,0,0,0,1,.06,2.29,2.29,0,0,0,1.13-.33l.12-.11a.91.91,0,0,0,.2-.24,2.13,2.13,0,0,0,.3-1.17,1.21,1.21,0,0,0,0-.18c0-.16,0-.32,0-.49a8.78,8.78,0,0,1-.09-1v-.08a1.69,1.69,0,0,1,0-.23,1.6,1.6,0,0,1,.61-1.14c.16-.11.55-.24.65-.46.66-1.38-1.46-2.22-3.11-1.92C9.08,6.77,6.07,7.39,7.32,11.47Z"/><path class="cls-21" d="M11.15,10.17a.44.44,0,0,1,.4.3,1.63,1.63,0,0,1,.12.62,1.63,1.63,0,0,1-.07.79.31.31,0,0,1-.14.16.3.3,0,0,1-.32-.07.62.62,0,0,1-.15-.29,4.06,4.06,0,0,1-.17-.91.77.77,0,0,1,0-.37A.36.36,0,0,1,11.15,10.17Z"/><path class="cls-24" d="M7.32,11.47c.07.23.15.46.25.71a2.8,2.8,0,0,0,.57.08,2.23,2.23,0,0,0,.45,0,3.4,3.4,0,0,0,.46-.09l0,0a2.83,2.83,0,0,0,1.73-1.62,1,1,0,0,0,.05-.16v0l-.33-.1-.23-.07a.36.36,0,0,1,0,.09,2.21,2.21,0,0,1-1.35,1.32H8.88a2.14,2.14,0,0,1-.79.09A2.25,2.25,0,0,1,7.32,11.47Z"/><path class="cls-25" d="M6.55,9.59a2.59,2.59,0,0,1,.14-.29,4.7,4.7,0,0,1,1-1.07,5.89,5.89,0,0,1,1.18-.78,6.8,6.8,0,0,1,2.86-.76,4.43,4.43,0,0,1,.52,0,3.22,3.22,0,0,1,.62.11,1.78,1.78,0,0,1,1.45,1.59,1.59,1.59,0,0,1-.15.71,2.33,2.33,0,0,1-.91,1,2.52,2.52,0,0,1-1,.41.53.53,0,0,0-.18,0c-.39.21-.69.54-1.11.72a7.35,7.35,0,0,1-1.32.36,3.92,3.92,0,0,1-2-.18,1.83,1.83,0,0,1-.55-.3,1.52,1.52,0,0,1-.55-1.54"/><path class="cls-26" d="M7.08,11a1.83,1.83,0,0,0,.55.3,3.92,3.92,0,0,0,2,.18,7.35,7.35,0,0,0,1.32-.36c.42-.18.71-.51,1.11-.72a.53.53,0,0,1,.18,0,2.43,2.43,0,0,0,1-.41,2,2,0,0,0,.44-.32A2.19,2.19,0,0,0,14.17,9a1.59,1.59,0,0,0,.15-.71V8.19a1.8,1.8,0,0,1,0,.22,1.59,1.59,0,0,1-.15.71,2.33,2.33,0,0,1-.91,1,2.52,2.52,0,0,1-1,.41.53.53,0,0,0-.18,0c-.39.21-.69.54-1.11.72a7.35,7.35,0,0,1-1.32.36,3.92,3.92,0,0,1-2-.18,1.83,1.83,0,0,1-.55-.3A1.79,1.79,0,0,1,6.49,10a1.86,1.86,0,0,0,.59,1"/><path class="cls-27" d="M7.69,8.21c-1.31,1-1.4,2.21-.19,2.72a5.18,5.18,0,0,0,4.57-.86c1.32-1,1.41-2.21.2-2.72A5.2,5.2,0,0,0,7.69,8.21Z"/><path class="cls-28" d="M9.35,10.85a5.6,5.6,0,0,0,2.56-1,1.9,1.9,0,0,0,.93-1.5,1,1,0,0,0-.68-.75,3.54,3.54,0,0,0-1.74-.17,5.52,5.52,0,0,0-2.56,1,1.84,1.84,0,0,0-.93,1.5,1,1,0,0,0,.68.75A3.54,3.54,0,0,0,9.35,10.85Z"/><path class="cls-28" d="M6.92,9.83c.09.35,2,1.05,2,1.07s3.91-2.38,3.91-2.55a3.48,3.48,0,0,0-.17-.77C11.32,4.14,6.06,6.26,6.92,9.83Z"/><path class="cls-27" d="M9.79,10.85a.81.81,0,0,1-.59.1l-.09-.67a.12.12,0,0,1,.1-.15l.37-.07.08,0a.18.18,0,0,1,0,.09Z"/><path class="cls-27" d="M12.54,9.3a.72.72,0,0,1-.4.32L12.06,9a.19.19,0,0,1,.06-.19l.25-.21s0,0,.05,0,0,0,0,.07Z"/><path class="cls-29" d="M11.32,8.4c0,.12.06.21.1.21s.06-.11,0-.22-.05-.21-.09-.2S11.31,8.29,11.32,8.4Z"/><path class="cls-29" d="M11,8.72c0,.11.06.2.1.2s.06-.1.05-.22-.06-.21-.1-.2S11,8.6,11,8.72Z"/><path class="cls-29" d="M10.64,9c0,.12.06.21.1.2s.06-.1,0-.22-.06-.21-.1-.2S10.63,8.91,10.64,9Z"/><path class="cls-25" d="M8.31,8a3.43,3.43,0,0,1,3.07-1.87,2.1,2.1,0,0,0-.64-.22A2.61,2.61,0,0,0,8.31,8Z"/><path class="cls-22" d="M7.34,7.74A5.56,5.56,0,0,1,9.09,5.92L9,5.94A3.81,3.81,0,0,0,8,6.54H8A3.37,3.37,0,0,0,7.34,7.74Z"/><path class="cls-25" d="M9.61,8.45a3.27,3.27,0,0,1,2.65-1.61A1,1,0,0,0,12,6.57,2.66,2.66,0,0,0,9.61,8.45Z"/><path class="cls-30" d="M6.19,23.12a13.28,13.28,0,0,0,8.76.22L15,24.46a12.82,12.82,0,0,1-8.67-.13Z"/><path class="cls-30" d="M6.72,27.11a12.83,12.83,0,0,0,8.4.12c0-.36,0-.74,0-1.13a13.53,13.53,0,0,1-8.51-.19C6.61,26.33,6.67,26.73,6.72,27.11Z"/><g class="cls-31"><path class="cls-14" d="M18.48,15.35a18.83,18.83,0,0,0,2.33-2.7c.54-.66,1.05-1.34,1.56-2,.14-.19.25-.36.4-.54s.11-.14.17-.2.21-.28.31-.43A7.22,7.22,0,0,0,24,8.1a2.63,2.63,0,0,0,.33-1.31,3.07,3.07,0,0,0-.07-.42A1.38,1.38,0,0,0,24.13,6a2,2,0,0,0-.2-.3,1.7,1.7,0,0,0-.29-.36.35.35,0,0,0-.42,0,.41.41,0,0,0,0,.09.28.28,0,0,0,0,.15c.05.11.1.22.14.33a.45.45,0,0,1,0,.2.55.55,0,0,1-.06.22,2.22,2.22,0,0,1-.36.59c-.08.07-.29.29-.36.1a.54.54,0,0,1,0-.22.76.76,0,0,0,0-.15.67.67,0,0,0-.07-.18.34.34,0,0,0-.09-.14s-.1-.06-.15,0-.16.18-.16.31a1.48,1.48,0,0,0,0,.21,1.2,1.2,0,0,1-.09.5,1.63,1.63,0,0,0,0,.54l0,.53a.74.74,0,0,1-.13.58,2.65,2.65,0,0,1-.29.29l-.19.15c-.45.41-.91.81-1.35,1.22-.7.66-1.39,1.33-2.08,2-.22.21-.41.44-.62.65a2.26,2.26,0,0,1-.52.35c-.55.31-1,.73-1.58,1a1.27,1.27,0,0,0-.41.27c-.23.27,0,.8.08,1.11a3.43,3.43,0,0,0,.21.64c0,.08.17.52.25.54a1.13,1.13,0,0,0,.69-.15,8.82,8.82,0,0,0,1.61-1.1c.24-.18.49-.37.73-.57"/><path class="cls-15" d="M17.75,15.92A8.82,8.82,0,0,1,16.14,17a1.13,1.13,0,0,1-.69.15c-.06,0-.15-.25-.2-.41a1.26,1.26,0,0,0,.62-.15,8.85,8.85,0,0,0,1.6-1.09c.25-.19.5-.37.74-.57a19.47,19.47,0,0,0,2.33-2.71c.54-.66,1.05-1.34,1.56-2,.14-.18.24-.36.4-.54l.16-.2c.11-.14.22-.28.32-.43a6.92,6.92,0,0,0,.75-1.36,2.63,2.63,0,0,0,.33-1.31A2.7,2.7,0,0,0,24,6a2.26,2.26,0,0,0-.11-.37.35.35,0,0,0,.05.08,2,2,0,0,1,.2.3,1.38,1.38,0,0,1,.13.39,3.07,3.07,0,0,1,.07.42A2.63,2.63,0,0,1,24,8.1a7.22,7.22,0,0,1-.75,1.36c-.1.15-.2.29-.31.43s-.11.13-.17.2-.26.35-.4.54c-.51.68-1,1.36-1.56,2a18.83,18.83,0,0,1-2.33,2.7c-.24.2-.49.39-.73.57"/><path class="cls-16" d="M14.69,14.74l.2-.15.11-.07c.72-.5,1.53-.8,2.26-1.29a8.3,8.3,0,0,0,1.58-1.5l.05-.07.1-.12c.18-.2.35-.42.53-.61a1.86,1.86,0,0,1,.29-.27c.34-.26.51,0,.72.29l.09.1a3.22,3.22,0,0,1,.42.62,1.55,1.55,0,0,1,.13,1.19,1.81,1.81,0,0,1-.24.37c-.34.4-.68.79-1,1.17a11.93,11.93,0,0,1-1,1l-1.14.91c-.42.33-.85.65-1.29.95l-.43.29a12,12,0,0,1-2,1.07,5.17,5.17,0,0,1-1.1.33c-.31.06-.63.19-.9-.05L12,18.85a1.1,1.1,0,0,1-.14-.18l0,0a1.29,1.29,0,0,1,0-.93,3.41,3.41,0,0,1,.8-1.33h0l.09-.08.09-.08c.59-.55,1.3-1,1.93-1.47"/><path class="cls-17" d="M19.08,11.34a1.5,1.5,0,0,1,.5-.42,1.19,1.19,0,0,1,.85.07l.19.06a3.22,3.22,0,0,1,.42.62,1.55,1.55,0,0,1,.13,1.19,1.51,1.51,0,0,1-.25.37c-.33.4-.67.79-1,1.17a11.93,11.93,0,0,1-1,1l-1.14.91c-.42.33-.85.65-1.29.95l-.43.29a12,12,0,0,1-2,1.07,5.17,5.17,0,0,1-1.1.33c-.31.06-.63.19-.9-.05L12,18.85a1.1,1.1,0,0,1-.14-.18,1.24,1.24,0,0,0,.57-.06A13.36,13.36,0,0,0,15.85,17a.57.57,0,0,0,.29-.36.62.62,0,0,0-.11-.34l-.22-.37.6.32a.17.17,0,0,1,.17-.17,1.33,1.33,0,0,1,.28,0,.21.21,0,0,0,.23-.11c.08-.17-.2-.3-.22-.48a1.41,1.41,0,0,1,.48.12,1.1,1.1,0,0,0,.92-.32c.23-.28-.14-.62-.31-.89l.74.14c.39.05.5-.17.76-.41s.49-.43.21-.72a.63.63,0,0,0,.57-1.05,1.22,1.22,0,0,0-.83-.42,5.67,5.67,0,0,1-.58,0,.05.05,0,0,1,0,0,.12.12,0,0,1,0-.08c.08-.13.18-.28.29-.43"/><path class="cls-17" d="M14.69,14.74l.2-.15.11-.07c.72-.5,1.53-.8,2.26-1.29a8.3,8.3,0,0,0,1.58-1.5,4.18,4.18,0,0,1-.57.69,5.09,5.09,0,0,0-.6.63.42.42,0,0,0-.08.26,1.54,1.54,0,0,0,.17.34A1.13,1.13,0,0,0,18,14a1.22,1.22,0,0,0-.63-.34c-.12,0-.46-.07-.45.13A.43.43,0,0,0,17,14l.11.15a1.55,1.55,0,0,0-1.16-.05,1.33,1.33,0,0,0-.59.33.5.5,0,0,0,0,.53.86.86,0,0,1,.07.54,1.62,1.62,0,0,0-.53-.66,3,3,0,0,0-.18.41l0,0c-.07.06-.15-.15-.22-.1,0,.38.42.64.45,1a1.18,1.18,0,0,0-.48-.55,1.2,1.2,0,0,0-1,.15,3,3,0,0,0-.65.39c.59-.55,1.3-1,1.93-1.47"/><path class="cls-18" d="M18.78,11.66a1.42,1.42,0,0,0-.05.16,1.36,1.36,0,0,1,1.41.19,1.3,1.3,0,0,1,.51.82,1.27,1.27,0,0,1,0,.64,1,1,0,0,1-.15.29,1.5,1.5,0,0,0,.7-.35,2.25,2.25,0,0,0,.55-.6.79.79,0,0,0,.12-.3.88.88,0,0,0-.1-.55,3.76,3.76,0,0,0-1.44-1.44l-.13,0a.7.7,0,0,0-.51.18,4.61,4.61,0,0,0-.57.51,1.52,1.52,0,0,0-.3.5"/></g></g></g></svg>