<svg xmlns="http://www.w3.org/2000/svg" xmlns:xlink="http://www.w3.org/1999/xlink" viewBox="0 0 156.27 128.77"><defs><style>.cls-1{isolation:isolate;}.cls-2{fill:#2f3032;opacity:0.5;}.cls-3{fill:#000009;}.cls-4{fill:#0c0c0e;}.cls-5{fill:#434345;}.cls-6{fill:#2f2f31;}.cls-7{fill:#1c1c1e;}.cls-8{fill:#d3d4d3;}.cls-9{fill:#abacac;}.cls-10{fill:#7e807f;}.cls-11{fill:#656566;}.cls-12{fill:#59595b;}.cls-13,.cls-14,.cls-19,.cls-25,.cls-40{mix-blend-mode:screen;}.cls-13{fill:url(#Áåçûìÿííûé_ãðàäèåíò_251);}.cls-14{fill:url(#Áåçûìÿííûé_ãðàäèåíò_251-2);}.cls-15{fill:#94c82f;}.cls-16{fill:#cec8b9;}.cls-17{fill:#fff;}.cls-18{fill:#999181;}.cls-19{fill:#616060;}.cls-20{fill:#686456;}.cls-21{fill:#39393b;}.cls-22{fill:#a6e839;}.cls-23{fill:#97c42e;}.cls-24{fill:#799f25;}.cls-25{fill:url(#Áåçûìÿííûé_ãðàäèåíò_38);}.cls-26,.cls-27,.cls-28,.cls-29{mix-blend-mode:multiply;}.cls-26{fill:url(#Áåçûìÿííûé_ãðàäèåíò_37);}.cls-27{fill:url(#Áåçûìÿííûé_ãðàäèåíò_37-2);}.cls-28{fill:url(#Áåçûìÿííûé_ãðàäèåíò_37-3);}.cls-30{fill:#93de34;}.cls-31{fill:#8e8e90;}.cls-32{fill:#d43f0f;}.cls-33{fill:#962809;}.cls-34{fill:#1d1d1f;}.cls-35{fill:#222224;}.cls-36{fill:#fbf6e4;}.cls-37{fill:#e59337;}.cls-38{fill:#141416;}.cls-39{fill:#746458;}.cls-40{fill:#323232;}.cls-41{fill:#9fd733;}.cls-42{fill:#7e7e80;}.cls-43{fill:#3a3a3c;}.cls-44{fill:#1a1a1b;}.cls-45{fill:#bbb980;}.cls-46{fill:#fbfbf8;}.cls-47{fill:#f4e8bd;}.cls-48{fill:#e8ca66;}.cls-49{fill:#85ac29;}.cls-50{fill:#a8ec38;}.cls-51{fill:#a1dc34;}.cls-52{fill:#608720;}.cls-53{fill:#89b82b;}.cls-54{fill:#5e5e5f;}</style><linearGradient id="Áåçûìÿííûé_ãðàäèåíò_251" x1="-8183.19" y1="71.58" x2="-8187.81" y2="84.91" gradientTransform="matrix(-1, 0, 0, 1, -8063.66, 0)" gradientUnits="userSpaceOnUse"><stop offset="0.12"/><stop offset="0.2" stop-color="#171a21"/><stop offset="0.34" stop-color="#373e4f"/><stop offset="0.47" stop-color="#525c76"/><stop offset="0.61" stop-color="#667494"/><stop offset="0.74" stop-color="#7585aa"/><stop offset="0.87" stop-color="#7e8fb7"/><stop offset="0.98" stop-color="#8192bb"/></linearGradient><linearGradient id="Áåçûìÿííûé_ãðàäèåíò_251-2" x1="-8116.06" y1="110.3" x2="-8120.68" y2="123.63" xlink:href="#Áåçûìÿííûé_ãðàäèåíò_251"/><linearGradient id="Áåçûìÿííûé_ãðàäèåíò_38" x1="-8134.52" y1="27.48" x2="-8164.66" y2="92.43" gradientTransform="matrix(-1, 0, 0, 1, -8063.66, 0)" gradientUnits="userSpaceOnUse"><stop offset="0.12" stop-color="#121f07"/><stop offset="0.43" stop-color="#3d5015"/><stop offset="0.8" stop-color="#6d8423"/><stop offset="0.98" stop-color="#7f9929"/></linearGradient><linearGradient id="Áåçûìÿííûé_ãðàäèåíò_37" x1="-8159.71" y1="98.87" x2="-8123.83" y2="19.92" gradientTransform="matrix(-1, 0, 0, 1, -8063.66, 0)" gradientUnits="userSpaceOnUse"><stop offset="0" stop-color="#afffb2"/><stop offset="0.98" stop-color="#6ba126"/></linearGradient><linearGradient id="Áåçûìÿííûé_ãðàäèåíò_37-2" x1="-8153.83" y1="98.94" x2="-8148.8" y2="90.12" xlink:href="#Áåçûìÿííûé_ãðàäèåíò_37"/><linearGradient id="Áåçûìÿííûé_ãðàäèåíò_37-3" x1="-8151.43" y1="97.52" x2="-8149.67" y2="94.44" xlink:href="#Áåçûìÿííûé_ãðàäèåíò_37"/></defs><title>Recurso 39</title><g class="cls-1"><g id="Capa_2" data-name="Capa 2"><g id="personajes"><path class="cls-2" d="M4.47,102.85S.18,106.07.52,107.78c1.78,8.75,29.05,18.93,41.87,21,1.29.2,45.9-25.2,78-44.32,20.17-12,35.84-22.39,35.84-23,0-1.71-41.43-24.09-41.43-24.09Z"/><path class="cls-3" d="M62.88,110.19l-5.09-3.25-7.3-5.29s4.42-5.92,5.91-5.33,6.85,6.82,6.85,6.82Z"/><path class="cls-3" d="M129.52,72.21,124.43,69l-7.31-5.29s4.43-5.91,5.91-5.32,6.86,6.82,6.86,6.82Z"/><path class="cls-4" d="M111.64,62.09c2-1.15,3.79-1.36,5.18-.77,1.68.7,9.45,4.55,9.45,4.55l-11,19.35s-7.65-3.59-9.07-4.32-2.46-2.57-2.46-5.16C103.72,70.73,107.27,64.61,111.64,62.09Z"/><path class="cls-5" d="M128.34,70.8c0,5-3.54,11.13-7.91,13.65s-7.92.51-7.92-4.51,3.55-11.13,7.92-13.65S128.34,65.78,128.34,70.8Z"/><path class="cls-6" d="M128.08,71.28A16.19,16.19,0,0,1,120.74,84c-4.06,2.34-7.35.47-7.35-4.19a16.17,16.17,0,0,1,7.35-12.66C124.79,64.76,128.08,66.63,128.08,71.28Z"/><path class="cls-7" d="M126.05,72.23a12.07,12.07,0,0,1-5.47,9.44c-3,1.74-5.47.34-5.47-3.12a12.07,12.07,0,0,1,5.47-9.44C123.6,67.37,126.05,68.76,126.05,72.23Z"/><path class="cls-8" d="M125.34,72.54A10.8,10.8,0,0,1,120.43,81c-2.71,1.57-4.91.31-4.91-2.8a10.8,10.8,0,0,1,4.91-8.46C123.14,68.17,125.34,69.43,125.34,72.54Z"/><path class="cls-9" d="M124.92,72.78a9.92,9.92,0,0,1-4.49,7.75c-2.48,1.43-4.5.28-4.5-2.57a9.93,9.93,0,0,1,4.5-7.75C122.91,68.78,124.92,69.93,124.92,72.78Z"/><path class="cls-10" d="M123.56,73.56A6.91,6.91,0,0,1,120.43,79c-1.73,1-3.14.2-3.14-1.79a6.92,6.92,0,0,1,3.14-5.41C122.16,70.77,123.56,71.57,123.56,73.56Z"/><path class="cls-10" d="M119.8,80.32a9.92,9.92,0,0,0,4.49-7.75,3,3,0,0,0-1.41-2.93c1.23.21,2,1.33,2,3.14a9.92,9.92,0,0,1-4.49,7.75,3.23,3.23,0,0,1-3.09.36A3.69,3.69,0,0,0,119.8,80.32Z"/><path class="cls-10" d="M120.43,70.21c1.43-.82,2.7-.79,3.52-.07a3.25,3.25,0,0,0-3,.38,9.93,9.93,0,0,0-4.5,7.75,3.38,3.38,0,0,0,1,2.64,3,3,0,0,1-1.45-3A9.93,9.93,0,0,1,120.43,70.21Z"/><path class="cls-11" d="M118.19,73.62a1.1,1.1,0,0,1-.49.86c-.27.15-.5,0-.5-.29a1.11,1.11,0,0,1,.5-.85C118,73.18,118.19,73.31,118.19,73.62Z"/><path class="cls-11" d="M123.53,76.78a1.1,1.1,0,0,1-.49.86c-.28.15-.5,0-.5-.29a1.08,1.08,0,0,1,.5-.85C123.31,76.34,123.53,76.47,123.53,76.78Z"/><path class="cls-11" d="M124.54,74.24a1.1,1.1,0,0,1-.49.85c-.28.16-.5,0-.5-.28A1.06,1.06,0,0,1,124,74C124.3,73.8,124.54,73.92,124.54,74.24Z"/><path class="cls-11" d="M124.52,71.83a1.12,1.12,0,0,1-.49.86c-.28.15-.5,0-.5-.29a1.08,1.08,0,0,1,.5-.85C124.3,71.39,124.52,71.52,124.52,71.83Z"/><path class="cls-11" d="M122.9,70.32a1.08,1.08,0,0,1-.5.86c-.27.16-.49,0-.49-.28a1.1,1.1,0,0,1,.49-.86C122.68,69.88,122.9,70,122.9,70.32Z"/><path class="cls-11" d="M120.18,71.23a1.11,1.11,0,0,1-.5.86c-.27.16-.49,0-.49-.28a1.1,1.1,0,0,1,.49-.86C120,70.79,120.18,70.92,120.18,71.23Z"/><path class="cls-11" d="M117.25,76.34a1.08,1.08,0,0,1-.5.86c-.27.15-.49,0-.49-.29a1.1,1.1,0,0,1,.49-.85C117,75.9,117.25,76,117.25,76.34Z"/><path class="cls-11" d="M117.51,78.87a1.12,1.12,0,0,1-.49.86c-.28.15-.5,0-.5-.29a1.08,1.08,0,0,1,.5-.85C117.29,78.43,117.51,78.56,117.51,78.87Z"/><path class="cls-11" d="M119.44,79.9a1.08,1.08,0,0,1-.5.86c-.27.16-.49,0-.49-.29a1.1,1.1,0,0,1,.49-.85C119.22,79.46,119.44,79.59,119.44,79.9Z"/><path class="cls-11" d="M121.73,78.87a1.1,1.1,0,0,1-.5.86c-.27.15-.49,0-.49-.29a1.1,1.1,0,0,1,.49-.85C121.51,78.43,121.73,78.56,121.73,78.87Z"/><path class="cls-8" d="M123.89,73.71a6.91,6.91,0,0,1-3.13,5.41c-1.74,1-3.14.2-3.14-1.79a6.89,6.89,0,0,1,3.14-5.4C122.49,70.93,123.89,71.73,123.89,73.71Z"/><path class="cls-6" d="M123.41,74a5.87,5.87,0,0,1-2.65,4.58c-1.47.84-2.66.17-2.66-1.51a5.84,5.84,0,0,1,2.66-4.58C122.22,71.64,123.41,72.31,123.41,74Z"/><path class="cls-12" d="M123.17,74.36a5,5,0,0,1-2.27,3.93c-1.26.73-2.28.15-2.28-1.3a5,5,0,0,1,2.28-3.92C122.16,72.34,123.17,72.92,123.17,74.36Z"/><path class="cls-13" d="M120.76,73.28s1.39-1,2.07.1a1.81,1.81,0,0,1,.21,1.14,7.16,7.16,0,0,1-1.91,1.91,17.91,17.91,0,0,1-2.19,1.27,2.79,2.79,0,0,1,.17-2.33A3.91,3.91,0,0,1,120.76,73.28Z"/><path class="cls-4" d="M44.5,100.81c2-1.15,3.8-1.36,5.19-.78,1.67.7,9.44,4.56,9.44,4.56l-11,19.35s-7.65-3.59-9.07-4.32-2.45-2.58-2.45-5.16C36.59,109.44,40.13,103.33,44.5,100.81Z"/><path class="cls-5" d="M61.21,109.52c0,5-3.55,11.13-7.92,13.65s-7.91.5-7.91-4.51,3.54-11.13,7.91-13.65S61.21,104.5,61.21,109.52Z"/><path class="cls-6" d="M61,110a16.17,16.17,0,0,1-7.35,12.67c-4.05,2.34-7.34.46-7.34-4.19a16.18,16.18,0,0,1,7.34-12.66C57.66,103.47,61,105.35,61,110Z"/><path class="cls-7" d="M58.91,111a12,12,0,0,1-5.47,9.43c-3,1.75-5.47.35-5.47-3.12a12.05,12.05,0,0,1,5.47-9.43C56.47,106.08,58.91,107.48,58.91,111Z"/><path class="cls-8" d="M58.2,111.25a10.83,10.83,0,0,1-4.91,8.47c-2.71,1.56-4.9.31-4.9-2.8a10.79,10.79,0,0,1,4.9-8.46C56,106.89,58.2,108.14,58.2,111.25Z"/><path class="cls-9" d="M57.79,111.49a9.88,9.88,0,0,1-4.5,7.75c-2.48,1.44-4.49.29-4.49-2.56a9.89,9.89,0,0,1,4.49-7.75C55.78,107.5,57.79,108.65,57.79,111.49Z"/><path class="cls-10" d="M56.43,112.28a6.91,6.91,0,0,1-3.14,5.41c-1.73,1-3.13.19-3.13-1.79a6.91,6.91,0,0,1,3.13-5.41C55,109.49,56.43,110.29,56.43,112.28Z"/><path class="cls-10" d="M52.66,119a9.88,9.88,0,0,0,4.5-7.75,3.07,3.07,0,0,0-1.41-2.93c1.23.22,2,1.34,2,3.14a9.88,9.88,0,0,1-4.5,7.75,3.22,3.22,0,0,1-3.08.37A3.68,3.68,0,0,0,52.66,119Z"/><path class="cls-10" d="M53.29,108.93c1.43-.82,2.7-.79,3.53-.07a3.27,3.27,0,0,0-3.06.38A9.89,9.89,0,0,0,49.27,117a3.38,3.38,0,0,0,1,2.64,3,3,0,0,1-1.44-2.95A9.89,9.89,0,0,1,53.29,108.93Z"/><path class="cls-11" d="M51.06,112.34a1.07,1.07,0,0,1-.5.85c-.27.16-.49,0-.49-.28a1.08,1.08,0,0,1,.49-.85C50.84,111.9,51.06,112,51.06,112.34Z"/><path class="cls-11" d="M56.4,115.5a1.07,1.07,0,0,1-.5.85c-.27.16-.49,0-.49-.28a1.08,1.08,0,0,1,.49-.85C56.18,115.06,56.4,115.19,56.4,115.5Z"/><path class="cls-11" d="M57.41,113a1.08,1.08,0,0,1-.5.86c-.27.16-.49,0-.49-.28a1.08,1.08,0,0,1,.47-.86C57.17,112.51,57.41,112.64,57.41,113Z"/><path class="cls-11" d="M57.39,110.55a1.07,1.07,0,0,1-.5.85c-.27.16-.49,0-.49-.28a1.08,1.08,0,0,1,.49-.85C57.17,110.11,57.39,110.23,57.39,110.55Z"/><path class="cls-11" d="M55.76,109a1.1,1.1,0,0,1-.49.86c-.28.15-.5,0-.5-.29a1.08,1.08,0,0,1,.5-.85C55.54,108.6,55.76,108.73,55.76,109Z"/><path class="cls-11" d="M53,110a1.1,1.1,0,0,1-.49.86c-.28.16-.5,0-.5-.29a1.08,1.08,0,0,1,.5-.85C52.82,109.51,53,109.64,53,110Z"/><path class="cls-11" d="M50.11,115.06a1.08,1.08,0,0,1-.49.85c-.28.16-.5,0-.5-.28a1.07,1.07,0,0,1,.5-.85C49.89,114.62,50.11,114.75,50.11,115.06Z"/><path class="cls-11" d="M50.38,117.59a1.08,1.08,0,0,1-.5.85c-.27.16-.49,0-.49-.28a1.08,1.08,0,0,1,.49-.85C50.16,117.15,50.38,117.27,50.38,117.59Z"/><path class="cls-11" d="M52.3,118.62a1.12,1.12,0,0,1-.49.86c-.28.15-.5,0-.5-.29a1.08,1.08,0,0,1,.5-.85C52.08,118.18,52.3,118.31,52.3,118.62Z"/><path class="cls-11" d="M54.59,117.59a1.1,1.1,0,0,1-.49.85c-.28.16-.5,0-.5-.28a1.07,1.07,0,0,1,.5-.85C54.37,117.15,54.59,117.27,54.59,117.59Z"/><path class="cls-8" d="M56.76,112.43a6.92,6.92,0,0,1-3.14,5.41c-1.73,1-3.13.2-3.13-1.79a6.91,6.91,0,0,1,3.13-5.41C55.35,109.64,56.76,110.44,56.76,112.43Z"/><path class="cls-6" d="M56.27,112.71a5.81,5.81,0,0,1-2.65,4.57c-1.46.85-2.65.17-2.65-1.51a5.84,5.84,0,0,1,2.65-4.57C55.09,110.35,56.27,111,56.27,112.71Z"/><path class="cls-12" d="M56,113.08A5,5,0,0,1,53.76,117c-1.25.73-2.27.14-2.27-1.3a5,5,0,0,1,2.27-3.93C55,111.06,56,111.64,56,113.08Z"/><path class="cls-14" d="M53.62,112s1.4-1,2.07.09a1.77,1.77,0,0,1,.21,1.15,7,7,0,0,1-1.9,1.91,18.8,18.8,0,0,1-2.19,1.27,2.75,2.75,0,0,1,.17-2.33C52.76,112.36,53.62,112,53.62,112Z"/><path class="cls-15" d="M5.82,89.84c-.18.26-.35.52-.51.79a9.73,9.73,0,0,0-1,2.19c-.43-.76-.87-1.51-1.23-2.31s-.53-1.31-.8-2h0l.31-9.35L9.55,70l.69-.42c.68-.42,2-1.17,2-1.17s9.55-17.74,11.28-20.54,3.48-6.71,8.22-10,9.5-6.29,9.5-6.29c3.29-2,32.65-18.9,48.25-27.88h0L95.05.45A2.71,2.71,0,0,1,96.78,0h.08a1.59,1.59,0,0,1,1,.55,2.16,2.16,0,0,1,.45,1l2.39,3.31.81,17.26-.14,12.41,1.15.24s-.39,5.08-.66,6.33c0,.17-.08.33-.12.5a5.62,5.62,0,0,1-2.16,3.1c-1.55,1.21-7.86,5.57-7.86,5.57a12.23,12.23,0,0,0-.35-2.22c-.7-2.85-2.83-7-9.22-3.36a17.45,17.45,0,0,0-7.64,9.63,24.88,24.88,0,0,0-1.16,4.95,19,19,0,0,0-.19,2.45l-3.06,1.35L26.92,88a58,58,0,0,0-5.55,3.83l-.75-5a7.29,7.29,0,0,0-.35-1.36c-1.38-3.58-5.78-3.26-11.58,1.28A14,14,0,0,0,5.82,89.84Z"/><path class="cls-16" d="M12.69,66.8c1.65,1.33,4.21,3.39,6.78,5.41C22.58,74.64,25.7,77,27.28,78c.6.37,1.37.81,2.27,1.29,1.77,1,4,2.13,6.45,3.33,3.52,1.74,7.33,3.56,10.31,5l3,1.43.82-.48L62,65.72,49.53,58.49,39.34,52.57l-6.42-3.74-7.33-4.26-3.77,6.49Z"/><path class="cls-17" d="M17.45,68.58l-1.61-1.47s1.67-3.84,3.64-7.54c2.59-4.88,5.09-9.56,6.17-11.64a21.32,21.32,0,0,1,1.5-2.46L39,52.32a3.91,3.91,0,0,1-1.09,1.06c-1.54,1-4.17,2.64-5.85,3.9a62.49,62.49,0,0,0-6.63,6.32Z"/><polygon class="cls-18" points="52.8 83.82 51.44 80.12 38.04 73.9 33.34 75.4 17.48 63.54 12.69 66.8 27.39 79.19 49.36 89.02 50.18 88.53 52.8 83.82"/><path class="cls-19" d="M39.34,52.57l10.19,5.92L46.31,87.58c-3-1.4-6.79-3.22-10.31-5ZM19.47,72.21C22.58,74.64,25.7,77,27.28,78c.6.37,1.37.81,2.27,1.29l3.37-30.46-7.33-4.26-3.77,6.49Z"/><path class="cls-20" d="M26.05,45l.66.22L14.27,66.66c3.65,3,11.71,9.41,14.59,11.2,4,2.49,15.63,8,21.32,10.67l-.82.48c-5.29-2.46-17.88-8.41-22.08-11C24.4,76.21,17,70.31,13.39,67.36Z"/><path class="cls-21" d="M24.63,81.22,11.71,68.48l1-1.69c3.64,3,11.71,9.42,14.59,11.21,4.2,2.6,16.79,8.55,22.08,11l-2,1Z"/><path class="cls-22" d="M26.05,45S29,48.12,39.51,53.93C53.42,61.63,61.8,65.19,61.8,65.19l11.51-5.9,18-11.22,10.37-6.45,31.56-19.73.71-.44L97.82.58a1.59,1.59,0,0,0-1-.55h-.08A2.32,2.32,0,0,0,95.7.15a3.4,3.4,0,0,0-.65.3L89.53,3.64h0c-15.6,9-45,25.88-48.25,27.88,0,0-4.76,3-9.5,6.29S27.79,42.2,26.05,45Z"/><path class="cls-23" d="M31.77,37.81,71.32,60.64,62.73,66s-8.37-3.56-22.29-11.25C29.93,48.93,25.59,44.57,25.59,44.57A20.61,20.61,0,0,1,31.77,37.81Z"/><path class="cls-23" d="M95.7.15c3.47,2.12,8.63,5.17,15.46,9,10.06,5.57,17.46,10,22.1,12.79l.71-.44L97.82.58a1.59,1.59,0,0,0-1-.55h-.08A2.32,2.32,0,0,0,95.7.15Z"/><path class="cls-24" d="M36,111.39l.36-8.75,8.41-10.29.69-.42c.68-.43,2-1.18,2-1.18S57.57,70.81,59.31,68,62.23,63.5,67,60.2s11.46-7.26,11.46-7.26c3.9-2.36,42.94-24.84,53.77-31.07,1.55-.89,2.89-.43,3.23,1.11l.91,4.17,2.29,16.41L138.47,56l.14.42s.63,4.89.36,6.14a5.67,5.67,0,0,1-2.29,3.61c-.63.49-2.07,1.52-3.55,2.56A10.43,10.43,0,0,0,130.55,67c-.43-.2-.87-.36-1.29-.57l-.35-.2A4.07,4.07,0,0,0,125,64.88c-1.37-.42-3.22-.19-5.73,1.26a17.49,17.49,0,0,0-7.63,9.62c-.13.36-.24.73-.34,1.08a23.24,23.24,0,0,0-1,6.32l-3.07,1.35S66.57,107.8,64.06,109.42c-.66.43-1.17.82-1.17.82v0a16.38,16.38,0,0,0-.93-5c-.15-.49-.86-1.27-1-1.67-1.38-3.59-9.29.16-15.09,4.7a13.72,13.72,0,0,0-2.76,2.91,11.19,11.19,0,0,0-1.23.54h-2.5c-.87,0-2.49.21-3.4-.24Z"/><path class="cls-25" d="M66,83.24a30.47,30.47,0,0,1-4.21,3.64L46.51,95l-8.11,6.23,7.24-8.87,2.72-1.59s6.47-17.54,14.29-25.19S93.26,44.83,93.26,44.83l39.83-23s1.39-1,2.28.95c0,.16,1,4.33,1,4.33l2.28,16.41L90.09,71S68,81.13,66,83.24Z"/><path class="cls-26" d="M36.87,111.39l.36-8.75L47.3,95.39,63,87.2s1.08-1.28,3.08-3.39,19.13-9.49,19.13-9.49l53.43-30.76L138.48,56l-8,10.94s-1.67-4.94-8.87-2.52-9.29,9.67-9.29,9.67L57.92,106.3l-2-2.68-6.17.89-13,9.21-2.17-1Z"/><path class="cls-27" d="M61.56,103.47c.5,1.9,1.32,6.72,1.32,6.72v0s.66-.49,1.17-.82c2.51-1.61,43.14-24.91,43.14-24.91l3.07-1.35a23.24,23.24,0,0,1,1-6.32Z"/><path class="cls-28" d="M64.06,109.42c-.51.33-1.17.82-1.17.82v0s-.18-1-.42-2.34l48-26.91a19.14,19.14,0,0,0-.15,2.22l-3.07,1.35S66.57,107.81,64.06,109.42Z"/><g class="cls-29"><path class="cls-30" d="M62.79,108.11c0-.07-.93-6.38-2.41-8.06-1.08-1.23-2.74-1.39-5.09-.51l-2.07.78L50,96.38l.8-6.11,0-.08s2.34-5.52,4.24-9c.59-1.08,1.43-2.67,2.35-4.43,2-3.88,4.58-8.69,5.87-10.6,2.06-3,6.11-5.84,9.79-8.17,1.37-.87,2.38-1.51,3.11-2a1.66,1.66,0,0,1,2.53,1.29L80,73.78v13.7L77.69,88.8l-.4,1.45v10l-14.43,8.34Zm13.89-17.9.48-1.82,2.19-1.26V73.81l-1.22-16.4a1,1,0,0,0-1.59-.82l-3.11,2c-3.63,2.3-7.61,5.05-9.6,8C62.55,68.42,60,73.23,58,77.08c-.93,1.77-1.77,3.36-2.36,4.44-1.8,3.26-4,8.38-4.2,8.87l-.76,5.81,2.75,3.39L55.07,99c2.58-1,4.52-.74,5.77.68s2.25,6.41,2.49,7.93l13.35-7.7Z"/></g><path class="cls-31" d="M62.06,103.28c-.38.21-.25.53-.86.81-1.38-3.58-6.42-3.34-12.23,1.21a15,15,0,0,0-2.71,3.47c-.18.26-.5.11-.66.38l-1-.67a14.55,14.55,0,0,1,6.18-6.37c4.72-2.73,5.46-2.67,7.08-2.69S61.55,101.17,62.06,103.28Z"/><path class="cls-32" d="M138.61,43.56a3.38,3.38,0,0,0-2.12,2.34c-.22,1.64-.39,11.48-.39,11.48L138.47,56Z"/><path class="cls-33" d="M137.2,45.58c-.22,1.54-.37,10.35-.39,11.38l-.71.42s.17-9.84.39-11.48a3.38,3.38,0,0,1,2.12-2.34v0A2.87,2.87,0,0,0,137.2,45.58Z"/><path class="cls-21" d="M0,92.78a35.37,35.37,0,0,0,.8,6.44c.59,1.85,1,2.19,1,2.19s7.39,7.15,11.07,9.46c5.5,3.47,24.74,10.49,25,10.59h0l-.11-1.5-.59-8.32a7.28,7.28,0,0,1-.77-.13,18.71,18.71,0,0,1-1.92-.54s-14.31-4.45-18.31-6.81C11.72,101.51,1.34,90.9,1.34,90.9l-1-1.2Z"/><path class="cls-6" d="M36.84,118.92c.11.34.23.64.32.91a10.44,10.44,0,0,0,.77,1.63h0a1.2,1.2,0,0,0,1.35.25c.79-.36,4-1.49,4-1.49A20,20,0,0,1,45.89,110c.16-.27.33-.53.51-.79l-.78-1.18L44,109.15l-4.64,2.2-2.91-.17,0,.34-.14,2.8A17,17,0,0,0,36.84,118.92Z"/><path class="cls-34" d="M0,92.78a35.37,35.37,0,0,0,.8,6.44c.59,1.85,1,2.19,1,2.19s7.39,7.15,11.07,9.46c5.5,3.47,24.74,10.49,25,10.59h0a1.2,1.2,0,0,0,1.35.25c.79-.36,4-1.49,4-1.49A20,20,0,0,1,45.89,110a10.06,10.06,0,0,0-3.06,5.75c-.5,3.57-.58,3.85-.58,3.85a11,11,0,0,1-4.42.34,5.72,5.72,0,0,1-.67-.14l-.57-.2c-2.44-1-18.63-6.73-20.63-8.28s-8.73-5.78-12.84-9.73C.78,99.37.3,94.37.3,94.37V89.7Z"/><path class="cls-6" d="M62.35,104.17c-.38.21-1.67-1.17-2.28-.89-1-1.27-5-1.64-10.81,2.9a13.68,13.68,0,0,0-2.86,3.06c-.18.26-.35.53-.51.79l-1-.67A14.55,14.55,0,0,1,51.09,103c4.72-2.73,5.46-2.66,7.08-2.69S61.84,102.06,62.35,104.17Z"/><path class="cls-31" d="M111.32,72.78s.26-.54.94-1.64,2.28-4,7.57-7.06,7.15-1,7.15-1l9.12-5.72L138.48,56v-1l1.83,1.79s-1.08,4.58-1.35,5.83a5.69,5.69,0,0,1-2.29,3.61c-.83.64-3,2.2-4.9,3.51a17.27,17.27,0,0,0-4.36-4.46,3.29,3.29,0,0,0-2.93-.44c-1.31-.23-3,.09-5.23,1.37a17.48,17.48,0,0,0-7.64,9.63L61.7,102.49a4.81,4.81,0,0,0-.44-.57l-.06-.12Z"/><path class="cls-6" d="M61.34,104.37a3.45,3.45,0,0,0-1.27-1.09l52-30a17,17,0,0,1,.94-1.64c.69-1.09,2.27-4,7.56-7.06s7.15-1,7.15-1l9.13-5.73,2.37-1.4,1.15.23s-.38,5.08-.66,6.33a5.69,5.69,0,0,1-2.28,3.61c-1.55,1.2-7.86,5.56-7.86,5.56a12.79,12.79,0,0,0-.39-2.37c-.74-2.85-2.91-6.83-9.18-3.2a17.46,17.46,0,0,0-7.64,9.62L62,105.33S61.42,104.47,61.34,104.37Z"/><path class="cls-35" d="M129.13,69.84a12.79,12.79,0,0,1,.39,2.37s6.31-4.36,7.86-5.56A5.69,5.69,0,0,0,139.66,63c.28-1.25.66-6.33.66-6.33s-.83,5.93-2.7,7.94C136.77,65.54,133,67.71,129.13,69.84Z"/><polygon class="cls-36" points="138.51 45.35 137.73 45.8 137.62 50.47 138.48 49.97 138.51 45.35"/><polygon class="cls-37" points="138.51 51 137.73 51.45 137.62 56.12 138.48 55.62 138.51 51"/><path class="cls-6" d="M79.66,77.56l-3.09,1.78A1.43,1.43,0,0,0,76,80.46v2.6s0,.6.58.25l3-1.75Z"/><polygon class="cls-38" points="77.22 82.49 78.49 81.75 78.49 78.79 77.22 79.52 77.22 82.49"/><path class="cls-39" d="M54.45,86.55,56.06,88l7.52-3.72s.89-1,2.13-2.23A44.09,44.09,0,0,1,70.21,78c1.16-.87,2.78-1.94,4.17-2.84l1.68-1.06A4.51,4.51,0,0,0,78,70.92L77.4,58.64c.09-1-.55-1.44-1.37-1-1.34.76-1.69,1-4.58,2.94-.42.29-1,.64-1.66,1.1a18.66,18.66,0,0,0-6,6.92L62.16,71.7,57.6,80.27C55.63,84,54.45,86.55,54.45,86.55Z"/><path class="cls-40" d="M62.16,71.7l3.55,10.38A44.09,44.09,0,0,1,70.21,78c1.16-.87,2.78-1.94,4.17-2.84L69.79,61.71a18.66,18.66,0,0,0-6,6.92Z"/><path class="cls-20" d="M55.71,87.42l7.52-3.72a62.49,62.49,0,0,1,6.63-6.32c1.68-1.26,4.32-2.93,5.86-3.9a4.57,4.57,0,0,0,1.91-3.17L77.05,58a2,2,0,0,0,0-.43,1.06,1.06,0,0,1,.37,1L78,70.92a4.51,4.51,0,0,1-1.91,3.17c-1.53,1-4.17,2.64-5.85,3.9a62.49,62.49,0,0,0-6.63,6.32L56.06,88l-1.61-1.48.09-.2Z"/><path class="cls-41" d="M2.62,79.19s10.54,10.49,14.76,13c5.13,3.08,22.38,8.41,22.38,8.41l8.41-10.3s-17-7.84-22.28-11.12c-3.77-2.35-14.18-10.72-14.18-10.72Z"/><path class="cls-21" d="M39.4,111.35S21,105.19,15.88,102.12C11.62,99.56,2,89.71,2,89.71l.62-10.52s10.54,10.49,14.76,13c5.13,3.08,22.38,8.41,22.38,8.41Z"/><path class="cls-31" d="M34.55,111s-14.31-4.46-18.31-6.81C11.72,101.51,1.16,91.26,1.16,91.26L.3,89.7l1.76-1-.06,1s10,10.07,14.31,12.57,20,7.42,20,7.42a7.39,7.39,0,0,0,5.91-.52l3.37-2.44v1.32l-.14.22-4.39,2.65C38.55,112,37.17,111.85,34.55,111Z"/><path class="cls-42" d="M28.87,97.48l-.68,8.87s-10.54-3.7-12.09-4.78c-2.19-1.53-8-6.82-8-6.82l.66-9.25s5.6,6,9.4,7.85A81.26,81.26,0,0,0,28.87,97.48Z"/><path class="cls-43" d="M9.25,90.08l.23.24.12.11.52.51.35.34a.46.46,0,0,1,.07.07l.25.24c1.1,1,2.66,2.49,4.15,3.7l.54.44.52.4c.16.13.33.25.49.36l.35.24.13.09.45.28a14.56,14.56,0,0,0,1.33.64l.18.07,1.05.43a.14.14,0,0,0,.09,0l.84.34.44.17,0,0,1.13.43c.49.19,1,.38,1.48.55l.25.1.83.31.28.11,2,.72.16.06.22.08.06-.57L28.08,98A81,81,0,0,1,19,94.56l-.81-.38a15.89,15.89,0,0,1-2.45-1.58,54.94,54.94,0,0,1-5.66-5.07c-.23-.24-.39-.42-.49-.51l-.05,0,0,0Z"/><path class="cls-43" d="M8.55,94.31s5.21,5.25,8.18,7a7.14,7.14,0,0,0,.84.42l.38.17c2.89,1.25,9.11,3.47,9.11,3.47l.33-3.16A77,77,0,0,1,18.67,99c-.42-.18-.82-.37-1.19-.55a15.38,15.38,0,0,1-2.1-1.31,57.11,57.11,0,0,1-6.6-5.94Z"/><path class="cls-44" d="M9.25,90.08a83,83,0,0,0,6.23,5.65,17.34,17.34,0,0,0,1.94,1.37,14.56,14.56,0,0,0,1.33.64c2.93,1.25,9,3.42,9,3.42l.06-.57c-1.75-.63-6.89-2.51-9-3.47a7.87,7.87,0,0,1-.73-.37,22.77,22.77,0,0,1-2.53-1.84c-2.71-2.23-5.64-5.18-5.64-5.18l.16-2.2-.58-.61Z"/><path class="cls-44" d="M15.48,95.73l.52.4c.16.13.33.25.49.36l.35.24.13.09.45.28a14.56,14.56,0,0,0,1.33.64l.05-.62L19,94.56l-.81-.38a15.89,15.89,0,0,1-2.45-1.58l-.18,2.31Z"/><path class="cls-44" d="M15.19,99.6l2.38,2.15.26.24.12-.07.52-.3.2-2.66c-.42-.18-.82-.37-1.19-.55a15.38,15.38,0,0,1-2.1-1.31Z"/><path class="cls-44" d="M8.78,91.16l.58.6L9.2,94s5.21,5.25,8.18,7c1.26.76,7.73,3.12,9.74,3.85l-.06.56s-8.83-3.16-10.33-4c-3-1.78-8.18-7-8.18-7Z"/><path class="cls-45" d="M35.19,103.4a59.2,59.2,0,0,1-6-2.14l.19-3.44a42.5,42.5,0,0,0,4.92,1.81c2.87.9,4.87,1.42,4.87,1.42L39,104.39C38.37,104.23,37.16,103.94,35.19,103.4Z"/><path class="cls-45" d="M35.19,104.28c2,.56,3.16.84,3.81,1l-.15,3.1a19.9,19.9,0,0,1-5.92-1.5C29,105.41,29,105.37,29,105.37l.18-3.24A58.23,58.23,0,0,0,35.19,104.28Z"/><path class="cls-46" d="M31.92,100.3,32,98.85c.66.24,1.44.51,2.33.78,2.87.9,4.87,1.42,4.87,1.42l-.08,1.72-1.23-.33A59.2,59.2,0,0,1,31.92,100.3Z"/><path class="cls-46" d="M31.7,104.41l.07-1.27c1.17.44,2.36.85,3.42,1.14,2,.56,3.16.84,3.81,1l-.08,1.68a33,33,0,0,1-3.29-1C31.68,104.46,31.7,104.41,31.7,104.41Z"/><path class="cls-45" d="M6.42,87.15a45.94,45.94,0,0,1-3.66-3.61L2.87,80A36.91,36.91,0,0,0,6,83.09c1.84,1.65,2.39,2.25,2.39,2.25l-.25,3.37C7.72,88.38,7.68,88.21,6.42,87.15Z"/><path class="cls-45" d="M6.38,88.06c1.29,1.09,1.29,1.22,1.71,1.53l-.23,3.13s-.47,0-3.07-2.59-2.35-2.44-2.35-2.44l.09-3.37A49.82,49.82,0,0,0,6.38,88.06Z"/><path class="cls-46" d="M3.92,82.69l0-1.55c.52.52,1.2,1.18,2.05,2,1.84,1.65,2.39,2.25,2.39,2.25l-.12,1.58-.71-.61A46,46,0,0,1,3.92,82.69Z"/><path class="cls-46" d="M3.6,86.85l0-1.38c.92.93,1.9,1.88,2.75,2.59,1.29,1.09,1.29,1.22,1.71,1.53L8,91.16c-.46-.39-1.11-1-2-1.88C3.43,86.8,3.6,86.85,3.6,86.85Z"/><path class="cls-47" d="M19,110.34v3.17a.64.64,0,0,1-.93.57l-6.69-3.39A2,2,0,0,1,10.35,109v-3.24a.64.64,0,0,1,.93-.57L18,108.62A1.93,1.93,0,0,1,19,110.34Z"/><path class="cls-48" d="M18.25,113.91a.56.56,0,0,0,.56-.56v-3a1.81,1.81,0,0,0-1-1.6l-6.44-3.34a.54.54,0,0,0-.25-.06.56.56,0,0,0-.56.56V109a1.78,1.78,0,0,0,1,1.61L18,113.85A.76.76,0,0,0,18.25,113.91Z"/><polygon class="cls-49" points="47.4 90.03 48.17 90.32 50.89 88.73 62.73 65.99 61.95 65.71 50.18 88.53 47.4 90.03"/><polygon class="cls-41" points="25.59 44.57 26.05 45 13.39 67.36 12.14 68.83 11.71 68.48 12.69 66.8 25.59 44.57"/><polygon class="cls-24" points="40.78 86.92 35.56 91.93 30.18 95.93 28.87 96.33 35.35 91.16 40.02 86.35 40.78 86.92"/><polygon class="cls-50" points="40.02 86.35 35.35 91.16 28.87 96.33 17.23 91.34 9.25 84.55 13.89 77.82 17.83 73.23 40.02 86.35"/><polygon class="cls-42" points="17.25 93.45 18.4 94.09 17.83 101.99 16.78 101.63 14.55 99.96 15.14 92.08 17.25 93.45"/><path d="M18.08,75.08l.29-.3c.15-.15.54-.11.84.09l4.54,3c.56.38.73.89.35,1.11l-.31.18A.83.83,0,0,1,23,79l-4.47-2.88C18,75.79,17.83,75.33,18.08,75.08Z"/><polygon class="cls-50" points="19.74 75.05 19.39 74.88 18.02 75.98 18.33 76.21 19.74 75.05"/><polygon class="cls-50" points="20.69 75.6 20.34 75.43 18.97 76.54 19.28 76.77 20.69 75.6"/><polygon class="cls-50" points="21.63 76.16 21.29 75.98 19.92 77.09 20.23 77.32 21.63 76.16"/><polygon class="cls-50" points="22.58 76.71 22.23 76.54 20.86 77.64 21.17 77.87 22.58 76.71"/><polygon class="cls-50" points="23.48 77.29 23.14 77.12 21.77 78.23 22.07 78.46 23.48 77.29"/><polygon class="cls-50" points="24.29 77.97 23.94 77.8 22.57 78.9 22.88 79.13 24.29 77.97"/><path d="M31.73,83.18l.28-.34a.68.68,0,0,1,.76,0l4.5,2.4c.63.34.9.93.56,1.27l-.29.29a.73.73,0,0,1-.84,0l-4.59-2.58C31.65,83.89,31.49,83.46,31.73,83.18Z"/><polygon class="cls-50" points="33.24 82.89 32.93 82.78 31.63 84.1 31.91 84.29 33.24 82.89"/><polygon class="cls-50" points="34.12 83.29 33.8 83.17 32.51 84.53 32.8 84.73 34.12 83.29"/><polygon class="cls-50" points="35.03 83.7 34.69 83.58 33.42 84.99 33.73 85.2 35.03 83.7"/><polygon class="cls-50" points="35.98 84.13 35.63 84.01 34.38 85.46 34.7 85.68 35.98 84.13"/><polygon class="cls-50" points="36.92 84.62 36.56 84.49 35.33 86 35.66 86.23 36.92 84.62"/><polygon class="cls-50" points="37.83 85.25 37.45 85.11 36.23 86.7 36.58 86.94 37.83 85.25"/><path class="cls-24" d="M100.69,62.75,87.86,70.16a2.23,2.23,0,0,1-3.1-1.87L83.05,56.45a4.85,4.85,0,0,1,2.18-5L98.06,44c1.22-.71,2.87.29,3.1,1.87l1.71,11.84A4.85,4.85,0,0,1,100.69,62.75Z"/><path class="cls-51" d="M87.41,69.72l12.83-7.41a4.85,4.85,0,0,0,2.18-5l-1.71-11.84a2.6,2.6,0,0,0-.54-1.23,2.52,2.52,0,0,1,1,1.67l1.71,11.84a4.85,4.85,0,0,1-2.18,5L87.86,70.16a2,2,0,0,1-2.56-.64A1.92,1.92,0,0,0,87.41,69.72Z"/><path class="cls-52" d="M102.87,58.94,101.16,47.1a2.23,2.23,0,0,0-3.1-1.87L85.23,52.64A4.6,4.6,0,0,0,83,56.17a4.79,4.79,0,0,1,2.2-4.72L98.06,44c1.22-.71,2.87.29,3.1,1.87l1.71,11.84a5.58,5.58,0,0,1,0,1.47C102.88,59.13,102.88,59,102.87,58.94Z"/><path class="cls-51" d="M99.73,61.5,88.31,68.1a2,2,0,0,1-2.76-1.66L84,55.9A4.33,4.33,0,0,1,86,51.44l11.42-6.59a2,2,0,0,1,2.76,1.66l1.52,10.54A4.3,4.3,0,0,1,99.73,61.5Z"/><path class="cls-53" d="M100.25,61.87,88.84,68.46a2,2,0,0,1-2.76-1.66L84.56,56.26a4.3,4.3,0,0,1,1.93-4.45l11.42-6.6a2,2,0,0,1,2.76,1.66l1.52,10.55A4.3,4.3,0,0,1,100.25,61.87Z"/><path class="cls-24" d="M127.39,47.28l-12.84,7.41a2.23,2.23,0,0,1-3.1-1.87L109.75,41a4.83,4.83,0,0,1,2.17-5l12.83-7.41a2.22,2.22,0,0,1,3.1,1.87l1.71,11.84A4.83,4.83,0,0,1,127.39,47.28Z"/><path class="cls-51" d="M114.1,54.25l12.83-7.41a4.85,4.85,0,0,0,2.18-5L127.4,30a2.6,2.6,0,0,0-.54-1.23,2.55,2.55,0,0,1,1,1.67l1.71,11.84a4.83,4.83,0,0,1-2.17,5l-12.84,7.41a2,2,0,0,1-2.56-.64A1.92,1.92,0,0,0,114.1,54.25Z"/><path class="cls-52" d="M129.56,43.47l-1.71-11.84a2.23,2.23,0,0,0-3.1-1.87l-12.83,7.41a4.62,4.62,0,0,0-2.2,3.53,4.79,4.79,0,0,1,2.2-4.72l12.83-7.41a2.22,2.22,0,0,1,3.1,1.87l1.71,11.84a5.58,5.58,0,0,1,0,1.47C129.57,43.66,129.58,43.57,129.56,43.47Z"/><path class="cls-51" d="M126.42,46,115,52.63A2,2,0,0,1,112.24,51l-1.52-10.54A4.33,4.33,0,0,1,112.66,36l11.42-6.59A2,2,0,0,1,126.84,31l1.52,10.54A4.3,4.3,0,0,1,126.42,46Z"/><path class="cls-53" d="M127,46.4,115.53,53a2,2,0,0,1-2.76-1.66l-1.52-10.54a4.3,4.3,0,0,1,1.93-4.45l11.42-6.6a2,2,0,0,1,2.76,1.66L128.88,42A4.31,4.31,0,0,1,127,46.4Z"/><polygon class="cls-6" points="132.51 24.71 132.62 25.3 132.86 26.61 133.01 27.43 133.26 28.74 133.42 29.65 133.66 30.96 133.79 31.65 134.01 32.84 134.11 33.4 134.15 33.76 134.3 35.13 134.4 36.06 134.54 37.42 134.65 38.37 134.79 39.73 134.92 40.96 135.06 42.32 135.26 44.13 137.36 42.99 137.08 41.32 136.86 39.98 136.65 38.78 136.43 37.46 136.27 36.54 136.06 35.22 135.9 34.3 135.89 34.27 135.63 33 135.44 32.11 135.2 30.93 135.06 30.25 134.79 28.96 134.59 28.05 134.33 26.76 134.16 25.96 133.89 24.65 133.75 24 132.51 24.71"/><path class="cls-24" d="M36.27,38.47h0c-.59-.34-.52-.93.16-1.33L95.77,2.79a2.54,2.54,0,0,1,2.3-.1h0c.59.34.52.94-.16,1.33L38.57,38.38A2.57,2.57,0,0,1,36.27,38.47Z"/><path class="cls-24" d="M41.23,41.34h0c-.59-.34-.52-.94.16-1.33L100.73,5.65a2.57,2.57,0,0,1,2.3-.1h0c.59.34.52.94-.17,1.33L43.53,41.24A2.57,2.57,0,0,1,41.23,41.34Z"/><path class="cls-24" d="M46.18,44.2h0c-.59-.34-.51-.94.17-1.33L105.68,8.51A2.59,2.59,0,0,1,108,8.42h0c.59.34.51.93-.17,1.33L48.49,44.1A2.56,2.56,0,0,1,46.18,44.2Z"/><path class="cls-24" d="M51.14,47.06h0c-.59-.34-.51-.94.17-1.33l59.33-34.36a2.57,2.57,0,0,1,2.3-.09h0c.59.34.52.93-.16,1.33L53.44,47A2.57,2.57,0,0,1,51.14,47.06Z"/><path class="cls-24" d="M56.1,49.92h0c-.59-.34-.52-.93.16-1.33L115.6,14.24a2.54,2.54,0,0,1,2.3-.1h0c.59.34.52.94-.16,1.33L58.4,49.83A2.57,2.57,0,0,1,56.1,49.92Z"/><path class="cls-24" d="M61.06,52.78h0c-.59-.34-.52-.93.16-1.32L120.56,17.1a2.57,2.57,0,0,1,2.3-.1h0c.59.34.52.94-.17,1.33L63.36,52.69A2.53,2.53,0,0,1,61.06,52.78Z"/><path class="cls-24" d="M66,55.65h0c-.59-.34-.51-.94.17-1.33L125.52,20a2.53,2.53,0,0,1,2.3-.09h0c.59.34.51.93-.17,1.32L68.32,55.55A2.56,2.56,0,0,1,66,55.65Z"/><path class="cls-50" d="M36.27,38h0c-.59-.34-.52-.94.16-1.33L95.77,2.35a2.57,2.57,0,0,1,2.3-.1h0c.59.35.52.94-.16,1.33L38.57,37.94A2.57,2.57,0,0,1,36.27,38Z"/><path class="cls-50" d="M41.23,40.9h0c-.59-.34-.52-.94.16-1.33L100.73,5.21a2.57,2.57,0,0,1,2.3-.09h0c.59.34.52.93-.17,1.33L43.53,40.8A2.54,2.54,0,0,1,41.23,40.9Z"/><path class="cls-50" d="M46.18,43.76h0c-.59-.34-.51-.93.17-1.33L105.68,8.07A2.59,2.59,0,0,1,108,8h0c.59.34.51.94-.17,1.33L48.49,43.67A2.59,2.59,0,0,1,46.18,43.76Z"/><path class="cls-50" d="M51.14,46.62h0c-.59-.34-.51-.93.17-1.33l59.33-34.35a2.54,2.54,0,0,1,2.3-.1h0c.59.34.52.94-.16,1.33L53.44,46.53A2.57,2.57,0,0,1,51.14,46.62Z"/><path class="cls-50" d="M56.1,49.49h0c-.59-.34-.52-.94.16-1.33L115.6,13.8a2.57,2.57,0,0,1,2.3-.1h0c.59.34.52.94-.16,1.33L58.4,49.39A2.57,2.57,0,0,1,56.1,49.49Z"/><path class="cls-50" d="M61.06,52.35h0c-.59-.34-.52-.94.16-1.33l59.34-34.36a2.57,2.57,0,0,1,2.3-.09h0c.59.34.52.93-.17,1.33L63.36,52.25A2.54,2.54,0,0,1,61.06,52.35Z"/><path class="cls-50" d="M66,55.21h0c-.59-.34-.51-.94.17-1.33l59.34-34.36a2.57,2.57,0,0,1,2.3-.09h0c.59.34.51.93-.17,1.33L68.32,55.11A2.56,2.56,0,0,1,66,55.21Z"/><path class="cls-5" d="M.61,90.71s-.38,4.34.46,6.45S9.83,105,9.83,105v-.3a.73.73,0,0,1,1.08-.64l7.81,4.27a1.75,1.75,0,0,1,.9,1.52v.4a80.24,80.24,0,0,0,8.67,3,68.22,68.22,0,0,0,8,1.73l.12-3.16s-17-5.11-21.45-8.17C10,100.24.61,90.71.61,90.71Z"/><path class="cls-5" d="M36.45,111.83,36.33,115s2.36,0,3.57,0a10.63,10.63,0,0,0,3.29-1.37,13,13,0,0,1,1.55-2.78l1.15-1.2.89-2.06,1.68-2.37c-1.1.34-3.08,3.52-3.08,3.52s-4.62,2.84-5.76,3A7.44,7.44,0,0,1,36.45,111.83Z"/><polygon class="cls-54" points="132.62 25.3 132.86 26.61 134.16 25.96 133.89 24.65 132.62 25.3"/><polygon class="cls-54" points="133.01 27.43 133.26 28.74 134.59 28.05 134.33 26.76 133.01 27.43"/><polygon class="cls-54" points="133.42 29.65 133.66 30.96 135.06 30.25 134.79 28.96 133.42 29.65"/><polygon class="cls-54" points="133.79 31.65 134.01 32.84 135.44 32.11 135.2 30.93 133.79 31.65"/><polygon class="cls-54" points="134.15 33.76 134.3 35.13 135.9 34.3 135.89 34.27 135.63 33 134.15 33.76"/><polygon class="cls-54" points="134.4 36.06 134.54 37.42 136.27 36.54 136.06 35.22 134.4 36.06"/><polygon class="cls-54" points="134.65 38.37 134.79 39.73 136.65 38.78 136.43 37.46 134.65 38.37"/><polygon class="cls-54" points="134.9 40.98 135.03 42.33 135.06 42.32 137.08 41.32 136.86 39.98 134.92 40.96 134.9 40.98"/></g></g></g></svg>