<svg xmlns="http://www.w3.org/2000/svg" viewBox="0 0 308.95 309.01"><defs><style>.cls-1{isolation:isolate;}.cls-2{fill:#683e38;}.cls-3{fill:#784741;}.cls-11,.cls-4{fill:none;stroke-linecap:round;}.cls-4{stroke:#935954;stroke-miterlimit:10;stroke-width:16px;}.cls-5{fill:#c7bfbf;}.cls-6{fill:#a19a9a;}.cls-7{fill:#706e6e;}.cls-8{fill:#553530;}.cls-9{fill:#ede8e8;}.cls-10,.cls-12{fill:#e0e5e8;mix-blend-mode:color-dodge;}.cls-10{opacity:0.2;}.cls-11{stroke:#fff;stroke-linejoin:round;stroke-width:10px;}.cls-12{opacity:0.62;}</style></defs><title>lupa</title><g class="cls-1"><g id="Capa_2" data-name="Capa 2"><g id="Capa_1-2" data-name="Capa 1"><path class="cls-2" d="M186.16,165.28l113.63,97.53a26.26,26.26,0,1,1-34.21,39.86,29,29,0,0,1-2.83-2.82L165.22,186.21a14.85,14.85,0,0,1,20.94-20.93Z"/><path class="cls-3" d="M200.94,184.86l92.2,79.89a20.18,20.18,0,1,1-26.28,30.62,22.22,22.22,0,0,1-2.17-2.17l-79.83-92.26a11.4,11.4,0,0,1,16.08-16.08Z"/><line class="cls-4" x1="189.35" y1="185.85" x2="281.99" y2="272.03"/><path class="cls-5" d="M147.61,179.11l24.78,24.65a7.53,7.53,0,0,0,10.6,0L203.77,183a7.51,7.51,0,0,0,0-10.6L179,147.73a7.53,7.53,0,0,0-10.6,0l-20.78,20.78A7.51,7.51,0,0,0,147.61,179.11Z"/><path class="cls-6" d="M193.22,161.9l-13-12.91a7.53,7.53,0,0,0-10.6,0l-20.78,20.78a7.51,7.51,0,0,0,0,10.6l13,12.89a76.73,76.73,0,0,0,31.39-31.36Z"/><path class="cls-7" d="M190,158.68l-13-12.9a7.53,7.53,0,0,0-10.6,0l-20.79,20.78a7.53,7.53,0,0,0,0,10.6l13,12.89A76.67,76.67,0,0,0,190,158.68Z"/><path class="cls-8" d="M120.31,189.86a6.33,6.33,0,0,0,6.88,6.31,76.18,76.18,0,0,0,69-69,6.33,6.33,0,0,0-6.31-6.88l-30.75,35.57Z"/><path class="cls-7" d="M161.37,153a3.05,3.05,0,0,1,4.3,0l7.68,7.67c-1.89,2.27-3.89,4.49-6,6.62s-4.4,4.19-6.71,6.1l-7.67-7.66a3.05,3.05,0,0,1,0-4.3Z"/><path class="cls-9" d="M167.32,28.71a98,98,0,1,0,0,138.61A98,98,0,0,0,167.32,28.71ZM98,179.42A81.41,81.41,0,1,1,179.42,98,81.5,81.5,0,0,1,98,179.42Z"/><path class="cls-6" d="M98,5.51A92.51,92.51,0,1,0,190.52,98,92.51,92.51,0,0,0,98,5.51Zm0,173.91A81.41,81.41,0,1,1,179.42,98,81.5,81.5,0,0,1,98,179.42Z"/><path class="cls-9" d="M98,10.18A87.84,87.84,0,1,0,185.85,98,87.84,87.84,0,0,0,98,10.18Zm0,169.24A81.41,81.41,0,1,1,179.42,98,81.5,81.5,0,0,1,98,179.42Z"/><path class="cls-10" d="M53.6,145.54a83.69,83.69,0,0,0,4.09,25.9,83.79,83.79,0,0,0,120-99.33A83.79,83.79,0,0,0,53.6,145.54Z"/><line class="cls-11" x1="189.35" y1="173.42" x2="196.54" y2="180.61"/><ellipse class="cls-12" cx="122.48" cy="40.68" rx="12.1" ry="26.18" transform="translate(35.41 135.94) rotate(-65.94)"/></g></g></g></svg>