<svg xmlns="http://www.w3.org/2000/svg" viewBox="0 0 546.15 110.83"><title>p1</title><g id="Capa_2" data-name="Capa 2"><g id="pregunta_vector" data-name="pregunta vector"><path d="M0,14C0,9.72.16,8.36.72,6.68,2.12,2.24,5.56,0,10.16,0a9.56,9.56,0,0,1,9.2,5.84.35.35,0,0,1-.2.48L15.76,8a.36.36,0,0,1-.52-.2,5.37,5.37,0,0,0-5.08-3.52,4.82,4.82,0,0,0-4.88,3.6C4.92,9,4.8,10,4.8,14s.12,5.08.48,6.2a4.82,4.82,0,0,0,4.88,3.6,5.37,5.37,0,0,0,5.08-3.52.36.36,0,0,1,.52-.2l3.4,1.64a.35.35,0,0,1,.2.48,9.56,9.56,0,0,1-9.2,5.84c-4.6,0-8-2.24-9.44-6.68C.16,19.72,0,18.36,0,14Z"/><path d="M22.52,22.76A14.24,14.24,0,0,1,21.88,18a14.24,14.24,0,0,1,.64-4.76c1.08-3.36,4-5.32,8-5.32s6.84,2,7.92,5.32A14.24,14.24,0,0,1,39,18a14.24,14.24,0,0,1-.64,4.76c-1.08,3.36-4,5.32-7.92,5.32S23.6,26.12,22.52,22.76Zm11.56-1.2a10.89,10.89,0,0,0,.4-3.56,11,11,0,0,0-.4-3.56,3.56,3.56,0,0,0-3.6-2.52,3.61,3.61,0,0,0-3.64,2.52,11,11,0,0,0-.4,3.56,10.89,10.89,0,0,0,.4,3.56,3.61,3.61,0,0,0,3.64,2.52A3.56,3.56,0,0,0,34.08,21.56Z"/><path d="M55.24,27.64a.38.38,0,0,1-.4-.4V16.12c0-2.48-1.24-4.2-3.64-4.2s-3.68,1.72-3.68,4.2V27.24a.38.38,0,0,1-.4.4H43.44a.38.38,0,0,1-.4-.4V8.76a.38.38,0,0,1,.4-.4h3.68a.38.38,0,0,1,.4.4v1.4h0a6,6,0,0,1,5.08-2.24c4.12,0,6.68,3,6.68,7.16V27.24a.38.38,0,0,1-.4.4Z"/><path d="M69.8,27.88c-3.88,0-5.36-1.88-5.36-5.64V12.08a.21.21,0,0,0-.24-.24H62.92a.38.38,0,0,1-.4-.4V8.76a.38.38,0,0,1,.4-.4H64.2a.21.21,0,0,0,.24-.24V2.84a.38.38,0,0,1,.4-.4h3.68a.38.38,0,0,1,.4.4V8.12a.21.21,0,0,0,.24.24h2.56a.38.38,0,0,1,.4.4v2.68a.38.38,0,0,1-.4.4H69.16a.21.21,0,0,0-.24.24v10c0,1.36.56,1.8,1.8,1.8h1a.38.38,0,0,1,.4.4v3.2a.38.38,0,0,1-.4.4Z"/><path d="M87.68,27.64a.38.38,0,0,1-.4-.4v-1.4h0c-.92,1.32-2.72,2.24-5.44,2.24-3.52,0-6.48-1.84-6.48-5.88,0-4.2,3-6.12,7.72-6.12H87a.21.21,0,0,0,.24-.24v-.92c0-2.2-1-3.2-4.28-3.2A6.76,6.76,0,0,0,78.52,13,.36.36,0,0,1,78,13l-1.48-2.64a.37.37,0,0,1,.08-.52A11.25,11.25,0,0,1,83.4,7.92c5.88,0,8,2,8,6.72v12.6a.38.38,0,0,1-.4.4Zm-.48-6.48V19.68a.21.21,0,0,0-.24-.24h-3.2c-2.88,0-4.16.8-4.16,2.6,0,1.6,1.16,2.4,3.32,2.4C85.68,24.44,87.2,23.36,87.2,21.16Z"/><path d="M95.88,22.76a15.15,15.15,0,0,1-.6-4.76,15.15,15.15,0,0,1,.6-4.76c1.12-3.44,4.08-5.32,8-5.32a8.4,8.4,0,0,1,6.68,3,.39.39,0,0,1,0,.56L108,13.68a.36.36,0,0,1-.56-.08,4.37,4.37,0,0,0-3.56-1.68,3.54,3.54,0,0,0-3.6,2.52,11.33,11.33,0,0,0-.4,3.56,11.6,11.6,0,0,0,.4,3.6,3.55,3.55,0,0,0,3.6,2.48,4.37,4.37,0,0,0,3.56-1.68.36.36,0,0,1,.56,0l2.52,2.2c.2.16.16.36,0,.56a8.49,8.49,0,0,1-6.68,3C100,28.08,97,26.2,95.88,22.76Z"/><path d="M120.16,27.88c-3.88,0-5.36-1.88-5.36-5.64V12.08a.21.21,0,0,0-.24-.24h-1.28a.38.38,0,0,1-.4-.4V8.76a.38.38,0,0,1,.4-.4h1.28a.21.21,0,0,0,.24-.24V2.84a.38.38,0,0,1,.4-.4h3.68a.38.38,0,0,1,.4.4V8.12a.21.21,0,0,0,.24.24h2.56a.38.38,0,0,1,.4.4v2.68a.38.38,0,0,1-.4.4h-2.56a.21.21,0,0,0-.24.24v10c0,1.36.56,1.8,1.8,1.8h1a.38.38,0,0,1,.4.4v3.2a.38.38,0,0,1-.4.4Z"/><path d="M126.16,22.76a14.24,14.24,0,0,1-.64-4.76,14.24,14.24,0,0,1,.64-4.76c1.08-3.36,4-5.32,8-5.32s6.84,2,7.92,5.32a14.24,14.24,0,0,1,.64,4.76,14.24,14.24,0,0,1-.64,4.76c-1.08,3.36-4,5.32-7.92,5.32S127.24,26.12,126.16,22.76Zm11.56-1.2a10.89,10.89,0,0,0,.4-3.56,11,11,0,0,0-.4-3.56,3.56,3.56,0,0,0-3.6-2.52,3.61,3.61,0,0,0-3.64,2.52,11,11,0,0,0-.4,3.56,10.89,10.89,0,0,0,.4,3.56,3.61,3.61,0,0,0,3.64,2.52A3.56,3.56,0,0,0,137.72,21.56Z"/><path d="M154.88,22.76a15.15,15.15,0,0,1-.6-4.76,15.15,15.15,0,0,1,.6-4.76c1.12-3.44,4.08-5.32,8-5.32a8.4,8.4,0,0,1,6.68,3,.39.39,0,0,1,0,.56L167,13.68a.36.36,0,0,1-.56-.08,4.37,4.37,0,0,0-3.56-1.68,3.54,3.54,0,0,0-3.6,2.52,11.33,11.33,0,0,0-.4,3.56,11.6,11.6,0,0,0,.4,3.6,3.55,3.55,0,0,0,3.6,2.48,4.37,4.37,0,0,0,3.56-1.68.36.36,0,0,1,.56,0l2.52,2.2c.2.16.16.36,0,.56a8.49,8.49,0,0,1-6.68,3C159,28.08,156,26.2,154.88,22.76Z"/><path d="M173.12,22.76a14.24,14.24,0,0,1-.64-4.76,14.24,14.24,0,0,1,.64-4.76c1.08-3.36,4-5.32,8-5.32s6.83,2,7.91,5.32a14.24,14.24,0,0,1,.64,4.76,14.24,14.24,0,0,1-.64,4.76c-1.08,3.36-4,5.32-7.91,5.32S174.2,26.12,173.12,22.76Zm11.56-1.2a10.89,10.89,0,0,0,.4-3.56,11,11,0,0,0-.4-3.56,3.56,3.56,0,0,0-3.6-2.52,3.61,3.61,0,0,0-3.64,2.52A11,11,0,0,0,177,18a10.89,10.89,0,0,0,.4,3.56,3.61,3.61,0,0,0,3.64,2.52A3.56,3.56,0,0,0,184.68,21.56Z"/><path d="M205.84,27.64a.38.38,0,0,1-.4-.4V16.12c0-2.48-1.24-4.2-3.64-4.2s-3.68,1.72-3.68,4.2V27.24a.38.38,0,0,1-.4.4H194a.38.38,0,0,1-.4-.4V8.76a.38.38,0,0,1,.4-.4h3.68a.38.38,0,0,1,.4.4v1.4h0a6,6,0,0,1,5.08-2.24c4.11,0,6.67,3,6.67,7.16V27.24a.38.38,0,0,1-.4.4Z"/><path d="M235.27,27.64a.38.38,0,0,1-.4-.4V25.8h0c-.92,1.32-2.52,2.28-5.12,2.28A6.47,6.47,0,0,1,223,23.44a16.07,16.07,0,0,1-.68-5.44,16.07,16.07,0,0,1,.68-5.44,6.47,6.47,0,0,1,6.67-4.64c2.6,0,4.2,1,5.12,2.28h0V.84a.38.38,0,0,1,.4-.4H239a.38.38,0,0,1,.4.4v26.4a.38.38,0,0,1-.4.4Zm-.8-6a11.37,11.37,0,0,0,.4-3.6,11.37,11.37,0,0,0-.4-3.6,3.82,3.82,0,0,0-7.15,0,11.37,11.37,0,0,0-.4,3.6,11.37,11.37,0,0,0,.4,3.6,3.82,3.82,0,0,0,7.15,0Z"/><path d="M244.8,4.72a.38.38,0,0,1-.4-.4V.84a.38.38,0,0,1,.4-.4h3.68a.38.38,0,0,1,.4.4V4.32a.38.38,0,0,1-.4.4Zm0,22.92a.38.38,0,0,1-.4-.4V8.76a.38.38,0,0,1,.4-.4h3.68a.38.38,0,0,1,.4.4V27.24a.38.38,0,0,1-.4.4Z"/><path d="M254.92,27.64a.38.38,0,0,1-.4-.4V12.08a.21.21,0,0,0-.24-.24H253a.38.38,0,0,1-.4-.4V8.76a.38.38,0,0,1,.4-.4h1.28a.21.21,0,0,0,.24-.24V6.88c0-4.48,2.2-6.44,6.39-6.44h1.76a.38.38,0,0,1,.4.4V4a.38.38,0,0,1-.4.4h-1.24c-2,0-2.44.48-2.44,2.36V8.12a.21.21,0,0,0,.24.24h3.44a.38.38,0,0,1,.4.4v2.68a.38.38,0,0,1-.4.4h-3.44a.21.21,0,0,0-.24.24V27.24a.38.38,0,0,1-.4.4Z"/><path d="M265.88,22.72A15,15,0,0,1,265.2,18a15.36,15.36,0,0,1,.64-4.76c1.08-3.36,4-5.32,7.87-5.32s6.84,2,7.92,5.32a17.27,17.27,0,0,1,.64,5.8.39.39,0,0,1-.44.4H270a.21.21,0,0,0-.24.24,4.24,4.24,0,0,0,.28,1.48,4.21,4.21,0,0,0,4.32,2.92,5.81,5.81,0,0,0,4.52-1.84.41.41,0,0,1,.6-.08l2.36,2.08a.36.36,0,0,1,0,.56,10.16,10.16,0,0,1-7.92,3.28C269.83,28.08,267,26.08,265.88,22.72Zm11.63-8.52a4.12,4.12,0,0,0-7.56,0,4.89,4.89,0,0,0-.24,1.64.21.21,0,0,0,.24.24h7.56a.21.21,0,0,0,.24-.24A4.89,4.89,0,0,0,277.51,14.2Z"/><path d="M286.67,27.64a.38.38,0,0,1-.4-.4V8.76a.38.38,0,0,1,.4-.4h3.68a.38.38,0,0,1,.4.4V10.4h0a5.52,5.52,0,0,1,5-2.48,5.82,5.82,0,0,1,4,1.6c.2.2.24.36.08.56l-2.12,2.68a.36.36,0,0,1-.56.08,5.21,5.21,0,0,0-2.84-.92c-2.52,0-3.64,1.8-3.64,4.88V27.24a.38.38,0,0,1-.4.4Z"/><path d="M301.63,22.72A15,15,0,0,1,301,18a15.4,15.4,0,0,1,.63-4.76c1.08-3.36,4-5.32,7.88-5.32s6.84,2,7.92,5.32A17.27,17.27,0,0,1,318,19a.39.39,0,0,1-.44.4H305.71a.21.21,0,0,0-.24.24,4.24,4.24,0,0,0,.28,1.48,4.21,4.21,0,0,0,4.32,2.92,5.81,5.81,0,0,0,4.52-1.84.41.41,0,0,1,.6-.08l2.36,2.08a.36.36,0,0,1,0,.56,10.16,10.16,0,0,1-7.92,3.28C305.59,28.08,302.71,26.08,301.63,22.72Zm11.64-8.52a4.12,4.12,0,0,0-7.56,0,4.89,4.89,0,0,0-.24,1.64.21.21,0,0,0,.24.24h7.56a.21.21,0,0,0,.24-.24A4.89,4.89,0,0,0,313.27,14.2Z"/><path d="M334.23,27.64a.38.38,0,0,1-.4-.4V16.12c0-2.48-1.24-4.2-3.64-4.2s-3.68,1.72-3.68,4.2V27.24a.38.38,0,0,1-.4.4h-3.68a.38.38,0,0,1-.4-.4V8.76a.38.38,0,0,1,.4-.4h3.68a.38.38,0,0,1,.4.4v1.4h0a6,6,0,0,1,5.08-2.24c4.12,0,6.68,3,6.68,7.16V27.24a.38.38,0,0,1-.4.4Z"/><path d="M348.79,27.88c-3.88,0-5.36-1.88-5.36-5.64V12.08a.21.21,0,0,0-.24-.24h-1.28a.38.38,0,0,1-.4-.4V8.76a.38.38,0,0,1,.4-.4h1.28a.21.21,0,0,0,.24-.24V2.84a.38.38,0,0,1,.4-.4h3.68a.38.38,0,0,1,.4.4V8.12a.21.21,0,0,0,.24.24h2.56a.38.38,0,0,1,.4.4v2.68a.38.38,0,0,1-.4.4h-2.56a.21.21,0,0,0-.24.24v10c0,1.36.56,1.8,1.8,1.8h1a.38.38,0,0,1,.4.4v3.2a.38.38,0,0,1-.4.4Z"/><path d="M354.83,22.72a15,15,0,0,1-.68-4.72,15.36,15.36,0,0,1,.64-4.76c1.08-3.36,4-5.32,7.88-5.32s6.84,2,7.92,5.32a17.27,17.27,0,0,1,.64,5.8.39.39,0,0,1-.44.4H358.91a.21.21,0,0,0-.24.24,4.24,4.24,0,0,0,.28,1.48,4.21,4.21,0,0,0,4.32,2.92,5.81,5.81,0,0,0,4.52-1.84.41.41,0,0,1,.6-.08l2.36,2.08a.36.36,0,0,1,0,.56,10.16,10.16,0,0,1-7.92,3.28C358.79,28.08,355.91,26.08,354.83,22.72Zm11.64-8.52a4.12,4.12,0,0,0-7.56,0,4.89,4.89,0,0,0-.24,1.64.21.21,0,0,0,.24.24h7.56a.21.21,0,0,0,.24-.24A4.89,4.89,0,0,0,366.47,14.2Z"/><path d="M374.07,25a.39.39,0,0,1,0-.56l2.28-2.4a.39.39,0,0,1,.56,0,8.92,8.92,0,0,0,5.64,2.2c2.36,0,3.56-1,3.56-2.28,0-1.16-.68-1.88-3.2-2.12l-2.08-.2c-3.92-.4-5.92-2.4-5.92-5.68,0-3.72,2.68-6.08,7.48-6.08a11.69,11.69,0,0,1,7.24,2.36.4.4,0,0,1,.08.56l-2,2.36a.39.39,0,0,1-.56.08,9.31,9.31,0,0,0-5-1.6c-1.92,0-2.92.84-2.92,2s.68,1.8,3.16,2l2.08.2c4,.4,6,2.48,6,5.64,0,3.84-2.8,6.52-8.08,6.52A12,12,0,0,1,374.07,25Z"/><path d="M402.63,22.72A15,15,0,0,1,402,18a15.36,15.36,0,0,1,.64-4.76c1.08-3.36,4-5.32,7.88-5.32s6.84,2,7.92,5.32A17.27,17.27,0,0,1,419,19a.39.39,0,0,1-.44.4H406.71a.21.21,0,0,0-.24.24,4.24,4.24,0,0,0,.28,1.48,4.21,4.21,0,0,0,4.32,2.92,5.81,5.81,0,0,0,4.52-1.84.41.41,0,0,1,.6-.08l2.36,2.08a.36.36,0,0,1,0,.56,10.16,10.16,0,0,1-7.92,3.28C406.59,28.08,403.71,26.08,402.63,22.72Zm11.64-8.52a4.12,4.12,0,0,0-7.56,0,4.89,4.89,0,0,0-.24,1.64.21.21,0,0,0,.24.24h7.56a.21.21,0,0,0,.24-.24A4.89,4.89,0,0,0,414.27,14.2Z"/><path d="M421.87,25a.39.39,0,0,1,0-.56l2.28-2.4a.39.39,0,0,1,.56,0,8.92,8.92,0,0,0,5.64,2.2c2.36,0,3.56-1,3.56-2.28,0-1.16-.68-1.88-3.2-2.12l-2.08-.2c-3.92-.4-5.92-2.4-5.92-5.68,0-3.72,2.68-6.08,7.48-6.08a11.69,11.69,0,0,1,7.24,2.36.4.4,0,0,1,.08.56l-2,2.36a.39.39,0,0,1-.56.08,9.31,9.31,0,0,0-5-1.6c-1.92,0-2.92.84-2.92,2s.68,1.8,3.16,2l2.08.2c4,.4,6,2.48,6,5.64,0,3.84-2.8,6.52-8.08,6.52A12,12,0,0,1,421.87,25Z"/><path d="M442.55,34.83a.38.38,0,0,1-.4-.4V8.76a.38.38,0,0,1,.4-.4h3.68a.38.38,0,0,1,.4.4V10.2h0c.92-1.32,2.52-2.28,5.12-2.28,3.28,0,5.68,1.56,6.68,4.64a16.07,16.07,0,0,1,.68,5.44,16.07,16.07,0,0,1-.68,5.44c-1,3.08-3.4,4.64-6.68,4.64-2.6,0-4.2-1-5.12-2.28h0v8.63a.38.38,0,0,1-.4.4ZM454.19,21.6a11.37,11.37,0,0,0,.4-3.6,11.37,11.37,0,0,0-.4-3.6,3.82,3.82,0,0,0-7.16,0,11.37,11.37,0,0,0-.4,3.6,11.37,11.37,0,0,0,.4,3.6,3.82,3.82,0,0,0,7.16,0Z"/><path d="M462.79,22.72a15,15,0,0,1-.68-4.72,15.36,15.36,0,0,1,.64-4.76c1.08-3.36,4-5.32,7.88-5.32s6.84,2,7.92,5.32a17.27,17.27,0,0,1,.64,5.8.39.39,0,0,1-.44.4H466.87a.21.21,0,0,0-.24.24,4.24,4.24,0,0,0,.28,1.48,4.21,4.21,0,0,0,4.32,2.92,5.81,5.81,0,0,0,4.52-1.84.41.41,0,0,1,.6-.08l2.36,2.08a.36.36,0,0,1,0,.56,10.16,10.16,0,0,1-7.92,3.28C466.75,28.08,463.87,26.08,462.79,22.72Zm11.64-8.52a4.12,4.12,0,0,0-7.56,0,4.89,4.89,0,0,0-.24,1.64.21.21,0,0,0,.24.24h7.56a.21.21,0,0,0,.24-.24A4.89,4.89,0,0,0,474.43,14.2Z"/><path d="M482.75,22.76a15.15,15.15,0,0,1-.6-4.76,15.15,15.15,0,0,1,.6-4.76c1.12-3.44,4.08-5.32,8-5.32a8.4,8.4,0,0,1,6.68,3,.39.39,0,0,1,0,.56l-2.52,2.2a.36.36,0,0,1-.56-.08,4.37,4.37,0,0,0-3.56-1.68,3.54,3.54,0,0,0-3.6,2.52,11.33,11.33,0,0,0-.4,3.56,11.6,11.6,0,0,0,.4,3.6,3.55,3.55,0,0,0,3.6,2.48,4.37,4.37,0,0,0,3.56-1.68.36.36,0,0,1,.56,0l2.52,2.2c.2.16.16.36,0,.56a8.49,8.49,0,0,1-6.68,3C486.83,28.08,483.87,26.2,482.75,22.76Z"/><path d="M501.79,4.72a.38.38,0,0,1-.4-.4V.84a.38.38,0,0,1,.4-.4h3.68a.38.38,0,0,1,.4.4V4.32a.38.38,0,0,1-.4.4Zm0,22.92a.38.38,0,0,1-.4-.4V8.76a.38.38,0,0,1,.4-.4h3.68a.38.38,0,0,1,.4.4V27.24a.38.38,0,0,1-.4.4Z"/><path d="M510.55,22.72a15,15,0,0,1-.68-4.72,15.36,15.36,0,0,1,.64-4.76c1.08-3.36,4-5.32,7.88-5.32s6.84,2,7.92,5.32A17.27,17.27,0,0,1,527,19a.39.39,0,0,1-.44.4H514.63a.21.21,0,0,0-.24.24,4.24,4.24,0,0,0,.28,1.48A4.21,4.21,0,0,0,519,24.08a5.81,5.81,0,0,0,4.52-1.84.41.41,0,0,1,.6-.08l2.36,2.08a.36.36,0,0,1,0,.56,10.16,10.16,0,0,1-7.92,3.28C514.51,28.08,511.63,26.08,510.55,22.72Zm11.64-8.52a4.12,4.12,0,0,0-7.56,0,4.89,4.89,0,0,0-.24,1.64.21.21,0,0,0,.24.24h7.56a.21.21,0,0,0,.24-.24A4.89,4.89,0,0,0,522.19,14.2Z"/><path d="M529.79,25a.39.39,0,0,1,0-.56l2.28-2.4a.39.39,0,0,1,.56,0,8.92,8.92,0,0,0,5.64,2.2c2.36,0,3.56-1,3.56-2.28,0-1.16-.68-1.88-3.2-2.12l-2.08-.2c-3.92-.4-5.92-2.4-5.92-5.68,0-3.72,2.68-6.08,7.48-6.08a11.69,11.69,0,0,1,7.24,2.36.4.4,0,0,1,.08.56l-2,2.36a.39.39,0,0,1-.56.08,9.31,9.31,0,0,0-5-1.6c-1.92,0-2.92.84-2.92,2s.68,1.8,3.16,2l2.08.2c4,.4,6,2.48,6,5.64,0,3.84-2.8,6.52-8.08,6.52A12,12,0,0,1,529.79,25Z"/><path d="M18.26,65.64a.38.38,0,0,1-.4-.4V63.8h0c-.92,1.32-2.52,2.28-5.12,2.28C9.42,66.08,7,64.52,6,61.44A16.07,16.07,0,0,1,5.34,56,16.07,16.07,0,0,1,6,50.56c1-3.08,3.4-4.64,6.68-4.64,2.6,0,4.2,1,5.12,2.28h0V38.84a.38.38,0,0,1,.4-.4h3.68a.38.38,0,0,1,.4.4v26.4a.38.38,0,0,1-.4.4Zm-.8-6a11.37,11.37,0,0,0,.4-3.6,11.37,11.37,0,0,0-.4-3.6,3.47,3.47,0,0,0-3.6-2.48A3.45,3.45,0,0,0,10.3,52.4,11.37,11.37,0,0,0,9.9,56a11.37,11.37,0,0,0,.4,3.6,3.45,3.45,0,0,0,3.56,2.48A3.47,3.47,0,0,0,17.46,59.6Z"/><path d="M39.22,65.64a.38.38,0,0,1-.4-.4v-1.4h0a5.91,5.91,0,0,1-5,2.24c-4.12,0-6.64-3-6.64-7.16V46.76a.38.38,0,0,1,.4-.4h3.68a.38.38,0,0,1,.4.4V57.88c0,2.48,1.16,4.2,3.6,4.2,2.28,0,3.6-1.72,3.6-4.16V46.76a.38.38,0,0,1,.4-.4H42.9a.38.38,0,0,1,.4.4V65.24a.38.38,0,0,1-.4.4Z"/><path d="M48.74,65.64a.38.38,0,0,1-.4-.4V46.76a.38.38,0,0,1,.4-.4h3.68a.38.38,0,0,1,.4.4V48.4h0a5.52,5.52,0,0,1,5-2.48,5.82,5.82,0,0,1,4,1.6c.2.2.24.36.08.56l-2.12,2.68a.36.36,0,0,1-.56.08,5.21,5.21,0,0,0-2.84-.92c-2.52,0-3.64,1.8-3.64,4.88V65.24a.38.38,0,0,1-.4.4Z"/><path d="M75.22,65.64a.38.38,0,0,1-.4-.4v-1.4h0c-.92,1.32-2.72,2.24-5.44,2.24-3.52,0-6.48-1.84-6.48-5.88,0-4.2,3-6.12,7.72-6.12H74.5a.21.21,0,0,0,.24-.24v-.92c0-2.2-1-3.2-4.28-3.2A6.76,6.76,0,0,0,66.06,51,.36.36,0,0,1,65.5,51L64,48.32a.37.37,0,0,1,.08-.52,11.25,11.25,0,0,1,6.84-1.88c5.88,0,8,2,8,6.72v12.6a.38.38,0,0,1-.4.4Zm-.48-6.48V57.68a.21.21,0,0,0-.24-.24H71.3c-2.88,0-4.16.8-4.16,2.6,0,1.6,1.16,2.4,3.32,2.4C73.22,62.44,74.74,61.36,74.74,59.16Z"/><path d="M96.06,65.64a.38.38,0,0,1-.4-.4V54.12c0-2.48-1.24-4.2-3.64-4.2s-3.68,1.72-3.68,4.2V65.24a.38.38,0,0,1-.4.4H84.26a.38.38,0,0,1-.4-.4V46.76a.38.38,0,0,1,.4-.4h3.68a.38.38,0,0,1,.4.4v1.4h0a6,6,0,0,1,5.08-2.24c4.12,0,6.68,3,6.68,7.16V65.24a.38.38,0,0,1-.4.4Z"/><path d="M110.62,65.88c-3.88,0-5.36-1.88-5.36-5.64V50.08a.21.21,0,0,0-.24-.24h-1.28a.38.38,0,0,1-.4-.4V46.76a.38.38,0,0,1,.4-.4H105a.21.21,0,0,0,.24-.24V40.84a.38.38,0,0,1,.4-.4h3.68a.38.38,0,0,1,.4.4v5.28a.21.21,0,0,0,.24.24h2.56a.38.38,0,0,1,.4.4v2.68a.38.38,0,0,1-.4.4H110a.21.21,0,0,0-.24.24v10c0,1.36.56,1.8,1.8,1.8h1a.38.38,0,0,1,.4.4v3.2a.38.38,0,0,1-.4.4Z"/><path d="M116.66,60.72A15,15,0,0,1,116,56a15.36,15.36,0,0,1,.64-4.76c1.08-3.36,4-5.32,7.88-5.32s6.84,2,7.92,5.32a17.27,17.27,0,0,1,.64,5.8.39.39,0,0,1-.44.4H120.74a.21.21,0,0,0-.24.24,4.48,4.48,0,0,0,4.6,4.4,5.81,5.81,0,0,0,4.52-1.84.41.41,0,0,1,.6-.08l2.36,2.08a.36.36,0,0,1,0,.56,10.16,10.16,0,0,1-7.92,3.28C120.62,66.08,117.74,64.08,116.66,60.72ZM128.3,52.2a4.12,4.12,0,0,0-7.56,0,4.89,4.89,0,0,0-.24,1.64.21.21,0,0,0,.24.24h7.56a.21.21,0,0,0,.24-.24A4.89,4.89,0,0,0,128.3,52.2Z"/><path d="M145.34,60.72a15,15,0,0,1-.68-4.72,15.36,15.36,0,0,1,.64-4.76c1.08-3.36,4-5.32,7.88-5.32s6.84,2,7.92,5.32a17.27,17.27,0,0,1,.64,5.8.39.39,0,0,1-.44.4H149.42a.21.21,0,0,0-.24.24,4.48,4.48,0,0,0,4.6,4.4,5.81,5.81,0,0,0,4.52-1.84.41.41,0,0,1,.6-.08l2.36,2.08a.36.36,0,0,1,0,.56,10.16,10.16,0,0,1-7.92,3.28C149.3,66.08,146.42,64.08,145.34,60.72ZM157,52.2a4.12,4.12,0,0,0-7.56,0,4.89,4.89,0,0,0-.24,1.64.21.21,0,0,0,.24.24H157a.21.21,0,0,0,.24-.24A4.89,4.89,0,0,0,157,52.2Z"/><path d="M170.94,65.88c-3.76,0-5.28-1.8-5.28-5.52V38.84a.38.38,0,0,1,.4-.4h3.68a.38.38,0,0,1,.4.4V60.12c0,1.32.52,1.76,1.68,1.76h.88a.38.38,0,0,1,.4.4v3.2a.38.38,0,0,1-.4.4Z"/><path d="M197.09,65.64a.38.38,0,0,1-.4-.4V63.8h0c-.92,1.32-2.51,2.28-5.11,2.28-3.28,0-5.68-1.56-6.68-4.64a16.07,16.07,0,0,1-.68-5.44,16.07,16.07,0,0,1,.68-5.44c1-3.08,3.4-4.64,6.68-4.64,2.6,0,4.19,1,5.11,2.28h0V38.84a.38.38,0,0,1,.4-.4h3.68a.38.38,0,0,1,.4.4v26.4a.38.38,0,0,1-.4.4Zm-.8-6a11.08,11.08,0,0,0,.4-3.6,11.08,11.08,0,0,0-.4-3.6,3.82,3.82,0,0,0-7.15,0,11.37,11.37,0,0,0-.4,3.6,11.37,11.37,0,0,0,.4,3.6,3.82,3.82,0,0,0,7.15,0Z"/><path d="M205.86,60.72a15,15,0,0,1-.68-4.72,15.36,15.36,0,0,1,.64-4.76c1.08-3.36,4-5.32,7.88-5.32s6.83,2,7.91,5.32a17.27,17.27,0,0,1,.64,5.8.39.39,0,0,1-.44.4H209.94a.21.21,0,0,0-.24.24,4.48,4.48,0,0,0,4.59,4.4,5.81,5.81,0,0,0,4.52-1.84.41.41,0,0,1,.6-.08l2.36,2.08a.36.36,0,0,1,0,.56,10.15,10.15,0,0,1-7.91,3.28C209.82,66.08,206.94,64.08,205.86,60.72Zm11.63-8.52a4.11,4.11,0,0,0-7.55,0,4.89,4.89,0,0,0-.24,1.64.21.21,0,0,0,.24.24h7.55a.21.21,0,0,0,.24-.24A4.89,4.89,0,0,0,217.49,52.2Z"/><path d="M225.1,63a.39.39,0,0,1,0-.56l2.28-2.4a.39.39,0,0,1,.56,0,8.92,8.92,0,0,0,5.64,2.2c2.35,0,3.55-1,3.55-2.28,0-1.16-.68-1.88-3.19-2.12l-2.08-.2c-3.92-.4-5.92-2.4-5.92-5.68,0-3.72,2.68-6.08,7.48-6.08a11.68,11.68,0,0,1,7.23,2.36.4.4,0,0,1,.08.56l-2,2.36a.39.39,0,0,1-.56.08,9.3,9.3,0,0,0-5-1.6c-1.92,0-2.92.84-2.92,2s.68,1.8,3.16,2l2.07.2c4,.4,6,2.48,6,5.64,0,3.84-2.8,6.52-8.07,6.52A12,12,0,0,1,225.1,63Z"/><path d="M256.85,65.64a.38.38,0,0,1-.4-.4v-1.4h0c-.92,1.32-2.72,2.24-5.44,2.24-3.51,0-6.47-1.84-6.47-5.88,0-4.2,3-6.12,7.71-6.12h3.92a.21.21,0,0,0,.24-.24v-.92c0-2.2-1-3.2-4.28-3.2A6.73,6.73,0,0,0,247.7,51a.36.36,0,0,1-.56-.08l-1.48-2.64a.37.37,0,0,1,.08-.52,11.24,11.24,0,0,1,6.83-1.88c5.88,0,8,2,8,6.72v12.6a.38.38,0,0,1-.4.4Zm-.48-6.48V57.68a.21.21,0,0,0-.24-.24h-3.2c-2.88,0-4.16.8-4.16,2.6,0,1.6,1.16,2.4,3.32,2.4C254.85,62.44,256.37,61.36,256.37,59.16Z"/><path d="M265.9,65.64a.38.38,0,0,1-.4-.4V46.76a.38.38,0,0,1,.4-.4h3.68a.38.38,0,0,1,.4.4V48.4h0a5.49,5.49,0,0,1,5-2.48,5.82,5.82,0,0,1,4,1.6c.2.2.24.36.08.56L277,50.76a.36.36,0,0,1-.56.08,5.21,5.21,0,0,0-2.84-.92c-2.52,0-3.63,1.8-3.63,4.88V65.24a.38.38,0,0,1-.4.4Z"/><path d="M282,65.64a.38.38,0,0,1-.4-.4V46.76a.38.38,0,0,1,.4-.4h3.67a.38.38,0,0,1,.4.4V48.4h0a5.52,5.52,0,0,1,5-2.48,5.82,5.82,0,0,1,4,1.6c.2.2.24.36.08.56l-2.12,2.68a.36.36,0,0,1-.56.08,5.21,5.21,0,0,0-2.84-.92c-2.52,0-3.64,1.8-3.64,4.88V65.24a.38.38,0,0,1-.4.4Z"/><path d="M296.93,60.76a14.24,14.24,0,0,1-.64-4.76,14.24,14.24,0,0,1,.64-4.76c1.08-3.36,4-5.32,8-5.32s6.84,2,7.92,5.32a14.24,14.24,0,0,1,.64,4.76,14.24,14.24,0,0,1-.64,4.76c-1.08,3.36-4,5.32-7.92,5.32S298,64.12,296.93,60.76Zm11.56-1.2a10.89,10.89,0,0,0,.4-3.56,11,11,0,0,0-.4-3.56,3.56,3.56,0,0,0-3.6-2.52,3.61,3.61,0,0,0-3.64,2.52,11,11,0,0,0-.4,3.56,10.89,10.89,0,0,0,.4,3.56,3.61,3.61,0,0,0,3.64,2.52A3.56,3.56,0,0,0,308.49,59.56Z"/><path d="M322.65,65.88c-3.76,0-5.28-1.8-5.28-5.52V38.84a.38.38,0,0,1,.4-.4h3.68a.38.38,0,0,1,.4.4V60.12c0,1.32.52,1.76,1.68,1.76h.88a.38.38,0,0,1,.4.4v3.2a.38.38,0,0,1-.4.4Z"/><path d="M333.37,65.88c-3.76,0-5.28-1.8-5.28-5.52V38.84a.38.38,0,0,1,.4-.4h3.68a.38.38,0,0,1,.4.4V60.12c0,1.32.52,1.76,1.68,1.76h.88a.38.38,0,0,1,.4.4v3.2a.38.38,0,0,1-.4.4Z"/><path d="M338.61,60.76A14.24,14.24,0,0,1,338,56a14.24,14.24,0,0,1,.64-4.76c1.08-3.36,4-5.32,8-5.32s6.84,2,7.92,5.32a14.24,14.24,0,0,1,.64,4.76,14.24,14.24,0,0,1-.64,4.76c-1.08,3.36-4,5.32-7.92,5.32S339.69,64.12,338.61,60.76Zm11.56-1.2a10.89,10.89,0,0,0,.4-3.56,11,11,0,0,0-.4-3.56,3.56,3.56,0,0,0-3.6-2.52,3.61,3.61,0,0,0-3.64,2.52,11,11,0,0,0-.4,3.56,10.89,10.89,0,0,0,.4,3.56,3.61,3.61,0,0,0,3.64,2.52A3.56,3.56,0,0,0,350.17,59.56Z"/><path d="M379.65,65.64a.38.38,0,0,1-.4-.4V63.8h0c-.92,1.32-2.52,2.28-5.12,2.28-3.28,0-5.68-1.56-6.68-4.64a16.07,16.07,0,0,1-.68-5.44,16.07,16.07,0,0,1,.68-5.44c1-3.08,3.4-4.64,6.68-4.64,2.6,0,4.2,1,5.12,2.28h0V38.84a.38.38,0,0,1,.4-.4h3.68a.38.38,0,0,1,.4.4v26.4a.38.38,0,0,1-.4.4Zm-.8-6a11.37,11.37,0,0,0,.4-3.6,11.37,11.37,0,0,0-.4-3.6,3.82,3.82,0,0,0-7.16,0,11.37,11.37,0,0,0-.4,3.6,11.37,11.37,0,0,0,.4,3.6,3.82,3.82,0,0,0,7.16,0Z"/><path d="M388.41,60.72a15,15,0,0,1-.68-4.72,15.36,15.36,0,0,1,.64-4.76c1.08-3.36,4-5.32,7.88-5.32s6.84,2,7.92,5.32a17.27,17.27,0,0,1,.64,5.8.39.39,0,0,1-.44.4H392.49a.21.21,0,0,0-.24.24,4.48,4.48,0,0,0,4.6,4.4,5.81,5.81,0,0,0,4.52-1.84.41.41,0,0,1,.6-.08l2.36,2.08a.36.36,0,0,1,0,.56,10.16,10.16,0,0,1-7.92,3.28C392.37,66.08,389.49,64.08,388.41,60.72Zm11.64-8.52a4.12,4.12,0,0,0-7.56,0,4.89,4.89,0,0,0-.24,1.64.21.21,0,0,0,.24.24h7.56a.21.21,0,0,0,.24-.24A4.89,4.89,0,0,0,400.05,52.2Z"/><path d="M422.65,65.88c-3.76,0-5.28-1.8-5.28-5.52V38.84a.38.38,0,0,1,.4-.4h3.68a.38.38,0,0,1,.4.4V60.12c0,1.32.52,1.76,1.68,1.76h.88a.38.38,0,0,1,.4.4v3.2a.38.38,0,0,1-.4.4Z"/><path d="M439.77,65.64a.38.38,0,0,1-.4-.4v-1.4h0c-.92,1.32-2.72,2.24-5.44,2.24-3.52,0-6.48-1.84-6.48-5.88,0-4.2,3-6.12,7.72-6.12h3.92a.21.21,0,0,0,.24-.24v-.92c0-2.2-1-3.2-4.28-3.2a6.76,6.76,0,0,0-4.4,1.32.36.36,0,0,1-.56-.08l-1.48-2.64a.37.37,0,0,1,.08-.52,11.25,11.25,0,0,1,6.84-1.88c5.88,0,8,2,8,6.72v12.6a.38.38,0,0,1-.4.4Zm-.48-6.48V57.68a.21.21,0,0,0-.24-.24h-3.2c-2.88,0-4.16.8-4.16,2.6,0,1.6,1.16,2.4,3.32,2.4C437.77,62.44,439.29,61.36,439.29,59.16Z"/><path d="M452.93,63.8h0v1.44a.38.38,0,0,1-.4.4h-3.68a.38.38,0,0,1-.4-.4V38.84a.38.38,0,0,1,.4-.4h3.68a.38.38,0,0,1,.4.4V48.2h0c.92-1.32,2.52-2.28,5.12-2.28,3.28,0,5.68,1.56,6.68,4.64a16.07,16.07,0,0,1,.68,5.44,16.07,16.07,0,0,1-.68,5.44c-1,3.08-3.4,4.64-6.68,4.64C455.45,66.08,453.85,65.12,452.93,63.8Zm7.52-4.2a11.37,11.37,0,0,0,.4-3.6,11.37,11.37,0,0,0-.4-3.6,3.82,3.82,0,0,0-7.16,0,11.37,11.37,0,0,0-.4,3.6,11.37,11.37,0,0,0,.4,3.6,3.82,3.82,0,0,0,7.16,0Z"/><path d="M469,60.76a14.24,14.24,0,0,1-.64-4.76,14.24,14.24,0,0,1,.64-4.76c1.08-3.36,4-5.32,8-5.32s6.84,2,7.92,5.32a14.24,14.24,0,0,1,.64,4.76,14.24,14.24,0,0,1-.64,4.76c-1.08,3.36-4,5.32-7.92,5.32S470.09,64.12,469,60.76Zm11.56-1.2A10.89,10.89,0,0,0,481,56a11,11,0,0,0-.4-3.56,3.56,3.56,0,0,0-3.6-2.52,3.61,3.61,0,0,0-3.64,2.52,11,11,0,0,0-.4,3.56,10.89,10.89,0,0,0,.4,3.56A3.61,3.61,0,0,0,477,62.08,3.56,3.56,0,0,0,480.57,59.56Z"/><path d="M489.93,65.64a.38.38,0,0,1-.4-.4V46.76a.38.38,0,0,1,.4-.4h3.68a.38.38,0,0,1,.4.4V48.4h0a5.52,5.52,0,0,1,5-2.48,5.82,5.82,0,0,1,4,1.6c.2.2.24.36.08.56l-2.12,2.68a.36.36,0,0,1-.56.08,5.21,5.21,0,0,0-2.84-.92c-2.52,0-3.64,1.8-3.64,4.88V65.24a.38.38,0,0,1-.4.4Z"/><path d="M504.89,60.72a15,15,0,0,1-.68-4.72,15.36,15.36,0,0,1,.64-4.76c1.08-3.36,4-5.32,7.88-5.32s6.84,2,7.92,5.32a17.27,17.27,0,0,1,.64,5.8.39.39,0,0,1-.44.4H509a.21.21,0,0,0-.24.24,4.48,4.48,0,0,0,4.6,4.4,5.81,5.81,0,0,0,4.52-1.84.41.41,0,0,1,.6-.08l2.36,2.08a.36.36,0,0,1,0,.56,10.16,10.16,0,0,1-7.92,3.28C508.85,66.08,506,64.08,504.89,60.72Zm11.64-8.52a4.12,4.12,0,0,0-7.56,0,4.89,4.89,0,0,0-.24,1.64.21.21,0,0,0,.24.24h7.56a.21.21,0,0,0,.24-.24A4.89,4.89,0,0,0,516.53,52.2Z"/><path d="M524.13,63a.39.39,0,0,1,0-.56l2.28-2.4a.39.39,0,0,1,.56,0,8.92,8.92,0,0,0,5.64,2.2c2.36,0,3.56-1,3.56-2.28,0-1.16-.68-1.88-3.2-2.12l-2.08-.2C527,57.28,525,55.28,525,52c0-3.72,2.68-6.08,7.48-6.08a11.69,11.69,0,0,1,7.24,2.36.4.4,0,0,1,.08.56l-2,2.36a.39.39,0,0,1-.56.08,9.31,9.31,0,0,0-5-1.6c-1.92,0-2.92.84-2.92,2s.68,1.8,3.16,2l2.08.2c4,.4,6,2.48,6,5.64,0,3.84-2.8,6.52-8.08,6.52A12,12,0,0,1,524.13,63Z"/><path d="M190.06,98.72a15,15,0,0,1-.68-4.72,15.36,15.36,0,0,1,.64-4.76c1.08-3.36,4-5.32,7.88-5.32s6.83,2,7.91,5.32a17.27,17.27,0,0,1,.64,5.8.39.39,0,0,1-.44.4H194.14a.21.21,0,0,0-.24.24,4.48,4.48,0,0,0,4.6,4.4A5.8,5.8,0,0,0,203,98.24a.41.41,0,0,1,.6-.08l2.36,2.08a.36.36,0,0,1,0,.56,10.15,10.15,0,0,1-7.91,3.28C194,104.08,191.14,102.08,190.06,98.72Zm11.63-8.52a4.11,4.11,0,0,0-7.55,0,4.89,4.89,0,0,0-.24,1.64.21.21,0,0,0,.24.24h7.55a.21.21,0,0,0,.24-.24A4.89,4.89,0,0,0,201.69,90.2Z"/><path d="M222.65,103.64a.38.38,0,0,1-.4-.4V92.12c0-2.48-1.24-4.2-3.63-4.2s-3.68,1.72-3.68,4.2v11.12a.38.38,0,0,1-.4.4h-3.68a.38.38,0,0,1-.4-.4V84.76a.38.38,0,0,1,.4-.4h3.68a.38.38,0,0,1,.4.4v1.4h0a6,6,0,0,1,5.08-2.24c4.11,0,6.67,3,6.67,7.16v12.16a.38.38,0,0,1-.4.4Z"/><path d="M239.78,98.76a15.15,15.15,0,0,1-.6-4.76,15.15,15.15,0,0,1,.6-4.76c1.12-3.44,4.07-5.32,7.95-5.32a8.4,8.4,0,0,1,6.68,3,.39.39,0,0,1,0,.56l-2.52,2.2a.36.36,0,0,1-.56-.08,4.37,4.37,0,0,0-3.56-1.68,3.54,3.54,0,0,0-3.6,2.52,11.33,11.33,0,0,0-.4,3.56,11.6,11.6,0,0,0,.4,3.6,3.55,3.55,0,0,0,3.6,2.48,4.37,4.37,0,0,0,3.56-1.68.36.36,0,0,1,.56,0l2.52,2.2c.2.16.16.36,0,.56a8.49,8.49,0,0,1-6.68,3C243.85,104.08,240.9,102.2,239.78,98.76Z"/><path d="M269.17,103.64a.38.38,0,0,1-.4-.4v-1.4h0c-.92,1.32-2.72,2.24-5.44,2.24-3.52,0-6.48-1.84-6.48-5.88,0-4.2,3-6.12,7.72-6.12h3.92a.21.21,0,0,0,.24-.24v-.92c0-2.2-1-3.2-4.28-3.2A6.76,6.76,0,0,0,260,89a.36.36,0,0,1-.56-.08L258,86.32a.37.37,0,0,1,.07-.52,11.25,11.25,0,0,1,6.84-1.88c5.88,0,8,2,8,6.72v12.6a.38.38,0,0,1-.4.4Zm-.48-6.48V95.68a.21.21,0,0,0-.24-.24h-3.2c-2.88,0-4.16.8-4.16,2.6,0,1.6,1.16,2.4,3.32,2.4C267.17,100.44,268.69,99.36,268.69,97.16Z"/><path d="M301.81,103.64a.38.38,0,0,1-.4-.4V92.12c0-2.48-1.24-4.2-3.64-4.2s-3.68,1.72-3.68,4.2v11.12a.38.38,0,0,1-.4.4H290a.38.38,0,0,1-.4-.4V92.12c0-2.48-1.24-4.2-3.64-4.2s-3.68,1.72-3.68,4.2v11.12a.38.38,0,0,1-.4.4h-3.68a.38.38,0,0,1-.4-.4V84.76a.38.38,0,0,1,.4-.4h3.68a.38.38,0,0,1,.4.4v1.4h0a6,6,0,0,1,5.08-2.24,6.2,6.2,0,0,1,5.28,2.56h0a7.88,7.88,0,0,1,6.16-2.56c4.48,0,7,3,7,7.16v12.16a.38.38,0,0,1-.4.4Z"/><path d="M311.13,110.83a.38.38,0,0,1-.4-.4V84.76a.38.38,0,0,1,.4-.4h3.68a.38.38,0,0,1,.4.4V86.2h0c.92-1.32,2.52-2.28,5.12-2.28,3.28,0,5.68,1.56,6.68,4.64a16.07,16.07,0,0,1,.68,5.44,16.07,16.07,0,0,1-.68,5.44c-1,3.08-3.4,4.64-6.68,4.64-2.6,0-4.2-1-5.12-2.28h0v8.63a.38.38,0,0,1-.4.4ZM322.77,97.6a11.37,11.37,0,0,0,.4-3.6,11.37,11.37,0,0,0-.4-3.6,3.82,3.82,0,0,0-7.16,0,11.37,11.37,0,0,0-.4,3.6,11.37,11.37,0,0,0,.4,3.6,3.82,3.82,0,0,0,7.16,0Z"/><path d="M331.33,98.76a14.24,14.24,0,0,1-.64-4.76,14.24,14.24,0,0,1,.64-4.76c1.08-3.36,4-5.32,8-5.32s6.84,2,7.92,5.32a14.24,14.24,0,0,1,.64,4.76,14.24,14.24,0,0,1-.64,4.76c-1.08,3.36-4,5.32-7.92,5.32S332.41,102.12,331.33,98.76Zm11.56-1.2a10.89,10.89,0,0,0,.4-3.56,11,11,0,0,0-.4-3.56,3.56,3.56,0,0,0-3.6-2.52,3.61,3.61,0,0,0-3.64,2.52,11,11,0,0,0-.4,3.56,10.89,10.89,0,0,0,.4,3.56,3.61,3.61,0,0,0,3.64,2.52A3.56,3.56,0,0,0,342.89,97.56Z"/><path d="M351.57,99.16a.38.38,0,0,1,.4-.4h4a.38.38,0,0,1,.4.4v4.08a.38.38,0,0,1-.4.4h-4a.38.38,0,0,1-.4-.4Z"/></g></g></svg>