<svg xmlns="http://www.w3.org/2000/svg" viewBox="0 0 603.31 142.44"><title>p10</title><g id="Capa_2" data-name="Capa 2"><g id="pregunta_vector" data-name="pregunta vector"><path d="M0,14.4C0,10.08.16,8.72.72,7,2.12,2.6,5.56.36,10.16.36a9.56,9.56,0,0,1,9.2,5.84.35.35,0,0,1-.2.48l-3.4,1.64a.36.36,0,0,1-.52-.2A5.37,5.37,0,0,0,10.16,4.6,4.82,4.82,0,0,0,5.28,8.2c-.36,1.12-.48,2.2-.48,6.2s.12,5.08.48,6.2a4.82,4.82,0,0,0,4.88,3.6,5.37,5.37,0,0,0,5.08-3.52.36.36,0,0,1,.52-.2l3.4,1.64a.35.35,0,0,1,.2.48,9.56,9.56,0,0,1-9.2,5.84c-4.6,0-8-2.24-9.44-6.68C.16,20.08,0,18.72,0,14.4Z"/><path d="M34.4,28a.38.38,0,0,1-.4-.4V26.2h0c-.92,1.32-2.72,2.24-5.44,2.24C25,28.44,22,26.6,22,22.56c0-4.2,3-6.12,7.72-6.12h3.92a.21.21,0,0,0,.24-.24v-.92c0-2.2-1-3.2-4.28-3.2a6.76,6.76,0,0,0-4.4,1.32.36.36,0,0,1-.56-.08L23.2,10.68a.37.37,0,0,1,.08-.52,11.25,11.25,0,0,1,6.84-1.88c5.88,0,8,2,8,6.72V27.6a.38.38,0,0,1-.4.4Zm-.48-6.48V20a.21.21,0,0,0-.24-.24h-3.2c-2.88,0-4.16.8-4.16,2.6,0,1.6,1.16,2.4,3.32,2.4C32.4,24.8,33.92,23.72,33.92,21.52Z"/><path d="M43.44,28a.38.38,0,0,1-.4-.4V9.12a.38.38,0,0,1,.4-.4h3.68a.38.38,0,0,1,.4.4V27.6a.38.38,0,0,1-.4.4Zm.4-22.2c-.24,0-.36-.16-.24-.4l3-5a.76.76,0,0,1,.72-.4H51c.24,0,.36.2.2.4l-3.8,5a.93.93,0,0,1-.8.4Z"/><path d="M64.44,28a.38.38,0,0,1-.4-.4V26.16h0c-.92,1.32-2.52,2.28-5.12,2.28-3.28,0-5.68-1.56-6.68-4.64a16.07,16.07,0,0,1-.68-5.44,16.07,16.07,0,0,1,.68-5.44c1-3.08,3.4-4.64,6.68-4.64,2.6,0,4.2,1,5.12,2.28h0V1.2a.38.38,0,0,1,.4-.4h3.68a.38.38,0,0,1,.4.4V27.6a.38.38,0,0,1-.4.4Zm-.8-6a11.37,11.37,0,0,0,.4-3.6,11.37,11.37,0,0,0-.4-3.6,3.82,3.82,0,0,0-7.16,0,11.37,11.37,0,0,0-.4,3.6,11.37,11.37,0,0,0,.4,3.6,3.82,3.82,0,0,0,7.16,0Z"/><path d="M85,28a.38.38,0,0,1-.4-.4V26.2h0c-.92,1.32-2.72,2.24-5.44,2.24-3.52,0-6.48-1.84-6.48-5.88,0-4.2,3-6.12,7.72-6.12h3.92a.21.21,0,0,0,.24-.24v-.92c0-2.2-1-3.2-4.28-3.2a6.76,6.76,0,0,0-4.4,1.32.36.36,0,0,1-.56-.08l-1.48-2.64a.37.37,0,0,1,.08-.52,11.25,11.25,0,0,1,6.84-1.88c5.88,0,8,2,8,6.72V27.6a.38.38,0,0,1-.4.4Zm-.48-6.48V20a.21.21,0,0,0-.24-.24h-3.2c-2.88,0-4.16.8-4.16,2.6,0,1.6,1.16,2.4,3.32,2.4C83,24.8,84.56,23.72,84.56,21.52Z"/><path d="M92.52,25.4a.39.39,0,0,1,0-.56l2.28-2.4a.39.39,0,0,1,.56,0,8.92,8.92,0,0,0,5.64,2.2c2.36,0,3.56-1,3.56-2.28,0-1.16-.68-1.88-3.2-2.12L99.28,20c-3.92-.4-5.92-2.4-5.92-5.68,0-3.72,2.68-6.08,7.48-6.08a11.69,11.69,0,0,1,7.24,2.36.4.4,0,0,1,.08.56l-2,2.36a.39.39,0,0,1-.56.08,9.31,9.31,0,0,0-5-1.6c-1.92,0-2.92.84-2.92,2s.68,1.8,3.16,2l2.08.2c4,.4,6,2.48,6,5.64,0,3.84-2.8,6.52-8.08,6.52A12,12,0,0,1,92.52,25.4Z"/><path d="M132.92,28a.38.38,0,0,1-.4-.4V26.2h0c-.92,1.32-2.72,2.24-5.44,2.24-3.52,0-6.48-1.84-6.48-5.88,0-4.2,3-6.12,7.72-6.12h3.92a.21.21,0,0,0,.24-.24v-.92c0-2.2-1-3.2-4.28-3.2a6.76,6.76,0,0,0-4.4,1.32.36.36,0,0,1-.56-.08l-1.48-2.64a.37.37,0,0,1,.08-.52,11.25,11.25,0,0,1,6.84-1.88c5.88,0,8,2,8,6.72V27.6a.38.38,0,0,1-.39.4Zm-.48-6.48V20a.21.21,0,0,0-.24-.24H129c-2.88,0-4.16.8-4.16,2.6,0,1.6,1.16,2.4,3.32,2.4C130.92,24.8,132.44,23.72,132.44,21.52Z"/><path d="M162.08,28a.39.39,0,0,1-.41-.4V26.16h0c-.92,1.32-2.52,2.28-5.12,2.28-3.28,0-5.68-1.56-6.68-4.64a16.07,16.07,0,0,1-.68-5.44,16.07,16.07,0,0,1,.68-5.44c1-3.08,3.4-4.64,6.68-4.64,2.6,0,4.2,1,5.12,2.28h0V1.2a.38.38,0,0,1,.41-.4h3.67a.38.38,0,0,1,.41.4V27.6a.39.39,0,0,1-.41.4Zm-.8-6a11.43,11.43,0,0,0,.39-3.6,11.43,11.43,0,0,0-.39-3.6,3.82,3.82,0,0,0-7.16,0,11.37,11.37,0,0,0-.4,3.6,11.37,11.37,0,0,0,.4,3.6,3.82,3.82,0,0,0,7.16,0Z"/><path d="M171.6,5.08a.38.38,0,0,1-.4-.4V1.2a.38.38,0,0,1,.4-.4h3.68a.38.38,0,0,1,.4.4V4.68a.38.38,0,0,1-.4.4Zm0,22.92a.38.38,0,0,1-.4-.4V9.12a.38.38,0,0,1,.4-.4h3.68a.38.38,0,0,1,.4.4V27.6a.38.38,0,0,1-.4.4Z"/><path d="M181.72,28a.38.38,0,0,1-.4-.4V12.44a.21.21,0,0,0-.24-.24H179.8a.38.38,0,0,1-.4-.4V9.12a.38.38,0,0,1,.4-.4h1.28a.21.21,0,0,0,.24-.24V7.24c0-4.48,2.2-6.44,6.4-6.44h1.76a.38.38,0,0,1,.4.4V4.4a.38.38,0,0,1-.4.4h-1.24c-2,0-2.44.48-2.44,2.36V8.48a.21.21,0,0,0,.24.24h3.44a.38.38,0,0,1,.4.4V11.8a.38.38,0,0,1-.4.4H186a.21.21,0,0,0-.24.24V27.6a.38.38,0,0,1-.4.4Z"/><path d="M192.68,23.08a15,15,0,0,1-.68-4.72,15.36,15.36,0,0,1,.64-4.76c1.08-3.36,4-5.32,7.88-5.32s6.83,2,7.91,5.32a17.27,17.27,0,0,1,.64,5.8.39.39,0,0,1-.44.4H196.76a.21.21,0,0,0-.24.24,4.24,4.24,0,0,0,.28,1.48,4.21,4.21,0,0,0,4.32,2.92,5.8,5.8,0,0,0,4.51-1.84.41.41,0,0,1,.6-.08l2.36,2.08a.36.36,0,0,1,0,.56,10.15,10.15,0,0,1-7.91,3.28C196.64,28.44,193.76,26.44,192.68,23.08Zm11.64-8.52a4.12,4.12,0,0,0-7.56,0,4.89,4.89,0,0,0-.24,1.64.21.21,0,0,0,.24.24h7.56a.21.21,0,0,0,.23-.24A5.18,5.18,0,0,0,204.32,14.56Z"/><path d="M213.48,28a.38.38,0,0,1-.4-.4V9.12a.38.38,0,0,1,.4-.4h3.68a.38.38,0,0,1,.4.4v1.64h0a5.52,5.52,0,0,1,5-2.48,5.82,5.82,0,0,1,4,1.6c.2.2.24.36.08.56l-2.12,2.68a.36.36,0,0,1-.56.08,5.15,5.15,0,0,0-2.83-.92c-2.52,0-3.64,1.8-3.64,4.88V27.6a.38.38,0,0,1-.4.4Z"/><path d="M228.44,23.08a15,15,0,0,1-.68-4.72,15.36,15.36,0,0,1,.64-4.76c1.08-3.36,4-5.32,7.87-5.32s6.84,2,7.92,5.32a17.27,17.27,0,0,1,.64,5.8.39.39,0,0,1-.44.4H232.51a.21.21,0,0,0-.23.24,4.24,4.24,0,0,0,.28,1.48,4.2,4.2,0,0,0,4.31,2.92,5.81,5.81,0,0,0,4.52-1.84.41.41,0,0,1,.6-.08l2.36,2.08a.36.36,0,0,1,0,.56,10.16,10.16,0,0,1-7.92,3.28C232.4,28.44,229.52,26.44,228.44,23.08Zm11.63-8.52a3.74,3.74,0,0,0-3.75-2.48,3.78,3.78,0,0,0-3.81,2.48,5.18,5.18,0,0,0-.23,1.64.21.21,0,0,0,.23.24h7.56a.21.21,0,0,0,.24-.24A4.89,4.89,0,0,0,240.07,14.56Z"/><path d="M261,28a.38.38,0,0,1-.4-.4V16.48c0-2.48-1.24-4.2-3.63-4.2s-3.68,1.72-3.68,4.2V27.6a.38.38,0,0,1-.4.4h-3.68a.38.38,0,0,1-.4-.4V9.12a.38.38,0,0,1,.4-.4h3.68a.38.38,0,0,1,.4.4v1.4h0a6,6,0,0,1,5.07-2.24c4.12,0,6.68,3,6.68,7.16V27.6a.38.38,0,0,1-.4.4Z"/><path d="M275.59,28.23c-3.87,0-5.35-1.87-5.35-5.63V12.44a.21.21,0,0,0-.24-.24h-1.28a.38.38,0,0,1-.4-.4V9.12a.38.38,0,0,1,.4-.4H270a.21.21,0,0,0,.24-.24V3.2a.38.38,0,0,1,.4-.4h3.68a.38.38,0,0,1,.39.4V8.48a.21.21,0,0,0,.24.24h2.56a.39.39,0,0,1,.41.4V11.8a.39.39,0,0,1-.41.4H275a.21.21,0,0,0-.24.24v10c0,1.36.56,1.8,1.8,1.8h1a.39.39,0,0,1,.41.4v3.19a.38.38,0,0,1-.41.4Z"/><path d="M281.64,23.08a15,15,0,0,1-.68-4.72,15.7,15.7,0,0,1,.63-4.76c1.08-3.36,4-5.32,7.88-5.32s6.84,2,7.92,5.32a17.27,17.27,0,0,1,.64,5.8.39.39,0,0,1-.44.4H285.71a.21.21,0,0,0-.24.24,4.24,4.24,0,0,0,.28,1.48,4.21,4.21,0,0,0,4.32,2.92,5.81,5.81,0,0,0,4.52-1.84.41.41,0,0,1,.6-.08l2.36,2.08a.36.36,0,0,1,0,.56,10.16,10.16,0,0,1-7.92,3.28C285.59,28.44,282.71,26.44,281.64,23.08Zm11.63-8.52a4.12,4.12,0,0,0-7.56,0,4.89,4.89,0,0,0-.24,1.64.21.21,0,0,0,.24.24h7.56a.21.21,0,0,0,.24-.24A4.89,4.89,0,0,0,293.27,14.56Z"/><path d="M322.87,28a.38.38,0,0,1-.4-.4V16.48c0-2.48-1.24-4.2-3.64-4.2s-3.68,1.72-3.68,4.2V27.6a.38.38,0,0,1-.4.4h-3.68a.38.38,0,0,1-.4-.4V9.12a.38.38,0,0,1,.4-.4h3.68a.38.38,0,0,1,.4.4v1.4h0a6,6,0,0,1,5.08-2.24c4.12,0,6.68,3,6.68,7.16V27.6a.38.38,0,0,1-.4.4Z"/><path d="M332.19,5.08a.38.38,0,0,1-.4-.4V1.2a.38.38,0,0,1,.4-.4h3.68a.38.38,0,0,1,.4.4V4.68a.38.38,0,0,1-.4.4Zm0,22.92a.38.38,0,0,1-.4-.4V9.12a.38.38,0,0,1,.4-.4h3.68a.38.38,0,0,1,.4.4V27.6a.38.38,0,0,1-.4.4Z"/><path d="M346.51,28a.53.53,0,0,1-.52-.4l-6.8-18.48c-.08-.24.08-.4.32-.4h3.92a.51.51,0,0,1,.48.4l4.24,12.52h.08l4.16-12.52a.51.51,0,0,1,.48-.4h3.84c.24,0,.4.16.32.4l-6.8,18.48a.53.53,0,0,1-.52.4Z"/><path d="M359.35,23.08a15,15,0,0,1-.68-4.72,15.36,15.36,0,0,1,.64-4.76c1.08-3.36,4-5.32,7.88-5.32s6.84,2,7.92,5.32a17.27,17.27,0,0,1,.64,5.8.39.39,0,0,1-.44.4H363.43a.21.21,0,0,0-.24.24,4.24,4.24,0,0,0,.28,1.48,4.21,4.21,0,0,0,4.32,2.92,5.81,5.81,0,0,0,4.52-1.84.41.41,0,0,1,.6-.08l2.36,2.08a.36.36,0,0,1,0,.56,10.16,10.16,0,0,1-7.92,3.28C363.31,28.44,360.43,26.44,359.35,23.08ZM371,14.56a4.12,4.12,0,0,0-7.56,0,4.89,4.89,0,0,0-.24,1.64.21.21,0,0,0,.24.24H371a.21.21,0,0,0,.24-.24A4.89,4.89,0,0,0,371,14.56Z"/><path d="M385,28.23c-3.76,0-5.28-1.79-5.28-5.51V1.2a.38.38,0,0,1,.4-.4h3.68a.38.38,0,0,1,.4.4V22.48c0,1.32.52,1.76,1.68,1.76h.88a.38.38,0,0,1,.4.4v3.19a.37.37,0,0,1-.4.4Z"/><path d="M399.63,35.19a.38.38,0,0,1-.4-.4V9.12a.38.38,0,0,1,.4-.4h3.68a.38.38,0,0,1,.4.4v1.44h0c.92-1.32,2.52-2.28,5.12-2.28,3.28,0,5.68,1.56,6.68,4.64a16.07,16.07,0,0,1,.68,5.44,16.07,16.07,0,0,1-.68,5.44c-1,3.08-3.4,4.64-6.68,4.64-2.6,0-4.2-1-5.12-2.28h0v8.63a.38.38,0,0,1-.4.4ZM411.27,22a11.37,11.37,0,0,0,.4-3.6,11.37,11.37,0,0,0-.4-3.6,3.82,3.82,0,0,0-7.16,0,11.37,11.37,0,0,0-.4,3.6,11.37,11.37,0,0,0,.4,3.6,3.82,3.82,0,0,0,7.16,0Z"/><path d="M419.83,23.12a14.24,14.24,0,0,1-.64-4.76,14.24,14.24,0,0,1,.64-4.76c1.08-3.36,4-5.32,8-5.32s6.84,2,7.92,5.32a14.24,14.24,0,0,1,.64,4.76,14.24,14.24,0,0,1-.64,4.76c-1.08,3.36-4,5.32-7.92,5.32S420.91,26.48,419.83,23.12Zm11.56-1.2a10.89,10.89,0,0,0,.4-3.56,11,11,0,0,0-.4-3.56,3.56,3.56,0,0,0-3.6-2.52,3.61,3.61,0,0,0-3.64,2.52,11,11,0,0,0-.4,3.56,10.89,10.89,0,0,0,.4,3.56,3.61,3.61,0,0,0,3.64,2.52A3.56,3.56,0,0,0,431.39,21.92Z"/><path d="M440.75,28a.38.38,0,0,1-.4-.4V9.12a.38.38,0,0,1,.4-.4h3.68a.38.38,0,0,1,.4.4v1.64h0a5.52,5.52,0,0,1,5-2.48,5.82,5.82,0,0,1,4,1.6c.2.2.24.36.08.56l-2.12,2.68a.36.36,0,0,1-.56.08,5.21,5.21,0,0,0-2.84-.92c-2.52,0-3.64,1.8-3.64,4.88V27.6a.38.38,0,0,1-.4.4Z"/><path d="M466.11,28a.38.38,0,0,1-.4-.4V12.44a.21.21,0,0,0-.24-.24h-1.28a.38.38,0,0,1-.4-.4V9.12a.38.38,0,0,1,.4-.4h1.28a.21.21,0,0,0,.24-.24V7.24c0-4.48,2.2-6.44,6.4-6.44h1.76a.38.38,0,0,1,.4.4V4.4a.38.38,0,0,1-.4.4h-1.24c-2,0-2.44.48-2.44,2.36V8.48a.21.21,0,0,0,.24.24h3.44a.38.38,0,0,1,.4.4V11.8a.38.38,0,0,1-.4.4h-3.44a.21.21,0,0,0-.24.24V27.6a.38.38,0,0,1-.4.4Z"/><path d="M488.91,28a.38.38,0,0,1-.4-.4V26.2h0c-.92,1.32-2.72,2.24-5.44,2.24-3.52,0-6.48-1.84-6.48-5.88,0-4.2,3-6.12,7.72-6.12h3.92a.21.21,0,0,0,.24-.24v-.92c0-2.2-1-3.2-4.28-3.2a6.76,6.76,0,0,0-4.4,1.32.36.36,0,0,1-.56-.08l-1.48-2.64a.37.37,0,0,1,.08-.52,11.25,11.25,0,0,1,6.84-1.88c5.88,0,8,2,8,6.72V27.6a.38.38,0,0,1-.4.4Zm-.48-6.48V20a.21.21,0,0,0-.24-.24H485c-2.88,0-4.16.8-4.16,2.6,0,1.6,1.16,2.4,3.32,2.4C486.91,24.8,488.43,23.72,488.43,21.52Z"/><path d="M502.75,28.23c-3.76,0-5.28-1.79-5.28-5.51V1.2a.38.38,0,0,1,.4-.4h3.68a.38.38,0,0,1,.4.4V22.48c0,1.32.52,1.76,1.68,1.76h.88a.38.38,0,0,1,.4.4v3.19a.37.37,0,0,1-.4.4Z"/><path d="M513.47,28.23c-3.76,0-5.28-1.79-5.28-5.51V1.2a.38.38,0,0,1,.4-.4h3.68a.38.38,0,0,1,.4.4V22.48c0,1.32.52,1.76,1.68,1.76h.88a.38.38,0,0,1,.4.4v3.19a.37.37,0,0,1-.4.4Z"/><path d="M530.59,28a.38.38,0,0,1-.4-.4V26.2h0c-.92,1.32-2.72,2.24-5.44,2.24-3.52,0-6.48-1.84-6.48-5.88,0-4.2,3-6.12,7.72-6.12h3.92a.21.21,0,0,0,.24-.24v-.92c0-2.2-1-3.2-4.28-3.2a6.76,6.76,0,0,0-4.4,1.32.36.36,0,0,1-.56-.08l-1.48-2.64a.37.37,0,0,1,.08-.52,11.25,11.25,0,0,1,6.84-1.88c5.88,0,8,2,8,6.72V27.6a.38.38,0,0,1-.4.4Zm-.48-6.48V20a.21.21,0,0,0-.24-.24h-3.2c-2.88,0-4.16.8-4.16,2.6,0,1.6,1.16,2.4,3.32,2.4C528.59,24.8,530.11,23.72,530.11,21.52Z"/><path d="M538.07,25.4a.39.39,0,0,1,0-.56l2.28-2.4a.39.39,0,0,1,.56,0,8.92,8.92,0,0,0,5.64,2.2c2.36,0,3.56-1,3.56-2.28,0-1.16-.68-1.88-3.2-2.12l-2.08-.2c-3.92-.4-5.92-2.4-5.92-5.68,0-3.72,2.68-6.08,7.48-6.08a11.69,11.69,0,0,1,7.24,2.36.4.4,0,0,1,.08.56l-2,2.36a.39.39,0,0,1-.56.08,9.31,9.31,0,0,0-5-1.6c-1.92,0-2.92.84-2.92,2s.68,1.8,3.16,2l2.08.2c4,.4,6,2.48,6,5.64,0,3.84-2.8,6.52-8.08,6.52A12,12,0,0,1,538.07,25.4Z"/><path d="M566.63,23.08a15,15,0,0,1-.68-4.72,15.36,15.36,0,0,1,.64-4.76c1.08-3.36,4-5.32,7.88-5.32s6.84,2,7.92,5.32a17.27,17.27,0,0,1,.64,5.8.39.39,0,0,1-.44.4H570.71a.21.21,0,0,0-.24.24,4.24,4.24,0,0,0,.28,1.48,4.21,4.21,0,0,0,4.32,2.92,5.81,5.81,0,0,0,4.52-1.84.41.41,0,0,1,.6-.08l2.36,2.08a.36.36,0,0,1,0,.56,10.16,10.16,0,0,1-7.92,3.28C570.59,28.44,567.71,26.44,566.63,23.08Zm11.64-8.52a4.12,4.12,0,0,0-7.56,0,4.89,4.89,0,0,0-.24,1.64.21.21,0,0,0,.24.24h7.56a.21.21,0,0,0,.24-.24A4.89,4.89,0,0,0,578.27,14.56Z"/><path d="M599.23,28a.38.38,0,0,1-.4-.4V16.48c0-2.48-1.24-4.2-3.64-4.2s-3.68,1.72-3.68,4.2V27.6a.38.38,0,0,1-.4.4h-3.68a.38.38,0,0,1-.4-.4V9.12a.38.38,0,0,1,.4-.4h3.68a.38.38,0,0,1,.4.4v1.4h0a6,6,0,0,1,5.08-2.24c4.12,0,6.68,3,6.68,7.16V27.6a.38.38,0,0,1-.4.4Z"/><path d="M1.48,61.08A15,15,0,0,1,.8,56.36a15.36,15.36,0,0,1,.64-4.76c1.08-3.36,4-5.32,7.88-5.32s6.84,2,7.92,5.32a17.27,17.27,0,0,1,.64,5.8.39.39,0,0,1-.44.4H5.56a.21.21,0,0,0-.24.24,4.48,4.48,0,0,0,4.6,4.4,5.81,5.81,0,0,0,4.52-1.84.41.41,0,0,1,.6-.08L17.4,62.6a.36.36,0,0,1,0,.56,10.16,10.16,0,0,1-7.92,3.28C5.44,66.44,2.56,64.44,1.48,61.08Zm11.64-8.52a3.74,3.74,0,0,0-3.76-2.48,3.76,3.76,0,0,0-3.8,2.48,4.89,4.89,0,0,0-.24,1.64.21.21,0,0,0,.24.24h7.56a.21.21,0,0,0,.24-.24A4.89,4.89,0,0,0,13.12,52.56Z"/><path d="M20.72,63.4a.39.39,0,0,1,0-.56L23,60.44a.39.39,0,0,1,.56,0,8.92,8.92,0,0,0,5.64,2.2c2.36,0,3.56-1,3.56-2.28,0-1.16-.68-1.88-3.2-2.12L27.48,58c-3.92-.4-5.92-2.4-5.92-5.68,0-3.72,2.68-6.08,7.48-6.08a11.69,11.69,0,0,1,7.24,2.36.4.4,0,0,1,.08.56l-2,2.36a.39.39,0,0,1-.56.08,9.31,9.31,0,0,0-5-1.6c-1.92,0-2.92.84-2.92,2s.68,1.8,3.16,2l2.08.2c4,.4,6,2.48,6,5.64,0,3.84-2.8,6.52-8.08,6.52A12,12,0,0,1,20.72,63.4Z"/><path d="M46.64,66.23c-3.88,0-5.36-1.87-5.36-5.63V50.44A.21.21,0,0,0,41,50.2H39.76a.38.38,0,0,1-.4-.4V47.12a.38.38,0,0,1,.4-.4H41a.21.21,0,0,0,.24-.24V41.2a.38.38,0,0,1,.4-.4h3.68a.38.38,0,0,1,.4.4v5.28a.21.21,0,0,0,.24.24h2.56a.38.38,0,0,1,.4.4V49.8a.38.38,0,0,1-.4.4H46a.21.21,0,0,0-.24.24v10c0,1.36.56,1.8,1.8,1.8h1a.38.38,0,0,1,.4.4v3.19a.37.37,0,0,1-.4.4Z"/><path d="M53.44,66a.38.38,0,0,1-.4-.4V47.12a.38.38,0,0,1,.4-.4h3.68a.38.38,0,0,1,.4.4v1.64h0a5.52,5.52,0,0,1,5-2.48,5.82,5.82,0,0,1,4,1.6c.2.2.24.36.08.56l-2.12,2.68a.36.36,0,0,1-.56.08,5.21,5.21,0,0,0-2.84-.92c-2.52,0-3.64,1.8-3.64,4.88V65.6a.38.38,0,0,1-.4.4Z"/><path d="M81,66a.38.38,0,0,1-.4-.4V64.2h0a5.91,5.91,0,0,1-5,2.24c-4.12,0-6.64-3-6.64-7.16V47.12a.38.38,0,0,1,.4-.4H73a.38.38,0,0,1,.4.4V58.24c0,2.48,1.16,4.2,3.6,4.2,2.28,0,3.6-1.72,3.6-4.16V47.12a.38.38,0,0,1,.4-.4h3.67a.38.38,0,0,1,.41.4V65.6a.39.39,0,0,1-.41.4Z"/><path d="M89.68,61.12a15.15,15.15,0,0,1-.6-4.76,15.15,15.15,0,0,1,.6-4.76c1.12-3.44,4.08-5.32,8-5.32a8.4,8.4,0,0,1,6.68,3,.39.39,0,0,1,0,.56L101.76,52a.36.36,0,0,1-.56-.08,4.37,4.37,0,0,0-3.56-1.68A3.54,3.54,0,0,0,94,52.8a11.33,11.33,0,0,0-.4,3.56A11.6,11.6,0,0,0,94,60a3.55,3.55,0,0,0,3.6,2.48,4.37,4.37,0,0,0,3.56-1.68.36.36,0,0,1,.56,0l2.52,2.2c.2.16.16.36,0,.56a8.49,8.49,0,0,1-6.68,3C93.76,66.44,90.8,64.56,89.68,61.12Z"/><path d="M114,66.23c-3.88,0-5.36-1.87-5.36-5.63V50.44a.21.21,0,0,0-.24-.24h-1.28a.38.38,0,0,1-.4-.4V47.12a.38.38,0,0,1,.4-.4h1.28a.21.21,0,0,0,.24-.24V41.2a.38.38,0,0,1,.4-.4h3.68a.38.38,0,0,1,.4.4v5.28a.21.21,0,0,0,.24.24h2.56a.38.38,0,0,1,.4.4V49.8a.38.38,0,0,1-.4.4h-2.56a.21.21,0,0,0-.24.24v10c0,1.36.56,1.8,1.8,1.8h1a.38.38,0,0,1,.4.4v3.19a.37.37,0,0,1-.4.4Z"/><path d="M132.19,66a.39.39,0,0,1-.4-.4V64.2h0a5.88,5.88,0,0,1-5,2.24c-4.12,0-6.64-3-6.64-7.16V47.12a.38.38,0,0,1,.4-.4h3.68a.38.38,0,0,1,.4.4V58.24c0,2.48,1.16,4.2,3.6,4.2,2.28,0,3.59-1.72,3.59-4.16V47.12a.38.38,0,0,1,.4-.4h3.68a.38.38,0,0,1,.4.4V65.6a.38.38,0,0,1-.4.4Z"/><path d="M141.72,66a.38.38,0,0,1-.4-.4V47.12a.38.38,0,0,1,.4-.4h3.68a.38.38,0,0,1,.4.4v1.64h0a5.52,5.52,0,0,1,5-2.48,5.8,5.8,0,0,1,4,1.6c.21.2.24.36.08.56l-2.12,2.68a.36.36,0,0,1-.56.08,5.15,5.15,0,0,0-2.83-.92c-2.52,0-3.64,1.8-3.64,4.88V65.6a.38.38,0,0,1-.4.4Z"/><path d="M168.19,66a.38.38,0,0,1-.4-.4V64.2h0c-.92,1.32-2.71,2.24-5.43,2.24-3.52,0-6.48-1.84-6.48-5.88,0-4.2,3-6.12,7.72-6.12h3.91a.21.21,0,0,0,.24-.24v-.92c0-2.2-1-3.2-4.28-3.2A6.75,6.75,0,0,0,159,51.4a.36.36,0,0,1-.56-.08L157,48.68a.37.37,0,0,1,.08-.52,11.25,11.25,0,0,1,6.84-1.88c5.87,0,8,2,8,6.72V65.6a.38.38,0,0,1-.4.4Zm-.48-6.48V58a.21.21,0,0,0-.24-.24h-3.2c-2.87,0-4.15.8-4.15,2.6,0,1.6,1.16,2.4,3.31,2.4C166.19,62.8,167.71,61.72,167.71,59.52Z"/><path d="M175.68,63.4a.39.39,0,0,1,0-.56l2.28-2.4a.39.39,0,0,1,.56,0,8.92,8.92,0,0,0,5.64,2.2c2.35,0,3.55-1,3.55-2.28,0-1.16-.68-1.88-3.2-2.12l-2.07-.2c-3.92-.4-5.92-2.4-5.92-5.68,0-3.72,2.68-6.08,7.48-6.08a11.66,11.66,0,0,1,7.23,2.36.4.4,0,0,1,.08.56l-2,2.36a.39.39,0,0,1-.56.08,9.31,9.31,0,0,0-5-1.6c-1.92,0-2.91.84-2.91,2s.68,1.8,3.16,2l2.08.2c4,.4,5.95,2.48,5.95,5.64,0,3.84-2.8,6.52-8.07,6.52A12,12,0,0,1,175.68,63.4Z"/><path d="M216.47,66a.38.38,0,0,1-.4-.4V64.16h0c-.92,1.32-2.52,2.28-5.12,2.28-3.28,0-5.67-1.56-6.67-4.64a15.82,15.82,0,0,1-.68-5.44,15.82,15.82,0,0,1,.68-5.44c1-3.08,3.39-4.64,6.67-4.64,2.6,0,4.2,1,5.12,2.28h0V39.2a.38.38,0,0,1,.4-.4h3.68a.38.38,0,0,1,.4.4V65.6a.38.38,0,0,1-.4.4Zm-.8-6a11.37,11.37,0,0,0,.4-3.6,11.37,11.37,0,0,0-.4-3.6,3.82,3.82,0,0,0-7.16,0,11.67,11.67,0,0,0-.4,3.6,11.67,11.67,0,0,0,.4,3.6,3.82,3.82,0,0,0,7.16,0Z"/><path d="M237.43,66a.38.38,0,0,1-.4-.4V64.2h0a5.91,5.91,0,0,1-5,2.24c-4.11,0-6.63-3-6.63-7.16V47.12a.37.37,0,0,1,.39-.4h3.68a.38.38,0,0,1,.4.4V58.24c0,2.48,1.17,4.2,3.6,4.2,2.28,0,3.6-1.72,3.6-4.16V47.12a.38.38,0,0,1,.4-.4h3.68a.38.38,0,0,1,.4.4V65.6a.38.38,0,0,1-.4.4Z"/><path d="M247,66a.38.38,0,0,1-.4-.4V47.12a.38.38,0,0,1,.4-.4h3.68a.38.38,0,0,1,.4.4v1.64h0a5.52,5.52,0,0,1,5-2.48,5.82,5.82,0,0,1,4,1.6c.2.2.24.36.08.56l-2.12,2.68a.36.36,0,0,1-.56.08,5.21,5.21,0,0,0-2.84-.92c-2.52,0-3.64,1.8-3.64,4.88V65.6a.38.38,0,0,1-.4.4Z"/><path d="M273.43,66a.38.38,0,0,1-.4-.4V64.2h0c-.92,1.32-2.72,2.24-5.44,2.24-3.52,0-6.47-1.84-6.47-5.88,0-4.2,2.95-6.12,7.71-6.12h3.92a.21.21,0,0,0,.24-.24v-.92c0-2.2-1-3.2-4.28-3.2a6.76,6.76,0,0,0-4.4,1.32.36.36,0,0,1-.56-.08l-1.47-2.64a.37.37,0,0,1,.08-.52,11.24,11.24,0,0,1,6.83-1.88c5.88,0,8,2,8,6.72V65.6a.38.38,0,0,1-.4.4ZM273,59.52V58a.21.21,0,0,0-.24-.24h-3.2c-2.88,0-4.16.8-4.16,2.6,0,1.6,1.16,2.4,3.32,2.4C271.43,62.8,273,61.72,273,59.52Z"/><path d="M294.27,66a.38.38,0,0,1-.4-.4V54.48c0-2.48-1.24-4.2-3.64-4.2s-3.68,1.72-3.68,4.2V65.6a.38.38,0,0,1-.39.4h-3.68a.38.38,0,0,1-.4-.4V47.12a.38.38,0,0,1,.4-.4h3.68a.38.38,0,0,1,.39.4v1.4h0a6,6,0,0,1,5.08-2.24c4.12,0,6.68,3,6.68,7.16V65.6a.38.38,0,0,1-.4.4Z"/><path d="M308.83,66.23c-3.88,0-5.36-1.87-5.36-5.63V50.44a.21.21,0,0,0-.24-.24H302a.38.38,0,0,1-.4-.4V47.12a.38.38,0,0,1,.4-.4h1.28a.21.21,0,0,0,.24-.24V41.2a.38.38,0,0,1,.4-.4h3.68a.38.38,0,0,1,.4.4v5.28a.21.21,0,0,0,.24.24h2.56a.38.38,0,0,1,.4.4V49.8a.38.38,0,0,1-.4.4h-2.56a.21.21,0,0,0-.24.24v10c0,1.36.56,1.8,1.8,1.8h1a.38.38,0,0,1,.4.4v3.19a.37.37,0,0,1-.4.4Z"/><path d="M314.87,61.08a15,15,0,0,1-.68-4.72,15.36,15.36,0,0,1,.64-4.76c1.08-3.36,4-5.32,7.88-5.32s6.84,2,7.92,5.32a17.27,17.27,0,0,1,.64,5.8.39.39,0,0,1-.44.4H319a.21.21,0,0,0-.24.24,4.48,4.48,0,0,0,4.6,4.4,5.81,5.81,0,0,0,4.52-1.84.41.41,0,0,1,.6-.08l2.36,2.08a.36.36,0,0,1,0,.56,10.16,10.16,0,0,1-7.92,3.28C318.83,66.44,316,64.44,314.87,61.08Zm11.64-8.52a4.12,4.12,0,0,0-7.56,0,4.89,4.89,0,0,0-.24,1.64.21.21,0,0,0,.24.24h7.56a.21.21,0,0,0,.24-.24A4.89,4.89,0,0,0,326.51,52.56Z"/><path d="M343.55,61.08a15,15,0,0,1-.68-4.72,15.36,15.36,0,0,1,.64-4.76c1.08-3.36,4-5.32,7.88-5.32s6.84,2,7.92,5.32a17.27,17.27,0,0,1,.64,5.8.39.39,0,0,1-.44.4H347.63a.21.21,0,0,0-.24.24,4.48,4.48,0,0,0,4.6,4.4,5.81,5.81,0,0,0,4.52-1.84.41.41,0,0,1,.6-.08l2.36,2.08a.36.36,0,0,1,0,.56,10.16,10.16,0,0,1-7.92,3.28C347.51,66.44,344.63,64.44,343.55,61.08Zm11.64-8.52a4.12,4.12,0,0,0-7.56,0,4.89,4.89,0,0,0-.24,1.64.21.21,0,0,0,.24.24h7.56a.21.21,0,0,0,.24-.24A4.89,4.89,0,0,0,355.19,52.56Z"/><path d="M369.15,66.23c-3.76,0-5.28-1.79-5.28-5.51V39.2a.38.38,0,0,1,.4-.4H368a.38.38,0,0,1,.4.4V60.48c0,1.32.52,1.76,1.68,1.76h.88a.38.38,0,0,1,.4.4v3.19a.37.37,0,0,1-.4.4Z"/><path d="M395.31,66a.38.38,0,0,1-.4-.4V64.16h0c-.92,1.32-2.52,2.28-5.12,2.28-3.28,0-5.68-1.56-6.68-4.64a16.07,16.07,0,0,1-.68-5.44,16.07,16.07,0,0,1,.68-5.44c1-3.08,3.4-4.64,6.68-4.64,2.6,0,4.2,1,5.12,2.28h0V39.2a.38.38,0,0,1,.4-.4H399a.38.38,0,0,1,.4.4V65.6a.38.38,0,0,1-.4.4Zm-.8-6a11.37,11.37,0,0,0,.4-3.6,11.37,11.37,0,0,0-.4-3.6,3.82,3.82,0,0,0-7.16,0,11.37,11.37,0,0,0-.4,3.6,11.37,11.37,0,0,0,.4,3.6,3.82,3.82,0,0,0,7.16,0Z"/><path d="M404.07,61.08a15,15,0,0,1-.68-4.72A15.36,15.36,0,0,1,404,51.6c1.08-3.36,4-5.32,7.88-5.32s6.84,2,7.92,5.32a17.27,17.27,0,0,1,.64,5.8.39.39,0,0,1-.44.4H408.15a.21.21,0,0,0-.24.24,4.48,4.48,0,0,0,4.6,4.4A5.81,5.81,0,0,0,417,60.6a.41.41,0,0,1,.6-.08L420,62.6a.36.36,0,0,1,0,.56,10.16,10.16,0,0,1-7.92,3.28C408,66.44,405.15,64.44,404.07,61.08Zm11.64-8.52a4.12,4.12,0,0,0-7.56,0,4.89,4.89,0,0,0-.24,1.64.21.21,0,0,0,.24.24h7.56a.21.21,0,0,0,.24-.24A4.89,4.89,0,0,0,415.71,52.56Z"/><path d="M423.31,63.4a.39.39,0,0,1,0-.56l2.28-2.4a.39.39,0,0,1,.56,0,8.92,8.92,0,0,0,5.64,2.2c2.36,0,3.56-1,3.56-2.28,0-1.16-.68-1.88-3.2-2.12l-2.08-.2c-3.92-.4-5.92-2.4-5.92-5.68,0-3.72,2.68-6.08,7.48-6.08a11.69,11.69,0,0,1,7.24,2.36.4.4,0,0,1,.08.56l-2,2.36a.39.39,0,0,1-.56.08,9.31,9.31,0,0,0-5-1.6c-1.92,0-2.92.84-2.92,2s.68,1.8,3.16,2l2.08.2c4,.4,6,2.48,6,5.64,0,3.84-2.8,6.52-8.08,6.52A12,12,0,0,1,423.31,63.4Z"/><path d="M455.07,66a.38.38,0,0,1-.4-.4V64.2h0c-.92,1.32-2.72,2.24-5.44,2.24-3.52,0-6.48-1.84-6.48-5.88,0-4.2,3-6.12,7.72-6.12h3.92a.21.21,0,0,0,.24-.24v-.92c0-2.2-1-3.2-4.28-3.2a6.76,6.76,0,0,0-4.4,1.32.36.36,0,0,1-.56-.08l-1.48-2.64a.37.37,0,0,1,.08-.52,11.25,11.25,0,0,1,6.84-1.88c5.88,0,8,2,8,6.72V65.6a.38.38,0,0,1-.4.4Zm-.48-6.48V58a.21.21,0,0,0-.24-.24h-3.2c-2.88,0-4.16.8-4.16,2.6,0,1.6,1.16,2.4,3.32,2.4C453.07,62.8,454.59,61.72,454.59,59.52Z"/><path d="M464.11,66a.38.38,0,0,1-.4-.4V47.12a.38.38,0,0,1,.4-.4h3.68a.38.38,0,0,1,.4.4v1.64h0a5.52,5.52,0,0,1,5-2.48,5.82,5.82,0,0,1,4,1.6c.2.2.24.36.08.56l-2.12,2.68a.36.36,0,0,1-.56.08,5.21,5.21,0,0,0-2.84-.92c-2.52,0-3.64,1.8-3.64,4.88V65.6a.38.38,0,0,1-.4.4Z"/><path d="M480.23,66a.38.38,0,0,1-.4-.4V47.12a.38.38,0,0,1,.4-.4h3.68a.38.38,0,0,1,.4.4v1.64h0a5.52,5.52,0,0,1,5-2.48,5.82,5.82,0,0,1,4,1.6c.2.2.24.36.08.56l-2.12,2.68a.36.36,0,0,1-.56.08,5.21,5.21,0,0,0-2.84-.92c-2.52,0-3.64,1.8-3.64,4.88V65.6a.38.38,0,0,1-.4.4Z"/><path d="M495.15,61.12a14.24,14.24,0,0,1-.64-4.76,14.24,14.24,0,0,1,.64-4.76c1.08-3.36,4-5.32,8-5.32s6.84,2,7.92,5.32a14.24,14.24,0,0,1,.64,4.76,14.24,14.24,0,0,1-.64,4.76c-1.08,3.36-4,5.32-7.92,5.32S496.23,64.48,495.15,61.12Zm11.56-1.2a10.89,10.89,0,0,0,.4-3.56,11,11,0,0,0-.4-3.56,3.56,3.56,0,0,0-3.6-2.52,3.61,3.61,0,0,0-3.64,2.52,11,11,0,0,0-.4,3.56,10.89,10.89,0,0,0,.4,3.56,3.61,3.61,0,0,0,3.64,2.52A3.56,3.56,0,0,0,506.71,59.92Z"/><path d="M520.87,66.23c-3.76,0-5.28-1.79-5.28-5.51V39.2a.38.38,0,0,1,.4-.4h3.68a.38.38,0,0,1,.4.4V60.48c0,1.32.52,1.76,1.68,1.76h.88a.38.38,0,0,1,.4.4v3.19a.37.37,0,0,1-.4.4Z"/><path d="M531.59,66.23c-3.76,0-5.28-1.79-5.28-5.51V39.2a.38.38,0,0,1,.4-.4h3.68a.38.38,0,0,1,.4.4V60.48c0,1.32.52,1.76,1.68,1.76h.88a.38.38,0,0,1,.4.4v3.19a.37.37,0,0,1-.4.4Z"/><path d="M536.83,61.12a14.24,14.24,0,0,1-.64-4.76,14.24,14.24,0,0,1,.64-4.76c1.08-3.36,4-5.32,8-5.32s6.84,2,7.92,5.32a14.24,14.24,0,0,1,.64,4.76,14.24,14.24,0,0,1-.64,4.76c-1.08,3.36-4,5.32-7.92,5.32S537.91,64.48,536.83,61.12Zm11.56-1.2a10.89,10.89,0,0,0,.4-3.56,11,11,0,0,0-.4-3.56,3.56,3.56,0,0,0-3.6-2.52,3.61,3.61,0,0,0-3.64,2.52,11,11,0,0,0-.4,3.56,10.89,10.89,0,0,0,.4,3.56,3.61,3.61,0,0,0,3.64,2.52A3.56,3.56,0,0,0,548.39,59.92Z"/><path d="M577.87,66a.38.38,0,0,1-.4-.4V64.16h0c-.92,1.32-2.52,2.28-5.12,2.28-3.28,0-5.68-1.56-6.68-4.64a16.07,16.07,0,0,1-.68-5.44,16.07,16.07,0,0,1,.68-5.44c1-3.08,3.4-4.64,6.68-4.64,2.6,0,4.2,1,5.12,2.28h0V39.2a.38.38,0,0,1,.4-.4h3.68a.38.38,0,0,1,.4.4V65.6a.38.38,0,0,1-.4.4Zm-.8-6a11.37,11.37,0,0,0,.4-3.6,11.37,11.37,0,0,0-.4-3.6,3.82,3.82,0,0,0-7.16,0,11.37,11.37,0,0,0-.4,3.6,11.37,11.37,0,0,0,.4,3.6,3.82,3.82,0,0,0,7.16,0Z"/><path d="M586.63,61.08a15,15,0,0,1-.68-4.72,15.36,15.36,0,0,1,.64-4.76c1.08-3.36,4-5.32,7.88-5.32s6.84,2,7.92,5.32a17.27,17.27,0,0,1,.64,5.8.39.39,0,0,1-.44.4H590.71a.21.21,0,0,0-.24.24,4.48,4.48,0,0,0,4.6,4.4,5.81,5.81,0,0,0,4.52-1.84.41.41,0,0,1,.6-.08l2.36,2.08a.36.36,0,0,1,0,.56,10.16,10.16,0,0,1-7.92,3.28C590.59,66.44,587.71,64.44,586.63,61.08Zm11.64-8.52a4.12,4.12,0,0,0-7.56,0,4.89,4.89,0,0,0-.24,1.64.21.21,0,0,0,.24.24h7.56a.21.21,0,0,0,.24-.24A4.89,4.89,0,0,0,598.27,52.56Z"/><path d="M30.24,104.23c-3.76,0-5.28-1.79-5.28-5.51V77.2a.38.38,0,0,1,.4-.4H29a.38.38,0,0,1,.4.4V98.48c0,1.32.52,1.76,1.68,1.76H32a.38.38,0,0,1,.4.4v3.19a.37.37,0,0,1-.4.4Z"/><path d="M47.36,104a.38.38,0,0,1-.4-.4v-1.4h0c-.92,1.32-2.72,2.24-5.44,2.24C38,104.44,35,102.6,35,98.56c0-4.2,3-6.12,7.72-6.12h3.92a.21.21,0,0,0,.24-.24v-.92c0-2.2-1-3.2-4.28-3.2a6.76,6.76,0,0,0-4.4,1.32.36.36,0,0,1-.56-.08l-1.48-2.64a.37.37,0,0,1,.08-.52,11.25,11.25,0,0,1,6.84-1.88c5.88,0,8,2,8,6.72v12.6a.38.38,0,0,1-.4.4Zm-.48-6.48V96a.21.21,0,0,0-.24-.24h-3.2c-2.88,0-4.16.8-4.16,2.6,0,1.6,1.16,2.4,3.32,2.4C45.36,100.8,46.88,99.72,46.88,97.52Z"/><path d="M60.52,102.16h0v1.44a.38.38,0,0,1-.4.4H56.4a.38.38,0,0,1-.4-.4V77.2a.38.38,0,0,1,.4-.4h3.68a.38.38,0,0,1,.4.4v9.36h0c.92-1.32,2.52-2.28,5.12-2.28,3.28,0,5.68,1.56,6.68,4.64A16.33,16.33,0,0,1,73,94.36a16.33,16.33,0,0,1-.68,5.44c-1,3.08-3.4,4.64-6.68,4.64C63,104.44,61.44,103.48,60.52,102.16ZM68,98a11.37,11.37,0,0,0,.4-3.6,11.37,11.37,0,0,0-.4-3.6,3.82,3.82,0,0,0-7.16,0,11.37,11.37,0,0,0-.4,3.6,11.37,11.37,0,0,0,.4,3.6A3.82,3.82,0,0,0,68,98Z"/><path d="M76.6,99.12A14.24,14.24,0,0,1,76,94.36a14.24,14.24,0,0,1,.64-4.76c1.08-3.36,4-5.32,8-5.32s6.84,2,7.92,5.32a14.27,14.27,0,0,1,.63,4.76,14.27,14.27,0,0,1-.63,4.76c-1.08,3.36-4,5.32-7.92,5.32S77.68,102.48,76.6,99.12Zm11.56-1.2a10.89,10.89,0,0,0,.4-3.56,11,11,0,0,0-.4-3.56,3.56,3.56,0,0,0-3.6-2.52,3.61,3.61,0,0,0-3.64,2.52,11,11,0,0,0-.4,3.56,10.89,10.89,0,0,0,.4,3.56,3.61,3.61,0,0,0,3.64,2.52A3.56,3.56,0,0,0,88.16,97.92Z"/><path d="M97.52,104a.38.38,0,0,1-.4-.4V85.12a.38.38,0,0,1,.4-.4h3.68a.38.38,0,0,1,.4.4v1.64h0a5.52,5.52,0,0,1,5-2.48,5.8,5.8,0,0,1,4,1.6c.21.2.25.36.08.56l-2.11,2.68a.36.36,0,0,1-.56.08,5.21,5.21,0,0,0-2.84-.92c-2.52,0-3.64,1.8-3.64,4.88V103.6a.38.38,0,0,1-.4.4Z"/><path d="M112.48,99.08a15,15,0,0,1-.68-4.72,15.36,15.36,0,0,1,.64-4.76c1.08-3.36,4-5.32,7.88-5.32s6.84,2,7.91,5.32a17.27,17.27,0,0,1,.64,5.8.39.39,0,0,1-.44.4H116.56a.21.21,0,0,0-.24.24,4.48,4.48,0,0,0,4.6,4.4,5.77,5.77,0,0,0,4.51-1.84.41.41,0,0,1,.6-.08l2.36,2.08a.36.36,0,0,1,0,.56,10.14,10.14,0,0,1-7.91,3.28C116.44,104.44,113.56,102.44,112.48,99.08Zm11.64-8.52a4.12,4.12,0,0,0-7.56,0,4.89,4.89,0,0,0-.24,1.64.21.21,0,0,0,.24.24h7.56a.21.21,0,0,0,.23-.24A5.18,5.18,0,0,0,124.12,90.56Z"/><path d="M131.72,101.4a.39.39,0,0,1,0-.56l2.28-2.4a.39.39,0,0,1,.56,0,8.92,8.92,0,0,0,5.64,2.2c2.36,0,3.55-1,3.55-2.28,0-1.16-.67-1.88-3.19-2.12l-2.08-.2c-3.92-.4-5.92-2.4-5.92-5.68,0-3.72,2.68-6.08,7.48-6.08a11.66,11.66,0,0,1,7.23,2.36.4.4,0,0,1,.08.56l-1.95,2.36a.4.4,0,0,1-.57.08,9.25,9.25,0,0,0-5-1.6c-1.92,0-2.92.84-2.92,2s.68,1.8,3.16,2l2.08.2c4,.4,6,2.48,6,5.64,0,3.84-2.81,6.52-8.08,6.52A12,12,0,0,1,131.72,101.4Z"/><path d="M172.51,111.19a.38.38,0,0,1-.4-.4v-8.63h0c-.92,1.32-2.52,2.28-5.12,2.28-3.28,0-5.67-1.56-6.67-4.64a16.07,16.07,0,0,1-.68-5.44,16.07,16.07,0,0,1,.68-5.44c1-3.08,3.39-4.64,6.67-4.64,2.6,0,4.2,1,5.12,2.28h0V85.12a.38.38,0,0,1,.4-.4h3.68a.38.38,0,0,1,.4.4v25.67a.38.38,0,0,1-.4.4ZM171.71,98a11.37,11.37,0,0,0,.4-3.6,11.37,11.37,0,0,0-.4-3.6,3.82,3.82,0,0,0-7.15,0,11.37,11.37,0,0,0-.4,3.6,11.37,11.37,0,0,0,.4,3.6,3.82,3.82,0,0,0,7.15,0Z"/><path d="M193.47,104a.38.38,0,0,1-.4-.4v-1.4h0a5.91,5.91,0,0,1-5,2.24c-4.11,0-6.63-3-6.63-7.16V85.12a.38.38,0,0,1,.4-.4h3.67a.38.38,0,0,1,.4.4V96.24c0,2.48,1.16,4.2,3.6,4.2,2.28,0,3.6-1.72,3.6-4.16V85.12a.38.38,0,0,1,.4-.4h3.68a.38.38,0,0,1,.4.4V103.6a.38.38,0,0,1-.4.4Z"/><path d="M202.24,99.08a14.67,14.67,0,0,1-.68-4.72,15.36,15.36,0,0,1,.64-4.76c1.08-3.36,4-5.32,7.87-5.32s6.84,2,7.92,5.32a17.27,17.27,0,0,1,.64,5.8.39.39,0,0,1-.44.4H206.31a.21.21,0,0,0-.23.24,4.45,4.45,0,0,0,4.59,4.4,5.81,5.81,0,0,0,4.52-1.84.41.41,0,0,1,.6-.08l2.36,2.08a.36.36,0,0,1,0,.56,10.16,10.16,0,0,1-7.92,3.28C206.19,104.44,203.32,102.44,202.24,99.08Zm11.63-8.52a4.12,4.12,0,0,0-7.56,0,5.18,5.18,0,0,0-.23,1.64.21.21,0,0,0,.23.24h7.56a.21.21,0,0,0,.24-.24A4.89,4.89,0,0,0,213.87,90.56Z"/><path d="M231.67,81.08a.38.38,0,0,1-.4-.4V77.2a.38.38,0,0,1,.4-.4h3.68a.38.38,0,0,1,.4.4v3.48a.38.38,0,0,1-.4.4Zm0,22.92a.38.38,0,0,1-.4-.4V85.12a.38.38,0,0,1,.4-.4h3.68a.38.38,0,0,1,.4.4V103.6a.38.38,0,0,1-.4.4Z"/><path d="M253,104a.38.38,0,0,1-.4-.4V92.48c0-2.48-1.24-4.2-3.64-4.2s-3.68,1.72-3.68,4.2V103.6a.38.38,0,0,1-.4.4h-3.68a.38.38,0,0,1-.4-.4V85.12a.38.38,0,0,1,.4-.4h3.68a.38.38,0,0,1,.4.4v1.4h0a6,6,0,0,1,5.08-2.24c4.12,0,6.68,3,6.68,7.16V103.6a.38.38,0,0,1-.4.4Z"/><path d="M266.87,104a.53.53,0,0,1-.52-.4l-6.8-18.48c-.08-.24.08-.4.32-.4h3.92a.51.51,0,0,1,.48.4l4.24,12.52h.08l4.16-12.52a.51.51,0,0,1,.48-.4h3.84c.24,0,.4.16.32.4l-6.8,18.48a.53.53,0,0,1-.52.4Z"/><path d="M279.67,99.12a14.24,14.24,0,0,1-.64-4.76,14.24,14.24,0,0,1,.64-4.76c1.08-3.36,4-5.32,8-5.32s6.84,2,7.92,5.32a14.24,14.24,0,0,1,.64,4.76,14.24,14.24,0,0,1-.64,4.76c-1.08,3.36-4,5.32-7.92,5.32S280.75,102.48,279.67,99.12Zm11.56-1.2a10.89,10.89,0,0,0,.4-3.56,11,11,0,0,0-.4-3.56,3.56,3.56,0,0,0-3.6-2.52A3.61,3.61,0,0,0,284,90.8a11,11,0,0,0-.4,3.56,10.89,10.89,0,0,0,.4,3.56,3.61,3.61,0,0,0,3.64,2.52A3.56,3.56,0,0,0,291.23,97.92Z"/><path d="M305.39,104.23c-3.76,0-5.28-1.79-5.28-5.51V77.2a.38.38,0,0,1,.4-.4h3.68a.38.38,0,0,1,.4.4V98.48c0,1.32.52,1.76,1.68,1.76h.88a.38.38,0,0,1,.4.4v3.19a.37.37,0,0,1-.4.4Z"/><path d="M322.87,104a.38.38,0,0,1-.4-.4v-1.4h0a5.91,5.91,0,0,1-5,2.24c-4.12,0-6.64-3-6.64-7.16V85.12a.38.38,0,0,1,.4-.4h3.68a.38.38,0,0,1,.4.4V96.24c0,2.48,1.16,4.2,3.6,4.2,2.28,0,3.6-1.72,3.6-4.16V85.12a.38.38,0,0,1,.4-.4h3.68a.38.38,0,0,1,.4.4V103.6a.38.38,0,0,1-.4.4Z"/><path d="M331.55,99.12a15.15,15.15,0,0,1-.6-4.76,15.15,15.15,0,0,1,.6-4.76c1.12-3.44,4.08-5.32,8-5.32a8.4,8.4,0,0,1,6.68,3,.39.39,0,0,1,0,.56L343.63,90a.36.36,0,0,1-.56-.08,4.37,4.37,0,0,0-3.56-1.68,3.54,3.54,0,0,0-3.6,2.52,11.33,11.33,0,0,0-.4,3.56,11.6,11.6,0,0,0,.4,3.6,3.55,3.55,0,0,0,3.6,2.48,4.37,4.37,0,0,0,3.56-1.68.36.36,0,0,1,.56,0l2.52,2.2c.2.16.16.36,0,.56a8.49,8.49,0,0,1-6.68,3C335.63,104.44,332.67,102.56,331.55,99.12Z"/><path d="M350.59,104a.38.38,0,0,1-.4-.4V85.12a.38.38,0,0,1,.4-.4h3.68a.38.38,0,0,1,.4.4v1.64h0a5.52,5.52,0,0,1,5-2.48,5.82,5.82,0,0,1,4,1.6c.2.2.24.36.08.56l-2.12,2.68a.36.36,0,0,1-.56.08,5.21,5.21,0,0,0-2.84-.92c-2.52,0-3.64,1.8-3.64,4.88V103.6a.38.38,0,0,1-.4.4Z"/><path d="M365.55,99.08a15,15,0,0,1-.68-4.72,15.36,15.36,0,0,1,.64-4.76c1.08-3.36,4-5.32,7.88-5.32s6.84,2,7.92,5.32a17.27,17.27,0,0,1,.64,5.8.39.39,0,0,1-.44.4H369.63a.21.21,0,0,0-.24.24,4.48,4.48,0,0,0,4.6,4.4,5.81,5.81,0,0,0,4.52-1.84.41.41,0,0,1,.6-.08l2.36,2.08a.36.36,0,0,1,0,.56,10.16,10.16,0,0,1-7.92,3.28C369.51,104.44,366.63,102.44,365.55,99.08Zm11.64-8.52a4.12,4.12,0,0,0-7.56,0,4.89,4.89,0,0,0-.24,1.64.21.21,0,0,0,.24.24h7.56a.21.21,0,0,0,.24-.24A4.89,4.89,0,0,0,377.19,90.56Z"/><path d="M398.15,104a.38.38,0,0,1-.4-.4V92.48c0-2.48-1.24-4.2-3.64-4.2s-3.68,1.72-3.68,4.2V103.6a.38.38,0,0,1-.4.4h-3.68a.38.38,0,0,1-.4-.4V85.12a.38.38,0,0,1,.4-.4H390a.38.38,0,0,1,.4.4v1.4h0a6,6,0,0,1,5.08-2.24c4.12,0,6.68,3,6.68,7.16V103.6a.38.38,0,0,1-.4.4Z"/><path d="M421.35,104.23c-3.88,0-5.36-1.87-5.36-5.63V88.44a.21.21,0,0,0-.24-.24h-1.28a.38.38,0,0,1-.4-.4V85.12a.38.38,0,0,1,.4-.4h1.28a.21.21,0,0,0,.24-.24V79.2a.38.38,0,0,1,.4-.4h3.68a.38.38,0,0,1,.4.4v5.28a.21.21,0,0,0,.24.24h2.56a.38.38,0,0,1,.4.4V87.8a.38.38,0,0,1-.4.4h-2.56a.21.21,0,0,0-.24.24v10c0,1.36.56,1.8,1.8,1.8h1a.38.38,0,0,1,.4.4v3.19a.37.37,0,0,1-.4.4Z"/><path d="M428.15,104a.38.38,0,0,1-.4-.4V85.12a.38.38,0,0,1,.4-.4h3.68a.38.38,0,0,1,.4.4v1.64h0a5.52,5.52,0,0,1,5-2.48,5.82,5.82,0,0,1,4,1.6c.2.2.24.36.08.56l-2.12,2.68a.36.36,0,0,1-.56.08,5.21,5.21,0,0,0-2.84-.92c-2.52,0-3.64,1.8-3.64,4.88V103.6a.38.38,0,0,1-.4.4Z"/><path d="M454.63,104a.38.38,0,0,1-.4-.4v-1.4h0c-.92,1.32-2.72,2.24-5.44,2.24-3.52,0-6.48-1.84-6.48-5.88,0-4.2,3-6.12,7.72-6.12h3.92a.21.21,0,0,0,.24-.24v-.92c0-2.2-1-3.2-4.28-3.2a6.76,6.76,0,0,0-4.4,1.32.36.36,0,0,1-.56-.08l-1.48-2.64a.37.37,0,0,1,.08-.52,11.25,11.25,0,0,1,6.84-1.88c5.88,0,8,2,8,6.72v12.6a.38.38,0,0,1-.4.4Zm-.48-6.48V96a.21.21,0,0,0-.24-.24h-3.2c-2.88,0-4.16.8-4.16,2.6,0,1.6,1.16,2.4,3.32,2.4C452.63,100.8,454.15,99.72,454.15,97.52Z"/><path d="M467.79,102.16h0v1.44a.38.38,0,0,1-.4.4h-3.68a.38.38,0,0,1-.4-.4V77.2a.38.38,0,0,1,.4-.4h3.68a.38.38,0,0,1,.4.4v9.36h0c.92-1.32,2.52-2.28,5.12-2.28,3.28,0,5.68,1.56,6.68,4.64a16.07,16.07,0,0,1,.68,5.44,16.07,16.07,0,0,1-.68,5.44c-1,3.08-3.4,4.64-6.68,4.64C470.31,104.44,468.71,103.48,467.79,102.16Zm7.52-4.2a11.37,11.37,0,0,0,.4-3.6,11.37,11.37,0,0,0-.4-3.6,3.82,3.82,0,0,0-7.16,0,11.37,11.37,0,0,0-.4,3.6,11.37,11.37,0,0,0,.4,3.6,3.82,3.82,0,0,0,7.16,0Z"/><path d="M495.75,104a.38.38,0,0,1-.4-.4v-1.4h0c-.92,1.32-2.72,2.24-5.44,2.24-3.52,0-6.48-1.84-6.48-5.88,0-4.2,3-6.12,7.72-6.12H495a.21.21,0,0,0,.24-.24v-.92c0-2.2-1-3.2-4.28-3.2a6.76,6.76,0,0,0-4.4,1.32.36.36,0,0,1-.56-.08l-1.48-2.64a.37.37,0,0,1,.08-.52,11.25,11.25,0,0,1,6.84-1.88c5.88,0,8,2,8,6.72v12.6a.38.38,0,0,1-.4.4Zm-.48-6.48V96a.21.21,0,0,0-.24-.24h-3.2c-2.88,0-4.16.8-4.16,2.6,0,1.6,1.16,2.4,3.32,2.4C493.75,100.8,495.27,99.72,495.27,97.52Z"/><path d="M501.27,111.19a.38.38,0,0,1-.4-.4v-3.2a.38.38,0,0,1,.4-.4h.88c1.6,0,2.24-.52,2.24-2.27V85.12a.38.38,0,0,1,.4-.4h3.68a.38.38,0,0,1,.4.4v19.71c0,4.44-2.28,6.36-6.48,6.36Zm3.52-30.11a.38.38,0,0,1-.4-.4V77.2a.38.38,0,0,1,.4-.4h3.68a.38.38,0,0,1,.4.4v3.48a.38.38,0,0,1-.4.4Z"/><path d="M513.51,99.12a14.24,14.24,0,0,1-.64-4.76,14.24,14.24,0,0,1,.64-4.76c1.08-3.36,4-5.32,8-5.32s6.84,2,7.92,5.32a14.24,14.24,0,0,1,.64,4.76,14.24,14.24,0,0,1-.64,4.76c-1.08,3.36-4,5.32-7.92,5.32S514.59,102.48,513.51,99.12Zm11.56-1.2a10.89,10.89,0,0,0,.4-3.56,11,11,0,0,0-.4-3.56,3.56,3.56,0,0,0-3.6-2.52,3.61,3.61,0,0,0-3.64,2.52,11,11,0,0,0-.4,3.56,10.89,10.89,0,0,0,.4,3.56,3.61,3.61,0,0,0,3.64,2.52A3.56,3.56,0,0,0,525.07,97.92Z"/><path d="M542.31,99.08a15,15,0,0,1-.68-4.72,15.36,15.36,0,0,1,.64-4.76c1.08-3.36,4-5.32,7.88-5.32s6.84,2,7.92,5.32a17.27,17.27,0,0,1,.64,5.8.39.39,0,0,1-.44.4H546.39a.21.21,0,0,0-.24.24,4.48,4.48,0,0,0,4.6,4.4,5.81,5.81,0,0,0,4.52-1.84.41.41,0,0,1,.6-.08l2.36,2.08a.36.36,0,0,1,0,.56,10.16,10.16,0,0,1-7.92,3.28C546.27,104.44,543.39,102.44,542.31,99.08ZM554,90.56a4.12,4.12,0,0,0-7.56,0,4.89,4.89,0,0,0-.24,1.64.21.21,0,0,0,.24.24H554a.21.21,0,0,0,.24-.24A4.89,4.89,0,0,0,554,90.56Z"/><path d="M574.91,104a.38.38,0,0,1-.4-.4V92.48c0-2.48-1.24-4.2-3.64-4.2s-3.68,1.72-3.68,4.2V103.6a.38.38,0,0,1-.4.4h-3.68a.38.38,0,0,1-.4-.4V85.12a.38.38,0,0,1,.4-.4h3.68a.38.38,0,0,1,.4.4v1.4h0a6,6,0,0,1,5.08-2.24c4.12,0,6.68,3,6.68,7.16V103.6a.38.38,0,0,1-.4.4Z"/><path d="M252.51,142a.38.38,0,0,1-.4-.4v-1.4h0c-.92,1.32-2.72,2.24-5.44,2.24-3.52,0-6.47-1.84-6.47-5.88,0-4.2,3-6.12,7.71-6.12h3.92a.21.21,0,0,0,.24-.24v-.92c0-2.2-1-3.2-4.28-3.2a6.76,6.76,0,0,0-4.4,1.32.36.36,0,0,1-.56-.08l-1.47-2.64a.37.37,0,0,1,.08-.52,11.24,11.24,0,0,1,6.83-1.88c5.88,0,8,2,8,6.72v12.6a.38.38,0,0,1-.4.4Zm-.48-6.48V134a.21.21,0,0,0-.24-.24h-3.2c-2.88,0-4.16.8-4.16,2.6,0,1.6,1.16,2.4,3.32,2.4C250.51,138.8,252,137.72,252,135.52Z"/><path d="M266.35,142.23c-3.76,0-5.27-1.79-5.27-5.51V115.2a.38.38,0,0,1,.4-.4h3.68a.38.38,0,0,1,.39.4v21.28c0,1.32.53,1.76,1.68,1.76h.88a.38.38,0,0,1,.4.4v3.19a.37.37,0,0,1-.4.4Z"/><path d="M277.31,142.23c-3.88,0-5.36-1.87-5.36-5.63V126.44c0-.16-.07-.24-.24-.24h-1.28a.38.38,0,0,1-.39-.4v-2.68a.38.38,0,0,1,.39-.4h1.28c.17,0,.24-.08.24-.24V117.2a.38.38,0,0,1,.4-.4H276a.38.38,0,0,1,.4.4v5.28a.21.21,0,0,0,.24.24h2.56a.38.38,0,0,1,.4.4v2.68a.38.38,0,0,1-.4.4h-2.56a.21.21,0,0,0-.24.24v10c0,1.36.56,1.8,1.8,1.8h1a.38.38,0,0,1,.4.4v3.19a.37.37,0,0,1-.4.4Z"/><path d="M295.55,142a.38.38,0,0,1-.4-.4v-1.4h0a5.91,5.91,0,0,1-5,2.24c-4.11,0-6.63-3-6.63-7.16V123.12a.37.37,0,0,1,.4-.4h3.67a.38.38,0,0,1,.4.4v11.12c0,2.48,1.16,4.2,3.6,4.2,2.28,0,3.6-1.72,3.6-4.16V123.12a.38.38,0,0,1,.4-.4h3.68a.38.38,0,0,1,.4.4V141.6a.38.38,0,0,1-.4.4Z"/><path d="M305.07,142a.38.38,0,0,1-.4-.4V123.12a.38.38,0,0,1,.4-.4h3.68a.38.38,0,0,1,.4.4v1.64h0a5.52,5.52,0,0,1,5-2.48,5.82,5.82,0,0,1,4,1.6c.2.2.24.36.08.56l-2.12,2.68a.36.36,0,0,1-.56.08,5.21,5.21,0,0,0-2.84-.92c-2.52,0-3.64,1.8-3.64,4.88V141.6a.38.38,0,0,1-.4.4Z"/><path d="M331.55,142a.38.38,0,0,1-.4-.4v-1.4h0c-.92,1.32-2.72,2.24-5.44,2.24-3.52,0-6.48-1.84-6.48-5.88,0-4.2,3-6.12,7.72-6.12h3.92a.21.21,0,0,0,.24-.24v-.92c0-2.2-1-3.2-4.28-3.2a6.76,6.76,0,0,0-4.4,1.32.36.36,0,0,1-.56-.08l-1.48-2.64a.37.37,0,0,1,.08-.52,11.25,11.25,0,0,1,6.84-1.88c5.88,0,8,2,8,6.72v12.6a.38.38,0,0,1-.4.4Zm-.48-6.48V134a.21.21,0,0,0-.24-.24h-3.2c-2.88,0-4.16.8-4.16,2.6,0,1.6,1.16,2.4,3.32,2.4C329.55,138.8,331.07,137.72,331.07,135.52Z"/><path d="M339,139.4a.39.39,0,0,1,0-.56l2.28-2.4a.39.39,0,0,1,.56,0,8.92,8.92,0,0,0,5.64,2.2c2.36,0,3.56-1,3.56-2.28,0-1.16-.68-1.88-3.2-2.12l-2.08-.2c-3.92-.4-5.92-2.4-5.92-5.68,0-3.72,2.68-6.08,7.48-6.08a11.69,11.69,0,0,1,7.24,2.36.4.4,0,0,1,.08.56l-2,2.36a.39.39,0,0,1-.56.08,9.31,9.31,0,0,0-5-1.6c-1.92,0-2.92.84-2.92,2s.68,1.8,3.16,2l2.08.2c4,.4,6,2.48,6,5.64,0,3.84-2.8,6.52-8.08,6.52A12,12,0,0,1,339,139.4Z"/><path d="M359,137.52a.38.38,0,0,1,.4-.4h4a.38.38,0,0,1,.4.4v4.08a.38.38,0,0,1-.4.4h-4a.38.38,0,0,1-.4-.4Z"/></g></g></svg>