<svg xmlns="http://www.w3.org/2000/svg" viewBox="0 0 461.6 168.07"><title>p11</title><g id="Capa_2" data-name="Capa 2"><g id="fondo"><path d="M2.48,13c0-3.89.15-5.11.65-6.63,1.26-4,4.36-6,8.5-6a8.62,8.62,0,0,1,8.28,5.26.32.32,0,0,1-.18.43L16.67,7.49a.32.32,0,0,1-.47-.18,4.83,4.83,0,0,0-4.57-3.17A4.33,4.33,0,0,0,7.24,7.38c-.33,1-.44,2-.44,5.58s.11,4.57.44,5.58a4.33,4.33,0,0,0,4.39,3.24,4.83,4.83,0,0,0,4.57-3.17.32.32,0,0,1,.47-.18l3.06,1.48a.32.32,0,0,1,.18.43,8.61,8.61,0,0,1-8.28,5.25c-4.14,0-7.24-2-8.5-6C2.63,18.07,2.48,16.85,2.48,13Z"/><path d="M33.44,25.2a.35.35,0,0,1-.36-.36V23.58h0c-.83,1.18-2.45,2-4.9,2-3.17,0-5.83-1.65-5.83-5.29s2.66-5.51,7-5.51h3.52c.15,0,.22-.07.22-.21v-.83c0-2-.94-2.88-3.85-2.88a6.06,6.06,0,0,0-4,1.19.32.32,0,0,1-.5-.07L23.36,9.61a.34.34,0,0,1,.08-.47,10.09,10.09,0,0,1,6.15-1.69c5.29,0,7.24,1.8,7.24,6.05V24.84a.35.35,0,0,1-.36.36ZM33,19.37V18c0-.14-.07-.21-.22-.21H29.91c-2.59,0-3.74.72-3.74,2.34,0,1.44,1,2.16,3,2.16C31.64,22.32,33,21.35,33,19.37Z"/><path d="M41.58,25.2a.34.34,0,0,1-.36-.36V8.21a.34.34,0,0,1,.36-.36h3.31a.34.34,0,0,1,.36.36V24.84a.34.34,0,0,1-.36.36Zm.36-20c-.22,0-.32-.14-.22-.36l2.7-4.5A.7.7,0,0,1,45.07,0h3.28a.21.21,0,0,1,.18.36l-3.42,4.5a.85.85,0,0,1-.72.36Z"/><path d="M60.48,25.2a.34.34,0,0,1-.36-.36v-1.3h0a5.23,5.23,0,0,1-4.61,2.05,5.82,5.82,0,0,1-6-4.17,14.54,14.54,0,0,1-.61-4.9,14.47,14.47,0,0,1,.61-4.89,5.82,5.82,0,0,1,6-4.18A5.23,5.23,0,0,1,60.08,9.5h0V1.08a.34.34,0,0,1,.36-.36h3.31a.34.34,0,0,1,.36.36V24.84a.35.35,0,0,1-.36.36Zm-.72-5.44a10.26,10.26,0,0,0,.36-3.24,10.3,10.3,0,0,0-.36-3.24,3.45,3.45,0,0,0-6.45,0A10.3,10.3,0,0,0,53,16.52a10.26,10.26,0,0,0,.36,3.24,3.45,3.45,0,0,0,6.45,0Z"/><path d="M79,25.2a.34.34,0,0,1-.36-.36V23.58h0c-.83,1.18-2.45,2-4.89,2-3.17,0-5.83-1.65-5.83-5.29s2.66-5.51,6.94-5.51h3.53a.19.19,0,0,0,.22-.21v-.83c0-2-.94-2.88-3.86-2.88a6.08,6.08,0,0,0-4,1.19.32.32,0,0,1-.5-.07L68.94,9.61A.34.34,0,0,1,69,9.14a10.13,10.13,0,0,1,6.16-1.69c5.29,0,7.23,1.8,7.23,6.05V24.84a.34.34,0,0,1-.36.36Zm-.43-5.83V18a.19.19,0,0,0-.22-.21H75.49c-2.59,0-3.74.72-3.74,2.34,0,1.44,1,2.16,3,2.16C77.22,22.32,78.59,21.35,78.59,19.37Z"/><path d="M85.75,22.86a.36.36,0,0,1,0-.51l2-2.16a.36.36,0,0,1,.51,0,8,8,0,0,0,5.07,2c2.13,0,3.21-.86,3.21-2.05s-.62-1.69-2.88-1.91L91.83,18c-3.52-.36-5.32-2.16-5.32-5.11,0-3.35,2.41-5.47,6.73-5.47a10.51,10.51,0,0,1,6.51,2.12.37.37,0,0,1,.08.51L98.06,12.2a.35.35,0,0,1-.5.07A8.44,8.44,0,0,0,93,10.83c-1.73,0-2.63.76-2.63,1.8s.62,1.62,2.85,1.84l1.87.18c3.64.36,5.36,2.23,5.36,5.08,0,3.45-2.52,5.86-7.27,5.86A10.77,10.77,0,0,1,85.75,22.86Z"/><path d="M122.11,25.2a.34.34,0,0,1-.36-.36V23.58h0c-.83,1.18-2.45,2-4.89,2-3.17,0-5.83-1.65-5.83-5.29s2.66-5.51,6.94-5.51h3.53a.19.19,0,0,0,.22-.21v-.83c0-2-.94-2.88-3.86-2.88a6,6,0,0,0-3.95,1.19.33.33,0,0,1-.51-.07L112,9.61a.34.34,0,0,1,.07-.47,10.13,10.13,0,0,1,6.16-1.69c5.29,0,7.23,1.8,7.23,6.05V24.84a.34.34,0,0,1-.36.36Zm-.43-5.83V18a.19.19,0,0,0-.22-.21h-2.88c-2.59,0-3.74.72-3.74,2.34,0,1.44,1,2.16,3,2.16C120.31,22.32,121.68,21.35,121.68,19.37Z"/><path d="M148.35,25.2a.35.35,0,0,1-.36-.36v-1.3h0a5.23,5.23,0,0,1-4.61,2.05,5.82,5.82,0,0,1-6-4.17,14.29,14.29,0,0,1-.61-4.9,14.22,14.22,0,0,1,.61-4.89,5.82,5.82,0,0,1,6-4.18A5.23,5.23,0,0,1,148,9.5h0V1.08a.34.34,0,0,1,.36-.36h3.31a.34.34,0,0,1,.36.36V24.84a.34.34,0,0,1-.36.36Zm-.72-5.44a10.26,10.26,0,0,0,.36-3.24,10.3,10.3,0,0,0-.36-3.24,3.44,3.44,0,0,0-6.44,0,10.3,10.3,0,0,0-.36,3.24,10.26,10.26,0,0,0,.36,3.24,3.44,3.44,0,0,0,6.44,0Z"/><path d="M156.92,4.57a.34.34,0,0,1-.36-.36V1.08a.34.34,0,0,1,.36-.36h3.31a.34.34,0,0,1,.36.36V4.21a.34.34,0,0,1-.36.36Zm0,20.63a.34.34,0,0,1-.36-.36V8.21a.34.34,0,0,1,.36-.36h3.31a.34.34,0,0,1,.36.36V24.84a.34.34,0,0,1-.36.36Z"/><path d="M166,25.2a.34.34,0,0,1-.36-.36V11.19c0-.14-.07-.21-.22-.21H164.3a.34.34,0,0,1-.36-.36V8.21a.34.34,0,0,1,.36-.36h1.15a.2.2,0,0,0,.22-.22V6.52c0-4,2-5.8,5.76-5.8H173a.34.34,0,0,1,.36.36V4a.34.34,0,0,1-.36.36H171.9c-1.8,0-2.2.43-2.2,2.12V7.63a.2.2,0,0,0,.22.22H173a.34.34,0,0,1,.36.36v2.41A.34.34,0,0,1,173,11h-3.09c-.15,0-.22.07-.22.21V24.84a.34.34,0,0,1-.36.36Z"/><path d="M175.89,20.77a13.49,13.49,0,0,1-.61-4.25,13.75,13.75,0,0,1,.58-4.28c1-3,3.63-4.79,7.09-4.79s6.15,1.84,7.12,4.79a15.39,15.39,0,0,1,.58,5.22.35.35,0,0,1-.4.36H179.56a.19.19,0,0,0-.21.21,4,4,0,0,0,.25,1.34A3.79,3.79,0,0,0,183.49,22a5.23,5.23,0,0,0,4.06-1.65c.18-.18.36-.22.54-.07l2.13,1.87a.31.31,0,0,1,0,.5,9.12,9.12,0,0,1-7.12,2.95C179.46,25.59,176.86,23.79,175.89,20.77Zm10.48-7.67a3.71,3.71,0,0,0-6.81,0,4.55,4.55,0,0,0-.21,1.48.19.19,0,0,0,.21.21h6.81a.19.19,0,0,0,.21-.21A4.55,4.55,0,0,0,186.37,13.1Z"/><path d="M194.61,25.2a.35.35,0,0,1-.36-.36V8.21a.34.34,0,0,1,.36-.36h3.31a.34.34,0,0,1,.36.36V9.68h0a5,5,0,0,1,4.5-2.23,5.22,5.22,0,0,1,3.63,1.44c.18.18.22.32.08.5l-1.91,2.42a.33.33,0,0,1-.51.07,4.61,4.61,0,0,0-2.55-.83c-2.27,0-3.28,1.62-3.28,4.39v9.4a.34.34,0,0,1-.36.36Z"/><path d="M208.08,20.77a13.46,13.46,0,0,1-.62-4.25,13.75,13.75,0,0,1,.58-4.28c1-3,3.64-4.79,7.09-4.79s6.16,1.84,7.13,4.79a15.73,15.73,0,0,1,.57,5.22.35.35,0,0,1-.39.36H211.75c-.15,0-.22.07-.22.21a4,4,0,0,0,.25,1.34A3.8,3.8,0,0,0,215.67,22a5.27,5.27,0,0,0,4.07-1.65c.18-.18.36-.22.54-.07l2.12,1.87a.32.32,0,0,1,0,.5,9.15,9.15,0,0,1-7.13,2.95C211.64,25.59,209.05,23.79,208.08,20.77Zm10.47-7.67a3.71,3.71,0,0,0-6.8,0,4.28,4.28,0,0,0-.22,1.48c0,.14.07.21.22.21h6.8a.19.19,0,0,0,.22-.21A4.53,4.53,0,0,0,218.55,13.1Z"/><path d="M237.41,25.2a.35.35,0,0,1-.36-.36v-10c0-2.23-1.11-3.78-3.27-3.78s-3.31,1.55-3.31,3.78v10a.35.35,0,0,1-.36.36H226.8a.34.34,0,0,1-.36-.36V8.21a.34.34,0,0,1,.36-.36h3.31a.34.34,0,0,1,.36.36V9.47h0a5.37,5.37,0,0,1,4.57-2c3.71,0,6,2.74,6,6.44v11a.35.35,0,0,1-.36.36Z"/><path d="M250.52,25.41c-3.49,0-4.82-1.69-4.82-5.07V11.19a.19.19,0,0,0-.22-.21h-1.15a.34.34,0,0,1-.36-.36V8.21a.34.34,0,0,1,.36-.36h1.15a.2.2,0,0,0,.22-.22V2.88a.34.34,0,0,1,.36-.36h3.31a.34.34,0,0,1,.36.36V7.63a.19.19,0,0,0,.21.22h2.31a.34.34,0,0,1,.36.36v2.41a.35.35,0,0,1-.36.36h-2.31a.19.19,0,0,0-.21.21v9c0,1.23.5,1.62,1.62,1.62h.9a.35.35,0,0,1,.36.36v2.88a.34.34,0,0,1-.36.36Z"/><path d="M256,20.77a13.46,13.46,0,0,1-.62-4.25,13.75,13.75,0,0,1,.58-4.28c1-3,3.63-4.79,7.09-4.79s6.16,1.84,7.13,4.79a15.73,15.73,0,0,1,.57,5.22.35.35,0,0,1-.39.36H259.63c-.15,0-.22.07-.22.21a4,4,0,0,0,.25,1.34A3.8,3.8,0,0,0,263.55,22a5.27,5.27,0,0,0,4.07-1.65c.18-.18.36-.22.54-.07l2.12,1.87a.32.32,0,0,1,0,.5,9.15,9.15,0,0,1-7.13,2.95C259.52,25.59,256.93,23.79,256,20.77Zm10.47-7.67a3.71,3.71,0,0,0-6.8,0,4.28,4.28,0,0,0-.22,1.48c0,.14.07.21.22.21h6.8a.19.19,0,0,0,.22-.21A4.53,4.53,0,0,0,266.43,13.1Z"/><path d="M293.07,25.2a.34.34,0,0,1-.36-.36v-10c0-2.23-1.12-3.78-3.28-3.78s-3.31,1.55-3.31,3.78v10a.34.34,0,0,1-.36.36h-3.31a.34.34,0,0,1-.36-.36V8.21a.34.34,0,0,1,.36-.36h3.31a.34.34,0,0,1,.36.36V9.47h0a5.36,5.36,0,0,1,4.57-2c3.71,0,6,2.74,6,6.44v11a.34.34,0,0,1-.36.36Z"/><path d="M301.46,4.57a.34.34,0,0,1-.36-.36V1.08a.34.34,0,0,1,.36-.36h3.31a.34.34,0,0,1,.36.36V4.21a.34.34,0,0,1-.36.36Zm0,20.63a.34.34,0,0,1-.36-.36V8.21a.34.34,0,0,1,.36-.36h3.31a.34.34,0,0,1,.36.36V24.84a.34.34,0,0,1-.36.36Z"/><path d="M314.35,25.2a.47.47,0,0,1-.47-.36L307.76,8.21c-.07-.22.07-.36.29-.36h3.52a.46.46,0,0,1,.44.36l3.81,11.26h.07l3.75-11.26a.44.44,0,0,1,.43-.36h3.45c.22,0,.36.14.29.36l-6.12,16.63a.46.46,0,0,1-.46.36Z"/><path d="M325.9,20.77a13.49,13.49,0,0,1-.61-4.25,13.75,13.75,0,0,1,.58-4.28c1-3,3.63-4.79,7.09-4.79s6.15,1.84,7.12,4.79a15.39,15.39,0,0,1,.58,5.22.35.35,0,0,1-.4.36H329.57a.19.19,0,0,0-.21.21,4,4,0,0,0,.25,1.34A3.79,3.79,0,0,0,333.5,22a5.23,5.23,0,0,0,4.06-1.65c.18-.18.36-.22.54-.07l2.13,1.87a.31.31,0,0,1,0,.5,9.12,9.12,0,0,1-7.12,2.95C329.47,25.59,326.87,23.79,325.9,20.77Zm10.48-7.67a3.71,3.71,0,0,0-6.81,0,4.55,4.55,0,0,0-.21,1.48.19.19,0,0,0,.21.21h6.81a.19.19,0,0,0,.21-.21A4.55,4.55,0,0,0,336.38,13.1Z"/><path d="M348.94,25.41c-3.38,0-4.75-1.62-4.75-5V1.08a.34.34,0,0,1,.36-.36h3.31a.34.34,0,0,1,.36.36V20.23c0,1.19.47,1.58,1.51,1.58h.8a.35.35,0,0,1,.36.36v2.88a.34.34,0,0,1-.36.36Z"/><path d="M372.48,31.68a.35.35,0,0,1-.36-.36V23.54h0a5.23,5.23,0,0,1-4.61,2.05,5.82,5.82,0,0,1-6-4.17,14.54,14.54,0,0,1-.61-4.9,14.47,14.47,0,0,1,.61-4.89,5.82,5.82,0,0,1,6-4.18,5.23,5.23,0,0,1,4.61,2.05h0V8.21a.34.34,0,0,1,.36-.36h3.32a.34.34,0,0,1,.36.36V31.32a.35.35,0,0,1-.36.36Zm-.72-11.92a10,10,0,0,0,.36-3.24,10,10,0,0,0-.36-3.24,3.44,3.44,0,0,0-6.44,0,10.3,10.3,0,0,0-.36,3.24,10.26,10.26,0,0,0,.36,3.24,3.44,3.44,0,0,0,6.44,0Z"/><path d="M391.35,25.2a.34.34,0,0,1-.36-.36V23.58h0a5.33,5.33,0,0,1-4.5,2c-3.71,0-6-2.73-6-6.44V8.21a.34.34,0,0,1,.36-.36h3.31a.34.34,0,0,1,.36.36v10c0,2.24,1,3.78,3.24,3.78S391,20.45,391,18.25v-10a.34.34,0,0,1,.36-.36h3.31a.34.34,0,0,1,.36.36V24.84a.34.34,0,0,1-.36.36Z"/><path d="M399.23,20.77a13.49,13.49,0,0,1-.61-4.25,13.75,13.75,0,0,1,.58-4.28c1-3,3.63-4.79,7.09-4.79s6.15,1.84,7.13,4.79a15.73,15.73,0,0,1,.57,5.22.35.35,0,0,1-.39.36H402.9a.19.19,0,0,0-.21.21,4,4,0,0,0,.25,1.34A3.79,3.79,0,0,0,406.83,22a5.27,5.27,0,0,0,4.07-1.65c.18-.18.36-.22.54-.07l2.12,1.87a.32.32,0,0,1,0,.5,9.15,9.15,0,0,1-7.13,2.95C402.8,25.59,400.2,23.79,399.23,20.77Zm10.48-7.67a3.71,3.71,0,0,0-6.81,0,4.55,4.55,0,0,0-.21,1.48.19.19,0,0,0,.21.21h6.81a.19.19,0,0,0,.21-.21A4.55,4.55,0,0,0,409.71,13.1Z"/><path d="M424.32,22.86a.36.36,0,0,1,0-.51l2.06-2.16a.35.35,0,0,1,.5,0,8,8,0,0,0,5.08,2c2.12,0,3.2-.86,3.2-2.05s-.61-1.69-2.88-1.91L430.41,18c-3.53-.36-5.33-2.16-5.33-5.11,0-3.35,2.41-5.47,6.73-5.47a10.56,10.56,0,0,1,6.52,2.12.36.36,0,0,1,.07.51l-1.77,2.12a.35.35,0,0,1-.5.07,8.43,8.43,0,0,0-4.53-1.44c-1.73,0-2.63.76-2.63,1.8s.61,1.62,2.84,1.84l1.87.18c3.64.36,5.37,2.23,5.37,5.08,0,3.45-2.52,5.86-7.27,5.86A10.78,10.78,0,0,1,424.32,22.86Z"/><path d="M442.25,20.77a13.49,13.49,0,0,1-.61-4.25,13.75,13.75,0,0,1,.58-4.28c1-3,3.63-4.79,7.09-4.79s6.15,1.84,7.12,4.79a15.39,15.39,0,0,1,.58,5.22.35.35,0,0,1-.4.36H445.92a.19.19,0,0,0-.21.21,4,4,0,0,0,.25,1.34A3.79,3.79,0,0,0,449.85,22a5.23,5.23,0,0,0,4.06-1.65c.18-.18.36-.22.54-.07l2.13,1.87a.31.31,0,0,1,0,.5,9.12,9.12,0,0,1-7.12,2.95C445.82,25.59,443.22,23.79,442.25,20.77Zm10.48-7.67a3.71,3.71,0,0,0-6.81,0,4.55,4.55,0,0,0-.21,1.48.19.19,0,0,0,.21.21h6.81a.19.19,0,0,0,.21-.21A4.55,4.55,0,0,0,452.73,13.1Z"/><path d="M.36,65.68A.34.34,0,0,1,0,65.32V42.21a.34.34,0,0,1,.36-.36H3.67a.34.34,0,0,1,.36.36V43.5h0a5.23,5.23,0,0,1,4.61-2,5.82,5.82,0,0,1,6,4.18,14.47,14.47,0,0,1,.61,4.89,14.54,14.54,0,0,1-.61,4.9,5.82,5.82,0,0,1-6,4.17,5.23,5.23,0,0,1-4.61-2.05H4v7.78a.34.34,0,0,1-.36.36ZM10.83,53.76a10,10,0,0,0,.36-3.24,10,10,0,0,0-.36-3.24,3.09,3.09,0,0,0-3.2-2.23,3.13,3.13,0,0,0-3.24,2.23A10.3,10.3,0,0,0,4,50.52a10.26,10.26,0,0,0,.36,3.24A3.13,3.13,0,0,0,7.63,56,3.09,3.09,0,0,0,10.83,53.76Z"/><path d="M29.55,59.2a.35.35,0,0,1-.36-.36V57.58h0a5.35,5.35,0,0,1-4.5,2c-3.71,0-6-2.73-6-6.44V42.21a.34.34,0,0,1,.36-.36h3.32a.34.34,0,0,1,.36.36v10c0,2.24,1,3.78,3.24,3.78s3.23-1.54,3.23-3.74v-10a.34.34,0,0,1,.36-.36h3.32a.34.34,0,0,1,.36.36V58.84a.35.35,0,0,1-.36.36Z"/><path d="M37.44,54.77a13.49,13.49,0,0,1-.61-4.25,13.79,13.79,0,0,1,.57-4.28c1-3,3.64-4.79,7.1-4.79s6.15,1.84,7.12,4.79a15.39,15.39,0,0,1,.58,5.22.36.36,0,0,1-.4.36H41.11a.19.19,0,0,0-.21.21,3.72,3.72,0,0,0,.25,1.34A3.78,3.78,0,0,0,45,56a5.23,5.23,0,0,0,4.06-1.65c.18-.18.36-.22.54-.07l2.13,1.87a.31.31,0,0,1,0,.5,9.12,9.12,0,0,1-7.13,3C41,59.59,38.41,57.79,37.44,54.77ZM47.91,47.1a3.36,3.36,0,0,0-3.38-2.23,3.39,3.39,0,0,0-3.42,2.23,4.55,4.55,0,0,0-.21,1.48.19.19,0,0,0,.21.21h6.8c.15,0,.22-.07.22-.21A4.28,4.28,0,0,0,47.91,47.1Z"/><path d="M66.49,59.2a.34.34,0,0,1-.36-.36v-1.3h0a5.2,5.2,0,0,1-4.6,2.05,5.82,5.82,0,0,1-6-4.17,14.25,14.25,0,0,1-.62-4.9,14.18,14.18,0,0,1,.62-4.89,5.82,5.82,0,0,1,6-4.18,5.2,5.2,0,0,1,4.6,2h0V35.08a.34.34,0,0,1,.36-.36H69.8a.34.34,0,0,1,.36.36V58.84a.34.34,0,0,1-.36.36Zm-.72-5.44a10.26,10.26,0,0,0,.36-3.24,10.3,10.3,0,0,0-.36-3.24,3.44,3.44,0,0,0-6.44,0A10.3,10.3,0,0,0,59,50.52a10.26,10.26,0,0,0,.36,3.24,3.44,3.44,0,0,0,6.44,0Z"/><path d="M74.38,54.77a13.46,13.46,0,0,1-.62-4.25,13.75,13.75,0,0,1,.58-4.28c1-3,3.64-4.79,7.09-4.79s6.16,1.84,7.13,4.79a15.73,15.73,0,0,1,.57,5.22.35.35,0,0,1-.39.36H78.05c-.15,0-.22.07-.22.21a4,4,0,0,0,.25,1.34A3.8,3.8,0,0,0,82,56,5.27,5.27,0,0,0,86,54.34c.18-.18.36-.22.54-.07l2.12,1.87a.32.32,0,0,1,0,.5,9.15,9.15,0,0,1-7.13,3C77.94,59.59,75.35,57.79,74.38,54.77ZM84.85,47.1a3.71,3.71,0,0,0-6.8,0,4.28,4.28,0,0,0-.22,1.48c0,.14.07.21.22.21h6.8a.19.19,0,0,0,.22-.21A4.53,4.53,0,0,0,84.85,47.1Z"/><path d="M100.87,65.68a.35.35,0,0,1-.36-.36V42.21a.34.34,0,0,1,.36-.36h3.31a.34.34,0,0,1,.36.36V43.5h0a5.23,5.23,0,0,1,4.61-2,5.82,5.82,0,0,1,6,4.18,14.47,14.47,0,0,1,.61,4.89,14.54,14.54,0,0,1-.61,4.9,5.82,5.82,0,0,1-6,4.17,5.23,5.23,0,0,1-4.61-2.05h0v7.78a.34.34,0,0,1-.36.36Zm10.48-11.92a10.26,10.26,0,0,0,.36-3.24,10.3,10.3,0,0,0-.36-3.24,3.45,3.45,0,0,0-6.45,0,10.3,10.3,0,0,0-.36,3.24,10.26,10.26,0,0,0,.36,3.24,3.45,3.45,0,0,0,6.45,0Z"/><path d="M119.77,59.2a.35.35,0,0,1-.36-.36V42.21a.34.34,0,0,1,.36-.36h3.31a.34.34,0,0,1,.36.36v1.47h0a5,5,0,0,1,4.5-2.23,5.22,5.22,0,0,1,3.63,1.44c.18.18.22.32.08.5l-1.91,2.42a.34.34,0,0,1-.51.07,4.64,4.64,0,0,0-2.55-.83c-2.27,0-3.28,1.62-3.28,4.39v9.4a.34.34,0,0,1-.36.36Z"/><path d="M133.24,54.77a13.46,13.46,0,0,1-.62-4.25,13.75,13.75,0,0,1,.58-4.28c1-3,3.63-4.79,7.09-4.79s6.16,1.84,7.13,4.79a15.73,15.73,0,0,1,.57,5.22.35.35,0,0,1-.39.36H136.91c-.15,0-.22.07-.22.21a4,4,0,0,0,.25,1.34A3.8,3.8,0,0,0,140.83,56a5.27,5.27,0,0,0,4.07-1.65c.18-.18.36-.22.54-.07l2.12,1.87a.32.32,0,0,1,0,.5,9.15,9.15,0,0,1-7.13,3C136.8,59.59,134.21,57.79,133.24,54.77Zm10.47-7.67a3.71,3.71,0,0,0-6.8,0,4.28,4.28,0,0,0-.22,1.48c0,.14.07.21.22.21h6.8a.19.19,0,0,0,.22-.21A4.53,4.53,0,0,0,143.71,47.1Z"/><path d="M150.55,56.86a.36.36,0,0,1,0-.51l2-2.16a.36.36,0,0,1,.51,0,8,8,0,0,0,5.07,2c2.13,0,3.21-.86,3.21-2.05,0-1-.62-1.69-2.88-1.91L156.63,52c-3.52-.36-5.32-2.16-5.32-5.11,0-3.35,2.41-5.47,6.73-5.47a10.51,10.51,0,0,1,6.51,2.12.37.37,0,0,1,.08.51l-1.77,2.12a.35.35,0,0,1-.5.07,8.44,8.44,0,0,0-4.54-1.44c-1.73,0-2.63.76-2.63,1.8s.62,1.62,2.85,1.84l1.87.18c3.64.36,5.36,2.23,5.36,5.08,0,3.45-2.52,5.86-7.27,5.86A10.77,10.77,0,0,1,150.55,56.86Z"/><path d="M168.48,54.77a13.49,13.49,0,0,1-.61-4.25,13.79,13.79,0,0,1,.57-4.28c1-3,3.64-4.79,7.09-4.79s6.16,1.84,7.13,4.79a15.39,15.39,0,0,1,.58,5.22.36.36,0,0,1-.4.36H172.15a.19.19,0,0,0-.22.21,3.72,3.72,0,0,0,.26,1.34A3.78,3.78,0,0,0,176.07,56a5.24,5.24,0,0,0,4.07-1.65c.18-.18.36-.22.54-.07l2.12,1.87a.32.32,0,0,1,0,.5,9.14,9.14,0,0,1-7.13,3C172,59.59,169.45,57.79,168.48,54.77ZM179,47.1a3.71,3.71,0,0,0-6.8,0,4.53,4.53,0,0,0-.22,1.48.19.19,0,0,0,.22.21H179c.15,0,.22-.07.22-.21A4.28,4.28,0,0,0,179,47.1Z"/><path d="M197.82,59.2a.34.34,0,0,1-.36-.36v-10c0-2.23-1.12-3.78-3.28-3.78s-3.31,1.55-3.31,3.78v10a.34.34,0,0,1-.36.36H187.2a.34.34,0,0,1-.36-.36V42.21a.34.34,0,0,1,.36-.36h3.31a.34.34,0,0,1,.36.36v1.26h0a5.34,5.34,0,0,1,4.57-2c3.7,0,6,2.74,6,6.44v11a.35.35,0,0,1-.36.36Z"/><path d="M210.92,59.41c-3.49,0-4.82-1.69-4.82-5.07V45.19c0-.14-.07-.21-.22-.21h-1.15a.34.34,0,0,1-.36-.36V42.21a.34.34,0,0,1,.36-.36h1.15a.2.2,0,0,0,.22-.22V36.88a.34.34,0,0,1,.36-.36h3.31a.34.34,0,0,1,.36.36v4.75a.19.19,0,0,0,.21.22h2.31a.34.34,0,0,1,.36.36v2.41a.35.35,0,0,1-.36.36h-2.31a.19.19,0,0,0-.21.21v9c0,1.23.5,1.62,1.62,1.62h.9a.35.35,0,0,1,.36.36v2.88a.34.34,0,0,1-.36.36Z"/><path d="M227,59.2a.35.35,0,0,1-.36-.36V57.58h0c-.83,1.18-2.45,2-4.9,2-3.17,0-5.83-1.65-5.83-5.29s2.66-5.51,7-5.51h3.52c.15,0,.22-.07.22-.21v-.83c0-2-.94-2.88-3.85-2.88a6.08,6.08,0,0,0-4,1.19.32.32,0,0,1-.5-.07l-1.34-2.38a.34.34,0,0,1,.08-.47,10.09,10.09,0,0,1,6.15-1.69c5.29,0,7.24,1.8,7.24,6V58.84a.35.35,0,0,1-.36.36Zm-.43-5.83V52c0-.14-.07-.21-.22-.21h-2.88c-2.59,0-3.74.72-3.74,2.34,0,1.44,1,2.16,3,2.16C225.21,56.32,226.58,55.35,226.58,53.37Z"/><path d="M235.15,59.2a.34.34,0,0,1-.36-.36V42.21a.34.34,0,0,1,.36-.36h3.31a.34.34,0,0,1,.36.36v1.47h0a5,5,0,0,1,4.5-2.23A5.24,5.24,0,0,1,247,42.89c.18.18.22.32.07.5l-1.9,2.42a.34.34,0,0,1-.51.07,4.64,4.64,0,0,0-2.55-.83c-2.27,0-3.28,1.62-3.28,4.39v9.4a.34.34,0,0,1-.36.36Z"/><path d="M267.4,59.2a.35.35,0,0,1-.36-.36V57.58h0c-.83,1.18-2.45,2-4.9,2-3.17,0-5.83-1.65-5.83-5.29s2.66-5.51,7-5.51h3.53a.19.19,0,0,0,.21-.21v-.83c0-2-.93-2.88-3.85-2.88a6.08,6.08,0,0,0-4,1.19.32.32,0,0,1-.5-.07l-1.34-2.38a.34.34,0,0,1,.08-.47,10.09,10.09,0,0,1,6.15-1.69c5.29,0,7.24,1.8,7.24,6V58.84a.35.35,0,0,1-.36.36ZM267,53.37V52a.19.19,0,0,0-.21-.21h-2.88c-2.6,0-3.75.72-3.75,2.34,0,1.44,1.05,2.16,3,2.16C265.6,56.32,267,55.35,267,53.37Z"/><path d="M279.86,59.41c-3.38,0-4.75-1.62-4.75-5V35.08a.34.34,0,0,1,.36-.36h3.31a.34.34,0,0,1,.36.36V54.23c0,1.19.47,1.58,1.51,1.58h.79a.34.34,0,0,1,.36.36v2.88a.34.34,0,0,1-.36.36Z"/><path d="M303.4,59.2a.35.35,0,0,1-.36-.36v-1.3h0a5.23,5.23,0,0,1-4.61,2.05,5.82,5.82,0,0,1-6-4.17,14.54,14.54,0,0,1-.61-4.9,14.47,14.47,0,0,1,.61-4.89,5.82,5.82,0,0,1,6-4.18,5.23,5.23,0,0,1,4.61,2h0V35.08a.34.34,0,0,1,.36-.36h3.31a.34.34,0,0,1,.36.36V58.84a.34.34,0,0,1-.36.36Zm-.72-5.44a10.26,10.26,0,0,0,.36-3.24,10.3,10.3,0,0,0-.36-3.24,3.44,3.44,0,0,0-6.44,0,10.3,10.3,0,0,0-.36,3.24,10.26,10.26,0,0,0,.36,3.24,3.44,3.44,0,0,0,6.44,0Z"/><path d="M311.29,54.77a13.49,13.49,0,0,1-.61-4.25,13.79,13.79,0,0,1,.57-4.28c1-3,3.64-4.79,7.09-4.79s6.16,1.84,7.13,4.79a15.39,15.39,0,0,1,.58,5.22.36.36,0,0,1-.4.36H315c-.15,0-.22.07-.22.21a3.72,3.72,0,0,0,.26,1.34A3.78,3.78,0,0,0,318.88,56,5.24,5.24,0,0,0,323,54.34c.18-.18.36-.22.54-.07l2.12,1.87a.32.32,0,0,1,0,.5,9.14,9.14,0,0,1-7.13,3C314.85,59.59,312.26,57.79,311.29,54.77Zm10.47-7.67a3.71,3.71,0,0,0-6.8,0,4.28,4.28,0,0,0-.22,1.48c0,.14.07.21.22.21h6.8c.15,0,.22-.07.22-.21A4.28,4.28,0,0,0,321.76,47.1Z"/><path d="M328.6,56.86a.36.36,0,0,1,0-.51l2.06-2.16a.35.35,0,0,1,.5,0,8,8,0,0,0,5.07,2c2.13,0,3.21-.86,3.21-2.05,0-1-.61-1.69-2.88-1.91L334.69,52c-3.53-.36-5.33-2.16-5.33-5.11,0-3.35,2.41-5.47,6.73-5.47a10.56,10.56,0,0,1,6.52,2.12.36.36,0,0,1,.07.51l-1.77,2.12a.35.35,0,0,1-.5.07,8.44,8.44,0,0,0-4.54-1.44c-1.72,0-2.62.76-2.62,1.8s.61,1.62,2.84,1.84l1.87.18c3.64.36,5.37,2.23,5.37,5.08,0,3.45-2.52,5.86-7.28,5.86A10.77,10.77,0,0,1,328.6,56.86Z"/><path d="M357.19,59.2a.34.34,0,0,1-.36-.36V57.58h0c-.83,1.18-2.45,2-4.9,2-3.16,0-5.83-1.65-5.83-5.29s2.67-5.51,6.95-5.51h3.53a.19.19,0,0,0,.21-.21v-.83c0-2-.93-2.88-3.85-2.88a6.08,6.08,0,0,0-4,1.19.32.32,0,0,1-.5-.07l-1.33-2.38a.33.33,0,0,1,.07-.47,10.09,10.09,0,0,1,6.15-1.69c5.3,0,7.24,1.8,7.24,6V58.84a.35.35,0,0,1-.36.36Zm-.44-5.83V52a.19.19,0,0,0-.21-.21h-2.88c-2.59,0-3.75.72-3.75,2.34,0,1.44,1,2.16,3,2.16C355.39,56.32,356.75,55.35,356.75,53.37Z"/><path d="M365.32,59.2a.35.35,0,0,1-.36-.36V42.21a.34.34,0,0,1,.36-.36h3.31a.34.34,0,0,1,.36.36v1.47h0a5,5,0,0,1,4.5-2.23,5.22,5.22,0,0,1,3.63,1.44c.18.18.22.32.08.5l-1.91,2.42a.33.33,0,0,1-.51.07,4.61,4.61,0,0,0-2.55-.83c-2.27,0-3.28,1.62-3.28,4.39v9.4a.34.34,0,0,1-.36.36Z"/><path d="M379.83,59.2a.34.34,0,0,1-.36-.36V42.21a.34.34,0,0,1,.36-.36h3.31a.34.34,0,0,1,.36.36v1.47h0a5,5,0,0,1,4.5-2.23,5.24,5.24,0,0,1,3.63,1.44c.18.18.22.32.07.5l-1.9,2.42a.34.34,0,0,1-.51.07,4.64,4.64,0,0,0-2.55-.83c-2.27,0-3.28,1.62-3.28,4.39v9.4a.34.34,0,0,1-.36.36Z"/><path d="M393.26,54.81a12.76,12.76,0,0,1-.58-4.29,12.66,12.66,0,0,1,.58-4.28c1-3,3.63-4.79,7.16-4.79s6.16,1.76,7.13,4.79a12.94,12.94,0,0,1,.57,4.28,13,13,0,0,1-.57,4.29c-1,3-3.64,4.78-7.13,4.78S394.23,57.83,393.26,54.81Zm10.4-1.08a9.77,9.77,0,0,0,.36-3.21,9.85,9.85,0,0,0-.36-3.2,3.2,3.2,0,0,0-3.24-2.27,3.24,3.24,0,0,0-3.27,2.27,9.85,9.85,0,0,0-.36,3.2,9.77,9.77,0,0,0,.36,3.21A3.23,3.23,0,0,0,400.42,56,3.2,3.2,0,0,0,403.66,53.73Z"/><path d="M416.4,59.41c-3.38,0-4.75-1.62-4.75-5V35.08a.34.34,0,0,1,.36-.36h3.31a.34.34,0,0,1,.36.36V54.23c0,1.19.47,1.58,1.52,1.58H418a.35.35,0,0,1,.36.36v2.88a.34.34,0,0,1-.36.36Z"/><path d="M426.05,59.41c-3.38,0-4.75-1.62-4.75-5V35.08a.34.34,0,0,1,.36-.36H425a.34.34,0,0,1,.36.36V54.23c0,1.19.47,1.58,1.51,1.58h.8a.35.35,0,0,1,.36.36v2.88a.34.34,0,0,1-.36.36Z"/><path d="M441.46,59.2a.34.34,0,0,1-.36-.36V57.58h0c-.82,1.18-2.44,2-4.89,2-3.17,0-5.83-1.65-5.83-5.29s2.66-5.51,6.94-5.51h3.53c.15,0,.22-.07.22-.21v-.83c0-2-.94-2.88-3.85-2.88a6,6,0,0,0-4,1.19.33.33,0,0,1-.51-.07l-1.33-2.38a.34.34,0,0,1,.07-.47,10.13,10.13,0,0,1,6.16-1.69c5.29,0,7.23,1.8,7.23,6V58.84a.34.34,0,0,1-.36.36ZM441,53.37V52c0-.14-.07-.21-.22-.21h-2.88c-2.59,0-3.74.72-3.74,2.34,0,1.44,1,2.16,3,2.16C439.66,56.32,441,55.35,441,53.37Z"/><path d="M449.6,59.2a.34.34,0,0,1-.36-.36V42.21a.34.34,0,0,1,.36-.36h3.31a.34.34,0,0,1,.36.36v1.47h0a5,5,0,0,1,4.5-2.23,5.25,5.25,0,0,1,3.64,1.44c.18.18.21.32.07.5l-1.91,2.42a.32.32,0,0,1-.5.07,4.64,4.64,0,0,0-2.56-.83c-2.26,0-3.27,1.62-3.27,4.39v9.4a.35.35,0,0,1-.36.36Z"/><path d="M17.37,93.41c-3.38,0-4.75-1.62-4.75-5V69.08a.34.34,0,0,1,.36-.36h3.31a.34.34,0,0,1,.36.36V88.23c0,1.19.47,1.58,1.51,1.58H19a.34.34,0,0,1,.36.36v2.88a.34.34,0,0,1-.36.36Z"/><path d="M32.78,93.2a.34.34,0,0,1-.36-.36V91.58h0c-.83,1.18-2.45,2-4.9,2-3.16,0-5.83-1.65-5.83-5.29s2.67-5.51,7-5.51h3.53a.19.19,0,0,0,.21-.21v-.83c0-2-.93-2.88-3.85-2.88a6.08,6.08,0,0,0-4,1.19A.32.32,0,0,1,24,80L22.7,77.61a.34.34,0,0,1,.07-.47,10.09,10.09,0,0,1,6.15-1.69c5.3,0,7.24,1.8,7.24,6V92.84a.34.34,0,0,1-.36.36Zm-.44-5.83V86a.19.19,0,0,0-.21-.21H29.25c-2.59,0-3.74.72-3.74,2.34,0,1.44,1,2.16,3,2.16C31,90.32,32.34,89.35,32.34,87.37Z"/><path d="M44.62,91.54h0v1.3a.34.34,0,0,1-.35.36H40.91a.35.35,0,0,1-.36-.36V69.08a.34.34,0,0,1,.36-.36h3.32a.33.33,0,0,1,.35.36V77.5h0a5.23,5.23,0,0,1,4.61-2,5.82,5.82,0,0,1,6,4.18,14.47,14.47,0,0,1,.61,4.89,14.54,14.54,0,0,1-.61,4.9,5.82,5.82,0,0,1-6,4.17A5.23,5.23,0,0,1,44.62,91.54Zm6.77-3.78a10.26,10.26,0,0,0,.36-3.24,10.3,10.3,0,0,0-.36-3.24,3.45,3.45,0,0,0-6.45,0,10.3,10.3,0,0,0-.36,3.24,10.26,10.26,0,0,0,.36,3.24,3.45,3.45,0,0,0,6.45,0Z"/><path d="M59.09,88.81a13,13,0,0,1-.57-4.29,12.94,12.94,0,0,1,.57-4.28c1-3,3.64-4.79,7.17-4.79s6.15,1.76,7.12,4.79A12.66,12.66,0,0,1,74,84.52a12.76,12.76,0,0,1-.58,4.29c-1,3-3.63,4.78-7.12,4.78S60.07,91.83,59.09,88.81ZM69.5,87.73a10,10,0,0,0,.36-3.21,10.13,10.13,0,0,0-.36-3.2,3.21,3.21,0,0,0-3.24-2.27A3.25,3.25,0,0,0,63,81.32a9.85,9.85,0,0,0-.36,3.2A9.77,9.77,0,0,0,63,87.73,3.24,3.24,0,0,0,66.26,90,3.2,3.2,0,0,0,69.5,87.73Z"/><path d="M77.92,93.2a.35.35,0,0,1-.36-.36V76.21a.34.34,0,0,1,.36-.36h3.31a.34.34,0,0,1,.36.36v1.47h0a5,5,0,0,1,4.5-2.23,5.22,5.22,0,0,1,3.63,1.44c.18.18.22.32.08.5l-1.91,2.42a.34.34,0,0,1-.51.07,4.64,4.64,0,0,0-2.55-.83c-2.27,0-3.28,1.62-3.28,4.39v9.4a.34.34,0,0,1-.36.36Z"/><path d="M91.38,88.77a13.49,13.49,0,0,1-.61-4.25,13.75,13.75,0,0,1,.58-4.28c1-3,3.63-4.79,7.09-4.79s6.16,1.84,7.13,4.79a15.73,15.73,0,0,1,.57,5.22.35.35,0,0,1-.39.36H95.06c-.15,0-.22.07-.22.21a4,4,0,0,0,.25,1.34A3.8,3.8,0,0,0,99,90a5.27,5.27,0,0,0,4.07-1.65c.18-.18.36-.22.54-.07l2.12,1.87a.32.32,0,0,1,0,.5,9.15,9.15,0,0,1-7.13,3C95,93.59,92.36,91.79,91.38,88.77Zm10.48-7.67a3.71,3.71,0,0,0-6.8,0,4.28,4.28,0,0,0-.22,1.48c0,.14.07.21.22.21h6.8a.19.19,0,0,0,.22-.21A4.53,4.53,0,0,0,101.86,81.1Z"/><path d="M108.7,90.86a.36.36,0,0,1,0-.51l2-2.16a.36.36,0,0,1,.51,0,8,8,0,0,0,5.07,2c2.13,0,3.21-.86,3.21-2s-.62-1.69-2.88-1.91L114.78,86c-3.52-.36-5.32-2.16-5.32-5.11,0-3.35,2.41-5.47,6.73-5.47a10.51,10.51,0,0,1,6.51,2.12.37.37,0,0,1,.08.51L121,80.2a.35.35,0,0,1-.5.07A8.44,8.44,0,0,0,116,78.83c-1.73,0-2.63.76-2.63,1.8s.62,1.62,2.85,1.84l1.87.18c3.64.36,5.36,2.23,5.36,5.08,0,3.45-2.52,5.86-7.27,5.86A10.77,10.77,0,0,1,108.7,90.86Z"/><path d="M134.4,88.77a13.49,13.49,0,0,1-.61-4.25,13.75,13.75,0,0,1,.58-4.28c1-3,3.63-4.79,7.09-4.79s6.15,1.84,7.13,4.79a15.73,15.73,0,0,1,.57,5.22.35.35,0,0,1-.39.36H138.08c-.15,0-.22.07-.22.21a4,4,0,0,0,.25,1.34A3.8,3.8,0,0,0,142,90a5.27,5.27,0,0,0,4.07-1.65c.18-.18.36-.22.54-.07l2.12,1.87a.32.32,0,0,1,0,.5,9.15,9.15,0,0,1-7.13,3C138,93.59,135.38,91.79,134.4,88.77Zm10.48-7.67a3.71,3.71,0,0,0-6.8,0,4.28,4.28,0,0,0-.22,1.48c0,.14.07.21.22.21h6.8a.19.19,0,0,0,.21-.21A4.55,4.55,0,0,0,144.88,81.1Z"/><path d="M163.74,93.2a.35.35,0,0,1-.36-.36v-10c0-2.23-1.11-3.78-3.27-3.78s-3.31,1.55-3.31,3.78v10a.35.35,0,0,1-.36.36h-3.32a.35.35,0,0,1-.36-.36V76.21a.34.34,0,0,1,.36-.36h3.32a.34.34,0,0,1,.36.36v1.26h0a5.37,5.37,0,0,1,4.57-2c3.71,0,6,2.74,6,6.44v11a.34.34,0,0,1-.36.36Z"/><path d="M179.91,99.68a.34.34,0,0,1-.36-.36V76.21a.34.34,0,0,1,.36-.36h3.31a.34.34,0,0,1,.36.36V77.5h0a5.23,5.23,0,0,1,4.61-2,5.82,5.82,0,0,1,6,4.18,14.18,14.18,0,0,1,.62,4.89,14.25,14.25,0,0,1-.62,4.9,5.82,5.82,0,0,1-6,4.17,5.23,5.23,0,0,1-4.61-2h0v7.78a.35.35,0,0,1-.36.36Zm10.47-11.92a10.26,10.26,0,0,0,.36-3.24,10.3,10.3,0,0,0-.36-3.24,3.44,3.44,0,0,0-6.44,0,10.3,10.3,0,0,0-.36,3.24,10.26,10.26,0,0,0,.36,3.24,3.44,3.44,0,0,0,6.44,0Z"/><path d="M198.09,88.81a12.76,12.76,0,0,1-.58-4.29,12.66,12.66,0,0,1,.58-4.28c1-3,3.63-4.79,7.16-4.79s6.16,1.76,7.13,4.79a12.94,12.94,0,0,1,.57,4.28,13,13,0,0,1-.57,4.29c-1,3-3.64,4.78-7.13,4.78S199.06,91.83,198.09,88.81Zm10.4-1.08a9.77,9.77,0,0,0,.36-3.21,9.85,9.85,0,0,0-.36-3.2,3.2,3.2,0,0,0-3.24-2.27A3.26,3.26,0,0,0,202,81.32a10.13,10.13,0,0,0-.36,3.2,10,10,0,0,0,.36,3.21A3.25,3.25,0,0,0,205.25,90,3.2,3.2,0,0,0,208.49,87.73Z"/><path d="M215.51,90.86a.36.36,0,0,1,0-.51l2.05-2.16a.36.36,0,0,1,.51,0,8,8,0,0,0,5.07,2c2.13,0,3.21-.86,3.21-2s-.62-1.69-2.88-1.91L221.59,86c-3.52-.36-5.32-2.16-5.32-5.11,0-3.35,2.41-5.47,6.73-5.47a10.51,10.51,0,0,1,6.51,2.12.37.37,0,0,1,.08.51l-1.77,2.12a.35.35,0,0,1-.5.07,8.44,8.44,0,0,0-4.54-1.44c-1.73,0-2.63.76-2.63,1.8s.62,1.62,2.85,1.84l1.87.18c3.64.36,5.36,2.23,5.36,5.08,0,3.45-2.52,5.86-7.27,5.86A10.77,10.77,0,0,1,215.51,90.86Z"/><path d="M238.84,93.41c-3.49,0-4.83-1.69-4.83-5.07V79.19a.19.19,0,0,0-.21-.21h-1.15a.34.34,0,0,1-.36-.36V76.21a.34.34,0,0,1,.36-.36h1.15a.19.19,0,0,0,.21-.22V70.88a.34.34,0,0,1,.36-.36h3.32a.34.34,0,0,1,.36.36v4.75a.19.19,0,0,0,.21.22h2.3a.34.34,0,0,1,.36.36v2.41a.34.34,0,0,1-.36.36h-2.3a.19.19,0,0,0-.21.21v9c0,1.23.5,1.62,1.62,1.62h.89a.34.34,0,0,1,.36.36v2.88a.34.34,0,0,1-.36.36Z"/><path d="M244.27,88.77a13.49,13.49,0,0,1-.61-4.25,13.75,13.75,0,0,1,.58-4.28c1-3,3.63-4.79,7.09-4.79s6.15,1.84,7.13,4.79a15.73,15.73,0,0,1,.57,5.22.35.35,0,0,1-.39.36H248c-.15,0-.22.07-.22.21a4,4,0,0,0,.25,1.34A3.8,3.8,0,0,0,251.87,90a5.27,5.27,0,0,0,4.07-1.65c.18-.18.36-.22.54-.07l2.12,1.87a.32.32,0,0,1,0,.5,9.15,9.15,0,0,1-7.13,3C247.84,93.59,245.25,91.79,244.27,88.77Zm10.48-7.67a3.71,3.71,0,0,0-6.8,0,4.28,4.28,0,0,0-.22,1.48c0,.14.07.21.22.21h6.8a.19.19,0,0,0,.21-.21A4.55,4.55,0,0,0,254.75,81.1Z"/><path d="M261.59,90.86a.36.36,0,0,1,0-.51l2.05-2.16a.36.36,0,0,1,.51,0,8,8,0,0,0,5.07,2c2.12,0,3.2-.86,3.2-2s-.61-1.69-2.88-1.91L267.67,86c-3.52-.36-5.32-2.16-5.32-5.11,0-3.35,2.41-5.47,6.73-5.47a10.53,10.53,0,0,1,6.51,2.12.36.36,0,0,1,.07.51L273.9,80.2a.35.35,0,0,1-.5.07,8.44,8.44,0,0,0-4.54-1.44c-1.73,0-2.63.76-2.63,1.8s.62,1.62,2.85,1.84l1.87.18c3.63.36,5.36,2.23,5.36,5.08,0,3.45-2.52,5.86-7.27,5.86A10.77,10.77,0,0,1,261.59,90.86Z"/><path d="M287.26,88.81a12.76,12.76,0,0,1-.58-4.29,12.66,12.66,0,0,1,.58-4.28c1-3,3.63-4.79,7.16-4.79s6.16,1.76,7.13,4.79a12.94,12.94,0,0,1,.57,4.28,13,13,0,0,1-.57,4.29c-1,3-3.64,4.78-7.13,4.78S288.23,91.83,287.26,88.81Zm10.4-1.08a9.77,9.77,0,0,0,.36-3.21,9.85,9.85,0,0,0-.36-3.2,3.2,3.2,0,0,0-3.24-2.27,3.26,3.26,0,0,0-3.28,2.27,10.13,10.13,0,0,0-.36,3.2,10,10,0,0,0,.36,3.21A3.25,3.25,0,0,0,294.42,90,3.2,3.2,0,0,0,297.66,87.73Z"/><path d="M318.58,93.41c-3.5,0-4.83-1.69-4.83-5.07V79.19a.19.19,0,0,0-.21-.21h-1.16a.35.35,0,0,1-.36-.36V76.21a.34.34,0,0,1,.36-.36h1.16a.19.19,0,0,0,.21-.22V70.88a.34.34,0,0,1,.36-.36h3.31a.34.34,0,0,1,.36.36v4.75a.2.2,0,0,0,.22.22h2.3a.34.34,0,0,1,.36.36v2.41a.34.34,0,0,1-.36.36H318a.19.19,0,0,0-.22.21v9c0,1.23.51,1.62,1.62,1.62h.9a.34.34,0,0,1,.36.36v2.88a.34.34,0,0,1-.36.36Z"/><path d="M324,88.81a12.76,12.76,0,0,1-.58-4.29,12.66,12.66,0,0,1,.58-4.28c1-3,3.63-4.79,7.16-4.79s6.15,1.76,7.13,4.79a12.94,12.94,0,0,1,.57,4.28,13,13,0,0,1-.57,4.29c-1,3-3.64,4.78-7.13,4.78S325,91.83,324,88.81Zm10.4-1.08a9.77,9.77,0,0,0,.36-3.21,9.85,9.85,0,0,0-.36-3.2,3.2,3.2,0,0,0-3.24-2.27,3.26,3.26,0,0,0-3.28,2.27,10.13,10.13,0,0,0-.36,3.2,10,10,0,0,0,.36,3.21A3.25,3.25,0,0,0,331.14,90,3.2,3.2,0,0,0,334.38,87.73Z"/><path d="M342.8,93.2a.35.35,0,0,1-.36-.36V76.21a.34.34,0,0,1,.36-.36h3.32a.34.34,0,0,1,.36.36v1.47h0a5,5,0,0,1,4.5-2.23,5.25,5.25,0,0,1,3.64,1.44c.18.18.21.32.07.5l-1.91,2.42a.32.32,0,0,1-.5.07,4.64,4.64,0,0,0-2.56-.83c-2.27,0-3.27,1.62-3.27,4.39v9.4a.35.35,0,0,1-.36.36Z"/><path d="M357.31,93.2a.35.35,0,0,1-.36-.36V76.21a.34.34,0,0,1,.36-.36h3.31a.34.34,0,0,1,.36.36v1.47h0a5,5,0,0,1,4.5-2.23,5.22,5.22,0,0,1,3.63,1.44c.18.18.22.32.08.5l-1.91,2.42a.34.34,0,0,1-.51.07,4.64,4.64,0,0,0-2.55-.83c-2.27,0-3.28,1.62-3.28,4.39v9.4a.34.34,0,0,1-.36.36Z"/><path d="M370.78,88.77a13.46,13.46,0,0,1-.62-4.25,13.75,13.75,0,0,1,.58-4.28c1-3,3.64-4.79,7.09-4.79S384,77.29,385,80.24a15.73,15.73,0,0,1,.57,5.22.35.35,0,0,1-.39.36H374.45c-.15,0-.22.07-.22.21a4,4,0,0,0,.25,1.34A3.8,3.8,0,0,0,378.37,90a5.27,5.27,0,0,0,4.07-1.65c.18-.18.36-.22.54-.07l2.12,1.87a.32.32,0,0,1,0,.5,9.15,9.15,0,0,1-7.13,3C374.34,93.59,371.75,91.79,370.78,88.77Zm10.47-7.67a3.71,3.71,0,0,0-6.8,0,4.28,4.28,0,0,0-.22,1.48c0,.14.07.21.22.21h6.8a.19.19,0,0,0,.22-.21A4.53,4.53,0,0,0,381.25,81.1Z"/><path d="M388.09,90.86a.36.36,0,0,1,0-.51l2.05-2.16a.36.36,0,0,1,.51,0,8,8,0,0,0,5.07,2c2.13,0,3.21-.86,3.21-2s-.62-1.69-2.88-1.91L394.17,86c-3.52-.36-5.32-2.16-5.32-5.11,0-3.35,2.41-5.47,6.73-5.47a10.51,10.51,0,0,1,6.51,2.12.37.37,0,0,1,.08.51L400.4,80.2a.35.35,0,0,1-.5.07,8.44,8.44,0,0,0-4.54-1.44c-1.73,0-2.63.76-2.63,1.8s.62,1.62,2.85,1.84l1.87.18c3.64.36,5.36,2.23,5.36,5.08,0,3.45-2.52,5.86-7.27,5.86A10.77,10.77,0,0,1,388.09,90.86Z"/><path d="M424.81,93.2a.34.34,0,0,1-.36-.36v-1.3h0a5.21,5.21,0,0,1-4.6,2,5.83,5.83,0,0,1-6-4.17,14.54,14.54,0,0,1-.61-4.9,14.47,14.47,0,0,1,.61-4.89,5.82,5.82,0,0,1,6-4.18,5.21,5.21,0,0,1,4.6,2h0V69.08a.34.34,0,0,1,.36-.36h3.31a.34.34,0,0,1,.36.36V92.84a.34.34,0,0,1-.36.36Zm-.72-5.44a10.26,10.26,0,0,0,.36-3.24,10.3,10.3,0,0,0-.36-3.24,3.13,3.13,0,0,0-3.24-2.23,3.09,3.09,0,0,0-3.2,2.23,10,10,0,0,0-.36,3.24,10,10,0,0,0,.36,3.24,3.09,3.09,0,0,0,3.2,2.23A3.13,3.13,0,0,0,424.09,87.76Z"/><path d="M432.69,88.77a13.49,13.49,0,0,1-.61-4.25,13.75,13.75,0,0,1,.58-4.28c1-3,3.63-4.79,7.09-4.79s6.15,1.84,7.13,4.79a15.73,15.73,0,0,1,.57,5.22.35.35,0,0,1-.39.36H436.37c-.15,0-.22.07-.22.21a4,4,0,0,0,.25,1.34A3.8,3.8,0,0,0,440.29,90a5.27,5.27,0,0,0,4.07-1.65c.18-.18.36-.22.54-.07L447,90.14a.32.32,0,0,1,0,.5,9.15,9.15,0,0,1-7.13,3C436.26,93.59,433.67,91.79,432.69,88.77Zm10.48-7.67a3.71,3.71,0,0,0-6.8,0,4.28,4.28,0,0,0-.22,1.48c0,.14.07.21.22.21h6.8a.19.19,0,0,0,.21-.21A4.55,4.55,0,0,0,443.17,81.1Z"/><path d="M7.6,122.81a17.27,17.27,0,0,1,0-8.57c1-3.1,3.67-4.79,7.16-4.79a7.55,7.55,0,0,1,6,2.7.34.34,0,0,1,0,.5l-2.26,2a.33.33,0,0,1-.51-.07,3.92,3.92,0,0,0-3.2-1.51,3.18,3.18,0,0,0-3.24,2.27,10.11,10.11,0,0,0-.36,3.2,10.38,10.38,0,0,0,.36,3.24A3.18,3.18,0,0,0,14.76,124a3.92,3.92,0,0,0,3.2-1.51.32.32,0,0,1,.51,0l2.26,2c.19.14.15.32,0,.5a7.64,7.64,0,0,1-6,2.66C11.27,127.59,8.6,125.9,7.6,122.81Z"/><path d="M24,122.81a16.39,16.39,0,0,1,0-8.57c1-3,3.64-4.79,7.16-4.79s6.16,1.76,7.13,4.79a16.12,16.12,0,0,1,0,8.57c-1,3-3.63,4.78-7.13,4.78S25,125.83,24,122.81Zm10.4-1.08a14.45,14.45,0,0,0,0-6.41,3.2,3.2,0,0,0-3.24-2.27,3.25,3.25,0,0,0-3.27,2.27,14.45,14.45,0,0,0,0,6.41A3.24,3.24,0,0,0,31.17,124,3.2,3.2,0,0,0,34.41,121.73Z"/><path d="M64.08,127.2a.34.34,0,0,1-.36-.36v-10c0-2.23-1.12-3.78-3.28-3.78s-3.31,1.55-3.31,3.78v10a.34.34,0,0,1-.36.36H53.46a.34.34,0,0,1-.36-.36v-10c0-2.23-1.12-3.78-3.28-3.78s-3.31,1.55-3.31,3.78v10a.34.34,0,0,1-.36.36H42.84a.34.34,0,0,1-.36-.36V110.21a.34.34,0,0,1,.36-.36h3.31a.34.34,0,0,1,.36.36v1.26h0a5.34,5.34,0,0,1,4.57-2,5.59,5.59,0,0,1,4.75,2.3h0a7.08,7.08,0,0,1,5.54-2.3c4,0,6.3,2.74,6.3,6.44v11a.35.35,0,0,1-.36.36Z"/><path d="M82.76,127.2a.35.35,0,0,1-.36-.36v-1.26h0a5.35,5.35,0,0,1-4.5,2c-3.71,0-6-2.73-6-6.44V110.21a.34.34,0,0,1,.36-.36h3.31a.34.34,0,0,1,.36.36v10c0,2.24,1,3.78,3.24,3.78s3.24-1.54,3.24-3.74v-10a.34.34,0,0,1,.36-.36h3.31a.34.34,0,0,1,.36.36v16.63a.34.34,0,0,1-.36.36Z"/><path d="M102,127.2a.34.34,0,0,1-.36-.36v-10c0-2.23-1.12-3.78-3.28-3.78S95,114.6,95,116.83v10a.34.34,0,0,1-.36.36H91.33a.34.34,0,0,1-.36-.36V110.21a.34.34,0,0,1,.36-.36h3.31a.34.34,0,0,1,.36.36v1.26h0a5.36,5.36,0,0,1,4.57-2c3.71,0,6,2.74,6,6.44v11a.34.34,0,0,1-.36.36Z"/><path d="M110.34,106.57a.34.34,0,0,1-.36-.36v-3.13a.34.34,0,0,1,.36-.36h3.31a.34.34,0,0,1,.36.36v3.13a.34.34,0,0,1-.36.36Zm0,20.63a.34.34,0,0,1-.36-.36V110.21a.34.34,0,0,1,.36-.36h3.31a.34.34,0,0,1,.36.36v16.63a.34.34,0,0,1-.36.36Z"/><path d="M118.15,122.81a17.27,17.27,0,0,1,0-8.57c1-3.1,3.67-4.79,7.16-4.79a7.53,7.53,0,0,1,6,2.7.34.34,0,0,1,0,.5l-2.27,2a.32.32,0,0,1-.5-.07,4,4,0,0,0-3.21-1.51,3.2,3.2,0,0,0-3.24,2.27,10.41,10.41,0,0,0-.36,3.2,10.68,10.68,0,0,0,.36,3.24,3.2,3.2,0,0,0,3.24,2.23,4,4,0,0,0,3.21-1.51.31.31,0,0,1,.5,0l2.27,2c.18.14.14.32,0,.5a7.63,7.63,0,0,1-6,2.66C121.82,127.59,119.16,125.9,118.15,122.81Z"/><path d="M144.61,127.2a.34.34,0,0,1-.36-.36v-1.26h0c-.83,1.18-2.44,2-4.89,2-3.17,0-5.83-1.65-5.83-5.29s2.66-5.51,6.94-5.51H144a.19.19,0,0,0,.22-.21v-.83c0-2-.94-2.88-3.85-2.88a6,6,0,0,0-4,1.19.33.33,0,0,1-.51-.07l-1.33-2.38a.34.34,0,0,1,.07-.47,10.13,10.13,0,0,1,6.16-1.69c5.29,0,7.23,1.8,7.23,6v11.34a.34.34,0,0,1-.36.36Zm-.43-5.83V120a.19.19,0,0,0-.22-.21h-2.88c-2.59,0-3.74.72-3.74,2.34,0,1.44,1,2.16,3,2.16C142.81,124.32,144.18,123.35,144.18,121.37Z"/><path d="M152,122.81a17.27,17.27,0,0,1,0-8.57c1-3.1,3.67-4.79,7.16-4.79a7.53,7.53,0,0,1,6,2.7.34.34,0,0,1,0,.5l-2.27,2a.32.32,0,0,1-.5-.07,4,4,0,0,0-3.21-1.51,3.2,3.2,0,0,0-3.24,2.27,10.41,10.41,0,0,0-.36,3.2,10.68,10.68,0,0,0,.36,3.24,3.2,3.2,0,0,0,3.24,2.23,4,4,0,0,0,3.21-1.51.31.31,0,0,1,.5,0l2.27,2c.18.14.14.32,0,.5a7.63,7.63,0,0,1-6,2.66C155.66,127.59,153,125.9,152,122.81Z"/><path d="M169.13,106.57a.34.34,0,0,1-.36-.36v-3.13a.34.34,0,0,1,.36-.36h3.31a.34.34,0,0,1,.36.36v3.13a.34.34,0,0,1-.36.36Zm0,20.63a.34.34,0,0,1-.36-.36V110.21a.34.34,0,0,1,.36-.36h3.31a.34.34,0,0,1,.36.36v16.63a.35.35,0,0,1-.36.36Z"/><path d="M177,122.81a16.39,16.39,0,0,1,0-8.57c1-3,3.64-4.79,7.17-4.79s6.15,1.76,7.12,4.79a16.12,16.12,0,0,1,0,8.57c-1,3-3.63,4.78-7.12,4.78S177.94,125.83,177,122.81Zm10.41-1.08a14.45,14.45,0,0,0,0-6.41,3.21,3.21,0,0,0-3.24-2.27,3.25,3.25,0,0,0-3.28,2.27,14.45,14.45,0,0,0,0,6.41,3.24,3.24,0,0,0,3.28,2.26A3.2,3.2,0,0,0,187.38,121.73Zm-4.9-14.51c-.22,0-.32-.14-.22-.36l2.7-4.5a.7.7,0,0,1,.65-.36h3.28a.21.21,0,0,1,.18.36l-3.42,4.5a.85.85,0,0,1-.72.36Z"/><path d="M206.42,127.2a.34.34,0,0,1-.36-.36v-10c0-2.23-1.12-3.78-3.28-3.78s-3.31,1.55-3.31,3.78v10a.34.34,0,0,1-.36.36H195.8a.34.34,0,0,1-.36-.36V110.21a.34.34,0,0,1,.36-.36h3.31a.34.34,0,0,1,.36.36v1.26h0a5.36,5.36,0,0,1,4.57-2c3.71,0,6,2.74,6,6.44v11a.34.34,0,0,1-.36.36Z"/><path d="M221.18,124.86a.36.36,0,0,1,0-.51l2-2.16a.36.36,0,0,1,.51,0,8,8,0,0,0,5.07,2c2.12,0,3.2-.86,3.2-2s-.61-1.69-2.88-1.91l-1.87-.18c-3.52-.36-5.32-2.16-5.32-5.11,0-3.35,2.41-5.47,6.73-5.47a10.53,10.53,0,0,1,6.51,2.12.36.36,0,0,1,.07.51l-1.76,2.12a.35.35,0,0,1-.5.07,8.44,8.44,0,0,0-4.54-1.44c-1.73,0-2.63.76-2.63,1.8s.62,1.62,2.85,1.84l1.87.18c3.63.36,5.36,2.23,5.36,5.08,0,3.45-2.52,5.86-7.27,5.86A10.77,10.77,0,0,1,221.18,124.86Z"/><path d="M239.79,106.57a.34.34,0,0,1-.36-.36v-3.13a.34.34,0,0,1,.36-.36h3.31a.34.34,0,0,1,.36.36v3.13a.34.34,0,0,1-.36.36Zm0,20.63a.35.35,0,0,1-.36-.36V110.21a.34.34,0,0,1,.36-.36h3.31a.34.34,0,0,1,.36.36v16.63a.34.34,0,0,1-.36.36Z"/><path d="M259,127.2a.34.34,0,0,1-.36-.36v-10c0-2.23-1.12-3.78-3.28-3.78S252,114.6,252,116.83v10a.34.34,0,0,1-.36.36h-3.31a.34.34,0,0,1-.36-.36V110.21a.34.34,0,0,1,.36-.36h3.31a.34.34,0,0,1,.36.36v1.26h0a5.34,5.34,0,0,1,4.57-2c3.71,0,6,2.74,6,6.44v11a.34.34,0,0,1-.36.36Z"/><path d="M274.46,122.77a13.49,13.49,0,0,1-.61-4.25,13.79,13.79,0,0,1,.57-4.28c1-3,3.64-4.79,7.09-4.79s6.16,1.84,7.13,4.79a15.39,15.39,0,0,1,.58,5.22.36.36,0,0,1-.4.36H278.13a.19.19,0,0,0-.22.21,3.72,3.72,0,0,0,.26,1.34,3.78,3.78,0,0,0,3.88,2.62,5.24,5.24,0,0,0,4.07-1.65c.18-.18.36-.22.54-.07l2.12,1.87a.32.32,0,0,1,0,.5,9.14,9.14,0,0,1-7.13,3C278,127.59,275.43,125.79,274.46,122.77Zm10.47-7.67a3.71,3.71,0,0,0-6.8,0,4.53,4.53,0,0,0-.22,1.48.19.19,0,0,0,.22.21h6.8c.15,0,.22-.07.22-.21A4.28,4.28,0,0,0,284.93,115.1Z"/><path d="M297.5,127.41c-3.39,0-4.75-1.62-4.75-5V103.08a.34.34,0,0,1,.36-.36h3.31a.34.34,0,0,1,.36.36v19.15c0,1.19.47,1.58,1.51,1.58h.79a.34.34,0,0,1,.36.36v2.88a.34.34,0,0,1-.36.36Z"/><path d="M320.68,127.2a.34.34,0,0,1-.36-.36v-1.26h0c-.82,1.18-2.44,2-4.89,2-3.17,0-5.83-1.65-5.83-5.29s2.66-5.51,6.94-5.51H320c.15,0,.22-.07.22-.21v-.83c0-2-.94-2.88-3.85-2.88a6.06,6.06,0,0,0-4,1.19.33.33,0,0,1-.51-.07l-1.33-2.38a.34.34,0,0,1,.07-.47,10.15,10.15,0,0,1,6.16-1.69c5.29,0,7.23,1.8,7.23,6v11.34a.34.34,0,0,1-.36.36Zm-.43-5.83V120c0-.14-.07-.21-.22-.21h-2.88c-2.59,0-3.74.72-3.74,2.34,0,1.44,1,2.16,3,2.16C318.88,124.32,320.25,123.35,320.25,121.37Z"/><path d="M339.15,127.2a.34.34,0,0,1-.36-.36v-1.3h0a5.23,5.23,0,0,1-4.61,2,5.82,5.82,0,0,1-6-4.17,14.54,14.54,0,0,1-.61-4.9,14.47,14.47,0,0,1,.61-4.89,5.82,5.82,0,0,1,6-4.18,5.23,5.23,0,0,1,4.61,2h0v-8.42a.34.34,0,0,1,.36-.36h3.31a.34.34,0,0,1,.36.36v23.76a.34.34,0,0,1-.36.36Zm-.72-5.44a14.76,14.76,0,0,0,0-6.48,3.45,3.45,0,0,0-6.45,0,15.17,15.17,0,0,0,0,6.48,3.45,3.45,0,0,0,6.45,0Z"/><path d="M347,122.77a13.49,13.49,0,0,1-.61-4.25,13.75,13.75,0,0,1,.58-4.28c1-3,3.63-4.79,7.09-4.79s6.15,1.84,7.13,4.79a15.73,15.73,0,0,1,.57,5.22.35.35,0,0,1-.39.36H350.71c-.15,0-.22.07-.22.21a4,4,0,0,0,.25,1.34,3.8,3.8,0,0,0,3.89,2.62,5.27,5.27,0,0,0,4.07-1.65c.18-.18.36-.22.54-.07l2.12,1.87a.32.32,0,0,1,0,.5,9.15,9.15,0,0,1-7.13,3C350.6,127.59,348,125.79,347,122.77Zm10.48-7.67a3.71,3.71,0,0,0-6.8,0,4.28,4.28,0,0,0-.22,1.48c0,.14.07.21.22.21h6.8a.19.19,0,0,0,.21-.21A4.55,4.55,0,0,0,357.51,115.1Z"/><path d="M365,122.81a17.27,17.27,0,0,1,0-8.57c1-3.1,3.67-4.79,7.16-4.79a7.55,7.55,0,0,1,6,2.7.34.34,0,0,1,0,.5l-2.27,2a.33.33,0,0,1-.51-.07,3.92,3.92,0,0,0-3.2-1.51,3.18,3.18,0,0,0-3.24,2.27,10.11,10.11,0,0,0-.36,3.2,10.38,10.38,0,0,0,.36,3.24,3.18,3.18,0,0,0,3.24,2.23,3.92,3.92,0,0,0,3.2-1.51.32.32,0,0,1,.51,0l2.27,2c.18.14.14.32,0,.5a7.64,7.64,0,0,1-6,2.66C368.67,127.59,366,125.9,365,122.81Z"/><path d="M392.43,127.2a.34.34,0,0,1-.36-.36v-1.26h0a5.33,5.33,0,0,1-4.5,2c-3.71,0-6-2.73-6-6.44V110.21a.34.34,0,0,1,.36-.36h3.31a.34.34,0,0,1,.36.36v10c0,2.24,1,3.78,3.24,3.78s3.24-1.54,3.24-3.74v-10a.34.34,0,0,1,.36-.36h3.31a.34.34,0,0,1,.36.36v16.63a.34.34,0,0,1-.36.36Z"/><path d="M411,127.2a.34.34,0,0,1-.36-.36v-1.26h0c-.83,1.18-2.45,2-4.89,2-3.17,0-5.84-1.65-5.84-5.29s2.67-5.51,7-5.51h3.53a.19.19,0,0,0,.22-.21v-.83c0-2-.94-2.88-3.86-2.88a6.08,6.08,0,0,0-4,1.19.32.32,0,0,1-.5-.07l-1.33-2.38a.34.34,0,0,1,.07-.47,10.1,10.1,0,0,1,6.16-1.69c5.29,0,7.23,1.8,7.23,6v11.34a.34.34,0,0,1-.36.36Zm-.43-5.83V120a.19.19,0,0,0-.22-.21h-2.88c-2.59,0-3.74.72-3.74,2.34,0,1.44,1,2.16,3,2.16C409.17,124.32,410.54,123.35,410.54,121.37Z"/><path d="M429.43,127.2a.35.35,0,0,1-.36-.36v-1.3h0a5.23,5.23,0,0,1-4.61,2,5.82,5.82,0,0,1-6-4.17,14.54,14.54,0,0,1-.61-4.9,14.47,14.47,0,0,1,.61-4.89,5.82,5.82,0,0,1,6-4.18,5.23,5.23,0,0,1,4.61,2h0v-8.42a.34.34,0,0,1,.36-.36h3.32a.34.34,0,0,1,.36.36v23.76a.35.35,0,0,1-.36.36Zm-.72-5.44a14.76,14.76,0,0,0,0-6.48,3.44,3.44,0,0,0-6.44,0,14.76,14.76,0,0,0,0,6.48,3.44,3.44,0,0,0,6.44,0Z"/><path d="M437.28,122.81a16.39,16.39,0,0,1,0-8.57c1-3,3.64-4.79,7.17-4.79s6.15,1.76,7.12,4.79a16.12,16.12,0,0,1,0,8.57c-1,3-3.63,4.78-7.12,4.78S438.26,125.83,437.28,122.81Zm10.41-1.08a14.45,14.45,0,0,0,0-6.41,3.21,3.21,0,0,0-3.24-2.27,3.26,3.26,0,0,0-3.28,2.27,14.45,14.45,0,0,0,0,6.41,3.25,3.25,0,0,0,3.28,2.26A3.2,3.2,0,0,0,447.69,121.73Z"/><path d="M75,156.77a13.49,13.49,0,0,1-.61-4.25,13.79,13.79,0,0,1,.57-4.28c1-3,3.64-4.79,7.1-4.79s6.15,1.84,7.12,4.79a15.39,15.39,0,0,1,.58,5.22.36.36,0,0,1-.4.36H78.62a.19.19,0,0,0-.21.21,3.72,3.72,0,0,0,.25,1.34A3.78,3.78,0,0,0,82.55,158a5.23,5.23,0,0,0,4.06-1.65c.18-.18.36-.22.54-.07l2.13,1.87a.31.31,0,0,1,0,.5,9.12,9.12,0,0,1-7.12,3C78.51,161.59,75.92,159.79,75,156.77Zm10.47-7.67A3.36,3.36,0,0,0,82,146.87a3.39,3.39,0,0,0-3.42,2.23,4.55,4.55,0,0,0-.21,1.48.19.19,0,0,0,.21.21h6.8c.15,0,.22-.07.22-.21A4.28,4.28,0,0,0,85.42,149.1Z"/><path d="M104,167.68a.34.34,0,0,1-.36-.36v-7.78h0a5.2,5.2,0,0,1-4.6,2.05,5.82,5.82,0,0,1-6-4.17,19.63,19.63,0,0,1,0-9.79,5.82,5.82,0,0,1,6-4.18,5.2,5.2,0,0,1,4.6,2.05h0v-1.29a.34.34,0,0,1,.36-.36h3.31a.34.34,0,0,1,.36.36v23.11a.34.34,0,0,1-.36.36Zm-.72-11.92a14.76,14.76,0,0,0,0-6.48,3.44,3.44,0,0,0-6.44,0,14.76,14.76,0,0,0,0,6.48,3.44,3.44,0,0,0,6.44,0Z"/><path d="M122.86,161.2a.35.35,0,0,1-.36-.36v-1.26h0a5.34,5.34,0,0,1-4.5,2c-3.71,0-6-2.73-6-6.44V144.21a.34.34,0,0,1,.36-.36h3.32a.34.34,0,0,1,.36.36v10c0,2.24,1,3.78,3.24,3.78,2,0,3.23-1.54,3.23-3.74v-10a.34.34,0,0,1,.36-.36h3.32a.34.34,0,0,1,.36.36v16.63a.35.35,0,0,1-.36.36Z"/><path d="M131.43,140.57a.34.34,0,0,1-.36-.36v-3.13a.34.34,0,0,1,.36-.36h3.32a.33.33,0,0,1,.35.36v3.13a.33.33,0,0,1-.35.36Zm0,20.63a.35.35,0,0,1-.36-.36V144.21a.34.34,0,0,1,.36-.36h3.32a.33.33,0,0,1,.35.36v16.63a.34.34,0,0,1-.35.36Z"/><path d="M140,167.68a.35.35,0,0,1-.36-.36V144.21a.34.34,0,0,1,.36-.36h3.31a.34.34,0,0,1,.36.36v1.29h0a5.23,5.23,0,0,1,4.61-2.05,5.82,5.82,0,0,1,6,4.18,19.95,19.95,0,0,1,0,9.79,5.82,5.82,0,0,1-6,4.17,5.23,5.23,0,0,1-4.61-2.05h0v7.78a.34.34,0,0,1-.36.36Zm10.48-11.92a14.76,14.76,0,0,0,0-6.48,3.45,3.45,0,0,0-6.45,0,14.76,14.76,0,0,0,0,6.48,3.45,3.45,0,0,0,6.45,0Z"/><path d="M158.18,156.81a16.39,16.39,0,0,1,0-8.57c1-3,3.64-4.79,7.16-4.79s6.16,1.76,7.13,4.79a16.12,16.12,0,0,1,0,8.57c-1,3-3.63,4.78-7.13,4.78S159.15,159.83,158.18,156.81Zm10.4-1.08a14.45,14.45,0,0,0,0-6.41,3.2,3.2,0,0,0-3.24-2.27,3.24,3.24,0,0,0-3.27,2.27,14.45,14.45,0,0,0,0,6.41,3.23,3.23,0,0,0,3.27,2.26A3.2,3.2,0,0,0,168.58,155.73Z"/><path d="M195.12,161.2a.34.34,0,0,1-.36-.36v-1.3h0a5.23,5.23,0,0,1-4.61,2.05,5.82,5.82,0,0,1-6-4.17,19.95,19.95,0,0,1,0-9.79,5.82,5.82,0,0,1,6-4.18,5.23,5.23,0,0,1,4.61,2.05h0v-8.42a.34.34,0,0,1,.36-.36h3.31a.34.34,0,0,1,.36.36v23.76a.35.35,0,0,1-.36.36Zm-.72-5.44a14.76,14.76,0,0,0,0-6.48,3.45,3.45,0,0,0-6.45,0,14.76,14.76,0,0,0,0,6.48,3.45,3.45,0,0,0,6.45,0Z"/><path d="M203,156.77a13.49,13.49,0,0,1-.61-4.25,13.79,13.79,0,0,1,.57-4.28c1-3,3.64-4.79,7.1-4.79s6.15,1.84,7.12,4.79a15.39,15.39,0,0,1,.58,5.22.35.35,0,0,1-.4.36H206.67a.19.19,0,0,0-.21.21,3.72,3.72,0,0,0,.25,1.34A3.78,3.78,0,0,0,210.6,158a5.23,5.23,0,0,0,4.06-1.65c.18-.18.36-.22.54-.07l2.13,1.87a.31.31,0,0,1,0,.5,9.12,9.12,0,0,1-7.12,3C206.56,161.59,204,159.79,203,156.77Zm10.48-7.67a3.71,3.71,0,0,0-6.81,0,4.55,4.55,0,0,0-.21,1.48.19.19,0,0,0,.21.21h6.81a.19.19,0,0,0,.21-.21A4.55,4.55,0,0,0,213.48,149.1Z"/><path d="M228.09,158.86a.36.36,0,0,1,0-.51l2-2.16a.36.36,0,0,1,.51,0,8,8,0,0,0,5.07,2c2.13,0,3.21-.86,3.21-2,0-1-.62-1.69-2.88-1.91l-1.87-.18c-3.53-.36-5.33-2.16-5.33-5.11,0-3.35,2.41-5.47,6.73-5.47a10.51,10.51,0,0,1,6.51,2.12.37.37,0,0,1,.08.51l-1.77,2.12a.35.35,0,0,1-.5.07,8.44,8.44,0,0,0-4.54-1.44c-1.72,0-2.62.76-2.62,1.8s.61,1.62,2.84,1.84l1.87.18c3.64.36,5.36,2.23,5.36,5.08,0,3.45-2.52,5.86-7.27,5.86A10.77,10.77,0,0,1,228.09,158.86Z"/><path d="M246,156.77a13.49,13.49,0,0,1-.61-4.25,13.79,13.79,0,0,1,.57-4.28c1-3,3.64-4.79,7.09-4.79s6.16,1.84,7.13,4.79a15.39,15.39,0,0,1,.58,5.22.36.36,0,0,1-.4.36H249.69a.19.19,0,0,0-.21.21,3.72,3.72,0,0,0,.25,1.34,3.78,3.78,0,0,0,3.88,2.62,5.24,5.24,0,0,0,4.07-1.65c.18-.18.36-.22.54-.07l2.13,1.87a.31.31,0,0,1,0,.5,9.12,9.12,0,0,1-7.13,3C249.58,161.59,247,159.79,246,156.77Zm10.47-7.67a3.36,3.36,0,0,0-3.38-2.23,3.39,3.39,0,0,0-3.42,2.23,4.55,4.55,0,0,0-.21,1.48.19.19,0,0,0,.21.21h6.8c.15,0,.22-.07.22-.21A4.28,4.28,0,0,0,256.49,149.1Z"/><path d="M264,165.48a.32.32,0,0,1,0-.5l2.12-2.13a.34.34,0,0,1,.54,0,5.3,5.3,0,0,0,3.78,1.62c2.66,0,3.89-1.44,3.89-4.14v-1.62h0c-.79,1.23-2.27,2-4.5,2a5.79,5.79,0,0,1-5.9-4.21,13.26,13.26,0,0,1-.58-4.43,13,13,0,0,1,.58-4.39,5.78,5.78,0,0,1,5.9-4.25c2.23,0,3.71.79,4.5,2.05h0v-1.29a.34.34,0,0,1,.36-.36h3.31a.34.34,0,0,1,.36.36v15.91c0,5-2.77,7.95-8.1,7.95A8.6,8.6,0,0,1,264,165.48Zm10-10.55a8,8,0,0,0,.4-2.84,8.25,8.25,0,0,0-.4-2.84,3.26,3.26,0,0,0-6.16,0,8.51,8.51,0,0,0-.39,2.84,8.25,8.25,0,0,0,.39,2.84,3.24,3.24,0,0,0,6.16,0Z"/><path d="M293.61,161.2a.34.34,0,0,1-.36-.36v-1.26h0a5.33,5.33,0,0,1-4.5,2c-3.7,0-6-2.73-6-6.44V144.21a.34.34,0,0,1,.36-.36h3.31a.34.34,0,0,1,.36.36v10c0,2.24,1,3.78,3.24,3.78s3.24-1.54,3.24-3.74v-10a.34.34,0,0,1,.36-.36h3.31a.34.34,0,0,1,.36.36v16.63a.34.34,0,0,1-.36.36Z"/><path d="M302.18,161.2a.34.34,0,0,1-.36-.36V144.21a.34.34,0,0,1,.36-.36h3.31a.34.34,0,0,1,.36.36v1.47h0a5,5,0,0,1,4.5-2.23,5.24,5.24,0,0,1,3.63,1.44c.18.18.22.32.07.5l-1.9,2.42a.34.34,0,0,1-.51.07,4.64,4.64,0,0,0-2.55-.83c-2.27,0-3.28,1.62-3.28,4.39v9.4a.34.34,0,0,1-.36.36Z"/><path d="M316.69,140.57a.34.34,0,0,1-.36-.36v-3.13a.34.34,0,0,1,.36-.36H320a.34.34,0,0,1,.36.36v3.13a.34.34,0,0,1-.36.36Zm0,20.63a.34.34,0,0,1-.36-.36V144.21a.34.34,0,0,1,.36-.36H320a.34.34,0,0,1,.36.36v16.63a.35.35,0,0,1-.36.36Z"/><path d="M335.58,161.2a.35.35,0,0,1-.36-.36v-1.3h0a5.23,5.23,0,0,1-4.61,2.05,5.82,5.82,0,0,1-6-4.17,19.95,19.95,0,0,1,0-9.79,5.82,5.82,0,0,1,6-4.18,5.23,5.23,0,0,1,4.61,2.05h0v-8.42a.34.34,0,0,1,.36-.36h3.32a.34.34,0,0,1,.36.36v23.76a.35.35,0,0,1-.36.36Zm-.72-5.44a14.76,14.76,0,0,0,0-6.48,3.44,3.44,0,0,0-6.44,0,14.76,14.76,0,0,0,0,6.48,3.44,3.44,0,0,0,6.44,0Z"/><path d="M354.12,161.2a.35.35,0,0,1-.36-.36v-1.26h0c-.83,1.18-2.45,2-4.9,2-3.16,0-5.83-1.65-5.83-5.29s2.67-5.51,6.95-5.51h3.53a.19.19,0,0,0,.21-.21v-.83c0-2-.93-2.88-3.85-2.88a6.08,6.08,0,0,0-4,1.19.32.32,0,0,1-.5-.07l-1.33-2.38a.33.33,0,0,1,.07-.47,10.09,10.09,0,0,1,6.15-1.69c5.29,0,7.24,1.8,7.24,6.05v11.34a.35.35,0,0,1-.36.36Zm-.43-5.83V154a.19.19,0,0,0-.21-.21H350.6c-2.59,0-3.75.72-3.75,2.34,0,1.44,1,2.16,3,2.16C352.32,158.32,353.69,157.35,353.69,155.37Z"/><path d="M372.59,161.2a.35.35,0,0,1-.36-.36v-1.3h0a5.23,5.23,0,0,1-4.61,2.05,5.82,5.82,0,0,1-6-4.17,19.95,19.95,0,0,1,0-9.79,5.82,5.82,0,0,1,6-4.18,5.23,5.23,0,0,1,4.61,2.05h0v-8.42a.34.34,0,0,1,.36-.36h3.31a.34.34,0,0,1,.36.36v23.76a.34.34,0,0,1-.36.36Zm-.72-5.44a14.76,14.76,0,0,0,0-6.48,3.44,3.44,0,0,0-6.44,0,14.76,14.76,0,0,0,0,6.48,3.44,3.44,0,0,0,6.44,0Z"/><path d="M380.55,157.17a.34.34,0,0,1,.36-.36h3.6a.34.34,0,0,1,.36.36v3.67a.34.34,0,0,1-.36.36h-3.6a.34.34,0,0,1-.36-.36Z"/></g></g></svg>