<svg xmlns="http://www.w3.org/2000/svg" viewBox="0 0 415.21 142.44"><title>p12</title><g id="Capa_2" data-name="Capa 2"><g id="fondo"><path d="M13.66,14.4c0-4.32.16-5.68.72-7.36C15.78,2.6,19.22.36,23.82.36A9.56,9.56,0,0,1,33,6.2a.35.35,0,0,1-.2.48l-3.4,1.64a.36.36,0,0,1-.52-.2A5.37,5.37,0,0,0,23.82,4.6a4.82,4.82,0,0,0-4.88,3.6c-.36,1.12-.48,2.2-.48,6.2s.12,5.08.48,6.2a4.82,4.82,0,0,0,4.88,3.6,5.37,5.37,0,0,0,5.08-3.52.36.36,0,0,1,.52-.2l3.4,1.64a.35.35,0,0,1,.2.48,9.56,9.56,0,0,1-9.2,5.84c-4.6,0-8-2.24-9.44-6.68C13.82,20.08,13.66,18.72,13.66,14.4Z"/><path d="M48.06,28a.38.38,0,0,1-.4-.4V26.2h0c-.92,1.32-2.72,2.24-5.44,2.24-3.52,0-6.48-1.84-6.48-5.88,0-4.2,3-6.12,7.72-6.12h3.92a.21.21,0,0,0,.24-.24v-.92c0-2.2-1-3.2-4.28-3.2a6.76,6.76,0,0,0-4.4,1.32.36.36,0,0,1-.56-.08l-1.48-2.64a.37.37,0,0,1,.08-.52,11.25,11.25,0,0,1,6.84-1.88c5.88,0,8,2,8,6.72V27.6a.38.38,0,0,1-.4.4Zm-.48-6.48V20a.21.21,0,0,0-.24-.24h-3.2c-2.88,0-4.16.8-4.16,2.6,0,1.6,1.16,2.4,3.32,2.4C46.06,24.8,47.58,23.72,47.58,21.52Z"/><path d="M57.1,28a.38.38,0,0,1-.4-.4V9.12a.38.38,0,0,1,.4-.4h3.68a.38.38,0,0,1,.4.4V27.6a.38.38,0,0,1-.4.4Zm.4-22.2c-.24,0-.36-.16-.24-.4l3-5A.76.76,0,0,1,61,0h3.64c.24,0,.36.2.2.4L61,5.4a.93.93,0,0,1-.8.4Z"/><path d="M78.1,28a.38.38,0,0,1-.4-.4V26.16h0c-.92,1.32-2.52,2.28-5.12,2.28-3.28,0-5.68-1.56-6.68-4.64a16.07,16.07,0,0,1-.68-5.44,16.07,16.07,0,0,1,.68-5.44c1-3.08,3.4-4.64,6.68-4.64,2.6,0,4.2,1,5.12,2.28h0V1.2a.38.38,0,0,1,.4-.4h3.68a.38.38,0,0,1,.4.4V27.6a.38.38,0,0,1-.4.4Zm-.8-6a11.37,11.37,0,0,0,.4-3.6,11.37,11.37,0,0,0-.4-3.6,3.82,3.82,0,0,0-7.16,0,11.37,11.37,0,0,0-.4,3.6,11.37,11.37,0,0,0,.4,3.6,3.82,3.82,0,0,0,7.16,0Z"/><path d="M98.7,28a.38.38,0,0,1-.4-.4V26.2h0c-.92,1.32-2.72,2.24-5.44,2.24-3.52,0-6.48-1.84-6.48-5.88,0-4.2,3-6.12,7.72-6.12H98a.21.21,0,0,0,.24-.24v-.92c0-2.2-1-3.2-4.28-3.2a6.76,6.76,0,0,0-4.4,1.32.36.36,0,0,1-.56-.08L87.5,10.68a.37.37,0,0,1,.08-.52,11.25,11.25,0,0,1,6.84-1.88c5.88,0,8,2,8,6.72V27.6a.38.38,0,0,1-.4.4Zm-.48-6.48V20A.21.21,0,0,0,98,19.8h-3.2c-2.88,0-4.16.8-4.16,2.6,0,1.6,1.16,2.4,3.32,2.4C96.7,24.8,98.22,23.72,98.22,21.52Z"/><path d="M106.18,25.4a.39.39,0,0,1,0-.56l2.28-2.4a.39.39,0,0,1,.56,0,8.92,8.92,0,0,0,5.64,2.2c2.36,0,3.56-1,3.56-2.28,0-1.16-.68-1.88-3.2-2.12l-2.08-.2c-3.92-.4-5.92-2.4-5.92-5.68,0-3.72,2.68-6.08,7.48-6.08a11.69,11.69,0,0,1,7.24,2.36.4.4,0,0,1,.08.56l-2,2.36a.39.39,0,0,1-.56.08,9.31,9.31,0,0,0-5-1.6c-1.92,0-2.92.84-2.92,2s.68,1.8,3.16,2l2.08.2c4,.4,6,2.48,6,5.64,0,3.84-2.8,6.52-8.08,6.52A12,12,0,0,1,106.18,25.4Z"/><path d="M146.58,28a.38.38,0,0,1-.4-.4V26.2h0c-.92,1.32-2.72,2.24-5.44,2.24-3.52,0-6.48-1.84-6.48-5.88,0-4.2,3-6.12,7.72-6.12h3.92a.21.21,0,0,0,.24-.24v-.92c0-2.2-1-3.2-4.28-3.2a6.76,6.76,0,0,0-4.4,1.32.36.36,0,0,1-.56-.08l-1.48-2.64a.37.37,0,0,1,.08-.52,11.25,11.25,0,0,1,6.84-1.88c5.88,0,8,2,8,6.72V27.6a.38.38,0,0,1-.4.4Zm-.48-6.48V20a.21.21,0,0,0-.24-.24h-3.2c-2.88,0-4.16.8-4.16,2.6,0,1.6,1.16,2.4,3.32,2.4C144.58,24.8,146.1,23.72,146.1,21.52Z"/><path d="M175.74,28a.38.38,0,0,1-.4-.4V26.16h0c-.92,1.32-2.52,2.28-5.12,2.28-3.28,0-5.68-1.56-6.68-4.64a16.07,16.07,0,0,1-.68-5.44,16.07,16.07,0,0,1,.68-5.44c1-3.08,3.4-4.64,6.68-4.64,2.6,0,4.2,1,5.12,2.28h0V1.2a.38.38,0,0,1,.4-.4h3.68a.38.38,0,0,1,.4.4V27.6a.38.38,0,0,1-.4.4Zm-.8-6a11.37,11.37,0,0,0,.4-3.6,11.37,11.37,0,0,0-.4-3.6,3.82,3.82,0,0,0-7.16,0,11.37,11.37,0,0,0-.4,3.6,11.37,11.37,0,0,0,.4,3.6,3.82,3.82,0,0,0,7.16,0Z"/><path d="M185.26,5.08a.38.38,0,0,1-.4-.4V1.2a.38.38,0,0,1,.4-.4h3.68a.38.38,0,0,1,.4.4V4.68a.38.38,0,0,1-.4.4Zm0,22.92a.38.38,0,0,1-.4-.4V9.12a.38.38,0,0,1,.4-.4h3.68a.38.38,0,0,1,.4.4V27.6a.38.38,0,0,1-.4.4Z"/><path d="M195.38,28a.38.38,0,0,1-.4-.4V12.44a.21.21,0,0,0-.24-.24h-1.28a.38.38,0,0,1-.4-.4V9.12a.38.38,0,0,1,.4-.4h1.28a.21.21,0,0,0,.24-.24V7.24c0-4.48,2.2-6.44,6.4-6.44h1.76a.38.38,0,0,1,.4.4V4.4a.38.38,0,0,1-.4.4H201.9c-2,0-2.44.48-2.44,2.36V8.48a.21.21,0,0,0,.24.24h3.44a.38.38,0,0,1,.4.4V11.8a.38.38,0,0,1-.4.4H199.7a.21.21,0,0,0-.24.24V27.6a.38.38,0,0,1-.4.4Z"/><path d="M206.34,23.08a15,15,0,0,1-.68-4.72,15.36,15.36,0,0,1,.64-4.76c1.08-3.36,4-5.32,7.88-5.32s6.84,2,7.91,5.32a17.27,17.27,0,0,1,.64,5.8.39.39,0,0,1-.44.4H210.42a.21.21,0,0,0-.24.24,4.24,4.24,0,0,0,.28,1.48,4.21,4.21,0,0,0,4.32,2.92,5.81,5.81,0,0,0,4.52-1.84.41.41,0,0,1,.6-.08l2.35,2.08a.36.36,0,0,1,0,.56,10.14,10.14,0,0,1-7.91,3.28C210.3,28.44,207.42,26.44,206.34,23.08ZM218,14.56a4.12,4.12,0,0,0-7.56,0,4.89,4.89,0,0,0-.24,1.64.21.21,0,0,0,.24.24H218a.21.21,0,0,0,.24-.24A4.89,4.89,0,0,0,218,14.56Z"/><path d="M227.14,28a.38.38,0,0,1-.4-.4V9.12a.38.38,0,0,1,.4-.4h3.68a.38.38,0,0,1,.4.4v1.64h0a5.52,5.52,0,0,1,5-2.48,5.78,5.78,0,0,1,4,1.6c.21.2.25.36.09.56l-2.12,2.68a.36.36,0,0,1-.56.08,5.21,5.21,0,0,0-2.84-.92c-2.52,0-3.64,1.8-3.64,4.88V27.6a.38.38,0,0,1-.4.4Z"/><path d="M242.1,23.08a15,15,0,0,1-.68-4.72,15.36,15.36,0,0,1,.64-4.76c1.08-3.36,4-5.32,7.88-5.32s6.83,2,7.91,5.32a17.27,17.27,0,0,1,.64,5.8.39.39,0,0,1-.44.4H246.18a.21.21,0,0,0-.24.24,4.24,4.24,0,0,0,.28,1.48,4.21,4.21,0,0,0,4.32,2.92,5.8,5.8,0,0,0,4.51-1.84.41.41,0,0,1,.6-.08L258,24.6a.36.36,0,0,1,0,.56,10.15,10.15,0,0,1-7.91,3.28C246.06,28.44,243.18,26.44,242.1,23.08Zm11.63-8.52a4.11,4.11,0,0,0-7.55,0,4.89,4.89,0,0,0-.24,1.64.21.21,0,0,0,.24.24h7.55a.21.21,0,0,0,.24-.24A4.89,4.89,0,0,0,253.73,14.56Z"/><path d="M274.69,28a.38.38,0,0,1-.4-.4V16.48c0-2.48-1.24-4.2-3.63-4.2S267,14,267,16.48V27.6a.38.38,0,0,1-.4.4H262.9a.38.38,0,0,1-.4-.4V9.12a.38.38,0,0,1,.4-.4h3.68a.38.38,0,0,1,.4.4v1.4h0a6,6,0,0,1,5.08-2.24c4.11,0,6.67,3,6.67,7.16V27.6a.38.38,0,0,1-.4.4Z"/><path d="M289.26,28.23c-3.88,0-5.36-1.87-5.36-5.63V12.44a.21.21,0,0,0-.24-.24h-1.28a.38.38,0,0,1-.4-.4V9.12a.38.38,0,0,1,.4-.4h1.28a.21.21,0,0,0,.24-.24V3.2a.38.38,0,0,1,.4-.4H288a.38.38,0,0,1,.4.4V8.48a.21.21,0,0,0,.24.24h2.55a.38.38,0,0,1,.41.4V11.8a.38.38,0,0,1-.41.4h-2.55a.21.21,0,0,0-.24.24v10c0,1.36.56,1.8,1.8,1.8h1a.38.38,0,0,1,.41.4v3.19a.38.38,0,0,1-.41.4Z"/><path d="M295.3,23.08a15,15,0,0,1-.68-4.72,15.36,15.36,0,0,1,.64-4.76c1.08-3.36,4-5.32,7.87-5.32s6.84,2,7.92,5.32a17.27,17.27,0,0,1,.64,5.8.39.39,0,0,1-.44.4H299.38a.21.21,0,0,0-.24.24,4.24,4.24,0,0,0,.28,1.48,4.2,4.2,0,0,0,4.31,2.92,5.81,5.81,0,0,0,4.52-1.84.41.41,0,0,1,.6-.08l2.36,2.08a.36.36,0,0,1,0,.56,10.16,10.16,0,0,1-7.92,3.28C299.26,28.44,296.38,26.44,295.3,23.08Zm11.63-8.52a4.11,4.11,0,0,0-7.55,0,4.89,4.89,0,0,0-.24,1.64.21.21,0,0,0,.24.24h7.55a.21.21,0,0,0,.24-.24A4.89,4.89,0,0,0,306.93,14.56Z"/><path d="M336.53,28a.38.38,0,0,1-.4-.4V16.48c0-2.48-1.24-4.2-3.64-4.2s-3.68,1.72-3.68,4.2V27.6a.38.38,0,0,1-.4.4h-3.68a.39.39,0,0,1-.4-.4V9.12a.38.38,0,0,1,.4-.4h3.68a.38.38,0,0,1,.4.4v1.4h0a6,6,0,0,1,5.08-2.24c4.12,0,6.68,3,6.68,7.16V27.6a.38.38,0,0,1-.4.4Z"/><path d="M345.85,5.08a.38.38,0,0,1-.4-.4V1.2a.38.38,0,0,1,.4-.4h3.68a.38.38,0,0,1,.4.4V4.68a.38.38,0,0,1-.4.4Zm0,22.92a.38.38,0,0,1-.4-.4V9.12a.38.38,0,0,1,.4-.4h3.68a.38.38,0,0,1,.4.4V27.6a.38.38,0,0,1-.4.4Z"/><path d="M360.17,28a.53.53,0,0,1-.52-.4l-6.8-18.48c-.08-.24.09-.4.32-.4h3.92a.51.51,0,0,1,.48.4l4.24,12.52h.08l4.16-12.52a.51.51,0,0,1,.48-.4h3.84c.24,0,.4.16.32.4l-6.8,18.48a.53.53,0,0,1-.52.4Z"/><path d="M373,23.08a15,15,0,0,1-.68-4.72A15.36,15.36,0,0,1,373,13.6c1.08-3.36,4-5.32,7.88-5.32s6.84,2,7.92,5.32a17.27,17.27,0,0,1,.64,5.8.39.39,0,0,1-.44.4H377.09a.21.21,0,0,0-.24.24,4.24,4.24,0,0,0,.28,1.48,4.21,4.21,0,0,0,4.32,2.92A5.81,5.81,0,0,0,386,22.6a.41.41,0,0,1,.6-.08l2.36,2.08a.36.36,0,0,1,0,.56,10.16,10.16,0,0,1-7.92,3.28C377,28.44,374.09,26.44,373,23.08Zm11.64-8.52a4.12,4.12,0,0,0-7.56,0,4.89,4.89,0,0,0-.24,1.64.21.21,0,0,0,.24.24h7.56a.21.21,0,0,0,.24-.24A4.89,4.89,0,0,0,384.65,14.56Z"/><path d="M398.61,28.23c-3.76,0-5.28-1.79-5.28-5.51V1.2a.38.38,0,0,1,.4-.4h3.68a.38.38,0,0,1,.4.4V22.48c0,1.32.52,1.76,1.68,1.76h.88a.38.38,0,0,1,.4.4v3.19a.37.37,0,0,1-.4.4Z"/><path d="M12.92,73.19a.38.38,0,0,1-.4-.4V64.16h0c-.92,1.32-2.52,2.28-5.12,2.28-3.28,0-5.68-1.56-6.68-4.64A16.07,16.07,0,0,1,0,56.36a16.07,16.07,0,0,1,.68-5.44c1-3.08,3.4-4.64,6.68-4.64,2.6,0,4.2,1,5.12,2.28h0V47.12a.38.38,0,0,1,.4-.4H16.6a.38.38,0,0,1,.4.4V72.79a.38.38,0,0,1-.4.4ZM12.12,60a11.37,11.37,0,0,0,.4-3.6,11.37,11.37,0,0,0-.4-3.6,3.47,3.47,0,0,0-3.6-2.48A3.45,3.45,0,0,0,5,52.76a11.37,11.37,0,0,0-.4,3.6A11.37,11.37,0,0,0,5,60a3.45,3.45,0,0,0,3.56,2.48A3.47,3.47,0,0,0,12.12,60Z"/><path d="M33.88,66a.38.38,0,0,1-.4-.4V64.2h0a5.91,5.91,0,0,1-5,2.24c-4.12,0-6.64-3-6.64-7.16V47.12a.38.38,0,0,1,.4-.4h3.68a.38.38,0,0,1,.4.4V58.24c0,2.48,1.16,4.2,3.6,4.2,2.28,0,3.6-1.72,3.6-4.16V47.12a.38.38,0,0,1,.4-.4h3.68a.38.38,0,0,1,.4.4V65.6a.38.38,0,0,1-.4.4Z"/><path d="M42.64,61.08A15,15,0,0,1,42,56.36a15.36,15.36,0,0,1,.64-4.76c1.08-3.36,4-5.32,7.88-5.32s6.84,2,7.92,5.32A17.27,17.27,0,0,1,59,57.4a.39.39,0,0,1-.44.4H46.72a.21.21,0,0,0-.24.24,4.48,4.48,0,0,0,4.6,4.4A5.81,5.81,0,0,0,55.6,60.6a.41.41,0,0,1,.6-.08l2.36,2.08a.36.36,0,0,1,0,.56,10.16,10.16,0,0,1-7.92,3.28C46.6,66.44,43.72,64.44,42.64,61.08Zm11.64-8.52a4.12,4.12,0,0,0-7.56,0,4.89,4.89,0,0,0-.24,1.64.21.21,0,0,0,.24.24h7.56a.21.21,0,0,0,.24-.24A4.89,4.89,0,0,0,54.28,52.56Z"/><path d="M70.52,63.4a.39.39,0,0,1,0-.56l2.28-2.4a.39.39,0,0,1,.56,0A8.92,8.92,0,0,0,79,62.64c2.36,0,3.56-1,3.56-2.28,0-1.16-.68-1.88-3.2-2.12L77.28,58c-3.92-.4-5.92-2.4-5.92-5.68,0-3.72,2.68-6.08,7.48-6.08a11.69,11.69,0,0,1,7.24,2.36.4.4,0,0,1,.08.56l-2,2.36a.39.39,0,0,1-.56.08,9.31,9.31,0,0,0-5-1.6c-1.92,0-2.92.84-2.92,2s.68,1.8,3.16,2l2.08.2c4,.4,6,2.48,6,5.64,0,3.84-2.8,6.52-8.08,6.52A12,12,0,0,1,70.52,63.4Z"/><path d="M90.44,61.08a15,15,0,0,1-.68-4.72,15.36,15.36,0,0,1,.64-4.76c1.08-3.36,4-5.32,7.88-5.32s6.84,2,7.92,5.32a17.27,17.27,0,0,1,.64,5.8.39.39,0,0,1-.44.4H94.52a.21.21,0,0,0-.24.24,4.48,4.48,0,0,0,4.6,4.4,5.81,5.81,0,0,0,4.52-1.84.41.41,0,0,1,.6-.08l2.36,2.08a.36.36,0,0,1,0,.56,10.16,10.16,0,0,1-7.92,3.28C94.4,66.44,91.52,64.44,90.44,61.08Zm11.64-8.52a4.12,4.12,0,0,0-7.56,0,4.89,4.89,0,0,0-.24,1.64.21.21,0,0,0,.24.24h7.56a.21.21,0,0,0,.24-.24A4.89,4.89,0,0,0,102.08,52.56Z"/><path d="M119.88,73.19a.38.38,0,0,1-.4-.4V47.12a.38.38,0,0,1,.4-.4h3.68a.38.38,0,0,1,.4.4v1.44h0c.92-1.32,2.52-2.28,5.12-2.28,3.28,0,5.67,1.56,6.67,4.64a16.07,16.07,0,0,1,.68,5.44,16.07,16.07,0,0,1-.68,5.44c-1,3.08-3.39,4.64-6.67,4.64-2.6,0-4.2-1-5.12-2.28h0v8.63a.38.38,0,0,1-.4.4ZM131.52,60a11.37,11.37,0,0,0,.4-3.6,11.37,11.37,0,0,0-.4-3.6,3.82,3.82,0,0,0-7.16,0,11.37,11.37,0,0,0-.4,3.6,11.37,11.37,0,0,0,.4,3.6,3.82,3.82,0,0,0,7.16,0Z"/><path d="M152.32,66a.38.38,0,0,1-.4-.4V64.2h0a5.91,5.91,0,0,1-5,2.24c-4.12,0-6.64-3-6.64-7.16V47.12a.38.38,0,0,1,.4-.4h3.68a.38.38,0,0,1,.4.4V58.24c0,2.48,1.16,4.2,3.6,4.2,2.28,0,3.6-1.72,3.6-4.16V47.12a.38.38,0,0,1,.4-.4H156a.38.38,0,0,1,.4.4V65.6a.39.39,0,0,1-.4.4Z"/><path d="M161.08,61.08a15,15,0,0,1-.68-4.72A15.36,15.36,0,0,1,161,51.6c1.08-3.36,4-5.32,7.88-5.32s6.83,2,7.91,5.32a17.27,17.27,0,0,1,.64,5.8.39.39,0,0,1-.44.4H165.16a.21.21,0,0,0-.24.24,4.48,4.48,0,0,0,4.6,4.4A5.81,5.81,0,0,0,174,60.6a.4.4,0,0,1,.59-.08L177,62.6a.36.36,0,0,1,0,.56,10.14,10.14,0,0,1-7.91,3.28C165,66.44,162.16,64.44,161.08,61.08Zm11.64-8.52a4.12,4.12,0,0,0-7.56,0,4.89,4.89,0,0,0-.24,1.64.21.21,0,0,0,.24.24h7.56a.21.21,0,0,0,.24-.24A4.89,4.89,0,0,0,172.72,52.56Z"/><path d="M193.35,66a.38.38,0,0,1-.39-.4V64.16h0c-.92,1.32-2.52,2.28-5.12,2.28-3.28,0-5.68-1.56-6.68-4.64a16.07,16.07,0,0,1-.68-5.44,16.07,16.07,0,0,1,.68-5.44c1-3.08,3.4-4.64,6.68-4.64,2.6,0,4.2,1,5.12,2.28h0V39.2a.38.38,0,0,1,.39-.4H197a.38.38,0,0,1,.4.4V65.6a.38.38,0,0,1-.4.4Zm-.79-6a11.37,11.37,0,0,0,.4-3.6,11.37,11.37,0,0,0-.4-3.6,3.82,3.82,0,0,0-7.16,0,11.37,11.37,0,0,0-.4,3.6,11.37,11.37,0,0,0,.4,3.6,3.82,3.82,0,0,0,7.16,0Z"/><path d="M202.12,61.08a15,15,0,0,1-.68-4.72,15.36,15.36,0,0,1,.64-4.76c1.08-3.36,4-5.32,7.88-5.32s6.83,2,7.91,5.32a17.27,17.27,0,0,1,.64,5.8.39.39,0,0,1-.44.4H206.2A.21.21,0,0,0,206,58a4.48,4.48,0,0,0,4.6,4.4,5.81,5.81,0,0,0,4.52-1.84.4.4,0,0,1,.59-.08L218,62.6a.36.36,0,0,1,0,.56,10.14,10.14,0,0,1-7.91,3.28C206.08,66.44,203.2,64.44,202.12,61.08Zm11.64-8.52a4.12,4.12,0,0,0-7.56,0A4.89,4.89,0,0,0,206,54.2a.21.21,0,0,0,.24.24h7.56a.21.21,0,0,0,.24-.24A4.89,4.89,0,0,0,213.76,52.56Z"/><path d="M234.71,66a.38.38,0,0,1-.4-.4V54.48c0-2.48-1.24-4.2-3.63-4.2S227,52,227,54.48V65.6a.38.38,0,0,1-.4.4h-3.68a.38.38,0,0,1-.4-.4V47.12a.38.38,0,0,1,.4-.4h3.68a.38.38,0,0,1,.4.4v1.4h0a6,6,0,0,1,5.08-2.24c4.11,0,6.67,3,6.67,7.16V65.6a.38.38,0,0,1-.4.4Z"/><path d="M252.68,73.19a.38.38,0,0,1-.4-.4V47.12a.38.38,0,0,1,.4-.4h3.68a.38.38,0,0,1,.4.4v1.44h0c.91-1.32,2.51-2.28,5.11-2.28,3.28,0,5.68,1.56,6.68,4.64a16.07,16.07,0,0,1,.68,5.44,16.07,16.07,0,0,1-.68,5.44c-1,3.08-3.4,4.64-6.68,4.64-2.6,0-4.2-1-5.11-2.28h0v8.63a.38.38,0,0,1-.4.4ZM264.31,60a11.37,11.37,0,0,0,.4-3.6,11.37,11.37,0,0,0-.4-3.6,3.82,3.82,0,0,0-7.15,0,11.37,11.37,0,0,0-.4,3.6,11.37,11.37,0,0,0,.4,3.6,3.82,3.82,0,0,0,7.15,0Z"/><path d="M273.68,66a.38.38,0,0,1-.4-.4V47.12a.38.38,0,0,1,.4-.4h3.68a.38.38,0,0,1,.4.4v1.64h0a5.49,5.49,0,0,1,5-2.48,5.82,5.82,0,0,1,4,1.6c.2.2.24.36.08.56l-2.12,2.68a.36.36,0,0,1-.56.08,5.21,5.21,0,0,0-2.84-.92c-2.51,0-3.63,1.8-3.63,4.88V65.6a.38.38,0,0,1-.4.4Z"/><path d="M288.64,61.08a15,15,0,0,1-.68-4.72,15.36,15.36,0,0,1,.64-4.76c1.08-3.36,4-5.32,7.87-5.32s6.84,2,7.92,5.32a17.27,17.27,0,0,1,.64,5.8.39.39,0,0,1-.44.4H292.71a.21.21,0,0,0-.23.24,4.48,4.48,0,0,0,.27,1.48,4.22,4.22,0,0,0,4.32,2.92,5.81,5.81,0,0,0,4.52-1.84.41.41,0,0,1,.6-.08l2.36,2.08a.36.36,0,0,1,0,.56,10.16,10.16,0,0,1-7.92,3.28C292.6,66.44,289.72,64.44,288.64,61.08Zm11.63-8.52a4.12,4.12,0,0,0-7.56,0,5.18,5.18,0,0,0-.23,1.64.21.21,0,0,0,.23.24h7.56a.21.21,0,0,0,.24-.24A4.89,4.89,0,0,0,300.27,52.56Z"/><path d="M307.88,63.4a.39.39,0,0,1,0-.56l2.28-2.4a.38.38,0,0,1,.55,0,8.92,8.92,0,0,0,5.64,2.2c2.36,0,3.56-1,3.56-2.28,0-1.16-.68-1.88-3.2-2.12l-2.08-.2c-3.92-.4-5.91-2.4-5.91-5.68,0-3.72,2.68-6.08,7.47-6.08a11.69,11.69,0,0,1,7.24,2.36.4.4,0,0,1,.08.56l-2,2.36a.39.39,0,0,1-.56.08,9.31,9.31,0,0,0-5-1.6c-1.92,0-2.92.84-2.92,2s.68,1.8,3.16,2l2.08.2c4,.4,6,2.48,6,5.64,0,3.84-2.8,6.52-8.08,6.52A11.93,11.93,0,0,1,307.88,63.4Z"/><path d="M327.79,61.08a15.28,15.28,0,0,1-.67-4.72,15.4,15.4,0,0,1,.63-4.76c1.08-3.36,4-5.32,7.88-5.32s6.84,2,7.92,5.32a17.27,17.27,0,0,1,.64,5.8.39.39,0,0,1-.44.4H331.87a.21.21,0,0,0-.24.24,4.48,4.48,0,0,0,4.6,4.4,5.81,5.81,0,0,0,4.52-1.84.41.41,0,0,1,.6-.08l2.36,2.08a.36.36,0,0,1,0,.56,10.16,10.16,0,0,1-7.92,3.28C331.75,66.44,328.87,64.44,327.79,61.08Zm11.64-8.52a4.12,4.12,0,0,0-7.56,0,4.89,4.89,0,0,0-.24,1.64.21.21,0,0,0,.24.24h7.56a.21.21,0,0,0,.24-.24A4.89,4.89,0,0,0,339.43,52.56Z"/><path d="M360.39,66a.38.38,0,0,1-.4-.4V54.48c0-2.48-1.24-4.2-3.64-4.2s-3.68,1.72-3.68,4.2V65.6a.38.38,0,0,1-.4.4h-3.68a.38.38,0,0,1-.4-.4V47.12a.38.38,0,0,1,.4-.4h3.68a.38.38,0,0,1,.4.4v1.4h0a6,6,0,0,1,5.08-2.24c4.12,0,6.68,3,6.68,7.16V65.6a.38.38,0,0,1-.4.4Z"/><path d="M375,66.23c-3.88,0-5.36-1.87-5.36-5.63V50.44a.21.21,0,0,0-.24-.24h-1.28a.38.38,0,0,1-.4-.4V47.12a.38.38,0,0,1,.4-.4h1.28a.21.21,0,0,0,.24-.24V41.2a.38.38,0,0,1,.4-.4h3.68a.38.38,0,0,1,.4.4v5.28a.21.21,0,0,0,.24.24h2.56a.38.38,0,0,1,.4.4V49.8a.38.38,0,0,1-.4.4h-2.56a.21.21,0,0,0-.24.24v10c0,1.36.56,1.8,1.8,1.8h1a.38.38,0,0,1,.4.4v3.19a.37.37,0,0,1-.4.4Z"/><path d="M392.83,66a.38.38,0,0,1-.4-.4V64.2h0c-.92,1.32-2.72,2.24-5.44,2.24-3.52,0-6.48-1.84-6.48-5.88,0-4.2,3-6.12,7.72-6.12h3.92a.21.21,0,0,0,.24-.24v-.92c0-2.2-1-3.2-4.28-3.2a6.76,6.76,0,0,0-4.4,1.32.36.36,0,0,1-.56-.08l-1.48-2.64a.37.37,0,0,1,.08-.52,11.25,11.25,0,0,1,6.84-1.88c5.88,0,8,2,8,6.72V65.6a.38.38,0,0,1-.4.4Zm-.48-6.48V58a.21.21,0,0,0-.24-.24h-3.2c-2.88,0-4.16.8-4.16,2.6,0,1.6,1.16,2.4,3.32,2.4C390.83,62.8,392.35,61.72,392.35,59.52Z"/><path d="M401.87,66a.38.38,0,0,1-.4-.4V47.12a.38.38,0,0,1,.4-.4h3.68a.38.38,0,0,1,.4.4v1.64h0a5.52,5.52,0,0,1,5-2.48,5.82,5.82,0,0,1,4,1.6c.2.2.24.36.08.56L413,51.12a.36.36,0,0,1-.56.08,5.21,5.21,0,0,0-2.84-.92c-2.52,0-3.64,1.8-3.64,4.88V65.6a.38.38,0,0,1-.4.4Z"/><path d="M2.94,111.19a.38.38,0,0,1-.4-.4V85.12a.38.38,0,0,1,.4-.4H6.62a.38.38,0,0,1,.4.4v1.44h0c.92-1.32,2.52-2.28,5.12-2.28,3.28,0,5.68,1.56,6.68,4.64a16.07,16.07,0,0,1,.68,5.44,16.07,16.07,0,0,1-.68,5.44c-1,3.08-3.4,4.64-6.68,4.64-2.6,0-4.2-1-5.12-2.28H7v8.63a.38.38,0,0,1-.4.4ZM14.58,98a11.37,11.37,0,0,0,.4-3.6,11.37,11.37,0,0,0-.4-3.6A3.45,3.45,0,0,0,11,88.28a3.47,3.47,0,0,0-3.6,2.48,11.37,11.37,0,0,0-.4,3.6,11.37,11.37,0,0,0,.4,3.6,3.47,3.47,0,0,0,3.6,2.48A3.45,3.45,0,0,0,14.58,98Z"/><path d="M23.14,99.12a14.24,14.24,0,0,1-.64-4.76,14.24,14.24,0,0,1,.64-4.76c1.08-3.36,4-5.32,8-5.32s6.84,2,7.92,5.32a14.24,14.24,0,0,1,.64,4.76A14.24,14.24,0,0,1,39,99.12c-1.08,3.36-4,5.32-7.92,5.32S24.22,102.48,23.14,99.12Zm11.56-1.2a10.89,10.89,0,0,0,.4-3.56,11,11,0,0,0-.4-3.56,3.56,3.56,0,0,0-3.6-2.52,3.61,3.61,0,0,0-3.64,2.52,11,11,0,0,0-.4,3.56,10.89,10.89,0,0,0,.4,3.56,3.61,3.61,0,0,0,3.64,2.52A3.56,3.56,0,0,0,34.7,97.92Z"/><path d="M44.06,104a.38.38,0,0,1-.4-.4V85.12a.38.38,0,0,1,.4-.4h3.68a.38.38,0,0,1,.4.4v1.64h0a5.52,5.52,0,0,1,5-2.48,5.82,5.82,0,0,1,4,1.6c.2.2.24.36.08.56l-2.12,2.68a.36.36,0,0,1-.56.08,5.21,5.21,0,0,0-2.84-.92c-2.52,0-3.64,1.8-3.64,4.88V103.6a.38.38,0,0,1-.4.4Z"/><path d="M73.62,104.23c-3.76,0-5.28-1.79-5.28-5.51V77.2a.38.38,0,0,1,.4-.4h3.68a.38.38,0,0,1,.4.4V98.48c0,1.32.52,1.76,1.68,1.76h.88a.38.38,0,0,1,.4.4v3.19a.37.37,0,0,1-.4.4Z"/><path d="M90.74,104a.38.38,0,0,1-.4-.4v-1.4h0c-.92,1.32-2.72,2.24-5.44,2.24-3.52,0-6.48-1.84-6.48-5.88,0-4.2,3-6.12,7.72-6.12H90a.21.21,0,0,0,.24-.24v-.92c0-2.2-1-3.2-4.28-3.2a6.76,6.76,0,0,0-4.4,1.32.36.36,0,0,1-.56-.08l-1.48-2.64a.37.37,0,0,1,.08-.52,11.25,11.25,0,0,1,6.84-1.88c5.88,0,8,2,8,6.72v12.6a.38.38,0,0,1-.4.4Zm-.48-6.48V96A.21.21,0,0,0,90,95.8h-3.2c-2.88,0-4.16.8-4.16,2.6,0,1.6,1.16,2.4,3.32,2.4C88.74,100.8,90.26,99.72,90.26,97.52Z"/><path d="M103.9,102.16h0v1.44a.38.38,0,0,1-.4.4H99.78a.38.38,0,0,1-.4-.4V77.2a.38.38,0,0,1,.4-.4h3.68a.38.38,0,0,1,.4.4v9.36h0c.92-1.32,2.52-2.28,5.12-2.28,3.28,0,5.68,1.56,6.68,4.64a16.07,16.07,0,0,1,.68,5.44,16.07,16.07,0,0,1-.68,5.44c-1,3.08-3.4,4.64-6.68,4.64C106.42,104.44,104.82,103.48,103.9,102.16Zm7.52-4.2a11.37,11.37,0,0,0,.4-3.6,11.37,11.37,0,0,0-.4-3.6,3.82,3.82,0,0,0-7.16,0,11.37,11.37,0,0,0-.4,3.6,11.37,11.37,0,0,0,.4,3.6,3.82,3.82,0,0,0,7.16,0Z"/><path d="M120,99.12a14.24,14.24,0,0,1-.64-4.76A14.24,14.24,0,0,1,120,89.6c1.08-3.36,4-5.32,8-5.32s6.84,2,7.92,5.32a14.24,14.24,0,0,1,.64,4.76,14.24,14.24,0,0,1-.64,4.76c-1.08,3.36-4,5.32-7.92,5.32S121.06,102.48,120,99.12Zm11.56-1.2a10.89,10.89,0,0,0,.4-3.56,11,11,0,0,0-.4-3.56,3.56,3.56,0,0,0-3.6-2.52,3.61,3.61,0,0,0-3.64,2.52,11,11,0,0,0-.4,3.56,10.89,10.89,0,0,0,.4,3.56,3.61,3.61,0,0,0,3.64,2.52A3.56,3.56,0,0,0,131.54,97.92Z"/><path d="M140.9,104a.38.38,0,0,1-.4-.4V85.12a.38.38,0,0,1,.4-.4h3.68a.38.38,0,0,1,.4.4v1.64h0a5.52,5.52,0,0,1,5-2.48,5.82,5.82,0,0,1,4,1.6c.2.2.24.36.08.56L152,89.12a.36.36,0,0,1-.56.08,5.21,5.21,0,0,0-2.84-.92c-2.52,0-3.64,1.8-3.64,4.88V103.6a.38.38,0,0,1-.4.4Z"/><path d="M155.86,99.08a15,15,0,0,1-.68-4.72,15.36,15.36,0,0,1,.64-4.76c1.08-3.36,4-5.32,7.88-5.32s6.84,2,7.91,5.32a17.27,17.27,0,0,1,.64,5.8.39.39,0,0,1-.44.4H159.94a.21.21,0,0,0-.24.24,4.48,4.48,0,0,0,4.6,4.4,5.81,5.81,0,0,0,4.52-1.84.41.41,0,0,1,.6-.08l2.35,2.08a.36.36,0,0,1,0,.56,10.14,10.14,0,0,1-7.91,3.28C159.82,104.44,156.94,102.44,155.86,99.08Zm11.64-8.52a4.12,4.12,0,0,0-7.56,0,4.89,4.89,0,0,0-.24,1.64.21.21,0,0,0,.24.24h7.56a.21.21,0,0,0,.24-.24A4.89,4.89,0,0,0,167.5,90.56Z"/><path d="M175.1,101.4a.39.39,0,0,1,0-.56l2.28-2.4a.39.39,0,0,1,.56,0,8.92,8.92,0,0,0,5.64,2.2c2.36,0,3.56-1,3.56-2.28,0-1.16-.68-1.88-3.2-2.12l-2.08-.2c-3.92-.4-5.92-2.4-5.92-5.68,0-3.72,2.68-6.08,7.48-6.08a11.64,11.64,0,0,1,7.23,2.36.4.4,0,0,1,.08.56l-1.95,2.36a.39.39,0,0,1-.56.08,9.31,9.31,0,0,0-5-1.6c-1.92,0-2.92.84-2.92,2s.68,1.8,3.16,2l2.08.2c4,.4,6,2.48,6,5.64,0,3.84-2.8,6.52-8.08,6.52A12,12,0,0,1,175.1,101.4Z"/><path d="M203.66,99.08a15,15,0,0,1-.68-4.72,15.36,15.36,0,0,1,.64-4.76c1.08-3.36,4-5.32,7.88-5.32s6.83,2,7.91,5.32a17.27,17.27,0,0,1,.64,5.8.39.39,0,0,1-.44.4H207.74a.21.21,0,0,0-.24.24,4.48,4.48,0,0,0,4.59,4.4,5.81,5.81,0,0,0,4.52-1.84.41.41,0,0,1,.6-.08l2.36,2.08a.36.36,0,0,1,0,.56,10.16,10.16,0,0,1-7.92,3.28C207.62,104.44,204.74,102.44,203.66,99.08Zm11.63-8.52a4.11,4.11,0,0,0-7.55,0,4.89,4.89,0,0,0-.24,1.64.21.21,0,0,0,.24.24h7.55a.21.21,0,0,0,.24-.24A4.89,4.89,0,0,0,215.29,90.56Z"/><path d="M236.25,104a.38.38,0,0,1-.4-.4V92.48c0-2.48-1.24-4.2-3.64-4.2s-3.67,1.72-3.67,4.2V103.6a.38.38,0,0,1-.4.4h-3.68a.38.38,0,0,1-.4-.4V85.12a.38.38,0,0,1,.4-.4h3.68a.38.38,0,0,1,.4.4v1.4h0a6,6,0,0,1,5.07-2.24c4.12,0,6.68,3,6.68,7.16V103.6a.38.38,0,0,1-.4.4Z"/><path d="M253.46,99.08a15,15,0,0,1-.68-4.72,15.36,15.36,0,0,1,.64-4.76c1.08-3.36,4-5.32,7.87-5.32s6.84,2,7.92,5.32a17.27,17.27,0,0,1,.64,5.8.39.39,0,0,1-.44.4H257.53a.22.22,0,0,0-.24.24,4.48,4.48,0,0,0,.28,1.48,4.21,4.21,0,0,0,4.32,2.92,5.81,5.81,0,0,0,4.52-1.84.41.41,0,0,1,.6-.08l2.36,2.08a.36.36,0,0,1,0,.56,10.16,10.16,0,0,1-7.92,3.28C257.42,104.44,254.54,102.44,253.46,99.08Zm11.63-8.52a4.12,4.12,0,0,0-7.56,0,5.16,5.16,0,0,0-.24,1.64.22.22,0,0,0,.24.24h7.56a.21.21,0,0,0,.24-.24A4.89,4.89,0,0,0,265.09,90.56Z"/><path d="M272.7,101.4a.39.39,0,0,1,0-.56l2.28-2.4a.39.39,0,0,1,.56,0,8.9,8.9,0,0,0,5.63,2.2c2.36,0,3.56-1,3.56-2.28,0-1.16-.68-1.88-3.2-2.12l-2.08-.2c-3.91-.4-5.91-2.4-5.91-5.68,0-3.72,2.68-6.08,7.47-6.08a11.69,11.69,0,0,1,7.24,2.36.4.4,0,0,1,.08.56l-2,2.36a.39.39,0,0,1-.56.08,9.31,9.31,0,0,0-5-1.6c-1.92,0-2.92.84-2.92,2s.68,1.8,3.16,2l2.08.2c4,.4,6,2.48,6,5.64,0,3.84-2.8,6.52-8.08,6.52A12,12,0,0,1,272.7,101.4Z"/><path d="M292.53,99.12a15.19,15.19,0,0,1-.59-4.76,15.19,15.19,0,0,1,.59-4.76c1.12-3.44,4.08-5.32,8-5.32a8.4,8.4,0,0,1,6.68,3,.39.39,0,0,1,0,.56L304.61,90a.36.36,0,0,1-.56-.08,4.37,4.37,0,0,0-3.56-1.68,3.54,3.54,0,0,0-3.6,2.52,11.33,11.33,0,0,0-.4,3.56,11.6,11.6,0,0,0,.4,3.6,3.55,3.55,0,0,0,3.6,2.48,4.37,4.37,0,0,0,3.56-1.68.36.36,0,0,1,.56,0l2.52,2.2c.2.16.16.36,0,.56a8.49,8.49,0,0,1-6.68,3C296.61,104.44,293.65,102.56,292.53,99.12Z"/><path d="M321.93,104a.38.38,0,0,1-.4-.4v-1.4h0c-.92,1.32-2.72,2.24-5.44,2.24-3.52,0-6.47-1.84-6.47-5.88,0-4.2,2.95-6.12,7.71-6.12h3.92a.21.21,0,0,0,.24-.24v-.92c0-2.2-1-3.2-4.28-3.2a6.76,6.76,0,0,0-4.4,1.32.36.36,0,0,1-.56-.08l-1.47-2.64a.38.38,0,0,1,.07-.52,11.27,11.27,0,0,1,6.84-1.88c5.88,0,8,2,8,6.72v12.6a.38.38,0,0,1-.4.4Zm-.48-6.48V96a.21.21,0,0,0-.24-.24H318c-2.88,0-4.16.8-4.16,2.6,0,1.6,1.16,2.4,3.32,2.4C319.93,100.8,321.45,99.72,321.45,97.52Z"/><path d="M335.77,104.23c-3.76,0-5.28-1.79-5.28-5.51V77.2a.38.38,0,0,1,.4-.4h3.68a.38.38,0,0,1,.4.4V98.48c0,1.32.52,1.76,1.68,1.76h.88a.38.38,0,0,1,.4.4v3.19a.37.37,0,0,1-.4.4Z"/><path d="M341.05,99.08a15,15,0,0,1-.67-4.72A15.4,15.4,0,0,1,341,89.6c1.08-3.36,4-5.32,7.88-5.32s6.84,2,7.92,5.32a17.27,17.27,0,0,1,.64,5.8.39.39,0,0,1-.44.4H345.13a.21.21,0,0,0-.24.24,4.48,4.48,0,0,0,4.6,4.4A5.81,5.81,0,0,0,354,98.6a.41.41,0,0,1,.6-.08L357,100.6a.36.36,0,0,1,0,.56,10.16,10.16,0,0,1-7.92,3.28C345,104.44,342.13,102.44,341.05,99.08Zm11.64-8.52a4.12,4.12,0,0,0-7.56,0,4.89,4.89,0,0,0-.24,1.64.21.21,0,0,0,.24.24h7.56a.21.21,0,0,0,.24-.24A4.89,4.89,0,0,0,352.69,90.56Z"/><path d="M361.85,104a.38.38,0,0,1-.4-.4V85.12a.38.38,0,0,1,.4-.4h3.68a.38.38,0,0,1,.4.4v1.64h0a5.52,5.52,0,0,1,5-2.48,5.82,5.82,0,0,1,4,1.6c.2.2.24.36.08.56L373,89.12a.36.36,0,0,1-.56.08,5.21,5.21,0,0,0-2.84-.92c-2.52,0-3.64,1.8-3.64,4.88V103.6a.38.38,0,0,1-.4.4Z"/><path d="M388.33,104a.38.38,0,0,1-.4-.4v-1.4h0c-.92,1.32-2.72,2.24-5.44,2.24-3.52,0-6.48-1.84-6.48-5.88,0-4.2,3-6.12,7.72-6.12h3.92a.21.21,0,0,0,.24-.24v-.92c0-2.2-1-3.2-4.28-3.2a6.76,6.76,0,0,0-4.4,1.32.36.36,0,0,1-.56-.08l-1.48-2.64a.37.37,0,0,1,.08-.52,11.25,11.25,0,0,1,6.84-1.88c5.88,0,8,2,8,6.72v12.6a.38.38,0,0,1-.4.4Zm-.48-6.48V96a.21.21,0,0,0-.24-.24h-3.2c-2.88,0-4.16.8-4.16,2.6,0,1.6,1.16,2.4,3.32,2.4C386.33,100.8,387.85,99.72,387.85,97.52Z"/><path d="M395.81,101.4a.39.39,0,0,1,0-.56l2.28-2.4a.39.39,0,0,1,.56,0,8.92,8.92,0,0,0,5.64,2.2c2.36,0,3.56-1,3.56-2.28,0-1.16-.68-1.88-3.2-2.12l-2.08-.2c-3.92-.4-5.92-2.4-5.92-5.68,0-3.72,2.68-6.08,7.48-6.08a11.69,11.69,0,0,1,7.24,2.36.4.4,0,0,1,.08.56l-2,2.36a.39.39,0,0,1-.56.08,9.31,9.31,0,0,0-5-1.6c-1.92,0-2.92.84-2.92,2s.68,1.8,3.16,2l2.08.2c4,.4,6,2.48,6,5.64,0,3.84-2.8,6.52-8.08,6.52A12,12,0,0,1,395.81,101.4Z"/><path d="M108.26,137.12a18,18,0,0,1,0-9.52c1.08-3.36,4-5.32,8-5.32s6.84,2,7.92,5.32a18,18,0,0,1,0,9.52c-1.08,3.36-4,5.32-7.92,5.32S109.34,140.48,108.26,137.12Zm11.56-1.2a10.89,10.89,0,0,0,.4-3.56,11,11,0,0,0-.4-3.56,3.56,3.56,0,0,0-3.6-2.52,3.61,3.61,0,0,0-3.64,2.52,11,11,0,0,0-.4,3.56,10.89,10.89,0,0,0,.4,3.56,3.61,3.61,0,0,0,3.64,2.52A3.56,3.56,0,0,0,119.82,135.92Z"/><path d="M148.9,142a.38.38,0,0,1-.4-.4v-1.4h0c-.92,1.32-2.72,2.24-5.44,2.24-3.52,0-6.48-1.84-6.48-5.88,0-4.2,3-6.12,7.72-6.12h3.92a.21.21,0,0,0,.24-.24v-.92c0-2.2-1-3.2-4.28-3.2a6.76,6.76,0,0,0-4.4,1.32.36.36,0,0,1-.56-.08l-1.48-2.64a.37.37,0,0,1,.08-.52,11.25,11.25,0,0,1,6.84-1.88c5.88,0,8,2,8,6.72v12.6a.38.38,0,0,1-.4.4Zm-.48-6.48V134a.21.21,0,0,0-.24-.24H145c-2.88,0-4.16.8-4.16,2.6,0,1.6,1.16,2.4,3.32,2.4C146.9,138.8,148.42,137.72,148.42,135.52Z"/><path d="M169.74,142a.38.38,0,0,1-.4-.4V130.48c0-2.48-1.24-4.2-3.64-4.2S162,128,162,130.48V141.6a.38.38,0,0,1-.4.4h-3.68a.38.38,0,0,1-.4-.4V123.12a.38.38,0,0,1,.4-.4h3.68a.38.38,0,0,1,.4.4v1.4h0a6,6,0,0,1,5.08-2.24c4.12,0,6.68,3,6.68,7.16V141.6a.38.38,0,0,1-.4.4Z"/><path d="M190.54,142a.38.38,0,0,1-.4-.4v-1.44h0c-.92,1.32-2.52,2.28-5.12,2.28-3.28,0-5.68-1.56-6.68-4.64a16.07,16.07,0,0,1-.68-5.44,16.07,16.07,0,0,1,.68-5.44c1-3.08,3.4-4.64,6.68-4.64,2.6,0,4.2,1,5.12,2.28h0V115.2a.38.38,0,0,1,.4-.4h3.67a.38.38,0,0,1,.4.4v26.4a.38.38,0,0,1-.4.4Zm-.8-6a16.4,16.4,0,0,0,0-7.2,3.82,3.82,0,0,0-7.16,0,16.4,16.4,0,0,0,0,7.2,3.82,3.82,0,0,0,7.16,0Z"/><path d="M211.14,142a.38.38,0,0,1-.4-.4v-1.4h0c-.92,1.32-2.72,2.24-5.44,2.24-3.52,0-6.48-1.84-6.48-5.88,0-4.2,3-6.12,7.72-6.12h3.92a.21.21,0,0,0,.24-.24v-.92c0-2.2-1-3.2-4.28-3.2a6.76,6.76,0,0,0-4.4,1.32.36.36,0,0,1-.56-.08l-1.48-2.64a.37.37,0,0,1,.08-.52,11.25,11.25,0,0,1,6.84-1.88c5.88,0,8,2,8,6.72v12.6a.38.38,0,0,1-.4.4Zm-.48-6.48V134a.21.21,0,0,0-.24-.24h-3.2c-2.88,0-4.16.8-4.16,2.6,0,1.6,1.16,2.4,3.32,2.4C209.14,138.8,210.66,137.72,210.66,135.52Z"/><path d="M243.77,142a.38.38,0,0,1-.4-.4V130.48c0-2.48-1.24-4.2-3.64-4.2s-3.68,1.72-3.68,4.2V141.6a.38.38,0,0,1-.4.4H232a.38.38,0,0,1-.4-.4V130.48c0-2.48-1.24-4.2-3.64-4.2s-3.68,1.72-3.68,4.2V141.6a.38.38,0,0,1-.4.4h-3.68a.38.38,0,0,1-.4-.4V123.12a.38.38,0,0,1,.4-.4h3.68a.38.38,0,0,1,.4.4v1.4h0a6,6,0,0,1,5.08-2.24,6.17,6.17,0,0,1,5.27,2.56h0a7.88,7.88,0,0,1,6.16-2.56c4.48,0,7,3,7,7.16V141.6a.38.38,0,0,1-.4.4Z"/><path d="M253.1,119.08a.38.38,0,0,1-.4-.4V115.2a.38.38,0,0,1,.4-.4h3.68a.38.38,0,0,1,.4.4v3.48a.38.38,0,0,1-.4.4Zm0,22.92a.38.38,0,0,1-.4-.4V123.12a.38.38,0,0,1,.4-.4h3.68a.38.38,0,0,1,.4.4V141.6a.38.38,0,0,1-.4.4Z"/><path d="M261.82,137.12a18,18,0,0,1,0-9.52c1.08-3.36,4-5.32,7.95-5.32s6.84,2,7.92,5.32a18,18,0,0,1,0,9.52c-1.08,3.36-4,5.32-7.92,5.32S262.9,140.48,261.82,137.12Zm11.55-1.2a10.89,10.89,0,0,0,.4-3.56,11,11,0,0,0-.4-3.56,3.56,3.56,0,0,0-3.6-2.52,3.61,3.61,0,0,0-3.63,2.52,11,11,0,0,0-.4,3.56,10.89,10.89,0,0,0,.4,3.56,3.61,3.61,0,0,0,3.63,2.52A3.56,3.56,0,0,0,273.37,135.92Z"/><path d="M281.18,139.4a.39.39,0,0,1,0-.56l2.28-2.4a.39.39,0,0,1,.56,0,8.92,8.92,0,0,0,5.63,2.2c2.36,0,3.56-1,3.56-2.28,0-1.16-.68-1.88-3.2-2.12l-2.07-.2c-3.92-.4-5.92-2.4-5.92-5.68,0-3.72,2.68-6.08,7.47-6.08a11.69,11.69,0,0,1,7.24,2.36.4.4,0,0,1,.08.56l-2,2.36a.39.39,0,0,1-.56.08,9.31,9.31,0,0,0-5-1.6c-1.92,0-2.91.84-2.91,2s.68,1.8,3.15,2l2.08.2c4,.4,6,2.48,6,5.64,0,3.84-2.8,6.52-8.08,6.52A12,12,0,0,1,281.18,139.4Z"/><path d="M301.18,137.52a.38.38,0,0,1,.4-.4h4a.38.38,0,0,1,.4.4v4.08a.39.39,0,0,1-.4.4h-4a.38.38,0,0,1-.4-.4Z"/></g></g></svg>