<svg xmlns="http://www.w3.org/2000/svg" viewBox="0 0 505.03 104.44"><title>p12</title><g id="Capa_2" data-name="Capa 2"><g id="pregunta_vector" data-name="pregunta vector"><path d="M0,14.4C0,10.08.16,8.72.72,7,2.12,2.6,5.56.36,10.16.36a9.56,9.56,0,0,1,9.2,5.84.35.35,0,0,1-.2.48l-3.4,1.64a.36.36,0,0,1-.52-.2A5.37,5.37,0,0,0,10.16,4.6,4.82,4.82,0,0,0,5.28,8.2c-.36,1.12-.48,2.2-.48,6.2s.12,5.08.48,6.2a4.82,4.82,0,0,0,4.88,3.6,5.37,5.37,0,0,0,5.08-3.52.36.36,0,0,1,.52-.2l3.4,1.64a.35.35,0,0,1,.2.48,9.56,9.56,0,0,1-9.2,5.84c-4.6,0-8-2.24-9.44-6.68C.16,20.08,0,18.72,0,14.4Z"/><path d="M34.4,28a.38.38,0,0,1-.4-.4V26.2h0c-.92,1.32-2.72,2.24-5.44,2.24C25,28.44,22,26.6,22,22.56c0-4.2,3-6.12,7.72-6.12h3.92a.21.21,0,0,0,.24-.24v-.92c0-2.2-1-3.2-4.28-3.2a6.76,6.76,0,0,0-4.4,1.32.36.36,0,0,1-.56-.08L23.2,10.68a.37.37,0,0,1,.08-.52,11.25,11.25,0,0,1,6.84-1.88c5.88,0,8,2,8,6.72V27.6a.38.38,0,0,1-.4.4Zm-.48-6.48V20a.21.21,0,0,0-.24-.24h-3.2c-2.88,0-4.16.8-4.16,2.6,0,1.6,1.16,2.39,3.32,2.39C32.4,24.79,33.92,23.72,33.92,21.52Z"/><path d="M43.44,28a.38.38,0,0,1-.4-.4V9.12a.38.38,0,0,1,.4-.4h3.68a.38.38,0,0,1,.4.4V27.6a.38.38,0,0,1-.4.4Zm.4-22.2c-.24,0-.36-.16-.24-.4l3-5a.76.76,0,0,1,.72-.4H51c.24,0,.36.2.2.4l-3.8,5a.93.93,0,0,1-.8.4Z"/><path d="M64.44,28a.38.38,0,0,1-.4-.4V26.16h0c-.92,1.31-2.52,2.28-5.12,2.28-3.28,0-5.68-1.56-6.68-4.64a16.07,16.07,0,0,1-.68-5.44,16.07,16.07,0,0,1,.68-5.44c1-3.08,3.4-4.64,6.68-4.64,2.6,0,4.2,1,5.12,2.28h0V1.2a.38.38,0,0,1,.4-.4h3.68a.38.38,0,0,1,.4.4V27.6a.38.38,0,0,1-.4.4Zm-.8-6a11.37,11.37,0,0,0,.4-3.6,11.37,11.37,0,0,0-.4-3.6,3.82,3.82,0,0,0-7.16,0,11.37,11.37,0,0,0-.4,3.6,11.37,11.37,0,0,0,.4,3.6,3.82,3.82,0,0,0,7.16,0Z"/><path d="M85,28a.38.38,0,0,1-.4-.4V26.2h0c-.92,1.32-2.72,2.24-5.44,2.24-3.52,0-6.48-1.84-6.48-5.88,0-4.2,3-6.12,7.72-6.12h3.92a.21.21,0,0,0,.24-.24v-.92c0-2.2-1-3.2-4.28-3.2a6.76,6.76,0,0,0-4.4,1.32.36.36,0,0,1-.56-.08l-1.48-2.64a.37.37,0,0,1,.08-.52,11.25,11.25,0,0,1,6.84-1.88c5.88,0,8,2,8,6.72V27.6a.38.38,0,0,1-.4.4Zm-.48-6.48V20a.21.21,0,0,0-.24-.24h-3.2c-2.88,0-4.16.8-4.16,2.6,0,1.6,1.16,2.39,3.32,2.39C83,24.79,84.56,23.72,84.56,21.52Z"/><path d="M92.52,25.4a.39.39,0,0,1,0-.56l2.28-2.4a.39.39,0,0,1,.56,0,8.92,8.92,0,0,0,5.64,2.2c2.36,0,3.56-1,3.56-2.28,0-1.16-.68-1.88-3.2-2.12L99.28,20c-3.92-.4-5.92-2.4-5.92-5.68,0-3.72,2.68-6.08,7.48-6.08a11.69,11.69,0,0,1,7.24,2.36.4.4,0,0,1,.08.56l-2,2.36a.39.39,0,0,1-.56.08,9.31,9.31,0,0,0-5-1.6c-1.92,0-2.92.84-2.92,2s.68,1.8,3.16,2l2.08.2c4,.4,6,2.48,6,5.64,0,3.84-2.8,6.52-8.08,6.52A12,12,0,0,1,92.52,25.4Z"/><path d="M132.92,28a.38.38,0,0,1-.4-.4V26.2h0c-.92,1.32-2.72,2.24-5.44,2.24-3.52,0-6.48-1.84-6.48-5.88,0-4.2,3-6.12,7.72-6.12h3.92a.21.21,0,0,0,.24-.24v-.92c0-2.2-1-3.2-4.28-3.2a6.76,6.76,0,0,0-4.4,1.32.36.36,0,0,1-.56-.08l-1.48-2.64a.37.37,0,0,1,.08-.52,11.25,11.25,0,0,1,6.84-1.88c5.88,0,8,2,8,6.72V27.6a.38.38,0,0,1-.4.4Zm-.48-6.48V20a.21.21,0,0,0-.24-.24H129c-2.88,0-4.16.8-4.16,2.6,0,1.6,1.16,2.39,3.32,2.39C130.92,24.79,132.44,23.72,132.44,21.52Z"/><path d="M162.08,28a.38.38,0,0,1-.4-.4V26.16h0c-.92,1.31-2.52,2.28-5.12,2.28-3.28,0-5.68-1.56-6.68-4.64a16.07,16.07,0,0,1-.68-5.44,16.07,16.07,0,0,1,.68-5.44c1-3.08,3.4-4.64,6.68-4.64,2.6,0,4.2,1,5.12,2.28h0V1.2a.38.38,0,0,1,.4-.4h3.68a.38.38,0,0,1,.4.4V27.6a.38.38,0,0,1-.4.4Zm-.8-6a11.37,11.37,0,0,0,.4-3.6,11.37,11.37,0,0,0-.4-3.6,3.82,3.82,0,0,0-7.16,0,11.37,11.37,0,0,0-.4,3.6,11.37,11.37,0,0,0,.4,3.6,3.82,3.82,0,0,0,7.16,0Z"/><path d="M171.6,5.08a.38.38,0,0,1-.4-.4V1.2a.38.38,0,0,1,.4-.4h3.68a.38.38,0,0,1,.4.4V4.68a.38.38,0,0,1-.4.4Zm0,22.92a.38.38,0,0,1-.4-.4V9.12a.38.38,0,0,1,.4-.4h3.68a.38.38,0,0,1,.4.4V27.6a.38.38,0,0,1-.4.4Z"/><path d="M181.72,28a.38.38,0,0,1-.4-.4V12.44a.21.21,0,0,0-.24-.24H179.8a.38.38,0,0,1-.4-.4V9.12a.38.38,0,0,1,.4-.4h1.28a.21.21,0,0,0,.24-.24V7.24c0-4.48,2.2-6.44,6.4-6.44h1.76a.38.38,0,0,1,.4.4V4.4a.38.38,0,0,1-.4.4h-1.24c-2,0-2.44.48-2.44,2.36V8.48a.21.21,0,0,0,.24.24h3.44a.38.38,0,0,1,.4.4V11.8a.38.38,0,0,1-.4.4H186a.21.21,0,0,0-.24.24V27.6a.38.38,0,0,1-.4.4Z"/><path d="M192.68,23.08a15,15,0,0,1-.68-4.72,15.36,15.36,0,0,1,.64-4.76c1.08-3.36,4-5.32,7.88-5.32s6.83,2,7.91,5.32a17.27,17.27,0,0,1,.64,5.8.39.39,0,0,1-.44.4H196.76a.21.21,0,0,0-.24.24,4.24,4.24,0,0,0,.28,1.48,4.21,4.21,0,0,0,4.32,2.92,5.81,5.81,0,0,0,4.52-1.84.4.4,0,0,1,.59-.08l2.36,2.08a.36.36,0,0,1,0,.56,10.14,10.14,0,0,1-7.91,3.28C196.64,28.44,193.76,26.44,192.68,23.08Zm11.64-8.52a4.12,4.12,0,0,0-7.56,0,4.89,4.89,0,0,0-.24,1.64.21.21,0,0,0,.24.24h7.56a.21.21,0,0,0,.24-.24A4.89,4.89,0,0,0,204.32,14.56Z"/><path d="M213.48,28a.38.38,0,0,1-.4-.4V9.12a.38.38,0,0,1,.4-.4h3.68a.38.38,0,0,1,.4.4v1.64h0a5.52,5.52,0,0,1,5-2.48,5.78,5.78,0,0,1,4,1.6c.2.2.25.36.08.56l-2.11,2.68a.36.36,0,0,1-.56.08,5.21,5.21,0,0,0-2.84-.92c-2.52,0-3.64,1.8-3.64,4.88V27.6a.38.38,0,0,1-.4.4Z"/><path d="M228.44,23.08a15,15,0,0,1-.68-4.72,15.36,15.36,0,0,1,.64-4.76c1.08-3.36,4-5.32,7.88-5.32s6.83,2,7.91,5.32a17.27,17.27,0,0,1,.64,5.8.39.39,0,0,1-.44.4H232.52a.21.21,0,0,0-.24.24,4.24,4.24,0,0,0,.28,1.48,4.21,4.21,0,0,0,4.32,2.92,5.8,5.8,0,0,0,4.51-1.84.41.41,0,0,1,.6-.08l2.36,2.08a.36.36,0,0,1,0,.56,10.15,10.15,0,0,1-7.91,3.28C232.4,28.44,229.52,26.44,228.44,23.08Zm11.63-8.52a4.11,4.11,0,0,0-7.55,0,4.89,4.89,0,0,0-.24,1.64.21.21,0,0,0,.24.24h7.55a.21.21,0,0,0,.24-.24A4.89,4.89,0,0,0,240.07,14.56Z"/><path d="M261,28a.38.38,0,0,1-.4-.4V16.48c0-2.48-1.24-4.2-3.63-4.2s-3.68,1.72-3.68,4.2V27.6a.38.38,0,0,1-.4.4h-3.68a.38.38,0,0,1-.4-.4V9.12a.38.38,0,0,1,.4-.4h3.68a.38.38,0,0,1,.4.4v1.4h0a6,6,0,0,1,5.08-2.24c4.11,0,6.67,3,6.67,7.16V27.6a.38.38,0,0,1-.4.4Z"/><path d="M275.6,28.23c-3.88,0-5.36-1.87-5.36-5.63V12.44a.21.21,0,0,0-.24-.24h-1.28a.38.38,0,0,1-.4-.4V9.12a.38.38,0,0,1,.4-.4H270a.21.21,0,0,0,.24-.24V3.2a.38.38,0,0,1,.4-.4h3.68a.38.38,0,0,1,.4.4V8.48a.21.21,0,0,0,.24.24h2.55a.39.39,0,0,1,.41.4V11.8a.39.39,0,0,1-.41.4H275a.21.21,0,0,0-.24.24v10c0,1.36.56,1.8,1.8,1.8h1a.39.39,0,0,1,.41.4v3.19a.38.38,0,0,1-.41.4Z"/><path d="M281.64,23.08a15,15,0,0,1-.68-4.72,15.36,15.36,0,0,1,.64-4.76c1.08-3.36,4-5.32,7.87-5.32s6.84,2,7.92,5.32a17.27,17.27,0,0,1,.64,5.8.39.39,0,0,1-.44.4H285.71a.21.21,0,0,0-.23.24,4.48,4.48,0,0,0,.27,1.48,4.22,4.22,0,0,0,4.32,2.92,5.81,5.81,0,0,0,4.52-1.84.41.41,0,0,1,.6-.08l2.36,2.08a.36.36,0,0,1,0,.56,10.16,10.16,0,0,1-7.92,3.28C285.6,28.44,282.72,26.44,281.64,23.08Zm11.63-8.52a4.12,4.12,0,0,0-7.56,0,5.18,5.18,0,0,0-.23,1.64.21.21,0,0,0,.23.24h7.56a.21.21,0,0,0,.24-.24A4.89,4.89,0,0,0,293.27,14.56Z"/><path d="M322.87,28a.38.38,0,0,1-.4-.4V16.48c0-2.48-1.24-4.2-3.64-4.2s-3.68,1.72-3.68,4.2V27.6a.38.38,0,0,1-.4.4h-3.68a.38.38,0,0,1-.4-.4V9.12a.38.38,0,0,1,.4-.4h3.68a.38.38,0,0,1,.4.4v1.4h0a6,6,0,0,1,5.08-2.24c4.12,0,6.68,3,6.68,7.16V27.6a.38.38,0,0,1-.4.4Z"/><path d="M332.19,5.08a.38.38,0,0,1-.4-.4V1.2a.38.38,0,0,1,.4-.4h3.68a.38.38,0,0,1,.4.4V4.68a.38.38,0,0,1-.4.4Zm0,22.92a.38.38,0,0,1-.4-.4V9.12a.38.38,0,0,1,.4-.4h3.68a.38.38,0,0,1,.4.4V27.6a.38.38,0,0,1-.4.4Z"/><path d="M346.51,28a.53.53,0,0,1-.52-.4l-6.8-18.48c-.08-.24.08-.4.32-.4h3.92a.51.51,0,0,1,.48.4l4.24,12.52h.08l4.16-12.52a.51.51,0,0,1,.48-.4h3.84c.24,0,.4.16.32.4l-6.8,18.48a.53.53,0,0,1-.52.4Z"/><path d="M359.35,23.08a15,15,0,0,1-.68-4.72,15.36,15.36,0,0,1,.64-4.76c1.08-3.36,4-5.32,7.88-5.32s6.84,2,7.92,5.32a17.27,17.27,0,0,1,.64,5.8.39.39,0,0,1-.44.4H363.43a.21.21,0,0,0-.24.24,4.24,4.24,0,0,0,.28,1.48,4.21,4.21,0,0,0,4.32,2.92,5.81,5.81,0,0,0,4.52-1.84.41.41,0,0,1,.6-.08l2.36,2.08a.36.36,0,0,1,0,.56,10.16,10.16,0,0,1-7.92,3.28C363.31,28.44,360.43,26.44,359.35,23.08ZM371,14.56a4.12,4.12,0,0,0-7.56,0,4.89,4.89,0,0,0-.24,1.64.21.21,0,0,0,.24.24H371a.21.21,0,0,0,.24-.24A4.89,4.89,0,0,0,371,14.56Z"/><path d="M385,28.23c-3.76,0-5.28-1.79-5.28-5.51V1.2a.38.38,0,0,1,.4-.4h3.68a.38.38,0,0,1,.4.4V22.48c0,1.32.52,1.76,1.68,1.76h.88a.38.38,0,0,1,.4.4v3.19a.37.37,0,0,1-.4.4Z"/><path d="M411.11,35.19a.38.38,0,0,1-.4-.4V26.16h0c-.92,1.31-2.52,2.28-5.12,2.28-3.28,0-5.68-1.56-6.68-4.64a16.07,16.07,0,0,1-.68-5.44,16.07,16.07,0,0,1,.68-5.44c1-3.08,3.4-4.64,6.68-4.64,2.6,0,4.2,1,5.12,2.28h0V9.12a.38.38,0,0,1,.4-.4h3.68a.38.38,0,0,1,.4.4V34.79a.38.38,0,0,1-.4.4ZM410.31,22a11.37,11.37,0,0,0,.4-3.6,11.37,11.37,0,0,0-.4-3.6,3.82,3.82,0,0,0-7.16,0,11.37,11.37,0,0,0-.4,3.6,11.37,11.37,0,0,0,.4,3.6,3.82,3.82,0,0,0,7.16,0Z"/><path d="M432.07,28a.38.38,0,0,1-.4-.4V26.2h0a5.91,5.91,0,0,1-5,2.24c-4.12,0-6.64-3-6.64-7.16V9.12a.38.38,0,0,1,.4-.4h3.68a.38.38,0,0,1,.4.4V20.24c0,2.48,1.16,4.2,3.6,4.2,2.28,0,3.6-1.72,3.6-4.16V9.12a.38.38,0,0,1,.4-.4h3.68a.38.38,0,0,1,.4.4V27.6a.38.38,0,0,1-.4.4Z"/><path d="M440.83,23.08a15,15,0,0,1-.68-4.72,15.36,15.36,0,0,1,.64-4.76c1.08-3.36,4-5.32,7.88-5.32s6.84,2,7.92,5.32a17.27,17.27,0,0,1,.64,5.8.39.39,0,0,1-.44.4H444.91a.21.21,0,0,0-.24.24,4.24,4.24,0,0,0,.28,1.48,4.21,4.21,0,0,0,4.32,2.92,5.81,5.81,0,0,0,4.52-1.84.41.41,0,0,1,.6-.08l2.36,2.08a.36.36,0,0,1,0,.56,10.16,10.16,0,0,1-7.92,3.28C444.79,28.44,441.91,26.44,440.83,23.08Zm11.64-8.52a4.12,4.12,0,0,0-7.56,0,4.89,4.89,0,0,0-.24,1.64.21.21,0,0,0,.24.24h7.56a.21.21,0,0,0,.24-.24A4.89,4.89,0,0,0,452.47,14.56Z"/><path d="M468.71,25.4a.39.39,0,0,1,0-.56l2.28-2.4a.39.39,0,0,1,.56,0,8.92,8.92,0,0,0,5.64,2.2c2.36,0,3.56-1,3.56-2.28,0-1.16-.68-1.88-3.2-2.12l-2.08-.2c-3.92-.4-5.92-2.4-5.92-5.68,0-3.72,2.68-6.08,7.48-6.08a11.69,11.69,0,0,1,7.24,2.36.4.4,0,0,1,.08.56l-2,2.36a.39.39,0,0,1-.56.08,9.31,9.31,0,0,0-5-1.6c-1.92,0-2.92.84-2.92,2s.68,1.8,3.16,2l2.08.2c4,.4,6,2.48,6,5.64,0,3.84-2.8,6.52-8.08,6.52A12,12,0,0,1,468.71,25.4Z"/><path d="M488.63,23.08a15,15,0,0,1-.68-4.72,15.36,15.36,0,0,1,.64-4.76c1.08-3.36,4-5.32,7.88-5.32s6.84,2,7.92,5.32a17.27,17.27,0,0,1,.64,5.8.39.39,0,0,1-.44.4H492.71a.21.21,0,0,0-.24.24,4.24,4.24,0,0,0,.28,1.48,4.21,4.21,0,0,0,4.32,2.92,5.81,5.81,0,0,0,4.52-1.84.41.41,0,0,1,.6-.08l2.36,2.08a.36.36,0,0,1,0,.56,10.16,10.16,0,0,1-7.92,3.28C492.59,28.44,489.71,26.44,488.63,23.08Zm11.64-8.52a4.12,4.12,0,0,0-7.56,0,4.89,4.89,0,0,0-.24,1.64.21.21,0,0,0,.24.24h7.56a.21.21,0,0,0,.24-.24A4.89,4.89,0,0,0,500.27,14.56Z"/><path d="M5.48,73.19a.38.38,0,0,1-.4-.4V47.12a.38.38,0,0,1,.4-.4H9.16a.38.38,0,0,1,.4.4v1.44h0c.92-1.32,2.52-2.28,5.12-2.28,3.28,0,5.68,1.56,6.68,4.64a16.07,16.07,0,0,1,.68,5.44,16.07,16.07,0,0,1-.68,5.44c-1,3.08-3.4,4.64-6.68,4.64-2.6,0-4.2-1-5.12-2.28h0v8.63a.38.38,0,0,1-.4.4ZM17.12,60a11.37,11.37,0,0,0,.4-3.6,11.37,11.37,0,0,0-.4-3.6,3.45,3.45,0,0,0-3.56-2.48A3.47,3.47,0,0,0,10,52.76a11.37,11.37,0,0,0-.4,3.6A11.37,11.37,0,0,0,10,60a3.47,3.47,0,0,0,3.6,2.48A3.45,3.45,0,0,0,17.12,60Z"/><path d="M37.92,66a.38.38,0,0,1-.4-.4V64.2h0a5.91,5.91,0,0,1-5,2.24c-4.12,0-6.64-3-6.64-7.16V47.12a.38.38,0,0,1,.4-.4h3.68a.38.38,0,0,1,.4.4V58.24c0,2.48,1.16,4.2,3.6,4.2,2.28,0,3.6-1.72,3.6-4.16V47.12a.38.38,0,0,1,.4-.4H41.6a.38.38,0,0,1,.4.4V65.6a.38.38,0,0,1-.4.4Z"/><path d="M46.68,61.08A15,15,0,0,1,46,56.36a15.36,15.36,0,0,1,.64-4.76c1.08-3.36,4-5.32,7.88-5.32s6.84,2,7.92,5.32a17.27,17.27,0,0,1,.64,5.8.39.39,0,0,1-.44.4H50.76a.21.21,0,0,0-.24.24,4.48,4.48,0,0,0,4.6,4.4,5.81,5.81,0,0,0,4.52-1.84.41.41,0,0,1,.6-.08L62.6,62.6a.36.36,0,0,1,0,.56,10.16,10.16,0,0,1-7.92,3.28C50.64,66.44,47.76,64.44,46.68,61.08Zm11.64-8.52a4.12,4.12,0,0,0-7.56,0,4.89,4.89,0,0,0-.24,1.64.21.21,0,0,0,.24.24h7.56a.21.21,0,0,0,.24-.24A4.89,4.89,0,0,0,58.32,52.56Z"/><path d="M79,66a.38.38,0,0,1-.4-.4V64.16h0c-.92,1.31-2.52,2.28-5.12,2.28-3.28,0-5.68-1.56-6.68-4.64A16.07,16.07,0,0,1,66,56.36a16.07,16.07,0,0,1,.68-5.44c1-3.08,3.4-4.64,6.68-4.64,2.6,0,4.2,1,5.12,2.28h0V39.2a.38.38,0,0,1,.4-.4h3.68a.38.38,0,0,1,.4.4V65.6a.38.38,0,0,1-.4.4Zm-.8-6a11.37,11.37,0,0,0,.4-3.6,11.37,11.37,0,0,0-.4-3.6,3.82,3.82,0,0,0-7.16,0,11.37,11.37,0,0,0-.4,3.6A11.37,11.37,0,0,0,71,60a3.82,3.82,0,0,0,7.16,0Z"/><path d="M87.72,61.08A15,15,0,0,1,87,56.36a15.36,15.36,0,0,1,.64-4.76c1.08-3.36,4-5.32,7.88-5.32s6.84,2,7.92,5.32a17.27,17.27,0,0,1,.64,5.8.39.39,0,0,1-.44.4H91.8a.21.21,0,0,0-.24.24,4.48,4.48,0,0,0,4.6,4.4,5.81,5.81,0,0,0,4.52-1.84.41.41,0,0,1,.6-.08l2.36,2.08a.36.36,0,0,1,0,.56,10.16,10.16,0,0,1-7.92,3.28C91.68,66.44,88.8,64.44,87.72,61.08Zm11.64-8.52a4.12,4.12,0,0,0-7.56,0,4.89,4.89,0,0,0-.24,1.64.21.21,0,0,0,.24.24h7.56a.21.21,0,0,0,.24-.24A4.89,4.89,0,0,0,99.36,52.56Z"/><path d="M120.32,66a.38.38,0,0,1-.4-.4V54.48c0-2.48-1.24-4.2-3.64-4.2s-3.68,1.72-3.68,4.2V65.6a.38.38,0,0,1-.4.4h-3.68a.38.38,0,0,1-.4-.4V47.12a.38.38,0,0,1,.4-.4h3.68a.38.38,0,0,1,.4.4v1.4h0a6,6,0,0,1,5.08-2.24c4.12,0,6.68,3,6.68,7.16V65.6a.38.38,0,0,1-.4.4Z"/><path d="M138.28,73.19a.38.38,0,0,1-.4-.4V47.12a.38.38,0,0,1,.4-.4H142a.38.38,0,0,1,.4.4v1.44h0c.92-1.32,2.52-2.28,5.12-2.28a6.47,6.47,0,0,1,6.67,4.64,16.07,16.07,0,0,1,.68,5.44,16.07,16.07,0,0,1-.68,5.44,6.47,6.47,0,0,1-6.67,4.64c-2.6,0-4.2-1-5.12-2.28h0v8.63a.38.38,0,0,1-.4.4ZM149.92,60a11.74,11.74,0,0,0,.39-3.6,11.74,11.74,0,0,0-.39-3.6,3.82,3.82,0,0,0-7.16,0,11.37,11.37,0,0,0-.4,3.6,11.37,11.37,0,0,0,.4,3.6,3.82,3.82,0,0,0,7.16,0Z"/><path d="M159.28,66a.38.38,0,0,1-.4-.4V47.12a.38.38,0,0,1,.4-.4H163a.38.38,0,0,1,.4.4v1.64h0a5.52,5.52,0,0,1,5-2.48,5.78,5.78,0,0,1,4,1.6c.2.2.24.36.08.56l-2.11,2.68a.37.37,0,0,1-.57.08,5.15,5.15,0,0,0-2.83-.92c-2.52,0-3.64,1.8-3.64,4.88V65.6a.38.38,0,0,1-.4.4Z"/><path d="M174.24,61.08a15,15,0,0,1-.68-4.72,15.36,15.36,0,0,1,.64-4.76c1.08-3.36,4-5.32,7.88-5.32s6.83,2,7.91,5.32a17.27,17.27,0,0,1,.64,5.8.39.39,0,0,1-.44.4H178.32a.21.21,0,0,0-.24.24,4.48,4.48,0,0,0,4.59,4.4,5.81,5.81,0,0,0,4.52-1.84.41.41,0,0,1,.6-.08l2.36,2.08a.36.36,0,0,1,0,.56,10.16,10.16,0,0,1-7.92,3.28C178.2,66.44,175.32,64.44,174.24,61.08Zm11.63-8.52a4.11,4.11,0,0,0-7.55,0,4.89,4.89,0,0,0-.24,1.64.21.21,0,0,0,.24.24h7.55a.21.21,0,0,0,.24-.24A4.89,4.89,0,0,0,185.87,52.56Z"/><path d="M193.48,63.4a.39.39,0,0,1,0-.56l2.28-2.4a.39.39,0,0,1,.56,0,8.92,8.92,0,0,0,5.64,2.2c2.35,0,3.55-1,3.55-2.28,0-1.16-.68-1.88-3.2-2.12l-2.07-.2c-3.92-.4-5.92-2.4-5.92-5.68,0-3.72,2.68-6.08,7.47-6.08A11.69,11.69,0,0,1,209,48.64a.4.4,0,0,1,.08.56l-2,2.36a.39.39,0,0,1-.56.08,9.3,9.3,0,0,0-5-1.6c-1.92,0-2.92.84-2.92,2s.68,1.8,3.15,2l2.09.2c4,.4,6,2.48,6,5.64,0,3.84-2.8,6.52-8.08,6.52A12,12,0,0,1,193.48,63.4Z"/><path d="M213.4,61.08a15,15,0,0,1-.68-4.72,15.36,15.36,0,0,1,.64-4.76c1.08-3.36,4-5.32,7.87-5.32s6.84,2,7.92,5.32a17.27,17.27,0,0,1,.64,5.8.39.39,0,0,1-.44.4H217.48a.21.21,0,0,0-.24.24,4.48,4.48,0,0,0,4.59,4.4,5.81,5.81,0,0,0,4.52-1.84.41.41,0,0,1,.6-.08l2.36,2.08a.36.36,0,0,1,0,.56,10.16,10.16,0,0,1-7.92,3.28C217.36,66.44,214.48,64.44,213.4,61.08ZM225,52.56a4.11,4.11,0,0,0-7.55,0,4.89,4.89,0,0,0-.24,1.64.21.21,0,0,0,.24.24H225a.21.21,0,0,0,.24-.24A4.89,4.89,0,0,0,225,52.56Z"/><path d="M246,66a.38.38,0,0,1-.4-.4V54.48c0-2.48-1.24-4.2-3.64-4.2s-3.68,1.72-3.68,4.2V65.6a.38.38,0,0,1-.39.4H234.2a.38.38,0,0,1-.4-.4V47.12a.38.38,0,0,1,.4-.4h3.68a.38.38,0,0,1,.39.4v1.4h0a6,6,0,0,1,5.08-2.24c4.12,0,6.68,3,6.68,7.16V65.6a.38.38,0,0,1-.4.4Z"/><path d="M260.55,66.23c-3.88,0-5.35-1.87-5.35-5.63V50.44a.21.21,0,0,0-.24-.24h-1.28a.38.38,0,0,1-.4-.4V47.12a.38.38,0,0,1,.4-.4H255a.21.21,0,0,0,.24-.24V41.2a.37.37,0,0,1,.4-.4h3.67a.38.38,0,0,1,.4.4v5.28a.21.21,0,0,0,.24.24h2.56a.38.38,0,0,1,.4.4V49.8a.38.38,0,0,1-.4.4h-2.56a.21.21,0,0,0-.24.24v10c0,1.36.56,1.8,1.8,1.8h1a.38.38,0,0,1,.4.4v3.19a.37.37,0,0,1-.4.4Z"/><path d="M278.43,66a.38.38,0,0,1-.4-.4V64.2h0c-.92,1.32-2.72,2.24-5.44,2.24-3.52,0-6.48-1.84-6.48-5.88,0-4.2,3-6.12,7.72-6.12h3.92a.21.21,0,0,0,.24-.24v-.92c0-2.2-1-3.2-4.28-3.2a6.76,6.76,0,0,0-4.4,1.32.36.36,0,0,1-.56-.08l-1.48-2.64a.37.37,0,0,1,.08-.52,11.25,11.25,0,0,1,6.84-1.88c5.88,0,8,2,8,6.72V65.6a.38.38,0,0,1-.4.4ZM278,59.52V58a.21.21,0,0,0-.24-.24h-3.2c-2.88,0-4.16.8-4.16,2.6,0,1.6,1.16,2.39,3.32,2.39C276.43,62.79,278,61.72,278,59.52Z"/><path d="M287.47,66a.38.38,0,0,1-.4-.4V47.12a.38.38,0,0,1,.4-.4h3.68a.38.38,0,0,1,.4.4v1.64h0a5.52,5.52,0,0,1,5-2.48,5.82,5.82,0,0,1,4,1.6c.2.2.24.36.08.56l-2.12,2.68a.36.36,0,0,1-.56.08,5.21,5.21,0,0,0-2.84-.92c-2.52,0-3.64,1.8-3.64,4.88V65.6a.38.38,0,0,1-.4.4Z"/><path d="M312.23,73.19a.38.38,0,0,1-.4-.4V47.12a.38.38,0,0,1,.4-.4h3.68a.38.38,0,0,1,.4.4v1.44h0c.92-1.32,2.52-2.28,5.12-2.28,3.28,0,5.68,1.56,6.68,4.64a16.07,16.07,0,0,1,.68,5.44,16.07,16.07,0,0,1-.68,5.44c-1,3.08-3.4,4.64-6.68,4.64-2.6,0-4.2-1-5.12-2.28h0v8.63a.38.38,0,0,1-.4.4ZM323.87,60a11.37,11.37,0,0,0,.4-3.6,11.37,11.37,0,0,0-.4-3.6,3.82,3.82,0,0,0-7.16,0,11.37,11.37,0,0,0-.4,3.6,11.37,11.37,0,0,0,.4,3.6,3.82,3.82,0,0,0,7.16,0Z"/><path d="M332.43,61.12a14.24,14.24,0,0,1-.64-4.76,14.24,14.24,0,0,1,.64-4.76c1.08-3.36,4-5.32,8-5.32s6.84,2,7.92,5.32a14.24,14.24,0,0,1,.64,4.76,14.24,14.24,0,0,1-.64,4.76c-1.08,3.36-4,5.32-7.92,5.32S333.51,64.48,332.43,61.12ZM344,59.92a10.89,10.89,0,0,0,.4-3.56,11,11,0,0,0-.4-3.56,3.56,3.56,0,0,0-3.6-2.52,3.61,3.61,0,0,0-3.64,2.52,11,11,0,0,0-.4,3.56,10.89,10.89,0,0,0,.4,3.56,3.61,3.61,0,0,0,3.64,2.52A3.56,3.56,0,0,0,344,59.92Z"/><path d="M353.35,66a.38.38,0,0,1-.4-.4V47.12a.38.38,0,0,1,.4-.4H357a.38.38,0,0,1,.4.4v1.64h0a5.52,5.52,0,0,1,5-2.48,5.82,5.82,0,0,1,4,1.6c.2.2.24.36.08.56l-2.12,2.68a.36.36,0,0,1-.56.08,5.21,5.21,0,0,0-2.84-.92c-2.52,0-3.64,1.8-3.64,4.88V65.6a.38.38,0,0,1-.4.4Z"/><path d="M382.91,66.23c-3.76,0-5.28-1.79-5.28-5.51V39.2a.38.38,0,0,1,.4-.4h3.68a.38.38,0,0,1,.4.4V60.48c0,1.32.52,1.76,1.68,1.76h.88a.38.38,0,0,1,.4.4v3.19a.37.37,0,0,1-.4.4Z"/><path d="M400,66a.38.38,0,0,1-.4-.4V64.2h0c-.92,1.32-2.72,2.24-5.44,2.24-3.52,0-6.48-1.84-6.48-5.88,0-4.2,3-6.12,7.72-6.12h3.92a.21.21,0,0,0,.24-.24v-.92c0-2.2-1-3.2-4.28-3.2a6.76,6.76,0,0,0-4.4,1.32.36.36,0,0,1-.56-.08l-1.48-2.64a.37.37,0,0,1,.08-.52,11.25,11.25,0,0,1,6.84-1.88c5.88,0,8,2,8,6.72V65.6a.38.38,0,0,1-.4.4Zm-.48-6.48V58a.21.21,0,0,0-.24-.24h-3.2c-2.88,0-4.16.8-4.16,2.6,0,1.6,1.16,2.39,3.32,2.39C398,62.79,399.55,61.72,399.55,59.52Z"/><path d="M413.19,64.16h0V65.6a.38.38,0,0,1-.4.4h-3.68a.38.38,0,0,1-.4-.4V39.2a.38.38,0,0,1,.4-.4h3.68a.38.38,0,0,1,.4.4v9.36h0c.92-1.32,2.52-2.28,5.12-2.28,3.28,0,5.68,1.56,6.68,4.64a16.07,16.07,0,0,1,.68,5.44A16.07,16.07,0,0,1,425,61.8c-1,3.08-3.4,4.64-6.68,4.64C415.71,66.44,414.11,65.47,413.19,64.16Zm7.52-4.2a11.37,11.37,0,0,0,.4-3.6,11.37,11.37,0,0,0-.4-3.6,3.82,3.82,0,0,0-7.16,0,11.37,11.37,0,0,0-.4,3.6,11.37,11.37,0,0,0,.4,3.6,3.82,3.82,0,0,0,7.16,0Z"/><path d="M429.27,61.12a14.24,14.24,0,0,1-.64-4.76,14.24,14.24,0,0,1,.64-4.76c1.08-3.36,4-5.32,8-5.32s6.84,2,7.92,5.32a14.24,14.24,0,0,1,.64,4.76,14.24,14.24,0,0,1-.64,4.76c-1.08,3.36-4,5.32-7.92,5.32S430.35,64.48,429.27,61.12Zm11.56-1.2a10.89,10.89,0,0,0,.4-3.56,11,11,0,0,0-.4-3.56,3.56,3.56,0,0,0-3.6-2.52,3.61,3.61,0,0,0-3.64,2.52,11,11,0,0,0-.4,3.56,10.89,10.89,0,0,0,.4,3.56,3.61,3.61,0,0,0,3.64,2.52A3.56,3.56,0,0,0,440.83,59.92Z"/><path d="M450.19,66a.38.38,0,0,1-.4-.4V47.12a.38.38,0,0,1,.4-.4h3.68a.38.38,0,0,1,.4.4v1.64h0a5.52,5.52,0,0,1,5-2.48,5.82,5.82,0,0,1,4,1.6c.2.2.24.36.08.56l-2.12,2.68a.36.36,0,0,1-.56.08,5.21,5.21,0,0,0-2.84-.92c-2.52,0-3.64,1.8-3.64,4.88V65.6a.38.38,0,0,1-.4.4Z"/><path d="M465.15,61.08a15,15,0,0,1-.68-4.72,15.36,15.36,0,0,1,.64-4.76c1.08-3.36,4-5.32,7.88-5.32s6.84,2,7.92,5.32a17.27,17.27,0,0,1,.64,5.8.39.39,0,0,1-.44.4H469.23A.21.21,0,0,0,469,58a4.48,4.48,0,0,0,4.6,4.4,5.81,5.81,0,0,0,4.52-1.84.41.41,0,0,1,.6-.08l2.36,2.08a.36.36,0,0,1,0,.56,10.16,10.16,0,0,1-7.92,3.28C469.11,66.44,466.23,64.44,465.15,61.08Zm11.64-8.52a4.12,4.12,0,0,0-7.56,0A4.89,4.89,0,0,0,469,54.2a.21.21,0,0,0,.24.24h7.56a.21.21,0,0,0,.24-.24A4.89,4.89,0,0,0,476.79,52.56Z"/><path d="M484.39,63.4a.39.39,0,0,1,0-.56l2.28-2.4a.39.39,0,0,1,.56,0,8.92,8.92,0,0,0,5.64,2.2c2.36,0,3.56-1,3.56-2.28,0-1.16-.68-1.88-3.2-2.12l-2.08-.2c-3.92-.4-5.92-2.4-5.92-5.68,0-3.72,2.68-6.08,7.48-6.08A11.69,11.69,0,0,1,500,48.64a.4.4,0,0,1,.08.56l-2,2.36a.39.39,0,0,1-.56.08,9.31,9.31,0,0,0-5-1.6c-1.92,0-2.92.84-2.92,2s.68,1.8,3.16,2l2.08.2c4,.4,6,2.48,6,5.64,0,3.84-2.8,6.52-8.08,6.52A12,12,0,0,1,484.39,63.4Z"/><path d="M43.5,99.08a15,15,0,0,1-.68-4.72,15.36,15.36,0,0,1,.64-4.76c1.08-3.36,4-5.32,7.88-5.32s6.84,2,7.92,5.32a17.27,17.27,0,0,1,.64,5.8.39.39,0,0,1-.44.4H47.58a.21.21,0,0,0-.24.24,4.48,4.48,0,0,0,4.6,4.4,5.81,5.81,0,0,0,4.52-1.84.41.41,0,0,1,.6-.08l2.36,2.08a.36.36,0,0,1,0,.56,10.16,10.16,0,0,1-7.92,3.28C47.46,104.44,44.58,102.44,43.5,99.08Zm11.64-8.52a4.12,4.12,0,0,0-7.56,0,4.89,4.89,0,0,0-.24,1.64.21.21,0,0,0,.24.24h7.56a.21.21,0,0,0,.24-.24A4.89,4.89,0,0,0,55.14,90.56Z"/><path d="M76.1,104a.38.38,0,0,1-.4-.4V92.48c0-2.48-1.24-4.2-3.64-4.2s-3.68,1.72-3.68,4.2V103.6a.38.38,0,0,1-.4.4H64.3a.38.38,0,0,1-.4-.4V85.12a.38.38,0,0,1,.4-.4H68a.38.38,0,0,1,.4.4v1.4h0a6,6,0,0,1,5.08-2.24c4.12,0,6.68,3,6.68,7.16V103.6a.38.38,0,0,1-.4.4Z"/><path d="M93.3,99.08a15,15,0,0,1-.68-4.72,15.36,15.36,0,0,1,.64-4.76c1.08-3.36,4-5.32,7.88-5.32s6.84,2,7.92,5.32a17.27,17.27,0,0,1,.64,5.8.39.39,0,0,1-.44.4H97.38a.21.21,0,0,0-.24.24,4.48,4.48,0,0,0,4.6,4.4,5.81,5.81,0,0,0,4.52-1.84.41.41,0,0,1,.6-.08l2.36,2.08a.36.36,0,0,1,0,.56,10.16,10.16,0,0,1-7.92,3.28C97.26,104.44,94.38,102.44,93.3,99.08Zm11.64-8.52a4.12,4.12,0,0,0-7.56,0,4.89,4.89,0,0,0-.24,1.64.21.21,0,0,0,.24.24h7.56a.21.21,0,0,0,.24-.24A4.89,4.89,0,0,0,104.94,90.56Z"/><path d="M112.54,101.4a.39.39,0,0,1,0-.56l2.28-2.4a.39.39,0,0,1,.56,0,8.92,8.92,0,0,0,5.64,2.2c2.36,0,3.56-1,3.56-2.28,0-1.16-.68-1.88-3.2-2.12L119.3,96c-3.92-.4-5.92-2.4-5.92-5.68,0-3.72,2.68-6.08,7.48-6.08a11.69,11.69,0,0,1,7.24,2.36.4.4,0,0,1,.08.56l-2,2.36a.39.39,0,0,1-.56.08,9.31,9.31,0,0,0-5-1.6c-1.92,0-2.92.84-2.92,2s.68,1.8,3.16,2l2.08.2c4,.4,6,2.48,6,5.64,0,3.84-2.8,6.52-8.08,6.52A12,12,0,0,1,112.54,101.4Z"/><path d="M132.38,99.12a15.15,15.15,0,0,1-.6-4.76,15.15,15.15,0,0,1,.6-4.76c1.12-3.44,4.08-5.32,8-5.32a8.4,8.4,0,0,1,6.68,3,.4.4,0,0,1,0,.56L144.46,90a.36.36,0,0,1-.56-.08,4.37,4.37,0,0,0-3.56-1.68,3.54,3.54,0,0,0-3.6,2.52,11.33,11.33,0,0,0-.4,3.56,11.6,11.6,0,0,0,.4,3.6,3.55,3.55,0,0,0,3.6,2.48,4.37,4.37,0,0,0,3.56-1.68.36.36,0,0,1,.56,0l2.52,2.2a.4.4,0,0,1,0,.56,8.49,8.49,0,0,1-6.68,3C136.46,104.44,133.5,102.55,132.38,99.12Z"/><path d="M161.78,104a.38.38,0,0,1-.4-.4v-1.4h0c-.92,1.32-2.72,2.24-5.44,2.24-3.52,0-6.48-1.84-6.48-5.88,0-4.2,3-6.12,7.72-6.12h3.92a.21.21,0,0,0,.24-.24v-.92c0-2.2-1-3.2-4.28-3.2a6.76,6.76,0,0,0-4.4,1.32.36.36,0,0,1-.56-.08l-1.48-2.64a.37.37,0,0,1,.08-.52,11.25,11.25,0,0,1,6.84-1.88c5.88,0,8,2,8,6.72v12.6a.38.38,0,0,1-.4.4Zm-.48-6.48V96a.21.21,0,0,0-.24-.24h-3.2c-2.88,0-4.16.8-4.16,2.6,0,1.6,1.16,2.39,3.32,2.39C159.78,100.79,161.3,99.72,161.3,97.52Z"/><path d="M175.62,104.23c-3.76,0-5.28-1.79-5.28-5.51V77.2a.38.38,0,0,1,.4-.4h3.68a.38.38,0,0,1,.4.4V98.48c0,1.32.52,1.76,1.68,1.76h.88a.38.38,0,0,1,.4.4v3.19a.37.37,0,0,1-.4.4Z"/><path d="M180.9,99.08a15,15,0,0,1-.68-4.72,15.36,15.36,0,0,1,.64-4.76c1.08-3.36,4-5.32,7.88-5.32s6.83,2,7.91,5.32a17.27,17.27,0,0,1,.64,5.8.39.39,0,0,1-.44.4H185a.21.21,0,0,0-.24.24,4.48,4.48,0,0,0,4.6,4.4,5.77,5.77,0,0,0,4.51-1.84.41.41,0,0,1,.6-.08l2.36,2.08a.36.36,0,0,1,0,.56,10.14,10.14,0,0,1-7.91,3.28C184.86,104.44,182,102.44,180.9,99.08Zm11.64-8.52a4.12,4.12,0,0,0-7.56,0,4.89,4.89,0,0,0-.24,1.64.21.21,0,0,0,.24.24h7.56a.21.21,0,0,0,.23-.24A5.18,5.18,0,0,0,192.54,90.56Z"/><path d="M201.7,104a.38.38,0,0,1-.4-.4V85.12a.38.38,0,0,1,.4-.4h3.68a.38.38,0,0,1,.4.4v1.64h0a5.52,5.52,0,0,1,5-2.48,5.82,5.82,0,0,1,4,1.6c.2.2.24.36.08.56l-2.12,2.68a.36.36,0,0,1-.56.08,5.15,5.15,0,0,0-2.83-.92c-2.52,0-3.64,1.8-3.64,4.88V103.6a.38.38,0,0,1-.4.4Z"/><path d="M228.17,104a.39.39,0,0,1-.4-.4v-1.4h0c-.92,1.32-2.71,2.24-5.43,2.24-3.52,0-6.48-1.84-6.48-5.88,0-4.2,3-6.12,7.72-6.12h3.92c.16,0,.23-.08.23-.24v-.92c0-2.2-1-3.2-4.27-3.2A6.76,6.76,0,0,0,219,89.4a.36.36,0,0,1-.56-.08L217,86.68a.37.37,0,0,1,.08-.52,11.25,11.25,0,0,1,6.84-1.88c5.87,0,8,2,8,6.72v12.6a.38.38,0,0,1-.4.4Zm-.48-6.48V96c0-.16-.07-.24-.23-.24h-3.2c-2.88,0-4.16.8-4.16,2.6,0,1.6,1.16,2.39,3.32,2.39C226.18,100.79,227.69,99.72,227.69,97.52Z"/><path d="M235.66,101.4a.39.39,0,0,1,0-.56l2.28-2.4a.39.39,0,0,1,.56,0,8.92,8.92,0,0,0,5.64,2.2c2.36,0,3.56-1,3.56-2.28,0-1.16-.68-1.88-3.2-2.12l-2.08-.2c-3.92-.4-5.92-2.4-5.92-5.68,0-3.72,2.68-6.08,7.48-6.08a11.66,11.66,0,0,1,7.23,2.36.4.4,0,0,1,.08.56l-2,2.36a.39.39,0,0,1-.56.08,9.25,9.25,0,0,0-5-1.6c-1.92,0-2.92.84-2.92,2s.68,1.8,3.16,2l2.08.2c4,.4,5.95,2.48,5.95,5.64,0,3.84-2.8,6.52-8.07,6.52A12,12,0,0,1,235.66,101.4Z"/><path d="M264.18,99.12a14.24,14.24,0,0,1-.64-4.76,14.24,14.24,0,0,1,.64-4.76c1.08-3.36,4-5.32,7.95-5.32s6.84,2,7.92,5.32a14.24,14.24,0,0,1,.64,4.76,14.24,14.24,0,0,1-.64,4.76c-1.08,3.36-4,5.32-7.92,5.32S265.26,102.48,264.18,99.12Zm11.55-1.2a10.89,10.89,0,0,0,.4-3.56,11,11,0,0,0-.4-3.56,3.56,3.56,0,0,0-3.6-2.52,3.61,3.61,0,0,0-3.64,2.52,11,11,0,0,0-.4,3.56,10.89,10.89,0,0,0,.4,3.56,3.61,3.61,0,0,0,3.64,2.52A3.56,3.56,0,0,0,275.73,97.92Z"/><path d="M304.81,104a.38.38,0,0,1-.4-.4v-1.4h0c-.92,1.32-2.72,2.24-5.44,2.24-3.52,0-6.48-1.84-6.48-5.88,0-4.2,3-6.12,7.72-6.12h3.92a.21.21,0,0,0,.24-.24v-.92c0-2.2-1-3.2-4.28-3.2a6.76,6.76,0,0,0-4.4,1.32.36.36,0,0,1-.56-.08l-1.48-2.64a.37.37,0,0,1,.08-.52,11.25,11.25,0,0,1,6.84-1.88c5.88,0,8,2,8,6.72v12.6a.38.38,0,0,1-.4.4Zm-.48-6.48V96a.21.21,0,0,0-.24-.24h-3.2c-2.88,0-4.16.8-4.16,2.6,0,1.6,1.16,2.39,3.32,2.39C302.81,100.79,304.33,99.72,304.33,97.52Z"/><path d="M325.65,104a.38.38,0,0,1-.4-.4V92.48c0-2.48-1.24-4.2-3.64-4.2s-3.68,1.72-3.68,4.2V103.6a.38.38,0,0,1-.4.4h-3.68a.38.38,0,0,1-.4-.4V85.12a.38.38,0,0,1,.4-.4h3.68a.38.38,0,0,1,.4.4v1.4h0a6,6,0,0,1,5.08-2.24c4.12,0,6.68,3,6.68,7.16V103.6a.38.38,0,0,1-.4.4Z"/><path d="M346.45,104a.38.38,0,0,1-.4-.4v-1.44h0c-.92,1.31-2.52,2.28-5.12,2.28-3.28,0-5.68-1.56-6.68-4.64a16.07,16.07,0,0,1-.68-5.44,16.07,16.07,0,0,1,.68-5.44c1-3.08,3.4-4.64,6.68-4.64,2.6,0,4.2,1,5.12,2.28h0V77.2a.38.38,0,0,1,.4-.4h3.68a.38.38,0,0,1,.4.4v26.4a.38.38,0,0,1-.4.4Zm-.8-6a11.37,11.37,0,0,0,.4-3.6,11.37,11.37,0,0,0-.4-3.6,3.82,3.82,0,0,0-7.16,0,11.37,11.37,0,0,0-.4,3.6,11.37,11.37,0,0,0,.4,3.6,3.82,3.82,0,0,0,7.16,0Z"/><path d="M367.05,104a.38.38,0,0,1-.4-.4v-1.4h0c-.92,1.32-2.72,2.24-5.44,2.24-3.52,0-6.48-1.84-6.48-5.88,0-4.2,3-6.12,7.72-6.12h3.92a.21.21,0,0,0,.24-.24v-.92c0-2.2-1-3.2-4.28-3.2a6.76,6.76,0,0,0-4.4,1.32.36.36,0,0,1-.56-.08l-1.48-2.64a.37.37,0,0,1,.08-.52,11.25,11.25,0,0,1,6.84-1.88c5.88,0,8,2,8,6.72v12.6a.38.38,0,0,1-.4.4Zm-.48-6.48V96a.21.21,0,0,0-.24-.24h-3.2c-2.88,0-4.16.8-4.16,2.6,0,1.6,1.16,2.39,3.32,2.39C365.05,100.79,366.57,99.72,366.57,97.52Z"/><path d="M399.69,104a.38.38,0,0,1-.4-.4V92.48c0-2.48-1.24-4.2-3.64-4.2S392,90,392,92.48V103.6a.38.38,0,0,1-.4.4h-3.68a.38.38,0,0,1-.4-.4V92.48c0-2.48-1.24-4.2-3.64-4.2s-3.68,1.72-3.68,4.2V103.6a.38.38,0,0,1-.4.4h-3.68a.38.38,0,0,1-.4-.4V85.12a.38.38,0,0,1,.4-.4h3.68a.38.38,0,0,1,.4.4v1.4h0a6,6,0,0,1,5.08-2.24,6.2,6.2,0,0,1,5.28,2.56h0a7.88,7.88,0,0,1,6.16-2.56c4.48,0,7,3,7,7.16V103.6a.38.38,0,0,1-.4.4Z"/><path d="M409,81.08a.38.38,0,0,1-.4-.4V77.2a.38.38,0,0,1,.4-.4h3.68a.38.38,0,0,1,.4.4v3.48a.38.38,0,0,1-.4.4ZM409,104a.38.38,0,0,1-.4-.4V85.12a.38.38,0,0,1,.4-.4h3.68a.38.38,0,0,1,.4.4V103.6a.38.38,0,0,1-.4.4Z"/><path d="M417.73,99.12a14.24,14.24,0,0,1-.64-4.76,14.24,14.24,0,0,1,.64-4.76c1.08-3.36,4-5.32,8-5.32s6.84,2,7.92,5.32a14.24,14.24,0,0,1,.64,4.76,14.24,14.24,0,0,1-.64,4.76c-1.08,3.36-4,5.32-7.92,5.32S418.81,102.48,417.73,99.12Zm11.56-1.2a10.89,10.89,0,0,0,.4-3.56,11,11,0,0,0-.4-3.56,3.56,3.56,0,0,0-3.6-2.52,3.61,3.61,0,0,0-3.64,2.52,11,11,0,0,0-.4,3.56,10.89,10.89,0,0,0,.4,3.56,3.61,3.61,0,0,0,3.64,2.52A3.56,3.56,0,0,0,429.29,97.92Z"/><path d="M437.09,101.4a.39.39,0,0,1,0-.56l2.28-2.4a.39.39,0,0,1,.56,0,8.92,8.92,0,0,0,5.64,2.2c2.36,0,3.56-1,3.56-2.28,0-1.16-.68-1.88-3.2-2.12l-2.08-.2c-3.92-.4-5.92-2.4-5.92-5.68,0-3.72,2.68-6.08,7.48-6.08a11.69,11.69,0,0,1,7.24,2.36.4.4,0,0,1,.08.56l-2,2.36a.39.39,0,0,1-.56.08,9.31,9.31,0,0,0-5-1.6c-1.92,0-2.92.84-2.92,2s.68,1.8,3.16,2l2.08.2c4,.4,6,2.48,6,5.64,0,3.84-2.8,6.52-8.08,6.52A12,12,0,0,1,437.09,101.4Z"/><path d="M457.09,99.52a.38.38,0,0,1,.4-.4h4a.38.38,0,0,1,.4.4v4.08a.38.38,0,0,1-.4.4h-4a.38.38,0,0,1-.4-.4Z"/></g></g></svg>