<svg xmlns="http://www.w3.org/2000/svg" viewBox="0 0 472.43 110.83"><title>p14</title><g id="Capa_2" data-name="Capa 2"><g id="pregunta_vector" data-name="pregunta vector"><path d="M15.32,17.56V.4a.38.38,0,0,1,.4-.4h3.92a.38.38,0,0,1,.4.4V17.64c0,6.32-4.28,10-10,10S0,24,0,17.64V.4A.38.38,0,0,1,.4,0H4.32a.38.38,0,0,1,.4.4V17.56c0,3.76,2.2,5.84,5.28,5.84S15.32,21.32,15.32,17.56Z"/><path d="M23.84,24.6a.39.39,0,0,1,0-.56l2.28-2.4a.39.39,0,0,1,.56,0,8.92,8.92,0,0,0,5.64,2.2c2.36,0,3.56-1,3.56-2.28,0-1.16-.68-1.88-3.2-2.12l-2.08-.2c-3.92-.4-5.92-2.4-5.92-5.68,0-3.72,2.68-6.08,7.48-6.08A11.69,11.69,0,0,1,39.4,9.84a.4.4,0,0,1,.08.56l-2,2.36a.39.39,0,0,1-.56.08,9.31,9.31,0,0,0-5-1.6c-1.92,0-2.92.84-2.92,2s.68,1.8,3.16,2l2.08.2c4,.4,6,2.48,6,5.64,0,3.84-2.8,6.51-8.08,6.51A12,12,0,0,1,23.84,24.6Z"/><path d="M55.6,27.2a.38.38,0,0,1-.4-.41v-1.4h0c-.92,1.32-2.72,2.24-5.44,2.24-3.52,0-6.48-1.84-6.48-5.87,0-4.2,3-6.12,7.72-6.12h3.92a.21.21,0,0,0,.24-.24v-.92c0-2.2-1-3.2-4.28-3.2a6.76,6.76,0,0,0-4.4,1.32.36.36,0,0,1-.56-.08L44.4,9.88a.37.37,0,0,1,.08-.52,11.25,11.25,0,0,1,6.84-1.88c5.88,0,8,2,8,6.72V26.79a.38.38,0,0,1-.4.41Zm-.48-6.48V19.24a.21.21,0,0,0-.24-.24h-3.2c-2.88,0-4.16.8-4.16,2.6,0,1.6,1.16,2.4,3.32,2.4C53.6,24,55.12,22.92,55.12,20.72Z"/><path d="M64.64,27.2a.38.38,0,0,1-.4-.41V8.32a.38.38,0,0,1,.4-.4h3.68a.38.38,0,0,1,.4.4V10h0a5.52,5.52,0,0,1,5-2.48,5.82,5.82,0,0,1,4,1.6c.2.2.24.36.08.56l-2.12,2.68a.36.36,0,0,1-.56.08,5.21,5.21,0,0,0-2.84-.92c-2.52,0-3.64,1.8-3.64,4.88V26.79a.38.38,0,0,1-.4.41Z"/><path d="M88.64,22.28A15,15,0,0,1,88,17.56a15.36,15.36,0,0,1,.64-4.76c1.08-3.36,4-5.32,7.88-5.32s6.84,2,7.92,5.32a17.27,17.27,0,0,1,.64,5.8.39.39,0,0,1-.44.4H92.72a.21.21,0,0,0-.24.24,4.24,4.24,0,0,0,.28,1.48,4.2,4.2,0,0,0,4.32,2.91,5.81,5.81,0,0,0,4.52-1.83.41.41,0,0,1,.6-.08l2.36,2.07a.37.37,0,0,1,0,.57,10.16,10.16,0,0,1-7.92,3.27C92.6,27.63,89.72,25.63,88.64,22.28Zm11.64-8.52a4.12,4.12,0,0,0-7.56,0,4.89,4.89,0,0,0-.24,1.64.21.21,0,0,0,.24.24h7.56a.21.21,0,0,0,.24-.24A4.89,4.89,0,0,0,100.28,13.76Z"/><path d="M114.24,27.43c-3.76,0-5.28-1.8-5.28-5.51V.4a.38.38,0,0,1,.4-.4H113a.38.38,0,0,1,.4.4V21.68c0,1.32.52,1.76,1.68,1.76H116a.38.38,0,0,1,.4.4V27a.37.37,0,0,1-.4.39Z"/><path d="M119.52,22.28a15,15,0,0,1-.68-4.72,15.36,15.36,0,0,1,.64-4.76c1.08-3.36,4-5.32,7.88-5.32s6.84,2,7.92,5.32a17.55,17.55,0,0,1,.64,5.8.39.39,0,0,1-.44.4H123.6a.21.21,0,0,0-.24.24,4.24,4.24,0,0,0,.28,1.48A4.2,4.2,0,0,0,128,23.63a5.81,5.81,0,0,0,4.52-1.83.41.41,0,0,1,.6-.08l2.36,2.07a.38.38,0,0,1,0,.57,10.16,10.16,0,0,1-7.92,3.27C123.48,27.63,120.6,25.63,119.52,22.28Zm11.64-8.52a4.12,4.12,0,0,0-7.56,0,4.89,4.89,0,0,0-.24,1.64.21.21,0,0,0,.24.24h7.56a.21.21,0,0,0,.24-.24A4.89,4.89,0,0,0,131.16,13.76Z"/><path d="M163.91,27.2a.38.38,0,0,1-.4-.41V15.68c0-2.48-1.24-4.2-3.63-4.2s-3.68,1.72-3.68,4.2V26.79a.38.38,0,0,1-.41.41h-3.67a.38.38,0,0,1-.4-.41V15.68c0-2.48-1.24-4.2-3.64-4.2s-3.68,1.72-3.68,4.2V26.79a.38.38,0,0,1-.4.41h-3.68a.38.38,0,0,1-.4-.41V8.32a.38.38,0,0,1,.4-.4H144a.38.38,0,0,1,.4.4v1.4h0a6,6,0,0,1,5.08-2.24A6.17,6.17,0,0,1,154.79,10h.05A7.85,7.85,0,0,1,161,7.48c4.48,0,7,3,7,7.16V26.79a.38.38,0,0,1-.4.41Z"/><path d="M172.48,22.28a15,15,0,0,1-.68-4.72,15.36,15.36,0,0,1,.64-4.76c1.08-3.36,4-5.32,7.88-5.32s6.84,2,7.91,5.32a17.2,17.2,0,0,1,.65,5.8.39.39,0,0,1-.44.4H176.56a.21.21,0,0,0-.24.24,4.24,4.24,0,0,0,.28,1.48,4.2,4.2,0,0,0,4.32,2.91,5.81,5.81,0,0,0,4.52-1.83.41.41,0,0,1,.6-.08l2.35,2.07a.38.38,0,0,1,.05.57,10.17,10.17,0,0,1-7.92,3.27C176.44,27.63,173.56,25.63,172.48,22.28Zm11.64-8.52a4.12,4.12,0,0,0-7.56,0,4.89,4.89,0,0,0-.24,1.64.21.21,0,0,0,.24.24h7.56a.21.21,0,0,0,.24-.24A4.89,4.89,0,0,0,184.12,13.76Z"/><path d="M205.08,27.2a.38.38,0,0,1-.4-.41V15.68c0-2.48-1.24-4.2-3.64-4.2s-3.68,1.72-3.68,4.2V26.79a.38.38,0,0,1-.4.41h-3.68a.38.38,0,0,1-.4-.41V8.32a.38.38,0,0,1,.4-.4H197a.38.38,0,0,1,.4.4v1.4h0a6,6,0,0,1,5.08-2.24c4.12,0,6.67,3,6.67,7.16V26.79a.38.38,0,0,1-.4.41Z"/><path d="M219.64,27.43c-3.88,0-5.36-1.88-5.36-5.63V11.64a.21.21,0,0,0-.24-.24h-1.28a.38.38,0,0,1-.4-.4V8.32a.38.38,0,0,1,.4-.4H214a.21.21,0,0,0,.24-.24V2.4a.38.38,0,0,1,.4-.4h3.68a.38.38,0,0,1,.4.4V7.68a.21.21,0,0,0,.24.24h2.56a.38.38,0,0,1,.4.4V11a.38.38,0,0,1-.4.4H219a.21.21,0,0,0-.24.24v10c0,1.36.56,1.8,1.8,1.8h1a.38.38,0,0,1,.4.4V27a.37.37,0,0,1-.4.39Z"/><path d="M225.64,22.32a14.24,14.24,0,0,1-.64-4.76,14.24,14.24,0,0,1,.64-4.76c1.08-3.36,4-5.32,8-5.32s6.83,2,7.91,5.32a14.24,14.24,0,0,1,.64,4.76,14.24,14.24,0,0,1-.64,4.76c-1.08,3.36-4,5.31-7.91,5.31S226.72,25.68,225.64,22.32Zm11.56-1.2a11.21,11.21,0,0,0,.39-3.56A11.36,11.36,0,0,0,237.2,14,3.86,3.86,0,0,0,230,14a11,11,0,0,0-.4,3.56,10.89,10.89,0,0,0,.4,3.56,3.87,3.87,0,0,0,7.24,0Z"/><path d="M245,24.6a.39.39,0,0,1,0-.56l2.28-2.4a.39.39,0,0,1,.56,0,8.92,8.92,0,0,0,5.64,2.2c2.35,0,3.56-1,3.56-2.28,0-1.16-.68-1.88-3.2-2.12l-2.08-.2c-3.92-.4-5.92-2.4-5.92-5.68,0-3.72,2.68-6.08,7.48-6.08a11.68,11.68,0,0,1,7.23,2.36.4.4,0,0,1,.08.56l-2,2.36a.38.38,0,0,1-.55.08,9.31,9.31,0,0,0-5-1.6c-1.92,0-2.92.84-2.92,2s.68,1.8,3.16,2l2.08.2c4,.4,6,2.48,6,5.64,0,3.84-2.8,6.51-8.07,6.51A12,12,0,0,1,245,24.6Z"/><path d="M285.79,27.2a.38.38,0,0,1-.4-.41V25.36h0c-.92,1.31-2.52,2.27-5.12,2.27-3.27,0-5.67-1.55-6.67-4.63a16.07,16.07,0,0,1-.68-5.44,16.07,16.07,0,0,1,.68-5.44,6.47,6.47,0,0,1,6.67-4.64c2.6,0,4.2,1,5.12,2.28h0V.4a.38.38,0,0,1,.4-.4h3.68a.38.38,0,0,1,.4.4V26.79a.38.38,0,0,1-.4.41Zm-.8-6a11.37,11.37,0,0,0,.4-3.6A11.37,11.37,0,0,0,285,14a3.82,3.82,0,0,0-7.16,0,11.43,11.43,0,0,0-.39,3.6,11.43,11.43,0,0,0,.39,3.6,3.83,3.83,0,0,0,7.16,0Z"/><path d="M295.32,4.28a.38.38,0,0,1-.4-.4V.4a.38.38,0,0,1,.4-.4H299a.38.38,0,0,1,.39.4V3.88a.38.38,0,0,1-.39.4Zm0,22.92a.38.38,0,0,1-.4-.41V8.32a.38.38,0,0,1,.4-.4H299a.38.38,0,0,1,.39.4V26.79a.38.38,0,0,1-.39.41Z"/><path d="M303.28,24.6a.39.39,0,0,1,0-.56l2.27-2.4a.4.4,0,0,1,.57,0,8.88,8.88,0,0,0,5.63,2.2c2.36,0,3.56-1,3.56-2.28,0-1.16-.68-1.88-3.2-2.12l-2.08-.2c-3.91-.4-5.91-2.4-5.91-5.68,0-3.72,2.67-6.08,7.47-6.08a11.69,11.69,0,0,1,7.24,2.36.4.4,0,0,1,.08.56l-2,2.36a.39.39,0,0,1-.56.08,9.31,9.31,0,0,0-5-1.6c-1.92,0-2.92.84-2.92,2s.68,1.8,3.16,2l2.08.2c4,.4,6,2.48,6,5.64,0,3.84-2.8,6.51-8.08,6.51A11.93,11.93,0,0,1,303.28,24.6Z"/><path d="M329.19,27.43c-3.88,0-5.36-1.88-5.36-5.63V11.64a.21.21,0,0,0-.24-.24h-1.28a.38.38,0,0,1-.39-.4V8.32a.38.38,0,0,1,.39-.4h1.28a.21.21,0,0,0,.24-.24V2.4a.38.38,0,0,1,.4-.4h3.68a.38.38,0,0,1,.4.4V7.68a.21.21,0,0,0,.24.24h2.56a.38.38,0,0,1,.4.4V11a.38.38,0,0,1-.4.4h-2.56a.21.21,0,0,0-.24.24v10c0,1.36.56,1.8,1.8,1.8h1a.38.38,0,0,1,.4.4V27a.37.37,0,0,1-.4.39Z"/><path d="M336,27.2a.38.38,0,0,1-.4-.41V8.32a.38.38,0,0,1,.4-.4h3.68a.38.38,0,0,1,.4.4V10h0a5.52,5.52,0,0,1,5-2.48,5.82,5.82,0,0,1,4,1.6c.2.2.24.36.08.56l-2.12,2.68a.36.36,0,0,1-.56.08,5.21,5.21,0,0,0-2.84-.92c-2.52,0-3.64,1.8-3.64,4.88V26.79a.38.38,0,0,1-.4.41Z"/><path d="M362.47,27.2a.38.38,0,0,1-.4-.41v-1.4h0c-.92,1.32-2.72,2.24-5.44,2.24-3.52,0-6.48-1.84-6.48-5.87,0-4.2,3-6.12,7.72-6.12h3.92a.21.21,0,0,0,.24-.24v-.92c0-2.2-1-3.2-4.28-3.2a6.76,6.76,0,0,0-4.4,1.32.36.36,0,0,1-.56-.08l-1.48-2.64a.37.37,0,0,1,.08-.52,11.25,11.25,0,0,1,6.84-1.88c5.88,0,8,2,8,6.72V26.79a.38.38,0,0,1-.4.41ZM362,20.72V19.24a.21.21,0,0,0-.24-.24h-3.2c-2.88,0-4.16.8-4.16,2.6,0,1.6,1.16,2.4,3.32,2.4C360.47,24,362,22.92,362,20.72Z"/><path d="M370.67,22.32a15.15,15.15,0,0,1-.6-4.76,15.15,15.15,0,0,1,.6-4.76c1.12-3.44,4.08-5.32,8-5.32a8.4,8.4,0,0,1,6.68,3,.39.39,0,0,1,0,.56l-2.52,2.2a.36.36,0,0,1-.56-.08,4.37,4.37,0,0,0-3.56-1.68A3.54,3.54,0,0,0,375,14a11.33,11.33,0,0,0-.4,3.56,11.6,11.6,0,0,0,.4,3.6,3.55,3.55,0,0,0,3.6,2.47A4.36,4.36,0,0,0,382.19,22a.36.36,0,0,1,.56,0l2.52,2.2c.2.16.16.35,0,.56a8.52,8.52,0,0,1-6.68,2.95C374.75,27.63,371.79,25.75,370.67,22.32Z"/><path d="M395,27.43c-3.88,0-5.36-1.88-5.36-5.63V11.64a.21.21,0,0,0-.24-.24h-1.28a.38.38,0,0,1-.4-.4V8.32a.38.38,0,0,1,.4-.4h1.28a.21.21,0,0,0,.24-.24V2.4A.38.38,0,0,1,390,2h3.68a.38.38,0,0,1,.4.4V7.68a.21.21,0,0,0,.24.24h2.56a.38.38,0,0,1,.4.4V11a.38.38,0,0,1-.4.4h-2.56a.21.21,0,0,0-.24.24v10c0,1.36.56,1.8,1.8,1.8h1a.38.38,0,0,1,.4.4V27a.37.37,0,0,1-.4.39Z"/><path d="M401,22.32a14.24,14.24,0,0,1-.64-4.76A14.24,14.24,0,0,1,401,12.8c1.08-3.36,4-5.32,8-5.32s6.84,2,7.92,5.32a14.24,14.24,0,0,1,.64,4.76,14.24,14.24,0,0,1-.64,4.76c-1.08,3.36-4,5.31-7.92,5.31S402,25.68,401,22.32Zm11.56-1.2a10.89,10.89,0,0,0,.4-3.56,11,11,0,0,0-.4-3.56,3.56,3.56,0,0,0-3.6-2.52A3.61,3.61,0,0,0,405.27,14a11,11,0,0,0-.4,3.56,10.89,10.89,0,0,0,.4,3.56,3.6,3.6,0,0,0,3.64,2.51A3.55,3.55,0,0,0,412.51,21.12Z"/><path d="M421.87,27.2a.38.38,0,0,1-.4-.41V8.32a.38.38,0,0,1,.4-.4h3.68a.38.38,0,0,1,.4.4V10h0a5.52,5.52,0,0,1,5-2.48,5.82,5.82,0,0,1,4,1.6c.2.2.24.36.08.56L433,12.32a.36.36,0,0,1-.56.08,5.21,5.21,0,0,0-2.84-.92c-2.52,0-3.64,1.8-3.64,4.88V26.79a.38.38,0,0,1-.4.41Z"/><path d="M436.83,22.28a15,15,0,0,1-.68-4.72,15.36,15.36,0,0,1,.64-4.76c1.08-3.36,4-5.32,7.88-5.32s6.84,2,7.92,5.32a17.27,17.27,0,0,1,.64,5.8.39.39,0,0,1-.44.4H440.91a.21.21,0,0,0-.24.24,4.24,4.24,0,0,0,.28,1.48,4.2,4.2,0,0,0,4.32,2.91,5.81,5.81,0,0,0,4.52-1.83.41.41,0,0,1,.6-.08l2.36,2.07a.37.37,0,0,1,0,.57,10.16,10.16,0,0,1-7.92,3.27C440.79,27.63,437.91,25.63,436.83,22.28Zm11.64-8.52a4.12,4.12,0,0,0-7.56,0,4.89,4.89,0,0,0-.24,1.64.21.21,0,0,0,.24.24h7.56a.21.21,0,0,0,.24-.24A4.89,4.89,0,0,0,448.47,13.76Z"/><path d="M456.07,24.6a.39.39,0,0,1,0-.56l2.28-2.4a.39.39,0,0,1,.56,0,8.92,8.92,0,0,0,5.64,2.2c2.36,0,3.56-1,3.56-2.28,0-1.16-.68-1.88-3.2-2.12l-2.08-.2c-3.92-.4-5.92-2.4-5.92-5.68,0-3.72,2.68-6.08,7.48-6.08a11.69,11.69,0,0,1,7.24,2.36.4.4,0,0,1,.08.56l-2,2.36a.39.39,0,0,1-.56.08,9.31,9.31,0,0,0-5-1.6c-1.92,0-2.92.84-2.92,2s.68,1.8,3.16,2l2.08.2c4,.4,6,2.48,6,5.64,0,3.84-2.8,6.51-8.08,6.51A12,12,0,0,1,456.07,24.6Z"/><path d="M56.72,72.39a.38.38,0,0,1-.4-.4V63.36h0c-.92,1.31-2.52,2.27-5.12,2.27-3.28,0-5.68-1.55-6.68-4.63a16.07,16.07,0,0,1-.68-5.44,16.07,16.07,0,0,1,.68-5.44c1-3.08,3.4-4.64,6.68-4.64,2.6,0,4.2,1,5.12,2.28h0V46.32a.38.38,0,0,1,.4-.4H60.4a.38.38,0,0,1,.4.4V72a.38.38,0,0,1-.4.4Zm-.8-13.23a11.37,11.37,0,0,0,.4-3.6,11.37,11.37,0,0,0-.4-3.6,3.82,3.82,0,0,0-7.16,0,11.37,11.37,0,0,0-.4,3.6,11.37,11.37,0,0,0,.4,3.6,3.44,3.44,0,0,0,3.56,2.47A3.46,3.46,0,0,0,55.92,59.16Z"/><path d="M77.68,65.2a.38.38,0,0,1-.4-.41v-1.4h0a5.91,5.91,0,0,1-5,2.24c-4.12,0-6.64-3-6.64-7.15V46.32a.38.38,0,0,1,.4-.4h3.68a.38.38,0,0,1,.4.4V57.44c0,2.48,1.16,4.19,3.6,4.19,2.28,0,3.6-1.71,3.6-4.15V46.32a.38.38,0,0,1,.4-.4h3.68a.38.38,0,0,1,.4.4V64.79a.38.38,0,0,1-.4.41Z"/><path d="M86.44,60.28a15,15,0,0,1-.68-4.72,15.36,15.36,0,0,1,.64-4.76c1.08-3.36,4-5.32,7.88-5.32s6.84,2,7.92,5.32a17.27,17.27,0,0,1,.64,5.8.39.39,0,0,1-.44.4H90.52a.21.21,0,0,0-.24.24,4.47,4.47,0,0,0,4.6,4.39A5.81,5.81,0,0,0,99.4,59.8a.41.41,0,0,1,.6-.08l2.36,2.07a.37.37,0,0,1,0,.57,10.16,10.16,0,0,1-7.92,3.27C90.4,65.63,87.52,63.63,86.44,60.28Zm11.64-8.52a4.12,4.12,0,0,0-7.56,0,4.89,4.89,0,0,0-.24,1.64.21.21,0,0,0,.24.24h7.56a.21.21,0,0,0,.24-.24A4.89,4.89,0,0,0,98.08,51.76Z"/><path d="M115.88,72.39a.38.38,0,0,1-.4-.4V46.32a.38.38,0,0,1,.4-.4h3.68a.38.38,0,0,1,.4.4v1.44h0c.92-1.32,2.52-2.28,5.12-2.28,3.28,0,5.67,1.56,6.67,4.64a15.82,15.82,0,0,1,.68,5.44,15.82,15.82,0,0,1-.68,5.44c-1,3.08-3.39,4.63-6.67,4.63-2.6,0-4.2-1-5.12-2.27h0V72a.38.38,0,0,1-.4.4Zm11.64-13.23a11.37,11.37,0,0,0,.4-3.6,11.37,11.37,0,0,0-.4-3.6,3.82,3.82,0,0,0-7.16,0,11.37,11.37,0,0,0-.4,3.6,11.37,11.37,0,0,0,.4,3.6,3.83,3.83,0,0,0,7.16,0Z"/><path d="M148.32,65.2a.38.38,0,0,1-.4-.41v-1.4h0a5.91,5.91,0,0,1-5,2.24c-4.12,0-6.64-3-6.64-7.15V46.32a.38.38,0,0,1,.4-.4h3.68a.38.38,0,0,1,.4.4V57.44c0,2.48,1.16,4.19,3.6,4.19,2.28,0,3.6-1.71,3.6-4.15V46.32a.38.38,0,0,1,.4-.4H152a.38.38,0,0,1,.4.4V64.79a.38.38,0,0,1-.4.41Z"/><path d="M157.08,60.28a15,15,0,0,1-.68-4.72A15.36,15.36,0,0,1,157,50.8c1.08-3.36,4-5.32,7.88-5.32s6.84,2,7.92,5.32a17.27,17.27,0,0,1,.64,5.8.39.39,0,0,1-.44.4H161.16a.21.21,0,0,0-.24.24,4.47,4.47,0,0,0,4.6,4.39A5.81,5.81,0,0,0,170,59.8a.41.41,0,0,1,.6-.08L173,61.79a.37.37,0,0,1,0,.57,10.16,10.16,0,0,1-7.92,3.27C161,65.63,158.16,63.63,157.08,60.28Zm11.64-8.52a4.12,4.12,0,0,0-7.56,0,4.89,4.89,0,0,0-.24,1.64.21.21,0,0,0,.24.24h7.56a.21.21,0,0,0,.24-.24A4.89,4.89,0,0,0,168.72,51.76Z"/><path d="M189.36,65.2a.38.38,0,0,1-.4-.41V63.36h0c-.92,1.31-2.52,2.27-5.12,2.27-3.28,0-5.68-1.55-6.68-4.63a16.07,16.07,0,0,1-.68-5.44,16.07,16.07,0,0,1,.68-5.44c1-3.08,3.4-4.64,6.68-4.64,2.6,0,4.2,1,5.12,2.28h0V38.4a.38.38,0,0,1,.4-.4H193a.38.38,0,0,1,.4.4V64.79a.38.38,0,0,1-.4.41Zm-.8-6a11.37,11.37,0,0,0,.4-3.6,11.37,11.37,0,0,0-.4-3.6,3.82,3.82,0,0,0-7.16,0,11.37,11.37,0,0,0-.4,3.6,11.37,11.37,0,0,0,.4,3.6,3.83,3.83,0,0,0,7.16,0Z"/><path d="M198.12,60.28a15,15,0,0,1-.68-4.72,15.36,15.36,0,0,1,.64-4.76c1.08-3.36,4-5.32,7.88-5.32s6.83,2,7.92,5.32a17.55,17.55,0,0,1,.64,5.8.39.39,0,0,1-.44.4H202.2a.21.21,0,0,0-.24.24,4.47,4.47,0,0,0,4.6,4.39,5.81,5.81,0,0,0,4.52-1.83.41.41,0,0,1,.6-.08L214,61.79a.38.38,0,0,1,0,.57,10.16,10.16,0,0,1-7.92,3.27C202.08,65.63,199.2,63.63,198.12,60.28Zm11.64-8.52a4.12,4.12,0,0,0-7.56,0A4.89,4.89,0,0,0,202,53.4a.21.21,0,0,0,.24.24h7.56a.21.21,0,0,0,.24-.24A4.89,4.89,0,0,0,209.76,51.76Z"/><path d="M230.71,65.2a.37.37,0,0,1-.39-.41V53.68c0-2.48-1.24-4.2-3.64-4.2S223,51.2,223,53.68V64.79a.38.38,0,0,1-.4.41h-3.68a.38.38,0,0,1-.4-.41V46.32a.38.38,0,0,1,.4-.4h3.68a.38.38,0,0,1,.4.4v1.4h0a6,6,0,0,1,5.08-2.24c4.11,0,6.67,3,6.67,7.16V64.79a.38.38,0,0,1-.4.41Z"/><path d="M260.15,65.2a.39.39,0,0,1-.4-.41V63.36h0c-.92,1.31-2.51,2.27-5.11,2.27-3.28,0-5.68-1.55-6.68-4.63a16.07,16.07,0,0,1-.68-5.44,16.07,16.07,0,0,1,.68-5.44c1-3.08,3.4-4.64,6.68-4.64,2.6,0,4.19,1,5.11,2.28h0V38.4a.38.38,0,0,1,.4-.4h3.68a.38.38,0,0,1,.4.4V64.79a.38.38,0,0,1-.4.41Zm-.79-6a11.74,11.74,0,0,0,.39-3.6,11.74,11.74,0,0,0-.39-3.6,3.82,3.82,0,0,0-7.16,0,11.37,11.37,0,0,0-.4,3.6,11.37,11.37,0,0,0,.4,3.6,3.83,3.83,0,0,0,7.16,0Z"/><path d="M280.75,65.2a.38.38,0,0,1-.4-.41v-1.4h0c-.92,1.32-2.71,2.24-5.43,2.24-3.52,0-6.48-1.84-6.48-5.87,0-4.2,3-6.12,7.72-6.12H280c.16,0,.23-.08.23-.24v-.92c0-2.2-1-3.2-4.27-3.2a6.76,6.76,0,0,0-4.4,1.32.36.36,0,0,1-.56-.08l-1.48-2.64a.37.37,0,0,1,.08-.52,11.24,11.24,0,0,1,6.83-1.88c5.88,0,8,2,8,6.72V64.79a.38.38,0,0,1-.4.41Zm-.48-6.48V57.24c0-.16-.07-.24-.23-.24h-3.21c-2.87,0-4.15.8-4.15,2.6,0,1.6,1.16,2.4,3.32,2.4C278.75,62,280.27,60.92,280.27,58.72Z"/><path d="M289.8,65.2a.38.38,0,0,1-.4-.41V46.32a.38.38,0,0,1,.4-.4h3.68a.38.38,0,0,1,.4.4V48h0a5.52,5.52,0,0,1,5-2.48,5.8,5.8,0,0,1,4,1.6c.2.2.24.36.08.56l-2.12,2.68a.36.36,0,0,1-.56.08,5.21,5.21,0,0,0-2.83-.92c-2.52,0-3.64,1.8-3.64,4.88V64.79a.38.38,0,0,1-.4.41Z"/><path d="M319.36,65.43c-3.76,0-5.28-1.8-5.28-5.51V38.4a.38.38,0,0,1,.4-.4h3.68a.38.38,0,0,1,.39.4V59.68c0,1.32.53,1.76,1.68,1.76h.89a.38.38,0,0,1,.39.4V65a.37.37,0,0,1-.39.39Z"/><path d="M336.83,65.2a.38.38,0,0,1-.4-.41v-1.4h0a5.91,5.91,0,0,1-5,2.24c-4.11,0-6.63-3-6.63-7.15V46.32a.38.38,0,0,1,.4-.4h3.67a.37.37,0,0,1,.4.4V57.44c0,2.48,1.16,4.19,3.6,4.19,2.28,0,3.6-1.71,3.6-4.15V46.32a.38.38,0,0,1,.4-.4h3.68a.38.38,0,0,1,.4.4V64.79a.38.38,0,0,1-.4.41Z"/><path d="M345.55,70a.35.35,0,0,1,.05-.56L348,67a.36.36,0,0,1,.59,0,6,6,0,0,0,4.2,1.79c3,0,4.32-1.6,4.32-4.6V62.44h0c-.88,1.35-2.52,2.23-5,2.23A6.43,6.43,0,0,1,345.47,60a15,15,0,0,1-.63-4.92,14.72,14.72,0,0,1,.63-4.88A6.43,6.43,0,0,1,352,45.48c2.48,0,4.12.88,5,2.28h0V46.32a.38.38,0,0,1,.4-.4h3.68a.38.38,0,0,1,.4.4V64c0,5.51-3.08,8.83-9,8.83A9.57,9.57,0,0,1,345.55,70Zm11.08-11.71a9,9,0,0,0,.44-3.16,9.28,9.28,0,0,0-.44-3.16,3.62,3.62,0,0,0-6.84,0,9.28,9.28,0,0,0-.44,3.16,9,9,0,0,0,.44,3.16,3.6,3.6,0,0,0,6.84,0Z"/><path d="M378.07,65.2a.38.38,0,0,1-.4-.41v-1.4h0c-.92,1.32-2.72,2.24-5.44,2.24-3.52,0-6.48-1.84-6.48-5.87,0-4.2,3-6.12,7.72-6.12h3.92a.21.21,0,0,0,.24-.24v-.92c0-2.2-1-3.2-4.28-3.2a6.71,6.71,0,0,0-4.39,1.32.36.36,0,0,1-.56-.08l-1.48-2.64a.36.36,0,0,1,.08-.52,11.22,11.22,0,0,1,6.83-1.88c5.88,0,8,2,8,6.72V64.79a.38.38,0,0,1-.4.41Zm-.48-6.48V57.24a.21.21,0,0,0-.24-.24h-3.2c-2.88,0-4.16.8-4.16,2.6,0,1.6,1.16,2.4,3.32,2.4C376.07,62,377.59,60.92,377.59,58.72Z"/><path d="M387.12,65.2a.39.39,0,0,1-.41-.41V46.32a.39.39,0,0,1,.41-.4h3.67a.38.38,0,0,1,.4.4V48h0a5.52,5.52,0,0,1,5-2.48,5.82,5.82,0,0,1,4,1.6c.2.2.24.36.08.56l-2.12,2.68a.36.36,0,0,1-.56.08,5.21,5.21,0,0,0-2.84-.92c-2.52,0-3.64,1.8-3.64,4.88V64.79a.38.38,0,0,1-.4.41Z"/><path d="M423,65.2a.38.38,0,0,1-.4-.41v-1.4h0c-.92,1.32-2.72,2.24-5.44,2.24-3.52,0-6.48-1.84-6.48-5.87,0-4.2,3-6.12,7.72-6.12h3.92a.21.21,0,0,0,.24-.24v-.92c0-2.2-1-3.2-4.28-3.2a6.76,6.76,0,0,0-4.4,1.32.36.36,0,0,1-.56-.08l-1.48-2.64a.37.37,0,0,1,.08-.52,11.25,11.25,0,0,1,6.84-1.88c5.88,0,8,2,8,6.72V64.79a.38.38,0,0,1-.4.41Zm-.48-6.48V57.24a.21.21,0,0,0-.24-.24H419c-2.88,0-4.16.8-4.16,2.6,0,1.6,1.16,2.4,3.32,2.4C421,62,422.47,60.92,422.47,58.72Z"/><path d="M24.74,103.43c-3.88,0-5.36-1.88-5.36-5.63V87.64a.21.21,0,0,0-.24-.24H17.86a.38.38,0,0,1-.4-.4V84.32a.38.38,0,0,1,.4-.4h1.28a.21.21,0,0,0,.24-.24V78.4a.38.38,0,0,1,.4-.4h3.68a.38.38,0,0,1,.4.4v5.28a.21.21,0,0,0,.24.24h2.56a.38.38,0,0,1,.4.4V87a.38.38,0,0,1-.4.4H24.1a.21.21,0,0,0-.24.24v10c0,1.36.56,1.8,1.8,1.8h1a.38.38,0,0,1,.4.4V103a.37.37,0,0,1-.4.39Z"/><path d="M31.54,103.2a.38.38,0,0,1-.4-.41V84.32a.38.38,0,0,1,.4-.4h3.68a.38.38,0,0,1,.4.4V86h0a5.52,5.52,0,0,1,5-2.48,5.82,5.82,0,0,1,4,1.6c.2.2.24.36.08.56l-2.12,2.68a.36.36,0,0,1-.56.08,5.21,5.21,0,0,0-2.84-.92c-2.52,0-3.64,1.8-3.64,4.88v10.43a.38.38,0,0,1-.4.41Z"/><path d="M46.46,98.32a14.24,14.24,0,0,1-.64-4.76,14.24,14.24,0,0,1,.64-4.76c1.08-3.36,4-5.32,8-5.32s6.84,2,7.92,5.32A14.24,14.24,0,0,1,63,93.56a14.24,14.24,0,0,1-.64,4.76c-1.08,3.36-4,5.31-7.92,5.31S47.54,101.68,46.46,98.32ZM58,97.12a10.89,10.89,0,0,0,.4-3.56A11,11,0,0,0,58,90a3.56,3.56,0,0,0-3.6-2.52A3.61,3.61,0,0,0,50.78,90a11,11,0,0,0-.4,3.56,10.89,10.89,0,0,0,.4,3.56,3.6,3.6,0,0,0,3.64,2.51A3.55,3.55,0,0,0,58,97.12Z"/><path d="M67.38,110.39a.38.38,0,0,1-.4-.4V84.32a.38.38,0,0,1,.4-.4h3.68a.38.38,0,0,1,.4.4v1.44h0c.92-1.32,2.52-2.28,5.12-2.28,3.28,0,5.68,1.56,6.68,4.64A16.07,16.07,0,0,1,84,93.56,16.07,16.07,0,0,1,83.3,99c-1,3.08-3.4,4.63-6.68,4.63-2.6,0-4.2-1-5.12-2.27h0V110a.38.38,0,0,1-.4.4ZM79,97.16a11.37,11.37,0,0,0,.4-3.6A11.37,11.37,0,0,0,79,90a3.82,3.82,0,0,0-7.16,0,11.37,11.37,0,0,0-.4,3.6,11.37,11.37,0,0,0,.4,3.6,3.83,3.83,0,0,0,7.16,0Z"/><path d="M88.38,80.28a.38.38,0,0,1-.4-.4V76.4a.38.38,0,0,1,.4-.4h3.68a.38.38,0,0,1,.4.4v3.48a.38.38,0,0,1-.4.4Zm0,22.92a.38.38,0,0,1-.4-.41V84.32a.38.38,0,0,1,.4-.4h3.68a.38.38,0,0,1,.4.4v18.47a.38.38,0,0,1-.4.41Z"/><path d="M97.14,98.28a15,15,0,0,1-.68-4.72,15.36,15.36,0,0,1,.64-4.76c1.08-3.36,4-5.32,7.88-5.32s6.84,2,7.92,5.32a17.27,17.27,0,0,1,.64,5.8.39.39,0,0,1-.44.4H101.22a.21.21,0,0,0-.24.24,4.47,4.47,0,0,0,4.6,4.39,5.81,5.81,0,0,0,4.52-1.83.41.41,0,0,1,.6-.08l2.36,2.07a.37.37,0,0,1,0,.57,10.16,10.16,0,0,1-7.92,3.27C101.1,103.63,98.22,101.63,97.14,98.28Zm11.64-8.52a4.12,4.12,0,0,0-7.56,0A4.89,4.89,0,0,0,101,91.4a.21.21,0,0,0,.24.24h7.56a.21.21,0,0,0,.24-.24A4.89,4.89,0,0,0,108.78,89.76Z"/><path d="M117.1,103.2a.38.38,0,0,1-.4-.41V99.88a.65.65,0,0,1,.12-.4l9.84-11.56v-.08h-9a.38.38,0,0,1-.4-.4V84.32a.38.38,0,0,1,.4-.4h13.92a.38.38,0,0,1,.4.4v3.12a.6.6,0,0,1-.12.4L122.1,99.2v.08h9.44a.38.38,0,0,1,.4.4v3.11a.38.38,0,0,1-.4.41Z"/><path d="M135.74,98.32a14.24,14.24,0,0,1-.64-4.76,14.24,14.24,0,0,1,.64-4.76c1.08-3.36,4-5.32,8-5.32s6.84,2,7.92,5.32a14.54,14.54,0,0,1,.63,4.76,14.54,14.54,0,0,1-.63,4.76c-1.08,3.36-4,5.31-7.92,5.31S136.82,101.68,135.74,98.32Zm11.56-1.2a10.89,10.89,0,0,0,.4-3.56,11,11,0,0,0-.4-3.56,3.56,3.56,0,0,0-3.6-2.52A3.61,3.61,0,0,0,140.06,90a11,11,0,0,0-.4,3.56,10.89,10.89,0,0,0,.4,3.56,3.6,3.6,0,0,0,3.64,2.51A3.55,3.55,0,0,0,147.3,97.12Z"/><path d="M155.1,100.6a.39.39,0,0,1,0-.56l2.28-2.4a.39.39,0,0,1,.56,0,8.92,8.92,0,0,0,5.64,2.2c2.36,0,3.56-1,3.56-2.28,0-1.16-.68-1.88-3.2-2.12l-2.08-.2c-3.92-.4-5.92-2.4-5.92-5.68,0-3.72,2.68-6.08,7.48-6.08a11.69,11.69,0,0,1,7.24,2.36.4.4,0,0,1,.08.56l-2,2.36a.39.39,0,0,1-.56.08,9.31,9.31,0,0,0-5-1.6c-1.92,0-2.92.84-2.92,2s.68,1.8,3.16,2l2.08.2c4,.4,6,2.48,6,5.64,0,3.84-2.8,6.51-8.08,6.51A12,12,0,0,1,155.1,100.6Z"/><path d="M175.1,98.72a.38.38,0,0,1,.4-.4h3.76a.38.38,0,0,1,.4.4v4.35a1,1,0,0,1-.28.84l-3.32,3.44a.76.76,0,0,1-.56.28.38.38,0,0,1-.4-.4Z"/><path d="M191.86,98.32a15.15,15.15,0,0,1-.6-4.76,15.15,15.15,0,0,1,.6-4.76c1.12-3.44,4.08-5.32,8-5.32a8.38,8.38,0,0,1,6.67,3,.39.39,0,0,1,0,.56l-2.52,2.2a.36.36,0,0,1-.56-.08,4.37,4.37,0,0,0-3.56-1.68,3.54,3.54,0,0,0-3.6,2.52,11.33,11.33,0,0,0-.4,3.56,11.6,11.6,0,0,0,.4,3.6,3.55,3.55,0,0,0,3.6,2.47A4.36,4.36,0,0,0,203.38,98a.36.36,0,0,1,.56,0l2.52,2.2c.19.16.16.35,0,.56a8.5,8.5,0,0,1-6.67,2.95C195.94,103.63,193,101.75,191.86,98.32Z"/><path d="M221.25,103.2a.38.38,0,0,1-.4-.41v-1.4h0c-.92,1.32-2.71,2.24-5.43,2.24-3.52,0-6.48-1.84-6.48-5.87,0-4.2,3-6.12,7.72-6.12h3.92c.16,0,.23-.08.23-.24v-.92c0-2.2-1-3.2-4.27-3.2a6.76,6.76,0,0,0-4.4,1.32.36.36,0,0,1-.56-.08l-1.48-2.64a.37.37,0,0,1,.08-.52A11.24,11.24,0,0,1,217,83.48c5.88,0,8,2,8,6.72v12.59a.38.38,0,0,1-.4.41Zm-.48-6.48V95.24c0-.16-.07-.24-.23-.24h-3.21c-2.87,0-4.15.8-4.15,2.6,0,1.6,1.16,2.4,3.32,2.4C219.25,100,220.77,98.92,220.77,96.72Z"/><path d="M230.3,103.2a.38.38,0,0,1-.4-.41V84.32a.38.38,0,0,1,.4-.4H234a.38.38,0,0,1,.4.4v18.47a.38.38,0,0,1-.4.41Zm.4-22.2c-.24,0-.36-.16-.24-.4l3-5a.76.76,0,0,1,.72-.4h3.64c.23,0,.36.2.2.4l-3.8,5a.93.93,0,0,1-.8.4Z"/><path d="M251.29,103.2a.38.38,0,0,1-.4-.41v-1.43h0c-.92,1.31-2.52,2.27-5.12,2.27-3.27,0-5.67-1.55-6.67-4.63a16.07,16.07,0,0,1-.68-5.44,16.07,16.07,0,0,1,.68-5.44,6.47,6.47,0,0,1,6.67-4.64c2.6,0,4.2,1,5.12,2.28h0V76.4a.38.38,0,0,1,.4-.4H255a.38.38,0,0,1,.4.4v26.39a.38.38,0,0,1-.4.41Zm-.8-6a11.37,11.37,0,0,0,.4-3.6,11.37,11.37,0,0,0-.4-3.6,3.82,3.82,0,0,0-7.15,0,11.37,11.37,0,0,0-.4,3.6,11.37,11.37,0,0,0,.4,3.6,3.82,3.82,0,0,0,7.15,0Z"/><path d="M271.89,103.2a.38.38,0,0,1-.4-.41v-1.4h0c-.92,1.32-2.72,2.24-5.43,2.24-3.52,0-6.48-1.84-6.48-5.87,0-4.2,3-6.12,7.71-6.12h3.92a.21.21,0,0,0,.24-.24v-.92c0-2.2-1-3.2-4.28-3.2a6.73,6.73,0,0,0-4.39,1.32.36.36,0,0,1-.56-.08l-1.48-2.64a.37.37,0,0,1,.08-.52,11.25,11.25,0,0,1,6.84-1.88c5.87,0,8,2,8,6.72v12.59a.38.38,0,0,1-.4.41Zm-.48-6.48V95.24a.21.21,0,0,0-.24-.24H268c-2.87,0-4.15.8-4.15,2.6,0,1.6,1.15,2.4,3.31,2.4C269.89,100,271.41,98.92,271.41,96.72Z"/><path d="M279.38,100.6a.39.39,0,0,1,0-.56l2.28-2.4a.39.39,0,0,1,.56,0,8.92,8.92,0,0,0,5.64,2.2c2.35,0,3.55-1,3.55-2.28,0-1.16-.68-1.88-3.2-2.12l-2.08-.2c-3.91-.4-5.91-2.4-5.91-5.68,0-3.72,2.68-6.08,7.48-6.08a11.68,11.68,0,0,1,7.23,2.36.4.4,0,0,1,.08.56l-2,2.36a.39.39,0,0,1-.56.08,9.27,9.27,0,0,0-5-1.6c-1.92,0-2.92.84-2.92,2s.67,1.8,3.16,2l2.07.2c4,.4,6,2.48,6,5.64,0,3.84-2.8,6.51-8.08,6.51A12,12,0,0,1,279.38,100.6Z"/><path d="M307.9,98.32a14.24,14.24,0,0,1-.64-4.76,14.24,14.24,0,0,1,.64-4.76c1.08-3.36,4-5.32,8-5.32s6.84,2,7.92,5.32a14.24,14.24,0,0,1,.64,4.76,14.24,14.24,0,0,1-.64,4.76c-1.08,3.36-4,5.31-7.92,5.31S309,101.68,307.9,98.32Zm11.55-1.2a10.89,10.89,0,0,0,.4-3.56,11,11,0,0,0-.4-3.56,3.56,3.56,0,0,0-3.6-2.52A3.62,3.62,0,0,0,312.21,90a11,11,0,0,0-.4,3.56,10.89,10.89,0,0,0,.4,3.56,3.61,3.61,0,0,0,3.64,2.51A3.55,3.55,0,0,0,319.45,97.12Z"/><path d="M336.65,108a.35.35,0,0,1,.05-.56l2.35-2.35a.36.36,0,0,1,.6,0,6,6,0,0,0,4.2,1.79c3,0,4.32-1.6,4.32-4.6v-1.79h0c-.88,1.35-2.52,2.23-5,2.23A6.43,6.43,0,0,1,336.57,98a14.71,14.71,0,0,1-.63-4.92,14.46,14.46,0,0,1,.63-4.88,6.43,6.43,0,0,1,6.56-4.72c2.48,0,4.12.88,5,2.28h0V84.32a.38.38,0,0,1,.4-.4h3.68a.38.38,0,0,1,.4.4V102c0,5.51-3.08,8.83-9,8.83A9.54,9.54,0,0,1,336.65,108Zm11.08-11.71a9,9,0,0,0,.44-3.16,9.28,9.28,0,0,0-.44-3.16,3.62,3.62,0,0,0-6.84,0,9.28,9.28,0,0,0-.44,3.16,9,9,0,0,0,.44,3.16,3.6,3.6,0,0,0,6.84,0Z"/><path d="M357.29,98.32a14.54,14.54,0,0,1-.63-4.76,14.54,14.54,0,0,1,.63-4.76c1.09-3.36,4-5.32,8-5.32s6.84,2,7.92,5.32a14.24,14.24,0,0,1,.64,4.76,14.24,14.24,0,0,1-.64,4.76c-1.08,3.36-4,5.31-7.92,5.31S358.38,101.68,357.29,98.32Zm11.56-1.2a10.89,10.89,0,0,0,.4-3.56,11,11,0,0,0-.4-3.56,3.56,3.56,0,0,0-3.6-2.52A3.61,3.61,0,0,0,361.61,90a11,11,0,0,0-.4,3.56,10.89,10.89,0,0,0,.4,3.56,3.6,3.6,0,0,0,3.64,2.51A3.55,3.55,0,0,0,368.85,97.12Z"/><path d="M383,103.43c-3.76,0-5.28-1.8-5.28-5.51V76.4a.38.38,0,0,1,.4-.4h3.68a.38.38,0,0,1,.4.4V97.68c0,1.32.52,1.76,1.68,1.76h.88a.38.38,0,0,1,.4.4V103a.37.37,0,0,1-.4.39Z"/><path d="M389.05,110.39a.38.38,0,0,1-.4-.4V84.32a.38.38,0,0,1,.4-.4h3.68a.38.38,0,0,1,.4.4v1.44h0c.92-1.32,2.52-2.28,5.12-2.28,3.28,0,5.68,1.56,6.68,4.64a16.07,16.07,0,0,1,.68,5.44A16.07,16.07,0,0,1,405,99c-1,3.08-3.4,4.63-6.68,4.63-2.6,0-4.2-1-5.12-2.27h0V110a.38.38,0,0,1-.4.4Zm11.64-13.23a11.37,11.37,0,0,0,.4-3.6,11.37,11.37,0,0,0-.4-3.6,3.82,3.82,0,0,0-7.16,0,11.37,11.37,0,0,0-.4,3.6,11.37,11.37,0,0,0,.4,3.6,3.83,3.83,0,0,0,7.16,0Z"/><path d="M409.29,98.28a15,15,0,0,1-.68-4.72,15.36,15.36,0,0,1,.64-4.76c1.08-3.36,4-5.32,7.88-5.32s6.84,2,7.92,5.32a17.27,17.27,0,0,1,.64,5.8.39.39,0,0,1-.44.4H413.37a.21.21,0,0,0-.24.24,4.47,4.47,0,0,0,4.6,4.39,5.81,5.81,0,0,0,4.52-1.83.41.41,0,0,1,.6-.08l2.36,2.07a.37.37,0,0,1,0,.57,10.16,10.16,0,0,1-7.92,3.27C413.25,103.63,410.37,101.63,409.29,98.28Zm11.64-8.52a4.12,4.12,0,0,0-7.56,0,4.89,4.89,0,0,0-.24,1.64.21.21,0,0,0,.24.24h7.56a.21.21,0,0,0,.24-.24A4.89,4.89,0,0,0,420.93,89.76Z"/><path d="M428.53,100.6a.39.39,0,0,1,0-.56l2.28-2.4a.39.39,0,0,1,.56,0,8.92,8.92,0,0,0,5.64,2.2c2.36,0,3.56-1,3.56-2.28,0-1.16-.68-1.88-3.2-2.12l-2.08-.2c-3.92-.4-5.92-2.4-5.92-5.68,0-3.72,2.68-6.08,7.48-6.08a11.69,11.69,0,0,1,7.24,2.36.4.4,0,0,1,.08.56l-2,2.36a.39.39,0,0,1-.56.08,9.31,9.31,0,0,0-5-1.6c-1.92,0-2.92.84-2.92,2s.68,1.8,3.16,2l2.08.2c4,.4,6,2.48,6,5.64,0,3.84-2.8,6.51-8.08,6.51A12,12,0,0,1,428.53,100.6Z"/><path d="M448.53,98.72a.38.38,0,0,1,.4-.4h4a.38.38,0,0,1,.4.4v4.07a.38.38,0,0,1-.4.41h-4a.38.38,0,0,1-.4-.41Z"/></g></g></svg>