<svg xmlns="http://www.w3.org/2000/svg" viewBox="0 0 481.33 179.63"><title>p15</title><g id="Capa_2" data-name="Capa 2"><g id="pregunta_vector" data-name="pregunta vector"><path d="M28.42.4a.52.52,0,0,1,.52-.4h3.68a.52.52,0,0,1,.52.4l9.2,26.39c.08.25,0,.41-.28.41H38.14a.49.49,0,0,1-.52-.41l-1.8-5.27H25.58l-1.8,5.27a.49.49,0,0,1-.52.41H19.38c-.28,0-.36-.16-.28-.41Zm6,16.92L30.78,6.76h-.12L27,17.32Z"/><path d="M44.34,22.32a15.15,15.15,0,0,1-.6-4.76,15.15,15.15,0,0,1,.6-4.76c1.12-3.44,4.08-5.32,8-5.32a8.4,8.4,0,0,1,6.68,3,.39.39,0,0,1,0,.56l-2.52,2.2a.36.36,0,0,1-.56-.08,4.37,4.37,0,0,0-3.56-1.68A3.54,3.54,0,0,0,48.7,14a11.33,11.33,0,0,0-.4,3.56,11.6,11.6,0,0,0,.4,3.6,3.55,3.55,0,0,0,3.6,2.47A4.36,4.36,0,0,0,55.86,22a.36.36,0,0,1,.56,0l2.52,2.2c.2.16.16.35,0,.56a8.52,8.52,0,0,1-6.68,2.95C48.42,27.63,45.46,25.75,44.34,22.32Z"/><path d="M62.54,22.32a15.15,15.15,0,0,1-.6-4.76,15.15,15.15,0,0,1,.6-4.76c1.12-3.44,4.08-5.32,8-5.32a8.4,8.4,0,0,1,6.68,3,.39.39,0,0,1,0,.56l-2.52,2.2a.36.36,0,0,1-.56-.08,4.37,4.37,0,0,0-3.56-1.68A3.54,3.54,0,0,0,66.9,14a11.33,11.33,0,0,0-.4,3.56,11.6,11.6,0,0,0,.4,3.6,3.55,3.55,0,0,0,3.6,2.47A4.36,4.36,0,0,0,74.06,22a.36.36,0,0,1,.56,0l2.52,2.2c.2.16.16.35,0,.56a8.52,8.52,0,0,1-6.68,2.95C66.62,27.63,63.66,25.75,62.54,22.32Z"/><path d="M81.58,4.28a.38.38,0,0,1-.4-.4V.4a.38.38,0,0,1,.4-.4h3.68a.38.38,0,0,1,.4.4V3.88a.38.38,0,0,1-.4.4Zm0,22.92a.38.38,0,0,1-.4-.41V8.32a.38.38,0,0,1,.4-.4h3.68a.38.38,0,0,1,.4.4V26.79a.38.38,0,0,1-.4.41Z"/><path d="M102.58,27.2a.38.38,0,0,1-.4-.41V25.36h-.05c-.91,1.31-2.51,2.27-5.11,2.27-3.28,0-5.68-1.55-6.68-4.63a16.07,16.07,0,0,1-.68-5.44,16.07,16.07,0,0,1,.68-5.44c1-3.08,3.4-4.64,6.68-4.64,2.6,0,4.2,1,5.11,2.28h.05V.4a.38.38,0,0,1,.4-.4h3.67a.38.38,0,0,1,.4.4V26.79a.38.38,0,0,1-.4.41Zm-.8-6a11.37,11.37,0,0,0,.4-3.6,11.37,11.37,0,0,0-.4-3.6,3.82,3.82,0,0,0-7.16,0,11.37,11.37,0,0,0-.4,3.6,11.37,11.37,0,0,0,.4,3.6,3.83,3.83,0,0,0,7.16,0Z"/><path d="M111.34,22.28a15,15,0,0,1-.68-4.72,15.36,15.36,0,0,1,.64-4.76c1.08-3.36,4-5.32,7.88-5.32s6.84,2,7.91,5.32a17,17,0,0,1,.64,5.8.39.39,0,0,1-.44.4H115.42a.21.21,0,0,0-.24.24,4.24,4.24,0,0,0,.28,1.48,4.2,4.2,0,0,0,4.32,2.91,5.77,5.77,0,0,0,4.51-1.83c.21-.2.41-.24.6-.08l2.36,2.07a.36.36,0,0,1,0,.57,10.13,10.13,0,0,1-7.91,3.27C115.3,27.63,112.42,25.63,111.34,22.28ZM123,13.76a4.12,4.12,0,0,0-7.56,0,4.89,4.89,0,0,0-.24,1.64.21.21,0,0,0,.24.24H123a.21.21,0,0,0,.23-.24A5.18,5.18,0,0,0,123,13.76Z"/><path d="M143.94,27.2a.38.38,0,0,1-.4-.41V15.68c0-2.48-1.25-4.2-3.64-4.2s-3.68,1.72-3.68,4.2V26.79a.38.38,0,0,1-.4.41h-3.68a.38.38,0,0,1-.4-.41V8.32a.38.38,0,0,1,.4-.4h3.68a.38.38,0,0,1,.4.4v1.4h0a6,6,0,0,1,5.08-2.24c4.12,0,6.67,3,6.67,7.16V26.79a.38.38,0,0,1-.39.41Z"/><path d="M158.5,27.43c-3.88,0-5.36-1.88-5.36-5.63V11.64a.21.21,0,0,0-.24-.24h-1.28a.38.38,0,0,1-.4-.4V8.32a.38.38,0,0,1,.4-.4h1.28a.21.21,0,0,0,.24-.24V2.4a.38.38,0,0,1,.4-.4h3.68a.38.38,0,0,1,.4.4V7.68a.21.21,0,0,0,.24.24h2.56a.38.38,0,0,1,.4.4V11a.38.38,0,0,1-.4.4h-2.56a.21.21,0,0,0-.24.24v10c0,1.36.56,1.8,1.8,1.8h1a.38.38,0,0,1,.4.4V27a.37.37,0,0,1-.4.39Z"/><path d="M164.54,22.28a15,15,0,0,1-.68-4.72,15.36,15.36,0,0,1,.64-4.76c1.08-3.36,4-5.32,7.88-5.32s6.83,2,7.91,5.32a17.27,17.27,0,0,1,.64,5.8.39.39,0,0,1-.44.4H168.62a.21.21,0,0,0-.24.24,4.24,4.24,0,0,0,.28,1.48A4.2,4.2,0,0,0,173,23.63a5.79,5.79,0,0,0,4.52-1.83.41.41,0,0,1,.6-.08l2.36,2.07a.37.37,0,0,1,0,.57,10.15,10.15,0,0,1-7.91,3.27C168.5,27.63,165.62,25.63,164.54,22.28Zm11.63-8.52a4.11,4.11,0,0,0-7.55,0,4.89,4.89,0,0,0-.24,1.64.21.21,0,0,0,.24.24h7.55a.21.21,0,0,0,.24-.24A4.89,4.89,0,0,0,176.17,13.76Z"/><path d="M183.78,24.6a.39.39,0,0,1,0-.56l2.28-2.4a.39.39,0,0,1,.56,0,8.92,8.92,0,0,0,5.63,2.2c2.36,0,3.56-1,3.56-2.28,0-1.16-.68-1.88-3.19-2.12l-2.08-.2c-3.92-.4-5.92-2.4-5.92-5.68,0-3.72,2.68-6.08,7.47-6.08a11.69,11.69,0,0,1,7.24,2.36.4.4,0,0,1,.08.56l-2,2.36a.39.39,0,0,1-.56.08,9.3,9.3,0,0,0-5-1.6c-1.92,0-2.92.84-2.92,2s.68,1.8,3.15,2l2.08.2c4,.4,6,2.48,6,5.64,0,3.84-2.8,6.51-8.08,6.51A12,12,0,0,1,183.78,24.6Z"/><path d="M224.57,27.2a.38.38,0,0,1-.4-.41V25.36h0c-.92,1.31-2.52,2.27-5.12,2.27-3.28,0-5.67-1.55-6.67-4.63a16.07,16.07,0,0,1-.68-5.44,16.07,16.07,0,0,1,.68-5.44c1-3.08,3.39-4.64,6.67-4.64,2.6,0,4.2,1,5.12,2.28h0V.4a.38.38,0,0,1,.4-.4h3.68a.38.38,0,0,1,.4.4V26.79a.38.38,0,0,1-.4.41Zm-.8-6a11.37,11.37,0,0,0,.4-3.6,11.37,11.37,0,0,0-.4-3.6,3.82,3.82,0,0,0-7.15,0,11,11,0,0,0-.41,3.6,11,11,0,0,0,.41,3.6,3.82,3.82,0,0,0,7.15,0Z"/><path d="M233.33,22.28a15.28,15.28,0,0,1-.67-4.72,15.4,15.4,0,0,1,.63-4.76c1.09-3.36,4-5.32,7.88-5.32s6.84,2,7.92,5.32a17.27,17.27,0,0,1,.64,5.8.39.39,0,0,1-.44.4H237.41a.21.21,0,0,0-.24.24,4.24,4.24,0,0,0,.28,1.48,4.2,4.2,0,0,0,4.32,2.91,5.81,5.81,0,0,0,4.52-1.83.41.41,0,0,1,.6-.08l2.36,2.07a.37.37,0,0,1,0,.57,10.16,10.16,0,0,1-7.92,3.27C237.29,27.63,234.41,25.63,233.33,22.28ZM245,13.76a4.12,4.12,0,0,0-7.56,0,4.89,4.89,0,0,0-.24,1.64.21.21,0,0,0,.24.24H245a.21.21,0,0,0,.24-.24A4.89,4.89,0,0,0,245,13.76Z"/><path d="M268,27.43c-3.88,0-5.36-1.88-5.36-5.63V11.64a.21.21,0,0,0-.24-.24h-1.28a.38.38,0,0,1-.4-.4V8.32a.38.38,0,0,1,.4-.4h1.28a.21.21,0,0,0,.24-.24V2.4a.38.38,0,0,1,.4-.4h3.68a.38.38,0,0,1,.4.4V7.68a.21.21,0,0,0,.24.24h2.56a.38.38,0,0,1,.4.4V11a.38.38,0,0,1-.4.4h-2.56a.21.21,0,0,0-.24.24v10c0,1.36.56,1.8,1.8,1.8h1a.38.38,0,0,1,.4.4V27a.37.37,0,0,1-.4.39Z"/><path d="M274.81,27.2a.38.38,0,0,1-.4-.41V8.32a.38.38,0,0,1,.4-.4h3.68a.38.38,0,0,1,.4.4V10h0a5.52,5.52,0,0,1,5-2.48,5.82,5.82,0,0,1,4,1.6c.2.2.24.36.08.56l-2.12,2.68a.36.36,0,0,1-.56.08,5.21,5.21,0,0,0-2.84-.92c-2.52,0-3.64,1.8-3.64,4.88V26.79a.38.38,0,0,1-.4.41Z"/><path d="M301.29,27.2a.38.38,0,0,1-.4-.41v-1.4h0c-.92,1.32-2.72,2.24-5.44,2.24-3.52,0-6.48-1.84-6.48-5.87,0-4.2,3-6.12,7.72-6.12h3.92a.21.21,0,0,0,.24-.24v-.92c0-2.2-1-3.2-4.28-3.2a6.76,6.76,0,0,0-4.4,1.32.36.36,0,0,1-.56-.08l-1.48-2.64a.37.37,0,0,1,.08-.52A11.25,11.25,0,0,1,297,7.48c5.88,0,8,2,8,6.72V26.79a.38.38,0,0,1-.4.41Zm-.48-6.48V19.24a.21.21,0,0,0-.24-.24h-3.2c-2.88,0-4.16.8-4.16,2.6,0,1.6,1.16,2.4,3.32,2.4C299.29,24,300.81,22.92,300.81,20.72Z"/><path d="M322.13,27.2a.38.38,0,0,1-.4-.41V15.68c0-2.48-1.24-4.2-3.64-4.2s-3.68,1.72-3.68,4.2V26.79a.38.38,0,0,1-.4.41h-3.68a.38.38,0,0,1-.4-.41V8.32a.38.38,0,0,1,.4-.4H314a.38.38,0,0,1,.4.4v1.4h0a6,6,0,0,1,5.08-2.24c4.12,0,6.68,3,6.68,7.16V26.79a.38.38,0,0,1-.4.41Z"/><path d="M329.89,24.6a.39.39,0,0,1,0-.56l2.28-2.4a.39.39,0,0,1,.56,0,8.92,8.92,0,0,0,5.64,2.2c2.36,0,3.56-1,3.56-2.28,0-1.16-.68-1.88-3.2-2.12l-2.08-.2c-3.92-.4-5.92-2.4-5.92-5.68,0-3.72,2.68-6.08,7.48-6.08a11.69,11.69,0,0,1,7.24,2.36.4.4,0,0,1,.08.56l-2,2.36a.39.39,0,0,1-.56.08,9.31,9.31,0,0,0-5-1.6c-1.92,0-2.92.84-2.92,2s.68,1.8,3.16,2l2.08.2c4,.4,6,2.48,6,5.64,0,3.84-2.8,6.51-8.08,6.51A12,12,0,0,1,329.89,24.6Z"/><path d="M350.57,4.28a.38.38,0,0,1-.4-.4V.4a.38.38,0,0,1,.4-.4h3.68a.38.38,0,0,1,.4.4V3.88a.38.38,0,0,1-.4.4Zm0,22.92a.38.38,0,0,1-.4-.41V8.32a.38.38,0,0,1,.4-.4h3.68a.38.38,0,0,1,.4.4V26.79a.38.38,0,0,1-.4.41Z"/><path d="M365.33,27.43c-3.88,0-5.36-1.88-5.36-5.63V11.64a.21.21,0,0,0-.24-.24h-1.28a.38.38,0,0,1-.4-.4V8.32a.38.38,0,0,1,.4-.4h1.28a.21.21,0,0,0,.24-.24V2.4a.38.38,0,0,1,.4-.4h3.68a.38.38,0,0,1,.4.4V7.68a.21.21,0,0,0,.24.24h2.56a.38.38,0,0,1,.4.4V11a.38.38,0,0,1-.4.4h-2.56a.21.21,0,0,0-.24.24v10c0,1.36.56,1.8,1.8,1.8h1a.38.38,0,0,1,.4.4V27a.37.37,0,0,1-.4.39Z"/><path d="M371.33,22.32a14.24,14.24,0,0,1-.64-4.76,14.24,14.24,0,0,1,.64-4.76c1.08-3.36,4-5.32,8-5.32s6.84,2,7.92,5.32a14.24,14.24,0,0,1,.64,4.76,14.24,14.24,0,0,1-.64,4.76c-1.08,3.36-4,5.31-7.92,5.31S372.41,25.68,371.33,22.32Zm11.56-1.2a10.89,10.89,0,0,0,.4-3.56,11,11,0,0,0-.4-3.56,3.56,3.56,0,0,0-3.6-2.52A3.61,3.61,0,0,0,375.65,14a11,11,0,0,0-.4,3.56,10.89,10.89,0,0,0,.4,3.56,3.6,3.6,0,0,0,3.64,2.51A3.55,3.55,0,0,0,382.89,21.12Z"/><path d="M412.37,34.39a.38.38,0,0,1-.4-.4V25.36h0c-.92,1.31-2.52,2.27-5.12,2.27-3.28,0-5.68-1.55-6.68-4.63a16.07,16.07,0,0,1-.68-5.44,16.07,16.07,0,0,1,.68-5.44c1-3.08,3.4-4.64,6.68-4.64,2.6,0,4.2,1,5.12,2.28h0V8.32a.38.38,0,0,1,.4-.4h3.68a.38.38,0,0,1,.4.4V34a.38.38,0,0,1-.4.4Zm-.8-13.23a11.37,11.37,0,0,0,.4-3.6,11.37,11.37,0,0,0-.4-3.6,3.82,3.82,0,0,0-7.16,0,11.37,11.37,0,0,0-.4,3.6,11.37,11.37,0,0,0,.4,3.6,3.83,3.83,0,0,0,7.16,0Z"/><path d="M433.33,27.2a.38.38,0,0,1-.4-.41v-1.4h0a5.91,5.91,0,0,1-5,2.24c-4.12,0-6.64-3-6.64-7.15V8.32a.38.38,0,0,1,.4-.4h3.68a.38.38,0,0,1,.4.4V19.44c0,2.48,1.16,4.19,3.6,4.19,2.28,0,3.6-1.71,3.6-4.15V8.32a.38.38,0,0,1,.4-.4H437a.38.38,0,0,1,.4.4V26.79a.38.38,0,0,1-.4.41Z"/><path d="M442.09,22.28a15,15,0,0,1-.68-4.72,15.36,15.36,0,0,1,.64-4.76c1.08-3.36,4-5.32,7.88-5.32s6.84,2,7.92,5.32a17.27,17.27,0,0,1,.64,5.8.39.39,0,0,1-.44.4H446.17a.21.21,0,0,0-.24.24,4.24,4.24,0,0,0,.28,1.48,4.2,4.2,0,0,0,4.32,2.91,5.81,5.81,0,0,0,4.52-1.83.41.41,0,0,1,.6-.08L458,23.79a.37.37,0,0,1,0,.57,10.16,10.16,0,0,1-7.92,3.27C446.05,27.63,443.17,25.63,442.09,22.28Zm11.64-8.52a4.12,4.12,0,0,0-7.56,0,4.89,4.89,0,0,0-.24,1.64.21.21,0,0,0,.24.24h7.56a.21.21,0,0,0,.24-.24A4.89,4.89,0,0,0,453.73,13.76Z"/><path d="M4.18,72.39a.38.38,0,0,1-.4-.4V46.32a.38.38,0,0,1,.4-.4H7.86a.38.38,0,0,1,.4.4v1.44h0c.92-1.32,2.52-2.28,5.12-2.28,3.28,0,5.68,1.56,6.68,4.64a16.07,16.07,0,0,1,.68,5.44A16.07,16.07,0,0,1,20.1,61c-1,3.08-3.4,4.63-6.68,4.63-2.6,0-4.2-1-5.12-2.27h0V72a.38.38,0,0,1-.4.4ZM15.82,59.16a11.37,11.37,0,0,0,.4-3.6,11.37,11.37,0,0,0-.4-3.6,3.45,3.45,0,0,0-3.56-2.48A3.47,3.47,0,0,0,8.66,52a11.37,11.37,0,0,0-.4,3.6,11.37,11.37,0,0,0,.4,3.6,3.46,3.46,0,0,0,3.6,2.47A3.44,3.44,0,0,0,15.82,59.16Z"/><path d="M36.62,65.2a.38.38,0,0,1-.4-.41v-1.4h0a5.91,5.91,0,0,1-5,2.24c-4.12,0-6.64-3-6.64-7.15V46.32a.38.38,0,0,1,.4-.4h3.68a.38.38,0,0,1,.4.4V57.44c0,2.48,1.16,4.19,3.6,4.19,2.28,0,3.6-1.71,3.6-4.15V46.32a.38.38,0,0,1,.4-.4H40.3a.38.38,0,0,1,.4.4V64.79a.38.38,0,0,1-.4.41Z"/><path d="M45.38,60.28a15,15,0,0,1-.68-4.72,15.36,15.36,0,0,1,.64-4.76c1.08-3.36,4-5.32,7.88-5.32s6.84,2,7.92,5.32a17.27,17.27,0,0,1,.64,5.8.39.39,0,0,1-.44.4H49.46a.21.21,0,0,0-.24.24,4.47,4.47,0,0,0,4.6,4.39,5.81,5.81,0,0,0,4.52-1.83.41.41,0,0,1,.6-.08l2.36,2.07a.37.37,0,0,1,0,.57,10.16,10.16,0,0,1-7.92,3.27C49.34,65.63,46.46,63.63,45.38,60.28ZM57,51.76a4.12,4.12,0,0,0-7.56,0,4.89,4.89,0,0,0-.24,1.64.21.21,0,0,0,.24.24H57a.21.21,0,0,0,.24-.24A4.89,4.89,0,0,0,57,51.76Z"/><path d="M77.66,65.2a.38.38,0,0,1-.4-.41V63.36h0c-.92,1.31-2.52,2.27-5.12,2.27-3.28,0-5.68-1.55-6.68-4.63a16.07,16.07,0,0,1-.68-5.44,16.07,16.07,0,0,1,.68-5.44c1-3.08,3.4-4.64,6.68-4.64,2.6,0,4.2,1,5.12,2.28h0V38.4a.38.38,0,0,1,.4-.4h3.68a.38.38,0,0,1,.4.4V64.79a.38.38,0,0,1-.4.41Zm-.8-6a11.37,11.37,0,0,0,.4-3.6,11.37,11.37,0,0,0-.4-3.6,3.82,3.82,0,0,0-7.16,0,11.37,11.37,0,0,0-.4,3.6,11.37,11.37,0,0,0,.4,3.6,3.83,3.83,0,0,0,7.16,0Z"/><path d="M86.42,60.28a15,15,0,0,1-.68-4.72,15.36,15.36,0,0,1,.64-4.76c1.08-3.36,4-5.32,7.88-5.32s6.84,2,7.92,5.32a17.27,17.27,0,0,1,.64,5.8.39.39,0,0,1-.44.4H90.5a.21.21,0,0,0-.24.24,4.47,4.47,0,0,0,4.6,4.39,5.81,5.81,0,0,0,4.52-1.83.41.41,0,0,1,.6-.08l2.36,2.07a.37.37,0,0,1,0,.57,10.16,10.16,0,0,1-7.92,3.27C90.38,65.63,87.5,63.63,86.42,60.28Zm11.64-8.52a4.12,4.12,0,0,0-7.56,0,4.89,4.89,0,0,0-.24,1.64.21.21,0,0,0,.24.24h7.56a.21.21,0,0,0,.24-.24A4.89,4.89,0,0,0,98.06,51.76Z"/><path d="M119,65.2a.38.38,0,0,1-.4-.41V53.68c0-2.48-1.24-4.2-3.64-4.2s-3.68,1.72-3.68,4.2V64.79a.38.38,0,0,1-.4.41h-3.68a.38.38,0,0,1-.4-.41V46.32a.38.38,0,0,1,.4-.4h3.68a.38.38,0,0,1,.4.4v1.4h0a6,6,0,0,1,5.08-2.24c4.12,0,6.68,3,6.68,7.16V64.79a.38.38,0,0,1-.4.41Z"/><path d="M137,72.39a.38.38,0,0,1-.4-.4V46.32a.38.38,0,0,1,.4-.4h3.68a.38.38,0,0,1,.4.4v1.44h0c.92-1.32,2.52-2.28,5.12-2.28,3.28,0,5.67,1.56,6.67,4.64a15.82,15.82,0,0,1,.68,5.44,15.82,15.82,0,0,1-.68,5.44c-1,3.08-3.39,4.63-6.67,4.63-2.6,0-4.2-1-5.12-2.27h0V72a.38.38,0,0,1-.4.4Zm11.64-13.23a11.67,11.67,0,0,0,.4-3.6,11.67,11.67,0,0,0-.4-3.6,3.82,3.82,0,0,0-7.16,0,11.37,11.37,0,0,0-.4,3.6,11.37,11.37,0,0,0,.4,3.6,3.83,3.83,0,0,0,7.16,0Z"/><path d="M158,65.2a.38.38,0,0,1-.4-.41V46.32a.38.38,0,0,1,.4-.4h3.68a.38.38,0,0,1,.4.4V48h0a5.52,5.52,0,0,1,5-2.48,5.8,5.8,0,0,1,4,1.6c.2.2.25.36.08.56l-2.11,2.68a.36.36,0,0,1-.56.08,5.21,5.21,0,0,0-2.84-.92c-2.52,0-3.64,1.8-3.64,4.88V64.79a.38.38,0,0,1-.4.41Z"/><path d="M172.94,60.28a15,15,0,0,1-.68-4.72,15.36,15.36,0,0,1,.64-4.76c1.08-3.36,4-5.32,7.88-5.32s6.83,2,7.91,5.32a17.27,17.27,0,0,1,.64,5.8.39.39,0,0,1-.44.4H177a.21.21,0,0,0-.24.24,4.24,4.24,0,0,0,.28,1.48,4.2,4.2,0,0,0,4.32,2.91,5.78,5.78,0,0,0,4.51-1.83.41.41,0,0,1,.6-.08l2.36,2.07a.37.37,0,0,1,0,.57A10.14,10.14,0,0,1,181,65.63C176.9,65.63,174,63.63,172.94,60.28Zm11.63-8.52a4.11,4.11,0,0,0-7.55,0,4.89,4.89,0,0,0-.24,1.64.21.21,0,0,0,.24.24h7.55a.21.21,0,0,0,.24-.24A4.89,4.89,0,0,0,184.57,51.76Z"/><path d="M192.18,62.6a.39.39,0,0,1,0-.56l2.28-2.4a.39.39,0,0,1,.56,0,8.92,8.92,0,0,0,5.64,2.2c2.35,0,3.55-1,3.55-2.28,0-1.16-.67-1.88-3.19-2.12l-2.08-.2c-3.92-.4-5.92-2.4-5.92-5.68,0-3.72,2.68-6.08,7.48-6.08a11.68,11.68,0,0,1,7.23,2.36.4.4,0,0,1,.08.56l-2,2.36a.39.39,0,0,1-.56.08,9.3,9.3,0,0,0-5-1.6c-1.92,0-2.92.84-2.92,2s.68,1.8,3.16,2l2.08.2c4,.4,5.95,2.48,5.95,5.64,0,3.84-2.8,6.51-8.07,6.51A12,12,0,0,1,192.18,62.6Z"/><path d="M212.1,60.28a15,15,0,0,1-.68-4.72,15.36,15.36,0,0,1,.64-4.76c1.08-3.36,4-5.32,7.88-5.32s6.83,2,7.91,5.32a17.27,17.27,0,0,1,.64,5.8.39.39,0,0,1-.44.4H216.18a.21.21,0,0,0-.24.24,4.48,4.48,0,0,0,.27,1.48,4.22,4.22,0,0,0,4.33,2.91,5.8,5.8,0,0,0,4.51-1.83.41.41,0,0,1,.6-.08L228,61.79a.37.37,0,0,1,0,.57,10.16,10.16,0,0,1-7.92,3.27C216.06,65.63,213.18,63.63,212.1,60.28Zm11.63-8.52a4.11,4.11,0,0,0-7.55,0,4.89,4.89,0,0,0-.24,1.64.21.21,0,0,0,.24.24h7.55a.21.21,0,0,0,.24-.24A4.89,4.89,0,0,0,223.73,51.76Z"/><path d="M244.69,65.2a.38.38,0,0,1-.4-.41V53.68c0-2.48-1.24-4.2-3.64-4.2S237,51.2,237,53.68V64.79a.38.38,0,0,1-.39.41H232.9a.38.38,0,0,1-.4-.41V46.32a.38.38,0,0,1,.4-.4h3.68a.38.38,0,0,1,.39.4v1.4H237a6,6,0,0,1,5.07-2.24c4.12,0,6.68,3,6.68,7.16V64.79a.38.38,0,0,1-.4.41Z"/><path d="M259.25,65.43c-3.87,0-5.35-1.88-5.35-5.63V49.64a.21.21,0,0,0-.24-.24h-1.28a.38.38,0,0,1-.4-.4V46.32a.38.38,0,0,1,.4-.4h1.28a.21.21,0,0,0,.24-.24V40.4a.37.37,0,0,1,.39-.4H258a.39.39,0,0,1,.41.4v5.28a.21.21,0,0,0,.23.24h2.56a.38.38,0,0,1,.4.4V49a.38.38,0,0,1-.4.4h-2.56a.21.21,0,0,0-.23.24v10c0,1.36.55,1.8,1.79,1.8h1a.38.38,0,0,1,.4.4V65a.37.37,0,0,1-.4.39Z"/><path d="M277.13,65.2a.38.38,0,0,1-.4-.41v-1.4h0c-.92,1.32-2.72,2.24-5.44,2.24-3.52,0-6.47-1.84-6.47-5.87,0-4.2,3-6.12,7.71-6.12h3.92a.21.21,0,0,0,.24-.24v-.92c0-2.2-1-3.2-4.28-3.2A6.76,6.76,0,0,0,268,50.6a.36.36,0,0,1-.56-.08l-1.48-2.64a.38.38,0,0,1,.08-.52,11.25,11.25,0,0,1,6.84-1.88c5.88,0,8,2,8,6.72V64.79a.38.38,0,0,1-.4.41Zm-.48-6.48V57.24a.21.21,0,0,0-.24-.24h-3.2c-2.88,0-4.16.8-4.16,2.6,0,1.6,1.16,2.4,3.32,2.4C275.13,62,276.65,60.92,276.65,58.72Z"/><path d="M286.17,65.2a.38.38,0,0,1-.39-.41V46.32a.38.38,0,0,1,.39-.4h3.68a.38.38,0,0,1,.4.4V48h0a5.52,5.52,0,0,1,5-2.48,5.82,5.82,0,0,1,4,1.6c.2.2.24.36.08.56l-2.12,2.68a.36.36,0,0,1-.56.08,5.21,5.21,0,0,0-2.84-.92c-2.52,0-3.64,1.8-3.64,4.88V64.79a.38.38,0,0,1-.4.41Z"/><path d="M300.38,62.6a.37.37,0,0,1,0-.56l2.28-2.4a.38.38,0,0,1,.55,0,9,9,0,0,0,5.64,2.2c2.36,0,3.56-1,3.56-2.28,0-1.16-.68-1.88-3.2-2.12l-2.08-.2c-3.92-.4-5.92-2.4-5.92-5.68,0-3.72,2.68-6.08,7.48-6.08a11.69,11.69,0,0,1,7.24,2.36.4.4,0,0,1,.08.56l-2,2.36a.39.39,0,0,1-.56.08,9.31,9.31,0,0,0-5-1.6c-1.92,0-2.91.84-2.91,2s.67,1.8,3.15,2l2.08.2c4,.4,6,2.48,6,5.64,0,3.84-2.8,6.51-8.08,6.51A11.93,11.93,0,0,1,300.38,62.6Z"/><path d="M320.29,60.28a15,15,0,0,1-.67-4.72,15.4,15.4,0,0,1,.63-4.76c1.08-3.36,4-5.32,7.88-5.32s6.84,2,7.92,5.32a17.27,17.27,0,0,1,.64,5.8.39.39,0,0,1-.44.4H324.37a.21.21,0,0,0-.24.24,4.47,4.47,0,0,0,4.6,4.39,5.81,5.81,0,0,0,4.52-1.83.41.41,0,0,1,.6-.08l2.36,2.07a.37.37,0,0,1,0,.57,10.16,10.16,0,0,1-7.92,3.27C324.25,65.63,321.37,63.63,320.29,60.28Zm11.64-8.52a4.12,4.12,0,0,0-7.56,0,4.89,4.89,0,0,0-.24,1.64.21.21,0,0,0,.24.24h7.56a.21.21,0,0,0,.24-.24A4.89,4.89,0,0,0,331.93,51.76Z"/><path d="M361.21,65.2a.38.38,0,0,1-.4-.41V63.36h0c-.92,1.31-2.52,2.27-5.12,2.27-3.28,0-5.68-1.55-6.68-4.63a16.07,16.07,0,0,1-.68-5.44,16.07,16.07,0,0,1,.68-5.44c1-3.08,3.4-4.64,6.68-4.64,2.6,0,4.2,1,5.12,2.28h0V38.4a.38.38,0,0,1,.4-.4h3.68a.38.38,0,0,1,.4.4V64.79a.38.38,0,0,1-.4.41Zm-.8-6a11.37,11.37,0,0,0,.4-3.6,11.37,11.37,0,0,0-.4-3.6,3.82,3.82,0,0,0-7.16,0,11.37,11.37,0,0,0-.4,3.6,11.37,11.37,0,0,0,.4,3.6,3.83,3.83,0,0,0,7.16,0Z"/><path d="M382.17,65.2a.38.38,0,0,1-.4-.41v-1.4h0a5.91,5.91,0,0,1-5,2.24c-4.12,0-6.64-3-6.64-7.15V46.32a.38.38,0,0,1,.4-.4h3.68a.38.38,0,0,1,.4.4V57.44c0,2.48,1.16,4.19,3.6,4.19,2.28,0,3.6-1.71,3.6-4.15V46.32a.38.38,0,0,1,.4-.4h3.68a.38.38,0,0,1,.4.4V64.79a.38.38,0,0,1-.4.41Z"/><path d="M391.69,65.2a.38.38,0,0,1-.4-.41V46.32a.38.38,0,0,1,.4-.4h3.68a.38.38,0,0,1,.4.4V48h0a5.52,5.52,0,0,1,5-2.48,5.82,5.82,0,0,1,4,1.6c.2.2.24.36.08.56l-2.12,2.68a.36.36,0,0,1-.56.08,5.21,5.21,0,0,0-2.84-.92c-2.52,0-3.64,1.8-3.64,4.88V64.79a.38.38,0,0,1-.4.41Z"/><path d="M418.17,65.2a.38.38,0,0,1-.4-.41v-1.4h0c-.92,1.32-2.72,2.24-5.44,2.24-3.52,0-6.48-1.84-6.48-5.87,0-4.2,3-6.12,7.72-6.12h3.92a.21.21,0,0,0,.24-.24v-.92c0-2.2-1-3.2-4.28-3.2A6.76,6.76,0,0,0,409,50.6a.36.36,0,0,1-.56-.08L407,47.88a.37.37,0,0,1,.08-.52,11.25,11.25,0,0,1,6.84-1.88c5.88,0,8,2,8,6.72V64.79a.38.38,0,0,1-.4.41Zm-.48-6.48V57.24a.21.21,0,0,0-.24-.24h-3.2c-2.88,0-4.16.8-4.16,2.6,0,1.6,1.16,2.4,3.32,2.4C416.17,62,417.69,60.92,417.69,58.72Z"/><path d="M439,65.2a.38.38,0,0,1-.4-.41V53.68c0-2.48-1.24-4.2-3.64-4.2s-3.68,1.72-3.68,4.2V64.79a.38.38,0,0,1-.4.41h-3.68a.38.38,0,0,1-.4-.41V46.32a.38.38,0,0,1,.4-.4h3.68a.38.38,0,0,1,.4.4v1.4h0a6,6,0,0,1,5.08-2.24c4.12,0,6.68,3,6.68,7.16V64.79a.38.38,0,0,1-.4.41Z"/><path d="M453.57,65.43c-3.88,0-5.36-1.88-5.36-5.63V49.64a.21.21,0,0,0-.24-.24h-1.28a.38.38,0,0,1-.4-.4V46.32a.38.38,0,0,1,.4-.4H448a.21.21,0,0,0,.24-.24V40.4a.38.38,0,0,1,.4-.4h3.68a.38.38,0,0,1,.4.4v5.28a.21.21,0,0,0,.24.24h2.56a.38.38,0,0,1,.4.4V49a.38.38,0,0,1-.4.4h-2.56a.21.21,0,0,0-.24.24v10c0,1.36.56,1.8,1.8,1.8h1a.38.38,0,0,1,.4.4V65a.37.37,0,0,1-.4.39Z"/><path d="M459.61,60.28a15,15,0,0,1-.68-4.72,15.36,15.36,0,0,1,.64-4.76c1.08-3.36,4-5.32,7.88-5.32s6.84,2,7.92,5.32a17.27,17.27,0,0,1,.64,5.8.39.39,0,0,1-.44.4H463.69a.21.21,0,0,0-.24.24,4.47,4.47,0,0,0,4.6,4.39,5.81,5.81,0,0,0,4.52-1.83.41.41,0,0,1,.6-.08l2.36,2.07a.37.37,0,0,1,0,.57,10.16,10.16,0,0,1-7.92,3.27C463.57,65.63,460.69,63.63,459.61,60.28Zm11.64-8.52a4.12,4.12,0,0,0-7.56,0,4.89,4.89,0,0,0-.24,1.64.21.21,0,0,0,.24.24h7.56a.21.21,0,0,0,.24-.24A4.89,4.89,0,0,0,471.25,51.76Z"/><path d="M5.28,103.43c-3.76,0-5.28-1.8-5.28-5.51V76.4A.38.38,0,0,1,.4,76H4.08a.38.38,0,0,1,.4.4V97.68c0,1.32.52,1.76,1.68,1.76H7a.38.38,0,0,1,.4.4V103a.37.37,0,0,1-.4.39Z"/><path d="M10.52,98.32a14.24,14.24,0,0,1-.64-4.76,14.24,14.24,0,0,1,.64-4.76c1.08-3.36,4-5.32,8-5.32s6.84,2,7.92,5.32A14.24,14.24,0,0,1,27,93.56a14.24,14.24,0,0,1-.64,4.76c-1.08,3.36-4,5.31-7.92,5.31S11.6,101.68,10.52,98.32Zm11.56-1.2a10.89,10.89,0,0,0,.4-3.56,11,11,0,0,0-.4-3.56,3.56,3.56,0,0,0-3.6-2.52A3.61,3.61,0,0,0,14.84,90a11,11,0,0,0-.4,3.56,10.89,10.89,0,0,0,.4,3.56,3.6,3.6,0,0,0,3.64,2.51A3.55,3.55,0,0,0,22.08,97.12Z"/><path d="M29.88,100.6a.39.39,0,0,1,0-.56l2.28-2.4a.39.39,0,0,1,.56,0,8.92,8.92,0,0,0,5.64,2.2c2.36,0,3.56-1,3.56-2.28,0-1.16-.68-1.88-3.2-2.12l-2.08-.2c-3.92-.4-5.92-2.4-5.92-5.68,0-3.72,2.68-6.08,7.48-6.08a11.69,11.69,0,0,1,7.24,2.36.4.4,0,0,1,.08.56l-2,2.36a.39.39,0,0,1-.56.08,9.31,9.31,0,0,0-5-1.6c-1.92,0-2.92.84-2.92,2s.68,1.8,3.16,2l2.08.2c4,.4,6,2.48,6,5.64,0,3.84-2.8,6.51-8.08,6.51A12,12,0,0,1,29.88,100.6Z"/><path d="M64.44,103.43c-3.88,0-5.36-1.88-5.36-5.63V87.64a.21.21,0,0,0-.24-.24H57.56a.38.38,0,0,1-.4-.4V84.32a.38.38,0,0,1,.4-.4h1.28a.21.21,0,0,0,.24-.24V78.4a.38.38,0,0,1,.4-.4h3.68a.38.38,0,0,1,.4.4v5.28a.21.21,0,0,0,.24.24h2.56a.38.38,0,0,1,.4.4V87a.38.38,0,0,1-.4.4H63.8a.21.21,0,0,0-.24.24v10c0,1.36.56,1.8,1.8,1.8h1a.38.38,0,0,1,.4.4V103a.37.37,0,0,1-.4.39Z"/><path d="M71.24,103.2a.38.38,0,0,1-.4-.41V84.32a.38.38,0,0,1,.4-.4h3.68a.38.38,0,0,1,.4.4V86h0a5.52,5.52,0,0,1,5-2.48,5.82,5.82,0,0,1,4,1.6c.2.2.24.36.08.56l-2.12,2.68a.36.36,0,0,1-.56.08A5.21,5.21,0,0,0,79,87.48c-2.52,0-3.64,1.8-3.64,4.88v10.43a.38.38,0,0,1-.4.41Z"/><path d="M97.72,103.2a.38.38,0,0,1-.4-.41v-1.4h0c-.92,1.32-2.72,2.24-5.44,2.24-3.52,0-6.48-1.84-6.48-5.87,0-4.2,3-6.12,7.72-6.12H97a.21.21,0,0,0,.24-.24v-.92c0-2.2-1-3.2-4.28-3.2a6.76,6.76,0,0,0-4.4,1.32.36.36,0,0,1-.56-.08l-1.48-2.64a.37.37,0,0,1,.08-.52,11.25,11.25,0,0,1,6.84-1.88c5.88,0,8,2,8,6.72v12.59a.38.38,0,0,1-.4.41Zm-.48-6.48V95.24A.21.21,0,0,0,97,95H93.8c-2.88,0-4.16.8-4.16,2.6,0,1.6,1.16,2.4,3.32,2.4C95.72,100,97.24,98.92,97.24,96.72Z"/><path d="M105.2,100.6a.39.39,0,0,1,0-.56l2.28-2.4a.39.39,0,0,1,.56,0,8.92,8.92,0,0,0,5.64,2.2c2.36,0,3.56-1,3.56-2.28,0-1.16-.68-1.88-3.2-2.12l-2.08-.2c-3.92-.4-5.92-2.4-5.92-5.68,0-3.72,2.68-6.08,7.48-6.08a11.69,11.69,0,0,1,7.24,2.36.4.4,0,0,1,.08.56l-2,2.36a.39.39,0,0,1-.56.08,9.31,9.31,0,0,0-5-1.6c-1.92,0-2.92.84-2.92,2s.68,1.8,3.16,2l2.08.2c4,.4,6,2.48,6,5.64,0,3.84-2.8,6.51-8.08,6.51A12,12,0,0,1,105.2,100.6Z"/><path d="M130.68,103.43c-3.76,0-5.28-1.8-5.28-5.51V76.4a.38.38,0,0,1,.4-.4h3.68a.38.38,0,0,1,.4.4V97.68c0,1.32.52,1.76,1.68,1.76h.88a.38.38,0,0,1,.4.4V103a.37.37,0,0,1-.4.39Z"/><path d="M147.8,103.2a.38.38,0,0,1-.4-.41v-1.4h0c-.92,1.32-2.72,2.24-5.44,2.24-3.52,0-6.48-1.84-6.48-5.87,0-4.2,3-6.12,7.72-6.12h3.92a.21.21,0,0,0,.24-.24v-.92c0-2.2-1-3.2-4.28-3.2a6.76,6.76,0,0,0-4.4,1.32.36.36,0,0,1-.56-.08l-1.48-2.64a.37.37,0,0,1,.08-.52,11.25,11.25,0,0,1,6.84-1.88c5.88,0,8,2,8,6.72v12.59a.37.37,0,0,1-.39.41Zm-.48-6.48V95.24a.21.21,0,0,0-.24-.24h-3.2c-2.88,0-4.16.8-4.16,2.6,0,1.6,1.16,2.4,3.32,2.4C145.8,100,147.32,98.92,147.32,96.72Z"/><path d="M168.32,103.2a.38.38,0,0,1-.4-.41v-1.43h0c-.92,1.31-2.52,2.27-5.12,2.27-3.28,0-5.68-1.55-6.68-4.63a16.07,16.07,0,0,1-.68-5.44,16.07,16.07,0,0,1,.68-5.44c1-3.08,3.4-4.64,6.68-4.64,2.6,0,4.2,1,5.12,2.28h0V76.4a.38.38,0,0,1,.4-.4H172a.38.38,0,0,1,.4.4v26.39a.38.38,0,0,1-.4.41Zm-.8-6a11.37,11.37,0,0,0,.4-3.6,11.37,11.37,0,0,0-.4-3.6,3.82,3.82,0,0,0-7.16,0,11.37,11.37,0,0,0-.4,3.6,11.37,11.37,0,0,0,.4,3.6,3.83,3.83,0,0,0,7.16,0Z"/><path d="M177,98.32a14.24,14.24,0,0,1-.64-4.76A14.24,14.24,0,0,1,177,88.8c1.08-3.36,4-5.32,8-5.32s6.84,2,7.92,5.32a14.27,14.27,0,0,1,.63,4.76,14.27,14.27,0,0,1-.63,4.76c-1.08,3.36-4,5.31-7.92,5.31S178.12,101.68,177,98.32Zm11.56-1.2a10.89,10.89,0,0,0,.4-3.56,11,11,0,0,0-.4-3.56,3.56,3.56,0,0,0-3.6-2.52A3.61,3.61,0,0,0,181.36,90a11,11,0,0,0-.4,3.56,10.89,10.89,0,0,0,.4,3.56A3.6,3.6,0,0,0,185,99.63,3.55,3.55,0,0,0,188.6,97.12Z"/><path d="M196.4,100.6a.39.39,0,0,1,0-.56l2.28-2.4a.39.39,0,0,1,.56,0,8.92,8.92,0,0,0,5.64,2.2c2.36,0,3.56-1,3.56-2.28,0-1.16-.68-1.88-3.2-2.12l-2.08-.2c-3.92-.4-5.92-2.4-5.92-5.68,0-3.72,2.68-6.08,7.48-6.08A11.69,11.69,0,0,1,212,85.84a.4.4,0,0,1,.08.56l-2,2.36a.39.39,0,0,1-.56.08,9.31,9.31,0,0,0-5-1.6c-1.92,0-2.92.84-2.92,2s.68,1.8,3.16,2l2.08.2c4,.4,6,2.48,6,5.64,0,3.84-2.8,6.51-8.08,6.51A12,12,0,0,1,196.4,100.6Z"/><path d="M224.92,98.32a14.24,14.24,0,0,1-.64-4.76,14.24,14.24,0,0,1,.64-4.76c1.08-3.36,4-5.32,8-5.32s6.83,2,7.91,5.32a14.24,14.24,0,0,1,.64,4.76,14.24,14.24,0,0,1-.64,4.76c-1.08,3.36-4,5.31-7.91,5.31S226,101.68,224.92,98.32Zm11.55-1.2a10.85,10.85,0,0,0,.41-3.56,11,11,0,0,0-.41-3.56,3.54,3.54,0,0,0-3.59-2.52A3.61,3.61,0,0,0,229.24,90a11,11,0,0,0-.4,3.56,10.89,10.89,0,0,0,.4,3.56,3.6,3.6,0,0,0,3.64,2.51A3.53,3.53,0,0,0,236.47,97.12Z"/><path d="M265.55,103.2a.38.38,0,0,1-.4-.41v-1.4h0c-.92,1.32-2.72,2.24-5.44,2.24-3.52,0-6.48-1.84-6.48-5.87,0-4.2,3-6.12,7.72-6.12h3.91c.17,0,.24-.08.24-.24v-.92c0-2.2-1-3.2-4.28-3.2a6.75,6.75,0,0,0-4.39,1.32.36.36,0,0,1-.56-.08l-1.48-2.64a.37.37,0,0,1,.08-.52,11.25,11.25,0,0,1,6.84-1.88c5.87,0,8,2,8,6.72v12.59a.38.38,0,0,1-.4.41Zm-.48-6.48V95.24c0-.16-.07-.24-.24-.24h-3.2c-2.87,0-4.15.8-4.15,2.6,0,1.6,1.16,2.4,3.31,2.4C263.55,100,265.07,98.92,265.07,96.72Z"/><path d="M279.4,103.43c-3.76,0-5.28-1.8-5.28-5.51V76.4a.38.38,0,0,1,.4-.4h3.68a.38.38,0,0,1,.4.4V97.68c0,1.32.52,1.76,1.68,1.76h.88a.38.38,0,0,1,.39.4V103a.37.37,0,0,1-.39.39Z"/><path d="M305.55,103.2a.38.38,0,0,1-.4-.41v-1.43h0c-.92,1.31-2.52,2.27-5.12,2.27-3.28,0-5.67-1.55-6.67-4.63a16.07,16.07,0,0,1-.68-5.44,16.07,16.07,0,0,1,.68-5.44c1-3.08,3.39-4.64,6.67-4.64,2.6,0,4.2,1,5.12,2.28h0V76.4a.38.38,0,0,1,.4-.4h3.68a.38.38,0,0,1,.4.4v26.39a.38.38,0,0,1-.4.41Zm-.8-6a11.37,11.37,0,0,0,.4-3.6,11.37,11.37,0,0,0-.4-3.6,3.82,3.82,0,0,0-7.16,0,11.43,11.43,0,0,0-.39,3.6,11.43,11.43,0,0,0,.39,3.6,3.83,3.83,0,0,0,7.16,0Z"/><path d="M314.32,98.28a15,15,0,0,1-.68-4.72,15.36,15.36,0,0,1,.64-4.76c1.08-3.36,4-5.32,7.87-5.32s6.84,2,7.92,5.32a17.27,17.27,0,0,1,.64,5.8.39.39,0,0,1-.44.4H318.39a.21.21,0,0,0-.24.24,4.48,4.48,0,0,0,.28,1.48,4.2,4.2,0,0,0,4.32,2.91,5.81,5.81,0,0,0,4.52-1.83.41.41,0,0,1,.6-.08l2.36,2.07a.37.37,0,0,1,0,.57,10.16,10.16,0,0,1-7.92,3.27C318.28,103.63,315.39,101.63,314.32,98.28ZM326,89.76a4.12,4.12,0,0,0-7.56,0,4.89,4.89,0,0,0-.24,1.64.21.21,0,0,0,.24.24H326a.21.21,0,0,0,.24-.24A4.89,4.89,0,0,0,326,89.76Z"/><path d="M333.56,100.6a.39.39,0,0,1,0-.56l2.28-2.4a.38.38,0,0,1,.55,0,9,9,0,0,0,5.64,2.2c2.36,0,3.56-1,3.56-2.28,0-1.16-.68-1.88-3.2-2.12l-2.08-.2c-3.92-.4-5.91-2.4-5.91-5.68,0-3.72,2.68-6.08,7.47-6.08a11.69,11.69,0,0,1,7.24,2.36.4.4,0,0,1,.08.56l-2,2.36a.39.39,0,0,1-.56.08,9.31,9.31,0,0,0-5-1.6c-1.92,0-2.92.84-2.92,2s.68,1.8,3.16,2l2.08.2c4,.4,6,2.48,6,5.64,0,3.84-2.8,6.51-8.08,6.51A12,12,0,0,1,333.56,100.6Z"/><path d="M365.31,103.2a.38.38,0,0,1-.4-.41v-1.4h0c-.92,1.32-2.72,2.24-5.44,2.24-3.52,0-6.47-1.84-6.47-5.87,0-4.2,3-6.12,7.71-6.12h3.92a.21.21,0,0,0,.24-.24v-.92c0-2.2-1-3.2-4.28-3.2a6.76,6.76,0,0,0-4.4,1.32.36.36,0,0,1-.56-.08l-1.48-2.64a.38.38,0,0,1,.08-.52A11.25,11.25,0,0,1,361,83.48c5.88,0,8,2,8,6.72v12.59a.38.38,0,0,1-.4.41Zm-.48-6.48V95.24a.21.21,0,0,0-.24-.24h-3.2c-2.88,0-4.16.8-4.16,2.6,0,1.6,1.16,2.4,3.32,2.4C363.31,100,364.83,98.92,364.83,96.72Z"/><path d="M374.35,103.2a.38.38,0,0,1-.39-.41V84.32a.38.38,0,0,1,.39-.4H378a.38.38,0,0,1,.4.4V86h0a5.52,5.52,0,0,1,5-2.48,5.82,5.82,0,0,1,4,1.6c.2.2.24.36.08.56l-2.12,2.68a.36.36,0,0,1-.56.08,5.21,5.21,0,0,0-2.84-.92c-2.52,0-3.64,1.8-3.64,4.88v10.43a.38.38,0,0,1-.4.41Z"/><path d="M390.47,103.2a.38.38,0,0,1-.4-.41V84.32a.38.38,0,0,1,.4-.4h3.68a.38.38,0,0,1,.4.4V86h0a5.52,5.52,0,0,1,5-2.48,5.82,5.82,0,0,1,4,1.6c.2.2.24.36.08.56l-2.12,2.68a.36.36,0,0,1-.56.08,5.21,5.21,0,0,0-2.84-.92c-2.52,0-3.64,1.8-3.64,4.88v10.43a.38.38,0,0,1-.4.41Z"/><path d="M405.39,98.32a14.24,14.24,0,0,1-.64-4.76,14.24,14.24,0,0,1,.64-4.76c1.08-3.36,4-5.32,8-5.32s6.84,2,7.92,5.32a14.24,14.24,0,0,1,.64,4.76,14.24,14.24,0,0,1-.64,4.76c-1.08,3.36-4,5.31-7.92,5.31S406.47,101.68,405.39,98.32ZM417,97.12a10.89,10.89,0,0,0,.4-3.56A11,11,0,0,0,417,90a3.56,3.56,0,0,0-3.6-2.52A3.61,3.61,0,0,0,409.71,90a11,11,0,0,0-.4,3.56,10.89,10.89,0,0,0,.4,3.56,3.6,3.6,0,0,0,3.64,2.51A3.55,3.55,0,0,0,417,97.12Z"/><path d="M431.11,103.43c-3.76,0-5.28-1.8-5.28-5.51V76.4a.38.38,0,0,1,.4-.4h3.68a.38.38,0,0,1,.4.4V97.68c0,1.32.52,1.76,1.68,1.76h.88a.38.38,0,0,1,.4.4V103a.37.37,0,0,1-.4.39Z"/><path d="M441.83,103.43c-3.76,0-5.28-1.8-5.28-5.51V76.4a.38.38,0,0,1,.4-.4h3.68a.38.38,0,0,1,.4.4V97.68c0,1.32.52,1.76,1.68,1.76h.88a.38.38,0,0,1,.4.4V103a.37.37,0,0,1-.4.39Z"/><path d="M459,103.2a.38.38,0,0,1-.4-.41v-1.4h0c-.92,1.32-2.72,2.24-5.44,2.24-3.52,0-6.48-1.84-6.48-5.87,0-4.2,3-6.12,7.72-6.12h3.92a.21.21,0,0,0,.24-.24v-.92c0-2.2-1-3.2-4.28-3.2a6.76,6.76,0,0,0-4.4,1.32.36.36,0,0,1-.56-.08l-1.48-2.64a.37.37,0,0,1,.08-.52,11.25,11.25,0,0,1,6.84-1.88c5.88,0,8,2,8,6.72v12.59a.38.38,0,0,1-.4.41Zm-.48-6.48V95.24a.21.21,0,0,0-.24-.24H455c-2.88,0-4.16.8-4.16,2.6,0,1.6,1.16,2.4,3.32,2.4C457,100,458.47,98.92,458.47,96.72Z"/><path d="M468,103.2a.38.38,0,0,1-.4-.41V84.32a.38.38,0,0,1,.4-.4h3.68a.38.38,0,0,1,.4.4V86h0a5.52,5.52,0,0,1,5-2.48,5.82,5.82,0,0,1,4,1.6c.2.2.24.36.08.56l-2.12,2.68a.36.36,0,0,1-.56.08,5.21,5.21,0,0,0-2.84-.92c-2.52,0-3.64,1.8-3.64,4.88v10.43a.38.38,0,0,1-.4.41Z"/><path d="M16.78,141.43c-3.76,0-5.28-1.8-5.28-5.51V114.4a.38.38,0,0,1,.4-.4h3.68a.38.38,0,0,1,.4.4v21.28c0,1.32.52,1.76,1.68,1.76h.88a.38.38,0,0,1,.4.4V141a.37.37,0,0,1-.4.39Z"/><path d="M33.9,141.2a.38.38,0,0,1-.4-.41v-1.4h0c-.92,1.32-2.72,2.24-5.44,2.24-3.52,0-6.48-1.84-6.48-5.87,0-4.2,3-6.12,7.72-6.12h3.92a.21.21,0,0,0,.24-.24v-.92c0-2.2-1-3.2-4.28-3.2a6.76,6.76,0,0,0-4.4,1.32.36.36,0,0,1-.56-.08l-1.48-2.64a.37.37,0,0,1,.08-.52,11.25,11.25,0,0,1,6.84-1.88c5.88,0,8,2,8,6.72v12.59a.38.38,0,0,1-.4.41Zm-.48-6.48v-1.48a.21.21,0,0,0-.24-.24H30c-2.88,0-4.16.8-4.16,2.6,0,1.6,1.16,2.4,3.32,2.4C31.9,138,33.42,136.92,33.42,134.72Z"/><path d="M47.06,139.36h0v1.43a.38.38,0,0,1-.4.41H42.94a.38.38,0,0,1-.4-.41V114.4a.38.38,0,0,1,.4-.4h3.68a.38.38,0,0,1,.4.4v9.36h0c.92-1.32,2.52-2.28,5.12-2.28,3.28,0,5.68,1.56,6.68,4.64a16.07,16.07,0,0,1,.68,5.44,16.07,16.07,0,0,1-.68,5.44c-1,3.08-3.4,4.63-6.68,4.63C49.58,141.63,48,140.67,47.06,139.36Zm7.52-4.2a16.4,16.4,0,0,0,0-7.2A3.45,3.45,0,0,0,51,125.48a3.47,3.47,0,0,0-3.6,2.48,16.4,16.4,0,0,0,0,7.2,3.46,3.46,0,0,0,3.6,2.47A3.44,3.44,0,0,0,54.58,135.16Z"/><path d="M63.14,136.32a18,18,0,0,1,0-9.52c1.08-3.36,4-5.32,8-5.32s6.84,2,7.92,5.32a18,18,0,0,1,0,9.52c-1.08,3.36-4,5.31-7.92,5.31S64.22,139.68,63.14,136.32Zm11.56-1.2a10.89,10.89,0,0,0,.4-3.56,11,11,0,0,0-.4-3.56,3.56,3.56,0,0,0-3.6-2.52A3.61,3.61,0,0,0,67.46,128a11,11,0,0,0-.4,3.56,10.89,10.89,0,0,0,.4,3.56,3.6,3.6,0,0,0,3.64,2.51A3.55,3.55,0,0,0,74.7,135.12Z"/><path d="M84.06,141.2a.38.38,0,0,1-.4-.41V122.32a.38.38,0,0,1,.4-.4h3.68a.38.38,0,0,1,.4.4V124h0a5.52,5.52,0,0,1,5-2.48,5.82,5.82,0,0,1,4,1.6c.2.2.24.36.08.56l-2.12,2.68a.36.36,0,0,1-.56.08,5.21,5.21,0,0,0-2.84-.92c-2.52,0-3.64,1.8-3.64,4.88v10.43a.38.38,0,0,1-.4.41Z"/><path d="M99,136.28a15,15,0,0,1-.68-4.72A15.36,15.36,0,0,1,99,126.8c1.08-3.36,4-5.32,7.88-5.32s6.84,2,7.92,5.32a17.27,17.27,0,0,1,.64,5.8.39.39,0,0,1-.44.4H103.1a.21.21,0,0,0-.24.24,4.47,4.47,0,0,0,4.6,4.39A5.81,5.81,0,0,0,112,135.8a.41.41,0,0,1,.6-.08l2.36,2.07a.37.37,0,0,1,0,.57,10.16,10.16,0,0,1-7.92,3.27C103,141.63,100.1,139.63,99,136.28Zm11.64-8.52a4.12,4.12,0,0,0-7.56,0,4.89,4.89,0,0,0-.24,1.64.21.21,0,0,0,.24.24h7.56a.21.21,0,0,0,.24-.24A4.89,4.89,0,0,0,110.66,127.76Z"/><path d="M118.26,138.6a.39.39,0,0,1,0-.56l2.28-2.4a.39.39,0,0,1,.56,0,8.92,8.92,0,0,0,5.64,2.2c2.36,0,3.56-1,3.56-2.28,0-1.16-.68-1.88-3.2-2.12l-2.08-.2c-3.92-.4-5.92-2.4-5.92-5.68,0-3.72,2.68-6.08,7.48-6.08a11.69,11.69,0,0,1,7.24,2.36.4.4,0,0,1,.08.56l-2,2.36a.39.39,0,0,1-.56.08,9.31,9.31,0,0,0-5-1.6c-1.92,0-2.92.84-2.92,2s.68,1.8,3.16,2l2.08.2c4,.4,6,2.48,6,5.64,0,3.84-2.8,6.51-8.08,6.51A12,12,0,0,1,118.26,138.6Z"/><path d="M144.06,148.39a.38.38,0,0,1-.4-.4v-3.2a.38.38,0,0,1,.4-.4h.88c1.6,0,2.24-.51,2.24-2.27v-19.8a.38.38,0,0,1,.4-.4h3.68a.38.38,0,0,1,.4.4V142c0,4.43-2.28,6.35-6.48,6.35Zm3.52-30.11a.38.38,0,0,1-.4-.4V114.4a.38.38,0,0,1,.4-.4h3.68a.38.38,0,0,1,.4.4v3.48a.38.38,0,0,1-.4.4Z"/><path d="M168.54,141.2a.38.38,0,0,1-.41-.41v-1.4h0a5.89,5.89,0,0,1-5,2.24c-4.12,0-6.64-3-6.64-7.15V122.32a.38.38,0,0,1,.4-.4h3.68a.38.38,0,0,1,.4.4v11.12c0,2.48,1.16,4.19,3.6,4.19,2.27,0,3.59-1.71,3.59-4.15V122.32a.38.38,0,0,1,.41-.4h3.67a.38.38,0,0,1,.4.4v18.47a.38.38,0,0,1-.4.41Z"/><path d="M189.86,141.2a.38.38,0,0,1-.4-.41V129.68c0-2.48-1.25-4.2-3.64-4.2s-3.68,1.72-3.68,4.2v11.11a.38.38,0,0,1-.4.41h-3.68a.38.38,0,0,1-.4-.41V122.32a.38.38,0,0,1,.4-.4h3.68a.38.38,0,0,1,.4.4v1.4h0a6,6,0,0,1,5.08-2.24c4.12,0,6.67,3,6.67,7.16v12.15a.38.38,0,0,1-.4.41Z"/><path d="M204.42,141.43c-3.88,0-5.36-1.88-5.36-5.63V125.64a.21.21,0,0,0-.24-.24h-1.28a.38.38,0,0,1-.4-.4v-2.68a.38.38,0,0,1,.4-.4h1.28a.21.21,0,0,0,.24-.24V116.4a.38.38,0,0,1,.4-.4h3.68a.38.38,0,0,1,.4.4v5.28a.21.21,0,0,0,.24.24h2.55a.38.38,0,0,1,.41.4V125a.38.38,0,0,1-.41.4h-2.55a.21.21,0,0,0-.24.24v10c0,1.36.56,1.8,1.8,1.8h1a.38.38,0,0,1,.41.4V141a.37.37,0,0,1-.41.39Z"/><path d="M210.42,136.32a18,18,0,0,1,0-9.52c1.08-3.36,4-5.32,8-5.32s6.83,2,7.91,5.32a18,18,0,0,1,0,9.52c-1.08,3.36-4,5.31-7.91,5.31S211.5,139.68,210.42,136.32Zm11.55-1.2a10.89,10.89,0,0,0,.4-3.56A11,11,0,0,0,222,128a3.56,3.56,0,0,0-3.59-2.52,3.6,3.6,0,0,0-3.64,2.52,11,11,0,0,0-.4,3.56,10.89,10.89,0,0,0,.4,3.56,3.59,3.59,0,0,0,3.64,2.51A3.55,3.55,0,0,0,222,135.12Z"/><path d="M251.05,141.2a.38.38,0,0,1-.4-.41v-1.4h0c-.92,1.32-2.72,2.24-5.44,2.24-3.52,0-6.47-1.84-6.47-5.87,0-4.2,3-6.12,7.71-6.12h3.92a.21.21,0,0,0,.24-.24v-.92c0-2.2-1-3.2-4.28-3.2a6.76,6.76,0,0,0-4.4,1.32.36.36,0,0,1-.56-.08l-1.47-2.64a.37.37,0,0,1,.08-.52,11.24,11.24,0,0,1,6.83-1.88c5.88,0,8,2,8,6.72v12.59a.38.38,0,0,1-.4.41Zm-.48-6.48v-1.48a.21.21,0,0,0-.24-.24h-3.2c-2.88,0-4.16.8-4.16,2.6,0,1.6,1.16,2.4,3.32,2.4C249.05,138,250.57,136.92,250.57,134.72Z"/><path d="M273.53,141.2a.52.52,0,0,1-.52-.41l-6.8-18.47c-.08-.24.08-.4.33-.4h3.92a.5.5,0,0,1,.47.4l4.24,12.52h.08l4.16-12.52a.51.51,0,0,1,.48-.4h3.84c.24,0,.4.16.32.4l-6.8,18.47a.52.52,0,0,1-.52.41Z"/><path d="M287.37,141.2a.38.38,0,0,1-.4-.41V122.32a.38.38,0,0,1,.4-.4h3.68a.38.38,0,0,1,.4.4v18.47a.38.38,0,0,1-.4.41Zm.4-22.2c-.24,0-.36-.16-.24-.4l3-5a.76.76,0,0,1,.72-.4h3.64c.24,0,.36.2.2.4l-3.8,5a.93.93,0,0,1-.8.4Z"/><path d="M308,141.2a.38.38,0,0,1-.4-.41v-1.4h0c-.92,1.32-2.72,2.24-5.44,2.24-3.52,0-6.48-1.84-6.48-5.87,0-4.2,3-6.12,7.72-6.12h3.92a.21.21,0,0,0,.24-.24v-.92c0-2.2-1-3.2-4.28-3.2a6.76,6.76,0,0,0-4.4,1.32.36.36,0,0,1-.56-.08l-1.48-2.64a.37.37,0,0,1,.08-.52,11.25,11.25,0,0,1,6.84-1.88c5.88,0,8,2,8,6.72v12.59a.38.38,0,0,1-.4.41Zm-.48-6.48v-1.48a.21.21,0,0,0-.24-.24h-3.2c-2.88,0-4.16.8-4.16,2.6,0,1.6,1.16,2.4,3.32,2.4C306,138,307.49,136.92,307.49,134.72Z"/><path d="M315.45,138.6a.39.39,0,0,1,0-.56l2.28-2.4a.39.39,0,0,1,.56,0,8.92,8.92,0,0,0,5.64,2.2c2.36,0,3.56-1,3.56-2.28,0-1.16-.68-1.88-3.2-2.12l-2.08-.2c-3.92-.4-5.92-2.4-5.92-5.68,0-3.72,2.68-6.08,7.48-6.08a11.69,11.69,0,0,1,7.24,2.36.4.4,0,0,1,.08.56l-2,2.36a.39.39,0,0,1-.56.08,9.31,9.31,0,0,0-5-1.6c-1.92,0-2.92.84-2.92,2s.68,1.8,3.16,2l2.08.2c4,.4,6,2.48,6,5.64,0,3.84-2.8,6.51-8.08,6.51A12,12,0,0,1,315.45,138.6Z"/><path d="M344,136.32a18,18,0,0,1,0-9.52c1.08-3.36,4-5.32,8-5.32s6.84,2,7.92,5.32a18,18,0,0,1,0,9.52c-1.08,3.36-4,5.31-7.92,5.31S345.05,139.68,344,136.32Zm11.56-1.2a10.89,10.89,0,0,0,.4-3.56,11,11,0,0,0-.4-3.56,3.56,3.56,0,0,0-3.6-2.52,3.61,3.61,0,0,0-3.64,2.52,11,11,0,0,0-.4,3.56,10.89,10.89,0,0,0,.4,3.56,3.6,3.6,0,0,0,3.64,2.51A3.55,3.55,0,0,0,355.53,135.12Z"/><path d="M372.69,141.2a.38.38,0,0,1-.4-.41v-2.91a.65.65,0,0,1,.12-.4l9.84-11.56v-.08h-9a.38.38,0,0,1-.4-.4v-3.12a.38.38,0,0,1,.4-.4h13.92a.38.38,0,0,1,.4.4v3.12a.6.6,0,0,1-.12.4l-9.72,11.36v.08h9.44a.38.38,0,0,1,.4.4v3.11a.38.38,0,0,1-.4.41Z"/><path d="M391.33,136.32a18,18,0,0,1,0-9.52c1.08-3.36,4-5.32,8-5.32s6.84,2,7.92,5.32a18,18,0,0,1,0,9.52c-1.08,3.36-4,5.31-7.92,5.31S392.41,139.68,391.33,136.32Zm11.56-1.2a10.89,10.89,0,0,0,.4-3.56,11,11,0,0,0-.4-3.56,3.56,3.56,0,0,0-3.6-2.52,3.61,3.61,0,0,0-3.64,2.52,11,11,0,0,0-.4,3.56,10.89,10.89,0,0,0,.4,3.56,3.6,3.6,0,0,0,3.64,2.51A3.55,3.55,0,0,0,402.89,135.12Z"/><path d="M424.05,141.2a.38.38,0,0,1-.4-.41V129.68c0-2.48-1.24-4.2-3.64-4.2s-3.68,1.72-3.68,4.2v11.11a.38.38,0,0,1-.4.41h-3.68a.38.38,0,0,1-.4-.41V122.32a.38.38,0,0,1,.4-.4h3.68a.38.38,0,0,1,.4.4v1.4h0a6,6,0,0,1,5.08-2.24c4.12,0,6.68,3,6.68,7.16v12.15a.38.38,0,0,1-.4.41Z"/><path d="M444.45,141.2a.38.38,0,0,1-.4-.41v-1.4h0c-.92,1.32-2.72,2.24-5.44,2.24-3.52,0-6.48-1.84-6.48-5.87,0-4.2,3-6.12,7.72-6.12h3.92a.21.21,0,0,0,.24-.24v-.92c0-2.2-1-3.2-4.28-3.2a6.76,6.76,0,0,0-4.4,1.32.36.36,0,0,1-.56-.08l-1.48-2.64a.37.37,0,0,1,.08-.52,11.25,11.25,0,0,1,6.84-1.88c5.88,0,8,2,8,6.72v12.59a.38.38,0,0,1-.4.41Zm-.48-6.48v-1.48a.21.21,0,0,0-.24-.24h-3.2c-2.88,0-4.16.8-4.16,2.6,0,1.6,1.16,2.4,3.32,2.4C442.45,138,444,136.92,444,134.72Z"/><path d="M451.93,138.6a.39.39,0,0,1,0-.56l2.28-2.4a.39.39,0,0,1,.56,0,8.92,8.92,0,0,0,5.64,2.2c2.36,0,3.56-1,3.56-2.28,0-1.16-.68-1.88-3.2-2.12l-2.08-.2c-3.92-.4-5.92-2.4-5.92-5.68,0-3.72,2.68-6.08,7.48-6.08a11.69,11.69,0,0,1,7.24,2.36.4.4,0,0,1,.08.56l-2,2.36a.39.39,0,0,1-.56.08,9.31,9.31,0,0,0-5-1.6c-1.92,0-2.92.84-2.92,2s.68,1.8,3.16,2l2.08.2c4,.4,6,2.48,6,5.64,0,3.84-2.8,6.51-8.08,6.51A12,12,0,0,1,451.93,138.6Z"/><path d="M145.8,179.2a.52.52,0,0,1-.52-.41l-6.8-18.47c-.08-.24.08-.4.32-.4h3.92a.51.51,0,0,1,.48.4l4.24,12.52h.08l4.16-12.52a.51.51,0,0,1,.48-.4H156c.24,0,.39.16.31.4l-6.79,18.47a.52.52,0,0,1-.52.41Z"/><path d="M158.64,174.28a15,15,0,0,1-.68-4.72,15.36,15.36,0,0,1,.64-4.76c1.08-3.36,4-5.32,7.88-5.32s6.84,2,7.92,5.32a17.27,17.27,0,0,1,.64,5.8.39.39,0,0,1-.44.4H162.72a.21.21,0,0,0-.24.24,4.47,4.47,0,0,0,4.6,4.39,5.81,5.81,0,0,0,4.52-1.83.41.41,0,0,1,.6-.08l2.36,2.07a.37.37,0,0,1,0,.57,10.16,10.16,0,0,1-7.92,3.27C162.6,179.63,159.72,177.63,158.64,174.28Zm11.64-8.52a4.12,4.12,0,0,0-7.56,0,4.89,4.89,0,0,0-.24,1.64.21.21,0,0,0,.24.24h7.56a.21.21,0,0,0,.24-.24A4.89,4.89,0,0,0,170.28,165.76Z"/><path d="M191.24,179.2a.38.38,0,0,1-.4-.41V167.68c0-2.48-1.24-4.2-3.64-4.2s-3.68,1.72-3.68,4.2v11.11a.38.38,0,0,1-.4.41h-3.68a.38.38,0,0,1-.4-.41V152.4a.38.38,0,0,1,.4-.4h3.68a.38.38,0,0,1,.4.4v9.32h0a6,6,0,0,1,5.08-2.24c4.12,0,6.67,3,6.67,7.16v12.15a.38.38,0,0,1-.39.41Z"/><path d="M200.56,156.28a.38.38,0,0,1-.4-.4V152.4a.38.38,0,0,1,.4-.4h3.68a.38.38,0,0,1,.4.4v3.48a.38.38,0,0,1-.4.4Zm0,22.92a.38.38,0,0,1-.4-.41V160.32a.38.38,0,0,1,.4-.4h3.68a.38.38,0,0,1,.4.4v18.47a.38.38,0,0,1-.4.41Z"/><path d="M209.24,174.32a19.18,19.18,0,0,1,0-9.52c1.12-3.44,4.08-5.32,8-5.32a8.41,8.41,0,0,1,6.68,3,.4.4,0,0,1,0,.56l-2.52,2.2a.36.36,0,0,1-.56-.08,4.36,4.36,0,0,0-3.55-1.68,3.54,3.54,0,0,0-3.6,2.52,11.33,11.33,0,0,0-.4,3.56,11.6,11.6,0,0,0,.4,3.6,3.55,3.55,0,0,0,3.6,2.47,4.35,4.35,0,0,0,3.55-1.67.36.36,0,0,1,.56,0l2.52,2.2c.2.16.16.35,0,.56a8.53,8.53,0,0,1-6.68,2.95C213.32,179.63,210.36,177.75,209.24,174.32Z"/><path d="M239.71,179.2a.38.38,0,0,1-.4-.41v-1.4h0a5.91,5.91,0,0,1-5,2.24c-4.12,0-6.64-3-6.64-7.15V160.32a.38.38,0,0,1,.4-.4h3.68a.38.38,0,0,1,.4.4v11.12c0,2.48,1.16,4.19,3.59,4.19,2.28,0,3.6-1.71,3.6-4.15V160.32a.38.38,0,0,1,.4-.4h3.68a.38.38,0,0,1,.4.4v18.47a.38.38,0,0,1-.4.41Z"/><path d="M254,179.43c-3.76,0-5.28-1.8-5.28-5.51V152.4a.38.38,0,0,1,.4-.4h3.68a.38.38,0,0,1,.4.4v21.28c0,1.32.52,1.76,1.68,1.76h.87a.38.38,0,0,1,.41.4V179a.37.37,0,0,1-.41.39Z"/><path d="M271.15,179.2a.38.38,0,0,1-.4-.41v-1.4h0c-.92,1.32-2.72,2.24-5.44,2.24-3.52,0-6.48-1.84-6.48-5.87,0-4.2,3-6.12,7.72-6.12h3.92a.21.21,0,0,0,.24-.24v-.92c0-2.2-1-3.2-4.28-3.2A6.73,6.73,0,0,0,262,164.6a.36.36,0,0,1-.56-.08L260,161.88a.37.37,0,0,1,.08-.52,11.22,11.22,0,0,1,6.83-1.88c5.88,0,8,2,8,6.72v12.59a.38.38,0,0,1-.4.41Zm-.48-6.48v-1.48a.21.21,0,0,0-.24-.24h-3.2c-2.88,0-4.16.8-4.16,2.6,0,1.6,1.16,2.4,3.32,2.4C269.15,176,270.67,174.92,270.67,172.72Z"/><path d="M280.2,179.2a.39.39,0,0,1-.41-.41V160.32a.39.39,0,0,1,.41-.4h3.68a.38.38,0,0,1,.4.4V162h0a5.54,5.54,0,0,1,5-2.48,5.82,5.82,0,0,1,4,1.6c.2.2.24.36.08.56l-2.12,2.68a.36.36,0,0,1-.56.08,5.21,5.21,0,0,0-2.84-.92c-2.52,0-3.63,1.8-3.63,4.88v10.43a.38.38,0,0,1-.4.41Z"/><path d="M295.15,174.28a17.22,17.22,0,0,1,0-9.48c1.08-3.36,4-5.32,7.87-5.32s6.84,2,7.92,5.32a17.27,17.27,0,0,1,.64,5.8.39.39,0,0,1-.44.4H299.23a.21.21,0,0,0-.24.24,4.47,4.47,0,0,0,4.6,4.39,5.81,5.81,0,0,0,4.52-1.83.41.41,0,0,1,.6-.08l2.36,2.07a.37.37,0,0,1,0,.57,10.16,10.16,0,0,1-7.92,3.27C299.11,179.63,296.23,177.63,295.15,174.28Zm11.64-8.52a4.12,4.12,0,0,0-7.56,0,4.89,4.89,0,0,0-.24,1.64.21.21,0,0,0,.24.24h7.56a.21.21,0,0,0,.24-.24A4.89,4.89,0,0,0,306.79,165.76Z"/><path d="M314.39,176.6a.39.39,0,0,1,0-.56l2.28-2.4a.39.39,0,0,1,.56,0,8.92,8.92,0,0,0,5.64,2.2c2.36,0,3.56-1,3.56-2.28,0-1.16-.68-1.88-3.2-2.12l-2.08-.2c-3.92-.4-5.92-2.4-5.92-5.68,0-3.72,2.68-6.08,7.48-6.08a11.69,11.69,0,0,1,7.24,2.36.4.4,0,0,1,.08.56l-2,2.36a.39.39,0,0,1-.56.08,9.31,9.31,0,0,0-5-1.6c-1.92,0-2.92.84-2.92,2s.68,1.8,3.16,2l2.08.2c4,.4,6,2.48,6,5.64,0,3.84-2.8,6.51-8.08,6.51A12,12,0,0,1,314.39,176.6Z"/><path d="M334.39,174.72a.38.38,0,0,1,.4-.4h4a.38.38,0,0,1,.4.4v4.07a.38.38,0,0,1-.4.41h-4a.38.38,0,0,1-.4-.41Z"/></g></g></svg>