<svg xmlns="http://www.w3.org/2000/svg" viewBox="0 0 321.27 65.64"><title>p2</title><g id="Capa_2" data-name="Capa 2"><g id="pregunta_vector" data-name="pregunta vector"><path d="M.4,27.2a.38.38,0,0,1-.4-.4V.4A.38.38,0,0,1,.4,0H10.6c5.28,0,9,3.4,9,8.44s-3.68,8.48-9,8.48H5a.21.21,0,0,0-.24.24V26.8a.38.38,0,0,1-.4.4ZM14.84,8.44c0-2.48-1.72-4.2-4.52-4.2H5a.21.21,0,0,0-.24.24V12.4a.21.21,0,0,0,.24.24h5.36C13.12,12.64,14.84,11,14.84,8.44Z"/><path d="M22.28,22.28a15,15,0,0,1-.68-4.72,15.36,15.36,0,0,1,.64-4.76c1.08-3.36,4-5.32,7.88-5.32S37,9.52,38,12.8a17.27,17.27,0,0,1,.64,5.8.39.39,0,0,1-.44.4H26.36a.21.21,0,0,0-.24.24,4.24,4.24,0,0,0,.28,1.48,4.21,4.21,0,0,0,4.32,2.92,5.81,5.81,0,0,0,4.52-1.84.41.41,0,0,1,.6-.08L38.2,23.8a.36.36,0,0,1,0,.56,10.16,10.16,0,0,1-7.92,3.28C26.24,27.64,23.36,25.64,22.28,22.28Zm11.64-8.52a3.74,3.74,0,0,0-3.76-2.48,3.76,3.76,0,0,0-3.8,2.48,4.89,4.89,0,0,0-.24,1.64.21.21,0,0,0,.24.24h7.56a.21.21,0,0,0,.24-.24A4.89,4.89,0,0,0,33.92,13.76Z"/><path d="M47.88,27.44c-3.76,0-5.28-1.8-5.28-5.52V.4A.38.38,0,0,1,43,0h3.68a.38.38,0,0,1,.4.4V21.68c0,1.32.52,1.76,1.68,1.76h.88a.38.38,0,0,1,.4.4V27a.38.38,0,0,1-.4.4Z"/><path d="M53.92,4.28a.38.38,0,0,1-.4-.4V.4a.38.38,0,0,1,.4-.4H57.6a.38.38,0,0,1,.4.4V3.88a.38.38,0,0,1-.4.4Zm0,22.92a.38.38,0,0,1-.4-.4V8.32a.38.38,0,0,1,.4-.4H57.6a.38.38,0,0,1,.4.4V26.8a.38.38,0,0,1-.4.4Z"/><path d="M62.64,32a.36.36,0,0,1,0-.56L65,29a.36.36,0,0,1,.6,0,6,6,0,0,0,4.2,1.79c3,0,4.32-1.6,4.32-4.59v-1.8h0c-.88,1.36-2.52,2.24-5,2.24A6.44,6.44,0,0,1,62.56,22a14.69,14.69,0,0,1-.64-4.92,14.44,14.44,0,0,1,.64-4.88,6.43,6.43,0,0,1,6.56-4.72c2.48,0,4.12.88,5,2.28h0V8.32a.38.38,0,0,1,.4-.4h3.68a.38.38,0,0,1,.4.4V26c0,5.51-3.08,8.83-9,8.83A9.54,9.54,0,0,1,62.64,32ZM73.72,20.24a9,9,0,0,0,.44-3.16,9.28,9.28,0,0,0-.44-3.16,3.62,3.62,0,0,0-6.84,0,9.28,9.28,0,0,0-.44,3.16,9,9,0,0,0,.44,3.16,3.6,3.6,0,0,0,6.84,0Z"/><path d="M84.08,27.2a.38.38,0,0,1-.4-.4V8.32a.38.38,0,0,1,.4-.4h3.68a.38.38,0,0,1,.4.4V10h0a5.52,5.52,0,0,1,5-2.48,5.82,5.82,0,0,1,4,1.6c.2.2.24.36.08.56L95.2,12.32a.36.36,0,0,1-.56.08,5.21,5.21,0,0,0-2.84-.92c-2.52,0-3.64,1.8-3.64,4.88V26.8a.38.38,0,0,1-.4.4Z"/><path d="M99,22.32a14.24,14.24,0,0,1-.64-4.76A14.24,14.24,0,0,1,99,12.8c1.08-3.36,4-5.32,8-5.32s6.84,2,7.92,5.32a14.24,14.24,0,0,1,.64,4.76,14.24,14.24,0,0,1-.64,4.76c-1.08,3.36-4,5.32-7.92,5.32S100.08,25.68,99,22.32Zm11.56-1.2a10.89,10.89,0,0,0,.4-3.56,11,11,0,0,0-.4-3.56,3.56,3.56,0,0,0-3.6-2.52A3.61,3.61,0,0,0,103.32,14a11,11,0,0,0-.4,3.56,10.89,10.89,0,0,0,.4,3.56A3.61,3.61,0,0,0,107,23.64,3.56,3.56,0,0,0,110.56,21.12Z"/><path d="M127.8,22.28a15,15,0,0,1-.68-4.72,15.36,15.36,0,0,1,.64-4.76c1.08-3.36,4-5.32,7.88-5.32s6.84,2,7.92,5.32a17.27,17.27,0,0,1,.64,5.8.39.39,0,0,1-.44.4H131.88a.21.21,0,0,0-.24.24,4.24,4.24,0,0,0,.28,1.48,4.21,4.21,0,0,0,4.32,2.92,5.81,5.81,0,0,0,4.52-1.84.41.41,0,0,1,.6-.08l2.36,2.08a.36.36,0,0,1,0,.56,10.16,10.16,0,0,1-7.92,3.28C131.76,27.64,128.88,25.64,127.8,22.28Zm11.64-8.52a4.12,4.12,0,0,0-7.56,0,4.89,4.89,0,0,0-.24,1.64.21.21,0,0,0,.24.24h7.56a.21.21,0,0,0,.24-.24A4.89,4.89,0,0,0,139.44,13.76Z"/><path d="M160.4,27.2a.38.38,0,0,1-.4-.4V15.68c0-2.48-1.24-4.2-3.64-4.2s-3.68,1.72-3.68,4.2V26.8a.38.38,0,0,1-.4.4H148.6a.38.38,0,0,1-.4-.4V8.32a.38.38,0,0,1,.4-.4h3.68a.38.38,0,0,1,.4.4v1.4h0a6,6,0,0,1,5.08-2.24c4.12,0,6.68,3,6.68,7.16V26.8a.38.38,0,0,1-.4.4Z"/><path d="M177.6,22.28a15,15,0,0,1-.68-4.72,15.36,15.36,0,0,1,.64-4.76c1.08-3.36,4-5.32,7.88-5.32s6.84,2,7.92,5.32a17.27,17.27,0,0,1,.64,5.8.39.39,0,0,1-.44.4H181.68a.21.21,0,0,0-.24.24,4.24,4.24,0,0,0,.28,1.48A4.21,4.21,0,0,0,186,23.64a5.81,5.81,0,0,0,4.52-1.84.41.41,0,0,1,.6-.08l2.36,2.08a.36.36,0,0,1,0,.56,10.16,10.16,0,0,1-7.92,3.28C181.56,27.64,178.68,25.64,177.6,22.28Zm11.64-8.52a4.12,4.12,0,0,0-7.56,0,4.89,4.89,0,0,0-.24,1.64.21.21,0,0,0,.24.24h7.56a.21.21,0,0,0,.24-.24A4.89,4.89,0,0,0,189.24,13.76Z"/><path d="M196.84,24.6a.39.39,0,0,1,0-.56l2.28-2.4a.39.39,0,0,1,.56,0,8.92,8.92,0,0,0,5.64,2.2c2.36,0,3.56-1,3.56-2.28,0-1.16-.68-1.88-3.2-2.12l-2.08-.2c-3.92-.4-5.92-2.4-5.92-5.68,0-3.72,2.68-6.08,7.48-6.08a11.69,11.69,0,0,1,7.24,2.36.4.4,0,0,1,.08.56l-2,2.36a.39.39,0,0,1-.56.08,9.31,9.31,0,0,0-5-1.6c-1.92,0-2.92.84-2.92,2s.68,1.8,3.16,2l2.08.2c4,.4,6,2.48,6,5.64,0,3.84-2.8,6.52-8.08,6.52A12,12,0,0,1,196.84,24.6Z"/><path d="M217.52,34.39a.38.38,0,0,1-.4-.4V8.32a.38.38,0,0,1,.4-.4h3.68a.38.38,0,0,1,.4.4V9.76h0c.92-1.32,2.52-2.28,5.12-2.28,3.28,0,5.68,1.56,6.68,4.64a16.11,16.11,0,0,1,.67,5.44,16.11,16.11,0,0,1-.67,5.44c-1,3.08-3.4,4.64-6.68,4.64-2.6,0-4.2-1-5.12-2.28h0V34a.38.38,0,0,1-.4.4Zm11.64-13.23a11.37,11.37,0,0,0,.4-3.6,11.37,11.37,0,0,0-.4-3.6A3.82,3.82,0,0,0,222,14a11.37,11.37,0,0,0-.4,3.6,11.37,11.37,0,0,0,.4,3.6,3.82,3.82,0,0,0,7.16,0Z"/><path d="M249.6,27.2a.38.38,0,0,1-.4-.4V25.4h0c-.92,1.32-2.72,2.24-5.44,2.24-3.52,0-6.48-1.84-6.48-5.88,0-4.2,3-6.12,7.72-6.12h3.92a.21.21,0,0,0,.24-.24v-.92c0-2.2-1-3.2-4.28-3.2a6.76,6.76,0,0,0-4.4,1.32.36.36,0,0,1-.56-.08L238.4,9.88a.37.37,0,0,1,.08-.52,11.25,11.25,0,0,1,6.84-1.88c5.87,0,8,2,8,6.72V26.8a.38.38,0,0,1-.4.4Zm-.48-6.48V19.24a.21.21,0,0,0-.24-.24h-3.2c-2.88,0-4.16.8-4.16,2.6,0,1.6,1.16,2.4,3.32,2.4C247.6,24,249.12,22.92,249.12,20.72Z"/><path d="M257.8,22.32a15.15,15.15,0,0,1-.6-4.76,15.15,15.15,0,0,1,.6-4.76c1.12-3.44,4.08-5.32,8-5.32a8.4,8.4,0,0,1,6.68,3,.39.39,0,0,1,0,.56l-2.52,2.2a.36.36,0,0,1-.56-.08,4.37,4.37,0,0,0-3.56-1.68,3.54,3.54,0,0,0-3.6,2.52,11.33,11.33,0,0,0-.4,3.56,11.6,11.6,0,0,0,.4,3.6,3.55,3.55,0,0,0,3.6,2.48A4.37,4.37,0,0,0,269.32,22a.36.36,0,0,1,.56,0l2.52,2.2c.2.16.16.36,0,.56a8.49,8.49,0,0,1-6.68,3C261.88,27.64,258.92,25.76,257.8,22.32Z"/><path d="M276.84,4.28a.38.38,0,0,1-.4-.4V.4a.38.38,0,0,1,.4-.4h3.68a.38.38,0,0,1,.4.4V3.88a.38.38,0,0,1-.4.4Zm0,22.92a.38.38,0,0,1-.4-.4V8.32a.38.38,0,0,1,.4-.4h3.68a.38.38,0,0,1,.4.4V26.8a.38.38,0,0,1-.4.4Z"/><path d="M285.56,22.32a14.24,14.24,0,0,1-.64-4.76,14.24,14.24,0,0,1,.64-4.76c1.08-3.36,4-5.32,8-5.32s6.83,2,7.91,5.32a14.24,14.24,0,0,1,.64,4.76,14.24,14.24,0,0,1-.64,4.76c-1.08,3.36-4,5.32-7.91,5.32S286.64,25.68,285.56,22.32Zm11.55-1.2a10.89,10.89,0,0,0,.4-3.56,11,11,0,0,0-.4-3.56,3.56,3.56,0,0,0-3.59-2.52A3.61,3.61,0,0,0,289.88,14a11,11,0,0,0-.4,3.56,10.89,10.89,0,0,0,.4,3.56,3.61,3.61,0,0,0,3.64,2.52A3.56,3.56,0,0,0,297.11,21.12Z"/><path d="M304.92,24.6a.39.39,0,0,1,0-.56l2.28-2.4a.39.39,0,0,1,.56,0,8.92,8.92,0,0,0,5.64,2.2c2.35,0,3.56-1,3.56-2.28,0-1.16-.69-1.88-3.2-2.12l-2.08-.2c-3.92-.4-5.92-2.4-5.92-5.68,0-3.72,2.68-6.08,7.48-6.08a11.68,11.68,0,0,1,7.23,2.36.4.4,0,0,1,.08.56l-2,2.36a.39.39,0,0,1-.56.08,9.27,9.27,0,0,0-5-1.6c-1.92,0-2.92.84-2.92,2s.68,1.8,3.16,2l2.07.2c4,.4,6,2.48,6,5.64,0,3.84-2.8,6.52-8.07,6.52A12,12,0,0,1,304.92,24.6Z"/><path d="M66.08,60.32a15.15,15.15,0,0,1-.6-4.76,15.15,15.15,0,0,1,.6-4.76c1.12-3.44,4.08-5.32,8-5.32a8.4,8.4,0,0,1,6.68,3,.39.39,0,0,1,0,.56l-2.52,2.2a.36.36,0,0,1-.56-.08A4.37,4.37,0,0,0,74,49.48,3.54,3.54,0,0,0,70.44,52a11.33,11.33,0,0,0-.4,3.56,11.6,11.6,0,0,0,.4,3.6A3.55,3.55,0,0,0,74,61.64,4.37,4.37,0,0,0,77.6,60a.36.36,0,0,1,.56,0l2.52,2.2c.2.16.16.36,0,.56a8.49,8.49,0,0,1-6.68,3C70.16,65.64,67.2,63.76,66.08,60.32Z"/><path d="M84.32,60.32a14.24,14.24,0,0,1-.64-4.76,14.24,14.24,0,0,1,.64-4.76c1.08-3.36,4-5.32,8-5.32s6.84,2,7.92,5.32a14.24,14.24,0,0,1,.64,4.76,14.24,14.24,0,0,1-.64,4.76c-1.08,3.36-4,5.32-7.92,5.32S85.4,63.68,84.32,60.32Zm11.56-1.2a10.89,10.89,0,0,0,.4-3.56,11,11,0,0,0-.4-3.56,3.56,3.56,0,0,0-3.6-2.52A3.61,3.61,0,0,0,88.64,52a11,11,0,0,0-.4,3.56,10.89,10.89,0,0,0,.4,3.56,3.61,3.61,0,0,0,3.64,2.52A3.56,3.56,0,0,0,95.88,59.12Z"/><path d="M117,65.2a.38.38,0,0,1-.4-.4V53.68c0-2.48-1.24-4.2-3.64-4.2s-3.68,1.72-3.68,4.2V64.8a.38.38,0,0,1-.4.4h-3.68a.38.38,0,0,1-.4-.4V46.32a.38.38,0,0,1,.4-.4h3.68a.38.38,0,0,1,.4.4v1.4h0a6,6,0,0,1,5.08-2.24c4.12,0,6.68,3,6.68,7.16V64.8a.38.38,0,0,1-.4.4Z"/><path d="M127,65.2a.38.38,0,0,1-.4-.4V49.64a.21.21,0,0,0-.24-.24H125a.38.38,0,0,1-.4-.4V46.32a.38.38,0,0,1,.4-.4h1.28a.21.21,0,0,0,.24-.24V44.44c0-4.48,2.2-6.44,6.4-6.44h1.76a.38.38,0,0,1,.4.4v3.2a.38.38,0,0,1-.4.4h-1.24c-2,0-2.44.48-2.44,2.36v1.32a.21.21,0,0,0,.24.24h3.44a.38.38,0,0,1,.4.4V49a.38.38,0,0,1-.4.4h-3.44a.21.21,0,0,0-.24.24V64.8a.38.38,0,0,1-.4.4Zm12.52-22.92a.38.38,0,0,1-.4-.4V38.4a.38.38,0,0,1,.4-.4h3.67a.38.38,0,0,1,.4.4v3.48a.38.38,0,0,1-.4.4Zm0,22.92a.38.38,0,0,1-.4-.4V46.32a.38.38,0,0,1,.4-.4h3.67a.38.38,0,0,1,.4.4V64.8a.38.38,0,0,1-.4.4Z"/><path d="M160.8,65.2a.38.38,0,0,1-.4-.4V53.68c0-2.48-1.24-4.2-3.64-4.2s-3.68,1.72-3.68,4.2V64.8a.38.38,0,0,1-.4.4H149a.38.38,0,0,1-.4-.4V46.32a.38.38,0,0,1,.4-.4h3.68a.38.38,0,0,1,.4.4v1.4h0a6,6,0,0,1,5.08-2.24c4.11,0,6.67,3,6.67,7.16V64.8a.38.38,0,0,1-.4.4Z"/><path d="M181.19,65.2a.38.38,0,0,1-.4-.4V63.4h0c-.92,1.32-2.71,2.24-5.43,2.24-3.52,0-6.48-1.84-6.48-5.88,0-4.2,3-6.12,7.72-6.12h3.92c.16,0,.23-.08.23-.24v-.92c0-2.2-1-3.2-4.27-3.2A6.76,6.76,0,0,0,172,50.6a.36.36,0,0,1-.56-.08L170,47.88a.37.37,0,0,1,.08-.52,11.25,11.25,0,0,1,6.84-1.88c5.87,0,8,2,8,6.72V64.8a.38.38,0,0,1-.4.4Zm-.48-6.48V57.24c0-.16-.07-.24-.23-.24h-3.2c-2.88,0-4.16.8-4.16,2.6,0,1.6,1.16,2.4,3.32,2.4C179.2,62,180.71,60.92,180.71,58.72Z"/><path d="M201.71,65.2a.38.38,0,0,1-.4-.4V63.36h0c-.92,1.32-2.51,2.28-5.11,2.28-3.28,0-5.68-1.56-6.68-4.64a16.07,16.07,0,0,1-.68-5.44,16.07,16.07,0,0,1,.68-5.44c1-3.08,3.4-4.64,6.68-4.64,2.6,0,4.19,1,5.11,2.28h0V38.4a.38.38,0,0,1,.4-.4h3.68a.38.38,0,0,1,.4.4V64.8a.38.38,0,0,1-.4.4Zm-.79-6a11.43,11.43,0,0,0,.39-3.6,11.43,11.43,0,0,0-.39-3.6,3.82,3.82,0,0,0-7.16,0,11.37,11.37,0,0,0-.4,3.6,11.37,11.37,0,0,0,.4,3.6,3.82,3.82,0,0,0,7.16,0Z"/><path d="M210.44,60.32a14.24,14.24,0,0,1-.64-4.76,14.24,14.24,0,0,1,.64-4.76c1.08-3.36,4-5.32,8-5.32s6.83,2,7.91,5.32a14.24,14.24,0,0,1,.64,4.76,14.24,14.24,0,0,1-.64,4.76c-1.08,3.36-4,5.32-7.91,5.32S211.52,63.68,210.44,60.32ZM222,59.12a10.89,10.89,0,0,0,.4-3.56A11,11,0,0,0,222,52a3.56,3.56,0,0,0-3.59-2.52A3.61,3.61,0,0,0,214.76,52a11,11,0,0,0-.4,3.56,10.89,10.89,0,0,0,.4,3.56,3.61,3.61,0,0,0,3.64,2.52A3.56,3.56,0,0,0,222,59.12Z"/><path d="M229.8,62.6a.39.39,0,0,1,0-.56l2.28-2.4a.39.39,0,0,1,.56,0,8.92,8.92,0,0,0,5.64,2.2c2.35,0,3.55-1,3.55-2.28,0-1.16-.68-1.88-3.19-2.12l-2.08-.2c-3.92-.4-5.92-2.4-5.92-5.68,0-3.72,2.68-6.08,7.48-6.08a11.68,11.68,0,0,1,7.23,2.36.4.4,0,0,1,.08.56l-2,2.36a.39.39,0,0,1-.56.08,9.3,9.3,0,0,0-5-1.6c-1.92,0-2.92.84-2.92,2s.68,1.8,3.16,2l2.07.2c4,.4,6,2.48,6,5.64,0,3.84-2.8,6.52-8.07,6.52A12,12,0,0,1,229.8,62.6Z"/><path d="M249.8,60.72a.38.38,0,0,1,.4-.4h4a.38.38,0,0,1,.41.4V64.8a.38.38,0,0,1-.41.4h-4a.38.38,0,0,1-.4-.4Z"/></g></g></svg>