<svg xmlns="http://www.w3.org/2000/svg" viewBox="0 0 648.23 110.83"><title>p3</title><g id="Capa_2" data-name="Capa 2"><g id="pregunta_vector" data-name="pregunta vector"><path d="M4.38.4a.38.38,0,0,1,.4-.4H8.7a.38.38,0,0,1,.4.4V22.72a.21.21,0,0,0,.24.24H21.82a.38.38,0,0,1,.4.4V26.8a.38.38,0,0,1-.4.4h-17a.38.38,0,0,1-.4-.4Z"/><path d="M36.78,27.2a.38.38,0,0,1-.4-.4V25.4h0c-.92,1.32-2.72,2.24-5.44,2.24-3.52,0-6.48-1.84-6.48-5.88,0-4.2,3-6.12,7.72-6.12h3.92a.21.21,0,0,0,.24-.24v-.92c0-2.2-1-3.2-4.28-3.2a6.76,6.76,0,0,0-4.4,1.32.36.36,0,0,1-.56-.08L25.58,9.88a.37.37,0,0,1,.08-.52A11.25,11.25,0,0,1,32.5,7.48c5.88,0,8,2,8,6.72V26.8a.38.38,0,0,1-.4.4Zm-.48-6.48V19.24a.21.21,0,0,0-.24-.24h-3.2c-2.88,0-4.16.8-4.16,2.6,0,1.6,1.16,2.4,3.32,2.4C34.78,24,36.3,22.92,36.3,20.72Z"/><path d="M55.06,27.2a.38.38,0,0,1-.4-.4V11.64a.21.21,0,0,0-.24-.24H53.14a.38.38,0,0,1-.4-.4V8.32a.38.38,0,0,1,.4-.4h1.28a.21.21,0,0,0,.24-.24V6.44C54.66,2,56.86,0,61.06,0h1.76a.38.38,0,0,1,.4.4V3.6a.38.38,0,0,1-.4.4H61.58c-2,0-2.44.48-2.44,2.36V7.68a.21.21,0,0,0,.24.24h3.44a.38.38,0,0,1,.4.4V11a.38.38,0,0,1-.4.4H59.38a.21.21,0,0,0-.24.24V26.8a.38.38,0,0,1-.4.4Z"/><path d="M77.86,27.2a.38.38,0,0,1-.4-.4V25.4h0c-.92,1.32-2.72,2.24-5.44,2.24-3.52,0-6.48-1.84-6.48-5.88,0-4.2,3-6.12,7.72-6.12h3.92a.21.21,0,0,0,.24-.24v-.92c0-2.2-1-3.2-4.28-3.2a6.76,6.76,0,0,0-4.4,1.32.36.36,0,0,1-.56-.08L66.66,9.88a.37.37,0,0,1,.08-.52,11.25,11.25,0,0,1,6.84-1.88c5.88,0,8,2,8,6.72V26.8a.38.38,0,0,1-.4.4Zm-.48-6.48V19.24a.21.21,0,0,0-.24-.24h-3.2c-2.88,0-4.16.8-4.16,2.6,0,1.6,1.16,2.4,3.32,2.4C75.86,24,77.38,22.92,77.38,20.72Z"/><path d="M91.7,27.44c-3.76,0-5.28-1.8-5.28-5.52V.4a.38.38,0,0,1,.4-.4H90.5a.38.38,0,0,1,.4.4V21.68c0,1.32.52,1.76,1.68,1.76h.88a.38.38,0,0,1,.4.4V27a.38.38,0,0,1-.4.4Z"/><path d="M102.66,27.44c-3.88,0-5.36-1.88-5.36-5.64V11.64a.21.21,0,0,0-.24-.24H95.78a.38.38,0,0,1-.4-.4V8.32a.38.38,0,0,1,.4-.4h1.28a.21.21,0,0,0,.24-.24V2.4a.38.38,0,0,1,.4-.4h3.68a.38.38,0,0,1,.4.4V7.68a.21.21,0,0,0,.24.24h2.56a.38.38,0,0,1,.4.4V11a.38.38,0,0,1-.4.4H102a.21.21,0,0,0-.24.24v10c0,1.36.56,1.8,1.8,1.8h1a.38.38,0,0,1,.4.4V27a.38.38,0,0,1-.4.4Z"/><path d="M120.54,27.2a.38.38,0,0,1-.4-.4V25.4h0c-.92,1.32-2.72,2.24-5.44,2.24-3.52,0-6.48-1.84-6.48-5.88,0-4.2,3-6.12,7.72-6.12h3.92a.21.21,0,0,0,.24-.24v-.92c0-2.2-1-3.2-4.28-3.2a6.76,6.76,0,0,0-4.4,1.32.36.36,0,0,1-.56-.08l-1.48-2.64a.37.37,0,0,1,.08-.52,11.25,11.25,0,0,1,6.84-1.88c5.87,0,8,2,8,6.72V26.8a.38.38,0,0,1-.4.4Zm-.48-6.48V19.24a.21.21,0,0,0-.24-.24h-3.2c-2.88,0-4.16.8-4.16,2.6,0,1.6,1.16,2.4,3.32,2.4C118.54,24,120.06,22.92,120.06,20.72Z"/><path d="M149.7,27.2a.39.39,0,0,1-.41-.4V25.36h0c-.91,1.32-2.51,2.28-5.11,2.28-3.28,0-5.68-1.56-6.68-4.64a16.07,16.07,0,0,1-.68-5.44,16.07,16.07,0,0,1,.68-5.44c1-3.08,3.4-4.64,6.68-4.64,2.6,0,4.2,1,5.11,2.28h0V.4a.39.39,0,0,1,.41-.4h3.68a.38.38,0,0,1,.39.4V26.8a.38.38,0,0,1-.39.4Zm-.81-6a11.08,11.08,0,0,0,.4-3.6,11.08,11.08,0,0,0-.4-3.6,3.82,3.82,0,0,0-7.15,0,11.37,11.37,0,0,0-.4,3.6,11.37,11.37,0,0,0,.4,3.6,3.82,3.82,0,0,0,7.15,0Z"/><path d="M158.46,22.28a15,15,0,0,1-.68-4.72,15.36,15.36,0,0,1,.64-4.76c1.08-3.36,4-5.32,7.88-5.32s6.83,2,7.91,5.32a17.27,17.27,0,0,1,.64,5.8.39.39,0,0,1-.44.4H162.54a.21.21,0,0,0-.24.24,4.24,4.24,0,0,0,.28,1.48,4.21,4.21,0,0,0,4.32,2.92,5.83,5.83,0,0,0,4.52-1.84c.2-.2.39-.24.59-.08l2.37,2.08a.36.36,0,0,1,0,.56,10.15,10.15,0,0,1-7.91,3.28C162.42,27.64,159.54,25.64,158.46,22.28Zm11.64-8.52a4.12,4.12,0,0,0-7.56,0,4.89,4.89,0,0,0-.24,1.64.21.21,0,0,0,.24.24h7.56a.21.21,0,0,0,.23-.24A5.18,5.18,0,0,0,170.1,13.76Z"/><path d="M187.1,22.32a14.24,14.24,0,0,1-.64-4.76,14.24,14.24,0,0,1,.64-4.76c1.08-3.36,4-5.32,8-5.32s6.84,2,7.92,5.32a14.24,14.24,0,0,1,.64,4.76,14.24,14.24,0,0,1-.64,4.76c-1.08,3.36-4,5.32-7.92,5.32S188.18,25.68,187.1,22.32Zm11.55-1.2a10.89,10.89,0,0,0,.4-3.56,11,11,0,0,0-.4-3.56,3.56,3.56,0,0,0-3.6-2.52A3.61,3.61,0,0,0,191.42,14a11,11,0,0,0-.4,3.56,10.89,10.89,0,0,0,.4,3.56,3.61,3.61,0,0,0,3.63,2.52A3.56,3.56,0,0,0,198.65,21.12Z"/><path d="M208,27.2a.38.38,0,0,1-.4-.4V8.32a.38.38,0,0,1,.4-.4h3.68a.38.38,0,0,1,.4.4V10h0a5.51,5.51,0,0,1,5-2.48,5.82,5.82,0,0,1,4,1.6c.2.2.24.36.08.56l-2.12,2.68a.36.36,0,0,1-.56.08,5.16,5.16,0,0,0-2.84-.92c-2.52,0-3.63,1.8-3.63,4.88V26.8a.38.38,0,0,1-.4.4Z"/><path d="M235.25,27.2a.38.38,0,0,1-.4-.4V25.36h0c-.92,1.32-2.52,2.28-5.11,2.28-3.28,0-5.68-1.56-6.68-4.64a16.07,16.07,0,0,1-.68-5.44,16.07,16.07,0,0,1,.68-5.44c1-3.08,3.4-4.64,6.68-4.64,2.59,0,4.19,1,5.11,2.28h0V.4a.38.38,0,0,1,.4-.4h3.68a.38.38,0,0,1,.4.4V26.8a.38.38,0,0,1-.4.4Zm-.8-6a11.37,11.37,0,0,0,.4-3.6,11.37,11.37,0,0,0-.4-3.6,3.82,3.82,0,0,0-7.16,0,11.74,11.74,0,0,0-.39,3.6,11.74,11.74,0,0,0,.39,3.6,3.82,3.82,0,0,0,7.16,0Z"/><path d="M244,22.28a15,15,0,0,1-.68-4.72A15.36,15.36,0,0,1,244,12.8c1.08-3.36,4-5.32,7.88-5.32s6.83,2,7.91,5.32a17.27,17.27,0,0,1,.64,5.8.39.39,0,0,1-.44.4H248.1a.21.21,0,0,0-.24.24,4.48,4.48,0,0,0,.27,1.48,4.22,4.22,0,0,0,4.33,2.92A5.8,5.8,0,0,0,257,21.8a.41.41,0,0,1,.6-.08l2.36,2.08a.36.36,0,0,1,0,.56,10.16,10.16,0,0,1-7.92,3.28C248,27.64,245.1,25.64,244,22.28Zm11.63-8.52a4.11,4.11,0,0,0-7.55,0,4.89,4.89,0,0,0-.24,1.64.21.21,0,0,0,.24.24h7.55a.21.21,0,0,0,.24-.24A4.89,4.89,0,0,0,255.65,13.76Z"/><path d="M276.61,27.2a.38.38,0,0,1-.4-.4V15.68c0-2.48-1.24-4.2-3.64-4.2s-3.67,1.72-3.67,4.2V26.8a.38.38,0,0,1-.4.4h-3.68a.38.38,0,0,1-.4-.4V8.32a.38.38,0,0,1,.4-.4h3.68a.38.38,0,0,1,.4.4v1.4h0A6,6,0,0,1,274,7.48c4.12,0,6.68,3,6.68,7.16V26.8a.38.38,0,0,1-.4.4Z"/><path d="M293.81,22.28a15.24,15.24,0,0,1-.68-4.72,15.33,15.33,0,0,1,.65-4.76c1.08-3.36,4-5.32,7.87-5.32s6.84,2,7.92,5.32a17.27,17.27,0,0,1,.64,5.8.39.39,0,0,1-.44.4H297.89a.21.21,0,0,0-.24.24,4.24,4.24,0,0,0,.28,1.48,4.21,4.21,0,0,0,4.32,2.92,5.81,5.81,0,0,0,4.52-1.84.41.41,0,0,1,.6-.08l2.36,2.08a.36.36,0,0,1,0,.56,10.16,10.16,0,0,1-7.92,3.28C297.77,27.64,294.89,25.64,293.81,22.28Zm11.64-8.52a4.12,4.12,0,0,0-7.56,0,4.89,4.89,0,0,0-.24,1.64.21.21,0,0,0,.24.24h7.56a.21.21,0,0,0,.24-.24A4.89,4.89,0,0,0,305.45,13.76Z"/><path d="M326.41,27.2a.38.38,0,0,1-.4-.4V15.68c0-2.48-1.24-4.2-3.64-4.2s-3.68,1.72-3.68,4.2V26.8a.38.38,0,0,1-.4.4h-3.68a.38.38,0,0,1-.4-.4V8.32a.38.38,0,0,1,.4-.4h3.68a.38.38,0,0,1,.4.4v1.4h0a6,6,0,0,1,5.08-2.24c4.12,0,6.68,3,6.68,7.16V26.8a.38.38,0,0,1-.4.4Z"/><path d="M343.61,22.28a15,15,0,0,1-.68-4.72,15.36,15.36,0,0,1,.64-4.76c1.08-3.36,4-5.32,7.88-5.32s6.84,2,7.92,5.32a17.27,17.27,0,0,1,.64,5.8.39.39,0,0,1-.44.4H347.69a.21.21,0,0,0-.24.24,4.24,4.24,0,0,0,.28,1.48,4.21,4.21,0,0,0,4.32,2.92,5.81,5.81,0,0,0,4.52-1.84.41.41,0,0,1,.6-.08l2.36,2.08a.36.36,0,0,1,0,.56,10.16,10.16,0,0,1-7.92,3.28C347.57,27.64,344.69,25.64,343.61,22.28Zm11.64-8.52a4.12,4.12,0,0,0-7.56,0,4.89,4.89,0,0,0-.24,1.64.21.21,0,0,0,.24.24h7.56a.21.21,0,0,0,.24-.24A4.89,4.89,0,0,0,355.25,13.76Z"/><path d="M369.21,27.44c-3.76,0-5.28-1.8-5.28-5.52V.4a.38.38,0,0,1,.4-.4H368a.38.38,0,0,1,.4.4V21.68c0,1.32.52,1.76,1.68,1.76H371a.38.38,0,0,1,.4.4V27a.38.38,0,0,1-.4.4Z"/><path d="M388.69,27.44c-3.76,0-5.28-1.8-5.28-5.52V.4a.38.38,0,0,1,.4-.4h3.68a.38.38,0,0,1,.4.4V21.68c0,1.32.52,1.76,1.68,1.76h.88a.38.38,0,0,1,.4.4V27a.38.38,0,0,1-.4.4Z"/><path d="M406.17,27.2a.38.38,0,0,1-.4-.4V25.4h0a5.91,5.91,0,0,1-5,2.24c-4.12,0-6.64-3-6.64-7.16V8.32a.38.38,0,0,1,.4-.4h3.68a.38.38,0,0,1,.4.4V19.44c0,2.48,1.16,4.2,3.6,4.2,2.28,0,3.6-1.72,3.6-4.16V8.32a.38.38,0,0,1,.4-.4h3.68a.38.38,0,0,1,.4.4V26.8a.38.38,0,0,1-.4.4Z"/><path d="M414.89,32a.36.36,0,0,1,0-.56L417.29,29a.36.36,0,0,1,.6,0,6,6,0,0,0,4.2,1.79c3,0,4.32-1.6,4.32-4.59v-1.8h0c-.88,1.36-2.52,2.24-5,2.24A6.44,6.44,0,0,1,414.81,22a14.69,14.69,0,0,1-.64-4.92,14.44,14.44,0,0,1,.64-4.88,6.43,6.43,0,0,1,6.56-4.72c2.48,0,4.12.88,5,2.28h0V8.32a.38.38,0,0,1,.4-.4h3.68a.38.38,0,0,1,.4.4V26c0,5.51-3.08,8.83-9,8.83A9.54,9.54,0,0,1,414.89,32ZM426,20.24a9,9,0,0,0,.44-3.16,9.28,9.28,0,0,0-.44-3.16,3.62,3.62,0,0,0-6.84,0,9.28,9.28,0,0,0-.44,3.16,9,9,0,0,0,.44,3.16,3.6,3.6,0,0,0,6.84,0Z"/><path d="M447.41,27.2a.38.38,0,0,1-.4-.4V25.4h0c-.92,1.32-2.72,2.24-5.44,2.24-3.52,0-6.48-1.84-6.48-5.88,0-4.2,3-6.12,7.72-6.12h3.92a.21.21,0,0,0,.24-.24v-.92c0-2.2-1-3.2-4.28-3.2a6.76,6.76,0,0,0-4.4,1.32.36.36,0,0,1-.56-.08l-1.48-2.64a.37.37,0,0,1,.08-.52,11.25,11.25,0,0,1,6.84-1.88c5.88,0,8,2,8,6.72V26.8a.38.38,0,0,1-.4.4Zm-.48-6.48V19.24a.21.21,0,0,0-.24-.24h-3.2c-2.88,0-4.16.8-4.16,2.6,0,1.6,1.16,2.4,3.32,2.4C445.41,24,446.93,22.92,446.93,20.72Z"/><path d="M456.45,27.2a.38.38,0,0,1-.4-.4V8.32a.38.38,0,0,1,.4-.4h3.68a.38.38,0,0,1,.4.4V10h0a5.52,5.52,0,0,1,5-2.48,5.82,5.82,0,0,1,4,1.6c.2.2.24.36.08.56l-2.12,2.68a.36.36,0,0,1-.56.08,5.21,5.21,0,0,0-2.84-.92c-2.52,0-3.64,1.8-3.64,4.88V26.8a.38.38,0,0,1-.4.4Z"/><path d="M492.69,27.2a.38.38,0,0,1-.4-.4V25.36h0c-.92,1.32-2.52,2.28-5.12,2.28-3.28,0-5.68-1.56-6.68-4.64a16.07,16.07,0,0,1-.68-5.44,16.07,16.07,0,0,1,.68-5.44c1-3.08,3.4-4.64,6.68-4.64,2.6,0,4.2,1,5.12,2.28h0V.4a.38.38,0,0,1,.4-.4h3.68a.38.38,0,0,1,.4.4V26.8a.38.38,0,0,1-.4.4Zm-.8-6a11.37,11.37,0,0,0,.4-3.6,11.37,11.37,0,0,0-.4-3.6,3.82,3.82,0,0,0-7.16,0,11.37,11.37,0,0,0-.4,3.6,11.37,11.37,0,0,0,.4,3.6,3.82,3.82,0,0,0,7.16,0Z"/><path d="M501.45,22.28a15,15,0,0,1-.68-4.72,15.36,15.36,0,0,1,.64-4.76c1.08-3.36,4-5.32,7.88-5.32s6.84,2,7.92,5.32a17.27,17.27,0,0,1,.64,5.8.39.39,0,0,1-.44.4H505.53a.21.21,0,0,0-.24.24,4.24,4.24,0,0,0,.28,1.48,4.21,4.21,0,0,0,4.32,2.92,5.81,5.81,0,0,0,4.52-1.84.41.41,0,0,1,.6-.08l2.36,2.08a.36.36,0,0,1,0,.56,10.16,10.16,0,0,1-7.92,3.28C505.41,27.64,502.53,25.64,501.45,22.28Zm11.64-8.52a4.12,4.12,0,0,0-7.56,0,4.89,4.89,0,0,0-.24,1.64.21.21,0,0,0,.24.24h7.56a.21.21,0,0,0,.24-.24A4.89,4.89,0,0,0,513.09,13.76Z"/><path d="M536.13,27.44c-3.88,0-5.36-1.88-5.36-5.64V11.64a.21.21,0,0,0-.24-.24h-1.28a.38.38,0,0,1-.4-.4V8.32a.38.38,0,0,1,.4-.4h1.28a.21.21,0,0,0,.24-.24V2.4a.38.38,0,0,1,.4-.4h3.68a.38.38,0,0,1,.4.4V7.68a.21.21,0,0,0,.24.24h2.56a.38.38,0,0,1,.4.4V11a.38.38,0,0,1-.4.4h-2.56a.21.21,0,0,0-.24.24v10c0,1.36.56,1.8,1.8,1.8h1a.38.38,0,0,1,.4.4V27a.38.38,0,0,1-.4.4Z"/><path d="M542.93,27.2a.38.38,0,0,1-.4-.4V8.32a.38.38,0,0,1,.4-.4h3.68a.38.38,0,0,1,.4.4V10h0a5.52,5.52,0,0,1,5-2.48,5.82,5.82,0,0,1,4,1.6c.2.2.24.36.08.56l-2.12,2.68a.36.36,0,0,1-.56.08,5.21,5.21,0,0,0-2.84-.92c-2.52,0-3.64,1.8-3.64,4.88V26.8a.38.38,0,0,1-.4.4Z"/><path d="M569.41,27.2a.38.38,0,0,1-.4-.4V25.4h0c-.92,1.32-2.72,2.24-5.44,2.24-3.52,0-6.48-1.84-6.48-5.88,0-4.2,3-6.12,7.72-6.12h3.92a.21.21,0,0,0,.24-.24v-.92c0-2.2-1-3.2-4.28-3.2a6.76,6.76,0,0,0-4.4,1.32.36.36,0,0,1-.56-.08l-1.48-2.64a.37.37,0,0,1,.08-.52,11.25,11.25,0,0,1,6.84-1.88c5.88,0,8,2,8,6.72V26.8a.38.38,0,0,1-.4.4Zm-.48-6.48V19.24a.21.21,0,0,0-.24-.24h-3.2c-2.88,0-4.16.8-4.16,2.6,0,1.6,1.16,2.4,3.32,2.4C567.41,24,568.93,22.92,568.93,20.72Z"/><path d="M582.57,25.36h0V26.8a.38.38,0,0,1-.4.4h-3.68a.38.38,0,0,1-.4-.4V.4a.38.38,0,0,1,.4-.4h3.68a.38.38,0,0,1,.4.4V9.76h0c.92-1.32,2.52-2.28,5.12-2.28,3.28,0,5.68,1.56,6.68,4.64a16.07,16.07,0,0,1,.68,5.44,16.07,16.07,0,0,1-.68,5.44c-1,3.08-3.4,4.64-6.68,4.64C585.09,27.64,583.49,26.68,582.57,25.36Zm7.52-4.2a11.37,11.37,0,0,0,.4-3.6,11.37,11.37,0,0,0-.4-3.6,3.82,3.82,0,0,0-7.16,0,11.37,11.37,0,0,0-.4,3.6,11.37,11.37,0,0,0,.4,3.6,3.82,3.82,0,0,0,7.16,0Z"/><path d="M610.53,27.2a.38.38,0,0,1-.4-.4V25.4h0c-.92,1.32-2.72,2.24-5.44,2.24-3.52,0-6.48-1.84-6.48-5.88,0-4.2,3-6.12,7.72-6.12h3.92a.21.21,0,0,0,.24-.24v-.92c0-2.2-1-3.2-4.28-3.2a6.76,6.76,0,0,0-4.4,1.32.36.36,0,0,1-.56-.08l-1.48-2.64a.37.37,0,0,1,.08-.52,11.25,11.25,0,0,1,6.84-1.88c5.88,0,8,2,8,6.72V26.8a.38.38,0,0,1-.4.4Zm-.48-6.48V19.24a.21.21,0,0,0-.24-.24h-3.2c-2.88,0-4.16.8-4.16,2.6,0,1.6,1.16,2.4,3.32,2.4C608.53,24,610.05,22.92,610.05,20.72Z"/><path d="M616.05,34.39a.38.38,0,0,1-.4-.4v-3.2a.37.37,0,0,1,.4-.39h.88c1.6,0,2.24-.52,2.24-2.28V8.32a.38.38,0,0,1,.4-.4h3.68a.38.38,0,0,1,.4.4V28c0,4.43-2.28,6.35-6.48,6.35Zm3.52-30.11a.38.38,0,0,1-.4-.4V.4a.38.38,0,0,1,.4-.4h3.68a.38.38,0,0,1,.4.4V3.88a.38.38,0,0,1-.4.4Z"/><path d="M628.29,22.32a14.24,14.24,0,0,1-.64-4.76,14.24,14.24,0,0,1,.64-4.76c1.08-3.36,4-5.32,8-5.32s6.84,2,7.92,5.32a14.24,14.24,0,0,1,.64,4.76,14.24,14.24,0,0,1-.64,4.76c-1.08,3.36-4,5.32-7.92,5.32S629.37,25.68,628.29,22.32Zm11.56-1.2a10.89,10.89,0,0,0,.4-3.56,11,11,0,0,0-.4-3.56,3.56,3.56,0,0,0-3.6-2.52A3.61,3.61,0,0,0,632.61,14a11,11,0,0,0-.4,3.56,10.89,10.89,0,0,0,.4,3.56,3.61,3.61,0,0,0,3.64,2.52A3.56,3.56,0,0,0,639.85,21.12Z"/><path d="M66.42,72.39A.38.38,0,0,1,66,72V46.32a.38.38,0,0,1,.4-.4H70.1a.38.38,0,0,1,.4.4v1.44h0c.92-1.32,2.52-2.28,5.12-2.28,3.28,0,5.68,1.56,6.68,4.64A16.07,16.07,0,0,1,83,55.56,16.07,16.07,0,0,1,82.34,61c-1,3.08-3.4,4.64-6.68,4.64-2.6,0-4.2-1-5.12-2.28h0V72a.38.38,0,0,1-.4.4ZM78.06,59.16a11.37,11.37,0,0,0,.4-3.6,11.37,11.37,0,0,0-.4-3.6,3.82,3.82,0,0,0-7.16,0,11.37,11.37,0,0,0-.4,3.6,11.37,11.37,0,0,0,.4,3.6,3.82,3.82,0,0,0,7.16,0Z"/><path d="M86.62,60.32A14.24,14.24,0,0,1,86,55.56a14.24,14.24,0,0,1,.64-4.76c1.08-3.36,4-5.32,8-5.32s6.84,2,7.92,5.32a14.24,14.24,0,0,1,.64,4.76,14.24,14.24,0,0,1-.64,4.76c-1.08,3.36-4,5.32-7.92,5.32S87.7,63.68,86.62,60.32Zm11.56-1.2a10.89,10.89,0,0,0,.4-3.56,11,11,0,0,0-.4-3.56,3.56,3.56,0,0,0-3.6-2.52A3.61,3.61,0,0,0,90.94,52a11,11,0,0,0-.4,3.56,10.89,10.89,0,0,0,.4,3.56,3.61,3.61,0,0,0,3.64,2.52A3.56,3.56,0,0,0,98.18,59.12Z"/><path d="M119,65.2a.38.38,0,0,1-.4-.4V63.36h0c-.92,1.32-2.52,2.28-5.12,2.28-3.28,0-5.68-1.56-6.68-4.64a16.07,16.07,0,0,1-.68-5.44,16.07,16.07,0,0,1,.68-5.44c1-3.08,3.4-4.64,6.68-4.64,2.6,0,4.2,1,5.12,2.28h0V38.4a.38.38,0,0,1,.4-.4h3.68a.38.38,0,0,1,.4.4V64.8a.38.38,0,0,1-.4.4Zm-.8-6a11.37,11.37,0,0,0,.4-3.6,11.37,11.37,0,0,0-.4-3.6,3.82,3.82,0,0,0-7.16,0,11.37,11.37,0,0,0-.4,3.6,11.37,11.37,0,0,0,.4,3.6,3.82,3.82,0,0,0,7.16,0Z"/><path d="M128.54,65.2a.38.38,0,0,1-.4-.4V46.32a.38.38,0,0,1,.4-.4h3.68a.38.38,0,0,1,.4.4V48h0a5.52,5.52,0,0,1,5-2.48,5.82,5.82,0,0,1,4,1.6c.2.2.24.36.08.56l-2.12,2.68a.36.36,0,0,1-.56.08,5.21,5.21,0,0,0-2.84-.92c-2.52,0-3.64,1.8-3.64,4.88V64.8a.38.38,0,0,1-.4.4Z"/><path d="M144.66,65.2a.38.38,0,0,1-.4-.4V46.32a.38.38,0,0,1,.4-.4h3.68a.38.38,0,0,1,.4.4V64.8a.38.38,0,0,1-.4.4Zm.4-22.2c-.24,0-.36-.16-.24-.4l3-5a.76.76,0,0,1,.72-.4h3.64c.24,0,.36.2.2.4l-3.8,5a.93.93,0,0,1-.8.4Z"/><path d="M165.26,65.2a.38.38,0,0,1-.4-.4V63.4h0c-.92,1.32-2.72,2.24-5.44,2.24-3.52,0-6.48-1.84-6.48-5.88,0-4.2,3-6.12,7.72-6.12h3.92a.21.21,0,0,0,.24-.24v-.92c0-2.2-1-3.2-4.28-3.2a6.76,6.76,0,0,0-4.4,1.32.36.36,0,0,1-.56-.08l-1.48-2.64a.37.37,0,0,1,.08-.52A11.25,11.25,0,0,1,161,45.48c5.88,0,8,2,8,6.72V64.8a.37.37,0,0,1-.39.4Zm-.48-6.48V57.24a.21.21,0,0,0-.24-.24h-3.2c-2.88,0-4.16.8-4.16,2.6,0,1.6,1.16,2.4,3.32,2.4C163.26,62,164.78,60.92,164.78,58.72Z"/><path d="M182.14,60.32a14.24,14.24,0,0,1-.64-4.76,14.24,14.24,0,0,1,.64-4.76c1.08-3.36,4-5.32,8-5.32s6.83,2,7.91,5.32a14.24,14.24,0,0,1,.64,4.76,14.24,14.24,0,0,1-.64,4.76c-1.08,3.36-4,5.32-7.91,5.32S183.22,63.68,182.14,60.32Zm11.56-1.2a11.21,11.21,0,0,0,.39-3.56A11.36,11.36,0,0,0,193.7,52a3.86,3.86,0,0,0-7.24,0,11,11,0,0,0-.4,3.56,10.89,10.89,0,0,0,.4,3.56,3.86,3.86,0,0,0,7.24,0Z"/><path d="M202.22,60.32a15.15,15.15,0,0,1-.6-4.76,15.15,15.15,0,0,1,.6-4.76c1.12-3.44,4.08-5.32,8-5.32a8.39,8.39,0,0,1,6.67,3,.39.39,0,0,1,0,.56l-2.52,2.2a.36.36,0,0,1-.56-.08,4.33,4.33,0,0,0-3.55-1.68,3.54,3.54,0,0,0-3.6,2.52,11.33,11.33,0,0,0-.4,3.56,11.6,11.6,0,0,0,.4,3.6,3.55,3.55,0,0,0,3.6,2.48A4.33,4.33,0,0,0,213.73,60a.36.36,0,0,1,.56,0l2.52,2.2c.2.16.16.36,0,.56a8.49,8.49,0,0,1-6.67,3C206.3,65.64,203.34,63.76,202.22,60.32Z"/><path d="M231.61,65.2a.38.38,0,0,1-.4-.4V63.4h0c-.92,1.32-2.71,2.24-5.43,2.24-3.52,0-6.48-1.84-6.48-5.88,0-4.2,3-6.12,7.71-6.12h3.92a.21.21,0,0,0,.24-.24v-.92c0-2.2-1-3.2-4.27-3.2a6.76,6.76,0,0,0-4.4,1.32.36.36,0,0,1-.56-.08l-1.48-2.64a.37.37,0,0,1,.08-.52,11.24,11.24,0,0,1,6.83-1.88c5.88,0,8,2,8,6.72V64.8a.38.38,0,0,1-.4.4Zm-.48-6.48V57.24a.21.21,0,0,0-.24-.24H227.7c-2.88,0-4.16.8-4.16,2.6,0,1.6,1.16,2.4,3.32,2.4C229.62,62,231.13,60.92,231.13,58.72Z"/><path d="M239.1,62.6a.39.39,0,0,1,0-.56l2.28-2.4a.39.39,0,0,1,.56,0,8.92,8.92,0,0,0,5.64,2.2c2.35,0,3.55-1,3.55-2.28,0-1.16-.67-1.88-3.19-2.12l-2.08-.2c-3.92-.4-5.92-2.4-5.92-5.68,0-3.72,2.68-6.08,7.48-6.08a11.68,11.68,0,0,1,7.23,2.36.4.4,0,0,1,.08.56l-2,2.36a.39.39,0,0,1-.56.08,9.3,9.3,0,0,0-5-1.6c-1.92,0-2.92.84-2.92,2s.68,1.8,3.16,2l2.07.2c4,.4,6,2.48,6,5.64,0,3.84-2.8,6.52-8.07,6.52A12,12,0,0,1,239.1,62.6Z"/><path d="M259.78,42.28a.38.38,0,0,1-.4-.4V38.4a.38.38,0,0,1,.4-.4h3.68a.38.38,0,0,1,.4.4v3.48a.38.38,0,0,1-.4.4Zm0,22.92a.38.38,0,0,1-.4-.4V46.32a.38.38,0,0,1,.4-.4h3.68a.38.38,0,0,1,.4.4V64.8a.38.38,0,0,1-.4.4Z"/><path d="M268.5,60.32a14.24,14.24,0,0,1-.64-4.76,14.24,14.24,0,0,1,.64-4.76c1.08-3.36,4-5.32,7.95-5.32s6.84,2,7.92,5.32a14.24,14.24,0,0,1,.64,4.76,14.24,14.24,0,0,1-.64,4.76c-1.08,3.36-4,5.32-7.92,5.32S269.58,63.68,268.5,60.32Zm11.55-1.2a10.89,10.89,0,0,0,.4-3.56,11,11,0,0,0-.4-3.56,3.56,3.56,0,0,0-3.6-2.52A3.62,3.62,0,0,0,272.81,52a11.36,11.36,0,0,0-.39,3.56,11.21,11.21,0,0,0,.39,3.56,3.62,3.62,0,0,0,3.64,2.52A3.56,3.56,0,0,0,280.05,59.12Z"/><path d="M301.21,65.2a.38.38,0,0,1-.4-.4V53.68c0-2.48-1.24-4.2-3.64-4.2s-3.67,1.72-3.67,4.2V64.8a.38.38,0,0,1-.4.4h-3.68a.38.38,0,0,1-.4-.4V46.32a.38.38,0,0,1,.4-.4h3.68a.38.38,0,0,1,.4.4v1.4h0a5.94,5.94,0,0,1,5.07-2.24c4.12,0,6.68,3,6.68,7.16V64.8a.38.38,0,0,1-.4.4Z"/><path d="M321.61,65.2a.38.38,0,0,1-.4-.4V63.4h0c-.92,1.32-2.72,2.24-5.44,2.24-3.52,0-6.48-1.84-6.48-5.88,0-4.2,3-6.12,7.72-6.12h3.92a.21.21,0,0,0,.24-.24v-.92c0-2.2-1-3.2-4.28-3.2a6.73,6.73,0,0,0-4.39,1.32.37.37,0,0,1-.57-.08l-1.48-2.64a.37.37,0,0,1,.08-.52,11.25,11.25,0,0,1,6.84-1.88c5.88,0,8,2,8,6.72V64.8a.38.38,0,0,1-.4.4Zm-.48-6.48V57.24a.21.21,0,0,0-.24-.24h-3.2c-2.88,0-4.16.8-4.16,2.6,0,1.6,1.16,2.4,3.32,2.4C319.61,62,321.13,60.92,321.13,58.72Z"/><path d="M330.65,65.2a.38.38,0,0,1-.4-.4V46.32a.38.38,0,0,1,.4-.4h3.68a.38.38,0,0,1,.4.4V48h0a5.52,5.52,0,0,1,5-2.48,5.82,5.82,0,0,1,4,1.6c.2.2.24.36.08.56l-2.12,2.68a.36.36,0,0,1-.56.08,5.21,5.21,0,0,0-2.84-.92c-2.52,0-3.64,1.8-3.64,4.88V64.8a.38.38,0,0,1-.4.4Z"/><path d="M366.85,65.2a.38.38,0,0,1-.4-.4V63.4h0a5.91,5.91,0,0,1-5,2.24c-4.12,0-6.64-3-6.64-7.16V46.32a.38.38,0,0,1,.4-.4h3.68a.38.38,0,0,1,.4.4V57.44c0,2.48,1.16,4.2,3.6,4.2,2.28,0,3.6-1.72,3.6-4.16V46.32a.38.38,0,0,1,.4-.4h3.68a.38.38,0,0,1,.4.4V64.8a.38.38,0,0,1-.4.4Z"/><path d="M388.17,65.2a.38.38,0,0,1-.4-.4V53.68c0-2.48-1.24-4.2-3.64-4.2s-3.68,1.72-3.68,4.2V64.8a.38.38,0,0,1-.4.4h-3.68a.38.38,0,0,1-.4-.4V46.32a.38.38,0,0,1,.4-.4h3.68a.38.38,0,0,1,.4.4v1.4h0a6,6,0,0,1,5.08-2.24c4.12,0,6.68,3,6.68,7.16V64.8a.38.38,0,0,1-.4.4Z"/><path d="M406.13,42.28a.38.38,0,0,1-.4-.4V38.4a.38.38,0,0,1,.4-.4h3.68a.38.38,0,0,1,.4.4v3.48a.38.38,0,0,1-.4.4Zm0,22.92a.38.38,0,0,1-.4-.4V46.32a.38.38,0,0,1,.4-.4h3.68a.38.38,0,0,1,.4.4V64.8a.38.38,0,0,1-.4.4Z"/><path d="M427.45,65.2a.38.38,0,0,1-.4-.4V53.68c0-2.48-1.24-4.2-3.64-4.2s-3.68,1.72-3.68,4.2V64.8a.38.38,0,0,1-.4.4h-3.68a.38.38,0,0,1-.4-.4V46.32a.38.38,0,0,1,.4-.4h3.68a.38.38,0,0,1,.4.4v1.4h0a6,6,0,0,1,5.08-2.24c4.12,0,6.68,3,6.68,7.16V64.8a.38.38,0,0,1-.4.4Z"/><path d="M435.93,60.32a15.15,15.15,0,0,1-.6-4.76,15.15,15.15,0,0,1,.6-4.76c1.12-3.44,4.08-5.32,8-5.32a8.4,8.4,0,0,1,6.68,3,.39.39,0,0,1,0,.56L448,51.24a.36.36,0,0,1-.56-.08,4.37,4.37,0,0,0-3.56-1.68,3.54,3.54,0,0,0-3.6,2.52,11.33,11.33,0,0,0-.4,3.56,11.6,11.6,0,0,0,.4,3.6,3.55,3.55,0,0,0,3.6,2.48A4.37,4.37,0,0,0,447.45,60a.36.36,0,0,1,.56,0l2.52,2.2c.2.16.16.36,0,.56a8.49,8.49,0,0,1-6.68,3C440,65.64,437.05,63.76,435.93,60.32Z"/><path d="M455,42.28a.38.38,0,0,1-.4-.4V38.4a.38.38,0,0,1,.4-.4h3.68a.38.38,0,0,1,.4.4v3.48a.38.38,0,0,1-.4.4Zm0,22.92a.38.38,0,0,1-.4-.4V46.32a.38.38,0,0,1,.4-.4h3.68a.38.38,0,0,1,.4.4V64.8a.38.38,0,0,1-.4.4Z"/><path d="M476,65.2a.38.38,0,0,1-.4-.4V63.36h0c-.92,1.32-2.52,2.28-5.12,2.28-3.28,0-5.68-1.56-6.68-4.64a16.07,16.07,0,0,1-.68-5.44,16.07,16.07,0,0,1,.68-5.44c1-3.08,3.4-4.64,6.68-4.64,2.6,0,4.2,1,5.12,2.28h0V38.4a.38.38,0,0,1,.4-.4h3.68a.38.38,0,0,1,.4.4V64.8a.38.38,0,0,1-.4.4Zm-.8-6a11.37,11.37,0,0,0,.4-3.6,11.37,11.37,0,0,0-.4-3.6A3.82,3.82,0,0,0,468,52a11.37,11.37,0,0,0-.4,3.6,11.37,11.37,0,0,0,.4,3.6,3.82,3.82,0,0,0,7.16,0Z"/><path d="M484.73,60.28a15,15,0,0,1-.68-4.72,15.36,15.36,0,0,1,.64-4.76c1.08-3.36,4-5.32,7.88-5.32s6.84,2,7.92,5.32a17.27,17.27,0,0,1,.64,5.8.39.39,0,0,1-.44.4H488.81a.21.21,0,0,0-.24.24,4.48,4.48,0,0,0,4.6,4.4,5.81,5.81,0,0,0,4.52-1.84.41.41,0,0,1,.6-.08l2.36,2.08a.36.36,0,0,1,0,.56,10.16,10.16,0,0,1-7.92,3.28C488.69,65.64,485.81,63.64,484.73,60.28Zm11.64-8.52a4.12,4.12,0,0,0-7.56,0,4.89,4.89,0,0,0-.24,1.64.21.21,0,0,0,.24.24h7.56a.21.21,0,0,0,.24-.24A4.89,4.89,0,0,0,496.37,51.76Z"/><path d="M517.33,65.2a.38.38,0,0,1-.4-.4V53.68c0-2.48-1.24-4.2-3.64-4.2s-3.68,1.72-3.68,4.2V64.8a.38.38,0,0,1-.4.4h-3.68a.38.38,0,0,1-.4-.4V46.32a.38.38,0,0,1,.4-.4h3.68a.38.38,0,0,1,.4.4v1.4h0a6,6,0,0,1,5.08-2.24c4.12,0,6.68,3,6.68,7.16V64.8a.38.38,0,0,1-.4.4Z"/><path d="M531.89,65.44c-3.88,0-5.36-1.88-5.36-5.64V49.64a.21.21,0,0,0-.24-.24H525a.38.38,0,0,1-.4-.4V46.32a.38.38,0,0,1,.4-.4h1.28a.21.21,0,0,0,.24-.24V40.4a.38.38,0,0,1,.4-.4h3.68a.38.38,0,0,1,.4.4v5.28a.21.21,0,0,0,.24.24h2.56a.38.38,0,0,1,.4.4V49a.38.38,0,0,1-.4.4h-2.56a.21.21,0,0,0-.24.24v10c0,1.36.56,1.8,1.8,1.8h1a.38.38,0,0,1,.4.4V65a.38.38,0,0,1-.4.4Z"/><path d="M537.93,60.28a15,15,0,0,1-.68-4.72,15.36,15.36,0,0,1,.64-4.76c1.08-3.36,4-5.32,7.88-5.32s6.84,2,7.92,5.32a17.27,17.27,0,0,1,.64,5.8.39.39,0,0,1-.44.4H542a.21.21,0,0,0-.24.24,4.48,4.48,0,0,0,4.6,4.4,5.81,5.81,0,0,0,4.52-1.84.41.41,0,0,1,.6-.08l2.36,2.08a.36.36,0,0,1,0,.56A10.16,10.16,0,0,1,546,65.64C541.89,65.64,539,63.64,537.93,60.28Zm11.64-8.52a4.12,4.12,0,0,0-7.56,0,4.89,4.89,0,0,0-.24,1.64.21.21,0,0,0,.24.24h7.56a.21.21,0,0,0,.24-.24A4.89,4.89,0,0,0,549.57,51.76Z"/><path d="M566.57,60.32a14.24,14.24,0,0,1-.64-4.76,14.24,14.24,0,0,1,.64-4.76c1.08-3.36,4-5.32,8-5.32s6.84,2,7.92,5.32a14.24,14.24,0,0,1,.64,4.76,14.24,14.24,0,0,1-.64,4.76c-1.08,3.36-4,5.32-7.92,5.32S567.65,63.68,566.57,60.32Zm11.56-1.2a10.89,10.89,0,0,0,.4-3.56,11,11,0,0,0-.4-3.56,3.56,3.56,0,0,0-3.6-2.52A3.61,3.61,0,0,0,570.89,52a11,11,0,0,0-.4,3.56,10.89,10.89,0,0,0,.4,3.56,3.61,3.61,0,0,0,3.64,2.52A3.56,3.56,0,0,0,578.13,59.12Z"/><path d="M12.36,103.2a.38.38,0,0,1-.4-.4v-1.4h0c-.92,1.32-2.72,2.24-5.44,2.24C3,103.64,0,101.8,0,97.76c0-4.2,3-6.12,7.72-6.12h3.92a.21.21,0,0,0,.24-.24v-.92c0-2.2-1-3.2-4.28-3.2A6.76,6.76,0,0,0,3.2,88.6a.36.36,0,0,1-.56-.08L1.16,85.88a.37.37,0,0,1,.08-.52,11.25,11.25,0,0,1,6.84-1.88c5.88,0,8,2,8,6.72v12.6a.38.38,0,0,1-.4.4Zm-.48-6.48V95.24a.21.21,0,0,0-.24-.24H8.44c-2.88,0-4.16.8-4.16,2.6,0,1.6,1.16,2.4,3.32,2.4C10.36,100,11.88,98.92,11.88,96.72Z"/><path d="M20.56,98.32a15.15,15.15,0,0,1-.6-4.76,15.15,15.15,0,0,1,.6-4.76c1.12-3.44,4.08-5.32,8-5.32a8.4,8.4,0,0,1,6.68,3,.39.39,0,0,1,0,.56l-2.52,2.2a.36.36,0,0,1-.56-.08,4.37,4.37,0,0,0-3.56-1.68A3.54,3.54,0,0,0,24.92,90a11.33,11.33,0,0,0-.4,3.56,11.6,11.6,0,0,0,.4,3.6,3.55,3.55,0,0,0,3.6,2.48A4.37,4.37,0,0,0,32.08,98a.36.36,0,0,1,.56,0l2.52,2.2c.2.16.16.36,0,.56a8.49,8.49,0,0,1-6.68,3C24.64,103.64,21.68,101.76,20.56,98.32Z"/><path d="M38.76,98.32a15.15,15.15,0,0,1-.6-4.76,15.15,15.15,0,0,1,.6-4.76c1.12-3.44,4.08-5.32,8-5.32a8.4,8.4,0,0,1,6.68,3,.39.39,0,0,1,0,.56l-2.52,2.2a.36.36,0,0,1-.56-.08,4.37,4.37,0,0,0-3.56-1.68A3.54,3.54,0,0,0,43.12,90a11.33,11.33,0,0,0-.4,3.56,11.6,11.6,0,0,0,.4,3.6,3.55,3.55,0,0,0,3.6,2.48A4.37,4.37,0,0,0,50.28,98a.36.36,0,0,1,.56,0l2.52,2.2c.2.16.16.36,0,.56a8.49,8.49,0,0,1-6.68,3C42.84,103.64,39.88,101.76,38.76,98.32Z"/><path d="M57.8,80.28a.38.38,0,0,1-.4-.4V76.4a.38.38,0,0,1,.4-.4h3.68a.38.38,0,0,1,.4.4v3.48a.38.38,0,0,1-.4.4Zm0,22.92a.38.38,0,0,1-.4-.4V84.32a.38.38,0,0,1,.4-.4h3.68a.38.38,0,0,1,.4.4V102.8a.38.38,0,0,1-.4.4Z"/><path d="M78.8,103.2a.38.38,0,0,1-.4-.4v-1.44h0c-.92,1.32-2.52,2.28-5.12,2.28-3.28,0-5.68-1.56-6.68-4.64a16.07,16.07,0,0,1-.68-5.44,16.07,16.07,0,0,1,.68-5.44c1-3.08,3.4-4.64,6.68-4.64,2.6,0,4.2,1,5.12,2.28h0V76.4a.38.38,0,0,1,.4-.4h3.68a.38.38,0,0,1,.4.4v26.4a.38.38,0,0,1-.4.4Zm-.8-6a11.37,11.37,0,0,0,.4-3.6A11.37,11.37,0,0,0,78,90a3.82,3.82,0,0,0-7.16,0,11.37,11.37,0,0,0-.4,3.6,11.37,11.37,0,0,0,.4,3.6,3.82,3.82,0,0,0,7.16,0Z"/><path d="M87.56,98.28a15,15,0,0,1-.68-4.72,15.36,15.36,0,0,1,.64-4.76c1.08-3.36,4-5.32,7.88-5.32s6.84,2,7.92,5.32a17.27,17.27,0,0,1,.64,5.8.39.39,0,0,1-.44.4H91.64a.21.21,0,0,0-.24.24,4.48,4.48,0,0,0,4.6,4.4,5.81,5.81,0,0,0,4.52-1.84.41.41,0,0,1,.6-.08l2.36,2.08a.36.36,0,0,1,0,.56,10.16,10.16,0,0,1-7.92,3.28C91.52,103.64,88.64,101.64,87.56,98.28ZM99.2,89.76a4.12,4.12,0,0,0-7.56,0,4.89,4.89,0,0,0-.24,1.64.21.21,0,0,0,.24.24H99.2a.21.21,0,0,0,.24-.24A4.89,4.89,0,0,0,99.2,89.76Z"/><path d="M120.16,103.2a.38.38,0,0,1-.4-.4V91.68c0-2.48-1.24-4.2-3.64-4.2s-3.68,1.72-3.68,4.2V102.8a.38.38,0,0,1-.4.4h-3.68a.38.38,0,0,1-.4-.4V84.32a.38.38,0,0,1,.4-.4H112a.38.38,0,0,1,.4.4v1.4h0a6,6,0,0,1,5.08-2.24c4.12,0,6.68,3,6.68,7.16V102.8a.38.38,0,0,1-.4.4Z"/><path d="M134.72,103.44c-3.88,0-5.36-1.88-5.36-5.64V87.64a.21.21,0,0,0-.24-.24h-1.28a.38.38,0,0,1-.4-.4V84.32a.38.38,0,0,1,.4-.4h1.28a.21.21,0,0,0,.24-.24V78.4a.38.38,0,0,1,.4-.4h3.68a.38.38,0,0,1,.4.4v5.28a.21.21,0,0,0,.24.24h2.56a.38.38,0,0,1,.4.4V87a.38.38,0,0,1-.4.4h-2.56a.21.21,0,0,0-.24.24v10c0,1.36.56,1.8,1.8,1.8h1a.38.38,0,0,1,.4.4V103a.38.38,0,0,1-.4.4Z"/><path d="M140.76,98.28a15,15,0,0,1-.68-4.72,15.36,15.36,0,0,1,.64-4.76c1.08-3.36,4-5.32,7.88-5.32s6.84,2,7.91,5.32a17,17,0,0,1,.64,5.8.39.39,0,0,1-.44.4H144.84a.21.21,0,0,0-.24.24,4.48,4.48,0,0,0,4.6,4.4,5.77,5.77,0,0,0,4.51-1.84c.21-.2.41-.24.6-.08l2.36,2.08a.35.35,0,0,1,0,.56,10.14,10.14,0,0,1-7.91,3.28C144.72,103.64,141.84,101.64,140.76,98.28Zm11.64-8.52a4.12,4.12,0,0,0-7.56,0,4.89,4.89,0,0,0-.24,1.64.21.21,0,0,0,.24.24h7.56a.21.21,0,0,0,.23-.24A5.18,5.18,0,0,0,152.4,89.76Z"/><path d="M181.28,103.2a.38.38,0,0,1-.4-.4v-1.4h0c-.91,1.32-2.71,2.24-5.43,2.24-3.52,0-6.48-1.84-6.48-5.88,0-4.2,3-6.12,7.72-6.12h3.91a.21.21,0,0,0,.24-.24v-.92c0-2.2-1-3.2-4.27-3.2a6.76,6.76,0,0,0-4.4,1.32.36.36,0,0,1-.56-.08l-1.48-2.64a.37.37,0,0,1,.08-.52A11.25,11.25,0,0,1,177,83.48c5.88,0,8,2,8,6.72v12.6a.37.37,0,0,1-.4.4Zm-.49-6.48V95.24a.21.21,0,0,0-.24-.24h-3.19c-2.88,0-4.16.8-4.16,2.6,0,1.6,1.16,2.4,3.32,2.4C179.28,100,180.79,98.92,180.79,96.72Z"/><path d="M210,103.2a.38.38,0,0,1-.4-.4v-1.4h0c-.92,1.32-2.71,2.24-5.43,2.24-3.52,0-6.48-1.84-6.48-5.88,0-4.2,3-6.12,7.71-6.12h3.92a.21.21,0,0,0,.24-.24v-.92c0-2.2-1-3.2-4.27-3.2a6.76,6.76,0,0,0-4.4,1.32.36.36,0,0,1-.56-.08l-1.48-2.64a.37.37,0,0,1,.08-.52,11.24,11.24,0,0,1,6.83-1.88c5.88,0,8,2,8,6.72v12.6a.38.38,0,0,1-.4.4Zm-.48-6.48V95.24a.21.21,0,0,0-.24-.24h-3.19c-2.88,0-4.16.8-4.16,2.6,0,1.6,1.16,2.4,3.32,2.4C208,100,209.55,98.92,209.55,96.72Z"/><path d="M223.88,103.44c-3.76,0-5.28-1.8-5.28-5.52V76.4a.38.38,0,0,1,.4-.4h3.68a.38.38,0,0,1,.4.4V97.68c0,1.32.52,1.76,1.68,1.76h.87a.38.38,0,0,1,.41.4V103a.38.38,0,0,1-.41.4Z"/><path d="M229.12,108a.36.36,0,0,1,0-.56l2.36-2.35a.36.36,0,0,1,.6,0,5.91,5.91,0,0,0,4.19,1.79c3,0,4.32-1.6,4.32-4.59v-1.8h0c-.88,1.36-2.52,2.24-5,2.24A6.44,6.44,0,0,1,229,98a14.69,14.69,0,0,1-.64-4.92A14.44,14.44,0,0,1,229,88.2a6.43,6.43,0,0,1,6.55-4.72c2.48,0,4.12.88,5,2.28h0V84.32a.38.38,0,0,1,.4-.4h3.68a.38.38,0,0,1,.4.4V102c0,5.51-3.08,8.83-9,8.83A9.54,9.54,0,0,1,229.12,108Zm11.07-11.71a9,9,0,0,0,.44-3.16,9.28,9.28,0,0,0-.44-3.16,3.61,3.61,0,0,0-6.83,0,9.28,9.28,0,0,0-.44,3.16,9,9,0,0,0,.44,3.16,3.59,3.59,0,0,0,6.83,0Z"/><path d="M262,103.2a.38.38,0,0,1-.4-.4v-1.4h0a5.91,5.91,0,0,1-5,2.24c-4.11,0-6.63-3-6.63-7.16V84.32a.38.38,0,0,1,.4-.4H254a.37.37,0,0,1,.39.4V95.44c0,2.48,1.16,4.2,3.6,4.2,2.28,0,3.6-1.72,3.6-4.16V84.32a.38.38,0,0,1,.4-.4h3.68a.38.38,0,0,1,.4.4V102.8a.38.38,0,0,1-.4.4Z"/><path d="M283.31,103.2a.38.38,0,0,1-.4-.4V91.68c0-2.48-1.24-4.2-3.64-4.2s-3.67,1.72-3.67,4.2V102.8a.38.38,0,0,1-.4.4h-3.68a.38.38,0,0,1-.4-.4V84.32a.38.38,0,0,1,.4-.4h3.68a.38.38,0,0,1,.4.4v1.4h0a6,6,0,0,1,5.08-2.24c4.12,0,6.68,3,6.68,7.16V102.8a.38.38,0,0,1-.4.4Z"/><path d="M291.83,98.32a14.27,14.27,0,0,1-.63-4.76,14.27,14.27,0,0,1,.63-4.76c1.09-3.36,4.05-5.32,8-5.32s6.84,2,7.92,5.32a14.24,14.24,0,0,1,.64,4.76,14.24,14.24,0,0,1-.64,4.76c-1.08,3.36-4,5.32-7.92,5.32S292.92,101.68,291.83,98.32Zm11.56-1.2a10.89,10.89,0,0,0,.4-3.56,11,11,0,0,0-.4-3.56,3.56,3.56,0,0,0-3.6-2.52A3.61,3.61,0,0,0,296.15,90a11,11,0,0,0-.4,3.56,10.89,10.89,0,0,0,.4,3.56,3.61,3.61,0,0,0,3.64,2.52A3.56,3.56,0,0,0,303.39,97.12Z"/><path d="M332.87,103.2a.38.38,0,0,1-.4-.4v-1.44h0c-.92,1.32-2.52,2.28-5.12,2.28-3.28,0-5.68-1.56-6.68-4.64a16.11,16.11,0,0,1-.67-5.44,16.11,16.11,0,0,1,.67-5.44c1-3.08,3.4-4.64,6.68-4.64,2.6,0,4.2,1,5.12,2.28h0V76.4a.38.38,0,0,1,.4-.4h3.68a.38.38,0,0,1,.4.4v26.4a.38.38,0,0,1-.4.4Zm-.8-6a11.37,11.37,0,0,0,.4-3.6,11.37,11.37,0,0,0-.4-3.6,3.82,3.82,0,0,0-7.16,0,11.37,11.37,0,0,0-.4,3.6,11.37,11.37,0,0,0,.4,3.6,3.82,3.82,0,0,0,7.16,0Z"/><path d="M341.63,98.28a15,15,0,0,1-.67-4.72,15.4,15.4,0,0,1,.63-4.76c1.08-3.36,4-5.32,7.88-5.32s6.84,2,7.92,5.32a17.27,17.27,0,0,1,.64,5.8.39.39,0,0,1-.44.4H345.71a.21.21,0,0,0-.24.24,4.48,4.48,0,0,0,4.6,4.4,5.81,5.81,0,0,0,4.52-1.84.41.41,0,0,1,.6-.08l2.36,2.08a.36.36,0,0,1,0,.56,10.16,10.16,0,0,1-7.92,3.28C345.59,103.64,342.71,101.64,341.63,98.28Zm11.64-8.52a4.12,4.12,0,0,0-7.56,0,4.89,4.89,0,0,0-.24,1.64.21.21,0,0,0,.24.24h7.56a.21.21,0,0,0,.24-.24A4.89,4.89,0,0,0,353.27,89.76Z"/><path d="M375.87,103.44c-3.76,0-5.28-1.8-5.28-5.52V76.4a.38.38,0,0,1,.4-.4h3.68a.38.38,0,0,1,.4.4V97.68c0,1.32.52,1.76,1.68,1.76h.88a.38.38,0,0,1,.4.4V103a.38.38,0,0,1-.4.4Z"/><path d="M381.11,98.32a14.24,14.24,0,0,1-.64-4.76,14.24,14.24,0,0,1,.64-4.76c1.08-3.36,4-5.32,8-5.32s6.84,2,7.92,5.32a14.24,14.24,0,0,1,.64,4.76,14.24,14.24,0,0,1-.64,4.76c-1.08,3.36-4,5.32-7.92,5.32S382.19,101.68,381.11,98.32Zm11.56-1.2a10.89,10.89,0,0,0,.4-3.56,11,11,0,0,0-.4-3.56,3.56,3.56,0,0,0-3.6-2.52A3.61,3.61,0,0,0,385.43,90a11,11,0,0,0-.4,3.56,10.89,10.89,0,0,0,.4,3.56,3.61,3.61,0,0,0,3.64,2.52A3.56,3.56,0,0,0,392.67,97.12Z"/><path d="M400.47,100.6a.39.39,0,0,1,0-.56l2.28-2.4a.39.39,0,0,1,.56,0,8.92,8.92,0,0,0,5.64,2.2c2.36,0,3.56-1,3.56-2.28,0-1.16-.68-1.88-3.2-2.12l-2.08-.2c-3.92-.4-5.92-2.4-5.92-5.68,0-3.72,2.68-6.08,7.48-6.08A11.69,11.69,0,0,1,416,85.84a.4.4,0,0,1,.08.56l-2,2.36a.39.39,0,0,1-.56.08,9.31,9.31,0,0,0-5-1.6c-1.92,0-2.92.84-2.92,2s.68,1.8,3.16,2l2.08.2c4,.4,6,2.48,6,5.64,0,3.84-2.8,6.52-8.08,6.52A12,12,0,0,1,400.47,100.6Z"/><path d="M435,103.44c-3.88,0-5.36-1.88-5.36-5.64V87.64a.21.21,0,0,0-.24-.24h-1.28a.38.38,0,0,1-.4-.4V84.32a.38.38,0,0,1,.4-.4h1.28a.21.21,0,0,0,.24-.24V78.4a.38.38,0,0,1,.4-.4h3.68a.38.38,0,0,1,.4.4v5.28a.21.21,0,0,0,.24.24H437a.38.38,0,0,1,.4.4V87a.38.38,0,0,1-.4.4h-2.56a.21.21,0,0,0-.24.24v10c0,1.36.56,1.8,1.8,1.8h1a.38.38,0,0,1,.4.4V103a.38.38,0,0,1-.4.4Z"/><path d="M441.83,103.2a.38.38,0,0,1-.4-.4V84.32a.38.38,0,0,1,.4-.4h3.68a.38.38,0,0,1,.4.4V86h0a5.52,5.52,0,0,1,5-2.48,5.82,5.82,0,0,1,4,1.6c.2.2.24.36.08.56L453,88.32a.36.36,0,0,1-.56.08,5.21,5.21,0,0,0-2.84-.92c-2.52,0-3.64,1.8-3.64,4.88V102.8a.38.38,0,0,1-.4.4Z"/><path d="M468.31,103.2a.38.38,0,0,1-.4-.4v-1.4h0c-.92,1.32-2.72,2.24-5.44,2.24-3.52,0-6.48-1.84-6.48-5.88,0-4.2,3-6.12,7.72-6.12h3.92a.21.21,0,0,0,.24-.24v-.92c0-2.2-1-3.2-4.28-3.2a6.76,6.76,0,0,0-4.4,1.32.36.36,0,0,1-.56-.08l-1.48-2.64a.37.37,0,0,1,.08-.52A11.25,11.25,0,0,1,464,83.48c5.88,0,8,2,8,6.72v12.6a.38.38,0,0,1-.4.4Zm-.48-6.48V95.24a.21.21,0,0,0-.24-.24h-3.2c-2.88,0-4.16.8-4.16,2.6,0,1.6,1.16,2.4,3.32,2.4C466.31,100,467.83,98.92,467.83,96.72Z"/><path d="M481.47,101.36h0v1.44a.38.38,0,0,1-.4.4h-3.68a.38.38,0,0,1-.4-.4V76.4a.38.38,0,0,1,.4-.4H481a.38.38,0,0,1,.4.4v9.36h0c.92-1.32,2.52-2.28,5.12-2.28,3.28,0,5.68,1.56,6.68,4.64a16.07,16.07,0,0,1,.68,5.44,16.07,16.07,0,0,1-.68,5.44c-1,3.08-3.4,4.64-6.68,4.64C484,103.64,482.39,102.68,481.47,101.36Zm7.52-4.2a11.37,11.37,0,0,0,.4-3.6A11.37,11.37,0,0,0,489,90a3.82,3.82,0,0,0-7.16,0,11.37,11.37,0,0,0-.4,3.6,11.37,11.37,0,0,0,.4,3.6,3.82,3.82,0,0,0,7.16,0Z"/><path d="M509.43,103.2a.38.38,0,0,1-.4-.4v-1.4h0c-.92,1.32-2.72,2.24-5.44,2.24-3.52,0-6.48-1.84-6.48-5.88,0-4.2,3-6.12,7.72-6.12h3.92a.21.21,0,0,0,.24-.24v-.92c0-2.2-1-3.2-4.28-3.2a6.76,6.76,0,0,0-4.4,1.32.36.36,0,0,1-.56-.08l-1.48-2.64a.37.37,0,0,1,.08-.52,11.25,11.25,0,0,1,6.84-1.88c5.88,0,8,2,8,6.72v12.6a.38.38,0,0,1-.4.4ZM509,96.72V95.24a.21.21,0,0,0-.24-.24h-3.2c-2.88,0-4.16.8-4.16,2.6,0,1.6,1.16,2.4,3.32,2.4C507.43,100,509,98.92,509,96.72Z"/><path d="M515,110.39a.38.38,0,0,1-.4-.4v-3.2a.37.37,0,0,1,.4-.39h.88c1.6,0,2.24-.52,2.24-2.28V84.32a.38.38,0,0,1,.4-.4h3.68a.38.38,0,0,1,.4.4V104c0,4.43-2.28,6.35-6.48,6.35Zm3.52-30.11a.38.38,0,0,1-.4-.4V76.4a.38.38,0,0,1,.4-.4h3.68a.38.38,0,0,1,.4.4v3.48a.38.38,0,0,1-.4.4Z"/><path d="M539.07,103.2a.38.38,0,0,1-.4-.4v-1.4h0c-.92,1.32-2.72,2.24-5.44,2.24-3.52,0-6.48-1.84-6.48-5.88,0-4.2,3-6.12,7.72-6.12h3.92a.21.21,0,0,0,.24-.24v-.92c0-2.2-1-3.2-4.28-3.2a6.76,6.76,0,0,0-4.4,1.32.36.36,0,0,1-.56-.08l-1.48-2.64a.37.37,0,0,1,.08-.52,11.25,11.25,0,0,1,6.84-1.88c5.88,0,8,2,8,6.72v12.6a.38.38,0,0,1-.4.4Zm-.48-6.48V95.24a.21.21,0,0,0-.24-.24h-3.2c-2.88,0-4.16.8-4.16,2.6,0,1.6,1.16,2.4,3.32,2.4C537.07,100,538.59,98.92,538.59,96.72Z"/><path d="M559.59,103.2a.38.38,0,0,1-.4-.4v-1.44h0c-.92,1.32-2.52,2.28-5.12,2.28-3.28,0-5.68-1.56-6.68-4.64a16.07,16.07,0,0,1-.68-5.44,16.07,16.07,0,0,1,.68-5.44c1-3.08,3.4-4.64,6.68-4.64,2.6,0,4.2,1,5.12,2.28h0V76.4a.38.38,0,0,1,.4-.4h3.68a.38.38,0,0,1,.4.4v26.4a.38.38,0,0,1-.4.4Zm-.8-6a11.37,11.37,0,0,0,.4-3.6,11.37,11.37,0,0,0-.4-3.6,3.82,3.82,0,0,0-7.16,0,11.37,11.37,0,0,0-.4,3.6,11.37,11.37,0,0,0,.4,3.6,3.82,3.82,0,0,0,7.16,0Z"/><path d="M568.31,98.32a14.24,14.24,0,0,1-.64-4.76,14.24,14.24,0,0,1,.64-4.76c1.08-3.36,4-5.32,8-5.32s6.84,2,7.92,5.32a14.24,14.24,0,0,1,.64,4.76,14.24,14.24,0,0,1-.64,4.76c-1.08,3.36-4,5.32-7.92,5.32S569.39,101.68,568.31,98.32Zm11.56-1.2a10.89,10.89,0,0,0,.4-3.56,11,11,0,0,0-.4-3.56,3.56,3.56,0,0,0-3.6-2.52A3.61,3.61,0,0,0,572.63,90a11,11,0,0,0-.4,3.56,10.89,10.89,0,0,0,.4,3.56,3.61,3.61,0,0,0,3.64,2.52A3.56,3.56,0,0,0,579.87,97.12Z"/><path d="M589.23,103.2a.38.38,0,0,1-.4-.4V84.32a.38.38,0,0,1,.4-.4h3.68a.38.38,0,0,1,.4.4V86h0a5.52,5.52,0,0,1,5-2.48,5.82,5.82,0,0,1,4,1.6c.2.2.24.36.08.56l-2.12,2.68a.36.36,0,0,1-.56.08,5.21,5.21,0,0,0-2.84-.92c-2.52,0-3.64,1.8-3.64,4.88V102.8a.38.38,0,0,1-.4.4Z"/><path d="M604.19,98.28a15,15,0,0,1-.68-4.72,15.36,15.36,0,0,1,.64-4.76c1.08-3.36,4-5.32,7.88-5.32s6.84,2,7.92,5.32a17.27,17.27,0,0,1,.64,5.8.39.39,0,0,1-.44.4H608.27a.21.21,0,0,0-.24.24,4.48,4.48,0,0,0,4.6,4.4,5.81,5.81,0,0,0,4.52-1.84.41.41,0,0,1,.6-.08l2.36,2.08a.36.36,0,0,1,0,.56,10.16,10.16,0,0,1-7.92,3.28C608.15,103.64,605.27,101.64,604.19,98.28Zm11.64-8.52a4.12,4.12,0,0,0-7.56,0A4.89,4.89,0,0,0,608,91.4a.21.21,0,0,0,.24.24h7.56a.21.21,0,0,0,.24-.24A4.89,4.89,0,0,0,615.83,89.76Z"/><path d="M623.43,100.6a.39.39,0,0,1,0-.56l2.28-2.4a.39.39,0,0,1,.56,0,8.92,8.92,0,0,0,5.64,2.2c2.36,0,3.56-1,3.56-2.28,0-1.16-.68-1.88-3.2-2.12l-2.08-.2c-3.92-.4-5.92-2.4-5.92-5.68,0-3.72,2.68-6.08,7.48-6.08A11.69,11.69,0,0,1,639,85.84a.4.4,0,0,1,.08.56l-2,2.36a.39.39,0,0,1-.56.08,9.31,9.31,0,0,0-5-1.6c-1.92,0-2.92.84-2.92,2s.68,1.8,3.16,2l2.08.2c4,.4,6,2.48,6,5.64,0,3.84-2.8,6.52-8.08,6.52A12,12,0,0,1,623.43,100.6Z"/><path d="M643.43,98.72a.38.38,0,0,1,.4-.4h4a.38.38,0,0,1,.4.4v4.08a.38.38,0,0,1-.4.4h-4a.38.38,0,0,1-.4-.4Z"/></g></g></svg>