<svg xmlns="http://www.w3.org/2000/svg" viewBox="0 0 426.83 148.83"><title>p4</title><g id="Capa_2" data-name="Capa 2"><g id="pregunta_vector" data-name="pregunta vector"><path d="M31,14c0-4.32.16-5.68.72-7.36C33.12,2.24,36.56,0,41.16,0a9.57,9.57,0,0,1,9.2,5.84.35.35,0,0,1-.2.48L46.76,8a.36.36,0,0,1-.52-.2,5.37,5.37,0,0,0-5.08-3.52,4.82,4.82,0,0,0-4.88,3.6C35.92,9,35.8,10,35.8,14s.12,5.08.48,6.2a4.82,4.82,0,0,0,4.88,3.6,5.37,5.37,0,0,0,5.08-3.52.36.36,0,0,1,.52-.2l3.4,1.64a.35.35,0,0,1,.2.48,9.57,9.57,0,0,1-9.2,5.84c-4.6,0-8-2.24-9.44-6.68C31.16,19.72,31,18.36,31,14Z"/><path d="M53.52,22.76A14.24,14.24,0,0,1,52.88,18a14.24,14.24,0,0,1,.64-4.76c1.08-3.36,4-5.32,8-5.32s6.84,2,7.92,5.32A14.24,14.24,0,0,1,70,18a14.24,14.24,0,0,1-.64,4.76c-1.08,3.36-4,5.32-7.92,5.32S54.6,26.12,53.52,22.76Zm11.56-1.2a10.89,10.89,0,0,0,.4-3.56,11,11,0,0,0-.4-3.56,3.56,3.56,0,0,0-3.6-2.52,3.61,3.61,0,0,0-3.64,2.52,11,11,0,0,0-.4,3.56,10.89,10.89,0,0,0,.4,3.56,3.61,3.61,0,0,0,3.64,2.52A3.56,3.56,0,0,0,65.08,21.56Z"/><path d="M86.24,27.64a.38.38,0,0,1-.4-.4V16.12c0-2.48-1.24-4.2-3.64-4.2s-3.68,1.72-3.68,4.2V27.24a.38.38,0,0,1-.4.4H74.44a.38.38,0,0,1-.4-.4V8.76a.38.38,0,0,1,.4-.4h3.68a.38.38,0,0,1,.4.4v1.4h0a6,6,0,0,1,5.08-2.24c4.12,0,6.68,3,6.68,7.16V27.24a.38.38,0,0,1-.4.4Z"/><path d="M100.8,27.88c-3.88,0-5.36-1.88-5.36-5.64V12.08a.21.21,0,0,0-.24-.24H93.92a.38.38,0,0,1-.4-.4V8.76a.38.38,0,0,1,.4-.4H95.2a.21.21,0,0,0,.24-.24V2.84a.38.38,0,0,1,.4-.4h3.68a.38.38,0,0,1,.4.4V8.12a.21.21,0,0,0,.24.24h2.56a.38.38,0,0,1,.4.4v2.68a.38.38,0,0,1-.4.4h-2.56a.21.21,0,0,0-.24.24v10c0,1.36.56,1.8,1.8,1.8h1a.38.38,0,0,1,.4.4v3.2a.38.38,0,0,1-.4.4Z"/><path d="M118.68,27.64a.38.38,0,0,1-.4-.4v-1.4h0c-.92,1.32-2.72,2.24-5.44,2.24-3.52,0-6.48-1.84-6.48-5.88,0-4.2,3-6.12,7.72-6.12H118a.21.21,0,0,0,.24-.24v-.92c0-2.2-1-3.2-4.28-3.2a6.76,6.76,0,0,0-4.4,1.32A.36.36,0,0,1,109,13l-1.48-2.64a.37.37,0,0,1,.08-.52,11.25,11.25,0,0,1,6.84-1.88c5.88,0,8,2,8,6.72v12.6a.37.37,0,0,1-.39.4Zm-.48-6.48V19.68a.21.21,0,0,0-.24-.24h-3.2c-2.88,0-4.16.8-4.16,2.6,0,1.6,1.16,2.4,3.32,2.4C116.68,24.44,118.2,23.36,118.2,21.16Z"/><path d="M126.88,22.76a15.15,15.15,0,0,1-.6-4.76,15.15,15.15,0,0,1,.6-4.76c1.12-3.44,4.08-5.32,8-5.32a8.4,8.4,0,0,1,6.68,3,.4.4,0,0,1-.05.56L139,13.68a.36.36,0,0,1-.56-.08,4.37,4.37,0,0,0-3.56-1.68,3.54,3.54,0,0,0-3.6,2.52,11.33,11.33,0,0,0-.4,3.56,11.6,11.6,0,0,0,.4,3.6,3.55,3.55,0,0,0,3.6,2.48,4.37,4.37,0,0,0,3.56-1.68.36.36,0,0,1,.56,0l2.51,2.2c.2.16.16.36.05.56a8.49,8.49,0,0,1-6.68,3C131,28.08,128,26.2,126.88,22.76Z"/><path d="M151.16,27.88c-3.88,0-5.36-1.88-5.36-5.64V12.08a.21.21,0,0,0-.24-.24h-1.28a.38.38,0,0,1-.4-.4V8.76a.38.38,0,0,1,.4-.4h1.28a.21.21,0,0,0,.24-.24V2.84a.38.38,0,0,1,.4-.4h3.68a.38.38,0,0,1,.4.4V8.12a.21.21,0,0,0,.24.24h2.56a.38.38,0,0,1,.4.4v2.68a.38.38,0,0,1-.4.4h-2.56a.21.21,0,0,0-.24.24v10c0,1.36.56,1.8,1.8,1.8h1a.38.38,0,0,1,.4.4v3.2a.38.38,0,0,1-.4.4Z"/><path d="M157.16,22.76a14.24,14.24,0,0,1-.64-4.76,14.24,14.24,0,0,1,.64-4.76c1.08-3.36,4-5.32,8-5.32s6.83,2,7.91,5.32a14.24,14.24,0,0,1,.64,4.76,14.24,14.24,0,0,1-.64,4.76c-1.08,3.36-4,5.32-7.91,5.32S158.24,26.12,157.16,22.76Zm11.55-1.2a10.58,10.58,0,0,0,.41-3.56,10.73,10.73,0,0,0-.41-3.56,3.55,3.55,0,0,0-3.59-2.52,3.61,3.61,0,0,0-3.64,2.52,11,11,0,0,0-.4,3.56,10.89,10.89,0,0,0,.4,3.56,3.61,3.61,0,0,0,3.64,2.52A3.55,3.55,0,0,0,168.71,21.56Z"/><path d="M185.88,22.76a15.15,15.15,0,0,1-.6-4.76,15.15,15.15,0,0,1,.6-4.76c1.12-3.44,4.08-5.32,8-5.32a8.4,8.4,0,0,1,6.68,3,.39.39,0,0,1,0,.56L198,13.68a.36.36,0,0,1-.56-.08,4.37,4.37,0,0,0-3.56-1.68,3.52,3.52,0,0,0-3.59,2.52,11.33,11.33,0,0,0-.4,3.56,11.6,11.6,0,0,0,.4,3.6,3.54,3.54,0,0,0,3.59,2.48,4.37,4.37,0,0,0,3.56-1.68.36.36,0,0,1,.56,0l2.52,2.2c.2.16.16.36,0,.56a8.49,8.49,0,0,1-6.68,3C190,28.08,187,26.2,185.88,22.76Z"/><path d="M204.12,22.76a14.24,14.24,0,0,1-.64-4.76,14.24,14.24,0,0,1,.64-4.76c1.08-3.36,4-5.32,7.95-5.32s6.84,2,7.92,5.32a14.24,14.24,0,0,1,.64,4.76,14.24,14.24,0,0,1-.64,4.76c-1.08,3.36-4,5.32-7.92,5.32S205.2,26.12,204.12,22.76Zm11.55-1.2a10.89,10.89,0,0,0,.4-3.56,11,11,0,0,0-.4-3.56,3.56,3.56,0,0,0-3.6-2.52,3.61,3.61,0,0,0-3.63,2.52A11,11,0,0,0,208,18a10.89,10.89,0,0,0,.4,3.56,3.61,3.61,0,0,0,3.63,2.52A3.56,3.56,0,0,0,215.67,21.56Z"/><path d="M236.83,27.64a.38.38,0,0,1-.4-.4V16.12c0-2.48-1.24-4.2-3.64-4.2s-3.67,1.72-3.67,4.2V27.24a.38.38,0,0,1-.41.4H225a.38.38,0,0,1-.4-.4V8.76a.38.38,0,0,1,.4-.4h3.67a.38.38,0,0,1,.41.4v1.4h0a5.94,5.94,0,0,1,5.07-2.24c4.12,0,6.68,3,6.68,7.16V27.24a.38.38,0,0,1-.4.4Z"/><path d="M254.79,27.64a.38.38,0,0,1-.4-.4V8.76a.38.38,0,0,1,.4-.4h3.68a.38.38,0,0,1,.4.4V10.4h0a5.52,5.52,0,0,1,5-2.48,5.82,5.82,0,0,1,4,1.6c.2.2.24.36.08.56l-2.12,2.68a.36.36,0,0,1-.56.08,5.21,5.21,0,0,0-2.84-.92c-2.52,0-3.64,1.8-3.64,4.88V27.24a.38.38,0,0,1-.4.4Z"/><path d="M269.75,22.72a15,15,0,0,1-.68-4.72,15.36,15.36,0,0,1,.64-4.76c1.08-3.36,4-5.32,7.88-5.32s6.84,2,7.92,5.32a17.27,17.27,0,0,1,.64,5.8.39.39,0,0,1-.44.4H273.83a.21.21,0,0,0-.24.24,4.24,4.24,0,0,0,.28,1.48,4.21,4.21,0,0,0,4.32,2.92,5.81,5.81,0,0,0,4.52-1.84.41.41,0,0,1,.6-.08l2.36,2.08a.36.36,0,0,1,0,.56,10.16,10.16,0,0,1-7.92,3.28C273.71,28.08,270.83,26.08,269.75,22.72Zm11.64-8.52a4.12,4.12,0,0,0-7.56,0,4.89,4.89,0,0,0-.24,1.64.21.21,0,0,0,.24.24h7.56a.21.21,0,0,0,.24-.24A4.89,4.89,0,0,0,281.39,14.2Z"/><path d="M302,27.64a.38.38,0,0,1-.4-.4V25.8h0c-.92,1.32-2.52,2.28-5.12,2.28-3.28,0-5.68-1.56-6.68-4.64a16.07,16.07,0,0,1-.68-5.44,16.07,16.07,0,0,1,.68-5.44c1-3.08,3.4-4.64,6.68-4.64,2.6,0,4.2,1,5.12,2.28h0V.84a.38.38,0,0,1,.4-.4h3.68a.38.38,0,0,1,.4.4v26.4a.38.38,0,0,1-.4.4Zm-.8-6a11.37,11.37,0,0,0,.4-3.6,11.37,11.37,0,0,0-.4-3.6,3.82,3.82,0,0,0-7.16,0,11.37,11.37,0,0,0-.4,3.6,11.37,11.37,0,0,0,.4,3.6,3.82,3.82,0,0,0,7.16,0Z"/><path d="M310.79,22.72a15,15,0,0,1-.68-4.72,15.36,15.36,0,0,1,.64-4.76c1.08-3.36,4-5.32,7.88-5.32s6.84,2,7.92,5.32a17.27,17.27,0,0,1,.64,5.8.39.39,0,0,1-.44.4H314.87a.21.21,0,0,0-.24.24,4.24,4.24,0,0,0,.28,1.48,4.21,4.21,0,0,0,4.32,2.92,5.81,5.81,0,0,0,4.52-1.84.41.41,0,0,1,.6-.08l2.36,2.08a.36.36,0,0,1,0,.56,10.16,10.16,0,0,1-7.92,3.28C314.75,28.08,311.87,26.08,310.79,22.72Zm11.64-8.52a4.12,4.12,0,0,0-7.56,0,4.89,4.89,0,0,0-.24,1.64.21.21,0,0,0,.24.24h7.56a.21.21,0,0,0,.24-.24A4.89,4.89,0,0,0,322.43,14.2Z"/><path d="M330,25a.39.39,0,0,1,0-.56l2.28-2.4a.39.39,0,0,1,.56,0,8.92,8.92,0,0,0,5.64,2.2c2.36,0,3.56-1,3.56-2.28,0-1.16-.68-1.88-3.2-2.12l-2.08-.2c-3.92-.4-5.92-2.4-5.92-5.68,0-3.72,2.68-6.08,7.48-6.08a11.69,11.69,0,0,1,7.24,2.36.4.4,0,0,1,.08.56l-2,2.36a.39.39,0,0,1-.56.08,9.31,9.31,0,0,0-5-1.6c-1.92,0-2.92.84-2.92,2s.68,1.8,3.16,2l2.08.2c4,.4,6,2.48,6,5.64,0,3.84-2.8,6.52-8.08,6.52A12,12,0,0,1,330,25Z"/><path d="M370.83,27.64a.38.38,0,0,1-.4-.4V25.8h0c-.92,1.32-2.52,2.28-5.12,2.28-3.28,0-5.68-1.56-6.68-4.64a16.07,16.07,0,0,1-.68-5.44,16.07,16.07,0,0,1,.68-5.44c1-3.08,3.4-4.64,6.68-4.64,2.6,0,4.2,1,5.12,2.28h0V.84a.38.38,0,0,1,.4-.4h3.68a.38.38,0,0,1,.4.4v26.4a.38.38,0,0,1-.4.4Zm-.8-6a11.37,11.37,0,0,0,.4-3.6,11.37,11.37,0,0,0-.4-3.6,3.82,3.82,0,0,0-7.16,0,11.37,11.37,0,0,0-.4,3.6,11.37,11.37,0,0,0,.4,3.6,3.82,3.82,0,0,0,7.16,0Z"/><path d="M379.59,22.72a15,15,0,0,1-.68-4.72,15.36,15.36,0,0,1,.64-4.76c1.08-3.36,4-5.32,7.88-5.32s6.84,2,7.92,5.32A17.27,17.27,0,0,1,396,19a.39.39,0,0,1-.44.4H383.67a.21.21,0,0,0-.24.24,4.24,4.24,0,0,0,.28,1.48A4.21,4.21,0,0,0,388,24.08a5.81,5.81,0,0,0,4.52-1.84.41.41,0,0,1,.6-.08l2.36,2.08a.36.36,0,0,1,0,.56,10.16,10.16,0,0,1-7.92,3.28C383.55,28.08,380.67,26.08,379.59,22.72Zm11.64-8.52a4.12,4.12,0,0,0-7.56,0,4.89,4.89,0,0,0-.24,1.64.21.21,0,0,0,.24.24h7.56a.21.21,0,0,0,.24-.24A4.89,4.89,0,0,0,391.23,14.2Z"/><path d="M12.36,65.64a.38.38,0,0,1-.4-.4v-1.4h0C11,65.16,9.2,66.08,6.48,66.08,3,66.08,0,64.24,0,60.2c0-4.2,3-6.12,7.72-6.12h3.92a.21.21,0,0,0,.24-.24v-.92c0-2.2-1-3.2-4.28-3.2A6.76,6.76,0,0,0,3.2,51,.36.36,0,0,1,2.64,51L1.16,48.32a.37.37,0,0,1,.08-.52,11.25,11.25,0,0,1,6.84-1.88c5.88,0,8,2,8,6.72v12.6a.38.38,0,0,1-.4.4Zm-.48-6.48V57.68a.21.21,0,0,0-.24-.24H8.44c-2.88,0-4.16.8-4.16,2.6,0,1.6,1.16,2.4,3.32,2.4C10.36,62.44,11.88,61.36,11.88,59.16Z"/><path d="M26.2,65.88c-3.76,0-5.28-1.8-5.28-5.52V38.84a.38.38,0,0,1,.4-.4H25a.38.38,0,0,1,.4.4V60.12c0,1.32.52,1.76,1.68,1.76H28a.38.38,0,0,1,.4.4v3.2a.38.38,0,0,1-.4.4Z"/><path d="M37.16,65.88c-3.88,0-5.36-1.88-5.36-5.64V50.08a.21.21,0,0,0-.24-.24H30.28a.38.38,0,0,1-.4-.4V46.76a.38.38,0,0,1,.4-.4h1.28a.21.21,0,0,0,.24-.24V40.84a.38.38,0,0,1,.4-.4h3.68a.38.38,0,0,1,.4.4v5.28a.21.21,0,0,0,.24.24h2.56a.38.38,0,0,1,.4.4v2.68a.38.38,0,0,1-.4.4H36.52a.21.21,0,0,0-.24.24v10c0,1.36.56,1.8,1.8,1.8h1a.38.38,0,0,1,.4.4v3.2a.38.38,0,0,1-.4.4Z"/><path d="M55,65.64a.38.38,0,0,1-.4-.4v-1.4h0c-.92,1.32-2.72,2.24-5.44,2.24-3.52,0-6.48-1.84-6.48-5.88,0-4.2,3-6.12,7.72-6.12h3.92a.21.21,0,0,0,.24-.24v-.92c0-2.2-1-3.2-4.28-3.2A6.76,6.76,0,0,0,45.88,51a.36.36,0,0,1-.56-.08l-1.48-2.64a.37.37,0,0,1,.08-.52,11.25,11.25,0,0,1,6.84-1.88c5.88,0,8,2,8,6.72v12.6a.38.38,0,0,1-.4.4Zm-.48-6.48V57.68a.21.21,0,0,0-.24-.24h-3.2c-2.88,0-4.16.8-4.16,2.6,0,1.6,1.16,2.4,3.32,2.4C53,62.44,54.56,61.36,54.56,59.16Z"/><path d="M63.4,61.16a.38.38,0,0,1,.4-.4h3.76a.38.38,0,0,1,.4.4v4.36a1,1,0,0,1-.28.83l-3.32,3.44a.76.76,0,0,1-.56.28.38.38,0,0,1-.4-.4Z"/><path d="M104.59,65.64a.37.37,0,0,1-.39-.4V54.12c0-2.48-1.24-4.2-3.65-4.2s-3.67,1.72-3.67,4.2V65.24a.38.38,0,0,1-.4.4H92.8a.38.38,0,0,1-.4-.4V54.12c0-2.48-1.24-4.2-3.64-4.2s-3.68,1.72-3.68,4.2V65.24a.38.38,0,0,1-.4.4H81a.38.38,0,0,1-.4-.4V46.76a.38.38,0,0,1,.4-.4h3.68a.38.38,0,0,1,.4.4v1.4h0a6,6,0,0,1,5.08-2.24,6.2,6.2,0,0,1,5.28,2.56h0a7.88,7.88,0,0,1,6.16-2.56c4.47,0,7,3,7,7.16V65.24a.38.38,0,0,1-.4.4Z"/><path d="M113.16,60.72a15,15,0,0,1-.68-4.72,15.36,15.36,0,0,1,.64-4.76c1.08-3.36,4-5.32,7.88-5.32s6.84,2,7.92,5.32a17.27,17.27,0,0,1,.64,5.8.39.39,0,0,1-.44.4H117.24a.21.21,0,0,0-.24.24,4.48,4.48,0,0,0,4.6,4.4,5.81,5.81,0,0,0,4.52-1.84.41.41,0,0,1,.6-.08l2.36,2.08a.36.36,0,0,1,0,.56,10.16,10.16,0,0,1-7.92,3.28C117.12,66.08,114.24,64.08,113.16,60.72ZM124.8,52.2a4.12,4.12,0,0,0-7.56,0,4.89,4.89,0,0,0-.24,1.64.21.21,0,0,0,.24.24h7.56a.21.21,0,0,0,.24-.24A4.89,4.89,0,0,0,124.8,52.2Z"/><path d="M145.44,65.64a.38.38,0,0,1-.4-.4V63.8h0c-.92,1.32-2.52,2.28-5.12,2.28-3.28,0-5.68-1.56-6.68-4.64a16.07,16.07,0,0,1-.68-5.44,16.07,16.07,0,0,1,.68-5.44c1-3.08,3.4-4.64,6.68-4.64,2.6,0,4.2,1,5.12,2.28h0V38.84a.38.38,0,0,1,.4-.4h3.68a.38.38,0,0,1,.4.4v26.4a.38.38,0,0,1-.4.4Zm-.8-6A11.37,11.37,0,0,0,145,56a11.37,11.37,0,0,0-.4-3.6,3.82,3.82,0,0,0-7.16,0,11.37,11.37,0,0,0-.4,3.6,11.37,11.37,0,0,0,.4,3.6,3.82,3.82,0,0,0,7.16,0Z"/><path d="M155,42.72a.38.38,0,0,1-.4-.4V38.84a.38.38,0,0,1,.4-.4h3.68a.38.38,0,0,1,.4.4v3.48a.38.38,0,0,1-.4.4Zm0,22.92a.38.38,0,0,1-.4-.4V46.76a.38.38,0,0,1,.4-.4h3.68a.38.38,0,0,1,.4.4V65.24a.38.38,0,0,1-.4.4Z"/><path d="M175.56,65.64a.38.38,0,0,1-.4-.4v-1.4h0c-.92,1.32-2.72,2.24-5.44,2.24-3.52,0-6.48-1.84-6.48-5.88,0-4.2,3-6.12,7.72-6.12h3.92a.21.21,0,0,0,.24-.24v-.92c0-2.2-1-3.2-4.28-3.2A6.76,6.76,0,0,0,166.4,51a.36.36,0,0,1-.56-.08l-1.48-2.64a.37.37,0,0,1,.08-.52,11.25,11.25,0,0,1,6.84-1.88c5.88,0,8,2,8,6.72v12.6a.37.37,0,0,1-.39.4Zm-.48-6.48V57.68a.21.21,0,0,0-.24-.24h-3.2c-2.88,0-4.16.8-4.16,2.6,0,1.6,1.16,2.4,3.32,2.4C173.56,62.44,175.08,61.36,175.08,59.16Z"/><path d="M193.52,72.83a.38.38,0,0,1-.4-.4v-3.2a.38.38,0,0,1,.4-.4h.72c1.52,0,2.28-.68,2.88-2.27l.56-1.64-7-18.16c-.08-.24.08-.4.32-.4h4a.51.51,0,0,1,.48.4l4.36,12.6h.08L204,46.76a.51.51,0,0,1,.48-.4h3.8a.29.29,0,0,1,.31.4l-7.35,20.07c-1.68,4.56-3.28,6-6.48,6Z"/><path d="M224.6,63.8h0v1.44a.38.38,0,0,1-.4.4h-3.68a.38.38,0,0,1-.4-.4V38.84a.38.38,0,0,1,.4-.4h3.68a.38.38,0,0,1,.4.4V48.2h0c.92-1.32,2.52-2.28,5.11-2.28,3.28,0,5.68,1.56,6.68,4.64a16.07,16.07,0,0,1,.68,5.44,16.07,16.07,0,0,1-.68,5.44c-1,3.08-3.4,4.64-6.68,4.64C227.12,66.08,225.52,65.12,224.6,63.8Zm7.51-4.2a11.37,11.37,0,0,0,.4-3.6,11.37,11.37,0,0,0-.4-3.6,3.82,3.82,0,0,0-7.15,0,11.37,11.37,0,0,0-.4,3.6,11.37,11.37,0,0,0,.4,3.6,3.82,3.82,0,0,0,7.15,0Z"/><path d="M252.55,65.64a.38.38,0,0,1-.4-.4v-1.4h0c-.92,1.32-2.72,2.24-5.43,2.24-3.52,0-6.48-1.84-6.48-5.88,0-4.2,3-6.12,7.72-6.12h3.91a.21.21,0,0,0,.24-.24v-.92c0-2.2-1-3.2-4.28-3.2A6.73,6.73,0,0,0,243.4,51a.36.36,0,0,1-.56-.08l-1.48-2.64a.37.37,0,0,1,.08-.52,11.25,11.25,0,0,1,6.84-1.88c5.87,0,8,2,8,6.72v12.6a.38.38,0,0,1-.4.4Zm-.48-6.48V57.68a.21.21,0,0,0-.24-.24h-3.2c-2.87,0-4.15.8-4.15,2.6,0,1.6,1.15,2.4,3.31,2.4C250.55,62.44,252.07,61.36,252.07,59.16Z"/><path d="M258.08,72.83a.38.38,0,0,1-.4-.4v-3.2a.38.38,0,0,1,.4-.4H259c1.6,0,2.24-.52,2.24-2.27V46.76a.38.38,0,0,1,.4-.4h3.68a.38.38,0,0,1,.4.4V66.48c0,4.43-2.28,6.35-6.48,6.35Zm3.52-30.11a.38.38,0,0,1-.4-.4V38.84a.38.38,0,0,1,.4-.4h3.68a.38.38,0,0,1,.4.4v3.48a.38.38,0,0,1-.4.4Z"/><path d="M282.19,65.64a.38.38,0,0,1-.4-.4v-1.4h0c-.92,1.32-2.71,2.24-5.44,2.24-3.52,0-6.47-1.84-6.47-5.88,0-4.2,3-6.12,7.71-6.12h3.92a.21.21,0,0,0,.24-.24v-.92c0-2.2-1-3.2-4.28-3.2A6.75,6.75,0,0,0,273,51a.36.36,0,0,1-.56-.08L271,48.32a.37.37,0,0,1,.08-.52,11.24,11.24,0,0,1,6.83-1.88c5.88,0,8,2,8,6.72v12.6a.38.38,0,0,1-.4.4Zm-.48-6.48V57.68a.21.21,0,0,0-.24-.24h-3.2c-2.88,0-4.15.8-4.15,2.6,0,1.6,1.16,2.4,3.31,2.4C280.19,62.44,281.71,61.36,281.71,59.16Z"/><path d="M305.12,65.88c-3.88,0-5.36-1.88-5.36-5.64V50.08a.21.21,0,0,0-.24-.24h-1.28a.38.38,0,0,1-.4-.4V46.76a.38.38,0,0,1,.4-.4h1.28a.21.21,0,0,0,.24-.24V40.84a.38.38,0,0,1,.4-.4h3.67a.38.38,0,0,1,.4.4v5.28a.21.21,0,0,0,.24.24H307a.38.38,0,0,1,.4.4v2.68a.38.38,0,0,1-.4.4h-2.56a.21.21,0,0,0-.24.24v10c0,1.36.56,1.8,1.81,1.8h1a.38.38,0,0,1,.4.4v3.2a.38.38,0,0,1-.4.4Z"/><path d="M311.16,60.72a15,15,0,0,1-.68-4.72,15.36,15.36,0,0,1,.64-4.76c1.08-3.36,4-5.32,7.87-5.32s6.84,2,7.92,5.32a17.27,17.27,0,0,1,.64,5.8.39.39,0,0,1-.44.4H315.23a.21.21,0,0,0-.23.24,4.48,4.48,0,0,0,4.59,4.4,5.81,5.81,0,0,0,4.52-1.84.41.41,0,0,1,.6-.08l2.36,2.08a.36.36,0,0,1,0,.56,10.16,10.16,0,0,1-7.92,3.28C315.12,66.08,312.24,64.08,311.16,60.72Zm11.63-8.52a4.12,4.12,0,0,0-7.56,0,5.18,5.18,0,0,0-.23,1.64.21.21,0,0,0,.23.24h7.56a.21.21,0,0,0,.24-.24A4.89,4.89,0,0,0,322.79,52.2Z"/><path d="M343.75,65.64a.38.38,0,0,1-.4-.4V54.12c0-2.48-1.24-4.2-3.64-4.2S336,51.64,336,54.12V65.24a.38.38,0,0,1-.41.4H332a.38.38,0,0,1-.4-.4V46.76a.38.38,0,0,1,.4-.4h3.67a.38.38,0,0,1,.41.4v1.4h0a5.94,5.94,0,0,1,5.07-2.24c4.12,0,6.68,3,6.68,7.16V65.24a.38.38,0,0,1-.4.4Z"/><path d="M351.52,63a.39.39,0,0,1,0-.56l2.27-2.4a.39.39,0,0,1,.56,0,8.92,8.92,0,0,0,5.64,2.2c2.36,0,3.56-1,3.56-2.28,0-1.16-.68-1.88-3.2-2.12l-2.08-.2c-3.92-.4-5.91-2.4-5.91-5.68,0-3.72,2.68-6.08,7.47-6.08a11.69,11.69,0,0,1,7.24,2.36.4.4,0,0,1,.08.56l-2,2.36a.39.39,0,0,1-.56.08,9.31,9.31,0,0,0-5-1.6c-1.92,0-2.92.84-2.92,2s.68,1.8,3.16,2l2.08.2c4,.4,6,2.48,6,5.64,0,3.84-2.8,6.52-8.08,6.52A11.93,11.93,0,0,1,351.52,63Z"/><path d="M372.19,42.72a.38.38,0,0,1-.4-.4V38.84a.38.38,0,0,1,.4-.4h3.68a.38.38,0,0,1,.4.4v3.48a.38.38,0,0,1-.4.4Zm0,22.92a.38.38,0,0,1-.4-.4V46.76a.38.38,0,0,1,.4-.4h3.68a.38.38,0,0,1,.4.4V65.24a.38.38,0,0,1-.4.4Z"/><path d="M380.91,60.76a14.24,14.24,0,0,1-.64-4.76,14.24,14.24,0,0,1,.64-4.76c1.08-3.36,4-5.32,8-5.32s6.84,2,7.92,5.32a14.24,14.24,0,0,1,.64,4.76,14.24,14.24,0,0,1-.64,4.76c-1.08,3.36-4,5.32-7.92,5.32S382,64.12,380.91,60.76Zm11.56-1.2a10.89,10.89,0,0,0,.4-3.56,11,11,0,0,0-.4-3.56,3.56,3.56,0,0,0-3.6-2.52,3.61,3.61,0,0,0-3.64,2.52,11,11,0,0,0-.4,3.56,10.89,10.89,0,0,0,.4,3.56,3.61,3.61,0,0,0,3.64,2.52A3.56,3.56,0,0,0,392.47,59.56ZM387,43.44c-.24,0-.36-.16-.24-.4l3-5a.76.76,0,0,1,.72-.4h3.64c.24,0,.36.2.2.4l-3.8,5a.93.93,0,0,1-.8.4Z"/><path d="M413.63,65.64a.38.38,0,0,1-.4-.4V54.12c0-2.48-1.24-4.2-3.64-4.2s-3.68,1.72-3.68,4.2V65.24a.38.38,0,0,1-.4.4h-3.68a.38.38,0,0,1-.4-.4V46.76a.38.38,0,0,1,.4-.4h3.68a.38.38,0,0,1,.4.4v1.4h0A6,6,0,0,1,411,45.92c4.12,0,6.68,3,6.68,7.16V65.24a.38.38,0,0,1-.4.4Z"/><path d="M422.27,61.16a.38.38,0,0,1,.4-.4h3.76a.38.38,0,0,1,.4.4v4.36a1,1,0,0,1-.28.83l-3.32,3.44a.76.76,0,0,1-.56.28.38.38,0,0,1-.4-.4Z"/><path d="M18.52,98.76a15.15,15.15,0,0,1-.6-4.76,15.15,15.15,0,0,1,.6-4.76c1.12-3.44,4.08-5.32,8-5.32a8.4,8.4,0,0,1,6.68,3,.39.39,0,0,1,0,.56l-2.52,2.2A.36.36,0,0,1,30,89.6a4.37,4.37,0,0,0-3.56-1.68,3.54,3.54,0,0,0-3.6,2.52,11.33,11.33,0,0,0-.4,3.56,11.6,11.6,0,0,0,.4,3.6,3.55,3.55,0,0,0,3.6,2.48A4.37,4.37,0,0,0,30,98.4a.36.36,0,0,1,.56,0l2.52,2.2c.2.16.16.36,0,.56a8.49,8.49,0,0,1-6.68,3C22.6,104.08,19.64,102.2,18.52,98.76Z"/><path d="M47.92,103.64a.38.38,0,0,1-.4-.4v-1.4h0c-.92,1.32-2.72,2.24-5.44,2.24-3.52,0-6.48-1.84-6.48-5.88,0-4.2,3-6.12,7.72-6.12H47.2a.21.21,0,0,0,.24-.24v-.92c0-2.2-1-3.2-4.28-3.2A6.76,6.76,0,0,0,38.76,89,.36.36,0,0,1,38.2,89l-1.48-2.64a.37.37,0,0,1,.08-.52,11.25,11.25,0,0,1,6.84-1.88c5.88,0,8,2,8,6.72v12.6a.38.38,0,0,1-.4.4Zm-.48-6.48V95.68a.21.21,0,0,0-.24-.24H44c-2.88,0-4.16.8-4.16,2.6,0,1.6,1.16,2.4,3.32,2.4C45.92,100.44,47.44,99.36,47.44,97.16Z"/><path d="M68.4,103.64a.38.38,0,0,1-.4-.4v-1.4h0a5.91,5.91,0,0,1-5,2.24c-4.12,0-6.64-3-6.64-7.16V84.76a.38.38,0,0,1,.4-.4H60.4a.38.38,0,0,1,.4.4V95.88c0,2.48,1.16,4.2,3.6,4.2,2.28,0,3.6-1.72,3.6-4.16V84.76a.38.38,0,0,1,.4-.4h3.68a.38.38,0,0,1,.4.4v18.48a.38.38,0,0,1-.4.4Z"/><path d="M76.36,101a.39.39,0,0,1,0-.56l2.28-2.4a.39.39,0,0,1,.56,0,8.92,8.92,0,0,0,5.64,2.2c2.36,0,3.56-1,3.56-2.28,0-1.16-.68-1.88-3.2-2.12l-2.08-.2c-3.92-.4-5.92-2.4-5.92-5.68,0-3.72,2.68-6.08,7.48-6.08a11.69,11.69,0,0,1,7.24,2.36.4.4,0,0,1,.08.56L90,89.2a.39.39,0,0,1-.56.08,9.31,9.31,0,0,0-5-1.6c-1.92,0-2.92.84-2.92,2s.68,1.8,3.16,2l2.08.2c4,.4,6,2.48,6,5.64,0,3.84-2.8,6.52-8.08,6.52A12,12,0,0,1,76.36,101Z"/><path d="M108.12,103.64a.38.38,0,0,1-.4-.4v-1.4h0c-.92,1.32-2.72,2.24-5.44,2.24-3.52,0-6.48-1.84-6.48-5.88,0-4.2,3-6.12,7.72-6.12h3.92a.21.21,0,0,0,.24-.24v-.92c0-2.2-1-3.2-4.28-3.2A6.76,6.76,0,0,0,99,89,.36.36,0,0,1,98.4,89l-1.48-2.64A.37.37,0,0,1,97,85.8a11.25,11.25,0,0,1,6.84-1.88c5.88,0,8,2,8,6.72v12.6a.39.39,0,0,1-.41.4Zm-.48-6.48V95.68a.21.21,0,0,0-.24-.24h-3.2c-2.88,0-4.16.8-4.16,2.6,0,1.6,1.16,2.4,3.32,2.4C106.12,100.44,107.64,99.36,107.64,97.16Z"/><path d="M129,103.64a.38.38,0,0,1-.4-.4V92.12c0-2.48-1.24-4.2-3.64-4.2s-3.68,1.72-3.68,4.2v11.12a.38.38,0,0,1-.4.4h-3.68a.38.38,0,0,1-.4-.4V84.76a.38.38,0,0,1,.4-.4h3.68a.38.38,0,0,1,.4.4v1.4h0a6,6,0,0,1,5.08-2.24c4.12,0,6.68,3,6.68,7.16v12.16a.38.38,0,0,1-.41.4Z"/><path d="M149.76,103.64a.38.38,0,0,1-.4-.4V101.8h0c-.92,1.32-2.52,2.28-5.12,2.28-3.28,0-5.68-1.56-6.68-4.64a16.07,16.07,0,0,1-.68-5.44,16.07,16.07,0,0,1,.68-5.44c1-3.08,3.4-4.64,6.68-4.64,2.6,0,4.2,1,5.12,2.28h0V76.84a.38.38,0,0,1,.4-.4h3.68a.38.38,0,0,1,.39.4v26.4a.38.38,0,0,1-.39.4Zm-.8-6a11.37,11.37,0,0,0,.4-3.6,11.37,11.37,0,0,0-.4-3.6,3.82,3.82,0,0,0-7.16,0,11.37,11.37,0,0,0-.4,3.6,11.37,11.37,0,0,0,.4,3.6,3.82,3.82,0,0,0,7.16,0Z"/><path d="M158.48,98.76a14.24,14.24,0,0,1-.64-4.76,14.24,14.24,0,0,1,.64-4.76c1.08-3.36,4-5.32,8-5.32s6.83,2,7.91,5.32A14.24,14.24,0,0,1,175,94a14.24,14.24,0,0,1-.64,4.76c-1.08,3.36-4,5.32-7.91,5.32S159.56,102.12,158.48,98.76ZM170,97.56a10.89,10.89,0,0,0,.4-3.56,11,11,0,0,0-.4-3.56,3.57,3.57,0,0,0-3.6-2.52,3.61,3.61,0,0,0-3.64,2.52,11,11,0,0,0-.4,3.56,10.89,10.89,0,0,0,.4,3.56,3.61,3.61,0,0,0,3.64,2.52A3.57,3.57,0,0,0,170,97.56Z"/><path d="M187.28,98.72A15,15,0,0,1,186.6,94a15.36,15.36,0,0,1,.64-4.76c1.08-3.36,4-5.32,7.88-5.32S202,86,203,89.24a17.27,17.27,0,0,1,.64,5.8.39.39,0,0,1-.44.4H191.36a.21.21,0,0,0-.24.24,4.48,4.48,0,0,0,4.59,4.4,5.8,5.8,0,0,0,4.52-1.84.41.41,0,0,1,.6-.08l2.36,2.08a.36.36,0,0,1,0,.56,10.15,10.15,0,0,1-7.92,3.28C191.24,104.08,188.36,102.08,187.28,98.72Zm11.63-8.52a4.11,4.11,0,0,0-7.55,0,4.89,4.89,0,0,0-.24,1.64.21.21,0,0,0,.24.24h7.55a.21.21,0,0,0,.24-.24A4.89,4.89,0,0,0,198.91,90.2Z"/><path d="M212.88,103.88c-3.76,0-5.28-1.8-5.28-5.52V76.84a.38.38,0,0,1,.4-.4h3.68a.38.38,0,0,1,.4.4V98.12c0,1.32.52,1.76,1.68,1.76h.87a.38.38,0,0,1,.41.4v3.2a.38.38,0,0,1-.41.4Z"/><path d="M218.16,98.72a15,15,0,0,1-.68-4.72,15.36,15.36,0,0,1,.64-4.76c1.08-3.36,4-5.32,7.88-5.32s6.83,2,7.91,5.32a17.27,17.27,0,0,1,.64,5.8.39.39,0,0,1-.44.4H222.24a.21.21,0,0,0-.24.24,4.48,4.48,0,0,0,4.59,4.4,5.81,5.81,0,0,0,4.52-1.84.41.41,0,0,1,.6-.08l2.36,2.08a.36.36,0,0,1,0,.56,10.15,10.15,0,0,1-7.91,3.28C222.12,104.08,219.24,102.08,218.16,98.72Zm11.63-8.52a4.11,4.11,0,0,0-7.55,0,4.89,4.89,0,0,0-.24,1.64.21.21,0,0,0,.24.24h7.55a.21.21,0,0,0,.24-.24A4.89,4.89,0,0,0,229.79,90.2Z"/><path d="M238.12,98.76a15.15,15.15,0,0,1-.6-4.76,15.15,15.15,0,0,1,.6-4.76c1.12-3.44,4.08-5.32,7.95-5.32a8.4,8.4,0,0,1,6.68,3,.39.39,0,0,1,0,.56l-2.52,2.2a.36.36,0,0,1-.56-.08,4.37,4.37,0,0,0-3.56-1.68,3.55,3.55,0,0,0-3.6,2.52,11.67,11.67,0,0,0-.39,3.56,12,12,0,0,0,.39,3.6,3.56,3.56,0,0,0,3.6,2.48,4.37,4.37,0,0,0,3.56-1.68.36.36,0,0,1,.56,0l2.52,2.2c.2.16.16.36,0,.56a8.49,8.49,0,0,1-6.68,3C242.2,104.08,239.24,102.2,238.12,98.76Z"/><path d="M262.39,103.88c-3.87,0-5.35-1.88-5.35-5.64V88.08c0-.16-.08-.24-.25-.24h-1.27a.38.38,0,0,1-.4-.4V84.76a.38.38,0,0,1,.4-.4h1.27c.17,0,.25-.08.25-.24V78.84a.38.38,0,0,1,.4-.4h3.68a.38.38,0,0,1,.39.4v5.28a.21.21,0,0,0,.24.24h2.56a.38.38,0,0,1,.4.4v2.68a.38.38,0,0,1-.4.4h-2.56a.21.21,0,0,0-.24.24v10c0,1.36.56,1.8,1.8,1.8h1a.38.38,0,0,1,.4.4v3.2a.38.38,0,0,1-.4.4Z"/><path d="M269.2,103.64a.39.39,0,0,1-.41-.4V84.76a.39.39,0,0,1,.41-.4h3.68a.38.38,0,0,1,.39.4V86.4h0a5.52,5.52,0,0,1,5-2.48,5.82,5.82,0,0,1,4,1.6c.2.2.24.36.08.56l-2.12,2.68a.36.36,0,0,1-.56.08,5.21,5.21,0,0,0-2.84-.92c-2.52,0-3.64,1.8-3.64,4.88v10.44a.38.38,0,0,1-.39.4Z"/><path d="M284.12,98.76a14.24,14.24,0,0,1-.64-4.76,14.24,14.24,0,0,1,.64-4.76c1.08-3.36,4-5.32,7.95-5.32s6.84,2,7.92,5.32a14.24,14.24,0,0,1,.64,4.76,14.24,14.24,0,0,1-.64,4.76c-1.08,3.36-4,5.32-7.92,5.32S285.2,102.12,284.12,98.76Zm11.55-1.2a10.89,10.89,0,0,0,.4-3.56,11,11,0,0,0-.4-3.56,3.56,3.56,0,0,0-3.6-2.52,3.61,3.61,0,0,0-3.64,2.52A11.36,11.36,0,0,0,288,94a11.21,11.21,0,0,0,.39,3.56,3.61,3.61,0,0,0,3.64,2.52A3.56,3.56,0,0,0,295.67,97.56Z"/><path d="M304.2,98.76a14.87,14.87,0,0,1-.6-4.76,14.87,14.87,0,0,1,.6-4.76c1.12-3.44,4.08-5.32,7.95-5.32a8.4,8.4,0,0,1,6.68,3,.39.39,0,0,1,0,.56l-2.52,2.2a.36.36,0,0,1-.56-.08,4.37,4.37,0,0,0-3.56-1.68,3.54,3.54,0,0,0-3.6,2.52,11.33,11.33,0,0,0-.4,3.56,11.6,11.6,0,0,0,.4,3.6,3.56,3.56,0,0,0,3.6,2.48,4.37,4.37,0,0,0,3.56-1.68.36.36,0,0,1,.56,0l2.52,2.2c.2.16.16.36,0,.56a8.49,8.49,0,0,1-6.68,3C308.28,104.08,305.32,102.2,304.2,98.76Z"/><path d="M334.67,103.64a.38.38,0,0,1-.4-.4v-1.4h0a5.91,5.91,0,0,1-5,2.24c-4.12,0-6.64-3-6.64-7.16V84.76a.38.38,0,0,1,.4-.4h3.68a.38.38,0,0,1,.4.4V95.88c0,2.48,1.16,4.2,3.6,4.2,2.28,0,3.6-1.72,3.6-4.16V84.76a.38.38,0,0,1,.4-.4h3.68a.38.38,0,0,1,.4.4v18.48a.38.38,0,0,1-.4.4Z"/><path d="M343.35,98.76a15.15,15.15,0,0,1-.6-4.76,15.15,15.15,0,0,1,.6-4.76c1.12-3.44,4.08-5.32,8-5.32a8.4,8.4,0,0,1,6.68,3,.39.39,0,0,1,0,.56l-2.52,2.2a.36.36,0,0,1-.56-.08,4.37,4.37,0,0,0-3.56-1.68,3.54,3.54,0,0,0-3.6,2.52,11.33,11.33,0,0,0-.4,3.56,11.6,11.6,0,0,0,.4,3.6,3.55,3.55,0,0,0,3.6,2.48,4.37,4.37,0,0,0,3.56-1.68.36.36,0,0,1,.56,0l2.52,2.2c.2.16.16.36,0,.56a8.49,8.49,0,0,1-6.68,3C347.43,104.08,344.47,102.2,343.35,98.76Z"/><path d="M362.39,80.72a.38.38,0,0,1-.4-.4V76.84a.38.38,0,0,1,.4-.4h3.68a.38.38,0,0,1,.4.4v3.48a.38.38,0,0,1-.4.4Zm0,22.92a.38.38,0,0,1-.4-.4V84.76a.38.38,0,0,1,.4-.4h3.68a.38.38,0,0,1,.4.4v18.48a.38.38,0,0,1-.4.4Z"/><path d="M371.11,98.76a14.24,14.24,0,0,1-.64-4.76,14.24,14.24,0,0,1,.64-4.76c1.08-3.36,4-5.32,8-5.32s6.84,2,7.92,5.32a14.24,14.24,0,0,1,.64,4.76,14.24,14.24,0,0,1-.64,4.76c-1.08,3.36-4,5.32-7.92,5.32S372.19,102.12,371.11,98.76Zm11.56-1.2a10.89,10.89,0,0,0,.4-3.56,11,11,0,0,0-.4-3.56,3.56,3.56,0,0,0-3.6-2.52,3.61,3.61,0,0,0-3.64,2.52A11,11,0,0,0,375,94a10.89,10.89,0,0,0,.4,3.56,3.61,3.61,0,0,0,3.64,2.52A3.56,3.56,0,0,0,382.67,97.56Z"/><path d="M403.83,103.64a.38.38,0,0,1-.4-.4V92.12c0-2.48-1.24-4.2-3.64-4.2s-3.68,1.72-3.68,4.2v11.12a.38.38,0,0,1-.4.4H392a.38.38,0,0,1-.4-.4V84.76a.38.38,0,0,1,.4-.4h3.68a.38.38,0,0,1,.4.4v1.4h0a6,6,0,0,1,5.08-2.24c4.12,0,6.68,3,6.68,7.16v12.16a.38.38,0,0,1-.4.4Z"/><path d="M78.94,148.83a.38.38,0,0,1-.4-.4v-3.2a.38.38,0,0,1,.4-.4h.72c1.52,0,2.28-.68,2.88-2.27l.56-1.64-7-18.16c-.08-.24.08-.4.32-.4h4a.51.51,0,0,1,.48.4l4.36,12.6h.08l4.16-12.6a.51.51,0,0,1,.48-.4h3.8c.24,0,.4.16.32.4l-7.36,20.07c-1.68,4.56-3.28,6-6.48,6Z"/><path d="M105,114.4a.48.48,0,0,1,.52-.4h3a.27.27,0,0,1,.28.4L99.9,141.68a.48.48,0,0,1-.52.4h-3a.27.27,0,0,1-.28-.4Z"/><path d="M112.66,136.76a18,18,0,0,1,0-9.52c1.08-3.36,4-5.32,8-5.32s6.83,2,7.91,5.32a18,18,0,0,1,0,9.52c-1.08,3.36-4,5.32-7.91,5.32S113.74,140.12,112.66,136.76Zm11.55-1.2a10.58,10.58,0,0,0,.41-3.56,10.73,10.73,0,0,0-.41-3.56,3.55,3.55,0,0,0-3.59-2.52,3.61,3.61,0,0,0-3.64,2.52,11,11,0,0,0-.4,3.56,10.89,10.89,0,0,0,.4,3.56,3.61,3.61,0,0,0,3.64,2.52A3.55,3.55,0,0,0,124.21,135.56Z"/><path d="M153.69,148.83a.38.38,0,0,1-.4-.4V139.8h0c-.92,1.32-2.52,2.28-5.12,2.28a6.47,6.47,0,0,1-6.67-4.64,16.07,16.07,0,0,1-.68-5.44,16.07,16.07,0,0,1,.68-5.44,6.47,6.47,0,0,1,6.67-4.64c2.6,0,4.2,1,5.12,2.28h0v-1.44a.38.38,0,0,1,.4-.4h3.68a.38.38,0,0,1,.4.4v25.67a.38.38,0,0,1-.4.4Zm-.8-13.23a16.4,16.4,0,0,0,0-7.2,3.82,3.82,0,0,0-7.15,0,16.4,16.4,0,0,0,0,7.2,3.82,3.82,0,0,0,7.15,0Z"/><path d="M174.65,141.64a.38.38,0,0,1-.4-.4v-1.4h0a5.91,5.91,0,0,1-5,2.24c-4.11,0-6.63-3-6.63-7.16V122.76a.38.38,0,0,1,.4-.4h3.68a.37.37,0,0,1,.39.4v11.12c0,2.48,1.16,4.2,3.6,4.2,2.28,0,3.6-1.72,3.6-4.16V122.76a.38.38,0,0,1,.4-.4h3.68a.38.38,0,0,1,.4.4v18.48a.38.38,0,0,1-.4.4Z"/><path d="M183.42,136.72a15,15,0,0,1-.68-4.72,15.36,15.36,0,0,1,.64-4.76c1.08-3.36,4-5.32,7.87-5.32s6.84,2,7.92,5.32a17.27,17.27,0,0,1,.64,5.8.39.39,0,0,1-.44.4H187.5a.21.21,0,0,0-.24.24,4.48,4.48,0,0,0,4.59,4.4,5.81,5.81,0,0,0,4.52-1.84.41.41,0,0,1,.6-.08l2.36,2.08a.36.36,0,0,1,0,.56,10.15,10.15,0,0,1-7.91,3.28C187.38,142.08,184.5,140.08,183.42,136.72Zm11.63-8.52a4.11,4.11,0,0,0-7.55,0,4.89,4.89,0,0,0-.24,1.64.21.21,0,0,0,.24.24h7.55a.21.21,0,0,0,.24-.24A4.89,4.89,0,0,0,195.05,128.2Z"/><path d="M227.81,141.64a.38.38,0,0,1-.4-.4V130.12c0-2.48-1.24-4.2-3.64-4.2s-3.68,1.72-3.68,4.2v11.12a.38.38,0,0,1-.4.4H216a.38.38,0,0,1-.4-.4V130.12c0-2.48-1.24-4.2-3.64-4.2s-3.68,1.72-3.68,4.2v11.12a.38.38,0,0,1-.4.4h-3.68a.38.38,0,0,1-.39-.4V122.76a.38.38,0,0,1,.39-.4h3.68a.38.38,0,0,1,.4.4v1.4h0a6,6,0,0,1,5.08-2.24,6.2,6.2,0,0,1,5.28,2.56h0a7.88,7.88,0,0,1,6.16-2.56c4.48,0,7,3,7,7.16v12.16a.38.38,0,0,1-.4.4Z"/><path d="M248.21,141.64a.38.38,0,0,1-.4-.4v-1.4h0c-.92,1.32-2.72,2.24-5.44,2.24-3.52,0-6.47-1.84-6.47-5.88,0-4.2,2.95-6.12,7.71-6.12h3.92a.21.21,0,0,0,.24-.24v-.92c0-2.2-1-3.2-4.28-3.2a6.76,6.76,0,0,0-4.4,1.32.35.35,0,0,1-.55-.08L237,124.32a.37.37,0,0,1,.08-.52,11.24,11.24,0,0,1,6.83-1.88c5.88,0,8,2,8,6.72v12.6a.38.38,0,0,1-.4.4Zm-.48-6.48v-1.48a.21.21,0,0,0-.24-.24h-3.2c-2.88,0-4.16.8-4.16,2.6,0,1.6,1.16,2.4,3.32,2.4C246.21,138.44,247.73,137.36,247.73,135.16Z"/><path d="M268.73,141.64a.38.38,0,0,1-.4-.4V139.8h0c-.92,1.32-2.52,2.28-5.12,2.28-3.28,0-5.67-1.56-6.67-4.64a16.07,16.07,0,0,1-.68-5.44,16.07,16.07,0,0,1,.68-5.44c1-3.08,3.39-4.64,6.67-4.64,2.6,0,4.2,1,5.12,2.28h0v-9.36a.38.38,0,0,1,.4-.4h3.68a.38.38,0,0,1,.4.4v26.4a.38.38,0,0,1-.4.4Zm-.8-6a16.4,16.4,0,0,0,0-7.2,3.82,3.82,0,0,0-7.16,0,16.81,16.81,0,0,0,0,7.2,3.82,3.82,0,0,0,7.16,0Z"/><path d="M289.69,141.64a.38.38,0,0,1-.4-.4v-1.4h0a5.91,5.91,0,0,1-5,2.24c-4.12,0-6.63-3-6.63-7.16V122.76a.38.38,0,0,1,.4-.4h3.67a.38.38,0,0,1,.4.4v11.12c0,2.48,1.16,4.2,3.6,4.2,2.28,0,3.6-1.72,3.6-4.16V122.76a.38.38,0,0,1,.4-.4h3.68a.38.38,0,0,1,.4.4v18.48a.38.38,0,0,1-.4.4Z"/><path d="M299.21,141.64a.38.38,0,0,1-.4-.4V122.76a.38.38,0,0,1,.4-.4h3.68a.38.38,0,0,1,.4.4v1.64h0a5.52,5.52,0,0,1,5-2.48,5.82,5.82,0,0,1,4,1.6c.2.2.24.36.08.56l-2.12,2.68a.36.36,0,0,1-.56.08,5.21,5.21,0,0,0-2.84-.92c-2.52,0-3.64,1.8-3.64,4.88v10.44a.38.38,0,0,1-.4.4Z"/><path d="M325.69,141.64a.38.38,0,0,1-.4-.4v-1.4h0c-.92,1.32-2.72,2.24-5.44,2.24-3.52,0-6.48-1.84-6.48-5.88,0-4.2,3-6.12,7.72-6.12H325a.21.21,0,0,0,.24-.24v-.92c0-2.2-1-3.2-4.28-3.2a6.76,6.76,0,0,0-4.4,1.32A.36.36,0,0,1,316,127l-1.48-2.64a.38.38,0,0,1,.08-.52,11.25,11.25,0,0,1,6.84-1.88c5.88,0,8,2,8,6.72v12.6a.38.38,0,0,1-.4.4Zm-.48-6.48v-1.48a.21.21,0,0,0-.24-.24h-3.2c-2.88,0-4.16.8-4.16,2.6,0,1.6,1.16,2.4,3.32,2.4C323.69,138.44,325.21,137.36,325.21,135.16Z"/><path d="M333.17,139a.39.39,0,0,1,0-.56l2.29-2.4a.38.38,0,0,1,.55,0,8.92,8.92,0,0,0,5.64,2.2c2.36,0,3.56-1,3.56-2.28,0-1.16-.68-1.88-3.2-2.12l-2.08-.2c-3.92-.4-5.92-2.4-5.92-5.68,0-3.72,2.68-6.08,7.48-6.08a11.69,11.69,0,0,1,7.24,2.36.4.4,0,0,1,.08.56l-2,2.36a.39.39,0,0,1-.56.08,9.31,9.31,0,0,0-5-1.6c-1.92,0-2.92.84-2.92,2s.68,1.8,3.16,2l2.08.2c4,.4,6,2.48,6,5.64,0,3.84-2.8,6.52-8.08,6.52A12,12,0,0,1,333.17,139Z"/></g></g></svg>