<svg xmlns="http://www.w3.org/2000/svg" viewBox="0 0 430.83 111.19"><title>p7</title><g id="Capa_2" data-name="Capa 2"><g id="fondo"><path d="M0,14.4C0,10.08.16,8.72.72,7,2.12,2.6,5.56.36,10.16.36a9.56,9.56,0,0,1,9.2,5.84.35.35,0,0,1-.2.48l-3.4,1.64a.36.36,0,0,1-.52-.2A5.37,5.37,0,0,0,10.16,4.6,4.82,4.82,0,0,0,5.28,8.2c-.36,1.12-.48,2.2-.48,6.2s.12,5.08.48,6.2a4.82,4.82,0,0,0,4.88,3.6,5.37,5.37,0,0,0,5.08-3.52.36.36,0,0,1,.52-.2l3.4,1.64a.35.35,0,0,1,.2.48,9.56,9.56,0,0,1-9.2,5.84c-4.6,0-8-2.24-9.44-6.68C.16,20.08,0,18.72,0,14.4Z"/><path d="M34.4,28a.38.38,0,0,1-.4-.4V26.2h0c-.92,1.32-2.72,2.24-5.44,2.24C25,28.44,22,26.6,22,22.56c0-4.2,3-6.12,7.72-6.12h3.92a.21.21,0,0,0,.24-.24v-.92c0-2.2-1-3.2-4.28-3.2a6.76,6.76,0,0,0-4.4,1.32.36.36,0,0,1-.56-.08L23.2,10.68a.37.37,0,0,1,.08-.52,11.25,11.25,0,0,1,6.84-1.88c5.88,0,8,2,8,6.72V27.6a.38.38,0,0,1-.4.4Zm-.48-6.48V20a.21.21,0,0,0-.24-.24h-3.2c-2.88,0-4.16.8-4.16,2.6,0,1.6,1.16,2.4,3.32,2.4C32.4,24.8,33.92,23.72,33.92,21.52Z"/><path d="M43.44,28a.38.38,0,0,1-.4-.4V9.12a.38.38,0,0,1,.4-.4h3.68a.38.38,0,0,1,.4.4V27.6a.38.38,0,0,1-.4.4Zm.4-22.2c-.24,0-.36-.16-.24-.4l3-5a.76.76,0,0,1,.72-.4H51c.24,0,.36.2.2.4l-3.8,5a.93.93,0,0,1-.8.4Z"/><path d="M64.44,28a.38.38,0,0,1-.4-.4V26.16h0c-.92,1.32-2.52,2.28-5.12,2.28-3.28,0-5.68-1.56-6.68-4.64a16.07,16.07,0,0,1-.68-5.44,16.07,16.07,0,0,1,.68-5.44c1-3.08,3.4-4.64,6.68-4.64,2.6,0,4.2,1,5.12,2.28h0V1.2a.38.38,0,0,1,.4-.4h3.68a.38.38,0,0,1,.4.4V27.6a.38.38,0,0,1-.4.4Zm-.8-6a11.37,11.37,0,0,0,.4-3.6,11.37,11.37,0,0,0-.4-3.6,3.82,3.82,0,0,0-7.16,0,11.37,11.37,0,0,0-.4,3.6,11.37,11.37,0,0,0,.4,3.6,3.82,3.82,0,0,0,7.16,0Z"/><path d="M85,28a.38.38,0,0,1-.4-.4V26.2h0c-.92,1.32-2.72,2.24-5.44,2.24-3.52,0-6.48-1.84-6.48-5.88,0-4.2,3-6.12,7.72-6.12h3.92a.21.21,0,0,0,.24-.24v-.92c0-2.2-1-3.2-4.28-3.2a6.76,6.76,0,0,0-4.4,1.32.36.36,0,0,1-.56-.08l-1.48-2.64a.37.37,0,0,1,.08-.52,11.25,11.25,0,0,1,6.84-1.88c5.88,0,8,2,8,6.72V27.6a.38.38,0,0,1-.4.4Zm-.48-6.48V20a.21.21,0,0,0-.24-.24h-3.2c-2.88,0-4.16.8-4.16,2.6,0,1.6,1.16,2.4,3.32,2.4C83,24.8,84.56,23.72,84.56,21.52Z"/><path d="M92.52,25.4a.39.39,0,0,1,0-.56l2.28-2.4a.39.39,0,0,1,.56,0,8.92,8.92,0,0,0,5.64,2.2c2.36,0,3.56-1,3.56-2.28,0-1.16-.68-1.88-3.2-2.12L99.28,20c-3.92-.4-5.92-2.4-5.92-5.68,0-3.72,2.68-6.08,7.48-6.08a11.69,11.69,0,0,1,7.24,2.36.4.4,0,0,1,.08.56l-2,2.36a.39.39,0,0,1-.56.08,9.31,9.31,0,0,0-5-1.6c-1.92,0-2.92.84-2.92,2s.68,1.8,3.16,2l2.08.2c4,.4,6,2.48,6,5.64,0,3.84-2.8,6.52-8.08,6.52A12,12,0,0,1,92.52,25.4Z"/><path d="M132.92,28a.38.38,0,0,1-.4-.4V26.2h0c-.92,1.32-2.72,2.24-5.44,2.24-3.52,0-6.48-1.84-6.48-5.88,0-4.2,3-6.12,7.72-6.12h3.92a.21.21,0,0,0,.24-.24v-.92c0-2.2-1-3.2-4.28-3.2a6.76,6.76,0,0,0-4.4,1.32.36.36,0,0,1-.56-.08l-1.48-2.64a.37.37,0,0,1,.08-.52,11.25,11.25,0,0,1,6.84-1.88c5.88,0,8,2,8,6.72V27.6a.38.38,0,0,1-.4.4Zm-.48-6.48V20a.21.21,0,0,0-.24-.24H129c-2.88,0-4.16.8-4.16,2.6,0,1.6,1.16,2.4,3.32,2.4C130.92,24.8,132.44,23.72,132.44,21.52Z"/><path d="M146.76,28.23c-3.76,0-5.28-1.79-5.28-5.51V1.2a.38.38,0,0,1,.4-.4h3.68a.38.38,0,0,1,.4.4V22.48c0,1.32.52,1.76,1.68,1.76h.88a.38.38,0,0,1,.4.4v3.19a.37.37,0,0,1-.4.4Z"/><path d="M185,28a.38.38,0,0,1-.4-.4V16.48c0-2.48-1.24-4.2-3.64-4.2s-3.68,1.72-3.68,4.2V27.6a.38.38,0,0,1-.39.4h-3.68a.38.38,0,0,1-.4-.4V16.48c0-2.48-1.24-4.2-3.64-4.2s-3.68,1.72-3.68,4.2V27.6a.38.38,0,0,1-.4.4h-3.68a.38.38,0,0,1-.4-.4V9.12a.38.38,0,0,1,.4-.4h3.68a.38.38,0,0,1,.4.4v1.4h0a6,6,0,0,1,5.08-2.24,6.2,6.2,0,0,1,5.28,2.56h0a7.85,7.85,0,0,1,6.15-2.56c4.48,0,7,3,7,7.16V27.6a.38.38,0,0,1-.4.4Z"/><path d="M194.36,5.08a.38.38,0,0,1-.4-.4V1.2a.38.38,0,0,1,.4-.4H198a.38.38,0,0,1,.4.4V4.68a.38.38,0,0,1-.4.4Zm0,22.92a.38.38,0,0,1-.4-.4V9.12a.38.38,0,0,1,.4-.4H198a.38.38,0,0,1,.4.4V27.6a.38.38,0,0,1-.4.4Z"/><path d="M202.32,25.4a.39.39,0,0,1,0-.56l2.28-2.4a.39.39,0,0,1,.56,0,8.92,8.92,0,0,0,5.64,2.2c2.36,0,3.56-1,3.56-2.28,0-1.16-.68-1.88-3.2-2.12l-2.08-.2c-3.92-.4-5.92-2.4-5.92-5.68,0-3.72,2.68-6.08,7.48-6.08a11.66,11.66,0,0,1,7.23,2.36.4.4,0,0,1,.08.56L216,13.56a.39.39,0,0,1-.56.08,9.31,9.31,0,0,0-5-1.6c-1.92,0-2.92.84-2.92,2s.68,1.8,3.16,2l2.08.2c4,.4,5.95,2.48,5.95,5.64,0,3.84-2.79,6.52-8.07,6.52A12,12,0,0,1,202.32,25.4Z"/><path d="M246.59,28a.38.38,0,0,1-.4-.4V16.48c0-2.48-1.24-4.2-3.64-4.2s-3.68,1.72-3.68,4.2V27.6a.38.38,0,0,1-.4.4h-3.68a.38.38,0,0,1-.4-.4V16.48c0-2.48-1.24-4.2-3.63-4.2s-3.68,1.72-3.68,4.2V27.6a.38.38,0,0,1-.4.4H223a.38.38,0,0,1-.4-.4V9.12a.38.38,0,0,1,.4-.4h3.68a.38.38,0,0,1,.4.4v1.4h0a6,6,0,0,1,5.08-2.24,6.2,6.2,0,0,1,5.27,2.56h0a7.88,7.88,0,0,1,6.16-2.56c4.48,0,7,3,7,7.16V27.6a.38.38,0,0,1-.4.4Z"/><path d="M255.12,23.12a14.24,14.24,0,0,1-.64-4.76,14.24,14.24,0,0,1,.64-4.76c1.08-3.36,4-5.32,7.95-5.32s6.84,2,7.92,5.32a14.24,14.24,0,0,1,.64,4.76,14.24,14.24,0,0,1-.64,4.76c-1.08,3.36-4,5.32-7.92,5.32S256.2,26.48,255.12,23.12Zm11.55-1.2a10.89,10.89,0,0,0,.4-3.56,11,11,0,0,0-.4-3.56,3.56,3.56,0,0,0-3.6-2.52,3.61,3.61,0,0,0-3.63,2.52,11,11,0,0,0-.4,3.56,10.89,10.89,0,0,0,.4,3.56,3.61,3.61,0,0,0,3.63,2.52A3.56,3.56,0,0,0,266.67,21.92Z"/><path d="M296.47,28a.38.38,0,0,1-.4-.4V16.48c0-2.48-1.24-4.2-3.64-4.2s-3.67,1.72-3.67,4.2V27.6a.38.38,0,0,1-.4.4h-3.68a.38.38,0,0,1-.4-.4V9.12a.38.38,0,0,1,.4-.4h3.68a.38.38,0,0,1,.4.4v1.4h0a5.94,5.94,0,0,1,5.07-2.24c4.12,0,6.68,3,6.68,7.16V27.6a.38.38,0,0,1-.4.4Z"/><path d="M305.79,5.08a.38.38,0,0,1-.39-.4V1.2a.38.38,0,0,1,.39-.4h3.68a.38.38,0,0,1,.4.4V4.68a.38.38,0,0,1-.4.4Zm0,22.92a.38.38,0,0,1-.39-.4V9.12a.38.38,0,0,1,.39-.4h3.68a.38.38,0,0,1,.4.4V27.6a.38.38,0,0,1-.4.4Z"/><path d="M320.11,28a.53.53,0,0,1-.52-.4L312.8,9.12c-.08-.24.08-.4.32-.4H317a.51.51,0,0,1,.48.4l4.24,12.52h.08L326,9.12a.51.51,0,0,1,.48-.4h3.84c.24,0,.4.16.32.4l-6.8,18.48a.53.53,0,0,1-.52.4Z"/><path d="M333,23.08a15,15,0,0,1-.68-4.72,15.36,15.36,0,0,1,.64-4.76c1.08-3.36,4-5.32,7.88-5.32s6.84,2,7.92,5.32a17.27,17.27,0,0,1,.64,5.8.39.39,0,0,1-.44.4H337a.21.21,0,0,0-.24.24,4.24,4.24,0,0,0,.28,1.48,4.21,4.21,0,0,0,4.32,2.92,5.81,5.81,0,0,0,4.52-1.84.41.41,0,0,1,.6-.08l2.36,2.08a.36.36,0,0,1,0,.56A10.16,10.16,0,0,1,341,28.44C336.91,28.44,334,26.44,333,23.08Zm11.64-8.52a4.12,4.12,0,0,0-7.56,0,4.89,4.89,0,0,0-.24,1.64.21.21,0,0,0,.24.24h7.56a.21.21,0,0,0,.24-.24A4.89,4.89,0,0,0,344.59,14.56Z"/><path d="M358.55,28.23c-3.76,0-5.28-1.79-5.28-5.51V1.2a.38.38,0,0,1,.4-.4h3.68a.38.38,0,0,1,.4.4V22.48c0,1.32.52,1.76,1.68,1.76h.88a.38.38,0,0,1,.4.4v3.19a.37.37,0,0,1-.4.4Z"/><path d="M384.71,35.19a.38.38,0,0,1-.4-.4V26.16h0c-.92,1.32-2.52,2.28-5.12,2.28-3.28,0-5.68-1.56-6.68-4.64a16.07,16.07,0,0,1-.68-5.44,16.07,16.07,0,0,1,.68-5.44c1-3.08,3.4-4.64,6.68-4.64,2.6,0,4.2,1,5.12,2.28h0V9.12a.38.38,0,0,1,.4-.4h3.68a.38.38,0,0,1,.4.4V34.79a.38.38,0,0,1-.4.4ZM383.91,22a11.37,11.37,0,0,0,.4-3.6,11.37,11.37,0,0,0-.4-3.6,3.82,3.82,0,0,0-7.16,0,11.37,11.37,0,0,0-.4,3.6,11.37,11.37,0,0,0,.4,3.6,3.82,3.82,0,0,0,7.16,0Z"/><path d="M405.67,28a.38.38,0,0,1-.4-.4V26.2h0a5.91,5.91,0,0,1-5,2.24c-4.12,0-6.64-3-6.64-7.16V9.12a.38.38,0,0,1,.4-.4h3.68a.38.38,0,0,1,.4.4V20.24c0,2.48,1.16,4.2,3.6,4.2,2.28,0,3.6-1.72,3.6-4.16V9.12a.38.38,0,0,1,.4-.4h3.68a.38.38,0,0,1,.4.4V27.6a.38.38,0,0,1-.4.4Z"/><path d="M414.43,23.08a15,15,0,0,1-.68-4.72,15.36,15.36,0,0,1,.64-4.76c1.08-3.36,4-5.32,7.88-5.32s6.84,2,7.92,5.32a17.27,17.27,0,0,1,.64,5.8.39.39,0,0,1-.44.4H418.51a.21.21,0,0,0-.24.24,4.24,4.24,0,0,0,.28,1.48,4.21,4.21,0,0,0,4.32,2.92,5.81,5.81,0,0,0,4.52-1.84.41.41,0,0,1,.6-.08l2.36,2.08a.36.36,0,0,1,0,.56,10.16,10.16,0,0,1-7.92,3.28C418.39,28.44,415.51,26.44,414.43,23.08Zm11.64-8.52a4.12,4.12,0,0,0-7.56,0,4.89,4.89,0,0,0-.24,1.64.21.21,0,0,0,.24.24h7.56a.21.21,0,0,0,.24-.24A4.89,4.89,0,0,0,426.07,14.56Z"/><path d="M10.72,63.4a.39.39,0,0,1,0-.56L13,60.44a.39.39,0,0,1,.56,0,8.92,8.92,0,0,0,5.64,2.2c2.36,0,3.56-1,3.56-2.28,0-1.16-.68-1.88-3.2-2.12L17.48,58c-3.92-.4-5.92-2.4-5.92-5.68,0-3.72,2.68-6.08,7.48-6.08a11.69,11.69,0,0,1,7.24,2.36.4.4,0,0,1,.08.56l-2,2.36a.39.39,0,0,1-.56.08,9.31,9.31,0,0,0-5-1.6c-1.92,0-2.92.84-2.92,2s.68,1.8,3.16,2l2.08.2c4,.4,6,2.48,6,5.64,0,3.84-2.8,6.52-8.08,6.52A12,12,0,0,1,10.72,63.4Z"/><path d="M30.64,61.08A15,15,0,0,1,30,56.36a15.36,15.36,0,0,1,.64-4.76c1.08-3.36,4-5.32,7.88-5.32s6.84,2,7.92,5.32A17.27,17.27,0,0,1,47,57.4a.39.39,0,0,1-.44.4H34.72a.21.21,0,0,0-.24.24,4.48,4.48,0,0,0,4.6,4.4A5.81,5.81,0,0,0,43.6,60.6a.41.41,0,0,1,.6-.08l2.36,2.08a.36.36,0,0,1,0,.56,10.16,10.16,0,0,1-7.92,3.28C34.6,66.44,31.72,64.44,30.64,61.08Zm11.64-8.52a3.74,3.74,0,0,0-3.76-2.48,3.76,3.76,0,0,0-3.8,2.48,4.89,4.89,0,0,0-.24,1.64.21.21,0,0,0,.24.24h7.56a.21.21,0,0,0,.24-.24A4.89,4.89,0,0,0,42.28,52.56Z"/><path d="M60.08,73.19a.38.38,0,0,1-.4-.4V47.12a.38.38,0,0,1,.4-.4h3.68a.38.38,0,0,1,.4.4v1.44h0c.92-1.32,2.52-2.28,5.12-2.28,3.28,0,5.68,1.56,6.68,4.64a16.11,16.11,0,0,1,.67,5.44A16.11,16.11,0,0,1,76,61.8c-1,3.08-3.4,4.64-6.68,4.64-2.6,0-4.2-1-5.12-2.28h0v8.63a.38.38,0,0,1-.4.4ZM71.72,60a11.37,11.37,0,0,0,.4-3.6,11.37,11.37,0,0,0-.4-3.6,3.82,3.82,0,0,0-7.16,0,11.37,11.37,0,0,0-.4,3.6,11.37,11.37,0,0,0,.4,3.6,3.82,3.82,0,0,0,7.16,0Z"/><path d="M92.52,66a.38.38,0,0,1-.4-.4V64.2h0a5.91,5.91,0,0,1-5,2.24c-4.12,0-6.64-3-6.64-7.16V47.12a.38.38,0,0,1,.4-.4h3.68a.38.38,0,0,1,.4.4V58.24c0,2.48,1.16,4.2,3.6,4.2,2.28,0,3.6-1.72,3.6-4.16V47.12a.38.38,0,0,1,.4-.4h3.67a.38.38,0,0,1,.4.4V65.6a.38.38,0,0,1-.4.4Z"/><path d="M101.28,61.08a15,15,0,0,1-.68-4.72,15.36,15.36,0,0,1,.64-4.76c1.08-3.36,4-5.32,7.88-5.32s6.84,2,7.91,5.32a17.27,17.27,0,0,1,.64,5.8.39.39,0,0,1-.44.4H105.36a.21.21,0,0,0-.24.24,4.48,4.48,0,0,0,4.6,4.4,5.81,5.81,0,0,0,4.52-1.84c.2-.2.4-.24.59-.08l2.36,2.08a.36.36,0,0,1,0,.56,10.14,10.14,0,0,1-7.91,3.28C105.24,66.44,102.36,64.44,101.28,61.08Zm11.64-8.52a4.12,4.12,0,0,0-7.56,0,4.89,4.89,0,0,0-.24,1.64.21.21,0,0,0,.24.24h7.56a.21.21,0,0,0,.24-.24A4.89,4.89,0,0,0,112.92,52.56Z"/><path d="M133.56,66a.38.38,0,0,1-.4-.4V64.16h0c-.92,1.32-2.52,2.28-5.12,2.28-3.28,0-5.68-1.56-6.68-4.64a16.07,16.07,0,0,1-.68-5.44,16.07,16.07,0,0,1,.68-5.44c1-3.08,3.4-4.64,6.68-4.64,2.6,0,4.2,1,5.12,2.28h0V39.2a.38.38,0,0,1,.4-.4h3.67a.38.38,0,0,1,.4.4V65.6a.38.38,0,0,1-.4.4Zm-.8-6a11.37,11.37,0,0,0,.4-3.6,11.37,11.37,0,0,0-.4-3.6,3.82,3.82,0,0,0-7.16,0,11.37,11.37,0,0,0-.4,3.6,11.37,11.37,0,0,0,.4,3.6,3.82,3.82,0,0,0,7.16,0Z"/><path d="M142.32,61.08a15,15,0,0,1-.68-4.72,15.36,15.36,0,0,1,.64-4.76c1.08-3.36,4-5.32,7.88-5.32s6.83,2,7.91,5.32a17.27,17.27,0,0,1,.64,5.8.39.39,0,0,1-.44.4H146.4a.21.21,0,0,0-.24.24,4.48,4.48,0,0,0,4.6,4.4,5.79,5.79,0,0,0,4.51-1.84.41.41,0,0,1,.6-.08l2.36,2.08a.36.36,0,0,1,0,.56,10.14,10.14,0,0,1-7.91,3.28C146.28,66.44,143.4,64.44,142.32,61.08ZM154,52.56a4.12,4.12,0,0,0-7.56,0,4.89,4.89,0,0,0-.24,1.64.21.21,0,0,0,.24.24H154a.21.21,0,0,0,.23-.24A5.18,5.18,0,0,0,154,52.56Z"/><path d="M174.92,66a.39.39,0,0,1-.41-.4V54.48c0-2.48-1.24-4.2-3.63-4.2s-3.68,1.72-3.68,4.2V65.6a.38.38,0,0,1-.4.4h-3.68a.38.38,0,0,1-.4-.4V47.12a.38.38,0,0,1,.4-.4h3.68a.38.38,0,0,1,.4.4v1.4h0a6,6,0,0,1,5.08-2.24c4.11,0,6.67,3,6.67,7.16V65.6a.38.38,0,0,1-.4.4Z"/><path d="M192.88,73.19a.38.38,0,0,1-.4-.4V47.12a.38.38,0,0,1,.4-.4h3.68a.38.38,0,0,1,.4.4v1.44h0c.92-1.32,2.52-2.28,5.11-2.28,3.28,0,5.68,1.56,6.68,4.64a16.07,16.07,0,0,1,.68,5.44,16.07,16.07,0,0,1-.68,5.44c-1,3.08-3.4,4.64-6.68,4.64-2.59,0-4.19-1-5.11-2.28h0v8.63a.38.38,0,0,1-.4.4ZM204.51,60a11.37,11.37,0,0,0,.4-3.6,11.37,11.37,0,0,0-.4-3.6,3.82,3.82,0,0,0-7.15,0,11.37,11.37,0,0,0-.4,3.6,11.37,11.37,0,0,0,.4,3.6,3.82,3.82,0,0,0,7.15,0Z"/><path d="M213.88,66a.38.38,0,0,1-.4-.4V47.12a.38.38,0,0,1,.4-.4h3.68a.38.38,0,0,1,.4.4v1.64h0a5.52,5.52,0,0,1,5-2.48,5.82,5.82,0,0,1,4,1.6c.2.2.24.36.08.56L225,51.12a.36.36,0,0,1-.56.08,5.21,5.21,0,0,0-2.84-.92c-2.51,0-3.63,1.8-3.63,4.88V65.6a.38.38,0,0,1-.4.4Z"/><path d="M228.84,61.08a15,15,0,0,1-.68-4.72,15.36,15.36,0,0,1,.64-4.76c1.08-3.36,4-5.32,7.87-5.32s6.84,2,7.92,5.32a17.27,17.27,0,0,1,.64,5.8.39.39,0,0,1-.44.4H232.91a.21.21,0,0,0-.24.24,4.48,4.48,0,0,0,4.6,4.4,5.81,5.81,0,0,0,4.52-1.84.41.41,0,0,1,.6-.08l2.36,2.08a.36.36,0,0,1,0,.56,10.16,10.16,0,0,1-7.92,3.28C232.79,66.44,229.92,64.44,228.84,61.08Zm11.63-8.52a4.12,4.12,0,0,0-7.56,0,4.89,4.89,0,0,0-.24,1.64.21.21,0,0,0,.24.24h7.56a.21.21,0,0,0,.24-.24A4.89,4.89,0,0,0,240.47,52.56Z"/><path d="M248.08,63.4a.39.39,0,0,1,0-.56l2.28-2.4a.39.39,0,0,1,.56,0,8.88,8.88,0,0,0,5.63,2.2c2.36,0,3.56-1,3.56-2.28,0-1.16-.68-1.88-3.2-2.12l-2.08-.2c-3.91-.4-5.91-2.4-5.91-5.68,0-3.72,2.68-6.08,7.47-6.08a11.69,11.69,0,0,1,7.24,2.36.4.4,0,0,1,.08.56l-2,2.36a.39.39,0,0,1-.56.08,9.31,9.31,0,0,0-5-1.6c-1.92,0-2.92.84-2.92,2s.68,1.8,3.16,2l2.08.2c4,.4,6,2.48,6,5.64,0,3.84-2.8,6.52-8.08,6.52A12,12,0,0,1,248.08,63.4Z"/><path d="M268,61.08a15,15,0,0,1-.68-4.72A15.36,15.36,0,0,1,268,51.6c1.08-3.36,4-5.32,7.88-5.32s6.84,2,7.92,5.32a17.27,17.27,0,0,1,.64,5.8.39.39,0,0,1-.44.4H272.07a.21.21,0,0,0-.24.24,4.48,4.48,0,0,0,4.6,4.4A5.81,5.81,0,0,0,281,60.6a.41.41,0,0,1,.6-.08l2.36,2.08a.36.36,0,0,1,0,.56A10.16,10.16,0,0,1,276,66.44C272,66.44,269.07,64.44,268,61.08Zm11.64-8.52a4.12,4.12,0,0,0-7.56,0,4.89,4.89,0,0,0-.24,1.64.21.21,0,0,0,.24.24h7.56a.21.21,0,0,0,.24-.24A4.89,4.89,0,0,0,279.63,52.56Z"/><path d="M300.59,66a.38.38,0,0,1-.4-.4V54.48c0-2.48-1.24-4.2-3.64-4.2s-3.68,1.72-3.68,4.2V65.6a.38.38,0,0,1-.4.4h-3.68a.38.38,0,0,1-.4-.4V47.12a.38.38,0,0,1,.4-.4h3.68a.38.38,0,0,1,.4.4v1.4h0A6,6,0,0,1,298,46.28c4.12,0,6.68,3,6.68,7.16V65.6a.38.38,0,0,1-.4.4Z"/><path d="M315.15,66.23c-3.88,0-5.36-1.87-5.36-5.63V50.44a.21.21,0,0,0-.24-.24h-1.28a.38.38,0,0,1-.4-.4V47.12a.38.38,0,0,1,.4-.4h1.28a.21.21,0,0,0,.24-.24V41.2a.38.38,0,0,1,.4-.4h3.68a.38.38,0,0,1,.4.4v5.28a.21.21,0,0,0,.24.24h2.56a.38.38,0,0,1,.4.4V49.8a.38.38,0,0,1-.4.4h-2.56a.21.21,0,0,0-.24.24v10c0,1.36.56,1.8,1.8,1.8h1a.38.38,0,0,1,.4.4v3.19a.37.37,0,0,1-.4.4Z"/><path d="M333,66a.38.38,0,0,1-.4-.4V64.2h0c-.92,1.32-2.72,2.24-5.44,2.24-3.52,0-6.48-1.84-6.48-5.88,0-4.2,3-6.12,7.72-6.12h3.92a.21.21,0,0,0,.24-.24v-.92c0-2.2-1-3.2-4.28-3.2a6.76,6.76,0,0,0-4.4,1.32.36.36,0,0,1-.56-.08l-1.48-2.64a.37.37,0,0,1,.08-.52,11.25,11.25,0,0,1,6.84-1.88c5.88,0,8,2,8,6.72V65.6a.38.38,0,0,1-.4.4Zm-.48-6.48V58a.21.21,0,0,0-.24-.24h-3.2c-2.88,0-4.16.8-4.16,2.6,0,1.6,1.16,2.4,3.32,2.4C331,62.8,332.55,61.72,332.55,59.52Z"/><path d="M342.07,66a.38.38,0,0,1-.4-.4V47.12a.38.38,0,0,1,.4-.4h3.68a.38.38,0,0,1,.4.4v1.64h0a5.52,5.52,0,0,1,5-2.48,5.82,5.82,0,0,1,4,1.6c.2.2.24.36.08.56l-2.12,2.68a.36.36,0,0,1-.56.08,5.21,5.21,0,0,0-2.84-.92c-2.52,0-3.64,1.8-3.64,4.88V65.6a.38.38,0,0,1-.4.4Z"/><path d="M366.83,73.19a.38.38,0,0,1-.4-.4V47.12a.38.38,0,0,1,.4-.4h3.68a.38.38,0,0,1,.4.4v1.44h0c.92-1.32,2.52-2.28,5.12-2.28,3.28,0,5.68,1.56,6.68,4.64a16.07,16.07,0,0,1,.68,5.44,16.07,16.07,0,0,1-.68,5.44c-1,3.08-3.4,4.64-6.68,4.64-2.6,0-4.2-1-5.12-2.28h0v8.63a.38.38,0,0,1-.4.4ZM378.47,60a11.37,11.37,0,0,0,.4-3.6,11.37,11.37,0,0,0-.4-3.6,3.82,3.82,0,0,0-7.16,0,11.37,11.37,0,0,0-.4,3.6,11.37,11.37,0,0,0,.4,3.6,3.82,3.82,0,0,0,7.16,0Z"/><path d="M387,61.12a14.24,14.24,0,0,1-.64-4.76A14.24,14.24,0,0,1,387,51.6c1.08-3.36,4-5.32,8-5.32s6.84,2,7.92,5.32a14.24,14.24,0,0,1,.64,4.76,14.24,14.24,0,0,1-.64,4.76c-1.08,3.36-4,5.32-7.92,5.32S388.11,64.48,387,61.12Zm11.56-1.2a10.89,10.89,0,0,0,.4-3.56,11,11,0,0,0-.4-3.56,3.56,3.56,0,0,0-3.6-2.52,3.61,3.61,0,0,0-3.64,2.52,11,11,0,0,0-.4,3.56,10.89,10.89,0,0,0,.4,3.56A3.61,3.61,0,0,0,395,62.44,3.56,3.56,0,0,0,398.59,59.92Z"/><path d="M408,66a.38.38,0,0,1-.4-.4V47.12a.38.38,0,0,1,.4-.4h3.68a.38.38,0,0,1,.4.4v1.64h0a5.52,5.52,0,0,1,5-2.48,5.82,5.82,0,0,1,4,1.6c.2.2.24.36.08.56l-2.12,2.68a.36.36,0,0,1-.56.08,5.21,5.21,0,0,0-2.84-.92c-2.52,0-3.64,1.8-3.64,4.88V65.6a.38.38,0,0,1-.4.4Z"/><path d="M28.7,104.23c-3.88,0-5.36-1.87-5.36-5.63V88.44a.21.21,0,0,0-.24-.24H21.82a.38.38,0,0,1-.4-.4V85.12a.38.38,0,0,1,.4-.4H23.1a.21.21,0,0,0,.24-.24V79.2a.38.38,0,0,1,.4-.4h3.68a.38.38,0,0,1,.4.4v5.28a.21.21,0,0,0,.24.24h2.56a.38.38,0,0,1,.4.4V87.8a.38.38,0,0,1-.4.4H28.06a.21.21,0,0,0-.24.24v10c0,1.36.56,1.8,1.8,1.8h1a.38.38,0,0,1,.4.4v3.19a.37.37,0,0,1-.4.4Z"/><path d="M35.5,104a.38.38,0,0,1-.4-.4V85.12a.38.38,0,0,1,.4-.4h3.68a.38.38,0,0,1,.4.4v1.64h0a5.52,5.52,0,0,1,5-2.48,5.82,5.82,0,0,1,4,1.6c.2.2.24.36.08.56l-2.12,2.68a.36.36,0,0,1-.56.08,5.21,5.21,0,0,0-2.84-.92c-2.52,0-3.64,1.8-3.64,4.88V103.6a.38.38,0,0,1-.4.4Z"/><path d="M50.42,99.12a14.24,14.24,0,0,1-.64-4.76,14.24,14.24,0,0,1,.64-4.76c1.08-3.36,4-5.32,8-5.32s6.84,2,7.92,5.32a14.24,14.24,0,0,1,.64,4.76,14.24,14.24,0,0,1-.64,4.76c-1.08,3.36-4,5.32-7.92,5.32S51.5,102.48,50.42,99.12ZM62,97.92a10.89,10.89,0,0,0,.4-3.56A11,11,0,0,0,62,90.8a3.56,3.56,0,0,0-3.6-2.52,3.61,3.61,0,0,0-3.64,2.52,11,11,0,0,0-.4,3.56,10.89,10.89,0,0,0,.4,3.56,3.61,3.61,0,0,0,3.64,2.52A3.56,3.56,0,0,0,62,97.92Z"/><path d="M71.34,111.19a.38.38,0,0,1-.4-.4V85.12a.38.38,0,0,1,.4-.4H75a.38.38,0,0,1,.4.4v1.44h0c.92-1.32,2.52-2.28,5.12-2.28,3.28,0,5.68,1.56,6.68,4.64a16.07,16.07,0,0,1,.68,5.44,16.07,16.07,0,0,1-.68,5.44c-1,3.08-3.4,4.64-6.68,4.64-2.6,0-4.2-1-5.12-2.28h0v8.63a.38.38,0,0,1-.4.4ZM83,98a11.37,11.37,0,0,0,.4-3.6,11.37,11.37,0,0,0-.4-3.6,3.82,3.82,0,0,0-7.16,0,11.37,11.37,0,0,0-.4,3.6,11.37,11.37,0,0,0,.4,3.6A3.82,3.82,0,0,0,83,98Z"/><path d="M92.34,81.08a.38.38,0,0,1-.4-.4V77.2a.38.38,0,0,1,.4-.4H96a.38.38,0,0,1,.4.4v3.48a.38.38,0,0,1-.4.4Zm0,22.92a.38.38,0,0,1-.4-.4V85.12a.38.38,0,0,1,.4-.4H96a.38.38,0,0,1,.4.4V103.6a.38.38,0,0,1-.4.4Z"/><path d="M101.1,99.08a15,15,0,0,1-.68-4.72,15.36,15.36,0,0,1,.64-4.76c1.08-3.36,4-5.32,7.88-5.32s6.84,2,7.91,5.32a17.2,17.2,0,0,1,.65,5.8.39.39,0,0,1-.44.4H105.18a.21.21,0,0,0-.24.24,4.48,4.48,0,0,0,4.6,4.4,5.81,5.81,0,0,0,4.52-1.84.41.41,0,0,1,.6-.08L117,100.6a.37.37,0,0,1,0,.56,10.16,10.16,0,0,1-7.92,3.28C105.06,104.44,102.18,102.44,101.1,99.08Zm11.64-8.52a4.12,4.12,0,0,0-7.56,0,4.89,4.89,0,0,0-.24,1.64.21.21,0,0,0,.24.24h7.56a.21.21,0,0,0,.24-.24A4.89,4.89,0,0,0,112.74,90.56Z"/><path d="M121.06,104a.38.38,0,0,1-.4-.4v-2.92a.68.68,0,0,1,.12-.4l9.84-11.56v-.08h-9a.38.38,0,0,1-.4-.4V85.12a.38.38,0,0,1,.4-.4H135.5a.38.38,0,0,1,.4.4v3.12a.6.6,0,0,1-.12.4L126.06,100v.08h9.44a.38.38,0,0,1,.4.4v3.12a.38.38,0,0,1-.4.4Z"/><path d="M139.7,99.12a14.24,14.24,0,0,1-.64-4.76,14.24,14.24,0,0,1,.64-4.76c1.08-3.36,4-5.32,8-5.32s6.83,2,7.91,5.32a14.24,14.24,0,0,1,.64,4.76,14.24,14.24,0,0,1-.64,4.76c-1.08,3.36-4,5.32-7.91,5.32S140.78,102.48,139.7,99.12Zm11.55-1.2a10.89,10.89,0,0,0,.4-3.56,11,11,0,0,0-.4-3.56,3.55,3.55,0,0,0-3.59-2.52A3.61,3.61,0,0,0,144,90.8a11,11,0,0,0-.4,3.56,10.89,10.89,0,0,0,.4,3.56,3.61,3.61,0,0,0,3.64,2.52A3.55,3.55,0,0,0,151.25,97.92Z"/><path d="M159.06,101.4a.39.39,0,0,1,0-.56l2.28-2.4a.39.39,0,0,1,.56,0,8.92,8.92,0,0,0,5.64,2.2c2.36,0,3.56-1,3.56-2.28,0-1.16-.68-1.88-3.2-2.12l-2.08-.2c-3.92-.4-5.92-2.4-5.92-5.68,0-3.72,2.68-6.08,7.48-6.08a11.66,11.66,0,0,1,7.23,2.36.4.4,0,0,1,.08.56l-2,2.36a.39.39,0,0,1-.56.08,9.25,9.25,0,0,0-5-1.6c-1.92,0-2.92.84-2.92,2s.68,1.8,3.16,2l2.08.2c4,.4,5.95,2.48,5.95,5.64,0,3.84-2.8,6.52-8.07,6.52A12,12,0,0,1,159.06,101.4Z"/><path d="M187.58,99.12a14.24,14.24,0,0,1-.64-4.76,14.24,14.24,0,0,1,.64-4.76c1.08-3.36,4-5.32,7.95-5.32s6.84,2,7.92,5.32a14.24,14.24,0,0,1,.64,4.76,14.24,14.24,0,0,1-.64,4.76c-1.08,3.36-4,5.32-7.92,5.32S188.66,102.48,187.58,99.12Zm11.55-1.2a10.89,10.89,0,0,0,.4-3.56,11,11,0,0,0-.4-3.56,3.56,3.56,0,0,0-3.6-2.52,3.6,3.6,0,0,0-3.63,2.52,11,11,0,0,0-.4,3.56,10.89,10.89,0,0,0,.4,3.56,3.6,3.6,0,0,0,3.63,2.52A3.56,3.56,0,0,0,199.13,97.92Z"/><path d="M217.13,104a.39.39,0,0,1-.4-.4V85.12a.38.38,0,0,1,.4-.4h3.68a.38.38,0,0,1,.4.4v1.64h0a5.52,5.52,0,0,1,5-2.48,5.82,5.82,0,0,1,4,1.6c.2.2.24.36.08.56l-2.12,2.68a.36.36,0,0,1-.56.08,5.21,5.21,0,0,0-2.84-.92c-2.52,0-3.64,1.8-3.64,4.88V103.6a.38.38,0,0,1-.4.4Z"/><path d="M232.1,99.08a15,15,0,0,1-.68-4.72,15.36,15.36,0,0,1,.64-4.76c1.08-3.36,4-5.32,7.87-5.32s6.84,2,7.92,5.32a17.27,17.27,0,0,1,.64,5.8.39.39,0,0,1-.44.4H236.17a.21.21,0,0,0-.24.24,4.48,4.48,0,0,0,4.6,4.4,5.81,5.81,0,0,0,4.52-1.84.41.41,0,0,1,.6-.08L248,100.6a.36.36,0,0,1,0,.56,10.16,10.16,0,0,1-7.92,3.28C236.05,104.44,233.17,102.44,232.1,99.08Zm11.63-8.52a4.12,4.12,0,0,0-7.56,0,4.89,4.89,0,0,0-.24,1.64.21.21,0,0,0,.24.24h7.56a.21.21,0,0,0,.24-.24A4.89,4.89,0,0,0,243.73,90.56Z"/><path d="M251.33,101.4a.39.39,0,0,1,0-.56l2.28-2.4a.39.39,0,0,1,.56,0,8.92,8.92,0,0,0,5.64,2.2c2.36,0,3.56-1,3.56-2.28,0-1.16-.68-1.88-3.2-2.12l-2.08-.2c-3.92-.4-5.92-2.4-5.92-5.68,0-3.72,2.68-6.08,7.48-6.08a11.69,11.69,0,0,1,7.24,2.36.4.4,0,0,1,.08.56l-2,2.36a.39.39,0,0,1-.56.08,9.31,9.31,0,0,0-5-1.6c-1.92,0-2.92.84-2.92,2s.68,1.8,3.16,2l2.08.2c4,.4,6,2.48,6,5.64,0,3.84-2.8,6.52-8.08,6.52A12,12,0,0,1,251.33,101.4Z"/><path d="M276.13,102.16h0v1.44a.38.38,0,0,1-.4.4H272a.38.38,0,0,1-.4-.4V77.2a.38.38,0,0,1,.4-.4h3.68a.38.38,0,0,1,.4.4v9.36h0c.92-1.32,2.52-2.28,5.12-2.28,3.28,0,5.68,1.56,6.68,4.64a16.07,16.07,0,0,1,.68,5.44,16.07,16.07,0,0,1-.68,5.44c-1,3.08-3.4,4.64-6.68,4.64C278.65,104.44,277.05,103.48,276.13,102.16Zm7.52-4.2a11.37,11.37,0,0,0,.4-3.6,11.37,11.37,0,0,0-.4-3.6,3.82,3.82,0,0,0-7.16,0,11.37,11.37,0,0,0-.4,3.6,11.37,11.37,0,0,0,.4,3.6,3.82,3.82,0,0,0,7.16,0Z"/><path d="M304.09,104a.38.38,0,0,1-.4-.4v-1.4h0c-.92,1.32-2.72,2.24-5.44,2.24-3.52,0-6.48-1.84-6.48-5.88,0-4.2,3-6.12,7.72-6.12h3.92a.21.21,0,0,0,.24-.24v-.92c0-2.2-1-3.2-4.28-3.2a6.76,6.76,0,0,0-4.4,1.32.36.36,0,0,1-.56-.08l-1.48-2.64a.37.37,0,0,1,.08-.52,11.25,11.25,0,0,1,6.84-1.88c5.88,0,8,2,8,6.72v12.6a.38.38,0,0,1-.4.4Zm-.48-6.48V96a.21.21,0,0,0-.24-.24h-3.2c-2.88,0-4.16.8-4.16,2.6,0,1.6,1.16,2.4,3.32,2.4C302.09,100.8,303.61,99.72,303.61,97.52Z"/><path d="M317.93,104.23c-3.76,0-5.28-1.79-5.28-5.51V77.2a.38.38,0,0,1,.4-.4h3.68a.38.38,0,0,1,.4.4V98.48c0,1.32.52,1.76,1.68,1.76h.88a.38.38,0,0,1,.4.4v3.19a.37.37,0,0,1-.4.4Z"/><path d="M323.17,99.12a14.24,14.24,0,0,1-.64-4.76,14.24,14.24,0,0,1,.64-4.76c1.08-3.36,4-5.32,8-5.32s6.84,2,7.92,5.32a14.24,14.24,0,0,1,.64,4.76,14.24,14.24,0,0,1-.64,4.76c-1.08,3.36-4,5.32-7.92,5.32S324.25,102.48,323.17,99.12Zm11.56-1.2a10.89,10.89,0,0,0,.4-3.56,11,11,0,0,0-.4-3.56,3.56,3.56,0,0,0-3.6-2.52,3.61,3.61,0,0,0-3.64,2.52,11,11,0,0,0-.4,3.56,10.89,10.89,0,0,0,.4,3.56,3.61,3.61,0,0,0,3.64,2.52A3.56,3.56,0,0,0,334.73,97.92Z"/><path d="M355.89,104a.38.38,0,0,1-.4-.4V92.48c0-2.48-1.24-4.2-3.64-4.2s-3.68,1.72-3.68,4.2V103.6a.38.38,0,0,1-.4.4h-3.68a.38.38,0,0,1-.4-.4V85.12a.38.38,0,0,1,.4-.4h3.68a.38.38,0,0,1,.4.4v1.4h0a6,6,0,0,1,5.08-2.24c4.12,0,6.68,3,6.68,7.16V103.6a.38.38,0,0,1-.4.4Z"/><path d="M364.45,99.08a15,15,0,0,1-.68-4.72,15.36,15.36,0,0,1,.64-4.76c1.08-3.36,4-5.32,7.88-5.32s6.84,2,7.92,5.32a17.27,17.27,0,0,1,.64,5.8.39.39,0,0,1-.44.4H368.53a.21.21,0,0,0-.24.24,4.48,4.48,0,0,0,4.6,4.4,5.81,5.81,0,0,0,4.52-1.84.41.41,0,0,1,.6-.08l2.36,2.08a.36.36,0,0,1,0,.56,10.16,10.16,0,0,1-7.92,3.28C368.41,104.44,365.53,102.44,364.45,99.08Zm11.64-8.52a4.12,4.12,0,0,0-7.56,0,4.89,4.89,0,0,0-.24,1.64.21.21,0,0,0,.24.24h7.56a.21.21,0,0,0,.24-.24A4.89,4.89,0,0,0,376.09,90.56Z"/><path d="M383.69,101.4a.39.39,0,0,1,0-.56l2.28-2.4a.39.39,0,0,1,.56,0,8.92,8.92,0,0,0,5.64,2.2c2.36,0,3.56-1,3.56-2.28,0-1.16-.68-1.88-3.2-2.12l-2.08-.2c-3.92-.4-5.92-2.4-5.92-5.68,0-3.72,2.68-6.08,7.48-6.08a11.69,11.69,0,0,1,7.24,2.36.4.4,0,0,1,.08.56l-2,2.36a.39.39,0,0,1-.56.08,9.31,9.31,0,0,0-5-1.6c-1.92,0-2.92.84-2.92,2s.68,1.8,3.16,2l2.08.2c4,.4,6,2.48,6,5.64,0,3.84-2.8,6.52-8.08,6.52A12,12,0,0,1,383.69,101.4Z"/><path d="M403.69,99.52a.38.38,0,0,1,.4-.4h4a.38.38,0,0,1,.4.4v4.08a.38.38,0,0,1-.4.4h-4a.38.38,0,0,1-.4-.4Z"/></g></g></svg>