<svg xmlns="http://www.w3.org/2000/svg" viewBox="0 0 747.31 144.8"><title>p8</title><g id="Capa_2" data-name="Capa 2"><g id="pregunta_vector" data-name="pregunta vector"><path d="M22.12,12.6c0-3.78.14-5,.63-6.44C24,2.27,27,.31,31,.31a8.37,8.37,0,0,1,8.05,5.12.31.31,0,0,1-.18.42l-3,1.43a.32.32,0,0,1-.46-.17A4.7,4.7,0,0,0,31,4a4.2,4.2,0,0,0-4.27,3.15c-.32,1-.42,1.92-.42,5.42s.1,4.45.42,5.43A4.21,4.21,0,0,0,31,21.18a4.7,4.7,0,0,0,4.44-3.08.32.32,0,0,1,.46-.18l3,1.44a.31.31,0,0,1,.18.42,8.38,8.38,0,0,1-8,5.11c-4,0-7-2-8.26-5.85C22.26,17.57,22.12,16.38,22.12,12.6Z"/><path d="M52.22,24.5a.33.33,0,0,1-.35-.35V22.93h0c-.8,1.15-2.38,2-4.76,2-3.08,0-5.67-1.61-5.67-5.15s2.59-5.35,6.76-5.35h3.43a.19.19,0,0,0,.21-.21v-.81c0-1.92-.91-2.8-3.75-2.8a5.92,5.92,0,0,0-3.85,1.16.32.32,0,0,1-.49-.07L42.42,9.35a.33.33,0,0,1,.07-.46,9.83,9.83,0,0,1,6-1.64c5.15,0,7,1.75,7,5.88v11a.33.33,0,0,1-.35.35Zm-.42-5.67V17.54a.19.19,0,0,0-.21-.21h-2.8c-2.52,0-3.64.7-3.64,2.27,0,1.4,1,2.1,2.9,2.1C50.47,21.7,51.8,20.76,51.8,18.83Z"/><path d="M60.13,24.5a.33.33,0,0,1-.35-.35V8a.33.33,0,0,1,.35-.35h3.22A.33.33,0,0,1,63.7,8V24.15a.33.33,0,0,1-.35.35Zm.35-19.42c-.21,0-.32-.14-.21-.35L62.89.35A.66.66,0,0,1,63.52,0h3.19c.21,0,.31.17.17.35L63.56,4.73a.84.84,0,0,1-.7.35Z"/><path d="M78.5,24.5a.33.33,0,0,1-.35-.35V22.89h0a5.09,5.09,0,0,1-4.48,2,5.68,5.68,0,0,1-5.85-4.06,14.12,14.12,0,0,1-.59-4.76,14,14,0,0,1,.59-4.76,5.67,5.67,0,0,1,5.85-4.06,5.11,5.11,0,0,1,4.48,2h0V1.05A.33.33,0,0,1,78.5.7h3.22a.33.33,0,0,1,.35.35v23.1a.33.33,0,0,1-.35.35Zm-.7-5.28a9.8,9.8,0,0,0,.35-3.15,9.8,9.8,0,0,0-.35-3.15,3.34,3.34,0,0,0-6.26,0,9.8,9.8,0,0,0-.35,3.15,9.8,9.8,0,0,0,.35,3.15,3.34,3.34,0,0,0,6.26,0Z"/><path d="M96.53,24.5a.33.33,0,0,1-.35-.35V22.93h0c-.8,1.15-2.38,2-4.76,2-3.08,0-5.67-1.61-5.67-5.15s2.59-5.35,6.76-5.35H95.9a.19.19,0,0,0,.21-.21v-.81c0-1.92-.91-2.8-3.75-2.8a5.92,5.92,0,0,0-3.85,1.16.32.32,0,0,1-.49-.07L86.73,9.35a.33.33,0,0,1,.07-.46,9.83,9.83,0,0,1,6-1.64c5.15,0,7,1.75,7,5.88v11a.33.33,0,0,1-.35.35Zm-.42-5.67V17.54a.19.19,0,0,0-.21-.21H93.1c-2.52,0-3.64.7-3.64,2.27,0,1.4,1,2.1,2.9,2.1C94.78,21.7,96.11,20.76,96.11,18.83Z"/><path d="M103.07,22.23a.34.34,0,0,1,0-.49l2-2.1a.34.34,0,0,1,.49,0,7.78,7.78,0,0,0,4.93,1.92c2.07,0,3.12-.84,3.12-2s-.6-1.65-2.8-1.86L109,17.54c-3.43-.35-5.18-2.1-5.18-5,0-3.26,2.34-5.32,6.54-5.32a10.24,10.24,0,0,1,6.34,2.06.35.35,0,0,1,.07.49L115,11.87a.35.35,0,0,1-.49.07,8.1,8.1,0,0,0-4.41-1.4c-1.68,0-2.55.73-2.55,1.75s.59,1.57,2.76,1.78l1.82.18c3.54.35,5.22,2.17,5.22,4.93,0,3.36-2.45,5.71-7.07,5.71A10.49,10.49,0,0,1,103.07,22.23Z"/><path d="M138.42,24.5a.33.33,0,0,1-.35-.35V22.93h0c-.81,1.15-2.38,2-4.76,2-3.08,0-5.67-1.61-5.67-5.15s2.59-5.35,6.75-5.35h3.43a.19.19,0,0,0,.21-.21v-.81c0-1.92-.91-2.8-3.74-2.8a5.9,5.9,0,0,0-3.85,1.16.32.32,0,0,1-.49-.07l-1.3-2.31a.34.34,0,0,1,.07-.46,9.86,9.86,0,0,1,6-1.64c5.14,0,7,1.75,7,5.88v11a.33.33,0,0,1-.35.35ZM138,18.83V17.54a.19.19,0,0,0-.21-.21H135c-2.52,0-3.64.7-3.64,2.27,0,1.4,1,2.1,2.91,2.1C136.67,21.7,138,20.76,138,18.83Z"/><path d="M163.94,24.5a.33.33,0,0,1-.35-.35V22.89h0a5.06,5.06,0,0,1-4.48,2,5.66,5.66,0,0,1-5.84-4.06,14.08,14.08,0,0,1-.6-4.76,14,14,0,0,1,.6-4.76,5.65,5.65,0,0,1,5.84-4.06,5.08,5.08,0,0,1,4.48,2h0V1.05a.33.33,0,0,1,.35-.35h3.22a.33.33,0,0,1,.35.35v23.1a.33.33,0,0,1-.35.35Zm-.7-5.28a10.1,10.1,0,0,0,.35-3.15,10.1,10.1,0,0,0-.35-3.15,3.35,3.35,0,0,0-6.27,0,10.1,10.1,0,0,0-.35,3.15,10.1,10.1,0,0,0,.35,3.15,3.35,3.35,0,0,0,6.27,0Z"/><path d="M172.27,4.45a.33.33,0,0,1-.35-.35v-3a.33.33,0,0,1,.35-.35h3.22a.33.33,0,0,1,.35.35V4.1a.33.33,0,0,1-.35.35Zm0,20.05a.33.33,0,0,1-.35-.35V8a.33.33,0,0,1,.35-.35h3.22a.33.33,0,0,1,.35.35V24.15a.33.33,0,0,1-.35.35Z"/><path d="M181.12,24.5a.33.33,0,0,1-.35-.35V10.89a.19.19,0,0,0-.21-.21h-1.12a.33.33,0,0,1-.35-.35V8a.33.33,0,0,1,.35-.35h1.12a.19.19,0,0,0,.21-.21V6.34c0-3.92,1.93-5.64,5.6-5.64h1.54a.33.33,0,0,1,.35.35v2.8a.33.33,0,0,1-.35.35h-1.08c-1.75,0-2.14.42-2.14,2.07V7.42a.19.19,0,0,0,.21.21h3a.33.33,0,0,1,.35.35v2.35a.33.33,0,0,1-.35.35h-3a.19.19,0,0,0-.21.21V24.15a.33.33,0,0,1-.35.35Z"/><path d="M190.71,20.2a13.09,13.09,0,0,1-.6-4.13,13.5,13.5,0,0,1,.56-4.17c1-2.94,3.54-4.65,6.9-4.65s6,1.78,6.93,4.65a15,15,0,0,1,.56,5.08.34.34,0,0,1-.38.35h-10.4a.19.19,0,0,0-.21.21,3.66,3.66,0,0,0,.24,1.29,3.7,3.7,0,0,0,3.79,2.56,5.07,5.07,0,0,0,4-1.61.36.36,0,0,1,.53-.07l2.06,1.82a.31.31,0,0,1,0,.49,8.91,8.91,0,0,1-6.93,2.87C194.17,24.89,191.65,23.14,190.71,20.2Zm10.19-7.46a3.61,3.61,0,0,0-6.62,0,4.29,4.29,0,0,0-.21,1.44.19.19,0,0,0,.21.21h6.62a.19.19,0,0,0,.21-.21A4.29,4.29,0,0,0,200.9,12.74Z"/><path d="M208.91,24.5a.33.33,0,0,1-.35-.35V8a.33.33,0,0,1,.35-.35h3.22a.33.33,0,0,1,.35.35V9.42h0a4.83,4.83,0,0,1,4.38-2.17,5.09,5.09,0,0,1,3.54,1.4c.17.17.2.31.07.49l-1.86,2.34a.31.31,0,0,1-.49.07,4.54,4.54,0,0,0-2.48-.8c-2.21,0-3.19,1.57-3.19,4.27v9.13a.33.33,0,0,1-.35.35Z"/><path d="M222,20.2a13.09,13.09,0,0,1-.6-4.13A13.5,13.5,0,0,1,222,11.9c.95-2.94,3.54-4.65,6.9-4.65s6,1.78,6.93,4.65a15,15,0,0,1,.56,5.08.34.34,0,0,1-.38.35h-10.4a.19.19,0,0,0-.21.21,3.45,3.45,0,0,0,.25,1.29,3.68,3.68,0,0,0,3.77,2.56,5.08,5.08,0,0,0,4-1.61.36.36,0,0,1,.53-.07l2.06,1.82a.31.31,0,0,1,0,.49A8.91,8.91,0,0,1,229,24.89C225.46,24.89,223,23.14,222,20.2Zm10.19-7.46a3.61,3.61,0,0,0-6.62,0,4.29,4.29,0,0,0-.21,1.44.19.19,0,0,0,.21.21h6.62a.19.19,0,0,0,.21-.21A4.29,4.29,0,0,0,232.19,12.74Z"/><path d="M250.53,24.5a.33.33,0,0,1-.35-.35V14.42c0-2.17-1.09-3.67-3.19-3.67s-3.22,1.5-3.22,3.67v9.73a.33.33,0,0,1-.35.35H240.2a.33.33,0,0,1-.35-.35V8a.33.33,0,0,1,.35-.35h3.22a.33.33,0,0,1,.35.35V9.21h0a5.23,5.23,0,0,1,4.45-2c3.61,0,5.85,2.66,5.85,6.26V24.15a.33.33,0,0,1-.35.35Z"/><path d="M263.26,24.71c-3.39,0-4.69-1.64-4.69-4.93V10.89a.19.19,0,0,0-.21-.21h-1.12a.33.33,0,0,1-.35-.35V8a.33.33,0,0,1,.35-.35h1.12a.19.19,0,0,0,.21-.21V2.8a.33.33,0,0,1,.35-.35h3.22a.33.33,0,0,1,.35.35V7.42a.19.19,0,0,0,.21.21h2.24a.33.33,0,0,1,.35.35v2.35a.33.33,0,0,1-.35.35H262.7a.19.19,0,0,0-.21.21v8.75c0,1.19.49,1.57,1.58,1.57h.87a.33.33,0,0,1,.35.35v2.8a.33.33,0,0,1-.35.35Z"/><path d="M268.55,20.2a13.09,13.09,0,0,1-.6-4.13,13.5,13.5,0,0,1,.56-4.17c.95-2.94,3.54-4.65,6.9-4.65s6,1.78,6.93,4.65A15.28,15.28,0,0,1,282.9,17a.34.34,0,0,1-.38.35h-10.4a.19.19,0,0,0-.21.21,3.66,3.66,0,0,0,.24,1.29,3.68,3.68,0,0,0,3.78,2.56,5.1,5.1,0,0,0,4-1.61.36.36,0,0,1,.53-.07l2.06,1.82a.31.31,0,0,1,0,.49,8.91,8.91,0,0,1-6.94,2.87C272,24.89,269.49,23.14,268.55,20.2Zm10.18-7.46a3.6,3.6,0,0,0-6.61,0,4.29,4.29,0,0,0-.21,1.44.19.19,0,0,0,.21.21h6.61c.15,0,.22-.07.22-.21A4,4,0,0,0,278.73,12.74Z"/><path d="M304.63,24.5a.32.32,0,0,1-.34-.35V14.42c0-2.17-1.09-3.67-3.19-3.67s-3.22,1.5-3.22,3.67v9.73a.33.33,0,0,1-.35.35h-3.22a.33.33,0,0,1-.35-.35V8a.33.33,0,0,1,.35-.35h3.22a.33.33,0,0,1,.35.35V9.21h0a5.23,5.23,0,0,1,4.45-2c3.6,0,5.85,2.66,5.85,6.26V24.15a.34.34,0,0,1-.35.35Z"/><path d="M312.79,4.45a.33.33,0,0,1-.35-.35v-3a.33.33,0,0,1,.35-.35H316a.33.33,0,0,1,.35.35V4.1a.33.33,0,0,1-.35.35Zm0,20.05a.33.33,0,0,1-.35-.35V8a.33.33,0,0,1,.35-.35H316a.33.33,0,0,1,.35.35V24.15a.33.33,0,0,1-.35.35Z"/><path d="M325.32,24.5a.45.45,0,0,1-.46-.35L318.91,8c-.07-.21.07-.35.28-.35h3.43A.44.44,0,0,1,323,8l3.71,11h.07l3.64-11a.44.44,0,0,1,.42-.35h3.36c.21,0,.35.14.28.35l-5.95,16.17a.45.45,0,0,1-.45.35Z"/><path d="M336.55,20.2a13.12,13.12,0,0,1-.59-4.13,13.5,13.5,0,0,1,.56-4.17c.94-2.94,3.53-4.65,6.89-4.65s6,1.78,6.93,4.65A15,15,0,0,1,350.9,17a.34.34,0,0,1-.38.35h-10.4a.19.19,0,0,0-.21.21,3.66,3.66,0,0,0,.25,1.29,3.68,3.68,0,0,0,3.78,2.56,5.07,5.07,0,0,0,3.95-1.61.36.36,0,0,1,.53-.07l2.06,1.82a.31.31,0,0,1,0,.49,8.91,8.91,0,0,1-6.93,2.87C340,24.89,337.5,23.14,336.55,20.2Zm10.19-7.46a3.61,3.61,0,0,0-6.62,0,4.29,4.29,0,0,0-.21,1.44.19.19,0,0,0,.21.21h6.62a.19.19,0,0,0,.21-.21A4.29,4.29,0,0,0,346.74,12.74Z"/><path d="M359,24.71c-3.29,0-4.62-1.57-4.62-4.83V1.05a.33.33,0,0,1,.35-.35h3.22a.33.33,0,0,1,.35.35V19.67c0,1.16.46,1.54,1.47,1.54h.77a.33.33,0,0,1,.35.35v2.8a.33.33,0,0,1-.35.35Z"/><path d="M381.84,30.8a.33.33,0,0,1-.35-.35V22.89h0a5.09,5.09,0,0,1-4.48,2,5.68,5.68,0,0,1-5.85-4.06,14.12,14.12,0,0,1-.59-4.76,14,14,0,0,1,.59-4.76A5.67,5.67,0,0,1,377,7.25a5.11,5.11,0,0,1,4.48,2h0V8a.33.33,0,0,1,.35-.35h3.22a.33.33,0,0,1,.35.35V30.45a.33.33,0,0,1-.35.35Zm-.7-11.58a9.8,9.8,0,0,0,.35-3.15,9.8,9.8,0,0,0-.35-3.15,3.34,3.34,0,0,0-6.26,0,9.8,9.8,0,0,0-.35,3.15,9.8,9.8,0,0,0,.35,3.15,3.34,3.34,0,0,0,6.26,0Z"/><path d="M400.18,24.5a.33.33,0,0,1-.35-.35V22.93h0a5.19,5.19,0,0,1-4.38,2c-3.6,0-5.81-2.66-5.81-6.27V8a.33.33,0,0,1,.35-.35h3.22a.33.33,0,0,1,.35.35v9.73c0,2.17,1,3.68,3.15,3.68s3.15-1.51,3.15-3.64V8a.33.33,0,0,1,.35-.35h3.22a.33.33,0,0,1,.35.35V24.15a.33.33,0,0,1-.35.35Z"/><path d="M407.85,20.2a13.09,13.09,0,0,1-.6-4.13,13.5,13.5,0,0,1,.56-4.17c.95-2.94,3.54-4.65,6.9-4.65s6,1.78,6.93,4.65A15.28,15.28,0,0,1,422.2,17a.34.34,0,0,1-.39.35H411.42a.19.19,0,0,0-.21.21,3.66,3.66,0,0,0,.24,1.29,3.68,3.68,0,0,0,3.78,2.56,5.1,5.1,0,0,0,4-1.61.35.35,0,0,1,.52-.07l2.07,1.82a.32.32,0,0,1,0,.49,8.88,8.88,0,0,1-6.93,2.87C411.31,24.89,408.79,23.14,407.85,20.2ZM418,12.74a3.6,3.6,0,0,0-6.61,0,4.29,4.29,0,0,0-.21,1.44.19.19,0,0,0,.21.21H418a.19.19,0,0,0,.21-.21A4.29,4.29,0,0,0,418,12.74Z"/><path d="M433.61,30.8a.33.33,0,0,1-.35-.35V8a.33.33,0,0,1,.35-.35h3.22a.33.33,0,0,1,.35.35V9.24h0a5.11,5.11,0,0,1,4.48-2,5.67,5.67,0,0,1,5.85,4.06,14,14,0,0,1,.59,4.76,14.12,14.12,0,0,1-.59,4.76,5.68,5.68,0,0,1-5.85,4.06,5.09,5.09,0,0,1-4.48-2h0v7.56a.33.33,0,0,1-.35.35Zm10.18-11.58a9.8,9.8,0,0,0,.35-3.15,9.8,9.8,0,0,0-.35-3.15,3.34,3.34,0,0,0-6.26,0,9.8,9.8,0,0,0-.35,3.15,9.8,9.8,0,0,0,.35,3.15,3.34,3.34,0,0,0,6.26,0Z"/><path d="M462,24.5a.33.33,0,0,1-.35-.35V22.93h0a5.19,5.19,0,0,1-4.38,2c-3.6,0-5.81-2.66-5.81-6.27V8a.33.33,0,0,1,.35-.35H455a.33.33,0,0,1,.35.35v9.73c0,2.17,1,3.68,3.15,3.68s3.15-1.51,3.15-3.64V8a.33.33,0,0,1,.35-.35h3.22a.33.33,0,0,1,.35.35V24.15a.33.33,0,0,1-.35.35Z"/><path d="M469.65,20.2a13.12,13.12,0,0,1-.59-4.13,13.5,13.5,0,0,1,.56-4.17c.94-2.94,3.54-4.65,6.9-4.65s6,1.78,6.93,4.65A15.28,15.28,0,0,1,484,17a.34.34,0,0,1-.39.35h-10.4c-.14,0-.2.07-.2.21a3.66,3.66,0,0,0,.24,1.29A3.68,3.68,0,0,0,477,21.39a5.1,5.1,0,0,0,4-1.61.35.35,0,0,1,.52-.07l2.07,1.82a.32.32,0,0,1,0,.49,8.88,8.88,0,0,1-6.93,2.87C473.12,24.89,470.6,23.14,469.65,20.2Zm10.19-7.46a3.27,3.27,0,0,0-3.29-2.17,3.31,3.31,0,0,0-3.33,2.17,4.31,4.31,0,0,0-.2,1.44c0,.14.06.21.2.21h6.62a.19.19,0,0,0,.21-.21A4.29,4.29,0,0,0,479.84,12.74Z"/><path d="M497.9,24.5a.33.33,0,0,1-.35-.35V22.89h0a5.09,5.09,0,0,1-4.48,2,5.67,5.67,0,0,1-5.85-4.06,14.08,14.08,0,0,1-.6-4.76,14,14,0,0,1,.6-4.76A5.66,5.66,0,0,1,493,7.25a5.11,5.11,0,0,1,4.48,2h0V1.05A.33.33,0,0,1,497.9.7h3.22a.33.33,0,0,1,.35.35v23.1a.33.33,0,0,1-.35.35Zm-.7-5.28a9.8,9.8,0,0,0,.35-3.15,9.8,9.8,0,0,0-.35-3.15,3.34,3.34,0,0,0-6.26,0,9.8,9.8,0,0,0-.35,3.15,9.8,9.8,0,0,0,.35,3.15,3.34,3.34,0,0,0,6.26,0Z"/><path d="M505.56,20.2a13.12,13.12,0,0,1-.59-4.13,13.5,13.5,0,0,1,.56-4.17c.94-2.94,3.53-4.65,6.9-4.65s6,1.78,6.93,4.65a15.28,15.28,0,0,1,.56,5.08.34.34,0,0,1-.39.35h-10.4a.19.19,0,0,0-.21.21,3.66,3.66,0,0,0,.25,1.29A3.68,3.68,0,0,0,513,21.39a5.1,5.1,0,0,0,4-1.61.35.35,0,0,1,.52-.07l2.07,1.82a.32.32,0,0,1,0,.49,8.89,8.89,0,0,1-6.93,2.87C509,24.89,506.51,23.14,505.56,20.2Zm10.19-7.46a3.61,3.61,0,0,0-6.62,0,4.29,4.29,0,0,0-.21,1.44.19.19,0,0,0,.21.21h6.62a.19.19,0,0,0,.21-.21A4.29,4.29,0,0,0,515.75,12.74Z"/><path d="M534.09,24.5a.33.33,0,0,1-.35-.35V14.42c0-2.17-1.08-3.67-3.19-3.67s-3.22,1.5-3.22,3.67v9.73a.33.33,0,0,1-.35.35h-3.22a.33.33,0,0,1-.35-.35V8a.33.33,0,0,1,.35-.35H527a.33.33,0,0,1,.35.35V9.21h0a5.23,5.23,0,0,1,4.45-2c3.6,0,5.84,2.66,5.84,6.26V24.15a.33.33,0,0,1-.35.35Z"/><path d="M549.8,30.8a.33.33,0,0,1-.35-.35V8a.33.33,0,0,1,.35-.35H553a.33.33,0,0,1,.35.35V9.24h0a5.08,5.08,0,0,1,4.48-2,5.67,5.67,0,0,1,5.85,4.06,14,14,0,0,1,.59,4.76,14.12,14.12,0,0,1-.59,4.76,5.68,5.68,0,0,1-5.85,4.06,5.06,5.06,0,0,1-4.48-2h0v7.56a.33.33,0,0,1-.35.35ZM560,19.22a10.1,10.1,0,0,0,.35-3.15,10.1,10.1,0,0,0-.35-3.15,3.35,3.35,0,0,0-6.27,0,10.1,10.1,0,0,0-.35,3.15,10.1,10.1,0,0,0,.35,3.15,3.35,3.35,0,0,0,6.27,0Z"/><path d="M568.18,24.5a.33.33,0,0,1-.35-.35V8a.33.33,0,0,1,.35-.35h3.22a.33.33,0,0,1,.35.35V9.42h0a4.83,4.83,0,0,1,4.38-2.17,5.09,5.09,0,0,1,3.54,1.4c.17.17.2.31.07.49l-1.86,2.34a.31.31,0,0,1-.49.07,4.57,4.57,0,0,0-2.49-.8c-2.2,0-3.18,1.57-3.18,4.27v9.13a.33.33,0,0,1-.35.35Z"/><path d="M581.27,20.2a13.09,13.09,0,0,1-.6-4.13,13.5,13.5,0,0,1,.56-4.17c.95-2.94,3.54-4.65,6.9-4.65s6,1.78,6.93,4.65a15.28,15.28,0,0,1,.56,5.08.34.34,0,0,1-.39.35H584.84a.19.19,0,0,0-.21.21,3.66,3.66,0,0,0,.24,1.29,3.68,3.68,0,0,0,3.78,2.56,5.1,5.1,0,0,0,4-1.61.35.35,0,0,1,.52-.07l2.07,1.82a.3.3,0,0,1,0,.49,8.88,8.88,0,0,1-6.93,2.87C584.73,24.89,582.21,23.14,581.27,20.2Zm10.18-7.46a3.6,3.6,0,0,0-6.61,0,4.29,4.29,0,0,0-.21,1.44.19.19,0,0,0,.21.21h6.61a.19.19,0,0,0,.21-.21A4.29,4.29,0,0,0,591.45,12.74Z"/><path d="M598.1,22.23a.34.34,0,0,1,0-.49l2-2.1a.34.34,0,0,1,.49,0,7.78,7.78,0,0,0,4.93,1.92c2.07,0,3.12-.84,3.12-2s-.6-1.65-2.8-1.86L604,17.54c-3.43-.35-5.18-2.1-5.18-5,0-3.26,2.34-5.32,6.54-5.32a10.24,10.24,0,0,1,6.34,2.06.35.35,0,0,1,.07.49l-1.72,2.07a.35.35,0,0,1-.49.07,8.1,8.1,0,0,0-4.41-1.4c-1.68,0-2.55.73-2.55,1.75s.59,1.57,2.76,1.78l1.82.18c3.54.35,5.22,2.17,5.22,4.93,0,3.36-2.45,5.71-7.07,5.71A10.49,10.49,0,0,1,598.1,22.23Z"/><path d="M615.53,20.2a13.12,13.12,0,0,1-.59-4.13,13.5,13.5,0,0,1,.56-4.17c.94-2.94,3.53-4.65,6.89-4.65s6,1.78,6.93,4.65a15,15,0,0,1,.56,5.08.34.34,0,0,1-.38.35H619.1a.19.19,0,0,0-.21.21,3.66,3.66,0,0,0,.25,1.29,3.68,3.68,0,0,0,3.78,2.56,5.07,5.07,0,0,0,4-1.61.36.36,0,0,1,.53-.07l2.06,1.82a.31.31,0,0,1,0,.49,8.91,8.91,0,0,1-6.93,2.87C619,24.89,616.48,23.14,615.53,20.2Zm10.19-7.46a3.61,3.61,0,0,0-6.62,0,4.29,4.29,0,0,0-.21,1.44.19.19,0,0,0,.21.21h6.62a.19.19,0,0,0,.21-.21A4.29,4.29,0,0,0,625.72,12.74Z"/><path d="M644.06,24.5a.33.33,0,0,1-.35-.35V14.42c0-2.17-1.09-3.67-3.19-3.67s-3.22,1.5-3.22,3.67v9.73a.33.33,0,0,1-.35.35h-3.22a.33.33,0,0,1-.35-.35V8a.33.33,0,0,1,.35-.35H637a.33.33,0,0,1,.35.35V9.21h0a5.2,5.2,0,0,1,4.44-2c3.61,0,5.85,2.66,5.85,6.26V24.15a.33.33,0,0,1-.35.35Z"/><path d="M656.8,24.71c-3.4,0-4.69-1.64-4.69-4.93V10.89a.19.19,0,0,0-.21-.21h-1.12a.33.33,0,0,1-.35-.35V8a.33.33,0,0,1,.35-.35h1.12a.19.19,0,0,0,.21-.21V2.8a.33.33,0,0,1,.35-.35h3.22a.33.33,0,0,1,.35.35V7.42a.19.19,0,0,0,.21.21h2.24a.33.33,0,0,1,.35.35v2.35a.33.33,0,0,1-.35.35h-2.24a.19.19,0,0,0-.21.21v8.75c0,1.19.49,1.57,1.57,1.57h.88a.33.33,0,0,1,.35.35v2.8a.33.33,0,0,1-.35.35Z"/><path d="M672.44,24.5a.33.33,0,0,1-.35-.35V22.93h0c-.81,1.15-2.38,2-4.76,2-3.08,0-5.67-1.61-5.67-5.15s2.59-5.35,6.75-5.35h3.43a.19.19,0,0,0,.21-.21v-.81c0-1.92-.91-2.8-3.74-2.8a5.9,5.9,0,0,0-3.85,1.16.32.32,0,0,1-.49-.07l-1.3-2.31a.34.34,0,0,1,.07-.46,9.86,9.86,0,0,1,6-1.64c5.14,0,7,1.75,7,5.88v11a.33.33,0,0,1-.35.35ZM672,18.83V17.54a.19.19,0,0,0-.21-.21H669c-2.52,0-3.64.7-3.64,2.27,0,1.4,1,2.1,2.91,2.1C670.69,21.7,672,20.76,672,18.83Z"/><path d="M680.35,24.5a.33.33,0,0,1-.35-.35V8a.33.33,0,0,1,.35-.35h3.22a.33.33,0,0,1,.35.35V9.42h0a4.81,4.81,0,0,1,4.37-2.17,5.09,5.09,0,0,1,3.54,1.4c.17.17.21.31.07.49l-1.86,2.34a.31.31,0,0,1-.49.07,4.54,4.54,0,0,0-2.48-.8c-2.21,0-3.19,1.57-3.19,4.27v9.13a.33.33,0,0,1-.35.35Z"/><path d="M692.78,22.23a.34.34,0,0,1,0-.49l2-2.1a.34.34,0,0,1,.49,0,7.83,7.83,0,0,0,4.94,1.92c2.06,0,3.11-.84,3.11-2s-.59-1.65-2.8-1.86l-1.82-.17c-3.43-.35-5.18-2.1-5.18-5,0-3.26,2.35-5.32,6.55-5.32a10.21,10.21,0,0,1,6.33,2.06.34.34,0,0,1,.07.49l-1.71,2.07a.35.35,0,0,1-.49.07,8.1,8.1,0,0,0-4.41-1.4c-1.68,0-2.56.73-2.56,1.75s.6,1.57,2.77,1.78l1.82.18c3.53.35,5.21,2.17,5.21,4.93,0,3.36-2.45,5.71-7.07,5.71A10.48,10.48,0,0,1,692.78,22.23Z"/><path d="M710.21,20.2a13.09,13.09,0,0,1-.6-4.13,13.5,13.5,0,0,1,.56-4.17c1-2.94,3.54-4.65,6.9-4.65s6,1.78,6.93,4.65a15.28,15.28,0,0,1,.56,5.08.34.34,0,0,1-.39.35H713.78a.19.19,0,0,0-.21.21,3.66,3.66,0,0,0,.24,1.29,3.68,3.68,0,0,0,3.78,2.56,5.1,5.1,0,0,0,4-1.61.35.35,0,0,1,.52-.07l2.07,1.82a.32.32,0,0,1,0,.49,8.88,8.88,0,0,1-6.93,2.87C713.67,24.89,711.15,23.14,710.21,20.2Zm10.18-7.46a3.6,3.6,0,0,0-6.61,0,4.29,4.29,0,0,0-.21,1.44.19.19,0,0,0,.21.21h6.61a.19.19,0,0,0,.21-.21A4.29,4.29,0,0,0,720.39,12.74Z"/><path d="M.35,68.8A.33.33,0,0,1,0,68.45V46a.33.33,0,0,1,.35-.35H3.57a.33.33,0,0,1,.35.35v1.26H4a5.08,5.08,0,0,1,4.48-2,5.65,5.65,0,0,1,5.84,4.06,14,14,0,0,1,.6,4.76,14.08,14.08,0,0,1-.6,4.76,5.66,5.66,0,0,1-5.84,4.06,5.06,5.06,0,0,1-4.48-2h0v7.56a.33.33,0,0,1-.35.35ZM10.54,57.22a10.1,10.1,0,0,0,.35-3.15,10.1,10.1,0,0,0-.35-3.15,3,3,0,0,0-3.12-2.17,3,3,0,0,0-3.15,2.17,10.1,10.1,0,0,0-.35,3.15,10.1,10.1,0,0,0,.35,3.15,3,3,0,0,0,3.15,2.17A3,3,0,0,0,10.54,57.22Z"/><path d="M18,58.23a12.58,12.58,0,0,1-.56-4.16A12.61,12.61,0,0,1,18,49.9c.95-2.94,3.54-4.65,7-4.65S31,47,31.92,49.9a12.35,12.35,0,0,1,.56,4.17,12.32,12.32,0,0,1-.56,4.16C31,61.17,28.38,62.89,25,62.89S19,61.17,18,58.23Zm10.12-1a9.49,9.49,0,0,0,.35-3.11A9.67,9.67,0,0,0,28.14,51,3.12,3.12,0,0,0,25,48.75,3.16,3.16,0,0,0,21.8,51a9.71,9.71,0,0,0-.34,3.12,9.53,9.53,0,0,0,.34,3.11A3.17,3.17,0,0,0,25,59.39,3.12,3.12,0,0,0,28.14,57.18Z"/><path d="M36.33,62.5a.33.33,0,0,1-.35-.35V46a.33.33,0,0,1,.35-.35h3.22a.33.33,0,0,1,.35.35v1.44h0a4.83,4.83,0,0,1,4.38-2.17,5.09,5.09,0,0,1,3.54,1.4c.17.17.2.31.07.49l-1.86,2.34a.31.31,0,0,1-.49.07,4.55,4.55,0,0,0-2.49-.8c-2.2,0-3.18,1.57-3.18,4.27v9.13a.33.33,0,0,1-.35.35Z"/><path d="M58.52,62.5a.33.33,0,0,1-.35-.35V48.89a.19.19,0,0,0-.21-.21H56.84a.33.33,0,0,1-.35-.35V46a.33.33,0,0,1,.35-.35H58a.19.19,0,0,0,.21-.21V44.34c0-3.92,1.92-5.64,5.6-5.64h1.54a.33.33,0,0,1,.35.35v2.8a.33.33,0,0,1-.35.35H64.22c-1.75,0-2.13.42-2.13,2.07v1.15a.19.19,0,0,0,.21.21h3a.33.33,0,0,1,.35.35v2.35a.33.33,0,0,1-.35.35h-3a.19.19,0,0,0-.21.21V62.15a.33.33,0,0,1-.35.35Z"/><path d="M78.47,62.5a.33.33,0,0,1-.35-.35V60.93h0c-.8,1.15-2.38,2-4.76,2-3.08,0-5.67-1.61-5.67-5.15s2.59-5.35,6.76-5.35h3.43a.19.19,0,0,0,.21-.21v-.81c0-1.92-.91-2.8-3.75-2.8a5.92,5.92,0,0,0-3.85,1.16.32.32,0,0,1-.49-.07l-1.29-2.31a.33.33,0,0,1,.07-.46,9.83,9.83,0,0,1,6-1.64c5.15,0,7,1.75,7,5.88v11a.33.33,0,0,1-.35.35Zm-.42-5.67V55.54a.19.19,0,0,0-.21-.21H75c-2.52,0-3.64.7-3.64,2.27,0,1.4,1,2.1,2.9,2.1C76.72,59.7,78.05,58.76,78.05,56.83Z"/><path d="M90.58,62.71c-3.29,0-4.62-1.57-4.62-4.83V39.05a.33.33,0,0,1,.35-.35h3.22a.33.33,0,0,1,.35.35V57.67c0,1.16.45,1.54,1.47,1.54h.77a.33.33,0,0,1,.35.35v2.8a.33.33,0,0,1-.35.35Z"/><path d="M100,62.71c-3.29,0-4.62-1.57-4.62-4.83V39.05a.33.33,0,0,1,.35-.35h3.22a.33.33,0,0,1,.35.35V57.67c0,1.16.45,1.54,1.47,1.54h.77a.33.33,0,0,1,.35.35v2.8a.33.33,0,0,1-.35.35Z"/><path d="M114.94,62.5a.33.33,0,0,1-.35-.35V60.93h0c-.8,1.15-2.38,2-4.76,2-3.08,0-5.67-1.61-5.67-5.15s2.59-5.35,6.76-5.35h3.43a.19.19,0,0,0,.21-.21v-.81c0-1.92-.91-2.8-3.75-2.8a5.92,5.92,0,0,0-3.85,1.16.32.32,0,0,1-.49-.07l-1.29-2.31a.33.33,0,0,1,.07-.46,9.83,9.83,0,0,1,6-1.64c5.15,0,7,1.75,7,5.88v11a.33.33,0,0,1-.35.35Zm-.42-5.67V55.54a.19.19,0,0,0-.21-.21h-2.8c-2.52,0-3.64.7-3.64,2.27,0,1.4,1,2.1,2.9,2.1C113.19,59.7,114.52,58.76,114.52,56.83Z"/><path d="M121.48,60.23a.34.34,0,0,1,0-.49l2-2.1a.34.34,0,0,1,.49,0,7.78,7.78,0,0,0,4.93,1.92c2.07,0,3.12-.84,3.12-2s-.6-1.65-2.8-1.86l-1.82-.17c-3.43-.35-5.18-2.1-5.18-5,0-3.26,2.34-5.32,6.54-5.32a10.24,10.24,0,0,1,6.34,2.06.35.35,0,0,1,.07.49l-1.72,2.07a.35.35,0,0,1-.49.07,8.1,8.1,0,0,0-4.41-1.4c-1.68,0-2.55.73-2.55,1.75s.59,1.57,2.76,1.78l1.82.18c3.54.35,5.22,2.17,5.22,4.93,0,3.36-2.45,5.71-7.07,5.71A10.49,10.49,0,0,1,121.48,60.23Z"/><path d="M146.47,58.2a13.12,13.12,0,0,1-.59-4.13,13.5,13.5,0,0,1,.56-4.17c.94-2.94,3.53-4.65,6.89-4.65s6,1.78,6.93,4.65a15,15,0,0,1,.56,5.08.34.34,0,0,1-.38.35H150a.19.19,0,0,0-.21.21,3.95,3.95,0,0,0,4,3.85,5.07,5.07,0,0,0,3.95-1.61.36.36,0,0,1,.53-.07l2.06,1.82a.31.31,0,0,1,0,.49,8.91,8.91,0,0,1-6.93,2.87C149.94,62.89,147.42,61.14,146.47,58.2Zm10.19-7.46a3.61,3.61,0,0,0-6.62,0,4.29,4.29,0,0,0-.21,1.44.19.19,0,0,0,.21.21h6.62a.19.19,0,0,0,.21-.21A4.29,4.29,0,0,0,156.66,50.74Z"/><path d="M175,62.5a.33.33,0,0,1-.35-.35V52.42c0-2.17-1.09-3.67-3.19-3.67s-3.22,1.5-3.22,3.67v9.73a.33.33,0,0,1-.35.35h-3.22a.33.33,0,0,1-.35-.35V46a.33.33,0,0,1,.35-.35h3.22a.33.33,0,0,1,.35.35v1.23h0a5.2,5.2,0,0,1,4.44-2c3.61,0,5.85,2.66,5.85,6.26V62.15a.33.33,0,0,1-.35.35Z"/><path d="M194.91,62.71c-3.29,0-4.62-1.57-4.62-4.83V39.05a.33.33,0,0,1,.35-.35h3.22a.33.33,0,0,1,.35.35V57.67c0,1.16.46,1.54,1.47,1.54h.77a.33.33,0,0,1,.35.35v2.8a.33.33,0,0,1-.35.35Z"/><path d="M199.5,58.23a12.32,12.32,0,0,1-.56-4.16,12.35,12.35,0,0,1,.56-4.17c.94-2.94,3.53-4.65,7-4.65s6,1.71,6.93,4.65a12.35,12.35,0,0,1,.56,4.17,12.32,12.32,0,0,1-.56,4.16c-.94,2.94-3.53,4.66-6.93,4.66S200.44,61.17,199.5,58.23Zm10.11-1a9.49,9.49,0,0,0,.35-3.11,9.67,9.67,0,0,0-.35-3.12,3.11,3.11,0,0,0-3.15-2.2,3.15,3.15,0,0,0-3.18,2.2,9.67,9.67,0,0,0-.35,3.12,9.49,9.49,0,0,0,.35,3.11,3.16,3.16,0,0,0,3.18,2.21A3.12,3.12,0,0,0,209.61,57.18Z"/><path d="M216.43,60.23a.34.34,0,0,1,0-.49l2-2.1a.34.34,0,0,1,.49,0,7.81,7.81,0,0,0,4.94,1.92c2.06,0,3.11-.84,3.11-2s-.59-1.65-2.8-1.86l-1.82-.17c-3.43-.35-5.18-2.1-5.18-5,0-3.26,2.35-5.32,6.54-5.32a10.22,10.22,0,0,1,6.34,2.06.34.34,0,0,1,.07.49l-1.71,2.07a.35.35,0,0,1-.49.07,8.1,8.1,0,0,0-4.41-1.4c-1.68,0-2.56.73-2.56,1.75s.59,1.57,2.76,1.78l1.83.18c3.53.35,5.21,2.17,5.21,4.93,0,3.36-2.45,5.71-7.07,5.71A10.49,10.49,0,0,1,216.43,60.23Z"/><path d="M240.72,60.23a.34.34,0,0,1,0-.49l2-2.1a.34.34,0,0,1,.49,0,7.78,7.78,0,0,0,4.93,1.92c2.07,0,3.12-.84,3.12-2s-.59-1.65-2.8-1.86l-1.82-.17c-3.43-.35-5.18-2.1-5.18-5,0-3.26,2.34-5.32,6.54-5.32a10.22,10.22,0,0,1,6.34,2.06.34.34,0,0,1,.07.49l-1.71,2.07a.35.35,0,0,1-.49.07,8.14,8.14,0,0,0-4.42-1.4c-1.67,0-2.55.73-2.55,1.75s.59,1.57,2.76,1.78l1.83.18c3.53.35,5.21,2.17,5.21,4.93,0,3.36-2.45,5.71-7.07,5.71A10.51,10.51,0,0,1,240.72,60.23Z"/><path d="M258.82,42.45a.33.33,0,0,1-.35-.35V39.05a.33.33,0,0,1,.35-.35H262a.33.33,0,0,1,.35.35V42.1a.33.33,0,0,1-.35.35Zm0,20a.33.33,0,0,1-.35-.35V46a.33.33,0,0,1,.35-.35H262a.33.33,0,0,1,.35.35V62.15a.33.33,0,0,1-.35.35Z"/><path d="M265.78,60.23a.34.34,0,0,1,0-.49l2-2.1a.34.34,0,0,1,.49,0,7.81,7.81,0,0,0,4.94,1.92c2.06,0,3.11-.84,3.11-2s-.6-1.65-2.8-1.86l-1.82-.17c-3.43-.35-5.18-2.1-5.18-5,0-3.26,2.34-5.32,6.54-5.32a10.24,10.24,0,0,1,6.34,2.06.34.34,0,0,1,.07.49l-1.72,2.07a.34.34,0,0,1-.48.07,8.14,8.14,0,0,0-4.42-1.4c-1.68,0-2.55.73-2.55,1.75s.59,1.57,2.76,1.78l1.82.18c3.54.35,5.22,2.17,5.22,4.93,0,3.36-2.45,5.71-7.07,5.71A10.49,10.49,0,0,1,265.78,60.23Z"/><path d="M288.46,62.71c-3.39,0-4.69-1.64-4.69-4.93V48.89a.19.19,0,0,0-.21-.21h-1.12a.33.33,0,0,1-.35-.35V46a.33.33,0,0,1,.35-.35h1.12a.19.19,0,0,0,.21-.21V40.8a.33.33,0,0,1,.35-.35h3.22a.33.33,0,0,1,.35.35v4.62a.19.19,0,0,0,.21.21h2.24a.33.33,0,0,1,.35.35v2.35a.33.33,0,0,1-.35.35H287.9a.19.19,0,0,0-.21.21v8.75c0,1.19.49,1.57,1.58,1.57h.87a.33.33,0,0,1,.35.35v2.8a.33.33,0,0,1-.35.35Z"/><path d="M293.75,58.2a13.09,13.09,0,0,1-.6-4.13,13.5,13.5,0,0,1,.56-4.17c1-2.94,3.54-4.65,6.9-4.65s6,1.78,6.93,4.65A15.28,15.28,0,0,1,308.1,55a.34.34,0,0,1-.39.35H297.32a.19.19,0,0,0-.21.21,3.91,3.91,0,0,0,4,3.85,5.1,5.1,0,0,0,4-1.61.36.36,0,0,1,.53-.07l2.06,1.82a.3.3,0,0,1,0,.49,8.88,8.88,0,0,1-6.93,2.87C297.21,62.89,294.69,61.14,293.75,58.2Zm10.18-7.46a3.6,3.6,0,0,0-6.61,0,4.29,4.29,0,0,0-.21,1.44.19.19,0,0,0,.21.21h6.61a.19.19,0,0,0,.21-.21A4.29,4.29,0,0,0,303.93,50.74Z"/><path d="M332.6,62.5a.33.33,0,0,1-.35-.35V52.42c0-2.17-1.08-3.67-3.19-3.67s-3.22,1.5-3.22,3.67v9.73a.33.33,0,0,1-.35.35h-3.22a.33.33,0,0,1-.35-.35V52.42c0-2.17-1.08-3.67-3.18-3.67s-3.22,1.5-3.22,3.67v9.73a.33.33,0,0,1-.35.35H312a.33.33,0,0,1-.35-.35V46a.33.33,0,0,1,.35-.35h3.22a.33.33,0,0,1,.35.35v1.23h0a5.23,5.23,0,0,1,4.45-2,5.43,5.43,0,0,1,4.62,2.24h0A6.91,6.91,0,0,1,330,45.25c3.93,0,6.13,2.66,6.13,6.26V62.15a.33.33,0,0,1-.35.35Z"/><path d="M350.45,62.5a.33.33,0,0,1-.35-.35V60.93h0c-.8,1.15-2.38,2-4.76,2-3.08,0-5.67-1.61-5.67-5.15s2.59-5.35,6.76-5.35h3.43a.19.19,0,0,0,.21-.21v-.81c0-1.92-.91-2.8-3.75-2.8a5.92,5.92,0,0,0-3.85,1.16.32.32,0,0,1-.49-.07l-1.29-2.31a.33.33,0,0,1,.07-.46,9.83,9.83,0,0,1,6-1.64c5.15,0,7,1.75,7,5.88v11a.33.33,0,0,1-.35.35ZM350,56.83V55.54a.19.19,0,0,0-.21-.21H347c-2.52,0-3.64.7-3.64,2.27,0,1.4,1,2.1,2.9,2.1C348.7,59.7,350,58.76,350,56.83Z"/><path d="M357,60.23a.34.34,0,0,1,0-.49l2-2.1a.34.34,0,0,1,.49,0,7.78,7.78,0,0,0,4.93,1.92c2.07,0,3.12-.84,3.12-2s-.6-1.65-2.8-1.86l-1.82-.17c-3.43-.35-5.18-2.1-5.18-5,0-3.26,2.34-5.32,6.54-5.32a10.24,10.24,0,0,1,6.34,2.06.35.35,0,0,1,.07.49L369,49.87a.35.35,0,0,1-.49.07,8.1,8.1,0,0,0-4.41-1.4c-1.68,0-2.55.73-2.55,1.75s.59,1.57,2.76,1.78l1.82.18c3.54.35,5.22,2.17,5.22,4.93,0,3.36-2.45,5.71-7.07,5.71A10.49,10.49,0,0,1,357,60.23Z"/><path d="M392.69,62.5a.33.33,0,0,1-.35-.35V60.89h0a5.09,5.09,0,0,1-4.48,2A5.68,5.68,0,0,1,382,58.83a14.12,14.12,0,0,1-.59-4.76,14,14,0,0,1,.59-4.76,5.67,5.67,0,0,1,5.85-4.06,5.11,5.11,0,0,1,4.48,2h0V39.05a.33.33,0,0,1,.35-.35h3.22a.33.33,0,0,1,.35.35v23.1a.33.33,0,0,1-.35.35Zm-.7-5.28a9.8,9.8,0,0,0,.35-3.15,9.8,9.8,0,0,0-.35-3.15,3.34,3.34,0,0,0-6.26,0,9.8,9.8,0,0,0-.35,3.15,9.8,9.8,0,0,0,.35,3.15,3.34,3.34,0,0,0,6.26,0Z"/><path d="M400.36,58.2a13.09,13.09,0,0,1-.6-4.13,13.5,13.5,0,0,1,.56-4.17c.95-2.94,3.54-4.65,6.9-4.65s6,1.78,6.93,4.65a15.28,15.28,0,0,1,.56,5.08.34.34,0,0,1-.39.35H403.93a.19.19,0,0,0-.21.21,3.91,3.91,0,0,0,4,3.85,5.1,5.1,0,0,0,4-1.61.35.35,0,0,1,.52-.07l2.07,1.82a.32.32,0,0,1,0,.49,8.88,8.88,0,0,1-6.93,2.87C403.82,62.89,401.3,61.14,400.36,58.2Zm10.18-7.46a3.6,3.6,0,0,0-6.61,0,4.29,4.29,0,0,0-.21,1.44.19.19,0,0,0,.21.21h6.61a.19.19,0,0,0,.21-.21A4.29,4.29,0,0,0,410.54,50.74Z"/><path d="M435.81,62.5a.33.33,0,0,1-.35-.35V60.93h0c-.81,1.15-2.38,2-4.76,2-3.08,0-5.67-1.61-5.67-5.15s2.59-5.35,6.75-5.35h3.43a.19.19,0,0,0,.21-.21v-.81c0-1.92-.91-2.8-3.74-2.8a5.9,5.9,0,0,0-3.85,1.16.32.32,0,0,1-.49-.07L426,47.35a.34.34,0,0,1,.07-.46,9.86,9.86,0,0,1,6-1.64c5.14,0,7,1.75,7,5.88v11a.33.33,0,0,1-.35.35Zm-.42-5.67V55.54a.19.19,0,0,0-.21-.21h-2.8c-2.52,0-3.64.7-3.64,2.27,0,1.4,1,2.1,2.91,2.1C434.06,59.7,435.39,58.76,435.39,56.83Z"/><path d="M443,58.23a13.23,13.23,0,0,1-.53-4.16A13.25,13.25,0,0,1,443,49.9c1-3,3.57-4.65,7-4.65a7.35,7.35,0,0,1,5.85,2.62.34.34,0,0,1,0,.49l-2.2,1.93a.32.32,0,0,1-.49-.07A3.82,3.82,0,0,0,450,48.75,3.09,3.09,0,0,0,446.8,51a9.93,9.93,0,0,0-.35,3.12,10.17,10.17,0,0,0,.35,3.15A3.11,3.11,0,0,0,450,59.39a3.84,3.84,0,0,0,3.12-1.47.31.31,0,0,1,.49,0l2.2,1.93c.18.14.14.31,0,.49A7.46,7.46,0,0,1,450,62.89C446.56,62.89,444,61.24,443,58.23Z"/><path d="M458.91,58.23a13.23,13.23,0,0,1-.53-4.16,13.25,13.25,0,0,1,.53-4.17c1-3,3.57-4.65,7-4.65a7.33,7.33,0,0,1,5.84,2.62.34.34,0,0,1,0,.49l-2.21,1.93a.32.32,0,0,1-.49-.07,3.8,3.8,0,0,0-3.11-1.47,3.09,3.09,0,0,0-3.15,2.2,9.93,9.93,0,0,0-.35,3.12,10.17,10.17,0,0,0,.35,3.15,3.11,3.11,0,0,0,3.15,2.17A3.82,3.82,0,0,0,469,57.92a.31.31,0,0,1,.49,0l2.21,1.93c.17.14.14.31,0,.49a7.44,7.44,0,0,1-5.84,2.59C462.48,62.89,459.89,61.24,458.91,58.23Z"/><path d="M474.9,58.2a13.12,13.12,0,0,1-.59-4.13,13.5,13.5,0,0,1,.56-4.17c.94-2.94,3.54-4.65,6.9-4.65s6,1.78,6.93,4.65a15.28,15.28,0,0,1,.56,5.08.34.34,0,0,1-.39.35h-10.4c-.14,0-.2.07-.2.21a3.91,3.91,0,0,0,4,3.85,5.1,5.1,0,0,0,4-1.61.35.35,0,0,1,.52-.07l2.07,1.82a.32.32,0,0,1,0,.49,8.88,8.88,0,0,1-6.93,2.87C478.37,62.89,475.85,61.14,474.9,58.2Zm10.19-7.46a3.27,3.27,0,0,0-3.29-2.17,3.31,3.31,0,0,0-3.33,2.17,4.31,4.31,0,0,0-.2,1.44c0,.14.06.21.2.21h6.62a.19.19,0,0,0,.21-.21A4.29,4.29,0,0,0,485.09,50.74Z"/><path d="M491.74,60.23a.34.34,0,0,1,0-.49l2-2.1a.34.34,0,0,1,.49,0,7.83,7.83,0,0,0,4.94,1.92c2.07,0,3.12-.84,3.12-2s-.6-1.65-2.8-1.86l-1.82-.17c-3.44-.35-5.19-2.1-5.19-5,0-3.26,2.35-5.32,6.55-5.32a10.24,10.24,0,0,1,6.34,2.06.35.35,0,0,1,.07.49l-1.72,2.07a.35.35,0,0,1-.49.07,8.1,8.1,0,0,0-4.41-1.4c-1.68,0-2.55.73-2.55,1.75s.59,1.57,2.76,1.78l1.82.18c3.54.35,5.22,2.17,5.22,4.93,0,3.36-2.45,5.71-7.07,5.71A10.49,10.49,0,0,1,491.74,60.23Z"/><path d="M509.13,58.23a12.58,12.58,0,0,1-.56-4.16,12.61,12.61,0,0,1,.56-4.17c.95-2.94,3.54-4.65,7-4.65s6,1.71,6.93,4.65a12.35,12.35,0,0,1,.56,4.17,12.32,12.32,0,0,1-.56,4.16c-.94,2.94-3.53,4.66-6.93,4.66S510.08,61.17,509.13,58.23Zm10.12-1a9.49,9.49,0,0,0,.35-3.11,9.67,9.67,0,0,0-.35-3.12,3.11,3.11,0,0,0-3.15-2.2,3.14,3.14,0,0,0-3.18,2.2,9.36,9.36,0,0,0-.36,3.12,9.19,9.19,0,0,0,.36,3.11,3.15,3.15,0,0,0,3.18,2.21A3.12,3.12,0,0,0,519.25,57.18Z"/><path d="M544.7,62.5a.33.33,0,0,1-.35-.35V60.93h0c-.81,1.15-2.38,2-4.76,2-3.08,0-5.67-1.61-5.67-5.15s2.59-5.35,6.75-5.35h3.43c.15,0,.22-.07.22-.21v-.81c0-1.92-.91-2.8-3.75-2.8a5.9,5.9,0,0,0-3.85,1.16.32.32,0,0,1-.49-.07l-1.3-2.31a.34.34,0,0,1,.07-.46,9.86,9.86,0,0,1,6-1.64c5.15,0,7,1.75,7,5.88v11a.33.33,0,0,1-.36.35Zm-.42-5.67V55.54c0-.14-.07-.21-.22-.21h-2.8c-2.52,0-3.63.7-3.63,2.27,0,1.4,1,2.1,2.9,2.1C543,59.7,544.28,58.76,544.28,56.83Z"/><path d="M569.86,62.5a.33.33,0,0,1-.35-.35V60.93h0c-.8,1.15-2.38,2-4.76,2-3.08,0-5.67-1.61-5.67-5.15s2.59-5.35,6.76-5.35h3.43a.19.19,0,0,0,.21-.21v-.81c0-1.92-.91-2.8-3.75-2.8a5.92,5.92,0,0,0-3.85,1.16.32.32,0,0,1-.49-.07l-1.29-2.31a.33.33,0,0,1,.07-.46,9.83,9.83,0,0,1,6-1.64c5.15,0,7,1.75,7,5.88v11a.33.33,0,0,1-.35.35Zm-.42-5.67V55.54a.19.19,0,0,0-.21-.21h-2.8c-2.52,0-3.64.7-3.64,2.27,0,1.4,1,2.1,2.9,2.1C568.11,59.7,569.44,58.76,569.44,56.83Z"/><path d="M582,62.71c-3.29,0-4.62-1.57-4.62-4.83V39.05a.33.33,0,0,1,.35-.35h3.22a.33.33,0,0,1,.35.35V57.67c0,1.16.45,1.54,1.47,1.54h.77a.33.33,0,0,1,.35.35v2.8a.33.33,0,0,1-.35.35Z"/><path d="M591.56,62.71c-3.4,0-4.69-1.64-4.69-4.93V48.89a.19.19,0,0,0-.21-.21h-1.12a.33.33,0,0,1-.35-.35V46a.33.33,0,0,1,.35-.35h1.12a.19.19,0,0,0,.21-.21V40.8a.33.33,0,0,1,.35-.35h3.22a.33.33,0,0,1,.35.35v4.62a.19.19,0,0,0,.21.21h2.24a.33.33,0,0,1,.35.35v2.35a.33.33,0,0,1-.35.35H591a.19.19,0,0,0-.21.21v8.75c0,1.19.49,1.57,1.57,1.57h.88a.33.33,0,0,1,.35.35v2.8a.33.33,0,0,1-.35.35Z"/><path d="M607.52,62.5a.33.33,0,0,1-.35-.35V60.93h0a5.18,5.18,0,0,1-4.37,2c-3.61,0-5.81-2.66-5.81-6.27V46a.33.33,0,0,1,.35-.35h3.22a.33.33,0,0,1,.35.35v9.73c0,2.17,1,3.68,3.15,3.68s3.15-1.51,3.15-3.64V46a.33.33,0,0,1,.35-.35h3.22a.33.33,0,0,1,.35.35V62.15a.33.33,0,0,1-.35.35Z"/><path d="M615.85,62.5a.33.33,0,0,1-.35-.35V46a.33.33,0,0,1,.35-.35h3.22a.33.33,0,0,1,.35.35v1.44h0a4.83,4.83,0,0,1,4.38-2.17,5.05,5.05,0,0,1,3.53,1.4c.18.17.21.31.07.49l-1.85,2.34a.31.31,0,0,1-.49.07,4.57,4.57,0,0,0-2.49-.8c-2.2,0-3.18,1.57-3.18,4.27v9.13a.33.33,0,0,1-.35.35Z"/><path d="M639,62.5a.33.33,0,0,1-.35-.35V60.93h0c-.8,1.15-2.38,2-4.76,2-3.08,0-5.67-1.61-5.67-5.15s2.59-5.35,6.76-5.35h3.43a.19.19,0,0,0,.21-.21v-.81c0-1.92-.91-2.8-3.75-2.8A5.92,5.92,0,0,0,631,49.73a.32.32,0,0,1-.49-.07l-1.29-2.31a.33.33,0,0,1,.07-.46,9.83,9.83,0,0,1,6-1.64c5.15,0,7,1.75,7,5.88v11a.33.33,0,0,1-.35.35Zm-.42-5.67V55.54a.19.19,0,0,0-.21-.21h-2.8c-2.52,0-3.64.7-3.64,2.27,0,1.4,1,2.1,2.9,2.1C637.27,59.7,638.6,58.76,638.6,56.83Z"/><path d="M645.56,60.23a.34.34,0,0,1,0-.49l2-2.1a.34.34,0,0,1,.49,0A7.78,7.78,0,0,0,653,59.56c2.07,0,3.12-.84,3.12-2s-.6-1.65-2.8-1.86l-1.82-.17c-3.43-.35-5.18-2.1-5.18-5,0-3.26,2.34-5.32,6.54-5.32a10.24,10.24,0,0,1,6.34,2.06.35.35,0,0,1,.07.49l-1.72,2.07a.35.35,0,0,1-.49.07,8.1,8.1,0,0,0-4.41-1.4c-1.68,0-2.55.73-2.55,1.75s.59,1.57,2.76,1.78l1.82.18c3.54.35,5.22,2.17,5.22,4.93,0,3.36-2.45,5.71-7.07,5.71A10.49,10.49,0,0,1,645.56,60.23Z"/><path d="M670.48,58.23a13.27,13.27,0,0,1-.52-4.16,13.29,13.29,0,0,1,.52-4.17c1-3,3.57-4.65,7-4.65a7.33,7.33,0,0,1,5.84,2.62.34.34,0,0,1,0,.49l-2.21,1.93a.32.32,0,0,1-.49-.07,3.8,3.8,0,0,0-3.11-1.47A3.09,3.09,0,0,0,674.3,51a9.93,9.93,0,0,0-.35,3.12,10.17,10.17,0,0,0,.35,3.15,3.11,3.11,0,0,0,3.15,2.17,3.82,3.82,0,0,0,3.11-1.47.31.31,0,0,1,.49,0l2.21,1.93c.17.14.14.31,0,.49a7.44,7.44,0,0,1-5.84,2.59C674.05,62.89,671.46,61.24,670.48,58.23Z"/><path d="M686.44,58.23a12.58,12.58,0,0,1-.56-4.16,12.61,12.61,0,0,1,.56-4.17c.95-2.94,3.54-4.65,7-4.65s6,1.71,6.93,4.65a12.61,12.61,0,0,1,.56,4.17,12.58,12.58,0,0,1-.56,4.16c-1,2.94-3.54,4.66-6.93,4.66S687.39,61.17,686.44,58.23Zm10.12-1a9.49,9.49,0,0,0,.35-3.11,9.67,9.67,0,0,0-.35-3.12,3.12,3.12,0,0,0-3.15-2.2,3.16,3.16,0,0,0-3.19,2.2,9.67,9.67,0,0,0-.35,3.12,9.49,9.49,0,0,0,.35,3.11,3.17,3.17,0,0,0,3.19,2.21A3.12,3.12,0,0,0,696.56,57.18Z"/><path d="M725.4,62.5a.33.33,0,0,1-.35-.35V52.42c0-2.17-1.09-3.67-3.19-3.67s-3.22,1.5-3.22,3.67v9.73a.33.33,0,0,1-.35.35h-3.22a.33.33,0,0,1-.35-.35V52.42c0-2.17-1.08-3.67-3.18-3.67s-3.22,1.5-3.22,3.67v9.73a.33.33,0,0,1-.35.35h-3.22a.33.33,0,0,1-.35-.35V46a.33.33,0,0,1,.35-.35H708a.33.33,0,0,1,.35.35v1.23h0a5.23,5.23,0,0,1,4.45-2,5.43,5.43,0,0,1,4.62,2.24h0a6.91,6.91,0,0,1,5.39-2.24c3.92,0,6.13,2.66,6.13,6.26V62.15a.33.33,0,0,1-.35.35Z"/><path d="M732.85,58.23a12.32,12.32,0,0,1-.56-4.16,12.35,12.35,0,0,1,.56-4.17c.94-2.94,3.53-4.65,7-4.65s6,1.71,6.93,4.65a12.61,12.61,0,0,1,.56,4.17,12.58,12.58,0,0,1-.56,4.16c-1,2.94-3.54,4.66-6.93,4.66S733.79,61.17,732.85,58.23Zm10.12-1a9.49,9.49,0,0,0,.35-3.11A9.67,9.67,0,0,0,743,51a3.12,3.12,0,0,0-3.15-2.2,3.16,3.16,0,0,0-3.19,2.2,9.67,9.67,0,0,0-.35,3.12,9.49,9.49,0,0,0,.35,3.11,3.17,3.17,0,0,0,3.19,2.21A3.12,3.12,0,0,0,743,57.18Z"/><path d="M11.9,100.5a.33.33,0,0,1-.35-.35V98.93h0c-.8,1.15-2.38,2-4.76,2-3.08,0-5.67-1.61-5.67-5.15s2.59-5.35,6.76-5.35h3.43a.19.19,0,0,0,.21-.21v-.81c0-1.92-.91-2.8-3.75-2.8a5.92,5.92,0,0,0-3.85,1.16.32.32,0,0,1-.49-.07L2.1,85.35a.33.33,0,0,1,.07-.46,9.83,9.83,0,0,1,6-1.64c5.15,0,7,1.75,7,5.88v11a.33.33,0,0,1-.35.35Zm-.42-5.67V93.54a.19.19,0,0,0-.21-.21H8.47c-2.52,0-3.64.7-3.64,2.27,0,1.4,1,2.1,2.9,2.1C10.15,97.7,11.48,96.76,11.48,94.83Z"/><path d="M30.13,100.5a.33.33,0,0,1-.35-.35V90.42c0-2.17-1.08-3.67-3.18-3.67s-3.22,1.5-3.22,3.67v9.73a.33.33,0,0,1-.35.35H19.81a.33.33,0,0,1-.35-.35V84a.33.33,0,0,1,.35-.35H23a.33.33,0,0,1,.35.35v1.23h0a5.23,5.23,0,0,1,4.45-2c3.6,0,5.85,2.66,5.85,6.26v10.64a.34.34,0,0,1-.36.35Z"/><path d="M48.33,100.5a.33.33,0,0,1-.35-.35V98.89h0a5.09,5.09,0,0,1-4.48,2,5.68,5.68,0,0,1-5.85-4.06A14.12,14.12,0,0,1,37,92.07a14,14,0,0,1,.59-4.76,5.67,5.67,0,0,1,5.85-4.06,5.11,5.11,0,0,1,4.48,2h0V77.05a.33.33,0,0,1,.35-.35h3.22a.33.33,0,0,1,.35.35v23.1a.33.33,0,0,1-.35.35Zm-.7-5.28A9.8,9.8,0,0,0,48,92.07a9.8,9.8,0,0,0-.35-3.15,3,3,0,0,0-3.15-2.17,3,3,0,0,0-3.11,2.17A9.8,9.8,0,0,0,41,92.07a9.8,9.8,0,0,0,.35,3.15,3,3,0,0,0,3.11,2.17A3,3,0,0,0,47.63,95.22Z"/><path d="M66.36,100.5a.33.33,0,0,1-.35-.35V98.93h0c-.8,1.15-2.38,2-4.76,2-3.08,0-5.67-1.61-5.67-5.15s2.59-5.35,6.76-5.35h3.43a.19.19,0,0,0,.21-.21v-.81c0-1.92-.91-2.8-3.75-2.8a5.92,5.92,0,0,0-3.85,1.16.32.32,0,0,1-.49-.07l-1.29-2.31a.33.33,0,0,1,.07-.46,9.83,9.83,0,0,1,6-1.64c5.15,0,7,1.75,7,5.88v11a.33.33,0,0,1-.35.35Zm-.42-5.67V93.54a.19.19,0,0,0-.21-.21h-2.8c-2.52,0-3.64.7-3.64,2.27,0,1.4,1,2.1,2.9,2.1C64.61,97.7,65.94,96.76,65.94,94.83Z"/><path d="M94.92,100.5a.33.33,0,0,1-.35-.35V90.42c0-2.17-1.09-3.67-3.19-3.67s-3.22,1.5-3.22,3.67v9.73a.33.33,0,0,1-.35.35H84.59a.33.33,0,0,1-.35-.35V90.42c0-2.17-1.08-3.67-3.18-3.67s-3.22,1.5-3.22,3.67v9.73a.33.33,0,0,1-.35.35H74.27a.33.33,0,0,1-.35-.35V84a.33.33,0,0,1,.35-.35h3.22a.33.33,0,0,1,.35.35v1.23h0a5.23,5.23,0,0,1,4.45-2,5.43,5.43,0,0,1,4.62,2.24h0a6.91,6.91,0,0,1,5.39-2.24c3.93,0,6.13,2.66,6.13,6.26v10.64a.33.33,0,0,1-.35.35Z"/><path d="M103.07,80.45a.33.33,0,0,1-.35-.35v-3a.33.33,0,0,1,.35-.35h3.22a.33.33,0,0,1,.35.35v3a.33.33,0,0,1-.35.35Zm0,20a.33.33,0,0,1-.35-.35V84a.33.33,0,0,1,.35-.35h3.22a.33.33,0,0,1,.35.35v16.17a.33.33,0,0,1-.35.35Z"/><path d="M110.7,96.23a15.77,15.77,0,0,1,0-8.33c1-2.94,3.54-4.65,7-4.65s6,1.71,6.93,4.65a15.77,15.77,0,0,1,0,8.33c-.95,2.94-3.54,4.66-6.93,4.66S111.65,99.17,110.7,96.23Zm10.12-1a9.49,9.49,0,0,0,.35-3.11,9.67,9.67,0,0,0-.35-3.12,3.12,3.12,0,0,0-3.15-2.2,3.16,3.16,0,0,0-3.19,2.2,9.67,9.67,0,0,0-.35,3.12,9.49,9.49,0,0,0,.35,3.11,3.17,3.17,0,0,0,3.19,2.21A3.12,3.12,0,0,0,120.82,95.18Z"/><path d="M127.64,98.23a.34.34,0,0,1,0-.49l2-2.1a.34.34,0,0,1,.49,0,7.78,7.78,0,0,0,4.93,1.92c2.07,0,3.12-.84,3.12-2s-.6-1.65-2.8-1.86l-1.82-.17c-3.43-.35-5.18-2.1-5.18-5,0-3.26,2.34-5.32,6.54-5.32a10.24,10.24,0,0,1,6.34,2.06.35.35,0,0,1,.07.49l-1.72,2.07a.35.35,0,0,1-.49.07,8.1,8.1,0,0,0-4.41-1.4c-1.68,0-2.55.73-2.55,1.75s.59,1.57,2.76,1.78l1.82.18c3.54.35,5.22,2.17,5.22,4.93,0,3.36-2.45,5.71-7.07,5.71A10.49,10.49,0,0,1,127.64,98.23Z"/><path d="M152.6,96.23a12.32,12.32,0,0,1-.56-4.16,12.35,12.35,0,0,1,.56-4.17c.94-2.94,3.53-4.65,7-4.65s6,1.71,6.93,4.65a12.35,12.35,0,0,1,.56,4.17,12.32,12.32,0,0,1-.56,4.16c-.94,2.94-3.53,4.66-6.93,4.66S153.54,99.17,152.6,96.23Zm10.11-1a9.49,9.49,0,0,0,.35-3.11,9.67,9.67,0,0,0-.35-3.12,3.11,3.11,0,0,0-3.15-2.2,3.15,3.15,0,0,0-3.18,2.2,9.67,9.67,0,0,0-.35,3.12,9.49,9.49,0,0,0,.35,3.11,3.16,3.16,0,0,0,3.18,2.21A3.12,3.12,0,0,0,162.71,95.18Z"/><path d="M177.79,96.2a15.26,15.26,0,0,1,0-8.3c1-2.94,3.53-4.65,6.9-4.65s6,1.78,6.93,4.65a15.28,15.28,0,0,1,.56,5.08.34.34,0,0,1-.39.35H181.37c-.15,0-.21.07-.21.21a3.91,3.91,0,0,0,4,3.85,5.1,5.1,0,0,0,4-1.61.35.35,0,0,1,.52-.07l2.07,1.82a.32.32,0,0,1,0,.49,8.88,8.88,0,0,1-6.93,2.87C181.26,100.89,178.74,99.14,177.79,96.2ZM188,88.74a3.6,3.6,0,0,0-6.61,0,4.05,4.05,0,0,0-.21,1.44c0,.14.06.21.21.21H188a.19.19,0,0,0,.21-.21A4.29,4.29,0,0,0,188,88.74Z"/><path d="M194.63,98.23a.34.34,0,0,1,0-.49l2-2.1a.34.34,0,0,1,.49,0,7.78,7.78,0,0,0,4.93,1.92c2.07,0,3.12-.84,3.12-2s-.6-1.65-2.8-1.86l-1.83-.17c-3.42-.35-5.17-2.1-5.17-5,0-3.26,2.34-5.32,6.54-5.32a10.24,10.24,0,0,1,6.34,2.06.35.35,0,0,1,.07.49l-1.72,2.07a.35.35,0,0,1-.49.07,8.1,8.1,0,0,0-4.41-1.4c-1.68,0-2.55.73-2.55,1.75s.59,1.57,2.76,1.78l1.82.18c3.54.35,5.22,2.17,5.22,4.93,0,3.36-2.45,5.71-7.07,5.71A10.49,10.49,0,0,1,194.63,98.23Z"/><path d="M212,96.23a16.63,16.63,0,0,1,0-8.33c1-3,3.57-4.65,7-4.65a7.33,7.33,0,0,1,5.84,2.62.34.34,0,0,1,0,.49l-2.21,1.93a.32.32,0,0,1-.49-.07A3.8,3.8,0,0,0,219,86.75,3.1,3.1,0,0,0,215.8,89a10.27,10.27,0,0,0-.34,3.12,10.52,10.52,0,0,0,.34,3.15A3.12,3.12,0,0,0,219,97.39a3.82,3.82,0,0,0,3.11-1.47.31.31,0,0,1,.49,0l2.21,1.93c.17.14.14.31,0,.49a7.44,7.44,0,0,1-5.84,2.59C215.56,100.89,213,99.24,212,96.23Z"/><path d="M237.72,100.5a.33.33,0,0,1-.35-.35V98.93h0c-.8,1.15-2.38,2-4.76,2-3.08,0-5.67-1.61-5.67-5.15s2.59-5.35,6.76-5.35h3.43c.14,0,.2-.07.2-.21v-.81c0-1.92-.91-2.8-3.74-2.8a5.9,5.9,0,0,0-3.85,1.16.32.32,0,0,1-.49-.07l-1.3-2.31a.34.34,0,0,1,.07-.46,9.88,9.88,0,0,1,6-1.64c5.15,0,7,1.75,7,5.88v11a.33.33,0,0,1-.35.35Zm-.43-5.67V93.54c0-.14-.06-.21-.2-.21h-2.8c-2.52,0-3.65.7-3.65,2.27,0,1.4,1,2.1,2.91,2.1C236,97.7,237.29,96.76,237.29,94.83Z"/><path d="M249.82,100.71c-3.29,0-4.62-1.57-4.62-4.83V77.05a.33.33,0,0,1,.35-.35h3.22a.34.34,0,0,1,.36.35V95.67c0,1.16.45,1.54,1.46,1.54h.78a.33.33,0,0,1,.34.35v2.8a.33.33,0,0,1-.34.35Z"/><path d="M254.44,96.2a13.12,13.12,0,0,1-.59-4.13,13.5,13.5,0,0,1,.56-4.17c.94-2.94,3.53-4.65,6.89-4.65s6,1.78,6.93,4.65a15,15,0,0,1,.56,5.08.34.34,0,0,1-.38.35H258a.19.19,0,0,0-.21.21,3.95,3.95,0,0,0,4,3.85,5.11,5.11,0,0,0,4-1.61.35.35,0,0,1,.52-.07l2.07,1.82a.32.32,0,0,1,0,.49,8.91,8.91,0,0,1-6.93,2.87C257.91,100.89,255.39,99.14,254.44,96.2Zm10.19-7.46a3.61,3.61,0,0,0-6.62,0,4.29,4.29,0,0,0-.21,1.44.19.19,0,0,0,.21.21h6.62a.19.19,0,0,0,.21-.21A4.29,4.29,0,0,0,264.63,88.74Z"/><path d="M272.64,100.5a.33.33,0,0,1-.35-.35V84a.33.33,0,0,1,.35-.35h3.22a.33.33,0,0,1,.35.35v1.44h0a4.82,4.82,0,0,1,4.38-2.17,5.05,5.05,0,0,1,3.53,1.4c.17.17.21.31.07.49l-1.85,2.34a.32.32,0,0,1-.5.07,4.54,4.54,0,0,0-2.48-.8c-2.21,0-3.19,1.57-3.19,4.27v9.13a.33.33,0,0,1-.35.35Z"/><path d="M295.81,100.5a.33.33,0,0,1-.35-.35V98.93h0c-.8,1.15-2.38,2-4.76,2-3.08,0-5.67-1.61-5.67-5.15s2.59-5.35,6.75-5.35h3.43a.19.19,0,0,0,.21-.21v-.81c0-1.92-.91-2.8-3.74-2.8a5.9,5.9,0,0,0-3.85,1.16.32.32,0,0,1-.49-.07L286,85.35a.34.34,0,0,1,.07-.46,9.86,9.86,0,0,1,6-1.64c5.14,0,7,1.75,7,5.88v11a.34.34,0,0,1-.36.35Zm-.42-5.67V93.54a.19.19,0,0,0-.21-.21h-2.8c-2.52,0-3.64.7-3.64,2.27,0,1.4,1,2.1,2.91,2.1C294.06,97.7,295.39,96.76,295.39,94.83Z"/><path d="M302.36,98.23a.34.34,0,0,1,0-.49l2-2.1a.34.34,0,0,1,.49,0,7.83,7.83,0,0,0,4.94,1.92c2.06,0,3.11-.84,3.11-2s-.59-1.65-2.8-1.86l-1.82-.17c-3.43-.35-5.18-2.1-5.18-5,0-3.26,2.35-5.32,6.55-5.32A10.21,10.21,0,0,1,316,85.31a.34.34,0,0,1,.07.49l-1.71,2.07a.35.35,0,0,1-.49.07,8.1,8.1,0,0,0-4.41-1.4c-1.68,0-2.56.73-2.56,1.75s.6,1.57,2.77,1.78l1.82.18c3.53.35,5.21,2.17,5.21,4.93,0,3.36-2.45,5.71-7.07,5.71A10.48,10.48,0,0,1,302.36,98.23Z"/><path d="M319.86,96.58a.33.33,0,0,1,.35-.35h3.29a.33.33,0,0,1,.35.35v3.82a.86.86,0,0,1-.25.73l-2.9,3a.67.67,0,0,1-.49.25.33.33,0,0,1-.35-.35Z"/><path d="M339.46,100.71c-3.29,0-4.62-1.57-4.62-4.83V77.05a.33.33,0,0,1,.35-.35h3.22a.33.33,0,0,1,.35.35V95.67c0,1.16.45,1.54,1.47,1.54H341a.33.33,0,0,1,.35.35v2.8a.33.33,0,0,1-.35.35Z"/><path d="M344.74,100.5a.33.33,0,0,1-.35-.35V84a.33.33,0,0,1,.35-.35H348a.33.33,0,0,1,.35.35v16.17a.33.33,0,0,1-.35.35Zm.35-19.42c-.21,0-.31-.14-.21-.35l2.63-4.38a.66.66,0,0,1,.63-.35h3.18c.21,0,.32.17.18.35l-3.33,4.38a.82.82,0,0,1-.7.35Z"/><path d="M363.4,100.5a.33.33,0,0,1-.35-.35V90.42c0-2.17-1.09-3.67-3.19-3.67s-3.22,1.5-3.22,3.67v9.73a.33.33,0,0,1-.35.35h-3.22a.33.33,0,0,1-.35-.35V84a.33.33,0,0,1,.35-.35h3.22a.33.33,0,0,1,.35.35v1.23h0a5.2,5.2,0,0,1,4.44-2c3.61,0,5.85,2.66,5.85,6.26v10.64a.33.33,0,0,1-.35.35Z"/><path d="M370.89,96.2a13.09,13.09,0,0,1-.6-4.13,13.5,13.5,0,0,1,.56-4.17c.95-2.94,3.54-4.65,6.9-4.65s6,1.78,6.93,4.65a15.28,15.28,0,0,1,.56,5.08.34.34,0,0,1-.39.35H374.46a.19.19,0,0,0-.21.21,3.91,3.91,0,0,0,4,3.85,5.1,5.1,0,0,0,4-1.61.35.35,0,0,1,.52-.07l2.07,1.82a.32.32,0,0,1,0,.49,8.88,8.88,0,0,1-6.93,2.87C374.35,100.89,371.83,99.14,370.89,96.2Zm10.18-7.46a3.6,3.6,0,0,0-6.61,0,4.29,4.29,0,0,0-.21,1.44.19.19,0,0,0,.21.21h6.61a.19.19,0,0,0,.21-.21A4.29,4.29,0,0,0,381.07,88.74Z"/><path d="M398.78,100.5a.33.33,0,0,1-.35-.35V98.93h0c-.81,1.15-2.38,2-4.76,2-3.08,0-5.67-1.61-5.67-5.15s2.59-5.35,6.75-5.35h3.43a.19.19,0,0,0,.21-.21v-.81c0-1.92-.91-2.8-3.74-2.8a5.9,5.9,0,0,0-3.85,1.16.32.32,0,0,1-.49-.07L389,85.35a.34.34,0,0,1,.07-.46,9.86,9.86,0,0,1,6-1.64c5.14,0,7,1.75,7,5.88v11a.33.33,0,0,1-.35.35Zm-.42-5.67V93.54a.19.19,0,0,0-.21-.21h-2.8c-2.52,0-3.64.7-3.64,2.27,0,1.4,1,2.1,2.91,2.1C397,97.7,398.36,96.76,398.36,94.83Z"/><path d="M405.33,98.23a.34.34,0,0,1,0-.49l2-2.1a.34.34,0,0,1,.49,0,7.83,7.83,0,0,0,4.94,1.92c2.06,0,3.11-.84,3.11-2s-.59-1.65-2.8-1.86l-1.82-.17c-3.43-.35-5.18-2.1-5.18-5,0-3.26,2.35-5.32,6.55-5.32a10.21,10.21,0,0,1,6.33,2.06.34.34,0,0,1,.07.49l-1.71,2.07a.35.35,0,0,1-.49.07,8.1,8.1,0,0,0-4.41-1.4c-1.68,0-2.56.73-2.56,1.75s.6,1.57,2.77,1.78l1.82.18c3.53.35,5.21,2.17,5.21,4.93,0,3.36-2.45,5.71-7.07,5.71A10.48,10.48,0,0,1,405.33,98.23Z"/><path d="M441,100.5a.33.33,0,0,1-.35-.35V98.89h0a5.06,5.06,0,0,1-4.48,2,5.66,5.66,0,0,1-5.84-4.06,14.08,14.08,0,0,1-.6-4.76,14,14,0,0,1,.6-4.76,5.65,5.65,0,0,1,5.84-4.06,5.08,5.08,0,0,1,4.48,2h0V77.05a.33.33,0,0,1,.35-.35h3.22a.33.33,0,0,1,.35.35v23.1a.33.33,0,0,1-.35.35Zm-.7-5.28a10.1,10.1,0,0,0,.35-3.15,10.1,10.1,0,0,0-.35-3.15,3.35,3.35,0,0,0-6.27,0,10.1,10.1,0,0,0-.35,3.15,10.1,10.1,0,0,0,.35,3.15,3.35,3.35,0,0,0,6.27,0Z"/><path d="M448.69,96.2a13.09,13.09,0,0,1-.6-4.13,13.5,13.5,0,0,1,.56-4.17c1-2.94,3.54-4.65,6.9-4.65s6,1.78,6.93,4.65A15,15,0,0,1,463,93a.34.34,0,0,1-.38.35h-10.4a.19.19,0,0,0-.21.21,3.9,3.9,0,0,0,.24,1.29,3.7,3.7,0,0,0,3.79,2.56A5.07,5.07,0,0,0,460,95.78a.36.36,0,0,1,.53-.07l2.06,1.82a.31.31,0,0,1,0,.49,8.91,8.91,0,0,1-6.93,2.87C452.16,100.89,449.63,99.14,448.69,96.2Zm10.19-7.46a3.61,3.61,0,0,0-6.62,0,4.29,4.29,0,0,0-.21,1.44.19.19,0,0,0,.21.21h6.62a.19.19,0,0,0,.21-.21A4.29,4.29,0,0,0,458.88,88.74Z"/><path d="M478.65,100.5a.45.45,0,0,1-.45-.35l-6-16.17c-.07-.21.07-.35.28-.35H476a.45.45,0,0,1,.42.35l3.71,11h.07l3.64-11a.44.44,0,0,1,.42-.35h3.36c.21,0,.35.14.28.35l-5.95,16.17a.45.45,0,0,1-.46.35Z"/><path d="M490.76,80.45a.33.33,0,0,1-.35-.35v-3a.33.33,0,0,1,.35-.35H494a.33.33,0,0,1,.35.35v3a.33.33,0,0,1-.35.35Zm0,20a.33.33,0,0,1-.35-.35V84a.33.33,0,0,1,.35-.35H494a.33.33,0,0,1,.35.35v16.17a.33.33,0,0,1-.35.35Z"/><path d="M509.13,100.5a.33.33,0,0,1-.34-.35V98.89h0a5.07,5.07,0,0,1-4.48,2,5.68,5.68,0,0,1-5.85-4.06,14.12,14.12,0,0,1-.59-4.76,14,14,0,0,1,.59-4.76,5.67,5.67,0,0,1,5.85-4.06,5.09,5.09,0,0,1,4.48,2h0V77.05a.33.33,0,0,1,.34-.35h3.23a.33.33,0,0,1,.35.35v23.1a.33.33,0,0,1-.35.35Zm-.69-5.28a10.1,10.1,0,0,0,.35-3.15,10.1,10.1,0,0,0-.35-3.15,3.35,3.35,0,0,0-6.27,0,9.8,9.8,0,0,0-.35,3.15,9.8,9.8,0,0,0,.35,3.15,3.35,3.35,0,0,0,6.27,0Z"/><path d="M527.16,100.5a.33.33,0,0,1-.35-.35V98.93h0c-.81,1.15-2.39,2-4.77,2-3.08,0-5.67-1.61-5.67-5.15s2.59-5.35,6.76-5.35h3.43a.19.19,0,0,0,.21-.21v-.81c0-1.92-.91-2.8-3.75-2.8a5.92,5.92,0,0,0-3.85,1.16.32.32,0,0,1-.49-.07l-1.29-2.31a.33.33,0,0,1,.07-.46,9.83,9.83,0,0,1,6-1.64c5.15,0,7,1.75,7,5.88v11a.33.33,0,0,1-.35.35Zm-.42-5.67V93.54a.19.19,0,0,0-.21-.21h-2.8c-2.52,0-3.64.7-3.64,2.27,0,1.4,1,2.1,2.9,2.1C525.41,97.7,526.74,96.76,526.74,94.83Z"/><path d="M534.47,96.58a.33.33,0,0,1,.35-.35h3.29a.33.33,0,0,1,.35.35v3.82a.85.85,0,0,1-.24.73l-2.91,3a.64.64,0,0,1-.49.25.33.33,0,0,1-.35-.35Z"/><path d="M549.59,77.05a.33.33,0,0,1,.35-.35h14.91a.33.33,0,0,1,.35.35v3a.33.33,0,0,1-.35.35H553.93a.19.19,0,0,0-.21.21v5.81a.19.19,0,0,0,.21.21h9.21a.33.33,0,0,1,.35.35v3a.33.33,0,0,1-.35.35h-9.21a.19.19,0,0,0-.21.21v6a.19.19,0,0,0,.21.21h10.92a.33.33,0,0,1,.35.35v3a.33.33,0,0,1-.35.35H549.94a.33.33,0,0,1-.35-.35Z"/><path d="M573.32,100.71c-3.29,0-4.62-1.57-4.62-4.83V77.05a.33.33,0,0,1,.35-.35h3.22a.33.33,0,0,1,.35.35V95.67c0,1.16.46,1.54,1.47,1.54h.77a.33.33,0,0,1,.35.35v2.8a.33.33,0,0,1-.35.35Z"/><path d="M577.94,96.2a13.12,13.12,0,0,1-.59-4.13,13.5,13.5,0,0,1,.56-4.17c.94-2.94,3.53-4.65,6.89-4.65s6,1.78,6.93,4.65a15,15,0,0,1,.56,5.08.34.34,0,0,1-.38.35h-10.4a.19.19,0,0,0-.21.21,3.95,3.95,0,0,0,4,3.85,5.07,5.07,0,0,0,3.95-1.61.36.36,0,0,1,.53-.07l2.06,1.82a.31.31,0,0,1,0,.49,8.91,8.91,0,0,1-6.93,2.87C581.41,100.89,578.89,99.14,577.94,96.2Zm10.19-7.46a3.61,3.61,0,0,0-6.62,0,4.29,4.29,0,0,0-.21,1.44.19.19,0,0,0,.21.21h6.62a.19.19,0,0,0,.21-.21A4.29,4.29,0,0,0,588.13,88.74Z"/><path d="M616.79,100.5a.33.33,0,0,1-.35-.35V90.42c0-2.17-1.08-3.67-3.18-3.67S610,88.25,610,90.42v9.73a.33.33,0,0,1-.35.35h-3.22a.33.33,0,0,1-.35-.35V90.42c0-2.17-1.09-3.67-3.19-3.67s-3.22,1.5-3.22,3.67v9.73a.33.33,0,0,1-.35.35h-3.22a.33.33,0,0,1-.35-.35V84a.33.33,0,0,1,.35-.35h3.22a.33.33,0,0,1,.35.35v1.23h0a5.2,5.2,0,0,1,4.44-2,5.4,5.4,0,0,1,4.62,2.24h0a6.88,6.88,0,0,1,5.39-2.24c3.92,0,6.12,2.66,6.12,6.26v10.64a.33.33,0,0,1-.35.35Z"/><path d="M624.28,96.2a13.12,13.12,0,0,1-.59-4.13,13.5,13.5,0,0,1,.56-4.17c.94-2.94,3.53-4.65,6.89-4.65s6,1.78,6.93,4.65a15,15,0,0,1,.56,5.08.34.34,0,0,1-.38.35h-10.4a.19.19,0,0,0-.21.21,3.95,3.95,0,0,0,4,3.85,5.07,5.07,0,0,0,4-1.61.36.36,0,0,1,.53-.07l2.06,1.82a.31.31,0,0,1,0,.49,8.91,8.91,0,0,1-6.93,2.87C627.75,100.89,625.23,99.14,624.28,96.2Zm10.19-7.46a3.61,3.61,0,0,0-6.62,0,4.29,4.29,0,0,0-.21,1.44.19.19,0,0,0,.21.21h6.62a.19.19,0,0,0,.21-.21A4.29,4.29,0,0,0,634.47,88.74Z"/><path d="M652.81,100.5a.33.33,0,0,1-.35-.35V90.42c0-2.17-1.09-3.67-3.19-3.67s-3.22,1.5-3.22,3.67v9.73a.33.33,0,0,1-.35.35h-3.22a.33.33,0,0,1-.35-.35V84a.33.33,0,0,1,.35-.35h3.22a.33.33,0,0,1,.35.35v1.23h0a5.2,5.2,0,0,1,4.44-2c3.61,0,5.85,2.66,5.85,6.26v10.64a.33.33,0,0,1-.35.35Z"/><path d="M665.55,100.71c-3.4,0-4.69-1.64-4.69-4.93V86.89a.19.19,0,0,0-.21-.21h-1.12a.33.33,0,0,1-.35-.35V84a.33.33,0,0,1,.35-.35h1.12a.19.19,0,0,0,.21-.21V78.8a.33.33,0,0,1,.35-.35h3.22a.33.33,0,0,1,.35.35v4.62a.19.19,0,0,0,.21.21h2.24a.33.33,0,0,1,.35.35v2.35a.33.33,0,0,1-.35.35H665a.19.19,0,0,0-.21.21v8.75c0,1.19.49,1.57,1.57,1.57h.88a.33.33,0,0,1,.35.35v2.8a.33.33,0,0,1-.35.35Z"/><path d="M670.8,96.23a12.32,12.32,0,0,1-.56-4.16,12.35,12.35,0,0,1,.56-4.17c.94-2.94,3.53-4.65,7-4.65s6,1.71,6.93,4.65a12.35,12.35,0,0,1,.56,4.17,12.32,12.32,0,0,1-.56,4.16c-.94,2.94-3.53,4.66-6.93,4.66S671.74,99.17,670.8,96.23Zm10.11-1a9.49,9.49,0,0,0,.35-3.11,9.67,9.67,0,0,0-.35-3.12,3.11,3.11,0,0,0-3.15-2.2,3.15,3.15,0,0,0-3.18,2.2,9.67,9.67,0,0,0-.35,3.12,9.49,9.49,0,0,0,.35,3.11,3.16,3.16,0,0,0,3.18,2.21A3.12,3.12,0,0,0,680.91,95.18Z"/><path d="M687.74,98.23a.34.34,0,0,1,0-.49l2-2.1a.34.34,0,0,1,.49,0,7.83,7.83,0,0,0,4.94,1.92c2.06,0,3.11-.84,3.11-2s-.59-1.65-2.8-1.86l-1.82-.17c-3.43-.35-5.18-2.1-5.18-5,0-3.26,2.35-5.32,6.55-5.32a10.21,10.21,0,0,1,6.33,2.06.34.34,0,0,1,.07.49l-1.71,2.07a.35.35,0,0,1-.49.07,8.1,8.1,0,0,0-4.41-1.4c-1.68,0-2.56.73-2.56,1.75s.6,1.57,2.77,1.78l1.82.18c3.53.35,5.21,2.17,5.21,4.93,0,3.36-2.45,5.71-7.07,5.71A10.48,10.48,0,0,1,687.74,98.23Z"/><path d="M723.44,100.5a.33.33,0,0,1-.35-.35V98.89h0a5.06,5.06,0,0,1-4.48,2,5.68,5.68,0,0,1-5.85-4.06,14.12,14.12,0,0,1-.59-4.76,14,14,0,0,1,.59-4.76,5.67,5.67,0,0,1,5.85-4.06,5.08,5.08,0,0,1,4.48,2h0V77.05a.33.33,0,0,1,.35-.35h3.22a.33.33,0,0,1,.35.35v23.1a.33.33,0,0,1-.35.35Zm-.7-5.28a10.1,10.1,0,0,0,.35-3.15,10.1,10.1,0,0,0-.35-3.15,3.35,3.35,0,0,0-6.27,0,10.1,10.1,0,0,0-.35,3.15,10.1,10.1,0,0,0,.35,3.15,3.35,3.35,0,0,0,6.27,0Z"/><path d="M731.1,96.2a13.09,13.09,0,0,1-.6-4.13,13.5,13.5,0,0,1,.56-4.17c1-2.94,3.54-4.65,6.9-4.65s6,1.78,6.93,4.65a15,15,0,0,1,.56,5.08.34.34,0,0,1-.38.35h-10.4a.19.19,0,0,0-.21.21,3.45,3.45,0,0,0,.25,1.29,3.68,3.68,0,0,0,3.78,2.56,5.07,5.07,0,0,0,4-1.61.36.36,0,0,1,.53-.07L745,97.53a.31.31,0,0,1,0,.49,8.91,8.91,0,0,1-6.94,2.87C734.56,100.89,732,99.14,731.1,96.2Zm10.19-7.46a3.61,3.61,0,0,0-6.62,0,4.29,4.29,0,0,0-.21,1.44.19.19,0,0,0,.21.21h6.62a.19.19,0,0,0,.21-.21A4.29,4.29,0,0,0,741.29,88.74Z"/><path d="M135,144.8a.33.33,0,0,1-.36-.35V122a.33.33,0,0,1,.36-.35h3.22a.33.33,0,0,1,.35.35v1.26h0a5.11,5.11,0,0,1,4.48-2,5.67,5.67,0,0,1,5.85,4.06,14,14,0,0,1,.59,4.76,14.12,14.12,0,0,1-.59,4.76,5.68,5.68,0,0,1-5.85,4.06,5.09,5.09,0,0,1-4.48-2h0v7.56a.33.33,0,0,1-.35.35Zm10.18-11.58a14.35,14.35,0,0,0,0-6.3,3.34,3.34,0,0,0-6.26,0,14.35,14.35,0,0,0,0,6.3,3.34,3.34,0,0,0,6.26,0Z"/><path d="M153.4,138.5a.33.33,0,0,1-.35-.35V122a.33.33,0,0,1,.35-.35h3.22a.33.33,0,0,1,.35.35v1.44h0a4.84,4.84,0,0,1,4.38-2.17,5.09,5.09,0,0,1,3.54,1.4c.17.17.21.31.07.49l-1.86,2.34a.31.31,0,0,1-.49.07,4.54,4.54,0,0,0-2.48-.8c-2.21,0-3.19,1.57-3.19,4.27v9.13a.33.33,0,0,1-.35.35Z"/><path d="M166.46,134.23a15.5,15.5,0,0,1,0-8.33c.94-2.94,3.53-4.65,7-4.65s6,1.71,6.93,4.65a15.77,15.77,0,0,1,0,8.33c-.94,2.94-3.53,4.66-6.93,4.66S167.4,137.17,166.46,134.23Zm10.11-1a9.49,9.49,0,0,0,.35-3.11,9.67,9.67,0,0,0-.35-3.12,3.11,3.11,0,0,0-3.15-2.2,3.14,3.14,0,0,0-3.18,2.2,9.63,9.63,0,0,0-.36,3.12,9.45,9.45,0,0,0,.36,3.11,3.15,3.15,0,0,0,3.18,2.21A3.12,3.12,0,0,0,176.57,133.18Z"/><path d="M189.34,138.71c-3.39,0-4.69-1.64-4.69-4.93v-8.89a.19.19,0,0,0-.21-.21h-1.12a.33.33,0,0,1-.35-.35V122a.33.33,0,0,1,.35-.35h1.12a.19.19,0,0,0,.21-.21V116.8a.33.33,0,0,1,.35-.35h3.22a.33.33,0,0,1,.35.35v4.62c0,.14.07.21.22.21H191a.34.34,0,0,1,.35.35v2.35a.34.34,0,0,1-.35.35h-2.24c-.15,0-.22.07-.22.21v8.75c0,1.19.49,1.57,1.58,1.57H191a.34.34,0,0,1,.35.35v2.8a.34.34,0,0,1-.35.35Z"/><path d="M194.63,134.2a13.09,13.09,0,0,1-.6-4.13,13.5,13.5,0,0,1,.56-4.17c.95-2.94,3.54-4.65,6.9-4.65s6,1.78,6.93,4.65A15,15,0,0,1,209,131a.34.34,0,0,1-.38.35H198.2a.19.19,0,0,0-.21.21,3.91,3.91,0,0,0,4,3.85,5.07,5.07,0,0,0,3.95-1.61.36.36,0,0,1,.53-.07l2.06,1.82a.31.31,0,0,1,0,.49,8.91,8.91,0,0,1-6.93,2.87C198.09,138.89,195.57,137.14,194.63,134.2Zm10.19-7.46a3.61,3.61,0,0,0-6.62,0,4.29,4.29,0,0,0-.21,1.44.19.19,0,0,0,.21.21h6.62a.19.19,0,0,0,.21-.21A4.29,4.29,0,0,0,204.82,126.74Z"/><path d="M212.09,134.23a16.94,16.94,0,0,1,0-8.33c1-3,3.57-4.65,7-4.65a7.35,7.35,0,0,1,5.85,2.62.35.35,0,0,1,0,.49l-2.2,1.93a.32.32,0,0,1-.49-.07,3.83,3.83,0,0,0-3.12-1.47,3.09,3.09,0,0,0-3.15,2.2,9.93,9.93,0,0,0-.35,3.12,10.17,10.17,0,0,0,.35,3.15,3.11,3.11,0,0,0,3.15,2.17,3.86,3.86,0,0,0,3.12-1.47.31.31,0,0,1,.49,0l2.2,1.93c.17.14.14.31,0,.49a7.46,7.46,0,0,1-5.85,2.59C215.66,138.89,213.07,137.24,212.09,134.23Z"/><path d="M228,134.23a16.63,16.63,0,0,1,0-8.33c1-3,3.57-4.65,7-4.65a7.35,7.35,0,0,1,5.85,2.62.34.34,0,0,1,0,.49l-2.2,1.93a.32.32,0,0,1-.49-.07,3.82,3.82,0,0,0-3.12-1.47,3.09,3.09,0,0,0-3.15,2.2,9.93,9.93,0,0,0-.35,3.12,10.17,10.17,0,0,0,.35,3.15,3.11,3.11,0,0,0,3.15,2.17,3.84,3.84,0,0,0,3.12-1.47.31.31,0,0,1,.49,0l2.2,1.93c.18.14.14.31,0,.49a7.46,7.46,0,0,1-5.85,2.59C231.59,138.89,229,137.24,228,134.23Z"/><path d="M244.68,118.45a.33.33,0,0,1-.35-.35v-3a.33.33,0,0,1,.35-.35h3.22a.33.33,0,0,1,.35.35v3a.33.33,0,0,1-.35.35Zm0,20a.33.33,0,0,1-.35-.35V122a.33.33,0,0,1,.35-.35h3.22a.33.33,0,0,1,.35.35v16.17a.33.33,0,0,1-.35.35Z"/><path d="M252.31,134.23a15.77,15.77,0,0,1,0-8.33c.94-2.94,3.53-4.65,7-4.65s6,1.71,6.93,4.65a15.77,15.77,0,0,1,0,8.33c-.94,2.94-3.53,4.66-6.93,4.66S253.25,137.17,252.31,134.23Zm10.11-1a9.49,9.49,0,0,0,.35-3.11,9.67,9.67,0,0,0-.35-3.12,3.11,3.11,0,0,0-3.15-2.2,3.15,3.15,0,0,0-3.18,2.2,9.67,9.67,0,0,0-.35,3.12,9.49,9.49,0,0,0,.35,3.11,3.16,3.16,0,0,0,3.18,2.21A3.12,3.12,0,0,0,262.42,133.18Zm-4.76-14.1c-.21,0-.31-.14-.21-.35l2.63-4.38a.66.66,0,0,1,.63-.35h3.18c.21,0,.32.17.18.35l-3.33,4.38a.82.82,0,0,1-.7.35Z"/><path d="M280.94,138.5a.33.33,0,0,1-.35-.35v-9.73c0-2.17-1.09-3.67-3.19-3.67s-3.22,1.5-3.22,3.67v9.73a.33.33,0,0,1-.35.35h-3.22a.33.33,0,0,1-.35-.35V122a.33.33,0,0,1,.35-.35h3.22a.33.33,0,0,1,.35.35v1.23h0a5.2,5.2,0,0,1,4.44-2c3.61,0,5.85,2.66,5.85,6.26v10.64a.33.33,0,0,1-.35.35Z"/><path d="M295.92,134.23a16.63,16.63,0,0,1,0-8.33c1-3,3.57-4.65,7-4.65a7.35,7.35,0,0,1,5.85,2.62.34.34,0,0,1,0,.49l-2.2,1.93a.32.32,0,0,1-.49-.07,3.82,3.82,0,0,0-3.12-1.47,3.09,3.09,0,0,0-3.15,2.2,9.93,9.93,0,0,0-.35,3.12,10.17,10.17,0,0,0,.35,3.15,3.11,3.11,0,0,0,3.15,2.17,3.84,3.84,0,0,0,3.12-1.47.31.31,0,0,1,.49,0l2.2,1.93c.18.14.14.31,0,.49a7.46,7.46,0,0,1-5.85,2.59C299.49,138.89,296.9,137.24,295.92,134.23Z"/><path d="M311.88,134.23a15.77,15.77,0,0,1,0-8.33c.94-2.94,3.53-4.65,7-4.65s6,1.71,6.93,4.65a15.77,15.77,0,0,1,0,8.33c-.94,2.94-3.53,4.66-6.93,4.66S312.82,137.17,311.88,134.23Zm10.11-1a9.49,9.49,0,0,0,.35-3.11A9.67,9.67,0,0,0,322,127a3.11,3.11,0,0,0-3.15-2.2,3.15,3.15,0,0,0-3.18,2.2,9.67,9.67,0,0,0-.35,3.12,9.49,9.49,0,0,0,.35,3.11,3.16,3.16,0,0,0,3.18,2.21A3.12,3.12,0,0,0,322,133.18Z"/><path d="M340.51,138.5a.33.33,0,0,1-.35-.35v-9.73c0-2.17-1.09-3.67-3.19-3.67s-3.22,1.5-3.22,3.67v9.73a.33.33,0,0,1-.35.35h-3.22a.33.33,0,0,1-.35-.35V122a.33.33,0,0,1,.35-.35h3.22a.33.33,0,0,1,.35.35v1.23h0a5.2,5.2,0,0,1,4.44-2c3.61,0,5.85,2.66,5.85,6.26v10.64a.33.33,0,0,1-.35.35Z"/><path d="M353.25,138.71c-3.4,0-4.69-1.64-4.69-4.93v-8.89a.19.19,0,0,0-.21-.21h-1.12a.33.33,0,0,1-.35-.35V122a.33.33,0,0,1,.35-.35h1.12a.19.19,0,0,0,.21-.21V116.8a.33.33,0,0,1,.35-.35h3.22a.33.33,0,0,1,.35.35v4.62a.19.19,0,0,0,.21.21h2.24a.33.33,0,0,1,.35.35v2.35a.33.33,0,0,1-.35.35h-2.24a.19.19,0,0,0-.21.21v8.75c0,1.19.49,1.57,1.57,1.57h.88a.33.33,0,0,1,.35.35v2.8a.33.33,0,0,1-.35.35Z"/><path d="M359.2,138.5a.33.33,0,0,1-.35-.35V122a.33.33,0,0,1,.35-.35h3.22a.33.33,0,0,1,.35.35v1.44h0a4.83,4.83,0,0,1,4.38-2.17,5.05,5.05,0,0,1,3.53,1.4c.18.17.21.31.07.49l-1.85,2.34a.31.31,0,0,1-.49.07,4.57,4.57,0,0,0-2.49-.8c-2.2,0-3.18,1.57-3.18,4.27v9.13a.33.33,0,0,1-.35.35Z"/><path d="M382.37,138.5a.33.33,0,0,1-.35-.35v-1.22h0c-.8,1.15-2.38,2-4.76,2-3.08,0-5.67-1.61-5.67-5.15s2.59-5.35,6.76-5.35h3.43a.19.19,0,0,0,.21-.21v-.81c0-1.92-.91-2.8-3.75-2.8a5.92,5.92,0,0,0-3.85,1.16.32.32,0,0,1-.49-.07l-1.29-2.31a.34.34,0,0,1,.06-.46,9.88,9.88,0,0,1,6-1.64c5.15,0,7,1.75,7,5.88v11a.33.33,0,0,1-.35.35Zm-.42-5.67v-1.29a.19.19,0,0,0-.21-.21h-2.8c-2.52,0-3.64.7-3.64,2.27,0,1.4,1,2.1,2.9,2.1C380.62,135.7,382,134.76,382,132.83Z"/><path d="M397.1,134.23a16.63,16.63,0,0,1,0-8.33c1-3,3.57-4.65,7-4.65a7.33,7.33,0,0,1,5.84,2.62.34.34,0,0,1,0,.49l-2.21,1.93a.32.32,0,0,1-.49-.07,3.8,3.8,0,0,0-3.11-1.47,3.09,3.09,0,0,0-3.15,2.2,9.64,9.64,0,0,0-.35,3.12,9.88,9.88,0,0,0,.35,3.15,3.11,3.11,0,0,0,3.15,2.17,3.82,3.82,0,0,0,3.11-1.47.31.31,0,0,1,.49,0l2.21,1.93c.17.14.14.31,0,.49a7.44,7.44,0,0,1-5.84,2.59C400.67,138.89,398.08,137.24,397.1,134.23Z"/><path d="M422.83,138.5a.33.33,0,0,1-.35-.35v-1.22h0c-.8,1.15-2.38,2-4.76,2-3.08,0-5.67-1.61-5.67-5.15s2.59-5.35,6.76-5.35h3.43a.19.19,0,0,0,.21-.21v-.81c0-1.92-.91-2.8-3.75-2.8a5.92,5.92,0,0,0-3.85,1.16.32.32,0,0,1-.49-.07L413,123.35a.33.33,0,0,1,.07-.46,9.83,9.83,0,0,1,6-1.64c5.15,0,7,1.75,7,5.88v11a.33.33,0,0,1-.35.35Zm-.42-5.67v-1.29a.19.19,0,0,0-.21-.21h-2.8c-2.52,0-3.64.7-3.64,2.27,0,1.4,1,2.1,2.9,2.1C421.08,135.7,422.41,134.76,422.41,132.83Z"/><path d="M430.73,138.5a.34.34,0,0,1-.35-.35V122a.34.34,0,0,1,.35-.35H434a.32.32,0,0,1,.34.35v16.17a.32.32,0,0,1-.34.35Zm.35-19.42c-.2,0-.31-.14-.2-.35l2.62-4.38a.66.66,0,0,1,.63-.35h3.19c.21,0,.31.17.17.35l-3.32,4.38a.84.84,0,0,1-.71.35Z"/><path d="M449.11,138.5a.33.33,0,0,1-.35-.35v-1.26h0a5.09,5.09,0,0,1-4.48,2,5.67,5.67,0,0,1-5.85-4.06,19.18,19.18,0,0,1,0-9.52,5.66,5.66,0,0,1,5.85-4.06,5.11,5.11,0,0,1,4.48,2h0v-8.19a.33.33,0,0,1,.35-.35h3.22a.33.33,0,0,1,.35.35v23.1a.33.33,0,0,1-.35.35Zm-.7-5.28a14.35,14.35,0,0,0,0-6.3,3.35,3.35,0,0,0-6.27,0,14.35,14.35,0,0,0,0,6.3,3.35,3.35,0,0,0,6.27,0Z"/><path d="M467.14,138.5a.33.33,0,0,1-.35-.35v-1.22h0c-.8,1.15-2.38,2-4.76,2-3.08,0-5.67-1.61-5.67-5.15s2.59-5.35,6.76-5.35h3.43c.14,0,.2-.07.2-.21v-.81c0-1.92-.91-2.8-3.74-2.8a5.9,5.9,0,0,0-3.85,1.16.32.32,0,0,1-.49-.07l-1.3-2.31a.34.34,0,0,1,.07-.46,9.88,9.88,0,0,1,6-1.64c5.15,0,7,1.75,7,5.88v11a.33.33,0,0,1-.35.35Zm-.43-5.67v-1.29c0-.14-.06-.21-.2-.21h-2.8c-2.52,0-3.65.7-3.65,2.27,0,1.4,1,2.1,2.91,2.1C465.38,135.7,466.71,134.76,466.71,132.83Z"/><path d="M473.68,136.23a.34.34,0,0,1,0-.49l2-2.1a.34.34,0,0,1,.49,0,7.83,7.83,0,0,0,4.94,1.92c2.07,0,3.11-.84,3.11-2s-.59-1.65-2.8-1.86l-1.82-.17c-3.43-.35-5.18-2.1-5.18-5,0-3.26,2.35-5.32,6.55-5.32a10.21,10.21,0,0,1,6.33,2.06.35.35,0,0,1,.08.49l-1.72,2.07a.35.35,0,0,1-.49.07,8.1,8.1,0,0,0-4.41-1.4c-1.68,0-2.56.73-2.56,1.75s.6,1.57,2.77,1.78l1.82.18c3.53.35,5.22,2.17,5.22,4.93,0,3.36-2.46,5.71-7.08,5.71A10.48,10.48,0,0,1,473.68,136.23Z"/><path d="M509.34,138.5a.33.33,0,0,1-.35-.35v-1.22h0a5.19,5.19,0,0,1-4.38,2c-3.6,0-5.81-2.66-5.81-6.27V122a.33.33,0,0,1,.35-.35h3.22a.33.33,0,0,1,.35.35v9.73c0,2.17,1,3.68,3.15,3.68s3.15-1.51,3.15-3.64V122a.33.33,0,0,1,.35-.35h3.22a.33.33,0,0,1,.36.35v16.17a.33.33,0,0,1-.36.35Z"/><path d="M524.53,134.23a15.77,15.77,0,0,1,0-8.33c1-2.94,3.54-4.65,7-4.65s6,1.71,6.93,4.65a15.77,15.77,0,0,1,0,8.33c-.95,2.94-3.54,4.66-6.93,4.66S525.48,137.17,524.53,134.23Zm10.12-1a9.49,9.49,0,0,0,.35-3.11,9.67,9.67,0,0,0-.35-3.12,3.12,3.12,0,0,0-3.15-2.2,3.16,3.16,0,0,0-3.19,2.2,9.67,9.67,0,0,0-.35,3.12,9.49,9.49,0,0,0,.35,3.11,3.17,3.17,0,0,0,3.19,2.21A3.12,3.12,0,0,0,534.65,133.18Z"/><path d="M547.42,138.71c-3.39,0-4.69-1.64-4.69-4.93v-8.89a.19.19,0,0,0-.21-.21H541.4a.33.33,0,0,1-.35-.35V122a.33.33,0,0,1,.35-.35h1.12a.19.19,0,0,0,.21-.21V116.8a.33.33,0,0,1,.35-.35h3.22a.33.33,0,0,1,.35.35v4.62a.19.19,0,0,0,.21.21h2.24a.33.33,0,0,1,.35.35v2.35a.33.33,0,0,1-.35.35h-2.24a.19.19,0,0,0-.21.21v8.75c0,1.19.49,1.57,1.58,1.57h.87a.33.33,0,0,1,.35.35v2.8a.33.33,0,0,1-.35.35Z"/><path d="M553.37,138.5a.33.33,0,0,1-.35-.35V122a.33.33,0,0,1,.35-.35h3.22a.33.33,0,0,1,.35.35v1.44h0a4.81,4.81,0,0,1,4.37-2.17,5.09,5.09,0,0,1,3.54,1.4c.17.17.21.31.07.49l-1.86,2.34a.31.31,0,0,1-.49.07,4.54,4.54,0,0,0-2.48-.8c-2.21,0-3.19,1.57-3.19,4.27v9.13a.33.33,0,0,1-.35.35Z"/><path d="M566.43,134.23a15.77,15.77,0,0,1,0-8.33c.94-2.94,3.53-4.65,7-4.65s6,1.71,6.93,4.65a15.77,15.77,0,0,1,0,8.33c-.94,2.94-3.53,4.66-6.93,4.66S567.37,137.17,566.43,134.23Zm10.11-1a9.49,9.49,0,0,0,.35-3.11,9.67,9.67,0,0,0-.35-3.12,3.11,3.11,0,0,0-3.15-2.2,3.15,3.15,0,0,0-3.18,2.2,9.67,9.67,0,0,0-.35,3.12,9.49,9.49,0,0,0,.35,3.11,3.16,3.16,0,0,0,3.18,2.21A3.12,3.12,0,0,0,576.54,133.18Z"/><path d="M583.37,136.23a.34.34,0,0,1,0-.49l2-2.1a.34.34,0,0,1,.49,0,7.83,7.83,0,0,0,4.94,1.92c2.06,0,3.11-.84,3.11-2s-.59-1.65-2.8-1.86l-1.82-.17c-3.43-.35-5.18-2.1-5.18-5,0-3.26,2.35-5.32,6.55-5.32a10.21,10.21,0,0,1,6.33,2.06.34.34,0,0,1,.07.49l-1.71,2.07a.35.35,0,0,1-.49.07,8.1,8.1,0,0,0-4.41-1.4c-1.68,0-2.56.73-2.56,1.75s.6,1.57,2.77,1.78l1.82.18c3.53.35,5.21,2.17,5.21,4.93,0,3.36-2.45,5.71-7.07,5.71A10.48,10.48,0,0,1,583.37,136.23Z"/><path d="M608.43,134.58a.33.33,0,0,1,.35-.35h3.5a.33.33,0,0,1,.35.35v3.57a.33.33,0,0,1-.35.35h-3.5a.33.33,0,0,1-.35-.35Z"/></g></g></svg>