<svg xmlns="http://www.w3.org/2000/svg" viewBox="0 0 375.67 149.19"><title>p6</title><g id="Capa_2" data-name="Capa 2"><g id="fondo"><path d="M12.3,1.2a.38.38,0,0,1,.4-.4h3.56a.64.64,0,0,1,.68.4L24.42,18h.16L31.94,1.2a.64.64,0,0,1,.68-.4h3.52a.38.38,0,0,1,.4.4V27.6a.38.38,0,0,1-.4.4H32.66a.38.38,0,0,1-.4-.4V11H32.1l-5.76,12.8a.77.77,0,0,1-.76.52H23.26a.77.77,0,0,1-.76-.52L16.74,11h-.16V27.6a.38.38,0,0,1-.4.4H12.7a.38.38,0,0,1-.4-.4Z"/><path d="M53.14,28a.38.38,0,0,1-.4-.4V26.2h0c-.92,1.32-2.72,2.24-5.44,2.24-3.52,0-6.48-1.84-6.48-5.88,0-4.2,3-6.12,7.72-6.12h3.92a.21.21,0,0,0,.24-.24v-.92c0-2.2-1-3.2-4.28-3.2A6.76,6.76,0,0,0,44,13.4a.36.36,0,0,1-.56-.08l-1.48-2.64a.37.37,0,0,1,.08-.52,11.25,11.25,0,0,1,6.84-1.88c5.88,0,8,2,8,6.72V27.6a.38.38,0,0,1-.4.4Zm-.48-6.48V20a.21.21,0,0,0-.24-.24h-3.2c-2.88,0-4.16.8-4.16,2.6,0,1.6,1.16,2.4,3.32,2.4C51.14,24.8,52.66,23.72,52.66,21.52Z"/><path d="M74,28a.38.38,0,0,1-.4-.4V16.48c0-2.48-1.24-4.2-3.64-4.2s-3.68,1.72-3.68,4.2V27.6a.38.38,0,0,1-.4.4H62.18a.38.38,0,0,1-.4-.4V9.12a.38.38,0,0,1,.4-.4h3.68a.38.38,0,0,1,.4.4v1.4h0a6,6,0,0,1,5.08-2.24c4.12,0,6.68,3,6.68,7.16V27.6a.38.38,0,0,1-.4.4Z"/><path d="M83.3,5.08a.38.38,0,0,1-.4-.4V1.2a.38.38,0,0,1,.4-.4H87a.38.38,0,0,1,.4.4V4.68a.38.38,0,0,1-.4.4ZM83.3,28a.38.38,0,0,1-.4-.4V9.12a.38.38,0,0,1,.4-.4H87a.38.38,0,0,1,.4.4V27.6a.38.38,0,0,1-.4.4Z"/><path d="M92.82,35.19a.38.38,0,0,1-.4-.4V9.12a.38.38,0,0,1,.4-.4H96.5a.38.38,0,0,1,.4.4v1.44h0c.92-1.32,2.52-2.28,5.12-2.28,3.28,0,5.68,1.56,6.68,4.64a16.07,16.07,0,0,1,.68,5.44,16.07,16.07,0,0,1-.68,5.44c-1,3.08-3.4,4.64-6.68,4.64-2.6,0-4.2-1-5.12-2.28h0v8.63a.38.38,0,0,1-.4.4ZM104.46,22a11.37,11.37,0,0,0,.4-3.6,11.37,11.37,0,0,0-.4-3.6,3.82,3.82,0,0,0-7.16,0,11.37,11.37,0,0,0-.4,3.6,11.37,11.37,0,0,0,.4,3.6,3.82,3.82,0,0,0,7.16,0Z"/><path d="M125.26,28a.38.38,0,0,1-.4-.4V26.2h0a5.91,5.91,0,0,1-5,2.24c-4.12,0-6.64-3-6.64-7.16V9.12a.38.38,0,0,1,.4-.4h3.68a.38.38,0,0,1,.4.4V20.24c0,2.48,1.16,4.2,3.6,4.2,2.28,0,3.6-1.72,3.6-4.16V9.12a.38.38,0,0,1,.4-.4h3.68a.38.38,0,0,1,.4.4V27.6a.38.38,0,0,1-.4.4Z"/><path d="M139.58,28.23c-3.76,0-5.28-1.79-5.28-5.51V1.2a.38.38,0,0,1,.4-.4h3.68a.38.38,0,0,1,.4.4V22.48c0,1.32.52,1.76,1.68,1.76h.88a.38.38,0,0,1,.4.4v3.19a.37.37,0,0,1-.4.4Z"/><path d="M156.7,28a.38.38,0,0,1-.4-.4V26.2h0c-.92,1.32-2.72,2.24-5.44,2.24-3.52,0-6.48-1.84-6.48-5.88,0-4.2,3-6.12,7.72-6.12H156a.21.21,0,0,0,.24-.24v-.92c0-2.2-1-3.2-4.28-3.2a6.76,6.76,0,0,0-4.4,1.32.36.36,0,0,1-.56-.08l-1.48-2.64a.37.37,0,0,1,.08-.52,11.25,11.25,0,0,1,6.84-1.88c5.88,0,8,2,8,6.72V27.6a.38.38,0,0,1-.4.4Zm-.48-6.48V20a.21.21,0,0,0-.24-.24h-3.2c-2.88,0-4.16.8-4.16,2.6,0,1.6,1.16,2.4,3.32,2.4C154.7,24.8,156.22,23.72,156.22,21.52Z"/><path d="M164.9,23.12a15.15,15.15,0,0,1-.6-4.76,15.15,15.15,0,0,1,.6-4.76c1.12-3.44,4.08-5.32,8-5.32a8.4,8.4,0,0,1,6.68,3,.39.39,0,0,1,0,.56L177,14a.36.36,0,0,1-.56-.08,4.37,4.37,0,0,0-3.56-1.68,3.54,3.54,0,0,0-3.6,2.52,11.33,11.33,0,0,0-.4,3.56,11.6,11.6,0,0,0,.4,3.6,3.55,3.55,0,0,0,3.6,2.48,4.37,4.37,0,0,0,3.56-1.68.36.36,0,0,1,.56,0l2.52,2.2c.2.16.16.36,0,.56a8.49,8.49,0,0,1-6.68,3C169,28.44,166,26.56,164.9,23.12Z"/><path d="M183.94,5.08a.38.38,0,0,1-.4-.4V1.2a.38.38,0,0,1,.4-.4h3.68a.38.38,0,0,1,.4.4V4.68a.38.38,0,0,1-.4.4Zm0,22.92a.38.38,0,0,1-.4-.4V9.12a.38.38,0,0,1,.4-.4h3.68a.38.38,0,0,1,.4.4V27.6a.38.38,0,0,1-.4.4Z"/><path d="M192.66,23.12a14.24,14.24,0,0,1-.64-4.76,14.24,14.24,0,0,1,.64-4.76c1.08-3.36,4-5.32,8-5.32s6.83,2,7.91,5.32a14.24,14.24,0,0,1,.64,4.76,14.24,14.24,0,0,1-.64,4.76c-1.08,3.36-4,5.32-7.91,5.32S193.74,26.48,192.66,23.12Zm11.56-1.2a10.89,10.89,0,0,0,.4-3.56,11,11,0,0,0-.4-3.56,3.56,3.56,0,0,0-3.6-2.52A3.61,3.61,0,0,0,197,14.8a11,11,0,0,0-.4,3.56,10.89,10.89,0,0,0,.4,3.56,3.61,3.61,0,0,0,3.64,2.52A3.56,3.56,0,0,0,204.22,21.92ZM198.78,5.8c-.24,0-.36-.16-.24-.4l3-5a.76.76,0,0,1,.72-.4h3.64a.24.24,0,0,1,.2.4l-3.8,5a.93.93,0,0,1-.8.4Z"/><path d="M225.38,28a.38.38,0,0,1-.4-.4V16.48c0-2.48-1.24-4.2-3.64-4.2s-3.68,1.72-3.68,4.2V27.6a.38.38,0,0,1-.4.4h-3.68a.38.38,0,0,1-.4-.4V9.12a.38.38,0,0,1,.4-.4h3.68a.38.38,0,0,1,.4.4v1.4h0a6,6,0,0,1,5.08-2.24c4.12,0,6.67,3,6.67,7.16V27.6a.38.38,0,0,1-.4.4Z"/><path d="M266.93,28a.38.38,0,0,1-.4-.4V16.48c0-2.48-1.24-4.2-3.64-4.2s-3.68,1.72-3.68,4.2V27.6a.38.38,0,0,1-.4.4h-3.68a.38.38,0,0,1-.4-.4V16.48c0-2.48-1.24-4.2-3.63-4.2s-3.68,1.72-3.68,4.2V27.6a.38.38,0,0,1-.4.4h-3.68a.38.38,0,0,1-.4-.4V9.12a.38.38,0,0,1,.4-.4H247a.38.38,0,0,1,.4.4v1.4h0a6,6,0,0,1,5.08-2.24,6.2,6.2,0,0,1,5.27,2.56h0A7.88,7.88,0,0,1,264,8.28c4.48,0,7,3,7,7.16V27.6a.38.38,0,0,1-.4.4Z"/><path d="M287.33,28a.38.38,0,0,1-.4-.4V26.2h0c-.92,1.32-2.72,2.24-5.43,2.24-3.52,0-6.48-1.84-6.48-5.88,0-4.2,3-6.12,7.71-6.12h3.92a.21.21,0,0,0,.24-.24v-.92c0-2.2-1-3.2-4.28-3.2a6.75,6.75,0,0,0-4.39,1.32.36.36,0,0,1-.56-.08l-1.48-2.64a.37.37,0,0,1,.08-.52,11.24,11.24,0,0,1,6.83-1.88c5.88,0,8,2,8,6.72V27.6a.38.38,0,0,1-.4.4Zm-.48-6.48V20a.21.21,0,0,0-.24-.24h-3.2c-2.87,0-4.15.8-4.15,2.6,0,1.6,1.16,2.4,3.31,2.4C285.33,24.8,286.85,23.72,286.85,21.52Z"/><path d="M308.17,28a.38.38,0,0,1-.4-.4V16.48c0-2.48-1.24-4.2-3.64-4.2s-3.67,1.72-3.67,4.2V27.6a.38.38,0,0,1-.4.4h-3.68a.38.38,0,0,1-.4-.4V9.12a.38.38,0,0,1,.4-.4h3.68a.38.38,0,0,1,.4.4v1.4h0a6,6,0,0,1,5.07-2.24c4.12,0,6.68,3,6.68,7.16V27.6a.38.38,0,0,1-.4.4Z"/><path d="M328.93,28a.38.38,0,0,1-.4-.4V26.2h0a5.91,5.91,0,0,1-5,2.24c-4.11,0-6.63-3-6.63-7.16V9.12a.38.38,0,0,1,.4-.4h3.68a.37.37,0,0,1,.39.4V20.24c0,2.48,1.17,4.2,3.6,4.2,2.28,0,3.6-1.72,3.6-4.16V9.12a.38.38,0,0,1,.4-.4h3.68a.38.38,0,0,1,.4.4V27.6a.38.38,0,0,1-.4.4Z"/><path d="M349.53,28a.38.38,0,0,1-.4-.4V26.2h0c-.92,1.32-2.72,2.24-5.44,2.24-3.52,0-6.47-1.84-6.47-5.88,0-4.2,2.95-6.12,7.71-6.12h3.92a.21.21,0,0,0,.24-.24v-.92c0-2.2-1-3.2-4.28-3.2a6.71,6.71,0,0,0-4.39,1.32.37.37,0,0,1-.57-.08l-1.48-2.64a.38.38,0,0,1,.09-.52,11.22,11.22,0,0,1,6.83-1.88c5.88,0,8,2,8,6.72V27.6a.38.38,0,0,1-.4.4Zm-.48-6.48V20a.21.21,0,0,0-.24-.24h-3.2c-2.88,0-4.16.8-4.16,2.6,0,1.6,1.16,2.4,3.32,2.4C347.53,24.8,349.05,23.72,349.05,21.52Z"/><path d="M363.37,28.23c-3.75,0-5.27-1.79-5.27-5.51V1.2a.38.38,0,0,1,.4-.4h3.67a.38.38,0,0,1,.4.4V22.48c0,1.32.52,1.76,1.68,1.76h.88a.38.38,0,0,1,.4.4v3.19a.37.37,0,0,1-.4.4Z"/><path d="M31.62,66a.38.38,0,0,1-.4-.4V64.16h0c-.92,1.32-2.52,2.28-5.12,2.28-3.28,0-5.68-1.56-6.68-4.64a16.07,16.07,0,0,1-.68-5.44,16.07,16.07,0,0,1,.68-5.44c1-3.08,3.4-4.64,6.68-4.64,2.6,0,4.2,1,5.12,2.28h0V39.2a.38.38,0,0,1,.4-.4H35.3a.38.38,0,0,1,.4.4V65.6a.38.38,0,0,1-.4.4Zm-.8-6a11.37,11.37,0,0,0,.4-3.6,11.37,11.37,0,0,0-.4-3.6,3.47,3.47,0,0,0-3.6-2.48,3.45,3.45,0,0,0-3.56,2.48,11.37,11.37,0,0,0-.4,3.6,11.37,11.37,0,0,0,.4,3.6,3.45,3.45,0,0,0,3.56,2.48A3.47,3.47,0,0,0,30.82,60Z"/><path d="M40.38,61.08a15,15,0,0,1-.68-4.72,15.36,15.36,0,0,1,.64-4.76c1.08-3.36,4-5.32,7.88-5.32s6.84,2,7.92,5.32a17.27,17.27,0,0,1,.64,5.8.39.39,0,0,1-.44.4H44.46a.21.21,0,0,0-.24.24,4.48,4.48,0,0,0,4.6,4.4,5.81,5.81,0,0,0,4.52-1.84.41.41,0,0,1,.6-.08L56.3,62.6a.36.36,0,0,1,0,.56,10.16,10.16,0,0,1-7.92,3.28C44.34,66.44,41.46,64.44,40.38,61.08ZM52,52.56a3.74,3.74,0,0,0-3.76-2.48,3.76,3.76,0,0,0-3.8,2.48,4.89,4.89,0,0,0-.24,1.64.21.21,0,0,0,.24.24H52a.21.21,0,0,0,.24-.24A4.89,4.89,0,0,0,52,52.56Z"/><path d="M69,61.12a15.15,15.15,0,0,1-.6-4.76A15.15,15.15,0,0,1,69,51.6c1.12-3.44,4.08-5.32,8-5.32a8.4,8.4,0,0,1,6.68,3,.39.39,0,0,1,0,.56L81.06,52A.36.36,0,0,1,80.5,52a4.37,4.37,0,0,0-3.56-1.68,3.54,3.54,0,0,0-3.6,2.52,11.33,11.33,0,0,0-.4,3.56,11.6,11.6,0,0,0,.4,3.6,3.55,3.55,0,0,0,3.6,2.48,4.37,4.37,0,0,0,3.56-1.68.36.36,0,0,1,.56,0l2.52,2.2c.2.16.16.36,0,.56a8.49,8.49,0,0,1-6.68,3C73.06,66.44,70.1,64.56,69,61.12Z"/><path d="M98.38,66a.38.38,0,0,1-.4-.4V64.2h0c-.92,1.32-2.72,2.24-5.44,2.24C89,66.44,86,64.6,86,60.56c0-4.2,3-6.12,7.72-6.12h3.92a.21.21,0,0,0,.24-.24v-.92c0-2.2-1-3.2-4.28-3.2a6.76,6.76,0,0,0-4.4,1.32.36.36,0,0,1-.56-.08l-1.48-2.64a.37.37,0,0,1,.08-.52,11.25,11.25,0,0,1,6.84-1.88c5.88,0,8,2,8,6.72V65.6a.38.38,0,0,1-.4.4Zm-.48-6.48V58a.21.21,0,0,0-.24-.24h-3.2c-2.88,0-4.16.8-4.16,2.6,0,1.6,1.16,2.4,3.32,2.4C96.38,62.8,97.9,61.72,97.9,59.52Z"/><path d="M107.42,66a.38.38,0,0,1-.4-.4V47.12a.38.38,0,0,1,.4-.4h3.68a.38.38,0,0,1,.4.4v1.64h0a5.52,5.52,0,0,1,5-2.48,5.82,5.82,0,0,1,4,1.6c.2.2.24.36.08.56l-2.12,2.68a.36.36,0,0,1-.56.08,5.21,5.21,0,0,0-2.84-.92c-2.52,0-3.64,1.8-3.64,4.88V65.6a.38.38,0,0,1-.4.4Z"/><path d="M122.38,70.75a.36.36,0,0,1,0-.56l2.36-2.36a.38.38,0,0,1,.6,0,5.92,5.92,0,0,0,4.2,1.8c3,0,4.32-1.6,4.32-4.59v-1.8h0c-.88,1.36-2.52,2.24-5,2.24a6.44,6.44,0,0,1-6.56-4.68,14.69,14.69,0,0,1-.64-4.92A14.44,14.44,0,0,1,122.3,51a6.43,6.43,0,0,1,6.56-4.72c2.48,0,4.12.88,5,2.28h0V47.12a.38.38,0,0,1,.4-.4H138a.38.38,0,0,1,.4.4V64.8c0,5.51-3.08,8.83-9,8.83A9.54,9.54,0,0,1,122.38,70.75ZM133.46,59a9,9,0,0,0,.44-3.16,9.28,9.28,0,0,0-.44-3.16,3.62,3.62,0,0,0-6.84,0,9.28,9.28,0,0,0-.44,3.16,9,9,0,0,0,.44,3.16,3.6,3.6,0,0,0,6.84,0Z"/><path d="M154.9,66a.38.38,0,0,1-.4-.4V64.2h0c-.92,1.32-2.72,2.24-5.44,2.24-3.52,0-6.48-1.84-6.48-5.88,0-4.2,3-6.12,7.72-6.12h3.92a.21.21,0,0,0,.24-.24v-.92c0-2.2-1-3.2-4.28-3.2a6.76,6.76,0,0,0-4.4,1.32.36.36,0,0,1-.56-.08l-1.48-2.64a.37.37,0,0,1,.08-.52,11.25,11.25,0,0,1,6.84-1.88c5.88,0,8,2,8,6.72V65.6a.38.38,0,0,1-.4.4Zm-.48-6.48V58a.21.21,0,0,0-.24-.24H151c-2.88,0-4.16.8-4.16,2.6,0,1.6,1.16,2.4,3.32,2.4C152.9,62.8,154.42,61.72,154.42,59.52Z"/><path d="M162.38,63.4a.39.39,0,0,1,0-.56l2.28-2.4a.39.39,0,0,1,.56,0,8.92,8.92,0,0,0,5.64,2.2c2.36,0,3.56-1,3.56-2.28,0-1.16-.68-1.88-3.2-2.12l-2.08-.2c-3.92-.4-5.92-2.4-5.92-5.68,0-3.72,2.68-6.08,7.48-6.08a11.69,11.69,0,0,1,7.24,2.36.4.4,0,0,1,.08.56l-2,2.36a.39.39,0,0,1-.56.08,9.31,9.31,0,0,0-5-1.6c-1.92,0-2.92.84-2.92,2s.68,1.8,3.16,2l2.08.2c4,.4,6,2.48,6,5.64,0,3.84-2.8,6.52-8.08,6.52A12,12,0,0,1,162.38,63.4Z"/><path d="M203.17,66a.38.38,0,0,1-.4-.4V64.16h0c-.92,1.32-2.52,2.28-5.11,2.28-3.28,0-5.68-1.56-6.68-4.64a16.07,16.07,0,0,1-.68-5.44,16.07,16.07,0,0,1,.68-5.44c1-3.08,3.4-4.64,6.68-4.64,2.59,0,4.19,1,5.11,2.28h0V39.2a.38.38,0,0,1,.4-.4h3.68a.38.38,0,0,1,.4.4V65.6a.38.38,0,0,1-.4.4Zm-.8-6a11.37,11.37,0,0,0,.4-3.6,11.37,11.37,0,0,0-.4-3.6,3.82,3.82,0,0,0-7.15,0,11.37,11.37,0,0,0-.4,3.6,11.37,11.37,0,0,0,.4,3.6,3.82,3.82,0,0,0,7.15,0Z"/><path d="M224.13,66a.38.38,0,0,1-.4-.4V64.2h0a5.91,5.91,0,0,1-5,2.24c-4.12,0-6.64-3-6.64-7.16V47.12a.38.38,0,0,1,.4-.4h3.68a.38.38,0,0,1,.4.4V58.24c0,2.48,1.16,4.2,3.6,4.2,2.27,0,3.59-1.72,3.59-4.16V47.12a.38.38,0,0,1,.4-.4h3.68a.38.38,0,0,1,.4.4V65.6a.38.38,0,0,1-.4.4Z"/><path d="M233.66,66a.38.38,0,0,1-.4-.4V47.12a.38.38,0,0,1,.4-.4h3.68a.38.38,0,0,1,.4.4v1.64h0a5.49,5.49,0,0,1,5-2.48,5.82,5.82,0,0,1,4,1.6c.2.2.24.36.08.56l-2.12,2.68a.36.36,0,0,1-.56.08,5.21,5.21,0,0,0-2.84-.92c-2.52,0-3.63,1.8-3.63,4.88V65.6a.38.38,0,0,1-.4.4Z"/><path d="M260.13,66a.38.38,0,0,1-.4-.4V64.2h0c-.92,1.32-2.72,2.24-5.44,2.24-3.51,0-6.47-1.84-6.47-5.88,0-4.2,3-6.12,7.71-6.12h3.92a.21.21,0,0,0,.24-.24v-.92c0-2.2-1-3.2-4.28-3.2A6.73,6.73,0,0,0,251,51.4a.36.36,0,0,1-.56-.08l-1.48-2.64a.37.37,0,0,1,.08-.52,11.24,11.24,0,0,1,6.83-1.88c5.88,0,8,2,8,6.72V65.6a.38.38,0,0,1-.4.4Zm-.48-6.48V58a.21.21,0,0,0-.24-.24h-3.2c-2.88,0-4.15.8-4.15,2.6,0,1.6,1.15,2.4,3.31,2.4C258.13,62.8,259.65,61.72,259.65,59.52Z"/><path d="M281,66a.38.38,0,0,1-.4-.4V54.48c0-2.48-1.24-4.2-3.64-4.2s-3.68,1.72-3.68,4.2V65.6a.38.38,0,0,1-.4.4h-3.67a.38.38,0,0,1-.4-.4V47.12a.38.38,0,0,1,.4-.4h3.67a.38.38,0,0,1,.4.4v1.4h0a6,6,0,0,1,5.08-2.24c4.12,0,6.68,3,6.68,7.16V65.6a.38.38,0,0,1-.4.4Z"/><path d="M295.53,66.23c-3.88,0-5.36-1.87-5.36-5.63V50.44c0-.16-.07-.24-.23-.24h-1.28a.38.38,0,0,1-.4-.4V47.12a.38.38,0,0,1,.4-.4h1.28c.16,0,.23-.08.23-.24V41.2a.38.38,0,0,1,.41-.4h3.67a.38.38,0,0,1,.4.4v5.28a.21.21,0,0,0,.24.24h2.56a.38.38,0,0,1,.4.4V49.8a.38.38,0,0,1-.4.4h-2.56a.21.21,0,0,0-.24.24v10c0,1.36.56,1.8,1.8,1.8h1a.38.38,0,0,1,.4.4v3.19a.37.37,0,0,1-.4.4Z"/><path d="M301.58,61.08a15,15,0,0,1-.68-4.72,15.36,15.36,0,0,1,.64-4.76c1.08-3.36,4-5.32,7.87-5.32s6.84,2,7.92,5.32a17.27,17.27,0,0,1,.64,5.8.39.39,0,0,1-.44.4H305.65a.21.21,0,0,0-.24.24,4.48,4.48,0,0,0,4.6,4.4,5.81,5.81,0,0,0,4.52-1.84.41.41,0,0,1,.6-.08l2.36,2.08a.36.36,0,0,1,0,.56,10.16,10.16,0,0,1-7.92,3.28C305.53,66.44,302.65,64.44,301.58,61.08Zm11.63-8.52a4.12,4.12,0,0,0-7.56,0,4.89,4.89,0,0,0-.24,1.64.21.21,0,0,0,.24.24h7.56a.21.21,0,0,0,.24-.24A4.89,4.89,0,0,0,313.21,52.56Z"/><path d="M330.25,61.08a15,15,0,0,1-.68-4.72,15.36,15.36,0,0,1,.64-4.76c1.08-3.36,4-5.32,7.88-5.32s6.84,2,7.92,5.32a17.27,17.27,0,0,1,.64,5.8.39.39,0,0,1-.44.4H334.33a.21.21,0,0,0-.24.24,4.48,4.48,0,0,0,4.6,4.4,5.81,5.81,0,0,0,4.52-1.84.41.41,0,0,1,.6-.08l2.36,2.08a.36.36,0,0,1,0,.56,10.16,10.16,0,0,1-7.92,3.28C334.21,66.44,331.33,64.44,330.25,61.08Zm11.64-8.52a4.12,4.12,0,0,0-7.56,0,4.89,4.89,0,0,0-.24,1.64.21.21,0,0,0,.24.24h7.56a.21.21,0,0,0,.24-.24A4.89,4.89,0,0,0,341.89,52.56Z"/><path d="M355.85,66.23c-3.76,0-5.28-1.79-5.28-5.51V39.2a.38.38,0,0,1,.4-.4h3.68a.38.38,0,0,1,.4.4V60.48c0,1.32.52,1.76,1.68,1.76h.88a.38.38,0,0,1,.4.4v3.19a.37.37,0,0,1-.4.4Z"/><path d="M7.28,104.23c-3.88,0-5.36-1.87-5.36-5.63V88.44a.21.21,0,0,0-.24-.24H.4a.38.38,0,0,1-.4-.4V85.12a.38.38,0,0,1,.4-.4H1.68a.21.21,0,0,0,.24-.24V79.2a.38.38,0,0,1,.4-.4H6a.38.38,0,0,1,.4.4v5.28a.21.21,0,0,0,.24.24H9.2a.38.38,0,0,1,.4.4V87.8a.38.38,0,0,1-.4.4H6.64a.21.21,0,0,0-.24.24v10c0,1.36.56,1.8,1.8,1.8h1a.38.38,0,0,1,.4.4v3.19a.37.37,0,0,1-.4.4Z"/><path d="M14.08,104a.38.38,0,0,1-.4-.4V85.12a.38.38,0,0,1,.4-.4h3.68a.38.38,0,0,1,.4.4v1.64h0a5.52,5.52,0,0,1,5-2.48,5.82,5.82,0,0,1,4,1.6c.2.2.24.36.08.56L25.2,89.12a.36.36,0,0,1-.56.08,5.21,5.21,0,0,0-2.84-.92c-2.52,0-3.64,1.8-3.64,4.88V103.6a.38.38,0,0,1-.4.4Z"/><path d="M40.56,104a.38.38,0,0,1-.4-.4v-1.4h0c-.92,1.32-2.72,2.24-5.44,2.24-3.52,0-6.48-1.84-6.48-5.88,0-4.2,3-6.12,7.72-6.12h3.92a.21.21,0,0,0,.24-.24v-.92c0-2.2-1-3.2-4.28-3.2a6.76,6.76,0,0,0-4.4,1.32.36.36,0,0,1-.56-.08l-1.48-2.64a.37.37,0,0,1,.08-.52,11.25,11.25,0,0,1,6.84-1.88c5.88,0,8,2,8,6.72v12.6a.38.38,0,0,1-.4.4Zm-.48-6.48V96a.21.21,0,0,0-.24-.24h-3.2c-2.88,0-4.16.8-4.16,2.6,0,1.6,1.16,2.4,3.32,2.4C38.56,100.8,40.08,99.72,40.08,97.52Z"/><path d="M48,101.4a.39.39,0,0,1,0-.56l2.28-2.4a.39.39,0,0,1,.56,0,8.92,8.92,0,0,0,5.64,2.2c2.36,0,3.56-1,3.56-2.28,0-1.16-.68-1.88-3.2-2.12L54.8,96c-3.92-.4-5.92-2.4-5.92-5.68,0-3.72,2.68-6.08,7.48-6.08a11.69,11.69,0,0,1,7.24,2.36.4.4,0,0,1,.08.56l-2,2.36a.39.39,0,0,1-.56.08,9.31,9.31,0,0,0-5-1.6c-1.92,0-2.92.84-2.92,2s.68,1.8,3.16,2l2.08.2c4,.4,6,2.48,6,5.64,0,3.84-2.8,6.52-8.08,6.52A12,12,0,0,1,48,101.4Z"/><path d="M73.52,104.23c-3.76,0-5.28-1.79-5.28-5.51V77.2a.38.38,0,0,1,.4-.4h3.68a.38.38,0,0,1,.4.4V98.48c0,1.32.52,1.76,1.68,1.76h.88a.38.38,0,0,1,.4.4v3.19a.37.37,0,0,1-.4.4Z"/><path d="M90.64,104a.38.38,0,0,1-.4-.4v-1.4h0c-.92,1.32-2.72,2.24-5.44,2.24-3.52,0-6.48-1.84-6.48-5.88,0-4.2,3-6.12,7.72-6.12h3.92a.21.21,0,0,0,.24-.24v-.92c0-2.2-1-3.2-4.28-3.2a6.76,6.76,0,0,0-4.4,1.32.36.36,0,0,1-.56-.08l-1.48-2.64a.37.37,0,0,1,.08-.52,11.25,11.25,0,0,1,6.84-1.88c5.88,0,8,2,8,6.72v12.6a.38.38,0,0,1-.4.4Zm-.48-6.48V96a.21.21,0,0,0-.24-.24h-3.2c-2.88,0-4.16.8-4.16,2.6,0,1.6,1.16,2.4,3.32,2.4C88.64,100.8,90.16,99.72,90.16,97.52Z"/><path d="M111.16,104a.38.38,0,0,1-.4-.4v-1.44h0c-.92,1.32-2.52,2.28-5.12,2.28-3.28,0-5.68-1.56-6.68-4.64a16.07,16.07,0,0,1-.68-5.44,16.07,16.07,0,0,1,.68-5.44c1-3.08,3.4-4.64,6.68-4.64,2.6,0,4.2,1,5.12,2.28h0V77.2a.38.38,0,0,1,.4-.4h3.68a.38.38,0,0,1,.4.4v26.4a.38.38,0,0,1-.4.4Zm-.8-6a11.37,11.37,0,0,0,.4-3.6,11.37,11.37,0,0,0-.4-3.6,3.82,3.82,0,0,0-7.16,0,11.37,11.37,0,0,0-.4,3.6,11.37,11.37,0,0,0,.4,3.6,3.82,3.82,0,0,0,7.16,0Z"/><path d="M119.88,99.12a14.24,14.24,0,0,1-.64-4.76,14.24,14.24,0,0,1,.64-4.76c1.08-3.36,4-5.32,8-5.32s6.83,2,7.91,5.32a14.24,14.24,0,0,1,.64,4.76,14.24,14.24,0,0,1-.64,4.76c-1.08,3.36-4,5.32-7.91,5.32S121,102.48,119.88,99.12Zm11.56-1.2a10.89,10.89,0,0,0,.4-3.56,11,11,0,0,0-.4-3.56,3.56,3.56,0,0,0-3.6-2.52,3.61,3.61,0,0,0-3.64,2.52,11,11,0,0,0-.4,3.56,10.89,10.89,0,0,0,.4,3.56,3.61,3.61,0,0,0,3.64,2.52A3.56,3.56,0,0,0,131.44,97.92Z"/><path d="M160.91,104a.38.38,0,0,1-.4-.4v-1.44h0c-.92,1.32-2.51,2.28-5.11,2.28-3.28,0-5.68-1.56-6.68-4.64a16.07,16.07,0,0,1-.68-5.44,16.07,16.07,0,0,1,.68-5.44c1-3.08,3.4-4.64,6.68-4.64,2.6,0,4.19,1,5.11,2.28h0V77.2a.38.38,0,0,1,.4-.4h3.68a.38.38,0,0,1,.4.4v26.4a.38.38,0,0,1-.4.4Zm-.8-6a11.08,11.08,0,0,0,.4-3.6,11.08,11.08,0,0,0-.4-3.6,3.82,3.82,0,0,0-7.15,0,11.37,11.37,0,0,0-.4,3.6A11.37,11.37,0,0,0,153,98a3.82,3.82,0,0,0,7.15,0Z"/><path d="M169.68,99.08a15,15,0,0,1-.68-4.72,15.36,15.36,0,0,1,.64-4.76c1.08-3.36,4-5.32,7.88-5.32s6.83,2,7.91,5.32a17.27,17.27,0,0,1,.64,5.8.39.39,0,0,1-.44.4H173.76a.21.21,0,0,0-.24.24,4.48,4.48,0,0,0,4.6,4.4,5.8,5.8,0,0,0,4.51-1.84.41.41,0,0,1,.6-.08l2.36,2.08a.36.36,0,0,1,0,.56,10.15,10.15,0,0,1-7.91,3.28C173.64,104.44,170.76,102.44,169.68,99.08Zm11.63-8.52a4.11,4.11,0,0,0-7.55,0,4.89,4.89,0,0,0-.24,1.64.21.21,0,0,0,.24.24h7.55a.21.21,0,0,0,.24-.24A4.89,4.89,0,0,0,181.31,90.56Z"/><path d="M222.71,104a.38.38,0,0,1-.4-.4V92.48c0-2.48-1.24-4.2-3.64-4.2S215,90,215,92.48V103.6a.38.38,0,0,1-.4.4h-3.68a.38.38,0,0,1-.4-.4V92.48c0-2.48-1.24-4.2-3.64-4.2s-3.67,1.72-3.67,4.2V103.6a.38.38,0,0,1-.4.4h-3.68a.38.38,0,0,1-.4-.4V85.12a.38.38,0,0,1,.4-.4h3.68a.38.38,0,0,1,.4.4v1.4h0a5.94,5.94,0,0,1,5.07-2.24,6.2,6.2,0,0,1,5.28,2.56h0a7.88,7.88,0,0,1,6.16-2.56c4.48,0,7,3,7,7.16V103.6a.38.38,0,0,1-.4.4Z"/><path d="M243.11,104a.38.38,0,0,1-.4-.4v-1.4h0c-.92,1.32-2.72,2.24-5.44,2.24-3.51,0-6.47-1.84-6.47-5.88,0-4.2,3-6.12,7.71-6.12h3.92a.21.21,0,0,0,.24-.24v-.92c0-2.2-1-3.2-4.28-3.2A6.73,6.73,0,0,0,234,89.4a.36.36,0,0,1-.56-.08l-1.48-2.64a.37.37,0,0,1,.08-.52,11.24,11.24,0,0,1,6.83-1.88c5.88,0,8,2,8,6.72v12.6a.38.38,0,0,1-.4.4Zm-.48-6.48V96a.21.21,0,0,0-.24-.24h-3.2c-2.88,0-4.15.8-4.15,2.6,0,1.6,1.15,2.4,3.31,2.4C241.11,100.8,242.63,99.72,242.63,97.52Z"/><path d="M257.39,104.23c-3.87,0-5.35-1.87-5.35-5.63V88.44a.21.21,0,0,0-.24-.24h-1.28a.38.38,0,0,1-.4-.4V85.12a.38.38,0,0,1,.4-.4h1.28a.21.21,0,0,0,.24-.24V79.2a.38.38,0,0,1,.4-.4h3.67a.38.38,0,0,1,.4.4v5.28a.21.21,0,0,0,.24.24h2.56a.38.38,0,0,1,.4.4V87.8a.38.38,0,0,1-.4.4h-2.56a.21.21,0,0,0-.24.24v10c0,1.36.56,1.8,1.8,1.8h1a.38.38,0,0,1,.4.4v3.19a.37.37,0,0,1-.4.4Z"/><path d="M263.44,99.08a15,15,0,0,1-.68-4.72,15.36,15.36,0,0,1,.64-4.76c1.08-3.36,4-5.32,7.87-5.32s6.84,2,7.92,5.32a17.27,17.27,0,0,1,.64,5.8.39.39,0,0,1-.44.4H267.51a.21.21,0,0,0-.24.24,4.48,4.48,0,0,0,.28,1.48,4.21,4.21,0,0,0,4.32,2.92,5.81,5.81,0,0,0,4.52-1.84.41.41,0,0,1,.6-.08l2.36,2.08a.36.36,0,0,1,0,.56,10.16,10.16,0,0,1-7.92,3.28C267.4,104.44,264.52,102.44,263.44,99.08Zm11.63-8.52a4.12,4.12,0,0,0-7.56,0,4.89,4.89,0,0,0-.24,1.64.21.21,0,0,0,.24.24h7.56a.21.21,0,0,0,.24-.24A4.89,4.89,0,0,0,275.07,90.56Z"/><path d="M284.24,104a.38.38,0,0,1-.4-.4V85.12a.38.38,0,0,1,.4-.4h3.68a.38.38,0,0,1,.39.4v1.64h0a5.52,5.52,0,0,1,5-2.48,5.82,5.82,0,0,1,4,1.6c.2.2.24.36.08.56l-2.12,2.68a.36.36,0,0,1-.56.08,5.21,5.21,0,0,0-2.84-.92c-2.52,0-3.64,1.8-3.64,4.88V103.6a.38.38,0,0,1-.39.4Z"/><path d="M300.35,81.08a.38.38,0,0,1-.4-.4V77.2a.38.38,0,0,1,.4-.4H304a.38.38,0,0,1,.4.4v3.48a.38.38,0,0,1-.4.4Zm0,22.92a.38.38,0,0,1-.4-.4V85.12a.38.38,0,0,1,.4-.4H304a.38.38,0,0,1,.4.4V103.6a.38.38,0,0,1-.4.4Z"/><path d="M321,104a.38.38,0,0,1-.4-.4v-1.4h0c-.92,1.32-2.72,2.24-5.44,2.24-3.52,0-6.48-1.84-6.48-5.88,0-4.2,3-6.12,7.72-6.12h3.92a.21.21,0,0,0,.24-.24v-.92c0-2.2-1-3.2-4.28-3.2a6.76,6.76,0,0,0-4.4,1.32.36.36,0,0,1-.56-.08l-1.48-2.64a.37.37,0,0,1,.08-.52,11.25,11.25,0,0,1,6.84-1.88c5.88,0,8,2,8,6.72v12.6a.38.38,0,0,1-.4.4Zm-.48-6.48V96a.21.21,0,0,0-.24-.24H317c-2.88,0-4.16.8-4.16,2.6,0,1.6,1.16,2.4,3.32,2.4C319,100.8,320.47,99.72,320.47,97.52Z"/><path d="M334.79,104.23c-3.76,0-5.28-1.79-5.28-5.51V77.2a.38.38,0,0,1,.4-.4h3.68a.38.38,0,0,1,.4.4V98.48c0,1.32.52,1.76,1.68,1.76h.88a.38.38,0,0,1,.4.4v3.19a.37.37,0,0,1-.4.4Z"/><path d="M340.07,99.08a15,15,0,0,1-.68-4.72A15.36,15.36,0,0,1,340,89.6c1.08-3.36,4-5.32,7.88-5.32s6.84,2,7.92,5.32a17.27,17.27,0,0,1,.64,5.8.39.39,0,0,1-.44.4H344.15a.21.21,0,0,0-.24.24,4.48,4.48,0,0,0,4.6,4.4A5.81,5.81,0,0,0,353,98.6a.41.41,0,0,1,.6-.08L356,100.6a.36.36,0,0,1,0,.56,10.16,10.16,0,0,1-7.92,3.28C344,104.44,341.15,102.44,340.07,99.08Zm11.64-8.52a4.12,4.12,0,0,0-7.56,0,4.89,4.89,0,0,0-.24,1.64.21.21,0,0,0,.24.24h7.56a.21.21,0,0,0,.24-.24A4.89,4.89,0,0,0,351.71,90.56Z"/><path d="M359.31,101.4a.39.39,0,0,1,0-.56l2.28-2.4a.39.39,0,0,1,.56,0,8.92,8.92,0,0,0,5.64,2.2c2.36,0,3.56-1,3.56-2.28,0-1.16-.68-1.88-3.2-2.12l-2.08-.2c-3.92-.4-5.92-2.4-5.92-5.68,0-3.72,2.68-6.08,7.48-6.08a11.69,11.69,0,0,1,7.24,2.36.4.4,0,0,1,.08.56l-2,2.36a.39.39,0,0,1-.56.08,9.31,9.31,0,0,0-5-1.6c-1.92,0-2.92.84-2.92,2s.68,1.8,3.16,2l2.08.2c4,.4,6,2.48,6,5.64,0,3.84-2.8,6.52-8.08,6.52A12,12,0,0,1,359.31,101.4Z"/><path d="M19.22,149.19a.38.38,0,0,1-.4-.4v-3.2a.38.38,0,0,1,.4-.4h.72c1.52,0,2.28-.68,2.88-2.27l.56-1.64-7-18.16c-.08-.24.08-.4.32-.4h4a.51.51,0,0,1,.48.4l4.36,12.6h.08l4.16-12.6a.51.51,0,0,1,.48-.4H34c.24,0,.4.16.32.4l-7.36,20.07c-1.68,4.56-3.28,6-6.48,6Z"/><path d="M45.42,137.08a15,15,0,0,1-.68-4.72,15.36,15.36,0,0,1,.64-4.76c1.08-3.36,4-5.32,7.88-5.32s6.84,2,7.91,5.32a17.27,17.27,0,0,1,.64,5.8.39.39,0,0,1-.43.4H49.5a.21.21,0,0,0-.24.24,4.48,4.48,0,0,0,4.6,4.4,5.81,5.81,0,0,0,4.52-1.84.41.41,0,0,1,.6-.08l2.35,2.08a.37.37,0,0,1,.05.56,10.18,10.18,0,0,1-7.92,3.28C49.38,142.44,46.5,140.44,45.42,137.08Zm11.64-8.52a4.12,4.12,0,0,0-7.56,0,4.89,4.89,0,0,0-.24,1.64.21.21,0,0,0,.24.24h7.56a.21.21,0,0,0,.24-.24A4.89,4.89,0,0,0,57.06,128.56Z"/><path d="M77.7,149.19a.38.38,0,0,1-.4-.4v-8.63h0c-.92,1.32-2.52,2.28-5.12,2.28-3.28,0-5.68-1.56-6.68-4.64a16.07,16.07,0,0,1-.68-5.44,16.07,16.07,0,0,1,.68-5.44c1-3.08,3.4-4.64,6.68-4.64,2.6,0,4.2,1,5.12,2.28h0v-1.44a.38.38,0,0,1,.4-.4h3.68a.38.38,0,0,1,.39.4v25.67a.38.38,0,0,1-.39.4ZM76.9,136a16.4,16.4,0,0,0,0-7.2,3.82,3.82,0,0,0-7.16,0,16.4,16.4,0,0,0,0,7.2,3.82,3.82,0,0,0,7.16,0Z"/><path d="M98.65,142a.39.39,0,0,1-.4-.4v-1.4h0a5.88,5.88,0,0,1-5,2.24c-4.12,0-6.64-3-6.64-7.16V123.12a.38.38,0,0,1,.4-.4h3.68a.38.38,0,0,1,.4.4v11.12c0,2.48,1.16,4.2,3.6,4.2,2.28,0,3.59-1.72,3.59-4.16V123.12a.38.38,0,0,1,.4-.4h3.68a.38.38,0,0,1,.4.4V141.6a.38.38,0,0,1-.4.4Z"/><path d="M108.18,119.08a.38.38,0,0,1-.4-.4V115.2a.38.38,0,0,1,.4-.4h3.68a.38.38,0,0,1,.4.4v3.48a.38.38,0,0,1-.4.4Zm0,22.92a.38.38,0,0,1-.4-.4V123.12a.38.38,0,0,1,.4-.4h3.68a.38.38,0,0,1,.4.4V141.6a.38.38,0,0,1-.4.4Z"/><path d="M117.7,149.19a.38.38,0,0,1-.4-.4V123.12a.38.38,0,0,1,.4-.4h3.68a.38.38,0,0,1,.4.4v1.44h0c.92-1.32,2.52-2.28,5.12-2.28a6.47,6.47,0,0,1,6.67,4.64,16.07,16.07,0,0,1,.68,5.44,16.07,16.07,0,0,1-.68,5.44,6.47,6.47,0,0,1-6.67,4.64c-2.6,0-4.2-1-5.12-2.28h0v8.63a.38.38,0,0,1-.4.4ZM129.33,136a16.4,16.4,0,0,0,0-7.2,3.82,3.82,0,0,0-7.15,0,16.4,16.4,0,0,0,0,7.2,3.82,3.82,0,0,0,7.15,0Z"/><path d="M137.9,137.12a18,18,0,0,1,0-9.52c1.08-3.36,4-5.32,7.95-5.32s6.84,2,7.92,5.32a18,18,0,0,1,0,9.52c-1.08,3.36-4,5.32-7.92,5.32S139,140.48,137.9,137.12Zm11.55-1.2a10.89,10.89,0,0,0,.4-3.56,11,11,0,0,0-.4-3.56,3.56,3.56,0,0,0-3.6-2.52,3.61,3.61,0,0,0-3.63,2.52,11,11,0,0,0-.4,3.56,10.89,10.89,0,0,0,.4,3.56,3.61,3.61,0,0,0,3.63,2.52A3.56,3.56,0,0,0,149.45,135.92Z"/><path d="M157.26,139.4a.39.39,0,0,1,0-.56l2.28-2.4a.39.39,0,0,1,.56,0,8.92,8.92,0,0,0,5.64,2.2c2.35,0,3.55-1,3.55-2.28,0-1.16-.68-1.88-3.19-2.12L164,134c-3.92-.4-5.92-2.4-5.92-5.68,0-3.72,2.68-6.08,7.48-6.08a11.68,11.68,0,0,1,7.23,2.36.4.4,0,0,1,.08.56l-2,2.36a.39.39,0,0,1-.56.08,9.3,9.3,0,0,0-5-1.6c-1.92,0-2.92.84-2.92,2s.68,1.8,3.16,2l2.08.2c4,.4,6,2.48,6,5.64,0,3.84-2.8,6.52-8.07,6.52A12,12,0,0,1,157.26,139.4Z"/><path d="M198.05,142a.38.38,0,0,1-.4-.4v-1.44h0c-.92,1.32-2.52,2.28-5.12,2.28-3.28,0-5.67-1.56-6.67-4.64a16.07,16.07,0,0,1-.68-5.44,16.07,16.07,0,0,1,.68-5.44c1-3.08,3.39-4.64,6.67-4.64,2.6,0,4.2,1,5.12,2.28h0V115.2a.38.38,0,0,1,.4-.4h3.68a.38.38,0,0,1,.4.4v26.4a.38.38,0,0,1-.4.4Zm-.8-6a16.4,16.4,0,0,0,0-7.2,3.82,3.82,0,0,0-7.16,0,16.4,16.4,0,0,0,0,7.2,3.82,3.82,0,0,0,7.16,0Z"/><path d="M206.82,137.08a15,15,0,0,1-.68-4.72,15.36,15.36,0,0,1,.64-4.76c1.08-3.36,4-5.32,7.87-5.32s6.84,2,7.92,5.32a17.27,17.27,0,0,1,.64,5.8.39.39,0,0,1-.44.4H210.89a.21.21,0,0,0-.24.24,4.48,4.48,0,0,0,4.6,4.4,5.81,5.81,0,0,0,4.52-1.84.41.41,0,0,1,.6-.08l2.36,2.08a.36.36,0,0,1,0,.56,10.16,10.16,0,0,1-7.92,3.28C210.77,142.44,207.9,140.44,206.82,137.08Zm11.63-8.52a4.12,4.12,0,0,0-7.56,0,4.89,4.89,0,0,0-.24,1.64.21.21,0,0,0,.24.24h7.56a.21.21,0,0,0,.24-.24A4.89,4.89,0,0,0,218.45,128.56Z"/><path d="M241.49,142.23c-3.88,0-5.36-1.87-5.36-5.63V126.44a.21.21,0,0,0-.24-.24h-1.28a.38.38,0,0,1-.4-.4v-2.68a.38.38,0,0,1,.4-.4h1.28a.21.21,0,0,0,.24-.24V117.2a.38.38,0,0,1,.4-.4h3.68a.38.38,0,0,1,.4.4v5.28a.21.21,0,0,0,.24.24h2.56a.38.38,0,0,1,.4.4v2.68a.38.38,0,0,1-.4.4h-2.56a.21.21,0,0,0-.24.24v10c0,1.36.56,1.8,1.8,1.8h1a.38.38,0,0,1,.4.4v3.19a.37.37,0,0,1-.4.4Z"/><path d="M248.29,142a.38.38,0,0,1-.4-.4V123.12a.38.38,0,0,1,.4-.4H252a.38.38,0,0,1,.4.4v1.64h0a5.52,5.52,0,0,1,5-2.48,5.82,5.82,0,0,1,4,1.6c.2.2.24.36.08.56l-2.12,2.68a.36.36,0,0,1-.56.08,5.21,5.21,0,0,0-2.84-.92c-2.52,0-3.64,1.8-3.64,4.88V141.6a.38.38,0,0,1-.4.4Z"/><path d="M274.77,142a.38.38,0,0,1-.4-.4v-1.4h0c-.92,1.32-2.72,2.24-5.44,2.24-3.52,0-6.48-1.84-6.48-5.88,0-4.2,3-6.12,7.72-6.12h3.92a.21.21,0,0,0,.24-.24v-.92c0-2.2-1-3.2-4.28-3.2a6.76,6.76,0,0,0-4.4,1.32.36.36,0,0,1-.56-.08l-1.48-2.64a.37.37,0,0,1,.08-.52,11.25,11.25,0,0,1,6.84-1.88c5.88,0,8,2,8,6.72v12.6a.38.38,0,0,1-.4.4Zm-.48-6.48V134a.21.21,0,0,0-.24-.24h-3.2c-2.88,0-4.16.8-4.16,2.6,0,1.6,1.16,2.4,3.32,2.4C272.77,138.8,274.29,137.72,274.29,135.52Z"/><path d="M287.93,140.16h0v1.44a.38.38,0,0,1-.4.4h-3.68a.38.38,0,0,1-.4-.4V115.2a.38.38,0,0,1,.4-.4h3.68a.38.38,0,0,1,.4.4v9.36h0c.92-1.32,2.52-2.28,5.12-2.28,3.28,0,5.68,1.56,6.68,4.64a16.07,16.07,0,0,1,.68,5.44,16.07,16.07,0,0,1-.68,5.44c-1,3.08-3.4,4.64-6.68,4.64C290.45,142.44,288.85,141.48,287.93,140.16Zm7.52-4.2a16.4,16.4,0,0,0,0-7.2,3.82,3.82,0,0,0-7.16,0,16.4,16.4,0,0,0,0,7.2,3.82,3.82,0,0,0,7.16,0Z"/><path d="M315.89,142a.38.38,0,0,1-.4-.4v-1.4h0c-.92,1.32-2.72,2.24-5.44,2.24-3.52,0-6.48-1.84-6.48-5.88,0-4.2,3-6.12,7.72-6.12h3.92a.21.21,0,0,0,.24-.24v-.92c0-2.2-1-3.2-4.28-3.2a6.76,6.76,0,0,0-4.4,1.32.36.36,0,0,1-.56-.08l-1.48-2.64a.37.37,0,0,1,.08-.52,11.25,11.25,0,0,1,6.84-1.88c5.88,0,8,2,8,6.72v12.6a.38.38,0,0,1-.4.4Zm-.48-6.48V134a.21.21,0,0,0-.24-.24H312c-2.88,0-4.16.8-4.16,2.6,0,1.6,1.16,2.4,3.32,2.4C313.89,138.8,315.41,137.72,315.41,135.52Z"/><path d="M321.41,149.19a.38.38,0,0,1-.4-.4v-3.2a.38.38,0,0,1,.4-.4h.88c1.6,0,2.24-.52,2.24-2.27v-19.8a.38.38,0,0,1,.4-.4h3.68a.38.38,0,0,1,.4.4v19.71c0,4.44-2.28,6.36-6.48,6.36Zm3.52-30.11a.38.38,0,0,1-.4-.4V115.2a.38.38,0,0,1,.4-.4h3.68a.38.38,0,0,1,.4.4v3.48a.38.38,0,0,1-.4.4Z"/><path d="M333.65,137.12a18,18,0,0,1,0-9.52c1.08-3.36,4-5.32,8-5.32s6.84,2,7.92,5.32a18,18,0,0,1,0,9.52c-1.08,3.36-4,5.32-7.92,5.32S334.73,140.48,333.65,137.12Zm11.56-1.2a10.89,10.89,0,0,0,.4-3.56,11,11,0,0,0-.4-3.56,3.56,3.56,0,0,0-3.6-2.52A3.61,3.61,0,0,0,338,128.8a11,11,0,0,0-.4,3.56,10.89,10.89,0,0,0,.4,3.56,3.61,3.61,0,0,0,3.64,2.52A3.56,3.56,0,0,0,345.21,135.92Z"/><path d="M353.89,137.52a.38.38,0,0,1,.4-.4h4a.38.38,0,0,1,.4.4v4.08a.38.38,0,0,1-.4.4h-4a.38.38,0,0,1-.4-.4Z"/></g></g></svg>