<svg xmlns="http://www.w3.org/2000/svg" viewBox="0 0 449.71 142.44"><title>p12</title><g id="Capa_2" data-name="Capa 2"><g id="fondo"><path d="M12,14.4c0-4.32.16-5.68.72-7.36C14.14,2.6,17.58.36,22.18.36a9.56,9.56,0,0,1,9.2,5.84.35.35,0,0,1-.2.48l-3.4,1.64a.36.36,0,0,1-.52-.2A5.37,5.37,0,0,0,22.18,4.6,4.82,4.82,0,0,0,17.3,8.2c-.36,1.12-.48,2.2-.48,6.2s.12,5.08.48,6.2a4.82,4.82,0,0,0,4.88,3.6,5.37,5.37,0,0,0,5.08-3.52.36.36,0,0,1,.52-.2l3.4,1.64a.35.35,0,0,1,.2.48,9.56,9.56,0,0,1-9.2,5.84c-4.6,0-8-2.24-9.44-6.68C12.18,20.08,12,18.72,12,14.4Z"/><path d="M46.42,28a.38.38,0,0,1-.4-.4V26.2h0c-.92,1.32-2.72,2.24-5.44,2.24-3.52,0-6.48-1.84-6.48-5.88,0-4.2,3-6.12,7.72-6.12H45.7a.21.21,0,0,0,.24-.24v-.92c0-2.2-1-3.2-4.28-3.2a6.76,6.76,0,0,0-4.4,1.32.36.36,0,0,1-.56-.08l-1.48-2.64a.37.37,0,0,1,.08-.52,11.25,11.25,0,0,1,6.84-1.88c5.88,0,8,2,8,6.72V27.6a.38.38,0,0,1-.4.4Zm-.48-6.48V20a.21.21,0,0,0-.24-.24H42.5c-2.88,0-4.16.8-4.16,2.6,0,1.6,1.16,2.4,3.32,2.4C44.42,24.8,45.94,23.72,45.94,21.52Z"/><path d="M55.46,28a.38.38,0,0,1-.4-.4V9.12a.38.38,0,0,1,.4-.4h3.68a.38.38,0,0,1,.4.4V27.6a.38.38,0,0,1-.4.4Zm.4-22.2c-.24,0-.36-.16-.24-.4l3-5a.76.76,0,0,1,.72-.4H63c.24,0,.36.2.2.4l-3.8,5a.93.93,0,0,1-.8.4Z"/><path d="M76.46,28a.38.38,0,0,1-.4-.4V26.16h0c-.92,1.32-2.52,2.28-5.12,2.28-3.28,0-5.68-1.56-6.68-4.64a16.07,16.07,0,0,1-.68-5.44,16.07,16.07,0,0,1,.68-5.44c1-3.08,3.4-4.64,6.68-4.64,2.6,0,4.2,1,5.12,2.28h0V1.2a.38.38,0,0,1,.4-.4h3.68a.38.38,0,0,1,.4.4V27.6a.38.38,0,0,1-.4.4Zm-.8-6a11.37,11.37,0,0,0,.4-3.6,11.37,11.37,0,0,0-.4-3.6,3.82,3.82,0,0,0-7.16,0,11.37,11.37,0,0,0-.4,3.6,11.37,11.37,0,0,0,.4,3.6,3.82,3.82,0,0,0,7.16,0Z"/><path d="M97.06,28a.38.38,0,0,1-.4-.4V26.2h0c-.92,1.32-2.72,2.24-5.44,2.24-3.52,0-6.48-1.84-6.48-5.88,0-4.2,3-6.12,7.72-6.12h3.92a.21.21,0,0,0,.24-.24v-.92c0-2.2-1-3.2-4.28-3.2a6.76,6.76,0,0,0-4.4,1.32.36.36,0,0,1-.56-.08l-1.48-2.64a.37.37,0,0,1,.08-.52,11.25,11.25,0,0,1,6.84-1.88c5.88,0,8,2,8,6.72V27.6a.38.38,0,0,1-.4.4Zm-.48-6.48V20a.21.21,0,0,0-.24-.24h-3.2c-2.88,0-4.16.8-4.16,2.6,0,1.6,1.16,2.4,3.32,2.4C95.06,24.8,96.58,23.72,96.58,21.52Z"/><path d="M104.54,25.4a.39.39,0,0,1,0-.56l2.28-2.4a.39.39,0,0,1,.56,0,8.92,8.92,0,0,0,5.64,2.2c2.36,0,3.56-1,3.56-2.28,0-1.16-.68-1.88-3.2-2.12L111.3,20c-3.92-.4-5.92-2.4-5.92-5.68,0-3.72,2.68-6.08,7.48-6.08a11.69,11.69,0,0,1,7.24,2.36.4.4,0,0,1,.08.56l-2,2.36a.39.39,0,0,1-.56.08,9.31,9.31,0,0,0-5-1.6c-1.92,0-2.92.84-2.92,2s.68,1.8,3.16,2l2.08.2c4,.4,6,2.48,6,5.64,0,3.84-2.8,6.52-8.08,6.52A12,12,0,0,1,104.54,25.4Z"/><path d="M144.94,28a.38.38,0,0,1-.4-.4V26.2h0c-.92,1.32-2.72,2.24-5.44,2.24-3.52,0-6.48-1.84-6.48-5.88,0-4.2,3-6.12,7.72-6.12h3.92a.21.21,0,0,0,.24-.24v-.92c0-2.2-1-3.2-4.28-3.2a6.76,6.76,0,0,0-4.4,1.32.36.36,0,0,1-.56-.08l-1.48-2.64a.37.37,0,0,1,.08-.52,11.25,11.25,0,0,1,6.84-1.88c5.88,0,8,2,8,6.72V27.6a.39.39,0,0,1-.41.4Zm-.48-6.48V20a.21.21,0,0,0-.24-.24H141c-2.88,0-4.16.8-4.16,2.6,0,1.6,1.16,2.4,3.32,2.4C142.94,24.8,144.46,23.72,144.46,21.52Z"/><path d="M158.78,28.23c-3.76,0-5.28-1.79-5.28-5.51V1.2a.38.38,0,0,1,.4-.4h3.68a.38.38,0,0,1,.4.4V22.48c0,1.32.52,1.76,1.68,1.76h.88a.38.38,0,0,1,.4.4v3.19a.37.37,0,0,1-.4.4Z"/><path d="M197.05,28a.38.38,0,0,1-.4-.4V16.48c0-2.48-1.24-4.2-3.64-4.2s-3.68,1.72-3.68,4.2V27.6a.38.38,0,0,1-.4.4h-3.67a.38.38,0,0,1-.4-.4V16.48c0-2.48-1.24-4.2-3.64-4.2s-3.68,1.72-3.68,4.2V27.6a.38.38,0,0,1-.4.4h-3.68a.38.38,0,0,1-.4-.4V9.12a.38.38,0,0,1,.4-.4h3.68a.38.38,0,0,1,.4.4v1.4h0a6,6,0,0,1,5.08-2.24,6.17,6.17,0,0,1,5.27,2.56h0a7.89,7.89,0,0,1,6.16-2.56c4.48,0,7,3,7,7.16V27.6a.38.38,0,0,1-.4.4Z"/><path d="M206.38,5.08a.38.38,0,0,1-.4-.4V1.2a.38.38,0,0,1,.4-.4h3.68a.38.38,0,0,1,.4.4V4.68a.38.38,0,0,1-.4.4Zm0,22.92a.38.38,0,0,1-.4-.4V9.12a.38.38,0,0,1,.4-.4h3.68a.38.38,0,0,1,.4.4V27.6a.38.38,0,0,1-.4.4Z"/><path d="M214.34,25.4a.39.39,0,0,1,0-.56l2.28-2.4a.39.39,0,0,1,.56,0,8.92,8.92,0,0,0,5.64,2.2c2.35,0,3.56-1,3.56-2.28,0-1.16-.68-1.88-3.2-2.12L221.1,20c-3.92-.4-5.92-2.4-5.92-5.68,0-3.72,2.68-6.08,7.48-6.08a11.68,11.68,0,0,1,7.23,2.36.4.4,0,0,1,.08.56l-2,2.36a.38.38,0,0,1-.55.08,9.37,9.37,0,0,0-5-1.6c-1.92,0-2.92.84-2.92,2s.68,1.8,3.16,2l2.08.2c4,.4,5.95,2.48,5.95,5.64,0,3.84-2.8,6.52-8.07,6.52A12,12,0,0,1,214.34,25.4Z"/><path d="M258.61,28a.38.38,0,0,1-.4-.4V16.48c0-2.48-1.24-4.2-3.64-4.2s-3.68,1.72-3.68,4.2V27.6a.38.38,0,0,1-.4.4h-3.68a.38.38,0,0,1-.4-.4V16.48c0-2.48-1.24-4.2-3.63-4.2s-3.68,1.72-3.68,4.2V27.6a.38.38,0,0,1-.4.4H235a.38.38,0,0,1-.4-.4V9.12a.38.38,0,0,1,.4-.4h3.68a.38.38,0,0,1,.4.4v1.4h0a6,6,0,0,1,5.07-2.24,6.2,6.2,0,0,1,5.28,2.56h0a7.88,7.88,0,0,1,6.16-2.56c4.48,0,7,3,7,7.16V27.6a.38.38,0,0,1-.4.4Z"/><path d="M267.14,23.12a14.24,14.24,0,0,1-.64-4.76,14.24,14.24,0,0,1,.64-4.76c1.08-3.36,4-5.32,7.95-5.32s6.84,2,7.92,5.32a14.24,14.24,0,0,1,.64,4.76,14.24,14.24,0,0,1-.64,4.76c-1.08,3.36-4,5.32-7.92,5.32S268.22,26.48,267.14,23.12Zm11.55-1.2a10.89,10.89,0,0,0,.4-3.56,11,11,0,0,0-.4-3.56,3.56,3.56,0,0,0-3.6-2.52,3.6,3.6,0,0,0-3.63,2.52,10.73,10.73,0,0,0-.41,3.56,10.58,10.58,0,0,0,.41,3.56,3.6,3.6,0,0,0,3.63,2.52A3.56,3.56,0,0,0,278.69,21.92Z"/><path d="M308.49,28a.38.38,0,0,1-.4-.4V16.48c0-2.48-1.24-4.2-3.64-4.2s-3.67,1.72-3.67,4.2V27.6a.38.38,0,0,1-.4.4H296.7a.39.39,0,0,1-.41-.4V9.12a.39.39,0,0,1,.41-.4h3.68a.38.38,0,0,1,.4.4v1.4h0a6,6,0,0,1,5.08-2.24c4.12,0,6.68,3,6.68,7.16V27.6a.38.38,0,0,1-.4.4Z"/><path d="M317.81,5.08a.38.38,0,0,1-.4-.4V1.2a.38.38,0,0,1,.4-.4h3.68a.38.38,0,0,1,.4.4V4.68a.38.38,0,0,1-.4.4Zm0,22.92a.38.38,0,0,1-.4-.4V9.12a.38.38,0,0,1,.4-.4h3.68a.38.38,0,0,1,.4.4V27.6a.38.38,0,0,1-.4.4Z"/><path d="M332.13,28a.53.53,0,0,1-.52-.4l-6.8-18.48c-.08-.24.08-.4.32-.4h3.92a.51.51,0,0,1,.48.4l4.24,12.52h.08L338,9.12a.51.51,0,0,1,.48-.4h3.84c.24,0,.4.16.32.4l-6.8,18.48a.53.53,0,0,1-.52.4Z"/><path d="M345,23.08a15,15,0,0,1-.68-4.72,15.36,15.36,0,0,1,.64-4.76c1.08-3.36,4-5.32,7.88-5.32s6.84,2,7.92,5.32a17.27,17.27,0,0,1,.64,5.8.39.39,0,0,1-.44.4H349.05a.21.21,0,0,0-.24.24,4.24,4.24,0,0,0,.28,1.48,4.21,4.21,0,0,0,4.32,2.92,5.81,5.81,0,0,0,4.52-1.84.41.41,0,0,1,.6-.08l2.36,2.08a.36.36,0,0,1,0,.56A10.16,10.16,0,0,1,353,28.44C348.93,28.44,346.05,26.44,345,23.08Zm11.64-8.52a4.12,4.12,0,0,0-7.56,0,4.89,4.89,0,0,0-.24,1.64.21.21,0,0,0,.24.24h7.56a.21.21,0,0,0,.24-.24A4.89,4.89,0,0,0,356.61,14.56Z"/><path d="M370.57,28.23c-3.76,0-5.28-1.79-5.28-5.51V1.2a.38.38,0,0,1,.4-.4h3.68a.38.38,0,0,1,.4.4V22.48c0,1.32.52,1.76,1.68,1.76h.88a.38.38,0,0,1,.4.4v3.19a.37.37,0,0,1-.4.4Z"/><path d="M385.25,35.19a.38.38,0,0,1-.4-.4V9.12a.38.38,0,0,1,.4-.4h3.68a.38.38,0,0,1,.4.4v1.44h0c.92-1.32,2.52-2.28,5.12-2.28,3.28,0,5.68,1.56,6.68,4.64a16.07,16.07,0,0,1,.68,5.44,16.07,16.07,0,0,1-.68,5.44c-1,3.08-3.4,4.64-6.68,4.64-2.6,0-4.2-1-5.12-2.28h0v8.63a.38.38,0,0,1-.4.4ZM396.89,22a11.37,11.37,0,0,0,.4-3.6,11.37,11.37,0,0,0-.4-3.6,3.82,3.82,0,0,0-7.16,0,11.37,11.37,0,0,0-.4,3.6,11.37,11.37,0,0,0,.4,3.6,3.82,3.82,0,0,0,7.16,0Z"/><path d="M405.45,23.12a14.24,14.24,0,0,1-.64-4.76,14.24,14.24,0,0,1,.64-4.76c1.08-3.36,4-5.32,8-5.32s6.84,2,7.92,5.32a14.24,14.24,0,0,1,.64,4.76,14.24,14.24,0,0,1-.64,4.76c-1.08,3.36-4,5.32-7.92,5.32S406.53,26.48,405.45,23.12ZM417,21.92a10.89,10.89,0,0,0,.4-3.56,11,11,0,0,0-.4-3.56,3.56,3.56,0,0,0-3.6-2.52,3.61,3.61,0,0,0-3.64,2.52,11,11,0,0,0-.4,3.56,10.89,10.89,0,0,0,.4,3.56,3.61,3.61,0,0,0,3.64,2.52A3.56,3.56,0,0,0,417,21.92Z"/><path d="M426.37,28a.38.38,0,0,1-.4-.4V9.12a.38.38,0,0,1,.4-.4h3.68a.38.38,0,0,1,.4.4v1.64h0a5.52,5.52,0,0,1,5-2.48,5.82,5.82,0,0,1,4,1.6c.2.2.24.36.08.56l-2.12,2.68a.36.36,0,0,1-.56.08,5.21,5.21,0,0,0-2.84-.92c-2.52,0-3.64,1.8-3.64,4.88V27.6a.38.38,0,0,1-.4.4Z"/><path d="M7.28,66.23c-3.88,0-5.36-1.87-5.36-5.63V50.44a.21.21,0,0,0-.24-.24H.4a.38.38,0,0,1-.4-.4V47.12a.38.38,0,0,1,.4-.4H1.68a.21.21,0,0,0,.24-.24V41.2a.38.38,0,0,1,.4-.4H6a.38.38,0,0,1,.4.4v5.28a.21.21,0,0,0,.24.24H9.2a.38.38,0,0,1,.4.4V49.8a.38.38,0,0,1-.4.4H6.64a.21.21,0,0,0-.24.24v10c0,1.36.56,1.8,1.8,1.8h1a.38.38,0,0,1,.4.4v3.19a.37.37,0,0,1-.4.4Z"/><path d="M14.08,66a.38.38,0,0,1-.4-.4V47.12a.38.38,0,0,1,.4-.4h3.68a.38.38,0,0,1,.4.4v1.64h0a5.52,5.52,0,0,1,5-2.48,5.82,5.82,0,0,1,4,1.6c.2.2.24.36.08.56L25.2,51.12a.36.36,0,0,1-.56.08,5.21,5.21,0,0,0-2.84-.92c-2.52,0-3.64,1.8-3.64,4.88V65.6a.38.38,0,0,1-.4.4Z"/><path d="M29,61.12a14.24,14.24,0,0,1-.64-4.76A14.24,14.24,0,0,1,29,51.6c1.08-3.36,4-5.32,8-5.32s6.84,2,7.92,5.32a14.24,14.24,0,0,1,.64,4.76,14.24,14.24,0,0,1-.64,4.76c-1.08,3.36-4,5.32-7.92,5.32S30.08,64.48,29,61.12Zm11.56-1.2a10.89,10.89,0,0,0,.4-3.56,11,11,0,0,0-.4-3.56A3.56,3.56,0,0,0,37,50.28a3.61,3.61,0,0,0-3.64,2.52,11,11,0,0,0-.4,3.56,10.89,10.89,0,0,0,.4,3.56A3.61,3.61,0,0,0,37,62.44,3.56,3.56,0,0,0,40.56,59.92Z"/><path d="M49.92,73.19a.38.38,0,0,1-.4-.4V47.12a.38.38,0,0,1,.4-.4H53.6a.38.38,0,0,1,.4.4v1.44h0c.92-1.32,2.52-2.28,5.12-2.28,3.28,0,5.68,1.56,6.68,4.64a16.07,16.07,0,0,1,.68,5.44,16.07,16.07,0,0,1-.68,5.44c-1,3.08-3.4,4.64-6.68,4.64-2.6,0-4.2-1-5.12-2.28h0v8.63a.38.38,0,0,1-.4.4ZM61.56,60a11.37,11.37,0,0,0,.4-3.6,11.37,11.37,0,0,0-.4-3.6,3.82,3.82,0,0,0-7.16,0,11.37,11.37,0,0,0-.4,3.6,11.37,11.37,0,0,0,.4,3.6,3.82,3.82,0,0,0,7.16,0Z"/><path d="M70.92,43.08a.38.38,0,0,1-.4-.4V39.2a.38.38,0,0,1,.4-.4H74.6a.38.38,0,0,1,.4.4v3.48a.38.38,0,0,1-.4.4Zm0,22.92a.38.38,0,0,1-.4-.4V47.12a.38.38,0,0,1,.4-.4H74.6a.38.38,0,0,1,.4.4V65.6a.38.38,0,0,1-.4.4Z"/><path d="M79.68,61.08A15,15,0,0,1,79,56.36a15.36,15.36,0,0,1,.64-4.76c1.08-3.36,4-5.32,7.88-5.32s6.84,2,7.92,5.32a17.27,17.27,0,0,1,.64,5.8.39.39,0,0,1-.44.4H83.76a.21.21,0,0,0-.24.24,4.48,4.48,0,0,0,4.6,4.4,5.81,5.81,0,0,0,4.52-1.84.41.41,0,0,1,.6-.08L95.6,62.6a.37.37,0,0,1,0,.56,10.16,10.16,0,0,1-7.92,3.28C83.64,66.44,80.76,64.44,79.68,61.08Zm11.64-8.52a4.12,4.12,0,0,0-7.56,0,4.89,4.89,0,0,0-.24,1.64.21.21,0,0,0,.24.24h7.56a.21.21,0,0,0,.24-.24A4.89,4.89,0,0,0,91.32,52.56Z"/><path d="M99.64,66a.38.38,0,0,1-.4-.4V62.68a.68.68,0,0,1,.12-.4l9.84-11.56v-.08h-9a.38.38,0,0,1-.4-.4V47.12a.38.38,0,0,1,.4-.4h13.92a.38.38,0,0,1,.4.4v3.12a.6.6,0,0,1-.12.4L104.64,62v.08h9.44a.38.38,0,0,1,.4.4V65.6a.38.38,0,0,1-.4.4Z"/><path d="M118.28,61.12a14.24,14.24,0,0,1-.64-4.76,14.24,14.24,0,0,1,.64-4.76c1.08-3.36,4-5.32,8-5.32s6.83,2,7.91,5.32a14.24,14.24,0,0,1,.64,4.76,14.24,14.24,0,0,1-.64,4.76c-1.08,3.36-4,5.32-7.91,5.32S119.36,64.48,118.28,61.12Zm11.56-1.2a10.89,10.89,0,0,0,.4-3.56,11,11,0,0,0-.4-3.56,3.56,3.56,0,0,0-3.6-2.52,3.61,3.61,0,0,0-3.64,2.52,11,11,0,0,0-.4,3.56,10.89,10.89,0,0,0,.4,3.56,3.61,3.61,0,0,0,3.64,2.52A3.56,3.56,0,0,0,129.84,59.92Z"/><path d="M137.64,63.4a.39.39,0,0,1,0-.56l2.28-2.4a.39.39,0,0,1,.56,0,8.92,8.92,0,0,0,5.64,2.2c2.36,0,3.56-1,3.56-2.28,0-1.16-.68-1.88-3.2-2.12L144.4,58c-3.92-.4-5.92-2.4-5.92-5.68,0-3.72,2.68-6.08,7.48-6.08a11.71,11.71,0,0,1,7.24,2.36.41.41,0,0,1,.08.56l-2,2.36a.39.39,0,0,1-.56.08,9.31,9.31,0,0,0-5-1.6c-1.92,0-2.92.84-2.92,2s.68,1.8,3.16,2l2.08.2c4,.4,6,2.48,6,5.64,0,3.84-2.8,6.52-8.08,6.52A12,12,0,0,1,137.64,63.4Z"/><path d="M166.16,61.12a14.24,14.24,0,0,1-.64-4.76,14.24,14.24,0,0,1,.64-4.76c1.08-3.36,4-5.32,8-5.32s6.83,2,7.91,5.32a14.24,14.24,0,0,1,.64,4.76,14.24,14.24,0,0,1-.64,4.76c-1.08,3.36-4,5.32-7.91,5.32S167.24,64.48,166.16,61.12Zm11.55-1.2a10.58,10.58,0,0,0,.41-3.56,10.73,10.73,0,0,0-.41-3.56,3.55,3.55,0,0,0-3.59-2.52,3.61,3.61,0,0,0-3.64,2.52,11,11,0,0,0-.4,3.56,10.89,10.89,0,0,0,.4,3.56,3.61,3.61,0,0,0,3.64,2.52A3.55,3.55,0,0,0,177.71,59.92Z"/><path d="M195.72,66a.38.38,0,0,1-.4-.4V47.12a.38.38,0,0,1,.4-.4h3.68a.38.38,0,0,1,.39.4v1.64h.05a5.49,5.49,0,0,1,5-2.48,5.82,5.82,0,0,1,4,1.6c.2.2.24.36.08.56l-2.12,2.68a.36.36,0,0,1-.56.08,5.21,5.21,0,0,0-2.84-.92c-2.51,0-3.64,1.8-3.64,4.88V65.6a.38.38,0,0,1-.39.4Z"/><path d="M210.68,61.08a15,15,0,0,1-.68-4.72,15.36,15.36,0,0,1,.64-4.76c1.08-3.36,4-5.32,7.88-5.32s6.83,2,7.91,5.32a17.27,17.27,0,0,1,.64,5.8.39.39,0,0,1-.44.4H214.76a.21.21,0,0,0-.24.24,4.48,4.48,0,0,0,.27,1.48,4.23,4.23,0,0,0,4.33,2.92,5.8,5.8,0,0,0,4.51-1.84.41.41,0,0,1,.6-.08l2.36,2.08a.36.36,0,0,1,0,.56,10.16,10.16,0,0,1-7.92,3.28C214.64,66.44,211.76,64.44,210.68,61.08Zm11.63-8.52a4.11,4.11,0,0,0-7.55,0,4.89,4.89,0,0,0-.24,1.64.21.21,0,0,0,.24.24h7.55a.21.21,0,0,0,.24-.24A4.89,4.89,0,0,0,222.31,52.56Z"/><path d="M229.92,63.4a.39.39,0,0,1,0-.56l2.28-2.4a.39.39,0,0,1,.56,0,8.9,8.9,0,0,0,5.63,2.2c2.36,0,3.56-1,3.56-2.28,0-1.16-.68-1.88-3.2-2.12l-2.08-.2c-3.91-.4-5.91-2.4-5.91-5.68,0-3.72,2.68-6.08,7.47-6.08a11.69,11.69,0,0,1,7.24,2.36.4.4,0,0,1,.08.56l-2,2.36a.39.39,0,0,1-.56.08,9.31,9.31,0,0,0-5-1.6c-1.92,0-2.91.84-2.91,2s.67,1.8,3.15,2l2.08.2c4,.4,6,2.48,6,5.64,0,3.84-2.8,6.52-8.08,6.52A12,12,0,0,1,229.92,63.4Z"/><path d="M254.71,64.16h0V65.6a.38.38,0,0,1-.4.4h-3.68a.38.38,0,0,1-.39-.4V39.2a.38.38,0,0,1,.39-.4h3.68a.38.38,0,0,1,.4.4v9.36h0c.92-1.32,2.52-2.28,5.12-2.28,3.28,0,5.68,1.56,6.68,4.64a16.07,16.07,0,0,1,.68,5.44,16.07,16.07,0,0,1-.68,5.44c-1,3.08-3.4,4.64-6.68,4.64C257.23,66.44,255.63,65.48,254.71,64.16Zm7.52-4.2a11.37,11.37,0,0,0,.4-3.6,11.37,11.37,0,0,0-.4-3.6,3.82,3.82,0,0,0-7.16,0,11.37,11.37,0,0,0-.4,3.6,11.37,11.37,0,0,0,.4,3.6,3.82,3.82,0,0,0,7.16,0Z"/><path d="M282.67,66a.38.38,0,0,1-.4-.4V64.2h0c-.92,1.32-2.72,2.24-5.44,2.24-3.52,0-6.48-1.84-6.48-5.88,0-4.2,3-6.12,7.72-6.12H282a.21.21,0,0,0,.24-.24v-.92c0-2.2-1-3.2-4.28-3.2a6.76,6.76,0,0,0-4.4,1.32.35.35,0,0,1-.55-.08l-1.49-2.64a.38.38,0,0,1,.08-.52,11.27,11.27,0,0,1,6.84-1.88c5.88,0,8,2,8,6.72V65.6a.38.38,0,0,1-.4.4Zm-.48-6.48V58a.21.21,0,0,0-.24-.24h-3.2c-2.88,0-4.16.8-4.16,2.6,0,1.6,1.16,2.4,3.32,2.4C280.67,62.8,282.19,61.72,282.19,59.52Z"/><path d="M296.51,66.23c-3.76,0-5.28-1.79-5.28-5.51V39.2a.38.38,0,0,1,.4-.4h3.68a.38.38,0,0,1,.4.4V60.48c0,1.32.52,1.76,1.68,1.76h.88a.38.38,0,0,1,.4.4v3.19a.37.37,0,0,1-.4.4Z"/><path d="M301.75,61.12a14.27,14.27,0,0,1-.63-4.76,14.27,14.27,0,0,1,.63-4.76c1.08-3.36,4-5.32,8-5.32s6.84,2,7.92,5.32a14.24,14.24,0,0,1,.64,4.76,14.24,14.24,0,0,1-.64,4.76c-1.08,3.36-4,5.32-7.92,5.32S302.83,64.48,301.75,61.12Zm11.56-1.2a10.89,10.89,0,0,0,.4-3.56,11,11,0,0,0-.4-3.56,3.56,3.56,0,0,0-3.6-2.52,3.61,3.61,0,0,0-3.64,2.52,11,11,0,0,0-.4,3.56,10.89,10.89,0,0,0,.4,3.56,3.61,3.61,0,0,0,3.64,2.52A3.56,3.56,0,0,0,313.31,59.92Z"/><path d="M334.47,66a.38.38,0,0,1-.4-.4V54.48c0-2.48-1.24-4.2-3.64-4.2s-3.68,1.72-3.68,4.2V65.6a.38.38,0,0,1-.4.4h-3.68a.38.38,0,0,1-.4-.4V47.12a.38.38,0,0,1,.4-.4h3.68a.38.38,0,0,1,.4.4v1.4h0a6,6,0,0,1,5.08-2.24c4.12,0,6.68,3,6.68,7.16V65.6a.38.38,0,0,1-.4.4Z"/><path d="M343,61.08a15,15,0,0,1-.68-4.72A15.36,15.36,0,0,1,343,51.6c1.08-3.36,4-5.32,7.88-5.32s6.84,2,7.92,5.32a17.27,17.27,0,0,1,.64,5.8.39.39,0,0,1-.44.4H347.11a.21.21,0,0,0-.24.24,4.48,4.48,0,0,0,4.6,4.4A5.81,5.81,0,0,0,356,60.6a.41.41,0,0,1,.6-.08L359,62.6a.36.36,0,0,1,0,.56,10.16,10.16,0,0,1-7.92,3.28C347,66.44,344.11,64.44,343,61.08Zm11.64-8.52a4.12,4.12,0,0,0-7.56,0,4.89,4.89,0,0,0-.24,1.64.21.21,0,0,0,.24.24h7.56a.21.21,0,0,0,.24-.24A4.89,4.89,0,0,0,354.67,52.56Z"/><path d="M362.27,63.4a.39.39,0,0,1,0-.56l2.28-2.4a.39.39,0,0,1,.56,0,8.92,8.92,0,0,0,5.64,2.2c2.36,0,3.56-1,3.56-2.28,0-1.16-.68-1.88-3.2-2.12L369,58c-3.92-.4-5.92-2.4-5.92-5.68,0-3.72,2.68-6.08,7.48-6.08a11.69,11.69,0,0,1,7.24,2.36.4.4,0,0,1,.08.56l-2,2.36a.39.39,0,0,1-.56.08,9.31,9.31,0,0,0-5-1.6c-1.92,0-2.92.84-2.92,2s.68,1.8,3.16,2l2.08.2c4,.4,6,2.48,6,5.64,0,3.84-2.8,6.52-8.08,6.52A12,12,0,0,1,362.27,63.4Z"/><path d="M403.07,73.19a.38.38,0,0,1-.4-.4V64.16h0c-.92,1.32-2.52,2.28-5.12,2.28-3.28,0-5.68-1.56-6.68-4.64a16.07,16.07,0,0,1-.68-5.44,16.07,16.07,0,0,1,.68-5.44c1-3.08,3.4-4.64,6.68-4.64,2.6,0,4.2,1,5.12,2.28h0V47.12a.38.38,0,0,1,.4-.4h3.68a.38.38,0,0,1,.4.4V72.79a.38.38,0,0,1-.4.4ZM402.27,60a11.37,11.37,0,0,0,.4-3.6,11.37,11.37,0,0,0-.4-3.6,3.82,3.82,0,0,0-7.16,0,11.37,11.37,0,0,0-.4,3.6,11.37,11.37,0,0,0,.4,3.6,3.82,3.82,0,0,0,7.16,0Z"/><path d="M424,66a.38.38,0,0,1-.4-.4V64.2h0a5.91,5.91,0,0,1-5,2.24c-4.12,0-6.64-3-6.64-7.16V47.12a.38.38,0,0,1,.4-.4H416a.38.38,0,0,1,.4.4V58.24c0,2.48,1.16,4.2,3.6,4.2,2.28,0,3.6-1.72,3.6-4.16V47.12a.38.38,0,0,1,.4-.4h3.68a.38.38,0,0,1,.4.4V65.6a.38.38,0,0,1-.4.4Z"/><path d="M432.79,61.08a15,15,0,0,1-.68-4.72,15.36,15.36,0,0,1,.64-4.76c1.08-3.36,4-5.32,7.88-5.32s6.84,2,7.92,5.32a17.27,17.27,0,0,1,.64,5.8.39.39,0,0,1-.44.4H436.87a.21.21,0,0,0-.24.24,4.48,4.48,0,0,0,4.6,4.4,5.81,5.81,0,0,0,4.52-1.84.41.41,0,0,1,.6-.08l2.36,2.08a.36.36,0,0,1,0,.56,10.16,10.16,0,0,1-7.92,3.28C436.75,66.44,433.87,64.44,432.79,61.08Zm11.64-8.52a4.12,4.12,0,0,0-7.56,0,4.89,4.89,0,0,0-.24,1.64.21.21,0,0,0,.24.24h7.56a.21.21,0,0,0,.24-.24A4.89,4.89,0,0,0,444.43,52.56Z"/><path d="M3.14,111.19a.38.38,0,0,1-.4-.4V85.12a.38.38,0,0,1,.4-.4H6.82a.38.38,0,0,1,.4.4v1.44h0c.92-1.32,2.52-2.28,5.12-2.28,3.28,0,5.68,1.56,6.68,4.64a16.07,16.07,0,0,1,.68,5.44,16.07,16.07,0,0,1-.68,5.44c-1,3.08-3.4,4.64-6.68,4.64-2.6,0-4.2-1-5.12-2.28h0v8.63a.38.38,0,0,1-.4.4ZM14.78,98a11.37,11.37,0,0,0,.4-3.6,11.37,11.37,0,0,0-.4-3.6,3.45,3.45,0,0,0-3.56-2.48,3.47,3.47,0,0,0-3.6,2.48,11.37,11.37,0,0,0-.4,3.6,11.37,11.37,0,0,0,.4,3.6,3.47,3.47,0,0,0,3.6,2.48A3.45,3.45,0,0,0,14.78,98Z"/><path d="M35.58,104a.38.38,0,0,1-.4-.4v-1.4h0a5.91,5.91,0,0,1-5,2.24c-4.12,0-6.64-3-6.64-7.16V85.12a.38.38,0,0,1,.4-.4h3.68a.38.38,0,0,1,.4.4V96.24c0,2.48,1.16,4.2,3.6,4.2,2.28,0,3.6-1.72,3.6-4.16V85.12a.38.38,0,0,1,.4-.4h3.68a.38.38,0,0,1,.4.4V103.6a.38.38,0,0,1-.4.4Z"/><path d="M44.34,99.08a15,15,0,0,1-.68-4.72,15.36,15.36,0,0,1,.64-4.76c1.08-3.36,4-5.32,7.88-5.32s6.84,2,7.92,5.32a17.27,17.27,0,0,1,.64,5.8.39.39,0,0,1-.44.4H48.42a.21.21,0,0,0-.24.24,4.48,4.48,0,0,0,4.6,4.4A5.81,5.81,0,0,0,57.3,98.6a.41.41,0,0,1,.6-.08l2.36,2.08a.36.36,0,0,1,0,.56,10.16,10.16,0,0,1-7.92,3.28C48.3,104.44,45.42,102.44,44.34,99.08ZM56,90.56a4.12,4.12,0,0,0-7.56,0,4.89,4.89,0,0,0-.24,1.64.21.21,0,0,0,.24.24H56a.21.21,0,0,0,.24-.24A4.89,4.89,0,0,0,56,90.56Z"/><path d="M76.62,104a.38.38,0,0,1-.4-.4v-1.44h0c-.92,1.32-2.52,2.28-5.12,2.28-3.28,0-5.68-1.56-6.68-4.64a16.07,16.07,0,0,1-.68-5.44,16.07,16.07,0,0,1,.68-5.44c1-3.08,3.4-4.64,6.68-4.64,2.6,0,4.2,1,5.12,2.28h0V77.2a.38.38,0,0,1,.4-.4H80.3a.38.38,0,0,1,.4.4v26.4a.38.38,0,0,1-.4.4Zm-.8-6a11.37,11.37,0,0,0,.4-3.6,11.37,11.37,0,0,0-.4-3.6,3.82,3.82,0,0,0-7.16,0,11.37,11.37,0,0,0-.4,3.6,11.37,11.37,0,0,0,.4,3.6,3.82,3.82,0,0,0,7.16,0Z"/><path d="M85.38,99.08a15,15,0,0,1-.68-4.72,15.36,15.36,0,0,1,.64-4.76c1.08-3.36,4-5.32,7.88-5.32s6.84,2,7.91,5.32a16.94,16.94,0,0,1,.65,5.8.39.39,0,0,1-.44.4H89.46a.21.21,0,0,0-.24.24,4.48,4.48,0,0,0,4.6,4.4,5.81,5.81,0,0,0,4.52-1.84.41.41,0,0,1,.6-.08l2.35,2.08a.35.35,0,0,1,0,.56,10.16,10.16,0,0,1-7.92,3.28C89.34,104.44,86.46,102.44,85.38,99.08ZM97,90.56a4.12,4.12,0,0,0-7.56,0,4.89,4.89,0,0,0-.24,1.64.21.21,0,0,0,.24.24H97a.21.21,0,0,0,.24-.24A4.89,4.89,0,0,0,97,90.56Z"/><path d="M118,104a.38.38,0,0,1-.4-.4V92.48c0-2.48-1.24-4.2-3.64-4.2s-3.68,1.72-3.68,4.2V103.6a.38.38,0,0,1-.4.4h-3.68a.38.38,0,0,1-.4-.4V85.12a.38.38,0,0,1,.4-.4h3.68a.38.38,0,0,1,.4.4v1.4h0a6,6,0,0,1,5.08-2.24c4.12,0,6.67,3,6.67,7.16V103.6a.38.38,0,0,1-.39.4Z"/><path d="M134.38,101.4a.39.39,0,0,1,0-.56l2.28-2.4a.39.39,0,0,1,.56,0,8.92,8.92,0,0,0,5.64,2.2c2.35,0,3.56-1,3.56-2.28,0-1.16-.68-1.88-3.2-2.12l-2.08-.2c-3.92-.4-5.92-2.4-5.92-5.68,0-3.72,2.68-6.08,7.48-6.08a11.66,11.66,0,0,1,7.23,2.36.4.4,0,0,1,.08.56l-2,2.36a.38.38,0,0,1-.55.08,9.34,9.34,0,0,0-5-1.6c-1.92,0-2.92.84-2.92,2s.68,1.8,3.16,2l2.08.2c4,.4,5.95,2.48,5.95,5.64,0,3.84-2.79,6.52-8.07,6.52A12,12,0,0,1,134.38,101.4Z"/><path d="M154.3,99.08a15,15,0,0,1-.68-4.72,15.36,15.36,0,0,1,.64-4.76c1.08-3.36,4-5.32,7.88-5.32s6.83,2,7.91,5.32a17.27,17.27,0,0,1,.64,5.8.39.39,0,0,1-.44.4H158.38a.21.21,0,0,0-.24.24,4.48,4.48,0,0,0,4.6,4.4,5.8,5.8,0,0,0,4.51-1.84c.21-.2.4-.24.6-.08l2.36,2.08a.36.36,0,0,1,0,.56,10.15,10.15,0,0,1-7.91,3.28C158.26,104.44,155.38,102.44,154.3,99.08Zm11.64-8.52a4.12,4.12,0,0,0-7.56,0,4.89,4.89,0,0,0-.24,1.64.21.21,0,0,0,.24.24h7.56a.21.21,0,0,0,.23-.24A5.18,5.18,0,0,0,165.94,90.56Z"/><path d="M175.1,104a.38.38,0,0,1-.4-.4V85.12a.38.38,0,0,1,.4-.4h3.68a.38.38,0,0,1,.4.4v1.64h0a5.51,5.51,0,0,1,5-2.48,5.82,5.82,0,0,1,4,1.6c.2.2.24.36.08.56l-2.12,2.68a.36.36,0,0,1-.56.08,5.16,5.16,0,0,0-2.84-.92c-2.52,0-3.63,1.8-3.63,4.88V103.6a.38.38,0,0,1-.4.4Z"/><path d="M199.86,111.19a.38.38,0,0,1-.4-.4V85.12a.38.38,0,0,1,.4-.4h3.68a.38.38,0,0,1,.4.4v1.44h0c.92-1.32,2.52-2.28,5.12-2.28,3.28,0,5.68,1.56,6.68,4.64a16.07,16.07,0,0,1,.68,5.44,16.07,16.07,0,0,1-.68,5.44c-1,3.08-3.4,4.64-6.68,4.64-2.6,0-4.2-1-5.12-2.28h0v8.63a.38.38,0,0,1-.4.4ZM211.49,98a11.37,11.37,0,0,0,.4-3.6,11.37,11.37,0,0,0-.4-3.6,3.82,3.82,0,0,0-7.16,0,11.43,11.43,0,0,0-.39,3.6,11.43,11.43,0,0,0,.39,3.6,3.82,3.82,0,0,0,7.16,0Z"/><path d="M220.86,104a.38.38,0,0,1-.4-.4V85.12a.38.38,0,0,1,.4-.4h3.68a.38.38,0,0,1,.39.4v1.64h0a5.52,5.52,0,0,1,5-2.48,5.82,5.82,0,0,1,4,1.6c.2.2.24.36.08.56L232,89.12a.36.36,0,0,1-.56.08,5.21,5.21,0,0,0-2.84-.92c-2.52,0-3.64,1.8-3.64,4.88V103.6a.38.38,0,0,1-.39.4Z"/><path d="M235.78,99.12a14,14,0,0,1-.65-4.76,14,14,0,0,1,.65-4.76c1.08-3.36,4-5.32,7.95-5.32s6.84,2,7.92,5.32a14.24,14.24,0,0,1,.64,4.76,14.24,14.24,0,0,1-.64,4.76c-1.08,3.36-4,5.32-7.92,5.32S236.86,102.48,235.78,99.12Zm11.55-1.2a10.89,10.89,0,0,0,.4-3.56,11,11,0,0,0-.4-3.56,3.56,3.56,0,0,0-3.6-2.52,3.61,3.61,0,0,0-3.64,2.52,11,11,0,0,0-.4,3.56,10.89,10.89,0,0,0,.4,3.56,3.61,3.61,0,0,0,3.64,2.52A3.56,3.56,0,0,0,247.33,97.92Z"/><path d="M268.17,104a.38.38,0,0,1-.4-.4v-1.44h0c-.92,1.32-2.52,2.28-5.12,2.28-3.28,0-5.68-1.56-6.68-4.64a16.33,16.33,0,0,1-.68-5.44,16.33,16.33,0,0,1,.68-5.44c1-3.08,3.4-4.64,6.68-4.64,2.6,0,4.2,1,5.12,2.28h0V77.2a.38.38,0,0,1,.4-.4h3.68a.38.38,0,0,1,.4.4v26.4a.38.38,0,0,1-.4.4Zm-.8-6a11.37,11.37,0,0,0,.4-3.6,11.37,11.37,0,0,0-.4-3.6,3.82,3.82,0,0,0-7.16,0,11.37,11.37,0,0,0-.4,3.6,11.37,11.37,0,0,0,.4,3.6,3.82,3.82,0,0,0,7.16,0Z"/><path d="M289.13,104a.38.38,0,0,1-.4-.4v-1.4h0a5.91,5.91,0,0,1-5,2.24c-4.12,0-6.64-3-6.64-7.16V85.12a.38.38,0,0,1,.41-.4h3.67a.38.38,0,0,1,.4.4V96.24c0,2.48,1.16,4.2,3.6,4.2,2.28,0,3.6-1.72,3.6-4.16V85.12a.38.38,0,0,1,.4-.4h3.68a.38.38,0,0,1,.4.4V103.6a.38.38,0,0,1-.4.4Z"/><path d="M297.81,99.12a15.15,15.15,0,0,1-.6-4.76,15.15,15.15,0,0,1,.6-4.76c1.12-3.44,4.08-5.32,8-5.32a8.4,8.4,0,0,1,6.68,3,.39.39,0,0,1,0,.56L309.89,90a.36.36,0,0,1-.56-.08,4.37,4.37,0,0,0-3.56-1.68,3.54,3.54,0,0,0-3.6,2.52,11.33,11.33,0,0,0-.4,3.56,11.6,11.6,0,0,0,.4,3.6,3.55,3.55,0,0,0,3.6,2.48,4.37,4.37,0,0,0,3.56-1.68.36.36,0,0,1,.56,0l2.52,2.2c.2.16.16.36,0,.56a8.49,8.49,0,0,1-6.68,3C301.89,104.44,298.93,102.56,297.81,99.12Z"/><path d="M316.85,81.08a.38.38,0,0,1-.4-.4V77.2a.38.38,0,0,1,.4-.4h3.68a.38.38,0,0,1,.4.4v3.48a.38.38,0,0,1-.4.4Zm0,22.92a.38.38,0,0,1-.4-.4V85.12a.38.38,0,0,1,.4-.4h3.68a.38.38,0,0,1,.4.4V103.6a.38.38,0,0,1-.4.4Z"/><path d="M337.85,104a.38.38,0,0,1-.4-.4v-1.44h0c-.92,1.32-2.52,2.28-5.12,2.28-3.28,0-5.68-1.56-6.68-4.64a16.07,16.07,0,0,1-.68-5.44,16.07,16.07,0,0,1,.68-5.44c1-3.08,3.4-4.64,6.68-4.64,2.6,0,4.2,1,5.12,2.28h0V77.2a.38.38,0,0,1,.4-.4h3.68a.38.38,0,0,1,.4.4v26.4a.38.38,0,0,1-.4.4Zm-.8-6a11.37,11.37,0,0,0,.4-3.6,11.37,11.37,0,0,0-.4-3.6,3.82,3.82,0,0,0-7.16,0,11.37,11.37,0,0,0-.4,3.6,11.37,11.37,0,0,0,.4,3.6,3.82,3.82,0,0,0,7.16,0Z"/><path d="M346.57,99.12a14.24,14.24,0,0,1-.64-4.76,14.24,14.24,0,0,1,.64-4.76c1.08-3.36,4-5.32,8-5.32s6.84,2,7.92,5.32a14.24,14.24,0,0,1,.64,4.76,14.24,14.24,0,0,1-.64,4.76c-1.08,3.36-4,5.32-7.92,5.32S347.65,102.48,346.57,99.12Zm11.56-1.2a10.89,10.89,0,0,0,.4-3.56,11,11,0,0,0-.4-3.56,3.56,3.56,0,0,0-3.6-2.52,3.61,3.61,0,0,0-3.64,2.52,11,11,0,0,0-.4,3.56,10.89,10.89,0,0,0,.4,3.56,3.61,3.61,0,0,0,3.64,2.52A3.56,3.56,0,0,0,358.13,97.92Z"/><path d="M365.93,101.4a.39.39,0,0,1,0-.56l2.28-2.4a.39.39,0,0,1,.56,0,8.92,8.92,0,0,0,5.64,2.2c2.36,0,3.56-1,3.56-2.28,0-1.16-.68-1.88-3.2-2.12l-2.08-.2c-3.92-.4-5.92-2.4-5.92-5.68,0-3.72,2.68-6.08,7.48-6.08a11.69,11.69,0,0,1,7.24,2.36.4.4,0,0,1,.08.56l-2,2.36a.39.39,0,0,1-.56.08,9.31,9.31,0,0,0-5-1.6c-1.92,0-2.92.84-2.92,2s.68,1.8,3.16,2l2.08.2c4,.4,6,2.48,6,5.64,0,3.84-2.8,6.52-8.08,6.52A12,12,0,0,1,365.93,101.4Z"/><path d="M395.25,111.19a.38.38,0,0,1-.4-.4V85.12a.38.38,0,0,1,.4-.4h3.68a.38.38,0,0,1,.4.4v1.44h0c.92-1.32,2.52-2.28,5.12-2.28,3.28,0,5.68,1.56,6.68,4.64a16.07,16.07,0,0,1,.68,5.44,16.07,16.07,0,0,1-.68,5.44c-1,3.08-3.4,4.64-6.68,4.64-2.6,0-4.2-1-5.12-2.28h0v8.63a.38.38,0,0,1-.4.4ZM406.89,98a11.37,11.37,0,0,0,.4-3.6,11.37,11.37,0,0,0-.4-3.6,3.82,3.82,0,0,0-7.16,0,11.37,11.37,0,0,0-.4,3.6,11.37,11.37,0,0,0,.4,3.6,3.82,3.82,0,0,0,7.16,0Z"/><path d="M415.45,99.12a14.24,14.24,0,0,1-.64-4.76,14.24,14.24,0,0,1,.64-4.76c1.08-3.36,4-5.32,8-5.32s6.84,2,7.92,5.32a14.24,14.24,0,0,1,.64,4.76,14.24,14.24,0,0,1-.64,4.76c-1.08,3.36-4,5.32-7.92,5.32S416.53,102.48,415.45,99.12ZM427,97.92a10.89,10.89,0,0,0,.4-3.56,11,11,0,0,0-.4-3.56,3.56,3.56,0,0,0-3.6-2.52,3.61,3.61,0,0,0-3.64,2.52,11,11,0,0,0-.4,3.56,10.89,10.89,0,0,0,.4,3.56,3.61,3.61,0,0,0,3.64,2.52A3.56,3.56,0,0,0,427,97.92Z"/><path d="M436.37,104a.38.38,0,0,1-.4-.4V85.12a.38.38,0,0,1,.4-.4h3.68a.38.38,0,0,1,.4.4v1.64h0a5.52,5.52,0,0,1,5-2.48,5.82,5.82,0,0,1,4,1.6c.2.2.24.36.08.56l-2.12,2.68a.36.36,0,0,1-.56.08,5.21,5.21,0,0,0-2.84-.92c-2.52,0-3.64,1.8-3.64,4.88V103.6a.38.38,0,0,1-.4.4Z"/><path d="M57,137.08a15,15,0,0,1-.68-4.72,15.36,15.36,0,0,1,.64-4.76c1.08-3.36,4-5.32,7.88-5.32s6.84,2,7.92,5.32a17.27,17.27,0,0,1,.64,5.8.39.39,0,0,1-.44.4H61.06a.21.21,0,0,0-.24.24,4.48,4.48,0,0,0,4.6,4.4,5.81,5.81,0,0,0,4.52-1.84.41.41,0,0,1,.6-.08l2.36,2.08a.36.36,0,0,1,0,.56A10.18,10.18,0,0,1,65,142.44C60.94,142.44,58.06,140.44,57,137.08Zm11.64-8.52a4.12,4.12,0,0,0-7.56,0,4.89,4.89,0,0,0-.24,1.64.21.21,0,0,0,.24.24h7.56a.21.21,0,0,0,.24-.24A4.89,4.89,0,0,0,68.62,128.56Z"/><path d="M82.58,142.23c-3.76,0-5.28-1.79-5.28-5.51V115.2a.38.38,0,0,1,.4-.4h3.68a.38.38,0,0,1,.4.4v21.28c0,1.32.52,1.76,1.68,1.76h.88a.38.38,0,0,1,.4.4v3.19a.37.37,0,0,1-.4.4Z"/><path d="M87.86,137.08a15,15,0,0,1-.68-4.72,15.36,15.36,0,0,1,.64-4.76c1.08-3.36,4-5.32,7.88-5.32s6.84,2,7.91,5.32a17.27,17.27,0,0,1,.64,5.8.39.39,0,0,1-.44.4H91.94a.21.21,0,0,0-.24.24,4.48,4.48,0,0,0,4.59,4.4,5.78,5.78,0,0,0,4.52-1.84.41.41,0,0,1,.6-.08l2.36,2.08a.36.36,0,0,1,0,.56,10.14,10.14,0,0,1-7.91,3.28C91.82,142.44,88.94,140.44,87.86,137.08Zm11.64-8.52a4.12,4.12,0,0,0-7.56,0,4.89,4.89,0,0,0-.24,1.64.21.21,0,0,0,.24.24H99.5a.21.21,0,0,0,.23-.24A5.18,5.18,0,0,0,99.5,128.56Z"/><path d="M132.25,142a.38.38,0,0,1-.4-.4V130.48c0-2.48-1.24-4.2-3.64-4.2s-3.68,1.72-3.68,4.2V141.6a.38.38,0,0,1-.4.4h-3.67a.39.39,0,0,1-.41-.4V130.48c0-2.48-1.24-4.2-3.63-4.2s-3.68,1.72-3.68,4.2V141.6a.38.38,0,0,1-.4.4h-3.68a.38.38,0,0,1-.4-.4V123.12a.38.38,0,0,1,.4-.4h3.68a.38.38,0,0,1,.4.4v1.4h0a6,6,0,0,1,5.08-2.24,6.2,6.2,0,0,1,5.27,2.56h0a7.88,7.88,0,0,1,6.16-2.56c4.48,0,7,3,7,7.16V141.6a.38.38,0,0,1-.4.4Z"/><path d="M140.82,137.08a15,15,0,0,1-.68-4.72,15.36,15.36,0,0,1,.64-4.76c1.08-3.36,4-5.32,7.88-5.32s6.83,2,7.91,5.32a17.27,17.27,0,0,1,.64,5.8.39.39,0,0,1-.44.4H144.9a.21.21,0,0,0-.24.24,4.48,4.48,0,0,0,4.59,4.4,5.81,5.81,0,0,0,4.52-1.84.41.41,0,0,1,.6-.08l2.36,2.08a.36.36,0,0,1,0,.56,10.15,10.15,0,0,1-7.91,3.28C144.78,142.44,141.9,140.44,140.82,137.08Zm11.64-8.52a4.12,4.12,0,0,0-7.56,0,4.89,4.89,0,0,0-.24,1.64.21.21,0,0,0,.24.24h7.56a.21.21,0,0,0,.23-.24A5.18,5.18,0,0,0,152.46,128.56Z"/><path d="M173.41,142a.38.38,0,0,1-.4-.4V130.48c0-2.48-1.24-4.2-3.63-4.2s-3.68,1.72-3.68,4.2V141.6a.38.38,0,0,1-.4.4h-3.68a.38.38,0,0,1-.4-.4V123.12a.38.38,0,0,1,.4-.4h3.68a.38.38,0,0,1,.4.4v1.4h0a6,6,0,0,1,5.07-2.24c4.12,0,6.68,3,6.68,7.16V141.6a.38.38,0,0,1-.4.4Z"/><path d="M188,142.23c-3.87,0-5.35-1.87-5.35-5.63V126.44a.21.21,0,0,0-.24-.24H181.1a.38.38,0,0,1-.4-.4v-2.68a.38.38,0,0,1,.4-.4h1.28a.21.21,0,0,0,.24-.24V117.2a.38.38,0,0,1,.4-.4h3.68a.38.38,0,0,1,.4.4v5.28a.21.21,0,0,0,.23.24h2.56a.38.38,0,0,1,.4.4v2.68a.38.38,0,0,1-.4.4h-2.56a.21.21,0,0,0-.23.24v10c0,1.36.56,1.8,1.79,1.8h1a.38.38,0,0,1,.4.4v3.19a.37.37,0,0,1-.4.4Z"/><path d="M194,137.12a18,18,0,0,1,0-9.52c1.08-3.36,4-5.32,8-5.32s6.84,2,7.92,5.32a18,18,0,0,1,0,9.52c-1.08,3.36-4,5.32-7.92,5.32S195.06,140.48,194,137.12Zm11.55-1.2a10.89,10.89,0,0,0,.4-3.56,11,11,0,0,0-.4-3.56,3.56,3.56,0,0,0-3.6-2.52,3.62,3.62,0,0,0-3.64,2.52,11,11,0,0,0-.4,3.56,10.89,10.89,0,0,0,.4,3.56,3.62,3.62,0,0,0,3.64,2.52A3.56,3.56,0,0,0,205.53,135.92Z"/><path d="M213.34,139.4a.39.39,0,0,1,0-.56l2.28-2.4a.39.39,0,0,1,.56,0,8.9,8.9,0,0,0,5.63,2.2c2.36,0,3.56-1,3.56-2.28,0-1.16-.68-1.88-3.2-2.12l-2.08-.2c-3.91-.4-5.91-2.4-5.91-5.68,0-3.72,2.68-6.08,7.47-6.08a11.69,11.69,0,0,1,7.24,2.36.4.4,0,0,1,.08.56l-2,2.36a.39.39,0,0,1-.56.08,9.31,9.31,0,0,0-5-1.6c-1.92,0-2.91.84-2.91,2s.67,1.8,3.15,2l2.08.2c4,.4,6,2.48,6,5.64,0,3.84-2.8,6.52-8.08,6.52A12,12,0,0,1,213.34,139.4Z"/><path d="M241.89,137.08a15,15,0,0,1-.68-4.72,15.67,15.67,0,0,1,.64-4.76c1.08-3.36,4-5.32,7.88-5.32s6.84,2,7.92,5.32a17.27,17.27,0,0,1,.64,5.8.39.39,0,0,1-.44.4H246a.21.21,0,0,0-.24.24,4.48,4.48,0,0,0,4.6,4.4,5.81,5.81,0,0,0,4.52-1.84.41.41,0,0,1,.6-.08l2.36,2.08a.36.36,0,0,1,0,.56,10.16,10.16,0,0,1-7.92,3.28C245.85,142.44,243,140.44,241.89,137.08Zm11.64-8.52a4.12,4.12,0,0,0-7.56,0,4.89,4.89,0,0,0-.24,1.64.21.21,0,0,0,.24.24h7.56a.21.21,0,0,0,.24-.24A4.89,4.89,0,0,0,253.53,128.56Z"/><path d="M273.69,142a.73.73,0,0,1-.64-.4l-4-5.88h0l-4,5.88a.74.74,0,0,1-.68.4h-3.95c-.36,0-.44-.21-.33-.4l6.52-9.6-6-8.88c-.12-.2,0-.4.32-.4h4a.71.71,0,0,1,.68.4l3.48,5.2h0l3.52-5.2a.73.73,0,0,1,.64-.4h4c.36,0,.44.2.32.4l-6,8.88,6.52,9.6c.12.19,0,.4-.32.4Z"/><path d="M286.69,142.23c-3.88,0-5.36-1.87-5.36-5.63V126.44a.21.21,0,0,0-.24-.24h-1.28a.38.38,0,0,1-.4-.4v-2.68a.38.38,0,0,1,.4-.4h1.28a.21.21,0,0,0,.24-.24V117.2a.38.38,0,0,1,.4-.4h3.68a.38.38,0,0,1,.4.4v5.28a.21.21,0,0,0,.24.24h2.56a.38.38,0,0,1,.4.4v2.68a.38.38,0,0,1-.4.4h-2.56a.21.21,0,0,0-.24.24v10c0,1.36.56,1.8,1.8,1.8h1a.38.38,0,0,1,.4.4v3.19a.37.37,0,0,1-.4.4Z"/><path d="M293.49,142a.38.38,0,0,1-.4-.4V123.12a.38.38,0,0,1,.4-.4h3.68a.38.38,0,0,1,.4.4v1.64h0a5.52,5.52,0,0,1,5-2.48,5.82,5.82,0,0,1,4,1.6c.2.2.24.36.08.56l-2.12,2.68a.36.36,0,0,1-.56.08,5.21,5.21,0,0,0-2.84-.92c-2.52,0-3.64,1.8-3.64,4.88V141.6a.38.38,0,0,1-.4.4Z"/><path d="M320,142a.38.38,0,0,1-.4-.4v-1.4h0c-.92,1.32-2.72,2.24-5.44,2.24-3.52,0-6.48-1.84-6.48-5.88,0-4.2,3-6.12,7.72-6.12h3.92a.21.21,0,0,0,.24-.24v-.92c0-2.2-1-3.2-4.28-3.2a6.76,6.76,0,0,0-4.4,1.32.36.36,0,0,1-.56-.08l-1.48-2.64a.37.37,0,0,1,.08-.52,11.25,11.25,0,0,1,6.84-1.88c5.88,0,8,2,8,6.72v12.6a.38.38,0,0,1-.4.4Zm-.48-6.48V134a.21.21,0,0,0-.24-.24h-3.2c-2.88,0-4.16.8-4.16,2.6,0,1.6,1.16,2.4,3.32,2.4C318,138.8,319.49,137.72,319.49,135.52Z"/><path d="M340.81,142a.38.38,0,0,1-.4-.4V130.48c0-2.48-1.24-4.2-3.64-4.2s-3.68,1.72-3.68,4.2V141.6a.38.38,0,0,1-.4.4H329a.38.38,0,0,1-.4-.4V123.12a.38.38,0,0,1,.4-.4h3.68a.38.38,0,0,1,.4.4v1.4h0a6,6,0,0,1,5.08-2.24c4.12,0,6.68,3,6.68,7.16V141.6a.38.38,0,0,1-.4.4Zm-4.52-23.24a4.48,4.48,0,0,0-2.24-.72,4,4,0,0,0-2.68,1.24c-.2.16-.36.08-.36-.08v-2.44a1,1,0,0,1,.32-.76,4,4,0,0,1,2.88-1.36,5.37,5.37,0,0,1,2.68.8,4.49,4.49,0,0,0,2.28.72,4,4,0,0,0,2.64-1.24c.2-.16.36-.08.36.08v2.44a1,1,0,0,1-.32.76,4,4,0,0,1-2.88,1.36A5.37,5.37,0,0,1,336.29,118.76Z"/><path d="M349.33,137.12a18,18,0,0,1,0-9.52c1.08-3.36,4-5.32,8-5.32s6.84,2,7.92,5.32a18,18,0,0,1,0,9.52c-1.08,3.36-4,5.32-7.92,5.32S350.41,140.48,349.33,137.12Zm11.56-1.2a10.89,10.89,0,0,0,.4-3.56,11,11,0,0,0-.4-3.56,3.56,3.56,0,0,0-3.6-2.52,3.61,3.61,0,0,0-3.64,2.52,11,11,0,0,0-.4,3.56,10.89,10.89,0,0,0,.4,3.56,3.61,3.61,0,0,0,3.64,2.52A3.56,3.56,0,0,0,360.89,135.92Z"/><path d="M368.69,139.4a.39.39,0,0,1,0-.56l2.28-2.4a.39.39,0,0,1,.56,0,8.92,8.92,0,0,0,5.64,2.2c2.36,0,3.56-1,3.56-2.28,0-1.16-.68-1.88-3.2-2.12l-2.08-.2c-3.92-.4-5.92-2.4-5.92-5.68,0-3.72,2.68-6.08,7.48-6.08a11.69,11.69,0,0,1,7.24,2.36.4.4,0,0,1,.08.56l-2,2.36a.39.39,0,0,1-.56.08,9.31,9.31,0,0,0-5-1.6c-1.92,0-2.92.84-2.92,2s.68,1.8,3.16,2l2.08.2c4,.4,6,2.48,6,5.64,0,3.84-2.8,6.52-8.08,6.52A12,12,0,0,1,368.69,139.4Z"/><path d="M388.69,137.52a.38.38,0,0,1,.4-.4h4a.38.38,0,0,1,.4.4v4.08a.38.38,0,0,1-.4.4h-4a.38.38,0,0,1-.4-.4Z"/></g></g></svg>