<svg xmlns="http://www.w3.org/2000/svg" viewBox="0 0 390.43 148.83"><title>p1</title><g id="Capa_2" data-name="Capa 2"><g id="fondo"><path d="M0,14C0,9.72.16,8.36.72,6.68,2.12,2.24,5.56,0,10.16,0a9.56,9.56,0,0,1,9.2,5.84.35.35,0,0,1-.2.48L15.76,8a.36.36,0,0,1-.52-.2,5.37,5.37,0,0,0-5.08-3.52,4.82,4.82,0,0,0-4.88,3.6C4.92,9,4.8,10,4.8,14s.12,5.08.48,6.2a4.82,4.82,0,0,0,4.88,3.6,5.37,5.37,0,0,0,5.08-3.52.36.36,0,0,1,.52-.2l3.4,1.64a.35.35,0,0,1,.2.48,9.56,9.56,0,0,1-9.2,5.84c-4.6,0-8-2.24-9.44-6.68C.16,19.72,0,18.36,0,14Z"/><path d="M22.52,22.76A14.24,14.24,0,0,1,21.88,18a14.24,14.24,0,0,1,.64-4.76c1.08-3.36,4-5.32,8-5.32s6.84,2,7.92,5.32A14.24,14.24,0,0,1,39,18a14.24,14.24,0,0,1-.64,4.76c-1.08,3.36-4,5.32-7.92,5.32S23.6,26.12,22.52,22.76Zm11.56-1.2a10.89,10.89,0,0,0,.4-3.56,11,11,0,0,0-.4-3.56,3.56,3.56,0,0,0-3.6-2.52,3.61,3.61,0,0,0-3.64,2.52,11,11,0,0,0-.4,3.56,10.89,10.89,0,0,0,.4,3.56,3.61,3.61,0,0,0,3.64,2.52A3.56,3.56,0,0,0,34.08,21.56Z"/><path d="M55.24,27.64a.38.38,0,0,1-.4-.4V16.12c0-2.48-1.24-4.2-3.64-4.2s-3.68,1.72-3.68,4.2V27.24a.38.38,0,0,1-.4.4H43.44a.38.38,0,0,1-.4-.4V8.76a.38.38,0,0,1,.4-.4h3.68a.38.38,0,0,1,.4.4v1.4h0a6,6,0,0,1,5.08-2.24c4.12,0,6.68,3,6.68,7.16V27.24a.38.38,0,0,1-.4.4Z"/><path d="M69.8,27.88c-3.88,0-5.36-1.88-5.36-5.64V12.08a.21.21,0,0,0-.24-.24H62.92a.38.38,0,0,1-.4-.4V8.76a.38.38,0,0,1,.4-.4H64.2a.21.21,0,0,0,.24-.24V2.84a.38.38,0,0,1,.4-.4h3.68a.38.38,0,0,1,.4.4V8.12a.21.21,0,0,0,.24.24h2.56a.38.38,0,0,1,.4.4v2.68a.38.38,0,0,1-.4.4H69.16a.21.21,0,0,0-.24.24v10c0,1.36.56,1.8,1.8,1.8h1a.38.38,0,0,1,.4.4v3.2a.38.38,0,0,1-.4.4Z"/><path d="M87.68,27.64a.38.38,0,0,1-.4-.4v-1.4h0c-.92,1.32-2.72,2.24-5.44,2.24-3.52,0-6.48-1.84-6.48-5.88,0-4.2,3-6.12,7.72-6.12H87a.21.21,0,0,0,.24-.24v-.92c0-2.2-1-3.2-4.28-3.2A6.76,6.76,0,0,0,78.52,13,.36.36,0,0,1,78,13l-1.48-2.64a.37.37,0,0,1,.08-.52A11.25,11.25,0,0,1,83.4,7.92c5.88,0,8,2,8,6.72v12.6a.38.38,0,0,1-.4.4Zm-.48-6.48V19.68a.21.21,0,0,0-.24-.24h-3.2c-2.88,0-4.16.8-4.16,2.6,0,1.6,1.16,2.4,3.32,2.4C85.68,24.44,87.2,23.36,87.2,21.16Z"/><path d="M95.88,22.76a15.15,15.15,0,0,1-.6-4.76,15.15,15.15,0,0,1,.6-4.76c1.12-3.44,4.08-5.32,8-5.32a8.4,8.4,0,0,1,6.68,3,.39.39,0,0,1,0,.56L108,13.68a.36.36,0,0,1-.56-.08,4.37,4.37,0,0,0-3.56-1.68,3.54,3.54,0,0,0-3.6,2.52,11.33,11.33,0,0,0-.4,3.56,11.6,11.6,0,0,0,.4,3.6,3.55,3.55,0,0,0,3.6,2.48,4.37,4.37,0,0,0,3.56-1.68.36.36,0,0,1,.56,0l2.52,2.2c.2.16.16.36,0,.56a8.49,8.49,0,0,1-6.68,3C100,28.08,97,26.2,95.88,22.76Z"/><path d="M120.16,27.88c-3.88,0-5.36-1.88-5.36-5.64V12.08a.21.21,0,0,0-.24-.24h-1.28a.38.38,0,0,1-.4-.4V8.76a.38.38,0,0,1,.4-.4h1.28a.21.21,0,0,0,.24-.24V2.84a.38.38,0,0,1,.4-.4h3.68a.38.38,0,0,1,.4.4V8.12a.21.21,0,0,0,.24.24h2.56a.38.38,0,0,1,.4.4v2.68a.38.38,0,0,1-.4.4h-2.56a.21.21,0,0,0-.24.24v10c0,1.36.56,1.8,1.8,1.8h1a.38.38,0,0,1,.4.4v3.2a.38.38,0,0,1-.4.4Z"/><path d="M126.16,22.76a14.24,14.24,0,0,1-.64-4.76,14.24,14.24,0,0,1,.64-4.76c1.08-3.36,4-5.32,8-5.32s6.84,2,7.92,5.32a14.24,14.24,0,0,1,.64,4.76,14.24,14.24,0,0,1-.64,4.76c-1.08,3.36-4,5.32-7.92,5.32S127.24,26.12,126.16,22.76Zm11.56-1.2a10.89,10.89,0,0,0,.4-3.56,11,11,0,0,0-.4-3.56,3.56,3.56,0,0,0-3.6-2.52,3.61,3.61,0,0,0-3.64,2.52,11,11,0,0,0-.4,3.56,10.89,10.89,0,0,0,.4,3.56,3.61,3.61,0,0,0,3.64,2.52A3.56,3.56,0,0,0,137.72,21.56Z"/><path d="M154.88,22.76a15.15,15.15,0,0,1-.6-4.76,15.15,15.15,0,0,1,.6-4.76c1.12-3.44,4.08-5.32,8-5.32a8.4,8.4,0,0,1,6.68,3,.39.39,0,0,1,0,.56L167,13.68a.36.36,0,0,1-.56-.08,4.37,4.37,0,0,0-3.56-1.68,3.54,3.54,0,0,0-3.6,2.52,11.33,11.33,0,0,0-.4,3.56,11.6,11.6,0,0,0,.4,3.6,3.55,3.55,0,0,0,3.6,2.48,4.37,4.37,0,0,0,3.56-1.68.36.36,0,0,1,.56,0l2.52,2.2c.2.16.16.36,0,.56a8.49,8.49,0,0,1-6.68,3C159,28.08,156,26.2,154.88,22.76Z"/><path d="M173.12,22.76a14.24,14.24,0,0,1-.64-4.76,14.24,14.24,0,0,1,.64-4.76c1.08-3.36,4-5.32,8-5.32s6.83,2,7.91,5.32a14.24,14.24,0,0,1,.64,4.76,14.24,14.24,0,0,1-.64,4.76c-1.08,3.36-4,5.32-7.91,5.32S174.2,26.12,173.12,22.76Zm11.56-1.2a10.89,10.89,0,0,0,.4-3.56,11,11,0,0,0-.4-3.56,3.56,3.56,0,0,0-3.6-2.52,3.61,3.61,0,0,0-3.64,2.52A11,11,0,0,0,177,18a10.89,10.89,0,0,0,.4,3.56,3.61,3.61,0,0,0,3.64,2.52A3.56,3.56,0,0,0,184.68,21.56Z"/><path d="M205.84,27.64a.38.38,0,0,1-.4-.4V16.12c0-2.48-1.24-4.2-3.64-4.2s-3.68,1.72-3.68,4.2V27.24a.38.38,0,0,1-.4.4H194a.38.38,0,0,1-.4-.4V8.76a.38.38,0,0,1,.4-.4h3.68a.38.38,0,0,1,.4.4v1.4h0a6,6,0,0,1,5.08-2.24c4.11,0,6.67,3,6.67,7.16V27.24a.38.38,0,0,1-.4.4Z"/><path d="M235.27,27.64a.38.38,0,0,1-.4-.4V25.8h0c-.92,1.32-2.52,2.28-5.12,2.28A6.47,6.47,0,0,1,223,23.44a16.07,16.07,0,0,1-.68-5.44,16.07,16.07,0,0,1,.68-5.44,6.47,6.47,0,0,1,6.67-4.64c2.6,0,4.2,1,5.12,2.28h0V.84a.38.38,0,0,1,.4-.4H239a.38.38,0,0,1,.4.4v26.4a.38.38,0,0,1-.4.4Zm-.8-6a11.37,11.37,0,0,0,.4-3.6,11.37,11.37,0,0,0-.4-3.6,3.82,3.82,0,0,0-7.15,0,11.37,11.37,0,0,0-.4,3.6,11.37,11.37,0,0,0,.4,3.6,3.82,3.82,0,0,0,7.15,0Z"/><path d="M244.8,4.72a.38.38,0,0,1-.4-.4V.84a.38.38,0,0,1,.4-.4h3.68a.38.38,0,0,1,.4.4V4.32a.38.38,0,0,1-.4.4Zm0,22.92a.38.38,0,0,1-.4-.4V8.76a.38.38,0,0,1,.4-.4h3.68a.38.38,0,0,1,.4.4V27.24a.38.38,0,0,1-.4.4Z"/><path d="M254.92,27.64a.38.38,0,0,1-.4-.4V12.08a.21.21,0,0,0-.24-.24H253a.38.38,0,0,1-.4-.4V8.76a.38.38,0,0,1,.4-.4h1.28a.21.21,0,0,0,.24-.24V6.88c0-4.48,2.2-6.44,6.39-6.44h1.76a.38.38,0,0,1,.4.4V4a.38.38,0,0,1-.4.4h-1.24c-2,0-2.44.48-2.44,2.36V8.12a.21.21,0,0,0,.24.24h3.44a.38.38,0,0,1,.4.4v2.68a.38.38,0,0,1-.4.4h-3.44a.21.21,0,0,0-.24.24V27.24a.38.38,0,0,1-.4.4Z"/><path d="M265.88,22.72A15,15,0,0,1,265.2,18a15.36,15.36,0,0,1,.64-4.76c1.08-3.36,4-5.32,7.87-5.32s6.84,2,7.92,5.32a17.27,17.27,0,0,1,.64,5.8.39.39,0,0,1-.44.4H270a.21.21,0,0,0-.24.24,4.24,4.24,0,0,0,.28,1.48,4.21,4.21,0,0,0,4.32,2.92,5.81,5.81,0,0,0,4.52-1.84.41.41,0,0,1,.6-.08l2.36,2.08a.36.36,0,0,1,0,.56,10.16,10.16,0,0,1-7.92,3.28C269.83,28.08,267,26.08,265.88,22.72Zm11.63-8.52a4.12,4.12,0,0,0-7.56,0,4.89,4.89,0,0,0-.24,1.64.21.21,0,0,0,.24.24h7.56a.21.21,0,0,0,.24-.24A4.89,4.89,0,0,0,277.51,14.2Z"/><path d="M286.67,27.64a.38.38,0,0,1-.4-.4V8.76a.38.38,0,0,1,.4-.4h3.68a.38.38,0,0,1,.4.4V10.4h0a5.52,5.52,0,0,1,5-2.48,5.82,5.82,0,0,1,4,1.6c.2.2.24.36.08.56l-2.12,2.68a.36.36,0,0,1-.56.08,5.21,5.21,0,0,0-2.84-.92c-2.52,0-3.64,1.8-3.64,4.88V27.24a.38.38,0,0,1-.4.4Z"/><path d="M301.63,22.72A15,15,0,0,1,301,18a15.4,15.4,0,0,1,.63-4.76c1.08-3.36,4-5.32,7.88-5.32s6.84,2,7.92,5.32A17.27,17.27,0,0,1,318,19a.39.39,0,0,1-.44.4H305.71a.21.21,0,0,0-.24.24,4.24,4.24,0,0,0,.28,1.48,4.21,4.21,0,0,0,4.32,2.92,5.81,5.81,0,0,0,4.52-1.84.41.41,0,0,1,.6-.08l2.36,2.08a.36.36,0,0,1,0,.56,10.16,10.16,0,0,1-7.92,3.28C305.59,28.08,302.71,26.08,301.63,22.72Zm11.64-8.52a4.12,4.12,0,0,0-7.56,0,4.89,4.89,0,0,0-.24,1.64.21.21,0,0,0,.24.24h7.56a.21.21,0,0,0,.24-.24A4.89,4.89,0,0,0,313.27,14.2Z"/><path d="M334.23,27.64a.38.38,0,0,1-.4-.4V16.12c0-2.48-1.24-4.2-3.64-4.2s-3.68,1.72-3.68,4.2V27.24a.38.38,0,0,1-.4.4h-3.68a.38.38,0,0,1-.4-.4V8.76a.38.38,0,0,1,.4-.4h3.68a.38.38,0,0,1,.4.4v1.4h0a6,6,0,0,1,5.08-2.24c4.12,0,6.68,3,6.68,7.16V27.24a.38.38,0,0,1-.4.4Z"/><path d="M348.79,27.88c-3.88,0-5.36-1.88-5.36-5.64V12.08a.21.21,0,0,0-.24-.24h-1.28a.38.38,0,0,1-.4-.4V8.76a.38.38,0,0,1,.4-.4h1.28a.21.21,0,0,0,.24-.24V2.84a.38.38,0,0,1,.4-.4h3.68a.38.38,0,0,1,.4.4V8.12a.21.21,0,0,0,.24.24h2.56a.38.38,0,0,1,.4.4v2.68a.38.38,0,0,1-.4.4h-2.56a.21.21,0,0,0-.24.24v10c0,1.36.56,1.8,1.8,1.8h1a.38.38,0,0,1,.4.4v3.2a.38.38,0,0,1-.4.4Z"/><path d="M354.83,22.72a15,15,0,0,1-.68-4.72,15.36,15.36,0,0,1,.64-4.76c1.08-3.36,4-5.32,7.88-5.32s6.84,2,7.92,5.32a17.27,17.27,0,0,1,.64,5.8.39.39,0,0,1-.44.4H358.91a.21.21,0,0,0-.24.24,4.24,4.24,0,0,0,.28,1.48,4.21,4.21,0,0,0,4.32,2.92,5.81,5.81,0,0,0,4.52-1.84.41.41,0,0,1,.6-.08l2.36,2.08a.36.36,0,0,1,0,.56,10.16,10.16,0,0,1-7.92,3.28C358.79,28.08,355.91,26.08,354.83,22.72Zm11.64-8.52a4.12,4.12,0,0,0-7.56,0,4.89,4.89,0,0,0-.24,1.64.21.21,0,0,0,.24.24h7.56a.21.21,0,0,0,.24-.24A4.89,4.89,0,0,0,366.47,14.2Z"/><path d="M374.07,25a.39.39,0,0,1,0-.56l2.28-2.4a.39.39,0,0,1,.56,0,8.92,8.92,0,0,0,5.64,2.2c2.36,0,3.56-1,3.56-2.28,0-1.16-.68-1.88-3.2-2.12l-2.08-.2c-3.92-.4-5.92-2.4-5.92-5.68,0-3.72,2.68-6.08,7.48-6.08a11.69,11.69,0,0,1,7.24,2.36.4.4,0,0,1,.08.56l-2,2.36a.39.39,0,0,1-.56.08,9.31,9.31,0,0,0-5-1.6c-1.92,0-2.92.84-2.92,2s.68,1.8,3.16,2l2.08.2c4,.4,6,2.48,6,5.64,0,3.84-2.8,6.52-8.08,6.52A12,12,0,0,1,374.07,25Z"/><path d="M34.22,60.72A15,15,0,0,1,33.54,56a15.36,15.36,0,0,1,.64-4.76c1.08-3.36,4-5.32,7.88-5.32S48.9,48,50,51.24a17.27,17.27,0,0,1,.64,5.8.39.39,0,0,1-.44.4H38.3a.21.21,0,0,0-.24.24,4.48,4.48,0,0,0,4.6,4.4,5.81,5.81,0,0,0,4.52-1.84.41.41,0,0,1,.6-.08l2.36,2.08a.36.36,0,0,1,0,.56,10.16,10.16,0,0,1-7.92,3.28C38.18,66.08,35.3,64.08,34.22,60.72ZM45.86,52.2a3.74,3.74,0,0,0-3.76-2.48,3.76,3.76,0,0,0-3.8,2.48,4.89,4.89,0,0,0-.24,1.64.21.21,0,0,0,.24.24h7.56a.21.21,0,0,0,.24-.24A4.89,4.89,0,0,0,45.86,52.2Z"/><path d="M53.46,63a.39.39,0,0,1,0-.56l2.28-2.4a.39.39,0,0,1,.56,0,8.92,8.92,0,0,0,5.64,2.2c2.36,0,3.56-1,3.56-2.28,0-1.16-.68-1.88-3.2-2.12l-2.08-.2c-3.92-.4-5.92-2.4-5.92-5.68,0-3.72,2.68-6.08,7.48-6.08A11.69,11.69,0,0,1,69,48.28a.4.4,0,0,1,.08.56l-2,2.36a.39.39,0,0,1-.56.08,9.31,9.31,0,0,0-5-1.6c-1.92,0-2.92.84-2.92,2s.68,1.8,3.16,2l2.08.2c4,.4,6,2.48,6,5.64,0,3.84-2.8,6.52-8.08,6.52A12,12,0,0,1,53.46,63Z"/><path d="M74.14,72.83a.38.38,0,0,1-.4-.4V46.76a.38.38,0,0,1,.4-.4h3.68a.38.38,0,0,1,.4.4V48.2h0c.92-1.32,2.52-2.28,5.12-2.28,3.28,0,5.68,1.56,6.68,4.64A16.07,16.07,0,0,1,90.74,56a16.07,16.07,0,0,1-.68,5.44c-1,3.08-3.4,4.64-6.68,4.64-2.6,0-4.2-1-5.12-2.28h0v8.63a.38.38,0,0,1-.4.4ZM85.78,59.6a11.37,11.37,0,0,0,.4-3.6,11.37,11.37,0,0,0-.4-3.6,3.82,3.82,0,0,0-7.16,0,11.37,11.37,0,0,0-.4,3.6,11.37,11.37,0,0,0,.4,3.6,3.82,3.82,0,0,0,7.16,0Z"/><path d="M94.38,60.72A15,15,0,0,1,93.7,56a15.36,15.36,0,0,1,.64-4.76c1.08-3.36,4-5.32,7.88-5.32s6.84,2,7.92,5.32a17.27,17.27,0,0,1,.64,5.8.39.39,0,0,1-.44.4H98.46a.21.21,0,0,0-.24.24,4.48,4.48,0,0,0,4.6,4.4,5.81,5.81,0,0,0,4.52-1.84.41.41,0,0,1,.6-.08l2.36,2.08a.36.36,0,0,1,0,.56,10.16,10.16,0,0,1-7.92,3.28C98.34,66.08,95.46,64.08,94.38,60.72ZM106,52.2a4.12,4.12,0,0,0-7.56,0,4.89,4.89,0,0,0-.24,1.64.21.21,0,0,0,.24.24H106a.21.21,0,0,0,.24-.24A4.89,4.89,0,0,0,106,52.2Z"/><path d="M114.34,60.76a15.15,15.15,0,0,1-.6-4.76,15.15,15.15,0,0,1,.6-4.76c1.12-3.44,4.08-5.32,8-5.32a8.4,8.4,0,0,1,6.68,3,.39.39,0,0,1,0,.56l-2.52,2.2a.36.36,0,0,1-.56-.08,4.37,4.37,0,0,0-3.56-1.68,3.54,3.54,0,0,0-3.6,2.52,11.33,11.33,0,0,0-.4,3.56,11.6,11.6,0,0,0,.4,3.6,3.55,3.55,0,0,0,3.6,2.48,4.37,4.37,0,0,0,3.56-1.68.36.36,0,0,1,.56,0l2.52,2.2c.2.16.16.36,0,.56a8.49,8.49,0,0,1-6.68,3C118.42,66.08,115.46,64.2,114.34,60.76Z"/><path d="M133.38,42.72a.38.38,0,0,1-.4-.4V38.84a.38.38,0,0,1,.4-.4h3.68a.38.38,0,0,1,.4.4v3.48a.38.38,0,0,1-.4.4Zm0,22.92a.38.38,0,0,1-.4-.4V46.76a.38.38,0,0,1,.4-.4h3.68a.38.38,0,0,1,.4.4V65.24a.38.38,0,0,1-.4.4Z"/><path d="M142.14,60.72a15,15,0,0,1-.68-4.72,15.36,15.36,0,0,1,.64-4.76c1.08-3.36,4-5.32,7.88-5.32s6.84,2,7.92,5.32a17.27,17.27,0,0,1,.64,5.8.39.39,0,0,1-.44.4H146.22a.21.21,0,0,0-.24.24,4.48,4.48,0,0,0,4.6,4.4,5.81,5.81,0,0,0,4.52-1.84.41.41,0,0,1,.6-.08l2.36,2.08a.36.36,0,0,1,0,.56,10.16,10.16,0,0,1-7.92,3.28C146.1,66.08,143.22,64.08,142.14,60.72Zm11.64-8.52a4.12,4.12,0,0,0-7.56,0,4.89,4.89,0,0,0-.24,1.64.21.21,0,0,0,.24.24h7.56a.21.21,0,0,0,.24-.24A4.89,4.89,0,0,0,153.78,52.2Z"/><path d="M161.38,63a.39.39,0,0,1,0-.56l2.28-2.4a.39.39,0,0,1,.56,0,8.92,8.92,0,0,0,5.64,2.2c2.36,0,3.56-1,3.56-2.28,0-1.16-.68-1.88-3.2-2.12l-2.08-.2c-3.92-.4-5.92-2.4-5.92-5.68,0-3.72,2.68-6.08,7.48-6.08a11.69,11.69,0,0,1,7.24,2.36.4.4,0,0,1,.08.56l-2,2.36a.39.39,0,0,1-.56.08,9.31,9.31,0,0,0-5-1.6c-1.92,0-2.92.84-2.92,2s.68,1.8,3.16,2l2.08.2c4,.4,6,2.48,6,5.64,0,3.84-2.8,6.52-8.08,6.52A12,12,0,0,1,161.38,63Z"/><path d="M202.17,65.64a.38.38,0,0,1-.4-.4V63.8h0c-.92,1.32-2.51,2.28-5.11,2.28-3.28,0-5.68-1.56-6.68-4.64a16.07,16.07,0,0,1-.68-5.44,16.07,16.07,0,0,1,.68-5.44c1-3.08,3.4-4.64,6.68-4.64,2.6,0,4.19,1,5.11,2.28h0V38.84a.38.38,0,0,1,.4-.4h3.68a.38.38,0,0,1,.4.4v26.4a.38.38,0,0,1-.4.4Zm-.79-6a11.43,11.43,0,0,0,.39-3.6,11.43,11.43,0,0,0-.39-3.6,3.82,3.82,0,0,0-7.16,0,11.37,11.37,0,0,0-.4,3.6,11.37,11.37,0,0,0,.4,3.6,3.82,3.82,0,0,0,7.16,0Z"/><path d="M223.13,65.64a.38.38,0,0,1-.4-.4v-1.4h0a5.88,5.88,0,0,1-5,2.24c-4.12,0-6.64-3-6.64-7.16V46.76a.38.38,0,0,1,.4-.4h3.68a.38.38,0,0,1,.4.4V57.88c0,2.48,1.16,4.2,3.6,4.2,2.28,0,3.59-1.72,3.59-4.16V46.76a.38.38,0,0,1,.4-.4h3.68a.38.38,0,0,1,.4.4V65.24a.38.38,0,0,1-.4.4Z"/><path d="M232.66,65.64a.38.38,0,0,1-.4-.4V46.76a.38.38,0,0,1,.4-.4h3.68a.38.38,0,0,1,.4.4V48.4h0a5.52,5.52,0,0,1,5-2.48,5.82,5.82,0,0,1,4,1.6c.2.2.24.36.08.56l-2.12,2.68a.36.36,0,0,1-.56.08,5.15,5.15,0,0,0-2.83-.92c-2.52,0-3.64,1.8-3.64,4.88V65.24a.38.38,0,0,1-.4.4Z"/><path d="M259.13,65.64a.38.38,0,0,1-.4-.4v-1.4h0c-.92,1.32-2.71,2.24-5.43,2.24-3.52,0-6.48-1.84-6.48-5.88,0-4.2,3-6.12,7.72-6.12h3.91a.21.21,0,0,0,.24-.24v-.92c0-2.2-1-3.2-4.27-3.2A6.76,6.76,0,0,0,250,51a.36.36,0,0,1-.56-.08l-1.48-2.64a.37.37,0,0,1,.08-.52,11.24,11.24,0,0,1,6.83-1.88c5.88,0,8,2,8,6.72v12.6a.38.38,0,0,1-.4.4Zm-.48-6.48V57.68a.21.21,0,0,0-.24-.24h-3.2c-2.87,0-4.15.8-4.15,2.6,0,1.6,1.16,2.4,3.32,2.4C257.13,62.44,258.65,61.36,258.65,59.16Z"/><path d="M280,65.64a.38.38,0,0,1-.4-.4V54.12c0-2.48-1.24-4.2-3.63-4.2s-3.68,1.72-3.68,4.2V65.24a.38.38,0,0,1-.4.4h-3.68a.38.38,0,0,1-.4-.4V46.76a.38.38,0,0,1,.4-.4h3.68a.38.38,0,0,1,.4.4v1.4h0a6,6,0,0,1,5.08-2.24c4.11,0,6.67,3,6.67,7.16V65.24a.38.38,0,0,1-.4.4Z"/><path d="M294.53,65.88c-3.87,0-5.35-1.88-5.35-5.64V50.08a.21.21,0,0,0-.24-.24h-1.28a.38.38,0,0,1-.4-.4V46.76a.38.38,0,0,1,.4-.4h1.28a.21.21,0,0,0,.24-.24V40.84a.38.38,0,0,1,.4-.4h3.67a.38.38,0,0,1,.4.4v5.28a.21.21,0,0,0,.24.24h2.56a.38.38,0,0,1,.4.4v2.68a.38.38,0,0,1-.4.4h-2.56a.21.21,0,0,0-.24.24v10c0,1.36.56,1.8,1.8,1.8h1a.38.38,0,0,1,.4.4v3.2a.38.38,0,0,1-.4.4Z"/><path d="M300.58,60.72A15,15,0,0,1,299.9,56a15.36,15.36,0,0,1,.64-4.76c1.08-3.36,4-5.32,7.87-5.32s6.84,2,7.92,5.32A17.27,17.27,0,0,1,317,57a.39.39,0,0,1-.44.4H304.65a.21.21,0,0,0-.23.24,4.48,4.48,0,0,0,.27,1.48A4.21,4.21,0,0,0,309,62.08a5.81,5.81,0,0,0,4.52-1.84.41.41,0,0,1,.6-.08l2.36,2.08a.36.36,0,0,1,0,.56,10.16,10.16,0,0,1-7.92,3.28C304.54,66.08,301.66,64.08,300.58,60.72Zm11.63-8.52a4.12,4.12,0,0,0-7.56,0,5.18,5.18,0,0,0-.23,1.64.21.21,0,0,0,.23.24h7.56a.21.21,0,0,0,.24-.24A4.89,4.89,0,0,0,312.21,52.2Z"/><path d="M329.25,60.72a15,15,0,0,1-.67-4.72,15.4,15.4,0,0,1,.63-4.76c1.08-3.36,4-5.32,7.88-5.32s6.84,2,7.92,5.32a17.27,17.27,0,0,1,.64,5.8.39.39,0,0,1-.44.4H333.33a.21.21,0,0,0-.24.24,4.48,4.48,0,0,0,4.6,4.4,5.81,5.81,0,0,0,4.52-1.84.41.41,0,0,1,.6-.08l2.36,2.08a.36.36,0,0,1,0,.56,10.16,10.16,0,0,1-7.92,3.28C333.21,66.08,330.33,64.08,329.25,60.72Zm11.64-8.52a4.12,4.12,0,0,0-7.56,0,4.89,4.89,0,0,0-.24,1.64.21.21,0,0,0,.24.24h7.56a.21.21,0,0,0,.24-.24A4.89,4.89,0,0,0,340.89,52.2Z"/><path d="M354.85,65.88c-3.76,0-5.28-1.8-5.28-5.52V38.84a.38.38,0,0,1,.4-.4h3.68a.38.38,0,0,1,.4.4V60.12c0,1.32.52,1.76,1.68,1.76h.88a.38.38,0,0,1,.4.4v3.2a.38.38,0,0,1-.4.4Z"/><path d="M29.82,103.64a.38.38,0,0,1-.4-.4V101.8h0c-.92,1.32-2.52,2.28-5.12,2.28-3.28,0-5.68-1.56-6.68-4.64A16.07,16.07,0,0,1,16.9,94a16.07,16.07,0,0,1,.68-5.44c1-3.08,3.4-4.64,6.68-4.64,2.6,0,4.2,1,5.12,2.28h0V76.84a.38.38,0,0,1,.4-.4H33.5a.38.38,0,0,1,.4.4v26.4a.38.38,0,0,1-.4.4Zm-.8-6a11.37,11.37,0,0,0,.4-3.6,11.37,11.37,0,0,0-.4-3.6,3.47,3.47,0,0,0-3.6-2.48,3.45,3.45,0,0,0-3.56,2.48,11.37,11.37,0,0,0-.4,3.6,11.37,11.37,0,0,0,.4,3.6,3.45,3.45,0,0,0,3.56,2.48A3.47,3.47,0,0,0,29,97.6Z"/><path d="M38.58,98.72A15,15,0,0,1,37.9,94a15.36,15.36,0,0,1,.64-4.76c1.08-3.36,4-5.32,7.88-5.32s6.84,2,7.92,5.32A17.27,17.27,0,0,1,55,95a.39.39,0,0,1-.44.4H42.66a.21.21,0,0,0-.24.24,4.48,4.48,0,0,0,4.6,4.4,5.81,5.81,0,0,0,4.52-1.84.41.41,0,0,1,.6-.08l2.36,2.08a.36.36,0,0,1,0,.56,10.16,10.16,0,0,1-7.92,3.28C42.54,104.08,39.66,102.08,38.58,98.72ZM50.22,90.2a3.74,3.74,0,0,0-3.76-2.48,3.76,3.76,0,0,0-3.8,2.48,4.89,4.89,0,0,0-.24,1.64.21.21,0,0,0,.24.24h7.56a.21.21,0,0,0,.24-.24A4.89,4.89,0,0,0,50.22,90.2Z"/><path d="M57.82,101a.39.39,0,0,1,0-.56l2.28-2.4a.39.39,0,0,1,.56,0,8.92,8.92,0,0,0,5.64,2.2c2.36,0,3.56-1,3.56-2.28,0-1.16-.68-1.88-3.2-2.12l-2.08-.2c-3.92-.4-5.92-2.4-5.92-5.68,0-3.72,2.68-6.08,7.48-6.08a11.69,11.69,0,0,1,7.24,2.36.4.4,0,0,1,.08.56l-2,2.36a.39.39,0,0,1-.56.08,9.31,9.31,0,0,0-5-1.6c-1.92,0-2.92.84-2.92,2s.68,1.8,3.16,2l2.08.2c4,.4,6,2.48,6,5.64,0,3.84-2.8,6.52-8.08,6.52A12,12,0,0,1,57.82,101Z"/><path d="M89.58,103.64a.38.38,0,0,1-.4-.4v-1.4h0c-.92,1.32-2.72,2.24-5.44,2.24-3.52,0-6.48-1.84-6.48-5.88,0-4.2,3-6.12,7.72-6.12h3.92a.21.21,0,0,0,.24-.24v-.92c0-2.2-1-3.2-4.28-3.2A6.76,6.76,0,0,0,80.42,89a.36.36,0,0,1-.56-.08l-1.48-2.64a.37.37,0,0,1,.08-.52,11.25,11.25,0,0,1,6.84-1.88c5.88,0,8,2,8,6.72v12.6a.38.38,0,0,1-.4.4Zm-.48-6.48V95.68a.21.21,0,0,0-.24-.24h-3.2c-2.88,0-4.16.8-4.16,2.6,0,1.6,1.16,2.4,3.32,2.4C87.58,100.44,89.1,99.36,89.1,97.16Z"/><path d="M98.62,103.64a.38.38,0,0,1-.4-.4V84.76a.38.38,0,0,1,.4-.4h3.68a.38.38,0,0,1,.4.4V86.4h0a5.52,5.52,0,0,1,5-2.48,5.82,5.82,0,0,1,4,1.6c.2.2.24.36.08.56l-2.12,2.68a.36.36,0,0,1-.56.08,5.21,5.21,0,0,0-2.84-.92c-2.52,0-3.64,1.8-3.64,4.88v10.44a.38.38,0,0,1-.4.4Z"/><path d="M114.74,103.64a.38.38,0,0,1-.4-.4V84.76a.38.38,0,0,1,.4-.4h3.68a.38.38,0,0,1,.4.4V86.4h0a5.52,5.52,0,0,1,5-2.48,5.82,5.82,0,0,1,4,1.6c.2.2.24.36.08.56l-2.12,2.68a.36.36,0,0,1-.56.08,5.21,5.21,0,0,0-2.84-.92c-2.52,0-3.64,1.8-3.64,4.88v10.44a.38.38,0,0,1-.4.4Z"/><path d="M129.66,98.76A14.24,14.24,0,0,1,129,94a14.24,14.24,0,0,1,.64-4.76c1.08-3.36,4-5.32,8-5.32s6.84,2,7.92,5.32a14.24,14.24,0,0,1,.64,4.76,14.24,14.24,0,0,1-.64,4.76c-1.08,3.36-4,5.32-7.92,5.32S130.74,102.12,129.66,98.76Zm11.56-1.2a10.89,10.89,0,0,0,.4-3.56,11,11,0,0,0-.4-3.56,3.56,3.56,0,0,0-3.6-2.52A3.61,3.61,0,0,0,134,90.44a11,11,0,0,0-.4,3.56,10.89,10.89,0,0,0,.4,3.56,3.61,3.61,0,0,0,3.64,2.52A3.56,3.56,0,0,0,141.22,97.56Z"/><path d="M155.38,103.88c-3.76,0-5.28-1.8-5.28-5.52V76.84a.38.38,0,0,1,.4-.4h3.68a.38.38,0,0,1,.4.4V98.12c0,1.32.52,1.76,1.68,1.76h.88a.38.38,0,0,1,.4.4v3.2a.38.38,0,0,1-.4.4Z"/><path d="M166.1,103.88c-3.76,0-5.28-1.8-5.28-5.52V76.84a.38.38,0,0,1,.4-.4h3.68a.38.38,0,0,1,.4.4V98.12c0,1.32.52,1.76,1.68,1.76h.88a.38.38,0,0,1,.4.4v3.2a.38.38,0,0,1-.4.4Z"/><path d="M171.34,98.76A14.24,14.24,0,0,1,170.7,94a14.24,14.24,0,0,1,.64-4.76c1.08-3.36,4-5.32,8-5.32s6.83,2,7.91,5.32a14.24,14.24,0,0,1,.64,4.76,14.24,14.24,0,0,1-.64,4.76c-1.08,3.36-4,5.32-7.91,5.32S172.42,102.12,171.34,98.76Zm11.56-1.2a10.89,10.89,0,0,0,.4-3.56,11,11,0,0,0-.4-3.56,3.56,3.56,0,0,0-3.6-2.52,3.61,3.61,0,0,0-3.64,2.52,11,11,0,0,0-.4,3.56,10.89,10.89,0,0,0,.4,3.56,3.61,3.61,0,0,0,3.64,2.52A3.56,3.56,0,0,0,182.9,97.56Z"/><path d="M212.38,103.64a.38.38,0,0,1-.4-.4V101.8h0c-.92,1.32-2.52,2.28-5.12,2.28-3.28,0-5.68-1.56-6.68-4.64a16.07,16.07,0,0,1-.68-5.44,16.07,16.07,0,0,1,.68-5.44c1-3.08,3.4-4.64,6.68-4.64,2.6,0,4.2,1,5.12,2.28h0V76.84a.38.38,0,0,1,.4-.4h3.67a.38.38,0,0,1,.4.4v26.4a.38.38,0,0,1-.4.4Zm-.8-6A11.37,11.37,0,0,0,212,94a11.37,11.37,0,0,0-.4-3.6,3.82,3.82,0,0,0-7.16,0A11.37,11.37,0,0,0,204,94a11.37,11.37,0,0,0,.4,3.6,3.82,3.82,0,0,0,7.16,0Z"/><path d="M221.14,98.72a15,15,0,0,1-.68-4.72,15.36,15.36,0,0,1,.64-4.76c1.08-3.36,4-5.32,7.88-5.32s6.83,2,7.91,5.32a17.27,17.27,0,0,1,.64,5.8.39.39,0,0,1-.44.4H225.22a.21.21,0,0,0-.24.24,4.48,4.48,0,0,0,4.6,4.4,5.8,5.8,0,0,0,4.51-1.84.41.41,0,0,1,.6-.08l2.36,2.08a.36.36,0,0,1,0,.56,10.15,10.15,0,0,1-7.91,3.28C225.1,104.08,222.22,102.08,221.14,98.72Zm11.63-8.52a4.11,4.11,0,0,0-7.55,0,4.89,4.89,0,0,0-.24,1.64.21.21,0,0,0,.24.24h7.55a.21.21,0,0,0,.24-.24A4.89,4.89,0,0,0,232.77,90.2Z"/><path d="M255.38,103.88c-3.76,0-5.28-1.8-5.28-5.52V76.84a.38.38,0,0,1,.4-.4h3.68a.38.38,0,0,1,.4.4V98.12c0,1.32.52,1.76,1.67,1.76h.88a.38.38,0,0,1,.4.4v3.2a.38.38,0,0,1-.4.4Z"/><path d="M272.49,103.64a.38.38,0,0,1-.4-.4v-1.4h0c-.92,1.32-2.72,2.24-5.44,2.24-3.51,0-6.47-1.84-6.47-5.88,0-4.2,3-6.12,7.71-6.12h3.92a.21.21,0,0,0,.24-.24v-.92c0-2.2-1-3.2-4.28-3.2A6.73,6.73,0,0,0,263.34,89a.36.36,0,0,1-.56-.08l-1.48-2.64a.37.37,0,0,1,.08-.52,11.24,11.24,0,0,1,6.83-1.88c5.88,0,8,2,8,6.72v12.6a.38.38,0,0,1-.4.4ZM272,97.16V95.68a.21.21,0,0,0-.24-.24h-3.2c-2.88,0-4.15.8-4.15,2.6,0,1.6,1.15,2.4,3.31,2.4C270.49,100.44,272,99.36,272,97.16Z"/><path d="M285.66,101.8h0v1.44a.38.38,0,0,1-.4.4h-3.68a.38.38,0,0,1-.4-.4V76.84a.38.38,0,0,1,.4-.4h3.68a.38.38,0,0,1,.4.4V86.2h0c.91-1.32,2.51-2.28,5.11-2.28,3.28,0,5.68,1.56,6.68,4.64a16.07,16.07,0,0,1,.68,5.44,16.07,16.07,0,0,1-.68,5.44c-1,3.08-3.4,4.64-6.68,4.64C288.17,104.08,286.57,103.12,285.66,101.8Zm7.51-4.2a11.37,11.37,0,0,0,.4-3.6,11.37,11.37,0,0,0-.4-3.6,3.82,3.82,0,0,0-7.15,0,11.08,11.08,0,0,0-.4,3.6,11.08,11.08,0,0,0,.4,3.6,3.82,3.82,0,0,0,7.15,0Z"/><path d="M301.74,98.76A14.24,14.24,0,0,1,301.1,94a14.24,14.24,0,0,1,.64-4.76c1.08-3.36,4-5.32,7.95-5.32s6.84,2,7.92,5.32a14.24,14.24,0,0,1,.64,4.76,14.24,14.24,0,0,1-.64,4.76c-1.08,3.36-4,5.32-7.92,5.32S302.82,102.12,301.74,98.76Zm11.55-1.2a10.89,10.89,0,0,0,.4-3.56,11,11,0,0,0-.4-3.56,3.56,3.56,0,0,0-3.6-2.52,3.61,3.61,0,0,0-3.64,2.52,11,11,0,0,0-.4,3.56,10.89,10.89,0,0,0,.4,3.56,3.61,3.61,0,0,0,3.64,2.52A3.56,3.56,0,0,0,313.29,97.56Z"/><path d="M322.66,103.64a.38.38,0,0,1-.4-.4V84.76a.38.38,0,0,1,.4-.4h3.67a.38.38,0,0,1,.4.4V86.4h0a5.52,5.52,0,0,1,5-2.48,5.82,5.82,0,0,1,4,1.6c.2.2.24.36.08.56l-2.12,2.68a.36.36,0,0,1-.56.08,5.21,5.21,0,0,0-2.84-.92c-2.52,0-3.64,1.8-3.64,4.88v10.44a.38.38,0,0,1-.4.4Z"/><path d="M337.61,98.72a15,15,0,0,1-.67-4.72,15.4,15.4,0,0,1,.63-4.76c1.08-3.36,4-5.32,7.88-5.32s6.84,2,7.92,5.32A17.27,17.27,0,0,1,354,95a.39.39,0,0,1-.44.4H341.69a.21.21,0,0,0-.24.24,4.48,4.48,0,0,0,4.6,4.4,5.81,5.81,0,0,0,4.52-1.84.41.41,0,0,1,.6-.08l2.36,2.08a.36.36,0,0,1,0,.56,10.16,10.16,0,0,1-7.92,3.28C341.57,104.08,338.69,102.08,337.61,98.72Zm11.64-8.52a4.12,4.12,0,0,0-7.56,0,4.89,4.89,0,0,0-.24,1.64.21.21,0,0,0,.24.24h7.56a.21.21,0,0,0,.24-.24A4.89,4.89,0,0,0,349.25,90.2Z"/><path d="M356.85,101a.39.39,0,0,1,0-.56l2.28-2.4a.39.39,0,0,1,.56,0,8.92,8.92,0,0,0,5.64,2.2c2.36,0,3.56-1,3.56-2.28,0-1.16-.68-1.88-3.2-2.12l-2.08-.2c-3.92-.4-5.92-2.4-5.92-5.68,0-3.72,2.68-6.08,7.48-6.08a11.69,11.69,0,0,1,7.24,2.36.4.4,0,0,1,.08.56l-2,2.36a.39.39,0,0,1-.56.08,9.31,9.31,0,0,0-5-1.6c-1.92,0-2.92.84-2.92,2s.68,1.8,3.16,2l2.08.2c4,.4,6,2.48,6,5.64,0,3.84-2.8,6.52-8.08,6.52A12,12,0,0,1,356.85,101Z"/><path d="M112.2,136.72a15,15,0,0,1-.68-4.72,15.36,15.36,0,0,1,.64-4.76c1.08-3.36,4-5.32,7.88-5.32s6.84,2,7.92,5.32a17.27,17.27,0,0,1,.64,5.8.39.39,0,0,1-.44.4H116.28a.21.21,0,0,0-.24.24,4.48,4.48,0,0,0,4.6,4.4,5.81,5.81,0,0,0,4.52-1.84.41.41,0,0,1,.6-.08l2.36,2.08a.36.36,0,0,1,0,.56,10.16,10.16,0,0,1-7.92,3.28C116.16,142.08,113.28,140.08,112.2,136.72Zm11.64-8.52a4.12,4.12,0,0,0-7.56,0,4.89,4.89,0,0,0-.24,1.64.21.21,0,0,0,.24.24h7.56a.21.21,0,0,0,.24-.24A4.89,4.89,0,0,0,123.84,128.2Z"/><path d="M144.8,141.64a.38.38,0,0,1-.4-.4V130.12c0-2.48-1.24-4.2-3.64-4.2s-3.68,1.72-3.68,4.2v11.12a.38.38,0,0,1-.4.4H133a.38.38,0,0,1-.4-.4V122.76a.38.38,0,0,1,.4-.4h3.68a.38.38,0,0,1,.4.4v1.4h0a6,6,0,0,1,5.08-2.24c4.12,0,6.68,3,6.68,7.16v12.16a.38.38,0,0,1-.4.4Z"/><path d="M161.92,136.76a19.18,19.18,0,0,1,0-9.52c1.12-3.44,4.08-5.32,8-5.32a8.38,8.38,0,0,1,6.67,3,.39.39,0,0,1,0,.56l-2.51,2.2a.36.36,0,0,1-.56-.08,4.37,4.37,0,0,0-3.56-1.68,3.54,3.54,0,0,0-3.6,2.52,11.33,11.33,0,0,0-.4,3.56,11.6,11.6,0,0,0,.4,3.6,3.55,3.55,0,0,0,3.6,2.48,4.37,4.37,0,0,0,3.56-1.68.36.36,0,0,1,.56,0l2.51,2.2c.2.16.16.36,0,.56a8.47,8.47,0,0,1-6.67,3C166,142.08,163,140.2,161.92,136.76Z"/><path d="M191.31,141.64a.38.38,0,0,1-.4-.4v-1.4h0c-.92,1.32-2.71,2.24-5.43,2.24-3.52,0-6.48-1.84-6.48-5.88,0-4.2,3-6.12,7.72-6.12h3.91a.21.21,0,0,0,.24-.24v-.92c0-2.2-1-3.2-4.27-3.2a6.76,6.76,0,0,0-4.4,1.32.36.36,0,0,1-.56-.08l-1.48-2.64a.37.37,0,0,1,.08-.52,11.25,11.25,0,0,1,6.84-1.88c5.87,0,8,2,8,6.72v12.6a.38.38,0,0,1-.4.4Zm-.48-6.48v-1.48a.21.21,0,0,0-.24-.24H187.4c-2.88,0-4.16.8-4.16,2.6,0,1.6,1.16,2.4,3.32,2.4C189.31,138.44,190.83,137.36,190.83,135.16Z"/><path d="M224,141.64a.38.38,0,0,1-.4-.4V130.12c0-2.48-1.24-4.2-3.64-4.2s-3.68,1.72-3.68,4.2v11.12a.38.38,0,0,1-.4.4h-3.68a.38.38,0,0,1-.4-.4V130.12c0-2.48-1.24-4.2-3.63-4.2s-3.68,1.72-3.68,4.2v11.12a.38.38,0,0,1-.4.4h-3.68a.38.38,0,0,1-.4-.4V122.76a.38.38,0,0,1,.4-.4H204a.38.38,0,0,1,.4.4v1.4h0a6,6,0,0,1,5.08-2.24,6.2,6.2,0,0,1,5.27,2.56h0a7.88,7.88,0,0,1,6.16-2.56c4.48,0,7,3,7,7.16v12.16a.38.38,0,0,1-.4.4Z"/><path d="M233.28,148.83a.38.38,0,0,1-.4-.4V122.76a.38.38,0,0,1,.4-.4H237a.38.38,0,0,1,.4.4v1.44h0c.91-1.32,2.52-2.28,5.11-2.28,3.28,0,5.68,1.56,6.68,4.64a16.07,16.07,0,0,1,.68,5.44,16.07,16.07,0,0,1-.68,5.44c-1,3.08-3.4,4.64-6.68,4.64-2.59,0-4.2-1-5.11-2.28h0v8.63a.38.38,0,0,1-.4.4Zm11.63-13.23a16.4,16.4,0,0,0,0-7.2,3.82,3.82,0,0,0-7.15,0,16.4,16.4,0,0,0,0,7.2,3.82,3.82,0,0,0,7.15,0Z"/><path d="M253.48,136.76a18,18,0,0,1,0-9.52c1.08-3.36,4-5.32,8-5.32s6.84,2,7.92,5.32a18,18,0,0,1,0,9.52c-1.08,3.36-4,5.32-7.92,5.32S254.56,140.12,253.48,136.76Zm11.55-1.2a10.89,10.89,0,0,0,.4-3.56,11,11,0,0,0-.4-3.56,3.56,3.56,0,0,0-3.6-2.52,3.61,3.61,0,0,0-3.64,2.52,11.36,11.36,0,0,0-.39,3.56,11.21,11.21,0,0,0,.39,3.56,3.61,3.61,0,0,0,3.64,2.52A3.56,3.56,0,0,0,265,135.56Z"/><path d="M273.72,137.16a.38.38,0,0,1,.4-.4h4a.39.39,0,0,1,.41.4v4.08a.39.39,0,0,1-.41.4h-4a.38.38,0,0,1-.4-.4Z"/></g></g></svg>