<svg xmlns="http://www.w3.org/2000/svg" viewBox="0 0 494.67 139.59"><title>p8</title><g id="Capa_2" data-name="Capa 2"><g id="fondo"><path d="M41.63,13c0-3.89.15-5.11.65-6.63,1.26-4,4.36-6,8.5-6a8.62,8.62,0,0,1,8.28,5.26.32.32,0,0,1-.18.43L55.82,7.49a.32.32,0,0,1-.47-.18,4.83,4.83,0,0,0-4.57-3.17,4.35,4.35,0,0,0-4.4,3.24c-.32,1-.43,2-.43,5.58s.11,4.57.43,5.58a4.35,4.35,0,0,0,4.4,3.24,4.83,4.83,0,0,0,4.57-3.17.32.32,0,0,1,.47-.18l3.06,1.48a.32.32,0,0,1,.18.43,8.61,8.61,0,0,1-8.28,5.25c-4.14,0-7.24-2-8.5-6C41.78,18.07,41.63,16.85,41.63,13Z"/><path d="M72.59,25.2a.35.35,0,0,1-.36-.36V23.58h0c-.83,1.18-2.45,2-4.9,2-3.17,0-5.83-1.65-5.83-5.29s2.66-5.51,7-5.51h3.52c.15,0,.22-.07.22-.21v-.83c0-2-.94-2.88-3.85-2.88a6.06,6.06,0,0,0-4,1.19.33.33,0,0,1-.51-.07L62.51,9.61a.35.35,0,0,1,.07-.47,10.15,10.15,0,0,1,6.16-1.69C74,7.45,76,9.25,76,13.5V24.84a.35.35,0,0,1-.36.36Zm-.43-5.83V18c0-.14-.07-.21-.22-.21H69.06c-2.59,0-3.74.72-3.74,2.34,0,1.44,1,2.16,3,2.16C70.79,22.32,72.16,21.35,72.16,19.37Z"/><path d="M80.73,25.2a.34.34,0,0,1-.36-.36V8.21a.34.34,0,0,1,.36-.36H84a.34.34,0,0,1,.36.36V24.84a.34.34,0,0,1-.36.36Zm.36-20c-.22,0-.33-.14-.22-.36l2.7-4.5A.7.7,0,0,1,84.22,0H87.5a.21.21,0,0,1,.18.36l-3.42,4.5a.85.85,0,0,1-.72.36Z"/><path d="M99.63,25.2a.34.34,0,0,1-.36-.36v-1.3h0a5.23,5.23,0,0,1-4.61,2.05,5.82,5.82,0,0,1-6-4.17,14.54,14.54,0,0,1-.61-4.9,14.47,14.47,0,0,1,.61-4.89,5.82,5.82,0,0,1,6-4.18A5.23,5.23,0,0,1,99.23,9.5h0V1.08a.34.34,0,0,1,.36-.36h3.31a.34.34,0,0,1,.36.36V24.84a.35.35,0,0,1-.36.36Zm-.72-5.44a10.26,10.26,0,0,0,.36-3.24,10.3,10.3,0,0,0-.36-3.24,3.45,3.45,0,0,0-6.45,0,10.3,10.3,0,0,0-.36,3.24,10.26,10.26,0,0,0,.36,3.24,3.45,3.45,0,0,0,6.45,0Z"/><path d="M118.17,25.2a.34.34,0,0,1-.36-.36V23.58h0c-.83,1.18-2.45,2-4.89,2-3.17,0-5.84-1.65-5.84-5.29s2.67-5.51,6.95-5.51h3.53a.19.19,0,0,0,.22-.21v-.83c0-2-.94-2.88-3.86-2.88a6.08,6.08,0,0,0-4,1.19.32.32,0,0,1-.5-.07l-1.33-2.38a.34.34,0,0,1,.07-.47,10.1,10.1,0,0,1,6.16-1.69c5.29,0,7.23,1.8,7.23,6.05V24.84a.34.34,0,0,1-.36.36Zm-.43-5.83V18a.19.19,0,0,0-.22-.21h-2.88c-2.59,0-3.74.72-3.74,2.34,0,1.44,1,2.16,3,2.16C116.37,22.32,117.74,21.35,117.74,19.37Z"/><path d="M124.9,22.86a.36.36,0,0,1,0-.51l2-2.16a.36.36,0,0,1,.51,0,8,8,0,0,0,5.07,2c2.13,0,3.21-.86,3.21-2.05s-.62-1.69-2.89-1.91L131,18c-3.52-.36-5.32-2.16-5.32-5.11,0-3.35,2.41-5.47,6.73-5.47a10.53,10.53,0,0,1,6.51,2.12.36.36,0,0,1,.07.51l-1.76,2.12a.35.35,0,0,1-.5.07,8.44,8.44,0,0,0-4.54-1.44c-1.73,0-2.63.76-2.63,1.8s.62,1.62,2.85,1.84l1.87.18c3.63.36,5.36,2.23,5.36,5.08,0,3.45-2.52,5.86-7.27,5.86A10.77,10.77,0,0,1,124.9,22.86Z"/><path d="M161.26,25.2a.34.34,0,0,1-.36-.36V23.58h0c-.83,1.18-2.45,2-4.89,2-3.17,0-5.83-1.65-5.83-5.29s2.66-5.51,6.94-5.51h3.53a.19.19,0,0,0,.22-.21v-.83c0-2-.94-2.88-3.86-2.88a6.08,6.08,0,0,0-4,1.19.32.32,0,0,1-.5-.07l-1.33-2.38a.34.34,0,0,1,.07-.47,10.13,10.13,0,0,1,6.16-1.69c5.29,0,7.23,1.8,7.23,6.05V24.84a.34.34,0,0,1-.36.36Zm-.43-5.83V18a.19.19,0,0,0-.22-.21h-2.88c-2.59,0-3.74.72-3.74,2.34,0,1.44,1,2.16,3,2.16C159.46,22.32,160.83,21.35,160.83,19.37Z"/><path d="M187.5,25.2a.35.35,0,0,1-.36-.36v-1.3h0a5.2,5.2,0,0,1-4.6,2.05,5.82,5.82,0,0,1-6-4.17,14.25,14.25,0,0,1-.62-4.9,14.18,14.18,0,0,1,.62-4.89,5.82,5.82,0,0,1,6-4.18,5.2,5.2,0,0,1,4.6,2.05h0V1.08a.34.34,0,0,1,.36-.36h3.31a.34.34,0,0,1,.36.36V24.84a.34.34,0,0,1-.36.36Zm-.72-5.44a10.26,10.26,0,0,0,.36-3.24,10.3,10.3,0,0,0-.36-3.24,3.44,3.44,0,0,0-6.44,0,10.3,10.3,0,0,0-.36,3.24,10.26,10.26,0,0,0,.36,3.24,3.44,3.44,0,0,0,6.44,0Z"/><path d="M196.07,4.57a.34.34,0,0,1-.36-.36V1.08a.34.34,0,0,1,.36-.36h3.31a.34.34,0,0,1,.36.36V4.21a.34.34,0,0,1-.36.36Zm0,20.63a.34.34,0,0,1-.36-.36V8.21a.34.34,0,0,1,.36-.36h3.31a.34.34,0,0,1,.36.36V24.84a.34.34,0,0,1-.36.36Z"/><path d="M205.18,25.2a.34.34,0,0,1-.36-.36V11.19c0-.14-.07-.21-.22-.21h-1.15a.34.34,0,0,1-.36-.36V8.21a.34.34,0,0,1,.36-.36h1.15a.2.2,0,0,0,.22-.22V6.52c0-4,2-5.8,5.76-5.8h1.58a.34.34,0,0,1,.36.36V4a.34.34,0,0,1-.36.36h-1.11c-1.8,0-2.2.43-2.2,2.12V7.63a.2.2,0,0,0,.22.22h3.09a.34.34,0,0,1,.36.36v2.41a.34.34,0,0,1-.36.36h-3.09c-.15,0-.22.07-.22.21V24.84a.34.34,0,0,1-.36.36Z"/><path d="M215,20.77a13.49,13.49,0,0,1-.61-4.25,14.1,14.1,0,0,1,.57-4.28c1-3,3.64-4.79,7.1-4.79s6.15,1.84,7.12,4.79a15.39,15.39,0,0,1,.58,5.22.35.35,0,0,1-.4.36H218.71a.19.19,0,0,0-.21.21,3.72,3.72,0,0,0,.25,1.34A3.79,3.79,0,0,0,222.64,22a5.23,5.23,0,0,0,4.06-1.65c.18-.18.36-.22.54-.07l2.13,1.87a.31.31,0,0,1,0,.5,9.12,9.12,0,0,1-7.12,2.95C218.6,25.59,216,23.79,215,20.77Zm10.48-7.67a3.71,3.71,0,0,0-6.81,0,4.55,4.55,0,0,0-.21,1.48.19.19,0,0,0,.21.21h6.81a.19.19,0,0,0,.21-.21A4.55,4.55,0,0,0,225.52,13.1Z"/><path d="M233.76,25.2a.35.35,0,0,1-.36-.36V8.21a.34.34,0,0,1,.36-.36h3.31a.34.34,0,0,1,.36.36V9.68h0A5,5,0,0,1,242,7.45a5.22,5.22,0,0,1,3.63,1.44c.18.18.22.32.08.5l-1.91,2.42a.34.34,0,0,1-.51.07,4.64,4.64,0,0,0-2.55-.83c-2.27,0-3.28,1.62-3.28,4.39v9.4a.34.34,0,0,1-.36.36Z"/><path d="M247.23,20.77a13.46,13.46,0,0,1-.62-4.25,13.75,13.75,0,0,1,.58-4.28c1-3,3.64-4.79,7.09-4.79s6.16,1.84,7.13,4.79a15.73,15.73,0,0,1,.57,5.22.35.35,0,0,1-.39.36H250.9c-.15,0-.22.07-.22.21a4,4,0,0,0,.25,1.34A3.8,3.8,0,0,0,254.82,22a5.27,5.27,0,0,0,4.07-1.65c.18-.18.36-.22.54-.07l2.12,1.87a.32.32,0,0,1,0,.5,9.15,9.15,0,0,1-7.13,2.95C250.79,25.59,248.2,23.79,247.23,20.77ZM257.7,13.1a3.71,3.71,0,0,0-6.8,0,4.28,4.28,0,0,0-.22,1.48c0,.14.07.21.22.21h6.8a.19.19,0,0,0,.22-.21A4.53,4.53,0,0,0,257.7,13.1Z"/><path d="M276.56,25.2a.35.35,0,0,1-.36-.36v-10c0-2.23-1.11-3.78-3.27-3.78s-3.31,1.55-3.31,3.78v10a.35.35,0,0,1-.36.36H266a.35.35,0,0,1-.37-.36V8.21a.34.34,0,0,1,.37-.36h3.31a.34.34,0,0,1,.36.36V9.47h0a5.37,5.37,0,0,1,4.57-2c3.71,0,6,2.74,6,6.44v11a.35.35,0,0,1-.36.36Z"/><path d="M289.67,25.41c-3.49,0-4.83-1.69-4.83-5.07V11.19a.19.19,0,0,0-.21-.21h-1.15a.34.34,0,0,1-.36-.36V8.21a.34.34,0,0,1,.36-.36h1.15a.19.19,0,0,0,.21-.22V2.88a.34.34,0,0,1,.36-.36h3.32a.34.34,0,0,1,.36.36V7.63a.19.19,0,0,0,.21.22h2.31a.34.34,0,0,1,.36.36v2.41a.35.35,0,0,1-.36.36h-2.31a.19.19,0,0,0-.21.21v9c0,1.23.5,1.62,1.62,1.62h.9a.35.35,0,0,1,.36.36v2.88a.34.34,0,0,1-.36.36Z"/><path d="M295.1,20.77a13.79,13.79,0,0,1-.61-4.25,13.75,13.75,0,0,1,.58-4.28c1-3,3.63-4.79,7.09-4.79s6.16,1.84,7.13,4.79a15.73,15.73,0,0,1,.57,5.22.35.35,0,0,1-.39.36H298.78c-.15,0-.22.07-.22.21a4,4,0,0,0,.25,1.34A3.8,3.8,0,0,0,302.7,22a5.27,5.27,0,0,0,4.07-1.65c.18-.18.36-.22.54-.07l2.12,1.87a.32.32,0,0,1,0,.5,9.15,9.15,0,0,1-7.13,2.95C298.67,25.59,296.08,23.79,295.1,20.77Zm10.48-7.67a3.71,3.71,0,0,0-6.8,0,4.28,4.28,0,0,0-.22,1.48c0,.14.07.21.22.21h6.8a.19.19,0,0,0,.21-.21A4.55,4.55,0,0,0,305.58,13.1Z"/><path d="M332.22,25.2a.34.34,0,0,1-.36-.36v-10c0-2.23-1.12-3.78-3.28-3.78s-3.31,1.55-3.31,3.78v10a.34.34,0,0,1-.36.36H321.6a.34.34,0,0,1-.36-.36V8.21a.34.34,0,0,1,.36-.36h3.31a.34.34,0,0,1,.36.36V9.47h0a5.36,5.36,0,0,1,4.57-2c3.71,0,6,2.74,6,6.44v11a.34.34,0,0,1-.36.36Z"/><path d="M340.61,4.57a.34.34,0,0,1-.36-.36V1.08a.34.34,0,0,1,.36-.36h3.31a.34.34,0,0,1,.36.36V4.21a.34.34,0,0,1-.36.36Zm0,20.63a.34.34,0,0,1-.36-.36V8.21a.34.34,0,0,1,.36-.36h3.31a.34.34,0,0,1,.36.36V24.84a.34.34,0,0,1-.36.36Z"/><path d="M353.5,25.2a.47.47,0,0,1-.47-.36L346.91,8.21c-.07-.22.07-.36.29-.36h3.52a.46.46,0,0,1,.44.36L355,19.47H355l3.75-11.26a.44.44,0,0,1,.43-.36h3.45c.22,0,.36.14.29.36l-6.12,16.63a.47.47,0,0,1-.47.36Z"/><path d="M365.05,20.77a13.49,13.49,0,0,1-.61-4.25,13.75,13.75,0,0,1,.58-4.28c1-3,3.63-4.79,7.09-4.79s6.15,1.84,7.12,4.79a15.39,15.39,0,0,1,.58,5.22.35.35,0,0,1-.4.36H368.72a.19.19,0,0,0-.21.21,4,4,0,0,0,.25,1.34A3.78,3.78,0,0,0,372.65,22a5.23,5.23,0,0,0,4.06-1.65c.18-.18.36-.22.54-.07l2.13,1.87a.31.31,0,0,1,0,.5,9.12,9.12,0,0,1-7.12,2.95C368.62,25.59,366,23.79,365.05,20.77Zm10.48-7.67a3.71,3.71,0,0,0-6.81,0,4.55,4.55,0,0,0-.21,1.48.19.19,0,0,0,.21.21h6.81a.19.19,0,0,0,.21-.21A4.55,4.55,0,0,0,375.53,13.1Z"/><path d="M388.09,25.41c-3.38,0-4.75-1.62-4.75-5V1.08a.34.34,0,0,1,.36-.36H387a.34.34,0,0,1,.36.36V20.23c0,1.19.47,1.58,1.51,1.58h.79a.34.34,0,0,1,.36.36v2.88a.34.34,0,0,1-.36.36Z"/><path d="M411.63,31.68a.35.35,0,0,1-.36-.36V23.54h0a5.23,5.23,0,0,1-4.61,2.05,5.82,5.82,0,0,1-6-4.17,14.54,14.54,0,0,1-.61-4.9,14.47,14.47,0,0,1,.61-4.89,5.82,5.82,0,0,1,6-4.18,5.23,5.23,0,0,1,4.61,2.05h0V8.21a.34.34,0,0,1,.36-.36h3.31a.34.34,0,0,1,.36.36V31.32a.34.34,0,0,1-.36.36Zm-.72-11.92a10,10,0,0,0,.36-3.24,10,10,0,0,0-.36-3.24,3.44,3.44,0,0,0-6.44,0,10.3,10.3,0,0,0-.36,3.24,10.26,10.26,0,0,0,.36,3.24,3.44,3.44,0,0,0,6.44,0Z"/><path d="M430.5,25.2a.34.34,0,0,1-.36-.36V23.58h0a5.33,5.33,0,0,1-4.5,2c-3.71,0-6-2.73-6-6.44V8.21a.34.34,0,0,1,.36-.36h3.31a.34.34,0,0,1,.36.36v10c0,2.24,1,3.78,3.24,3.78s3.24-1.54,3.24-3.74v-10a.34.34,0,0,1,.36-.36h3.31a.34.34,0,0,1,.36.36V24.84a.35.35,0,0,1-.36.36Z"/><path d="M438.38,20.77a13.49,13.49,0,0,1-.61-4.25,13.75,13.75,0,0,1,.58-4.28c1-3,3.63-4.79,7.09-4.79s6.15,1.84,7.12,4.79a15.39,15.39,0,0,1,.58,5.22.35.35,0,0,1-.39.36h-10.7a.19.19,0,0,0-.21.21,4,4,0,0,0,.25,1.34A3.79,3.79,0,0,0,446,22,5.23,5.23,0,0,0,450,20.34c.18-.18.37-.22.54-.07l2.13,1.87a.32.32,0,0,1,0,.5,9.15,9.15,0,0,1-7.13,2.95C442,25.59,439.35,23.79,438.38,20.77Zm10.48-7.67a3.71,3.71,0,0,0-6.81,0,4.55,4.55,0,0,0-.21,1.48.19.19,0,0,0,.21.21h6.81a.19.19,0,0,0,.21-.21A4.55,4.55,0,0,0,448.86,13.1Z"/><path d="M.36,69.68A.34.34,0,0,1,0,69.32V46.21a.34.34,0,0,1,.36-.36H3.67a.34.34,0,0,1,.36.36V47.5h0a5.21,5.21,0,0,1,4.6-2,5.82,5.82,0,0,1,6,4.18,14.47,14.47,0,0,1,.61,4.89,14.54,14.54,0,0,1-.61,4.9,5.83,5.83,0,0,1-6,4.17,5.21,5.21,0,0,1-4.6-2.05H4v7.78a.34.34,0,0,1-.36.36ZM10.83,57.76a10,10,0,0,0,.36-3.24,10,10,0,0,0-.36-3.24,3.09,3.09,0,0,0-3.2-2.23,3.13,3.13,0,0,0-3.24,2.23A10.3,10.3,0,0,0,4,54.52a10.26,10.26,0,0,0,.36,3.24A3.13,3.13,0,0,0,7.63,60,3.09,3.09,0,0,0,10.83,57.76Z"/><path d="M29.55,63.2a.35.35,0,0,1-.36-.36V61.58h0a5.35,5.35,0,0,1-4.5,2c-3.71,0-6-2.73-6-6.44V46.21a.34.34,0,0,1,.36-.36h3.32a.34.34,0,0,1,.36.36v10c0,2.24,1,3.78,3.24,3.78s3.23-1.54,3.23-3.74v-10a.34.34,0,0,1,.36-.36h3.32a.34.34,0,0,1,.36.36V62.84a.35.35,0,0,1-.36.36Z"/><path d="M37.44,58.77a13.49,13.49,0,0,1-.61-4.25,13.79,13.79,0,0,1,.57-4.28c1-3,3.64-4.79,7.1-4.79s6.15,1.84,7.12,4.79a15.39,15.39,0,0,1,.58,5.22.36.36,0,0,1-.4.36H41.11a.19.19,0,0,0-.21.21,3.72,3.72,0,0,0,.25,1.34A3.78,3.78,0,0,0,45,60a5.23,5.23,0,0,0,4.06-1.65c.18-.18.36-.22.54-.07l2.13,1.87a.31.31,0,0,1,0,.5,9.12,9.12,0,0,1-7.13,3C41,63.59,38.41,61.79,37.44,58.77ZM47.92,51.1a3.71,3.71,0,0,0-6.81,0,4.55,4.55,0,0,0-.21,1.48.19.19,0,0,0,.21.21h6.81a.19.19,0,0,0,.21-.21A4.55,4.55,0,0,0,47.92,51.1Z"/><path d="M66.49,63.2a.34.34,0,0,1-.36-.36v-1.3h0a5.2,5.2,0,0,1-4.6,2.05,5.82,5.82,0,0,1-6-4.17,14.25,14.25,0,0,1-.62-4.9,14.18,14.18,0,0,1,.62-4.89,5.82,5.82,0,0,1,6-4.18,5.2,5.2,0,0,1,4.6,2h0V39.08a.34.34,0,0,1,.36-.36H69.8a.34.34,0,0,1,.36.36V62.84a.34.34,0,0,1-.36.36Zm-.72-5.44a10.26,10.26,0,0,0,.36-3.24,10.3,10.3,0,0,0-.36-3.24,3.44,3.44,0,0,0-6.44,0A10.3,10.3,0,0,0,59,54.52a10.26,10.26,0,0,0,.36,3.24,3.44,3.44,0,0,0,6.44,0Z"/><path d="M74.38,58.77a13.46,13.46,0,0,1-.62-4.25,13.75,13.75,0,0,1,.58-4.28c1-3,3.64-4.79,7.09-4.79s6.16,1.84,7.13,4.79a15.73,15.73,0,0,1,.57,5.22.35.35,0,0,1-.39.36H78.05c-.15,0-.22.07-.22.21a4,4,0,0,0,.25,1.34A3.8,3.8,0,0,0,82,60,5.25,5.25,0,0,0,86,58.34c.18-.18.36-.22.54-.07l2.12,1.87a.32.32,0,0,1,0,.5,9.15,9.15,0,0,1-7.13,3C77.94,63.59,75.35,61.79,74.38,58.77ZM84.85,51.1a3.71,3.71,0,0,0-6.8,0,4.28,4.28,0,0,0-.22,1.48c0,.14.07.21.22.21h6.8c.15,0,.22-.07.22-.21A4.28,4.28,0,0,0,84.85,51.1Z"/><path d="M103.71,63.2a.35.35,0,0,1-.36-.36v-10c0-2.23-1.11-3.78-3.27-3.78s-3.31,1.55-3.31,3.78v10a.35.35,0,0,1-.36.36H93.1a.34.34,0,0,1-.36-.36V46.21a.34.34,0,0,1,.36-.36h3.31a.34.34,0,0,1,.36.36v1.26h0a5.37,5.37,0,0,1,4.57-2c3.71,0,6,2.74,6,6.44v11a.35.35,0,0,1-.36.36Z"/><path d="M119.88,69.68a.34.34,0,0,1-.36-.36V46.21a.34.34,0,0,1,.36-.36h3.31a.34.34,0,0,1,.36.36V47.5h0a5.2,5.2,0,0,1,4.6-2,5.82,5.82,0,0,1,6,4.18,14.47,14.47,0,0,1,.61,4.89,14.54,14.54,0,0,1-.61,4.9,5.83,5.83,0,0,1-6,4.17,5.2,5.2,0,0,1-4.6-2.05h0v7.78a.34.34,0,0,1-.36.36Zm10.47-11.92a10,10,0,0,0,.36-3.24,10,10,0,0,0-.36-3.24,3.44,3.44,0,0,0-6.44,0,10.3,10.3,0,0,0-.36,3.24,10.26,10.26,0,0,0,.36,3.24,3.44,3.44,0,0,0,6.44,0Z"/><path d="M138.78,63.2a.34.34,0,0,1-.36-.36V46.21a.34.34,0,0,1,.36-.36h3.31a.34.34,0,0,1,.36.36v1.47h0a5,5,0,0,1,4.5-2.23,5.24,5.24,0,0,1,3.63,1.44c.18.18.22.32.07.5l-1.9,2.42a.34.34,0,0,1-.51.07,4.64,4.64,0,0,0-2.55-.83c-2.27,0-3.28,1.62-3.28,4.39v9.4a.34.34,0,0,1-.36.36Z"/><path d="M152.24,58.77a13.49,13.49,0,0,1-.61-4.25,13.75,13.75,0,0,1,.58-4.28c1-3,3.63-4.79,7.09-4.79s6.15,1.84,7.12,4.79a15.39,15.39,0,0,1,.58,5.22.35.35,0,0,1-.4.36H155.91a.19.19,0,0,0-.21.21,4,4,0,0,0,.25,1.34A3.79,3.79,0,0,0,159.84,60a5.27,5.27,0,0,0,4.07-1.65.36.36,0,0,1,.54-.07l2.12,1.87a.31.31,0,0,1,0,.5,9.12,9.12,0,0,1-7.12,3C155.81,63.59,153.21,61.79,152.24,58.77Zm10.48-7.67a3.71,3.71,0,0,0-6.81,0,4.55,4.55,0,0,0-.21,1.48.19.19,0,0,0,.21.21h6.81a.19.19,0,0,0,.21-.21A4.55,4.55,0,0,0,162.72,51.1Z"/><path d="M169.56,60.86a.36.36,0,0,1,0-.51l2.05-2.16a.35.35,0,0,1,.5,0,8,8,0,0,0,5.08,2c2.12,0,3.2-.86,3.2-2.05,0-1-.61-1.69-2.88-1.91L175.64,56c-3.53-.36-5.33-2.16-5.33-5.11,0-3.35,2.42-5.47,6.74-5.47a10.53,10.53,0,0,1,6.51,2.12.36.36,0,0,1,.07.51l-1.76,2.12a.36.36,0,0,1-.51.07,8.37,8.37,0,0,0-4.53-1.44c-1.73,0-2.63.76-2.63,1.8s.61,1.62,2.85,1.84l1.87.18c3.63.36,5.36,2.23,5.36,5.08,0,3.45-2.52,5.86-7.27,5.86A10.77,10.77,0,0,1,169.56,60.86Z"/><path d="M187.49,58.77a13.46,13.46,0,0,1-.62-4.25,13.75,13.75,0,0,1,.58-4.28c1-3,3.63-4.79,7.09-4.79s6.16,1.84,7.13,4.79a15.73,15.73,0,0,1,.57,5.22.35.35,0,0,1-.39.36H191.16c-.15,0-.22.07-.22.21a4,4,0,0,0,.25,1.34A3.8,3.8,0,0,0,195.08,60a5.27,5.27,0,0,0,4.07-1.65c.18-.18.36-.22.54-.07l2.12,1.87a.32.32,0,0,1,0,.5,9.15,9.15,0,0,1-7.13,3C191.05,63.59,188.46,61.79,187.49,58.77ZM198,51.1a3.71,3.71,0,0,0-6.8,0,4.28,4.28,0,0,0-.22,1.48c0,.14.07.21.22.21H198a.19.19,0,0,0,.22-.21A4.53,4.53,0,0,0,198,51.1Z"/><path d="M216.82,63.2a.35.35,0,0,1-.36-.36v-10c0-2.23-1.11-3.78-3.27-3.78s-3.31,1.55-3.31,3.78v10a.35.35,0,0,1-.36.36h-3.31a.35.35,0,0,1-.37-.36V46.21a.34.34,0,0,1,.37-.36h3.31a.34.34,0,0,1,.36.36v1.26h0a5.37,5.37,0,0,1,4.57-2c3.71,0,6,2.74,6,6.44v11a.35.35,0,0,1-.36.36Z"/><path d="M229.93,63.41c-3.49,0-4.82-1.69-4.82-5.07V49.19a.19.19,0,0,0-.22-.21h-1.15a.34.34,0,0,1-.36-.36V46.21a.34.34,0,0,1,.36-.36h1.15a.2.2,0,0,0,.22-.22V40.88a.34.34,0,0,1,.36-.36h3.31a.34.34,0,0,1,.36.36v4.75a.19.19,0,0,0,.21.22h2.31a.34.34,0,0,1,.36.36v2.41a.35.35,0,0,1-.36.36h-2.31a.19.19,0,0,0-.21.21v9c0,1.23.5,1.62,1.62,1.62h.9a.35.35,0,0,1,.36.36v2.88a.34.34,0,0,1-.36.36Z"/><path d="M246,63.2a.34.34,0,0,1-.36-.36V61.58h0c-.82,1.18-2.44,2-4.89,2-3.17,0-5.83-1.65-5.83-5.29s2.66-5.51,6.94-5.51h3.53c.15,0,.22-.07.22-.21v-.83c0-2-.94-2.88-3.85-2.88a6,6,0,0,0-4,1.19.33.33,0,0,1-.51-.07l-1.33-2.38a.34.34,0,0,1,.07-.47,10.15,10.15,0,0,1,6.16-1.69c5.29,0,7.23,1.8,7.23,6V62.84a.34.34,0,0,1-.36.36Zm-.43-5.83V56c0-.14-.07-.21-.22-.21h-2.88c-2.59,0-3.74.72-3.74,2.34,0,1.44,1,2.16,3,2.16C244.22,60.32,245.59,59.35,245.59,57.37Z"/><path d="M254.16,63.2a.34.34,0,0,1-.36-.36V46.21a.34.34,0,0,1,.36-.36h3.31a.34.34,0,0,1,.36.36v1.47h0a5,5,0,0,1,4.5-2.23A5.25,5.25,0,0,1,266,46.89c.18.18.22.32.07.5l-1.91,2.42a.32.32,0,0,1-.5.07,4.64,4.64,0,0,0-2.56-.83c-2.26,0-3.27,1.62-3.27,4.39v9.4a.35.35,0,0,1-.36.36Z"/><path d="M266.94,60.86a.35.35,0,0,1,0-.51L269,58.19a.35.35,0,0,1,.5,0,8,8,0,0,0,5.08,2c2.12,0,3.2-.86,3.2-2.05,0-1-.61-1.69-2.88-1.91L273,56c-3.53-.36-5.33-2.16-5.33-5.11,0-3.35,2.41-5.47,6.73-5.47a10.56,10.56,0,0,1,6.52,2.12.36.36,0,0,1,.07.51l-1.76,2.12a.36.36,0,0,1-.51.07,8.4,8.4,0,0,0-4.53-1.44c-1.73,0-2.63.76-2.63,1.8s.61,1.62,2.84,1.84l1.88.18c3.63.36,5.36,2.23,5.36,5.08,0,3.45-2.52,5.86-7.27,5.86A10.75,10.75,0,0,1,266.94,60.86Z"/><path d="M284.86,58.77a13.49,13.49,0,0,1-.61-4.25,13.75,13.75,0,0,1,.58-4.28c1-3,3.63-4.79,7.09-4.79s6.16,1.84,7.13,4.79a15.73,15.73,0,0,1,.57,5.22.35.35,0,0,1-.39.36H288.54c-.15,0-.22.07-.22.21a4,4,0,0,0,.25,1.34A3.8,3.8,0,0,0,292.46,60a5.27,5.27,0,0,0,4.07-1.65c.18-.18.36-.22.54-.07l2.12,1.87a.32.32,0,0,1,0,.5,9.15,9.15,0,0,1-7.13,3C288.43,63.59,285.84,61.79,284.86,58.77Zm10.48-7.67a3.71,3.71,0,0,0-6.8,0,4.28,4.28,0,0,0-.22,1.48c0,.14.07.21.22.21h6.8a.19.19,0,0,0,.21-.21A4.55,4.55,0,0,0,295.34,51.1Z"/><path d="M311.36,69.68a.34.34,0,0,1-.36-.36V46.21a.34.34,0,0,1,.36-.36h3.31a.34.34,0,0,1,.36.36V47.5h0a5.21,5.21,0,0,1,4.6-2,5.82,5.82,0,0,1,6,4.18,14.47,14.47,0,0,1,.61,4.89,14.54,14.54,0,0,1-.61,4.9,5.83,5.83,0,0,1-6,4.17,5.21,5.21,0,0,1-4.6-2.05h0v7.78a.34.34,0,0,1-.36.36Zm10.47-11.92a10,10,0,0,0,.36-3.24,10,10,0,0,0-.36-3.24,3.09,3.09,0,0,0-3.2-2.23,3.13,3.13,0,0,0-3.24,2.23,10.3,10.3,0,0,0-.36,3.24,10.26,10.26,0,0,0,.36,3.24A3.13,3.13,0,0,0,318.63,60,3.09,3.09,0,0,0,321.83,57.76Z"/><path d="M329.54,58.81a12.76,12.76,0,0,1-.58-4.29,12.66,12.66,0,0,1,.58-4.28c1-3,3.64-4.79,7.16-4.79s6.16,1.76,7.13,4.79a12.66,12.66,0,0,1,.58,4.28,12.76,12.76,0,0,1-.58,4.29c-1,3-3.63,4.78-7.13,4.78S330.51,61.83,329.54,58.81Zm10.4-1.08a9.77,9.77,0,0,0,.36-3.21,9.85,9.85,0,0,0-.36-3.2,3.2,3.2,0,0,0-3.24-2.27,3.24,3.24,0,0,0-3.27,2.27,9.85,9.85,0,0,0-.36,3.2,9.77,9.77,0,0,0,.36,3.21A3.23,3.23,0,0,0,336.7,60,3.2,3.2,0,0,0,339.94,57.73Z"/><path d="M348.37,63.2a.34.34,0,0,1-.36-.36V46.21a.34.34,0,0,1,.36-.36h3.31a.34.34,0,0,1,.36.36v1.47h0a5,5,0,0,1,4.5-2.23,5.24,5.24,0,0,1,3.63,1.44c.18.18.22.32.07.5l-1.91,2.42a.32.32,0,0,1-.5.07,4.64,4.64,0,0,0-2.56-.83c-2.26,0-3.27,1.62-3.27,4.39v9.4a.34.34,0,0,1-.36.36Z"/><path d="M371.19,63.2a.35.35,0,0,1-.36-.36V49.19a.19.19,0,0,0-.21-.21h-1.16a.35.35,0,0,1-.36-.36V46.21a.34.34,0,0,1,.36-.36h1.16a.19.19,0,0,0,.21-.22V44.52c0-4,2-5.8,5.76-5.8h1.58a.34.34,0,0,1,.36.36V42a.34.34,0,0,1-.36.36h-1.11c-1.8,0-2.2.43-2.2,2.12v1.19a.2.2,0,0,0,.22.22h3.09a.34.34,0,0,1,.36.36v2.41a.34.34,0,0,1-.36.36h-3.09c-.15,0-.22.07-.22.21V62.84a.34.34,0,0,1-.36.36Z"/><path d="M391.71,63.2a.34.34,0,0,1-.36-.36V61.58h0c-.82,1.18-2.44,2-4.89,2-3.17,0-5.83-1.65-5.83-5.29s2.66-5.51,6.94-5.51h3.53c.15,0,.22-.07.22-.21v-.83c0-2-.94-2.88-3.85-2.88a6,6,0,0,0-4,1.19A.33.33,0,0,1,383,50l-1.33-2.38a.34.34,0,0,1,.07-.47,10.13,10.13,0,0,1,6.16-1.69c5.29,0,7.23,1.8,7.23,6V62.84a.34.34,0,0,1-.36.36Zm-.43-5.83V56c0-.14-.07-.21-.22-.21h-2.88c-2.59,0-3.74.72-3.74,2.34,0,1.44,1,2.16,3,2.16C389.91,60.32,391.28,59.35,391.28,57.37Z"/><path d="M404.17,63.41c-3.39,0-4.76-1.62-4.76-5V39.08a.34.34,0,0,1,.36-.36h3.31a.34.34,0,0,1,.37.36V58.23c0,1.19.46,1.58,1.51,1.58h.79a.34.34,0,0,1,.36.36v2.88a.34.34,0,0,1-.36.36Z"/><path d="M413.81,63.41c-3.38,0-4.75-1.62-4.75-5V39.08a.34.34,0,0,1,.36-.36h3.31a.34.34,0,0,1,.36.36V58.23c0,1.19.47,1.58,1.52,1.58h.79a.35.35,0,0,1,.36.36v2.88a.34.34,0,0,1-.36.36Z"/><path d="M429.22,63.2a.34.34,0,0,1-.36-.36V61.58h0c-.83,1.18-2.45,2-4.9,2-3.17,0-5.83-1.65-5.83-5.29s2.66-5.51,6.94-5.51h3.53c.15,0,.22-.07.22-.21v-.83c0-2-.94-2.88-3.85-2.88a6.06,6.06,0,0,0-4,1.19.33.33,0,0,1-.51-.07l-1.33-2.38a.34.34,0,0,1,.07-.47,10.15,10.15,0,0,1,6.16-1.69c5.29,0,7.23,1.8,7.23,6V62.84a.34.34,0,0,1-.36.36Zm-.43-5.83V56c0-.14-.07-.21-.22-.21h-2.88c-2.59,0-3.74.72-3.74,2.34,0,1.44,1,2.16,3,2.16C427.42,60.32,428.79,59.35,428.79,57.37Z"/><path d="M436,60.86a.36.36,0,0,1,0-.51L438,58.19a.36.36,0,0,1,.51,0,8,8,0,0,0,5.07,2c2.13,0,3.21-.86,3.21-2.05,0-1-.61-1.69-2.88-1.91L442,56c-3.53-.36-5.33-2.16-5.33-5.11,0-3.35,2.41-5.47,6.73-5.47A10.56,10.56,0,0,1,450,47.57a.36.36,0,0,1,.07.51l-1.77,2.12a.35.35,0,0,1-.5.07,8.44,8.44,0,0,0-4.54-1.44c-1.72,0-2.62.76-2.62,1.8s.61,1.62,2.84,1.84l1.87.18c3.64.36,5.37,2.23,5.37,5.08,0,3.45-2.52,5.86-7.28,5.86A10.77,10.77,0,0,1,436,60.86Z"/><path d="M461.66,58.77a13.46,13.46,0,0,1-.62-4.25,13.75,13.75,0,0,1,.58-4.28c1-3,3.64-4.79,7.09-4.79s6.16,1.84,7.13,4.79a15.66,15.66,0,0,1,.58,5.22.36.36,0,0,1-.4.36H465.33c-.15,0-.22.07-.22.21a4,4,0,0,0,.25,1.34A3.8,3.8,0,0,0,469.25,60a5.25,5.25,0,0,0,4.07-1.65c.18-.18.36-.22.54-.07L476,60.14a.32.32,0,0,1,0,.5,9.15,9.15,0,0,1-7.13,3C465.22,63.59,462.63,61.79,461.66,58.77Zm10.47-7.67a3.71,3.71,0,0,0-6.8,0,4.28,4.28,0,0,0-.22,1.48c0,.14.07.21.22.21h6.8a.19.19,0,0,0,.22-.21A4.53,4.53,0,0,0,472.13,51.1Z"/><path d="M491,63.2a.35.35,0,0,1-.37-.36v-10c0-2.23-1.11-3.78-3.27-3.78s-3.31,1.55-3.31,3.78v10a.35.35,0,0,1-.36.36h-3.31a.34.34,0,0,1-.36-.36V46.21a.34.34,0,0,1,.36-.36h3.31a.34.34,0,0,1,.36.36v1.26h0a5.38,5.38,0,0,1,4.58-2c3.7,0,6,2.74,6,6.44v11a.35.35,0,0,1-.36.36Z"/><path d="M11,101.41c-3.38,0-4.75-1.62-4.75-5V77.08a.34.34,0,0,1,.36-.36H9.88a.34.34,0,0,1,.36.36V96.23c0,1.19.47,1.58,1.51,1.58h.8a.35.35,0,0,1,.36.36v2.88a.34.34,0,0,1-.36.36Z"/><path d="M15.68,96.81a12.76,12.76,0,0,1-.58-4.29,12.66,12.66,0,0,1,.58-4.28c1-3,3.63-4.79,7.16-4.79S29,85.21,30,88.24a16.39,16.39,0,0,1,0,8.57c-1,3-3.64,4.78-7.13,4.78S16.65,99.83,15.68,96.81Zm10.4-1.08a9.77,9.77,0,0,0,.36-3.21,9.85,9.85,0,0,0-.36-3.2,3.2,3.2,0,0,0-3.24-2.27,3.24,3.24,0,0,0-3.27,2.27,9.85,9.85,0,0,0-.36,3.2,9.77,9.77,0,0,0,.36,3.21A3.23,3.23,0,0,0,22.84,98,3.2,3.2,0,0,0,26.08,95.73Z"/><path d="M33.1,98.86a.36.36,0,0,1,0-.51l2-2.16a.36.36,0,0,1,.51,0,8,8,0,0,0,5.07,2c2.13,0,3.21-.86,3.21-2s-.61-1.69-2.88-1.91L39.19,94c-3.53-.36-5.33-2.16-5.33-5.11,0-3.35,2.41-5.47,6.73-5.47a10.51,10.51,0,0,1,6.51,2.12.37.37,0,0,1,.08.51L45.41,88.2a.35.35,0,0,1-.5.07,8.44,8.44,0,0,0-4.54-1.44c-1.72,0-2.62.76-2.62,1.8s.61,1.62,2.84,1.84l1.87.18c3.64.36,5.37,2.23,5.37,5.08,0,3.45-2.53,5.86-7.28,5.86A10.77,10.77,0,0,1,33.1,98.86Z"/><path d="M58.08,98.86a.36.36,0,0,1,0-.51l2.06-2.16a.35.35,0,0,1,.5,0,8,8,0,0,0,5.08,2c2.12,0,3.2-.86,3.2-2s-.61-1.69-2.88-1.91L64.17,94c-3.53-.36-5.33-2.16-5.33-5.11,0-3.35,2.41-5.47,6.73-5.47a10.56,10.56,0,0,1,6.52,2.12.36.36,0,0,1,.07.51L70.4,88.2a.36.36,0,0,1-.51.07,8.43,8.43,0,0,0-4.53-1.44c-1.73,0-2.63.76-2.63,1.8s.61,1.62,2.84,1.84l1.87.18c3.64.36,5.37,2.23,5.37,5.08,0,3.45-2.52,5.86-7.27,5.86A10.78,10.78,0,0,1,58.08,98.86Z"/><path d="M76.7,80.57a.34.34,0,0,1-.36-.36V77.08a.34.34,0,0,1,.36-.36H80a.34.34,0,0,1,.36.36v3.13a.34.34,0,0,1-.36.36Zm0,20.63a.34.34,0,0,1-.36-.36V84.21a.34.34,0,0,1,.36-.36H80a.34.34,0,0,1,.36.36v16.63a.35.35,0,0,1-.36.36Z"/><path d="M83.86,98.86a.36.36,0,0,1,0-.51l2-2.16a.36.36,0,0,1,.51,0,8,8,0,0,0,5.07,2c2.13,0,3.21-.86,3.21-2s-.62-1.69-2.88-1.91L89.94,94c-3.52-.36-5.32-2.16-5.32-5.11,0-3.35,2.41-5.47,6.73-5.47a10.51,10.51,0,0,1,6.51,2.12.36.36,0,0,1,.07.51L96.17,88.2a.35.35,0,0,1-.5.07,8.44,8.44,0,0,0-4.54-1.44c-1.73,0-2.63.76-2.63,1.8s.62,1.62,2.85,1.84l1.87.18c3.63.36,5.36,2.23,5.36,5.08,0,3.45-2.52,5.86-7.27,5.86A10.77,10.77,0,0,1,83.86,98.86Z"/><path d="M107.19,101.41c-3.49,0-4.83-1.69-4.83-5.07V87.19a.19.19,0,0,0-.21-.21H101a.34.34,0,0,1-.36-.36V84.21a.34.34,0,0,1,.36-.36h1.15a.19.19,0,0,0,.21-.22V78.88a.34.34,0,0,1,.36-.36H106a.34.34,0,0,1,.36.36v4.75a.19.19,0,0,0,.21.22h2.31a.34.34,0,0,1,.36.36v2.41a.35.35,0,0,1-.36.36h-2.31a.19.19,0,0,0-.21.21v9c0,1.23.5,1.62,1.61,1.62h.91a.35.35,0,0,1,.36.36v2.88a.34.34,0,0,1-.36.36Z"/><path d="M112.62,96.77a13.49,13.49,0,0,1-.61-4.25,13.75,13.75,0,0,1,.58-4.28c1-3,3.63-4.79,7.09-4.79s6.15,1.84,7.13,4.79a15.73,15.73,0,0,1,.57,5.22.35.35,0,0,1-.39.36H116.3c-.15,0-.22.07-.22.21a4,4,0,0,0,.25,1.34A3.8,3.8,0,0,0,120.22,98a5.27,5.27,0,0,0,4.07-1.65c.18-.18.36-.22.54-.07L127,98.14a.32.32,0,0,1,0,.5,9.15,9.15,0,0,1-7.13,3C116.19,101.59,113.6,99.79,112.62,96.77ZM123.1,89.1a3.71,3.71,0,0,0-6.8,0,4.28,4.28,0,0,0-.22,1.48c0,.14.07.21.22.21h6.8a.19.19,0,0,0,.22-.21A4.53,4.53,0,0,0,123.1,89.1Z"/><path d="M152.58,101.2a.35.35,0,0,1-.36-.36v-10c0-2.23-1.11-3.78-3.27-3.78s-3.32,1.55-3.32,3.78v10a.34.34,0,0,1-.36.36H142a.35.35,0,0,1-.36-.36v-10c0-2.23-1.11-3.78-3.27-3.78S135,88.6,135,90.83v10a.35.35,0,0,1-.36.36h-3.32a.35.35,0,0,1-.36-.36V84.21a.34.34,0,0,1,.36-.36h3.32a.34.34,0,0,1,.36.36v1.26h0a5.37,5.37,0,0,1,4.57-2,5.59,5.59,0,0,1,4.75,2.3h0a7.08,7.08,0,0,1,5.54-2.3c4,0,6.3,2.74,6.3,6.44v11a.34.34,0,0,1-.36.36Z"/><path d="M170.94,101.2a.35.35,0,0,1-.36-.36V99.58h0c-.83,1.18-2.45,2-4.9,2-3.17,0-5.83-1.65-5.83-5.29s2.66-5.51,7-5.51h3.52c.15,0,.22-.07.22-.21v-.83c0-2-.94-2.88-3.85-2.88a6.06,6.06,0,0,0-4,1.19.32.32,0,0,1-.5-.07l-1.34-2.38a.33.33,0,0,1,.08-.47,10.09,10.09,0,0,1,6.15-1.69c5.29,0,7.24,1.8,7.24,6v11.34a.35.35,0,0,1-.36.36Zm-.43-5.83V94c0-.14-.07-.21-.22-.21h-2.87c-2.6,0-3.75.72-3.75,2.34,0,1.44,1,2.16,3,2.16C169.14,98.32,170.51,97.35,170.51,95.37Z"/><path d="M177.68,98.86a.35.35,0,0,1,0-.51l2-2.16a.35.35,0,0,1,.5,0,8,8,0,0,0,5.08,2c2.12,0,3.2-.86,3.2-2s-.61-1.69-2.88-1.91L183.76,94c-3.53-.36-5.33-2.16-5.33-5.11,0-3.35,2.41-5.47,6.73-5.47a10.56,10.56,0,0,1,6.52,2.12.36.36,0,0,1,.07.51L190,88.2a.36.36,0,0,1-.51.07A8.43,8.43,0,0,0,185,86.83c-1.73,0-2.63.76-2.63,1.8s.61,1.62,2.84,1.84l1.87.18c3.64.36,5.37,2.23,5.37,5.08,0,3.45-2.52,5.86-7.27,5.86A10.75,10.75,0,0,1,177.68,98.86Z"/><path d="M214.39,101.2a.35.35,0,0,1-.36-.36v-1.3h0a5.23,5.23,0,0,1-4.61,2,5.82,5.82,0,0,1-6-4.17,14.54,14.54,0,0,1-.61-4.9,14.47,14.47,0,0,1,.61-4.89,5.82,5.82,0,0,1,6-4.18,5.23,5.23,0,0,1,4.61,2h0V77.08a.34.34,0,0,1,.36-.36h3.32a.34.34,0,0,1,.36.36v23.76a.35.35,0,0,1-.36.36Zm-.72-5.44a10,10,0,0,0,.36-3.24,10,10,0,0,0-.36-3.24,3.44,3.44,0,0,0-6.44,0,10.3,10.3,0,0,0-.36,3.24,10.26,10.26,0,0,0,.36,3.24,3.44,3.44,0,0,0,6.44,0Z"/><path d="M222.28,96.77a13.49,13.49,0,0,1-.61-4.25,13.79,13.79,0,0,1,.57-4.28c1-3,3.64-4.79,7.09-4.79s6.16,1.84,7.13,4.79a15.39,15.39,0,0,1,.58,5.22.36.36,0,0,1-.4.36H226a.19.19,0,0,0-.22.21,3.72,3.72,0,0,0,.26,1.34A3.78,3.78,0,0,0,229.87,98a5.24,5.24,0,0,0,4.07-1.65c.18-.18.36-.22.54-.07l2.12,1.87a.31.31,0,0,1,0,.5,9.12,9.12,0,0,1-7.13,3C225.84,101.59,223.25,99.79,222.28,96.77Zm10.47-7.67a3.71,3.71,0,0,0-6.8,0,4.53,4.53,0,0,0-.22,1.48.19.19,0,0,0,.22.21h6.8c.15,0,.22-.07.22-.21A4.28,4.28,0,0,0,232.75,89.1Z"/><path d="M258.75,101.2a.34.34,0,0,1-.36-.36V99.58h0c-.83,1.18-2.45,2-4.9,2-3.16,0-5.83-1.65-5.83-5.29s2.67-5.51,6.95-5.51h3.53a.19.19,0,0,0,.21-.21v-.83c0-2-.93-2.88-3.85-2.88a6.08,6.08,0,0,0-4,1.19A.32.32,0,0,1,250,88l-1.33-2.38a.33.33,0,0,1,.07-.47,10.09,10.09,0,0,1,6.15-1.69c5.29,0,7.24,1.8,7.24,6v11.34a.35.35,0,0,1-.36.36Zm-.44-5.83V94a.19.19,0,0,0-.21-.21h-2.88c-2.59,0-3.75.72-3.75,2.34,0,1.44,1.05,2.16,3,2.16C257,98.32,258.31,97.35,258.31,95.37Z"/><path d="M266.13,96.81a17.27,17.27,0,0,1,0-8.57c1-3.1,3.67-4.79,7.16-4.79a7.55,7.55,0,0,1,6,2.7.34.34,0,0,1,0,.5l-2.26,2a.33.33,0,0,1-.51-.07,3.92,3.92,0,0,0-3.2-1.51,3.18,3.18,0,0,0-3.24,2.27,10.11,10.11,0,0,0-.36,3.2,10.38,10.38,0,0,0,.36,3.24A3.18,3.18,0,0,0,273.29,98a3.92,3.92,0,0,0,3.2-1.51.32.32,0,0,1,.51,0l2.26,2c.18.14.15.32,0,.5a7.64,7.64,0,0,1-6,2.66C269.8,101.59,267.13,99.9,266.13,96.81Z"/><path d="M282.51,96.81a17.27,17.27,0,0,1,0-8.57c1-3.1,3.67-4.79,7.16-4.79a7.55,7.55,0,0,1,6,2.7.34.34,0,0,1,0,.5l-2.26,2a.33.33,0,0,1-.51-.07,3.92,3.92,0,0,0-3.2-1.51,3.18,3.18,0,0,0-3.24,2.27,10.11,10.11,0,0,0-.36,3.2,10.38,10.38,0,0,0,.36,3.24A3.18,3.18,0,0,0,289.67,98a3.92,3.92,0,0,0,3.2-1.51.32.32,0,0,1,.51,0l2.26,2c.18.14.15.32,0,.5a7.64,7.64,0,0,1-6,2.66C286.18,101.59,283.51,99.9,282.51,96.81Z"/><path d="M299,96.77a13.46,13.46,0,0,1-.62-4.25,13.75,13.75,0,0,1,.58-4.28c1-3,3.64-4.79,7.09-4.79s6.16,1.84,7.13,4.79a15.39,15.39,0,0,1,.58,5.22.36.36,0,0,1-.4.36H302.63c-.15,0-.22.07-.22.21a3.72,3.72,0,0,0,.26,1.34A3.78,3.78,0,0,0,306.55,98a5.24,5.24,0,0,0,4.07-1.65c.18-.18.36-.22.54-.07l2.12,1.87a.32.32,0,0,1,0,.5,9.14,9.14,0,0,1-7.13,3C302.52,101.59,299.93,99.79,299,96.77Zm10.47-7.67a3.71,3.71,0,0,0-6.8,0,4.28,4.28,0,0,0-.22,1.48c0,.14.07.21.22.21h6.8c.15,0,.22-.07.22-.21A4.28,4.28,0,0,0,309.43,89.1Z"/><path d="M316.27,98.86a.36.36,0,0,1,0-.51l2.06-2.16a.35.35,0,0,1,.5,0,8,8,0,0,0,5.07,2c2.13,0,3.21-.86,3.21-2s-.61-1.69-2.88-1.91L322.36,94c-3.53-.36-5.33-2.16-5.33-5.11,0-3.35,2.41-5.47,6.73-5.47a10.56,10.56,0,0,1,6.52,2.12.36.36,0,0,1,.07.51l-1.77,2.12a.35.35,0,0,1-.5.07,8.44,8.44,0,0,0-4.54-1.44c-1.72,0-2.62.76-2.62,1.8s.61,1.62,2.84,1.84l1.87.18c3.64.36,5.37,2.23,5.37,5.08,0,3.45-2.52,5.86-7.28,5.86A10.77,10.77,0,0,1,316.27,98.86Z"/><path d="M334.16,96.81a16.39,16.39,0,0,1,0-8.57c1-3,3.64-4.79,7.17-4.79s6.15,1.76,7.12,4.79a12.66,12.66,0,0,1,.58,4.28,12.76,12.76,0,0,1-.58,4.29c-1,3-3.63,4.78-7.12,4.78S335.14,99.83,334.16,96.81Zm10.41-1.08a10,10,0,0,0,.36-3.21,10.13,10.13,0,0,0-.36-3.2,3.21,3.21,0,0,0-3.24-2.27,3.26,3.26,0,0,0-3.28,2.27,9.85,9.85,0,0,0-.36,3.2,9.77,9.77,0,0,0,.36,3.21A3.25,3.25,0,0,0,341.33,98,3.2,3.2,0,0,0,344.57,95.73Z"/><path d="M370.74,101.2a.34.34,0,0,1-.36-.36V99.58h0c-.83,1.18-2.45,2-4.89,2-3.17,0-5.83-1.65-5.83-5.29s2.66-5.51,6.94-5.51h3.53a.19.19,0,0,0,.22-.21v-.83c0-2-.94-2.88-3.86-2.88a6,6,0,0,0-3.95,1.19A.33.33,0,0,1,362,88l-1.33-2.38a.34.34,0,0,1,.07-.47,10.13,10.13,0,0,1,6.16-1.69c5.29,0,7.23,1.8,7.23,6v11.34a.34.34,0,0,1-.36.36Zm-.43-5.83V94a.19.19,0,0,0-.22-.21h-2.88c-2.59,0-3.74.72-3.74,2.34,0,1.44,1,2.16,3,2.16C368.94,98.32,370.31,97.35,370.31,95.37Z"/><path d="M396.62,101.2a.35.35,0,0,1-.36-.36V99.58h0c-.83,1.18-2.45,2-4.9,2-3.17,0-5.83-1.65-5.83-5.29s2.66-5.51,6.95-5.51H396c.15,0,.22-.07.22-.21v-.83c0-2-.94-2.88-3.85-2.88a6.06,6.06,0,0,0-4,1.19.33.33,0,0,1-.51-.07l-1.33-2.38a.34.34,0,0,1,.07-.47,10.15,10.15,0,0,1,6.16-1.69c5.29,0,7.23,1.8,7.23,6v11.34a.34.34,0,0,1-.35.36Zm-.43-5.83V94c0-.14-.07-.21-.22-.21h-2.88c-2.59,0-3.74.72-3.74,2.34,0,1.44,1,2.16,3,2.16C394.82,98.32,396.19,97.35,396.19,95.37Z"/><path d="M409.08,101.41c-3.39,0-4.75-1.62-4.75-5V77.08a.34.34,0,0,1,.36-.36H408a.34.34,0,0,1,.36.36V96.23c0,1.19.47,1.58,1.51,1.58h.79a.34.34,0,0,1,.36.36v2.88a.34.34,0,0,1-.36.36Z"/><path d="M418.94,101.41c-3.49,0-4.82-1.69-4.82-5.07V87.19c0-.14-.07-.21-.22-.21h-1.15a.34.34,0,0,1-.36-.36V84.21a.34.34,0,0,1,.36-.36h1.15a.2.2,0,0,0,.22-.22V78.88a.34.34,0,0,1,.36-.36h3.31a.34.34,0,0,1,.36.36v4.75a.2.2,0,0,0,.22.22h2.3a.34.34,0,0,1,.36.36v2.41a.34.34,0,0,1-.36.36h-2.3c-.15,0-.22.07-.22.21v9c0,1.23.5,1.62,1.62,1.62h.9a.34.34,0,0,1,.36.36v2.88a.34.34,0,0,1-.36.36Z"/><path d="M435.36,101.2a.34.34,0,0,1-.36-.36V99.58h0a5.34,5.34,0,0,1-4.5,2c-3.71,0-6-2.73-6-6.44V84.21a.34.34,0,0,1,.36-.36h3.31a.34.34,0,0,1,.36.36v10c0,2.24,1,3.78,3.24,3.78S435,96.45,435,94.25v-10a.34.34,0,0,1,.36-.36h3.31a.34.34,0,0,1,.36.36v16.63a.35.35,0,0,1-.36.36Z"/><path d="M443.93,101.2a.34.34,0,0,1-.36-.36V84.21a.34.34,0,0,1,.36-.36h3.31a.34.34,0,0,1,.36.36v1.47h0a5,5,0,0,1,4.5-2.23,5.25,5.25,0,0,1,3.64,1.44c.18.18.21.32.07.5l-1.91,2.42a.32.32,0,0,1-.5.07,4.64,4.64,0,0,0-2.56-.83c-2.26,0-3.27,1.62-3.27,4.39v9.4a.35.35,0,0,1-.36.36Z"/><path d="M467.76,101.2a.34.34,0,0,1-.36-.36V99.58h0c-.83,1.18-2.45,2-4.9,2-3.16,0-5.83-1.65-5.83-5.29s2.67-5.51,6.95-5.51h3.53a.19.19,0,0,0,.21-.21v-.83c0-2-.93-2.88-3.85-2.88a6.08,6.08,0,0,0-4,1.19A.32.32,0,0,1,459,88l-1.33-2.38a.34.34,0,0,1,.07-.47,10.1,10.1,0,0,1,6.16-1.69c5.29,0,7.23,1.8,7.23,6v11.34a.34.34,0,0,1-.36.36Zm-.44-5.83V94a.19.19,0,0,0-.21-.21h-2.88c-2.59,0-3.74.72-3.74,2.34,0,1.44,1,2.16,3,2.16C466,98.32,467.32,97.35,467.32,95.37Z"/><path d="M474.49,98.86a.36.36,0,0,1,0-.51l2.05-2.16a.36.36,0,0,1,.51,0,8,8,0,0,0,5.07,2c2.12,0,3.2-.86,3.2-2s-.61-1.69-2.88-1.91L480.57,94c-3.52-.36-5.32-2.16-5.32-5.11,0-3.35,2.41-5.47,6.73-5.47a10.53,10.53,0,0,1,6.51,2.12.36.36,0,0,1,.07.51L486.8,88.2a.35.35,0,0,1-.5.07,8.44,8.44,0,0,0-4.54-1.44c-1.73,0-2.63.76-2.63,1.8s.62,1.62,2.85,1.84l1.87.18c3.63.36,5.36,2.23,5.36,5.08,0,3.45-2.52,5.86-7.27,5.86A10.77,10.77,0,0,1,474.49,98.86Z"/><path d="M36.61,134.81a17.27,17.27,0,0,1,0-8.57c1-3.1,3.67-4.79,7.16-4.79a7.55,7.55,0,0,1,6,2.7.35.35,0,0,1,0,.5l-2.27,2a.32.32,0,0,1-.5-.07,4,4,0,0,0-3.21-1.51,3.18,3.18,0,0,0-3.23,2.27,10.07,10.07,0,0,0-.37,3.2,10.34,10.34,0,0,0,.37,3.24A3.18,3.18,0,0,0,43.77,136,4,4,0,0,0,47,134.48a.31.31,0,0,1,.5,0l2.27,2c.18.14.14.32,0,.5a7.65,7.65,0,0,1-6,2.66C40.28,139.59,37.62,137.9,36.61,134.81Z"/><path d="M53,134.81a16.12,16.12,0,0,1,0-8.57c1-3,3.63-4.79,7.16-4.79s6.15,1.76,7.13,4.79a16.39,16.39,0,0,1,0,8.57c-1,3-3.64,4.78-7.13,4.78S54,137.83,53,134.81Zm10.4-1.08a14.45,14.45,0,0,0,0-6.41,3.2,3.2,0,0,0-3.24-2.27,3.24,3.24,0,0,0-3.27,2.27,14.07,14.07,0,0,0,0,6.41A3.23,3.23,0,0,0,60.19,136,3.2,3.2,0,0,0,63.43,133.73Z"/><path d="M93.09,139.2a.35.35,0,0,1-.36-.36v-10c0-2.23-1.11-3.78-3.27-3.78s-3.31,1.55-3.31,3.78v10a.35.35,0,0,1-.36.36H82.47a.35.35,0,0,1-.36-.36v-10c0-2.23-1.11-3.78-3.27-3.78s-3.31,1.55-3.31,3.78v10a.35.35,0,0,1-.36.36H71.85a.34.34,0,0,1-.35-.36V122.21a.33.33,0,0,1,.35-.36h3.32a.34.34,0,0,1,.36.36v1.26h0a5.37,5.37,0,0,1,4.57-2,5.61,5.61,0,0,1,4.76,2.3h0a7.08,7.08,0,0,1,5.54-2.3c4,0,6.3,2.74,6.3,6.44v11a.34.34,0,0,1-.36.36Z"/><path d="M100.76,134.81a16.39,16.39,0,0,1,0-8.57c1-3,3.64-4.79,7.16-4.79s6.16,1.76,7.13,4.79a16.12,16.12,0,0,1,0,8.57c-1,3-3.63,4.78-7.13,4.78S101.73,137.83,100.76,134.81Zm10.41-1.08a14.85,14.85,0,0,0,0-6.41,3.48,3.48,0,0,0-6.52,0,14.45,14.45,0,0,0,0,6.41,3.24,3.24,0,0,0,3.27,2.26A3.21,3.21,0,0,0,111.17,133.73Z"/><path d="M137.34,139.2a.34.34,0,0,1-.36-.36v-1.26h0c-.83,1.18-2.45,2-4.9,2-3.16,0-5.83-1.65-5.83-5.29s2.67-5.51,7-5.51h3.53a.19.19,0,0,0,.21-.21v-.83c0-2-.93-2.88-3.85-2.88a6.08,6.08,0,0,0-4,1.19.32.32,0,0,1-.5-.07l-1.33-2.38a.34.34,0,0,1,.07-.47,10.1,10.1,0,0,1,6.16-1.69c5.29,0,7.23,1.8,7.23,6v11.34a.34.34,0,0,1-.36.36Zm-.44-5.83V132a.19.19,0,0,0-.21-.21h-2.88c-2.59,0-3.74.72-3.74,2.34,0,1.44,1,2.16,3,2.16C135.54,136.32,136.9,135.35,136.9,133.37Z"/><path d="M156.09,139.2a.35.35,0,0,1-.36-.36v-10c0-2.23-1.11-3.78-3.27-3.78s-3.31,1.55-3.31,3.78v10a.35.35,0,0,1-.36.36h-3.32a.35.35,0,0,1-.36-.36V122.21a.34.34,0,0,1,.36-.36h3.32a.34.34,0,0,1,.36.36v1.26h0a5.37,5.37,0,0,1,4.57-2c3.71,0,6,2.74,6,6.44v11a.34.34,0,0,1-.36.36Z"/><path d="M174.81,139.2a.35.35,0,0,1-.36-.36v-1.3h0a5.23,5.23,0,0,1-4.61,2.05,5.82,5.82,0,0,1-6-4.17,14.25,14.25,0,0,1-.62-4.9,14.18,14.18,0,0,1,.62-4.89,5.82,5.82,0,0,1,6-4.18,5.23,5.23,0,0,1,4.61,2h0v-8.42a.34.34,0,0,1,.36-.36h3.31a.34.34,0,0,1,.36.36v23.76a.34.34,0,0,1-.36.36Zm-.72-5.44a14.76,14.76,0,0,0,0-6.48,3.44,3.44,0,0,0-6.44,0,14.76,14.76,0,0,0,0,6.48,3.44,3.44,0,0,0,6.44,0Z"/><path d="M193.35,139.2a.35.35,0,0,1-.36-.36v-1.26h0c-.83,1.18-2.45,2-4.9,2-3.17,0-5.83-1.65-5.83-5.29s2.66-5.51,7-5.51h3.52c.15,0,.22-.07.22-.21v-.83c0-2-.94-2.88-3.85-2.88a6.06,6.06,0,0,0-4,1.19.33.33,0,0,1-.51-.07l-1.33-2.38a.35.35,0,0,1,.07-.47,10.15,10.15,0,0,1,6.16-1.69c5.29,0,7.24,1.8,7.24,6v11.34a.35.35,0,0,1-.36.36Zm-.43-5.83V132c0-.14-.07-.21-.22-.21h-2.88c-2.59,0-3.74.72-3.74,2.34,0,1.44,1,2.16,3,2.16C191.55,136.32,192.92,135.35,192.92,133.37Z"/><path d="M222.73,139.2a.34.34,0,0,1-.36-.36v-10c0-2.23-1.12-3.78-3.28-3.78s-3.31,1.55-3.31,3.78v10a.35.35,0,0,1-.36.36h-3.31a.34.34,0,0,1-.36-.36v-10c0-2.23-1.12-3.78-3.28-3.78s-3.31,1.55-3.31,3.78v10a.34.34,0,0,1-.36.36h-3.31a.34.34,0,0,1-.36-.36V122.21a.34.34,0,0,1,.36-.36h3.31a.34.34,0,0,1,.36.36v1.26h0a5.34,5.34,0,0,1,4.57-2,5.59,5.59,0,0,1,4.75,2.3h0a7.07,7.07,0,0,1,5.54-2.3c4,0,6.3,2.74,6.3,6.44v11a.35.35,0,0,1-.36.36Z"/><path d="M231.12,118.57a.34.34,0,0,1-.36-.36v-3.13a.34.34,0,0,1,.36-.36h3.31a.34.34,0,0,1,.36.36v3.13a.34.34,0,0,1-.36.36Zm0,20.63a.34.34,0,0,1-.36-.36V122.21a.34.34,0,0,1,.36-.36h3.31a.34.34,0,0,1,.36.36v16.63a.35.35,0,0,1-.36.36Z"/><path d="M239,134.81a16.39,16.39,0,0,1,0-8.57c1-3,3.64-4.79,7.17-4.79s6.15,1.76,7.12,4.79a16.12,16.12,0,0,1,0,8.57c-1,3-3.63,4.78-7.12,4.78S239.94,137.83,239,134.81Zm10.41-1.08a14.45,14.45,0,0,0,0-6.41,3.21,3.21,0,0,0-3.24-2.27,3.26,3.26,0,0,0-3.28,2.27,14.45,14.45,0,0,0,0,6.41,3.25,3.25,0,0,0,3.28,2.26A3.2,3.2,0,0,0,249.37,133.73Z"/><path d="M256.39,136.86a.35.35,0,0,1,0-.51l2.05-2.16a.35.35,0,0,1,.5,0,8,8,0,0,0,5.08,2c2.12,0,3.2-.86,3.2-2,0-1-.61-1.69-2.88-1.91l-1.87-.18c-3.53-.36-5.33-2.16-5.33-5.11,0-3.35,2.42-5.47,6.73-5.47a10.56,10.56,0,0,1,6.52,2.12.36.36,0,0,1,.07.51l-1.76,2.12a.36.36,0,0,1-.51.07,8.4,8.4,0,0,0-4.53-1.44c-1.73,0-2.63.76-2.63,1.8s.61,1.62,2.84,1.84l1.88.18c3.63.36,5.36,2.23,5.36,5.08,0,3.45-2.52,5.86-7.27,5.86A10.75,10.75,0,0,1,256.39,136.86Z"/><path d="M282.05,134.81a16.39,16.39,0,0,1,0-8.57c1-3,3.64-4.79,7.17-4.79s6.15,1.76,7.12,4.79a16.12,16.12,0,0,1,0,8.57c-1,3-3.63,4.78-7.12,4.78S283,137.83,282.05,134.81Zm10.41-1.08a14.45,14.45,0,0,0,0-6.41,3.21,3.21,0,0,0-3.24-2.27,3.26,3.26,0,0,0-3.28,2.27,14.45,14.45,0,0,0,0,6.41,3.25,3.25,0,0,0,3.28,2.26A3.2,3.2,0,0,0,292.46,133.73Z"/><path d="M308,134.77a13.49,13.49,0,0,1-.61-4.25,13.75,13.75,0,0,1,.58-4.28c1-3,3.63-4.79,7.09-4.79s6.15,1.84,7.13,4.79a15.73,15.73,0,0,1,.57,5.22.35.35,0,0,1-.39.36H311.65c-.15,0-.22.07-.22.21a4,4,0,0,0,.25,1.34,3.8,3.8,0,0,0,3.89,2.62,5.27,5.27,0,0,0,4.07-1.65c.18-.18.36-.22.54-.07l2.12,1.87a.32.32,0,0,1,0,.5,9.15,9.15,0,0,1-7.13,3C311.54,139.59,309,137.79,308,134.77Zm10.48-7.67a3.71,3.71,0,0,0-6.8,0,4.28,4.28,0,0,0-.22,1.48c0,.14.07.21.22.21h6.8a.19.19,0,0,0,.21-.21A4.55,4.55,0,0,0,318.45,127.1Z"/><path d="M325.29,136.86a.36.36,0,0,1,0-.51l2-2.16a.35.35,0,0,1,.5,0,8,8,0,0,0,5.08,2c2.12,0,3.2-.86,3.2-2,0-1-.61-1.69-2.88-1.91l-1.87-.18c-3.53-.36-5.32-2.16-5.32-5.11,0-3.35,2.41-5.47,6.73-5.47a10.53,10.53,0,0,1,6.51,2.12.36.36,0,0,1,.07.51l-1.76,2.12a.35.35,0,0,1-.5.07,8.44,8.44,0,0,0-4.54-1.44c-1.73,0-2.63.76-2.63,1.8s.61,1.62,2.85,1.84l1.87.18c3.63.36,5.36,2.23,5.36,5.08,0,3.45-2.52,5.86-7.27,5.86A10.77,10.77,0,0,1,325.29,136.86Z"/><path d="M343.15,134.81a17,17,0,0,1,0-8.57c1-3.1,3.67-4.79,7.16-4.79a7.55,7.55,0,0,1,6,2.7.34.34,0,0,1,0,.5l-2.26,2a.33.33,0,0,1-.51-.07,3.92,3.92,0,0,0-3.2-1.51,3.18,3.18,0,0,0-3.24,2.27,10.11,10.11,0,0,0-.36,3.2,10.38,10.38,0,0,0,.36,3.24,3.18,3.18,0,0,0,3.24,2.23,3.92,3.92,0,0,0,3.2-1.51.32.32,0,0,1,.51,0l2.26,2c.18.14.15.32,0,.5a7.64,7.64,0,0,1-6,2.66C346.82,139.59,344.15,137.9,343.15,134.81Z"/><path d="M369.6,139.2a.35.35,0,0,1-.36-.36v-1.26h0c-.83,1.18-2.45,2-4.9,2-3.17,0-5.83-1.65-5.83-5.29s2.66-5.51,6.95-5.51H369a.19.19,0,0,0,.21-.21v-.83c0-2-.93-2.88-3.85-2.88a6.08,6.08,0,0,0-4,1.19.32.32,0,0,1-.5-.07l-1.34-2.38a.34.34,0,0,1,.08-.47,10.09,10.09,0,0,1,6.15-1.69c5.29,0,7.24,1.8,7.24,6v11.34a.35.35,0,0,1-.36.36Zm-.43-5.83V132a.19.19,0,0,0-.21-.21h-2.88c-2.6,0-3.75.72-3.75,2.34,0,1.44,1.05,2.16,3,2.16C367.8,136.32,369.17,135.35,369.17,133.37Z"/><path d="M382.06,139.41c-3.38,0-4.75-1.62-4.75-5V115.08a.34.34,0,0,1,.36-.36H381a.34.34,0,0,1,.36.36v19.15c0,1.19.47,1.58,1.51,1.58h.79a.34.34,0,0,1,.36.36v2.88a.34.34,0,0,1-.36.36Z"/><path d="M386.81,134.77a13.49,13.49,0,0,1-.61-4.25,13.75,13.75,0,0,1,.58-4.28c1-3,3.63-4.79,7.09-4.79s6.15,1.84,7.12,4.79a15.39,15.39,0,0,1,.58,5.22.35.35,0,0,1-.4.36H390.48a.19.19,0,0,0-.21.21,4,4,0,0,0,.25,1.34,3.79,3.79,0,0,0,3.89,2.62,5.23,5.23,0,0,0,4.06-1.65c.18-.18.36-.22.54-.07l2.13,1.87a.31.31,0,0,1,0,.5,9.12,9.12,0,0,1-7.12,3C390.38,139.59,387.78,137.79,386.81,134.77Zm10.48-7.67a3.71,3.71,0,0,0-6.81,0,4.55,4.55,0,0,0-.21,1.48.19.19,0,0,0,.21.21h6.81a.19.19,0,0,0,.21-.21A4.55,4.55,0,0,0,397.29,127.1Z"/><path d="M405.53,139.2a.35.35,0,0,1-.36-.36V122.21a.34.34,0,0,1,.36-.36h3.31a.34.34,0,0,1,.36.36v1.47h0a5,5,0,0,1,4.5-2.23,5.22,5.22,0,0,1,3.63,1.44c.18.18.22.32.08.5l-1.91,2.42a.33.33,0,0,1-.51.07,4.61,4.61,0,0,0-2.55-.83c-2.27,0-3.28,1.62-3.28,4.39v9.4a.34.34,0,0,1-.36.36Z"/><path d="M429.36,139.2a.35.35,0,0,1-.36-.36v-1.26h0c-.83,1.18-2.45,2-4.9,2-3.17,0-5.83-1.65-5.83-5.29s2.66-5.51,6.95-5.51h3.52c.15,0,.22-.07.22-.21v-.83c0-2-.94-2.88-3.85-2.88a6.06,6.06,0,0,0-4,1.19.32.32,0,0,1-.5-.07l-1.34-2.38a.33.33,0,0,1,.08-.47,10.09,10.09,0,0,1,6.15-1.69c5.29,0,7.24,1.8,7.24,6v11.34a.35.35,0,0,1-.36.36Zm-.43-5.83V132c0-.14-.07-.21-.22-.21h-2.88c-2.59,0-3.74.72-3.74,2.34,0,1.44,1,2.16,3,2.16C427.56,136.32,428.93,135.35,428.93,133.37Z"/><path d="M436.1,136.86a.35.35,0,0,1,0-.51l2-2.16a.35.35,0,0,1,.5,0,8,8,0,0,0,5.08,2c2.12,0,3.2-.86,3.2-2,0-1-.61-1.69-2.88-1.91l-1.87-.18c-3.53-.36-5.33-2.16-5.33-5.11,0-3.35,2.41-5.47,6.73-5.47a10.56,10.56,0,0,1,6.52,2.12.36.36,0,0,1,.07.51l-1.76,2.12a.36.36,0,0,1-.51.07,8.43,8.43,0,0,0-4.53-1.44c-1.73,0-2.63.76-2.63,1.8s.61,1.62,2.84,1.84l1.87.18c3.64.36,5.37,2.23,5.37,5.08,0,3.45-2.52,5.86-7.27,5.86A10.75,10.75,0,0,1,436.1,136.86Z"/><path d="M454.09,135.17a.34.34,0,0,1,.37-.36h3.59a.34.34,0,0,1,.37.36v3.67a.35.35,0,0,1-.37.36h-3.59a.35.35,0,0,1-.37-.36Z"/></g></g></svg>