<svg xmlns="http://www.w3.org/2000/svg" xmlns:xlink="http://www.w3.org/1999/xlink" viewBox="0 0 716.76 1091.09"><defs><style>.cls-1{isolation:isolate;}.cls-2{opacity:0.17;fill:url(#linear-gradient);}.cls-10,.cls-11,.cls-2{mix-blend-mode:multiply;}.cls-3{fill:#3c3c3b;}.cls-4{fill:#636362;}.cls-5{opacity:0.75;mix-blend-mode:soft-light;fill:url(#linear-gradient-2);}.cls-6{fill:#dcdbd9;}.cls-7{fill:#bc3004;}.cls-8{fill:#f4f4f4;}.cls-9{fill:#777776;}.cls-10{opacity:0.64;fill:url(#linear-gradient-3);}.cls-11,.cls-12{opacity:0.38;}.cls-11{fill:url(#linear-gradient-4);}.cls-12{mix-blend-mode:color-burn;fill:url(#linear-gradient-5);}.cls-13{fill:#1e1e1e;}.cls-14{fill:#a2a2a3;}.cls-15{fill:#7a7a7a;}</style><linearGradient id="linear-gradient" y1="1031.87" x2="608.11" y2="1031.87" gradientUnits="userSpaceOnUse"><stop offset="0" stop-color="#fff"/><stop offset="0.25" stop-color="#b4b4b4"/><stop offset="0.52" stop-color="#686868"/><stop offset="0.74" stop-color="#303030"/><stop offset="0.91" stop-color="#0d0d0d"/><stop offset="1"/></linearGradient><linearGradient id="linear-gradient-2" x1="527.71" y1="1032.65" x2="716.7" y2="1032.65" gradientUnits="userSpaceOnUse"><stop offset="0" stop-color="#89b3c6"/><stop offset="1" stop-color="#fff"/></linearGradient><linearGradient id="linear-gradient-3" x1="574.76" y1="34.13" x2="672.83" y2="34.13" gradientUnits="userSpaceOnUse"><stop offset="0.02" stop-color="#dbf4f8"/><stop offset="0.04" stop-color="#c8dde0"/><stop offset="0.08" stop-color="#a9b8b9"/><stop offset="0.12" stop-color="#90999a"/><stop offset="0.17" stop-color="#7c8181"/><stop offset="0.22" stop-color="#6e7070"/><stop offset="0.27" stop-color="#666665"/><stop offset="0.33" stop-color="#636362"/><stop offset="0.43" stop-color="#676766"/><stop offset="0.54" stop-color="#747473"/><stop offset="0.65" stop-color="#888887"/><stop offset="0.76" stop-color="#a5a5a4"/><stop offset="0.87" stop-color="#cacaca"/><stop offset="0.98" stop-color="#f7f7f7"/><stop offset="1" stop-color="#fff"/></linearGradient><linearGradient id="linear-gradient-4" x1="561.84" y1="549.69" x2="682.52" y2="549.69" xlink:href="#linear-gradient-3"/><linearGradient id="linear-gradient-5" x1="561.84" y1="549.69" x2="682.52" y2="549.69" gradientUnits="userSpaceOnUse"><stop offset="0.23" stop-color="#636362"/><stop offset="0.74" stop-color="#fbfbfb"/><stop offset="0.75" stop-color="#fff"/><stop offset="0.79" stop-color="#fafafa"/><stop offset="0.83" stop-color="#ececec"/><stop offset="0.87" stop-color="#d5d5d4"/><stop offset="0.92" stop-color="#b4b4b3"/><stop offset="0.96" stop-color="#8a8a89"/><stop offset="1" stop-color="#636362"/></linearGradient></defs><title>Recurso 18</title><g class="cls-1"><g id="Capa_2" data-name="Capa 2"><g id="edificios"><path class="cls-2" d="M78.81,998.66h529.3v66.41H22.27c-22.16,0-30.68-28.86-12.07-40.89l15-9.69A98.76,98.76,0,0,1,78.81,998.66Z"/><path class="cls-3" d="M716.53,1035.58c-.07.82-.08,1.63-.21,2.45s-.44,1.86-.68,2.79-.33,1.61-.6,2.4c-.31.94-.76,1.85-1.15,2.78-.34.78-.59,1.57-1,2.34-.47.92-1.09,1.84-1.65,2.75-.46.75-.84,1.5-1.35,2.25-.65.92-1.45,1.82-2.19,2.74-.56.69-1.05,1.42-1.67,2.1-.84.92-1.83,1.81-2.77,2.73-.66.63-1.25,1.3-2,1.92-1.11,1-2.37,1.9-3.59,2.84-.68.52-1.28,1.06-2,1.58-2,1.42-4.15,2.81-6.44,4.15-36.81,21.38-96.66,21.36-133.7,0-2.33-1.33-4.51-2.73-6.54-4.17-.67-.48-1.23-1-1.86-1.46-1.3-1-2.64-2-3.81-3-.7-.62-1.27-1.26-1.92-1.89-1-.92-2-1.85-2.87-2.8-.63-.7-1.13-1.42-1.71-2.11-.75-.93-1.56-1.83-2.22-2.77-.52-.74-.91-1.51-1.38-2.25-.57-.93-1.19-1.84-1.67-2.78-.4-.78-.67-1.59-1-2.37-.39-.94-.85-1.85-1.17-2.79s-.41-1.61-.61-2.41-.54-1.88-.7-2.81-.14-1.64-.22-2.47-.22-1.86-.22-2.81c0,0,0-.08,0-.13l0,3.67c0,14.1,9.29,28.23,27.93,39,37.05,21.4,96.9,21.41,133.71,0,18.28-10.62,27.44-24.53,27.47-38.46l0-3.66C716.76,1033.81,716.6,1034.69,716.53,1035.58Z"/><path class="cls-4" d="M527.88,1035.31c.08.83.08,1.65.22,2.47s.45,1.87.7,2.81.34,1.61.61,2.41.78,1.85,1.17,2.79c.35.78.62,1.59,1,2.37.48.94,1.1,1.85,1.67,2.78.47.74.86,1.51,1.38,2.25.66.94,1.47,1.84,2.22,2.77.58.69,1.08,1.41,1.71,2.11.87,1,1.89,1.88,2.87,2.8.65.63,1.22,1.27,1.92,1.89,1.17,1,2.51,2,3.81,3,.63.48,1.19,1,1.86,1.46,2,1.44,4.21,2.84,6.54,4.17,37,21.39,96.89,21.41,133.7,0,2.29-1.34,4.44-2.73,6.44-4.15.72-.52,1.32-1.06,2-1.58,1.22-.94,2.48-1.87,3.59-2.84.71-.62,1.3-1.29,2-1.92.94-.92,1.93-1.81,2.77-2.73.62-.68,1.11-1.41,1.67-2.1.74-.92,1.54-1.82,2.19-2.74.51-.75.89-1.5,1.35-2.25.56-.91,1.18-1.83,1.65-2.75.4-.77.65-1.56,1-2.34.39-.93.84-1.84,1.15-2.78.27-.79.4-1.6.6-2.4s.53-1.85.68-2.79.14-1.63.21-2.45c1.29-15-7.88-30.21-27.69-41.65-37.05-21.4-96.92-21.4-133.73,0-18.34,10.66-27.48,24.61-27.45,38.57C527.66,1033.45,527.8,1034.38,527.88,1035.31Z"/><path class="cls-5" d="M527.94,1035.31c.07.83.08,1.65.22,2.47s.45,1.87.69,2.81.35,1.61.62,2.41.77,1.85,1.17,2.79c.34.78.61,1.59,1,2.37.48.94,1.11,1.85,1.68,2.78.46.74.86,1.51,1.37,2.25.66.94,1.48,1.84,2.23,2.77.57.69,1.07,1.41,1.7,2.11.88,1,1.9,1.88,2.88,2.8.64.63,1.22,1.27,1.92,1.89,1.17,1,2.5,2,3.81,3,.63.48,1.19,1,1.85,1.46,2,1.44,4.21,2.84,6.54,4.17,37,21.39,96.9,21.41,133.7,0,2.29-1.34,4.45-2.73,6.45-4.15.72-.52,1.32-1.06,2-1.58,1.22-.94,2.48-1.87,3.58-2.84.72-.62,1.3-1.29,2-1.92.94-.92,1.92-1.81,2.76-2.73.62-.68,1.11-1.41,1.68-2.1.74-.92,1.53-1.82,2.18-2.74.52-.75.9-1.5,1.36-2.25.56-.91,1.17-1.83,1.64-2.75.4-.77.66-1.56,1-2.34.39-.93.85-1.84,1.16-2.78.26-.79.39-1.6.6-2.4s.53-1.85.68-2.79.13-1.63.21-2.45c1.28-15-7.88-30.21-27.69-41.65-37-21.4-96.93-21.4-133.74,0-18.33,10.66-27.47,24.61-27.45,38.57C527.71,1033.45,527.85,1034.38,527.94,1035.31Z"/><path class="cls-6" d="M681.44,40.7a24.36,24.36,0,0,1-1.93,3.81A22.57,22.57,0,0,1,678.23,47a33.09,33.09,0,0,1-3.56,3.94c-.64.65-1.07,1.35-1.79,2a47.36,47.36,0,0,1-7.5,5.33c-23,13.35-60.19,13.35-83.32,0Q579.9,57,578,55.65c-.39-.28-.71-.57-1.08-.85-.84-.63-1.69-1.26-2.45-1.92-.45-.4-.82-.81-1.24-1.21-.59-.57-1.21-1.13-1.74-1.7s-.7-.89-1.07-1.32-1-1.14-1.38-1.73-.57-1-.87-1.42-.73-1.13-1-1.71-.44-1-.66-1.55-.51-1.1-.71-1.66-.26-1-.39-1.55-.33-1.14-.42-1.71-.1-1-.14-1.56-.14-1.14-.14-1.72c0,0,0-.06,0-.1l-2.82,997.18c0,8.8,5.78,17.6,17.4,24.31,23.12,13.35,60.35,13.35,83.32,0,11.39-6.62,17.1-15.29,17.13-24l2.83-997.18a22.06,22.06,0,0,1-.6,3.59A20.91,20.91,0,0,1,681.44,40.7Z"/><path class="cls-7" d="M679.54,974.24c.23,8.68-5.22,17.51-16.42,24.46-22.56,14-59.77,15.12-83.28,2.46-11.38-6.13-17.37-14.38-18-22.83l-.13,26.53c.24,8.78,7.14,17.8,18.95,24.16,23.51,12.66,60.72,11.57,83.29-2.45,11.19-7,16.64-15.79,16.42-24.47Z"/><path class="cls-7" d="M680.13,891.21c.24,8.68-5.81,17.21-17,24.17-22.56,14-59.77,15.11-83.28,2.45-11.38-6.13-17.37-14.37-18-22.83l.18,26.83c.23,8.78,6.83,17.51,18.64,23.86,23.51,12.67,60.72,11.57,83.29-2.45,11.19-7,16.64-15.79,16.42-24.46Z"/><path class="cls-7" d="M680.28,808.19c.23,8.67-6,17.5-17.16,24.46-22.56,14-59.77,15.12-83.28,2.45-11.38-6.13-17.37-14.37-18-22.83l.72,26.92c.22,8.78,6.29,17.42,18.1,23.78,23.51,12.66,60.72,11.57,83.29-2.45,11.19-7,16.64-15.79,16.42-24.47Z"/><path class="cls-7" d="M680.73,725c.23,8.68-6.41,17.36-17.61,24.32-22.56,14-59.77,15.11-83.28,2.45-11.38-6.13-16.74-14.42-17.37-22.88l.09,27c.22,8.79,6.29,17.42,18.1,23.78,23.51,12.66,60.72,11.57,83.29-2.46,11.19-6.95,16.64-15.78,16.42-24.45Z"/><path class="cls-7" d="M680.88,641.23c.23,8.69-6.11,17.52-17.31,24.47-22.57,14-59.77,15.12-83.28,2.46-11.38-6.13-17-14.37-17.67-22.83l.38,26.91c.24,8.79,6.3,17.42,18.11,23.78,23.51,12.66,60.72,11.56,83.29-2.46,11.19-7,16.65-15.78,16.41-24.46Z"/><path class="cls-7" d="M681,557.92c.23,8.67-6,17.5-17.15,24.45-22.58,14-59.78,15.13-83.3,2.47-11.37-6.14-16.74-14.38-17.37-22.84l.09,26.91c.24,8.79,6.3,17.43,18.11,23.78,23.51,12.67,60.72,11.57,83.28-2.45,11.19-7,16.65-15.79,16.42-24.47Z"/><path class="cls-7" d="M681.18,474.59c.23,8.68-6,17.51-17.16,24.46-22.57,14-59.78,15.12-83.29,2.46-11.37-6.13-16.63-13.64-17.26-22.1l0,26.18c.24,8.79,6.3,17.42,18.11,23.78,23.51,12.67,60.72,11.57,83.28-2.46,11.19-6.95,16.65-15.78,16.42-24.46Z"/><path class="cls-7" d="M681.48,391.26c.23,8.68-6.11,17.51-17.31,24.46-22.56,14-59.78,15.13-83.28,2.46-11.38-6.13-16.6-14.37-17.23-22.83l-.06,26.92c.23,8.79,6.3,17.41,18.11,23.78,23.51,12.66,60.71,11.56,83.28-2.46,11.19-6.95,16.65-15.78,16.42-24.46Z"/><path class="cls-7" d="M681.78,307.64c.23,8.68-6.12,17.51-17.31,24.46-22.57,14-59.78,15.13-83.28,2.46-11.39-6.13-16.9-14.37-17.53-22.83l.24,26.91c.23,8.79,6.3,17.42,18.11,23.79,23.51,12.65,60.71,11.56,83.28-2.46,11.2-7,16.65-15.79,16.42-24.47Z"/><path class="cls-7" d="M682.07,224.31c.24,8.69-6.11,17.52-17.3,24.47-22.57,14-59.78,15.12-83.29,2.46-11.38-6.13-16.74-14.38-17.37-22.84l.09,26.91c.23,8.8,6.3,17.43,18.1,23.79,23.51,12.66,60.72,11.56,83.29-2.46,11.2-7,16.65-15.79,16.42-24.46Z"/><path class="cls-7" d="M682.22,141c.24,8.68-6.11,17.51-17.31,24.46-22.56,14-59.77,15.12-83.28,2.46-11.38-6.13-16.44-14.37-17.07-22.83L564.35,172c.23,8.79,6.3,17.42,18.1,23.78,23.51,12.67,60.72,11.57,83.29-2.45,11.2-7,16.65-15.79,16.42-24.47Z"/><path class="cls-7" d="M682.22,57.67c.24,8.68-6,17.5-17.15,24.46-22.57,14-59.78,15.12-83.29,2.46-11.38-6.14-16.59-14.38-17.22-22.84l-.07,26.92c.24,8.79,6.31,17.42,18.11,23.78,23.51,12.66,60.72,11.57,83.29-2.46,11.19-6.95,16.65-15.78,16.42-24.46Z"/><path class="cls-8" d="M564.81,35.76c0,.52.05,1,.14,1.56s.27,1.13.42,1.71.22,1,.39,1.55.47,1.11.71,1.66.4,1,.66,1.55.68,1.14,1,1.71.54,1,.87,1.42.92,1.15,1.38,1.73.68.88,1.07,1.32,1.15,1.13,1.74,1.7c.42.4.79.81,1.24,1.21.76.66,1.61,1.29,2.45,1.92.37.28.69.57,1.08.85q1.9,1.35,4.07,2.6c23.13,13.35,60.35,13.35,83.32,0a47.36,47.36,0,0,0,7.5-5.33c.72-.63,1.15-1.33,1.79-2A33.09,33.09,0,0,0,678.23,47a22.57,22.57,0,0,0,1.28-2.49,24.36,24.36,0,0,0,1.93-3.81,20.91,20.91,0,0,0,.48-2.83c1.84-9.93-3.58-20.25-16.81-27.88-23.06-13.32-60.4-13.32-83.32,0-11.45,6.65-17.14,15.35-17.12,24C564.67,34.62,564.76,35.19,564.81,35.76Z"/><path class="cls-9" d="M574.87,35.49c0,.43,0,.87.12,1.3s.23,1,.35,1.42.19.87.33,1.3.39.92.58,1.38.34.87.56,1.3.57,1,.86,1.42.45.8.72,1.19.77,1,1.16,1.44.56.74.88,1.09,1,1,1.46,1.43.66.68,1,1c.62.54,1.34,1.07,2,1.6.32.23.58.48.91.71,1,.75,2.19,1.47,3.4,2.17,19.28,11.13,50.32,11.13,69.48,0A39.81,39.81,0,0,0,665,49.8c.59-.53,1-1.11,1.49-1.65a28,28,0,0,0,3-3.28,21.45,21.45,0,0,0,1.06-2.08,20.22,20.22,0,0,0,1.61-3.18,17.36,17.36,0,0,0,.4-2.36c1.54-8.28-3-16.89-14-23.25C639.29,2.89,608.15,2.89,589,14c-9.55,5.54-14.29,12.8-14.28,20.06C574.76,34.53,574.83,35,574.87,35.49Z"/><path class="cls-10" d="M574.87,35.49c0,.43,0,.87.12,1.3s.23,1,.35,1.42.19.87.33,1.3.39.92.58,1.38.34.87.56,1.3.57,1,.86,1.42.45.8.72,1.19.77,1,1.16,1.44.56.74.88,1.09,1,1,1.46,1.43.66.68,1,1c.62.54,1.34,1.07,2,1.6.32.23.58.48.91.71,1,.75,2.19,1.47,3.4,2.17,19.28,11.13,50.32,11.13,69.48,0A39.81,39.81,0,0,0,665,49.8c.59-.53,1-1.11,1.49-1.65a28,28,0,0,0,3-3.28,21.45,21.45,0,0,0,1.06-2.08,20.22,20.22,0,0,0,1.61-3.18,17.36,17.36,0,0,0,.4-2.36c1.54-8.28-3-16.89-14-23.25C639.29,2.89,608.15,2.89,589,14c-9.55,5.54-14.29,12.8-14.28,20.06C574.76,34.53,574.83,35,574.87,35.49Z"/><path class="cls-11" d="M681.44,40.7a24.36,24.36,0,0,1-1.93,3.81A22.57,22.57,0,0,1,678.23,47a33.09,33.09,0,0,1-3.56,3.94c-.64.65-1.07,1.35-1.79,2a47.36,47.36,0,0,1-7.5,5.33c-23,13.35-60.19,13.35-83.32,0Q579.9,57,578,55.65c-.39-.28-.71-.57-1.08-.85-.84-.63-1.69-1.26-2.45-1.92-.45-.4-.82-.81-1.24-1.21-.59-.57-1.21-1.13-1.74-1.7s-.7-.89-1.07-1.32-1-1.14-1.38-1.73-.57-1-.87-1.42-.73-1.13-1-1.71-.44-1-.66-1.55-.51-1.1-.71-1.66-.26-1-.39-1.55-.33-1.14-.42-1.71-.1-1-.14-1.56-.14-1.14-.14-1.72c0,0,0-.06,0-.1l-2.82,997.18c0,8.8,5.78,17.6,17.4,24.31,23.12,13.35,60.35,13.35,83.32,0,11.39-6.62,17.1-15.29,17.13-24l2.83-997.18a22.06,22.06,0,0,1-.6,3.59A20.91,20.91,0,0,1,681.44,40.7Z"/><path class="cls-12" d="M681.44,40.7a24.36,24.36,0,0,1-1.93,3.81A22.57,22.57,0,0,1,678.23,47a33.09,33.09,0,0,1-3.56,3.94c-.64.65-1.07,1.35-1.79,2a47.36,47.36,0,0,1-7.5,5.33c-23,13.35-60.19,13.35-83.32,0Q579.9,57,578,55.65c-.39-.28-.71-.57-1.08-.85-.84-.63-1.69-1.26-2.45-1.92-.45-.4-.82-.81-1.24-1.21-.59-.57-1.21-1.13-1.74-1.7s-.7-.89-1.07-1.32-1-1.14-1.38-1.73-.57-1-.87-1.42-.73-1.13-1-1.71-.44-1-.66-1.55-.51-1.1-.71-1.66-.26-1-.39-1.55-.33-1.14-.42-1.71-.1-1-.14-1.56-.14-1.14-.14-1.72c0,0,0-.06,0-.1l-2.82,997.18c0,8.8,5.78,17.6,17.4,24.31,23.12,13.35,60.35,13.35,83.32,0,11.39-6.62,17.1-15.29,17.13-24l2.83-997.18a22.06,22.06,0,0,1-.6,3.59A20.91,20.91,0,0,1,681.44,40.7Z"/><path class="cls-13" d="M586.57,845v6.62l-10.12-5.84,0-6.48L574,837.9l0,11.25h0l-.58,206.61,2.46,1.43,0-7.77,1.16.66,9,5.18,0,7.77,2.47,1.42L589,862.73h0l0-16.35ZM586,1052v1.34l-10.12-5.84,0-8.74,1.16.66,9,5.18Zm0-10.64v1.33l-10.12-5.84,0-8.73,1.16.67,9,5.16Zm0-10.66V1032l-10.12-5.84,0-8.73,1.15.67,9,5.18Zm0-10.65v1.34l-10.12-5.84,0-8.74,1.16.66,9,5.18Zm0-10.65v1.33L576,1004.88l0-8.74,1.15.67,9,5.17Zm0-10.66v1.33L576,994.22l0-8.73,1.16.66,9,5.18Zm0-10.66v1.33L576,983.56l0-8.73,1.15.67,9,5.18Zm0-10.64v1.34l-10.12-5.85,0-8.74,1.16.68,9,5.18Zm0-10.65v1.33l-10.11-5.84,0-8.73,1.15.66,9,5.18Zm0-10.66v1.34l-10.12-5.84,0-8.74,1.16.66,9,5.18Zm0-10.66v1.34L576.15,941l0-8.74,1.15.68,9,5.17Zm0-10.64v1.33l-10.11-5.85,0-8.72,1.15.66,9,5.18Zm0-10.66v1.33l-10.11-5.84,0-8.72,1.15.66,9,5.18Zm0-10.65v1.34L576.24,909l0-8.74,1.15.67,9,5.17Zm0-10.65v1.33l-10.11-5.84,0-8.73,1.15.67,9,5.18Zm0-10.66v1.33l-10.12-5.84,0-8.72,1.15.66,9,5.18Zm0-10.65v1.34l-10.11-5.84,0-8.74,1.15.66,9,5.18Zm0-10.65v1.33l-10.11-5.84,0-8.73,1.15.66,9,5.18Zm.06-14.49h0v5.17l-10.11-5.83v-.28h0l0-7.77,1.15.66,9,5.18Z"/><path class="cls-14" d="M686.78,800.93c-.13.22-.28.44-.42.66v.78h-.48c-.33.5-.6,1-1,1.52,0,12.69-.23,8.29-.28,19.55.49-.81,1-1.59,1.4-2.41.17-.32.32-.66.46-1a25.76,25.76,0,0,0,1-2.74v-14A23.59,23.59,0,0,0,686.78,800.93Z"/><path class="cls-14" d="M684.64,797a34.35,34.35,0,0,0-4.42-5.81v12.55a35.31,35.31,0,0,0,3.07-3.81A24.86,24.86,0,0,0,684.64,797Z"/><path class="cls-14" d="M682.43,807c-.65.72-1.49,1.37-2.21,2.06v.72a17.52,17.52,0,0,1-1.4,6.47v14.26c.44-.42,1-.82,1.4-1.25h0c.8-.83,1.42-1.69,2.11-2.55C682.36,815.28,682.4,819.75,682.43,807Z"/><path class="cls-14" d="M564.85,818.05a18.19,18.19,0,0,1-2.52-8.33v-.88c-.27-.25-.49-.54-.76-.8v20c.27.3.47.62.76.91h0c.74.79,1.68,1.51,2.52,2.26Z"/><path class="cls-14" d="M635.07,848.4c2.38-.28,4.69-.77,7-1.21v-8.48c-2.29.44-4.62.79-7,1.09C635.09,841.43,635.08,843.74,635.07,848.4Z"/><path class="cls-14" d="M664.38,840c1.59-.77,3.3-1.4,4.79-2.28V827.69a45.6,45.6,0,0,1-4.74,3.07C664.42,832.5,664.4,834.61,664.38,840Z"/><path class="cls-14" d="M623.85,849.1c2.62-.05,5.22-.2,7.82-.43,0-4.51,0-6.83.05-8.45-2.6.24-5.24.35-7.87.4Z"/><path class="cls-14" d="M645,846.69c2.45-.53,4.78-1.23,7.13-1.94v-8.66q-3.46,1.14-7.13,2Z"/><path class="cls-14" d="M655.12,843.85c2.21-.74,4.35-1.56,6.44-2.46,0-5.23,0-7.42,0-9.11a65.5,65.5,0,0,1-6.48,2.8Z"/><path class="cls-14" d="M603.09,847.57c2.47.4,4.91.81,7.44,1.06v-8.44c-2.52-.25-4.95-.7-7.4-1.12C603.12,840.64,603.1,842.92,603.09,847.57Z"/><path class="cls-14" d="M567.42,833.48l.61.47c1.14.86,2.44,1.67,3.72,2.49,0-6.23,0-8.07.06-10a31.82,31.82,0,0,1-4.39-4.37Z"/><path class="cls-14" d="M593.74,845.65c2,.52,4,1,6,1.35,0-4.6,0-6.87,0-8.45-2.09-.43-4-1-6.06-1.61Z"/><path class="cls-14" d="M574.52,828.29c0,2,0,4.25,0,9.83,2,1.1,4.12,2,6.25,3v-9c-.31-.15-.69-.26-1-.43A45.37,45.37,0,0,1,574.52,828.29Z"/><path class="cls-14" d="M583.66,842.46c2.28.9,4.72,1.57,7.14,2.29v-8.63a67.47,67.47,0,0,1-7.14-2.8Z"/><path class="cls-14" d="M613.47,848.79c2.48.17,4.94.39,7.43.41v-8.49c-2.49,0-5-.19-7.43-.37Z"/><path class="cls-14" d="M676.24,820.84a29.66,29.66,0,0,1-4.49,4.77V836c1-.67,2.09-1.33,3-2l1-.79.46-.42Z"/><path class="cls-14" d="M559.39,805.73a33.07,33.07,0,0,1-2.67-3.53c0,13-.08,6.66-.11,18.7h0a30.23,30.23,0,0,0,2,3.36c.15.22.27.44.42.65s.28.33.4.48Z"/><path class="cls-14" d="M554.46,814.62c.06.3.06.59.14.89s.23.78.35,1.17c0,.17.13.35.19.52,0-9.94,0-6.31,0-14.29a22.14,22.14,0,0,0-.67,2.34Z"/><path class="cls-14" d="M557.86,796.89a29.84,29.84,0,0,0,4.47,6.88V791l0,0c-.83.88-1.46,1.81-2.18,2.71A36.1,36.1,0,0,0,557.86,796.89Z"/><path class="cls-13" d="M586.39,671v8.82L576.27,674v-5.66l-2.47-2.45-.46,165.51,2.46,1.42,0-7.77,1.16.67,9,5.17,0,7.77L588.4,840l.45-166.61ZM586,827.59v1.34l-10.12-5.85,0-8.73L577,815l9,5.18ZM586,817v1.33l-10.12-5.84,0-8.73,1.16.66,9,5.18Zm0-10.66v1.33l-10.12-5.84,0-8.73,1.15.66,9,5.18Zm0-10.66V797l-10.12-5.84,0-8.73,1.16.66,9,5.18Zm0-10.65v1.33L576,780.47l0-8.73,1.15.67,9,5.18Zm0-10.66v1.34L576,769.82l0-8.73,1.16.66,9,5.18Zm0-10.65V765L576,759.17l0-8.74,1.15.66,9,5.18Zm0-10.64v1.33l-10.12-5.84,0-8.73,1.16.66,9,5.18Zm0-10.65v1.33l-10.11-5.85,0-8.73,1.15.67,9,5.18Zm0-10.66v1.33l-10.12-5.84,0-8.73,1.16.66,9,5.18Zm0-10.65v1.33l-10.11-5.84,0-8.74,1.15.67,9,5.17Zm0-10.66v1.33l-10.11-5.84,0-8.73,1.15.66,9,5.18Zm0-10.65v1.33l-10.11-5.85,0-8.71,1.15.66,9,5.18Zm0-10.65v1.34l-10.11-5.85,0-8.72,1.15.66,9,5.18Z"/><path class="cls-13" d="M592.42,837.44l-4.81,3.23a.53.53,0,0,1-.47.08l-4.47-1.18a38.89,38.89,0,0,1-13.68-6.7h0a.58.58,0,0,1,0-.94l4.81-3.24a.57.57,0,0,1,.55-.05l18,7.79A.58.58,0,0,1,592.42,837.44Z"/><path class="cls-14" d="M687.38,631.89c-.13.23-.28.44-.42.66v.78h-.48c-.33.5-.6,1-1,1.52,0,12.69-.23,8.3-.27,19.54.49-.79,1-1.58,1.4-2.39.17-.34.31-.66.46-1a27.3,27.3,0,0,0,1-2.73v-14C687.86,633.47,687.7,632.67,687.38,631.89Z"/><path class="cls-14" d="M685.25,627.93a35.37,35.37,0,0,0-4.43-5.81v12.54a35.11,35.11,0,0,0,3.07-3.79A27.7,27.7,0,0,0,685.25,627.93Z"/><path class="cls-14" d="M683,637.94c-.65.72-1.5,1.37-2.21,2.06v.72a17.56,17.56,0,0,1-1.4,6.47v14.25c.44-.42,1-.81,1.39-1.24h0c.79-.83,1.42-1.7,2.1-2.55C683,646.25,683,650.71,683,637.94Z"/><path class="cls-14" d="M565.45,649a18.32,18.32,0,0,1-2.53-8.34v-.87c-.27-.27-.49-.54-.75-.81v20c.27.31.47.62.75.92h0c.74.77,1.68,1.5,2.52,2.26Z"/><path class="cls-14" d="M635.66,679.37c2.39-.29,4.69-.78,7-1.21v-8.49c-2.29.45-4.63.79-7,1.09C635.69,672.4,635.68,674.7,635.66,679.37Z"/><path class="cls-14" d="M665,671c1.59-.77,3.3-1.41,4.78-2.27V658.66a47.12,47.12,0,0,1-4.73,3.07C665,663.46,665,665.58,665,671Z"/><path class="cls-14" d="M624.44,680.07c2.63-.06,5.23-.21,7.83-.44,0-4.51,0-6.82.05-8.45-2.61.25-5.24.35-7.88.41Z"/><path class="cls-14" d="M645.63,677.65c2.46-.53,4.78-1.23,7.14-1.94v-8.66c-2.32.75-4.69,1.42-7.14,2Z"/><path class="cls-14" d="M655.71,674.81c2.22-.74,4.36-1.56,6.45-2.47,0-5.22,0-7.4,0-9.1a65.69,65.69,0,0,1-6.49,2.8Z"/><path class="cls-14" d="M603.68,678.53c2.48.41,4.93.82,7.44,1.06v-8.44c-2.51-.24-4.94-.69-7.39-1.11C603.71,671.6,603.7,673.89,603.68,678.53Z"/><path class="cls-14" d="M568,664.45l.61.47c1.14.86,2.43,1.67,3.72,2.48,0-6.23,0-8.07.06-10A32.93,32.93,0,0,1,568,653Z"/><path class="cls-14" d="M594.34,676.61c2,.52,4,.95,6,1.35,0-4.6,0-6.88,0-8.45-2.09-.43-4.06-1-6.06-1.61Z"/><path class="cls-14" d="M575.12,659.25c0,2,0,4.26-.06,9.82,2,1.11,4.13,2,6.26,3v-9c-.32-.16-.69-.26-1-.42A49.1,49.1,0,0,1,575.12,659.25Z"/><path class="cls-14" d="M584.26,673.43c2.28.89,4.72,1.57,7.13,2.28v-8.63a70.4,70.4,0,0,1-7.13-2.79Z"/><path class="cls-14" d="M614.07,679.75c2.47.18,4.94.4,7.43.42v-8.49c-2.49,0-5-.2-7.43-.38Z"/><path class="cls-14" d="M676.85,651.8a30.28,30.28,0,0,1-4.51,4.77V667c1-.67,2.1-1.33,3-2l1-.79c.18-.13.31-.28.48-.42Z"/><path class="cls-14" d="M560,636.69a34.34,34.34,0,0,1-2.66-3.53c0,13-.07,6.66-.11,18.7h0a30.49,30.49,0,0,0,2,3.36c.15.21.27.43.42.65s.27.31.39.48Z"/><path class="cls-14" d="M555.05,645.59c.06.29.07.58.15.88s.23.78.35,1.17c.05.18.13.35.19.53,0-9.95,0-6.31,0-14.29-.24.77-.52,1.55-.68,2.33Z"/><path class="cls-14" d="M558.46,627.86a30.28,30.28,0,0,0,4.46,6.87V622h0c-.84.89-1.47,1.82-2.19,2.73A31.17,31.17,0,0,0,558.46,627.86Z"/><path class="cls-15" d="M688.79,796.74a25.56,25.56,0,0,0,1.77-9.14c0-7.76-3.66-15.13-10.34-21.53v5.09a30.24,30.24,0,0,1,4.53,7v18.63c0,.07-.07.14-.11.22a24.86,24.86,0,0,1-1.35,2.93,35.31,35.31,0,0,1-3.07,3.81c-19.32,21.22-69.37,28.24-105.63,9.93l-.48-.28a47.31,47.31,0,0,1-11.78-9.59,29.84,29.84,0,0,1-4.47-6.88,22.21,22.21,0,0,1-2.28-9.48A23.64,23.64,0,0,1,560.12,774v19.78c.72-.9,1.35-1.83,2.18-2.71V771a0,0,0,0,0,0,0v-5.1c-6.67,6.39-10.29,13.75-10.29,21.5a25.55,25.55,0,0,0,1.13,7.09v12.78a37.69,37.69,0,0,0,.85,7.62c.89,9.32,7.41,18.5,19.72,25.62,26.44,15.3,69.17,15.3,95.45,0,12.45-7.26,18.84-16.64,19.42-26.15l.18-.67Zm-1.29,20.69a24.67,24.67,0,0,1-1,2.62c-.14.32-.29.66-.46,1a27.29,27.29,0,0,1-1.4,2.51v-.1c.05-11.26.23-6.86.28-19.55.36-.5.63-1,1-1.52h.48v-.78c.14-.22.29-.44.42-.66.24-.42.51-.83.72-1.25v17.75Zm-1.14-34.8a20.94,20.94,0,0,1,.66,5,20.08,20.08,0,0,1-.66,4.33ZM674.77,834c-1,.72-2,1.42-3,2.1v-20.5a50.15,50.15,0,0,0,4.49-3.15v20.38c-.15.14-.31.26-.46.38Zm-5.6-16.8v20.55c-1.49.88-3.2,1.51-4.79,2.28,0-5.43,0-7.54,0-9.28,0-2.15,0-3.86.06-11.12C666.11,818.87,667.65,818.05,669.17,817.21Zm-7.57,15.07c0,1.69,0,3.88,0,9.11-2.09.9-4.23,1.72-6.44,2.46v-20.8c2.18-.72,4.49-1.32,6.55-2.2C661.65,828.39,661.63,830,661.6,832.28Zm-9.43,12.47c-2.35.71-4.68,1.41-7.13,1.94V825.84c2.44-.53,4.81-1.11,7.13-1.79v20.7Zm-10.08-18.37v20.81c-2.33.44-4.64.93-7,1.21,0-4.66,0-7,0-8.6,0-2.73,0-3.87.08-12.13C637.57,827.39,639.79,826.81,642.09,826.38Zm-10.37,13.84c0,1.62,0,3.94-.05,8.45-2.6.23-5.2.38-7.82.43V828.34c2.66-.06,5.32-.15,7.94-.37C631.76,836.33,631.74,837.41,631.72,840.22ZM620.9,828.43V849.2c-2.49,0-4.95-.24-7.43-.41V828.13C615.92,828.3,618.4,828.42,620.9,828.43Zm-10.37-.56v20.76c-2.53-.25-5-.66-7.44-1.06,0-4.65,0-6.93,0-8.5,0-2.79,0-3.55.07-12.08C605.6,827.38,608.06,827.64,610.53,827.87ZM599.8,838.55c0,1.58,0,3.85,0,8.45-2-.4-4-.83-6-1.35V824.78c2.06.53,4,1.21,6.14,1.62C599.86,835,599.83,835.72,599.8,838.55Zm-9,6.2c-2.42-.72-4.86-1.39-7.14-2.29V821.62c2.3.89,4.69,1.66,7.14,2.38v20.75Zm-10.08-24.41v20.73c-2.13-.94-4.29-1.85-6.25-3,0-5.58,0-7.79,0-9.83,0-2.27,0-4.36.06-10.63C576.48,818.68,578.66,819.45,580.72,820.34Zm-8.91,6.08c0,2,0,3.79-.06,10v.07c-1.31-.84-2.56-1.68-3.72-2.56l-.61-.47V813.1c1.4,1,2.85,2.06,4.44,3C571.84,822.5,571.83,824.57,571.81,826.42Zm-13.24-2.16a28.75,28.75,0,0,1-2-3.36h0c0-12,.08-5.73.11-18.7a33.07,33.07,0,0,0,2.67,3.53V825.5c-.14-.19-.26-.39-.4-.59S558.72,824.48,558.57,824.26Zm-3.43-24.65c0,1.34,0,2.35,0,3.3,0,8,0,4.35,0,14.29v.12c-.07-.22-.13-.42-.19-.64-.12-.39-.26-.78-.35-1.17,0-.17-.11-.32-.14-.49V797.84C554.71,798.43,554.84,799,555.14,799.61ZM562.33,829h0c-.27-.27-.51-.55-.76-.84V808c.27.26.49.55.76.8.77.75,1.67,1.45,2.52,2.17v20.38C564,830.6,563.11,829.79,562.33,829Zm117.89.27h0c-.44.46-.93.9-1.4,1.35V810.24c.45-.4,1-.79,1.4-1.2.72-.69,1.56-1.34,2.21-2.06,0,12.77-.07,8.3-.1,19.71v.11C681.66,827.62,681,828.43,680.22,829.24Z"/><path class="cls-13" d="M586.39,501.37v8.81l-10.11-5.84v-5.65l-2.47-2.46-.46,165.52,2.46,1.41,0-7.76,1.16.66,9,5.17,0,7.78,2.47,1.42.45-166.6ZM586,658v1.33l-10.12-5.84,0-8.73,1.16.66,9,5.18Zm0-10.64v1.33l-10.12-5.84,0-8.73,1.16.66,9,5.18Zm0-10.66V638l-10.12-5.83,0-8.74,1.15.67,9,5.18Zm0-10.65v1.33l-10.12-5.84,0-8.73,1.16.66,9,5.18Zm0-10.66v1.34L576,610.87l0-8.74,1.15.67,9,5.18Zm0-10.65v1.33L576,600.21l0-8.73,1.16.66,9,5.18Zm0-10.66v1.34L576,589.56l0-8.74,1.15.67,9,5.18Zm0-10.64v1.34l-10.12-5.85,0-8.73,1.16.66,9,5.18Zm0-10.65v1.33l-10.11-5.84,0-8.74,1.15.67,9,5.18Zm0-10.66v1.34l-10.12-5.85,0-8.73,1.16.66,9,5.18Zm0-10.65v1.33L576.15,547l0-8.73,1.15.66,9,5.18Zm0-10.66v1.33l-10.11-5.84,0-8.73,1.15.67,9,5.17Zm0-10.65v1.33l-10.11-5.84,0-8.72,1.15.66,9,5.18Zm0-10.65v1.34L576.24,515l0-8.73,1.15.66,9,5.18Z"/><path class="cls-13" d="M592.62,668.6l-4.81,3.23a.62.62,0,0,1-.48.08l-4.46-1.18A38.88,38.88,0,0,1,569.18,664h0a.58.58,0,0,1,0-.94l4.81-3.23a.59.59,0,0,1,.56-.06l17.94,7.79A.59.59,0,0,1,592.62,668.6Z"/><path class="cls-15" d="M689.39,627.71a25.4,25.4,0,0,0,1.77-9.15c0-7.75-3.66-15.13-10.34-21.52v5.09a29.61,29.61,0,0,1,4.52,7v18.63a2,2,0,0,0-.09.22,27.7,27.7,0,0,1-1.36,2.94,35.11,35.11,0,0,1-3.07,3.79c-19.32,21.23-69.38,28.26-105.63,9.94l-.49-.28a47.45,47.45,0,0,1-11.78-9.59,30.28,30.28,0,0,1-4.46-6.87,22.28,22.28,0,0,1-2.28-9.48,23.67,23.67,0,0,1,4.54-13.47V624.7c.72-.91,1.35-1.84,2.18-2.72V602l0,0v-5.09c-6.66,6.37-10.29,13.75-10.28,21.5a25.53,25.53,0,0,0,1.12,7.08v12.78a38.34,38.34,0,0,0,.85,7.62c.89,9.32,7.42,18.5,19.73,25.62,26.43,15.29,69.16,15.29,95.45,0,12.45-7.26,18.84-16.65,19.42-26.15l.18-.67ZM688.1,648.4a25.37,25.37,0,0,1-1,2.61c-.15.33-.29.65-.46,1a27.29,27.29,0,0,1-1.4,2.51v-.12c0-11.24.22-6.85.27-19.54.37-.49.64-1,1-1.52H687v-.78c.14-.22.29-.43.42-.66.24-.42.5-.83.72-1.25V648.4ZM687,613.59a21,21,0,0,1,.66,5,21.4,21.4,0,0,1-.66,4.33ZM675.37,665q-1.44,1.08-3,2.1V646.58c1.59-1,3.12-2.06,4.51-3.16v20.39l-.48.37Zm-5.61-16.8v20.56c-1.48.86-3.19,1.5-4.78,2.27,0-5.42,0-7.54,0-9.27,0-2.15,0-3.87.06-11.13C666.7,649.84,668.25,649,669.76,648.17Zm-7.56,15.07c0,1.7,0,3.88,0,9.1-2.09.91-4.23,1.73-6.45,2.47V654c2.19-.73,4.49-1.33,6.56-2.2C662.25,659.35,662.22,661,662.2,663.24Zm-9.43,12.47c-2.36.71-4.68,1.41-7.14,1.94V656.8c2.45-.53,4.82-1.11,7.14-1.79v20.7Zm-10.08-18.37v20.82c-2.34.43-4.64.92-7,1.21,0-4.67,0-7,.05-8.61,0-2.73,0-3.87.06-12.14C638.16,658.35,640.38,657.77,642.69,657.34Zm-10.37,13.84c0,1.63,0,3.94-.05,8.45-2.6.23-5.2.38-7.83.44V659.31c2.67-.07,5.34-.15,7.94-.38C632.36,667.29,632.34,668.38,632.32,671.18ZM621.5,659.39v20.78c-2.49,0-5-.24-7.43-.42V659.09C616.52,659.26,619,659.38,621.5,659.39Zm-10.38-.55v20.75c-2.51-.24-5-.65-7.44-1.06,0-4.64,0-6.93.05-8.49,0-2.79,0-3.55.07-12.09C606.2,658.33,608.66,658.6,611.12,658.84ZM600.4,669.51c0,1.57,0,3.85,0,8.45-2-.4-4-.83-6-1.35V655.74c2.06.53,4,1.22,6.14,1.63C600.45,666,600.43,666.68,600.4,669.51Zm-9,6.2c-2.41-.71-4.85-1.39-7.13-2.28V652.58c2.3.89,4.68,1.66,7.13,2.38v20.75Zm-10.07-24.42V672c-2.13-.94-4.29-1.85-6.26-3,0-5.56,0-7.78.06-9.82,0-2.27,0-4.37.06-10.63C577.08,649.65,579.26,650.4,581.32,651.29Zm-8.91,6.09c0,2,0,3.79-.06,10v.07q-2-1.25-3.72-2.55l-.61-.47V644.06c1.4,1,2.85,2.05,4.44,3C572.44,653.47,572.43,655.53,572.41,657.38Zm-13.24-2.15a30.49,30.49,0,0,1-2-3.36h0c0-12,.07-5.72.11-18.7a34.34,34.34,0,0,0,2.66,3.53v19.78c-.14-.2-.25-.4-.39-.59S559.32,655.44,559.17,655.23Zm-3.44-24.66v3.31c0,8,0,4.34,0,14.29v.12c-.07-.22-.13-.43-.19-.65-.12-.39-.26-.78-.35-1.17-.05-.16-.11-.32-.15-.48V628.81C555.31,629.39,555.43,630,555.73,630.57Zm7.2,29.37h0c-.26-.28-.5-.56-.75-.84V639c.26.27.48.54.75.81.78.74,1.68,1.44,2.53,2.16v20.38C564.56,661.55,563.71,660.75,562.93,659.94Zm117.89.26h0c-.43.45-.92.9-1.39,1.34V641.2c.45-.4,1-.79,1.4-1.2.71-.69,1.56-1.34,2.21-2.06,0,12.77-.07,8.31-.11,19.71v.11C682.27,658.59,681.58,659.4,680.82,660.2Z"/><path class="cls-14" d="M687.82,467.06c-.12.22-.27.44-.41.66v.78h-.49c-.33.5-.59,1-.95,1.52-.06,12.69-.24,8.29-.29,19.54a26.82,26.82,0,0,0,1.41-2.4c.16-.32.31-.65.46-1a26.58,26.58,0,0,0,1-2.74v-14C688.3,468.63,688.15,467.84,687.82,467.06Z"/><path class="cls-14" d="M685.69,463.1a34.42,34.42,0,0,0-4.43-5.81v12.55a34.24,34.24,0,0,0,3.08-3.81A25.62,25.62,0,0,0,685.69,463.1Z"/><path class="cls-14" d="M683.48,473.11c-.65.72-1.5,1.36-2.22,2.06v.72a17.3,17.3,0,0,1-1.39,6.47v14.26c.44-.43,1-.82,1.39-1.25h0c.8-.83,1.43-1.69,2.11-2.54C683.41,481.41,683.44,485.88,683.48,473.11Z"/><path class="cls-14" d="M565.9,484.19a18.4,18.4,0,0,1-2.53-8.34V475c-.27-.25-.49-.54-.75-.8v20c.27.31.47.62.75.92h0c.74.79,1.68,1.51,2.52,2.26Z"/><path class="cls-14" d="M636.11,514.53c2.39-.28,4.7-.77,7-1.2v-8.49c-2.29.45-4.63.79-7,1.09C636.14,507.56,636.13,509.87,636.11,514.53Z"/><path class="cls-14" d="M665.43,506.17c1.59-.77,3.29-1.41,4.78-2.28V493.83a48.29,48.29,0,0,1-4.73,3.07C665.46,498.62,665.44,500.74,665.43,506.17Z"/><path class="cls-14" d="M624.89,515.24q3.93-.09,7.83-.44c0-4.51,0-6.82,0-8.45-2.6.25-5.24.35-7.87.4Z"/><path class="cls-14" d="M646.08,512.81c2.45-.52,4.78-1.23,7.14-1.93v-8.66c-2.31.75-4.69,1.42-7.14,2Z"/><path class="cls-14" d="M656.16,510c2.22-.75,4.35-1.56,6.44-2.47,0-5.22,0-7.41,0-9.11a65.72,65.72,0,0,1-6.49,2.81Z"/><path class="cls-14" d="M604.14,513.7c2.46.41,4.91.82,7.43,1.06v-8.44c-2.51-.25-5-.7-7.39-1.12C604.16,506.77,604.15,509.05,604.14,513.7Z"/><path class="cls-14" d="M568.47,499.61l.6.48c1.15.85,2.44,1.67,3.73,2.48,0-6.23,0-8.07.05-10a32.29,32.29,0,0,1-4.38-4.37Z"/><path class="cls-14" d="M594.79,511.78c2,.52,4,1,6,1.35,0-4.6,0-6.88.05-8.45-2.1-.43-4.07-1.05-6.07-1.61Z"/><path class="cls-14" d="M575.57,494.41c0,2,0,4.27-.06,9.83,2,1.11,4.13,2,6.25,3v-9c-.31-.16-.68-.27-1-.43A46.13,46.13,0,0,1,575.57,494.41Z"/><path class="cls-14" d="M584.71,508.59c2.28.9,4.72,1.58,7.13,2.29v-8.63a70.43,70.43,0,0,1-7.13-2.8Z"/><path class="cls-14" d="M614.52,514.92c2.47.17,4.94.4,7.43.41v-8.49c-2.49,0-5-.19-7.43-.37Z"/><path class="cls-14" d="M677.29,487a29.82,29.82,0,0,1-4.5,4.78v10.43c1-.67,2.1-1.33,3-2,.35-.26.68-.52,1-.79.17-.14.3-.29.47-.42Z"/><path class="cls-14" d="M560.43,471.85a34.71,34.71,0,0,1-2.67-3.52c0,13-.07,6.65-.11,18.7h0a29.81,29.81,0,0,0,2,3.37c.15.21.26.43.41.64s.29.32.4.49Z"/><path class="cls-14" d="M555.5,480.75c.06.3.07.59.14.89s.24.78.36,1.17a5.62,5.62,0,0,0,.19.53c0-9.95,0-6.32,0-14.3a22.2,22.2,0,0,0-.68,2.34Z"/><path class="cls-14" d="M558.9,463a30.17,30.17,0,0,0,4.47,6.88V457.12s0,0,0,0c-.84.88-1.47,1.81-2.18,2.71A34.24,34.24,0,0,0,558.9,463Z"/><path class="cls-13" d="M586.39,336.06v8.82L576.27,339v-5.66l-2.47-2.45-.46,165.51,2.46,1.42,0-7.77,1.16.67,9,5.17,0,7.77,2.47,1.43.45-166.61ZM586,492.68V494l-10.12-5.84,0-8.73,1.16.66,9,5.18ZM586,482v1.34l-10.12-5.84,0-8.74,1.16.67,9,5.17Zm0-10.66v1.34l-10.12-5.84,0-8.73,1.15.66,9,5.18Zm0-10.65v1.34l-10.12-5.85,0-8.73,1.16.67,9,5.17Zm0-10.65v1.33L576,445.56l0-8.73,1.15.66,9,5.18Zm0-10.66v1.34L576,434.91l0-8.74,1.16.66,9,5.18Zm0-10.65v1.34L576,424.25l0-8.74,1.15.67,9,5.18Zm0-10.64v1.33l-10.12-5.84,0-8.73,1.16.66,9,5.17Zm0-10.66v1.34L576.09,403l0-8.73,1.15.66,9,5.18Zm0-10.65v1.33l-10.12-5.84,0-8.73,1.16.66,9,5.18Zm0-10.66v1.34l-10.11-5.85,0-8.73,1.15.66,9,5.18Zm0-10.65v1.33L576.18,371l0-8.73,1.15.66,9,5.18Zm0-10.65v1.33l-10.11-5.85,0-8.72,1.15.67,9,5.18Zm0-10.65v1.33l-10.11-5.84,0-8.73,1.15.66,9,5.18Z"/><path class="cls-13" d="M593.46,502.94l-4.8,3.24a.62.62,0,0,1-.48.08l-4.47-1.18A38.91,38.91,0,0,1,570,498.37h0a.58.58,0,0,1,0-.94l4.81-3.24a.61.61,0,0,1,.56-.05l17.94,7.79A.57.57,0,0,1,593.46,502.94Z"/><path class="cls-15" d="M689.83,462.87a25.13,25.13,0,0,0,1.77-9.14c0-7.76-3.66-15.13-10.34-21.53v5.09a29.91,29.91,0,0,1,4.53,7v18.63l-.1.22a25.62,25.62,0,0,1-1.35,2.93,34.24,34.24,0,0,1-3.08,3.81c-19.31,21.22-69.37,28.24-105.63,9.93l-.48-.28a47.49,47.49,0,0,1-11.78-9.59A30.17,30.17,0,0,1,558.9,463a22.35,22.35,0,0,1-2.28-9.48,23.58,23.58,0,0,1,4.55-13.46v19.78c.71-.9,1.34-1.83,2.18-2.71v-20l0,0V432c-6.66,6.38-10.29,13.75-10.28,21.5a25.17,25.17,0,0,0,1.12,7.09V473.4a38.36,38.36,0,0,0,.85,7.63c.89,9.32,7.42,18.5,19.73,25.62,26.43,15.3,69.16,15.3,95.45,0,12.45-7.26,18.84-16.65,19.42-26.15l.17-.67Zm-1.28,20.69a27,27,0,0,1-1,2.62c-.15.33-.3.66-.46,1a28.5,28.5,0,0,1-1.41,2.51v-.11c.05-11.25.23-6.85.29-19.54.36-.5.62-1,.95-1.52h.49v-.78c.14-.22.29-.44.41-.66.25-.42.51-.83.73-1.26v17.76Zm-1.14-34.8a22,22,0,0,1,.67,5,21.42,21.42,0,0,1-.67,4.33Zm-11.6,51.38c-.95.72-2,1.42-3,2.1v-20.5a52.43,52.43,0,0,0,4.5-3.14V499c-.15.13-.32.25-.47.37C676.49,499.62,676.16,499.88,675.81,500.14Zm-5.6-16.8v20.55c-1.49.87-3.19,1.51-4.78,2.28,0-5.43,0-7.55.05-9.27,0-2.16,0-3.87.06-11.14C667.16,485,668.7,484.18,670.21,483.34Zm-7.56,15.06c0,1.7,0,3.89,0,9.11-2.09.91-4.22,1.72-6.44,2.47V489.19c2.19-.73,4.49-1.34,6.56-2.21C662.69,494.52,662.67,496.12,662.65,498.4Zm-9.43,12.48c-2.36.7-4.69,1.41-7.14,1.93V492c2.44-.53,4.81-1.11,7.14-1.8v20.71Zm-10.08-18.37v20.82c-2.33.43-4.64.92-7,1.2,0-4.66,0-7,0-8.6,0-2.73.05-3.87.07-12.14C638.61,493.51,640.83,492.94,643.14,492.51Zm-10.38,13.84c0,1.63,0,3.94,0,8.45q-3.9.35-7.83.44V494.47c2.67-.06,5.33-.15,7.94-.37C632.81,502.46,632.79,503.54,632.76,506.35ZM622,494.56v20.77c-2.49,0-5-.24-7.43-.41V494.26C617,494.43,619.44,494.55,622,494.56ZM611.57,494v20.76c-2.52-.24-5-.65-7.43-1.06,0-4.65,0-6.93,0-8.5,0-2.79.05-3.54.07-12.08C606.65,493.5,609.1,493.76,611.57,494Zm-10.71,10.68c0,1.57,0,3.85-.05,8.45-2-.4-4-.83-6-1.35V490.91c2.05.53,4,1.21,6.14,1.62C600.9,501.13,600.87,501.84,600.86,504.68Zm-9,6.2c-2.41-.71-4.85-1.39-7.13-2.29V487.74c2.3.9,4.68,1.67,7.13,2.38v20.76Zm-10.08-24.41V507.2c-2.12-.95-4.28-1.85-6.25-3,0-5.56,0-7.78.06-9.83,0-2.26,0-4.35,0-10.62C577.53,484.81,579.71,485.58,581.76,486.47Zm-8.91,6.08c0,1.95,0,3.79-.05,10v.06c-1.31-.83-2.56-1.67-3.73-2.54l-.6-.48V479.23c1.4,1,2.85,2.06,4.44,3C572.89,488.63,572.87,490.7,572.85,492.55Zm-13.23-2.15a31.4,31.4,0,0,1-2-3.37h0c0-12,.08-5.72.11-18.7a34.71,34.71,0,0,0,2.67,3.52v19.79c-.14-.2-.25-.4-.4-.6S559.77,490.61,559.62,490.4Zm-3.44-24.66V469c0,8,0,4.35,0,14.3v.11c-.07-.21-.13-.43-.19-.64-.12-.39-.26-.78-.36-1.17,0-.16-.11-.32-.14-.49V464C555.76,464.56,555.88,465.16,556.18,465.74Zm7.2,29.36h0c-.26-.28-.5-.56-.75-.84V474.17c.26.26.48.55.75.8.77.75,1.67,1.45,2.53,2.17v20.37C565,496.73,564.15,495.92,563.38,495.1Zm117.88.26h0c-.44.45-.92.89-1.39,1.34V476.37c.45-.41,1-.79,1.39-1.2.72-.7,1.57-1.34,2.22-2.06,0,12.77-.07,8.3-.11,19.71v.11C682.71,493.75,682,494.56,681.26,495.36Z"/><path class="cls-14" d="M688.27,300.16c-.13.22-.28.44-.41.66v.78h-.49c-.33.5-.6,1-1,1.52,0,12.69-.23,8.29-.28,19.54.5-.79,1-1.59,1.41-2.39.16-.33.31-.66.46-1a29.14,29.14,0,0,0,1-2.74v-14C688.75,301.74,688.6,300.94,688.27,300.16Z"/><path class="cls-14" d="M686.14,296.2a34.42,34.42,0,0,0-4.43-5.81v12.55a35.41,35.41,0,0,0,3.08-3.81A25.76,25.76,0,0,0,686.14,296.2Z"/><path class="cls-14" d="M683.92,306.21c-.65.72-1.49,1.37-2.21,2.06V309a17.3,17.3,0,0,1-1.39,6.47v14.26c.44-.43,1-.82,1.39-1.25h0a32.62,32.62,0,0,0,2.11-2.54C683.85,314.51,683.89,319,683.92,306.21Z"/><path class="cls-14" d="M566.34,317.29a18.39,18.39,0,0,1-2.52-8.34v-.88c-.27-.26-.49-.54-.76-.79v20c.28.3.48.61.76.91h0c.75.79,1.69,1.51,2.52,2.27Z"/><path class="cls-14" d="M636.56,347.64c2.39-.29,4.69-.78,7-1.21v-8.49c-2.28.45-4.62.8-7,1.09C636.58,340.66,636.57,343,636.56,347.64Z"/><path class="cls-14" d="M665.88,339.27c1.58-.77,3.29-1.41,4.78-2.28V326.93a47.3,47.3,0,0,1-4.74,3.07C665.91,331.73,665.89,333.85,665.88,339.27Z"/><path class="cls-14" d="M625.34,348.34c2.62,0,5.23-.21,7.83-.44,0-4.51,0-6.82,0-8.44-2.6.24-5.24.33-7.87.39Z"/><path class="cls-14" d="M646.53,345.92c2.45-.53,4.78-1.24,7.13-1.93v-8.67c-2.31.75-4.68,1.42-7.13,2Z"/><path class="cls-14" d="M656.61,343.09c2.21-.75,4.35-1.57,6.44-2.48,0-5.23,0-7.41.05-9.11a69.35,69.35,0,0,1-6.49,2.82Z"/><path class="cls-14" d="M604.59,346.81c2.46.4,4.91.81,7.43,1.05v-8.44c-2.51-.25-4.95-.7-7.4-1.12C604.61,339.87,604.6,342.16,604.59,346.81Z"/><path class="cls-14" d="M568.92,332.72l.6.47c1.15.86,2.44,1.67,3.73,2.48,0-6.23,0-8.07,0-10a31.73,31.73,0,0,1-4.38-4.37Z"/><path class="cls-14" d="M595.23,344.88c2,.52,4,.95,6,1.35,0-4.6,0-6.87,0-8.45-2.09-.43-4.06-1-6.07-1.61Z"/><path class="cls-14" d="M576,327.51c0,2.05,0,4.27,0,9.83,2,1.11,4.13,2,6.25,3v-9c-.31-.16-.68-.26-1-.42A48.75,48.75,0,0,1,576,327.51Z"/><path class="cls-14" d="M585.16,341.69c2.28.9,4.71,1.58,7.13,2.3v-8.64a72.83,72.83,0,0,1-7.13-2.79Z"/><path class="cls-14" d="M615,348c2.48.16,4.94.39,7.43.4v-8.49c-2.49,0-5-.19-7.43-.37Z"/><path class="cls-14" d="M677.74,320.06a29.84,29.84,0,0,1-4.5,4.79v10.42c1-.67,2.09-1.33,3-2,.35-.26.68-.52,1-.79.17-.14.3-.29.47-.42Z"/><path class="cls-14" d="M560.88,305a36,36,0,0,1-2.67-3.53c0,13-.07,6.66-.11,18.7h0a30.6,30.6,0,0,0,2,3.36c.14.21.26.43.41.64s.29.33.4.49Z"/><path class="cls-14" d="M556,313.85c.06.3.07.59.14.89s.24.78.35,1.17c0,.18.14.35.19.53,0-9.95,0-6.31,0-14.3a22.92,22.92,0,0,0-.68,2.34Z"/><path class="cls-14" d="M559.35,296.12a30.17,30.17,0,0,0,4.47,6.88V290.23l0,0a33.47,33.47,0,0,0-2.18,2.7A34.24,34.24,0,0,0,559.35,296.12Z"/><path class="cls-13" d="M586.39,168.08v8.81l-10.11-5.84v-5.66l-2.47-2.46-.46,165.52,2.46,1.42,0-7.77,1.16.67,9,5.17,0,7.78,2.47,1.42.45-166.61ZM586,324.68V326l-10.12-5.84,0-8.73,1.16.66,9,5.18Zm0-10.63v1.33l-10.12-5.85,0-8.73,1.16.67,9,5.17Zm0-10.66v1.33l-10.12-5.84,0-8.73,1.15.66,9,5.18Zm0-10.65v1.33l-10.12-5.85,0-8.72,1.16.66,9,5.18Zm0-10.66v1.34L576,277.57l0-8.73,1.15.66,9,5.18Zm0-10.65v1.33L576,266.92l0-8.73,1.16.66,9,5.18Zm0-10.66v1.33L576,256.26l0-8.73,1.15.67,9,5.17Zm0-10.65v1.34l-10.12-5.84,0-8.73,1.16.66,9,5.18Zm0-10.65v1.34L576.09,235l0-8.74,1.15.67,9,5.18Zm0-10.65v1.33l-10.12-5.84,0-8.73,1.16.66,9,5.18Zm0-10.66v1.34l-10.11-5.84,0-8.74,1.15.67,9,5.18Zm0-10.65v1.34L576.18,203l0-8.73,1.15.66,9,5.18Zm0-10.66v1.34l-10.11-5.84,0-8.72,1.15.66,9,5.18Zm0-10.64v1.34l-10.11-5.85,0-8.73,1.15.66,9,5.18Z"/><path class="cls-13" d="M590.79,335.78,586,339a.6.6,0,0,1-.47.08L581,337.92c-5-1.32-8.88-4.19-12.95-7.31h0a.58.58,0,0,1,0-.94l5.83-3.43,16.75,8.53A.58.58,0,0,1,590.79,335.78Z"/><path class="cls-15" d="M690.28,296a25.09,25.09,0,0,0,1.77-9.14c0-7.75-3.66-15.13-10.34-21.53v5.09a30.46,30.46,0,0,1,4.53,7V296a2.09,2.09,0,0,0-.1.21,25.76,25.76,0,0,1-1.35,2.93,35.41,35.41,0,0,1-3.08,3.81c-19.32,21.22-69.37,28.24-105.62,9.93l-.49-.28A47.09,47.09,0,0,1,563.82,303a30.17,30.17,0,0,1-4.47-6.88,22.39,22.39,0,0,1-2.28-9.48,23.65,23.65,0,0,1,4.55-13.46V293a33.47,33.47,0,0,1,2.18-2.7v-20l0,0v-5.1c-6.67,6.38-10.29,13.75-10.28,21.51a25.16,25.16,0,0,0,1.12,7.08v12.78a38.34,38.34,0,0,0,.85,7.62c.89,9.32,7.42,18.5,19.73,25.63,26.43,15.29,69.16,15.29,95.44,0,12.46-7.25,18.85-16.65,19.43-26.15l.17-.67ZM689,316.67a27.9,27.9,0,0,1-1,2.61c-.15.33-.3.66-.46,1a27.42,27.42,0,0,1-1.41,2.51v-.12c0-11.25.23-6.85.28-19.54.36-.5.63-1,1-1.52h.49v-.78c.13-.22.28-.44.41-.66.24-.42.51-.83.73-1.25v17.76Zm-1.14-34.81a21.47,21.47,0,0,1,.66,5,20.72,20.72,0,0,1-.66,4.33Zm-11.6,51.38c-1,.72-2,1.42-3,2.11v-20.5a50.39,50.39,0,0,0,4.5-3.16v20.39l-.47.37C676.94,332.72,676.61,333,676.26,333.24Zm-5.6-16.8V337c-1.49.87-3.2,1.51-4.78,2.28,0-5.42,0-7.54,0-9.27,0-2.15.05-3.87.06-11.14C667.6,318.11,669.14,317.28,670.66,316.44ZM663.1,331.5c0,1.7,0,3.88-.05,9.11-2.09.91-4.23,1.73-6.44,2.48v-20.8c2.19-.74,4.49-1.34,6.55-2.2C663.14,327.62,663.12,329.22,663.1,331.5ZM653.66,344c-2.35.69-4.68,1.4-7.13,1.93V325.07c2.44-.53,4.81-1.11,7.13-1.8V344Zm-10.08-18.37v20.81c-2.33.43-4.63.92-7,1.21,0-4.67,0-7,0-8.61,0-2.73,0-3.87.07-12.13C639.06,326.61,641.27,326,643.58,325.62Zm-10.37,13.84c0,1.62,0,3.93,0,8.44-2.6.23-5.21.39-7.83.44V327.58c2.66-.07,5.33-.16,7.94-.38C633.25,335.56,633.23,336.65,633.21,339.46Zm-10.82-11.8v20.77c-2.49,0-4.95-.24-7.43-.4V327.36C617.42,327.53,619.89,327.65,622.39,327.66ZM612,327.11v20.75c-2.52-.24-5-.65-7.43-1.05,0-4.65,0-6.94,0-8.51,0-2.78,0-3.54.07-12.08C607.09,326.6,609.55,326.87,612,327.11ZM601.3,337.78c0,1.58,0,3.85,0,8.45-2-.4-4-.83-6-1.35V324c2.06.53,4,1.22,6.14,1.63C601.35,334.23,601.32,335,601.3,337.78Zm-9,6.21c-2.42-.72-4.85-1.4-7.13-2.3V320.85c2.3.89,4.68,1.66,7.13,2.38V344Zm-10.08-24.42V340.3c-2.12-.94-4.29-1.85-6.25-3,0-5.56,0-7.78,0-9.83,0-2.26,0-4.35.06-10.62C578,317.91,580.16,318.68,582.21,319.57Zm-8.91,6.08c0,2,0,3.79,0,10v.06c-1.32-.83-2.56-1.67-3.73-2.54l-.6-.47V312.33c1.4,1,2.85,2.06,4.44,3C573.34,321.74,573.32,323.8,573.3,325.65Zm-13.23-2.15a30.6,30.6,0,0,1-2-3.36h0c0-12,.08-5.72.11-18.7a36,36,0,0,0,2.67,3.53v19.78l-.4-.6C560.33,323.93,560.21,323.71,560.07,323.5Zm-3.44-24.66v3.3c0,8,0,4.35,0,14.3v.12c-.06-.22-.12-.44-.19-.65-.11-.39-.25-.78-.35-1.17,0-.17-.11-.32-.14-.48V297.07C556.21,297.66,556.33,298.27,556.63,298.84Zm7.19,29.36h0c-.27-.28-.51-.56-.76-.84V307.28c.27.25.49.53.76.79.77.75,1.67,1.45,2.52,2.17v20.37C565.46,329.83,564.6,329,563.82,328.2Zm117.89.26h0c-.44.46-.92.9-1.39,1.34V309.47c.45-.4,1-.78,1.39-1.2.72-.69,1.56-1.34,2.21-2.06,0,12.77-.07,8.3-.1,19.71V326C683.16,326.85,682.48,327.67,681.71,328.46Z"/><path class="cls-14" d="M688.72,132.9c-.13.22-.28.44-.42.66v.77h-.48c-.33.51-.6,1-1,1.53-.05,12.68-.23,8.29-.28,19.53A26.55,26.55,0,0,0,688,153c.17-.33.32-.66.46-1a22.47,22.47,0,0,0,1-2.73v-14A22.82,22.82,0,0,0,688.72,132.9Z"/><path class="cls-14" d="M686.59,128.93a35.24,35.24,0,0,0-4.43-5.81v12.55a35,35,0,0,0,3.07-3.8A27.7,27.7,0,0,0,686.59,128.93Z"/><path class="cls-14" d="M684.37,139c-.65.71-1.49,1.36-2.21,2.06v.71a17.41,17.41,0,0,1-1.4,6.48v14.25c.45-.42,1-.82,1.4-1.25h0c.8-.83,1.42-1.69,2.11-2.55C684.3,147.25,684.34,151.71,684.37,139Z"/><path class="cls-14" d="M566.79,150a18.26,18.26,0,0,1-2.52-8.33v-.88c-.27-.26-.49-.54-.76-.8v20c.27.3.48.61.76.91h0c.74.78,1.68,1.51,2.52,2.26Z"/><path class="cls-14" d="M637,180.37c2.38-.28,4.69-.78,7-1.21v-8.49c-2.29.45-4.62.8-7,1.1C637,173.4,637,175.71,637,180.37Z"/><path class="cls-14" d="M666.32,172c1.59-.77,3.3-1.42,4.79-2.28V159.66a47.3,47.3,0,0,1-4.74,3.07C666.36,164.46,666.34,166.58,666.32,172Z"/><path class="cls-14" d="M625.79,181.07c2.62,0,5.23-.2,7.83-.43,0-4.51,0-6.83,0-8.45-2.6.24-5.24.34-7.87.4Z"/><path class="cls-14" d="M647,178.65c2.45-.53,4.78-1.23,7.13-1.93v-8.67c-2.31.75-4.68,1.43-7.13,2Z"/><path class="cls-14" d="M657.06,175.81c2.21-.73,4.35-1.56,6.44-2.46,0-5.23,0-7.41,0-9.11a64.36,64.36,0,0,1-6.49,2.8Z"/><path class="cls-14" d="M605,179.53c2.47.41,4.92.82,7.44,1.06v-8.43c-2.51-.25-5-.7-7.4-1.12C605.06,172.61,605,174.9,605,179.53Z"/><path class="cls-14" d="M569.37,165.45l.6.47c1.14.86,2.44,1.67,3.72,2.49,0-6.24,0-8.08.06-10a32.24,32.24,0,0,1-4.38-4.36Z"/><path class="cls-14" d="M595.68,177.62c2,.51,4,.94,6,1.34,0-4.59,0-6.87,0-8.44-2.1-.44-4.06-1.06-6.07-1.62Z"/><path class="cls-14" d="M576.46,160.25c0,2.05,0,4.26-.05,9.83,2,1.1,4.12,2,6.25,2.95v-9c-.31-.16-.69-.27-1-.43A45.4,45.4,0,0,1,576.46,160.25Z"/><path class="cls-14" d="M585.6,174.43c2.28.89,4.72,1.57,7.14,2.29v-8.64a70.58,70.58,0,0,1-7.14-2.79Z"/><path class="cls-14" d="M615.41,180.76c2.48.17,4.94.4,7.43.41v-8.49c-2.48,0-5-.2-7.43-.37Z"/><path class="cls-14" d="M678.19,152.8a30.68,30.68,0,0,1-4.5,4.78V168c1-.67,2.09-1.32,3-2,.35-.25.68-.52,1-.78.16-.14.3-.29.47-.43Z"/><path class="cls-14" d="M561.33,137.69a33.4,33.4,0,0,1-2.67-3.53c0,13-.07,6.66-.11,18.71h0a32.17,32.17,0,0,0,2,3.36c.15.22.27.44.42.65s.28.32.4.49Z"/><path class="cls-14" d="M556.39,146.59c.07.29.07.59.15.88s.23.78.35,1.17c.05.18.13.35.19.53,0-9.95,0-6.31,0-14.29-.24.77-.51,1.55-.68,2.34Z"/><path class="cls-14" d="M559.81,128.86a29.41,29.41,0,0,0,4.46,6.87V123l0,0c-.84.88-1.47,1.8-2.19,2.71A32.69,32.69,0,0,0,559.81,128.86Z"/><path class="cls-13" d="M586.24,60.64v2.81l-10.12-5.84V55.88l-2.46-1.15-.3,107,2.46,1.43,0-7.78,1.16.67,9,5.18,0,7.76,2.48-1.78.29-105.45ZM586,158v1.33l-10.12-5.84,0-8.73,1.16.66,9,5.18Zm0-10.65v1.34l-10.12-5.84,0-8.74,1.16.67,9,5.18Zm0-10.65V138l-10.12-5.85,0-8.73,1.15.66,9,5.18Zm0-10.65v1.33l-10.12-5.84,0-8.74,1.16.67,9,5.18Zm0-10.66v1.34L576,110.87l0-8.73,1.15.66,9,5.18Zm0-10.65v1.33L576,100.22l0-8.73,1.16.66,9,5.17Zm0-10.66v1.34L576,89.56l0-8.73,1.15.66,9,5.18Zm0-10.64v1.33l-10.12-5.84,0-8.73,1.16.66,9,5.18Zm0-10.65v1.33l-10.11-5.84,0-8.73,1.15.66,9,5.18Z"/><path class="cls-13" d="M590.79,167.34,586,170.58a.56.56,0,0,1-.47.07L581,169.47c-5-1.31-8.88-4.18-12.95-7.3h0a.58.58,0,0,1,0-.94L574,157.8l16.75,8.53A.58.58,0,0,1,590.79,167.34Z"/><path class="cls-15" d="M690.74,128.71a25.56,25.56,0,0,0,1.76-9.15c0-7.75-3.66-15.13-10.34-21.52v5.09a30.4,30.4,0,0,1,4.53,7v18.64a2,2,0,0,0-.1.21,27.7,27.7,0,0,1-1.36,2.94,35,35,0,0,1-3.07,3.8c-19.32,21.22-69.38,28.25-105.63,9.93l-.48-.27a47.11,47.11,0,0,1-11.78-9.6,29.41,29.41,0,0,1-4.46-6.87,22.11,22.11,0,0,1-2.29-9.48,23.61,23.61,0,0,1,4.54-13.46V125.7c.72-.91,1.35-1.83,2.19-2.71V103l0,0V97.88c-6.66,6.38-10.29,13.75-10.28,21.51a25.09,25.09,0,0,0,1.12,7.07v12.78a37.61,37.61,0,0,0,.85,7.62c.89,9.33,7.41,18.51,19.73,25.63,26.42,15.29,69.16,15.29,95.44,0,12.46-7.25,18.84-16.64,19.43-26.15l.18-.66Zm-1.3,20.69a24.52,24.52,0,0,1-1,2.61c-.14.33-.29.66-.46,1a24.06,24.06,0,0,1-1.4,2.51v-.12c0-11.24.23-6.85.28-19.53.36-.5.63-1,1-1.53h.48v-.77c.14-.22.29-.44.42-.66.24-.42.51-.84.72-1.26V149.4Zm-1.14-34.81a21.55,21.55,0,0,1,.67,5,20.54,20.54,0,0,1-.67,4.33ZM676.71,166c-1,.73-2,1.42-3,2.11v-20.5a54.16,54.16,0,0,0,4.5-3.16v20.4c-.15.12-.32.24-.47.37C677.39,165.45,677.06,165.72,676.71,166Zm-5.6-16.8v20.56c-1.49.86-3.2,1.51-4.79,2.28,0-5.43,0-7.55,0-9.28,0-2.14,0-3.87.07-11.13C668.05,150.84,669.6,150,671.11,149.17Zm-7.56,15.07c0,1.7,0,3.88,0,9.11-2.09.9-4.23,1.73-6.44,2.46V155c2.19-.72,4.49-1.33,6.55-2.2C663.59,160.35,663.57,162,663.55,164.24Zm-9.44,12.48c-2.35.7-4.68,1.4-7.13,1.93V157.8c2.44-.52,4.81-1.1,7.13-1.79v20.71ZM644,158.34v20.82c-2.33.43-4.64.93-7,1.21,0-4.66,0-7,0-8.6,0-2.73,0-3.88.07-12.14C639.51,159.35,641.73,158.78,644,158.34Zm-10.37,13.85c0,1.62,0,3.94,0,8.45-2.6.23-5.21.38-7.83.43V160.31c2.66-.06,5.33-.15,7.94-.38C633.71,168.29,633.68,169.38,633.66,172.19ZM622.84,160.4v20.77c-2.49,0-5-.24-7.43-.41V160.09C617.86,160.27,620.34,160.38,622.84,160.4Zm-10.37-.56v20.75c-2.52-.24-5-.65-7.44-1.06,0-4.63,0-6.92,0-8.49,0-2.79,0-3.55.07-12.08C607.54,159.34,610,159.6,612.47,159.84Zm-10.72,10.68c0,1.57,0,3.85,0,8.44-2-.4-4.05-.83-6-1.34V156.74c2.06.54,4,1.22,6.14,1.63C601.8,167,601.77,167.69,601.75,170.52Zm-9,6.2c-2.42-.72-4.86-1.4-7.14-2.29V153.59c2.31.89,4.69,1.65,7.14,2.37v20.76ZM582.66,152.3V173c-2.13-.94-4.29-1.85-6.25-2.95,0-5.57,0-7.78.05-9.83,0-2.27,0-4.36.06-10.63C578.42,150.65,580.61,151.41,582.66,152.3Zm-8.91,6.08c0,2,0,3.79-.06,10v.06q-2-1.25-3.72-2.55l-.6-.47V145.06c1.4,1,2.84,2.06,4.43,3C573.79,154.47,573.77,156.54,573.75,158.38Zm-13.24-2.15a32.17,32.17,0,0,1-2-3.36h0c0-12.05.08-5.73.11-18.71a33.4,33.4,0,0,0,2.67,3.53v19.78c-.14-.19-.26-.39-.4-.59S560.66,156.45,560.51,156.23Zm-3.43-24.66c0,1.34,0,2.35,0,3.31,0,8,0,4.34,0,14.29v.12c-.07-.21-.13-.43-.19-.65-.12-.39-.26-.78-.35-1.17,0-.16-.11-.32-.15-.47V129.81C556.66,130.39,556.78,131,557.08,131.57Zm7.19,29.37h0c-.27-.27-.51-.56-.76-.84V140c.27.26.49.54.76.8.77.74,1.67,1.45,2.52,2.17v20.37C565.9,162.56,565.06,161.76,564.27,160.94Zm117.89.26h0c-.44.45-.93.9-1.4,1.34V142.21c.45-.41,1-.8,1.4-1.2.72-.7,1.56-1.35,2.21-2.06,0,12.76-.07,8.3-.1,19.7v.12C683.6,159.59,682.93,160.4,682.16,161.2Z"/></g></g></g></svg>