<svg xmlns="http://www.w3.org/2000/svg" xmlns:xlink="http://www.w3.org/1999/xlink" viewBox="0 0 247.04 600.01"><defs><style>.cls-1{isolation:isolate;}.cls-2{fill:#3a3735;}.cls-3{fill:#2a2826;}.cls-4{fill:#44403d;}.cls-5{fill:none;stroke:#000;stroke-linecap:round;stroke-miterlimit:10;}.cls-6{fill:#9e3232;}.cls-7{fill:#ff5050;}.cls-8{fill:#bd3b3b;}.cls-9{fill:#ab3434;}.cls-10{fill:#812828;}.cls-11{fill:#ffb9b9;}.cls-12{fill:#fd4f4f;}.cls-13{fill:#892b2b;}.cls-14{fill:#3b3e40;}.cls-15{fill:#efe6d4;}.cls-16{fill:#bbb4a7;}.cls-17{fill:#fff5e2;}.cls-18{fill:#c4bdaf;}.cls-19{fill:#b9b9b9;}.cls-20{fill:gray;}.cls-21{fill:#767676;}.cls-22{fill:#dcdcdc;}.cls-23{fill:#b4b4b4;}.cls-24{fill:#bebebe;}.cls-25{fill:#b3b3b3;}.cls-26{fill:#a8a8a8;}.cls-27{fill:#6f6f6f;}.cls-28{fill:#ababab;}.cls-29{fill:#942d2d;}.cls-30{fill:#d64141;}.cls-31{fill:#882929;}.cls-32{fill:#d03f3f;}.cls-33{fill:#c43b3b;}.cls-34{fill:#db4242;}.cls-35{fill:#ce3e3e;}.cls-36{fill:#c13a3a;}.cls-37{fill:#812727;}.cls-38{fill:#c53c3c;}.cls-39{fill:#d5d5d5;}.cls-40{fill:#bdbdbd;}.cls-41{fill:#757575;}.cls-42{fill:#9a9a9a;}.cls-43{fill:#dadada;}.cls-44{fill:#888;}.cls-45{fill:#777;}.cls-46{fill:#f54a4a;}.cls-47{fill:#da4242;}.cls-48{fill:#c53b3b;}.cls-49{fill:#872929;}.cls-50{fill:#b23636;}.cls-51{fill:#fe4d4d;}.cls-52{fill:#dc4242;}.cls-53{fill:#fc4c4c;}.cls-54{fill:#9c2f2f;}.cls-55{fill:#892929;}.cls-56{fill:#9c9c9c;}.cls-57{fill:#868686;}.cls-58{fill:#6a2020;}.cls-59{fill:#982e2e;}.cls-60{fill:#e54545;}.cls-61{fill:#cf3e3e;}.cls-62{fill:#c23b3b;}.cls-63{fill:url(#linear-gradient);}.cls-64{fill:#f25151;}.cls-65{fill:url(#linear-gradient-2);}.cls-66{fill:#dcd4c3;}.cls-67{fill:#e6decd;}.cls-68{fill:url(#linear-gradient-3);}.cls-69{fill:url(#linear-gradient-4);}.cls-70{fill:#c53e3e;}.cls-71{fill:url(#linear-gradient-5);}.cls-72{fill:url(#linear-gradient-6);}</style><linearGradient id="linear-gradient" x1="75.46" y1="59.69" x2="79.58" y2="59.69" gradientUnits="userSpaceOnUse"><stop offset="0" stop-color="#962626"/><stop offset="0.35" stop-color="#bb2f2f"/><stop offset="0.78" stop-color="#e23939"/><stop offset="1" stop-color="#f13d3d"/></linearGradient><linearGradient id="linear-gradient-2" x1="132.41" y1="83.83" x2="136.53" y2="83.83" xlink:href="#linear-gradient"/><linearGradient id="linear-gradient-3" x1="175.13" y1="46.85" x2="179.25" y2="46.85" xlink:href="#linear-gradient"/><linearGradient id="linear-gradient-4" x1="106.74" y1="23.96" x2="110.85" y2="23.96" xlink:href="#linear-gradient"/><linearGradient id="linear-gradient-5" x1="169" y1="262.41" x2="144.68" y2="304.54" gradientUnits="userSpaceOnUse"><stop offset="0" stop-color="#e4e7e7"/><stop offset="0.68" stop-color="#868888"/><stop offset="0.85" stop-color="#868888"/><stop offset="0.88" stop-color="#8b8d8d"/><stop offset="0.93" stop-color="#999b9c"/><stop offset="0.98" stop-color="#b1b3b5"/><stop offset="1" stop-color="#bec0c2"/></linearGradient><linearGradient id="linear-gradient-6" x1="137.39" y1="314.33" x2="113.07" y2="356.46" xlink:href="#linear-gradient-5"/></defs><title>Recurso 32</title><g id="Capa_2" data-name="Capa 2"><g id="edificios"><g class="cls-1"><polygon class="cls-2" points="247.04 464.35 247.04 466.17 237.61 471.64 237.62 469.83 247.04 464.35"/><polygon class="cls-3" points="237.62 469.83 237.61 471.64 228.12 466.16 228.13 464.35 237.62 469.83"/><polygon class="cls-4" points="247.04 464.35 237.62 469.83 228.13 464.35 237.55 458.87 247.04 464.35"/></g><ellipse cx="238.04" cy="464.35" rx="3.54" ry="1.82"/><g class="cls-1"><polygon class="cls-2" points="244.4 591.8 244.4 593.62 234.98 599.1 234.98 597.28 244.4 591.8"/><polygon class="cls-3" points="234.98 597.28 234.98 599.1 225.49 593.62 225.49 591.8 234.98 597.28"/><polygon class="cls-4" points="244.4 591.8 234.98 597.28 225.49 591.8 234.91 586.32 244.4 591.8"/></g><ellipse cx="235.4" cy="591.8" rx="3.54" ry="1.82"/><g class="cls-1"><polygon class="cls-2" points="20.35 592.72 20.34 594.53 10.92 600.01 10.93 598.19 20.35 592.72"/><polygon class="cls-3" points="10.93 598.19 10.92 600.01 1.43 594.53 1.44 592.71 10.93 598.19"/><polygon class="cls-4" points="20.35 592.72 10.93 598.19 1.44 592.71 10.86 587.24 20.35 592.72"/></g><ellipse cx="11.34" cy="592.72" rx="3.54" ry="1.82"/><g id="_3" data-name="3"><line class="cls-5" x1="9.91" y1="465.09" x2="98.11" y2="358.77"/><line class="cls-5" x1="237.58" y1="464.35" x2="150.2" y2="358.02"/><g class="cls-1"><polygon class="cls-6" points="107.41 342.7 106.47 342.15 112.11 345.37 113.05 345.91 107.41 342.7"/><g class="cls-1"><g class="cls-1"><path class="cls-7" d="M106.52,342.78l-.93-.54a.87.87,0,0,1,.88-.09l.94.55a.91.91,0,0,0-.89.08Z"/></g></g><g class="cls-1"><g class="cls-1"><path class="cls-7" d="M100,355.42l-.93-.55c-.48-.27-.47-1.16,0-2l.94.55c-.49.84-.49,1.72,0,2Z"/></g></g><polygon class="cls-8" points="100.04 353.42 99.1 352.87 104.7 343.17 105.64 343.72 100.04 353.42"/><g class="cls-1"><g class="cls-1"><path class="cls-7" d="M105.64,343.72l-.94-.55a2.58,2.58,0,0,1,.89-.93l.93.54a2.6,2.6,0,0,0-.88.94Z"/></g></g><path class="cls-9" d="M106.52,342.78a.91.91,0,0,1,.89-.08l5.64,3.21c.47.29.48,1.19,0,2l-5.6,9.72a2.52,2.52,0,0,1-.88.92.91.91,0,0,1-.89.1L100,355.43c-.49-.26-.49-1.16,0-2l5.6-9.7A2.6,2.6,0,0,1,106.52,342.78Z"/></g><g class="cls-1"><polygon class="cls-10" points="134.8 345.55 135.73 345.01 141.35 341.81 140.42 342.35 134.8 345.55"/><g class="cls-1"><g class="cls-1"><path class="cls-7" d="M140.42,342.35l.93-.54a.89.89,0,0,1,.88.08l-.93.55a.87.87,0,0,0-.88-.09Z"/></g></g><g class="cls-1"><g class="cls-1"><path class="cls-11" d="M147.76,353l.93-.55c.05.09.1.18.14.27l-.94.54a2.1,2.1,0,0,0-.13-.26Z"/><path class="cls-7" d="M147.89,353.3l.94-.54c.33.75.28,1.49-.14,1.74l-.94.54c.43-.24.48-1,.14-1.74Z"/></g></g><polygon class="cls-12" points="142.18 343.37 143.11 342.82 148.69 352.49 147.76 353.04 142.18 343.37"/><g class="cls-1"><g class="cls-1"><path class="cls-7" d="M141.3,342.44l.93-.55a2.07,2.07,0,0,1,.54.46l-.93.54a2.19,2.19,0,0,0-.54-.45Z"/><path class="cls-11" d="M141.84,342.89l.93-.54a2.93,2.93,0,0,1,.34.48l-.93.54a2.93,2.93,0,0,0-.34-.48Z"/></g></g><path class="cls-13" d="M141.3,342.44a2.48,2.48,0,0,1,.88.93l5.58,9.67c.47.83.47,1.73,0,2l-5.61,3.22a.94.94,0,0,1-.89-.1,2.5,2.5,0,0,1-.87-.92l-5.59-9.68c-.49-.83-.48-1.73,0-2l5.62-3.2A.87.87,0,0,1,141.3,342.44Z"/></g><path class="cls-14" d="M107.66,184.72a.81.81,0,0,1-.71-1.2c1.6-3,1.09-7.68.74-10.81a33.53,33.53,0,0,0-2.82-9.41l-.17-.41a.81.81,0,0,1,.44-1.06.83.83,0,0,1,1.07.44l.17.41a35.38,35.38,0,0,1,2.94,9.85c.36,3.33.91,8.37-.94,11.77A.82.82,0,0,1,107.66,184.72Z"/><path class="cls-14" d="M102.91,184.08h-.11a.8.8,0,0,1-.69-.92c.15-1.13.36-2.22.55-3.28a25.39,25.39,0,0,0,.62-7.89,37.57,37.57,0,0,0-2.21-8.35c-.27-.76-.54-1.53-.8-2.32a.8.8,0,0,1,.52-1,.79.79,0,0,1,1,.51c.26.77.53,1.54.79,2.3a38.69,38.69,0,0,1,2.31,8.71,27,27,0,0,1-.65,8.36c-.19,1-.39,2.09-.55,3.21A.81.81,0,0,1,102.91,184.08Z"/><path class="cls-14" d="M98.17,185.26a.82.82,0,0,1-.43-.12.81.81,0,0,1-.26-1.12c1.16-1.85,1.79-7.39.84-11.48a5.39,5.39,0,0,0-1.77-3.33.82.82,0,0,1-.27-1.12.83.83,0,0,1,1.12-.26c1.16.7,2,2.17,2.5,4.34,1,4.21.48,10.27-1,12.71A.83.83,0,0,1,98.17,185.26Z"/><path class="cls-14" d="M181.24,202c-3.41,0-6-3.22-8.05-5.88-.64-.81-1.25-1.58-1.84-2.21-5.31-5.67-10.44-9.45-18.26-9.45a.81.81,0,0,1,0-1.62c8.4,0,13.85,4,19.45,10,.62.67,1.26,1.47,1.93,2.32,2.37,3,4.84,6.11,8.14,5,3.68-1.24,4.11-4.83,3.29-7.79a.82.82,0,0,1,.58-1,.84.84,0,0,1,1,.57c1,3.5.41,8.16-4.34,9.76A6.08,6.08,0,0,1,181.24,202Z"/><path class="cls-14" d="M174.83,200.89a5.59,5.59,0,0,1-1.47-.19c-3.52-.94-5.86-5-8.34-9.39a40.76,40.76,0,0,0-4.84-7.32c-2.05-2.23-5.54-2.42-8.9-2.62-.75-.05-1.48-.09-2.2-.16a.72.72,0,0,1-.55.68.84.84,0,0,1-1-.6,1.43,1.43,0,0,1,.39-1.55.87.87,0,0,1,.64-.22c.89.11,1.83.16,2.78.22,3.52.2,7.5.44,10,3.15a41.64,41.64,0,0,1,5.07,7.61c2.3,4,4.48,7.86,7.35,8.62a5.41,5.41,0,0,0,4.22-.88c2.34-1.38,4.63-3.54,3.93-9.11a.81.81,0,0,1,.71-.91c.54,0,.85.26.91.7.82,6.54-2.09,9.17-4.72,10.72A7.85,7.85,0,0,1,174.83,200.89Z"/><path class="cls-14" d="M175.57,195.53c-2.79,0-5.11-3.18-6.76-5.43-.51-.69-1-1.3-1.36-1.74-4.34-4.77-8.67-7.82-12.9-9.07l-.27-.08c-3-.86-7.06-2.09-10-1.26a.83.83,0,0,1-1-.56.82.82,0,0,1,.57-1c3.35-.93,7.7.34,10.86,1.28l.27.08c4.51,1.33,9.11,4.53,13.65,9.52.43.48.92,1.14,1.46,1.88,2.31,3.15,4.43,5.68,6.61,4.42,2.47-1.36,1.31-5.67,1.29-5.71a.83.83,0,0,1,.56-1,.82.82,0,0,1,1,.56c.07.24,1.51,5.6-2.06,7.59A4,4,0,0,1,175.57,195.53Z"/><g class="cls-1"><polygon class="cls-15" points="114.14 31.99 114.11 164.5 95.87 175.1 95.9 42.58 114.14 31.99"/><polygon class="cls-16" points="95.9 42.58 95.87 175.1 89.83 171.61 89.86 39.09 95.9 42.58"/><polygon class="cls-17" points="114.14 31.99 95.9 42.58 89.86 39.09 90.51 36.64 103.86 28.88 108.09 28.5 114.14 31.99"/></g><g class="cls-1"><polygon class="cls-15" points="197.65 62.29 197.62 194.81 191.62 198.3 191.65 65.78 197.65 62.29"/><polygon class="cls-18" points="191.65 65.78 191.62 198.3 173.25 187.7 173.28 55.18 191.65 65.78"/><polygon class="cls-17" points="196.96 59.83 197.65 62.29 191.65 65.78 173.28 55.18 179.29 51.69 183.53 52.08 196.96 59.83"/></g><g id="_3-2" data-name="3"><g class="cls-1"><polygon class="cls-2" points="174.82 529.67 174.79 539.24 125.15 568.09 125.17 558.52 174.82 529.67"/><polygon class="cls-3" points="125.17 558.52 125.15 568.09 75.13 539.22 75.16 529.64 125.17 558.52"/><polygon class="cls-4" points="174.82 529.67 125.17 558.52 75.16 529.64 124.8 500.79 174.82 529.67"/></g><g class="cls-1"><polygon class="cls-19" points="119.97 504.98 118.57 504.17 120.17 502.64 121.57 503.45 119.97 504.98"/><polygon class="cls-20" points="118.8 512.52 117.41 511.71 118.57 504.17 119.97 504.98 118.8 512.52"/><polygon class="cls-21" points="122.68 500.6 121.29 499.79 121.28 476.54 122.68 477.35 122.68 500.6"/><polygon class="cls-22" points="108.63 495.72 107.23 494.91 121.29 499.79 122.68 500.6 108.63 495.72"/><polygon class="cls-23" points="92.2 520.35 90.81 519.54 92.5 519.2 93.9 520.01 92.2 520.35"/><polygon class="cls-24" points="106.86 495.11 105.46 494.3 118.52 474.73 119.91 475.54 106.86 495.11"/><polygon class="cls-21" points="119.91 475.54 118.52 474.73 118.52 470.19 119.91 471 119.91 475.54"/><polygon class="cls-24" points="91.19 518.61 89.79 517.8 103.71 496.94 105.11 497.75 91.19 518.61"/><polygon class="cls-21" points="122.68 465.33 121.28 464.52 121.28 441.3 122.67 442.12 122.68 465.33"/><polygon class="cls-22" points="93.97 490.64 92.58 489.83 105.46 494.3 106.86 495.11 93.97 490.64"/><polygon class="cls-22" points="108.62 460.46 107.23 459.64 121.28 464.52 122.68 465.33 108.62 460.46"/><polygon class="cls-24" points="92.5 484.62 91.1 483.81 119.83 467.25 121.23 468.06 92.5 484.62"/><polygon class="cls-24" points="106.85 459.85 105.45 459.04 118.51 439.49 119.91 440.3 106.85 459.85"/><polygon class="cls-21" points="119.91 440.3 118.51 439.49 118.51 434.55 119.91 435.36 119.91 440.3"/><polygon class="cls-25" points="119.91 435.36 118.51 434.55 119.98 432.82 121.38 433.64 119.91 435.36"/><polygon class="cls-24" points="91.18 483.37 89.78 482.56 103.7 461.68 105.1 462.49 91.18 483.37"/><polygon class="cls-21" points="122.67 430.86 121.27 430.04 121.27 405.95 122.67 406.76 122.67 430.86"/><polygon class="cls-22" points="93.96 455.38 92.57 454.56 105.45 459.04 106.85 459.85 93.96 455.38"/><polygon class="cls-22" points="108.62 425.98 107.22 425.17 121.27 430.04 122.67 430.86 108.62 425.98"/><polygon class="cls-26" points="92.39 450.29 90.99 449.48 92.57 449.5 93.96 450.31 92.39 450.29"/><polygon class="cls-24" points="106.84 425.37 105.45 424.56 118.38 405.17 119.77 405.99 106.84 425.37"/><polygon class="cls-27" points="119.77 405.99 118.38 405.17 117.79 402.22 119.19 403.03 119.77 405.99"/><polygon class="cls-24" points="91.17 448.87 89.78 448.06 103.7 427.2 105.09 428.01 91.17 448.87"/><polygon class="cls-24" points="118.83 401.06 117.44 400.25 124.16 396.37 125.55 397.18 118.83 401.06"/><polygon class="cls-22" points="94.06 420.93 92.66 420.11 105.45 424.56 106.84 425.37 94.06 420.93"/><polygon class="cls-24" points="95.02 414.78 93.63 413.97 117.44 400.25 118.83 401.06 95.02 414.78"/><polygon class="cls-24" points="88.3 418.66 86.91 417.85 93.63 413.97 95.02 414.78 88.3 418.66"/><path class="cls-28" d="M118.83,401.06l6.72-3.88,0,111.44-6.78,3.9L120,505l1.6-1.53-14.71-5.11-14.66,22,1.7-.34,1.19,6.18-6.77,3.91,0-111.44L95,414.78ZM94,455.38l12.89,4.47,13.06-19.55v-4.94l1.47-1.72-14.54-5L92.39,450.29l1.57,0v5.07Zm0,35.26,12.88,4.47,13.06-19.57V471L94,486v4.68Zm.7-73.47-.61,3.76,12.78,4.44L119.77,406l-.58-3L94.67,417.17Zm26.56,50.89-14.38-4.95L92.5,484.62l28.73-16.56Zm1.44-37.2v-24.1l-1.3.08L108.62,426l14,4.88Zm-31.48-5.95,0,24L105.09,428l-12.71-4.43-1.19,1.33Zm31.49,75.69V477.35l-1.78-.05-12.27,18.42,14.05,4.88Zm0-35.27V442.12l-1.77-.06-12.28,18.4,14.06,4.87Zm-31.51-5.06v23.1l13.92-20.88-12.23-4.25-1.7,2Zm0,58.34,13.93-20.86-12.23-4.24-1.7,2v23.1Z"/><polygon class="cls-21" points="88.32 530.1 86.93 529.28 86.91 417.85 88.3 418.66 88.32 530.1"/></g><g class="cls-1"><polygon class="cls-29" points="118.83 401.06 117.44 400.25 118.55 392.97 119.95 393.78 118.83 401.06"/><polygon class="cls-30" points="119.95 393.78 118.55 392.97 120.15 391.44 121.55 392.25 119.95 393.78"/><polygon class="cls-31" points="122.66 389.39 121.27 388.58 121.26 365.36 122.66 366.18 122.66 389.39"/><polygon class="cls-9" points="108.61 384.52 107.21 383.7 121.27 388.58 122.66 389.39 108.61 384.52"/><polygon class="cls-32" points="92.18 409.15 90.78 408.34 92.48 408 93.88 408.81 92.18 409.15"/><polygon class="cls-33" points="106.83 383.91 105.44 383.1 118.5 363.55 119.89 364.36 106.83 383.91"/><polygon class="cls-31" points="119.89 364.36 118.5 363.55 118.5 358.98 119.89 359.8 119.89 364.36"/><polygon class="cls-33" points="91.17 407.43 89.77 406.62 103.69 385.74 105.08 386.55 91.17 407.43"/><polygon class="cls-31" points="122.66 354.16 121.26 353.35 121.25 330.1 122.65 330.91 122.66 354.16"/><polygon class="cls-9" points="93.95 379.44 92.55 378.62 105.44 383.1 106.83 383.91 93.95 379.44"/><polygon class="cls-9" points="108.6 349.25 107.21 348.44 121.26 353.35 122.66 354.16 108.6 349.25"/><polygon class="cls-34" points="92.48 373.42 91.08 372.61 119.81 356.04 121.21 356.85 92.48 373.42"/><polygon class="cls-33" points="106.83 348.67 105.43 347.86 118.49 328.29 119.89 329.1 106.83 348.67"/><polygon class="cls-35" points="119.89 324.18 118.49 323.37 119.96 321.62 121.36 322.43 119.89 324.18"/><polygon class="cls-31" points="119.89 329.1 118.49 328.29 118.49 323.37 119.89 324.18 119.89 329.1"/><polygon class="cls-33" points="91.16 372.17 89.76 371.36 103.68 350.47 105.08 351.28 91.16 372.17"/><polygon class="cls-31" points="122.65 319.65 121.25 318.84 121.25 294.75 122.64 295.56 122.65 319.65"/><polygon class="cls-9" points="93.94 344.2 92.55 343.39 105.43 347.86 106.83 348.67 93.94 344.2"/><polygon class="cls-9" points="108.6 314.77 107.2 313.96 121.25 318.84 122.65 319.65 108.6 314.77"/><polygon class="cls-36" points="92.37 339.08 90.97 338.27 92.55 338.33 93.94 339.14 92.37 339.08"/><polygon class="cls-33" points="106.82 314.2 105.43 313.38 118.36 294 119.75 294.81 106.82 314.2"/><polygon class="cls-37" points="119.75 294.81 118.36 294 117.77 291.02 119.17 291.83 119.75 294.81"/><polygon class="cls-33" points="91.15 337.69 89.76 336.88 103.68 315.99 105.07 316.81 91.15 337.69"/><polygon class="cls-34" points="118.76 290.14 117.37 289.33 124.14 285.43 125.53 286.24 118.76 290.14"/><polygon class="cls-9" points="94.04 309.72 92.64 308.91 105.43 313.38 106.82 314.2 94.04 309.72"/><polygon class="cls-34" points="95.05 303.81 93.66 303 117.37 289.33 118.76 290.14 95.05 303.81"/><polygon class="cls-31" points="88.3 418.66 86.91 417.85 86.89 306.9 88.28 307.72 88.3 418.66"/><path class="cls-38" d="M118.76,290.14l6.77-3.9,0,110.94-6.72,3.88,1.12-7.28,1.6-1.53-14.72-5.08-14.65,22,1.7-.34,1.14,6-6.72,3.88,0-110.94,6.77-3.91ZM93.94,344.2l12.89,4.47,13.06-19.57v-4.92l1.47-1.75-14.54-5L92.37,339.08l1.57.06v5.06Zm0,35.24,12.88,4.47,13.06-19.55V359.8L94,374.75v4.69Zm.7-73.47L94,309.72l12.78,4.48,12.93-19.39-.58-3L94.65,306Zm26.56,50.88-14.38-5L92.48,373.42l28.73-16.57Zm1.44-37.2V295.56l-1.29.08L108.6,314.77l14.05,4.88ZM91.17,313.7l0,24,13.92-20.88L92.36,312.4l-1.19,1.3Zm31.49,40.46V330.91l-1.77-.05L108.6,349.25l14.06,4.91Zm0,35.23V366.18l-1.78-.06-12.27,18.4,14,4.87Zm-31.5,18,13.92-20.88L92.86,382.3l-1.7,2v23.1Zm0-58.36v23.1l13.92-20.89-12.23-4.21-1.7,2Z"/><polygon class="cls-34" points="88.28 307.72 86.89 306.9 93.66 303 95.05 303.81 88.28 307.72"/></g><g class="cls-1"><polygon class="cls-20" points="118.76 290.14 117.37 289.33 118.53 281.79 119.93 282.61 118.76 290.14"/><polygon class="cls-19" points="119.93 282.61 118.53 281.79 120.13 280.26 121.53 281.07 119.93 282.61"/><polygon class="cls-21" points="122.64 278.22 121.25 277.41 121.24 254.16 122.64 254.97 122.64 278.22"/><polygon class="cls-22" points="108.59 273.34 107.19 272.53 121.25 277.41 122.64 278.22 108.59 273.34"/><polygon class="cls-25" points="92.16 297.94 90.76 297.13 92.46 296.82 93.86 297.63 92.16 297.94"/><polygon class="cls-24" points="106.81 272.73 105.42 271.92 118.48 252.35 119.87 253.16 106.81 272.73"/><polygon class="cls-21" points="119.87 253.16 118.48 252.35 118.48 247.81 119.87 248.62 119.87 253.16"/><polygon class="cls-24" points="91.14 296.23 89.75 295.42 103.67 274.56 105.06 275.37 91.14 296.23"/><polygon class="cls-21" points="122.64 242.95 121.24 242.14 121.23 218.89 122.63 219.71 122.64 242.95"/><polygon class="cls-22" points="93.93 268.26 92.53 267.45 105.42 271.92 106.81 272.73 93.93 268.26"/><polygon class="cls-22" points="108.58 238.08 107.19 237.26 121.24 242.14 122.64 242.95 108.58 238.08"/><polygon class="cls-24" points="92.46 262.24 91.06 261.43 119.8 244.87 121.19 245.68 92.46 262.24"/><polygon class="cls-24" points="106.81 237.47 105.41 236.66 118.47 217.08 119.87 217.9 106.81 237.47"/><polygon class="cls-25" points="119.86 212.98 118.47 212.17 119.94 210.45 121.33 211.26 119.86 212.98"/><polygon class="cls-21" points="119.87 217.9 118.47 217.08 118.47 212.17 119.86 212.98 119.87 217.9"/><polygon class="cls-24" points="91.14 260.97 89.74 260.15 103.66 239.3 105.06 240.11 91.14 260.97"/><polygon class="cls-21" points="122.63 208.47 121.23 207.66 121.23 183.54 122.62 184.35 122.63 208.47"/><polygon class="cls-22" points="93.92 233 92.53 232.18 105.41 236.66 106.81 237.47 93.92 233"/><polygon class="cls-22" points="108.58 203.6 107.18 202.79 121.23 207.66 122.63 208.47 108.58 203.6"/><polygon class="cls-24" points="123.71 175.84 122.32 175.03 124.12 173.99 125.51 174.8 123.71 175.84"/><polygon class="cls-26" points="92.35 227.91 90.95 227.1 92.53 227.12 93.92 227.93 92.35 227.91"/><polygon class="cls-24" points="106.8 202.99 105.41 202.18 118.34 182.79 119.73 183.61 106.8 202.99"/><polygon class="cls-27" points="119.73 183.61 118.34 182.79 117.75 179.84 119.15 180.66 119.73 183.61"/><polygon class="cls-24" points="91.13 226.49 89.74 225.68 103.66 204.82 105.05 205.63 91.13 226.49"/><polygon class="cls-24" points="118.74 178.71 117.35 177.89 122.32 175.03 123.71 175.84 118.74 178.71"/><polygon class="cls-22" points="94.02 198.55 92.62 197.73 105.41 202.18 106.8 202.99 94.02 198.55"/><polygon class="cls-24" points="94.98 192.41 93.58 191.59 117.35 177.89 118.74 178.71 94.98 192.41"/><polygon class="cls-24" points="89.15 195.77 87.75 194.96 93.58 191.59 94.98 192.41 89.15 195.77"/><polygon class="cls-24" points="88.26 196.28 86.86 195.47 87.75 194.96 89.15 195.77 88.26 196.28"/><path class="cls-28" d="M123.71,175.84l1.8-1,0,111.44-6.77,3.9,1.17-7.54,1.6-1.53L106.81,276l-14.65,22,1.7-.31,1.19,6.18-6.77,3.91,0-111.44.89-.51L95,192.4l23.76-13.69ZM93.92,233l12.89,4.47,13.06-19.57V213l1.48-1.72-14.54-5L92.35,227.91l1.57,0V233Zm0,35.26,12.88,4.47,13.06-19.57v-4.54l-25.94,15v4.68Zm.7-73.47L94,198.55,106.8,203l12.93-19.38-.58-3L94.63,194.79Zm26.56,50.89-14.38-5L92.46,262.24l28.73-16.56Zm1.44-37.2V184.35l-1.29.11L108.58,203.6l14,4.88Zm-31.48-6,0,24,13.92-20.86L92.34,201.2l-1.19,1.3ZM122.64,243V219.71l-1.77-.06-12.28,18.43L122.64,243Zm0,35.27V255l-1.78-.05-12.27,18.42,14,4.88Zm-31.5,18,13.92-20.86-12.22-4.24-1.7,2v23.1Zm0-58.37V261l13.92-20.86-12.23-4.24-1.7,2Z"/><polygon class="cls-21" points="88.28 307.72 86.89 306.9 86.86 195.47 88.26 196.28 88.28 307.72"/></g><g class="cls-1"><polygon class="cls-39" points="126.45 503.39 127.84 502.58 129.54 504.23 128.15 505.04 126.45 503.39"/><polygon class="cls-40" points="128.15 505.04 129.54 504.23 130.73 511.78 129.34 512.59 128.15 505.04"/><polygon class="cls-28" points="125.46 477.42 126.86 476.61 126.85 499.71 125.46 500.52 125.46 477.42"/><polygon class="cls-41" points="125.46 500.52 126.85 499.71 140.75 494.89 139.36 495.7 125.46 500.52"/><polygon class="cls-42" points="154.24 520.08 155.64 519.27 157.24 519.58 155.84 520.39 154.24 520.08"/><polygon class="cls-22" points="128.22 475.75 129.62 474.94 142.53 494.28 141.13 495.1 128.22 475.75"/><polygon class="cls-28" points="128.22 471.07 129.62 470.26 129.62 474.94 128.22 475.75 128.22 471.07"/><polygon class="cls-22" points="142.88 497.73 144.28 496.92 158.32 518 156.93 518.81 142.88 497.73"/><polygon class="cls-28" points="125.46 442.15 126.86 441.34 126.86 464.45 125.46 465.26 125.46 442.15"/><polygon class="cls-41" points="141.13 495.1 142.53 494.28 155.56 489.75 154.17 490.56 141.13 495.1"/><polygon class="cls-41" points="125.46 465.26 126.86 464.45 140.75 459.63 139.36 460.44 125.46 465.26"/><polygon class="cls-24" points="126.78 468.05 128.17 467.24 156.88 483.79 155.49 484.6 126.78 468.05"/><polygon class="cls-22" points="128.23 440.49 129.62 439.68 142.53 459.02 141.13 459.83 128.23 440.49"/><polygon class="cls-28" points="128.23 435.43 129.62 434.62 129.62 439.68 128.23 440.49 128.23 435.43"/><polygon class="cls-43" points="126.68 433.61 128.08 432.79 129.62 434.62 128.23 435.43 126.68 433.61"/><polygon class="cls-22" points="142.88 462.47 144.28 461.66 158.33 482.73 156.93 483.55 142.88 462.47"/><polygon class="cls-28" points="125.47 406.8 126.86 405.99 126.86 429.97 125.46 430.78 125.47 406.8"/><polygon class="cls-41" points="141.13 459.83 142.53 459.02 155.57 454.52 154.17 455.33 141.13 459.83"/><polygon class="cls-41" points="125.46 430.78 126.86 429.97 140.76 425.15 139.36 425.96 125.46 430.78"/><polygon class="cls-44" points="154.17 450.38 155.57 449.57 157.04 449.55 155.64 450.36 154.17 450.38"/><polygon class="cls-22" points="128.33 406.16 129.73 405.35 142.53 424.54 141.14 425.35 128.33 406.16"/><polygon class="cls-22" points="128.94 403.1 130.34 402.29 129.73 405.35 128.33 406.16 128.94 403.1"/><polygon class="cls-22" points="142.89 427.99 144.28 427.18 158.33 448.25 156.94 449.07 142.89 427.99"/><polygon class="cls-41" points="141.14 425.35 142.53 424.54 155.44 420.05 154.05 420.87 141.14 425.35"/><polygon class="cls-24" points="129.3 401.13 130.69 400.31 154.51 414.04 153.11 414.85 129.3 401.13"/><polygon class="cls-24" points="153.11 414.85 154.51 414.04 161.23 417.92 159.83 418.73 153.11 414.85"/><path class="cls-45" d="M153.11,414.85,129.3,401.13l-5.22-3V509.56l5.26,3-1.2-7.55-1.69-1.65,14.68-5.06,14.71,22.06-1.6-.31-1.19,6.18,6.77,3.9V418.73ZM128.94,403.1l24.53,14.14.58,3.62-12.91,4.49-12.81-19.19Zm-.71,37.39v-5.06l-1.55-1.83,14.46-5,14.5,21.78-1.47,0v4.95l-13,4.5Zm27.26,44.11-28.71-16.55,14.35-5Zm-30-77.8,1.19.08L139.36,426l-13.9,4.82Zm0,35.36,1.7,0,12.2,18.32-13.9,4.82Zm0,58.36v-23.1l1.7,0,12.2,18.32Zm2.76-24.77v-4.68l25.95,15v4.53l-13,4.54Zm28.71,43.06-14.05-21.08,12.28-4.27,1.77,2.1Zm0-35.26-14.05-21.08,12.28-4.27,1.78,2.1Zm0-34.48L142.89,428l12.76-4.43,1.29,1.39Z"/><polygon class="cls-28" points="159.83 418.73 161.23 417.92 161.22 529.35 159.82 530.16 159.83 418.73"/></g><g class="cls-1"><polygon class="cls-46" points="126.46 392.21 127.85 391.4 129.55 393.02 128.16 393.83 126.46 392.21"/><polygon class="cls-47" points="128.16 393.83 129.55 393.02 130.69 400.31 129.3 401.13 128.16 393.83"/><polygon class="cls-48" points="125.47 366.21 126.87 365.4 126.86 388.53 125.47 389.35 125.47 366.21"/><polygon class="cls-49" points="125.47 389.35 126.86 388.53 140.76 383.69 139.37 384.5 125.47 389.35"/><polygon class="cls-50" points="154.25 408.88 155.65 408.07 157.25 408.38 155.85 409.19 154.25 408.88"/><polygon class="cls-51" points="128.24 364.55 129.63 363.74 142.54 383.08 141.14 383.89 128.24 364.55"/><polygon class="cls-48" points="128.24 359.87 129.63 359.05 129.63 363.74 128.24 364.55 128.24 359.87"/><polygon class="cls-51" points="142.89 386.53 144.29 385.72 158.34 406.79 156.94 407.61 142.89 386.53"/><polygon class="cls-48" points="125.47 330.98 126.87 330.17 126.87 353.27 125.47 354.08 125.47 330.98"/><polygon class="cls-49" points="141.14 383.89 142.54 383.08 155.58 378.58 154.18 379.39 141.14 383.89"/><polygon class="cls-49" points="125.47 354.08 126.87 353.27 140.77 348.42 139.37 349.23 125.47 354.08"/><polygon class="cls-52" points="126.79 356.85 128.19 356.04 156.9 372.59 155.5 373.4 126.79 356.85"/><polygon class="cls-51" points="128.24 329.29 129.64 328.47 142.54 347.84 141.15 348.66 128.24 329.29"/><polygon class="cls-48" points="128.24 324.22 129.64 323.41 129.64 328.47 128.24 329.29 128.24 324.22"/><polygon class="cls-53" points="126.69 322.4 128.09 321.59 129.64 323.41 128.24 324.22 126.69 322.4"/><polygon class="cls-51" points="142.9 351.26 144.29 350.45 158.34 371.53 156.95 372.34 142.9 351.26"/><polygon class="cls-48" points="125.48 295.63 126.88 294.82 126.87 318.79 125.48 319.6 125.48 295.63"/><polygon class="cls-49" points="141.15 348.66 142.54 347.84 155.58 343.31 154.18 344.13 141.15 348.66"/><polygon class="cls-49" points="125.48 319.6 126.87 318.79 140.77 313.94 139.38 314.75 125.48 319.6"/><polygon class="cls-54" points="154.19 339.18 155.58 338.37 157.05 338.34 155.66 339.15 154.19 339.18"/><polygon class="cls-51" points="128.34 294.95 129.74 294.14 142.55 313.34 141.15 314.15 128.34 294.95"/><polygon class="cls-9" points="128.95 291.9 130.35 291.09 129.74 294.14 128.34 294.95 128.95 291.9"/><polygon class="cls-51" points="142.9 316.79 144.3 315.98 158.34 337.05 156.95 337.86 142.9 316.79"/><polygon class="cls-49" points="141.15 314.15 142.55 313.34 155.46 308.85 154.06 309.66 141.15 314.15"/><polygon class="cls-52" points="129.36 290.21 130.75 289.4 154.47 303.07 153.07 303.88 129.36 290.21"/><polygon class="cls-52" points="153.07 303.88 154.47 303.07 161.24 306.97 159.84 307.79 153.07 303.88"/><path class="cls-55" d="M153.07,303.88l-23.71-13.67-5.28-3v111l5.22,3-1.14-7.3-1.7-1.61,14.68-5.07,14.71,22-1.6-.31-1.14,6,6.72,3.88V307.79ZM129,291.9,153.48,306l.58,3.62-12.91,4.49L128.35,295Zm-.71,37.39v-5.07l-1.55-1.82,14.46-5,14.51,21.74-1.48,0v4.94l-13,4.54ZM155.5,373.4l-28.71-16.55,14.36-5Zm-30-77.77,1.19.07,12.71,19.05-13.9,4.85Zm0,35.35,1.69,0,12.2,18.29-13.9,4.85Zm0,58.37V366.22l1.7,0,12.2,18.32Zm2.77-24.8v-4.68l25.94,14.95v4.57l-13,4.5Zm28.7,43.06-14.05-21.08,12.28-4.24,1.77,2.07Zm0-35.27-14-21.07L155.17,347l1.78,2.1Zm0-34.48-14-21.07,12.76-4.43,1.29,1.41Z"/><polygon class="cls-48" points="159.84 307.79 161.24 306.97 161.23 417.92 159.83 418.73 159.84 307.79"/></g><g class="cls-1"><polygon class="cls-39" points="126.47 281.01 127.86 280.2 129.56 281.82 128.17 282.63 126.47 281.01"/><polygon class="cls-40" points="128.17 282.63 129.56 281.82 130.75 289.4 129.36 290.21 128.17 282.63"/><polygon class="cls-28" points="125.48 255.04 126.88 254.23 126.88 277.33 125.48 278.14 125.48 255.04"/><polygon class="cls-41" points="125.48 278.14 126.88 277.33 140.78 272.48 139.38 273.29 125.48 278.14"/><polygon class="cls-56" points="154.26 297.67 155.66 296.86 157.26 297.2 155.86 298.01 154.26 297.67"/><polygon class="cls-22" points="128.25 253.38 129.64 252.56 142.55 271.9 141.16 272.72 128.25 253.38"/><polygon class="cls-28" points="128.25 248.66 129.64 247.85 129.64 252.56 128.25 253.38 128.25 248.66"/><polygon class="cls-22" points="142.91 275.32 144.3 274.51 158.35 295.59 156.95 296.4 142.91 275.32"/><polygon class="cls-28" points="125.49 219.78 126.88 218.96 126.88 242.07 125.48 242.88 125.49 219.78"/><polygon class="cls-41" points="141.16 272.72 142.55 271.9 155.59 267.37 154.19 268.19 141.16 272.72"/><polygon class="cls-41" points="125.48 242.88 126.88 242.07 140.78 237.25 139.38 238.06 125.48 242.88"/><polygon class="cls-24" points="126.8 245.68 128.2 244.86 156.91 261.41 155.51 262.22 126.8 245.68"/><polygon class="cls-22" points="128.25 218.11 129.65 217.3 142.56 236.64 141.16 237.45 128.25 218.11"/><polygon class="cls-28" points="128.25 213.05 129.65 212.24 129.65 217.3 128.25 218.11 128.25 213.05"/><polygon class="cls-43" points="126.71 211.22 128.1 210.41 129.65 212.24 128.25 213.05 126.71 211.22"/><polygon class="cls-22" points="142.91 240.09 144.31 239.28 158.35 260.35 156.96 261.17 142.91 240.09"/><polygon class="cls-28" points="125.49 184.42 126.89 183.61 126.88 207.59 125.49 208.4 125.49 184.42"/><polygon class="cls-41" points="141.16 237.45 142.56 236.64 155.59 232.11 154.2 232.92 141.16 237.45"/><polygon class="cls-41" points="125.49 208.4 126.88 207.59 140.78 202.74 139.39 203.55 125.49 208.4"/><polygon class="cls-57" points="154.2 228 155.59 227.19 157.06 227.14 155.67 227.95 154.2 228"/><polygon class="cls-22" points="128.36 183.78 129.75 182.97 142.56 202.16 141.16 202.97 128.36 183.78"/><polygon class="cls-22" points="128.97 180.72 130.36 179.91 129.75 182.97 128.36 183.78 128.97 180.72"/><polygon class="cls-22" points="142.91 205.58 144.31 204.77 158.36 225.88 156.96 226.69 142.91 205.58"/><polygon class="cls-41" points="141.16 202.97 142.56 202.16 155.47 197.67 154.07 198.49 141.16 202.97"/><polygon class="cls-24" points="129.32 178.75 130.72 177.93 154.48 191.63 153.08 192.44 129.32 178.75"/><polygon class="cls-24" points="153.08 192.44 154.48 191.63 159.45 194.5 158.06 195.31 153.08 192.44"/><polygon class="cls-24" points="158.06 195.31 159.45 194.5 161.25 195.54 159.86 196.35 158.06 195.31"/><path class="cls-45" d="M158.06,195.31l-5-2.86-23.77-13.7-5.24-3V287.17l5.28,3-1.19-7.58-1.7-1.62L141.16,276,155.86,298l-1.59-.34-1.2,6.21,6.77,3.91,0-111.44ZM129,180.72l24.52,14.14.58,3.63L141.16,203l-12.8-19.19Zm-.72,37.39v-5.06l-1.54-1.83,14.45-5L155.67,228l-1.47.05v4.92l-13,4.53Zm27.26,44.11L126.8,245.67l14.36-5Zm-30-77.8,1.19.08,12.71,19.05-13.9,4.85Zm0,35.36,1.7,0,12.19,18.32-13.9,4.82Zm0,58.36V255l1.7,0,12.2,18.29Zm2.77-24.77v-4.71l25.94,15v4.56l-13,4.54Zm28.7,43-14-21.08,12.27-4.24,1.78,2.1Zm0-35.23-14.05-21.08,12.28-4.27,1.77,2.1Zm0-34.48-14.05-21.11,12.76-4.4,1.29,1.39Z"/><polygon class="cls-28" points="159.86 196.35 161.25 195.54 161.24 306.97 159.84 307.79 159.86 196.35"/></g><g class="cls-1"><polygon class="cls-19" points="155.75 525.72 154.35 524.91 155.95 523.38 157.35 524.19 155.75 525.72"/><polygon class="cls-20" points="154.58 533.26 153.19 532.45 154.35 524.91 155.75 525.72 154.58 533.26"/><polygon class="cls-21" points="158.46 521.33 157.07 520.52 157.06 497.27 158.46 498.08 158.46 521.33"/><polygon class="cls-22" points="144.41 516.46 143.01 515.64 157.07 520.52 158.46 521.33 144.41 516.46"/><polygon class="cls-23" points="127.98 541.09 126.58 540.27 128.28 539.94 129.68 540.75 127.98 541.09"/><polygon class="cls-24" points="142.63 515.85 141.24 515.04 154.3 495.46 155.69 496.27 142.63 515.85"/><polygon class="cls-21" points="155.69 496.27 154.3 495.46 154.3 490.92 155.69 491.74 155.69 496.27"/><polygon class="cls-24" points="126.96 539.35 125.57 538.53 139.49 517.67 140.88 518.49 126.96 539.35"/><polygon class="cls-21" points="158.46 486.07 157.06 485.26 157.06 462.04 158.45 462.85 158.46 486.07"/><polygon class="cls-22" points="129.75 511.38 128.35 510.56 141.24 515.04 142.63 515.85 129.75 511.38"/><polygon class="cls-22" points="144.4 481.19 143.01 480.38 157.06 485.26 158.46 486.07 144.4 481.19"/><polygon class="cls-24" points="128.28 505.36 126.88 504.55 155.61 487.98 157.01 488.79 128.28 505.36"/><polygon class="cls-24" points="142.63 480.58 141.23 479.77 154.29 460.23 155.69 461.04 142.63 480.58"/><polygon class="cls-21" points="155.69 461.04 154.29 460.23 154.29 455.28 155.69 456.09 155.69 461.04"/><polygon class="cls-25" points="155.69 456.09 154.29 455.28 155.76 453.56 157.16 454.37 155.69 456.09"/><polygon class="cls-24" points="126.96 504.11 125.56 503.3 139.48 482.41 140.88 483.22 126.96 504.11"/><polygon class="cls-21" points="158.45 451.59 157.05 450.78 157.05 426.69 158.44 427.5 158.45 451.59"/><polygon class="cls-22" points="129.74 476.11 128.35 475.3 141.23 479.77 142.63 480.58 129.74 476.11"/><polygon class="cls-22" points="144.4 446.71 143 445.9 157.05 450.78 158.45 451.59 144.4 446.71"/><polygon class="cls-26" points="128.17 471.02 126.77 470.21 128.35 470.24 129.74 471.05 128.17 471.02"/><polygon class="cls-24" points="142.62 446.11 141.23 445.29 154.16 425.91 155.55 426.72 142.62 446.11"/><polygon class="cls-27" points="155.55 426.72 154.16 425.91 153.57 422.96 154.97 423.77 155.55 426.72"/><polygon class="cls-24" points="126.95 469.6 125.56 468.79 139.48 447.93 140.87 448.75 126.95 469.6"/><polygon class="cls-24" points="154.61 421.79 153.22 420.98 159.94 417.11 161.33 417.92 154.61 421.79"/><polygon class="cls-22" points="129.84 441.66 128.44 440.85 141.23 445.29 142.62 446.11 129.84 441.66"/><polygon class="cls-24" points="130.8 435.52 129.41 434.71 153.22 420.98 154.61 421.79 130.8 435.52"/><polygon class="cls-24" points="124.08 439.39 122.69 438.58 129.41 434.71 130.8 435.52 124.08 439.39"/><path class="cls-28" d="M154.61,421.79l6.72-3.87,0,111.44-6.77,3.9,1.17-7.54,1.6-1.53-14.72-5.11-14.65,22,1.7-.34,1.19,6.18-6.77,3.9,0-111.44,6.72-3.87Zm-24.87,54.32,12.89,4.48L155.69,461v-5l1.48-1.72-14.54-5L128.17,471l1.57,0v5.06Zm0,35.27,12.88,4.47,13.06-19.58v-4.53l-25.94,14.95v4.69Zm.7-73.47-.61,3.75,12.78,4.45,12.93-19.39-.58-3-24.52,14.14ZM157,488.79l-14.38-5-14.35,21.52L157,488.79Zm1.44-37.2V427.5l-1.29.08L144.4,446.71l14,4.88ZM127,445.64l0,24,13.92-20.86-12.71-4.43L127,445.64Zm31.49,75.69V498.09l-1.78-.06-12.27,18.42,14.05,4.88Zm0-35.26V462.85l-1.77-.05L144.4,481.19l14,4.88ZM127,481v23.1l13.92-20.89L128.65,479l-1.7,2Zm0,58.33,13.92-20.85-12.22-4.25-1.7,2v23.1Z"/><polygon class="cls-21" points="124.1 550.83 122.7 550.02 122.69 438.58 124.08 439.39 124.1 550.83"/></g><g class="cls-1"><polygon class="cls-29" points="154.61 421.79 153.22 420.98 154.33 413.7 155.73 414.51 154.61 421.79"/><polygon class="cls-30" points="155.73 414.51 154.33 413.7 155.93 412.17 157.32 412.98 155.73 414.51"/><polygon class="cls-31" points="158.44 410.13 157.04 409.32 157.04 386.1 158.44 386.91 158.44 410.13"/><polygon class="cls-9" points="144.39 405.25 142.99 404.44 157.04 409.32 158.44 410.13 144.39 405.25"/><polygon class="cls-32" points="127.96 429.88 126.56 429.07 128.26 428.73 129.66 429.54 127.96 429.88"/><polygon class="cls-33" points="142.61 404.64 141.22 403.83 154.28 384.29 155.67 385.1 142.61 404.64"/><polygon class="cls-31" points="155.67 385.1 154.28 384.29 154.28 379.72 155.67 380.53 155.67 385.1"/><polygon class="cls-33" points="126.94 428.17 125.55 427.36 139.47 406.47 140.86 407.28 126.94 428.17"/><polygon class="cls-31" points="158.44 374.89 157.04 374.08 157.03 350.83 158.43 351.65 158.44 374.89"/><polygon class="cls-9" points="129.73 400.17 128.33 399.36 141.22 403.83 142.61 404.64 129.73 400.17"/><polygon class="cls-9" points="144.38 369.99 142.99 369.18 157.04 374.08 158.44 374.89 144.38 369.99"/><polygon class="cls-34" points="128.26 394.15 126.86 393.34 155.59 376.78 156.99 377.59 128.26 394.15"/><polygon class="cls-33" points="142.61 369.41 141.21 368.6 154.27 349.02 155.67 349.83 142.61 369.41"/><polygon class="cls-35" points="155.66 344.92 154.27 344.11 155.74 342.36 157.14 343.17 155.66 344.92"/><polygon class="cls-31" points="155.67 349.83 154.27 349.02 154.27 344.11 155.66 344.92 155.67 349.83"/><polygon class="cls-33" points="126.94 392.9 125.54 392.09 139.46 371.21 140.86 372.02 126.94 392.9"/><polygon class="cls-31" points="158.43 340.39 157.03 339.57 157.03 315.48 158.42 316.3 158.43 340.39"/><polygon class="cls-9" points="129.72 364.94 128.33 364.12 141.21 368.6 142.61 369.41 129.72 364.94"/><polygon class="cls-9" points="144.38 335.51 142.98 334.7 157.03 339.57 158.43 340.39 144.38 335.51"/><polygon class="cls-36" points="128.15 359.82 126.75 359.01 128.33 359.06 129.72 359.87 128.15 359.82"/><polygon class="cls-33" points="142.6 334.93 141.21 334.12 154.14 314.73 155.53 315.55 142.6 334.93"/><polygon class="cls-37" points="155.53 315.55 154.14 314.73 153.55 311.75 154.95 312.56 155.53 315.55"/><polygon class="cls-33" points="126.93 358.43 125.54 357.61 139.46 336.73 140.85 337.54 126.93 358.43"/><polygon class="cls-34" points="154.54 310.88 153.15 310.07 159.92 306.16 161.31 306.98 154.54 310.88"/><polygon class="cls-9" points="129.82 330.46 128.42 329.64 141.21 334.12 142.6 334.93 129.82 330.46"/><polygon class="cls-34" points="130.83 324.55 129.44 323.74 153.15 310.07 154.54 310.88 130.83 324.55"/><polygon class="cls-31" points="124.08 439.39 122.69 438.58 122.67 327.64 124.06 328.45 124.08 439.39"/><path class="cls-38" d="M154.54,310.88l6.77-3.9,0,110.94-6.72,3.87,1.12-7.28,1.6-1.53-14.72-5.08-14.65,22,1.7-.34,1.14,6-6.72,3.87,0-110.94,6.77-3.9Zm-24.82,54.06,12.89,4.47,13.06-19.58v-4.91l1.48-1.75-14.54-5-14.45,21.66,1.57.05v5.07Zm0,35.23,12.88,4.47,13.06-19.54v-4.57l-25.94,15v4.68Zm.7-73.47-.61,3.76,12.78,4.47,12.93-19.38-.58-3L130.43,326.7ZM157,377.59l-14.38-4.95-14.35,21.51L157,377.59Zm1.44-37.2v-24.1l-1.29.08-12.75,19.14,14.05,4.88ZM127,334.44l0,24,13.92-20.89-12.71-4.4-1.19,1.3Zm31.48,40.45V351.65l-1.77-.06L144.38,370l14.05,4.9Zm0,35.24V386.91l-1.78-.05-12.27,18.39,14.05,4.88Zm-31.5,18,13.92-20.89L128.64,403l-1.7,2v23.1Zm0-58.37v23.1L140.86,372l-12.23-4.22-1.7,2Z"/><polygon class="cls-34" points="124.06 328.45 122.67 327.64 129.44 323.74 130.83 324.55 124.06 328.45"/></g><g class="cls-1"><polygon class="cls-20" points="154.54 310.88 153.15 310.07 154.31 302.53 155.71 303.34 154.54 310.88"/><polygon class="cls-19" points="155.71 303.34 154.31 302.53 155.91 301 157.31 301.81 155.71 303.34"/><polygon class="cls-21" points="158.42 298.95 157.03 298.14 157.02 274.89 158.42 275.71 158.42 298.95"/><polygon class="cls-22" points="144.37 294.08 142.97 293.26 157.03 298.14 158.42 298.95 144.37 294.08"/><polygon class="cls-25" points="127.94 318.68 126.54 317.87 128.24 317.56 129.64 318.37 127.94 318.68"/><polygon class="cls-24" points="142.59 293.47 141.2 292.66 154.26 273.08 155.65 273.89 142.59 293.47"/><polygon class="cls-21" points="155.65 273.89 154.26 273.08 154.25 268.54 155.65 269.36 155.65 273.89"/><polygon class="cls-24" points="126.92 316.96 125.53 316.15 139.45 295.3 140.84 296.11 126.92 316.96"/><polygon class="cls-21" points="158.41 263.69 157.02 262.88 157.01 239.63 158.41 240.44 158.41 263.69"/><polygon class="cls-22" points="129.71 289 128.31 288.18 141.2 292.66 142.59 293.47 129.71 289"/><polygon class="cls-22" points="144.36 258.81 142.97 258 157.02 262.88 158.41 263.69 144.36 258.81"/><polygon class="cls-24" points="128.24 282.98 126.84 282.17 155.57 265.6 156.97 266.41 128.24 282.98"/><polygon class="cls-24" points="142.59 258.2 141.19 257.39 154.25 237.82 155.65 238.63 142.59 258.2"/><polygon class="cls-25" points="155.64 233.71 154.25 232.9 155.72 231.18 157.12 231.99 155.64 233.71"/><polygon class="cls-21" points="155.65 238.63 154.25 237.82 154.25 232.9 155.64 233.71 155.65 238.63"/><polygon class="cls-24" points="126.92 281.7 125.52 280.89 139.44 260.03 140.84 260.84 126.92 281.7"/><polygon class="cls-21" points="158.41 229.21 157.01 228.4 157.01 204.28 158.4 205.09 158.41 229.21"/><polygon class="cls-22" points="129.7 253.73 128.31 252.92 141.19 257.39 142.59 258.2 129.7 253.73"/><polygon class="cls-22" points="144.36 224.33 142.96 223.52 157.01 228.4 158.41 229.21 144.36 224.33"/><polygon class="cls-24" points="159.49 196.58 158.1 195.76 159.9 194.73 161.29 195.54 159.49 196.58"/><polygon class="cls-26" points="128.13 248.65 126.73 247.83 128.31 247.86 129.7 248.67 128.13 248.65"/><polygon class="cls-24" points="142.58 223.73 141.19 222.91 154.12 203.53 155.51 204.34 142.58 223.73"/><polygon class="cls-27" points="155.51 204.34 154.12 203.53 153.53 200.58 154.93 201.39 155.51 204.34"/><polygon class="cls-24" points="126.91 247.22 125.52 246.41 139.44 225.55 140.83 226.37 126.91 247.22"/><polygon class="cls-24" points="154.52 199.44 153.13 198.63 158.1 195.76 159.49 196.58 154.52 199.44"/><polygon class="cls-22" points="129.8 219.28 128.4 218.47 141.19 222.91 142.58 223.73 129.8 219.28"/><polygon class="cls-24" points="130.76 213.14 129.36 212.33 153.13 198.63 154.52 199.44 130.76 213.14"/><polygon class="cls-24" points="124.93 216.5 123.53 215.69 129.36 212.33 130.76 213.14 124.93 216.5"/><polygon class="cls-24" points="124.04 217.01 122.64 216.2 123.53 215.69 124.93 216.5 124.04 217.01"/><path class="cls-28" d="M159.49,196.58l1.8-1,0,111.44-6.77,3.9,1.17-7.54,1.6-1.53-14.72-5.11-14.65,22,1.7-.31,1.19,6.18-6.77,3.9L124,217l.89-.51,5.83-3.36,23.76-13.7ZM129.7,253.73l12.89,4.48,13-19.58v-4.92l1.47-1.72-14.53-5-14.45,21.68,1.57,0v5.06Zm0,35.27,12.88,4.47,13.06-19.58v-4.53l-25.94,14.95V289Zm.7-73.47-.61,3.75,12.78,4.45,12.93-19.39-.58-3-24.52,14.14ZM157,266.41l-14.38-5L128.24,283,157,266.41Zm1.44-37.2V205.09l-1.29.11-12.75,19.13,14,4.88Zm-31.48-6,0,24,13.92-20.86-12.71-4.43-1.19,1.3Zm31.48,40.46V240.44l-1.78-.05-12.27,18.42,14,4.88Zm0,35.26V275.71l-1.78-.06-12.27,18.43,14,4.87Zm-31.5,18,13.92-20.85-12.22-4.25-1.7,2V317Zm0-58.36v23.1l13.92-20.86-12.23-4.24-1.7,2Z"/><polygon class="cls-21" points="124.06 328.45 122.67 327.64 122.64 216.2 124.04 217.01 124.06 328.45"/></g><g class="cls-1"><polygon class="cls-39" points="90.71 524.05 92.11 523.24 93.81 524.89 92.41 525.7 90.71 524.05"/><polygon class="cls-40" points="92.41 525.7 93.81 524.89 95 532.44 93.6 533.26 92.41 525.7"/><polygon class="cls-28" points="89.73 498.08 91.12 497.27 91.12 520.37 89.72 521.18 89.73 498.08"/><polygon class="cls-41" points="89.72 521.18 91.12 520.37 105.02 515.55 103.62 516.36 89.72 521.18"/><polygon class="cls-42" points="118.51 540.74 119.9 539.93 121.5 540.24 120.11 541.05 118.51 540.74"/><polygon class="cls-22" points="92.49 496.42 93.89 495.61 106.79 514.95 105.4 515.76 92.49 496.42"/><polygon class="cls-28" points="92.49 491.73 93.89 490.92 93.89 495.61 92.49 496.42 92.49 491.73"/><polygon class="cls-22" points="107.15 518.4 108.54 517.58 122.59 538.66 121.2 539.47 107.15 518.4"/><polygon class="cls-28" points="89.73 462.82 91.13 462 91.12 485.11 89.73 485.92 89.73 462.82"/><polygon class="cls-41" points="105.4 515.76 106.79 514.95 119.83 510.42 118.44 511.23 105.4 515.76"/><polygon class="cls-41" points="89.73 485.92 91.12 485.11 105.02 480.29 103.63 481.1 89.73 485.92"/><polygon class="cls-24" points="91.05 488.72 92.44 487.9 121.15 504.45 119.75 505.27 91.05 488.72"/><polygon class="cls-22" points="92.5 461.15 93.89 460.34 106.8 479.68 105.4 480.49 92.5 461.15"/><polygon class="cls-28" points="92.5 456.09 93.89 455.28 93.89 460.34 92.5 461.15 92.5 456.09"/><polygon class="cls-43" points="90.95 454.27 92.34 453.45 93.89 455.28 92.5 456.09 90.95 454.27"/><polygon class="cls-22" points="107.15 483.13 108.55 482.32 122.6 503.39 121.2 504.21 107.15 483.13"/><polygon class="cls-28" points="89.73 427.47 91.13 426.65 91.13 450.63 89.73 451.44 89.73 427.47"/><polygon class="cls-41" points="105.4 480.49 106.8 479.68 119.83 475.18 118.44 475.99 105.4 480.49"/><polygon class="cls-41" points="89.73 451.44 91.13 450.63 105.03 445.81 103.63 446.62 89.73 451.44"/><polygon class="cls-44" points="118.44 471.05 119.83 470.23 121.31 470.21 119.91 471.02 118.44 471.05"/><polygon class="cls-22" points="92.6 426.82 94 426.01 106.8 445.2 105.41 446.01 92.6 426.82"/><polygon class="cls-22" points="93.21 423.77 94.61 422.95 94 426.01 92.6 426.82 93.21 423.77"/><polygon class="cls-22" points="107.16 448.65 108.55 447.84 122.6 468.92 121.2 469.73 107.16 448.65"/><polygon class="cls-24" points="86.84 417.92 88.24 417.1 94.96 420.98 93.56 421.79 86.84 417.92"/><polygon class="cls-41" points="105.41 446.01 106.8 445.2 119.71 440.71 118.32 441.53 105.41 446.01"/><polygon class="cls-24" points="93.56 421.79 94.96 420.98 118.77 434.7 117.38 435.52 93.56 421.79"/><polygon class="cls-24" points="117.38 435.52 118.77 434.7 125.49 438.58 124.1 439.39 117.38 435.52"/><path class="cls-45" d="M117.38,435.52l6.72,3.87V550.83l-6.77-3.91,1.19-6.18,1.6.31L105.4,519l-14.69,5.06,1.7,1.65,1.19,7.56-6.77-3.91V417.91l6.72,3.88ZM92.5,461.15l12.9,19.34,13-4.5v-4.94l1.47,0-14.5-21.77-14.46,5,1.55,1.82v5.06Zm0,35.27,12.91,19.34,13-4.53v-4.54l-25.95-15v4.69Zm.72-72.65-.61,3.05L105.41,446l12.91-4.49-.59-3.63L93.21,423.77Zm26.54,81.5L105.4,483.75l-14.35,5,28.7,16.55Zm1.45-35.54V445.61l-1.3-1.39-12.75,4.43,14,21.08Zm0,69.74V516.22l-1.78-2.1-12.27,4.28,14,21.07Zm0-35.26V481l-1.77-2.1-12.28,4.27,14,21.08ZM89.73,427.47v24l13.9-4.82-12.7-19.08-1.2-.07Zm0,93.71,13.9-4.82L91.43,498l-1.7,0v23.1Zm0-58.36v23.1l13.9-4.82-12.2-18.32-1.7,0Z"/><polygon class="cls-28" points="124.1 439.39 125.49 438.58 125.48 550.01 124.09 550.83 124.1 439.39"/></g><g class="cls-1"><polygon class="cls-46" points="90.72 412.88 92.12 412.06 93.82 413.69 92.42 414.5 90.72 412.88"/><polygon class="cls-47" points="92.42 414.5 93.82 413.69 94.96 420.98 93.56 421.79 92.42 414.5"/><polygon class="cls-48" points="89.74 386.88 91.13 386.06 91.13 409.2 89.74 410.01 89.74 386.88"/><polygon class="cls-49" points="89.74 410.01 91.13 409.2 105.03 404.35 103.64 405.16 89.74 410.01"/><polygon class="cls-50" points="118.52 429.54 119.92 428.73 121.51 429.04 120.12 429.85 118.52 429.54"/><polygon class="cls-51" points="92.5 385.21 93.9 384.4 106.81 403.74 105.41 404.55 92.5 385.21"/><polygon class="cls-48" points="92.5 380.53 93.9 379.72 93.9 384.4 92.5 385.21 92.5 380.53"/><polygon class="cls-51" points="107.16 407.19 108.56 406.38 122.6 427.45 121.21 428.27 107.16 407.19"/><polygon class="cls-48" points="89.74 351.64 91.14 350.83 91.14 373.93 89.74 374.74 89.74 351.64"/><polygon class="cls-49" points="105.41 404.55 106.81 403.74 119.84 399.24 118.45 400.05 105.41 404.55"/><polygon class="cls-49" points="89.74 374.74 91.14 373.93 105.03 369.08 103.64 369.89 89.74 374.74"/><polygon class="cls-52" points="91.06 377.51 92.45 376.7 121.16 393.25 119.77 394.06 91.06 377.51"/><polygon class="cls-51" points="92.51 349.95 93.9 349.14 106.81 368.51 105.41 369.32 92.51 349.95"/><polygon class="cls-48" points="92.51 344.89 93.9 344.07 93.9 349.14 92.51 349.95 92.51 344.89"/><polygon class="cls-53" points="90.96 343.06 92.36 342.25 93.9 344.07 92.51 344.89 90.96 343.06"/><polygon class="cls-51" points="107.16 371.93 108.56 371.12 122.61 392.19 121.21 393 107.16 371.93"/><polygon class="cls-48" points="89.75 316.29 91.14 315.48 91.14 339.45 89.74 340.27 89.75 316.29"/><polygon class="cls-49" points="105.41 369.32 106.81 368.51 119.85 363.98 118.45 364.79 105.41 369.32"/><polygon class="cls-49" points="89.74 340.27 91.14 339.45 105.04 334.61 103.64 335.42 89.74 340.27"/><polygon class="cls-54" points="118.45 359.84 119.85 359.03 121.32 359 119.92 359.82 118.45 359.84"/><polygon class="cls-51" points="92.61 315.62 94.01 314.8 106.81 334 105.42 334.81 92.61 315.62"/><polygon class="cls-9" points="93.22 312.56 94.62 311.75 94.01 314.8 92.61 315.62 93.22 312.56"/><polygon class="cls-51" points="107.17 337.45 108.56 336.64 122.61 357.71 121.22 358.52 107.17 337.45"/><polygon class="cls-52" points="86.86 306.97 88.25 306.16 95.02 310.06 93.63 310.88 86.86 306.97"/><polygon class="cls-49" points="105.42 334.81 106.81 334 119.72 329.51 118.33 330.32 105.42 334.81"/><polygon class="cls-52" points="93.63 310.88 95.02 310.06 118.73 323.73 117.34 324.55 93.63 310.88"/><polygon class="cls-52" points="117.34 324.55 118.73 323.73 125.51 327.63 124.11 328.45 117.34 324.55"/><path class="cls-55" d="M117.34,324.54l6.77,3.91V439.39l-6.72-3.87,1.14-6,1.6.31-14.71-22-14.69,5.07,1.7,1.62,1.14,7.29-6.72-3.88,0-110.94,6.77,3.91ZM92.51,350l12.9,19.37,13-4.53v-5l1.47,0-14.5-21.75-14.46,5,1.55,1.83V350Zm0,35.26,12.91,19.34,13-4.5v-4.57l-25.95-15v4.68Zm.72-72.65-.61,3.06,12.81,19.19,12.91-4.49-.58-3.62L93.22,312.56Zm26.55,81.5-14.36-21.51-14.35,5,28.71,16.55Zm1.45-35.53v-24.1L119.93,333l-12.76,4.43,14,21.08ZM89.75,316.29v24l13.9-4.85-12.7-19.05-1.19-.08Zm31.46,112V405L119.44,403l-12.28,4.24,14,21.08Zm0-35.27V369.79l-1.78-2.1-12.28,4.24,14,21.07ZM89.74,410l13.89-4.85L91.44,386.84l-1.7,0V410Zm0-58.37v23.1l13.9-4.84-12.2-18.3-1.7,0Z"/><polygon class="cls-48" points="124.11 328.45 125.51 327.63 125.49 438.58 124.1 439.39 124.11 328.45"/></g><g class="cls-1"><polygon class="cls-39" points="90.74 301.67 92.13 300.86 93.83 302.48 92.44 303.29 90.74 301.67"/><polygon class="cls-40" points="92.44 303.29 93.83 302.48 95.02 310.06 93.63 310.88 92.44 303.29"/><polygon class="cls-28" points="89.75 275.7 91.15 274.89 91.14 297.99 89.75 298.8 89.75 275.7"/><polygon class="cls-41" points="89.75 298.8 91.14 297.99 105.04 293.14 103.65 293.95 89.75 298.8"/><polygon class="cls-56" points="118.53 318.34 119.93 317.52 121.53 317.86 120.13 318.68 118.53 318.34"/><polygon class="cls-22" points="92.52 274.04 93.91 273.23 106.82 292.57 105.42 293.38 92.52 274.04"/><polygon class="cls-28" points="92.52 269.32 93.91 268.51 93.91 273.23 92.52 274.04 92.52 269.32"/><polygon class="cls-22" points="107.17 295.99 108.57 295.18 122.62 316.25 121.22 317.06 107.17 295.99"/><polygon class="cls-28" points="89.75 240.44 91.15 239.63 91.15 262.73 89.75 263.54 89.75 240.44"/><polygon class="cls-41" points="105.42 293.38 106.82 292.57 119.86 288.04 118.46 288.85 105.42 293.38"/><polygon class="cls-41" points="89.75 263.54 91.15 262.73 105.05 257.91 103.65 258.72 89.75 263.54"/><polygon class="cls-24" points="91.07 266.34 92.47 265.52 121.17 282.07 119.78 282.89 91.07 266.34"/><polygon class="cls-22" points="92.52 238.77 93.91 237.96 106.82 257.3 105.43 258.12 92.52 238.77"/><polygon class="cls-28" points="92.52 233.71 93.92 232.9 93.91 237.96 92.52 238.77 92.52 233.71"/><polygon class="cls-43" points="90.97 231.89 92.37 231.07 93.92 232.9 92.52 233.71 90.97 231.89"/><polygon class="cls-22" points="107.18 260.75 108.57 259.94 122.62 281.02 121.22 281.83 107.18 260.75"/><polygon class="cls-28" points="89.76 205.09 91.15 204.27 91.15 228.25 89.75 229.06 89.76 205.09"/><polygon class="cls-41" points="105.43 258.12 106.82 257.3 119.86 252.77 118.46 253.58 105.43 258.12"/><polygon class="cls-41" points="89.75 229.06 91.15 228.25 105.05 223.4 103.66 224.21 89.75 229.06"/><polygon class="cls-24" points="86.87 195.53 88.26 194.72 89.15 195.24 87.76 196.05 86.87 195.53"/><polygon class="cls-57" points="118.46 248.67 119.86 247.85 121.33 247.8 119.94 248.61 118.46 248.67"/><polygon class="cls-22" points="92.62 204.44 94.02 203.63 106.83 222.82 105.43 223.64 92.62 204.44"/><polygon class="cls-22" points="93.23 201.39 94.63 200.57 94.02 203.63 92.62 204.44 93.23 201.39"/><polygon class="cls-22" points="107.18 226.25 108.58 225.43 122.62 246.54 121.23 247.35 107.18 226.25"/><polygon class="cls-24" points="87.76 196.05 89.15 195.24 94.98 198.6 93.59 199.41 87.76 196.05"/><polygon class="cls-41" points="105.43 223.64 106.83 222.82 119.74 218.34 118.34 219.15 105.43 223.64"/><polygon class="cls-24" points="93.59 199.41 94.98 198.6 118.75 212.29 117.35 213.11 93.59 199.41"/><polygon class="cls-24" points="117.35 213.11 118.75 212.29 123.72 215.16 122.32 215.97 117.35 213.11"/><polygon class="cls-24" points="122.32 215.97 123.72 215.16 125.52 216.2 124.12 217.01 122.32 215.97"/><path class="cls-45" d="M122.32,216l1.8,1V328.45l-6.77-3.91,1.19-6.2,1.6.34-14.71-22.07-14.68,5.06,1.7,1.62,1.19,7.59L86.86,307V195.54l.89.51,5.83,3.36,23.76,13.7Zm-29.8,22.8,12.91,19.34,13-4.53v-4.91l1.47-.06-14.5-21.74-14.46,5,1.55,1.82v5.06Zm0,35.27,12.9,19.34,13-4.53v-4.57l-25.94-15V274Zm.71-72.65-.61,3.05,12.81,19.2,12.91-4.49-.58-3.63L93.23,201.39Zm26.55,81.5-14.35-21.55-14.36,5,28.71,16.55Zm1.45-35.54V223.23l-1.29-1.39-12.76,4.4,14,21.11Zm0,34.48V258.58l-1.78-2.1-12.27,4.27,14,21.08ZM89.76,205.09v24l13.89-4.85L91,205.16l-1.19-.07Zm31.46,112V293.84l-1.77-2.09L107.17,296l14,21.07ZM89.75,298.8l13.9-4.84-12.2-18.3-1.7,0v23.1Zm0-58.36v23.1l13.9-4.82L91.45,240.4l-1.7,0Z"/><polygon class="cls-28" points="124.12 217.01 125.52 216.2 125.51 327.63 124.11 328.45 124.12 217.01"/></g><g class="cls-1"><polygon class="cls-58" points="118.41 169.24 118.4 173.07 103.08 164.22 103.09 160.39 118.41 169.24"/><polygon class="cls-58" points="157.42 191.76 157.41 195.59 124.06 176.34 124.07 172.5 157.42 191.76"/><polygon class="cls-59" points="124.07 172.5 124.06 176.34 90.93 195.59 90.94 191.76 124.07 172.5"/><polygon class="cls-59" points="85.31 195.03 85.3 198.86 70.03 207.74 70.04 203.91 85.31 195.03"/><polygon class="cls-58" points="70.04 203.91 70.03 207.74 64.36 204.47 64.38 200.64 70.04 203.91"/><polygon class="cls-59" points="184.14 182.73 184.13 186.56 129.89 218.09 129.9 214.25 184.14 182.73"/><polygon class="cls-59" points="145.33 223.16 145.32 226.99 139.69 230.26 139.7 226.43 145.33 223.16"/><path class="cls-60" d="M129.9,214.25l15.43,8.91-5.63,3.27L85.31,195,70,203.91l-5.67-3.27,54-31.41-15.32-8.84,5.57-3.24L163,188.52l15.53-9,5.61,3.24ZM124.29,211l33.13-19.25L124.07,172.5,90.94,191.76,124.29,211Z"/><polygon class="cls-58" points="139.7 226.43 139.69 230.26 85.3 198.86 85.31 195.03 139.7 226.43"/></g><g class="cls-1"><polygon class="cls-29" points="118.79 175.1 117.4 174.28 118.51 167.01 119.91 167.82 118.79 175.1"/><polygon class="cls-30" points="119.91 167.82 118.51 167.01 120.11 165.48 121.51 166.29 119.91 167.82"/><polygon class="cls-31" points="122.62 163.43 121.23 162.62 121.22 139.37 122.62 140.19 122.62 163.43"/><polygon class="cls-9" points="108.57 158.56 107.17 157.74 121.23 162.62 122.62 163.43 108.57 158.56"/><polygon class="cls-32" points="92.14 183.19 90.74 182.38 92.44 182.04 93.84 182.85 92.14 183.19"/><polygon class="cls-33" points="106.79 157.95 105.4 157.14 118.46 137.59 119.85 138.4 106.79 157.95"/><polygon class="cls-31" points="119.85 138.4 118.46 137.59 118.46 133.02 119.85 133.84 119.85 138.4"/><polygon class="cls-33" points="91.12 181.47 89.73 180.66 103.65 159.78 105.04 160.59 91.12 181.47"/><polygon class="cls-31" points="122.61 128.17 121.22 127.36 121.22 104.14 122.61 104.95 122.61 128.17"/><polygon class="cls-9" points="93.91 153.48 92.51 152.66 105.4 157.14 106.79 157.95 93.91 153.48"/><polygon class="cls-9" points="108.56 123.29 107.17 122.48 121.22 127.36 122.61 128.17 108.56 123.29"/><polygon class="cls-34" points="92.44 147.46 91.04 146.65 119.77 130.08 121.17 130.89 92.44 147.46"/><polygon class="cls-33" points="106.79 122.72 105.39 121.9 118.45 102.33 119.84 103.14 106.79 122.72"/><polygon class="cls-61" points="119.84 98.19 118.45 97.38 119.92 95.66 121.31 96.47 119.84 98.19"/><polygon class="cls-31" points="119.84 103.14 118.45 102.33 118.45 97.38 119.84 98.19 119.84 103.14"/><polygon class="cls-33" points="91.12 146.21 89.72 145.4 103.64 124.51 105.04 125.32 91.12 146.21"/><polygon class="cls-31" points="122.61 93.69 121.21 92.88 121.21 68.79 122.6 69.6 122.61 93.69"/><polygon class="cls-9" points="93.9 118.21 92.51 117.4 105.39 121.9 106.79 122.72 93.9 118.21"/><polygon class="cls-9" points="108.56 88.81 107.16 88 121.21 92.88 122.61 93.69 108.56 88.81"/><polygon class="cls-34" points="123.69 61.09 122.3 60.27 124.1 59.24 125.49 60.05 123.69 61.09"/><polygon class="cls-62" points="92.33 113.13 90.93 112.31 92.51 112.34 93.9 113.15 92.33 113.13"/><polygon class="cls-33" points="106.78 88.21 105.39 87.39 118.32 68.01 119.71 68.82 106.78 88.21"/><polygon class="cls-37" points="119.71 68.82 118.32 68.01 117.73 65.06 119.13 65.87 119.71 68.82"/><polygon class="cls-33" points="91.11 111.73 89.72 110.92 103.64 90.03 105.03 90.84 91.11 111.73"/><polygon class="cls-34" points="118.72 63.95 117.33 63.14 122.3 60.27 123.69 61.09 118.72 63.95"/><polygon class="cls-9" points="94 83.76 92.6 82.95 105.39 87.39 106.78 88.21 94 83.76"/><polygon class="cls-34" points="95.01 77.62 93.62 76.81 117.33 63.14 118.72 63.95 95.01 77.62"/><polygon class="cls-34" points="89.13 81.01 87.73 80.2 93.62 76.81 95.01 77.62 89.13 81.01"/><polygon class="cls-34" points="88.24 81.52 86.84 80.71 87.73 80.2 89.13 81.01 88.24 81.52"/><path class="cls-38" d="M123.69,61.09l1.8-1,0,111.17-1.8,1-4.92,2.84,1.12-7.28,1.6-1.53-14.72-5.08-14.65,22,1.7-.34,1.14,6-5.83,3.37-.89.51,0-111.18.89-.51L95,77.62,118.72,64ZM93.9,118.21l12.89,4.5,13.06-19.57v-5l1.48-1.72-14.54-5L92.33,113.12l1.57,0v5.06Zm0,35.27L106.79,158l13.06-19.55v-4.56L93.91,148.79v4.69ZM94.61,80,94,83.76l12.78,4.45,12.93-19.39-.58-2.95L94.61,80Zm26.56,50.88-14.38-4.95L92.44,147.46l28.73-16.57Zm1.44-37.2V69.6l-1.29.08L108.56,88.81l14,4.88Zm-31.48-6,0,24L105,90.85,92.32,86.44l-1.19,1.3Zm31.49,75.69V140.19l-1.78-.06-12.27,18.43,14.05,4.87Zm0-35.26V105l-1.77,0-12.28,18.39,14,4.88Zm-31.49,53.3L105,160.59l-12.22-4.24-1.7,2v23.13Zm0-58.36v23.1L105,125.32l-12.23-4.21-1.7,2Z"/><polygon class="cls-31" points="88.26 192.7 86.86 191.89 86.84 80.71 88.24 81.52 88.26 192.7"/></g><g class="cls-1"><polygon class="cls-46" points="126.48 166.25 127.88 165.44 129.58 167.06 128.18 167.88 126.48 166.25"/><polygon class="cls-47" points="128.18 167.88 129.58 167.06 130.72 174.35 129.32 175.17 128.18 167.88"/><polygon class="cls-48" points="125.5 140.26 126.89 139.44 126.89 162.54 125.49 163.36 125.5 140.26"/><polygon class="cls-49" points="125.49 163.36 126.89 162.54 140.79 157.72 139.39 158.54 125.49 163.36"/><polygon class="cls-50" points="154.28 182.92 155.67 182.11 157.27 182.42 155.88 183.23 154.28 182.92"/><polygon class="cls-51" points="128.26 138.59 129.66 137.78 142.56 157.12 141.17 157.93 128.26 138.59"/><polygon class="cls-48" points="128.26 133.91 129.66 133.09 129.66 137.78 128.26 138.59 128.26 133.91"/><polygon class="cls-51" points="142.92 160.57 144.31 159.76 158.36 180.83 156.97 181.65 142.92 160.57"/><polygon class="cls-48" points="125.5 105.02 126.89 104.21 126.89 127.31 125.5 128.12 125.5 105.02"/><polygon class="cls-49" points="141.17 157.93 142.56 157.12 155.6 152.59 154.2 153.4 141.17 157.93"/><polygon class="cls-49" points="125.5 128.12 126.89 127.31 140.79 122.46 139.4 123.27 125.5 128.12"/><polygon class="cls-52" points="126.82 130.89 128.21 130.08 156.92 146.63 155.52 147.44 126.82 130.89"/><polygon class="cls-51" points="128.26 103.33 129.66 102.51 142.57 121.86 141.17 122.67 128.26 103.33"/><polygon class="cls-53" points="126.72 96.44 128.11 95.63 129.66 97.45 128.26 98.26 126.72 96.44"/><polygon class="cls-48" points="128.26 98.26 129.66 97.45 129.66 102.51 128.26 103.33 128.26 98.26"/><polygon class="cls-51" points="142.92 125.31 144.32 124.49 158.37 145.57 156.97 146.38 142.92 125.31"/><polygon class="cls-48" points="125.5 69.67 126.9 68.86 126.9 92.8 125.5 93.61 125.5 69.67"/><polygon class="cls-49" points="141.17 122.67 142.57 121.86 155.6 117.35 154.21 118.17 141.17 122.67"/><polygon class="cls-49" points="125.5 93.61 126.9 92.8 140.79 87.98 139.4 88.8 125.5 93.61"/><polygon class="cls-54" points="154.21 113.22 155.6 112.41 157.07 112.38 155.68 113.19 154.21 113.22"/><polygon class="cls-51" points="128.37 68.99 129.76 68.18 142.57 87.38 141.18 88.19 128.37 68.99"/><polygon class="cls-9" points="128.98 65.94 130.37 65.13 129.76 68.18 128.37 68.99 128.98 65.94"/><polygon class="cls-51" points="142.93 90.83 144.32 90.02 158.37 111.09 156.97 111.9 142.93 90.83"/><polygon class="cls-49" points="141.18 88.19 142.57 87.38 155.48 82.89 154.09 83.7 141.18 88.19"/><polygon class="cls-52" points="154.49 76.85 124.08 59.32 124.08 60.93 129.38 63.99 153.1 77.66 158.07 80.53 159.46 79.71 154.49 76.85"/><polygon class="cls-52" points="158.07 80.53 159.46 79.71 161.26 80.75 159.87 81.56 158.07 80.53"/><path class="cls-55" d="M158.07,80.53l-5-2.87L129.38,64l-5.3-3.06V172.15l5.24,3-1.14-7.3-1.7-1.61,14.69-5.1,14.71,22.07-1.6-.31-1.14,6,4.92,2.84,1.8,1V81.56ZM129,65.94,153.5,80.08l.59,3.62-12.91,4.49L128.37,69Zm-.72,37.39V98.26l-1.54-1.82,14.45-5,14.51,21.74-1.47,0v5l-13,4.5Zm27.26,44.11-28.7-16.55,14.35-5Zm-30-77.77,1.2.07L139.4,88.8l-13.9,4.81Zm0,35.35,1.7-.07,12.2,18.32-13.9,4.85Zm0,58.34v-23.1l1.69,0,12.2,18.32Zm2.77-24.77v-4.68l25.94,15v4.54l-13,4.53ZM157,181.65l-14.05-21.08,12.27-4.27,1.78,2.1Zm0-35.27-14.05-21.07,12.28-4.25,1.77,2.1Zm0-34.48L142.92,90.83l12.76-4.43,1.3,1.41Z"/><polygon class="cls-48" points="159.87 81.56 161.26 80.75 161.25 191.96 159.86 192.77 159.87 81.56"/></g><g class="cls-1"><polygon class="cls-29" points="154.57 195.83 153.18 195.02 154.29 187.74 155.69 188.56 154.57 195.83"/><polygon class="cls-30" points="155.69 188.56 154.29 187.74 155.89 186.21 157.28 187.02 155.69 188.56"/><polygon class="cls-31" points="158.4 184.17 157 183.36 157 160.11 158.4 160.92 158.4 184.17"/><polygon class="cls-9" points="144.35 179.29 142.95 178.48 157 183.36 158.4 184.17 144.35 179.29"/><polygon class="cls-32" points="127.92 203.92 126.52 203.11 128.22 202.77 129.62 203.58 127.92 203.92"/><polygon class="cls-33" points="142.57 178.69 141.18 177.87 154.24 158.33 155.63 159.14 142.57 178.69"/><polygon class="cls-31" points="155.63 159.14 154.24 158.33 154.24 153.76 155.63 154.57 155.63 159.14"/><polygon class="cls-33" points="126.9 202.21 125.51 201.4 139.43 180.51 140.82 181.32 126.9 202.21"/><polygon class="cls-31" points="158.39 148.91 157 148.09 156.99 124.87 158.39 125.69 158.39 148.91"/><polygon class="cls-9" points="129.69 174.21 128.29 173.4 141.18 177.87 142.57 178.69 129.69 174.21"/><polygon class="cls-9" points="144.34 144.03 142.95 143.22 157 148.09 158.39 148.91 144.34 144.03"/><polygon class="cls-34" points="128.22 168.19 126.82 167.38 155.55 150.82 156.95 151.63 128.22 168.19"/><polygon class="cls-33" points="142.57 143.45 141.17 142.64 154.23 123.06 155.63 123.88 142.57 143.45"/><polygon class="cls-61" points="155.62 118.93 154.23 118.12 155.7 116.4 157.09 117.21 155.62 118.93"/><polygon class="cls-31" points="155.63 123.88 154.23 123.06 154.23 118.12 155.62 118.93 155.63 123.88"/><polygon class="cls-33" points="126.9 166.94 125.5 166.13 139.42 145.25 140.82 146.06 126.9 166.94"/><polygon class="cls-31" points="158.39 114.43 156.99 113.61 156.99 89.52 158.38 90.33 158.39 114.43"/><polygon class="cls-9" points="129.68 138.95 128.29 138.13 141.17 142.64 142.57 143.45 129.68 138.95"/><polygon class="cls-9" points="144.34 109.55 142.94 108.74 156.99 113.61 158.39 114.43 144.34 109.55"/><polygon class="cls-34" points="159.47 81.82 158.08 81.01 159.88 79.97 161.27 80.78 159.47 81.82"/><polygon class="cls-62" points="128.11 133.86 126.71 133.05 128.28 133.07 129.68 133.88 128.11 133.86"/><polygon class="cls-33" points="142.56 108.94 141.16 108.13 154.1 88.75 155.49 89.56 142.56 108.94"/><polygon class="cls-37" points="155.49 89.56 154.1 88.75 153.51 85.79 154.91 86.61 155.49 89.56"/><polygon class="cls-33" points="126.89 132.47 125.5 131.66 139.42 110.77 140.81 111.58 126.89 132.47"/><polygon class="cls-34" points="154.5 84.69 153.11 83.87 158.08 81.01 159.47 81.82 154.5 84.69"/><polygon class="cls-9" points="129.78 104.5 128.38 103.69 141.16 108.13 142.56 108.94 129.78 104.5"/><polygon class="cls-34" points="130.79 98.36 129.4 97.54 153.11 83.87 154.5 84.69 130.79 98.36"/><polygon class="cls-34" points="124.91 101.75 123.51 100.94 129.4 97.54 130.79 98.36 124.91 101.75"/><polygon class="cls-34" points="124.02 102.26 122.62 101.45 123.51 100.94 124.91 101.75 124.02 102.26"/><path class="cls-38" d="M159.47,81.82l1.8-1,0,111.18-1.8,1-4.92,2.83,1.12-7.27,1.59-1.54-14.71-5.08-14.65,22,1.7-.34,1.14,6-5.83,3.36-.89.51,0-111.17.89-.51,5.88-3.39L154.5,84.69ZM129.68,139l12.89,4.5,13.05-19.57v-4.95l1.47-1.72-14.53-5-14.45,21.66,1.57,0V139Zm0,35.26,12.88,4.48,13.06-19.55v-4.57l-25.94,15v4.68Zm.69-73.47-.6,3.76,12.78,4.44,12.93-19.38-.58-3-24.53,14.13ZM157,151.63l-14.38-4.95-14.35,21.51L157,151.63Zm1.44-37.2V90.33l-1.29.08-12.75,19.14,14,4.88Zm-31.48-6,0,24,13.92-20.89-12.71-4.4-1.19,1.3Zm31.49,75.69V160.92l-1.78,0-12.27,18.42,14.05,4.88Zm0-35.27V125.69l-1.78-.06L144.34,144l14,4.87ZM126.9,202.21l13.92-20.89-12.22-4.24-1.7,2v23.13Zm0-58.37V167l13.92-20.89-12.23-4.21-1.7,2Z"/><polygon class="cls-31" points="124.04 213.43 122.64 212.62 122.62 101.45 124.02 102.26 124.04 213.43"/></g><g class="cls-1"><polygon class="cls-46" points="90.75 186.92 92.14 186.11 93.84 187.73 92.45 188.54 90.75 186.92"/><polygon class="cls-47" points="92.45 188.54 93.84 187.73 94.98 195.02 93.59 195.83 92.45 188.54"/><polygon class="cls-48" points="89.76 160.92 91.16 160.11 91.16 183.21 89.76 184.02 89.76 160.92"/><polygon class="cls-49" points="89.76 184.02 91.16 183.21 105.06 178.39 103.66 179.2 89.76 184.02"/><polygon class="cls-50" points="118.55 203.58 119.94 202.77 121.54 203.08 120.14 203.89 118.55 203.58"/><polygon class="cls-51" points="92.53 159.25 93.92 158.44 106.83 177.78 105.44 178.59 92.53 159.25"/><polygon class="cls-48" points="92.53 154.57 93.92 153.76 93.92 158.44 92.53 159.25 92.53 154.57"/><polygon class="cls-51" points="107.18 181.23 108.58 180.42 122.63 201.5 121.23 202.31 107.18 181.23"/><polygon class="cls-48" points="89.77 125.68 91.16 124.87 91.16 147.97 89.76 148.78 89.77 125.68"/><polygon class="cls-49" points="105.44 178.59 106.83 177.78 119.87 173.25 118.47 174.06 105.44 178.59"/><polygon class="cls-49" points="89.76 148.78 91.16 147.97 105.06 143.12 103.66 143.94 89.76 148.78"/><polygon class="cls-52" points="91.08 151.55 92.48 150.74 121.19 167.29 119.79 168.1 91.08 151.55"/><polygon class="cls-51" points="92.53 123.99 93.93 123.18 106.83 142.52 105.44 143.33 92.53 123.99"/><polygon class="cls-53" points="90.98 117.1 92.38 116.29 93.93 118.11 92.53 118.93 90.98 117.1"/><polygon class="cls-48" points="92.53 118.93 93.93 118.11 93.93 123.18 92.53 123.99 92.53 118.93"/><polygon class="cls-51" points="107.19 145.97 108.58 145.16 122.63 166.23 121.24 167.04 107.19 145.97"/><polygon class="cls-48" points="89.77 90.33 91.17 89.52 91.16 113.47 89.77 114.28 89.77 90.33"/><polygon class="cls-49" points="105.44 143.33 106.83 142.52 119.87 138.01 118.48 138.83 105.44 143.33"/><polygon class="cls-49" points="89.77 114.28 91.16 113.47 105.06 108.64 103.67 109.46 89.77 114.28"/><polygon class="cls-52" points="86.88 80.75 88.28 79.94 89.16 80.45 87.77 81.26 86.88 80.75"/><polygon class="cls-54" points="118.48 133.88 119.87 133.07 121.34 133.04 119.95 133.86 118.48 133.88"/><polygon class="cls-51" points="92.64 89.66 94.03 88.84 106.84 108.04 105.44 108.85 92.64 89.66"/><polygon class="cls-9" points="93.25 86.6 94.64 85.79 94.03 88.84 92.64 89.66 93.25 86.6"/><polygon class="cls-51" points="107.19 111.49 108.59 110.68 122.64 131.75 121.24 132.56 107.19 111.49"/><polygon class="cls-52" points="87.77 81.26 89.16 80.45 95.05 83.84 93.65 84.65 87.77 81.26"/><polygon class="cls-49" points="105.44 108.85 106.84 108.04 119.75 103.55 118.35 104.36 105.44 108.85"/><polygon class="cls-52" points="93.65 84.65 95.05 83.84 118.76 97.51 117.36 98.32 93.65 84.65"/><polygon class="cls-52" points="117.36 98.32 118.76 97.51 123.73 100.38 122.33 101.19 117.36 98.32"/><polygon class="cls-52" points="122.33 101.19 123.73 100.38 125.53 101.41 124.14 102.23 122.33 101.19"/><path class="cls-55" d="M122.33,101.19l1.81,1,0,111.2-1.8-1-4.92-2.83,1.14-6,1.6.31-14.71-22.07-14.68,5.1,1.7,1.62,1.14,7.29-5.83-3.36-.89-.51V80.75l.89.51,5.88,3.39,23.71,13.67ZM92.53,124l12.91,19.34,13-4.5v-5l1.47,0-14.51-21.75L91,117.1l1.55,1.83V124Zm0,35.26,12.9,19.34,13-4.53v-4.54l-25.94-15v4.68Zm.72-72.65-.61,3.06,12.8,19.19,12.91-4.49-.58-3.62L93.25,86.6Zm26.54,81.5-14.35-21.51-14.36,5,28.71,16.55Zm1.45-35.53v-24.1L120,107.06l-12.76,4.43,14,21.08Zm0,69.74V179.06l-1.78-2.1-12.28,4.27,14,21.08Zm0-35.27V143.83l-1.78-2.1L107.19,146l14,21.07ZM89.77,90.33v24l13.9-4.82L91,90.41l-1.19-.08Zm0,35.35v23.11l13.9-4.85L91.47,125.61l-1.7.07Zm0,58.34,13.9-4.82-12.2-18.32-1.7,0V184Z"/><polygon class="cls-48" points="124.14 102.23 125.53 101.41 125.52 212.62 124.12 213.43 124.14 102.23"/></g><g class="cls-1"><polygon class="cls-58" points="118.41 54.65 118.4 58.48 103.08 49.63 103.09 45.8 118.41 54.65"/><polygon class="cls-58" points="157.42 77.17 157.41 81 124.06 61.75 124.07 57.92 157.42 77.17"/><polygon class="cls-59" points="124.07 57.92 124.06 61.75 90.93 81 90.94 77.17 124.07 57.92"/><polygon class="cls-59" points="85.31 80.44 85.3 84.28 70.03 93.15 70.04 89.32 85.31 80.44"/><polygon class="cls-58" points="70.04 89.32 70.03 93.15 64.36 89.88 64.38 86.05 70.04 89.32"/><polygon class="cls-59" points="184.14 68.14 184.13 71.98 129.89 103.5 129.9 99.67 184.14 68.14"/><polygon class="cls-59" points="145.33 108.57 145.32 112.41 139.69 115.68 139.7 111.84 145.33 108.57"/><path class="cls-60" d="M129.9,99.67l15.43,8.9-5.63,3.27L85.31,80.44,70,89.32l-5.67-3.27,54-31.4L103.09,45.8l5.57-3.24L163,73.93l15.53-9,5.61,3.23Zm-5.61-3.24,33.13-19.26L124.07,57.92,90.94,77.17l33.35,19.26Z"/><polygon class="cls-58" points="139.7 111.84 139.69 115.68 85.3 84.28 85.31 80.44 139.7 111.84"/></g><g class="cls-1"><path class="cls-63" d="M78.69,37.35a2.58,2.58,0,0,1-2.33,0,.84.84,0,0,1-.49-.68L75.46,81.5a1,1,0,0,0,.61.85,3.18,3.18,0,0,0,2.91,0,1,1,0,0,0,.6-.83l-.41-44.84A.8.8,0,0,1,78.69,37.35Z"/><path class="cls-64" d="M78.69,36a2.61,2.61,0,0,0-2.34,0,.71.71,0,0,0,0,1.35,2.58,2.58,0,0,0,2.33,0A.71.71,0,0,0,78.69,36Z"/></g><g class="cls-1"><path class="cls-65" d="M135.64,61.49a2.58,2.58,0,0,1-2.33,0,.84.84,0,0,1-.49-.68l-.41,44.83a1,1,0,0,0,.61.85,3.18,3.18,0,0,0,2.91,0,1,1,0,0,0,.6-.83l-.41-44.84A.8.8,0,0,1,135.64,61.49Z"/><path class="cls-64" d="M135.64,60.14a2.61,2.61,0,0,0-2.34,0,.71.71,0,0,0,0,1.35,2.58,2.58,0,0,0,2.33,0A.71.71,0,0,0,135.64,60.14Z"/></g></g><path class="cls-14" d="M151,255.57h-.54c-5.43-.14-9.28-1.91-11.41-5.26-4.21-6.58-.12-16.58-.08-16.68a.82.82,0,0,1,1.5.64c-1,2.37-3.2,10.24-.05,15.17,1.83,2.86,5.22,4.38,10.09,4.51,3.84.05,7.06-1.07,9.36-3.52,5-5.37,5-15.36,4.51-20.84-.81-9-3.4-24.9-7-29a.8.8,0,0,1,.08-1.15.83.83,0,0,1,1.14.08c4.3,5,6.77,23.28,7.36,29.93.51,5.74.55,16.26-4.94,22.1A13.22,13.22,0,0,1,151,255.57Z"/><path class="cls-14" d="M154.06,244.88a9.65,9.65,0,0,1-3.46-.62,9,9,0,0,1-5.65-10,.8.8,0,0,1,.91-.7.81.81,0,0,1,.7.92,7.4,7.4,0,0,0,4.62,8.23c3.16,1.2,8.27.55,12.21-5.23,12.09-17.82-2.94-38.24-3.09-38.44a.82.82,0,0,1,1.31-1c.15.2,15.85,21.55,3.13,40.31C161.48,243.22,157.45,244.88,154.06,244.88Z"/><path class="cls-14" d="M152,249.74a16.61,16.61,0,0,1-4.2-.53c-5.45-1.48-8-5.69-6.7-11.29a.79.79,0,0,1,1-.62.81.81,0,0,1,.62,1c-1,4.71,1,8.12,5.54,9.36,6.92,1.89,18.8-2.24,22.26-13.21,2.83-9,1.71-30.2-7.34-36.86a.82.82,0,0,1-.16-1.14.79.79,0,0,1,1.13-.16c10,7.33,10.81,29.51,7.93,38.65A21.48,21.48,0,0,1,152,249.74Z"/><path class="cls-14" d="M75.59,228.39c-3,0-5.24-.89-6.57-2.65-2.75-3.64-.63-9.41.09-11.1a.81.81,0,1,1,1.49.64c-1.29,3.05-2,7.14-.28,9.48,1.28,1.7,3.8,2.34,7.44,1.85,5.58-.7,6.71-4,8.27-8.54s3.48-10.17,10.75-14.49a.79.79,0,0,1,1.11.29A.81.81,0,0,1,97.6,205c-6.74,4-8.49,9.11-10,13.61-1.62,4.73-3,8.81-9.6,9.64A20.37,20.37,0,0,1,75.59,228.39Z"/><path class="cls-14" d="M75.19,225.05h-.13c-5.23-.06-8.65-1.63-10.18-4.65-3.83-7.64,6.27-21.69,6.7-22.28a.82.82,0,0,1,1.14-.19.82.82,0,0,1,.18,1.14c-.1.13-10,13.84-6.56,20.59,1.23,2.44,4.17,3.71,8.74,3.77h.1c4.16,0,5.4-3.24,7.11-7.71,1.84-4.84,4.15-10.87,11.39-14.09a.81.81,0,0,1,1.08.41.83.83,0,0,1-.41,1.08c-6.63,2.93-8.71,8.38-10.54,13.18C82.09,220.8,80.46,225.05,75.19,225.05Z"/><path class="cls-14" d="M77.91,233.55a22.61,22.61,0,0,1-5.58-.77,15.09,15.09,0,0,1-11.59-12.35c-1.68-8.56,2.11-19.63,8.29-24.17a.81.81,0,1,1,1,1.3c-5.73,4.22-9.24,14.55-7.66,22.56.8,4.07,3.26,9.3,10.39,11.09,12.37,3.09,15.45-4.47,18.68-12.48,2.08-5.14,4.22-10.44,9-12.64a.81.81,0,1,1,.68,1.47c-4.19,1.93-6.12,6.72-8.17,11.78C90.21,226.06,87.18,233.55,77.91,233.55Z"/><g class="cls-1"><polygon class="cls-16" points="57.3 79.23 57.33 211.75 56.66 209.29 56.64 76.78 57.3 79.23"/><polygon class="cls-18" points="70.75 87 70.77 219.51 57.33 211.75 57.3 79.23 70.75 87"/><polygon class="cls-66" points="74.99 87.37 75.02 219.89 70.77 219.51 70.75 87 74.99 87.37"/><polygon class="cls-15" points="81 83.88 81.02 216.4 75.02 219.89 74.99 87.37 81 83.88"/><polygon class="cls-17" points="81 83.88 74.99 87.37 70.75 87 57.3 79.23 56.64 76.78 62.64 73.29 81 83.88"/></g><g class="cls-1"><polygon class="cls-67" points="155.18 100.65 155.2 233.17 154.54 235.62 154.51 103.11 155.18 100.65"/><polygon class="cls-15" points="154.51 103.11 154.54 235.62 141.2 243.38 141.17 110.86 154.51 103.11"/><polygon class="cls-67" points="141.17 110.86 141.2 243.38 136.96 243.77 136.93 111.25 141.17 110.86"/><polygon class="cls-18" points="136.93 111.25 136.96 243.77 130.91 240.28 130.89 107.76 136.93 111.25"/><polygon class="cls-17" points="155.18 100.65 154.51 103.11 141.17 110.86 136.93 111.25 130.89 107.76 149.13 97.16 155.18 100.65"/></g><g class="cls-1"><path class="cls-68" d="M178.36,24.51a2.58,2.58,0,0,1-2.33,0,.84.84,0,0,1-.49-.67l-.41,44.82a1,1,0,0,0,.61.85,3.18,3.18,0,0,0,2.91,0,1,1,0,0,0,.6-.83l-.41-44.84A.8.8,0,0,1,178.36,24.51Z"/><path class="cls-64" d="M178.36,23.16a2.61,2.61,0,0,0-2.34,0,.71.71,0,0,0,0,1.35,2.58,2.58,0,0,0,2.33,0A.71.71,0,0,0,178.36,23.16Z"/></g><g class="cls-1"><path class="cls-69" d="M110,1.63a2.63,2.63,0,0,1-2.32,0,.82.82,0,0,1-.49-.68l-.41,44.83a1,1,0,0,0,.6.85,3.26,3.26,0,0,0,2.92,0,1,1,0,0,0,.59-.84L110.45,1A.86.86,0,0,1,110,1.63Z"/><path class="cls-64" d="M110,.28a2.61,2.61,0,0,0-2.34,0c-.64.37-.63,1,0,1.35a2.63,2.63,0,0,0,2.32,0A.71.71,0,0,0,110,.28Z"/></g><g class="cls-1"><polygon class="cls-10" points="98.82 368.44 99.75 367.89 105.37 364.69 104.44 365.24 98.82 368.44"/><g class="cls-1"><g class="cls-1"><path class="cls-7" d="M104.44,365.23l.93-.54a.89.89,0,0,1,.89.09l-.94.54a.89.89,0,0,0-.88-.09Z"/></g></g><g class="cls-1"><g class="cls-1"><path class="cls-11" d="M111.78,375.92l.94-.54.13.26-.93.55c0-.09-.09-.18-.14-.27Z"/><path class="cls-7" d="M111.92,376.19l.93-.55c.33.76.29,1.5-.14,1.74l-.93.54c.42-.24.47-1,.14-1.73Z"/></g></g><polygon class="cls-12" points="106.2 366.25 107.13 365.71 112.72 375.38 111.78 375.92 106.2 366.25"/><g class="cls-1"><g class="cls-1"><path class="cls-7" d="M105.32,365.32l.94-.54a2.15,2.15,0,0,1,.53.45l-.93.54a2.23,2.23,0,0,0-.54-.45Z"/><path class="cls-11" d="M105.86,365.77l.93-.54a2.43,2.43,0,0,1,.34.48l-.93.54a2.93,2.93,0,0,0-.34-.48Z"/></g></g><path class="cls-13" d="M105.32,365.32a2.48,2.48,0,0,1,.88.93l5.58,9.67c.47.84.47,1.73,0,2l-5.62,3.22a.87.87,0,0,1-.88-.1,2.49,2.49,0,0,1-.88-.91l-5.58-9.69c-.49-.83-.49-1.72,0-2l5.62-3.21A.89.89,0,0,1,105.32,365.32Z"/></g><g class="cls-1"><polygon class="cls-6" points="143.26 363.67 142.32 363.13 147.96 366.34 148.9 366.89 143.26 363.67"/><g class="cls-1"><g class="cls-1"><path class="cls-7" d="M142.37,363.76l-.93-.55a.89.89,0,0,1,.88-.08l.94.54a.89.89,0,0,0-.89.09Z"/></g></g><g class="cls-1"><g class="cls-1"><path class="cls-7" d="M135.87,376.39l-.93-.54c-.48-.28-.47-1.16,0-2l.94.55c-.48.83-.49,1.72,0,2Z"/></g></g><polygon class="cls-8" points="135.89 374.4 134.95 373.85 140.55 364.15 141.49 364.69 135.89 374.4"/><g class="cls-1"><g class="cls-1"><path class="cls-7" d="M141.49,364.69l-.94-.54a2.61,2.61,0,0,1,.89-.94l.93.55a2.56,2.56,0,0,0-.88.93Z"/></g></g><path class="cls-70" d="M142.37,363.76a.89.89,0,0,1,.89-.09l5.64,3.22c.47.29.48,1.18,0,2l-5.6,9.72a2.69,2.69,0,0,1-.88.92.94.94,0,0,1-.89.1l-5.63-3.23c-.5-.27-.5-1.16,0-2l5.6-9.71A2.56,2.56,0,0,1,142.37,363.76Z"/></g><g class="cls-1"><path class="cls-71" d="M171.76,264c-3.14-1.83-7.48-1.57-12.27,1.2-9.53,5.5-17.22,18.83-17.19,29.77,0,5.43,1.93,9.26,5,11.06l6.73,3.85c-3.1-1.8-5-5.62-5-11.06,0-10.94,7.66-24.27,17.19-29.77,4.79-2.77,9.13-3,12.27-1.2Z"/><path class="cls-28" d="M166.22,269.09c9.52-5.5,17.27-1.08,17.3,9.86s-7.67,24.27-17.19,29.77-17.27,1.09-17.3-9.86S156.69,274.59,166.22,269.09Z"/></g><g class="cls-1"><path class="cls-18" d="M178.43,269.36c-3-1.73-7.08-1.48-11.62,1.14-9,5.21-16.32,17.84-16.29,28.2,0,5.16,1.83,8.78,4.77,10.49l2.61,1.49c-2.93-1.71-4.75-5.33-4.76-10.49,0-10.36,7.26-23,16.29-28.2,4.54-2.62,8.65-2.87,11.62-1.14Z"/><path class="cls-15" d="M169.43,272c9-5.21,16.36-1,16.39,9.34s-7.26,23-16.29,28.21-16.36,1-16.39-9.35S160.4,277.2,169.43,272Z"/></g><g class="cls-1"><path class="cls-72" d="M140.15,316c-3.14-1.82-7.48-1.56-12.27,1.21-9.53,5.5-17.23,18.82-17.19,29.76,0,5.44,1.93,9.27,5,11.07l6.73,3.85c-3.1-1.8-5-5.62-5-11.06,0-10.94,7.66-24.27,17.19-29.77,4.79-2.77,9.13-3,12.27-1.2Z"/><path class="cls-28" d="M134.61,321c9.52-5.5,17.26-1.08,17.3,9.85s-7.67,24.28-17.19,29.78-17.27,1.09-17.3-9.86S125.08,326.51,134.61,321Z"/></g><g class="cls-1"><path class="cls-18" d="M146.82,321.28c-3-1.73-7.08-1.49-11.62,1.14-9,5.21-16.32,17.84-16.29,28.2,0,5.16,1.83,8.78,4.76,10.49l2.62,1.49c-2.93-1.71-4.75-5.33-4.76-10.49,0-10.36,7.26-23,16.29-28.2,4.54-2.63,8.65-2.87,11.62-1.14Z"/><path class="cls-15" d="M137.82,323.91c9-5.21,16.36-1,16.39,9.33s-7.27,23-16.29,28.22-16.37,1-16.39-9.35S128.79,329.12,137.82,323.91Z"/></g><line class="cls-5" x1="100.11" y1="382.06" x2="11.76" y2="592.07"/><line class="cls-5" x1="147.17" y1="381.22" x2="235.2" y2="591.24"/></g><g class="cls-1"><polygon class="cls-2" points="18.92 465.26 18.91 467.08 9.49 472.56 9.5 470.74 18.92 465.26"/><polygon class="cls-3" points="9.5 470.74 9.49 472.56 0 467.08 0.01 465.26 9.5 470.74"/><polygon class="cls-4" points="18.92 465.26 9.5 470.74 0.01 465.26 9.43 459.79 18.92 465.26"/></g><ellipse cx="9.91" cy="465.27" rx="3.54" ry="1.82"/></g></g></svg>