<svg xmlns="http://www.w3.org/2000/svg" viewBox="0 0 1312.75 761.73"><defs><style>.cls-1{isolation:isolate;}.cls-2{fill:#767574;}.cls-3{fill:#aaa9a7;}.cls-4,.cls-5{fill:#5c95da;}.cls-4,.cls-7{mix-blend-mode:multiply;}.cls-6{fill:#bebdbb;}.cls-7{fill:#a5a5a7;opacity:0.51;}</style></defs><title>Recurso 31</title><g class="cls-1"><g id="Capa_2" data-name="Capa 2"><g id="edificios"><polygon class="cls-2" points="1022.6 52.34 1250.1 183.69 1277.9 167.53 1022.6 20.14 1022.51 52.39 1022.6 52.34"/><polygon class="cls-3" points="1022.6 20.14 34.77 594.15 62.56 610.2 1022.51 52.39 1022.6 20.14"/><polygon class="cls-4" points="1022.51 52.39 1022.29 127.09 1022.6 126.91 1185.73 221.09 1250.1 183.69 1022.6 52.34 1022.51 52.39"/><polygon class="cls-4" points="1022.29 127.09 1022.51 52.39 62.56 610.2 126.93 647.35 1022.29 127.09"/><polygon class="cls-5" points="1022.6 126.91 1022.29 127.09 126.93 647.35 181.7 678.98 290.07 741.54 1130.49 253.2 1185.73 221.09 1022.6 126.91"/><path class="cls-6" d="M1022.48,0,0,594.15l34.71,20,10.53,6.07,64.36,37.16L164.37,689l125.9,72.69L1148,263.32l55.24-32.11,64.37-37.41,10.22-5.94,34.91-20.28ZM1250.1,183.69l-64.37,37.4-55.24,32.11L290.07,741.54,181.7,679l-54.77-31.63L62.56,610.2,34.77,594.15l987.83-574,255.3,147.4Z"/><polygon class="cls-7" points="1022.6 126.91 1022.6 20.14 993.87 36.83 993.87 143.59 1105.18 267.91 1185.73 221.09 1022.6 126.91"/></g></g></g></svg>