<svg xmlns="http://www.w3.org/2000/svg" xmlns:xlink="http://www.w3.org/1999/xlink" viewBox="0 0 287.34 312.93"><defs><style>.cls-1{isolation:isolate;}.cls-2{fill:#a5a5a7;opacity:0.78;}.cls-2,.cls-4{mix-blend-mode:multiply;}.cls-3{fill:#b5b5b5;}.cls-4{opacity:0.58;fill:url(#linear-gradient);}.cls-5{fill:#a2a2a3;}.cls-6{fill:#85c8d7;}.cls-7{fill:#dadada;}</style><linearGradient id="linear-gradient" x1="143.65" y1="152.92" x2="282.84" y2="152.92" gradientUnits="userSpaceOnUse"><stop offset="0.02" stop-color="#dbf4f8"/><stop offset="0.04" stop-color="#c8dde0"/><stop offset="0.08" stop-color="#a9b8b9"/><stop offset="0.12" stop-color="#90999a"/><stop offset="0.17" stop-color="#7c8181"/><stop offset="0.22" stop-color="#6e7070"/><stop offset="0.27" stop-color="#666665"/><stop offset="0.33" stop-color="#636362"/><stop offset="0.43" stop-color="#676766"/><stop offset="0.54" stop-color="#747473"/><stop offset="0.65" stop-color="#888887"/><stop offset="0.76" stop-color="#a5a5a4"/><stop offset="0.87" stop-color="#cacaca"/><stop offset="0.98" stop-color="#f7f7f7"/><stop offset="1" stop-color="#fff"/></linearGradient></defs><title>Recurso 26</title><g class="cls-1"><g id="Capa_2" data-name="Capa 2"><g id="edificios"><path class="cls-2" d="M214.23,199.55H78.74a98.79,98.79,0,0,0-53.62,15.84l-15,9.68C-7.35,236.38-.7,262.26,18.53,265.36l-10.34,6,72.45,41.53H118.3l-22-47h117.9Z"/><path class="cls-3" d="M172.7,257.2l32.06,6.15,35.71-1.43L271,248.59l11.92-16.93c0-.36,0-.72,0-1h0l-.12-188.13c0,.14,0,.29,0,.44,0,.34,0,.67,0,1s0,.63-.08.94-.07.67-.13,1-.08.63-.14.94-.13.67-.22,1l-.21.94c-.1.33-.21.67-.32,1s-.19.62-.3.93-.25.67-.38,1l-.37.91c-.16.34-.33.66-.49,1s-.3.6-.45.9-.37.66-.57,1-.34.6-.53.89-.43.66-.66,1l-.58.87c-.25.32-.51.64-.76,1s-.43.56-.67.85l-.85,1-.73.82c-.3.32-.62.64-.95.95s-.51.54-.79.79-.7.64-1.06.95-.55.52-.85.76-.78.64-1.18,1-.58.48-.89.72-.87.64-1.32,1-.6.44-.91.66c-.52.35-1.06.68-1.6,1l-.79.52c-.82.52-1.67,1-2.55,1.5-27.72,15.45-71.73,15-98.31-1-.82-.49-1.61-1-2.38-1.5-.26-.17-.5-.35-.76-.53-.49-.33-1-.68-1.46-1-.29-.2-.56-.42-.83-.64-.42-.32-.84-.63-1.24-1s-.54-.47-.82-.69-.73-.64-1.09-1-.52-.5-.77-.75-.67-.62-1-.94l-.72-.78c-.29-.32-.59-.63-.87-1s-.46-.54-.67-.8-.53-.64-.77-1-.41-.55-.61-.83l-.68-1c-.19-.28-.36-.57-.54-.85s-.41-.64-.59-1-.32-.58-.47-.87-.34-.65-.5-1-.28-.59-.41-.88-.29-.65-.41-1-.22-.61-.33-.91-.23-.64-.34-1-.17-.6-.25-.9-.18-.66-.25-1a8.27,8.27,0,0,1-.18-.92c-.08-.32-.14-.66-.19-1s-.07-.62-.1-.92-.06-.66-.09-1,0-.61,0-.91a5.13,5.13,0,0,1,0-.53L143.84,231c0,.58,0,1.25.06,1.91,6,6.85,12,13.64,12,13.64Z"/><path class="cls-4" d="M172.63,257.2l32.07,6.15,35.71-1.43,30.48-13.33,11.92-16.93c0-.36,0-.72,0-1h0l-.12-188.13c0,.14,0,.29,0,.44,0,.34,0,.67,0,1s-.05.63-.08.94-.08.67-.13,1-.08.63-.14.94-.13.67-.22,1-.14.62-.23.94-.19.67-.3,1-.19.62-.3.93-.25.67-.38,1-.25.6-.39.91-.31.66-.48,1-.29.6-.44.9-.37.66-.57,1-.34.6-.52.89-.44.66-.67,1-.38.58-.6.87l-.74,1c-.23.28-.45.56-.67.85l-.85,1-.73.82c-.31.32-.62.64-1,.95s-.51.54-.8.79-.7.64-1.05.95-.56.52-.85.76-.78.64-1.18,1l-.89.72-1.33,1c-.3.21-.59.44-.9.66-.52.35-1.06.68-1.6,1l-.79.52c-.83.52-1.69,1-2.56,1.5-27.71,15.45-71.72,15-98.31-1q-1.23-.73-2.37-1.5c-.26-.17-.5-.35-.76-.53-.49-.33-1-.68-1.46-1-.29-.2-.56-.42-.84-.64s-.83-.63-1.23-1-.54-.47-.82-.69l-1.09-1-.78-.75c-.32-.31-.66-.62-1-.94s-.48-.52-.73-.78l-.87-1c-.23-.26-.45-.54-.66-.8l-.78-1c-.21-.28-.4-.55-.6-.83l-.68-1c-.19-.28-.37-.57-.54-.85s-.41-.64-.59-1l-.48-.87-.5-1-.4-.88c-.14-.33-.29-.65-.42-1s-.22-.61-.32-.91-.23-.64-.34-1-.18-.6-.25-.9-.18-.66-.25-1-.14-.62-.2-.92-.12-.66-.17-1-.07-.62-.1-.92-.08-.66-.1-1,0-.61,0-.91,0-.37,0-.53L143.78,231c0,.58,0,1.25.06,1.91,6,6.85,12,13.64,12,13.64Z"/><path class="cls-5" d="M165.11,19.23a88,88,0,0,1,24.82-8.94c5.61-1.13,9.06-1.58,11.7-1.87a102.24,102.24,0,0,1,11.53-.67,115.53,115.53,0,0,1,23.2,2.42,85.48,85.48,0,0,1,27.06,10c11.76,7.08,18.12,16,19.16,25.14a3.78,3.78,0,0,0,.06-.47c0-.31.06-.62.08-.94s0-.68,0-1c.17-10.15-6.23-20.34-19.33-28.22A85.73,85.73,0,0,0,236.36,4.65a116.11,116.11,0,0,0-23.2-2.41,99.71,99.71,0,0,0-11.53.67c-2.64.29-6.09.74-11.7,1.87a88,88,0,0,0-24.82,8.94c-14.49,8.08-21.64,18.91-21.36,29.71,0,.3,0,.6,0,.91s.05.66.09,1l0,.33C145,36,152.09,26.5,165.11,19.23Z"/><path class="cls-6" d="M282.51,45.91c0,.31-.08.63-.14.94s-.13.67-.22,1l-.21.94c-.1.33-.21.67-.32,1s-.19.62-.3.93-.25.67-.38,1l-.37.91c-.16.34-.33.66-.49,1s-.3.6-.45.9-.37.66-.57,1-.34.6-.53.89-.43.66-.66,1l-.58.87c-.25.32-.51.64-.76,1s-.43.56-.67.85l-.85,1-.73.82c-.3.32-.62.64-.95.95s-.51.54-.79.79-.7.64-1.06.95-.55.52-.85.76-.78.64-1.18,1-.58.48-.89.72-.87.64-1.32,1-.6.44-.91.66c-.52.35-1.06.68-1.6,1l-.79.52c-.82.52-1.67,1-2.55,1.5-27.72,15.45-71.73,15-98.31-1-.82-.49-1.61-1-2.38-1.5-.26-.17-.5-.35-.76-.53-.49-.33-1-.68-1.46-1-.29-.2-.56-.42-.83-.64-.42-.32-.84-.63-1.24-1s-.54-.47-.82-.69-.73-.64-1.09-1-.52-.5-.77-.75-.67-.62-1-.94l-.72-.78c-.29-.32-.59-.63-.87-1s-.46-.54-.67-.8-.53-.64-.77-1-.41-.55-.61-.83l-.68-1c-.19-.28-.36-.57-.54-.85s-.41-.64-.59-1-.32-.58-.47-.87-.34-.65-.5-1-.28-.59-.41-.88-.29-.65-.41-1-.22-.61-.33-.91-.23-.64-.34-1-.17-.6-.25-.9-.18-.66-.25-1a8.27,8.27,0,0,1-.18-.92c-.08-.32-.14-.66-.19-1s0-.39-.07-.59a22.45,22.45,0,0,0-.15,3.28c0,.31,0,.61,0,.91s.05.66.09,1,.07.6.1.9.11.67.19,1a7.17,7.17,0,0,0,.18.9c.07.33.16.66.25,1s.15.58.25.88.22.67.34,1,.21.59.33.89.27.66.41,1,.27.59.41.89.32.65.5,1,.31.58.47.87.39.64.59,1,.35.57.54.85.45.64.68,1,.39.56.61.83.5.64.77,1,.43.54.67.81.58.63.87,1l.72.78c.31.31.64.62,1,.93s.51.51.77.75l1.09,1,.82.71,1.24,1,.83.65,1.46,1c.26.17.5.35.76.51.77.52,1.56,1,2.38,1.52,26.58,16,70.59,16.44,98.31,1,.88-.48,1.73-1,2.55-1.49.27-.16.53-.34.79-.52.54-.34,1.08-.69,1.6-1,.31-.21.6-.43.91-.65s.89-.63,1.32-1l.89-.71c.4-.32.81-.63,1.18-1s.56-.5.85-.75l1.06-1,.79-.79c.33-.32.65-.64.95-.95l.73-.83c.29-.32.58-.64.85-1s.45-.57.67-.85.51-.64.76-1,.39-.58.58-.87.46-.65.66-1,.35-.59.53-.89.39-.66.57-1,.31-.6.45-.88.33-.68.49-1,.25-.61.37-.92.26-.67.38-1,.21-.61.3-.91.22-.67.32-1,.14-.61.21-.93.16-.67.22-1,.11-.62.14-.93.1-.68.13-1,.06-.62.08-.93,0-.68,0-1a21.13,21.13,0,0,0-.17-3.08A5.17,5.17,0,0,1,282.51,45.91Z"/><path class="cls-3" d="M144.16,47.22a8.27,8.27,0,0,0,.18.92c.07.32.16.66.25,1s.15.6.25.9.22.65.34,1,.21.61.33.91.27.64.41,1,.27.59.41.88.32.65.5,1,.31.58.47.87.39.64.59,1,.35.57.54.85l.68,1c.2.28.39.55.61.83s.5.62.77,1,.43.54.67.8.58.63.87,1l.72.78c.31.32.64.63,1,.94s.51.51.77.75.73.62,1.09,1,.54.46.82.69.82.64,1.24,1c.27.22.54.44.83.64.47.35,1,.7,1.46,1,.26.18.5.36.76.53.77.51,1.56,1,2.38,1.5,26.58,16,70.59,16.45,98.31,1,.88-.49,1.73-1,2.55-1.5l.79-.52c.54-.35,1.08-.68,1.6-1,.31-.22.6-.45.91-.66s.89-.64,1.32-1,.59-.48.89-.72.81-.63,1.18-1,.56-.51.85-.76.72-.62,1.06-.95.53-.53.79-.79.65-.63.95-.95l.73-.82.85-1c.24-.29.45-.57.67-.85s.51-.65.76-1l.58-.87c.23-.32.46-.65.66-1s.35-.59.53-.89.39-.65.57-1,.31-.6.45-.9.33-.66.49-1l.37-.91c.13-.34.26-.67.38-1s.21-.61.3-.93.22-.67.32-1l.21-.94c.09-.34.16-.67.22-1s.11-.63.14-.94a5.17,5.17,0,0,0,.07-.55c-1-9.11-7.4-18.06-19.16-25.14a85.48,85.48,0,0,0-27.06-10,115.53,115.53,0,0,0-23.2-2.42,102.24,102.24,0,0,0-11.53.67c-2.64.29-6.09.74-11.7,1.87a88,88,0,0,0-24.82,8.94C152.09,26.5,145,36,143.9,45.65c0,.2,0,.39.07.59S144.08,46.9,144.16,47.22Z"/><path class="cls-5" d="M287,45.11c-.06.65-.06,1.28-.17,1.92s-.35,1.45-.53,2.17-.26,1.27-.47,1.88-.6,1.45-.9,2.17-.47,1.23-.78,1.83-.84,1.43-1.28,2.15-.65,1.18-1.06,1.75c-.51.73-1.12,1.43-1.71,2.14-.43.54-.83,1.11-1.31,1.65-.65.72-1.41,1.42-2.15,2.11-.51.51-1,1-1.54,1.52-.86.76-1.85,1.48-2.79,2.21-.53.41-1,.84-1.57,1.24-1.56,1.11-3.24,2.2-5,3.23-28.75,16.71-75.51,16.7-104.44,0-1.81-1.06-3.52-2.14-5.11-3.27-.51-.37-.95-.76-1.45-1.14-1-.77-2.05-1.54-3-2.33-.55-.48-1-1-1.5-1.47-.77-.73-1.56-1.45-2.25-2.2-.49-.54-.87-1.09-1.33-1.64-.59-.72-1.21-1.43-1.73-2.16-.41-.58-.71-1.18-1.07-1.77s-.94-1.43-1.32-2.16-.52-1.24-.78-1.86-.67-1.44-.93-2.17-.31-1.26-.48-1.89-.42-1.46-.54-2.2-.11-1.27-.17-1.92-.18-1.45-.18-2.18c0,0,0-.08,0-.12v2.87c0,11,7.25,22.06,21.81,30.47,28.94,16.7,75.7,16.71,104.44,0C280,67.65,287.1,56.79,287.13,45.9V43C287.14,43.74,287,44.42,287,45.11Z"/><path class="cls-7" d="M265.34,12.5c-28.94-16.67-75.72-16.67-104.46,0-14.32,8.31-21.46,19.19-21.45,30.07,0,.73.11,1.46.18,2.19s.06,1.28.17,1.92.36,1.46.54,2.19.28,1.26.48,1.88.6,1.45.93,2.17.47,1.23.78,1.85.86,1.44,1.32,2.16.66,1.18,1.07,1.75c.52.74,1.14,1.45,1.73,2.17.46.55.84,1.1,1.33,1.64.69.75,1.48,1.47,2.25,2.19.51.48.95,1,1.5,1.47.92.79,1.95,1.56,3,2.33.5.37.94.77,1.45,1.13,1.59,1.13,3.3,2.21,5.11,3.25,28.93,16.67,75.69,16.68,104.44,0a59.57,59.57,0,0,0,5-3.23c.57-.39,1-.81,1.57-1.22.94-.74,1.93-1.46,2.79-2.21.56-.5,1-1,1.54-1.51.74-.71,1.5-1.4,2.15-2.12.48-.53.88-1.1,1.31-1.64.59-.71,1.2-1.41,1.71-2.14.41-.57.71-1.16,1.06-1.75s.92-1.42,1.28-2.14.52-1.22.78-1.83.66-1.44.9-2.16.32-1.25.47-1.87.41-1.44.53-2.18.11-1.27.17-1.91C288,33.3,280.81,21.42,265.34,12.5Zm17.17,32.33c-.05.59-.05,1.19-.14,1.79s-.34,1.36-.51,2-.25,1.18-.44,1.76-.55,1.36-.84,2-.45,1.14-.72,1.7-.81,1.35-1.22,2-.61,1.11-1,1.65-1.06,1.33-1.6,2c-.41.51-.78,1-1.23,1.53-.62.68-1.34,1.34-2,2-.49.47-.91,1-1.44,1.4-.81.71-1.73,1.4-2.63,2.08-.49.39-.94.78-1.47,1.16-1.46,1-3,2-4.72,3-27,15.64-70.89,15.63-98.06,0-1.7-1-3.29-2-4.79-3.05-.48-.34-.89-.71-1.36-1.07-1-.72-1.93-1.43-2.79-2.19-.51-.44-.93-.91-1.41-1.37-.71-.68-1.47-1.35-2.11-2-.46-.51-.83-1-1.25-1.54-.55-.68-1.14-1.34-1.63-2s-.66-1.1-1-1.65-.88-1.34-1.23-2-.49-1.15-.74-1.73-.62-1.34-.85-2-.3-1.18-.46-1.76a19.45,19.45,0,0,1-.5-2.07c-.11-.6-.11-1.2-.17-1.79s-.16-1.37-.17-2.06c0-10.22,6.68-20.43,20.14-28.23,27-15.65,70.9-15.65,98.07,0C276.74,22.72,283.46,33.87,282.51,44.83Z"/><path class="cls-5" d="M287.17,222.49c-.06.64-.06,1.29-.16,1.92s-.35,1.46-.53,2.19-.27,1.26-.47,1.87-.6,1.46-.92,2.18-.46,1.22-.76,1.84-.86,1.43-1.29,2.15-.66,1.17-1.07,1.75c-.5.73-1.13,1.44-1.7,2.16-.45.55-.83,1.11-1.31,1.64-.67.73-1.45,1.43-2.18,2.14-.52.5-1,1-1.54,1.51-.86.76-1.85,1.49-2.81,2.22-.53.41-1,.83-1.56,1.23-1.57,1.13-3.26,2.21-5.05,3.26-28.82,16.75-75.71,16.73-104.72,0-1.83-1.05-3.52-2.15-5.12-3.28-.52-.36-1-.75-1.46-1.13-1-.78-2.06-1.55-3-2.35-.56-.47-1-1-1.52-1.47-.76-.72-1.56-1.44-2.25-2.2-.49-.54-.89-1.1-1.33-1.64-.59-.72-1.23-1.44-1.74-2.18-.41-.57-.71-1.17-1.08-1.76s-.93-1.45-1.31-2.18-.53-1.24-.8-1.85-.67-1.45-.91-2.19-.32-1.26-.48-1.88-.43-1.47-.55-2.21-.12-1.28-.17-1.92-.18-1.47-.18-2.2c0,0,0-.08,0-.11v2.87c0,11,7.25,22.12,21.86,30.56,29,16.74,75.91,16.76,104.73,0,14.32-8.33,21.5-19.22,21.53-30.14v-2.87C287.34,221.11,287.23,221.8,287.17,222.49Z"/><path class="cls-7" d="M282.7,205.52v12.86a22.38,22.38,0,0,1,0,4,17.74,17.74,0,0,1-.14,1.79c-.12.7-.34,1.37-.5,2.06s-.26,1.18-.45,1.76-.56,1.36-.85,2.05-.44,1.14-.72,1.7-.81,1.35-1.22,2-.61,1.11-1,1.65-1.06,1.34-1.61,2c-.41.51-.77,1-1.23,1.53-.62.69-1.34,1.34-2,2-.49.47-.93,1-1.45,1.42-.81.71-1.73,1.39-2.64,2.08-.5.38-.94.79-1.46,1.16-1.48,1.05-3.05,2.07-4.75,3-27.06,15.69-71.08,15.68-98.32,0q-2.57-1.49-4.8-3.06c-.5-.35-.91-.73-1.38-1.07-.94-.73-1.93-1.45-2.79-2.2-.51-.45-.94-.92-1.42-1.37-.71-.69-1.47-1.36-2.1-2.06-.47-.51-.83-1-1.27-1.56-.55-.67-1.14-1.33-1.62-2s-.67-1.1-1-1.66-.88-1.35-1.23-2-.5-1.15-.74-1.74-.64-1.35-.87-2-.3-1.18-.45-1.77-.4-1.37-.51-2.07-.1-1.2-.17-1.8-.16-1.37-.16-2a26.56,26.56,0,0,1,.16-2.67V205a27.52,27.52,0,0,0-4.74,15.1c0,.74.11,1.47.18,2.2s.06,1.28.17,1.93.36,1.46.54,2.18.27,1.28.49,1.9.6,1.44.91,2.18.49,1.23.8,1.85.86,1.44,1.31,2.16.67,1.19,1.08,1.77,1.15,1.44,1.74,2.16c.44.55.84,1.1,1.33,1.66.69.74,1.49,1.46,2.25,2.18.52.5,1,1,1.52,1.47.91.8,1.95,1.56,3,2.34.5.37.94.77,1.46,1.14,1.6,1.12,3.29,2.21,5.12,3.26,29,16.71,75.9,16.72,104.72,0,1.79-1,3.48-2.12,5.05-3.24.56-.4,1-.82,1.56-1.23,1-.73,1.95-1.46,2.81-2.22.57-.49,1-1,1.54-1.5.73-.71,1.51-1.41,2.18-2.14.48-.53.86-1.08,1.31-1.64.57-.71,1.2-1.41,1.7-2.13s.71-1.18,1.07-1.76.91-1.43,1.29-2.16.51-1.22.76-1.83.67-1.44.92-2.16.3-1.25.47-1.87.41-1.46.53-2.19.1-1.28.16-1.91A27,27,0,0,0,282.7,205.52Z"/></g></g></g></svg>