<svg xmlns="http://www.w3.org/2000/svg" xmlns:xlink="http://www.w3.org/1999/xlink" viewBox="0 0 592.55 449.61"><defs><style>.cls-1{isolation:isolate;}.cls-2{opacity:0.46;mix-blend-mode:multiply;fill:url(#linear-gradient);}.cls-3{fill:#333;}.cls-4{fill:#3c3c3b;}.cls-5{fill:#636362;}.cls-6{opacity:0.75;mix-blend-mode:soft-light;fill:url(#linear-gradient-2);}.cls-7{fill:#4a4a4a;}.cls-8{fill:#828281;}.cls-9{opacity:0.56;mix-blend-mode:overlay;fill:url(#linear-gradient-3);}.cls-10{fill:#1e1e1e;}.cls-11{fill:#282828;}.cls-12{fill:#393939;}.cls-13{fill:#666;}.cls-14{fill:#1a1a1a;}</style><linearGradient id="linear-gradient" y1="413.92" x2="505.6" y2="413.92" gradientUnits="userSpaceOnUse"><stop offset="0" stop-color="#fff"/><stop offset="0.12" stop-color="#d8d8d8"/><stop offset="0.37" stop-color="#8c8c8c"/><stop offset="0.59" stop-color="#505050"/><stop offset="0.77" stop-color="#252525"/><stop offset="0.91" stop-color="#0a0a0a"/><stop offset="1"/></linearGradient><linearGradient id="linear-gradient-2" x1="473.39" y1="417.61" x2="537.81" y2="417.61" gradientUnits="userSpaceOnUse"><stop offset="0" stop-color="#89b3c6"/><stop offset="1" stop-color="#fff"/></linearGradient><linearGradient id="linear-gradient-3" x1="485.02" y1="253.02" x2="526.15" y2="253.02" gradientUnits="userSpaceOnUse"><stop offset="0.02" stop-color="#dbf4f8"/><stop offset="0.04" stop-color="#c8dde0"/><stop offset="0.08" stop-color="#a9b8b9"/><stop offset="0.12" stop-color="#90999a"/><stop offset="0.17" stop-color="#7c8181"/><stop offset="0.22" stop-color="#6e7070"/><stop offset="0.27" stop-color="#666665"/><stop offset="0.33" stop-color="#636362"/><stop offset="0.43" stop-color="#676766"/><stop offset="0.54" stop-color="#747473"/><stop offset="0.65" stop-color="#888887"/><stop offset="0.76" stop-color="#a5a5a4"/><stop offset="0.87" stop-color="#cacaca"/><stop offset="0.98" stop-color="#f7f7f7"/><stop offset="1" stop-color="#fff"/></linearGradient></defs><title>Recurso 25</title><g class="cls-1"><g id="Capa_2" data-name="Capa 2"><g id="edificios"><polygon class="cls-2" points="505.6 406.17 119.04 406.17 164.81 378.22 116.95 378.22 0 449.62 47.86 449.62 77.88 431.29 505.6 431.29 505.6 406.17"/><polygon class="cls-3" points="455.88 29.8 454.79 30.42 433.26 42.86 432.17 43.48 418.76 51.47 418.75 50.18 466.64 22.28 466.64 23.57 455.88 29.8"/><polygon class="cls-3" points="424.89 68.22 424.6 68.38 423.8 68.85 423.73 47.42 424.82 46.79 424.89 68.22"/><polygon class="cls-3" points="430.79 64.92 430.51 65.07 429.7 65.54 429.64 44.11 430.73 43.48 430.79 64.92"/><polygon class="cls-3" points="436.55 61.51 436.26 61.66 435.45 62.13 435.39 40.7 436.48 40.07 436.55 61.51"/><polygon class="cls-3" points="442.45 58.19 442.17 58.36 441.36 58.83 441.29 37.39 442.38 36.77 442.45 58.19"/><polygon class="cls-3" points="447.94 54.93 447.66 55.1 446.86 55.57 446.79 34.13 447.88 33.51 447.94 54.93"/><polygon class="cls-3" points="453.85 51.63 453.56 51.8 452.76 52.26 452.69 30.83 453.78 30.2 453.85 51.63"/><polygon class="cls-3" points="459.45 48.27 459.16 48.43 458.36 48.9 458.29 27.47 459.38 26.84 459.45 48.27"/><polygon class="cls-3" points="465.35 44.96 465.07 45.13 464.26 45.59 464.19 24.16 465.28 23.54 465.35 44.96"/><polygon class="cls-3" points="471.1 41.55 470.81 41.72 470.01 42.19 469.94 20.75 471.03 20.13 471.1 41.55"/><polygon class="cls-3" points="477 38.24 476.72 38.41 475.92 38.87 475.85 17.45 476.94 16.81 477 38.24"/><polygon class="cls-3" points="482.5 34.99 482.21 35.16 481.41 35.61 481.34 14.19 482.43 13.55 482.5 34.99"/><polygon class="cls-3" points="488.41 31.68 488.12 31.84 487.31 32.31 487.25 10.87 488.33 10.25 488.41 31.68"/><polygon class="cls-3" points="494.15 28.32 493.87 28.49 493.07 28.94 493 7.52 494.09 6.88 494.15 28.32"/><polygon class="cls-3" points="500.06 25.02 499.77 25.17 498.97 25.64 498.9 4.22 499.99 3.58 500.06 25.02"/><polygon class="cls-3" points="505.32 21.87 505.03 22.04 504.23 22.5 504.16 1.07 505.25 0.44 505.32 21.87"/><polygon class="cls-3" points="501.12 3.65 500.04 4.28 478.5 16.71 477.42 17.34 466.65 23.56 466.64 22.25 505.26 0 505.26 1.3 501.12 3.65"/><path class="cls-4" d="M537.75,418.61c0,.28,0,.56-.08.83a9.41,9.41,0,0,1-.23.95c-.07.28-.11.56-.2.82s-.26.64-.4,1-.2.54-.33.79a9.18,9.18,0,0,1-.57.95c-.15.25-.28.51-.46.76s-.49.62-.74.94-.36.48-.57.72-.62.61-.95.92-.42.45-.66.66-.81.65-1.22,1c-.24.18-.44.36-.69.54a25.77,25.77,0,0,1-2.19,1.41c-12.55,7.29-33,7.29-45.57,0-.79-.46-1.54-.94-2.23-1.42l-.64-.5c-.44-.34-.89-.68-1.29-1-.24-.21-.44-.42-.66-.64s-.68-.63-1-1-.39-.47-.58-.71-.54-.63-.76-.95-.31-.5-.47-.77-.41-.62-.58-.95-.22-.53-.34-.8-.29-.63-.4-.95-.14-.54-.21-.82-.18-.64-.24-1,0-.56-.07-.84-.08-.64-.08-.95v1.2c0,4.81,3.17,9.62,9.53,13.29,12.62,7.29,33,7.29,45.56,0,6.23-3.62,9.35-8.35,9.37-13.1v-1.25C537.82,418,537.77,418.31,537.75,418.61Z"/><path class="cls-5" d="M473.45,418.52c0,.28,0,.56.07.84s.16.64.24,1,.12.55.21.82.26.64.4.95.21.54.34.8.38.64.58.95.29.52.47.77.5.62.76.95.36.48.58.71.64.65,1,1,.42.43.66.64c.4.34.85.68,1.29,1l.64.5c.69.48,1.44,1,2.23,1.42,12.62,7.29,33,7.29,45.57,0a25.77,25.77,0,0,0,2.19-1.41c.25-.18.45-.36.69-.54.41-.31.84-.63,1.22-1s.44-.44.66-.66.66-.61.95-.92.37-.48.57-.72.53-.62.74-.94.31-.51.46-.76a9.18,9.18,0,0,0,.57-.95c.13-.25.22-.53.33-.79s.29-.63.4-1,.13-.54.2-.82a9.41,9.41,0,0,0,.23-.95c.05-.27.05-.55.08-.83.44-5.1-2.69-10.29-9.44-14.2-12.63-7.29-33-7.29-45.58,0-6.25,3.64-9.37,8.39-9.36,13.16C473.37,417.88,473.42,418.21,473.45,418.52Z"/><path class="cls-6" d="M473.47,418.52a7.93,7.93,0,0,0,.07.84c.06.32.16.64.24,1s.12.55.21.82.26.64.4.95.21.54.34.8.38.64.58.95a7.54,7.54,0,0,0,.47.77c.22.32.5.62.75.95s.37.48.58.71.65.65,1,1,.42.43.65.64c.41.34.86.68,1.3,1l.64.5c.69.48,1.44,1,2.22,1.42,12.63,7.29,33,7.29,45.58,0a25.77,25.77,0,0,0,2.19-1.41c.25-.18.45-.36.68-.54.42-.31.85-.63,1.22-1s.45-.44.68-.66.65-.61.93-.92.38-.48.58-.72.52-.62.74-.94.31-.51.46-.76.4-.62.57-.95.22-.53.33-.79a8.62,8.62,0,0,0,.39-1c.09-.26.14-.54.21-.82a9.41,9.41,0,0,0,.23-.95,7.53,7.53,0,0,0,.07-.83c.44-5.1-2.68-10.29-9.43-14.2-12.63-7.29-33-7.29-45.58,0-6.25,3.64-9.36,8.39-9.36,13.16C473.39,417.88,473.44,418.21,473.47,418.52Z"/><path class="cls-5" d="M525.79,79.54a8,8,0,0,1-.67,1.3,7.53,7.53,0,0,1-.43.85A12.37,12.37,0,0,1,523.48,83c-.22.21-.37.45-.61.67a16.3,16.3,0,0,1-2.56,1.82c-7.83,4.55-20.51,4.55-28.4,0-.49-.29-1-.59-1.38-.89-.14-.1-.24-.2-.37-.29-.29-.22-.58-.43-.83-.66s-.29-.27-.43-.41-.41-.39-.59-.58-.24-.3-.36-.45-.34-.39-.48-.58-.19-.33-.29-.5-.25-.38-.35-.57-.15-.35-.23-.53-.18-.37-.24-.56-.09-.37-.14-.53-.1-.4-.14-.59,0-.35-.05-.53,0-.4,0-.59v0l-1,339.84c0,3,2,6,5.93,8.29,7.88,4.54,20.57,4.54,28.4,0,3.88-2.26,5.83-5.22,5.83-8.17l1-339.86a7.5,7.5,0,0,1-.2,1.23A7.69,7.69,0,0,1,525.79,79.54Z"/><path class="cls-7" d="M525.14,397.71c.08,3-1.78,6-5.6,8.32-7.69,4.79-20.37,5.16-28.38.85-3.88-2.1-5.92-4.91-6.14-7.78l0,9c.08,3,2.43,6.06,6.46,8.23,8,4.32,20.69,3.95,28.39-.83,3.81-2.37,5.67-5.38,5.59-8.34Z"/><path class="cls-7" d="M519.83,351c-7.7,4.77-20.38,5.15-28.39.83-4-2.14-6.31-5.17-6.45-8.13v2.89c.08,3,2.43,6.05,6.46,8.23,8,4.31,20.69,3.94,28.39-.84,3.81-2.37,5.67-5.37,5.59-8.34l-.07-2.45C525.2,346,523.41,348.73,519.83,351Z"/><path class="cls-7" d="M519.83,281.7c-7.7,4.78-20.38,5.15-28.39.84-4-2.15-6.31-5.18-6.45-8.13v2.87c.08,3,2.43,6.08,6.46,8.24,8,4.31,20.69,3.94,28.39-.84,3.81-2.37,5.67-5.38,5.59-8.34l-.07-2.45C525.2,276.68,523.41,279.46,519.83,281.7Z"/><path class="cls-7" d="M519.83,212.5c-7.7,4.78-20.38,5.16-28.39.84-4-2.15-6.31-5.16-6.45-8.13v2.88c.08,3,2.43,6.07,6.46,8.23,8,4.32,20.69,3.94,28.39-.83,3.81-2.37,5.67-5.38,5.59-8.33l-.07-2.47C525.2,207.48,523.41,210.28,519.83,212.5Z"/><path class="cls-7" d="M519.83,143.23c-7.7,4.79-20.38,5.16-28.39.85-4-2.16-6.31-5.17-6.45-8.14v2.89c.08,3,2.43,6.06,6.46,8.23,8,4.31,20.69,3.94,28.39-.85,3.81-2.36,5.67-5.37,5.59-8.32l-.07-2.47C525.2,138.21,523.41,141,519.83,143.23Z"/><path class="cls-8" d="M486,77.86c0,.18,0,.35.05.53s.1.38.14.59.08.34.14.53.16.37.24.56.13.35.23.53.23.38.35.57.18.33.29.5.32.38.48.58.23.31.36.45.39.39.59.58.27.27.43.41.54.44.83.66c.13.09.23.19.37.29.43.3.89.6,1.38.89,7.89,4.55,20.57,4.55,28.4,0a16.3,16.3,0,0,0,2.56-1.82c.24-.22.39-.46.61-.67a12.37,12.37,0,0,0,1.21-1.35,7.53,7.53,0,0,0,.43-.85,8,8,0,0,0,.67-1.3,7.69,7.69,0,0,0,.16-1c.62-3.39-1.22-6.91-5.73-9.5-7.86-4.55-20.59-4.55-28.4,0-3.9,2.27-5.84,5.22-5.83,8.19C486,77.46,486,77.67,486,77.86Z"/><path class="cls-9" d="M525.79,79.54a8,8,0,0,1-.67,1.3,7.53,7.53,0,0,1-.43.85A12.37,12.37,0,0,1,523.48,83c-.22.21-.37.45-.61.67a16.3,16.3,0,0,1-2.56,1.82c-7.83,4.55-20.51,4.55-28.4,0-.49-.29-1-.59-1.38-.89-.14-.1-.24-.2-.37-.29-.29-.22-.58-.43-.83-.66s-.29-.27-.43-.41-.41-.39-.59-.58-.24-.3-.36-.45-.34-.39-.48-.58-.19-.33-.29-.5-.25-.38-.35-.57-.15-.35-.23-.53-.18-.37-.24-.56-.09-.37-.14-.53-.1-.4-.14-.59,0-.35-.05-.53,0-.4,0-.59v0l-1,339.84c0,3,2,6,5.93,8.29,7.88,4.54,20.57,4.54,28.4,0,3.88-2.26,5.83-5.22,5.83-8.17l1-339.86a7.5,7.5,0,0,1-.2,1.23A7.69,7.69,0,0,1,525.79,79.54Z"/><path class="cls-10" d="M497.28,89.08l-2.42-1.4v6.83l-9.92-5.72,0-6.91-2.41-1.4-.37,127.18,0,0,0,11h0L481.5,421l2.42,1.39,0-7.61,1.13.65,8.79,5.07,0,7.62,2.42,1.4.55-197.6,0,0,0-11.8.05,0Zm-12.35,1.59,1.12.66,8.79,5.07,0,7.24V105l-9.91-5.73Zm0,10.44,1.12.65,8.79,5.07,0,7.25v1.3l-9.92-5.72Zm0,10.44,1.12.65,8.79,5.07,0,7.24v1.31l-9.91-5.71Zm0,10.43,1.13.65,8.78,5.07,0,7.26v1.29l-9.92-5.71Zm0,10.43,1.12.65,8.79,5.07,0,7.24v1.31L484.78,141Zm0,10.44,1.13.65,8.78,5.07,0,7.24v1.31l-9.92-5.72Zm0,10.43,1.13.65,8.78,5.07,0,7.26v1.29l-9.92-5.72Zm0,10.44,1.13.65,8.78,5.07,0,7.25V178l-9.92-5.72Zm0,10.43,1.13.65,8.78,5.08,0,7.25v1.31l-9.92-5.73Zm0,10.44,1.13.65,8.78,5.07,0,7.25v1.31l-9.92-5.72Zm0,10.43,1.13.65,8.78,5.07,0,7.25v1.3l-9.92-5.73Zm9.23,222.31v1.31L484,412.92l0-8.56,1.12.65,8.79,5.09Zm0-10.42v1.31L484,402.5l0-8.55,1.13.65,8.78,5.07Zm0-10.44v1.31L484,392.06l0-8.55,1.13.64,8.78,5.07ZM494,386v1.3L484,381.62l0-8.56,1.13.65,8.78,5.07Zm0-10.44v1.31l-9.91-5.72,0-8.56,1.13.65,8.78,5.07Zm0-10.44v1.31l-9.92-5.72,0-8.56,1.13.65,8.78,5.07Zm0-10.43V356l-9.91-5.73,0-8.55,1.12.64,8.79,5.08Zm0-10.43v1.31l-9.92-5.72,0-8.55,1.13.64,8.78,5.07Zm0-10.43v1.3l-9.92-5.72,0-8.56,1.13.65,8.78,5.07Zm0-10.44v1.31L484.21,319l0-8.56,1.13.65,8.78,5.07Zm0-10.44v1.31l-9.92-5.72,0-8.56,1.12.65,8.79,5.07Zm0-10.43v1.3l-9.92-5.72,0-8.56,1.12.65,8.79,5.07Zm0-10.44v1.31l-9.92-5.72,0-8.55,1.12.65,8.78,5.07Zm0-10.42V283l-9.91-5.72,0-8.56,1.12.65,8.78,5.07Zm0-10.44v1.31l-9.91-5.73,0-8.55,1.13.65,8.78,5.07Zm0-10.44v1.31l-9.91-5.72,0-8.56,1.12.65,8.78,5.07Zm0-10.43v1.29L484.42,246l0-8.56,1.13.65,8.78,5.07Zm0-10.44v1.31l-9.91-5.72,0-8.56,1.13.65,8.78,5.07Zm.05-14.19v5.07l-9.91-5.72v-.28h0l0-7.61,1.13.64,8.78,5.07Zm0-6v1.31l-9.91-5.72V213l.05,0,0-7.62,1.13.65,8.78,5.07v3.44l0,0Z"/><polygon class="cls-11" points="506.33 27.74 507.48 27.07 505.32 25.82 505.31 27.15 506.33 27.74"/><polygon class="cls-11" points="509.76 29.73 510.91 29.05 508.38 27.59 508.37 28.92 509.76 29.73"/><polygon class="cls-11" points="513.18 31.68 514.32 31.02 511.81 29.57 511.8 30.9 513.18 31.68"/><polygon class="cls-11" points="516.61 33.67 517.75 33.01 515.24 31.55 515.23 32.88 516.61 33.67"/><polygon class="cls-11" points="520.04 35.65 521.18 34.99 518.67 33.53 518.67 34.86 520.04 35.65"/><polygon class="cls-11" points="523.45 37.62 524.6 36.96 522.08 35.51 522.07 36.83 523.45 37.62"/><polygon class="cls-11" points="526.4 39.33 527.54 38.65 525.51 37.49 525.5 38.81 526.4 39.33"/><polygon class="cls-12" points="505.31 27.15 505.32 25.82 483.25 38.65 484.39 39.3 505.31 27.15"/><polygon class="cls-12" points="486.31 40.41 487.45 41.08 508.37 28.92 508.38 27.59 486.31 40.41"/><polygon class="cls-11" points="480.65 42.67 481.8 41.99 479.63 40.74 479.63 42.08 480.65 42.67"/><polygon class="cls-11" points="532.45 42.82 533.6 42.15 531.17 40.74 531.16 42.08 532.45 42.82"/><polygon class="cls-12" points="489.74 42.39 490.88 43.05 511.8 30.9 511.81 29.57 489.74 42.39"/><polygon class="cls-11" points="484.08 44.65 485.23 43.98 482.69 42.51 482.69 43.84 484.08 44.65"/><polygon class="cls-12" points="493.17 44.37 494.32 45.03 515.23 32.88 515.24 31.55 493.17 44.37"/><polygon class="cls-11" points="536.9 45.39 538.05 44.72 534.51 42.68 534.51 44.01 536.9 45.39"/><polygon class="cls-11" points="487.49 46.61 488.64 45.95 486.12 44.49 486.12 45.83 487.49 46.61"/><polygon class="cls-12" points="496.6 46.35 497.75 47.02 518.67 34.86 518.67 33.53 496.6 46.35"/><polygon class="cls-11" points="541.37 47.98 542.52 47.3 538.97 45.25 538.96 46.58 541.37 47.98"/><polygon class="cls-11" points="490.92 48.6 492.07 47.93 489.56 46.48 489.55 47.81 490.92 48.6"/><polygon class="cls-12" points="500.01 48.33 501.15 48.99 522.07 36.83 522.08 35.51 500.01 48.33"/><polygon class="cls-11" points="545.84 50.55 546.99 49.89 543.43 47.83 543.43 49.16 545.84 50.55"/><polygon class="cls-11" points="494.35 50.57 495.5 49.91 492.98 48.46 492.98 49.78 494.35 50.57"/><polygon class="cls-12" points="503.44 50.31 504.59 50.97 525.5 38.81 525.51 37.49 503.44 50.31"/><polygon class="cls-11" points="497.77 52.54 498.91 51.88 496.4 50.43 496.4 51.75 497.77 52.54"/><polygon class="cls-11" points="550.29 53.12 551.44 52.46 547.89 50.41 547.88 51.73 550.29 53.12"/><polygon class="cls-12" points="510.24 54.24 531.16 42.08 531.17 40.74 509.1 53.58 510.24 54.24"/><polygon class="cls-11" points="499.83 53.73 500.72 54.25 501.87 53.59 499.83 52.41 499.83 53.73"/><polygon class="cls-11" points="554.74 55.69 555.89 55.03 552.36 52.99 552.35 54.31 554.74 55.69"/><polygon class="cls-12" points="512.45 55.5 513.59 56.17 534.51 44.01 534.51 42.68 512.45 55.5"/><polygon class="cls-11" points="558.3 57.74 559.45 57.07 556.81 55.55 556.8 56.88 558.3 57.74"/><polygon class="cls-12" points="479.63 42.08 479.63 40.74 451.54 57.08 452.69 57.73 479.63 42.08"/><polygon class="cls-12" points="516.9 58.07 518.04 58.73 538.96 46.58 538.97 45.25 516.9 58.07"/><polygon class="cls-12" points="454.59 58.84 455.74 59.5 482.69 43.84 482.69 42.51 454.59 58.84"/><polygon class="cls-11" points="563.98 61.02 565.12 60.35 563.08 59.18 563.08 60.51 563.98 61.02"/><polygon class="cls-11" points="448.96 61.09 450.11 60.41 447.94 59.16 447.94 60.5 448.96 61.09"/><polygon class="cls-12" points="521.37 60.65 522.51 61.31 543.43 49.16 543.43 47.83 521.37 60.65"/><polygon class="cls-12" points="486.12 44.49 458.02 60.82 459.17 61.48 486.12 45.83 486.12 44.49"/><polygon class="cls-11" points="567.41 63.01 568.56 62.34 566.04 60.88 566.04 62.22 567.41 63.01"/><polygon class="cls-11" points="452.39 63.07 453.54 62.4 451 60.93 451 62.26 452.39 63.07"/><polygon class="cls-12" points="489.56 46.48 461.46 62.8 462.6 63.47 489.55 47.81 489.56 46.48"/><polygon class="cls-12" points="525.82 63.23 526.96 63.89 547.88 51.73 547.89 50.41 525.82 63.23"/><polygon class="cls-11" points="570.84 64.99 571.99 64.32 569.47 62.87 569.47 64.2 570.84 64.99"/><polygon class="cls-11" points="455.8 65.04 456.95 64.37 454.43 62.91 454.43 64.25 455.8 65.04"/><polygon class="cls-12" points="492.98 48.46 464.89 64.79 466.03 65.45 492.98 49.78 492.98 48.46"/><polygon class="cls-12" points="530.29 65.81 531.43 66.47 552.35 54.31 552.36 52.99 530.29 65.81"/><polygon class="cls-11" points="574.25 66.95 575.4 66.29 572.89 64.83 572.87 66.16 574.25 66.95"/><polygon class="cls-11" points="459.23 67.01 460.38 66.35 457.86 64.89 457.86 66.22 459.23 67.01"/><polygon class="cls-12" points="496.4 50.43 468.3 66.76 469.44 67.42 496.4 51.75 496.4 50.43"/><polygon class="cls-11" points="577.68 68.93 578.83 68.27 576.31 66.82 576.31 68.14 577.68 68.93"/><polygon class="cls-12" points="534.74 68.38 535.88 69.04 556.8 56.88 556.81 55.55 534.74 68.38"/><polygon class="cls-11" points="462.66 68.99 463.81 68.33 461.29 66.88 461.29 68.2 462.66 68.99"/><polygon class="cls-12" points="499.83 52.41 471.73 68.74 472.88 69.4 499.83 53.73 499.83 52.41"/><polygon class="cls-11" points="581.12 70.92 582.26 70.25 579.75 68.8 579.75 70.12 581.12 70.92"/><polygon class="cls-11" points="466.07 70.96 467.22 70.3 464.7 68.85 464.7 70.17 466.07 70.96"/><polygon class="cls-11" points="584.16 72.67 585.3 72.01 583.16 70.76 583.15 72.09 584.16 72.67"/><polygon class="cls-12" points="542.16 72.66 563.08 60.51 563.08 59.18 541.02 72.01 542.16 72.66"/><polygon class="cls-11" points="469.02 72.67 470.17 72.01 468.13 70.83 468.13 72.15 469.02 72.67"/><polygon class="cls-12" points="447.94 59.16 425.85 72.01 427 72.66 447.94 60.5 447.94 59.16"/><polygon class="cls-12" points="543.98 73.7 545.12 74.36 566.04 62.22 566.04 60.88 543.98 73.7"/><polygon class="cls-12" points="451 60.93 428.91 73.76 430.06 74.42 451 62.26 451 60.93"/><polygon class="cls-11" points="538.29 75.95 539.45 75.28 537.4 74.1 537.4 75.43 538.29 75.95"/><polygon class="cls-12" points="547.41 75.68 548.55 76.35 569.47 64.2 569.47 62.87 547.41 75.68"/><polygon class="cls-12" points="454.43 62.91 432.34 75.74 433.49 76.41 454.43 64.25 454.43 62.91"/><polygon class="cls-11" points="541.73 77.93 542.88 77.26 540.36 75.8 540.36 77.14 541.73 77.93"/><polygon class="cls-12" points="550.81 77.66 551.96 78.32 572.87 66.16 572.89 64.83 550.81 77.66"/><polygon class="cls-12" points="457.86 64.89 435.78 77.73 436.92 78.39 457.86 66.22 457.86 64.89"/><polygon class="cls-11" points="545.16 79.91 546.31 79.24 543.79 77.79 543.78 79.12 545.16 79.91"/><polygon class="cls-12" points="554.25 79.64 555.39 80.3 576.31 68.14 576.31 66.82 554.25 79.64"/><polygon class="cls-12" points="461.29 66.88 439.21 79.71 440.35 80.37 461.29 68.2 461.29 66.88"/><polygon class="cls-11" points="548.57 81.87 549.72 81.21 547.2 79.76 547.2 81.09 548.57 81.87"/><polygon class="cls-12" points="557.68 81.62 558.83 82.28 579.75 70.12 579.75 68.8 557.68 81.62"/><polygon class="cls-12" points="464.7 68.85 442.62 81.68 443.76 82.34 464.7 70.17 464.7 68.85"/><polygon class="cls-11" points="552 83.86 553.15 83.19 550.63 81.74 550.63 83.06 552 83.86"/><polygon class="cls-12" points="561.09 83.59 562.24 84.25 583.15 72.09 583.16 70.76 561.09 83.59"/><polygon class="cls-12" points="468.13 70.83 446.05 83.66 447.19 84.32 468.13 72.15 468.13 70.83"/><polygon class="cls-11" points="555.43 85.84 556.58 85.18 554.06 83.72 554.06 85.05 555.43 85.84"/><polygon class="cls-11" points="557.47 87.01 558.47 87.59 559.62 86.93 557.48 85.69 557.47 87.01"/><polygon class="cls-12" points="473.79 74.09 451.7 86.93 452.85 87.59 473.79 75.42 473.79 74.09"/><polygon class="cls-12" points="537.4 74.1 509.31 90.43 510.45 91.09 537.4 75.43 537.4 74.1"/><polygon class="cls-11" points="500.93 91.09 502.07 90.42 473.79 74.09 473.79 75.42 500.93 91.09"/><polygon class="cls-12" points="540.36 75.8 512.26 92.13 513.4 92.8 540.36 77.14 540.36 75.8"/><polygon class="cls-11" points="506.6 94.37 507.75 93.69 505.71 92.52 505.71 93.85 506.6 94.37"/><polygon class="cls-12" points="543.79 77.79 515.69 94.12 516.83 94.78 543.78 79.12 543.79 77.79"/><polygon class="cls-11" points="510.03 96.35 511.18 95.68 508.66 94.22 508.66 95.56 510.03 96.35"/><polygon class="cls-12" points="547.2 79.76 519.11 96.09 520.25 96.75 547.2 81.09 547.2 79.76"/><polygon class="cls-11" points="513.46 98.32 514.61 97.66 512.1 96.21 512.09 97.53 513.46 98.32"/><polygon class="cls-12" points="550.63 81.74 522.53 98.07 523.68 98.73 550.63 83.06 550.63 81.74"/><polygon class="cls-11" points="516.88 100.29 518.02 99.63 515.51 98.18 515.51 99.5 516.88 100.29"/><polygon class="cls-12" points="554.06 83.72 525.97 100.05 527.11 100.71 554.06 85.05 554.06 83.72"/><polygon class="cls-11" points="520.31 102.28 521.45 101.61 518.94 100.16 518.94 101.48 520.31 102.28"/><polygon class="cls-12" points="557.48 85.69 529.38 102.02 530.52 102.68 557.47 87.01 557.48 85.69"/><polygon class="cls-11" points="523.74 104.26 524.88 103.58 522.37 102.14 522.37 103.46 523.74 104.26"/><polygon class="cls-11" points="526.78 106.01 527.92 105.34 525.78 104.11 525.78 105.43 526.78 106.01"/><polygon class="cls-12" points="505.71 92.52 483.62 105.35 484.77 106.01 505.71 93.85 505.71 92.52"/><polygon class="cls-12" points="508.66 94.22 486.58 107.06 487.72 107.72 508.66 95.56 508.66 94.22"/><polygon class="cls-12" points="512.1 96.21 490.01 109.04 491.16 109.7 512.09 97.53 512.1 96.21"/><polygon class="cls-12" points="515.51 98.18 493.42 111.01 494.57 111.67 515.51 99.5 515.51 98.18"/><polygon class="cls-12" points="518.94 100.16 496.85 112.99 498 113.65 518.94 101.48 518.94 100.16"/><polygon class="cls-12" points="522.37 102.14 500.28 114.97 501.43 115.64 522.37 103.46 522.37 102.14"/><polygon class="cls-12" points="525.78 104.11 503.7 116.95 504.84 117.61 525.78 105.43 525.78 104.11"/><polygon class="cls-12" points="505.88 122.36 505.88 123.7 592.54 73.33 592.55 72.01 505.88 122.36"/><path class="cls-13" d="M592.55,72,505.31,21.64,418.64,72l87.24,50.35ZM509.31,90.43,537.4,74.1l2.05,1.18-1.16.67L511.34,91.6l-.89-.51Zm2.95,1.7,28.1-16.33,2.52,1.46-1.15.67-27,15.66-1.38-.8Zm3.43,2,28.1-16.33,2.52,1.45-1.15.67L518.21,95.57l-1.38-.79Zm3.41,2,28.1-16.33,2.52,1.45-1.15.66-27,15.67-1.37-.79Zm3.44,2,28.09-16.33,2.52,1.45-1.15.66-27,15.67-1.37-.79Zm3.43,2,28.09-16.33,2.52,1.46-1.15.66-26.95,15.67-1.37-.8Zm32.5-12.46-27,15.66-1-.57-1.14-.66,28.1-16.33,2.14,1.24ZM585.3,72l-1.14.66L563.24,84.83l-1-.58-1.15-.66,22.07-12.83Zm-3-1.76-1.14.66L560.2,83.07l-1.37-.79-1.15-.66L579.75,68.8Zm-3.43-2-1.15.66L556.76,81.09l-1.37-.79-1.14-.66,22.06-12.82Zm-3.43-2-1.14.66L553.33,79.11,552,78.32l-1.15-.67,22.08-12.82Zm-3.41-2-1.15.67L549.92,77.14l-1.37-.79-1.14-.67,22.06-12.82Zm-3.43-2-1.15.67L546.49,75.16l-1.37-.8L544,73.7,566,60.88Zm-3.44-2L564,61,543.06,73.17l-.9-.51L541,72l22.06-12.83Zm-5.67-3.28-1.15.68L537.39,69.9,535.88,69l-1.14-.66,22.07-12.83Zm-3.56-2-1.15.66L533.82,67.85l-2.39-1.38-1.14-.66L552.36,53Zm-4.45-2.57-1.15.66L529.38,65.28,527,63.89l-1.14-.66L547.89,50.4ZM547,49.89l-1.15.66L524.93,62.71l-2.42-1.4-1.14-.66,22.07-12.82Zm-4.47-2.59-1.15.68L520.46,60.12,518,58.73l-1.14-.66L539,45.25Zm-4.47-2.58-1.15.67L516,57.54l-2.4-1.37-1.14-.67,22.06-12.82Zm-4.46-2.57-1.14.67L511.54,55l-1.3-.73-1.14-.66,22.07-12.84Zm-6-3.5-1.15.68L505.48,51.49l-.89-.52-1.15-.66,22.07-12.82ZM524.6,37l-1.15.66L502.53,49.78,501.15,49,500,48.33,522.08,35.5ZM500.72,54.25l-27,15.67-.89-.52-1.15-.66,28.1-16.33,2,1.18ZM458,60.82l28.09-16.33L488.64,46l-1.15.66L460.54,62.28l-1.37-.8Zm3.43,2,28.1-16.33,2.51,1.46-1.15.67L464,64.26l-1.37-.79Zm3.43,2L493,48.46l2.52,1.45-1.15.66-27,15.67L466,65.45Zm3.41,2,28.1-16.33,2.51,1.45-1.14.66L470.82,68.21l-1.38-.79ZM521.18,35l-1.14.66L499.12,47.81,497.75,47l-1.15-.66,22.07-12.82Zm-3.43-2-1.14.66L495.69,45.83l-1.37-.8-1.15-.66,22.07-12.82Zm-3.43-2-1.14.66L492.26,43.84l-1.38-.79-1.14-.66L511.8,29.57Zm-3.41-2-1.15.68L488.84,41.87l-1.39-.79-1.14-.67,22.06-12.82Zm-5.59-3.23,2.16,1.25-1.15.67L485.41,39.9l-1-.6-1.14-.65ZM485.23,44l-1.15.67L457.13,60.3l-1.39-.8-1.15-.66,28.1-16.33Zm-5.6-3.24L481.8,42l-1.15.68L453.7,58.32l-1-.59-1.14-.65ZM427,72.66,425.85,72l22.09-12.85,2.17,1.25-1.15.68L428,73.25Zm3.06,1.76-1.15-.66L451,60.93l2.54,1.47-1.15.67L431.45,75.23Zm3.43,2-1.15-.66,22.09-12.83L457,64.37,455.8,65,434.86,77.2Zm3.43,2-1.14-.66,22.08-12.84,2.52,1.46-1.15.66L438.29,79.18Zm3.43,2-1.14-.66,22.08-12.83,2.52,1.45-1.15.66L441.73,81.16Zm3.41,2-1.14-.66,22.09-12.83,2.51,1.45-1.15.66L445.13,83.13Zm3.43,2-1.14-.66,22.09-12.83,2,1.18-1.15.66L448.09,84.84Zm5.66,3.27-1.14-.66,22.08-12.84,28.28,16.33-1.14.67L480,103.25ZM484.77,106l-1.15-.66,22.09-12.83,2,1.18-1.15.67-20.93,12.16Zm3,1.71-1.14-.66,22.08-12.84,2.52,1.46-1.15.67L489.1,108.51Zm3.44,2L490,109,512.1,96.21l2.51,1.45-1.15.66-20.93,12.17Zm3.41,2-1.15-.66,22.09-12.83L518,99.63l-1.14.66-20.94,12.17Zm3.43,2-1.15-.66,22.09-12.83,2.51,1.45-1.14.66-20.94,12.18Zm3.43,2-1.15-.67,22.09-12.83,2.51,1.44-1.14.68L502.8,116.43Zm3.41,2L503.7,117l22.08-12.84,2.14,1.23-1.14.67-20.94,12.17Z"/><polygon class="cls-11" points="418.64 72.01 418.64 73.33 505.88 123.7 505.88 122.36 418.64 72.01"/><polygon class="cls-14" points="468.13 79.97 469.23 80.6 490.76 93.03 491.85 93.66 505.88 101.94 505.88 100.64 457.38 72.46 457.37 73.76 468.13 79.97"/><polygon class="cls-14" points="499.12 118.4 499.41 118.57 500.22 119.04 500.28 97.6 499.19 96.97 499.12 118.4"/><polygon class="cls-14" points="493.22 115.09 493.51 115.26 494.31 115.72 494.38 94.28 493.29 93.66 493.22 115.09"/><polygon class="cls-14" points="487.47 111.68 487.76 111.85 488.56 112.31 488.63 90.88 487.54 90.25 487.47 111.68"/><polygon class="cls-14" points="481.57 108.38 481.86 108.53 482.66 109 482.73 87.58 481.63 86.94 481.57 108.38"/><polygon class="cls-14" points="476.07 105.12 476.36 105.28 477.16 105.75 477.23 84.31 476.14 83.69 476.07 105.12"/><polygon class="cls-14" points="470.17 101.81 470.45 101.97 471.26 102.44 471.33 81.01 470.24 80.38 470.17 101.81"/><polygon class="cls-14" points="464.57 98.45 464.86 98.61 465.66 99.08 465.73 77.66 464.64 77.02 464.57 98.45"/><polygon class="cls-14" points="458.67 95.14 458.96 95.31 459.75 95.78 459.82 74.34 458.73 73.71 458.67 95.14"/><polygon class="cls-14" points="452.91 91.74 453.2 91.89 454.01 92.36 454.07 70.93 452.99 70.3 452.91 91.74"/><polygon class="cls-14" points="447.01 88.42 447.3 88.59 448.1 89.06 448.17 67.62 447.08 67 447.01 88.42"/><polygon class="cls-14" points="441.52 85.17 441.8 85.33 442.6 85.8 442.68 64.37 441.58 63.74 441.52 85.17"/><polygon class="cls-14" points="435.61 81.86 435.9 82.03 436.7 82.48 436.77 61.06 435.68 60.42 435.61 81.86"/><polygon class="cls-14" points="429.86 78.5 430.15 78.66 430.95 79.13 431.02 57.7 429.93 57.07 429.86 78.5"/><polygon class="cls-14" points="423.96 75.19 424.24 75.36 425.05 75.82 425.11 54.39 424.03 53.77 423.96 75.19"/><polygon class="cls-14" points="418.7 72.06 418.99 72.22 419.79 72.68 419.86 51.24 418.77 50.62 418.7 72.06"/><polygon class="cls-14" points="422.89 53.83 423.98 54.47 445.51 66.89 446.6 67.51 457.37 73.74 457.37 72.44 418.76 50.18 418.76 51.47 422.89 53.83"/><polygon class="cls-14" points="554.61 29.49 555.69 30.12 577.22 42.55 578.32 43.18 592.34 51.46 592.35 50.15 543.84 21.98 543.84 23.27 554.61 29.49"/><polygon class="cls-14" points="585.6 67.91 585.89 68.08 586.68 68.55 586.75 47.11 585.66 46.49 585.6 67.91"/><polygon class="cls-14" points="579.69 64.61 579.98 64.77 580.78 65.23 580.85 43.81 579.76 43.17 579.69 64.61"/><polygon class="cls-14" points="573.94 61.19 574.23 61.36 575.02 61.82 575.1 40.4 574 39.77 573.94 61.19"/><polygon class="cls-14" points="568.03 57.89 568.32 58.06 569.13 58.51 569.2 37.09 568.1 36.45 568.03 57.89"/><polygon class="cls-14" points="562.54 54.63 562.83 54.8 563.63 55.26 563.69 33.84 562.6 33.2 562.54 54.63"/><polygon class="cls-14" points="556.63 51.32 556.92 51.49 557.72 51.95 557.79 30.52 556.7 29.89 556.63 51.32"/><polygon class="cls-14" points="551.03 47.97 551.33 48.13 552.13 48.59 552.2 27.17 551.11 26.53 551.03 47.97"/><polygon class="cls-14" points="545.13 44.66 545.42 44.83 546.22 45.28 546.29 23.85 545.2 23.23 545.13 44.66"/><polygon class="cls-14" points="539.38 41.25 539.67 41.42 540.47 41.87 540.54 20.45 539.45 19.81 539.38 41.25"/><polygon class="cls-14" points="533.48 37.93 533.76 38.1 534.57 38.57 534.63 17.13 533.55 16.51 533.48 37.93"/><polygon class="cls-14" points="527.98 34.69 528.27 34.84 529.07 35.31 529.14 13.88 528.05 13.25 527.98 34.69"/><polygon class="cls-14" points="522.08 31.37 522.37 31.54 523.17 32 523.24 10.57 522.14 9.95 522.08 31.37"/><polygon class="cls-14" points="516.33 28.02 516.62 28.18 517.42 28.64 517.48 7.21 516.4 6.58 516.33 28.02"/><polygon class="cls-14" points="510.42 24.7 510.71 24.87 511.51 25.34 511.58 3.9 510.49 3.28 510.42 24.7"/><polygon class="cls-14" points="505.17 21.57 505.45 21.74 506.25 22.19 506.33 0.77 505.23 0.13 505.17 21.57"/><polygon class="cls-14" points="509.36 3.34 510.45 3.98 531.98 16.4 533.07 17.04 543.83 23.25 543.84 21.95 505.26 0 505.22 0.99 509.36 3.34"/><polygon class="cls-3" points="505.32 122.04 505.32 100.71 506.92 100.71 506.92 121.87 505.88 122.36 505.32 122.04"/><polygon class="cls-3" points="543.01 79.97 541.92 80.6 520.38 93.03 519.3 93.66 505.27 101.94 505.27 100.64 553.77 72.46 553.78 73.76 543.01 79.97"/><polygon class="cls-3" points="512.02 118.4 511.73 118.57 510.93 119.04 510.86 97.6 511.95 96.97 512.02 118.4"/><polygon class="cls-3" points="517.92 115.09 517.64 115.26 516.83 115.72 516.76 94.28 517.86 93.66 517.92 115.09"/><polygon class="cls-3" points="523.68 111.68 523.39 111.85 522.58 112.31 522.52 90.88 523.6 90.25 523.68 111.68"/><polygon class="cls-3" points="529.58 108.38 529.29 108.53 528.49 109 528.42 87.58 529.51 86.94 529.58 108.38"/><polygon class="cls-3" points="535.07 105.12 534.78 105.28 533.99 105.75 533.91 84.31 535.01 83.69 535.07 105.12"/><polygon class="cls-3" points="540.98 101.81 540.69 101.97 539.89 102.44 539.82 81.01 540.91 80.38 540.98 101.81"/><polygon class="cls-3" points="546.58 98.45 546.29 98.61 545.48 99.08 545.42 77.66 546.51 77.02 546.58 98.45"/><polygon class="cls-3" points="552.48 95.14 552.19 95.31 551.39 95.78 551.32 74.34 552.41 73.71 552.48 95.14"/><polygon class="cls-3" points="558.23 91.74 557.94 91.89 557.14 92.36 557.07 70.93 558.16 70.3 558.23 91.74"/><polygon class="cls-3" points="564.14 88.42 563.85 88.59 563.04 89.06 562.97 67.62 564.07 67 564.14 88.42"/><polygon class="cls-3" points="569.63 85.17 569.34 85.33 568.54 85.8 568.48 64.37 569.56 63.74 569.63 85.17"/><polygon class="cls-3" points="575.53 81.86 575.24 82.03 574.45 82.48 574.38 61.06 575.47 60.42 575.53 81.86"/><polygon class="cls-3" points="581.28 78.5 581 78.66 580.19 79.13 580.13 57.7 581.21 57.07 581.28 78.5"/><polygon class="cls-3" points="587.18 75.19 586.9 75.36 586.1 75.82 586.03 54.39 587.12 53.77 587.18 75.19"/><polygon class="cls-3" points="592.45 72.06 592.16 72.22 591.35 72.68 591.28 51.24 592.38 50.62 592.45 72.06"/><polygon class="cls-3" points="588.25 53.83 587.16 54.47 565.63 66.89 564.55 67.51 553.78 73.74 553.78 72.44 592.39 50.18 592.39 51.47 588.25 53.83"/></g></g></g></svg>