<svg xmlns="http://www.w3.org/2000/svg" viewBox="0 0 595.64 183.35"><defs><style>.cls-1{fill:#4d4d4d;}</style></defs><title>r1</title><g id="Capa_2" data-name="Capa 2"><g id="control_vector" data-name="control vector"><path class="cls-1" d="M45.52.36C45.59.14,45.7,0,46,0h2.34a.46.46,0,0,1,.47.36l8.39,23.76a.25.25,0,0,1-.26.36H54.38a.43.43,0,0,1-.47-.36L52,18.79h-9.9l-1.88,5.33a.48.48,0,0,1-.46.36H37.28a.25.25,0,0,1-.26-.36ZM51,15.84,47.14,4.72h-.07L43.18,15.84Z"/><path class="cls-1" d="M71.44,24.48a.34.34,0,0,1-.36-.36V14c0-2.77-1.26-4.39-3.85-4.39a3.87,3.87,0,0,0-4,4.21V24.12a.35.35,0,0,1-.36.36H60.6a.35.35,0,0,1-.36-.36V7.59a.35.35,0,0,1,.36-.36h2.31a.35.35,0,0,1,.36.36V9.18h0a5.47,5.47,0,0,1,4.83-2.34c3.74,0,6,2.55,6,6.48v10.8a.34.34,0,0,1-.36.36Z"/><path class="cls-1" d="M84.11,24.66c-3.35,0-4.64-1.51-4.64-4.9V9.9a.19.19,0,0,0-.22-.22H77.81a.34.34,0,0,1-.36-.36V7.59a.35.35,0,0,1,.36-.36h1.44c.15,0,.22-.07.22-.21V2.16a.34.34,0,0,1,.36-.36h2.3a.34.34,0,0,1,.36.36V7c0,.14.07.21.22.21h2.73a.34.34,0,0,1,.36.36V9.32a.34.34,0,0,1-.36.36H82.71a.19.19,0,0,0-.22.22v9.75c0,1.73.65,2.2,2.2,2.2h.75a.34.34,0,0,1,.36.36V24.3a.34.34,0,0,1-.36.36Z"/><path class="cls-1" d="M89.3,20.19a13.43,13.43,0,0,1-.58-4.35,13.43,13.43,0,0,1,.54-4.36,7.25,7.25,0,0,1,13.53,0,15.08,15.08,0,0,1,.54,4.93.35.35,0,0,1-.39.36H92a.19.19,0,0,0-.21.22,6.5,6.5,0,0,0,.28,2.09,4.27,4.27,0,0,0,4.36,3,5.64,5.64,0,0,0,4.43-1.9c.18-.18.36-.22.54-.07l1.47,1.33a.32.32,0,0,1,0,.5,8.38,8.38,0,0,1-6.73,2.95C92.72,24.87,90.23,23.18,89.3,20.19ZM100,14.36c.15,0,.22-.07.22-.21a6.08,6.08,0,0,0-.25-2,4.25,4.25,0,0,0-7.92,0,6.08,6.08,0,0,0-.25,2,.19.19,0,0,0,.21.21Z"/><path class="cls-1" d="M115.76,31a.34.34,0,0,1-.36-.36v-23a.34.34,0,0,1,.36-.36h2.3a.34.34,0,0,1,.36.36V9.21h0c.82-1.36,2.3-2.37,4.89-2.37,3,0,5.08,1.4,5.94,4.14a14.2,14.2,0,0,1,.61,4.86,14.25,14.25,0,0,1-.61,4.89c-.86,2.74-2.95,4.14-5.94,4.14-2.59,0-4.07-1-4.89-2.41h0V30.6a.34.34,0,0,1-.36.36Zm10.65-11.52a11.89,11.89,0,0,0,.4-3.6,12.15,12.15,0,0,0-.4-3.6,4.08,4.08,0,0,0-7.6,0,11.47,11.47,0,0,0-.39,3.6,11.35,11.35,0,0,0,.39,3.6,4.07,4.07,0,0,0,7.6,0Z"/><path class="cls-1" d="M133.58,20.23a12.85,12.85,0,0,1-.58-4.39,12.78,12.78,0,0,1,.58-4.36c.93-3,3.45-4.64,6.8-4.64s5.87,1.69,6.8,4.64a12.78,12.78,0,0,1,.58,4.36,12.85,12.85,0,0,1-.58,4.39c-.93,2.92-3.45,4.64-6.8,4.64S134.51,23.15,133.58,20.23Zm10.69-.86a11.63,11.63,0,0,0,.39-3.53,11.26,11.26,0,0,0-.39-3.49,4.15,4.15,0,0,0-7.78,0,11,11,0,0,0-.39,3.49,11.32,11.32,0,0,0,.39,3.53,4.16,4.16,0,0,0,7.78,0Z"/><path class="cls-1" d="M150.71,22.28a.35.35,0,0,1,0-.5l1.48-1.59a.35.35,0,0,1,.5,0,8.37,8.37,0,0,0,5.33,2c2.52,0,3.78-1.08,3.78-2.62,0-1.37-.65-2.13-3.35-2.42L156.61,17c-3.38-.36-5.14-2-5.14-4.86,0-3.27,2.34-5.25,6.4-5.25A10.32,10.32,0,0,1,164,8.75a.35.35,0,0,1,.08.5l-1.23,1.55a.35.35,0,0,1-.5.07,9.09,9.09,0,0,0-4.65-1.4c-2.16,0-3.27,1-3.27,2.37s.83,2.09,3.38,2.34l1.8.18c3.49.33,5.19,2.09,5.19,4.86,0,3.38-2.45,5.65-6.95,5.65A10.73,10.73,0,0,1,150.71,22.28Z"/><path class="cls-1" d="M169.11,3.35a.34.34,0,0,1-.36-.36V.36a.34.34,0,0,1,.36-.36h2.44a.34.34,0,0,1,.36.36V3a.34.34,0,0,1-.36.36Zm.07,21.13a.34.34,0,0,1-.36-.36V7.59a.34.34,0,0,1,.36-.36h2.3a.34.34,0,0,1,.36.36V24.12a.34.34,0,0,1-.36.36Z"/><path class="cls-1" d="M177.39,24.48a.34.34,0,0,1-.36-.36V.36a.34.34,0,0,1,.36-.36h2.3a.34.34,0,0,1,.36.36V9.21h0c.82-1.36,2.3-2.37,4.89-2.37,3,0,5.08,1.4,5.94,4.14a14.2,14.2,0,0,1,.61,4.86,14.25,14.25,0,0,1-.61,4.89c-.86,2.74-2.95,4.14-5.94,4.14-2.59,0-4.07-1-4.89-2.41h0v1.66a.34.34,0,0,1-.36.36Zm10.65-5a11.89,11.89,0,0,0,.4-3.6,12.15,12.15,0,0,0-.4-3.6,4.08,4.08,0,0,0-7.59,0,11.12,11.12,0,0,0-.4,3.6,11,11,0,0,0,.4,3.6,4.06,4.06,0,0,0,7.59,0Z"/><path class="cls-1" d="M199.81,24.66c-3,0-4.21-1.44-4.21-4.54V.36A.34.34,0,0,1,196,0h2.31a.34.34,0,0,1,.36.36V19.94c0,1.44.54,1.91,1.72,1.91H201a.34.34,0,0,1,.36.36V24.3a.35.35,0,0,1-.36.36Z"/><path class="cls-1" d="M204.46,20.19a13.43,13.43,0,0,1-.58-4.35,13.43,13.43,0,0,1,.54-4.36,7.26,7.26,0,0,1,13.54,0,15.08,15.08,0,0,1,.54,4.93.35.35,0,0,1-.4.36H207.19A.19.19,0,0,0,207,17a6.47,6.47,0,0,0,.29,2.09,4.25,4.25,0,0,0,4.35,3,5.64,5.64,0,0,0,4.43-1.9c.18-.18.36-.22.54-.07l1.47,1.33a.32.32,0,0,1,0,.5,8.38,8.38,0,0,1-6.73,2.95C207.88,24.87,205.39,23.18,204.46,20.19Zm10.72-5.83c.15,0,.22-.07.22-.21a6.08,6.08,0,0,0-.25-2,4.25,4.25,0,0,0-7.92,0,6.08,6.08,0,0,0-.25,2,.19.19,0,0,0,.21.21Z"/><path class="cls-1" d="M221.45,22.28a.35.35,0,0,1,0-.5l1.48-1.59a.35.35,0,0,1,.5,0,8.37,8.37,0,0,0,5.33,2c2.52,0,3.78-1.08,3.78-2.62,0-1.37-.65-2.13-3.35-2.42L227.35,17c-3.38-.36-5.14-2-5.14-4.86,0-3.27,2.34-5.25,6.4-5.25a10.32,10.32,0,0,1,6.12,1.91.34.34,0,0,1,.07.5l-1.22,1.55a.35.35,0,0,1-.5.07,9.09,9.09,0,0,0-4.65-1.4c-2.16,0-3.27,1-3.27,2.37s.83,2.09,3.38,2.34l1.8.18c3.49.33,5.18,2.09,5.18,4.86,0,3.38-2.44,5.65-6.94,5.65A10.73,10.73,0,0,1,221.45,22.28Z"/><path class="cls-1" d="M257.92,24.48a.34.34,0,0,1-.36-.36V22.6h0c-.79,1.3-2.48,2.27-5.11,2.27-3.28,0-5.8-1.69-5.8-5.18,0-3.64,2.52-5.33,6.73-5.33h3.93a.19.19,0,0,0,.21-.21V12.89c0-2.38-.93-3.39-4.14-3.39a6.7,6.7,0,0,0-4.17,1.23.33.33,0,0,1-.51,0l-1-1.66a.38.38,0,0,1,.07-.5,9.58,9.58,0,0,1,5.87-1.69c4.9,0,6.77,1.62,6.77,5.87V24.12a.35.35,0,0,1-.36.36Zm-.44-5.58V17a.19.19,0,0,0-.21-.22h-3.46c-3,0-4.28.87-4.28,2.81,0,1.77,1.29,2.7,3.6,2.7C255.83,22.28,257.48,21,257.48,18.9Z"/><path class="cls-1" d="M270.44,24.66c-3.34,0-4.64-1.51-4.64-4.9V9.9a.19.19,0,0,0-.22-.22h-1.44a.34.34,0,0,1-.36-.36V7.59a.35.35,0,0,1,.36-.36h1.44c.15,0,.22-.07.22-.21V2.16a.34.34,0,0,1,.36-.36h2.3a.34.34,0,0,1,.36.36V7a.19.19,0,0,0,.22.21h2.74a.35.35,0,0,1,.36.36V9.32a.34.34,0,0,1-.36.36H269a.2.2,0,0,0-.22.22v9.75c0,1.73.65,2.2,2.2,2.2h.76a.34.34,0,0,1,.36.36V24.3a.35.35,0,0,1-.36.36Z"/><path class="cls-1" d="M286.54,24.48a.35.35,0,0,1-.37-.36V22.6h0c-.79,1.3-2.48,2.27-5.11,2.27-3.28,0-5.8-1.69-5.8-5.18,0-3.64,2.52-5.33,6.73-5.33h3.93a.19.19,0,0,0,.21-.21V12.89c0-2.38-.93-3.39-4.14-3.39a6.7,6.7,0,0,0-4.17,1.23.33.33,0,0,1-.51,0l-1-1.66a.38.38,0,0,1,.07-.5,9.58,9.58,0,0,1,5.87-1.69c4.9,0,6.77,1.62,6.77,5.87V24.12a.35.35,0,0,1-.36.36Zm-.44-5.58V17a.19.19,0,0,0-.21-.22h-3.46c-3,0-4.28.87-4.28,2.81,0,1.77,1.29,2.7,3.6,2.7C284.45,22.28,286.1,21,286.1,18.9Z"/><path class="cls-1" d="M304.86,31a.34.34,0,0,1-.36-.36V22.46h0c-.83,1.37-2.3,2.41-4.89,2.41-3,0-5.08-1.4-5.94-4.14a14.25,14.25,0,0,1-.61-4.89,14.2,14.2,0,0,1,.61-4.86c.86-2.74,2.95-4.14,5.94-4.14,2.59,0,4.06,1,4.89,2.37h0V7.59a.34.34,0,0,1,.36-.36h2.3a.34.34,0,0,1,.36.36v23a.34.34,0,0,1-.36.36Zm-.76-11.52a11,11,0,0,0,.4-3.6,11.12,11.12,0,0,0-.4-3.6,4.08,4.08,0,0,0-7.59,0,12.15,12.15,0,0,0-.4,3.6,11.89,11.89,0,0,0,.4,3.6,4.06,4.06,0,0,0,7.59,0Z"/><path class="cls-1" d="M323.54,24.48a.35.35,0,0,1-.36-.36V22.5h0a5.26,5.26,0,0,1-4.72,2.37c-3.78,0-6-2.59-6-6.51V7.59a.34.34,0,0,1,.36-.36h2.3a.34.34,0,0,1,.36.36V17.64c0,2.81,1.26,4.42,3.82,4.42,2.33,0,3.88-1.65,3.88-4.24V7.59a.35.35,0,0,1,.36-.36h2.31a.35.35,0,0,1,.36.36V24.12a.35.35,0,0,1-.36.36Z"/><path class="cls-1" d="M330.92,20.19a13.48,13.48,0,0,1-.57-4.35,13.43,13.43,0,0,1,.54-4.36,7.25,7.25,0,0,1,13.53,0,15.08,15.08,0,0,1,.54,4.93.35.35,0,0,1-.39.36H333.66a.2.2,0,0,0-.22.22,6.47,6.47,0,0,0,.29,2.09,4.26,4.26,0,0,0,4.36,3,5.6,5.6,0,0,0,4.42-1.9c.18-.18.36-.22.54-.07l1.48,1.33a.32.32,0,0,1,0,.5,8.39,8.39,0,0,1-6.74,2.95C334.34,24.87,331.86,23.18,330.92,20.19Zm10.73-5.83a.19.19,0,0,0,.22-.21,6.05,6.05,0,0,0-.26-2,4.25,4.25,0,0,0-7.91,0,6.05,6.05,0,0,0-.26,2,.19.19,0,0,0,.22.21Z"/><path class="cls-1" d="M347.92,22.28a.33.33,0,0,1,0-.5l1.47-1.59a.36.36,0,0,1,.51,0,8.34,8.34,0,0,0,5.32,2c2.52,0,3.78-1.08,3.78-2.62,0-1.37-.65-2.13-3.35-2.42L353.82,17c-3.38-.36-5.15-2-5.15-4.86,0-3.27,2.34-5.25,6.41-5.25a10.32,10.32,0,0,1,6.12,1.91.34.34,0,0,1,.07.5l-1.22,1.55a.36.36,0,0,1-.51.07,9.06,9.06,0,0,0-4.64-1.4c-2.16,0-3.28,1-3.28,2.37s.83,2.09,3.39,2.34l1.8.18c3.49.33,5.18,2.09,5.18,4.86,0,3.38-2.45,5.65-6.95,5.65A10.72,10.72,0,0,1,347.92,22.28Z"/><path class="cls-1" d="M384.74,24.48a.35.35,0,0,1-.36-.36V22.46h0c-.83,1.37-2.31,2.41-4.9,2.41-3,0-5.08-1.4-5.94-4.14a14.25,14.25,0,0,1-.61-4.89,14.2,14.2,0,0,1,.61-4.86c.86-2.74,2.95-4.14,5.94-4.14,2.59,0,4.07,1,4.9,2.37h0V.36a.34.34,0,0,1,.36-.36H387a.34.34,0,0,1,.36.36V24.12a.34.34,0,0,1-.36.36Zm-.75-5a11.35,11.35,0,0,0,.39-3.6,11.47,11.47,0,0,0-.39-3.6,4.08,4.08,0,0,0-7.6,0,12.15,12.15,0,0,0-.4,3.6,11.89,11.89,0,0,0,.4,3.6,4.07,4.07,0,0,0,7.6,0Z"/><path class="cls-1" d="M392.12,20.19a13.48,13.48,0,0,1-.57-4.35,13.43,13.43,0,0,1,.54-4.36,7.25,7.25,0,0,1,13.53,0,15.08,15.08,0,0,1,.54,4.93c0,.22-.14.36-.4.36h-10.9a.2.2,0,0,0-.22.22,6.47,6.47,0,0,0,.29,2.09,4.25,4.25,0,0,0,4.36,3,5.6,5.6,0,0,0,4.42-1.9c.18-.18.36-.22.54-.07l1.48,1.33a.31.31,0,0,1,0,.5A8.35,8.35,0,0,1,399,24.87C395.54,24.87,393.06,23.18,392.12,20.19Zm10.73-5.83a.19.19,0,0,0,.21-.21,6.08,6.08,0,0,0-.25-2,4.25,4.25,0,0,0-7.92,0,6.08,6.08,0,0,0-.25,2c0,.14.07.21.22.21Z"/><path class="cls-1" d="M428.66,24.48a.34.34,0,0,1-.36-.36V22.6h0c-.79,1.3-2.48,2.27-5.11,2.27-3.27,0-5.79-1.69-5.79-5.18,0-3.64,2.52-5.33,6.73-5.33H428c.15,0,.22-.07.22-.21V12.89c0-2.38-.94-3.39-4.14-3.39a6.73,6.73,0,0,0-4.18,1.23.32.32,0,0,1-.5,0l-1-1.66a.38.38,0,0,1,.07-.5,9.56,9.56,0,0,1,5.87-1.69c4.89,0,6.76,1.62,6.76,5.87V24.12a.34.34,0,0,1-.36.36Zm-.43-5.58V17a.2.2,0,0,0-.22-.22h-3.45c-3,0-4.29.87-4.29,2.81,0,1.77,1.3,2.7,3.6,2.7C426.57,22.28,428.23,21,428.23,18.9Z"/><path class="cls-1" d="M447.38,24.48a.34.34,0,0,1-.36-.36V14c0-2.77-1.26-4.39-3.85-4.39a3.87,3.87,0,0,0-4,4.21V24.12a.34.34,0,0,1-.36.36h-2.3a.34.34,0,0,1-.36-.36V7.59a.34.34,0,0,1,.36-.36h2.3a.34.34,0,0,1,.36.36V9.18h0a5.44,5.44,0,0,1,4.82-2.34c3.74,0,6,2.55,6,6.48v10.8a.34.34,0,0,1-.36.36Z"/><path class="cls-1" d="M455.34,3.35A.34.34,0,0,1,455,3V.36a.34.34,0,0,1,.36-.36h2.45a.34.34,0,0,1,.36.36V3a.35.35,0,0,1-.36.36Zm.07,21.13a.34.34,0,0,1-.36-.36V7.59a.34.34,0,0,1,.36-.36h2.3a.34.34,0,0,1,.36.36V24.12a.34.34,0,0,1-.36.36Z"/><path class="cls-1" d="M485.29,24.48a.34.34,0,0,1-.36-.36V14c0-2.77-1.26-4.39-3.86-4.39a3.88,3.88,0,0,0-3.95,4.21V24.12a.35.35,0,0,1-.36.36h-2.31a.35.35,0,0,1-.36-.36V14c0-2.77-1.26-4.39-3.85-4.39a3.87,3.87,0,0,0-4,4.21V24.12a.34.34,0,0,1-.36.36h-2.3a.34.34,0,0,1-.36-.36V7.59a.34.34,0,0,1,.36-.36h2.3a.34.34,0,0,1,.36.36V9.18h0a6.09,6.09,0,0,1,9.86.36h0a6.39,6.39,0,0,1,5.57-2.7c4,0,6.16,2.55,6.16,6.48v10.8a.34.34,0,0,1-.36.36Z"/><path class="cls-1" d="M503.4,24.48a.34.34,0,0,1-.36-.36V22.6h0c-.79,1.3-2.48,2.27-5.11,2.27-3.28,0-5.8-1.69-5.8-5.18,0-3.64,2.52-5.33,6.73-5.33h3.93a.19.19,0,0,0,.21-.21V12.89c0-2.38-.93-3.39-4.14-3.39a6.7,6.7,0,0,0-4.17,1.23.33.33,0,0,1-.51,0l-1-1.66a.38.38,0,0,1,.07-.5,9.58,9.58,0,0,1,5.87-1.69c4.9,0,6.77,1.62,6.77,5.87V24.12a.35.35,0,0,1-.36.36ZM503,18.9V17a.19.19,0,0,0-.21-.22h-3.46c-3,0-4.28.87-4.28,2.81,0,1.77,1.29,2.7,3.6,2.7C501.31,22.28,503,21,503,18.9Z"/><path class="cls-1" d="M515.06,24.66c-3,0-4.21-1.44-4.21-4.54V.36a.34.34,0,0,1,.36-.36h2.3a.34.34,0,0,1,.36.36V19.94c0,1.44.54,1.91,1.73,1.91h.68a.34.34,0,0,1,.36.36V24.3a.34.34,0,0,1-.36.36Z"/><path class="cls-1" d="M519.7,20.19a13.48,13.48,0,0,1-.57-4.35,13.43,13.43,0,0,1,.54-4.36,7.25,7.25,0,0,1,13.53,0,15.08,15.08,0,0,1,.54,4.93.35.35,0,0,1-.39.36H522.44a.2.2,0,0,0-.22.22,6.47,6.47,0,0,0,.29,2.09,4.26,4.26,0,0,0,4.36,3,5.6,5.6,0,0,0,4.42-1.9c.18-.18.36-.22.54-.07l1.48,1.33a.32.32,0,0,1,0,.5,8.39,8.39,0,0,1-6.74,2.95C523.12,24.87,520.64,23.18,519.7,20.19Zm10.73-5.83a.19.19,0,0,0,.22-.21,6.05,6.05,0,0,0-.26-2,4.25,4.25,0,0,0-7.91,0,6.05,6.05,0,0,0-.26,2,.19.19,0,0,0,.22.21Z"/><path class="cls-1" d="M536.7,22.28a.33.33,0,0,1,0-.5l1.47-1.59a.36.36,0,0,1,.51,0,8.34,8.34,0,0,0,5.32,2c2.52,0,3.78-1.08,3.78-2.62,0-1.37-.65-2.13-3.35-2.42L542.6,17c-3.38-.36-5.15-2-5.15-4.86,0-3.27,2.34-5.25,6.41-5.25A10.32,10.32,0,0,1,550,8.75a.34.34,0,0,1,.07.5l-1.22,1.55a.36.36,0,0,1-.51.07,9.06,9.06,0,0,0-4.64-1.4c-2.16,0-3.28,1-3.28,2.37s.83,2.09,3.39,2.34l1.8.18c3.49.33,5.18,2.09,5.18,4.86,0,3.38-2.45,5.65-6.95,5.65A10.72,10.72,0,0,1,536.7,22.28Z"/><path class="cls-1" d="M554.73,20.66h2.52a.34.34,0,0,1,.36.36v3.35a1.14,1.14,0,0,1-.22.79l-2.23,2.95a.55.55,0,0,1-.46.25.32.32,0,0,1-.33-.32V21A.35.35,0,0,1,554.73,20.66Z"/><path class="cls-1" d="M6,62.48a.35.35,0,0,1-.36-.36V38.36A.34.34,0,0,1,6,38H8.32a.34.34,0,0,1,.36.36v8.85h0c.83-1.36,2.31-2.37,4.9-2.37A5.71,5.71,0,0,1,19.55,49a14.45,14.45,0,0,1,.61,4.86,14.5,14.5,0,0,1-.61,4.89,5.71,5.71,0,0,1-5.94,4.14c-2.59,0-4.07-1-4.9-2.41h0v1.66a.35.35,0,0,1-.36.36Zm10.66-5a12.28,12.28,0,0,0,.39-3.6,12.54,12.54,0,0,0-.39-3.6,3.67,3.67,0,0,0-3.78-2.59,3.67,3.67,0,0,0-3.82,2.59,11.18,11.18,0,0,0-.39,3.6,11.06,11.06,0,0,0,.39,3.6,3.69,3.69,0,0,0,3.82,2.62A3.69,3.69,0,0,0,16.67,57.44Z"/><path class="cls-1" d="M35.13,62.48a.35.35,0,0,1-.36-.36V60.5h0A5.26,5.26,0,0,1,30,62.87c-3.78,0-6-2.59-6-6.51V45.59a.34.34,0,0,1,.36-.36h2.3a.34.34,0,0,1,.36.36v10c0,2.81,1.26,4.42,3.82,4.42,2.34,0,3.88-1.65,3.88-4.24V45.59a.35.35,0,0,1,.36-.36h2.31a.35.35,0,0,1,.36.36V62.12a.35.35,0,0,1-.36.36Z"/><path class="cls-1" d="M41.8,60.28a.33.33,0,0,1,0-.5l1.47-1.59a.35.35,0,0,1,.5,0,8.37,8.37,0,0,0,5.33,2c2.52,0,3.78-1.08,3.78-2.62,0-1.37-.65-2.13-3.35-2.42L47.7,55c-3.39-.36-5.15-2.05-5.15-4.86,0-3.27,2.34-5.25,6.41-5.25a10.32,10.32,0,0,1,6.12,1.91.34.34,0,0,1,.07.5L53.93,48.8a.36.36,0,0,1-.51.07,9.06,9.06,0,0,0-4.64-1.4c-2.16,0-3.28,1-3.28,2.37s.83,2.09,3.39,2.34l1.8.18c3.49.33,5.18,2.09,5.18,4.86,0,3.38-2.45,5.65-6.95,5.65A10.7,10.7,0,0,1,41.8,60.28Z"/><path class="cls-1" d="M70.7,69a.35.35,0,0,1-.36-.36V60.46h0c-.83,1.37-2.31,2.41-4.9,2.41-3,0-5.08-1.4-5.94-4.14a14.25,14.25,0,0,1-.61-4.89A14.2,14.2,0,0,1,59.47,49c.86-2.74,3-4.14,5.94-4.14,2.59,0,4.07,1,4.9,2.37h0V45.59a.35.35,0,0,1,.36-.36H73a.35.35,0,0,1,.36.36v23A.35.35,0,0,1,73,69ZM70,57.44a11.35,11.35,0,0,0,.39-3.6,11.47,11.47,0,0,0-.39-3.6,4.08,4.08,0,0,0-7.6,0,12.15,12.15,0,0,0-.4,3.6,11.89,11.89,0,0,0,.4,3.6,4.07,4.07,0,0,0,7.6,0Z"/><path class="cls-1" d="M89.39,62.48a.34.34,0,0,1-.36-.36V60.5h0a5.25,5.25,0,0,1-4.72,2.37c-3.78,0-6-2.59-6-6.51V45.59a.34.34,0,0,1,.36-.36H81a.34.34,0,0,1,.36.36v10c0,2.81,1.26,4.42,3.82,4.42,2.34,0,3.89-1.65,3.89-4.24V45.59a.34.34,0,0,1,.36-.36h2.3a.34.34,0,0,1,.36.36V62.12a.34.34,0,0,1-.36.36Z"/><path class="cls-1" d="M96.77,58.19a13.43,13.43,0,0,1-.58-4.35,13.43,13.43,0,0,1,.54-4.36,7.25,7.25,0,0,1,13.53,0,15.08,15.08,0,0,1,.54,4.93.35.35,0,0,1-.39.36H99.5a.19.19,0,0,0-.21.22,6.5,6.5,0,0,0,.28,2.09,4.27,4.27,0,0,0,4.36,3,5.64,5.64,0,0,0,4.43-1.9c.18-.18.36-.22.54-.07l1.47,1.33a.32.32,0,0,1,0,.5,8.38,8.38,0,0,1-6.73,2.95C100.19,62.87,97.7,61.18,96.77,58.19Zm10.72-5.83c.15,0,.22-.07.22-.21a6.08,6.08,0,0,0-.25-1.95,4.25,4.25,0,0,0-7.92,0,6.08,6.08,0,0,0-.25,1.95.19.19,0,0,0,.21.21Z"/><path class="cls-1" d="M123.23,62.48a.34.34,0,0,1-.36-.36V45.59a.34.34,0,0,1,.36-.36h2.3a.34.34,0,0,1,.36.36v1.77h0a4.78,4.78,0,0,1,4.57-2.52A5.29,5.29,0,0,1,134,46.13c.18.18.22.33.08.51l-1.34,1.76a.32.32,0,0,1-.5.07,4.89,4.89,0,0,0-2.66-.82c-2.63,0-3.71,2.05-3.71,5v9.43a.34.34,0,0,1-.36.36Z"/><path class="cls-1" d="M135.79,58.19a13.43,13.43,0,0,1-.58-4.35,13.43,13.43,0,0,1,.54-4.36,7.26,7.26,0,0,1,13.54,0,15.08,15.08,0,0,1,.54,4.93.35.35,0,0,1-.4.36h-10.9a.2.2,0,0,0-.22.22,6.47,6.47,0,0,0,.29,2.09,4.25,4.25,0,0,0,4.35,3,5.64,5.64,0,0,0,4.43-1.9c.18-.18.36-.22.54-.07l1.48,1.33a.31.31,0,0,1,0,.5,8.38,8.38,0,0,1-6.73,2.95C139.21,62.87,136.73,61.18,135.79,58.19Zm10.73-5.83a.19.19,0,0,0,.21-.21,6.08,6.08,0,0,0-.25-1.95,4.25,4.25,0,0,0-7.92,0,6.08,6.08,0,0,0-.25,1.95c0,.14.07.21.22.21Z"/><path class="cls-1" d="M154.91,62.48a.34.34,0,0,1-.36-.36V47.9a.2.2,0,0,0-.22-.22h-1.48a.34.34,0,0,1-.36-.36V45.59a.35.35,0,0,1,.36-.36h1.48a.19.19,0,0,0,.22-.21V43.54c0-4.06,1.65-5.54,5.25-5.54h1.33a.34.34,0,0,1,.36.36v2.09a.34.34,0,0,1-.36.36h-.93c-2.2,0-2.63.47-2.63,2.59V45c0,.14.07.21.22.21h3.34a.34.34,0,0,1,.36.36v1.73a.34.34,0,0,1-.36.36h-3.34a.19.19,0,0,0-.22.22V62.12a.34.34,0,0,1-.36.36Z"/><path class="cls-1" d="M175.53,62.48a.35.35,0,0,1-.36-.36V60.5h0a5.26,5.26,0,0,1-4.72,2.37c-3.78,0-6-2.59-6-6.51V45.59a.34.34,0,0,1,.36-.36h2.3a.34.34,0,0,1,.36.36v10c0,2.81,1.26,4.42,3.81,4.42,2.34,0,3.89-1.65,3.89-4.24V45.59a.35.35,0,0,1,.36-.36h2.31a.35.35,0,0,1,.36.36V62.12a.35.35,0,0,1-.36.36Z"/><path class="cls-1" d="M183,66.8a.33.33,0,0,1,0-.51l1.47-1.47a.34.34,0,0,1,.54,0,5.75,5.75,0,0,0,4.07,1.72c2.84,0,4.36-1.47,4.36-4.64v-2h0c-.79,1.44-2.27,2.37-4.79,2.37a5.64,5.64,0,0,1-5.79-4.17,13.32,13.32,0,0,1-.58-4.54,13.32,13.32,0,0,1,.58-4.54,5.64,5.64,0,0,1,5.79-4.17c2.52,0,4,.93,4.79,2.37h0V45.59a.34.34,0,0,1,.36-.36h2.3a.34.34,0,0,1,.36.36V61.72c0,4.9-2.66,7.63-7.52,7.63A7.79,7.79,0,0,1,183,66.8Zm10.08-9.9a10.43,10.43,0,0,0,.4-3.35,10.55,10.55,0,0,0-.4-3.35,3.89,3.89,0,0,0-7.31,0,10.78,10.78,0,0,0-.43,3.35,10.65,10.65,0,0,0,.43,3.35,3.53,3.53,0,0,0,3.64,2.59A3.56,3.56,0,0,0,193.1,56.9Z"/><path class="cls-1" d="M202,41.35a.35.35,0,0,1-.36-.36V38.36A.34.34,0,0,1,202,38h2.45a.34.34,0,0,1,.36.36V41a.34.34,0,0,1-.36.36Zm.07,21.13a.35.35,0,0,1-.36-.36V45.59a.35.35,0,0,1,.36-.36h2.31a.35.35,0,0,1,.36.36V62.12a.35.35,0,0,1-.36.36Z"/><path class="cls-1" d="M209.44,58.23a13.14,13.14,0,0,1-.57-4.39,13.07,13.07,0,0,1,.57-4.36c.94-2.95,3.46-4.64,6.81-4.64s5.86,1.69,6.8,4.64a12.78,12.78,0,0,1,.58,4.36,12.85,12.85,0,0,1-.58,4.39,7.31,7.31,0,0,1-13.61,0Zm10.69-.86a11.27,11.27,0,0,0,.4-3.53,10.91,10.91,0,0,0-.4-3.49,4.15,4.15,0,0,0-7.77,0,10.91,10.91,0,0,0-.4,3.49,11.27,11.27,0,0,0,.4,3.53,4.15,4.15,0,0,0,7.77,0Z"/><path class="cls-1" d="M235.22,58.19a13.43,13.43,0,0,1-.58-4.35,13.43,13.43,0,0,1,.54-4.36,7.26,7.26,0,0,1,13.54,0,15.08,15.08,0,0,1,.54,4.93.35.35,0,0,1-.4.36H238a.2.2,0,0,0-.22.22,6.47,6.47,0,0,0,.29,2.09,4.25,4.25,0,0,0,4.35,3,5.64,5.64,0,0,0,4.43-1.9c.18-.18.36-.22.54-.07l1.48,1.33a.31.31,0,0,1,0,.5,8.38,8.38,0,0,1-6.73,2.95C238.64,62.87,236.16,61.18,235.22,58.19ZM246,52.36a.19.19,0,0,0,.21-.21,6.08,6.08,0,0,0-.25-1.95,4.25,4.25,0,0,0-7.92,0,6.08,6.08,0,0,0-.25,1.95c0,.14.07.21.22.21Z"/><path class="cls-1" d="M261.61,41.35a.34.34,0,0,1-.36-.36V38.36a.34.34,0,0,1,.36-.36h2.44a.34.34,0,0,1,.36.36V41a.34.34,0,0,1-.36.36Zm.07,21.13a.34.34,0,0,1-.36-.36V45.59a.34.34,0,0,1,.36-.36H264a.34.34,0,0,1,.36.36V62.12a.34.34,0,0,1-.36.36Z"/><path class="cls-1" d="M280.72,62.48a.34.34,0,0,1-.36-.36V52c0-2.77-1.26-4.39-3.85-4.39a3.87,3.87,0,0,0-4,4.21V62.12a.34.34,0,0,1-.36.36h-2.3a.34.34,0,0,1-.36-.36V45.59a.34.34,0,0,1,.36-.36h2.3a.34.34,0,0,1,.36.36v1.59h0a5.44,5.44,0,0,1,4.82-2.34c3.74,0,6,2.55,6,6.48v10.8a.34.34,0,0,1-.36.36Z"/><path class="cls-1" d="M293.39,62.66c-3.34,0-4.64-1.51-4.64-4.9V47.9a.19.19,0,0,0-.22-.22h-1.44a.34.34,0,0,1-.36-.36V45.59a.35.35,0,0,1,.36-.36h1.44c.15,0,.22-.07.22-.21V40.16a.34.34,0,0,1,.36-.36h2.3a.34.34,0,0,1,.36.36V45a.19.19,0,0,0,.22.21h2.74a.35.35,0,0,1,.36.36v1.73a.34.34,0,0,1-.36.36H292a.2.2,0,0,0-.22.22v9.75c0,1.73.65,2.2,2.2,2.2h.76a.34.34,0,0,1,.36.36V62.3a.35.35,0,0,1-.36.36Z"/><path class="cls-1" d="M298.58,58.19a13.43,13.43,0,0,1-.58-4.35,13.43,13.43,0,0,1,.54-4.36,7.26,7.26,0,0,1,13.54,0,15.08,15.08,0,0,1,.54,4.93.35.35,0,0,1-.4.36H301.31a.19.19,0,0,0-.21.22,6.47,6.47,0,0,0,.29,2.09,4.25,4.25,0,0,0,4.35,3,5.64,5.64,0,0,0,4.43-1.9c.18-.18.36-.22.54-.07l1.47,1.33a.32.32,0,0,1,0,.5,8.38,8.38,0,0,1-6.73,2.95C302,62.87,299.51,61.18,298.58,58.19Zm10.72-5.83c.15,0,.22-.07.22-.21a6.08,6.08,0,0,0-.25-1.95,4.25,4.25,0,0,0-7.92,0,6.08,6.08,0,0,0-.25,1.95.19.19,0,0,0,.21.21Z"/><path class="cls-1" d="M328,62.48a.35.35,0,0,1-.36-.36V52c0-2.77-1.26-4.39-3.85-4.39a3.87,3.87,0,0,0-4,4.21V62.12a.34.34,0,0,1-.36.36h-2.3a.34.34,0,0,1-.36-.36V45.59a.34.34,0,0,1,.36-.36h2.3a.34.34,0,0,1,.36.36v1.59h0a5.45,5.45,0,0,1,4.82-2.34c3.74,0,6,2.55,6,6.48v10.8a.35.35,0,0,1-.36.36Z"/><path class="cls-1" d="M340.63,62.66c-3.35,0-4.65-1.51-4.65-4.9V47.9c0-.15-.07-.22-.21-.22h-1.44a.34.34,0,0,1-.36-.36V45.59a.34.34,0,0,1,.36-.36h1.44A.19.19,0,0,0,336,45V40.16a.34.34,0,0,1,.36-.36h2.31a.33.33,0,0,1,.35.36V45a.19.19,0,0,0,.22.21H342a.35.35,0,0,1,.36.36v1.73a.34.34,0,0,1-.36.36h-2.74a.2.2,0,0,0-.22.22v9.75c0,1.73.65,2.2,2.2,2.2H342a.34.34,0,0,1,.36.36V62.3a.35.35,0,0,1-.36.36Z"/><path class="cls-1" d="M345.81,58.19a13.43,13.43,0,0,1-.58-4.35,13.43,13.43,0,0,1,.54-4.36,7.26,7.26,0,0,1,13.54,0,15.08,15.08,0,0,1,.54,4.93.35.35,0,0,1-.4.36H348.54a.19.19,0,0,0-.21.22,6.47,6.47,0,0,0,.29,2.09,4.25,4.25,0,0,0,4.35,3,5.64,5.64,0,0,0,4.43-1.9c.18-.18.36-.22.54-.07l1.48,1.33a.31.31,0,0,1,0,.5,8.38,8.38,0,0,1-6.73,2.95C349.23,62.87,346.75,61.18,345.81,58.19Zm10.73-5.83a.19.19,0,0,0,.21-.21,6.08,6.08,0,0,0-.25-1.95,4.25,4.25,0,0,0-7.92,0,6.08,6.08,0,0,0-.25,1.95.19.19,0,0,0,.21.21Z"/><path class="cls-1" d="M372.27,69a.34.34,0,0,1-.36-.36v-23a.34.34,0,0,1,.36-.36h2.3a.34.34,0,0,1,.36.36v1.62h0c.83-1.36,2.3-2.37,4.89-2.37,3,0,5.08,1.4,5.94,4.14a14.2,14.2,0,0,1,.61,4.86,14.25,14.25,0,0,1-.61,4.89c-.86,2.74-2.95,4.14-5.94,4.14-2.59,0-4.06-1-4.89-2.41h0V68.6a.34.34,0,0,1-.36.36Zm10.65-11.52a11.89,11.89,0,0,0,.4-3.6,12.15,12.15,0,0,0-.4-3.6,4.08,4.08,0,0,0-7.59,0,11.12,11.12,0,0,0-.4,3.6,11,11,0,0,0,.4,3.6,4.06,4.06,0,0,0,7.59,0Z"/><path class="cls-1" d="M390.92,62.48a.34.34,0,0,1-.36-.36V45.59a.34.34,0,0,1,.36-.36h2.3a.34.34,0,0,1,.36.36v1.77h0a4.78,4.78,0,0,1,4.57-2.52,5.27,5.27,0,0,1,3.52,1.29c.19.18.22.33.08.51l-1.33,1.76a.33.33,0,0,1-.51.07,4.86,4.86,0,0,0-2.66-.82c-2.63,0-3.71,2.05-3.71,5v9.43a.34.34,0,0,1-.36.36Z"/><path class="cls-1" d="M403.48,58.23a12.85,12.85,0,0,1-.58-4.39,12.78,12.78,0,0,1,.58-4.36c.94-2.95,3.46-4.64,6.8-4.64s5.87,1.69,6.81,4.64a13.07,13.07,0,0,1,.57,4.36,13.14,13.14,0,0,1-.57,4.39,7.31,7.31,0,0,1-13.61,0Zm10.69-.86a11.27,11.27,0,0,0,.4-3.53,10.91,10.91,0,0,0-.4-3.49,4.15,4.15,0,0,0-7.77,0,10.91,10.91,0,0,0-.4,3.49,11.27,11.27,0,0,0,.4,3.53,4.15,4.15,0,0,0,7.77,0Z"/><path class="cls-1" d="M426.81,62.66c-3.35,0-4.65-1.51-4.65-4.9V47.9c0-.15-.07-.22-.21-.22h-1.44a.34.34,0,0,1-.36-.36V45.59a.34.34,0,0,1,.36-.36H422a.19.19,0,0,0,.21-.21V40.16a.34.34,0,0,1,.36-.36h2.31a.34.34,0,0,1,.36.36V45a.19.19,0,0,0,.21.21h2.74a.35.35,0,0,1,.36.36v1.73a.34.34,0,0,1-.36.36H425.4c-.14,0-.21.07-.21.22v9.75c0,1.73.65,2.2,2.19,2.2h.76a.34.34,0,0,1,.36.36V62.3a.35.35,0,0,1-.36.36Z"/><path class="cls-1" d="M432,58.19a13.48,13.48,0,0,1-.57-4.35,13.43,13.43,0,0,1,.54-4.36,7.25,7.25,0,0,1,13.53,0,15.08,15.08,0,0,1,.54,4.93c0,.22-.14.36-.4.36h-10.9a.2.2,0,0,0-.22.22,6.47,6.47,0,0,0,.29,2.09,4.25,4.25,0,0,0,4.35,3,5.61,5.61,0,0,0,4.43-1.9c.18-.18.36-.22.54-.07l1.48,1.33a.31.31,0,0,1,0,.5,8.35,8.35,0,0,1-6.73,2.95C435.41,62.87,432.93,61.18,432,58.19Zm10.73-5.83a.19.19,0,0,0,.21-.21,6.08,6.08,0,0,0-.25-1.95,4.25,4.25,0,0,0-7.92,0,6.08,6.08,0,0,0-.25,1.95c0,.14.07.21.22.21Z"/><path class="cls-1" d="M449.81,66.8a.33.33,0,0,1,0-.51l1.47-1.47a.34.34,0,0,1,.54,0,5.75,5.75,0,0,0,4.07,1.72c2.84,0,4.36-1.47,4.36-4.64v-2h0c-.79,1.44-2.27,2.37-4.79,2.37a5.64,5.64,0,0,1-5.79-4.17,13.32,13.32,0,0,1-.58-4.54,13.32,13.32,0,0,1,.58-4.54,5.64,5.64,0,0,1,5.79-4.17c2.52,0,4,.93,4.79,2.37h0V45.59a.34.34,0,0,1,.36-.36H463a.34.34,0,0,1,.36.36V61.72c0,4.9-2.66,7.63-7.52,7.63A7.79,7.79,0,0,1,449.81,66.8Zm10.08-9.9a10.43,10.43,0,0,0,.4-3.35,10.55,10.55,0,0,0-.4-3.35,3.89,3.89,0,0,0-7.31,0,10.78,10.78,0,0,0-.43,3.35,10.65,10.65,0,0,0,.43,3.35,3.53,3.53,0,0,0,3.64,2.59A3.56,3.56,0,0,0,459.89,56.9Z"/><path class="cls-1" d="M468,58.19a13.43,13.43,0,0,1-.58-4.35,13.43,13.43,0,0,1,.54-4.36,7.26,7.26,0,0,1,13.54,0,15.08,15.08,0,0,1,.54,4.93.35.35,0,0,1-.4.36H470.76a.19.19,0,0,0-.21.22,6.5,6.5,0,0,0,.28,2.09,4.27,4.27,0,0,0,4.36,3,5.64,5.64,0,0,0,4.43-1.9c.18-.18.36-.22.54-.07l1.47,1.33a.32.32,0,0,1,0,.5,8.38,8.38,0,0,1-6.73,2.95C471.45,62.87,469,61.18,468,58.19Zm10.72-5.83c.15,0,.22-.07.22-.21a6.08,6.08,0,0,0-.25-1.95,4.25,4.25,0,0,0-7.92,0,6.08,6.08,0,0,0-.25,1.95.19.19,0,0,0,.21.21Z"/><path class="cls-1" d="M486.57,62.48a.34.34,0,0,1-.36-.36V45.59a.34.34,0,0,1,.36-.36h2.3a.34.34,0,0,1,.36.36v1.77h0a4.78,4.78,0,0,1,4.57-2.52,5.32,5.32,0,0,1,3.53,1.29c.18.18.21.33.07.51l-1.33,1.76a.33.33,0,0,1-.51.07,4.86,4.86,0,0,0-2.66-.82c-2.63,0-3.71,2.05-3.71,5v9.43a.34.34,0,0,1-.36.36Z"/><path class="cls-1" d="M498.77,60.28a.35.35,0,0,1,0-.5l1.48-1.59a.35.35,0,0,1,.5,0,8.37,8.37,0,0,0,5.33,2c2.52,0,3.78-1.08,3.78-2.62,0-1.37-.65-2.13-3.35-2.42L504.67,55c-3.38-.36-5.14-2.05-5.14-4.86,0-3.27,2.34-5.25,6.4-5.25a10.32,10.32,0,0,1,6.12,1.91.35.35,0,0,1,.08.5L510.9,48.8a.35.35,0,0,1-.5.07,9.09,9.09,0,0,0-4.65-1.4c-2.16,0-3.27,1-3.27,2.37s.83,2.09,3.38,2.34l1.8.18c3.49.33,5.18,2.09,5.18,4.86,0,3.38-2.44,5.65-6.94,5.65A10.73,10.73,0,0,1,498.77,60.28Z"/><path class="cls-1" d="M516.41,58.19a13.43,13.43,0,0,1-.58-4.35,13.43,13.43,0,0,1,.54-4.36,7.26,7.26,0,0,1,13.54,0,15.08,15.08,0,0,1,.54,4.93.35.35,0,0,1-.4.36h-10.9a.2.2,0,0,0-.22.22,6.47,6.47,0,0,0,.29,2.09,4.25,4.25,0,0,0,4.35,3,5.63,5.63,0,0,0,4.43-1.9c.18-.18.36-.22.54-.07L530,59.42a.31.31,0,0,1,0,.5,8.38,8.38,0,0,1-6.73,2.95C519.83,62.87,517.35,61.18,516.41,58.19Zm10.73-5.83a.19.19,0,0,0,.21-.21,6.08,6.08,0,0,0-.25-1.95,4.25,4.25,0,0,0-7.92,0,6.08,6.08,0,0,0-.25,1.95c0,.14.07.21.22.21Z"/><path class="cls-1" d="M542,49.48a6.68,6.68,0,0,1,6.8-4.64,6.92,6.92,0,0,1,5.9,2.91c.11.18.11.33-.11.51L553,49.55a.31.31,0,0,1-.5,0,4.24,4.24,0,0,0-3.71-1.87,3.74,3.74,0,0,0-3.85,2.7,11.4,11.4,0,0,0-.4,3.49,11.52,11.52,0,0,0,.4,3.53,3.73,3.73,0,0,0,3.85,2.69,4.24,4.24,0,0,0,3.71-1.87.31.31,0,0,1,.5,0l1.58,1.29c.22.18.22.33.11.51a6.9,6.9,0,0,1-5.9,2.91c-3.31,0-5.83-1.65-6.8-4.64a14.68,14.68,0,0,1-.54-4.39A14.65,14.65,0,0,1,542,49.48Z"/><path class="cls-1" d="M557.88,58.23a13.14,13.14,0,0,1-.57-4.39,13.07,13.07,0,0,1,.57-4.36c.94-2.95,3.46-4.64,6.8-4.64s5.87,1.69,6.81,4.64a13.07,13.07,0,0,1,.57,4.36,13.14,13.14,0,0,1-.57,4.39,7.31,7.31,0,0,1-13.61,0Zm10.69-.86a11.27,11.27,0,0,0,.4-3.53,10.91,10.91,0,0,0-.4-3.49,4.15,4.15,0,0,0-7.77,0,10.91,10.91,0,0,0-.4,3.49,11.27,11.27,0,0,0,.4,3.53,4.15,4.15,0,0,0,7.77,0Z"/><path class="cls-1" d="M587.4,62.48a.34.34,0,0,1-.36-.36V52c0-2.77-1.26-4.39-3.85-4.39a3.87,3.87,0,0,0-4,4.21V62.12a.35.35,0,0,1-.36.36h-2.31a.34.34,0,0,1-.35-.36V45.59a.34.34,0,0,1,.35-.36h2.31a.35.35,0,0,1,.36.36v1.59h0a5.47,5.47,0,0,1,4.83-2.34c3.74,0,6,2.55,6,6.48v10.8a.34.34,0,0,1-.36.36Z"/><path class="cls-1" d="M.58,96.23A12.85,12.85,0,0,1,0,91.84a12.78,12.78,0,0,1,.58-4.36c.93-3,3.45-4.64,6.8-4.64s5.87,1.69,6.8,4.64a12.78,12.78,0,0,1,.58,4.36,12.85,12.85,0,0,1-.58,4.39c-.93,2.92-3.45,4.64-6.8,4.64S1.51,99.15.58,96.23Zm10.69-.86a11.63,11.63,0,0,0,.39-3.53,11.26,11.26,0,0,0-.39-3.49,3.84,3.84,0,0,0-3.89-2.7,3.84,3.84,0,0,0-3.89,2.7,11,11,0,0,0-.39,3.49,11.32,11.32,0,0,0,.39,3.53,3.84,3.84,0,0,0,3.89,2.69A3.84,3.84,0,0,0,11.27,95.37Z"/><path class="cls-1" d="M19.26,100.48a.34.34,0,0,1-.36-.36V76.36a.34.34,0,0,1,.36-.36h2.3a.34.34,0,0,1,.36.36v8.85h0c.83-1.36,2.3-2.37,4.89-2.37,3,0,5.08,1.4,5.94,4.14a14.17,14.17,0,0,1,.62,4.86,14.22,14.22,0,0,1-.62,4.89c-.86,2.74-2.95,4.14-5.94,4.14-2.59,0-4.06-1-4.89-2.41h0v1.66a.34.34,0,0,1-.36.36Zm10.65-5a11.89,11.89,0,0,0,.4-3.6,12.15,12.15,0,0,0-.4-3.6,3.65,3.65,0,0,0-3.78-2.59,3.66,3.66,0,0,0-3.81,2.59,11.12,11.12,0,0,0-.4,3.6,11,11,0,0,0,.4,3.6,3.69,3.69,0,0,0,3.81,2.62A3.68,3.68,0,0,0,29.91,95.44Z"/><path class="cls-1" d="M34.7,107a.35.35,0,0,1-.36-.36v-2.09a.34.34,0,0,1,.36-.36h.58c1.69,0,2.27-.47,2.27-2.31V83.59a.34.34,0,0,1,.36-.36h2.3a.34.34,0,0,1,.36.36v18.18c0,3.71-1.65,5.19-5.15,5.19Zm3.14-27.61a.34.34,0,0,1-.36-.36V76.36a.34.34,0,0,1,.36-.36h2.44a.34.34,0,0,1,.36.36V79a.34.34,0,0,1-.36.36Z"/><path class="cls-1" d="M45.29,96.19a13.43,13.43,0,0,1-.58-4.35,13.43,13.43,0,0,1,.54-4.36A6.67,6.67,0,0,1,52,82.84a6.69,6.69,0,0,1,6.77,4.64,15.08,15.08,0,0,1,.54,4.93.35.35,0,0,1-.4.36H48a.19.19,0,0,0-.21.22,6.5,6.5,0,0,0,.28,2.09,4.27,4.27,0,0,0,4.36,3,5.64,5.64,0,0,0,4.43-1.9c.18-.18.36-.22.54-.07l1.47,1.33a.32.32,0,0,1,0,.5,8.38,8.38,0,0,1-6.73,3C48.71,100.87,46.22,99.18,45.29,96.19ZM56,90.36c.15,0,.22-.07.22-.21a6.08,6.08,0,0,0-.25-2,4.25,4.25,0,0,0-7.92,0,6.08,6.08,0,0,0-.25,2,.19.19,0,0,0,.21.21Z"/><path class="cls-1" d="M68.47,100.66c-3.35,0-4.64-1.51-4.64-4.9V85.9a.2.2,0,0,0-.22-.22H62.17a.34.34,0,0,1-.36-.36V83.59a.35.35,0,0,1,.36-.36h1.44a.19.19,0,0,0,.22-.21V78.16a.34.34,0,0,1,.36-.36h2.3a.34.34,0,0,1,.36.36V83c0,.14.07.21.22.21H69.8a.34.34,0,0,1,.36.36v1.73a.34.34,0,0,1-.36.36H67.07a.19.19,0,0,0-.22.22v9.75c0,1.73.65,2.2,2.2,2.2h.75a.34.34,0,0,1,.36.36v2.09a.34.34,0,0,1-.36.36Z"/><path class="cls-1" d="M73.65,96.23a13.14,13.14,0,0,1-.57-4.39,13.07,13.07,0,0,1,.57-4.36c.94-3,3.46-4.64,6.81-4.64s5.86,1.69,6.8,4.64a12.78,12.78,0,0,1,.58,4.36,12.85,12.85,0,0,1-.58,4.39,6.69,6.69,0,0,1-6.8,4.64A6.71,6.71,0,0,1,73.65,96.23Zm10.7-.86a11.63,11.63,0,0,0,.39-3.53,11.26,11.26,0,0,0-.39-3.49,4.15,4.15,0,0,0-7.78,0,10.91,10.91,0,0,0-.4,3.49,11.27,11.27,0,0,0,.4,3.53,4.16,4.16,0,0,0,7.78,0Z"/><path class="cls-1" d="M90.79,98.28a.35.35,0,0,1,0-.5l1.48-1.59a.35.35,0,0,1,.5,0,8.37,8.37,0,0,0,5.33,2c2.52,0,3.78-1.08,3.78-2.62,0-1.37-.65-2.13-3.35-2.42L96.69,93c-3.38-.36-5.14-2-5.14-4.86,0-3.27,2.34-5.25,6.4-5.25a10.32,10.32,0,0,1,6.12,1.91.34.34,0,0,1,.07.5l-1.22,1.55a.35.35,0,0,1-.5.07,9.09,9.09,0,0,0-4.65-1.4c-2.16,0-3.27,1-3.27,2.37s.83,2.09,3.38,2.34l1.8.18c3.49.33,5.18,2.09,5.18,4.86,0,3.38-2.44,5.65-6.94,5.65A10.73,10.73,0,0,1,90.79,98.28Z"/><path class="cls-1" d="M116.35,96.23a12.85,12.85,0,0,1-.58-4.39,12.78,12.78,0,0,1,.58-4.36c.94-3,3.46-4.64,6.8-4.64S129,84.53,130,87.48a13.07,13.07,0,0,1,.57,4.36,13.14,13.14,0,0,1-.57,4.39,7.31,7.31,0,0,1-13.61,0ZM127,95.37a11.27,11.27,0,0,0,.4-3.53,10.91,10.91,0,0,0-.4-3.49,4.15,4.15,0,0,0-7.77,0,10.91,10.91,0,0,0-.4,3.49,11.27,11.27,0,0,0,.4,3.53,4.15,4.15,0,0,0,7.77,0Z"/><path class="cls-1" d="M142.13,96.19a13.43,13.43,0,0,1-.58-4.35,13.43,13.43,0,0,1,.54-4.36,7.25,7.25,0,0,1,13.53,0,15.08,15.08,0,0,1,.54,4.93.35.35,0,0,1-.39.36H144.86a.2.2,0,0,0-.22.22,6.47,6.47,0,0,0,.29,2.09,4.26,4.26,0,0,0,4.36,3,5.64,5.64,0,0,0,4.43-1.9c.18-.18.36-.22.54-.07l1.47,1.33a.32.32,0,0,1,0,.5,8.38,8.38,0,0,1-6.73,3C145.54,100.87,143.06,99.18,142.13,96.19Zm10.72-5.83c.15,0,.22-.07.22-.21a6.08,6.08,0,0,0-.25-2,4.25,4.25,0,0,0-7.92,0,6.05,6.05,0,0,0-.26,2,.19.19,0,0,0,.22.21Z"/><path class="cls-1" d="M164.44,100.66c-3,0-4.21-1.44-4.21-4.54V76.36a.34.34,0,0,1,.36-.36h2.31a.34.34,0,0,1,.36.36V95.94c0,1.44.54,1.91,1.72,1.91h.69a.34.34,0,0,1,.36.36v2.09a.35.35,0,0,1-.36.36Z"/><path class="cls-1" d="M169.09,96.19a13.43,13.43,0,0,1-.58-4.35,13.43,13.43,0,0,1,.54-4.36,7.26,7.26,0,0,1,13.54,0,15.08,15.08,0,0,1,.54,4.93.35.35,0,0,1-.4.36H171.82a.19.19,0,0,0-.21.22,6.47,6.47,0,0,0,.29,2.09,4.25,4.25,0,0,0,4.35,3,5.64,5.64,0,0,0,4.43-1.9c.18-.18.36-.22.54-.07l1.47,1.33a.31.31,0,0,1,0,.5,8.38,8.38,0,0,1-6.73,3C172.51,100.87,170,99.18,169.09,96.19Zm10.73-5.83a.19.19,0,0,0,.21-.21,6.08,6.08,0,0,0-.25-2,4.25,4.25,0,0,0-7.92,0,6.08,6.08,0,0,0-.25,2,.19.19,0,0,0,.21.21Z"/><path class="cls-1" d="M209.3,100.48a.34.34,0,0,1-.36-.36V90c0-2.77-1.26-4.39-3.85-4.39a3.88,3.88,0,0,0-4,4.21v10.26a.35.35,0,0,1-.36.36h-2.31a.35.35,0,0,1-.36-.36V90c0-2.77-1.26-4.39-3.85-4.39a3.87,3.87,0,0,0-4,4.21v10.26a.34.34,0,0,1-.36.36h-2.3a.34.34,0,0,1-.36-.36V83.59a.34.34,0,0,1,.36-.36h2.3a.34.34,0,0,1,.36.36v1.59h0a6.09,6.09,0,0,1,9.86.36h0a6.4,6.4,0,0,1,5.58-2.7c4,0,6.15,2.55,6.15,6.48v10.8a.34.34,0,0,1-.36.36Z"/><path class="cls-1" d="M216.5,96.19a13.43,13.43,0,0,1-.58-4.35,13.43,13.43,0,0,1,.54-4.36,7.26,7.26,0,0,1,13.54,0,15.08,15.08,0,0,1,.54,4.93.35.35,0,0,1-.4.36H219.23A.19.19,0,0,0,219,93a6.47,6.47,0,0,0,.29,2.09,4.25,4.25,0,0,0,4.35,3,5.64,5.64,0,0,0,4.43-1.9c.18-.18.36-.22.54-.07l1.48,1.33a.31.31,0,0,1,0,.5,8.38,8.38,0,0,1-6.73,3C219.92,100.87,217.44,99.18,216.5,96.19Zm10.73-5.83a.19.19,0,0,0,.21-.21,6.08,6.08,0,0,0-.25-2,4.25,4.25,0,0,0-7.92,0,6.08,6.08,0,0,0-.25,2,.19.19,0,0,0,.21.21Z"/><path class="cls-1" d="M245.87,100.48a.35.35,0,0,1-.36-.36V90c0-2.77-1.26-4.39-3.85-4.39a3.87,3.87,0,0,0-4,4.21v10.26a.34.34,0,0,1-.36.36H235a.34.34,0,0,1-.36-.36V83.59a.34.34,0,0,1,.36-.36h2.3a.34.34,0,0,1,.36.36v1.59h0a5.45,5.45,0,0,1,4.82-2.34c3.75,0,6,2.55,6,6.48v10.8a.35.35,0,0,1-.36.36Z"/><path class="cls-1" d="M258.55,100.66c-3.35,0-4.65-1.51-4.65-4.9V85.9c0-.15-.07-.22-.21-.22h-1.44a.34.34,0,0,1-.36-.36V83.59a.34.34,0,0,1,.36-.36h1.44a.19.19,0,0,0,.21-.21V78.16a.34.34,0,0,1,.36-.36h2.31a.34.34,0,0,1,.36.36V83a.19.19,0,0,0,.21.21h2.74a.35.35,0,0,1,.36.36v1.73a.34.34,0,0,1-.36.36h-2.74c-.14,0-.21.07-.21.22v9.75c0,1.73.64,2.2,2.19,2.2h.76a.34.34,0,0,1,.36.36v2.09a.35.35,0,0,1-.36.36Z"/><path class="cls-1" d="M263.73,96.23a12.85,12.85,0,0,1-.58-4.39,12.78,12.78,0,0,1,.58-4.36c.94-3,3.46-4.64,6.8-4.64s5.87,1.69,6.81,4.64a13.07,13.07,0,0,1,.57,4.36,13.14,13.14,0,0,1-.57,4.39,7.31,7.31,0,0,1-13.61,0Zm10.69-.86a11.27,11.27,0,0,0,.4-3.53,10.91,10.91,0,0,0-.4-3.49,4.15,4.15,0,0,0-7.77,0,10.91,10.91,0,0,0-.4,3.49,11.27,11.27,0,0,0,.4,3.53,4.15,4.15,0,0,0,7.77,0Z"/><path class="cls-1" d="M280.87,98.28a.33.33,0,0,1,0-.5l1.47-1.59a.36.36,0,0,1,.51,0,8.34,8.34,0,0,0,5.32,2c2.52,0,3.78-1.08,3.78-2.62,0-1.37-.64-2.13-3.34-2.42L286.77,93c-3.38-.36-5.15-2-5.15-4.86,0-3.27,2.34-5.25,6.41-5.25a10.32,10.32,0,0,1,6.12,1.91.34.34,0,0,1,.07.5L293,86.8a.36.36,0,0,1-.51.07,9.06,9.06,0,0,0-4.64-1.4c-2.16,0-3.28,1-3.28,2.37s.83,2.09,3.39,2.34l1.8.18c3.49.33,5.18,2.09,5.18,4.86,0,3.38-2.45,5.65-6.95,5.65A10.72,10.72,0,0,1,280.87,98.28Z"/><path class="cls-1" d="M307.25,107a.35.35,0,0,1-.36-.36v-23a.35.35,0,0,1,.36-.36h2.31a.35.35,0,0,1,.36.36v1.62h0c.83-1.36,2.31-2.37,4.9-2.37,3,0,5.07,1.4,5.94,4.14a14.2,14.2,0,0,1,.61,4.86,14.25,14.25,0,0,1-.61,4.89c-.87,2.74-3,4.14-5.94,4.14-2.59,0-4.07-1-4.9-2.41h0v8.14a.35.35,0,0,1-.36.36Zm10.66-11.52a11.94,11.94,0,0,0,.39-3.6,12.2,12.2,0,0,0-.39-3.6,4.08,4.08,0,0,0-7.6,0,11.47,11.47,0,0,0-.39,3.6,11.35,11.35,0,0,0,.39,3.6,4.07,4.07,0,0,0,7.6,0Z"/><path class="cls-1" d="M336,100.48a.34.34,0,0,1-.36-.36V98.6h0c-.79,1.3-2.48,2.27-5.11,2.27-3.27,0-5.79-1.69-5.79-5.18s2.52-5.33,6.73-5.33h3.92c.15,0,.22-.07.22-.21V88.89c0-2.38-.94-3.39-4.14-3.39a6.71,6.71,0,0,0-4.18,1.23.32.32,0,0,1-.5,0l-1-1.66a.38.38,0,0,1,.07-.5,9.56,9.56,0,0,1,5.87-1.69c4.89,0,6.76,1.62,6.76,5.87v11.41a.34.34,0,0,1-.36.36Zm-.43-5.58V93a.2.2,0,0,0-.22-.22h-3.45c-3,0-4.29.87-4.29,2.81,0,1.77,1.3,2.7,3.6,2.7C333.89,98.28,335.55,97,335.55,94.9Z"/><path class="cls-1" d="M343.86,100.48a.35.35,0,0,1-.36-.36V83.59a.35.35,0,0,1,.36-.36h2.31a.35.35,0,0,1,.36.36v1.77h0a4.81,4.81,0,0,1,4.58-2.52,5.29,5.29,0,0,1,3.52,1.29c.18.18.22.33.08.51L353.4,86.4a.32.32,0,0,1-.5.07,4.89,4.89,0,0,0-2.66-.82c-2.63,0-3.71,2-3.71,5v9.43a.35.35,0,0,1-.36.36Z"/><path class="cls-1" d="M367.12,100.48a.34.34,0,0,1-.36-.36V98.6h0c-.79,1.3-2.48,2.27-5.11,2.27-3.27,0-5.79-1.69-5.79-5.18s2.52-5.33,6.73-5.33h3.92c.15,0,.22-.07.22-.21V88.89c0-2.38-.94-3.39-4.14-3.39a6.71,6.71,0,0,0-4.18,1.23.32.32,0,0,1-.5,0l-1-1.66a.38.38,0,0,1,.07-.5,9.54,9.54,0,0,1,5.87-1.69c4.89,0,6.76,1.62,6.76,5.87v11.41a.34.34,0,0,1-.36.36Zm-.43-5.58V93a.2.2,0,0,0-.22-.22H363c-3,0-4.29.87-4.29,2.81,0,1.77,1.3,2.7,3.6,2.7C365,98.28,366.69,97,366.69,94.9Z"/><path class="cls-1" d="M382.1,96.19a13.43,13.43,0,0,1-.58-4.35,13.43,13.43,0,0,1,.54-4.36,7.25,7.25,0,0,1,13.53,0,14.8,14.8,0,0,1,.54,4.93.35.35,0,0,1-.39.36H384.83a.19.19,0,0,0-.21.22,6.5,6.5,0,0,0,.28,2.09,4.27,4.27,0,0,0,4.36,3,5.64,5.64,0,0,0,4.43-1.9c.18-.18.36-.22.54-.07l1.47,1.33a.32.32,0,0,1,0,.5,8.38,8.38,0,0,1-6.73,3C385.52,100.87,383,99.18,382.1,96.19Zm10.72-5.83c.15,0,.22-.07.22-.21a6.08,6.08,0,0,0-.25-2,4.25,4.25,0,0,0-7.92,0,6.08,6.08,0,0,0-.25,2,.19.19,0,0,0,.21.21Z"/><path class="cls-1" d="M404.88,100.48c-.25,0-.36-.15-.43-.36l-6.19-16.53c-.07-.21,0-.36.29-.36H401c.25,0,.36.11.47.36L406,96H406l4.35-12.39a.42.42,0,0,1,.43-.36h2.45c.25,0,.36.15.29.36l-6.16,16.53a.46.46,0,0,1-.46.36Z"/><path class="cls-1" d="M417,79.35a.34.34,0,0,1-.36-.36V76.36A.34.34,0,0,1,417,76h2.44a.34.34,0,0,1,.36.36V79a.34.34,0,0,1-.36.36Zm.07,21.13a.34.34,0,0,1-.36-.36V83.59a.34.34,0,0,1,.36-.36h2.3a.34.34,0,0,1,.36.36v16.53a.34.34,0,0,1-.36.36Z"/><path class="cls-1" d="M429.94,100.66c-3.35,0-4.64-1.51-4.64-4.9V85.9a.2.2,0,0,0-.22-.22h-1.44a.34.34,0,0,1-.36-.36V83.59a.34.34,0,0,1,.36-.36h1.44a.19.19,0,0,0,.22-.21V78.16a.34.34,0,0,1,.36-.36H428a.34.34,0,0,1,.36.36V83c0,.14.07.21.22.21h2.73a.34.34,0,0,1,.36.36v1.73a.34.34,0,0,1-.36.36h-2.73a.19.19,0,0,0-.22.22v9.75c0,1.73.65,2.2,2.2,2.2h.75a.34.34,0,0,1,.36.36v2.09a.34.34,0,0,1-.36.36Z"/><path class="cls-1" d="M446,100.48a.34.34,0,0,1-.36-.36V98.6h0c-.79,1.3-2.48,2.27-5.11,2.27-3.27,0-5.79-1.69-5.79-5.18s2.52-5.33,6.73-5.33h3.92c.15,0,.22-.07.22-.21V88.89c0-2.38-.94-3.39-4.14-3.39a6.73,6.73,0,0,0-4.18,1.23.32.32,0,0,1-.5,0l-1-1.66a.38.38,0,0,1,.07-.5,9.56,9.56,0,0,1,5.87-1.69c4.89,0,6.76,1.62,6.76,5.87v11.41a.34.34,0,0,1-.36.36Zm-.43-5.58V93a.2.2,0,0,0-.22-.22h-3.45c-3,0-4.29.87-4.29,2.81,0,1.77,1.3,2.7,3.6,2.7C443.94,98.28,445.6,97,445.6,94.9Z"/><path class="cls-1" d="M453.92,100.48a.34.34,0,0,1-.36-.36V83.59a.34.34,0,0,1,.36-.36h2.3a.35.35,0,0,1,.36.36v1.77h0a4.81,4.81,0,0,1,4.58-2.52,5.29,5.29,0,0,1,3.52,1.29c.18.18.22.33.08.51l-1.34,1.76a.32.32,0,0,1-.5.07,4.89,4.89,0,0,0-2.66-.82c-2.63,0-3.71,2-3.71,5v9.43a.35.35,0,0,1-.36.36Z"/><path class="cls-1" d="M475.87,107a.35.35,0,0,1-.36-.36v-23a.35.35,0,0,1,.36-.36h2.31a.35.35,0,0,1,.36.36v1.62h0c.83-1.36,2.31-2.37,4.9-2.37,3,0,5.07,1.4,5.94,4.14a14.2,14.2,0,0,1,.61,4.86,14.25,14.25,0,0,1-.61,4.89c-.87,2.74-3,4.14-5.94,4.14-2.59,0-4.07-1-4.9-2.41h0v8.14a.35.35,0,0,1-.36.36Zm10.66-11.52a11.94,11.94,0,0,0,.39-3.6,12.2,12.2,0,0,0-.39-3.6,4.08,4.08,0,0,0-7.6,0,11.47,11.47,0,0,0-.39,3.6,11.35,11.35,0,0,0,.39,3.6,4.07,4.07,0,0,0,7.6,0Z"/><path class="cls-1" d="M493.69,96.23a13.14,13.14,0,0,1-.57-4.39,13.07,13.07,0,0,1,.57-4.36c.94-3,3.46-4.64,6.81-4.64s5.86,1.69,6.8,4.64a12.78,12.78,0,0,1,.58,4.36,12.85,12.85,0,0,1-.58,4.39,7.31,7.31,0,0,1-13.61,0Zm10.69-.86a11.27,11.27,0,0,0,.4-3.53,10.91,10.91,0,0,0-.4-3.49,4.15,4.15,0,0,0-7.77,0,10.91,10.91,0,0,0-.4,3.49,11.27,11.27,0,0,0,.4,3.53,4.15,4.15,0,0,0,7.77,0Z"/><path class="cls-1" d="M510.83,98.28a.35.35,0,0,1,0-.5l1.48-1.59a.35.35,0,0,1,.5,0,8.37,8.37,0,0,0,5.33,2c2.52,0,3.78-1.08,3.78-2.62,0-1.37-.65-2.13-3.35-2.42L516.73,93c-3.38-.36-5.14-2-5.14-4.86,0-3.27,2.34-5.25,6.4-5.25a10.32,10.32,0,0,1,6.12,1.91.34.34,0,0,1,.07.5L523,86.8a.35.35,0,0,1-.5.07,9.09,9.09,0,0,0-4.65-1.4c-2.16,0-3.27,1-3.27,2.37s.83,2.09,3.38,2.34l1.8.18c3.49.33,5.18,2.09,5.18,4.86,0,3.38-2.44,5.65-6.94,5.65A10.73,10.73,0,0,1,510.83,98.28Z"/><path class="cls-1" d="M529.23,79.35a.34.34,0,0,1-.36-.36V76.36a.34.34,0,0,1,.36-.36h2.44a.34.34,0,0,1,.36.36V79a.34.34,0,0,1-.36.36Zm.07,21.13a.34.34,0,0,1-.36-.36V83.59a.34.34,0,0,1,.36-.36h2.3a.34.34,0,0,1,.36.36v16.53a.34.34,0,0,1-.36.36Z"/><path class="cls-1" d="M537.5,100.48a.34.34,0,0,1-.35-.36V76.36a.33.33,0,0,1,.35-.36h2.31a.34.34,0,0,1,.36.36v8.85h0c.83-1.36,2.31-2.37,4.9-2.37,3,0,5.08,1.4,5.94,4.14a14.2,14.2,0,0,1,.61,4.86,14.25,14.25,0,0,1-.61,4.89c-.86,2.74-2.95,4.14-5.94,4.14-2.59,0-4.07-1-4.9-2.41h0v1.66a.35.35,0,0,1-.36.36Zm10.66-5a11.89,11.89,0,0,0,.4-3.6,12.15,12.15,0,0,0-.4-3.6,4.08,4.08,0,0,0-7.6,0,11.47,11.47,0,0,0-.39,3.6,11.35,11.35,0,0,0,.39,3.6,4.07,4.07,0,0,0,7.6,0Z"/><path class="cls-1" d="M559.93,100.66c-3,0-4.21-1.44-4.21-4.54V76.36a.34.34,0,0,1,.36-.36h2.3a.34.34,0,0,1,.36.36V95.94c0,1.44.54,1.91,1.73,1.91h.69a.34.34,0,0,1,.36.36v2.09a.35.35,0,0,1-.36.36Z"/><path class="cls-1" d="M564.58,96.19a13.43,13.43,0,0,1-.58-4.35,13.43,13.43,0,0,1,.54-4.36,7.25,7.25,0,0,1,13.53,0,14.8,14.8,0,0,1,.54,4.93.35.35,0,0,1-.39.36H567.31a.19.19,0,0,0-.21.22,6.5,6.5,0,0,0,.28,2.09,4.27,4.27,0,0,0,4.36,3,5.64,5.64,0,0,0,4.43-1.9c.18-.18.36-.22.54-.07l1.47,1.33a.32.32,0,0,1,0,.5,8.38,8.38,0,0,1-6.73,3C568,100.87,565.51,99.18,564.58,96.19Zm10.72-5.83c.15,0,.22-.07.22-.21a6.08,6.08,0,0,0-.25-2,4.25,4.25,0,0,0-7.92,0,6.08,6.08,0,0,0-.25,2,.19.19,0,0,0,.21.21Z"/><path class="cls-1" d="M581.57,98.28a.33.33,0,0,1,0-.5L583,96.19a.36.36,0,0,1,.51,0,8.34,8.34,0,0,0,5.33,2c2.52,0,3.77-1.08,3.77-2.62,0-1.37-.64-2.13-3.34-2.42L587.47,93c-3.38-.36-5.15-2-5.15-4.86,0-3.27,2.34-5.25,6.41-5.25a10.32,10.32,0,0,1,6.12,1.91.34.34,0,0,1,.07.5L593.7,86.8a.36.36,0,0,1-.51.07,9,9,0,0,0-4.64-1.4c-2.16,0-3.27,1-3.27,2.37s.82,2.09,3.38,2.34l1.8.18c3.49.33,5.18,2.09,5.18,4.86,0,3.38-2.45,5.65-6.94,5.65A10.73,10.73,0,0,1,581.57,98.28Z"/><path class="cls-1" d="M64.81,138.48a.35.35,0,0,1-.36-.36V128c0-2.77-1.26-4.39-3.85-4.39a3.89,3.89,0,0,0-4,4.21v10.26a.34.34,0,0,1-.36.36H54a.34.34,0,0,1-.36-.36V128c0-2.77-1.26-4.39-3.85-4.39a3.87,3.87,0,0,0-4,4.21v10.26a.34.34,0,0,1-.36.36h-2.3a.34.34,0,0,1-.36-.36V121.59a.34.34,0,0,1,.36-.36h2.3a.34.34,0,0,1,.36.36v1.59h0a5.47,5.47,0,0,1,4.83-2.34,5.41,5.41,0,0,1,5,2.7h0a6.42,6.42,0,0,1,5.58-2.7c4,0,6.16,2.55,6.16,6.48v10.8a.35.35,0,0,1-.36.36Z"/><path class="cls-1" d="M72,134.23a16.79,16.79,0,0,1,0-8.75c.93-3,3.45-4.64,6.8-4.64s5.87,1.69,6.8,4.64a16.79,16.79,0,0,1,0,8.75c-.93,2.92-3.45,4.64-6.8,4.64S73,137.15,72,134.23Zm10.69-.86a11.32,11.32,0,0,0,.39-3.53,11,11,0,0,0-.39-3.49,4.15,4.15,0,0,0-7.78,0,11,11,0,0,0-.39,3.49,11.32,11.32,0,0,0,.39,3.53,4.16,4.16,0,0,0,7.78,0Z"/><path class="cls-1" d="M90.7,138.48a.34.34,0,0,1-.36-.36V121.59a.34.34,0,0,1,.36-.36H93a.34.34,0,0,1,.36.36v1.77h0A4.8,4.8,0,0,1,98,120.84a5.3,5.3,0,0,1,3.53,1.29c.18.18.21.33.07.51l-1.33,1.76a.32.32,0,0,1-.5.07,4.92,4.92,0,0,0-2.67-.82c-2.63,0-3.71,2-3.71,5v9.43a.34.34,0,0,1-.36.36Z"/><path class="cls-1" d="M114.53,138.48a.34.34,0,0,1-.36-.36v-1.66h0c-.82,1.37-2.3,2.41-4.89,2.41-3,0-5.08-1.4-5.94-4.14a14.25,14.25,0,0,1-.61-4.89,14.2,14.2,0,0,1,.61-4.86c.86-2.74,3-4.14,5.94-4.14,2.59,0,4.07,1,4.89,2.37h0v-8.85a.34.34,0,0,1,.36-.36h2.3a.34.34,0,0,1,.36.36v23.76a.34.34,0,0,1-.36.36Zm-.76-5a11,11,0,0,0,.4-3.6,11.12,11.12,0,0,0-.4-3.6,4.08,4.08,0,0,0-7.59,0,12.15,12.15,0,0,0-.4,3.6,11.89,11.89,0,0,0,.4,3.6,4.06,4.06,0,0,0,7.59,0Z"/><path class="cls-1" d="M121.91,134.19a17.36,17.36,0,0,1,0-8.71,7.25,7.25,0,0,1,13.53,0,15.08,15.08,0,0,1,.54,4.93c0,.22-.14.36-.4.36h-10.9a.2.2,0,0,0-.22.22,6.47,6.47,0,0,0,.29,2.09,4.25,4.25,0,0,0,4.36,3,5.6,5.6,0,0,0,4.42-1.9c.18-.18.36-.22.54-.07l1.48,1.33a.31.31,0,0,1,0,.5,8.35,8.35,0,0,1-6.73,3C125.33,138.87,122.85,137.18,121.91,134.19Zm10.73-5.83a.19.19,0,0,0,.21-.21,6.08,6.08,0,0,0-.25-2,4.25,4.25,0,0,0-7.92,0,6.08,6.08,0,0,0-.25,2c0,.14.07.21.22.21Z"/><path class="cls-1" d="M150.89,138.48a.34.34,0,0,1-.36-.36v-1.66h0c-.82,1.37-2.3,2.41-4.89,2.41-3,0-5.08-1.4-5.94-4.14a14.25,14.25,0,0,1-.61-4.89,14.2,14.2,0,0,1,.61-4.86c.86-2.74,3-4.14,5.94-4.14,2.59,0,4.07,1,4.89,2.37h0v-8.85a.34.34,0,0,1,.36-.36h2.3a.34.34,0,0,1,.36.36v23.76a.34.34,0,0,1-.36.36Zm-.76-5a11,11,0,0,0,.4-3.6,11.12,11.12,0,0,0-.4-3.6,4.08,4.08,0,0,0-7.59,0,12.15,12.15,0,0,0-.4,3.6,11.89,11.89,0,0,0,.4,3.6,4.06,4.06,0,0,0,7.59,0Z"/><path class="cls-1" d="M169.57,138.48a.35.35,0,0,1-.36-.36V136.5h0a5.26,5.26,0,0,1-4.72,2.37c-3.78,0-6-2.59-6-6.51V121.59a.34.34,0,0,1,.36-.36h2.3a.34.34,0,0,1,.36.36v10c0,2.81,1.26,4.42,3.82,4.42,2.34,0,3.88-1.65,3.88-4.24V121.59a.35.35,0,0,1,.36-.36h2.31a.35.35,0,0,1,.36.36v16.53a.35.35,0,0,1-.36.36Z"/><path class="cls-1" d="M177.78,138.48a.35.35,0,0,1-.36-.36V121.59a.35.35,0,0,1,.36-.36h2.31a.35.35,0,0,1,.36.36v1.77h0a4.8,4.8,0,0,1,4.57-2.52,5.3,5.3,0,0,1,3.53,1.29c.18.18.22.33.07.51l-1.33,1.76a.32.32,0,0,1-.5.07,4.89,4.89,0,0,0-2.67-.82c-2.62,0-3.7,2-3.7,5v9.43a.35.35,0,0,1-.36.36Z"/><path class="cls-1" d="M201,138.48a.34.34,0,0,1-.36-.36V136.6h0c-.79,1.3-2.48,2.27-5.11,2.27-3.28,0-5.8-1.69-5.8-5.18s2.52-5.33,6.74-5.33h3.92a.19.19,0,0,0,.22-.21v-1.26c0-2.38-.94-3.39-4.14-3.39a6.71,6.71,0,0,0-4.18,1.23.32.32,0,0,1-.5,0l-1-1.66a.38.38,0,0,1,.08-.5,9.53,9.53,0,0,1,5.86-1.69c4.9,0,6.77,1.62,6.77,5.87v11.41a.34.34,0,0,1-.36.36Zm-.43-5.58V131a.2.2,0,0,0-.22-.22h-3.46c-3,0-4.28.87-4.28,2.81,0,1.77,1.3,2.7,3.6,2.7C199,136.28,200.61,135,200.61,132.9Z"/><path class="cls-1" d="M207.38,136.28a.33.33,0,0,1,0-.5l1.47-1.59a.35.35,0,0,1,.5,0,8.37,8.37,0,0,0,5.33,2c2.52,0,3.78-1.08,3.78-2.62,0-1.37-.65-2.13-3.35-2.42l-1.83-.18c-3.39-.36-5.15-2-5.15-4.86,0-3.27,2.34-5.25,6.41-5.25a10.32,10.32,0,0,1,6.12,1.91.34.34,0,0,1,.07.5l-1.22,1.55a.36.36,0,0,1-.51.07,9.06,9.06,0,0,0-4.64-1.4c-2.16,0-3.28,1-3.28,2.37s.83,2.09,3.39,2.34l1.8.18c3.49.33,5.18,2.09,5.18,4.86,0,3.38-2.45,5.65-6.95,5.65A10.7,10.7,0,0,1,207.38,136.28Z"/><path class="cls-1" d="M225.41,134.66h2.52a.34.34,0,0,1,.36.36v3.35a1.14,1.14,0,0,1-.22.79l-2.23,3a.56.56,0,0,1-.47.25.32.32,0,0,1-.32-.32v-7A.34.34,0,0,1,225.41,134.66Z"/><path class="cls-1" d="M251.4,138.48a.34.34,0,0,1-.36-.36V128c0-2.77-1.26-4.39-3.85-4.39a3.87,3.87,0,0,0-4,4.21v10.26a.34.34,0,0,1-.36.36h-2.3a.34.34,0,0,1-.36-.36V121.59a.34.34,0,0,1,.36-.36h2.3a.34.34,0,0,1,.36.36v1.59h0a5.44,5.44,0,0,1,4.82-2.34c3.74,0,6,2.55,6,6.48v10.8a.34.34,0,0,1-.36.36Z"/><path class="cls-1" d="M258.6,134.23a17.07,17.07,0,0,1,0-8.75c.94-3,3.46-4.64,6.8-4.64s5.87,1.69,6.81,4.64a17.07,17.07,0,0,1,0,8.75,7.31,7.31,0,0,1-13.61,0Zm10.69-.86a11.27,11.27,0,0,0,.4-3.53,10.91,10.91,0,0,0-.4-3.49,4.15,4.15,0,0,0-7.77,0,10.91,10.91,0,0,0-.4,3.49,11.27,11.27,0,0,0,.4,3.53,4.15,4.15,0,0,0,7.77,0Z"/><path class="cls-1" d="M296,138.48a.34.34,0,0,1-.36-.36V128c0-2.77-1.26-4.39-3.85-4.39a3.87,3.87,0,0,0-4,4.21v10.26a.35.35,0,0,1-.36.36h-2.3a.34.34,0,0,1-.36-.36V114.36a.34.34,0,0,1,.36-.36h2.3a.34.34,0,0,1,.36.36v8.82h0a5.47,5.47,0,0,1,4.83-2.34c3.74,0,6,2.55,6,6.48v10.8a.34.34,0,0,1-.36.36Z"/><path class="cls-1" d="M314.15,138.48a.34.34,0,0,1-.36-.36V136.6h0c-.79,1.3-2.48,2.27-5.11,2.27-3.28,0-5.8-1.69-5.8-5.18s2.52-5.33,6.74-5.33h3.92a.19.19,0,0,0,.22-.21v-1.26c0-2.38-.94-3.39-4.14-3.39a6.71,6.71,0,0,0-4.18,1.23c-.18.14-.4.14-.5,0l-1-1.66a.38.38,0,0,1,.08-.5,9.53,9.53,0,0,1,5.86-1.69c4.9,0,6.77,1.62,6.77,5.87v11.41a.34.34,0,0,1-.36.36Zm-.43-5.58V131a.2.2,0,0,0-.22-.22H310c-3,0-4.28.87-4.28,2.81,0,1.77,1.3,2.7,3.6,2.7C312.06,136.28,313.72,135,313.72,132.9Z"/><path class="cls-1" d="M321.31,142.8a.33.33,0,0,1,0-.51l1.47-1.47a.34.34,0,0,1,.54,0,5.76,5.76,0,0,0,4.07,1.72c2.85,0,4.36-1.47,4.36-4.64v-2h0c-.79,1.44-2.27,2.37-4.79,2.37a5.64,5.64,0,0,1-5.79-4.17,18.06,18.06,0,0,1,0-9.08,5.64,5.64,0,0,1,5.79-4.17c2.52,0,4,.93,4.79,2.37h0v-1.62a.34.34,0,0,1,.36-.36h2.3a.34.34,0,0,1,.36.36v16.13c0,4.9-2.66,7.63-7.52,7.63A7.8,7.8,0,0,1,321.31,142.8Zm10.08-9.9a10.43,10.43,0,0,0,.4-3.35,10.55,10.55,0,0,0-.4-3.35,3.89,3.89,0,0,0-7.31,0,11.09,11.09,0,0,0-.43,3.35,11,11,0,0,0,.43,3.35,3.53,3.53,0,0,0,3.64,2.59A3.56,3.56,0,0,0,331.39,132.9Z"/><path class="cls-1" d="M350.44,138.48a.34.34,0,0,1-.36-.36V136.6h0c-.79,1.3-2.48,2.27-5.11,2.27-3.28,0-5.8-1.69-5.8-5.18s2.52-5.33,6.73-5.33h3.93a.19.19,0,0,0,.21-.21v-1.26c0-2.38-.93-3.39-4.14-3.39a6.7,6.7,0,0,0-4.17,1.23.33.33,0,0,1-.51,0l-1-1.66a.38.38,0,0,1,.07-.5,9.58,9.58,0,0,1,5.87-1.69c4.9,0,6.77,1.62,6.77,5.87v11.41a.35.35,0,0,1-.36.36ZM350,132.9V131a.19.19,0,0,0-.21-.22h-3.46c-3,0-4.28.87-4.28,2.81,0,1.77,1.29,2.7,3.6,2.7C348.35,136.28,350,135,350,132.9Z"/><path class="cls-1" d="M387.91,138.48a.34.34,0,0,1-.36-.36V128c0-2.77-1.26-4.39-3.85-4.39a3.88,3.88,0,0,0-4,4.21v10.26a.35.35,0,0,1-.36.36h-2.31a.35.35,0,0,1-.36-.36V128c0-2.77-1.26-4.39-3.85-4.39a3.87,3.87,0,0,0-4,4.21v10.26a.34.34,0,0,1-.36.36h-2.3a.34.34,0,0,1-.36-.36V121.59a.34.34,0,0,1,.36-.36h2.3a.34.34,0,0,1,.36.36v1.59h0a6.09,6.09,0,0,1,9.86.36h0a6.41,6.41,0,0,1,5.58-2.7c4,0,6.15,2.55,6.15,6.48v10.8a.34.34,0,0,1-.36.36Z"/><path class="cls-1" d="M395.11,134.23a17.07,17.07,0,0,1,0-8.75c.94-3,3.46-4.64,6.8-4.64s5.87,1.69,6.81,4.64a17.07,17.07,0,0,1,0,8.75,7.31,7.31,0,0,1-13.61,0Zm10.69-.86a11.27,11.27,0,0,0,.4-3.53,10.91,10.91,0,0,0-.4-3.49,4.15,4.15,0,0,0-7.77,0,10.91,10.91,0,0,0-.4,3.49,11.27,11.27,0,0,0,.4,3.53,4.15,4.15,0,0,0,7.77,0Z"/><path class="cls-1" d="M418,138.48c-.25,0-.36-.15-.43-.36l-6.19-16.53c-.07-.21,0-.36.29-.36h2.48c.25,0,.36.11.47.36L419.05,134h.07l4.36-12.39a.42.42,0,0,1,.43-.36h2.45c.25,0,.36.15.29.36l-6.16,16.53a.47.47,0,0,1-.47.36Z"/><path class="cls-1" d="M430.1,117.35a.35.35,0,0,1-.36-.36v-2.63a.34.34,0,0,1,.36-.36h2.45a.34.34,0,0,1,.36.36V117a.34.34,0,0,1-.36.36Zm.07,21.13a.35.35,0,0,1-.36-.36V121.59a.35.35,0,0,1,.36-.36h2.31a.35.35,0,0,1,.36.36v16.53a.35.35,0,0,1-.36.36Z"/><path class="cls-1" d="M460.05,138.48a.35.35,0,0,1-.36-.36V128c0-2.77-1.26-4.39-3.85-4.39a3.89,3.89,0,0,0-4,4.21v10.26a.34.34,0,0,1-.36.36h-2.3a.34.34,0,0,1-.36-.36V128c0-2.77-1.26-4.39-3.85-4.39a3.87,3.87,0,0,0-4,4.21v10.26a.35.35,0,0,1-.36.36h-2.31a.35.35,0,0,1-.36-.36V121.59a.35.35,0,0,1,.36-.36h2.31a.35.35,0,0,1,.36.36v1.59h0a5.47,5.47,0,0,1,4.83-2.34,5.4,5.4,0,0,1,5,2.7h0a6.41,6.41,0,0,1,5.58-2.7c4,0,6.16,2.55,6.16,6.48v10.8a.35.35,0,0,1-.36.36Z"/><path class="cls-1" d="M468,117.35a.34.34,0,0,1-.36-.36v-2.63A.34.34,0,0,1,468,114h2.45a.34.34,0,0,1,.36.36V117a.35.35,0,0,1-.36.36Zm.07,21.13a.35.35,0,0,1-.36-.36V121.59a.35.35,0,0,1,.36-.36h2.31a.35.35,0,0,1,.36.36v16.53a.35.35,0,0,1-.36.36Z"/><path class="cls-1" d="M475.46,134.19a13.48,13.48,0,0,1-.57-4.35,13.16,13.16,0,0,1,.54-4.36,7.25,7.25,0,0,1,13.53,0,15.08,15.08,0,0,1,.54,4.93c0,.22-.14.36-.4.36H478.2a.2.2,0,0,0-.22.22,6.47,6.47,0,0,0,.29,2.09,4.25,4.25,0,0,0,4.35,3,5.61,5.61,0,0,0,4.43-1.9c.18-.18.36-.22.54-.07l1.48,1.33a.31.31,0,0,1,0,.5,8.35,8.35,0,0,1-6.73,3C478.88,138.87,476.4,137.18,475.46,134.19Zm10.73-5.83a.19.19,0,0,0,.21-.21,6.08,6.08,0,0,0-.25-2,4.25,4.25,0,0,0-7.92,0,6.08,6.08,0,0,0-.25,2c0,.14.07.21.22.21Z"/><path class="cls-1" d="M504.84,138.48a.34.34,0,0,1-.36-.36V128c0-2.77-1.26-4.39-3.86-4.39a3.86,3.86,0,0,0-3.95,4.21v10.26a.35.35,0,0,1-.37.36H494a.35.35,0,0,1-.36-.36V121.59a.35.35,0,0,1,.36-.36h2.3a.35.35,0,0,1,.37.36v1.59h0a5.45,5.45,0,0,1,4.82-2.34c3.75,0,6,2.55,6,6.48v10.8a.34.34,0,0,1-.36.36Z"/><path class="cls-1" d="M517.51,138.66c-3.35,0-4.65-1.51-4.65-4.9V123.9c0-.15-.07-.22-.21-.22h-1.44a.34.34,0,0,1-.36-.36v-1.73a.34.34,0,0,1,.36-.36h1.44a.19.19,0,0,0,.21-.21v-4.86a.34.34,0,0,1,.36-.36h2.31a.34.34,0,0,1,.36.36V121a.19.19,0,0,0,.21.21h2.74a.34.34,0,0,1,.36.36v1.73a.34.34,0,0,1-.36.36H516.1c-.14,0-.21.07-.21.22v9.75c0,1.73.65,2.2,2.19,2.2h.76a.34.34,0,0,1,.36.36v2.09a.34.34,0,0,1-.36.36Z"/><path class="cls-1" d="M522.69,134.23a17.07,17.07,0,0,1,0-8.75c.94-3,3.46-4.64,6.81-4.64s5.86,1.69,6.8,4.64a16.79,16.79,0,0,1,0,8.75,7.31,7.31,0,0,1-13.61,0Zm10.69-.86a11.27,11.27,0,0,0,.4-3.53,10.91,10.91,0,0,0-.4-3.49,4.15,4.15,0,0,0-7.77,0,10.91,10.91,0,0,0-.4,3.49,11.27,11.27,0,0,0,.4,3.53,4.15,4.15,0,0,0,7.77,0Z"/><path class="cls-1" d="M539.83,136.28a.33.33,0,0,1,0-.5l1.47-1.59a.36.36,0,0,1,.51,0,8.34,8.34,0,0,0,5.33,2c2.52,0,3.78-1.08,3.78-2.62,0-1.37-.65-2.13-3.35-2.42l-1.84-.18c-3.38-.36-5.15-2-5.15-4.86,0-3.27,2.34-5.25,6.41-5.25a10.32,10.32,0,0,1,6.12,1.91.34.34,0,0,1,.07.5L552,124.8a.35.35,0,0,1-.5.07,9.09,9.09,0,0,0-4.65-1.4c-2.16,0-3.27,1-3.27,2.37s.82,2.09,3.38,2.34l1.8.18c3.49.33,5.18,2.09,5.18,4.86,0,3.38-2.44,5.65-6.94,5.65A10.73,10.73,0,0,1,539.83,136.28Z"/><path class="cls-1" d="M22.81,176.48a.34.34,0,0,1-.36-.36V152.36a.34.34,0,0,1,.36-.36h2.3a.34.34,0,0,1,.36.36v8.85h0c.82-1.36,2.3-2.37,4.89-2.37,3,0,5.08,1.4,5.94,4.14a19.78,19.78,0,0,1,0,9.75c-.86,2.74-3,4.14-5.94,4.14-2.59,0-4.07-1-4.89-2.41h0v1.66a.34.34,0,0,1-.36.36Zm10.65-5a11.89,11.89,0,0,0,.4-3.6,12.15,12.15,0,0,0-.4-3.6,3.66,3.66,0,0,0-3.78-2.59,3.65,3.65,0,0,0-3.81,2.59,11.12,11.12,0,0,0-.4,3.6,11,11,0,0,0,.4,3.6,3.67,3.67,0,0,0,3.81,2.62A3.69,3.69,0,0,0,33.46,171.44Z"/><path class="cls-1" d="M41.45,176.48a.35.35,0,0,1-.36-.36V159.59a.35.35,0,0,1,.36-.36h2.31a.35.35,0,0,1,.36.36v1.77h0a4.8,4.8,0,0,1,4.57-2.52,5.3,5.3,0,0,1,3.53,1.29c.18.18.22.33.07.51L51,162.4a.32.32,0,0,1-.5.07,4.89,4.89,0,0,0-2.67-.82c-2.62,0-3.7,2-3.7,5v9.43a.35.35,0,0,1-.36.36Z"/><path class="cls-1" d="M66,176.48a.34.34,0,0,1-.36-.36V174.5h0a5.25,5.25,0,0,1-4.71,2.37c-3.78,0-6-2.59-6-6.51V159.59a.35.35,0,0,1,.36-.36h2.3a.34.34,0,0,1,.36.36v10c0,2.81,1.26,4.42,3.82,4.42,2.34,0,3.89-1.65,3.89-4.24V159.59a.34.34,0,0,1,.36-.36h2.3a.34.34,0,0,1,.36.36v16.53a.34.34,0,0,1-.36.36Z"/><path class="cls-1" d="M72.63,174.28a.33.33,0,0,1,0-.5l1.47-1.59a.36.36,0,0,1,.51,0,8.34,8.34,0,0,0,5.33,2c2.52,0,3.78-1.08,3.78-2.62,0-1.37-.65-2.13-3.35-2.42L78.53,169c-3.38-.36-5.15-2-5.15-4.86,0-3.27,2.34-5.25,6.41-5.25a10.32,10.32,0,0,1,6.12,1.91.34.34,0,0,1,.07.5l-1.22,1.55a.35.35,0,0,1-.5.07,9.09,9.09,0,0,0-4.65-1.4c-2.16,0-3.27,1-3.27,2.37s.82,2.09,3.38,2.34l1.8.18c3.49.33,5.18,2.09,5.18,4.86,0,3.38-2.44,5.65-6.94,5.65A10.73,10.73,0,0,1,72.63,174.28Z"/><path class="cls-1" d="M90.23,163.48c1-3,3.49-4.64,6.81-4.64a6.94,6.94,0,0,1,5.9,2.91c.11.18.11.33-.11.51l-1.58,1.29a.32.32,0,0,1-.51,0,4.22,4.22,0,0,0-3.7-1.87,3.75,3.75,0,0,0-3.86,2.7,11.77,11.77,0,0,0-.39,3.49,11.89,11.89,0,0,0,.39,3.53A3.74,3.74,0,0,0,97,174.06a4.22,4.22,0,0,0,3.7-1.87.32.32,0,0,1,.51,0l1.58,1.29c.22.18.22.33.11.51a6.91,6.91,0,0,1-5.9,2.91c-3.32,0-5.84-1.65-6.81-4.64a18,18,0,0,1,0-8.75Z"/><path class="cls-1" d="M106.11,172.23a16.79,16.79,0,0,1,0-8.75c.93-2.95,3.45-4.64,6.8-4.64s5.87,1.69,6.8,4.64a16.79,16.79,0,0,1,0,8.75c-.93,2.92-3.45,4.64-6.8,4.64S107,175.15,106.11,172.23Zm10.69-.86a11.32,11.32,0,0,0,.39-3.53,11,11,0,0,0-.39-3.49,4.15,4.15,0,0,0-7.78,0,11.26,11.26,0,0,0-.39,3.49,11.63,11.63,0,0,0,.39,3.53,4.16,4.16,0,0,0,7.78,0Z"/><path class="cls-1" d="M123.24,174.28a.35.35,0,0,1,0-.5l1.48-1.59a.35.35,0,0,1,.5,0,8.37,8.37,0,0,0,5.33,2c2.52,0,3.78-1.08,3.78-2.62,0-1.37-.65-2.13-3.35-2.42l-1.83-.18c-3.39-.36-5.15-2-5.15-4.86,0-3.27,2.34-5.25,6.41-5.25a10.32,10.32,0,0,1,6.12,1.91.34.34,0,0,1,.07.5l-1.23,1.55a.35.35,0,0,1-.5.07,9.09,9.09,0,0,0-4.64-1.4c-2.16,0-3.28,1-3.28,2.37s.83,2.09,3.38,2.34l1.8.18c3.5.33,5.19,2.09,5.19,4.86,0,3.38-2.45,5.65-6.95,5.65A10.75,10.75,0,0,1,123.24,174.28Z"/><path class="cls-1" d="M141.28,172.66h2.52a.35.35,0,0,1,.36.36v3.35a1.14,1.14,0,0,1-.22.79l-2.23,3a.56.56,0,0,1-.47.25.32.32,0,0,1-.32-.32v-7A.34.34,0,0,1,141.28,172.66Z"/><path class="cls-1" d="M166.51,176.48a.35.35,0,0,1-.36-.36V174.6h0c-.79,1.3-2.49,2.27-5.11,2.27-3.28,0-5.8-1.69-5.8-5.18s2.52-5.33,6.73-5.33h3.93a.19.19,0,0,0,.21-.21v-1.26c0-2.38-.93-3.39-4.14-3.39a6.68,6.68,0,0,0-4.17,1.23.33.33,0,0,1-.51,0l-1-1.66a.38.38,0,0,1,.07-.5,9.56,9.56,0,0,1,5.87-1.69c4.9,0,6.77,1.62,6.77,5.87v11.41a.35.35,0,0,1-.36.36Zm-.43-5.58V169a.19.19,0,0,0-.21-.22h-3.46c-3,0-4.28.87-4.28,2.81,0,1.77,1.29,2.7,3.6,2.7C164.43,174.28,166.08,173,166.08,170.9Z"/><path class="cls-1" d="M178.18,176.66c-3,0-4.21-1.44-4.21-4.54V152.36a.34.34,0,0,1,.36-.36h2.3a.34.34,0,0,1,.36.36v19.58c0,1.44.54,1.91,1.73,1.91h.68a.34.34,0,0,1,.36.36v2.09a.34.34,0,0,1-.36.36Z"/><path class="cls-1" d="M182.82,172.19a17.36,17.36,0,0,1,0-8.71,7.25,7.25,0,0,1,13.53,0,15.08,15.08,0,0,1,.54,4.93c0,.22-.14.36-.4.36h-10.9a.2.2,0,0,0-.22.22,6.47,6.47,0,0,0,.29,2.09,4.25,4.25,0,0,0,4.36,3,5.6,5.6,0,0,0,4.42-1.9c.18-.18.36-.22.54-.07l1.48,1.33a.31.31,0,0,1,0,.5,8.35,8.35,0,0,1-6.73,3C186.24,176.87,183.76,175.18,182.82,172.19Zm10.73-5.83a.19.19,0,0,0,.22-.21,6.05,6.05,0,0,0-.26-2,4.25,4.25,0,0,0-7.92,0,6.08,6.08,0,0,0-.25,2c0,.14.07.21.22.21Zm-5.36-9.93c-.22,0-.33-.15-.22-.36l2.74-4.43a.63.63,0,0,1,.61-.36h2.37c.22,0,.33.18.18.36l-3.31,4.43a.7.7,0,0,1-.68.36Z"/><path class="cls-1" d="M198.16,183a.34.34,0,0,1-.36-.36v-2.09a.34.34,0,0,1,.36-.36h.57c1.7,0,2.27-.47,2.27-2.31V159.59a.35.35,0,0,1,.36-.36h2.31a.35.35,0,0,1,.36.36v18.18c0,3.71-1.66,5.19-5.15,5.19Zm3.13-27.61a.34.34,0,0,1-.36-.36v-2.63a.34.34,0,0,1,.36-.36h2.45a.34.34,0,0,1,.36.36V155a.35.35,0,0,1-.36.36Z"/><path class="cls-1" d="M208.74,172.19a17.36,17.36,0,0,1,0-8.71,7.25,7.25,0,0,1,13.53,0,15.08,15.08,0,0,1,.54,4.93c0,.22-.14.36-.4.36h-10.9a.2.2,0,0,0-.22.22,6.47,6.47,0,0,0,.29,2.09,4.25,4.25,0,0,0,4.35,3,5.61,5.61,0,0,0,4.43-1.9c.18-.18.36-.22.54-.07l1.48,1.33a.31.31,0,0,1,0,.5,8.35,8.35,0,0,1-6.73,3C212.16,176.87,209.68,175.18,208.74,172.19Zm10.73-5.83a.19.19,0,0,0,.21-.21,6.08,6.08,0,0,0-.25-2,4.25,4.25,0,0,0-7.92,0,6.08,6.08,0,0,0-.25,2c0,.14.07.21.22.21Z"/><path class="cls-1" d="M225.73,174.28a.35.35,0,0,1,0-.5l1.48-1.59a.35.35,0,0,1,.5,0,8.37,8.37,0,0,0,5.33,2c2.52,0,3.78-1.08,3.78-2.62,0-1.37-.65-2.13-3.35-2.42l-1.83-.18c-3.39-.36-5.15-2-5.15-4.86,0-3.27,2.34-5.25,6.41-5.25a10.32,10.32,0,0,1,6.12,1.91.34.34,0,0,1,.07.5l-1.23,1.55a.35.35,0,0,1-.5.07,9.09,9.09,0,0,0-4.64-1.4c-2.16,0-3.28,1-3.28,2.37s.83,2.09,3.38,2.34l1.8.18c3.5.33,5.19,2.09,5.19,4.86,0,3.38-2.45,5.65-6.95,5.65A10.75,10.75,0,0,1,225.73,174.28Z"/><path class="cls-1" d="M243.37,172.19a17.36,17.36,0,0,1,0-8.71,7.25,7.25,0,0,1,13.53,0,15.08,15.08,0,0,1,.54,4.93.35.35,0,0,1-.39.36H246.11a.2.2,0,0,0-.22.22,6.47,6.47,0,0,0,.29,2.09,4.25,4.25,0,0,0,4.36,3,5.6,5.6,0,0,0,4.42-1.9c.18-.18.36-.22.54-.07l1.48,1.33a.32.32,0,0,1,0,.5,8.39,8.39,0,0,1-6.74,3C246.79,176.87,244.31,175.18,243.37,172.19Zm10.73-5.83a.19.19,0,0,0,.22-.21,6.05,6.05,0,0,0-.26-2,4.25,4.25,0,0,0-7.91,0,5.79,5.79,0,0,0-.26,2c0,.14.07.21.22.21Z"/><path class="cls-1" d="M273.61,176.66c-3,0-4.21-1.44-4.21-4.54V152.36a.34.34,0,0,1,.36-.36h2.3a.34.34,0,0,1,.36.36v19.58c0,1.44.54,1.91,1.73,1.91h.69a.34.34,0,0,1,.36.36v2.09a.35.35,0,0,1-.36.36Z"/><path class="cls-1" d="M278.26,172.19a17.21,17.21,0,0,1,0-8.71,7.25,7.25,0,0,1,13.53,0,15.08,15.08,0,0,1,.54,4.93.35.35,0,0,1-.39.36H281a.19.19,0,0,0-.21.22,6.5,6.5,0,0,0,.28,2.09,4.27,4.27,0,0,0,4.36,3,5.64,5.64,0,0,0,4.43-1.9c.18-.18.36-.22.54-.07l1.47,1.33a.32.32,0,0,1,0,.5,8.38,8.38,0,0,1-6.73,3C281.68,176.87,279.19,175.18,278.26,172.19ZM289,166.36c.15,0,.22-.07.22-.21a6.08,6.08,0,0,0-.25-2,4.25,4.25,0,0,0-7.92,0,6.08,6.08,0,0,0-.25,2,.19.19,0,0,0,.21.21Z"/><path class="cls-1" d="M307.63,176.48a.34.34,0,0,1-.36-.36V166c0-2.77-1.26-4.39-3.85-4.39a3.87,3.87,0,0,0-4,4.21v10.26a.34.34,0,0,1-.36.36h-2.3a.34.34,0,0,1-.36-.36V159.59a.34.34,0,0,1,.36-.36h2.3a.34.34,0,0,1,.36.36v1.59h0a5.44,5.44,0,0,1,4.82-2.34c3.74,0,6,2.55,6,6.48v10.8a.34.34,0,0,1-.36.36Z"/><path class="cls-1" d="M320.3,176.66c-3.34,0-4.64-1.51-4.64-4.9V161.9a.19.19,0,0,0-.22-.22H314a.34.34,0,0,1-.36-.36v-1.73a.35.35,0,0,1,.36-.36h1.44c.15,0,.22-.07.22-.21v-4.86a.34.34,0,0,1,.36-.36h2.3a.34.34,0,0,1,.36.36V159c0,.14.07.21.22.21h2.73a.34.34,0,0,1,.36.36v1.73a.34.34,0,0,1-.36.36H318.9a.19.19,0,0,0-.22.22v9.75c0,1.73.65,2.2,2.2,2.2h.75a.34.34,0,0,1,.36.36v2.09a.34.34,0,0,1-.36.36Z"/><path class="cls-1" d="M336.39,176.48a.35.35,0,0,1-.36-.36V174.6h0c-.79,1.3-2.49,2.27-5.11,2.27-3.28,0-5.8-1.69-5.8-5.18s2.52-5.33,6.73-5.33h3.93a.19.19,0,0,0,.21-.21v-1.26c0-2.38-.93-3.39-4.14-3.39a6.7,6.7,0,0,0-4.17,1.23.33.33,0,0,1-.51,0l-1-1.66a.38.38,0,0,1,.07-.5,9.58,9.58,0,0,1,5.87-1.69c4.9,0,6.77,1.62,6.77,5.87v11.41a.35.35,0,0,1-.36.36ZM336,170.9V169a.19.19,0,0,0-.21-.22h-3.46c-3,0-4.28.87-4.28,2.81,0,1.77,1.29,2.7,3.6,2.7C334.31,174.28,336,173,336,170.9Z"/><path class="cls-1" d="M366,176.48a.34.34,0,0,1-.36-.36V166c0-2.77-1.26-4.39-3.85-4.39a3.88,3.88,0,0,0-4,4.21v10.26a.35.35,0,0,1-.36.36h-2.31a.35.35,0,0,1-.36-.36V166c0-2.77-1.26-4.39-3.85-4.39a3.87,3.87,0,0,0-4,4.21v10.26a.34.34,0,0,1-.36.36h-2.3a.34.34,0,0,1-.36-.36V159.59a.34.34,0,0,1,.36-.36h2.3a.34.34,0,0,1,.36.36v1.59h0a6.09,6.09,0,0,1,9.86.36h0a6.4,6.4,0,0,1,5.58-2.7c4,0,6.15,2.55,6.15,6.48v10.8a.34.34,0,0,1-.36.36Z"/><path class="cls-1" d="M373.15,172.19a17.21,17.21,0,0,1,0-8.71,7.26,7.26,0,0,1,13.54,0,15.08,15.08,0,0,1,.54,4.93.35.35,0,0,1-.4.36h-10.9a.2.2,0,0,0-.22.22,6.47,6.47,0,0,0,.29,2.09,4.25,4.25,0,0,0,4.35,3,5.61,5.61,0,0,0,4.43-1.9c.18-.18.36-.22.54-.07l1.48,1.33a.31.31,0,0,1,0,.5,8.38,8.38,0,0,1-6.73,3C376.57,176.87,374.09,175.18,373.15,172.19Zm10.73-5.83a.19.19,0,0,0,.21-.21,6.08,6.08,0,0,0-.25-2,4.25,4.25,0,0,0-7.92,0,6.08,6.08,0,0,0-.25,2c0,.14.07.21.22.21Z"/><path class="cls-1" d="M402.52,176.48a.34.34,0,0,1-.35-.36V166c0-2.77-1.26-4.39-3.86-4.39a3.87,3.87,0,0,0-4,4.21v10.26a.34.34,0,0,1-.36.36h-2.3a.34.34,0,0,1-.36-.36V159.59a.34.34,0,0,1,.36-.36H394a.34.34,0,0,1,.36.36v1.59h0a5.45,5.45,0,0,1,4.82-2.34c3.75,0,6,2.55,6,6.48v10.8a.35.35,0,0,1-.36.36Z"/><path class="cls-1" d="M415.2,176.66c-3.35,0-4.65-1.51-4.65-4.9V161.9c0-.15-.07-.22-.21-.22H408.9a.34.34,0,0,1-.36-.36v-1.73a.34.34,0,0,1,.36-.36h1.44a.19.19,0,0,0,.21-.21v-4.86a.34.34,0,0,1,.36-.36h2.31a.34.34,0,0,1,.36.36V159a.19.19,0,0,0,.21.21h2.74a.34.34,0,0,1,.36.36v1.73a.34.34,0,0,1-.36.36h-2.74c-.14,0-.21.07-.21.22v9.75c0,1.73.65,2.2,2.19,2.2h.76a.34.34,0,0,1,.36.36v2.09a.34.34,0,0,1-.36.36Z"/><path class="cls-1" d="M420.38,172.19a17.36,17.36,0,0,1,0-8.71,7.25,7.25,0,0,1,13.53,0,15.08,15.08,0,0,1,.54,4.93c0,.22-.14.36-.4.36h-10.9a.2.2,0,0,0-.22.22,6.47,6.47,0,0,0,.29,2.09,4.25,4.25,0,0,0,4.35,3,5.61,5.61,0,0,0,4.43-1.9c.18-.18.36-.22.54-.07l1.48,1.33a.31.31,0,0,1,0,.5,8.35,8.35,0,0,1-6.73,3C423.8,176.87,421.32,175.18,420.38,172.19Zm10.73-5.83a.19.19,0,0,0,.21-.21,6.08,6.08,0,0,0-.25-2,4.25,4.25,0,0,0-7.92,0,6.08,6.08,0,0,0-.25,2c0,.14.07.21.22.21Z"/><path class="cls-1" d="M457.28,176.48a.34.34,0,0,1-.36-.36v-1.66h0c-.82,1.37-2.3,2.41-4.89,2.41-3,0-5.08-1.4-5.94-4.14a19.78,19.78,0,0,1,0-9.75c.86-2.74,2.95-4.14,5.94-4.14,2.59,0,4.07,1,4.89,2.37h0v-8.85a.34.34,0,0,1,.36-.36h2.3a.34.34,0,0,1,.36.36v23.76a.34.34,0,0,1-.36.36Zm-.76-5a11,11,0,0,0,.4-3.6,11.12,11.12,0,0,0-.4-3.6,4.08,4.08,0,0,0-7.59,0,12.15,12.15,0,0,0-.4,3.6,11.89,11.89,0,0,0,.4,3.6,4.06,4.06,0,0,0,7.59,0Z"/><path class="cls-1" d="M464.66,172.19a17.07,17.07,0,0,1,0-8.71,7.25,7.25,0,0,1,13.53,0,15.08,15.08,0,0,1,.54,4.93c0,.22-.14.36-.4.36H467.4a.2.2,0,0,0-.22.22,6.47,6.47,0,0,0,.29,2.09,4.25,4.25,0,0,0,4.35,3,5.61,5.61,0,0,0,4.43-1.9c.18-.18.36-.22.54-.07l1.48,1.33a.31.31,0,0,1,0,.5,8.35,8.35,0,0,1-6.73,3C468.08,176.87,465.6,175.18,464.66,172.19Zm10.73-5.83a.19.19,0,0,0,.21-.21,6.08,6.08,0,0,0-.25-2,4.25,4.25,0,0,0-7.92,0,6.08,6.08,0,0,0-.25,2c0,.14.07.21.22.21Z"/><path class="cls-1" d="M487,176.66c-3,0-4.21-1.44-4.21-4.54V152.36a.34.34,0,0,1,.36-.36h2.3a.34.34,0,0,1,.36.36v19.58c0,1.44.54,1.91,1.73,1.91h.68a.34.34,0,0,1,.36.36v2.09a.34.34,0,0,1-.36.36Z"/><path class="cls-1" d="M504.15,176.66c-3,0-4.21-1.44-4.21-4.54V152.36a.34.34,0,0,1,.36-.36h2.3a.34.34,0,0,1,.36.36v19.58c0,1.44.54,1.91,1.73,1.91h.69a.33.33,0,0,1,.35.36v2.09a.34.34,0,0,1-.35.36Z"/><path class="cls-1" d="M520.1,176.48a.34.34,0,0,1-.36-.36V174.5h0a5.25,5.25,0,0,1-4.71,2.37c-3.78,0-6-2.59-6-6.51V159.59a.35.35,0,0,1,.36-.36h2.31a.35.35,0,0,1,.36.36v10c0,2.81,1.25,4.42,3.81,4.42,2.34,0,3.89-1.65,3.89-4.24V159.59a.34.34,0,0,1,.36-.36h2.3a.34.34,0,0,1,.36.36v16.53a.34.34,0,0,1-.36.36Z"/><path class="cls-1" d="M527.59,180.8a.33.33,0,0,1,0-.51l1.48-1.47a.34.34,0,0,1,.54,0,5.75,5.75,0,0,0,4.07,1.72c2.84,0,4.35-1.47,4.35-4.64v-2h0c-.8,1.44-2.27,2.37-4.79,2.37a5.65,5.65,0,0,1-5.8-4.17,18.37,18.37,0,0,1,0-9.08,5.65,5.65,0,0,1,5.8-4.17c2.52,0,4,.93,4.79,2.37h0v-1.62a.35.35,0,0,1,.36-.36h2.31a.35.35,0,0,1,.36.36v16.13c0,4.9-2.67,7.63-7.53,7.63A7.78,7.78,0,0,1,527.59,180.8Zm10.08-9.9a10.77,10.77,0,0,0,.39-3.35,10.89,10.89,0,0,0-.39-3.35,3.89,3.89,0,0,0-7.31,0,10.78,10.78,0,0,0-.43,3.35,10.65,10.65,0,0,0,.43,3.35,3.51,3.51,0,0,0,3.63,2.59A3.58,3.58,0,0,0,537.67,170.9Z"/><path class="cls-1" d="M556.71,176.48a.34.34,0,0,1-.36-.36V174.6h0c-.79,1.3-2.48,2.27-5.11,2.27-3.27,0-5.79-1.69-5.79-5.18s2.52-5.33,6.73-5.33h3.92c.15,0,.22-.07.22-.21v-1.26c0-2.38-.94-3.39-4.14-3.39a6.71,6.71,0,0,0-4.18,1.23.32.32,0,0,1-.5,0l-1-1.66a.38.38,0,0,1,.07-.5,9.54,9.54,0,0,1,5.87-1.69c4.89,0,6.76,1.62,6.76,5.87v11.41a.34.34,0,0,1-.36.36Zm-.43-5.58V169a.2.2,0,0,0-.22-.22h-3.45c-3,0-4.29.87-4.29,2.81,0,1.77,1.3,2.7,3.6,2.7C554.62,174.28,556.28,173,556.28,170.9Z"/><path class="cls-1" d="M564.59,176.48a.35.35,0,0,1-.36-.36V159.59a.35.35,0,0,1,.36-.36h2.31a.35.35,0,0,1,.36.36v1.77h0a4.81,4.81,0,0,1,4.58-2.52,5.29,5.29,0,0,1,3.52,1.29c.18.18.22.33.07.51l-1.33,1.76a.32.32,0,0,1-.5.07,4.89,4.89,0,0,0-2.66-.82c-2.63,0-3.71,2-3.71,5v9.43a.35.35,0,0,1-.36.36Z"/></g></g></svg>