<svg xmlns="http://www.w3.org/2000/svg" viewBox="0 0 580.56 258.96"><defs><style>.cls-1{fill:#4d4d4d;}</style></defs><title>r11</title><g id="Capa_2" data-name="Capa 2"><g id="control_vector" data-name="control vector"><path class="cls-1" d="M21.36.36c.08-.22.18-.36.44-.36h2.34a.45.45,0,0,1,.46.36L33,24.12c.07.21,0,.36-.25.36H30.22a.44.44,0,0,1-.47-.36l-1.87-5.33H18l-1.87,5.33c-.11.25-.25.36-.47.36H13.12a.25.25,0,0,1-.25-.36Zm5.48,15.48L23,4.71h-.07L19,15.84Z"/><path class="cls-1" d="M47.28,24.48a.35.35,0,0,1-.36-.36V14c0-2.77-1.26-4.39-3.85-4.39a3.87,3.87,0,0,0-4,4.21V24.12a.34.34,0,0,1-.36.36h-2.3a.34.34,0,0,1-.36-.36V7.59a.33.33,0,0,1,.36-.35h2.3a.33.33,0,0,1,.36.35V9.18h0A5.45,5.45,0,0,1,44,6.84c3.75,0,6,2.55,6,6.48v10.8a.35.35,0,0,1-.36.36Z"/><path class="cls-1" d="M60,24.66c-3.35,0-4.65-1.52-4.65-4.9V9.9c0-.15-.07-.22-.21-.22H53.66a.34.34,0,0,1-.36-.36V7.59a.33.33,0,0,1,.36-.35H55.1A.19.19,0,0,0,55.31,7V2.16a.34.34,0,0,1,.36-.36H58a.34.34,0,0,1,.36.36V7a.19.19,0,0,0,.21.22h2.74a.34.34,0,0,1,.36.35V9.32a.34.34,0,0,1-.36.36H58.55c-.14,0-.21.07-.21.22v9.75c0,1.73.64,2.2,2.19,2.2h.76a.34.34,0,0,1,.36.36V24.3a.35.35,0,0,1-.36.36Z"/><path class="cls-1" d="M65.14,20.19a13.43,13.43,0,0,1-.58-4.35,13.71,13.71,0,0,1,.54-4.36,6.69,6.69,0,0,1,6.77-4.64,6.68,6.68,0,0,1,6.77,4.64,15.08,15.08,0,0,1,.54,4.93c0,.22-.14.36-.4.36H67.88a.2.2,0,0,0-.22.22A6.47,6.47,0,0,0,68,19.08a4.25,4.25,0,0,0,4.35,3,5.62,5.62,0,0,0,4.43-1.91c.18-.18.36-.22.54-.08l1.48,1.34a.31.31,0,0,1,0,.5,8.35,8.35,0,0,1-6.73,2.95C68.56,24.87,66.08,23.18,65.14,20.19Zm10.73-5.83a.19.19,0,0,0,.21-.21,6.08,6.08,0,0,0-.25-2,4.25,4.25,0,0,0-7.92,0,6.08,6.08,0,0,0-.25,2c0,.14.07.21.22.21Z"/><path class="cls-1" d="M82.13,22.28a.35.35,0,0,1,0-.5l1.48-1.59a.35.35,0,0,1,.5,0,8.37,8.37,0,0,0,5.33,2c2.52,0,3.78-1.08,3.78-2.62,0-1.37-.65-2.13-3.35-2.42L88,17c-3.39-.36-5.15-2-5.15-4.86,0-3.27,2.34-5.25,6.41-5.25a10.32,10.32,0,0,1,6.12,1.91.34.34,0,0,1,.07.5L94.26,10.8a.35.35,0,0,1-.5.07,9.09,9.09,0,0,0-4.64-1.4c-2.16,0-3.28,1-3.28,2.37s.83,2.09,3.38,2.34l1.8.18c3.5.33,5.19,2.09,5.19,4.86,0,3.39-2.45,5.65-6.95,5.65A10.75,10.75,0,0,1,82.13,22.28Z"/><path class="cls-1" d="M119,24.48a.34.34,0,0,1-.36-.36V22.46h0c-.83,1.37-2.3,2.41-4.89,2.41-3,0-5.08-1.4-5.94-4.14a14.25,14.25,0,0,1-.61-4.89,14.2,14.2,0,0,1,.61-4.86c.86-2.74,3-4.14,5.94-4.14,2.59,0,4.06,1,4.89,2.37h0V.36A.34.34,0,0,1,119,0h2.3a.34.34,0,0,1,.36.36V24.12a.34.34,0,0,1-.36.36Zm-.76-5a11,11,0,0,0,.4-3.6,11.12,11.12,0,0,0-.4-3.6,4.08,4.08,0,0,0-7.59,0,12.15,12.15,0,0,0-.4,3.6,11.89,11.89,0,0,0,.4,3.6,4.05,4.05,0,0,0,7.59,0Z"/><path class="cls-1" d="M126.34,20.19a13.43,13.43,0,0,1-.58-4.35,13.43,13.43,0,0,1,.54-4.36,7.26,7.26,0,0,1,13.54,0,15.08,15.08,0,0,1,.54,4.93.35.35,0,0,1-.4.36h-10.9a.2.2,0,0,0-.22.22,6.47,6.47,0,0,0,.29,2.09,4.25,4.25,0,0,0,4.35,3,5.65,5.65,0,0,0,4.43-1.91c.18-.18.36-.22.54-.08L140,21.42a.31.31,0,0,1,0,.5,8.38,8.38,0,0,1-6.73,2.95C129.76,24.87,127.28,23.18,126.34,20.19Zm10.73-5.83a.19.19,0,0,0,.21-.21,6.08,6.08,0,0,0-.25-2,4.25,4.25,0,0,0-7.92,0,6.08,6.08,0,0,0-.25,2c0,.14.07.21.22.21Z"/><path class="cls-1" d="M152.8,24.48a.34.34,0,0,1-.36-.36V7.59a.33.33,0,0,1,.36-.35h2.3a.33.33,0,0,1,.36.35V9.36h0a4.79,4.79,0,0,1,4.57-2.52,5.32,5.32,0,0,1,3.53,1.29c.18.18.21.33.07.51l-1.33,1.76a.33.33,0,0,1-.51.07,4.86,4.86,0,0,0-2.66-.82c-2.63,0-3.71,2-3.71,5v9.43a.34.34,0,0,1-.36.36Z"/><path class="cls-1" d="M165.36,20.19a13.48,13.48,0,0,1-.57-4.35,13.43,13.43,0,0,1,.54-4.36,7.25,7.25,0,0,1,13.53,0,15.08,15.08,0,0,1,.54,4.93.35.35,0,0,1-.39.36H168.1a.2.2,0,0,0-.22.22,6.47,6.47,0,0,0,.29,2.09,4.26,4.26,0,0,0,4.36,3A5.61,5.61,0,0,0,177,20.16c.18-.18.36-.22.54-.08L179,21.42a.32.32,0,0,1,0,.5,8.39,8.39,0,0,1-6.74,2.95C168.78,24.87,166.3,23.18,165.36,20.19Zm10.73-5.83a.19.19,0,0,0,.22-.21,6.05,6.05,0,0,0-.26-2,4.25,4.25,0,0,0-7.92,0,6.08,6.08,0,0,0-.25,2c0,.14.07.21.22.21Z"/><path class="cls-1" d="M194,24.48a.35.35,0,0,1-.36-.36V22.61h0c-.8,1.29-2.49,2.26-5.12,2.26-3.27,0-5.79-1.69-5.79-5.18,0-3.64,2.52-5.33,6.73-5.33h3.92c.15,0,.22-.07.22-.21V12.89c0-2.38-.94-3.39-4.14-3.39a6.73,6.73,0,0,0-4.18,1.23.32.32,0,0,1-.5,0l-1-1.65a.39.39,0,0,1,.07-.51,9.56,9.56,0,0,1,5.87-1.69c4.89,0,6.77,1.62,6.77,5.87V24.12a.35.35,0,0,1-.36.36Zm-.43-5.58V17a.2.2,0,0,0-.22-.22h-3.45c-3,0-4.29.87-4.29,2.81,0,1.76,1.3,2.7,3.6,2.7C191.89,22.28,193.55,21,193.55,18.9Z"/><path class="cls-1" d="M205.65,24.66c-3,0-4.21-1.44-4.21-4.54V.36a.33.33,0,0,1,.35-.36h2.31a.34.34,0,0,1,.36.36V19.94c0,1.44.54,1.91,1.73,1.91h.68a.34.34,0,0,1,.36.36V24.3a.34.34,0,0,1-.36.36Z"/><path class="cls-1" d="M211.05,3.35a.34.34,0,0,1-.36-.36V.36a.34.34,0,0,1,.36-.36h2.44a.34.34,0,0,1,.36.36V3a.34.34,0,0,1-.36.36Zm.07,21.13a.34.34,0,0,1-.36-.36V7.59a.33.33,0,0,1,.36-.35h2.3a.33.33,0,0,1,.36.35V24.12a.34.34,0,0,1-.36.36Z"/><path class="cls-1" d="M218.35,24.48a.35.35,0,0,1-.36-.36V22.21a.56.56,0,0,1,.15-.4L227.6,10V10h-8.78a.34.34,0,0,1-.36-.36v-2a.34.34,0,0,1,.36-.35h12a.33.33,0,0,1,.36.35v2a.55.55,0,0,1-.14.4l-9.39,11.66v.07h9.17a.34.34,0,0,1,.36.36v2a.34.34,0,0,1-.36.36Z"/><path class="cls-1" d="M245.86,24.48a.34.34,0,0,1-.36-.36V22.61h0c-.79,1.29-2.48,2.26-5.11,2.26-3.28,0-5.8-1.69-5.8-5.18,0-3.64,2.52-5.33,6.74-5.33h3.92a.19.19,0,0,0,.21-.21V12.89c0-2.38-.93-3.39-4.13-3.39a6.71,6.71,0,0,0-4.18,1.23c-.18.14-.4.14-.5,0l-1-1.65a.39.39,0,0,1,.08-.51,9.53,9.53,0,0,1,5.86-1.69c4.9,0,6.77,1.62,6.77,5.87V24.12a.34.34,0,0,1-.36.36Zm-.44-5.58V17a.19.19,0,0,0-.21-.22h-3.46c-3,0-4.28.87-4.28,2.81,0,1.76,1.3,2.7,3.6,2.7C243.77,22.28,245.42,21,245.42,18.9Z"/><path class="cls-1" d="M253.74,24.48a.35.35,0,0,1-.36-.36V7.59a.34.34,0,0,1,.36-.35h2.31a.34.34,0,0,1,.36.35V9.36h0A4.8,4.8,0,0,1,261,6.84a5.3,5.3,0,0,1,3.53,1.29c.18.18.22.33.07.51l-1.33,1.76a.32.32,0,0,1-.5.07,4.92,4.92,0,0,0-2.67-.82c-2.62,0-3.7,2-3.7,5v9.43a.35.35,0,0,1-.36.36Z"/><path class="cls-1" d="M274.84,11.48a6.68,6.68,0,0,1,6.8-4.64,6.92,6.92,0,0,1,5.9,2.91.34.34,0,0,1-.1.51l-1.59,1.29a.31.31,0,0,1-.5,0,4.24,4.24,0,0,0-3.71-1.87,3.74,3.74,0,0,0-3.85,2.7,11.4,11.4,0,0,0-.4,3.49,11.52,11.52,0,0,0,.4,3.53,3.74,3.74,0,0,0,3.85,2.7,4.25,4.25,0,0,0,3.71-1.88.31.31,0,0,1,.5,0l1.59,1.29a.34.34,0,0,1,.1.51,6.9,6.9,0,0,1-5.9,2.91c-3.31,0-5.83-1.65-6.8-4.64a14.68,14.68,0,0,1-.54-4.39A14.65,14.65,0,0,1,274.84,11.48Z"/><path class="cls-1" d="M302.45,24.48a.34.34,0,0,1-.36-.36V22.5h0a5.25,5.25,0,0,1-4.71,2.37c-3.78,0-6-2.59-6-6.51V7.59a.33.33,0,0,1,.36-.35H294a.33.33,0,0,1,.36.35V17.64c0,2.81,1.26,4.43,3.82,4.43,2.34,0,3.89-1.66,3.89-4.25V7.59a.33.33,0,0,1,.36-.35h2.3a.33.33,0,0,1,.36.35V24.12a.34.34,0,0,1-.36.36Z"/><path class="cls-1" d="M320.73,24.48a.34.34,0,0,1-.35-.36V22.61h0c-.79,1.29-2.48,2.26-5.11,2.26-3.28,0-5.8-1.69-5.8-5.18,0-3.64,2.52-5.33,6.73-5.33h3.93a.19.19,0,0,0,.21-.21V12.89c0-2.38-.93-3.39-4.14-3.39A6.7,6.7,0,0,0,312,10.73a.33.33,0,0,1-.51,0l-1-1.65a.39.39,0,0,1,.07-.51,9.58,9.58,0,0,1,5.87-1.69c4.9,0,6.77,1.62,6.77,5.87V24.12a.35.35,0,0,1-.36.36Zm-.43-5.58V17a.19.19,0,0,0-.21-.22h-3.46c-3,0-4.28.87-4.28,2.81,0,1.76,1.29,2.7,3.6,2.7C318.65,22.28,320.3,21,320.3,18.9Z"/><path class="cls-1" d="M332.4,24.66c-3,0-4.21-1.44-4.21-4.54V.36a.34.34,0,0,1,.36-.36h2.3a.34.34,0,0,1,.36.36V19.94c0,1.44.54,1.91,1.73,1.91h.68a.34.34,0,0,1,.36.36V24.3a.34.34,0,0,1-.36.36Z"/><path class="cls-1" d="M348.31,31a.34.34,0,0,1-.36-.36V22.46h0c-.83,1.37-2.31,2.41-4.9,2.41-3,0-5.08-1.4-5.94-4.14a14.25,14.25,0,0,1-.61-4.89,14.2,14.2,0,0,1,.61-4.86c.86-2.74,2.95-4.14,5.94-4.14,2.59,0,4.07,1,4.9,2.37h0V7.59a.33.33,0,0,1,.36-.35h2.3a.33.33,0,0,1,.36.35v23a.34.34,0,0,1-.36.36Zm-.76-11.52a11,11,0,0,0,.4-3.6,11.12,11.12,0,0,0-.4-3.6,4.08,4.08,0,0,0-7.59,0,12.15,12.15,0,0,0-.4,3.6,11.89,11.89,0,0,0,.4,3.6,4.05,4.05,0,0,0,7.59,0Z"/><path class="cls-1" d="M367,24.48a.35.35,0,0,1-.36-.36V22.5h0a5.26,5.26,0,0,1-4.72,2.37c-3.78,0-6-2.59-6-6.51V7.59a.33.33,0,0,1,.36-.35h2.3a.33.33,0,0,1,.36.35V17.64c0,2.81,1.26,4.43,3.82,4.43,2.34,0,3.88-1.66,3.88-4.25V7.59a.34.34,0,0,1,.36-.35h2.31a.34.34,0,0,1,.36.35V24.12a.35.35,0,0,1-.36.36Z"/><path class="cls-1" d="M375.13,3.35a.35.35,0,0,1-.36-.36V.36a.34.34,0,0,1,.36-.36h2.45a.34.34,0,0,1,.36.36V3a.35.35,0,0,1-.36.36Zm.07,21.13a.35.35,0,0,1-.36-.36V7.59a.34.34,0,0,1,.36-.35h2.31a.34.34,0,0,1,.36.35V24.12a.35.35,0,0,1-.36.36Z"/><path class="cls-1" d="M382.58,20.19a13.48,13.48,0,0,1-.57-4.35,13.43,13.43,0,0,1,.54-4.36,7.25,7.25,0,0,1,13.53,0,15.08,15.08,0,0,1,.54,4.93.35.35,0,0,1-.39.36H385.32a.2.2,0,0,0-.22.22,6.47,6.47,0,0,0,.29,2.09,4.26,4.26,0,0,0,4.36,3,5.61,5.61,0,0,0,4.42-1.91c.18-.18.36-.22.54-.08l1.48,1.34a.32.32,0,0,1,0,.5,8.39,8.39,0,0,1-6.74,2.95C386,24.87,383.52,23.18,382.58,20.19Zm10.73-5.83a.19.19,0,0,0,.22-.21,6.05,6.05,0,0,0-.26-2,4.25,4.25,0,0,0-7.92,0,6.08,6.08,0,0,0-.25,2c0,.14.07.21.22.21Z"/><path class="cls-1" d="M401.12,24.48a.35.35,0,0,1-.36-.36V7.59a.34.34,0,0,1,.36-.35h2.31a.34.34,0,0,1,.36.35V9.36h0a4.8,4.8,0,0,1,4.57-2.52,5.3,5.3,0,0,1,3.53,1.29c.18.18.22.33.07.51l-1.33,1.76a.32.32,0,0,1-.5.07,4.89,4.89,0,0,0-2.67-.82c-2.62,0-3.7,2-3.7,5v9.43a.35.35,0,0,1-.36.36Z"/><path class="cls-1" d="M427.73,24.66c-3.35,0-4.65-1.52-4.65-4.9V9.9c0-.15-.07-.22-.21-.22h-1.44a.34.34,0,0,1-.36-.36V7.59a.33.33,0,0,1,.36-.35h1.44a.19.19,0,0,0,.21-.22V2.16a.34.34,0,0,1,.36-.36h2.31a.33.33,0,0,1,.35.36V7a.2.2,0,0,0,.22.22h2.74a.34.34,0,0,1,.36.35V9.32a.34.34,0,0,1-.36.36h-2.74a.2.2,0,0,0-.22.22v9.75c0,1.73.65,2.2,2.2,2.2h.76a.34.34,0,0,1,.36.36V24.3a.35.35,0,0,1-.36.36Z"/><path class="cls-1" d="M433.74,24.48a.34.34,0,0,1-.36-.36V7.59a.33.33,0,0,1,.36-.35H436a.33.33,0,0,1,.36.35V9.36h0A4.79,4.79,0,0,1,441,6.84a5.32,5.32,0,0,1,3.53,1.29c.18.18.21.33.07.51l-1.33,1.76a.33.33,0,0,1-.51.07,4.86,4.86,0,0,0-2.66-.82c-2.63,0-3.71,2-3.71,5v9.43a.34.34,0,0,1-.36.36Z"/><path class="cls-1" d="M457,24.48a.35.35,0,0,1-.36-.36V22.61h0c-.8,1.29-2.49,2.26-5.12,2.26-3.27,0-5.79-1.69-5.79-5.18,0-3.64,2.52-5.33,6.73-5.33h3.92c.15,0,.22-.07.22-.21V12.89c0-2.38-.94-3.39-4.14-3.39a6.68,6.68,0,0,0-4.17,1.23.33.33,0,0,1-.51,0l-1-1.65a.39.39,0,0,1,.07-.51,9.56,9.56,0,0,1,5.87-1.69c4.89,0,6.77,1.62,6.77,5.87V24.12a.35.35,0,0,1-.36.36Zm-.43-5.58V17a.2.2,0,0,0-.22-.22h-3.45c-3,0-4.28.87-4.28,2.81,0,1.76,1.29,2.7,3.6,2.7C454.9,22.28,456.56,21,456.56,18.9Z"/><path class="cls-1" d="M464.88,24.48a.34.34,0,0,1-.36-.36V.36a.34.34,0,0,1,.36-.36h2.3a.34.34,0,0,1,.36.36V9.21h0c.83-1.36,2.3-2.37,4.89-2.37,3,0,5.08,1.4,5.94,4.14a14.2,14.2,0,0,1,.61,4.86,14.25,14.25,0,0,1-.61,4.89c-.86,2.74-3,4.14-5.94,4.14-2.59,0-4.06-1-4.89-2.41h0v1.66a.34.34,0,0,1-.36.36Zm10.65-5a11.89,11.89,0,0,0,.4-3.6,12.15,12.15,0,0,0-.4-3.6,4.08,4.08,0,0,0-7.59,0,11.12,11.12,0,0,0-.4,3.6,11,11,0,0,0,.4,3.6,4.05,4.05,0,0,0,7.59,0Z"/><path class="cls-1" d="M493.6,24.48a.35.35,0,0,1-.36-.36V22.61h0c-.79,1.29-2.49,2.26-5.11,2.26-3.28,0-5.8-1.69-5.8-5.18,0-3.64,2.52-5.33,6.73-5.33H493a.19.19,0,0,0,.21-.21V12.89c0-2.38-.93-3.39-4.14-3.39a6.7,6.7,0,0,0-4.17,1.23.33.33,0,0,1-.51,0l-1-1.65a.39.39,0,0,1,.07-.51,9.58,9.58,0,0,1,5.87-1.69c4.9,0,6.77,1.62,6.77,5.87V24.12a.35.35,0,0,1-.36.36Zm-.43-5.58V17a.19.19,0,0,0-.21-.22H489.5c-3,0-4.28.87-4.28,2.81,0,1.76,1.29,2.7,3.6,2.7C491.52,22.28,493.17,21,493.17,18.9Z"/><path class="cls-1" d="M498.29,31a.34.34,0,0,1-.36-.36V28.51a.34.34,0,0,1,.36-.36h.57c1.69,0,2.27-.47,2.27-2.31V7.59a.33.33,0,0,1,.36-.35h2.3a.33.33,0,0,1,.36.35V25.77c0,3.71-1.65,5.19-5.14,5.19Zm3.13-27.61a.34.34,0,0,1-.36-.36V.36a.34.34,0,0,1,.36-.36h2.45a.34.34,0,0,1,.36.36V3a.35.35,0,0,1-.36.36Z"/><path class="cls-1" d="M508.87,20.23a12.85,12.85,0,0,1-.58-4.39,12.78,12.78,0,0,1,.58-4.36c.93-3,3.45-4.64,6.8-4.64s5.87,1.69,6.81,4.64a13.07,13.07,0,0,1,.57,4.36,13.14,13.14,0,0,1-.57,4.39,7.31,7.31,0,0,1-13.61,0Zm10.69-.86a11.27,11.27,0,0,0,.4-3.53,10.91,10.91,0,0,0-.4-3.49,4.15,4.15,0,0,0-7.78,0,11.26,11.26,0,0,0-.39,3.49,11.63,11.63,0,0,0,.39,3.53,4.15,4.15,0,0,0,7.78,0Z"/><path class="cls-1" d="M534.64,20.19a13.48,13.48,0,0,1-.57-4.35,13.43,13.43,0,0,1,.54-4.36,7.25,7.25,0,0,1,13.53,0,15.08,15.08,0,0,1,.54,4.93.35.35,0,0,1-.39.36H537.38a.2.2,0,0,0-.22.22,6.47,6.47,0,0,0,.29,2.09,4.27,4.27,0,0,0,4.36,3,5.61,5.61,0,0,0,4.42-1.91c.19-.18.36-.22.54-.08l1.48,1.34a.32.32,0,0,1,0,.5,8.38,8.38,0,0,1-6.73,2.95C538.06,24.87,535.58,23.18,534.64,20.19Zm10.73-5.83c.15,0,.22-.07.22-.21a5.79,5.79,0,0,0-.26-2,4.25,4.25,0,0,0-7.91,0,6.05,6.05,0,0,0-.26,2,.19.19,0,0,0,.22.21Z"/><path class="cls-1" d="M564,24.48a.34.34,0,0,1-.36-.36V14c0-2.77-1.26-4.39-3.85-4.39a3.87,3.87,0,0,0-4,4.21V24.12a.35.35,0,0,1-.36.36h-2.31a.35.35,0,0,1-.36-.36V7.59a.34.34,0,0,1,.36-.35h2.31a.34.34,0,0,1,.36.35V9.18h0a5.47,5.47,0,0,1,4.83-2.34c3.74,0,6,2.55,6,6.48v10.8a.34.34,0,0,1-.36.36Z"/><path class="cls-1" d="M12.15,62.48a.34.34,0,0,1-.36-.36V60.61h0C11,61.9,9.27,62.87,6.64,62.87c-3.27,0-5.79-1.69-5.79-5.18s2.52-5.33,6.73-5.33H11.5a.19.19,0,0,0,.22-.21V50.89c0-2.38-.94-3.39-4.14-3.39A6.71,6.71,0,0,0,3.4,48.73a.32.32,0,0,1-.5,0L1.93,47A.38.38,0,0,1,2,46.53a9.53,9.53,0,0,1,5.86-1.69c4.9,0,6.77,1.62,6.77,5.87V62.12a.34.34,0,0,1-.36.36Zm-.43-5.58V55a.2.2,0,0,0-.22-.22H8c-3,0-4.28.87-4.28,2.81,0,1.76,1.3,2.7,3.6,2.7C10.06,60.28,11.72,59,11.72,56.9Z"/><path class="cls-1" d="M23.81,62.66c-3,0-4.21-1.44-4.21-4.54V38.36A.34.34,0,0,1,20,38h2.31a.34.34,0,0,1,.36.36V57.94c0,1.44.54,1.91,1.72,1.91H25a.34.34,0,0,1,.36.36V62.3a.35.35,0,0,1-.36.36Z"/><path class="cls-1" d="M33.75,62.66c-3.35,0-4.64-1.52-4.64-4.9V47.9a.2.2,0,0,0-.22-.22H27.45a.34.34,0,0,1-.36-.36V45.59a.33.33,0,0,1,.36-.35h1.44a.2.2,0,0,0,.22-.22V40.16a.34.34,0,0,1,.36-.36h2.3a.34.34,0,0,1,.36.36V45a.2.2,0,0,0,.22.22h2.73a.33.33,0,0,1,.36.35v1.73a.34.34,0,0,1-.36.36H32.35a.19.19,0,0,0-.22.22v9.75c0,1.73.65,2.2,2.19,2.2h.76a.34.34,0,0,1,.36.36V62.3a.34.34,0,0,1-.36.36Z"/><path class="cls-1" d="M50.24,62.48a.34.34,0,0,1-.36-.36V60.5h0a5.25,5.25,0,0,1-4.72,2.37c-3.77,0-6-2.59-6-6.51V45.59a.33.33,0,0,1,.36-.35h2.3a.33.33,0,0,1,.36.35v10c0,2.81,1.26,4.43,3.82,4.43,2.34,0,3.89-1.66,3.89-4.25V45.59a.33.33,0,0,1,.36-.35h2.3a.33.33,0,0,1,.36.35V62.12a.34.34,0,0,1-.36.36Z"/><path class="cls-1" d="M58.44,62.48a.35.35,0,0,1-.36-.36V45.59a.34.34,0,0,1,.36-.35h2.31a.34.34,0,0,1,.36.35v1.77h0a4.81,4.81,0,0,1,4.58-2.52,5.29,5.29,0,0,1,3.52,1.29c.18.18.22.33.08.51L68,48.4a.32.32,0,0,1-.5.07,4.89,4.89,0,0,0-2.66-.82c-2.63,0-3.71,2.05-3.71,5v9.43a.35.35,0,0,1-.36.36Z"/><path class="cls-1" d="M81.7,62.48a.34.34,0,0,1-.36-.36V60.61h0c-.79,1.29-2.48,2.26-5.11,2.26-3.27,0-5.79-1.69-5.79-5.18s2.52-5.33,6.73-5.33h3.92c.15,0,.22-.07.22-.21V50.89c0-2.38-.94-3.39-4.14-3.39A6.71,6.71,0,0,0,73,48.73a.32.32,0,0,1-.5,0l-1-1.65a.39.39,0,0,1,.07-.51,9.56,9.56,0,0,1,5.87-1.69c4.89,0,6.76,1.62,6.76,5.87V62.12a.34.34,0,0,1-.36.36Zm-.43-5.58V55a.2.2,0,0,0-.22-.22H77.6c-3,0-4.29.87-4.29,2.81,0,1.76,1.3,2.7,3.6,2.7C79.61,60.28,81.27,59,81.27,56.9Z"/><path class="cls-1" d="M88,60.28a.33.33,0,0,1,0-.5l1.47-1.59a.36.36,0,0,1,.51,0,8.34,8.34,0,0,0,5.32,2c2.52,0,3.78-1.08,3.78-2.62,0-1.37-.64-2.13-3.34-2.42L93.94,55c-3.38-.36-5.15-2.05-5.15-4.86,0-3.27,2.34-5.25,6.41-5.25a10.32,10.32,0,0,1,6.12,1.91.34.34,0,0,1,.07.5l-1.22,1.55a.36.36,0,0,1-.51.07A9.06,9.06,0,0,0,95,47.47c-2.16,0-3.27,1-3.27,2.37s.82,2.09,3.38,2.34l1.8.18c3.49.33,5.18,2.09,5.18,4.86,0,3.39-2.45,5.65-6.94,5.65A10.73,10.73,0,0,1,88,60.28Z"/><path class="cls-1" d="M114.42,62.48a.35.35,0,0,1-.36-.36V45.59a.34.34,0,0,1,.36-.35h2.31a.34.34,0,0,1,.36.35v1.77h0a4.81,4.81,0,0,1,4.58-2.52,5.29,5.29,0,0,1,3.52,1.29c.18.18.22.33.08.51L124,48.4a.32.32,0,0,1-.5.07,4.89,4.89,0,0,0-2.66-.82c-2.63,0-3.71,2.05-3.71,5v9.43a.35.35,0,0,1-.36.36Z"/><path class="cls-1" d="M127,58.19a13.43,13.43,0,0,1-.58-4.35,13.43,13.43,0,0,1,.54-4.36,7.26,7.26,0,0,1,13.54,0,15.08,15.08,0,0,1,.54,4.93.35.35,0,0,1-.4.36H129.72a.19.19,0,0,0-.21.22,6.47,6.47,0,0,0,.29,2.09,4.25,4.25,0,0,0,4.35,3,5.65,5.65,0,0,0,4.43-1.91c.18-.18.36-.22.54-.08l1.47,1.34a.32.32,0,0,1,0,.5,8.38,8.38,0,0,1-6.73,2.95C130.41,62.87,127.92,61.18,127,58.19Zm10.73-5.83a.19.19,0,0,0,.21-.21,6.08,6.08,0,0,0-.25-1.95,4.25,4.25,0,0,0-7.92,0,6.08,6.08,0,0,0-.25,1.95.19.19,0,0,0,.21.21Z"/><path class="cls-1" d="M144.66,49.48a6.7,6.7,0,0,1,6.81-4.64,6.94,6.94,0,0,1,5.9,2.91c.11.18.11.33-.11.51l-1.58,1.29a.32.32,0,0,1-.51,0,4.22,4.22,0,0,0-3.7-1.87,3.74,3.74,0,0,0-3.85,2.7,11.4,11.4,0,0,0-.4,3.49,11.52,11.52,0,0,0,.4,3.53,3.74,3.74,0,0,0,3.85,2.7,4.23,4.23,0,0,0,3.7-1.88.32.32,0,0,1,.51,0l1.58,1.29c.22.18.22.33.11.51a6.91,6.91,0,0,1-5.9,2.91,6.69,6.69,0,0,1-6.81-4.64,15,15,0,0,1-.54-4.39A15,15,0,0,1,144.66,49.48Z"/><path class="cls-1" d="M172.27,62.48a.35.35,0,0,1-.36-.36V60.5h0a5.25,5.25,0,0,1-4.72,2.37c-3.78,0-6-2.59-6-6.51V45.59a.33.33,0,0,1,.36-.35h2.3a.33.33,0,0,1,.36.35v10c0,2.81,1.26,4.43,3.82,4.43,2.34,0,3.88-1.66,3.88-4.25V45.59a.34.34,0,0,1,.36-.35h2.31a.34.34,0,0,1,.36.35V62.12a.35.35,0,0,1-.36.36Z"/><path class="cls-1" d="M179.66,58.19a13.16,13.16,0,0,1-.58-4.35,13.43,13.43,0,0,1,.54-4.36,7.25,7.25,0,0,1,13.53,0,15.08,15.08,0,0,1,.54,4.93.35.35,0,0,1-.39.36H182.39a.2.2,0,0,0-.22.22,6.47,6.47,0,0,0,.29,2.09,4.27,4.27,0,0,0,4.36,3,5.65,5.65,0,0,0,4.43-1.91c.18-.18.36-.22.54-.08l1.47,1.34a.32.32,0,0,1,0,.5,8.38,8.38,0,0,1-6.73,2.95C183.07,62.87,180.59,61.18,179.66,58.19Zm10.72-5.83c.15,0,.22-.07.22-.21a6.08,6.08,0,0,0-.25-1.95,4.25,4.25,0,0,0-7.92,0,6.05,6.05,0,0,0-.26,1.95.19.19,0,0,0,.22.21Z"/><path class="cls-1" d="M198.19,62.48a.35.35,0,0,1-.36-.36V45.59a.34.34,0,0,1,.36-.35h2.31a.34.34,0,0,1,.36.35v1.77h0a4.81,4.81,0,0,1,4.58-2.52A5.29,5.29,0,0,1,209,46.13c.18.18.22.33.08.51l-1.34,1.76a.32.32,0,0,1-.5.07,4.89,4.89,0,0,0-2.66-.82c-2.63,0-3.71,2.05-3.71,5v9.43a.35.35,0,0,1-.36.36Z"/><path class="cls-1" d="M222,62.48a.34.34,0,0,1-.36-.36V60.46h0c-.83,1.37-2.3,2.41-4.9,2.41a5.71,5.71,0,0,1-5.94-4.14,14.5,14.5,0,0,1-.61-4.89,14.45,14.45,0,0,1,.61-4.86,5.71,5.71,0,0,1,5.94-4.14c2.6,0,4.07,1,4.9,2.37h0V38.36A.34.34,0,0,1,222,38h2.3a.34.34,0,0,1,.36.36V62.12a.34.34,0,0,1-.36.36Zm-.76-5a11,11,0,0,0,.4-3.6,11.12,11.12,0,0,0-.4-3.6,4.08,4.08,0,0,0-7.6,0,12.54,12.54,0,0,0-.39,3.6,12.28,12.28,0,0,0,.39,3.6,4.06,4.06,0,0,0,7.6,0Z"/><path class="cls-1" d="M229.41,58.19a13.43,13.43,0,0,1-.58-4.35,13.43,13.43,0,0,1,.54-4.36,7.26,7.26,0,0,1,13.54,0,15.08,15.08,0,0,1,.54,4.93.35.35,0,0,1-.4.36H232.14a.19.19,0,0,0-.21.22,6.5,6.5,0,0,0,.28,2.09,4.27,4.27,0,0,0,4.36,3A5.65,5.65,0,0,0,241,58.16c.18-.18.36-.22.54-.08L243,59.42a.32.32,0,0,1,0,.5,8.38,8.38,0,0,1-6.73,2.95C232.83,62.87,230.34,61.18,229.41,58.19Zm10.72-5.83c.15,0,.22-.07.22-.21a6.08,6.08,0,0,0-.25-1.95,4.25,4.25,0,0,0-7.92,0,6.08,6.08,0,0,0-.25,1.95.19.19,0,0,0,.21.21Z"/><path class="cls-1" d="M254.32,60.28a.33.33,0,0,1,0-.5l1.47-1.59a.36.36,0,0,1,.51,0,8.34,8.34,0,0,0,5.33,2c2.51,0,3.77-1.08,3.77-2.62,0-1.37-.64-2.13-3.34-2.42L260.22,55c-3.38-.36-5.15-2.05-5.15-4.86,0-3.27,2.34-5.25,6.41-5.25a10.32,10.32,0,0,1,6.12,1.91.34.34,0,0,1,.07.5l-1.22,1.55a.36.36,0,0,1-.51.07,9.06,9.06,0,0,0-4.64-1.4c-2.16,0-3.27,1-3.27,2.37s.82,2.09,3.38,2.34l1.8.18c3.49.33,5.18,2.09,5.18,4.86,0,3.39-2.45,5.65-6.94,5.65A10.73,10.73,0,0,1,254.32,60.28Z"/><path class="cls-1" d="M272.71,41.35a.35.35,0,0,1-.36-.36V38.36a.34.34,0,0,1,.36-.36h2.45a.34.34,0,0,1,.36.36V41a.34.34,0,0,1-.36.36Zm.08,21.13a.34.34,0,0,1-.36-.36V45.59a.33.33,0,0,1,.36-.35h2.3a.33.33,0,0,1,.36.35V62.12a.34.34,0,0,1-.36.36Z"/><path class="cls-1" d="M280.17,58.19a13.16,13.16,0,0,1-.58-4.35,13.43,13.43,0,0,1,.54-4.36,7.25,7.25,0,0,1,13.53,0,15.08,15.08,0,0,1,.54,4.93.35.35,0,0,1-.39.36H282.9a.2.2,0,0,0-.22.22,6.47,6.47,0,0,0,.29,2.09,4.27,4.27,0,0,0,4.36,3,5.65,5.65,0,0,0,4.43-1.91c.18-.18.36-.22.54-.08l1.47,1.34a.32.32,0,0,1,0,.5,8.38,8.38,0,0,1-6.73,2.95C283.58,62.87,281.1,61.18,280.17,58.19Zm10.72-5.83c.15,0,.22-.07.22-.21a6.08,6.08,0,0,0-.25-1.95,4.25,4.25,0,0,0-7.92,0,6.05,6.05,0,0,0-.26,1.95.19.19,0,0,0,.22.21Z"/><path class="cls-1" d="M320.37,62.48a.35.35,0,0,1-.36-.36V52c0-2.77-1.26-4.39-3.85-4.39a3.89,3.89,0,0,0-4,4.21V62.12a.34.34,0,0,1-.36.36h-2.3a.34.34,0,0,1-.36-.36V52c0-2.77-1.26-4.39-3.85-4.39a3.87,3.87,0,0,0-4,4.21V62.12a.35.35,0,0,1-.36.36H298.7a.35.35,0,0,1-.36-.36V45.59a.34.34,0,0,1,.36-.35H301a.34.34,0,0,1,.36.35v1.59h0a5.47,5.47,0,0,1,4.83-2.34,5.41,5.41,0,0,1,5,2.7h0a6.41,6.41,0,0,1,5.58-2.7c4,0,6.16,2.55,6.16,6.48v10.8a.35.35,0,0,1-.36.36Z"/><path class="cls-1" d="M328.4,69a.35.35,0,0,1-.36-.36v-23a.34.34,0,0,1,.36-.35h2.31a.34.34,0,0,1,.36.35v1.62h0c.83-1.36,2.31-2.37,4.9-2.37,3,0,5.07,1.4,5.94,4.14a14.2,14.2,0,0,1,.61,4.86,14.25,14.25,0,0,1-.61,4.89c-.87,2.74-2.95,4.14-5.94,4.14-2.59,0-4.07-1-4.9-2.41h0V68.6a.35.35,0,0,1-.36.36Zm10.66-11.52a11.94,11.94,0,0,0,.39-3.6,12.2,12.2,0,0,0-.39-3.6,4.08,4.08,0,0,0-7.6,0,11.47,11.47,0,0,0-.39,3.6,11.35,11.35,0,0,0,.39,3.6,4.06,4.06,0,0,0,7.6,0Z"/><path class="cls-1" d="M347.05,62.48a.35.35,0,0,1-.36-.36V45.59a.34.34,0,0,1,.36-.35h2.31a.34.34,0,0,1,.36.35v1.77h0a4.8,4.8,0,0,1,4.57-2.52,5.3,5.3,0,0,1,3.53,1.29c.18.18.22.33.07.51l-1.33,1.76a.32.32,0,0,1-.5.07,4.92,4.92,0,0,0-2.67-.82c-2.62,0-3.7,2.05-3.7,5v9.43a.35.35,0,0,1-.36.36Z"/><path class="cls-1" d="M359.62,58.19a13.43,13.43,0,0,1-.58-4.35,13.43,13.43,0,0,1,.54-4.36,7.25,7.25,0,0,1,13.53,0,15.08,15.08,0,0,1,.54,4.93.35.35,0,0,1-.39.36H362.35a.19.19,0,0,0-.21.22,6.5,6.5,0,0,0,.28,2.09,4.27,4.27,0,0,0,4.36,3,5.65,5.65,0,0,0,4.43-1.91c.18-.18.36-.22.54-.08l1.47,1.34a.32.32,0,0,1,0,.5,8.38,8.38,0,0,1-6.73,2.95C363,62.87,360.55,61.18,359.62,58.19Zm10.72-5.83c.15,0,.22-.07.22-.21a6.08,6.08,0,0,0-.25-1.95,4.25,4.25,0,0,0-7.92,0,6.08,6.08,0,0,0-.25,1.95.19.19,0,0,0,.21.21Z"/><path class="cls-1" d="M385.21,49.48a6.68,6.68,0,0,1,6.8-4.64,6.94,6.94,0,0,1,5.91,2.91c.11.18.11.33-.11.51l-1.58,1.29a.32.32,0,0,1-.51,0A4.24,4.24,0,0,0,392,47.65a3.74,3.74,0,0,0-3.85,2.7,11.44,11.44,0,0,0-.39,3.49,11.56,11.56,0,0,0,.39,3.53,3.74,3.74,0,0,0,3.85,2.7,4.25,4.25,0,0,0,3.71-1.88.32.32,0,0,1,.51,0l1.58,1.29c.22.18.22.33.11.51A6.92,6.92,0,0,1,392,62.87c-3.31,0-5.83-1.65-6.8-4.64a15,15,0,0,1-.54-4.39A15,15,0,0,1,385.21,49.48Z"/><path class="cls-1" d="M401.09,58.23a12.85,12.85,0,0,1-.58-4.39,12.78,12.78,0,0,1,.58-4.36c.93-2.95,3.45-4.64,6.8-4.64s5.87,1.69,6.8,4.64a12.78,12.78,0,0,1,.58,4.36,12.85,12.85,0,0,1-.58,4.39,7.3,7.3,0,0,1-13.6,0Zm10.69-.86a11.63,11.63,0,0,0,.39-3.53,11.26,11.26,0,0,0-.39-3.49,4.15,4.15,0,0,0-7.78,0,11,11,0,0,0-.39,3.49,11.32,11.32,0,0,0,.39,3.53,4.15,4.15,0,0,0,7.78,0Z"/><path class="cls-1" d="M430.6,62.48a.35.35,0,0,1-.36-.36V52c0-2.77-1.26-4.39-3.85-4.39a3.87,3.87,0,0,0-4,4.21V62.12a.34.34,0,0,1-.36.36h-2.3a.34.34,0,0,1-.36-.36V45.59a.33.33,0,0,1,.36-.35h2.3a.33.33,0,0,1,.36.35v1.59h0a5.45,5.45,0,0,1,4.82-2.34c3.75,0,6,2.55,6,6.48v10.8a.35.35,0,0,1-.36.36Z"/><path class="cls-1" d="M443.28,62.66c-3.35,0-4.65-1.52-4.65-4.9V47.9c0-.15-.07-.22-.21-.22H437a.34.34,0,0,1-.36-.36V45.59a.33.33,0,0,1,.36-.35h1.44a.19.19,0,0,0,.21-.22V40.16a.34.34,0,0,1,.36-.36h2.31a.34.34,0,0,1,.36.36V45a.19.19,0,0,0,.21.22h2.74a.34.34,0,0,1,.36.35v1.73a.34.34,0,0,1-.36.36h-2.74c-.14,0-.21.07-.21.22v9.75c0,1.73.64,2.2,2.19,2.2h.76a.34.34,0,0,1,.36.36V62.3a.35.35,0,0,1-.36.36Z"/><path class="cls-1" d="M459.37,62.48a.34.34,0,0,1-.36-.36V60.61h0c-.79,1.29-2.48,2.26-5.11,2.26-3.27,0-5.79-1.69-5.79-5.18s2.52-5.33,6.73-5.33h3.92a.19.19,0,0,0,.22-.21V50.89c0-2.38-.94-3.39-4.14-3.39a6.71,6.71,0,0,0-4.18,1.23.32.32,0,0,1-.5,0l-1-1.65a.38.38,0,0,1,.07-.51,9.53,9.53,0,0,1,5.86-1.69c4.9,0,6.77,1.62,6.77,5.87V62.12a.34.34,0,0,1-.36.36Zm-.43-5.58V55a.2.2,0,0,0-.22-.22h-3.46c-3,0-4.28.87-4.28,2.81,0,1.76,1.3,2.7,3.6,2.7C457.28,60.28,458.94,59,458.94,56.9Z"/><path class="cls-1" d="M467.25,62.48a.35.35,0,0,1-.36-.36V45.59a.34.34,0,0,1,.36-.35h2.31a.34.34,0,0,1,.36.35v1.77h0a4.8,4.8,0,0,1,4.57-2.52,5.3,5.3,0,0,1,3.53,1.29c.18.18.22.33.07.51l-1.33,1.76a.32.32,0,0,1-.5.07,4.89,4.89,0,0,0-2.67-.82c-2.62,0-3.7,2.05-3.7,5v9.43a.35.35,0,0,1-.36.36Z"/><path class="cls-1" d="M488.35,49.48a6.68,6.68,0,0,1,6.8-4.64,6.94,6.94,0,0,1,5.91,2.91.35.35,0,0,1-.11.51l-1.59,1.29a.31.31,0,0,1-.5,0,4.24,4.24,0,0,0-3.71-1.87,3.74,3.74,0,0,0-3.85,2.7,11.4,11.4,0,0,0-.4,3.49,11.52,11.52,0,0,0,.4,3.53,3.74,3.74,0,0,0,3.85,2.7,4.25,4.25,0,0,0,3.71-1.88.31.31,0,0,1,.5,0L501,59.45a.35.35,0,0,1,.11.51,6.92,6.92,0,0,1-5.91,2.91c-3.31,0-5.83-1.65-6.8-4.64a14.68,14.68,0,0,1-.54-4.39A14.65,14.65,0,0,1,488.35,49.48Z"/><path class="cls-1" d="M504.23,58.23a12.85,12.85,0,0,1-.58-4.39,12.78,12.78,0,0,1,.58-4.36c.93-2.95,3.45-4.64,6.8-4.64s5.87,1.69,6.8,4.64a12.78,12.78,0,0,1,.58,4.36,12.85,12.85,0,0,1-.58,4.39,7.3,7.3,0,0,1-13.6,0Zm10.69-.86a11.63,11.63,0,0,0,.39-3.53,11.26,11.26,0,0,0-.39-3.49,4.15,4.15,0,0,0-7.78,0,11,11,0,0,0-.39,3.49,11.32,11.32,0,0,0,.39,3.53,4.15,4.15,0,0,0,7.78,0Z"/><path class="cls-1" d="M533.74,62.48a.35.35,0,0,1-.36-.36V52c0-2.77-1.26-4.39-3.85-4.39a3.87,3.87,0,0,0-4,4.21V62.12a.34.34,0,0,1-.36.36h-2.3a.34.34,0,0,1-.36-.36V45.59a.33.33,0,0,1,.36-.35h2.3a.33.33,0,0,1,.36.35v1.59h0a5.45,5.45,0,0,1,4.82-2.34c3.75,0,6,2.55,6,6.48v10.8a.35.35,0,0,1-.36.36Z"/><path class="cls-1" d="M548.14,60.28a.35.35,0,0,1,0-.5l1.48-1.59a.35.35,0,0,1,.5,0,8.37,8.37,0,0,0,5.33,2c2.52,0,3.78-1.08,3.78-2.62,0-1.37-.65-2.13-3.35-2.42L554.05,55c-3.39-.36-5.15-2.05-5.15-4.86,0-3.27,2.34-5.25,6.41-5.25a10.32,10.32,0,0,1,6.12,1.91.34.34,0,0,1,.07.5l-1.23,1.55a.35.35,0,0,1-.5.07,9.09,9.09,0,0,0-4.64-1.4c-2.16,0-3.28,1-3.28,2.37s.83,2.09,3.39,2.34l1.8.18c3.49.33,5.18,2.09,5.18,4.86,0,3.39-2.45,5.65-7,5.65A10.75,10.75,0,0,1,548.14,60.28Z"/><path class="cls-1" d="M577.09,62.48a.34.34,0,0,1-.36-.36V60.5h0A5.25,5.25,0,0,1,572,62.87c-3.77,0-6-2.59-6-6.51V45.59a.33.33,0,0,1,.36-.35h2.3a.33.33,0,0,1,.36.35v10c0,2.81,1.26,4.43,3.82,4.43,2.34,0,3.89-1.66,3.89-4.25V45.59a.33.33,0,0,1,.36-.35h2.3a.33.33,0,0,1,.36.35V62.12a.34.34,0,0,1-.36.36Z"/><path class="cls-1" d="M18,96.19a13.48,13.48,0,0,1-.57-4.35A13.43,13.43,0,0,1,18,87.48a6.67,6.67,0,0,1,6.76-4.64,6.68,6.68,0,0,1,6.77,4.64A15.08,15.08,0,0,1,32,92.41c0,.22-.14.36-.4.36H20.72a.2.2,0,0,0-.22.22,6.47,6.47,0,0,0,.29,2.09,4.26,4.26,0,0,0,4.36,3,5.61,5.61,0,0,0,4.42-1.91c.18-.18.36-.22.54-.08l1.48,1.34a.31.31,0,0,1,0,.5,8.35,8.35,0,0,1-6.73,3C21.4,100.87,18.92,99.18,18,96.19Zm10.73-5.83a.19.19,0,0,0,.21-.21,6.08,6.08,0,0,0-.25-2,3.88,3.88,0,0,0-4-2.7,3.9,3.9,0,0,0-4,2.7,6.08,6.08,0,0,0-.25,2c0,.14.07.21.22.21Z"/><path class="cls-1" d="M47,107a.34.34,0,0,1-.36-.36V98.46h0c-.82,1.37-2.3,2.41-4.89,2.41-3,0-5.08-1.4-5.94-4.14a14.25,14.25,0,0,1-.61-4.89A14.2,14.2,0,0,1,35.73,87c.86-2.74,3-4.14,5.94-4.14,2.59,0,4.07,1,4.89,2.37h0V83.59a.33.33,0,0,1,.36-.35h2.3a.33.33,0,0,1,.36.35v23a.34.34,0,0,1-.36.36ZM46.2,95.44a11,11,0,0,0,.4-3.6,11.12,11.12,0,0,0-.4-3.6,3.65,3.65,0,0,0-3.81-2.59,3.65,3.65,0,0,0-3.78,2.59,12.15,12.15,0,0,0-.4,3.6,11.89,11.89,0,0,0,.4,3.6,3.69,3.69,0,0,0,3.78,2.63A3.68,3.68,0,0,0,46.2,95.44Z"/><path class="cls-1" d="M65.64,100.48a.35.35,0,0,1-.36-.36V98.5h0a5.26,5.26,0,0,1-4.72,2.37c-3.78,0-6-2.59-6-6.51V83.59a.33.33,0,0,1,.36-.35h2.3a.33.33,0,0,1,.36.35v10c0,2.81,1.26,4.43,3.82,4.43,2.34,0,3.88-1.66,3.88-4.25V83.59a.34.34,0,0,1,.36-.35H68a.34.34,0,0,1,.36.35v16.53a.35.35,0,0,1-.36.36Z"/><path class="cls-1" d="M73.78,79.35a.34.34,0,0,1-.36-.36V76.36a.34.34,0,0,1,.36-.36h2.45a.34.34,0,0,1,.36.36V79a.35.35,0,0,1-.36.36Zm.07,21.13a.35.35,0,0,1-.36-.36V83.59a.34.34,0,0,1,.36-.35h2.31a.34.34,0,0,1,.36.35v16.53a.35.35,0,0,1-.36.36Z"/><path class="cls-1" d="M82.06,107a.34.34,0,0,1-.36-.36v-23a.33.33,0,0,1,.36-.35h2.3a.33.33,0,0,1,.36.35v1.62h0c.83-1.36,2.3-2.37,4.9-2.37,3,0,5.07,1.4,5.93,4.14a14.17,14.17,0,0,1,.62,4.86,14.22,14.22,0,0,1-.62,4.89c-.86,2.74-3,4.14-5.93,4.14-2.6,0-4.07-1-4.9-2.41h0v8.14a.34.34,0,0,1-.36.36ZM92.71,95.44a11.89,11.89,0,0,0,.4-3.6,12.15,12.15,0,0,0-.4-3.6,4.08,4.08,0,0,0-7.59,0,11.12,11.12,0,0,0-.4,3.6,11,11,0,0,0,.4,3.6,4.05,4.05,0,0,0,7.59,0Z"/><path class="cls-1" d="M99.88,96.23a12.85,12.85,0,0,1-.58-4.39,12.78,12.78,0,0,1,.58-4.36c.94-3,3.46-4.64,6.8-4.64s5.87,1.69,6.81,4.64a13.07,13.07,0,0,1,.57,4.36,13.14,13.14,0,0,1-.57,4.39,7.31,7.31,0,0,1-13.61,0Zm10.69-.86a11.27,11.27,0,0,0,.4-3.53,10.91,10.91,0,0,0-.4-3.49,4.15,4.15,0,0,0-7.77,0,10.91,10.91,0,0,0-.4,3.49,11.27,11.27,0,0,0,.4,3.53,4.15,4.15,0,0,0,7.77,0Z"/><path class="cls-1" d="M136.92,100.48a.35.35,0,0,1-.36-.36V98.46h0c-.83,1.37-2.31,2.41-4.9,2.41-3,0-5.07-1.4-5.94-4.14a14.25,14.25,0,0,1-.61-4.89,14.2,14.2,0,0,1,.61-4.86c.87-2.74,2.95-4.14,5.94-4.14,2.59,0,4.07,1,4.9,2.37h0V76.36a.34.34,0,0,1,.36-.36h2.31a.34.34,0,0,1,.36.36v23.76a.35.35,0,0,1-.36.36Zm-.75-5a11.35,11.35,0,0,0,.39-3.6,11.47,11.47,0,0,0-.39-3.6,4.08,4.08,0,0,0-7.6,0,12.15,12.15,0,0,0-.4,3.6,11.89,11.89,0,0,0,.4,3.6,4.06,4.06,0,0,0,7.6,0Z"/><path class="cls-1" d="M144.3,96.19a13.48,13.48,0,0,1-.57-4.35,13.43,13.43,0,0,1,.54-4.36,7.25,7.25,0,0,1,13.53,0,15.08,15.08,0,0,1,.54,4.93.35.35,0,0,1-.39.36H147a.2.2,0,0,0-.22.22,6.47,6.47,0,0,0,.29,2.09,4.26,4.26,0,0,0,4.36,3,5.61,5.61,0,0,0,4.42-1.91c.18-.18.36-.22.54-.08l1.48,1.34a.32.32,0,0,1,0,.5,8.39,8.39,0,0,1-6.74,3C147.72,100.87,145.24,99.18,144.3,96.19ZM155,90.36a.19.19,0,0,0,.22-.21,6.05,6.05,0,0,0-.26-2,4.25,4.25,0,0,0-7.92,0,6.08,6.08,0,0,0-.25,2c0,.14.07.21.22.21Z"/><path class="cls-1" d="M169.21,98.28a.35.35,0,0,1,0-.5l1.48-1.59a.35.35,0,0,1,.5,0,8.37,8.37,0,0,0,5.33,2c2.52,0,3.78-1.08,3.78-2.62,0-1.37-.65-2.13-3.35-2.42L175.12,93c-3.39-.36-5.15-2-5.15-4.86,0-3.27,2.34-5.25,6.41-5.25a10.32,10.32,0,0,1,6.12,1.91.34.34,0,0,1,.07.5l-1.23,1.55a.35.35,0,0,1-.5.07,9.09,9.09,0,0,0-4.64-1.4c-2.16,0-3.28,1-3.28,2.37s.83,2.09,3.39,2.34l1.79.18c3.5.33,5.19,2.09,5.19,4.86,0,3.39-2.45,5.65-6.95,5.65A10.75,10.75,0,0,1,169.21,98.28Z"/><path class="cls-1" d="M186.85,96.19a13.48,13.48,0,0,1-.57-4.35,13.43,13.43,0,0,1,.54-4.36,7.25,7.25,0,0,1,13.53,0,15.08,15.08,0,0,1,.54,4.93.35.35,0,0,1-.39.36H189.59a.2.2,0,0,0-.22.22,6.47,6.47,0,0,0,.29,2.09,4.27,4.27,0,0,0,4.36,3,5.61,5.61,0,0,0,4.42-1.91c.18-.18.36-.22.54-.08l1.48,1.34a.32.32,0,0,1,0,.5,8.38,8.38,0,0,1-6.73,3C190.27,100.87,187.79,99.18,186.85,96.19Zm10.73-5.83a.19.19,0,0,0,.22-.21,6.05,6.05,0,0,0-.26-2,4.25,4.25,0,0,0-7.91,0,6.05,6.05,0,0,0-.26,2,.19.19,0,0,0,.22.21Z"/><path class="cls-1" d="M204.67,104.8a.33.33,0,0,1,0-.51l1.48-1.47a.34.34,0,0,1,.54,0,5.72,5.72,0,0,0,4.06,1.72c2.85,0,4.36-1.47,4.36-4.64v-2h0c-.79,1.45-2.27,2.38-4.79,2.38a5.64,5.64,0,0,1-5.79-4.18,13.48,13.48,0,0,1-.58-4.53,13.58,13.58,0,0,1,.58-4.54,5.64,5.64,0,0,1,5.79-4.17c2.52,0,4,.93,4.79,2.37h0V83.59a.33.33,0,0,1,.36-.35h2.3a.33.33,0,0,1,.36.35V99.72c0,4.9-2.66,7.63-7.52,7.63A7.82,7.82,0,0,1,204.67,104.8Zm10.08-9.9a10.43,10.43,0,0,0,.4-3.35,10.55,10.55,0,0,0-.4-3.35,3.89,3.89,0,0,0-7.31,0,11.09,11.09,0,0,0-.43,3.35,11,11,0,0,0,.43,3.35,3.53,3.53,0,0,0,3.64,2.59A3.56,3.56,0,0,0,214.75,94.9Z"/><path class="cls-1" d="M234.19,100.48a.35.35,0,0,1-.36-.36V98.5h0a5.26,5.26,0,0,1-4.72,2.37c-3.78,0-6-2.59-6-6.51V83.59a.34.34,0,0,1,.36-.35h2.31a.34.34,0,0,1,.36.35v10c0,2.81,1.26,4.43,3.81,4.43,2.34,0,3.89-1.66,3.89-4.25V83.59a.34.34,0,0,1,.36-.35h2.31a.33.33,0,0,1,.35.35v16.53a.34.34,0,0,1-.35.36Z"/><path class="cls-1" d="M242.4,100.48a.34.34,0,0,1-.36-.36V83.59a.33.33,0,0,1,.36-.35h2.3a.33.33,0,0,1,.36.35v1.77h0a4.8,4.8,0,0,1,4.57-2.52,5.32,5.32,0,0,1,3.53,1.29c.18.18.21.33.07.51l-1.33,1.76a.32.32,0,0,1-.5.07,4.92,4.92,0,0,0-2.67-.82c-2.63,0-3.71,2-3.71,5v9.43a.34.34,0,0,1-.36.36Z"/><path class="cls-1" d="M256.37,79.35A.34.34,0,0,1,256,79V76.36a.34.34,0,0,1,.36-.36h2.45a.34.34,0,0,1,.36.36V79a.35.35,0,0,1-.36.36Zm.07,21.13a.34.34,0,0,1-.36-.36V83.59a.33.33,0,0,1,.36-.35h2.3a.33.33,0,0,1,.36.35v16.53a.34.34,0,0,1-.36.36Z"/><path class="cls-1" d="M275.09,100.48a.34.34,0,0,1-.36-.36V98.46h0c-.83,1.37-2.3,2.41-4.9,2.41-3,0-5.07-1.4-5.93-4.14a14.22,14.22,0,0,1-.62-4.89,14.17,14.17,0,0,1,.62-4.86c.86-2.74,2.95-4.14,5.93-4.14,2.6,0,4.07,1,4.9,2.37h0V76.36a.34.34,0,0,1,.36-.36h2.3a.34.34,0,0,1,.36.36v23.76a.34.34,0,0,1-.36.36Zm-.76-5a11,11,0,0,0,.4-3.6,11.12,11.12,0,0,0-.4-3.6,4.08,4.08,0,0,0-7.59,0,12.15,12.15,0,0,0-.4,3.6,11.89,11.89,0,0,0,.4,3.6,4.05,4.05,0,0,0,7.59,0Z"/><path class="cls-1" d="M293.37,100.48a.35.35,0,0,1-.36-.36V98.61h0c-.79,1.29-2.49,2.26-5.11,2.26-3.28,0-5.8-1.69-5.8-5.18s2.52-5.33,6.73-5.33h3.93a.19.19,0,0,0,.21-.21V88.89c0-2.38-.93-3.39-4.14-3.39a6.68,6.68,0,0,0-4.17,1.23.33.33,0,0,1-.51,0l-1-1.65a.39.39,0,0,1,.07-.51,9.56,9.56,0,0,1,5.87-1.69c4.9,0,6.77,1.62,6.77,5.87v11.41a.35.35,0,0,1-.36.36Zm-.43-5.58V93a.19.19,0,0,0-.21-.22h-3.46c-3,0-4.28.87-4.28,2.81,0,1.76,1.29,2.7,3.6,2.7C291.29,98.28,292.94,97,292.94,94.9Z"/><path class="cls-1" d="M311.7,100.48a.34.34,0,0,1-.36-.36V98.46h0c-.83,1.37-2.3,2.41-4.89,2.41-3,0-5.08-1.4-5.94-4.14a14.25,14.25,0,0,1-.61-4.89,14.2,14.2,0,0,1,.61-4.86c.86-2.74,2.95-4.14,5.94-4.14,2.59,0,4.06,1,4.89,2.37h0V76.36a.34.34,0,0,1,.36-.36H314a.34.34,0,0,1,.36.36v23.76a.34.34,0,0,1-.36.36Zm-.76-5a11,11,0,0,0,.4-3.6,11.12,11.12,0,0,0-.4-3.6,4.08,4.08,0,0,0-7.59,0,12.15,12.15,0,0,0-.4,3.6,11.89,11.89,0,0,0,.4,3.6,4.05,4.05,0,0,0,7.59,0Z"/><path class="cls-1" d="M326.78,88.67a26.67,26.67,0,0,1,4.29-14.47c.18-.25.32-.36.57-.36h1.26c.22,0,.33.14.22.36a32.32,32.32,0,0,0,0,28.94c.11.22,0,.36-.22.36h-1.26c-.25,0-.39-.11-.57-.36A26.75,26.75,0,0,1,326.78,88.67Z"/><path class="cls-1" d="M347.44,100.48a.35.35,0,0,1-.36-.36V98.61h0c-.79,1.29-2.48,2.26-5.11,2.26-3.28,0-5.8-1.69-5.8-5.18s2.52-5.33,6.73-5.33h3.93a.19.19,0,0,0,.21-.21V88.89c0-2.38-.93-3.39-4.14-3.39a6.7,6.7,0,0,0-4.17,1.23.33.33,0,0,1-.51,0l-1-1.65a.39.39,0,0,1,.07-.51,9.58,9.58,0,0,1,5.87-1.69c4.9,0,6.77,1.62,6.77,5.87v11.41a.35.35,0,0,1-.36.36ZM347,94.9V93a.19.19,0,0,0-.21-.22h-3.46c-3,0-4.28.87-4.28,2.81,0,1.76,1.29,2.7,3.6,2.7C345.36,98.28,347,97,347,94.9Z"/><path class="cls-1" d="M355.33,100.48a.34.34,0,0,1-.36-.36V83.59a.33.33,0,0,1,.36-.35h2.3a.33.33,0,0,1,.36.35v1.77h0a4.8,4.8,0,0,1,4.57-2.52,5.3,5.3,0,0,1,3.53,1.29c.18.18.22.33.07.51l-1.33,1.76a.32.32,0,0,1-.5.07,4.92,4.92,0,0,0-2.67-.82c-2.63,0-3.71,2-3.71,5v9.43a.34.34,0,0,1-.36.36Z"/><path class="cls-1" d="M380.2,100.48a.35.35,0,0,1-.36-.36V90c0-2.77-1.26-4.39-3.85-4.39a3.87,3.87,0,0,0-4,4.21v10.26a.34.34,0,0,1-.36.36h-2.3a.34.34,0,0,1-.36-.36V83.59a.33.33,0,0,1,.36-.35h2.3a.33.33,0,0,1,.36.35v1.59h0a5.45,5.45,0,0,1,4.82-2.34c3.75,0,6,2.55,6,6.48v10.8a.35.35,0,0,1-.36.36Z"/><path class="cls-1" d="M387.41,96.19a13.43,13.43,0,0,1-.58-4.35,13.43,13.43,0,0,1,.54-4.36,7.25,7.25,0,0,1,13.53,0,15.08,15.08,0,0,1,.54,4.93.35.35,0,0,1-.39.36H390.14a.19.19,0,0,0-.21.22,6.5,6.5,0,0,0,.28,2.09,4.27,4.27,0,0,0,4.36,3A5.65,5.65,0,0,0,399,96.16c.18-.18.36-.22.54-.08L401,97.42a.32.32,0,0,1,0,.5,8.38,8.38,0,0,1-6.73,3C390.83,100.87,388.34,99.18,387.41,96.19Zm10.72-5.83c.15,0,.22-.07.22-.21a6.08,6.08,0,0,0-.25-2,4.25,4.25,0,0,0-7.92,0,6.08,6.08,0,0,0-.25,2,.19.19,0,0,0,.21.21Zm-5.36-9.93c-.22,0-.32-.15-.22-.36l2.74-4.43a.63.63,0,0,1,.61-.36h2.38a.21.21,0,0,1,.18.36l-3.31,4.43a.71.71,0,0,1-.69.36Z"/><path class="cls-1" d="M404.4,98.28a.33.33,0,0,1,0-.5l1.47-1.59a.36.36,0,0,1,.51,0,8.34,8.34,0,0,0,5.32,2c2.52,0,3.78-1.08,3.78-2.62,0-1.37-.64-2.13-3.34-2.42L410.3,93c-3.38-.36-5.15-2-5.15-4.86,0-3.27,2.34-5.25,6.41-5.25a10.32,10.32,0,0,1,6.12,1.91.34.34,0,0,1,.07.5l-1.22,1.55a.36.36,0,0,1-.51.07,9.06,9.06,0,0,0-4.64-1.4c-2.16,0-3.28,1-3.28,2.37s.83,2.09,3.39,2.34l1.8.18c3.49.33,5.18,2.09,5.18,4.86,0,3.39-2.45,5.65-7,5.65A10.72,10.72,0,0,1,404.4,98.28Z"/><path class="cls-1" d="M422.43,96.66H425a.34.34,0,0,1,.36.36v3.35a1.14,1.14,0,0,1-.21.79l-2.24,3a.55.55,0,0,1-.46.25.32.32,0,0,1-.33-.32V97A.35.35,0,0,1,422.43,96.66Z"/><path class="cls-1" d="M436.76,96.19a13.43,13.43,0,0,1-.58-4.35,13.43,13.43,0,0,1,.54-4.36,7.26,7.26,0,0,1,13.54,0,15.08,15.08,0,0,1,.54,4.93.35.35,0,0,1-.4.36H439.5a.2.2,0,0,0-.22.22,6.47,6.47,0,0,0,.29,2.09,4.25,4.25,0,0,0,4.35,3,5.62,5.62,0,0,0,4.43-1.91c.18-.18.36-.22.54-.08l1.48,1.34a.31.31,0,0,1,0,.5,8.35,8.35,0,0,1-6.73,3C440.18,100.87,437.7,99.18,436.76,96.19Zm10.73-5.83a.19.19,0,0,0,.21-.21,6.08,6.08,0,0,0-.25-2,4.25,4.25,0,0,0-7.92,0,6.08,6.08,0,0,0-.25,2c0,.14.07.21.22.21Z"/><path class="cls-1" d="M453.75,98.28a.35.35,0,0,1,0-.5l1.48-1.59a.35.35,0,0,1,.5,0,8.37,8.37,0,0,0,5.33,2c2.52,0,3.78-1.08,3.78-2.62,0-1.37-.65-2.13-3.35-2.42L459.66,93c-3.39-.36-5.15-2-5.15-4.86,0-3.27,2.34-5.25,6.41-5.25A10.26,10.26,0,0,1,467,84.75a.35.35,0,0,1,.08.5l-1.23,1.55a.35.35,0,0,1-.5.07,9.09,9.09,0,0,0-4.64-1.4c-2.16,0-3.28,1-3.28,2.37s.83,2.09,3.38,2.34l1.8.18c3.49.33,5.19,2.09,5.19,4.86,0,3.39-2.45,5.65-6.95,5.65A10.75,10.75,0,0,1,453.75,98.28Z"/><path class="cls-1" d="M476,100.66c-3,0-4.21-1.44-4.21-4.54V76.36a.34.34,0,0,1,.36-.36h2.3a.34.34,0,0,1,.36.36V95.94c0,1.44.54,1.91,1.73,1.91h.68a.34.34,0,0,1,.36.36v2.09a.34.34,0,0,1-.36.36Z"/><path class="cls-1" d="M481.4,79.35A.34.34,0,0,1,481,79V76.36a.34.34,0,0,1,.36-.36h2.45a.34.34,0,0,1,.36.36V79a.35.35,0,0,1-.36.36Zm.07,21.13a.35.35,0,0,1-.36-.36V83.59a.34.34,0,0,1,.36-.35h2.31a.34.34,0,0,1,.36.35v16.53a.35.35,0,0,1-.36.36Z"/><path class="cls-1" d="M500.51,100.48a.35.35,0,0,1-.36-.36V90c0-2.77-1.26-4.39-3.85-4.39a3.87,3.87,0,0,0-4,4.21v10.26a.34.34,0,0,1-.36.36h-2.3a.34.34,0,0,1-.36-.36V83.59a.33.33,0,0,1,.36-.35H492a.33.33,0,0,1,.36.35v1.59h0a5.45,5.45,0,0,1,4.82-2.34c3.75,0,6,2.55,6,6.48v10.8a.35.35,0,0,1-.36.36Z"/><path class="cls-1" d="M507.82,104.8a.33.33,0,0,1,0-.51l1.47-1.47a.35.35,0,0,1,.55,0,5.72,5.72,0,0,0,4.06,1.72c2.85,0,4.36-1.47,4.36-4.64v-2h0c-.79,1.45-2.27,2.38-4.79,2.38a5.64,5.64,0,0,1-5.79-4.18,13.48,13.48,0,0,1-.58-4.53,13.58,13.58,0,0,1,.58-4.54,5.64,5.64,0,0,1,5.79-4.17c2.52,0,4,.93,4.79,2.37h0V83.59a.33.33,0,0,1,.36-.35H521a.33.33,0,0,1,.36.35V99.72c0,4.9-2.66,7.63-7.52,7.63A7.82,7.82,0,0,1,507.82,104.8Zm10.08-9.9a10.43,10.43,0,0,0,.4-3.35,10.55,10.55,0,0,0-.4-3.35,3.89,3.89,0,0,0-7.31,0,11.09,11.09,0,0,0-.43,3.35,11,11,0,0,0,.43,3.35,3.53,3.53,0,0,0,3.64,2.59A3.56,3.56,0,0,0,517.9,94.9Z"/><path class="cls-1" d="M536.94,100.48a.35.35,0,0,1-.36-.36V98.61h0c-.79,1.29-2.48,2.26-5.11,2.26-3.28,0-5.8-1.69-5.8-5.18s2.52-5.33,6.73-5.33h3.93a.19.19,0,0,0,.21-.21V88.89c0-2.38-.93-3.39-4.14-3.39a6.7,6.7,0,0,0-4.17,1.23.33.33,0,0,1-.51,0l-1-1.65a.39.39,0,0,1,.07-.51,9.58,9.58,0,0,1,5.87-1.69c4.9,0,6.77,1.62,6.77,5.87v11.41a.35.35,0,0,1-.36.36Zm-.43-5.58V93a.19.19,0,0,0-.21-.22h-3.46c-3,0-4.28.87-4.28,2.81,0,1.76,1.29,2.7,3.6,2.7C534.86,98.28,536.51,97,536.51,94.9Z"/><path class="cls-1" d="M543.28,98.28a.35.35,0,0,1,0-.5l1.48-1.59a.35.35,0,0,1,.5,0,8.37,8.37,0,0,0,5.33,2c2.52,0,3.78-1.08,3.78-2.62,0-1.37-.65-2.13-3.35-2.42L549.19,93c-3.39-.36-5.15-2-5.15-4.86,0-3.27,2.34-5.25,6.41-5.25a10.26,10.26,0,0,1,6.11,1.91.35.35,0,0,1,.08.5l-1.23,1.55a.35.35,0,0,1-.5.07,9.09,9.09,0,0,0-4.64-1.4c-2.16,0-3.28,1-3.28,2.37s.83,2.09,3.38,2.34l1.8.18c3.49.33,5.19,2.09,5.19,4.86,0,3.39-2.45,5.65-7,5.65A10.75,10.75,0,0,1,543.28,98.28Z"/><path class="cls-1" d="M561.32,96.66h2.52a.35.35,0,0,1,.36.36v3.35a1.14,1.14,0,0,1-.22.79l-2.23,3a.56.56,0,0,1-.47.25A.32.32,0,0,1,561,104V97A.34.34,0,0,1,561.32,96.66Z"/><path class="cls-1" d="M49.26,138.66c-3.34,0-4.64-1.52-4.64-4.9V123.9c0-.15-.07-.22-.21-.22H43a.34.34,0,0,1-.36-.36v-1.73a.33.33,0,0,1,.36-.35h1.44a.19.19,0,0,0,.21-.22v-4.86a.34.34,0,0,1,.36-.36h2.3a.34.34,0,0,1,.37.36V121a.19.19,0,0,0,.21.22H50.6a.34.34,0,0,1,.36.35v1.73a.34.34,0,0,1-.36.36H47.86c-.14,0-.21.07-.21.22v9.75c0,1.73.64,2.2,2.19,2.2h.76a.34.34,0,0,1,.36.36v2.09a.35.35,0,0,1-.36.36Z"/><path class="cls-1" d="M55.28,138.48a.34.34,0,0,1-.36-.36V121.59a.33.33,0,0,1,.36-.35h2.3a.33.33,0,0,1,.36.35v1.77h0a4.78,4.78,0,0,1,4.57-2.52,5.32,5.32,0,0,1,3.53,1.29c.18.18.21.33.07.51l-1.33,1.76a.33.33,0,0,1-.51.07,4.86,4.86,0,0,0-2.66-.82c-2.63,0-3.71,2-3.71,5v9.43a.34.34,0,0,1-.36.36Z"/><path class="cls-1" d="M67.84,134.23a17.07,17.07,0,0,1,0-8.75c.94-3,3.46-4.64,6.8-4.64s5.87,1.69,6.81,4.64a17.07,17.07,0,0,1,0,8.75,6.72,6.72,0,0,1-6.81,4.64A6.71,6.71,0,0,1,67.84,134.23Zm10.69-.86a11.27,11.27,0,0,0,.4-3.53,10.91,10.91,0,0,0-.4-3.49,4.15,4.15,0,0,0-7.77,0,10.91,10.91,0,0,0-.4,3.49,11.27,11.27,0,0,0,.4,3.53,4.15,4.15,0,0,0,7.77,0Z"/><path class="cls-1" d="M90.3,138.66c-3,0-4.21-1.44-4.21-4.54V114.36a.34.34,0,0,1,.36-.36h2.31a.34.34,0,0,1,.36.36v19.58c0,1.44.54,1.91,1.72,1.91h.69a.34.34,0,0,1,.36.36v2.09a.35.35,0,0,1-.36.36Z"/><path class="cls-1" d="M99.48,138.66c-3,0-4.21-1.44-4.21-4.54V114.36a.34.34,0,0,1,.36-.36h2.31a.34.34,0,0,1,.36.36v19.58c0,1.44.54,1.91,1.72,1.91h.69a.34.34,0,0,1,.36.36v2.09a.35.35,0,0,1-.36.36Z"/><path class="cls-1" d="M104.7,134.66h2.52a.34.34,0,0,1,.36.36v3.35a1.14,1.14,0,0,1-.21.79l-2.23,3a.58.58,0,0,1-.47.25.32.32,0,0,1-.33-.32v-7A.35.35,0,0,1,104.7,134.66Z"/><path class="cls-1" d="M123.64,138.66c-3,0-4.21-1.44-4.21-4.54V114.36a.34.34,0,0,1,.36-.36h2.3a.34.34,0,0,1,.36.36v19.58c0,1.44.54,1.91,1.73,1.91h.68a.34.34,0,0,1,.36.36v2.09a.34.34,0,0,1-.36.36Z"/><path class="cls-1" d="M129.11,138.48a.35.35,0,0,1-.36-.36V121.59a.34.34,0,0,1,.36-.35h2.31a.33.33,0,0,1,.35.35v16.53a.34.34,0,0,1-.35.36Zm.29-20c-.22,0-.32-.15-.22-.36l2.74-4.43a.63.63,0,0,1,.61-.36h2.38a.21.21,0,0,1,.18.36l-3.32,4.43a.69.69,0,0,1-.68.36Z"/><path class="cls-1" d="M148.15,138.48a.35.35,0,0,1-.36-.36V128c0-2.77-1.26-4.39-3.85-4.39a3.87,3.87,0,0,0-4,4.21v10.26a.34.34,0,0,1-.36.36h-2.3a.34.34,0,0,1-.36-.36V121.59a.33.33,0,0,1,.36-.35h2.3a.33.33,0,0,1,.36.35v1.59h0a5.45,5.45,0,0,1,4.82-2.34c3.74,0,6,2.55,6,6.48v10.8a.35.35,0,0,1-.36.36Z"/><path class="cls-1" d="M155.35,134.19a17.36,17.36,0,0,1,0-8.71,7.25,7.25,0,0,1,13.53,0,15.08,15.08,0,0,1,.54,4.93.35.35,0,0,1-.39.36H158.09a.2.2,0,0,0-.22.22,6.47,6.47,0,0,0,.29,2.09,4.27,4.27,0,0,0,4.36,3,5.61,5.61,0,0,0,4.42-1.91c.18-.18.36-.22.54-.08l1.48,1.34a.32.32,0,0,1,0,.5,8.38,8.38,0,0,1-6.73,3C158.77,138.87,156.29,137.18,155.35,134.19Zm10.73-5.83a.19.19,0,0,0,.22-.21,6.05,6.05,0,0,0-.26-2,4.25,4.25,0,0,0-7.91,0,6.05,6.05,0,0,0-.26,2,.19.19,0,0,0,.22.21Z"/><path class="cls-1" d="M184,138.48a.35.35,0,0,1-.36-.36v-1.51h0c-.8,1.29-2.49,2.26-5.12,2.26-3.27,0-5.79-1.69-5.79-5.18s2.52-5.33,6.73-5.33h3.92c.15,0,.22-.07.22-.21v-1.26c0-2.38-.94-3.39-4.14-3.39a6.68,6.68,0,0,0-4.17,1.23.33.33,0,0,1-.51,0l-1-1.65a.39.39,0,0,1,.07-.51,9.56,9.56,0,0,1,5.87-1.69c4.89,0,6.77,1.62,6.77,5.87v11.41a.35.35,0,0,1-.36.36Zm-.43-5.58V131a.2.2,0,0,0-.22-.22h-3.45c-3,0-4.28.87-4.28,2.81,0,1.76,1.29,2.7,3.6,2.7C181.88,136.28,183.54,135,183.54,132.9Z"/><path class="cls-1" d="M210.22,138.48a.34.34,0,0,1-.36-.36v-1.66h0c-.83,1.37-2.3,2.41-4.9,2.41-3,0-5.07-1.4-5.93-4.14a14.22,14.22,0,0,1-.62-4.89A14.17,14.17,0,0,1,199,125c.86-2.74,2.95-4.14,5.93-4.14,2.6,0,4.07,1,4.9,2.37h0v-8.85a.34.34,0,0,1,.36-.36h2.3a.34.34,0,0,1,.36.36v23.76a.34.34,0,0,1-.36.36Zm-.76-5a11,11,0,0,0,.4-3.6,11.12,11.12,0,0,0-.4-3.6,4.08,4.08,0,0,0-7.59,0,12.15,12.15,0,0,0-.4,3.6,11.89,11.89,0,0,0,.4,3.6,4.05,4.05,0,0,0,7.59,0Z"/><path class="cls-1" d="M217.6,134.19a17.21,17.21,0,0,1,0-8.71,7.26,7.26,0,0,1,13.54,0,15.08,15.08,0,0,1,.54,4.93.35.35,0,0,1-.4.36H220.33a.19.19,0,0,0-.21.22,6.5,6.5,0,0,0,.28,2.09,4.27,4.27,0,0,0,4.36,3,5.65,5.65,0,0,0,4.43-1.91c.18-.18.36-.22.54-.08l1.47,1.34a.32.32,0,0,1,0,.5,8.38,8.38,0,0,1-6.73,3C221,138.87,218.53,137.18,217.6,134.19Zm10.72-5.83c.15,0,.22-.07.22-.21a6.08,6.08,0,0,0-.25-2,4.25,4.25,0,0,0-7.92,0,6.08,6.08,0,0,0-.25,2,.19.19,0,0,0,.21.21Z"/><path class="cls-1" d="M248.3,138.48c-.25,0-.36-.15-.43-.36l-6.19-16.53c-.07-.21,0-.35.29-.35h2.48c.25,0,.36.1.47.35L249.38,134h.08l4.35-12.39a.41.41,0,0,1,.43-.35h2.45c.25,0,.36.14.29.35l-6.16,16.53a.46.46,0,0,1-.46.36Z"/><path class="cls-1" d="M260.44,117.35a.34.34,0,0,1-.36-.36v-2.63a.34.34,0,0,1,.36-.36h2.44a.34.34,0,0,1,.36.36V117a.34.34,0,0,1-.36.36Zm.07,21.13a.34.34,0,0,1-.36-.36V121.59a.33.33,0,0,1,.36-.35h2.3a.33.33,0,0,1,.36.35v16.53a.34.34,0,0,1-.36.36Z"/><path class="cls-1" d="M279.15,138.48a.35.35,0,0,1-.36-.36v-1.66h0c-.83,1.37-2.31,2.41-4.9,2.41a5.71,5.71,0,0,1-5.94-4.14,14.5,14.5,0,0,1-.61-4.89,14.45,14.45,0,0,1,.61-4.86,5.71,5.71,0,0,1,5.94-4.14c2.59,0,4.07,1,4.9,2.37h0v-8.85a.34.34,0,0,1,.36-.36h2.31a.34.34,0,0,1,.36.36v23.76a.35.35,0,0,1-.36.36Zm-.75-5a11.06,11.06,0,0,0,.39-3.6,11.18,11.18,0,0,0-.39-3.6,4.08,4.08,0,0,0-7.6,0,12.54,12.54,0,0,0-.39,3.6,12.28,12.28,0,0,0,.39,3.6,4.06,4.06,0,0,0,7.6,0Z"/><path class="cls-1" d="M297.44,138.48a.35.35,0,0,1-.36-.36v-1.51h0c-.8,1.29-2.49,2.26-5.12,2.26-3.27,0-5.79-1.69-5.79-5.18s2.52-5.33,6.73-5.33h3.92c.15,0,.22-.07.22-.21v-1.26c0-2.38-.94-3.39-4.14-3.39a6.73,6.73,0,0,0-4.18,1.23.32.32,0,0,1-.5,0l-1-1.65a.39.39,0,0,1,.07-.51,9.56,9.56,0,0,1,5.87-1.69c4.89,0,6.77,1.62,6.77,5.87v11.41a.35.35,0,0,1-.36.36ZM297,132.9V131a.2.2,0,0,0-.22-.22h-3.45c-3,0-4.29.87-4.29,2.81,0,1.76,1.3,2.7,3.6,2.7C295.35,136.28,297,135,297,132.9Z"/><path class="cls-1" d="M304.9,134.66h2.52a.34.34,0,0,1,.35.36v3.35a1.14,1.14,0,0,1-.21.79l-2.23,3a.58.58,0,0,1-.47.25.32.32,0,0,1-.32-.32v-7A.34.34,0,0,1,304.9,134.66Z"/><path class="cls-1" d="M320.05,138.48a.34.34,0,0,1-.36-.36V114.36a.34.34,0,0,1,.36-.36h2.3a.34.34,0,0,1,.36.36v8.85h0c.83-1.36,2.3-2.37,4.9-2.37,3,0,5.07,1.4,5.93,4.14a14.17,14.17,0,0,1,.62,4.86,14.22,14.22,0,0,1-.62,4.89c-.86,2.74-2.95,4.14-5.93,4.14-2.6,0-4.07-1-4.9-2.41h0v1.66a.34.34,0,0,1-.36.36Zm10.66-5a12.28,12.28,0,0,0,.39-3.6,12.54,12.54,0,0,0-.39-3.6,4.08,4.08,0,0,0-7.6,0,11.12,11.12,0,0,0-.4,3.6,11,11,0,0,0,.4,3.6,4.06,4.06,0,0,0,7.6,0Z"/><path class="cls-1" d="M337.87,134.23a16.79,16.79,0,0,1,0-8.75c.94-3,3.46-4.64,6.8-4.64s5.87,1.69,6.81,4.64a17.07,17.07,0,0,1,0,8.75,7.31,7.31,0,0,1-13.61,0Zm10.69-.86a11.27,11.27,0,0,0,.4-3.53,10.91,10.91,0,0,0-.4-3.49,4.15,4.15,0,0,0-7.77,0,10.91,10.91,0,0,0-.4,3.49,11.27,11.27,0,0,0,.4,3.53,4.15,4.15,0,0,0,7.77,0Z"/><path class="cls-1" d="M361.2,138.66c-3.35,0-4.65-1.52-4.65-4.9V123.9c0-.15-.07-.22-.21-.22H354.9a.34.34,0,0,1-.36-.36v-1.73a.33.33,0,0,1,.36-.35h1.44a.19.19,0,0,0,.21-.22v-4.86a.34.34,0,0,1,.36-.36h2.31a.34.34,0,0,1,.36.36V121a.19.19,0,0,0,.21.22h2.74a.33.33,0,0,1,.36.35v1.73a.34.34,0,0,1-.36.36h-2.74c-.14,0-.21.07-.21.22v9.75c0,1.73.65,2.2,2.19,2.2h.76a.34.34,0,0,1,.36.36v2.09a.34.34,0,0,1-.36.36Z"/><path class="cls-1" d="M377.29,138.48a.34.34,0,0,1-.36-.36v-1.51h0c-.79,1.29-2.48,2.26-5.11,2.26-3.27,0-5.79-1.69-5.79-5.18s2.52-5.33,6.73-5.33h3.92a.19.19,0,0,0,.22-.21v-1.26c0-2.38-.94-3.39-4.14-3.39a6.71,6.71,0,0,0-4.18,1.23.32.32,0,0,1-.5,0l-1-1.65a.38.38,0,0,1,.07-.51,9.54,9.54,0,0,1,5.87-1.69c4.89,0,6.76,1.62,6.76,5.87v11.41a.34.34,0,0,1-.36.36Zm-.43-5.58V131a.2.2,0,0,0-.22-.22h-3.45c-3,0-4.29.87-4.29,2.81,0,1.76,1.3,2.7,3.6,2.7C375.2,136.28,376.86,135,376.86,132.9Z"/><path class="cls-1" d="M383.63,136.28a.33.33,0,0,1,0-.5l1.47-1.59a.36.36,0,0,1,.51,0,8.34,8.34,0,0,0,5.32,2c2.52,0,3.78-1.08,3.78-2.62,0-1.37-.65-2.13-3.34-2.42l-1.84-.18c-3.38-.36-5.15-2-5.15-4.86,0-3.27,2.34-5.25,6.41-5.25a10.32,10.32,0,0,1,6.12,1.91.34.34,0,0,1,.07.5l-1.22,1.55a.36.36,0,0,1-.51.07,9.06,9.06,0,0,0-4.64-1.4c-2.16,0-3.28,1-3.28,2.37s.83,2.09,3.39,2.34l1.8.18c3.49.33,5.18,2.09,5.18,4.86,0,3.39-2.45,5.65-6.95,5.65A10.72,10.72,0,0,1,383.63,136.28Z"/><path class="cls-1" d="M401.66,134.66h2.52a.34.34,0,0,1,.36.36v3.35a1.14,1.14,0,0,1-.21.79l-2.24,3a.55.55,0,0,1-.46.25.32.32,0,0,1-.33-.32v-7A.35.35,0,0,1,401.66,134.66Z"/><path class="cls-1" d="M416.1,142.8a.33.33,0,0,1,0-.51l1.48-1.47a.34.34,0,0,1,.54,0,5.75,5.75,0,0,0,4.07,1.72c2.84,0,4.35-1.47,4.35-4.64v-2h0c-.8,1.45-2.27,2.38-4.79,2.38a5.65,5.65,0,0,1-5.8-4.18,18.33,18.33,0,0,1,0-9.07,5.65,5.65,0,0,1,5.8-4.17c2.52,0,4,.93,4.79,2.37h0v-1.62a.34.34,0,0,1,.36-.35h2.31a.34.34,0,0,1,.36.35v16.13c0,4.9-2.67,7.63-7.53,7.63A7.78,7.78,0,0,1,416.1,142.8Zm10.08-9.9a10.77,10.77,0,0,0,.39-3.35,10.89,10.89,0,0,0-.39-3.35,3.89,3.89,0,0,0-7.31,0,10.78,10.78,0,0,0-.43,3.35,10.65,10.65,0,0,0,.43,3.35,3.52,3.52,0,0,0,3.63,2.59A3.58,3.58,0,0,0,426.18,132.9Z"/><path class="cls-1" d="M445.62,138.48a.34.34,0,0,1-.36-.36V136.5h0a5.25,5.25,0,0,1-4.72,2.37c-3.78,0-6-2.59-6-6.51V121.59a.33.33,0,0,1,.36-.35h2.3a.33.33,0,0,1,.36.35v10c0,2.81,1.26,4.43,3.82,4.43,2.34,0,3.89-1.66,3.89-4.25V121.59a.33.33,0,0,1,.36-.35h2.3a.33.33,0,0,1,.36.35v16.53a.34.34,0,0,1-.36.36Z"/><path class="cls-1" d="M463.9,138.48a.35.35,0,0,1-.36-.36v-1.51h0c-.79,1.29-2.49,2.26-5.11,2.26-3.28,0-5.8-1.69-5.8-5.18s2.52-5.33,6.73-5.33h3.92c.15,0,.22-.07.22-.21v-1.26c0-2.38-.93-3.39-4.14-3.39a6.68,6.68,0,0,0-4.17,1.23.33.33,0,0,1-.51,0l-1-1.65a.39.39,0,0,1,.07-.51,9.56,9.56,0,0,1,5.87-1.69c4.9,0,6.77,1.62,6.77,5.87v11.41a.35.35,0,0,1-.36.36Zm-.43-5.58V131a.2.2,0,0,0-.22-.22H459.8c-3,0-4.28.87-4.28,2.81,0,1.76,1.29,2.7,3.6,2.7C461.82,136.28,463.47,135,463.47,132.9Z"/><path class="cls-1" d="M482.62,138.48a.35.35,0,0,1-.36-.36V128c0-2.77-1.26-4.39-3.85-4.39a3.87,3.87,0,0,0-4,4.21v10.26a.34.34,0,0,1-.36.36h-2.3a.34.34,0,0,1-.36-.36V121.59a.33.33,0,0,1,.36-.35h2.3a.33.33,0,0,1,.36.35v1.59h0a5.45,5.45,0,0,1,4.82-2.34c3.74,0,6,2.55,6,6.48v10.8a.35.35,0,0,1-.36.36Z"/><path class="cls-1" d="M495.3,138.66c-3.35,0-4.65-1.52-4.65-4.9V123.9c0-.15-.07-.22-.21-.22H489a.34.34,0,0,1-.36-.36v-1.73a.33.33,0,0,1,.36-.35h1.44a.19.19,0,0,0,.21-.22v-4.86a.34.34,0,0,1,.36-.36h2.31a.34.34,0,0,1,.36.36V121a.19.19,0,0,0,.21.22h2.74a.34.34,0,0,1,.36.35v1.73a.34.34,0,0,1-.36.36h-2.74c-.14,0-.21.07-.21.22v9.75c0,1.73.64,2.2,2.19,2.2h.76a.34.34,0,0,1,.36.36v2.09a.35.35,0,0,1-.36.36Z"/><path class="cls-1" d="M500.48,134.19a17.21,17.21,0,0,1,0-8.71,7.26,7.26,0,0,1,13.54,0,15.08,15.08,0,0,1,.54,4.93.35.35,0,0,1-.4.36h-10.9a.2.2,0,0,0-.22.22,6.47,6.47,0,0,0,.29,2.09,4.25,4.25,0,0,0,4.35,3,5.65,5.65,0,0,0,4.43-1.91c.18-.18.36-.22.54-.08l1.48,1.34a.31.31,0,0,1,0,.5,8.38,8.38,0,0,1-6.73,3C503.9,138.87,501.42,137.18,500.48,134.19Zm10.73-5.83a.19.19,0,0,0,.21-.21,6.08,6.08,0,0,0-.25-2,4.25,4.25,0,0,0-7.92,0,6.08,6.08,0,0,0-.25,2c0,.14.07.21.22.21Z"/><path class="cls-1" d="M517.47,136.28a.35.35,0,0,1,0-.5l1.48-1.59a.35.35,0,0,1,.5,0,8.37,8.37,0,0,0,5.33,2c2.52,0,3.78-1.08,3.78-2.62,0-1.37-.65-2.13-3.35-2.42l-1.84-.18c-3.38-.36-5.14-2-5.14-4.86,0-3.27,2.34-5.25,6.4-5.25a10.32,10.32,0,0,1,6.12,1.91.35.35,0,0,1,.08.5l-1.23,1.55a.35.35,0,0,1-.5.07,9.09,9.09,0,0,0-4.65-1.4c-2.16,0-3.27,1-3.27,2.37s.83,2.09,3.38,2.34l1.8.18c3.49.33,5.19,2.09,5.19,4.86,0,3.39-2.45,5.65-6.95,5.65A10.75,10.75,0,0,1,517.47,136.28Z"/><path class="cls-1" d="M535.51,134.66H538a.35.35,0,0,1,.36.36v3.35a1.14,1.14,0,0,1-.22.79l-2.23,3a.58.58,0,0,1-.47.25.32.32,0,0,1-.32-.32v-7A.34.34,0,0,1,535.51,134.66Z"/><path class="cls-1" d="M.54,163.48a6.68,6.68,0,0,1,6.8-4.64,6.94,6.94,0,0,1,5.91,2.91.35.35,0,0,1-.11.51l-1.59,1.29a.31.31,0,0,1-.5,0,4.24,4.24,0,0,0-3.71-1.87,3.74,3.74,0,0,0-3.85,2.7,11.44,11.44,0,0,0-.39,3.49,11.56,11.56,0,0,0,.39,3.53,3.74,3.74,0,0,0,3.85,2.7,4.25,4.25,0,0,0,3.71-1.88.31.31,0,0,1,.5,0l1.59,1.29a.35.35,0,0,1,.11.51,6.92,6.92,0,0,1-5.91,2.91c-3.31,0-5.83-1.65-6.8-4.64a18,18,0,0,1,0-8.75Z"/><path class="cls-1" d="M27.32,176.48a.35.35,0,0,1-.36-.36v-1.51h0c-.8,1.29-2.49,2.26-5.12,2.26-3.27,0-5.79-1.69-5.79-5.18s2.52-5.33,6.73-5.33h3.92c.15,0,.22-.07.22-.21v-1.26c0-2.38-.94-3.39-4.14-3.39a6.68,6.68,0,0,0-4.17,1.23.33.33,0,0,1-.51,0l-1-1.65a.39.39,0,0,1,.07-.51A9.56,9.56,0,0,1,23,158.84c4.89,0,6.77,1.62,6.77,5.87v11.41a.35.35,0,0,1-.36.36Zm-.43-5.58V169a.2.2,0,0,0-.22-.22H23.22c-3,0-4.28.87-4.28,2.81,0,1.76,1.29,2.7,3.59,2.7C25.23,174.28,26.89,173,26.89,170.9Z"/><path class="cls-1" d="M33.66,174.28a.35.35,0,0,1,0-.5l1.48-1.59a.35.35,0,0,1,.5,0,8.37,8.37,0,0,0,5.33,2c2.52,0,3.78-1.08,3.78-2.62,0-1.37-.65-2.13-3.35-2.42L39.56,169c-3.38-.36-5.14-2-5.14-4.86,0-3.27,2.34-5.25,6.4-5.25a10.32,10.32,0,0,1,6.12,1.91.34.34,0,0,1,.07.5l-1.22,1.55a.35.35,0,0,1-.5.07,9.09,9.09,0,0,0-4.65-1.4c-2.16,0-3.27,1-3.27,2.37s.83,2.09,3.38,2.34l1.8.18c3.49.33,5.18,2.09,5.18,4.86,0,3.39-2.44,5.65-6.94,5.65A10.73,10.73,0,0,1,33.66,174.28Z"/><path class="cls-1" d="M51.26,163.48c1-3,3.49-4.64,6.81-4.64a6.94,6.94,0,0,1,5.9,2.91c.11.18.11.33-.11.51l-1.58,1.29a.32.32,0,0,1-.51,0,4.22,4.22,0,0,0-3.7-1.87,3.75,3.75,0,0,0-3.86,2.7,11.77,11.77,0,0,0-.39,3.49,11.89,11.89,0,0,0,.39,3.53,3.75,3.75,0,0,0,3.86,2.7,4.23,4.23,0,0,0,3.7-1.88.32.32,0,0,1,.51,0l1.58,1.29c.22.18.22.33.11.51a6.91,6.91,0,0,1-5.9,2.91c-3.32,0-5.84-1.65-6.81-4.64a18,18,0,0,1,0-8.75Z"/><path class="cls-1" d="M67.14,172.23a16.79,16.79,0,0,1,0-8.75c.94-2.95,3.46-4.64,6.8-4.64s5.87,1.69,6.81,4.64a17.07,17.07,0,0,1,0,8.75,6.72,6.72,0,0,1-6.81,4.64A6.71,6.71,0,0,1,67.14,172.23Zm10.69-.86a11.27,11.27,0,0,0,.4-3.53,10.91,10.91,0,0,0-.4-3.49,4.15,4.15,0,0,0-7.77,0,10.91,10.91,0,0,0-.4,3.49,11.27,11.27,0,0,0,.4,3.53,4.15,4.15,0,0,0,7.77,0Z"/><path class="cls-1" d="M85.39,172.66h2.52a.34.34,0,0,1,.36.36v3.35a1.14,1.14,0,0,1-.22.79l-2.23,3a.56.56,0,0,1-.47.25A.32.32,0,0,1,85,180v-7A.34.34,0,0,1,85.39,172.66Z"/><path class="cls-1" d="M99.72,172.19a17.21,17.21,0,0,1,0-8.71,7.26,7.26,0,0,1,13.54,0,15.08,15.08,0,0,1,.54,4.93.35.35,0,0,1-.4.36H102.45a.19.19,0,0,0-.21.22,6.47,6.47,0,0,0,.29,2.09,4.25,4.25,0,0,0,4.35,3,5.65,5.65,0,0,0,4.43-1.91c.18-.18.36-.22.54-.08l1.47,1.34a.32.32,0,0,1,0,.5,8.38,8.38,0,0,1-6.73,3C103.14,176.87,100.65,175.18,99.72,172.19Zm10.73-5.83a.19.19,0,0,0,.21-.21,6.08,6.08,0,0,0-.25-2,4.25,4.25,0,0,0-7.92,0,6.08,6.08,0,0,0-.25,2,.19.19,0,0,0,.21.21Z"/><path class="cls-1" d="M122.9,176.66c-3.35,0-4.64-1.52-4.64-4.9V161.9a.19.19,0,0,0-.22-.22H116.6a.34.34,0,0,1-.36-.36v-1.73a.34.34,0,0,1,.36-.35H118a.2.2,0,0,0,.22-.22v-4.86a.34.34,0,0,1,.36-.36h2.3a.34.34,0,0,1,.36.36V159a.2.2,0,0,0,.22.22h2.73a.33.33,0,0,1,.36.35v1.73a.34.34,0,0,1-.36.36H121.5a.19.19,0,0,0-.22.22v9.75c0,1.73.65,2.2,2.2,2.2h.75a.34.34,0,0,1,.36.36v2.09a.34.34,0,0,1-.36.36Z"/><path class="cls-1" d="M128.05,163.48a6.68,6.68,0,0,1,6.8-4.64,6.94,6.94,0,0,1,5.91,2.91.35.35,0,0,1-.11.51l-1.59,1.29a.31.31,0,0,1-.5,0,4.24,4.24,0,0,0-3.71-1.87,3.74,3.74,0,0,0-3.85,2.7,11.44,11.44,0,0,0-.39,3.49,11.56,11.56,0,0,0,.39,3.53,3.74,3.74,0,0,0,3.85,2.7,4.25,4.25,0,0,0,3.71-1.88.31.31,0,0,1,.5,0l1.59,1.29a.35.35,0,0,1,.11.51,6.92,6.92,0,0,1-5.91,2.91c-3.31,0-5.83-1.65-6.8-4.64a18,18,0,0,1,0-8.75Z"/><path class="cls-1" d="M144.39,173a.35.35,0,0,1,.36-.36h2.74a.35.35,0,0,1,.36.36v3.1a.35.35,0,0,1-.36.36h-2.74a.35.35,0,0,1-.36-.36Z"/><path class="cls-1" d="M154.72,164.67a33.28,33.28,0,0,0-3.42-14.47c-.1-.22,0-.36.22-.36h1.26a.67.67,0,0,1,.58.36,26.6,26.6,0,0,1,0,28.94.67.67,0,0,1-.58.36h-1.26c-.22,0-.32-.14-.22-.36A33.47,33.47,0,0,0,154.72,164.67Z"/><path class="cls-1" d="M162.07,172.66h2.52a.35.35,0,0,1,.36.36v3.35a1.14,1.14,0,0,1-.22.79l-2.23,3a.56.56,0,0,1-.47.25.32.32,0,0,1-.32-.32v-7A.34.34,0,0,1,162.07,172.66Z"/><path class="cls-1" d="M177.22,183a.35.35,0,0,1-.36-.36v-23a.34.34,0,0,1,.36-.35h2.31a.34.34,0,0,1,.36.35v1.62h0c.83-1.36,2.31-2.37,4.9-2.37,3,0,5.07,1.4,5.94,4.14a19.78,19.78,0,0,1,0,9.75c-.87,2.74-2.95,4.14-5.94,4.14-2.59,0-4.07-1-4.9-2.41h0v8.14a.35.35,0,0,1-.36.36Zm10.66-11.52a11.94,11.94,0,0,0,.39-3.6,12.2,12.2,0,0,0-.39-3.6,4.08,4.08,0,0,0-7.6,0,11.47,11.47,0,0,0-.39,3.6,11.35,11.35,0,0,0,.39,3.6,4.06,4.06,0,0,0,7.6,0Z"/><path class="cls-1" d="M199.65,176.66c-3,0-4.21-1.44-4.21-4.54V152.36a.34.34,0,0,1,.36-.36h2.3a.34.34,0,0,1,.36.36v19.58c0,1.44.54,1.91,1.73,1.91h.69a.33.33,0,0,1,.35.36v2.09a.34.34,0,0,1-.35.36Z"/><path class="cls-1" d="M215.2,176.48a.35.35,0,0,1-.36-.36v-1.51h0c-.8,1.29-2.49,2.26-5.12,2.26-3.27,0-5.79-1.69-5.79-5.18s2.52-5.33,6.73-5.33h3.92c.15,0,.22-.07.22-.21v-1.26c0-2.38-.94-3.39-4.14-3.39a6.68,6.68,0,0,0-4.17,1.23c-.19.14-.4.14-.51,0L205,161a.39.39,0,0,1,.07-.51,9.56,9.56,0,0,1,5.87-1.69c4.89,0,6.77,1.62,6.77,5.87v11.41a.35.35,0,0,1-.36.36Zm-.43-5.58V169a.2.2,0,0,0-.22-.22H211.1c-3,0-4.29.87-4.29,2.81,0,1.76,1.3,2.7,3.6,2.7C213.11,174.28,214.77,173,214.77,170.9Z"/><path class="cls-1" d="M233.92,176.48a.35.35,0,0,1-.36-.36V166c0-2.77-1.26-4.39-3.85-4.39a3.87,3.87,0,0,0-4,4.21v10.26a.34.34,0,0,1-.36.36h-2.3a.34.34,0,0,1-.36-.36V159.59a.33.33,0,0,1,.36-.35h2.3a.33.33,0,0,1,.36.35v1.59h0a5.45,5.45,0,0,1,4.82-2.34c3.74,0,6,2.55,6,6.48v10.8a.35.35,0,0,1-.36.36Z"/><path class="cls-1" d="M241.12,172.19a17.36,17.36,0,0,1,0-8.71,7.25,7.25,0,0,1,13.53,0,15.08,15.08,0,0,1,.54,4.93.35.35,0,0,1-.39.36H243.86a.2.2,0,0,0-.22.22,6.47,6.47,0,0,0,.29,2.09,4.26,4.26,0,0,0,4.36,3,5.61,5.61,0,0,0,4.42-1.91c.18-.18.36-.22.54-.08l1.48,1.34a.32.32,0,0,1,0,.5,8.39,8.39,0,0,1-6.74,3C244.54,176.87,242.06,175.18,241.12,172.19Zm10.73-5.83a.19.19,0,0,0,.22-.21,6.05,6.05,0,0,0-.26-2,4.25,4.25,0,0,0-7.92,0,6.08,6.08,0,0,0-.25,2c0,.14.07.21.22.21Z"/><path class="cls-1" d="M258.83,172.19a17.36,17.36,0,0,1,0-8.71,7.25,7.25,0,0,1,13.53,0,15.08,15.08,0,0,1,.54,4.93.35.35,0,0,1-.39.36H261.57a.2.2,0,0,0-.22.22,6.47,6.47,0,0,0,.29,2.09,4.27,4.27,0,0,0,4.36,3,5.61,5.61,0,0,0,4.42-1.91c.18-.18.36-.22.54-.08l1.48,1.34a.32.32,0,0,1,0,.5,8.38,8.38,0,0,1-6.73,3C262.25,176.87,259.77,175.18,258.83,172.19Zm10.73-5.83c.15,0,.22-.07.22-.21a5.79,5.79,0,0,0-.26-2,4.25,4.25,0,0,0-7.91,0,6.05,6.05,0,0,0-.26,2,.19.19,0,0,0,.22.21Z"/><path class="cls-1" d="M283.75,174.28a.33.33,0,0,1,0-.5l1.47-1.59a.36.36,0,0,1,.51,0,8.32,8.32,0,0,0,5.32,2c2.52,0,3.78-1.08,3.78-2.62,0-1.37-.65-2.13-3.35-2.42l-1.83-.18c-3.38-.36-5.15-2-5.15-4.86,0-3.27,2.34-5.25,6.41-5.25a10.32,10.32,0,0,1,6.12,1.91.34.34,0,0,1,.07.5l-1.22,1.55a.36.36,0,0,1-.51.07,9.06,9.06,0,0,0-4.64-1.4c-2.16,0-3.28,1-3.28,2.37s.83,2.09,3.39,2.34l1.8.18c3.49.33,5.18,2.09,5.18,4.86,0,3.39-2.45,5.65-6.95,5.65A10.72,10.72,0,0,1,283.75,174.28Z"/><path class="cls-1" d="M312.69,176.48a.34.34,0,0,1-.36-.36V174.5h0a5.25,5.25,0,0,1-4.71,2.37c-3.78,0-6-2.59-6-6.51V159.59a.34.34,0,0,1,.36-.35h2.31a.34.34,0,0,1,.36.35v10c0,2.81,1.25,4.43,3.81,4.43,2.34,0,3.89-1.66,3.89-4.25V159.59a.33.33,0,0,1,.36-.35H315a.33.33,0,0,1,.36.35v16.53a.34.34,0,0,1-.36.36Z"/><path class="cls-1" d="M338.9,176.48a.34.34,0,0,1-.36-.36v-1.51h0c-.79,1.29-2.48,2.26-5.11,2.26-3.28,0-5.8-1.69-5.8-5.18s2.52-5.33,6.73-5.33h3.93a.19.19,0,0,0,.21-.21v-1.26c0-2.38-.93-3.39-4.14-3.39a6.7,6.7,0,0,0-4.17,1.23.33.33,0,0,1-.51,0l-1-1.65a.39.39,0,0,1,.07-.51,9.58,9.58,0,0,1,5.87-1.69c4.9,0,6.77,1.62,6.77,5.87v11.41a.35.35,0,0,1-.36.36Zm-.44-5.58V169a.19.19,0,0,0-.21-.22h-3.46c-3,0-4.28.87-4.28,2.81,0,1.76,1.29,2.7,3.6,2.7C336.81,174.28,338.46,173,338.46,170.9Z"/><path class="cls-1" d="M345.92,163.48a6.68,6.68,0,0,1,6.8-4.64,6.92,6.92,0,0,1,5.9,2.91.34.34,0,0,1-.1.51l-1.59,1.29a.31.31,0,0,1-.5,0,4.24,4.24,0,0,0-3.71-1.87,3.74,3.74,0,0,0-3.85,2.7,11.4,11.4,0,0,0-.4,3.49,11.52,11.52,0,0,0,.4,3.53,3.74,3.74,0,0,0,3.85,2.7,4.25,4.25,0,0,0,3.71-1.88.31.31,0,0,1,.5,0l1.59,1.29a.34.34,0,0,1,.1.51,6.9,6.9,0,0,1-5.9,2.91c-3.31,0-5.83-1.65-6.8-4.64a18,18,0,0,1,0-8.75Z"/><path class="cls-1" d="M367.7,176.66c-3.35,0-4.65-1.52-4.65-4.9V161.9c0-.15-.07-.22-.21-.22H361.4a.34.34,0,0,1-.36-.36v-1.73a.33.33,0,0,1,.36-.35h1.44a.19.19,0,0,0,.21-.22v-4.86a.34.34,0,0,1,.36-.36h2.31a.34.34,0,0,1,.36.36V159a.19.19,0,0,0,.21.22H369a.34.34,0,0,1,.36.35v1.73a.34.34,0,0,1-.36.36h-2.74c-.14,0-.21.07-.21.22v9.75c0,1.73.64,2.2,2.19,2.2H369a.34.34,0,0,1,.36.36v2.09a.35.35,0,0,1-.36.36Z"/><path class="cls-1" d="M373.64,155.35a.34.34,0,0,1-.36-.36v-2.63a.34.34,0,0,1,.36-.36h2.44a.34.34,0,0,1,.36.36V155a.34.34,0,0,1-.36.36Zm.07,21.13a.34.34,0,0,1-.36-.36V159.59a.33.33,0,0,1,.36-.35H376a.33.33,0,0,1,.36.35v16.53a.34.34,0,0,1-.36.36Z"/><path class="cls-1" d="M386.16,176.48c-.25,0-.36-.15-.43-.36l-6.19-16.53c-.07-.21,0-.35.29-.35h2.48c.25,0,.36.1.47.35L387.24,172h.07l4.36-12.39a.41.41,0,0,1,.43-.35h2.45c.25,0,.36.14.29.35l-6.16,16.53a.47.47,0,0,1-.47.36Z"/><path class="cls-1" d="M398.3,155.35a.34.34,0,0,1-.36-.36v-2.63a.34.34,0,0,1,.36-.36h2.44a.34.34,0,0,1,.36.36V155a.34.34,0,0,1-.36.36Zm.07,21.13a.34.34,0,0,1-.36-.36V159.59a.33.33,0,0,1,.36-.35h2.3a.33.33,0,0,1,.36.35v16.53a.34.34,0,0,1-.36.36Z"/><path class="cls-1" d="M417,176.48a.35.35,0,0,1-.36-.36v-1.66h0c-.83,1.37-2.31,2.41-4.9,2.41-3,0-5.07-1.4-5.94-4.14a19.78,19.78,0,0,1,0-9.75c.87-2.74,3-4.14,5.94-4.14,2.59,0,4.07,1,4.9,2.37h0v-8.85A.34.34,0,0,1,417,152h2.31a.34.34,0,0,1,.36.36v23.76a.35.35,0,0,1-.36.36Zm-.75-5a11.06,11.06,0,0,0,.39-3.6,11.18,11.18,0,0,0-.39-3.6,4.08,4.08,0,0,0-7.6,0,12.54,12.54,0,0,0-.39,3.6,12.28,12.28,0,0,0,.39,3.6,4.06,4.06,0,0,0,7.6,0Z"/><path class="cls-1" d="M435.3,176.48a.35.35,0,0,1-.36-.36v-1.51h0c-.8,1.29-2.49,2.26-5.12,2.26-3.27,0-5.79-1.69-5.79-5.18s2.52-5.33,6.73-5.33h3.92c.15,0,.22-.07.22-.21v-1.26c0-2.38-.94-3.39-4.14-3.39a6.73,6.73,0,0,0-4.18,1.23.32.32,0,0,1-.5,0l-1-1.65a.39.39,0,0,1,.07-.51,9.56,9.56,0,0,1,5.87-1.69c4.89,0,6.77,1.62,6.77,5.87v11.41a.35.35,0,0,1-.36.36Zm-.43-5.58V169a.2.2,0,0,0-.22-.22H431.2c-3,0-4.29.87-4.29,2.81,0,1.76,1.3,2.7,3.6,2.7C433.21,174.28,434.87,173,434.87,170.9Z"/><path class="cls-1" d="M453.63,176.48a.34.34,0,0,1-.36-.36v-1.66h0c-.83,1.37-2.3,2.41-4.9,2.41-3,0-5.07-1.4-5.93-4.14a19.48,19.48,0,0,1,0-9.75c.86-2.74,3-4.14,5.93-4.14,2.6,0,4.07,1,4.9,2.37h0v-8.85a.34.34,0,0,1,.36-.36h2.3a.34.34,0,0,1,.36.36v23.76a.34.34,0,0,1-.36.36Zm-.76-5a11,11,0,0,0,.4-3.6,11.12,11.12,0,0,0-.4-3.6,4.08,4.08,0,0,0-7.6,0,12.54,12.54,0,0,0-.39,3.6,12.28,12.28,0,0,0,.39,3.6,4.06,4.06,0,0,0,7.6,0Z"/><path class="cls-1" d="M461.4,172.66h2.52a.34.34,0,0,1,.36.36v3.35a1.14,1.14,0,0,1-.21.79l-2.24,3a.55.55,0,0,1-.46.25A.32.32,0,0,1,461,180v-7A.35.35,0,0,1,461.4,172.66Z"/><path class="cls-1" d="M481.2,176.66c-3.35,0-4.64-1.52-4.64-4.9V161.9a.19.19,0,0,0-.22-.22H474.9a.34.34,0,0,1-.36-.36v-1.73a.34.34,0,0,1,.36-.35h1.44a.2.2,0,0,0,.22-.22v-4.86a.34.34,0,0,1,.36-.36h2.3a.34.34,0,0,1,.36.36V159a.2.2,0,0,0,.22.22h2.73a.33.33,0,0,1,.36.35v1.73a.34.34,0,0,1-.36.36H479.8a.19.19,0,0,0-.22.22v9.75c0,1.73.65,2.2,2.2,2.2h.75a.34.34,0,0,1,.36.36v2.09a.34.34,0,0,1-.36.36Z"/><path class="cls-1" d="M486.39,172.19a17.21,17.21,0,0,1,0-8.71,7.25,7.25,0,0,1,13.53,0,15.08,15.08,0,0,1,.54,4.93.35.35,0,0,1-.39.36H489.12a.19.19,0,0,0-.21.22,6.5,6.5,0,0,0,.28,2.09,4.27,4.27,0,0,0,4.36,3,5.65,5.65,0,0,0,4.43-1.91c.18-.18.36-.22.54-.08l1.47,1.34a.32.32,0,0,1,0,.5,8.38,8.38,0,0,1-6.73,3C489.81,176.87,487.32,175.18,486.39,172.19Zm10.72-5.83c.15,0,.22-.07.22-.21a6.08,6.08,0,0,0-.25-2,4.25,4.25,0,0,0-7.92,0,6.08,6.08,0,0,0-.25,2,.19.19,0,0,0,.21.21Z"/><path class="cls-1" d="M515.76,176.48a.34.34,0,0,1-.36-.36V166c0-2.77-1.26-4.39-3.85-4.39a3.87,3.87,0,0,0-4,4.21v10.26a.34.34,0,0,1-.36.36h-2.3a.34.34,0,0,1-.36-.36V159.59a.33.33,0,0,1,.36-.35h2.3a.33.33,0,0,1,.36.35v1.59h0a5.44,5.44,0,0,1,4.82-2.34c3.74,0,6,2.55,6,6.48v10.8a.34.34,0,0,1-.36.36Z"/><path class="cls-1" d="M523.07,180.8a.34.34,0,0,1,0-.51l1.48-1.47a.34.34,0,0,1,.54,0,5.75,5.75,0,0,0,4.07,1.72c2.84,0,4.35-1.47,4.35-4.64v-2h0c-.79,1.45-2.27,2.38-4.79,2.38a5.63,5.63,0,0,1-5.79-4.18,18,18,0,0,1,0-9.07,5.64,5.64,0,0,1,5.79-4.17c2.52,0,4,.93,4.79,2.37h0v-1.62a.34.34,0,0,1,.36-.35h2.31a.34.34,0,0,1,.36.35v16.13c0,4.9-2.67,7.63-7.53,7.63A7.78,7.78,0,0,1,523.07,180.8Zm10.08-9.9a10.47,10.47,0,0,0,.39-3.35,10.59,10.59,0,0,0-.39-3.35,3.89,3.89,0,0,0-7.31,0,10.78,10.78,0,0,0-.43,3.35,10.65,10.65,0,0,0,.43,3.35,3.52,3.52,0,0,0,3.64,2.59A3.56,3.56,0,0,0,533.15,170.9Z"/><path class="cls-1" d="M552.19,176.48a.35.35,0,0,1-.36-.36v-1.51h0c-.8,1.29-2.49,2.26-5.12,2.26-3.27,0-5.79-1.69-5.79-5.18s2.52-5.33,6.73-5.33h3.92c.15,0,.22-.07.22-.21v-1.26c0-2.38-.94-3.39-4.14-3.39a6.73,6.73,0,0,0-4.18,1.23.32.32,0,0,1-.5,0L542,161a.39.39,0,0,1,.07-.51,9.56,9.56,0,0,1,5.87-1.69c4.89,0,6.77,1.62,6.77,5.87v11.41a.35.35,0,0,1-.36.36Zm-.43-5.58V169a.2.2,0,0,0-.22-.22h-3.45c-3,0-4.29.87-4.29,2.81,0,1.76,1.3,2.7,3.6,2.7C550.1,174.28,551.76,173,551.76,170.9Z"/><path class="cls-1" d="M578.07,176.48a.35.35,0,0,1-.36-.36v-1.51h0c-.79,1.29-2.48,2.26-5.11,2.26-3.28,0-5.8-1.69-5.8-5.18s2.52-5.33,6.73-5.33h3.93a.19.19,0,0,0,.21-.21v-1.26c0-2.38-.93-3.39-4.14-3.39a6.7,6.7,0,0,0-4.17,1.23.33.33,0,0,1-.51,0l-1-1.65a.39.39,0,0,1,.07-.51,9.58,9.58,0,0,1,5.87-1.69c4.9,0,6.77,1.62,6.77,5.87v11.41a.35.35,0,0,1-.36.36Zm-.43-5.58V169a.19.19,0,0,0-.21-.22H574c-3,0-4.28.87-4.28,2.81,0,1.76,1.29,2.7,3.6,2.7C576,174.28,577.64,173,577.64,170.9Z"/><path class="cls-1" d="M10.3,214.66c-3,0-4.22-1.44-4.22-4.54V190.36a.34.34,0,0,1,.36-.36H8.75a.34.34,0,0,1,.36.36v19.58c0,1.44.54,1.91,1.72,1.91h.69a.34.34,0,0,1,.36.36v2.09a.35.35,0,0,1-.36.36Z"/><path class="cls-1" d="M25.85,214.48a.34.34,0,0,1-.36-.36v-1.51h0c-.79,1.29-2.48,2.26-5.11,2.26-3.28,0-5.8-1.69-5.8-5.18s2.52-5.33,6.73-5.33H25.2a.19.19,0,0,0,.21-.21v-1.26c0-2.38-.93-3.39-4.14-3.39a6.7,6.7,0,0,0-4.17,1.23c-.18.14-.4.14-.5,0l-1-1.65a.39.39,0,0,1,.08-.51,9.53,9.53,0,0,1,5.86-1.69c4.9,0,6.77,1.62,6.77,5.87v11.41a.34.34,0,0,1-.36.36Zm-.44-5.58V207a.19.19,0,0,0-.21-.22H21.74c-3,0-4.28.87-4.28,2.81,0,1.76,1.29,2.7,3.6,2.7C23.76,212.28,25.41,211,25.41,208.9Z"/><path class="cls-1" d="M63.32,214.48a.34.34,0,0,1-.36-.36V204c0-2.77-1.26-4.39-3.85-4.39a3.89,3.89,0,0,0-4,4.21v10.26a.34.34,0,0,1-.36.36h-2.3a.34.34,0,0,1-.36-.36V204c0-2.77-1.26-4.39-3.86-4.39a3.87,3.87,0,0,0-4,4.21v10.26a.34.34,0,0,1-.36.36h-2.3a.35.35,0,0,1-.36-.36V197.59a.34.34,0,0,1,.36-.35H44a.33.33,0,0,1,.36.35v1.59h0a5.45,5.45,0,0,1,4.82-2.34,5.41,5.41,0,0,1,5,2.7h0a6.41,6.41,0,0,1,5.58-2.7c4,0,6.15,2.55,6.15,6.48v10.8a.34.34,0,0,1-.36.36Z"/><path class="cls-1" d="M81.43,214.48a.34.34,0,0,1-.36-.36v-1.51h0c-.79,1.29-2.48,2.26-5.11,2.26-3.27,0-5.79-1.69-5.79-5.18s2.52-5.33,6.73-5.33h3.92c.15,0,.22-.07.22-.21v-1.26c0-2.38-.94-3.39-4.14-3.39a6.71,6.71,0,0,0-4.18,1.23.32.32,0,0,1-.5,0l-1-1.65a.38.38,0,0,1,.07-.51,9.54,9.54,0,0,1,5.87-1.69c4.89,0,6.76,1.62,6.76,5.87v11.41a.34.34,0,0,1-.36.36ZM81,208.9V207a.2.2,0,0,0-.22-.22H77.33c-3,0-4.29.87-4.29,2.81,0,1.76,1.3,2.7,3.6,2.7C79.34,212.28,81,211,81,208.9Z"/><path class="cls-1" d="M100.15,214.48a.34.34,0,0,1-.36-.36V204c0-2.77-1.26-4.39-3.85-4.39a3.87,3.87,0,0,0-4,4.21v10.26a.35.35,0,0,1-.36.36H89.31a.35.35,0,0,1-.36-.36V197.59a.34.34,0,0,1,.36-.35h2.31a.34.34,0,0,1,.36.35v1.59h0a5.47,5.47,0,0,1,4.83-2.34c3.74,0,6,2.55,6,6.48v10.8a.34.34,0,0,1-.36.36Z"/><path class="cls-1" d="M107.35,210.23a16.79,16.79,0,0,1,0-8.75c.94-2.95,3.46-4.64,6.8-4.64s5.87,1.69,6.81,4.64a17.07,17.07,0,0,1,0,8.75,7.31,7.31,0,0,1-13.61,0Zm10.69-.86a11.27,11.27,0,0,0,.4-3.53,10.91,10.91,0,0,0-.4-3.49,4.15,4.15,0,0,0-7.77,0,10.91,10.91,0,0,0-.4,3.49,11.27,11.27,0,0,0,.4,3.53,4.15,4.15,0,0,0,7.77,0Z"/><path class="cls-1" d="M137.73,214.66c-3,0-4.21-1.44-4.21-4.54V190.36a.34.34,0,0,1,.36-.36h2.31a.34.34,0,0,1,.36.36v19.58c0,1.44.54,1.91,1.72,1.91H139a.34.34,0,0,1,.36.36v2.09a.35.35,0,0,1-.36.36Z"/><path class="cls-1" d="M153.28,214.48a.35.35,0,0,1-.36-.36v-1.51h0c-.79,1.29-2.49,2.26-5.11,2.26-3.28,0-5.8-1.69-5.8-5.18s2.52-5.33,6.73-5.33h3.93a.19.19,0,0,0,.21-.21v-1.26c0-2.38-.93-3.39-4.14-3.39a6.68,6.68,0,0,0-4.17,1.23.33.33,0,0,1-.51,0l-1-1.65a.39.39,0,0,1,.07-.51,9.56,9.56,0,0,1,5.87-1.69c4.9,0,6.77,1.62,6.77,5.87v11.41a.35.35,0,0,1-.36.36Zm-.43-5.58V207a.19.19,0,0,0-.21-.22h-3.46c-3,0-4.28.87-4.28,2.81,0,1.76,1.29,2.7,3.6,2.7C151.2,212.28,152.85,211,152.85,208.9Z"/><path class="cls-1" d="M159.62,212.28a.35.35,0,0,1,0-.5l1.48-1.59a.35.35,0,0,1,.5,0,8.37,8.37,0,0,0,5.33,2c2.52,0,3.78-1.08,3.78-2.62,0-1.37-.65-2.13-3.35-2.42l-1.84-.18c-3.38-.36-5.14-2-5.14-4.86,0-3.27,2.34-5.25,6.4-5.25a10.32,10.32,0,0,1,6.12,1.91.35.35,0,0,1,.08.5l-1.23,1.55a.35.35,0,0,1-.5.07,9.09,9.09,0,0,0-4.65-1.4c-2.16,0-3.27,1-3.27,2.37s.83,2.09,3.38,2.34l1.8.18c3.49.33,5.19,2.09,5.19,4.86,0,3.39-2.45,5.65-6.95,5.65A10.73,10.73,0,0,1,159.62,212.28Z"/><path class="cls-1" d="M196.84,214.48a.35.35,0,0,1-.36-.36V204c0-2.77-1.26-4.39-3.85-4.39a3.87,3.87,0,0,0-4,4.21v10.26a.34.34,0,0,1-.36.36H186a.34.34,0,0,1-.36-.36V190.36A.34.34,0,0,1,186,190h2.3a.34.34,0,0,1,.36.36v8.82h0a5.45,5.45,0,0,1,4.82-2.34c3.74,0,6,2.55,6,6.48v10.8a.35.35,0,0,1-.36.36Z"/><path class="cls-1" d="M204,210.19a17.36,17.36,0,0,1,0-8.71,7.25,7.25,0,0,1,13.53,0,15.08,15.08,0,0,1,.54,4.93.35.35,0,0,1-.39.36H206.78a.2.2,0,0,0-.22.22,6.47,6.47,0,0,0,.29,2.09,4.27,4.27,0,0,0,4.36,3,5.61,5.61,0,0,0,4.42-1.91c.18-.18.36-.22.54-.08l1.48,1.34a.32.32,0,0,1,0,.5,8.38,8.38,0,0,1-6.73,3C207.46,214.87,205,213.18,204,210.19Zm10.73-5.83c.15,0,.22-.07.22-.21a5.79,5.79,0,0,0-.26-2,4.25,4.25,0,0,0-7.91,0,6.05,6.05,0,0,0-.26,2,.19.19,0,0,0,.22.21Z"/><path class="cls-1" d="M222.58,214.48a.35.35,0,0,1-.36-.36V197.59a.34.34,0,0,1,.36-.35h2.31a.34.34,0,0,1,.36.35v1.77h0a4.8,4.8,0,0,1,4.57-2.52,5.3,5.3,0,0,1,3.53,1.29c.18.18.22.33.07.51l-1.33,1.76a.32.32,0,0,1-.5.07,4.89,4.89,0,0,0-2.67-.82c-2.62,0-3.7,2-3.7,5v9.43a.35.35,0,0,1-.36.36Z"/><path class="cls-1" d="M236.62,214.48a.35.35,0,0,1-.36-.36V197.59a.34.34,0,0,1,.36-.35h2.31a.34.34,0,0,1,.36.35v1.77h0a4.8,4.8,0,0,1,4.57-2.52,5.3,5.3,0,0,1,3.53,1.29c.18.18.22.33.07.51l-1.33,1.76a.32.32,0,0,1-.5.07,4.89,4.89,0,0,0-2.67-.82c-2.62,0-3.7,2-3.7,5v9.43a.35.35,0,0,1-.36.36Z"/><path class="cls-1" d="M259.88,214.48a.34.34,0,0,1-.36-.36v-1.51h0c-.79,1.29-2.48,2.26-5.11,2.26-3.27,0-5.79-1.69-5.79-5.18s2.52-5.33,6.73-5.33h3.92a.19.19,0,0,0,.22-.21v-1.26c0-2.38-.94-3.39-4.14-3.39a6.71,6.71,0,0,0-4.18,1.23.32.32,0,0,1-.5,0l-1-1.65a.38.38,0,0,1,.07-.51,9.54,9.54,0,0,1,5.87-1.69c4.89,0,6.76,1.62,6.76,5.87v11.41a.34.34,0,0,1-.36.36Zm-.43-5.58V207a.2.2,0,0,0-.22-.22h-3.46c-3,0-4.28.87-4.28,2.81,0,1.76,1.3,2.7,3.6,2.7C257.79,212.28,259.45,211,259.45,208.9Z"/><path class="cls-1" d="M289.43,214.48a.35.35,0,0,1-.36-.36V204c0-2.77-1.26-4.39-3.85-4.39a3.89,3.89,0,0,0-4,4.21v10.26a.34.34,0,0,1-.36.36h-2.3a.34.34,0,0,1-.36-.36V204c0-2.77-1.26-4.39-3.85-4.39a3.87,3.87,0,0,0-4,4.21v10.26a.35.35,0,0,1-.36.36h-2.31a.35.35,0,0,1-.36-.36V197.59a.34.34,0,0,1,.36-.35h2.31a.34.34,0,0,1,.36.35v1.59h0a6.1,6.1,0,0,1,9.87.36h0a6.41,6.41,0,0,1,5.58-2.7c4,0,6.16,2.55,6.16,6.48v10.8a.35.35,0,0,1-.36.36Z"/><path class="cls-1" d="M297.39,193.35A.35.35,0,0,1,297,193v-2.63a.34.34,0,0,1,.36-.36h2.45a.34.34,0,0,1,.36.36V193a.34.34,0,0,1-.36.36Zm.07,21.13a.35.35,0,0,1-.36-.36V197.59a.34.34,0,0,1,.36-.35h2.31a.34.34,0,0,1,.36.35v16.53a.35.35,0,0,1-.36.36Z"/><path class="cls-1" d="M304.84,210.19a17.36,17.36,0,0,1,0-8.71,7.25,7.25,0,0,1,13.53,0,15.08,15.08,0,0,1,.54,4.93.35.35,0,0,1-.39.36H307.58a.2.2,0,0,0-.22.22,6.47,6.47,0,0,0,.29,2.09,4.26,4.26,0,0,0,4.36,3,5.61,5.61,0,0,0,4.42-1.91c.18-.18.36-.22.54-.08l1.48,1.34a.32.32,0,0,1,0,.5,8.39,8.39,0,0,1-6.74,3C308.26,214.87,305.78,213.18,304.84,210.19Zm10.73-5.83a.19.19,0,0,0,.22-.21,6.05,6.05,0,0,0-.26-2,4.25,4.25,0,0,0-7.92,0,6.08,6.08,0,0,0-.25,2c0,.14.07.21.22.21Z"/><path class="cls-1" d="M334.22,214.48a.34.34,0,0,1-.36-.36V204c0-2.77-1.26-4.39-3.85-4.39a3.87,3.87,0,0,0-4,4.21v10.26a.35.35,0,0,1-.36.36h-2.31a.35.35,0,0,1-.36-.36V197.59a.34.34,0,0,1,.36-.35h2.31a.34.34,0,0,1,.36.35v1.59h0a5.47,5.47,0,0,1,4.83-2.34c3.74,0,6,2.55,6,6.48v10.8a.34.34,0,0,1-.36.36Z"/><path class="cls-1" d="M346.89,214.66c-3.35,0-4.64-1.52-4.64-4.9V199.9a.2.2,0,0,0-.22-.22h-1.44a.34.34,0,0,1-.36-.36v-1.73a.33.33,0,0,1,.36-.35H342a.2.2,0,0,0,.22-.22v-4.86a.34.34,0,0,1,.36-.36h2.3a.34.34,0,0,1,.36.36V197a.2.2,0,0,0,.22.22h2.73a.33.33,0,0,1,.36.35v1.73a.34.34,0,0,1-.36.36h-2.73a.19.19,0,0,0-.22.22v9.75c0,1.73.65,2.2,2.19,2.2h.76a.34.34,0,0,1,.36.36v2.09a.34.34,0,0,1-.36.36Z"/><path class="cls-1" d="M363,214.48a.34.34,0,0,1-.36-.36v-1.51h0c-.79,1.29-2.48,2.26-5.11,2.26-3.27,0-5.79-1.69-5.79-5.18s2.52-5.33,6.73-5.33h3.92c.15,0,.22-.07.22-.21v-1.26c0-2.38-.94-3.39-4.14-3.39a6.73,6.73,0,0,0-4.18,1.23.32.32,0,0,1-.5,0l-1-1.65a.39.39,0,0,1,.07-.51,9.56,9.56,0,0,1,5.87-1.69c4.89,0,6.76,1.62,6.76,5.87v11.41a.34.34,0,0,1-.36.36Zm-.43-5.58V207a.2.2,0,0,0-.22-.22h-3.45c-3,0-4.29.87-4.29,2.81,0,1.76,1.3,2.7,3.6,2.7C360.89,212.28,362.55,211,362.55,208.9Z"/><path class="cls-1" d="M369.32,212.28a.33.33,0,0,1,0-.5l1.47-1.59a.36.36,0,0,1,.51,0,8.34,8.34,0,0,0,5.33,2c2.52,0,3.78-1.08,3.78-2.62,0-1.37-.65-2.13-3.35-2.42l-1.84-.18c-3.38-.36-5.15-2-5.15-4.86,0-3.27,2.34-5.25,6.41-5.25a10.32,10.32,0,0,1,6.12,1.91.34.34,0,0,1,.07.5l-1.22,1.55a.36.36,0,0,1-.51.07,9,9,0,0,0-4.64-1.4c-2.16,0-3.27,1-3.27,2.37s.82,2.09,3.38,2.34l1.8.18c3.49.33,5.18,2.09,5.18,4.86,0,3.39-2.45,5.65-6.94,5.65A10.73,10.73,0,0,1,369.32,212.28Z"/><path class="cls-1" d="M405.78,214.48a.35.35,0,0,1-.36-.36v-1.51h0c-.79,1.29-2.49,2.26-5.11,2.26-3.28,0-5.8-1.69-5.8-5.18s2.52-5.33,6.73-5.33h3.93a.19.19,0,0,0,.21-.21v-1.26c0-2.38-.93-3.39-4.14-3.39a6.7,6.7,0,0,0-4.17,1.23.33.33,0,0,1-.51,0l-1-1.65a.39.39,0,0,1,.07-.51,9.58,9.58,0,0,1,5.87-1.69c4.9,0,6.77,1.62,6.77,5.87v11.41a.35.35,0,0,1-.36.36Zm-.43-5.58V207a.19.19,0,0,0-.21-.22h-3.46c-3,0-4.28.87-4.28,2.81,0,1.76,1.29,2.7,3.6,2.7C403.7,212.28,405.35,211,405.35,208.9Z"/><path class="cls-1" d="M424.11,214.48a.34.34,0,0,1-.36-.36v-1.66h0c-.83,1.37-2.3,2.41-4.89,2.41-3,0-5.08-1.4-5.94-4.14a19.78,19.78,0,0,1,0-9.75c.86-2.74,2.95-4.14,5.94-4.14,2.59,0,4.06,1,4.89,2.37h0v-8.85a.34.34,0,0,1,.36-.36h2.3a.34.34,0,0,1,.36.36v23.76a.34.34,0,0,1-.36.36Zm-.76-5a11,11,0,0,0,.4-3.6,11.12,11.12,0,0,0-.4-3.6,4.08,4.08,0,0,0-7.59,0,12.15,12.15,0,0,0-.4,3.6,11.89,11.89,0,0,0,.4,3.6,4.05,4.05,0,0,0,7.59,0Z"/><path class="cls-1" d="M431.49,210.19a17.21,17.21,0,0,1,0-8.71,7.26,7.26,0,0,1,13.54,0,15.08,15.08,0,0,1,.54,4.93.35.35,0,0,1-.4.36h-10.9a.2.2,0,0,0-.22.22,6.47,6.47,0,0,0,.29,2.09,4.25,4.25,0,0,0,4.35,3,5.65,5.65,0,0,0,4.43-1.91c.18-.18.36-.22.54-.08l1.48,1.34a.31.31,0,0,1,0,.5,8.38,8.38,0,0,1-6.73,3C434.91,214.87,432.43,213.18,431.49,210.19Zm10.73-5.83a.19.19,0,0,0,.21-.21,6.08,6.08,0,0,0-.25-2,4.25,4.25,0,0,0-7.92,0,6.08,6.08,0,0,0-.25,2c0,.14.07.21.22.21Z"/><path class="cls-1" d="M449.17,201.48a6.68,6.68,0,0,1,6.8-4.64,6.92,6.92,0,0,1,5.9,2.91c.11.18.11.33-.11.51l-1.58,1.29a.31.31,0,0,1-.5,0,4.24,4.24,0,0,0-3.71-1.87,3.74,3.74,0,0,0-3.85,2.7,11.4,11.4,0,0,0-.4,3.49,11.52,11.52,0,0,0,.4,3.53,3.74,3.74,0,0,0,3.85,2.7,4.25,4.25,0,0,0,3.71-1.88.31.31,0,0,1,.5,0l1.58,1.29c.22.18.22.33.11.51a6.9,6.9,0,0,1-5.9,2.91c-3.31,0-5.83-1.65-6.8-4.64a18,18,0,0,1,0-8.75Z"/><path class="cls-1" d="M476.77,214.48a.34.34,0,0,1-.35-.36V212.5h0a5.25,5.25,0,0,1-4.72,2.37c-3.78,0-6-2.59-6-6.51V197.59a.33.33,0,0,1,.36-.35h2.3a.33.33,0,0,1,.36.35v10c0,2.81,1.26,4.43,3.82,4.43,2.34,0,3.89-1.66,3.89-4.25V197.59a.33.33,0,0,1,.35-.35h2.31a.34.34,0,0,1,.36.35v16.53a.35.35,0,0,1-.36.36Z"/><path class="cls-1" d="M495.06,214.48a.35.35,0,0,1-.36-.36v-1.51h0c-.8,1.29-2.49,2.26-5.12,2.26-3.27,0-5.79-1.69-5.79-5.18s2.52-5.33,6.73-5.33h3.92c.15,0,.22-.07.22-.21v-1.26c0-2.38-.94-3.39-4.14-3.39a6.68,6.68,0,0,0-4.17,1.23.33.33,0,0,1-.51,0l-1-1.65a.39.39,0,0,1,.07-.51,9.56,9.56,0,0,1,5.87-1.69c4.89,0,6.77,1.62,6.77,5.87v11.41a.35.35,0,0,1-.36.36Zm-.43-5.58V207a.2.2,0,0,0-.22-.22H491c-3,0-4.28.87-4.28,2.81,0,1.76,1.29,2.7,3.59,2.7C493,212.28,494.63,211,494.63,208.9Z"/><path class="cls-1" d="M513.39,214.48a.34.34,0,0,1-.36-.36v-1.66h0c-.83,1.37-2.3,2.41-4.9,2.41-3,0-5.07-1.4-5.93-4.14a19.48,19.48,0,0,1,0-9.75c.86-2.74,2.95-4.14,5.93-4.14,2.6,0,4.07,1,4.9,2.37h0v-8.85a.34.34,0,0,1,.36-.36h2.3a.34.34,0,0,1,.36.36v23.76a.34.34,0,0,1-.36.36Zm-.76-5a11,11,0,0,0,.4-3.6,11.12,11.12,0,0,0-.4-3.6,4.08,4.08,0,0,0-7.59,0,12.15,12.15,0,0,0-.4,3.6,11.89,11.89,0,0,0,.4,3.6,4.05,4.05,0,0,0,7.59,0Z"/><path class="cls-1" d="M531.67,214.48a.35.35,0,0,1-.36-.36v-1.51h0c-.79,1.29-2.49,2.26-5.11,2.26-3.28,0-5.8-1.69-5.8-5.18s2.52-5.33,6.73-5.33H531a.19.19,0,0,0,.21-.21v-1.26c0-2.38-.93-3.39-4.14-3.39a6.7,6.7,0,0,0-4.17,1.23.33.33,0,0,1-.51,0l-1-1.65a.39.39,0,0,1,.07-.51,9.56,9.56,0,0,1,5.87-1.69c4.9,0,6.77,1.62,6.77,5.87v11.41a.35.35,0,0,1-.36.36Zm-.43-5.58V207a.19.19,0,0,0-.21-.22h-3.46c-3,0-4.28.87-4.28,2.81,0,1.76,1.29,2.7,3.6,2.7C529.59,212.28,531.24,211,531.24,208.9Z"/><path class="cls-1" d="M538,212.28a.35.35,0,0,1,0-.5l1.48-1.59a.35.35,0,0,1,.5,0,8.37,8.37,0,0,0,5.33,2c2.52,0,3.78-1.08,3.78-2.62,0-1.37-.65-2.13-3.35-2.42l-1.84-.18c-3.38-.36-5.14-2-5.14-4.86,0-3.27,2.34-5.25,6.4-5.25a10.32,10.32,0,0,1,6.12,1.91.35.35,0,0,1,.08.5l-1.23,1.55a.35.35,0,0,1-.5.07,9.09,9.09,0,0,0-4.65-1.4c-2.16,0-3.27,1-3.27,2.37s.83,2.09,3.38,2.34l1.8.18c3.49.33,5.19,2.09,5.19,4.86,0,3.39-2.45,5.65-7,5.65A10.75,10.75,0,0,1,538,212.28Z"/><path class="cls-1" d="M564.18,221a.35.35,0,0,1-.36-.36v-2.09a.34.34,0,0,1,.36-.36h.65c1.4,0,2.16-.61,2.92-2.59l.57-1.59L562,197.59c-.08-.21,0-.35.28-.35h2.52a.42.42,0,0,1,.44.35l4.53,12.46h.07l4.36-12.46a.41.41,0,0,1,.43-.35h2.45c.21,0,.36.14.29.35l-6.81,18.22c-1.51,4.07-2.84,5.15-5.43,5.15Z"/><path class="cls-1" d="M166.57,252.66c-3.35,0-4.65-1.52-4.65-4.9V237.9c0-.15-.07-.22-.21-.22h-1.44a.34.34,0,0,1-.36-.36v-1.73a.33.33,0,0,1,.36-.35h1.44a.19.19,0,0,0,.21-.22v-4.86a.34.34,0,0,1,.36-.36h2.31a.34.34,0,0,1,.36.36V235a.19.19,0,0,0,.21.22h2.74a.33.33,0,0,1,.36.35v1.73a.34.34,0,0,1-.36.36h-2.74c-.14,0-.21.07-.21.22v9.75c0,1.73.65,2.2,2.19,2.2h.76a.34.34,0,0,1,.36.36v2.09a.34.34,0,0,1-.36.36Z"/><path class="cls-1" d="M172.58,252.48a.34.34,0,0,1-.36-.36V235.59a.33.33,0,0,1,.36-.35h2.3a.33.33,0,0,1,.36.35v1.77h0a4.8,4.8,0,0,1,4.57-2.52,5.3,5.3,0,0,1,3.53,1.29c.18.18.21.33.07.51l-1.33,1.76a.32.32,0,0,1-.5.07,4.92,4.92,0,0,0-2.67-.82c-2.63,0-3.71,2-3.71,5v9.43a.34.34,0,0,1-.36.36Z"/><path class="cls-1" d="M195.84,252.48a.34.34,0,0,1-.36-.36v-1.51h0c-.79,1.29-2.48,2.26-5.11,2.26-3.28,0-5.8-1.69-5.8-5.18s2.52-5.33,6.73-5.33h3.93a.19.19,0,0,0,.21-.21v-1.26c0-2.38-.93-3.39-4.14-3.39a6.7,6.7,0,0,0-4.17,1.23.33.33,0,0,1-.51,0l-1-1.65a.38.38,0,0,1,.08-.51,9.53,9.53,0,0,1,5.86-1.69c4.9,0,6.77,1.62,6.77,5.87v11.41a.34.34,0,0,1-.36.36Zm-.44-5.58V245a.19.19,0,0,0-.21-.22h-3.46c-3,0-4.28.87-4.28,2.81,0,1.76,1.29,2.7,3.6,2.7C193.75,250.28,195.4,249,195.4,246.9Z"/><path class="cls-1" d="M203.72,252.48a.34.34,0,0,1-.36-.36V228.36a.34.34,0,0,1,.36-.36H206a.34.34,0,0,1,.36.36v8.85h0c.83-1.36,2.3-2.37,4.9-2.37,3,0,5.07,1.4,5.93,4.14a19.48,19.48,0,0,1,0,9.75c-.86,2.74-2.95,4.14-5.93,4.14-2.6,0-4.07-1-4.9-2.41h0v1.66a.34.34,0,0,1-.36.36Zm10.66-5a12.28,12.28,0,0,0,.39-3.6,12.54,12.54,0,0,0-.39-3.6,4.08,4.08,0,0,0-7.6,0,11.12,11.12,0,0,0-.4,3.6,11,11,0,0,0,.4,3.6,4.06,4.06,0,0,0,7.6,0Z"/><path class="cls-1" d="M232.45,252.48a.34.34,0,0,1-.36-.36v-1.51h0c-.79,1.29-2.48,2.26-5.11,2.26-3.28,0-5.79-1.69-5.79-5.18s2.51-5.33,6.73-5.33h3.92a.19.19,0,0,0,.22-.21v-1.26c0-2.38-.94-3.39-4.14-3.39a6.71,6.71,0,0,0-4.18,1.23c-.18.14-.4.14-.5,0l-1-1.65a.39.39,0,0,1,.08-.51,9.53,9.53,0,0,1,5.86-1.69c4.9,0,6.77,1.62,6.77,5.87v11.41a.34.34,0,0,1-.36.36ZM232,246.9V245a.2.2,0,0,0-.22-.22h-3.46c-3,0-4.28.87-4.28,2.81,0,1.76,1.3,2.7,3.6,2.7C230.36,250.28,232,249,232,246.9Z"/><path class="cls-1" d="M237.13,259a.34.34,0,0,1-.36-.36v-2.09a.34.34,0,0,1,.36-.36h.57c1.7,0,2.27-.47,2.27-2.31V235.59a.34.34,0,0,1,.36-.35h2.31a.34.34,0,0,1,.36.35v18.18c0,3.71-1.66,5.19-5.15,5.19Zm3.13-27.61a.34.34,0,0,1-.36-.36v-2.63a.34.34,0,0,1,.36-.36h2.45a.34.34,0,0,1,.36.36V231a.35.35,0,0,1-.36.36Z"/><path class="cls-1" d="M247.71,248.19a17.36,17.36,0,0,1,0-8.71,7.25,7.25,0,0,1,13.53,0,15.08,15.08,0,0,1,.54,4.93c0,.22-.14.36-.4.36h-10.9a.2.2,0,0,0-.22.22,6.47,6.47,0,0,0,.29,2.09,4.26,4.26,0,0,0,4.36,3,5.61,5.61,0,0,0,4.42-1.91c.18-.18.36-.22.54-.08l1.48,1.34a.31.31,0,0,1,0,.5,8.35,8.35,0,0,1-6.73,3C251.13,252.87,248.65,251.18,247.71,248.19Zm10.73-5.83a.19.19,0,0,0,.21-.21,6.08,6.08,0,0,0-.25-2,4.25,4.25,0,0,0-7.92,0,6.08,6.08,0,0,0-.25,2c0,.14.07.21.22.21Z"/><path class="cls-1" d="M273.34,248.19a17.36,17.36,0,0,1,0-8.71,7.25,7.25,0,0,1,13.53,0,15.08,15.08,0,0,1,.54,4.93.35.35,0,0,1-.39.36H276.08a.2.2,0,0,0-.22.22,6.47,6.47,0,0,0,.29,2.09,4.26,4.26,0,0,0,4.36,3,5.61,5.61,0,0,0,4.42-1.91c.18-.18.36-.22.54-.08l1.48,1.34a.32.32,0,0,1,0,.5,8.39,8.39,0,0,1-6.74,3C276.76,252.87,274.28,251.18,273.34,248.19Zm10.73-5.83a.19.19,0,0,0,.22-.21,6.05,6.05,0,0,0-.26-2,4.25,4.25,0,0,0-7.91,0,6.05,6.05,0,0,0-.26,2,.19.19,0,0,0,.22.21Z"/><path class="cls-1" d="M302.72,252.48a.34.34,0,0,1-.36-.36V242c0-2.77-1.26-4.39-3.85-4.39a3.87,3.87,0,0,0-4,4.21v10.26a.35.35,0,0,1-.36.36h-2.31a.35.35,0,0,1-.36-.36V235.59a.34.34,0,0,1,.36-.35h2.31a.34.34,0,0,1,.36.35v1.59h0a5.47,5.47,0,0,1,4.83-2.34c3.74,0,6,2.55,6,6.48v10.8a.34.34,0,0,1-.36.36Z"/><path class="cls-1" d="M317.84,248.19a17.21,17.21,0,0,1,0-8.71,7.26,7.26,0,0,1,13.54,0,15.08,15.08,0,0,1,.54,4.93.35.35,0,0,1-.4.36H320.57a.19.19,0,0,0-.21.22,6.47,6.47,0,0,0,.29,2.09,4.25,4.25,0,0,0,4.35,3,5.65,5.65,0,0,0,4.43-1.91c.18-.18.36-.22.54-.08l1.47,1.34a.32.32,0,0,1,0,.5,8.38,8.38,0,0,1-6.73,3C321.26,252.87,318.77,251.18,317.84,248.19Zm10.72-5.83c.15,0,.22-.07.22-.21a6.08,6.08,0,0,0-.25-2,4.25,4.25,0,0,0-7.92,0,6.08,6.08,0,0,0-.25,2,.19.19,0,0,0,.21.21Z"/><path class="cls-1" d="M346.82,259a.34.34,0,0,1-.36-.36v-8.14h0c-.83,1.37-2.3,2.41-4.9,2.41a5.71,5.71,0,0,1-5.94-4.14,19.78,19.78,0,0,1,0-9.75,5.71,5.71,0,0,1,5.94-4.14c2.6,0,4.07,1,4.9,2.37h0v-1.62a.33.33,0,0,1,.36-.35h2.3a.33.33,0,0,1,.36.35v23a.34.34,0,0,1-.36.36Zm-.76-11.52a11,11,0,0,0,.4-3.6,11.12,11.12,0,0,0-.4-3.6,4.08,4.08,0,0,0-7.6,0,12.54,12.54,0,0,0-.39,3.6,12.28,12.28,0,0,0,.39,3.6,4.06,4.06,0,0,0,7.6,0Z"/><path class="cls-1" d="M365.5,252.48a.34.34,0,0,1-.36-.36V250.5h0a5.25,5.25,0,0,1-4.71,2.37c-3.78,0-6-2.59-6-6.51V235.59a.34.34,0,0,1,.36-.35h2.31a.34.34,0,0,1,.36.35v10c0,2.81,1.26,4.43,3.81,4.43,2.34,0,3.89-1.66,3.89-4.25V235.59a.33.33,0,0,1,.36-.35h2.3a.33.33,0,0,1,.36.35v16.53a.34.34,0,0,1-.36.36Z"/><path class="cls-1" d="M373.64,231.35a.34.34,0,0,1-.36-.36v-2.63a.34.34,0,0,1,.36-.36h2.44a.34.34,0,0,1,.36.36V231a.34.34,0,0,1-.36.36Zm.07,21.13a.34.34,0,0,1-.36-.36V235.59a.33.33,0,0,1,.36-.35H376a.33.33,0,0,1,.36.35v16.53a.34.34,0,0,1-.36.36Z"/><path class="cls-1" d="M381.92,259a.34.34,0,0,1-.36-.36v-23a.33.33,0,0,1,.36-.35h2.3a.33.33,0,0,1,.36.35v1.62h0c.82-1.36,2.3-2.37,4.89-2.37,3,0,5.08,1.4,5.94,4.14a19.78,19.78,0,0,1,0,9.75c-.86,2.74-2.95,4.14-5.94,4.14-2.59,0-4.07-1-4.89-2.41h0v8.14a.34.34,0,0,1-.36.36Zm10.65-11.52a11.89,11.89,0,0,0,.4-3.6,12.15,12.15,0,0,0-.4-3.6,4.08,4.08,0,0,0-7.59,0,11.12,11.12,0,0,0-.4,3.6,11,11,0,0,0,.4,3.6,4.05,4.05,0,0,0,7.59,0Z"/><path class="cls-1" d="M399.74,248.23a16.79,16.79,0,0,1,0-8.75c.93-2.95,3.45-4.64,6.8-4.64s5.87,1.69,6.8,4.64a16.79,16.79,0,0,1,0,8.75,7.3,7.3,0,0,1-13.6,0Zm10.69-.86a11.63,11.63,0,0,0,.39-3.53,11.26,11.26,0,0,0-.39-3.49,4.15,4.15,0,0,0-7.78,0,11,11,0,0,0-.39,3.49,11.32,11.32,0,0,0,.39,3.53,4.15,4.15,0,0,0,7.78,0Z"/><path class="cls-1" d="M417.63,249a.34.34,0,0,1,.36-.36h2.73a.34.34,0,0,1,.36.36v3.1a.34.34,0,0,1-.36.36H418a.34.34,0,0,1-.36-.36Z"/></g></g></svg>