<svg xmlns="http://www.w3.org/2000/svg" viewBox="0 0 471.57 338.39"><title>r11</title><g id="Capa_2" data-name="Capa 2"><g id="recomendaciones"><path d="M32.94.4c.08-.24.2-.4.48-.4H36a.52.52,0,0,1,.52.4l9.32,26.39c.08.25,0,.41-.28.41h-2.8a.48.48,0,0,1-.52-.41l-2.08-5.91h-11L27.1,26.79c-.12.29-.28.41-.52.41h-2.8c-.24,0-.36-.16-.28-.41ZM39,17.6,34.74,5.24h-.08L30.34,17.6Z"/><path d="M60.94,27.2a.38.38,0,0,1-.4-.41V15.6c0-3.08-1.4-4.88-4.28-4.88-2.6,0-4.4,1.84-4.4,4.68V26.79a.38.38,0,0,1-.4.41H48.9a.38.38,0,0,1-.4-.41V8.44a.38.38,0,0,1,.4-.4h2.56a.38.38,0,0,1,.4.4V10.2h0a6.06,6.06,0,0,1,5.36-2.6c4.16,0,6.64,2.84,6.64,7.2v12a.38.38,0,0,1-.4.41Z"/><path d="M74.22,27.4c-3.72,0-5.16-1.69-5.16-5.44V11a.21.21,0,0,0-.24-.24h-1.6a.38.38,0,0,1-.4-.4V8.44a.38.38,0,0,1,.4-.4h1.6a.21.21,0,0,0,.24-.24V2.4a.38.38,0,0,1,.4-.4H72a.38.38,0,0,1,.4.4V7.8a.21.21,0,0,0,.24.24h3a.38.38,0,0,1,.4.4v1.92a.38.38,0,0,1-.4.4h-3a.21.21,0,0,0-.24.24V21.84c0,1.92.72,2.44,2.44,2.44h.84a.38.38,0,0,1,.4.4V27a.38.38,0,0,1-.4.4Z"/><path d="M79.18,22.44a15,15,0,0,1-.64-4.84,14.86,14.86,0,0,1,.6-4.84C80.22,9.44,83,7.6,86.66,7.6a7.42,7.42,0,0,1,7.52,5.16,16.72,16.72,0,0,1,.6,5.48.39.39,0,0,1-.44.4H82.22a.21.21,0,0,0-.24.24,7.18,7.18,0,0,0,.32,2.32,4.73,4.73,0,0,0,4.84,3.32,6.26,6.26,0,0,0,4.92-2.12.41.41,0,0,1,.6-.08L94.3,23.8a.36.36,0,0,1,0,.56,9.31,9.31,0,0,1-7.48,3.27C83,27.63,80.22,25.75,79.18,22.44ZM91.1,16a.21.21,0,0,0,.24-.24,6.74,6.74,0,0,0-.28-2.16,4.73,4.73,0,0,0-8.8,0A6.74,6.74,0,0,0,82,15.72a.21.21,0,0,0,.24.24Z"/><path d="M97.26,24.76a.39.39,0,0,1,0-.56l1.64-1.76a.39.39,0,0,1,.56,0,9.31,9.31,0,0,0,5.92,2.2c2.8,0,4.2-1.2,4.2-2.92,0-1.52-.72-2.36-3.72-2.68l-2-.2c-3.76-.4-5.72-2.28-5.72-5.4,0-3.64,2.6-5.84,7.12-5.84A11.46,11.46,0,0,1,112,9.72a.39.39,0,0,1,.08.56L110.74,12a.39.39,0,0,1-.56.08A10.09,10.09,0,0,0,105,10.52c-2.4,0-3.64,1.08-3.64,2.64s.92,2.32,3.76,2.6l2,.2c3.88.36,5.76,2.32,5.76,5.4,0,3.76-2.72,6.27-7.72,6.27A11.91,11.91,0,0,1,97.26,24.76Z"/><path d="M136.58,27.2a.38.38,0,0,1-.4-.41V25h0c-.92,1.52-2.56,2.67-5.44,2.67-3.32,0-5.64-1.55-6.6-4.59a16,16,0,0,1-.68-5.44,15.84,15.84,0,0,1,.68-5.4c1-3,3.28-4.6,6.6-4.6,2.88,0,4.52,1.12,5.44,2.64h0V.4a.38.38,0,0,1,.4-.4h2.56a.38.38,0,0,1,.4.4V26.79a.38.38,0,0,1-.4.41Zm-.84-5.6a12.31,12.31,0,0,0,.44-4,12.47,12.47,0,0,0-.44-4,4.53,4.53,0,0,0-8.44,0,13.63,13.63,0,0,0-.44,4,13.29,13.29,0,0,0,.44,4,4.51,4.51,0,0,0,8.44,0Z"/><path d="M144,22.44a15,15,0,0,1-.64-4.84,14.86,14.86,0,0,1,.6-4.84c1.08-3.32,3.88-5.16,7.52-5.16s6.44,1.88,7.51,5.16a16.72,16.72,0,0,1,.6,5.48.39.39,0,0,1-.44.4H147a.21.21,0,0,0-.24.24,7.18,7.18,0,0,0,.32,2.32,4.73,4.73,0,0,0,4.84,3.32,6.22,6.22,0,0,0,4.91-2.12c.21-.2.4-.24.61-.08l1.63,1.48a.36.36,0,0,1,0,.56,9.27,9.27,0,0,1-7.47,3.27C147.78,27.63,145,25.75,144,22.44ZM155.9,16a.21.21,0,0,0,.24-.24,6.74,6.74,0,0,0-.28-2.16,4.73,4.73,0,0,0-8.8,0,6.74,6.74,0,0,0-.28,2.16A.21.21,0,0,0,147,16Z"/><path d="M171.78,27.2a.38.38,0,0,1-.4-.41V8.44a.38.38,0,0,1,.4-.4h2.56a.38.38,0,0,1,.4.4v2h0a5.33,5.33,0,0,1,5.07-2.8A5.87,5.87,0,0,1,183.77,9c.2.2.24.36.08.56l-1.47,2a.37.37,0,0,1-.57.08,5.34,5.34,0,0,0-2.95-.92c-2.92,0-4.12,2.28-4.12,5.6V26.79a.38.38,0,0,1-.4.41Z"/><path d="M184.94,22.44a15,15,0,0,1-.64-4.84,14.86,14.86,0,0,1,.6-4.84c1.08-3.32,3.88-5.16,7.52-5.16a7.42,7.42,0,0,1,7.51,5.16,16.72,16.72,0,0,1,.6,5.48.39.39,0,0,1-.44.4H188a.21.21,0,0,0-.24.24,7.18,7.18,0,0,0,.32,2.32,4.73,4.73,0,0,0,4.84,3.32,6.25,6.25,0,0,0,4.91-2.12.41.41,0,0,1,.6-.08l1.64,1.48a.36.36,0,0,1,0,.56,9.3,9.3,0,0,1-7.47,3.27C188.74,27.63,186,25.75,184.94,22.44ZM196.85,16a.21.21,0,0,0,.24-.24,6.74,6.74,0,0,0-.28-2.16,4.72,4.72,0,0,0-8.79,0,6.74,6.74,0,0,0-.28,2.16A.21.21,0,0,0,188,16Z"/><path d="M215.93,27.2a.38.38,0,0,1-.4-.41V25.12h0c-.88,1.44-2.76,2.51-5.68,2.51-3.63,0-6.43-1.88-6.43-5.75,0-4,2.8-5.92,7.47-5.92h4.36a.21.21,0,0,0,.24-.24v-1.4c0-2.64-1-3.76-4.6-3.76a7.4,7.4,0,0,0-4.63,1.36c-.2.16-.44.16-.56,0L204.58,10a.42.42,0,0,1,.08-.56,10.6,10.6,0,0,1,6.51-1.88c5.44,0,7.52,1.8,7.52,6.52V26.79a.38.38,0,0,1-.4.41Zm-.48-6.2V18.88a.21.21,0,0,0-.24-.24h-3.84c-3.31,0-4.75,1-4.75,3.12,0,2,1.44,3,4,3C213.61,24.76,215.45,23.36,215.45,21Z"/><path d="M228.09,27.4c-3.36,0-4.67-1.61-4.67-5V.4a.38.38,0,0,1,.4-.4h2.56a.38.38,0,0,1,.39.4V22.16c0,1.6.6,2.12,1.92,2.12h.76a.38.38,0,0,1,.4.4V27a.38.38,0,0,1-.4.4Z"/><path d="M233.3,3.72a.38.38,0,0,1-.4-.4V.4a.38.38,0,0,1,.4-.4H236a.38.38,0,0,1,.4.4V3.32a.38.38,0,0,1-.4.4Zm.08,23.48a.38.38,0,0,1-.4-.41V8.44a.38.38,0,0,1,.4-.4h2.55a.38.38,0,0,1,.4.4V26.79a.38.38,0,0,1-.4.41Z"/><path d="M240.61,27.2a.38.38,0,0,1-.4-.41V24.68a.6.6,0,0,1,.16-.44l10.52-13.08v-.08h-9.76a.38.38,0,0,1-.4-.4V8.44a.38.38,0,0,1,.4-.4h13.36a.38.38,0,0,1,.4.4v2.24a.6.6,0,0,1-.16.44l-10.44,13v.08h10.2a.38.38,0,0,1,.4.4v2.23a.38.38,0,0,1-.4.41Z"/><path d="M270.37,27.2a.38.38,0,0,1-.4-.41V25.12h0c-.88,1.44-2.76,2.51-5.68,2.51-3.64,0-6.44-1.88-6.44-5.75,0-4,2.8-5.92,7.48-5.92h4.36a.21.21,0,0,0,.24-.24v-1.4c0-2.64-1-3.76-4.6-3.76a7.45,7.45,0,0,0-4.64,1.36c-.2.16-.44.16-.56,0L259,10a.42.42,0,0,1,.08-.56,10.63,10.63,0,0,1,6.52-1.88c5.44,0,7.52,1.8,7.52,6.52V26.79a.38.38,0,0,1-.4.41Zm-.48-6.2V18.88a.21.21,0,0,0-.24-.24h-3.84c-3.32,0-4.76,1-4.76,3.12,0,2,1.44,3,4,3C268.05,24.76,269.89,23.36,269.89,21Z"/><path d="M278.33,27.2a.38.38,0,0,1-.4-.41V8.44a.38.38,0,0,1,.4-.4h2.56a.38.38,0,0,1,.4.4v2h0a5.34,5.34,0,0,1,5.08-2.8A5.89,5.89,0,0,1,290.33,9c.2.2.24.36.08.56l-1.48,2a.36.36,0,0,1-.56.08,5.4,5.4,0,0,0-3-.92c-2.92,0-4.12,2.28-4.12,5.6V26.79a.38.38,0,0,1-.4.41Z"/><path d="M300.17,12.76c1.08-3.32,3.88-5.16,7.56-5.16a7.68,7.68,0,0,1,6.56,3.24c.12.2.12.36-.12.56l-1.76,1.44a.36.36,0,0,1-.56,0,4.71,4.71,0,0,0-4.12-2.08,4.16,4.16,0,0,0-4.28,3A12.76,12.76,0,0,0,303,17.6a12.88,12.88,0,0,0,.44,3.92,4.16,4.16,0,0,0,4.28,3,4.71,4.71,0,0,0,4.12-2.08.36.36,0,0,1,.56,0l1.76,1.44c.24.2.24.36.12.56a7.67,7.67,0,0,1-6.56,3.23c-3.68,0-6.48-1.84-7.56-5.15a16.55,16.55,0,0,1-.6-4.88A16.45,16.45,0,0,1,300.17,12.76Z"/><path d="M330.05,27.2a.38.38,0,0,1-.4-.41V25h0a5.86,5.86,0,0,1-5.24,2.63c-4.2,0-6.64-2.87-6.64-7.23v-12a.38.38,0,0,1,.4-.4h2.56a.38.38,0,0,1,.4.4V19.6c0,3.12,1.4,4.92,4.24,4.92,2.6,0,4.32-1.84,4.32-4.72V8.44a.38.38,0,0,1,.4-.4h2.56a.38.38,0,0,1,.4.4V26.79a.38.38,0,0,1-.4.41Z"/><path d="M349.57,27.2a.38.38,0,0,1-.4-.41V25.12h0c-.88,1.44-2.76,2.51-5.68,2.51-3.64,0-6.44-1.88-6.44-5.75,0-4,2.8-5.92,7.48-5.92h4.36a.21.21,0,0,0,.24-.24v-1.4c0-2.64-1-3.76-4.6-3.76a7.45,7.45,0,0,0-4.64,1.36c-.2.16-.44.16-.56,0L338.21,10a.42.42,0,0,1,.08-.56,10.63,10.63,0,0,1,6.52-1.88c5.44,0,7.52,1.8,7.52,6.52V26.79a.38.38,0,0,1-.4.41Zm-.48-6.2V18.88a.21.21,0,0,0-.24-.24H345c-3.32,0-4.76,1-4.76,3.12,0,2,1.44,3,4,3C347.25,24.76,349.09,23.36,349.09,21Z"/><path d="M361.73,27.4c-3.36,0-4.68-1.61-4.68-5V.4a.38.38,0,0,1,.4-.4H360a.38.38,0,0,1,.4.4V22.16c0,1.6.6,2.12,1.92,2.12h.76a.38.38,0,0,1,.4.4V27a.38.38,0,0,1-.4.4Z"/><path d="M378.61,34.39a.38.38,0,0,1-.4-.4V25h0c-.92,1.52-2.56,2.67-5.44,2.67-3.32,0-5.64-1.55-6.6-4.59a16,16,0,0,1-.68-5.44,15.84,15.84,0,0,1,.68-5.4c1-3,3.28-4.6,6.6-4.6,2.88,0,4.52,1.12,5.44,2.64h0V8.44a.38.38,0,0,1,.4-.4h2.56a.38.38,0,0,1,.4.4V34a.38.38,0,0,1-.4.4Zm-.84-12.79a12.31,12.31,0,0,0,.44-4,12.47,12.47,0,0,0-.44-4,4.53,4.53,0,0,0-8.44,0,13.63,13.63,0,0,0-.44,4,13.29,13.29,0,0,0,.44,4,4.51,4.51,0,0,0,8.44,0Z"/><path d="M398.57,27.2a.38.38,0,0,1-.4-.41V25h0a5.86,5.86,0,0,1-5.24,2.63c-4.2,0-6.64-2.87-6.64-7.23v-12a.38.38,0,0,1,.4-.4h2.56a.38.38,0,0,1,.4.4V19.6c0,3.12,1.4,4.92,4.24,4.92,2.6,0,4.32-1.84,4.32-4.72V8.44a.38.38,0,0,1,.4-.4h2.56a.38.38,0,0,1,.4.4V26.79a.38.38,0,0,1-.4.41Z"/><path d="M406.81,3.72a.38.38,0,0,1-.4-.4V.4a.38.38,0,0,1,.4-.4h2.72a.38.38,0,0,1,.4.4V3.32a.38.38,0,0,1-.4.4Zm.08,23.48a.38.38,0,0,1-.4-.41V8.44a.38.38,0,0,1,.4-.4h2.56a.38.38,0,0,1,.4.4V26.79a.38.38,0,0,1-.4.41Z"/><path d="M414.29,22.44a15,15,0,0,1-.64-4.84,14.86,14.86,0,0,1,.6-4.84c1.08-3.32,3.88-5.16,7.52-5.16a7.42,7.42,0,0,1,7.52,5.16,16.72,16.72,0,0,1,.6,5.48.39.39,0,0,1-.44.4H417.33a.21.21,0,0,0-.24.24,7.18,7.18,0,0,0,.32,2.32,4.73,4.73,0,0,0,4.84,3.32,6.26,6.26,0,0,0,4.92-2.12.41.41,0,0,1,.6-.08l1.64,1.48a.36.36,0,0,1,0,.56A9.31,9.31,0,0,1,422,27.63C418.09,27.63,415.33,25.75,414.29,22.44ZM426.21,16a.21.21,0,0,0,.24-.24,6.74,6.74,0,0,0-.28-2.16,4.73,4.73,0,0,0-8.8,0,6.74,6.74,0,0,0-.28,2.16.21.21,0,0,0,.24.24Z"/><path d="M434.09,27.2a.38.38,0,0,1-.4-.41V8.44a.38.38,0,0,1,.4-.4h2.56a.38.38,0,0,1,.4.4v2h0a5.34,5.34,0,0,1,5.08-2.8A5.89,5.89,0,0,1,446.09,9c.2.2.24.36.08.56l-1.48,2a.36.36,0,0,1-.56.08,5.4,5.4,0,0,0-3-.92c-2.92,0-4.12,2.28-4.12,5.6V26.79a.38.38,0,0,1-.4.41Z"/><path d="M29.76,65.4C26,65.4,24.6,63.71,24.6,60V49a.21.21,0,0,0-.24-.24h-1.6a.38.38,0,0,1-.4-.4V46.44a.38.38,0,0,1,.4-.4h1.6a.21.21,0,0,0,.24-.24V40.4A.38.38,0,0,1,25,40h2.56a.38.38,0,0,1,.4.4v5.4a.21.21,0,0,0,.24.24h3a.38.38,0,0,1,.4.4v1.92a.38.38,0,0,1-.4.4h-3A.21.21,0,0,0,28,49V59.84c0,1.92.72,2.44,2.44,2.44h.84a.38.38,0,0,1,.4.4V65a.38.38,0,0,1-.4.4Z"/><path d="M35.64,65.2a.38.38,0,0,1-.4-.41V46.44a.38.38,0,0,1,.4-.4H38.2a.38.38,0,0,1,.4.4v2h0a5.34,5.34,0,0,1,5.08-2.8A5.89,5.89,0,0,1,47.64,47c.2.2.24.36.08.56l-1.48,2a.36.36,0,0,1-.56.08,5.4,5.4,0,0,0-3-.92c-2.92,0-4.12,2.28-4.12,5.6V64.79a.38.38,0,0,1-.4.41Z"/><path d="M60.68,65.2a.38.38,0,0,1-.4-.41V63.12h0c-.88,1.44-2.76,2.51-5.68,2.51-3.64,0-6.44-1.88-6.44-5.75,0-4,2.8-5.92,7.48-5.92H60a.21.21,0,0,0,.24-.24v-1.4c0-2.64-1-3.76-4.6-3.76A7.45,7.45,0,0,0,51,49.92c-.2.16-.44.16-.56,0L49.32,48a.42.42,0,0,1,.08-.56,10.63,10.63,0,0,1,6.52-1.88c5.44,0,7.52,1.8,7.52,6.52V64.79a.38.38,0,0,1-.4.41ZM60.2,59V56.88a.21.21,0,0,0-.24-.24H56.12c-3.32,0-4.76,1-4.76,3.12,0,2,1.44,3,4,3C58.36,62.76,60.2,61.36,60.2,59Z"/><path d="M68.64,65.2a.38.38,0,0,1-.4-.41V38.4a.38.38,0,0,1,.4-.4H71.2a.38.38,0,0,1,.4.4v9.84h0c.92-1.52,2.56-2.64,5.44-2.64,3.32,0,5.64,1.56,6.6,4.6a15.84,15.84,0,0,1,.68,5.4A16,16,0,0,1,83.68,61c-1,3-3.28,4.59-6.6,4.59-2.88,0-4.52-1.15-5.44-2.67h0v1.83a.38.38,0,0,1-.4.41Zm11.84-5.6a13.29,13.29,0,0,0,.44-4,13.63,13.63,0,0,0-.44-4,4.53,4.53,0,0,0-8.44,0,12.47,12.47,0,0,0-.44,4,12.31,12.31,0,0,0,.44,4,4.51,4.51,0,0,0,8.44,0Z"/><path d="M99.76,65.2a.38.38,0,0,1-.4-.41V63.12h0c-.88,1.44-2.76,2.51-5.68,2.51-3.64,0-6.44-1.88-6.44-5.75,0-4,2.8-5.92,7.48-5.92H99a.21.21,0,0,0,.24-.24v-1.4c0-2.64-1-3.76-4.6-3.76A7.45,7.45,0,0,0,90,49.92c-.2.16-.44.16-.56,0L88.4,48a.42.42,0,0,1,.08-.56A10.63,10.63,0,0,1,95,45.6c5.44,0,7.52,1.8,7.52,6.52V64.79a.38.38,0,0,1-.4.41ZM99.28,59V56.88a.21.21,0,0,0-.24-.24H95.2c-3.32,0-4.76,1-4.76,3.12,0,2,1.44,3,4,3C97.44,62.76,99.28,61.36,99.28,59Z"/><path d="M104.16,72.39a.38.38,0,0,1-.4-.4V69.67a.38.38,0,0,1,.4-.4h.64c1.88,0,2.52-.52,2.52-2.56V46.44a.38.38,0,0,1,.4-.4h2.56a.38.38,0,0,1,.4.4V66.63c0,4.12-1.84,5.76-5.72,5.76Zm3.48-30.67a.38.38,0,0,1-.4-.4V38.4a.38.38,0,0,1,.4-.4h2.72a.38.38,0,0,1,.4.4v2.92a.38.38,0,0,1-.4.4Z"/><path d="M115.12,60.48a14.39,14.39,0,0,1-.64-4.88,14.29,14.29,0,0,1,.64-4.84c1-3.28,3.84-5.16,7.56-5.16s6.52,1.88,7.55,5.16a14.25,14.25,0,0,1,.65,4.84,14.35,14.35,0,0,1-.65,4.88c-1,3.23-3.83,5.15-7.55,5.15S116.16,63.71,115.12,60.48Zm11.88-1a12.55,12.55,0,0,0,.44-3.92,12.27,12.27,0,0,0-.44-3.88,4.61,4.61,0,0,0-8.64,0,12.27,12.27,0,0,0-.44,3.88,12.55,12.55,0,0,0,.44,3.92,4.61,4.61,0,0,0,8.64,0Z"/><path d="M142.16,60.44a15,15,0,0,1-.64-4.84,14.86,14.86,0,0,1,.6-4.84c1.08-3.32,3.88-5.16,7.52-5.16a7.42,7.42,0,0,1,7.51,5.16,16.72,16.72,0,0,1,.6,5.48.39.39,0,0,1-.44.4H145.2a.21.21,0,0,0-.24.24,7.18,7.18,0,0,0,.32,2.32,4.73,4.73,0,0,0,4.84,3.32A6.22,6.22,0,0,0,155,60.4a.41.41,0,0,1,.6-.08l1.64,1.48a.36.36,0,0,1,0,.56,9.29,9.29,0,0,1-7.47,3.27C146,65.63,143.2,63.75,142.16,60.44ZM154.08,54a.21.21,0,0,0,.23-.24,7.06,7.06,0,0,0-.27-2.16,4.73,4.73,0,0,0-8.8,0,6.74,6.74,0,0,0-.28,2.16.21.21,0,0,0,.24.24Z"/><path d="M174,65.2a.38.38,0,0,1-.4-.41V53.6c0-3.08-1.4-4.88-4.27-4.88-2.6,0-4.4,1.84-4.4,4.68V64.79a.38.38,0,0,1-.4.41H162a.38.38,0,0,1-.4-.41V46.44a.38.38,0,0,1,.4-.4h2.56a.38.38,0,0,1,.4.4V48.2h0a6.06,6.06,0,0,1,5.36-2.6c4.15,0,6.63,2.84,6.63,7.2v12a.38.38,0,0,1-.4.41Z"/><path d="M201.31,65.2a.38.38,0,0,1-.4-.41V63.12h0c-.88,1.44-2.76,2.51-5.68,2.51-3.63,0-6.43-1.88-6.43-5.75,0-4,2.8-5.92,7.47-5.92h4.36a.21.21,0,0,0,.24-.24v-1.4c0-2.64-1-3.76-4.6-3.76a7.44,7.44,0,0,0-4.63,1.36c-.2.16-.44.16-.56,0L190,48a.42.42,0,0,1,.08-.56,10.62,10.62,0,0,1,6.51-1.88c5.44,0,7.52,1.8,7.52,6.52V64.79a.38.38,0,0,1-.4.41Zm-.48-6.2V56.88a.21.21,0,0,0-.24-.24h-3.84c-3.31,0-4.75,1-4.75,3.12,0,2,1.44,3,4,3C199,62.76,200.83,61.36,200.83,59Z"/><path d="M213.48,65.4c-3.36,0-4.68-1.61-4.68-5v-22a.38.38,0,0,1,.4-.4h2.56a.38.38,0,0,1,.4.4V60.16c0,1.6.59,2.12,1.91,2.12h.76a.38.38,0,0,1,.4.4V65a.38.38,0,0,1-.4.4Z"/><path d="M223.71,65.4c-3.71,0-5.15-1.69-5.15-5.44V49a.21.21,0,0,0-.24-.24h-1.6a.38.38,0,0,1-.4-.4V46.44a.38.38,0,0,1,.4-.4h1.6a.21.21,0,0,0,.24-.24V40.4a.38.38,0,0,1,.4-.4h2.56a.38.38,0,0,1,.4.4v5.4a.21.21,0,0,0,.24.24h3a.38.38,0,0,1,.4.4v1.92a.38.38,0,0,1-.4.4h-3a.21.21,0,0,0-.24.24V59.84c0,1.92.72,2.44,2.43,2.44h.84a.38.38,0,0,1,.4.4V65a.38.38,0,0,1-.4.4Z"/><path d="M241.23,65.2a.38.38,0,0,1-.4-.41V63h0a5.86,5.86,0,0,1-5.24,2.63c-4.2,0-6.63-2.87-6.63-7.23v-12a.38.38,0,0,1,.4-.4h2.56a.38.38,0,0,1,.39.4V57.6c0,3.12,1.4,4.92,4.24,4.92,2.6,0,4.32-1.84,4.32-4.72V46.44a.38.38,0,0,1,.4-.4h2.56a.38.38,0,0,1,.4.4V64.79a.38.38,0,0,1-.4.41Z"/><path d="M249.55,65.2a.38.38,0,0,1-.4-.41V46.44a.38.38,0,0,1,.4-.4h2.56a.38.38,0,0,1,.4.4v2h0a5.34,5.34,0,0,1,5.08-2.8A5.89,5.89,0,0,1,261.55,47c.2.2.24.36.08.56l-1.48,2a.36.36,0,0,1-.56.08,5.4,5.4,0,0,0-3-.92c-2.92,0-4.12,2.28-4.12,5.6V64.79a.38.38,0,0,1-.4.41Z"/><path d="M274.59,65.2a.38.38,0,0,1-.4-.41V63.12h0c-.88,1.44-2.76,2.51-5.68,2.51-3.64,0-6.43-1.88-6.43-5.75,0-4,2.79-5.92,7.47-5.92h4.36a.21.21,0,0,0,.24-.24v-1.4c0-2.64-1-3.76-4.6-3.76a7.45,7.45,0,0,0-4.64,1.36c-.2.16-.44.16-.56,0L263.23,48a.42.42,0,0,1,.08-.56,10.63,10.63,0,0,1,6.52-1.88c5.44,0,7.52,1.8,7.52,6.52V64.79a.38.38,0,0,1-.4.41Zm-.48-6.2V56.88a.21.21,0,0,0-.24-.24H270c-3.32,0-4.76,1-4.76,3.12,0,2,1.44,3,4,3C272.27,62.76,274.11,61.36,274.11,59Z"/><path d="M280.83,62.76a.39.39,0,0,1,0-.56l1.64-1.76a.39.39,0,0,1,.56,0,9.31,9.31,0,0,0,5.92,2.2c2.8,0,4.2-1.2,4.2-2.92,0-1.52-.72-2.36-3.72-2.68l-2-.2c-3.76-.4-5.72-2.28-5.72-5.4,0-3.64,2.6-5.84,7.12-5.84a11.46,11.46,0,0,1,6.8,2.12.39.39,0,0,1,.08.56L294.31,50a.39.39,0,0,1-.56.08,10.09,10.09,0,0,0-5.16-1.56c-2.4,0-3.64,1.08-3.64,2.64s.92,2.32,3.76,2.6l2,.2c3.88.36,5.76,2.32,5.76,5.4,0,3.76-2.72,6.27-7.72,6.27A11.91,11.91,0,0,1,280.83,62.76Z"/><path d="M308.55,65.2a.38.38,0,0,1-.4-.41V46.44a.38.38,0,0,1,.4-.4h2.56a.38.38,0,0,1,.4.4v2h0a5.34,5.34,0,0,1,5.08-2.8A5.89,5.89,0,0,1,320.55,47c.2.2.24.36.08.56l-1.48,2a.36.36,0,0,1-.56.08,5.4,5.4,0,0,0-3-.92c-2.92,0-4.12,2.28-4.12,5.6V64.79a.38.38,0,0,1-.4.41Z"/><path d="M321.71,60.44a15,15,0,0,1-.64-4.84,14.86,14.86,0,0,1,.6-4.84c1.08-3.32,3.88-5.16,7.52-5.16a7.42,7.42,0,0,1,7.52,5.16,16.72,16.72,0,0,1,.6,5.48.39.39,0,0,1-.44.4H324.75a.21.21,0,0,0-.24.24,7.18,7.18,0,0,0,.32,2.32,4.73,4.73,0,0,0,4.84,3.32,6.26,6.26,0,0,0,4.92-2.12.41.41,0,0,1,.6-.08l1.64,1.48a.36.36,0,0,1,0,.56,9.31,9.31,0,0,1-7.48,3.27C325.51,65.63,322.75,63.75,321.71,60.44ZM333.63,54a.21.21,0,0,0,.24-.24,6.74,6.74,0,0,0-.28-2.16,4.73,4.73,0,0,0-8.8,0,6.74,6.74,0,0,0-.28,2.16.21.21,0,0,0,.24.24Z"/><path d="M340.55,50.76c1.08-3.32,3.88-5.16,7.56-5.16a7.68,7.68,0,0,1,6.56,3.24c.12.2.12.36-.12.56l-1.76,1.44a.36.36,0,0,1-.56,0,4.71,4.71,0,0,0-4.12-2.08,4.16,4.16,0,0,0-4.28,3,12.76,12.76,0,0,0-.44,3.88,12.88,12.88,0,0,0,.44,3.92,4.16,4.16,0,0,0,4.28,3,4.71,4.71,0,0,0,4.12-2.08.36.36,0,0,1,.56,0l1.76,1.44c.24.2.24.36.12.56a7.67,7.67,0,0,1-6.56,3.23c-3.68,0-6.48-1.84-7.56-5.15a16.55,16.55,0,0,1-.6-4.88A16.45,16.45,0,0,1,340.55,50.76Z"/><path d="M370.43,65.2a.38.38,0,0,1-.4-.41V63h0a5.86,5.86,0,0,1-5.24,2.63c-4.2,0-6.64-2.87-6.64-7.23v-12a.38.38,0,0,1,.4-.4h2.56a.38.38,0,0,1,.4.4V57.6c0,3.12,1.4,4.92,4.24,4.92,2.6,0,4.32-1.84,4.32-4.72V46.44a.38.38,0,0,1,.4-.4H373a.38.38,0,0,1,.4.4V64.79a.38.38,0,0,1-.4.41Z"/><path d="M377.83,60.44a15,15,0,0,1-.64-4.84,14.86,14.86,0,0,1,.6-4.84c1.08-3.32,3.88-5.16,7.52-5.16a7.42,7.42,0,0,1,7.52,5.16,16.72,16.72,0,0,1,.6,5.48.39.39,0,0,1-.44.4H380.87a.21.21,0,0,0-.24.24A7.18,7.18,0,0,0,381,59.2a4.73,4.73,0,0,0,4.84,3.32,6.26,6.26,0,0,0,4.92-2.12.41.41,0,0,1,.6-.08L393,61.8a.36.36,0,0,1,0,.56,9.31,9.31,0,0,1-7.48,3.27C381.63,65.63,378.87,63.75,377.83,60.44ZM389.75,54a.21.21,0,0,0,.24-.24,6.74,6.74,0,0,0-.28-2.16,4.73,4.73,0,0,0-8.8,0,6.74,6.74,0,0,0-.28,2.16.21.21,0,0,0,.24.24Z"/><path d="M397.63,65.2a.38.38,0,0,1-.4-.41V46.44a.38.38,0,0,1,.4-.4h2.56a.38.38,0,0,1,.4.4v2h0a5.34,5.34,0,0,1,5.08-2.8A5.89,5.89,0,0,1,409.63,47c.2.2.24.36.08.56l-1.48,2a.36.36,0,0,1-.56.08,5.4,5.4,0,0,0-3-.92c-2.92,0-4.12,2.28-4.12,5.6V64.79a.38.38,0,0,1-.4.41Z"/><path d="M423.31,65.2a.38.38,0,0,1-.4-.41V63h0c-.92,1.52-2.56,2.67-5.44,2.67-3.32,0-5.64-1.55-6.6-4.59a16,16,0,0,1-.68-5.44,15.84,15.84,0,0,1,.68-5.4c1-3,3.28-4.6,6.6-4.6,2.88,0,4.52,1.12,5.44,2.64h0V38.4a.38.38,0,0,1,.4-.4h2.56a.38.38,0,0,1,.4.4V64.79a.38.38,0,0,1-.4.41Zm-.84-5.6a12.31,12.31,0,0,0,.44-4,12.47,12.47,0,0,0-.44-4,4.53,4.53,0,0,0-8.44,0,13.63,13.63,0,0,0-.44,4,13.29,13.29,0,0,0,.44,4,4.51,4.51,0,0,0,8.44,0Z"/><path d="M430.71,60.44a15,15,0,0,1-.64-4.84,14.86,14.86,0,0,1,.6-4.84c1.08-3.32,3.88-5.16,7.52-5.16a7.42,7.42,0,0,1,7.52,5.16,16.72,16.72,0,0,1,.6,5.48.39.39,0,0,1-.44.4H433.75a.21.21,0,0,0-.24.24,7.18,7.18,0,0,0,.32,2.32,4.73,4.73,0,0,0,4.84,3.32,6.26,6.26,0,0,0,4.92-2.12.41.41,0,0,1,.6-.08l1.64,1.48a.36.36,0,0,1,0,.56,9.31,9.31,0,0,1-7.48,3.27C434.51,65.63,431.75,63.75,430.71,60.44ZM442.63,54a.21.21,0,0,0,.24-.24,6.74,6.74,0,0,0-.28-2.16,4.73,4.73,0,0,0-8.8,0,6.74,6.74,0,0,0-.28,2.16.21.21,0,0,0,.24.24Z"/><path d="M4.2,100.76a.39.39,0,0,1,0-.56l1.64-1.76a.39.39,0,0,1,.56,0,9.31,9.31,0,0,0,5.92,2.2c2.8,0,4.2-1.2,4.2-2.92,0-1.52-.72-2.36-3.72-2.68l-2-.2C7,94.44,5,92.56,5,89.44c0-3.64,2.6-5.84,7.12-5.84A11.46,11.46,0,0,1,19,85.72a.39.39,0,0,1,.08.56L17.68,88a.39.39,0,0,1-.56.08A10.09,10.09,0,0,0,12,86.52c-2.4,0-3.64,1.08-3.64,2.64s.92,2.32,3.76,2.6l2,.2c3.88.36,5.76,2.32,5.76,5.4,0,3.76-2.72,6.27-7.72,6.27A11.91,11.91,0,0,1,4.2,100.76Z"/><path d="M23.84,79.72a.38.38,0,0,1-.4-.4V76.4a.38.38,0,0,1,.4-.4h2.72a.38.38,0,0,1,.4.4v2.92a.38.38,0,0,1-.4.4Zm.08,23.48a.38.38,0,0,1-.4-.41V84.44a.38.38,0,0,1,.4-.4h2.56a.38.38,0,0,1,.4.4v18.35a.38.38,0,0,1-.4.41Z"/><path d="M31.32,98.44a15,15,0,0,1-.64-4.84,14.86,14.86,0,0,1,.6-4.84c1.08-3.32,3.88-5.16,7.52-5.16a7.42,7.42,0,0,1,7.52,5.16,16.72,16.72,0,0,1,.6,5.48.39.39,0,0,1-.44.4H34.36a.21.21,0,0,0-.24.24,7.18,7.18,0,0,0,.32,2.32,4.73,4.73,0,0,0,4.84,3.32A6.26,6.26,0,0,0,44.2,98.4a.41.41,0,0,1,.6-.08l1.64,1.48a.36.36,0,0,1,0,.56A9.31,9.31,0,0,1,39,103.63C35.12,103.63,32.36,101.75,31.32,98.44ZM43.24,92a.21.21,0,0,0,.24-.24,6.74,6.74,0,0,0-.28-2.16,4.33,4.33,0,0,0-4.4-3,4.33,4.33,0,0,0-4.4,3,6.74,6.74,0,0,0-.28,2.16.21.21,0,0,0,.24.24Z"/><path d="M75.19,103.2a.39.39,0,0,1-.4-.41V91.6c0-3.08-1.39-4.88-4.27-4.88a4.32,4.32,0,0,0-4.4,4.68v11.39a.38.38,0,0,1-.4.41H63.16a.38.38,0,0,1-.4-.41V91.6c0-3.08-1.4-4.88-4.28-4.88-2.6,0-4.4,1.84-4.4,4.68v11.39a.38.38,0,0,1-.4.41H51.12a.38.38,0,0,1-.4-.41V84.44a.38.38,0,0,1,.4-.4h2.56a.38.38,0,0,1,.4.4V86.2h0a6.06,6.06,0,0,1,5.36-2.6,6,6,0,0,1,5.6,3h0a7.13,7.13,0,0,1,6.2-3c4.43,0,6.83,2.84,6.83,7.2v12a.38.38,0,0,1-.4.41Z"/><path d="M83.32,110.39a.38.38,0,0,1-.4-.4V84.44a.38.38,0,0,1,.4-.4h2.56a.38.38,0,0,1,.4.4v1.8h0c.92-1.52,2.56-2.64,5.44-2.64,3.32,0,5.64,1.56,6.6,4.6A15.84,15.84,0,0,1,99,93.6,16,16,0,0,1,98.36,99c-1,3-3.28,4.59-6.6,4.59-2.88,0-4.52-1.15-5.44-2.67h0v9a.38.38,0,0,1-.4.4ZM95.16,97.6a13.29,13.29,0,0,0,.44-4,13.63,13.63,0,0,0-.44-4,4.53,4.53,0,0,0-8.44,0,12.47,12.47,0,0,0-.44,4,12.31,12.31,0,0,0,.44,4,4.51,4.51,0,0,0,8.44,0Z"/><path d="M103.24,103.2a.38.38,0,0,1-.4-.41V84.44a.38.38,0,0,1,.4-.4h2.56a.38.38,0,0,1,.4.4v2h0a5.34,5.34,0,0,1,5.08-2.8A5.89,5.89,0,0,1,115.24,85c.2.2.24.36.08.56l-1.48,2a.36.36,0,0,1-.56.08,5.4,5.4,0,0,0-3-.92c-2.92,0-4.12,2.28-4.12,5.6v10.47a.38.38,0,0,1-.4.41Z"/><path d="M116.4,98.44a15,15,0,0,1-.64-4.84,14.86,14.86,0,0,1,.6-4.84c1.08-3.32,3.88-5.16,7.52-5.16a7.42,7.42,0,0,1,7.52,5.16,17,17,0,0,1,.6,5.48.39.39,0,0,1-.44.4H119.44a.21.21,0,0,0-.24.24,7.18,7.18,0,0,0,.32,2.32,4.73,4.73,0,0,0,4.84,3.32,6.26,6.26,0,0,0,4.92-2.12.41.41,0,0,1,.6-.08l1.64,1.48a.36.36,0,0,1,0,.56,9.31,9.31,0,0,1-7.48,3.27C120.2,103.63,117.44,101.75,116.4,98.44ZM128.32,92a.21.21,0,0,0,.24-.24,6.74,6.74,0,0,0-.28-2.16,4.73,4.73,0,0,0-8.8,0,6.74,6.74,0,0,0-.28,2.16.21.21,0,0,0,.24.24Z"/><path d="M143.24,88.76c1.08-3.32,3.88-5.16,7.56-5.16a7.65,7.65,0,0,1,6.55,3.24c.12.2.12.36-.12.56l-1.75,1.44a.36.36,0,0,1-.56,0,4.71,4.71,0,0,0-4.12-2.08,4.16,4.16,0,0,0-4.28,3,12.76,12.76,0,0,0-.44,3.88,12.88,12.88,0,0,0,.44,3.92,4.16,4.16,0,0,0,4.28,3,4.71,4.71,0,0,0,4.12-2.08.36.36,0,0,1,.56,0l1.75,1.44c.24.2.24.36.12.56a7.64,7.64,0,0,1-6.55,3.23c-3.68,0-6.48-1.84-7.56-5.15a20,20,0,0,1,0-9.72Z"/><path d="M160.08,98.48a14.39,14.39,0,0,1-.64-4.88,14.29,14.29,0,0,1,.64-4.84c1-3.28,3.84-5.16,7.56-5.16s6.51,1.88,7.55,5.16a14.29,14.29,0,0,1,.64,4.84,14.39,14.39,0,0,1-.64,4.88c-1,3.23-3.84,5.15-7.55,5.15S161.12,101.71,160.08,98.48Zm11.88-1a12.86,12.86,0,0,0,.44-3.92,12.57,12.57,0,0,0-.44-3.88,4.61,4.61,0,0,0-8.64,0,12.27,12.27,0,0,0-.44,3.88,12.55,12.55,0,0,0,.44,3.92,4.61,4.61,0,0,0,8.64,0Z"/><path d="M192.07,103.2a.38.38,0,0,1-.4-.41V91.6c0-3.08-1.4-4.88-4.27-4.88-2.6,0-4.4,1.84-4.4,4.68v11.39a.38.38,0,0,1-.4.41H180a.38.38,0,0,1-.4-.41V84.44a.38.38,0,0,1,.4-.4h2.56a.38.38,0,0,1,.4.4V86.2h0a6.06,6.06,0,0,1,5.36-2.6c4.15,0,6.63,2.84,6.63,7.2v12a.38.38,0,0,1-.4.41Z"/><path d="M205.35,103.4c-3.71,0-5.15-1.69-5.15-5.44V87a.21.21,0,0,0-.24-.24h-1.6a.38.38,0,0,1-.4-.4V84.44a.38.38,0,0,1,.4-.4H200a.21.21,0,0,0,.24-.24V78.4a.38.38,0,0,1,.4-.4h2.56a.38.38,0,0,1,.4.4v5.4a.21.21,0,0,0,.24.24h3a.38.38,0,0,1,.4.4v1.92a.38.38,0,0,1-.4.4h-3a.21.21,0,0,0-.24.24V97.84c0,1.92.72,2.44,2.44,2.44h.83a.38.38,0,0,1,.4.4V103a.38.38,0,0,1-.4.4Z"/><path d="M222.43,103.2a.38.38,0,0,1-.4-.41v-1.67h0c-.88,1.44-2.76,2.51-5.68,2.51-3.63,0-6.43-1.88-6.43-5.75,0-4,2.8-5.92,7.47-5.92h4.36a.21.21,0,0,0,.24-.24v-1.4c0-2.64-1-3.76-4.6-3.76a7.4,7.4,0,0,0-4.63,1.36c-.2.16-.44.16-.56,0L211.08,86a.42.42,0,0,1,.08-.56,10.6,10.6,0,0,1,6.51-1.88c5.44,0,7.52,1.8,7.52,6.52v12.67a.38.38,0,0,1-.4.41ZM222,97V94.88a.21.21,0,0,0-.24-.24h-3.84c-3.31,0-4.75,1-4.75,3.12,0,2,1.44,3,4,3C220.11,100.76,222,99.36,222,97Z"/><path d="M230.4,103.2a.38.38,0,0,1-.4-.41V84.44a.38.38,0,0,1,.4-.4H233a.37.37,0,0,1,.39.4v2h.05a5.31,5.31,0,0,1,5.07-2.8A5.89,5.89,0,0,1,242.39,85c.2.2.24.36.08.56l-1.48,2a.36.36,0,0,1-.56.08,5.4,5.4,0,0,0-3-.92c-2.91,0-4.12,2.28-4.12,5.6v10.47a.37.37,0,0,1-.39.41Z"/><path d="M252.23,88.76c1.08-3.32,3.88-5.16,7.56-5.16a7.68,7.68,0,0,1,6.56,3.24c.12.2.12.36-.12.56l-1.76,1.44a.36.36,0,0,1-.56,0,4.71,4.71,0,0,0-4.12-2.08,4.16,4.16,0,0,0-4.28,3,12.76,12.76,0,0,0-.44,3.88,12.88,12.88,0,0,0,.44,3.92,4.16,4.16,0,0,0,4.28,3,4.71,4.71,0,0,0,4.12-2.08.36.36,0,0,1,.56,0l1.76,1.44c.24.2.24.36.12.56a7.67,7.67,0,0,1-6.56,3.23c-3.68,0-6.48-1.84-7.56-5.15a20,20,0,0,1,0-9.72Z"/><path d="M269.07,98.48a14.39,14.39,0,0,1-.64-4.88,14.29,14.29,0,0,1,.64-4.84c1-3.28,3.84-5.16,7.56-5.16s6.52,1.88,7.56,5.16a14.29,14.29,0,0,1,.64,4.84,14.39,14.39,0,0,1-.64,4.88c-1,3.23-3.84,5.15-7.56,5.15S270.11,101.71,269.07,98.48Zm11.88-1a12.55,12.55,0,0,0,.44-3.92,12.27,12.27,0,0,0-.44-3.88,4.61,4.61,0,0,0-8.64,0,12.27,12.27,0,0,0-.44,3.88,12.55,12.55,0,0,0,.44,3.92,4.61,4.61,0,0,0,8.64,0Z"/><path d="M301.07,103.2a.38.38,0,0,1-.4-.41V91.6c0-3.08-1.4-4.88-4.28-4.88-2.6,0-4.4,1.84-4.4,4.68v11.39a.38.38,0,0,1-.4.41H289a.38.38,0,0,1-.4-.41V84.44a.38.38,0,0,1,.4-.4h2.56a.38.38,0,0,1,.4.4V86.2h0a6.06,6.06,0,0,1,5.36-2.6c4.16,0,6.64,2.84,6.64,7.2v12a.38.38,0,0,1-.4.41Z"/><path d="M315.47,100.76a.39.39,0,0,1,0-.56l1.64-1.76a.39.39,0,0,1,.56,0,9.31,9.31,0,0,0,5.92,2.2c2.8,0,4.2-1.2,4.2-2.92,0-1.52-.72-2.36-3.72-2.68l-2-.2c-3.76-.4-5.72-2.28-5.72-5.4,0-3.64,2.6-5.84,7.12-5.84a11.46,11.46,0,0,1,6.8,2.12.39.39,0,0,1,.08.56L329,88a.39.39,0,0,1-.56.08,10.09,10.09,0,0,0-5.16-1.56c-2.4,0-3.64,1.08-3.64,2.64s.92,2.32,3.76,2.6l2,.2c3.88.36,5.76,2.32,5.76,5.4,0,3.76-2.72,6.27-7.72,6.27A11.91,11.91,0,0,1,315.47,100.76Z"/><path d="M346.83,103.2a.38.38,0,0,1-.4-.41V101h0a5.86,5.86,0,0,1-5.24,2.63c-4.2,0-6.64-2.87-6.64-7.23v-12a.38.38,0,0,1,.4-.4h2.56a.38.38,0,0,1,.4.4V95.6c0,3.12,1.4,4.92,4.24,4.92,2.6,0,4.32-1.84,4.32-4.72V84.44a.38.38,0,0,1,.4-.4h2.56a.38.38,0,0,1,.4.4v18.35a.38.38,0,0,1-.4.41Z"/><path d="M362.23,98.44a15,15,0,0,1-.64-4.84,14.86,14.86,0,0,1,.6-4.84c1.08-3.32,3.88-5.16,7.52-5.16a7.42,7.42,0,0,1,7.52,5.16,16.72,16.72,0,0,1,.6,5.48.39.39,0,0,1-.44.4H365.27a.21.21,0,0,0-.24.24,7.18,7.18,0,0,0,.32,2.32,4.73,4.73,0,0,0,4.84,3.32,6.26,6.26,0,0,0,4.92-2.12.41.41,0,0,1,.6-.08l1.64,1.48a.36.36,0,0,1,0,.56,9.31,9.31,0,0,1-7.48,3.27C366,103.63,363.27,101.75,362.23,98.44ZM374.15,92a.21.21,0,0,0,.24-.24,6.74,6.74,0,0,0-.28-2.16,4.73,4.73,0,0,0-8.8,0,6.74,6.74,0,0,0-.28,2.16.21.21,0,0,0,.24.24Z"/><path d="M393.63,110.39a.38.38,0,0,1-.4-.4v-9h0c-.92,1.52-2.56,2.67-5.44,2.67-3.32,0-5.64-1.55-6.6-4.59a16,16,0,0,1-.68-5.44,15.84,15.84,0,0,1,.68-5.4c1-3,3.28-4.6,6.6-4.6,2.88,0,4.52,1.12,5.44,2.64h0v-1.8a.38.38,0,0,1,.4-.4h2.56a.38.38,0,0,1,.4.4V110a.38.38,0,0,1-.4.4Zm-.84-12.79a12.31,12.31,0,0,0,.44-4,12.47,12.47,0,0,0-.44-4,4.53,4.53,0,0,0-8.44,0,13.63,13.63,0,0,0-.44,4,13.29,13.29,0,0,0,.44,4,4.51,4.51,0,0,0,8.44,0Z"/><path d="M413.59,103.2a.38.38,0,0,1-.4-.41V101h0a5.86,5.86,0,0,1-5.24,2.63c-4.2,0-6.64-2.87-6.64-7.23v-12a.38.38,0,0,1,.4-.4h2.56a.38.38,0,0,1,.4.4V95.6c0,3.12,1.4,4.92,4.24,4.92,2.6,0,4.32-1.84,4.32-4.72V84.44a.38.38,0,0,1,.4-.4h2.56a.38.38,0,0,1,.4.4v18.35a.38.38,0,0,1-.4.41Z"/><path d="M421.83,79.72a.38.38,0,0,1-.4-.4V76.4a.38.38,0,0,1,.4-.4h2.72a.38.38,0,0,1,.4.4v2.92a.38.38,0,0,1-.4.4Zm.08,23.48a.38.38,0,0,1-.4-.41V84.44a.38.38,0,0,1,.4-.4h2.56a.38.38,0,0,1,.4.4v18.35a.38.38,0,0,1-.4.41Z"/><path d="M430.23,110.39a.38.38,0,0,1-.4-.4V84.44a.38.38,0,0,1,.4-.4h2.56a.38.38,0,0,1,.4.4v1.8h0c.92-1.52,2.56-2.64,5.44-2.64,3.32,0,5.64,1.56,6.6,4.6a15.84,15.84,0,0,1,.68,5.4,16,16,0,0,1-.68,5.44c-1,3-3.28,4.59-6.6,4.59-2.88,0-4.52-1.15-5.44-2.67h0v9a.38.38,0,0,1-.4.4ZM442.07,97.6a13.29,13.29,0,0,0,.44-4,13.63,13.63,0,0,0-.44-4,4.53,4.53,0,0,0-8.44,0,12.47,12.47,0,0,0-.44,4,12.31,12.31,0,0,0,.44,4,4.51,4.51,0,0,0,8.44,0Z"/><path d="M449.23,98.48a14.39,14.39,0,0,1-.64-4.88,14.29,14.29,0,0,1,.64-4.84c1-3.28,3.84-5.16,7.56-5.16s6.52,1.88,7.56,5.16A14.29,14.29,0,0,1,465,93.6a14.39,14.39,0,0,1-.64,4.88c-1,3.23-3.84,5.15-7.56,5.15S450.27,101.71,449.23,98.48Zm11.88-1a12.55,12.55,0,0,0,.44-3.92,12.27,12.27,0,0,0-.44-3.88,4.61,4.61,0,0,0-8.64,0A12.27,12.27,0,0,0,452,93.6a12.55,12.55,0,0,0,.44,3.92,4.61,4.61,0,0,0,8.64,0Z"/><path d="M15.56,141.2a.38.38,0,0,1-.4-.41V139h0c-.92,1.52-2.56,2.67-5.44,2.67-3.32,0-5.64-1.55-6.6-4.59a16,16,0,0,1-.68-5.44,15.84,15.84,0,0,1,.68-5.4c1-3,3.28-4.6,6.6-4.6,2.88,0,4.52,1.12,5.44,2.64h0V114.4a.38.38,0,0,1,.4-.4h2.56a.38.38,0,0,1,.4.4v26.39a.38.38,0,0,1-.4.41Zm-.84-5.6a12.31,12.31,0,0,0,.44-4,12.47,12.47,0,0,0-.44-4,4.07,4.07,0,0,0-4.24-2.88,4.07,4.07,0,0,0-4.2,2.88,13.63,13.63,0,0,0-.44,4,13.29,13.29,0,0,0,.44,4,4.1,4.1,0,0,0,4.2,2.92A4.1,4.1,0,0,0,14.72,135.6Z"/><path d="M23,136.44a15,15,0,0,1-.64-4.84,14.86,14.86,0,0,1,.6-4.84c1.08-3.32,3.88-5.16,7.52-5.16A7.42,7.42,0,0,1,38,126.76a16.72,16.72,0,0,1,.6,5.48.39.39,0,0,1-.44.4H26a.21.21,0,0,0-.24.24,7.18,7.18,0,0,0,.32,2.32,4.73,4.73,0,0,0,4.84,3.32,6.26,6.26,0,0,0,4.92-2.12.41.41,0,0,1,.6-.08l1.64,1.48a.36.36,0,0,1,0,.56,9.31,9.31,0,0,1-7.48,3.27C26.76,141.63,24,139.75,23,136.44ZM34.88,130a.21.21,0,0,0,.24-.24,6.74,6.74,0,0,0-.28-2.16,4.33,4.33,0,0,0-4.4-3,4.33,4.33,0,0,0-4.4,3,6.74,6.74,0,0,0-.28,2.16A.21.21,0,0,0,26,130Z"/><path d="M49,138.76a.39.39,0,0,1,0-.56l1.64-1.76a.39.39,0,0,1,.56,0,9.31,9.31,0,0,0,5.92,2.2c2.8,0,4.2-1.2,4.2-2.92,0-1.52-.72-2.36-3.72-2.68l-2-.2c-3.76-.4-5.72-2.28-5.72-5.4,0-3.64,2.6-5.84,7.12-5.84a11.46,11.46,0,0,1,6.8,2.12.39.39,0,0,1,.08.56L62.52,126a.39.39,0,0,1-.56.08,10.09,10.09,0,0,0-5.16-1.56c-2.4,0-3.64,1.08-3.64,2.64s.92,2.32,3.76,2.6l2,.2c3.88.36,5.76,2.32,5.76,5.4,0,3.76-2.72,6.27-7.72,6.27A11.91,11.91,0,0,1,49,138.76Z"/><path d="M67.84,136.44a15,15,0,0,1-.64-4.84,14.86,14.86,0,0,1,.6-4.84c1.08-3.32,3.88-5.16,7.52-5.16a7.42,7.42,0,0,1,7.52,5.16,16.72,16.72,0,0,1,.6,5.48.39.39,0,0,1-.44.4H70.88a.21.21,0,0,0-.24.24A7.18,7.18,0,0,0,71,135.2a4.73,4.73,0,0,0,4.84,3.32,6.26,6.26,0,0,0,4.92-2.12.41.41,0,0,1,.6-.08L83,137.8a.36.36,0,0,1,0,.56,9.31,9.31,0,0,1-7.48,3.27C71.64,141.63,68.88,139.75,67.84,136.44ZM79.76,130a.21.21,0,0,0,.24-.24,6.74,6.74,0,0,0-.28-2.16,4.73,4.73,0,0,0-8.8,0,6.74,6.74,0,0,0-.28,2.16.21.21,0,0,0,.24.24Z"/><path d="M86.84,146a.36.36,0,0,1,0-.56l1.64-1.64a.38.38,0,0,1,.6,0,6.39,6.39,0,0,0,4.52,1.92c3.16,0,4.84-1.64,4.84-5.15v-2.24h0c-.88,1.6-2.52,2.64-5.32,2.64a6.28,6.28,0,0,1-6.44-4.64,15,15,0,0,1-.64-5,15,15,0,0,1,.64-5,6.28,6.28,0,0,1,6.44-4.64c2.8,0,4.44,1,5.32,2.64h0v-1.8a.38.38,0,0,1,.4-.4h2.56a.38.38,0,0,1,.4.4v17.92c0,5.43-3,8.47-8.36,8.47A8.66,8.66,0,0,1,86.84,146ZM98,135a11.65,11.65,0,0,0,.44-3.72,11.81,11.81,0,0,0-.44-3.72,4.32,4.32,0,0,0-8.12,0,12,12,0,0,0-.48,3.72,11.83,11.83,0,0,0,.48,3.72,3.91,3.91,0,0,0,4,2.88A4,4,0,0,0,98,135Z"/><path d="M118.84,141.2a.38.38,0,0,1-.4-.41V139h0a5.86,5.86,0,0,1-5.24,2.63c-4.2,0-6.64-2.87-6.64-7.23v-12a.38.38,0,0,1,.4-.4h2.56a.38.38,0,0,1,.4.4V133.6c0,3.12,1.4,4.92,4.24,4.92,2.6,0,4.32-1.84,4.32-4.72V122.44a.38.38,0,0,1,.4-.4h2.56a.38.38,0,0,1,.4.4v18.35a.38.38,0,0,1-.4.41Z"/><path d="M127.16,141.2a.38.38,0,0,1-.4-.41V122.44a.38.38,0,0,1,.4-.4h2.56a.38.38,0,0,1,.4.4v2h0a5.34,5.34,0,0,1,5.08-2.8,5.89,5.89,0,0,1,3.92,1.44c.2.2.24.36.08.56l-1.48,2a.36.36,0,0,1-.56.08,5.4,5.4,0,0,0-3-.92c-2.92,0-4.12,2.28-4.12,5.6v10.47a.38.38,0,0,1-.4.41Z"/><path d="M141.88,117.72a.38.38,0,0,1-.4-.4V114.4a.38.38,0,0,1,.4-.4h2.72a.38.38,0,0,1,.4.4v2.92a.38.38,0,0,1-.4.4ZM142,141.2a.38.38,0,0,1-.4-.41V122.44a.38.38,0,0,1,.4-.4h2.56a.38.38,0,0,1,.4.4v18.35a.38.38,0,0,1-.4.41Z"/><path d="M161.87,141.2a.38.38,0,0,1-.4-.41V139h0c-.92,1.52-2.55,2.67-5.43,2.67-3.32,0-5.64-1.55-6.6-4.59a16,16,0,0,1-.68-5.44,15.84,15.84,0,0,1,.68-5.4c1-3,3.28-4.6,6.6-4.6,2.88,0,4.51,1.12,5.43,2.64h0V114.4a.38.38,0,0,1,.4-.4h2.56a.38.38,0,0,1,.4.4v26.39a.38.38,0,0,1-.4.41Zm-.84-5.6a12.31,12.31,0,0,0,.44-4,12.47,12.47,0,0,0-.44-4,4.52,4.52,0,0,0-8.43,0,13.63,13.63,0,0,0-.44,4,13.29,13.29,0,0,0,.44,4,4.5,4.5,0,0,0,8.43,0Z"/><path d="M181.39,141.2a.38.38,0,0,1-.4-.41v-1.67h0c-.88,1.44-2.76,2.51-5.68,2.51-3.63,0-6.43-1.88-6.43-5.75,0-4,2.8-5.92,7.47-5.92h4.36a.21.21,0,0,0,.24-.24v-1.4c0-2.64-1-3.76-4.6-3.76a7.44,7.44,0,0,0-4.63,1.36c-.2.16-.44.16-.56,0L170,124a.42.42,0,0,1,.08-.56,10.62,10.62,0,0,1,6.51-1.88c5.44,0,7.52,1.8,7.52,6.52v12.67a.38.38,0,0,1-.4.41Zm-.48-6.2v-2.12a.21.21,0,0,0-.24-.24h-3.84c-3.31,0-4.75,1-4.75,3.12,0,2,1.44,3,4,3C179.07,138.76,180.91,137.36,180.91,135Z"/><path d="M201,141.2a.38.38,0,0,1-.4-.41V139h0c-.92,1.52-2.56,2.67-5.44,2.67-3.31,0-5.63-1.55-6.59-4.59a16,16,0,0,1-.68-5.44,15.84,15.84,0,0,1,.68-5.4c1-3,3.28-4.6,6.59-4.6,2.88,0,4.52,1.12,5.44,2.64h0V114.4a.38.38,0,0,1,.4-.4h2.56a.38.38,0,0,1,.4.4v26.39a.38.38,0,0,1-.4.41Zm-.84-5.6a12.31,12.31,0,0,0,.44-4,12.47,12.47,0,0,0-.44-4,4.52,4.52,0,0,0-8.43,0,13.63,13.63,0,0,0-.44,4,13.29,13.29,0,0,0,.44,4,4.5,4.5,0,0,0,8.43,0Z"/><path d="M216.12,128.08A29.67,29.67,0,0,1,220.87,112a.73.73,0,0,1,.64-.4h1.4c.24,0,.36.16.24.4a35.9,35.9,0,0,0,0,32.15c.12.24,0,.4-.24.4h-1.4a.73.73,0,0,1-.64-.4A29.72,29.72,0,0,1,216.12,128.08Z"/><path d="M238.27,141.2a.38.38,0,0,1-.4-.41v-1.67h0c-.88,1.44-2.76,2.51-5.68,2.51-3.64,0-6.44-1.88-6.44-5.75,0-4,2.8-5.92,7.48-5.92h4.36a.21.21,0,0,0,.24-.24v-1.4c0-2.64-1-3.76-4.6-3.76a7.45,7.45,0,0,0-4.64,1.36c-.2.16-.44.16-.56,0L226.91,124a.42.42,0,0,1,.08-.56,10.63,10.63,0,0,1,6.52-1.88c5.44,0,7.52,1.8,7.52,6.52v12.67a.38.38,0,0,1-.4.41Zm-.48-6.2v-2.12a.21.21,0,0,0-.24-.24h-3.84c-3.32,0-4.76,1-4.76,3.12,0,2,1.44,3,4,3C236,138.76,237.79,137.36,237.79,135Z"/><path d="M246.23,141.2a.38.38,0,0,1-.4-.41V122.44a.38.38,0,0,1,.4-.4h2.56a.38.38,0,0,1,.4.4v2h0a5.34,5.34,0,0,1,5.08-2.8,5.89,5.89,0,0,1,3.92,1.44c.2.2.24.36.08.56l-1.48,2a.36.36,0,0,1-.56.08,5.4,5.4,0,0,0-3-.92c-2.92,0-4.12,2.28-4.12,5.6v10.47a.38.38,0,0,1-.4.41Z"/><path d="M273.07,141.2a.38.38,0,0,1-.4-.41V129.6c0-3.08-1.4-4.88-4.28-4.88-2.6,0-4.4,1.84-4.4,4.68v11.39a.38.38,0,0,1-.4.41H261a.38.38,0,0,1-.4-.41V122.44a.38.38,0,0,1,.4-.4h2.56a.38.38,0,0,1,.4.4v1.76h0a6.06,6.06,0,0,1,5.36-2.6c4.16,0,6.64,2.84,6.64,7.2v12a.38.38,0,0,1-.4.41Z"/><path d="M280.27,136.44a15,15,0,0,1-.64-4.84,14.86,14.86,0,0,1,.6-4.84c1.08-3.32,3.88-5.16,7.52-5.16a7.42,7.42,0,0,1,7.52,5.16,16.72,16.72,0,0,1,.6,5.48.39.39,0,0,1-.44.4H283.31a.21.21,0,0,0-.24.24,7.18,7.18,0,0,0,.32,2.32,4.73,4.73,0,0,0,4.84,3.32,6.26,6.26,0,0,0,4.92-2.12.41.41,0,0,1,.6-.08l1.64,1.48a.36.36,0,0,1,0,.56,9.31,9.31,0,0,1-7.48,3.27C284.07,141.63,281.31,139.75,280.27,136.44ZM292.19,130a.21.21,0,0,0,.24-.24,6.74,6.74,0,0,0-.28-2.16,4.73,4.73,0,0,0-8.8,0,6.74,6.74,0,0,0-.28,2.16.21.21,0,0,0,.24.24Zm-6-11c-.24,0-.36-.16-.24-.4l3-4.92a.7.7,0,0,1,.68-.4h2.64c.24,0,.36.2.2.4l-3.68,4.92a.79.79,0,0,1-.76.4Z"/><path d="M298.35,138.76a.39.39,0,0,1,0-.56l1.64-1.76a.39.39,0,0,1,.56,0,9.31,9.31,0,0,0,5.92,2.2c2.8,0,4.2-1.2,4.2-2.92,0-1.52-.72-2.36-3.72-2.68l-2-.2c-3.76-.4-5.72-2.28-5.72-5.4,0-3.64,2.6-5.84,7.12-5.84a11.46,11.46,0,0,1,6.8,2.12.39.39,0,0,1,.08.56L311.83,126a.39.39,0,0,1-.56.08,10.09,10.09,0,0,0-5.16-1.56c-2.4,0-3.64,1.08-3.64,2.64s.92,2.32,3.76,2.6l2,.2c3.88.36,5.76,2.32,5.76,5.4,0,3.76-2.72,6.27-7.72,6.27A11.91,11.91,0,0,1,298.35,138.76Z"/><path d="M317.59,137h2.8a.38.38,0,0,1,.4.4v3.72a1.3,1.3,0,0,1-.24.88l-2.48,3.27a.63.63,0,0,1-.52.28.36.36,0,0,1-.36-.36v-7.79A.38.38,0,0,1,317.59,137Z"/><path d="M331.91,136.44a15,15,0,0,1-.64-4.84,14.86,14.86,0,0,1,.6-4.84c1.08-3.32,3.88-5.16,7.52-5.16a7.42,7.42,0,0,1,7.52,5.16,16.72,16.72,0,0,1,.6,5.48.39.39,0,0,1-.44.4H335a.21.21,0,0,0-.24.24,7.18,7.18,0,0,0,.32,2.32,4.73,4.73,0,0,0,4.84,3.32,6.26,6.26,0,0,0,4.92-2.12.41.41,0,0,1,.6-.08L347,137.8a.36.36,0,0,1,0,.56,9.31,9.31,0,0,1-7.48,3.27C335.71,141.63,333,139.75,331.91,136.44ZM343.83,130a.21.21,0,0,0,.24-.24,6.74,6.74,0,0,0-.28-2.16,4.73,4.73,0,0,0-8.8,0,6.74,6.74,0,0,0-.28,2.16.21.21,0,0,0,.24.24Z"/><path d="M350,138.76a.39.39,0,0,1,0-.56l1.64-1.76a.39.39,0,0,1,.56,0,9.31,9.31,0,0,0,5.92,2.2c2.8,0,4.2-1.2,4.2-2.92,0-1.52-.72-2.36-3.72-2.68l-2-.2c-3.76-.4-5.72-2.28-5.72-5.4,0-3.64,2.6-5.84,7.12-5.84a11.46,11.46,0,0,1,6.8,2.12.39.39,0,0,1,.08.56L363.47,126a.39.39,0,0,1-.56.08,10.09,10.09,0,0,0-5.16-1.56c-2.4,0-3.64,1.08-3.64,2.64s.92,2.32,3.76,2.6l2,.2c3.88.36,5.76,2.32,5.76,5.4,0,3.76-2.72,6.27-7.72,6.27A11.91,11.91,0,0,1,350,138.76Z"/><path d="M373.91,141.4c-3.36,0-4.68-1.61-4.68-5v-22a.38.38,0,0,1,.4-.4h2.56a.38.38,0,0,1,.4.4v21.76c0,1.6.6,2.12,1.92,2.12h.76a.38.38,0,0,1,.4.4V141a.38.38,0,0,1-.4.4Z"/><path d="M379.11,117.72a.38.38,0,0,1-.4-.4V114.4a.38.38,0,0,1,.4-.4h2.72a.38.38,0,0,1,.4.4v2.92a.38.38,0,0,1-.4.4Zm.08,23.48a.38.38,0,0,1-.4-.41V122.44a.38.38,0,0,1,.4-.4h2.56a.38.38,0,0,1,.4.4v18.35a.38.38,0,0,1-.4.41Z"/><path d="M399.55,141.2a.38.38,0,0,1-.4-.41V129.6c0-3.08-1.4-4.88-4.28-4.88-2.6,0-4.4,1.84-4.4,4.68v11.39a.38.38,0,0,1-.4.41h-2.56a.38.38,0,0,1-.4-.41V122.44a.38.38,0,0,1,.4-.4h2.56a.38.38,0,0,1,.4.4v1.76h0a6.06,6.06,0,0,1,5.36-2.6c4.16,0,6.64,2.84,6.64,7.2v12a.38.38,0,0,1-.4.41Z"/><path d="M406.87,146a.36.36,0,0,1,0-.56l1.64-1.64a.38.38,0,0,1,.6,0,6.39,6.39,0,0,0,4.52,1.92c3.16,0,4.84-1.64,4.84-5.15v-2.24h0c-.88,1.6-2.52,2.64-5.32,2.64a6.28,6.28,0,0,1-6.44-4.64,15,15,0,0,1-.64-5,15,15,0,0,1,.64-5,6.28,6.28,0,0,1,6.44-4.64c2.8,0,4.44,1,5.32,2.64h0v-1.8a.38.38,0,0,1,.4-.4h2.56a.38.38,0,0,1,.4.4v17.92c0,5.43-3,8.47-8.36,8.47A8.66,8.66,0,0,1,406.87,146Zm11.2-11a11.65,11.65,0,0,0,.44-3.72,11.81,11.81,0,0,0-.44-3.72,4.32,4.32,0,0,0-8.12,0,12,12,0,0,0-.48,3.72A11.83,11.83,0,0,0,410,135a3.91,3.91,0,0,0,4,2.88A4,4,0,0,0,418.07,135Z"/><path d="M438.43,141.2a.38.38,0,0,1-.4-.41v-1.67h0c-.88,1.44-2.76,2.51-5.68,2.51-3.64,0-6.44-1.88-6.44-5.75,0-4,2.8-5.92,7.48-5.92h4.36a.21.21,0,0,0,.24-.24v-1.4c0-2.64-1-3.76-4.6-3.76a7.45,7.45,0,0,0-4.64,1.36c-.2.16-.44.16-.56,0L427.07,124a.42.42,0,0,1,.08-.56,10.63,10.63,0,0,1,6.52-1.88c5.44,0,7.52,1.8,7.52,6.52v12.67a.38.38,0,0,1-.4.41ZM438,135v-2.12a.21.21,0,0,0-.24-.24h-3.84c-3.32,0-4.76,1-4.76,3.12,0,2,1.44,3,4,3C436.11,138.76,438,137.36,438,135Z"/><path d="M444.67,138.76a.39.39,0,0,1,0-.56l1.64-1.76a.39.39,0,0,1,.56,0,9.31,9.31,0,0,0,5.92,2.2c2.8,0,4.2-1.2,4.2-2.92,0-1.52-.72-2.36-3.72-2.68l-2-.2c-3.76-.4-5.72-2.28-5.72-5.4,0-3.64,2.6-5.84,7.12-5.84a11.46,11.46,0,0,1,6.8,2.12.39.39,0,0,1,.08.56L458.15,126a.39.39,0,0,1-.56.08,10.09,10.09,0,0,0-5.16-1.56c-2.4,0-3.64,1.08-3.64,2.64s.92,2.32,3.76,2.6l2,.2c3.88.36,5.76,2.32,5.76,5.4,0,3.76-2.72,6.27-7.72,6.27A11.91,11.91,0,0,1,444.67,138.76Z"/><path d="M463.91,137h2.8a.38.38,0,0,1,.4.4v3.72a1.3,1.3,0,0,1-.24.88l-2.48,3.27a.63.63,0,0,1-.52.28.36.36,0,0,1-.36-.36v-7.79A.38.38,0,0,1,463.91,137Z"/><path d="M51.54,179.4c-3.72,0-5.16-1.69-5.16-5.44V163a.21.21,0,0,0-.24-.24h-1.6a.38.38,0,0,1-.4-.4v-1.92a.38.38,0,0,1,.4-.4h1.6a.21.21,0,0,0,.24-.24v-5.4a.38.38,0,0,1,.4-.4h2.56a.38.38,0,0,1,.4.4v5.4A.21.21,0,0,0,50,160h3a.38.38,0,0,1,.4.4v1.92a.38.38,0,0,1-.4.4H50a.21.21,0,0,0-.24.24v10.84c0,1.92.72,2.44,2.44,2.44H53a.38.38,0,0,1,.4.4V179a.38.38,0,0,1-.4.4Z"/><path d="M57.42,179.2a.38.38,0,0,1-.4-.41V160.44a.38.38,0,0,1,.4-.4H60a.38.38,0,0,1,.4.4v2h0a5.34,5.34,0,0,1,5.08-2.8A5.89,5.89,0,0,1,69.42,161c.2.2.24.36.08.56l-1.48,2a.36.36,0,0,1-.56.08,5.4,5.4,0,0,0-3-.92c-2.92,0-4.12,2.28-4.12,5.6v10.47a.38.38,0,0,1-.4.41Z"/><path d="M70.58,174.48a18.77,18.77,0,0,1,0-9.72c1-3.28,3.84-5.16,7.56-5.16s6.52,1.88,7.56,5.16a18.77,18.77,0,0,1,0,9.72c-1,3.23-3.84,5.15-7.56,5.15S71.62,177.71,70.58,174.48Zm11.88-1a12.55,12.55,0,0,0,.44-3.92,12.27,12.27,0,0,0-.44-3.88,4.61,4.61,0,0,0-8.64,0,12.27,12.27,0,0,0-.44,3.88,12.55,12.55,0,0,0,.44,3.92,4.61,4.61,0,0,0,8.64,0Z"/><path d="M94.74,179.4c-3.36,0-4.68-1.61-4.68-5v-22a.38.38,0,0,1,.4-.4H93a.38.38,0,0,1,.4.4v21.76c0,1.6.6,2.12,1.92,2.12h.76a.38.38,0,0,1,.4.4V179a.38.38,0,0,1-.4.4Z"/><path d="M104.14,179.4c-3.36,0-4.68-1.61-4.68-5v-22a.38.38,0,0,1,.4-.4h2.56a.38.38,0,0,1,.4.4v21.76c0,1.6.6,2.12,1.92,2.12h.76a.38.38,0,0,1,.4.4V179a.38.38,0,0,1-.4.4Z"/><path d="M109.14,175h2.8a.38.38,0,0,1,.4.4v3.72a1.3,1.3,0,0,1-.24.88l-2.48,3.27a.63.63,0,0,1-.52.28.36.36,0,0,1-.36-.36v-7.79A.38.38,0,0,1,109.14,175Z"/><path d="M128.58,179.4c-3.36,0-4.68-1.61-4.68-5v-22a.38.38,0,0,1,.4-.4h2.56a.38.38,0,0,1,.4.4v21.76c0,1.6.6,2.12,1.92,2.12h.76a.38.38,0,0,1,.4.4V179a.38.38,0,0,1-.4.4Z"/><path d="M133.86,179.2a.38.38,0,0,1-.4-.41V160.44a.38.38,0,0,1,.4-.4h2.56a.38.38,0,0,1,.4.4v18.35a.38.38,0,0,1-.4.41Zm.32-22.28c-.24,0-.36-.16-.24-.4l3-4.92a.7.7,0,0,1,.68-.4h2.64c.24,0,.36.2.2.4l-3.68,4.92a.79.79,0,0,1-.76.4Z"/><path d="M154.21,179.2a.38.38,0,0,1-.4-.41V167.6c0-3.08-1.4-4.88-4.28-4.88-2.59,0-4.39,1.84-4.39,4.68v11.39a.38.38,0,0,1-.4.41h-2.56a.38.38,0,0,1-.4-.41V160.44a.38.38,0,0,1,.4-.4h2.56a.38.38,0,0,1,.4.4v1.76h0a6.05,6.05,0,0,1,5.35-2.6c4.16,0,6.64,2.84,6.64,7.2v12a.38.38,0,0,1-.4.41Z"/><path d="M161.42,174.44a15,15,0,0,1-.64-4.84,14.86,14.86,0,0,1,.6-4.84c1.08-3.32,3.88-5.16,7.51-5.16a7.42,7.42,0,0,1,7.52,5.16,16.72,16.72,0,0,1,.6,5.48.39.39,0,0,1-.44.4H164.46a.21.21,0,0,0-.24.24,7.18,7.18,0,0,0,.32,2.32,4.71,4.71,0,0,0,4.83,3.32,6.26,6.26,0,0,0,4.92-2.12.41.41,0,0,1,.6-.08l1.64,1.48a.36.36,0,0,1,0,.56,9.31,9.31,0,0,1-7.48,3.27C165.22,179.63,162.46,177.75,161.42,174.44ZM173.33,168a.21.21,0,0,0,.24-.24,6.74,6.74,0,0,0-.28-2.16,4.72,4.72,0,0,0-8.79,0,6.74,6.74,0,0,0-.28,2.16.21.21,0,0,0,.24.24Z"/><path d="M192.41,179.2a.38.38,0,0,1-.4-.41v-1.67h0c-.88,1.44-2.76,2.51-5.68,2.51-3.63,0-6.43-1.88-6.43-5.75,0-4,2.8-5.92,7.47-5.92h4.36a.21.21,0,0,0,.24-.24v-1.4c0-2.64-1-3.76-4.6-3.76a7.4,7.4,0,0,0-4.63,1.36c-.2.16-.44.16-.56,0L181.06,162a.42.42,0,0,1,.08-.56,10.6,10.6,0,0,1,6.51-1.88c5.44,0,7.52,1.8,7.52,6.52v12.67a.38.38,0,0,1-.4.41Zm-.48-6.2v-2.12a.21.21,0,0,0-.24-.24h-3.84c-3.31,0-4.75,1-4.75,3.12,0,2,1.44,3,4,3C190.09,176.76,191.93,175.36,191.93,173Z"/><path d="M220,179.2a.38.38,0,0,1-.4-.41V177h0c-.92,1.52-2.56,2.67-5.44,2.67-3.32,0-5.63-1.55-6.59-4.59a21.94,21.94,0,0,1,0-10.84c1-3,3.27-4.6,6.59-4.6,2.88,0,4.52,1.12,5.44,2.64h0V152.4a.38.38,0,0,1,.4-.4h2.56a.38.38,0,0,1,.4.4v26.39a.38.38,0,0,1-.4.41Zm-.84-5.6a12.31,12.31,0,0,0,.44-4,12.47,12.47,0,0,0-.44-4,4.53,4.53,0,0,0-8.44,0,14,14,0,0,0-.44,4,13.62,13.62,0,0,0,.44,4,4.51,4.51,0,0,0,8.44,0Z"/><path d="M227.38,174.44a14.7,14.7,0,0,1-.65-4.84,15.14,15.14,0,0,1,.6-4.84c1.08-3.32,3.88-5.16,7.52-5.16a7.42,7.42,0,0,1,7.52,5.16,16.72,16.72,0,0,1,.6,5.48.39.39,0,0,1-.44.4H230.41a.21.21,0,0,0-.24.24,7.18,7.18,0,0,0,.32,2.32,4.73,4.73,0,0,0,4.84,3.32,6.26,6.26,0,0,0,4.92-2.12.41.41,0,0,1,.6-.08l1.64,1.48a.36.36,0,0,1,0,.56,9.31,9.31,0,0,1-7.48,3.27C231.17,179.63,228.41,177.75,227.38,174.44ZM239.29,168a.21.21,0,0,0,.24-.24,6.74,6.74,0,0,0-.28-2.16,4.73,4.73,0,0,0-8.8,0,6.74,6.74,0,0,0-.28,2.16.21.21,0,0,0,.24.24Z"/><path d="M259.89,179.2c-.28,0-.4-.16-.48-.41l-6.88-18.35c-.08-.24,0-.4.32-.4h2.76c.28,0,.4.12.52.4l5,13.76h.08L266,160.44a.47.47,0,0,1,.48-.4h2.72c.28,0,.4.16.32.4l-6.84,18.35a.52.52,0,0,1-.52.41Z"/><path d="M272.57,155.72a.38.38,0,0,1-.4-.4V152.4a.38.38,0,0,1,.4-.4h2.72a.38.38,0,0,1,.4.4v2.92a.38.38,0,0,1-.4.4Zm.08,23.48a.38.38,0,0,1-.4-.41V160.44a.38.38,0,0,1,.4-.4h2.56a.38.38,0,0,1,.4.4v18.35a.38.38,0,0,1-.4.41Z"/><path d="M292.57,179.2a.38.38,0,0,1-.4-.41V177h0c-.92,1.52-2.56,2.67-5.44,2.67-3.32,0-5.64-1.55-6.6-4.59a21.94,21.94,0,0,1,0-10.84c1-3,3.28-4.6,6.6-4.6,2.88,0,4.52,1.12,5.44,2.64h0V152.4a.38.38,0,0,1,.4-.4h2.56a.38.38,0,0,1,.4.4v26.39a.38.38,0,0,1-.4.41Zm-.84-5.6a12.31,12.31,0,0,0,.44-4,12.47,12.47,0,0,0-.44-4,4.53,4.53,0,0,0-8.44,0,13.63,13.63,0,0,0-.44,4,13.29,13.29,0,0,0,.44,4,4.51,4.51,0,0,0,8.44,0Z"/><path d="M312.09,179.2a.38.38,0,0,1-.4-.41v-1.67h0c-.88,1.44-2.76,2.51-5.68,2.51-3.64,0-6.44-1.88-6.44-5.75,0-4,2.8-5.92,7.48-5.92h4.36a.21.21,0,0,0,.24-.24v-1.4c0-2.64-1-3.76-4.6-3.76a7.45,7.45,0,0,0-4.64,1.36c-.2.16-.44.16-.56,0L300.73,162a.42.42,0,0,1,.08-.56,10.63,10.63,0,0,1,6.52-1.88c5.44,0,7.52,1.8,7.52,6.52v12.67a.38.38,0,0,1-.4.41Zm-.48-6.2v-2.12a.21.21,0,0,0-.24-.24h-3.84c-3.32,0-4.76,1-4.76,3.12,0,2,1.44,3,4,3C309.77,176.76,311.61,175.36,311.61,173Z"/><path d="M319.57,175h2.8a.38.38,0,0,1,.4.4v3.72a1.3,1.3,0,0,1-.24.88l-2.48,3.27a.63.63,0,0,1-.52.28.36.36,0,0,1-.36-.36v-7.79A.38.38,0,0,1,319.57,175Z"/><path d="M334.81,179.2a.38.38,0,0,1-.4-.41V152.4a.38.38,0,0,1,.4-.4h2.56a.38.38,0,0,1,.4.4v9.84h0c.92-1.52,2.56-2.64,5.44-2.64,3.32,0,5.64,1.56,6.6,4.6a21.94,21.94,0,0,1,0,10.84c-1,3-3.28,4.59-6.6,4.59-2.88,0-4.52-1.15-5.44-2.67h0v1.83a.38.38,0,0,1-.4.41Zm11.84-5.6a13.29,13.29,0,0,0,.44-4,13.63,13.63,0,0,0-.44-4,4.53,4.53,0,0,0-8.44,0,12.47,12.47,0,0,0-.44,4,12.31,12.31,0,0,0,.44,4,4.51,4.51,0,0,0,8.44,0Z"/><path d="M353.81,174.48a18.77,18.77,0,0,1,0-9.72c1-3.28,3.84-5.16,7.56-5.16s6.52,1.88,7.56,5.16a18.77,18.77,0,0,1,0,9.72c-1,3.23-3.84,5.15-7.56,5.15S354.85,177.71,353.81,174.48Zm11.88-1a12.55,12.55,0,0,0,.44-3.92,12.27,12.27,0,0,0-.44-3.88,4.61,4.61,0,0,0-8.64,0,12.27,12.27,0,0,0-.44,3.88,12.55,12.55,0,0,0,.44,3.92,4.61,4.61,0,0,0,8.64,0Z"/><path d="M378.93,179.4c-3.72,0-5.16-1.69-5.16-5.44V163a.21.21,0,0,0-.24-.24h-1.6a.38.38,0,0,1-.4-.4v-1.92a.38.38,0,0,1,.4-.4h1.6a.21.21,0,0,0,.24-.24v-5.4a.38.38,0,0,1,.4-.4h2.56a.38.38,0,0,1,.4.4v5.4a.21.21,0,0,0,.24.24h3a.38.38,0,0,1,.4.4v1.92a.38.38,0,0,1-.4.4h-3a.21.21,0,0,0-.24.24v10.84c0,1.92.72,2.44,2.44,2.44h.84a.38.38,0,0,1,.4.4V179a.38.38,0,0,1-.4.4Z"/><path d="M396,179.2a.38.38,0,0,1-.4-.41v-1.67h0c-.88,1.44-2.76,2.51-5.68,2.51-3.64,0-6.44-1.88-6.44-5.75,0-4,2.8-5.92,7.48-5.92h4.36a.21.21,0,0,0,.24-.24v-1.4c0-2.64-1-3.76-4.6-3.76a7.45,7.45,0,0,0-4.64,1.36c-.2.16-.44.16-.56,0L384.65,162a.42.42,0,0,1,.08-.56,10.63,10.63,0,0,1,6.52-1.88c5.44,0,7.52,1.8,7.52,6.52v12.67a.38.38,0,0,1-.4.41Zm-.48-6.2v-2.12a.21.21,0,0,0-.24-.24h-3.84c-3.32,0-4.76,1-4.76,3.12,0,2,1.44,3,4,3C393.69,176.76,395.53,175.36,395.53,173Z"/><path d="M402.25,176.76a.39.39,0,0,1,0-.56l1.64-1.76a.39.39,0,0,1,.56,0,9.31,9.31,0,0,0,5.92,2.2c2.8,0,4.2-1.2,4.2-2.92,0-1.52-.72-2.36-3.72-2.68l-2-.2c-3.76-.4-5.72-2.28-5.72-5.4,0-3.64,2.6-5.84,7.12-5.84a11.46,11.46,0,0,1,6.8,2.12.39.39,0,0,1,.08.56L415.73,164a.39.39,0,0,1-.56.08,10.09,10.09,0,0,0-5.16-1.56c-2.4,0-3.64,1.08-3.64,2.64s.92,2.32,3.76,2.6l2,.2c3.88.36,5.76,2.32,5.76,5.4,0,3.76-2.72,6.27-7.72,6.27A11.91,11.91,0,0,1,402.25,176.76Z"/><path d="M421.49,175h2.8a.38.38,0,0,1,.4.4v3.72a1.3,1.3,0,0,1-.24.88L422,183.23a.63.63,0,0,1-.52.28.36.36,0,0,1-.36-.36v-7.79A.38.38,0,0,1,421.49,175Z"/><path d="M20.68,222a.36.36,0,0,1,0-.56l1.64-1.64a.37.37,0,0,1,.6,0,6.39,6.39,0,0,0,4.52,1.92c3.16,0,4.84-1.64,4.84-5.15v-2.24h0C31.4,215.92,29.76,217,27,217a6.28,6.28,0,0,1-6.44-4.64,20.17,20.17,0,0,1,0-10.08A6.28,6.28,0,0,1,27,197.6c2.8,0,4.44,1,5.32,2.64h0v-1.8a.38.38,0,0,1,.4-.4h2.56a.38.38,0,0,1,.4.4v17.92c0,5.43-3,8.47-8.36,8.47A8.66,8.66,0,0,1,20.68,222Zm11.2-11a11.65,11.65,0,0,0,.44-3.72,11.81,11.81,0,0,0-.44-3.72,3.93,3.93,0,0,0-4.08-2.84,3.92,3.92,0,0,0-4,2.84,12,12,0,0,0-.48,3.72,11.83,11.83,0,0,0,.48,3.72,3.91,3.91,0,0,0,4,2.88A4,4,0,0,0,31.88,211Z"/><path d="M52.68,217.2a.38.38,0,0,1-.4-.41V215h0A5.86,5.86,0,0,1,47,217.63c-4.2,0-6.64-2.87-6.64-7.23v-12a.38.38,0,0,1,.4-.4h2.56a.38.38,0,0,1,.4.4V209.6c0,3.12,1.4,4.92,4.24,4.92,2.6,0,4.32-1.84,4.32-4.72V198.44a.38.38,0,0,1,.4-.4h2.56a.38.38,0,0,1,.4.4v18.35a.38.38,0,0,1-.4.41Z"/><path d="M72.2,217.2a.38.38,0,0,1-.4-.41v-1.67h0c-.88,1.44-2.76,2.51-5.68,2.51-3.64,0-6.44-1.88-6.44-5.75,0-4,2.8-5.92,7.48-5.92h4.36a.21.21,0,0,0,.24-.24v-1.4c0-2.64-1-3.76-4.6-3.76a7.45,7.45,0,0,0-4.64,1.36c-.2.16-.44.16-.56,0L60.84,200a.42.42,0,0,1,.08-.56,10.63,10.63,0,0,1,6.52-1.88c5.44,0,7.52,1.8,7.52,6.52v12.67a.38.38,0,0,1-.4.41Zm-.48-6.2v-2.12a.21.21,0,0,0-.24-.24H67.64c-3.32,0-4.76,1-4.76,3.12,0,2,1.44,3,4,3C69.88,214.76,71.72,213.36,71.72,211Z"/><path d="M92.2,217.2a.38.38,0,0,1-.4-.41V205.6c0-3.08-1.4-4.88-4.28-4.88-2.6,0-4.4,1.84-4.4,4.68v11.39a.38.38,0,0,1-.4.41H80.16a.38.38,0,0,1-.4-.41V198.44a.38.38,0,0,1,.4-.4h2.56a.38.38,0,0,1,.4.4v1.76h0a6.06,6.06,0,0,1,5.36-2.6c4.16,0,6.64,2.84,6.64,7.2v12a.38.38,0,0,1-.4.41Z"/><path d="M105.48,217.4c-3.72,0-5.16-1.69-5.16-5.44V201a.21.21,0,0,0-.24-.24h-1.6a.38.38,0,0,1-.4-.4v-1.92a.38.38,0,0,1,.4-.4h1.6a.21.21,0,0,0,.24-.24v-5.4a.38.38,0,0,1,.4-.4h2.56a.38.38,0,0,1,.4.4v5.4a.21.21,0,0,0,.24.24h3a.38.38,0,0,1,.4.4v1.92a.38.38,0,0,1-.4.4h-3a.21.21,0,0,0-.24.24v10.84c0,1.92.72,2.44,2.44,2.44H107a.38.38,0,0,1,.4.4V217a.38.38,0,0,1-.4.4Z"/><path d="M110.44,212.44a15,15,0,0,1-.64-4.84,14.86,14.86,0,0,1,.6-4.84c1.08-3.32,3.88-5.16,7.52-5.16a7.42,7.42,0,0,1,7.52,5.16,17,17,0,0,1,.6,5.48.39.39,0,0,1-.44.4H113.48a.21.21,0,0,0-.24.24,7.18,7.18,0,0,0,.32,2.32,4.73,4.73,0,0,0,4.84,3.32,6.26,6.26,0,0,0,4.92-2.12.41.41,0,0,1,.6-.08l1.64,1.48a.36.36,0,0,1,0,.56,9.31,9.31,0,0,1-7.48,3.27C114.24,217.63,111.48,215.75,110.44,212.44ZM122.36,206a.21.21,0,0,0,.24-.24,6.74,6.74,0,0,0-.28-2.16,4.73,4.73,0,0,0-8.8,0,6.74,6.74,0,0,0-.28,2.16.21.21,0,0,0,.24.24Z"/><path d="M128.52,214.76a.39.39,0,0,1,0-.56l1.64-1.76a.39.39,0,0,1,.56,0,9.31,9.31,0,0,0,5.92,2.2c2.8,0,4.2-1.2,4.2-2.92,0-1.52-.72-2.36-3.72-2.68l-2-.2c-3.76-.4-5.72-2.28-5.72-5.4,0-3.64,2.6-5.84,7.12-5.84a11.46,11.46,0,0,1,6.8,2.12.39.39,0,0,1,.08.56L142,202a.39.39,0,0,1-.56.08,10.09,10.09,0,0,0-5.16-1.56c-2.4,0-3.64,1.08-3.64,2.64s.92,2.32,3.76,2.6l2,.2c3.88.36,5.76,2.32,5.76,5.4,0,3.76-2.72,6.27-7.72,6.27A11.91,11.91,0,0,1,128.52,214.76Z"/><path d="M147.76,213h2.8a.38.38,0,0,1,.4.4v3.72a1.3,1.3,0,0,1-.24.88l-2.48,3.27a.63.63,0,0,1-.52.28.36.36,0,0,1-.36-.36v-7.79A.38.38,0,0,1,147.76,213Z"/><path d="M162,202.76c1.08-3.32,3.88-5.16,7.56-5.16a7.66,7.66,0,0,1,6.55,3.24c.12.2.12.36-.12.56l-1.76,1.44a.36.36,0,0,1-.56,0,4.68,4.68,0,0,0-4.11-2.08,4.16,4.16,0,0,0-4.28,3,17.5,17.5,0,0,0,0,7.8,4.16,4.16,0,0,0,4.28,3,4.68,4.68,0,0,0,4.11-2.08.36.36,0,0,1,.56,0l1.76,1.44c.24.2.24.36.12.56a7.66,7.66,0,0,1-6.55,3.23c-3.68,0-6.48-1.84-7.56-5.15a20,20,0,0,1,0-9.72Z"/><path d="M191,217.2a.38.38,0,0,1-.4-.41v-1.67h0c-.88,1.44-2.75,2.51-5.67,2.51-3.64,0-6.44-1.88-6.44-5.75,0-4,2.8-5.92,7.48-5.92h4.35a.21.21,0,0,0,.24-.24v-1.4c0-2.64-1-3.76-4.59-3.76a7.45,7.45,0,0,0-4.64,1.36c-.2.16-.44.16-.56,0L179.64,200a.42.42,0,0,1,.08-.56,10.63,10.63,0,0,1,6.52-1.88c5.43,0,7.51,1.8,7.51,6.52v12.67a.38.38,0,0,1-.4.41Zm-.48-6.2v-2.12a.21.21,0,0,0-.24-.24h-3.83c-3.32,0-4.76,1-4.76,3.12,0,2,1.44,3,4,3C188.68,214.76,190.51,213.36,190.51,211Z"/><path d="M197.24,214.76a.39.39,0,0,1,0-.56l1.64-1.76a.39.39,0,0,1,.56,0,9.3,9.3,0,0,0,5.91,2.2c2.8,0,4.2-1.2,4.2-2.92,0-1.52-.72-2.36-3.72-2.68l-2-.2c-3.76-.4-5.72-2.28-5.72-5.4,0-3.64,2.6-5.84,7.12-5.84a11.45,11.45,0,0,1,6.79,2.12.39.39,0,0,1,.08.56L210.71,202a.39.39,0,0,1-.56.08,10,10,0,0,0-5.15-1.56c-2.4,0-3.64,1.08-3.64,2.64s.92,2.32,3.76,2.6l2,.2c3.88.36,5.76,2.32,5.76,5.4,0,3.76-2.72,6.27-7.71,6.27A11.91,11.91,0,0,1,197.24,214.76Z"/><path d="M216,202.76c1.08-3.32,3.88-5.16,7.55-5.16a7.68,7.68,0,0,1,6.56,3.24c.12.2.12.36-.12.56l-1.76,1.44a.36.36,0,0,1-.56,0,4.71,4.71,0,0,0-4.12-2.08,4.15,4.15,0,0,0-4.27,3,17.5,17.5,0,0,0,0,7.8,4.15,4.15,0,0,0,4.27,3,4.71,4.71,0,0,0,4.12-2.08.36.36,0,0,1,.56,0l1.76,1.44c.24.2.24.36.12.56a7.67,7.67,0,0,1-6.56,3.23c-3.67,0-6.47-1.84-7.55-5.15a20,20,0,0,1,0-9.72Z"/><path d="M232.84,212.48a18.77,18.77,0,0,1,0-9.72c1-3.28,3.84-5.16,7.55-5.16s6.52,1.88,7.56,5.16a18.77,18.77,0,0,1,0,9.72c-1,3.23-3.84,5.15-7.56,5.15S233.88,215.71,232.84,212.48Zm11.87-1a12.55,12.55,0,0,0,.44-3.92,12.27,12.27,0,0,0-.44-3.88,4.6,4.6,0,0,0-8.63,0,12.27,12.27,0,0,0-.44,3.88,12.55,12.55,0,0,0,.44,3.92,4.6,4.6,0,0,0,8.63,0Z"/><path d="M252.32,213h2.79a.38.38,0,0,1,.4.4v3.72a1.3,1.3,0,0,1-.24.88l-2.48,3.27a.6.6,0,0,1-.51.28.36.36,0,0,1-.36-.36v-7.79A.38.38,0,0,1,252.32,213Z"/><path d="M266.63,212.44a15,15,0,0,1-.64-4.84,14.86,14.86,0,0,1,.6-4.84c1.08-3.32,3.88-5.16,7.52-5.16a7.42,7.42,0,0,1,7.52,5.16,16.72,16.72,0,0,1,.6,5.48.39.39,0,0,1-.44.4H269.67a.21.21,0,0,0-.24.24,7.18,7.18,0,0,0,.32,2.32,4.73,4.73,0,0,0,4.84,3.32,6.26,6.26,0,0,0,4.92-2.12.41.41,0,0,1,.6-.08l1.64,1.48a.36.36,0,0,1,0,.56,9.31,9.31,0,0,1-7.48,3.27C270.43,217.63,267.67,215.75,266.63,212.44ZM278.55,206a.21.21,0,0,0,.24-.24,6.74,6.74,0,0,0-.28-2.16,4.73,4.73,0,0,0-8.8,0,6.74,6.74,0,0,0-.28,2.16.21.21,0,0,0,.24.24Z"/><path d="M291.59,217.4c-3.72,0-5.16-1.69-5.16-5.44V201a.21.21,0,0,0-.24-.24h-1.6a.38.38,0,0,1-.4-.4v-1.92a.38.38,0,0,1,.4-.4h1.6a.21.21,0,0,0,.24-.24v-5.4a.38.38,0,0,1,.4-.4h2.56a.38.38,0,0,1,.4.4v5.4a.21.21,0,0,0,.24.24h3a.38.38,0,0,1,.4.4v1.92a.38.38,0,0,1-.4.4h-3a.21.21,0,0,0-.24.24v10.84c0,1.92.72,2.44,2.44,2.44h.84a.38.38,0,0,1,.4.4V217a.38.38,0,0,1-.4.4Z"/><path d="M296.51,202.76c1.08-3.32,3.88-5.16,7.56-5.16a7.68,7.68,0,0,1,6.56,3.24c.12.2.12.36-.12.56l-1.76,1.44a.36.36,0,0,1-.56,0,4.71,4.71,0,0,0-4.12-2.08,4.16,4.16,0,0,0-4.28,3,17.5,17.5,0,0,0,0,7.8,4.16,4.16,0,0,0,4.28,3,4.71,4.71,0,0,0,4.12-2.08.36.36,0,0,1,.56,0l1.76,1.44c.24.2.24.36.12.56a7.67,7.67,0,0,1-6.56,3.23c-3.68,0-6.48-1.84-7.56-5.15a20,20,0,0,1,0-9.72Z"/><path d="M313.87,213.36a.38.38,0,0,1,.4-.4h3a.38.38,0,0,1,.4.4v3.43a.38.38,0,0,1-.4.41h-3a.38.38,0,0,1-.4-.41Z"/><path d="M324.55,204.08a37,37,0,0,0-3.8-16.08c-.12-.24,0-.4.24-.4h1.4a.73.73,0,0,1,.64.4,29.52,29.52,0,0,1,0,32.15.73.73,0,0,1-.64.4H321c-.24,0-.36-.16-.24-.4A37.2,37.2,0,0,0,324.55,204.08Z"/><path d="M331.91,213h2.8a.38.38,0,0,1,.4.4v3.72a1.3,1.3,0,0,1-.24.88l-2.48,3.27a.63.63,0,0,1-.52.28.36.36,0,0,1-.36-.36v-7.79A.38.38,0,0,1,331.91,213Z"/><path d="M347.15,224.39a.38.38,0,0,1-.4-.4V198.44a.38.38,0,0,1,.4-.4h2.56a.38.38,0,0,1,.4.4v1.8h0c.92-1.52,2.56-2.64,5.44-2.64,3.32,0,5.64,1.56,6.6,4.6a21.94,21.94,0,0,1,0,10.84c-1,3-3.28,4.59-6.6,4.59-2.88,0-4.52-1.15-5.44-2.67h0v9a.38.38,0,0,1-.4.4ZM359,211.6a13.29,13.29,0,0,0,.44-4,13.63,13.63,0,0,0-.44-4,4.53,4.53,0,0,0-8.44,0,12.47,12.47,0,0,0-.44,4,12.31,12.31,0,0,0,.44,4,4.51,4.51,0,0,0,8.44,0Z"/><path d="M371.27,217.4c-3.36,0-4.68-1.61-4.68-5v-22a.38.38,0,0,1,.4-.4h2.56a.38.38,0,0,1,.4.4v21.76c0,1.6.6,2.12,1.92,2.12h.76a.38.38,0,0,1,.4.4V217a.38.38,0,0,1-.4.4Z"/><path d="M387.75,217.2a.38.38,0,0,1-.4-.41v-1.67h0c-.88,1.44-2.76,2.51-5.68,2.51-3.64,0-6.44-1.88-6.44-5.75,0-4,2.8-5.92,7.48-5.92H387a.21.21,0,0,0,.24-.24v-1.4c0-2.64-1-3.76-4.6-3.76a7.45,7.45,0,0,0-4.64,1.36c-.2.16-.44.16-.56,0L376.39,200a.42.42,0,0,1,.08-.56A10.63,10.63,0,0,1,383,197.6c5.44,0,7.52,1.8,7.52,6.52v12.67a.38.38,0,0,1-.4.41Zm-.48-6.2v-2.12a.21.21,0,0,0-.24-.24h-3.84c-3.32,0-4.76,1-4.76,3.12,0,2,1.44,3,4,3C385.43,214.76,387.27,213.36,387.27,211Z"/><path d="M407.75,217.2a.38.38,0,0,1-.4-.41V205.6c0-3.08-1.4-4.88-4.28-4.88-2.6,0-4.4,1.84-4.4,4.68v11.39a.38.38,0,0,1-.4.41h-2.56a.38.38,0,0,1-.4-.41V198.44a.38.38,0,0,1,.4-.4h2.56a.38.38,0,0,1,.4.4v1.76h0a6.06,6.06,0,0,1,5.36-2.6c4.16,0,6.64,2.84,6.64,7.2v12a.38.38,0,0,1-.4.41Z"/><path d="M415,212.44a15,15,0,0,1-.64-4.84,14.86,14.86,0,0,1,.6-4.84c1.08-3.32,3.88-5.16,7.52-5.16a7.42,7.42,0,0,1,7.52,5.16,16.72,16.72,0,0,1,.6,5.48.39.39,0,0,1-.44.4H418a.21.21,0,0,0-.24.24,7.18,7.18,0,0,0,.32,2.32,4.73,4.73,0,0,0,4.84,3.32,6.26,6.26,0,0,0,4.92-2.12.41.41,0,0,1,.6-.08l1.64,1.48a.36.36,0,0,1,0,.56,9.31,9.31,0,0,1-7.48,3.27C418.75,217.63,416,215.75,415,212.44ZM426.87,206a.21.21,0,0,0,.24-.24,6.74,6.74,0,0,0-.28-2.16,4.73,4.73,0,0,0-8.8,0,6.74,6.74,0,0,0-.28,2.16.21.21,0,0,0,.24.24Z"/><path d="M433.83,212.44a15,15,0,0,1-.64-4.84,14.86,14.86,0,0,1,.6-4.84c1.08-3.32,3.88-5.16,7.52-5.16a7.42,7.42,0,0,1,7.52,5.16,16.72,16.72,0,0,1,.6,5.48.39.39,0,0,1-.44.4H436.87a.21.21,0,0,0-.24.24,7.18,7.18,0,0,0,.32,2.32,4.73,4.73,0,0,0,4.84,3.32,6.26,6.26,0,0,0,4.92-2.12.41.41,0,0,1,.6-.08L449,213.8a.36.36,0,0,1,0,.56,9.31,9.31,0,0,1-7.48,3.27C437.63,217.63,434.87,215.75,433.83,212.44ZM445.75,206a.21.21,0,0,0,.24-.24,6.74,6.74,0,0,0-.28-2.16,4.73,4.73,0,0,0-8.8,0,6.74,6.74,0,0,0-.28,2.16.21.21,0,0,0,.24.24Z"/><path d="M9.6,252.76a.39.39,0,0,1,0-.56l1.64-1.76a.39.39,0,0,1,.56,0,9.31,9.31,0,0,0,5.92,2.2c2.8,0,4.2-1.2,4.2-2.92,0-1.52-.72-2.36-3.72-2.68l-2-.2c-3.76-.4-5.72-2.28-5.72-5.4,0-3.64,2.6-5.84,7.12-5.84a11.46,11.46,0,0,1,6.8,2.12.39.39,0,0,1,.08.56L23.08,240a.39.39,0,0,1-.56.08,10.09,10.09,0,0,0-5.16-1.56c-2.4,0-3.64,1.08-3.64,2.64s.92,2.32,3.76,2.6l2,.2c3.88.36,5.76,2.32,5.76,5.4,0,3.76-2.72,6.27-7.72,6.27A11.91,11.91,0,0,1,9.6,252.76Z"/><path d="M41,255.2a.38.38,0,0,1-.4-.41V253h0a5.86,5.86,0,0,1-5.24,2.63c-4.2,0-6.64-2.87-6.64-7.23v-12a.38.38,0,0,1,.4-.4H31.6a.38.38,0,0,1,.4.4V247.6c0,3.12,1.4,4.92,4.24,4.92,2.6,0,4.32-1.84,4.32-4.72V236.44a.38.38,0,0,1,.4-.4h2.56a.38.38,0,0,1,.4.4v18.35a.38.38,0,0,1-.4.41Z"/><path d="M68.48,255.2a.38.38,0,0,1-.4-.41v-1.67h0c-.88,1.44-2.76,2.51-5.68,2.51-3.64,0-6.44-1.88-6.44-5.75,0-4,2.8-5.92,7.48-5.92h4.36a.21.21,0,0,0,.24-.24v-1.4c0-2.64-1-3.76-4.6-3.76a7.45,7.45,0,0,0-4.64,1.36c-.2.16-.44.16-.56,0L57.12,238a.42.42,0,0,1,.08-.56,10.63,10.63,0,0,1,6.52-1.88c5.44,0,7.52,1.8,7.52,6.52v12.67a.38.38,0,0,1-.4.41ZM68,249v-2.12a.21.21,0,0,0-.24-.24H63.92c-3.32,0-4.76,1-4.76,3.12,0,2,1.44,3,4,3C66.16,252.76,68,251.36,68,249Z"/><path d="M75.48,240.76c1.08-3.32,3.88-5.16,7.56-5.16a7.68,7.68,0,0,1,6.56,3.24c.12.2.12.36-.12.56l-1.76,1.44a.36.36,0,0,1-.56,0A4.71,4.71,0,0,0,83,238.72a4.16,4.16,0,0,0-4.28,3,17.5,17.5,0,0,0,0,7.8,4.16,4.16,0,0,0,4.28,3,4.71,4.71,0,0,0,4.12-2.08.36.36,0,0,1,.56,0l1.76,1.44c.24.2.24.36.12.56A7.67,7.67,0,0,1,83,255.63c-3.68,0-6.48-1.84-7.56-5.15a20,20,0,0,1,0-9.72Z"/><path d="M98.88,255.4c-3.72,0-5.16-1.69-5.16-5.44V239a.21.21,0,0,0-.24-.24h-1.6a.38.38,0,0,1-.4-.4v-1.92a.38.38,0,0,1,.4-.4h1.6a.21.21,0,0,0,.24-.24v-5.4a.38.38,0,0,1,.4-.4h2.56a.38.38,0,0,1,.4.4v5.4a.21.21,0,0,0,.24.24h3a.38.38,0,0,1,.4.4v1.92a.38.38,0,0,1-.4.4h-3a.21.21,0,0,0-.24.24v10.84c0,1.92.72,2.44,2.44,2.44h.84a.38.38,0,0,1,.4.4V255a.38.38,0,0,1-.4.4Z"/><path d="M104.68,231.72a.38.38,0,0,1-.4-.4V228.4a.38.38,0,0,1,.4-.4h2.72a.38.38,0,0,1,.4.4v2.92a.38.38,0,0,1-.4.4Zm.08,23.48a.38.38,0,0,1-.4-.41V236.44a.38.38,0,0,1,.4-.4h2.56a.38.38,0,0,1,.4.4v18.35a.38.38,0,0,1-.4.41Z"/><path d="M117.8,255.2c-.28,0-.4-.16-.48-.41l-6.88-18.35c-.08-.24,0-.4.32-.4h2.76c.28,0,.4.12.52.4l5,13.76h.08l4.84-13.76a.46.46,0,0,1,.48-.4h2.71c.28,0,.4.16.32.4l-6.83,18.35a.52.52,0,0,1-.52.41Z"/><path d="M130.48,231.72a.38.38,0,0,1-.4-.4V228.4a.38.38,0,0,1,.4-.4h2.72a.38.38,0,0,1,.4.4v2.92a.38.38,0,0,1-.4.4Zm.08,23.48a.38.38,0,0,1-.4-.41V236.44a.38.38,0,0,1,.4-.4h2.56a.38.38,0,0,1,.4.4v18.35a.38.38,0,0,1-.4.41Z"/><path d="M150.47,255.2a.38.38,0,0,1-.4-.41V253h0c-.92,1.52-2.56,2.67-5.43,2.67-3.32,0-5.64-1.55-6.6-4.59a21.94,21.94,0,0,1,0-10.84c1-3,3.28-4.6,6.6-4.6,2.87,0,4.51,1.12,5.43,2.64h0V228.4a.38.38,0,0,1,.4-.4H153a.38.38,0,0,1,.4.4v26.39a.38.38,0,0,1-.4.41Zm-.84-5.6a12.31,12.31,0,0,0,.44-4,12.47,12.47,0,0,0-.44-4,4.52,4.52,0,0,0-8.43,0,13.63,13.63,0,0,0-.44,4,13.29,13.29,0,0,0,.44,4,4.5,4.5,0,0,0,8.43,0Z"/><path d="M170,255.2a.38.38,0,0,1-.4-.41v-1.67h0c-.88,1.44-2.76,2.51-5.68,2.51-3.63,0-6.43-1.88-6.43-5.75,0-4,2.8-5.92,7.47-5.92h4.36a.21.21,0,0,0,.24-.24v-1.4c0-2.64-1-3.76-4.6-3.76a7.42,7.42,0,0,0-4.63,1.36c-.2.16-.44.16-.56,0L158.64,238a.42.42,0,0,1,.08-.56,10.62,10.62,0,0,1,6.51-1.88c5.44,0,7.52,1.8,7.52,6.52v12.67a.38.38,0,0,1-.4.41Zm-.48-6.2v-2.12a.21.21,0,0,0-.24-.24h-3.84c-3.31,0-4.75,1-4.75,3.12,0,2,1.44,3,4,3C167.67,252.76,169.51,251.36,169.51,249Z"/><path d="M189.55,255.2a.38.38,0,0,1-.4-.41V253h0c-.92,1.52-2.56,2.67-5.44,2.67-3.32,0-5.63-1.55-6.59-4.59a21.94,21.94,0,0,1,0-10.84c1-3,3.27-4.6,6.59-4.6,2.88,0,4.52,1.12,5.44,2.64h0V228.4a.38.38,0,0,1,.4-.4h2.56a.38.38,0,0,1,.4.4v26.39a.38.38,0,0,1-.4.41Zm-.84-5.6a12.31,12.31,0,0,0,.44-4,12.47,12.47,0,0,0-.44-4,4.53,4.53,0,0,0-8.44,0,14,14,0,0,0-.44,4,13.62,13.62,0,0,0,.44,4,4.51,4.51,0,0,0,8.44,0Z"/><path d="M197.39,251h2.8a.38.38,0,0,1,.4.4v3.72a1.3,1.3,0,0,1-.24.88l-2.48,3.27a.63.63,0,0,1-.52.28.36.36,0,0,1-.36-.36v-7.79A.38.38,0,0,1,197.39,251Z"/><path d="M217.79,255.4c-3.72,0-5.16-1.69-5.16-5.44V239a.21.21,0,0,0-.24-.24h-1.6a.37.37,0,0,1-.39-.4v-1.92a.37.37,0,0,1,.39-.4h1.6a.21.21,0,0,0,.24-.24v-5.4a.38.38,0,0,1,.4-.4h2.56a.38.38,0,0,1,.4.4v5.4a.21.21,0,0,0,.24.24h3a.38.38,0,0,1,.4.4v1.92a.38.38,0,0,1-.4.4h-3a.21.21,0,0,0-.24.24v10.84c0,1.92.72,2.44,2.44,2.44h.84a.38.38,0,0,1,.4.4V255a.38.38,0,0,1-.4.4Z"/><path d="M222.75,250.44a15,15,0,0,1-.64-4.84,14.86,14.86,0,0,1,.6-4.84c1.08-3.32,3.88-5.16,7.52-5.16a7.42,7.42,0,0,1,7.52,5.16,16.72,16.72,0,0,1,.6,5.48.39.39,0,0,1-.44.4H225.79a.21.21,0,0,0-.24.24,7.18,7.18,0,0,0,.32,2.32,4.73,4.73,0,0,0,4.84,3.32,6.26,6.26,0,0,0,4.92-2.12.41.41,0,0,1,.6-.08l1.64,1.48a.36.36,0,0,1,0,.56,9.31,9.31,0,0,1-7.48,3.27C226.55,255.63,223.79,253.75,222.75,250.44ZM234.67,244a.21.21,0,0,0,.24-.24,6.74,6.74,0,0,0-.28-2.16,4.73,4.73,0,0,0-8.8,0,6.74,6.74,0,0,0-.28,2.16.21.21,0,0,0,.24.24Z"/><path d="M254.59,255.2a.38.38,0,0,1-.4-.41V243.6c0-3.08-1.4-4.88-4.28-4.88-2.6,0-4.4,1.84-4.4,4.68v11.39a.38.38,0,0,1-.4.41h-2.56a.38.38,0,0,1-.4-.41V236.44a.38.38,0,0,1,.4-.4h2.56a.38.38,0,0,1,.4.4v1.76h0a6.06,6.06,0,0,1,5.36-2.6c4.16,0,6.64,2.84,6.64,7.2v12a.38.38,0,0,1-.4.41Z"/><path d="M261.91,260a.36.36,0,0,1,0-.56l1.64-1.64a.37.37,0,0,1,.6,0,6.39,6.39,0,0,0,4.52,1.92c3.16,0,4.84-1.64,4.84-5.15v-2.24h0c-.88,1.6-2.52,2.64-5.32,2.64a6.28,6.28,0,0,1-6.44-4.64,20.17,20.17,0,0,1,0-10.08,6.28,6.28,0,0,1,6.44-4.64c2.8,0,4.44,1,5.32,2.64h0v-1.8a.38.38,0,0,1,.4-.4h2.56a.38.38,0,0,1,.4.4v17.92c0,5.43-3,8.47-8.36,8.47A8.66,8.66,0,0,1,261.91,260Zm11.2-11a11.65,11.65,0,0,0,.44-3.72,11.81,11.81,0,0,0-.44-3.72,4.32,4.32,0,0,0-8.12,0,12,12,0,0,0-.48,3.72A11.83,11.83,0,0,0,265,249a3.91,3.91,0,0,0,4,2.88A4,4,0,0,0,273.11,249Z"/><path d="M293.47,255.2a.38.38,0,0,1-.4-.41v-1.67h0c-.88,1.44-2.76,2.51-5.68,2.51-3.64,0-6.44-1.88-6.44-5.75,0-4,2.8-5.92,7.48-5.92h4.36a.21.21,0,0,0,.24-.24v-1.4c0-2.64-1-3.76-4.6-3.76a7.45,7.45,0,0,0-4.64,1.36c-.2.16-.44.16-.56,0L282.11,238a.42.42,0,0,1,.08-.56,10.63,10.63,0,0,1,6.52-1.88c5.44,0,7.52,1.8,7.52,6.52v12.67a.38.38,0,0,1-.4.41ZM293,249v-2.12a.21.21,0,0,0-.24-.24h-3.84c-3.32,0-4.76,1-4.76,3.12,0,2,1.44,3,4,3C291.15,252.76,293,251.36,293,249Z"/><path d="M320.63,255.2a.38.38,0,0,1-.4-.41v-1.67h0c-.88,1.44-2.76,2.51-5.68,2.51-3.64,0-6.44-1.88-6.44-5.75,0-4,2.8-5.92,7.48-5.92h4.36a.21.21,0,0,0,.24-.24v-1.4c0-2.64-1-3.76-4.6-3.76a7.45,7.45,0,0,0-4.64,1.36c-.2.16-.44.16-.56,0L309.27,238a.42.42,0,0,1,.08-.56,10.63,10.63,0,0,1,6.52-1.88c5.44,0,7.52,1.8,7.52,6.52v12.67a.38.38,0,0,1-.4.41Zm-.48-6.2v-2.12a.21.21,0,0,0-.24-.24h-3.84c-3.32,0-4.76,1-4.76,3.12,0,2,1.44,3,4,3C318.31,252.76,320.15,251.36,320.15,249Z"/><path d="M340.79,255.4c-3.36,0-4.68-1.61-4.68-5v-22a.38.38,0,0,1,.4-.4h2.56a.38.38,0,0,1,.4.4v21.76c0,1.6.6,2.12,1.92,2.12h.76a.38.38,0,0,1,.4.4V255a.38.38,0,0,1-.4.4Z"/><path d="M357.27,255.2a.38.38,0,0,1-.4-.41v-1.67h0c-.88,1.44-2.76,2.51-5.68,2.51-3.64,0-6.44-1.88-6.44-5.75,0-4,2.8-5.92,7.48-5.92h4.36a.21.21,0,0,0,.24-.24v-1.4c0-2.64-1-3.76-4.6-3.76a7.45,7.45,0,0,0-4.64,1.36c-.2.16-.44.16-.56,0L345.91,238a.42.42,0,0,1,.08-.56,10.63,10.63,0,0,1,6.52-1.88c5.44,0,7.52,1.8,7.52,6.52v12.67a.38.38,0,0,1-.4.41Zm-.48-6.2v-2.12a.21.21,0,0,0-.24-.24h-3.84c-3.32,0-4.76,1-4.76,3.12,0,2,1.44,3,4,3C355,252.76,356.79,251.36,356.79,249Z"/><path d="M397.31,255.2a.38.38,0,0,1-.4-.41V243.6c0-3.08-1.4-4.88-4.28-4.88a4.32,4.32,0,0,0-4.4,4.68v11.39a.38.38,0,0,1-.4.41h-2.56a.38.38,0,0,1-.4-.41V243.6c0-3.08-1.4-4.88-4.28-4.88-2.6,0-4.4,1.84-4.4,4.68v11.39a.38.38,0,0,1-.4.41h-2.56a.38.38,0,0,1-.4-.41V236.44a.38.38,0,0,1,.4-.4h2.56a.38.38,0,0,1,.4.4v1.76h0a6.77,6.77,0,0,1,11,.4h0a7.13,7.13,0,0,1,6.2-3c4.44,0,6.84,2.84,6.84,7.2v12a.38.38,0,0,1-.4.41Z"/><path d="M416.63,255.2a.38.38,0,0,1-.4-.41v-1.67h0c-.88,1.44-2.76,2.51-5.68,2.51-3.64,0-6.44-1.88-6.44-5.75,0-4,2.8-5.92,7.48-5.92h4.36a.21.21,0,0,0,.24-.24v-1.4c0-2.64-1-3.76-4.6-3.76a7.45,7.45,0,0,0-4.64,1.36c-.2.16-.44.16-.56,0L405.27,238a.42.42,0,0,1,.08-.56,10.63,10.63,0,0,1,6.52-1.88c5.44,0,7.52,1.8,7.52,6.52v12.67a.38.38,0,0,1-.4.41Zm-.48-6.2v-2.12a.21.21,0,0,0-.24-.24h-3.84c-3.32,0-4.76,1-4.76,3.12,0,2,1.44,3,4,3C414.31,252.76,416.15,251.36,416.15,249Z"/><path d="M436.63,255.2a.38.38,0,0,1-.4-.41V243.6c0-3.08-1.4-4.88-4.28-4.88-2.6,0-4.4,1.84-4.4,4.68v11.39a.38.38,0,0,1-.4.41h-2.56a.38.38,0,0,1-.4-.41V236.44a.38.38,0,0,1,.4-.4h2.56a.38.38,0,0,1,.4.4v1.76h0a6.06,6.06,0,0,1,5.36-2.6c4.16,0,6.64,2.84,6.64,7.2v12a.38.38,0,0,1-.4.41Z"/><path d="M443.83,250.48a18.77,18.77,0,0,1,0-9.72c1-3.28,3.84-5.16,7.56-5.16s6.52,1.88,7.56,5.16a18.77,18.77,0,0,1,0,9.72c-1,3.23-3.84,5.15-7.56,5.15S444.87,253.71,443.83,250.48Zm11.88-1a12.55,12.55,0,0,0,.44-3.92,12.27,12.27,0,0,0-.44-3.88,4.61,4.61,0,0,0-8.64,0,12.27,12.27,0,0,0-.44,3.88,12.55,12.55,0,0,0,.44,3.92,4.61,4.61,0,0,0,8.64,0Z"/><path d="M4.68,293.4c-3.36,0-4.68-1.61-4.68-5v-22a.38.38,0,0,1,.4-.4H3a.38.38,0,0,1,.4.4v21.76c0,1.6.6,2.12,1.92,2.12H6a.38.38,0,0,1,.4.4V293a.38.38,0,0,1-.4.4Z"/><path d="M21.16,293.2a.38.38,0,0,1-.4-.41v-1.67h0c-.88,1.44-2.76,2.51-5.68,2.51-3.64,0-6.44-1.88-6.44-5.75,0-4,2.8-5.92,7.48-5.92h4.36a.21.21,0,0,0,.24-.24v-1.4c0-2.64-1-3.76-4.6-3.76a7.45,7.45,0,0,0-4.64,1.36c-.2.16-.44.16-.56,0L9.8,276a.42.42,0,0,1,.08-.56,10.63,10.63,0,0,1,6.52-1.88c5.44,0,7.52,1.8,7.52,6.52v12.67a.38.38,0,0,1-.4.41Zm-.48-6.2v-2.12a.21.21,0,0,0-.24-.24H16.6c-3.32,0-4.76,1-4.76,3.12,0,2,1.44,3,4,3C18.84,290.76,20.68,289.36,20.68,287Z"/><path d="M27.4,290.76a.39.39,0,0,1,0-.56L29,288.44a.39.39,0,0,1,.56,0,9.31,9.31,0,0,0,5.92,2.2c2.8,0,4.2-1.2,4.2-2.92,0-1.52-.72-2.36-3.72-2.68l-2-.2c-3.76-.4-5.72-2.28-5.72-5.4,0-3.64,2.6-5.84,7.12-5.84a11.46,11.46,0,0,1,6.8,2.12.39.39,0,0,1,.08.56L40.88,278a.39.39,0,0,1-.56.08,10.09,10.09,0,0,0-5.16-1.56c-2.4,0-3.64,1.08-3.64,2.64s.92,2.32,3.76,2.6l2,.2c3.88.36,5.76,2.32,5.76,5.4,0,3.76-2.72,6.27-7.72,6.27A11.91,11.91,0,0,1,27.4,290.76Z"/><path d="M67.16,293.2a.38.38,0,0,1-.4-.41V281.6c0-3.08-1.4-4.88-4.28-4.88-2.6,0-4.4,1.84-4.4,4.68v11.39a.38.38,0,0,1-.4.41H55.12a.38.38,0,0,1-.4-.41V266.4a.38.38,0,0,1,.4-.4h2.56a.38.38,0,0,1,.4.4v9.8h0a6.06,6.06,0,0,1,5.36-2.6c4.16,0,6.64,2.84,6.64,7.2v12a.38.38,0,0,1-.4.41Z"/><path d="M74.36,288.44a15,15,0,0,1-.64-4.84,14.86,14.86,0,0,1,.6-4.84c1.08-3.32,3.88-5.16,7.52-5.16a7.42,7.42,0,0,1,7.52,5.16,16.72,16.72,0,0,1,.6,5.48.39.39,0,0,1-.44.4H77.4a.21.21,0,0,0-.24.24,7.18,7.18,0,0,0,.32,2.32,4.73,4.73,0,0,0,4.84,3.32,6.26,6.26,0,0,0,4.92-2.12.41.41,0,0,1,.6-.08l1.64,1.48a.36.36,0,0,1,0,.56A9.31,9.31,0,0,1,82,293.63C78.16,293.63,75.4,291.75,74.36,288.44ZM86.28,282a.21.21,0,0,0,.24-.24,6.74,6.74,0,0,0-.28-2.16,4.73,4.73,0,0,0-8.8,0,6.74,6.74,0,0,0-.28,2.16.21.21,0,0,0,.24.24Z"/><path d="M94.16,293.2a.38.38,0,0,1-.4-.41V274.44a.38.38,0,0,1,.4-.4h2.56a.38.38,0,0,1,.4.4v2h0a5.34,5.34,0,0,1,5.08-2.8,5.89,5.89,0,0,1,3.92,1.44c.2.2.24.36.08.56l-1.48,2a.36.36,0,0,1-.56.08,5.4,5.4,0,0,0-3-.92c-2.92,0-4.12,2.28-4.12,5.6v10.47a.38.38,0,0,1-.4.41Z"/><path d="M109,293.2a.38.38,0,0,1-.4-.41V274.44a.38.38,0,0,1,.4-.4h2.56a.38.38,0,0,1,.4.4v2h0a5.34,5.34,0,0,1,5.08-2.8A5.84,5.84,0,0,1,121,275c.2.2.24.36.08.56l-1.47,2a.36.36,0,0,1-.56.08,5.4,5.4,0,0,0-3-.92c-2.92,0-4.12,2.28-4.12,5.6v10.47a.38.38,0,0,1-.4.41Z"/><path d="M134,293.2a.38.38,0,0,1-.4-.41v-1.67h0c-.88,1.44-2.76,2.51-5.68,2.51-3.64,0-6.44-1.88-6.44-5.75,0-4,2.8-5.92,7.48-5.92h4.36a.21.21,0,0,0,.24-.24v-1.4c0-2.64-1-3.76-4.6-3.76a7.45,7.45,0,0,0-4.64,1.36c-.2.16-.44.16-.56,0L122.64,276a.42.42,0,0,1,.08-.56,10.63,10.63,0,0,1,6.52-1.88c5.44,0,7.51,1.8,7.51,6.52v12.67a.38.38,0,0,1-.4.41Zm-.48-6.2v-2.12a.21.21,0,0,0-.24-.24h-3.84c-3.32,0-4.76,1-4.76,3.12,0,2,1.44,3,4,3C131.68,290.76,133.52,289.36,133.52,287Z"/><path d="M166,293.2a.38.38,0,0,1-.4-.41V281.6c0-3.08-1.4-4.88-4.28-4.88a4.32,4.32,0,0,0-4.4,4.68v11.39a.38.38,0,0,1-.4.41H154a.38.38,0,0,1-.4-.41V281.6c0-3.08-1.4-4.88-4.27-4.88-2.6,0-4.4,1.84-4.4,4.68v11.39a.38.38,0,0,1-.4.41H142a.38.38,0,0,1-.4-.41V274.44a.38.38,0,0,1,.4-.4h2.56a.38.38,0,0,1,.4.4v1.76h0a6.76,6.76,0,0,1,10.95.4h0a7.13,7.13,0,0,1,6.2-3c4.44,0,6.84,2.84,6.84,7.2v12a.38.38,0,0,1-.4.41Z"/><path d="M174.08,269.72a.38.38,0,0,1-.4-.4V266.4a.38.38,0,0,1,.4-.4h2.72a.38.38,0,0,1,.4.4v2.92a.38.38,0,0,1-.4.4Zm.08,23.48a.38.38,0,0,1-.4-.41V274.44a.38.38,0,0,1,.4-.4h2.56a.38.38,0,0,1,.4.4v18.35a.38.38,0,0,1-.4.41Z"/><path d="M181.56,288.44a15,15,0,0,1-.64-4.84,14.86,14.86,0,0,1,.6-4.84c1.08-3.32,3.88-5.16,7.51-5.16a7.42,7.42,0,0,1,7.52,5.16,16.72,16.72,0,0,1,.6,5.48.39.39,0,0,1-.44.4H184.59a.22.22,0,0,0-.24.24,7.47,7.47,0,0,0,.32,2.32,4.73,4.73,0,0,0,4.84,3.32,6.26,6.26,0,0,0,4.92-2.12.41.41,0,0,1,.6-.08l1.64,1.48a.36.36,0,0,1,0,.56,9.31,9.31,0,0,1-7.48,3.27C185.35,293.63,182.6,291.75,181.56,288.44ZM193.47,282a.21.21,0,0,0,.24-.24,6.74,6.74,0,0,0-.28-2.16,4.73,4.73,0,0,0-8.8,0,7,7,0,0,0-.28,2.16.22.22,0,0,0,.24.24Z"/><path d="M213.39,293.2a.38.38,0,0,1-.4-.41V281.6c0-3.08-1.4-4.88-4.28-4.88-2.6,0-4.4,1.84-4.4,4.68v11.39a.38.38,0,0,1-.4.41h-2.56a.38.38,0,0,1-.4-.41V274.44a.38.38,0,0,1,.4-.4h2.56a.38.38,0,0,1,.4.4v1.76h0a6.06,6.06,0,0,1,5.36-2.6c4.16,0,6.64,2.84,6.64,7.2v12a.38.38,0,0,1-.4.41Z"/><path d="M226.67,293.4c-3.72,0-5.16-1.69-5.16-5.44V277c0-.16-.07-.24-.24-.24h-1.59a.38.38,0,0,1-.4-.4v-1.92a.38.38,0,0,1,.4-.4h1.59c.17,0,.24-.08.24-.24v-5.4a.38.38,0,0,1,.4-.4h2.56a.38.38,0,0,1,.4.4v5.4a.21.21,0,0,0,.24.24h3a.38.38,0,0,1,.4.4v1.92a.38.38,0,0,1-.4.4h-3a.21.21,0,0,0-.24.24v10.84c0,1.92.72,2.44,2.44,2.44h.84a.38.38,0,0,1,.4.4V293a.38.38,0,0,1-.4.4Z"/><path d="M243.75,293.2a.38.38,0,0,1-.4-.41v-1.67h0c-.88,1.44-2.76,2.51-5.68,2.51-3.64,0-6.44-1.88-6.44-5.75,0-4,2.8-5.92,7.48-5.92H243a.21.21,0,0,0,.24-.24v-1.4c0-2.64-1-3.76-4.6-3.76a7.45,7.45,0,0,0-4.64,1.36c-.2.16-.44.16-.56,0L232.39,276a.42.42,0,0,1,.08-.56A10.63,10.63,0,0,1,239,273.6c5.44,0,7.52,1.8,7.52,6.52v12.67a.38.38,0,0,1-.4.41Zm-.48-6.2v-2.12a.21.21,0,0,0-.24-.24h-3.84c-3.32,0-4.76,1-4.76,3.12,0,2,1.44,3,4,3C241.43,290.76,243.27,289.36,243.27,287Z"/><path d="M250,290.76a.39.39,0,0,1,0-.56l1.64-1.76a.39.39,0,0,1,.56,0,9.31,9.31,0,0,0,5.92,2.2c2.8,0,4.2-1.2,4.2-2.92,0-1.52-.72-2.36-3.72-2.68l-2-.2c-3.76-.4-5.72-2.28-5.72-5.4,0-3.64,2.6-5.84,7.12-5.84a11.46,11.46,0,0,1,6.8,2.12.39.39,0,0,1,.08.56L263.47,278a.39.39,0,0,1-.56.08,10.09,10.09,0,0,0-5.16-1.56c-2.4,0-3.64,1.08-3.64,2.64s.92,2.32,3.76,2.6l2,.2c3.88.36,5.76,2.32,5.76,5.4,0,3.76-2.72,6.27-7.72,6.27A11.91,11.91,0,0,1,250,290.76Z"/><path d="M288.91,293.2a.38.38,0,0,1-.4-.41v-1.67h0c-.88,1.44-2.76,2.51-5.68,2.51-3.64,0-6.44-1.88-6.44-5.75,0-4,2.8-5.92,7.48-5.92h4.36a.21.21,0,0,0,.24-.24v-1.4c0-2.64-1-3.76-4.6-3.76a7.45,7.45,0,0,0-4.64,1.36c-.2.16-.44.16-.56,0L277.55,276a.42.42,0,0,1,.08-.56,10.63,10.63,0,0,1,6.52-1.88c5.44,0,7.52,1.8,7.52,6.52v12.67a.38.38,0,0,1-.4.41Zm-.48-6.2v-2.12a.21.21,0,0,0-.24-.24h-3.84c-3.32,0-4.76,1-4.76,3.12,0,2,1.44,3,4,3C286.59,290.76,288.43,289.36,288.43,287Z"/><path d="M308.47,293.2a.38.38,0,0,1-.4-.41V291h0c-.92,1.52-2.56,2.67-5.44,2.67-3.32,0-5.64-1.55-6.6-4.59a21.94,21.94,0,0,1,0-10.84c1-3,3.28-4.6,6.6-4.6,2.88,0,4.52,1.12,5.44,2.64h0V266.4a.38.38,0,0,1,.4-.4H311a.38.38,0,0,1,.4.4v26.39a.38.38,0,0,1-.4.41Zm-.84-5.6a12.31,12.31,0,0,0,.44-4,12.47,12.47,0,0,0-.44-4,4.53,4.53,0,0,0-8.44,0,13.63,13.63,0,0,0-.44,4,13.29,13.29,0,0,0,.44,4,4.51,4.51,0,0,0,8.44,0Z"/><path d="M315.87,288.44a15,15,0,0,1-.64-4.84,14.86,14.86,0,0,1,.6-4.84c1.08-3.32,3.88-5.16,7.52-5.16a7.42,7.42,0,0,1,7.52,5.16,16.72,16.72,0,0,1,.6,5.48.39.39,0,0,1-.44.4H318.91a.21.21,0,0,0-.24.24,7.18,7.18,0,0,0,.32,2.32,4.73,4.73,0,0,0,4.84,3.32,6.26,6.26,0,0,0,4.92-2.12.41.41,0,0,1,.6-.08L331,289.8a.36.36,0,0,1,0,.56,9.31,9.31,0,0,1-7.48,3.27C319.67,293.63,316.91,291.75,315.87,288.44ZM327.79,282a.21.21,0,0,0,.24-.24,6.74,6.74,0,0,0-.28-2.16,4.73,4.73,0,0,0-8.8,0,6.74,6.74,0,0,0-.28,2.16.21.21,0,0,0,.24.24Z"/><path d="M334.71,278.76c1.08-3.32,3.88-5.16,7.56-5.16a7.68,7.68,0,0,1,6.56,3.24c.12.2.12.36-.12.56L347,278.84a.36.36,0,0,1-.56,0,4.71,4.71,0,0,0-4.12-2.08,4.16,4.16,0,0,0-4.28,3,17.5,17.5,0,0,0,0,7.8,4.16,4.16,0,0,0,4.28,3,4.71,4.71,0,0,0,4.12-2.08.36.36,0,0,1,.56,0l1.76,1.44c.24.2.24.36.12.56a7.67,7.67,0,0,1-6.56,3.23c-3.68,0-6.48-1.84-7.56-5.15a20,20,0,0,1,0-9.72Z"/><path d="M364.59,293.2a.38.38,0,0,1-.4-.41V291h0a5.86,5.86,0,0,1-5.24,2.63c-4.2,0-6.64-2.87-6.64-7.23v-12a.38.38,0,0,1,.4-.4h2.56a.38.38,0,0,1,.4.4V285.6c0,3.12,1.4,4.92,4.24,4.92,2.6,0,4.32-1.84,4.32-4.72V274.44a.38.38,0,0,1,.4-.4h2.56a.38.38,0,0,1,.4.4v18.35a.38.38,0,0,1-.4.41Z"/><path d="M384.11,293.2a.38.38,0,0,1-.4-.41v-1.67h0c-.88,1.44-2.76,2.51-5.68,2.51-3.64,0-6.44-1.88-6.44-5.75,0-4,2.8-5.92,7.48-5.92h4.36a.21.21,0,0,0,.24-.24v-1.4c0-2.64-1-3.76-4.6-3.76a7.45,7.45,0,0,0-4.64,1.36c-.2.16-.44.16-.56,0L372.75,276a.42.42,0,0,1,.08-.56,10.63,10.63,0,0,1,6.52-1.88c5.44,0,7.52,1.8,7.52,6.52v12.67a.38.38,0,0,1-.4.41Zm-.48-6.2v-2.12a.21.21,0,0,0-.24-.24h-3.84c-3.32,0-4.76,1-4.76,3.12,0,2,1.44,3,4,3C381.79,290.76,383.63,289.36,383.63,287Z"/><path d="M403.67,293.2a.38.38,0,0,1-.4-.41V291h0c-.92,1.52-2.56,2.67-5.44,2.67-3.32,0-5.64-1.55-6.6-4.59a21.94,21.94,0,0,1,0-10.84c1-3,3.28-4.6,6.6-4.6,2.88,0,4.52,1.12,5.44,2.64h0V266.4a.38.38,0,0,1,.4-.4h2.56a.38.38,0,0,1,.4.4v26.39a.38.38,0,0,1-.4.41Zm-.84-5.6a12.31,12.31,0,0,0,.44-4,12.47,12.47,0,0,0-.44-4,4.53,4.53,0,0,0-8.44,0,13.63,13.63,0,0,0-.44,4,13.29,13.29,0,0,0,.44,4,4.51,4.51,0,0,0,8.44,0Z"/><path d="M423.19,293.2a.38.38,0,0,1-.4-.41v-1.67h0c-.88,1.44-2.76,2.51-5.68,2.51-3.64,0-6.44-1.88-6.44-5.75,0-4,2.8-5.92,7.48-5.92h4.36a.21.21,0,0,0,.24-.24v-1.4c0-2.64-1-3.76-4.6-3.76a7.45,7.45,0,0,0-4.64,1.36c-.2.16-.44.16-.56,0L411.83,276a.42.42,0,0,1,.08-.56,10.63,10.63,0,0,1,6.52-1.88c5.44,0,7.52,1.8,7.52,6.52v12.67a.38.38,0,0,1-.4.41Zm-.48-6.2v-2.12a.21.21,0,0,0-.24-.24h-3.84c-3.32,0-4.76,1-4.76,3.12,0,2,1.44,3,4,3C420.87,290.76,422.71,289.36,422.71,287Z"/><path d="M429.43,290.76a.39.39,0,0,1,0-.56l1.64-1.76a.39.39,0,0,1,.56,0,9.31,9.31,0,0,0,5.92,2.2c2.8,0,4.2-1.2,4.2-2.92,0-1.52-.72-2.36-3.72-2.68l-2-.2c-3.76-.4-5.72-2.28-5.72-5.4,0-3.64,2.6-5.84,7.12-5.84a11.46,11.46,0,0,1,6.8,2.12.39.39,0,0,1,.08.56L442.91,278a.39.39,0,0,1-.56.08,10.09,10.09,0,0,0-5.16-1.56c-2.4,0-3.64,1.08-3.64,2.64s.92,2.32,3.76,2.6l2,.2c3.88.36,5.76,2.32,5.76,5.4,0,3.76-2.72,6.27-7.72,6.27A11.91,11.91,0,0,1,429.43,290.76Z"/><path d="M456.91,300.39a.38.38,0,0,1-.4-.4v-2.32a.38.38,0,0,1,.4-.4h.72c1.56,0,2.4-.68,3.24-2.88l.64-1.76-7-18.19c-.08-.24,0-.4.32-.4h2.8a.47.47,0,0,1,.48.4l5,13.84h.08L468,274.44a.47.47,0,0,1,.48-.4h2.72c.24,0,.4.16.32.4L464,294.67c-1.68,4.52-3.16,5.72-6,5.72Z"/><path d="M103.52,331.4c-3.72,0-5.16-1.69-5.16-5.44V315a.21.21,0,0,0-.24-.24h-1.6a.38.38,0,0,1-.4-.4v-1.92a.38.38,0,0,1,.4-.4h1.6a.21.21,0,0,0,.24-.24v-5.4a.38.38,0,0,1,.4-.4h2.56a.38.38,0,0,1,.4.4v5.4a.21.21,0,0,0,.24.24h3a.38.38,0,0,1,.4.4v1.92a.38.38,0,0,1-.4.4h-3a.21.21,0,0,0-.24.24v10.84c0,1.92.72,2.44,2.44,2.44H105a.38.38,0,0,1,.4.4V331a.38.38,0,0,1-.4.4Z"/><path d="M109.4,331.2a.38.38,0,0,1-.4-.41V312.44a.38.38,0,0,1,.4-.4H112a.38.38,0,0,1,.4.4v2h0a5.34,5.34,0,0,1,5.08-2.8A5.89,5.89,0,0,1,121.4,313c.2.2.24.36.08.56l-1.48,2a.36.36,0,0,1-.56.08,5.4,5.4,0,0,0-3-.92c-2.92,0-4.12,2.28-4.12,5.6v10.47a.38.38,0,0,1-.4.41Z"/><path d="M134.44,331.2a.38.38,0,0,1-.4-.41v-1.67h0c-.88,1.44-2.76,2.51-5.68,2.51-3.64,0-6.44-1.88-6.44-5.75,0-4,2.8-5.92,7.48-5.92h4.36a.21.21,0,0,0,.24-.24v-1.4c0-2.64-1-3.76-4.6-3.76a7.45,7.45,0,0,0-4.64,1.36c-.2.16-.44.16-.56,0L123.08,314a.42.42,0,0,1,.08-.56,10.63,10.63,0,0,1,6.52-1.88c5.44,0,7.52,1.8,7.52,6.52v12.67a.38.38,0,0,1-.4.41ZM134,325v-2.12a.21.21,0,0,0-.24-.24h-3.84c-3.32,0-4.76,1-4.76,3.12,0,2,1.44,3,4,3C132.12,328.76,134,327.36,134,325Z"/><path d="M142.4,331.2a.38.38,0,0,1-.4-.41V304.4a.38.38,0,0,1,.4-.4H145a.38.38,0,0,1,.4.4v9.84h0c.92-1.52,2.56-2.64,5.44-2.64,3.32,0,5.64,1.56,6.6,4.6a21.94,21.94,0,0,1,0,10.84c-1,3-3.28,4.59-6.6,4.59-2.88,0-4.52-1.15-5.44-2.67h0v1.83a.38.38,0,0,1-.4.41Zm11.84-5.6a13.29,13.29,0,0,0,.44-4,13.63,13.63,0,0,0-.44-4,4.53,4.53,0,0,0-8.44,0,12.47,12.47,0,0,0-.44,4,12.31,12.31,0,0,0,.44,4,4.51,4.51,0,0,0,8.44,0Z"/><path d="M173.52,331.2a.38.38,0,0,1-.4-.41v-1.67h0c-.88,1.44-2.76,2.51-5.68,2.51-3.64,0-6.44-1.88-6.44-5.75,0-4,2.8-5.92,7.48-5.92h4.36a.21.21,0,0,0,.24-.24v-1.4c0-2.64-1-3.76-4.6-3.76a7.45,7.45,0,0,0-4.64,1.36c-.2.16-.44.16-.56,0L162.16,314a.42.42,0,0,1,.08-.56,10.63,10.63,0,0,1,6.52-1.88c5.44,0,7.51,1.8,7.51,6.52v12.67a.38.38,0,0,1-.39.41ZM173,325v-2.12a.21.21,0,0,0-.24-.24H169c-3.32,0-4.76,1-4.76,3.12,0,2,1.44,3,4,3C171.2,328.76,173,327.36,173,325Z"/><path d="M177.92,338.39a.38.38,0,0,1-.4-.4v-2.32a.38.38,0,0,1,.4-.4h.64c1.88,0,2.52-.52,2.52-2.56V312.44a.38.38,0,0,1,.4-.4H184a.38.38,0,0,1,.4.4v20.19c0,4.12-1.84,5.76-5.72,5.76Zm3.48-30.67a.38.38,0,0,1-.4-.4V304.4a.38.38,0,0,1,.4-.4h2.72a.38.38,0,0,1,.4.4v2.92a.38.38,0,0,1-.4.4Z"/><path d="M188.88,326.44a15,15,0,0,1-.64-4.84,14.86,14.86,0,0,1,.6-4.84c1.08-3.32,3.88-5.16,7.51-5.16a7.42,7.42,0,0,1,7.52,5.16,16.72,16.72,0,0,1,.6,5.48.39.39,0,0,1-.44.4H191.92a.21.21,0,0,0-.24.24,7.18,7.18,0,0,0,.32,2.32,4.73,4.73,0,0,0,4.83,3.32,6.26,6.26,0,0,0,4.92-2.12.41.41,0,0,1,.6-.08L204,327.8a.36.36,0,0,1,0,.56,9.3,9.3,0,0,1-7.47,3.27C192.68,331.63,189.92,329.75,188.88,326.44ZM200.79,320a.21.21,0,0,0,.24-.24,6.74,6.74,0,0,0-.28-2.16,4.72,4.72,0,0,0-8.79,0,6.74,6.74,0,0,0-.28,2.16.21.21,0,0,0,.24.24Z"/><path d="M215.76,326.44a15,15,0,0,1-.64-4.84,14.86,14.86,0,0,1,.6-4.84c1.08-3.32,3.88-5.16,7.51-5.16a7.42,7.42,0,0,1,7.52,5.16,16.72,16.72,0,0,1,.6,5.48.39.39,0,0,1-.44.4H218.8a.21.21,0,0,0-.24.24,7.18,7.18,0,0,0,.32,2.32,4.72,4.72,0,0,0,4.83,3.32,6.26,6.26,0,0,0,4.92-2.12.41.41,0,0,1,.6-.08l1.64,1.48a.36.36,0,0,1,0,.56,9.3,9.3,0,0,1-7.47,3.27C219.56,331.63,216.8,329.75,215.76,326.44ZM227.67,320a.21.21,0,0,0,.24-.24,6.74,6.74,0,0,0-.28-2.16,4.72,4.72,0,0,0-8.79,0,6.74,6.74,0,0,0-.28,2.16.21.21,0,0,0,.24.24Z"/><path d="M247.59,331.2a.38.38,0,0,1-.4-.41V319.6c0-3.08-1.4-4.88-4.28-4.88-2.6,0-4.4,1.84-4.4,4.68v11.39a.38.38,0,0,1-.4.41h-2.55a.38.38,0,0,1-.4-.41V312.44a.38.38,0,0,1,.4-.4h2.55a.38.38,0,0,1,.4.4v1.76h0a6.06,6.06,0,0,1,5.36-2.6c4.16,0,6.64,2.84,6.64,7.2v12a.38.38,0,0,1-.4.41Z"/><path d="M262.79,326.44a15,15,0,0,1-.64-4.84,14.86,14.86,0,0,1,.6-4.84c1.08-3.32,3.88-5.16,7.52-5.16a7.42,7.42,0,0,1,7.52,5.16,16.72,16.72,0,0,1,.6,5.48.39.39,0,0,1-.44.4H265.83a.21.21,0,0,0-.24.24,7.18,7.18,0,0,0,.32,2.32,4.73,4.73,0,0,0,4.84,3.32,6.26,6.26,0,0,0,4.92-2.12.41.41,0,0,1,.6-.08l1.64,1.48a.36.36,0,0,1,0,.56,9.31,9.31,0,0,1-7.48,3.27C266.59,331.63,263.83,329.75,262.79,326.44ZM274.71,320a.21.21,0,0,0,.24-.24,6.74,6.74,0,0,0-.28-2.16,4.73,4.73,0,0,0-8.8,0,6.74,6.74,0,0,0-.28,2.16.21.21,0,0,0,.24.24Z"/><path d="M294.19,338.39a.38.38,0,0,1-.4-.4v-9h0c-.92,1.52-2.56,2.67-5.44,2.67-3.32,0-5.64-1.55-6.6-4.59a21.94,21.94,0,0,1,0-10.84c1-3,3.28-4.6,6.6-4.6,2.88,0,4.52,1.12,5.44,2.64h0v-1.8a.38.38,0,0,1,.4-.4h2.56a.38.38,0,0,1,.4.4V338a.38.38,0,0,1-.4.4Zm-.84-12.79a12.31,12.31,0,0,0,.44-4,12.47,12.47,0,0,0-.44-4,4.53,4.53,0,0,0-8.44,0,13.63,13.63,0,0,0-.44,4,13.29,13.29,0,0,0,.44,4,4.51,4.51,0,0,0,8.44,0Z"/><path d="M314.15,331.2a.38.38,0,0,1-.4-.41V329h0a5.86,5.86,0,0,1-5.24,2.63c-4.2,0-6.64-2.87-6.64-7.23v-12a.38.38,0,0,1,.4-.4h2.56a.38.38,0,0,1,.4.4V323.6c0,3.12,1.4,4.92,4.24,4.92,2.6,0,4.32-1.84,4.32-4.72V312.44a.38.38,0,0,1,.4-.4h2.56a.38.38,0,0,1,.4.4v18.35a.38.38,0,0,1-.4.41Z"/><path d="M322.39,307.72a.38.38,0,0,1-.4-.4V304.4a.38.38,0,0,1,.4-.4h2.72a.38.38,0,0,1,.4.4v2.92a.38.38,0,0,1-.4.4Zm.08,23.48a.38.38,0,0,1-.4-.41V312.44a.38.38,0,0,1,.4-.4H325a.38.38,0,0,1,.4.4v18.35a.38.38,0,0,1-.4.41Z"/><path d="M330.79,338.39a.38.38,0,0,1-.4-.4V312.44a.38.38,0,0,1,.4-.4h2.56a.38.38,0,0,1,.4.4v1.8h0c.92-1.52,2.56-2.64,5.44-2.64,3.32,0,5.64,1.56,6.6,4.6a21.94,21.94,0,0,1,0,10.84c-1,3-3.28,4.59-6.6,4.59-2.88,0-4.52-1.15-5.44-2.67h0v9a.38.38,0,0,1-.4.4Zm11.84-12.79a13.29,13.29,0,0,0,.44-4,13.63,13.63,0,0,0-.44-4,4.53,4.53,0,0,0-8.44,0,12.47,12.47,0,0,0-.44,4,12.31,12.31,0,0,0,.44,4,4.51,4.51,0,0,0,8.44,0Z"/><path d="M349.79,326.48a18.77,18.77,0,0,1,0-9.72c1-3.28,3.84-5.16,7.56-5.16s6.52,1.88,7.56,5.16a18.77,18.77,0,0,1,0,9.72c-1,3.23-3.84,5.15-7.56,5.15S350.83,329.71,349.79,326.48Zm11.88-1a12.55,12.55,0,0,0,.44-3.92,12.27,12.27,0,0,0-.44-3.88,4.61,4.61,0,0,0-8.64,0,12.27,12.27,0,0,0-.44,3.88,12.55,12.55,0,0,0,.44,3.92,4.61,4.61,0,0,0,8.64,0Z"/><path d="M368.87,327.36a.38.38,0,0,1,.4-.4h3a.38.38,0,0,1,.4.4v3.43a.38.38,0,0,1-.4.41h-3a.38.38,0,0,1-.4-.41Z"/></g></g></svg>