<svg xmlns="http://www.w3.org/2000/svg" viewBox="0 0 459.58 366.23"><defs><style>.cls-1{font-size:40px;font-family:DINNextLTPro-Medium, DIN Next LT Pro;font-weight:500;letter-spacing:-0.06em;}.cls-2{letter-spacing:-0.07em;}.cls-3{letter-spacing:-0.08em;}.cls-4{letter-spacing:-0.15em;}.cls-5{letter-spacing:-0.08em;}.cls-6{letter-spacing:-0.08em;}.cls-7{letter-spacing:-0.06em;}.cls-8{letter-spacing:-0.08em;}.cls-9{letter-spacing:-0.07em;}.cls-10{letter-spacing:-0.07em;}.cls-11{letter-spacing:-0.08em;}</style></defs><title>r12</title><g id="Capa_2" data-name="Capa 2"><g id="fondo"><text class="cls-1" transform="translate(6.41 33.6)">Disponga de forma adecuada <tspan x="0.04" y="38">los </tspan><tspan class="cls-2" x="52.36" y="38">r</tspan><tspan x="66.48" y="38">esiduos gene</tspan><tspan class="cls-3" x="267.64" y="38">r</tspan><tspan x="281.44" y="38">ados en su </tspan><tspan x="30.52" y="76">labo</tspan><tspan class="cls-4" x="96.2" y="76">r</tspan><tspan class="cls-5" x="106.92" y="76">,</tspan><tspan x="113.6" y="76" xml:space="preserve"> tenga en cuenta los </tspan><tspan x="42.34" y="114">códigos de colo</tspan><tspan class="cls-2" x="274.66" y="114">r</tspan><tspan x="288.77" y="114">es pa</tspan><tspan class="cls-6" x="369.69" y="114">r</tspan><tspan class="cls-7" x="383.49" y="114">a </tspan><tspan x="42.68" y="152">depositar los dife</tspan><tspan class="cls-2" x="303.2" y="152">r</tspan><tspan x="317.31" y="152">entes </tspan><tspan x="15.2" y="190">desechos</tspan><tspan class="cls-8" x="161.16" y="190">.</tspan><tspan x="168.08" y="190" xml:space="preserve"> La fa</tspan><tspan class="cls-9" x="249.32" y="190">l</tspan><tspan x="258.24" y="190">ta de o</tspan><tspan class="cls-10" x="357.63" y="190">r</tspan><tspan x="371.79" y="190">den </tspan><tspan x="13.06" y="228">en el t</tspan><tspan class="cls-3" x="103.22" y="228">r</tspan><tspan x="117.02" y="228">abajo puede gene</tspan><tspan class="cls-11" x="384.45" y="228">r</tspan><tspan x="398.25" y="228">ar </tspan><tspan x="34.22" y="266">t</tspan><tspan class="cls-2" x="44.66" y="266">r</tspan><tspan class="cls-7" x="58.78" y="266">opiezos</tspan><tspan class="cls-8" x="176.1" y="266">,</tspan><tspan x="182.78" y="266" xml:space="preserve"> golpes</tspan><tspan class="cls-5" x="291.98" y="266">,</tspan><tspan x="298.65" y="266"> </tspan><tspan class="cls-6" x="305.69" y="266">c</tspan><tspan x="321.57" y="266">aidas</tspan><tspan class="cls-8" x="403.45" y="266">,</tspan><tspan x="410.13" y="266"> </tspan><tspan x="80.28" y="304">cortes</tspan><tspan class="cls-8" x="176.32" y="304">,</tspan><tspan class="cls-7" x="183" y="304" xml:space="preserve"> ent</tspan><tspan class="cls-2" x="238.44" y="304">r</tspan><tspan class="cls-7" x="252.56" y="304">e ot</tspan><tspan class="cls-2" x="306.99" y="304">r</tspan><tspan class="cls-7" x="321.11" y="304">os</tspan><tspan class="cls-8" x="357.15" y="304">.</tspan></text></g></g></svg>