<svg xmlns="http://www.w3.org/2000/svg" viewBox="0 0 610.55 144.96"><defs><style>.cls-1{fill:#4d4d4d;}</style></defs><title>r13</title><g id="Capa_2" data-name="Capa 2"><g id="control_vector" data-name="control vector"><path class="cls-1" d="M0,.36A.34.34,0,0,1,.36,0H2.7a.56.56,0,0,1,.58.36l7.3,16.49h.11L17.85.36A.56.56,0,0,1,18.43,0h2.34a.34.34,0,0,1,.36.36V24.12a.34.34,0,0,1-.36.36H18.5a.35.35,0,0,1-.36-.36v-17H18L12,20.55a.61.61,0,0,1-.65.44H9.86a.63.63,0,0,1-.68-.44L3.1,7.09H3v17a.35.35,0,0,1-.36.36H.36A.34.34,0,0,1,0,24.12Z"/><path class="cls-1" d="M36.83,24.48a.34.34,0,0,1-.36-.36V22.61h0c-.79,1.29-2.48,2.26-5.11,2.26-3.28,0-5.8-1.69-5.8-5.18,0-3.64,2.52-5.33,6.73-5.33h3.93a.19.19,0,0,0,.21-.21V12.89c0-2.38-.93-3.39-4.14-3.39a6.7,6.7,0,0,0-4.17,1.23c-.18.14-.4.14-.5,0L26.6,9a.39.39,0,0,1,.08-.51,9.53,9.53,0,0,1,5.86-1.69c4.9,0,6.77,1.62,6.77,5.87V24.12a.34.34,0,0,1-.36.36Zm-.44-5.58V17a.19.19,0,0,0-.21-.22H32.72c-3,0-4.28.87-4.28,2.81,0,1.77,1.3,2.7,3.6,2.7C34.74,22.28,36.39,21,36.39,18.9Z"/><path class="cls-1" d="M55.55,24.48a.34.34,0,0,1-.36-.36V14c0-2.77-1.26-4.39-3.86-4.39a3.86,3.86,0,0,0-3.95,4.21V24.12a.35.35,0,0,1-.36.36H44.71a.35.35,0,0,1-.36-.36V7.59a.34.34,0,0,1,.36-.35H47a.34.34,0,0,1,.36.35V9.18h0a5.45,5.45,0,0,1,4.82-2.34c3.75,0,6,2.55,6,6.48v10.8a.34.34,0,0,1-.36.36Z"/><path class="cls-1" d="M68.22,24.66c-3.35,0-4.64-1.52-4.64-4.9V9.9a.2.2,0,0,0-.22-.22H61.92a.34.34,0,0,1-.36-.36V7.59a.33.33,0,0,1,.36-.35h1.44A.2.2,0,0,0,63.58,7V2.16a.34.34,0,0,1,.36-.36h2.3a.34.34,0,0,1,.36.36V7a.19.19,0,0,0,.21.22h2.74a.33.33,0,0,1,.36.35V9.32a.34.34,0,0,1-.36.36H66.81c-.14,0-.21.07-.21.22v9.75c0,1.73.65,2.2,2.19,2.2h.76a.34.34,0,0,1,.36.36V24.3a.34.34,0,0,1-.36.36Z"/><path class="cls-1" d="M73.4,20.19a13.48,13.48,0,0,1-.57-4.35,13.43,13.43,0,0,1,.54-4.36,6.67,6.67,0,0,1,6.76-4.64,6.67,6.67,0,0,1,6.77,4.64,15.08,15.08,0,0,1,.54,4.93c0,.22-.14.36-.4.36H76.14a.2.2,0,0,0-.22.22,6.47,6.47,0,0,0,.29,2.09,4.26,4.26,0,0,0,4.36,3A5.61,5.61,0,0,0,85,20.16c.18-.18.36-.22.54-.08L87,21.42a.31.31,0,0,1,0,.5,8.35,8.35,0,0,1-6.73,2.95C76.82,24.87,74.34,23.18,73.4,20.19Zm10.73-5.83a.19.19,0,0,0,.22-.21,6.05,6.05,0,0,0-.26-2,4.25,4.25,0,0,0-7.92,0,6.37,6.37,0,0,0-.25,2,.19.19,0,0,0,.22.21Z"/><path class="cls-1" d="M102.78,24.48a.34.34,0,0,1-.36-.36V14c0-2.77-1.26-4.39-3.85-4.39a3.87,3.87,0,0,0-4,4.21V24.12a.35.35,0,0,1-.36.36H91.94a.35.35,0,0,1-.36-.36V7.59a.34.34,0,0,1,.36-.35h2.31a.34.34,0,0,1,.36.35V9.18h0a5.47,5.47,0,0,1,4.83-2.34c3.74,0,6,2.55,6,6.48v10.8a.34.34,0,0,1-.36.36Z"/><path class="cls-1" d="M110.09,28.8a.33.33,0,0,1,0-.51l1.48-1.47a.34.34,0,0,1,.54,0,5.75,5.75,0,0,0,4.07,1.72c2.84,0,4.35-1.47,4.35-4.64v-2h0c-.8,1.45-2.27,2.38-4.79,2.38a5.65,5.65,0,0,1-5.8-4.18,13.5,13.5,0,0,1-.57-4.53,13.6,13.6,0,0,1,.57-4.54,5.65,5.65,0,0,1,5.8-4.17c2.52,0,4,.94,4.79,2.37h0V7.59a.34.34,0,0,1,.36-.35h2.3a.33.33,0,0,1,.36.35V23.72c0,4.9-2.66,7.63-7.52,7.63A7.78,7.78,0,0,1,110.09,28.8Zm10.08-9.9a10.77,10.77,0,0,0,.39-3.35,10.89,10.89,0,0,0-.39-3.35,3.89,3.89,0,0,0-7.31,0,10.78,10.78,0,0,0-.43,3.35,10.65,10.65,0,0,0,.43,3.35,3.51,3.51,0,0,0,3.63,2.59A3.58,3.58,0,0,0,120.17,18.9Z"/><path class="cls-1" d="M139.21,24.48a.34.34,0,0,1-.36-.36V22.61h0c-.79,1.29-2.48,2.26-5.11,2.26-3.27,0-5.79-1.69-5.79-5.18,0-3.64,2.52-5.33,6.73-5.33h3.92c.15,0,.22-.07.22-.21V12.89c0-2.38-.94-3.39-4.14-3.39a6.71,6.71,0,0,0-4.18,1.23.32.32,0,0,1-.5,0L129,9a.38.38,0,0,1,.07-.51,9.54,9.54,0,0,1,5.87-1.69c4.89,0,6.76,1.62,6.76,5.87V24.12a.34.34,0,0,1-.36.36Zm-.43-5.58V17a.2.2,0,0,0-.22-.22h-3.45c-3,0-4.29.87-4.29,2.81,0,1.77,1.3,2.7,3.6,2.7C137.12,22.28,138.78,21,138.78,18.9Z"/><path class="cls-1" d="M162.11,20.19a13.43,13.43,0,0,1-.58-4.35,13.43,13.43,0,0,1,.54-4.36,7.25,7.25,0,0,1,13.53,0,15.08,15.08,0,0,1,.54,4.93.35.35,0,0,1-.39.36H164.84a.19.19,0,0,0-.21.22,6.5,6.5,0,0,0,.28,2.09,4.27,4.27,0,0,0,4.36,3,5.65,5.65,0,0,0,4.43-1.91c.18-.18.36-.22.54-.08l1.47,1.34a.32.32,0,0,1,0,.5A8.38,8.38,0,0,1,169,24.87C165.53,24.87,163,23.18,162.11,20.19Zm10.72-5.83c.15,0,.22-.07.22-.21a6.08,6.08,0,0,0-.25-2,4.25,4.25,0,0,0-7.92,0,6.08,6.08,0,0,0-.25,2,.19.19,0,0,0,.21.21Z"/><path class="cls-1" d="M184.42,24.66c-3,0-4.21-1.44-4.21-4.54V.36a.34.34,0,0,1,.36-.36h2.31a.34.34,0,0,1,.36.36V19.94c0,1.44.54,1.91,1.72,1.91h.69a.34.34,0,0,1,.36.36V24.3a.35.35,0,0,1-.36.36Z"/><path class="cls-1" d="M196.27,22.28a.35.35,0,0,1,0-.5l1.47-1.59a.36.36,0,0,1,.51,0,8.34,8.34,0,0,0,5.33,2c2.52,0,3.78-1.08,3.78-2.63,0-1.36-.65-2.12-3.35-2.41L202.17,17c-3.38-.36-5.15-2-5.15-4.86,0-3.27,2.34-5.25,6.41-5.25a10.32,10.32,0,0,1,6.12,1.91.34.34,0,0,1,.07.5L208.4,10.8a.36.36,0,0,1-.51.07,9,9,0,0,0-4.64-1.4c-2.16,0-3.27,1-3.27,2.37s.82,2.09,3.38,2.34l1.8.18c3.49.33,5.18,2.09,5.18,4.86,0,3.39-2.45,5.65-6.94,5.65A10.73,10.73,0,0,1,196.27,22.28Z"/><path class="cls-1" d="M214.66,3.35A.35.35,0,0,1,214.3,3V.36a.34.34,0,0,1,.36-.36h2.45a.34.34,0,0,1,.36.36V3a.34.34,0,0,1-.36.36Zm.08,21.13a.34.34,0,0,1-.36-.36V7.59a.33.33,0,0,1,.36-.35H217a.33.33,0,0,1,.36.35V24.12a.34.34,0,0,1-.36.36Z"/><path class="cls-1" d="M227.59,24.66c-3.35,0-4.65-1.52-4.65-4.9V9.9c0-.15-.07-.22-.21-.22h-1.44a.34.34,0,0,1-.36-.36V7.59a.33.33,0,0,1,.36-.35h1.44a.19.19,0,0,0,.21-.22V2.16a.34.34,0,0,1,.36-.36h2.31a.34.34,0,0,1,.36.36V7a.19.19,0,0,0,.21.22h2.74a.34.34,0,0,1,.36.35V9.32a.34.34,0,0,1-.36.36h-2.74c-.14,0-.21.07-.21.22v9.75c0,1.73.65,2.2,2.19,2.2h.76a.34.34,0,0,1,.36.36V24.3a.35.35,0,0,1-.36.36Z"/><path class="cls-1" d="M233.53,3.35a.34.34,0,0,1-.36-.36V.36a.34.34,0,0,1,.36-.36H236a.34.34,0,0,1,.36.36V3a.34.34,0,0,1-.36.36Zm.07,21.13a.34.34,0,0,1-.36-.36V7.59a.33.33,0,0,1,.36-.35h2.3a.33.33,0,0,1,.36.35V24.12a.34.34,0,0,1-.36.36Z"/><path class="cls-1" d="M241,20.23a12.85,12.85,0,0,1-.58-4.39,12.78,12.78,0,0,1,.58-4.36c.94-3,3.45-4.64,6.8-4.64s5.87,1.69,6.8,4.64a12.78,12.78,0,0,1,.58,4.36,12.85,12.85,0,0,1-.58,4.39,7.3,7.3,0,0,1-13.6,0Zm10.69-.86a11.27,11.27,0,0,0,.4-3.53,10.91,10.91,0,0,0-.4-3.49,4.15,4.15,0,0,0-7.78,0,11.26,11.26,0,0,0-.39,3.49,11.63,11.63,0,0,0,.39,3.53,4.15,4.15,0,0,0,7.78,0Z"/><path class="cls-1" d="M266.75,20.23a13.14,13.14,0,0,1-.57-4.39,13.07,13.07,0,0,1,.57-4.36c.94-3,3.46-4.64,6.81-4.64s5.86,1.69,6.8,4.64a12.78,12.78,0,0,1,.58,4.36,12.85,12.85,0,0,1-.58,4.39,7.31,7.31,0,0,1-13.61,0Zm10.7-.86a11.63,11.63,0,0,0,.39-3.53,11.26,11.26,0,0,0-.39-3.49,4.15,4.15,0,0,0-7.78,0,10.91,10.91,0,0,0-.4,3.49,11.27,11.27,0,0,0,.4,3.53,4.15,4.15,0,0,0,7.78,0Z"/><path class="cls-1" d="M285.44,24.48a.34.34,0,0,1-.36-.36V7.59a.33.33,0,0,1,.36-.35h2.3a.33.33,0,0,1,.36.35V9.36h0a4.79,4.79,0,0,1,4.57-2.52,5.32,5.32,0,0,1,3.53,1.29c.18.18.21.33.07.51L295,10.4a.33.33,0,0,1-.51.07,4.86,4.86,0,0,0-2.66-.82c-2.63,0-3.71,2-3.71,5v9.43a.34.34,0,0,1-.36.36Z"/><path class="cls-1" d="M309.27,24.48a.34.34,0,0,1-.36-.36V22.46h0c-.83,1.37-2.3,2.41-4.89,2.41-3,0-5.08-1.4-5.94-4.14a14.25,14.25,0,0,1-.61-4.89A14.2,14.2,0,0,1,298,11C298.9,8.24,301,6.84,304,6.84c2.59,0,4.06,1,4.89,2.37h0V.36a.34.34,0,0,1,.36-.36h2.3a.34.34,0,0,1,.36.36V24.12a.34.34,0,0,1-.36.36Zm-.76-5a11,11,0,0,0,.4-3.6,11.12,11.12,0,0,0-.4-3.6,4.08,4.08,0,0,0-7.59,0,12.15,12.15,0,0,0-.4,3.6,11.89,11.89,0,0,0,.4,3.6,4.05,4.05,0,0,0,7.59,0Z"/><path class="cls-1" d="M316.65,20.19a13.43,13.43,0,0,1-.58-4.35,13.43,13.43,0,0,1,.54-4.36,7.26,7.26,0,0,1,13.54,0,15.08,15.08,0,0,1,.54,4.93.35.35,0,0,1-.4.36H319.38a.19.19,0,0,0-.21.22,6.47,6.47,0,0,0,.29,2.09,4.25,4.25,0,0,0,4.35,3,5.65,5.65,0,0,0,4.43-1.91c.18-.18.36-.22.54-.08l1.48,1.34a.31.31,0,0,1,0,.5,8.38,8.38,0,0,1-6.73,2.95C320.07,24.87,317.58,23.18,316.65,20.19Zm10.73-5.83a.19.19,0,0,0,.21-.21,6.08,6.08,0,0,0-.25-2,4.25,4.25,0,0,0-7.92,0,6.08,6.08,0,0,0-.25,2,.19.19,0,0,0,.21.21Z"/><path class="cls-1" d="M346,24.48a.35.35,0,0,1-.36-.36V14c0-2.77-1.26-4.39-3.85-4.39a3.87,3.87,0,0,0-4,4.21V24.12a.34.34,0,0,1-.36.36h-2.3a.34.34,0,0,1-.36-.36V7.59a.33.33,0,0,1,.36-.35h2.3a.33.33,0,0,1,.36.35V9.18h0a5.45,5.45,0,0,1,4.82-2.34c3.75,0,6,2.55,6,6.48v10.8a.35.35,0,0,1-.36.36Z"/><path class="cls-1" d="M364.13,24.48a.35.35,0,0,1-.36-.36V22.61h0c-.8,1.29-2.49,2.26-5.12,2.26-3.27,0-5.79-1.69-5.79-5.18,0-3.64,2.52-5.33,6.73-5.33h3.92c.15,0,.22-.07.22-.21V12.89c0-2.38-.94-3.39-4.14-3.39a6.73,6.73,0,0,0-4.18,1.23.32.32,0,0,1-.5,0l-1-1.65a.39.39,0,0,1,.07-.51,9.56,9.56,0,0,1,5.87-1.69c4.89,0,6.77,1.62,6.77,5.87V24.12a.35.35,0,0,1-.37.36Zm-.43-5.58V17a.2.2,0,0,0-.22-.22H360c-3,0-4.29.87-4.29,2.81,0,1.77,1.3,2.7,3.6,2.7C362,22.28,363.7,21,363.7,18.9Z"/><path class="cls-1" d="M382.46,24.48a.34.34,0,0,1-.36-.36V22.46h0c-.83,1.37-2.3,2.41-4.9,2.41a5.71,5.71,0,0,1-5.94-4.14,14.5,14.5,0,0,1-.61-4.89,14.45,14.45,0,0,1,.61-4.86,5.71,5.71,0,0,1,5.94-4.14c2.6,0,4.07,1,4.9,2.37h0V.36a.34.34,0,0,1,.36-.36h2.3a.34.34,0,0,1,.36.36V24.12a.35.35,0,0,1-.36.36Zm-.76-5a11,11,0,0,0,.4-3.6,11.12,11.12,0,0,0-.4-3.6,4.08,4.08,0,0,0-7.6,0,12.54,12.54,0,0,0-.39,3.6,12.28,12.28,0,0,0,.39,3.6,4.06,4.06,0,0,0,7.6,0Z"/><path class="cls-1" d="M389.84,20.23a12.85,12.85,0,0,1-.58-4.39,12.78,12.78,0,0,1,.58-4.36c.93-3,3.45-4.64,6.8-4.64s5.87,1.69,6.8,4.64a12.78,12.78,0,0,1,.58,4.36,12.85,12.85,0,0,1-.58,4.39,7.3,7.3,0,0,1-13.6,0Zm10.69-.86a11.63,11.63,0,0,0,.39-3.53,11.26,11.26,0,0,0-.39-3.49,4.15,4.15,0,0,0-7.78,0,11,11,0,0,0-.39,3.49,11.32,11.32,0,0,0,.39,3.53,4.15,4.15,0,0,0,7.78,0Z"/><path class="cls-1" d="M408.09,20.66h2.52A.35.35,0,0,1,411,21v3.35a1.14,1.14,0,0,1-.22.79l-2.23,2.95a.56.56,0,0,1-.47.25.32.32,0,0,1-.32-.32V21A.34.34,0,0,1,408.09,20.66Z"/><path class="cls-1" d="M434.08,24.48a.34.34,0,0,1-.36-.36V14c0-2.77-1.26-4.39-3.85-4.39a3.87,3.87,0,0,0-4,4.21V24.12a.35.35,0,0,1-.36.36h-2.31a.35.35,0,0,1-.36-.36V.36a.34.34,0,0,1,.36-.36h2.31a.34.34,0,0,1,.36.36V9.18h0a5.47,5.47,0,0,1,4.83-2.34c3.74,0,6,2.55,6,6.48v10.8a.34.34,0,0,1-.36.36Z"/><path class="cls-1" d="M441.28,20.19a13.43,13.43,0,0,1-.58-4.35,13.43,13.43,0,0,1,.54-4.36,7.26,7.26,0,0,1,13.54,0,15.08,15.08,0,0,1,.54,4.93.35.35,0,0,1-.4.36H444a.19.19,0,0,0-.21.22,6.47,6.47,0,0,0,.29,2.09,4.25,4.25,0,0,0,4.35,3,5.65,5.65,0,0,0,4.43-1.91c.18-.18.36-.22.54-.08l1.48,1.34a.31.31,0,0,1,0,.5,8.38,8.38,0,0,1-6.73,2.95C444.7,24.87,442.21,23.18,441.28,20.19ZM452,14.36a.19.19,0,0,0,.21-.21,6.08,6.08,0,0,0-.25-2,4.25,4.25,0,0,0-7.92,0,6.08,6.08,0,0,0-.25,2,.19.19,0,0,0,.21.21Z"/><path class="cls-1" d="M459.82,24.48a.34.34,0,0,1-.36-.36V7.59a.33.33,0,0,1,.36-.35h2.3a.33.33,0,0,1,.36.35V9.36h0a4.79,4.79,0,0,1,4.57-2.52,5.32,5.32,0,0,1,3.53,1.29c.18.18.21.33.07.51l-1.33,1.76a.33.33,0,0,1-.51.07,4.86,4.86,0,0,0-2.66-.82c-2.63,0-3.71,2-3.71,5v9.43a.34.34,0,0,1-.36.36Z"/><path class="cls-1" d="M473.86,24.48a.34.34,0,0,1-.36-.36V7.59a.33.33,0,0,1,.36-.35h2.3a.33.33,0,0,1,.36.35V9.36h0a4.79,4.79,0,0,1,4.57-2.52,5.32,5.32,0,0,1,3.53,1.29c.18.18.21.33.07.51L483.4,10.4a.33.33,0,0,1-.51.07,4.86,4.86,0,0,0-2.66-.82c-2.63,0-3.71,2-3.71,5v9.43a.34.34,0,0,1-.36.36Z"/><path class="cls-1" d="M497.11,24.48a.35.35,0,0,1-.36-.36V22.61h0c-.79,1.29-2.49,2.26-5.11,2.26-3.28,0-5.8-1.69-5.8-5.18,0-3.64,2.52-5.33,6.73-5.33h3.92c.15,0,.22-.07.22-.21V12.89c0-2.38-.93-3.39-4.14-3.39a6.68,6.68,0,0,0-4.17,1.23.33.33,0,0,1-.51,0l-1-1.65a.39.39,0,0,1,.07-.51,9.56,9.56,0,0,1,5.87-1.69c4.89,0,6.77,1.62,6.77,5.87V24.12a.35.35,0,0,1-.36.36Zm-.43-5.58V17a.2.2,0,0,0-.22-.22H493c-3,0-4.28.87-4.28,2.81,0,1.77,1.29,2.7,3.6,2.7C495,22.28,496.68,21,496.68,18.9Z"/><path class="cls-1" d="M526.67,24.48a.34.34,0,0,1-.36-.36V14c0-2.77-1.26-4.39-3.85-4.39a3.88,3.88,0,0,0-4,4.21V24.12a.35.35,0,0,1-.36.36h-2.31a.35.35,0,0,1-.36-.36V14c0-2.77-1.26-4.39-3.85-4.39a3.87,3.87,0,0,0-4,4.21V24.12a.34.34,0,0,1-.36.36H505a.34.34,0,0,1-.36-.36V7.59a.33.33,0,0,1,.36-.35h2.3a.33.33,0,0,1,.36.35V9.18h0a6.09,6.09,0,0,1,9.86.36h0a6.41,6.41,0,0,1,5.58-2.7c4,0,6.15,2.55,6.15,6.48v10.8a.34.34,0,0,1-.36.36Z"/><path class="cls-1" d="M534.63,3.35a.34.34,0,0,1-.36-.36V.36a.34.34,0,0,1,.36-.36h2.44a.34.34,0,0,1,.36.36V3a.34.34,0,0,1-.36.36Zm.07,21.13a.34.34,0,0,1-.36-.36V7.59a.33.33,0,0,1,.36-.35H537a.33.33,0,0,1,.36.35V24.12a.34.34,0,0,1-.36.36Z"/><path class="cls-1" d="M542.08,20.19a13.43,13.43,0,0,1-.58-4.35,13.43,13.43,0,0,1,.54-4.36,7.26,7.26,0,0,1,13.54,0,15.08,15.08,0,0,1,.54,4.93.35.35,0,0,1-.4.36H544.81a.19.19,0,0,0-.21.22,6.8,6.8,0,0,0,.28,2.09,4.27,4.27,0,0,0,4.36,3,5.65,5.65,0,0,0,4.43-1.91c.18-.18.36-.22.54-.08l1.47,1.34a.32.32,0,0,1,0,.5A8.38,8.38,0,0,1,549,24.87C545.5,24.87,543,23.18,542.08,20.19Zm10.72-5.83c.15,0,.22-.07.22-.21a6.08,6.08,0,0,0-.25-2,4.25,4.25,0,0,0-7.92,0,6.08,6.08,0,0,0-.25,2,.19.19,0,0,0,.21.21Z"/><path class="cls-1" d="M571.45,24.48a.35.35,0,0,1-.36-.36V14c0-2.77-1.26-4.39-3.85-4.39a3.87,3.87,0,0,0-4,4.21V24.12a.34.34,0,0,1-.36.36h-2.3a.34.34,0,0,1-.36-.36V7.59a.33.33,0,0,1,.36-.35h2.3a.33.33,0,0,1,.36.35V9.18h0a5.44,5.44,0,0,1,4.82-2.34c3.74,0,6,2.55,6,6.48v10.8a.35.35,0,0,1-.36.36Z"/><path class="cls-1" d="M584.12,24.66c-3.34,0-4.64-1.52-4.64-4.9V9.9a.19.19,0,0,0-.22-.22h-1.44a.34.34,0,0,1-.36-.36V7.59a.34.34,0,0,1,.36-.35h1.44a.2.2,0,0,0,.22-.22V2.16a.34.34,0,0,1,.36-.36h2.3a.34.34,0,0,1,.36.36V7a.2.2,0,0,0,.22.22h2.74a.34.34,0,0,1,.36.35V9.32a.34.34,0,0,1-.36.36h-2.74a.2.2,0,0,0-.22.22v9.75c0,1.73.65,2.2,2.2,2.2h.76a.34.34,0,0,1,.36.36V24.3a.35.35,0,0,1-.36.36Z"/><path class="cls-1" d="M600.21,24.48a.34.34,0,0,1-.35-.36V22.61h0c-.79,1.29-2.48,2.26-5.11,2.26-3.28,0-5.8-1.69-5.8-5.18,0-3.64,2.52-5.33,6.73-5.33h3.93a.19.19,0,0,0,.21-.21V12.89c0-2.38-.93-3.39-4.14-3.39a6.7,6.7,0,0,0-4.17,1.23.33.33,0,0,1-.51,0L590,9a.39.39,0,0,1,.07-.51,9.58,9.58,0,0,1,5.87-1.69c4.9,0,6.77,1.62,6.77,5.87V24.12a.35.35,0,0,1-.36.36Zm-.43-5.58V17a.19.19,0,0,0-.21-.22h-3.46c-3,0-4.28.87-4.28,2.81,0,1.77,1.29,2.7,3.6,2.7C598.13,22.28,599.78,21,599.78,18.9Z"/><path class="cls-1" d="M607.67,20.66h2.52a.35.35,0,0,1,.36.36v3.35a1.14,1.14,0,0,1-.22.79l-2.23,2.95a.56.56,0,0,1-.47.25.32.32,0,0,1-.32-.32V21A.34.34,0,0,1,607.67,20.66Z"/><path class="cls-1" d="M12.47,58.19a13.48,13.48,0,0,1-.57-4.35,13.43,13.43,0,0,1,.54-4.36,6.67,6.67,0,0,1,6.77-4.64A6.67,6.67,0,0,1,26,49.48a15.08,15.08,0,0,1,.54,4.93.35.35,0,0,1-.39.36H15.21A.2.2,0,0,0,15,55a6.47,6.47,0,0,0,.29,2.09,4.27,4.27,0,0,0,4.36,3,5.61,5.61,0,0,0,4.42-1.91c.19-.18.36-.22.55-.08l1.47,1.34a.32.32,0,0,1,0,.5,8.38,8.38,0,0,1-6.73,2.95C15.89,62.87,13.41,61.18,12.47,58.19ZM23.2,52.36a.19.19,0,0,0,.22-.21,6.37,6.37,0,0,0-.25-1.95,3.9,3.9,0,0,0-4-2.7,3.88,3.88,0,0,0-4,2.7A6.05,6.05,0,0,0,15,52.15a.19.19,0,0,0,.22.21Z"/><path class="cls-1" d="M41.45,69a.35.35,0,0,1-.36-.36V60.46h0c-.83,1.37-2.31,2.41-4.9,2.41-3,0-5.07-1.4-5.94-4.14a14.25,14.25,0,0,1-.61-4.89A14.2,14.2,0,0,1,30.22,49c.87-2.74,3-4.14,5.94-4.14,2.59,0,4.07,1,4.9,2.37h0V45.59a.34.34,0,0,1,.36-.35h2.31a.34.34,0,0,1,.36.35v23a.35.35,0,0,1-.36.36ZM40.7,57.44a11.35,11.35,0,0,0,.39-3.6,11.47,11.47,0,0,0-.39-3.6,3.67,3.67,0,0,0-3.82-2.59,3.66,3.66,0,0,0-3.78,2.59,12.2,12.2,0,0,0-.39,3.6,11.94,11.94,0,0,0,.39,3.6,3.69,3.69,0,0,0,3.78,2.63A3.7,3.7,0,0,0,40.7,57.44Z"/><path class="cls-1" d="M60.14,62.48a.34.34,0,0,1-.36-.36V60.5h0A5.25,5.25,0,0,1,55,62.87c-3.78,0-6-2.59-6-6.51V45.59a.33.33,0,0,1,.36-.35h2.3a.33.33,0,0,1,.36.35v10c0,2.81,1.26,4.43,3.82,4.43,2.34,0,3.89-1.66,3.89-4.25V45.59a.33.33,0,0,1,.36-.35h2.3a.33.33,0,0,1,.36.35V62.12a.34.34,0,0,1-.36.36Z"/><path class="cls-1" d="M68.27,41.35a.35.35,0,0,1-.36-.36V38.36a.34.34,0,0,1,.36-.36h2.45a.34.34,0,0,1,.36.36V41a.34.34,0,0,1-.36.36Zm.08,21.13a.34.34,0,0,1-.36-.36V45.59a.33.33,0,0,1,.36-.35h2.3a.33.33,0,0,1,.36.35V62.12a.34.34,0,0,1-.36.36Z"/><path class="cls-1" d="M76.55,69a.35.35,0,0,1-.36-.36v-23a.34.34,0,0,1,.36-.35h2.31a.34.34,0,0,1,.36.35v1.62h0c.83-1.36,2.31-2.37,4.9-2.37,3,0,5.07,1.4,5.94,4.14a14.45,14.45,0,0,1,.61,4.86,14.5,14.5,0,0,1-.61,4.89c-.87,2.74-3,4.14-5.94,4.14-2.59,0-4.07-1-4.9-2.41h0V68.6a.35.35,0,0,1-.36.36ZM87.21,57.44a11.94,11.94,0,0,0,.39-3.6,12.2,12.2,0,0,0-.39-3.6,4.08,4.08,0,0,0-7.6,0,11.18,11.18,0,0,0-.39,3.6,11.06,11.06,0,0,0,.39,3.6,4.06,4.06,0,0,0,7.6,0Z"/><path class="cls-1" d="M94.37,58.23a13.14,13.14,0,0,1-.57-4.39,13.07,13.07,0,0,1,.57-4.36c.94-2.95,3.46-4.64,6.81-4.64s5.86,1.69,6.8,4.64a12.81,12.81,0,0,1,.57,4.36,12.89,12.89,0,0,1-.57,4.39,7.31,7.31,0,0,1-13.61,0Zm10.69-.86a11.27,11.27,0,0,0,.4-3.53,10.91,10.91,0,0,0-.4-3.49,4.15,4.15,0,0,0-7.77,0,10.91,10.91,0,0,0-.4,3.49,11.27,11.27,0,0,0,.4,3.53,4.15,4.15,0,0,0,7.77,0Z"/><path class="cls-1" d="M111.51,60.28a.33.33,0,0,1,0-.5L113,58.19a.36.36,0,0,1,.51,0,8.34,8.34,0,0,0,5.33,2c2.51,0,3.77-1.08,3.77-2.63,0-1.36-.64-2.12-3.34-2.41L117.41,55c-3.38-.36-5.15-2.05-5.15-4.86,0-3.27,2.34-5.25,6.41-5.25a10.32,10.32,0,0,1,6.12,1.91.34.34,0,0,1,.07.5l-1.22,1.55a.36.36,0,0,1-.51.07,9.06,9.06,0,0,0-4.64-1.4c-2.16,0-3.27,1-3.27,2.37s.82,2.09,3.38,2.34l1.8.18c3.49.33,5.18,2.09,5.18,4.86,0,3.39-2.45,5.65-7,5.65A10.72,10.72,0,0,1,111.51,60.28Z"/><path class="cls-1" d="M129.54,58.66h2.52a.34.34,0,0,1,.36.36v3.35a1.14,1.14,0,0,1-.21.79l-2.23,3a.58.58,0,0,1-.47.25.32.32,0,0,1-.33-.32V59A.35.35,0,0,1,129.54,58.66Z"/><path class="cls-1" d="M144.41,38.36a.34.34,0,0,1,.36-.36h14.72a.34.34,0,0,1,.36.36v2.27a.34.34,0,0,1-.36.36H147.83a.19.19,0,0,0-.21.21v7.2c0,.15.07.22.21.22h9.9a.34.34,0,0,1,.36.36v2.27a.34.34,0,0,1-.36.36h-9.9a.19.19,0,0,0-.21.21v7.45c0,.15.07.22.21.22h11.66a.34.34,0,0,1,.36.36v2.27a.34.34,0,0,1-.36.36H144.77a.34.34,0,0,1-.36-.36Z"/><path class="cls-1" d="M164.32,62.48a.34.34,0,0,1-.36-.36V38.36a.34.34,0,0,1,.36-.36H173c4.72,0,7.77,2.88,7.77,7.31s-3.05,7.3-7.77,7.3h-5.65a.2.2,0,0,0-.22.22v9.29a.34.34,0,0,1-.36.36Zm13.32-17.17c0-2.67-1.77-4.32-4.79-4.32h-5.47c-.15,0-.22.07-.22.21v8.21a.2.2,0,0,0,.22.22h5.47C175.87,49.63,177.64,48,177.64,45.31Z"/><path class="cls-1" d="M184.91,62.48a.35.35,0,0,1-.36-.36V38.36a.34.34,0,0,1,.36-.36h8.71c4.72,0,7.78,2.88,7.78,7.31s-3.06,7.3-7.78,7.3H188a.2.2,0,0,0-.22.22v9.29a.34.34,0,0,1-.36.36Zm13.32-17.17c0-2.67-1.77-4.32-4.79-4.32H188a.19.19,0,0,0-.22.21v8.21a.2.2,0,0,0,.22.22h5.47C196.46,49.63,198.23,48,198.23,45.31Z"/><path class="cls-1" d="M212.52,58.19a13.48,13.48,0,0,1-.57-4.35,13.43,13.43,0,0,1,.54-4.36,7.25,7.25,0,0,1,13.53,0,15.08,15.08,0,0,1,.54,4.93c0,.22-.14.36-.4.36h-10.9A.2.2,0,0,0,215,55a6.47,6.47,0,0,0,.29,2.09,4.26,4.26,0,0,0,4.36,3,5.61,5.61,0,0,0,4.42-1.91c.18-.18.36-.22.54-.08l1.48,1.34a.31.31,0,0,1,0,.5,8.35,8.35,0,0,1-6.73,2.95C215.94,62.87,213.46,61.18,212.52,58.19Zm10.73-5.83a.19.19,0,0,0,.21-.21,6.08,6.08,0,0,0-.25-1.95,4.25,4.25,0,0,0-7.92,0,6.08,6.08,0,0,0-.25,1.95c0,.14.07.21.22.21Z"/><path class="cls-1" d="M241.9,62.48a.34.34,0,0,1-.36-.36V52c0-2.77-1.26-4.39-3.86-4.39a3.86,3.86,0,0,0-4,4.21V62.12a.35.35,0,0,1-.36.36h-2.31a.35.35,0,0,1-.36-.36V45.59a.34.34,0,0,1,.36-.35h2.31a.34.34,0,0,1,.36.35v1.59h0a5.46,5.46,0,0,1,4.82-2.34c3.75,0,6,2.55,6,6.48v10.8a.34.34,0,0,1-.36.36Z"/><path class="cls-1" d="M268.32,62.48a.34.34,0,0,1-.36-.36V60.5h0a5.25,5.25,0,0,1-4.71,2.37c-3.78,0-6-2.59-6-6.51V45.59a.34.34,0,0,1,.36-.35h2.31a.34.34,0,0,1,.36.35v10c0,2.81,1.26,4.43,3.81,4.43,2.34,0,3.89-1.66,3.89-4.25V45.59a.33.33,0,0,1,.36-.35h2.3a.33.33,0,0,1,.36.35V62.12a.34.34,0,0,1-.36.36Z"/><path class="cls-1" d="M287.36,62.48a.35.35,0,0,1-.36-.36V52c0-2.77-1.26-4.39-3.85-4.39a3.87,3.87,0,0,0-4,4.21V62.12a.34.34,0,0,1-.36.36h-2.3a.34.34,0,0,1-.36-.36V45.59a.33.33,0,0,1,.36-.35h2.3a.33.33,0,0,1,.36.35v1.59h0a5.45,5.45,0,0,1,4.82-2.34c3.74,0,6,2.55,6,6.48v10.8a.35.35,0,0,1-.36.36Z"/><path class="cls-1" d="M307.09,62.66c-3,0-4.21-1.44-4.21-4.54V38.36a.34.34,0,0,1,.36-.36h2.3a.34.34,0,0,1,.36.36V57.94c0,1.44.54,1.91,1.73,1.91h.69a.34.34,0,0,1,.36.36V62.3a.35.35,0,0,1-.36.36Z"/><path class="cls-1" d="M323,62.48a.34.34,0,0,1-.36-.36V60.5h0a5.25,5.25,0,0,1-4.71,2.37c-3.78,0-6-2.59-6-6.51V45.59a.34.34,0,0,1,.36-.35h2.31a.34.34,0,0,1,.36.35v10c0,2.81,1.26,4.43,3.81,4.43,2.34,0,3.89-1.66,3.89-4.25V45.59a.33.33,0,0,1,.36-.35h2.3a.33.33,0,0,1,.36.35V62.12a.34.34,0,0,1-.36.36Z"/><path class="cls-1" d="M330.53,66.8a.33.33,0,0,1,0-.51L332,64.82a.34.34,0,0,1,.54,0,5.75,5.75,0,0,0,4.07,1.72c2.84,0,4.35-1.47,4.35-4.64v-2h0c-.8,1.45-2.27,2.38-4.79,2.38a5.65,5.65,0,0,1-5.8-4.18,13.5,13.5,0,0,1-.57-4.53,13.6,13.6,0,0,1,.57-4.54,5.65,5.65,0,0,1,5.8-4.17c2.52,0,4,.94,4.79,2.37h0V45.59a.34.34,0,0,1,.36-.35h2.31a.34.34,0,0,1,.36.35V61.72c0,4.9-2.67,7.63-7.53,7.63A7.78,7.78,0,0,1,330.53,66.8Zm10.08-9.9a10.77,10.77,0,0,0,.39-3.35,10.89,10.89,0,0,0-.39-3.35,3.89,3.89,0,0,0-7.31,0,10.78,10.78,0,0,0-.43,3.35,10.65,10.65,0,0,0,.43,3.35,3.52,3.52,0,0,0,3.63,2.59A3.58,3.58,0,0,0,340.61,56.9Z"/><path class="cls-1" d="M359.65,62.48a.34.34,0,0,1-.36-.36V60.61h0c-.79,1.29-2.48,2.26-5.11,2.26-3.27,0-5.79-1.69-5.79-5.18s2.52-5.33,6.73-5.33H359c.15,0,.22-.07.22-.21V50.89c0-2.38-.94-3.39-4.14-3.39a6.71,6.71,0,0,0-4.18,1.23.32.32,0,0,1-.5,0l-1-1.65a.39.39,0,0,1,.07-.51,9.54,9.54,0,0,1,5.87-1.69c4.89,0,6.76,1.62,6.76,5.87V62.12a.34.34,0,0,1-.36.36Zm-.43-5.58V55a.2.2,0,0,0-.22-.22h-3.45c-3,0-4.29.87-4.29,2.81,0,1.77,1.3,2.7,3.6,2.7C357.56,60.28,359.22,59,359.22,56.9Z"/><path class="cls-1" d="M367.54,62.48a.35.35,0,0,1-.37-.36V45.59a.34.34,0,0,1,.37-.35h2.3a.34.34,0,0,1,.36.35v1.77h0a4.81,4.81,0,0,1,4.58-2.52,5.29,5.29,0,0,1,3.52,1.29c.18.18.22.33.08.51l-1.34,1.76a.32.32,0,0,1-.5.07,4.89,4.89,0,0,0-2.66-.82c-2.63,0-3.71,2.05-3.71,5v9.43a.35.35,0,0,1-.36.36Z"/><path class="cls-1" d="M399.57,62.48a.35.35,0,0,1-.36-.36V60.61h0c-.8,1.29-2.49,2.26-5.11,2.26-3.28,0-5.8-1.69-5.8-5.18s2.52-5.33,6.73-5.33h3.92c.15,0,.22-.07.22-.21V50.89c0-2.38-.93-3.39-4.14-3.39a6.68,6.68,0,0,0-4.17,1.23.33.33,0,0,1-.51,0l-1-1.65a.39.39,0,0,1,.07-.51,9.56,9.56,0,0,1,5.87-1.69c4.89,0,6.77,1.62,6.77,5.87V62.12a.35.35,0,0,1-.36.36Zm-.43-5.58V55a.2.2,0,0,0-.22-.22h-3.45c-3,0-4.28.87-4.28,2.81,0,1.77,1.29,2.7,3.6,2.7C397.48,60.28,399.14,59,399.14,56.9Z"/><path class="cls-1" d="M417.9,62.48a.34.34,0,0,1-.36-.36V60.46h0c-.83,1.37-2.3,2.41-4.89,2.41-3,0-5.08-1.4-5.94-4.14a14.22,14.22,0,0,1-.62-4.89,14.17,14.17,0,0,1,.62-4.86c.86-2.74,2.95-4.14,5.94-4.14,2.59,0,4.06,1,4.89,2.37h0V38.36a.34.34,0,0,1,.36-.36h2.3a.34.34,0,0,1,.36.36V62.12a.34.34,0,0,1-.36.36Zm-.76-5a11,11,0,0,0,.4-3.6,11.12,11.12,0,0,0-.4-3.6,4.08,4.08,0,0,0-7.59,0,12.15,12.15,0,0,0-.4,3.6,11.89,11.89,0,0,0,.4,3.6,4.05,4.05,0,0,0,7.59,0Z"/><path class="cls-1" d="M425.28,58.19a13.43,13.43,0,0,1-.58-4.35,13.43,13.43,0,0,1,.54-4.36,7.26,7.26,0,0,1,13.54,0,15.08,15.08,0,0,1,.54,4.93.35.35,0,0,1-.4.36H428a.19.19,0,0,0-.21.22,6.8,6.8,0,0,0,.28,2.09,4.27,4.27,0,0,0,4.36,3,5.65,5.65,0,0,0,4.43-1.91c.18-.18.36-.22.54-.08l1.47,1.34a.32.32,0,0,1,0,.5,8.38,8.38,0,0,1-6.73,2.95C428.7,62.87,426.21,61.18,425.28,58.19ZM436,52.36c.15,0,.22-.07.22-.21A6.08,6.08,0,0,0,436,50.2a4.25,4.25,0,0,0-7.92,0,6.08,6.08,0,0,0-.25,1.95.19.19,0,0,0,.21.21Z"/><path class="cls-1" d="M443,49.48a6.7,6.7,0,0,1,6.81-4.64,6.94,6.94,0,0,1,5.9,2.91c.11.18.11.33-.11.51L454,49.55a.32.32,0,0,1-.51,0,4.22,4.22,0,0,0-3.7-1.87,3.73,3.73,0,0,0-3.85,2.7,11.4,11.4,0,0,0-.4,3.49,11.52,11.52,0,0,0,.4,3.53,3.73,3.73,0,0,0,3.85,2.7,4.23,4.23,0,0,0,3.7-1.88.32.32,0,0,1,.51,0l1.58,1.29c.22.18.22.33.11.51a6.91,6.91,0,0,1-5.9,2.91A6.69,6.69,0,0,1,443,58.23a15,15,0,0,1-.54-4.39A15,15,0,0,1,443,49.48Z"/><path class="cls-1" d="M470.56,62.48a.35.35,0,0,1-.36-.36V60.5h0a5.26,5.26,0,0,1-4.72,2.37c-3.78,0-6-2.59-6-6.51V45.59a.33.33,0,0,1,.36-.35h2.3a.33.33,0,0,1,.36.35v10c0,2.81,1.26,4.43,3.82,4.43,2.34,0,3.88-1.66,3.88-4.25V45.59a.34.34,0,0,1,.36-.35h2.31a.34.34,0,0,1,.36.35V62.12a.35.35,0,0,1-.36.36Z"/><path class="cls-1" d="M488.85,62.48a.34.34,0,0,1-.36-.36V60.61h0c-.8,1.29-2.49,2.26-5.12,2.26-3.27,0-5.79-1.69-5.79-5.18s2.52-5.33,6.73-5.33h3.92c.15,0,.22-.07.22-.21V50.89c0-2.38-.94-3.39-4.14-3.39a6.73,6.73,0,0,0-4.18,1.23.32.32,0,0,1-.5,0l-1-1.65a.39.39,0,0,1,.07-.51,9.56,9.56,0,0,1,5.87-1.69c4.89,0,6.76,1.62,6.76,5.87V62.12a.34.34,0,0,1-.36.36Zm-.43-5.58V55a.2.2,0,0,0-.22-.22h-3.45c-3,0-4.29.87-4.29,2.81,0,1.77,1.3,2.7,3.6,2.7C486.76,60.28,488.42,59,488.42,56.9Z"/><path class="cls-1" d="M507.17,62.48a.35.35,0,0,1-.36-.36V60.46h0c-.83,1.37-2.31,2.41-4.9,2.41a5.71,5.71,0,0,1-5.94-4.14,14.5,14.5,0,0,1-.61-4.89,14.45,14.45,0,0,1,.61-4.86,5.71,5.71,0,0,1,5.94-4.14c2.59,0,4.07,1,4.9,2.37h0V38.36a.34.34,0,0,1,.36-.36h2.31a.34.34,0,0,1,.36.36V62.12a.35.35,0,0,1-.36.36Zm-.75-5a11.06,11.06,0,0,0,.39-3.6,11.18,11.18,0,0,0-.39-3.6,4.08,4.08,0,0,0-7.6,0,12.54,12.54,0,0,0-.39,3.6,12.28,12.28,0,0,0,.39,3.6,4.06,4.06,0,0,0,7.6,0Z"/><path class="cls-1" d="M514.56,58.23a12.85,12.85,0,0,1-.58-4.39,12.78,12.78,0,0,1,.58-4.36c.93-2.95,3.45-4.64,6.8-4.64s5.87,1.69,6.8,4.64a12.78,12.78,0,0,1,.58,4.36,12.85,12.85,0,0,1-.58,4.39,7.3,7.3,0,0,1-13.6,0Zm10.69-.86a11.32,11.32,0,0,0,.39-3.53,11,11,0,0,0-.39-3.49,4.15,4.15,0,0,0-7.78,0,11,11,0,0,0-.39,3.49,11.32,11.32,0,0,0,.39,3.53,4.15,4.15,0,0,0,7.78,0Z"/><path class="cls-1" d="M540.94,69a.35.35,0,0,1-.36-.36V66.51a.34.34,0,0,1,.36-.36h.65c1.41,0,2.16-.61,2.92-2.59l.57-1.59-6.33-16.38c-.07-.21,0-.35.29-.35h2.51a.42.42,0,0,1,.44.35l4.53,12.46h.07L551,45.59a.41.41,0,0,1,.43-.35h2.45c.22,0,.36.14.29.35l-6.81,18.22c-1.51,4.07-2.84,5.15-5.43,5.15Z"/><path class="cls-1" d="M576,62.48a.34.34,0,0,1-.36-.36V60.46h0c-.82,1.37-2.3,2.41-4.89,2.41-3,0-5.08-1.4-5.94-4.14a14.25,14.25,0,0,1-.61-4.89,14.2,14.2,0,0,1,.61-4.86c.86-2.74,3-4.14,5.94-4.14,2.59,0,4.07,1,4.89,2.37h0V38.36A.34.34,0,0,1,576,38h2.3a.34.34,0,0,1,.36.36V62.12a.34.34,0,0,1-.36.36Zm-.76-5a11,11,0,0,0,.4-3.6,11.12,11.12,0,0,0-.4-3.6,4.08,4.08,0,0,0-7.59,0,12.15,12.15,0,0,0-.4,3.6,11.89,11.89,0,0,0,.4,3.6,4.05,4.05,0,0,0,7.59,0Z"/><path class="cls-1" d="M583.35,58.19a13.43,13.43,0,0,1-.58-4.35,13.71,13.71,0,0,1,.54-4.36,7.26,7.26,0,0,1,13.54,0,15.08,15.08,0,0,1,.54,4.93c0,.22-.14.36-.4.36h-10.9a.2.2,0,0,0-.22.22,6.47,6.47,0,0,0,.29,2.09,4.25,4.25,0,0,0,4.35,3,5.62,5.62,0,0,0,4.43-1.91c.18-.18.36-.22.54-.08L597,59.42a.31.31,0,0,1,0,.5,8.35,8.35,0,0,1-6.73,2.95C586.77,62.87,584.29,61.18,583.35,58.19Zm10.73-5.83a.19.19,0,0,0,.21-.21A6.08,6.08,0,0,0,594,50.2a4.25,4.25,0,0,0-7.92,0,6.08,6.08,0,0,0-.25,1.95c0,.14.07.21.22.21Z"/><path class="cls-1" d="M4.84,100.48a.35.35,0,0,1-.36-.36V85.9c0-.15-.07-.22-.21-.22H2.79a.34.34,0,0,1-.36-.36V83.59a.34.34,0,0,1,.36-.35H4.27A.19.19,0,0,0,4.48,83V81.54C4.48,77.48,6.14,76,9.74,76h1.33a.34.34,0,0,1,.36.36v2.09a.34.34,0,0,1-.36.36h-.94c-2.19,0-2.62.47-2.62,2.59V83a.19.19,0,0,0,.21.22h3.35a.33.33,0,0,1,.36.35v1.73a.34.34,0,0,1-.36.36H7.72c-.14,0-.21.07-.21.22v14.22a.35.35,0,0,1-.36.36Z"/><path class="cls-1" d="M14.09,96.23a13.14,13.14,0,0,1-.57-4.39,13.07,13.07,0,0,1,.57-4.36c.94-3,3.46-4.64,6.81-4.64s5.87,1.69,6.8,4.64a12.78,12.78,0,0,1,.58,4.36,12.85,12.85,0,0,1-.58,4.39,6.7,6.7,0,0,1-6.8,4.64A6.72,6.72,0,0,1,14.09,96.23Zm10.7-.86a11.63,11.63,0,0,0,.39-3.53,11.26,11.26,0,0,0-.39-3.49,3.84,3.84,0,0,0-3.89-2.7A3.84,3.84,0,0,0,17,88.35a10.91,10.91,0,0,0-.4,3.49,11.27,11.27,0,0,0,.4,3.53,3.85,3.85,0,0,0,3.89,2.7A3.85,3.85,0,0,0,24.79,95.37Z"/><path class="cls-1" d="M32.78,100.48a.34.34,0,0,1-.36-.36V83.59a.33.33,0,0,1,.36-.35h2.3a.33.33,0,0,1,.36.35v1.77h0a4.79,4.79,0,0,1,4.57-2.52,5.32,5.32,0,0,1,3.53,1.29c.18.18.21.33.07.51L42.32,86.4a.33.33,0,0,1-.51.07,4.86,4.86,0,0,0-2.66-.82c-2.63,0-3.71,2-3.71,5v9.43a.34.34,0,0,1-.36.36Z"/><path class="cls-1" d="M68.49,100.48a.34.34,0,0,1-.36-.36V90c0-2.77-1.26-4.39-3.85-4.39a3.88,3.88,0,0,0-4,4.21v10.26a.35.35,0,0,1-.36.36H57.65a.35.35,0,0,1-.36-.36V90c0-2.77-1.26-4.39-3.85-4.39a3.87,3.87,0,0,0-4,4.21v10.26a.34.34,0,0,1-.36.36h-2.3a.34.34,0,0,1-.36-.36V83.59a.33.33,0,0,1,.36-.35h2.3a.33.33,0,0,1,.36.35v1.59h0a5.45,5.45,0,0,1,4.82-2.34,5.41,5.41,0,0,1,5,2.7h0A6.4,6.4,0,0,1,65,82.84c4,0,6.15,2.55,6.15,6.48v10.8a.34.34,0,0,1-.36.36Z"/><path class="cls-1" d="M86.6,100.48a.34.34,0,0,1-.36-.36V98.61h0c-.79,1.29-2.48,2.26-5.11,2.26-3.28,0-5.8-1.69-5.8-5.18s2.52-5.33,6.73-5.33H86a.19.19,0,0,0,.21-.21V88.89c0-2.38-.93-3.39-4.14-3.39a6.7,6.7,0,0,0-4.17,1.23c-.18.14-.4.14-.5,0l-1-1.65a.39.39,0,0,1,.08-.51,9.53,9.53,0,0,1,5.86-1.69c4.9,0,6.77,1.62,6.77,5.87v11.41a.34.34,0,0,1-.36.36Zm-.44-5.58V93a.19.19,0,0,0-.21-.22H82.49c-3,0-4.28.87-4.28,2.81,0,1.77,1.29,2.7,3.6,2.7C84.51,98.28,86.16,97,86.16,94.9Z"/><path class="cls-1" d="M101.57,96.23a13.14,13.14,0,0,1-.57-4.39,13.07,13.07,0,0,1,.57-4.36c.94-3,3.46-4.64,6.81-4.64s5.86,1.69,6.8,4.64a12.81,12.81,0,0,1,.57,4.36,12.89,12.89,0,0,1-.57,4.39,7.31,7.31,0,0,1-13.61,0Zm10.69-.86a11.27,11.27,0,0,0,.4-3.53,10.91,10.91,0,0,0-.4-3.49,4.15,4.15,0,0,0-7.77,0,10.91,10.91,0,0,0-.4,3.49,11.27,11.27,0,0,0,.4,3.53,4.15,4.15,0,0,0,7.77,0Z"/><path class="cls-1" d="M120.26,100.48a.34.34,0,0,1-.36-.36V83.59a.33.33,0,0,1,.36-.35h2.3a.33.33,0,0,1,.36.35v1.77h0a4.78,4.78,0,0,1,4.57-2.52,5.27,5.27,0,0,1,3.52,1.29c.19.18.22.33.08.51l-1.34,1.76a.32.32,0,0,1-.5.07,4.86,4.86,0,0,0-2.66-.82c-2.63,0-3.71,2-3.71,5v9.43a.34.34,0,0,1-.36.36Z"/><path class="cls-1" d="M132.93,104.8a.33.33,0,0,1,0-.51l1.48-1.47a.34.34,0,0,1,.54,0,5.75,5.75,0,0,0,4.07,1.72c2.84,0,4.35-1.47,4.35-4.64v-2h0c-.79,1.45-2.27,2.38-4.79,2.38a5.65,5.65,0,0,1-5.8-4.18,13.5,13.5,0,0,1-.57-4.53,13.6,13.6,0,0,1,.57-4.54,5.65,5.65,0,0,1,5.8-4.17c2.52,0,4,.94,4.79,2.37h0V83.59a.34.34,0,0,1,.36-.35h2.31a.34.34,0,0,1,.36.35V99.72c0,4.9-2.67,7.63-7.53,7.63A7.78,7.78,0,0,1,132.93,104.8ZM143,94.9a10.77,10.77,0,0,0,.39-3.35A10.89,10.89,0,0,0,143,88.2a3.89,3.89,0,0,0-7.31,0,10.78,10.78,0,0,0-.43,3.35,10.65,10.65,0,0,0,.43,3.35,3.52,3.52,0,0,0,3.64,2.59A3.57,3.57,0,0,0,143,94.9Z"/><path class="cls-1" d="M162.05,100.48a.34.34,0,0,1-.36-.36V98.61h0c-.8,1.29-2.49,2.26-5.12,2.26-3.27,0-5.79-1.69-5.79-5.18s2.52-5.33,6.73-5.33h3.92c.15,0,.22-.07.22-.21V88.89c0-2.38-.94-3.39-4.14-3.39a6.73,6.73,0,0,0-4.18,1.23.32.32,0,0,1-.5,0l-1-1.65a.39.39,0,0,1,.07-.51,9.56,9.56,0,0,1,5.87-1.69c4.89,0,6.77,1.62,6.77,5.87v11.41a.35.35,0,0,1-.37.36Zm-.43-5.58V93a.2.2,0,0,0-.22-.22H158c-3,0-4.29.87-4.29,2.81,0,1.77,1.3,2.7,3.6,2.7C160,98.28,161.62,97,161.62,94.9Z"/><path class="cls-1" d="M180.77,100.48a.34.34,0,0,1-.36-.36V90c0-2.77-1.26-4.39-3.85-4.39a3.87,3.87,0,0,0-4,4.21v10.26a.34.34,0,0,1-.36.36h-2.3a.34.34,0,0,1-.36-.36V83.59a.33.33,0,0,1,.36-.35h2.3a.33.33,0,0,1,.36.35v1.59h0a5.44,5.44,0,0,1,4.82-2.34c3.74,0,6,2.55,6,6.48v10.8a.34.34,0,0,1-.36.36Z"/><path class="cls-1" d="M188.73,79.35a.34.34,0,0,1-.36-.36V76.36a.34.34,0,0,1,.36-.36h2.45a.34.34,0,0,1,.36.36V79a.35.35,0,0,1-.36.36Zm.07,21.13a.34.34,0,0,1-.36-.36V83.59a.33.33,0,0,1,.36-.35h2.3a.33.33,0,0,1,.36.35v16.53a.34.34,0,0,1-.36.36Z"/><path class="cls-1" d="M196,100.48a.34.34,0,0,1-.36-.36V98.21a.55.55,0,0,1,.14-.4L205.29,86V86H196.5a.34.34,0,0,1-.36-.36v-2a.34.34,0,0,1,.36-.35h12a.34.34,0,0,1,.36.35v2a.56.56,0,0,1-.15.4l-9.39,11.66v.07h9.18a.34.34,0,0,1,.36.36v2a.35.35,0,0,1-.36.36Z"/><path class="cls-1" d="M223.54,100.48a.34.34,0,0,1-.36-.36V98.61h0c-.79,1.29-2.48,2.26-5.11,2.26-3.28,0-5.8-1.69-5.8-5.18s2.52-5.33,6.74-5.33h3.92a.19.19,0,0,0,.22-.21V88.89c0-2.38-.94-3.39-4.14-3.39a6.71,6.71,0,0,0-4.18,1.23c-.18.14-.4.14-.5,0l-1-1.65a.39.39,0,0,1,.08-.51,9.53,9.53,0,0,1,5.86-1.69c4.9,0,6.77,1.62,6.77,5.87v11.41a.34.34,0,0,1-.36.36Zm-.43-5.58V93a.2.2,0,0,0-.22-.22h-3.46c-3,0-4.28.87-4.28,2.81,0,1.77,1.3,2.7,3.6,2.7C221.45,98.28,223.11,97,223.11,94.9Z"/><path class="cls-1" d="M241.86,100.48a.34.34,0,0,1-.36-.36V98.46h0c-.82,1.37-2.3,2.41-4.89,2.41-3,0-5.08-1.4-5.94-4.14a14.25,14.25,0,0,1-.61-4.89,14.2,14.2,0,0,1,.61-4.86c.86-2.74,3-4.14,5.94-4.14,2.59,0,4.07,1,4.89,2.37h0V76.36a.34.34,0,0,1,.36-.36h2.31a.34.34,0,0,1,.36.36v23.76a.35.35,0,0,1-.36.36Zm-.75-5a11.35,11.35,0,0,0,.39-3.6,11.47,11.47,0,0,0-.39-3.6,4.08,4.08,0,0,0-7.6,0,12.15,12.15,0,0,0-.4,3.6,11.89,11.89,0,0,0,.4,3.6,4.06,4.06,0,0,0,7.6,0Z"/><path class="cls-1" d="M260.15,100.48a.34.34,0,0,1-.36-.36V98.61h0c-.79,1.29-2.48,2.26-5.11,2.26-3.27,0-5.79-1.69-5.79-5.18s2.52-5.33,6.73-5.33h3.92a.19.19,0,0,0,.22-.21V88.89c0-2.38-.94-3.39-4.14-3.39a6.71,6.71,0,0,0-4.18,1.23.32.32,0,0,1-.5,0l-1-1.65a.38.38,0,0,1,.07-.51,9.54,9.54,0,0,1,5.87-1.69c4.89,0,6.76,1.62,6.76,5.87v11.41a.34.34,0,0,1-.36.36Zm-.43-5.58V93a.2.2,0,0,0-.22-.22H256c-3,0-4.28.87-4.28,2.81,0,1.77,1.3,2.7,3.6,2.7C258.06,98.28,259.72,97,259.72,94.9Z"/><path class="cls-1" d="M267.6,96.66h2.52a.34.34,0,0,1,.36.36v3.35a1.14,1.14,0,0,1-.21.79l-2.24,3a.55.55,0,0,1-.46.25.32.32,0,0,1-.33-.32V97A.35.35,0,0,1,267.6,96.66Z"/><path class="cls-1" d="M281.93,96.19a13.43,13.43,0,0,1-.58-4.35,13.43,13.43,0,0,1,.54-4.36,7.26,7.26,0,0,1,13.54,0,15.08,15.08,0,0,1,.54,4.93.35.35,0,0,1-.4.36h-10.9a.2.2,0,0,0-.22.22,6.47,6.47,0,0,0,.29,2.09,4.25,4.25,0,0,0,4.35,3,5.65,5.65,0,0,0,4.43-1.91c.18-.18.36-.22.54-.08l1.48,1.34a.31.31,0,0,1,0,.5,8.37,8.37,0,0,1-6.73,3C285.35,100.87,282.87,99.18,281.93,96.19Zm10.73-5.83a.19.19,0,0,0,.21-.21,6.08,6.08,0,0,0-.25-2,4.25,4.25,0,0,0-7.92,0,6.08,6.08,0,0,0-.25,2c0,.14.07.21.22.21Z"/><path class="cls-1" d="M304.72,100.48c-.26,0-.36-.15-.43-.36l-6.2-16.53c-.07-.21,0-.35.29-.35h2.49c.25,0,.36.1.46.35L305.8,96h.07l4.35-12.39a.42.42,0,0,1,.44-.35h2.44c.26,0,.36.14.29.35l-6.15,16.53a.47.47,0,0,1-.47.36Z"/><path class="cls-1" d="M316.85,79.35a.34.34,0,0,1-.36-.36V76.36a.34.34,0,0,1,.36-.36h2.45a.34.34,0,0,1,.36.36V79a.35.35,0,0,1-.36.36Zm.07,21.13a.35.35,0,0,1-.36-.36V83.59a.34.34,0,0,1,.36-.35h2.3a.33.33,0,0,1,.36.35v16.53a.34.34,0,0,1-.36.36Z"/><path class="cls-1" d="M329.77,100.66c-3.35,0-4.64-1.52-4.64-4.9V85.9a.19.19,0,0,0-.22-.22h-1.44a.34.34,0,0,1-.36-.36V83.59a.34.34,0,0,1,.36-.35h1.44a.2.2,0,0,0,.22-.22V78.16a.34.34,0,0,1,.36-.36h2.3a.34.34,0,0,1,.36.36V83a.2.2,0,0,0,.22.22h2.73a.33.33,0,0,1,.36.35v1.73a.34.34,0,0,1-.36.36h-2.73a.19.19,0,0,0-.22.22v9.75c0,1.73.65,2.2,2.2,2.2h.75a.34.34,0,0,1,.36.36v2.09a.34.34,0,0,1-.36.36Z"/><path class="cls-1" d="M335,96.19a13.43,13.43,0,0,1-.58-4.35,13.43,13.43,0,0,1,.54-4.36,7.26,7.26,0,0,1,13.54,0,15.37,15.37,0,0,1,.54,4.93.35.35,0,0,1-.4.36H337.69a.19.19,0,0,0-.21.22,6.5,6.5,0,0,0,.28,2.09,4.27,4.27,0,0,0,4.36,3,5.65,5.65,0,0,0,4.43-1.91c.18-.18.36-.22.54-.08l1.47,1.34a.32.32,0,0,1,0,.5,8.38,8.38,0,0,1-6.73,3C338.38,100.87,335.89,99.18,335,96.19Zm10.72-5.83c.15,0,.22-.07.22-.21a6.08,6.08,0,0,0-.25-2,4.25,4.25,0,0,0-7.92,0,6.08,6.08,0,0,0-.25,2,.19.19,0,0,0,.21.21Z"/><path class="cls-1" d="M360.59,96.23a12.85,12.85,0,0,1-.58-4.39,12.78,12.78,0,0,1,.58-4.36c.93-3,3.45-4.64,6.8-4.64s5.87,1.69,6.8,4.64a12.78,12.78,0,0,1,.58,4.36,12.85,12.85,0,0,1-.58,4.39,7.3,7.3,0,0,1-13.6,0Zm10.69-.86a11.32,11.32,0,0,0,.39-3.53,11,11,0,0,0-.39-3.49,4.15,4.15,0,0,0-7.78,0,11.26,11.26,0,0,0-.39,3.49,11.63,11.63,0,0,0,.39,3.53,4.15,4.15,0,0,0,7.78,0Z"/><path class="cls-1" d="M379.27,100.48a.35.35,0,0,1-.36-.36V76.36a.34.34,0,0,1,.36-.36h2.31a.34.34,0,0,1,.36.36v8.85h0c.83-1.36,2.31-2.37,4.9-2.37A5.71,5.71,0,0,1,392.81,87a14.45,14.45,0,0,1,.61,4.86,14.5,14.5,0,0,1-.61,4.89,5.71,5.71,0,0,1-5.94,4.14c-2.59,0-4.07-1-4.9-2.41h0v1.66a.35.35,0,0,1-.36.36Zm10.66-5a12.28,12.28,0,0,0,.39-3.6,12.54,12.54,0,0,0-.39-3.6,4.08,4.08,0,0,0-7.6,0,11.18,11.18,0,0,0-.39,3.6,11.06,11.06,0,0,0,.39,3.6,4.06,4.06,0,0,0,7.6,0Z"/><path class="cls-1" d="M396.37,98.28a.35.35,0,0,1,0-.5l1.48-1.59a.35.35,0,0,1,.5,0,8.37,8.37,0,0,0,5.33,2c2.52,0,3.78-1.08,3.78-2.63,0-1.36-.65-2.12-3.35-2.41L402.27,93c-3.38-.36-5.14-2-5.14-4.86,0-3.27,2.34-5.25,6.41-5.25a10.31,10.31,0,0,1,6.11,1.91.35.35,0,0,1,.08.5L408.5,86.8a.35.35,0,0,1-.5.07,9.09,9.09,0,0,0-4.65-1.4c-2.15,0-3.27,1-3.27,2.37s.83,2.09,3.38,2.34l1.8.18c3.49.33,5.19,2.09,5.19,4.86,0,3.39-2.45,5.65-6.95,5.65A10.75,10.75,0,0,1,396.37,98.28Z"/><path class="cls-1" d="M419.48,100.66c-3.35,0-4.64-1.52-4.64-4.9V85.9a.19.19,0,0,0-.22-.22h-1.44a.34.34,0,0,1-.36-.36V83.59a.34.34,0,0,1,.36-.35h1.44a.2.2,0,0,0,.22-.22V78.16a.34.34,0,0,1,.36-.36h2.3a.34.34,0,0,1,.36.36V83a.2.2,0,0,0,.22.22h2.73a.33.33,0,0,1,.36.35v1.73a.34.34,0,0,1-.36.36h-2.73a.19.19,0,0,0-.22.22v9.75c0,1.73.65,2.2,2.2,2.2h.75a.34.34,0,0,1,.36.36v2.09a.34.34,0,0,1-.36.36Z"/><path class="cls-1" d="M425.5,100.48a.35.35,0,0,1-.37-.36V83.59a.34.34,0,0,1,.37-.35h2.3a.34.34,0,0,1,.36.35v1.77h0a4.81,4.81,0,0,1,4.58-2.52,5.29,5.29,0,0,1,3.52,1.29c.18.18.22.33.08.51L435,86.4a.32.32,0,0,1-.5.07,4.89,4.89,0,0,0-2.66-.82c-2.63,0-3.71,2-3.71,5v9.43a.35.35,0,0,1-.36.36Z"/><path class="cls-1" d="M450,100.48a.34.34,0,0,1-.36-.36V98.5h0a5.25,5.25,0,0,1-4.71,2.37c-3.78,0-6-2.59-6-6.51V83.59a.34.34,0,0,1,.36-.35h2.31a.34.34,0,0,1,.36.35v10c0,2.81,1.26,4.43,3.81,4.43,2.34,0,3.89-1.66,3.89-4.25V83.59a.33.33,0,0,1,.36-.35h2.3a.33.33,0,0,1,.36.35v16.53a.34.34,0,0,1-.36.36Z"/><path class="cls-1" d="M458.15,79.35a.34.34,0,0,1-.36-.36V76.36a.34.34,0,0,1,.36-.36h2.44a.34.34,0,0,1,.36.36V79a.34.34,0,0,1-.36.36Zm.07,21.13a.34.34,0,0,1-.36-.36V83.59a.33.33,0,0,1,.36-.35h2.3a.33.33,0,0,1,.36.35v16.53a.34.34,0,0,1-.36.36Z"/><path class="cls-1" d="M466.42,100.48a.34.34,0,0,1-.35-.36V83.59a.33.33,0,0,1,.35-.35h2.31a.33.33,0,0,1,.36.35v1.77h0a4.78,4.78,0,0,1,4.57-2.52,5.29,5.29,0,0,1,3.52,1.29c.18.18.22.33.08.51L476,86.4a.32.32,0,0,1-.5.07,4.89,4.89,0,0,0-2.66-.82c-2.63,0-3.71,2-3.71,5v9.43a.34.34,0,0,1-.36.36Z"/><path class="cls-1" d="M488.38,100.48a.35.35,0,0,1-.36-.36V83.59a.34.34,0,0,1,.36-.35h2.31a.34.34,0,0,1,.36.35v1.77h0a4.81,4.81,0,0,1,4.58-2.52,5.29,5.29,0,0,1,3.52,1.29c.18.18.22.33.07.51l-1.33,1.76a.32.32,0,0,1-.5.07,4.89,4.89,0,0,0-2.66-.82c-2.63,0-3.71,2-3.71,5v9.43a.35.35,0,0,1-.36.36Z"/><path class="cls-1" d="M512.9,100.48a.34.34,0,0,1-.36-.36V98.5h0a5.25,5.25,0,0,1-4.71,2.37c-3.78,0-6-2.59-6-6.51V83.59a.34.34,0,0,1,.36-.35h2.31a.34.34,0,0,1,.36.35v10c0,2.81,1.26,4.43,3.81,4.43,2.34,0,3.89-1.66,3.89-4.25V83.59a.33.33,0,0,1,.36-.35h2.3a.33.33,0,0,1,.36.35v16.53a.34.34,0,0,1-.36.36Z"/><path class="cls-1" d="M525.75,100.66c-3.35,0-4.64-1.52-4.64-4.9V85.9a.19.19,0,0,0-.22-.22h-1.44a.34.34,0,0,1-.36-.36V83.59a.34.34,0,0,1,.36-.35h1.44a.2.2,0,0,0,.22-.22V78.16a.34.34,0,0,1,.36-.36h2.3a.34.34,0,0,1,.36.36V83a.2.2,0,0,0,.22.22h2.73a.33.33,0,0,1,.36.35v1.73a.34.34,0,0,1-.36.36h-2.73a.19.19,0,0,0-.22.22v9.75c0,1.73.65,2.2,2.2,2.2h.75a.34.34,0,0,1,.36.36v2.09a.34.34,0,0,1-.36.36Z"/><path class="cls-1" d="M541.84,100.48a.35.35,0,0,1-.36-.36V98.61h0c-.8,1.29-2.49,2.26-5.12,2.26-3.27,0-5.79-1.69-5.79-5.18s2.52-5.33,6.73-5.33h3.92c.15,0,.22-.07.22-.21V88.89c0-2.38-.94-3.39-4.14-3.39a6.73,6.73,0,0,0-4.18,1.23.32.32,0,0,1-.5,0l-1-1.65a.39.39,0,0,1,.07-.51,9.56,9.56,0,0,1,5.87-1.69c4.89,0,6.77,1.62,6.77,5.87v11.41a.35.35,0,0,1-.36.36Zm-.43-5.58V93a.2.2,0,0,0-.22-.22h-3.45c-3,0-4.28.87-4.28,2.81,0,1.77,1.29,2.7,3.59,2.7C539.75,98.28,541.41,97,541.41,94.9Z"/><path class="cls-1" d="M548.18,98.28a.35.35,0,0,1,0-.5l1.48-1.59a.35.35,0,0,1,.5,0,8.37,8.37,0,0,0,5.33,2c2.52,0,3.78-1.08,3.78-2.63,0-1.36-.65-2.12-3.35-2.41L554.08,93c-3.38-.36-5.14-2-5.14-4.86,0-3.27,2.34-5.25,6.4-5.25a10.32,10.32,0,0,1,6.12,1.91.34.34,0,0,1,.07.5l-1.22,1.55a.35.35,0,0,1-.5.07,9.09,9.09,0,0,0-4.65-1.4c-2.16,0-3.27,1-3.27,2.37s.82,2.09,3.38,2.34l1.8.18c3.49.33,5.18,2.09,5.18,4.86,0,3.39-2.44,5.65-6.94,5.65A10.73,10.73,0,0,1,548.18,98.28Z"/><path class="cls-1" d="M585,100.48a.34.34,0,0,1-.35-.36V98.46h0c-.83,1.37-2.3,2.41-4.9,2.41a5.71,5.71,0,0,1-5.94-4.14,14.5,14.5,0,0,1-.61-4.89,14.45,14.45,0,0,1,.61-4.86,5.71,5.71,0,0,1,5.94-4.14c2.6,0,4.07,1,4.9,2.37h0V76.36A.33.33,0,0,1,585,76h2.31a.34.34,0,0,1,.36.36v23.76a.34.34,0,0,1-.36.36Zm-.75-5a11,11,0,0,0,.4-3.6,11.12,11.12,0,0,0-.4-3.6,4.08,4.08,0,0,0-7.6,0,12.54,12.54,0,0,0-.39,3.6,12.28,12.28,0,0,0,.39,3.6,4.06,4.06,0,0,0,7.6,0Z"/><path class="cls-1" d="M592.39,96.19a13.43,13.43,0,0,1-.58-4.35,13.43,13.43,0,0,1,.54-4.36,7.25,7.25,0,0,1,13.53,0,15.08,15.08,0,0,1,.54,4.93.35.35,0,0,1-.39.36H595.12a.19.19,0,0,0-.21.22,6.5,6.5,0,0,0,.28,2.09,4.27,4.27,0,0,0,4.36,3A5.65,5.65,0,0,0,604,96.16c.18-.18.36-.22.54-.08L606,97.42a.32.32,0,0,1,0,.5,8.38,8.38,0,0,1-6.73,3C595.81,100.87,593.32,99.18,592.39,96.19Zm10.72-5.83c.15,0,.22-.07.22-.21a6.08,6.08,0,0,0-.25-2,4.25,4.25,0,0,0-7.92,0,6.08,6.08,0,0,0-.25,2,.19.19,0,0,0,.21.21Z"/><path class="cls-1" d="M139.84,138.66c-3.35,0-4.64-1.52-4.64-4.9V123.9a.2.2,0,0,0-.22-.22h-1.44a.34.34,0,0,1-.36-.36v-1.73a.33.33,0,0,1,.36-.35H135a.2.2,0,0,0,.22-.22v-4.86a.34.34,0,0,1,.36-.36h2.3a.34.34,0,0,1,.36.36V121a.2.2,0,0,0,.22.22h2.73a.33.33,0,0,1,.36.35v1.73a.34.34,0,0,1-.36.36h-2.73a.19.19,0,0,0-.22.22v9.75c0,1.73.65,2.2,2.2,2.2h.75a.34.34,0,0,1,.36.36v2.09a.34.34,0,0,1-.36.36Z"/><path class="cls-1" d="M145.85,138.48a.35.35,0,0,1-.36-.36V121.59a.34.34,0,0,1,.36-.35h2.31a.34.34,0,0,1,.36.35v1.77h0a4.8,4.8,0,0,1,4.57-2.52,5.3,5.3,0,0,1,3.53,1.29c.18.18.22.33.07.51l-1.33,1.76a.32.32,0,0,1-.5.07,4.92,4.92,0,0,0-2.67-.82c-2.62,0-3.7,2-3.7,5v9.43a.35.35,0,0,1-.36.36Z"/><path class="cls-1" d="M169.11,138.48a.34.34,0,0,1-.36-.36v-1.51h0c-.79,1.29-2.48,2.26-5.11,2.26-3.28,0-5.8-1.69-5.8-5.18s2.52-5.33,6.74-5.33h3.92a.19.19,0,0,0,.21-.21v-1.26c0-2.38-.93-3.39-4.13-3.39a6.71,6.71,0,0,0-4.18,1.23c-.18.14-.4.14-.5,0l-1-1.65a.39.39,0,0,1,.08-.51,9.53,9.53,0,0,1,5.86-1.69c4.9,0,6.77,1.62,6.77,5.87v11.41a.34.34,0,0,1-.36.36Zm-.44-5.58V131a.19.19,0,0,0-.21-.22H165c-3,0-4.28.87-4.28,2.81,0,1.77,1.3,2.7,3.6,2.7C167,136.28,168.67,135,168.67,132.9Z"/><path class="cls-1" d="M187.83,138.48a.34.34,0,0,1-.36-.36V128c0-2.77-1.26-4.39-3.85-4.39a3.87,3.87,0,0,0-4,4.21v10.26a.35.35,0,0,1-.37.36H177a.35.35,0,0,1-.36-.36V121.59a.34.34,0,0,1,.36-.35h2.3a.34.34,0,0,1,.37.35v1.59h0a5.45,5.45,0,0,1,4.82-2.34c3.75,0,6,2.55,6,6.48v10.8a.34.34,0,0,1-.36.36Z"/><path class="cls-1" d="M194.31,136.28a.33.33,0,0,1,0-.5l1.47-1.59a.36.36,0,0,1,.51,0,8.34,8.34,0,0,0,5.33,2c2.51,0,3.77-1.08,3.77-2.63,0-1.36-.64-2.12-3.34-2.41l-1.84-.18c-3.38-.36-5.15-2-5.15-4.86,0-3.27,2.34-5.25,6.41-5.25a10.32,10.32,0,0,1,6.12,1.91.34.34,0,0,1,.07.5l-1.22,1.55a.36.36,0,0,1-.51.07,9.06,9.06,0,0,0-4.64-1.4c-2.16,0-3.27,1-3.27,2.37s.82,2.09,3.38,2.34l1.8.18c3.49.33,5.18,2.09,5.18,4.86,0,3.39-2.45,5.65-6.95,5.65A10.72,10.72,0,0,1,194.31,136.28Z"/><path class="cls-1" d="M212.7,117.35a.35.35,0,0,1-.36-.36v-2.63a.34.34,0,0,1,.36-.36h2.45a.34.34,0,0,1,.36.36V117a.34.34,0,0,1-.36.36Zm.08,21.13a.34.34,0,0,1-.36-.36V121.59a.33.33,0,0,1,.36-.35h2.3a.34.34,0,0,1,.36.35v16.53a.35.35,0,0,1-.36.36Z"/><path class="cls-1" d="M225.63,138.66c-3.35,0-4.65-1.52-4.65-4.9V123.9c0-.15-.07-.22-.21-.22h-1.44a.34.34,0,0,1-.36-.36v-1.73a.33.33,0,0,1,.36-.35h1.44A.19.19,0,0,0,221,121v-4.86a.34.34,0,0,1,.36-.36h2.31a.34.34,0,0,1,.36.36V121a.19.19,0,0,0,.21.22H227a.34.34,0,0,1,.36.35v1.73a.34.34,0,0,1-.36.36h-2.74c-.14,0-.21.07-.21.22v9.75c0,1.73.64,2.2,2.19,2.2H227a.34.34,0,0,1,.36.36v2.09a.35.35,0,0,1-.36.36Z"/><path class="cls-1" d="M230.81,134.23a16.79,16.79,0,0,1,0-8.75c.94-3,3.46-4.64,6.8-4.64s5.87,1.69,6.81,4.64a17.07,17.07,0,0,1,0,8.75,7.31,7.31,0,0,1-13.61,0Zm10.69-.86a11.27,11.27,0,0,0,.4-3.53,10.91,10.91,0,0,0-.4-3.49,4.15,4.15,0,0,0-7.77,0,10.91,10.91,0,0,0-.4,3.49,11.27,11.27,0,0,0,.4,3.53,4.15,4.15,0,0,0,7.77,0Z"/><path class="cls-1" d="M257.2,145a.34.34,0,0,1-.36-.36v-2.09a.34.34,0,0,1,.36-.36h.65c1.4,0,2.16-.61,2.91-2.59l.58-1.59L255,121.59c-.07-.21,0-.35.29-.35h2.52a.41.41,0,0,1,.43.35l4.54,12.46h.07l4.35-12.46a.42.42,0,0,1,.44-.35h2.44c.22,0,.36.14.29.35l-6.8,18.22c-1.51,4.07-2.85,5.15-5.44,5.15Z"/><path class="cls-1" d="M280.7,114a.48.48,0,0,1,.47-.36h1.95a.25.25,0,0,1,.25.36l-8,24.55a.47.47,0,0,1-.47.36H273c-.21,0-.32-.14-.25-.36Z"/><path class="cls-1" d="M287.33,134.23a16.79,16.79,0,0,1,0-8.75c.94-3,3.46-4.64,6.8-4.64s5.87,1.69,6.81,4.64a17.07,17.07,0,0,1,0,8.75,7.31,7.31,0,0,1-13.61,0Zm10.69-.86a11.27,11.27,0,0,0,.4-3.53,10.91,10.91,0,0,0-.4-3.49,4.15,4.15,0,0,0-7.77,0,10.91,10.91,0,0,0-.4,3.49,11.27,11.27,0,0,0,.4,3.53,4.15,4.15,0,0,0,7.77,0Z"/><path class="cls-1" d="M313.1,134.19a17.36,17.36,0,0,1,0-8.71,7.25,7.25,0,0,1,13.53,0,15.08,15.08,0,0,1,.54,4.93.35.35,0,0,1-.39.36H315.84a.2.2,0,0,0-.22.22,6.47,6.47,0,0,0,.29,2.09,4.27,4.27,0,0,0,4.36,3,5.65,5.65,0,0,0,4.43-1.91c.18-.18.35-.22.53-.08l1.48,1.34a.32.32,0,0,1,0,.5,8.38,8.38,0,0,1-6.73,3C316.52,138.87,314,137.18,313.1,134.19Zm10.73-5.83a.19.19,0,0,0,.22-.21,6.05,6.05,0,0,0-.26-2,4.25,4.25,0,0,0-7.91,0,6.05,6.05,0,0,0-.26,2,.19.19,0,0,0,.22.21Z"/><path class="cls-1" d="M335.89,138.48c-.25,0-.36-.15-.43-.36l-6.19-16.53c-.07-.21,0-.35.29-.35H332c.25,0,.36.1.47.35L337,134H337l4.36-12.39a.41.41,0,0,1,.43-.35h2.45c.25,0,.36.14.29.35l-6.16,16.53a.47.47,0,0,1-.47.36Z"/><path class="cls-1" d="M358,138.48a.35.35,0,0,1-.36-.36v-1.51h0c-.79,1.29-2.48,2.26-5.11,2.26-3.28,0-5.8-1.69-5.8-5.18s2.52-5.33,6.73-5.33h3.93a.19.19,0,0,0,.21-.21v-1.26c0-2.38-.93-3.39-4.14-3.39a6.7,6.7,0,0,0-4.17,1.23.33.33,0,0,1-.51,0l-1-1.65a.39.39,0,0,1,.07-.51,9.58,9.58,0,0,1,5.87-1.69c4.9,0,6.77,1.62,6.77,5.87v11.41a.35.35,0,0,1-.36.36Zm-.43-5.58V131a.19.19,0,0,0-.21-.22h-3.46c-3,0-4.28.87-4.28,2.81,0,1.77,1.29,2.7,3.6,2.7C355.91,136.28,357.56,135,357.56,132.9Z"/><path class="cls-1" d="M365,125.48a6.68,6.68,0,0,1,6.8-4.64,6.92,6.92,0,0,1,5.9,2.91c.11.18.11.33-.11.51L376,125.55a.31.31,0,0,1-.5,0,4.24,4.24,0,0,0-3.71-1.87,3.74,3.74,0,0,0-3.85,2.7,11.4,11.4,0,0,0-.4,3.49,11.52,11.52,0,0,0,.4,3.53,3.74,3.74,0,0,0,3.85,2.7,4.25,4.25,0,0,0,3.71-1.88.31.31,0,0,1,.5,0l1.58,1.29c.22.18.22.33.11.51a6.9,6.9,0,0,1-5.9,2.91c-3.31,0-5.83-1.65-6.8-4.64a18,18,0,0,1,0-8.75Z"/><path class="cls-1" d="M392.63,138.48a.34.34,0,0,1-.36-.36V136.5h0a5.25,5.25,0,0,1-4.72,2.37c-3.78,0-6-2.59-6-6.51V121.59a.33.33,0,0,1,.36-.35h2.3a.33.33,0,0,1,.36.35v10c0,2.81,1.26,4.43,3.82,4.43,2.34,0,3.89-1.66,3.89-4.25V121.59a.33.33,0,0,1,.36-.35h2.3a.33.33,0,0,1,.36.35v16.53a.34.34,0,0,1-.36.36Z"/><path class="cls-1" d="M410.91,138.48a.35.35,0,0,1-.36-.36v-1.51h0c-.79,1.29-2.49,2.26-5.11,2.26-3.28,0-5.8-1.69-5.8-5.18s2.52-5.33,6.73-5.33h3.93a.19.19,0,0,0,.21-.21v-1.26c0-2.38-.93-3.39-4.14-3.39a6.68,6.68,0,0,0-4.17,1.23.33.33,0,0,1-.51,0l-1-1.65a.39.39,0,0,1,.07-.51,9.56,9.56,0,0,1,5.87-1.69c4.9,0,6.77,1.62,6.77,5.87v11.41a.35.35,0,0,1-.36.36Zm-.43-5.58V131a.19.19,0,0,0-.21-.22h-3.46c-3,0-4.28.87-4.28,2.81,0,1.77,1.29,2.7,3.6,2.7C408.83,136.28,410.48,135,410.48,132.9Z"/><path class="cls-1" d="M417.93,125.48a6.7,6.7,0,0,1,6.81-4.64,6.92,6.92,0,0,1,5.9,2.91c.11.18.11.33-.11.51L429,125.55a.31.31,0,0,1-.5,0,4.24,4.24,0,0,0-3.71-1.87,3.74,3.74,0,0,0-3.85,2.7,11.4,11.4,0,0,0-.4,3.49,11.52,11.52,0,0,0,.4,3.53,3.74,3.74,0,0,0,3.85,2.7,4.25,4.25,0,0,0,3.71-1.88.31.31,0,0,1,.5,0l1.58,1.29c.22.18.22.33.11.51a6.9,6.9,0,0,1-5.9,2.91,6.69,6.69,0,0,1-6.81-4.64,18,18,0,0,1,0-8.75Z"/><path class="cls-1" d="M435,117.35a.34.34,0,0,1-.36-.36v-2.63A.34.34,0,0,1,435,114h2.45a.34.34,0,0,1,.36.36V117a.35.35,0,0,1-.36.36Zm.07,21.13a.34.34,0,0,1-.36-.36V121.59a.33.33,0,0,1,.36-.35h2.3a.33.33,0,0,1,.36.35v16.53a.34.34,0,0,1-.36.36Z"/><path class="cls-1" d="M442.45,134.23a16.79,16.79,0,0,1,0-8.75c.94-3,3.46-4.64,6.8-4.64s5.87,1.69,6.81,4.64a17.07,17.07,0,0,1,0,8.75,7.31,7.31,0,0,1-13.61,0Zm10.69-.86a11.27,11.27,0,0,0,.4-3.53,10.91,10.91,0,0,0-.4-3.49,4.15,4.15,0,0,0-7.77,0,10.91,10.91,0,0,0-.4,3.49,11.27,11.27,0,0,0,.4,3.53,4.15,4.15,0,0,0,7.77,0ZM448,118.43c-.22,0-.33-.15-.22-.36l2.74-4.43a.63.63,0,0,1,.61-.36h2.37c.22,0,.33.18.18.36l-3.31,4.43a.7.7,0,0,1-.68.36Z"/><path class="cls-1" d="M472,138.48a.34.34,0,0,1-.36-.36V128c0-2.77-1.26-4.39-3.85-4.39a3.87,3.87,0,0,0-4,4.21v10.26a.35.35,0,0,1-.36.36h-2.31a.35.35,0,0,1-.36-.36V121.59a.34.34,0,0,1,.36-.35h2.31a.34.34,0,0,1,.36.35v1.59h0a5.47,5.47,0,0,1,4.83-2.34c3.74,0,6,2.55,6,6.48v10.8a.34.34,0,0,1-.36.36Z"/></g></g></svg>