<svg xmlns="http://www.w3.org/2000/svg" viewBox="0 0 390.3 322.23"><defs><style>.cls-1{font-size:40px;font-family:DINNextLTPro-Medium, DIN Next LT Pro;font-weight:500;letter-spacing:-0.06em;}.cls-2{letter-spacing:-0.06em;}.cls-3{letter-spacing:-0.07em;}.cls-4{letter-spacing:-0.06em;}.cls-5{letter-spacing:-0.07em;}.cls-6{letter-spacing:-0.08em;}.cls-7{letter-spacing:-0.08em;}.cls-8{letter-spacing:-0.08em;}.cls-9{letter-spacing:-0.07em;}</style></defs><title>r14</title><g id="Capa_2" data-name="Capa 2"><g id="fondo"><text class="cls-1" transform="translate(30.33 33.6)">A<tspan class="cls-2" x="22.16" y="0">l </tspan><tspan class="cls-3" x="38.44" y="0">r</tspan><tspan class="cls-2" x="52.56" y="0">ealizar labo</tspan><tspan class="cls-3" x="229.43" y="0">r</tspan><tspan class="cls-4" x="243.55" y="0">es en </tspan><tspan class="cls-2"><tspan x="-15.32" y="38">zonas con p</tspan><tspan class="cls-3" x="163.88" y="38">r</tspan><tspan class="cls-4" x="178" y="38">esencia de </tspan><tspan x="-28.42" y="76">vías </tspan><tspan class="cls-5" x="39.62" y="76">v</tspan><tspan x="56.42" y="76">ehicula</tspan><tspan class="cls-3" x="166.02" y="76">r</tspan><tspan x="180.14" y="76">es</tspan><tspan class="cls-6" x="216.09" y="76">,</tspan><tspan class="cls-4" x="222.77" y="76" xml:space="preserve"> delimite </tspan><tspan x="15.22" y="114">el á</tspan><tspan class="cls-3" x="68.46" y="114">r</tspan><tspan x="82.58" y="114">ea de t</tspan><tspan class="cls-7" x="181.9" y="114">r</tspan><tspan x="195.69" y="114">abajo</tspan><tspan class="cls-8" x="278.57" y="114">,</tspan><tspan x="285.25" y="114" xml:space="preserve"> y </tspan></tspan><tspan class="cls-3"><tspan x="-12.8" y="152">r</tspan><tspan class="cls-2" x="1.32" y="152">ecue</tspan><tspan class="cls-9" x="74.16" y="152">r</tspan><tspan class="cls-2" x="88.32" y="152">de siemp</tspan><tspan x="227.8" y="152">r</tspan><tspan class="cls-2" x="241.92" y="152">e usar </tspan></tspan><tspan class="cls-2"><tspan x="7.4" y="190" xml:space="preserve">cruces peatonales  y </tspan><tspan x="76.2" y="228">semáfo</tspan><tspan class="cls-3" x="191.24" y="228">r</tspan><tspan class="cls-4" x="205.36" y="228">os</tspan><tspan class="cls-6" x="241.4" y="228">.</tspan></tspan></text></g></g></svg>