<svg xmlns="http://www.w3.org/2000/svg" viewBox="0 0 675.81 259.68"><defs><style>.cls-1{fill:#4d4d4d;}</style></defs><title>r14</title><g id="Capa_2" data-name="Capa 2"><g id="control_vector" data-name="control vector"><path class="cls-1" d="M69.12,1.08a.34.34,0,0,1,.36-.36h8.24c4.14,0,6.88,1.76,8,5.22.43,1.33.65,2.66.65,7s-.22,5.69-.65,7c-1.11,3.45-3.85,5.22-8,5.22H69.48a.34.34,0,0,1-.36-.36Zm3.42,21.13H77c2.95,0,4.78-1,5.58-3.35.32-.9.5-2.09.5-5.9s-.18-5-.5-5.91C81.82,4.68,80,3.71,77,3.71h-4.5c-.15,0-.22.07-.22.21V22A.19.19,0,0,0,72.54,22.21Z"/><path class="cls-1" d="M101.59,25.2a.34.34,0,0,1-.36-.36V23.22h0a5.25,5.25,0,0,1-4.71,2.37c-3.78,0-6-2.59-6-6.51V8.31A.34.34,0,0,1,90.86,8h2.31a.34.34,0,0,1,.36.35v10c0,2.81,1.26,4.43,3.81,4.43,2.34,0,3.89-1.66,3.89-4.25V8.31a.33.33,0,0,1,.36-.35h2.3a.33.33,0,0,1,.36.35V24.84a.34.34,0,0,1-.36.36Z"/><path class="cls-1" d="M109.8,25.2a.34.34,0,0,1-.36-.36V8.31A.33.33,0,0,1,109.8,8h2.3a.33.33,0,0,1,.36.35v1.77h0a4.78,4.78,0,0,1,4.57-2.52,5.32,5.32,0,0,1,3.53,1.29c.18.18.21.33.07.51l-1.33,1.76a.33.33,0,0,1-.51.07,4.86,4.86,0,0,0-2.66-.82c-2.63,0-3.71,2.05-3.71,5v9.43a.34.34,0,0,1-.36.36Z"/><path class="cls-1" d="M133.05,25.2a.35.35,0,0,1-.36-.36V23.33h0c-.8,1.29-2.49,2.26-5.12,2.26-3.27,0-5.79-1.69-5.79-5.18,0-3.64,2.52-5.33,6.73-5.33h3.92c.15,0,.22-.07.22-.21V13.61c0-2.38-.94-3.39-4.14-3.39a6.73,6.73,0,0,0-4.18,1.23.32.32,0,0,1-.5,0l-1-1.66a.38.38,0,0,1,.07-.5,9.56,9.56,0,0,1,5.87-1.69c4.89,0,6.77,1.62,6.77,5.87V24.84a.35.35,0,0,1-.36.36Zm-.43-5.58V17.71a.2.2,0,0,0-.22-.22H129c-3,0-4.28.87-4.28,2.81,0,1.77,1.29,2.7,3.59,2.7C131,23,132.62,21.74,132.62,19.62Z"/><path class="cls-1" d="M151.77,25.2a.35.35,0,0,1-.36-.36V14.76c0-2.77-1.26-4.39-3.85-4.39a3.87,3.87,0,0,0-4,4.21V24.84a.34.34,0,0,1-.36.36h-2.3a.34.34,0,0,1-.36-.36V8.31a.33.33,0,0,1,.36-.35h2.3a.33.33,0,0,1,.36.35V9.9h0a5.44,5.44,0,0,1,4.82-2.34c3.74,0,6,2.55,6,6.48v10.8a.35.35,0,0,1-.36.36Z"/><path class="cls-1" d="M164.44,25.38c-3.34,0-4.64-1.52-4.64-4.9V10.62a.19.19,0,0,0-.22-.22h-1.44a.33.33,0,0,1-.35-.36V8.31a.33.33,0,0,1,.35-.35h1.44a.2.2,0,0,0,.22-.22V2.88a.34.34,0,0,1,.36-.36h2.3a.34.34,0,0,1,.36.36V7.74A.2.2,0,0,0,163,8h2.74a.34.34,0,0,1,.36.35V10a.34.34,0,0,1-.36.36H163a.2.2,0,0,0-.22.22v9.75c0,1.73.65,2.2,2.2,2.2h.76a.34.34,0,0,1,.36.36V25a.35.35,0,0,1-.36.36Z"/><path class="cls-1" d="M169.63,20.91a13.43,13.43,0,0,1-.58-4.35,13.43,13.43,0,0,1,.54-4.36,7.26,7.26,0,0,1,13.54,0,15.08,15.08,0,0,1,.54,4.93.35.35,0,0,1-.4.36H172.36a.19.19,0,0,0-.21.22,6.47,6.47,0,0,0,.29,2.09,4.25,4.25,0,0,0,4.35,3,5.65,5.65,0,0,0,4.43-1.91c.18-.18.36-.22.54-.08l1.48,1.34a.31.31,0,0,1,0,.5,8.38,8.38,0,0,1-6.73,2.95C173.05,25.59,170.56,23.9,169.63,20.91Zm10.73-5.83a.19.19,0,0,0,.21-.21,6.08,6.08,0,0,0-.25-1.95,4.25,4.25,0,0,0-7.92,0,6.08,6.08,0,0,0-.25,1.95.19.19,0,0,0,.21.21Z"/><path class="cls-1" d="M199.87,25.38c-3,0-4.21-1.44-4.21-4.54V1.08A.34.34,0,0,1,196,.72h2.3a.34.34,0,0,1,.36.36V20.66c0,1.44.54,1.91,1.73,1.91h.68a.34.34,0,0,1,.36.36V25a.34.34,0,0,1-.36.36Z"/><path class="cls-1" d="M215.42,25.2a.34.34,0,0,1-.36-.36V23.33h0c-.79,1.29-2.48,2.26-5.11,2.26-3.27,0-5.79-1.69-5.79-5.18,0-3.64,2.52-5.33,6.73-5.33h3.92a.19.19,0,0,0,.22-.21V13.61c0-2.38-.94-3.39-4.14-3.39a6.71,6.71,0,0,0-4.18,1.23.32.32,0,0,1-.5,0l-1-1.66a.37.37,0,0,1,.07-.5,9.53,9.53,0,0,1,5.86-1.69c4.9,0,6.77,1.62,6.77,5.87V24.84a.34.34,0,0,1-.36.36ZM215,19.62V17.71a.2.2,0,0,0-.22-.22h-3.46c-3,0-4.28.87-4.28,2.81,0,1.77,1.3,2.7,3.6,2.7C213.33,23,215,21.74,215,19.62Z"/><path class="cls-1" d="M231.22,25.2a.35.35,0,0,1-.36-.36V8.31a.34.34,0,0,1,.36-.35h2.31a.34.34,0,0,1,.36.35v1.77h0a4.8,4.8,0,0,1,4.57-2.52A5.3,5.3,0,0,1,242,8.85c.18.18.22.33.07.51l-1.33,1.76a.32.32,0,0,1-.5.07,4.89,4.89,0,0,0-2.67-.82c-2.62,0-3.7,2.05-3.7,5v9.43a.35.35,0,0,1-.36.36Z"/><path class="cls-1" d="M243.79,20.91a13.43,13.43,0,0,1-.58-4.35,13.43,13.43,0,0,1,.54-4.36,7.26,7.26,0,0,1,13.54,0,15.08,15.08,0,0,1,.54,4.93.35.35,0,0,1-.4.36H246.52a.19.19,0,0,0-.21.22,6.8,6.8,0,0,0,.28,2.09,4.27,4.27,0,0,0,4.36,3,5.65,5.65,0,0,0,4.43-1.91c.18-.18.36-.22.54-.08l1.47,1.34a.32.32,0,0,1,0,.5,8.38,8.38,0,0,1-6.73,2.95C247.21,25.59,244.72,23.9,243.79,20.91Zm10.72-5.83c.15,0,.22-.07.22-.21a6.08,6.08,0,0,0-.25-1.95,4.25,4.25,0,0,0-7.92,0,6.08,6.08,0,0,0-.25,1.95.19.19,0,0,0,.21.21Z"/><path class="cls-1" d="M272.41,25.2a.35.35,0,0,1-.37-.36V23.33h0c-.79,1.29-2.48,2.26-5.11,2.26-3.28,0-5.8-1.69-5.8-5.18,0-3.64,2.52-5.33,6.73-5.33h3.93a.19.19,0,0,0,.21-.21V13.61c0-2.38-.93-3.39-4.14-3.39a6.7,6.7,0,0,0-4.17,1.23.33.33,0,0,1-.51,0l-1-1.66a.38.38,0,0,1,.07-.5,9.58,9.58,0,0,1,5.87-1.69c4.9,0,6.77,1.62,6.77,5.87V24.84a.34.34,0,0,1-.36.36ZM272,19.62V17.71a.19.19,0,0,0-.21-.22H268.3c-3,0-4.28.87-4.28,2.81,0,1.77,1.29,2.7,3.6,2.7C270.32,23,272,21.74,272,19.62Z"/><path class="cls-1" d="M284.07,25.38c-3,0-4.21-1.44-4.21-4.54V1.08a.34.34,0,0,1,.36-.36h2.3a.34.34,0,0,1,.36.36V20.66c0,1.44.54,1.91,1.73,1.91h.68a.34.34,0,0,1,.36.36V25a.34.34,0,0,1-.36.36Z"/><path class="cls-1" d="M289.47,4.07a.34.34,0,0,1-.36-.36V1.08a.34.34,0,0,1,.36-.36h2.45a.34.34,0,0,1,.36.36V3.71a.35.35,0,0,1-.36.36Zm.07,21.13a.35.35,0,0,1-.36-.36V8.31a.34.34,0,0,1,.36-.35h2.31a.34.34,0,0,1,.36.35V24.84a.35.35,0,0,1-.36.36Z"/><path class="cls-1" d="M296.78,25.2a.34.34,0,0,1-.36-.36V22.93a.55.55,0,0,1,.14-.4L306,10.76v-.07h-8.78a.34.34,0,0,1-.36-.36v-2a.33.33,0,0,1,.36-.35h12a.34.34,0,0,1,.36.35v2a.56.56,0,0,1-.15.4l-9.39,11.66v.07h9.18a.34.34,0,0,1,.36.36v2a.35.35,0,0,1-.36.36Z"/><path class="cls-1" d="M324.28,25.2a.34.34,0,0,1-.36-.36V23.33h0c-.79,1.29-2.48,2.26-5.11,2.26-3.27,0-5.79-1.69-5.79-5.18,0-3.64,2.52-5.33,6.73-5.33h3.92c.15,0,.22-.07.22-.21V13.61c0-2.38-.94-3.39-4.14-3.39a6.71,6.71,0,0,0-4.18,1.23.32.32,0,0,1-.5,0l-1-1.66a.38.38,0,0,1,.07-.5A9.54,9.54,0,0,1,320,7.56c4.89,0,6.76,1.62,6.76,5.87V24.84a.34.34,0,0,1-.36.36Zm-.43-5.58V17.71a.2.2,0,0,0-.22-.22h-3.45c-3,0-4.29.87-4.29,2.81,0,1.77,1.3,2.7,3.6,2.7C322.19,23,323.85,21.74,323.85,19.62Z"/><path class="cls-1" d="M331.3,12.2c1-3,3.49-4.64,6.8-4.64A6.92,6.92,0,0,1,344,10.47c.11.18.11.33-.11.51l-1.58,1.29a.32.32,0,0,1-.51,0,4.24,4.24,0,0,0-3.71-1.87,3.74,3.74,0,0,0-3.85,2.7,11.44,11.44,0,0,0-.39,3.49,11.45,11.45,0,0,0,.39,3.52,3.75,3.75,0,0,0,3.85,2.71,4.25,4.25,0,0,0,3.71-1.88.32.32,0,0,1,.51,0l1.58,1.29c.22.18.22.33.11.51a6.92,6.92,0,0,1-5.91,2.91c-3.31,0-5.83-1.65-6.8-4.64a15,15,0,0,1-.54-4.39A15,15,0,0,1,331.3,12.2Z"/><path class="cls-1" d="M348.36,4.07a.35.35,0,0,1-.36-.36V1.08a.34.34,0,0,1,.36-.36h2.45a.34.34,0,0,1,.36.36V3.71a.34.34,0,0,1-.36.36Zm.08,21.13a.34.34,0,0,1-.36-.36V8.31a.33.33,0,0,1,.36-.35h2.3a.33.33,0,0,1,.36.35V24.84a.34.34,0,0,1-.36.36Z"/><path class="cls-1" d="M355.82,21a12.85,12.85,0,0,1-.58-4.39,12.78,12.78,0,0,1,.58-4.36c.93-2.95,3.45-4.64,6.8-4.64s5.87,1.69,6.8,4.64a12.78,12.78,0,0,1,.58,4.36,12.85,12.85,0,0,1-.58,4.39,7.3,7.3,0,0,1-13.6,0Zm10.69-.87a11.52,11.52,0,0,0,.39-3.52,11.26,11.26,0,0,0-.39-3.49,4.15,4.15,0,0,0-7.78,0,11,11,0,0,0-.39,3.49,11.21,11.21,0,0,0,.39,3.52,4.15,4.15,0,0,0,7.78,0ZM361.32,5.15c-.21,0-.32-.15-.21-.36L363.84.36a.65.65,0,0,1,.62-.36h2.37c.22,0,.32.18.18.36L363.7,4.79a.71.71,0,0,1-.68.36Z"/><path class="cls-1" d="M385.33,25.2a.35.35,0,0,1-.36-.36V14.76c0-2.77-1.26-4.39-3.85-4.39a3.87,3.87,0,0,0-4,4.21V24.84a.34.34,0,0,1-.36.36h-2.3a.34.34,0,0,1-.36-.36V8.31A.33.33,0,0,1,374.5,8h2.3a.33.33,0,0,1,.36.35V9.9h0A5.45,5.45,0,0,1,382,7.56c3.75,0,6,2.55,6,6.48v10.8a.35.35,0,0,1-.36.36Z"/><path class="cls-1" d="M411.72,25.2a.35.35,0,0,1-.36-.36V23.18h0c-.83,1.37-2.31,2.41-4.9,2.41-3,0-5.07-1.4-5.94-4.14a14.28,14.28,0,0,1-.61-4.89,14.2,14.2,0,0,1,.61-4.86c.87-2.74,2.95-4.14,5.94-4.14,2.59,0,4.07,1,4.9,2.37h0V1.08a.34.34,0,0,1,.36-.36H414a.33.33,0,0,1,.35.36V24.84a.34.34,0,0,1-.35.36Zm-.75-5a11.35,11.35,0,0,0,.39-3.6A11.47,11.47,0,0,0,411,13a4.08,4.08,0,0,0-7.6,0,12.15,12.15,0,0,0-.4,3.6,11.89,11.89,0,0,0,.4,3.6,4.06,4.06,0,0,0,7.6,0Z"/><path class="cls-1" d="M419.1,20.91a13.48,13.48,0,0,1-.57-4.35,13.43,13.43,0,0,1,.54-4.36,7.25,7.25,0,0,1,13.53,0,15.08,15.08,0,0,1,.54,4.93.35.35,0,0,1-.39.36H421.84a.2.2,0,0,0-.22.22,6.47,6.47,0,0,0,.29,2.09,4.26,4.26,0,0,0,4.36,3,5.61,5.61,0,0,0,4.42-1.91c.18-.18.36-.22.54-.08l1.48,1.34a.32.32,0,0,1,0,.5A8.39,8.39,0,0,1,426,25.59C422.52,25.59,420,23.9,419.1,20.91Zm10.73-5.83a.19.19,0,0,0,.22-.21,6.05,6.05,0,0,0-.26-1.95,4.25,4.25,0,0,0-7.91,0,6.05,6.05,0,0,0-.26,1.95.19.19,0,0,0,.22.21Z"/><path class="cls-1" d="M455.64,25.2a.34.34,0,0,1-.36-.36V23.33h0c-.8,1.29-2.49,2.26-5.12,2.26-3.27,0-5.79-1.69-5.79-5.18,0-3.64,2.52-5.33,6.73-5.33H455c.15,0,.22-.07.22-.21V13.61c0-2.38-.94-3.39-4.14-3.39a6.73,6.73,0,0,0-4.18,1.23.32.32,0,0,1-.5,0l-1-1.66a.38.38,0,0,1,.07-.5,9.56,9.56,0,0,1,5.87-1.69c4.89,0,6.77,1.62,6.77,5.87V24.84a.35.35,0,0,1-.37.36Zm-.43-5.58V17.71a.2.2,0,0,0-.22-.22h-3.45c-3,0-4.29.87-4.29,2.81,0,1.77,1.3,2.7,3.6,2.7C453.55,23,455.21,21.74,455.21,19.62Z"/><path class="cls-1" d="M462.66,12.2c1-3,3.49-4.64,6.8-4.64a6.92,6.92,0,0,1,5.91,2.91c.11.18.11.33-.11.51l-1.58,1.29a.32.32,0,0,1-.51,0,4.23,4.23,0,0,0-3.71-1.87,3.74,3.74,0,0,0-3.85,2.7,11.77,11.77,0,0,0-.39,3.49,11.77,11.77,0,0,0,.39,3.52,3.75,3.75,0,0,0,3.85,2.71,4.24,4.24,0,0,0,3.71-1.88.32.32,0,0,1,.51,0l1.58,1.29c.22.18.22.33.11.51a6.92,6.92,0,0,1-5.91,2.91c-3.31,0-5.83-1.65-6.8-4.64a15,15,0,0,1-.54-4.39A15,15,0,0,1,462.66,12.2Z"/><path class="cls-1" d="M484.44,25.38c-3.35,0-4.64-1.52-4.64-4.9V10.62a.19.19,0,0,0-.22-.22h-1.44a.34.34,0,0,1-.36-.36V8.31a.34.34,0,0,1,.36-.35h1.44a.2.2,0,0,0,.22-.22V2.88a.34.34,0,0,1,.36-.36h2.3a.34.34,0,0,1,.36.36V7.74A.2.2,0,0,0,483,8h2.73a.33.33,0,0,1,.36.35V10a.34.34,0,0,1-.36.36H483a.19.19,0,0,0-.22.22v9.75c0,1.73.65,2.2,2.2,2.2h.75a.34.34,0,0,1,.36.36V25a.34.34,0,0,1-.36.36Z"/><path class="cls-1" d="M490.38,4.07a.35.35,0,0,1-.36-.36V1.08a.34.34,0,0,1,.36-.36h2.45a.34.34,0,0,1,.36.36V3.71a.35.35,0,0,1-.36.36Zm.07,21.13a.35.35,0,0,1-.36-.36V8.31a.34.34,0,0,1,.36-.35h2.31a.34.34,0,0,1,.36.35V24.84a.35.35,0,0,1-.36.36Z"/><path class="cls-1" d="M502.91,25.2c-.25,0-.36-.15-.43-.36L496.29,8.31c-.08-.21,0-.35.28-.35h2.49c.25,0,.36.1.46.35L504,20.7h.07l4.36-12.39a.41.41,0,0,1,.43-.35h2.44c.26,0,.37.14.29.35l-6.15,16.53a.47.47,0,0,1-.47.36Z"/><path class="cls-1" d="M515,4.07a.34.34,0,0,1-.36-.36V1.08A.34.34,0,0,1,515,.72h2.45a.34.34,0,0,1,.36.36V3.71a.35.35,0,0,1-.36.36Zm.07,21.13a.35.35,0,0,1-.36-.36V8.31a.34.34,0,0,1,.36-.35h2.31a.34.34,0,0,1,.36.35V24.84a.35.35,0,0,1-.36.36Z"/><path class="cls-1" d="M533.76,25.2a.34.34,0,0,1-.36-.36V23.18h0c-.82,1.37-2.3,2.41-4.89,2.41-3,0-5.08-1.4-5.94-4.14a14.28,14.28,0,0,1-.61-4.89,14.2,14.2,0,0,1,.61-4.86c.86-2.74,3-4.14,5.94-4.14,2.59,0,4.07,1,4.89,2.37h0V1.08a.34.34,0,0,1,.36-.36h2.3a.34.34,0,0,1,.36.36V24.84a.34.34,0,0,1-.36.36Zm-.76-5a11,11,0,0,0,.4-3.6A11.12,11.12,0,0,0,533,13a4.08,4.08,0,0,0-7.59,0,12.15,12.15,0,0,0-.4,3.6,11.89,11.89,0,0,0,.4,3.6,4.05,4.05,0,0,0,7.59,0Z"/><path class="cls-1" d="M552.05,25.2a.34.34,0,0,1-.36-.36V23.33h0c-.79,1.29-2.48,2.26-5.11,2.26-3.28,0-5.8-1.69-5.8-5.18,0-3.64,2.52-5.33,6.73-5.33h3.93a.19.19,0,0,0,.21-.21V13.61c0-2.38-.93-3.39-4.14-3.39a6.7,6.7,0,0,0-4.17,1.23.33.33,0,0,1-.51,0l-1-1.66a.38.38,0,0,1,.08-.5,9.53,9.53,0,0,1,5.86-1.69c4.9,0,6.77,1.62,6.77,5.87V24.84a.34.34,0,0,1-.36.36Zm-.44-5.58V17.71a.19.19,0,0,0-.21-.22h-3.46c-3,0-4.28.87-4.28,2.81,0,1.77,1.3,2.7,3.6,2.7C550,23,551.61,21.74,551.61,19.62Z"/><path class="cls-1" d="M570.37,25.2a.34.34,0,0,1-.36-.36V23.18h0c-.82,1.37-2.3,2.41-4.89,2.41-3,0-5.08-1.4-5.94-4.14a14.28,14.28,0,0,1-.61-4.89,14.2,14.2,0,0,1,.61-4.86c.86-2.74,3-4.14,5.94-4.14,2.59,0,4.07,1,4.89,2.37h0V1.08a.34.34,0,0,1,.36-.36h2.3a.34.34,0,0,1,.36.36V24.84a.34.34,0,0,1-.36.36Zm-.76-5a11,11,0,0,0,.4-3.6,11.12,11.12,0,0,0-.4-3.6A4.08,4.08,0,0,0,562,13a12.15,12.15,0,0,0-.4,3.6,11.89,11.89,0,0,0,.4,3.6,4.05,4.05,0,0,0,7.59,0Z"/><path class="cls-1" d="M577.75,20.91a13.48,13.48,0,0,1-.57-4.35,13.43,13.43,0,0,1,.54-4.36,7.25,7.25,0,0,1,13.53,0,15.08,15.08,0,0,1,.54,4.93c0,.22-.14.36-.4.36h-10.9a.2.2,0,0,0-.22.22,6.47,6.47,0,0,0,.29,2.09,4.25,4.25,0,0,0,4.35,3,5.62,5.62,0,0,0,4.43-1.91c.18-.18.36-.22.54-.08l1.48,1.34a.31.31,0,0,1,0,.5,8.35,8.35,0,0,1-6.73,2.95C581.17,25.59,578.69,23.9,577.75,20.91Zm10.73-5.83a.19.19,0,0,0,.21-.21,6.08,6.08,0,0,0-.25-1.95,4.25,4.25,0,0,0-7.92,0,6.08,6.08,0,0,0-.25,1.95c0,.14.07.21.22.21Z"/><path class="cls-1" d="M594.74,23a.35.35,0,0,1,0-.5l1.48-1.59a.35.35,0,0,1,.5,0,8.37,8.37,0,0,0,5.33,2c2.52,0,3.78-1.08,3.78-2.63,0-1.36-.65-2.12-3.35-2.41l-1.83-.18c-3.39-.36-5.15-2.05-5.15-4.86,0-3.27,2.34-5.25,6.41-5.25A10.32,10.32,0,0,1,608,9.47a.34.34,0,0,1,.07.5l-1.23,1.55a.35.35,0,0,1-.5.07,9.09,9.09,0,0,0-4.64-1.4c-2.16,0-3.28,1-3.28,2.37s.83,2.09,3.38,2.34l1.8.18c3.5.33,5.19,2.09,5.19,4.86,0,3.39-2.45,5.65-7,5.65A10.75,10.75,0,0,1,594.74,23Z"/><path class="cls-1" d="M9.11,63.38c-3,0-4.21-1.44-4.21-4.54V39.08a.34.34,0,0,1,.36-.36h2.3a.34.34,0,0,1,.36.36V58.66c0,1.44.54,1.91,1.73,1.91h.68a.34.34,0,0,1,.36.36V63a.34.34,0,0,1-.36.36Z"/><path class="cls-1" d="M24.66,63.2a.34.34,0,0,1-.36-.36V61.33h0c-.79,1.29-2.48,2.26-5.11,2.26-3.27,0-5.79-1.69-5.79-5.18s2.52-5.33,6.73-5.33H24a.19.19,0,0,0,.22-.21V51.61c0-2.38-.94-3.39-4.14-3.39a6.71,6.71,0,0,0-4.18,1.23.32.32,0,0,1-.5,0l-1-1.66a.37.37,0,0,1,.07-.5,9.54,9.54,0,0,1,5.87-1.69c4.89,0,6.76,1.62,6.76,5.87V62.84a.34.34,0,0,1-.36.36Zm-.43-5.58V55.71a.2.2,0,0,0-.22-.22H20.55c-3,0-4.28.87-4.28,2.81,0,1.77,1.3,2.7,3.6,2.7C22.57,61,24.23,59.74,24.23,57.62Z"/><path class="cls-1" d="M32.54,63.2a.35.35,0,0,1-.36-.36V39.08a.34.34,0,0,1,.36-.36h2.31a.34.34,0,0,1,.36.36v8.85h0c.83-1.36,2.31-2.37,4.9-2.37,3,0,5.07,1.4,5.94,4.14a14.2,14.2,0,0,1,.61,4.86,14.28,14.28,0,0,1-.61,4.89c-.87,2.74-2.95,4.14-5.94,4.14-2.59,0-4.07-1-4.9-2.41h0v1.66a.35.35,0,0,1-.36.36Zm10.66-5a11.94,11.94,0,0,0,.39-3.6A12.2,12.2,0,0,0,43.2,51a3.66,3.66,0,0,0-3.78-2.59A3.67,3.67,0,0,0,35.6,51a11.47,11.47,0,0,0-.39,3.6,11.35,11.35,0,0,0,.39,3.6,3.71,3.71,0,0,0,3.82,2.63A3.69,3.69,0,0,0,43.2,58.16Z"/><path class="cls-1" d="M50.36,59a13.14,13.14,0,0,1-.57-4.39,13.07,13.07,0,0,1,.57-4.36c.94-3,3.46-4.64,6.81-4.64S63,47.25,64,50.2a12.78,12.78,0,0,1,.58,4.36A12.85,12.85,0,0,1,64,59a6.71,6.71,0,0,1-6.8,4.64A6.72,6.72,0,0,1,50.36,59Zm10.69-.87a11.16,11.16,0,0,0,.4-3.52,10.91,10.91,0,0,0-.4-3.49,4.15,4.15,0,0,0-7.77,0,10.91,10.91,0,0,0-.4,3.49,11.16,11.16,0,0,0,.4,3.52,4.14,4.14,0,0,0,7.77,0Z"/><path class="cls-1" d="M69.05,63.2a.34.34,0,0,1-.36-.36V46.31a.33.33,0,0,1,.36-.35h2.3a.33.33,0,0,1,.36.35v1.77h0a4.78,4.78,0,0,1,4.57-2.52,5.32,5.32,0,0,1,3.53,1.29c.18.18.21.33.07.51l-1.33,1.76a.33.33,0,0,1-.51.07,4.86,4.86,0,0,0-2.66-.82c-2.63,0-3.71,2.05-3.71,5v9.43a.34.34,0,0,1-.36.36Z"/><path class="cls-1" d="M92.3,63.2a.35.35,0,0,1-.36-.36V61.33h0c-.8,1.29-2.49,2.26-5.12,2.26-3.27,0-5.79-1.69-5.79-5.18s2.52-5.33,6.73-5.33h3.92c.15,0,.22-.07.22-.21V51.61c0-2.38-.94-3.39-4.14-3.39a6.73,6.73,0,0,0-4.18,1.23.32.32,0,0,1-.5,0l-1-1.66a.38.38,0,0,1,.07-.5A9.56,9.56,0,0,1,88,45.56c4.89,0,6.77,1.62,6.77,5.87V62.84a.35.35,0,0,1-.36.36Zm-.43-5.58V55.71a.2.2,0,0,0-.22-.22H88.2c-3,0-4.28.87-4.28,2.81,0,1.77,1.29,2.7,3.59,2.7C90.21,61,91.87,59.74,91.87,57.62Z"/><path class="cls-1" d="M104,63.38c-3,0-4.22-1.44-4.22-4.54V39.08a.34.34,0,0,1,.37-.36h2.3a.34.34,0,0,1,.36.36V58.66c0,1.44.54,1.91,1.73,1.91h.68a.34.34,0,0,1,.36.36V63a.34.34,0,0,1-.36.36Z"/><path class="cls-1" d="M108.61,58.91a13.48,13.48,0,0,1-.57-4.35,13.16,13.16,0,0,1,.54-4.36,7.25,7.25,0,0,1,13.53,0,15.08,15.08,0,0,1,.54,4.93.35.35,0,0,1-.4.36h-10.9a.2.2,0,0,0-.22.22,6.47,6.47,0,0,0,.29,2.09,4.25,4.25,0,0,0,4.35,3,5.62,5.62,0,0,0,4.43-1.91c.18-.18.36-.22.54-.08l1.48,1.34a.31.31,0,0,1,0,.5,8.37,8.37,0,0,1-6.73,3C112,63.59,109.55,61.9,108.61,58.91Zm10.73-5.83a.19.19,0,0,0,.21-.21,6.08,6.08,0,0,0-.25-1.95,4.25,4.25,0,0,0-7.92,0,6.08,6.08,0,0,0-.25,1.95c0,.14.07.21.22.21Z"/><path class="cls-1" d="M125.6,61a.35.35,0,0,1,0-.5l1.48-1.59a.35.35,0,0,1,.5,0,8.37,8.37,0,0,0,5.33,2c2.52,0,3.78-1.08,3.78-2.63,0-1.36-.65-2.12-3.35-2.41l-1.83-.18c-3.39-.36-5.15-2.05-5.15-4.86,0-3.27,2.34-5.25,6.41-5.25a10.26,10.26,0,0,1,6.11,1.91.35.35,0,0,1,.08.5l-1.23,1.55a.35.35,0,0,1-.5.07,9.09,9.09,0,0,0-4.64-1.4c-2.16,0-3.28,1-3.28,2.37s.83,2.09,3.38,2.34l1.8.18c3.5.33,5.19,2.09,5.19,4.86,0,3.39-2.45,5.65-7,5.65A10.75,10.75,0,0,1,125.6,61Z"/><path class="cls-1" d="M143.64,59.38h2.52a.35.35,0,0,1,.36.36v3.35a1.14,1.14,0,0,1-.22.79l-2.23,2.95a.56.56,0,0,1-.47.25.32.32,0,0,1-.32-.32v-7A.34.34,0,0,1,143.64,59.38Z"/><path class="cls-1" d="M158,58.91a13.43,13.43,0,0,1-.58-4.35,13.43,13.43,0,0,1,.54-4.36,7.25,7.25,0,0,1,13.53,0,15.08,15.08,0,0,1,.54,4.93.35.35,0,0,1-.39.36H160.7a.19.19,0,0,0-.21.22,6.5,6.5,0,0,0,.28,2.09,4.27,4.27,0,0,0,4.36,3,5.65,5.65,0,0,0,4.43-1.91c.18-.18.36-.22.54-.08l1.47,1.34a.32.32,0,0,1,0,.5,8.38,8.38,0,0,1-6.73,3C161.39,63.59,158.9,61.9,158,58.91Zm10.72-5.83c.15,0,.22-.07.22-.21a6.08,6.08,0,0,0-.25-1.95,4.25,4.25,0,0,0-7.92,0,6.08,6.08,0,0,0-.25,1.95.19.19,0,0,0,.21.21Z"/><path class="cls-1" d="M180.75,63.2c-.25,0-.36-.15-.43-.36l-6.19-16.53c-.07-.21,0-.35.29-.35h2.48c.25,0,.36.1.47.35l4.46,12.39h.07l4.36-12.39a.41.41,0,0,1,.43-.35h2.45c.25,0,.36.14.29.35l-6.16,16.53a.47.47,0,0,1-.47.36Z"/><path class="cls-1" d="M192.88,42.07a.34.34,0,0,1-.35-.36V39.08a.33.33,0,0,1,.35-.36h2.45a.34.34,0,0,1,.36.36v2.63a.34.34,0,0,1-.36.36ZM193,63.2a.34.34,0,0,1-.36-.36V46.31A.33.33,0,0,1,193,46h2.3a.33.33,0,0,1,.36.35V62.84a.34.34,0,0,1-.36.36Z"/><path class="cls-1" d="M205.81,63.38c-3.35,0-4.65-1.52-4.65-4.9V48.62c0-.15-.07-.22-.21-.22h-1.44a.34.34,0,0,1-.36-.36V46.31a.33.33,0,0,1,.36-.35H201a.19.19,0,0,0,.21-.22V40.88a.34.34,0,0,1,.36-.36h2.31a.34.34,0,0,1,.36.36v4.86a.19.19,0,0,0,.21.22h2.74a.33.33,0,0,1,.36.35V48a.34.34,0,0,1-.36.36H204.4c-.14,0-.21.07-.21.22v9.75c0,1.73.65,2.2,2.19,2.2h.76a.34.34,0,0,1,.36.36V63a.34.34,0,0,1-.36.36Z"/><path class="cls-1" d="M211,58.91a13.48,13.48,0,0,1-.57-4.35A13.43,13.43,0,0,1,211,50.2a7.25,7.25,0,0,1,13.53,0,15.08,15.08,0,0,1,.54,4.93c0,.22-.14.36-.4.36h-10.9a.2.2,0,0,0-.22.22,6.47,6.47,0,0,0,.29,2.09,4.26,4.26,0,0,0,4.36,3,5.61,5.61,0,0,0,4.42-1.91c.18-.18.36-.22.54-.08l1.48,1.34a.31.31,0,0,1,0,.5,8.35,8.35,0,0,1-6.73,3C214.41,63.59,211.93,61.9,211,58.91Zm10.73-5.83a.19.19,0,0,0,.21-.21,6.08,6.08,0,0,0-.25-1.95,4.25,4.25,0,0,0-7.92,0,6.08,6.08,0,0,0-.25,1.95c0,.14.07.21.22.21Z"/><path class="cls-1" d="M236.62,58.91a13.48,13.48,0,0,1-.57-4.35,13.43,13.43,0,0,1,.54-4.36,7.25,7.25,0,0,1,13.53,0,15.08,15.08,0,0,1,.54,4.93.35.35,0,0,1-.39.36H239.36a.2.2,0,0,0-.22.22,6.47,6.47,0,0,0,.29,2.09,4.27,4.27,0,0,0,4.36,3,5.61,5.61,0,0,0,4.42-1.91c.18-.18.36-.22.54-.08l1.48,1.34a.32.32,0,0,1,0,.5,8.38,8.38,0,0,1-6.73,3C240,63.59,237.56,61.9,236.62,58.91Zm10.73-5.83a.19.19,0,0,0,.22-.21,6.05,6.05,0,0,0-.26-1.95,4.25,4.25,0,0,0-7.91,0,6.05,6.05,0,0,0-.26,1.95.19.19,0,0,0,.22.21Z"/><path class="cls-1" d="M258.94,63.38c-3,0-4.21-1.44-4.21-4.54V39.08a.34.34,0,0,1,.36-.36h2.3a.34.34,0,0,1,.36.36V58.66c0,1.44.54,1.91,1.73,1.91h.69a.34.34,0,0,1,.36.36V63a.35.35,0,0,1-.36.36Z"/><path class="cls-1" d="M282.81,63.2a.34.34,0,0,1-.36-.36V61.22h0a5.25,5.25,0,0,1-4.71,2.37c-3.78,0-6-2.59-6-6.51V46.31a.34.34,0,0,1,.36-.35h2.31a.34.34,0,0,1,.36.35v10c0,2.81,1.26,4.43,3.81,4.43,2.34,0,3.89-1.66,3.89-4.25V46.31a.33.33,0,0,1,.36-.35h2.3a.33.33,0,0,1,.36.35V62.84a.34.34,0,0,1-.36.36Z"/><path class="cls-1" d="M289.47,61a.35.35,0,0,1,0-.5L291,58.91a.35.35,0,0,1,.5,0,8.37,8.37,0,0,0,5.33,2c2.52,0,3.78-1.08,3.78-2.63,0-1.36-.65-2.12-3.35-2.41l-1.84-.18c-3.38-.36-5.14-2.05-5.14-4.86,0-3.27,2.34-5.25,6.4-5.25a10.32,10.32,0,0,1,6.12,1.91.34.34,0,0,1,.07.5l-1.22,1.55a.35.35,0,0,1-.5.07,9.09,9.09,0,0,0-4.65-1.4c-2.16,0-3.27,1-3.27,2.37s.83,2.09,3.38,2.34l1.8.18c3.49.33,5.18,2.09,5.18,4.86,0,3.39-2.44,5.65-6.94,5.65A10.73,10.73,0,0,1,289.47,61Z"/><path class="cls-1" d="M307.11,59a12.85,12.85,0,0,1-.58-4.39,12.78,12.78,0,0,1,.58-4.36c.94-3,3.46-4.64,6.8-4.64s5.87,1.69,6.81,4.64a13.07,13.07,0,0,1,.57,4.36,13.14,13.14,0,0,1-.57,4.39,7.31,7.31,0,0,1-13.61,0Zm10.69-.87a11.16,11.16,0,0,0,.4-3.52,10.91,10.91,0,0,0-.4-3.49,4.15,4.15,0,0,0-7.77,0,10.91,10.91,0,0,0-.4,3.49,11.16,11.16,0,0,0,.4,3.52,4.14,4.14,0,0,0,7.77,0Z"/><path class="cls-1" d="M344.15,63.2a.35.35,0,0,1-.36-.36V61.18h0c-.83,1.37-2.31,2.41-4.9,2.41-3,0-5.07-1.4-5.94-4.14a14.28,14.28,0,0,1-.61-4.89,14.2,14.2,0,0,1,.61-4.86c.87-2.74,2.95-4.14,5.94-4.14,2.59,0,4.07,1,4.9,2.37h0V39.08a.34.34,0,0,1,.36-.36h2.31a.34.34,0,0,1,.36.36V62.84a.35.35,0,0,1-.36.36Zm-.75-5a11.35,11.35,0,0,0,.39-3.6,11.47,11.47,0,0,0-.39-3.6,4.08,4.08,0,0,0-7.6,0,12.2,12.2,0,0,0-.39,3.6,11.94,11.94,0,0,0,.39,3.6,4.06,4.06,0,0,0,7.6,0Z"/><path class="cls-1" d="M351.53,58.91a13.48,13.48,0,0,1-.57-4.35,13.43,13.43,0,0,1,.54-4.36,7.25,7.25,0,0,1,13.53,0,15.08,15.08,0,0,1,.54,4.93.35.35,0,0,1-.39.36H354.27a.2.2,0,0,0-.22.22,6.47,6.47,0,0,0,.29,2.09,4.27,4.27,0,0,0,4.36,3,5.61,5.61,0,0,0,4.42-1.91c.18-.18.36-.22.54-.08l1.48,1.34a.32.32,0,0,1,0,.5,8.39,8.39,0,0,1-6.74,3C355,63.59,352.47,61.9,351.53,58.91Zm10.73-5.83a.19.19,0,0,0,.22-.21,6.05,6.05,0,0,0-.26-1.95,4.25,4.25,0,0,0-7.92,0,6.37,6.37,0,0,0-.25,1.95.19.19,0,0,0,.22.21Z"/><path class="cls-1" d="M388.43,63.2a.34.34,0,0,1-.36-.36V61.18h0c-.83,1.37-2.31,2.41-4.9,2.41-3,0-5.08-1.4-5.94-4.14a14.28,14.28,0,0,1-.61-4.89,14.2,14.2,0,0,1,.61-4.86c.86-2.74,2.95-4.14,5.94-4.14,2.59,0,4.07,1,4.9,2.37h0V39.08a.34.34,0,0,1,.36-.36h2.3a.34.34,0,0,1,.36.36V62.84a.34.34,0,0,1-.36.36Zm-.75-5a11.35,11.35,0,0,0,.39-3.6,11.47,11.47,0,0,0-.39-3.6,4.08,4.08,0,0,0-7.6,0,12.15,12.15,0,0,0-.4,3.6,11.89,11.89,0,0,0,.4,3.6,4.06,4.06,0,0,0,7.6,0Z"/><path class="cls-1" d="M396.57,42.07a.34.34,0,0,1-.36-.36V39.08a.34.34,0,0,1,.36-.36H399a.34.34,0,0,1,.36.36v2.63a.35.35,0,0,1-.36.36Zm.07,21.13a.34.34,0,0,1-.36-.36V46.31a.33.33,0,0,1,.36-.35h2.3a.33.33,0,0,1,.36.35V62.84a.34.34,0,0,1-.36.36Z"/><path class="cls-1" d="M403.3,61a.35.35,0,0,1,0-.5l1.48-1.59a.35.35,0,0,1,.5,0,8.37,8.37,0,0,0,5.33,2c2.52,0,3.78-1.08,3.78-2.63,0-1.36-.65-2.12-3.35-2.41l-1.84-.18c-3.38-.36-5.14-2.05-5.14-4.86,0-3.27,2.34-5.25,6.4-5.25a10.32,10.32,0,0,1,6.12,1.91.34.34,0,0,1,.07.5l-1.22,1.55a.35.35,0,0,1-.5.07,9.09,9.09,0,0,0-4.65-1.4c-2.16,0-3.27,1-3.27,2.37s.83,2.09,3.38,2.34l1.8.18c3.49.33,5.18,2.09,5.18,4.86,0,3.39-2.44,5.65-6.94,5.65A10.73,10.73,0,0,1,403.3,61Z"/><path class="cls-1" d="M421.77,69.68a.34.34,0,0,1-.36-.36v-23a.33.33,0,0,1,.36-.35h2.3a.33.33,0,0,1,.36.35v1.62h0c.82-1.36,2.3-2.37,4.89-2.37,3,0,5.08,1.4,5.94,4.14a14.2,14.2,0,0,1,.61,4.86,14.28,14.28,0,0,1-.61,4.89c-.86,2.74-2.95,4.14-5.94,4.14-2.59,0-4.07-1-4.89-2.41h0v8.14a.34.34,0,0,1-.36.36Zm10.65-11.52a11.89,11.89,0,0,0,.4-3.6,12.15,12.15,0,0,0-.4-3.6,4.08,4.08,0,0,0-7.59,0,11.12,11.12,0,0,0-.4,3.6,11,11,0,0,0,.4,3.6,4.05,4.05,0,0,0,7.59,0Z"/><path class="cls-1" d="M439.59,59a12.85,12.85,0,0,1-.58-4.39,12.78,12.78,0,0,1,.58-4.36c.93-3,3.45-4.64,6.8-4.64s5.87,1.69,6.8,4.64a12.78,12.78,0,0,1,.58,4.36,12.85,12.85,0,0,1-.58,4.39,7.3,7.3,0,0,1-13.6,0Zm10.69-.87a11.21,11.21,0,0,0,.39-3.52,11,11,0,0,0-.39-3.49,4.15,4.15,0,0,0-7.78,0,11,11,0,0,0-.39,3.49,11.21,11.21,0,0,0,.39,3.52,4.15,4.15,0,0,0,7.78,0Z"/><path class="cls-1" d="M456.72,61a.35.35,0,0,1,0-.5l1.48-1.59a.35.35,0,0,1,.5,0,8.37,8.37,0,0,0,5.33,2c2.52,0,3.78-1.08,3.78-2.63,0-1.36-.65-2.12-3.35-2.41l-1.83-.18c-3.39-.36-5.15-2.05-5.15-4.86,0-3.27,2.34-5.25,6.41-5.25A10.32,10.32,0,0,1,470,47.47a.34.34,0,0,1,.07.5l-1.23,1.55a.35.35,0,0,1-.5.07,9.09,9.09,0,0,0-4.64-1.4c-2.16,0-3.28,1-3.28,2.37s.83,2.09,3.38,2.34l1.8.18c3.5.33,5.19,2.09,5.19,4.86,0,3.39-2.45,5.65-6.95,5.65A10.75,10.75,0,0,1,456.72,61Z"/><path class="cls-1" d="M475.12,42.07a.34.34,0,0,1-.36-.36V39.08a.34.34,0,0,1,.36-.36h2.45a.34.34,0,0,1,.36.36v2.63a.35.35,0,0,1-.36.36Zm.07,21.13a.34.34,0,0,1-.36-.36V46.31a.33.33,0,0,1,.36-.35h2.3a.33.33,0,0,1,.36.35V62.84a.34.34,0,0,1-.36.36Z"/><path class="cls-1" d="M488,63.38c-3.35,0-4.64-1.52-4.64-4.9V48.62a.19.19,0,0,0-.22-.22h-1.44a.34.34,0,0,1-.36-.36V46.31a.34.34,0,0,1,.36-.35h1.44a.2.2,0,0,0,.22-.22V40.88a.34.34,0,0,1,.36-.36h2.3a.34.34,0,0,1,.36.36v4.86a.2.2,0,0,0,.22.22h2.73a.33.33,0,0,1,.36.35V48a.34.34,0,0,1-.36.36h-2.73a.19.19,0,0,0-.22.22v9.75c0,1.73.65,2.2,2.2,2.2h.75a.34.34,0,0,1,.36.36V63a.34.34,0,0,1-.36.36Z"/><path class="cls-1" d="M494,42.07a.35.35,0,0,1-.36-.36V39.08a.34.34,0,0,1,.36-.36h2.45a.34.34,0,0,1,.36.36v2.63a.34.34,0,0,1-.36.36Zm.07,21.13a.35.35,0,0,1-.36-.36V46.31a.34.34,0,0,1,.36-.35h2.31a.34.34,0,0,1,.36.35V62.84a.35.35,0,0,1-.36.36Z"/><path class="cls-1" d="M506.51,63.2c-.25,0-.36-.15-.43-.36l-6.19-16.53c-.08-.21,0-.35.28-.35h2.49c.25,0,.36.1.47.35l4.46,12.39h.07L512,46.31a.41.41,0,0,1,.43-.35h2.45c.25,0,.36.14.28.35L509,62.84a.47.47,0,0,1-.47.36Z"/><path class="cls-1" d="M517.74,59a13.14,13.14,0,0,1-.57-4.39,13.07,13.07,0,0,1,.57-4.36c.94-3,3.46-4.64,6.8-4.64s5.87,1.69,6.81,4.64a13.07,13.07,0,0,1,.57,4.36,13.14,13.14,0,0,1-.57,4.39,7.31,7.31,0,0,1-13.61,0Zm10.69-.87a11.16,11.16,0,0,0,.4-3.52,10.91,10.91,0,0,0-.4-3.49,4.15,4.15,0,0,0-7.77,0,10.91,10.91,0,0,0-.4,3.49,11.16,11.16,0,0,0,.4,3.52,4.14,4.14,0,0,0,7.77,0Z"/><path class="cls-1" d="M534.88,61a.33.33,0,0,1,0-.5l1.47-1.59a.36.36,0,0,1,.51,0,8.34,8.34,0,0,0,5.32,2c2.52,0,3.78-1.08,3.78-2.63,0-1.36-.64-2.12-3.34-2.41l-1.84-.18c-3.38-.36-5.15-2.05-5.15-4.86,0-3.27,2.34-5.25,6.41-5.25a10.32,10.32,0,0,1,6.12,1.91.34.34,0,0,1,.07.5L547,49.52a.36.36,0,0,1-.51.07,9.06,9.06,0,0,0-4.64-1.4c-2.16,0-3.28,1-3.28,2.37s.83,2.09,3.39,2.34l1.8.18c3.49.33,5.18,2.09,5.18,4.86,0,3.39-2.45,5.65-7,5.65A10.72,10.72,0,0,1,534.88,61Z"/><path class="cls-1" d="M582.93,63.2a.35.35,0,0,1-.36-.36V52.76c0-2.77-1.26-4.39-3.85-4.39a3.89,3.89,0,0,0-4,4.21V62.84a.34.34,0,0,1-.36.36h-2.3a.34.34,0,0,1-.36-.36V52.76c0-2.77-1.26-4.39-3.85-4.39a3.87,3.87,0,0,0-4,4.21V62.84a.35.35,0,0,1-.36.36h-2.31a.35.35,0,0,1-.36-.36V46.31a.34.34,0,0,1,.36-.35h2.31a.34.34,0,0,1,.36.35V47.9h0a6.1,6.1,0,0,1,9.87.36h0a6.41,6.41,0,0,1,5.58-2.7c4,0,6.16,2.55,6.16,6.48v10.8a.35.35,0,0,1-.36.36Z"/><path class="cls-1" d="M590.14,59a12.85,12.85,0,0,1-.58-4.39,12.78,12.78,0,0,1,.58-4.36c.93-3,3.45-4.64,6.8-4.64s5.87,1.69,6.8,4.64a12.78,12.78,0,0,1,.58,4.36,12.85,12.85,0,0,1-.58,4.39,7.3,7.3,0,0,1-13.6,0Zm10.69-.87a11.52,11.52,0,0,0,.39-3.52,11.26,11.26,0,0,0-.39-3.49,4.15,4.15,0,0,0-7.78,0,11,11,0,0,0-.39,3.49,11.21,11.21,0,0,0,.39,3.52,4.15,4.15,0,0,0,7.78,0Zm-5.19-14.93c-.21,0-.32-.15-.21-.36l2.73-4.43a.65.65,0,0,1,.61-.36h2.38c.22,0,.32.18.18.36L598,42.79a.71.71,0,0,1-.69.36Z"/><path class="cls-1" d="M613,63.2c-.25,0-.36-.15-.43-.36l-6.19-16.53c-.07-.21,0-.35.29-.35h2.48c.25,0,.36.1.47.35l4.46,12.39h.08l4.35-12.39a.41.41,0,0,1,.43-.35h2.45c.25,0,.36.14.29.35l-6.16,16.53a.46.46,0,0,1-.46.36Z"/><path class="cls-1" d="M625.13,42.07a.34.34,0,0,1-.36-.36V39.08a.34.34,0,0,1,.36-.36h2.44a.34.34,0,0,1,.36.36v2.63a.34.34,0,0,1-.36.36Zm.07,21.13a.34.34,0,0,1-.36-.36V46.31a.33.33,0,0,1,.36-.35h2.3a.33.33,0,0,1,.36.35V62.84a.34.34,0,0,1-.36.36Z"/><path class="cls-1" d="M637.19,63.38c-3,0-4.22-1.44-4.22-4.54V39.08a.34.34,0,0,1,.36-.36h2.31a.34.34,0,0,1,.36.36V58.66c0,1.44.54,1.91,1.73,1.91h.68a.34.34,0,0,1,.36.36V63a.34.34,0,0,1-.36.36Z"/><path class="cls-1" d="M641.83,58.91a13.43,13.43,0,0,1-.58-4.35,13.43,13.43,0,0,1,.54-4.36,7.26,7.26,0,0,1,13.54,0,15.08,15.08,0,0,1,.54,4.93.35.35,0,0,1-.4.36h-10.9a.2.2,0,0,0-.22.22,6.47,6.47,0,0,0,.29,2.09,4.25,4.25,0,0,0,4.35,3,5.65,5.65,0,0,0,4.43-1.91c.18-.18.36-.22.54-.08l1.48,1.34a.31.31,0,0,1,0,.5,8.38,8.38,0,0,1-6.73,3C645.25,63.59,642.77,61.9,641.83,58.91Zm10.73-5.83a.19.19,0,0,0,.21-.21,6.08,6.08,0,0,0-.25-1.95,4.25,4.25,0,0,0-7.92,0,6.08,6.08,0,0,0-.25,1.95c0,.14.07.21.22.21Z"/><path class="cls-1" d="M658.82,61a.35.35,0,0,1,0-.5l1.48-1.59a.35.35,0,0,1,.5,0,8.37,8.37,0,0,0,5.33,2c2.52,0,3.78-1.08,3.78-2.63,0-1.36-.65-2.12-3.35-2.41l-1.84-.18c-3.38-.36-5.14-2.05-5.14-4.86,0-3.27,2.34-5.25,6.4-5.25a10.32,10.32,0,0,1,6.12,1.91.35.35,0,0,1,.08.5L671,49.52a.35.35,0,0,1-.5.07,9.09,9.09,0,0,0-4.65-1.4c-2.15,0-3.27,1-3.27,2.37s.83,2.09,3.38,2.34l1.8.18c3.49.33,5.19,2.09,5.19,4.86,0,3.39-2.45,5.65-6.95,5.65A10.75,10.75,0,0,1,658.82,61Z"/><path class="cls-1" d="M36.25,101.2a.34.34,0,0,1-.36-.36V99.22h0a5.25,5.25,0,0,1-4.71,2.37c-3.78,0-6-2.59-6-6.51V84.31a.34.34,0,0,1,.36-.35h2.31a.34.34,0,0,1,.36.35v10c0,2.81,1.26,4.43,3.81,4.43,2.34,0,3.89-1.66,3.89-4.25V84.31a.33.33,0,0,1,.36-.35h2.3a.33.33,0,0,1,.36.35v16.53a.34.34,0,0,1-.36.36Z"/><path class="cls-1" d="M51.55,97A12.85,12.85,0,0,1,51,92.56a12.78,12.78,0,0,1,.58-4.36c.94-3,3.46-4.64,6.8-4.64s5.87,1.69,6.81,4.64a13.07,13.07,0,0,1,.57,4.36A13.14,13.14,0,0,1,65.16,97a6.72,6.72,0,0,1-6.81,4.64A6.71,6.71,0,0,1,51.55,97Zm10.69-.87a11.16,11.16,0,0,0,.4-3.52,10.91,10.91,0,0,0-.4-3.49,4.15,4.15,0,0,0-7.77,0,10.91,10.91,0,0,0-.4,3.49,11.16,11.16,0,0,0,.4,3.52,4.14,4.14,0,0,0,7.77,0Z"/><path class="cls-1" d="M74.88,101.38c-3.35,0-4.65-1.52-4.65-4.9V86.62c0-.15-.07-.22-.21-.22H68.58a.34.34,0,0,1-.36-.36V84.31a.33.33,0,0,1,.36-.35H70a.19.19,0,0,0,.21-.22V78.88a.34.34,0,0,1,.36-.36H72.9a.34.34,0,0,1,.36.36v4.86a.19.19,0,0,0,.21.22h2.74a.33.33,0,0,1,.36.35V86a.34.34,0,0,1-.36.36H73.47c-.14,0-.21.07-.21.22v9.75c0,1.73.65,2.2,2.19,2.2h.76a.34.34,0,0,1,.36.36V101a.34.34,0,0,1-.36.36Z"/><path class="cls-1" d="M80.89,101.2a.34.34,0,0,1-.36-.36V84.31a.33.33,0,0,1,.36-.35h2.3a.33.33,0,0,1,.36.35v1.77h0a4.8,4.8,0,0,1,4.57-2.52,5.32,5.32,0,0,1,3.53,1.29c.18.18.21.33.07.51l-1.33,1.76a.33.33,0,0,1-.51.07,4.86,4.86,0,0,0-2.66-.82c-2.63,0-3.71,2-3.71,5v9.43a.34.34,0,0,1-.36.36Z"/><path class="cls-1" d="M93.45,97a13.14,13.14,0,0,1-.57-4.39,13.07,13.07,0,0,1,.57-4.36c.94-3,3.46-4.64,6.81-4.64s5.86,1.69,6.8,4.64a12.78,12.78,0,0,1,.58,4.36,12.85,12.85,0,0,1-.58,4.39,7.31,7.31,0,0,1-13.61,0Zm10.69-.87a11.16,11.16,0,0,0,.4-3.52,10.91,10.91,0,0,0-.4-3.49,4.15,4.15,0,0,0-7.77,0,10.91,10.91,0,0,0-.4,3.49,11.16,11.16,0,0,0,.4,3.52,4.14,4.14,0,0,0,7.77,0Z"/><path class="cls-1" d="M110.59,99a.35.35,0,0,1,0-.5l1.48-1.59a.35.35,0,0,1,.5,0,8.37,8.37,0,0,0,5.33,2c2.52,0,3.78-1.08,3.78-2.63,0-1.36-.65-2.12-3.35-2.41l-1.84-.18c-3.38-.36-5.14-2-5.14-4.86,0-3.27,2.34-5.25,6.4-5.25a10.32,10.32,0,0,1,6.12,1.91.34.34,0,0,1,.07.5l-1.22,1.55a.35.35,0,0,1-.5.07,9.09,9.09,0,0,0-4.65-1.4c-2.16,0-3.27,1-3.27,2.37s.83,2.09,3.38,2.34l1.8.18c3.49.33,5.18,2.09,5.18,4.86,0,3.39-2.44,5.65-6.94,5.65A10.73,10.73,0,0,1,110.59,99Z"/><path class="cls-1" d="M147.42,101.2a.34.34,0,0,1-.36-.36V99.18h0c-.83,1.37-2.3,2.41-4.9,2.41a5.71,5.71,0,0,1-5.94-4.14,14.53,14.53,0,0,1-.61-4.89,14.45,14.45,0,0,1,.61-4.86,5.71,5.71,0,0,1,5.94-4.14c2.6,0,4.07,1,4.9,2.37h0V77.08a.34.34,0,0,1,.36-.36h2.3a.34.34,0,0,1,.36.36v23.76a.34.34,0,0,1-.36.36Zm-.76-5a11,11,0,0,0,.4-3.6,11.12,11.12,0,0,0-.4-3.6,4.08,4.08,0,0,0-7.6,0,12.54,12.54,0,0,0-.39,3.6,12.28,12.28,0,0,0,.39,3.6,4.06,4.06,0,0,0,7.6,0Z"/><path class="cls-1" d="M155.55,80.07a.35.35,0,0,1-.36-.36V77.08a.34.34,0,0,1,.36-.36H158a.34.34,0,0,1,.36.36v2.63a.34.34,0,0,1-.36.36Zm.07,21.13a.35.35,0,0,1-.36-.36V84.31a.34.34,0,0,1,.36-.35h2.31a.34.34,0,0,1,.36.35v16.53a.35.35,0,0,1-.36.36Z"/><path class="cls-1" d="M162.28,99a.35.35,0,0,1,0-.5l1.48-1.59a.35.35,0,0,1,.5,0,8.37,8.37,0,0,0,5.33,2c2.52,0,3.78-1.08,3.78-2.63,0-1.36-.65-2.12-3.35-2.41l-1.83-.18c-3.39-.36-5.15-2-5.15-4.86,0-3.27,2.34-5.25,6.41-5.25a10.32,10.32,0,0,1,6.12,1.91.34.34,0,0,1,.07.5l-1.23,1.55a.35.35,0,0,1-.5.07,9.09,9.09,0,0,0-4.64-1.4c-2.16,0-3.28,1-3.28,2.37s.83,2.09,3.39,2.34l1.79.18c3.5.33,5.19,2.09,5.19,4.86,0,3.39-2.45,5.65-7,5.65A10.75,10.75,0,0,1,162.28,99Z"/><path class="cls-1" d="M185.39,101.38c-3.34,0-4.64-1.52-4.64-4.9V86.62c0-.15-.07-.22-.21-.22H179.1a.34.34,0,0,1-.36-.36V84.31a.33.33,0,0,1,.36-.35h1.44a.19.19,0,0,0,.21-.22V78.88a.34.34,0,0,1,.36-.36h2.31a.34.34,0,0,1,.36.36v4.86A.19.19,0,0,0,184,84h2.74a.34.34,0,0,1,.36.35V86a.34.34,0,0,1-.36.36H184c-.14,0-.21.07-.21.22v9.75c0,1.73.64,2.2,2.19,2.2h.76a.34.34,0,0,1,.36.36V101a.35.35,0,0,1-.36.36Z"/><path class="cls-1" d="M191.41,101.2a.34.34,0,0,1-.36-.36V84.31a.33.33,0,0,1,.36-.35h2.3a.33.33,0,0,1,.36.35v1.77h0a4.79,4.79,0,0,1,4.57-2.52,5.32,5.32,0,0,1,3.53,1.29c.18.18.21.33.07.51L201,87.12a.33.33,0,0,1-.51.07,4.86,4.86,0,0,0-2.66-.82c-2.63,0-3.71,2-3.71,5v9.43a.34.34,0,0,1-.36.36Z"/><path class="cls-1" d="M214.66,101.2a.35.35,0,0,1-.36-.36V99.33h0c-.8,1.29-2.49,2.26-5.12,2.26-3.27,0-5.79-1.69-5.79-5.18s2.52-5.33,6.73-5.33H214c.15,0,.22-.07.22-.21V89.61c0-2.38-.94-3.39-4.14-3.39a6.68,6.68,0,0,0-4.17,1.23c-.19.14-.4.14-.51,0l-1-1.66a.38.38,0,0,1,.07-.5,9.56,9.56,0,0,1,5.87-1.69c4.89,0,6.77,1.62,6.77,5.87v11.41a.35.35,0,0,1-.36.36Zm-.43-5.58V93.71a.2.2,0,0,0-.22-.22h-3.45c-3,0-4.28.87-4.28,2.81,0,1.77,1.29,2.7,3.6,2.7C212.57,99,214.23,97.74,214.23,95.62Z"/><path class="cls-1" d="M221.68,88.2c1-3,3.49-4.64,6.81-4.64a6.91,6.91,0,0,1,5.9,2.91c.11.18.11.33-.11.51l-1.58,1.29a.32.32,0,0,1-.51,0,4.22,4.22,0,0,0-3.7-1.87,3.75,3.75,0,0,0-3.86,2.7,11.77,11.77,0,0,0-.39,3.49,11.77,11.77,0,0,0,.39,3.52,3.76,3.76,0,0,0,3.86,2.71,4.23,4.23,0,0,0,3.7-1.88.32.32,0,0,1,.51,0l1.58,1.29c.22.18.22.33.11.51a6.91,6.91,0,0,1-5.9,2.91c-3.32,0-5.83-1.65-6.81-4.64a18,18,0,0,1,0-8.75Z"/><path class="cls-1" d="M243.46,101.38c-3.35,0-4.64-1.52-4.64-4.9V86.62a.19.19,0,0,0-.22-.22h-1.44a.34.34,0,0,1-.36-.36V84.31a.34.34,0,0,1,.36-.35h1.44a.2.2,0,0,0,.22-.22V78.88a.34.34,0,0,1,.36-.36h2.3a.34.34,0,0,1,.36.36v4.86a.2.2,0,0,0,.22.22h2.73a.33.33,0,0,1,.36.35V86a.34.34,0,0,1-.36.36h-2.73a.19.19,0,0,0-.22.22v9.75c0,1.73.65,2.2,2.2,2.2h.75a.34.34,0,0,1,.36.36V101a.34.34,0,0,1-.36.36Z"/><path class="cls-1" d="M248.65,97a12.85,12.85,0,0,1-.58-4.39,12.78,12.78,0,0,1,.58-4.36c.93-3,3.45-4.64,6.8-4.64s5.87,1.69,6.8,4.64a12.78,12.78,0,0,1,.58,4.36,12.85,12.85,0,0,1-.58,4.39,7.3,7.3,0,0,1-13.6,0Zm10.69-.87a11.21,11.21,0,0,0,.39-3.52,11,11,0,0,0-.39-3.49,4.15,4.15,0,0,0-7.78,0,11,11,0,0,0-.39,3.49,11.21,11.21,0,0,0,.39,3.52,4.15,4.15,0,0,0,7.78,0Z"/><path class="cls-1" d="M267.33,101.2a.34.34,0,0,1-.36-.36V84.31a.33.33,0,0,1,.36-.35h2.3a.33.33,0,0,1,.36.35v1.77h0a4.8,4.8,0,0,1,4.57-2.52,5.32,5.32,0,0,1,3.53,1.29c.18.18.21.33.07.51l-1.33,1.76a.32.32,0,0,1-.5.07,4.92,4.92,0,0,0-2.67-.82c-2.63,0-3.71,2-3.71,5v9.43a.34.34,0,0,1-.36.36Z"/><path class="cls-1" d="M279.89,96.91a13.48,13.48,0,0,1-.57-4.35,13.43,13.43,0,0,1,.54-4.36,7.25,7.25,0,0,1,13.53,0,15.08,15.08,0,0,1,.54,4.93.35.35,0,0,1-.39.36H282.63a.2.2,0,0,0-.22.22,6.47,6.47,0,0,0,.29,2.09,4.27,4.27,0,0,0,4.36,3,5.61,5.61,0,0,0,4.42-1.91c.18-.18.36-.22.54-.08l1.48,1.34a.32.32,0,0,1,0,.5,8.39,8.39,0,0,1-6.74,3C283.31,101.59,280.83,99.9,279.89,96.91Zm10.73-5.83a.19.19,0,0,0,.22-.21,6.05,6.05,0,0,0-.26-2,4.25,4.25,0,0,0-7.91,0,6.05,6.05,0,0,0-.26,2,.19.19,0,0,0,.22.21Z"/><path class="cls-1" d="M296.89,99a.33.33,0,0,1,0-.5l1.47-1.59a.36.36,0,0,1,.51,0,8.34,8.34,0,0,0,5.32,2c2.52,0,3.78-1.08,3.78-2.63,0-1.36-.65-2.12-3.34-2.41l-1.84-.18c-3.38-.36-5.15-2-5.15-4.86,0-3.27,2.34-5.25,6.41-5.25a10.32,10.32,0,0,1,6.12,1.91.34.34,0,0,1,.07.5L309,87.52a.36.36,0,0,1-.51.07,9.06,9.06,0,0,0-4.64-1.4c-2.16,0-3.28,1-3.28,2.37s.83,2.09,3.39,2.34l1.8.18c3.49.33,5.18,2.09,5.18,4.86,0,3.39-2.45,5.65-6.95,5.65A10.72,10.72,0,0,1,296.89,99Z"/><path class="cls-1" d="M314.92,97.38h2.52a.34.34,0,0,1,.36.36v3.35a1.09,1.09,0,0,1-.22.79l-2.23,3a.55.55,0,0,1-.46.25.32.32,0,0,1-.33-.32v-7A.35.35,0,0,1,314.92,97.38Z"/><path class="cls-1" d="M340.91,101.2a.35.35,0,0,1-.36-.36V90.76c0-2.77-1.26-4.39-3.85-4.39a3.87,3.87,0,0,0-4,4.21v10.26a.34.34,0,0,1-.36.36h-2.3a.34.34,0,0,1-.36-.36V84.31a.33.33,0,0,1,.36-.35h2.3a.33.33,0,0,1,.36.35V85.9h0a5.44,5.44,0,0,1,4.82-2.34c3.74,0,6,2.55,6,6.48v10.8a.35.35,0,0,1-.37.36Z"/><path class="cls-1" d="M348.11,97a13.14,13.14,0,0,1-.57-4.39,13.07,13.07,0,0,1,.57-4.36c.94-3,3.46-4.64,6.81-4.64s5.86,1.69,6.8,4.64a12.81,12.81,0,0,1,.57,4.36,12.89,12.89,0,0,1-.57,4.39,7.31,7.31,0,0,1-13.61,0Zm10.69-.87a11.16,11.16,0,0,0,.4-3.52,10.91,10.91,0,0,0-.4-3.49,4.15,4.15,0,0,0-7.77,0,10.91,10.91,0,0,0-.4,3.49,11.16,11.16,0,0,0,.4,3.52,4.14,4.14,0,0,0,7.77,0Z"/><path class="cls-1" d="M373.85,88.2c1-3,3.49-4.64,6.81-4.64a6.91,6.91,0,0,1,5.9,2.91c.11.18.11.33-.11.51l-1.58,1.29a.32.32,0,0,1-.51,0,4.24,4.24,0,0,0-3.7-1.87,3.75,3.75,0,0,0-3.86,2.7,11.77,11.77,0,0,0-.39,3.49,11.77,11.77,0,0,0,.39,3.52,3.76,3.76,0,0,0,3.86,2.71,4.24,4.24,0,0,0,3.7-1.88.32.32,0,0,1,.51,0l1.58,1.29c.22.18.22.33.11.51a6.91,6.91,0,0,1-5.9,2.91c-3.32,0-5.84-1.65-6.81-4.64a18,18,0,0,1,0-8.75Z"/><path class="cls-1" d="M400.63,101.2a.35.35,0,0,1-.36-.36V99.33h0c-.79,1.29-2.49,2.26-5.11,2.26-3.28,0-5.8-1.69-5.8-5.18s2.52-5.33,6.73-5.33H400a.19.19,0,0,0,.21-.21V89.61c0-2.38-.93-3.39-4.14-3.39a6.7,6.7,0,0,0-4.17,1.23.33.33,0,0,1-.51,0l-1-1.66a.38.38,0,0,1,.07-.5,9.56,9.56,0,0,1,5.87-1.69c4.9,0,6.77,1.62,6.77,5.87v11.41a.35.35,0,0,1-.36.36Zm-.43-5.58V93.71a.19.19,0,0,0-.21-.22h-3.46c-3,0-4.28.87-4.28,2.81,0,1.77,1.29,2.7,3.6,2.7C398.55,99,400.2,97.74,400.2,95.62Z"/><path class="cls-1" d="M430.19,101.2a.34.34,0,0,1-.36-.36V90.76c0-2.77-1.26-4.39-3.85-4.39a3.88,3.88,0,0,0-4,4.21v10.26a.35.35,0,0,1-.36.36h-2.31a.35.35,0,0,1-.36-.36V90.76c0-2.77-1.26-4.39-3.85-4.39a3.87,3.87,0,0,0-4,4.21v10.26a.34.34,0,0,1-.36.36h-2.3a.34.34,0,0,1-.36-.36V84.31a.33.33,0,0,1,.36-.35h2.3a.33.33,0,0,1,.36.35V85.9h0a6.09,6.09,0,0,1,9.86.36h0a6.41,6.41,0,0,1,5.58-2.7c4,0,6.15,2.55,6.15,6.48v10.8a.34.34,0,0,1-.36.36Z"/><path class="cls-1" d="M438.15,80.07a.34.34,0,0,1-.36-.36V77.08a.34.34,0,0,1,.36-.36h2.44a.34.34,0,0,1,.37.36v2.63a.35.35,0,0,1-.37.36Zm.07,21.13a.34.34,0,0,1-.36-.36V84.31a.33.33,0,0,1,.36-.35h2.3a.33.33,0,0,1,.36.35v16.53a.34.34,0,0,1-.36.36Z"/><path class="cls-1" d="M457.26,101.2a.34.34,0,0,1-.36-.36V90.76c0-2.77-1.26-4.39-3.85-4.39a3.87,3.87,0,0,0-4,4.21v10.26a.34.34,0,0,1-.36.36h-2.3a.34.34,0,0,1-.36-.36V84.31a.33.33,0,0,1,.36-.35h2.3a.33.33,0,0,1,.36.35V85.9h0A5.44,5.44,0,0,1,454,83.56c3.74,0,6,2.55,6,6.48v10.8a.34.34,0,0,1-.36.36Z"/><path class="cls-1" d="M464.46,96.91a13.48,13.48,0,0,1-.57-4.35,13.43,13.43,0,0,1,.54-4.36,7.25,7.25,0,0,1,13.53,0,15.08,15.08,0,0,1,.54,4.93c0,.22-.14.36-.4.36H467.2a.2.2,0,0,0-.22.22,6.47,6.47,0,0,0,.29,2.09,4.26,4.26,0,0,0,4.36,3,5.61,5.61,0,0,0,4.42-1.91c.18-.18.36-.22.54-.08l1.48,1.34a.31.31,0,0,1,0,.5,8.35,8.35,0,0,1-6.73,3C467.88,101.59,465.4,99.9,464.46,96.91Zm10.73-5.83a.19.19,0,0,0,.21-.21,6.08,6.08,0,0,0-.25-2,4.25,4.25,0,0,0-7.92,0,6.08,6.08,0,0,0-.25,2c0,.14.07.21.22.21Z"/><path class="cls-1" d="M490.09,97a13.14,13.14,0,0,1-.57-4.39,13.07,13.07,0,0,1,.57-4.36c.94-3,3.46-4.64,6.81-4.64s5.86,1.69,6.8,4.64a12.78,12.78,0,0,1,.58,4.36A12.85,12.85,0,0,1,503.7,97a7.31,7.31,0,0,1-13.61,0Zm10.69-.87a11.16,11.16,0,0,0,.4-3.52,10.91,10.91,0,0,0-.4-3.49,4.15,4.15,0,0,0-7.77,0,10.91,10.91,0,0,0-.4,3.49,11.16,11.16,0,0,0,.4,3.52,4.14,4.14,0,0,0,7.77,0Z"/><path class="cls-1" d="M515.83,88.2c1-3,3.49-4.64,6.81-4.64a6.91,6.91,0,0,1,5.9,2.91c.11.18.11.33-.11.51l-1.58,1.29a.32.32,0,0,1-.51,0,4.22,4.22,0,0,0-3.7-1.87,3.73,3.73,0,0,0-3.85,2.7,11.4,11.4,0,0,0-.4,3.49,11.41,11.41,0,0,0,.4,3.52,3.74,3.74,0,0,0,3.85,2.71,4.23,4.23,0,0,0,3.7-1.88.32.32,0,0,1,.51,0l1.58,1.29c.22.18.22.33.11.51a6.91,6.91,0,0,1-5.9,2.91c-3.32,0-5.84-1.65-6.81-4.64a18,18,0,0,1,0-8.75Z"/><path class="cls-1" d="M531.71,97a12.85,12.85,0,0,1-.58-4.39,12.78,12.78,0,0,1,.58-4.36c.93-3,3.45-4.64,6.8-4.64s5.87,1.69,6.81,4.64a13.07,13.07,0,0,1,.57,4.36,13.14,13.14,0,0,1-.57,4.39,7.31,7.31,0,0,1-13.61,0Zm10.69-.87a11.16,11.16,0,0,0,.4-3.52,10.91,10.91,0,0,0-.4-3.49,4.15,4.15,0,0,0-7.77,0,10.91,10.91,0,0,0-.4,3.49,11.16,11.16,0,0,0,.4,3.52,4.14,4.14,0,0,0,7.77,0Z"/><path class="cls-1" d="M561.23,101.2a.34.34,0,0,1-.36-.36V90.76c0-2.77-1.26-4.39-3.85-4.39a3.87,3.87,0,0,0-4,4.21v10.26a.35.35,0,0,1-.36.36h-2.31a.35.35,0,0,1-.36-.36V84.31a.34.34,0,0,1,.36-.35h2.31a.34.34,0,0,1,.36.35V85.9h0a5.47,5.47,0,0,1,4.83-2.34c3.74,0,6,2.55,6,6.48v10.8a.34.34,0,0,1-.36.36Z"/><path class="cls-1" d="M579.7,101.2a.35.35,0,0,1-.37-.36V99.18h0c-.83,1.37-2.3,2.41-4.9,2.41a5.71,5.71,0,0,1-5.94-4.14,14.53,14.53,0,0,1-.61-4.89,14.45,14.45,0,0,1,.61-4.86,5.71,5.71,0,0,1,5.94-4.14c2.6,0,4.07,1,4.9,2.37h0V77.08a.34.34,0,0,1,.37-.36H582a.34.34,0,0,1,.36.36v23.76a.35.35,0,0,1-.36.36Zm-.76-5a11.06,11.06,0,0,0,.39-3.6,11.18,11.18,0,0,0-.39-3.6,4.08,4.08,0,0,0-7.6,0,12.54,12.54,0,0,0-.39,3.6,12.28,12.28,0,0,0,.39,3.6,4.06,4.06,0,0,0,7.6,0Z"/><path class="cls-1" d="M598.38,101.2a.34.34,0,0,1-.36-.36V99.22h0a5.25,5.25,0,0,1-4.71,2.37c-3.78,0-6-2.59-6-6.51V84.31a.34.34,0,0,1,.36-.35H590a.34.34,0,0,1,.36.35v10c0,2.81,1.26,4.43,3.81,4.43,2.34,0,3.89-1.66,3.89-4.25V84.31a.33.33,0,0,1,.36-.35h2.3a.33.33,0,0,1,.36.35v16.53a.34.34,0,0,1-.36.36Z"/><path class="cls-1" d="M605.62,101.2a.34.34,0,0,1-.36-.36V98.93a.55.55,0,0,1,.14-.4l9.47-11.77v-.07h-8.79a.34.34,0,0,1-.36-.36v-2a.34.34,0,0,1,.36-.35h12a.34.34,0,0,1,.36.35v2a.56.56,0,0,1-.15.4l-9.39,11.66v.07h9.18a.34.34,0,0,1,.36.36v2a.35.35,0,0,1-.36.36Z"/><path class="cls-1" d="M622.17,88.2A6.69,6.69,0,0,1,629,83.56a6.9,6.9,0,0,1,5.9,2.91c.11.18.11.33-.11.51l-1.58,1.29a.31.31,0,0,1-.5,0A4.24,4.24,0,0,0,629,86.37a3.74,3.74,0,0,0-3.85,2.7,11.4,11.4,0,0,0-.4,3.49,11.41,11.41,0,0,0,.4,3.52A3.74,3.74,0,0,0,629,98.79a4.25,4.25,0,0,0,3.71-1.88.31.31,0,0,1,.5,0l1.58,1.29c.22.18.22.33.11.51a6.9,6.9,0,0,1-5.9,2.91A6.69,6.69,0,0,1,622.17,97a18,18,0,0,1,0-8.75Z"/><path class="cls-1" d="M649,101.2a.34.34,0,0,1-.36-.36V99.33h0c-.79,1.29-2.48,2.26-5.11,2.26-3.28,0-5.8-1.69-5.8-5.18s2.52-5.33,6.74-5.33h3.92a.19.19,0,0,0,.22-.21V89.61c0-2.38-.94-3.39-4.14-3.39a6.71,6.71,0,0,0-4.18,1.23c-.18.14-.4.14-.5,0l-1-1.66a.38.38,0,0,1,.08-.5,9.53,9.53,0,0,1,5.86-1.69c4.9,0,6.77,1.62,6.77,5.87v11.41a.34.34,0,0,1-.36.36Zm-.43-5.58V93.71a.2.2,0,0,0-.22-.22h-3.46c-3,0-4.28.87-4.28,2.81,0,1.77,1.3,2.7,3.6,2.7C646.87,99,648.53,97.74,648.53,95.62Z"/><path class="cls-1" d="M25.07,139.2a.35.35,0,0,1-.36-.36V128.76c0-2.77-1.26-4.39-3.85-4.39a3.89,3.89,0,0,0-4,4.21v10.26a.34.34,0,0,1-.36.36h-2.3a.34.34,0,0,1-.36-.36V128.76c0-2.77-1.26-4.39-3.85-4.39a3.87,3.87,0,0,0-4,4.21v10.26a.35.35,0,0,1-.36.36H3.4a.35.35,0,0,1-.36-.36V122.31A.34.34,0,0,1,3.4,122H5.71a.34.34,0,0,1,.36.35v1.59h0a5.47,5.47,0,0,1,4.83-2.34,5.4,5.4,0,0,1,5,2.7h0a6.41,6.41,0,0,1,5.58-2.7c4,0,6.16,2.55,6.16,6.48v10.8a.35.35,0,0,1-.36.36Z"/><path class="cls-1" d="M33,118.07a.34.34,0,0,1-.36-.36v-2.63a.34.34,0,0,1,.36-.36h2.45a.34.34,0,0,1,.36.36v2.63a.35.35,0,0,1-.36.36Zm.07,21.13a.35.35,0,0,1-.36-.36V122.31a.34.34,0,0,1,.36-.35h2.31a.34.34,0,0,1,.36.35v16.53a.35.35,0,0,1-.36.36Z"/><path class="cls-1" d="M40.48,134.91a17.36,17.36,0,0,1,0-8.71,6.65,6.65,0,0,1,6.76-4.64A6.68,6.68,0,0,1,54,126.2a15.08,15.08,0,0,1,.54,4.93c0,.22-.14.36-.4.36H43.22a.2.2,0,0,0-.22.22,6.47,6.47,0,0,0,.29,2.09,4.25,4.25,0,0,0,4.35,3,5.62,5.62,0,0,0,4.43-1.91c.18-.18.36-.22.54-.08l1.48,1.34a.31.31,0,0,1,0,.5,8.35,8.35,0,0,1-6.73,3C43.9,139.59,41.42,137.9,40.48,134.91Zm10.73-5.83a.19.19,0,0,0,.21-.21,6.08,6.08,0,0,0-.25-2,3.88,3.88,0,0,0-4-2.7,3.9,3.9,0,0,0-4,2.7,6.08,6.08,0,0,0-.25,2c0,.14.07.21.22.21Z"/><path class="cls-1" d="M69.86,139.2a.34.34,0,0,1-.36-.36V128.76c0-2.77-1.26-4.39-3.86-4.39a3.86,3.86,0,0,0-4,4.21v10.26a.35.35,0,0,1-.36.36H59a.35.35,0,0,1-.36-.36V122.31A.34.34,0,0,1,59,122h2.31a.34.34,0,0,1,.36.35v1.59h0a5.46,5.46,0,0,1,4.82-2.34c3.75,0,6,2.55,6,6.48v10.8a.34.34,0,0,1-.36.36Z"/><path class="cls-1" d="M82.53,139.38c-3.35,0-4.65-1.52-4.65-4.9v-9.86c0-.15-.07-.22-.21-.22H76.23a.34.34,0,0,1-.36-.36v-1.73a.33.33,0,0,1,.36-.35h1.44a.19.19,0,0,0,.21-.22v-4.86a.34.34,0,0,1,.37-.36h2.3a.34.34,0,0,1,.36.36v4.86a.2.2,0,0,0,.22.22h2.73a.33.33,0,0,1,.36.35V124a.34.34,0,0,1-.36.36H81.13a.19.19,0,0,0-.22.22v9.75c0,1.73.65,2.2,2.19,2.2h.76a.34.34,0,0,1,.36.36V139a.34.34,0,0,1-.36.36Z"/><path class="cls-1" d="M88.54,139.2a.34.34,0,0,1-.36-.36V122.31a.33.33,0,0,1,.36-.35h2.3a.33.33,0,0,1,.36.35v1.77h0a4.8,4.8,0,0,1,4.57-2.52,5.3,5.3,0,0,1,3.53,1.29c.18.18.21.33.07.51l-1.33,1.76a.32.32,0,0,1-.5.07,4.92,4.92,0,0,0-2.67-.82c-2.63,0-3.71,2-3.71,5v9.43a.34.34,0,0,1-.36.36Z"/><path class="cls-1" d="M111.79,139.2a.34.34,0,0,1-.35-.36v-1.51h0c-.79,1.29-2.48,2.26-5.11,2.26-3.28,0-5.8-1.69-5.8-5.18s2.52-5.33,6.73-5.33h3.93a.19.19,0,0,0,.21-.21v-1.26c0-2.38-.93-3.39-4.14-3.39a6.7,6.7,0,0,0-4.17,1.23.33.33,0,0,1-.51,0l-1-1.66a.38.38,0,0,1,.07-.5,9.58,9.58,0,0,1,5.87-1.69c4.9,0,6.77,1.62,6.77,5.87v11.41a.35.35,0,0,1-.36.36Zm-.43-5.58v-1.91a.19.19,0,0,0-.21-.22h-3.46c-3,0-4.28.87-4.28,2.81,0,1.77,1.29,2.7,3.6,2.7C109.71,137,111.36,135.74,111.36,133.62Z"/><path class="cls-1" d="M118.13,137a.35.35,0,0,1,0-.5l1.48-1.59a.35.35,0,0,1,.5,0,8.37,8.37,0,0,0,5.33,2c2.52,0,3.78-1.08,3.78-2.63,0-1.36-.65-2.12-3.35-2.41l-1.83-.18c-3.39-.36-5.15-2-5.15-4.86,0-3.27,2.34-5.25,6.41-5.25a10.34,10.34,0,0,1,6.12,1.91.36.36,0,0,1,.07.5l-1.23,1.55a.35.35,0,0,1-.5.07,9.09,9.09,0,0,0-4.64-1.4c-2.16,0-3.28,1-3.28,2.37s.83,2.09,3.38,2.34l1.8.18c3.5.33,5.19,2.09,5.19,4.86,0,3.39-2.45,5.65-7,5.65A10.75,10.75,0,0,1,118.13,137Z"/><path class="cls-1" d="M155,139.2a.34.34,0,0,1-.36-.36v-1.66h0c-.83,1.37-2.3,2.41-4.89,2.41-3,0-5.08-1.4-5.94-4.14a14.28,14.28,0,0,1-.61-4.89,14.2,14.2,0,0,1,.61-4.86c.86-2.74,3-4.14,5.94-4.14,2.59,0,4.06,1,4.89,2.37h0v-8.85a.34.34,0,0,1,.36-.36h2.3a.34.34,0,0,1,.36.36v23.76a.34.34,0,0,1-.36.36Zm-.76-5a11,11,0,0,0,.4-3.6,11.12,11.12,0,0,0-.4-3.6,4.08,4.08,0,0,0-7.59,0,12.15,12.15,0,0,0-.4,3.6,11.89,11.89,0,0,0,.4,3.6,4.05,4.05,0,0,0,7.59,0Z"/><path class="cls-1" d="M163.1,118.07a.34.34,0,0,1-.36-.36v-2.63a.34.34,0,0,1,.36-.36h2.44a.34.34,0,0,1,.36.36v2.63a.34.34,0,0,1-.36.36Zm.07,21.13a.34.34,0,0,1-.36-.36V122.31a.33.33,0,0,1,.36-.35h2.3a.33.33,0,0,1,.36.35v16.53a.34.34,0,0,1-.36.36Z"/><path class="cls-1" d="M170.66,143.52a.33.33,0,0,1,0-.51l1.48-1.47a.34.34,0,0,1,.54,0,5.72,5.72,0,0,0,4.06,1.72c2.85,0,4.36-1.47,4.36-4.64v-2h0c-.79,1.44-2.26,2.38-4.78,2.38a5.66,5.66,0,0,1-5.8-4.18,18.33,18.33,0,0,1,0-9.07,5.65,5.65,0,0,1,5.8-4.17c2.52,0,4,.94,4.78,2.37h0v-1.62a.33.33,0,0,1,.36-.35h2.3a.33.33,0,0,1,.36.35v16.13c0,4.9-2.66,7.63-7.52,7.63A7.78,7.78,0,0,1,170.66,143.52Zm10.07-9.9a10.43,10.43,0,0,0,.4-3.35,10.55,10.55,0,0,0-.4-3.35,3.89,3.89,0,0,0-7.3,0,10.78,10.78,0,0,0-.43,3.35,10.65,10.65,0,0,0,.43,3.35,3.51,3.51,0,0,0,3.63,2.59A3.56,3.56,0,0,0,180.73,133.62Z"/><path class="cls-1" d="M189.63,118.07a.34.34,0,0,1-.36-.36v-2.63a.34.34,0,0,1,.36-.36h2.44a.34.34,0,0,1,.36.36v2.63a.34.34,0,0,1-.36.36Zm.07,21.13a.34.34,0,0,1-.36-.36V122.31a.33.33,0,0,1,.36-.35H192a.33.33,0,0,1,.36.35v16.53a.34.34,0,0,1-.36.36Z"/><path class="cls-1" d="M202.55,139.38c-3.35,0-4.64-1.52-4.64-4.9v-9.86a.2.2,0,0,0-.22-.22h-1.44a.34.34,0,0,1-.36-.36v-1.73a.33.33,0,0,1,.36-.35h1.44a.2.2,0,0,0,.22-.22v-4.86a.34.34,0,0,1,.36-.36h2.3a.34.34,0,0,1,.36.36v4.86a.2.2,0,0,0,.22.22h2.73a.33.33,0,0,1,.36.35V124a.34.34,0,0,1-.36.36h-2.73a.19.19,0,0,0-.22.22v9.75c0,1.73.65,2.2,2.2,2.2h.75a.34.34,0,0,1,.36.36V139a.34.34,0,0,1-.36.36Z"/><path class="cls-1" d="M218.64,139.2a.34.34,0,0,1-.36-.36v-1.51h0c-.79,1.29-2.48,2.26-5.11,2.26-3.27,0-5.79-1.69-5.79-5.18s2.52-5.33,6.73-5.33H218c.15,0,.22-.07.22-.21v-1.26c0-2.38-.94-3.39-4.14-3.39a6.73,6.73,0,0,0-4.18,1.23.32.32,0,0,1-.5,0l-1-1.66a.38.38,0,0,1,.07-.5,9.56,9.56,0,0,1,5.87-1.69c4.89,0,6.76,1.62,6.76,5.87v11.41a.34.34,0,0,1-.36.36Zm-.43-5.58v-1.91a.2.2,0,0,0-.22-.22h-3.45c-3,0-4.29.87-4.29,2.81,0,1.77,1.3,2.7,3.6,2.7C216.55,137,218.21,135.74,218.21,133.62Z"/><path class="cls-1" d="M233.62,135a16.79,16.79,0,0,1,0-8.75c.93-3,3.45-4.64,6.8-4.64s5.87,1.69,6.8,4.64a16.79,16.79,0,0,1,0,8.75,7.3,7.3,0,0,1-13.6,0Zm10.69-.87a11.21,11.21,0,0,0,.39-3.52,11,11,0,0,0-.39-3.49,4.15,4.15,0,0,0-7.78,0,11.26,11.26,0,0,0-.39,3.49,11.52,11.52,0,0,0,.39,3.52,4.15,4.15,0,0,0,7.78,0Z"/><path class="cls-1" d="M281.89,139.2a.34.34,0,0,1-.36-.36V128.76c0-2.77-1.26-4.39-3.85-4.39a3.89,3.89,0,0,0-4,4.21v10.26a.34.34,0,0,1-.36.36h-2.3a.34.34,0,0,1-.36-.36V128.76c0-2.77-1.26-4.39-3.86-4.39a3.87,3.87,0,0,0-4,4.21v10.26a.34.34,0,0,1-.36.36h-2.3a.34.34,0,0,1-.36-.36V122.31a.33.33,0,0,1,.36-.35h2.3a.33.33,0,0,1,.36.35v1.59h0a6.09,6.09,0,0,1,9.86.36h0a6.41,6.41,0,0,1,5.58-2.7c4,0,6.15,2.55,6.15,6.48v10.8a.34.34,0,0,1-.36.36Z"/><path class="cls-1" d="M300,139.2a.34.34,0,0,1-.36-.36v-1.51h0c-.79,1.29-2.48,2.26-5.11,2.26-3.27,0-5.79-1.69-5.79-5.18s2.52-5.33,6.73-5.33h3.92c.15,0,.22-.07.22-.21v-1.26c0-2.38-.94-3.39-4.14-3.39a6.71,6.71,0,0,0-4.18,1.23.32.32,0,0,1-.5,0l-1-1.66a.37.37,0,0,1,.07-.5,9.54,9.54,0,0,1,5.87-1.69c4.89,0,6.76,1.62,6.76,5.87v11.41a.34.34,0,0,1-.36.36Zm-.43-5.58v-1.91a.2.2,0,0,0-.22-.22H295.9c-3,0-4.29.87-4.29,2.81,0,1.77,1.3,2.7,3.6,2.7C297.91,137,299.57,135.74,299.57,133.62Z"/><path class="cls-1" d="M318.72,139.2a.34.34,0,0,1-.36-.36V128.76c0-2.77-1.26-4.39-3.85-4.39a3.87,3.87,0,0,0-4,4.21v10.26a.35.35,0,0,1-.36.36h-2.31a.35.35,0,0,1-.36-.36V122.31a.34.34,0,0,1,.36-.35h2.31a.34.34,0,0,1,.36.35v1.59h0a5.47,5.47,0,0,1,4.83-2.34c3.74,0,6,2.55,6,6.48v10.8a.34.34,0,0,1-.36.36Z"/><path class="cls-1" d="M326.68,118.07a.34.34,0,0,1-.36-.36v-2.63a.34.34,0,0,1,.36-.36h2.44a.34.34,0,0,1,.36.36v2.63a.34.34,0,0,1-.36.36Zm.07,21.13a.34.34,0,0,1-.36-.36V122.31a.33.33,0,0,1,.36-.35h2.3a.33.33,0,0,1,.36.35v16.53a.34.34,0,0,1-.36.36Z"/><path class="cls-1" d="M335,145.68a.34.34,0,0,1-.36-.36v-23A.33.33,0,0,1,335,122h2.3a.34.34,0,0,1,.36.35v1.62h0c.83-1.36,2.31-2.37,4.9-2.37,3,0,5.08,1.4,5.94,4.14a14.2,14.2,0,0,1,.61,4.86,14.28,14.28,0,0,1-.61,4.89c-.86,2.74-2.95,4.14-5.94,4.14-2.59,0-4.07-1-4.9-2.41h0v8.14a.35.35,0,0,1-.36.36Zm10.65-11.52a11.89,11.89,0,0,0,.4-3.6,12.15,12.15,0,0,0-.4-3.6,4.08,4.08,0,0,0-7.6,0,11.47,11.47,0,0,0-.39,3.6,11.35,11.35,0,0,0,.39,3.6,4.06,4.06,0,0,0,7.6,0Z"/><path class="cls-1" d="M364.08,139.2a.34.34,0,0,1-.36-.36v-1.62h0a5.25,5.25,0,0,1-4.71,2.37c-3.78,0-6-2.59-6-6.51V122.31a.33.33,0,0,1,.36-.35h2.3a.33.33,0,0,1,.36.35v10.05c0,2.81,1.26,4.43,3.82,4.43,2.34,0,3.89-1.66,3.89-4.25V122.31a.33.33,0,0,1,.36-.35h2.3a.33.33,0,0,1,.36.35v16.53a.34.34,0,0,1-.36.36Z"/><path class="cls-1" d="M376.07,139.38c-3,0-4.22-1.44-4.22-4.54V115.08a.34.34,0,0,1,.36-.36h2.31a.34.34,0,0,1,.36.36v19.58c0,1.44.54,1.91,1.73,1.91h.68a.34.34,0,0,1,.36.36V139a.34.34,0,0,1-.36.36Z"/><path class="cls-1" d="M391.62,139.2a.34.34,0,0,1-.36-.36v-1.51h0c-.79,1.29-2.48,2.26-5.11,2.26-3.28,0-5.8-1.69-5.8-5.18s2.52-5.33,6.73-5.33H391a.19.19,0,0,0,.22-.21v-1.26c0-2.38-.94-3.39-4.15-3.39a6.7,6.7,0,0,0-4.17,1.23c-.18.14-.4.14-.5,0l-1-1.66a.38.38,0,0,1,.08-.5,9.53,9.53,0,0,1,5.86-1.69c4.9,0,6.77,1.62,6.77,5.87v11.41a.34.34,0,0,1-.36.36Zm-.43-5.58v-1.91a.2.2,0,0,0-.22-.22h-3.46c-3,0-4.28.87-4.28,2.81,0,1.77,1.3,2.7,3.6,2.7C389.53,137,391.19,135.74,391.19,133.62Z"/><path class="cls-1" d="M406.59,134.91a17.36,17.36,0,0,1,0-8.71,7.25,7.25,0,0,1,13.53,0,15.08,15.08,0,0,1,.54,4.93.35.35,0,0,1-.39.36H409.33a.2.2,0,0,0-.22.22,6.47,6.47,0,0,0,.29,2.09,4.27,4.27,0,0,0,4.36,3,5.61,5.61,0,0,0,4.42-1.91c.18-.18.36-.22.54-.08l1.48,1.34a.32.32,0,0,1,0,.5,8.39,8.39,0,0,1-6.74,3C410,139.59,407.53,137.9,406.59,134.91Zm10.73-5.83a.19.19,0,0,0,.22-.21,6.05,6.05,0,0,0-.26-2,4.25,4.25,0,0,0-7.91,0,6.05,6.05,0,0,0-.26,2,.19.19,0,0,0,.22.21Z"/><path class="cls-1" d="M436,139.2a.34.34,0,0,1-.36-.36V128.76c0-2.77-1.26-4.39-3.85-4.39a3.87,3.87,0,0,0-4,4.21v10.26a.35.35,0,0,1-.36.36h-2.31a.35.35,0,0,1-.36-.36V122.31a.34.34,0,0,1,.36-.35h2.31a.34.34,0,0,1,.36.35v1.59h0a5.47,5.47,0,0,1,4.83-2.34c3.74,0,6,2.55,6,6.48v10.8a.34.34,0,0,1-.36.36Z"/><path class="cls-1" d="M455.7,139.38c-3,0-4.22-1.44-4.22-4.54V115.08a.34.34,0,0,1,.36-.36h2.31a.34.34,0,0,1,.36.36v19.58c0,1.44.54,1.91,1.73,1.91h.68a.34.34,0,0,1,.36.36V139a.34.34,0,0,1-.36.36Z"/><path class="cls-1" d="M460.34,135a16.79,16.79,0,0,1,0-8.75c.94-3,3.46-4.64,6.8-4.64s5.87,1.69,6.81,4.64a17.07,17.07,0,0,1,0,8.75,7.31,7.31,0,0,1-13.61,0Zm10.69-.87a11.16,11.16,0,0,0,.4-3.52,10.91,10.91,0,0,0-.4-3.49,4.15,4.15,0,0,0-7.77,0,10.91,10.91,0,0,0-.4,3.49,11.16,11.16,0,0,0,.4,3.52,4.14,4.14,0,0,0,7.77,0Z"/><path class="cls-1" d="M477.48,137a.33.33,0,0,1,0-.5l1.47-1.59a.36.36,0,0,1,.51,0,8.34,8.34,0,0,0,5.32,2c2.52,0,3.78-1.08,3.78-2.63,0-1.36-.64-2.12-3.35-2.41l-1.83-.18c-3.38-.36-5.15-2-5.15-4.86,0-3.27,2.34-5.25,6.41-5.25a10.32,10.32,0,0,1,6.12,1.91.34.34,0,0,1,.07.5l-1.22,1.55a.36.36,0,0,1-.51.07,9.06,9.06,0,0,0-4.64-1.4c-2.16,0-3.28,1-3.28,2.37s.83,2.09,3.39,2.34l1.8.18c3.49.33,5.18,2.09,5.18,4.86,0,3.39-2.45,5.65-6.95,5.65A10.72,10.72,0,0,1,477.48,137Z"/><path class="cls-1" d="M514.3,139.2a.35.35,0,0,1-.36-.36v-1.66h0c-.83,1.37-2.31,2.41-4.9,2.41-3,0-5.07-1.4-5.94-4.14a14.28,14.28,0,0,1-.61-4.89,14.2,14.2,0,0,1,.61-4.86c.87-2.74,2.95-4.14,5.94-4.14,2.59,0,4.07,1,4.9,2.37h0v-8.85a.34.34,0,0,1,.36-.36h2.31a.34.34,0,0,1,.36.36v23.76a.35.35,0,0,1-.36.36Zm-.75-5a11.35,11.35,0,0,0,.39-3.6,11.47,11.47,0,0,0-.39-3.6,4.08,4.08,0,0,0-7.6,0,12.15,12.15,0,0,0-.4,3.6,11.89,11.89,0,0,0,.4,3.6,4.06,4.06,0,0,0,7.6,0Z"/><path class="cls-1" d="M522.44,118.07a.34.34,0,0,1-.36-.36v-2.63a.34.34,0,0,1,.36-.36h2.45a.34.34,0,0,1,.36.36v2.63a.35.35,0,0,1-.36.36Zm.07,21.13a.34.34,0,0,1-.36-.36V122.31a.33.33,0,0,1,.36-.35h2.3a.33.33,0,0,1,.36.35v16.53a.34.34,0,0,1-.36.36Z"/><path class="cls-1" d="M529.17,137a.35.35,0,0,1,0-.5l1.48-1.59a.35.35,0,0,1,.5,0,8.37,8.37,0,0,0,5.33,2c2.52,0,3.78-1.08,3.78-2.63,0-1.36-.65-2.12-3.35-2.41l-1.84-.18c-3.38-.36-5.14-2-5.14-4.86,0-3.27,2.34-5.25,6.4-5.25a10.32,10.32,0,0,1,6.12,1.91.35.35,0,0,1,.08.5l-1.23,1.55a.35.35,0,0,1-.5.07,9.09,9.09,0,0,0-4.65-1.4c-2.16,0-3.27,1-3.27,2.37s.83,2.09,3.38,2.34l1.8.18c3.49.33,5.19,2.09,5.19,4.86,0,3.39-2.45,5.65-7,5.65A10.73,10.73,0,0,1,529.17,137Z"/><path class="cls-1" d="M547.64,145.68a.34.34,0,0,1-.36-.36v-23a.33.33,0,0,1,.36-.35h2.3a.33.33,0,0,1,.36.35v1.62h0c.83-1.36,2.3-2.37,4.89-2.37,3,0,5.08,1.4,5.94,4.14a14.17,14.17,0,0,1,.62,4.86,14.25,14.25,0,0,1-.62,4.89c-.86,2.74-2.95,4.14-5.94,4.14-2.59,0-4.06-1-4.89-2.41h0v8.14a.34.34,0,0,1-.36.36Zm10.65-11.52a11.89,11.89,0,0,0,.4-3.6,12.15,12.15,0,0,0-.4-3.6,4.08,4.08,0,0,0-7.59,0,11.12,11.12,0,0,0-.4,3.6,11,11,0,0,0,.4,3.6,4.05,4.05,0,0,0,7.59,0Z"/><path class="cls-1" d="M565.46,135a16.79,16.79,0,0,1,0-8.75c.93-3,3.45-4.64,6.8-4.64s5.87,1.69,6.8,4.64a16.79,16.79,0,0,1,0,8.75,7.3,7.3,0,0,1-13.6,0Zm10.69-.87a11.21,11.21,0,0,0,.39-3.52,11,11,0,0,0-.39-3.49,4.15,4.15,0,0,0-7.78,0,11.26,11.26,0,0,0-.39,3.49,11.52,11.52,0,0,0,.39,3.52,4.15,4.15,0,0,0,7.78,0Z"/><path class="cls-1" d="M582.59,137a.35.35,0,0,1,0-.5l1.48-1.59a.35.35,0,0,1,.5,0,8.37,8.37,0,0,0,5.33,2c2.52,0,3.78-1.08,3.78-2.63,0-1.36-.65-2.12-3.35-2.41l-1.83-.18c-3.39-.36-5.15-2-5.15-4.86,0-3.27,2.34-5.25,6.41-5.25a10.32,10.32,0,0,1,6.12,1.91.34.34,0,0,1,.07.5l-1.23,1.55a.35.35,0,0,1-.5.07,9.09,9.09,0,0,0-4.64-1.4c-2.16,0-3.28,1-3.28,2.37s.83,2.09,3.39,2.34l1.79.18c3.5.33,5.19,2.09,5.19,4.86,0,3.39-2.45,5.65-6.95,5.65A10.75,10.75,0,0,1,582.59,137Z"/><path class="cls-1" d="M601,118.07a.34.34,0,0,1-.36-.36v-2.63a.34.34,0,0,1,.36-.36h2.45a.34.34,0,0,1,.36.36v2.63a.35.35,0,0,1-.36.36Zm.07,21.13a.35.35,0,0,1-.36-.36V122.31a.34.34,0,0,1,.36-.35h2.31a.34.34,0,0,1,.36.35v16.53a.35.35,0,0,1-.36.36Z"/><path class="cls-1" d="M613.91,139.38c-3.35,0-4.64-1.52-4.64-4.9v-9.86a.19.19,0,0,0-.22-.22h-1.44a.34.34,0,0,1-.36-.36v-1.73a.34.34,0,0,1,.36-.35h1.44a.2.2,0,0,0,.22-.22v-4.86a.34.34,0,0,1,.36-.36h2.3a.34.34,0,0,1,.36.36v4.86a.2.2,0,0,0,.22.22h2.73a.33.33,0,0,1,.36.35V124a.34.34,0,0,1-.36.36h-2.73a.2.2,0,0,0-.22.22v9.75c0,1.73.65,2.2,2.2,2.2h.75a.34.34,0,0,1,.36.36V139a.34.34,0,0,1-.36.36Z"/><path class="cls-1" d="M619.85,118.07a.35.35,0,0,1-.36-.36v-2.63a.34.34,0,0,1,.36-.36h2.45a.34.34,0,0,1,.36.36v2.63a.34.34,0,0,1-.36.36Zm.07,21.13a.35.35,0,0,1-.36-.36V122.31a.34.34,0,0,1,.36-.35h2.31a.34.34,0,0,1,.36.35v16.53a.35.35,0,0,1-.36.36Z"/><path class="cls-1" d="M632.38,139.2c-.25,0-.36-.15-.43-.36l-6.19-16.53c-.08-.21,0-.35.28-.35h2.49c.25,0,.36.1.47.35l4.46,12.39h.07l4.36-12.39a.41.41,0,0,1,.43-.35h2.45c.25,0,.36.14.28.35l-6.15,16.53a.47.47,0,0,1-.47.36Z"/><path class="cls-1" d="M643.61,135a17.07,17.07,0,0,1,0-8.75c.94-3,3.46-4.64,6.81-4.64s5.86,1.69,6.8,4.64a17.07,17.07,0,0,1,0,8.75,7.31,7.31,0,0,1-13.61,0Zm10.69-.87a11.16,11.16,0,0,0,.4-3.52,10.91,10.91,0,0,0-.4-3.49,4.15,4.15,0,0,0-7.77,0,10.91,10.91,0,0,0-.4,3.49,11.16,11.16,0,0,0,.4,3.52,4.14,4.14,0,0,0,7.77,0Z"/><path class="cls-1" d="M660.75,137a.33.33,0,0,1,0-.5l1.47-1.59a.36.36,0,0,1,.51,0,8.34,8.34,0,0,0,5.32,2c2.53,0,3.78-1.08,3.78-2.63,0-1.36-.64-2.12-3.34-2.41l-1.84-.18c-3.38-.36-5.15-2-5.15-4.86,0-3.27,2.34-5.25,6.41-5.25a10.32,10.32,0,0,1,6.12,1.91.34.34,0,0,1,.07.5l-1.22,1.55a.35.35,0,0,1-.5.07,9.09,9.09,0,0,0-4.65-1.4c-2.16,0-3.27,1-3.27,2.37s.82,2.09,3.38,2.34l1.8.18c3.49.33,5.18,2.09,5.18,4.86,0,3.39-2.44,5.65-6.94,5.65A10.73,10.73,0,0,1,660.75,137Z"/><path class="cls-1" d="M.58,172.91a17.21,17.21,0,0,1,0-8.71,6.66,6.66,0,0,1,6.77-4.64,6.67,6.67,0,0,1,6.76,4.64,15.08,15.08,0,0,1,.54,4.93.35.35,0,0,1-.39.36H3.31a.19.19,0,0,0-.21.22,6.5,6.5,0,0,0,.28,2.09,4.27,4.27,0,0,0,4.36,3,5.65,5.65,0,0,0,4.43-1.91c.18-.18.36-.22.54-.08l1.47,1.34a.32.32,0,0,1,0,.5,8.38,8.38,0,0,1-6.73,3C4,177.59,1.51,175.9.58,172.91Zm10.72-5.83c.15,0,.22-.07.22-.21a6.08,6.08,0,0,0-.25-2,3.9,3.9,0,0,0-4-2.7,3.88,3.88,0,0,0-4,2.7,6.08,6.08,0,0,0-.25,2,.19.19,0,0,0,.21.21Z"/><path class="cls-1" d="M22.89,177.38c-3,0-4.21-1.44-4.21-4.54V153.08a.34.34,0,0,1,.36-.36h2.31a.34.34,0,0,1,.36.36v19.58c0,1.44.54,1.91,1.73,1.91h.68a.34.34,0,0,1,.36.36V177a.35.35,0,0,1-.36.36Z"/><path class="cls-1" d="M27.54,172.91a17.21,17.21,0,0,1,0-8.71,6.67,6.67,0,0,1,6.77-4.64A6.68,6.68,0,0,1,41,164.2a15.08,15.08,0,0,1,.54,4.93.35.35,0,0,1-.4.36H30.28a.2.2,0,0,0-.22.22,6.47,6.47,0,0,0,.29,2.09,4.25,4.25,0,0,0,4.35,3,5.65,5.65,0,0,0,4.43-1.91c.18-.18.36-.22.54-.08l1.48,1.34a.31.31,0,0,1,0,.5,8.38,8.38,0,0,1-6.73,3C31,177.59,28.48,175.9,27.54,172.91Zm10.73-5.83a.19.19,0,0,0,.21-.21,6.08,6.08,0,0,0-.25-2,3.9,3.9,0,0,0-4-2.7,3.9,3.9,0,0,0-4,2.7,6.08,6.08,0,0,0-.25,2c0,.14.07.21.22.21Z"/><path class="cls-1" d="M45.21,164.2A6.69,6.69,0,0,1,52,159.56a6.9,6.9,0,0,1,5.9,2.91c.11.18.11.33-.11.51l-1.58,1.29a.31.31,0,0,1-.5,0A4.24,4.24,0,0,0,52,162.37a3.74,3.74,0,0,0-3.85,2.7,15.56,15.56,0,0,0,0,7A3.74,3.74,0,0,0,52,174.79a4.25,4.25,0,0,0,3.71-1.88.31.31,0,0,1,.5,0l1.58,1.29c.22.18.22.33.11.51a6.9,6.9,0,0,1-5.9,2.91A6.69,6.69,0,0,1,45.21,173a18,18,0,0,1,0-8.75Z"/><path class="cls-1" d="M67,177.38c-3.34,0-4.64-1.52-4.64-4.9v-9.86a.19.19,0,0,0-.22-.22H60.69a.34.34,0,0,1-.36-.36v-1.73a.34.34,0,0,1,.36-.35h1.44a.2.2,0,0,0,.22-.22v-4.86a.34.34,0,0,1,.36-.36H65a.34.34,0,0,1,.36.36v4.86a.2.2,0,0,0,.22.22h2.74a.34.34,0,0,1,.36.35V162a.34.34,0,0,1-.36.36H65.59a.2.2,0,0,0-.22.22v9.75c0,1.73.65,2.2,2.2,2.2h.76a.34.34,0,0,1,.36.36V177a.35.35,0,0,1-.36.36Z"/><path class="cls-1" d="M73,177.2a.34.34,0,0,1-.36-.36V160.31A.33.33,0,0,1,73,160h2.3a.33.33,0,0,1,.36.35v1.77h0a4.78,4.78,0,0,1,4.57-2.52,5.29,5.29,0,0,1,3.52,1.29c.18.18.22.33.08.51l-1.34,1.76a.32.32,0,0,1-.5.07,4.89,4.89,0,0,0-2.66-.82c-2.63,0-3.71,2-3.71,5v9.43a.34.34,0,0,1-.36.36Z"/><path class="cls-1" d="M85.57,173a16.79,16.79,0,0,1,0-8.75c.94-2.95,3.46-4.64,6.8-4.64s5.87,1.69,6.81,4.64a17.07,17.07,0,0,1,0,8.75,7.31,7.31,0,0,1-13.61,0Zm10.69-.87a11.16,11.16,0,0,0,.4-3.52,10.91,10.91,0,0,0-.4-3.49,4.15,4.15,0,0,0-7.77,0,10.91,10.91,0,0,0-.4,3.49,11.16,11.16,0,0,0,.4,3.52,4.14,4.14,0,0,0,7.77,0Zm-5.18-14.93c-.22,0-.33-.15-.22-.36l2.74-4.43a.63.63,0,0,1,.61-.36h2.37c.22,0,.33.18.18.36l-3.31,4.43a.7.7,0,0,1-.68.36Z"/><path class="cls-1" d="M115.09,177.2a.34.34,0,0,1-.36-.36V166.76c0-2.77-1.26-4.39-3.85-4.39a3.87,3.87,0,0,0-4,4.21v10.26a.35.35,0,0,1-.36.36h-2.31a.35.35,0,0,1-.36-.36V160.31a.34.34,0,0,1,.36-.35h2.31a.34.34,0,0,1,.36.35v1.59h0a5.47,5.47,0,0,1,4.83-2.34c3.74,0,6,2.55,6,6.48v10.8a.34.34,0,0,1-.36.36Z"/><path class="cls-1" d="M123,156.07a.34.34,0,0,1-.35-.36v-2.63a.33.33,0,0,1,.35-.36h2.45a.34.34,0,0,1,.36.36v2.63a.34.34,0,0,1-.36.36Zm.08,21.13a.34.34,0,0,1-.36-.36V160.31a.33.33,0,0,1,.36-.35h2.3a.33.33,0,0,1,.36.35v16.53a.34.34,0,0,1-.36.36Z"/><path class="cls-1" d="M130.46,164.2c1-3,3.49-4.64,6.8-4.64a6.92,6.92,0,0,1,5.91,2.91c.11.18.11.33-.11.51l-1.58,1.29a.32.32,0,0,1-.51,0,4.24,4.24,0,0,0-3.71-1.87,3.74,3.74,0,0,0-3.85,2.7,15.94,15.94,0,0,0,0,7,3.75,3.75,0,0,0,3.85,2.71,4.25,4.25,0,0,0,3.71-1.88.32.32,0,0,1,.51,0l1.58,1.29c.22.18.22.33.11.51a6.92,6.92,0,0,1-5.91,2.91c-3.31,0-5.83-1.65-6.8-4.64a18,18,0,0,1,0-8.75Z"/><path class="cls-1" d="M146.34,173a16.79,16.79,0,0,1,0-8.75c.93-2.95,3.45-4.64,6.8-4.64s5.87,1.69,6.8,4.64a16.79,16.79,0,0,1,0,8.75,7.3,7.3,0,0,1-13.6,0Zm10.69-.87a11.21,11.21,0,0,0,.39-3.52,11,11,0,0,0-.39-3.49,4.15,4.15,0,0,0-7.78,0,11,11,0,0,0-.39,3.49,11.21,11.21,0,0,0,.39,3.52,4.15,4.15,0,0,0,7.78,0Z"/><path class="cls-1" d="M163.47,175a.35.35,0,0,1,0-.5l1.48-1.59a.35.35,0,0,1,.5,0,8.37,8.37,0,0,0,5.33,2c2.52,0,3.78-1.08,3.78-2.63,0-1.36-.65-2.12-3.35-2.41l-1.83-.18c-3.39-.36-5.15-2-5.15-4.86,0-3.27,2.34-5.25,6.41-5.25a10.28,10.28,0,0,1,6.11,1.91.35.35,0,0,1,.08.5l-1.23,1.55a.35.35,0,0,1-.5.07,9.09,9.09,0,0,0-4.64-1.4c-2.16,0-3.28,1-3.28,2.37s.83,2.09,3.38,2.34l1.8.18c3.5.33,5.19,2.09,5.19,4.86,0,3.39-2.45,5.65-7,5.65A10.75,10.75,0,0,1,163.47,175Z"/><path class="cls-1" d="M181.51,173.38H184a.35.35,0,0,1,.36.36v3.35a1.14,1.14,0,0,1-.22.79l-2.23,3a.56.56,0,0,1-.47.25.32.32,0,0,1-.32-.32v-7A.34.34,0,0,1,181.51,173.38Z"/><path class="cls-1" d="M207.5,177.2a.34.34,0,0,1-.36-.36V166.76c0-2.77-1.26-4.39-3.85-4.39a3.87,3.87,0,0,0-4,4.21v10.26a.35.35,0,0,1-.36.36h-2.31a.35.35,0,0,1-.36-.36V160.31a.34.34,0,0,1,.36-.35H199a.34.34,0,0,1,.36.35v1.59h0a5.47,5.47,0,0,1,4.83-2.34c3.74,0,6,2.55,6,6.48v10.8a.34.34,0,0,1-.36.36Z"/><path class="cls-1" d="M214.7,173a16.79,16.79,0,0,1,0-8.75c.93-2.95,3.45-4.64,6.8-4.64s5.87,1.69,6.81,4.64a17.07,17.07,0,0,1,0,8.75,7.31,7.31,0,0,1-13.61,0Zm10.69-.87a11.16,11.16,0,0,0,.4-3.52,10.91,10.91,0,0,0-.4-3.49,4.15,4.15,0,0,0-7.77,0,10.91,10.91,0,0,0-.4,3.49,11.16,11.16,0,0,0,.4,3.52,4.14,4.14,0,0,0,7.77,0Z"/><path class="cls-1" d="M241.3,177.2a.35.35,0,0,1-.36-.36V160.31a.34.34,0,0,1,.36-.35h2.31a.34.34,0,0,1,.36.35v1.77h0a4.8,4.8,0,0,1,4.57-2.52,5.3,5.3,0,0,1,3.53,1.29c.18.18.22.33.07.51l-1.33,1.76a.32.32,0,0,1-.5.07,4.92,4.92,0,0,0-2.67-.82c-2.62,0-3.7,2-3.7,5v9.43a.35.35,0,0,1-.36.36Z"/><path class="cls-1" d="M253.87,172.91a17.21,17.21,0,0,1,0-8.71,7.26,7.26,0,0,1,13.54,0,15.45,15.45,0,0,1,.53,4.93.35.35,0,0,1-.39.36H256.6a.19.19,0,0,0-.21.22,6.5,6.5,0,0,0,.28,2.09,4.27,4.27,0,0,0,4.36,3,5.65,5.65,0,0,0,4.43-1.91c.18-.18.36-.22.54-.08l1.47,1.34a.32.32,0,0,1,0,.5,8.38,8.38,0,0,1-6.73,3C257.29,177.59,254.8,175.9,253.87,172.91Zm10.72-5.83c.15,0,.22-.07.22-.21a6.08,6.08,0,0,0-.25-2,4.25,4.25,0,0,0-7.92,0,6.08,6.08,0,0,0-.25,2,.19.19,0,0,0,.21.21Z"/><path class="cls-1" d="M282.48,177.2a.34.34,0,0,1-.35-.36v-1.51h0c-.79,1.29-2.48,2.26-5.11,2.26-3.28,0-5.8-1.69-5.8-5.18s2.52-5.33,6.73-5.33h3.93a.19.19,0,0,0,.21-.21v-1.26c0-2.38-.93-3.39-4.14-3.39a6.7,6.7,0,0,0-4.17,1.23.33.33,0,0,1-.51,0l-1-1.66a.38.38,0,0,1,.07-.5,9.58,9.58,0,0,1,5.87-1.69c4.9,0,6.77,1.62,6.77,5.87v11.41a.35.35,0,0,1-.36.36Zm-.43-5.58v-1.91a.19.19,0,0,0-.21-.22h-3.46c-3,0-4.28.87-4.28,2.81,0,1.77,1.29,2.7,3.6,2.7C280.4,175,282.05,173.74,282.05,171.62Z"/><path class="cls-1" d="M294.15,177.38c-3,0-4.21-1.44-4.21-4.54V153.08a.34.34,0,0,1,.36-.36h2.3a.34.34,0,0,1,.36.36v19.58c0,1.44.54,1.91,1.73,1.91h.68a.34.34,0,0,1,.36.36V177a.34.34,0,0,1-.36.36Z"/><path class="cls-1" d="M299.55,156.07a.34.34,0,0,1-.36-.36v-2.63a.34.34,0,0,1,.36-.36H302a.34.34,0,0,1,.36.36v2.63a.35.35,0,0,1-.36.36Zm.07,21.13a.35.35,0,0,1-.36-.36V160.31a.34.34,0,0,1,.36-.35h2.31a.34.34,0,0,1,.36.35v16.53a.35.35,0,0,1-.36.36Z"/><path class="cls-1" d="M307,164.2a6.69,6.69,0,0,1,6.81-4.64,6.9,6.9,0,0,1,5.9,2.91c.11.18.11.33-.11.51L318,164.27a.31.31,0,0,1-.5,0,4.24,4.24,0,0,0-3.71-1.87,3.74,3.74,0,0,0-3.85,2.7,15.56,15.56,0,0,0,0,7,3.74,3.74,0,0,0,3.85,2.71,4.25,4.25,0,0,0,3.71-1.88.31.31,0,0,1,.5,0l1.58,1.29c.22.18.22.33.11.51a6.9,6.9,0,0,1-5.9,2.91A6.69,6.69,0,0,1,307,173a18,18,0,0,1,0-8.75Z"/><path class="cls-1" d="M322.84,172.91a17.21,17.21,0,0,1,0-8.71,7.26,7.26,0,0,1,13.54,0,15.08,15.08,0,0,1,.54,4.93.35.35,0,0,1-.4.36h-10.9a.2.2,0,0,0-.22.22,6.47,6.47,0,0,0,.29,2.09,4.25,4.25,0,0,0,4.35,3,5.62,5.62,0,0,0,4.43-1.91c.18-.18.36-.22.54-.08l1.48,1.34a.31.31,0,0,1,0,.5,8.35,8.35,0,0,1-6.73,3C326.26,177.59,323.78,175.9,322.84,172.91Zm10.73-5.83a.19.19,0,0,0,.21-.21,6.08,6.08,0,0,0-.25-2,4.25,4.25,0,0,0-7.92,0,6.08,6.08,0,0,0-.25,2c0,.14.07.21.22.21Z"/><path class="cls-1" d="M353.94,177.38c-3.34,0-4.64-1.52-4.64-4.9v-9.86a.19.19,0,0,0-.22-.22h-1.44a.33.33,0,0,1-.35-.36v-1.73a.33.33,0,0,1,.35-.35h1.44a.2.2,0,0,0,.22-.22v-4.86a.34.34,0,0,1,.36-.36H352a.34.34,0,0,1,.36.36v4.86a.2.2,0,0,0,.22.22h2.74a.34.34,0,0,1,.36.35V162a.34.34,0,0,1-.36.36h-2.74a.2.2,0,0,0-.22.22v9.75c0,1.73.65,2.2,2.2,2.2h.76a.34.34,0,0,1,.36.36V177a.35.35,0,0,1-.36.36Z"/><path class="cls-1" d="M360,177.2a.34.34,0,0,1-.36-.36V160.31A.33.33,0,0,1,360,160h2.3a.33.33,0,0,1,.36.35v1.77h0a4.78,4.78,0,0,1,4.57-2.52,5.29,5.29,0,0,1,3.52,1.29c.18.18.22.33.08.51l-1.34,1.76a.32.32,0,0,1-.5.07,4.89,4.89,0,0,0-2.66-.82c-2.63,0-3.71,2-3.71,5v9.43a.34.34,0,0,1-.36.36Z"/><path class="cls-1" d="M383.21,177.2a.34.34,0,0,1-.36-.36v-1.51h0c-.79,1.29-2.48,2.26-5.11,2.26-3.27,0-5.79-1.69-5.79-5.18s2.52-5.33,6.73-5.33h3.92c.15,0,.22-.07.22-.21v-1.26c0-2.38-.94-3.39-4.14-3.39a6.73,6.73,0,0,0-4.18,1.23.32.32,0,0,1-.5,0l-1-1.66a.38.38,0,0,1,.07-.5,9.56,9.56,0,0,1,5.87-1.69c4.89,0,6.76,1.62,6.76,5.87v11.41a.34.34,0,0,1-.36.36Zm-.43-5.58v-1.91a.2.2,0,0,0-.22-.22h-3.45c-3,0-4.29.87-4.29,2.81,0,1.77,1.3,2.7,3.6,2.7C381.12,175,382.78,173.74,382.78,171.62Z"/><path class="cls-1" d="M391.1,177.2a.34.34,0,0,1-.36-.36V153.08a.34.34,0,0,1,.36-.36h2.3a.34.34,0,0,1,.36.36v8.85h0c.82-1.36,2.3-2.37,4.89-2.37,3,0,5.08,1.4,5.94,4.14a19.78,19.78,0,0,1,0,9.75c-.86,2.74-2.95,4.14-5.94,4.14-2.59,0-4.07-1-4.89-2.41h0v1.66a.34.34,0,0,1-.36.36Zm10.65-5a11.89,11.89,0,0,0,.4-3.6,12.15,12.15,0,0,0-.4-3.6,4.08,4.08,0,0,0-7.59,0,11.12,11.12,0,0,0-.4,3.6,11,11,0,0,0,.4,3.6,4.05,4.05,0,0,0,7.59,0Z"/><path class="cls-1" d="M419.82,177.2a.35.35,0,0,1-.36-.36v-1.51h0c-.8,1.29-2.49,2.26-5.11,2.26-3.28,0-5.8-1.69-5.8-5.18s2.52-5.33,6.73-5.33h3.92c.15,0,.22-.07.22-.21v-1.26c0-2.38-.93-3.39-4.14-3.39a6.68,6.68,0,0,0-4.17,1.23.33.33,0,0,1-.51,0l-1-1.66a.38.38,0,0,1,.07-.5,9.56,9.56,0,0,1,5.87-1.69c4.89,0,6.77,1.62,6.77,5.87v11.41a.35.35,0,0,1-.36.36Zm-.43-5.58v-1.91a.2.2,0,0,0-.22-.22h-3.45c-3,0-4.28.87-4.28,2.81,0,1.77,1.29,2.7,3.6,2.7C417.73,175,419.39,173.74,419.39,171.62Z"/><path class="cls-1" d="M424.5,183.68a.35.35,0,0,1-.36-.36v-2.09a.34.34,0,0,1,.36-.36h.58c1.69,0,2.27-.47,2.27-2.31V160.31a.33.33,0,0,1,.36-.35H430a.33.33,0,0,1,.36.35v18.18c0,3.71-1.66,5.19-5.15,5.19Zm3.14-27.61a.34.34,0,0,1-.36-.36v-2.63a.34.34,0,0,1,.36-.36h2.44a.34.34,0,0,1,.36.36v2.63a.34.34,0,0,1-.36.36Z"/><path class="cls-1" d="M435.09,173a16.79,16.79,0,0,1,0-8.75c.93-2.95,3.45-4.64,6.8-4.64s5.87,1.69,6.8,4.64a16.79,16.79,0,0,1,0,8.75,7.3,7.3,0,0,1-13.6,0Zm10.69-.87a11.21,11.21,0,0,0,.39-3.52,11,11,0,0,0-.39-3.49,4.15,4.15,0,0,0-7.78,0,11,11,0,0,0-.39,3.49,11.21,11.21,0,0,0,.39,3.52,4.15,4.15,0,0,0,7.78,0Z"/><path class="cls-1" d="M452.22,175a.35.35,0,0,1,0-.5l1.48-1.59a.35.35,0,0,1,.5,0,8.37,8.37,0,0,0,5.33,2c2.52,0,3.78-1.08,3.78-2.63,0-1.36-.65-2.12-3.35-2.41l-1.83-.18c-3.39-.36-5.15-2-5.15-4.86,0-3.27,2.34-5.25,6.41-5.25a10.26,10.26,0,0,1,6.11,1.91.33.33,0,0,1,.08.5l-1.23,1.55a.35.35,0,0,1-.5.07,9.09,9.09,0,0,0-4.64-1.4c-2.16,0-3.28,1-3.28,2.37s.83,2.09,3.38,2.34l1.8.18c3.5.33,5.19,2.09,5.19,4.86,0,3.39-2.45,5.65-6.95,5.65A10.75,10.75,0,0,1,452.22,175Z"/><path class="cls-1" d="M500.28,177.2a.34.34,0,0,1-.36-.36V166.76c0-2.77-1.26-4.39-3.85-4.39a3.88,3.88,0,0,0-4,4.21v10.26a.35.35,0,0,1-.36.36h-2.31a.35.35,0,0,1-.36-.36V166.76c0-2.77-1.26-4.39-3.85-4.39a3.87,3.87,0,0,0-4,4.21v10.26a.34.34,0,0,1-.36.36h-2.3a.34.34,0,0,1-.36-.36V160.31a.33.33,0,0,1,.36-.35h2.3a.33.33,0,0,1,.36.35v1.59h0a6.09,6.09,0,0,1,9.86.36h0a6.41,6.41,0,0,1,5.58-2.7c4,0,6.15,2.55,6.15,6.48v10.8a.34.34,0,0,1-.36.36Z"/><path class="cls-1" d="M508.24,156.07a.34.34,0,0,1-.36-.36v-2.63a.34.34,0,0,1,.36-.36h2.45a.33.33,0,0,1,.35.36v2.63a.34.34,0,0,1-.35.36Zm.07,21.13a.34.34,0,0,1-.36-.36V160.31a.33.33,0,0,1,.36-.35h2.3a.33.33,0,0,1,.36.35v16.53a.34.34,0,0,1-.36.36Z"/><path class="cls-1" d="M515.69,172.91a17.21,17.21,0,0,1,0-8.71,7.26,7.26,0,0,1,13.54,0,15.08,15.08,0,0,1,.54,4.93.35.35,0,0,1-.4.36H518.42a.19.19,0,0,0-.21.22,6.47,6.47,0,0,0,.29,2.09,4.25,4.25,0,0,0,4.35,3,5.65,5.65,0,0,0,4.43-1.91c.18-.18.36-.22.54-.08l1.48,1.34a.31.31,0,0,1,0,.5,8.38,8.38,0,0,1-6.73,3C519.11,177.59,516.63,175.9,515.69,172.91Zm10.73-5.83a.19.19,0,0,0,.21-.21,6.08,6.08,0,0,0-.25-2,4.25,4.25,0,0,0-7.92,0,6.08,6.08,0,0,0-.25,2,.19.19,0,0,0,.21.21Z"/><path class="cls-1" d="M545.06,177.2a.35.35,0,0,1-.36-.36V166.76c0-2.77-1.26-4.39-3.85-4.39a3.87,3.87,0,0,0-4,4.21v10.26a.34.34,0,0,1-.36.36h-2.3a.34.34,0,0,1-.36-.36V160.31a.33.33,0,0,1,.36-.35h2.3a.33.33,0,0,1,.36.35v1.59h0a5.45,5.45,0,0,1,4.82-2.34c3.75,0,6,2.55,6,6.48v10.8a.35.35,0,0,1-.36.36Z"/><path class="cls-1" d="M557.74,177.38c-3.35,0-4.65-1.52-4.65-4.9v-9.86c0-.15-.07-.22-.21-.22h-1.44a.34.34,0,0,1-.36-.36v-1.73a.33.33,0,0,1,.36-.35h1.44a.19.19,0,0,0,.21-.22v-4.86a.34.34,0,0,1,.36-.36h2.31a.34.34,0,0,1,.36.36v4.86a.19.19,0,0,0,.21.22h2.74a.34.34,0,0,1,.36.35V162a.34.34,0,0,1-.36.36h-2.74c-.14,0-.21.07-.21.22v9.75c0,1.73.64,2.2,2.19,2.2h.76a.34.34,0,0,1,.36.36V177a.35.35,0,0,1-.36.36Z"/><path class="cls-1" d="M563.75,177.2a.34.34,0,0,1-.36-.36V160.31a.33.33,0,0,1,.36-.35h2.3a.33.33,0,0,1,.36.35v1.77h0a4.79,4.79,0,0,1,4.57-2.52,5.32,5.32,0,0,1,3.53,1.29c.18.18.21.33.07.51l-1.33,1.76a.33.33,0,0,1-.51.07,4.86,4.86,0,0,0-2.66-.82c-2.63,0-3.71,2-3.71,5v9.43a.34.34,0,0,1-.36.36Z"/><path class="cls-1" d="M587,177.2a.35.35,0,0,1-.36-.36v-1.51h0c-.8,1.29-2.49,2.26-5.11,2.26-3.28,0-5.8-1.69-5.8-5.18s2.52-5.33,6.73-5.33h3.93a.19.19,0,0,0,.21-.21v-1.26c0-2.38-.94-3.39-4.14-3.39a6.68,6.68,0,0,0-4.17,1.23.33.33,0,0,1-.51,0l-1-1.66a.38.38,0,0,1,.07-.5,9.56,9.56,0,0,1,5.87-1.69c4.9,0,6.77,1.62,6.77,5.87v11.41a.35.35,0,0,1-.36.36Zm-.43-5.58v-1.91a.19.19,0,0,0-.21-.22H582.9c-3,0-4.28.87-4.28,2.81,0,1.77,1.29,2.7,3.6,2.7C584.92,175,586.57,173.74,586.57,171.62Z"/><path class="cls-1" d="M593.34,175a.35.35,0,0,1,0-.5l1.48-1.59a.35.35,0,0,1,.5,0,8.37,8.37,0,0,0,5.33,2c2.52,0,3.78-1.08,3.78-2.63,0-1.36-.65-2.12-3.35-2.41l-1.84-.18c-3.38-.36-5.14-2-5.14-4.86,0-3.27,2.34-5.25,6.4-5.25a10.32,10.32,0,0,1,6.12,1.91.35.35,0,0,1,.08.5l-1.23,1.55a.35.35,0,0,1-.5.07,9.09,9.09,0,0,0-4.65-1.4c-2.16,0-3.27,1-3.27,2.37s.83,2.09,3.38,2.34l1.8.18c3.49.33,5.18,2.09,5.18,4.86,0,3.39-2.44,5.65-6.94,5.65A10.73,10.73,0,0,1,593.34,175Z"/><path class="cls-1" d="M638.12,177.2a.35.35,0,0,1-.36-.36v-1.62h0a5.26,5.26,0,0,1-4.72,2.37c-3.78,0-6-2.59-6-6.51V160.31a.33.33,0,0,1,.36-.35h2.3a.33.33,0,0,1,.36.35v10.05c0,2.81,1.26,4.43,3.82,4.43,2.33,0,3.88-1.66,3.88-4.25V160.31a.34.34,0,0,1,.36-.35h2.31a.34.34,0,0,1,.36.35v16.53a.35.35,0,0,1-.36.36Z"/><path class="cls-1" d="M644.78,175a.35.35,0,0,1,0-.5l1.48-1.59a.35.35,0,0,1,.5,0,8.37,8.37,0,0,0,5.33,2c2.52,0,3.78-1.08,3.78-2.63,0-1.36-.65-2.12-3.35-2.41l-1.83-.18c-3.39-.36-5.15-2-5.15-4.86,0-3.27,2.34-5.25,6.41-5.25a10.32,10.32,0,0,1,6.12,1.91.34.34,0,0,1,.07.5l-1.23,1.55a.35.35,0,0,1-.5.07,9.09,9.09,0,0,0-4.64-1.4c-2.16,0-3.28,1-3.28,2.37s.83,2.09,3.38,2.34l1.8.18c3.5.33,5.19,2.09,5.19,4.86,0,3.39-2.45,5.65-7,5.65A10.75,10.75,0,0,1,644.78,175Z"/><path class="cls-1" d="M673.33,177.2a.34.34,0,0,1-.36-.36v-1.51h0c-.79,1.29-2.48,2.26-5.11,2.26-3.27,0-5.79-1.69-5.79-5.18s2.52-5.33,6.73-5.33h3.92c.15,0,.22-.07.22-.21v-1.26c0-2.38-.94-3.39-4.14-3.39a6.71,6.71,0,0,0-4.18,1.23.32.32,0,0,1-.5,0l-1-1.66a.37.37,0,0,1,.07-.5,9.53,9.53,0,0,1,5.86-1.69c4.9,0,6.77,1.62,6.77,5.87v11.41a.34.34,0,0,1-.36.36Zm-.43-5.58v-1.91a.2.2,0,0,0-.22-.22h-3.45c-3,0-4.29.87-4.29,2.81,0,1.77,1.3,2.7,3.6,2.7C671.24,175,672.9,173.74,672.9,171.62Z"/><path class="cls-1" d="M23.72,215.2a.35.35,0,0,1-.36-.36v-1.66h0c-.83,1.37-2.31,2.41-4.9,2.41-3,0-5.07-1.4-5.94-4.14a19.78,19.78,0,0,1,0-9.75c.87-2.74,2.95-4.14,5.94-4.14,2.59,0,4.07,1,4.9,2.37h0v-8.85a.34.34,0,0,1,.36-.36H26a.34.34,0,0,1,.36.36v23.76a.35.35,0,0,1-.36.36Zm-.75-5a11.35,11.35,0,0,0,.39-3.6A11.47,11.47,0,0,0,23,203a3.67,3.67,0,0,0-3.82-2.59A3.66,3.66,0,0,0,15.37,203a12.2,12.2,0,0,0-.39,3.6,11.94,11.94,0,0,0,.39,3.6,3.69,3.69,0,0,0,3.78,2.63A3.71,3.71,0,0,0,23,210.16Z"/><path class="cls-1" d="M31.86,194.07a.34.34,0,0,1-.36-.36v-2.63a.34.34,0,0,1,.36-.36h2.45a.34.34,0,0,1,.36.36v2.63a.35.35,0,0,1-.36.36Zm.07,21.13a.35.35,0,0,1-.36-.36V198.31a.35.35,0,0,1,.36-.36h2.31a.35.35,0,0,1,.36.36v16.53a.35.35,0,0,1-.36.36Z"/><path class="cls-1" d="M39.28,202.2c1-3,3.49-4.64,6.8-4.64a6.9,6.9,0,0,1,5.9,2.91c.11.18.11.33-.11.51l-1.58,1.29a.31.31,0,0,1-.5,0,4.24,4.24,0,0,0-3.71-1.87,3.74,3.74,0,0,0-3.85,2.7,15.56,15.56,0,0,0,0,7,3.74,3.74,0,0,0,3.85,2.71,4.25,4.25,0,0,0,3.71-1.88.31.31,0,0,1,.5,0l1.58,1.29c.22.18.22.33.11.51a6.9,6.9,0,0,1-5.9,2.91c-3.31,0-5.83-1.65-6.8-4.64a18,18,0,0,1,0-8.75Z"/><path class="cls-1" d="M67.25,215.2a.34.34,0,0,1-.36-.36V204.76c0-2.77-1.26-4.39-3.86-4.39a3.87,3.87,0,0,0-4,4.21v10.26a.34.34,0,0,1-.36.36h-2.3a.35.35,0,0,1-.36-.36V191.08a.34.34,0,0,1,.36-.36h2.3a.34.34,0,0,1,.36.36v8.82h0a5.45,5.45,0,0,1,4.82-2.34c3.75,0,6,2.55,6,6.48v10.8a.34.34,0,0,1-.36.36Z"/><path class="cls-1" d="M74.45,211a16.79,16.79,0,0,1,0-8.75c.93-2.95,3.45-4.64,6.8-4.64s5.87,1.69,6.8,4.64a16.79,16.79,0,0,1,0,8.75,6.7,6.7,0,0,1-6.8,4.64A6.7,6.7,0,0,1,74.45,211Zm10.69-.87a11.21,11.21,0,0,0,.39-3.52,11,11,0,0,0-.39-3.49,4.15,4.15,0,0,0-7.78,0,11,11,0,0,0-.39,3.49,11.21,11.21,0,0,0,.39,3.52,4.15,4.15,0,0,0,7.78,0Z"/><path class="cls-1" d="M91.58,213a.35.35,0,0,1,0-.5l1.48-1.59a.35.35,0,0,1,.5,0,8.37,8.37,0,0,0,5.33,2c2.52,0,3.78-1.08,3.78-2.63,0-1.36-.65-2.12-3.35-2.41l-1.83-.18c-3.39-.36-5.15-2-5.15-4.86,0-3.27,2.34-5.25,6.41-5.25a10.34,10.34,0,0,1,6.12,1.91.36.36,0,0,1,.07.5l-1.23,1.55a.35.35,0,0,1-.5.07,9.09,9.09,0,0,0-4.64-1.4c-2.16,0-3.28,1-3.28,2.37s.83,2.09,3.38,2.34l1.8.18c3.49.33,5.19,2.09,5.19,4.86,0,3.39-2.45,5.65-7,5.65A10.75,10.75,0,0,1,91.58,213Z"/><path class="cls-1" d="M128.41,215.2a.34.34,0,0,1-.36-.36v-1.66h0c-.83,1.37-2.3,2.41-4.89,2.41-3,0-5.08-1.4-5.94-4.14a19.78,19.78,0,0,1,0-9.75c.86-2.74,2.95-4.14,5.94-4.14,2.59,0,4.06,1,4.89,2.37h0v-8.85a.34.34,0,0,1,.36-.36h2.3a.34.34,0,0,1,.36.36v23.76a.34.34,0,0,1-.36.36Zm-.76-5a11,11,0,0,0,.4-3.6,11.12,11.12,0,0,0-.4-3.6,4.08,4.08,0,0,0-7.59,0,12.15,12.15,0,0,0-.4,3.6,11.89,11.89,0,0,0,.4,3.6,4.05,4.05,0,0,0,7.59,0Z"/><path class="cls-1" d="M136.54,194.07a.34.34,0,0,1-.35-.36v-2.63a.33.33,0,0,1,.35-.36H139a.34.34,0,0,1,.36.36v2.63a.34.34,0,0,1-.36.36Zm.08,21.13a.34.34,0,0,1-.36-.36V198.31a.34.34,0,0,1,.36-.36h2.3a.34.34,0,0,1,.36.36v16.53a.34.34,0,0,1-.36.36Z"/><path class="cls-1" d="M143.28,213a.33.33,0,0,1,0-.5l1.47-1.59a.36.36,0,0,1,.51,0,8.34,8.34,0,0,0,5.32,2c2.52,0,3.78-1.08,3.78-2.63,0-1.36-.64-2.12-3.34-2.41l-1.84-.18c-3.38-.36-5.15-2-5.15-4.86,0-3.27,2.34-5.25,6.41-5.25a10.32,10.32,0,0,1,6.12,1.91.34.34,0,0,1,.07.5l-1.22,1.55a.36.36,0,0,1-.51.07,9.06,9.06,0,0,0-4.64-1.4c-2.16,0-3.28,1-3.28,2.37s.83,2.09,3.39,2.34l1.8.18c3.49.33,5.18,2.09,5.18,4.86,0,3.39-2.45,5.65-6.95,5.65A10.72,10.72,0,0,1,143.28,213Z"/><path class="cls-1" d="M161.74,221.68a.35.35,0,0,1-.36-.36v-23a.35.35,0,0,1,.36-.36h2.31a.35.35,0,0,1,.36.36v1.62h0c.83-1.36,2.31-2.37,4.9-2.37,3,0,5.08,1.4,5.94,4.14a19.78,19.78,0,0,1,0,9.75c-.86,2.74-2.95,4.14-5.94,4.14-2.59,0-4.07-1-4.9-2.41h0v8.14a.35.35,0,0,1-.36.36Zm10.66-11.52a11.94,11.94,0,0,0,.39-3.6,12.2,12.2,0,0,0-.39-3.6,4.08,4.08,0,0,0-7.6,0,11.47,11.47,0,0,0-.39,3.6,11.35,11.35,0,0,0,.39,3.6,4.06,4.06,0,0,0,7.6,0Z"/><path class="cls-1" d="M179.56,211a17.07,17.07,0,0,1,0-8.75c.94-2.95,3.46-4.64,6.81-4.64s5.87,1.69,6.8,4.64a16.79,16.79,0,0,1,0,8.75,7.31,7.31,0,0,1-13.61,0Zm10.7-.87a11.52,11.52,0,0,0,.39-3.52,11.26,11.26,0,0,0-.39-3.49,4.15,4.15,0,0,0-7.78,0,10.91,10.91,0,0,0-.4,3.49,11.16,11.16,0,0,0,.4,3.52,4.15,4.15,0,0,0,7.78,0Z"/><path class="cls-1" d="M196.7,213a.35.35,0,0,1,0-.5l1.48-1.59a.35.35,0,0,1,.5,0,8.37,8.37,0,0,0,5.33,2c2.52,0,3.78-1.08,3.78-2.63,0-1.36-.65-2.12-3.35-2.41l-1.84-.18c-3.38-.36-5.14-2-5.14-4.86,0-3.27,2.34-5.25,6.4-5.25a10.32,10.32,0,0,1,6.12,1.91.34.34,0,0,1,.07.5l-1.22,1.55a.35.35,0,0,1-.5.07,9.09,9.09,0,0,0-4.65-1.4c-2.16,0-3.27,1-3.27,2.37s.83,2.09,3.38,2.34l1.8.18c3.49.33,5.19,2.09,5.19,4.86,0,3.39-2.45,5.65-6.95,5.65A10.73,10.73,0,0,1,196.7,213Z"/><path class="cls-1" d="M215.1,194.07a.34.34,0,0,1-.36-.36v-2.63a.34.34,0,0,1,.36-.36h2.44a.34.34,0,0,1,.36.36v2.63a.34.34,0,0,1-.36.36Zm.07,21.13a.34.34,0,0,1-.36-.36V198.31a.34.34,0,0,1,.36-.36h2.3a.34.34,0,0,1,.36.36v16.53a.34.34,0,0,1-.36.36Z"/><path class="cls-1" d="M228,215.38c-3.35,0-4.64-1.52-4.64-4.9v-9.86a.2.2,0,0,0-.22-.22h-1.44a.34.34,0,0,1-.36-.36v-1.73a.34.34,0,0,1,.36-.36h1.44a.19.19,0,0,0,.22-.21v-4.86a.34.34,0,0,1,.36-.36H226a.34.34,0,0,1,.36.36v4.86c0,.14.07.21.22.21h2.73a.34.34,0,0,1,.36.36V200a.34.34,0,0,1-.36.36h-2.73a.19.19,0,0,0-.22.22v9.75c0,1.73.65,2.2,2.19,2.2h.76a.34.34,0,0,1,.36.36V215a.34.34,0,0,1-.36.36Z"/><path class="cls-1" d="M234,194.07a.34.34,0,0,1-.36-.36v-2.63a.34.34,0,0,1,.36-.36h2.45a.34.34,0,0,1,.36.36v2.63a.35.35,0,0,1-.36.36ZM234,215.2a.35.35,0,0,1-.36-.36V198.31A.35.35,0,0,1,234,198h2.3a.35.35,0,0,1,.37.36v16.53a.35.35,0,0,1-.37.36Z"/><path class="cls-1" d="M246.49,215.2c-.26,0-.36-.15-.44-.36l-6.19-16.53c-.07-.21,0-.36.29-.36h2.48c.26,0,.36.11.47.36l4.47,12.39h.07L252,198.31a.43.43,0,0,1,.44-.36h2.44c.26,0,.36.15.29.36L249,214.84a.48.48,0,0,1-.47.36Z"/><path class="cls-1" d="M257.72,211a16.79,16.79,0,0,1,0-8.75c.93-2.95,3.45-4.64,6.8-4.64s5.87,1.69,6.8,4.64a16.79,16.79,0,0,1,0,8.75,7.3,7.3,0,0,1-13.6,0Zm10.69-.87a11.21,11.21,0,0,0,.39-3.52,11,11,0,0,0-.39-3.49,4.15,4.15,0,0,0-7.78,0,11.26,11.26,0,0,0-.39,3.49,11.52,11.52,0,0,0,.39,3.52,4.15,4.15,0,0,0,7.78,0Z"/><path class="cls-1" d="M274.85,213a.35.35,0,0,1,0-.5l1.48-1.59a.35.35,0,0,1,.5,0,8.37,8.37,0,0,0,5.33,2c2.52,0,3.78-1.08,3.78-2.63,0-1.36-.65-2.12-3.35-2.41l-1.83-.18c-3.39-.36-5.15-2-5.15-4.86,0-3.27,2.34-5.25,6.41-5.25a10.32,10.32,0,0,1,6.12,1.91.34.34,0,0,1,.07.5L287,201.52a.35.35,0,0,1-.5.07,9.06,9.06,0,0,0-4.64-1.4c-2.16,0-3.28,1-3.28,2.37s.83,2.09,3.39,2.34l1.8.18c3.49.33,5.18,2.09,5.18,4.86,0,3.39-2.45,5.65-6.95,5.65A10.75,10.75,0,0,1,274.85,213Z"/><path class="cls-1" d="M292.89,211.38h2.52a.34.34,0,0,1,.36.36v3.35a1.14,1.14,0,0,1-.22.79l-2.23,3a.56.56,0,0,1-.47.25.32.32,0,0,1-.32-.32v-7A.34.34,0,0,1,292.89,211.38Z"/><path class="cls-1" d="M308,221.68a.34.34,0,0,1-.35-.36v-23A.34.34,0,0,1,308,198h2.31a.35.35,0,0,1,.36.36v1.62h0c.82-1.36,2.3-2.37,4.89-2.37,3,0,5.08,1.4,5.94,4.14a19.78,19.78,0,0,1,0,9.75c-.86,2.74-2.95,4.14-5.94,4.14-2.59,0-4.07-1-4.89-2.41h0v8.14a.35.35,0,0,1-.36.36Zm10.66-11.52a11.89,11.89,0,0,0,.4-3.6,12.15,12.15,0,0,0-.4-3.6,4.08,4.08,0,0,0-7.6,0,11.47,11.47,0,0,0-.39,3.6,11.35,11.35,0,0,0,.39,3.6,4.06,4.06,0,0,0,7.6,0Z"/><path class="cls-1" d="M325.87,211a16.79,16.79,0,0,1,0-8.75c.93-2.95,3.45-4.64,6.8-4.64s5.87,1.69,6.8,4.64a16.79,16.79,0,0,1,0,8.75,7.3,7.3,0,0,1-13.6,0Zm10.69-.87a11.52,11.52,0,0,0,.39-3.52,11.26,11.26,0,0,0-.39-3.49,4.15,4.15,0,0,0-7.78,0,10.91,10.91,0,0,0-.4,3.49,11.16,11.16,0,0,0,.4,3.52,4.15,4.15,0,0,0,7.78,0Z"/><path class="cls-1" d="M355.38,215.2a.35.35,0,0,1-.36-.36V204.76c0-2.77-1.26-4.39-3.85-4.39a3.87,3.87,0,0,0-4,4.21v10.26a.34.34,0,0,1-.36.36h-2.3a.34.34,0,0,1-.36-.36V198.31a.34.34,0,0,1,.36-.36h2.3a.34.34,0,0,1,.36.36v1.59h0a5.45,5.45,0,0,1,4.82-2.34c3.74,0,6,2.55,6,6.48v10.8a.35.35,0,0,1-.36.36Z"/><path class="cls-1" d="M362.69,219.52a.33.33,0,0,1,0-.51l1.47-1.47a.34.34,0,0,1,.54,0,5.76,5.76,0,0,0,4.07,1.72c2.85,0,4.36-1.47,4.36-4.64v-2h0c-.79,1.44-2.27,2.38-4.79,2.38a5.65,5.65,0,0,1-5.79-4.17,18.06,18.06,0,0,1,0-9.08,5.64,5.64,0,0,1,5.79-4.17c2.52,0,4,.94,4.79,2.37h0v-1.62a.34.34,0,0,1,.36-.36h2.3a.34.34,0,0,1,.36.36v16.13c0,4.9-2.66,7.63-7.52,7.63A7.8,7.8,0,0,1,362.69,219.52Zm10.08-9.9a10.43,10.43,0,0,0,.4-3.35,10.55,10.55,0,0,0-.4-3.35,3.89,3.89,0,0,0-7.31,0,11.09,11.09,0,0,0-.43,3.35,11,11,0,0,0,.43,3.35,3.53,3.53,0,0,0,3.64,2.59A3.56,3.56,0,0,0,372.77,209.62Z"/><path class="cls-1" d="M391.81,215.2a.34.34,0,0,1-.35-.36v-1.51h0c-.79,1.29-2.48,2.26-5.11,2.26-3.28,0-5.8-1.69-5.8-5.18s2.52-5.33,6.73-5.33h3.93a.19.19,0,0,0,.21-.21v-1.26c0-2.38-.93-3.39-4.14-3.39a6.7,6.7,0,0,0-4.17,1.23.33.33,0,0,1-.51,0l-1-1.66a.38.38,0,0,1,.07-.5,9.58,9.58,0,0,1,5.87-1.69c4.9,0,6.77,1.62,6.77,5.87v11.41a.35.35,0,0,1-.36.36Zm-.43-5.58v-1.91a.19.19,0,0,0-.21-.22h-3.46c-3,0-4.28.87-4.28,2.81,0,1.77,1.29,2.7,3.6,2.7C389.73,213,391.38,211.74,391.38,209.62Z"/><path class="cls-1" d="M412.26,215.38c-3.34,0-4.64-1.52-4.64-4.9v-9.86a.19.19,0,0,0-.22-.22H406a.34.34,0,0,1-.36-.36v-1.73A.35.35,0,0,1,406,198h1.44c.15,0,.22-.07.22-.21v-4.86a.34.34,0,0,1,.36-.36h2.3a.34.34,0,0,1,.36.36v4.86c0,.14.07.21.22.21h2.73a.35.35,0,0,1,.37.36V200a.34.34,0,0,1-.37.36h-2.73a.19.19,0,0,0-.22.22v9.75c0,1.73.65,2.2,2.2,2.2h.75a.34.34,0,0,1,.37.36V215a.35.35,0,0,1-.37.36Z"/><path class="cls-1" d="M417.45,211a16.79,16.79,0,0,1,0-8.75c.93-2.95,3.45-4.64,6.8-4.64s5.87,1.69,6.8,4.64a16.79,16.79,0,0,1,0,8.75,7.3,7.3,0,0,1-13.6,0Zm10.69-.87a11.21,11.21,0,0,0,.39-3.52,11,11,0,0,0-.39-3.49,4.15,4.15,0,0,0-7.78,0,11.26,11.26,0,0,0-.39,3.49,11.52,11.52,0,0,0,.39,3.52,4.15,4.15,0,0,0,7.78,0Z"/><path class="cls-1" d="M440.77,215.38c-3.34,0-4.64-1.52-4.64-4.9v-9.86c0-.15-.07-.22-.21-.22h-1.45a.33.33,0,0,1-.35-.36v-1.73a.34.34,0,0,1,.35-.36h1.45a.19.19,0,0,0,.21-.21v-4.86a.34.34,0,0,1,.36-.36h2.3a.34.34,0,0,1,.36.36v4.86a.19.19,0,0,0,.22.21h2.74a.35.35,0,0,1,.36.36V200a.34.34,0,0,1-.36.36h-2.74a.2.2,0,0,0-.22.22v9.75c0,1.73.65,2.2,2.2,2.2h.76a.34.34,0,0,1,.36.36V215a.35.35,0,0,1-.36.36Z"/><path class="cls-1" d="M456.87,215.2a.34.34,0,0,1-.36-.36v-1.51h0c-.79,1.29-2.48,2.26-5.11,2.26-3.28,0-5.8-1.69-5.8-5.18s2.52-5.33,6.73-5.33h3.93a.19.19,0,0,0,.21-.21v-1.26c0-2.38-.93-3.39-4.14-3.39a6.7,6.7,0,0,0-4.17,1.23.33.33,0,0,1-.51,0l-1-1.66a.39.39,0,0,1,.07-.5,9.58,9.58,0,0,1,5.87-1.69c4.9,0,6.77,1.62,6.77,5.87v11.41a.34.34,0,0,1-.36.36Zm-.44-5.58v-1.91a.19.19,0,0,0-.21-.22h-3.46c-3,0-4.28.87-4.28,2.81,0,1.77,1.29,2.7,3.6,2.7C454.78,213,456.43,211.74,456.43,209.62Z"/><path class="cls-1" d="M468.53,215.38c-3,0-4.21-1.44-4.21-4.54V191.08a.34.34,0,0,1,.36-.36H467a.34.34,0,0,1,.36.36v19.58c0,1.44.54,1.91,1.73,1.91h.68a.34.34,0,0,1,.36.36V215a.34.34,0,0,1-.36.36Z"/><path class="cls-1" d="M492,215.2a.34.34,0,0,1-.36-.36v-1.51h0c-.79,1.29-2.48,2.26-5.11,2.26-3.27,0-5.79-1.69-5.79-5.18s2.52-5.33,6.73-5.33h3.92c.15,0,.22-.07.22-.21v-1.26c0-2.38-.94-3.39-4.14-3.39a6.73,6.73,0,0,0-4.18,1.23.32.32,0,0,1-.5,0l-1-1.66a.38.38,0,0,1,.07-.5,9.56,9.56,0,0,1,5.87-1.69c4.89,0,6.76,1.62,6.76,5.87v11.41a.34.34,0,0,1-.36.36Zm-.43-5.58v-1.91a.2.2,0,0,0-.22-.22H487.9c-3,0-4.29.87-4.29,2.81,0,1.77,1.3,2.7,3.6,2.7C489.91,213,491.57,211.74,491.57,209.62Z"/><path class="cls-1" d="M504.53,215.38c-3.35,0-4.64-1.52-4.64-4.9v-9.86a.2.2,0,0,0-.22-.22h-1.44a.34.34,0,0,1-.36-.36v-1.73a.34.34,0,0,1,.36-.36h1.44a.19.19,0,0,0,.22-.21v-4.86a.34.34,0,0,1,.36-.36h2.3a.34.34,0,0,1,.36.36v4.86c0,.14.07.21.22.21h2.73a.34.34,0,0,1,.36.36V200a.34.34,0,0,1-.36.36h-2.73a.19.19,0,0,0-.22.22v9.75c0,1.73.65,2.2,2.2,2.2h.75a.34.34,0,0,1,.36.36V215a.34.34,0,0,1-.36.36Z"/><path class="cls-1" d="M509.71,210.91a17.36,17.36,0,0,1,0-8.71,7.25,7.25,0,0,1,13.53,0,15.08,15.08,0,0,1,.54,4.93.35.35,0,0,1-.39.36H512.45a.2.2,0,0,0-.22.22,6.47,6.47,0,0,0,.29,2.09,4.27,4.27,0,0,0,4.36,3,5.61,5.61,0,0,0,4.42-1.91c.18-.18.36-.22.54-.07l1.48,1.33a.32.32,0,0,1,0,.5,8.38,8.38,0,0,1-6.73,3C513.13,215.59,510.65,213.9,509.71,210.91Zm10.73-5.83a.19.19,0,0,0,.22-.21,6.05,6.05,0,0,0-.26-2,4.25,4.25,0,0,0-7.91,0,5.79,5.79,0,0,0-.26,2c0,.14.07.21.22.21Z"/><path class="cls-1" d="M539.09,215.2a.34.34,0,0,1-.36-.36V204.76c0-2.77-1.26-4.39-3.85-4.39a3.87,3.87,0,0,0-4,4.21v10.26a.35.35,0,0,1-.36.36h-2.31a.35.35,0,0,1-.36-.36V198.31a.35.35,0,0,1,.36-.36h2.31a.35.35,0,0,1,.36.36v1.59h0a5.47,5.47,0,0,1,4.83-2.34c3.74,0,6,2.55,6,6.48v10.8a.34.34,0,0,1-.36.36Z"/><path class="cls-1" d="M546.25,202.2c1-3,3.49-4.64,6.81-4.64a6.91,6.91,0,0,1,5.9,2.91c.11.18.11.33-.11.51l-1.58,1.29a.32.32,0,0,1-.51,0,4.22,4.22,0,0,0-3.7-1.87,3.73,3.73,0,0,0-3.85,2.7,15.56,15.56,0,0,0,0,7,3.74,3.74,0,0,0,3.85,2.71,4.23,4.23,0,0,0,3.7-1.88.32.32,0,0,1,.51,0l1.58,1.29c.22.18.22.33.11.51a6.91,6.91,0,0,1-5.9,2.91c-3.32,0-5.84-1.65-6.81-4.64a18,18,0,0,1,0-8.75Z"/><path class="cls-1" d="M563.32,194.07a.34.34,0,0,1-.36-.36v-2.63a.34.34,0,0,1,.36-.36h2.44a.34.34,0,0,1,.36.36v2.63a.34.34,0,0,1-.36.36Zm.07,21.13a.34.34,0,0,1-.36-.36V198.31a.34.34,0,0,1,.36-.36h2.3a.34.34,0,0,1,.36.36v16.53a.34.34,0,0,1-.36.36Z"/><path class="cls-1" d="M570.77,211a16.79,16.79,0,0,1,0-8.75c.93-2.95,3.45-4.64,6.8-4.64s5.87,1.69,6.8,4.64a16.79,16.79,0,0,1,0,8.75,7.3,7.3,0,0,1-13.6,0Zm10.69-.87a11.21,11.21,0,0,0,.39-3.52,11,11,0,0,0-.39-3.49,4.15,4.15,0,0,0-7.78,0,11.26,11.26,0,0,0-.39,3.49,11.52,11.52,0,0,0,.39,3.52,4.15,4.15,0,0,0,7.78,0Zm-5.18-14.93c-.22,0-.33-.15-.22-.36l2.73-4.43a.65.65,0,0,1,.62-.36h2.37c.22,0,.33.18.18.36l-3.31,4.43a.71.71,0,0,1-.68.36Z"/><path class="cls-1" d="M600.29,215.2a.34.34,0,0,1-.36-.36V204.76c0-2.77-1.26-4.39-3.86-4.39a3.86,3.86,0,0,0-4,4.21v10.26a.35.35,0,0,1-.37.36h-2.3a.35.35,0,0,1-.36-.36V198.31a.35.35,0,0,1,.36-.36h2.3a.35.35,0,0,1,.37.36v1.59h0a5.45,5.45,0,0,1,4.82-2.34c3.75,0,6,2.55,6,6.48v10.8a.34.34,0,0,1-.36.36Z"/><path class="cls-1" d="M626.31,215.2a.35.35,0,0,1-.36-.36v-1.51h0c-.79,1.29-2.49,2.26-5.11,2.26-3.28,0-5.8-1.69-5.8-5.18s2.52-5.33,6.73-5.33h3.93a.19.19,0,0,0,.21-.21v-1.26c0-2.38-.93-3.39-4.14-3.39a6.68,6.68,0,0,0-4.17,1.23.33.33,0,0,1-.51,0l-1-1.66a.38.38,0,0,1,.07-.5,9.56,9.56,0,0,1,5.87-1.69c4.9,0,6.77,1.62,6.77,5.87v11.41a.35.35,0,0,1-.36.36Zm-.43-5.58v-1.91a.19.19,0,0,0-.21-.22h-3.46c-3,0-4.28.87-4.28,2.81,0,1.77,1.29,2.7,3.6,2.7C624.23,213,625.88,211.74,625.88,209.62Z"/><path class="cls-1" d="M645.9,215.38c-3,0-4.21-1.44-4.21-4.54V191.08a.34.34,0,0,1,.36-.36h2.3a.34.34,0,0,1,.36.36v19.58c0,1.44.54,1.91,1.73,1.91h.68a.34.34,0,0,1,.36.36V215a.34.34,0,0,1-.36.36Z"/><path class="cls-1" d="M661.45,215.2a.34.34,0,0,1-.36-.36v-1.51h0c-.79,1.29-2.48,2.26-5.11,2.26-3.27,0-5.79-1.69-5.79-5.18s2.52-5.33,6.73-5.33h3.92c.15,0,.22-.07.22-.21v-1.26c0-2.38-.94-3.39-4.14-3.39a6.71,6.71,0,0,0-4.18,1.23.32.32,0,0,1-.5,0l-1-1.66a.37.37,0,0,1,.07-.5,9.54,9.54,0,0,1,5.87-1.69c4.89,0,6.76,1.62,6.76,5.87v11.41a.34.34,0,0,1-.36.36Zm-.43-5.58v-1.91a.2.2,0,0,0-.22-.22h-3.45c-3,0-4.29.87-4.29,2.81,0,1.77,1.3,2.7,3.6,2.7C659.36,213,661,211.74,661,209.62Z"/><path class="cls-1" d="M153.52,253.38c-3,0-4.21-1.44-4.21-4.54V229.08a.34.34,0,0,1,.36-.36H152a.34.34,0,0,1,.36.36v19.58c0,1.44.54,1.91,1.73,1.91h.68a.34.34,0,0,1,.36.36V253a.34.34,0,0,1-.36.36Z"/><path class="cls-1" d="M169.07,253.2a.34.34,0,0,1-.36-.36v-1.51h0c-.79,1.29-2.48,2.26-5.11,2.26-3.27,0-5.79-1.69-5.79-5.18s2.52-5.33,6.73-5.33h3.92a.19.19,0,0,0,.22-.21v-1.26c0-2.38-.94-3.39-4.14-3.39a6.71,6.71,0,0,0-4.18,1.23.32.32,0,0,1-.5,0l-1-1.66a.37.37,0,0,1,.07-.5,9.54,9.54,0,0,1,5.87-1.69c4.89,0,6.76,1.62,6.76,5.87v11.41a.34.34,0,0,1-.36.36Zm-.43-5.58v-1.91a.2.2,0,0,0-.22-.22H165c-3,0-4.28.87-4.28,2.81,0,1.77,1.3,2.7,3.6,2.7C167,251,168.64,249.74,168.64,247.62Z"/><path class="cls-1" d="M177,253.2a.35.35,0,0,1-.36-.36V229.08a.34.34,0,0,1,.36-.36h2.31a.34.34,0,0,1,.36.36v8.85h0c.83-1.36,2.31-2.37,4.9-2.37,3,0,5.07,1.4,5.94,4.14a19.78,19.78,0,0,1,0,9.75c-.87,2.74-3,4.14-5.94,4.14-2.59,0-4.07-1-4.9-2.41h0v1.66a.35.35,0,0,1-.36.36Zm10.66-5a11.94,11.94,0,0,0,.39-3.6,12.2,12.2,0,0,0-.39-3.6,4.08,4.08,0,0,0-7.6,0,11.47,11.47,0,0,0-.39,3.6,11.35,11.35,0,0,0,.39,3.6,4.06,4.06,0,0,0,7.6,0Z"/><path class="cls-1" d="M194.77,249a17.07,17.07,0,0,1,0-8.75c.94-2.95,3.46-4.64,6.81-4.64s5.86,1.69,6.8,4.64a16.79,16.79,0,0,1,0,8.75,7.31,7.31,0,0,1-13.61,0Zm10.69-.87a11.16,11.16,0,0,0,.4-3.52,10.91,10.91,0,0,0-.4-3.49,4.15,4.15,0,0,0-7.77,0,10.91,10.91,0,0,0-.4,3.49,11.16,11.16,0,0,0,.4,3.52,4.14,4.14,0,0,0,7.77,0Z"/><path class="cls-1" d="M213.46,253.2a.34.34,0,0,1-.36-.36V236.31a.34.34,0,0,1,.36-.36h2.3a.34.34,0,0,1,.36.36v1.77h0a4.78,4.78,0,0,1,4.57-2.52,5.32,5.32,0,0,1,3.53,1.29c.18.18.21.33.07.51L223,239.12a.33.33,0,0,1-.51.07,4.86,4.86,0,0,0-2.66-.82c-2.63,0-3.71,2-3.71,5v9.43a.34.34,0,0,1-.36.36Z"/><path class="cls-1" d="M245.86,259.68a.34.34,0,0,1-.36-.36v-8.14h0c-.83,1.37-2.3,2.41-4.9,2.41-3,0-5.07-1.4-5.93-4.14a19.48,19.48,0,0,1,0-9.75c.86-2.74,3-4.14,5.93-4.14,2.6,0,4.07,1,4.9,2.37h0v-1.62a.34.34,0,0,1,.36-.36h2.3a.34.34,0,0,1,.36.36v23a.34.34,0,0,1-.36.36Zm-.76-11.52a11,11,0,0,0,.4-3.6,11.12,11.12,0,0,0-.4-3.6,4.08,4.08,0,0,0-7.6,0,12.54,12.54,0,0,0-.39,3.6,12.28,12.28,0,0,0,.39,3.6,4.06,4.06,0,0,0,7.6,0Z"/><path class="cls-1" d="M264.54,253.2a.34.34,0,0,1-.36-.36v-1.62h0a5.25,5.25,0,0,1-4.71,2.37c-3.78,0-6-2.59-6-6.51V236.31a.35.35,0,0,1,.36-.36h2.31a.35.35,0,0,1,.36.36v10.05c0,2.81,1.26,4.43,3.81,4.43,2.34,0,3.89-1.66,3.89-4.25V236.31a.34.34,0,0,1,.36-.36h2.3a.34.34,0,0,1,.36.36v16.53a.34.34,0,0,1-.36.36Z"/><path class="cls-1" d="M271.92,248.91a17.21,17.21,0,0,1,0-8.71,7.26,7.26,0,0,1,13.54,0,15.08,15.08,0,0,1,.54,4.93.35.35,0,0,1-.4.36h-10.9a.2.2,0,0,0-.22.22,6.47,6.47,0,0,0,.29,2.09,4.25,4.25,0,0,0,4.35,3,5.63,5.63,0,0,0,4.43-1.91c.18-.18.36-.22.54-.07l1.48,1.33a.31.31,0,0,1,0,.5,8.37,8.37,0,0,1-6.73,3C275.34,253.59,272.86,251.9,271.92,248.91Zm10.73-5.83a.19.19,0,0,0,.21-.21,6.08,6.08,0,0,0-.25-2,4.25,4.25,0,0,0-7.92,0,6.08,6.08,0,0,0-.25,2c0,.14.07.21.22.21Z"/><path class="cls-1" d="M297.55,248.91a17.36,17.36,0,0,1,0-8.71,7.25,7.25,0,0,1,13.53,0,15.08,15.08,0,0,1,.54,4.93c0,.22-.14.36-.4.36h-10.9a.2.2,0,0,0-.22.22,6.47,6.47,0,0,0,.29,2.09,4.25,4.25,0,0,0,4.35,3,5.62,5.62,0,0,0,4.43-1.91c.18-.18.36-.22.54-.07l1.48,1.33a.31.31,0,0,1,0,.5,8.35,8.35,0,0,1-6.73,3C301,253.59,298.49,251.9,297.55,248.91Zm10.73-5.83a.19.19,0,0,0,.21-.21,6.08,6.08,0,0,0-.25-2,4.25,4.25,0,0,0-7.92,0,6.08,6.08,0,0,0-.25,2c0,.14.07.21.22.21Z"/><path class="cls-1" d="M314.54,251a.35.35,0,0,1,0-.5l1.48-1.59a.35.35,0,0,1,.5,0,8.37,8.37,0,0,0,5.33,2c2.52,0,3.78-1.08,3.78-2.63,0-1.36-.65-2.12-3.35-2.41l-1.83-.18c-3.39-.36-5.15-2-5.15-4.86,0-3.27,2.34-5.25,6.41-5.25a10.32,10.32,0,0,1,6.12,1.91.34.34,0,0,1,.07.5l-1.23,1.55a.35.35,0,0,1-.5.07,9.09,9.09,0,0,0-4.64-1.4c-2.16,0-3.28,1-3.28,2.37s.83,2.09,3.38,2.34l1.8.18c3.5.33,5.19,2.09,5.19,4.86,0,3.39-2.45,5.65-6.95,5.65A10.75,10.75,0,0,1,314.54,251Z"/><path class="cls-1" d="M337.65,253.38c-3.34,0-4.64-1.52-4.64-4.9v-9.86a.19.19,0,0,0-.22-.22h-1.43A.34.34,0,0,1,331,238v-1.73a.34.34,0,0,1,.36-.36h1.43c.15,0,.22-.07.22-.21v-4.86a.34.34,0,0,1,.36-.36h2.3a.34.34,0,0,1,.37.36v4.86a.19.19,0,0,0,.21.21H339a.35.35,0,0,1,.36.36V238a.34.34,0,0,1-.36.36h-2.74c-.14,0-.21.07-.21.22v9.75c0,1.73.64,2.2,2.19,2.2H339a.34.34,0,0,1,.36.36V253a.35.35,0,0,1-.36.36Z"/><path class="cls-1" d="M353.75,253.2a.35.35,0,0,1-.37-.36v-1.51h0c-.79,1.29-2.48,2.26-5.11,2.26-3.28,0-5.8-1.69-5.8-5.18s2.52-5.33,6.73-5.33h3.93a.19.19,0,0,0,.21-.21v-1.26c0-2.38-.93-3.39-4.14-3.39a6.7,6.7,0,0,0-4.17,1.23.33.33,0,0,1-.51,0l-1-1.66a.38.38,0,0,1,.07-.5,9.58,9.58,0,0,1,5.87-1.69c4.9,0,6.77,1.62,6.77,5.87v11.41a.35.35,0,0,1-.36.36Zm-.44-5.58v-1.91a.19.19,0,0,0-.21-.22h-3.46c-3,0-4.28.87-4.28,2.81,0,1.77,1.29,2.7,3.6,2.7C351.66,251,353.31,249.74,353.31,247.62Z"/><path class="cls-1" d="M369.55,253.2a.34.34,0,0,1-.36-.36V236.31a.34.34,0,0,1,.36-.36h2.3a.34.34,0,0,1,.36.36v1.77h0a4.8,4.8,0,0,1,4.57-2.52,5.32,5.32,0,0,1,3.53,1.29c.18.18.21.33.07.51l-1.33,1.76a.33.33,0,0,1-.51.07,4.86,4.86,0,0,0-2.66-.82c-2.63,0-3.71,2-3.71,5v9.43a.34.34,0,0,1-.36.36Z"/><path class="cls-1" d="M382.11,248.91a17.36,17.36,0,0,1,0-8.71,7.25,7.25,0,0,1,13.53,0,15.08,15.08,0,0,1,.54,4.93.35.35,0,0,1-.39.36H384.85a.2.2,0,0,0-.22.22,6.47,6.47,0,0,0,.29,2.09,4.27,4.27,0,0,0,4.36,3,5.65,5.65,0,0,0,4.43-1.91.35.35,0,0,1,.53-.07l1.48,1.33a.32.32,0,0,1,0,.5,8.38,8.38,0,0,1-6.73,3C385.53,253.59,383.05,251.9,382.11,248.91Zm10.73-5.83a.19.19,0,0,0,.22-.21,6.05,6.05,0,0,0-.26-2,4.25,4.25,0,0,0-7.91,0,6.05,6.05,0,0,0-.26,2,.19.19,0,0,0,.22.21Z"/><path class="cls-1" d="M410.73,253.2a.35.35,0,0,1-.36-.36v-1.51h0c-.8,1.29-2.49,2.26-5.11,2.26-3.28,0-5.8-1.69-5.8-5.18s2.52-5.33,6.73-5.33h3.92c.15,0,.22-.07.22-.21v-1.26c0-2.38-.93-3.39-4.14-3.39a6.68,6.68,0,0,0-4.17,1.23.33.33,0,0,1-.51,0l-1-1.66a.38.38,0,0,1,.07-.5,9.56,9.56,0,0,1,5.87-1.69c4.89,0,6.77,1.62,6.77,5.87v11.41a.35.35,0,0,1-.36.36Zm-.43-5.58v-1.91a.2.2,0,0,0-.22-.22h-3.45c-3,0-4.28.87-4.28,2.81,0,1.77,1.29,2.7,3.6,2.7C408.64,251,410.3,249.74,410.3,247.62Z"/><path class="cls-1" d="M422.4,253.38c-3,0-4.21-1.44-4.21-4.54V229.08a.34.34,0,0,1,.36-.36h2.3a.34.34,0,0,1,.36.36v19.58c0,1.44.54,1.91,1.73,1.91h.68a.34.34,0,0,1,.36.36V253a.34.34,0,0,1-.36.36Z"/><path class="cls-1" d="M427.8,232.07a.34.34,0,0,1-.36-.36v-2.63a.34.34,0,0,1,.36-.36h2.45a.34.34,0,0,1,.36.36v2.63a.35.35,0,0,1-.36.36Zm.07,21.13a.34.34,0,0,1-.36-.36V236.31a.34.34,0,0,1,.36-.36h2.3a.34.34,0,0,1,.36.36v16.53a.34.34,0,0,1-.36.36Z"/><path class="cls-1" d="M435.11,253.2a.34.34,0,0,1-.36-.36v-1.91a.55.55,0,0,1,.14-.4l9.47-11.77v-.07h-8.79a.34.34,0,0,1-.36-.36v-2a.35.35,0,0,1,.36-.36h12a.35.35,0,0,1,.36.36v2a.56.56,0,0,1-.15.4l-9.39,11.66v.07h9.18a.34.34,0,0,1,.36.36v2a.35.35,0,0,1-.36.36Z"/><path class="cls-1" d="M462.61,253.2a.34.34,0,0,1-.36-.36v-1.51h0c-.79,1.29-2.48,2.26-5.11,2.26-3.28,0-5.8-1.69-5.8-5.18s2.52-5.33,6.74-5.33H462a.19.19,0,0,0,.22-.21v-1.26c0-2.38-.94-3.39-4.14-3.39a6.71,6.71,0,0,0-4.18,1.23c-.18.14-.4.14-.5,0l-1-1.66a.38.38,0,0,1,.08-.5,9.53,9.53,0,0,1,5.86-1.69c4.9,0,6.77,1.62,6.77,5.87v11.41a.34.34,0,0,1-.36.36Zm-.43-5.58v-1.91a.2.2,0,0,0-.22-.22H458.5c-3,0-4.28.87-4.28,2.81,0,1.77,1.3,2.7,3.6,2.7C460.52,251,462.18,249.74,462.18,247.62Z"/><path class="cls-1" d="M481.33,253.2a.34.34,0,0,1-.36-.36V242.76c0-2.77-1.26-4.39-3.85-4.39a3.87,3.87,0,0,0-4,4.21v10.26a.35.35,0,0,1-.36.36h-2.31a.35.35,0,0,1-.36-.36V236.31a.35.35,0,0,1,.36-.36h2.31a.35.35,0,0,1,.36.36v1.59h0a5.47,5.47,0,0,1,4.83-2.34c3.74,0,6,2.55,6,6.48v10.8a.34.34,0,0,1-.36.36Z"/><path class="cls-1" d="M499.79,253.2a.35.35,0,0,1-.36-.36v-1.66h0c-.83,1.37-2.31,2.41-4.9,2.41a5.71,5.71,0,0,1-5.94-4.14,19.78,19.78,0,0,1,0-9.75,5.71,5.71,0,0,1,5.94-4.14c2.59,0,4.07,1,4.9,2.37h0v-8.85a.34.34,0,0,1,.36-.36h2.31a.34.34,0,0,1,.36.36v23.76a.35.35,0,0,1-.36.36Zm-.75-5a11.06,11.06,0,0,0,.39-3.6A11.18,11.18,0,0,0,499,241a4.08,4.08,0,0,0-7.6,0,12.54,12.54,0,0,0-.39,3.6,12.28,12.28,0,0,0,.39,3.6,4.06,4.06,0,0,0,7.6,0Z"/><path class="cls-1" d="M507.18,249a16.79,16.79,0,0,1,0-8.75c.93-2.95,3.45-4.64,6.8-4.64s5.87,1.69,6.8,4.64a16.79,16.79,0,0,1,0,8.75,7.3,7.3,0,0,1-13.6,0Zm10.69-.87a11.52,11.52,0,0,0,.39-3.52,11.26,11.26,0,0,0-.39-3.49,4.15,4.15,0,0,0-7.78,0,11,11,0,0,0-.39,3.49,11.21,11.21,0,0,0,.39,3.52,4.15,4.15,0,0,0,7.78,0Z"/><path class="cls-1" d="M525.07,249.74a.34.34,0,0,1,.36-.36h2.73a.34.34,0,0,1,.36.36v3.1a.34.34,0,0,1-.36.36h-2.73a.34.34,0,0,1-.36-.36Z"/></g></g></svg>