<svg xmlns="http://www.w3.org/2000/svg" viewBox="0 0 473.31 377.19"><title>r14</title><g id="Capa_2" data-name="Capa 2"><g id="recomendaciones"><path d="M25.38,1.2a.38.38,0,0,1,.4-.4h9.16c4.6,0,7.64,2,8.88,5.8.48,1.48.72,3,.72,7.8s-.24,6.32-.72,7.8C42.58,26,39.54,28,34.94,28H25.78a.38.38,0,0,1-.4-.4Zm3.8,23.48h5c3.28,0,5.32-1.08,6.2-3.72.36-1,.56-2.32.56-6.56s-.2-5.56-.56-6.56c-.88-2.64-2.92-3.72-6.2-3.72h-5a.21.21,0,0,0-.24.24V24.44A.21.21,0,0,0,29.18,24.68Z"/><path d="M62.26,28a.38.38,0,0,1-.4-.4v-1.8h0a5.84,5.84,0,0,1-5.24,2.64c-4.2,0-6.64-2.88-6.64-7.23v-12a.38.38,0,0,1,.4-.4H52.9a.38.38,0,0,1,.4.4V20.4c0,3.12,1.4,4.91,4.24,4.91,2.6,0,4.32-1.83,4.32-4.71V9.24a.38.38,0,0,1,.4-.4h2.56a.38.38,0,0,1,.4.4V27.59a.38.38,0,0,1-.4.4Z"/><path d="M72.18,28a.38.38,0,0,1-.4-.4V9.24a.38.38,0,0,1,.4-.4h2.56a.38.38,0,0,1,.4.4v2h0a5.34,5.34,0,0,1,5.08-2.8,5.89,5.89,0,0,1,3.92,1.44c.2.2.24.36.08.56l-1.48,2a.36.36,0,0,1-.56.08,5.4,5.4,0,0,0-3-.92c-2.92,0-4.12,2.28-4.12,5.6V27.59a.38.38,0,0,1-.4.4Z"/><path d="M98.82,28a.38.38,0,0,1-.4-.4V25.92h0c-.88,1.43-2.76,2.51-5.68,2.51-3.64,0-6.44-1.88-6.44-5.75,0-4,2.8-5.92,7.48-5.92H98.1a.21.21,0,0,0,.24-.24v-1.4c0-2.64-1-3.76-4.6-3.76a7.45,7.45,0,0,0-4.64,1.36c-.2.16-.44.16-.56,0l-1.08-1.84a.42.42,0,0,1,.08-.56A10.63,10.63,0,0,1,94.06,8.4c5.44,0,7.52,1.8,7.52,6.52V27.59a.38.38,0,0,1-.4.4Zm-.48-6.19V19.68a.21.21,0,0,0-.24-.24H94.26c-3.32,0-4.76,1-4.76,3.12,0,2,1.44,3,4,3C96.5,25.55,98.34,24.16,98.34,21.8Z"/><path d="M120.42,28a.38.38,0,0,1-.4-.4V16.4c0-3.08-1.4-4.88-4.28-4.88-2.6,0-4.4,1.84-4.4,4.68V27.59a.38.38,0,0,1-.4.4h-2.56a.38.38,0,0,1-.4-.4V9.24a.38.38,0,0,1,.4-.4h2.56a.38.38,0,0,1,.4.4V11h0a6.06,6.06,0,0,1,5.36-2.6c4.16,0,6.64,2.84,6.64,7.2v12a.38.38,0,0,1-.4.4Z"/><path d="M135.3,28.2c-3.72,0-5.16-1.69-5.16-5.44v-11a.21.21,0,0,0-.24-.24h-1.6a.38.38,0,0,1-.4-.4V9.24a.38.38,0,0,1,.4-.4h1.6a.21.21,0,0,0,.24-.24V3.2a.38.38,0,0,1,.4-.4h2.56a.38.38,0,0,1,.4.4V8.6a.21.21,0,0,0,.24.24h3a.38.38,0,0,1,.4.4v1.92a.38.38,0,0,1-.4.4h-3a.21.21,0,0,0-.24.24V22.64c0,1.91.72,2.44,2.44,2.44h.84a.37.37,0,0,1,.4.39v2.32a.38.38,0,0,1-.4.41Z"/><path d="M141.86,23.24a15,15,0,0,1-.64-4.84,14.86,14.86,0,0,1,.6-4.84c1.08-3.32,3.88-5.16,7.52-5.16a7.41,7.41,0,0,1,7.51,5.16,16.72,16.72,0,0,1,.6,5.48.39.39,0,0,1-.44.4H144.9a.21.21,0,0,0-.24.24A7.18,7.18,0,0,0,145,22a4.72,4.72,0,0,0,4.84,3.31,6.25,6.25,0,0,0,4.91-2.11c.21-.2.4-.24.6-.08L157,24.6a.36.36,0,0,1,0,.56,9.3,9.3,0,0,1-7.47,3.27C145.66,28.43,142.9,26.55,141.86,23.24Zm11.92-6.48a.21.21,0,0,0,.24-.24,6.74,6.74,0,0,0-.28-2.16,4.73,4.73,0,0,0-8.8,0,6.74,6.74,0,0,0-.28,2.16.21.21,0,0,0,.24.24Z"/><path d="M177.06,28.2c-3.36,0-4.68-1.61-4.68-5V1.2a.38.38,0,0,1,.4-.4h2.56a.38.38,0,0,1,.4.4V23c0,1.59.6,2.12,1.92,2.12h.76a.36.36,0,0,1,.39.39v2.32a.37.37,0,0,1-.39.41Z"/><path d="M195.13,28a.38.38,0,0,1-.4-.4V25.92h0c-.88,1.43-2.76,2.51-5.68,2.51-3.63,0-6.43-1.88-6.43-5.75,0-4,2.8-5.92,7.47-5.92h4.36a.21.21,0,0,0,.24-.24v-1.4c0-2.64-1-3.76-4.6-3.76a7.44,7.44,0,0,0-4.63,1.36c-.2.16-.44.16-.56,0l-1.08-1.84a.42.42,0,0,1,.08-.56,10.62,10.62,0,0,1,6.51-1.88c5.44,0,7.52,1.8,7.52,6.52V27.59a.38.38,0,0,1-.4.4Zm-.48-6.19V19.68a.21.21,0,0,0-.24-.24h-3.84c-3.31,0-4.75,1-4.75,3.12,0,2,1.44,3,4,3C192.81,25.55,194.65,24.16,194.65,21.8Z"/><path d="M214.29,28a.38.38,0,0,1-.39-.4V9.24a.38.38,0,0,1,.39-.4h2.56a.38.38,0,0,1,.4.4v2h0a5.34,5.34,0,0,1,5.08-2.8,5.89,5.89,0,0,1,3.92,1.44c.2.2.24.36.08.56l-1.48,2a.36.36,0,0,1-.56.08,5.4,5.4,0,0,0-3-.92c-2.92,0-4.12,2.28-4.12,5.6V27.59a.38.38,0,0,1-.4.4Z"/><path d="M229.06,23.24a14.75,14.75,0,0,1-.64-4.84,14.86,14.86,0,0,1,.6-4.84c1.07-3.32,3.87-5.16,7.51-5.16a7.42,7.42,0,0,1,7.52,5.16,16.72,16.72,0,0,1,.6,5.48.39.39,0,0,1-.44.4H232.09a.21.21,0,0,0-.24.24,7.18,7.18,0,0,0,.32,2.32A4.72,4.72,0,0,0,237,25.31a6.29,6.29,0,0,0,4.92-2.11.41.41,0,0,1,.6-.08l1.64,1.48a.36.36,0,0,1,0,.56,9.34,9.34,0,0,1-7.48,3.27C232.85,28.43,230.09,26.55,229.06,23.24ZM241,16.76a.21.21,0,0,0,.24-.24,6.74,6.74,0,0,0-.28-2.16,4.73,4.73,0,0,0-8.8,0,6.74,6.74,0,0,0-.28,2.16.21.21,0,0,0,.24.24Z"/><path d="M261.65,28a.38.38,0,0,1-.4-.4V25.92h0c-.88,1.43-2.76,2.51-5.68,2.51-3.64,0-6.43-1.88-6.43-5.75,0-4,2.79-5.92,7.47-5.92h4.36a.21.21,0,0,0,.24-.24v-1.4c0-2.64-1-3.76-4.6-3.76a7.45,7.45,0,0,0-4.64,1.36c-.2.16-.44.16-.56,0l-1.08-1.84a.41.41,0,0,1,.09-.56,10.57,10.57,0,0,1,6.51-1.88c5.44,0,7.52,1.8,7.52,6.52V27.59a.38.38,0,0,1-.4.4Zm-.48-6.19V19.68a.21.21,0,0,0-.24-.24h-3.84c-3.32,0-4.76,1-4.76,3.12,0,2,1.44,3,4,3C259.33,25.55,261.17,24.16,261.17,21.8Z"/><path d="M275.41,28.2c-3.36,0-4.68-1.61-4.68-5V1.2a.38.38,0,0,1,.4-.4h2.56a.38.38,0,0,1,.4.4V23c0,1.59.6,2.12,1.92,2.12h.76a.37.37,0,0,1,.4.39v2.32a.38.38,0,0,1-.4.41Z"/><path d="M282.21,4.52a.38.38,0,0,1-.4-.4V1.2a.38.38,0,0,1,.4-.4h2.72a.38.38,0,0,1,.4.4V4.12a.38.38,0,0,1-.4.4ZM282.29,28a.38.38,0,0,1-.4-.4V9.24a.38.38,0,0,1,.4-.4h2.56a.38.38,0,0,1,.4.4V27.59a.38.38,0,0,1-.4.4Z"/><path d="M291.13,28a.38.38,0,0,1-.4-.4V25.47a.58.58,0,0,1,.16-.43L301.41,12v-.08h-9.76a.38.38,0,0,1-.4-.4V9.24a.38.38,0,0,1,.4-.4H305a.38.38,0,0,1,.4.4v2.24a.6.6,0,0,1-.16.44l-10.44,13V25H305a.38.38,0,0,1,.4.4v2.23a.38.38,0,0,1-.4.4Z"/><path d="M322.49,28a.38.38,0,0,1-.4-.4V25.92h0c-.88,1.43-2.76,2.51-5.68,2.51-3.64,0-6.44-1.88-6.44-5.75,0-4,2.8-5.92,7.48-5.92h4.36a.21.21,0,0,0,.24-.24v-1.4c0-2.64-1-3.76-4.6-3.76a7.45,7.45,0,0,0-4.64,1.36c-.2.16-.44.16-.56,0l-1.08-1.84a.42.42,0,0,1,.08-.56,10.63,10.63,0,0,1,6.52-1.88c5.44,0,7.52,1.8,7.52,6.52V27.59a.38.38,0,0,1-.4.4ZM322,21.8V19.68a.21.21,0,0,0-.24-.24h-3.84c-3.32,0-4.76,1-4.76,3.12,0,2,1.44,3,4,3C320.17,25.55,322,24.16,322,21.8Z"/><path d="M331.09,13.56c1.08-3.32,3.88-5.16,7.56-5.16a7.68,7.68,0,0,1,6.56,3.24c.12.2.12.36-.12.56l-1.76,1.44a.36.36,0,0,1-.56,0,4.71,4.71,0,0,0-4.12-2.08,4.16,4.16,0,0,0-4.28,3,12.76,12.76,0,0,0-.44,3.88,12.88,12.88,0,0,0,.44,3.92,4.15,4.15,0,0,0,4.28,3,4.73,4.73,0,0,0,4.12-2.07.36.36,0,0,1,.56,0l1.76,1.43a.39.39,0,0,1,.12.57,7.67,7.67,0,0,1-6.56,3.23c-3.68,0-6.48-1.84-7.56-5.15a16.55,16.55,0,0,1-.6-4.88A16.45,16.45,0,0,1,331.09,13.56Z"/><path d="M350.85,4.52a.38.38,0,0,1-.4-.4V1.2a.38.38,0,0,1,.4-.4h2.72a.38.38,0,0,1,.4.4V4.12a.38.38,0,0,1-.4.4ZM350.93,28a.38.38,0,0,1-.4-.4V9.24a.38.38,0,0,1,.4-.4h2.56a.38.38,0,0,1,.4.4V27.59a.38.38,0,0,1-.4.4Z"/><path d="M359.93,23.28a14.39,14.39,0,0,1-.64-4.88,14.29,14.29,0,0,1,.64-4.84c1-3.28,3.84-5.16,7.56-5.16s6.52,1.88,7.56,5.16a14.29,14.29,0,0,1,.64,4.84,14.39,14.39,0,0,1-.64,4.88c-1,3.23-3.84,5.15-7.56,5.15S361,26.51,359.93,23.28Zm11.88-1a12.55,12.55,0,0,0,.44-3.92,12.27,12.27,0,0,0-.44-3.88,4.61,4.61,0,0,0-8.64,0,12.27,12.27,0,0,0-.44,3.88,12.55,12.55,0,0,0,.44,3.92,4.62,4.62,0,0,0,8.64,0Zm-5.76-16.6c-.24,0-.36-.16-.24-.4l3-4.92a.7.7,0,0,1,.68-.4h2.64c.24,0,.36.2.2.4l-3.68,4.92a.79.79,0,0,1-.76.4Z"/><path d="M393.53,28a.38.38,0,0,1-.4-.4V16.4c0-3.08-1.4-4.88-4.28-4.88-2.6,0-4.4,1.84-4.4,4.68V27.59a.38.38,0,0,1-.4.4h-2.56a.38.38,0,0,1-.4-.4V9.24a.38.38,0,0,1,.4-.4h2.56a.38.38,0,0,1,.4.4V11h0a6.06,6.06,0,0,1,5.36-2.6c4.16,0,6.64,2.84,6.64,7.2v12a.38.38,0,0,1-.4.4Z"/><path d="M424.45,28a.38.38,0,0,1-.4-.4V25.75h0c-.92,1.53-2.56,2.68-5.44,2.68-3.32,0-5.64-1.55-6.6-4.59a16,16,0,0,1-.68-5.44A15.84,15.84,0,0,1,412,13c1-3,3.28-4.6,6.6-4.6,2.88,0,4.52,1.12,5.44,2.64h0V1.2a.38.38,0,0,1,.4-.4H427a.38.38,0,0,1,.4.4V27.59a.38.38,0,0,1-.4.4Zm-.84-5.59a12.31,12.31,0,0,0,.44-4,12.47,12.47,0,0,0-.44-4,4.53,4.53,0,0,0-8.44,0,13.63,13.63,0,0,0-.44,4,13.29,13.29,0,0,0,.44,4,4.51,4.51,0,0,0,8.44,0Z"/><path d="M433.45,23.24a15,15,0,0,1-.64-4.84,14.86,14.86,0,0,1,.6-4.84c1.08-3.32,3.88-5.16,7.52-5.16a7.42,7.42,0,0,1,7.52,5.16,16.72,16.72,0,0,1,.6,5.48.39.39,0,0,1-.44.4H436.49a.21.21,0,0,0-.24.24,7.18,7.18,0,0,0,.32,2.32,4.72,4.72,0,0,0,4.84,3.31,6.29,6.29,0,0,0,4.92-2.11.41.41,0,0,1,.6-.08l1.64,1.48a.36.36,0,0,1,0,.56,9.34,9.34,0,0,1-7.48,3.27C437.25,28.43,434.49,26.55,433.45,23.24Zm11.92-6.48a.21.21,0,0,0,.24-.24,6.74,6.74,0,0,0-.28-2.16,4.73,4.73,0,0,0-8.8,0,6.74,6.74,0,0,0-.28,2.16.21.21,0,0,0,.24.24Z"/><path d="M21.6,66a.38.38,0,0,1-.4-.4V63.92h0c-.88,1.43-2.76,2.51-5.68,2.51C11.84,66.43,9,64.55,9,60.68c0-4,2.8-5.92,7.48-5.92h4.36a.21.21,0,0,0,.24-.24v-1.4c0-2.64-1-3.76-4.6-3.76a7.45,7.45,0,0,0-4.64,1.36c-.2.16-.44.16-.56,0l-1.08-1.84a.42.42,0,0,1,.08-.56,10.63,10.63,0,0,1,6.52-1.88c5.44,0,7.52,1.8,7.52,6.52V65.59a.38.38,0,0,1-.4.4Zm-.48-6.19V57.68a.21.21,0,0,0-.24-.24H17c-3.32,0-4.76,1-4.76,3.12,0,2,1.44,3,4,3C19.28,63.55,21.12,62.16,21.12,59.8Z"/><path d="M28.6,51.56c1.08-3.32,3.88-5.16,7.56-5.16a7.68,7.68,0,0,1,6.56,3.24c.12.2.12.36-.12.56l-1.76,1.44a.36.36,0,0,1-.56,0,4.71,4.71,0,0,0-4.12-2.08,4.16,4.16,0,0,0-4.28,3,12.76,12.76,0,0,0-.44,3.88,12.88,12.88,0,0,0,.44,3.92,4.15,4.15,0,0,0,4.28,3,4.73,4.73,0,0,0,4.12-2.07.36.36,0,0,1,.56,0l1.76,1.43a.39.39,0,0,1,.12.57,7.67,7.67,0,0,1-6.56,3.23c-3.68,0-6.48-1.84-7.56-5.15A16.55,16.55,0,0,1,28,56.4,16.45,16.45,0,0,1,28.6,51.56Z"/><path d="M52,66.2c-3.72,0-5.16-1.69-5.16-5.44v-11a.21.21,0,0,0-.24-.24H45a.38.38,0,0,1-.4-.4V47.24a.38.38,0,0,1,.4-.4h1.6a.21.21,0,0,0,.24-.24V41.2a.38.38,0,0,1,.4-.4H49.8a.38.38,0,0,1,.4.4v5.4a.21.21,0,0,0,.24.24h3a.38.38,0,0,1,.4.4v1.92a.38.38,0,0,1-.4.4h-3a.21.21,0,0,0-.24.24V60.64c0,1.91.72,2.44,2.44,2.44h.84a.37.37,0,0,1,.4.39v2.32a.38.38,0,0,1-.4.41Z"/><path d="M57.8,42.52a.38.38,0,0,1-.4-.4V39.2a.38.38,0,0,1,.4-.4h2.72a.38.38,0,0,1,.4.4v2.92a.38.38,0,0,1-.4.4ZM57.88,66a.38.38,0,0,1-.4-.4V47.24a.38.38,0,0,1,.4-.4h2.56a.38.38,0,0,1,.4.4V65.59a.38.38,0,0,1-.4.4Z"/><path d="M70.92,66c-.28,0-.4-.16-.48-.4L63.56,47.24c-.08-.24,0-.4.32-.4h2.76c.28,0,.4.12.52.4l5,13.76h.08L77,47.24a.47.47,0,0,1,.48-.4h2.72c.28,0,.4.16.32.4L73.72,65.59a.52.52,0,0,1-.52.4Z"/><path d="M83.6,42.52a.38.38,0,0,1-.4-.4V39.2a.38.38,0,0,1,.4-.4h2.72a.38.38,0,0,1,.4.4v2.92a.38.38,0,0,1-.4.4ZM83.68,66a.38.38,0,0,1-.4-.4V47.24a.38.38,0,0,1,.4-.4h2.56a.38.38,0,0,1,.4.4V65.59a.38.38,0,0,1-.4.4Z"/><path d="M103.59,66a.38.38,0,0,1-.4-.4V63.75h0c-.92,1.53-2.55,2.68-5.43,2.68-3.32,0-5.64-1.55-6.6-4.59a16,16,0,0,1-.68-5.44,15.84,15.84,0,0,1,.68-5.4c1-3,3.28-4.6,6.6-4.6,2.88,0,4.51,1.12,5.43,2.64h0V39.2a.38.38,0,0,1,.4-.4h2.56a.38.38,0,0,1,.4.4V65.59a.38.38,0,0,1-.4.4Zm-.84-5.59a12.31,12.31,0,0,0,.44-4,12.47,12.47,0,0,0-.44-4,4.52,4.52,0,0,0-8.43,0,13.63,13.63,0,0,0-.44,4,13.29,13.29,0,0,0,.44,4,4.51,4.51,0,0,0,8.43,0Z"/><path d="M123.11,66a.38.38,0,0,1-.4-.4V63.92h0c-.88,1.43-2.75,2.51-5.67,2.51-3.64,0-6.44-1.88-6.44-5.75,0-4,2.8-5.92,7.48-5.92h4.35a.21.21,0,0,0,.24-.24v-1.4c0-2.64-1-3.76-4.59-3.76a7.45,7.45,0,0,0-4.64,1.36c-.2.16-.44.16-.56,0l-1.08-1.84a.42.42,0,0,1,.08-.56,10.62,10.62,0,0,1,6.51-1.88c5.44,0,7.52,1.8,7.52,6.52V65.59a.38.38,0,0,1-.4.4Zm-.48-6.19V57.68a.21.21,0,0,0-.24-.24h-3.83c-3.32,0-4.76,1-4.76,3.12,0,2,1.44,3,4,3C120.79,63.55,122.63,62.16,122.63,59.8Z"/><path d="M142.67,66a.38.38,0,0,1-.4-.4V63.75h0c-.92,1.53-2.56,2.68-5.43,2.68-3.32,0-5.64-1.55-6.6-4.59a16,16,0,0,1-.68-5.44,15.84,15.84,0,0,1,.68-5.4c1-3,3.28-4.6,6.6-4.6,2.87,0,4.51,1.12,5.43,2.64h0V39.2a.38.38,0,0,1,.4-.4h2.56a.38.38,0,0,1,.4.4V65.59a.38.38,0,0,1-.4.4Zm-.84-5.59a12.31,12.31,0,0,0,.44-4,12.47,12.47,0,0,0-.44-4,4.52,4.52,0,0,0-8.43,0,13.63,13.63,0,0,0-.44,4,13.29,13.29,0,0,0,.44,4,4.51,4.51,0,0,0,8.43,0Z"/><path d="M150.08,61.24a15,15,0,0,1-.64-4.84,14.86,14.86,0,0,1,.6-4.84c1.08-3.32,3.88-5.16,7.51-5.16a7.42,7.42,0,0,1,7.52,5.16,16.72,16.72,0,0,1,.6,5.48.39.39,0,0,1-.44.4H153.12a.21.21,0,0,0-.24.24A7.18,7.18,0,0,0,153.2,60,4.71,4.71,0,0,0,158,63.31,6.29,6.29,0,0,0,163,61.2a.41.41,0,0,1,.6-.08l1.64,1.48a.36.36,0,0,1,0,.56,9.34,9.34,0,0,1-7.48,3.27C153.88,66.43,151.12,64.55,150.08,61.24ZM162,54.76a.21.21,0,0,0,.24-.24,6.74,6.74,0,0,0-.28-2.16,4.72,4.72,0,0,0-8.79,0,6.74,6.74,0,0,0-.28,2.16.21.21,0,0,0,.24.24Z"/><path d="M168.16,63.55a.38.38,0,0,1,0-.55l1.64-1.76a.38.38,0,0,1,.55,0,9.36,9.36,0,0,0,5.92,2.2c2.8,0,4.2-1.2,4.2-2.92,0-1.52-.72-2.36-3.72-2.68l-2-.2c-3.75-.4-5.71-2.28-5.71-5.4,0-3.64,2.59-5.84,7.11-5.84a11.46,11.46,0,0,1,6.8,2.12.39.39,0,0,1,.08.56l-1.36,1.72a.39.39,0,0,1-.56.08,10.09,10.09,0,0,0-5.16-1.56c-2.4,0-3.64,1.08-3.64,2.64s.92,2.32,3.76,2.6l2,.2c3.88.36,5.76,2.32,5.76,5.4,0,3.76-2.72,6.27-7.72,6.27A11.83,11.83,0,0,1,168.16,63.55Z"/><path d="M200.07,66.2c-3.36,0-4.68-1.61-4.68-5v-22a.38.38,0,0,1,.4-.4h2.56a.38.38,0,0,1,.4.4V61c0,1.59.6,2.12,1.92,2.12h.76a.37.37,0,0,1,.4.39v2.32a.38.38,0,0,1-.4.41Z"/><path d="M216.55,66a.38.38,0,0,1-.4-.4V63.92h0c-.88,1.43-2.76,2.51-5.68,2.51-3.64,0-6.44-1.88-6.44-5.75,0-4,2.8-5.92,7.48-5.92h4.36a.21.21,0,0,0,.24-.24v-1.4c0-2.64-1-3.76-4.6-3.76a7.45,7.45,0,0,0-4.64,1.36c-.2.16-.44.16-.56,0l-1.08-1.84a.42.42,0,0,1,.08-.56,10.63,10.63,0,0,1,6.52-1.88c5.44,0,7.52,1.8,7.52,6.52V65.59a.38.38,0,0,1-.4.4Zm-.48-6.19V57.68a.21.21,0,0,0-.24-.24H212c-3.32,0-4.76,1-4.76,3.12,0,2,1.44,3,4,3C214.23,63.55,216.07,62.16,216.07,59.8Z"/><path d="M224.51,66a.38.38,0,0,1-.4-.4V39.2a.38.38,0,0,1,.4-.4h2.56a.38.38,0,0,1,.4.4V49h0c.92-1.52,2.56-2.64,5.44-2.64,3.32,0,5.64,1.56,6.6,4.6a15.84,15.84,0,0,1,.68,5.4,16,16,0,0,1-.68,5.44c-1,3-3.28,4.59-6.6,4.59-2.88,0-4.52-1.15-5.44-2.68h0v1.84a.38.38,0,0,1-.4.4Zm11.84-5.59a13.29,13.29,0,0,0,.44-4,13.63,13.63,0,0,0-.44-4,4.53,4.53,0,0,0-8.44,0,12.47,12.47,0,0,0-.44,4,12.31,12.31,0,0,0,.44,4,4.51,4.51,0,0,0,8.44,0Z"/><path d="M243.51,61.28a14.39,14.39,0,0,1-.64-4.88,14.29,14.29,0,0,1,.64-4.84c1-3.28,3.84-5.16,7.56-5.16s6.52,1.88,7.56,5.16a14.29,14.29,0,0,1,.64,4.84,14.39,14.39,0,0,1-.64,4.88c-1,3.23-3.84,5.15-7.56,5.15S244.55,64.51,243.51,61.28Zm11.88-1a12.55,12.55,0,0,0,.44-3.92,12.27,12.27,0,0,0-.44-3.88,4.61,4.61,0,0,0-8.64,0,12.27,12.27,0,0,0-.44,3.88,12.55,12.55,0,0,0,.44,3.92,4.62,4.62,0,0,0,8.64,0Z"/><path d="M263.47,66a.38.38,0,0,1-.4-.4V47.24a.38.38,0,0,1,.4-.4H266a.38.38,0,0,1,.4.4v2h0a5.34,5.34,0,0,1,5.08-2.8,5.89,5.89,0,0,1,3.92,1.44c.2.2.24.36.08.56l-1.48,2a.36.36,0,0,1-.56.08,5.4,5.4,0,0,0-3-.92c-2.92,0-4.12,2.28-4.12,5.6V65.59a.38.38,0,0,1-.4.4Z"/><path d="M288.51,66a.38.38,0,0,1-.4-.4V63.92h0c-.88,1.43-2.76,2.51-5.68,2.51-3.64,0-6.44-1.88-6.44-5.75,0-4,2.8-5.92,7.48-5.92h4.36a.21.21,0,0,0,.24-.24v-1.4c0-2.64-1-3.76-4.6-3.76a7.45,7.45,0,0,0-4.64,1.36c-.2.16-.44.16-.56,0l-1.08-1.84a.42.42,0,0,1,.08-.56,10.63,10.63,0,0,1,6.52-1.88c5.44,0,7.52,1.8,7.52,6.52V65.59a.38.38,0,0,1-.4.4ZM288,59.8V57.68a.21.21,0,0,0-.24-.24H284c-3.32,0-4.76,1-4.76,3.12,0,2,1.44,3,4,3C286.19,63.55,288,62.16,288,59.8Z"/><path d="M300.67,66.2c-3.36,0-4.68-1.61-4.68-5v-22a.38.38,0,0,1,.4-.4H299a.38.38,0,0,1,.4.4V61c0,1.59.6,2.12,1.92,2.12H302a.37.37,0,0,1,.4.39v2.32a.38.38,0,0,1-.4.41Z"/><path d="M305,61.24a15,15,0,0,1-.64-4.84,14.86,14.86,0,0,1,.6-4.84c1.08-3.32,3.88-5.16,7.52-5.16A7.42,7.42,0,0,1,320,51.56a16.72,16.72,0,0,1,.6,5.48.39.39,0,0,1-.44.4H308.07a.21.21,0,0,0-.24.24,7.18,7.18,0,0,0,.32,2.32A4.72,4.72,0,0,0,313,63.31a6.29,6.29,0,0,0,4.92-2.11.41.41,0,0,1,.6-.08l1.64,1.48a.36.36,0,0,1,0,.56,9.34,9.34,0,0,1-7.48,3.27C308.83,66.43,306.07,64.55,305,61.24ZM317,54.76a.21.21,0,0,0,.24-.24,6.74,6.74,0,0,0-.28-2.16,4.73,4.73,0,0,0-8.8,0,6.74,6.74,0,0,0-.28,2.16.21.21,0,0,0,.24.24Z"/><path d="M323.11,63.55a.38.38,0,0,1,0-.55l1.64-1.76a.39.39,0,0,1,.56,0,9.36,9.36,0,0,0,5.92,2.2c2.8,0,4.2-1.2,4.2-2.92,0-1.52-.72-2.36-3.72-2.68l-2-.2c-3.76-.4-5.72-2.28-5.72-5.4,0-3.64,2.6-5.84,7.12-5.84a11.46,11.46,0,0,1,6.8,2.12.39.39,0,0,1,.08.56l-1.36,1.72a.39.39,0,0,1-.56.08,10.09,10.09,0,0,0-5.16-1.56c-2.4,0-3.64,1.08-3.64,2.64s.92,2.32,3.76,2.6l2,.2c3.88.36,5.76,2.32,5.76,5.4,0,3.76-2.72,6.27-7.72,6.27A11.86,11.86,0,0,1,323.11,63.55Z"/><path d="M342.35,61.76h2.8a.38.38,0,0,1,.4.4v3.72a1.26,1.26,0,0,1-.24.87L342.83,70a.63.63,0,0,1-.52.28A.36.36,0,0,1,342,70V62.16A.38.38,0,0,1,342.35,61.76Z"/><path d="M356.67,61.24A15,15,0,0,1,356,56.4a14.86,14.86,0,0,1,.6-4.84c1.08-3.32,3.88-5.16,7.52-5.16a7.42,7.42,0,0,1,7.52,5.16,16.72,16.72,0,0,1,.6,5.48.39.39,0,0,1-.44.4H359.71a.21.21,0,0,0-.24.24,7.18,7.18,0,0,0,.32,2.32,4.72,4.72,0,0,0,4.84,3.31,6.29,6.29,0,0,0,4.92-2.11.41.41,0,0,1,.6-.08l1.64,1.48a.36.36,0,0,1,0,.56,9.34,9.34,0,0,1-7.48,3.27C360.47,66.43,357.71,64.55,356.67,61.24Zm11.92-6.48a.21.21,0,0,0,.24-.24,6.74,6.74,0,0,0-.28-2.16,4.73,4.73,0,0,0-8.8,0,6.74,6.74,0,0,0-.28,2.16.21.21,0,0,0,.24.24Z"/><path d="M381.19,66c-.28,0-.4-.16-.48-.4l-6.88-18.35c-.08-.24,0-.4.32-.4h2.76c.28,0,.4.12.52.4l5,13.76h.08l4.84-13.76a.47.47,0,0,1,.48-.4h2.72c.28,0,.4.16.32.4L384,65.59a.52.52,0,0,1-.52.4Z"/><path d="M393.87,42.52a.38.38,0,0,1-.4-.4V39.2a.38.38,0,0,1,.4-.4h2.72a.38.38,0,0,1,.4.4v2.92a.38.38,0,0,1-.4.4ZM394,66a.38.38,0,0,1-.4-.4V47.24a.38.38,0,0,1,.4-.4h2.56a.38.38,0,0,1,.4.4V65.59a.38.38,0,0,1-.4.4Z"/><path d="M407.43,66.2c-3.72,0-5.16-1.69-5.16-5.44v-11a.21.21,0,0,0-.24-.24h-1.6a.38.38,0,0,1-.4-.4V47.24a.38.38,0,0,1,.4-.4H402a.21.21,0,0,0,.24-.24V41.2a.38.38,0,0,1,.4-.4h2.56a.38.38,0,0,1,.4.4v5.4a.21.21,0,0,0,.24.24h3a.38.38,0,0,1,.4.4v1.92a.38.38,0,0,1-.4.4h-3a.21.21,0,0,0-.24.24V60.64c0,1.91.72,2.44,2.44,2.44h.84a.37.37,0,0,1,.4.39v2.32a.38.38,0,0,1-.4.41Z"/><path d="M412.39,61.24a15,15,0,0,1-.64-4.84,14.86,14.86,0,0,1,.6-4.84c1.08-3.32,3.88-5.16,7.52-5.16a7.42,7.42,0,0,1,7.52,5.16A16.72,16.72,0,0,1,428,57a.39.39,0,0,1-.44.4H415.43a.21.21,0,0,0-.24.24,7.18,7.18,0,0,0,.32,2.32,4.72,4.72,0,0,0,4.84,3.31,6.29,6.29,0,0,0,4.92-2.11.41.41,0,0,1,.6-.08l1.64,1.48a.36.36,0,0,1,0,.56,9.34,9.34,0,0,1-7.48,3.27C416.19,66.43,413.43,64.55,412.39,61.24Zm11.92-6.48a.21.21,0,0,0,.24-.24,6.74,6.74,0,0,0-.28-2.16,4.73,4.73,0,0,0-8.8,0,6.74,6.74,0,0,0-.28,2.16.21.21,0,0,0,.24.24Z"/><path d="M439.27,61.24a15,15,0,0,1-.64-4.84,14.86,14.86,0,0,1,.6-4.84c1.08-3.32,3.88-5.16,7.52-5.16a7.42,7.42,0,0,1,7.52,5.16,16.72,16.72,0,0,1,.6,5.48.39.39,0,0,1-.44.4H442.31a.21.21,0,0,0-.24.24,7.18,7.18,0,0,0,.32,2.32,4.72,4.72,0,0,0,4.84,3.31,6.29,6.29,0,0,0,4.92-2.11.41.41,0,0,1,.6-.08l1.64,1.48a.36.36,0,0,1,0,.56A9.34,9.34,0,0,1,447,66.43C443.07,66.43,440.31,64.55,439.27,61.24Zm11.92-6.48a.21.21,0,0,0,.24-.24,6.74,6.74,0,0,0-.28-2.16,4.73,4.73,0,0,0-8.8,0,6.74,6.74,0,0,0-.28,2.16.21.21,0,0,0,.24.24Z"/><path d="M463.27,66.2c-3.36,0-4.68-1.61-4.68-5v-22a.38.38,0,0,1,.4-.4h2.56a.38.38,0,0,1,.4.4V61c0,1.59.6,2.12,1.92,2.12h.76a.37.37,0,0,1,.4.39v2.32a.38.38,0,0,1-.4.41Z"/><path d="M23,104a.38.38,0,0,1-.4-.4v-1.8h0a5.84,5.84,0,0,1-5.24,2.64c-4.2,0-6.64-2.88-6.64-7.23v-12a.38.38,0,0,1,.4-.4H13.6a.38.38,0,0,1,.4.4V96.4c0,3.12,1.4,4.91,4.24,4.91,2.6,0,4.32-1.83,4.32-4.71V85.24a.38.38,0,0,1,.4-.4h2.56a.38.38,0,0,1,.4.4v18.35a.38.38,0,0,1-.4.4Z"/><path d="M29.56,101.55a.38.38,0,0,1,0-.55l1.64-1.76a.39.39,0,0,1,.56,0,9.36,9.36,0,0,0,5.92,2.2c2.8,0,4.2-1.2,4.2-2.92,0-1.52-.72-2.36-3.72-2.68l-2-.2c-3.76-.4-5.72-2.28-5.72-5.4,0-3.64,2.6-5.84,7.12-5.84a11.46,11.46,0,0,1,6.8,2.12.39.39,0,0,1,.08.56L43,88.8a.39.39,0,0,1-.56.08,10.09,10.09,0,0,0-5.16-1.56c-2.4,0-3.64,1.08-3.64,2.64s.92,2.32,3.76,2.6l2,.2c3.88.36,5.76,2.32,5.76,5.4,0,3.76-2.72,6.27-7.72,6.27A11.86,11.86,0,0,1,29.56,101.55Z"/><path d="M48.36,99.28a14.39,14.39,0,0,1-.64-4.88,14.29,14.29,0,0,1,.64-4.84c1-3.28,3.84-5.16,7.56-5.16s6.52,1.88,7.56,5.16a14.29,14.29,0,0,1,.64,4.84,14.39,14.39,0,0,1-.64,4.88c-1,3.23-3.84,5.15-7.56,5.15S49.4,102.51,48.36,99.28Zm11.88-1a12.55,12.55,0,0,0,.44-3.92,12.27,12.27,0,0,0-.44-3.88,4.61,4.61,0,0,0-8.64,0,12.27,12.27,0,0,0-.44,3.88,12.55,12.55,0,0,0,.44,3.92,4.62,4.62,0,0,0,8.64,0Z"/><path d="M87.92,104a.38.38,0,0,1-.4-.4v-1.84h0c-.92,1.53-2.56,2.68-5.44,2.68-3.32,0-5.64-1.55-6.6-4.59a16,16,0,0,1-.68-5.44,15.84,15.84,0,0,1,.68-5.4c1-3,3.28-4.6,6.6-4.6,2.88,0,4.52,1.12,5.44,2.64h0V77.2a.38.38,0,0,1,.4-.4h2.56a.38.38,0,0,1,.4.4v26.39a.38.38,0,0,1-.4.4Zm-.84-5.59a12.31,12.31,0,0,0,.44-4,12.47,12.47,0,0,0-.44-4,4.53,4.53,0,0,0-8.44,0,13.63,13.63,0,0,0-.44,4,13.29,13.29,0,0,0,.44,4,4.51,4.51,0,0,0,8.44,0Z"/><path d="M95.32,99.24a15,15,0,0,1-.64-4.84,14.86,14.86,0,0,1,.6-4.84c1.08-3.32,3.88-5.16,7.52-5.16a7.42,7.42,0,0,1,7.52,5.16,16.72,16.72,0,0,1,.6,5.48.39.39,0,0,1-.44.4H98.36a.21.21,0,0,0-.24.24A7.18,7.18,0,0,0,98.44,98a4.72,4.72,0,0,0,4.84,3.31,6.29,6.29,0,0,0,4.92-2.11.41.41,0,0,1,.6-.08l1.64,1.48a.36.36,0,0,1,0,.56,9.34,9.34,0,0,1-7.48,3.27C99.12,104.43,96.36,102.55,95.32,99.24Zm11.92-6.48a.21.21,0,0,0,.24-.24,6.74,6.74,0,0,0-.28-2.16,4.73,4.73,0,0,0-8.8,0,6.74,6.74,0,0,0-.28,2.16.21.21,0,0,0,.24.24Z"/><path d="M134.72,104a.38.38,0,0,1-.4-.4v-1.84h0c-.92,1.53-2.56,2.68-5.44,2.68-3.32,0-5.64-1.55-6.6-4.59a16,16,0,0,1-.68-5.44,15.84,15.84,0,0,1,.68-5.4c1-3,3.28-4.6,6.6-4.6,2.88,0,4.52,1.12,5.44,2.64h0V77.2a.38.38,0,0,1,.4-.4h2.55a.37.37,0,0,1,.4.4v26.39a.37.37,0,0,1-.4.4Zm-.84-5.59a12.31,12.31,0,0,0,.44-4,12.47,12.47,0,0,0-.44-4,4.53,4.53,0,0,0-8.44,0,13.63,13.63,0,0,0-.44,4,13.29,13.29,0,0,0,.44,4,4.51,4.51,0,0,0,8.44,0Z"/><path d="M143,80.52a.38.38,0,0,1-.4-.4V77.2a.38.38,0,0,1,.4-.4h2.72a.38.38,0,0,1,.4.4v2.92a.38.38,0,0,1-.4.4ZM143,104a.38.38,0,0,1-.4-.4V85.24a.38.38,0,0,1,.4-.4h2.56a.38.38,0,0,1,.4.4v18.35a.38.38,0,0,1-.4.4Z"/><path d="M149.64,101.55a.38.38,0,0,1,0-.55l1.64-1.76a.39.39,0,0,1,.56,0,9.36,9.36,0,0,0,5.92,2.2c2.8,0,4.2-1.2,4.2-2.92,0-1.52-.73-2.36-3.72-2.68l-2-.2c-3.76-.4-5.72-2.28-5.72-5.4,0-3.64,2.6-5.84,7.12-5.84a11.43,11.43,0,0,1,6.79,2.12.39.39,0,0,1,.08.56l-1.36,1.72a.39.39,0,0,1-.56.08,10,10,0,0,0-5.15-1.56c-2.4,0-3.64,1.08-3.64,2.64s.92,2.32,3.76,2.6l2,.2c3.87.36,5.75,2.32,5.75,5.4,0,3.76-2.72,6.27-7.71,6.27A11.86,11.86,0,0,1,149.64,101.55Z"/><path d="M169.36,111.19a.38.38,0,0,1-.4-.4V85.24a.38.38,0,0,1,.4-.4h2.56a.38.38,0,0,1,.4.4V87h0c.92-1.52,2.56-2.64,5.43-2.64,3.32,0,5.64,1.56,6.6,4.6a15.84,15.84,0,0,1,.68,5.4,16,16,0,0,1-.68,5.44c-1,3-3.28,4.59-6.6,4.59-2.87,0-4.51-1.15-5.43-2.68h0v9a.38.38,0,0,1-.4.4ZM181.19,98.4a13.29,13.29,0,0,0,.44-4,13.63,13.63,0,0,0-.44-4,4.52,4.52,0,0,0-8.43,0,12.47,12.47,0,0,0-.44,4,12.31,12.31,0,0,0,.44,4,4.51,4.51,0,0,0,8.43,0Z"/><path d="M188.36,99.28a14.39,14.39,0,0,1-.64-4.88,14.29,14.29,0,0,1,.64-4.84c1-3.28,3.84-5.16,7.56-5.16s6.51,1.88,7.55,5.16a14.29,14.29,0,0,1,.64,4.84,14.39,14.39,0,0,1-.64,4.88c-1,3.23-3.84,5.15-7.55,5.15S189.4,102.51,188.36,99.28Zm11.87-1a12.55,12.55,0,0,0,.44-3.92,12.27,12.27,0,0,0-.44-3.88,4.6,4.6,0,0,0-8.63,0,12.27,12.27,0,0,0-.44,3.88,12.55,12.55,0,0,0,.44,3.92,4.61,4.61,0,0,0,8.63,0Z"/><path d="M206.6,101.55a.38.38,0,0,1,0-.55l1.64-1.76a.39.39,0,0,1,.56,0,9.36,9.36,0,0,0,5.91,2.2c2.8,0,4.2-1.2,4.2-2.92,0-1.52-.72-2.36-3.72-2.68l-2-.2c-3.75-.4-5.71-2.28-5.71-5.4,0-3.64,2.6-5.84,7.11-5.84a11.46,11.46,0,0,1,6.8,2.12.39.39,0,0,1,.08.56l-1.36,1.72a.39.39,0,0,1-.56.08,10.09,10.09,0,0,0-5.16-1.56c-2.39,0-3.63,1.08-3.63,2.64s.92,2.32,3.75,2.6l2,.2c3.88.36,5.76,2.32,5.76,5.4,0,3.76-2.72,6.27-7.72,6.27A11.85,11.85,0,0,1,206.6,101.55Z"/><path d="M226.24,80.52a.38.38,0,0,1-.4-.4V77.2a.38.38,0,0,1,.4-.4H229a.37.37,0,0,1,.39.4v2.92a.37.37,0,0,1-.39.4Zm.08,23.47a.38.38,0,0,1-.4-.4V85.24a.38.38,0,0,1,.4-.4h2.56a.37.37,0,0,1,.39.4v18.35a.37.37,0,0,1-.39.4Z"/><path d="M239.79,104.2c-3.72,0-5.16-1.69-5.16-5.44v-11c0-.16-.07-.24-.23-.24h-1.6a.38.38,0,0,1-.4-.4V85.24a.38.38,0,0,1,.4-.4h1.6c.16,0,.23-.08.23-.24V79.2a.38.38,0,0,1,.4-.4h2.56a.38.38,0,0,1,.4.4v5.4a.21.21,0,0,0,.24.24h3a.38.38,0,0,1,.4.4v1.92a.38.38,0,0,1-.4.4h-3a.21.21,0,0,0-.24.24V98.64c0,1.91.72,2.44,2.44,2.44h.84a.37.37,0,0,1,.4.39v2.32a.38.38,0,0,1-.4.41Z"/><path d="M245.59,80.52a.38.38,0,0,1-.4-.4V77.2a.38.38,0,0,1,.4-.4h2.72a.38.38,0,0,1,.4.4v2.92a.38.38,0,0,1-.4.4Zm.08,23.47a.38.38,0,0,1-.4-.4V85.24a.38.38,0,0,1,.4-.4h2.56a.38.38,0,0,1,.4.4v18.35a.38.38,0,0,1-.4.4Z"/><path d="M258.71,104c-.28,0-.4-.16-.48-.4l-6.88-18.35c-.08-.24,0-.4.32-.4h2.76c.28,0,.4.12.52.4l5,13.76H260l4.84-13.76a.47.47,0,0,1,.48-.4H268c.28,0,.4.16.32.4l-6.84,18.35a.52.52,0,0,1-.52.4Z"/><path d="M270.39,99.28a14.39,14.39,0,0,1-.64-4.88,14.29,14.29,0,0,1,.64-4.84c1-3.28,3.84-5.16,7.56-5.16s6.52,1.88,7.56,5.16a14.29,14.29,0,0,1,.64,4.84,14.39,14.39,0,0,1-.64,4.88c-1,3.23-3.84,5.15-7.56,5.15S271.43,102.51,270.39,99.28Zm11.88-1a12.55,12.55,0,0,0,.44-3.92,12.27,12.27,0,0,0-.44-3.88,4.61,4.61,0,0,0-8.64,0,12.27,12.27,0,0,0-.44,3.88,12.55,12.55,0,0,0,.44,3.92,4.62,4.62,0,0,0,8.64,0Z"/><path d="M288.63,101.55a.38.38,0,0,1,0-.55l1.64-1.76a.39.39,0,0,1,.56,0,9.36,9.36,0,0,0,5.92,2.2c2.8,0,4.2-1.2,4.2-2.92,0-1.52-.72-2.36-3.72-2.68l-2-.2c-3.76-.4-5.72-2.28-5.72-5.4,0-3.64,2.6-5.84,7.12-5.84a11.46,11.46,0,0,1,6.8,2.12.39.39,0,0,1,.08.56l-1.36,1.72a.39.39,0,0,1-.56.08,10.09,10.09,0,0,0-5.16-1.56c-2.4,0-3.64,1.08-3.64,2.64s.92,2.32,3.76,2.6l2,.2c3.88.36,5.76,2.32,5.76,5.4,0,3.76-2.72,6.27-7.72,6.27A11.86,11.86,0,0,1,288.63,101.55Z"/><path d="M340.43,104a.38.38,0,0,1-.4-.4V92.4c0-3.08-1.4-4.88-4.28-4.88a4.32,4.32,0,0,0-4.4,4.68v11.39a.38.38,0,0,1-.4.4h-2.56a.38.38,0,0,1-.4-.4V92.4c0-3.08-1.4-4.88-4.28-4.88-2.6,0-4.4,1.84-4.4,4.68v11.39a.38.38,0,0,1-.4.4h-2.56a.38.38,0,0,1-.4-.4V85.24a.38.38,0,0,1,.4-.4h2.56a.38.38,0,0,1,.4.4V87h0a6.77,6.77,0,0,1,11,.4h0a7.13,7.13,0,0,1,6.2-3c4.44,0,6.84,2.84,6.84,7.2v12a.38.38,0,0,1-.4.4Z"/><path d="M347.63,99.28A14.39,14.39,0,0,1,347,94.4a14.29,14.29,0,0,1,.64-4.84c1-3.28,3.84-5.16,7.56-5.16s6.52,1.88,7.56,5.16a14.29,14.29,0,0,1,.64,4.84,14.39,14.39,0,0,1-.64,4.88c-1,3.23-3.84,5.15-7.56,5.15S348.67,102.51,347.63,99.28Zm11.88-1A12.55,12.55,0,0,0,360,94.4a12.27,12.27,0,0,0-.44-3.88,4.61,4.61,0,0,0-8.64,0,12.27,12.27,0,0,0-.44,3.88,12.55,12.55,0,0,0,.44,3.92,4.62,4.62,0,0,0,8.64,0Zm-5.76-16.6c-.24,0-.36-.16-.24-.4l3-4.92a.7.7,0,0,1,.68-.4h2.64c.24,0,.36.2.2.4l-3.68,4.92a.79.79,0,0,1-.76.4Z"/><path d="M372.23,104c-.28,0-.4-.16-.48-.4l-6.88-18.35c-.08-.24,0-.4.32-.4H368c.28,0,.4.12.52.4l5,13.76h.08l4.84-13.76a.47.47,0,0,1,.48-.4h2.72c.28,0,.4.16.32.4L375,103.59a.52.52,0,0,1-.52.4Z"/><path d="M384.91,80.52a.38.38,0,0,1-.4-.4V77.2a.38.38,0,0,1,.4-.4h2.72a.38.38,0,0,1,.4.4v2.92a.38.38,0,0,1-.4.4ZM385,104a.38.38,0,0,1-.4-.4V85.24a.38.38,0,0,1,.4-.4h2.56a.38.38,0,0,1,.4.4v18.35a.38.38,0,0,1-.4.4Z"/><path d="M397.51,104.2c-3.36,0-4.68-1.61-4.68-5v-22a.38.38,0,0,1,.4-.4h2.56a.38.38,0,0,1,.4.4V99c0,1.59.6,2.12,1.92,2.12h.76a.37.37,0,0,1,.4.39v2.32a.38.38,0,0,1-.4.41Z"/><path d="M401.87,99.24a15,15,0,0,1-.64-4.84,14.86,14.86,0,0,1,.6-4.84c1.08-3.32,3.88-5.16,7.52-5.16a7.42,7.42,0,0,1,7.52,5.16,16.72,16.72,0,0,1,.6,5.48.39.39,0,0,1-.44.4H404.91a.21.21,0,0,0-.24.24A7.18,7.18,0,0,0,405,98a4.72,4.72,0,0,0,4.84,3.31,6.29,6.29,0,0,0,4.92-2.11.41.41,0,0,1,.6-.08L417,100.6a.36.36,0,0,1,0,.56,9.34,9.34,0,0,1-7.48,3.27C405.67,104.43,402.91,102.55,401.87,99.24Zm11.92-6.48a.21.21,0,0,0,.24-.24,6.74,6.74,0,0,0-.28-2.16,4.73,4.73,0,0,0-8.8,0,6.74,6.74,0,0,0-.28,2.16.21.21,0,0,0,.24.24Z"/><path d="M420,101.55a.38.38,0,0,1,0-.55l1.64-1.76a.39.39,0,0,1,.56,0,9.36,9.36,0,0,0,5.92,2.2c2.8,0,4.2-1.2,4.2-2.92,0-1.52-.72-2.36-3.72-2.68l-2-.2c-3.76-.4-5.72-2.28-5.72-5.4,0-3.64,2.6-5.84,7.12-5.84a11.46,11.46,0,0,1,6.8,2.12.39.39,0,0,1,.08.56l-1.36,1.72a.39.39,0,0,1-.56.08,10.09,10.09,0,0,0-5.16-1.56c-2.4,0-3.64,1.08-3.64,2.64s.92,2.32,3.76,2.6l2,.2c3.88.36,5.76,2.32,5.76,5.4,0,3.76-2.72,6.27-7.72,6.27A11.86,11.86,0,0,1,420,101.55Z"/><path d="M459.31,104a.38.38,0,0,1-.4-.4v-1.8h0a5.84,5.84,0,0,1-5.24,2.64c-4.2,0-6.64-2.88-6.64-7.23v-12a.38.38,0,0,1,.4-.4H450a.38.38,0,0,1,.4.4V96.4c0,3.12,1.4,4.91,4.24,4.91,2.6,0,4.32-1.83,4.32-4.71V85.24a.38.38,0,0,1,.4-.4h2.56a.38.38,0,0,1,.4.4v18.35a.38.38,0,0,1-.4.4Z"/><path d="M10.92,137.28a18.77,18.77,0,0,1,0-9.72c1-3.28,3.84-5.16,7.56-5.16S25,124.28,26,127.56a18.77,18.77,0,0,1,0,9.72c-1,3.23-3.84,5.15-7.56,5.15S12,140.51,10.92,137.28Zm11.88-1a12.55,12.55,0,0,0,.44-3.92,12.27,12.27,0,0,0-.44-3.88,4.26,4.26,0,0,0-4.32-3,4.26,4.26,0,0,0-4.32,3,12.27,12.27,0,0,0-.44,3.88,12.55,12.55,0,0,0,.44,3.92,4.25,4.25,0,0,0,4.32,3A4.25,4.25,0,0,0,22.8,136.32Z"/><path d="M36,142.2c-3.72,0-5.16-1.69-5.16-5.44v-11a.21.21,0,0,0-.24-.24H29a.38.38,0,0,1-.4-.4v-1.92a.38.38,0,0,1,.4-.4h1.6a.21.21,0,0,0,.24-.24v-5.4a.38.38,0,0,1,.4-.4h2.56a.38.38,0,0,1,.4.4v5.4a.21.21,0,0,0,.24.24h3a.38.38,0,0,1,.4.4v1.92a.38.38,0,0,1-.4.4h-3a.21.21,0,0,0-.24.24v10.84c0,1.91.72,2.44,2.44,2.44h.84a.37.37,0,0,1,.4.39v2.32a.38.38,0,0,1-.4.41Z"/><path d="M41.92,142a.38.38,0,0,1-.4-.4V123.24a.38.38,0,0,1,.4-.4h2.56a.38.38,0,0,1,.4.4v2h0A5.34,5.34,0,0,1,50,122.4a5.89,5.89,0,0,1,3.92,1.44c.2.2.24.36.08.56l-1.48,2a.36.36,0,0,1-.56.08,5.4,5.4,0,0,0-3-.92c-2.92,0-4.12,2.28-4.12,5.6v10.47a.38.38,0,0,1-.4.4Z"/><path d="M55.08,137.28a18.77,18.77,0,0,1,0-9.72c1-3.28,3.84-5.16,7.56-5.16s6.52,1.88,7.56,5.16a18.77,18.77,0,0,1,0,9.72c-1,3.23-3.84,5.15-7.56,5.15S56.12,140.51,55.08,137.28Zm11.88-1a12.55,12.55,0,0,0,.44-3.92,12.27,12.27,0,0,0-.44-3.88,4.61,4.61,0,0,0-8.64,0,12.27,12.27,0,0,0-.44,3.88,12.55,12.55,0,0,0,.44,3.92,4.62,4.62,0,0,0,8.64,0Z"/><path d="M73.32,139.55a.38.38,0,0,1,0-.55L75,137.24a.39.39,0,0,1,.56,0,9.36,9.36,0,0,0,5.92,2.2c2.8,0,4.2-1.2,4.2-2.92,0-1.52-.72-2.36-3.72-2.68l-2-.2c-3.76-.4-5.72-2.28-5.72-5.4,0-3.64,2.6-5.84,7.12-5.84a11.46,11.46,0,0,1,6.8,2.12.39.39,0,0,1,.08.56L86.8,126.8a.39.39,0,0,1-.56.08,10.09,10.09,0,0,0-5.16-1.56c-2.4,0-3.64,1.08-3.64,2.64s.92,2.32,3.76,2.6l2,.2c3.88.36,5.76,2.32,5.76,5.4,0,3.76-2.72,6.27-7.72,6.27A11.86,11.86,0,0,1,73.32,139.55Z"/><path d="M112.64,142a.38.38,0,0,1-.4-.4v-1.84h0c-.92,1.53-2.56,2.68-5.44,2.68-3.32,0-5.64-1.55-6.6-4.59a16,16,0,0,1-.68-5.44,15.84,15.84,0,0,1,.68-5.4c1-3,3.28-4.6,6.6-4.6,2.88,0,4.52,1.12,5.44,2.64h0V115.2a.38.38,0,0,1,.4-.4h2.55a.37.37,0,0,1,.4.4v26.39a.37.37,0,0,1-.4.4Zm-.84-5.59a12.31,12.31,0,0,0,.44-4,12.47,12.47,0,0,0-.44-4,4.53,4.53,0,0,0-8.44,0,13.63,13.63,0,0,0-.44,4,13.29,13.29,0,0,0,.44,4,4.51,4.51,0,0,0,8.44,0Z"/><path d="M120.88,118.52a.38.38,0,0,1-.4-.4V115.2a.38.38,0,0,1,.4-.4h2.72a.38.38,0,0,1,.4.4v2.92a.38.38,0,0,1-.4.4ZM121,142a.38.38,0,0,1-.4-.4V123.24a.38.38,0,0,1,.4-.4h2.56a.38.38,0,0,1,.4.4v18.35a.38.38,0,0,1-.4.4Z"/><path d="M127.56,139.55a.38.38,0,0,1,0-.55l1.64-1.76a.39.39,0,0,1,.56,0,9.36,9.36,0,0,0,5.92,2.2c2.8,0,4.2-1.2,4.2-2.92,0-1.52-.72-2.36-3.72-2.68l-2-.2c-3.76-.4-5.72-2.28-5.72-5.4,0-3.64,2.6-5.84,7.12-5.84a11.41,11.41,0,0,1,6.79,2.12.4.4,0,0,1,.09.56L141,126.8a.39.39,0,0,1-.56.08,10.09,10.09,0,0,0-5.16-1.56c-2.4,0-3.64,1.08-3.64,2.64s.92,2.32,3.76,2.6l2,.2c3.87.36,5.75,2.32,5.75,5.4,0,3.76-2.71,6.27-7.71,6.27A11.86,11.86,0,0,1,127.56,139.55Z"/><path d="M152.44,142.2c-3.72,0-5.16-1.69-5.16-5.44v-11a.21.21,0,0,0-.24-.24h-1.6a.38.38,0,0,1-.4-.4v-1.92a.38.38,0,0,1,.4-.4H147a.21.21,0,0,0,.24-.24v-5.4a.38.38,0,0,1,.4-.4h2.56a.38.38,0,0,1,.4.4v5.4a.21.21,0,0,0,.24.24h3a.38.38,0,0,1,.4.4v1.92a.38.38,0,0,1-.4.4h-3a.21.21,0,0,0-.24.24v10.84c0,1.91.72,2.44,2.44,2.44h.84a.37.37,0,0,1,.4.39v2.32a.38.38,0,0,1-.4.41Z"/><path d="M158.32,142a.38.38,0,0,1-.4-.4V123.24a.38.38,0,0,1,.4-.4h2.56a.38.38,0,0,1,.4.4v2h0a5.32,5.32,0,0,1,5.07-2.8,5.89,5.89,0,0,1,3.92,1.44c.2.2.24.36.08.56l-1.48,2a.36.36,0,0,1-.56.08,5.39,5.39,0,0,0-2.95-.92c-2.92,0-4.12,2.28-4.12,5.6v10.47a.38.38,0,0,1-.4.4Z"/><path d="M183.35,142a.38.38,0,0,1-.4-.4v-1.67h0c-.88,1.43-2.76,2.51-5.68,2.51-3.63,0-6.43-1.88-6.43-5.75,0-4,2.8-5.92,7.47-5.92h4.36a.21.21,0,0,0,.24-.24v-1.4c0-2.64-1-3.76-4.6-3.76a7.44,7.44,0,0,0-4.63,1.36c-.2.16-.44.16-.56,0L172,124.84a.42.42,0,0,1,.08-.56,10.62,10.62,0,0,1,6.51-1.88c5.44,0,7.52,1.8,7.52,6.52v12.67a.38.38,0,0,1-.4.4Zm-.48-6.19v-2.12a.21.21,0,0,0-.24-.24h-3.84c-3.31,0-4.75,1-4.75,3.12,0,2,1.44,3,4,3C181,139.55,182.87,138.16,182.87,135.8Z"/><path d="M190.36,127.56c1.08-3.32,3.88-5.16,7.55-5.16a7.68,7.68,0,0,1,6.56,3.24c.12.2.12.36-.12.56l-1.76,1.44a.36.36,0,0,1-.56,0,4.71,4.71,0,0,0-4.12-2.08,4.14,4.14,0,0,0-4.27,3,17.5,17.5,0,0,0,0,7.8,4.13,4.13,0,0,0,4.27,3,4.73,4.73,0,0,0,4.12-2.07.36.36,0,0,1,.56,0l1.76,1.43a.39.39,0,0,1,.12.57,7.67,7.67,0,0,1-6.56,3.23c-3.67,0-6.47-1.84-7.55-5.15a20,20,0,0,1,0-9.72Z"/><path d="M213.75,142.2c-3.71,0-5.15-1.69-5.15-5.44v-11a.21.21,0,0,0-.24-.24h-1.6a.38.38,0,0,1-.4-.4v-1.92a.38.38,0,0,1,.4-.4h1.6a.21.21,0,0,0,.24-.24v-5.4a.38.38,0,0,1,.4-.4h2.55a.38.38,0,0,1,.4.4v5.4a.21.21,0,0,0,.24.24h3a.38.38,0,0,1,.4.4v1.92a.38.38,0,0,1-.4.4h-3a.21.21,0,0,0-.24.24v10.84c0,1.91.72,2.44,2.44,2.44h.84a.37.37,0,0,1,.4.39v2.32a.38.38,0,0,1-.4.41Z"/><path d="M218.72,137.28a18.77,18.77,0,0,1,0-9.72c1-3.28,3.83-5.16,7.55-5.16s6.52,1.88,7.56,5.16a18.77,18.77,0,0,1,0,9.72c-1,3.23-3.84,5.15-7.56,5.15S219.75,140.51,218.72,137.28Zm11.87-1a12.55,12.55,0,0,0,.44-3.92,12.27,12.27,0,0,0-.44-3.88,4.61,4.61,0,0,0-8.64,0,12.27,12.27,0,0,0-.44,3.88,12.55,12.55,0,0,0,.44,3.92,4.62,4.62,0,0,0,8.64,0Z"/><path d="M238.67,142a.38.38,0,0,1-.4-.4V123.24a.38.38,0,0,1,.4-.4h2.56a.38.38,0,0,1,.4.4v2h0a5.34,5.34,0,0,1,5.08-2.8,5.89,5.89,0,0,1,3.92,1.44c.2.2.24.36.08.56l-1.48,2a.36.36,0,0,1-.56.08,5.4,5.4,0,0,0-3-.92c-2.92,0-4.12,2.28-4.12,5.6v10.47a.38.38,0,0,1-.4.4Z"/><path d="M251.83,137.24a19.2,19.2,0,0,1,0-9.68c1.08-3.32,3.88-5.16,7.52-5.16a7.42,7.42,0,0,1,7.52,5.16,16.72,16.72,0,0,1,.6,5.48.39.39,0,0,1-.44.4H254.87a.21.21,0,0,0-.24.24A7.18,7.18,0,0,0,255,136a4.72,4.72,0,0,0,4.84,3.31,6.29,6.29,0,0,0,4.92-2.11.41.41,0,0,1,.6-.08L267,138.6a.36.36,0,0,1,0,.56,9.34,9.34,0,0,1-7.48,3.27C255.63,142.43,252.87,140.55,251.83,137.24Zm11.92-6.48a.21.21,0,0,0,.24-.24,6.74,6.74,0,0,0-.28-2.16,4.73,4.73,0,0,0-8.8,0,6.74,6.74,0,0,0-.28,2.16.21.21,0,0,0,.24.24Z"/><path d="M269.91,139.55a.38.38,0,0,1,0-.55l1.64-1.76a.39.39,0,0,1,.56,0,9.36,9.36,0,0,0,5.92,2.2c2.8,0,4.2-1.2,4.2-2.92,0-1.52-.72-2.36-3.72-2.68l-2-.2c-3.76-.4-5.72-2.28-5.72-5.4,0-3.64,2.6-5.84,7.12-5.84a11.46,11.46,0,0,1,6.8,2.12.39.39,0,0,1,.08.56l-1.36,1.72a.39.39,0,0,1-.56.08,10.09,10.09,0,0,0-5.16-1.56c-2.4,0-3.64,1.08-3.64,2.64s.92,2.32,3.76,2.6l2,.2c3.88.36,5.76,2.32,5.76,5.4,0,3.76-2.72,6.27-7.72,6.27A11.86,11.86,0,0,1,269.91,139.55Z"/><path d="M289.15,137.76H292a.38.38,0,0,1,.4.4v3.72a1.26,1.26,0,0,1-.24.87L289.63,146a.63.63,0,0,1-.52.28.36.36,0,0,1-.36-.36v-7.79A.38.38,0,0,1,289.15,137.76Z"/><path d="M316.43,142a.38.38,0,0,1-.4-.4V130.4c0-3.08-1.4-4.88-4.28-4.88-2.6,0-4.4,1.84-4.4,4.68v11.39a.38.38,0,0,1-.4.4h-2.56a.38.38,0,0,1-.4-.4V123.24a.38.38,0,0,1,.4-.4H307a.38.38,0,0,1,.4.4V125h0a6.06,6.06,0,0,1,5.36-2.6c4.16,0,6.64,2.84,6.64,7.2v12a.38.38,0,0,1-.4.4Z"/><path d="M323.63,137.28a18.77,18.77,0,0,1,0-9.72c1-3.28,3.84-5.16,7.56-5.16s6.52,1.88,7.56,5.16a18.77,18.77,0,0,1,0,9.72c-1,3.23-3.84,5.15-7.56,5.15S324.67,140.51,323.63,137.28Zm11.88-1a12.55,12.55,0,0,0,.44-3.92,12.27,12.27,0,0,0-.44-3.88,4.61,4.61,0,0,0-8.64,0,12.27,12.27,0,0,0-.44,3.88,12.55,12.55,0,0,0,.44,3.92,4.62,4.62,0,0,0,8.64,0Z"/><path d="M350.63,127.56c1.08-3.32,3.88-5.16,7.56-5.16a7.68,7.68,0,0,1,6.56,3.24c.12.2.12.36-.12.56l-1.76,1.44a.36.36,0,0,1-.56,0,4.71,4.71,0,0,0-4.12-2.08,4.16,4.16,0,0,0-4.28,3,17.5,17.5,0,0,0,0,7.8,4.15,4.15,0,0,0,4.28,3,4.73,4.73,0,0,0,4.12-2.07.36.36,0,0,1,.56,0l1.76,1.43a.39.39,0,0,1,.12.57,7.67,7.67,0,0,1-6.56,3.23c-3.68,0-6.48-1.84-7.56-5.15a20,20,0,0,1,0-9.72Z"/><path d="M379.59,142a.38.38,0,0,1-.4-.4v-1.67h0c-.88,1.43-2.76,2.51-5.68,2.51-3.64,0-6.44-1.88-6.44-5.75,0-4,2.8-5.92,7.48-5.92h4.36a.21.21,0,0,0,.24-.24v-1.4c0-2.64-1-3.76-4.6-3.76a7.45,7.45,0,0,0-4.64,1.36c-.2.16-.44.16-.56,0l-1.08-1.84a.42.42,0,0,1,.08-.56,10.63,10.63,0,0,1,6.52-1.88c5.44,0,7.52,1.8,7.52,6.52v12.67a.38.38,0,0,1-.4.4Zm-.48-6.19v-2.12a.21.21,0,0,0-.24-.24H375c-3.32,0-4.76,1-4.76,3.12,0,2,1.44,3,4,3C377.27,139.55,379.11,138.16,379.11,135.8Z"/><path d="M411.63,142a.38.38,0,0,1-.4-.4V130.4c0-3.08-1.4-4.88-4.28-4.88a4.32,4.32,0,0,0-4.4,4.68v11.39a.38.38,0,0,1-.4.4h-2.56a.38.38,0,0,1-.4-.4V130.4c0-3.08-1.4-4.88-4.28-4.88-2.6,0-4.4,1.84-4.4,4.68v11.39a.38.38,0,0,1-.4.4h-2.56a.38.38,0,0,1-.4-.4V123.24a.38.38,0,0,1,.4-.4h2.56a.38.38,0,0,1,.4.4V125h0a6.77,6.77,0,0,1,11,.4h0a7.13,7.13,0,0,1,6.2-3c4.44,0,6.84,2.84,6.84,7.2v12a.38.38,0,0,1-.4.4Z"/><path d="M419.67,118.52a.38.38,0,0,1-.4-.4V115.2a.38.38,0,0,1,.4-.4h2.72a.38.38,0,0,1,.4.4v2.92a.38.38,0,0,1-.4.4Zm.08,23.47a.38.38,0,0,1-.4-.4V123.24a.38.38,0,0,1,.4-.4h2.56a.38.38,0,0,1,.4.4v18.35a.38.38,0,0,1-.4.4Z"/><path d="M440.11,142a.38.38,0,0,1-.4-.4V130.4c0-3.08-1.4-4.88-4.28-4.88-2.6,0-4.4,1.84-4.4,4.68v11.39a.38.38,0,0,1-.4.4h-2.56a.38.38,0,0,1-.4-.4V123.24a.38.38,0,0,1,.4-.4h2.56a.38.38,0,0,1,.4.4V125h0a6.06,6.06,0,0,1,5.36-2.6c4.16,0,6.64,2.84,6.64,7.2v12a.38.38,0,0,1-.4.4Z"/><path d="M447.31,137.24a15,15,0,0,1-.64-4.84,14.86,14.86,0,0,1,.6-4.84c1.08-3.32,3.88-5.16,7.52-5.16a7.42,7.42,0,0,1,7.52,5.16,16.72,16.72,0,0,1,.6,5.48.39.39,0,0,1-.44.4H450.35a.21.21,0,0,0-.24.24,7.18,7.18,0,0,0,.32,2.32,4.72,4.72,0,0,0,4.84,3.31,6.29,6.29,0,0,0,4.92-2.11.41.41,0,0,1,.6-.08l1.64,1.48a.36.36,0,0,1,0,.56,9.34,9.34,0,0,1-7.48,3.27C451.11,142.43,448.35,140.55,447.31,137.24Zm11.92-6.48a.21.21,0,0,0,.24-.24,6.74,6.74,0,0,0-.28-2.16,4.73,4.73,0,0,0-8.8,0,6.74,6.74,0,0,0-.28,2.16.21.21,0,0,0,.24.24Z"/><path d="M14.9,175.28a18.77,18.77,0,0,1,0-9.72c1-3.28,3.84-5.16,7.56-5.16S29,162.28,30,165.56a18.77,18.77,0,0,1,0,9.72c-1,3.23-3.84,5.15-7.56,5.15S15.94,178.51,14.9,175.28Zm11.88-1a12.55,12.55,0,0,0,.44-3.92,12.27,12.27,0,0,0-.44-3.88,4.26,4.26,0,0,0-4.32-3,4.26,4.26,0,0,0-4.32,3,12.27,12.27,0,0,0-.44,3.88,12.55,12.55,0,0,0,.44,3.92,4.25,4.25,0,0,0,4.32,3A4.25,4.25,0,0,0,26.78,174.32Z"/><path d="M41.9,165.56c1.08-3.32,3.88-5.16,7.56-5.16A7.68,7.68,0,0,1,56,163.64c.12.2.12.36-.12.56l-1.76,1.44a.36.36,0,0,1-.56,0,4.71,4.71,0,0,0-4.12-2.08,4.16,4.16,0,0,0-4.28,3,17.5,17.5,0,0,0,0,7.8,4.15,4.15,0,0,0,4.28,3,4.73,4.73,0,0,0,4.12-2.07.36.36,0,0,1,.56,0l1.76,1.43a.39.39,0,0,1,.12.57,7.67,7.67,0,0,1-6.56,3.23c-3.68,0-6.48-1.84-7.56-5.15a20,20,0,0,1,0-9.72Z"/><path d="M58.74,175.28a18.77,18.77,0,0,1,0-9.72c1-3.28,3.84-5.16,7.56-5.16s6.52,1.88,7.56,5.16a18.77,18.77,0,0,1,0,9.72c-1,3.23-3.84,5.15-7.56,5.15S59.78,178.51,58.74,175.28Zm11.88-1a12.55,12.55,0,0,0,.44-3.92,12.27,12.27,0,0,0-.44-3.88,4.61,4.61,0,0,0-8.64,0,12.27,12.27,0,0,0-.44,3.88,12.55,12.55,0,0,0,.44,3.92,4.62,4.62,0,0,0,8.64,0Z"/><path d="M90.74,180a.38.38,0,0,1-.4-.4V168.4c0-3.08-1.4-4.88-4.28-4.88-2.6,0-4.4,1.84-4.4,4.68v11.39a.38.38,0,0,1-.4.4H78.7a.38.38,0,0,1-.4-.4V161.24a.38.38,0,0,1,.4-.4h2.56a.38.38,0,0,1,.4.4V163h0a6.06,6.06,0,0,1,5.36-2.6c4.16,0,6.64,2.84,6.64,7.2v12a.38.38,0,0,1-.4.4Z"/><path d="M110.46,180a.38.38,0,0,1-.4-.4v-1.84h0c-.92,1.53-2.56,2.68-5.44,2.68-3.32,0-5.64-1.55-6.6-4.59A21.94,21.94,0,0,1,98,165c1-3,3.28-4.6,6.6-4.6,2.88,0,4.52,1.12,5.44,2.64h0V153.2a.38.38,0,0,1,.4-.4H113a.38.38,0,0,1,.4.4v26.39a.38.38,0,0,1-.4.4Zm-.84-5.59a12.31,12.31,0,0,0,.44-4,12.47,12.47,0,0,0-.44-4,4.53,4.53,0,0,0-8.44,0,13.63,13.63,0,0,0-.44,4,13.29,13.29,0,0,0,.44,4,4.51,4.51,0,0,0,8.44,0Z"/><path d="M130.42,180a.38.38,0,0,1-.4-.4v-1.8h0a5.84,5.84,0,0,1-5.24,2.64c-4.2,0-6.64-2.88-6.64-7.23v-12a.38.38,0,0,1,.4-.4h2.56a.38.38,0,0,1,.4.4V172.4c0,3.12,1.4,4.91,4.24,4.91,2.6,0,4.32-1.83,4.32-4.71V161.24a.38.38,0,0,1,.4-.4H133a.38.38,0,0,1,.4.4v18.35a.38.38,0,0,1-.4.4Z"/><path d="M137.66,180a.38.38,0,0,1-.4-.4v-2.12a.58.58,0,0,1,.16-.43L147.94,164v-.08h-9.76a.38.38,0,0,1-.4-.4v-2.24a.38.38,0,0,1,.4-.4h13.36a.38.38,0,0,1,.4.4v2.24a.6.6,0,0,1-.16.44l-10.44,13V177h10.2a.38.38,0,0,1,.4.4v2.23a.38.38,0,0,1-.4.4Z"/><path d="M155.26,165.56c1.08-3.32,3.88-5.16,7.56-5.16a7.68,7.68,0,0,1,6.56,3.24c.12.2.12.36-.12.56l-1.76,1.44a.36.36,0,0,1-.56,0,4.71,4.71,0,0,0-4.12-2.08,4.16,4.16,0,0,0-4.28,3,17.5,17.5,0,0,0,0,7.8,4.15,4.15,0,0,0,4.28,3,4.73,4.73,0,0,0,4.12-2.07.36.36,0,0,1,.56,0l1.76,1.43a.39.39,0,0,1,.12.57,7.67,7.67,0,0,1-6.56,3.23c-3.68,0-6.48-1.84-7.56-5.15a20,20,0,0,1,0-9.72Z"/><path d="M184.22,180a.38.38,0,0,1-.4-.4v-1.67h0c-.88,1.43-2.76,2.51-5.68,2.51-3.64,0-6.44-1.88-6.44-5.75,0-4,2.8-5.92,7.48-5.92h4.36a.21.21,0,0,0,.24-.24v-1.4c0-2.64-1-3.76-4.6-3.76a7.45,7.45,0,0,0-4.64,1.36c-.2.16-.44.16-.56,0l-1.08-1.84a.42.42,0,0,1,.08-.56,10.63,10.63,0,0,1,6.52-1.88c5.44,0,7.52,1.8,7.52,6.52v12.67a.38.38,0,0,1-.4.4Zm-.48-6.19v-2.12a.21.21,0,0,0-.24-.24h-3.84c-3.32,0-4.76,1-4.76,3.12,0,2,1.44,3,4,3C181.9,177.55,183.74,176.16,183.74,173.8Z"/><path d="M224.25,180a.38.38,0,0,1-.4-.4V168.4c0-3.08-1.4-4.88-4.28-4.88a4.32,4.32,0,0,0-4.4,4.68v11.39a.38.38,0,0,1-.4.4h-2.56a.38.38,0,0,1-.4-.4V168.4c0-3.08-1.39-4.88-4.27-4.88-2.6,0-4.4,1.84-4.4,4.68v11.39a.38.38,0,0,1-.4.4h-2.56a.38.38,0,0,1-.4-.4V161.24a.38.38,0,0,1,.4-.4h2.56a.38.38,0,0,1,.4.4V163h0a6.76,6.76,0,0,1,10.95.4h0a7.13,7.13,0,0,1,6.2-3c4.44,0,6.84,2.84,6.84,7.2v12a.38.38,0,0,1-.4.4Z"/><path d="M232.3,156.52a.38.38,0,0,1-.4-.4V153.2a.38.38,0,0,1,.4-.4H235a.38.38,0,0,1,.4.4v2.92a.38.38,0,0,1-.4.4Zm.08,23.47a.38.38,0,0,1-.4-.4V161.24a.38.38,0,0,1,.4-.4h2.56a.38.38,0,0,1,.4.4v18.35a.38.38,0,0,1-.4.4Z"/><path d="M239.78,175.24a15,15,0,0,1-.64-4.84,14.86,14.86,0,0,1,.6-4.84c1.08-3.32,3.88-5.16,7.51-5.16a7.42,7.42,0,0,1,7.52,5.16,16.72,16.72,0,0,1,.6,5.48.39.39,0,0,1-.44.4H242.82a.21.21,0,0,0-.24.24,7.18,7.18,0,0,0,.32,2.32,4.72,4.72,0,0,0,4.83,3.31,6.29,6.29,0,0,0,4.92-2.11.41.41,0,0,1,.6-.08l1.64,1.48a.36.36,0,0,1,0,.56,9.33,9.33,0,0,1-7.47,3.27C243.58,180.43,240.82,178.55,239.78,175.24Zm11.91-6.48a.21.21,0,0,0,.24-.24,6.74,6.74,0,0,0-.28-2.16,4.72,4.72,0,0,0-8.79,0,6.74,6.74,0,0,0-.28,2.16.21.21,0,0,0,.24.24Z"/><path d="M271.61,180a.38.38,0,0,1-.4-.4V168.4c0-3.08-1.4-4.88-4.28-4.88-2.6,0-4.4,1.84-4.4,4.68v11.39a.37.37,0,0,1-.4.4h-2.55a.38.38,0,0,1-.4-.4V161.24a.38.38,0,0,1,.4-.4h2.55a.37.37,0,0,1,.4.4V163h0a6.06,6.06,0,0,1,5.36-2.6c4.16,0,6.64,2.84,6.64,7.2v12a.38.38,0,0,1-.4.4Z"/><path d="M284.89,180.2c-3.72,0-5.16-1.69-5.16-5.44v-11c0-.16-.07-.24-.23-.24h-1.6a.38.38,0,0,1-.4-.4v-1.92a.38.38,0,0,1,.4-.4h1.6c.16,0,.23-.08.23-.24v-5.4a.38.38,0,0,1,.4-.4h2.56a.38.38,0,0,1,.4.4v5.4a.21.21,0,0,0,.24.24h3a.38.38,0,0,1,.4.4v1.92a.38.38,0,0,1-.4.4h-3a.21.21,0,0,0-.24.24v10.84c0,1.91.72,2.44,2.44,2.44h.84a.37.37,0,0,1,.4.39v2.32a.38.38,0,0,1-.4.41Z"/><path d="M290.77,180a.38.38,0,0,1-.4-.4V161.24a.38.38,0,0,1,.4-.4h2.56a.38.38,0,0,1,.4.4v2h0a5.34,5.34,0,0,1,5.08-2.8,5.89,5.89,0,0,1,3.92,1.44c.2.2.24.36.08.56l-1.48,2a.36.36,0,0,1-.56.08,5.4,5.4,0,0,0-3-.92c-2.92,0-4.12,2.28-4.12,5.6v10.47a.38.38,0,0,1-.4.4Z"/><path d="M315.81,180a.38.38,0,0,1-.4-.4v-1.67h0c-.88,1.43-2.76,2.51-5.68,2.51-3.64,0-6.44-1.88-6.44-5.75,0-4,2.8-5.92,7.48-5.92h4.36a.21.21,0,0,0,.24-.24v-1.4c0-2.64-1-3.76-4.6-3.76a7.45,7.45,0,0,0-4.64,1.36c-.2.16-.44.16-.56,0l-1.08-1.84a.42.42,0,0,1,.08-.56,10.63,10.63,0,0,1,6.52-1.88c5.44,0,7.52,1.8,7.52,6.52v12.67a.38.38,0,0,1-.4.4Zm-.48-6.19v-2.12a.21.21,0,0,0-.24-.24h-3.84c-3.32,0-4.76,1-4.76,3.12,0,2,1.44,3,4,3C313.49,177.55,315.33,176.16,315.33,173.8Z"/><path d="M322.05,177.55a.39.39,0,0,1,0-.55l1.64-1.76a.39.39,0,0,1,.56,0,9.36,9.36,0,0,0,5.92,2.2c2.8,0,4.2-1.2,4.2-2.92,0-1.52-.72-2.36-3.72-2.68l-2-.2c-3.76-.4-5.72-2.28-5.72-5.4,0-3.64,2.6-5.84,7.12-5.84a11.46,11.46,0,0,1,6.8,2.12.39.39,0,0,1,.08.56l-1.36,1.72a.39.39,0,0,1-.56.08,10.09,10.09,0,0,0-5.16-1.56c-2.4,0-3.64,1.08-3.64,2.64s.92,2.32,3.76,2.6l2,.2c3.88.36,5.76,2.32,5.76,5.4,0,3.76-2.72,6.27-7.72,6.27A11.86,11.86,0,0,1,322.05,177.55Z"/><path d="M361.37,180a.38.38,0,0,1-.4-.4v-1.84h0c-.92,1.53-2.56,2.68-5.44,2.68-3.32,0-5.64-1.55-6.6-4.59a21.94,21.94,0,0,1,0-10.84c1-3,3.28-4.6,6.6-4.6,2.88,0,4.52,1.12,5.44,2.64h0V153.2a.38.38,0,0,1,.4-.4h2.56a.38.38,0,0,1,.4.4v26.39a.38.38,0,0,1-.4.4Zm-.84-5.59a12.31,12.31,0,0,0,.44-4,12.47,12.47,0,0,0-.44-4,4.53,4.53,0,0,0-8.44,0,13.63,13.63,0,0,0-.44,4,13.29,13.29,0,0,0,.44,4,4.51,4.51,0,0,0,8.44,0Z"/><path d="M369.61,156.52a.38.38,0,0,1-.4-.4V153.2a.38.38,0,0,1,.4-.4h2.72a.38.38,0,0,1,.4.4v2.92a.38.38,0,0,1-.4.4Zm.08,23.47a.38.38,0,0,1-.4-.4V161.24a.38.38,0,0,1,.4-.4h2.56a.38.38,0,0,1,.4.4v18.35a.38.38,0,0,1-.4.4Z"/><path d="M377.21,184.79a.36.36,0,0,1,0-.56l1.64-1.64a.37.37,0,0,1,.6,0,6.39,6.39,0,0,0,4.52,1.92c3.16,0,4.84-1.64,4.84-5.16v-2.23h0c-.88,1.59-2.52,2.63-5.32,2.63a6.27,6.27,0,0,1-6.44-4.63,20.16,20.16,0,0,1,0-10.08,6.28,6.28,0,0,1,6.44-4.64c2.8,0,4.44,1,5.32,2.64h0v-1.8a.38.38,0,0,1,.4-.4h2.56a.38.38,0,0,1,.4.4v17.91c0,5.44-3,8.48-8.36,8.48A8.66,8.66,0,0,1,377.21,184.79Zm11.2-11a11.65,11.65,0,0,0,.44-3.72,11.81,11.81,0,0,0-.44-3.72,4.32,4.32,0,0,0-8.12,0,12,12,0,0,0-.48,3.72,11.83,11.83,0,0,0,.48,3.72,3.91,3.91,0,0,0,4,2.88A4,4,0,0,0,388.41,173.8Z"/><path d="M397.49,156.52a.38.38,0,0,1-.4-.4V153.2a.38.38,0,0,1,.4-.4h2.72a.38.38,0,0,1,.4.4v2.92a.38.38,0,0,1-.4.4Zm.08,23.47a.38.38,0,0,1-.4-.4V161.24a.38.38,0,0,1,.4-.4h2.56a.38.38,0,0,1,.4.4v18.35a.38.38,0,0,1-.4.4Z"/><path d="M411.05,180.2c-3.72,0-5.16-1.69-5.16-5.44v-11a.21.21,0,0,0-.24-.24h-1.6a.38.38,0,0,1-.4-.4v-1.92a.38.38,0,0,1,.4-.4h1.6a.21.21,0,0,0,.24-.24v-5.4a.38.38,0,0,1,.4-.4h2.56a.38.38,0,0,1,.4.4v5.4a.21.21,0,0,0,.24.24h3a.38.38,0,0,1,.4.4v1.92a.38.38,0,0,1-.4.4h-3a.21.21,0,0,0-.24.24v10.84c0,1.91.72,2.44,2.44,2.44h.84a.37.37,0,0,1,.4.39v2.32a.38.38,0,0,1-.4.41Z"/><path d="M428.13,180a.38.38,0,0,1-.4-.4v-1.67h0c-.88,1.43-2.76,2.51-5.68,2.51-3.64,0-6.44-1.88-6.44-5.75,0-4,2.8-5.92,7.48-5.92h4.36a.21.21,0,0,0,.24-.24v-1.4c0-2.64-1-3.76-4.6-3.76a7.45,7.45,0,0,0-4.64,1.36c-.2.16-.44.16-.56,0l-1.08-1.84a.42.42,0,0,1,.08-.56,10.63,10.63,0,0,1,6.52-1.88c5.44,0,7.52,1.8,7.52,6.52v12.67a.38.38,0,0,1-.4.4Zm-.48-6.19v-2.12a.21.21,0,0,0-.24-.24h-3.84c-3.32,0-4.76,1-4.76,3.12,0,2,1.44,3,4,3C425.81,177.55,427.65,176.16,427.65,173.8Z"/><path d="M443.17,175.28a18.77,18.77,0,0,1,0-9.72c1-3.28,3.84-5.16,7.56-5.16s6.52,1.88,7.56,5.16a18.77,18.77,0,0,1,0,9.72c-1,3.23-3.84,5.15-7.56,5.15S444.21,178.51,443.17,175.28Zm11.88-1a12.55,12.55,0,0,0,.44-3.92,12.27,12.27,0,0,0-.44-3.88,4.61,4.61,0,0,0-8.64,0,12.27,12.27,0,0,0-.44,3.88,12.55,12.55,0,0,0,.44,3.92,4.62,4.62,0,0,0,8.64,0Z"/><path d="M42,218a.38.38,0,0,1-.4-.4V206.4c0-3.08-1.4-4.88-4.28-4.88a4.32,4.32,0,0,0-4.4,4.68v11.39a.38.38,0,0,1-.4.4H29.94a.38.38,0,0,1-.4-.4V206.4c0-3.08-1.4-4.88-4.28-4.88-2.6,0-4.4,1.84-4.4,4.68v11.39a.38.38,0,0,1-.4.4H17.9a.38.38,0,0,1-.4-.4V199.24a.38.38,0,0,1,.4-.4h2.56a.38.38,0,0,1,.4.4V201h0a6.06,6.06,0,0,1,5.36-2.6,6,6,0,0,1,5.6,3h0a7.13,7.13,0,0,1,6.2-3c4.44,0,6.84,2.84,6.84,7.2v12a.38.38,0,0,1-.4.4Z"/><path d="M61.3,218a.38.38,0,0,1-.4-.4v-1.67h0c-.88,1.43-2.76,2.51-5.68,2.51-3.64,0-6.44-1.88-6.44-5.75,0-4,2.8-5.92,7.48-5.92h4.36a.21.21,0,0,0,.24-.24v-1.4c0-2.64-1-3.76-4.6-3.76a7.45,7.45,0,0,0-4.64,1.36c-.2.16-.44.16-.56,0l-1.08-1.84a.42.42,0,0,1,.08-.56,10.63,10.63,0,0,1,6.52-1.88c5.44,0,7.52,1.8,7.52,6.52v12.67a.38.38,0,0,1-.4.4Zm-.48-6.19v-2.12a.21.21,0,0,0-.24-.24H56.74c-3.32,0-4.76,1-4.76,3.12,0,2,1.44,3,4,3C59,215.55,60.82,214.16,60.82,211.8Z"/><path d="M81.3,218a.38.38,0,0,1-.4-.4V206.4c0-3.08-1.4-4.88-4.28-4.88-2.6,0-4.4,1.84-4.4,4.68v11.39a.38.38,0,0,1-.4.4H69.26a.38.38,0,0,1-.4-.4V199.24a.38.38,0,0,1,.4-.4h2.56a.38.38,0,0,1,.4.4V201h0a6.06,6.06,0,0,1,5.36-2.6c4.16,0,6.64,2.84,6.64,7.2v12a.38.38,0,0,1-.4.4Z"/><path d="M89.34,194.52a.38.38,0,0,1-.4-.4V191.2a.38.38,0,0,1,.4-.4h2.72a.38.38,0,0,1,.4.4v2.92a.38.38,0,0,1-.4.4ZM89.42,218a.38.38,0,0,1-.4-.4V199.24a.38.38,0,0,1,.4-.4H92a.38.38,0,0,1,.4.4v18.35a.38.38,0,0,1-.4.4Z"/><path d="M97.74,225.19a.38.38,0,0,1-.4-.4V199.24a.38.38,0,0,1,.4-.4h2.56a.38.38,0,0,1,.4.4V201h0c.92-1.52,2.56-2.64,5.44-2.64,3.32,0,5.64,1.56,6.6,4.6a21.94,21.94,0,0,1,0,10.84c-1,3-3.28,4.59-6.6,4.59-2.88,0-4.52-1.15-5.44-2.68h0v9a.38.38,0,0,1-.4.4Zm11.84-12.79a13.29,13.29,0,0,0,.44-4,13.63,13.63,0,0,0-.44-4,4.53,4.53,0,0,0-8.44,0,12.47,12.47,0,0,0-.44,4,12.31,12.31,0,0,0,.44,4,4.51,4.51,0,0,0,8.44,0Z"/><path d="M129.3,218a.38.38,0,0,1-.4-.4v-1.8h0a5.84,5.84,0,0,1-5.24,2.64c-4.2,0-6.64-2.88-6.64-7.23v-12a.38.38,0,0,1,.4-.4h2.56a.38.38,0,0,1,.4.4V210.4c0,3.12,1.4,4.91,4.24,4.91,2.6,0,4.32-1.83,4.32-4.71V199.24a.38.38,0,0,1,.4-.4h2.56a.38.38,0,0,1,.4.4v18.35a.38.38,0,0,1-.4.4Z"/><path d="M141.82,218.2c-3.36,0-4.68-1.61-4.68-5v-22a.38.38,0,0,1,.4-.4h2.56a.38.38,0,0,1,.4.4V213c0,1.59.6,2.12,1.92,2.12h.76a.37.37,0,0,1,.4.39v2.32a.38.38,0,0,1-.4.41Z"/><path d="M158.3,218a.38.38,0,0,1-.4-.4v-1.67h0c-.88,1.43-2.76,2.51-5.68,2.51-3.64,0-6.44-1.88-6.44-5.75,0-4,2.8-5.92,7.48-5.92h4.36a.21.21,0,0,0,.24-.24v-1.4c0-2.64-1-3.76-4.6-3.76a7.45,7.45,0,0,0-4.64,1.36c-.2.16-.44.16-.56,0l-1.08-1.84a.42.42,0,0,1,.08-.56,10.63,10.63,0,0,1,6.52-1.88c5.44,0,7.52,1.8,7.52,6.52v12.67a.38.38,0,0,1-.4.4Zm-.48-6.19v-2.12a.21.21,0,0,0-.24-.24h-3.84c-3.32,0-4.76,1-4.76,3.12,0,2,1.44,3,4,3C156,215.55,157.82,214.16,157.82,211.8Z"/><path d="M173.34,213.24a15,15,0,0,1-.64-4.84,14.86,14.86,0,0,1,.6-4.84c1.08-3.32,3.88-5.16,7.52-5.16a7.41,7.41,0,0,1,7.51,5.16,16.72,16.72,0,0,1,.6,5.48.39.39,0,0,1-.44.4H176.38a.21.21,0,0,0-.24.24,7.18,7.18,0,0,0,.32,2.32,4.72,4.72,0,0,0,4.84,3.31,6.25,6.25,0,0,0,4.91-2.11c.21-.2.4-.24.6-.08l1.64,1.48a.36.36,0,0,1,0,.56,9.3,9.3,0,0,1-7.47,3.27C177.14,218.43,174.38,216.55,173.34,213.24Zm11.92-6.48a.21.21,0,0,0,.24-.24,6.74,6.74,0,0,0-.28-2.16,4.73,4.73,0,0,0-8.8,0,6.74,6.74,0,0,0-.28,2.16.21.21,0,0,0,.24.24Z"/><path d="M205.17,218a.38.38,0,0,1-.4-.4V206.4c0-3.08-1.39-4.88-4.27-4.88-2.6,0-4.4,1.84-4.4,4.68v11.39a.38.38,0,0,1-.4.4h-2.56a.38.38,0,0,1-.4-.4V199.24a.38.38,0,0,1,.4-.4h2.56a.38.38,0,0,1,.4.4V201h0a6.06,6.06,0,0,1,5.36-2.6c4.15,0,6.63,2.84,6.63,7.2v12a.38.38,0,0,1-.4.4Z"/><path d="M225.5,218.2c-3.36,0-4.68-1.61-4.68-5v-22a.38.38,0,0,1,.4-.4h2.56a.38.38,0,0,1,.4.4V213c0,1.59.6,2.12,1.92,2.12h.75a.37.37,0,0,1,.4.39v2.32a.38.38,0,0,1-.4.41Z"/><path d="M229.86,213.28a18.77,18.77,0,0,1,0-9.72c1-3.28,3.84-5.16,7.56-5.16s6.51,1.88,7.55,5.16a18.77,18.77,0,0,1,0,9.72c-1,3.23-3.84,5.15-7.55,5.15S230.9,216.51,229.86,213.28Zm11.87-1a12.55,12.55,0,0,0,.44-3.92,12.27,12.27,0,0,0-.44-3.88,4.6,4.6,0,0,0-8.63,0,12.27,12.27,0,0,0-.44,3.88,12.55,12.55,0,0,0,.44,3.92,4.61,4.61,0,0,0,8.63,0Z"/><path d="M248.1,215.55a.38.38,0,0,1,0-.55l1.64-1.76a.39.39,0,0,1,.56,0,9.36,9.36,0,0,0,5.91,2.2c2.8,0,4.2-1.2,4.2-2.92,0-1.52-.72-2.36-3.72-2.68l-2-.2c-3.75-.4-5.71-2.28-5.71-5.4,0-3.64,2.6-5.84,7.11-5.84a11.46,11.46,0,0,1,6.8,2.12.39.39,0,0,1,.08.56l-1.36,1.72a.39.39,0,0,1-.56.08,10.09,10.09,0,0,0-5.16-1.56c-2.39,0-3.63,1.08-3.63,2.64s.92,2.32,3.75,2.6l2,.2c3.88.36,5.76,2.32,5.76,5.4,0,3.76-2.72,6.27-7.72,6.27A11.85,11.85,0,0,1,248.1,215.55Z"/><path d="M287.41,218a.38.38,0,0,1-.4-.4v-1.84h0c-.92,1.53-2.56,2.68-5.44,2.68-3.32,0-5.64-1.55-6.6-4.59a21.94,21.94,0,0,1,0-10.84c1-3,3.28-4.6,6.6-4.6,2.88,0,4.52,1.12,5.44,2.64h0V191.2a.38.38,0,0,1,.4-.4H290a.38.38,0,0,1,.4.4v26.39a.38.38,0,0,1-.4.4Zm-.84-5.59a12.31,12.31,0,0,0,.44-4,12.47,12.47,0,0,0-.44-4,4.53,4.53,0,0,0-8.44,0,13.63,13.63,0,0,0-.44,4,13.29,13.29,0,0,0,.44,4,4.51,4.51,0,0,0,8.44,0Z"/><path d="M295.65,194.52a.38.38,0,0,1-.4-.4V191.2a.38.38,0,0,1,.4-.4h2.72a.38.38,0,0,1,.4.4v2.92a.38.38,0,0,1-.4.4Zm.08,23.47a.38.38,0,0,1-.4-.4V199.24a.38.38,0,0,1,.4-.4h2.56a.38.38,0,0,1,.4.4v18.35a.38.38,0,0,1-.4.4Z"/><path d="M302.33,215.55a.38.38,0,0,1,0-.55l1.64-1.76a.39.39,0,0,1,.56,0,9.36,9.36,0,0,0,5.92,2.2c2.8,0,4.2-1.2,4.2-2.92,0-1.52-.72-2.36-3.72-2.68l-2-.2c-3.76-.4-5.72-2.28-5.72-5.4,0-3.64,2.6-5.84,7.12-5.84a11.46,11.46,0,0,1,6.8,2.12.39.39,0,0,1,.08.56l-1.36,1.72a.39.39,0,0,1-.56.08,10.09,10.09,0,0,0-5.16-1.56c-2.4,0-3.64,1.08-3.64,2.64s.92,2.32,3.76,2.6l2,.2c3.88.36,5.76,2.32,5.76,5.4,0,3.76-2.72,6.27-7.72,6.27A11.86,11.86,0,0,1,302.33,215.55Z"/><path d="M322.05,225.19a.38.38,0,0,1-.4-.4V199.24a.38.38,0,0,1,.4-.4h2.56a.38.38,0,0,1,.4.4V201h0c.92-1.52,2.56-2.64,5.44-2.64,3.32,0,5.64,1.56,6.6,4.6a21.94,21.94,0,0,1,0,10.84c-1,3-3.28,4.59-6.6,4.59-2.88,0-4.52-1.15-5.44-2.68h0v9a.38.38,0,0,1-.4.4Zm11.84-12.79a13.29,13.29,0,0,0,.44-4,13.63,13.63,0,0,0-.44-4,4.53,4.53,0,0,0-8.44,0,12.47,12.47,0,0,0-.44,4,12.31,12.31,0,0,0,.44,4,4.51,4.51,0,0,0,8.44,0Z"/><path d="M341.05,213.28a18.77,18.77,0,0,1,0-9.72c1-3.28,3.84-5.16,7.56-5.16s6.52,1.88,7.56,5.16a18.77,18.77,0,0,1,0,9.72c-1,3.23-3.84,5.15-7.56,5.15S342.09,216.51,341.05,213.28Zm11.88-1a12.55,12.55,0,0,0,.44-3.92,12.27,12.27,0,0,0-.44-3.88,4.61,4.61,0,0,0-8.64,0,12.27,12.27,0,0,0-.44,3.88,12.55,12.55,0,0,0,.44,3.92,4.62,4.62,0,0,0,8.64,0Z"/><path d="M359.29,215.55a.38.38,0,0,1,0-.55l1.64-1.76a.39.39,0,0,1,.56,0,9.36,9.36,0,0,0,5.92,2.2c2.8,0,4.2-1.2,4.2-2.92,0-1.52-.72-2.36-3.72-2.68l-2-.2c-3.76-.4-5.72-2.28-5.72-5.4,0-3.64,2.6-5.84,7.12-5.84a11.46,11.46,0,0,1,6.8,2.12.39.39,0,0,1,.08.56l-1.36,1.72a.39.39,0,0,1-.56.08,10.09,10.09,0,0,0-5.16-1.56c-2.4,0-3.64,1.08-3.64,2.64s.92,2.32,3.76,2.6l2,.2c3.88.36,5.76,2.32,5.76,5.4,0,3.76-2.72,6.27-7.72,6.27A11.86,11.86,0,0,1,359.29,215.55Z"/><path d="M378.93,194.52a.38.38,0,0,1-.4-.4V191.2a.38.38,0,0,1,.4-.4h2.72a.38.38,0,0,1,.4.4v2.92a.38.38,0,0,1-.4.4ZM379,218a.38.38,0,0,1-.4-.4V199.24a.38.38,0,0,1,.4-.4h2.56a.38.38,0,0,1,.4.4v18.35a.38.38,0,0,1-.4.4Z"/><path d="M392.49,218.2c-3.72,0-5.16-1.69-5.16-5.44v-11a.21.21,0,0,0-.24-.24h-1.6a.38.38,0,0,1-.4-.4v-1.92a.38.38,0,0,1,.4-.4h1.6a.21.21,0,0,0,.24-.24v-5.4a.38.38,0,0,1,.4-.4h2.56a.38.38,0,0,1,.4.4v5.4a.21.21,0,0,0,.24.24h3a.38.38,0,0,1,.4.4v1.92a.38.38,0,0,1-.4.4h-3a.21.21,0,0,0-.24.24v10.84c0,1.91.72,2.44,2.44,2.44H394a.37.37,0,0,1,.4.39v2.32a.38.38,0,0,1-.4.41Z"/><path d="M398.29,194.52a.38.38,0,0,1-.4-.4V191.2a.38.38,0,0,1,.4-.4H401a.38.38,0,0,1,.4.4v2.92a.38.38,0,0,1-.4.4Zm.08,23.47a.38.38,0,0,1-.4-.4V199.24a.38.38,0,0,1,.4-.4h2.56a.38.38,0,0,1,.4.4v18.35a.38.38,0,0,1-.4.4Z"/><path d="M411.41,218c-.28,0-.4-.16-.48-.4l-6.88-18.35c-.08-.24,0-.4.32-.4h2.76c.28,0,.4.12.52.4l5,13.76h.08l4.84-13.76a.47.47,0,0,1,.48-.4h2.72c.28,0,.4.16.32.4l-6.84,18.35a.52.52,0,0,1-.52.4Z"/><path d="M423.09,213.28a18.77,18.77,0,0,1,0-9.72c1-3.28,3.84-5.16,7.56-5.16s6.52,1.88,7.56,5.16a18.77,18.77,0,0,1,0,9.72c-1,3.23-3.84,5.15-7.56,5.15S424.13,216.51,423.09,213.28Zm11.88-1a12.55,12.55,0,0,0,.44-3.92,12.27,12.27,0,0,0-.44-3.88,4.61,4.61,0,0,0-8.64,0,12.27,12.27,0,0,0-.44,3.88,12.55,12.55,0,0,0,.44,3.92,4.62,4.62,0,0,0,8.64,0Z"/><path d="M441.33,215.55a.38.38,0,0,1,0-.55l1.64-1.76a.39.39,0,0,1,.56,0,9.36,9.36,0,0,0,5.92,2.2c2.8,0,4.2-1.2,4.2-2.92,0-1.52-.72-2.36-3.72-2.68l-2-.2c-3.76-.4-5.72-2.28-5.72-5.4,0-3.64,2.6-5.84,7.12-5.84a11.46,11.46,0,0,1,6.8,2.12.39.39,0,0,1,.08.56l-1.36,1.72a.39.39,0,0,1-.56.08,10.09,10.09,0,0,0-5.16-1.56c-2.4,0-3.64,1.08-3.64,2.64s.92,2.32,3.76,2.6l2,.2c3.88.36,5.76,2.32,5.76,5.4,0,3.76-2.72,6.27-7.72,6.27A11.86,11.86,0,0,1,441.33,215.55Z"/><path d="M.64,251.24A15,15,0,0,1,0,246.4a14.86,14.86,0,0,1,.6-4.84c1.08-3.32,3.88-5.16,7.52-5.16a7.42,7.42,0,0,1,7.52,5.16,16.72,16.72,0,0,1,.6,5.48.39.39,0,0,1-.44.4H3.68a.21.21,0,0,0-.24.24A7.18,7.18,0,0,0,3.76,250a4.72,4.72,0,0,0,4.84,3.31,6.29,6.29,0,0,0,4.92-2.11.41.41,0,0,1,.6-.08l1.64,1.48a.36.36,0,0,1,0,.56,9.34,9.34,0,0,1-7.48,3.27C4.44,256.43,1.68,254.55.64,251.24Zm11.92-6.48a.21.21,0,0,0,.24-.24,6.74,6.74,0,0,0-.28-2.16,4.33,4.33,0,0,0-4.4-3,4.33,4.33,0,0,0-4.4,3,6.74,6.74,0,0,0-.28,2.16.21.21,0,0,0,.24.24Z"/><path d="M23.84,256.2c-3.36,0-4.68-1.61-4.68-5v-22a.38.38,0,0,1,.4-.4h2.56a.38.38,0,0,1,.4.4V251c0,1.59.6,2.12,1.92,2.12h.76a.37.37,0,0,1,.4.39v2.32a.38.38,0,0,1-.4.41Z"/><path d="M27.4,251.24a15,15,0,0,1-.64-4.84,14.86,14.86,0,0,1,.6-4.84c1.08-3.32,3.88-5.16,7.52-5.16a7.42,7.42,0,0,1,7.52,5.16A16.72,16.72,0,0,1,43,247a.39.39,0,0,1-.44.4H30.44a.21.21,0,0,0-.24.24,7.18,7.18,0,0,0,.32,2.32,4.72,4.72,0,0,0,4.84,3.31,6.29,6.29,0,0,0,4.92-2.11.41.41,0,0,1,.6-.08l1.64,1.48a.36.36,0,0,1,0,.56,9.34,9.34,0,0,1-7.48,3.27C31.2,256.43,28.44,254.55,27.4,251.24Zm11.92-6.48a.21.21,0,0,0,.24-.24,6.74,6.74,0,0,0-.28-2.16,4.33,4.33,0,0,0-4.4-3,4.33,4.33,0,0,0-4.4,3,6.74,6.74,0,0,0-.28,2.16.21.21,0,0,0,.24.24Z"/><path d="M45.44,241.56c1.08-3.32,3.88-5.16,7.56-5.16a7.68,7.68,0,0,1,6.56,3.24c.12.2.12.36-.12.56l-1.76,1.44a.36.36,0,0,1-.56,0A4.71,4.71,0,0,0,53,239.52a4.16,4.16,0,0,0-4.28,3,17.5,17.5,0,0,0,0,7.8,4.15,4.15,0,0,0,4.28,3,4.73,4.73,0,0,0,4.12-2.07.36.36,0,0,1,.56,0l1.76,1.43a.39.39,0,0,1,.12.57A7.67,7.67,0,0,1,53,256.43c-3.68,0-6.48-1.84-7.56-5.15a20,20,0,0,1,0-9.72Z"/><path d="M68,256.2c-3.72,0-5.16-1.69-5.16-5.44v-11a.21.21,0,0,0-.24-.24H61a.38.38,0,0,1-.4-.4v-1.92a.38.38,0,0,1,.4-.4h1.6a.21.21,0,0,0,.24-.24v-5.4a.38.38,0,0,1,.4-.4h2.56a.38.38,0,0,1,.4.4v5.4a.21.21,0,0,0,.24.24h3a.38.38,0,0,1,.4.4v1.92a.38.38,0,0,1-.4.4h-3a.21.21,0,0,0-.24.24v10.84c0,1.91.72,2.44,2.44,2.44h.84a.37.37,0,0,1,.4.39v2.32a.38.38,0,0,1-.4.41Z"/><path d="M73.12,256a.38.38,0,0,1-.4-.4V237.24a.38.38,0,0,1,.4-.4h2.56a.38.38,0,0,1,.4.4v2h0a5.34,5.34,0,0,1,5.08-2.8,5.89,5.89,0,0,1,3.92,1.44c.2.2.24.36.08.56l-1.48,2a.36.36,0,0,1-.56.08,5.4,5.4,0,0,0-3-.92c-2.92,0-4.12,2.28-4.12,5.6v10.47a.38.38,0,0,1-.4.4Z"/><path d="M85.48,251.28a18.77,18.77,0,0,1,0-9.72c1-3.28,3.84-5.16,7.56-5.16s6.52,1.88,7.56,5.16a18.77,18.77,0,0,1,0,9.72c-1,3.23-3.84,5.15-7.56,5.15S86.52,254.51,85.48,251.28Zm11.88-1a12.55,12.55,0,0,0,.44-3.92,12.27,12.27,0,0,0-.44-3.88,4.61,4.61,0,0,0-8.64,0,12.27,12.27,0,0,0-.44,3.88,12.55,12.55,0,0,0,.44,3.92,4.62,4.62,0,0,0,8.64,0Zm-5.76-16.6c-.24,0-.36-.16-.24-.4l3-4.92a.7.7,0,0,1,.68-.4h2.64c.24,0,.36.2.2.4l-3.68,4.92a.79.79,0,0,1-.76.4Z"/><path d="M116.68,256a.38.38,0,0,1-.4-.4V244.4c0-3.08-1.4-4.88-4.28-4.88-2.6,0-4.4,1.84-4.4,4.68v11.39a.38.38,0,0,1-.4.4h-2.56a.38.38,0,0,1-.4-.4V237.24a.38.38,0,0,1,.4-.4h2.56a.38.38,0,0,1,.4.4V239h0a6.06,6.06,0,0,1,5.36-2.6c4.16,0,6.63,2.84,6.63,7.2v12a.37.37,0,0,1-.4.4Z"/><path d="M123.92,232.52a.38.38,0,0,1-.4-.4V229.2a.38.38,0,0,1,.4-.4h2.72a.38.38,0,0,1,.4.4v2.92a.38.38,0,0,1-.4.4ZM124,256a.38.38,0,0,1-.4-.4V237.24a.38.38,0,0,1,.4-.4h2.56a.38.38,0,0,1,.4.4v18.35a.38.38,0,0,1-.4.4Z"/><path d="M130.56,241.56c1.08-3.32,3.88-5.16,7.56-5.16a7.68,7.68,0,0,1,6.55,3.24c.12.2.12.36-.12.56l-1.76,1.44a.36.36,0,0,1-.56,0,4.7,4.7,0,0,0-4.11-2.08,4.16,4.16,0,0,0-4.28,3,17.5,17.5,0,0,0,0,7.8,4.15,4.15,0,0,0,4.28,3,4.72,4.72,0,0,0,4.11-2.07.36.36,0,0,1,.56,0l1.76,1.43a.39.39,0,0,1,.12.57,7.67,7.67,0,0,1-6.55,3.23c-3.68,0-6.48-1.84-7.56-5.15a20,20,0,0,1,0-9.72Z"/><path d="M146.6,251.28a18.77,18.77,0,0,1,0-9.72c1-3.28,3.84-5.16,7.56-5.16s6.51,1.88,7.55,5.16a18.77,18.77,0,0,1,0,9.72c-1,3.23-3.84,5.15-7.55,5.15S147.64,254.51,146.6,251.28Zm11.87-1a12.55,12.55,0,0,0,.44-3.92,12.27,12.27,0,0,0-.44-3.88,4.6,4.6,0,0,0-8.63,0,12.27,12.27,0,0,0-.44,3.88,12.55,12.55,0,0,0,.44,3.92,4.61,4.61,0,0,0,8.63,0Z"/><path d="M164,253.55a.38.38,0,0,1,0-.55l1.64-1.76a.39.39,0,0,1,.56,0,9.36,9.36,0,0,0,5.91,2.2c2.8,0,4.2-1.2,4.2-2.92,0-1.52-.72-2.36-3.72-2.68l-2-.2c-3.76-.4-5.72-2.28-5.72-5.4,0-3.64,2.6-5.84,7.12-5.84a11.45,11.45,0,0,1,6.79,2.12.39.39,0,0,1,.08.56l-1.36,1.72a.39.39,0,0,1-.56.08,10.09,10.09,0,0,0-5.16-1.56c-2.39,0-3.63,1.08-3.63,2.64s.92,2.32,3.76,2.6l2,.2c3.88.36,5.76,2.32,5.76,5.4,0,3.76-2.72,6.27-7.71,6.27A11.86,11.86,0,0,1,164,253.55Z"/><path d="M182.48,251.76h2.8a.38.38,0,0,1,.4.4v3.72a1.26,1.26,0,0,1-.24.87L183,260a.63.63,0,0,1-.52.28.36.36,0,0,1-.36-.36v-7.79A.38.38,0,0,1,182.48,251.76Z"/><path d="M208.15,256a.38.38,0,0,1-.4-.4V244.4c0-3.08-1.4-4.88-4.28-4.88-2.6,0-4.4,1.84-4.4,4.68v11.39a.38.38,0,0,1-.4.4h-2.56a.38.38,0,0,1-.4-.4V237.24a.38.38,0,0,1,.4-.4h2.56a.38.38,0,0,1,.4.4V239h0a6.06,6.06,0,0,1,5.36-2.6c4.16,0,6.64,2.84,6.64,7.2v12a.38.38,0,0,1-.4.4Z"/><path d="M214.56,251.28a18.77,18.77,0,0,1,0-9.72c1-3.28,3.83-5.16,7.55-5.16s6.52,1.88,7.56,5.16a18.77,18.77,0,0,1,0,9.72c-1,3.23-3.84,5.15-7.56,5.15S215.59,254.51,214.56,251.28Zm11.87-1a12.55,12.55,0,0,0,.44-3.92,12.27,12.27,0,0,0-.44-3.88,4.61,4.61,0,0,0-8.64,0,12.27,12.27,0,0,0-.44,3.88,12.55,12.55,0,0,0,.44,3.92,4.62,4.62,0,0,0,8.64,0Z"/><path d="M240.91,256a.38.38,0,0,1-.4-.4V237.24a.38.38,0,0,1,.4-.4h2.56a.38.38,0,0,1,.4.4v2h0a5.34,5.34,0,0,1,5.08-2.8,5.89,5.89,0,0,1,3.92,1.44c.2.2.24.36.08.56l-1.48,2a.36.36,0,0,1-.56.08,5.4,5.4,0,0,0-3-.92c-2.92,0-4.12,2.28-4.12,5.6v10.47a.38.38,0,0,1-.4.4Z"/><path d="M253.27,251.24a15,15,0,0,1-.64-4.84,14.86,14.86,0,0,1,.6-4.84c1.08-3.32,3.88-5.16,7.52-5.16a7.42,7.42,0,0,1,7.52,5.16,16.72,16.72,0,0,1,.6,5.48.39.39,0,0,1-.44.4H256.31a.21.21,0,0,0-.24.24,7.18,7.18,0,0,0,.32,2.32,4.72,4.72,0,0,0,4.84,3.31,6.29,6.29,0,0,0,4.92-2.11.41.41,0,0,1,.6-.08l1.64,1.48a.36.36,0,0,1,0,.56,9.34,9.34,0,0,1-7.48,3.27C257.07,256.43,254.31,254.55,253.27,251.24Zm11.92-6.48a.21.21,0,0,0,.24-.24,6.74,6.74,0,0,0-.28-2.16,4.73,4.73,0,0,0-8.8,0,6.74,6.74,0,0,0-.28,2.16.21.21,0,0,0,.24.24Z"/><path d="M283.47,256a.38.38,0,0,1-.4-.4v-1.67h0c-.88,1.43-2.76,2.51-5.68,2.51-3.64,0-6.44-1.88-6.44-5.75,0-4,2.8-5.92,7.48-5.92h4.36a.21.21,0,0,0,.24-.24v-1.4c0-2.64-1-3.76-4.6-3.76a7.45,7.45,0,0,0-4.64,1.36c-.2.16-.44.16-.56,0l-1.08-1.84a.42.42,0,0,1,.08-.56,10.63,10.63,0,0,1,6.52-1.88c5.44,0,7.52,1.8,7.52,6.52v12.67a.38.38,0,0,1-.4.4ZM283,249.8v-2.12a.21.21,0,0,0-.24-.24h-3.84c-3.32,0-4.76,1-4.76,3.12,0,2,1.44,3,4,3C281.15,253.55,283,252.16,283,249.8Z"/><path d="M294.83,256.2c-3.36,0-4.68-1.61-4.68-5v-22a.38.38,0,0,1,.4-.4h2.56a.38.38,0,0,1,.4.4V251c0,1.59.6,2.12,1.92,2.12h.76a.37.37,0,0,1,.4.39v2.32a.38.38,0,0,1-.4.41Z"/><path d="M299.23,232.52a.38.38,0,0,1-.4-.4V229.2a.38.38,0,0,1,.4-.4H302a.38.38,0,0,1,.4.4v2.92a.38.38,0,0,1-.4.4Zm.08,23.47a.38.38,0,0,1-.4-.4V237.24a.38.38,0,0,1,.4-.4h2.56a.38.38,0,0,1,.4.4v18.35a.38.38,0,0,1-.4.4Z"/><path d="M305.87,241.56c1.08-3.32,3.88-5.16,7.56-5.16a7.68,7.68,0,0,1,6.56,3.24c.12.2.12.36-.12.56l-1.76,1.44a.36.36,0,0,1-.56,0,4.71,4.71,0,0,0-4.12-2.08,4.16,4.16,0,0,0-4.28,3,17.5,17.5,0,0,0,0,7.8,4.15,4.15,0,0,0,4.28,3,4.73,4.73,0,0,0,4.12-2.07.36.36,0,0,1,.56,0l1.76,1.43a.39.39,0,0,1,.12.57,7.67,7.67,0,0,1-6.56,3.23c-3.68,0-6.48-1.84-7.56-5.15a20,20,0,0,1,0-9.72Z"/><path d="M321.91,251.24a15,15,0,0,1-.64-4.84,14.86,14.86,0,0,1,.6-4.84c1.08-3.32,3.88-5.16,7.52-5.16a7.42,7.42,0,0,1,7.52,5.16,16.72,16.72,0,0,1,.6,5.48.39.39,0,0,1-.44.4H325a.21.21,0,0,0-.24.24A7.18,7.18,0,0,0,325,250a4.72,4.72,0,0,0,4.84,3.31,6.29,6.29,0,0,0,4.92-2.11.41.41,0,0,1,.6-.08L337,252.6a.36.36,0,0,1,0,.56,9.34,9.34,0,0,1-7.48,3.27C325.71,256.43,323,254.55,321.91,251.24Zm11.92-6.48a.21.21,0,0,0,.24-.24,6.74,6.74,0,0,0-.28-2.16,4.73,4.73,0,0,0-8.8,0,6.74,6.74,0,0,0-.28,2.16.21.21,0,0,0,.24.24Z"/><path d="M354.07,256.2c-3.72,0-5.16-1.69-5.16-5.44v-11a.21.21,0,0,0-.24-.24h-1.6a.38.38,0,0,1-.4-.4v-1.92a.38.38,0,0,1,.4-.4h1.6a.21.21,0,0,0,.24-.24v-5.4a.38.38,0,0,1,.4-.4h2.56a.38.38,0,0,1,.4.4v5.4a.21.21,0,0,0,.24.24h3a.38.38,0,0,1,.4.4v1.92a.38.38,0,0,1-.4.4h-3a.21.21,0,0,0-.24.24v10.84c0,1.91.72,2.44,2.44,2.44h.84a.37.37,0,0,1,.4.39v2.32a.38.38,0,0,1-.4.41Z"/><path d="M360,256a.38.38,0,0,1-.4-.4V237.24a.38.38,0,0,1,.4-.4h2.56a.38.38,0,0,1,.4.4v2h0a5.34,5.34,0,0,1,5.08-2.8,5.89,5.89,0,0,1,3.92,1.44c.2.2.24.36.08.56l-1.48,2a.36.36,0,0,1-.56.08,5.4,5.4,0,0,0-3-.92c-2.92,0-4.12,2.28-4.12,5.6v10.47a.38.38,0,0,1-.4.4Z"/><path d="M385,256a.38.38,0,0,1-.4-.4v-1.67h0c-.88,1.43-2.76,2.51-5.68,2.51-3.64,0-6.44-1.88-6.44-5.75,0-4,2.8-5.92,7.48-5.92h4.36a.21.21,0,0,0,.24-.24v-1.4c0-2.64-1-3.76-4.6-3.76a7.45,7.45,0,0,0-4.64,1.36c-.2.16-.44.16-.56,0l-1.08-1.84a.42.42,0,0,1,.08-.56,10.63,10.63,0,0,1,6.52-1.88c5.44,0,7.52,1.8,7.52,6.52v12.67a.38.38,0,0,1-.4.4Zm-.48-6.19v-2.12a.21.21,0,0,0-.24-.24h-3.84c-3.32,0-4.76,1-4.76,3.12,0,2,1.44,3,4,3C382.67,253.55,384.51,252.16,384.51,249.8Z"/><path d="M393,256a.38.38,0,0,1-.4-.4V229.2a.38.38,0,0,1,.4-.4h2.56a.38.38,0,0,1,.4.4V239h0c.92-1.52,2.56-2.64,5.44-2.64,3.32,0,5.64,1.56,6.6,4.6a21.94,21.94,0,0,1,0,10.84c-1,3-3.28,4.59-6.6,4.59-2.88,0-4.52-1.15-5.44-2.68h0v1.84a.38.38,0,0,1-.4.4Zm11.84-5.59a13.29,13.29,0,0,0,.44-4,13.63,13.63,0,0,0-.44-4,4.53,4.53,0,0,0-8.44,0,12.47,12.47,0,0,0-.44,4,12.31,12.31,0,0,0,.44,4,4.51,4.51,0,0,0,8.44,0Z"/><path d="M424.07,256a.38.38,0,0,1-.4-.4v-1.67h0c-.88,1.43-2.76,2.51-5.68,2.51-3.64,0-6.44-1.88-6.44-5.75,0-4,2.8-5.92,7.48-5.92h4.36a.21.21,0,0,0,.24-.24v-1.4c0-2.64-1-3.76-4.6-3.76a7.45,7.45,0,0,0-4.64,1.36c-.2.16-.44.16-.56,0l-1.08-1.84a.42.42,0,0,1,.08-.56,10.63,10.63,0,0,1,6.52-1.88c5.44,0,7.52,1.8,7.52,6.52v12.67a.38.38,0,0,1-.4.4Zm-.48-6.19v-2.12a.21.21,0,0,0-.24-.24h-3.84c-3.32,0-4.76,1-4.76,3.12,0,2,1.44,3,4,3C421.75,253.55,423.59,252.16,423.59,249.8Z"/><path d="M428.47,263.19a.38.38,0,0,1-.4-.4v-2.32a.38.38,0,0,1,.4-.4h.64c1.88,0,2.52-.52,2.52-2.56V237.24a.38.38,0,0,1,.4-.4h2.56a.38.38,0,0,1,.4.4v20.19c0,4.12-1.84,5.76-5.72,5.76ZM432,232.52a.38.38,0,0,1-.4-.4V229.2a.38.38,0,0,1,.4-.4h2.72a.38.38,0,0,1,.4.4v2.92a.38.38,0,0,1-.4.4Z"/><path d="M439.43,251.28a18.77,18.77,0,0,1,0-9.72c1-3.28,3.84-5.16,7.56-5.16s6.52,1.88,7.56,5.16a18.77,18.77,0,0,1,0,9.72c-1,3.23-3.84,5.15-7.56,5.15S440.47,254.51,439.43,251.28Zm11.88-1a12.55,12.55,0,0,0,.44-3.92,12.27,12.27,0,0,0-.44-3.88,4.61,4.61,0,0,0-8.64,0,12.27,12.27,0,0,0-.44,3.88,12.55,12.55,0,0,0,.44,3.92,4.62,4.62,0,0,0,8.64,0Z"/><path d="M457.67,253.55a.38.38,0,0,1,0-.55l1.64-1.76a.39.39,0,0,1,.56,0,9.36,9.36,0,0,0,5.92,2.2c2.8,0,4.2-1.2,4.2-2.92,0-1.52-.72-2.36-3.72-2.68l-2-.2c-3.76-.4-5.72-2.28-5.72-5.4,0-3.64,2.6-5.84,7.12-5.84a11.46,11.46,0,0,1,6.8,2.12.39.39,0,0,1,.08.56l-1.36,1.72a.39.39,0,0,1-.56.08,10.09,10.09,0,0,0-5.16-1.56c-2.4,0-3.64,1.08-3.64,2.64s.92,2.32,3.76,2.6l2,.2c3.88.36,5.76,2.32,5.76,5.4,0,3.76-2.72,6.27-7.72,6.27A11.86,11.86,0,0,1,457.67,253.55Z"/><path d="M30.44,294a.38.38,0,0,1-.4-.4V282.4c0-3.08-1.4-4.88-4.28-4.88a4.32,4.32,0,0,0-4.4,4.68v11.39a.38.38,0,0,1-.4.4H18.4a.38.38,0,0,1-.4-.4V282.4c0-3.08-1.4-4.88-4.28-4.88-2.6,0-4.4,1.84-4.4,4.68v11.39a.38.38,0,0,1-.4.4H6.36a.38.38,0,0,1-.4-.4V275.24a.38.38,0,0,1,.4-.4H8.92a.38.38,0,0,1,.4.4V277h0a6.06,6.06,0,0,1,5.36-2.6,6,6,0,0,1,5.6,3h0a7.13,7.13,0,0,1,6.2-3c4.44,0,6.84,2.84,6.84,7.2v12a.38.38,0,0,1-.4.4Z"/><path d="M36.88,270.52a.38.38,0,0,1-.4-.4V267.2a.38.38,0,0,1,.4-.4H39.6a.38.38,0,0,1,.4.4v2.92a.38.38,0,0,1-.4.4ZM37,294a.38.38,0,0,1-.4-.4V275.24a.38.38,0,0,1,.4-.4h2.56a.38.38,0,0,1,.4.4v18.35a.38.38,0,0,1-.4.4Z"/><path d="M42.76,289.24a15,15,0,0,1-.64-4.84,14.86,14.86,0,0,1,.6-4.84c1.08-3.32,3.88-5.16,7.52-5.16a7.42,7.42,0,0,1,7.52,5.16,16.72,16.72,0,0,1,.6,5.48.39.39,0,0,1-.44.4H45.8a.21.21,0,0,0-.24.24,7.18,7.18,0,0,0,.32,2.32,4.72,4.72,0,0,0,4.84,3.31,6.29,6.29,0,0,0,4.92-2.11.41.41,0,0,1,.6-.08l1.64,1.48a.36.36,0,0,1,0,.56,9.34,9.34,0,0,1-7.48,3.27C46.56,294.43,43.8,292.55,42.76,289.24Zm11.92-6.48a.21.21,0,0,0,.24-.24,6.74,6.74,0,0,0-.28-2.16,4.33,4.33,0,0,0-4.4-3,4.33,4.33,0,0,0-4.4,3,6.74,6.74,0,0,0-.28,2.16.21.21,0,0,0,.24.24Z"/><path d="M73,294a.38.38,0,0,1-.4-.4V282.4c0-3.08-1.4-4.88-4.28-4.88-2.6,0-4.4,1.84-4.4,4.68v11.39a.38.38,0,0,1-.4.4H61a.38.38,0,0,1-.4-.4V275.24a.38.38,0,0,1,.4-.4h2.56a.38.38,0,0,1,.4.4V277h0a6.06,6.06,0,0,1,5.36-2.6c4.16,0,6.64,2.84,6.64,7.2v12a.38.38,0,0,1-.4.4Z"/><path d="M84.68,294.2c-3.72,0-5.16-1.69-5.16-5.44v-11a.21.21,0,0,0-.24-.24h-1.6a.38.38,0,0,1-.4-.4v-1.92a.38.38,0,0,1,.4-.4h1.6a.21.21,0,0,0,.24-.24v-5.4a.38.38,0,0,1,.4-.4h2.56a.38.38,0,0,1,.4.4v5.4a.21.21,0,0,0,.24.24h3a.38.38,0,0,1,.4.4v1.92a.38.38,0,0,1-.4.4h-3a.21.21,0,0,0-.24.24v10.84c0,1.91.72,2.44,2.44,2.44h.84a.37.37,0,0,1,.4.39v2.32a.38.38,0,0,1-.4.41Z"/><path d="M89,294a.38.38,0,0,1-.4-.4V275.24a.38.38,0,0,1,.4-.4h2.56a.38.38,0,0,1,.4.4v2h0A5.34,5.34,0,0,1,97,274.4a5.89,5.89,0,0,1,3.92,1.44c.2.2.24.36.08.56l-1.48,2a.36.36,0,0,1-.56.08,5.4,5.4,0,0,0-3-.92c-2.92,0-4.12,2.28-4.12,5.6v10.47a.38.38,0,0,1-.4.4Z"/><path d="M112.4,294a.38.38,0,0,1-.4-.4v-1.67h0c-.88,1.43-2.76,2.51-5.68,2.51-3.64,0-6.44-1.88-6.44-5.75,0-4,2.8-5.92,7.48-5.92h4.36a.21.21,0,0,0,.24-.24v-1.4c0-2.64-1-3.76-4.6-3.76a7.45,7.45,0,0,0-4.64,1.36c-.2.16-.44.16-.56,0L101,276.84a.42.42,0,0,1,.08-.56,10.63,10.63,0,0,1,6.52-1.88c5.44,0,7.52,1.8,7.52,6.52v12.67a.38.38,0,0,1-.4.4Zm-.48-6.19v-2.12a.21.21,0,0,0-.24-.24h-3.84c-3.32,0-4.76,1-4.76,3.12,0,2,1.44,3,4,3C110.08,291.55,111.92,290.16,111.92,287.8Z"/><path d="M117,291.55a.38.38,0,0,1,0-.55l1.64-1.76a.39.39,0,0,1,.56,0,9.36,9.36,0,0,0,5.92,2.2c2.8,0,4.2-1.2,4.2-2.92,0-1.52-.72-2.36-3.72-2.68l-2-.2c-3.76-.4-5.72-2.28-5.72-5.4,0-3.64,2.6-5.84,7.12-5.84a11.46,11.46,0,0,1,6.8,2.12.39.39,0,0,1,.08.56l-1.36,1.72a.39.39,0,0,1-.56.08,10.09,10.09,0,0,0-5.16-1.56c-2.4,0-3.64,1.08-3.64,2.64s.92,2.32,3.76,2.6l2,.2c3.88.36,5.76,2.32,5.76,5.4,0,3.76-2.72,6.27-7.72,6.27A11.86,11.86,0,0,1,117,291.55Z"/><path d="M153.2,294a.38.38,0,0,1-.4-.4v-1.8h0a5.84,5.84,0,0,1-5.24,2.64c-4.2,0-6.64-2.88-6.64-7.23v-12a.38.38,0,0,1,.4-.4h2.56a.38.38,0,0,1,.4.4V286.4c0,3.12,1.4,4.91,4.24,4.91,2.6,0,4.32-1.83,4.32-4.71V275.24a.38.38,0,0,1,.4-.4h2.56a.38.38,0,0,1,.4.4v18.35a.38.38,0,0,1-.4.4Z"/><path d="M158.2,291.55a.38.38,0,0,1,0-.55l1.64-1.76a.39.39,0,0,1,.56,0,9.36,9.36,0,0,0,5.92,2.2c2.8,0,4.2-1.2,4.2-2.92,0-1.52-.72-2.36-3.72-2.68l-2-.2c-3.76-.4-5.72-2.28-5.72-5.4,0-3.64,2.6-5.84,7.12-5.84a11.46,11.46,0,0,1,6.8,2.12.39.39,0,0,1,.08.56l-1.36,1.72a.39.39,0,0,1-.56.08,10.09,10.09,0,0,0-5.16-1.56c-2.4,0-3.64,1.08-3.64,2.64s.92,2.32,3.76,2.6l2,.2c3.88.36,5.76,2.32,5.76,5.4,0,3.76-2.72,6.27-7.72,6.27A11.86,11.86,0,0,1,158.2,291.55Z"/><path d="M187.52,294a.38.38,0,0,1-.4-.4v-1.67h0c-.88,1.43-2.76,2.51-5.68,2.51-3.64,0-6.44-1.88-6.44-5.75,0-4,2.8-5.92,7.48-5.92h4.36a.21.21,0,0,0,.24-.24v-1.4c0-2.64-1-3.76-4.6-3.76a7.45,7.45,0,0,0-4.64,1.36c-.2.16-.44.16-.56,0l-1.08-1.84a.42.42,0,0,1,.08-.56,10.63,10.63,0,0,1,6.52-1.88c5.44,0,7.51,1.8,7.51,6.52v12.67a.38.38,0,0,1-.39.4ZM187,287.8v-2.12a.21.21,0,0,0-.24-.24H183c-3.32,0-4.76,1-4.76,3.12,0,2,1.44,3,4,3C185.2,291.55,187,290.16,187,287.8Z"/><path d="M211.87,294a.38.38,0,0,1-.4-.4v-1.84h0c-.92,1.53-2.55,2.68-5.43,2.68-3.32,0-5.64-1.55-6.6-4.59a21.94,21.94,0,0,1,0-10.84c1-3,3.28-4.6,6.6-4.6,2.88,0,4.51,1.12,5.43,2.64h0V267.2a.38.38,0,0,1,.4-.4h2.56a.38.38,0,0,1,.4.4v26.39a.38.38,0,0,1-.4.4ZM211,288.4a12.31,12.31,0,0,0,.44-4,12.47,12.47,0,0,0-.44-4,4.52,4.52,0,0,0-8.43,0,13.63,13.63,0,0,0-.44,4,13.29,13.29,0,0,0,.44,4,4.51,4.51,0,0,0,8.43,0Z"/><path d="M218.52,270.52a.38.38,0,0,1-.4-.4V267.2a.38.38,0,0,1,.4-.4h2.72a.38.38,0,0,1,.4.4v2.92a.38.38,0,0,1-.4.4ZM218.6,294a.38.38,0,0,1-.4-.4V275.24a.38.38,0,0,1,.4-.4h2.56a.38.38,0,0,1,.4.4v18.35a.38.38,0,0,1-.4.4Z"/><path d="M224.36,279.56c1.08-3.32,3.88-5.16,7.55-5.16a7.68,7.68,0,0,1,6.56,3.24c.12.2.12.36-.12.56l-1.76,1.44a.36.36,0,0,1-.56,0,4.71,4.71,0,0,0-4.12-2.08,4.14,4.14,0,0,0-4.27,3,17.5,17.5,0,0,0,0,7.8,4.13,4.13,0,0,0,4.27,3,4.73,4.73,0,0,0,4.12-2.07.36.36,0,0,1,.56,0l1.76,1.43a.39.39,0,0,1,.12.57,7.67,7.67,0,0,1-6.56,3.23c-3.67,0-6.47-1.84-7.55-5.15a20,20,0,0,1,0-9.72Z"/><path d="M253,294a.38.38,0,0,1-.4-.4V282.4c0-3.08-1.4-4.88-4.28-4.88-2.6,0-4.4,1.84-4.4,4.68v11.39a.38.38,0,0,1-.4.4H241a.38.38,0,0,1-.4-.4V267.2a.38.38,0,0,1,.4-.4h2.56a.38.38,0,0,1,.4.4V277h0a6.06,6.06,0,0,1,5.36-2.6c4.16,0,6.64,2.84,6.64,7.2v12a.38.38,0,0,1-.4.4Z"/><path d="M258.64,289.28a18.77,18.77,0,0,1,0-9.72c1-3.28,3.83-5.16,7.55-5.16s6.52,1.88,7.56,5.16a18.77,18.77,0,0,1,0,9.72c-1,3.23-3.84,5.15-7.56,5.15S259.67,292.51,258.64,289.28Zm11.87-1a12.55,12.55,0,0,0,.44-3.92,12.27,12.27,0,0,0-.44-3.88,4.61,4.61,0,0,0-8.64,0,12.27,12.27,0,0,0-.44,3.88,12.55,12.55,0,0,0,.44,3.92,4.62,4.62,0,0,0,8.64,0Z"/><path d="M275.27,291.55a.38.38,0,0,1,0-.55l1.64-1.76a.39.39,0,0,1,.56,0,9.36,9.36,0,0,0,5.92,2.2c2.8,0,4.2-1.2,4.2-2.92,0-1.52-.72-2.36-3.72-2.68l-2-.2c-3.76-.4-5.72-2.28-5.72-5.4,0-3.64,2.6-5.84,7.12-5.84a11.46,11.46,0,0,1,6.8,2.12.39.39,0,0,1,.08.56l-1.36,1.72a.39.39,0,0,1-.56.08,10.09,10.09,0,0,0-5.16-1.56c-2.4,0-3.64,1.08-3.64,2.64s.92,2.32,3.76,2.6l2,.2c3.88.36,5.76,2.32,5.76,5.4,0,3.76-2.72,6.27-7.72,6.27A11.86,11.86,0,0,1,275.27,291.55Z"/><path d="M311.39,294a.38.38,0,0,1-.4-.4v-1.84h0c-.92,1.53-2.56,2.68-5.44,2.68-3.32,0-5.64-1.55-6.6-4.59a21.94,21.94,0,0,1,0-10.84c1-3,3.28-4.6,6.6-4.6,2.88,0,4.52,1.12,5.44,2.64h0V267.2a.38.38,0,0,1,.4-.4H314a.38.38,0,0,1,.4.4v26.39a.38.38,0,0,1-.4.4Zm-.84-5.59a12.31,12.31,0,0,0,.44-4,12.47,12.47,0,0,0-.44-4,4.53,4.53,0,0,0-8.44,0,13.63,13.63,0,0,0-.44,4,13.29,13.29,0,0,0,.44,4,4.51,4.51,0,0,0,8.44,0Z"/><path d="M318,270.52a.38.38,0,0,1-.4-.4V267.2a.38.38,0,0,1,.4-.4h2.72a.38.38,0,0,1,.4.4v2.92a.38.38,0,0,1-.4.4Zm.08,23.47a.38.38,0,0,1-.4-.4V275.24a.38.38,0,0,1,.4-.4h2.56a.38.38,0,0,1,.4.4v18.35a.38.38,0,0,1-.4.4Z"/><path d="M323.11,291.55a.38.38,0,0,1,0-.55l1.64-1.76a.39.39,0,0,1,.56,0,9.36,9.36,0,0,0,5.92,2.2c2.8,0,4.2-1.2,4.2-2.92,0-1.52-.72-2.36-3.72-2.68l-2-.2c-3.76-.4-5.72-2.28-5.72-5.4,0-3.64,2.6-5.84,7.12-5.84a11.46,11.46,0,0,1,6.8,2.12.39.39,0,0,1,.08.56l-1.36,1.72a.39.39,0,0,1-.56.08,10.09,10.09,0,0,0-5.16-1.56c-2.4,0-3.64,1.08-3.64,2.64s.92,2.32,3.76,2.6l2,.2c3.88.36,5.76,2.32,5.76,5.4,0,3.76-2.72,6.27-7.72,6.27A11.86,11.86,0,0,1,323.11,291.55Z"/><path d="M341.23,301.19a.38.38,0,0,1-.4-.4V275.24a.38.38,0,0,1,.4-.4h2.56a.38.38,0,0,1,.4.4V277h0c.92-1.52,2.56-2.64,5.44-2.64,3.32,0,5.64,1.56,6.6,4.6a21.94,21.94,0,0,1,0,10.84c-1,3-3.28,4.59-6.6,4.59-2.88,0-4.52-1.15-5.44-2.68h0v9a.38.38,0,0,1-.4.4Zm11.84-12.79a13.29,13.29,0,0,0,.44-4,13.63,13.63,0,0,0-.44-4,4.53,4.53,0,0,0-8.44,0,12.47,12.47,0,0,0-.44,4,12.31,12.31,0,0,0,.44,4,4.51,4.51,0,0,0,8.44,0Z"/><path d="M358.63,289.28a18.77,18.77,0,0,1,0-9.72c1-3.28,3.84-5.16,7.56-5.16s6.52,1.88,7.56,5.16a18.77,18.77,0,0,1,0,9.72c-1,3.23-3.84,5.15-7.56,5.15S359.67,292.51,358.63,289.28Zm11.88-1a12.55,12.55,0,0,0,.44-3.92,12.27,12.27,0,0,0-.44-3.88,4.61,4.61,0,0,0-8.64,0,12.27,12.27,0,0,0-.44,3.88,12.55,12.55,0,0,0,.44,3.92,4.62,4.62,0,0,0,8.64,0Z"/><path d="M375.27,291.55a.38.38,0,0,1,0-.55l1.64-1.76a.39.39,0,0,1,.56,0,9.36,9.36,0,0,0,5.92,2.2c2.8,0,4.2-1.2,4.2-2.92,0-1.52-.72-2.36-3.72-2.68l-2-.2c-3.76-.4-5.72-2.28-5.72-5.4,0-3.64,2.6-5.84,7.12-5.84a11.46,11.46,0,0,1,6.8,2.12.39.39,0,0,1,.08.56l-1.36,1.72a.39.39,0,0,1-.56.08,10.09,10.09,0,0,0-5.16-1.56c-2.4,0-3.64,1.08-3.64,2.64s.92,2.32,3.76,2.6l2,.2c3.88.36,5.76,2.32,5.76,5.4,0,3.76-2.72,6.27-7.72,6.27A11.86,11.86,0,0,1,375.27,291.55Z"/><path d="M393.31,270.52a.38.38,0,0,1-.4-.4V267.2a.38.38,0,0,1,.4-.4H396a.38.38,0,0,1,.4.4v2.92a.38.38,0,0,1-.4.4Zm.08,23.47a.38.38,0,0,1-.4-.4V275.24a.38.38,0,0,1,.4-.4H396a.38.38,0,0,1,.4.4v18.35a.38.38,0,0,1-.4.4Z"/><path d="M405.27,294.2c-3.72,0-5.16-1.69-5.16-5.44v-11a.21.21,0,0,0-.24-.24h-1.6a.38.38,0,0,1-.4-.4v-1.92a.38.38,0,0,1,.4-.4h1.6a.21.21,0,0,0,.24-.24v-5.4a.38.38,0,0,1,.4-.4h2.56a.38.38,0,0,1,.4.4v5.4a.21.21,0,0,0,.24.24h3a.38.38,0,0,1,.4.4v1.92a.38.38,0,0,1-.4.4h-3a.21.21,0,0,0-.24.24v10.84c0,1.91.72,2.44,2.44,2.44h.84a.37.37,0,0,1,.4.39v2.32a.38.38,0,0,1-.4.41Z"/><path d="M409.47,270.52a.38.38,0,0,1-.4-.4V267.2a.38.38,0,0,1,.4-.4h2.72a.38.38,0,0,1,.4.4v2.92a.38.38,0,0,1-.4.4Zm.08,23.47a.38.38,0,0,1-.4-.4V275.24a.38.38,0,0,1,.4-.4h2.56a.38.38,0,0,1,.4.4v18.35a.38.38,0,0,1-.4.4Z"/><path d="M421,294c-.28,0-.4-.16-.48-.4l-6.88-18.35c-.08-.24,0-.4.32-.4h2.76c.28,0,.4.12.52.4l5,13.76h.08l4.84-13.76a.47.47,0,0,1,.48-.4h2.72c.28,0,.4.16.32.4l-6.84,18.35a.52.52,0,0,1-.52.4Z"/><path d="M431.07,289.28a18.77,18.77,0,0,1,0-9.72c1-3.28,3.84-5.16,7.56-5.16s6.52,1.88,7.56,5.16a18.77,18.77,0,0,1,0,9.72c-1,3.23-3.84,5.15-7.56,5.15S432.11,292.51,431.07,289.28Zm11.88-1a12.55,12.55,0,0,0,.44-3.92,12.27,12.27,0,0,0-.44-3.88,4.61,4.61,0,0,0-8.64,0,12.27,12.27,0,0,0-.44,3.88,12.55,12.55,0,0,0,.44,3.92,4.62,4.62,0,0,0,8.64,0Z"/><path d="M447.71,291.55a.38.38,0,0,1,0-.55l1.64-1.76a.39.39,0,0,1,.56,0,9.36,9.36,0,0,0,5.92,2.2c2.8,0,4.2-1.2,4.2-2.92,0-1.52-.72-2.36-3.72-2.68l-2-.2c-3.76-.4-5.72-2.28-5.72-5.4,0-3.64,2.6-5.84,7.12-5.84a11.46,11.46,0,0,1,6.8,2.12.39.39,0,0,1,.08.56l-1.36,1.72a.39.39,0,0,1-.56.08,10.09,10.09,0,0,0-5.16-1.56c-2.4,0-3.64,1.08-3.64,2.64s.92,2.32,3.76,2.6l2,.2c3.88.36,5.76,2.32,5.76,5.4,0,3.76-2.72,6.27-7.72,6.27A11.86,11.86,0,0,1,447.71,291.55Z"/><path d="M465.35,289.76h2.8a.38.38,0,0,1,.4.4v3.72a1.26,1.26,0,0,1-.24.87L465.83,298a.63.63,0,0,1-.52.28A.36.36,0,0,1,465,298v-7.79A.38.38,0,0,1,465.35,289.76Z"/><path d="M3.56,339.19a.38.38,0,0,1-.4-.4V313.24a.38.38,0,0,1,.4-.4H6.12a.38.38,0,0,1,.4.4V315h0c.92-1.52,2.56-2.64,5.44-2.64,3.32,0,5.64,1.56,6.6,4.6a15.84,15.84,0,0,1,.68,5.4,16,16,0,0,1-.68,5.44c-1,3-3.28,4.59-6.6,4.59-2.88,0-4.52-1.15-5.44-2.68h0v9a.38.38,0,0,1-.4.4ZM15.4,326.4a13.29,13.29,0,0,0,.44-4,13.63,13.63,0,0,0-.44-4,4.07,4.07,0,0,0-4.2-2.88A4.07,4.07,0,0,0,7,318.4a12.47,12.47,0,0,0-.44,4,12.31,12.31,0,0,0,.44,4,4.09,4.09,0,0,0,4.24,2.91A4.09,4.09,0,0,0,15.4,326.4Z"/><path d="M22.56,327.28a18.77,18.77,0,0,1,0-9.72c1-3.28,3.84-5.16,7.56-5.16s6.52,1.88,7.56,5.16a18.77,18.77,0,0,1,0,9.72c-1,3.23-3.84,5.15-7.56,5.15S23.6,330.51,22.56,327.28Zm11.88-1a12.55,12.55,0,0,0,.44-3.92,12.27,12.27,0,0,0-.44-3.88,4.26,4.26,0,0,0-4.32-3,4.26,4.26,0,0,0-4.32,3,12.27,12.27,0,0,0-.44,3.88,12.55,12.55,0,0,0,.44,3.92,4.25,4.25,0,0,0,4.32,3A4.25,4.25,0,0,0,34.44,326.32Z"/><path d="M54.56,332a.38.38,0,0,1-.4-.4V320.4c0-3.08-1.4-4.88-4.28-4.88-2.6,0-4.4,1.84-4.4,4.68v11.39a.38.38,0,0,1-.4.4H42.52a.38.38,0,0,1-.4-.4V313.24a.38.38,0,0,1,.4-.4h2.56a.38.38,0,0,1,.4.4V315h0a6.06,6.06,0,0,1,5.36-2.6c4.16,0,6.64,2.84,6.64,7.2v12a.38.38,0,0,1-.4.4Z"/><path d="M61.88,336.79a.36.36,0,0,1,0-.56l1.64-1.64a.38.38,0,0,1,.6,0,6.39,6.39,0,0,0,4.52,1.92c3.16,0,4.84-1.64,4.84-5.16v-2.23h0c-.88,1.59-2.52,2.63-5.32,2.63a6.27,6.27,0,0,1-6.44-4.63,20.16,20.16,0,0,1,0-10.08,6.28,6.28,0,0,1,6.44-4.64c2.8,0,4.44,1,5.32,2.64h0v-1.8a.38.38,0,0,1,.4-.4h2.56a.38.38,0,0,1,.4.4v17.91c0,5.44-3,8.48-8.36,8.48A8.66,8.66,0,0,1,61.88,336.79Zm11.2-11a11.65,11.65,0,0,0,.44-3.72,11.81,11.81,0,0,0-.44-3.72,4.32,4.32,0,0,0-8.12,0,12,12,0,0,0-.48,3.72A11.83,11.83,0,0,0,65,325.8a3.91,3.91,0,0,0,4,2.88A4,4,0,0,0,73.08,325.8Z"/><path d="M93.44,332a.38.38,0,0,1-.4-.4v-1.67h0c-.88,1.43-2.76,2.51-5.68,2.51-3.64,0-6.44-1.88-6.44-5.75,0-4,2.8-5.92,7.48-5.92h4.36a.21.21,0,0,0,.24-.24v-1.4c0-2.64-1-3.76-4.6-3.76a7.45,7.45,0,0,0-4.64,1.36c-.2.16-.44.16-.56,0l-1.08-1.84a.42.42,0,0,1,.08-.56,10.63,10.63,0,0,1,6.52-1.88c5.44,0,7.52,1.8,7.52,6.52v12.67a.38.38,0,0,1-.4.4ZM93,325.8v-2.12a.21.21,0,0,0-.24-.24H88.88c-3.32,0-4.76,1-4.76,3.12,0,2,1.44,3,4,3C91.12,329.55,93,328.16,93,325.8Z"/><path d="M114.56,332.2c-3.72,0-5.16-1.69-5.16-5.44v-11a.21.21,0,0,0-.24-.24h-1.6a.38.38,0,0,1-.4-.4v-1.92a.38.38,0,0,1,.4-.4h1.6a.21.21,0,0,0,.24-.24v-5.4a.38.38,0,0,1,.4-.4h2.56a.38.38,0,0,1,.4.4v5.4a.21.21,0,0,0,.24.24h3a.38.38,0,0,1,.4.4v1.92a.38.38,0,0,1-.4.4h-3a.21.21,0,0,0-.24.24v10.84c0,1.91.72,2.44,2.44,2.44H116a.37.37,0,0,1,.4.39v2.32a.38.38,0,0,1-.4.41Z"/><path d="M119.52,327.28a18.77,18.77,0,0,1,0-9.72c1-3.28,3.84-5.16,7.56-5.16s6.52,1.88,7.56,5.16a18.77,18.77,0,0,1,0,9.72c-1,3.23-3.84,5.15-7.56,5.15S120.56,330.51,119.52,327.28Zm11.88-1a12.55,12.55,0,0,0,.44-3.92,12.27,12.27,0,0,0-.44-3.88,4.61,4.61,0,0,0-8.64,0,12.27,12.27,0,0,0-.44,3.88,12.55,12.55,0,0,0,.44,3.92,4.62,4.62,0,0,0,8.64,0Z"/><path d="M144.64,332.2c-3.72,0-5.16-1.69-5.16-5.44v-11a.21.21,0,0,0-.24-.24h-1.6a.38.38,0,0,1-.4-.4v-1.92a.38.38,0,0,1,.4-.4h1.6a.21.21,0,0,0,.24-.24v-5.4a.38.38,0,0,1,.4-.4h2.56a.38.38,0,0,1,.4.4v5.4a.21.21,0,0,0,.24.24h3a.38.38,0,0,1,.4.4v1.92a.38.38,0,0,1-.4.4h-3a.21.21,0,0,0-.24.24v10.84c0,1.91.72,2.44,2.44,2.44h.84a.37.37,0,0,1,.4.39v2.32a.38.38,0,0,1-.4.41Z"/><path d="M161.72,332a.38.38,0,0,1-.4-.4v-1.67h0c-.88,1.43-2.76,2.51-5.68,2.51-3.64,0-6.44-1.88-6.44-5.75,0-4,2.8-5.92,7.48-5.92H161a.21.21,0,0,0,.24-.24v-1.4c0-2.64-1-3.76-4.6-3.76a7.45,7.45,0,0,0-4.64,1.36c-.2.16-.44.16-.56,0l-1.08-1.84a.42.42,0,0,1,.08-.56A10.63,10.63,0,0,1,157,312.4c5.44,0,7.52,1.8,7.52,6.52v12.67a.38.38,0,0,1-.4.4Zm-.48-6.19v-2.12a.21.21,0,0,0-.24-.24h-3.84c-3.32,0-4.76,1-4.76,3.12,0,2,1.44,3,4,3C159.4,329.55,161.24,328.16,161.24,325.8Z"/><path d="M173.88,332.2c-3.36,0-4.68-1.61-4.68-5v-22a.38.38,0,0,1,.4-.4h2.56a.38.38,0,0,1,.4.4V327c0,1.59.6,2.12,1.92,2.12h.76a.37.37,0,0,1,.4.39v2.32a.38.38,0,0,1-.4.41Z"/><path d="M198.35,332a.38.38,0,0,1-.4-.4v-1.67h0c-.88,1.43-2.75,2.51-5.67,2.51-3.64,0-6.44-1.88-6.44-5.75,0-4,2.8-5.92,7.48-5.92h4.35a.21.21,0,0,0,.24-.24v-1.4c0-2.64-1-3.76-4.59-3.76a7.45,7.45,0,0,0-4.64,1.36c-.2.16-.44.16-.56,0L187,314.84a.42.42,0,0,1,.08-.56,10.63,10.63,0,0,1,6.52-1.88c5.43,0,7.51,1.8,7.51,6.52v12.67a.38.38,0,0,1-.4.4Zm-.48-6.19v-2.12a.21.21,0,0,0-.24-.24H193.8c-3.32,0-4.76,1-4.76,3.12,0,2,1.44,3,4,3C196,329.55,197.87,328.16,197.87,325.8Z"/><path d="M211.48,332.2c-3.72,0-5.16-1.69-5.16-5.44v-11a.21.21,0,0,0-.24-.24h-1.6a.38.38,0,0,1-.4-.4v-1.92a.38.38,0,0,1,.4-.4h1.6a.21.21,0,0,0,.24-.24v-5.4a.38.38,0,0,1,.4-.4h2.56a.38.38,0,0,1,.4.4v5.4a.21.21,0,0,0,.24.24h3a.38.38,0,0,1,.4.4v1.92a.38.38,0,0,1-.4.4h-3a.21.21,0,0,0-.24.24v10.84c0,1.91.72,2.44,2.44,2.44H213a.37.37,0,0,1,.4.39v2.32a.38.38,0,0,1-.4.41Z"/><path d="M216.44,327.24a15,15,0,0,1-.64-4.84,14.86,14.86,0,0,1,.6-4.84c1.08-3.32,3.88-5.16,7.52-5.16a7.42,7.42,0,0,1,7.51,5.16A16.72,16.72,0,0,1,232,323a.39.39,0,0,1-.44.4H219.48a.21.21,0,0,0-.24.24,7.18,7.18,0,0,0,.32,2.32,4.72,4.72,0,0,0,4.84,3.31,6.28,6.28,0,0,0,4.91-2.11.41.41,0,0,1,.6-.08l1.64,1.48a.36.36,0,0,1,0,.56,9.33,9.33,0,0,1-7.47,3.27C220.24,332.43,217.48,330.55,216.44,327.24Zm11.91-6.48a.21.21,0,0,0,.24-.24,6.74,6.74,0,0,0-.28-2.16,4.72,4.72,0,0,0-8.79,0,6.74,6.74,0,0,0-.28,2.16.21.21,0,0,0,.24.24Z"/><path d="M248.27,332a.38.38,0,0,1-.4-.4V320.4c0-3.08-1.4-4.88-4.28-4.88-2.6,0-4.4,1.84-4.4,4.68v11.39a.37.37,0,0,1-.4.4h-2.55a.38.38,0,0,1-.4-.4V313.24a.38.38,0,0,1,.4-.4h2.55a.37.37,0,0,1,.4.4V315h0a6.06,6.06,0,0,1,5.36-2.6c4.16,0,6.64,2.84,6.64,7.2v12a.38.38,0,0,1-.4.4Z"/><path d="M255.44,317.56c1.08-3.32,3.87-5.16,7.55-5.16a7.68,7.68,0,0,1,6.56,3.24c.12.2.12.36-.12.56l-1.76,1.44a.36.36,0,0,1-.56,0,4.71,4.71,0,0,0-4.12-2.08,4.16,4.16,0,0,0-4.28,3,17.5,17.5,0,0,0,0,7.8,4.15,4.15,0,0,0,4.28,3,4.73,4.73,0,0,0,4.12-2.07.36.36,0,0,1,.56,0l1.76,1.43a.39.39,0,0,1,.12.57,7.67,7.67,0,0,1-6.56,3.23c-3.68,0-6.47-1.84-7.55-5.15a20,20,0,0,1,0-9.72Z"/><path d="M273.59,308.52a.38.38,0,0,1-.4-.4V305.2a.38.38,0,0,1,.4-.4h2.72a.38.38,0,0,1,.4.4v2.92a.38.38,0,0,1-.4.4Zm.08,23.47a.38.38,0,0,1-.4-.4V313.24a.38.38,0,0,1,.4-.4h2.56a.38.38,0,0,1,.4.4v18.35a.38.38,0,0,1-.4.4Z"/><path d="M281.07,327.28a18.77,18.77,0,0,1,0-9.72c1-3.28,3.84-5.16,7.56-5.16s6.52,1.88,7.56,5.16a18.77,18.77,0,0,1,0,9.72c-1,3.23-3.84,5.15-7.56,5.15S282.11,330.51,281.07,327.28Zm11.88-1a12.55,12.55,0,0,0,.44-3.92,12.27,12.27,0,0,0-.44-3.88,4.61,4.61,0,0,0-8.64,0,12.27,12.27,0,0,0-.44,3.88,12.55,12.55,0,0,0,.44,3.92,4.62,4.62,0,0,0,8.64,0Zm-5.76-16.6c-.24,0-.36-.16-.24-.4l3-4.92a.7.7,0,0,1,.68-.4h2.64c.24,0,.36.2.2.4l-3.68,4.92a.79.79,0,0,1-.76.4Z"/><path d="M313.07,332a.38.38,0,0,1-.4-.4V320.4c0-3.08-1.4-4.88-4.28-4.88-2.6,0-4.4,1.84-4.4,4.68v11.39a.38.38,0,0,1-.4.4H301a.38.38,0,0,1-.4-.4V313.24a.38.38,0,0,1,.4-.4h2.56a.38.38,0,0,1,.4.4V315h0a6.06,6.06,0,0,1,5.36-2.6c4.16,0,6.64,2.84,6.64,7.2v12a.38.38,0,0,1-.4.4Z"/><path d="M340.39,332a.38.38,0,0,1-.4-.4v-1.67h0c-.88,1.43-2.76,2.51-5.68,2.51-3.64,0-6.44-1.88-6.44-5.75,0-4,2.8-5.92,7.48-5.92h4.36a.21.21,0,0,0,.24-.24v-1.4c0-2.64-1-3.76-4.6-3.76a7.45,7.45,0,0,0-4.64,1.36c-.2.16-.44.16-.56,0L329,314.84a.42.42,0,0,1,.08-.56,10.63,10.63,0,0,1,6.52-1.88c5.44,0,7.52,1.8,7.52,6.52v12.67a.38.38,0,0,1-.4.4Zm-.48-6.19v-2.12a.21.21,0,0,0-.24-.24h-3.84c-3.32,0-4.76,1-4.76,3.12,0,2,1.44,3,4,3C338.07,329.55,339.91,328.16,339.91,325.8Z"/><path d="M360.55,332.2c-3.36,0-4.68-1.61-4.68-5v-22a.38.38,0,0,1,.4-.4h2.56a.38.38,0,0,1,.4.4V327c0,1.59.6,2.12,1.92,2.12h.76a.37.37,0,0,1,.4.39v2.32a.38.38,0,0,1-.4.41Z"/><path d="M377,332a.38.38,0,0,1-.4-.4v-1.67h0c-.88,1.43-2.76,2.51-5.68,2.51-3.64,0-6.44-1.88-6.44-5.75,0-4,2.8-5.92,7.48-5.92h4.36a.21.21,0,0,0,.24-.24v-1.4c0-2.64-1-3.76-4.6-3.76a7.45,7.45,0,0,0-4.64,1.36c-.2.16-.44.16-.56,0l-1.08-1.84a.42.42,0,0,1,.08-.56,10.63,10.63,0,0,1,6.52-1.88c5.44,0,7.52,1.8,7.52,6.52v12.67a.38.38,0,0,1-.4.4Zm-.48-6.19v-2.12a.21.21,0,0,0-.24-.24h-3.84c-3.32,0-4.76,1-4.76,3.12,0,2,1.44,3,4,3C374.71,329.55,376.55,328.16,376.55,325.8Z"/><path d="M397.19,332.2c-3.36,0-4.68-1.61-4.68-5v-22a.38.38,0,0,1,.4-.4h2.56a.38.38,0,0,1,.4.4V327c0,1.59.6,2.12,1.92,2.12h.76a.37.37,0,0,1,.4.39v2.32a.38.38,0,0,1-.4.41Z"/><path d="M413.67,332a.38.38,0,0,1-.4-.4v-1.67h0c-.88,1.43-2.76,2.51-5.68,2.51-3.64,0-6.44-1.88-6.44-5.75,0-4,2.8-5.92,7.48-5.92H413a.21.21,0,0,0,.24-.24v-1.4c0-2.64-1-3.76-4.6-3.76a7.45,7.45,0,0,0-4.64,1.36c-.2.16-.44.16-.56,0l-1.08-1.84a.42.42,0,0,1,.08-.56,10.63,10.63,0,0,1,6.52-1.88c5.44,0,7.52,1.8,7.52,6.52v12.67a.38.38,0,0,1-.4.4Zm-.48-6.19v-2.12a.21.21,0,0,0-.24-.24h-3.84c-3.32,0-4.76,1-4.76,3.12,0,2,1.44,3,4,3C411.35,329.55,413.19,328.16,413.19,325.8Z"/><path d="M421.63,332a.38.38,0,0,1-.4-.4V305.2a.38.38,0,0,1,.4-.4h2.56a.38.38,0,0,1,.4.4V315h0c.92-1.52,2.56-2.64,5.44-2.64,3.32,0,5.64,1.56,6.6,4.6a21.94,21.94,0,0,1,0,10.84c-1,3-3.28,4.59-6.6,4.59-2.88,0-4.52-1.15-5.44-2.68h0v1.84a.38.38,0,0,1-.4.4Zm11.84-5.59a13.29,13.29,0,0,0,.44-4,13.63,13.63,0,0,0-.44-4,4.53,4.53,0,0,0-8.44,0,12.47,12.47,0,0,0-.44,4,12.31,12.31,0,0,0,.44,4,4.51,4.51,0,0,0,8.44,0Z"/><path d="M440.63,327.28a18.77,18.77,0,0,1,0-9.72c1-3.28,3.84-5.16,7.56-5.16s6.52,1.88,7.56,5.16a18.77,18.77,0,0,1,0,9.72c-1,3.23-3.84,5.15-7.56,5.15S441.67,330.51,440.63,327.28Zm11.88-1a12.55,12.55,0,0,0,.44-3.92,12.27,12.27,0,0,0-.44-3.88,4.61,4.61,0,0,0-8.64,0,12.27,12.27,0,0,0-.44,3.88,12.55,12.55,0,0,0,.44,3.92,4.62,4.62,0,0,0,8.64,0Z"/><path d="M460.59,332a.38.38,0,0,1-.4-.4V313.24a.38.38,0,0,1,.4-.4h2.56a.38.38,0,0,1,.4.4v2h0a5.34,5.34,0,0,1,5.08-2.8,5.89,5.89,0,0,1,3.92,1.44c.2.2.24.36.08.56l-1.48,2a.36.36,0,0,1-.56.08,5.4,5.4,0,0,0-3-.92c-2.92,0-4.12,2.28-4.12,5.6v10.47a.38.38,0,0,1-.4.4Z"/><path d="M93.82,377.19a.38.38,0,0,1-.4-.4v-9h0c-.92,1.53-2.56,2.68-5.44,2.68-3.32,0-5.64-1.55-6.6-4.59a21.94,21.94,0,0,1,0-10.84c1-3,3.28-4.6,6.6-4.6,2.88,0,4.52,1.12,5.44,2.64h0v-1.8a.38.38,0,0,1,.4-.4h2.56a.38.38,0,0,1,.4.4v25.55a.38.38,0,0,1-.4.4ZM93,364.4a12.31,12.31,0,0,0,.44-4,12.47,12.47,0,0,0-.44-4,4.53,4.53,0,0,0-8.44,0,13.63,13.63,0,0,0-.44,4,13.29,13.29,0,0,0,.44,4,4.51,4.51,0,0,0,8.44,0Z"/><path d="M113.78,370a.38.38,0,0,1-.4-.4v-1.8h0a5.84,5.84,0,0,1-5.24,2.64c-4.2,0-6.64-2.88-6.64-7.23v-12a.38.38,0,0,1,.4-.4h2.56a.38.38,0,0,1,.4.4V362.4c0,3.12,1.4,4.91,4.24,4.91,2.6,0,4.32-1.83,4.32-4.71V351.24a.38.38,0,0,1,.4-.4h2.56a.38.38,0,0,1,.4.4v18.35a.38.38,0,0,1-.4.4Z"/><path d="M121.18,365.24a15,15,0,0,1-.64-4.84,14.86,14.86,0,0,1,.6-4.84c1.08-3.32,3.88-5.16,7.52-5.16a7.42,7.42,0,0,1,7.52,5.16,16.72,16.72,0,0,1,.6,5.48.39.39,0,0,1-.44.4H124.22a.21.21,0,0,0-.24.24,7.18,7.18,0,0,0,.32,2.32,4.72,4.72,0,0,0,4.84,3.31,6.29,6.29,0,0,0,4.92-2.11.41.41,0,0,1,.6-.08l1.64,1.48a.36.36,0,0,1,0,.56,9.34,9.34,0,0,1-7.48,3.27C125,370.43,122.22,368.55,121.18,365.24Zm11.92-6.48a.21.21,0,0,0,.24-.24,6.74,6.74,0,0,0-.28-2.16,4.73,4.73,0,0,0-8.8,0,6.74,6.74,0,0,0-.28,2.16.21.21,0,0,0,.24.24Z"/><path d="M148.06,365.24a15,15,0,0,1-.64-4.84,14.86,14.86,0,0,1,.6-4.84c1.08-3.32,3.88-5.16,7.52-5.16s6.44,1.88,7.51,5.16a16.72,16.72,0,0,1,.6,5.48.39.39,0,0,1-.44.4H151.1a.21.21,0,0,0-.24.24,7.18,7.18,0,0,0,.32,2.32,4.72,4.72,0,0,0,4.84,3.31,6.29,6.29,0,0,0,4.92-2.11.41.41,0,0,1,.6-.08l1.63,1.48a.35.35,0,0,1,0,.56,9.3,9.3,0,0,1-7.47,3.27C151.86,370.43,149.1,368.55,148.06,365.24ZM160,358.76a.21.21,0,0,0,.24-.24,6.74,6.74,0,0,0-.28-2.16,4.73,4.73,0,0,0-8.8,0,6.74,6.74,0,0,0-.28,2.16.21.21,0,0,0,.24.24Z"/><path d="M166.14,367.55a.38.38,0,0,1,0-.55l1.64-1.76a.39.39,0,0,1,.56,0,9.36,9.36,0,0,0,5.92,2.2c2.8,0,4.2-1.2,4.2-2.92,0-1.52-.73-2.36-3.72-2.68l-2-.2c-3.76-.4-5.72-2.28-5.72-5.4,0-3.64,2.6-5.84,7.12-5.84a11.43,11.43,0,0,1,6.79,2.12.39.39,0,0,1,.08.56l-1.36,1.72a.39.39,0,0,1-.56.08,10,10,0,0,0-5.15-1.56c-2.4,0-3.64,1.08-3.64,2.64s.92,2.32,3.76,2.6l2,.2c3.87.36,5.75,2.32,5.75,5.4,0,3.76-2.72,6.27-7.71,6.27A11.86,11.86,0,0,1,166.14,367.55Z"/><path d="M191,370.2c-3.72,0-5.16-1.69-5.16-5.44v-11a.21.21,0,0,0-.24-.24H184a.38.38,0,0,1-.4-.4v-1.92a.38.38,0,0,1,.4-.4h1.6a.21.21,0,0,0,.24-.24v-5.4a.38.38,0,0,1,.4-.4h2.56a.38.38,0,0,1,.4.4v5.4a.21.21,0,0,0,.24.24h3a.38.38,0,0,1,.4.4v1.92a.38.38,0,0,1-.4.4h-3a.21.21,0,0,0-.24.24v10.84c0,1.91.72,2.44,2.44,2.44h.84a.38.38,0,0,1,.4.39v2.32a.39.39,0,0,1-.4.41Z"/><path d="M208.09,370a.38.38,0,0,1-.4-.4v-1.67h0c-.88,1.43-2.76,2.51-5.68,2.51-3.63,0-6.43-1.88-6.43-5.75,0-4,2.8-5.92,7.47-5.92h4.36a.21.21,0,0,0,.24-.24v-1.4c0-2.64-1-3.76-4.6-3.76a7.42,7.42,0,0,0-4.63,1.36c-.2.16-.44.16-.56,0l-1.08-1.84a.42.42,0,0,1,.08-.56,10.62,10.62,0,0,1,6.51-1.88c5.44,0,7.52,1.8,7.52,6.52v12.67a.38.38,0,0,1-.4.4Zm-.48-6.19v-2.12a.21.21,0,0,0-.24-.24h-3.84c-3.31,0-4.75,1-4.75,3.12,0,2,1.44,3,4,3C205.77,367.55,207.61,366.16,207.61,363.8Zm-5.4-16.08c-.24,0-.36-.16-.24-.4l3-4.92a.7.7,0,0,1,.68-.4h2.64c.24,0,.36.2.2.4l-3.68,4.92a.79.79,0,0,1-.76.4Z"/><path d="M224.06,370a.38.38,0,0,1-.4-.4V351.24a.38.38,0,0,1,.4-.4h2.55a.38.38,0,0,1,.4.4v2h0a5.34,5.34,0,0,1,5.08-2.8,5.89,5.89,0,0,1,3.92,1.44c.2.2.24.36.08.56l-1.48,2a.36.36,0,0,1-.56.08,5.4,5.4,0,0,0-3-.92c-2.92,0-4.12,2.28-4.12,5.6v10.47a.38.38,0,0,1-.4.4Z"/><path d="M237.22,365.24a19.2,19.2,0,0,1,0-9.68c1.07-3.32,3.87-5.16,7.51-5.16a7.42,7.42,0,0,1,7.52,5.16,16.72,16.72,0,0,1,.6,5.48.39.39,0,0,1-.44.4H240.25a.21.21,0,0,0-.24.24,7.18,7.18,0,0,0,.32,2.32,4.72,4.72,0,0,0,4.84,3.31,6.29,6.29,0,0,0,4.92-2.11.41.41,0,0,1,.6-.08l1.64,1.48a.36.36,0,0,1,0,.56,9.34,9.34,0,0,1-7.48,3.27C241,370.43,238.25,368.55,237.22,365.24Zm11.91-6.48a.21.21,0,0,0,.24-.24,6.74,6.74,0,0,0-.28-2.16,4.73,4.73,0,0,0-8.8,0,6.74,6.74,0,0,0-.28,2.16.21.21,0,0,0,.24.24Z"/><path d="M268.21,370a.38.38,0,0,1-.4-.4v-1.67h0c-.88,1.43-2.76,2.51-5.68,2.51-3.64,0-6.44-1.88-6.44-5.75,0-4,2.8-5.92,7.48-5.92h4.36a.21.21,0,0,0,.24-.24v-1.4c0-2.64-1-3.76-4.6-3.76a7.45,7.45,0,0,0-4.64,1.36c-.2.16-.44.16-.56,0l-1.08-1.84a.42.42,0,0,1,.08-.56,10.63,10.63,0,0,1,6.52-1.88c5.44,0,7.52,1.8,7.52,6.52v12.67a.38.38,0,0,1-.4.4Zm-.48-6.19v-2.12a.21.21,0,0,0-.24-.24h-3.84c-3.32,0-4.76,1-4.76,3.12,0,2,1.44,3,4,3C265.89,367.55,267.73,366.16,267.73,363.8Z"/><path d="M280.37,370.2c-3.36,0-4.68-1.61-4.68-5v-22a.38.38,0,0,1,.4-.4h2.56a.38.38,0,0,1,.4.4V365c0,1.59.6,2.12,1.92,2.12h.76a.37.37,0,0,1,.4.39v2.32a.38.38,0,0,1-.4.41Z"/><path d="M285.57,346.52a.38.38,0,0,1-.4-.4V343.2a.38.38,0,0,1,.4-.4h2.72a.38.38,0,0,1,.4.4v2.92a.38.38,0,0,1-.4.4Zm.08,23.47a.38.38,0,0,1-.4-.4V351.24a.38.38,0,0,1,.4-.4h2.56a.38.38,0,0,1,.4.4v18.35a.38.38,0,0,1-.4.4Z"/><path d="M292.89,370a.38.38,0,0,1-.4-.4v-2.12a.58.58,0,0,1,.16-.43L303.17,354v-.08h-9.76a.38.38,0,0,1-.4-.4v-2.24a.38.38,0,0,1,.4-.4h13.36a.38.38,0,0,1,.4.4v2.24a.6.6,0,0,1-.16.44l-10.44,13V367h10.2a.38.38,0,0,1,.4.4v2.23a.38.38,0,0,1-.4.4Z"/><path d="M322.65,370a.38.38,0,0,1-.4-.4v-1.67h0c-.88,1.43-2.76,2.51-5.68,2.51-3.64,0-6.44-1.88-6.44-5.75,0-4,2.8-5.92,7.48-5.92h4.36a.21.21,0,0,0,.24-.24v-1.4c0-2.64-1-3.76-4.6-3.76a7.45,7.45,0,0,0-4.64,1.36c-.2.16-.44.16-.56,0l-1.08-1.84a.42.42,0,0,1,.08-.56,10.63,10.63,0,0,1,6.52-1.88c5.44,0,7.52,1.8,7.52,6.52v12.67a.38.38,0,0,1-.4.4Zm-.48-6.19v-2.12a.21.21,0,0,0-.24-.24h-3.84c-3.32,0-4.76,1-4.76,3.12,0,2,1.44,3,4,3C320.33,367.55,322.17,366.16,322.17,363.8Z"/><path d="M342.65,370a.38.38,0,0,1-.4-.4V358.4c0-3.08-1.4-4.88-4.28-4.88-2.6,0-4.4,1.84-4.4,4.68v11.39a.38.38,0,0,1-.4.4h-2.56a.38.38,0,0,1-.4-.4V351.24a.38.38,0,0,1,.4-.4h2.56a.38.38,0,0,1,.4.4V353h0a6.06,6.06,0,0,1,5.36-2.6c4.16,0,6.64,2.84,6.64,7.2v12a.38.38,0,0,1-.4.4Z"/><path d="M362.37,370a.38.38,0,0,1-.4-.4v-1.84h0c-.92,1.53-2.56,2.68-5.44,2.68-3.32,0-5.64-1.55-6.6-4.59a21.94,21.94,0,0,1,0-10.84c1-3,3.28-4.6,6.6-4.6,2.88,0,4.52,1.12,5.44,2.64h0V343.2a.38.38,0,0,1,.4-.4h2.56a.38.38,0,0,1,.4.4v26.39a.38.38,0,0,1-.4.4Zm-.84-5.59a12.31,12.31,0,0,0,.44-4,12.47,12.47,0,0,0-.44-4,4.53,4.53,0,0,0-8.44,0,13.63,13.63,0,0,0-.44,4,13.29,13.29,0,0,0,.44,4,4.51,4.51,0,0,0,8.44,0Z"/><path d="M369.77,365.28a18.77,18.77,0,0,1,0-9.72c1-3.28,3.84-5.16,7.56-5.16s6.52,1.88,7.56,5.16a18.77,18.77,0,0,1,0,9.72c-1,3.23-3.84,5.15-7.56,5.15S370.81,368.51,369.77,365.28Zm11.88-1a12.55,12.55,0,0,0,.44-3.92,12.27,12.27,0,0,0-.44-3.88,4.61,4.61,0,0,0-8.64,0,12.27,12.27,0,0,0-.44,3.88,12.55,12.55,0,0,0,.44,3.92,4.62,4.62,0,0,0,8.64,0Z"/><path d="M388.85,366.16a.38.38,0,0,1,.4-.4h3a.38.38,0,0,1,.4.4v3.43a.38.38,0,0,1-.4.4h-3a.38.38,0,0,1-.4-.4Z"/></g></g></svg>