<svg xmlns="http://www.w3.org/2000/svg" viewBox="0 0 677.81 214.87"><defs><style>.cls-1{fill:#4d4d4d;}</style></defs><title>r15</title><g id="Capa_2" data-name="Capa 2"><g id="control_vector" data-name="control vector"><path class="cls-1" d="M21.39.36c.07-.22.18-.36.43-.36h2.34a.47.47,0,0,1,.47.36L33,24.12c.07.21,0,.36-.25.36H30.24a.44.44,0,0,1-.47-.36L27.9,18.79H18l-1.87,5.33c-.11.25-.25.36-.47.36H13.14a.25.25,0,0,1-.25-.36Zm5.47,15.48L23,4.71h-.08L19.05,15.84Z"/><path class="cls-1" d="M40.18,24.66c-3,0-4.21-1.44-4.21-4.54V.36A.34.34,0,0,1,36.33,0h2.3A.34.34,0,0,1,39,.36V19.94c0,1.44.54,1.91,1.73,1.91h.68a.34.34,0,0,1,.36.36V24.3a.34.34,0,0,1-.36.36Z"/><path class="cls-1" d="M53.57,24.48a.34.34,0,0,1-.36-.36V7.59a.33.33,0,0,1,.36-.35h2.3a.33.33,0,0,1,.36.35V9.36h0a4.79,4.79,0,0,1,4.57-2.52,5.32,5.32,0,0,1,3.53,1.29c.18.18.21.33.07.51L63.11,10.4a.33.33,0,0,1-.51.07,4.86,4.86,0,0,0-2.66-.82c-2.63,0-3.71,2-3.71,5v9.43a.34.34,0,0,1-.36.36Z"/><path class="cls-1" d="M66.13,20.19a13.48,13.48,0,0,1-.57-4.35,13.43,13.43,0,0,1,.54-4.36,6.67,6.67,0,0,1,6.76-4.64,6.67,6.67,0,0,1,6.77,4.64,15.08,15.08,0,0,1,.54,4.93.35.35,0,0,1-.39.36H68.87a.2.2,0,0,0-.22.22,6.47,6.47,0,0,0,.29,2.09,4.27,4.27,0,0,0,4.36,3,5.61,5.61,0,0,0,4.42-1.91c.18-.18.36-.22.54-.08l1.48,1.34a.32.32,0,0,1,0,.5A8.39,8.39,0,0,1,73,24.87C69.55,24.87,67.07,23.18,66.13,20.19Zm10.73-5.83a.19.19,0,0,0,.22-.21,6.05,6.05,0,0,0-.26-2,4.25,4.25,0,0,0-7.91,0,5.79,5.79,0,0,0-.26,2c0,.14.07.21.22.21Z"/><path class="cls-1" d="M94.75,24.48a.35.35,0,0,1-.36-.36V22.61h0c-.8,1.29-2.49,2.26-5.12,2.26-3.27,0-5.79-1.69-5.79-5.18,0-3.64,2.52-5.33,6.73-5.33H94.1c.15,0,.22-.07.22-.21V12.89c0-2.38-.94-3.39-4.14-3.39A6.73,6.73,0,0,0,86,10.73a.32.32,0,0,1-.5,0L84.53,9a.39.39,0,0,1,.07-.51,9.56,9.56,0,0,1,5.87-1.69c4.89,0,6.77,1.62,6.77,5.87V24.12a.35.35,0,0,1-.36.36Zm-.43-5.58V17a.2.2,0,0,0-.22-.22H90.65c-3,0-4.29.87-4.29,2.81,0,1.77,1.3,2.7,3.6,2.7C92.66,22.28,94.32,21,94.32,18.9Z"/><path class="cls-1" d="M106.42,24.66c-3,0-4.22-1.44-4.22-4.54V.36a.34.34,0,0,1,.36-.36h2.31a.34.34,0,0,1,.36.36V19.94c0,1.44.54,1.91,1.73,1.91h.68a.34.34,0,0,1,.36.36V24.3a.34.34,0,0,1-.36.36Z"/><path class="cls-1" d="M111.82,3.35a.34.34,0,0,1-.36-.36V.36a.34.34,0,0,1,.36-.36h2.44a.34.34,0,0,1,.36.36V3a.34.34,0,0,1-.36.36Zm.07,21.13a.34.34,0,0,1-.36-.36V7.59a.33.33,0,0,1,.36-.35h2.3a.33.33,0,0,1,.36.35V24.12a.34.34,0,0,1-.36.36Z"/><path class="cls-1" d="M119.12,24.48a.35.35,0,0,1-.36-.36V22.21a.56.56,0,0,1,.15-.4L128.37,10V10h-8.78a.34.34,0,0,1-.36-.36v-2a.34.34,0,0,1,.36-.35h12a.33.33,0,0,1,.36.35v2a.55.55,0,0,1-.14.4l-9.39,11.66v.07h9.17a.34.34,0,0,1,.36.36v2a.34.34,0,0,1-.36.36Z"/><path class="cls-1" d="M146.63,24.48a.34.34,0,0,1-.36-.36V22.61h0c-.79,1.29-2.48,2.26-5.11,2.26-3.28,0-5.8-1.69-5.8-5.18,0-3.64,2.52-5.33,6.73-5.33H146a.19.19,0,0,0,.21-.21V12.89c0-2.38-.93-3.39-4.14-3.39a6.7,6.7,0,0,0-4.17,1.23c-.18.14-.4.14-.5,0L136.4,9a.39.39,0,0,1,.08-.51,9.53,9.53,0,0,1,5.86-1.69c4.9,0,6.77,1.62,6.77,5.87V24.12a.34.34,0,0,1-.36.36Zm-.44-5.58V17a.19.19,0,0,0-.21-.22h-3.46c-3,0-4.28.87-4.28,2.81,0,1.77,1.3,2.7,3.6,2.7C144.54,22.28,146.19,21,146.19,18.9Z"/><path class="cls-1" d="M154.51,24.48a.35.35,0,0,1-.36-.36V7.59a.34.34,0,0,1,.36-.35h2.3a.33.33,0,0,1,.36.35V9.36h0a4.8,4.8,0,0,1,4.57-2.52,5.3,5.3,0,0,1,3.53,1.29c.18.18.22.33.07.51l-1.33,1.76a.32.32,0,0,1-.5.07,4.92,4.92,0,0,0-2.67-.82c-2.62,0-3.71,2-3.71,5v9.43a.34.34,0,0,1-.36.36Z"/><path class="cls-1" d="M180.25,24.66c-3,0-4.21-1.44-4.21-4.54V.36A.34.34,0,0,1,176.4,0h2.3a.34.34,0,0,1,.36.36V19.94c0,1.44.54,1.91,1.73,1.91h.68a.34.34,0,0,1,.36.36V24.3a.34.34,0,0,1-.36.36Z"/><path class="cls-1" d="M195.8,24.48a.35.35,0,0,1-.36-.36V22.61h0c-.8,1.29-2.49,2.26-5.12,2.26-3.27,0-5.79-1.69-5.79-5.18,0-3.64,2.52-5.33,6.73-5.33h3.92c.15,0,.22-.07.22-.21V12.89c0-2.38-.94-3.39-4.14-3.39a6.73,6.73,0,0,0-4.18,1.23.32.32,0,0,1-.5,0l-1-1.65a.39.39,0,0,1,.07-.51,9.56,9.56,0,0,1,5.87-1.69c4.89,0,6.76,1.62,6.76,5.87V24.12a.34.34,0,0,1-.36.36Zm-.43-5.58V17a.2.2,0,0,0-.22-.22H191.7c-3,0-4.29.87-4.29,2.81,0,1.77,1.3,2.7,3.6,2.7C193.71,22.28,195.37,21,195.37,18.9Z"/><path class="cls-1" d="M203.69,24.48a.34.34,0,0,1-.36-.36V.36a.34.34,0,0,1,.36-.36H206a.34.34,0,0,1,.36.36V9.21h0c.82-1.36,2.3-2.37,4.89-2.37,3,0,5.08,1.4,5.94,4.14a14.2,14.2,0,0,1,.61,4.86,14.25,14.25,0,0,1-.61,4.89c-.86,2.74-2.95,4.14-5.94,4.14-2.59,0-4.07-1-4.89-2.41h0v1.66a.34.34,0,0,1-.36.36Zm10.65-5a11.89,11.89,0,0,0,.4-3.6,12.15,12.15,0,0,0-.4-3.6,4.08,4.08,0,0,0-7.59,0,11.12,11.12,0,0,0-.4,3.6,11,11,0,0,0,.4,3.6,4.05,4.05,0,0,0,7.59,0Z"/><path class="cls-1" d="M221.51,20.23a12.85,12.85,0,0,1-.58-4.39,12.78,12.78,0,0,1,.58-4.36c.93-3,3.45-4.64,6.8-4.64s5.87,1.69,6.8,4.64a12.78,12.78,0,0,1,.58,4.36,12.85,12.85,0,0,1-.58,4.39,7.3,7.3,0,0,1-13.6,0Zm10.69-.86a11.63,11.63,0,0,0,.39-3.53,11.26,11.26,0,0,0-.39-3.49,4.15,4.15,0,0,0-7.78,0,11,11,0,0,0-.39,3.49,11.32,11.32,0,0,0,.39,3.53,4.15,4.15,0,0,0,7.78,0Z"/><path class="cls-1" d="M240.19,24.48a.34.34,0,0,1-.36-.36V7.59a.33.33,0,0,1,.36-.35h2.3a.33.33,0,0,1,.36.35V9.36h0a4.79,4.79,0,0,1,4.57-2.52A5.32,5.32,0,0,1,251,8.13c.18.18.21.33.07.51l-1.33,1.76a.33.33,0,0,1-.51.07,4.86,4.86,0,0,0-2.66-.82c-2.63,0-3.71,2-3.71,5v9.43a.34.34,0,0,1-.36.36Z"/><path class="cls-1" d="M252.75,20.19a13.48,13.48,0,0,1-.57-4.35,13.43,13.43,0,0,1,.54-4.36,7.25,7.25,0,0,1,13.53,0,15.08,15.08,0,0,1,.54,4.93.35.35,0,0,1-.39.36H255.49a.2.2,0,0,0-.22.22,6.47,6.47,0,0,0,.29,2.09,4.27,4.27,0,0,0,4.36,3,5.61,5.61,0,0,0,4.42-1.91c.18-.18.36-.22.54-.08l1.48,1.34a.32.32,0,0,1,0,.5,8.39,8.39,0,0,1-6.74,2.95C256.17,24.87,253.69,23.18,252.75,20.19Zm10.73-5.83a.19.19,0,0,0,.22-.21,6.05,6.05,0,0,0-.26-2,4.25,4.25,0,0,0-7.92,0,6.08,6.08,0,0,0-.25,2c0,.14.07.21.22.21Z"/><path class="cls-1" d="M269.75,22.28a.33.33,0,0,1,0-.5l1.47-1.59a.36.36,0,0,1,.51,0,8.32,8.32,0,0,0,5.32,2c2.52,0,3.78-1.08,3.78-2.63,0-1.36-.65-2.12-3.35-2.41L275.65,17c-3.39-.36-5.15-2-5.15-4.86,0-3.27,2.34-5.25,6.41-5.25A10.32,10.32,0,0,1,283,8.75a.34.34,0,0,1,.07.5l-1.22,1.55a.36.36,0,0,1-.51.07,9.06,9.06,0,0,0-4.64-1.4c-2.16,0-3.28,1-3.28,2.37s.83,2.09,3.39,2.34l1.8.18c3.49.33,5.18,2.09,5.18,4.86,0,3.39-2.45,5.65-6.95,5.65A10.7,10.7,0,0,1,269.75,22.28Z"/><path class="cls-1" d="M295.3,20.19a13.48,13.48,0,0,1-.57-4.35,13.43,13.43,0,0,1,.54-4.36,7.25,7.25,0,0,1,13.53,0,15.08,15.08,0,0,1,.54,4.93.35.35,0,0,1-.39.36H298a.2.2,0,0,0-.22.22,6.47,6.47,0,0,0,.29,2.09,4.27,4.27,0,0,0,4.36,3,5.65,5.65,0,0,0,4.43-1.91c.18-.18.36-.22.53-.08l1.48,1.34a.32.32,0,0,1,0,.5,8.38,8.38,0,0,1-6.73,2.95C298.72,24.87,296.24,23.18,295.3,20.19ZM306,14.36a.19.19,0,0,0,.22-.21,6.37,6.37,0,0,0-.25-2,4.25,4.25,0,0,0-7.92,0,6.05,6.05,0,0,0-.26,2,.19.19,0,0,0,.22.21Z"/><path class="cls-1" d="M324.68,24.48a.34.34,0,0,1-.36-.36V14c0-2.77-1.26-4.39-3.85-4.39a3.87,3.87,0,0,0-4,4.21V24.12a.35.35,0,0,1-.36.36h-2.31a.35.35,0,0,1-.36-.36V7.59a.34.34,0,0,1,.36-.35h2.31a.34.34,0,0,1,.36.35V9.18h0a5.47,5.47,0,0,1,4.83-2.34c3.74,0,6,2.55,6,6.48v10.8a.34.34,0,0,1-.36.36Z"/><path class="cls-1" d="M339.66,24.48a.34.34,0,0,1-.36-.36V22.21a.55.55,0,0,1,.14-.4L348.91,10V10h-8.79a.34.34,0,0,1-.36-.36v-2a.34.34,0,0,1,.36-.35h12a.34.34,0,0,1,.36.35v2a.56.56,0,0,1-.15.4L343,21.67v.07h9.18a.34.34,0,0,1,.36.36v2a.35.35,0,0,1-.36.36Z"/><path class="cls-1" d="M356.25,20.23a12.85,12.85,0,0,1-.58-4.39,12.78,12.78,0,0,1,.58-4.36c.94-3,3.46-4.64,6.8-4.64s5.87,1.69,6.81,4.64a13.07,13.07,0,0,1,.57,4.36,13.14,13.14,0,0,1-.57,4.39,7.31,7.31,0,0,1-13.61,0Zm10.69-.86a11.27,11.27,0,0,0,.4-3.53,10.91,10.91,0,0,0-.4-3.49,4.15,4.15,0,0,0-7.77,0,10.91,10.91,0,0,0-.4,3.49,11.27,11.27,0,0,0,.4,3.53,4.15,4.15,0,0,0,7.77,0Z"/><path class="cls-1" d="M385.77,24.48a.34.34,0,0,1-.36-.36V14c0-2.77-1.26-4.39-3.85-4.39a3.87,3.87,0,0,0-4,4.21V24.12a.35.35,0,0,1-.36.36h-2.31a.34.34,0,0,1-.35-.36V7.59a.33.33,0,0,1,.35-.35h2.31a.34.34,0,0,1,.36.35V9.18h0a5.47,5.47,0,0,1,4.83-2.34c3.74,0,6,2.55,6,6.48v10.8a.34.34,0,0,1-.36.36Z"/><path class="cls-1" d="M403.88,24.48a.34.34,0,0,1-.36-.36V22.61h0c-.79,1.29-2.48,2.26-5.11,2.26-3.28,0-5.8-1.69-5.8-5.18,0-3.64,2.52-5.33,6.74-5.33h3.92a.19.19,0,0,0,.22-.21V12.89c0-2.38-.94-3.39-4.14-3.39a6.71,6.71,0,0,0-4.18,1.23c-.18.14-.4.14-.5,0l-1-1.65a.39.39,0,0,1,.08-.51,9.53,9.53,0,0,1,5.86-1.69c4.9,0,6.77,1.62,6.77,5.87V24.12a.34.34,0,0,1-.36.36Zm-.43-5.58V17a.2.2,0,0,0-.22-.22h-3.46c-3,0-4.28.87-4.28,2.81,0,1.77,1.3,2.7,3.6,2.7C401.79,22.28,403.45,21,403.45,18.9Z"/><path class="cls-1" d="M418.82,11.48a6.68,6.68,0,0,1,6.8-4.64,6.92,6.92,0,0,1,5.9,2.91.34.34,0,0,1-.1.51l-1.59,1.29a.31.31,0,0,1-.5,0,4.24,4.24,0,0,0-3.71-1.87,3.74,3.74,0,0,0-3.85,2.7,11.4,11.4,0,0,0-.4,3.49,11.52,11.52,0,0,0,.4,3.53,3.74,3.74,0,0,0,3.85,2.7,4.25,4.25,0,0,0,3.71-1.88.31.31,0,0,1,.5,0l1.59,1.29a.34.34,0,0,1,.1.51,6.9,6.9,0,0,1-5.9,2.91c-3.31,0-5.83-1.65-6.8-4.64a14.68,14.68,0,0,1-.54-4.39A14.65,14.65,0,0,1,418.82,11.48Z"/><path class="cls-1" d="M434.69,20.23a13.14,13.14,0,0,1-.57-4.39,13.07,13.07,0,0,1,.57-4.36c.94-3,3.46-4.64,6.81-4.64s5.86,1.69,6.8,4.64a12.78,12.78,0,0,1,.58,4.36,12.85,12.85,0,0,1-.58,4.39,7.31,7.31,0,0,1-13.61,0Zm10.69-.86a11.27,11.27,0,0,0,.4-3.53,10.91,10.91,0,0,0-.4-3.49,4.15,4.15,0,0,0-7.77,0,10.91,10.91,0,0,0-.4,3.49,11.27,11.27,0,0,0,.4,3.53,4.15,4.15,0,0,0,7.77,0Z"/><path class="cls-1" d="M464.21,24.48a.35.35,0,0,1-.36-.36V14c0-2.77-1.26-4.39-3.85-4.39a3.87,3.87,0,0,0-4,4.21V24.12a.34.34,0,0,1-.36.36h-2.3a.34.34,0,0,1-.36-.36V7.59a.33.33,0,0,1,.36-.35h2.3a.33.33,0,0,1,.36.35V9.18h0a5.44,5.44,0,0,1,4.82-2.34c3.74,0,6,2.55,6,6.48v10.8a.35.35,0,0,1-.36.36Z"/><path class="cls-1" d="M480.16,31a.34.34,0,0,1-.36-.36v-23a.33.33,0,0,1,.36-.35h2.3a.33.33,0,0,1,.36.35V9.21h0c.83-1.36,2.3-2.37,4.9-2.37,3,0,5.07,1.4,5.93,4.14a14.17,14.17,0,0,1,.62,4.86,14.22,14.22,0,0,1-.62,4.89c-.86,2.74-2.95,4.14-5.93,4.14-2.6,0-4.07-1-4.9-2.41h0V30.6a.34.34,0,0,1-.36.36Zm10.66-11.52a12.28,12.28,0,0,0,.39-3.6,12.54,12.54,0,0,0-.39-3.6,4.08,4.08,0,0,0-7.6,0,11.12,11.12,0,0,0-.4,3.6,11,11,0,0,0,.4,3.6,4.06,4.06,0,0,0,7.6,0Z"/><path class="cls-1" d="M498.81,24.48a.34.34,0,0,1-.36-.36V7.59a.33.33,0,0,1,.36-.35h2.3a.33.33,0,0,1,.36.35V9.36h0a4.79,4.79,0,0,1,4.57-2.52,5.32,5.32,0,0,1,3.53,1.29c.18.18.21.33.07.51l-1.33,1.76a.33.33,0,0,1-.51.07,4.86,4.86,0,0,0-2.66-.82c-2.63,0-3.71,2-3.71,5v9.43a.34.34,0,0,1-.36.36Z"/><path class="cls-1" d="M511.37,20.19a13.48,13.48,0,0,1-.57-4.35,13.43,13.43,0,0,1,.54-4.36,7.25,7.25,0,0,1,13.53,0,15.08,15.08,0,0,1,.54,4.93c0,.22-.14.36-.4.36h-10.9a.2.2,0,0,0-.22.22,6.47,6.47,0,0,0,.29,2.09,4.26,4.26,0,0,0,4.36,3A5.61,5.61,0,0,0,523,20.16c.18-.18.36-.22.54-.08L525,21.42a.31.31,0,0,1,0,.5,8.35,8.35,0,0,1-6.73,2.95C514.79,24.87,512.31,23.18,511.37,20.19Zm10.73-5.83a.19.19,0,0,0,.22-.21,6.05,6.05,0,0,0-.26-2,4.25,4.25,0,0,0-7.92,0,6.08,6.08,0,0,0-.25,2c0,.14.07.21.22.21Z"/><path class="cls-1" d="M528.36,22.28a.35.35,0,0,1,0-.5l1.48-1.59a.35.35,0,0,1,.5,0,8.37,8.37,0,0,0,5.33,2c2.52,0,3.78-1.08,3.78-2.63,0-1.36-.65-2.12-3.35-2.41L534.27,17c-3.39-.36-5.15-2-5.15-4.86,0-3.27,2.34-5.25,6.41-5.25a10.32,10.32,0,0,1,6.12,1.91.34.34,0,0,1,.07.5L540.5,10.8a.36.36,0,0,1-.51.07,9.06,9.06,0,0,0-4.64-1.4c-2.16,0-3.28,1-3.28,2.37s.83,2.09,3.39,2.34l1.8.18c3.49.33,5.18,2.09,5.18,4.86,0,3.39-2.45,5.65-7,5.65A10.75,10.75,0,0,1,528.36,22.28Z"/><path class="cls-1" d="M546,20.19a13.48,13.48,0,0,1-.57-4.35,13.43,13.43,0,0,1,.54-4.36,7.25,7.25,0,0,1,13.53,0,15.08,15.08,0,0,1,.54,4.93.35.35,0,0,1-.39.36H548.74a.2.2,0,0,0-.22.22,6.47,6.47,0,0,0,.29,2.09,4.27,4.27,0,0,0,4.36,3,5.61,5.61,0,0,0,4.42-1.91c.18-.18.36-.22.54-.08l1.48,1.34a.32.32,0,0,1,0,.5,8.38,8.38,0,0,1-6.73,2.95C549.42,24.87,546.94,23.18,546,20.19Zm10.73-5.83a.19.19,0,0,0,.22-.21,6.05,6.05,0,0,0-.26-2,4.25,4.25,0,0,0-7.91,0,6.05,6.05,0,0,0-.26,2,.19.19,0,0,0,.22.21Z"/><path class="cls-1" d="M575.38,24.48a.34.34,0,0,1-.36-.36V14c0-2.77-1.26-4.39-3.85-4.39a3.87,3.87,0,0,0-4,4.21V24.12a.35.35,0,0,1-.36.36h-2.31a.35.35,0,0,1-.36-.36V7.59a.34.34,0,0,1,.36-.35h2.31a.34.34,0,0,1,.36.35V9.18h0a5.47,5.47,0,0,1,4.83-2.34c3.74,0,6,2.55,6,6.48v10.8a.34.34,0,0,1-.36.36Z"/><path class="cls-1" d="M582.54,11.48c1-3,3.49-4.64,6.81-4.64a6.94,6.94,0,0,1,5.9,2.91c.11.18.11.33-.11.51l-1.58,1.29a.32.32,0,0,1-.51,0,4.22,4.22,0,0,0-3.7-1.87,3.73,3.73,0,0,0-3.85,2.7,11.4,11.4,0,0,0-.4,3.49,11.52,11.52,0,0,0,.4,3.53,3.73,3.73,0,0,0,3.85,2.7,4.23,4.23,0,0,0,3.7-1.88.32.32,0,0,1,.51,0l1.58,1.29c.22.18.22.33.11.51a6.91,6.91,0,0,1-5.9,2.91c-3.32,0-5.84-1.65-6.81-4.64a15,15,0,0,1-.54-4.39A15,15,0,0,1,582.54,11.48Z"/><path class="cls-1" d="M599.61,3.35a.34.34,0,0,1-.36-.36V.36a.34.34,0,0,1,.36-.36h2.44a.34.34,0,0,1,.36.36V3a.34.34,0,0,1-.36.36Zm.07,21.13a.34.34,0,0,1-.36-.36V7.59a.33.33,0,0,1,.36-.35H602a.33.33,0,0,1,.36.35V24.12a.34.34,0,0,1-.36.36Z"/><path class="cls-1" d="M618,24.48a.35.35,0,0,1-.36-.36V22.61h0c-.79,1.29-2.48,2.26-5.11,2.26-3.28,0-5.8-1.69-5.8-5.18,0-3.64,2.52-5.33,6.73-5.33h3.93a.19.19,0,0,0,.21-.21V12.89c0-2.38-.93-3.39-4.14-3.39a6.7,6.7,0,0,0-4.17,1.23.33.33,0,0,1-.51,0l-1-1.65a.39.39,0,0,1,.07-.51,9.58,9.58,0,0,1,5.87-1.69c4.9,0,6.77,1.62,6.77,5.87V24.12a.35.35,0,0,1-.36.36Zm-.43-5.58V17a.19.19,0,0,0-.21-.22h-3.46c-3,0-4.28.87-4.28,2.81,0,1.77,1.29,2.7,3.6,2.7C615.88,22.28,617.53,21,617.53,18.9Z"/><path class="cls-1" d="M644.21,24.48a.34.34,0,0,1-.36-.36V22.46h0c-.83,1.37-2.3,2.41-4.89,2.41-3,0-5.08-1.4-5.94-4.14a14.25,14.25,0,0,1-.61-4.89A14.2,14.2,0,0,1,633,11c.86-2.74,2.95-4.14,5.94-4.14,2.59,0,4.06,1,4.89,2.37h0V.36a.34.34,0,0,1,.36-.36h2.3a.34.34,0,0,1,.36.36V24.12a.34.34,0,0,1-.36.36Zm-.76-5a11,11,0,0,0,.4-3.6,11.12,11.12,0,0,0-.4-3.6,4.08,4.08,0,0,0-7.59,0,12.15,12.15,0,0,0-.4,3.6,11.89,11.89,0,0,0,.4,3.6,4.05,4.05,0,0,0,7.59,0Z"/><path class="cls-1" d="M651.59,20.19a13.43,13.43,0,0,1-.58-4.35,13.43,13.43,0,0,1,.54-4.36,7.26,7.26,0,0,1,13.54,0,15.08,15.08,0,0,1,.54,4.93.35.35,0,0,1-.4.36h-10.9a.2.2,0,0,0-.22.22,6.47,6.47,0,0,0,.29,2.09,4.25,4.25,0,0,0,4.35,3,5.65,5.65,0,0,0,4.43-1.91c.18-.18.36-.22.54-.08l1.48,1.34a.31.31,0,0,1,0,.5,8.38,8.38,0,0,1-6.73,2.95C655,24.87,652.53,23.18,651.59,20.19Zm10.73-5.83a.19.19,0,0,0,.21-.21,6.08,6.08,0,0,0-.25-2,4.25,4.25,0,0,0-7.92,0,6.08,6.08,0,0,0-.25,2c0,.14.07.21.22.21Z"/><path class="cls-1" d="M6.65,62.48c-.26,0-.36-.15-.44-.36L0,45.59c-.07-.21,0-.35.29-.35H2.79c.26,0,.36.1.47.35L7.72,58H7.8l4.35-12.39a.41.41,0,0,1,.43-.35H15c.25,0,.36.14.29.35L9.17,62.12a.48.48,0,0,1-.47.36Z"/><path class="cls-1" d="M17.88,58.19a13.43,13.43,0,0,1-.58-4.35,13.43,13.43,0,0,1,.54-4.36,6.67,6.67,0,0,1,6.77-4.64,6.69,6.69,0,0,1,6.77,4.64,15.08,15.08,0,0,1,.54,4.93.35.35,0,0,1-.4.36H20.61a.19.19,0,0,0-.21.22,6.8,6.8,0,0,0,.28,2.09,4.27,4.27,0,0,0,4.36,3,5.65,5.65,0,0,0,4.43-1.91c.18-.18.36-.22.54-.08l1.47,1.34a.32.32,0,0,1,0,.5,8.38,8.38,0,0,1-6.73,2.95C21.3,62.87,18.81,61.18,17.88,58.19ZM28.6,52.36c.15,0,.22-.07.22-.21a6.08,6.08,0,0,0-.25-1.95,3.9,3.9,0,0,0-4-2.7,3.9,3.9,0,0,0-4,2.7,6.08,6.08,0,0,0-.25,1.95.19.19,0,0,0,.21.21Z"/><path class="cls-1" d="M47.25,62.48a.35.35,0,0,1-.36-.36V52c0-2.77-1.26-4.39-3.85-4.39a3.87,3.87,0,0,0-4,4.21V62.12a.34.34,0,0,1-.36.36h-2.3a.34.34,0,0,1-.36-.36V38.36a.34.34,0,0,1,.36-.36h2.3a.34.34,0,0,1,.36.36v8.82h0a5.44,5.44,0,0,1,4.82-2.34c3.74,0,6,2.55,6,6.48v10.8a.35.35,0,0,1-.36.36Z"/><path class="cls-1" d="M55.28,62.48a.35.35,0,0,1-.36-.36V45.59a.34.34,0,0,1,.36-.35h2.31a.33.33,0,0,1,.35.35V62.12a.34.34,0,0,1-.35.36Zm.29-20c-.22,0-.32-.15-.22-.36l2.74-4.43a.63.63,0,0,1,.61-.36h2.38a.21.21,0,0,1,.18.36l-3.32,4.43a.69.69,0,0,1-.68.36Z"/><path class="cls-1" d="M62.62,49.48a6.7,6.7,0,0,1,6.81-4.64,6.92,6.92,0,0,1,5.9,2.91c.11.18.11.33-.11.51l-1.58,1.29a.31.31,0,0,1-.5,0,4.24,4.24,0,0,0-3.71-1.87,3.74,3.74,0,0,0-3.85,2.7,11.4,11.4,0,0,0-.4,3.49,11.52,11.52,0,0,0,.4,3.53,3.74,3.74,0,0,0,3.85,2.7,4.25,4.25,0,0,0,3.71-1.88.31.31,0,0,1,.5,0l1.58,1.29c.22.18.22.33.11.51a6.9,6.9,0,0,1-5.9,2.91,6.69,6.69,0,0,1-6.81-4.64,15.08,15.08,0,0,1-.53-4.39A15,15,0,0,1,62.62,49.48Z"/><path class="cls-1" d="M90.23,62.48a.35.35,0,0,1-.36-.36V60.5h0a5.26,5.26,0,0,1-4.72,2.37c-3.78,0-6-2.59-6-6.51V45.59a.33.33,0,0,1,.36-.35h2.3a.33.33,0,0,1,.36.35v10c0,2.81,1.26,4.43,3.82,4.43,2.34,0,3.88-1.66,3.88-4.25V45.59a.34.34,0,0,1,.36-.35h2.31a.34.34,0,0,1,.36.35V62.12a.35.35,0,0,1-.36.36Z"/><path class="cls-1" d="M102.22,62.66c-3,0-4.21-1.44-4.21-4.54V38.36a.34.34,0,0,1,.36-.36h2.3a.34.34,0,0,1,.37.36V57.94c0,1.44.54,1.91,1.72,1.91h.69a.34.34,0,0,1,.36.36V62.3a.35.35,0,0,1-.36.36Z"/><path class="cls-1" d="M106.87,58.23a12.85,12.85,0,0,1-.58-4.39,12.78,12.78,0,0,1,.58-4.36c.93-2.95,3.45-4.64,6.8-4.64s5.87,1.69,6.8,4.64a12.78,12.78,0,0,1,.58,4.36,12.85,12.85,0,0,1-.58,4.39,7.3,7.3,0,0,1-13.6,0Zm10.69-.86a11.32,11.32,0,0,0,.39-3.53,11,11,0,0,0-.39-3.49,4.15,4.15,0,0,0-7.78,0,11.26,11.26,0,0,0-.39,3.49,11.63,11.63,0,0,0,.39,3.53,4.15,4.15,0,0,0,7.78,0Z"/><path class="cls-1" d="M124,60.28a.35.35,0,0,1,0-.5l1.48-1.59a.35.35,0,0,1,.5,0,8.37,8.37,0,0,0,5.33,2c2.52,0,3.78-1.08,3.78-2.63,0-1.36-.65-2.12-3.35-2.41L129.91,55c-3.39-.36-5.15-2.05-5.15-4.86,0-3.27,2.34-5.25,6.41-5.25a10.34,10.34,0,0,1,6.12,1.91.36.36,0,0,1,.07.5l-1.23,1.55a.35.35,0,0,1-.5.07,9.09,9.09,0,0,0-4.64-1.4c-2.16,0-3.28,1-3.28,2.37s.83,2.09,3.38,2.34l1.8.18c3.5.33,5.19,2.09,5.19,4.86,0,3.39-2.45,5.65-7,5.65A10.75,10.75,0,0,1,124,60.28Z"/><path class="cls-1" d="M160.83,62.48a.34.34,0,0,1-.36-.36V60.46h0c-.83,1.37-2.3,2.41-4.89,2.41-3,0-5.08-1.4-5.94-4.14a14.25,14.25,0,0,1-.61-4.89A14.2,14.2,0,0,1,149.6,49c.86-2.74,3-4.14,5.94-4.14,2.59,0,4.06,1,4.89,2.37h0V38.36a.34.34,0,0,1,.36-.36h2.3a.34.34,0,0,1,.36.36V62.12a.34.34,0,0,1-.36.36Zm-.76-5a11,11,0,0,0,.4-3.6,11.12,11.12,0,0,0-.4-3.6,4.08,4.08,0,0,0-7.59,0,12.15,12.15,0,0,0-.4,3.6,11.89,11.89,0,0,0,.4,3.6,4.05,4.05,0,0,0,7.59,0Z"/><path class="cls-1" d="M168.21,58.19a13.43,13.43,0,0,1-.58-4.35,13.43,13.43,0,0,1,.54-4.36,7.26,7.26,0,0,1,13.54,0,15.08,15.08,0,0,1,.54,4.93.35.35,0,0,1-.4.36H171a.2.2,0,0,0-.22.22,6.47,6.47,0,0,0,.29,2.09,4.25,4.25,0,0,0,4.35,3,5.65,5.65,0,0,0,4.43-1.91c.18-.18.36-.22.54-.08l1.48,1.34a.31.31,0,0,1,0,.5,8.38,8.38,0,0,1-6.73,2.95C171.63,62.87,169.15,61.18,168.21,58.19Zm10.73-5.83a.19.19,0,0,0,.21-.21,6.08,6.08,0,0,0-.25-1.95,4.25,4.25,0,0,0-7.92,0,6.08,6.08,0,0,0-.25,1.95c0,.14.07.21.22.21Z"/><path class="cls-1" d="M193.8,49.48a6.7,6.7,0,0,1,6.81-4.64,6.92,6.92,0,0,1,5.9,2.91c.11.18.11.33-.11.51l-1.58,1.29a.31.31,0,0,1-.5,0,4.24,4.24,0,0,0-3.71-1.87,3.74,3.74,0,0,0-3.85,2.7,11.4,11.4,0,0,0-.4,3.49,11.52,11.52,0,0,0,.4,3.53,3.74,3.74,0,0,0,3.85,2.7,4.25,4.25,0,0,0,3.71-1.88.31.31,0,0,1,.5,0l1.58,1.29c.22.18.22.33.11.51a6.9,6.9,0,0,1-5.9,2.91,6.69,6.69,0,0,1-6.81-4.64,15,15,0,0,1-.54-4.39A15,15,0,0,1,193.8,49.48Z"/><path class="cls-1" d="M221.42,62.48a.34.34,0,0,1-.36-.36V60.5h0a5.25,5.25,0,0,1-4.72,2.37c-3.78,0-6-2.59-6-6.51V45.59a.33.33,0,0,1,.36-.35H213a.33.33,0,0,1,.36.35v10c0,2.81,1.26,4.43,3.82,4.43,2.34,0,3.89-1.66,3.89-4.25V45.59a.33.33,0,0,1,.36-.35h2.3a.34.34,0,0,1,.36.35V62.12a.35.35,0,0,1-.36.36Z"/><path class="cls-1" d="M239.7,62.48a.35.35,0,0,1-.36-.36V60.61h0c-.8,1.29-2.49,2.26-5.11,2.26-3.28,0-5.8-1.69-5.8-5.18s2.52-5.33,6.73-5.33h3.92c.15,0,.22-.07.22-.21V50.89c0-2.38-.93-3.39-4.14-3.39A6.68,6.68,0,0,0,231,48.73a.33.33,0,0,1-.51,0l-1-1.65a.39.39,0,0,1,.07-.51,9.56,9.56,0,0,1,5.87-1.69c4.89,0,6.77,1.62,6.77,5.87V62.12a.35.35,0,0,1-.36.36Zm-.43-5.58V55a.2.2,0,0,0-.22-.22H235.6c-3,0-4.28.87-4.28,2.81,0,1.77,1.29,2.7,3.6,2.7C237.61,60.28,239.27,59,239.27,56.9Z"/><path class="cls-1" d="M251.37,62.66c-3,0-4.21-1.44-4.21-4.54V38.36a.34.34,0,0,1,.36-.36h2.3a.34.34,0,0,1,.36.36V57.94c0,1.44.54,1.91,1.73,1.91h.68a.34.34,0,0,1,.36.36V62.3a.34.34,0,0,1-.36.36Z"/><path class="cls-1" d="M267.28,69a.34.34,0,0,1-.36-.36V60.46h0c-.83,1.37-2.3,2.41-4.89,2.41-3,0-5.08-1.4-5.94-4.14a14.25,14.25,0,0,1-.61-4.89,14.2,14.2,0,0,1,.61-4.86c.86-2.74,2.95-4.14,5.94-4.14,2.59,0,4.06,1,4.89,2.37h0V45.59a.33.33,0,0,1,.36-.35h2.3a.33.33,0,0,1,.36.35v23a.34.34,0,0,1-.36.36Zm-.76-11.52a11,11,0,0,0,.4-3.6,11.12,11.12,0,0,0-.4-3.6,4.08,4.08,0,0,0-7.59,0,12.15,12.15,0,0,0-.4,3.6,11.89,11.89,0,0,0,.4,3.6,4.05,4.05,0,0,0,7.59,0Z"/><path class="cls-1" d="M286,62.48a.35.35,0,0,1-.36-.36V60.5h0a5.26,5.26,0,0,1-4.72,2.37c-3.78,0-6-2.59-6-6.51V45.59a.33.33,0,0,1,.36-.35h2.3a.33.33,0,0,1,.36.35v10c0,2.81,1.26,4.43,3.81,4.43,2.34,0,3.89-1.66,3.89-4.25V45.59a.34.34,0,0,1,.36-.35h2.31a.34.34,0,0,1,.36.35V62.12a.35.35,0,0,1-.36.36Z"/><path class="cls-1" d="M294.1,41.35a.34.34,0,0,1-.36-.36V38.36a.34.34,0,0,1,.36-.36h2.45a.34.34,0,0,1,.36.36V41a.35.35,0,0,1-.36.36Zm.07,21.13a.35.35,0,0,1-.36-.36V45.59a.34.34,0,0,1,.36-.35h2.3a.34.34,0,0,1,.37.35V62.12a.35.35,0,0,1-.37.36Z"/><path class="cls-1" d="M301.55,58.19a13.43,13.43,0,0,1-.58-4.35,13.43,13.43,0,0,1,.54-4.36,7.26,7.26,0,0,1,13.54,0,15.08,15.08,0,0,1,.54,4.93.35.35,0,0,1-.4.36h-10.9a.2.2,0,0,0-.22.22,6.47,6.47,0,0,0,.29,2.09,4.25,4.25,0,0,0,4.35,3,5.62,5.62,0,0,0,4.43-1.91c.18-.18.36-.22.54-.08l1.48,1.34a.31.31,0,0,1,0,.5,8.35,8.35,0,0,1-6.73,2.95C305,62.87,302.49,61.18,301.55,58.19Zm10.73-5.83a.19.19,0,0,0,.21-.21,6.08,6.08,0,0,0-.25-1.95,4.25,4.25,0,0,0-7.92,0,6.08,6.08,0,0,0-.25,1.95c0,.14.07.21.22.21Z"/><path class="cls-1" d="M320.09,62.48a.34.34,0,0,1-.36-.36V45.59a.33.33,0,0,1,.36-.35h2.3a.33.33,0,0,1,.36.35v1.77h0a4.8,4.8,0,0,1,4.57-2.52,5.32,5.32,0,0,1,3.53,1.29c.18.18.21.33.07.51l-1.33,1.76a.32.32,0,0,1-.5.07,4.92,4.92,0,0,0-2.67-.82c-2.63,0-3.71,2.05-3.71,5v9.43a.34.34,0,0,1-.36.36Z"/><path class="cls-1" d="M346.69,62.66c-3.35,0-4.64-1.52-4.64-4.9V47.9a.19.19,0,0,0-.22-.22h-1.44a.34.34,0,0,1-.36-.36V45.59a.34.34,0,0,1,.36-.35h1.44a.2.2,0,0,0,.22-.22V40.16a.34.34,0,0,1,.36-.36h2.3a.34.34,0,0,1,.36.36V45a.2.2,0,0,0,.22.22H348a.33.33,0,0,1,.36.35v1.73a.34.34,0,0,1-.36.36h-2.73a.2.2,0,0,0-.22.22v9.75c0,1.73.65,2.2,2.2,2.2H348a.34.34,0,0,1,.36.36V62.3a.34.34,0,0,1-.36.36Z"/><path class="cls-1" d="M352.63,41.35a.35.35,0,0,1-.36-.36V38.36a.34.34,0,0,1,.36-.36h2.45a.34.34,0,0,1,.36.36V41a.34.34,0,0,1-.36.36Zm.08,21.13a.35.35,0,0,1-.37-.36V45.59a.34.34,0,0,1,.37-.35H355a.34.34,0,0,1,.36.35V62.12a.35.35,0,0,1-.36.36Z"/><path class="cls-1" d="M360.91,69a.35.35,0,0,1-.36-.36v-23a.34.34,0,0,1,.36-.35h2.31a.34.34,0,0,1,.36.35v1.62h0c.83-1.36,2.31-2.37,4.9-2.37,3,0,5.07,1.4,5.94,4.14a14.2,14.2,0,0,1,.61,4.86,14.25,14.25,0,0,1-.61,4.89c-.87,2.74-2.95,4.14-5.94,4.14-2.59,0-4.07-1-4.9-2.41h0V68.6a.35.35,0,0,1-.36.36Zm10.66-11.52a11.94,11.94,0,0,0,.39-3.6,12.2,12.2,0,0,0-.39-3.6,4.08,4.08,0,0,0-7.6,0,11.18,11.18,0,0,0-.39,3.6,11.06,11.06,0,0,0,.39,3.6,4.06,4.06,0,0,0,7.6,0Z"/><path class="cls-1" d="M378.73,58.23a13.14,13.14,0,0,1-.57-4.39,13.07,13.07,0,0,1,.57-4.36c.94-2.95,3.46-4.64,6.81-4.64s5.86,1.69,6.8,4.64a13,13,0,0,1,.58,4.36,13.11,13.11,0,0,1-.58,4.39,7.31,7.31,0,0,1-13.61,0Zm10.69-.86a11.27,11.27,0,0,0,.4-3.53,10.91,10.91,0,0,0-.4-3.49,4.15,4.15,0,0,0-7.77,0,10.91,10.91,0,0,0-.4,3.49,11.27,11.27,0,0,0,.4,3.53,4.15,4.15,0,0,0,7.77,0Z"/><path class="cls-1" d="M410,62.66c-3.35,0-4.64-1.52-4.64-4.9V47.9a.2.2,0,0,0-.22-.22h-1.44a.34.34,0,0,1-.36-.36V45.59a.33.33,0,0,1,.36-.35h1.44a.2.2,0,0,0,.22-.22V40.16a.34.34,0,0,1,.36-.36H408a.34.34,0,0,1,.36.36V45a.2.2,0,0,0,.22.22h2.73a.33.33,0,0,1,.36.35v1.73a.34.34,0,0,1-.36.36h-2.73a.19.19,0,0,0-.22.22v9.75c0,1.73.65,2.2,2.2,2.2h.75a.34.34,0,0,1,.36.36V62.3a.34.34,0,0,1-.36.36Z"/><path class="cls-1" d="M414.44,58.23a13.14,13.14,0,0,1-.57-4.39,13.07,13.07,0,0,1,.57-4.36c.94-2.95,3.46-4.64,6.81-4.64s5.86,1.69,6.8,4.64a12.78,12.78,0,0,1,.58,4.36,12.85,12.85,0,0,1-.58,4.39,7.31,7.31,0,0,1-13.61,0Zm10.69-.86a11.27,11.27,0,0,0,.4-3.53,10.91,10.91,0,0,0-.4-3.49,4.15,4.15,0,0,0-7.77,0,10.91,10.91,0,0,0-.4,3.49,11.27,11.27,0,0,0,.4,3.53,4.15,4.15,0,0,0,7.77,0Z"/><path class="cls-1" d="M454.08,62.48a.34.34,0,0,1-.36-.36V52c0-2.77-1.26-4.39-3.85-4.39a3.88,3.88,0,0,0-4,4.21V62.12a.35.35,0,0,1-.36.36h-2.31a.35.35,0,0,1-.36-.36V52c0-2.77-1.26-4.39-3.85-4.39a3.87,3.87,0,0,0-4,4.21V62.12a.34.34,0,0,1-.36.36h-2.3a.34.34,0,0,1-.36-.36V45.59a.33.33,0,0,1,.36-.35h2.3a.33.33,0,0,1,.36.35v1.59h0a6.09,6.09,0,0,1,9.86.36h0a6.4,6.4,0,0,1,5.58-2.7c4,0,6.15,2.55,6.15,6.48v10.8a.34.34,0,0,1-.36.36Z"/><path class="cls-1" d="M460.56,58.19a13.43,13.43,0,0,1-.58-4.35,13.43,13.43,0,0,1,.54-4.36,7.26,7.26,0,0,1,13.54,0,15.08,15.08,0,0,1,.54,4.93.35.35,0,0,1-.4.36H463.29a.19.19,0,0,0-.21.22,6.47,6.47,0,0,0,.29,2.09,4.25,4.25,0,0,0,4.35,3,5.65,5.65,0,0,0,4.43-1.91c.18-.18.36-.22.54-.08l1.48,1.34a.33.33,0,0,1,0,.5,8.38,8.38,0,0,1-6.73,2.95C464,62.87,461.5,61.18,460.56,58.19Zm10.73-5.83a.19.19,0,0,0,.21-.21,6.08,6.08,0,0,0-.25-1.95,4.25,4.25,0,0,0-7.92,0,6.08,6.08,0,0,0-.25,1.95.19.19,0,0,0,.21.21Z"/><path class="cls-1" d="M485.58,69a.34.34,0,0,1-.36-.36v-23a.33.33,0,0,1,.36-.35h2.3a.33.33,0,0,1,.36.35v1.62h0c.83-1.36,2.3-2.37,4.89-2.37,3,0,5.08,1.4,5.94,4.14a14.2,14.2,0,0,1,.61,4.86,14.25,14.25,0,0,1-.61,4.89c-.86,2.74-2.95,4.14-5.94,4.14-2.59,0-4.06-1-4.89-2.41h0V68.6a.34.34,0,0,1-.36.36Zm10.65-11.52a11.89,11.89,0,0,0,.4-3.6,12.15,12.15,0,0,0-.4-3.6,4.08,4.08,0,0,0-7.59,0,11.12,11.12,0,0,0-.4,3.6,11,11,0,0,0,.4,3.6,4.05,4.05,0,0,0,7.59,0Z"/><path class="cls-1" d="M503.51,62.48a.34.34,0,0,1-.36-.36V45.59a.33.33,0,0,1,.36-.35h2.3a.33.33,0,0,1,.36.35v1.77h0a4.78,4.78,0,0,1,4.57-2.52,5.29,5.29,0,0,1,3.52,1.29c.18.18.22.33.08.51L513,48.4a.32.32,0,0,1-.5.07,4.89,4.89,0,0,0-2.66-.82c-2.63,0-3.71,2.05-3.71,5v9.43a.34.34,0,0,1-.36.36Z"/><path class="cls-1" d="M515.35,58.19a13.43,13.43,0,0,1-.58-4.35,13.43,13.43,0,0,1,.54-4.36,7.26,7.26,0,0,1,13.54,0,15.08,15.08,0,0,1,.54,4.93.35.35,0,0,1-.4.36h-10.9a.2.2,0,0,0-.22.22,6.47,6.47,0,0,0,.29,2.09,4.25,4.25,0,0,0,4.35,3,5.63,5.63,0,0,0,4.43-1.91c.18-.18.36-.22.54-.08L529,59.42a.31.31,0,0,1,0,.5,8.38,8.38,0,0,1-6.73,2.95C518.77,62.87,516.29,61.18,515.35,58.19Zm10.73-5.83a.19.19,0,0,0,.21-.21A6.08,6.08,0,0,0,526,50.2a4.25,4.25,0,0,0-7.92,0,6.08,6.08,0,0,0-.25,1.95c0,.14.07.21.22.21Z"/><path class="cls-1" d="M532.31,49.48a6.68,6.68,0,0,1,6.8-4.64,6.92,6.92,0,0,1,5.9,2.91c.11.18.11.33-.11.51l-1.58,1.29a.31.31,0,0,1-.5,0,4.24,4.24,0,0,0-3.71-1.87,3.74,3.74,0,0,0-3.85,2.7,11.4,11.4,0,0,0-.4,3.49,11.52,11.52,0,0,0,.4,3.53,3.74,3.74,0,0,0,3.85,2.7,4.25,4.25,0,0,0,3.71-1.88.31.31,0,0,1,.5,0l1.58,1.29c.22.18.22.33.11.51a6.9,6.9,0,0,1-5.9,2.91c-3.31,0-5.83-1.65-6.8-4.64a14.68,14.68,0,0,1-.54-4.39A14.65,14.65,0,0,1,532.31,49.48Z"/><path class="cls-1" d="M558.37,62.48a.34.34,0,0,1-.36-.36V60.61h0c-.79,1.29-2.48,2.26-5.11,2.26-3.27,0-5.79-1.69-5.79-5.18s2.52-5.33,6.73-5.33h3.92a.19.19,0,0,0,.22-.21V50.89c0-2.38-.94-3.39-4.14-3.39a6.71,6.71,0,0,0-4.18,1.23.32.32,0,0,1-.5,0l-1-1.65a.38.38,0,0,1,.07-.51,9.54,9.54,0,0,1,5.87-1.69c4.89,0,6.76,1.62,6.76,5.87V62.12a.34.34,0,0,1-.36.36Zm-.43-5.58V55a.2.2,0,0,0-.22-.22h-3.46c-3,0-4.28.87-4.28,2.81,0,1.77,1.3,2.7,3.6,2.7C556.28,60.28,557.94,59,557.94,56.9Z"/><path class="cls-1" d="M576,62.48a.34.34,0,0,1-.36-.36V60.5h0a5.25,5.25,0,0,1-4.71,2.37c-3.78,0-6-2.59-6-6.51V45.59a.34.34,0,0,1,.36-.35h2.31a.33.33,0,0,1,.35.35v10c0,2.81,1.26,4.43,3.82,4.43,2.34,0,3.89-1.66,3.89-4.25V45.59a.33.33,0,0,1,.36-.35h2.3a.33.33,0,0,1,.36.35V62.12a.34.34,0,0,1-.36.36Z"/><path class="cls-1" d="M582.63,49.48c1-3,3.49-4.64,6.81-4.64a6.94,6.94,0,0,1,5.9,2.91c.11.18.11.33-.11.51l-1.58,1.29a.32.32,0,0,1-.51,0,4.22,4.22,0,0,0-3.7-1.87,3.73,3.73,0,0,0-3.85,2.7,11.4,11.4,0,0,0-.4,3.49,11.52,11.52,0,0,0,.4,3.53,3.73,3.73,0,0,0,3.85,2.7,4.23,4.23,0,0,0,3.7-1.88.32.32,0,0,1,.51,0l1.58,1.29c.22.18.22.33.11.51a6.91,6.91,0,0,1-5.9,2.91c-3.32,0-5.84-1.65-6.81-4.64a15,15,0,0,1-.54-4.39A15,15,0,0,1,582.63,49.48Z"/><path class="cls-1" d="M599,41.35a.34.34,0,0,1-.36-.36V38.36A.34.34,0,0,1,599,38h2.44a.34.34,0,0,1,.36.36V41a.34.34,0,0,1-.36.36Zm.07,21.13a.34.34,0,0,1-.36-.36V45.59a.33.33,0,0,1,.36-.35h2.3a.33.33,0,0,1,.36.35V62.12a.34.34,0,0,1-.36.36Z"/><path class="cls-1" d="M605.71,58.23a12.85,12.85,0,0,1-.58-4.39,12.78,12.78,0,0,1,.58-4.36c.93-2.95,3.45-4.64,6.8-4.64s5.87,1.69,6.8,4.64a12.78,12.78,0,0,1,.58,4.36,12.85,12.85,0,0,1-.58,4.39,7.3,7.3,0,0,1-13.6,0Zm10.69-.86a11.32,11.32,0,0,0,.39-3.53,11,11,0,0,0-.39-3.49,4.15,4.15,0,0,0-7.78,0,11.26,11.26,0,0,0-.39,3.49,11.63,11.63,0,0,0,.39,3.53,4.15,4.15,0,0,0,7.78,0Z"/><path class="cls-1" d="M634.51,62.48a.34.34,0,0,1-.36-.36V52c0-2.77-1.26-4.39-3.86-4.39a3.86,3.86,0,0,0-3.95,4.21V62.12a.35.35,0,0,1-.37.36h-2.3a.35.35,0,0,1-.36-.36V45.59a.34.34,0,0,1,.36-.35H626a.34.34,0,0,1,.37.35v1.59h0a5.45,5.45,0,0,1,4.82-2.34c3.75,0,6,2.55,6,6.48v10.8a.34.34,0,0,1-.36.36Z"/><path class="cls-1" d="M641,58.19a13.43,13.43,0,0,1-.58-4.35,13.43,13.43,0,0,1,.54-4.36,7.26,7.26,0,0,1,13.54,0,15.08,15.08,0,0,1,.54,4.93.35.35,0,0,1-.4.36H643.72a.19.19,0,0,0-.21.22,6.2,6.2,0,0,0,.29,2.09,4.25,4.25,0,0,0,4.35,3,5.65,5.65,0,0,0,4.43-1.91c.18-.18.36-.22.54-.08l1.47,1.34a.32.32,0,0,1,0,.5,8.38,8.38,0,0,1-6.73,2.95C644.41,62.87,641.92,61.18,641,58.19Zm10.72-5.83c.15,0,.22-.07.22-.21a6.08,6.08,0,0,0-.25-1.95,4.25,4.25,0,0,0-7.92,0,6.08,6.08,0,0,0-.25,1.95.19.19,0,0,0,.21.21Z"/><path class="cls-1" d="M657.26,60.28a.35.35,0,0,1,0-.5l1.47-1.59a.36.36,0,0,1,.51,0,8.34,8.34,0,0,0,5.33,2c2.52,0,3.78-1.08,3.78-2.63,0-1.36-.65-2.12-3.35-2.41L663.16,55c-3.38-.36-5.15-2.05-5.15-4.86,0-3.27,2.34-5.25,6.41-5.25a10.32,10.32,0,0,1,6.12,1.91.34.34,0,0,1,.07.5l-1.22,1.55a.35.35,0,0,1-.5.07,9.09,9.09,0,0,0-4.65-1.4c-2.16,0-3.27,1-3.27,2.37s.82,2.09,3.38,2.34l1.8.18c3.49.33,5.18,2.09,5.18,4.86,0,3.39-2.44,5.65-6.94,5.65A10.73,10.73,0,0,1,657.26,60.28Z"/><path class="cls-1" d="M674.36,48.69v-3.1a.33.33,0,0,1,.36-.35h2.73a.33.33,0,0,1,.36.35v3.1a.34.34,0,0,1-.36.36h-2.73A.34.34,0,0,1,674.36,48.69Zm0,10.33a.34.34,0,0,1,.36-.36h2.73a.34.34,0,0,1,.36.36v3.1a.34.34,0,0,1-.36.36h-2.73a.34.34,0,0,1-.36-.36Z"/><path class="cls-1" d="M38.3,100.48a.35.35,0,0,1-.36-.36V98.46h0c-.83,1.37-2.31,2.41-4.9,2.41-3,0-5.07-1.4-5.94-4.14a14.5,14.5,0,0,1-.61-4.89A14.45,14.45,0,0,1,27.07,87c.87-2.74,2.95-4.14,5.94-4.14,2.59,0,4.07,1,4.9,2.37h0V76.36A.34.34,0,0,1,38.3,76h2.31a.34.34,0,0,1,.36.36v23.76a.35.35,0,0,1-.36.36Zm-.75-5a11.06,11.06,0,0,0,.39-3.6,11.18,11.18,0,0,0-.39-3.6,3.67,3.67,0,0,0-3.82-2.59A3.67,3.67,0,0,0,30,88.24a12.54,12.54,0,0,0-.39,3.6,12.28,12.28,0,0,0,.39,3.6,3.7,3.7,0,0,0,3.78,2.63A3.7,3.7,0,0,0,37.55,95.44Z"/><path class="cls-1" d="M46.41,96.19a13.43,13.43,0,0,1-.58-4.35,13.43,13.43,0,0,1,.54-4.36,6.67,6.67,0,0,1,6.77-4.64,6.67,6.67,0,0,1,6.76,4.64,15.08,15.08,0,0,1,.54,4.93.35.35,0,0,1-.39.36H49.14a.2.2,0,0,0-.22.22,6.47,6.47,0,0,0,.29,2.09,4.27,4.27,0,0,0,4.36,3A5.65,5.65,0,0,0,58,96.16c.18-.18.36-.22.54-.08L60,97.42a.32.32,0,0,1,0,.5,8.38,8.38,0,0,1-6.73,3C49.83,100.87,47.34,99.18,46.41,96.19Zm10.72-5.83c.15,0,.22-.07.22-.21a6.08,6.08,0,0,0-.25-2,4.25,4.25,0,0,0-7.92,0,6.05,6.05,0,0,0-.26,2,.19.19,0,0,0,.22.21Z"/><path class="cls-1" d="M69.44,100.66c-3,0-4.21-1.44-4.21-4.54V76.36a.34.34,0,0,1,.36-.36H67.9a.34.34,0,0,1,.36.36V95.94c0,1.44.54,1.91,1.72,1.91h.69a.34.34,0,0,1,.36.36v2.09a.35.35,0,0,1-.36.36Z"/><path class="cls-1" d="M75.56,79.35A.35.35,0,0,1,75.2,79V76.36a.34.34,0,0,1,.36-.36H78a.34.34,0,0,1,.36.36V79a.34.34,0,0,1-.36.36Zm.08,21.13a.34.34,0,0,1-.36-.36V83.59a.33.33,0,0,1,.36-.35h2.3a.33.33,0,0,1,.36.35v16.53a.34.34,0,0,1-.36.36Z"/><path class="cls-1" d="M106.23,100.48a.35.35,0,0,1-.36-.36V90c0-2.77-1.26-4.39-3.85-4.39a3.89,3.89,0,0,0-4,4.21v10.26a.34.34,0,0,1-.36.36H95.4a.34.34,0,0,1-.36-.36V90c0-2.77-1.26-4.39-3.85-4.39a3.87,3.87,0,0,0-4,4.21v10.26a.35.35,0,0,1-.36.36H84.56a.35.35,0,0,1-.36-.36V83.59a.34.34,0,0,1,.36-.35h2.31a.34.34,0,0,1,.36.35v1.59h0a6.1,6.1,0,0,1,9.87.36h0a6.41,6.41,0,0,1,5.58-2.7c4,0,6.16,2.55,6.16,6.48v10.8a.35.35,0,0,1-.36.36Z"/><path class="cls-1" d="M114.91,79.35a.35.35,0,0,1-.36-.36V76.36a.34.34,0,0,1,.36-.36h2.45a.34.34,0,0,1,.36.36V79a.34.34,0,0,1-.36.36Zm.07,21.13a.35.35,0,0,1-.36-.36V83.59a.34.34,0,0,1,.36-.35h2.31a.34.34,0,0,1,.36.35v16.53a.35.35,0,0,1-.36.36Z"/><path class="cls-1" d="M128.55,100.66c-3.34,0-4.64-1.52-4.64-4.9V85.9a.19.19,0,0,0-.22-.22h-1.43a.34.34,0,0,1-.36-.36V83.59a.33.33,0,0,1,.36-.35h1.43a.2.2,0,0,0,.22-.22V78.16a.34.34,0,0,1,.36-.36h2.3a.34.34,0,0,1,.36.36V83a.2.2,0,0,0,.22.22h2.74a.34.34,0,0,1,.36.35v1.73a.34.34,0,0,1-.36.36h-2.74a.2.2,0,0,0-.22.22v9.75c0,1.73.65,2.2,2.2,2.2h.76a.34.34,0,0,1,.36.36v2.09a.35.35,0,0,1-.36.36Z"/><path class="cls-1" d="M134.46,96.19a13.43,13.43,0,0,1-.58-4.35,13.43,13.43,0,0,1,.54-4.36,7.26,7.26,0,0,1,13.54,0,15.08,15.08,0,0,1,.54,4.93.35.35,0,0,1-.4.36H137.19A.19.19,0,0,0,137,93a6.47,6.47,0,0,0,.29,2.09,4.25,4.25,0,0,0,4.35,3,5.65,5.65,0,0,0,4.43-1.91c.18-.18.36-.22.54-.08l1.48,1.34a.31.31,0,0,1,0,.5,8.38,8.38,0,0,1-6.73,3C137.88,100.87,135.39,99.18,134.46,96.19Zm10.73-5.83a.19.19,0,0,0,.21-.21,6.08,6.08,0,0,0-.25-2,4.25,4.25,0,0,0-7.92,0,6.08,6.08,0,0,0-.25,2,.19.19,0,0,0,.21.21Z"/><path class="cls-1" d="M161.53,96.19a13.43,13.43,0,0,1-.58-4.35,13.43,13.43,0,0,1,.54-4.36,7.26,7.26,0,0,1,13.54,0,15.08,15.08,0,0,1,.54,4.93.35.35,0,0,1-.4.36h-10.9a.2.2,0,0,0-.22.22,6.47,6.47,0,0,0,.29,2.09,4.25,4.25,0,0,0,4.35,3,5.63,5.63,0,0,0,4.43-1.91c.18-.18.36-.22.54-.08l1.48,1.34a.31.31,0,0,1,0,.5,8.38,8.38,0,0,1-6.73,3C165,100.87,162.47,99.18,161.53,96.19Zm10.73-5.83a.19.19,0,0,0,.21-.21,6.08,6.08,0,0,0-.25-2,4.25,4.25,0,0,0-7.92,0,6.08,6.08,0,0,0-.25,2c0,.14.07.21.22.21Z"/><path class="cls-1" d="M184.57,100.66c-3,0-4.21-1.44-4.21-4.54V76.36a.34.34,0,0,1,.36-.36H183a.34.34,0,0,1,.36.36V95.94c0,1.44.54,1.91,1.73,1.91h.68a.34.34,0,0,1,.36.36v2.09a.34.34,0,0,1-.36.36Z"/><path class="cls-1" d="M209.48,100.48a.34.34,0,0,1-.36-.36V98.61h0c-.79,1.29-2.48,2.26-5.11,2.26-3.27,0-5.79-1.69-5.79-5.18s2.52-5.33,6.73-5.33h3.92c.15,0,.22-.07.22-.21V88.89c0-2.38-.94-3.39-4.14-3.39a6.71,6.71,0,0,0-4.18,1.23.32.32,0,0,1-.5,0l-1-1.65a.38.38,0,0,1,.07-.51,9.56,9.56,0,0,1,5.87-1.69c4.89,0,6.76,1.62,6.76,5.87v11.41a.34.34,0,0,1-.36.36Zm-.43-5.58V93a.2.2,0,0,0-.22-.22h-3.45c-3,0-4.29.87-4.29,2.81,0,1.77,1.3,2.7,3.6,2.7C207.39,98.28,209.05,97,209.05,94.9Zm-4.86-14.47c-.22,0-.33-.15-.22-.36l2.74-4.43a.63.63,0,0,1,.61-.36h2.38a.21.21,0,0,1,.18.36l-3.32,4.43a.7.7,0,0,1-.68.36Z"/><path class="cls-1" d="M218.09,100.48a.35.35,0,0,1-.37-.36V83.59a.34.34,0,0,1,.37-.35h2.3a.34.34,0,0,1,.36.35v1.77h0a4.81,4.81,0,0,1,4.58-2.52,5.29,5.29,0,0,1,3.52,1.29c.18.18.22.33.08.51l-1.34,1.76a.32.32,0,0,1-.5.07,4.89,4.89,0,0,0-2.66-.82c-2.63,0-3.71,2-3.71,5v9.43a.35.35,0,0,1-.36.36Z"/><path class="cls-1" d="M231.37,96.19a13.43,13.43,0,0,1-.58-4.35,13.43,13.43,0,0,1,.54-4.36,7.26,7.26,0,0,1,13.54,0,15.08,15.08,0,0,1,.54,4.93.35.35,0,0,1-.4.36H234.1a.19.19,0,0,0-.21.22,6.47,6.47,0,0,0,.29,2.09,4.25,4.25,0,0,0,4.35,3A5.65,5.65,0,0,0,243,96.16c.18-.18.36-.22.54-.08L245,97.42a.31.31,0,0,1,0,.5,8.38,8.38,0,0,1-6.73,3C234.79,100.87,232.3,99.18,231.37,96.19Zm10.73-5.83a.19.19,0,0,0,.21-.21,6.08,6.08,0,0,0-.25-2,4.25,4.25,0,0,0-7.92,0,6.08,6.08,0,0,0-.25,2,.19.19,0,0,0,.21.21Z"/><path class="cls-1" d="M260.71,100.48a.34.34,0,0,1-.36-.36V98.61h0c-.79,1.29-2.48,2.26-5.11,2.26-3.28,0-5.8-1.69-5.8-5.18s2.52-5.33,6.74-5.33h3.92a.19.19,0,0,0,.21-.21V88.89c0-2.38-.93-3.39-4.13-3.39A6.71,6.71,0,0,0,252,86.73c-.18.14-.4.14-.5,0l-1-1.65a.39.39,0,0,1,.08-.51,9.53,9.53,0,0,1,5.86-1.69c4.9,0,6.77,1.62,6.77,5.87v11.41a.34.34,0,0,1-.36.36Zm-.44-5.58V93a.19.19,0,0,0-.21-.22H256.6c-3,0-4.28.87-4.28,2.81,0,1.77,1.3,2.7,3.6,2.7C258.62,98.28,260.27,97,260.27,94.9Z"/><path class="cls-1" d="M288.39,100.48a.34.34,0,0,1-.36-.36V98.46h0c-.82,1.37-2.3,2.41-4.89,2.41-3,0-5.08-1.4-5.94-4.14a14.25,14.25,0,0,1-.61-4.89,14.2,14.2,0,0,1,.61-4.86c.86-2.74,2.95-4.14,5.94-4.14,2.59,0,4.07,1,4.89,2.37h0V76.36a.34.34,0,0,1,.36-.36h2.3a.34.34,0,0,1,.36.36v23.76a.34.34,0,0,1-.36.36Zm-.76-5a11,11,0,0,0,.4-3.6,11.12,11.12,0,0,0-.4-3.6,4.08,4.08,0,0,0-7.59,0,12.15,12.15,0,0,0-.4,3.6,11.89,11.89,0,0,0,.4,3.6,4.05,4.05,0,0,0,7.59,0Z"/><path class="cls-1" d="M296.49,96.19a13.48,13.48,0,0,1-.57-4.35,13.43,13.43,0,0,1,.54-4.36,7.25,7.25,0,0,1,13.53,0,15.08,15.08,0,0,1,.54,4.93c0,.22-.14.36-.4.36h-10.9A.2.2,0,0,0,299,93a6.47,6.47,0,0,0,.29,2.09,4.26,4.26,0,0,0,4.36,3,5.61,5.61,0,0,0,4.42-1.91c.18-.18.36-.22.54-.08l1.48,1.34a.31.31,0,0,1,0,.5,8.35,8.35,0,0,1-6.73,3C299.91,100.87,297.43,99.18,296.49,96.19Zm10.73-5.83a.19.19,0,0,0,.21-.21,6.08,6.08,0,0,0-.25-2,4.25,4.25,0,0,0-7.92,0,6.08,6.08,0,0,0-.25,2c0,.14.07.21.22.21Z"/><path class="cls-1" d="M329,100.66c-3.34,0-4.64-1.52-4.64-4.9V85.9a.19.19,0,0,0-.22-.22h-1.43a.34.34,0,0,1-.36-.36V83.59a.33.33,0,0,1,.36-.35h1.43a.2.2,0,0,0,.22-.22V78.16a.34.34,0,0,1,.36-.36h2.3a.34.34,0,0,1,.37.36V83a.19.19,0,0,0,.21.22h2.74a.34.34,0,0,1,.36.35v1.73a.34.34,0,0,1-.36.36h-2.74c-.14,0-.21.07-.21.22v9.75c0,1.73.64,2.2,2.19,2.2h.76a.34.34,0,0,1,.36.36v2.09a.35.35,0,0,1-.36.36Z"/><path class="cls-1" d="M335.77,100.48a.34.34,0,0,1-.36-.36V83.59a.33.33,0,0,1,.36-.35h2.3a.33.33,0,0,1,.36.35v1.77h0A4.78,4.78,0,0,1,343,82.84a5.32,5.32,0,0,1,3.53,1.29c.18.18.21.33.07.51l-1.33,1.76a.33.33,0,0,1-.51.07,4.86,4.86,0,0,0-2.66-.82c-2.63,0-3.71,2-3.71,5v9.43a.34.34,0,0,1-.36.36Z"/><path class="cls-1" d="M359.74,100.48a.35.35,0,0,1-.36-.36V98.61h0c-.8,1.29-2.49,2.26-5.12,2.26-3.27,0-5.79-1.69-5.79-5.18s2.52-5.33,6.73-5.33h3.92c.15,0,.22-.07.22-.21V88.89c0-2.38-.94-3.39-4.14-3.39A6.73,6.73,0,0,0,351,86.73a.32.32,0,0,1-.5,0l-1-1.65a.39.39,0,0,1,.07-.51,9.56,9.56,0,0,1,5.87-1.69c4.89,0,6.77,1.62,6.77,5.87v11.41a.35.35,0,0,1-.36.36Zm-.43-5.58V93a.2.2,0,0,0-.22-.22h-3.45c-3,0-4.29.87-4.29,2.81,0,1.77,1.3,2.7,3.6,2.7C357.65,98.28,359.31,97,359.31,94.9Z"/><path class="cls-1" d="M368.35,100.48a.34.34,0,0,1-.36-.36V76.36a.34.34,0,0,1,.36-.36h2.3a.34.34,0,0,1,.36.36v8.85h0c.82-1.36,2.3-2.37,4.89-2.37,3,0,5.08,1.4,5.94,4.14a14.2,14.2,0,0,1,.61,4.86,14.25,14.25,0,0,1-.61,4.89c-.86,2.74-2.95,4.14-5.94,4.14-2.59,0-4.07-1-4.89-2.41h0v1.66a.34.34,0,0,1-.36.36Zm10.65-5a11.89,11.89,0,0,0,.4-3.6,12.15,12.15,0,0,0-.4-3.6,4.08,4.08,0,0,0-7.59,0,11.12,11.12,0,0,0-.4,3.6,11,11,0,0,0,.4,3.6,4.05,4.05,0,0,0,7.59,0Z"/><path class="cls-1" d="M397.79,100.48a.35.35,0,0,1-.36-.36V98.61h0c-.79,1.29-2.49,2.26-5.11,2.26-3.28,0-5.8-1.69-5.8-5.18s2.52-5.33,6.73-5.33h3.93a.19.19,0,0,0,.21-.21V88.89c0-2.38-.94-3.39-4.14-3.39a6.68,6.68,0,0,0-4.17,1.23.33.33,0,0,1-.51,0l-1-1.65a.39.39,0,0,1,.07-.51,9.56,9.56,0,0,1,5.87-1.69c4.9,0,6.77,1.62,6.77,5.87v11.41a.35.35,0,0,1-.36.36Zm-.43-5.58V93a.19.19,0,0,0-.21-.22h-3.46c-3,0-4.28.87-4.28,2.81,0,1.77,1.29,2.7,3.6,2.7C395.71,98.28,397.36,97,397.36,94.9Z"/><path class="cls-1" d="M403.19,107a.34.34,0,0,1-.35-.36v-2.09a.33.33,0,0,1,.35-.36h.58c1.69,0,2.27-.47,2.27-2.31V83.59a.33.33,0,0,1,.36-.35h2.3a.33.33,0,0,1,.36.35v18.18c0,3.71-1.65,5.19-5.14,5.19Zm3.14-27.61A.34.34,0,0,1,406,79V76.36a.34.34,0,0,1,.36-.36h2.44a.34.34,0,0,1,.36.36V79a.34.34,0,0,1-.36.36Z"/><path class="cls-1" d="M414.5,96.23a12.85,12.85,0,0,1-.58-4.39,12.78,12.78,0,0,1,.58-4.36c.93-3,3.45-4.64,6.8-4.64s5.87,1.69,6.8,4.64a12.78,12.78,0,0,1,.58,4.36,12.85,12.85,0,0,1-.58,4.39,7.3,7.3,0,0,1-13.6,0Zm10.69-.86a11.27,11.27,0,0,0,.4-3.53,10.91,10.91,0,0,0-.4-3.49,4.15,4.15,0,0,0-7.78,0,11.26,11.26,0,0,0-.39,3.49,11.63,11.63,0,0,0,.39,3.53,4.15,4.15,0,0,0,7.78,0Z"/><path class="cls-1" d="M433.47,96.66H436a.34.34,0,0,1,.36.36v3.35a1.14,1.14,0,0,1-.22.79l-2.23,3a.56.56,0,0,1-.47.25.32.32,0,0,1-.32-.32V97A.34.34,0,0,1,433.47,96.66Z"/><path class="cls-1" d="M460.14,100.48a.35.35,0,0,1-.36-.36V98.61h0c-.79,1.29-2.49,2.26-5.11,2.26-3.28,0-5.8-1.69-5.8-5.18s2.52-5.33,6.73-5.33h3.93a.19.19,0,0,0,.21-.21V88.89c0-2.38-.93-3.39-4.14-3.39a6.7,6.7,0,0,0-4.17,1.23.33.33,0,0,1-.51,0l-1-1.65a.39.39,0,0,1,.07-.51,9.56,9.56,0,0,1,5.87-1.69c4.9,0,6.77,1.62,6.77,5.87v11.41a.35.35,0,0,1-.36.36Zm-.43-5.58V93a.19.19,0,0,0-.21-.22H456c-3,0-4.28.87-4.28,2.81,0,1.77,1.29,2.7,3.6,2.7C458.06,98.28,459.71,97,459.71,94.9Z"/><path class="cls-1" d="M467.2,98.28a.35.35,0,0,1,0-.5l1.48-1.59a.35.35,0,0,1,.5,0,8.37,8.37,0,0,0,5.33,2c2.52,0,3.78-1.08,3.78-2.63,0-1.36-.65-2.12-3.35-2.41L473.1,93c-3.38-.36-5.14-2-5.14-4.86,0-3.27,2.34-5.25,6.4-5.25a10.32,10.32,0,0,1,6.12,1.91.35.35,0,0,1,.08.5l-1.23,1.55a.35.35,0,0,1-.5.07,9.09,9.09,0,0,0-4.65-1.4c-2.16,0-3.27,1-3.27,2.37s.83,2.09,3.38,2.34l1.8.18c3.49.33,5.19,2.09,5.19,4.86,0,3.39-2.45,5.65-6.95,5.65A10.73,10.73,0,0,1,467.2,98.28Z"/><path class="cls-1" d="M485.56,96.19a13.43,13.43,0,0,1-.58-4.35,13.71,13.71,0,0,1,.54-4.36,7.26,7.26,0,0,1,13.54,0,15.08,15.08,0,0,1,.54,4.93c0,.22-.14.36-.4.36H488.3a.2.2,0,0,0-.22.22,6.47,6.47,0,0,0,.29,2.09,4.25,4.25,0,0,0,4.35,3,5.62,5.62,0,0,0,4.43-1.91c.18-.18.36-.22.54-.08l1.48,1.34a.31.31,0,0,1,0,.5,8.35,8.35,0,0,1-6.73,3C489,100.87,486.5,99.18,485.56,96.19Zm10.73-5.83a.19.19,0,0,0,.21-.21,6.08,6.08,0,0,0-.25-2,4.25,4.25,0,0,0-7.92,0,6.08,6.08,0,0,0-.25,2c0,.14.07.21.22.21Z"/><path class="cls-1" d="M504.1,104.8a.33.33,0,0,1,0-.51l1.47-1.47a.34.34,0,0,1,.54,0,5.75,5.75,0,0,0,4.07,1.72c2.84,0,4.36-1.47,4.36-4.64v-2h0c-.79,1.45-2.27,2.38-4.79,2.38A5.64,5.64,0,0,1,504,96.08a13.23,13.23,0,0,1-.58-4.53A13.32,13.32,0,0,1,504,87a5.64,5.64,0,0,1,5.79-4.17c2.52,0,4,.94,4.79,2.37h0V83.59a.33.33,0,0,1,.35-.35h2.31a.33.33,0,0,1,.36.35V99.72c0,4.9-2.67,7.63-7.52,7.63A7.79,7.79,0,0,1,504.1,104.8Zm10.08-9.9a10.43,10.43,0,0,0,.4-3.35,10.55,10.55,0,0,0-.4-3.35,3.89,3.89,0,0,0-7.31,0,10.78,10.78,0,0,0-.43,3.35,10.65,10.65,0,0,0,.43,3.35,3.53,3.53,0,0,0,3.64,2.59A3.56,3.56,0,0,0,514.18,94.9Z"/><path class="cls-1" d="M534.34,100.48a.34.34,0,0,1-.36-.36V98.5h0a5.25,5.25,0,0,1-4.71,2.37c-3.78,0-6-2.59-6-6.51V83.59a.34.34,0,0,1,.36-.35h2.31a.34.34,0,0,1,.36.35v10c0,2.81,1.26,4.43,3.81,4.43,2.34,0,3.89-1.66,3.89-4.25V83.59a.33.33,0,0,1,.36-.35h2.3a.33.33,0,0,1,.36.35v16.53a.34.34,0,0,1-.36.36Zm-5.4-20c-.22,0-.32-.15-.22-.36l2.74-4.43a.63.63,0,0,1,.61-.36h2.38a.21.21,0,0,1,.18.36l-3.31,4.43a.71.71,0,0,1-.69.36Z"/><path class="cls-1" d="M543.27,100.48a.34.34,0,0,1-.36-.36V83.59a.33.33,0,0,1,.36-.35h2.3a.33.33,0,0,1,.36.35v1.77h0a4.79,4.79,0,0,1,4.57-2.52,5.32,5.32,0,0,1,3.53,1.29c.18.18.21.33.07.51l-1.33,1.76a.33.33,0,0,1-.51.07,4.86,4.86,0,0,0-2.66-.82c-2.63,0-3.71,2-3.71,5v9.43a.34.34,0,0,1-.36.36Z"/><path class="cls-1" d="M556.55,96.19a13.48,13.48,0,0,1-.57-4.35,13.43,13.43,0,0,1,.54-4.36,7.25,7.25,0,0,1,13.53,0,15.08,15.08,0,0,1,.54,4.93c0,.22-.14.36-.4.36h-10.9a.2.2,0,0,0-.22.22,6.47,6.47,0,0,0,.29,2.09,4.25,4.25,0,0,0,4.35,3,5.62,5.62,0,0,0,4.43-1.91c.18-.18.36-.22.54-.08l1.48,1.34a.31.31,0,0,1,0,.5,8.35,8.35,0,0,1-6.73,3C560,100.87,557.49,99.18,556.55,96.19Zm10.73-5.83a.19.19,0,0,0,.21-.21,6.08,6.08,0,0,0-.25-2,4.25,4.25,0,0,0-7.92,0,6.08,6.08,0,0,0-.25,2c0,.14.07.21.22.21Z"/><path class="cls-1" d="M574.26,98.28a.35.35,0,0,1,0-.5l1.48-1.59a.35.35,0,0,1,.5,0,8.37,8.37,0,0,0,5.33,2c2.52,0,3.78-1.08,3.78-2.63,0-1.36-.65-2.12-3.35-2.41L580.17,93c-3.39-.36-5.15-2-5.15-4.86,0-3.27,2.34-5.25,6.41-5.25a10.32,10.32,0,0,1,6.12,1.91.34.34,0,0,1,.07.5l-1.23,1.55a.35.35,0,0,1-.5.07,9.09,9.09,0,0,0-4.64-1.4c-2.16,0-3.28,1-3.28,2.37s.83,2.09,3.38,2.34l1.81.18c3.49.33,5.18,2.09,5.18,4.86,0,3.39-2.45,5.65-7,5.65A10.75,10.75,0,0,1,574.26,98.28Z"/><path class="cls-1" d="M592.62,96.19a13.48,13.48,0,0,1-.57-4.35,13.43,13.43,0,0,1,.54-4.36,7.25,7.25,0,0,1,13.53,0,15.08,15.08,0,0,1,.54,4.93.35.35,0,0,1-.39.36H595.36a.2.2,0,0,0-.22.22,6.47,6.47,0,0,0,.29,2.09,4.27,4.27,0,0,0,4.36,3,5.61,5.61,0,0,0,4.42-1.91c.18-.18.36-.22.54-.08l1.48,1.34a.32.32,0,0,1,0,.5,8.39,8.39,0,0,1-6.74,3C596,100.87,593.56,99.18,592.62,96.19Zm10.73-5.83a.19.19,0,0,0,.22-.21,6.05,6.05,0,0,0-.26-2,4.25,4.25,0,0,0-7.91,0,5.79,5.79,0,0,0-.26,2c0,.14.07.21.22.21Z"/><path class="cls-1" d="M631,100.48a.35.35,0,0,1-.36-.36V98.46h0c-.83,1.37-2.31,2.41-4.9,2.41-3,0-5.08-1.4-5.94-4.14a14.25,14.25,0,0,1-.61-4.89,14.2,14.2,0,0,1,.61-4.86c.86-2.74,2.95-4.14,5.94-4.14,2.59,0,4.07,1,4.9,2.37h0V76.36A.34.34,0,0,1,631,76h2.3a.34.34,0,0,1,.37.36v23.76a.35.35,0,0,1-.37.36Zm-.75-5a11.35,11.35,0,0,0,.39-3.6,11.47,11.47,0,0,0-.39-3.6,4.08,4.08,0,0,0-7.6,0,12.15,12.15,0,0,0-.4,3.6,11.89,11.89,0,0,0,.4,3.6,4.06,4.06,0,0,0,7.6,0Z"/><path class="cls-1" d="M639.06,96.19a13.48,13.48,0,0,1-.57-4.35,13.43,13.43,0,0,1,.54-4.36,7.25,7.25,0,0,1,13.53,0,15.08,15.08,0,0,1,.54,4.93c0,.22-.14.36-.4.36H641.8a.2.2,0,0,0-.22.22,6.47,6.47,0,0,0,.29,2.09,4.26,4.26,0,0,0,4.36,3,5.61,5.61,0,0,0,4.42-1.91c.18-.18.36-.22.54-.08l1.48,1.34a.31.31,0,0,1,0,.5,8.35,8.35,0,0,1-6.73,3C642.48,100.87,640,99.18,639.06,96.19Zm10.73-5.83a.19.19,0,0,0,.22-.21,6.05,6.05,0,0,0-.26-2,4.25,4.25,0,0,0-7.92,0,6.08,6.08,0,0,0-.25,2c0,.14.07.21.22.21Z"/><path class="cls-1" d="M37.76,138.48a.34.34,0,0,1-.35-.36V128c0-2.77-1.27-4.39-3.86-4.39a3.87,3.87,0,0,0-4,4.21v10.26a.34.34,0,0,1-.36.36h-2.3a.34.34,0,0,1-.36-.36V114.36a.34.34,0,0,1,.36-.36h2.3a.34.34,0,0,1,.36.36v8.82h0a5.45,5.45,0,0,1,4.82-2.34c3.75,0,6,2.55,6,6.48v10.8a.35.35,0,0,1-.36.36Z"/><path class="cls-1" d="M55.87,138.48a.35.35,0,0,1-.36-.36v-1.51h0c-.8,1.29-2.49,2.26-5.11,2.26-3.28,0-5.8-1.69-5.8-5.18s2.52-5.33,6.73-5.33h3.92c.15,0,.22-.07.22-.21v-1.26c0-2.38-.93-3.39-4.14-3.39a6.68,6.68,0,0,0-4.17,1.23.33.33,0,0,1-.51,0l-1-1.65a.39.39,0,0,1,.07-.51,9.56,9.56,0,0,1,5.87-1.69c4.89,0,6.77,1.62,6.77,5.87v11.41a.35.35,0,0,1-.36.36Zm-.43-5.58V131a.2.2,0,0,0-.22-.22H51.77c-3,0-4.28.87-4.28,2.81,0,1.77,1.29,2.7,3.6,2.7C53.78,136.28,55.44,135,55.44,132.9Z"/><path class="cls-1" d="M62.89,125.48a6.7,6.7,0,0,1,6.81-4.64,6.94,6.94,0,0,1,5.9,2.91c.11.18.11.33-.11.51l-1.58,1.29a.32.32,0,0,1-.51,0,4.22,4.22,0,0,0-3.7-1.87,3.74,3.74,0,0,0-3.85,2.7,11.4,11.4,0,0,0-.4,3.49,11.52,11.52,0,0,0,.4,3.53,3.74,3.74,0,0,0,3.85,2.7,4.23,4.23,0,0,0,3.7-1.88.32.32,0,0,1,.51,0l1.58,1.29c.22.18.22.33.11.51a6.91,6.91,0,0,1-5.9,2.91,6.69,6.69,0,0,1-6.81-4.64,18,18,0,0,1,0-8.75Z"/><path class="cls-1" d="M78.77,134.19a17.21,17.21,0,0,1,0-8.71,7.26,7.26,0,0,1,13.54,0,15.08,15.08,0,0,1,.54,4.93.35.35,0,0,1-.4.36H81.51a.2.2,0,0,0-.22.22,6.47,6.47,0,0,0,.29,2.09,4.25,4.25,0,0,0,4.35,3,5.65,5.65,0,0,0,4.43-1.91c.18-.18.36-.22.54-.08l1.48,1.34a.31.31,0,0,1,0,.5,8.38,8.38,0,0,1-6.73,3C82.19,138.87,79.71,137.18,78.77,134.19Zm10.73-5.83a.19.19,0,0,0,.21-.21,6.08,6.08,0,0,0-.25-2,4.25,4.25,0,0,0-7.92,0,6.08,6.08,0,0,0-.25,2c0,.14.07.21.22.21Z"/><path class="cls-1" d="M97.31,138.48a.34.34,0,0,1-.36-.36V121.59a.33.33,0,0,1,.36-.35h2.3a.33.33,0,0,1,.36.35v1.77h0a4.79,4.79,0,0,1,4.57-2.52,5.32,5.32,0,0,1,3.53,1.29c.18.18.21.33.07.51l-1.33,1.76a.33.33,0,0,1-.51.07,4.86,4.86,0,0,0-2.66-.82c-2.63,0-3.71,2-3.71,5v9.43a.34.34,0,0,1-.36.36Z"/><path class="cls-1" d="M109.51,136.28a.35.35,0,0,1,0-.5l1.48-1.59a.35.35,0,0,1,.5,0,8.37,8.37,0,0,0,5.33,2c2.52,0,3.78-1.08,3.78-2.63,0-1.36-.65-2.12-3.35-2.41l-1.83-.18c-3.39-.36-5.15-2-5.15-4.86,0-3.27,2.34-5.25,6.41-5.25a10.32,10.32,0,0,1,6.12,1.91.34.34,0,0,1,.07.5l-1.23,1.55a.35.35,0,0,1-.5.07,9.09,9.09,0,0,0-4.64-1.4c-2.16,0-3.28,1-3.28,2.37s.83,2.09,3.38,2.34l1.8.18c3.5.33,5.19,2.09,5.19,4.86,0,3.39-2.45,5.65-7,5.65A10.75,10.75,0,0,1,109.51,136.28Z"/><path class="cls-1" d="M127.15,134.19a17.36,17.36,0,0,1,0-8.71,7.25,7.25,0,0,1,13.53,0,15.08,15.08,0,0,1,.54,4.93.35.35,0,0,1-.39.36H129.89a.2.2,0,0,0-.22.22,6.47,6.47,0,0,0,.29,2.09,4.26,4.26,0,0,0,4.36,3,5.61,5.61,0,0,0,4.42-1.91c.18-.18.36-.22.54-.08l1.48,1.34a.32.32,0,0,1,0,.5,8.39,8.39,0,0,1-6.74,3C130.57,138.87,128.09,137.18,127.15,134.19Zm10.73-5.83a.19.19,0,0,0,.21-.21,6.08,6.08,0,0,0-.25-2,4.25,4.25,0,0,0-7.92,0,6.08,6.08,0,0,0-.25,2c0,.14.07.21.22.21Z"/><path class="cls-1" d="M157.86,138.48c-.25,0-.36-.15-.43-.36l-6.19-16.53c-.08-.21,0-.35.28-.35H154c.25,0,.36.1.47.35L158.94,134H159l4.36-12.39a.41.41,0,0,1,.43-.35h2.45c.25,0,.36.14.28.35l-6.15,16.53a.47.47,0,0,1-.47.36Z"/><path class="cls-1" d="M170,117.35a.35.35,0,0,1-.36-.36v-2.63A.34.34,0,0,1,170,114h2.45a.34.34,0,0,1,.36.36V117a.34.34,0,0,1-.36.36Zm.07,21.13a.35.35,0,0,1-.36-.36V121.59a.34.34,0,0,1,.36-.35h2.31a.34.34,0,0,1,.36.35v16.53a.35.35,0,0,1-.36.36Z"/><path class="cls-1" d="M176.72,136.28a.35.35,0,0,1,0-.5l1.48-1.59a.35.35,0,0,1,.5,0,8.37,8.37,0,0,0,5.33,2c2.52,0,3.78-1.08,3.78-2.63,0-1.36-.65-2.12-3.35-2.41l-1.83-.18c-3.39-.36-5.15-2-5.15-4.86,0-3.27,2.34-5.25,6.41-5.25a10.32,10.32,0,0,1,6.12,1.91.34.34,0,0,1,.07.5l-1.23,1.55a.35.35,0,0,1-.5.07,9.09,9.09,0,0,0-4.64-1.4c-2.16,0-3.28,1-3.28,2.37s.83,2.09,3.38,2.34l1.8.18c3.5.33,5.19,2.09,5.19,4.86,0,3.39-2.45,5.65-7,5.65A10.75,10.75,0,0,1,176.72,136.28Z"/><path class="cls-1" d="M195.12,117.35a.34.34,0,0,1-.36-.36v-2.63a.34.34,0,0,1,.36-.36h2.45a.34.34,0,0,1,.36.36V117a.35.35,0,0,1-.36.36Zm.07,21.13a.34.34,0,0,1-.36-.36V121.59a.33.33,0,0,1,.36-.35h2.3a.33.33,0,0,1,.36.35v16.53a.34.34,0,0,1-.36.36Z"/><path class="cls-1" d="M203.4,138.48a.34.34,0,0,1-.36-.36V114.36a.34.34,0,0,1,.36-.36h2.3a.34.34,0,0,1,.36.36v8.85h0c.83-1.36,2.3-2.37,4.89-2.37,3,0,5.08,1.4,5.94,4.14a14.2,14.2,0,0,1,.61,4.86,14.25,14.25,0,0,1-.61,4.89c-.86,2.74-3,4.14-5.94,4.14-2.59,0-4.06-1-4.89-2.41h0v1.66a.34.34,0,0,1-.36.36Zm10.65-5a11.89,11.89,0,0,0,.4-3.6,12.15,12.15,0,0,0-.4-3.6,4.08,4.08,0,0,0-7.59,0,11.12,11.12,0,0,0-.4,3.6,11,11,0,0,0,.4,3.6,4.05,4.05,0,0,0,7.59,0Z"/><path class="cls-1" d="M225.83,138.66c-3,0-4.22-1.44-4.22-4.54V114.36A.34.34,0,0,1,222,114h2.31a.34.34,0,0,1,.36.36v19.58c0,1.44.54,1.91,1.73,1.91h.68a.34.34,0,0,1,.36.36v2.09a.35.35,0,0,1-.36.36Z"/><path class="cls-1" d="M230.47,134.19a17.21,17.21,0,0,1,0-8.71,7.26,7.26,0,0,1,13.54,0,15.08,15.08,0,0,1,.54,4.93.35.35,0,0,1-.4.36h-10.9a.2.2,0,0,0-.22.22,6.47,6.47,0,0,0,.29,2.09,4.25,4.25,0,0,0,4.35,3,5.65,5.65,0,0,0,4.43-1.91c.18-.18.36-.22.54-.08l1.48,1.34a.31.31,0,0,1,0,.5,8.38,8.38,0,0,1-6.73,3C233.89,138.87,231.41,137.18,230.47,134.19Zm10.73-5.83a.19.19,0,0,0,.21-.21,6.08,6.08,0,0,0-.25-2,4.25,4.25,0,0,0-7.92,0,6.08,6.08,0,0,0-.25,2c0,.14.07.21.22.21Z"/><path class="cls-1" d="M247.46,136.28a.35.35,0,0,1,0-.5l1.48-1.59a.35.35,0,0,1,.5,0,8.37,8.37,0,0,0,5.33,2c2.52,0,3.78-1.08,3.78-2.63,0-1.36-.65-2.12-3.35-2.41l-1.84-.18c-3.38-.36-5.14-2-5.14-4.86,0-3.27,2.34-5.25,6.4-5.25a10.32,10.32,0,0,1,6.12,1.91.35.35,0,0,1,.08.5l-1.23,1.55a.35.35,0,0,1-.5.07,9.09,9.09,0,0,0-4.65-1.4c-2.16,0-3.27,1-3.27,2.37s.83,2.09,3.38,2.34l1.8.18c3.49.33,5.19,2.09,5.19,4.86,0,3.39-2.45,5.65-7,5.65A10.75,10.75,0,0,1,247.46,136.28Z"/><path class="cls-1" d="M273.85,145a.34.34,0,0,1-.36-.36v-23a.33.33,0,0,1,.36-.35h2.3a.33.33,0,0,1,.36.35v1.62h0c.83-1.36,2.3-2.37,4.89-2.37,3,0,5.08,1.4,5.94,4.14a14.17,14.17,0,0,1,.62,4.86,14.22,14.22,0,0,1-.62,4.89c-.86,2.74-2.95,4.14-5.94,4.14-2.59,0-4.06-1-4.89-2.41h0v8.14a.34.34,0,0,1-.36.36Zm10.65-11.52a11.89,11.89,0,0,0,.4-3.6,12.15,12.15,0,0,0-.4-3.6,4.08,4.08,0,0,0-7.59,0,11.12,11.12,0,0,0-.4,3.6,11,11,0,0,0,.4,3.6,4.05,4.05,0,0,0,7.59,0Z"/><path class="cls-1" d="M302.58,138.48a.35.35,0,0,1-.37-.36v-1.51h0c-.79,1.29-2.48,2.26-5.11,2.26-3.28,0-5.8-1.69-5.8-5.18s2.52-5.33,6.73-5.33h3.93a.19.19,0,0,0,.21-.21v-1.26c0-2.38-.93-3.39-4.14-3.39a6.7,6.7,0,0,0-4.17,1.23.33.33,0,0,1-.51,0l-1-1.65a.39.39,0,0,1,.07-.51,9.58,9.58,0,0,1,5.87-1.69c4.9,0,6.77,1.62,6.77,5.87v11.41a.34.34,0,0,1-.36.36Zm-.44-5.58V131a.19.19,0,0,0-.21-.22h-3.46c-3,0-4.28.87-4.28,2.81,0,1.77,1.29,2.7,3.6,2.7C300.49,136.28,302.14,135,302.14,132.9Z"/><path class="cls-1" d="M310.46,138.48a.34.34,0,0,1-.36-.36V121.59a.33.33,0,0,1,.36-.35h2.3a.33.33,0,0,1,.36.35v1.77h0a4.8,4.8,0,0,1,4.57-2.52,5.3,5.3,0,0,1,3.53,1.29c.18.18.21.33.07.51L320,124.4a.32.32,0,0,1-.5.07,4.92,4.92,0,0,0-2.67-.82c-2.63,0-3.71,2-3.71,5v9.43a.34.34,0,0,1-.36.36Z"/><path class="cls-1" d="M333.71,138.48a.35.35,0,0,1-.36-.36v-1.51h0c-.79,1.29-2.48,2.26-5.11,2.26-3.28,0-5.8-1.69-5.8-5.18s2.52-5.33,6.73-5.33h3.93a.19.19,0,0,0,.21-.21v-1.26c0-2.38-.93-3.39-4.14-3.39a6.7,6.7,0,0,0-4.17,1.23.33.33,0,0,1-.51,0l-1-1.65a.39.39,0,0,1,.07-.51,9.58,9.58,0,0,1,5.87-1.69c4.9,0,6.77,1.62,6.77,5.87v11.41a.35.35,0,0,1-.36.36Zm-.43-5.58V131a.19.19,0,0,0-.21-.22h-3.46c-3,0-4.28.87-4.28,2.81,0,1.77,1.29,2.7,3.6,2.7C331.63,136.28,333.28,135,333.28,132.9Z"/><path class="cls-1" d="M360,145a.34.34,0,0,1-.36-.36v-8.14h0c-.83,1.37-2.3,2.41-4.89,2.41-3,0-5.08-1.4-5.94-4.14a14.25,14.25,0,0,1-.61-4.89,14.2,14.2,0,0,1,.61-4.86c.86-2.74,2.95-4.14,5.94-4.14,2.59,0,4.06,1,4.89,2.37h0v-1.62a.33.33,0,0,1,.36-.35h2.3a.33.33,0,0,1,.36.35v23a.34.34,0,0,1-.36.36Zm-.76-11.52a11,11,0,0,0,.4-3.6,11.12,11.12,0,0,0-.4-3.6,4.08,4.08,0,0,0-7.59,0,12.15,12.15,0,0,0-.4,3.6,11.89,11.89,0,0,0,.4,3.6,4.05,4.05,0,0,0,7.59,0Z"/><path class="cls-1" d="M378.64,138.48a.35.35,0,0,1-.36-.36V136.5h0a5.26,5.26,0,0,1-4.72,2.37c-3.78,0-6-2.59-6-6.51V121.59a.33.33,0,0,1,.36-.35h2.3a.33.33,0,0,1,.36.35v10c0,2.81,1.26,4.43,3.81,4.43,2.34,0,3.89-1.66,3.89-4.25V121.59a.34.34,0,0,1,.36-.35H381a.34.34,0,0,1,.36.35v16.53a.35.35,0,0,1-.36.36Z"/><path class="cls-1" d="M386.78,117.35a.34.34,0,0,1-.36-.36v-2.63a.34.34,0,0,1,.36-.36h2.45a.34.34,0,0,1,.36.36V117a.35.35,0,0,1-.36.36Zm.07,21.13a.34.34,0,0,1-.36-.36V121.59a.33.33,0,0,1,.36-.35h2.3a.33.33,0,0,1,.36.35v16.53a.34.34,0,0,1-.36.36Z"/><path class="cls-1" d="M394.23,134.19a13.48,13.48,0,0,1-.57-4.35,13.76,13.76,0,0,1,.53-4.36,7.26,7.26,0,0,1,13.54,0,15.08,15.08,0,0,1,.54,4.93c0,.22-.14.36-.4.36H397a.2.2,0,0,0-.22.22,6.47,6.47,0,0,0,.29,2.09,4.25,4.25,0,0,0,4.35,3,5.62,5.62,0,0,0,4.43-1.91c.18-.18.36-.22.54-.08l1.48,1.34a.31.31,0,0,1,0,.5,8.35,8.35,0,0,1-6.73,3C397.65,138.87,395.17,137.18,394.23,134.19ZM405,128.36a.19.19,0,0,0,.21-.21,6.08,6.08,0,0,0-.25-2,4.25,4.25,0,0,0-7.92,0,6.08,6.08,0,0,0-.25,2c0,.14.07.21.22.21Z"/><path class="cls-1" d="M423.6,138.48a.34.34,0,0,1-.35-.36V128c0-2.77-1.26-4.39-3.86-4.39a3.87,3.87,0,0,0-4,4.21v10.26a.34.34,0,0,1-.36.36h-2.3a.34.34,0,0,1-.36-.36V121.59a.33.33,0,0,1,.36-.35h2.3a.33.33,0,0,1,.36.35v1.59h0a5.45,5.45,0,0,1,4.82-2.34c3.75,0,6,2.55,6,6.48v10.8a.34.34,0,0,1-.36.36Z"/><path class="cls-1" d="M430.81,134.19a17.21,17.21,0,0,1,0-8.71,7.25,7.25,0,0,1,13.53,0,15.08,15.08,0,0,1,.54,4.93.35.35,0,0,1-.39.36H433.54a.19.19,0,0,0-.21.22,6.5,6.5,0,0,0,.28,2.09,4.27,4.27,0,0,0,4.36,3,5.65,5.65,0,0,0,4.43-1.91c.18-.18.36-.22.54-.08l1.47,1.34a.32.32,0,0,1,0,.5,8.38,8.38,0,0,1-6.73,3C434.23,138.87,431.74,137.18,430.81,134.19Zm10.72-5.83c.15,0,.22-.07.22-.21a6.08,6.08,0,0,0-.25-2,4.25,4.25,0,0,0-7.92,0,6.08,6.08,0,0,0-.25,2,.19.19,0,0,0,.21.21Z"/><path class="cls-1" d="M447.8,136.28a.33.33,0,0,1,0-.5l1.47-1.59a.36.36,0,0,1,.51,0,8.34,8.34,0,0,0,5.33,2c2.52,0,3.77-1.08,3.77-2.63,0-1.36-.64-2.12-3.34-2.41L453.7,131c-3.38-.36-5.15-2-5.15-4.86,0-3.27,2.34-5.25,6.41-5.25a10.32,10.32,0,0,1,6.12,1.91.34.34,0,0,1,.07.5l-1.22,1.55a.36.36,0,0,1-.51.07,9,9,0,0,0-4.64-1.4c-2.16,0-3.27,1-3.27,2.37s.82,2.09,3.38,2.34l1.8.18c3.49.33,5.18,2.09,5.18,4.86,0,3.39-2.45,5.65-6.95,5.65A10.72,10.72,0,0,1,447.8,136.28Z"/><path class="cls-1" d="M478.83,138.66c-3.35,0-4.65-1.52-4.65-4.9V123.9c0-.15-.07-.22-.21-.22h-1.44a.34.34,0,0,1-.36-.36v-1.73a.33.33,0,0,1,.36-.35H474a.19.19,0,0,0,.21-.22v-4.86a.34.34,0,0,1,.37-.36h2.3a.34.34,0,0,1,.36.36V121a.19.19,0,0,0,.21.22h2.74a.33.33,0,0,1,.36.35v1.73a.34.34,0,0,1-.36.36h-2.74c-.14,0-.21.07-.21.22v9.75c0,1.73.65,2.2,2.19,2.2h.76a.34.34,0,0,1,.36.36v2.09a.34.34,0,0,1-.36.36Z"/><path class="cls-1" d="M484.84,138.48a.35.35,0,0,1-.36-.36V121.59a.34.34,0,0,1,.36-.35h2.3a.34.34,0,0,1,.37.35v1.77h0a4.8,4.8,0,0,1,4.57-2.52,5.3,5.3,0,0,1,3.53,1.29c.18.18.22.33.07.51l-1.33,1.76a.32.32,0,0,1-.5.07,4.92,4.92,0,0,0-2.67-.82c-2.63,0-3.7,2-3.7,5v9.43a.35.35,0,0,1-.37.36Z"/><path class="cls-1" d="M508.1,138.48a.34.34,0,0,1-.36-.36v-1.51h0c-.79,1.29-2.48,2.26-5.11,2.26-3.28,0-5.8-1.69-5.8-5.18s2.52-5.33,6.73-5.33h3.93a.19.19,0,0,0,.21-.21v-1.26c0-2.38-.93-3.39-4.14-3.39a6.7,6.7,0,0,0-4.17,1.23.33.33,0,0,1-.51,0l-1-1.65a.39.39,0,0,1,.07-.51,9.58,9.58,0,0,1,5.87-1.69c4.9,0,6.77,1.62,6.77,5.87v11.41a.35.35,0,0,1-.36.36Zm-.44-5.58V131a.19.19,0,0,0-.21-.22H504c-3,0-4.28.87-4.28,2.81,0,1.77,1.3,2.7,3.6,2.7C506,136.28,507.66,135,507.66,132.9Z"/><path class="cls-1" d="M526.82,138.48a.34.34,0,0,1-.36-.36V128c0-2.77-1.26-4.39-3.86-4.39a3.87,3.87,0,0,0-4,4.21v10.26a.34.34,0,0,1-.36.36H516a.34.34,0,0,1-.36-.36V121.59a.33.33,0,0,1,.36-.35h2.3a.33.33,0,0,1,.36.35v1.59h0a5.45,5.45,0,0,1,4.82-2.34c3.75,0,6,2.55,6,6.48v10.8a.34.34,0,0,1-.36.36Z"/><path class="cls-1" d="M533.3,136.28a.33.33,0,0,1,0-.5l1.47-1.59a.36.36,0,0,1,.51,0,8.34,8.34,0,0,0,5.32,2c2.52,0,3.78-1.08,3.78-2.63,0-1.36-.64-2.12-3.34-2.41L539.2,131c-3.38-.36-5.15-2-5.15-4.86,0-3.27,2.34-5.25,6.41-5.25a10.32,10.32,0,0,1,6.12,1.91.34.34,0,0,1,.07.5l-1.22,1.55a.36.36,0,0,1-.51.07,9.06,9.06,0,0,0-4.64-1.4c-2.16,0-3.28,1-3.28,2.37s.83,2.09,3.39,2.34l1.8.18c3.49.33,5.18,2.09,5.18,4.86,0,3.39-2.45,5.65-7,5.65A10.72,10.72,0,0,1,533.3,136.28Z"/><path class="cls-1" d="M551.69,117.35a.35.35,0,0,1-.36-.36v-2.63a.34.34,0,0,1,.36-.36h2.45a.34.34,0,0,1,.36.36V117a.34.34,0,0,1-.36.36Zm.07,21.13a.35.35,0,0,1-.36-.36V121.59a.34.34,0,0,1,.36-.35h2.31a.34.34,0,0,1,.36.35v16.53a.35.35,0,0,1-.36.36Z"/><path class="cls-1" d="M564.62,138.66c-3.35,0-4.65-1.52-4.65-4.9V123.9c0-.15-.07-.22-.21-.22h-1.44a.34.34,0,0,1-.36-.36v-1.73a.33.33,0,0,1,.36-.35h1.44A.19.19,0,0,0,560,121v-4.86a.34.34,0,0,1,.36-.36h2.31a.34.34,0,0,1,.36.36V121a.19.19,0,0,0,.21.22H566a.34.34,0,0,1,.36.35v1.73a.34.34,0,0,1-.36.36h-2.74c-.14,0-.21.07-.21.22v9.75c0,1.73.64,2.2,2.19,2.2H566a.34.34,0,0,1,.36.36v2.09a.35.35,0,0,1-.36.36Z"/><path class="cls-1" d="M580.71,138.48a.34.34,0,0,1-.36-.36v-1.51h0c-.79,1.29-2.48,2.26-5.11,2.26-3.28,0-5.8-1.69-5.8-5.18s2.52-5.33,6.73-5.33h3.93a.19.19,0,0,0,.21-.21v-1.26c0-2.38-.93-3.39-4.14-3.39a6.7,6.7,0,0,0-4.17,1.23c-.18.14-.4.14-.5,0l-1-1.65a.39.39,0,0,1,.08-.51,9.53,9.53,0,0,1,5.86-1.69c4.9,0,6.77,1.62,6.77,5.87v11.41a.34.34,0,0,1-.36.36Zm-.44-5.58V131a.19.19,0,0,0-.21-.22H576.6c-3,0-4.28.87-4.28,2.81,0,1.77,1.3,2.7,3.6,2.7C578.62,136.28,580.27,135,580.27,132.9Z"/><path class="cls-1" d="M599.43,138.48a.34.34,0,0,1-.36-.36V128c0-2.77-1.26-4.39-3.86-4.39a3.86,3.86,0,0,0-4,4.21v10.26a.35.35,0,0,1-.37.36h-2.3a.35.35,0,0,1-.36-.36V121.59a.34.34,0,0,1,.36-.35h2.3a.34.34,0,0,1,.37.35v1.59h0a5.45,5.45,0,0,1,4.82-2.34c3.75,0,6,2.55,6,6.48v10.8a.34.34,0,0,1-.36.36Z"/><path class="cls-1" d="M607,134.66h2.52a.34.34,0,0,1,.36.36v3.35a1.14,1.14,0,0,1-.21.79l-2.24,3a.55.55,0,0,1-.46.25.32.32,0,0,1-.33-.32v-7A.35.35,0,0,1,607,134.66Z"/><path class="cls-1" d="M632.62,138.48a.34.34,0,0,1-.36-.36v-1.66h0c-.83,1.37-2.3,2.41-4.89,2.41-3,0-5.08-1.4-5.94-4.14a14.22,14.22,0,0,1-.62-4.89,14.17,14.17,0,0,1,.62-4.86c.86-2.74,3-4.14,5.94-4.14,2.59,0,4.06,1,4.89,2.37h0v-8.85a.34.34,0,0,1,.36-.36h2.3a.34.34,0,0,1,.36.36v23.76a.34.34,0,0,1-.36.36Zm-.76-5a11,11,0,0,0,.4-3.6,11.12,11.12,0,0,0-.4-3.6,4.08,4.08,0,0,0-7.59,0,12.15,12.15,0,0,0-.4,3.6,11.89,11.89,0,0,0,.4,3.6,4.05,4.05,0,0,0,7.59,0Z"/><path class="cls-1" d="M640,134.19a17.21,17.21,0,0,1,0-8.71,7.26,7.26,0,0,1,13.54,0,15.08,15.08,0,0,1,.54,4.93.35.35,0,0,1-.4.36H642.73a.19.19,0,0,0-.21.22,6.47,6.47,0,0,0,.29,2.09,4.25,4.25,0,0,0,4.35,3,5.65,5.65,0,0,0,4.43-1.91c.18-.18.36-.22.54-.08l1.47,1.34a.32.32,0,0,1,0,.5,8.38,8.38,0,0,1-6.73,3C643.42,138.87,640.93,137.18,640,134.19Zm10.72-5.83c.15,0,.22-.07.22-.21a6.08,6.08,0,0,0-.25-2,4.25,4.25,0,0,0-7.92,0,6.08,6.08,0,0,0-.25,2,.19.19,0,0,0,.21.21Z"/><path class="cls-1" d="M18.51,174.28a.33.33,0,0,1,0-.5L20,172.19a.36.36,0,0,1,.51,0,8.34,8.34,0,0,0,5.32,2c2.52,0,3.78-1.08,3.78-2.63,0-1.36-.65-2.12-3.34-2.41L24.41,169c-3.38-.36-5.15-2-5.15-4.86,0-3.27,2.34-5.25,6.41-5.25a10.32,10.32,0,0,1,6.12,1.91.34.34,0,0,1,.07.5l-1.22,1.55a.36.36,0,0,1-.51.07,9.06,9.06,0,0,0-4.64-1.4c-2.16,0-3.28,1-3.28,2.37s.83,2.09,3.39,2.34l1.8.18c3.49.33,5.18,2.09,5.18,4.86,0,3.39-2.45,5.65-6.95,5.65A10.72,10.72,0,0,1,18.51,174.28Z"/><path class="cls-1" d="M36.15,172.19a17.21,17.21,0,0,1,0-8.71,6.67,6.67,0,0,1,6.77-4.64,6.67,6.67,0,0,1,6.76,4.64,15.08,15.08,0,0,1,.54,4.93.35.35,0,0,1-.39.36H38.88a.19.19,0,0,0-.21.22,6.5,6.5,0,0,0,.28,2.09,4.27,4.27,0,0,0,4.36,3,5.65,5.65,0,0,0,4.43-1.91c.18-.18.36-.22.54-.08l1.47,1.34a.32.32,0,0,1,0,.5,8.38,8.38,0,0,1-6.73,3C39.57,176.87,37.08,175.18,36.15,172.19Zm10.72-5.83c.15,0,.22-.07.22-.21a6.08,6.08,0,0,0-.25-2,3.9,3.9,0,0,0-4-2.7,3.88,3.88,0,0,0-4,2.7,6.08,6.08,0,0,0-.25,2,.19.19,0,0,0,.21.21Z"/><path class="cls-1" d="M54.68,176.48a.34.34,0,0,1-.35-.36V159.59a.33.33,0,0,1,.35-.35H57a.33.33,0,0,1,.36.35v1.77h0A4.81,4.81,0,0,1,62,158.84a5.29,5.29,0,0,1,3.52,1.29c.18.18.22.33.08.51l-1.34,1.76a.32.32,0,0,1-.5.07,4.89,4.89,0,0,0-2.66-.82c-2.63,0-3.71,2-3.71,5v9.43a.34.34,0,0,1-.36.36Z"/><path class="cls-1" d="M87.48,176.48a.34.34,0,0,1-.36-.36V166c0-2.77-1.26-4.39-3.85-4.39a3.87,3.87,0,0,0-4,4.21v10.26a.35.35,0,0,1-.36.36H76.64a.35.35,0,0,1-.36-.36V159.59a.34.34,0,0,1,.36-.35H79a.34.34,0,0,1,.36.35v1.59h0a5.47,5.47,0,0,1,4.83-2.34c3.74,0,6,2.55,6,6.48v10.8a.34.34,0,0,1-.36.36Z"/><path class="cls-1" d="M94.68,172.19a17.21,17.21,0,0,1,0-8.71,7.26,7.26,0,0,1,13.54,0,15.08,15.08,0,0,1,.54,4.93.35.35,0,0,1-.4.36H97.42a.2.2,0,0,0-.22.22,6.47,6.47,0,0,0,.29,2.09,4.25,4.25,0,0,0,4.35,3,5.63,5.63,0,0,0,4.43-1.91c.18-.18.36-.22.54-.08l1.48,1.34a.31.31,0,0,1,0,.5,8.38,8.38,0,0,1-6.73,3C98.1,176.87,95.62,175.18,94.68,172.19Zm10.73-5.83a.19.19,0,0,0,.21-.21,6.08,6.08,0,0,0-.25-2,4.25,4.25,0,0,0-7.92,0,6.08,6.08,0,0,0-.25,2c0,.14.07.21.22.21Z"/><path class="cls-1" d="M112.36,163.48a6.68,6.68,0,0,1,6.8-4.64,6.92,6.92,0,0,1,5.9,2.91c.11.18.11.33-.11.51l-1.58,1.29a.31.31,0,0,1-.5,0,4.24,4.24,0,0,0-3.71-1.87,3.74,3.74,0,0,0-3.85,2.7,11.4,11.4,0,0,0-.4,3.49,11.52,11.52,0,0,0,.4,3.53,3.74,3.74,0,0,0,3.85,2.7,4.25,4.25,0,0,0,3.71-1.88.31.31,0,0,1,.5,0l1.58,1.29c.22.18.22.33.11.51a6.9,6.9,0,0,1-5.9,2.91c-3.31,0-5.83-1.65-6.8-4.64a18,18,0,0,1,0-8.75Z"/><path class="cls-1" d="M128.23,172.19a17.36,17.36,0,0,1,0-8.71,7.25,7.25,0,0,1,13.53,0,15.08,15.08,0,0,1,.54,4.93c0,.22-.14.36-.4.36H131a.2.2,0,0,0-.22.22,6.47,6.47,0,0,0,.29,2.09,4.25,4.25,0,0,0,4.35,3,5.62,5.62,0,0,0,4.43-1.91c.18-.18.36-.22.54-.08l1.48,1.34a.31.31,0,0,1,0,.5,8.35,8.35,0,0,1-6.73,3C131.65,176.87,129.17,175.18,128.23,172.19ZM139,166.36a.19.19,0,0,0,.21-.21,6.08,6.08,0,0,0-.25-2,4.25,4.25,0,0,0-7.92,0,6.08,6.08,0,0,0-.25,2c0,.14.07.21.22.21Z"/><path class="cls-1" d="M145.22,174.28a.35.35,0,0,1,0-.5l1.48-1.59a.35.35,0,0,1,.5,0,8.37,8.37,0,0,0,5.33,2c2.52,0,3.78-1.08,3.78-2.63,0-1.36-.65-2.12-3.35-2.41l-1.83-.18c-3.39-.36-5.15-2-5.15-4.86,0-3.27,2.34-5.25,6.41-5.25a10.32,10.32,0,0,1,6.12,1.91.34.34,0,0,1,.07.5l-1.23,1.55a.35.35,0,0,1-.5.07,9.09,9.09,0,0,0-4.64-1.4c-2.16,0-3.28,1-3.28,2.37s.83,2.09,3.38,2.34l1.8.18c3.5.33,5.19,2.09,5.19,4.86,0,3.39-2.45,5.65-7,5.65A10.75,10.75,0,0,1,145.22,174.28Z"/><path class="cls-1" d="M173.77,176.48a.34.34,0,0,1-.36-.36v-1.51h0c-.79,1.29-2.48,2.26-5.11,2.26-3.27,0-5.79-1.69-5.79-5.18s2.52-5.33,6.73-5.33h3.92c.15,0,.22-.07.22-.21v-1.26c0-2.38-.94-3.39-4.14-3.39a6.73,6.73,0,0,0-4.18,1.23.32.32,0,0,1-.5,0l-1-1.65a.39.39,0,0,1,.07-.51,9.56,9.56,0,0,1,5.87-1.69c4.89,0,6.76,1.62,6.76,5.87v11.41a.34.34,0,0,1-.36.36Zm-.43-5.58V169a.2.2,0,0,0-.22-.22h-3.45c-3,0-4.29.87-4.29,2.81,0,1.77,1.3,2.7,3.6,2.7C171.68,174.28,173.34,173,173.34,170.9Z"/><path class="cls-1" d="M181.65,176.48a.34.34,0,0,1-.35-.36V159.59a.33.33,0,0,1,.35-.35H184a.34.34,0,0,1,.36.35v1.77h0a4.81,4.81,0,0,1,4.58-2.52,5.29,5.29,0,0,1,3.52,1.29c.18.18.22.33.08.51l-1.34,1.76a.32.32,0,0,1-.5.07,4.89,4.89,0,0,0-2.66-.82c-2.63,0-3.71,2-3.71,5v9.43a.35.35,0,0,1-.36.36Z"/><path class="cls-1" d="M195.62,155.35a.35.35,0,0,1-.36-.36v-2.63a.34.34,0,0,1,.36-.36h2.45a.34.34,0,0,1,.36.36V155a.34.34,0,0,1-.36.36Zm.07,21.13a.34.34,0,0,1-.35-.36V159.59a.33.33,0,0,1,.35-.35H198a.34.34,0,0,1,.36.35v16.53a.35.35,0,0,1-.36.36Z"/><path class="cls-1" d="M203.07,172.23a17.07,17.07,0,0,1,0-8.75c.94-2.95,3.46-4.64,6.81-4.64s5.86,1.69,6.8,4.64a16.79,16.79,0,0,1,0,8.75,7.31,7.31,0,0,1-13.61,0Zm10.69-.86a11.27,11.27,0,0,0,.4-3.53,10.91,10.91,0,0,0-.4-3.49,4.15,4.15,0,0,0-7.77,0,10.91,10.91,0,0,0-.4,3.49,11.27,11.27,0,0,0,.4,3.53,4.15,4.15,0,0,0,7.77,0Z"/><path class="cls-1" d="M240.12,176.48a.34.34,0,0,1-.36-.36v-1.66h0c-.83,1.37-2.3,2.41-4.9,2.41a5.71,5.71,0,0,1-5.94-4.14,19.78,19.78,0,0,1,0-9.75,5.71,5.71,0,0,1,5.94-4.14c2.6,0,4.07,1,4.9,2.37h0v-8.85a.34.34,0,0,1,.36-.36h2.3a.34.34,0,0,1,.36.36v23.76a.34.34,0,0,1-.36.36Zm-.76-5a11,11,0,0,0,.4-3.6,11.12,11.12,0,0,0-.4-3.6,4.08,4.08,0,0,0-7.6,0,12.54,12.54,0,0,0-.39,3.6,12.28,12.28,0,0,0,.39,3.6,4.06,4.06,0,0,0,7.6,0Z"/><path class="cls-1" d="M248.25,155.35a.35.35,0,0,1-.36-.36v-2.63a.34.34,0,0,1,.36-.36h2.45a.34.34,0,0,1,.36.36V155a.34.34,0,0,1-.36.36Zm.08,21.13a.35.35,0,0,1-.37-.36V159.59a.34.34,0,0,1,.37-.35h2.3a.34.34,0,0,1,.36.35v16.53a.35.35,0,0,1-.36.36Z"/><path class="cls-1" d="M255,174.28a.35.35,0,0,1,0-.5l1.48-1.59a.35.35,0,0,1,.5,0,8.37,8.37,0,0,0,5.33,2c2.52,0,3.78-1.08,3.78-2.63,0-1.36-.65-2.12-3.35-2.41l-1.83-.18c-3.39-.36-5.15-2-5.15-4.86,0-3.27,2.34-5.25,6.41-5.25a10.32,10.32,0,0,1,6.12,1.91.34.34,0,0,1,.07.5l-1.22,1.55a.36.36,0,0,1-.51.07,9.06,9.06,0,0,0-4.64-1.4c-2.16,0-3.28,1-3.28,2.37s.83,2.09,3.39,2.34l1.8.18c3.49.33,5.18,2.09,5.18,4.86,0,3.39-2.45,5.65-6.95,5.65A10.75,10.75,0,0,1,255,174.28Z"/><path class="cls-1" d="M273.45,183a.35.35,0,0,1-.36-.36v-23a.34.34,0,0,1,.36-.35h2.31a.34.34,0,0,1,.36.35v1.62h0c.83-1.36,2.31-2.37,4.9-2.37A5.71,5.71,0,0,1,287,163a19.78,19.78,0,0,1,0,9.75,5.71,5.71,0,0,1-5.94,4.14c-2.59,0-4.07-1-4.9-2.41h0v8.14a.35.35,0,0,1-.36.36Zm10.66-11.52a12.28,12.28,0,0,0,.39-3.6,12.54,12.54,0,0,0-.39-3.6,4.08,4.08,0,0,0-7.6,0,11.18,11.18,0,0,0-.39,3.6,11.06,11.06,0,0,0,.39,3.6,4.06,4.06,0,0,0,7.6,0Z"/><path class="cls-1" d="M291.27,172.23a17.07,17.07,0,0,1,0-8.75c.94-2.95,3.46-4.64,6.81-4.64s5.86,1.69,6.8,4.64a17.07,17.07,0,0,1,0,8.75,7.31,7.31,0,0,1-13.61,0Zm10.69-.86a11.27,11.27,0,0,0,.4-3.53,10.91,10.91,0,0,0-.4-3.49,4.15,4.15,0,0,0-7.77,0,10.91,10.91,0,0,0-.4,3.49,11.27,11.27,0,0,0,.4,3.53,4.15,4.15,0,0,0,7.77,0Z"/><path class="cls-1" d="M320.79,176.48a.34.34,0,0,1-.36-.36V166c0-2.77-1.26-4.39-3.85-4.39a3.87,3.87,0,0,0-4,4.21v10.26a.34.34,0,0,1-.36.36H310a.34.34,0,0,1-.36-.36V159.59a.33.33,0,0,1,.36-.35h2.3a.33.33,0,0,1,.36.35v1.59h0a5.44,5.44,0,0,1,4.82-2.34c3.74,0,6,2.55,6,6.48v10.8a.34.34,0,0,1-.36.36Z"/><path class="cls-1" d="M328.1,180.8a.33.33,0,0,1,0-.51l1.47-1.47a.34.34,0,0,1,.54,0,5.75,5.75,0,0,0,4.07,1.72c2.84,0,4.35-1.47,4.35-4.64v-2h0c-.79,1.45-2.27,2.38-4.79,2.38a5.64,5.64,0,0,1-5.79-4.18,18,18,0,0,1,0-9.07,5.64,5.64,0,0,1,5.79-4.17c2.52,0,4,.94,4.79,2.37h0v-1.62a.34.34,0,0,1,.36-.35h2.31a.34.34,0,0,1,.36.35v16.13c0,4.9-2.67,7.63-7.52,7.63A7.79,7.79,0,0,1,328.1,180.8Zm10.08-9.9a10.47,10.47,0,0,0,.39-3.35,10.59,10.59,0,0,0-.39-3.35,3.89,3.89,0,0,0-7.31,0,10.78,10.78,0,0,0-.43,3.35,10.65,10.65,0,0,0,.43,3.35,3.52,3.52,0,0,0,3.64,2.59A3.56,3.56,0,0,0,338.18,170.9Z"/><path class="cls-1" d="M357.22,176.48a.35.35,0,0,1-.36-.36v-1.51h0c-.8,1.29-2.49,2.26-5.12,2.26-3.27,0-5.79-1.69-5.79-5.18s2.52-5.33,6.73-5.33h3.92c.15,0,.22-.07.22-.21v-1.26c0-2.38-.94-3.39-4.14-3.39a6.68,6.68,0,0,0-4.17,1.23.33.33,0,0,1-.51,0L347,161a.39.39,0,0,1,.07-.51,9.56,9.56,0,0,1,5.87-1.69c4.89,0,6.77,1.62,6.77,5.87v11.41a.35.35,0,0,1-.36.36Zm-.43-5.58V169a.2.2,0,0,0-.22-.22h-3.45c-3,0-4.28.87-4.28,2.81,0,1.77,1.29,2.7,3.59,2.7C355.13,174.28,356.79,173,356.79,170.9Z"/><path class="cls-1" d="M383.46,176.48a.34.34,0,0,1-.35-.36v-1.66h0c-.83,1.37-2.3,2.41-4.9,2.41a5.71,5.71,0,0,1-5.94-4.14,19.78,19.78,0,0,1,0-9.75,5.71,5.71,0,0,1,5.94-4.14c2.6,0,4.07,1,4.9,2.37h0v-8.85a.33.33,0,0,1,.35-.36h2.31a.34.34,0,0,1,.36.36v23.76a.34.34,0,0,1-.36.36Zm-.75-5a11,11,0,0,0,.4-3.6,11.12,11.12,0,0,0-.4-3.6,4.08,4.08,0,0,0-7.6,0,12.54,12.54,0,0,0-.39,3.6,12.28,12.28,0,0,0,.39,3.6,4.06,4.06,0,0,0,7.6,0Z"/><path class="cls-1" d="M390.85,172.19a17.21,17.21,0,0,1,0-8.71,7.25,7.25,0,0,1,13.53,0,14.8,14.8,0,0,1,.54,4.93.35.35,0,0,1-.39.36H393.58a.19.19,0,0,0-.21.22,6.5,6.5,0,0,0,.28,2.09,4.27,4.27,0,0,0,4.36,3,5.65,5.65,0,0,0,4.43-1.91c.18-.18.36-.22.54-.08l1.47,1.34a.32.32,0,0,1,0,.5,8.38,8.38,0,0,1-6.73,3C394.27,176.87,391.78,175.18,390.85,172.19Zm10.72-5.83c.15,0,.22-.07.22-.21a6.08,6.08,0,0,0-.25-2,4.25,4.25,0,0,0-7.92,0,6.08,6.08,0,0,0-.25,2,.19.19,0,0,0,.21.21Z"/><path class="cls-1" d="M427.78,176.48a.34.34,0,0,1-.36-.36V174.5h0a5.23,5.23,0,0,1-4.71,2.37c-3.78,0-6-2.59-6-6.51V159.59a.34.34,0,0,1,.36-.35h2.31a.34.34,0,0,1,.36.35v10c0,2.81,1.26,4.43,3.81,4.43,2.34,0,3.89-1.66,3.89-4.25V159.59a.33.33,0,0,1,.36-.35h2.31a.33.33,0,0,1,.35.35v16.53a.34.34,0,0,1-.35.36Z"/><path class="cls-1" d="M446.82,176.48a.35.35,0,0,1-.36-.36V166c0-2.77-1.26-4.39-3.85-4.39a3.87,3.87,0,0,0-4,4.21v10.26a.34.34,0,0,1-.36.36H436a.34.34,0,0,1-.36-.36V159.59a.33.33,0,0,1,.36-.35h2.3a.33.33,0,0,1,.36.35v1.59h0a5.45,5.45,0,0,1,4.82-2.34c3.75,0,6,2.55,6,6.48v10.8a.35.35,0,0,1-.36.36Z"/><path class="cls-1" d="M464.93,176.48a.35.35,0,0,1-.36-.36v-1.51h0c-.8,1.29-2.49,2.26-5.12,2.26-3.27,0-5.79-1.69-5.79-5.18s2.52-5.33,6.73-5.33h3.92c.15,0,.22-.07.22-.21v-1.26c0-2.38-.94-3.39-4.14-3.39a6.73,6.73,0,0,0-4.18,1.23.32.32,0,0,1-.5,0l-1-1.65a.39.39,0,0,1,.07-.51,9.56,9.56,0,0,1,5.87-1.69c4.89,0,6.77,1.62,6.77,5.87v11.41a.35.35,0,0,1-.36.36Zm-.43-5.58V169a.2.2,0,0,0-.22-.22h-3.45c-3,0-4.28.87-4.28,2.81,0,1.77,1.29,2.7,3.59,2.7C462.84,174.28,464.5,173,464.5,170.9Z"/><path class="cls-1" d="M480.74,183a.34.34,0,0,1-.36-.36v-23a.33.33,0,0,1,.36-.35H483a.33.33,0,0,1,.36.35v1.62h0c.82-1.36,2.3-2.37,4.89-2.37,3,0,5.08,1.4,5.94,4.14a19.78,19.78,0,0,1,0,9.75c-.86,2.74-2.95,4.14-5.94,4.14-2.59,0-4.07-1-4.89-2.41h0v8.14a.34.34,0,0,1-.36.36Zm10.65-11.52a11.89,11.89,0,0,0,.4-3.6,12.15,12.15,0,0,0-.4-3.6,4.08,4.08,0,0,0-7.59,0,11.12,11.12,0,0,0-.4,3.6,11,11,0,0,0,.4,3.6,4.05,4.05,0,0,0,7.59,0Z"/><path class="cls-1" d="M498.56,172.19a17.21,17.21,0,0,1,0-8.71,7.25,7.25,0,0,1,13.53,0,14.8,14.8,0,0,1,.54,4.93.35.35,0,0,1-.39.36H501.29a.19.19,0,0,0-.21.22,6.5,6.5,0,0,0,.28,2.09,4.27,4.27,0,0,0,4.36,3,5.65,5.65,0,0,0,4.43-1.91c.18-.18.36-.22.54-.08l1.47,1.34a.32.32,0,0,1,0,.5,8.38,8.38,0,0,1-6.73,3C502,176.87,499.49,175.18,498.56,172.19Zm10.72-5.83c.15,0,.22-.07.22-.21a6.08,6.08,0,0,0-.25-2,4.25,4.25,0,0,0-7.92,0,6.08,6.08,0,0,0-.25,2,.19.19,0,0,0,.21.21Z"/><path class="cls-1" d="M517.1,176.48a.34.34,0,0,1-.36-.36V159.59a.33.33,0,0,1,.36-.35h2.3a.33.33,0,0,1,.36.35v1.77h0a4.78,4.78,0,0,1,4.57-2.52,5.32,5.32,0,0,1,3.53,1.29c.18.18.21.33.07.51l-1.34,1.76a.32.32,0,0,1-.5.07,4.86,4.86,0,0,0-2.66-.82c-2.63,0-3.71,2-3.71,5v9.43a.34.34,0,0,1-.36.36Z"/><path class="cls-1" d="M529.3,174.28a.35.35,0,0,1,0-.5l1.48-1.59a.35.35,0,0,1,.5,0,8.37,8.37,0,0,0,5.33,2c2.52,0,3.78-1.08,3.78-2.63,0-1.36-.65-2.12-3.35-2.41L535.2,169c-3.38-.36-5.14-2-5.14-4.86,0-3.27,2.34-5.25,6.4-5.25a10.32,10.32,0,0,1,6.12,1.91.34.34,0,0,1,.07.5l-1.22,1.55a.35.35,0,0,1-.5.07,9.09,9.09,0,0,0-4.65-1.4c-2.16,0-3.27,1-3.27,2.37s.83,2.09,3.38,2.34l1.8.18c3.49.33,5.18,2.09,5.18,4.86,0,3.39-2.44,5.65-6.94,5.65A10.73,10.73,0,0,1,529.3,174.28Z"/><path class="cls-1" d="M546.94,172.23a16.79,16.79,0,0,1,0-8.75c.94-2.95,3.46-4.64,6.8-4.64s5.87,1.69,6.81,4.64a17.07,17.07,0,0,1,0,8.75,7.31,7.31,0,0,1-13.61,0Zm10.69-.86a11.27,11.27,0,0,0,.4-3.53,10.91,10.91,0,0,0-.4-3.49,4.15,4.15,0,0,0-7.77,0,10.91,10.91,0,0,0-.4,3.49,11.27,11.27,0,0,0,.4,3.53,4.15,4.15,0,0,0,7.77,0Z"/><path class="cls-1" d="M576.46,176.48a.34.34,0,0,1-.36-.36V166c0-2.77-1.26-4.39-3.85-4.39a3.87,3.87,0,0,0-4,4.21v10.26a.35.35,0,0,1-.36.36h-2.31a.35.35,0,0,1-.36-.36V159.59a.34.34,0,0,1,.36-.35h2.31a.34.34,0,0,1,.36.35v1.59h0a5.47,5.47,0,0,1,4.83-2.34c3.74,0,6,2.55,6,6.48v10.8a.34.34,0,0,1-.36.36Z"/><path class="cls-1" d="M594.57,176.48a.34.34,0,0,1-.36-.36v-1.51h0c-.79,1.29-2.48,2.26-5.11,2.26-3.28,0-5.8-1.69-5.8-5.18s2.52-5.33,6.73-5.33h3.93a.19.19,0,0,0,.21-.21v-1.26c0-2.38-.93-3.39-4.14-3.39a6.7,6.7,0,0,0-4.17,1.23.33.33,0,0,1-.51,0l-1-1.65a.39.39,0,0,1,.08-.51,9.53,9.53,0,0,1,5.86-1.69c4.9,0,6.77,1.62,6.77,5.87v11.41a.34.34,0,0,1-.36.36Zm-.44-5.58V169a.19.19,0,0,0-.21-.22h-3.46c-3,0-4.28.87-4.28,2.81,0,1.77,1.29,2.7,3.6,2.7C592.48,174.28,594.13,173,594.13,170.9Z"/><path class="cls-1" d="M620.81,183a.34.34,0,0,1-.36-.36v-8.14h0c-.82,1.37-2.3,2.41-4.89,2.41-3,0-5.08-1.4-5.94-4.14a19.78,19.78,0,0,1,0-9.75c.86-2.74,2.95-4.14,5.94-4.14,2.59,0,4.07,1,4.89,2.37h0v-1.62a.33.33,0,0,1,.36-.35h2.3a.33.33,0,0,1,.36.35v23a.34.34,0,0,1-.36.36Zm-.76-11.52a11,11,0,0,0,.4-3.6,11.12,11.12,0,0,0-.4-3.6,4.08,4.08,0,0,0-7.59,0,12.15,12.15,0,0,0-.4,3.6,11.89,11.89,0,0,0,.4,3.6,4.05,4.05,0,0,0,7.59,0Z"/><path class="cls-1" d="M639.49,176.48a.35.35,0,0,1-.36-.36V174.5h0a5.26,5.26,0,0,1-4.72,2.37c-3.78,0-6-2.59-6-6.51V159.59a.33.33,0,0,1,.36-.35h2.3a.33.33,0,0,1,.36.35v10c0,2.81,1.26,4.43,3.82,4.43,2.34,0,3.88-1.66,3.88-4.25V159.59a.34.34,0,0,1,.36-.35h2.31a.34.34,0,0,1,.36.35v16.53a.35.35,0,0,1-.36.36Z"/><path class="cls-1" d="M646.87,172.19a17.36,17.36,0,0,1,0-8.71,7.25,7.25,0,0,1,13.53,0,15.08,15.08,0,0,1,.54,4.93.35.35,0,0,1-.39.36H649.61a.2.2,0,0,0-.22.22,6.47,6.47,0,0,0,.29,2.09,4.27,4.27,0,0,0,4.36,3,5.61,5.61,0,0,0,4.42-1.91.38.38,0,0,1,.55-.08l1.47,1.34a.32.32,0,0,1,0,.5,8.38,8.38,0,0,1-6.73,3C650.29,176.87,647.81,175.18,646.87,172.19Zm10.73-5.83c.15,0,.22-.07.22-.21a5.79,5.79,0,0,0-.26-2,4.25,4.25,0,0,0-7.91,0,6.05,6.05,0,0,0-.26,2,.19.19,0,0,0,.22.21Z"/><path class="cls-1" d="M223.29,214.48a.34.34,0,0,1-.36-.36v-1.66h0c-.83,1.37-2.3,2.41-4.89,2.41-3,0-5.08-1.4-5.94-4.14a19.48,19.48,0,0,1,0-9.75c.86-2.74,2.95-4.14,5.94-4.14,2.59,0,4.06,1,4.89,2.37h0v-8.85a.34.34,0,0,1,.36-.36h2.3a.34.34,0,0,1,.36.36v23.76a.34.34,0,0,1-.36.36Zm-.76-5a11,11,0,0,0,.4-3.6,11.12,11.12,0,0,0-.4-3.6,4.08,4.08,0,0,0-7.59,0,12.15,12.15,0,0,0-.4,3.6,11.89,11.89,0,0,0,.4,3.6,4.05,4.05,0,0,0,7.59,0Z"/><path class="cls-1" d="M230.67,210.19a17.21,17.21,0,0,1,0-8.71,7.26,7.26,0,0,1,13.54,0,15.08,15.08,0,0,1,.54,4.93.35.35,0,0,1-.4.36H233.4a.19.19,0,0,0-.21.22,6.47,6.47,0,0,0,.29,2.09,4.25,4.25,0,0,0,4.35,3,5.65,5.65,0,0,0,4.43-1.91c.18-.18.36-.22.54-.07l1.47,1.33a.31.31,0,0,1,0,.5,8.38,8.38,0,0,1-6.73,3C234.09,214.87,231.6,213.18,230.67,210.19Zm10.73-5.83a.19.19,0,0,0,.21-.21,6.08,6.08,0,0,0-.25-2,4.25,4.25,0,0,0-7.92,0,6.08,6.08,0,0,0-.25,2,.19.19,0,0,0,.21.21Z"/><path class="cls-1" d="M247.66,212.28a.35.35,0,0,1,0-.5l1.48-1.59a.35.35,0,0,1,.5,0,8.37,8.37,0,0,0,5.33,2c2.52,0,3.78-1.08,3.78-2.63,0-1.36-.65-2.12-3.35-2.41l-1.84-.18c-3.38-.36-5.14-2-5.14-4.86,0-3.27,2.34-5.25,6.4-5.25a10.32,10.32,0,0,1,6.12,1.91.34.34,0,0,1,.07.5l-1.22,1.55a.35.35,0,0,1-.5.07,9.09,9.09,0,0,0-4.65-1.4c-2.16,0-3.27,1-3.27,2.37s.83,2.09,3.38,2.34l1.8.18c3.49.33,5.18,2.09,5.18,4.86,0,3.39-2.44,5.65-6.94,5.65A10.73,10.73,0,0,1,247.66,212.28Z"/><path class="cls-1" d="M270.38,214.48a.43.43,0,0,1-.44-.36l-6.19-16.53c-.07-.21,0-.36.29-.36h2.48c.26,0,.36.11.47.36L271.46,210h.07l4.35-12.39a.42.42,0,0,1,.43-.36h2.45c.25,0,.36.15.29.36l-6.15,16.53a.48.48,0,0,1-.47.36Z"/><path class="cls-1" d="M282.51,193.35a.34.34,0,0,1-.36-.36v-2.63a.34.34,0,0,1,.36-.36H285a.34.34,0,0,1,.36.36V193a.35.35,0,0,1-.36.36Zm.07,21.13a.34.34,0,0,1-.36-.36V197.59a.34.34,0,0,1,.36-.36h2.3a.34.34,0,0,1,.36.36v16.53a.34.34,0,0,1-.36.36Z"/><path class="cls-1" d="M290,210.19a17.21,17.21,0,0,1,0-8.71,7.26,7.26,0,0,1,13.54,0,15.08,15.08,0,0,1,.54,4.93.35.35,0,0,1-.4.36H292.69a.19.19,0,0,0-.21.22,6.47,6.47,0,0,0,.29,2.09,4.25,4.25,0,0,0,4.35,3,5.65,5.65,0,0,0,4.43-1.91c.18-.18.36-.22.54-.07l1.48,1.33a.31.31,0,0,1,0,.5,8.38,8.38,0,0,1-6.73,3C293.38,214.87,290.89,213.18,290,210.19Zm10.73-5.83a.19.19,0,0,0,.21-.21,6.08,6.08,0,0,0-.25-2,4.25,4.25,0,0,0-7.92,0,6.08,6.08,0,0,0-.25,2,.19.19,0,0,0,.21.21Zm-5.37-9.93c-.21,0-.32-.15-.21-.36l2.73-4.43a.65.65,0,0,1,.61-.36h2.38c.22,0,.32.18.18.36l-3.31,4.43a.71.71,0,0,1-.69.36Z"/><path class="cls-1" d="M315.59,210.19a17.21,17.21,0,0,1,0-8.71,7.26,7.26,0,0,1,13.54,0,15.08,15.08,0,0,1,.54,4.93.35.35,0,0,1-.4.36h-10.9a.2.2,0,0,0-.22.22,6.47,6.47,0,0,0,.29,2.09,4.25,4.25,0,0,0,4.35,3,5.63,5.63,0,0,0,4.43-1.91c.18-.18.36-.22.54-.07l1.48,1.33a.31.31,0,0,1,0,.5,8.38,8.38,0,0,1-6.73,3C319,214.87,316.53,213.18,315.59,210.19Zm10.73-5.83a.19.19,0,0,0,.21-.21,6.08,6.08,0,0,0-.25-2,4.25,4.25,0,0,0-7.92,0,6.08,6.08,0,0,0-.25,2c0,.14.07.21.22.21Z"/><path class="cls-1" d="M337.91,214.66c-3,0-4.21-1.44-4.21-4.54V190.36a.34.34,0,0,1,.36-.36h2.3a.34.34,0,0,1,.36.36v19.58c0,1.44.54,1.91,1.73,1.91h.68a.34.34,0,0,1,.36.36v2.09a.34.34,0,0,1-.36.36Z"/><path class="cls-1" d="M355.94,214.66c-3.34,0-4.64-1.52-4.64-4.9V199.9c0-.15-.07-.22-.21-.22h-1.44a.34.34,0,0,1-.36-.36v-1.73a.34.34,0,0,1,.36-.36h1.44a.19.19,0,0,0,.21-.21v-4.86a.34.34,0,0,1,.36-.36H354a.34.34,0,0,1,.37.36V197a.19.19,0,0,0,.21.21h2.74a.35.35,0,0,1,.36.36v1.73a.34.34,0,0,1-.36.36h-2.74c-.14,0-.21.07-.21.22v9.75c0,1.73.64,2.2,2.19,2.2h.76a.34.34,0,0,1,.36.36v2.09a.35.35,0,0,1-.36.36Z"/><path class="cls-1" d="M362,214.48a.34.34,0,0,1-.36-.36V197.59a.34.34,0,0,1,.36-.36h2.3a.34.34,0,0,1,.36.36v1.77h0a4.78,4.78,0,0,1,4.57-2.52,5.32,5.32,0,0,1,3.53,1.29c.18.18.21.33.07.51l-1.33,1.76a.33.33,0,0,1-.51.07,4.86,4.86,0,0,0-2.66-.82c-2.63,0-3.71,2-3.71,5v9.43a.34.34,0,0,1-.36.36Z"/><path class="cls-1" d="M385.21,214.48a.35.35,0,0,1-.36-.36v-1.51h0c-.8,1.29-2.49,2.26-5.12,2.26-3.27,0-5.79-1.69-5.79-5.18s2.52-5.33,6.73-5.33h3.92c.15,0,.22-.07.22-.21v-1.26c0-2.38-.94-3.39-4.14-3.39a6.73,6.73,0,0,0-4.18,1.23.32.32,0,0,1-.5,0L375,199a.39.39,0,0,1,.07-.51,9.56,9.56,0,0,1,5.87-1.69c4.89,0,6.77,1.62,6.77,5.87v11.41a.35.35,0,0,1-.36.36Zm-.43-5.58V207a.2.2,0,0,0-.22-.22h-3.45c-3,0-4.28.87-4.28,2.81,0,1.77,1.29,2.7,3.59,2.7C383.12,212.28,384.78,211,384.78,208.9Z"/><path class="cls-1" d="M403.93,214.48a.34.34,0,0,1-.36-.36V204c0-2.77-1.26-4.39-3.85-4.39a3.87,3.87,0,0,0-4,4.21v10.26a.34.34,0,0,1-.36.36h-2.3a.34.34,0,0,1-.36-.36V197.59a.34.34,0,0,1,.36-.36h2.3a.34.34,0,0,1,.36.36v1.59h0a5.44,5.44,0,0,1,4.82-2.34c3.74,0,6,2.55,6,6.48v10.8a.34.34,0,0,1-.35.36Z"/><path class="cls-1" d="M410.41,212.28a.35.35,0,0,1,0-.5l1.48-1.59a.35.35,0,0,1,.5,0,8.37,8.37,0,0,0,5.33,2c2.52,0,3.78-1.08,3.78-2.63,0-1.36-.65-2.12-3.35-2.41l-1.83-.18c-3.39-.36-5.15-2-5.15-4.86,0-3.27,2.34-5.25,6.41-5.25a10.28,10.28,0,0,1,6.11,1.91.33.33,0,0,1,.08.5l-1.23,1.55a.35.35,0,0,1-.5.07,9.09,9.09,0,0,0-4.64-1.4c-2.16,0-3.28,1-3.28,2.37s.83,2.09,3.38,2.34l1.8.18c3.5.33,5.19,2.09,5.19,4.86,0,3.39-2.45,5.65-6.95,5.65A10.75,10.75,0,0,1,410.41,212.28Z"/><path class="cls-1" d="M428.81,193.35a.34.34,0,0,1-.36-.36v-2.63a.34.34,0,0,1,.36-.36h2.45a.34.34,0,0,1,.36.36V193a.35.35,0,0,1-.36.36Zm.07,21.13a.34.34,0,0,1-.36-.36V197.59a.34.34,0,0,1,.36-.36h2.3a.34.34,0,0,1,.36.36v16.53a.34.34,0,0,1-.36.36Z"/><path class="cls-1" d="M441.73,214.66c-3.35,0-4.64-1.52-4.64-4.9V199.9a.19.19,0,0,0-.22-.22h-1.44a.34.34,0,0,1-.36-.36v-1.73a.35.35,0,0,1,.36-.36h1.44c.15,0,.22-.07.22-.21v-4.86a.34.34,0,0,1,.36-.36h2.3a.34.34,0,0,1,.36.36V197c0,.14.07.21.22.21h2.73a.34.34,0,0,1,.36.36v1.73a.34.34,0,0,1-.36.36h-2.73a.19.19,0,0,0-.22.22v9.75c0,1.73.65,2.2,2.2,2.2h.75a.34.34,0,0,1,.36.36v2.09a.34.34,0,0,1-.36.36Z"/><path class="cls-1" d="M446.92,210.23a16.79,16.79,0,0,1,0-8.75c.93-2.95,3.45-4.64,6.8-4.64s5.87,1.69,6.8,4.64a16.79,16.79,0,0,1,0,8.75,7.3,7.3,0,0,1-13.6,0Zm10.69-.86a11.63,11.63,0,0,0,.39-3.53,11.26,11.26,0,0,0-.39-3.49,4.15,4.15,0,0,0-7.78,0,10.91,10.91,0,0,0-.4,3.49,11.27,11.27,0,0,0,.4,3.53,4.15,4.15,0,0,0,7.78,0Z"/><path class="cls-1" d="M464.81,211a.34.34,0,0,1,.36-.36h2.73a.34.34,0,0,1,.36.36v3.1a.34.34,0,0,1-.36.36h-2.73a.34.34,0,0,1-.36-.36Z"/></g></g></svg>