<svg xmlns="http://www.w3.org/2000/svg" viewBox="0 0 481.27 300.39"><title>r15</title><g id="Capa_2" data-name="Capa 2"><g id="recomendaciones"><path d="M9.46.4c.08-.24.2-.4.48-.4h2.6a.52.52,0,0,1,.52.4l9.32,26.4a.27.27,0,0,1-.28.4H19.3a.48.48,0,0,1-.52-.4L16.7,20.88H5.7L3.62,26.8a.54.54,0,0,1-.52.4H.3A.27.27,0,0,1,0,26.8Zm6.08,17.2L11.26,5.24h-.08L6.86,17.6Z" transform="translate(0)"/><path d="M29.54,27.4c-3.36,0-4.68-1.6-4.68-5V.4a.38.38,0,0,1,.4-.4h2.56a.38.38,0,0,1,.4.4V22.16c0,1.6.6,2.12,1.92,2.12h.76a.38.38,0,0,1,.4.4V27a.38.38,0,0,1-.4.4Z" transform="translate(0)"/><path d="M42.82,27.2a.38.38,0,0,1-.4-.4V8.44a.38.38,0,0,1,.4-.4h2.56a.38.38,0,0,1,.4.4v2h0A5.34,5.34,0,0,1,50.9,7.6,5.89,5.89,0,0,1,54.82,9c.2.2.24.36.08.56l-1.48,2a.36.36,0,0,1-.56.08,5.4,5.4,0,0,0-3-.92c-2.92,0-4.12,2.28-4.12,5.6V26.8a.38.38,0,0,1-.4.4Z" transform="translate(0)"/><path d="M56,22.44a15,15,0,0,1-.64-4.84,14.86,14.86,0,0,1,.6-4.84C57,9.44,59.82,7.6,63.46,7.6A7.42,7.42,0,0,1,71,12.76a16.72,16.72,0,0,1,.6,5.48.39.39,0,0,1-.44.4H59a.21.21,0,0,0-.24.24,7.18,7.18,0,0,0,.32,2.32,4.73,4.73,0,0,0,4.84,3.32,6.26,6.26,0,0,0,4.92-2.12.41.41,0,0,1,.6-.08L71.1,23.8a.36.36,0,0,1,0,.56,9.32,9.32,0,0,1-7.48,3.28C59.78,27.64,57,25.75,56,22.44ZM67.9,16a.21.21,0,0,0,.24-.24,6.74,6.74,0,0,0-.28-2.16,4.73,4.73,0,0,0-8.8,0,6.74,6.74,0,0,0-.28,2.16A.21.21,0,0,0,59,16Z" transform="translate(0)"/><path d="M87,27.2a.38.38,0,0,1-.4-.4V25.12h0c-.88,1.44-2.76,2.52-5.68,2.52-3.64,0-6.44-1.89-6.44-5.76,0-4,2.8-5.92,7.48-5.92h4.36a.21.21,0,0,0,.24-.24v-1.4c0-2.64-1-3.76-4.6-3.76a7.45,7.45,0,0,0-4.64,1.36c-.2.16-.44.16-.56,0L75.62,10a.42.42,0,0,1,.08-.56A10.63,10.63,0,0,1,82.22,7.6c5.44,0,7.52,1.8,7.52,6.52V26.8a.38.38,0,0,1-.4.4ZM86.5,21V18.88a.21.21,0,0,0-.24-.24H82.42c-3.32,0-4.76,1-4.76,3.12,0,2,1.44,3,4,3C84.66,24.76,86.5,23.36,86.5,21Z" transform="translate(0)"/><path d="M99.14,27.4c-3.36,0-4.68-1.6-4.68-5V.4a.38.38,0,0,1,.4-.4h2.56a.38.38,0,0,1,.4.4V22.16c0,1.6.6,2.12,1.92,2.12h.76a.38.38,0,0,1,.4.4V27a.38.38,0,0,1-.4.4Z" transform="translate(0)"/><path d="M104.34,3.72a.38.38,0,0,1-.4-.4V.4a.38.38,0,0,1,.4-.4h2.72a.38.38,0,0,1,.4.4V3.32a.38.38,0,0,1-.4.4Zm.08,23.48a.38.38,0,0,1-.4-.4V8.44a.38.38,0,0,1,.4-.4H107a.38.38,0,0,1,.4.4V26.8a.38.38,0,0,1-.4.4Z" transform="translate(0)"/><path d="M111.66,27.2a.38.38,0,0,1-.4-.4V24.68a.6.6,0,0,1,.16-.44l10.52-13.08v-.08h-9.76a.38.38,0,0,1-.4-.4V8.44a.38.38,0,0,1,.4-.4h13.36a.38.38,0,0,1,.4.4v2.24a.6.6,0,0,1-.16.44l-10.44,13v.08h10.2a.38.38,0,0,1,.4.4V26.8a.38.38,0,0,1-.4.4Z" transform="translate(0)"/><path d="M141.42,27.2a.38.38,0,0,1-.4-.4V25.12h0c-.88,1.44-2.76,2.52-5.68,2.52-3.64,0-6.44-1.89-6.44-5.76,0-4,2.8-5.92,7.48-5.92h4.36a.21.21,0,0,0,.24-.24v-1.4c0-2.64-1-3.76-4.6-3.76a7.45,7.45,0,0,0-4.64,1.36c-.2.16-.44.16-.56,0L130.06,10a.42.42,0,0,1,.08-.56,10.63,10.63,0,0,1,6.52-1.88c5.44,0,7.52,1.8,7.52,6.52V26.8a.38.38,0,0,1-.4.4Zm-.48-6.2V18.88a.21.21,0,0,0-.24-.24h-3.84c-3.32,0-4.76,1-4.76,3.12,0,2,1.44,3,4,3C139.1,24.76,140.94,23.36,140.94,21Z" transform="translate(0)"/><path d="M149.38,27.2a.38.38,0,0,1-.4-.4V8.44a.38.38,0,0,1,.4-.4h2.56a.38.38,0,0,1,.4.4v2h0a5.34,5.34,0,0,1,5.08-2.8A5.89,5.89,0,0,1,161.38,9c.2.2.24.36.08.56l-1.48,2a.36.36,0,0,1-.56.08,5.4,5.4,0,0,0-3-.92c-2.92,0-4.12,2.28-4.12,5.6V26.8a.38.38,0,0,1-.4.4Z" transform="translate(0)"/><path d="M176.38,27.4c-3.36,0-4.68-1.6-4.68-5V.4a.38.38,0,0,1,.4-.4h2.56a.38.38,0,0,1,.4.4V22.16c0,1.6.6,2.12,1.92,2.12h.76a.38.38,0,0,1,.4.4V27a.38.38,0,0,1-.4.4Z" transform="translate(0)"/><path d="M192.86,27.2a.38.38,0,0,1-.4-.4V25.12h0c-.88,1.44-2.76,2.52-5.68,2.52-3.64,0-6.44-1.89-6.44-5.76,0-4,2.8-5.92,7.48-5.92h4.36a.21.21,0,0,0,.24-.24v-1.4c0-2.64-1-3.76-4.6-3.76a7.45,7.45,0,0,0-4.64,1.36c-.2.16-.44.16-.56,0L181.5,10a.42.42,0,0,1,.08-.56A10.63,10.63,0,0,1,188.1,7.6c5.44,0,7.52,1.8,7.52,6.52V26.8a.38.38,0,0,1-.4.4Zm-.48-6.2V18.88a.21.21,0,0,0-.24-.24H188.3c-3.32,0-4.76,1-4.76,3.12,0,2,1.44,3,4,3C190.54,24.76,192.38,23.36,192.38,21Z" transform="translate(0)"/><path d="M200.82,27.2a.38.38,0,0,1-.4-.4V.4a.38.38,0,0,1,.4-.4h2.56a.38.38,0,0,1,.4.4v9.84h0c.92-1.52,2.56-2.64,5.44-2.64,3.32,0,5.64,1.56,6.6,4.6a15.84,15.84,0,0,1,.68,5.4,16,16,0,0,1-.68,5.44c-1,3-3.28,4.6-6.6,4.6-2.88,0-4.52-1.16-5.44-2.68h0V26.8a.38.38,0,0,1-.4.4Zm11.84-5.6a13.29,13.29,0,0,0,.44-4,13.63,13.63,0,0,0-.44-4,4.53,4.53,0,0,0-8.44,0,12.47,12.47,0,0,0-.44,4,12.31,12.31,0,0,0,.44,4,4.51,4.51,0,0,0,8.44,0Z" transform="translate(0)"/><path d="M219.82,22.48a14.39,14.39,0,0,1-.64-4.88,14.29,14.29,0,0,1,.64-4.84c1-3.28,3.84-5.16,7.56-5.16s6.52,1.88,7.56,5.16a14.29,14.29,0,0,1,.64,4.84,14.39,14.39,0,0,1-.64,4.88c-1,3.24-3.84,5.16-7.56,5.16S220.86,25.72,219.82,22.48Zm11.88-1a12.55,12.55,0,0,0,.44-3.92,12.27,12.27,0,0,0-.44-3.88,4.61,4.61,0,0,0-8.64,0,12.27,12.27,0,0,0-.44,3.88,12.55,12.55,0,0,0,.44,3.92,4.61,4.61,0,0,0,8.64,0Z" transform="translate(0)"/><path d="M239.78,27.2a.38.38,0,0,1-.4-.4V8.44a.38.38,0,0,1,.4-.4h2.56a.38.38,0,0,1,.4.4v2h0a5.34,5.34,0,0,1,5.08-2.8A5.89,5.89,0,0,1,251.78,9c.2.2.24.36.08.56l-1.48,2a.36.36,0,0,1-.56.08,5.4,5.4,0,0,0-3-.92c-2.92,0-4.12,2.28-4.12,5.6V26.8a.38.38,0,0,1-.4.4Z" transform="translate(0)"/><path d="M252.94,22.44a15,15,0,0,1-.64-4.84,14.86,14.86,0,0,1,.6-4.84c1.08-3.32,3.88-5.16,7.52-5.16a7.42,7.42,0,0,1,7.52,5.16,16.72,16.72,0,0,1,.6,5.48.39.39,0,0,1-.44.4H256a.21.21,0,0,0-.24.24,7.18,7.18,0,0,0,.32,2.32,4.73,4.73,0,0,0,4.84,3.32,6.26,6.26,0,0,0,4.92-2.12.41.41,0,0,1,.6-.08l1.64,1.48a.36.36,0,0,1,0,.56,9.32,9.32,0,0,1-7.48,3.28C256.74,27.64,254,25.75,252.94,22.44ZM264.86,16a.21.21,0,0,0,.24-.24,6.74,6.74,0,0,0-.28-2.16,4.73,4.73,0,0,0-8.8,0,6.74,6.74,0,0,0-.28,2.16A.21.21,0,0,0,256,16Z" transform="translate(0)"/><path d="M271,24.76a.39.39,0,0,1,0-.56l1.64-1.76a.39.39,0,0,1,.56,0,9.31,9.31,0,0,0,5.92,2.2c2.8,0,4.2-1.2,4.2-2.92,0-1.52-.72-2.36-3.72-2.68l-2-.2c-3.76-.4-5.72-2.28-5.72-5.4,0-3.64,2.6-5.84,7.12-5.84a11.46,11.46,0,0,1,6.8,2.12.39.39,0,0,1,.08.56L284.5,12a.39.39,0,0,1-.56.08,10.09,10.09,0,0,0-5.16-1.56c-2.4,0-3.64,1.08-3.64,2.64s.92,2.32,3.76,2.6l2,.2c3.88.36,5.76,2.32,5.76,5.4,0,3.76-2.72,6.28-7.72,6.28A11.91,11.91,0,0,1,271,24.76Z" transform="translate(0)"/><path d="M297.82,22.44a15,15,0,0,1-.64-4.84,14.86,14.86,0,0,1,.6-4.84c1.08-3.32,3.88-5.16,7.52-5.16s6.44,1.88,7.51,5.16a16.72,16.72,0,0,1,.6,5.48.39.39,0,0,1-.44.4H300.86a.21.21,0,0,0-.24.24,7.18,7.18,0,0,0,.32,2.32,4.73,4.73,0,0,0,4.84,3.32,6.26,6.26,0,0,0,4.92-2.12.41.41,0,0,1,.6-.08l1.63,1.48a.35.35,0,0,1,0,.56,9.28,9.28,0,0,1-7.47,3.28C301.62,27.64,298.86,25.75,297.82,22.44ZM309.74,16a.21.21,0,0,0,.24-.24,6.74,6.74,0,0,0-.28-2.16,4.73,4.73,0,0,0-8.8,0,6.74,6.74,0,0,0-.28,2.16.21.21,0,0,0,.24.24Z" transform="translate(0)"/><path d="M329.65,27.2a.38.38,0,0,1-.4-.4V15.6c0-3.08-1.4-4.88-4.27-4.88-2.6,0-4.4,1.84-4.4,4.68V26.8a.38.38,0,0,1-.4.4h-2.56a.38.38,0,0,1-.4-.4V8.44a.38.38,0,0,1,.4-.4h2.56a.38.38,0,0,1,.4.4V10.2h0A6.06,6.06,0,0,1,326,7.6c4.15,0,6.63,2.84,6.63,7.2v12a.38.38,0,0,1-.4.4Z" transform="translate(0)"/><path d="M344.7,27.2a.38.38,0,0,1-.4-.4V24.68a.6.6,0,0,1,.16-.44L355,11.16v-.08h-9.75a.38.38,0,0,1-.4-.4V8.44a.38.38,0,0,1,.4-.4h13.35a.38.38,0,0,1,.4.4v2.24a.6.6,0,0,1-.16.44l-10.43,13v.08h10.19a.38.38,0,0,1,.4.4V26.8a.38.38,0,0,1-.4.4Z" transform="translate(0)"/><path d="M362.34,22.48a14.39,14.39,0,0,1-.64-4.88,14.29,14.29,0,0,1,.64-4.84c1-3.28,3.84-5.16,7.55-5.16s6.52,1.88,7.56,5.16a14.29,14.29,0,0,1,.64,4.84,14.39,14.39,0,0,1-.64,4.88c-1,3.24-3.84,5.16-7.56,5.16S363.38,25.72,362.34,22.48Zm11.87-1a12.55,12.55,0,0,0,.44-3.92,12.27,12.27,0,0,0-.44-3.88,4.6,4.6,0,0,0-8.63,0,12.27,12.27,0,0,0-.44,3.88,12.55,12.55,0,0,0,.44,3.92,4.6,4.6,0,0,0,8.63,0Z" transform="translate(0)"/><path d="M394.33,27.2a.38.38,0,0,1-.4-.4V15.6c0-3.08-1.4-4.88-4.28-4.88-2.6,0-4.4,1.84-4.4,4.68V26.8a.37.37,0,0,1-.4.4H382.3a.38.38,0,0,1-.4-.4V8.44a.38.38,0,0,1,.4-.4h2.55a.37.37,0,0,1,.4.4V10.2h0a6.06,6.06,0,0,1,5.36-2.6c4.16,0,6.64,2.84,6.64,7.2v12a.38.38,0,0,1-.4.4Z" transform="translate(0)"/><path d="M413.65,27.2a.38.38,0,0,1-.4-.4V25.12h0c-.88,1.44-2.76,2.52-5.68,2.52-3.64,0-6.43-1.89-6.43-5.76,0-4,2.79-5.92,7.47-5.92h4.36a.21.21,0,0,0,.24-.24v-1.4c0-2.64-1-3.76-4.6-3.76a7.45,7.45,0,0,0-4.64,1.36c-.2.16-.44.16-.56,0L402.3,10a.42.42,0,0,1,.08-.56,10.57,10.57,0,0,1,6.51-1.88c5.44,0,7.52,1.8,7.52,6.52V26.8a.38.38,0,0,1-.4.4Zm-.48-6.2V18.88a.21.21,0,0,0-.24-.24h-3.84c-3.32,0-4.76,1-4.76,3.12,0,2,1.44,3,4,3C411.33,24.76,413.17,23.36,413.17,21Z" transform="translate(0)"/><path d="M428.66,12.76c1.07-3.32,3.87-5.16,7.55-5.16a7.68,7.68,0,0,1,6.56,3.24c.12.2.12.36-.12.56l-1.76,1.44a.36.36,0,0,1-.56,0,4.71,4.71,0,0,0-4.12-2.08,4.16,4.16,0,0,0-4.28,3,12.76,12.76,0,0,0-.44,3.88,12.88,12.88,0,0,0,.44,3.92,4.16,4.16,0,0,0,4.28,3,4.71,4.71,0,0,0,4.12-2.08.36.36,0,0,1,.56,0l1.76,1.44c.24.2.24.36.12.56a7.68,7.68,0,0,1-6.56,3.24c-3.68,0-6.48-1.84-7.55-5.16a16.17,16.17,0,0,1-.61-4.88A16.06,16.06,0,0,1,428.66,12.76Z" transform="translate(0)"/><path d="M445.49,22.48a14.39,14.39,0,0,1-.64-4.88,14.29,14.29,0,0,1,.64-4.84c1-3.28,3.84-5.16,7.56-5.16s6.52,1.88,7.56,5.16a14.29,14.29,0,0,1,.64,4.84,14.39,14.39,0,0,1-.64,4.88c-1,3.24-3.84,5.16-7.56,5.16S446.53,25.72,445.49,22.48Zm11.88-1a12.55,12.55,0,0,0,.44-3.92,12.27,12.27,0,0,0-.44-3.88,4.61,4.61,0,0,0-8.64,0,12.27,12.27,0,0,0-.44,3.88,12.55,12.55,0,0,0,.44,3.92,4.61,4.61,0,0,0,8.64,0Z" transform="translate(0)"/><path d="M477.49,27.2a.38.38,0,0,1-.4-.4V15.6c0-3.08-1.4-4.88-4.28-4.88-2.6,0-4.4,1.84-4.4,4.68V26.8a.38.38,0,0,1-.4.4h-2.56a.38.38,0,0,1-.4-.4V8.44a.38.38,0,0,1,.4-.4H468a.38.38,0,0,1,.4.4V10.2h0a6.06,6.06,0,0,1,5.36-2.6c4.16,0,6.64,2.84,6.64,7.2v12a.38.38,0,0,1-.4.4Z" transform="translate(0)"/><path d="M32.22,72.39a.38.38,0,0,1-.4-.4V46.44a.38.38,0,0,1,.4-.4h2.56a.38.38,0,0,1,.4.4v1.8h0c.92-1.52,2.56-2.64,5.44-2.64,3.32,0,5.64,1.56,6.6,4.6a15.84,15.84,0,0,1,.68,5.4A16,16,0,0,1,47.26,61c-1,3-3.28,4.6-6.6,4.6-2.88,0-4.52-1.16-5.44-2.68h0v9a.38.38,0,0,1-.4.4ZM44.06,59.6a13.29,13.29,0,0,0,.44-4,13.63,13.63,0,0,0-.44-4,4.07,4.07,0,0,0-4.2-2.88,4.07,4.07,0,0,0-4.24,2.88,12.47,12.47,0,0,0-.44,4,12.31,12.31,0,0,0,.44,4,4.1,4.1,0,0,0,4.24,2.92A4.1,4.1,0,0,0,44.06,59.6Z" transform="translate(0)"/><path d="M52.94,65.2a.38.38,0,0,1-.4-.4V46.44a.38.38,0,0,1,.4-.4H55.5a.38.38,0,0,1,.4.4v2h0A5.34,5.34,0,0,1,61,45.6,5.89,5.89,0,0,1,64.94,47c.2.2.24.36.08.56l-1.48,2a.36.36,0,0,1-.56.08,5.4,5.4,0,0,0-3-.92c-2.92,0-4.12,2.28-4.12,5.6V64.8a.38.38,0,0,1-.4.4Z" transform="translate(0)"/><path d="M66.9,60.44a15,15,0,0,1-.64-4.84,14.86,14.86,0,0,1,.6-4.84c1.08-3.32,3.88-5.16,7.52-5.16a7.42,7.42,0,0,1,7.52,5.16,16.72,16.72,0,0,1,.6,5.48.39.39,0,0,1-.44.4H69.94a.21.21,0,0,0-.24.24A7.18,7.18,0,0,0,70,59.2a4.73,4.73,0,0,0,4.84,3.32,6.26,6.26,0,0,0,4.92-2.12.41.41,0,0,1,.6-.08L82,61.8a.36.36,0,0,1,0,.56,9.32,9.32,0,0,1-7.48,3.28C70.7,65.64,67.94,63.75,66.9,60.44ZM78.82,54a.21.21,0,0,0,.24-.24,6.74,6.74,0,0,0-.28-2.16,4.73,4.73,0,0,0-8.8,0,6.74,6.74,0,0,0-.28,2.16.21.21,0,0,0,.24.24Z" transform="translate(0)"/><path d="M85.78,62.76a.39.39,0,0,1,0-.56l1.64-1.76a.39.39,0,0,1,.56,0,9.31,9.31,0,0,0,5.92,2.2c2.8,0,4.2-1.2,4.2-2.92,0-1.52-.72-2.36-3.72-2.68l-2-.2c-3.76-.4-5.72-2.28-5.72-5.4,0-3.64,2.6-5.84,7.12-5.84a11.46,11.46,0,0,1,6.8,2.12.39.39,0,0,1,.08.56L99.26,50a.39.39,0,0,1-.56.08,10.09,10.09,0,0,0-5.16-1.56c-2.4,0-3.64,1.08-3.64,2.64s.92,2.32,3.76,2.6l2,.2c3.88.36,5.76,2.32,5.76,5.4,0,3.76-2.72,6.28-7.72,6.28A11.91,11.91,0,0,1,85.78,62.76Z" transform="translate(0)"/><path d="M105.38,60.44a15,15,0,0,1-.64-4.84,14.86,14.86,0,0,1,.6-4.84c1.08-3.32,3.88-5.16,7.52-5.16a7.42,7.42,0,0,1,7.52,5.16,16.72,16.72,0,0,1,.6,5.48.39.39,0,0,1-.44.4H108.42a.21.21,0,0,0-.24.24,7.18,7.18,0,0,0,.32,2.32,4.73,4.73,0,0,0,4.84,3.32,6.26,6.26,0,0,0,4.92-2.12.41.41,0,0,1,.6-.08l1.64,1.48a.36.36,0,0,1,0,.56,9.32,9.32,0,0,1-7.48,3.28C109.18,65.64,106.42,63.75,105.38,60.44ZM117.3,54a.21.21,0,0,0,.24-.24,6.74,6.74,0,0,0-.28-2.16,4.73,4.73,0,0,0-8.8,0,6.74,6.74,0,0,0-.28,2.16.21.21,0,0,0,.24.24Z" transform="translate(0)"/><path d="M138,65.2a.38.38,0,0,1-.4-.4V53.6c0-3.08-1.4-4.88-4.28-4.88-2.6,0-4.4,1.84-4.4,4.68V64.8a.38.38,0,0,1-.4.4H126a.38.38,0,0,1-.4-.4V46.44a.38.38,0,0,1,.4-.4h2.56a.38.38,0,0,1,.4.4V48.2h0a6.06,6.06,0,0,1,5.36-2.6c4.16,0,6.64,2.84,6.64,7.2v12a.38.38,0,0,1-.4.4Z" transform="translate(0)"/><path d="M146,50.76c1.08-3.32,3.88-5.16,7.56-5.16a7.68,7.68,0,0,1,6.56,3.24c.12.2.12.36-.12.56l-1.76,1.44a.36.36,0,0,1-.56,0,4.71,4.71,0,0,0-4.12-2.08,4.16,4.16,0,0,0-4.28,3,12.76,12.76,0,0,0-.44,3.88,12.88,12.88,0,0,0,.44,3.92,4.16,4.16,0,0,0,4.28,3,4.71,4.71,0,0,0,4.12-2.08.36.36,0,0,1,.56,0L160,61.84c.24.2.24.36.12.56a7.68,7.68,0,0,1-6.56,3.24c-3.68,0-6.48-1.84-7.56-5.16a16.55,16.55,0,0,1-.6-4.88A16.45,16.45,0,0,1,146,50.76Z" transform="translate(0)"/><path d="M164.94,41.72a.38.38,0,0,1-.4-.4V38.4a.38.38,0,0,1,.4-.4h2.72a.38.38,0,0,1,.4.4v2.92a.38.38,0,0,1-.4.4ZM165,65.2a.38.38,0,0,1-.4-.4V46.44a.38.38,0,0,1,.4-.4h2.56a.38.38,0,0,1,.4.4V64.8a.38.38,0,0,1-.4.4Z" transform="translate(0)"/><path d="M185.34,65.2a.38.38,0,0,1-.4-.4V63.12h0c-.88,1.44-2.76,2.52-5.68,2.52-3.64,0-6.44-1.89-6.44-5.76,0-4,2.8-5.92,7.48-5.92h4.36a.21.21,0,0,0,.24-.24v-1.4c0-2.64-1-3.76-4.6-3.76a7.45,7.45,0,0,0-4.64,1.36c-.2.16-.44.16-.56,0L174,48a.42.42,0,0,1,.08-.56,10.63,10.63,0,0,1,6.52-1.88c5.44,0,7.52,1.8,7.52,6.52V64.8a.38.38,0,0,1-.4.4Zm-.48-6.2V56.88a.21.21,0,0,0-.24-.24h-3.84c-3.32,0-4.76,1-4.76,3.12,0,2,1.44,3,4,3C183,62.76,184.86,61.36,184.86,59Z" transform="translate(0)"/><path d="M214.5,65.2a.38.38,0,0,1-.4-.4V63h0c-.92,1.52-2.56,2.68-5.44,2.68-3.32,0-5.64-1.56-6.6-4.6a16,16,0,0,1-.68-5.44,15.84,15.84,0,0,1,.68-5.4c1-3,3.28-4.6,6.6-4.6,2.88,0,4.52,1.12,5.44,2.64h0V38.4a.38.38,0,0,1,.4-.4h2.56a.38.38,0,0,1,.4.4V64.8a.38.38,0,0,1-.4.4Zm-.84-5.6a12.31,12.31,0,0,0,.44-4,12.47,12.47,0,0,0-.44-4,4.53,4.53,0,0,0-8.44,0,13.63,13.63,0,0,0-.44,4,13.29,13.29,0,0,0,.44,4,4.51,4.51,0,0,0,8.44,0Z" transform="translate(0)"/><path d="M222.7,60.44a15,15,0,0,1-.64-4.84,14.86,14.86,0,0,1,.6-4.84c1.08-3.32,3.88-5.16,7.52-5.16a7.42,7.42,0,0,1,7.52,5.16,16.72,16.72,0,0,1,.6,5.48.39.39,0,0,1-.44.4H225.74a.21.21,0,0,0-.24.24,7.18,7.18,0,0,0,.32,2.32,4.73,4.73,0,0,0,4.84,3.32,6.26,6.26,0,0,0,4.92-2.12.41.41,0,0,1,.6-.08l1.64,1.48a.36.36,0,0,1,0,.56,9.32,9.32,0,0,1-7.48,3.28C226.5,65.64,223.74,63.75,222.7,60.44ZM234.62,54a.21.21,0,0,0,.24-.24,6.74,6.74,0,0,0-.28-2.16,4.73,4.73,0,0,0-8.8,0,6.74,6.74,0,0,0-.28,2.16.21.21,0,0,0,.24.24Z" transform="translate(0)"/><path d="M256.82,65.2c-.28,0-.4-.16-.48-.4l-6.88-18.36c-.08-.24,0-.4.32-.4h2.76c.28,0,.4.12.52.4l5,13.76h.08l4.84-13.76a.47.47,0,0,1,.48-.4h2.72c.28,0,.4.16.32.4L259.62,64.8a.52.52,0,0,1-.52.4Z" transform="translate(0)"/><path d="M269.3,60.44a15,15,0,0,1-.64-4.84,14.86,14.86,0,0,1,.6-4.84c1.08-3.32,3.88-5.16,7.52-5.16a7.42,7.42,0,0,1,7.52,5.16,16.72,16.72,0,0,1,.6,5.48.39.39,0,0,1-.44.4H272.34a.21.21,0,0,0-.24.24,7.18,7.18,0,0,0,.32,2.32,4.73,4.73,0,0,0,4.84,3.32,6.26,6.26,0,0,0,4.92-2.12.41.41,0,0,1,.6-.08l1.64,1.48a.36.36,0,0,1,0,.56A9.32,9.32,0,0,1,277,65.64C273.1,65.64,270.34,63.75,269.3,60.44ZM281.22,54a.21.21,0,0,0,.24-.24,6.74,6.74,0,0,0-.28-2.16,4.73,4.73,0,0,0-8.8,0,6.74,6.74,0,0,0-.28,2.16.21.21,0,0,0,.24.24Z" transform="translate(0)"/><path d="M301.94,65.2a.38.38,0,0,1-.4-.4V53.6c0-3.08-1.4-4.88-4.28-4.88-2.6,0-4.4,1.84-4.4,4.68V64.8a.38.38,0,0,1-.4.4H289.9a.38.38,0,0,1-.4-.4V38.4a.38.38,0,0,1,.4-.4h2.56a.38.38,0,0,1,.4.4v9.8h0a6.06,6.06,0,0,1,5.36-2.6c4.16,0,6.64,2.84,6.64,7.2v12a.38.38,0,0,1-.4.4Z" transform="translate(0)"/><path d="M310.86,65.2a.38.38,0,0,1-.4-.4V46.44a.38.38,0,0,1,.4-.4h2.56a.38.38,0,0,1,.4.4V64.8a.38.38,0,0,1-.4.4Zm.32-22.28c-.24,0-.36-.16-.24-.4l3-4.92a.7.7,0,0,1,.68-.4h2.64c.24,0,.36.2.2.4l-3.68,4.92a.79.79,0,0,1-.76.4Z" transform="translate(0)"/><path d="M319,50.76c1.08-3.32,3.88-5.16,7.56-5.16a7.68,7.68,0,0,1,6.56,3.24c.12.2.12.36-.12.56l-1.76,1.44a.36.36,0,0,1-.56,0,4.71,4.71,0,0,0-4.12-2.08,4.16,4.16,0,0,0-4.28,3,12.76,12.76,0,0,0-.44,3.88,12.88,12.88,0,0,0,.44,3.92,4.16,4.16,0,0,0,4.28,3,4.71,4.71,0,0,0,4.12-2.08.36.36,0,0,1,.56,0L333,61.84c.24.2.24.36.12.56a7.68,7.68,0,0,1-6.56,3.24c-3.68,0-6.48-1.84-7.56-5.16a16.55,16.55,0,0,1-.6-4.88A16.45,16.45,0,0,1,319,50.76Z" transform="translate(0)"/><path d="M349.7,65.2a.38.38,0,0,1-.4-.4V63h0A5.86,5.86,0,0,1,344,65.64c-4.2,0-6.64-2.88-6.64-7.24v-12a.38.38,0,0,1,.4-.4h2.56a.38.38,0,0,1,.4.4V57.6c0,3.12,1.4,4.92,4.24,4.92,2.6,0,4.32-1.84,4.32-4.72V46.44a.38.38,0,0,1,.4-.4h2.55a.38.38,0,0,1,.4.4V64.8a.38.38,0,0,1-.4.4Z" transform="translate(0)"/><path d="M363,65.4c-3.36,0-4.68-1.6-4.68-5v-22a.38.38,0,0,1,.4-.4h2.56a.38.38,0,0,1,.4.4V60.16c0,1.6.6,2.12,1.92,2.12h.76a.38.38,0,0,1,.4.4V65a.38.38,0,0,1-.4.4Z" transform="translate(0)"/><path d="M368.18,60.48a14.39,14.39,0,0,1-.64-4.88,14.29,14.29,0,0,1,.64-4.84c1-3.28,3.84-5.16,7.56-5.16s6.51,1.88,7.55,5.16a14.29,14.29,0,0,1,.64,4.84,14.39,14.39,0,0,1-.64,4.88c-1,3.24-3.84,5.16-7.55,5.16S369.22,63.72,368.18,60.48Zm11.87-1a12.55,12.55,0,0,0,.44-3.92,12.27,12.27,0,0,0-.44-3.88,4.6,4.6,0,0,0-8.63,0A12.27,12.27,0,0,0,371,55.6a12.55,12.55,0,0,0,.44,3.92,4.6,4.6,0,0,0,8.63,0Z" transform="translate(0)"/><path d="M387.22,62.76a.39.39,0,0,1,0-.56l1.64-1.76a.39.39,0,0,1,.56,0,9.3,9.3,0,0,0,5.91,2.2c2.8,0,4.2-1.2,4.2-2.92,0-1.52-.72-2.36-3.72-2.68l-2-.2c-3.76-.4-5.72-2.28-5.72-5.4,0-3.64,2.6-5.84,7.12-5.84A11.45,11.45,0,0,1,402,47.72a.39.39,0,0,1,.08.56L400.69,50a.39.39,0,0,1-.56.08A10.09,10.09,0,0,0,395,48.52c-2.39,0-3.63,1.08-3.63,2.64s.92,2.32,3.76,2.6l2,.2c3.88.36,5.76,2.32,5.76,5.4,0,3.76-2.72,6.28-7.71,6.28A11.91,11.91,0,0,1,387.22,62.76Z" transform="translate(0)"/><path d="M428.13,65.2a.38.38,0,0,1-.4-.4V63h0c-.92,1.52-2.56,2.68-5.44,2.68-3.32,0-5.63-1.56-6.59-4.6A16,16,0,0,1,415,55.6a15.84,15.84,0,0,1,.68-5.4c1-3,3.27-4.6,6.59-4.6,2.88,0,4.52,1.12,5.44,2.64h0V38.4a.38.38,0,0,1,.4-.4h2.56a.38.38,0,0,1,.4.4V64.8a.38.38,0,0,1-.4.4Zm-.84-5.6a12.31,12.31,0,0,0,.44-4,12.47,12.47,0,0,0-.44-4,4.53,4.53,0,0,0-8.44,0,13.63,13.63,0,0,0-.44,4,13.29,13.29,0,0,0,.44,4,4.51,4.51,0,0,0,8.44,0Z" transform="translate(0)"/><path d="M436.34,60.44a14.75,14.75,0,0,1-.64-4.84,14.86,14.86,0,0,1,.6-4.84c1.07-3.32,3.87-5.16,7.51-5.16a7.42,7.42,0,0,1,7.52,5.16,16.72,16.72,0,0,1,.6,5.48.39.39,0,0,1-.44.4H439.37a.21.21,0,0,0-.24.24,7.18,7.18,0,0,0,.32,2.32,4.73,4.73,0,0,0,4.84,3.32,6.26,6.26,0,0,0,4.92-2.12.41.41,0,0,1,.6-.08l1.64,1.48a.36.36,0,0,1,0,.56A9.32,9.32,0,0,1,444,65.64C440.13,65.64,437.37,63.75,436.34,60.44ZM448.25,54a.21.21,0,0,0,.24-.24,6.74,6.74,0,0,0-.28-2.16,4.73,4.73,0,0,0-8.8,0,6.74,6.74,0,0,0-.28,2.16.21.21,0,0,0,.24.24Z" transform="translate(0)"/><path d="M1.09,88.76C2.17,85.44,5,83.6,8.64,83.6a7.68,7.68,0,0,1,6.56,3.24c.12.2.12.36-.12.56l-1.76,1.44a.36.36,0,0,1-.56,0,4.71,4.71,0,0,0-4.12-2.08,4.14,4.14,0,0,0-4.27,3,12.76,12.76,0,0,0-.44,3.88,12.88,12.88,0,0,0,.44,3.92,4.14,4.14,0,0,0,4.27,3,4.71,4.71,0,0,0,4.12-2.08.36.36,0,0,1,.56,0l1.76,1.44c.24.2.24.36.12.56a7.68,7.68,0,0,1-6.56,3.24c-3.67,0-6.47-1.84-7.55-5.16a20,20,0,0,1,0-9.72Z" transform="translate(0)"/><path d="M31.76,103.2a.38.38,0,0,1-.4-.4V101h0a5.86,5.86,0,0,1-5.24,2.64c-4.2,0-6.63-2.88-6.63-7.24v-12a.38.38,0,0,1,.4-.4H22.4a.38.38,0,0,1,.4.4V95.6c0,3.12,1.4,4.92,4.24,4.92,2.6,0,4.32-1.84,4.32-4.72V84.44a.38.38,0,0,1,.4-.4h2.56a.38.38,0,0,1,.4.4V102.8a.38.38,0,0,1-.4.4Z" transform="translate(0)"/><path d="M52.08,103.2a.38.38,0,0,1-.4-.4v-1.68h0c-.88,1.44-2.76,2.52-5.68,2.52-3.64,0-6.44-1.89-6.44-5.76,0-4,2.8-5.92,7.48-5.92h4.36a.21.21,0,0,0,.24-.24v-1.4c0-2.64-1-3.76-4.6-3.76a7.45,7.45,0,0,0-4.64,1.36c-.2.16-.44.16-.56,0L40.72,86a.42.42,0,0,1,.08-.56,10.63,10.63,0,0,1,6.52-1.88c5.44,0,7.52,1.8,7.52,6.52V102.8a.38.38,0,0,1-.4.4ZM51.6,97V94.88a.21.21,0,0,0-.24-.24H47.52c-3.32,0-4.76,1-4.76,3.12,0,2,1.44,3,4,3C49.76,100.76,51.6,99.36,51.6,97Z" transform="translate(0)"/><path d="M65,103.4c-3.36,0-4.68-1.6-4.68-5v-22a.38.38,0,0,1,.4-.4h2.56a.38.38,0,0,1,.4.4V98.16c0,1.6.6,2.12,1.92,2.12h.76a.38.38,0,0,1,.4.4V103a.38.38,0,0,1-.4.4Z" transform="translate(0)"/><path d="M82.72,110.39a.38.38,0,0,1-.4-.4v-9h0c-.92,1.52-2.56,2.68-5.44,2.68-3.32,0-5.64-1.56-6.6-4.6a16,16,0,0,1-.68-5.44,15.84,15.84,0,0,1,.68-5.4c1-3,3.28-4.6,6.6-4.6,2.88,0,4.52,1.12,5.44,2.64h0v-1.8a.38.38,0,0,1,.4-.4h2.56a.38.38,0,0,1,.4.4V110a.38.38,0,0,1-.4.4ZM81.88,97.6a12.31,12.31,0,0,0,.44-4,12.47,12.47,0,0,0-.44-4,4.53,4.53,0,0,0-8.44,0,13.63,13.63,0,0,0-.44,4,13.29,13.29,0,0,0,.44,4,4.51,4.51,0,0,0,8.44,0Z" transform="translate(0)"/><path d="M103.48,103.2a.38.38,0,0,1-.4-.4V101h0a5.86,5.86,0,0,1-5.24,2.64c-4.2,0-6.64-2.88-6.64-7.24v-12a.38.38,0,0,1,.4-.4h2.56a.38.38,0,0,1,.4.4V95.6c0,3.12,1.4,4.92,4.24,4.92,2.6,0,4.32-1.84,4.32-4.72V84.44a.38.38,0,0,1,.4-.4H106a.38.38,0,0,1,.4.4V102.8a.38.38,0,0,1-.4.4Z" transform="translate(0)"/><path d="M112.52,79.72a.38.38,0,0,1-.4-.4V76.4a.38.38,0,0,1,.4-.4h2.72a.38.38,0,0,1,.4.4v2.92a.38.38,0,0,1-.4.4Zm.08,23.48a.38.38,0,0,1-.4-.4V84.44a.38.38,0,0,1,.4-.4h2.56a.38.38,0,0,1,.4.4V102.8a.38.38,0,0,1-.4.4Z" transform="translate(0)"/><path d="M120.8,98.44a15,15,0,0,1-.64-4.84,14.86,14.86,0,0,1,.6-4.84c1.08-3.32,3.88-5.16,7.52-5.16a7.42,7.42,0,0,1,7.52,5.16,16.72,16.72,0,0,1,.6,5.48.39.39,0,0,1-.44.4H123.84a.21.21,0,0,0-.24.24,7.18,7.18,0,0,0,.32,2.32,4.73,4.73,0,0,0,4.84,3.32,6.26,6.26,0,0,0,4.92-2.12.41.41,0,0,1,.6-.08l1.64,1.48a.36.36,0,0,1,0,.56,9.32,9.32,0,0,1-7.48,3.28C124.6,103.64,121.84,101.75,120.8,98.44ZM132.72,92a.21.21,0,0,0,.24-.24,6.74,6.74,0,0,0-.28-2.16,4.73,4.73,0,0,0-8.8,0,6.74,6.74,0,0,0-.28,2.16.21.21,0,0,0,.24.24Z" transform="translate(0)"/><path d="M141.4,103.2a.38.38,0,0,1-.4-.4V84.44a.38.38,0,0,1,.4-.4H144a.38.38,0,0,1,.4.4v2h0a5.34,5.34,0,0,1,5.08-2.8A5.89,5.89,0,0,1,153.4,85c.2.2.24.36.08.56l-1.48,2a.36.36,0,0,1-.56.08,5.4,5.4,0,0,0-3-.92c-2.92,0-4.12,2.28-4.12,5.6V102.8a.38.38,0,0,1-.4.4Z" transform="translate(0)"/><path d="M170.16,103.4c-3.72,0-5.16-1.68-5.16-5.44V87a.21.21,0,0,0-.24-.24h-1.6a.38.38,0,0,1-.4-.4V84.44a.38.38,0,0,1,.4-.4h1.6a.21.21,0,0,0,.24-.24V78.4a.38.38,0,0,1,.4-.4H168a.38.38,0,0,1,.4.4v5.4a.21.21,0,0,0,.24.24h3a.38.38,0,0,1,.4.4v1.92a.38.38,0,0,1-.4.4h-3a.21.21,0,0,0-.24.24V97.84c0,1.92.72,2.44,2.44,2.44h.84a.38.38,0,0,1,.4.4V103a.38.38,0,0,1-.4.4Z" transform="translate(0)"/><path d="M173.56,79.72a.38.38,0,0,1-.4-.4V76.4a.38.38,0,0,1,.4-.4h2.72a.38.38,0,0,1,.4.4v2.92a.38.38,0,0,1-.4.4Zm.08,23.48a.38.38,0,0,1-.4-.4V84.44a.38.38,0,0,1,.4-.4h2.56a.38.38,0,0,1,.4.4V102.8a.38.38,0,0,1-.4.4Z" transform="translate(0)"/><path d="M179.56,110.39a.38.38,0,0,1-.4-.4V84.44a.38.38,0,0,1,.4-.4h2.56a.38.38,0,0,1,.4.4v1.8h0c.92-1.52,2.56-2.64,5.44-2.64,3.32,0,5.64,1.56,6.6,4.6a15.84,15.84,0,0,1,.68,5.4A16,16,0,0,1,194.6,99c-1,3-3.28,4.6-6.6,4.6-2.88,0-4.52-1.16-5.44-2.68h0v9a.38.38,0,0,1-.4.4ZM191.4,97.6a13.29,13.29,0,0,0,.44-4,13.63,13.63,0,0,0-.44-4,4.53,4.53,0,0,0-8.44,0,12.47,12.47,0,0,0-.44,4,12.31,12.31,0,0,0,.44,4,4.51,4.51,0,0,0,8.44,0Z" transform="translate(0)"/><path d="M196.16,98.48a14.39,14.39,0,0,1-.64-4.88,14.29,14.29,0,0,1,.64-4.84c1-3.28,3.84-5.16,7.56-5.16s6.52,1.88,7.56,5.16a14.29,14.29,0,0,1,.64,4.84,14.39,14.39,0,0,1-.64,4.88c-1,3.24-3.84,5.16-7.56,5.16S197.2,101.72,196.16,98.48Zm11.88-1a12.55,12.55,0,0,0,.44-3.92,12.27,12.27,0,0,0-.44-3.88,4.61,4.61,0,0,0-8.64,0A12.27,12.27,0,0,0,199,93.6a12.55,12.55,0,0,0,.44,3.92,4.61,4.61,0,0,0,8.64,0Z" transform="translate(0)"/><path d="M224.48,103.4c-3.72,0-5.16-1.68-5.16-5.44V87a.21.21,0,0,0-.24-.24h-1.6a.38.38,0,0,1-.4-.4V84.44a.38.38,0,0,1,.4-.4h1.6a.21.21,0,0,0,.24-.24V78.4a.38.38,0,0,1,.4-.4h2.56a.38.38,0,0,1,.4.4v5.4a.21.21,0,0,0,.24.24h3a.38.38,0,0,1,.4.4v1.92a.38.38,0,0,1-.4.4h-3a.21.21,0,0,0-.24.24V97.84c0,1.92.72,2.44,2.44,2.44H226a.38.38,0,0,1,.4.4V103a.38.38,0,0,1-.4.4Z" transform="translate(0)"/><path d="M227,98.48a14.39,14.39,0,0,1-.64-4.88,14.29,14.29,0,0,1,.64-4.84c1-3.28,3.84-5.16,7.56-5.16s6.52,1.88,7.56,5.16a14.29,14.29,0,0,1,.64,4.84,14.39,14.39,0,0,1-.64,4.88c-1,3.24-3.84,5.16-7.56,5.16S228.08,101.72,227,98.48Zm11.88-1a12.55,12.55,0,0,0,.44-3.92,12.27,12.27,0,0,0-.44-3.88,4.61,4.61,0,0,0-8.64,0,12.27,12.27,0,0,0-.44,3.88,12.55,12.55,0,0,0,.44,3.92,4.61,4.61,0,0,0,8.64,0Z" transform="translate(0)"/><path d="M268.68,103.2a.38.38,0,0,1-.4-.4V91.6c0-3.08-1.4-4.88-4.28-4.88a4.32,4.32,0,0,0-4.4,4.68v11.4a.38.38,0,0,1-.4.4h-2.56a.38.38,0,0,1-.4-.4V91.6c0-3.08-1.4-4.88-4.28-4.88-2.6,0-4.4,1.84-4.4,4.68v11.4a.38.38,0,0,1-.4.4H244.6a.38.38,0,0,1-.4-.4V84.44a.38.38,0,0,1,.4-.4h2.56a.38.38,0,0,1,.4.4V86.2h0a6.77,6.77,0,0,1,11,.4h0a7.13,7.13,0,0,1,6.2-3c4.44,0,6.83,2.84,6.83,7.2v12a.38.38,0,0,1-.4.4Z" transform="translate(0)"/><path d="M273.48,98.44a15,15,0,0,1-.64-4.84,14.86,14.86,0,0,1,.6-4.84c1.08-3.32,3.88-5.16,7.52-5.16a7.42,7.42,0,0,1,7.52,5.16,16.72,16.72,0,0,1,.6,5.48.39.39,0,0,1-.44.4H276.52a.21.21,0,0,0-.24.24,7.18,7.18,0,0,0,.32,2.32,4.73,4.73,0,0,0,4.84,3.32,6.26,6.26,0,0,0,4.92-2.12.41.41,0,0,1,.6-.08l1.64,1.48a.36.36,0,0,1,0,.56,9.32,9.32,0,0,1-7.48,3.28C277.28,103.64,274.52,101.75,273.48,98.44ZM285.4,92a.21.21,0,0,0,.24-.24,6.74,6.74,0,0,0-.28-2.16,4.73,4.73,0,0,0-8.8,0,6.74,6.74,0,0,0-.28,2.16.21.21,0,0,0,.24.24Z" transform="translate(0)"/><path d="M296.48,110.39a.38.38,0,0,1-.4-.4V84.44a.38.38,0,0,1,.4-.4H299a.38.38,0,0,1,.4.4v1.8h0c.92-1.52,2.56-2.64,5.44-2.64,3.32,0,5.64,1.56,6.6,4.6a15.84,15.84,0,0,1,.68,5.4,16,16,0,0,1-.68,5.44c-1,3-3.28,4.6-6.6,4.6-2.88,0-4.52-1.16-5.44-2.68h0v9a.38.38,0,0,1-.4.4ZM308.32,97.6a13.29,13.29,0,0,0,.44-4,13.63,13.63,0,0,0-.44-4,4.53,4.53,0,0,0-8.44,0,12.47,12.47,0,0,0-.44,4,12.31,12.31,0,0,0,.44,4,4.51,4.51,0,0,0,8.44,0Z" transform="translate(0)"/><path d="M314,103.2a.38.38,0,0,1-.4-.4V84.44a.38.38,0,0,1,.4-.4h2.56a.38.38,0,0,1,.4.4v2h0a5.34,5.34,0,0,1,5.08-2.8A5.89,5.89,0,0,1,326,85c.2.2.24.36.08.56l-1.48,2a.36.36,0,0,1-.56.08,5.4,5.4,0,0,0-3-.92c-2.92,0-4.12,2.28-4.12,5.6V102.8a.38.38,0,0,1-.4.4Z" transform="translate(0)"/><path d="M324.76,98.44a15,15,0,0,1-.64-4.84,14.86,14.86,0,0,1,.6-4.84c1.08-3.32,3.88-5.16,7.52-5.16s6.44,1.88,7.51,5.16a16.72,16.72,0,0,1,.6,5.48.39.39,0,0,1-.44.4H327.8a.21.21,0,0,0-.24.24,7.18,7.18,0,0,0,.32,2.32,4.73,4.73,0,0,0,4.84,3.32,6.26,6.26,0,0,0,4.92-2.12.41.41,0,0,1,.6-.08l1.63,1.48a.35.35,0,0,1,0,.56,9.28,9.28,0,0,1-7.47,3.28C328.56,103.64,325.8,101.75,324.76,98.44ZM336.68,92a.21.21,0,0,0,.24-.24,6.74,6.74,0,0,0-.28-2.16,4.73,4.73,0,0,0-8.8,0,6.74,6.74,0,0,0-.28,2.16.21.21,0,0,0,.24.24Z" transform="translate(0)"/><path d="M341.2,88.76c1.08-3.32,3.88-5.16,7.56-5.16a7.66,7.66,0,0,1,6.55,3.24c.12.2.12.36-.12.56l-1.76,1.44a.36.36,0,0,1-.56,0,4.68,4.68,0,0,0-4.11-2.08,4.16,4.16,0,0,0-4.28,3A12.76,12.76,0,0,0,344,93.6a12.88,12.88,0,0,0,.44,3.92,4.16,4.16,0,0,0,4.28,3,4.68,4.68,0,0,0,4.11-2.08.36.36,0,0,1,.56,0l1.76,1.44c.24.2.24.36.12.56a7.66,7.66,0,0,1-6.55,3.24c-3.68,0-6.48-1.84-7.56-5.16a20,20,0,0,1,0-9.72Z" transform="translate(0)"/><path d="M367.75,103.2a.38.38,0,0,1-.4-.4v-1.68h0c-.88,1.44-2.75,2.52-5.67,2.52-3.64,0-6.44-1.89-6.44-5.76,0-4,2.8-5.92,7.48-5.92H367a.21.21,0,0,0,.24-.24v-1.4c0-2.64-1-3.76-4.59-3.76A7.45,7.45,0,0,0,358,87.92c-.2.16-.44.16-.56,0L356.4,86a.42.42,0,0,1,.08-.56A10.63,10.63,0,0,1,363,83.6c5.43,0,7.51,1.8,7.51,6.52V102.8a.38.38,0,0,1-.4.4Zm-.48-6.2V94.88a.21.21,0,0,0-.24-.24H363.2c-3.32,0-4.76,1-4.76,3.12,0,2,1.44,3,4,3C365.44,100.76,367.27,99.36,367.27,97Z" transform="translate(0)"/><path d="M385,103.2a.38.38,0,0,1-.4-.4V101h0a5.85,5.85,0,0,1-5.23,2.64c-4.2,0-6.64-2.88-6.64-7.24v-12a.38.38,0,0,1,.4-.4h2.56a.38.38,0,0,1,.4.4V95.6c0,3.12,1.4,4.92,4.24,4.92,2.59,0,4.31-1.84,4.31-4.72V84.44a.38.38,0,0,1,.4-.4h2.56a.38.38,0,0,1,.4.4V102.8a.38.38,0,0,1-.4.4Z" transform="translate(0)"/><path d="M389.92,88.76c1.08-3.32,3.88-5.16,7.55-5.16A7.68,7.68,0,0,1,404,86.84c.12.2.12.36-.12.56l-1.76,1.44a.36.36,0,0,1-.56,0,4.71,4.71,0,0,0-4.12-2.08,4.15,4.15,0,0,0-4.27,3,12.76,12.76,0,0,0-.44,3.88,12.88,12.88,0,0,0,.44,3.92,4.15,4.15,0,0,0,4.27,3,4.71,4.71,0,0,0,4.12-2.08.36.36,0,0,1,.56,0l1.76,1.44c.24.2.24.36.12.56a7.68,7.68,0,0,1-6.56,3.24c-3.67,0-6.47-1.84-7.55-5.16a20,20,0,0,1,0-9.72Z" transform="translate(0)"/><path d="M405.68,79.72a.38.38,0,0,1-.4-.4V76.4a.38.38,0,0,1,.4-.4h2.71a.37.37,0,0,1,.4.4v2.92a.37.37,0,0,1-.4.4Zm.08,23.48a.38.38,0,0,1-.4-.4V84.44a.38.38,0,0,1,.4-.4h2.55a.38.38,0,0,1,.4.4V102.8a.38.38,0,0,1-.4.4Z" transform="translate(0)"/><path d="M410.76,98.48a14.39,14.39,0,0,1-.64-4.88,14.29,14.29,0,0,1,.64-4.84c1-3.28,3.83-5.16,7.55-5.16s6.52,1.88,7.56,5.16a14.29,14.29,0,0,1,.64,4.84,14.39,14.39,0,0,1-.64,4.88c-1,3.24-3.84,5.16-7.56,5.16S411.79,101.72,410.76,98.48Zm11.87-1a12.55,12.55,0,0,0,.44-3.92,12.27,12.27,0,0,0-.44-3.88,4.61,4.61,0,0,0-8.64,0,12.27,12.27,0,0,0-.44,3.88,12.55,12.55,0,0,0,.44,3.92,4.61,4.61,0,0,0,8.64,0Z" transform="translate(0)"/><path d="M440.35,103.2a.38.38,0,0,1-.4-.4V91.6c0-3.08-1.4-4.88-4.28-4.88-2.6,0-4.4,1.84-4.4,4.68v11.4a.38.38,0,0,1-.4.4h-2.56a.38.38,0,0,1-.4-.4V84.44a.38.38,0,0,1,.4-.4h2.56a.38.38,0,0,1,.4.4V86.2h0a6.06,6.06,0,0,1,5.36-2.6c4.16,0,6.64,2.84,6.64,7.2v12a.38.38,0,0,1-.4.4Z" transform="translate(0)"/><path d="M445.15,98.44a15,15,0,0,1-.64-4.84,14.86,14.86,0,0,1,.6-4.84c1.08-3.32,3.88-5.16,7.52-5.16a7.42,7.42,0,0,1,7.52,5.16,16.72,16.72,0,0,1,.6,5.48.39.39,0,0,1-.44.4H448.19a.21.21,0,0,0-.24.24,7.18,7.18,0,0,0,.32,2.32,4.73,4.73,0,0,0,4.84,3.32A6.26,6.26,0,0,0,458,98.4a.41.41,0,0,1,.6-.08l1.64,1.48a.36.36,0,0,1,0,.56,9.32,9.32,0,0,1-7.48,3.28C449,103.64,446.19,101.75,445.15,98.44ZM457.07,92a.21.21,0,0,0,.24-.24,6.74,6.74,0,0,0-.28-2.16,4.73,4.73,0,0,0-8.8,0,6.74,6.74,0,0,0-.28,2.16.21.21,0,0,0,.24.24Z" transform="translate(0)"/><path d="M460.83,100.76a.39.39,0,0,1,0-.56l1.64-1.76a.39.39,0,0,1,.56,0,9.31,9.31,0,0,0,5.92,2.2c2.8,0,4.2-1.2,4.2-2.92,0-1.52-.72-2.36-3.72-2.68l-2-.2c-3.76-.4-5.72-2.28-5.72-5.4,0-3.64,2.6-5.84,7.12-5.84a11.46,11.46,0,0,1,6.8,2.12.39.39,0,0,1,.08.56L474.31,88a.39.39,0,0,1-.56.08,10.09,10.09,0,0,0-5.16-1.56c-2.4,0-3.64,1.08-3.64,2.64s.92,2.32,3.76,2.6l2,.2c3.88.36,5.76,2.32,5.76,5.4,0,3.76-2.72,6.28-7.72,6.28A11.91,11.91,0,0,1,460.83,100.76Z" transform="translate(0)"/><path d="M477.43,87.88V84.44a.38.38,0,0,1,.4-.4h3a.38.38,0,0,1,.4.4v3.44a.38.38,0,0,1-.4.4h-3A.38.38,0,0,1,477.43,87.88Zm0,11.48a.38.38,0,0,1,.4-.4h3a.38.38,0,0,1,.4.4v3.44a.38.38,0,0,1-.4.4h-3a.38.38,0,0,1-.4-.4Z" transform="translate(0)"/><path d="M37.62,141.2a.38.38,0,0,1-.4-.4V139h0c-.92,1.52-2.56,2.68-5.44,2.68-3.32,0-5.64-1.56-6.6-4.6a16,16,0,0,1-.68-5.44,15.84,15.84,0,0,1,.68-5.4c1-3,3.28-4.6,6.6-4.6,2.88,0,4.52,1.12,5.44,2.64h0V114.4a.38.38,0,0,1,.4-.4h2.56a.38.38,0,0,1,.4.4v26.4a.38.38,0,0,1-.4.4Zm-.84-5.6a12.31,12.31,0,0,0,.44-4,12.47,12.47,0,0,0-.44-4,4.07,4.07,0,0,0-4.24-2.88,4.07,4.07,0,0,0-4.2,2.88,13.63,13.63,0,0,0-.44,4,13.29,13.29,0,0,0,.44,4,4.1,4.1,0,0,0,4.2,2.92A4.1,4.1,0,0,0,36.78,135.6Z" transform="translate(0)"/><path d="M45.82,136.44a15,15,0,0,1-.64-4.84,14.86,14.86,0,0,1,.6-4.84c1.08-3.32,3.88-5.16,7.52-5.16a7.42,7.42,0,0,1,7.52,5.16,16.72,16.72,0,0,1,.6,5.48.39.39,0,0,1-.44.4H48.86a.21.21,0,0,0-.24.24,7.18,7.18,0,0,0,.32,2.32,4.73,4.73,0,0,0,4.84,3.32,6.26,6.26,0,0,0,4.92-2.12.41.41,0,0,1,.6-.08l1.64,1.48a.36.36,0,0,1,0,.56,9.32,9.32,0,0,1-7.48,3.28C49.62,141.64,46.86,139.75,45.82,136.44ZM57.74,130a.21.21,0,0,0,.24-.24,6.74,6.74,0,0,0-.28-2.16,4.33,4.33,0,0,0-4.4-3,4.33,4.33,0,0,0-4.4,3,6.74,6.74,0,0,0-.28,2.16.21.21,0,0,0,.24.24Z" transform="translate(0)"/><path d="M70.62,141.4c-3.36,0-4.68-1.6-4.68-5v-22a.38.38,0,0,1,.4-.4H68.9a.38.38,0,0,1,.4.4v21.76c0,1.6.6,2.12,1.92,2.12H72a.38.38,0,0,1,.4.4V141a.38.38,0,0,1-.4.4Z" transform="translate(0)"/><path d="M76.62,117.72a.38.38,0,0,1-.4-.4V114.4a.38.38,0,0,1,.4-.4h2.72a.38.38,0,0,1,.4.4v2.92a.38.38,0,0,1-.4.4Zm.08,23.48a.38.38,0,0,1-.4-.4V122.44a.38.38,0,0,1,.4-.4h2.56a.38.38,0,0,1,.4.4V140.8a.38.38,0,0,1-.4.4Z" transform="translate(0)"/><path d="M109.9,141.2a.38.38,0,0,1-.4-.4V129.6c0-3.08-1.4-4.88-4.28-4.88a4.32,4.32,0,0,0-4.4,4.68v11.4a.38.38,0,0,1-.4.4H97.86a.38.38,0,0,1-.4-.4V129.6c0-3.08-1.4-4.88-4.28-4.88-2.6,0-4.4,1.84-4.4,4.68v11.4a.38.38,0,0,1-.4.4H85.82a.38.38,0,0,1-.4-.4V122.44a.38.38,0,0,1,.4-.4h2.56a.38.38,0,0,1,.4.4v1.76h0a6.77,6.77,0,0,1,11,.4h0a7.13,7.13,0,0,1,6.2-3c4.44,0,6.84,2.84,6.84,7.2v12a.38.38,0,0,1-.4.4Z" transform="translate(0)"/><path d="M118.74,117.72a.38.38,0,0,1-.4-.4V114.4a.38.38,0,0,1,.4-.4h2.72a.38.38,0,0,1,.4.4v2.92a.38.38,0,0,1-.4.4Zm.08,23.48a.38.38,0,0,1-.4-.4V122.44a.38.38,0,0,1,.4-.4h2.56a.38.38,0,0,1,.4.4V140.8a.38.38,0,0,1-.4.4Z" transform="translate(0)"/><path d="M133.1,141.4c-3.72,0-5.16-1.68-5.16-5.44V125a.21.21,0,0,0-.24-.24h-1.6a.38.38,0,0,1-.4-.4v-1.92a.38.38,0,0,1,.4-.4h1.6a.21.21,0,0,0,.24-.24v-5.4a.38.38,0,0,1,.4-.4h2.56a.38.38,0,0,1,.4.4v5.4a.21.21,0,0,0,.24.24h3a.38.38,0,0,1,.4.4v1.92a.38.38,0,0,1-.4.4h-3a.21.21,0,0,0-.24.24v10.84c0,1.92.72,2.44,2.44,2.44h.84a.38.38,0,0,1,.4.4V141a.38.38,0,0,1-.4.4Z" transform="translate(0)"/><path d="M138.86,136.44a15,15,0,0,1-.64-4.84,14.86,14.86,0,0,1,.6-4.84c1.08-3.32,3.88-5.16,7.52-5.16a7.42,7.42,0,0,1,7.52,5.16,16.72,16.72,0,0,1,.6,5.48.39.39,0,0,1-.44.4H141.9a.21.21,0,0,0-.24.24,7.18,7.18,0,0,0,.32,2.32,4.73,4.73,0,0,0,4.84,3.32,6.26,6.26,0,0,0,4.92-2.12.41.41,0,0,1,.6-.08L154,137.8a.36.36,0,0,1,0,.56,9.32,9.32,0,0,1-7.48,3.28C142.66,141.64,139.9,139.75,138.86,136.44ZM150.78,130a.21.21,0,0,0,.24-.24,6.74,6.74,0,0,0-.28-2.16,4.73,4.73,0,0,0-8.8,0,6.74,6.74,0,0,0-.28,2.16.21.21,0,0,0,.24.24Z" transform="translate(0)"/><path d="M167.34,136.44a15,15,0,0,1-.64-4.84,14.86,14.86,0,0,1,.6-4.84c1.08-3.32,3.88-5.16,7.52-5.16a7.42,7.42,0,0,1,7.52,5.16,16.72,16.72,0,0,1,.6,5.48.39.39,0,0,1-.44.4H170.38a.21.21,0,0,0-.24.24,7.18,7.18,0,0,0,.32,2.32,4.73,4.73,0,0,0,4.84,3.32,6.26,6.26,0,0,0,4.92-2.12.41.41,0,0,1,.6-.08l1.64,1.48a.36.36,0,0,1,0,.56,9.32,9.32,0,0,1-7.48,3.28C171.14,141.64,168.38,139.75,167.34,136.44ZM179.26,130a.21.21,0,0,0,.24-.24,6.74,6.74,0,0,0-.28-2.16,4.73,4.73,0,0,0-8.8,0,6.74,6.74,0,0,0-.28,2.16.21.21,0,0,0,.24.24Z" transform="translate(0)"/><path d="M192.14,141.4c-3.36,0-4.68-1.6-4.68-5v-22a.38.38,0,0,1,.4-.4h2.56a.38.38,0,0,1,.4.4v21.76c0,1.6.6,2.12,1.92,2.12h.76a.38.38,0,0,1,.4.4V141a.38.38,0,0,1-.4.4Z" transform="translate(0)"/><path d="M218.22,141.2a.38.38,0,0,1-.4-.4v-1.68h0c-.88,1.44-2.76,2.52-5.68,2.52-3.64,0-6.44-1.89-6.44-5.76,0-4,2.8-5.92,7.48-5.92h4.36a.21.21,0,0,0,.24-.24v-1.4c0-2.64-1-3.76-4.6-3.76a7.45,7.45,0,0,0-4.64,1.36c-.2.16-.44.16-.56,0L206.86,124a.42.42,0,0,1,.08-.56,10.63,10.63,0,0,1,6.52-1.88c5.44,0,7.52,1.8,7.52,6.52V140.8a.38.38,0,0,1-.4.4Zm-.48-6.2v-2.12a.21.21,0,0,0-.24-.24h-3.84c-3.32,0-4.76,1-4.76,3.12,0,2,1.44,3,4,3C215.9,138.76,217.74,137.36,217.74,135Zm-5.4-16.08c-.24,0-.36-.16-.24-.4l3-4.92a.7.7,0,0,1,.68-.4h2.64c.24,0,.36.2.2.4L215,118.52a.79.79,0,0,1-.76.4Z" transform="translate(0)"/><path d="M227,141.2a.38.38,0,0,1-.4-.4V122.44a.38.38,0,0,1,.4-.4h2.56a.38.38,0,0,1,.4.4v2h0a5.34,5.34,0,0,1,5.08-2.8A5.89,5.89,0,0,1,239,123c.2.2.24.36.08.56l-1.48,2a.36.36,0,0,1-.56.08,5.4,5.4,0,0,0-3-.92c-2.92,0-4.12,2.28-4.12,5.6V140.8a.38.38,0,0,1-.4.4Z" transform="translate(0)"/><path d="M240.94,136.44a15,15,0,0,1-.64-4.84,14.86,14.86,0,0,1,.6-4.84c1.08-3.32,3.88-5.16,7.52-5.16s6.44,1.88,7.51,5.16a16.72,16.72,0,0,1,.6,5.48.39.39,0,0,1-.43.4H244a.21.21,0,0,0-.24.24,7.18,7.18,0,0,0,.32,2.32,4.73,4.73,0,0,0,4.84,3.32,6.26,6.26,0,0,0,4.92-2.12.41.41,0,0,1,.6-.08l1.63,1.48a.35.35,0,0,1,.05.56,9.32,9.32,0,0,1-7.48,3.28C244.74,141.64,242,139.75,240.94,136.44ZM252.86,130a.21.21,0,0,0,.24-.24,6.74,6.74,0,0,0-.28-2.16,4.73,4.73,0,0,0-8.8,0,6.74,6.74,0,0,0-.28,2.16.21.21,0,0,0,.24.24Z" transform="translate(0)"/><path d="M272.74,141.2a.38.38,0,0,1-.4-.4v-1.68h0c-.88,1.44-2.76,2.52-5.68,2.52-3.64,0-6.44-1.89-6.44-5.76,0-4,2.8-5.92,7.48-5.92H272a.21.21,0,0,0,.24-.24v-1.4c0-2.64-1-3.76-4.6-3.76a7.45,7.45,0,0,0-4.64,1.36c-.2.16-.44.16-.56,0L261.38,124a.42.42,0,0,1,.08-.56A10.63,10.63,0,0,1,268,121.6c5.44,0,7.52,1.8,7.52,6.52V140.8a.38.38,0,0,1-.4.4Zm-.48-6.2v-2.12a.21.21,0,0,0-.24-.24h-3.84c-3.32,0-4.76,1-4.76,3.12,0,2,1.44,3,4,3C270.42,138.76,272.26,137.36,272.26,135Z" transform="translate(0)"/><path d="M301.89,141.2a.38.38,0,0,1-.4-.4V139h0c-.92,1.52-2.55,2.68-5.43,2.68-3.32,0-5.64-1.56-6.6-4.6a16,16,0,0,1-.68-5.44,15.84,15.84,0,0,1,.68-5.4c1-3,3.28-4.6,6.6-4.6,2.88,0,4.51,1.12,5.43,2.64h0V114.4a.38.38,0,0,1,.4-.4h2.56a.38.38,0,0,1,.4.4v26.4a.38.38,0,0,1-.4.4Zm-.84-5.6a12.31,12.31,0,0,0,.44-4,12.47,12.47,0,0,0-.44-4,4.52,4.52,0,0,0-8.43,0,13.63,13.63,0,0,0-.44,4,13.29,13.29,0,0,0,.44,4,4.5,4.5,0,0,0,8.43,0Z" transform="translate(0)"/><path d="M310.1,136.44a15,15,0,0,1-.64-4.84,14.86,14.86,0,0,1,.6-4.84c1.08-3.32,3.88-5.16,7.52-5.16a7.42,7.42,0,0,1,7.51,5.16,16.72,16.72,0,0,1,.6,5.48.39.39,0,0,1-.44.4H313.14a.21.21,0,0,0-.24.24,7.18,7.18,0,0,0,.32,2.32,4.73,4.73,0,0,0,4.84,3.32A6.24,6.24,0,0,0,323,136.4a.41.41,0,0,1,.6-.08l1.64,1.48a.36.36,0,0,1,0,.56,9.29,9.29,0,0,1-7.47,3.28C313.9,141.64,311.14,139.75,310.1,136.44ZM322,130a.21.21,0,0,0,.24-.24,6.74,6.74,0,0,0-.28-2.16,4.72,4.72,0,0,0-8.79,0,6.74,6.74,0,0,0-.28,2.16.21.21,0,0,0,.24.24Z" transform="translate(0)"/><path d="M344.65,141.4c-3.71,0-5.15-1.68-5.15-5.44V125a.21.21,0,0,0-.24-.24h-1.6a.38.38,0,0,1-.4-.4v-1.92a.38.38,0,0,1,.4-.4h1.6a.21.21,0,0,0,.24-.24v-5.4a.38.38,0,0,1,.4-.4h2.55a.38.38,0,0,1,.41.4v5.4c0,.16.07.24.24.24h3a.38.38,0,0,1,.4.4v1.92a.38.38,0,0,1-.4.4h-3c-.17,0-.24.08-.24.24v10.84c0,1.92.72,2.44,2.43,2.44h.84a.38.38,0,0,1,.4.4V141a.38.38,0,0,1-.4.4Z" transform="translate(0)"/><path d="M351.34,141.2a.38.38,0,0,1-.4-.4V122.44a.38.38,0,0,1,.4-.4h2.55a.37.37,0,0,1,.4.4v2h0a5.34,5.34,0,0,1,5.08-2.8,5.89,5.89,0,0,1,3.92,1.44c.2.2.24.36.08.56l-1.48,2a.36.36,0,0,1-.56.08,5.4,5.4,0,0,0-3-.92c-2.92,0-4.12,2.28-4.12,5.6V140.8a.37.37,0,0,1-.4.4Z" transform="translate(0)"/><path d="M377.17,141.2a.38.38,0,0,1-.4-.4v-1.68h0c-.88,1.44-2.76,2.52-5.68,2.52-3.64,0-6.43-1.89-6.43-5.76,0-4,2.79-5.92,7.47-5.92h4.36a.21.21,0,0,0,.24-.24v-1.4c0-2.64-1-3.76-4.6-3.76a7.45,7.45,0,0,0-4.64,1.36c-.2.16-.44.16-.56,0L365.82,124a.42.42,0,0,1,.08-.56,10.57,10.57,0,0,1,6.51-1.88c5.44,0,7.52,1.8,7.52,6.52V140.8a.38.38,0,0,1-.4.4Zm-.48-6.2v-2.12a.21.21,0,0,0-.24-.24h-3.84c-3.32,0-4.76,1-4.76,3.12,0,2,1.44,3,4,3C374.85,138.76,376.69,137.36,376.69,135Z" transform="translate(0)"/><path d="M385.93,141.2a.38.38,0,0,1-.4-.4V114.4a.38.38,0,0,1,.4-.4h2.56a.38.38,0,0,1,.4.4v9.84h0c.92-1.52,2.56-2.64,5.44-2.64,3.32,0,5.64,1.56,6.6,4.6a15.84,15.84,0,0,1,.68,5.4A16,16,0,0,1,401,137c-1,3-3.28,4.6-6.6,4.6-2.88,0-4.52-1.16-5.44-2.68h0v1.84a.38.38,0,0,1-.4.4Zm11.84-5.6a13.29,13.29,0,0,0,.44-4,13.63,13.63,0,0,0-.44-4,4.53,4.53,0,0,0-8.44,0,12.47,12.47,0,0,0-.44,4,12.31,12.31,0,0,0,.44,4,4.51,4.51,0,0,0,8.44,0Z" transform="translate(0)"/><path d="M417.85,141.2a.38.38,0,0,1-.4-.4v-1.68h0c-.88,1.44-2.76,2.52-5.68,2.52-3.64,0-6.44-1.89-6.44-5.76,0-4,2.8-5.92,7.48-5.92h4.36a.21.21,0,0,0,.24-.24v-1.4c0-2.64-1-3.76-4.6-3.76a7.45,7.45,0,0,0-4.64,1.36c-.2.16-.44.16-.56,0L406.49,124a.42.42,0,0,1,.08-.56,10.63,10.63,0,0,1,6.52-1.88c5.44,0,7.52,1.8,7.52,6.52V140.8a.38.38,0,0,1-.4.4Zm-.48-6.2v-2.12a.21.21,0,0,0-.24-.24h-3.84c-3.32,0-4.76,1-4.76,3.12,0,2,1.44,3,4,3C415.53,138.76,417.37,137.36,417.37,135Z" transform="translate(0)"/><path d="M423.05,148.39a.37.37,0,0,1-.39-.4v-2.32a.37.37,0,0,1,.39-.4h.64c1.88,0,2.52-.52,2.52-2.56V122.44a.38.38,0,0,1,.4-.4h2.56a.38.38,0,0,1,.4.4v20.2c0,4.11-1.84,5.75-5.72,5.75Zm3.48-30.67a.38.38,0,0,1-.4-.4V114.4a.38.38,0,0,1,.4-.4h2.72a.38.38,0,0,1,.4.4v2.92a.38.38,0,0,1-.4.4Z" transform="translate(0)"/><path d="M434.81,136.48a18.77,18.77,0,0,1,0-9.72c1-3.28,3.84-5.16,7.56-5.16s6.52,1.88,7.56,5.16a18.77,18.77,0,0,1,0,9.72c-1,3.24-3.84,5.16-7.56,5.16S435.85,139.72,434.81,136.48Zm11.88-1a12.55,12.55,0,0,0,.44-3.92,12.27,12.27,0,0,0-.44-3.88,4.61,4.61,0,0,0-8.64,0,12.27,12.27,0,0,0-.44,3.88,12.55,12.55,0,0,0,.44,3.92,4.61,4.61,0,0,0,8.64,0Z" transform="translate(0)"/><path d="M455.09,137h2.8a.38.38,0,0,1,.4.4v3.72a1.29,1.29,0,0,1-.24.88l-2.48,3.28a.64.64,0,0,1-.52.27.36.36,0,0,1-.36-.35v-7.8A.38.38,0,0,1,455.09,137Z" transform="translate(0)"/><path d="M18.9,179.2a.38.38,0,0,1-.4-.4v-1.68h0c-.88,1.44-2.76,2.52-5.68,2.52-3.64,0-6.43-1.89-6.43-5.76,0-4,2.79-5.92,7.47-5.92h4.36a.21.21,0,0,0,.24-.24v-1.4c0-2.64-1-3.76-4.6-3.76a7.45,7.45,0,0,0-4.64,1.36c-.2.16-.44.16-.56,0L7.54,162a.42.42,0,0,1,.08-.56,10.63,10.63,0,0,1,6.52-1.88c5.44,0,7.52,1.8,7.52,6.52V178.8a.38.38,0,0,1-.4.4Zm-.48-6.2v-2.12a.21.21,0,0,0-.24-.24H14.34c-3.32,0-4.76,1-4.76,3.12,0,2,1.44,3,4,3C16.58,176.76,18.42,175.36,18.42,173Z" transform="translate(0)"/><path d="M25.14,176.76a.39.39,0,0,1,0-.56l1.64-1.76a.39.39,0,0,1,.56,0,9.31,9.31,0,0,0,5.92,2.2c2.8,0,4.2-1.2,4.2-2.92,0-1.52-.72-2.36-3.72-2.68l-2-.2c-3.76-.4-5.72-2.28-5.72-5.4,0-3.64,2.6-5.84,7.12-5.84a11.46,11.46,0,0,1,6.8,2.12.39.39,0,0,1,.08.56L38.62,164a.39.39,0,0,1-.56.08,10.09,10.09,0,0,0-5.16-1.56c-2.4,0-3.64,1.08-3.64,2.64s.92,2.32,3.76,2.6l2,.2c3.88.36,5.76,2.32,5.76,5.4,0,3.76-2.72,6.28-7.72,6.28A11.91,11.91,0,0,1,25.14,176.76Z" transform="translate(0)"/><path d="M43.94,174.44a15,15,0,0,1-.64-4.84,14.86,14.86,0,0,1,.6-4.84c1.08-3.32,3.88-5.16,7.52-5.16a7.42,7.42,0,0,1,7.52,5.16,16.72,16.72,0,0,1,.6,5.48.39.39,0,0,1-.44.4H47a.21.21,0,0,0-.24.24,7.18,7.18,0,0,0,.32,2.32,4.73,4.73,0,0,0,4.84,3.32,6.26,6.26,0,0,0,4.92-2.12.41.41,0,0,1,.6-.08l1.64,1.48a.36.36,0,0,1,0,.56,9.32,9.32,0,0,1-7.48,3.28C47.74,179.64,45,177.75,43.94,174.44ZM55.86,168a.21.21,0,0,0,.24-.24,6.74,6.74,0,0,0-.28-2.16,4.33,4.33,0,0,0-4.4-3,4.33,4.33,0,0,0-4.4,3,6.74,6.74,0,0,0-.28,2.16A.21.21,0,0,0,47,168Z" transform="translate(0)"/><path d="M62.94,184a.37.37,0,0,1,0-.57l1.64-1.64a.38.38,0,0,1,.6,0,6.35,6.35,0,0,0,4.52,1.92c3.16,0,4.84-1.63,4.84-5.15v-2.24h0c-.88,1.6-2.52,2.64-5.32,2.64a6.28,6.28,0,0,1-6.44-4.64,20.17,20.17,0,0,1,0-10.08,6.28,6.28,0,0,1,6.44-4.64c2.8,0,4.44,1,5.32,2.64h0v-1.8a.38.38,0,0,1,.4-.4h2.56a.38.38,0,0,1,.4.4v17.92c0,5.43-3,8.47-8.36,8.47A8.69,8.69,0,0,1,62.94,184Zm11.2-11a11.65,11.65,0,0,0,.44-3.72,11.81,11.81,0,0,0-.44-3.72,4.32,4.32,0,0,0-8.12,0,12,12,0,0,0-.48,3.72A11.83,11.83,0,0,0,66,173a3.91,3.91,0,0,0,4,2.88A4,4,0,0,0,74.14,173Z" transform="translate(0)"/><path d="M94.94,179.2a.38.38,0,0,1-.4-.4V177h0a5.86,5.86,0,0,1-5.24,2.64c-4.2,0-6.64-2.88-6.64-7.24v-12a.38.38,0,0,1,.4-.4h2.56a.38.38,0,0,1,.4.4V171.6c0,3.12,1.4,4.92,4.24,4.92,2.6,0,4.32-1.84,4.32-4.72V160.44a.38.38,0,0,1,.4-.4H97.5a.38.38,0,0,1,.4.4V178.8a.38.38,0,0,1-.4.4Zm-6-22.28c-.24,0-.36-.16-.24-.4l3-4.92a.7.7,0,0,1,.68-.4h2.64c.24,0,.36.2.2.4l-3.68,4.92a.79.79,0,0,1-.76.4Z" transform="translate(0)"/><path d="M103.26,179.2a.38.38,0,0,1-.4-.4V160.44a.38.38,0,0,1,.4-.4h2.56a.38.38,0,0,1,.4.4v2h0a5.34,5.34,0,0,1,5.08-2.8,5.89,5.89,0,0,1,3.92,1.44c.2.2.24.36.08.56l-1.48,2a.36.36,0,0,1-.56.08,5.4,5.4,0,0,0-3-.92c-2.92,0-4.12,2.28-4.12,5.6V178.8a.38.38,0,0,1-.4.4Z" transform="translate(0)"/><path d="M116.42,174.44a15,15,0,0,1-.64-4.84,14.86,14.86,0,0,1,.6-4.84c1.08-3.32,3.88-5.16,7.52-5.16a7.42,7.42,0,0,1,7.52,5.16,16.72,16.72,0,0,1,.6,5.48.39.39,0,0,1-.44.4H119.46a.21.21,0,0,0-.24.24,7.18,7.18,0,0,0,.32,2.32,4.73,4.73,0,0,0,4.84,3.32,6.26,6.26,0,0,0,4.92-2.12.41.41,0,0,1,.6-.08l1.64,1.48a.36.36,0,0,1,0,.56,9.32,9.32,0,0,1-7.48,3.28C120.22,179.64,117.46,177.75,116.42,174.44ZM128.34,168a.21.21,0,0,0,.24-.24,6.74,6.74,0,0,0-.28-2.16,4.73,4.73,0,0,0-8.8,0,6.74,6.74,0,0,0-.28,2.16.21.21,0,0,0,.24.24Z" transform="translate(0)"/><path d="M134.5,176.76a.39.39,0,0,1,0-.56l1.64-1.76a.39.39,0,0,1,.56,0,9.31,9.31,0,0,0,5.92,2.2c2.8,0,4.2-1.2,4.2-2.92,0-1.52-.72-2.36-3.72-2.68l-2-.2c-3.76-.4-5.72-2.28-5.72-5.4,0-3.64,2.6-5.84,7.12-5.84a11.46,11.46,0,0,1,6.8,2.12.39.39,0,0,1,.08.56L148,164a.39.39,0,0,1-.56.08,10.09,10.09,0,0,0-5.16-1.56c-2.4,0-3.64,1.08-3.64,2.64s.92,2.32,3.76,2.6l2,.2c3.88.36,5.76,2.32,5.76,5.4,0,3.76-2.72,6.28-7.72,6.28A11.91,11.91,0,0,1,134.5,176.76Z" transform="translate(0)"/><path d="M153.3,174.44a15,15,0,0,1-.64-4.84,14.86,14.86,0,0,1,.6-4.84c1.08-3.32,3.88-5.16,7.52-5.16a7.42,7.42,0,0,1,7.52,5.16,16.72,16.72,0,0,1,.6,5.48.39.39,0,0,1-.44.4H156.34a.21.21,0,0,0-.24.24,7.18,7.18,0,0,0,.32,2.32,4.73,4.73,0,0,0,4.84,3.32,6.26,6.26,0,0,0,4.92-2.12.41.41,0,0,1,.6-.08l1.64,1.48a.36.36,0,0,1,0,.56,9.32,9.32,0,0,1-7.48,3.28C157.1,179.64,154.34,177.75,153.3,174.44ZM165.22,168a.21.21,0,0,0,.24-.24,6.74,6.74,0,0,0-.28-2.16,4.73,4.73,0,0,0-8.8,0,6.74,6.74,0,0,0-.28,2.16.21.21,0,0,0,.24.24Z" transform="translate(0)"/><path d="M192.7,179.2a.38.38,0,0,1-.4-.4V177h0c-.92,1.52-2.56,2.68-5.44,2.68-3.32,0-5.64-1.56-6.6-4.6a21.94,21.94,0,0,1,0-10.84c1-3,3.28-4.6,6.6-4.6,2.88,0,4.52,1.12,5.44,2.64h0V152.4a.38.38,0,0,1,.4-.4h2.56a.38.38,0,0,1,.4.4v26.4a.38.38,0,0,1-.4.4Zm-.84-5.6a12.31,12.31,0,0,0,.44-4,12.47,12.47,0,0,0-.44-4,4.53,4.53,0,0,0-8.44,0,13.63,13.63,0,0,0-.44,4,13.29,13.29,0,0,0,.44,4,4.51,4.51,0,0,0,8.44,0Z" transform="translate(0)"/><path d="M200.1,174.44a15,15,0,0,1-.64-4.84,14.86,14.86,0,0,1,.6-4.84c1.08-3.32,3.88-5.16,7.52-5.16a7.42,7.42,0,0,1,7.52,5.16,16.72,16.72,0,0,1,.6,5.48.39.39,0,0,1-.44.4H203.14a.21.21,0,0,0-.24.24,7.18,7.18,0,0,0,.32,2.32,4.73,4.73,0,0,0,4.84,3.32A6.26,6.26,0,0,0,213,174.4a.41.41,0,0,1,.6-.08l1.64,1.48a.36.36,0,0,1,0,.56,9.32,9.32,0,0,1-7.48,3.28C203.9,179.64,201.14,177.75,200.1,174.44ZM212,168a.21.21,0,0,0,.24-.24,6.74,6.74,0,0,0-.28-2.16,4.73,4.73,0,0,0-8.8,0,6.74,6.74,0,0,0-.28,2.16.21.21,0,0,0,.24.24Z" transform="translate(0)"/><path d="M239.94,179.2a.38.38,0,0,1-.4-.4V167.6c0-3.08-1.4-4.88-4.28-4.88-2.6,0-4.4,1.84-4.4,4.68v11.4a.38.38,0,0,1-.4.4H227.9a.38.38,0,0,1-.4-.4V152.4a.38.38,0,0,1,.4-.4h2.56a.38.38,0,0,1,.4.4v9.8h0a6.06,6.06,0,0,1,5.36-2.6c4.16,0,6.64,2.84,6.64,7.2v12a.38.38,0,0,1-.4.4Z" transform="translate(0)"/><path d="M259.26,179.2a.38.38,0,0,1-.4-.4v-1.68h0c-.88,1.44-2.76,2.52-5.68,2.52-3.64,0-6.44-1.89-6.44-5.76,0-4,2.8-5.92,7.48-5.92h4.36a.21.21,0,0,0,.24-.24v-1.4c0-2.64-1-3.76-4.6-3.76a7.45,7.45,0,0,0-4.64,1.36c-.2.16-.44.16-.56,0L247.9,162a.42.42,0,0,1,.08-.56,10.63,10.63,0,0,1,6.52-1.88c5.44,0,7.52,1.8,7.52,6.52V178.8a.38.38,0,0,1-.4.4Zm-.48-6.2v-2.12a.21.21,0,0,0-.24-.24H254.7c-3.32,0-4.76,1-4.76,3.12,0,2,1.44,3,4,3C256.94,176.76,258.78,175.36,258.78,173Z" transform="translate(0)"/><path d="M266.26,164.76c1.08-3.32,3.88-5.16,7.56-5.16a7.68,7.68,0,0,1,6.56,3.24c.12.2.12.36-.12.56l-1.76,1.44a.36.36,0,0,1-.56,0,4.71,4.71,0,0,0-4.12-2.08,4.16,4.16,0,0,0-4.28,3,17.5,17.5,0,0,0,0,7.8,4.16,4.16,0,0,0,4.28,3,4.71,4.71,0,0,0,4.12-2.08.36.36,0,0,1,.56,0l1.76,1.44c.24.2.24.36.12.56a7.68,7.68,0,0,1-6.56,3.24c-3.68,0-6.48-1.84-7.56-5.16a20,20,0,0,1,0-9.72Z" transform="translate(0)"/><path d="M283.1,174.44a15,15,0,0,1-.64-4.84,14.86,14.86,0,0,1,.6-4.84c1.08-3.32,3.88-5.16,7.52-5.16a7.42,7.42,0,0,1,7.52,5.16,16.72,16.72,0,0,1,.6,5.48.39.39,0,0,1-.44.4H286.14a.21.21,0,0,0-.24.24,7.18,7.18,0,0,0,.32,2.32,4.73,4.73,0,0,0,4.84,3.32A6.26,6.26,0,0,0,296,174.4a.41.41,0,0,1,.6-.08l1.64,1.48a.36.36,0,0,1,0,.56,9.32,9.32,0,0,1-7.48,3.28C286.9,179.64,284.14,177.75,283.1,174.44ZM295,168a.21.21,0,0,0,.24-.24,6.74,6.74,0,0,0-.28-2.16,4.73,4.73,0,0,0-8.8,0,6.74,6.74,0,0,0-.28,2.16.21.21,0,0,0,.24.24Z" transform="translate(0)"/><path d="M302.9,179.2a.38.38,0,0,1-.4-.4V160.44a.38.38,0,0,1,.4-.4h2.56a.38.38,0,0,1,.4.4v2h0a5.34,5.34,0,0,1,5.08-2.8A5.89,5.89,0,0,1,314.9,161c.2.2.24.36.08.56l-1.48,2a.36.36,0,0,1-.56.08,5.4,5.4,0,0,0-3-.92c-2.92,0-4.12,2.28-4.12,5.6V178.8a.38.38,0,0,1-.4.4Z" transform="translate(0)"/><path d="M315.66,176.76a.39.39,0,0,1,0-.56l1.64-1.76a.39.39,0,0,1,.56,0,9.31,9.31,0,0,0,5.92,2.2c2.8,0,4.2-1.2,4.2-2.92,0-1.52-.72-2.36-3.72-2.68l-2-.2c-3.76-.4-5.72-2.28-5.72-5.4,0-3.64,2.6-5.84,7.12-5.84a11.46,11.46,0,0,1,6.8,2.12.39.39,0,0,1,.08.56L329.14,164a.39.39,0,0,1-.56.08,10.09,10.09,0,0,0-5.16-1.56c-2.4,0-3.64,1.08-3.64,2.64s.92,2.32,3.76,2.6l2,.2c3.88.36,5.76,2.32,5.76,5.4,0,3.76-2.72,6.28-7.72,6.28A11.91,11.91,0,0,1,315.66,176.76Z" transform="translate(0)"/><path d="M334.46,174.44a15,15,0,0,1-.64-4.84,14.86,14.86,0,0,1,.6-4.84c1.08-3.32,3.88-5.16,7.52-5.16a7.42,7.42,0,0,1,7.52,5.16,16.72,16.72,0,0,1,.6,5.48.39.39,0,0,1-.44.4H337.5a.21.21,0,0,0-.24.24,7.18,7.18,0,0,0,.32,2.32,4.73,4.73,0,0,0,4.84,3.32,6.26,6.26,0,0,0,4.92-2.12.41.41,0,0,1,.6-.08l1.64,1.48a.36.36,0,0,1,0,.56,9.32,9.32,0,0,1-7.48,3.28C338.26,179.64,335.5,177.75,334.46,174.44ZM346.38,168a.21.21,0,0,0,.24-.24,6.74,6.74,0,0,0-.28-2.16,4.73,4.73,0,0,0-8.8,0,6.74,6.74,0,0,0-.28,2.16.21.21,0,0,0,.24.24Z" transform="translate(0)"/><path d="M367,179.2c-.28,0-.4-.16-.48-.4l-6.88-18.36c-.08-.24,0-.4.32-.4h2.76c.28,0,.4.12.52.4l5,13.76h.08l4.84-13.76a.47.47,0,0,1,.48-.4h2.71c.29,0,.41.16.33.4l-6.84,18.36a.52.52,0,0,1-.52.4Z" transform="translate(0)"/><path d="M379.66,155.72a.38.38,0,0,1-.4-.4V152.4a.38.38,0,0,1,.4-.4h2.72a.38.38,0,0,1,.4.4v2.92a.38.38,0,0,1-.4.4Zm.08,23.48a.38.38,0,0,1-.4-.4V160.44a.38.38,0,0,1,.4-.4h2.56a.38.38,0,0,1,.4.4V178.8a.38.38,0,0,1-.4.4Z" transform="translate(0)"/><path d="M386.34,176.76a.39.39,0,0,1,0-.56l1.64-1.76a.39.39,0,0,1,.56,0,9.31,9.31,0,0,0,5.92,2.2c2.8,0,4.2-1.2,4.2-2.92,0-1.52-.73-2.36-3.72-2.68l-2-.2c-3.76-.4-5.72-2.28-5.72-5.4,0-3.64,2.6-5.84,7.12-5.84a11.43,11.43,0,0,1,6.79,2.12.39.39,0,0,1,.08.56L399.81,164a.39.39,0,0,1-.56.08,10,10,0,0,0-5.15-1.56c-2.4,0-3.64,1.08-3.64,2.64s.92,2.32,3.76,2.6l2,.2c3.87.36,5.75,2.32,5.75,5.4,0,3.76-2.72,6.28-7.71,6.28A11.91,11.91,0,0,1,386.34,176.76Z" transform="translate(0)"/><path d="M406,155.72a.38.38,0,0,1-.4-.4V152.4a.38.38,0,0,1,.4-.4h2.72a.38.38,0,0,1,.4.4v2.92a.38.38,0,0,1-.4.4Zm.08,23.48a.38.38,0,0,1-.4-.4V160.44a.38.38,0,0,1,.4-.4h2.56a.38.38,0,0,1,.4.4V178.8a.38.38,0,0,1-.4.4Z" transform="translate(0)"/><path d="M414.38,179.2a.38.38,0,0,1-.4-.4V152.4a.38.38,0,0,1,.4-.4h2.55a.37.37,0,0,1,.4.4v9.84h0c.92-1.52,2.56-2.64,5.44-2.64,3.32,0,5.64,1.56,6.6,4.6a21.94,21.94,0,0,1,0,10.84c-1,3-3.28,4.6-6.6,4.6-2.88,0-4.52-1.16-5.44-2.68h0v1.84a.37.37,0,0,1-.4.4Zm11.83-5.6a13.29,13.29,0,0,0,.44-4,13.63,13.63,0,0,0-.44-4,4.53,4.53,0,0,0-8.44,0,12.47,12.47,0,0,0-.44,4,12.31,12.31,0,0,0,.44,4,4.51,4.51,0,0,0,8.44,0Z" transform="translate(0)"/><path d="M438.49,179.4c-3.35,0-4.67-1.6-4.67-5v-22a.38.38,0,0,1,.4-.4h2.56a.38.38,0,0,1,.4.4v21.76c0,1.6.59,2.12,1.91,2.12h.76a.38.38,0,0,1,.4.4V179a.38.38,0,0,1-.4.4Z" transform="translate(0)"/><path d="M442.86,174.44a19.2,19.2,0,0,1,0-9.68c1.07-3.32,3.87-5.16,7.51-5.16a7.42,7.42,0,0,1,7.52,5.16,16.72,16.72,0,0,1,.6,5.48.39.39,0,0,1-.44.4H445.89a.21.21,0,0,0-.24.24,7.18,7.18,0,0,0,.32,2.32,4.73,4.73,0,0,0,4.84,3.32,6.26,6.26,0,0,0,4.92-2.12.41.41,0,0,1,.6-.08L458,175.8a.36.36,0,0,1,0,.56,9.32,9.32,0,0,1-7.48,3.28C446.65,179.64,443.89,177.75,442.86,174.44ZM454.77,168a.21.21,0,0,0,.24-.24,6.74,6.74,0,0,0-.28-2.16,4.73,4.73,0,0,0-8.8,0,6.74,6.74,0,0,0-.28,2.16.21.21,0,0,0,.24.24Z" transform="translate(0)"/><path d="M460.94,176.76a.39.39,0,0,1,0-.56l1.64-1.76a.39.39,0,0,1,.56,0,9.28,9.28,0,0,0,5.91,2.2c2.8,0,4.2-1.2,4.2-2.92,0-1.52-.72-2.36-3.72-2.68l-2-.2c-3.75-.4-5.71-2.28-5.71-5.4,0-3.64,2.59-5.84,7.11-5.84a11.46,11.46,0,0,1,6.8,2.12.39.39,0,0,1,.08.56L474.41,164a.39.39,0,0,1-.56.08,10.09,10.09,0,0,0-5.16-1.56c-2.4,0-3.64,1.08-3.64,2.64s.92,2.32,3.76,2.6l2,.2c3.88.36,5.76,2.32,5.76,5.4,0,3.76-2.72,6.28-7.72,6.28A11.9,11.9,0,0,1,460.94,176.76Z" transform="translate(0)"/><path d="M11,224.39a.38.38,0,0,1-.4-.4V198.44a.38.38,0,0,1,.4-.4h2.56a.38.38,0,0,1,.4.4v1.8h0c.92-1.52,2.56-2.64,5.44-2.64,3.32,0,5.64,1.56,6.6,4.6a21.94,21.94,0,0,1,0,10.84c-1,3-3.28,4.6-6.6,4.6-2.88,0-4.52-1.16-5.44-2.68h0v9a.38.38,0,0,1-.4.4ZM22.86,211.6a13.29,13.29,0,0,0,.44-4,13.63,13.63,0,0,0-.44-4,4.07,4.07,0,0,0-4.2-2.88,4.07,4.07,0,0,0-4.24,2.88,12.47,12.47,0,0,0-.44,4,12.31,12.31,0,0,0,.44,4,4.1,4.1,0,0,0,4.24,2.92A4.1,4.1,0,0,0,22.86,211.6Z" transform="translate(0)"/><path d="M42.14,217.2a.38.38,0,0,1-.4-.4v-1.68h0c-.88,1.44-2.76,2.52-5.68,2.52-3.64,0-6.44-1.89-6.44-5.76,0-4,2.8-5.92,7.48-5.92h4.36a.21.21,0,0,0,.24-.24v-1.4c0-2.64-1-3.76-4.6-3.76a7.45,7.45,0,0,0-4.64,1.36c-.2.16-.44.16-.56,0L30.78,200a.42.42,0,0,1,.08-.56,10.63,10.63,0,0,1,6.52-1.88c5.44,0,7.52,1.8,7.52,6.52V216.8a.38.38,0,0,1-.4.4Zm-.48-6.2v-2.12a.21.21,0,0,0-.24-.24H37.58c-3.32,0-4.76,1-4.76,3.12,0,2,1.44,3,4,3C39.82,214.76,41.66,213.36,41.66,211Z" transform="translate(0)"/><path d="M50.1,217.2a.38.38,0,0,1-.4-.4V198.44a.38.38,0,0,1,.4-.4h2.56a.38.38,0,0,1,.4.4v2h0a5.34,5.34,0,0,1,5.08-2.8A5.89,5.89,0,0,1,62.1,199c.2.2.24.36.08.56l-1.48,2a.36.36,0,0,1-.56.08,5.4,5.4,0,0,0-3-.92c-2.92,0-4.12,2.28-4.12,5.6V216.8a.38.38,0,0,1-.4.4Z" transform="translate(0)"/><path d="M75.14,217.2a.38.38,0,0,1-.4-.4v-1.68h0c-.88,1.44-2.76,2.52-5.68,2.52-3.64,0-6.44-1.89-6.44-5.76,0-4,2.8-5.92,7.48-5.92h4.36a.21.21,0,0,0,.24-.24v-1.4c0-2.64-1-3.76-4.6-3.76a7.45,7.45,0,0,0-4.64,1.36c-.2.16-.44.16-.56,0L63.78,200a.42.42,0,0,1,.08-.56,10.63,10.63,0,0,1,6.52-1.88c5.44,0,7.52,1.8,7.52,6.52V216.8a.38.38,0,0,1-.4.4Zm-.48-6.2v-2.12a.21.21,0,0,0-.24-.24H70.58c-3.32,0-4.76,1-4.76,3.12,0,2,1.44,3,4,3C72.82,214.76,74.66,213.36,74.66,211Z" transform="translate(0)"/><path d="M102.7,224.39a.38.38,0,0,1-.4-.4v-9h0c-.92,1.52-2.56,2.68-5.44,2.68-3.32,0-5.64-1.56-6.6-4.6a21.94,21.94,0,0,1,0-10.84c1-3,3.28-4.6,6.6-4.6,2.88,0,4.52,1.12,5.44,2.64h0v-1.8a.38.38,0,0,1,.4-.4h2.56a.38.38,0,0,1,.4.4V224a.38.38,0,0,1-.4.4Zm-.84-12.79a12.31,12.31,0,0,0,.44-4,12.47,12.47,0,0,0-.44-4,4.53,4.53,0,0,0-8.44,0,13.63,13.63,0,0,0-.44,4,13.29,13.29,0,0,0,.44,4,4.51,4.51,0,0,0,8.44,0Z" transform="translate(0)"/><path d="M122.66,217.2a.38.38,0,0,1-.4-.4V215h0a5.86,5.86,0,0,1-5.24,2.64c-4.2,0-6.64-2.88-6.64-7.24v-12a.38.38,0,0,1,.4-.4h2.56a.38.38,0,0,1,.4.4V209.6c0,3.12,1.4,4.92,4.24,4.92,2.6,0,4.32-1.84,4.32-4.72V198.44a.38.38,0,0,1,.4-.4h2.56a.38.38,0,0,1,.4.4V216.8a.38.38,0,0,1-.4.4Z" transform="translate(0)"/><path d="M130.9,193.72a.38.38,0,0,1-.4-.4V190.4a.38.38,0,0,1,.4-.4h2.72a.38.38,0,0,1,.4.4v2.92a.38.38,0,0,1-.4.4ZM131,217.2a.38.38,0,0,1-.4-.4V198.44a.38.38,0,0,1,.4-.4h2.56a.38.38,0,0,1,.4.4V216.8a.38.38,0,0,1-.4.4Z" transform="translate(0)"/><path d="M138.38,212.44a15,15,0,0,1-.64-4.84,14.86,14.86,0,0,1,.6-4.84c1.08-3.32,3.88-5.16,7.52-5.16a7.42,7.42,0,0,1,7.52,5.16,16.72,16.72,0,0,1,.6,5.48.39.39,0,0,1-.44.4H141.42a.21.21,0,0,0-.24.24,7.18,7.18,0,0,0,.32,2.32,4.73,4.73,0,0,0,4.84,3.32,6.26,6.26,0,0,0,4.92-2.12.41.41,0,0,1,.6-.08l1.64,1.48a.36.36,0,0,1,0,.56,9.32,9.32,0,0,1-7.48,3.28C142.18,217.64,139.42,215.75,138.38,212.44ZM150.3,206a.21.21,0,0,0,.24-.24,6.74,6.74,0,0,0-.28-2.16,4.73,4.73,0,0,0-8.8,0,6.74,6.74,0,0,0-.28,2.16.21.21,0,0,0,.24.24Z" transform="translate(0)"/><path d="M170.22,217.2a.38.38,0,0,1-.4-.4V205.6c0-3.08-1.4-4.88-4.28-4.88-2.6,0-4.4,1.84-4.4,4.68v11.4a.38.38,0,0,1-.4.4h-2.56a.38.38,0,0,1-.4-.4V198.44a.38.38,0,0,1,.4-.4h2.56a.38.38,0,0,1,.4.4v1.76h0a6.06,6.06,0,0,1,5.36-2.6c4.16,0,6.64,2.84,6.64,7.2v12a.38.38,0,0,1-.4.4Z" transform="translate(0)"/><path d="M177.42,212.44a15,15,0,0,1-.64-4.84,14.86,14.86,0,0,1,.6-4.84c1.08-3.32,3.88-5.16,7.52-5.16a7.42,7.42,0,0,1,7.52,5.16,16.72,16.72,0,0,1,.6,5.48.39.39,0,0,1-.44.4H180.46a.21.21,0,0,0-.24.24,7.18,7.18,0,0,0,.32,2.32,4.73,4.73,0,0,0,4.84,3.32,6.26,6.26,0,0,0,4.92-2.12.41.41,0,0,1,.6-.08l1.64,1.48a.36.36,0,0,1,0,.56,9.32,9.32,0,0,1-7.48,3.28C181.22,217.64,178.46,215.75,177.42,212.44ZM189.34,206a.21.21,0,0,0,.24-.24,6.74,6.74,0,0,0-.28-2.16,4.73,4.73,0,0,0-8.8,0,6.74,6.74,0,0,0-.28,2.16.21.21,0,0,0,.24.24Z" transform="translate(0)"/><path d="M195.5,214.76a.39.39,0,0,1,0-.56l1.64-1.76a.39.39,0,0,1,.56,0,9.31,9.31,0,0,0,5.92,2.2c2.8,0,4.2-1.2,4.2-2.92,0-1.52-.72-2.36-3.72-2.68l-2-.2c-3.76-.4-5.72-2.28-5.72-5.4,0-3.64,2.6-5.84,7.12-5.84a11.46,11.46,0,0,1,6.8,2.12.39.39,0,0,1,.08.56L209,202a.39.39,0,0,1-.56.08,10.09,10.09,0,0,0-5.16-1.56c-2.4,0-3.64,1.08-3.64,2.64s.92,2.32,3.76,2.6l2,.2c3.88.36,5.76,2.32,5.76,5.4,0,3.76-2.72,6.28-7.72,6.28A11.91,11.91,0,0,1,195.5,214.76Z" transform="translate(0)"/><path d="M228.38,217.4c-3.72,0-5.16-1.68-5.16-5.44V201a.21.21,0,0,0-.24-.24h-1.6a.38.38,0,0,1-.4-.4v-1.92a.38.38,0,0,1,.4-.4H223a.21.21,0,0,0,.24-.24v-5.4a.38.38,0,0,1,.4-.4h2.56a.38.38,0,0,1,.4.4v5.4a.21.21,0,0,0,.24.24h3a.38.38,0,0,1,.4.4v1.92a.38.38,0,0,1-.4.4h-3a.21.21,0,0,0-.24.24v10.84c0,1.92.72,2.44,2.44,2.44h.84a.38.38,0,0,1,.4.4V217a.38.38,0,0,1-.4.4Z" transform="translate(0)"/><path d="M234.26,217.2a.38.38,0,0,1-.4-.4V198.44a.38.38,0,0,1,.4-.4h2.56a.38.38,0,0,1,.4.4v2h0a5.34,5.34,0,0,1,5.08-2.8,5.89,5.89,0,0,1,3.92,1.44c.2.2.24.36.08.56l-1.48,2a.36.36,0,0,1-.56.08,5.4,5.4,0,0,0-3-.92c-2.92,0-4.12,2.28-4.12,5.6V216.8a.38.38,0,0,1-.4.4Z" transform="translate(0)"/><path d="M259.3,217.2a.38.38,0,0,1-.4-.4v-1.68h0c-.88,1.44-2.76,2.52-5.68,2.52-3.64,0-6.44-1.89-6.44-5.76,0-4,2.8-5.92,7.48-5.92h4.36a.21.21,0,0,0,.24-.24v-1.4c0-2.64-1-3.76-4.6-3.76a7.45,7.45,0,0,0-4.64,1.36c-.2.16-.44.16-.56,0L247.94,200a.42.42,0,0,1,.08-.56,10.63,10.63,0,0,1,6.52-1.88c5.44,0,7.52,1.8,7.52,6.52V216.8a.38.38,0,0,1-.4.4Zm-.48-6.2v-2.12a.21.21,0,0,0-.24-.24h-3.84c-3.32,0-4.76,1-4.76,3.12,0,2,1.44,3,4,3C257,214.76,258.82,213.36,258.82,211Z" transform="translate(0)"/><path d="M279.3,217.2a.38.38,0,0,1-.4-.4V205.6c0-3.08-1.4-4.88-4.28-4.88-2.6,0-4.4,1.84-4.4,4.68v11.4a.38.38,0,0,1-.4.4h-2.56a.38.38,0,0,1-.4-.4V198.44a.38.38,0,0,1,.4-.4h2.56a.38.38,0,0,1,.4.4v1.76h0a6.06,6.06,0,0,1,5.36-2.6c4.16,0,6.64,2.84,6.64,7.2v12a.38.38,0,0,1-.4.4Z" transform="translate(0)"/><path d="M285.7,214.76a.39.39,0,0,1,0-.56l1.64-1.76a.39.39,0,0,1,.56,0,9.31,9.31,0,0,0,5.92,2.2c2.8,0,4.2-1.2,4.2-2.92,0-1.52-.72-2.36-3.72-2.68l-2-.2c-3.76-.4-5.72-2.28-5.72-5.4,0-3.64,2.6-5.84,7.12-5.84a11.46,11.46,0,0,1,6.8,2.12.39.39,0,0,1,.08.56L299.18,202a.39.39,0,0,1-.56.08,10.09,10.09,0,0,0-5.16-1.56c-2.4,0-3.64,1.08-3.64,2.64s.92,2.32,3.76,2.6l2,.2c3.88.36,5.76,2.32,5.76,5.4,0,3.76-2.72,6.28-7.72,6.28A11.91,11.91,0,0,1,285.7,214.76Z" transform="translate(0)"/><path d="M305.34,193.72a.38.38,0,0,1-.4-.4V190.4a.38.38,0,0,1,.4-.4h2.72a.38.38,0,0,1,.4.4v2.92a.38.38,0,0,1-.4.4Zm.08,23.48a.38.38,0,0,1-.4-.4V198.44a.38.38,0,0,1,.4-.4H308a.38.38,0,0,1,.4.4V216.8a.38.38,0,0,1-.4.4Z" transform="translate(0)"/><path d="M318.9,217.4c-3.72,0-5.16-1.68-5.16-5.44V201a.21.21,0,0,0-.24-.24h-1.6a.38.38,0,0,1-.4-.4v-1.92a.38.38,0,0,1,.4-.4h1.6a.21.21,0,0,0,.24-.24v-5.4a.38.38,0,0,1,.4-.4h2.56a.38.38,0,0,1,.4.4v5.4a.21.21,0,0,0,.24.24h3a.38.38,0,0,1,.4.4v1.92a.38.38,0,0,1-.4.4h-3a.21.21,0,0,0-.24.24v10.84c0,1.92.72,2.44,2.44,2.44h.84a.38.38,0,0,1,.4.4V217a.38.38,0,0,1-.4.4Z" transform="translate(0)"/><path d="M336,217.2a.38.38,0,0,1-.4-.4v-1.68h0c-.88,1.44-2.76,2.52-5.68,2.52-3.64,0-6.44-1.89-6.44-5.76,0-4,2.8-5.92,7.48-5.92h4.36a.21.21,0,0,0,.24-.24v-1.4c0-2.64-1-3.76-4.6-3.76a7.45,7.45,0,0,0-4.64,1.36c-.2.16-.44.16-.56,0L324.62,200a.42.42,0,0,1,.08-.56,10.63,10.63,0,0,1,6.52-1.88c5.44,0,7.52,1.8,7.52,6.52V216.8a.38.38,0,0,1-.4.4Zm-.48-6.2v-2.12a.21.21,0,0,0-.24-.24h-3.84c-3.32,0-4.76,1-4.76,3.12,0,2,1.44,3,4,3C333.66,214.76,335.5,213.36,335.5,211Z" transform="translate(0)"/><path d="M356,217.2a.38.38,0,0,1-.39-.4V205.6c0-3.08-1.4-4.88-4.28-4.88-2.6,0-4.4,1.84-4.4,4.68v11.4a.38.38,0,0,1-.4.4h-2.56a.38.38,0,0,1-.4-.4V198.44a.38.38,0,0,1,.4-.4h2.56a.38.38,0,0,1,.4.4v1.76h0a6.06,6.06,0,0,1,5.36-2.6c4.15,0,6.63,2.84,6.63,7.2v12a.38.38,0,0,1-.4.4Z" transform="translate(0)"/><path d="M363.62,213h2.8a.38.38,0,0,1,.4.4v3.72a1.29,1.29,0,0,1-.24.88l-2.48,3.28a.64.64,0,0,1-.52.27.36.36,0,0,1-.36-.35v-7.8A.38.38,0,0,1,363.62,213Z" transform="translate(0)"/><path d="M390.45,217.2a.38.38,0,0,1-.4-.4V215h0c-.92,1.52-2.56,2.68-5.43,2.68-3.32,0-5.64-1.56-6.6-4.6a21.94,21.94,0,0,1,0-10.84c1-3,3.28-4.6,6.6-4.6,2.87,0,4.51,1.12,5.43,2.64h0V190.4a.38.38,0,0,1,.4-.4H393a.38.38,0,0,1,.4.4v26.4a.38.38,0,0,1-.4.4Zm-.84-5.6a12.31,12.31,0,0,0,.44-4,12.47,12.47,0,0,0-.44-4,4.52,4.52,0,0,0-8.43,0,13.63,13.63,0,0,0-.44,4,13.29,13.29,0,0,0,.44,4,4.5,4.5,0,0,0,8.43,0Z" transform="translate(0)"/><path d="M397.86,212.44a15,15,0,0,1-.64-4.84,14.86,14.86,0,0,1,.6-4.84c1.08-3.32,3.88-5.16,7.51-5.16a7.42,7.42,0,0,1,7.52,5.16,16.72,16.72,0,0,1,.6,5.48.39.39,0,0,1-.44.4H400.9a.21.21,0,0,0-.24.24,7.18,7.18,0,0,0,.32,2.32,4.72,4.72,0,0,0,4.83,3.32,6.26,6.26,0,0,0,4.92-2.12.41.41,0,0,1,.6-.08L413,213.8a.36.36,0,0,1,0,.56,9.32,9.32,0,0,1-7.48,3.28C401.66,217.64,398.9,215.75,397.86,212.44ZM409.77,206a.21.21,0,0,0,.24-.24,6.74,6.74,0,0,0-.28-2.16,4.72,4.72,0,0,0-8.79,0,6.74,6.74,0,0,0-.28,2.16.21.21,0,0,0,.24.24Z" transform="translate(0)"/><path d="M423.93,214.76a.4.4,0,0,1,0-.56l1.65-1.76a.38.38,0,0,1,.55,0,9.31,9.31,0,0,0,5.92,2.2c2.8,0,4.2-1.2,4.2-2.92,0-1.52-.72-2.36-3.72-2.68l-2-.2c-3.76-.4-5.72-2.28-5.72-5.4,0-3.64,2.6-5.84,7.12-5.84a11.46,11.46,0,0,1,6.8,2.12.39.39,0,0,1,.08.56L437.41,202a.39.39,0,0,1-.56.08,10.09,10.09,0,0,0-5.16-1.56c-2.4,0-3.64,1.08-3.64,2.64s.92,2.32,3.76,2.6l2,.2c3.88.36,5.76,2.32,5.76,5.4,0,3.76-2.72,6.28-7.72,6.28A11.91,11.91,0,0,1,423.93,214.76Z" transform="translate(0)"/><path d="M442.74,212.44a19.2,19.2,0,0,1,0-9.68c1.07-3.32,3.87-5.16,7.51-5.16a7.42,7.42,0,0,1,7.52,5.16,16.72,16.72,0,0,1,.6,5.48.39.39,0,0,1-.44.4H445.77a.21.21,0,0,0-.24.24,7.18,7.18,0,0,0,.32,2.32,4.73,4.73,0,0,0,4.84,3.32,6.26,6.26,0,0,0,4.92-2.12.41.41,0,0,1,.6-.08l1.64,1.48a.36.36,0,0,1,0,.56,9.32,9.32,0,0,1-7.48,3.28C446.53,217.64,443.77,215.75,442.74,212.44ZM454.65,206a.21.21,0,0,0,.24-.24,6.74,6.74,0,0,0-.28-2.16,4.73,4.73,0,0,0-8.8,0,6.74,6.74,0,0,0-.28,2.16.21.21,0,0,0,.24.24Z" transform="translate(0)"/><path d="M462.53,217.2a.38.38,0,0,1-.4-.4V198.44a.38.38,0,0,1,.4-.4h2.56a.38.38,0,0,1,.4.4v2h0a5.34,5.34,0,0,1,5.08-2.8,5.89,5.89,0,0,1,3.92,1.44c.2.2.24.36.08.56l-1.48,2a.36.36,0,0,1-.56.08,5.4,5.4,0,0,0-3-.92c-2.92,0-4.12,2.28-4.12,5.6V216.8a.38.38,0,0,1-.4.4Z" transform="translate(0)"/><path d="M46.12,255.2a.38.38,0,0,1-.4-.4V243.6c0-3.08-1.4-4.88-4.28-4.88-2.6,0-4.4,1.84-4.4,4.68v11.4a.38.38,0,0,1-.4.4H34.08a.38.38,0,0,1-.4-.4V236.44a.38.38,0,0,1,.4-.4h2.56a.38.38,0,0,1,.4.4v1.76h0a6.06,6.06,0,0,1,5.36-2.6c4.16,0,6.64,2.84,6.64,7.2v12a.38.38,0,0,1-.4.4Z" transform="translate(0)"/><path d="M53.32,250.44a15,15,0,0,1-.64-4.84,14.86,14.86,0,0,1,.6-4.84c1.08-3.32,3.88-5.16,7.52-5.16a7.42,7.42,0,0,1,7.52,5.16,16.72,16.72,0,0,1,.6,5.48.39.39,0,0,1-.44.4H56.36a.21.21,0,0,0-.24.24,7.18,7.18,0,0,0,.32,2.32,4.73,4.73,0,0,0,4.84,3.32,6.26,6.26,0,0,0,4.92-2.12.41.41,0,0,1,.6-.08l1.64,1.48a.36.36,0,0,1,0,.56A9.32,9.32,0,0,1,61,255.64C57.12,255.64,54.36,253.75,53.32,250.44ZM65.24,244a.21.21,0,0,0,.24-.24,6.74,6.74,0,0,0-.28-2.16,4.73,4.73,0,0,0-8.8,0,6.74,6.74,0,0,0-.28,2.16.21.21,0,0,0,.24.24Z" transform="translate(0)"/><path d="M72.16,240.76c1.08-3.32,3.88-5.16,7.56-5.16a7.68,7.68,0,0,1,6.56,3.24c.12.2.12.36-.12.56l-1.76,1.44a.36.36,0,0,1-.56,0,4.71,4.71,0,0,0-4.12-2.08,4.16,4.16,0,0,0-4.28,3,17.5,17.5,0,0,0,0,7.8,4.16,4.16,0,0,0,4.28,3,4.71,4.71,0,0,0,4.12-2.08.36.36,0,0,1,.56,0l1.76,1.44c.24.2.24.36.12.56a7.68,7.68,0,0,1-6.56,3.24c-3.68,0-6.48-1.84-7.56-5.16a20,20,0,0,1,0-9.72Z" transform="translate(0)"/><path d="M89,250.44a15,15,0,0,1-.64-4.84,14.86,14.86,0,0,1,.6-4.84c1.08-3.32,3.88-5.16,7.52-5.16a7.42,7.42,0,0,1,7.52,5.16,16.72,16.72,0,0,1,.6,5.48.39.39,0,0,1-.44.4H92a.21.21,0,0,0-.24.24,7.18,7.18,0,0,0,.32,2.32A4.73,4.73,0,0,0,97,252.52a6.26,6.26,0,0,0,4.92-2.12.41.41,0,0,1,.6-.08l1.64,1.48a.36.36,0,0,1,0,.56,9.32,9.32,0,0,1-7.48,3.28C92.8,255.64,90,253.75,89,250.44ZM100.92,244a.21.21,0,0,0,.24-.24,6.74,6.74,0,0,0-.28-2.16,4.73,4.73,0,0,0-8.8,0,6.74,6.74,0,0,0-.28,2.16A.21.21,0,0,0,92,244Z" transform="translate(0)"/><path d="M107.08,252.76a.39.39,0,0,1,0-.56l1.64-1.76a.39.39,0,0,1,.56,0,9.31,9.31,0,0,0,5.92,2.2c2.8,0,4.2-1.2,4.2-2.92,0-1.52-.72-2.36-3.72-2.68l-2-.2c-3.76-.4-5.72-2.28-5.72-5.4,0-3.64,2.6-5.84,7.12-5.84a11.46,11.46,0,0,1,6.8,2.12.39.39,0,0,1,.08.56L120.56,240a.39.39,0,0,1-.56.08,10.09,10.09,0,0,0-5.16-1.56c-2.4,0-3.64,1.08-3.64,2.64s.92,2.32,3.76,2.6l2,.2c3.88.36,5.76,2.32,5.76,5.4,0,3.76-2.72,6.28-7.72,6.28A11.91,11.91,0,0,1,107.08,252.76Z" transform="translate(0)"/><path d="M138,255.2a.38.38,0,0,1-.4-.4v-1.68h0c-.88,1.44-2.76,2.52-5.68,2.52-3.64,0-6.44-1.89-6.44-5.76,0-4,2.8-5.92,7.48-5.92h4.36a.21.21,0,0,0,.24-.24v-1.4c0-2.64-1-3.76-4.6-3.76a7.45,7.45,0,0,0-4.64,1.36c-.2.16-.44.16-.56,0L126.64,238a.42.42,0,0,1,.08-.56,10.63,10.63,0,0,1,6.52-1.88c5.44,0,7.52,1.8,7.52,6.52V254.8a.38.38,0,0,1-.4.4Zm-.48-6.2v-2.12a.21.21,0,0,0-.24-.24h-3.84c-3.32,0-4.76,1-4.76,3.12,0,2,1.44,3,4,3C135.68,252.76,137.52,251.36,137.52,249Z" transform="translate(0)"/><path d="M146,255.2a.38.38,0,0,1-.4-.4V236.44a.38.38,0,0,1,.4-.4h2.56a.38.38,0,0,1,.4.4v2h0a5.34,5.34,0,0,1,5.08-2.8A5.89,5.89,0,0,1,158,237c.2.2.24.36.08.56l-1.48,2a.36.36,0,0,1-.56.08,5.4,5.4,0,0,0-3-.92c-2.92,0-4.12,2.28-4.12,5.6V254.8a.38.38,0,0,1-.4.4Z" transform="translate(0)"/><path d="M160.68,231.72a.38.38,0,0,1-.4-.4V228.4a.38.38,0,0,1,.4-.4h2.72a.38.38,0,0,1,.4.4v2.92a.38.38,0,0,1-.4.4Zm.08,23.48a.38.38,0,0,1-.4-.4V236.44a.38.38,0,0,1,.4-.4h2.56a.38.38,0,0,1,.4.4V254.8a.38.38,0,0,1-.4.4Z" transform="translate(0)"/><path d="M168.16,250.48a18.77,18.77,0,0,1,0-9.72c1-3.28,3.84-5.16,7.56-5.16s6.52,1.88,7.56,5.16a18.77,18.77,0,0,1,0,9.72c-1,3.24-3.84,5.16-7.56,5.16S169.2,253.72,168.16,250.48Zm11.88-1a12.55,12.55,0,0,0,.44-3.92,12.27,12.27,0,0,0-.44-3.88,4.61,4.61,0,0,0-8.64,0,12.27,12.27,0,0,0-.44,3.88,12.55,12.55,0,0,0,.44,3.92,4.61,4.61,0,0,0,8.64,0Z" transform="translate(0)"/><path d="M207.72,255.2a.38.38,0,0,1-.4-.4V253h0c-.92,1.52-2.56,2.68-5.44,2.68-3.32,0-5.64-1.56-6.6-4.6a21.94,21.94,0,0,1,0-10.84c1-3,3.28-4.6,6.6-4.6,2.88,0,4.52,1.12,5.44,2.64h0V228.4a.38.38,0,0,1,.4-.4h2.56a.38.38,0,0,1,.4.4v26.4a.38.38,0,0,1-.4.4Zm-.84-5.6a12.31,12.31,0,0,0,.44-4,12.47,12.47,0,0,0-.44-4,4.53,4.53,0,0,0-8.44,0,13.63,13.63,0,0,0-.44,4,13.29,13.29,0,0,0,.44,4,4.51,4.51,0,0,0,8.44,0Z" transform="translate(0)"/><path d="M216,231.72a.38.38,0,0,1-.4-.4V228.4a.38.38,0,0,1,.4-.4h2.72a.38.38,0,0,1,.4.4v2.92a.38.38,0,0,1-.4.4ZM216,255.2a.38.38,0,0,1-.4-.4V236.44a.38.38,0,0,1,.4-.4h2.56a.38.38,0,0,1,.4.4V254.8a.38.38,0,0,1-.4.4Z" transform="translate(0)"/><path d="M222.64,252.76a.39.39,0,0,1,0-.56l1.64-1.76a.39.39,0,0,1,.56,0,9.31,9.31,0,0,0,5.92,2.2c2.8,0,4.2-1.2,4.2-2.92,0-1.52-.72-2.36-3.72-2.68l-2-.2c-3.76-.4-5.72-2.28-5.72-5.4,0-3.64,2.6-5.84,7.12-5.84a11.46,11.46,0,0,1,6.8,2.12.39.39,0,0,1,.08.56L236.12,240a.39.39,0,0,1-.56.08,10.09,10.09,0,0,0-5.16-1.56c-2.4,0-3.64,1.08-3.64,2.64s.92,2.32,3.76,2.6l2,.2c3.88.36,5.76,2.32,5.76,5.4,0,3.76-2.72,6.28-7.72,6.28A11.91,11.91,0,0,1,222.64,252.76Z" transform="translate(0)"/><path d="M242.36,262.39a.38.38,0,0,1-.4-.4V236.44a.38.38,0,0,1,.4-.4h2.56a.38.38,0,0,1,.4.4v1.8h0c.92-1.52,2.56-2.64,5.44-2.64,3.32,0,5.64,1.56,6.6,4.6a21.94,21.94,0,0,1,0,10.84c-1,3-3.28,4.6-6.6,4.6-2.88,0-4.52-1.16-5.44-2.68h0v9a.38.38,0,0,1-.4.4ZM254.2,249.6a13.29,13.29,0,0,0,.44-4,13.63,13.63,0,0,0-.44-4,4.53,4.53,0,0,0-8.44,0,12.47,12.47,0,0,0-.44,4,12.31,12.31,0,0,0,.44,4,4.51,4.51,0,0,0,8.44,0Z" transform="translate(0)"/><path d="M261.36,250.48a18.77,18.77,0,0,1,0-9.72c1-3.28,3.84-5.16,7.56-5.16s6.52,1.88,7.56,5.16a18.77,18.77,0,0,1,0,9.72c-1,3.24-3.84,5.16-7.56,5.16S262.4,253.72,261.36,250.48Zm11.88-1a12.55,12.55,0,0,0,.44-3.92,12.27,12.27,0,0,0-.44-3.88,4.61,4.61,0,0,0-8.64,0,12.27,12.27,0,0,0-.44,3.88,12.55,12.55,0,0,0,.44,3.92,4.61,4.61,0,0,0,8.64,0Z" transform="translate(0)"/><path d="M293.36,255.2a.38.38,0,0,1-.4-.4V243.6c0-3.08-1.4-4.88-4.28-4.88-2.6,0-4.4,1.84-4.4,4.68v11.4a.38.38,0,0,1-.4.4h-2.56a.38.38,0,0,1-.4-.4V236.44a.38.38,0,0,1,.4-.4h2.56a.38.38,0,0,1,.4.4v1.76h0a6.06,6.06,0,0,1,5.36-2.6c4.16,0,6.64,2.84,6.64,7.2v12a.38.38,0,0,1-.4.4Z" transform="translate(0)"/><path d="M300.68,260a.37.37,0,0,1,0-.57l1.64-1.64a.37.37,0,0,1,.6,0,6.35,6.35,0,0,0,4.52,1.92c3.16,0,4.84-1.63,4.84-5.15v-2.24h0c-.88,1.6-2.52,2.64-5.32,2.64a6.28,6.28,0,0,1-6.44-4.64,20.17,20.17,0,0,1,0-10.08A6.28,6.28,0,0,1,307,235.6c2.8,0,4.44,1,5.32,2.64h0v-1.8a.38.38,0,0,1,.4-.4h2.56a.38.38,0,0,1,.4.4v17.92c0,5.43-3,8.47-8.36,8.47A8.69,8.69,0,0,1,300.68,260Zm11.2-11a11.65,11.65,0,0,0,.44-3.72,11.81,11.81,0,0,0-.44-3.72,4.32,4.32,0,0,0-8.12,0,12,12,0,0,0-.48,3.72,11.83,11.83,0,0,0,.48,3.72,3.91,3.91,0,0,0,4,2.88A4,4,0,0,0,311.88,249Z" transform="translate(0)"/><path d="M332.24,255.2a.38.38,0,0,1-.4-.4v-1.68h0c-.88,1.44-2.76,2.52-5.68,2.52-3.64,0-6.44-1.89-6.44-5.76,0-4,2.8-5.92,7.48-5.92h4.36a.21.21,0,0,0,.24-.24v-1.4c0-2.64-1-3.76-4.6-3.76a7.45,7.45,0,0,0-4.64,1.36c-.2.16-.44.16-.56,0L320.88,238a.42.42,0,0,1,.08-.56,10.63,10.63,0,0,1,6.52-1.88c5.44,0,7.52,1.8,7.52,6.52V254.8a.38.38,0,0,1-.4.4Zm-.48-6.2v-2.12a.21.21,0,0,0-.24-.24h-3.84c-3.32,0-4.76,1-4.76,3.12,0,2,1.44,3,4,3C329.92,252.76,331.76,251.36,331.76,249Z" transform="translate(0)"/><path d="M359.8,255.2a.38.38,0,0,1-.4-.4V253h0c-.92,1.52-2.56,2.68-5.44,2.68-3.32,0-5.64-1.56-6.6-4.6a21.94,21.94,0,0,1,0-10.84c1-3,3.28-4.6,6.6-4.6,2.88,0,4.52,1.12,5.44,2.64h0V228.4a.38.38,0,0,1,.4-.4h2.55a.37.37,0,0,1,.4.4v26.4a.37.37,0,0,1-.4.4Zm-.84-5.6a12.31,12.31,0,0,0,.44-4,12.47,12.47,0,0,0-.44-4,4.53,4.53,0,0,0-8.44,0,13.63,13.63,0,0,0-.44,4,13.29,13.29,0,0,0,.44,4,4.51,4.51,0,0,0,8.44,0Z" transform="translate(0)"/><path d="M367.2,250.44a15,15,0,0,1-.64-4.84,14.86,14.86,0,0,1,.6-4.84c1.08-3.32,3.88-5.16,7.52-5.16a7.42,7.42,0,0,1,7.52,5.16,16.72,16.72,0,0,1,.6,5.48.39.39,0,0,1-.44.4H370.24a.21.21,0,0,0-.24.24,7.18,7.18,0,0,0,.32,2.32,4.73,4.73,0,0,0,4.84,3.32,6.26,6.26,0,0,0,4.92-2.12.41.41,0,0,1,.6-.08l1.64,1.48a.36.36,0,0,1,0,.56,9.32,9.32,0,0,1-7.48,3.28C371,255.64,368.24,253.75,367.2,250.44ZM379.12,244a.21.21,0,0,0,.24-.24,6.74,6.74,0,0,0-.28-2.16,4.73,4.73,0,0,0-8.8,0,6.74,6.74,0,0,0-.28,2.16.21.21,0,0,0,.24.24Z" transform="translate(0)"/><path d="M406.63,255.2a.38.38,0,0,1-.4-.4V253h0a5.85,5.85,0,0,1-5.23,2.64c-4.2,0-6.64-2.88-6.64-7.24v-12a.38.38,0,0,1,.4-.4h2.56a.38.38,0,0,1,.4.4V247.6c0,3.12,1.4,4.92,4.24,4.92,2.59,0,4.31-1.84,4.31-4.72V236.44a.38.38,0,0,1,.4-.4h2.56a.38.38,0,0,1,.4.4V254.8a.38.38,0,0,1-.4.4Z" transform="translate(0)"/><path d="M427,255.2a.38.38,0,0,1-.4-.4V243.6c0-3.08-1.4-4.88-4.27-4.88-2.6,0-4.4,1.84-4.4,4.68v11.4a.38.38,0,0,1-.4.4H415a.38.38,0,0,1-.4-.4V236.44a.38.38,0,0,1,.4-.4h2.56a.38.38,0,0,1,.4.4v1.76h0a6.06,6.06,0,0,1,5.36-2.6c4.15,0,6.63,2.84,6.63,7.2v12a.38.38,0,0,1-.4.4Z" transform="translate(0)"/><path d="M446.31,255.2a.38.38,0,0,1-.4-.4v-1.68h0c-.88,1.44-2.75,2.52-5.67,2.52-3.64,0-6.44-1.89-6.44-5.76,0-4,2.8-5.92,7.48-5.92h4.35a.21.21,0,0,0,.24-.24v-1.4c0-2.64-1-3.76-4.59-3.76a7.45,7.45,0,0,0-4.64,1.36c-.2.16-.44.16-.56,0L435,238a.42.42,0,0,1,.08-.56,10.62,10.62,0,0,1,6.51-1.88c5.44,0,7.52,1.8,7.52,6.52V254.8a.38.38,0,0,1-.4.4Zm-.48-6.2v-2.12a.21.21,0,0,0-.24-.24h-3.83c-3.32,0-4.76,1-4.76,3.12,0,2,1.44,3,4,3C444,252.76,445.83,251.36,445.83,249Z" transform="translate(0)"/><path d="M5.26,300.39a.38.38,0,0,1-.4-.4V274.44a.38.38,0,0,1,.4-.4H7.82a.38.38,0,0,1,.4.4v1.8h0c.92-1.52,2.56-2.64,5.44-2.64,3.32,0,5.64,1.56,6.6,4.6a15.84,15.84,0,0,1,.68,5.4A16,16,0,0,1,20.3,289c-1,3-3.28,4.6-6.6,4.6-2.88,0-4.52-1.16-5.44-2.68h0v9a.38.38,0,0,1-.4.4ZM17.1,287.6a13.29,13.29,0,0,0,.44-4,13.63,13.63,0,0,0-.44-4,4.07,4.07,0,0,0-4.2-2.88,4.07,4.07,0,0,0-4.24,2.88,12.47,12.47,0,0,0-.44,4,12.31,12.31,0,0,0,.44,4,4.1,4.1,0,0,0,4.24,2.92A4.1,4.1,0,0,0,17.1,287.6Z" transform="translate(0)"/><path d="M24.26,288.44a19.2,19.2,0,0,1,0-9.68c1.08-3.32,3.88-5.16,7.52-5.16a7.42,7.42,0,0,1,7.52,5.16,16.72,16.72,0,0,1,.6,5.48.39.39,0,0,1-.44.4H27.3a.21.21,0,0,0-.24.24,7.18,7.18,0,0,0,.32,2.32,4.73,4.73,0,0,0,4.84,3.32,6.26,6.26,0,0,0,4.92-2.12.41.41,0,0,1,.6-.08l1.64,1.48a.36.36,0,0,1,0,.56,9.32,9.32,0,0,1-7.48,3.28C28.06,293.64,25.3,291.75,24.26,288.44ZM36.18,282a.21.21,0,0,0,.24-.24,6.74,6.74,0,0,0-.28-2.16,4.33,4.33,0,0,0-4.4-3,4.33,4.33,0,0,0-4.4,3,6.74,6.74,0,0,0-.28,2.16.21.21,0,0,0,.24.24Z" transform="translate(0)"/><path d="M44.06,293.2a.38.38,0,0,1-.4-.4V274.44a.38.38,0,0,1,.4-.4h2.56a.38.38,0,0,1,.4.4v2h0a5.34,5.34,0,0,1,5.08-2.8A5.89,5.89,0,0,1,56.06,275c.2.2.24.36.08.56l-1.48,2a.36.36,0,0,1-.56.08,5.4,5.4,0,0,0-3-.92c-2.92,0-4.12,2.28-4.12,5.6V292.8a.38.38,0,0,1-.4.4Z" transform="translate(0)"/><path d="M56.82,290.76a.39.39,0,0,1,0-.56l1.64-1.76a.39.39,0,0,1,.56,0,9.31,9.31,0,0,0,5.92,2.2c2.8,0,4.2-1.2,4.2-2.92,0-1.52-.72-2.36-3.72-2.68l-2-.2c-3.76-.4-5.72-2.28-5.72-5.4,0-3.64,2.6-5.84,7.12-5.84a11.46,11.46,0,0,1,6.8,2.12.39.39,0,0,1,.08.56L70.3,278a.39.39,0,0,1-.56.08,10.09,10.09,0,0,0-5.16-1.56c-2.4,0-3.64,1.08-3.64,2.64s.92,2.32,3.76,2.6l2,.2c3.88.36,5.76,2.32,5.76,5.4,0,3.76-2.72,6.28-7.72,6.28A11.91,11.91,0,0,1,56.82,290.76Z" transform="translate(0)"/><path d="M75.62,288.48a18.77,18.77,0,0,1,0-9.72c1-3.28,3.84-5.16,7.56-5.16s6.52,1.88,7.56,5.16a18.77,18.77,0,0,1,0,9.72c-1,3.24-3.84,5.16-7.56,5.16S76.66,291.72,75.62,288.48Zm11.88-1a12.55,12.55,0,0,0,.44-3.92,12.27,12.27,0,0,0-.44-3.88,4.61,4.61,0,0,0-8.64,0,12.27,12.27,0,0,0-.44,3.88,12.55,12.55,0,0,0,.44,3.92,4.61,4.61,0,0,0,8.64,0Z" transform="translate(0)"/><path d="M107.62,293.2a.38.38,0,0,1-.4-.4V281.6c0-3.08-1.4-4.88-4.28-4.88-2.6,0-4.4,1.84-4.4,4.68v11.4a.38.38,0,0,1-.4.4H95.58a.38.38,0,0,1-.4-.4V274.44a.38.38,0,0,1,.4-.4h2.56a.38.38,0,0,1,.4.4v1.76h0a6.06,6.06,0,0,1,5.36-2.6c4.16,0,6.64,2.84,6.64,7.2v12a.38.38,0,0,1-.4.4Z" transform="translate(0)"/><path d="M126.94,293.2a.38.38,0,0,1-.4-.4v-1.68h0c-.88,1.44-2.76,2.52-5.68,2.52-3.64,0-6.44-1.89-6.44-5.76,0-4,2.8-5.92,7.48-5.92h4.36a.21.21,0,0,0,.24-.24v-1.4c0-2.64-1-3.76-4.6-3.76a7.45,7.45,0,0,0-4.64,1.36c-.2.16-.44.16-.56,0L115.58,276a.42.42,0,0,1,.08-.56,10.63,10.63,0,0,1,6.52-1.88c5.44,0,7.52,1.8,7.52,6.52V292.8a.38.38,0,0,1-.4.4Zm-.48-6.2v-2.12a.21.21,0,0,0-.24-.24h-3.84c-3.32,0-4.76,1-4.76,3.12,0,2,1.44,3,4,3C124.62,290.76,126.46,289.36,126.46,287Z" transform="translate(0)"/><path d="M154.5,300.39a.38.38,0,0,1-.4-.4v-9h0c-.92,1.52-2.56,2.68-5.44,2.68-3.32,0-5.64-1.56-6.6-4.6a21.94,21.94,0,0,1,0-10.84c1-3,3.28-4.6,6.6-4.6,2.88,0,4.52,1.12,5.44,2.64h0v-1.8a.38.38,0,0,1,.4-.4h2.56a.38.38,0,0,1,.4.4V300a.38.38,0,0,1-.4.4Zm-.84-12.79a12.31,12.31,0,0,0,.44-4,12.47,12.47,0,0,0-.44-4,4.53,4.53,0,0,0-8.44,0,13.63,13.63,0,0,0-.44,4,13.29,13.29,0,0,0,.44,4,4.51,4.51,0,0,0,8.44,0Z" transform="translate(0)"/><path d="M174.46,293.2a.38.38,0,0,1-.4-.4V291h0a5.86,5.86,0,0,1-5.24,2.64c-4.2,0-6.64-2.88-6.64-7.24v-12a.38.38,0,0,1,.4-.4h2.56a.38.38,0,0,1,.4.4V285.6c0,3.12,1.4,4.92,4.24,4.92,2.6,0,4.32-1.84,4.32-4.72V274.44a.38.38,0,0,1,.4-.4H177a.38.38,0,0,1,.4.4V292.8a.38.38,0,0,1-.4.4Z" transform="translate(0)"/><path d="M181.86,288.44a15,15,0,0,1-.64-4.84,14.86,14.86,0,0,1,.6-4.84c1.08-3.32,3.88-5.16,7.52-5.16a7.42,7.42,0,0,1,7.52,5.16,16.72,16.72,0,0,1,.6,5.48.39.39,0,0,1-.44.4H184.9a.21.21,0,0,0-.24.24,7.18,7.18,0,0,0,.32,2.32,4.73,4.73,0,0,0,4.84,3.32,6.26,6.26,0,0,0,4.92-2.12.41.41,0,0,1,.6-.08L197,289.8a.36.36,0,0,1,0,.56,9.32,9.32,0,0,1-7.48,3.28C185.66,293.64,182.9,291.75,181.86,288.44ZM193.78,282a.21.21,0,0,0,.24-.24,6.74,6.74,0,0,0-.28-2.16,4.73,4.73,0,0,0-8.8,0,6.74,6.74,0,0,0-.28,2.16.21.21,0,0,0,.24.24Z" transform="translate(0)"/><path d="M221.26,293.2a.38.38,0,0,1-.4-.4V291h0c-.92,1.52-2.56,2.68-5.44,2.68-3.32,0-5.64-1.56-6.6-4.6a21.94,21.94,0,0,1,0-10.84c1-3,3.28-4.6,6.6-4.6,2.88,0,4.52,1.12,5.44,2.64h0V266.4a.38.38,0,0,1,.4-.4h2.56a.38.38,0,0,1,.4.4v26.4a.38.38,0,0,1-.4.4Zm-.84-5.6a12.31,12.31,0,0,0,.44-4,12.47,12.47,0,0,0-.44-4,4.53,4.53,0,0,0-8.44,0,13.63,13.63,0,0,0-.44,4,13.29,13.29,0,0,0,.44,4,4.51,4.51,0,0,0,8.44,0Z" transform="translate(0)"/><path d="M228.66,288.44a15,15,0,0,1-.64-4.84,14.86,14.86,0,0,1,.6-4.84c1.08-3.32,3.88-5.16,7.52-5.16a7.42,7.42,0,0,1,7.52,5.16,16.72,16.72,0,0,1,.6,5.48.39.39,0,0,1-.44.4H231.7a.21.21,0,0,0-.24.24,7.18,7.18,0,0,0,.32,2.32,4.73,4.73,0,0,0,4.84,3.32,6.26,6.26,0,0,0,4.92-2.12.41.41,0,0,1,.6-.08l1.64,1.48a.36.36,0,0,1,0,.56,9.32,9.32,0,0,1-7.48,3.28C232.46,293.64,229.7,291.75,228.66,288.44ZM240.58,282a.21.21,0,0,0,.24-.24,6.74,6.74,0,0,0-.28-2.16,4.73,4.73,0,0,0-8.8,0,6.74,6.74,0,0,0-.28,2.16.21.21,0,0,0,.24.24Z" transform="translate(0)"/><path d="M246.74,290.76a.39.39,0,0,1,0-.56l1.64-1.76a.39.39,0,0,1,.56,0,9.31,9.31,0,0,0,5.92,2.2c2.8,0,4.2-1.2,4.2-2.92,0-1.52-.72-2.36-3.72-2.68l-2-.2c-3.76-.4-5.72-2.28-5.72-5.4,0-3.64,2.6-5.84,7.12-5.84a11.46,11.46,0,0,1,6.8,2.12.39.39,0,0,1,.08.56L260.22,278a.39.39,0,0,1-.56.08,10.09,10.09,0,0,0-5.16-1.56c-2.4,0-3.64,1.08-3.64,2.64s.92,2.32,3.76,2.6l2,.2c3.88.36,5.76,2.32,5.76,5.4,0,3.76-2.72,6.28-7.72,6.28A11.91,11.91,0,0,1,246.74,290.76Z" transform="translate(0)"/><path d="M271.18,293.2c-.28,0-.4-.16-.48-.4l-6.88-18.36c-.08-.24,0-.4.32-.4h2.76c.28,0,.4.12.52.4l5,13.76h.08l4.84-13.76a.47.47,0,0,1,.48-.4h2.72c.28,0,.4.16.32.4L274,292.8a.52.52,0,0,1-.52.4Z" transform="translate(0)"/><path d="M283.86,269.72a.38.38,0,0,1-.4-.4V266.4a.38.38,0,0,1,.4-.4h2.72a.38.38,0,0,1,.4.4v2.92a.38.38,0,0,1-.4.4Zm.08,23.48a.38.38,0,0,1-.4-.4V274.44a.38.38,0,0,1,.4-.4h2.56a.38.38,0,0,1,.4.4V292.8a.38.38,0,0,1-.4.4Z" transform="translate(0)"/><path d="M291.34,288.44a15,15,0,0,1-.64-4.84,14.86,14.86,0,0,1,.6-4.84c1.08-3.32,3.88-5.16,7.52-5.16a7.42,7.42,0,0,1,7.52,5.16,16.72,16.72,0,0,1,.6,5.48.39.39,0,0,1-.44.4H294.38a.21.21,0,0,0-.24.24,7.18,7.18,0,0,0,.32,2.32,4.73,4.73,0,0,0,4.84,3.32,6.26,6.26,0,0,0,4.92-2.12.41.41,0,0,1,.6-.08l1.64,1.48a.36.36,0,0,1,0,.56,9.32,9.32,0,0,1-7.48,3.28C295.14,293.64,292.38,291.75,291.34,288.44ZM303.26,282a.21.21,0,0,0,.24-.24,6.74,6.74,0,0,0-.28-2.16,4.73,4.73,0,0,0-8.8,0,6.74,6.74,0,0,0-.28,2.16.21.21,0,0,0,.24.24Zm-6-11c-.24,0-.36-.16-.24-.4l3-4.92a.7.7,0,0,1,.68-.4h2.64c.24,0,.36.2.2.4l-3.68,4.92a.79.79,0,0,1-.76.4Z" transform="translate(0)"/><path d="M318.22,288.44a15,15,0,0,1-.64-4.84,14.86,14.86,0,0,1,.6-4.84c1.08-3.32,3.88-5.16,7.52-5.16s6.44,1.88,7.51,5.16a16.72,16.72,0,0,1,.6,5.48.39.39,0,0,1-.44.4H321.26a.21.21,0,0,0-.24.24,7.18,7.18,0,0,0,.32,2.32,4.73,4.73,0,0,0,4.84,3.32,6.26,6.26,0,0,0,4.92-2.12.41.41,0,0,1,.6-.08l1.63,1.48a.36.36,0,0,1,0,.56,9.28,9.28,0,0,1-7.47,3.28C322,293.64,319.26,291.75,318.22,288.44ZM330.14,282a.21.21,0,0,0,.24-.24,6.74,6.74,0,0,0-.28-2.16,4.73,4.73,0,0,0-8.8,0,6.74,6.74,0,0,0-.28,2.16.21.21,0,0,0,.24.24Z" transform="translate(0)"/><path d="M342.22,293.4c-3.36,0-4.68-1.6-4.68-5v-22a.38.38,0,0,1,.4-.4h2.56a.38.38,0,0,1,.4.4v21.76c0,1.6.6,2.12,1.92,2.12h.76a.38.38,0,0,1,.4.4V293a.38.38,0,0,1-.4.4Z" transform="translate(0)"/><path d="M360.65,293.4c-3.71,0-5.15-1.68-5.15-5.44V277a.21.21,0,0,0-.24-.24h-1.6a.38.38,0,0,1-.4-.4v-1.92a.38.38,0,0,1,.4-.4h1.6a.21.21,0,0,0,.24-.24v-5.4a.38.38,0,0,1,.4-.4h2.55a.38.38,0,0,1,.41.4v5.4c0,.16.07.24.24.24h3a.38.38,0,0,1,.4.4v1.92a.38.38,0,0,1-.4.4h-3c-.17,0-.24.08-.24.24v10.84c0,1.92.72,2.44,2.43,2.44h.84a.38.38,0,0,1,.4.4V293a.38.38,0,0,1-.4.4Z" transform="translate(0)"/><path d="M366.54,293.2a.38.38,0,0,1-.4-.4V274.44a.38.38,0,0,1,.4-.4h2.56a.37.37,0,0,1,.39.4v2h0a5.34,5.34,0,0,1,5.08-2.8,5.89,5.89,0,0,1,3.92,1.44c.2.2.24.36.08.56l-1.48,2a.36.36,0,0,1-.56.08,5.4,5.4,0,0,0-3-.92c-2.91,0-4.12,2.28-4.12,5.6V292.8a.37.37,0,0,1-.39.4Z" transform="translate(0)"/><path d="M391.57,293.2a.38.38,0,0,1-.4-.4v-1.68h0c-.88,1.44-2.76,2.52-5.68,2.52-3.63,0-6.43-1.89-6.43-5.76,0-4,2.8-5.92,7.47-5.92h4.36a.21.21,0,0,0,.24-.24v-1.4c0-2.64-1-3.76-4.6-3.76a7.4,7.4,0,0,0-4.63,1.36c-.2.16-.44.16-.56,0L380.22,276a.42.42,0,0,1,.08-.56,10.6,10.6,0,0,1,6.51-1.88c5.44,0,7.52,1.8,7.52,6.52V292.8a.38.38,0,0,1-.4.4Zm-.48-6.2v-2.12a.21.21,0,0,0-.24-.24H387c-3.31,0-4.75,1-4.75,3.12,0,2,1.44,3,4,3C389.25,290.76,391.09,289.36,391.09,287Zm-5.4-16.08c-.24,0-.36-.16-.24-.4l3-4.92a.7.7,0,0,1,.68-.4h2.64c.24,0,.36.2.2.4l-3.68,4.92a.79.79,0,0,1-.76.4Z" transform="translate(0)"/><path d="M411.57,293.2a.38.38,0,0,1-.4-.4V281.6c0-3.08-1.4-4.88-4.28-4.88-2.6,0-4.4,1.84-4.4,4.68v11.4a.38.38,0,0,1-.4.4h-2.56a.38.38,0,0,1-.39-.4V274.44a.38.38,0,0,1,.39-.4h2.56a.38.38,0,0,1,.4.4v1.76h0a6.06,6.06,0,0,1,5.36-2.6c4.16,0,6.64,2.84,6.64,7.2v12a.38.38,0,0,1-.4.4Z" transform="translate(0)"/><path d="M418,290.76a.4.4,0,0,1,0-.56l1.65-1.76a.38.38,0,0,1,.55,0,9.31,9.31,0,0,0,5.92,2.2c2.8,0,4.2-1.2,4.2-2.92,0-1.52-.72-2.36-3.72-2.68l-2-.2c-3.76-.4-5.72-2.28-5.72-5.4,0-3.64,2.6-5.84,7.12-5.84a11.46,11.46,0,0,1,6.8,2.12.39.39,0,0,1,.08.56L431.45,278a.39.39,0,0,1-.56.08,10.09,10.09,0,0,0-5.16-1.56c-2.4,0-3.64,1.08-3.64,2.64s.92,2.32,3.76,2.6l2,.2c3.88.36,5.76,2.32,5.76,5.4,0,3.76-2.72,6.28-7.72,6.28A11.91,11.91,0,0,1,418,290.76Z" transform="translate(0)"/><path d="M437.61,269.72a.38.38,0,0,1-.4-.4V266.4a.38.38,0,0,1,.4-.4h2.72a.38.38,0,0,1,.4.4v2.92a.38.38,0,0,1-.4.4Zm.08,23.48a.38.38,0,0,1-.4-.4V274.44a.38.38,0,0,1,.4-.4h2.56a.38.38,0,0,1,.4.4V292.8a.38.38,0,0,1-.4.4Z" transform="translate(0)"/><path d="M451.17,293.4c-3.72,0-5.16-1.68-5.16-5.44V277a.21.21,0,0,0-.24-.24h-1.6a.38.38,0,0,1-.4-.4v-1.92a.38.38,0,0,1,.4-.4h1.6a.21.21,0,0,0,.24-.24v-5.4a.38.38,0,0,1,.4-.4H449a.38.38,0,0,1,.4.4v5.4a.21.21,0,0,0,.24.24h3a.38.38,0,0,1,.4.4v1.92a.38.38,0,0,1-.4.4h-3a.21.21,0,0,0-.24.24v10.84c0,1.92.72,2.44,2.44,2.44h.84a.38.38,0,0,1,.4.4V293a.38.38,0,0,1-.4.4Z" transform="translate(0)"/><path d="M456.13,288.48a18.77,18.77,0,0,1,0-9.72c1-3.28,3.84-5.16,7.56-5.16s6.52,1.88,7.56,5.16a18.77,18.77,0,0,1,0,9.72c-1,3.24-3.84,5.16-7.56,5.16S457.17,291.72,456.13,288.48Zm11.88-1a12.55,12.55,0,0,0,.44-3.92,12.27,12.27,0,0,0-.44-3.88,4.61,4.61,0,0,0-8.64,0,12.27,12.27,0,0,0-.44,3.88,12.55,12.55,0,0,0,.44,3.92,4.61,4.61,0,0,0,8.64,0Z" transform="translate(0)"/><path d="M475.21,289.36a.38.38,0,0,1,.4-.4h3a.38.38,0,0,1,.4.4v3.44a.38.38,0,0,1-.4.4h-3a.38.38,0,0,1-.4-.4Z" transform="translate(0)"/></g></g></svg>