<svg xmlns="http://www.w3.org/2000/svg" viewBox="0 0 701.81 220.96"><defs><style>.cls-1{fill:#4d4d4d;}</style></defs><title>r2</title><g id="Capa_2" data-name="Capa 2"><g id="control_vector" data-name="control vector"><path class="cls-1" d="M9.79,24.48a.35.35,0,0,1-.36-.36V3.2c0-.14-.07-.21-.22-.21H2.52a.34.34,0,0,1-.36-.36V.36A.34.34,0,0,1,2.52,0h17a.34.34,0,0,1,.36.36V2.63a.35.35,0,0,1-.36.36h-6.7a.19.19,0,0,0-.22.21V24.12a.34.34,0,0,1-.36.36Z"/><path class="cls-1" d="M20.09,20.19a13.43,13.43,0,0,1-.58-4.35,13.43,13.43,0,0,1,.54-4.36,6.67,6.67,0,0,1,6.77-4.64,6.69,6.69,0,0,1,6.77,4.64,15.08,15.08,0,0,1,.54,4.93.35.35,0,0,1-.4.36H22.82a.19.19,0,0,0-.21.22,6.47,6.47,0,0,0,.29,2.09,4.25,4.25,0,0,0,4.35,3,5.64,5.64,0,0,0,4.43-1.9c.18-.18.36-.22.54-.07l1.47,1.33a.32.32,0,0,1,0,.5A8.38,8.38,0,0,1,27,24.87C23.51,24.87,21,23.18,20.09,20.19Zm10.72-5.83c.15,0,.22-.07.22-.21a6.08,6.08,0,0,0-.25-2,3.9,3.9,0,0,0-4-2.7,3.9,3.9,0,0,0-4,2.7,6.08,6.08,0,0,0-.25,2,.19.19,0,0,0,.21.21Z"/><path class="cls-1" d="M49.46,24.48a.35.35,0,0,1-.36-.36V14c0-2.77-1.26-4.39-3.85-4.39a3.87,3.87,0,0,0-4,4.21V24.12a.34.34,0,0,1-.36.36h-2.3a.34.34,0,0,1-.36-.36V7.59a.34.34,0,0,1,.36-.36h2.3a.34.34,0,0,1,.36.36V9.18h0a5.45,5.45,0,0,1,4.82-2.34c3.74,0,6,2.55,6,6.48v10.8a.35.35,0,0,1-.36.36Z"/><path class="cls-1" d="M56.77,28.8a.33.33,0,0,1,0-.51l1.47-1.47a.34.34,0,0,1,.54,0,5.75,5.75,0,0,0,4.07,1.72c2.84,0,4.36-1.47,4.36-4.64v-2h0c-.79,1.44-2.27,2.37-4.79,2.37a5.64,5.64,0,0,1-5.79-4.17,13.58,13.58,0,0,1-.58-4.54A13.58,13.58,0,0,1,56.63,11a5.64,5.64,0,0,1,5.79-4.17c2.52,0,4,.93,4.79,2.37h0V7.59a.34.34,0,0,1,.36-.36h2.3a.34.34,0,0,1,.36.36V23.72c0,4.9-2.66,7.63-7.52,7.63A7.79,7.79,0,0,1,56.77,28.8Zm10.08-9.9a10.43,10.43,0,0,0,.4-3.35,10.55,10.55,0,0,0-.4-3.35,3.89,3.89,0,0,0-7.31,0,10.78,10.78,0,0,0-.43,3.35,10.65,10.65,0,0,0,.43,3.35,3.53,3.53,0,0,0,3.64,2.59A3.56,3.56,0,0,0,66.85,18.9Z"/><path class="cls-1" d="M85.89,24.48a.35.35,0,0,1-.36-.36V22.6h0c-.79,1.3-2.49,2.27-5.11,2.27-3.28,0-5.8-1.69-5.8-5.18,0-3.64,2.52-5.33,6.73-5.33h3.93a.19.19,0,0,0,.21-.21V12.89c0-2.38-.93-3.39-4.14-3.39a6.68,6.68,0,0,0-4.17,1.23.33.33,0,0,1-.51,0L75.67,9a.38.38,0,0,1,.07-.5,9.56,9.56,0,0,1,5.87-1.69c4.9,0,6.77,1.62,6.77,5.87V24.12a.35.35,0,0,1-.36.36Zm-.43-5.58V17a.19.19,0,0,0-.21-.22H81.79c-3,0-4.28.87-4.28,2.81,0,1.77,1.29,2.7,3.6,2.7C83.81,22.28,85.46,21,85.46,18.9Z"/><path class="cls-1" d="M100.87,20.19a13.43,13.43,0,0,1-.58-4.35,13.43,13.43,0,0,1,.54-4.36,7.26,7.26,0,0,1,13.54,0,15.08,15.08,0,0,1,.54,4.93.35.35,0,0,1-.4.36h-10.9a.2.2,0,0,0-.22.22,6.47,6.47,0,0,0,.29,2.09,4.25,4.25,0,0,0,4.35,3,5.63,5.63,0,0,0,4.43-1.9c.18-.18.36-.22.54-.07l1.48,1.33a.31.31,0,0,1,0,.5,8.37,8.37,0,0,1-6.73,2.95C104.29,24.87,101.81,23.18,100.87,20.19Zm10.73-5.83a.19.19,0,0,0,.21-.21,6.08,6.08,0,0,0-.25-2,4.25,4.25,0,0,0-7.92,0,6.08,6.08,0,0,0-.25,2c0,.14.07.21.22.21Z"/><path class="cls-1" d="M130.25,24.48a.35.35,0,0,1-.37-.36V14c0-2.77-1.25-4.39-3.85-4.39a3.87,3.87,0,0,0-4,4.21V24.12a.34.34,0,0,1-.36.36h-2.3a.34.34,0,0,1-.36-.36V7.59a.34.34,0,0,1,.36-.36h2.3a.34.34,0,0,1,.36.36V9.18h0a5.45,5.45,0,0,1,4.82-2.34c3.75,0,6,2.55,6,6.48v10.8a.35.35,0,0,1-.36.36Z"/><path class="cls-1" d="M145.33,11.48a6.68,6.68,0,0,1,6.8-4.64A6.94,6.94,0,0,1,158,9.75a.35.35,0,0,1-.11.51l-1.59,1.29a.31.31,0,0,1-.5,0,4.24,4.24,0,0,0-3.71-1.87,3.74,3.74,0,0,0-3.85,2.7,11.44,11.44,0,0,0-.39,3.49,11.56,11.56,0,0,0,.39,3.53,3.74,3.74,0,0,0,3.85,2.69,4.24,4.24,0,0,0,3.71-1.87.31.31,0,0,1,.5,0l1.59,1.29A.35.35,0,0,1,158,22a6.92,6.92,0,0,1-5.91,2.91c-3.31,0-5.83-1.65-6.8-4.64a15,15,0,0,1-.54-4.39A15,15,0,0,1,145.33,11.48Z"/><path class="cls-1" d="M172.94,24.48a.34.34,0,0,1-.36-.36V22.5h0a5.25,5.25,0,0,1-4.71,2.37c-3.78,0-6-2.59-6-6.51V7.59a.35.35,0,0,1,.36-.36h2.31a.35.35,0,0,1,.36.36V17.64c0,2.81,1.26,4.42,3.81,4.42,2.34,0,3.89-1.65,3.89-4.24V7.59a.34.34,0,0,1,.36-.36h2.3a.34.34,0,0,1,.36.36V24.12a.34.34,0,0,1-.36.36Z"/><path class="cls-1" d="M180.32,20.19a13.48,13.48,0,0,1-.57-4.35,13.16,13.16,0,0,1,.54-4.36,7.25,7.25,0,0,1,13.53,0,15.08,15.08,0,0,1,.54,4.93.35.35,0,0,1-.4.36h-10.9a.2.2,0,0,0-.22.22,6.47,6.47,0,0,0,.29,2.09,4.25,4.25,0,0,0,4.35,3,5.61,5.61,0,0,0,4.43-1.9c.18-.18.36-.22.54-.07l1.48,1.33a.31.31,0,0,1,0,.5,8.35,8.35,0,0,1-6.73,2.95C183.74,24.87,181.26,23.18,180.32,20.19Zm10.73-5.83a.19.19,0,0,0,.21-.21,6.08,6.08,0,0,0-.25-2,4.25,4.25,0,0,0-7.92,0,6.08,6.08,0,0,0-.25,2c0,.14.07.21.22.21Z"/><path class="cls-1" d="M209.7,24.48a.34.34,0,0,1-.36-.36V14c0-2.77-1.26-4.39-3.86-4.39a3.87,3.87,0,0,0-4,4.21V24.12a.34.34,0,0,1-.36.36h-2.3a.34.34,0,0,1-.36-.36V7.59a.34.34,0,0,1,.36-.36h2.3a.34.34,0,0,1,.36.36V9.18h0a5.45,5.45,0,0,1,4.82-2.34c3.75,0,6,2.55,6,6.48v10.8a.35.35,0,0,1-.36.36Z"/><path class="cls-1" d="M222.37,24.66c-3.35,0-4.65-1.51-4.65-4.9V9.9c0-.15-.07-.22-.21-.22h-1.44a.34.34,0,0,1-.36-.36V7.59a.34.34,0,0,1,.36-.36h1.44a.19.19,0,0,0,.21-.21V2.16a.34.34,0,0,1,.36-.36h2.31a.34.34,0,0,1,.36.36V7a.19.19,0,0,0,.21.21h2.74a.34.34,0,0,1,.36.36V9.32a.34.34,0,0,1-.36.36H221c-.14,0-.21.07-.21.22v9.75c0,1.73.65,2.2,2.19,2.2h.76a.34.34,0,0,1,.36.36V24.3a.34.34,0,0,1-.36.36Z"/><path class="cls-1" d="M238.46,24.48a.34.34,0,0,1-.36-.36V22.6h0c-.79,1.3-2.48,2.27-5.11,2.27-3.27,0-5.79-1.69-5.79-5.18,0-3.64,2.52-5.33,6.73-5.33h3.92c.15,0,.22-.07.22-.21V12.89c0-2.38-.94-3.39-4.14-3.39a6.71,6.71,0,0,0-4.18,1.23.32.32,0,0,1-.5,0l-1-1.66a.37.37,0,0,1,.07-.5,9.54,9.54,0,0,1,5.87-1.69c4.89,0,6.76,1.62,6.76,5.87V24.12a.34.34,0,0,1-.36.36ZM238,18.9V17a.2.2,0,0,0-.22-.22h-3.45c-3,0-4.29.87-4.29,2.81,0,1.77,1.3,2.7,3.6,2.7C236.37,22.28,238,21,238,18.9Z"/><path class="cls-1" d="M264.7,31a.35.35,0,0,1-.36-.36V22.46h0c-.83,1.37-2.31,2.41-4.9,2.41-3,0-5.07-1.4-5.94-4.14a14.25,14.25,0,0,1-.61-4.89,14.2,14.2,0,0,1,.61-4.86c.87-2.74,3-4.14,5.94-4.14,2.59,0,4.07,1,4.9,2.37h0V7.59a.35.35,0,0,1,.36-.36H267a.35.35,0,0,1,.36.36v23A.35.35,0,0,1,267,31ZM264,19.44a11.35,11.35,0,0,0,.39-3.6,11.47,11.47,0,0,0-.39-3.6,4.08,4.08,0,0,0-7.6,0,12.2,12.2,0,0,0-.39,3.6,11.94,11.94,0,0,0,.39,3.6,4.07,4.07,0,0,0,7.6,0Z"/><path class="cls-1" d="M283.39,24.48a.34.34,0,0,1-.36-.36V22.5h0a5.25,5.25,0,0,1-4.72,2.37c-3.77,0-6-2.59-6-6.51V7.59a.34.34,0,0,1,.36-.36H275a.34.34,0,0,1,.36.36V17.64c0,2.81,1.26,4.42,3.82,4.42,2.34,0,3.89-1.65,3.89-4.24V7.59a.34.34,0,0,1,.36-.36h2.3a.34.34,0,0,1,.36.36V24.12a.34.34,0,0,1-.36.36Z"/><path class="cls-1" d="M290.77,20.19a13.43,13.43,0,0,1-.58-4.35,13.43,13.43,0,0,1,.54-4.36,7.26,7.26,0,0,1,13.54,0,15.08,15.08,0,0,1,.54,4.93.35.35,0,0,1-.4.36H293.5a.19.19,0,0,0-.21.22,6.5,6.5,0,0,0,.28,2.09,4.27,4.27,0,0,0,4.36,3,5.64,5.64,0,0,0,4.43-1.9c.18-.18.36-.22.54-.07l1.47,1.33a.32.32,0,0,1,0,.5,8.38,8.38,0,0,1-6.73,2.95C294.19,24.87,291.7,23.18,290.77,20.19Zm10.72-5.83c.15,0,.22-.07.22-.21a6.08,6.08,0,0,0-.25-2,4.25,4.25,0,0,0-7.92,0,6.08,6.08,0,0,0-.25,2,.19.19,0,0,0,.21.21Z"/><path class="cls-1" d="M315.68,22.28a.35.35,0,0,1,0-.5l1.47-1.59a.36.36,0,0,1,.51,0,8.34,8.34,0,0,0,5.33,2c2.52,0,3.78-1.08,3.78-2.62,0-1.37-.65-2.13-3.35-2.42L321.58,17c-3.38-.36-5.15-2-5.15-4.86,0-3.27,2.34-5.25,6.41-5.25A10.32,10.32,0,0,1,329,8.75a.34.34,0,0,1,.07.5l-1.22,1.55a.35.35,0,0,1-.5.07,9.09,9.09,0,0,0-4.65-1.4c-2.16,0-3.27,1-3.27,2.37s.82,2.09,3.38,2.34l1.8.18c3.49.33,5.18,2.09,5.18,4.86,0,3.38-2.44,5.65-6.94,5.65A10.73,10.73,0,0,1,315.68,22.28Z"/><path class="cls-1" d="M334.07,3.35a.35.35,0,0,1-.36-.36V.36a.34.34,0,0,1,.36-.36h2.45a.34.34,0,0,1,.36.36V3a.34.34,0,0,1-.36.36Zm.08,21.13a.34.34,0,0,1-.36-.36V7.59a.34.34,0,0,1,.36-.36h2.3a.34.34,0,0,1,.36.36V24.12a.34.34,0,0,1-.36.36Z"/><path class="cls-1" d="M354.52,24.48c-.25,0-.36-.15-.43-.36L347.9,7.59c-.07-.21,0-.36.29-.36h2.48c.25,0,.36.11.47.36L355.6,20h.07L360,7.59a.42.42,0,0,1,.43-.36h2.45c.25,0,.36.15.29.36L357,24.12a.47.47,0,0,1-.47.36Z"/><path class="cls-1" d="M376.62,24.48a.35.35,0,0,1-.36-.36V22.6h0c-.79,1.3-2.49,2.27-5.11,2.27-3.28,0-5.8-1.69-5.8-5.18,0-3.64,2.52-5.33,6.73-5.33H376a.19.19,0,0,0,.21-.21V12.89c0-2.38-.93-3.39-4.14-3.39a6.68,6.68,0,0,0-4.17,1.23.33.33,0,0,1-.51,0L366.4,9a.38.38,0,0,1,.07-.5,9.58,9.58,0,0,1,5.87-1.69c4.9,0,6.77,1.62,6.77,5.87V24.12a.35.35,0,0,1-.36.36Zm-.43-5.58V17a.19.19,0,0,0-.21-.22h-3.46c-3,0-4.28.87-4.28,2.81,0,1.77,1.29,2.7,3.6,2.7C374.54,22.28,376.19,21,376.19,18.9Z"/><path class="cls-1" d="M402.51,24.48a.34.34,0,0,1-.36-.36V22.6h0c-.79,1.3-2.48,2.27-5.11,2.27-3.28,0-5.79-1.69-5.79-5.18,0-3.64,2.51-5.33,6.73-5.33h3.92a.19.19,0,0,0,.22-.21V12.89c0-2.38-.94-3.39-4.14-3.39a6.71,6.71,0,0,0-4.18,1.23c-.18.14-.4.14-.5,0l-1-1.66a.37.37,0,0,1,.07-.5,9.53,9.53,0,0,1,5.86-1.69c4.9,0,6.77,1.62,6.77,5.87V24.12a.34.34,0,0,1-.36.36Zm-.43-5.58V17a.2.2,0,0,0-.22-.22H398.4c-3,0-4.28.87-4.28,2.81,0,1.77,1.3,2.7,3.6,2.7C400.42,22.28,402.08,21,402.08,18.9Z"/><path class="cls-1" d="M423,24.66c-3.35,0-4.65-1.51-4.65-4.9V9.9c0-.15-.07-.22-.21-.22h-1.44a.34.34,0,0,1-.36-.36V7.59a.34.34,0,0,1,.36-.36h1.44a.19.19,0,0,0,.21-.21V2.16a.34.34,0,0,1,.36-.36H421a.34.34,0,0,1,.36.36V7a.19.19,0,0,0,.21.21h2.74a.35.35,0,0,1,.36.36V9.32a.34.34,0,0,1-.36.36h-2.74c-.14,0-.21.07-.21.22v9.75c0,1.73.64,2.2,2.19,2.2h.76a.34.34,0,0,1,.36.36V24.3a.35.35,0,0,1-.36.36Z"/><path class="cls-1" d="M429,24.48a.34.34,0,0,1-.36-.36V7.59a.34.34,0,0,1,.36-.36h2.3a.34.34,0,0,1,.36.36V9.36h0a4.79,4.79,0,0,1,4.57-2.52,5.32,5.32,0,0,1,3.53,1.29c.18.18.21.33.07.51l-1.33,1.76a.33.33,0,0,1-.51.07,4.86,4.86,0,0,0-2.66-.82c-2.63,0-3.71,2-3.71,5v9.43a.34.34,0,0,1-.36.36Z"/><path class="cls-1" d="M452.22,24.48a.35.35,0,0,1-.36-.36V22.6h0c-.8,1.3-2.49,2.27-5.11,2.27-3.28,0-5.8-1.69-5.8-5.18,0-3.64,2.52-5.33,6.73-5.33h3.92c.15,0,.22-.07.22-.21V12.89c0-2.38-.94-3.39-4.14-3.39a6.68,6.68,0,0,0-4.17,1.23.33.33,0,0,1-.51,0L442,9a.38.38,0,0,1,.07-.5,9.56,9.56,0,0,1,5.87-1.69c4.89,0,6.77,1.62,6.77,5.87V24.12a.35.35,0,0,1-.36.36Zm-.43-5.58V17a.2.2,0,0,0-.22-.22h-3.45c-3,0-4.28.87-4.28,2.81,0,1.77,1.29,2.7,3.6,2.7C450.13,22.28,451.79,21,451.79,18.9Z"/><path class="cls-1" d="M460.11,24.48a.34.34,0,0,1-.36-.36V.36a.34.34,0,0,1,.36-.36h2.3a.34.34,0,0,1,.36.36V9.21h0c.83-1.36,2.3-2.37,4.89-2.37,3,0,5.08,1.4,5.94,4.14a14.2,14.2,0,0,1,.61,4.86,14.25,14.25,0,0,1-.61,4.89c-.86,2.74-2.95,4.14-5.94,4.14-2.59,0-4.06-1-4.89-2.41h0v1.66a.34.34,0,0,1-.36.36Zm10.65-5a11.89,11.89,0,0,0,.4-3.6,12.15,12.15,0,0,0-.4-3.6,4.08,4.08,0,0,0-7.59,0,11.12,11.12,0,0,0-.4,3.6,11,11,0,0,0,.4,3.6,4.06,4.06,0,0,0,7.59,0Z"/><path class="cls-1" d="M488.83,24.48a.35.35,0,0,1-.36-.36V22.6h0c-.79,1.3-2.48,2.27-5.11,2.27-3.28,0-5.8-1.69-5.8-5.18,0-3.64,2.52-5.33,6.73-5.33h3.93a.19.19,0,0,0,.21-.21V12.89c0-2.38-.93-3.39-4.14-3.39a6.7,6.7,0,0,0-4.17,1.23.33.33,0,0,1-.51,0l-1-1.66a.38.38,0,0,1,.07-.5,9.58,9.58,0,0,1,5.87-1.69c4.9,0,6.77,1.62,6.77,5.87V24.12a.35.35,0,0,1-.36.36Zm-.43-5.58V17a.19.19,0,0,0-.21-.22h-3.46c-3,0-4.28.87-4.28,2.81,0,1.77,1.29,2.7,3.6,2.7C486.75,22.28,488.4,21,488.4,18.9Z"/><path class="cls-1" d="M493.52,31a.34.34,0,0,1-.36-.36V28.51a.34.34,0,0,1,.36-.36h.57c1.69,0,2.27-.47,2.27-2.31V7.59a.34.34,0,0,1,.36-.36H499a.34.34,0,0,1,.36.36V25.77c0,3.71-1.65,5.19-5.14,5.19Zm3.13-27.61a.34.34,0,0,1-.36-.36V.36a.34.34,0,0,1,.36-.36h2.45a.34.34,0,0,1,.36.36V3a.35.35,0,0,1-.36.36Z"/><path class="cls-1" d="M515,24.48a.34.34,0,0,1-.36-.36V22.6h0c-.79,1.3-2.48,2.27-5.11,2.27-3.28,0-5.8-1.69-5.8-5.18,0-3.64,2.52-5.33,6.73-5.33h3.93a.19.19,0,0,0,.21-.21V12.89c0-2.38-.93-3.39-4.14-3.39a6.7,6.7,0,0,0-4.17,1.23.33.33,0,0,1-.51,0l-1-1.66a.38.38,0,0,1,.07-.5,9.58,9.58,0,0,1,5.87-1.69c4.9,0,6.77,1.62,6.77,5.87V24.12a.34.34,0,0,1-.36.36Zm-.44-5.58V17a.19.19,0,0,0-.21-.22H510.9c-3,0-4.28.87-4.28,2.81,0,1.77,1.3,2.7,3.6,2.7C512.92,22.28,514.57,21,514.57,18.9Z"/><path class="cls-1" d="M522.89,24.48a.34.34,0,0,1-.36-.36V7.59a.34.34,0,0,1,.36-.36h2.3a.34.34,0,0,1,.36.36V9.36h0a4.8,4.8,0,0,1,4.57-2.52,5.3,5.3,0,0,1,3.53,1.29c.18.18.22.33.07.51l-1.33,1.76a.32.32,0,0,1-.5.07,4.92,4.92,0,0,0-2.67-.82c-2.63,0-3.71,2-3.71,5v9.43a.34.34,0,0,1-.36.36Z"/><path class="cls-1" d="M544,20.19a13.48,13.48,0,0,1-.57-4.35,13.43,13.43,0,0,1,.54-4.36,7.25,7.25,0,0,1,13.53,0,15.08,15.08,0,0,1,.54,4.93c0,.22-.14.36-.4.36h-10.9a.2.2,0,0,0-.22.22,6.47,6.47,0,0,0,.29,2.09,4.25,4.25,0,0,0,4.36,3,5.6,5.6,0,0,0,4.42-1.9c.18-.18.36-.22.54-.07l1.48,1.33a.31.31,0,0,1,0,.5,8.35,8.35,0,0,1-6.73,2.95C547.44,24.87,545,23.18,544,20.19Zm10.73-5.83a.19.19,0,0,0,.21-.21,6.08,6.08,0,0,0-.25-2,4.25,4.25,0,0,0-7.92,0,6.08,6.08,0,0,0-.25,2c0,.14.07.21.22.21Z"/><path class="cls-1" d="M573.4,24.48a.34.34,0,0,1-.36-.36V14c0-2.77-1.26-4.39-3.86-4.39a3.86,3.86,0,0,0-3.95,4.21V24.12a.35.35,0,0,1-.36.36h-2.31a.35.35,0,0,1-.36-.36V7.59a.35.35,0,0,1,.36-.36h2.31a.35.35,0,0,1,.36.36V9.18h0a5.46,5.46,0,0,1,4.82-2.34c3.75,0,6,2.55,6,6.48v10.8a.34.34,0,0,1-.36.36Z"/><path class="cls-1" d="M588.52,20.19a13.43,13.43,0,0,1-.58-4.35,13.43,13.43,0,0,1,.54-4.36,7.26,7.26,0,0,1,13.54,0,15.08,15.08,0,0,1,.54,4.93.35.35,0,0,1-.4.36H591.25A.19.19,0,0,0,591,17a6.5,6.5,0,0,0,.28,2.09,4.27,4.27,0,0,0,4.36,3,5.64,5.64,0,0,0,4.43-1.9c.18-.18.36-.22.54-.07l1.47,1.33a.32.32,0,0,1,0,.5,8.38,8.38,0,0,1-6.73,2.95C591.94,24.87,589.45,23.18,588.52,20.19Zm10.72-5.83c.15,0,.22-.07.22-.21a6.08,6.08,0,0,0-.25-2,4.25,4.25,0,0,0-7.92,0,6.08,6.08,0,0,0-.25,2,.19.19,0,0,0,.21.21Z"/><path class="cls-1" d="M605.51,22.28a.35.35,0,0,1,0-.5L607,20.19a.36.36,0,0,1,.51,0,8.34,8.34,0,0,0,5.33,2c2.52,0,3.78-1.08,3.78-2.62,0-1.37-.65-2.13-3.35-2.42L611.41,17c-3.38-.36-5.14-2-5.14-4.86,0-3.27,2.33-5.25,6.4-5.25a10.32,10.32,0,0,1,6.12,1.91.34.34,0,0,1,.07.5l-1.22,1.55a.35.35,0,0,1-.5.07,9.09,9.09,0,0,0-4.65-1.4c-2.16,0-3.27,1-3.27,2.37s.82,2.09,3.38,2.34l1.8.18c3.49.33,5.18,2.09,5.18,4.86,0,3.38-2.44,5.65-6.94,5.65A10.73,10.73,0,0,1,605.51,22.28Z"/><path class="cls-1" d="M624,31a.34.34,0,0,1-.36-.36v-23a.34.34,0,0,1,.36-.36h2.3a.34.34,0,0,1,.36.36V9.21h0c.82-1.36,2.3-2.37,4.89-2.37,3,0,5.08,1.4,5.94,4.14a14.2,14.2,0,0,1,.61,4.86,14.25,14.25,0,0,1-.61,4.89c-.86,2.74-3,4.14-5.94,4.14-2.59,0-4.07-1-4.89-2.41h0V30.6a.34.34,0,0,1-.36.36Zm10.65-11.52a11.89,11.89,0,0,0,.4-3.6,12.15,12.15,0,0,0-.4-3.6,4.08,4.08,0,0,0-7.59,0,11.12,11.12,0,0,0-.4,3.6,11,11,0,0,0,.4,3.6,4.06,4.06,0,0,0,7.59,0Z"/><path class="cls-1" d="M652.7,24.48a.35.35,0,0,1-.36-.36V22.6h0c-.79,1.3-2.49,2.27-5.11,2.27-3.28,0-5.8-1.69-5.8-5.18,0-3.64,2.52-5.33,6.73-5.33h3.93a.19.19,0,0,0,.21-.21V12.89c0-2.38-.94-3.39-4.14-3.39A6.68,6.68,0,0,0,644,10.73a.33.33,0,0,1-.51,0l-1-1.66a.38.38,0,0,1,.07-.5,9.56,9.56,0,0,1,5.87-1.69c4.89,0,6.77,1.62,6.77,5.87V24.12a.35.35,0,0,1-.36.36Zm-.43-5.58V17a.19.19,0,0,0-.21-.22H648.6c-3,0-4.28.87-4.28,2.81,0,1.77,1.29,2.7,3.6,2.7C650.62,22.28,652.27,21,652.27,18.9Z"/><path class="cls-1" d="M659.72,11.48a6.7,6.7,0,0,1,6.81-4.64,6.92,6.92,0,0,1,5.9,2.91c.11.18.11.33-.11.51l-1.58,1.29a.31.31,0,0,1-.5,0,4.25,4.25,0,0,0-3.71-1.87,3.74,3.74,0,0,0-3.85,2.7,11.4,11.4,0,0,0-.4,3.49,11.52,11.52,0,0,0,.4,3.53,3.73,3.73,0,0,0,3.85,2.69,4.25,4.25,0,0,0,3.71-1.87.31.31,0,0,1,.5,0l1.58,1.29c.22.18.22.33.11.51a6.9,6.9,0,0,1-5.9,2.91,6.69,6.69,0,0,1-6.81-4.64,15,15,0,0,1-.54-4.39A15,15,0,0,1,659.72,11.48Z"/><path class="cls-1" d="M676.79,3.35a.34.34,0,0,1-.36-.36V.36a.34.34,0,0,1,.36-.36h2.45a.34.34,0,0,1,.36.36V3a.35.35,0,0,1-.36.36Zm.07,21.13a.34.34,0,0,1-.36-.36V7.59a.34.34,0,0,1,.36-.36h2.3a.34.34,0,0,1,.36.36V24.12a.34.34,0,0,1-.36.36Z"/><path class="cls-1" d="M684.24,20.23a12.85,12.85,0,0,1-.58-4.39,12.78,12.78,0,0,1,.58-4.36c.94-3,3.45-4.64,6.8-4.64s5.87,1.69,6.81,4.64a13.07,13.07,0,0,1,.57,4.36,13.14,13.14,0,0,1-.57,4.39,7.31,7.31,0,0,1-13.61,0Zm10.69-.86a11.27,11.27,0,0,0,.4-3.53,10.91,10.91,0,0,0-.4-3.49,4.15,4.15,0,0,0-7.77,0,10.91,10.91,0,0,0-.4,3.49,11.27,11.27,0,0,0,.4,3.53,4.15,4.15,0,0,0,7.77,0Z"/><path class="cls-1" d="M.58,58.19A13.43,13.43,0,0,1,0,53.84a13.43,13.43,0,0,1,.54-4.36,6.67,6.67,0,0,1,6.77-4.64,6.67,6.67,0,0,1,6.76,4.64,15.08,15.08,0,0,1,.54,4.93.35.35,0,0,1-.39.36H3.31A.19.19,0,0,0,3.1,55a6.5,6.5,0,0,0,.28,2.09,4.27,4.27,0,0,0,4.36,3,5.64,5.64,0,0,0,4.43-1.9c.18-.18.36-.22.54-.07l1.47,1.33a.32.32,0,0,1,0,.5,8.38,8.38,0,0,1-6.73,2.95C4,62.87,1.51,61.18.58,58.19ZM11.3,52.36c.15,0,.22-.07.22-.21a6.08,6.08,0,0,0-.25-1.95,3.9,3.9,0,0,0-4-2.7,3.88,3.88,0,0,0-4,2.7,6.08,6.08,0,0,0-.25,1.95.19.19,0,0,0,.21.21Z"/><path class="cls-1" d="M30,62.48a.34.34,0,0,1-.36-.36V52c0-2.77-1.26-4.39-3.85-4.39a3.87,3.87,0,0,0-4,4.21V62.12a.35.35,0,0,1-.36.36h-2.3a.34.34,0,0,1-.36-.36V45.59a.34.34,0,0,1,.36-.36h2.3a.35.35,0,0,1,.36.36v1.59h0a5.47,5.47,0,0,1,4.83-2.34c3.74,0,6,2.55,6,6.48v10.8a.34.34,0,0,1-.36.36Z"/><path class="cls-1" d="M37.12,49.48a6.68,6.68,0,0,1,6.8-4.64,6.92,6.92,0,0,1,5.9,2.91c.11.18.11.33-.11.51l-1.58,1.29a.31.31,0,0,1-.5,0,4.24,4.24,0,0,0-3.71-1.87,3.74,3.74,0,0,0-3.85,2.7,11.4,11.4,0,0,0-.4,3.49,11.52,11.52,0,0,0,.4,3.53,3.73,3.73,0,0,0,3.85,2.69,4.24,4.24,0,0,0,3.71-1.87.31.31,0,0,1,.5,0l1.58,1.29c.22.18.22.33.11.51a6.9,6.9,0,0,1-5.9,2.91c-3.31,0-5.83-1.65-6.8-4.64a14.68,14.68,0,0,1-.54-4.39A14.65,14.65,0,0,1,37.12,49.48Z"/><path class="cls-1" d="M53,58.19a13.48,13.48,0,0,1-.57-4.35A13.16,13.16,0,0,1,53,49.48a6.67,6.67,0,0,1,6.76-4.64,6.68,6.68,0,0,1,6.77,4.64A15.08,15.08,0,0,1,67,54.41c0,.22-.14.36-.4.36H55.73a.2.2,0,0,0-.22.22,6.47,6.47,0,0,0,.29,2.09,4.25,4.25,0,0,0,4.35,3,5.61,5.61,0,0,0,4.43-1.9c.18-.18.36-.22.54-.07l1.48,1.33a.31.31,0,0,1,0,.5,8.35,8.35,0,0,1-6.73,2.95C56.41,62.87,53.93,61.18,53,58.19Zm10.73-5.83a.19.19,0,0,0,.21-.21,6.08,6.08,0,0,0-.25-1.95,4.25,4.25,0,0,0-7.92,0,6.08,6.08,0,0,0-.25,1.95c0,.14.07.21.22.21Z"/><path class="cls-1" d="M71.53,62.48a.34.34,0,0,1-.36-.36V45.59a.34.34,0,0,1,.36-.36h2.3a.34.34,0,0,1,.36.36v1.77h0a4.8,4.8,0,0,1,4.57-2.52,5.3,5.3,0,0,1,3.53,1.29c.18.18.21.33.07.51L81.07,48.4a.32.32,0,0,1-.5.07,4.92,4.92,0,0,0-2.67-.82c-2.63,0-3.71,2.05-3.71,5v9.43a.34.34,0,0,1-.36.36Z"/><path class="cls-1" d="M85.57,62.48a.34.34,0,0,1-.36-.36V45.59a.34.34,0,0,1,.36-.36h2.3a.34.34,0,0,1,.36.36v1.77h0a4.8,4.8,0,0,1,4.57-2.52,5.32,5.32,0,0,1,3.53,1.29c.18.18.21.33.07.51L95.11,48.4a.33.33,0,0,1-.51.07,4.86,4.86,0,0,0-2.66-.82c-2.63,0-3.71,2.05-3.71,5v9.43a.34.34,0,0,1-.36.36Z"/><path class="cls-1" d="M108.82,62.48a.35.35,0,0,1-.36-.36V60.6h0c-.79,1.3-2.49,2.27-5.11,2.27-3.28,0-5.8-1.69-5.8-5.18s2.52-5.33,6.73-5.33h3.93a.19.19,0,0,0,.21-.21V50.89c0-2.38-.93-3.39-4.14-3.39a6.7,6.7,0,0,0-4.17,1.23.33.33,0,0,1-.51,0L98.6,47a.38.38,0,0,1,.07-.5,9.58,9.58,0,0,1,5.87-1.69c4.9,0,6.77,1.62,6.77,5.87V62.12a.35.35,0,0,1-.36.36Zm-.43-5.58V55a.19.19,0,0,0-.21-.22h-3.46c-3,0-4.28.87-4.28,2.81,0,1.77,1.29,2.7,3.6,2.7C106.74,60.28,108.39,59,108.39,56.9Z"/><path class="cls-1" d="M127.15,62.48a.34.34,0,0,1-.36-.36V60.46h0c-.83,1.37-2.3,2.41-4.89,2.41-3,0-5.08-1.4-5.94-4.14a14.25,14.25,0,0,1-.61-4.89,14.2,14.2,0,0,1,.61-4.86c.86-2.74,3-4.14,5.94-4.14,2.59,0,4.06,1,4.89,2.37h0V38.36a.34.34,0,0,1,.36-.36h2.3a.34.34,0,0,1,.36.36V62.12a.34.34,0,0,1-.36.36Zm-.76-5a11,11,0,0,0,.4-3.6,11.12,11.12,0,0,0-.4-3.6,4.08,4.08,0,0,0-7.59,0,12.15,12.15,0,0,0-.4,3.6,11.89,11.89,0,0,0,.4,3.6,4.06,4.06,0,0,0,7.59,0Z"/><path class="cls-1" d="M134.53,58.23a12.85,12.85,0,0,1-.58-4.39,12.78,12.78,0,0,1,.58-4.36c.94-2.95,3.46-4.64,6.8-4.64s5.87,1.69,6.81,4.64a13.07,13.07,0,0,1,.57,4.36,13.14,13.14,0,0,1-.57,4.39,7.31,7.31,0,0,1-13.61,0Zm10.69-.86a11.27,11.27,0,0,0,.4-3.53,10.91,10.91,0,0,0-.4-3.49,4.15,4.15,0,0,0-7.77,0,10.91,10.91,0,0,0-.4,3.49,11.27,11.27,0,0,0,.4,3.53,4.15,4.15,0,0,0,7.77,0Z"/><path class="cls-1" d="M151.67,60.28a.33.33,0,0,1,0-.5l1.47-1.59a.36.36,0,0,1,.51,0,8.32,8.32,0,0,0,5.32,2c2.52,0,3.78-1.08,3.78-2.62,0-1.37-.65-2.13-3.35-2.42L157.57,55c-3.38-.36-5.15-2.05-5.15-4.86,0-3.27,2.34-5.25,6.41-5.25A10.32,10.32,0,0,1,165,46.75a.34.34,0,0,1,.07.5L163.8,48.8a.36.36,0,0,1-.51.07,9.06,9.06,0,0,0-4.64-1.4c-2.16,0-3.28,1-3.28,2.37s.83,2.09,3.39,2.34l1.8.18c3.49.33,5.18,2.09,5.18,4.86,0,3.38-2.45,5.65-7,5.65A10.7,10.7,0,0,1,151.67,60.28Z"/><path class="cls-1" d="M177.22,58.23a13.14,13.14,0,0,1-.57-4.39,13.07,13.07,0,0,1,.57-4.36c.94-2.95,3.46-4.64,6.81-4.64s5.87,1.69,6.8,4.64a12.78,12.78,0,0,1,.58,4.36,12.85,12.85,0,0,1-.58,4.39c-.93,2.92-3.45,4.64-6.8,4.64A6.71,6.71,0,0,1,177.22,58.23Zm10.7-.86a11.63,11.63,0,0,0,.39-3.53,11.26,11.26,0,0,0-.39-3.49,4.15,4.15,0,0,0-7.78,0,10.91,10.91,0,0,0-.4,3.49,11.27,11.27,0,0,0,.4,3.53,4.16,4.16,0,0,0,7.78,0Z"/><path class="cls-1" d="M213.91,62.48a.34.34,0,0,1-.36-.36V60.6h0c-.79,1.3-2.48,2.27-5.11,2.27-3.28,0-5.8-1.69-5.8-5.18s2.52-5.33,6.73-5.33h3.93a.19.19,0,0,0,.21-.21V50.89c0-2.38-.93-3.39-4.14-3.39a6.7,6.7,0,0,0-4.17,1.23c-.18.14-.4.14-.5,0l-1-1.66a.38.38,0,0,1,.08-.5,9.53,9.53,0,0,1,5.86-1.69c4.9,0,6.77,1.62,6.77,5.87V62.12a.34.34,0,0,1-.36.36Zm-.44-5.58V55a.19.19,0,0,0-.21-.22H209.8c-3,0-4.28.87-4.28,2.81,0,1.77,1.3,2.7,3.6,2.7C211.82,60.28,213.47,59,213.47,56.9Z"/><path class="cls-1" d="M229.71,69a.35.35,0,0,1-.36-.36v-23a.35.35,0,0,1,.36-.36H232a.35.35,0,0,1,.36.36v1.62h0c.83-1.36,2.3-2.37,4.9-2.37A5.71,5.71,0,0,1,243.25,49a14.45,14.45,0,0,1,.61,4.86,14.5,14.5,0,0,1-.61,4.89,5.71,5.71,0,0,1-5.94,4.14c-2.6,0-4.07-1-4.9-2.41h0V68.6A.35.35,0,0,1,232,69Zm10.66-11.52a12.28,12.28,0,0,0,.39-3.6,12.54,12.54,0,0,0-.39-3.6,4.08,4.08,0,0,0-7.6,0,11.18,11.18,0,0,0-.39,3.6,11.06,11.06,0,0,0,.39,3.6,4.07,4.07,0,0,0,7.6,0Z"/><path class="cls-1" d="M248.36,62.48a.34.34,0,0,1-.36-.36V45.59a.34.34,0,0,1,.36-.36h2.3a.34.34,0,0,1,.36.36v1.77h0a4.79,4.79,0,0,1,4.57-2.52,5.32,5.32,0,0,1,3.53,1.29c.18.18.21.33.07.51L257.9,48.4a.33.33,0,0,1-.51.07,4.86,4.86,0,0,0-2.66-.82c-2.63,0-3.71,2.05-3.71,5v9.43a.34.34,0,0,1-.36.36Z"/><path class="cls-1" d="M260.92,58.23a13.14,13.14,0,0,1-.57-4.39,13.07,13.07,0,0,1,.57-4.36c.94-2.95,3.46-4.64,6.81-4.64s5.86,1.69,6.8,4.64a12.78,12.78,0,0,1,.58,4.36,12.85,12.85,0,0,1-.58,4.39,7.31,7.31,0,0,1-13.61,0Zm10.69-.86a11.27,11.27,0,0,0,.4-3.53,10.91,10.91,0,0,0-.4-3.49,4.15,4.15,0,0,0-7.77,0,10.91,10.91,0,0,0-.4,3.49,11.27,11.27,0,0,0,.4,3.53,4.15,4.15,0,0,0,7.77,0Z"/><path class="cls-1" d="M280.18,62.48a.35.35,0,0,1-.36-.36V47.9c0-.15-.07-.22-.21-.22h-1.48a.34.34,0,0,1-.36-.36V45.59a.35.35,0,0,1,.36-.36h1.48a.19.19,0,0,0,.21-.21V43.54c0-4.06,1.66-5.54,5.26-5.54h1.33a.34.34,0,0,1,.36.36v2.09a.34.34,0,0,1-.36.36h-.94c-2.19,0-2.62.47-2.62,2.59V45a.19.19,0,0,0,.21.21h3.35a.34.34,0,0,1,.36.36v1.73a.34.34,0,0,1-.36.36h-3.35c-.14,0-.21.07-.21.22V62.12a.35.35,0,0,1-.36.36Z"/><path class="cls-1" d="M300.81,62.48a.34.34,0,0,1-.36-.36V60.5h0a5.25,5.25,0,0,1-4.71,2.37c-3.78,0-6-2.59-6-6.51V45.59a.35.35,0,0,1,.36-.36h2.31a.35.35,0,0,1,.36.36v10c0,2.81,1.26,4.42,3.81,4.42,2.34,0,3.89-1.65,3.89-4.24V45.59a.34.34,0,0,1,.36-.36h2.3a.34.34,0,0,1,.36.36V62.12a.34.34,0,0,1-.36.36Z"/><path class="cls-1" d="M319.85,62.48a.35.35,0,0,1-.36-.36V52c0-2.77-1.26-4.39-3.85-4.39a3.87,3.87,0,0,0-4,4.21V62.12a.34.34,0,0,1-.36.36H309a.34.34,0,0,1-.36-.36V45.59a.34.34,0,0,1,.36-.36h2.3a.34.34,0,0,1,.36.36v1.59h0a5.45,5.45,0,0,1,4.82-2.34c3.75,0,6,2.55,6,6.48v10.8a.35.35,0,0,1-.36.36Z"/><path class="cls-1" d="M338.32,62.48a.34.34,0,0,1-.36-.36V60.46h0c-.82,1.37-2.3,2.41-4.89,2.41-3,0-5.08-1.4-5.94-4.14a14.25,14.25,0,0,1-.61-4.89,14.2,14.2,0,0,1,.61-4.86c.86-2.74,3-4.14,5.94-4.14,2.59,0,4.07,1,4.89,2.37h0V38.36a.34.34,0,0,1,.36-.36h2.3a.34.34,0,0,1,.36.36V62.12a.34.34,0,0,1-.36.36Zm-.76-5a11,11,0,0,0,.4-3.6,11.12,11.12,0,0,0-.4-3.6,4.08,4.08,0,0,0-7.59,0,12.15,12.15,0,0,0-.4,3.6,11.89,11.89,0,0,0,.4,3.6,4.06,4.06,0,0,0,7.59,0Z"/><path class="cls-1" d="M346.46,41.35a.34.34,0,0,1-.36-.36V38.36a.34.34,0,0,1,.36-.36h2.45a.34.34,0,0,1,.36.36V41a.35.35,0,0,1-.36.36Zm.07,21.13a.34.34,0,0,1-.36-.36V45.59a.34.34,0,0,1,.36-.36h2.3a.34.34,0,0,1,.36.36V62.12a.34.34,0,0,1-.36.36Z"/><path class="cls-1" d="M365.18,62.48a.34.34,0,0,1-.36-.36V60.46h0c-.83,1.37-2.3,2.41-4.9,2.41-3,0-5.07-1.4-5.93-4.14a14.22,14.22,0,0,1-.62-4.89A14.17,14.17,0,0,1,354,49c.86-2.74,2.95-4.14,5.93-4.14,2.6,0,4.07,1,4.9,2.37h0V38.36a.34.34,0,0,1,.36-.36h2.3a.34.34,0,0,1,.36.36V62.12a.34.34,0,0,1-.36.36Zm-.76-5a11,11,0,0,0,.4-3.6,11.12,11.12,0,0,0-.4-3.6,4.08,4.08,0,0,0-7.59,0,12.15,12.15,0,0,0-.4,3.6,11.89,11.89,0,0,0,.4,3.6,4.06,4.06,0,0,0,7.59,0Z"/><path class="cls-1" d="M383.46,62.48a.35.35,0,0,1-.36-.36V60.6h0c-.79,1.3-2.49,2.27-5.11,2.27-3.28,0-5.8-1.69-5.8-5.18s2.52-5.33,6.73-5.33h3.93a.19.19,0,0,0,.21-.21V50.89c0-2.38-.93-3.39-4.14-3.39a6.7,6.7,0,0,0-4.17,1.23.33.33,0,0,1-.51,0l-1-1.66a.38.38,0,0,1,.07-.5,9.58,9.58,0,0,1,5.87-1.69c4.9,0,6.77,1.62,6.77,5.87V62.12a.35.35,0,0,1-.36.36ZM383,56.9V55a.19.19,0,0,0-.21-.22h-3.46c-3,0-4.28.87-4.28,2.81,0,1.77,1.29,2.7,3.6,2.7C381.38,60.28,383,59,383,56.9Z"/><path class="cls-1" d="M401.79,62.48a.34.34,0,0,1-.36-.36V60.46h0c-.83,1.37-2.3,2.41-4.89,2.41-3,0-5.08-1.4-5.94-4.14a14.25,14.25,0,0,1-.61-4.89,14.2,14.2,0,0,1,.61-4.86c.86-2.74,2.95-4.14,5.94-4.14,2.59,0,4.06,1,4.89,2.37h0V38.36a.34.34,0,0,1,.36-.36h2.3a.34.34,0,0,1,.36.36V62.12a.34.34,0,0,1-.36.36Zm-.76-5a11,11,0,0,0,.4-3.6,11.12,11.12,0,0,0-.4-3.6,4.08,4.08,0,0,0-7.59,0,12.15,12.15,0,0,0-.4,3.6,11.89,11.89,0,0,0,.4,3.6,4.06,4.06,0,0,0,7.59,0Z"/><path class="cls-1" d="M428.36,62.48a.34.34,0,0,1-.36-.36V60.46h0c-.83,1.37-2.3,2.41-4.9,2.41-3,0-5.07-1.4-5.93-4.14a14.22,14.22,0,0,1-.62-4.89,14.17,14.17,0,0,1,.62-4.86c.86-2.74,2.95-4.14,5.93-4.14,2.6,0,4.07,1,4.9,2.37h0V38.36a.34.34,0,0,1,.36-.36h2.3a.34.34,0,0,1,.36.36V62.12a.34.34,0,0,1-.36.36Zm-.76-5a11,11,0,0,0,.4-3.6,11.12,11.12,0,0,0-.4-3.6,4.08,4.08,0,0,0-7.6,0,12.54,12.54,0,0,0-.39,3.6,12.28,12.28,0,0,0,.39,3.6,4.07,4.07,0,0,0,7.6,0Z"/><path class="cls-1" d="M435.74,58.19a13.43,13.43,0,0,1-.58-4.35,13.43,13.43,0,0,1,.54-4.36,7.25,7.25,0,0,1,13.53,0,15.08,15.08,0,0,1,.54,4.93.35.35,0,0,1-.39.36H438.47a.19.19,0,0,0-.21.22,6.5,6.5,0,0,0,.28,2.09,4.27,4.27,0,0,0,4.36,3,5.64,5.64,0,0,0,4.43-1.9c.18-.18.36-.22.54-.07l1.47,1.33a.32.32,0,0,1,0,.5,8.38,8.38,0,0,1-6.73,2.95C439.16,62.87,436.67,61.18,435.74,58.19Zm10.72-5.83c.15,0,.22-.07.22-.21a6.08,6.08,0,0,0-.25-1.95,4.25,4.25,0,0,0-7.92,0,6.08,6.08,0,0,0-.25,1.95.19.19,0,0,0,.21.21Z"/><path class="cls-1" d="M454.28,62.48a.34.34,0,0,1-.36-.36V38.36a.34.34,0,0,1,.36-.36h2.3a.34.34,0,0,1,.36.36v8.85h0c.82-1.36,2.3-2.37,4.89-2.37,3,0,5.08,1.4,5.94,4.14a14.2,14.2,0,0,1,.61,4.86,14.25,14.25,0,0,1-.61,4.89c-.86,2.74-2.95,4.14-5.94,4.14-2.59,0-4.07-1-4.89-2.41h0v1.66a.34.34,0,0,1-.36.36Zm10.65-5a11.89,11.89,0,0,0,.4-3.6,12.15,12.15,0,0,0-.4-3.6,4.08,4.08,0,0,0-7.59,0,11.12,11.12,0,0,0-.4,3.6,11,11,0,0,0,.4,3.6,4.06,4.06,0,0,0,7.59,0Z"/><path class="cls-1" d="M472.1,58.19a13.43,13.43,0,0,1-.58-4.35,13.43,13.43,0,0,1,.54-4.36,7.25,7.25,0,0,1,13.53,0,15.08,15.08,0,0,1,.54,4.93.35.35,0,0,1-.39.36H474.83a.19.19,0,0,0-.21.22,6.5,6.5,0,0,0,.28,2.09,4.26,4.26,0,0,0,4.36,3,5.64,5.64,0,0,0,4.43-1.9c.18-.18.36-.22.54-.07l1.47,1.33a.32.32,0,0,1,0,.5A8.38,8.38,0,0,1,479,62.87C475.52,62.87,473,61.18,472.1,58.19Zm10.72-5.83c.15,0,.22-.07.22-.21a6.08,6.08,0,0,0-.25-1.95,4.25,4.25,0,0,0-7.92,0,6.08,6.08,0,0,0-.25,1.95.19.19,0,0,0,.21.21Z"/><path class="cls-1" d="M497.69,49.48a6.68,6.68,0,0,1,6.8-4.64,6.94,6.94,0,0,1,5.91,2.91c.11.18.11.33-.11.51l-1.58,1.29a.32.32,0,0,1-.51,0,4.24,4.24,0,0,0-3.71-1.87,3.74,3.74,0,0,0-3.85,2.7,11.44,11.44,0,0,0-.39,3.49,11.56,11.56,0,0,0,.39,3.53,3.74,3.74,0,0,0,3.85,2.69,4.24,4.24,0,0,0,3.71-1.87.32.32,0,0,1,.51,0l1.58,1.29c.22.18.22.33.11.51a6.92,6.92,0,0,1-5.91,2.91c-3.31,0-5.83-1.65-6.8-4.64a15,15,0,0,1-.54-4.39A15,15,0,0,1,497.69,49.48Z"/><path class="cls-1" d="M513.57,58.23a12.85,12.85,0,0,1-.58-4.39,12.78,12.78,0,0,1,.58-4.36c.93-2.95,3.45-4.64,6.8-4.64s5.87,1.69,6.8,4.64a12.78,12.78,0,0,1,.58,4.36,12.85,12.85,0,0,1-.58,4.39c-.93,2.92-3.45,4.64-6.8,4.64S514.5,61.15,513.57,58.23Zm10.69-.86a11.32,11.32,0,0,0,.39-3.53,11,11,0,0,0-.39-3.49,4.15,4.15,0,0,0-7.78,0,11,11,0,0,0-.39,3.49,11.32,11.32,0,0,0,.39,3.53,4.16,4.16,0,0,0,7.78,0Z"/><path class="cls-1" d="M543.08,62.48a.34.34,0,0,1-.35-.36V52c0-2.77-1.27-4.39-3.86-4.39a3.87,3.87,0,0,0-4,4.21V62.12a.34.34,0,0,1-.36.36h-2.3a.34.34,0,0,1-.36-.36V45.59a.34.34,0,0,1,.36-.36h2.3a.34.34,0,0,1,.36.36v1.59h0a5.45,5.45,0,0,1,4.82-2.34c3.75,0,6,2.55,6,6.48v10.8a.35.35,0,0,1-.36.36Z"/><path class="cls-1" d="M555.76,62.66c-3.35,0-4.65-1.51-4.65-4.9V47.9c0-.15-.07-.22-.21-.22h-1.44a.34.34,0,0,1-.36-.36V45.59a.34.34,0,0,1,.36-.36h1.44a.19.19,0,0,0,.21-.21V40.16a.34.34,0,0,1,.36-.36h2.31a.34.34,0,0,1,.36.36V45a.19.19,0,0,0,.21.21h2.74a.34.34,0,0,1,.36.36v1.73a.34.34,0,0,1-.36.36h-2.74c-.14,0-.21.07-.21.22v9.75c0,1.73.65,2.2,2.19,2.2h.76a.34.34,0,0,1,.36.36V62.3a.34.34,0,0,1-.36.36Z"/><path class="cls-1" d="M571.85,62.48a.34.34,0,0,1-.36-.36V60.6h0c-.79,1.3-2.48,2.27-5.11,2.27-3.27,0-5.79-1.69-5.79-5.18s2.52-5.33,6.73-5.33h3.92a.19.19,0,0,0,.22-.21V50.89c0-2.38-.94-3.39-4.14-3.39a6.71,6.71,0,0,0-4.18,1.23.32.32,0,0,1-.5,0l-1-1.66a.37.37,0,0,1,.07-.5,9.54,9.54,0,0,1,5.87-1.69c4.89,0,6.76,1.62,6.76,5.87V62.12a.34.34,0,0,1-.36.36Zm-.43-5.58V55a.2.2,0,0,0-.22-.22h-3.45c-3,0-4.29.87-4.29,2.81,0,1.77,1.3,2.7,3.6,2.7C569.76,60.28,571.42,59,571.42,56.9Z"/><path class="cls-1" d="M579.73,62.48a.35.35,0,0,1-.36-.36V45.59a.35.35,0,0,1,.36-.36H582a.35.35,0,0,1,.36.36v1.77h0A4.8,4.8,0,0,1,587,44.84a5.3,5.3,0,0,1,3.53,1.29c.18.18.22.33.07.51l-1.33,1.76a.32.32,0,0,1-.5.07,4.89,4.89,0,0,0-2.67-.82c-2.62,0-3.7,2.05-3.7,5v9.43a.35.35,0,0,1-.36.36Z"/><path class="cls-1" d="M600.83,49.48a6.68,6.68,0,0,1,6.8-4.64,6.94,6.94,0,0,1,5.91,2.91.35.35,0,0,1-.11.51l-1.59,1.29a.31.31,0,0,1-.5,0,4.24,4.24,0,0,0-3.71-1.87,3.74,3.74,0,0,0-3.85,2.7,11.4,11.4,0,0,0-.4,3.49,11.52,11.52,0,0,0,.4,3.53,3.74,3.74,0,0,0,3.85,2.69,4.24,4.24,0,0,0,3.71-1.87.31.31,0,0,1,.5,0l1.59,1.29a.35.35,0,0,1,.11.51,6.92,6.92,0,0,1-5.91,2.91c-3.31,0-5.83-1.65-6.8-4.64a14.68,14.68,0,0,1-.54-4.39A14.65,14.65,0,0,1,600.83,49.48Z"/><path class="cls-1" d="M616.7,58.23a13.14,13.14,0,0,1-.57-4.39,13.07,13.07,0,0,1,.57-4.36c.94-2.95,3.46-4.64,6.81-4.64s5.87,1.69,6.8,4.64a12.78,12.78,0,0,1,.58,4.36,12.85,12.85,0,0,1-.58,4.39c-.93,2.92-3.45,4.64-6.8,4.64A6.71,6.71,0,0,1,616.7,58.23Zm10.7-.86a11.63,11.63,0,0,0,.39-3.53,11.26,11.26,0,0,0-.39-3.49,4.15,4.15,0,0,0-7.78,0,10.91,10.91,0,0,0-.4,3.49,11.27,11.27,0,0,0,.4,3.53,4.16,4.16,0,0,0,7.78,0Z"/><path class="cls-1" d="M646.22,62.48a.35.35,0,0,1-.36-.36V52c0-2.77-1.26-4.39-3.85-4.39a3.87,3.87,0,0,0-4,4.21V62.12a.34.34,0,0,1-.36.36h-2.3a.34.34,0,0,1-.36-.36V45.59a.34.34,0,0,1,.36-.36h2.3a.34.34,0,0,1,.36.36v1.59h0a5.45,5.45,0,0,1,4.82-2.34c3.74,0,6,2.55,6,6.48v10.8a.35.35,0,0,1-.36.36Z"/><path class="cls-1" d="M666,62.66c-3,0-4.21-1.44-4.21-4.54V38.36a.34.34,0,0,1,.36-.36h2.3a.34.34,0,0,1,.36.36V57.94c0,1.44.54,1.91,1.73,1.91h.68a.34.34,0,0,1,.37.36V62.3a.35.35,0,0,1-.37.36Z"/><path class="cls-1" d="M670.6,58.23a12.85,12.85,0,0,1-.58-4.39,12.78,12.78,0,0,1,.58-4.36c.93-2.95,3.45-4.64,6.8-4.64s5.87,1.69,6.8,4.64a12.78,12.78,0,0,1,.58,4.36,12.85,12.85,0,0,1-.58,4.39c-.93,2.92-3.45,4.64-6.8,4.64S671.53,61.15,670.6,58.23Zm10.69-.86a11.63,11.63,0,0,0,.39-3.53,11.26,11.26,0,0,0-.39-3.49,4.15,4.15,0,0,0-7.78,0,11,11,0,0,0-.39,3.49,11.32,11.32,0,0,0,.39,3.53,4.16,4.16,0,0,0,7.78,0Z"/><path class="cls-1" d="M687.73,60.28a.35.35,0,0,1,0-.5l1.48-1.59a.35.35,0,0,1,.5,0,8.37,8.37,0,0,0,5.33,2c2.52,0,3.78-1.08,3.78-2.62,0-1.37-.65-2.13-3.35-2.42L693.63,55c-3.38-.36-5.14-2.05-5.14-4.86,0-3.27,2.34-5.25,6.4-5.25A10.32,10.32,0,0,1,701,46.75a.35.35,0,0,1,.08.5l-1.23,1.55a.35.35,0,0,1-.5.07,9.09,9.09,0,0,0-4.65-1.4c-2.16,0-3.27,1-3.27,2.37s.83,2.09,3.38,2.34l1.8.18c3.49.33,5.19,2.09,5.19,4.86,0,3.38-2.45,5.65-6.95,5.65A10.73,10.73,0,0,1,687.73,60.28Z"/><path class="cls-1" d="M37.58,76.36a.34.34,0,0,1,.36-.36H52.67a.34.34,0,0,1,.36.36v2.27a.35.35,0,0,1-.36.36H41a.19.19,0,0,0-.21.21v7.2c0,.15.07.22.21.22h9.9a.34.34,0,0,1,.36.36v2.27a.34.34,0,0,1-.36.36H41a.19.19,0,0,0-.21.21v7.45c0,.15.07.22.21.22H52.67a.34.34,0,0,1,.36.36v2.27a.35.35,0,0,1-.36.36H37.94a.35.35,0,0,1-.36-.36Z"/><path class="cls-1" d="M57.49,100.48a.35.35,0,0,1-.36-.36V76.36a.34.34,0,0,1,.36-.36H66.2C70.92,76,74,78.88,74,83.31s-3.06,7.3-7.78,7.3H60.55a.2.2,0,0,0-.22.22v9.29a.34.34,0,0,1-.36.36ZM70.81,83.31C70.81,80.64,69.05,79,66,79H60.55a.19.19,0,0,0-.22.21v8.21a.2.2,0,0,0,.22.22H66C69.05,87.63,70.81,86,70.81,83.31Z"/><path class="cls-1" d="M78.08,100.48a.35.35,0,0,1-.36-.36V76.36a.34.34,0,0,1,.36-.36h8.71c4.72,0,7.78,2.88,7.78,7.31s-3.06,7.3-7.78,7.3H81.14a.19.19,0,0,0-.21.22v9.29a.35.35,0,0,1-.36.36ZM91.4,83.31c0-2.67-1.76-4.32-4.79-4.32H81.14a.19.19,0,0,0-.21.21v8.21a.19.19,0,0,0,.21.22h5.47C89.64,87.63,91.4,86,91.4,83.31Z"/><path class="cls-1" d="M100.15,80.43c-.22,0-.32-.15-.22-.36l2.74-4.43a.63.63,0,0,1,.61-.36h2.38a.21.21,0,0,1,.18.36l-3.31,4.43a.71.71,0,0,1-.69.36Z"/><path class="cls-1" d="M111.49,98.28a.35.35,0,0,1,0-.5L113,96.19a.35.35,0,0,1,.5,0,8.37,8.37,0,0,0,5.33,2c2.52,0,3.78-1.08,3.78-2.62,0-1.37-.65-2.13-3.35-2.42L117.39,93c-3.38-.36-5.14-2-5.14-4.86,0-3.27,2.34-5.25,6.4-5.25a10.32,10.32,0,0,1,6.12,1.91.34.34,0,0,1,.07.5l-1.22,1.55a.35.35,0,0,1-.5.07,9.09,9.09,0,0,0-4.65-1.4c-2.16,0-3.27,1-3.27,2.37s.83,2.09,3.38,2.34l1.8.18c3.49.33,5.18,2.09,5.18,4.86,0,3.38-2.44,5.65-6.94,5.65A10.73,10.73,0,0,1,111.49,98.28Z"/><path class="cls-1" d="M143.92,76.36c.08-.22.18-.36.44-.36h2.34a.45.45,0,0,1,.46.36l8.39,23.76c.07.21,0,.36-.25.36h-2.52a.44.44,0,0,1-.47-.36l-1.87-5.33h-9.9l-1.87,5.33c-.11.25-.25.36-.47.36h-2.52a.25.25,0,0,1-.25-.36Zm5.48,15.48-3.86-11.12h-.07l-3.89,11.12Z"/><path class="cls-1" d="M159,107a.34.34,0,0,1-.36-.36v-23a.34.34,0,0,1,.36-.36h2.3a.34.34,0,0,1,.36.36v1.62h0c.83-1.36,2.3-2.37,4.89-2.37,3,0,5.08,1.4,5.94,4.14a14.17,14.17,0,0,1,.62,4.86,14.22,14.22,0,0,1-.62,4.89c-.86,2.74-2.95,4.14-5.94,4.14-2.59,0-4.06-1-4.89-2.41h0v8.14a.34.34,0,0,1-.36.36Zm10.65-11.52a11.89,11.89,0,0,0,.4-3.6,12.15,12.15,0,0,0-.4-3.6,4.08,4.08,0,0,0-7.59,0,11.12,11.12,0,0,0-.4,3.6,11,11,0,0,0,.4,3.6,4.06,4.06,0,0,0,7.59,0Z"/><path class="cls-1" d="M177.66,100.48a.34.34,0,0,1-.36-.36V83.59a.34.34,0,0,1,.36-.36H180a.34.34,0,0,1,.36.36v1.77h0a4.79,4.79,0,0,1,4.57-2.52,5.32,5.32,0,0,1,3.53,1.29c.18.18.21.33.07.51L187.2,86.4a.33.33,0,0,1-.51.07,4.86,4.86,0,0,0-2.66-.82c-2.63,0-3.71,2-3.71,5v9.43a.34.34,0,0,1-.36.36Z"/><path class="cls-1" d="M190.22,96.23a13.14,13.14,0,0,1-.57-4.39,13.07,13.07,0,0,1,.57-4.36c.94-3,3.46-4.64,6.8-4.64s5.87,1.69,6.81,4.64a13.07,13.07,0,0,1,.57,4.36,13.14,13.14,0,0,1-.57,4.39,7.31,7.31,0,0,1-13.61,0Zm10.69-.86a11.27,11.27,0,0,0,.4-3.53,10.91,10.91,0,0,0-.4-3.49,4.15,4.15,0,0,0-7.77,0,10.91,10.91,0,0,0-.4,3.49,11.27,11.27,0,0,0,.4,3.53,4.15,4.15,0,0,0,7.77,0Z"/><path class="cls-1" d="M208.9,107a.35.35,0,0,1-.36-.36v-23a.35.35,0,0,1,.36-.36h2.31a.35.35,0,0,1,.36.36v1.62h0c.83-1.36,2.31-2.37,4.9-2.37,3,0,5.08,1.4,5.94,4.14a14.2,14.2,0,0,1,.61,4.86,14.25,14.25,0,0,1-.61,4.89c-.86,2.74-2.95,4.14-5.94,4.14-2.59,0-4.07-1-4.9-2.41h0v8.14a.35.35,0,0,1-.36.36Zm10.66-11.52a11.89,11.89,0,0,0,.4-3.6,12.15,12.15,0,0,0-.4-3.6,4.08,4.08,0,0,0-7.6,0,11.47,11.47,0,0,0-.39,3.6,11.35,11.35,0,0,0,.39,3.6,4.07,4.07,0,0,0,7.6,0Z"/><path class="cls-1" d="M227.48,79.35a.34.34,0,0,1-.36-.36V76.36a.34.34,0,0,1,.36-.36h2.45a.34.34,0,0,1,.36.36V79a.35.35,0,0,1-.36.36Zm.07,21.13a.35.35,0,0,1-.36-.36V83.59a.35.35,0,0,1,.36-.36h2.31a.35.35,0,0,1,.36.36v16.53a.35.35,0,0,1-.36.36Z"/><path class="cls-1" d="M245.84,100.48a.34.34,0,0,1-.36-.36V98.6h0c-.79,1.3-2.48,2.27-5.11,2.27-3.27,0-5.79-1.69-5.79-5.18s2.52-5.33,6.73-5.33h3.92a.19.19,0,0,0,.22-.21V88.89c0-2.38-.94-3.39-4.14-3.39a6.71,6.71,0,0,0-4.18,1.23.32.32,0,0,1-.5,0l-1-1.66a.37.37,0,0,1,.07-.5,9.54,9.54,0,0,1,5.87-1.69c4.89,0,6.76,1.62,6.76,5.87v11.41a.34.34,0,0,1-.36.36Zm-.43-5.58V93a.2.2,0,0,0-.22-.22h-3.45c-3,0-4.29.87-4.29,2.81,0,1.77,1.3,2.7,3.6,2.7C243.75,98.28,245.41,97,245.41,94.9Z"/><path class="cls-1" d="M264.16,100.48a.35.35,0,0,1-.36-.36V98.46h0c-.83,1.37-2.31,2.41-4.9,2.41-3,0-5.07-1.4-5.94-4.14a14.25,14.25,0,0,1-.61-4.89,14.2,14.2,0,0,1,.61-4.86c.87-2.74,2.95-4.14,5.94-4.14,2.59,0,4.07,1,4.9,2.37h0V76.36a.34.34,0,0,1,.36-.36h2.31a.34.34,0,0,1,.36.36v23.76a.35.35,0,0,1-.36.36Zm-.75-5a11.35,11.35,0,0,0,.39-3.6,11.47,11.47,0,0,0-.39-3.6,4.08,4.08,0,0,0-7.6,0,12.2,12.2,0,0,0-.39,3.6,11.94,11.94,0,0,0,.39,3.6,4.07,4.07,0,0,0,7.6,0Z"/><path class="cls-1" d="M271.54,96.23a13.14,13.14,0,0,1-.57-4.39,13.07,13.07,0,0,1,.57-4.36c.94-3,3.46-4.64,6.81-4.64s5.86,1.69,6.8,4.64a12.78,12.78,0,0,1,.58,4.36,12.85,12.85,0,0,1-.58,4.39,7.31,7.31,0,0,1-13.61,0Zm10.69-.86a11.27,11.27,0,0,0,.4-3.53,10.91,10.91,0,0,0-.4-3.49,4.15,4.15,0,0,0-7.77,0,10.91,10.91,0,0,0-.4,3.49,11.27,11.27,0,0,0,.4,3.53,4.15,4.15,0,0,0,7.77,0Z"/><path class="cls-1" d="M288.68,98.28a.35.35,0,0,1,0-.5l1.48-1.59a.35.35,0,0,1,.5,0,8.37,8.37,0,0,0,5.33,2c2.52,0,3.78-1.08,3.78-2.62,0-1.37-.65-2.13-3.35-2.42L294.58,93c-3.38-.36-5.14-2-5.14-4.86,0-3.27,2.34-5.25,6.4-5.25A10.32,10.32,0,0,1,302,84.75a.34.34,0,0,1,.07.5l-1.22,1.55a.35.35,0,0,1-.5.07,9.09,9.09,0,0,0-4.65-1.4c-2.16,0-3.27,1-3.27,2.37s.82,2.09,3.38,2.34l1.8.18c3.49.33,5.18,2.09,5.18,4.86,0,3.38-2.44,5.65-6.94,5.65A10.73,10.73,0,0,1,288.68,98.28Z"/><path class="cls-1" d="M306.71,96.66h2.52a.34.34,0,0,1,.36.36v3.35a1.14,1.14,0,0,1-.21.79l-2.23,3a.58.58,0,0,1-.47.25.32.32,0,0,1-.32-.32V97A.34.34,0,0,1,306.71,96.66Z"/><path class="cls-1" d="M332.71,100.48a.34.34,0,0,1-.36-.36V90c0-2.77-1.26-4.39-3.86-4.39a3.87,3.87,0,0,0-4,4.21v10.26a.34.34,0,0,1-.36.36h-2.3a.34.34,0,0,1-.36-.36V76.36a.34.34,0,0,1,.36-.36h2.3a.34.34,0,0,1,.36.36v8.82h0a5.45,5.45,0,0,1,4.82-2.34c3.75,0,6,2.55,6,6.48v10.8a.34.34,0,0,1-.36.36Z"/><path class="cls-1" d="M350.81,100.48a.35.35,0,0,1-.36-.36V98.6h0c-.79,1.3-2.49,2.27-5.11,2.27-3.28,0-5.8-1.69-5.8-5.18s2.52-5.33,6.73-5.33h3.93a.19.19,0,0,0,.21-.21V88.89c0-2.38-.93-3.39-4.14-3.39a6.68,6.68,0,0,0-4.17,1.23.33.33,0,0,1-.51,0l-1-1.66a.38.38,0,0,1,.07-.5,9.56,9.56,0,0,1,5.87-1.69c4.89,0,6.77,1.62,6.77,5.87v11.41a.35.35,0,0,1-.36.36Zm-.43-5.58V93a.19.19,0,0,0-.21-.22h-3.46c-3,0-4.28.87-4.28,2.81,0,1.77,1.29,2.7,3.6,2.7C348.73,98.28,350.38,97,350.38,94.9Z"/><path class="cls-1" d="M358,104.8a.33.33,0,0,1,0-.51l1.48-1.47a.34.34,0,0,1,.54,0,5.75,5.75,0,0,0,4.07,1.72c2.84,0,4.35-1.47,4.35-4.64v-2h0c-.79,1.44-2.27,2.37-4.79,2.37a5.65,5.65,0,0,1-5.8-4.17,13.6,13.6,0,0,1-.57-4.54,13.6,13.6,0,0,1,.57-4.54,5.65,5.65,0,0,1,5.8-4.17c2.52,0,4,.93,4.79,2.37h0V83.59a.35.35,0,0,1,.36-.36h2.31a.35.35,0,0,1,.36.36V99.72c0,4.9-2.67,7.63-7.53,7.63A7.78,7.78,0,0,1,358,104.8Zm10.08-9.9a10.77,10.77,0,0,0,.39-3.35,10.89,10.89,0,0,0-.39-3.35,3.89,3.89,0,0,0-7.31,0,10.78,10.78,0,0,0-.43,3.35,10.65,10.65,0,0,0,.43,3.35,3.52,3.52,0,0,0,3.64,2.59A3.56,3.56,0,0,0,368.06,94.9Z"/><path class="cls-1" d="M387.1,100.48a.34.34,0,0,1-.36-.36V98.6h0c-.8,1.3-2.49,2.27-5.12,2.27-3.27,0-5.79-1.69-5.79-5.18s2.52-5.33,6.73-5.33h3.92c.15,0,.22-.07.22-.21V88.89c0-2.38-.94-3.39-4.14-3.39a6.73,6.73,0,0,0-4.18,1.23.32.32,0,0,1-.5,0l-1-1.66a.38.38,0,0,1,.07-.5,9.56,9.56,0,0,1,5.87-1.69c4.89,0,6.76,1.62,6.76,5.87v11.41a.34.34,0,0,1-.36.36Zm-.43-5.58V93a.2.2,0,0,0-.22-.22H383c-3,0-4.29.87-4.29,2.81,0,1.77,1.3,2.7,3.6,2.7C385,98.28,386.67,97,386.67,94.9Z"/><path class="cls-1" d="M406.68,100.66c-3,0-4.21-1.44-4.21-4.54V76.36a.34.34,0,0,1,.36-.36h2.31a.34.34,0,0,1,.36.36V95.94c0,1.44.54,1.91,1.72,1.91h.69a.34.34,0,0,1,.36.36v2.09a.34.34,0,0,1-.36.36Z"/><path class="cls-1" d="M422.24,100.48a.34.34,0,0,1-.36-.36V98.6h0c-.79,1.3-2.48,2.27-5.11,2.27-3.28,0-5.8-1.69-5.8-5.18s2.52-5.33,6.73-5.33h3.93a.19.19,0,0,0,.21-.21V88.89c0-2.38-.93-3.39-4.14-3.39a6.7,6.7,0,0,0-4.17,1.23.33.33,0,0,1-.51,0L412,85a.39.39,0,0,1,.07-.5A9.58,9.58,0,0,1,418,82.84c4.9,0,6.77,1.62,6.77,5.87v11.41a.34.34,0,0,1-.36.36Zm-.44-5.58V93a.19.19,0,0,0-.21-.22h-3.46c-3,0-4.28.87-4.28,2.81,0,1.77,1.29,2.7,3.6,2.7C420.15,98.28,421.8,97,421.8,94.9Z"/><path class="cls-1" d="M459.71,100.48a.34.34,0,0,1-.36-.36V90c0-2.77-1.26-4.39-3.85-4.39a3.88,3.88,0,0,0-4,4.21v10.26a.34.34,0,0,1-.36.36h-2.3a.34.34,0,0,1-.36-.36V90c0-2.77-1.26-4.39-3.86-4.39a3.87,3.87,0,0,0-4,4.21v10.26a.34.34,0,0,1-.36.36H438a.34.34,0,0,1-.36-.36V83.59a.34.34,0,0,1,.36-.36h2.3a.34.34,0,0,1,.36.36v1.59h0a6.09,6.09,0,0,1,9.86.36h0a6.41,6.41,0,0,1,5.58-2.7c4,0,6.15,2.55,6.15,6.48v10.8a.34.34,0,0,1-.36.36Z"/><path class="cls-1" d="M466.91,96.19a13.48,13.48,0,0,1-.57-4.35,13.43,13.43,0,0,1,.54-4.36,7.25,7.25,0,0,1,13.53,0,15.08,15.08,0,0,1,.54,4.93c0,.22-.14.36-.4.36h-10.9a.2.2,0,0,0-.22.22,6.47,6.47,0,0,0,.29,2.09,4.25,4.25,0,0,0,4.36,3,5.6,5.6,0,0,0,4.42-1.9c.18-.18.36-.22.54-.07l1.48,1.33a.31.31,0,0,1,0,.5,8.35,8.35,0,0,1-6.73,3C470.33,100.87,467.85,99.18,466.91,96.19Zm10.73-5.83a.19.19,0,0,0,.21-.21,6.08,6.08,0,0,0-.25-2,4.25,4.25,0,0,0-7.92,0,6.08,6.08,0,0,0-.25,2c0,.14.07.21.22.21Z"/><path class="cls-1" d="M495.89,100.48a.34.34,0,0,1-.36-.36V98.46h0c-.82,1.37-2.3,2.41-4.89,2.41-3,0-5.08-1.4-5.94-4.14a14.25,14.25,0,0,1-.61-4.89,14.2,14.2,0,0,1,.61-4.86c.86-2.74,2.95-4.14,5.94-4.14,2.59,0,4.07,1,4.89,2.37h0V76.36a.34.34,0,0,1,.36-.36h2.3a.34.34,0,0,1,.36.36v23.76a.34.34,0,0,1-.36.36Zm-.76-5a11,11,0,0,0,.4-3.6,11.12,11.12,0,0,0-.4-3.6,4.08,4.08,0,0,0-7.59,0,12.15,12.15,0,0,0-.4,3.6,11.89,11.89,0,0,0,.4,3.6,4.06,4.06,0,0,0,7.59,0Z"/><path class="cls-1" d="M504,79.35a.34.34,0,0,1-.36-.36V76.36A.34.34,0,0,1,504,76h2.45a.33.33,0,0,1,.35.36V79a.34.34,0,0,1-.35.36Zm.07,21.13a.34.34,0,0,1-.36-.36V83.59a.34.34,0,0,1,.36-.36h2.3a.34.34,0,0,1,.36.36v16.53a.34.34,0,0,1-.36.36Z"/><path class="cls-1" d="M511.44,87.48a6.69,6.69,0,0,1,6.81-4.64,6.94,6.94,0,0,1,5.9,2.91c.11.18.11.33-.11.51l-1.58,1.29a.32.32,0,0,1-.51,0,4.22,4.22,0,0,0-3.7-1.87,3.75,3.75,0,0,0-3.86,2.7,11.77,11.77,0,0,0-.39,3.49,11.89,11.89,0,0,0,.39,3.53,3.74,3.74,0,0,0,3.86,2.69,4.22,4.22,0,0,0,3.7-1.87.32.32,0,0,1,.51,0L524,97.45c.22.18.22.33.11.51a6.91,6.91,0,0,1-5.9,2.91c-3.32,0-5.83-1.65-6.81-4.64a18,18,0,0,1,0-8.75Z"/><path class="cls-1" d="M528.51,79.35a.34.34,0,0,1-.36-.36V76.36a.34.34,0,0,1,.36-.36H531a.34.34,0,0,1,.36.36V79a.34.34,0,0,1-.36.36Zm.07,21.13a.34.34,0,0,1-.36-.36V83.59a.34.34,0,0,1,.36-.36h2.3a.34.34,0,0,1,.36.36v16.53a.34.34,0,0,1-.36.36Z"/><path class="cls-1" d="M536,96.23a12.85,12.85,0,0,1-.58-4.39,12.78,12.78,0,0,1,.58-4.36c.93-3,3.45-4.64,6.8-4.64s5.87,1.69,6.8,4.64a12.78,12.78,0,0,1,.58,4.36,12.85,12.85,0,0,1-.58,4.39c-.93,2.92-3.45,4.64-6.8,4.64S536.89,99.15,536,96.23Zm10.69-.86a11.32,11.32,0,0,0,.39-3.53,11,11,0,0,0-.39-3.49,4.15,4.15,0,0,0-7.78,0,11.26,11.26,0,0,0-.39,3.49,11.63,11.63,0,0,0,.39,3.53,4.16,4.16,0,0,0,7.78,0Zm-5.18-14.94c-.22,0-.33-.15-.22-.36L544,75.64a.63.63,0,0,1,.61-.36H547c.22,0,.33.18.18.36l-3.31,4.43a.7.7,0,0,1-.68.36Z"/><path class="cls-1" d="M565.48,100.48a.34.34,0,0,1-.36-.36V90c0-2.77-1.26-4.39-3.86-4.39a3.86,3.86,0,0,0-4,4.21v10.26a.35.35,0,0,1-.36.36h-2.31a.35.35,0,0,1-.36-.36V83.59a.35.35,0,0,1,.36-.36H557a.35.35,0,0,1,.36.36v1.59h0a5.47,5.47,0,0,1,4.83-2.34c3.74,0,6,2.55,6,6.48v10.8a.34.34,0,0,1-.36.36Z"/><path class="cls-1" d="M591.86,100.48a.35.35,0,0,1-.36-.36V98.46h0c-.83,1.37-2.31,2.41-4.9,2.41-3,0-5.07-1.4-5.94-4.14a14.5,14.5,0,0,1-.61-4.89,14.45,14.45,0,0,1,.61-4.86c.87-2.74,3-4.14,5.94-4.14,2.59,0,4.07,1,4.9,2.37h0V76.36a.34.34,0,0,1,.36-.36h2.31a.34.34,0,0,1,.36.36v23.76a.35.35,0,0,1-.36.36Zm-.75-5a11.06,11.06,0,0,0,.39-3.6,11.18,11.18,0,0,0-.39-3.6,4.08,4.08,0,0,0-7.6,0,12.2,12.2,0,0,0-.39,3.6,11.94,11.94,0,0,0,.39,3.6,4.07,4.07,0,0,0,7.6,0Z"/><path class="cls-1" d="M599.25,96.19a13.16,13.16,0,0,1-.58-4.35,13.43,13.43,0,0,1,.54-4.36,7.25,7.25,0,0,1,13.53,0,15.08,15.08,0,0,1,.54,4.93.35.35,0,0,1-.39.36H602a.2.2,0,0,0-.22.22,6.47,6.47,0,0,0,.29,2.09,4.26,4.26,0,0,0,4.36,3,5.64,5.64,0,0,0,4.43-1.9c.18-.18.36-.22.54-.07l1.47,1.33a.32.32,0,0,1,0,.5,8.38,8.38,0,0,1-6.73,3C602.66,100.87,600.18,99.18,599.25,96.19ZM610,90.36c.15,0,.22-.07.22-.21a6.08,6.08,0,0,0-.25-2,4.25,4.25,0,0,0-7.92,0,6.05,6.05,0,0,0-.26,2,.19.19,0,0,0,.22.21Z"/><path class="cls-1" d="M629.48,100.66c-3,0-4.21-1.44-4.21-4.54V76.36a.34.34,0,0,1,.36-.36h2.31a.34.34,0,0,1,.36.36V95.94c0,1.44.54,1.91,1.72,1.91h.69a.34.34,0,0,1,.36.36v2.09a.35.35,0,0,1-.36.36Z"/><path class="cls-1" d="M634.13,96.23a12.85,12.85,0,0,1-.58-4.39,12.78,12.78,0,0,1,.58-4.36c.93-3,3.45-4.64,6.8-4.64s5.87,1.69,6.8,4.64a12.78,12.78,0,0,1,.58,4.36,12.85,12.85,0,0,1-.58,4.39c-.93,2.92-3.45,4.64-6.8,4.64S635.06,99.15,634.13,96.23Zm10.69-.86a11.32,11.32,0,0,0,.39-3.53,11,11,0,0,0-.39-3.49,4.15,4.15,0,0,0-7.78,0,11.26,11.26,0,0,0-.39,3.49,11.63,11.63,0,0,0,.39,3.53,4.16,4.16,0,0,0,7.78,0Z"/><path class="cls-1" d="M651.26,98.28a.35.35,0,0,1,0-.5l1.48-1.59a.35.35,0,0,1,.5,0,8.37,8.37,0,0,0,5.33,2c2.52,0,3.78-1.08,3.78-2.62,0-1.37-.65-2.13-3.35-2.42L657.17,93c-3.39-.36-5.15-2-5.15-4.86,0-3.27,2.34-5.25,6.41-5.25a10.32,10.32,0,0,1,6.12,1.91.34.34,0,0,1,.07.5l-1.23,1.55a.35.35,0,0,1-.5.07,9.09,9.09,0,0,0-4.64-1.4c-2.16,0-3.28,1-3.28,2.37s.83,2.09,3.38,2.34l1.8.18c3.5.33,5.19,2.09,5.19,4.86,0,3.38-2.45,5.65-7,5.65A10.75,10.75,0,0,1,651.26,98.28Z"/><path class="cls-1" d="M33.25,142.8a.33.33,0,0,1,0-.51l1.48-1.47a.34.34,0,0,1,.54,0,5.72,5.72,0,0,0,4.06,1.72c2.85,0,4.36-1.47,4.36-4.64v-2h0c-.79,1.44-2.26,2.37-4.78,2.37a5.65,5.65,0,0,1-5.8-4.17,18.37,18.37,0,0,1,0-9.08,5.65,5.65,0,0,1,5.8-4.17c2.52,0,4,.93,4.78,2.37h0v-1.62a.34.34,0,0,1,.36-.36h2.3a.34.34,0,0,1,.36.36v16.13c0,4.9-2.66,7.63-7.52,7.63A7.78,7.78,0,0,1,33.25,142.8Zm10.07-9.9a10.43,10.43,0,0,0,.4-3.35,10.55,10.55,0,0,0-.4-3.35,3.53,3.53,0,0,0-3.67-2.55A3.52,3.52,0,0,0,36,126.2a10.75,10.75,0,0,0-.44,3.35A10.62,10.62,0,0,0,36,132.9a3.51,3.51,0,0,0,3.63,2.59A3.56,3.56,0,0,0,43.32,132.9Z"/><path class="cls-1" d="M62.37,138.48a.34.34,0,0,1-.36-.36V136.6h0c-.79,1.3-2.48,2.27-5.11,2.27-3.28,0-5.8-1.69-5.8-5.18s2.52-5.33,6.74-5.33h3.92a.19.19,0,0,0,.22-.21v-1.26c0-2.38-.94-3.39-4.14-3.39a6.71,6.71,0,0,0-4.18,1.23c-.18.14-.4.14-.5,0l-1-1.66a.38.38,0,0,1,.08-.5,9.53,9.53,0,0,1,5.86-1.69c4.9,0,6.77,1.62,6.77,5.87v11.41a.34.34,0,0,1-.36.36Zm-.43-5.58V131a.2.2,0,0,0-.22-.22H58.26c-3,0-4.28.87-4.28,2.81,0,1.77,1.3,2.7,3.6,2.7C60.28,136.28,61.94,135,61.94,132.9Z"/><path class="cls-1" d="M68.71,136.28a.33.33,0,0,1,0-.5l1.47-1.59a.35.35,0,0,1,.5,0,8.37,8.37,0,0,0,5.33,2c2.52,0,3.78-1.08,3.78-2.62,0-1.37-.65-2.13-3.35-2.42L74.61,131c-3.39-.36-5.15-2-5.15-4.86,0-3.27,2.34-5.25,6.41-5.25A10.32,10.32,0,0,1,82,122.75a.34.34,0,0,1,.07.5l-1.22,1.55a.36.36,0,0,1-.51.07,9.06,9.06,0,0,0-4.64-1.4c-2.16,0-3.28,1-3.28,2.37s.83,2.09,3.39,2.34l1.8.18c3.49.33,5.18,2.09,5.18,4.86,0,3.38-2.45,5.65-7,5.65A10.7,10.7,0,0,1,68.71,136.28Z"/><path class="cls-1" d="M86.34,134.19a17.36,17.36,0,0,1,0-8.71,7.25,7.25,0,0,1,13.53,0,15.08,15.08,0,0,1,.54,4.93.35.35,0,0,1-.39.36H89.08a.2.2,0,0,0-.22.22,6.47,6.47,0,0,0,.29,2.09,4.26,4.26,0,0,0,4.36,3,5.64,5.64,0,0,0,4.43-1.9c.18-.18.35-.22.54-.07l1.47,1.33a.32.32,0,0,1,0,.5,8.38,8.38,0,0,1-6.73,3C89.76,138.87,87.28,137.18,86.34,134.19Zm10.73-5.83a.19.19,0,0,0,.22-.21,6.37,6.37,0,0,0-.25-2,4.25,4.25,0,0,0-7.92,0,6.05,6.05,0,0,0-.26,2,.19.19,0,0,0,.22.21Z"/><path class="cls-1" d="M103.34,136.28a.33.33,0,0,1,0-.5l1.47-1.59a.36.36,0,0,1,.51,0,8.34,8.34,0,0,0,5.32,2c2.52,0,3.78-1.08,3.78-2.62,0-1.37-.65-2.13-3.34-2.42l-1.84-.18c-3.38-.36-5.15-2-5.15-4.86,0-3.27,2.34-5.25,6.41-5.25a10.32,10.32,0,0,1,6.12,1.91.34.34,0,0,1,.07.5l-1.22,1.55a.36.36,0,0,1-.51.07,9.06,9.06,0,0,0-4.64-1.4c-2.16,0-3.28,1-3.28,2.37s.83,2.09,3.39,2.34l1.8.18c3.49.33,5.18,2.09,5.18,4.86,0,3.38-2.45,5.65-7,5.65A10.72,10.72,0,0,1,103.34,136.28Z"/><path class="cls-1" d="M129.72,145a.35.35,0,0,1-.36-.36v-23a.35.35,0,0,1,.36-.36H132a.35.35,0,0,1,.36.36v1.62h0c.83-1.36,2.31-2.37,4.9-2.37,3,0,5.07,1.4,5.94,4.14a14.2,14.2,0,0,1,.61,4.86,14.25,14.25,0,0,1-.61,4.89c-.87,2.74-2.95,4.14-5.94,4.14-2.59,0-4.07-1-4.9-2.41h0v8.14a.35.35,0,0,1-.36.36Zm10.66-11.52a11.94,11.94,0,0,0,.39-3.6,12.2,12.2,0,0,0-.39-3.6,4.08,4.08,0,0,0-7.6,0,11.47,11.47,0,0,0-.39,3.6,11.35,11.35,0,0,0,.39,3.6,4.07,4.07,0,0,0,7.6,0Z"/><path class="cls-1" d="M148.37,138.48a.35.35,0,0,1-.36-.36V121.59a.35.35,0,0,1,.36-.36h2.3a.34.34,0,0,1,.36.36v1.77h0a4.8,4.8,0,0,1,4.57-2.52,5.3,5.3,0,0,1,3.53,1.29c.18.18.22.33.07.51l-1.33,1.76a.32.32,0,0,1-.5.07,4.92,4.92,0,0,0-2.67-.82c-2.63,0-3.71,2-3.71,5v9.43a.34.34,0,0,1-.36.36Z"/><path class="cls-1" d="M160.93,134.19a13.76,13.76,0,0,1-.57-4.35,13.43,13.43,0,0,1,.54-4.36,7.25,7.25,0,0,1,13.53,0,15.08,15.08,0,0,1,.54,4.93.35.35,0,0,1-.39.36H163.67a.2.2,0,0,0-.22.22,6.47,6.47,0,0,0,.29,2.09,4.26,4.26,0,0,0,4.36,3,5.64,5.64,0,0,0,4.43-1.9c.18-.18.36-.22.54-.07l1.47,1.33a.32.32,0,0,1,0,.5,8.38,8.38,0,0,1-6.73,3C164.35,138.87,161.87,137.18,160.93,134.19Zm10.73-5.83c.15,0,.22-.07.22-.21a6.08,6.08,0,0,0-.25-2,4.25,4.25,0,0,0-7.92,0,6.05,6.05,0,0,0-.26,2,.19.19,0,0,0,.22.21Z"/><path class="cls-1" d="M177.93,136.28a.33.33,0,0,1,0-.5l1.47-1.59a.36.36,0,0,1,.51,0,8.34,8.34,0,0,0,5.32,2c2.52,0,3.78-1.08,3.78-2.62,0-1.37-.64-2.13-3.34-2.42l-1.84-.18c-3.38-.36-5.15-2-5.15-4.86,0-3.27,2.34-5.25,6.41-5.25a10.32,10.32,0,0,1,6.12,1.91.34.34,0,0,1,.07.5l-1.22,1.55a.36.36,0,0,1-.51.07,9.06,9.06,0,0,0-4.64-1.4c-2.16,0-3.28,1-3.28,2.37s.83,2.09,3.39,2.34l1.8.18c3.49.33,5.18,2.09,5.18,4.86,0,3.38-2.45,5.65-6.95,5.65A10.72,10.72,0,0,1,177.93,136.28Z"/><path class="cls-1" d="M195.57,134.19a17.21,17.21,0,0,1,0-8.71,7.25,7.25,0,0,1,13.53,0,15.08,15.08,0,0,1,.54,4.93.35.35,0,0,1-.39.36H198.3a.19.19,0,0,0-.21.22,6.5,6.5,0,0,0,.28,2.09,4.27,4.27,0,0,0,4.36,3,5.64,5.64,0,0,0,4.43-1.9c.18-.18.36-.22.54-.07l1.47,1.33a.32.32,0,0,1,0,.5,8.38,8.38,0,0,1-6.73,3C199,138.87,196.5,137.18,195.57,134.19Zm10.72-5.83c.15,0,.22-.07.22-.21a6.08,6.08,0,0,0-.25-2,4.25,4.25,0,0,0-7.92,0,6.08,6.08,0,0,0-.25,2,.19.19,0,0,0,.21.21Z"/><path class="cls-1" d="M224.94,138.48a.34.34,0,0,1-.36-.36V128c0-2.77-1.26-4.39-3.85-4.39a3.87,3.87,0,0,0-4,4.21v10.26a.34.34,0,0,1-.36.36h-2.3a.34.34,0,0,1-.36-.36V121.59a.34.34,0,0,1,.36-.36h2.3a.34.34,0,0,1,.36.36v1.59h0a5.44,5.44,0,0,1,4.82-2.34c3.74,0,6,2.55,6,6.48v10.8a.34.34,0,0,1-.36.36Z"/><path class="cls-1" d="M237.61,138.66c-3.34,0-4.64-1.51-4.64-4.9V123.9a.19.19,0,0,0-.22-.22h-1.44a.34.34,0,0,1-.36-.36v-1.73a.35.35,0,0,1,.36-.36h1.44c.15,0,.22-.07.22-.21v-4.86a.34.34,0,0,1,.36-.36h2.3a.34.34,0,0,1,.36.36V121a.19.19,0,0,0,.22.21H239a.34.34,0,0,1,.35.36v1.73a.33.33,0,0,1-.35.36h-2.74a.2.2,0,0,0-.22.22v9.75c0,1.73.65,2.2,2.2,2.2H239a.33.33,0,0,1,.35.36v2.09a.34.34,0,0,1-.35.36Z"/><path class="cls-1" d="M242.8,134.19a17.21,17.21,0,0,1,0-8.71,7.26,7.26,0,0,1,13.54,0,15.08,15.08,0,0,1,.54,4.93.35.35,0,0,1-.4.36H245.53a.19.19,0,0,0-.21.22,6.5,6.5,0,0,0,.28,2.09,4.27,4.27,0,0,0,4.36,3,5.64,5.64,0,0,0,4.43-1.9c.18-.18.36-.22.54-.07l1.47,1.33a.32.32,0,0,1,0,.5,8.38,8.38,0,0,1-6.73,3C246.22,138.87,243.73,137.18,242.8,134.19Zm10.72-5.83c.15,0,.22-.07.22-.21a6.08,6.08,0,0,0-.25-2,4.25,4.25,0,0,0-7.92,0,6.08,6.08,0,0,0-.25,2,.19.19,0,0,0,.21.21Z"/><path class="cls-1" d="M259.79,136.28a.35.35,0,0,1,0-.5l1.47-1.59a.36.36,0,0,1,.51,0,8.34,8.34,0,0,0,5.33,2c2.52,0,3.78-1.08,3.78-2.62,0-1.37-.65-2.13-3.35-2.42l-1.84-.18c-3.38-.36-5.15-2-5.15-4.86,0-3.27,2.34-5.25,6.41-5.25a10.32,10.32,0,0,1,6.12,1.91.34.34,0,0,1,.07.5l-1.22,1.55a.35.35,0,0,1-.5.07,9.09,9.09,0,0,0-4.65-1.4c-2.16,0-3.27,1-3.27,2.37s.82,2.09,3.38,2.34l1.8.18c3.49.33,5.18,2.09,5.18,4.86,0,3.38-2.44,5.65-6.94,5.65A10.73,10.73,0,0,1,259.79,136.28Z"/><path class="cls-1" d="M285.35,134.19a17.21,17.21,0,0,1,0-8.71,7.26,7.26,0,0,1,13.54,0,15.08,15.08,0,0,1,.54,4.93.35.35,0,0,1-.4.36H288.08a.19.19,0,0,0-.21.22,6.47,6.47,0,0,0,.29,2.09,4.25,4.25,0,0,0,4.35,3,5.64,5.64,0,0,0,4.43-1.9c.18-.18.36-.22.54-.07l1.48,1.33a.33.33,0,0,1,0,.5,8.38,8.38,0,0,1-6.73,3C288.77,138.87,286.28,137.18,285.35,134.19Zm10.73-5.83a.19.19,0,0,0,.21-.21,6.08,6.08,0,0,0-.25-2,4.25,4.25,0,0,0-7.92,0,6.08,6.08,0,0,0-.25,2,.19.19,0,0,0,.21.21Z"/><path class="cls-1" d="M314.72,138.48a.35.35,0,0,1-.36-.36V128c0-2.77-1.26-4.39-3.85-4.39a3.87,3.87,0,0,0-4,4.21v10.26a.34.34,0,0,1-.36.36h-2.3a.34.34,0,0,1-.36-.36V121.59a.34.34,0,0,1,.36-.36h2.3a.34.34,0,0,1,.36.36v1.59h0a5.45,5.45,0,0,1,4.82-2.34c3.74,0,6,2.55,6,6.48v10.8a.35.35,0,0,1-.36.36Z"/><path class="cls-1" d="M329.84,134.19a17.36,17.36,0,0,1,0-8.71,7.25,7.25,0,0,1,13.53,0,15.08,15.08,0,0,1,.54,4.93.35.35,0,0,1-.39.36H332.58a.2.2,0,0,0-.22.22,6.47,6.47,0,0,0,.29,2.09,4.25,4.25,0,0,0,4.36,3,5.6,5.6,0,0,0,4.42-1.9c.18-.18.36-.22.54-.07l1.48,1.33a.32.32,0,0,1,0,.5,8.39,8.39,0,0,1-6.74,3C333.26,138.87,330.78,137.18,329.84,134.19Zm10.73-5.83a.19.19,0,0,0,.22-.21,6.05,6.05,0,0,0-.26-2,4.25,4.25,0,0,0-7.91,0,6.05,6.05,0,0,0-.26,2,.19.19,0,0,0,.22.21Z"/><path class="cls-1" d="M352.16,138.66c-3,0-4.21-1.44-4.21-4.54V114.36a.34.34,0,0,1,.36-.36h2.31a.34.34,0,0,1,.36.36v19.58c0,1.44.53,1.91,1.72,1.91h.69a.34.34,0,0,1,.36.36v2.09a.35.35,0,0,1-.36.36Z"/><path class="cls-1" d="M375.63,138.48a.35.35,0,0,1-.36-.36V136.6h0c-.79,1.3-2.49,2.27-5.11,2.27-3.28,0-5.8-1.69-5.8-5.18s2.52-5.33,6.73-5.33H375a.19.19,0,0,0,.21-.21v-1.26c0-2.38-.93-3.39-4.14-3.39a6.68,6.68,0,0,0-4.17,1.23.33.33,0,0,1-.51,0l-1-1.66a.38.38,0,0,1,.07-.5,9.56,9.56,0,0,1,5.87-1.69c4.9,0,6.77,1.62,6.77,5.87v11.41a.35.35,0,0,1-.36.36Zm-.43-5.58V131a.19.19,0,0,0-.21-.22h-3.46c-3,0-4.28.87-4.28,2.81,0,1.77,1.29,2.7,3.6,2.7C373.55,136.28,375.2,135,375.2,132.9Z"/><path class="cls-1" d="M405.19,138.48a.34.34,0,0,1-.36-.36V128c0-2.77-1.26-4.39-3.85-4.39a3.88,3.88,0,0,0-4,4.21v10.26a.35.35,0,0,1-.36.36h-2.31a.35.35,0,0,1-.36-.36V128c0-2.77-1.26-4.39-3.85-4.39a3.87,3.87,0,0,0-4,4.21v10.26a.34.34,0,0,1-.36.36h-2.3a.34.34,0,0,1-.36-.36V121.59a.34.34,0,0,1,.36-.36h2.3a.34.34,0,0,1,.36.36v1.59h0a6.09,6.09,0,0,1,9.86.36h0a6.4,6.4,0,0,1,5.58-2.7c4,0,6.15,2.55,6.15,6.48v10.8a.34.34,0,0,1-.36.36Z"/><path class="cls-1" d="M413.22,138.48a.34.34,0,0,1-.36-.36V114.36a.34.34,0,0,1,.36-.36h2.3a.34.34,0,0,1,.36.36v8.85h0c.83-1.36,2.3-2.37,4.89-2.37,3,0,5.08,1.4,5.94,4.14a14.2,14.2,0,0,1,.61,4.86,14.25,14.25,0,0,1-.61,4.89c-.86,2.74-2.95,4.14-5.94,4.14-2.59,0-4.06-1-4.89-2.41h0v1.66a.34.34,0,0,1-.36.36Zm10.65-5a11.89,11.89,0,0,0,.4-3.6,12.15,12.15,0,0,0-.4-3.6,4.08,4.08,0,0,0-7.59,0,11.12,11.12,0,0,0-.4,3.6,11,11,0,0,0,.4,3.6,4.06,4.06,0,0,0,7.59,0Z"/><path class="cls-1" d="M431.79,117.35a.35.35,0,0,1-.36-.36v-2.63a.34.34,0,0,1,.36-.36h2.45a.34.34,0,0,1,.36.36V117a.34.34,0,0,1-.36.36Zm.08,21.13a.34.34,0,0,1-.36-.36V121.59a.34.34,0,0,1,.36-.36h2.3a.34.34,0,0,1,.36.36v16.53a.34.34,0,0,1-.36.36Z"/><path class="cls-1" d="M439.25,134.19a17.21,17.21,0,0,1,0-8.71,7.25,7.25,0,0,1,13.53,0,15.08,15.08,0,0,1,.54,4.93.35.35,0,0,1-.39.36H442a.19.19,0,0,0-.21.22,6.5,6.5,0,0,0,.28,2.09,4.26,4.26,0,0,0,4.36,3,5.64,5.64,0,0,0,4.43-1.9c.18-.18.36-.22.54-.07l1.47,1.33a.32.32,0,0,1,0,.5,8.38,8.38,0,0,1-6.73,3C442.67,138.87,440.18,137.18,439.25,134.19ZM450,128.36c.15,0,.22-.07.22-.21a6.08,6.08,0,0,0-.25-2,4.25,4.25,0,0,0-7.92,0,6.08,6.08,0,0,0-.25,2,.19.19,0,0,0,.21.21Z"/><path class="cls-1" d="M468.62,138.48a.34.34,0,0,1-.36-.36V128c0-2.77-1.26-4.39-3.85-4.39a3.87,3.87,0,0,0-4,4.21v10.26a.35.35,0,0,1-.36.36h-2.3a.34.34,0,0,1-.36-.36V121.59a.34.34,0,0,1,.36-.36h2.3a.35.35,0,0,1,.36.36v1.59h0a5.47,5.47,0,0,1,4.83-2.34c3.74,0,6,2.55,6,6.48v10.8a.34.34,0,0,1-.36.36Z"/><path class="cls-1" d="M481.29,138.66c-3.35,0-4.64-1.51-4.64-4.9V123.9a.19.19,0,0,0-.22-.22H475a.34.34,0,0,1-.36-.36v-1.73a.35.35,0,0,1,.36-.36h1.44c.15,0,.22-.07.22-.21v-4.86a.34.34,0,0,1,.36-.36h2.3a.34.34,0,0,1,.36.36V121c0,.14.07.21.22.21h2.73a.34.34,0,0,1,.36.36v1.73a.34.34,0,0,1-.36.36h-2.73a.19.19,0,0,0-.22.22v9.75c0,1.73.65,2.2,2.2,2.2h.75a.34.34,0,0,1,.36.36v2.09a.34.34,0,0,1-.36.36Z"/><path class="cls-1" d="M486.48,134.19a17.21,17.21,0,0,1,0-8.71,7.26,7.26,0,0,1,13.54,0,15.37,15.37,0,0,1,.54,4.93.35.35,0,0,1-.4.36H489.21a.19.19,0,0,0-.21.22,6.5,6.5,0,0,0,.28,2.09,4.27,4.27,0,0,0,4.36,3,5.64,5.64,0,0,0,4.43-1.9c.18-.18.36-.22.54-.07l1.47,1.33a.32.32,0,0,1,0,.5,8.38,8.38,0,0,1-6.73,3C489.9,138.87,487.41,137.18,486.48,134.19Zm10.72-5.83c.15,0,.22-.07.22-.21a6.08,6.08,0,0,0-.25-2,4.25,4.25,0,0,0-7.92,0,6.08,6.08,0,0,0-.25,2,.19.19,0,0,0,.21.21Z"/><path class="cls-1" d="M512.94,145a.34.34,0,0,1-.36-.36v-23a.34.34,0,0,1,.36-.36h2.3a.34.34,0,0,1,.36.36v1.62h0c.82-1.36,2.3-2.37,4.89-2.37,3,0,5.08,1.4,5.94,4.14a14.2,14.2,0,0,1,.61,4.86,14.25,14.25,0,0,1-.61,4.89c-.86,2.74-3,4.14-5.94,4.14-2.59,0-4.07-1-4.89-2.41h0v8.14a.34.34,0,0,1-.36.36Zm10.65-11.52a11.89,11.89,0,0,0,.4-3.6,12.15,12.15,0,0,0-.4-3.6,4.08,4.08,0,0,0-7.59,0,11.12,11.12,0,0,0-.4,3.6,11,11,0,0,0,.4,3.6,4.06,4.06,0,0,0,7.59,0Z"/><path class="cls-1" d="M541.66,138.48a.35.35,0,0,1-.36-.36V136.6h0c-.8,1.3-2.49,2.27-5.11,2.27-3.28,0-5.8-1.69-5.8-5.18s2.52-5.33,6.73-5.33H541c.15,0,.22-.07.22-.21v-1.26c0-2.38-.94-3.39-4.14-3.39a6.68,6.68,0,0,0-4.17,1.23.33.33,0,0,1-.51,0l-1-1.66a.38.38,0,0,1,.07-.5,9.56,9.56,0,0,1,5.87-1.69c4.89,0,6.77,1.62,6.77,5.87v11.41a.35.35,0,0,1-.36.36Zm-.43-5.58V131a.2.2,0,0,0-.22-.22h-3.45c-3,0-4.28.87-4.28,2.81,0,1.77,1.29,2.7,3.6,2.7C539.57,136.28,541.23,135,541.23,132.9Z"/><path class="cls-1" d="M549.55,138.48a.34.34,0,0,1-.36-.36V121.59a.34.34,0,0,1,.36-.36h2.3a.34.34,0,0,1,.36.36v1.77h0a4.78,4.78,0,0,1,4.57-2.52,5.32,5.32,0,0,1,3.53,1.29c.18.18.21.33.07.51l-1.33,1.76a.33.33,0,0,1-.51.07,4.86,4.86,0,0,0-2.66-.82c-2.63,0-3.71,2-3.71,5v9.43a.34.34,0,0,1-.36.36Z"/><path class="cls-1" d="M572.8,138.48a.35.35,0,0,1-.36-.36V136.6h0c-.8,1.3-2.49,2.27-5.12,2.27-3.27,0-5.79-1.69-5.79-5.18s2.52-5.33,6.73-5.33h3.92c.15,0,.22-.07.22-.21v-1.26c0-2.38-.94-3.39-4.14-3.39a6.68,6.68,0,0,0-4.17,1.23.33.33,0,0,1-.51,0l-1-1.66a.38.38,0,0,1,.07-.5,9.56,9.56,0,0,1,5.87-1.69c4.89,0,6.77,1.62,6.77,5.87v11.41a.35.35,0,0,1-.36.36Zm-.43-5.58V131a.2.2,0,0,0-.22-.22H568.7c-3,0-4.28.87-4.28,2.81,0,1.77,1.29,2.7,3.59,2.7C570.71,136.28,572.37,135,572.37,132.9Z"/><path class="cls-1" d="M587.78,134.19a17.21,17.21,0,0,1,0-8.71,7.26,7.26,0,0,1,13.54,0,15.08,15.08,0,0,1,.54,4.93.35.35,0,0,1-.4.36H590.51a.19.19,0,0,0-.21.22,6.47,6.47,0,0,0,.29,2.09,4.25,4.25,0,0,0,4.35,3,5.64,5.64,0,0,0,4.43-1.9c.18-.18.36-.22.54-.07l1.48,1.33a.31.31,0,0,1,0,.5,8.38,8.38,0,0,1-6.73,3C591.2,138.87,588.71,137.18,587.78,134.19Zm10.73-5.83a.19.19,0,0,0,.21-.21,6.08,6.08,0,0,0-.25-2,4.25,4.25,0,0,0-7.92,0,6.08,6.08,0,0,0-.25,2,.19.19,0,0,0,.21.21Z"/><path class="cls-1" d="M610.57,138.48c-.26,0-.36-.15-.44-.36l-6.19-16.53c-.07-.21,0-.36.29-.36h2.48c.26,0,.36.11.47.36L611.65,134h.07l4.35-12.39a.43.43,0,0,1,.44-.36H619c.26,0,.36.15.29.36l-6.15,16.53a.48.48,0,0,1-.47.36Z"/><path class="cls-1" d="M622.7,117.35a.34.34,0,0,1-.36-.36v-2.63a.34.34,0,0,1,.36-.36h2.45a.34.34,0,0,1,.36.36V117a.35.35,0,0,1-.36.36Zm.07,21.13a.34.34,0,0,1-.36-.36V121.59a.34.34,0,0,1,.36-.36h2.3a.34.34,0,0,1,.36.36v16.53a.34.34,0,0,1-.36.36Z"/><path class="cls-1" d="M635.62,138.66c-3.35,0-4.64-1.51-4.64-4.9V123.9a.19.19,0,0,0-.22-.22h-1.44a.34.34,0,0,1-.36-.36v-1.73a.35.35,0,0,1,.36-.36h1.44c.15,0,.22-.07.22-.21v-4.86a.34.34,0,0,1,.36-.36h2.3a.34.34,0,0,1,.36.36V121c0,.14.07.21.22.21H637a.34.34,0,0,1,.36.36v1.73a.34.34,0,0,1-.36.36h-2.73a.19.19,0,0,0-.22.22v9.75c0,1.73.65,2.2,2.2,2.2H637a.34.34,0,0,1,.36.36v2.09a.34.34,0,0,1-.36.36Z"/><path class="cls-1" d="M651.71,138.48a.35.35,0,0,1-.36-.36V136.6h0c-.8,1.3-2.49,2.27-5.11,2.27-3.28,0-5.8-1.69-5.8-5.18s2.52-5.33,6.73-5.33h3.92c.15,0,.22-.07.22-.21v-1.26c0-2.38-.94-3.39-4.14-3.39a6.68,6.68,0,0,0-4.17,1.23.33.33,0,0,1-.51,0l-1-1.66a.38.38,0,0,1,.07-.5,9.56,9.56,0,0,1,5.87-1.69c4.89,0,6.77,1.62,6.77,5.87v11.41a.35.35,0,0,1-.36.36Zm-.43-5.58V131a.2.2,0,0,0-.22-.22h-3.45c-3,0-4.28.87-4.28,2.81,0,1.77,1.29,2.7,3.59,2.7C649.62,136.28,651.28,135,651.28,132.9Z"/><path class="cls-1" d="M659.6,138.48a.34.34,0,0,1-.36-.36V121.59a.34.34,0,0,1,.36-.36h2.3a.34.34,0,0,1,.36.36v1.77h0a4.78,4.78,0,0,1,4.57-2.52,5.32,5.32,0,0,1,3.53,1.29c.18.18.21.33.07.51l-1.33,1.76a.33.33,0,0,1-.51.07,4.86,4.86,0,0,0-2.66-.82c-2.63,0-3.71,2-3.71,5v9.43a.34.34,0,0,1-.36.36Z"/><path class="cls-1" d="M4.64,172.19a17.36,17.36,0,0,1,0-8.71,6.67,6.67,0,0,1,6.77-4.64,6.67,6.67,0,0,1,6.76,4.64,15.08,15.08,0,0,1,.54,4.93.35.35,0,0,1-.39.36H7.38a.2.2,0,0,0-.22.22,6.47,6.47,0,0,0,.29,2.09,4.26,4.26,0,0,0,4.36,3,5.6,5.6,0,0,0,4.42-1.9c.18-.18.36-.22.54-.07l1.48,1.33a.32.32,0,0,1,0,.5,8.39,8.39,0,0,1-6.74,3C8.06,176.87,5.58,175.18,4.64,172.19Zm10.73-5.83a.19.19,0,0,0,.22-.21,6.05,6.05,0,0,0-.26-2,3.88,3.88,0,0,0-3.95-2.7,3.88,3.88,0,0,0-4,2.7,6.05,6.05,0,0,0-.26,2,.19.19,0,0,0,.22.21Z"/><path class="cls-1" d="M33.08,176.48c-.25,0-.36-.08-.54-.33l-4.17-6.08h0l-4.17,6.08a.55.55,0,0,1-.54.33H21.06c-.29,0-.36-.18-.25-.36l5.86-8.64-5.36-7.89c-.11-.17,0-.36.25-.36h2.6a.53.53,0,0,1,.54.33l3.63,5.36h0l3.7-5.36a.54.54,0,0,1,.51-.33h2.59c.29,0,.36.19.25.36L30,167.48l5.91,8.64c.1.18,0,.36-.26.36Z"/><path class="cls-1" d="M39.6,183a.34.34,0,0,1-.36-.36v-23a.34.34,0,0,1,.36-.36h2.3a.34.34,0,0,1,.36.36v1.62h0c.83-1.36,2.3-2.37,4.89-2.37,3,0,5.08,1.4,5.94,4.14a19.48,19.48,0,0,1,0,9.75c-.86,2.74-3,4.14-5.94,4.14-2.59,0-4.06-1-4.89-2.41h0v8.14a.34.34,0,0,1-.36.36Zm10.65-11.52a11.89,11.89,0,0,0,.4-3.6,12.15,12.15,0,0,0-.4-3.6,3.65,3.65,0,0,0-3.78-2.59,3.65,3.65,0,0,0-3.81,2.59,11.12,11.12,0,0,0-.4,3.6,11,11,0,0,0,.4,3.6,3.68,3.68,0,0,0,3.81,2.62A3.68,3.68,0,0,0,50.25,171.44Z"/><path class="cls-1" d="M62,176.66c-3,0-4.21-1.44-4.21-4.54V152.36a.33.33,0,0,1,.35-.36h2.31a.34.34,0,0,1,.36.36v19.58c0,1.44.54,1.91,1.73,1.91h.68a.34.34,0,0,1,.36.36v2.09a.34.34,0,0,1-.36.36Z"/><path class="cls-1" d="M66.67,172.23a16.79,16.79,0,0,1,0-8.75c.94-2.95,3.46-4.64,6.8-4.64s5.87,1.69,6.81,4.64a17.07,17.07,0,0,1,0,8.75,6.71,6.71,0,0,1-6.81,4.64A6.7,6.7,0,0,1,66.67,172.23Zm10.69-.86a11.27,11.27,0,0,0,.4-3.53,10.91,10.91,0,0,0-.4-3.49,4.15,4.15,0,0,0-7.77,0,10.91,10.91,0,0,0-.4,3.49,11.27,11.27,0,0,0,.4,3.53,4.15,4.15,0,0,0,7.77,0Z"/><path class="cls-1" d="M83.81,174.28a.33.33,0,0,1,0-.5l1.47-1.59a.36.36,0,0,1,.51,0,8.34,8.34,0,0,0,5.32,2c2.52,0,3.78-1.08,3.78-2.62,0-1.37-.64-2.13-3.34-2.42L89.71,169c-3.38-.36-5.15-2-5.15-4.86,0-3.27,2.34-5.25,6.41-5.25a10.32,10.32,0,0,1,6.12,1.91.34.34,0,0,1,.07.5l-1.22,1.55a.36.36,0,0,1-.51.07,9.06,9.06,0,0,0-4.64-1.4c-2.16,0-3.28,1-3.28,2.37s.83,2.09,3.39,2.34l1.8.18c3.49.33,5.18,2.09,5.18,4.86,0,3.38-2.45,5.65-6.95,5.65A10.72,10.72,0,0,1,83.81,174.28Z"/><path class="cls-1" d="M102.2,155.35a.35.35,0,0,1-.36-.36v-2.63a.34.34,0,0,1,.36-.36h2.45a.34.34,0,0,1,.36.36V155a.34.34,0,0,1-.36.36Zm.07,21.13a.35.35,0,0,1-.36-.36V159.59a.35.35,0,0,1,.36-.36h2.31a.35.35,0,0,1,.36.36v16.53a.35.35,0,0,1-.36.36Z"/><path class="cls-1" d="M109.65,172.23a17.07,17.07,0,0,1,0-8.75c.94-2.95,3.46-4.64,6.81-4.64s5.86,1.69,6.8,4.64a16.79,16.79,0,0,1,0,8.75,7.31,7.31,0,0,1-13.61,0Zm10.69-.86a11.27,11.27,0,0,0,.4-3.53,10.91,10.91,0,0,0-.4-3.49,4.15,4.15,0,0,0-7.77,0,10.91,10.91,0,0,0-.4,3.49,11.27,11.27,0,0,0,.4,3.53,4.15,4.15,0,0,0,7.77,0Z"/><path class="cls-1" d="M139.17,176.48a.35.35,0,0,1-.36-.36V166c0-2.77-1.26-4.39-3.85-4.39a3.87,3.87,0,0,0-4,4.21v10.26a.34.34,0,0,1-.36.36h-2.3a.34.34,0,0,1-.36-.36V159.59a.34.34,0,0,1,.36-.36h2.3a.34.34,0,0,1,.36.36v1.59h0a5.45,5.45,0,0,1,4.82-2.34c3.74,0,6,2.55,6,6.48v10.8a.35.35,0,0,1-.36.36Z"/><path class="cls-1" d="M146.37,172.19a17.36,17.36,0,0,1,0-8.71,7.25,7.25,0,0,1,13.53,0,15.08,15.08,0,0,1,.54,4.93.35.35,0,0,1-.39.36H149.11a.2.2,0,0,0-.22.22,6.47,6.47,0,0,0,.29,2.09,4.25,4.25,0,0,0,4.36,3,5.6,5.6,0,0,0,4.42-1.9c.18-.18.36-.22.54-.07l1.48,1.33a.32.32,0,0,1,0,.5,8.39,8.39,0,0,1-6.74,3C149.79,176.87,147.31,175.18,146.37,172.19Zm10.73-5.83a.19.19,0,0,0,.22-.21,6.05,6.05,0,0,0-.26-2,4.25,4.25,0,0,0-7.92,0,6.08,6.08,0,0,0-.25,2c0,.14.07.21.22.21Z"/><path class="cls-1" d="M163.36,174.28a.35.35,0,0,1,0-.5l1.48-1.59a.35.35,0,0,1,.5,0,8.37,8.37,0,0,0,5.33,2c2.52,0,3.78-1.08,3.78-2.62,0-1.37-.65-2.13-3.35-2.42l-1.83-.18c-3.39-.36-5.15-2-5.15-4.86,0-3.27,2.34-5.25,6.41-5.25a10.32,10.32,0,0,1,6.12,1.91.34.34,0,0,1,.07.5l-1.22,1.55a.36.36,0,0,1-.51.07,9.06,9.06,0,0,0-4.64-1.4c-2.16,0-3.28,1-3.28,2.37s.83,2.09,3.39,2.34l1.8.18c3.49.33,5.18,2.09,5.18,4.86,0,3.38-2.45,5.65-6.95,5.65A10.75,10.75,0,0,1,163.36,174.28Z"/><path class="cls-1" d="M188.92,172.23a17.07,17.07,0,0,1,0-8.75c.94-2.95,3.46-4.64,6.81-4.64s5.86,1.69,6.8,4.64a16.79,16.79,0,0,1,0,8.75,7.31,7.31,0,0,1-13.61,0Zm10.69-.86a11.27,11.27,0,0,0,.4-3.53,10.91,10.91,0,0,0-.4-3.49,4.15,4.15,0,0,0-7.77,0,10.91,10.91,0,0,0-.4,3.49,11.27,11.27,0,0,0,.4,3.53,4.15,4.15,0,0,0,7.77,0Z"/><path class="cls-1" d="M215.46,155.35a.34.34,0,0,1-.36-.36v-2.63a.34.34,0,0,1,.36-.36h2.44a.34.34,0,0,1,.36.36V155a.34.34,0,0,1-.36.36Zm.07,21.13a.34.34,0,0,1-.36-.36V159.59a.34.34,0,0,1,.36-.36h2.3a.34.34,0,0,1,.36.36v16.53a.34.34,0,0,1-.36.36Z"/><path class="cls-1" d="M234.57,176.48a.34.34,0,0,1-.36-.36V166c0-2.77-1.26-4.39-3.85-4.39a3.87,3.87,0,0,0-4,4.21v10.26a.35.35,0,0,1-.36.36h-2.31a.34.34,0,0,1-.35-.36V159.59a.34.34,0,0,1,.35-.36H226a.35.35,0,0,1,.36.36v1.59h0a5.47,5.47,0,0,1,4.83-2.34c3.74,0,6,2.55,6,6.48v10.8a.34.34,0,0,1-.36.36Z"/><path class="cls-1" d="M253.43,176.48a.35.35,0,0,1-.36-.36V166c0-2.77-1.26-4.39-3.85-4.39a3.87,3.87,0,0,0-4,4.21v10.26a.34.34,0,0,1-.36.36h-2.3a.34.34,0,0,1-.36-.36V152.36a.34.34,0,0,1,.36-.36h2.3a.34.34,0,0,1,.36.36v8.82h0a5.45,5.45,0,0,1,4.82-2.34c3.75,0,6,2.55,6,6.48v10.8a.35.35,0,0,1-.36.36Z"/><path class="cls-1" d="M271.54,176.48a.35.35,0,0,1-.36-.36V174.6h0c-.8,1.3-2.49,2.27-5.12,2.27-3.27,0-5.79-1.69-5.79-5.18s2.52-5.33,6.73-5.33h3.92c.15,0,.22-.07.22-.21v-1.26c0-2.38-.94-3.39-4.14-3.39a6.73,6.73,0,0,0-4.18,1.23.32.32,0,0,1-.5,0l-1-1.66a.38.38,0,0,1,.07-.5,9.56,9.56,0,0,1,5.87-1.69c4.89,0,6.76,1.62,6.76,5.87v11.41a.34.34,0,0,1-.35.36Zm-.43-5.58V169a.2.2,0,0,0-.22-.22h-3.45c-3,0-4.29.87-4.29,2.81,0,1.77,1.3,2.7,3.6,2.7C269.45,174.28,271.11,173,271.11,170.9Z"/><path class="cls-1" d="M283.21,176.66c-3,0-4.22-1.44-4.22-4.54V152.36a.34.34,0,0,1,.36-.36h2.31a.34.34,0,0,1,.36.36v19.58c0,1.44.54,1.91,1.73,1.91h.68a.34.34,0,0,1,.36.36v2.09a.34.34,0,0,1-.36.36Z"/><path class="cls-1" d="M298.76,176.48a.34.34,0,0,1-.36-.36V174.6h0c-.79,1.3-2.48,2.27-5.11,2.27-3.28,0-5.8-1.69-5.8-5.18s2.52-5.33,6.74-5.33h3.92a.19.19,0,0,0,.21-.21v-1.26c0-2.38-.93-3.39-4.13-3.39a6.71,6.71,0,0,0-4.18,1.23c-.18.14-.4.14-.5,0l-1-1.66a.38.38,0,0,1,.08-.5,9.53,9.53,0,0,1,5.86-1.69c4.9,0,6.77,1.62,6.77,5.87v11.41a.34.34,0,0,1-.36.36Zm-.44-5.58V169a.19.19,0,0,0-.21-.22h-3.46c-3,0-4.28.87-4.28,2.81,0,1.77,1.3,2.7,3.6,2.7C296.67,174.28,298.32,173,298.32,170.9Z"/><path class="cls-1" d="M305.78,163.48a6.68,6.68,0,0,1,6.8-4.64,6.92,6.92,0,0,1,5.9,2.91.34.34,0,0,1-.1.51l-1.59,1.29a.31.31,0,0,1-.5,0,4.24,4.24,0,0,0-3.71-1.87,3.74,3.74,0,0,0-3.85,2.7,11.4,11.4,0,0,0-.4,3.49,11.52,11.52,0,0,0,.4,3.53,3.74,3.74,0,0,0,3.85,2.69,4.24,4.24,0,0,0,3.71-1.87.31.31,0,0,1,.5,0l1.59,1.29a.34.34,0,0,1,.1.51,6.9,6.9,0,0,1-5.9,2.91c-3.31,0-5.83-1.65-6.8-4.64a18,18,0,0,1,0-8.75Z"/><path class="cls-1" d="M322.84,155.35a.35.35,0,0,1-.36-.36v-2.63a.34.34,0,0,1,.36-.36h2.45a.34.34,0,0,1,.36.36V155a.35.35,0,0,1-.36.36Zm.07,21.13a.35.35,0,0,1-.36-.36V159.59a.35.35,0,0,1,.36-.36h2.31a.35.35,0,0,1,.36.36v16.53a.35.35,0,0,1-.36.36Z"/><path class="cls-1" d="M330.29,172.23a17.07,17.07,0,0,1,0-8.75c.94-2.95,3.46-4.64,6.81-4.64s5.86,1.69,6.8,4.64a16.79,16.79,0,0,1,0,8.75,7.31,7.31,0,0,1-13.61,0Zm10.69-.86a11.27,11.27,0,0,0,.4-3.53,10.91,10.91,0,0,0-.4-3.49,4.15,4.15,0,0,0-7.77,0,10.91,10.91,0,0,0-.4,3.49,11.27,11.27,0,0,0,.4,3.53,4.15,4.15,0,0,0,7.77,0Zm-5.18-14.94c-.22,0-.32-.15-.22-.36l2.74-4.43a.63.63,0,0,1,.61-.36h2.38a.21.21,0,0,1,.18.36l-3.31,4.43a.71.71,0,0,1-.69.36Z"/><path class="cls-1" d="M359.81,176.48a.34.34,0,0,1-.36-.36V166c0-2.77-1.26-4.39-3.85-4.39a3.87,3.87,0,0,0-4,4.21v10.26a.34.34,0,0,1-.36.36H349a.34.34,0,0,1-.36-.36V159.59a.34.34,0,0,1,.36-.36h2.3a.34.34,0,0,1,.36.36v1.59h0a5.44,5.44,0,0,1,4.82-2.34c3.74,0,6,2.55,6,6.48v10.8a.34.34,0,0,1-.36.36Z"/><path class="cls-1" d="M386.2,176.48a.34.34,0,0,1-.36-.36v-1.66h0c-.83,1.37-2.3,2.41-4.89,2.41-3,0-5.08-1.4-5.94-4.14a19.78,19.78,0,0,1,0-9.75c.86-2.74,2.95-4.14,5.94-4.14,2.59,0,4.06,1,4.89,2.37h0v-8.85a.34.34,0,0,1,.36-.36h2.3a.34.34,0,0,1,.36.36v23.76a.34.34,0,0,1-.36.36Zm-.76-5a11,11,0,0,0,.4-3.6,11.12,11.12,0,0,0-.4-3.6,4.08,4.08,0,0,0-7.59,0,12.15,12.15,0,0,0-.4,3.6,11.89,11.89,0,0,0,.4,3.6,4.06,4.06,0,0,0,7.59,0Z"/><path class="cls-1" d="M393.58,172.19a17.21,17.21,0,0,1,0-8.71,7.26,7.26,0,0,1,13.54,0,15.08,15.08,0,0,1,.54,4.93.35.35,0,0,1-.4.36H396.31a.19.19,0,0,0-.21.22,6.47,6.47,0,0,0,.29,2.09,4.25,4.25,0,0,0,4.35,3,5.64,5.64,0,0,0,4.43-1.9c.18-.18.36-.22.54-.07l1.48,1.33a.31.31,0,0,1,0,.5,8.38,8.38,0,0,1-6.73,3C397,176.87,394.52,175.18,393.58,172.19Zm10.73-5.83a.19.19,0,0,0,.21-.21,6.08,6.08,0,0,0-.25-2,4.25,4.25,0,0,0-7.92,0,6.08,6.08,0,0,0-.25,2,.19.19,0,0,0,.21.21Z"/><path class="cls-1" d="M419.32,180.8a.33.33,0,0,1,0-.51l1.48-1.47a.34.34,0,0,1,.54,0,5.75,5.75,0,0,0,4.07,1.72c2.84,0,4.35-1.47,4.35-4.64v-2h0c-.79,1.44-2.27,2.37-4.79,2.37a5.65,5.65,0,0,1-5.8-4.17,18.37,18.37,0,0,1,0-9.08,5.65,5.65,0,0,1,5.8-4.17c2.52,0,4,.93,4.79,2.37h0v-1.62a.35.35,0,0,1,.36-.36h2.31a.35.35,0,0,1,.36.36v16.13c0,4.9-2.67,7.63-7.53,7.63A7.78,7.78,0,0,1,419.32,180.8Zm10.08-9.9a10.47,10.47,0,0,0,.39-3.35,10.59,10.59,0,0,0-.39-3.35,3.89,3.89,0,0,0-7.31,0,10.78,10.78,0,0,0-.43,3.35,10.65,10.65,0,0,0,.43,3.35,3.52,3.52,0,0,0,3.64,2.59A3.56,3.56,0,0,0,429.4,170.9Z"/><path class="cls-1" d="M448.44,176.48a.35.35,0,0,1-.36-.36V174.6h0c-.8,1.3-2.49,2.27-5.12,2.27-3.27,0-5.79-1.69-5.79-5.18s2.52-5.33,6.73-5.33h3.92c.15,0,.22-.07.22-.21v-1.26c0-2.38-.94-3.39-4.14-3.39a6.73,6.73,0,0,0-4.18,1.23.32.32,0,0,1-.5,0l-1-1.66a.38.38,0,0,1,.07-.5,9.56,9.56,0,0,1,5.87-1.69c4.89,0,6.76,1.62,6.76,5.87v11.41a.34.34,0,0,1-.35.36ZM448,170.9V169a.2.2,0,0,0-.22-.22h-3.45c-3,0-4.29.87-4.29,2.81,0,1.77,1.3,2.7,3.6,2.7C446.35,174.28,448,173,448,170.9Z"/><path class="cls-1" d="M454.78,174.28a.33.33,0,0,1,0-.5l1.47-1.59a.36.36,0,0,1,.51,0,8.34,8.34,0,0,0,5.32,2c2.52,0,3.78-1.08,3.78-2.62,0-1.37-.64-2.13-3.34-2.42l-1.84-.18c-3.38-.36-5.15-2-5.15-4.86,0-3.27,2.34-5.25,6.41-5.25a10.32,10.32,0,0,1,6.12,1.91.34.34,0,0,1,.07.5l-1.22,1.55a.36.36,0,0,1-.51.07,9,9,0,0,0-4.64-1.4c-2.16,0-3.27,1-3.27,2.37s.82,2.09,3.38,2.34l1.8.18c3.49.33,5.18,2.09,5.18,4.86,0,3.38-2.45,5.65-6.94,5.65A10.73,10.73,0,0,1,454.78,174.28Z"/><path class="cls-1" d="M472.42,172.19a17.21,17.21,0,0,1,0-8.71,7.26,7.26,0,0,1,13.54,0,15.08,15.08,0,0,1,.54,4.93.35.35,0,0,1-.4.36H475.15a.19.19,0,0,0-.21.22,6.47,6.47,0,0,0,.29,2.09,4.25,4.25,0,0,0,4.35,3,5.64,5.64,0,0,0,4.43-1.9c.18-.18.36-.22.54-.07l1.47,1.33a.32.32,0,0,1,0,.5,8.38,8.38,0,0,1-6.73,3C475.84,176.87,473.35,175.18,472.42,172.19Zm10.72-5.83c.15,0,.22-.07.22-.21a6.08,6.08,0,0,0-.25-2,4.25,4.25,0,0,0-7.92,0,6.08,6.08,0,0,0-.25,2,.19.19,0,0,0,.21.21Z"/><path class="cls-1" d="M489.41,174.28a.35.35,0,0,1,0-.5l1.48-1.59a.35.35,0,0,1,.5,0,8.37,8.37,0,0,0,5.33,2c2.52,0,3.78-1.08,3.78-2.62,0-1.37-.65-2.13-3.35-2.42l-1.84-.18c-3.38-.36-5.14-2-5.14-4.86,0-3.27,2.33-5.25,6.4-5.25a10.32,10.32,0,0,1,6.12,1.91.34.34,0,0,1,.07.5l-1.22,1.55a.35.35,0,0,1-.5.07,9.09,9.09,0,0,0-4.65-1.4c-2.16,0-3.27,1-3.27,2.37s.83,2.09,3.38,2.34l1.8.18c3.49.33,5.18,2.09,5.18,4.86,0,3.38-2.44,5.65-6.94,5.65A10.73,10.73,0,0,1,489.41,174.28Z"/><path class="cls-1" d="M520.44,176.66c-3.35,0-4.64-1.51-4.64-4.9V161.9a.2.2,0,0,0-.22-.22h-1.44a.34.34,0,0,1-.36-.36v-1.73a.34.34,0,0,1,.36-.36h1.44a.19.19,0,0,0,.22-.21v-4.86a.34.34,0,0,1,.36-.36h2.3a.34.34,0,0,1,.36.36V159c0,.14.07.21.22.21h2.73a.34.34,0,0,1,.36.36v1.73a.34.34,0,0,1-.36.36H519a.19.19,0,0,0-.22.22v9.75c0,1.73.65,2.2,2.2,2.2h.75a.34.34,0,0,1,.36.36v2.09a.34.34,0,0,1-.36.36Z"/><path class="cls-1" d="M525.63,172.23a16.79,16.79,0,0,1,0-8.75c.93-2.95,3.45-4.64,6.8-4.64s5.86,1.69,6.8,4.64a16.79,16.79,0,0,1,0,8.75,6.69,6.69,0,0,1-6.8,4.64C529.08,176.87,526.56,175.15,525.63,172.23Zm10.69-.86a11.63,11.63,0,0,0,.39-3.53,11.26,11.26,0,0,0-.39-3.49,4.15,4.15,0,0,0-7.78,0,10.91,10.91,0,0,0-.4,3.49,11.27,11.27,0,0,0,.4,3.53,4.16,4.16,0,0,0,7.78,0Zm-5.19-14.94c-.21,0-.32-.15-.21-.36l2.73-4.43a.65.65,0,0,1,.61-.36h2.38c.22,0,.32.18.18.36l-3.31,4.43a.71.71,0,0,1-.69.36Z"/><path class="cls-1" d="M553.78,176.48c-.26,0-.36-.08-.54-.33l-4.18-6.08h0l-4.17,6.08a.55.55,0,0,1-.54.33h-2.56c-.29,0-.36-.18-.25-.36l5.87-8.64L542,159.59c-.1-.17,0-.36.26-.36h2.59a.53.53,0,0,1,.54.33l3.63,5.36h0l3.71-5.36a.53.53,0,0,1,.5-.33h2.59c.29,0,.36.19.26.36l-5.4,7.89,5.9,8.64c.11.18,0,.36-.25.36Z"/><path class="cls-1" d="M560.22,155.35a.34.34,0,0,1-.36-.36v-2.63a.34.34,0,0,1,.36-.36h2.45a.34.34,0,0,1,.36.36V155a.35.35,0,0,1-.36.36Zm.07,21.13a.35.35,0,0,1-.36-.36V159.59a.35.35,0,0,1,.36-.36h2.31a.35.35,0,0,1,.36.36v16.53a.35.35,0,0,1-.36.36Z"/><path class="cls-1" d="M567.64,163.48a6.68,6.68,0,0,1,6.8-4.64,6.92,6.92,0,0,1,5.9,2.91c.11.18.11.33-.11.51l-1.58,1.29a.31.31,0,0,1-.5,0,4.24,4.24,0,0,0-3.71-1.87,3.74,3.74,0,0,0-3.85,2.7,11.4,11.4,0,0,0-.4,3.49,11.52,11.52,0,0,0,.4,3.53,3.73,3.73,0,0,0,3.85,2.69,4.24,4.24,0,0,0,3.71-1.87.31.31,0,0,1,.5,0l1.58,1.29c.22.18.22.33.11.51a6.9,6.9,0,0,1-5.9,2.91c-3.31,0-5.83-1.65-6.8-4.64a18,18,0,0,1,0-8.75Z"/><path class="cls-1" d="M583.51,172.23a17.07,17.07,0,0,1,0-8.75c.94-2.95,3.46-4.64,6.8-4.64s5.87,1.69,6.81,4.64a17.07,17.07,0,0,1,0,8.75,7.31,7.31,0,0,1-13.61,0Zm10.69-.86a11.27,11.27,0,0,0,.4-3.53,10.91,10.91,0,0,0-.4-3.49,4.15,4.15,0,0,0-7.77,0,10.91,10.91,0,0,0-.4,3.49,11.27,11.27,0,0,0,.4,3.53,4.15,4.15,0,0,0,7.77,0Z"/><path class="cls-1" d="M600.65,174.28a.33.33,0,0,1,0-.5l1.47-1.59a.36.36,0,0,1,.51,0,8.34,8.34,0,0,0,5.32,2c2.52,0,3.78-1.08,3.78-2.62,0-1.37-.64-2.13-3.34-2.42l-1.84-.18c-3.38-.36-5.15-2-5.15-4.86,0-3.27,2.34-5.25,6.41-5.25a10.32,10.32,0,0,1,6.12,1.91.34.34,0,0,1,.07.5l-1.22,1.55a.36.36,0,0,1-.51.07,9.06,9.06,0,0,0-4.64-1.4c-2.16,0-3.28,1-3.28,2.37s.83,2.09,3.39,2.34l1.8.18c3.49.33,5.18,2.09,5.18,4.86,0,3.38-2.45,5.65-7,5.65A10.72,10.72,0,0,1,600.65,174.28Z"/><path class="cls-1" d="M618.68,172.66h2.52a.34.34,0,0,1,.36.36v3.35a1.14,1.14,0,0,1-.21.79l-2.24,3a.55.55,0,0,1-.46.25.32.32,0,0,1-.33-.32v-7A.35.35,0,0,1,618.68,172.66Z"/><path class="cls-1" d="M638.09,176.48c-.26,0-.36-.15-.44-.36l-6.19-16.53c-.07-.21,0-.36.29-.36h2.48c.26,0,.36.11.47.36L639.17,172h.07l4.35-12.39a.43.43,0,0,1,.44-.36h2.44c.25,0,.36.15.29.36l-6.15,16.53a.48.48,0,0,1-.47.36Z"/><path class="cls-1" d="M660.19,176.48a.34.34,0,0,1-.36-.36V174.6h0c-.79,1.3-2.48,2.27-5.11,2.27-3.27,0-5.79-1.69-5.79-5.18s2.52-5.33,6.73-5.33h3.92c.15,0,.22-.07.22-.21v-1.26c0-2.38-.94-3.39-4.14-3.39a6.71,6.71,0,0,0-4.18,1.23.32.32,0,0,1-.5,0L650,161a.37.37,0,0,1,.07-.5,9.54,9.54,0,0,1,5.87-1.69c4.89,0,6.76,1.62,6.76,5.87v11.41a.34.34,0,0,1-.36.36Zm-.43-5.58V169a.2.2,0,0,0-.22-.22h-3.45c-3,0-4.29.87-4.29,2.81,0,1.77,1.3,2.7,3.6,2.7C658.1,174.28,659.76,173,659.76,170.9Z"/><path class="cls-1" d="M667.71,183a.35.35,0,0,1-.36-.36v-2.09a.34.34,0,0,1,.36-.36h.65c1.41,0,2.16-.61,2.92-2.59l.57-1.59-6.33-16.38c-.07-.21,0-.36.29-.36h2.52a.42.42,0,0,1,.43.36l4.53,12.46h.08l4.35-12.46a.42.42,0,0,1,.43-.36h2.45c.22,0,.36.15.29.36l-6.8,18.22c-1.52,4.07-2.85,5.15-5.44,5.15Z"/><path class="cls-1" d="M694.25,176.48a.35.35,0,0,1-.37-.36V174.6h0c-.79,1.3-2.48,2.27-5.11,2.27-3.28,0-5.8-1.69-5.8-5.18s2.52-5.33,6.73-5.33h3.93a.19.19,0,0,0,.21-.21v-1.26c0-2.38-.93-3.39-4.14-3.39a6.7,6.7,0,0,0-4.17,1.23.33.33,0,0,1-.51,0L684,161a.38.38,0,0,1,.07-.5,9.58,9.58,0,0,1,5.87-1.69c4.9,0,6.77,1.62,6.77,5.87v11.41a.35.35,0,0,1-.36.36Zm-.44-5.58V169a.19.19,0,0,0-.21-.22h-3.46c-3,0-4.28.87-4.28,2.81,0,1.77,1.29,2.7,3.6,2.7C692.16,174.28,693.81,173,693.81,170.9Z"/><path class="cls-1" d="M176.65,214.48a.34.34,0,0,1-.36-.36V212.6h0c-.79,1.3-2.48,2.27-5.11,2.27-3.28,0-5.8-1.69-5.8-5.18s2.52-5.33,6.74-5.33H176a.19.19,0,0,0,.21-.21v-1.26c0-2.38-.93-3.39-4.13-3.39a6.71,6.71,0,0,0-4.18,1.23c-.18.14-.4.14-.5,0l-1-1.66a.38.38,0,0,1,.08-.5,9.53,9.53,0,0,1,5.86-1.69c4.9,0,6.77,1.62,6.77,5.87v11.41a.34.34,0,0,1-.36.36Zm-.44-5.58V207a.19.19,0,0,0-.21-.22h-3.46c-3,0-4.28.87-4.28,2.81,0,1.77,1.3,2.7,3.6,2.7C174.56,212.28,176.21,211,176.21,208.9Z"/><path class="cls-1" d="M183.67,201.48a6.68,6.68,0,0,1,6.8-4.64,6.92,6.92,0,0,1,5.9,2.91.34.34,0,0,1-.1.51l-1.59,1.29a.31.31,0,0,1-.5,0,4.24,4.24,0,0,0-3.71-1.87,3.74,3.74,0,0,0-3.85,2.7,11.4,11.4,0,0,0-.4,3.49,11.52,11.52,0,0,0,.4,3.53,3.74,3.74,0,0,0,3.85,2.7,4.25,4.25,0,0,0,3.71-1.88.31.31,0,0,1,.5,0l1.59,1.29a.34.34,0,0,1,.1.51,6.9,6.9,0,0,1-5.9,2.91c-3.31,0-5.83-1.65-6.8-4.64a18,18,0,0,1,0-8.75Z"/><path class="cls-1" d="M199.54,210.23a17.07,17.07,0,0,1,0-8.75c.94-2.95,3.46-4.64,6.81-4.64s5.86,1.69,6.8,4.64a16.79,16.79,0,0,1,0,8.75,7.31,7.31,0,0,1-13.61,0Zm10.69-.86a11.27,11.27,0,0,0,.4-3.53,10.91,10.91,0,0,0-.4-3.49,4.15,4.15,0,0,0-7.77,0,10.91,10.91,0,0,0-.4,3.49,11.27,11.27,0,0,0,.4,3.53,4.15,4.15,0,0,0,7.77,0Z"/><path class="cls-1" d="M239.9,214.48a.34.34,0,0,1-.36-.36V204c0-2.77-1.26-4.39-3.86-4.39a3.88,3.88,0,0,0-4,4.21v10.26a.35.35,0,0,1-.36.36h-2.31a.35.35,0,0,1-.36-.36V204c0-2.77-1.26-4.39-3.85-4.39a3.87,3.87,0,0,0-4,4.21v10.26a.34.34,0,0,1-.36.36h-2.3a.34.34,0,0,1-.36-.36V197.59a.34.34,0,0,1,.36-.36h2.3a.34.34,0,0,1,.36.36v1.59h0a6.09,6.09,0,0,1,9.86.36h0a6.39,6.39,0,0,1,5.57-2.7c4,0,6.16,2.55,6.16,6.48v10.8a.34.34,0,0,1-.36.36Z"/><path class="cls-1" d="M247.93,221a.34.34,0,0,1-.36-.36v-23a.34.34,0,0,1,.36-.36h2.3a.34.34,0,0,1,.36.36v1.62h0c.82-1.36,2.3-2.37,4.89-2.37,3,0,5.08,1.4,5.94,4.14a19.78,19.78,0,0,1,0,9.75c-.86,2.74-2.95,4.14-5.94,4.14-2.59,0-4.07-1-4.89-2.41h0v8.14a.34.34,0,0,1-.36.36Zm10.65-11.52a11.89,11.89,0,0,0,.4-3.6,12.15,12.15,0,0,0-.4-3.6,4.08,4.08,0,0,0-7.59,0,11.12,11.12,0,0,0-.4,3.6,11,11,0,0,0,.4,3.6,4.05,4.05,0,0,0,7.59,0Z"/><path class="cls-1" d="M276.65,214.48a.35.35,0,0,1-.36-.36V212.6h0c-.79,1.3-2.49,2.27-5.11,2.27-3.28,0-5.8-1.69-5.8-5.18s2.52-5.33,6.73-5.33H276a.19.19,0,0,0,.21-.21v-1.26c0-2.38-.93-3.39-4.14-3.39a6.68,6.68,0,0,0-4.17,1.23.33.33,0,0,1-.51,0l-1-1.66a.38.38,0,0,1,.07-.5,9.56,9.56,0,0,1,5.87-1.69c4.9,0,6.77,1.62,6.77,5.87v11.41a.35.35,0,0,1-.36.36Zm-.43-5.58V207a.19.19,0,0,0-.21-.22h-3.46c-3,0-4.28.87-4.28,2.81,0,1.77,1.29,2.7,3.6,2.7C274.57,212.28,276.22,211,276.22,208.9Z"/><path class="cls-1" d="M295.37,214.48a.35.35,0,0,1-.36-.36V204c0-2.77-1.26-4.39-3.85-4.39a3.87,3.87,0,0,0-4,4.21v10.26a.34.34,0,0,1-.36.36h-2.3a.34.34,0,0,1-.36-.36V197.59a.34.34,0,0,1,.36-.36h2.3a.34.34,0,0,1,.36.36v1.59h0a5.45,5.45,0,0,1,4.82-2.34c3.74,0,6,2.55,6,6.48v10.8a.35.35,0,0,1-.36.36ZM290.73,193a3.8,3.8,0,0,0-1.91-.65,3.43,3.43,0,0,0-2.27,1.15c-.14.15-.28.07-.28-.07v-1.73a.83.83,0,0,1,.25-.65,3.53,3.53,0,0,1,2.45-1.15,4.16,4.16,0,0,1,2.26.76,3.8,3.8,0,0,0,1.91.65,3.38,3.38,0,0,0,2.27-1.16c.14-.14.29-.07.29.08v1.72a.82.82,0,0,1-.26.65,3.47,3.47,0,0,1-2.44,1.15A4.39,4.39,0,0,1,290.73,193Z"/><path class="cls-1" d="M313.48,214.48a.34.34,0,0,1-.36-.36V212.6h0c-.79,1.3-2.48,2.27-5.11,2.27-3.27,0-5.79-1.69-5.79-5.18s2.52-5.33,6.73-5.33h3.92c.15,0,.22-.07.22-.21v-1.26c0-2.38-.94-3.39-4.14-3.39a6.73,6.73,0,0,0-4.18,1.23.32.32,0,0,1-.5,0l-1-1.66a.38.38,0,0,1,.07-.5,9.56,9.56,0,0,1,5.87-1.69c4.89,0,6.76,1.62,6.76,5.87v11.41a.34.34,0,0,1-.36.36Zm-.43-5.58V207a.2.2,0,0,0-.22-.22h-3.45c-3,0-4.29.87-4.29,2.81,0,1.77,1.3,2.7,3.6,2.7C311.39,212.28,313.05,211,313.05,208.9Z"/><path class="cls-1" d="M331.8,214.48a.35.35,0,0,1-.36-.36v-1.66h0c-.83,1.37-2.31,2.41-4.9,2.41a5.71,5.71,0,0,1-5.94-4.14,19.78,19.78,0,0,1,0-9.75,5.71,5.71,0,0,1,5.94-4.14c2.59,0,4.07,1,4.9,2.37h0v-8.85a.34.34,0,0,1,.36-.36h2.31a.34.34,0,0,1,.36.36v23.76a.35.35,0,0,1-.36.36Zm-.75-5a11.06,11.06,0,0,0,.39-3.6,11.18,11.18,0,0,0-.39-3.6,4.08,4.08,0,0,0-7.6,0,12.54,12.54,0,0,0-.39,3.6,12.28,12.28,0,0,0,.39,3.6,4.06,4.06,0,0,0,7.6,0Z"/><path class="cls-1" d="M339.19,210.23a16.79,16.79,0,0,1,0-8.75c.93-2.95,3.45-4.64,6.8-4.64s5.87,1.69,6.8,4.64a16.79,16.79,0,0,1,0,8.75c-.93,2.92-3.45,4.64-6.8,4.64S340.12,213.15,339.19,210.23Zm10.69-.86a11.32,11.32,0,0,0,.39-3.53,11,11,0,0,0-.39-3.49,4.15,4.15,0,0,0-7.78,0,11,11,0,0,0-.39,3.49,11.32,11.32,0,0,0,.39,3.53,4.15,4.15,0,0,0,7.78,0Z"/><path class="cls-1" d="M376.23,214.48a.34.34,0,0,1-.36-.36v-1.66h0c-.83,1.37-2.3,2.41-4.89,2.41-3,0-5.08-1.4-5.94-4.14a19.78,19.78,0,0,1,0-9.75c.86-2.74,2.95-4.14,5.94-4.14,2.59,0,4.06,1,4.89,2.37h0v-8.85a.34.34,0,0,1,.36-.36h2.3a.34.34,0,0,1,.36.36v23.76a.34.34,0,0,1-.36.36Zm-.76-5a11,11,0,0,0,.4-3.6,11.12,11.12,0,0,0-.4-3.6,4.08,4.08,0,0,0-7.59,0,12.15,12.15,0,0,0-.4,3.6,11.89,11.89,0,0,0,.4,3.6,4.05,4.05,0,0,0,7.59,0Z"/><path class="cls-1" d="M383.61,210.19a17.21,17.21,0,0,1,0-8.71,7.26,7.26,0,0,1,13.54,0,15.08,15.08,0,0,1,.54,4.93.35.35,0,0,1-.4.36H386.34a.19.19,0,0,0-.21.22,6.47,6.47,0,0,0,.29,2.09,4.25,4.25,0,0,0,4.35,3,5.65,5.65,0,0,0,4.43-1.91c.18-.18.36-.22.54-.07l1.48,1.33a.31.31,0,0,1,0,.5,8.38,8.38,0,0,1-6.73,3C387,214.87,384.54,213.18,383.61,210.19Zm10.73-5.83a.19.19,0,0,0,.21-.21,6.08,6.08,0,0,0-.25-2,4.25,4.25,0,0,0-7.92,0,6.08,6.08,0,0,0-.25,2,.19.19,0,0,0,.21.21Z"/><path class="cls-1" d="M410.07,221a.34.34,0,0,1-.36-.36v-23a.34.34,0,0,1,.36-.36h2.3a.34.34,0,0,1,.36.36v1.62h0c.83-1.36,2.3-2.37,4.89-2.37,3,0,5.08,1.4,5.94,4.14a19.78,19.78,0,0,1,0,9.75c-.86,2.74-3,4.14-5.94,4.14-2.59,0-4.06-1-4.89-2.41h0v8.14a.34.34,0,0,1-.36.36Zm10.65-11.52a11.89,11.89,0,0,0,.4-3.6,12.15,12.15,0,0,0-.4-3.6,4.08,4.08,0,0,0-7.59,0,11.12,11.12,0,0,0-.4,3.6,11,11,0,0,0,.4,3.6,4.05,4.05,0,0,0,7.59,0Z"/><path class="cls-1" d="M427.89,210.19a17.21,17.21,0,0,1,0-8.71,7.26,7.26,0,0,1,13.54,0,15.08,15.08,0,0,1,.54,4.93.35.35,0,0,1-.4.36H430.62a.19.19,0,0,0-.21.22,6.47,6.47,0,0,0,.29,2.09,4.25,4.25,0,0,0,4.35,3,5.65,5.65,0,0,0,4.43-1.91c.18-.18.36-.22.54-.07l1.47,1.33a.32.32,0,0,1,0,.5,8.38,8.38,0,0,1-6.73,3C431.31,214.87,428.82,213.18,427.89,210.19Zm10.72-5.83c.15,0,.22-.07.22-.21a6.08,6.08,0,0,0-.25-2,4.25,4.25,0,0,0-7.92,0,6.08,6.08,0,0,0-.25,2,.19.19,0,0,0,.21.21Z"/><path class="cls-1" d="M446.43,214.48a.34.34,0,0,1-.36-.36V197.59a.34.34,0,0,1,.36-.36h2.3a.34.34,0,0,1,.36.36v1.77h0a4.79,4.79,0,0,1,4.57-2.52,5.32,5.32,0,0,1,3.53,1.29c.18.18.21.33.07.51L456,200.4a.33.33,0,0,1-.51.07,4.86,4.86,0,0,0-2.66-.82c-2.63,0-3.71,2-3.71,5v9.43a.34.34,0,0,1-.36.36Z"/><path class="cls-1" d="M458.63,212.28a.35.35,0,0,1,0-.5l1.48-1.59a.35.35,0,0,1,.5,0,8.37,8.37,0,0,0,5.33,2c2.52,0,3.78-1.08,3.78-2.62,0-1.37-.65-2.13-3.35-2.42l-1.84-.18c-3.38-.36-5.14-2-5.14-4.86,0-3.27,2.34-5.25,6.4-5.25a10.32,10.32,0,0,1,6.12,1.91.35.35,0,0,1,.08.5l-1.23,1.55a.35.35,0,0,1-.5.07,9.09,9.09,0,0,0-4.65-1.4c-2.15,0-3.27,1-3.27,2.37s.83,2.09,3.38,2.34l1.8.18c3.49.33,5.19,2.09,5.19,4.86,0,3.38-2.45,5.65-6.95,5.65A10.75,10.75,0,0,1,458.63,212.28Z"/><path class="cls-1" d="M476.27,210.23a17.07,17.07,0,0,1,0-8.75c.94-2.95,3.46-4.64,6.8-4.64s5.87,1.69,6.81,4.64a17.07,17.07,0,0,1,0,8.75,7.31,7.31,0,0,1-13.61,0Zm10.69-.86a11.27,11.27,0,0,0,.4-3.53,10.91,10.91,0,0,0-.4-3.49,4.15,4.15,0,0,0-7.77,0,10.91,10.91,0,0,0-.4,3.49,11.27,11.27,0,0,0,.4,3.53,4.15,4.15,0,0,0,7.77,0Z"/><path class="cls-1" d="M505.79,214.48a.34.34,0,0,1-.36-.36V204c0-2.77-1.26-4.39-3.85-4.39a3.87,3.87,0,0,0-4,4.21v10.26a.35.35,0,0,1-.36.36H495a.35.35,0,0,1-.36-.36V197.59a.35.35,0,0,1,.36-.36h2.31a.35.35,0,0,1,.36.36v1.59h0a5.47,5.47,0,0,1,4.83-2.34c3.74,0,6,2.55,6,6.48v10.8a.34.34,0,0,1-.36.36Z"/><path class="cls-1" d="M523.9,214.48a.34.34,0,0,1-.36-.36V212.6h0c-.79,1.3-2.48,2.27-5.11,2.27-3.28,0-5.8-1.69-5.8-5.18s2.52-5.33,6.74-5.33h3.92a.19.19,0,0,0,.21-.21v-1.26c0-2.38-.93-3.39-4.13-3.39a6.71,6.71,0,0,0-4.18,1.23c-.18.14-.4.14-.5,0l-1-1.66a.38.38,0,0,1,.08-.5,9.53,9.53,0,0,1,5.86-1.69c4.9,0,6.77,1.62,6.77,5.87v11.41a.34.34,0,0,1-.36.36Zm-.44-5.58V207a.19.19,0,0,0-.21-.22h-3.46c-3,0-4.28.87-4.28,2.81,0,1.77,1.3,2.7,3.6,2.7C521.81,212.28,523.46,211,523.46,208.9Z"/><path class="cls-1" d="M535.56,214.66c-3,0-4.21-1.44-4.21-4.54V190.36a.34.34,0,0,1,.36-.36H534a.34.34,0,0,1,.36.36v19.58c0,1.44.54,1.91,1.73,1.91h.69a.34.34,0,0,1,.36.36v2.09a.35.35,0,0,1-.36.36Z"/></g></g></svg>