<svg xmlns="http://www.w3.org/2000/svg" viewBox="0 0 449.39 331.64"><title>r2</title><g id="Capa_2" data-name="Capa 2"><g id="fondo"><path d="M8.84,27.2a.38.38,0,0,1-.4-.4V3.56a.21.21,0,0,0-.24-.24H.76a.38.38,0,0,1-.4-.4V.4A.38.38,0,0,1,.76,0H19.68a.38.38,0,0,1,.4.4V2.92a.38.38,0,0,1-.4.4H12.24a.21.21,0,0,0-.24.24V26.8a.38.38,0,0,1-.4.4Z"/><path d="M20.28,22.44a15,15,0,0,1-.64-4.84,14.86,14.86,0,0,1,.6-4.84c1.08-3.32,3.88-5.16,7.52-5.16a7.42,7.42,0,0,1,7.52,5.16,16.72,16.72,0,0,1,.6,5.48.39.39,0,0,1-.44.4H23.32a.21.21,0,0,0-.24.24,7.18,7.18,0,0,0,.32,2.32,4.73,4.73,0,0,0,4.84,3.32,6.26,6.26,0,0,0,4.92-2.12.41.41,0,0,1,.6-.08L35.4,23.8a.36.36,0,0,1,0,.56A9.32,9.32,0,0,1,28,27.64C24.08,27.64,21.32,25.76,20.28,22.44ZM32.2,16a.21.21,0,0,0,.24-.24,6.74,6.74,0,0,0-.28-2.16,4.33,4.33,0,0,0-4.4-3,4.33,4.33,0,0,0-4.4,3,6.74,6.74,0,0,0-.28,2.16.21.21,0,0,0,.24.24Z"/><path d="M52.92,27.2a.38.38,0,0,1-.4-.4V15.6c0-3.08-1.4-4.88-4.28-4.88-2.6,0-4.4,1.84-4.4,4.68V26.8a.38.38,0,0,1-.4.4H40.88a.38.38,0,0,1-.4-.4V8.44a.38.38,0,0,1,.4-.4h2.56a.38.38,0,0,1,.4.4V10.2h0a6.06,6.06,0,0,1,5.36-2.6c4.16,0,6.64,2.84,6.64,7.2v12a.38.38,0,0,1-.4.4Z"/><path d="M61,32a.36.36,0,0,1,0-.56l1.64-1.64a.38.38,0,0,1,.6,0,6.39,6.39,0,0,0,4.52,1.92c3.16,0,4.84-1.64,4.84-5.15V24.32h0c-.88,1.6-2.52,2.64-5.32,2.64a6.28,6.28,0,0,1-6.44-4.64,15,15,0,0,1-.64-5,15,15,0,0,1,.64-5A6.28,6.28,0,0,1,67.32,7.6c2.8,0,4.44,1,5.32,2.64h0V8.44a.38.38,0,0,1,.4-.4h2.56a.38.38,0,0,1,.4.4V26.36c0,5.43-3,8.47-8.36,8.47A8.66,8.66,0,0,1,61,32Zm11.2-11a11.65,11.65,0,0,0,.44-3.72,11.81,11.81,0,0,0-.44-3.72,4.32,4.32,0,0,0-8.12,0,12,12,0,0,0-.48,3.72A11.83,11.83,0,0,0,64.12,21a3.91,3.91,0,0,0,4,2.88A4,4,0,0,0,72.24,21Z"/><path d="M93.4,27.2a.38.38,0,0,1-.4-.4V25.12h0c-.88,1.44-2.76,2.52-5.68,2.52-3.64,0-6.44-1.88-6.44-5.76,0-4,2.8-5.92,7.48-5.92h4.36a.21.21,0,0,0,.24-.24v-1.4c0-2.64-1-3.76-4.6-3.76a7.45,7.45,0,0,0-4.64,1.36c-.2.16-.44.16-.56,0L82,10a.42.42,0,0,1,.08-.56A10.63,10.63,0,0,1,88.64,7.6c5.44,0,7.52,1.8,7.52,6.52V26.8a.38.38,0,0,1-.4.4ZM92.92,21V18.88a.21.21,0,0,0-.24-.24H88.84c-3.32,0-4.76,1-4.76,3.12,0,2,1.44,3,4,3C91.08,24.76,92.92,23.36,92.92,21Z"/><path d="M110,22.44a15,15,0,0,1-.64-4.84,14.86,14.86,0,0,1,.6-4.84c1.08-3.32,3.88-5.16,7.52-5.16A7.42,7.42,0,0,1,125,12.76a16.72,16.72,0,0,1,.6,5.48.39.39,0,0,1-.44.4H113.08a.21.21,0,0,0-.24.24,7.18,7.18,0,0,0,.32,2.32A4.73,4.73,0,0,0,118,24.52a6.26,6.26,0,0,0,4.92-2.12.41.41,0,0,1,.6-.08l1.64,1.48a.36.36,0,0,1,0,.56,9.32,9.32,0,0,1-7.48,3.28C113.84,27.64,111.08,25.76,110,22.44ZM122,16a.21.21,0,0,0,.24-.24,6.74,6.74,0,0,0-.28-2.16,4.73,4.73,0,0,0-8.8,0,6.74,6.74,0,0,0-.28,2.16.21.21,0,0,0,.24.24Z"/><path d="M142.68,27.2a.38.38,0,0,1-.4-.4V15.6c0-3.08-1.4-4.88-4.28-4.88-2.6,0-4.4,1.84-4.4,4.68V26.8a.38.38,0,0,1-.4.4h-2.56a.38.38,0,0,1-.4-.4V8.44a.38.38,0,0,1,.4-.4h2.56a.38.38,0,0,1,.4.4V10.2h0A6.06,6.06,0,0,1,139,7.6c4.16,0,6.64,2.84,6.64,7.2v12a.38.38,0,0,1-.4.4Z"/><path d="M159.44,12.76c1.08-3.32,3.88-5.16,7.56-5.16a7.68,7.68,0,0,1,6.56,3.24c.12.2.12.36-.12.56l-1.76,1.44a.36.36,0,0,1-.56,0A4.71,4.71,0,0,0,167,10.72a4.16,4.16,0,0,0-4.28,3,12.76,12.76,0,0,0-.44,3.88,12.88,12.88,0,0,0,.44,3.92,4.16,4.16,0,0,0,4.28,3,4.71,4.71,0,0,0,4.12-2.08.36.36,0,0,1,.56,0l1.76,1.44c.24.2.24.36.12.56A7.68,7.68,0,0,1,167,27.64c-3.68,0-6.48-1.84-7.56-5.16a16.55,16.55,0,0,1-.6-4.88A16.45,16.45,0,0,1,159.44,12.76Z"/><path d="M190.12,27.2a.38.38,0,0,1-.4-.4V25h0a5.84,5.84,0,0,1-5.24,2.64c-4.2,0-6.64-2.88-6.64-7.24v-12a.38.38,0,0,1,.4-.4h2.56a.38.38,0,0,1,.4.4V19.6c0,3.12,1.4,4.92,4.24,4.92,2.6,0,4.32-1.84,4.32-4.72V8.44a.38.38,0,0,1,.4-.4h2.56a.38.38,0,0,1,.4.4V26.8a.38.38,0,0,1-.4.4Z"/><path d="M198.32,22.44a15,15,0,0,1-.64-4.84,14.86,14.86,0,0,1,.6-4.84c1.08-3.32,3.88-5.16,7.52-5.16s6.44,1.88,7.51,5.16a16.64,16.64,0,0,1,.61,5.48.39.39,0,0,1-.44.4H201.36a.21.21,0,0,0-.24.24,7.18,7.18,0,0,0,.32,2.32,4.73,4.73,0,0,0,4.84,3.32,6.26,6.26,0,0,0,4.92-2.12.41.41,0,0,1,.6-.08l1.64,1.48a.36.36,0,0,1,0,.56A9.32,9.32,0,0,1,206,27.64C202.12,27.64,199.36,25.76,198.32,22.44ZM210.24,16a.21.21,0,0,0,.24-.24,6.74,6.74,0,0,0-.28-2.16,4.73,4.73,0,0,0-8.8,0,6.74,6.74,0,0,0-.28,2.16.21.21,0,0,0,.24.24Z"/><path d="M231,27.2a.38.38,0,0,1-.4-.4V15.6c0-3.08-1.4-4.88-4.28-4.88-2.6,0-4.4,1.84-4.4,4.68V26.8a.38.38,0,0,1-.4.4h-2.56a.38.38,0,0,1-.4-.4V8.44a.38.38,0,0,1,.4-.4h2.56a.38.38,0,0,1,.4.4V10.2h0a6.06,6.06,0,0,1,5.36-2.6c4.16,0,6.63,2.84,6.63,7.2v12a.38.38,0,0,1-.4.4Z"/><path d="M245,27.4c-3.72,0-5.16-1.68-5.16-5.44V11a.21.21,0,0,0-.24-.24H238a.38.38,0,0,1-.4-.4V8.44A.38.38,0,0,1,238,8h1.6a.21.21,0,0,0,.24-.24V2.4a.38.38,0,0,1,.4-.4h2.56a.38.38,0,0,1,.4.4V7.8a.21.21,0,0,0,.24.24h3a.38.38,0,0,1,.4.4v1.92a.38.38,0,0,1-.4.4h-3a.21.21,0,0,0-.24.24V21.84c0,1.92.72,2.44,2.44,2.44h.84a.38.38,0,0,1,.4.4V27a.38.38,0,0,1-.4.4Z"/><path d="M262.91,27.2a.38.38,0,0,1-.4-.4V25.12h0c-.88,1.44-2.75,2.52-5.67,2.52-3.64,0-6.44-1.88-6.44-5.76,0-4,2.8-5.92,7.48-5.92h4.35a.21.21,0,0,0,.24-.24v-1.4c0-2.64-1-3.76-4.59-3.76a7.45,7.45,0,0,0-4.64,1.36c-.2.16-.44.16-.56,0L251.56,10a.42.42,0,0,1,.08-.56,10.63,10.63,0,0,1,6.52-1.88c5.43,0,7.51,1.8,7.51,6.52V26.8a.38.38,0,0,1-.4.4Zm-.48-6.2V18.88a.21.21,0,0,0-.24-.24h-3.83c-3.32,0-4.76,1-4.76,3.12,0,2,1.44,3,4,3C260.6,24.76,262.43,23.36,262.43,21Z"/><path d="M292.07,34.39a.38.38,0,0,1-.4-.4V25h0c-.92,1.52-2.56,2.68-5.43,2.68-3.32,0-5.64-1.56-6.6-4.6a16,16,0,0,1-.68-5.44,15.84,15.84,0,0,1,.68-5.4c1-3,3.28-4.6,6.6-4.6,2.87,0,4.51,1.12,5.43,2.64h0V8.44a.38.38,0,0,1,.4-.4h2.56a.38.38,0,0,1,.4.4V34a.38.38,0,0,1-.4.4Zm-.84-12.79a12.31,12.31,0,0,0,.44-4,12.47,12.47,0,0,0-.44-4,4.52,4.52,0,0,0-8.43,0,13.63,13.63,0,0,0-.44,4,13.29,13.29,0,0,0,.44,4,4.5,4.5,0,0,0,8.43,0Z"/><path d="M312.83,27.2a.38.38,0,0,1-.4-.4V25h0a5.84,5.84,0,0,1-5.24,2.64c-4.19,0-6.63-2.88-6.63-7.24v-12a.38.38,0,0,1,.4-.4h2.56a.38.38,0,0,1,.4.4V19.6c0,3.12,1.39,4.92,4.23,4.92,2.6,0,4.32-1.84,4.32-4.72V8.44a.38.38,0,0,1,.4-.4h2.56a.38.38,0,0,1,.4.4V26.8a.38.38,0,0,1-.4.4Z"/><path d="M321,22.44a15,15,0,0,1-.64-4.84,14.86,14.86,0,0,1,.6-4.84c1.08-3.32,3.88-5.16,7.51-5.16A7.42,7.42,0,0,1,336,12.76a16.72,16.72,0,0,1,.6,5.48.39.39,0,0,1-.44.4H324.07a.22.22,0,0,0-.24.24,7.47,7.47,0,0,0,.32,2.32A4.73,4.73,0,0,0,329,24.52a6.26,6.26,0,0,0,4.92-2.12.41.41,0,0,1,.6-.08l1.64,1.48a.36.36,0,0,1,0,.56,9.32,9.32,0,0,1-7.48,3.28C324.83,27.64,322.08,25.76,321,22.44ZM333,16a.21.21,0,0,0,.24-.24,6.74,6.74,0,0,0-.28-2.16,4.73,4.73,0,0,0-8.8,0,7,7,0,0,0-.28,2.16.22.22,0,0,0,.24.24Z"/><path d="M348.71,24.76a.39.39,0,0,1,0-.56l1.64-1.76a.39.39,0,0,1,.56,0,9.31,9.31,0,0,0,5.92,2.2c2.8,0,4.2-1.2,4.2-2.92,0-1.52-.72-2.36-3.72-2.68l-2-.2c-3.76-.4-5.72-2.28-5.72-5.4,0-3.64,2.6-5.84,7.12-5.84a11.46,11.46,0,0,1,6.8,2.12.39.39,0,0,1,.08.56L362.19,12a.39.39,0,0,1-.56.08,10.09,10.09,0,0,0-5.16-1.56c-2.4,0-3.64,1.08-3.64,2.64s.92,2.32,3.76,2.6l2,.2c3.88.36,5.76,2.32,5.76,5.4,0,3.76-2.72,6.28-7.72,6.28A11.91,11.91,0,0,1,348.71,24.76Z"/><path d="M369.15,3.72a.38.38,0,0,1-.4-.4V.4a.38.38,0,0,1,.4-.4h2.72a.38.38,0,0,1,.4.4V3.32a.38.38,0,0,1-.4.4Zm.08,23.48a.38.38,0,0,1-.4-.4V8.44a.38.38,0,0,1,.4-.4h2.56a.38.38,0,0,1,.4.4V26.8a.38.38,0,0,1-.4.4Z"/><path d="M391.87,27.2c-.28,0-.4-.16-.48-.4L384.51,8.44c-.08-.24,0-.4.32-.4h2.76c.28,0,.4.12.52.4l5,13.76h.08L398,8.44a.47.47,0,0,1,.48-.4h2.72c.28,0,.4.16.32.4L394.67,26.8a.52.52,0,0,1-.52.4Z"/><path d="M416.43,27.2a.38.38,0,0,1-.4-.4V25.12h0c-.88,1.44-2.76,2.52-5.68,2.52-3.64,0-6.44-1.88-6.44-5.76,0-4,2.8-5.92,7.48-5.92h4.36a.21.21,0,0,0,.24-.24v-1.4c0-2.64-1-3.76-4.6-3.76a7.45,7.45,0,0,0-4.64,1.36c-.2.16-.44.16-.56,0L405.07,10a.42.42,0,0,1,.08-.56,10.63,10.63,0,0,1,6.52-1.88c5.44,0,7.52,1.8,7.52,6.52V26.8a.38.38,0,0,1-.4.4ZM416,21V18.88a.21.21,0,0,0-.24-.24h-3.84c-3.32,0-4.76,1-4.76,3.12,0,2,1.44,3,4,3C414.11,24.76,416,23.36,416,21Z"/><path d="M445.19,27.2a.38.38,0,0,1-.4-.4V25.12h0c-.88,1.44-2.76,2.52-5.68,2.52-3.64,0-6.44-1.88-6.44-5.76,0-4,2.8-5.92,7.48-5.92h4.36a.21.21,0,0,0,.24-.24v-1.4c0-2.64-1-3.76-4.6-3.76a7.45,7.45,0,0,0-4.64,1.36c-.2.16-.44.16-.56,0L433.83,10a.42.42,0,0,1,.08-.56,10.63,10.63,0,0,1,6.52-1.88c5.44,0,7.52,1.8,7.52,6.52V26.8a.38.38,0,0,1-.4.4Zm-.48-6.2V18.88a.21.21,0,0,0-.24-.24h-3.84c-3.32,0-4.76,1-4.76,3.12,0,2,1.44,3,4,3C442.87,24.76,444.71,23.36,444.71,21Z"/><path d="M66.2,65.4C62.48,65.4,61,63.72,61,60V49a.21.21,0,0,0-.24-.24H59.2a.38.38,0,0,1-.4-.4V46.44a.38.38,0,0,1,.4-.4h1.6A.21.21,0,0,0,61,45.8V40.4a.38.38,0,0,1,.4-.4H64a.38.38,0,0,1,.4.4v5.4a.21.21,0,0,0,.24.24h3a.38.38,0,0,1,.4.4v1.92a.38.38,0,0,1-.4.4h-3a.21.21,0,0,0-.24.24V59.84c0,1.92.72,2.44,2.44,2.44h.84a.38.38,0,0,1,.4.4V65a.38.38,0,0,1-.4.4Z"/><path d="M72.88,65.2a.38.38,0,0,1-.4-.4V46.44a.38.38,0,0,1,.4-.4h2.56a.38.38,0,0,1,.4.4v2h0A5.34,5.34,0,0,1,81,45.6,5.89,5.89,0,0,1,84.88,47c.2.2.24.36.08.56l-1.48,2a.36.36,0,0,1-.56.08,5.4,5.4,0,0,0-3-.92c-2.92,0-4.12,2.28-4.12,5.6V64.8a.38.38,0,0,1-.4.4Z"/><path d="M98.72,65.2a.38.38,0,0,1-.4-.4V63.12h0c-.88,1.44-2.76,2.52-5.68,2.52-3.64,0-6.44-1.88-6.44-5.76,0-4,2.8-5.92,7.48-5.92H98a.21.21,0,0,0,.24-.24v-1.4c0-2.64-1-3.76-4.6-3.76A7.45,7.45,0,0,0,89,49.92c-.2.16-.44.16-.56,0L87.36,48a.42.42,0,0,1,.08-.56A10.63,10.63,0,0,1,94,45.6c5.44,0,7.52,1.8,7.52,6.52V64.8a.38.38,0,0,1-.4.4ZM98.24,59V56.88a.21.21,0,0,0-.24-.24H94.16c-3.32,0-4.76,1-4.76,3.12,0,2,1.44,3,4,3C96.4,62.76,98.24,61.36,98.24,59Z"/><path d="M107.48,65.2a.38.38,0,0,1-.4-.4V38.4a.38.38,0,0,1,.4-.4H110a.38.38,0,0,1,.4.4v9.84h0c.92-1.52,2.56-2.64,5.44-2.64,3.32,0,5.64,1.56,6.6,4.6a15.84,15.84,0,0,1,.68,5.4,16,16,0,0,1-.68,5.44c-1,3-3.28,4.6-6.6,4.6-2.88,0-4.52-1.16-5.44-2.68h0V64.8a.38.38,0,0,1-.4.4Zm11.84-5.6a13.29,13.29,0,0,0,.44-4,13.63,13.63,0,0,0-.44-4,4.53,4.53,0,0,0-8.44,0,12.47,12.47,0,0,0-.44,4,12.31,12.31,0,0,0,.44,4,4.51,4.51,0,0,0,8.44,0Z"/><path d="M139.4,65.2a.38.38,0,0,1-.4-.4V63.12h0c-.88,1.44-2.76,2.52-5.68,2.52-3.64,0-6.44-1.88-6.44-5.76,0-4,2.8-5.92,7.48-5.92h4.36a.21.21,0,0,0,.24-.24v-1.4c0-2.64-1-3.76-4.6-3.76a7.45,7.45,0,0,0-4.64,1.36c-.2.16-.44.16-.56,0L128,48a.42.42,0,0,1,.08-.56,10.63,10.63,0,0,1,6.52-1.88c5.44,0,7.52,1.8,7.52,6.52V64.8a.38.38,0,0,1-.4.4Zm-.48-6.2V56.88a.21.21,0,0,0-.24-.24h-3.84c-3.32,0-4.76,1-4.76,3.12,0,2,1.44,3,4,3C137.08,62.76,138.92,61.36,138.92,59Z"/><path d="M144.6,72.39a.38.38,0,0,1-.4-.4V69.67a.38.38,0,0,1,.4-.4h.64c1.88,0,2.52-.52,2.52-2.55V46.44a.38.38,0,0,1,.4-.4h2.56a.38.38,0,0,1,.4.4v20.2c0,4.11-1.84,5.75-5.72,5.75Zm3.48-30.67a.38.38,0,0,1-.4-.4V38.4a.38.38,0,0,1,.4-.4h2.72a.38.38,0,0,1,.4.4v2.92a.38.38,0,0,1-.4.4Z"/><path d="M168.48,65.2a.38.38,0,0,1-.4-.4V63.12h0c-.88,1.44-2.76,2.52-5.68,2.52-3.64,0-6.44-1.88-6.44-5.76,0-4,2.8-5.92,7.48-5.92h4.36a.21.21,0,0,0,.24-.24v-1.4c0-2.64-1-3.76-4.6-3.76a7.45,7.45,0,0,0-4.64,1.36c-.2.16-.44.16-.56,0L157.12,48a.42.42,0,0,1,.08-.56,10.63,10.63,0,0,1,6.52-1.88c5.44,0,7.51,1.8,7.51,6.52V64.8a.38.38,0,0,1-.4.4ZM168,59V56.88a.21.21,0,0,0-.24-.24h-3.84c-3.32,0-4.76,1-4.76,3.12,0,2,1.44,3,4,3C166.16,62.76,168,61.36,168,59Z"/><path d="M177.24,65.2a.38.38,0,0,1-.4-.4V46.44a.38.38,0,0,1,.4-.4h2.56a.38.38,0,0,1,.4.4v2h0a5.33,5.33,0,0,1,5.07-2.8A5.89,5.89,0,0,1,189.23,47c.2.2.24.36.08.56l-1.48,2a.36.36,0,0,1-.56.08,5.34,5.34,0,0,0-3-.92c-2.92,0-4.12,2.28-4.12,5.6V64.8a.38.38,0,0,1-.4.4Z"/><path d="M200.72,60.44a15,15,0,0,1-.64-4.84,14.86,14.86,0,0,1,.6-4.84c1.08-3.32,3.88-5.16,7.51-5.16a7.42,7.42,0,0,1,7.52,5.16,16.72,16.72,0,0,1,.6,5.48.39.39,0,0,1-.44.4H203.75a.21.21,0,0,0-.23.24,7.51,7.51,0,0,0,.31,2.32,4.73,4.73,0,0,0,4.84,3.32,6.26,6.26,0,0,0,4.92-2.12.41.41,0,0,1,.6-.08l1.64,1.48a.36.36,0,0,1,0,.56,9.32,9.32,0,0,1-7.48,3.28C204.52,65.64,201.76,63.76,200.72,60.44ZM212.63,54a.21.21,0,0,0,.24-.24,6.74,6.74,0,0,0-.28-2.16,4.73,4.73,0,0,0-8.8,0,7.06,7.06,0,0,0-.27,2.16.21.21,0,0,0,.23.24Z"/><path d="M233.35,65.2a.38.38,0,0,1-.4-.4V53.6c0-3.08-1.4-4.88-4.28-4.88-2.6,0-4.4,1.84-4.4,4.68V64.8a.37.37,0,0,1-.39.4h-2.56a.38.38,0,0,1-.4-.4V46.44a.38.38,0,0,1,.4-.4h2.56a.37.37,0,0,1,.39.4V48.2h0a6.06,6.06,0,0,1,5.36-2.6c4.16,0,6.64,2.84,6.64,7.2v12a.38.38,0,0,1-.4.4Z"/><path d="M250.16,60.44a14.75,14.75,0,0,1-.64-4.84,14.86,14.86,0,0,1,.6-4.84c1.07-3.32,3.87-5.16,7.51-5.16a7.42,7.42,0,0,1,7.52,5.16,16.72,16.72,0,0,1,.6,5.48.39.39,0,0,1-.44.4H253.19a.21.21,0,0,0-.24.24,7.18,7.18,0,0,0,.32,2.32,4.73,4.73,0,0,0,4.84,3.32A6.26,6.26,0,0,0,263,60.4a.41.41,0,0,1,.6-.08l1.64,1.48a.36.36,0,0,1,0,.56,9.32,9.32,0,0,1-7.48,3.28C254,65.64,251.19,63.76,250.16,60.44ZM262.07,54a.21.21,0,0,0,.24-.24,6.74,6.74,0,0,0-.28-2.16,4.73,4.73,0,0,0-8.8,0,6.74,6.74,0,0,0-.28,2.16.21.21,0,0,0,.24.24Z"/><path d="M269,62.76a.4.4,0,0,1,0-.56l1.64-1.76a.39.39,0,0,1,.56,0,9.31,9.31,0,0,0,5.92,2.2c2.8,0,4.2-1.2,4.2-2.92,0-1.52-.72-2.36-3.72-2.68l-2-.2c-3.76-.4-5.72-2.28-5.72-5.4,0-3.64,2.6-5.84,7.12-5.84a11.46,11.46,0,0,1,6.8,2.12.39.39,0,0,1,.08.56L282.51,50a.39.39,0,0,1-.56.08,10.09,10.09,0,0,0-5.16-1.56c-2.4,0-3.64,1.08-3.64,2.64s.92,2.32,3.76,2.6l2,.2c3.88.36,5.76,2.32,5.76,5.4,0,3.76-2.72,6.28-7.72,6.28A11.91,11.91,0,0,1,269,62.76Z"/><path d="M289.55,72.39a.38.38,0,0,1-.4-.4V46.44a.38.38,0,0,1,.4-.4h2.56a.38.38,0,0,1,.4.4v1.8h0c.92-1.52,2.56-2.64,5.44-2.64,3.32,0,5.64,1.56,6.6,4.6a15.84,15.84,0,0,1,.68,5.4,16,16,0,0,1-.68,5.44c-1,3-3.28,4.6-6.6,4.6-2.88,0-4.52-1.16-5.44-2.68h0v9a.38.38,0,0,1-.4.4ZM301.39,59.6a13.29,13.29,0,0,0,.44-4,13.63,13.63,0,0,0-.44-4,4.53,4.53,0,0,0-8.44,0,12.47,12.47,0,0,0-.44,4,12.31,12.31,0,0,0,.44,4,4.51,4.51,0,0,0,8.44,0Z"/><path d="M321.47,65.2a.38.38,0,0,1-.4-.4V63.12h0c-.88,1.44-2.76,2.52-5.68,2.52-3.64,0-6.44-1.88-6.44-5.76,0-4,2.8-5.92,7.48-5.92h4.36a.21.21,0,0,0,.24-.24v-1.4c0-2.64-1-3.76-4.6-3.76a7.45,7.45,0,0,0-4.64,1.36c-.2.16-.44.16-.56,0L310.11,48a.42.42,0,0,1,.08-.56,10.63,10.63,0,0,1,6.52-1.88c5.44,0,7.52,1.8,7.52,6.52V64.8a.38.38,0,0,1-.4.4ZM321,59V56.88a.21.21,0,0,0-.24-.24h-3.84c-3.32,0-4.76,1-4.76,3.12,0,2,1.44,3,4,3C319.15,62.76,321,61.36,321,59Z"/><path d="M329.27,50.76c1.08-3.32,3.88-5.16,7.56-5.16a7.68,7.68,0,0,1,6.56,3.24c.12.2.12.36-.12.56l-1.76,1.44a.36.36,0,0,1-.56,0,4.71,4.71,0,0,0-4.12-2.08,4.16,4.16,0,0,0-4.28,3,12.76,12.76,0,0,0-.44,3.88,12.88,12.88,0,0,0,.44,3.92,4.16,4.16,0,0,0,4.28,3A4.71,4.71,0,0,0,341,60.44a.36.36,0,0,1,.56,0l1.76,1.44c.24.2.24.36.12.56a7.68,7.68,0,0,1-6.56,3.24c-3.68,0-6.48-1.84-7.56-5.16a16.55,16.55,0,0,1-.6-4.88A16.45,16.45,0,0,1,329.27,50.76Z"/><path d="M348.23,41.72a.38.38,0,0,1-.4-.4V38.4a.38.38,0,0,1,.4-.4H351a.38.38,0,0,1,.4.4v2.92a.38.38,0,0,1-.4.4Zm.08,23.48a.38.38,0,0,1-.4-.4V46.44a.38.38,0,0,1,.4-.4h2.56a.38.38,0,0,1,.4.4V64.8a.38.38,0,0,1-.4.4Z"/><path d="M356.51,60.48a14.39,14.39,0,0,1-.64-4.88,14.29,14.29,0,0,1,.64-4.84c1-3.28,3.84-5.16,7.56-5.16s6.52,1.88,7.56,5.16a14.29,14.29,0,0,1,.64,4.84,14.39,14.39,0,0,1-.64,4.88c-1,3.24-3.84,5.16-7.56,5.16S357.55,63.72,356.51,60.48Zm11.88-1a12.55,12.55,0,0,0,.44-3.92,12.27,12.27,0,0,0-.44-3.88,4.61,4.61,0,0,0-8.64,0,12.27,12.27,0,0,0-.44,3.88,12.55,12.55,0,0,0,.44,3.92,4.61,4.61,0,0,0,8.64,0Z"/><path d="M375.55,62.76a.39.39,0,0,1,0-.56l1.64-1.76a.39.39,0,0,1,.56,0,9.31,9.31,0,0,0,5.92,2.2c2.8,0,4.2-1.2,4.2-2.92,0-1.52-.72-2.36-3.72-2.68l-2-.2c-3.76-.4-5.72-2.28-5.72-5.4,0-3.64,2.6-5.84,7.12-5.84a11.46,11.46,0,0,1,6.8,2.12.39.39,0,0,1,.08.56L389,50a.39.39,0,0,1-.56.08,10.09,10.09,0,0,0-5.16-1.56c-2.4,0-3.64,1.08-3.64,2.64s.92,2.32,3.76,2.6l2,.2c3.88.36,5.76,2.32,5.76,5.4,0,3.76-2.72,6.28-7.72,6.28A11.91,11.91,0,0,1,375.55,62.76Z"/><path d="M.64,98.44A15,15,0,0,1,0,93.6a14.86,14.86,0,0,1,.6-4.84c1.08-3.32,3.88-5.16,7.52-5.16a7.42,7.42,0,0,1,7.52,5.16,16.72,16.72,0,0,1,.6,5.48.39.39,0,0,1-.44.4H3.68a.21.21,0,0,0-.24.24,7.18,7.18,0,0,0,.32,2.32,4.73,4.73,0,0,0,4.84,3.32,6.26,6.26,0,0,0,4.92-2.12.41.41,0,0,1,.6-.08l1.64,1.48a.36.36,0,0,1,0,.56,9.32,9.32,0,0,1-7.48,3.28C4.44,103.64,1.68,101.76.64,98.44ZM12.56,92a.21.21,0,0,0,.24-.24,6.74,6.74,0,0,0-.28-2.16,4.33,4.33,0,0,0-4.4-3,4.33,4.33,0,0,0-4.4,3,6.74,6.74,0,0,0-.28,2.16.21.21,0,0,0,.24.24Z"/><path d="M33.28,103.2a.38.38,0,0,1-.4-.4V91.6c0-3.08-1.4-4.88-4.28-4.88-2.6,0-4.4,1.84-4.4,4.68v11.4a.38.38,0,0,1-.4.4H21.24a.38.38,0,0,1-.4-.4V84.44a.38.38,0,0,1,.4-.4H23.8a.38.38,0,0,1,.4.4V86.2h0a6.06,6.06,0,0,1,5.36-2.6c4.16,0,6.64,2.84,6.64,7.2v12a.38.38,0,0,1-.4.4Z"/><path d="M41.24,88.76c1.08-3.32,3.88-5.16,7.56-5.16a7.68,7.68,0,0,1,6.56,3.24c.12.2.12.36-.12.56l-1.76,1.44a.36.36,0,0,1-.56,0,4.71,4.71,0,0,0-4.12-2.08,4.16,4.16,0,0,0-4.28,3,12.76,12.76,0,0,0-.44,3.88,12.88,12.88,0,0,0,.44,3.92,4.16,4.16,0,0,0,4.28,3,4.71,4.71,0,0,0,4.12-2.08.36.36,0,0,1,.56,0l1.76,1.44c.24.2.24.36.12.56a7.68,7.68,0,0,1-6.56,3.24c-3.68,0-6.48-1.84-7.56-5.16a20,20,0,0,1,0-9.72Z"/><path d="M58.88,98.44a15,15,0,0,1-.64-4.84,14.86,14.86,0,0,1,.6-4.84c1.08-3.32,3.88-5.16,7.52-5.16a7.42,7.42,0,0,1,7.52,5.16,16.72,16.72,0,0,1,.6,5.48.39.39,0,0,1-.44.4H61.92a.21.21,0,0,0-.24.24A7.18,7.18,0,0,0,62,97.2a4.73,4.73,0,0,0,4.84,3.32,6.26,6.26,0,0,0,4.92-2.12.41.41,0,0,1,.6-.08L74,99.8a.36.36,0,0,1,0,.56,9.32,9.32,0,0,1-7.48,3.28C62.68,103.64,59.92,101.76,58.88,98.44ZM70.8,92a.21.21,0,0,0,.24-.24,6.74,6.74,0,0,0-.28-2.16,4.73,4.73,0,0,0-8.8,0,6.74,6.74,0,0,0-.28,2.16.21.21,0,0,0,.24.24Z"/><path d="M79.48,103.2a.38.38,0,0,1-.4-.4V84.44a.38.38,0,0,1,.4-.4H82a.38.38,0,0,1,.4.4v2h0a5.34,5.34,0,0,1,5.08-2.8A5.89,5.89,0,0,1,91.48,85c.2.2.24.36.08.56l-1.48,2a.36.36,0,0,1-.56.08,5.4,5.4,0,0,0-3-.92c-2.92,0-4.12,2.28-4.12,5.6V102.8a.38.38,0,0,1-.4.4Z"/><path d="M95.08,103.2a.38.38,0,0,1-.4-.4V84.44a.38.38,0,0,1,.4-.4h2.56a.38.38,0,0,1,.4.4v2h0a5.34,5.34,0,0,1,5.08-2.8A5.89,5.89,0,0,1,107.08,85c.2.2.24.36.08.56l-1.48,2a.36.36,0,0,1-.56.08,5.4,5.4,0,0,0-3-.92C99.24,86.72,98,89,98,92.32V102.8a.38.38,0,0,1-.4.4Z"/><path d="M120.92,103.2a.38.38,0,0,1-.4-.4v-1.68h0c-.88,1.44-2.76,2.52-5.68,2.52-3.64,0-6.44-1.88-6.44-5.76,0-4,2.8-5.92,7.48-5.92h4.36a.21.21,0,0,0,.24-.24v-1.4c0-2.64-1-3.76-4.6-3.76a7.45,7.45,0,0,0-4.64,1.36c-.2.16-.44.16-.56,0L109.56,86a.42.42,0,0,1,.08-.56,10.63,10.63,0,0,1,6.52-1.88c5.44,0,7.52,1.8,7.52,6.52V102.8a.38.38,0,0,1-.4.4Zm-.48-6.2V94.88a.21.21,0,0,0-.24-.24h-3.84c-3.32,0-4.76,1-4.76,3.12,0,2,1.44,3,4,3C118.6,100.76,120.44,99.36,120.44,97Z"/><path d="M141.28,103.2a.38.38,0,0,1-.4-.4V101h0c-.92,1.52-2.56,2.68-5.44,2.68-3.32,0-5.64-1.56-6.6-4.6a16,16,0,0,1-.68-5.44,15.84,15.84,0,0,1,.68-5.4c1-3,3.28-4.6,6.6-4.6,2.88,0,4.52,1.12,5.44,2.64h0V76.4a.38.38,0,0,1,.4-.4h2.56a.38.38,0,0,1,.4.4v26.4a.38.38,0,0,1-.4.4Zm-.84-5.6a12.31,12.31,0,0,0,.44-4,12.47,12.47,0,0,0-.44-4,4.53,4.53,0,0,0-8.44,0,13.63,13.63,0,0,0-.44,4,13.29,13.29,0,0,0,.44,4,4.51,4.51,0,0,0,8.44,0Z"/><path d="M149.48,98.48a14.39,14.39,0,0,1-.64-4.88,14.29,14.29,0,0,1,.64-4.84c1-3.28,3.84-5.16,7.56-5.16s6.52,1.88,7.56,5.16a14.29,14.29,0,0,1,.64,4.84,14.39,14.39,0,0,1-.64,4.88c-1,3.24-3.84,5.16-7.56,5.16S150.52,101.72,149.48,98.48Zm11.88-1a12.55,12.55,0,0,0,.44-3.92,12.27,12.27,0,0,0-.44-3.88,4.61,4.61,0,0,0-8.64,0,12.27,12.27,0,0,0-.44,3.88,12.55,12.55,0,0,0,.44,3.92,4.61,4.61,0,0,0,8.64,0Z"/><path d="M168.52,100.76a.39.39,0,0,1,0-.56l1.64-1.76a.39.39,0,0,1,.56,0,9.31,9.31,0,0,0,5.92,2.2c2.8,0,4.2-1.2,4.2-2.92,0-1.52-.72-2.36-3.72-2.68l-2-.2c-3.76-.4-5.72-2.28-5.72-5.4,0-3.64,2.6-5.84,7.12-5.84a11.41,11.41,0,0,1,6.79,2.12.39.39,0,0,1,.08.56L182,88a.39.39,0,0,1-.56.08,10.09,10.09,0,0,0-5.16-1.56c-2.4,0-3.64,1.08-3.64,2.64s.92,2.32,3.76,2.6l2,.2c3.87.36,5.75,2.32,5.75,5.4,0,3.76-2.71,6.28-7.71,6.28A11.91,11.91,0,0,1,168.52,100.76Z"/><path d="M196.92,98.48a14.39,14.39,0,0,1-.64-4.88,14.29,14.29,0,0,1,.64-4.84c1-3.28,3.84-5.16,7.56-5.16S211,85.48,212,88.76a14.29,14.29,0,0,1,.64,4.84,14.39,14.39,0,0,1-.64,4.88c-1,3.24-3.84,5.16-7.55,5.16S198,101.72,196.92,98.48Zm11.87-1a12.55,12.55,0,0,0,.44-3.92,12.27,12.27,0,0,0-.44-3.88,4.6,4.6,0,0,0-8.63,0,12.27,12.27,0,0,0-.44,3.88,12.55,12.55,0,0,0,.44,3.92,4.6,4.6,0,0,0,8.63,0Z"/><path d="M237.67,103.2a.38.38,0,0,1-.4-.4v-1.68h0c-.88,1.44-2.76,2.52-5.68,2.52-3.63,0-6.43-1.88-6.43-5.76,0-4,2.8-5.92,7.47-5.92H237a.21.21,0,0,0,.24-.24v-1.4c0-2.64-1-3.76-4.6-3.76A7.44,7.44,0,0,0,228,87.92c-.2.16-.44.16-.56,0L226.32,86a.42.42,0,0,1,.08-.56,10.62,10.62,0,0,1,6.51-1.88c5.44,0,7.52,1.8,7.52,6.52V102.8a.38.38,0,0,1-.4.4Zm-.48-6.2V94.88a.21.21,0,0,0-.24-.24h-3.84c-3.31,0-4.75,1-4.75,3.12,0,2,1.44,3,4,3C235.35,100.76,237.19,99.36,237.19,97Z"/><path d="M255.23,110.39a.38.38,0,0,1-.4-.4V84.44a.38.38,0,0,1,.4-.4h2.56a.38.38,0,0,1,.4.4v1.8h0c.92-1.52,2.56-2.64,5.44-2.64,3.32,0,5.64,1.56,6.6,4.6a15.84,15.84,0,0,1,.68,5.4,16,16,0,0,1-.68,5.44c-1,3-3.28,4.6-6.6,4.6-2.88,0-4.52-1.16-5.44-2.68h0v9a.38.38,0,0,1-.4.4ZM267.07,97.6a13.29,13.29,0,0,0,.44-4,13.63,13.63,0,0,0-.44-4,4.53,4.53,0,0,0-8.44,0,12.47,12.47,0,0,0-.44,4,12.31,12.31,0,0,0,.44,4,4.51,4.51,0,0,0,8.44,0Z"/><path d="M276,103.2a.38.38,0,0,1-.4-.4V84.44a.38.38,0,0,1,.4-.4h2.56a.38.38,0,0,1,.4.4v2h0A5.34,5.34,0,0,1,284,83.6,5.89,5.89,0,0,1,288,85c.2.2.24.36.08.56l-1.48,2a.36.36,0,0,1-.56.08,5.4,5.4,0,0,0-3-.92c-2.92,0-4.12,2.28-4.12,5.6V102.8a.38.38,0,0,1-.4.4Z"/><path d="M289.92,98.48a14.35,14.35,0,0,1-.65-4.88,14.25,14.25,0,0,1,.65-4.84c1-3.28,3.83-5.16,7.55-5.16S304,85.48,305,88.76a14.29,14.29,0,0,1,.64,4.84,14.39,14.39,0,0,1-.64,4.88c-1,3.24-3.84,5.16-7.56,5.16S291,101.72,289.92,98.48Zm11.87-1a12.55,12.55,0,0,0,.44-3.92,12.27,12.27,0,0,0-.44-3.88,4.61,4.61,0,0,0-8.64,0,12.27,12.27,0,0,0-.44,3.88,12.55,12.55,0,0,0,.44,3.92,4.61,4.61,0,0,0,8.64,0Z"/><path d="M311.31,103.2a.38.38,0,0,1-.4-.4V87a.21.21,0,0,0-.24-.24H309a.38.38,0,0,1-.4-.4V84.44a.38.38,0,0,1,.4-.4h1.64a.21.21,0,0,0,.24-.24V82.16c0-4.52,1.84-6.16,5.84-6.16h1.48a.38.38,0,0,1,.4.4v2.32a.38.38,0,0,1-.4.4h-1c-2.44,0-2.92.52-2.92,2.88v1.8a.21.21,0,0,0,.24.24h3.72a.38.38,0,0,1,.4.4v1.92a.38.38,0,0,1-.4.4h-3.72a.21.21,0,0,0-.24.24v15.8a.38.38,0,0,1-.4.4Z"/><path d="M334.23,103.2a.38.38,0,0,1-.4-.4V101h0a5.84,5.84,0,0,1-5.24,2.64c-4.2,0-6.64-2.88-6.64-7.24v-12a.38.38,0,0,1,.4-.4h2.56a.38.38,0,0,1,.4.4V95.6c0,3.12,1.4,4.92,4.24,4.92,2.6,0,4.32-1.84,4.32-4.72V84.44a.38.38,0,0,1,.4-.4h2.56a.38.38,0,0,1,.4.4V102.8a.38.38,0,0,1-.4.4Z"/><path d="M355.39,103.2a.38.38,0,0,1-.4-.4V91.6c0-3.08-1.4-4.88-4.28-4.88-2.6,0-4.4,1.84-4.4,4.68v11.4a.38.38,0,0,1-.4.4h-2.56a.38.38,0,0,1-.4-.4V84.44a.38.38,0,0,1,.4-.4h2.56a.38.38,0,0,1,.4.4V86.2h0a6.06,6.06,0,0,1,5.36-2.6c4.16,0,6.64,2.84,6.64,7.2v12a.38.38,0,0,1-.4.4Z"/><path d="M375.91,103.2a.38.38,0,0,1-.4-.4V101h0c-.92,1.52-2.56,2.68-5.44,2.68-3.32,0-5.64-1.56-6.6-4.6a16,16,0,0,1-.68-5.44,15.84,15.84,0,0,1,.68-5.4c1-3,3.28-4.6,6.6-4.6,2.88,0,4.52,1.12,5.44,2.64h0V76.4a.38.38,0,0,1,.4-.4h2.56a.38.38,0,0,1,.4.4v26.4a.38.38,0,0,1-.4.4Zm-.84-5.6a12.31,12.31,0,0,0,.44-4,12.47,12.47,0,0,0-.44-4,4.53,4.53,0,0,0-8.44,0,13.63,13.63,0,0,0-.44,4,13.29,13.29,0,0,0,.44,4,4.51,4.51,0,0,0,8.44,0Z"/><path d="M385,79.72a.38.38,0,0,1-.4-.4V76.4a.38.38,0,0,1,.4-.4h2.72a.38.38,0,0,1,.4.4v2.92a.38.38,0,0,1-.4.4ZM385,103.2a.38.38,0,0,1-.4-.4V84.44a.38.38,0,0,1,.4-.4h2.56a.38.38,0,0,1,.4.4V102.8a.38.38,0,0,1-.4.4Z"/><path d="M405.75,103.2a.38.38,0,0,1-.4-.4V101h0c-.92,1.52-2.56,2.68-5.44,2.68-3.32,0-5.64-1.56-6.6-4.6a16,16,0,0,1-.68-5.44,15.84,15.84,0,0,1,.68-5.4c1-3,3.28-4.6,6.6-4.6,2.88,0,4.52,1.12,5.44,2.64h0V76.4a.38.38,0,0,1,.4-.4h2.56a.38.38,0,0,1,.4.4v26.4a.38.38,0,0,1-.4.4Zm-.84-5.6a12.31,12.31,0,0,0,.44-4,12.47,12.47,0,0,0-.44-4,4.53,4.53,0,0,0-8.44,0,13.63,13.63,0,0,0-.44,4,13.29,13.29,0,0,0,.44,4,4.51,4.51,0,0,0,8.44,0Z"/><path d="M426.07,103.2a.38.38,0,0,1-.4-.4v-1.68h0c-.88,1.44-2.76,2.52-5.68,2.52-3.64,0-6.44-1.88-6.44-5.76,0-4,2.8-5.92,7.48-5.92h4.36a.21.21,0,0,0,.24-.24v-1.4c0-2.64-1-3.76-4.6-3.76a7.45,7.45,0,0,0-4.64,1.36c-.2.16-.44.16-.56,0L414.71,86a.42.42,0,0,1,.08-.56,10.63,10.63,0,0,1,6.52-1.88c5.44,0,7.52,1.8,7.52,6.52V102.8a.38.38,0,0,1-.4.4Zm-.48-6.2V94.88a.21.21,0,0,0-.24-.24h-3.84c-3.32,0-4.76,1-4.76,3.12,0,2,1.44,3,4,3C423.75,100.76,425.59,99.36,425.59,97Z"/><path d="M446.43,103.2a.38.38,0,0,1-.4-.4V101h0c-.92,1.52-2.56,2.68-5.44,2.68-3.32,0-5.64-1.56-6.6-4.6a16,16,0,0,1-.68-5.44,15.84,15.84,0,0,1,.68-5.4c1-3,3.28-4.6,6.6-4.6,2.88,0,4.52,1.12,5.44,2.64h0V76.4a.38.38,0,0,1,.4-.4H449a.38.38,0,0,1,.4.4v26.4a.38.38,0,0,1-.4.4Zm-.84-5.6a12.31,12.31,0,0,0,.44-4,12.47,12.47,0,0,0-.44-4,4.53,4.53,0,0,0-8.44,0,13.63,13.63,0,0,0-.44,4,13.29,13.29,0,0,0,.44,4,4.51,4.51,0,0,0,8.44,0Z"/><path d="M47.88,141.2a.38.38,0,0,1-.4-.4V139h0c-.92,1.52-2.56,2.68-5.44,2.68-3.32,0-5.64-1.56-6.6-4.6a16,16,0,0,1-.68-5.44,15.84,15.84,0,0,1,.68-5.4c1-3,3.28-4.6,6.6-4.6,2.88,0,4.52,1.12,5.44,2.64h0V114.4a.38.38,0,0,1,.4-.4h2.56a.38.38,0,0,1,.4.4v26.4a.38.38,0,0,1-.4.4ZM47,135.6a12.31,12.31,0,0,0,.44-4,12.47,12.47,0,0,0-.44-4,4.07,4.07,0,0,0-4.24-2.88,4.07,4.07,0,0,0-4.2,2.88,13.63,13.63,0,0,0-.44,4,13.29,13.29,0,0,0,.44,4,4.1,4.1,0,0,0,4.2,2.92A4.1,4.1,0,0,0,47,135.6Z"/><path d="M56.08,136.44a15,15,0,0,1-.64-4.84,14.86,14.86,0,0,1,.6-4.84c1.08-3.32,3.88-5.16,7.52-5.16a7.42,7.42,0,0,1,7.52,5.16,16.72,16.72,0,0,1,.6,5.48.39.39,0,0,1-.44.4H59.12a.21.21,0,0,0-.24.24,7.18,7.18,0,0,0,.32,2.32A4.73,4.73,0,0,0,64,138.52,6.26,6.26,0,0,0,69,136.4a.41.41,0,0,1,.6-.08l1.64,1.48a.36.36,0,0,1,0,.56,9.32,9.32,0,0,1-7.48,3.28C59.88,141.64,57.12,139.76,56.08,136.44ZM68,130a.21.21,0,0,0,.24-.24,6.74,6.74,0,0,0-.28-2.16,4.73,4.73,0,0,0-8.8,0,6.74,6.74,0,0,0-.28,2.16.21.21,0,0,0,.24.24Z"/><path d="M76.68,141.2a.38.38,0,0,1-.4-.4V114.4a.38.38,0,0,1,.4-.4h2.56a.38.38,0,0,1,.4.4v9.84h0c.92-1.52,2.56-2.64,5.44-2.64,3.32,0,5.64,1.56,6.6,4.6a15.84,15.84,0,0,1,.68,5.4,16,16,0,0,1-.68,5.44c-1,3-3.28,4.6-6.6,4.6-2.88,0-4.52-1.16-5.44-2.68h0v1.84a.38.38,0,0,1-.4.4Zm11.84-5.6a13.29,13.29,0,0,0,.44-4,13.63,13.63,0,0,0-.44-4,4.53,4.53,0,0,0-8.44,0,12.47,12.47,0,0,0-.44,4,12.31,12.31,0,0,0,.44,4,4.51,4.51,0,0,0,8.44,0Z"/><path d="M96.48,136.44a15,15,0,0,1-.64-4.84,14.86,14.86,0,0,1,.6-4.84c1.08-3.32,3.88-5.16,7.52-5.16a7.42,7.42,0,0,1,7.52,5.16,16.72,16.72,0,0,1,.6,5.48.39.39,0,0,1-.44.4H99.52a.21.21,0,0,0-.24.24,7.18,7.18,0,0,0,.32,2.32,4.73,4.73,0,0,0,4.84,3.32,6.26,6.26,0,0,0,4.92-2.12.41.41,0,0,1,.6-.08l1.64,1.48a.36.36,0,0,1,0,.56,9.32,9.32,0,0,1-7.48,3.28C100.28,141.64,97.52,139.76,96.48,136.44ZM108.4,130a.21.21,0,0,0,.24-.24,6.74,6.74,0,0,0-.28-2.16,4.73,4.73,0,0,0-8.8,0,6.74,6.74,0,0,0-.28,2.16.21.21,0,0,0,.24.24Z"/><path d="M124.92,126.76c1.08-3.32,3.88-5.16,7.56-5.16a7.68,7.68,0,0,1,6.56,3.24c.12.2.12.36-.12.56l-1.76,1.44a.36.36,0,0,1-.56,0,4.71,4.71,0,0,0-4.12-2.08,4.16,4.16,0,0,0-4.28,3,17.5,17.5,0,0,0,0,7.8,4.16,4.16,0,0,0,4.28,3,4.71,4.71,0,0,0,4.12-2.08.36.36,0,0,1,.56,0l1.76,1.44c.24.2.24.36.12.56a7.68,7.68,0,0,1-6.56,3.24c-3.68,0-6.48-1.84-7.56-5.16a20,20,0,0,1,0-9.72Z"/><path d="M142.56,136.48a18.77,18.77,0,0,1,0-9.72c1-3.28,3.84-5.16,7.56-5.16s6.52,1.88,7.55,5.16a18.77,18.77,0,0,1,0,9.72c-1,3.24-3.83,5.16-7.55,5.16S143.6,139.72,142.56,136.48Zm11.88-1a12.55,12.55,0,0,0,.44-3.92,12.27,12.27,0,0,0-.44-3.88,4.61,4.61,0,0,0-8.64,0,12.27,12.27,0,0,0-.44,3.88,12.55,12.55,0,0,0,.44,3.92,4.61,4.61,0,0,0,8.64,0Z"/><path d="M175.35,141.2a.38.38,0,0,1-.4-.4V129.6c0-3.08-1.4-4.88-4.27-4.88-2.6,0-4.4,1.84-4.4,4.68v11.4a.38.38,0,0,1-.4.4h-2.56a.38.38,0,0,1-.4-.4V122.44a.38.38,0,0,1,.4-.4h2.56a.38.38,0,0,1,.4.4v1.76h0a6.06,6.06,0,0,1,5.36-2.6c4.15,0,6.63,2.84,6.63,7.2v12a.38.38,0,0,1-.4.4Z"/><path d="M189.44,141.4c-3.72,0-5.16-1.68-5.16-5.44V125a.21.21,0,0,0-.24-.24h-1.6a.38.38,0,0,1-.4-.4v-1.92a.38.38,0,0,1,.4-.4H184a.21.21,0,0,0,.24-.24v-5.4a.38.38,0,0,1,.4-.4h2.56a.38.38,0,0,1,.4.4v5.4a.21.21,0,0,0,.24.24h3a.38.38,0,0,1,.4.4v1.92a.38.38,0,0,1-.4.4h-3a.21.21,0,0,0-.24.24v10.84c0,1.92.72,2.44,2.44,2.44h.84a.38.38,0,0,1,.4.4V141a.38.38,0,0,1-.4.4Z"/><path d="M207.31,141.2a.38.38,0,0,1-.4-.4v-1.68h0c-.88,1.44-2.76,2.52-5.68,2.52-3.63,0-6.43-1.88-6.43-5.76,0-4,2.8-5.92,7.47-5.92h4.36a.21.21,0,0,0,.24-.24v-1.4c0-2.64-1-3.76-4.6-3.76a7.44,7.44,0,0,0-4.63,1.36c-.2.16-.44.16-.56,0L196,124a.42.42,0,0,1,.08-.56,10.62,10.62,0,0,1,6.51-1.88c5.44,0,7.52,1.8,7.52,6.52V140.8a.38.38,0,0,1-.4.4Zm-.48-6.2v-2.12a.21.21,0,0,0-.24-.24h-3.84c-3.31,0-4.75,1-4.75,3.12,0,2,1.44,3,4,3C205,138.76,206.83,137.36,206.83,135Z"/><path d="M216.08,141.2a.38.38,0,0,1-.4-.4V122.44a.38.38,0,0,1,.4-.4h2.56a.38.38,0,0,1,.4.4v2h0a5.32,5.32,0,0,1,5.07-2.8,5.89,5.89,0,0,1,3.92,1.44c.2.2.24.36.08.56l-1.48,2a.36.36,0,0,1-.56.08,5.4,5.4,0,0,0-3-.92c-2.91,0-4.11,2.28-4.11,5.6V140.8a.38.38,0,0,1-.4.4Z"/><path d="M239.52,126.76c1.07-3.32,3.87-5.16,7.55-5.16a7.68,7.68,0,0,1,6.56,3.24c.12.2.12.36-.12.56l-1.76,1.44a.36.36,0,0,1-.56,0,4.71,4.71,0,0,0-4.12-2.08,4.16,4.16,0,0,0-4.28,3,17.5,17.5,0,0,0,0,7.8,4.16,4.16,0,0,0,4.28,3,4.71,4.71,0,0,0,4.12-2.08.36.36,0,0,1,.56,0l1.76,1.44c.24.2.24.36.12.56a7.68,7.68,0,0,1-6.56,3.24c-3.68,0-6.48-1.84-7.55-5.16a20,20,0,0,1,0-9.72Z"/><path d="M257.16,136.48a18.77,18.77,0,0,1,0-9.72c1-3.28,3.83-5.16,7.55-5.16s6.52,1.88,7.56,5.16a18.77,18.77,0,0,1,0,9.72c-1,3.24-3.84,5.16-7.56,5.16S258.19,139.72,257.16,136.48Zm11.87-1a12.55,12.55,0,0,0,.44-3.92,12.27,12.27,0,0,0-.44-3.88,4.61,4.61,0,0,0-8.64,0,12.27,12.27,0,0,0-.44,3.88,12.55,12.55,0,0,0,.44,3.92,4.61,4.61,0,0,0,8.64,0Z"/><path d="M290,141.2a.38.38,0,0,1-.4-.4V129.6c0-3.08-1.4-4.88-4.28-4.88-2.6,0-4.4,1.84-4.4,4.68v11.4a.38.38,0,0,1-.4.4h-2.56a.38.38,0,0,1-.4-.4V122.44a.38.38,0,0,1,.4-.4h2.56a.38.38,0,0,1,.4.4v1.76h0a6.06,6.06,0,0,1,5.36-2.6c4.16,0,6.64,2.84,6.64,7.2v12a.38.38,0,0,1-.4.4Z"/><path d="M306.51,128.08A29.69,29.69,0,0,1,311.27,112a.73.73,0,0,1,.64-.4h1.4c.24,0,.36.16.24.4a35.9,35.9,0,0,0,0,32.15c.12.25,0,.4-.24.4h-1.4a.71.71,0,0,1-.64-.4A29.73,29.73,0,0,1,306.51,128.08Z"/><path d="M329.47,141.2a.38.38,0,0,1-.4-.4v-1.68h0c-.88,1.44-2.76,2.52-5.68,2.52-3.64,0-6.44-1.88-6.44-5.76,0-4,2.8-5.92,7.48-5.92h4.36a.21.21,0,0,0,.24-.24v-1.4c0-2.64-1-3.76-4.6-3.76a7.45,7.45,0,0,0-4.64,1.36c-.2.16-.44.16-.56,0L318.11,124a.42.42,0,0,1,.08-.56,10.63,10.63,0,0,1,6.52-1.88c5.44,0,7.52,1.8,7.52,6.52V140.8a.38.38,0,0,1-.4.4ZM329,135v-2.12a.21.21,0,0,0-.24-.24h-3.84c-3.32,0-4.76,1-4.76,3.12,0,2,1.44,3,4,3C327.15,138.76,329,137.36,329,135Z"/><path d="M338.23,141.2a.38.38,0,0,1-.4-.4V122.44a.38.38,0,0,1,.4-.4h2.56a.38.38,0,0,1,.4.4v2h0a5.34,5.34,0,0,1,5.08-2.8,5.89,5.89,0,0,1,3.92,1.44c.2.2.24.36.08.56l-1.48,2a.36.36,0,0,1-.56.08,5.4,5.4,0,0,0-3-.92c-2.92,0-4.12,2.28-4.12,5.6V140.8a.38.38,0,0,1-.4.4Z"/><path d="M365.87,141.2a.38.38,0,0,1-.4-.4V129.6c0-3.08-1.4-4.88-4.28-4.88-2.6,0-4.4,1.84-4.4,4.68v11.4a.38.38,0,0,1-.4.4h-2.56a.38.38,0,0,1-.4-.4V122.44a.38.38,0,0,1,.4-.4h2.56a.38.38,0,0,1,.4.4v1.76h0a6.06,6.06,0,0,1,5.36-2.6c4.16,0,6.64,2.84,6.64,7.2v12a.38.38,0,0,1-.4.4Z"/><path d="M373.87,136.44a15,15,0,0,1-.64-4.84,14.86,14.86,0,0,1,.6-4.84c1.08-3.32,3.88-5.16,7.52-5.16a7.42,7.42,0,0,1,7.52,5.16,16.72,16.72,0,0,1,.6,5.48.39.39,0,0,1-.44.4H376.91a.21.21,0,0,0-.24.24,7.18,7.18,0,0,0,.32,2.32,4.73,4.73,0,0,0,4.84,3.32,6.26,6.26,0,0,0,4.92-2.12.41.41,0,0,1,.6-.08L389,137.8a.36.36,0,0,1,0,.56,9.32,9.32,0,0,1-7.48,3.28C377.67,141.64,374.91,139.76,373.87,136.44ZM385.79,130a.21.21,0,0,0,.24-.24,6.74,6.74,0,0,0-.28-2.16,4.73,4.73,0,0,0-8.8,0,6.74,6.74,0,0,0-.28,2.16.21.21,0,0,0,.24.24Z"/><path d="M392.75,138.76a.39.39,0,0,1,0-.56l1.64-1.76a.39.39,0,0,1,.56,0,9.31,9.31,0,0,0,5.92,2.2c2.8,0,4.2-1.2,4.2-2.92,0-1.52-.72-2.36-3.72-2.68l-2-.2c-3.76-.4-5.72-2.28-5.72-5.4,0-3.64,2.6-5.84,7.12-5.84a11.46,11.46,0,0,1,6.8,2.12.39.39,0,0,1,.08.56L406.23,126a.39.39,0,0,1-.56.08,10.09,10.09,0,0,0-5.16-1.56c-2.4,0-3.64,1.08-3.64,2.64s.92,2.32,3.76,2.6l2,.2c3.88.36,5.76,2.32,5.76,5.4,0,3.76-2.72,6.28-7.72,6.28A11.91,11.91,0,0,1,392.75,138.76Z"/><path d="M412.79,137h2.8a.38.38,0,0,1,.4.4v3.72a1.27,1.27,0,0,1-.24.88l-2.48,3.27a.63.63,0,0,1-.52.28.36.36,0,0,1-.36-.36v-7.79A.38.38,0,0,1,412.79,137Z"/><path d="M10.76,184a.36.36,0,0,1,0-.56l1.64-1.64a.39.39,0,0,1,.6,0,6.39,6.39,0,0,0,4.52,1.92c3.16,0,4.84-1.64,4.84-5.15v-2.24h0c-.88,1.6-2.52,2.64-5.32,2.64a6.28,6.28,0,0,1-6.44-4.64,20.17,20.17,0,0,1,0-10.08A6.28,6.28,0,0,1,17,159.6c2.8,0,4.44,1,5.32,2.64h0v-1.8a.38.38,0,0,1,.4-.4h2.56a.38.38,0,0,1,.4.4v17.92c0,5.43-3,8.47-8.36,8.47A8.66,8.66,0,0,1,10.76,184ZM22,173a11.65,11.65,0,0,0,.44-3.72,11.81,11.81,0,0,0-.44-3.72,3.93,3.93,0,0,0-4.08-2.84,3.92,3.92,0,0,0-4,2.84,12,12,0,0,0-.48,3.72,11.83,11.83,0,0,0,.48,3.72,3.91,3.91,0,0,0,4,2.88A4,4,0,0,0,22,173Z"/><path d="M43.56,179.2a.38.38,0,0,1-.4-.4V177h0a5.84,5.84,0,0,1-5.24,2.64c-4.2,0-6.64-2.88-6.64-7.24v-12a.38.38,0,0,1,.4-.4H34.2a.38.38,0,0,1,.4.4V171.6c0,3.12,1.4,4.92,4.24,4.92,2.6,0,4.32-1.84,4.32-4.72V160.44a.38.38,0,0,1,.4-.4h2.56a.38.38,0,0,1,.4.4V178.8a.38.38,0,0,1-.4.4Z"/><path d="M63.88,179.2a.38.38,0,0,1-.4-.4v-1.68h0c-.88,1.44-2.76,2.52-5.68,2.52-3.64,0-6.44-1.88-6.44-5.76,0-4,2.8-5.92,7.48-5.92h4.36a.21.21,0,0,0,.24-.24v-1.4c0-2.64-1-3.76-4.6-3.76a7.45,7.45,0,0,0-4.64,1.36c-.2.16-.44.16-.56,0L52.52,162a.42.42,0,0,1,.08-.56,10.63,10.63,0,0,1,6.52-1.88c5.44,0,7.52,1.8,7.52,6.52V178.8a.38.38,0,0,1-.4.4ZM63.4,173v-2.12a.21.21,0,0,0-.24-.24H59.32c-3.32,0-4.76,1-4.76,3.12,0,2,1.44,3,4,3C61.56,176.76,63.4,175.36,63.4,173Z"/><path d="M84.68,179.2a.38.38,0,0,1-.4-.4V167.6c0-3.08-1.4-4.88-4.28-4.88-2.6,0-4.4,1.84-4.4,4.68v11.4a.38.38,0,0,1-.4.4H72.64a.38.38,0,0,1-.4-.4V160.44a.38.38,0,0,1,.4-.4H75.2a.38.38,0,0,1,.4.4v1.76h0A6.06,6.06,0,0,1,81,159.6c4.16,0,6.64,2.84,6.64,7.2v12a.38.38,0,0,1-.4.4Z"/><path d="M98.76,179.4c-3.72,0-5.16-1.68-5.16-5.44V163a.21.21,0,0,0-.24-.24h-1.6a.38.38,0,0,1-.4-.4v-1.92a.38.38,0,0,1,.4-.4h1.6a.21.21,0,0,0,.24-.24v-5.4a.38.38,0,0,1,.4-.4h2.56a.38.38,0,0,1,.4.4v5.4a.21.21,0,0,0,.24.24h3a.38.38,0,0,1,.4.4v1.92a.38.38,0,0,1-.4.4h-3A.21.21,0,0,0,97,163v10.84c0,1.92.72,2.44,2.44,2.44h.84a.38.38,0,0,1,.4.4V179a.38.38,0,0,1-.4.4Z"/><path d="M104.52,174.44a15,15,0,0,1-.64-4.84,14.86,14.86,0,0,1,.6-4.84c1.08-3.32,3.88-5.16,7.52-5.16a7.42,7.42,0,0,1,7.52,5.16,16.72,16.72,0,0,1,.6,5.48.39.39,0,0,1-.44.4H107.56a.21.21,0,0,0-.24.24,7.18,7.18,0,0,0,.32,2.32,4.73,4.73,0,0,0,4.84,3.32,6.26,6.26,0,0,0,4.92-2.12.41.41,0,0,1,.6-.08l1.64,1.48a.36.36,0,0,1,0,.56,9.32,9.32,0,0,1-7.48,3.28C108.32,179.64,105.56,177.76,104.52,174.44ZM116.44,168a.21.21,0,0,0,.24-.24,6.74,6.74,0,0,0-.28-2.16,4.73,4.73,0,0,0-8.8,0,6.74,6.74,0,0,0-.28,2.16.21.21,0,0,0,.24.24Z"/><path d="M123.4,176.76a.39.39,0,0,1,0-.56l1.64-1.76a.39.39,0,0,1,.56,0,9.31,9.31,0,0,0,5.92,2.2c2.8,0,4.2-1.2,4.2-2.92,0-1.52-.72-2.36-3.72-2.68l-2-.2c-3.76-.4-5.72-2.28-5.72-5.4,0-3.64,2.6-5.84,7.12-5.84a11.46,11.46,0,0,1,6.8,2.12.39.39,0,0,1,.08.56L136.88,164a.39.39,0,0,1-.56.08,10.09,10.09,0,0,0-5.16-1.56c-2.4,0-3.64,1.08-3.64,2.64s.92,2.32,3.76,2.6l2,.2c3.88.36,5.76,2.32,5.76,5.4,0,3.76-2.72,6.28-7.72,6.28A11.91,11.91,0,0,1,123.4,176.76Z"/><path d="M143.44,175h2.8a.38.38,0,0,1,.4.4v3.72a1.27,1.27,0,0,1-.24.88l-2.48,3.27a.63.63,0,0,1-.52.28.36.36,0,0,1-.36-.36v-7.79A.38.38,0,0,1,143.44,175Z"/><path d="M159.48,184a.36.36,0,0,1,0-.56l1.64-1.64a.39.39,0,0,1,.6,0,6.39,6.39,0,0,0,4.52,1.92c3.16,0,4.83-1.64,4.83-5.15v-2.24h0c-.88,1.6-2.51,2.64-5.31,2.64a6.28,6.28,0,0,1-6.44-4.64,20.16,20.16,0,0,1,0-10.08,6.28,6.28,0,0,1,6.44-4.64c2.8,0,4.43,1,5.31,2.64h0v-1.8a.38.38,0,0,1,.4-.4h2.56a.38.38,0,0,1,.4.4v17.92c0,5.43-3,8.47-8.35,8.47A8.66,8.66,0,0,1,159.48,184Zm11.19-11a11.65,11.65,0,0,0,.44-3.72,11.81,11.81,0,0,0-.44-3.72,4.31,4.31,0,0,0-8.11,0,12,12,0,0,0-.48,3.72,11.83,11.83,0,0,0,.48,3.72,4.29,4.29,0,0,0,8.11,0Z"/><path d="M191.83,179.2a.38.38,0,0,1-.4-.4v-1.68h0c-.88,1.44-2.75,2.52-5.67,2.52-3.64,0-6.44-1.88-6.44-5.76,0-4,2.8-5.92,7.48-5.92h4.35a.21.21,0,0,0,.24-.24v-1.4c0-2.64-1-3.76-4.59-3.76a7.45,7.45,0,0,0-4.64,1.36c-.2.16-.44.16-.56,0L180.48,162a.42.42,0,0,1,.08-.56,10.63,10.63,0,0,1,6.52-1.88c5.43,0,7.51,1.8,7.51,6.52V178.8a.38.38,0,0,1-.4.4Zm-.48-6.2v-2.12a.21.21,0,0,0-.24-.24h-3.83c-3.32,0-4.76,1-4.76,3.12,0,2,1.44,3,4,3C189.52,176.76,191.35,175.36,191.35,173Z"/><path d="M201.24,179.2a.38.38,0,0,1-.4-.4V163a.21.21,0,0,0-.24-.24H199a.38.38,0,0,1-.4-.4v-1.92a.38.38,0,0,1,.4-.4h1.64a.21.21,0,0,0,.24-.24v-1.64c0-4.52,1.84-6.16,5.84-6.16h1.48a.38.38,0,0,1,.4.4v2.32a.38.38,0,0,1-.4.4h-1c-2.44,0-2.92.52-2.92,2.88v1.8a.21.21,0,0,0,.24.24h3.72a.38.38,0,0,1,.4.4v1.92a.38.38,0,0,1-.4.4h-3.72a.21.21,0,0,0-.24.24v15.8a.38.38,0,0,1-.4.4Z"/><path d="M223.71,179.2a.38.38,0,0,1-.4-.4v-1.68h0c-.88,1.44-2.76,2.52-5.68,2.52-3.63,0-6.43-1.88-6.43-5.76,0-4,2.8-5.92,7.47-5.92H223a.21.21,0,0,0,.24-.24v-1.4c0-2.64-1-3.76-4.6-3.76a7.44,7.44,0,0,0-4.63,1.36c-.2.16-.44.16-.56,0L212.36,162a.42.42,0,0,1,.08-.56A10.62,10.62,0,0,1,219,159.6c5.44,0,7.52,1.8,7.52,6.52V178.8a.38.38,0,0,1-.4.4Zm-.48-6.2v-2.12a.21.21,0,0,0-.24-.24h-3.84c-3.31,0-4.75,1-4.75,3.12,0,2,1.44,3,4,3C221.39,176.76,223.23,175.36,223.23,173Z"/><path d="M230.76,176.76a.39.39,0,0,1,0-.56l1.64-1.76a.39.39,0,0,1,.56,0,9.3,9.3,0,0,0,5.91,2.2c2.8,0,4.2-1.2,4.2-2.92,0-1.52-.72-2.36-3.72-2.68l-2-.2c-3.75-.4-5.71-2.28-5.71-5.4,0-3.64,2.6-5.84,7.11-5.84a11.46,11.46,0,0,1,6.8,2.12.39.39,0,0,1,.08.56L244.23,164a.39.39,0,0,1-.56.08,10.09,10.09,0,0,0-5.16-1.56c-2.39,0-3.63,1.08-3.63,2.64s.92,2.32,3.75,2.6l2,.2c3.88.36,5.76,2.32,5.76,5.4,0,3.76-2.72,6.28-7.72,6.28A11.9,11.9,0,0,1,230.76,176.76Z"/><path d="M250.79,175h2.8a.38.38,0,0,1,.4.4v3.72a1.27,1.27,0,0,1-.24.88l-2.48,3.27a.6.6,0,0,1-.51.28.36.36,0,0,1-.36-.36v-7.79A.38.38,0,0,1,250.79,175Z"/><path d="M266.68,164.76c1.07-3.32,3.87-5.16,7.55-5.16a7.68,7.68,0,0,1,6.56,3.24c.12.2.12.36-.12.56l-1.76,1.44a.36.36,0,0,1-.56,0,4.71,4.71,0,0,0-4.12-2.08,4.16,4.16,0,0,0-4.28,3,17.5,17.5,0,0,0,0,7.8,4.16,4.16,0,0,0,4.28,3,4.71,4.71,0,0,0,4.12-2.08.36.36,0,0,1,.56,0l1.76,1.44c.24.2.24.36.12.56a7.68,7.68,0,0,1-6.56,3.24c-3.68,0-6.48-1.84-7.55-5.16a20,20,0,0,1,0-9.72Z"/><path d="M296.43,179.2a.38.38,0,0,1-.4-.4v-1.68h0c-.88,1.44-2.76,2.52-5.68,2.52-3.64,0-6.43-1.88-6.43-5.76,0-4,2.79-5.92,7.47-5.92h4.36a.21.21,0,0,0,.24-.24v-1.4c0-2.64-1-3.76-4.6-3.76a7.45,7.45,0,0,0-4.64,1.36c-.2.16-.44.16-.56,0L285.07,162a.42.42,0,0,1,.08-.56,10.63,10.63,0,0,1,6.52-1.88c5.44,0,7.52,1.8,7.52,6.52V178.8a.38.38,0,0,1-.4.4ZM296,173v-2.12a.21.21,0,0,0-.24-.24h-3.84c-3.32,0-4.76,1-4.76,3.12,0,2,1.44,3,4,3C294.11,176.76,296,175.36,296,173Z"/><path d="M303.47,176.76a.39.39,0,0,1,0-.56l1.64-1.76a.39.39,0,0,1,.56,0,9.31,9.31,0,0,0,5.92,2.2c2.8,0,4.2-1.2,4.2-2.92,0-1.52-.72-2.36-3.72-2.68l-2-.2c-3.76-.4-5.72-2.28-5.72-5.4,0-3.64,2.6-5.84,7.12-5.84a11.46,11.46,0,0,1,6.8,2.12.39.39,0,0,1,.08.56L317,164a.39.39,0,0,1-.56.08,10.09,10.09,0,0,0-5.16-1.56c-2.4,0-3.64,1.08-3.64,2.64s.92,2.32,3.76,2.6l2,.2c3.88.36,5.76,2.32,5.76,5.4,0,3.76-2.72,6.28-7.72,6.28A11.91,11.91,0,0,1,303.47,176.76Z"/><path d="M323,164.76c1.08-3.32,3.88-5.16,7.56-5.16a7.68,7.68,0,0,1,6.56,3.24c.12.2.12.36-.12.56l-1.76,1.44a.36.36,0,0,1-.56,0,4.71,4.71,0,0,0-4.12-2.08,4.16,4.16,0,0,0-4.28,3,17.5,17.5,0,0,0,0,7.8,4.16,4.16,0,0,0,4.28,3,4.71,4.71,0,0,0,4.12-2.08.36.36,0,0,1,.56,0l1.76,1.44c.24.2.24.36.12.56a7.68,7.68,0,0,1-6.56,3.24c-3.68,0-6.48-1.84-7.56-5.16a20,20,0,0,1,0-9.72Z"/><path d="M340.67,174.48a18.77,18.77,0,0,1,0-9.72c1-3.28,3.84-5.16,7.56-5.16s6.52,1.88,7.56,5.16a18.77,18.77,0,0,1,0,9.72c-1,3.24-3.84,5.16-7.56,5.16S341.71,177.72,340.67,174.48Zm11.88-1a12.55,12.55,0,0,0,.44-3.92,12.27,12.27,0,0,0-.44-3.88,4.61,4.61,0,0,0-8.64,0,12.27,12.27,0,0,0-.44,3.88,12.55,12.55,0,0,0,.44,3.92,4.61,4.61,0,0,0,8.64,0Z"/><path d="M361,175h2.8a.38.38,0,0,1,.4.4v3.72a1.27,1.27,0,0,1-.24.88l-2.48,3.27a.63.63,0,0,1-.52.28.36.36,0,0,1-.36-.36v-7.79A.38.38,0,0,1,361,175Z"/><path d="M376.87,174.44a15,15,0,0,1-.64-4.84,14.86,14.86,0,0,1,.6-4.84c1.08-3.32,3.88-5.16,7.52-5.16a7.42,7.42,0,0,1,7.52,5.16,16.72,16.72,0,0,1,.6,5.48.39.39,0,0,1-.44.4H379.91a.21.21,0,0,0-.24.24,7.18,7.18,0,0,0,.32,2.32,4.73,4.73,0,0,0,4.84,3.32,6.26,6.26,0,0,0,4.92-2.12.41.41,0,0,1,.6-.08L392,175.8a.36.36,0,0,1,0,.56,9.32,9.32,0,0,1-7.48,3.28C380.67,179.64,377.91,177.76,376.87,174.44ZM388.79,168a.21.21,0,0,0,.24-.24,6.74,6.74,0,0,0-.28-2.16,4.73,4.73,0,0,0-8.8,0,6.74,6.74,0,0,0-.28,2.16.21.21,0,0,0,.24.24Z"/><path d="M402.63,179.4c-3.72,0-5.16-1.68-5.16-5.44V163a.21.21,0,0,0-.24-.24h-1.6a.38.38,0,0,1-.4-.4v-1.92a.38.38,0,0,1,.4-.4h1.6a.21.21,0,0,0,.24-.24v-5.4a.38.38,0,0,1,.4-.4h2.56a.38.38,0,0,1,.4.4v5.4a.21.21,0,0,0,.24.24h3a.38.38,0,0,1,.4.4v1.92a.38.38,0,0,1-.4.4h-3a.21.21,0,0,0-.24.24v10.84c0,1.92.72,2.44,2.44,2.44h.84a.38.38,0,0,1,.4.4V179a.38.38,0,0,1-.4.4Z"/><path d="M408.35,164.76c1.08-3.32,3.88-5.16,7.56-5.16a7.68,7.68,0,0,1,6.56,3.24c.12.2.12.36-.12.56l-1.76,1.44a.36.36,0,0,1-.56,0,4.71,4.71,0,0,0-4.12-2.08,4.16,4.16,0,0,0-4.28,3,17.5,17.5,0,0,0,0,7.8,4.16,4.16,0,0,0,4.28,3,4.71,4.71,0,0,0,4.12-2.08.36.36,0,0,1,.56,0l1.76,1.44c.24.2.24.36.12.56a7.68,7.68,0,0,1-6.56,3.24c-3.68,0-6.48-1.84-7.56-5.16a20,20,0,0,1,0-9.72Z"/><path d="M429.35,166.08a37,37,0,0,0-3.8-16.08c-.12-.24,0-.4.24-.4h1.4a.73.73,0,0,1,.64.4,29.52,29.52,0,0,1,0,32.15.71.71,0,0,1-.64.4h-1.4c-.24,0-.36-.15-.24-.4A37.2,37.2,0,0,0,429.35,166.08Z"/><path d="M437.51,175h2.8a.38.38,0,0,1,.4.4v3.72a1.27,1.27,0,0,1-.24.88L438,183.23a.63.63,0,0,1-.52.28.36.36,0,0,1-.36-.36v-7.79A.38.38,0,0,1,437.51,175Z"/><path d="M60.06,217.2c-.28,0-.4-.16-.48-.4L52.7,198.44c-.08-.24,0-.4.32-.4h2.76c.28,0,.4.12.52.4l5,13.76h.08l4.84-13.76a.47.47,0,0,1,.48-.4h2.72c.28,0,.4.16.32.4L62.86,216.8a.52.52,0,0,1-.52.4Z"/><path d="M84.62,217.2a.38.38,0,0,1-.4-.4v-1.68h0c-.88,1.44-2.76,2.52-5.68,2.52-3.64,0-6.44-1.88-6.44-5.76,0-4,2.8-5.92,7.48-5.92H83.9a.21.21,0,0,0,.24-.24v-1.4c0-2.64-1-3.76-4.6-3.76a7.45,7.45,0,0,0-4.64,1.36c-.2.16-.44.16-.56,0L73.26,200a.42.42,0,0,1,.08-.56,10.63,10.63,0,0,1,6.52-1.88c5.44,0,7.52,1.8,7.52,6.52V216.8a.38.38,0,0,1-.4.4Zm-.48-6.2v-2.12a.21.21,0,0,0-.24-.24H80.06c-3.32,0-4.76,1-4.76,3.12,0,2,1.44,3,4,3C82.3,214.76,84.14,213.36,84.14,211Z"/><path d="M93,224.39a.38.38,0,0,1-.4-.4v-2.32a.38.38,0,0,1,.4-.4h.72c1.56,0,2.4-.68,3.24-2.87l.64-1.76-7-18.2c-.08-.24,0-.4.32-.4h2.8a.47.47,0,0,1,.48.4l5,13.84h.08l4.84-13.84a.47.47,0,0,1,.48-.4h2.72c.24,0,.4.16.32.4l-7.56,20.24c-1.68,4.51-3.16,5.71-6,5.71Z"/><path d="M122.46,217.2a.38.38,0,0,1-.4-.4v-1.68h0c-.88,1.44-2.76,2.52-5.68,2.52-3.64,0-6.44-1.88-6.44-5.76,0-4,2.8-5.92,7.48-5.92h4.36a.21.21,0,0,0,.24-.24v-1.4c0-2.64-1-3.76-4.6-3.76a7.45,7.45,0,0,0-4.64,1.36c-.2.16-.44.16-.56,0L111.1,200a.42.42,0,0,1,.08-.56,10.63,10.63,0,0,1,6.52-1.88c5.44,0,7.52,1.8,7.52,6.52V216.8a.38.38,0,0,1-.4.4ZM122,211v-2.12a.21.21,0,0,0-.24-.24H117.9c-3.32,0-4.76,1-4.76,3.12,0,2,1.44,3,4,3C120.14,214.76,122,213.36,122,211Z"/><path d="M151.22,217.2a.38.38,0,0,1-.4-.4v-1.68h0c-.88,1.44-2.76,2.52-5.68,2.52-3.64,0-6.44-1.88-6.44-5.76,0-4,2.8-5.92,7.48-5.92h4.36a.21.21,0,0,0,.24-.24v-1.4c0-2.64-1-3.76-4.6-3.76a7.45,7.45,0,0,0-4.64,1.36c-.2.16-.44.16-.56,0L139.86,200a.42.42,0,0,1,.08-.56,10.63,10.63,0,0,1,6.52-1.88c5.44,0,7.52,1.8,7.52,6.52V216.8a.38.38,0,0,1-.4.4Zm-.48-6.2v-2.12a.21.21,0,0,0-.24-.24h-3.84c-3.32,0-4.76,1-4.76,3.12,0,2,1.44,3,4,3C148.9,214.76,150.74,213.36,150.74,211Z"/><path d="M159,202.76c1.08-3.32,3.88-5.16,7.56-5.16a7.68,7.68,0,0,1,6.56,3.24.39.39,0,0,1-.12.56l-1.76,1.44a.36.36,0,0,1-.56,0,4.71,4.71,0,0,0-4.12-2.08,4.16,4.16,0,0,0-4.28,3,17.5,17.5,0,0,0,0,7.8,4.16,4.16,0,0,0,4.28,3,4.71,4.71,0,0,0,4.12-2.08.36.36,0,0,1,.56,0l1.76,1.44a.39.39,0,0,1,.12.56,7.68,7.68,0,0,1-6.56,3.24c-3.68,0-6.48-1.84-7.56-5.16a20,20,0,0,1,0-9.72Z"/><path d="M176.66,212.48a18.77,18.77,0,0,1,0-9.72c1-3.28,3.84-5.16,7.56-5.16s6.51,1.88,7.55,5.16a18.77,18.77,0,0,1,0,9.72c-1,3.24-3.84,5.16-7.55,5.16S177.7,215.72,176.66,212.48Zm11.87-1a12.55,12.55,0,0,0,.44-3.92,12.27,12.27,0,0,0-.44-3.88,4.6,4.6,0,0,0-8.63,0,12.27,12.27,0,0,0-.44,3.88,12.55,12.55,0,0,0,.44,3.92,4.6,4.6,0,0,0,8.63,0Z"/><path d="M221.49,217.2a.38.38,0,0,1-.4-.4V205.6c0-3.08-1.4-4.88-4.28-4.88a4.32,4.32,0,0,0-4.4,4.68v11.4a.38.38,0,0,1-.4.4h-2.56a.38.38,0,0,1-.4-.4V205.6c0-3.08-1.4-4.88-4.28-4.88-2.59,0-4.39,1.84-4.39,4.68v11.4a.38.38,0,0,1-.4.4h-2.56a.38.38,0,0,1-.4-.4V198.44a.38.38,0,0,1,.4-.4H200a.38.38,0,0,1,.4.4v1.76h0a6.76,6.76,0,0,1,11,.4h0a7.13,7.13,0,0,1,6.2-3c4.44,0,6.84,2.84,6.84,7.2v12a.38.38,0,0,1-.4.4Z"/><path d="M230.42,224.39a.38.38,0,0,1-.4-.4V198.44a.38.38,0,0,1,.4-.4H233a.38.38,0,0,1,.4.4v1.8h0c.92-1.52,2.56-2.64,5.44-2.64,3.32,0,5.64,1.56,6.6,4.6a21.94,21.94,0,0,1,0,10.84c-1,3-3.28,4.6-6.6,4.6-2.88,0-4.52-1.16-5.44-2.68h0v9a.38.38,0,0,1-.4.4Zm11.83-12.79a13.29,13.29,0,0,0,.44-4,13.63,13.63,0,0,0-.44-4,4.53,4.53,0,0,0-8.44,0,12.47,12.47,0,0,0-.44,4,12.31,12.31,0,0,0,.44,4,4.51,4.51,0,0,0,8.44,0Z"/><path d="M262.33,217.2a.38.38,0,0,1-.4-.4v-1.68h0c-.88,1.44-2.76,2.52-5.68,2.52-3.63,0-6.43-1.88-6.43-5.76,0-4,2.8-5.92,7.47-5.92h4.36a.21.21,0,0,0,.24-.24v-1.4c0-2.64-1-3.76-4.6-3.76a7.4,7.4,0,0,0-4.63,1.36c-.2.16-.44.16-.56,0L251,200a.42.42,0,0,1,.08-.56,10.6,10.6,0,0,1,6.51-1.88c5.44,0,7.52,1.8,7.52,6.52V216.8a.38.38,0,0,1-.4.4Zm-.48-6.2v-2.12a.21.21,0,0,0-.24-.24h-3.84c-3.31,0-4.75,1-4.75,3.12,0,2,1.44,3,4,3C260,214.76,261.85,213.36,261.85,211Z"/><path d="M283.13,217.2a.38.38,0,0,1-.4-.4V205.6c0-3.08-1.4-4.88-4.28-4.88-2.6,0-4.4,1.84-4.4,4.68v11.4a.37.37,0,0,1-.4.4H271.1a.38.38,0,0,1-.4-.4V198.44a.38.38,0,0,1,.4-.4h2.55a.37.37,0,0,1,.4.4v1.76h0a6.06,6.06,0,0,1,5.36-2.6c4.16,0,6.64,2.84,6.64,7.2v12a.38.38,0,0,1-.4.4ZM278,193.32a4.21,4.21,0,0,0-2.12-.72,3.77,3.77,0,0,0-2.52,1.28c-.16.16-.31.08-.31-.08v-1.92a1,1,0,0,1,.27-.72,3.91,3.91,0,0,1,2.72-1.28,4.63,4.63,0,0,1,2.52.84,4.21,4.21,0,0,0,2.12.72,3.77,3.77,0,0,0,2.52-1.28c.16-.16.32-.08.32.08v1.92a.93.93,0,0,1-.28.72,3.89,3.89,0,0,1-2.72,1.28A4.86,4.86,0,0,1,278,193.32Z"/><path d="M303.25,217.2a.38.38,0,0,1-.4-.4v-1.68h0c-.88,1.44-2.76,2.52-5.68,2.52-3.64,0-6.43-1.88-6.43-5.76,0-4,2.79-5.92,7.47-5.92h4.36a.21.21,0,0,0,.24-.24v-1.4c0-2.64-1-3.76-4.6-3.76a7.45,7.45,0,0,0-4.64,1.36c-.2.16-.44.16-.56,0L291.9,200a.4.4,0,0,1,.08-.56,10.57,10.57,0,0,1,6.51-1.88c5.44,0,7.52,1.8,7.52,6.52V216.8a.38.38,0,0,1-.4.4Zm-.48-6.2v-2.12a.21.21,0,0,0-.24-.24h-3.84c-3.32,0-4.76,1-4.76,3.12,0,2,1.44,3,4,3C300.93,214.76,302.77,213.36,302.77,211Z"/><path d="M323.61,217.2a.38.38,0,0,1-.4-.4V215h0c-.92,1.52-2.56,2.68-5.44,2.68-3.32,0-5.64-1.56-6.6-4.6a22.26,22.26,0,0,1,0-10.84c1-3,3.28-4.6,6.6-4.6,2.88,0,4.52,1.12,5.44,2.64h0V190.4a.38.38,0,0,1,.4-.4h2.56a.38.38,0,0,1,.4.4v26.4a.38.38,0,0,1-.4.4Zm-.84-5.6a12.31,12.31,0,0,0,.44-4,12.47,12.47,0,0,0-.44-4,4.53,4.53,0,0,0-8.44,0,13.63,13.63,0,0,0-.44,4,13.29,13.29,0,0,0,.44,4,4.51,4.51,0,0,0,8.44,0Z"/><path d="M331.81,212.48a18.77,18.77,0,0,1,0-9.72c1-3.28,3.84-5.16,7.56-5.16s6.52,1.88,7.56,5.16a18.77,18.77,0,0,1,0,9.72c-1,3.24-3.84,5.16-7.56,5.16S332.85,215.72,331.81,212.48Zm11.88-1a12.55,12.55,0,0,0,.44-3.92,12.27,12.27,0,0,0-.44-3.88,4.61,4.61,0,0,0-8.64,0,12.27,12.27,0,0,0-.44,3.88,12.55,12.55,0,0,0,.44,3.92,4.61,4.61,0,0,0,8.64,0Z"/><path d="M373,217.2a.38.38,0,0,1-.4-.4V215h0c-.92,1.52-2.56,2.68-5.44,2.68-3.32,0-5.64-1.56-6.6-4.6a21.94,21.94,0,0,1,0-10.84c1-3,3.28-4.6,6.6-4.6,2.88,0,4.52,1.12,5.44,2.64h0V190.4a.38.38,0,0,1,.4-.4h2.56a.38.38,0,0,1,.4.4v26.4a.38.38,0,0,1-.4.4Zm-.84-5.6a12.31,12.31,0,0,0,.44-4,12.47,12.47,0,0,0-.44-4,4.53,4.53,0,0,0-8.44,0,13.63,13.63,0,0,0-.44,4,13.29,13.29,0,0,0,.44,4,4.51,4.51,0,0,0,8.44,0Z"/><path d="M381.17,212.44a15,15,0,0,1-.64-4.84,14.86,14.86,0,0,1,.6-4.84c1.08-3.32,3.88-5.16,7.52-5.16a7.42,7.42,0,0,1,7.52,5.16,16.72,16.72,0,0,1,.6,5.48.39.39,0,0,1-.44.4H384.21a.21.21,0,0,0-.24.24,7.18,7.18,0,0,0,.32,2.32,4.73,4.73,0,0,0,4.84,3.32,6.26,6.26,0,0,0,4.92-2.12.41.41,0,0,1,.6-.08l1.64,1.48a.36.36,0,0,1,0,.56,9.32,9.32,0,0,1-7.48,3.28C385,217.64,382.21,215.76,381.17,212.44ZM393.09,206a.21.21,0,0,0,.24-.24,6.74,6.74,0,0,0-.28-2.16,4.73,4.73,0,0,0-8.8,0,6.74,6.74,0,0,0-.28,2.16.21.21,0,0,0,.24.24Z"/><path d="M20.46,262.39a.38.38,0,0,1-.4-.4V236.44a.38.38,0,0,1,.4-.4H23a.38.38,0,0,1,.4.4v1.8h0c.92-1.52,2.56-2.64,5.44-2.64,3.32,0,5.64,1.56,6.6,4.6a21.94,21.94,0,0,1,0,10.84c-1,3-3.28,4.6-6.6,4.6-2.88,0-4.52-1.16-5.44-2.68h0v9a.38.38,0,0,1-.4.4ZM32.3,249.6a13.29,13.29,0,0,0,.44-4,13.63,13.63,0,0,0-.44-4,4.07,4.07,0,0,0-4.2-2.88,4.07,4.07,0,0,0-4.24,2.88,12.47,12.47,0,0,0-.44,4,12.31,12.31,0,0,0,.44,4,4.1,4.1,0,0,0,4.24,2.92A4.1,4.1,0,0,0,32.3,249.6Z"/><path d="M40.26,250.44a15,15,0,0,1-.64-4.84,14.86,14.86,0,0,1,.6-4.84c1.08-3.32,3.88-5.16,7.52-5.16a7.42,7.42,0,0,1,7.52,5.16,16.72,16.72,0,0,1,.6,5.48.39.39,0,0,1-.44.4H43.3a.21.21,0,0,0-.24.24,7.18,7.18,0,0,0,.32,2.32,4.73,4.73,0,0,0,4.84,3.32,6.26,6.26,0,0,0,4.92-2.12.41.41,0,0,1,.6-.08l1.64,1.48a.36.36,0,0,1,0,.56,9.32,9.32,0,0,1-7.48,3.28C44.06,255.64,41.3,253.76,40.26,250.44ZM52.18,244a.21.21,0,0,0,.24-.24,6.74,6.74,0,0,0-.28-2.16,4.33,4.33,0,0,0-4.4-3,4.33,4.33,0,0,0-4.4,3,6.74,6.74,0,0,0-.28,2.16.21.21,0,0,0,.24.24Z"/><path d="M60.86,255.2a.38.38,0,0,1-.4-.4V236.44a.38.38,0,0,1,.4-.4h2.56a.38.38,0,0,1,.4.4v2h0a5.34,5.34,0,0,1,5.08-2.8A5.89,5.89,0,0,1,72.86,237c.2.2.24.36.08.56l-1.48,2a.36.36,0,0,1-.56.08,5.4,5.4,0,0,0-3-.92c-2.92,0-4.12,2.28-4.12,5.6V254.8a.38.38,0,0,1-.4.4Z"/><path d="M74.42,252.76a.39.39,0,0,1,0-.56l1.64-1.76a.39.39,0,0,1,.56,0,9.31,9.31,0,0,0,5.92,2.2c2.8,0,4.2-1.2,4.2-2.92,0-1.52-.72-2.36-3.72-2.68l-2-.2c-3.76-.4-5.72-2.28-5.72-5.4,0-3.64,2.6-5.84,7.12-5.84a11.46,11.46,0,0,1,6.8,2.12.39.39,0,0,1,.08.56L87.9,240a.39.39,0,0,1-.56.08,10.09,10.09,0,0,0-5.16-1.56c-2.4,0-3.64,1.08-3.64,2.64s.92,2.32,3.76,2.6l2,.2c3.88.36,5.76,2.32,5.76,5.4,0,3.76-2.72,6.28-7.72,6.28A11.91,11.91,0,0,1,74.42,252.76Z"/><path d="M94,250.48a18.77,18.77,0,0,1,0-9.72c1-3.28,3.84-5.16,7.56-5.16s6.51,1.88,7.55,5.16a18.77,18.77,0,0,1,0,9.72c-1,3.24-3.84,5.16-7.55,5.16S95.06,253.72,94,250.48Zm11.88-1a12.91,12.91,0,0,0,.43-3.92,12.62,12.62,0,0,0-.43-3.88,4.61,4.61,0,0,0-8.64,0,12.27,12.27,0,0,0-.44,3.88,12.55,12.55,0,0,0,.44,3.92,4.61,4.61,0,0,0,8.64,0Z"/><path d="M126.81,255.2a.38.38,0,0,1-.4-.4V243.6c0-3.08-1.4-4.88-4.27-4.88-2.6,0-4.4,1.84-4.4,4.68v11.4a.38.38,0,0,1-.4.4h-2.56a.38.38,0,0,1-.4-.4V236.44a.38.38,0,0,1,.4-.4h2.56a.38.38,0,0,1,.4.4v1.76h0a6.06,6.06,0,0,1,5.36-2.6c4.15,0,6.63,2.84,6.63,7.2v12a.38.38,0,0,1-.4.4Z"/><path d="M146.93,255.2a.38.38,0,0,1-.4-.4v-1.68h0c-.88,1.44-2.75,2.52-5.67,2.52-3.64,0-6.44-1.88-6.44-5.76,0-4,2.8-5.92,7.48-5.92h4.35a.21.21,0,0,0,.24-.24v-1.4c0-2.64-1-3.76-4.59-3.76a7.45,7.45,0,0,0-4.64,1.36c-.2.16-.44.16-.56,0L135.58,238a.42.42,0,0,1,.08-.56,10.63,10.63,0,0,1,6.52-1.88c5.43,0,7.51,1.8,7.51,6.52V254.8a.38.38,0,0,1-.4.4Zm-.48-6.2v-2.12a.21.21,0,0,0-.24-.24h-3.83c-3.32,0-4.76,1-4.76,3.12,0,2,1.44,3,4,3C144.62,252.76,146.45,251.36,146.45,249Z"/><path d="M159.9,255.4c-3.36,0-4.68-1.6-4.68-5v-22a.38.38,0,0,1,.4-.4h2.56a.38.38,0,0,1,.4.4v21.76c0,1.6.6,2.12,1.92,2.12h.75a.37.37,0,0,1,.4.4V255a.37.37,0,0,1-.4.4Z"/><path d="M173.82,240.76c1.08-3.32,3.87-5.16,7.55-5.16a7.68,7.68,0,0,1,6.56,3.24c.12.2.12.36-.12.56l-1.76,1.44a.36.36,0,0,1-.56,0,4.71,4.71,0,0,0-4.12-2.08,4.16,4.16,0,0,0-4.28,3,17.5,17.5,0,0,0,0,7.8,4.16,4.16,0,0,0,4.28,3,4.71,4.71,0,0,0,4.12-2.08.36.36,0,0,1,.56,0l1.76,1.44c.24.2.24.36.12.56a7.68,7.68,0,0,1-6.56,3.24c-3.68,0-6.47-1.84-7.55-5.16a20,20,0,0,1,0-9.72Z"/><path d="M203.57,255.2a.38.38,0,0,1-.4-.4v-1.68h0c-.88,1.44-2.76,2.52-5.68,2.52-3.64,0-6.43-1.88-6.43-5.76,0-4,2.79-5.92,7.47-5.92h4.36a.21.21,0,0,0,.24-.24v-1.4c0-2.64-1-3.76-4.6-3.76a7.45,7.45,0,0,0-4.64,1.36c-.2.16-.44.16-.56,0L192.21,238a.42.42,0,0,1,.08-.56,10.63,10.63,0,0,1,6.52-1.88c5.44,0,7.52,1.8,7.52,6.52V254.8a.38.38,0,0,1-.4.4Zm-.48-6.2v-2.12a.21.21,0,0,0-.24-.24H199c-3.32,0-4.76,1-4.76,3.12,0,2,1.44,3,4,3C201.25,252.76,203.09,251.36,203.09,249Z"/><path d="M212.33,262.39a.38.38,0,0,1-.4-.4V236.44a.38.38,0,0,1,.4-.4h2.56a.38.38,0,0,1,.4.4v1.8h0c.92-1.52,2.56-2.64,5.44-2.64,3.32,0,5.64,1.56,6.6,4.6a21.94,21.94,0,0,1,0,10.84c-1,3-3.28,4.6-6.6,4.6-2.88,0-4.52-1.16-5.44-2.68h0v9a.38.38,0,0,1-.4.4Zm11.84-12.79a13.29,13.29,0,0,0,.44-4,13.63,13.63,0,0,0-.44-4,4.53,4.53,0,0,0-8.44,0,12.47,12.47,0,0,0-.44,4,12.31,12.31,0,0,0,.44,4,4.51,4.51,0,0,0,8.44,0Z"/><path d="M244.25,255.2a.38.38,0,0,1-.4-.4v-1.68h0c-.88,1.44-2.76,2.52-5.68,2.52-3.64,0-6.44-1.88-6.44-5.76,0-4,2.8-5.92,7.48-5.92h4.36a.21.21,0,0,0,.24-.24v-1.4c0-2.64-1-3.76-4.6-3.76a7.45,7.45,0,0,0-4.64,1.36c-.2.16-.44.16-.56,0L232.89,238a.42.42,0,0,1,.08-.56,10.63,10.63,0,0,1,6.52-1.88c5.44,0,7.52,1.8,7.52,6.52V254.8a.38.38,0,0,1-.4.4Zm-.48-6.2v-2.12a.21.21,0,0,0-.24-.24h-3.84c-3.32,0-4.76,1-4.76,3.12,0,2,1.44,3,4,3C241.93,252.76,243.77,251.36,243.77,249Z"/><path d="M252.05,240.76c1.08-3.32,3.88-5.16,7.56-5.16a7.68,7.68,0,0,1,6.56,3.24c.12.2.12.36-.12.56l-1.76,1.44a.36.36,0,0,1-.56,0,4.71,4.71,0,0,0-4.12-2.08,4.16,4.16,0,0,0-4.28,3,17.5,17.5,0,0,0,0,7.8,4.16,4.16,0,0,0,4.28,3,4.71,4.71,0,0,0,4.12-2.08.36.36,0,0,1,.56,0l1.76,1.44c.24.2.24.36.12.56a7.68,7.68,0,0,1-6.56,3.24c-3.68,0-6.48-1.84-7.56-5.16a20,20,0,0,1,0-9.72Z"/><path d="M271,231.72a.38.38,0,0,1-.4-.4V228.4a.38.38,0,0,1,.4-.4h2.72a.38.38,0,0,1,.4.4v2.92a.38.38,0,0,1-.4.4Zm.08,23.48a.38.38,0,0,1-.4-.4V236.44a.38.38,0,0,1,.4-.4h2.56a.38.38,0,0,1,.4.4V254.8a.38.38,0,0,1-.4.4Z"/><path d="M285.37,255.4c-3.72,0-5.16-1.68-5.16-5.44V239a.21.21,0,0,0-.24-.24h-1.6a.38.38,0,0,1-.4-.4v-1.92a.38.38,0,0,1,.4-.4H280a.21.21,0,0,0,.24-.24v-5.4a.38.38,0,0,1,.4-.4h2.56a.38.38,0,0,1,.4.4v5.4a.21.21,0,0,0,.24.24h3a.38.38,0,0,1,.4.4v1.92a.38.38,0,0,1-.4.4h-3a.21.21,0,0,0-.24.24v10.84c0,1.92.72,2.44,2.44,2.44h.84a.38.38,0,0,1,.4.4V255a.38.38,0,0,1-.4.4Z"/><path d="M303.25,255.2a.38.38,0,0,1-.4-.4v-1.68h0c-.88,1.44-2.76,2.52-5.68,2.52-3.64,0-6.44-1.88-6.44-5.76,0-4,2.8-5.92,7.48-5.92h4.36a.21.21,0,0,0,.24-.24v-1.4c0-2.64-1-3.76-4.6-3.76a7.45,7.45,0,0,0-4.64,1.36c-.2.16-.44.16-.56,0L291.89,238a.42.42,0,0,1,.08-.56,10.63,10.63,0,0,1,6.52-1.88c5.44,0,7.52,1.8,7.52,6.52V254.8a.38.38,0,0,1-.4.4Zm-.48-6.2v-2.12a.21.21,0,0,0-.24-.24h-3.84c-3.32,0-4.76,1-4.76,3.12,0,2,1.44,3,4,3C300.93,252.76,302.77,251.36,302.77,249Z"/><path d="M323.61,255.2a.38.38,0,0,1-.4-.4V253h0c-.92,1.52-2.56,2.68-5.44,2.68-3.32,0-5.64-1.56-6.6-4.6a21.94,21.94,0,0,1,0-10.84c1-3,3.28-4.6,6.6-4.6,2.88,0,4.52,1.12,5.44,2.64h0V228.4a.38.38,0,0,1,.4-.4h2.56a.38.38,0,0,1,.4.4v26.4a.38.38,0,0,1-.4.4Zm-.84-5.6a12.31,12.31,0,0,0,.44-4,12.47,12.47,0,0,0-.44-4,4.53,4.53,0,0,0-8.44,0,13.63,13.63,0,0,0-.44,4,13.29,13.29,0,0,0,.44,4,4.51,4.51,0,0,0,8.44,0Z"/><path d="M331.81,250.48a18.77,18.77,0,0,1,0-9.72c1-3.28,3.84-5.16,7.56-5.16s6.52,1.88,7.56,5.16a18.77,18.77,0,0,1,0,9.72c-1,3.24-3.84,5.16-7.56,5.16S332.85,253.72,331.81,250.48Zm11.88-1a12.55,12.55,0,0,0,.44-3.92,12.27,12.27,0,0,0-.44-3.88,4.61,4.61,0,0,0-8.64,0,12.27,12.27,0,0,0-.44,3.88,12.55,12.55,0,0,0,.44,3.92,4.61,4.61,0,0,0,8.64,0Z"/><path d="M361.37,262.39a.38.38,0,0,1-.4-.4V236.44a.38.38,0,0,1,.4-.4h2.56a.38.38,0,0,1,.4.4v1.8h0c.92-1.52,2.56-2.64,5.44-2.64,3.32,0,5.64,1.56,6.6,4.6a21.94,21.94,0,0,1,0,10.84c-1,3-3.28,4.6-6.6,4.6-2.88,0-4.52-1.16-5.44-2.68h0v9a.38.38,0,0,1-.4.4Zm11.84-12.79a13.29,13.29,0,0,0,.44-4,13.63,13.63,0,0,0-.44-4,4.53,4.53,0,0,0-8.44,0,12.47,12.47,0,0,0-.44,4,12.31,12.31,0,0,0,.44,4,4.51,4.51,0,0,0,8.44,0Z"/><path d="M393.29,255.2a.38.38,0,0,1-.4-.4v-1.68h0c-.88,1.44-2.76,2.52-5.68,2.52-3.64,0-6.44-1.88-6.44-5.76,0-4,2.8-5.92,7.48-5.92h4.36a.21.21,0,0,0,.24-.24v-1.4c0-2.64-1-3.76-4.6-3.76a7.45,7.45,0,0,0-4.64,1.36c-.2.16-.44.16-.56,0L381.93,238a.42.42,0,0,1,.08-.56,10.63,10.63,0,0,1,6.52-1.88c5.44,0,7.52,1.8,7.52,6.52V254.8a.38.38,0,0,1-.4.4Zm-.48-6.2v-2.12a.21.21,0,0,0-.24-.24h-3.84c-3.32,0-4.76,1-4.76,3.12,0,2,1.44,3,4,3C391,252.76,392.81,251.36,392.81,249Z"/><path d="M402.05,255.2a.38.38,0,0,1-.4-.4V236.44a.38.38,0,0,1,.4-.4h2.56a.38.38,0,0,1,.4.4v2h0a5.34,5.34,0,0,1,5.08-2.8,5.89,5.89,0,0,1,3.92,1.44c.2.2.24.36.08.56l-1.48,2a.36.36,0,0,1-.56.08,5.4,5.4,0,0,0-3-.92c-2.92,0-4.12,2.28-4.12,5.6V254.8a.38.38,0,0,1-.4.4Z"/><path d="M427.89,255.2a.38.38,0,0,1-.4-.4v-1.68h0c-.88,1.44-2.76,2.52-5.68,2.52-3.64,0-6.44-1.88-6.44-5.76,0-4,2.8-5.92,7.48-5.92h4.36a.21.21,0,0,0,.24-.24v-1.4c0-2.64-1-3.76-4.6-3.76a7.45,7.45,0,0,0-4.64,1.36c-.2.16-.44.16-.56,0L416.53,238a.42.42,0,0,1,.08-.56,10.63,10.63,0,0,1,6.52-1.88c5.44,0,7.52,1.8,7.52,6.52V254.8a.38.38,0,0,1-.4.4Zm-.48-6.2v-2.12a.21.21,0,0,0-.24-.24h-3.84c-3.32,0-4.76,1-4.76,3.12,0,2,1.44,3,4,3C425.57,252.76,427.41,251.36,427.41,249Z"/><path d="M19.24,293.2a.38.38,0,0,1-.4-.4V274.44a.38.38,0,0,1,.4-.4H21.8a.38.38,0,0,1,.4.4v2h0a5.34,5.34,0,0,1,5.08-2.8A5.89,5.89,0,0,1,31.24,275c.2.2.24.36.08.56l-1.48,2a.36.36,0,0,1-.56.08,5.4,5.4,0,0,0-3-.92c-2.92,0-4.12,2.28-4.12,5.6V292.8a.38.38,0,0,1-.4.4Z"/><path d="M33.2,288.44a15,15,0,0,1-.64-4.84,14.86,14.86,0,0,1,.6-4.84c1.08-3.32,3.88-5.16,7.52-5.16a7.42,7.42,0,0,1,7.52,5.16,16.72,16.72,0,0,1,.6,5.48.39.39,0,0,1-.44.4H36.24a.21.21,0,0,0-.24.24,7.18,7.18,0,0,0,.32,2.32,4.73,4.73,0,0,0,4.84,3.32,6.26,6.26,0,0,0,4.92-2.12.41.41,0,0,1,.6-.08l1.64,1.48a.36.36,0,0,1,0,.56,9.32,9.32,0,0,1-7.48,3.28C37,293.64,34.24,291.76,33.2,288.44ZM45.12,282a.21.21,0,0,0,.24-.24,6.74,6.74,0,0,0-.28-2.16,4.33,4.33,0,0,0-4.4-3,4.33,4.33,0,0,0-4.4,3,6.74,6.74,0,0,0-.28,2.16.21.21,0,0,0,.24.24Z"/><path d="M65,293.2a.38.38,0,0,1-.4-.4v-1.68h0c-.88,1.44-2.76,2.52-5.68,2.52-3.64,0-6.44-1.88-6.44-5.76,0-4,2.8-5.92,7.48-5.92h4.36a.21.21,0,0,0,.24-.24v-1.4c0-2.64-1-3.76-4.6-3.76a7.45,7.45,0,0,0-4.64,1.36c-.2.16-.44.16-.56,0L53.64,276a.42.42,0,0,1,.08-.56,10.63,10.63,0,0,1,6.52-1.88c5.44,0,7.52,1.8,7.52,6.52V292.8a.38.38,0,0,1-.4.4Zm-.48-6.2v-2.12a.21.21,0,0,0-.24-.24H60.44c-3.32,0-4.76,1-4.76,3.12,0,2,1.44,3,4,3C62.68,290.76,64.52,289.36,64.52,287Z"/><path d="M72.8,278.76c1.08-3.32,3.88-5.16,7.56-5.16a7.68,7.68,0,0,1,6.56,3.24c.12.2.12.36-.12.56L85,278.84a.36.36,0,0,1-.56,0,4.71,4.71,0,0,0-4.12-2.08,4.16,4.16,0,0,0-4.28,3,17.5,17.5,0,0,0,0,7.8,4.16,4.16,0,0,0,4.28,3,4.71,4.71,0,0,0,4.12-2.08.36.36,0,0,1,.56,0l1.76,1.44c.24.2.24.36.12.56a7.68,7.68,0,0,1-6.56,3.24c-3.68,0-6.48-1.84-7.56-5.16a20,20,0,0,1,0-9.72Z"/><path d="M90.4,278.76c1.08-3.32,3.88-5.16,7.56-5.16a7.68,7.68,0,0,1,6.56,3.24c.12.2.12.36-.12.56l-1.76,1.44a.36.36,0,0,1-.56,0A4.71,4.71,0,0,0,98,276.72a4.16,4.16,0,0,0-4.28,3,17.5,17.5,0,0,0,0,7.8,4.16,4.16,0,0,0,4.28,3,4.71,4.71,0,0,0,4.12-2.08.36.36,0,0,1,.56,0l1.76,1.44c.24.2.24.36.12.56A7.68,7.68,0,0,1,98,293.64c-3.68,0-6.48-1.84-7.56-5.16a20,20,0,0,1,0-9.72Z"/><path d="M109.36,269.72a.38.38,0,0,1-.4-.4V266.4a.38.38,0,0,1,.4-.4h2.72a.38.38,0,0,1,.4.4v2.92a.38.38,0,0,1-.4.4Zm.08,23.48a.38.38,0,0,1-.4-.4V274.44a.38.38,0,0,1,.4-.4H112a.38.38,0,0,1,.4.4V292.8a.38.38,0,0,1-.4.4Z"/><path d="M117.64,288.48a18.77,18.77,0,0,1,0-9.72c1-3.28,3.84-5.16,7.56-5.16s6.52,1.88,7.56,5.16a18.77,18.77,0,0,1,0,9.72c-1,3.24-3.84,5.16-7.56,5.16S118.68,291.72,117.64,288.48Zm11.88-1a12.55,12.55,0,0,0,.44-3.92,12.27,12.27,0,0,0-.44-3.88,4.61,4.61,0,0,0-8.64,0,12.27,12.27,0,0,0-.44,3.88,12.55,12.55,0,0,0,.44,3.92,4.61,4.61,0,0,0,8.64,0Z"/><path d="M150.44,293.2a.38.38,0,0,1-.4-.4V281.6c0-3.08-1.4-4.88-4.28-4.88-2.6,0-4.4,1.84-4.4,4.68v11.4a.38.38,0,0,1-.4.4H138.4a.38.38,0,0,1-.4-.4V274.44a.38.38,0,0,1,.4-.4H141a.38.38,0,0,1,.4.4v1.76h0a6.06,6.06,0,0,1,5.36-2.6c4.16,0,6.63,2.84,6.63,7.2v12a.38.38,0,0,1-.4.4Z"/><path d="M170.56,293.2a.38.38,0,0,1-.4-.4v-1.68h0c-.88,1.44-2.76,2.52-5.68,2.52-3.64,0-6.44-1.88-6.44-5.76,0-4,2.8-5.92,7.48-5.92h4.36a.21.21,0,0,0,.24-.24v-1.4c0-2.64-1-3.76-4.6-3.76a7.45,7.45,0,0,0-4.64,1.36c-.2.16-.44.16-.56,0L159.2,276a.42.42,0,0,1,.08-.56,10.63,10.63,0,0,1,6.52-1.88c5.44,0,7.51,1.8,7.51,6.52V292.8a.38.38,0,0,1-.39.4Zm-.48-6.2v-2.12a.21.21,0,0,0-.24-.24H166c-3.32,0-4.76,1-4.76,3.12,0,2,1.44,3,4,3C168.24,290.76,170.08,289.36,170.08,287Z"/><path d="M179.32,293.2a.38.38,0,0,1-.4-.4V274.44a.38.38,0,0,1,.4-.4h2.56a.38.38,0,0,1,.4.4v2h0a5.34,5.34,0,0,1,5.08-2.8,5.86,5.86,0,0,1,3.91,1.44c.2.2.24.36.08.56l-1.47,2a.37.37,0,0,1-.57.08,5.34,5.34,0,0,0-2.95-.92c-2.92,0-4.12,2.28-4.12,5.6V292.8a.38.38,0,0,1-.4.4Z"/><path d="M211.6,288.44a15,15,0,0,1-.64-4.84,14.86,14.86,0,0,1,.6-4.84c1.08-3.32,3.88-5.16,7.51-5.16a7.42,7.42,0,0,1,7.52,5.16,16.72,16.72,0,0,1,.6,5.48.39.39,0,0,1-.44.4H214.63a.21.21,0,0,0-.23.24,7.51,7.51,0,0,0,.31,2.32,4.73,4.73,0,0,0,4.84,3.32,6.26,6.26,0,0,0,4.92-2.12.41.41,0,0,1,.6-.08l1.64,1.48a.36.36,0,0,1,0,.56,9.32,9.32,0,0,1-7.48,3.28C215.4,293.64,212.64,291.76,211.6,288.44ZM223.51,282a.21.21,0,0,0,.24-.24,6.74,6.74,0,0,0-.28-2.16,4.73,4.73,0,0,0-8.8,0,7.06,7.06,0,0,0-.27,2.16.21.21,0,0,0,.23.24Z"/><path d="M244.23,293.2a.38.38,0,0,1-.4-.4V281.6c0-3.08-1.4-4.88-4.28-4.88-2.6,0-4.4,1.84-4.4,4.68v11.4a.37.37,0,0,1-.4.4H232.2a.38.38,0,0,1-.4-.4V274.44a.38.38,0,0,1,.4-.4h2.55a.37.37,0,0,1,.4.4v1.76h0a6.06,6.06,0,0,1,5.36-2.6c4.16,0,6.64,2.84,6.64,7.2v12a.38.38,0,0,1-.4.4Z"/><path d="M261,278.76c1.07-3.32,3.87-5.16,7.55-5.16a7.68,7.68,0,0,1,6.56,3.24c.12.2.12.36-.12.56l-1.76,1.44a.36.36,0,0,1-.56,0,4.71,4.71,0,0,0-4.12-2.08,4.16,4.16,0,0,0-4.28,3,17.5,17.5,0,0,0,0,7.8,4.16,4.16,0,0,0,4.28,3,4.71,4.71,0,0,0,4.12-2.08.36.36,0,0,1,.56,0l1.76,1.44c.24.2.24.36.12.56a7.68,7.68,0,0,1-6.56,3.24c-3.68,0-6.48-1.84-7.55-5.16a20,20,0,0,1,0-9.72Z"/><path d="M290.75,293.2a.38.38,0,0,1-.4-.4v-1.68h0c-.88,1.44-2.76,2.52-5.68,2.52-3.64,0-6.44-1.88-6.44-5.76,0-4,2.8-5.92,7.48-5.92H290a.21.21,0,0,0,.24-.24v-1.4c0-2.64-1-3.76-4.6-3.76a7.45,7.45,0,0,0-4.64,1.36c-.2.16-.44.16-.56,0L279.39,276a.42.42,0,0,1,.08-.56A10.63,10.63,0,0,1,286,273.6c5.44,0,7.52,1.8,7.52,6.52V292.8a.38.38,0,0,1-.4.4Zm-.48-6.2v-2.12a.21.21,0,0,0-.24-.24h-3.84c-3.32,0-4.76,1-4.76,3.12,0,2,1.44,3,4,3C288.43,290.76,290.27,289.36,290.27,287Z"/><path d="M297.79,290.76a.39.39,0,0,1,0-.56l1.64-1.76a.39.39,0,0,1,.56,0,9.31,9.31,0,0,0,5.92,2.2c2.8,0,4.2-1.2,4.2-2.92,0-1.52-.72-2.36-3.72-2.68l-2-.2c-3.76-.4-5.72-2.28-5.72-5.4,0-3.64,2.6-5.84,7.12-5.84a11.46,11.46,0,0,1,6.8,2.12.39.39,0,0,1,.08.56L311.27,278a.39.39,0,0,1-.56.08,10.09,10.09,0,0,0-5.16-1.56c-2.4,0-3.64,1.08-3.64,2.64s.92,2.32,3.76,2.6l2,.2c3.88.36,5.76,2.32,5.76,5.4,0,3.76-2.72,6.28-7.72,6.28A11.91,11.91,0,0,1,297.79,290.76Z"/><path d="M317.39,288.48a18.77,18.77,0,0,1,0-9.72c1-3.28,3.84-5.16,7.56-5.16s6.52,1.88,7.56,5.16a18.77,18.77,0,0,1,0,9.72c-1,3.24-3.84,5.16-7.56,5.16S318.43,291.72,317.39,288.48Zm11.88-1a12.55,12.55,0,0,0,.44-3.92,12.27,12.27,0,0,0-.44-3.88,4.61,4.61,0,0,0-8.64,0,12.27,12.27,0,0,0-.44,3.88,12.55,12.55,0,0,0,.44,3.92,4.61,4.61,0,0,0,8.64,0Z"/><path d="M358.55,293.2a.38.38,0,0,1-.4-.4V291h0c-.92,1.52-2.56,2.68-5.44,2.68-3.32,0-5.64-1.56-6.6-4.6a21.94,21.94,0,0,1,0-10.84c1-3,3.28-4.6,6.6-4.6,2.88,0,4.52,1.12,5.44,2.64h0V266.4a.38.38,0,0,1,.4-.4h2.56a.38.38,0,0,1,.4.4v26.4a.38.38,0,0,1-.4.4Zm-.84-5.6a12.31,12.31,0,0,0,.44-4,12.47,12.47,0,0,0-.44-4,4.53,4.53,0,0,0-8.44,0,13.63,13.63,0,0,0-.44,4,13.29,13.29,0,0,0,.44,4,4.51,4.51,0,0,0,8.44,0Z"/><path d="M366.75,288.44a15,15,0,0,1-.64-4.84,14.86,14.86,0,0,1,.6-4.84c1.08-3.32,3.88-5.16,7.52-5.16a7.42,7.42,0,0,1,7.52,5.16,16.72,16.72,0,0,1,.6,5.48.39.39,0,0,1-.44.4H369.79a.21.21,0,0,0-.24.24,7.18,7.18,0,0,0,.32,2.32,4.73,4.73,0,0,0,4.84,3.32,6.26,6.26,0,0,0,4.92-2.12.41.41,0,0,1,.6-.08l1.64,1.48a.36.36,0,0,1,0,.56,9.32,9.32,0,0,1-7.48,3.28C370.55,293.64,367.79,291.76,366.75,288.44ZM378.67,282a.21.21,0,0,0,.24-.24,6.74,6.74,0,0,0-.28-2.16,4.73,4.73,0,0,0-8.8,0,6.74,6.74,0,0,0-.28,2.16.21.21,0,0,0,.24.24Z"/><path d="M407.79,293.2a.38.38,0,0,1-.4-.4V291h0a5.84,5.84,0,0,1-5.24,2.64c-4.2,0-6.64-2.88-6.64-7.24v-12a.38.38,0,0,1,.4-.4h2.56a.38.38,0,0,1,.4.4V285.6c0,3.12,1.4,4.92,4.24,4.92,2.6,0,4.32-1.84,4.32-4.72V274.44a.38.38,0,0,1,.4-.4h2.56a.38.38,0,0,1,.4.4V292.8a.38.38,0,0,1-.4.4Z"/><path d="M429,293.2a.38.38,0,0,1-.4-.4V281.6c0-3.08-1.4-4.88-4.28-4.88-2.6,0-4.4,1.84-4.4,4.68v11.4a.38.38,0,0,1-.4.4h-2.56a.38.38,0,0,1-.4-.4V274.44a.38.38,0,0,1,.4-.4h2.56a.38.38,0,0,1,.4.4v1.76h0a6.06,6.06,0,0,1,5.36-2.6c4.16,0,6.64,2.84,6.64,7.2v12a.38.38,0,0,1-.4.4Z"/><path d="M149.5,307.72a.38.38,0,0,1-.4-.4V304.4a.38.38,0,0,1,.4-.4h2.72a.38.38,0,0,1,.4.4v2.92a.38.38,0,0,1-.4.4Zm.08,23.48a.38.38,0,0,1-.4-.4V312.44a.38.38,0,0,1,.4-.4h2.56a.38.38,0,0,1,.4.4V330.8a.38.38,0,0,1-.4.4Z"/><path d="M170.73,331.2a.38.38,0,0,1-.4-.4V319.6c0-3.08-1.39-4.88-4.27-4.88-2.6,0-4.4,1.84-4.4,4.68v11.4a.38.38,0,0,1-.4.4H158.7a.38.38,0,0,1-.4-.4V312.44a.38.38,0,0,1,.4-.4h2.56a.38.38,0,0,1,.4.4v1.76h0a6.06,6.06,0,0,1,5.36-2.6c4.15,0,6.63,2.84,6.63,7.2v12a.38.38,0,0,1-.4.4Z"/><path d="M178.7,316.76c1.08-3.32,3.88-5.16,7.56-5.16a7.68,7.68,0,0,1,6.55,3.24c.12.2.12.36-.12.56l-1.76,1.44a.36.36,0,0,1-.56,0,4.7,4.7,0,0,0-4.11-2.08,4.16,4.16,0,0,0-4.28,3,17.5,17.5,0,0,0,0,7.8,4.16,4.16,0,0,0,4.28,3,4.7,4.7,0,0,0,4.11-2.08.36.36,0,0,1,.56,0l1.76,1.44c.24.2.24.36.12.56a7.68,7.68,0,0,1-6.55,3.24c-3.68,0-6.48-1.84-7.56-5.16a20,20,0,0,1,0-9.72Z"/><path d="M197.66,307.72a.38.38,0,0,1-.4-.4V304.4a.38.38,0,0,1,.4-.4h2.72a.38.38,0,0,1,.4.4v2.92a.38.38,0,0,1-.4.4Zm.08,23.48a.38.38,0,0,1-.4-.4V312.44a.38.38,0,0,1,.4-.4h2.56a.38.38,0,0,1,.4.4V330.8a.38.38,0,0,1-.4.4Z"/><path d="M218.45,331.2a.38.38,0,0,1-.4-.4V329h0c-.92,1.52-2.56,2.68-5.44,2.68-3.32,0-5.63-1.56-6.59-4.6a21.94,21.94,0,0,1,0-10.84c1-3,3.27-4.6,6.59-4.6,2.88,0,4.52,1.12,5.44,2.64h0V304.4a.38.38,0,0,1,.4-.4H221a.38.38,0,0,1,.4.4v26.4a.38.38,0,0,1-.4.4Zm-.84-5.6a12.31,12.31,0,0,0,.44-4,12.47,12.47,0,0,0-.44-4,4.53,4.53,0,0,0-8.44,0,13.63,13.63,0,0,0-.44,4,13.29,13.29,0,0,0,.44,4,4.51,4.51,0,0,0,8.44,0Z"/><path d="M226.66,326.44a19.2,19.2,0,0,1,0-9.68c1.07-3.32,3.87-5.16,7.51-5.16a7.42,7.42,0,0,1,7.52,5.16,16.72,16.72,0,0,1,.6,5.48.39.39,0,0,1-.44.4H229.69a.21.21,0,0,0-.24.24,7.18,7.18,0,0,0,.32,2.32,4.73,4.73,0,0,0,4.84,3.32,6.26,6.26,0,0,0,4.92-2.12.41.41,0,0,1,.6-.08l1.64,1.48a.36.36,0,0,1,0,.56,9.32,9.32,0,0,1-7.48,3.28C230.45,331.64,227.69,329.76,226.66,326.44ZM238.57,320a.21.21,0,0,0,.24-.24,6.74,6.74,0,0,0-.28-2.16,4.73,4.73,0,0,0-8.8,0,6.74,6.74,0,0,0-.28,2.16.21.21,0,0,0,.24.24Z"/><path d="M259.29,331.2a.38.38,0,0,1-.4-.4V319.6c0-3.08-1.4-4.88-4.28-4.88-2.6,0-4.4,1.84-4.4,4.68v11.4a.38.38,0,0,1-.4.4h-2.56a.38.38,0,0,1-.4-.4V312.44a.38.38,0,0,1,.4-.4h2.56a.38.38,0,0,1,.4.4v1.76h0a6.06,6.06,0,0,1,5.36-2.6c4.16,0,6.64,2.84,6.64,7.2v12a.38.38,0,0,1-.4.4Z"/><path d="M273.37,331.4c-3.72,0-5.16-1.68-5.16-5.44V315a.21.21,0,0,0-.24-.24h-1.6a.38.38,0,0,1-.4-.4v-1.92a.38.38,0,0,1,.4-.4H268a.21.21,0,0,0,.24-.24v-5.4a.38.38,0,0,1,.4-.4h2.56a.38.38,0,0,1,.4.4v5.4a.21.21,0,0,0,.24.24h3a.38.38,0,0,1,.4.4v1.92a.38.38,0,0,1-.4.4h-3a.21.21,0,0,0-.24.24v10.84c0,1.92.72,2.44,2.44,2.44h.84a.38.38,0,0,1,.4.4V331a.38.38,0,0,1-.4.4Z"/><path d="M279.13,326.44a15,15,0,0,1-.64-4.84,14.86,14.86,0,0,1,.6-4.84c1.08-3.32,3.88-5.16,7.52-5.16a7.42,7.42,0,0,1,7.52,5.16,16.72,16.72,0,0,1,.6,5.48.39.39,0,0,1-.44.4H282.17a.21.21,0,0,0-.24.24,7.18,7.18,0,0,0,.32,2.32,4.73,4.73,0,0,0,4.84,3.32A6.26,6.26,0,0,0,292,326.4a.41.41,0,0,1,.6-.08l1.64,1.48a.36.36,0,0,1,0,.56,9.32,9.32,0,0,1-7.48,3.28C282.93,331.64,280.17,329.76,279.13,326.44ZM291.05,320a.21.21,0,0,0,.24-.24,6.74,6.74,0,0,0-.28-2.16,4.73,4.73,0,0,0-8.8,0,6.74,6.74,0,0,0-.28,2.16.21.21,0,0,0,.24.24Z"/><path d="M298.85,327.36a.38.38,0,0,1,.4-.4h3a.38.38,0,0,1,.4.4v3.44a.38.38,0,0,1-.4.4h-3a.38.38,0,0,1-.4-.4Z"/></g></g></svg>