<svg xmlns="http://www.w3.org/2000/svg" viewBox="0 0 617.96 144.96"><defs><style>.cls-1{fill:#4d4d4d;}</style></defs><title>r3</title><g id="Capa_2" data-name="Capa 2"><g id="control_vector" data-name="control vector"><path class="cls-1" d="M9.36.36A.34.34,0,0,1,9.72,0h2.34a.54.54,0,0,1,.57.36l7.31,16.49h.11L27.21.36A.56.56,0,0,1,27.79,0h2.34a.34.34,0,0,1,.36.36V24.12a.35.35,0,0,1-.36.36H27.86a.34.34,0,0,1-.36-.36v-17h-.11L21.31,20.55a.61.61,0,0,1-.65.44H19.22a.63.63,0,0,1-.68-.44L12.45,7.09h-.1v17a.35.35,0,0,1-.36.36H9.72a.34.34,0,0,1-.36-.36Z"/><path class="cls-1" d="M46.19,24.48a.34.34,0,0,1-.36-.36V22.6h0c-.79,1.3-2.48,2.27-5.11,2.27-3.28,0-5.8-1.69-5.8-5.18,0-3.64,2.52-5.33,6.73-5.33h3.93a.19.19,0,0,0,.21-.21V12.89c0-2.38-.93-3.39-4.14-3.39a6.7,6.7,0,0,0-4.17,1.23.33.33,0,0,1-.51,0L36,9a.38.38,0,0,1,.07-.5A9.58,9.58,0,0,1,41.9,6.84c4.9,0,6.77,1.62,6.77,5.87V24.12a.35.35,0,0,1-.36.36Zm-.44-5.58V17a.19.19,0,0,0-.21-.22H42.08c-3,0-4.28.87-4.28,2.81,0,1.77,1.29,2.7,3.6,2.7C44.1,22.28,45.75,21,45.75,18.9Z"/><path class="cls-1" d="M64.91,24.48a.35.35,0,0,1-.37-.36V14c0-2.77-1.25-4.39-3.85-4.39a3.87,3.87,0,0,0-4,4.21V24.12a.34.34,0,0,1-.36.36h-2.3a.34.34,0,0,1-.36-.36V7.59a.34.34,0,0,1,.36-.36h2.3a.34.34,0,0,1,.36.36V9.18h0a5.45,5.45,0,0,1,4.82-2.34c3.75,0,6,2.55,6,6.48v10.8a.35.35,0,0,1-.36.36Z"/><path class="cls-1" d="M77.58,24.66c-3.35,0-4.65-1.51-4.65-4.9V9.9c0-.15-.07-.22-.21-.22H71.28a.34.34,0,0,1-.36-.36V7.59a.34.34,0,0,1,.36-.36h1.44A.19.19,0,0,0,72.93,7V2.16a.34.34,0,0,1,.36-.36H75.6a.34.34,0,0,1,.36.36V7a.19.19,0,0,0,.21.21h2.74a.34.34,0,0,1,.36.36V9.32a.34.34,0,0,1-.36.36H76.17c-.14,0-.21.07-.21.22v9.75c0,1.73.65,2.2,2.19,2.2h.76a.34.34,0,0,1,.36.36V24.3a.34.34,0,0,1-.36.36Z"/><path class="cls-1" d="M82.76,20.19a13.48,13.48,0,0,1-.57-4.35,13.43,13.43,0,0,1,.54-4.36,7.25,7.25,0,0,1,13.53,0,15.08,15.08,0,0,1,.54,4.93c0,.22-.14.36-.4.36H85.5a.2.2,0,0,0-.22.22,6.47,6.47,0,0,0,.29,2.09,4.25,4.25,0,0,0,4.35,3,5.61,5.61,0,0,0,4.43-1.9c.18-.18.36-.22.54-.07l1.48,1.33a.31.31,0,0,1,0,.5,8.35,8.35,0,0,1-6.73,2.95C86.18,24.87,83.7,23.18,82.76,20.19Zm10.73-5.83a.19.19,0,0,0,.21-.21,6.08,6.08,0,0,0-.25-2,4.25,4.25,0,0,0-7.92,0,6.08,6.08,0,0,0-.25,2c0,.14.07.21.22.21Z"/><path class="cls-1" d="M112.14,24.48a.34.34,0,0,1-.36-.36V14c0-2.77-1.26-4.39-3.86-4.39a3.87,3.87,0,0,0-4,4.21V24.12a.34.34,0,0,1-.36.36h-2.3a.34.34,0,0,1-.36-.36V7.59a.34.34,0,0,1,.36-.36h2.3a.34.34,0,0,1,.36.36V9.18h0a5.45,5.45,0,0,1,4.82-2.34c3.75,0,6,2.55,6,6.48v10.8a.34.34,0,0,1-.36.36Z"/><path class="cls-1" d="M119.45,28.8a.33.33,0,0,1,0-.51L121,26.82a.34.34,0,0,1,.54,0,5.72,5.72,0,0,0,4.06,1.72c2.85,0,4.36-1.47,4.36-4.64v-2h0c-.79,1.44-2.26,2.37-4.78,2.37a5.65,5.65,0,0,1-5.8-4.17,13.6,13.6,0,0,1-.57-4.54A13.6,13.6,0,0,1,119.3,11a5.65,5.65,0,0,1,5.8-4.17c2.52,0,4,.93,4.78,2.37h0V7.59a.34.34,0,0,1,.36-.36h2.3a.34.34,0,0,1,.36.36V23.72c0,4.9-2.66,7.63-7.52,7.63A7.78,7.78,0,0,1,119.45,28.8Zm10.07-9.9a10.43,10.43,0,0,0,.4-3.35,10.55,10.55,0,0,0-.4-3.35,3.89,3.89,0,0,0-7.3,0,10.78,10.78,0,0,0-.43,3.35,10.65,10.65,0,0,0,.43,3.35,3.51,3.51,0,0,0,3.63,2.59A3.56,3.56,0,0,0,129.52,18.9Z"/><path class="cls-1" d="M148.57,24.48a.34.34,0,0,1-.36-.36V22.6h0c-.79,1.3-2.48,2.27-5.11,2.27-3.28,0-5.8-1.69-5.8-5.18,0-3.64,2.52-5.33,6.74-5.33h3.92a.19.19,0,0,0,.22-.21V12.89c0-2.38-.94-3.39-4.14-3.39a6.71,6.71,0,0,0-4.18,1.23c-.18.14-.4.14-.5,0l-1-1.66a.38.38,0,0,1,.08-.5,9.53,9.53,0,0,1,5.86-1.69c4.9,0,6.77,1.62,6.77,5.87V24.12a.34.34,0,0,1-.36.36Zm-.43-5.58V17a.2.2,0,0,0-.22-.22h-3.46c-3,0-4.28.87-4.28,2.81,0,1.77,1.3,2.7,3.6,2.7C146.48,22.28,148.14,21,148.14,18.9Z"/><path class="cls-1" d="M163.51,11.48a6.68,6.68,0,0,1,6.8-4.64,6.91,6.91,0,0,1,5.9,2.91.34.34,0,0,1-.1.51l-1.59,1.29a.31.31,0,0,1-.5,0,4.24,4.24,0,0,0-3.71-1.87,3.74,3.74,0,0,0-3.85,2.7,11.4,11.4,0,0,0-.4,3.49,11.52,11.52,0,0,0,.4,3.53,3.74,3.74,0,0,0,3.85,2.69A4.24,4.24,0,0,0,174,20.19a.31.31,0,0,1,.5,0l1.59,1.29a.34.34,0,0,1,.1.51,6.89,6.89,0,0,1-5.9,2.91c-3.31,0-5.83-1.65-6.8-4.64a14.68,14.68,0,0,1-.54-4.39A14.65,14.65,0,0,1,163.51,11.48Z"/><path class="cls-1" d="M190.29,24.48a.35.35,0,0,1-.36-.36V22.6h0c-.8,1.3-2.49,2.27-5.12,2.27-3.27,0-5.79-1.69-5.79-5.18,0-3.64,2.52-5.33,6.73-5.33h3.92c.15,0,.22-.07.22-.21V12.89c0-2.38-.94-3.39-4.14-3.39a6.73,6.73,0,0,0-4.18,1.23.32.32,0,0,1-.5,0l-1-1.66a.38.38,0,0,1,.07-.5A9.56,9.56,0,0,1,186,6.84c4.89,0,6.76,1.62,6.76,5.87V24.12a.34.34,0,0,1-.35.36Zm-.43-5.58V17a.2.2,0,0,0-.22-.22h-3.45c-3,0-4.29.87-4.29,2.81,0,1.77,1.3,2.7,3.6,2.7C188.2,22.28,189.86,21,189.86,18.9Z"/><path class="cls-1" d="M208.61,24.48a.35.35,0,0,1-.36-.36V22.46h0c-.83,1.37-2.3,2.41-4.9,2.41-3,0-5.07-1.4-5.94-4.14a14.5,14.5,0,0,1-.61-4.89,14.45,14.45,0,0,1,.61-4.86c.87-2.74,3-4.14,5.94-4.14,2.6,0,4.07,1,4.9,2.37h0V.36a.34.34,0,0,1,.36-.36h2.31a.34.34,0,0,1,.36.36V24.12a.35.35,0,0,1-.36.36Zm-.75-5a11.06,11.06,0,0,0,.39-3.6,11.18,11.18,0,0,0-.39-3.6,4.08,4.08,0,0,0-7.6,0,12.54,12.54,0,0,0-.39,3.6,12.28,12.28,0,0,0,.39,3.6,4.07,4.07,0,0,0,7.6,0Z"/><path class="cls-1" d="M226.9,24.48a.35.35,0,0,1-.36-.36V22.6h0c-.8,1.3-2.49,2.27-5.11,2.27-3.28,0-5.8-1.69-5.8-5.18,0-3.64,2.52-5.33,6.73-5.33h3.92c.15,0,.22-.07.22-.21V12.89c0-2.38-.93-3.39-4.14-3.39a6.68,6.68,0,0,0-4.17,1.23.33.33,0,0,1-.51,0l-1-1.66a.38.38,0,0,1,.07-.5,9.56,9.56,0,0,1,5.87-1.69c4.89,0,6.77,1.62,6.77,5.87V24.12a.35.35,0,0,1-.36.36Zm-.43-5.58V17a.2.2,0,0,0-.22-.22H222.8c-3,0-4.28.87-4.28,2.81,0,1.77,1.29,2.7,3.6,2.7C224.82,22.28,226.47,21,226.47,18.9Z"/><path class="cls-1" d="M242.63,3.35a.34.34,0,0,1-.35-.36V.36a.33.33,0,0,1,.35-.36h2.45a.34.34,0,0,1,.36.36V3a.34.34,0,0,1-.36.36Zm.08,21.13a.34.34,0,0,1-.36-.36V7.59a.34.34,0,0,1,.36-.36H245a.34.34,0,0,1,.36.36V24.12a.34.34,0,0,1-.36.36Z"/><path class="cls-1" d="M272.58,24.48a.35.35,0,0,1-.36-.36V14c0-2.77-1.26-4.39-3.85-4.39a3.89,3.89,0,0,0-4,4.21V24.12a.34.34,0,0,1-.36.36h-2.3a.34.34,0,0,1-.36-.36V14c0-2.77-1.26-4.39-3.85-4.39a3.87,3.87,0,0,0-4,4.21V24.12a.35.35,0,0,1-.36.36h-2.3a.35.35,0,0,1-.37-.36V7.59a.35.35,0,0,1,.37-.36h2.3a.35.35,0,0,1,.36.36V9.18h0a6.1,6.1,0,0,1,9.87.36h0a6.41,6.41,0,0,1,5.58-2.7c4,0,6.16,2.55,6.16,6.48v10.8a.35.35,0,0,1-.36.36Z"/><path class="cls-1" d="M280.61,31a.35.35,0,0,1-.36-.36v-23a.35.35,0,0,1,.36-.36h2.31a.35.35,0,0,1,.36.36V9.21h0c.83-1.36,2.31-2.37,4.9-2.37,3,0,5.07,1.4,5.94,4.14a14.2,14.2,0,0,1,.61,4.86,14.25,14.25,0,0,1-.61,4.89c-.87,2.74-2.95,4.14-5.94,4.14-2.59,0-4.07-1-4.9-2.41h0V30.6a.35.35,0,0,1-.36.36Zm10.66-11.52a11.89,11.89,0,0,0,.4-3.6,12.15,12.15,0,0,0-.4-3.6,4.08,4.08,0,0,0-7.6,0,11.47,11.47,0,0,0-.39,3.6,11.35,11.35,0,0,0,.39,3.6,4.07,4.07,0,0,0,7.6,0Z"/><path class="cls-1" d="M303,24.66c-3,0-4.21-1.44-4.21-4.54V.36a.34.34,0,0,1,.36-.36h2.3a.34.34,0,0,1,.36.36V19.94c0,1.44.54,1.91,1.73,1.91h.69a.34.34,0,0,1,.36.36V24.3a.35.35,0,0,1-.36.36Z"/><path class="cls-1" d="M307.69,20.19a13.43,13.43,0,0,1-.58-4.35,13.43,13.43,0,0,1,.54-4.36,7.25,7.25,0,0,1,13.53,0,15.08,15.08,0,0,1,.54,4.93.35.35,0,0,1-.39.36H310.42a.19.19,0,0,0-.21.22,6.5,6.5,0,0,0,.28,2.09,4.27,4.27,0,0,0,4.36,3,5.64,5.64,0,0,0,4.43-1.9c.18-.18.36-.22.54-.07l1.47,1.33a.32.32,0,0,1,0,.5,8.38,8.38,0,0,1-6.73,2.95C311.11,24.87,308.62,23.18,307.69,20.19Zm10.72-5.83c.15,0,.22-.07.22-.21a6.08,6.08,0,0,0-.25-2,4.25,4.25,0,0,0-7.92,0,6.08,6.08,0,0,0-.25,2,.19.19,0,0,0,.21.21Z"/><path class="cls-1" d="M347.89,24.48a.35.35,0,0,1-.36-.36V14c0-2.77-1.26-4.39-3.85-4.39a3.89,3.89,0,0,0-4,4.21V24.12a.34.34,0,0,1-.36.36h-2.3a.34.34,0,0,1-.36-.36V14c0-2.77-1.26-4.39-3.85-4.39a3.87,3.87,0,0,0-4,4.21V24.12a.34.34,0,0,1-.36.36h-2.3a.34.34,0,0,1-.36-.36V7.59a.34.34,0,0,1,.36-.36h2.3a.34.34,0,0,1,.36.36V9.18h0a5.47,5.47,0,0,1,4.83-2.34,5.41,5.41,0,0,1,5,2.7h0a6.42,6.42,0,0,1,5.58-2.7c4,0,6.16,2.55,6.16,6.48v10.8a.35.35,0,0,1-.36.36Z"/><path class="cls-1" d="M355.1,20.19a13.43,13.43,0,0,1-.58-4.35,13.43,13.43,0,0,1,.54-4.36,7.25,7.25,0,0,1,13.53,0,14.73,14.73,0,0,1,.55,4.93.35.35,0,0,1-.4.36H357.83a.19.19,0,0,0-.21.22,6.5,6.5,0,0,0,.28,2.09,4.27,4.27,0,0,0,4.36,3,5.64,5.64,0,0,0,4.43-1.9c.18-.18.36-.22.54-.07l1.47,1.33a.32.32,0,0,1,0,.5A8.38,8.38,0,0,1,362,24.87C358.52,24.87,356,23.18,355.1,20.19Zm10.72-5.83c.15,0,.22-.07.22-.21a6.08,6.08,0,0,0-.25-2,4.25,4.25,0,0,0-7.92,0,6.08,6.08,0,0,0-.25,2,.19.19,0,0,0,.21.21Z"/><path class="cls-1" d="M384.47,24.48a.34.34,0,0,1-.36-.36V14c0-2.77-1.26-4.39-3.85-4.39a3.87,3.87,0,0,0-4,4.21V24.12a.34.34,0,0,1-.36.36h-2.3a.34.34,0,0,1-.36-.36V7.59a.34.34,0,0,1,.36-.36h2.3a.34.34,0,0,1,.36.36V9.18h0a5.44,5.44,0,0,1,4.82-2.34c3.74,0,6,2.55,6,6.48v10.8a.34.34,0,0,1-.36.36Z"/><path class="cls-1" d="M397.14,24.66c-3.34,0-4.64-1.51-4.64-4.9V9.9a.19.19,0,0,0-.22-.22h-1.44a.34.34,0,0,1-.36-.36V7.59a.35.35,0,0,1,.36-.36h1.44c.15,0,.22-.07.22-.21V2.16a.34.34,0,0,1,.36-.36h2.3a.34.34,0,0,1,.36.36V7a.19.19,0,0,0,.22.21h2.74a.34.34,0,0,1,.35.36V9.32a.33.33,0,0,1-.35.36h-2.74a.2.2,0,0,0-.22.22v9.75c0,1.73.65,2.2,2.2,2.2h.76a.33.33,0,0,1,.35.36V24.3a.34.34,0,0,1-.35.36Z"/><path class="cls-1" d="M402.33,20.23a12.85,12.85,0,0,1-.58-4.39,12.78,12.78,0,0,1,.58-4.36c.93-3,3.45-4.64,6.8-4.64s5.87,1.69,6.8,4.64a12.78,12.78,0,0,1,.58,4.36,12.85,12.85,0,0,1-.58,4.39c-.93,2.92-3.45,4.64-6.8,4.64S403.26,23.15,402.33,20.23ZM413,19.37a11.27,11.27,0,0,0,.4-3.53,10.91,10.91,0,0,0-.4-3.49,4.15,4.15,0,0,0-7.78,0,11.26,11.26,0,0,0-.39,3.49,11.63,11.63,0,0,0,.39,3.53,4.16,4.16,0,0,0,7.78,0Z"/><path class="cls-1" d="M420.58,20.66h2.52a.34.34,0,0,1,.36.36v3.35a1.14,1.14,0,0,1-.22.79L421,28.11a.56.56,0,0,1-.47.25.32.32,0,0,1-.32-.32V21A.34.34,0,0,1,420.58,20.66Z"/><path class="cls-1" d="M439.41,24.48a.34.34,0,0,1-.36-.36V14c0-2.77-1.26-4.39-3.86-4.39a3.86,3.86,0,0,0-3.95,4.21V24.12a.35.35,0,0,1-.36.36h-2.31a.35.35,0,0,1-.36-.36V.36a.34.34,0,0,1,.36-.36h2.31a.34.34,0,0,1,.36.36V9.18h0a5.45,5.45,0,0,1,4.82-2.34c3.75,0,6,2.55,6,6.48v10.8a.34.34,0,0,1-.36.36Z"/><path class="cls-1" d="M446.61,20.19a13.43,13.43,0,0,1-.58-4.35,13.43,13.43,0,0,1,.54-4.36,7.26,7.26,0,0,1,13.54,0,15.08,15.08,0,0,1,.54,4.93.35.35,0,0,1-.4.36H449.34a.19.19,0,0,0-.21.22,6.2,6.2,0,0,0,.29,2.09,4.25,4.25,0,0,0,4.35,3,5.64,5.64,0,0,0,4.43-1.9c.18-.18.36-.22.54-.07l1.47,1.33a.32.32,0,0,1,0,.5,8.38,8.38,0,0,1-6.73,2.95C450,24.87,447.54,23.18,446.61,20.19Zm10.72-5.83c.15,0,.22-.07.22-.21a6.08,6.08,0,0,0-.25-2,4.25,4.25,0,0,0-7.92,0,6.08,6.08,0,0,0-.25,2,.19.19,0,0,0,.21.21Z"/><path class="cls-1" d="M465.15,24.48a.34.34,0,0,1-.36-.36V7.59a.34.34,0,0,1,.36-.36h2.3a.34.34,0,0,1,.36.36V9.36h0a4.78,4.78,0,0,1,4.57-2.52A5.32,5.32,0,0,1,476,8.13c.18.18.21.33.07.51l-1.33,1.76a.33.33,0,0,1-.51.07,4.86,4.86,0,0,0-2.66-.82c-2.63,0-3.71,2-3.71,5v9.43a.34.34,0,0,1-.36.36Z"/><path class="cls-1" d="M479.19,24.48a.34.34,0,0,1-.36-.36V7.59a.34.34,0,0,1,.36-.36h2.3a.34.34,0,0,1,.36.36V9.36h0a4.78,4.78,0,0,1,4.57-2.52A5.32,5.32,0,0,1,490,8.13c.18.18.21.33.07.51l-1.33,1.76a.33.33,0,0,1-.51.07,4.86,4.86,0,0,0-2.66-.82c-2.63,0-3.71,2-3.71,5v9.43a.34.34,0,0,1-.36.36Z"/><path class="cls-1" d="M502.44,24.48a.35.35,0,0,1-.36-.36V22.6h0c-.79,1.3-2.48,2.27-5.11,2.27-3.27,0-5.79-1.69-5.79-5.18,0-3.64,2.52-5.33,6.73-5.33h3.92c.15,0,.22-.07.22-.21V12.89c0-2.38-.94-3.39-4.14-3.39a6.73,6.73,0,0,0-4.18,1.23.32.32,0,0,1-.5,0l-1-1.66a.38.38,0,0,1,.07-.5,9.56,9.56,0,0,1,5.87-1.69c4.89,0,6.76,1.62,6.76,5.87V24.12a.34.34,0,0,1-.35.36ZM502,18.9V17a.2.2,0,0,0-.22-.22h-3.45c-3,0-4.29.87-4.29,2.81,0,1.77,1.3,2.7,3.6,2.7C500.35,22.28,502,21,502,18.9Z"/><path class="cls-1" d="M532,24.48a.34.34,0,0,1-.36-.36V14c0-2.77-1.26-4.39-3.86-4.39a3.89,3.89,0,0,0-4,4.21V24.12a.34.34,0,0,1-.36.36h-2.3a.34.34,0,0,1-.36-.36V14c0-2.77-1.26-4.39-3.85-4.39a3.87,3.87,0,0,0-4,4.21V24.12a.34.34,0,0,1-.36.36h-2.3a.34.34,0,0,1-.36-.36V7.59a.34.34,0,0,1,.36-.36h2.3a.34.34,0,0,1,.36.36V9.18h0a6.09,6.09,0,0,1,9.86.36h0a6.42,6.42,0,0,1,5.58-2.7c4,0,6.16,2.55,6.16,6.48v10.8a.35.35,0,0,1-.36.36Z"/><path class="cls-1" d="M540,3.35a.35.35,0,0,1-.36-.36V.36A.34.34,0,0,1,540,0h2.45a.34.34,0,0,1,.36.36V3a.34.34,0,0,1-.36.36ZM540,24.48a.34.34,0,0,1-.36-.36V7.59a.34.34,0,0,1,.36-.36h2.3a.34.34,0,0,1,.36.36V24.12a.34.34,0,0,1-.36.36Z"/><path class="cls-1" d="M547.41,20.19a13.16,13.16,0,0,1-.58-4.35,13.43,13.43,0,0,1,.54-4.36,7.25,7.25,0,0,1,13.53,0,15.08,15.08,0,0,1,.54,4.93.35.35,0,0,1-.39.36H550.14a.2.2,0,0,0-.22.22,6.47,6.47,0,0,0,.29,2.09,4.26,4.26,0,0,0,4.36,3,5.64,5.64,0,0,0,4.43-1.9c.18-.18.36-.22.54-.07L561,21.42a.32.32,0,0,1,0,.5,8.38,8.38,0,0,1-6.73,2.95C550.83,24.87,548.34,23.18,547.41,20.19Zm10.72-5.83c.15,0,.22-.07.22-.21a6.08,6.08,0,0,0-.25-2,4.25,4.25,0,0,0-7.92,0,6.05,6.05,0,0,0-.26,2,.19.19,0,0,0,.22.21Z"/><path class="cls-1" d="M576.78,24.48a.34.34,0,0,1-.36-.36V14c0-2.77-1.26-4.39-3.85-4.39a3.87,3.87,0,0,0-4,4.21V24.12a.35.35,0,0,1-.36.36h-2.31a.35.35,0,0,1-.36-.36V7.59a.35.35,0,0,1,.36-.36h2.31a.35.35,0,0,1,.36.36V9.18h0a5.47,5.47,0,0,1,4.83-2.34c3.74,0,6,2.55,6,6.48v10.8a.34.34,0,0,1-.36.36Z"/><path class="cls-1" d="M589.45,24.66c-3.35,0-4.64-1.51-4.64-4.9V9.9a.19.19,0,0,0-.22-.22h-1.44a.34.34,0,0,1-.36-.36V7.59a.35.35,0,0,1,.36-.36h1.44c.15,0,.22-.07.22-.21V2.16a.34.34,0,0,1,.36-.36h2.3a.34.34,0,0,1,.36.36V7c0,.14.07.21.22.21h2.73a.34.34,0,0,1,.36.36V9.32a.34.34,0,0,1-.36.36h-2.73a.19.19,0,0,0-.22.22v9.75c0,1.73.65,2.2,2.2,2.2h.75a.34.34,0,0,1,.36.36V24.3a.34.34,0,0,1-.36.36Z"/><path class="cls-1" d="M605.54,24.48a.35.35,0,0,1-.36-.36V22.6h0c-.8,1.3-2.49,2.27-5.11,2.27-3.28,0-5.8-1.69-5.8-5.18,0-3.64,2.52-5.33,6.73-5.33h3.93a.19.19,0,0,0,.21-.21V12.89c0-2.38-.94-3.39-4.14-3.39a6.68,6.68,0,0,0-4.17,1.23.33.33,0,0,1-.51,0l-1-1.66a.38.38,0,0,1,.07-.5,9.56,9.56,0,0,1,5.87-1.69c4.9,0,6.77,1.62,6.77,5.87V24.12a.35.35,0,0,1-.36.36Zm-.43-5.58V17a.19.19,0,0,0-.21-.22h-3.46c-3,0-4.28.87-4.28,2.81,0,1.77,1.29,2.7,3.6,2.7C603.46,22.28,605.11,21,605.11,18.9Z"/><path class="cls-1" d="M39.11,58.23a13.14,13.14,0,0,1-.57-4.39,13.07,13.07,0,0,1,.57-4.36c.94-2.95,3.46-4.64,6.81-4.64s5.86,1.69,6.8,4.64a12.78,12.78,0,0,1,.58,4.36,12.85,12.85,0,0,1-.58,4.39,6.7,6.7,0,0,1-6.8,4.64A6.71,6.71,0,0,1,39.11,58.23Zm10.69-.86a11.27,11.27,0,0,0,.4-3.53,10.91,10.91,0,0,0-.4-3.49,4.15,4.15,0,0,0-7.77,0,10.91,10.91,0,0,0-.4,3.49,11.27,11.27,0,0,0,.4,3.53,4.15,4.15,0,0,0,7.77,0Z"/><path class="cls-1" d="M65.64,41.35a.34.34,0,0,1-.35-.36V38.36a.33.33,0,0,1,.35-.36h2.45a.34.34,0,0,1,.36.36V41a.34.34,0,0,1-.36.36Zm.08,21.13a.34.34,0,0,1-.36-.36V45.59a.34.34,0,0,1,.36-.36H68a.34.34,0,0,1,.36.36V62.12a.34.34,0,0,1-.36.36Z"/><path class="cls-1" d="M84.76,62.48a.34.34,0,0,1-.36-.36V52c0-2.77-1.26-4.39-3.85-4.39a3.87,3.87,0,0,0-4,4.21V62.12a.35.35,0,0,1-.36.36H73.92a.35.35,0,0,1-.36-.36V45.59a.35.35,0,0,1,.36-.36h2.31a.35.35,0,0,1,.36.36v1.59h0a5.47,5.47,0,0,1,4.83-2.34c3.74,0,6,2.55,6,6.48v10.8a.34.34,0,0,1-.36.36Z"/><path class="cls-1" d="M91.24,60.28a.35.35,0,0,1,0-.5l1.48-1.59a.35.35,0,0,1,.5,0,8.37,8.37,0,0,0,5.33,2c2.52,0,3.78-1.08,3.78-2.62,0-1.37-.65-2.13-3.35-2.42L97.14,55C93.76,54.59,92,52.9,92,50.09c0-3.27,2.34-5.25,6.4-5.25a10.32,10.32,0,0,1,6.12,1.91.34.34,0,0,1,.07.5l-1.22,1.55a.35.35,0,0,1-.5.07,9.09,9.09,0,0,0-4.65-1.4c-2.16,0-3.27,1-3.27,2.37s.83,2.09,3.38,2.34l1.8.18c3.49.33,5.18,2.09,5.18,4.86,0,3.38-2.44,5.65-6.94,5.65A10.73,10.73,0,0,1,91.24,60.28Z"/><path class="cls-1" d="M114.35,62.66c-3.35,0-4.64-1.51-4.64-4.9V47.9a.19.19,0,0,0-.22-.22h-1.44a.34.34,0,0,1-.36-.36V45.59a.35.35,0,0,1,.36-.36h1.44c.15,0,.22-.07.22-.21V40.16a.34.34,0,0,1,.36-.36h2.3a.34.34,0,0,1,.36.36V45c0,.14.07.21.22.21h2.73a.34.34,0,0,1,.36.36v1.73a.34.34,0,0,1-.36.36H113a.19.19,0,0,0-.22.22v9.75c0,1.73.65,2.2,2.2,2.2h.75a.34.34,0,0,1,.36.36V62.3a.34.34,0,0,1-.36.36Z"/><path class="cls-1" d="M120.36,62.48a.35.35,0,0,1-.36-.36V45.59a.35.35,0,0,1,.36-.36h2.31a.35.35,0,0,1,.36.36v1.77h0a4.8,4.8,0,0,1,4.57-2.52,5.3,5.3,0,0,1,3.53,1.29c.18.18.22.33.07.51L129.9,48.4a.32.32,0,0,1-.5.07,4.89,4.89,0,0,0-2.67-.82c-2.62,0-3.7,2.05-3.7,5v9.43a.35.35,0,0,1-.36.36Z"/><path class="cls-1" d="M144.88,62.48a.34.34,0,0,1-.36-.36V60.5h0a5.25,5.25,0,0,1-4.71,2.37c-3.78,0-6-2.59-6-6.51V45.59a.34.34,0,0,1,.36-.36h2.3a.34.34,0,0,1,.36.36v10c0,2.81,1.26,4.42,3.82,4.42,2.34,0,3.89-1.65,3.89-4.24V45.59a.34.34,0,0,1,.36-.36h2.3a.34.34,0,0,1,.36.36V62.12a.34.34,0,0,1-.36.36Z"/><path class="cls-1" d="M174.76,62.48a.34.34,0,0,1-.36-.36V52c0-2.77-1.26-4.39-3.86-4.39a3.89,3.89,0,0,0-4,4.21V62.12a.34.34,0,0,1-.36.36h-2.3a.35.35,0,0,1-.36-.36V52c0-2.77-1.26-4.39-3.85-4.39a3.87,3.87,0,0,0-4,4.21V62.12a.34.34,0,0,1-.36.36h-2.3a.34.34,0,0,1-.36-.36V45.59a.34.34,0,0,1,.36-.36h2.3a.34.34,0,0,1,.36.36v1.59h0a6.09,6.09,0,0,1,9.86.36h0a6.42,6.42,0,0,1,5.58-2.7c4,0,6.16,2.55,6.16,6.48v10.8a.34.34,0,0,1-.36.36Z"/><path class="cls-1" d="M182,58.19a13.43,13.43,0,0,1-.58-4.35,13.43,13.43,0,0,1,.54-4.36,7.26,7.26,0,0,1,13.54,0,15.08,15.08,0,0,1,.54,4.93.35.35,0,0,1-.4.36H184.69a.19.19,0,0,0-.21.22,6.47,6.47,0,0,0,.29,2.09,4.25,4.25,0,0,0,4.35,3,5.64,5.64,0,0,0,4.43-1.9c.18-.18.36-.22.54-.07l1.47,1.33a.32.32,0,0,1,0,.5,8.38,8.38,0,0,1-6.73,2.95C185.38,62.87,182.89,61.18,182,58.19Zm10.72-5.83c.15,0,.22-.07.22-.21a6.08,6.08,0,0,0-.25-1.95,4.25,4.25,0,0,0-7.92,0,6.08,6.08,0,0,0-.25,1.95.19.19,0,0,0,.21.21Z"/><path class="cls-1" d="M211.33,62.48a.35.35,0,0,1-.36-.36V52c0-2.77-1.26-4.39-3.85-4.39a3.87,3.87,0,0,0-4,4.21V62.12a.34.34,0,0,1-.36.36h-2.3a.34.34,0,0,1-.36-.36V45.59a.34.34,0,0,1,.36-.36h2.3a.34.34,0,0,1,.36.36v1.59h0A5.45,5.45,0,0,1,208,44.84c3.74,0,6,2.55,6,6.48v10.8a.35.35,0,0,1-.36.36Z"/><path class="cls-1" d="M224,62.66c-3.34,0-4.64-1.51-4.64-4.9V47.9c0-.15-.07-.22-.21-.22h-1.44a.34.34,0,0,1-.36-.36V45.59a.34.34,0,0,1,.36-.36h1.44a.19.19,0,0,0,.21-.21V40.16a.34.34,0,0,1,.36-.36H222a.34.34,0,0,1,.36.36V45a.19.19,0,0,0,.21.21h2.74a.35.35,0,0,1,.36.36v1.73a.34.34,0,0,1-.36.36H222.6c-.14,0-.21.07-.21.22v9.75c0,1.73.64,2.2,2.19,2.2h.76a.34.34,0,0,1,.36.36V62.3a.35.35,0,0,1-.36.36Z"/><path class="cls-1" d="M229.19,58.23a12.85,12.85,0,0,1-.58-4.39,12.78,12.78,0,0,1,.58-4.36c.94-2.95,3.46-4.64,6.8-4.64s5.87,1.69,6.81,4.64a13.07,13.07,0,0,1,.57,4.36,13.14,13.14,0,0,1-.57,4.39,7.31,7.31,0,0,1-13.61,0Zm10.69-.86a11.27,11.27,0,0,0,.4-3.53,10.91,10.91,0,0,0-.4-3.49,4.15,4.15,0,0,0-7.77,0,10.91,10.91,0,0,0-.4,3.49,11.27,11.27,0,0,0,.4,3.53,4.15,4.15,0,0,0,7.77,0Z"/><path class="cls-1" d="M266.23,62.48a.34.34,0,0,1-.36-.36V60.46h0c-.82,1.37-2.3,2.41-4.89,2.41-3,0-5.08-1.4-5.94-4.14a14.25,14.25,0,0,1-.61-4.89A14.2,14.2,0,0,1,255,49c.86-2.74,2.95-4.14,5.94-4.14,2.59,0,4.07,1,4.89,2.37h0V38.36a.34.34,0,0,1,.36-.36h2.31a.34.34,0,0,1,.36.36V62.12a.35.35,0,0,1-.36.36Zm-.75-5a11.35,11.35,0,0,0,.39-3.6,11.47,11.47,0,0,0-.39-3.6,4.08,4.08,0,0,0-7.6,0,12.15,12.15,0,0,0-.4,3.6,11.89,11.89,0,0,0,.4,3.6,4.07,4.07,0,0,0,7.6,0Z"/><path class="cls-1" d="M273.61,58.19a13.48,13.48,0,0,1-.57-4.35,13.43,13.43,0,0,1,.54-4.36,7.25,7.25,0,0,1,13.53,0,15.08,15.08,0,0,1,.54,4.93c0,.22-.14.36-.4.36h-10.9a.2.2,0,0,0-.22.22,6.47,6.47,0,0,0,.29,2.09,4.25,4.25,0,0,0,4.36,3,5.6,5.6,0,0,0,4.42-1.9c.18-.18.36-.22.54-.07l1.48,1.33a.31.31,0,0,1,0,.5,8.35,8.35,0,0,1-6.73,2.95C277,62.87,274.55,61.18,273.61,58.19Zm10.73-5.83a.19.19,0,0,0,.21-.21,6.08,6.08,0,0,0-.25-1.95,4.25,4.25,0,0,0-7.92,0,6.08,6.08,0,0,0-.25,1.95c0,.14.07.21.22.21Z"/><path class="cls-1" d="M304.71,62.66c-3.34,0-4.64-1.51-4.64-4.9V47.9c0-.15-.07-.22-.21-.22h-1.44a.34.34,0,0,1-.36-.36V45.59a.34.34,0,0,1,.36-.36h1.44a.19.19,0,0,0,.21-.21V40.16a.34.34,0,0,1,.36-.36h2.31a.33.33,0,0,1,.35.36V45a.19.19,0,0,0,.22.21h2.74a.35.35,0,0,1,.36.36v1.73a.34.34,0,0,1-.36.36h-2.74a.2.2,0,0,0-.22.22v9.75c0,1.73.65,2.2,2.2,2.2h.76a.34.34,0,0,1,.36.36V62.3a.35.35,0,0,1-.36.36Z"/><path class="cls-1" d="M310.73,62.48a.34.34,0,0,1-.36-.36V45.59a.34.34,0,0,1,.36-.36H313a.34.34,0,0,1,.36.36v1.77h0A4.78,4.78,0,0,1,318,44.84a5.32,5.32,0,0,1,3.53,1.29c.18.18.21.33.07.51l-1.33,1.76a.33.33,0,0,1-.51.07,4.86,4.86,0,0,0-2.66-.82c-2.63,0-3.71,2.05-3.71,5v9.43a.34.34,0,0,1-.36.36Z"/><path class="cls-1" d="M334,62.48a.35.35,0,0,1-.36-.36V60.6h0c-.8,1.3-2.49,2.27-5.12,2.27-3.27,0-5.79-1.69-5.79-5.18s2.52-5.33,6.73-5.33h3.92c.15,0,.22-.07.22-.21V50.89c0-2.38-.94-3.39-4.14-3.39a6.68,6.68,0,0,0-4.17,1.23.33.33,0,0,1-.51,0l-1-1.66a.38.38,0,0,1,.07-.5,9.56,9.56,0,0,1,5.87-1.69c4.89,0,6.77,1.62,6.77,5.87V62.12a.35.35,0,0,1-.36.36Zm-.43-5.58V55a.2.2,0,0,0-.22-.22h-3.45c-3,0-4.29.87-4.29,2.81,0,1.77,1.3,2.7,3.6,2.7C331.89,60.28,333.55,59,333.55,56.9Z"/><path class="cls-1" d="M341.87,62.48a.34.34,0,0,1-.36-.36V38.36a.34.34,0,0,1,.36-.36h2.3a.34.34,0,0,1,.36.36v8.85h0c.82-1.36,2.3-2.37,4.89-2.37,3,0,5.08,1.4,5.94,4.14a14.2,14.2,0,0,1,.61,4.86,14.25,14.25,0,0,1-.61,4.89c-.86,2.74-2.95,4.14-5.94,4.14-2.59,0-4.07-1-4.89-2.41h0v1.66a.34.34,0,0,1-.36.36Zm10.65-5a11.89,11.89,0,0,0,.4-3.6,12.15,12.15,0,0,0-.4-3.6,4.08,4.08,0,0,0-7.59,0,11.12,11.12,0,0,0-.4,3.6,11,11,0,0,0,.4,3.6,4.06,4.06,0,0,0,7.59,0Z"/><path class="cls-1" d="M370.59,62.48a.35.35,0,0,1-.36-.36V60.6h0c-.79,1.3-2.49,2.27-5.11,2.27-3.28,0-5.8-1.69-5.8-5.18s2.52-5.33,6.73-5.33H370a.19.19,0,0,0,.21-.21V50.89c0-2.38-.93-3.39-4.14-3.39a6.68,6.68,0,0,0-4.17,1.23.33.33,0,0,1-.51,0l-1-1.66a.38.38,0,0,1,.07-.5,9.56,9.56,0,0,1,5.87-1.69c4.9,0,6.77,1.62,6.77,5.87V62.12a.35.35,0,0,1-.36.36Zm-.43-5.58V55a.19.19,0,0,0-.21-.22h-3.46c-3,0-4.28.87-4.28,2.81,0,1.77,1.29,2.7,3.6,2.7C368.51,60.28,370.16,59,370.16,56.9Z"/><path class="cls-1" d="M375.28,69a.34.34,0,0,1-.36-.36V66.51a.34.34,0,0,1,.36-.36h.57c1.69,0,2.27-.47,2.27-2.31V45.59a.34.34,0,0,1,.36-.36h2.3a.34.34,0,0,1,.36.36V63.77c0,3.71-1.65,5.19-5.14,5.19Zm3.13-27.61a.34.34,0,0,1-.36-.36V38.36a.34.34,0,0,1,.36-.36h2.44a.34.34,0,0,1,.36.36V41a.34.34,0,0,1-.36.36Z"/><path class="cls-1" d="M385.86,58.23a12.85,12.85,0,0,1-.58-4.39,12.78,12.78,0,0,1,.58-4.36c.93-2.95,3.45-4.64,6.8-4.64s5.87,1.69,6.8,4.64a12.78,12.78,0,0,1,.58,4.36,12.85,12.85,0,0,1-.58,4.39c-.93,2.92-3.45,4.64-6.8,4.64S386.79,61.15,385.86,58.23Zm10.69-.86a11.27,11.27,0,0,0,.4-3.53,10.91,10.91,0,0,0-.4-3.49,4.15,4.15,0,0,0-7.78,0,11.26,11.26,0,0,0-.39,3.49,11.63,11.63,0,0,0,.39,3.53,4.16,4.16,0,0,0,7.78,0Z"/><path class="cls-1" d="M411.63,58.19a13.48,13.48,0,0,1-.57-4.35,13.43,13.43,0,0,1,.54-4.36,7.25,7.25,0,0,1,13.53,0,15.08,15.08,0,0,1,.54,4.93.35.35,0,0,1-.39.36H414.37a.2.2,0,0,0-.22.22,6.47,6.47,0,0,0,.29,2.09,4.26,4.26,0,0,0,4.36,3,5.6,5.6,0,0,0,4.42-1.9c.18-.18.36-.22.54-.07l1.48,1.33a.32.32,0,0,1,0,.5,8.39,8.39,0,0,1-6.74,2.95C415.05,62.87,412.57,61.18,411.63,58.19Zm10.73-5.83a.19.19,0,0,0,.22-.21,6.05,6.05,0,0,0-.26-1.95,4.25,4.25,0,0,0-7.91,0,6.05,6.05,0,0,0-.26,1.95.19.19,0,0,0,.22.21Z"/><path class="cls-1" d="M441,62.48a.34.34,0,0,1-.36-.36V52c0-2.77-1.26-4.39-3.85-4.39a3.87,3.87,0,0,0-4,4.21V62.12a.35.35,0,0,1-.36.36h-2.31a.35.35,0,0,1-.36-.36V45.59a.35.35,0,0,1,.36-.36h2.31a.35.35,0,0,1,.36.36v1.59h0a5.47,5.47,0,0,1,4.83-2.34c3.74,0,6,2.55,6,6.48v10.8a.34.34,0,0,1-.36.36Z"/><path class="cls-1" d="M455.41,60.28a.33.33,0,0,1,0-.5l1.47-1.59a.36.36,0,0,1,.51,0,8.34,8.34,0,0,0,5.33,2c2.52,0,3.78-1.08,3.78-2.62,0-1.37-.65-2.13-3.35-2.42L461.31,55c-3.38-.36-5.14-2.05-5.14-4.86,0-3.27,2.33-5.25,6.4-5.25a10.32,10.32,0,0,1,6.12,1.91.34.34,0,0,1,.07.5l-1.22,1.55a.35.35,0,0,1-.5.07,9.09,9.09,0,0,0-4.65-1.4c-2.16,0-3.27,1-3.27,2.37s.82,2.09,3.38,2.34l1.8.18c3.49.33,5.18,2.09,5.18,4.86,0,3.38-2.44,5.65-6.94,5.65A10.73,10.73,0,0,1,455.41,60.28Z"/><path class="cls-1" d="M484.35,62.48a.35.35,0,0,1-.36-.36V60.5h0a5.26,5.26,0,0,1-4.72,2.37c-3.78,0-6-2.59-6-6.51V45.59a.35.35,0,0,1,.36-.36h2.31a.35.35,0,0,1,.36.36v10c0,2.81,1.26,4.42,3.81,4.42,2.34,0,3.89-1.65,3.89-4.24V45.59a.35.35,0,0,1,.36-.36h2.31a.34.34,0,0,1,.35.36V62.12a.34.34,0,0,1-.35.36Z"/><path class="cls-1" d="M504.26,62.66c-3,0-4.21-1.44-4.21-4.54V38.36a.34.34,0,0,1,.36-.36h2.3a.34.34,0,0,1,.36.36V57.94c0,1.44.54,1.91,1.73,1.91h.68a.34.34,0,0,1,.36.36V62.3a.34.34,0,0,1-.36.36Z"/><path class="cls-1" d="M520.21,62.48a.34.34,0,0,1-.36-.36V60.5h0a5.25,5.25,0,0,1-4.72,2.37c-3.77,0-6-2.59-6-6.51V45.59a.34.34,0,0,1,.36-.36h2.3a.34.34,0,0,1,.36.36v10c0,2.81,1.26,4.42,3.82,4.42,2.34,0,3.89-1.65,3.89-4.24V45.59a.34.34,0,0,1,.36-.36h2.3a.34.34,0,0,1,.36.36V62.12a.34.34,0,0,1-.36.36Z"/><path class="cls-1" d="M527.69,66.8a.33.33,0,0,1,0-.51l1.48-1.47a.34.34,0,0,1,.54,0,5.72,5.72,0,0,0,4.06,1.72c2.85,0,4.36-1.47,4.36-4.64v-2h0c-.79,1.44-2.26,2.37-4.78,2.37a5.65,5.65,0,0,1-5.8-4.17,13.6,13.6,0,0,1-.57-4.54,13.6,13.6,0,0,1,.57-4.54,5.65,5.65,0,0,1,5.8-4.17c2.52,0,4,.93,4.78,2.37h0V45.59a.34.34,0,0,1,.36-.36h2.3a.34.34,0,0,1,.36.36V61.72c0,4.9-2.66,7.63-7.52,7.63A7.82,7.82,0,0,1,527.69,66.8Zm10.08-9.9a10.43,10.43,0,0,0,.4-3.35,10.55,10.55,0,0,0-.4-3.35,3.89,3.89,0,0,0-7.3,0,10.75,10.75,0,0,0-.44,3.35,10.62,10.62,0,0,0,.44,3.35,3.51,3.51,0,0,0,3.63,2.59A3.56,3.56,0,0,0,537.77,56.9Z"/><path class="cls-1" d="M556.82,62.48a.34.34,0,0,1-.36-.36V60.6h0c-.79,1.3-2.48,2.27-5.11,2.27-3.28,0-5.8-1.69-5.8-5.18s2.52-5.33,6.74-5.33h3.92a.19.19,0,0,0,.22-.21V50.89c0-2.38-.94-3.39-4.14-3.39a6.71,6.71,0,0,0-4.18,1.23c-.18.14-.4.14-.5,0l-1-1.66a.38.38,0,0,1,.08-.5,9.53,9.53,0,0,1,5.86-1.69c4.9,0,6.77,1.62,6.77,5.87V62.12a.34.34,0,0,1-.36.36Zm-.43-5.58V55a.2.2,0,0,0-.22-.22h-3.46c-3,0-4.28.87-4.28,2.81,0,1.77,1.3,2.7,3.6,2.7C554.73,60.28,556.39,59,556.39,56.9Z"/><path class="cls-1" d="M564.7,62.48a.35.35,0,0,1-.36-.36V45.59a.35.35,0,0,1,.36-.36H567a.35.35,0,0,1,.36.36v1.77h0A4.8,4.8,0,0,1,572,44.84a5.3,5.3,0,0,1,3.53,1.29c.18.18.22.33.07.51l-1.33,1.76a.32.32,0,0,1-.5.07,4.89,4.89,0,0,0-2.67-.82c-2.62,0-3.7,2.05-3.7,5v9.43a.35.35,0,0,1-.36.36Z"/><path class="cls-1" d="M575.9,58.66h2.52a.35.35,0,0,1,.36.36v3.35a1.14,1.14,0,0,1-.22.79l-2.23,3a.56.56,0,0,1-.47.25.32.32,0,0,1-.32-.32V59A.34.34,0,0,1,575.9,58.66Z"/><path class="cls-1" d="M11.09,100.48a.34.34,0,0,1-.36-.36V98.5h0A5.25,5.25,0,0,1,6,100.87c-3.78,0-6-2.59-6-6.51V83.59a.34.34,0,0,1,.36-.36h2.3a.34.34,0,0,1,.36.36v10c0,2.81,1.26,4.42,3.82,4.42,2.34,0,3.89-1.65,3.89-4.24V83.59a.34.34,0,0,1,.36-.36h2.3a.34.34,0,0,1,.36.36v16.53a.34.34,0,0,1-.36.36Zm-5.4-20c-.22,0-.33-.15-.22-.36l2.74-4.43a.63.63,0,0,1,.61-.36h2.37c.22,0,.33.18.18.36L8.06,80.07a.7.7,0,0,1-.68.36Z"/><path class="cls-1" d="M17.75,98.28a.33.33,0,0,1,0-.5l1.47-1.59a.36.36,0,0,1,.51,0,8.34,8.34,0,0,0,5.32,2c2.52,0,3.78-1.08,3.78-2.62,0-1.37-.64-2.13-3.34-2.42L23.65,93c-3.38-.36-5.15-2-5.15-4.86,0-3.27,2.34-5.25,6.41-5.25A10.32,10.32,0,0,1,31,84.75a.34.34,0,0,1,.07.5L29.88,86.8a.36.36,0,0,1-.51.07,9,9,0,0,0-4.64-1.4c-2.16,0-3.27,1-3.27,2.37s.82,2.09,3.38,2.34l1.8.18c3.49.33,5.18,2.09,5.18,4.86,0,3.38-2.45,5.65-6.94,5.65A10.73,10.73,0,0,1,17.75,98.28Z"/><path class="cls-1" d="M35.39,96.19a13.43,13.43,0,0,1-.58-4.35,13.43,13.43,0,0,1,.54-4.36,6.67,6.67,0,0,1,6.77-4.64,6.69,6.69,0,0,1,6.77,4.64,15.08,15.08,0,0,1,.54,4.93.35.35,0,0,1-.4.36H38.12a.19.19,0,0,0-.21.22,6.5,6.5,0,0,0,.28,2.09,4.27,4.27,0,0,0,4.36,3A5.64,5.64,0,0,0,47,96.16c.18-.18.36-.22.54-.07L49,97.42a.32.32,0,0,1,0,.5,8.38,8.38,0,0,1-6.73,3C38.81,100.87,36.32,99.18,35.39,96.19Zm10.72-5.83c.15,0,.22-.07.22-.21a6.08,6.08,0,0,0-.25-2,3.9,3.9,0,0,0-4-2.7,3.89,3.89,0,0,0-4,2.7,6.08,6.08,0,0,0-.25,2,.19.19,0,0,0,.21.21Z"/><path class="cls-1" d="M57.71,100.66c-3,0-4.21-1.44-4.21-4.54V76.36a.33.33,0,0,1,.35-.36h2.31a.34.34,0,0,1,.36.36V95.94c0,1.44.54,1.91,1.73,1.91h.68a.34.34,0,0,1,.36.36v2.09a.34.34,0,0,1-.36.36Z"/><path class="cls-1" d="M62.35,96.23a13.11,13.11,0,0,1-.58-4.39,13,13,0,0,1,.58-4.36c.94-3,3.46-4.64,6.8-4.64S75,84.53,76,87.48a13.07,13.07,0,0,1,.57,4.36A13.14,13.14,0,0,1,76,96.23a6.71,6.71,0,0,1-6.81,4.64A6.7,6.7,0,0,1,62.35,96.23ZM73,95.37a11.27,11.27,0,0,0,.4-3.53,10.91,10.91,0,0,0-.4-3.49,4.15,4.15,0,0,0-7.77,0,10.91,10.91,0,0,0-.4,3.49,11.27,11.27,0,0,0,.4,3.53,4.15,4.15,0,0,0,7.77,0Z"/><path class="cls-1" d="M88.74,107a.34.34,0,0,1-.36-.36v-2.09a.34.34,0,0,1,.36-.36h.65c1.4,0,2.16-.61,2.91-2.59l.58-1.59L86.54,83.59c-.07-.21,0-.36.29-.36h2.52a.42.42,0,0,1,.43.36l4.54,12.46h.07l4.36-12.46a.42.42,0,0,1,.43-.36h2.44c.22,0,.36.15.29.36l-6.8,18.22c-1.51,4.07-2.84,5.15-5.44,5.15Z"/><path class="cls-1" d="M117.1,100.66c-3,0-4.21-1.44-4.21-4.54V76.36a.34.34,0,0,1,.36-.36h2.31a.34.34,0,0,1,.36.36V95.94c0,1.44.54,1.91,1.72,1.91h.69a.34.34,0,0,1,.36.36v2.09a.35.35,0,0,1-.36.36Z"/><path class="cls-1" d="M133.05,100.48a.35.35,0,0,1-.36-.36V98.5h0a5.26,5.26,0,0,1-4.72,2.37c-3.78,0-6-2.59-6-6.51V83.59a.35.35,0,0,1,.37-.36h2.3a.35.35,0,0,1,.36.36v10c0,2.81,1.26,4.42,3.81,4.42,2.34,0,3.89-1.65,3.89-4.24V83.59a.35.35,0,0,1,.36-.36h2.31a.35.35,0,0,1,.36.36v16.53a.35.35,0,0,1-.36.36Z"/><path class="cls-1" d="M140.43,96.19a13.48,13.48,0,0,1-.57-4.35,13.43,13.43,0,0,1,.54-4.36,7.25,7.25,0,0,1,13.53,0,15.08,15.08,0,0,1,.54,4.93.35.35,0,0,1-.39.36H143.17A.2.2,0,0,0,143,93a6.47,6.47,0,0,0,.29,2.09,4.25,4.25,0,0,0,4.36,3,5.6,5.6,0,0,0,4.42-1.9c.18-.18.36-.22.54-.07L154,97.42a.32.32,0,0,1,0,.5,8.39,8.39,0,0,1-6.74,3C143.85,100.87,141.37,99.18,140.43,96.19Zm10.73-5.83a.19.19,0,0,0,.22-.21,6.05,6.05,0,0,0-.26-2,4.25,4.25,0,0,0-7.92,0,6.08,6.08,0,0,0-.25,2c0,.14.07.21.22.21Z"/><path class="cls-1" d="M158.25,104.8a.33.33,0,0,1,0-.51l1.47-1.47a.34.34,0,0,1,.54,0,5.76,5.76,0,0,0,4.07,1.72c2.84,0,4.36-1.47,4.36-4.64v-2h0c-.79,1.44-2.27,2.37-4.79,2.37a5.64,5.64,0,0,1-5.79-4.17,13.58,13.58,0,0,1-.58-4.54,13.58,13.58,0,0,1,.58-4.54,5.64,5.64,0,0,1,5.79-4.17c2.52,0,4,.93,4.79,2.37h0V83.59a.34.34,0,0,1,.36-.36h2.3a.34.34,0,0,1,.36.36V99.72c0,4.9-2.66,7.63-7.52,7.63A7.8,7.8,0,0,1,158.25,104.8Zm10.08-9.9a10.43,10.43,0,0,0,.4-3.35,10.55,10.55,0,0,0-.4-3.35,3.89,3.89,0,0,0-7.31,0,11.09,11.09,0,0,0-.43,3.35A11,11,0,0,0,161,94.9a3.53,3.53,0,0,0,3.64,2.59A3.56,3.56,0,0,0,168.33,94.9Z"/><path class="cls-1" d="M176.47,96.23a12.85,12.85,0,0,1-.58-4.39,12.78,12.78,0,0,1,.58-4.36c.93-3,3.45-4.64,6.8-4.64s5.87,1.69,6.8,4.64a12.78,12.78,0,0,1,.58,4.36,12.85,12.85,0,0,1-.58,4.39c-.93,2.92-3.45,4.64-6.8,4.64S177.4,99.15,176.47,96.23Zm10.69-.86a11.32,11.32,0,0,0,.39-3.53,11,11,0,0,0-.39-3.49,4.15,4.15,0,0,0-7.78,0,11.26,11.26,0,0,0-.39,3.49,11.63,11.63,0,0,0,.39,3.53,4.16,4.16,0,0,0,7.78,0Z"/><path class="cls-1" d="M213.55,100.48a.34.34,0,0,1-.36-.36V98.5h0a5.25,5.25,0,0,1-4.72,2.37c-3.77,0-6-2.59-6-6.51V83.59a.34.34,0,0,1,.36-.36h2.3a.34.34,0,0,1,.36.36v10c0,2.81,1.26,4.42,3.82,4.42,2.34,0,3.89-1.65,3.89-4.24V83.59a.34.34,0,0,1,.36-.36h2.3a.34.34,0,0,1,.36.36v16.53a.34.34,0,0,1-.36.36Z"/><path class="cls-1" d="M221.75,100.48a.35.35,0,0,1-.36-.36V76.36a.34.34,0,0,1,.36-.36h2.31a.34.34,0,0,1,.36.36v8.85h0c.83-1.36,2.31-2.37,4.9-2.37,3,0,5.07,1.4,5.94,4.14a14.2,14.2,0,0,1,.61,4.86,14.25,14.25,0,0,1-.61,4.89c-.87,2.74-2.95,4.14-5.94,4.14-2.59,0-4.07-1-4.9-2.41h0v1.66a.35.35,0,0,1-.36.36Zm10.66-5a11.89,11.89,0,0,0,.4-3.6,12.15,12.15,0,0,0-.4-3.6,4.08,4.08,0,0,0-7.6,0,11.47,11.47,0,0,0-.39,3.6,11.35,11.35,0,0,0,.39,3.6,4.07,4.07,0,0,0,7.6,0Z"/><path class="cls-1" d="M240.4,100.48a.35.35,0,0,1-.36-.36V83.59a.35.35,0,0,1,.36-.36h2.31a.35.35,0,0,1,.36.36v16.53a.35.35,0,0,1-.36.36Zm.29-20c-.22,0-.32-.15-.22-.36l2.74-4.43a.63.63,0,0,1,.61-.36h2.38a.21.21,0,0,1,.18.36l-3.31,4.43a.71.71,0,0,1-.69.36Z"/><path class="cls-1" d="M259.05,107a.34.34,0,0,1-.36-.36V98.46h0c-.82,1.37-2.3,2.41-4.89,2.41-3,0-5.08-1.4-5.94-4.14a14.25,14.25,0,0,1-.61-4.89,14.2,14.2,0,0,1,.61-4.86c.86-2.74,3-4.14,5.94-4.14,2.59,0,4.07,1,4.89,2.37h0V83.59a.34.34,0,0,1,.36-.36h2.3a.34.34,0,0,1,.36.36v23a.34.34,0,0,1-.36.36Zm-.76-11.52a11,11,0,0,0,.4-3.6,11.12,11.12,0,0,0-.4-3.6,4.08,4.08,0,0,0-7.59,0,12.15,12.15,0,0,0-.4,3.6,11.89,11.89,0,0,0,.4,3.6,4.06,4.06,0,0,0,7.59,0Z"/><path class="cls-1" d="M277.73,100.48a.35.35,0,0,1-.36-.36V98.5h0a5.26,5.26,0,0,1-4.72,2.37c-3.78,0-6-2.59-6-6.51V83.59a.34.34,0,0,1,.36-.36h2.3a.34.34,0,0,1,.36.36v10c0,2.81,1.26,4.42,3.82,4.42,2.34,0,3.88-1.65,3.88-4.24V83.59a.35.35,0,0,1,.36-.36H280a.35.35,0,0,1,.36.36v16.53a.35.35,0,0,1-.36.36Z"/><path class="cls-1" d="M285.11,96.19a13.48,13.48,0,0,1-.57-4.35,13.43,13.43,0,0,1,.54-4.36,7.25,7.25,0,0,1,13.53,0,15.08,15.08,0,0,1,.54,4.93.35.35,0,0,1-.39.36H287.85a.2.2,0,0,0-.22.22,6.47,6.47,0,0,0,.29,2.09,4.26,4.26,0,0,0,4.36,3,5.6,5.6,0,0,0,4.42-1.9c.18-.18.36-.22.54-.07l1.48,1.33a.32.32,0,0,1,0,.5,8.39,8.39,0,0,1-6.74,3C288.53,100.87,286.05,99.18,285.11,96.19Zm10.73-5.83a.19.19,0,0,0,.22-.21,6.05,6.05,0,0,0-.26-2,4.25,4.25,0,0,0-7.91,0,6.05,6.05,0,0,0-.26,2,.19.19,0,0,0,.22.21Z"/><path class="cls-1" d="M307.43,100.66c-3,0-4.21-1.44-4.21-4.54V76.36a.34.34,0,0,1,.36-.36h2.3a.34.34,0,0,1,.37.36V95.94c0,1.44.54,1.91,1.72,1.91h.69a.34.34,0,0,1,.36.36v2.09a.35.35,0,0,1-.36.36Z"/><path class="cls-1" d="M312.08,96.23a12.85,12.85,0,0,1-.58-4.39,12.78,12.78,0,0,1,.58-4.36c.93-3,3.45-4.64,6.8-4.64s5.87,1.69,6.8,4.64a12.78,12.78,0,0,1,.58,4.36,12.85,12.85,0,0,1-.58,4.39c-.93,2.92-3.45,4.64-6.8,4.64S313,99.15,312.08,96.23Zm10.69-.86a11.32,11.32,0,0,0,.39-3.53,11,11,0,0,0-.39-3.49,4.15,4.15,0,0,0-7.78,0,11.26,11.26,0,0,0-.39,3.49,11.63,11.63,0,0,0,.39,3.53,4.16,4.16,0,0,0,7.78,0Z"/><path class="cls-1" d="M349.51,100.48a.34.34,0,0,1-.35-.36V90c0-2.77-1.26-4.39-3.86-4.39a3.87,3.87,0,0,0-4,4.21v10.26a.34.34,0,0,1-.36.36h-2.3a.34.34,0,0,1-.36-.36V83.59a.34.34,0,0,1,.36-.36H341a.34.34,0,0,1,.36.36v1.59h0a5.45,5.45,0,0,1,4.82-2.34c3.75,0,6,2.55,6,6.48v10.8a.35.35,0,0,1-.36.36Z"/><path class="cls-1" d="M368,100.48a.34.34,0,0,1-.36-.36V98.5h0a5.25,5.25,0,0,1-4.71,2.37c-3.78,0-6-2.59-6-6.51V83.59a.35.35,0,0,1,.36-.36h2.31a.35.35,0,0,1,.36.36v10c0,2.81,1.26,4.42,3.81,4.42,2.34,0,3.89-1.65,3.89-4.24V83.59a.34.34,0,0,1,.36-.36h2.3a.34.34,0,0,1,.36.36v16.53a.34.34,0,0,1-.36.36Z"/><path class="cls-1" d="M375.4,96.19a13.43,13.43,0,0,1-.58-4.35,13.43,13.43,0,0,1,.54-4.36,7.26,7.26,0,0,1,13.54,0,15.08,15.08,0,0,1,.54,4.93.35.35,0,0,1-.4.36h-10.9a.2.2,0,0,0-.22.22,6.47,6.47,0,0,0,.29,2.09,4.25,4.25,0,0,0,4.35,3,5.64,5.64,0,0,0,4.43-1.9c.18-.18.36-.22.54-.07L389,97.42a.31.31,0,0,1,0,.5,8.38,8.38,0,0,1-6.73,3C378.82,100.87,376.34,99.18,375.4,96.19Zm10.73-5.83a.19.19,0,0,0,.21-.21,6.08,6.08,0,0,0-.25-2,4.25,4.25,0,0,0-7.92,0,6.08,6.08,0,0,0-.25,2c0,.14.07.21.22.21Z"/><path class="cls-1" d="M398.19,100.48c-.26,0-.36-.15-.44-.36l-6.19-16.53c-.07-.21,0-.36.29-.36h2.48c.26,0,.37.11.47.36L399.27,96h.07l4.35-12.39a.43.43,0,0,1,.44-.36h2.44c.26,0,.36.15.29.36l-6.15,16.53a.48.48,0,0,1-.47.36Z"/><path class="cls-1" d="M420.29,100.48a.34.34,0,0,1-.36-.36V98.6h0c-.79,1.3-2.48,2.27-5.11,2.27-3.27,0-5.79-1.69-5.79-5.18s2.52-5.33,6.73-5.33h3.92c.15,0,.22-.07.22-.21V88.89c0-2.38-.94-3.39-4.14-3.39a6.71,6.71,0,0,0-4.18,1.23.32.32,0,0,1-.5,0l-1-1.66a.38.38,0,0,1,.07-.5A9.54,9.54,0,0,1,416,82.84c4.89,0,6.76,1.62,6.76,5.87v11.41a.34.34,0,0,1-.36.36Zm-.43-5.58V93a.2.2,0,0,0-.22-.22h-3.45c-3,0-4.29.87-4.29,2.81,0,1.77,1.3,2.7,3.6,2.7C418.2,98.28,419.86,97,419.86,94.9Z"/><path class="cls-1" d="M449.84,100.48a.35.35,0,0,1-.36-.36V90c0-2.77-1.26-4.39-3.85-4.39a3.89,3.89,0,0,0-4,4.21v10.26a.34.34,0,0,1-.36.36H439a.34.34,0,0,1-.36-.36V90c0-2.77-1.26-4.39-3.85-4.39a3.87,3.87,0,0,0-4,4.21v10.26a.35.35,0,0,1-.36.36h-2.31a.34.34,0,0,1-.35-.36V83.59a.34.34,0,0,1,.35-.36h2.31a.35.35,0,0,1,.36.36v1.59h0a6.09,6.09,0,0,1,9.86.36h0a6.42,6.42,0,0,1,5.58-2.7c4,0,6.16,2.55,6.16,6.48v10.8a.35.35,0,0,1-.36.36Z"/><path class="cls-1" d="M457.05,96.19a13.43,13.43,0,0,1-.58-4.35,13.43,13.43,0,0,1,.54-4.36,7.25,7.25,0,0,1,13.53,0,14.8,14.8,0,0,1,.54,4.93.35.35,0,0,1-.39.36H459.78a.19.19,0,0,0-.21.22,6.5,6.5,0,0,0,.28,2.09,4.27,4.27,0,0,0,4.36,3,5.64,5.64,0,0,0,4.43-1.9c.18-.18.36-.22.54-.07l1.47,1.33a.32.32,0,0,1,0,.5,8.38,8.38,0,0,1-6.73,3C460.47,100.87,458,99.18,457.05,96.19Zm10.72-5.83c.15,0,.22-.07.22-.21a6.08,6.08,0,0,0-.25-2,4.25,4.25,0,0,0-7.92,0,6.08,6.08,0,0,0-.25,2,.19.19,0,0,0,.21.21Z"/><path class="cls-1" d="M486.42,100.48a.34.34,0,0,1-.36-.36V90c0-2.77-1.26-4.39-3.85-4.39a3.87,3.87,0,0,0-4,4.21v10.26a.34.34,0,0,1-.36.36h-2.3a.34.34,0,0,1-.36-.36V83.59a.34.34,0,0,1,.36-.36h2.3a.34.34,0,0,1,.36.36v1.59h0a5.44,5.44,0,0,1,4.82-2.34c3.74,0,6,2.55,6,6.48v10.8a.34.34,0,0,1-.36.36Z"/><path class="cls-1" d="M499.09,100.66c-3.34,0-4.64-1.51-4.64-4.9V85.9a.19.19,0,0,0-.22-.22h-1.44a.34.34,0,0,1-.36-.36V83.59a.35.35,0,0,1,.36-.36h1.44c.15,0,.22-.07.22-.21V78.16a.34.34,0,0,1,.36-.36h2.3a.34.34,0,0,1,.36.36V83a.19.19,0,0,0,.22.21h2.73a.35.35,0,0,1,.37.36v1.73a.34.34,0,0,1-.37.36h-2.73a.2.2,0,0,0-.22.22v9.75c0,1.73.65,2.2,2.2,2.2h.75a.34.34,0,0,1,.37.36v2.09a.35.35,0,0,1-.37.36Z"/><path class="cls-1" d="M504.28,96.19a13.43,13.43,0,0,1-.58-4.35,13.43,13.43,0,0,1,.54-4.36,7.26,7.26,0,0,1,13.54,0,15.08,15.08,0,0,1,.54,4.93.35.35,0,0,1-.4.36H507a.19.19,0,0,0-.21.22,6.8,6.8,0,0,0,.28,2.09,4.27,4.27,0,0,0,4.36,3,5.64,5.64,0,0,0,4.43-1.9c.18-.18.36-.22.54-.07l1.47,1.33a.32.32,0,0,1,0,.5,8.38,8.38,0,0,1-6.73,3C507.7,100.87,505.21,99.18,504.28,96.19ZM515,90.36c.15,0,.22-.07.22-.21a6.08,6.08,0,0,0-.25-2,4.25,4.25,0,0,0-7.92,0,6.08,6.08,0,0,0-.25,2,.19.19,0,0,0,.21.21Z"/><path class="cls-1" d="M541.18,100.48a.34.34,0,0,1-.36-.36V98.46h0c-.83,1.37-2.3,2.41-4.9,2.41-3,0-5.07-1.4-5.93-4.14a14.22,14.22,0,0,1-.62-4.89A14.17,14.17,0,0,1,530,87c.86-2.74,2.95-4.14,5.93-4.14,2.6,0,4.07,1,4.9,2.37h0V76.36a.34.34,0,0,1,.36-.36h2.3a.34.34,0,0,1,.36.36v23.76a.34.34,0,0,1-.36.36Zm-.76-5a11,11,0,0,0,.4-3.6,11.12,11.12,0,0,0-.4-3.6,4.08,4.08,0,0,0-7.59,0,12.15,12.15,0,0,0-.4,3.6,11.89,11.89,0,0,0,.4,3.6,4.06,4.06,0,0,0,7.59,0Z"/><path class="cls-1" d="M548.56,96.23a12.85,12.85,0,0,1-.58-4.39,12.78,12.78,0,0,1,.58-4.36c.93-3,3.45-4.64,6.8-4.64s5.87,1.69,6.8,4.64a12.78,12.78,0,0,1,.58,4.36,12.85,12.85,0,0,1-.58,4.39c-.93,2.92-3.45,4.64-6.8,4.64S549.49,99.15,548.56,96.23Zm10.69-.86a11.32,11.32,0,0,0,.39-3.53,11,11,0,0,0-.39-3.49,4.15,4.15,0,0,0-7.78,0,11,11,0,0,0-.39,3.49,11.32,11.32,0,0,0,.39,3.53,4.16,4.16,0,0,0,7.78,0Z"/><path class="cls-1" d="M578.08,100.48a.35.35,0,0,1-.37-.36V90c0-2.77-1.25-4.39-3.85-4.39a3.87,3.87,0,0,0-4,4.21v10.26a.34.34,0,0,1-.36.36h-2.3a.34.34,0,0,1-.36-.36V83.59a.34.34,0,0,1,.36-.36h2.3a.34.34,0,0,1,.36.36v1.59h0a5.45,5.45,0,0,1,4.82-2.34c3.75,0,6,2.55,6,6.48v10.8a.35.35,0,0,1-.36.36Z"/><path class="cls-1" d="M596.54,100.48a.35.35,0,0,1-.36-.36V98.46h0c-.83,1.37-2.31,2.41-4.9,2.41-3,0-5.07-1.4-5.94-4.14a14.25,14.25,0,0,1-.61-4.89,14.2,14.2,0,0,1,.61-4.86c.87-2.74,3-4.14,5.94-4.14,2.59,0,4.07,1,4.9,2.37h0V76.36a.34.34,0,0,1,.36-.36h2.31a.34.34,0,0,1,.36.36v23.76a.35.35,0,0,1-.36.36Zm-.75-5a11.06,11.06,0,0,0,.39-3.6,11.18,11.18,0,0,0-.39-3.6,4.08,4.08,0,0,0-7.6,0,12.2,12.2,0,0,0-.39,3.6,11.94,11.94,0,0,0,.39,3.6,4.07,4.07,0,0,0,7.6,0Z"/><path class="cls-1" d="M603.92,96.19a13.48,13.48,0,0,1-.57-4.35,13.43,13.43,0,0,1,.54-4.36,7.25,7.25,0,0,1,13.53,0,15.08,15.08,0,0,1,.54,4.93.35.35,0,0,1-.39.36H606.66a.2.2,0,0,0-.22.22,6.47,6.47,0,0,0,.29,2.09,4.26,4.26,0,0,0,4.36,3,5.6,5.6,0,0,0,4.42-1.9c.18-.18.36-.22.54-.07l1.48,1.33a.32.32,0,0,1,0,.5,8.39,8.39,0,0,1-6.74,3C607.34,100.87,604.86,99.18,603.92,96.19Zm10.73-5.83a.19.19,0,0,0,.22-.21,6.05,6.05,0,0,0-.26-2,4.25,4.25,0,0,0-7.91,0,6.05,6.05,0,0,0-.26,2,.19.19,0,0,0,.22.21Z"/><path class="cls-1" d="M213.3,125.48a6.68,6.68,0,0,1,6.8-4.64,6.92,6.92,0,0,1,5.9,2.91c.11.18.11.33-.11.51l-1.58,1.29a.31.31,0,0,1-.5,0,4.24,4.24,0,0,0-3.71-1.87,3.74,3.74,0,0,0-3.85,2.7,11.4,11.4,0,0,0-.4,3.49,11.52,11.52,0,0,0,.4,3.53,3.73,3.73,0,0,0,3.85,2.69,4.24,4.24,0,0,0,3.71-1.87.31.31,0,0,1,.5,0l1.58,1.29c.22.18.22.33.11.51a6.9,6.9,0,0,1-5.9,2.91c-3.31,0-5.83-1.65-6.8-4.64a18,18,0,0,1,0-8.75Z"/><path class="cls-1" d="M229.17,134.23a17.07,17.07,0,0,1,0-8.75c.94-3,3.46-4.64,6.8-4.64s5.87,1.69,6.81,4.64a17.07,17.07,0,0,1,0,8.75,7.31,7.31,0,0,1-13.61,0Zm10.69-.86a11.27,11.27,0,0,0,.4-3.53,10.91,10.91,0,0,0-.4-3.49,4.15,4.15,0,0,0-7.77,0,10.91,10.91,0,0,0-.4,3.49,11.27,11.27,0,0,0,.4,3.53,4.15,4.15,0,0,0,7.77,0Z"/><path class="cls-1" d="M247.85,138.48a.34.34,0,0,1-.35-.36V121.59a.34.34,0,0,1,.35-.36h2.31a.34.34,0,0,1,.36.36v1.77h0a4.81,4.81,0,0,1,4.58-2.52,5.29,5.29,0,0,1,3.52,1.29c.18.18.22.33.08.51l-1.34,1.76a.32.32,0,0,1-.5.07,4.89,4.89,0,0,0-2.66-.82c-2.63,0-3.71,2-3.71,5v9.43a.34.34,0,0,1-.36.36Z"/><path class="cls-1" d="M261.89,138.48a.34.34,0,0,1-.35-.36V121.59a.34.34,0,0,1,.35-.36h2.31a.34.34,0,0,1,.36.36v1.77h0a4.81,4.81,0,0,1,4.58-2.52,5.29,5.29,0,0,1,3.52,1.29c.18.18.22.33.08.51l-1.34,1.76a.32.32,0,0,1-.5.07,4.89,4.89,0,0,0-2.66-.82c-2.63,0-3.71,2-3.71,5v9.43a.34.34,0,0,1-.36.36Z"/><path class="cls-1" d="M274.46,134.19a17.21,17.21,0,0,1,0-8.71,7.26,7.26,0,0,1,13.54,0,15.08,15.08,0,0,1,.54,4.93.35.35,0,0,1-.4.36H277.19a.19.19,0,0,0-.21.22,6.47,6.47,0,0,0,.29,2.09,4.25,4.25,0,0,0,4.35,3,5.64,5.64,0,0,0,4.43-1.9c.18-.18.36-.22.54-.07l1.48,1.33a.31.31,0,0,1,0,.5,8.38,8.38,0,0,1-6.73,3C277.88,138.87,275.39,137.18,274.46,134.19Zm10.73-5.83a.19.19,0,0,0,.21-.21,6.08,6.08,0,0,0-.25-2,4.25,4.25,0,0,0-7.92,0,6.08,6.08,0,0,0-.25,2,.19.19,0,0,0,.21.21Z"/><path class="cls-1" d="M291.45,136.28a.35.35,0,0,1,0-.5l1.48-1.59a.35.35,0,0,1,.5,0,8.37,8.37,0,0,0,5.33,2c2.52,0,3.78-1.08,3.78-2.62,0-1.37-.65-2.13-3.35-2.42l-1.84-.18c-3.38-.36-5.14-2-5.14-4.86,0-3.27,2.34-5.25,6.4-5.25a10.32,10.32,0,0,1,6.12,1.91.34.34,0,0,1,.07.5l-1.22,1.55a.35.35,0,0,1-.5.07,9.09,9.09,0,0,0-4.65-1.4c-2.16,0-3.27,1-3.27,2.37s.83,2.09,3.38,2.34l1.8.18c3.49.33,5.18,2.09,5.18,4.86,0,3.38-2.44,5.65-6.94,5.65A10.73,10.73,0,0,1,291.45,136.28Z"/><path class="cls-1" d="M309.92,145a.34.34,0,0,1-.36-.36v-23a.34.34,0,0,1,.36-.36h2.3a.34.34,0,0,1,.36.36v1.62h0c.83-1.36,2.3-2.37,4.89-2.37,3,0,5.08,1.4,5.94,4.14a14.2,14.2,0,0,1,.61,4.86,14.25,14.25,0,0,1-.61,4.89c-.86,2.74-2.95,4.14-5.94,4.14-2.59,0-4.06-1-4.89-2.41h0v8.14a.34.34,0,0,1-.36.36Zm10.65-11.52a11.89,11.89,0,0,0,.4-3.6,12.15,12.15,0,0,0-.4-3.6,4.08,4.08,0,0,0-7.59,0,11.12,11.12,0,0,0-.4,3.6,11,11,0,0,0,.4,3.6,4.06,4.06,0,0,0,7.59,0Z"/><path class="cls-1" d="M327.74,134.23a16.79,16.79,0,0,1,0-8.75c.93-3,3.45-4.64,6.8-4.64s5.87,1.69,6.8,4.64a16.79,16.79,0,0,1,0,8.75c-.93,2.92-3.45,4.64-6.8,4.64S328.67,137.15,327.74,134.23Zm10.69-.86a11.32,11.32,0,0,0,.39-3.53,11,11,0,0,0-.39-3.49,4.15,4.15,0,0,0-7.78,0,11.26,11.26,0,0,0-.39,3.49,11.63,11.63,0,0,0,.39,3.53,4.16,4.16,0,0,0,7.78,0Z"/><path class="cls-1" d="M357.26,138.48a.34.34,0,0,1-.36-.36V128c0-2.77-1.26-4.39-3.86-4.39a3.87,3.87,0,0,0-4,4.21v10.26a.34.34,0,0,1-.35.36h-2.31a.35.35,0,0,1-.36-.36V121.59a.35.35,0,0,1,.36-.36h2.31a.34.34,0,0,1,.35.36v1.59h0a5.45,5.45,0,0,1,4.82-2.34c3.75,0,6,2.55,6,6.48v10.8a.34.34,0,0,1-.36.36Z"/><path class="cls-1" d="M375.72,138.48a.35.35,0,0,1-.36-.36v-1.66h0c-.83,1.37-2.31,2.41-4.9,2.41-3,0-5.07-1.4-5.94-4.14a14.5,14.5,0,0,1-.61-4.89,14.45,14.45,0,0,1,.61-4.86c.87-2.74,2.95-4.14,5.94-4.14,2.59,0,4.07,1,4.9,2.37h0v-8.85a.34.34,0,0,1,.36-.36H378a.34.34,0,0,1,.36.36v23.76a.35.35,0,0,1-.36.36Zm-.75-5a11.06,11.06,0,0,0,.39-3.6,11.18,11.18,0,0,0-.39-3.6,4.08,4.08,0,0,0-7.6,0,12.2,12.2,0,0,0-.39,3.6,11.94,11.94,0,0,0,.39,3.6,4.07,4.07,0,0,0,7.6,0Z"/><path class="cls-1" d="M394,138.48a.35.35,0,0,1-.36-.36V136.6h0c-.8,1.3-2.49,2.27-5.12,2.27-3.27,0-5.79-1.69-5.79-5.18s2.52-5.33,6.73-5.33h3.92c.15,0,.22-.07.22-.21v-1.26c0-2.38-.94-3.39-4.14-3.39a6.73,6.73,0,0,0-4.18,1.23.32.32,0,0,1-.5,0l-1-1.66a.38.38,0,0,1,.07-.5,9.56,9.56,0,0,1,5.87-1.69c4.89,0,6.77,1.62,6.77,5.87v11.41a.35.35,0,0,1-.36.36Zm-.43-5.58V131a.2.2,0,0,0-.22-.22h-3.45c-3,0-4.28.87-4.28,2.81,0,1.77,1.29,2.7,3.59,2.7C391.92,136.28,393.58,135,393.58,132.9Z"/><path class="cls-1" d="M401.11,135a.34.34,0,0,1,.35-.36h2.74a.34.34,0,0,1,.36.36v3.1a.34.34,0,0,1-.36.36h-2.74a.34.34,0,0,1-.35-.36Z"/></g></g></svg>