<svg xmlns="http://www.w3.org/2000/svg" viewBox="0 0 637.19 176.87"><defs><style>.cls-1{fill:#4d4d4d;}</style></defs><title>r4</title><g id="Capa_2" data-name="Capa 2"><g id="control_vector" data-name="control vector"><path class="cls-1" d="M29.38.36A.34.34,0,0,1,29.74,0h2.48a.34.34,0,0,1,.36.36v10c0,.15.07.22.21.22H43.41a.19.19,0,0,0,.22-.22V.36A.34.34,0,0,1,44,0h2.48a.34.34,0,0,1,.36.36V24.12a.34.34,0,0,1-.36.36H44a.34.34,0,0,1-.36-.36V13.82c0-.14-.07-.21-.22-.21H32.79a.19.19,0,0,0-.21.21v10.3a.35.35,0,0,1-.36.36H29.74a.34.34,0,0,1-.36-.36Z"/><path class="cls-1" d="M62.53,24.48a.34.34,0,0,1-.36-.36V22.6h0c-.79,1.3-2.48,2.27-5.11,2.27-3.27,0-5.79-1.69-5.79-5.18,0-3.64,2.52-5.33,6.73-5.33h3.92c.15,0,.22-.07.22-.21V12.89c0-2.38-.94-3.39-4.14-3.39a6.71,6.71,0,0,0-4.18,1.23.32.32,0,0,1-.5,0L52.31,9a.38.38,0,0,1,.07-.5,9.54,9.54,0,0,1,5.87-1.69c4.89,0,6.76,1.62,6.76,5.87V24.12a.34.34,0,0,1-.36.36ZM62.1,18.9V17a.2.2,0,0,0-.22-.22H58.43c-3,0-4.29.87-4.29,2.81,0,1.77,1.3,2.7,3.6,2.7C60.44,22.28,62.1,21,62.1,18.9Z"/><path class="cls-1" d="M69.69,28.8a.33.33,0,0,1,0-.51l1.48-1.47a.34.34,0,0,1,.54,0,5.72,5.72,0,0,0,4.06,1.72c2.85,0,4.36-1.47,4.36-4.64v-2h0c-.79,1.44-2.26,2.37-4.78,2.37a5.65,5.65,0,0,1-5.8-4.17A13.6,13.6,0,0,1,69,15.55,13.6,13.6,0,0,1,69.55,11a5.65,5.65,0,0,1,5.8-4.17c2.52,0,4,.93,4.78,2.37h0V7.59a.34.34,0,0,1,.36-.36h2.3a.34.34,0,0,1,.36.36V23.72c0,4.9-2.66,7.63-7.52,7.63A7.82,7.82,0,0,1,69.69,28.8Zm10.08-9.9a10.43,10.43,0,0,0,.4-3.35,10.55,10.55,0,0,0-.4-3.35,3.89,3.89,0,0,0-7.3,0A10.75,10.75,0,0,0,72,15.55a10.62,10.62,0,0,0,.44,3.35,3.51,3.51,0,0,0,3.63,2.59A3.56,3.56,0,0,0,79.77,18.9Z"/><path class="cls-1" d="M98.82,24.48a.34.34,0,0,1-.36-.36V22.6h0c-.79,1.3-2.48,2.27-5.11,2.27-3.28,0-5.8-1.69-5.8-5.18,0-3.64,2.52-5.33,6.74-5.33h3.92a.19.19,0,0,0,.22-.21V12.89c0-2.38-.94-3.39-4.14-3.39a6.71,6.71,0,0,0-4.18,1.23c-.18.14-.4.14-.5,0L88.59,9a.38.38,0,0,1,.08-.5,9.53,9.53,0,0,1,5.86-1.69c4.9,0,6.77,1.62,6.77,5.87V24.12a.34.34,0,0,1-.36.36Zm-.43-5.58V17a.2.2,0,0,0-.22-.22H94.71c-3,0-4.28.87-4.28,2.81,0,1.77,1.3,2.7,3.6,2.7C96.73,22.28,98.39,21,98.39,18.9Z"/><path class="cls-1" d="M125.1,24.48a.34.34,0,0,1-.36-.36V22.5h0A5.25,5.25,0,0,1,120,24.87c-3.78,0-6-2.59-6-6.51V7.59a.34.34,0,0,1,.36-.36h2.3a.34.34,0,0,1,.36.36V17.64c0,2.81,1.26,4.42,3.82,4.42,2.34,0,3.89-1.65,3.89-4.24V7.59a.34.34,0,0,1,.36-.36h2.3a.34.34,0,0,1,.36.36V24.12a.34.34,0,0,1-.36.36Z"/><path class="cls-1" d="M131.76,22.28a.33.33,0,0,1,0-.5l1.47-1.59a.36.36,0,0,1,.51,0,8.34,8.34,0,0,0,5.32,2c2.52,0,3.78-1.08,3.78-2.62,0-1.37-.64-2.13-3.34-2.42L137.66,17c-3.38-.36-5.15-2-5.15-4.86,0-3.27,2.34-5.25,6.41-5.25A10.32,10.32,0,0,1,145,8.75a.34.34,0,0,1,.07.5l-1.22,1.55a.36.36,0,0,1-.51.07,9.06,9.06,0,0,0-4.64-1.4c-2.16,0-3.27,1-3.27,2.37s.82,2.09,3.38,2.34l1.8.18c3.49.33,5.18,2.09,5.18,4.86,0,3.38-2.45,5.65-7,5.65A10.72,10.72,0,0,1,131.76,22.28Z"/><path class="cls-1" d="M149.4,20.23a12.85,12.85,0,0,1-.58-4.39,12.78,12.78,0,0,1,.58-4.36c.93-3,3.45-4.64,6.8-4.64s5.87,1.69,6.8,4.64a12.78,12.78,0,0,1,.58,4.36,12.85,12.85,0,0,1-.58,4.39c-.93,2.92-3.45,4.64-6.8,4.64S150.33,23.15,149.4,20.23Zm10.69-.86a11.32,11.32,0,0,0,.39-3.53,11,11,0,0,0-.39-3.49,4.15,4.15,0,0,0-7.78,0,11,11,0,0,0-.39,3.49,11.32,11.32,0,0,0,.39,3.53,4.16,4.16,0,0,0,7.78,0Z"/><path class="cls-1" d="M186.44,24.48a.34.34,0,0,1-.36-.36V22.46h0c-.82,1.37-2.3,2.41-4.89,2.41-3,0-5.08-1.4-5.94-4.14a14.25,14.25,0,0,1-.61-4.89,14.2,14.2,0,0,1,.61-4.86c.86-2.74,2.95-4.14,5.94-4.14,2.59,0,4.07,1,4.89,2.37h0V.36a.34.34,0,0,1,.36-.36h2.3a.34.34,0,0,1,.36.36V24.12a.34.34,0,0,1-.36.36Zm-.76-5a11,11,0,0,0,.4-3.6,11.12,11.12,0,0,0-.4-3.6,4.08,4.08,0,0,0-7.59,0,12.15,12.15,0,0,0-.4,3.6,11.89,11.89,0,0,0,.4,3.6,4.06,4.06,0,0,0,7.59,0Z"/><path class="cls-1" d="M193.82,20.19a13.43,13.43,0,0,1-.58-4.35,13.43,13.43,0,0,1,.54-4.36,7.26,7.26,0,0,1,13.54,0,15.08,15.08,0,0,1,.54,4.93.35.35,0,0,1-.4.36h-10.9a.2.2,0,0,0-.22.22,6.47,6.47,0,0,0,.29,2.09,4.25,4.25,0,0,0,4.35,3,5.61,5.61,0,0,0,4.43-1.9c.18-.18.36-.22.54-.07l1.48,1.33a.31.31,0,0,1,0,.5,8.38,8.38,0,0,1-6.73,2.95C197.24,24.87,194.76,23.18,193.82,20.19Zm10.73-5.83a.19.19,0,0,0,.21-.21,6.08,6.08,0,0,0-.25-2,4.25,4.25,0,0,0-7.92,0,6.08,6.08,0,0,0-.25,2c0,.14.07.21.22.21Z"/><path class="cls-1" d="M224.06,24.66c-3,0-4.21-1.44-4.21-4.54V.36a.34.34,0,0,1,.36-.36h2.3a.34.34,0,0,1,.36.36V19.94c0,1.44.54,1.91,1.73,1.91h.68a.34.34,0,0,1,.36.36V24.3a.34.34,0,0,1-.36.36Z"/><path class="cls-1" d="M228.7,20.23a13.14,13.14,0,0,1-.57-4.39,13.07,13.07,0,0,1,.57-4.36c.94-3,3.46-4.64,6.81-4.64s5.86,1.69,6.8,4.64a12.78,12.78,0,0,1,.58,4.36,12.85,12.85,0,0,1-.58,4.39,7.31,7.31,0,0,1-13.61,0Zm10.69-.86a11.27,11.27,0,0,0,.4-3.53,10.91,10.91,0,0,0-.4-3.49,4.15,4.15,0,0,0-7.77,0,10.91,10.91,0,0,0-.4,3.49,11.27,11.27,0,0,0,.4,3.53,4.15,4.15,0,0,0,7.77,0Z"/><path class="cls-1" d="M245.84,22.28a.35.35,0,0,1,0-.5l1.47-1.59a.36.36,0,0,1,.51,0,8.34,8.34,0,0,0,5.33,2c2.52,0,3.78-1.08,3.78-2.62,0-1.37-.65-2.13-3.35-2.42L251.74,17c-3.38-.36-5.15-2-5.15-4.86,0-3.27,2.34-5.25,6.41-5.25a10.32,10.32,0,0,1,6.12,1.91.34.34,0,0,1,.07.5L258,10.8a.35.35,0,0,1-.5.07,9.09,9.09,0,0,0-4.65-1.4c-2.16,0-3.27,1-3.27,2.37s.82,2.09,3.38,2.34l1.8.18c3.49.33,5.18,2.09,5.18,4.86,0,3.38-2.44,5.65-6.94,5.65A10.73,10.73,0,0,1,245.84,22.28Z"/><path class="cls-1" d="M271.94.36A.34.34,0,0,1,272.3,0H287a.34.34,0,0,1,.36.36V2.63A.34.34,0,0,1,287,3H275.36c-.15,0-.22.07-.22.21v7.2a.19.19,0,0,0,.22.22h9.9a.34.34,0,0,1,.36.36v2.27a.35.35,0,0,1-.36.36h-9.9c-.15,0-.22.07-.22.21v7.45a.19.19,0,0,0,.22.22H287a.34.34,0,0,1,.36.36v2.27a.34.34,0,0,1-.36.36H272.3a.34.34,0,0,1-.36-.36Z"/><path class="cls-1" d="M291.85,24.48a.34.34,0,0,1-.36-.36V.36a.34.34,0,0,1,.36-.36h8.71c4.71,0,7.77,2.88,7.77,7.31s-3.06,7.3-7.77,7.3h-5.65a.2.2,0,0,0-.22.22v9.29a.34.34,0,0,1-.36.36ZM305.16,7.31c0-2.67-1.76-4.32-4.78-4.32h-5.47c-.15,0-.22.07-.22.21v8.21a.2.2,0,0,0,.22.22h5.47C303.4,11.63,305.16,10,305.16,7.31Z"/><path class="cls-1" d="M312.44,24.48a.34.34,0,0,1-.36-.36V.36a.34.34,0,0,1,.36-.36h8.71c4.71,0,7.77,2.88,7.77,7.31s-3.06,7.3-7.77,7.3H315.5a.2.2,0,0,0-.22.22v9.29a.34.34,0,0,1-.36.36ZM325.76,7.31C325.76,4.64,324,3,321,3H315.5c-.15,0-.22.07-.22.21v8.21a.2.2,0,0,0,.22.22H321C324,11.63,325.76,10,325.76,7.31Z"/><path class="cls-1" d="M340.88,24.48a.34.34,0,0,1-.36-.36V7.59a.34.34,0,0,1,.36-.36h2.3a.34.34,0,0,1,.36.36V9.36h0a4.78,4.78,0,0,1,4.57-2.52,5.32,5.32,0,0,1,3.53,1.29c.18.18.21.33.07.51l-1.33,1.76a.33.33,0,0,1-.51.07,4.86,4.86,0,0,0-2.66-.82c-2.63,0-3.71,2-3.71,5v9.43a.34.34,0,0,1-.36.36Z"/><path class="cls-1" d="M353.44,20.19a13.48,13.48,0,0,1-.57-4.35,13.16,13.16,0,0,1,.54-4.36,7.25,7.25,0,0,1,13.53,0,15.08,15.08,0,0,1,.54,4.93.35.35,0,0,1-.4.36h-10.9A.2.2,0,0,0,356,17a6.47,6.47,0,0,0,.29,2.09,4.25,4.25,0,0,0,4.35,3,5.61,5.61,0,0,0,4.43-1.9c.18-.18.36-.22.54-.07l1.48,1.33a.31.31,0,0,1,0,.5,8.35,8.35,0,0,1-6.73,2.95C356.86,24.87,354.38,23.18,353.44,20.19Zm10.73-5.83a.19.19,0,0,0,.21-.21,6.08,6.08,0,0,0-.25-2,4.25,4.25,0,0,0-7.92,0,6.08,6.08,0,0,0-.25,2c0,.14.07.21.22.21Z"/><path class="cls-1" d="M382.42,31a.34.34,0,0,1-.36-.36V22.46h0c-.82,1.37-2.3,2.41-4.89,2.41-3,0-5.08-1.4-5.94-4.14a14.25,14.25,0,0,1-.61-4.89,14.2,14.2,0,0,1,.61-4.86c.86-2.74,2.95-4.14,5.94-4.14,2.59,0,4.07,1,4.89,2.37h0V7.59a.34.34,0,0,1,.36-.36h2.3a.34.34,0,0,1,.36.36v23a.34.34,0,0,1-.36.36Zm-.76-11.52a11,11,0,0,0,.4-3.6,11.12,11.12,0,0,0-.4-3.6,4.08,4.08,0,0,0-7.59,0,12.15,12.15,0,0,0-.4,3.6,11.89,11.89,0,0,0,.4,3.6,4.06,4.06,0,0,0,7.59,0Z"/><path class="cls-1" d="M401.1,24.48a.35.35,0,0,1-.36-.36V22.5h0A5.26,5.26,0,0,1,396,24.87c-3.78,0-6-2.59-6-6.51V7.59a.34.34,0,0,1,.36-.36h2.3a.34.34,0,0,1,.36.36V17.64c0,2.81,1.26,4.42,3.82,4.42,2.34,0,3.88-1.65,3.88-4.24V7.59a.35.35,0,0,1,.36-.36h2.31a.35.35,0,0,1,.36.36V24.12a.35.35,0,0,1-.36.36Z"/><path class="cls-1" d="M408.48,20.19a13.48,13.48,0,0,1-.57-4.35,13.43,13.43,0,0,1,.54-4.36,7.25,7.25,0,0,1,13.53,0,15.08,15.08,0,0,1,.54,4.93.35.35,0,0,1-.39.36H411.22A.2.2,0,0,0,411,17a6.47,6.47,0,0,0,.29,2.09,4.26,4.26,0,0,0,4.36,3,5.6,5.6,0,0,0,4.42-1.9c.18-.18.36-.22.54-.07l1.48,1.33a.32.32,0,0,1,0,.5,8.38,8.38,0,0,1-6.73,2.95C411.9,24.87,409.42,23.18,408.48,20.19Zm10.73-5.83a.19.19,0,0,0,.22-.21,6.05,6.05,0,0,0-.26-2,4.25,4.25,0,0,0-7.91,0,6.05,6.05,0,0,0-.26,2,.19.19,0,0,0,.22.21Z"/><path class="cls-1" d="M427,24.48a.35.35,0,0,1-.36-.36V7.59a.35.35,0,0,1,.36-.36h2.31a.35.35,0,0,1,.36.36V9.36h0a4.8,4.8,0,0,1,4.57-2.52,5.3,5.3,0,0,1,3.53,1.29c.18.18.22.33.07.51l-1.33,1.76a.32.32,0,0,1-.5.07,4.89,4.89,0,0,0-2.66-.82c-2.63,0-3.71,2-3.71,5v9.43a.35.35,0,0,1-.36.36Z"/><path class="cls-1" d="M441,3.35a.35.35,0,0,1-.36-.36V.36A.34.34,0,0,1,441,0h2.45a.34.34,0,0,1,.36.36V3a.34.34,0,0,1-.36.36Zm.07,21.13a.35.35,0,0,1-.36-.36V7.59a.35.35,0,0,1,.36-.36h2.31a.35.35,0,0,1,.36.36V24.12a.35.35,0,0,1-.36.36Z"/><path class="cls-1" d="M459.71,24.48a.34.34,0,0,1-.36-.36V22.46h0c-.82,1.37-2.3,2.41-4.89,2.41-3,0-5.08-1.4-5.94-4.14a14.25,14.25,0,0,1-.61-4.89,14.2,14.2,0,0,1,.61-4.86c.86-2.74,2.95-4.14,5.94-4.14,2.59,0,4.07,1,4.89,2.37h0V.36a.34.34,0,0,1,.36-.36H462a.34.34,0,0,1,.36.36V24.12a.34.34,0,0,1-.36.36Zm-.76-5a11,11,0,0,0,.4-3.6,11.12,11.12,0,0,0-.4-3.6,4.08,4.08,0,0,0-7.59,0,12.15,12.15,0,0,0-.4,3.6,11.89,11.89,0,0,0,.4,3.6,4.06,4.06,0,0,0,7.59,0Z"/><path class="cls-1" d="M467.09,20.23a12.85,12.85,0,0,1-.58-4.39,12.78,12.78,0,0,1,.58-4.36c.94-3,3.46-4.64,6.8-4.64s5.87,1.69,6.81,4.64a13.07,13.07,0,0,1,.57,4.36,13.14,13.14,0,0,1-.57,4.39,7.31,7.31,0,0,1-13.61,0Zm10.69-.86a11.27,11.27,0,0,0,.4-3.53,10.91,10.91,0,0,0-.4-3.49,4.15,4.15,0,0,0-7.77,0,10.91,10.91,0,0,0-.4,3.49,11.27,11.27,0,0,0,.4,3.53,4.15,4.15,0,0,0,7.77,0Z"/><path class="cls-1" d="M484.23,22.28a.33.33,0,0,1,0-.5l1.47-1.59a.36.36,0,0,1,.51,0,8.34,8.34,0,0,0,5.32,2c2.52,0,3.78-1.08,3.78-2.62,0-1.37-.64-2.13-3.34-2.42L490.13,17c-3.38-.36-5.15-2-5.15-4.86,0-3.27,2.34-5.25,6.41-5.25a10.32,10.32,0,0,1,6.12,1.91.34.34,0,0,1,.07.5l-1.22,1.55a.36.36,0,0,1-.51.07,9.06,9.06,0,0,0-4.64-1.4c-2.16,0-3.28,1-3.28,2.37s.83,2.09,3.39,2.34l1.8.18c3.49.33,5.18,2.09,5.18,4.86,0,3.38-2.45,5.65-6.95,5.65A10.72,10.72,0,0,1,484.23,22.28Z"/><path class="cls-1" d="M510.61,31a.35.35,0,0,1-.36-.36v-23a.35.35,0,0,1,.36-.36h2.31a.35.35,0,0,1,.36.36V9.21h0c.83-1.36,2.31-2.37,4.9-2.37,3,0,5.07,1.4,5.94,4.14a14.2,14.2,0,0,1,.61,4.86,14.25,14.25,0,0,1-.61,4.89c-.87,2.74-2.95,4.14-5.94,4.14-2.59,0-4.07-1-4.9-2.41h0V30.6a.35.35,0,0,1-.36.36Zm10.66-11.52a11.94,11.94,0,0,0,.39-3.6,12.2,12.2,0,0,0-.39-3.6,4.08,4.08,0,0,0-7.6,0,11.18,11.18,0,0,0-.39,3.6,11.06,11.06,0,0,0,.39,3.6,4.07,4.07,0,0,0,7.6,0Z"/><path class="cls-1" d="M539.34,24.48a.34.34,0,0,1-.36-.36V22.6h0c-.79,1.3-2.48,2.27-5.11,2.27-3.27,0-5.79-1.69-5.79-5.18,0-3.64,2.52-5.33,6.73-5.33h3.92c.15,0,.22-.07.22-.21V12.89c0-2.38-.94-3.39-4.14-3.39a6.73,6.73,0,0,0-4.18,1.23.32.32,0,0,1-.5,0l-1-1.66a.37.37,0,0,1,.07-.5,9.56,9.56,0,0,1,5.87-1.69c4.89,0,6.76,1.62,6.76,5.87V24.12a.34.34,0,0,1-.36.36Zm-.43-5.58V17a.2.2,0,0,0-.22-.22h-3.45c-3,0-4.29.87-4.29,2.81,0,1.77,1.3,2.7,3.6,2.7C537.25,22.28,538.91,21,538.91,18.9Z"/><path class="cls-1" d="M547.22,24.48a.34.34,0,0,1-.35-.36V7.59a.34.34,0,0,1,.35-.36h2.31a.34.34,0,0,1,.36.36V9.36h0a4.81,4.81,0,0,1,4.58-2.52A5.29,5.29,0,0,1,558,8.13c.18.18.22.33.08.51l-1.34,1.76a.32.32,0,0,1-.5.07,4.89,4.89,0,0,0-2.66-.82c-2.63,0-3.71,2-3.71,5v9.43a.34.34,0,0,1-.36.36Z"/><path class="cls-1" d="M570.48,24.48a.34.34,0,0,1-.36-.36V22.6h0c-.79,1.3-2.48,2.27-5.11,2.27-3.27,0-5.79-1.69-5.79-5.18,0-3.64,2.52-5.33,6.73-5.33h3.92c.15,0,.22-.07.22-.21V12.89c0-2.38-.94-3.39-4.14-3.39a6.71,6.71,0,0,0-4.18,1.23.32.32,0,0,1-.5,0l-1-1.66a.37.37,0,0,1,.07-.5,9.56,9.56,0,0,1,5.87-1.69c4.89,0,6.76,1.62,6.76,5.87V24.12a.34.34,0,0,1-.36.36Zm-.43-5.58V17a.2.2,0,0,0-.22-.22h-3.45c-3,0-4.29.87-4.29,2.81,0,1.77,1.3,2.7,3.6,2.7C568.39,22.28,570.05,21,570.05,18.9Z"/><path class="cls-1" d="M590.06,24.66c-3,0-4.21-1.44-4.21-4.54V.36a.34.34,0,0,1,.36-.36h2.31a.34.34,0,0,1,.36.36V19.94c0,1.44.54,1.91,1.72,1.91h.69a.34.34,0,0,1,.36.36V24.3a.35.35,0,0,1-.36.36Z"/><path class="cls-1" d="M605.62,24.48a.35.35,0,0,1-.37-.36V22.6h0c-.79,1.3-2.48,2.27-5.11,2.27-3.28,0-5.8-1.69-5.8-5.18,0-3.64,2.52-5.33,6.73-5.33H605a.19.19,0,0,0,.21-.21V12.89c0-2.38-.93-3.39-4.14-3.39a6.7,6.7,0,0,0-4.17,1.23.33.33,0,0,1-.51,0l-1-1.66a.38.38,0,0,1,.07-.5,9.58,9.58,0,0,1,5.87-1.69c4.9,0,6.77,1.62,6.77,5.87V24.12a.35.35,0,0,1-.36.36Zm-.44-5.58V17a.19.19,0,0,0-.21-.22h-3.46c-3,0-4.28.87-4.28,2.81,0,1.77,1.29,2.7,3.6,2.7C603.53,22.28,605.18,21,605.18,18.9Z"/><path class="cls-1" d="M4.21,62.66c-3,0-4.21-1.44-4.21-4.54V38.36A.34.34,0,0,1,.36,38h2.3a.34.34,0,0,1,.36.36V57.94c0,1.44.54,1.91,1.73,1.91h.69a.34.34,0,0,1,.36.36V62.3a.35.35,0,0,1-.36.36Z"/><path class="cls-1" d="M19.76,62.48a.35.35,0,0,1-.36-.36V60.6h0c-.79,1.3-2.49,2.27-5.12,2.27-3.27,0-5.79-1.69-5.79-5.18s2.52-5.33,6.73-5.33h3.92c.15,0,.22-.07.22-.21V50.89c0-2.38-.94-3.39-4.14-3.39A6.68,6.68,0,0,0,11,48.73a.33.33,0,0,1-.51,0L9.54,47a.38.38,0,0,1,.07-.5,9.56,9.56,0,0,1,5.87-1.69c4.89,0,6.77,1.62,6.77,5.87V62.12a.35.35,0,0,1-.36.36Zm-.43-5.58V55a.2.2,0,0,0-.22-.22H15.66c-3,0-4.28.87-4.28,2.81,0,1.77,1.29,2.7,3.6,2.7C17.67,60.28,19.33,59,19.33,56.9Z"/><path class="cls-1" d="M27.65,62.48a.34.34,0,0,1-.36-.36V38.36a.34.34,0,0,1,.36-.36H30a.34.34,0,0,1,.36.36v8.85h0c.82-1.36,2.3-2.37,4.89-2.37,3,0,5.08,1.4,5.94,4.14a14.2,14.2,0,0,1,.61,4.86,14.25,14.25,0,0,1-.61,4.89c-.86,2.74-3,4.14-5.94,4.14-2.59,0-4.07-1-4.89-2.41h0v1.66a.34.34,0,0,1-.36.36Zm10.65-5a11.89,11.89,0,0,0,.4-3.6,12.15,12.15,0,0,0-.4-3.6,3.65,3.65,0,0,0-3.78-2.59,3.65,3.65,0,0,0-3.81,2.59,11.12,11.12,0,0,0-.4,3.6,11,11,0,0,0,.4,3.6,3.68,3.68,0,0,0,3.81,2.62A3.68,3.68,0,0,0,38.3,57.44Z"/><path class="cls-1" d="M45.47,58.23a12.85,12.85,0,0,1-.58-4.39,12.78,12.78,0,0,1,.58-4.36c.93-2.95,3.45-4.64,6.8-4.64s5.87,1.69,6.8,4.64a12.78,12.78,0,0,1,.58,4.36,12.85,12.85,0,0,1-.58,4.39c-.93,2.92-3.45,4.64-6.8,4.64S46.4,61.15,45.47,58.23Zm10.69-.86a11.32,11.32,0,0,0,.39-3.53,11,11,0,0,0-.39-3.49,4.15,4.15,0,0,0-7.78,0A11.26,11.26,0,0,0,48,53.84a11.63,11.63,0,0,0,.39,3.53,4.16,4.16,0,0,0,7.78,0Z"/><path class="cls-1" d="M64.15,62.48a.35.35,0,0,1-.36-.36V45.59a.35.35,0,0,1,.36-.36h2.31a.35.35,0,0,1,.36.36v1.77h0a4.8,4.8,0,0,1,4.57-2.52A5.3,5.3,0,0,1,75,46.13c.18.18.22.33.07.51L73.69,48.4a.32.32,0,0,1-.5.07,4.92,4.92,0,0,0-2.67-.82c-2.62,0-3.7,2.05-3.7,5v9.43a.35.35,0,0,1-.36.36Z"/><path class="cls-1" d="M75.35,58.66h2.52a.35.35,0,0,1,.36.36v3.35a1.14,1.14,0,0,1-.22.79l-2.23,3a.56.56,0,0,1-.47.25A.32.32,0,0,1,75,66V59A.34.34,0,0,1,75.35,58.66Z"/><path class="cls-1" d="M90.29,69a.34.34,0,0,1-.36-.36V66.51a.34.34,0,0,1,.36-.36h.64c1.41,0,2.16-.61,2.92-2.59L94.43,62,88.09,45.59c-.07-.21,0-.36.29-.36H90.9a.42.42,0,0,1,.43.36l4.54,12.46h.07l4.35-12.46a.43.43,0,0,1,.44-.36h2.44c.22,0,.36.15.29.36l-6.8,18.22C95.15,67.88,93.81,69,91.22,69Z"/><path class="cls-1" d="M114,49.48a6.68,6.68,0,0,1,6.8-4.64,6.94,6.94,0,0,1,5.91,2.91c.11.18.11.33-.11.51L125,49.55a.31.31,0,0,1-.5,0,4.24,4.24,0,0,0-3.71-1.87,3.74,3.74,0,0,0-3.85,2.7,11.44,11.44,0,0,0-.39,3.49,11.56,11.56,0,0,0,.39,3.53,3.74,3.74,0,0,0,3.85,2.69,4.24,4.24,0,0,0,3.71-1.87.31.31,0,0,1,.5,0l1.59,1.29c.22.18.22.33.11.51a6.92,6.92,0,0,1-5.91,2.91c-3.31,0-5.83-1.65-6.8-4.64a15,15,0,0,1-.54-4.39A15,15,0,0,1,114,49.48Z"/><path class="cls-1" d="M141.62,62.48a.34.34,0,0,1-.36-.36V60.5h0a5.23,5.23,0,0,1-4.71,2.37c-3.78,0-6-2.59-6-6.51V45.59a.35.35,0,0,1,.36-.36h2.31a.35.35,0,0,1,.36.36v10c0,2.81,1.26,4.42,3.81,4.42,2.34,0,3.89-1.65,3.89-4.24V45.59a.34.34,0,0,1,.36-.36h2.3a.34.34,0,0,1,.36.36V62.12a.34.34,0,0,1-.36.36Z"/><path class="cls-1" d="M171.5,62.48a.34.34,0,0,1-.36-.36V52c0-2.77-1.26-4.39-3.85-4.39a3.88,3.88,0,0,0-4,4.21V62.12a.35.35,0,0,1-.36.36h-2.31a.35.35,0,0,1-.36-.36V52c0-2.77-1.26-4.39-3.85-4.39a3.87,3.87,0,0,0-4,4.21V62.12a.34.34,0,0,1-.36.36h-2.3a.34.34,0,0,1-.36-.36V45.59a.34.34,0,0,1,.36-.36h2.3a.34.34,0,0,1,.36.36v1.59h0a6.09,6.09,0,0,1,9.86.36h0a6.41,6.41,0,0,1,5.58-2.7c4,0,6.15,2.55,6.15,6.48v10.8a.34.34,0,0,1-.36.36Z"/><path class="cls-1" d="M179.53,69a.34.34,0,0,1-.36-.36v-23a.34.34,0,0,1,.36-.36h2.3a.34.34,0,0,1,.36.36v1.62h0c.83-1.36,2.3-2.37,4.89-2.37,3,0,5.08,1.4,5.94,4.14a14.2,14.2,0,0,1,.61,4.86,14.25,14.25,0,0,1-.61,4.89c-.86,2.74-2.95,4.14-5.94,4.14-2.59,0-4.06-1-4.89-2.41h0V68.6a.34.34,0,0,1-.36.36Zm10.65-11.52a11.89,11.89,0,0,0,.4-3.6,12.15,12.15,0,0,0-.4-3.6,4.08,4.08,0,0,0-7.59,0,11.12,11.12,0,0,0-.4,3.6,11,11,0,0,0,.4,3.6,4.06,4.06,0,0,0,7.59,0Z"/><path class="cls-1" d="M202,62.66c-3,0-4.22-1.44-4.22-4.54V38.36a.34.34,0,0,1,.36-.36h2.31a.34.34,0,0,1,.36.36V57.94c0,1.44.54,1.91,1.73,1.91h.68a.34.34,0,0,1,.36.36V62.3a.34.34,0,0,1-.36.36Z"/><path class="cls-1" d="M217.51,62.48a.34.34,0,0,1-.36-.36V60.6h0c-.79,1.3-2.48,2.27-5.11,2.27-3.28,0-5.8-1.69-5.8-5.18s2.52-5.33,6.73-5.33h3.93a.19.19,0,0,0,.22-.21V50.89c0-2.38-.94-3.39-4.15-3.39a6.7,6.7,0,0,0-4.17,1.23c-.18.14-.4.14-.5,0l-1-1.66a.38.38,0,0,1,.08-.5,9.53,9.53,0,0,1,5.86-1.69c4.9,0,6.77,1.62,6.77,5.87V62.12a.34.34,0,0,1-.36.36Zm-.43-5.58V55a.2.2,0,0,0-.22-.22H213.4c-3,0-4.28.87-4.28,2.81,0,1.77,1.3,2.7,3.6,2.7C215.42,60.28,217.08,59,217.08,56.9Z"/><path class="cls-1" d="M237.09,62.66c-3,0-4.21-1.44-4.21-4.54V38.36a.34.34,0,0,1,.36-.36h2.3a.34.34,0,0,1,.36.36V57.94c0,1.44.54,1.91,1.73,1.91h.69a.33.33,0,0,1,.35.36V62.3a.34.34,0,0,1-.35.36Z"/><path class="cls-1" d="M241.74,58.23a12.85,12.85,0,0,1-.58-4.39,12.78,12.78,0,0,1,.58-4.36c.93-2.95,3.45-4.64,6.8-4.64s5.87,1.69,6.8,4.64a12.78,12.78,0,0,1,.58,4.36,12.85,12.85,0,0,1-.58,4.39c-.93,2.92-3.45,4.64-6.8,4.64S242.67,61.15,241.74,58.23Zm10.69-.86a11.63,11.63,0,0,0,.39-3.53,11.26,11.26,0,0,0-.39-3.49,4.15,4.15,0,0,0-7.78,0,10.91,10.91,0,0,0-.4,3.49,11.27,11.27,0,0,0,.4,3.53,4.16,4.16,0,0,0,7.78,0Z"/><path class="cls-1" d="M258.87,60.28a.35.35,0,0,1,0-.5l1.48-1.59a.35.35,0,0,1,.5,0,8.37,8.37,0,0,0,5.33,2c2.52,0,3.78-1.08,3.78-2.62,0-1.37-.65-2.13-3.35-2.42L264.77,55c-3.38-.36-5.14-2.05-5.14-4.86,0-3.27,2.34-5.25,6.4-5.25a10.32,10.32,0,0,1,6.12,1.91.35.35,0,0,1,.08.5L271,48.8a.35.35,0,0,1-.5.07,9.09,9.09,0,0,0-4.65-1.4c-2.16,0-3.27,1-3.27,2.37s.83,2.09,3.38,2.34l1.8.18c3.49.33,5.19,2.09,5.19,4.86,0,3.38-2.45,5.65-6.95,5.65A10.73,10.73,0,0,1,258.87,60.28Z"/><path class="cls-1" d="M285.26,69a.34.34,0,0,1-.36-.36v-23a.34.34,0,0,1,.36-.36h2.3a.34.34,0,0,1,.36.36v1.62h0c.83-1.36,2.3-2.37,4.89-2.37,3,0,5.08,1.4,5.94,4.14a14.2,14.2,0,0,1,.61,4.86,14.25,14.25,0,0,1-.61,4.89c-.86,2.74-3,4.14-5.94,4.14-2.59,0-4.06-1-4.89-2.41h0V68.6a.34.34,0,0,1-.36.36Zm10.65-11.52a11.89,11.89,0,0,0,.4-3.6,12.15,12.15,0,0,0-.4-3.6,4.08,4.08,0,0,0-7.59,0,11.12,11.12,0,0,0-.4,3.6,11,11,0,0,0,.4,3.6,4.06,4.06,0,0,0,7.59,0Z"/><path class="cls-1" d="M303.91,62.48a.34.34,0,0,1-.36-.36V45.59a.34.34,0,0,1,.36-.36h2.3a.34.34,0,0,1,.36.36v1.77h0a4.78,4.78,0,0,1,4.57-2.52,5.29,5.29,0,0,1,3.52,1.29c.18.18.22.33.08.51l-1.34,1.76a.32.32,0,0,1-.5.07,4.86,4.86,0,0,0-2.66-.82c-2.63,0-3.71,2.05-3.71,5v9.43a.34.34,0,0,1-.36.36Z"/><path class="cls-1" d="M316.47,58.23a12.85,12.85,0,0,1-.58-4.39,12.78,12.78,0,0,1,.58-4.36c.94-2.95,3.46-4.64,6.8-4.64s5.87,1.69,6.81,4.64a13.07,13.07,0,0,1,.57,4.36,13.14,13.14,0,0,1-.57,4.39,7.31,7.31,0,0,1-13.61,0Zm10.69-.86a11.27,11.27,0,0,0,.4-3.53,10.91,10.91,0,0,0-.4-3.49,4.15,4.15,0,0,0-7.77,0,10.91,10.91,0,0,0-.4,3.49,11.27,11.27,0,0,0,.4,3.53,4.15,4.15,0,0,0,7.77,0Z"/><path class="cls-1" d="M339.8,62.66c-3.35,0-4.65-1.51-4.65-4.9V47.9c0-.15-.07-.22-.21-.22H333.5a.34.34,0,0,1-.36-.36V45.59a.34.34,0,0,1,.36-.36h1.44a.19.19,0,0,0,.21-.21V40.16a.34.34,0,0,1,.36-.36h2.31a.34.34,0,0,1,.36.36V45a.19.19,0,0,0,.21.21h2.74a.35.35,0,0,1,.36.36v1.73a.34.34,0,0,1-.36.36h-2.74c-.14,0-.21.07-.21.22v9.75c0,1.73.65,2.2,2.19,2.2h.76a.34.34,0,0,1,.36.36V62.3a.35.35,0,0,1-.36.36Z"/><path class="cls-1" d="M345,58.23a12.89,12.89,0,0,1-.57-4.39,12.81,12.81,0,0,1,.57-4.36c.94-2.95,3.46-4.64,6.8-4.64s5.87,1.69,6.81,4.64a13.07,13.07,0,0,1,.57,4.36,13.14,13.14,0,0,1-.57,4.39,7.31,7.31,0,0,1-13.61,0Zm10.69-.86a11.27,11.27,0,0,0,.4-3.53,10.91,10.91,0,0,0-.4-3.49,4.15,4.15,0,0,0-7.77,0,10.91,10.91,0,0,0-.4,3.49,11.27,11.27,0,0,0,.4,3.53,4.15,4.15,0,0,0,7.77,0Z"/><path class="cls-1" d="M362.8,49.48a6.68,6.68,0,0,1,6.8-4.64,6.94,6.94,0,0,1,5.91,2.91c.11.18.11.33-.11.51l-1.58,1.29a.32.32,0,0,1-.51,0,4.24,4.24,0,0,0-3.71-1.87,3.74,3.74,0,0,0-3.85,2.7,11.44,11.44,0,0,0-.39,3.49,11.56,11.56,0,0,0,.39,3.53,3.74,3.74,0,0,0,3.85,2.69,4.24,4.24,0,0,0,3.71-1.87.32.32,0,0,1,.51,0l1.58,1.29c.22.18.22.33.11.51a6.92,6.92,0,0,1-5.91,2.91c-3.31,0-5.83-1.65-6.8-4.64a15,15,0,0,1-.54-4.39A15,15,0,0,1,362.8,49.48Z"/><path class="cls-1" d="M378.68,58.23a12.85,12.85,0,0,1-.58-4.39,12.78,12.78,0,0,1,.58-4.36c.93-2.95,3.45-4.64,6.8-4.64s5.87,1.69,6.8,4.64a12.78,12.78,0,0,1,.58,4.36,12.85,12.85,0,0,1-.58,4.39c-.93,2.92-3.45,4.64-6.8,4.64S379.61,61.15,378.68,58.23Zm10.69-.86a11.32,11.32,0,0,0,.39-3.53,11,11,0,0,0-.39-3.49,4.15,4.15,0,0,0-7.78,0,11,11,0,0,0-.39,3.49,11.32,11.32,0,0,0,.39,3.53,4.16,4.16,0,0,0,7.78,0Z"/><path class="cls-1" d="M401.14,62.66c-3,0-4.21-1.44-4.21-4.54V38.36a.34.34,0,0,1,.36-.36h2.3a.34.34,0,0,1,.36.36V57.94c0,1.44.54,1.91,1.73,1.91h.68a.34.34,0,0,1,.36.36V62.3a.34.34,0,0,1-.36.36Z"/><path class="cls-1" d="M405.78,58.23a13.14,13.14,0,0,1-.57-4.39,13.07,13.07,0,0,1,.57-4.36c.94-2.95,3.46-4.64,6.81-4.64s5.86,1.69,6.8,4.64a12.78,12.78,0,0,1,.58,4.36,12.85,12.85,0,0,1-.58,4.39,7.31,7.31,0,0,1-13.61,0Zm10.69-.86a11.27,11.27,0,0,0,.4-3.53,10.91,10.91,0,0,0-.4-3.49,4.15,4.15,0,0,0-7.77,0,10.91,10.91,0,0,0-.4,3.49,11.27,11.27,0,0,0,.4,3.53,4.15,4.15,0,0,0,7.77,0Z"/><path class="cls-1" d="M422.92,60.28a.35.35,0,0,1,0-.5l1.48-1.59a.35.35,0,0,1,.5,0,8.37,8.37,0,0,0,5.33,2c2.52,0,3.78-1.08,3.78-2.62,0-1.37-.65-2.13-3.35-2.42L428.82,55c-3.38-.36-5.14-2.05-5.14-4.86,0-3.27,2.34-5.25,6.4-5.25a10.32,10.32,0,0,1,6.12,1.91.34.34,0,0,1,.07.5l-1.22,1.55a.35.35,0,0,1-.5.07,9.09,9.09,0,0,0-4.65-1.4c-2.16,0-3.27,1-3.27,2.37s.83,2.09,3.38,2.34l1.8.18c3.49.33,5.18,2.09,5.18,4.86,0,3.38-2.44,5.65-6.94,5.65A10.73,10.73,0,0,1,422.92,60.28Z"/><path class="cls-1" d="M459.75,62.48a.34.34,0,0,1-.36-.36V60.46h0c-.83,1.37-2.3,2.41-4.9,2.41a5.71,5.71,0,0,1-5.94-4.14,14.5,14.5,0,0,1-.61-4.89,14.45,14.45,0,0,1,.61-4.86,5.71,5.71,0,0,1,5.94-4.14c2.6,0,4.07,1,4.9,2.37h0V38.36a.34.34,0,0,1,.36-.36h2.3a.34.34,0,0,1,.36.36V62.12a.34.34,0,0,1-.36.36Zm-.76-5a11,11,0,0,0,.4-3.6,11.12,11.12,0,0,0-.4-3.6,4.08,4.08,0,0,0-7.6,0,12.54,12.54,0,0,0-.39,3.6,12.28,12.28,0,0,0,.39,3.6,4.07,4.07,0,0,0,7.6,0Z"/><path class="cls-1" d="M467.13,58.19a13.43,13.43,0,0,1-.58-4.35,13.43,13.43,0,0,1,.54-4.36,7.26,7.26,0,0,1,13.54,0,15.08,15.08,0,0,1,.54,4.93.35.35,0,0,1-.4.36H469.86a.19.19,0,0,0-.21.22,6.5,6.5,0,0,0,.28,2.09,4.27,4.27,0,0,0,4.36,3,5.64,5.64,0,0,0,4.43-1.9c.18-.18.36-.22.54-.07l1.47,1.33a.32.32,0,0,1,0,.5A8.38,8.38,0,0,1,474,62.87C470.55,62.87,468.06,61.18,467.13,58.19Zm10.72-5.83c.15,0,.22-.07.22-.21a6.08,6.08,0,0,0-.25-1.95,4.25,4.25,0,0,0-7.92,0,6.08,6.08,0,0,0-.25,1.95.19.19,0,0,0,.21.21Z"/><path class="cls-1" d="M492,60.28a.33.33,0,0,1,0-.5l1.47-1.59a.36.36,0,0,1,.51,0,8.34,8.34,0,0,0,5.33,2c2.52,0,3.78-1.08,3.78-2.62,0-1.37-.65-2.13-3.35-2.42L497.94,55c-3.38-.36-5.15-2.05-5.15-4.86,0-3.27,2.34-5.25,6.41-5.25a10.32,10.32,0,0,1,6.12,1.91.34.34,0,0,1,.07.5l-1.22,1.55a.35.35,0,0,1-.5.07,9.09,9.09,0,0,0-4.65-1.4c-2.16,0-3.27,1-3.27,2.37s.82,2.09,3.38,2.34l1.8.18c3.49.33,5.18,2.09,5.18,4.86,0,3.38-2.44,5.65-6.94,5.65A10.73,10.73,0,0,1,492,60.28Z"/><path class="cls-1" d="M509.68,58.19a13.43,13.43,0,0,1-.58-4.35,13.43,13.43,0,0,1,.54-4.36,7.26,7.26,0,0,1,13.54,0,15.08,15.08,0,0,1,.54,4.93.35.35,0,0,1-.4.36H512.41a.19.19,0,0,0-.21.22,6.47,6.47,0,0,0,.29,2.09,4.25,4.25,0,0,0,4.35,3,5.64,5.64,0,0,0,4.43-1.9c.18-.18.36-.22.54-.07l1.47,1.33a.32.32,0,0,1,0,.5,8.38,8.38,0,0,1-6.73,2.95C513.1,62.87,510.61,61.18,509.68,58.19Zm10.73-5.83a.19.19,0,0,0,.21-.21,6.08,6.08,0,0,0-.25-1.95,4.25,4.25,0,0,0-7.92,0,6.08,6.08,0,0,0-.25,1.95.19.19,0,0,0,.21.21Z"/><path class="cls-1" d="M527.5,66.8a.33.33,0,0,1,0-.51L529,64.82a.34.34,0,0,1,.54,0,5.75,5.75,0,0,0,4.07,1.72c2.84,0,4.35-1.47,4.35-4.64v-2h0c-.8,1.44-2.27,2.37-4.79,2.37a5.65,5.65,0,0,1-5.8-4.17,13.6,13.6,0,0,1-.57-4.54,13.6,13.6,0,0,1,.57-4.54,5.65,5.65,0,0,1,5.8-4.17c2.52,0,4,.93,4.79,2.37h0V45.59a.35.35,0,0,1,.36-.36h2.31a.35.35,0,0,1,.36.36V61.72c0,4.9-2.67,7.63-7.53,7.63A7.78,7.78,0,0,1,527.5,66.8Zm10.08-9.9a10.77,10.77,0,0,0,.39-3.35,10.89,10.89,0,0,0-.39-3.35,3.89,3.89,0,0,0-7.31,0,10.78,10.78,0,0,0-.43,3.35,10.65,10.65,0,0,0,.43,3.35,3.51,3.51,0,0,0,3.64,2.59A3.58,3.58,0,0,0,537.58,56.9Z"/><path class="cls-1" d="M557,62.48a.34.34,0,0,1-.36-.36V60.5h0a5.25,5.25,0,0,1-4.72,2.37c-3.77,0-6-2.59-6-6.51V45.59a.34.34,0,0,1,.36-.36h2.3a.34.34,0,0,1,.36.36v10c0,2.81,1.26,4.42,3.82,4.42,2.34,0,3.89-1.65,3.89-4.24V45.59a.34.34,0,0,1,.36-.36h2.3a.34.34,0,0,1,.36.36V62.12a.34.34,0,0,1-.36.36Z"/><path class="cls-1" d="M565.22,62.48a.35.35,0,0,1-.36-.36V45.59a.35.35,0,0,1,.36-.36h2.31a.35.35,0,0,1,.36.36v1.77h0a4.81,4.81,0,0,1,4.58-2.52A5.29,5.29,0,0,1,576,46.13c.18.18.22.33.07.51l-1.33,1.76a.32.32,0,0,1-.5.07,4.89,4.89,0,0,0-2.66-.82c-2.63,0-3.71,2.05-3.71,5v9.43a.35.35,0,0,1-.36.36Z"/><path class="cls-1" d="M579.19,41.35a.35.35,0,0,1-.36-.36V38.36a.34.34,0,0,1,.36-.36h2.45a.34.34,0,0,1,.36.36V41a.34.34,0,0,1-.36.36Zm.07,21.13a.35.35,0,0,1-.36-.36V45.59a.35.35,0,0,1,.36-.36h2.31a.35.35,0,0,1,.36.36V62.12a.35.35,0,0,1-.36.36Z"/><path class="cls-1" d="M597.91,62.48a.34.34,0,0,1-.36-.36V60.46h0c-.82,1.37-2.3,2.41-4.89,2.41-3,0-5.08-1.4-5.94-4.14a14.25,14.25,0,0,1-.61-4.89,14.2,14.2,0,0,1,.61-4.86c.86-2.74,3-4.14,5.94-4.14,2.59,0,4.07,1,4.89,2.37h0V38.36a.34.34,0,0,1,.36-.36h2.3a.34.34,0,0,1,.36.36V62.12a.34.34,0,0,1-.36.36Zm-.76-5a11,11,0,0,0,.4-3.6,11.12,11.12,0,0,0-.4-3.6,4.08,4.08,0,0,0-7.59,0,12.15,12.15,0,0,0-.4,3.6,11.89,11.89,0,0,0,.4,3.6,4.06,4.06,0,0,0,7.59,0Z"/><path class="cls-1" d="M616.2,62.48a.34.34,0,0,1-.36-.36V60.6h0c-.79,1.3-2.48,2.27-5.11,2.27-3.27,0-5.79-1.69-5.79-5.18s2.52-5.33,6.73-5.33h3.92a.19.19,0,0,0,.22-.21V50.89c0-2.38-.94-3.39-4.14-3.39a6.71,6.71,0,0,0-4.18,1.23.32.32,0,0,1-.5,0L606,47a.37.37,0,0,1,.07-.5,9.54,9.54,0,0,1,5.87-1.69c4.89,0,6.76,1.62,6.76,5.87V62.12a.34.34,0,0,1-.36.36Zm-.43-5.58V55a.2.2,0,0,0-.22-.22h-3.46c-3,0-4.28.87-4.28,2.81,0,1.77,1.3,2.7,3.6,2.7C614.11,60.28,615.77,59,615.77,56.9Z"/><path class="cls-1" d="M634.52,62.48a.35.35,0,0,1-.36-.36V60.46h0c-.83,1.37-2.31,2.41-4.9,2.41-3,0-5.07-1.4-5.94-4.14a14.25,14.25,0,0,1-.61-4.89,14.2,14.2,0,0,1,.61-4.86c.87-2.74,3-4.14,5.94-4.14,2.59,0,4.07,1,4.9,2.37h0V38.36a.34.34,0,0,1,.36-.36h2.31a.34.34,0,0,1,.36.36V62.12a.35.35,0,0,1-.36.36Zm-.75-5a11.35,11.35,0,0,0,.39-3.6,11.47,11.47,0,0,0-.39-3.6,4.08,4.08,0,0,0-7.6,0,12.2,12.2,0,0,0-.39,3.6,11.94,11.94,0,0,0,.39,3.6,4.07,4.07,0,0,0,7.6,0Z"/><path class="cls-1" d="M26.35,96.19a13.48,13.48,0,0,1-.57-4.35,13.43,13.43,0,0,1,.54-4.36,6.67,6.67,0,0,1,6.76-4.64,6.68,6.68,0,0,1,6.77,4.64,15.08,15.08,0,0,1,.54,4.93c0,.22-.14.36-.4.36H29.09a.2.2,0,0,0-.22.22,6.47,6.47,0,0,0,.29,2.09,4.25,4.25,0,0,0,4.35,3,5.61,5.61,0,0,0,4.43-1.9c.18-.18.36-.22.54-.07L40,97.42a.31.31,0,0,1,0,.5,8.35,8.35,0,0,1-6.73,3C29.77,100.87,27.29,99.18,26.35,96.19Zm10.73-5.83a.19.19,0,0,0,.21-.21,6.08,6.08,0,0,0-.25-2,3.88,3.88,0,0,0-4-2.7,3.9,3.9,0,0,0-4,2.7,6.08,6.08,0,0,0-.25,2c0,.14.07.21.22.21Z"/><path class="cls-1" d="M43.34,98.28a.35.35,0,0,1,0-.5l1.48-1.59a.35.35,0,0,1,.5,0,8.37,8.37,0,0,0,5.33,2c2.52,0,3.78-1.08,3.78-2.62,0-1.37-.65-2.13-3.35-2.42L49.25,93c-3.39-.36-5.15-2-5.15-4.86,0-3.27,2.34-5.25,6.41-5.25a10.32,10.32,0,0,1,6.12,1.91.34.34,0,0,1,.07.5L55.47,86.8a.35.35,0,0,1-.5.07,9.09,9.09,0,0,0-4.64-1.4c-2.16,0-3.28,1-3.28,2.37s.83,2.09,3.38,2.34l1.8.18c3.5.33,5.19,2.09,5.19,4.86,0,3.38-2.45,5.65-7,5.65A10.75,10.75,0,0,1,43.34,98.28Z"/><path class="cls-1" d="M66.45,100.66c-3.34,0-4.64-1.51-4.64-4.9V85.9a.19.19,0,0,0-.22-.22H60.16a.34.34,0,0,1-.37-.36V83.59a.35.35,0,0,1,.37-.36h1.43c.15,0,.22-.07.22-.21V78.16a.34.34,0,0,1,.36-.36h2.3a.34.34,0,0,1,.36.36V83a.19.19,0,0,0,.22.21h2.74a.35.35,0,0,1,.36.36v1.73a.34.34,0,0,1-.36.36H65.05a.2.2,0,0,0-.22.22v9.75c0,1.73.65,2.2,2.2,2.2h.76a.34.34,0,0,1,.36.36v2.09a.35.35,0,0,1-.36.36Z"/><path class="cls-1" d="M82.54,100.48a.35.35,0,0,1-.36-.36V98.6h0c-.79,1.3-2.48,2.27-5.11,2.27-3.28,0-5.8-1.69-5.8-5.18s2.52-5.33,6.73-5.33H81.9a.19.19,0,0,0,.21-.21V88.89c0-2.38-.93-3.39-4.14-3.39a6.7,6.7,0,0,0-4.17,1.23.33.33,0,0,1-.51,0l-1-1.66a.38.38,0,0,1,.07-.5,9.58,9.58,0,0,1,5.87-1.69c4.9,0,6.77,1.62,6.77,5.87v11.41a.35.35,0,0,1-.36.36Zm-.43-5.58V93a.19.19,0,0,0-.21-.22H78.44c-3,0-4.28.87-4.28,2.81,0,1.77,1.29,2.7,3.6,2.7C80.46,98.28,82.11,97,82.11,94.9Z"/><path class="cls-1" d="M90.43,100.48a.34.34,0,0,1-.36-.36V76.36a.34.34,0,0,1,.36-.36h2.3a.34.34,0,0,1,.36.36v8.85h0c.83-1.36,2.3-2.37,4.9-2.37,3,0,5.07,1.4,5.93,4.14a14.17,14.17,0,0,1,.62,4.86,14.22,14.22,0,0,1-.62,4.89c-.86,2.74-2.95,4.14-5.93,4.14-2.6,0-4.07-1-4.9-2.41h0v1.66a.34.34,0,0,1-.36.36Zm10.65-5a11.89,11.89,0,0,0,.4-3.6,12.15,12.15,0,0,0-.4-3.6,4.08,4.08,0,0,0-7.59,0,11.12,11.12,0,0,0-.4,3.6,11,11,0,0,0,.4,3.6,4.06,4.06,0,0,0,7.59,0Z"/><path class="cls-1" d="M112.86,100.66c-3,0-4.21-1.44-4.21-4.54V76.36A.34.34,0,0,1,109,76h2.3a.34.34,0,0,1,.36.36V95.94c0,1.44.54,1.91,1.73,1.91h.68a.34.34,0,0,1,.36.36v2.09a.34.34,0,0,1-.36.36Z"/><path class="cls-1" d="M117.5,96.19a13.48,13.48,0,0,1-.57-4.35,13.43,13.43,0,0,1,.54-4.36,7.25,7.25,0,0,1,13.53,0,15.08,15.08,0,0,1,.54,4.93c0,.22-.14.36-.4.36h-10.9A.2.2,0,0,0,120,93a6.47,6.47,0,0,0,.29,2.09,4.25,4.25,0,0,0,4.36,3,5.6,5.6,0,0,0,4.42-1.9c.18-.18.36-.22.54-.07l1.48,1.33a.31.31,0,0,1,0,.5,8.35,8.35,0,0,1-6.73,3C120.92,100.87,118.44,99.18,117.5,96.19Zm10.73-5.83a.19.19,0,0,0,.21-.21,6.08,6.08,0,0,0-.25-2,4.25,4.25,0,0,0-7.92,0,6.08,6.08,0,0,0-.25,2c0,.14.07.21.22.21Z"/><path class="cls-1" d="M135.18,87.48a6.68,6.68,0,0,1,6.8-4.64,6.92,6.92,0,0,1,5.9,2.91.34.34,0,0,1-.1.51l-1.59,1.29a.31.31,0,0,1-.5,0A4.24,4.24,0,0,0,142,85.65a3.74,3.74,0,0,0-3.85,2.7,11.4,11.4,0,0,0-.4,3.49,11.52,11.52,0,0,0,.4,3.53A3.74,3.74,0,0,0,142,98.06a4.24,4.24,0,0,0,3.71-1.87.31.31,0,0,1,.5,0l1.59,1.29a.34.34,0,0,1,.1.51,6.9,6.9,0,0,1-5.9,2.91c-3.31,0-5.83-1.65-6.8-4.64a18,18,0,0,1,0-8.75Z"/><path class="cls-1" d="M152.24,79.35a.34.34,0,0,1-.36-.36V76.36a.34.34,0,0,1,.36-.36h2.45a.34.34,0,0,1,.36.36V79a.35.35,0,0,1-.36.36Zm.07,21.13a.35.35,0,0,1-.36-.36V83.59a.35.35,0,0,1,.36-.36h2.31a.35.35,0,0,1,.36.36v16.53a.35.35,0,0,1-.36.36Z"/><path class="cls-1" d="M171,100.48a.34.34,0,0,1-.36-.36V98.46h0c-.82,1.37-2.3,2.41-4.89,2.41-3,0-5.08-1.4-5.94-4.14a14.25,14.25,0,0,1-.61-4.89,14.2,14.2,0,0,1,.61-4.86c.86-2.74,3-4.14,5.94-4.14,2.59,0,4.07,1,4.89,2.37h0V76.36A.34.34,0,0,1,171,76h2.3a.34.34,0,0,1,.36.36v23.76a.34.34,0,0,1-.36.36Zm-.76-5a11,11,0,0,0,.4-3.6,11.12,11.12,0,0,0-.4-3.6,4.08,4.08,0,0,0-7.59,0,12.15,12.15,0,0,0-.4,3.6,11.89,11.89,0,0,0,.4,3.6,4.06,4.06,0,0,0,7.59,0Z"/><path class="cls-1" d="M178.34,96.23a12.85,12.85,0,0,1-.58-4.39,12.78,12.78,0,0,1,.58-4.36c.94-3,3.46-4.64,6.8-4.64S191,84.53,192,87.48a13.07,13.07,0,0,1,.57,4.36,13.14,13.14,0,0,1-.57,4.39,7.31,7.31,0,0,1-13.61,0ZM189,95.37a11.27,11.27,0,0,0,.4-3.53,10.91,10.91,0,0,0-.4-3.49,4.15,4.15,0,0,0-7.77,0,10.91,10.91,0,0,0-.4,3.49,11.27,11.27,0,0,0,.4,3.53,4.15,4.15,0,0,0,7.77,0Z"/><path class="cls-1" d="M195.48,98.28a.33.33,0,0,1,0-.5L197,96.19a.36.36,0,0,1,.51,0,8.34,8.34,0,0,0,5.32,2c2.52,0,3.78-1.08,3.78-2.62,0-1.37-.65-2.13-3.35-2.42L201.38,93c-3.38-.36-5.15-2-5.15-4.86,0-3.27,2.34-5.25,6.41-5.25a10.32,10.32,0,0,1,6.12,1.91.34.34,0,0,1,.07.5l-1.22,1.55a.36.36,0,0,1-.51.07,9.06,9.06,0,0,0-4.64-1.4c-2.16,0-3.28,1-3.28,2.37s.83,2.09,3.39,2.34l1.8.18c3.49.33,5.18,2.09,5.18,4.86,0,3.38-2.45,5.65-7,5.65A10.7,10.7,0,0,1,195.48,98.28Z"/><path class="cls-1" d="M221.86,107a.35.35,0,0,1-.36-.36v-23a.35.35,0,0,1,.36-.36h2.31a.35.35,0,0,1,.36.36v1.62h0c.83-1.36,2.31-2.37,4.9-2.37,3,0,5.07,1.4,5.94,4.14a14.45,14.45,0,0,1,.61,4.86,14.5,14.5,0,0,1-.61,4.89c-.87,2.74-3,4.14-5.94,4.14-2.59,0-4.07-1-4.9-2.41h0v8.14a.35.35,0,0,1-.36.36Zm10.66-11.52a11.94,11.94,0,0,0,.39-3.6,12.2,12.2,0,0,0-.39-3.6,4.08,4.08,0,0,0-7.6,0,11.18,11.18,0,0,0-.39,3.6,11.06,11.06,0,0,0,.39,3.6,4.07,4.07,0,0,0,7.6,0Z"/><path class="cls-1" d="M250.59,100.48a.34.34,0,0,1-.36-.36V98.6h0c-.79,1.3-2.48,2.27-5.11,2.27-3.27,0-5.79-1.69-5.79-5.18s2.52-5.33,6.73-5.33h3.92a.19.19,0,0,0,.22-.21V88.89c0-2.38-.94-3.39-4.14-3.39a6.71,6.71,0,0,0-4.18,1.23.32.32,0,0,1-.5,0l-1-1.66a.37.37,0,0,1,.07-.5,9.54,9.54,0,0,1,5.87-1.69c4.89,0,6.76,1.62,6.76,5.87v11.41a.34.34,0,0,1-.36.36Zm-.43-5.58V93a.2.2,0,0,0-.22-.22h-3.45c-3,0-4.29.87-4.29,2.81,0,1.77,1.3,2.7,3.6,2.7C248.5,98.28,250.16,97,250.16,94.9Z"/><path class="cls-1" d="M258.47,100.48a.35.35,0,0,1-.36-.36V83.59a.35.35,0,0,1,.36-.36h2.31a.35.35,0,0,1,.36.36v1.77h0a4.81,4.81,0,0,1,4.58-2.52,5.29,5.29,0,0,1,3.52,1.29c.18.18.22.33.07.51L268,86.4a.32.32,0,0,1-.5.07,4.89,4.89,0,0,0-2.66-.82c-2.63,0-3.71,2-3.71,5v9.43a.35.35,0,0,1-.36.36Z"/><path class="cls-1" d="M281.73,100.48a.34.34,0,0,1-.36-.36V98.6h0c-.79,1.3-2.48,2.27-5.11,2.27-3.27,0-5.79-1.69-5.79-5.18s2.52-5.33,6.73-5.33h3.92c.15,0,.22-.07.22-.21V88.89c0-2.38-.94-3.39-4.14-3.39A6.71,6.71,0,0,0,273,86.73a.32.32,0,0,1-.5,0l-1-1.66a.37.37,0,0,1,.07-.5,9.54,9.54,0,0,1,5.87-1.69c4.89,0,6.76,1.62,6.76,5.87v11.41a.34.34,0,0,1-.36.36Zm-.43-5.58V93a.2.2,0,0,0-.22-.22h-3.45c-3,0-4.29.87-4.29,2.81,0,1.77,1.3,2.7,3.6,2.7C279.64,98.28,281.3,97,281.3,94.9Z"/><path class="cls-1" d="M302.18,100.66c-3.35,0-4.65-1.51-4.65-4.9V85.9c0-.15-.07-.22-.21-.22h-1.44a.34.34,0,0,1-.36-.36V83.59a.34.34,0,0,1,.36-.36h1.44a.19.19,0,0,0,.21-.21V78.16a.34.34,0,0,1,.36-.36h2.31a.34.34,0,0,1,.36.36V83a.19.19,0,0,0,.21.21h2.74a.34.34,0,0,1,.36.36v1.73a.34.34,0,0,1-.36.36h-2.74c-.14,0-.21.07-.21.22v9.75c0,1.73.65,2.2,2.19,2.2h.76a.34.34,0,0,1,.36.36v2.09a.34.34,0,0,1-.36.36Z"/><path class="cls-1" d="M308.19,100.48a.34.34,0,0,1-.36-.36V83.59a.34.34,0,0,1,.36-.36h2.3a.34.34,0,0,1,.36.36v1.77h0a4.8,4.8,0,0,1,4.57-2.52A5.32,5.32,0,0,1,319,84.13c.18.18.21.33.07.51l-1.33,1.76a.33.33,0,0,1-.51.07,4.86,4.86,0,0,0-2.66-.82c-2.63,0-3.71,2-3.71,5v9.43a.34.34,0,0,1-.36.36Z"/><path class="cls-1" d="M331.44,100.48a.35.35,0,0,1-.36-.36V98.6h0c-.79,1.3-2.49,2.27-5.11,2.27-3.28,0-5.8-1.69-5.8-5.18s2.52-5.33,6.73-5.33h3.93a.19.19,0,0,0,.21-.21V88.89c0-2.38-.93-3.39-4.14-3.39a6.7,6.7,0,0,0-4.17,1.23.33.33,0,0,1-.51,0l-1-1.66a.38.38,0,0,1,.07-.5,9.58,9.58,0,0,1,5.87-1.69c4.9,0,6.77,1.62,6.77,5.87v11.41a.35.35,0,0,1-.36.36ZM331,94.9V93a.19.19,0,0,0-.21-.22h-3.46c-3,0-4.28.87-4.28,2.81,0,1.77,1.29,2.7,3.6,2.7C329.36,98.28,331,97,331,94.9Z"/><path class="cls-1" d="M339.33,100.48a.34.34,0,0,1-.36-.36V76.36a.34.34,0,0,1,.36-.36h2.3a.34.34,0,0,1,.36.36v8.85h0c.83-1.36,2.3-2.37,4.89-2.37,3,0,5.08,1.4,5.94,4.14a14.17,14.17,0,0,1,.62,4.86,14.22,14.22,0,0,1-.62,4.89c-.86,2.74-2.95,4.14-5.94,4.14-2.59,0-4.06-1-4.89-2.41h0v1.66a.34.34,0,0,1-.36.36Zm10.65-5a11.89,11.89,0,0,0,.4-3.6,12.15,12.15,0,0,0-.4-3.6,4.08,4.08,0,0,0-7.59,0,11.12,11.12,0,0,0-.4,3.6,11,11,0,0,0,.4,3.6,4.06,4.06,0,0,0,7.59,0Z"/><path class="cls-1" d="M368.06,100.48a.34.34,0,0,1-.36-.36V98.6h0c-.79,1.3-2.48,2.27-5.11,2.27-3.28,0-5.8-1.69-5.8-5.18s2.52-5.33,6.73-5.33h3.93a.19.19,0,0,0,.21-.21V88.89c0-2.38-.93-3.39-4.14-3.39a6.7,6.7,0,0,0-4.17,1.23.33.33,0,0,1-.51,0l-1-1.66a.37.37,0,0,1,.08-.5,9.53,9.53,0,0,1,5.86-1.69c4.9,0,6.77,1.62,6.77,5.87v11.41a.34.34,0,0,1-.36.36Zm-.44-5.58V93a.19.19,0,0,0-.21-.22H364c-3,0-4.28.87-4.28,2.81,0,1.77,1.29,2.7,3.6,2.7C366,98.28,367.62,97,367.62,94.9Z"/><path class="cls-1" d="M372.74,107a.34.34,0,0,1-.36-.36v-2.09a.34.34,0,0,1,.36-.36h.57c1.69,0,2.27-.47,2.27-2.31V83.59a.34.34,0,0,1,.36-.36h2.3a.34.34,0,0,1,.36.36v18.18c0,3.71-1.65,5.19-5.14,5.19Zm3.13-27.61a.34.34,0,0,1-.36-.36V76.36a.34.34,0,0,1,.36-.36h2.45a.34.34,0,0,1,.36.36V79a.35.35,0,0,1-.36.36Z"/><path class="cls-1" d="M383.32,96.23a12.85,12.85,0,0,1-.58-4.39,12.78,12.78,0,0,1,.58-4.36c.94-3,3.46-4.64,6.8-4.64s5.87,1.69,6.81,4.64a13.07,13.07,0,0,1,.57,4.36,13.14,13.14,0,0,1-.57,4.39,7.31,7.31,0,0,1-13.61,0ZM394,95.37a11.27,11.27,0,0,0,.4-3.53,10.91,10.91,0,0,0-.4-3.49,4.15,4.15,0,0,0-7.77,0,10.91,10.91,0,0,0-.4,3.49,11.27,11.27,0,0,0,.4,3.53,4.15,4.15,0,0,0,7.77,0Z"/><path class="cls-1" d="M400.46,98.28a.33.33,0,0,1,0-.5l1.47-1.59a.36.36,0,0,1,.51,0,8.34,8.34,0,0,0,5.32,2c2.52,0,3.78-1.08,3.78-2.62,0-1.37-.65-2.13-3.34-2.42L406.36,93c-3.38-.36-5.15-2-5.15-4.86,0-3.27,2.34-5.25,6.41-5.25a10.32,10.32,0,0,1,6.12,1.91.34.34,0,0,1,.07.5l-1.22,1.55a.36.36,0,0,1-.51.07,9.06,9.06,0,0,0-4.64-1.4c-2.16,0-3.28,1-3.28,2.37s.83,2.09,3.39,2.34l1.8.18c3.49.33,5.18,2.09,5.18,4.86,0,3.38-2.45,5.65-6.95,5.65A10.72,10.72,0,0,1,400.46,98.28Z"/><path class="cls-1" d="M426,87.48a6.68,6.68,0,0,1,6.8-4.64,6.94,6.94,0,0,1,5.91,2.91.35.35,0,0,1-.11.51L437,87.55a.31.31,0,0,1-.5,0,4.24,4.24,0,0,0-3.71-1.87,3.74,3.74,0,0,0-3.85,2.7,11.44,11.44,0,0,0-.39,3.49,11.56,11.56,0,0,0,.39,3.53,3.74,3.74,0,0,0,3.85,2.69,4.24,4.24,0,0,0,3.71-1.87.31.31,0,0,1,.5,0l1.59,1.29a.35.35,0,0,1,.11.51,6.92,6.92,0,0,1-5.91,2.91c-3.31,0-5.83-1.65-6.8-4.64a18,18,0,0,1,0-8.75Z"/><path class="cls-1" d="M441.85,96.23a13.14,13.14,0,0,1-.57-4.39,13.07,13.07,0,0,1,.57-4.36c.94-3,3.46-4.64,6.81-4.64s5.87,1.69,6.8,4.64a12.78,12.78,0,0,1,.58,4.36,12.85,12.85,0,0,1-.58,4.39c-.93,2.92-3.45,4.64-6.8,4.64A6.71,6.71,0,0,1,441.85,96.23Zm10.7-.86a11.63,11.63,0,0,0,.39-3.53,11.26,11.26,0,0,0-.39-3.49,4.15,4.15,0,0,0-7.78,0,11,11,0,0,0-.39,3.49,11.32,11.32,0,0,0,.39,3.53,4.16,4.16,0,0,0,7.78,0Z"/><path class="cls-1" d="M471.37,100.48a.35.35,0,0,1-.36-.36V90c0-2.77-1.26-4.39-3.85-4.39a3.87,3.87,0,0,0-4,4.21v10.26a.34.34,0,0,1-.36.36h-2.3a.34.34,0,0,1-.36-.36V83.59a.34.34,0,0,1,.36-.36h2.3a.34.34,0,0,1,.36.36v1.59h0a5.45,5.45,0,0,1,4.82-2.34c3.75,0,6,2.55,6,6.48v10.8a.35.35,0,0,1-.36.36Z"/><path class="cls-1" d="M487.32,100.48a.35.35,0,0,1-.36-.36V83.59a.35.35,0,0,1,.36-.36h2.31a.35.35,0,0,1,.36.36v1.77h0a4.8,4.8,0,0,1,4.57-2.52,5.3,5.3,0,0,1,3.53,1.29c.18.18.22.33.07.51l-1.33,1.76a.32.32,0,0,1-.5.07,4.89,4.89,0,0,0-2.67-.82c-2.62,0-3.7,2-3.7,5v9.43a.35.35,0,0,1-.36.36Z"/><path class="cls-1" d="M499.89,96.19a13.43,13.43,0,0,1-.58-4.35,13.43,13.43,0,0,1,.54-4.36,7.25,7.25,0,0,1,13.53,0,15.08,15.08,0,0,1,.54,4.93.35.35,0,0,1-.39.36H502.62a.19.19,0,0,0-.21.22,6.5,6.5,0,0,0,.28,2.09,4.26,4.26,0,0,0,4.36,3,5.64,5.64,0,0,0,4.43-1.9c.18-.18.36-.22.54-.07l1.47,1.33a.32.32,0,0,1,0,.5,8.38,8.38,0,0,1-6.73,3C503.31,100.87,500.82,99.18,499.89,96.19Zm10.72-5.83c.15,0,.22-.07.22-.21a6.08,6.08,0,0,0-.25-2,4.25,4.25,0,0,0-7.92,0,6.08,6.08,0,0,0-.25,2,.19.19,0,0,0,.21.21Z"/><path class="cls-1" d="M528.86,100.48a.35.35,0,0,1-.36-.36V98.46h0c-.83,1.37-2.3,2.41-4.9,2.41-3,0-5.07-1.4-5.94-4.14a14.5,14.5,0,0,1-.61-4.89,14.45,14.45,0,0,1,.61-4.86c.87-2.74,3-4.14,5.94-4.14,2.6,0,4.07,1,4.9,2.37h0V76.36a.34.34,0,0,1,.36-.36h2.31a.34.34,0,0,1,.36.36v23.76a.35.35,0,0,1-.36.36Zm-.75-5a11.06,11.06,0,0,0,.39-3.6,11.18,11.18,0,0,0-.39-3.6,4.08,4.08,0,0,0-7.6,0,12.54,12.54,0,0,0-.39,3.6,12.28,12.28,0,0,0,.39,3.6,4.07,4.07,0,0,0,7.6,0Z"/><path class="cls-1" d="M536.25,96.19a13.43,13.43,0,0,1-.58-4.35,13.43,13.43,0,0,1,.54-4.36,7.25,7.25,0,0,1,13.53,0,15.08,15.08,0,0,1,.54,4.93.35.35,0,0,1-.39.36H539a.19.19,0,0,0-.21.22,6.5,6.5,0,0,0,.28,2.09,4.27,4.27,0,0,0,4.36,3,5.64,5.64,0,0,0,4.43-1.9c.18-.18.36-.22.54-.07l1.47,1.33a.32.32,0,0,1,0,.5,8.38,8.38,0,0,1-6.73,3C539.67,100.87,537.18,99.18,536.25,96.19ZM547,90.36c.15,0,.22-.07.22-.21a6.08,6.08,0,0,0-.25-2,4.25,4.25,0,0,0-7.92,0,6.08,6.08,0,0,0-.25,2,.19.19,0,0,0,.21.21Z"/><path class="cls-1" d="M553.24,98.28a.33.33,0,0,1,0-.5l1.47-1.59a.36.36,0,0,1,.51,0,8.34,8.34,0,0,0,5.32,2c2.52,0,3.78-1.08,3.78-2.62,0-1.37-.64-2.13-3.34-2.42L559.14,93c-3.38-.36-5.15-2-5.15-4.86,0-3.27,2.34-5.25,6.41-5.25a10.32,10.32,0,0,1,6.12,1.91.34.34,0,0,1,.07.5l-1.22,1.55a.36.36,0,0,1-.51.07,9.06,9.06,0,0,0-4.64-1.4c-2.16,0-3.28,1-3.28,2.37s.83,2.09,3.39,2.34l1.8.18c3.49.33,5.18,2.09,5.18,4.86,0,3.38-2.45,5.65-6.95,5.65A10.72,10.72,0,0,1,553.24,98.28Z"/><path class="cls-1" d="M590.06,100.48a.35.35,0,0,1-.36-.36V98.46h0c-.83,1.37-2.31,2.41-4.9,2.41-3,0-5.07-1.4-5.94-4.14a14.25,14.25,0,0,1-.61-4.89,14.2,14.2,0,0,1,.61-4.86c.87-2.74,2.95-4.14,5.94-4.14,2.59,0,4.07,1,4.9,2.37h0V76.36a.34.34,0,0,1,.36-.36h2.31a.34.34,0,0,1,.36.36v23.76a.35.35,0,0,1-.36.36Zm-.75-5a11.35,11.35,0,0,0,.39-3.6,11.47,11.47,0,0,0-.39-3.6,4.08,4.08,0,0,0-7.6,0,12.2,12.2,0,0,0-.39,3.6,11.94,11.94,0,0,0,.39,3.6,4.07,4.07,0,0,0,7.6,0Z"/><path class="cls-1" d="M597.44,96.19a13.48,13.48,0,0,1-.57-4.35,13.43,13.43,0,0,1,.54-4.36,7.25,7.25,0,0,1,13.53,0,15.08,15.08,0,0,1,.54,4.93.35.35,0,0,1-.39.36H600.18A.2.2,0,0,0,600,93a6.47,6.47,0,0,0,.29,2.09,4.26,4.26,0,0,0,4.36,3,5.6,5.6,0,0,0,4.42-1.9.37.37,0,0,1,.55-.07l1.47,1.33a.32.32,0,0,1,0,.5,8.38,8.38,0,0,1-6.73,3C600.86,100.87,598.38,99.18,597.44,96.19Zm10.73-5.83a.19.19,0,0,0,.22-.21,6.05,6.05,0,0,0-.26-2,4.25,4.25,0,0,0-7.91,0,6.05,6.05,0,0,0-.26,2,.19.19,0,0,0,.22.21Z"/><path class="cls-1" d="M15.23,138.48a.34.34,0,0,1-.36-.36V136.6h0c-.79,1.3-2.48,2.27-5.11,2.27-3.28,0-5.8-1.69-5.8-5.18s2.52-5.33,6.74-5.33h3.92a.19.19,0,0,0,.21-.21v-1.26c0-2.38-.93-3.39-4.13-3.39a6.71,6.71,0,0,0-4.18,1.23c-.18.14-.4.14-.5,0L5,123a.38.38,0,0,1,.08-.5,9.53,9.53,0,0,1,5.86-1.69c4.9,0,6.77,1.62,6.77,5.87v11.41a.34.34,0,0,1-.36.36Zm-.44-5.58V131a.19.19,0,0,0-.21-.22H11.12c-3,0-4.28.87-4.28,2.81,0,1.77,1.3,2.7,3.6,2.7C13.14,136.28,14.79,135,14.79,132.9Z"/><path class="cls-1" d="M26.89,138.66c-3,0-4.21-1.44-4.21-4.54V114.36A.34.34,0,0,1,23,114h2.3a.34.34,0,0,1,.36.36v19.58c0,1.44.54,1.91,1.73,1.91h.68a.34.34,0,0,1,.36.36v2.09a.34.34,0,0,1-.36.36Z"/><path class="cls-1" d="M36.83,138.66c-3.35,0-4.65-1.51-4.65-4.9V123.9c0-.15-.07-.22-.21-.22H30.53a.34.34,0,0,1-.36-.36v-1.73a.34.34,0,0,1,.36-.36H32a.19.19,0,0,0,.21-.21v-4.86a.34.34,0,0,1,.36-.36h2.31a.34.34,0,0,1,.36.36V121a.19.19,0,0,0,.21.21h2.74a.35.35,0,0,1,.36.36v1.73a.34.34,0,0,1-.36.36H35.42c-.14,0-.21.07-.21.22v9.75c0,1.73.64,2.2,2.19,2.2h.76a.34.34,0,0,1,.36.36v2.09a.35.35,0,0,1-.36.36Z"/><path class="cls-1" d="M52.92,138.48a.34.34,0,0,1-.36-.36V136.6h0c-.79,1.3-2.48,2.27-5.11,2.27-3.28,0-5.79-1.69-5.79-5.18s2.51-5.33,6.73-5.33h3.92a.19.19,0,0,0,.22-.21v-1.26c0-2.38-.94-3.39-4.14-3.39a6.71,6.71,0,0,0-4.18,1.23.32.32,0,0,1-.5,0l-1-1.66a.37.37,0,0,1,.07-.5,9.53,9.53,0,0,1,5.86-1.69c4.9,0,6.77,1.62,6.77,5.87v11.41a.34.34,0,0,1-.36.36Zm-.43-5.58V131a.2.2,0,0,0-.22-.22H48.81c-3,0-4.28.87-4.28,2.81,0,1.77,1.3,2.7,3.6,2.7C50.83,136.28,52.49,135,52.49,132.9Z"/><path class="cls-1" d="M60.37,134.66h2.52a.34.34,0,0,1,.36.36v3.35a1.14,1.14,0,0,1-.22.79l-2.23,3a.56.56,0,0,1-.47.25A.32.32,0,0,1,60,142v-7A.35.35,0,0,1,60.37,134.66Z"/><path class="cls-1" d="M97.2,138.48a.34.34,0,0,1-.36-.36V128c0-2.77-1.26-4.39-3.86-4.39a3.89,3.89,0,0,0-4,4.21v10.26a.34.34,0,0,1-.35.36H86.36a.35.35,0,0,1-.36-.36V128c0-2.77-1.26-4.39-3.85-4.39a3.87,3.87,0,0,0-4,4.21v10.26a.34.34,0,0,1-.36.36h-2.3a.34.34,0,0,1-.36-.36V121.59a.34.34,0,0,1,.36-.36h2.3a.34.34,0,0,1,.36.36v1.59h0a6.09,6.09,0,0,1,9.86.36h0a6.39,6.39,0,0,1,5.57-2.7c4,0,6.16,2.55,6.16,6.48v10.8a.34.34,0,0,1-.36.36Z"/><path class="cls-1" d="M104.4,134.19a17.21,17.21,0,0,1,0-8.71,7.26,7.26,0,0,1,13.54,0,15.08,15.08,0,0,1,.54,4.93.35.35,0,0,1-.4.36H107.13a.19.19,0,0,0-.21.22,6.47,6.47,0,0,0,.29,2.09,4.25,4.25,0,0,0,4.35,3,5.64,5.64,0,0,0,4.43-1.9c.18-.18.36-.22.54-.07l1.47,1.33a.32.32,0,0,1,0,.5,8.38,8.38,0,0,1-6.73,3C107.82,138.87,105.33,137.18,104.4,134.19Zm10.73-5.83a.19.19,0,0,0,.21-.21,6.08,6.08,0,0,0-.25-2,4.25,4.25,0,0,0-7.92,0,6.08,6.08,0,0,0-.25,2,.19.19,0,0,0,.21.21Z"/><path class="cls-1" d="M133.38,138.48a.34.34,0,0,1-.36-.36v-1.66h0c-.83,1.37-2.3,2.41-4.9,2.41-3,0-5.07-1.4-5.93-4.14a14.22,14.22,0,0,1-.62-4.89,14.17,14.17,0,0,1,.62-4.86c.86-2.74,2.95-4.14,5.93-4.14,2.6,0,4.07,1,4.9,2.37h0v-8.85a.34.34,0,0,1,.36-.36h2.3a.34.34,0,0,1,.36.36v23.76a.34.34,0,0,1-.36.36Zm-.76-5a11,11,0,0,0,.4-3.6,11.12,11.12,0,0,0-.4-3.6,4.08,4.08,0,0,0-7.59,0,12.15,12.15,0,0,0-.4,3.6,11.89,11.89,0,0,0,.4,3.6,4.06,4.06,0,0,0,7.59,0Z"/><path class="cls-1" d="M141.51,117.35a.35.35,0,0,1-.36-.36v-2.63a.34.34,0,0,1,.36-.36H144a.34.34,0,0,1,.36.36V117a.34.34,0,0,1-.36.36Zm.07,21.13a.34.34,0,0,1-.35-.36V121.59a.34.34,0,0,1,.35-.36h2.31a.34.34,0,0,1,.36.36v16.53a.34.34,0,0,1-.36.36Z"/><path class="cls-1" d="M159.87,138.48a.35.35,0,0,1-.36-.36V136.6h0c-.8,1.3-2.49,2.27-5.12,2.27-3.27,0-5.79-1.69-5.79-5.18s2.52-5.33,6.73-5.33h3.92c.15,0,.22-.07.22-.21v-1.26c0-2.38-.94-3.39-4.14-3.39a6.68,6.68,0,0,0-4.17,1.23c-.19.14-.4.14-.51,0l-1-1.66a.38.38,0,0,1,.07-.5,9.56,9.56,0,0,1,5.87-1.69c4.89,0,6.77,1.62,6.77,5.87v11.41a.35.35,0,0,1-.36.36Zm-.43-5.58V131a.2.2,0,0,0-.22-.22h-3.45c-3,0-4.28.87-4.28,2.81,0,1.77,1.29,2.7,3.59,2.7C157.78,136.28,159.44,135,159.44,132.9Z"/><path class="cls-1" d="M175.46,145a.35.35,0,0,1-.36-.36v-2.09a.34.34,0,0,1,.36-.36h.65c1.4,0,2.16-.61,2.91-2.59l.58-1.59-6.34-16.38c-.07-.21,0-.36.29-.36h2.52a.42.42,0,0,1,.43.36L181,134.05h.07l4.36-12.46a.42.42,0,0,1,.43-.36h2.45c.21,0,.36.15.28.36l-6.8,18.22c-1.51,4.07-2.84,5.15-5.43,5.15Z"/><path class="cls-1" d="M200.05,138.48a.34.34,0,0,1-.36-.36V114.36a.34.34,0,0,1,.36-.36h2.3a.34.34,0,0,1,.36.36v8.85h0c.83-1.36,2.3-2.37,4.89-2.37,3,0,5.08,1.4,5.94,4.14a14.2,14.2,0,0,1,.61,4.86,14.25,14.25,0,0,1-.61,4.89c-.86,2.74-3,4.14-5.94,4.14-2.59,0-4.06-1-4.89-2.41h0v1.66a.34.34,0,0,1-.36.36Zm10.65-5a11.89,11.89,0,0,0,.4-3.6,12.15,12.15,0,0,0-.4-3.6,4.08,4.08,0,0,0-7.59,0,11.12,11.12,0,0,0-.4,3.6,11,11,0,0,0,.4,3.6,4.06,4.06,0,0,0,7.59,0Z"/><path class="cls-1" d="M228.77,138.48a.35.35,0,0,1-.36-.36V136.6h0c-.79,1.3-2.49,2.27-5.11,2.27-3.28,0-5.8-1.69-5.8-5.18s2.52-5.33,6.73-5.33h3.93a.19.19,0,0,0,.21-.21v-1.26c0-2.38-.93-3.39-4.14-3.39a6.7,6.7,0,0,0-4.17,1.23.33.33,0,0,1-.51,0l-1-1.66a.38.38,0,0,1,.07-.5,9.58,9.58,0,0,1,5.87-1.69c4.9,0,6.77,1.62,6.77,5.87v11.41a.35.35,0,0,1-.36.36Zm-.43-5.58V131a.19.19,0,0,0-.21-.22h-3.46c-3,0-4.28.87-4.28,2.81,0,1.77,1.29,2.7,3.6,2.7C226.69,136.28,228.34,135,228.34,132.9Z"/><path class="cls-1" d="M233.46,145a.34.34,0,0,1-.36-.36v-2.09a.34.34,0,0,1,.36-.36H234c1.69,0,2.27-.47,2.27-2.31V121.59a.34.34,0,0,1,.36-.36H239a.34.34,0,0,1,.36.36v18.18c0,3.71-1.65,5.19-5.14,5.19Zm3.13-27.61a.34.34,0,0,1-.36-.36v-2.63a.34.34,0,0,1,.36-.36H239a.34.34,0,0,1,.36.36V117a.35.35,0,0,1-.36.36Z"/><path class="cls-1" d="M255,138.48a.34.34,0,0,1-.36-.36V136.6h0c-.79,1.3-2.48,2.27-5.11,2.27-3.28,0-5.8-1.69-5.8-5.18s2.52-5.33,6.73-5.33h3.93a.19.19,0,0,0,.21-.21v-1.26c0-2.38-.93-3.39-4.14-3.39a6.7,6.7,0,0,0-4.17,1.23.33.33,0,0,1-.51,0l-1-1.66a.39.39,0,0,1,.07-.5,9.58,9.58,0,0,1,5.87-1.69c4.9,0,6.77,1.62,6.77,5.87v11.41a.34.34,0,0,1-.36.36Zm-.44-5.58V131a.19.19,0,0,0-.21-.22h-3.46c-3,0-4.28.87-4.28,2.81,0,1.77,1.29,2.7,3.6,2.7C252.86,136.28,254.51,135,254.51,132.9Z"/><path class="cls-1" d="M275.39,138.66c-3.34,0-4.64-1.51-4.64-4.9V123.9a.19.19,0,0,0-.22-.22h-1.44a.33.33,0,0,1-.35-.36v-1.73a.34.34,0,0,1,.35-.36h1.44c.15,0,.22-.07.22-.21v-4.86a.34.34,0,0,1,.36-.36h2.3a.34.34,0,0,1,.36.36V121a.19.19,0,0,0,.22.21h2.74a.35.35,0,0,1,.36.36v1.73a.34.34,0,0,1-.36.36H274a.2.2,0,0,0-.22.22v9.75c0,1.73.65,2.2,2.2,2.2h.76a.34.34,0,0,1,.36.36v2.09a.35.35,0,0,1-.36.36Z"/><path class="cls-1" d="M280.58,134.19a17.21,17.21,0,0,1,0-8.71,7.26,7.26,0,0,1,13.54,0,15.08,15.08,0,0,1,.54,4.93.35.35,0,0,1-.4.36H283.31a.19.19,0,0,0-.21.22,6.47,6.47,0,0,0,.29,2.09,4.25,4.25,0,0,0,4.35,3,5.64,5.64,0,0,0,4.43-1.9c.18-.18.36-.22.54-.07l1.47,1.33a.32.32,0,0,1,0,.5,8.38,8.38,0,0,1-6.73,3C284,138.87,281.51,137.18,280.58,134.19Zm10.73-5.83a.19.19,0,0,0,.21-.21,6.08,6.08,0,0,0-.25-2,4.25,4.25,0,0,0-7.92,0,6.08,6.08,0,0,0-.25,2,.19.19,0,0,0,.21.21Z"/><path class="cls-1" d="M310,138.48a.35.35,0,0,1-.36-.36V128c0-2.77-1.26-4.39-3.85-4.39a3.87,3.87,0,0,0-4,4.21v10.26a.34.34,0,0,1-.36.36h-2.3a.34.34,0,0,1-.36-.36V121.59a.34.34,0,0,1,.36-.36h2.3a.34.34,0,0,1,.36.36v1.59h0a5.45,5.45,0,0,1,4.82-2.34c3.74,0,6,2.55,6,6.48v10.8a.35.35,0,0,1-.36.36Z"/><path class="cls-1" d="M316.43,136.28a.35.35,0,0,1,0-.5l1.48-1.59a.35.35,0,0,1,.5,0,8.37,8.37,0,0,0,5.33,2c2.52,0,3.78-1.08,3.78-2.62,0-1.37-.65-2.13-3.35-2.42l-1.83-.18c-3.39-.36-5.15-2-5.15-4.86,0-3.27,2.34-5.25,6.41-5.25a10.32,10.32,0,0,1,6.12,1.91.34.34,0,0,1,.07.5l-1.23,1.55a.35.35,0,0,1-.5.07,9.09,9.09,0,0,0-4.64-1.4c-2.16,0-3.28,1-3.28,2.37s.83,2.09,3.38,2.34l1.81.18c3.49.33,5.18,2.09,5.18,4.86,0,3.38-2.45,5.65-6.95,5.65A10.75,10.75,0,0,1,316.43,136.28Z"/><path class="cls-1" d="M334.83,117.35a.34.34,0,0,1-.36-.36v-2.63a.34.34,0,0,1,.36-.36h2.45a.34.34,0,0,1,.36.36V117a.35.35,0,0,1-.36.36Zm.07,21.13a.35.35,0,0,1-.36-.36V121.59a.35.35,0,0,1,.36-.36h2.31a.35.35,0,0,1,.36.36v16.53a.35.35,0,0,1-.36.36Z"/><path class="cls-1" d="M342.28,134.23a17.07,17.07,0,0,1,0-8.75c.94-3,3.46-4.64,6.8-4.64s5.87,1.69,6.81,4.64a17.07,17.07,0,0,1,0,8.75,7.31,7.31,0,0,1-13.61,0Zm10.69-.86a11.27,11.27,0,0,0,.4-3.53,10.91,10.91,0,0,0-.4-3.49,4.15,4.15,0,0,0-7.77,0,10.91,10.91,0,0,0-.4,3.49,11.27,11.27,0,0,0,.4,3.53,4.15,4.15,0,0,0,7.77,0Zm-5.18-14.94c-.22,0-.33-.15-.22-.36l2.74-4.43a.63.63,0,0,1,.61-.36h2.38a.21.21,0,0,1,.18.36l-3.32,4.43a.7.7,0,0,1-.68.36Z"/><path class="cls-1" d="M371.8,138.48a.34.34,0,0,1-.36-.36V128c0-2.77-1.26-4.39-3.85-4.39a3.87,3.87,0,0,0-4,4.21v10.26a.35.35,0,0,1-.36.36H361a.35.35,0,0,1-.36-.36V121.59a.35.35,0,0,1,.36-.36h2.31a.35.35,0,0,1,.36.36v1.59h0a5.47,5.47,0,0,1,4.83-2.34c3.74,0,6,2.55,6,6.48v10.8a.34.34,0,0,1-.36.36Z"/><path class="cls-1" d="M379,135a.34.34,0,0,1,.36-.36h2.73a.34.34,0,0,1,.36.36v3.1a.34.34,0,0,1-.36.36H379.4a.34.34,0,0,1-.36-.36Z"/><path class="cls-1" d="M399.48,138.48a.35.35,0,0,1-.36-.36V117.2a.19.19,0,0,0-.21-.21h-6.7a.35.35,0,0,1-.36-.36v-2.27a.34.34,0,0,1,.36-.36h17a.34.34,0,0,1,.36.36v2.27a.35.35,0,0,1-.36.36h-6.7a.19.19,0,0,0-.21.21v20.92a.35.35,0,0,1-.36.36Z"/><path class="cls-1" d="M411,138.48a.35.35,0,0,1-.36-.36V121.59a.35.35,0,0,1,.36-.36h2.3a.34.34,0,0,1,.36.36v1.77h0a4.8,4.8,0,0,1,4.57-2.52,5.3,5.3,0,0,1,3.53,1.29c.18.18.22.33.07.51l-1.33,1.76a.32.32,0,0,1-.5.07,4.92,4.92,0,0,0-2.67-.82c-2.63,0-3.71,2-3.71,5v9.43a.34.34,0,0,1-.36.36Z"/><path class="cls-1" d="M434.29,138.48a.35.35,0,0,1-.36-.36V136.6h0c-.79,1.3-2.48,2.27-5.11,2.27-3.28,0-5.8-1.69-5.8-5.18s2.52-5.33,6.73-5.33h3.93a.19.19,0,0,0,.21-.21v-1.26c0-2.38-.93-3.39-4.14-3.39a6.7,6.7,0,0,0-4.17,1.23.33.33,0,0,1-.51,0l-1-1.66a.38.38,0,0,1,.07-.5,9.58,9.58,0,0,1,5.87-1.69c4.9,0,6.77,1.62,6.77,5.87v11.41a.35.35,0,0,1-.36.36Zm-.43-5.58V131a.19.19,0,0,0-.21-.22h-3.46c-3,0-4.28.87-4.28,2.81,0,1.77,1.29,2.7,3.6,2.7C432.21,136.28,433.86,135,433.86,132.9Z"/><path class="cls-1" d="M442.18,138.48a.34.34,0,0,1-.36-.36V114.36a.34.34,0,0,1,.36-.36h2.3a.34.34,0,0,1,.36.36v8.85h0c.83-1.36,2.3-2.37,4.9-2.37,3,0,5.07,1.4,5.93,4.14a14.17,14.17,0,0,1,.62,4.86,14.22,14.22,0,0,1-.62,4.89c-.86,2.74-2.95,4.14-5.93,4.14-2.6,0-4.07-1-4.9-2.41h0v1.66a.34.34,0,0,1-.36.36Zm10.65-5a11.89,11.89,0,0,0,.4-3.6,12.15,12.15,0,0,0-.4-3.6,4.08,4.08,0,0,0-7.59,0,11.12,11.12,0,0,0-.4,3.6,11,11,0,0,0,.4,3.6,4.06,4.06,0,0,0,7.59,0Z"/><path class="cls-1" d="M470.91,138.48a.34.34,0,0,1-.36-.36V136.6h0c-.79,1.3-2.48,2.27-5.11,2.27-3.28,0-5.8-1.69-5.8-5.18s2.52-5.33,6.73-5.33h3.93a.19.19,0,0,0,.21-.21v-1.26c0-2.38-.93-3.39-4.14-3.39a6.7,6.7,0,0,0-4.17,1.23c-.18.14-.4.14-.5,0l-1-1.66a.38.38,0,0,1,.08-.5,9.53,9.53,0,0,1,5.86-1.69c4.9,0,6.77,1.62,6.77,5.87v11.41a.34.34,0,0,1-.36.36Zm-.44-5.58V131a.19.19,0,0,0-.21-.22H466.8c-3,0-4.28.87-4.28,2.81,0,1.77,1.3,2.7,3.6,2.7C468.82,136.28,470.47,135,470.47,132.9Z"/><path class="cls-1" d="M475.59,145a.34.34,0,0,1-.36-.36v-2.09a.34.34,0,0,1,.36-.36h.57c1.7,0,2.27-.47,2.27-2.31V121.59a.35.35,0,0,1,.36-.36h2.31a.35.35,0,0,1,.36.36v18.18c0,3.71-1.66,5.19-5.15,5.19Zm3.13-27.61a.34.34,0,0,1-.36-.36v-2.63a.34.34,0,0,1,.36-.36h2.45a.34.34,0,0,1,.36.36V117a.35.35,0,0,1-.36.36Z"/><path class="cls-1" d="M486.17,134.19a17.36,17.36,0,0,1,0-8.71,7.25,7.25,0,0,1,13.53,0,15.08,15.08,0,0,1,.54,4.93c0,.22-.14.36-.4.36h-10.9a.2.2,0,0,0-.22.22,6.47,6.47,0,0,0,.29,2.09,4.25,4.25,0,0,0,4.35,3,5.61,5.61,0,0,0,4.43-1.9c.18-.18.36-.22.54-.07l1.48,1.33a.31.31,0,0,1,0,.5,8.35,8.35,0,0,1-6.73,3C489.59,138.87,487.11,137.18,486.17,134.19Zm10.73-5.83a.19.19,0,0,0,.21-.21,6.08,6.08,0,0,0-.25-2,4.25,4.25,0,0,0-7.92,0,6.08,6.08,0,0,0-.25,2c0,.14.07.21.22.21Z"/><path class="cls-1" d="M511.08,136.28a.35.35,0,0,1,0-.5l1.48-1.59a.35.35,0,0,1,.5,0,8.37,8.37,0,0,0,5.33,2c2.52,0,3.78-1.08,3.78-2.62,0-1.37-.65-2.13-3.35-2.42L517,131c-3.39-.36-5.15-2-5.15-4.86,0-3.27,2.34-5.25,6.41-5.25a10.34,10.34,0,0,1,6.12,1.91.36.36,0,0,1,.07.5l-1.23,1.55a.35.35,0,0,1-.5.07,9.09,9.09,0,0,0-4.64-1.4c-2.16,0-3.28,1-3.28,2.37s.83,2.09,3.38,2.34l1.8.18c3.5.33,5.19,2.09,5.19,4.86,0,3.38-2.45,5.65-6.95,5.65A10.75,10.75,0,0,1,511.08,136.28Z"/><path class="cls-1" d="M528.72,134.19a17.36,17.36,0,0,1,0-8.71,7.25,7.25,0,0,1,13.53,0,15.08,15.08,0,0,1,.54,4.93c0,.22-.14.36-.4.36h-10.9a.2.2,0,0,0-.22.22,6.47,6.47,0,0,0,.29,2.09,4.25,4.25,0,0,0,4.36,3,5.6,5.6,0,0,0,4.42-1.9c.18-.18.36-.22.54-.07l1.48,1.33a.31.31,0,0,1,0,.5,8.35,8.35,0,0,1-6.73,3C532.14,138.87,529.66,137.18,528.72,134.19Zm10.73-5.83a.19.19,0,0,0,.22-.21,6.05,6.05,0,0,0-.26-2,4.25,4.25,0,0,0-7.92,0,6.08,6.08,0,0,0-.25,2c0,.14.07.21.22.21Z"/><path class="cls-1" d="M546.54,142.8a.33.33,0,0,1,0-.51l1.47-1.47a.34.34,0,0,1,.54,0,5.75,5.75,0,0,0,4.07,1.72c2.84,0,4.36-1.47,4.36-4.64v-2h0c-.79,1.44-2.27,2.37-4.79,2.37a5.64,5.64,0,0,1-5.79-4.17,18.06,18.06,0,0,1,0-9.08,5.64,5.64,0,0,1,5.79-4.17c2.52,0,4,.93,4.79,2.37h0v-1.62a.34.34,0,0,1,.36-.36h2.3a.34.34,0,0,1,.36.36v16.13c0,4.9-2.66,7.63-7.52,7.63A7.8,7.8,0,0,1,546.54,142.8Zm10.08-9.9a10.43,10.43,0,0,0,.4-3.35,10.55,10.55,0,0,0-.4-3.35,3.89,3.89,0,0,0-7.31,0,11.09,11.09,0,0,0-.43,3.35,11,11,0,0,0,.43,3.35,3.53,3.53,0,0,0,3.64,2.59A3.56,3.56,0,0,0,556.62,132.9Z"/><path class="cls-1" d="M576.06,138.48a.34.34,0,0,1-.36-.36V136.5h0a5.25,5.25,0,0,1-4.71,2.37c-3.78,0-6-2.59-6-6.51V121.59a.35.35,0,0,1,.36-.36h2.31a.35.35,0,0,1,.36.36v10c0,2.81,1.26,4.42,3.81,4.42,2.34,0,3.89-1.65,3.89-4.24V121.59a.34.34,0,0,1,.36-.36h2.3a.34.34,0,0,1,.36.36v16.53a.34.34,0,0,1-.36.36Zm-5.4-20c-.22,0-.32-.15-.22-.36l2.74-4.43a.63.63,0,0,1,.61-.36h2.38a.21.21,0,0,1,.18.36L573,118.07a.71.71,0,0,1-.69.36Z"/><path class="cls-1" d="M595.1,138.48a.35.35,0,0,1-.36-.36V128c0-2.77-1.26-4.39-3.85-4.39a3.87,3.87,0,0,0-4,4.21v10.26a.34.34,0,0,1-.36.36h-2.3a.34.34,0,0,1-.36-.36V121.59a.34.34,0,0,1,.36-.36h2.3a.34.34,0,0,1,.36.36v1.59h0a5.45,5.45,0,0,1,4.82-2.34c3.75,0,6,2.55,6,6.48v10.8a.35.35,0,0,1-.36.36Z"/><path class="cls-1" d="M610.22,134.19a17.36,17.36,0,0,1,0-8.71,7.25,7.25,0,0,1,13.53,0,15.08,15.08,0,0,1,.54,4.93.35.35,0,0,1-.39.36H613a.2.2,0,0,0-.22.22,6.47,6.47,0,0,0,.29,2.09,4.26,4.26,0,0,0,4.36,3,5.64,5.64,0,0,0,4.43-1.9c.18-.18.35-.22.54-.07l1.47,1.33a.32.32,0,0,1,0,.5,8.38,8.38,0,0,1-6.73,3C613.64,138.87,611.16,137.18,610.22,134.19ZM621,128.36a.19.19,0,0,0,.22-.21,6.37,6.37,0,0,0-.25-2,4.25,4.25,0,0,0-7.92,0,6.05,6.05,0,0,0-.26,2,.19.19,0,0,0,.22.21Z"/><path class="cls-1" d="M632.54,138.66c-3,0-4.21-1.44-4.21-4.54V114.36a.34.34,0,0,1,.36-.36H631a.34.34,0,0,1,.36.36v19.58c0,1.44.54,1.91,1.72,1.91h.69a.34.34,0,0,1,.36.36v2.09a.35.35,0,0,1-.36.36Z"/><path class="cls-1" d="M65.64,176.48a.35.35,0,0,1-.36-.36V174.6h0c-.79,1.3-2.49,2.27-5.11,2.27-3.28,0-5.8-1.69-5.8-5.18s2.52-5.33,6.73-5.33H65a.19.19,0,0,0,.21-.21v-1.26c0-2.38-.93-3.39-4.14-3.39a6.7,6.7,0,0,0-4.17,1.23.33.33,0,0,1-.51,0l-1-1.66a.38.38,0,0,1,.07-.5,9.56,9.56,0,0,1,5.87-1.69c4.9,0,6.77,1.62,6.77,5.87v11.41a.35.35,0,0,1-.36.36Zm-.43-5.58V169a.19.19,0,0,0-.21-.22H61.54c-3,0-4.28.87-4.28,2.81,0,1.77,1.29,2.7,3.6,2.7C63.56,174.28,65.21,173,65.21,170.9Z"/><path class="cls-1" d="M77.31,176.66c-3,0-4.21-1.44-4.21-4.54V152.36a.34.34,0,0,1,.36-.36h2.3a.34.34,0,0,1,.36.36v19.58c0,1.44.54,1.91,1.73,1.91h.68a.34.34,0,0,1,.36.36v2.09a.34.34,0,0,1-.36.36Z"/><path class="cls-1" d="M81.92,163.48a6.68,6.68,0,0,1,6.8-4.64,6.92,6.92,0,0,1,5.9,2.91.34.34,0,0,1-.1.51l-1.59,1.29a.31.31,0,0,1-.5,0,4.24,4.24,0,0,0-3.71-1.87,3.74,3.74,0,0,0-3.85,2.7,11.4,11.4,0,0,0-.4,3.49,11.52,11.52,0,0,0,.4,3.53,3.73,3.73,0,0,0,3.85,2.69,4.24,4.24,0,0,0,3.71-1.87.31.31,0,0,1,.5,0l1.59,1.29a.34.34,0,0,1,.1.51,6.9,6.9,0,0,1-5.9,2.91c-3.31,0-5.83-1.65-6.8-4.64a18,18,0,0,1,0-8.75Z"/><path class="cls-1" d="M108.7,176.48a.34.34,0,0,1-.36-.36V174.6h0c-.79,1.3-2.48,2.27-5.11,2.27-3.27,0-5.79-1.69-5.79-5.18s2.52-5.33,6.73-5.33h3.92c.15,0,.22-.07.22-.21v-1.26c0-2.38-.94-3.39-4.14-3.39a6.71,6.71,0,0,0-4.18,1.23.32.32,0,0,1-.5,0l-1-1.66a.37.37,0,0,1,.07-.5,9.54,9.54,0,0,1,5.87-1.69c4.89,0,6.76,1.62,6.76,5.87v11.41a.34.34,0,0,1-.36.36Zm-.43-5.58V169a.2.2,0,0,0-.22-.22H104.6c-3,0-4.29.87-4.29,2.81,0,1.77,1.3,2.7,3.6,2.7C106.61,174.28,108.27,173,108.27,170.9Z"/><path class="cls-1" d="M127.42,176.48a.34.34,0,0,1-.36-.36V166c0-2.77-1.26-4.39-3.85-4.39a3.87,3.87,0,0,0-4,4.21v10.26a.35.35,0,0,1-.36.36h-2.31a.35.35,0,0,1-.36-.36V159.59a.35.35,0,0,1,.36-.36h2.31a.35.35,0,0,1,.36.36v1.59h0a5.47,5.47,0,0,1,4.83-2.34c3.74,0,6,2.55,6,6.48v10.8a.34.34,0,0,1-.36.36Z"/><path class="cls-1" d="M134.58,163.48a6.7,6.7,0,0,1,6.81-4.64,6.94,6.94,0,0,1,5.9,2.91c.11.18.11.33-.11.51l-1.58,1.29a.32.32,0,0,1-.51,0,4.22,4.22,0,0,0-3.7-1.87,3.74,3.74,0,0,0-3.85,2.7,11.4,11.4,0,0,0-.4,3.49,11.52,11.52,0,0,0,.4,3.53,3.73,3.73,0,0,0,3.85,2.69,4.22,4.22,0,0,0,3.7-1.87.32.32,0,0,1,.51,0l1.58,1.29c.22.18.22.33.11.51a6.91,6.91,0,0,1-5.9,2.91,6.69,6.69,0,0,1-6.81-4.64,18,18,0,0,1,0-8.75Z"/><path class="cls-1" d="M150.46,172.19a17.21,17.21,0,0,1,0-8.71,7.26,7.26,0,0,1,13.54,0,15.08,15.08,0,0,1,.54,4.93.35.35,0,0,1-.4.36H153.2a.2.2,0,0,0-.22.22,6.47,6.47,0,0,0,.29,2.09,4.25,4.25,0,0,0,4.35,3,5.64,5.64,0,0,0,4.43-1.9c.18-.18.36-.22.54-.07l1.48,1.33a.31.31,0,0,1,0,.5,8.38,8.38,0,0,1-6.73,3C153.88,176.87,151.4,175.18,150.46,172.19Zm10.73-5.83a.19.19,0,0,0,.21-.21,6.08,6.08,0,0,0-.25-2,4.25,4.25,0,0,0-7.92,0,6.08,6.08,0,0,0-.25,2c0,.14.07.21.22.21Z"/><path class="cls-1" d="M187.36,176.48a.34.34,0,0,1-.36-.36v-1.66h0c-.83,1.37-2.3,2.41-4.89,2.41-3,0-5.08-1.4-5.94-4.14a19.48,19.48,0,0,1,0-9.75c.86-2.74,3-4.14,5.94-4.14,2.59,0,4.06,1,4.89,2.37h0v-8.85a.34.34,0,0,1,.36-.36h2.3a.34.34,0,0,1,.36.36v23.76a.34.34,0,0,1-.36.36Zm-.76-5a11,11,0,0,0,.4-3.6,11.12,11.12,0,0,0-.4-3.6,4.08,4.08,0,0,0-7.59,0,12.15,12.15,0,0,0-.4,3.6,11.89,11.89,0,0,0,.4,3.6,4.06,4.06,0,0,0,7.59,0Z"/><path class="cls-1" d="M194.74,172.19a17.21,17.21,0,0,1,0-8.71,7.26,7.26,0,0,1,13.54,0,15.08,15.08,0,0,1,.54,4.93.35.35,0,0,1-.4.36H197.47a.19.19,0,0,0-.21.22,6.47,6.47,0,0,0,.29,2.09,4.25,4.25,0,0,0,4.35,3,5.64,5.64,0,0,0,4.43-1.9c.18-.18.36-.22.54-.07l1.47,1.33a.31.31,0,0,1,0,.5,8.38,8.38,0,0,1-6.73,3C198.16,176.87,195.67,175.18,194.74,172.19Zm10.73-5.83a.19.19,0,0,0,.21-.21,6.08,6.08,0,0,0-.25-2,4.25,4.25,0,0,0-7.92,0,6.08,6.08,0,0,0-.25,2,.19.19,0,0,0,.21.21Z"/><path class="cls-1" d="M219.65,174.28a.35.35,0,0,1,0-.5l1.48-1.59a.35.35,0,0,1,.5,0,8.37,8.37,0,0,0,5.33,2c2.52,0,3.78-1.08,3.78-2.62,0-1.37-.65-2.13-3.35-2.42l-1.84-.18c-3.38-.36-5.14-2-5.14-4.86,0-3.27,2.34-5.25,6.4-5.25a10.32,10.32,0,0,1,6.12,1.91.34.34,0,0,1,.07.5l-1.22,1.55a.35.35,0,0,1-.5.07,9.09,9.09,0,0,0-4.65-1.4c-2.16,0-3.27,1-3.27,2.37s.83,2.09,3.38,2.34l1.8.18c3.49.33,5.18,2.09,5.18,4.86,0,3.38-2.44,5.65-6.94,5.65A10.73,10.73,0,0,1,219.65,174.28Z"/><path class="cls-1" d="M248.59,176.48a.35.35,0,0,1-.36-.36V174.5h0a5.26,5.26,0,0,1-4.72,2.37c-3.78,0-6-2.59-6-6.51V159.59a.34.34,0,0,1,.36-.36h2.3a.34.34,0,0,1,.36.36v10c0,2.81,1.26,4.42,3.81,4.42,2.34,0,3.89-1.65,3.89-4.24V159.59a.35.35,0,0,1,.36-.36h2.31a.35.35,0,0,1,.36.36v16.53a.35.35,0,0,1-.36.36Z"/><path class="cls-1" d="M265.3,176.48a.34.34,0,0,1-.36-.36V161.9a.2.2,0,0,0-.22-.22h-1.47a.34.34,0,0,1-.37-.36v-1.73a.35.35,0,0,1,.37-.36h1.47a.19.19,0,0,0,.22-.21v-1.48c0-4.06,1.65-5.54,5.25-5.54h1.33a.34.34,0,0,1,.36.36v2.09a.34.34,0,0,1-.36.36h-.93c-2.2,0-2.63.47-2.63,2.59V159c0,.14.07.21.22.21h3.34a.34.34,0,0,1,.36.36v1.73a.34.34,0,0,1-.36.36h-3.34a.19.19,0,0,0-.22.22v14.22a.34.34,0,0,1-.36.36Z"/><path class="cls-1" d="M274.55,172.23a16.79,16.79,0,0,1,0-8.75c.93-2.95,3.45-4.64,6.8-4.64s5.87,1.69,6.81,4.64a17.07,17.07,0,0,1,0,8.75,6.71,6.71,0,0,1-6.81,4.64C278,176.87,275.48,175.15,274.55,172.23Zm10.69-.86a11.27,11.27,0,0,0,.4-3.53,10.91,10.91,0,0,0-.4-3.49,4.15,4.15,0,0,0-7.78,0,11.26,11.26,0,0,0-.39,3.49,11.63,11.63,0,0,0,.39,3.53,4.16,4.16,0,0,0,7.78,0Z"/><path class="cls-1" d="M293.23,176.48a.35.35,0,0,1-.36-.36V159.59a.35.35,0,0,1,.36-.36h2.31a.35.35,0,0,1,.36.36v1.77h0a4.8,4.8,0,0,1,4.57-2.52,5.3,5.3,0,0,1,3.53,1.29c.18.18.22.33.07.51l-1.33,1.76a.32.32,0,0,1-.5.07,4.89,4.89,0,0,0-2.67-.82c-2.62,0-3.7,2-3.7,5v9.43a.35.35,0,0,1-.36.36Z"/><path class="cls-1" d="M328.94,176.48a.35.35,0,0,1-.36-.36V166c0-2.77-1.26-4.39-3.85-4.39a3.89,3.89,0,0,0-4,4.21v10.26a.34.34,0,0,1-.36.36h-2.3a.34.34,0,0,1-.36-.36V166c0-2.77-1.26-4.39-3.85-4.39a3.87,3.87,0,0,0-4,4.21v10.26a.35.35,0,0,1-.36.36h-2.31a.35.35,0,0,1-.36-.36V159.59a.35.35,0,0,1,.36-.36h2.31a.35.35,0,0,1,.36.36v1.59h0a6.09,6.09,0,0,1,9.86.36h0a6.41,6.41,0,0,1,5.58-2.7c4,0,6.15,2.55,6.15,6.48v10.8a.34.34,0,0,1-.35.36Z"/><path class="cls-1" d="M347.05,176.48a.34.34,0,0,1-.36-.36V174.6h0c-.79,1.3-2.48,2.27-5.11,2.27-3.27,0-5.79-1.69-5.79-5.18s2.52-5.33,6.73-5.33h3.92c.15,0,.22-.07.22-.21v-1.26c0-2.38-.94-3.39-4.14-3.39a6.73,6.73,0,0,0-4.18,1.23.32.32,0,0,1-.5,0l-1-1.66a.37.37,0,0,1,.07-.5,9.56,9.56,0,0,1,5.87-1.69c4.89,0,6.76,1.62,6.76,5.87v11.41a.34.34,0,0,1-.36.36Zm-.43-5.58V169a.2.2,0,0,0-.22-.22H343c-3,0-4.29.87-4.29,2.81,0,1.77,1.3,2.7,3.6,2.7C345,174.28,346.62,173,346.62,170.9Z"/><path class="cls-1" d="M354.07,163.48a6.68,6.68,0,0,1,6.8-4.64,6.94,6.94,0,0,1,5.91,2.91c.11.18.11.33-.11.51l-1.58,1.29a.32.32,0,0,1-.51,0,4.24,4.24,0,0,0-3.71-1.87,3.74,3.74,0,0,0-3.85,2.7,11.77,11.77,0,0,0-.39,3.49,11.89,11.89,0,0,0,.39,3.53,3.74,3.74,0,0,0,3.85,2.69,4.24,4.24,0,0,0,3.71-1.87.32.32,0,0,1,.51,0l1.58,1.29c.22.18.22.33.11.51a6.92,6.92,0,0,1-5.91,2.91c-3.31,0-5.83-1.65-6.8-4.64a18,18,0,0,1,0-8.75Z"/><path class="cls-1" d="M371.13,155.35a.35.35,0,0,1-.36-.36v-2.63a.34.34,0,0,1,.36-.36h2.45a.34.34,0,0,1,.36.36V155a.34.34,0,0,1-.36.36Zm.08,21.13a.34.34,0,0,1-.36-.36V159.59a.34.34,0,0,1,.36-.36h2.3a.34.34,0,0,1,.36.36v16.53a.34.34,0,0,1-.36.36Z"/><path class="cls-1" d="M378.59,172.23a16.79,16.79,0,0,1,0-8.75c.93-2.95,3.45-4.64,6.8-4.64s5.87,1.69,6.8,4.64a16.79,16.79,0,0,1,0,8.75c-.93,2.92-3.45,4.64-6.8,4.64S379.52,175.15,378.59,172.23Zm10.69-.86a11.32,11.32,0,0,0,.39-3.53,11,11,0,0,0-.39-3.49,4.15,4.15,0,0,0-7.78,0,11,11,0,0,0-.39,3.49,11.32,11.32,0,0,0,.39,3.53,4.16,4.16,0,0,0,7.78,0Zm-5.19-14.94c-.21,0-.32-.15-.21-.36l2.73-4.43a.65.65,0,0,1,.62-.36h2.37c.22,0,.32.18.18.36l-3.31,4.43a.71.71,0,0,1-.68.36Z"/><path class="cls-1" d="M408.1,176.48a.35.35,0,0,1-.36-.36V166c0-2.77-1.26-4.39-3.85-4.39a3.87,3.87,0,0,0-4,4.21v10.26a.34.34,0,0,1-.36.36h-2.3a.34.34,0,0,1-.36-.36V159.59a.34.34,0,0,1,.36-.36h2.3a.34.34,0,0,1,.36.36v1.59h0a5.45,5.45,0,0,1,4.82-2.34c3.75,0,6,2.55,6,6.48v10.8a.35.35,0,0,1-.36.36Z"/><path class="cls-1" d="M423.19,163.48a6.68,6.68,0,0,1,6.8-4.64,6.94,6.94,0,0,1,5.91,2.91.35.35,0,0,1-.11.51l-1.59,1.29a.31.31,0,0,1-.5,0,4.24,4.24,0,0,0-3.71-1.87,3.74,3.74,0,0,0-3.85,2.7,11.44,11.44,0,0,0-.39,3.49,11.56,11.56,0,0,0,.39,3.53,3.74,3.74,0,0,0,3.85,2.69,4.24,4.24,0,0,0,3.71-1.87.31.31,0,0,1,.5,0l1.59,1.29a.35.35,0,0,1,.11.51,6.92,6.92,0,0,1-5.91,2.91c-3.31,0-5.83-1.65-6.8-4.64a18,18,0,0,1,0-8.75Z"/><path class="cls-1" d="M439.07,172.19a17.21,17.21,0,0,1,0-8.71,7.25,7.25,0,0,1,13.53,0,15.08,15.08,0,0,1,.54,4.93.35.35,0,0,1-.39.36H441.8a.2.2,0,0,0-.22.22,6.47,6.47,0,0,0,.29,2.09,4.26,4.26,0,0,0,4.36,3,5.64,5.64,0,0,0,4.43-1.9.36.36,0,0,1,.54-.07l1.47,1.33a.32.32,0,0,1,0,.5,8.38,8.38,0,0,1-6.73,3C442.48,176.87,440,175.18,439.07,172.19Zm10.72-5.83c.15,0,.22-.07.22-.21a6.08,6.08,0,0,0-.25-2,4.25,4.25,0,0,0-7.92,0,6.05,6.05,0,0,0-.26,2,.19.19,0,0,0,.22.21Z"/><path class="cls-1" d="M457.6,176.48a.34.34,0,0,1-.35-.36V159.59a.34.34,0,0,1,.35-.36h2.31a.35.35,0,0,1,.36.36v1.77h0a4.81,4.81,0,0,1,4.58-2.52,5.29,5.29,0,0,1,3.52,1.29c.18.18.22.33.08.51l-1.34,1.76a.32.32,0,0,1-.5.07,4.89,4.89,0,0,0-2.66-.82c-2.63,0-3.71,2-3.71,5v9.43a.35.35,0,0,1-.36.36Z"/><path class="cls-1" d="M476.29,176.66c-3.35,0-4.65-1.51-4.65-4.9V161.9c0-.15-.07-.22-.21-.22H470a.34.34,0,0,1-.36-.36v-1.73a.34.34,0,0,1,.36-.36h1.44a.19.19,0,0,0,.21-.21v-4.86a.34.34,0,0,1,.36-.36h2.31a.34.34,0,0,1,.36.36V159a.19.19,0,0,0,.21.21h2.74a.35.35,0,0,1,.36.36v1.73a.34.34,0,0,1-.36.36h-2.74c-.14,0-.21.07-.21.22v9.75c0,1.73.65,2.2,2.19,2.2h.76a.34.34,0,0,1,.36.36v2.09a.35.35,0,0,1-.36.36Z"/><path class="cls-1" d="M482.23,155.35a.34.34,0,0,1-.36-.36v-2.63a.34.34,0,0,1,.36-.36h2.45a.34.34,0,0,1,.36.36V155a.35.35,0,0,1-.36.36Zm.07,21.13a.34.34,0,0,1-.36-.36V159.59a.34.34,0,0,1,.36-.36h2.3a.34.34,0,0,1,.36.36v16.53a.34.34,0,0,1-.36.36Z"/><path class="cls-1" d="M491.08,176.48a.35.35,0,0,1-.36-.36V161.9c0-.15-.07-.22-.21-.22H489a.34.34,0,0,1-.36-.36v-1.73a.35.35,0,0,1,.36-.36h1.48a.19.19,0,0,0,.21-.21v-1.48c0-4.06,1.66-5.54,5.26-5.54h1.33a.34.34,0,0,1,.36.36v2.09a.34.34,0,0,1-.36.36h-.93c-2.2,0-2.63.47-2.63,2.59V159a.19.19,0,0,0,.21.21h3.35a.34.34,0,0,1,.36.36v1.73a.34.34,0,0,1-.36.36H494c-.14,0-.21.07-.21.22v14.22a.35.35,0,0,1-.36.36Zm10.8-21.13a.35.35,0,0,1-.36-.36v-2.63a.34.34,0,0,1,.36-.36h2.45a.34.34,0,0,1,.36.36V155a.34.34,0,0,1-.36.36Zm.07,21.13a.35.35,0,0,1-.36-.36V159.59a.35.35,0,0,1,.36-.36h2.31a.35.35,0,0,1,.36.36v16.53a.35.35,0,0,1-.36.36Z"/><path class="cls-1" d="M509.3,163.48a6.68,6.68,0,0,1,6.8-4.64,6.94,6.94,0,0,1,5.91,2.91.35.35,0,0,1-.11.51l-1.59,1.29a.31.31,0,0,1-.5,0,4.24,4.24,0,0,0-3.71-1.87,3.74,3.74,0,0,0-3.85,2.7,11.4,11.4,0,0,0-.4,3.49,11.52,11.52,0,0,0,.4,3.53,3.74,3.74,0,0,0,3.85,2.69,4.24,4.24,0,0,0,3.71-1.87.31.31,0,0,1,.5,0l1.59,1.29a.35.35,0,0,1,.11.51,6.92,6.92,0,0,1-5.91,2.91c-3.31,0-5.83-1.65-6.8-4.64a18,18,0,0,1,0-8.75Z"/><path class="cls-1" d="M536.08,176.48a.35.35,0,0,1-.36-.36V174.6h0c-.8,1.3-2.49,2.27-5.12,2.27-3.27,0-5.79-1.69-5.79-5.18s2.52-5.33,6.73-5.33h3.92c.15,0,.22-.07.22-.21v-1.26c0-2.38-.94-3.39-4.14-3.39a6.73,6.73,0,0,0-4.18,1.23.32.32,0,0,1-.5,0l-1-1.66a.38.38,0,0,1,.07-.5,9.56,9.56,0,0,1,5.87-1.69c4.89,0,6.77,1.62,6.77,5.87v11.41a.35.35,0,0,1-.36.36Zm-.43-5.58V169a.2.2,0,0,0-.22-.22H532c-3,0-4.29.87-4.29,2.81,0,1.77,1.3,2.7,3.6,2.7C534,174.28,535.65,173,535.65,170.9Z"/><path class="cls-1" d="M554.41,176.48a.34.34,0,0,1-.36-.36v-1.66h0c-.83,1.37-2.3,2.41-4.9,2.41a5.71,5.71,0,0,1-5.94-4.14,19.78,19.78,0,0,1,0-9.75,5.71,5.71,0,0,1,5.94-4.14c2.6,0,4.07,1,4.9,2.37h0v-8.85a.34.34,0,0,1,.36-.36h2.3a.34.34,0,0,1,.36.36v23.76a.35.35,0,0,1-.36.36Zm-.76-5a11,11,0,0,0,.4-3.6,11.12,11.12,0,0,0-.4-3.6,4.08,4.08,0,0,0-7.6,0,12.54,12.54,0,0,0-.39,3.6,12.28,12.28,0,0,0,.39,3.6,4.07,4.07,0,0,0,7.6,0Z"/><path class="cls-1" d="M572.69,176.48a.35.35,0,0,1-.36-.36V174.6h0c-.8,1.3-2.49,2.27-5.11,2.27-3.28,0-5.8-1.69-5.8-5.18s2.52-5.33,6.73-5.33H572c.15,0,.22-.07.22-.21v-1.26c0-2.38-.93-3.39-4.14-3.39a6.68,6.68,0,0,0-4.17,1.23.33.33,0,0,1-.51,0l-1-1.66a.38.38,0,0,1,.07-.5,9.56,9.56,0,0,1,5.87-1.69c4.89,0,6.77,1.62,6.77,5.87v11.41a.35.35,0,0,1-.36.36Zm-.43-5.58V169a.2.2,0,0,0-.22-.22h-3.45c-3,0-4.28.87-4.28,2.81,0,1.77,1.29,2.7,3.6,2.7C570.61,174.28,572.26,173,572.26,170.9Z"/><path class="cls-1" d="M579.79,173a.34.34,0,0,1,.36-.36h2.73a.34.34,0,0,1,.36.36v3.1a.34.34,0,0,1-.36.36h-2.73a.34.34,0,0,1-.36-.36Z"/></g></g></svg>