<svg xmlns="http://www.w3.org/2000/svg" viewBox="0 0 602.16 139.59"><defs><style>.cls-1{fill:#4d4d4d;}</style></defs><title>r5</title><g id="Capa_2" data-name="Capa 2"><g id="control_vector" data-name="control vector"><path class="cls-1" d="M.43,1.08A.34.34,0,0,1,.79.72H9c4.13,0,6.87,1.76,8,5.22.43,1.33.64,2.66.64,7s-.21,5.69-.64,7c-1.12,3.45-3.86,5.22-8,5.22H.79a.35.35,0,0,1-.36-.36ZM3.85,22.21h4.5c3,0,4.79-1,5.58-3.35.32-.9.5-2.09.5-5.9s-.18-5-.5-5.91c-.79-2.37-2.63-3.34-5.58-3.34H3.85a.19.19,0,0,0-.21.21V22C3.64,22.14,3.71,22.21,3.85,22.21Z"/><path class="cls-1" d="M21.6,20.91A13.43,13.43,0,0,1,21,16.56a13.43,13.43,0,0,1,.54-4.36,6.67,6.67,0,0,1,6.77-4.64A6.68,6.68,0,0,1,35.1,12.2a15.08,15.08,0,0,1,.54,4.93.35.35,0,0,1-.4.36H24.33a.19.19,0,0,0-.21.22,6.47,6.47,0,0,0,.29,2.09,4.25,4.25,0,0,0,4.35,3,5.64,5.64,0,0,0,4.43-1.9c.18-.18.36-.22.54-.07l1.48,1.33a.31.31,0,0,1,0,.5,8.38,8.38,0,0,1-6.73,2.95C25,25.59,22.54,23.9,21.6,20.91Zm10.73-5.83a.19.19,0,0,0,.21-.21,6.08,6.08,0,0,0-.25-1.95,3.9,3.9,0,0,0-4-2.7,3.9,3.9,0,0,0-4,2.7,6.08,6.08,0,0,0-.25,1.95.19.19,0,0,0,.21.21Z"/><path class="cls-1" d="M43.92,25.38c-3,0-4.21-1.44-4.21-4.54V1.08a.34.34,0,0,1,.36-.36h2.3a.34.34,0,0,1,.36.36V20.66c0,1.44.54,1.91,1.73,1.91h.68a.34.34,0,0,1,.36.36V25a.34.34,0,0,1-.36.36Z"/><path class="cls-1" d="M49.32,4.07A.34.34,0,0,1,49,3.71V1.08a.34.34,0,0,1,.36-.36h2.45a.34.34,0,0,1,.36.36V3.71a.35.35,0,0,1-.36.36Zm.07,21.13a.34.34,0,0,1-.36-.36V8.31A.34.34,0,0,1,49.39,8h2.3a.34.34,0,0,1,.36.36V24.84a.34.34,0,0,1-.36.36Z"/><path class="cls-1" d="M79.27,25.2a.34.34,0,0,1-.36-.36V14.76c0-2.77-1.26-4.39-3.85-4.39a3.88,3.88,0,0,0-4,4.21V24.84a.35.35,0,0,1-.36.36H68.43a.35.35,0,0,1-.36-.36V14.76c0-2.77-1.26-4.39-3.85-4.39a3.87,3.87,0,0,0-4,4.21V24.84a.34.34,0,0,1-.36.36H57.6a.34.34,0,0,1-.36-.36V8.31A.34.34,0,0,1,57.6,8h2.3a.34.34,0,0,1,.36.36V9.9h0a5.45,5.45,0,0,1,4.82-2.34,5.41,5.41,0,0,1,5,2.7h0a6.4,6.4,0,0,1,5.58-2.7c4,0,6.15,2.55,6.15,6.48v10.8a.34.34,0,0,1-.36.36Z"/><path class="cls-1" d="M87.23,4.07a.34.34,0,0,1-.36-.36V1.08a.34.34,0,0,1,.36-.36h2.44a.34.34,0,0,1,.36.36V3.71a.34.34,0,0,1-.36.36ZM87.3,25.2a.34.34,0,0,1-.36-.36V8.31A.34.34,0,0,1,87.3,8h2.3a.34.34,0,0,1,.36.36V24.84a.34.34,0,0,1-.36.36Z"/><path class="cls-1" d="M100.15,25.38c-3.35,0-4.65-1.52-4.65-4.9V10.62c0-.15-.07-.22-.21-.22H93.85a.34.34,0,0,1-.36-.36V8.31A.34.34,0,0,1,93.85,8h1.44a.19.19,0,0,0,.21-.21V2.88a.34.34,0,0,1,.37-.36h2.3a.34.34,0,0,1,.36.36V7.74c0,.14.07.21.22.21h2.73a.34.34,0,0,1,.36.36V10a.34.34,0,0,1-.36.36H98.75a.19.19,0,0,0-.22.22v9.75c0,1.73.65,2.2,2.19,2.2h.76a.34.34,0,0,1,.36.36V25a.34.34,0,0,1-.36.36Z"/><path class="cls-1" d="M105.33,20.91a13.48,13.48,0,0,1-.57-4.35,13.43,13.43,0,0,1,.54-4.36,7.25,7.25,0,0,1,13.53,0,15.08,15.08,0,0,1,.54,4.93.35.35,0,0,1-.39.36H108.07a.2.2,0,0,0-.22.22,6.47,6.47,0,0,0,.29,2.09,4.25,4.25,0,0,0,4.36,3,5.6,5.6,0,0,0,4.42-1.9c.18-.18.36-.22.54-.07l1.48,1.33a.32.32,0,0,1,0,.5,8.39,8.39,0,0,1-6.74,2.95C108.75,25.59,106.27,23.9,105.33,20.91Zm10.73-5.83a.19.19,0,0,0,.22-.21,6.05,6.05,0,0,0-.26-1.95,4.25,4.25,0,0,0-7.92,0,6.08,6.08,0,0,0-.25,1.95c0,.14.07.21.22.21Z"/><path class="cls-1" d="M131,20.91a13.48,13.48,0,0,1-.57-4.35,13.43,13.43,0,0,1,.54-4.36,7.25,7.25,0,0,1,13.53,0,15.08,15.08,0,0,1,.54,4.93.35.35,0,0,1-.39.36H133.7a.2.2,0,0,0-.22.22,6.47,6.47,0,0,0,.29,2.09,4.26,4.26,0,0,0,4.36,3,5.6,5.6,0,0,0,4.42-1.9c.19-.18.37-.22.55-.07l1.47,1.33a.32.32,0,0,1,0,.5,8.38,8.38,0,0,1-6.73,2.95C134.38,25.59,131.9,23.9,131,20.91Zm10.73-5.83a.19.19,0,0,0,.22-.21,6.37,6.37,0,0,0-.25-1.95,4.25,4.25,0,0,0-7.92,0,6.05,6.05,0,0,0-.26,1.95.19.19,0,0,0,.22.21Z"/><path class="cls-1" d="M153.28,25.38c-3,0-4.21-1.44-4.21-4.54V1.08a.34.34,0,0,1,.36-.36h2.31a.34.34,0,0,1,.36.36V20.66c0,1.44.54,1.91,1.72,1.91h.69a.34.34,0,0,1,.36.36V25a.35.35,0,0,1-.36.36Z"/><path class="cls-1" d="M176.75,25.2a.35.35,0,0,1-.36-.36V23.32h0c-.79,1.3-2.48,2.27-5.11,2.27-3.28,0-5.8-1.69-5.8-5.18,0-3.64,2.52-5.33,6.73-5.33h3.93a.19.19,0,0,0,.21-.21V13.61c0-2.38-.93-3.39-4.14-3.39A6.7,6.7,0,0,0,168,11.45a.33.33,0,0,1-.51,0l-1-1.66a.38.38,0,0,1,.07-.5,9.58,9.58,0,0,1,5.87-1.69c4.9,0,6.77,1.62,6.77,5.87V24.84a.35.35,0,0,1-.36.36Zm-.43-5.58V17.71a.19.19,0,0,0-.21-.22h-3.46c-3,0-4.28.87-4.28,2.81,0,1.76,1.29,2.7,3.6,2.7C174.67,23,176.32,21.74,176.32,19.62Z"/><path class="cls-1" d="M183.78,12.2c1-3,3.49-4.64,6.8-4.64a6.9,6.9,0,0,1,5.9,2.91c.11.18.11.33-.11.51l-1.58,1.29a.31.31,0,0,1-.5,0,4.24,4.24,0,0,0-3.71-1.87,3.74,3.74,0,0,0-3.85,2.7,11.4,11.4,0,0,0-.4,3.49,11.41,11.41,0,0,0,.4,3.52,3.74,3.74,0,0,0,3.85,2.7,4.24,4.24,0,0,0,3.71-1.87.31.31,0,0,1,.5,0l1.58,1.29c.22.18.22.33.11.51a6.9,6.9,0,0,1-5.9,2.91c-3.31,0-5.83-1.65-6.8-4.64a14.68,14.68,0,0,1-.54-4.39A14.65,14.65,0,0,1,183.78,12.2Z"/><path class="cls-1" d="M199.62,12.2c1-3,3.49-4.64,6.8-4.64a6.9,6.9,0,0,1,5.9,2.91c.11.18.11.33-.11.51l-1.58,1.29a.31.31,0,0,1-.5,0,4.24,4.24,0,0,0-3.71-1.87,3.74,3.74,0,0,0-3.85,2.7,11.4,11.4,0,0,0-.4,3.49,11.41,11.41,0,0,0,.4,3.52,3.74,3.74,0,0,0,3.85,2.7,4.24,4.24,0,0,0,3.71-1.87.31.31,0,0,1,.5,0l1.58,1.29c.22.18.22.33.11.51a6.9,6.9,0,0,1-5.9,2.91c-3.31,0-5.83-1.65-6.8-4.64a14.68,14.68,0,0,1-.54-4.39A14.65,14.65,0,0,1,199.62,12.2Z"/><path class="cls-1" d="M215.49,20.91a13.48,13.48,0,0,1-.57-4.35,13.16,13.16,0,0,1,.54-4.36,7.25,7.25,0,0,1,13.53,0,15.08,15.08,0,0,1,.54,4.93.35.35,0,0,1-.4.36h-10.9a.2.2,0,0,0-.22.22,6.47,6.47,0,0,0,.29,2.09,4.25,4.25,0,0,0,4.35,3,5.61,5.61,0,0,0,4.43-1.9c.18-.18.36-.22.54-.07l1.48,1.33a.31.31,0,0,1,0,.5,8.35,8.35,0,0,1-6.73,2.95C218.91,25.59,216.43,23.9,215.49,20.91Zm10.73-5.83a.19.19,0,0,0,.21-.21,6.08,6.08,0,0,0-.25-1.95,4.25,4.25,0,0,0-7.92,0,6.08,6.08,0,0,0-.25,1.95c0,.14.07.21.22.21Z"/><path class="cls-1" d="M232.48,23a.35.35,0,0,1,0-.5L234,20.91a.35.35,0,0,1,.5,0,8.37,8.37,0,0,0,5.33,2c2.52,0,3.78-1.08,3.78-2.62,0-1.37-.65-2.13-3.35-2.42l-1.83-.18c-3.39-.36-5.15-2.05-5.15-4.86,0-3.27,2.34-5.25,6.41-5.25a10.32,10.32,0,0,1,6.12,1.91.34.34,0,0,1,.07.5l-1.23,1.55a.35.35,0,0,1-.5.07,9.09,9.09,0,0,0-4.64-1.4c-2.16,0-3.28,1-3.28,2.37s.83,2.09,3.38,2.34l1.8.18c3.5.33,5.19,2.09,5.19,4.86,0,3.38-2.45,5.65-6.95,5.65A10.75,10.75,0,0,1,232.48,23Z"/><path class="cls-1" d="M250.12,21a13.14,13.14,0,0,1-.57-4.39,13.07,13.07,0,0,1,.57-4.36c.94-2.95,3.46-4.64,6.81-4.64s5.86,1.69,6.8,4.64a12.81,12.81,0,0,1,.57,4.36,12.89,12.89,0,0,1-.57,4.39,7.31,7.31,0,0,1-13.61,0Zm10.69-.87a11.16,11.16,0,0,0,.4-3.52,10.91,10.91,0,0,0-.4-3.49,4.15,4.15,0,0,0-7.77,0,10.91,10.91,0,0,0-.4,3.49,11.16,11.16,0,0,0,.4,3.52,4.15,4.15,0,0,0,7.77,0Z"/><path class="cls-1" d="M286.8,25.2a.35.35,0,0,1-.36-.36V23.32h0c-.79,1.3-2.49,2.27-5.11,2.27-3.28,0-5.8-1.69-5.8-5.18,0-3.64,2.52-5.33,6.73-5.33h3.93a.19.19,0,0,0,.21-.21V13.61c0-2.38-.93-3.39-4.14-3.39a6.7,6.7,0,0,0-4.17,1.23.33.33,0,0,1-.51,0l-1-1.66a.38.38,0,0,1,.07-.5,9.56,9.56,0,0,1,5.87-1.69c4.9,0,6.77,1.62,6.77,5.87V24.84a.35.35,0,0,1-.36.36Zm-.43-5.58V17.71a.19.19,0,0,0-.21-.22H282.7c-3,0-4.28.87-4.28,2.81,0,1.76,1.29,2.7,3.6,2.7C284.72,23,286.37,21.74,286.37,19.62Z"/><path class="cls-1" d="M312.69,25.2a.34.34,0,0,1-.36-.36V23.32h0c-.79,1.3-2.48,2.27-5.11,2.27-3.28,0-5.8-1.69-5.8-5.18,0-3.64,2.52-5.33,6.74-5.33H312a.19.19,0,0,0,.22-.21V13.61c0-2.38-.94-3.39-4.14-3.39a6.71,6.71,0,0,0-4.18,1.23c-.18.14-.4.14-.5,0l-1-1.66a.38.38,0,0,1,.08-.5,9.53,9.53,0,0,1,5.86-1.69c4.9,0,6.77,1.62,6.77,5.87V24.84a.34.34,0,0,1-.36.36Zm-.43-5.58V17.71a.2.2,0,0,0-.22-.22h-3.46c-3,0-4.28.87-4.28,2.81,0,1.76,1.3,2.7,3.6,2.7C310.6,23,312.26,21.74,312.26,19.62ZM307.4,5.15c-.22,0-.33-.15-.22-.36L309.92.36a.63.63,0,0,1,.61-.36h2.37c.22,0,.33.18.18.36l-3.31,4.43a.7.7,0,0,1-.68.36Z"/><path class="cls-1" d="M320.57,25.2a.35.35,0,0,1-.36-.36V8.31a.35.35,0,0,1,.36-.36h2.31a.35.35,0,0,1,.36.36v1.77h0a4.8,4.8,0,0,1,4.57-2.52,5.3,5.3,0,0,1,3.53,1.29c.18.18.22.33.07.51l-1.33,1.76a.32.32,0,0,1-.5.07,4.89,4.89,0,0,0-2.67-.82c-2.62,0-3.7,2.05-3.7,5v9.43a.35.35,0,0,1-.36.36Z"/><path class="cls-1" d="M333.14,20.91a13.43,13.43,0,0,1-.58-4.35,13.43,13.43,0,0,1,.54-4.36,7.25,7.25,0,0,1,13.53,0,14.8,14.8,0,0,1,.54,4.93.35.35,0,0,1-.39.36H335.87a.19.19,0,0,0-.21.22,6.5,6.5,0,0,0,.28,2.09,4.27,4.27,0,0,0,4.36,3,5.64,5.64,0,0,0,4.43-1.9c.18-.18.36-.22.54-.07l1.47,1.33a.32.32,0,0,1,0,.5,8.38,8.38,0,0,1-6.73,2.95C336.56,25.59,334.07,23.9,333.14,20.91Zm10.72-5.83c.15,0,.22-.07.22-.21a6.08,6.08,0,0,0-.25-1.95,4.25,4.25,0,0,0-7.92,0,6.08,6.08,0,0,0-.25,1.95.19.19,0,0,0,.21.21Z"/><path class="cls-1" d="M361.76,25.2a.34.34,0,0,1-.36-.36V23.32h0c-.79,1.3-2.48,2.27-5.11,2.27-3.28,0-5.8-1.69-5.8-5.18,0-3.64,2.52-5.33,6.73-5.33h3.93a.19.19,0,0,0,.21-.21V13.61c0-2.38-.93-3.39-4.14-3.39A6.7,6.7,0,0,0,353,11.45a.33.33,0,0,1-.51,0l-1-1.66a.38.38,0,0,1,.07-.5,9.58,9.58,0,0,1,5.87-1.69c4.9,0,6.77,1.62,6.77,5.87V24.84a.35.35,0,0,1-.36.36Zm-.44-5.58V17.71a.19.19,0,0,0-.21-.22h-3.46c-3,0-4.28.87-4.28,2.81,0,1.76,1.29,2.7,3.6,2.7C359.67,23,361.32,21.74,361.32,19.62Z"/><path class="cls-1" d="M368.09,23a.35.35,0,0,1,0-.5l1.48-1.59a.35.35,0,0,1,.5,0,8.37,8.37,0,0,0,5.33,2c2.52,0,3.78-1.08,3.78-2.62,0-1.37-.65-2.13-3.35-2.42L374,17.67c-3.39-.36-5.15-2.05-5.15-4.86,0-3.27,2.34-5.25,6.41-5.25a10.32,10.32,0,0,1,6.12,1.91.36.36,0,0,1,.07.5l-1.23,1.55a.35.35,0,0,1-.5.07,9.09,9.09,0,0,0-4.64-1.4c-2.16,0-3.28,1-3.28,2.37s.83,2.09,3.38,2.34l1.8.18c3.49.33,5.19,2.09,5.19,4.86,0,3.38-2.45,5.65-6.95,5.65A10.75,10.75,0,0,1,368.09,23Z"/><path class="cls-1" d="M404.92,25.2a.34.34,0,0,1-.36-.36V23.18h0c-.83,1.37-2.3,2.41-4.89,2.41-3,0-5.08-1.4-5.94-4.14a14.28,14.28,0,0,1-.61-4.89,14.2,14.2,0,0,1,.61-4.86c.86-2.74,2.95-4.14,5.94-4.14,2.59,0,4.06,1,4.89,2.37h0V1.08a.34.34,0,0,1,.36-.36h2.3a.34.34,0,0,1,.36.36V24.84a.34.34,0,0,1-.36.36Zm-.76-5a11,11,0,0,0,.4-3.6,11.12,11.12,0,0,0-.4-3.6,4.08,4.08,0,0,0-7.59,0,12.15,12.15,0,0,0-.4,3.6,11.89,11.89,0,0,0,.4,3.6,4.06,4.06,0,0,0,7.59,0Z"/><path class="cls-1" d="M412.3,20.91a13.43,13.43,0,0,1-.58-4.35,13.43,13.43,0,0,1,.54-4.36,7.26,7.26,0,0,1,13.54,0,15.08,15.08,0,0,1,.54,4.93.35.35,0,0,1-.4.36H415a.2.2,0,0,0-.22.22,6.47,6.47,0,0,0,.29,2.09,4.25,4.25,0,0,0,4.35,3,5.63,5.63,0,0,0,4.43-1.9c.18-.18.36-.22.54-.07l1.48,1.33a.31.31,0,0,1,0,.5,8.38,8.38,0,0,1-6.73,2.95C415.72,25.59,413.24,23.9,412.3,20.91ZM423,15.08a.19.19,0,0,0,.21-.21,6.08,6.08,0,0,0-.25-1.95,4.25,4.25,0,0,0-7.92,0,6.08,6.08,0,0,0-.25,1.95c0,.14.07.21.22.21Z"/><path class="cls-1" d="M443.4,25.38c-3.35,0-4.64-1.52-4.64-4.9V10.62a.19.19,0,0,0-.22-.22H437.1a.34.34,0,0,1-.36-.36V8.31A.35.35,0,0,1,437.1,8h1.44c.15,0,.22-.07.22-.21V2.88a.34.34,0,0,1,.36-.36h2.3a.34.34,0,0,1,.36.36V7.74c0,.14.07.21.22.21h2.73a.34.34,0,0,1,.36.36V10a.34.34,0,0,1-.36.36H442a.19.19,0,0,0-.22.22v9.75c0,1.73.65,2.2,2.2,2.2h.75a.34.34,0,0,1,.36.36V25a.34.34,0,0,1-.36.36Z"/><path class="cls-1" d="M449.41,25.2a.35.35,0,0,1-.36-.36V8.31a.35.35,0,0,1,.36-.36h2.31a.35.35,0,0,1,.36.36v1.77h0a4.81,4.81,0,0,1,4.58-2.52,5.29,5.29,0,0,1,3.52,1.29c.18.18.22.33.08.51L459,11.12a.32.32,0,0,1-.5.07,4.89,4.89,0,0,0-2.66-.82c-2.63,0-3.71,2.05-3.71,5v9.43a.35.35,0,0,1-.36.36Z"/><path class="cls-1" d="M472.67,25.2a.34.34,0,0,1-.36-.36V23.32h0c-.79,1.3-2.48,2.27-5.11,2.27-3.27,0-5.79-1.69-5.79-5.18,0-3.64,2.52-5.33,6.73-5.33H472c.15,0,.22-.07.22-.21V13.61c0-2.38-.94-3.39-4.14-3.39a6.71,6.71,0,0,0-4.18,1.23.32.32,0,0,1-.5,0l-1-1.66a.38.38,0,0,1,.07-.5,9.54,9.54,0,0,1,5.87-1.69c4.89,0,6.76,1.62,6.76,5.87V24.84a.34.34,0,0,1-.36.36Zm-.43-5.58V17.71a.2.2,0,0,0-.22-.22h-3.45c-3,0-4.29.87-4.29,2.81,0,1.76,1.3,2.7,3.6,2.7C470.58,23,472.24,21.74,472.24,19.62Z"/><path class="cls-1" d="M480.55,25.2a.35.35,0,0,1-.36-.36V1.08a.34.34,0,0,1,.36-.36h2.31a.34.34,0,0,1,.36.36V9.93h0c.83-1.36,2.31-2.37,4.9-2.37,3,0,5.07,1.4,5.94,4.14a14.2,14.2,0,0,1,.61,4.86,14.28,14.28,0,0,1-.61,4.89c-.87,2.74-2.95,4.14-5.94,4.14-2.59,0-4.07-1-4.9-2.41h0v1.66a.35.35,0,0,1-.36.36Zm10.66-5a11.89,11.89,0,0,0,.4-3.6,12.15,12.15,0,0,0-.4-3.6,4.08,4.08,0,0,0-7.6,0,11.47,11.47,0,0,0-.39,3.6,11.35,11.35,0,0,0,.39,3.6,4.07,4.07,0,0,0,7.6,0Z"/><path class="cls-1" d="M509.28,25.2a.35.35,0,0,1-.36-.36V23.32h0c-.79,1.3-2.48,2.27-5.11,2.27-3.27,0-5.79-1.69-5.79-5.18,0-3.64,2.52-5.33,6.73-5.33h3.92c.15,0,.22-.07.22-.21V13.61c0-2.38-.94-3.39-4.14-3.39a6.73,6.73,0,0,0-4.18,1.23.32.32,0,0,1-.5,0l-1-1.66a.38.38,0,0,1,.07-.5A9.56,9.56,0,0,1,505,7.56c4.89,0,6.76,1.62,6.76,5.87V24.84a.34.34,0,0,1-.35.36Zm-.43-5.58V17.71a.2.2,0,0,0-.22-.22h-3.45c-3,0-4.29.87-4.29,2.81,0,1.76,1.3,2.7,3.6,2.7C507.19,23,508.85,21.74,508.85,19.62Z"/><path class="cls-1" d="M514,31.68a.35.35,0,0,1-.36-.36V29.23a.34.34,0,0,1,.36-.36h.58c1.69,0,2.27-.47,2.27-2.31V8.31a.34.34,0,0,1,.36-.36h2.3a.34.34,0,0,1,.36.36V26.49c0,3.71-1.66,5.19-5.15,5.19Zm3.13-27.61a.35.35,0,0,1-.36-.36V1.08a.34.34,0,0,1,.36-.36h2.45a.34.34,0,0,1,.36.36V3.71a.34.34,0,0,1-.36.36Z"/><path class="cls-1" d="M524.55,21a12.85,12.85,0,0,1-.58-4.39,12.78,12.78,0,0,1,.58-4.36c.93-2.95,3.45-4.64,6.8-4.64s5.87,1.69,6.8,4.64a12.78,12.78,0,0,1,.58,4.36,12.85,12.85,0,0,1-.58,4.39,7.3,7.3,0,0,1-13.6,0Zm10.69-.87a11.52,11.52,0,0,0,.39-3.52,11.26,11.26,0,0,0-.39-3.49,4.15,4.15,0,0,0-7.78,0,11,11,0,0,0-.39,3.49,11.21,11.21,0,0,0,.39,3.52,4.15,4.15,0,0,0,7.78,0Z"/><path class="cls-1" d="M561.59,31.68a.34.34,0,0,1-.36-.36V23.18h0c-.83,1.37-2.3,2.41-4.89,2.41-3,0-5.08-1.4-5.94-4.14a14.28,14.28,0,0,1-.61-4.89,14.2,14.2,0,0,1,.61-4.86c.86-2.74,2.95-4.14,5.94-4.14,2.59,0,4.06,1,4.89,2.37h0V8.31a.34.34,0,0,1,.36-.36h2.3a.34.34,0,0,1,.36.36v23a.34.34,0,0,1-.36.36Zm-.76-11.52a11,11,0,0,0,.4-3.6,11.12,11.12,0,0,0-.4-3.6,4.08,4.08,0,0,0-7.59,0,12.15,12.15,0,0,0-.4,3.6,11.89,11.89,0,0,0,.4,3.6,4.06,4.06,0,0,0,7.59,0Z"/><path class="cls-1" d="M580.27,25.2a.35.35,0,0,1-.36-.36V23.22h0a5.26,5.26,0,0,1-4.72,2.37c-3.78,0-6-2.59-6-6.51V8.31a.35.35,0,0,1,.36-.36h2.31a.35.35,0,0,1,.36.36v10c0,2.81,1.26,4.42,3.81,4.42,2.34,0,3.89-1.65,3.89-4.24V8.31a.35.35,0,0,1,.36-.36h2.31a.35.35,0,0,1,.36.36V24.84a.35.35,0,0,1-.36.36Z"/><path class="cls-1" d="M587.65,20.91a13.48,13.48,0,0,1-.57-4.35,13.43,13.43,0,0,1,.54-4.36,7.25,7.25,0,0,1,13.53,0,15.08,15.08,0,0,1,.54,4.93c0,.22-.14.36-.4.36h-10.9a.2.2,0,0,0-.22.22,6.47,6.47,0,0,0,.29,2.09,4.25,4.25,0,0,0,4.36,3,5.6,5.6,0,0,0,4.42-1.9c.18-.18.36-.22.54-.07l1.48,1.33a.31.31,0,0,1,0,.5,8.35,8.35,0,0,1-6.73,2.95C591.07,25.59,588.59,23.9,587.65,20.91Zm10.73-5.83a.19.19,0,0,0,.21-.21,6.08,6.08,0,0,0-.25-1.95,4.25,4.25,0,0,0-7.92,0,6.08,6.08,0,0,0-.25,1.95c0,.14.07.21.22.21Z"/><path class="cls-1" d="M.36,69.68A.34.34,0,0,1,0,69.32v-23A.34.34,0,0,1,.36,46h2.3a.34.34,0,0,1,.36.36v1.62h0c.83-1.36,2.3-2.37,4.9-2.37,3,0,5.07,1.4,5.93,4.14a14.17,14.17,0,0,1,.62,4.86,14.25,14.25,0,0,1-.62,4.89c-.86,2.74-3,4.14-5.93,4.14-2.6,0-4.07-1-4.9-2.41H3v8.14a.34.34,0,0,1-.36.36ZM11,58.16a12.28,12.28,0,0,0,.39-3.6A12.54,12.54,0,0,0,11,51a3.67,3.67,0,0,0-3.78-2.59A3.67,3.67,0,0,0,3.42,51a11.12,11.12,0,0,0-.4,3.6,11,11,0,0,0,.4,3.6,3.7,3.7,0,0,0,3.82,2.62A3.69,3.69,0,0,0,11,58.16Z"/><path class="cls-1" d="M29.48,63.2a.35.35,0,0,1-.36-.36V61.22h0a5.26,5.26,0,0,1-4.72,2.37c-3.78,0-6-2.59-6-6.51V46.31a.34.34,0,0,1,.36-.36h2.3a.34.34,0,0,1,.36.36v10c0,2.81,1.26,4.42,3.82,4.42,2.34,0,3.88-1.65,3.88-4.24V46.31a.35.35,0,0,1,.36-.36h2.31a.35.35,0,0,1,.36.36V62.84a.35.35,0,0,1-.36.36Z"/><path class="cls-1" d="M36.86,58.91a13.48,13.48,0,0,1-.57-4.35,13.43,13.43,0,0,1,.54-4.36,6.65,6.65,0,0,1,6.76-4.64,6.67,6.67,0,0,1,6.77,4.64,15.08,15.08,0,0,1,.54,4.93.35.35,0,0,1-.39.36H39.6a.2.2,0,0,0-.22.22,6.47,6.47,0,0,0,.29,2.09,4.26,4.26,0,0,0,4.36,3,5.6,5.6,0,0,0,4.42-1.9c.18-.18.36-.22.54-.07l1.48,1.33a.32.32,0,0,1,0,.5,8.38,8.38,0,0,1-6.73,3C40.28,63.59,37.8,61.9,36.86,58.91Zm10.73-5.83a.19.19,0,0,0,.22-.21,6.05,6.05,0,0,0-.26-1.95,3.88,3.88,0,0,0-4-2.7,3.88,3.88,0,0,0-4,2.7,6.05,6.05,0,0,0-.26,1.95.19.19,0,0,0,.22.21Z"/><path class="cls-1" d="M65.84,63.2a.35.35,0,0,1-.36-.36V61.18h0c-.83,1.37-2.31,2.41-4.9,2.41-3,0-5.07-1.4-5.94-4.14A14.28,14.28,0,0,1,54,54.56a14.2,14.2,0,0,1,.61-4.86c.87-2.74,3-4.14,5.94-4.14,2.59,0,4.07,1,4.9,2.37h0V39.08a.34.34,0,0,1,.36-.36h2.31a.34.34,0,0,1,.36.36V62.84a.35.35,0,0,1-.36.36Zm-.75-5a11.35,11.35,0,0,0,.39-3.6,11.47,11.47,0,0,0-.39-3.6,4.08,4.08,0,0,0-7.6,0,12.2,12.2,0,0,0-.39,3.6,11.94,11.94,0,0,0,.39,3.6,4.07,4.07,0,0,0,7.6,0Z"/><path class="cls-1" d="M84.13,63.2a.34.34,0,0,1-.36-.36V61.32h0c-.79,1.3-2.48,2.27-5.11,2.27-3.27,0-5.79-1.69-5.79-5.18s2.52-5.33,6.73-5.33h3.92c.15,0,.22-.07.22-.21V51.61c0-2.38-.94-3.39-4.14-3.39a6.73,6.73,0,0,0-4.18,1.23.32.32,0,0,1-.5,0l-1-1.66a.38.38,0,0,1,.07-.5,9.56,9.56,0,0,1,5.87-1.69c4.89,0,6.76,1.62,6.76,5.87V62.84a.34.34,0,0,1-.36.36Zm-.43-5.58V55.71a.2.2,0,0,0-.22-.22H80c-3,0-4.29.87-4.29,2.81,0,1.76,1.3,2.7,3.6,2.7C82,61,83.7,59.74,83.7,57.62Z"/><path class="cls-1" d="M102.85,63.2a.34.34,0,0,1-.36-.36V52.76c0-2.77-1.26-4.39-3.85-4.39a3.87,3.87,0,0,0-4,4.21V62.84a.34.34,0,0,1-.36.36H92a.34.34,0,0,1-.35-.36V46.31A.34.34,0,0,1,92,46h2.31a.34.34,0,0,1,.36.36V47.9h0a5.47,5.47,0,0,1,4.83-2.34c3.74,0,6,2.55,6,6.48v10.8a.34.34,0,0,1-.36.36Z"/><path class="cls-1" d="M123.44,63.38c-3.35,0-4.64-1.52-4.64-4.9V48.62a.19.19,0,0,0-.22-.22h-1.44a.34.34,0,0,1-.36-.36V46.31a.35.35,0,0,1,.36-.36h1.44c.15,0,.22-.07.22-.21V40.88a.34.34,0,0,1,.36-.36h2.3a.34.34,0,0,1,.36.36v4.86c0,.14.07.21.22.21h2.73a.34.34,0,0,1,.36.36V48a.34.34,0,0,1-.36.36H122a.19.19,0,0,0-.22.22v9.75c0,1.73.65,2.2,2.2,2.2h.75a.34.34,0,0,1,.36.36V63a.34.34,0,0,1-.36.36Z"/><path class="cls-1" d="M128.63,58.91a13.43,13.43,0,0,1-.58-4.35,13.43,13.43,0,0,1,.54-4.36,7.26,7.26,0,0,1,13.54,0,15.45,15.45,0,0,1,.53,4.93.35.35,0,0,1-.39.36H131.36a.19.19,0,0,0-.21.22,6.5,6.5,0,0,0,.28,2.09,4.27,4.27,0,0,0,4.36,3,5.64,5.64,0,0,0,4.43-1.9c.18-.18.36-.22.54-.07l1.47,1.33a.32.32,0,0,1,0,.5,8.38,8.38,0,0,1-6.73,3C132.05,63.59,129.56,61.9,128.63,58.91Zm10.72-5.83c.15,0,.22-.07.22-.21a6.08,6.08,0,0,0-.25-1.95,4.25,4.25,0,0,0-7.92,0,6.08,6.08,0,0,0-.25,1.95.19.19,0,0,0,.21.21Z"/><path class="cls-1" d="M158,63.2a.35.35,0,0,1-.36-.36V52.76c0-2.77-1.26-4.39-3.85-4.39a3.87,3.87,0,0,0-4,4.21V62.84a.34.34,0,0,1-.36.36h-2.3a.34.34,0,0,1-.36-.36V46.31a.34.34,0,0,1,.36-.36h2.3a.34.34,0,0,1,.36.36V47.9h0a5.44,5.44,0,0,1,4.82-2.34c3.74,0,6,2.55,6,6.48v10.8a.34.34,0,0,1-.36.36Z"/><path class="cls-1" d="M165.2,58.91a13.48,13.48,0,0,1-.57-4.35,13.43,13.43,0,0,1,.54-4.36,7.25,7.25,0,0,1,13.53,0,15.08,15.08,0,0,1,.54,4.93c0,.22-.14.36-.4.36h-10.9a.2.2,0,0,0-.22.22A6.47,6.47,0,0,0,168,57.8a4.25,4.25,0,0,0,4.36,3,5.6,5.6,0,0,0,4.42-1.9c.18-.18.36-.22.54-.07l1.48,1.33a.31.31,0,0,1,0,.5,8.35,8.35,0,0,1-6.73,3C168.62,63.59,166.14,61.9,165.2,58.91Zm10.73-5.83a.19.19,0,0,0,.21-.21,6.08,6.08,0,0,0-.25-1.95,4.25,4.25,0,0,0-7.92,0,6.08,6.08,0,0,0-.25,1.95c0,.14.07.21.22.21Z"/><path class="cls-1" d="M183.74,63.2a.35.35,0,0,1-.36-.36V46.31a.35.35,0,0,1,.36-.36H186a.35.35,0,0,1,.37.36v1.77h0A4.8,4.8,0,0,1,191,45.56a5.3,5.3,0,0,1,3.53,1.29c.18.18.22.33.07.51l-1.33,1.76a.32.32,0,0,1-.5.07,4.92,4.92,0,0,0-2.67-.82c-2.62,0-3.7,2.05-3.7,5v9.43a.35.35,0,0,1-.37.36Z"/><path class="cls-1" d="M205.7,63.2a.34.34,0,0,1-.36-.36V46.31a.34.34,0,0,1,.36-.36H208a.34.34,0,0,1,.36.36v1.77h0A4.8,4.8,0,0,1,213,45.56a5.3,5.3,0,0,1,3.53,1.29c.18.18.21.33.07.51l-1.33,1.76a.32.32,0,0,1-.5.07,4.92,4.92,0,0,0-2.67-.82c-2.63,0-3.71,2.05-3.71,5v9.43a.34.34,0,0,1-.36.36Z"/><path class="cls-1" d="M219.67,42.07a.34.34,0,0,1-.36-.36V39.08a.34.34,0,0,1,.36-.36h2.45a.34.34,0,0,1,.36.36v2.63a.35.35,0,0,1-.36.36Zm.07,21.13a.34.34,0,0,1-.36-.36V46.31a.34.34,0,0,1,.36-.36H222a.34.34,0,0,1,.36.36V62.84a.34.34,0,0,1-.36.36Z"/><path class="cls-1" d="M227.12,58.91a13.43,13.43,0,0,1-.58-4.35,13.43,13.43,0,0,1,.54-4.36,7.26,7.26,0,0,1,13.54,0,15.08,15.08,0,0,1,.54,4.93.35.35,0,0,1-.4.36h-10.9a.2.2,0,0,0-.22.22,6.47,6.47,0,0,0,.29,2.09,4.25,4.25,0,0,0,4.35,3,5.64,5.64,0,0,0,4.43-1.9c.18-.18.36-.22.54-.07l1.48,1.33a.31.31,0,0,1,0,.5,8.38,8.38,0,0,1-6.73,3C230.54,63.59,228.06,61.9,227.12,58.91Zm10.73-5.83a.19.19,0,0,0,.21-.21,6.08,6.08,0,0,0-.25-1.95,4.25,4.25,0,0,0-7.92,0,6.08,6.08,0,0,0-.25,1.95c0,.14.07.21.22.21Z"/><path class="cls-1" d="M244.11,61a.35.35,0,0,1,0-.5l1.48-1.59a.35.35,0,0,1,.5,0,8.37,8.37,0,0,0,5.33,2c2.52,0,3.78-1.08,3.78-2.62,0-1.37-.65-2.13-3.35-2.42L250,55.67c-3.39-.36-5.15-2.05-5.15-4.86,0-3.27,2.34-5.25,6.41-5.25a10.31,10.31,0,0,1,6.11,1.91.35.35,0,0,1,.08.5l-1.23,1.55a.35.35,0,0,1-.5.07,9.09,9.09,0,0,0-4.65-1.4c-2.15,0-3.27,1-3.27,2.37s.83,2.09,3.38,2.34l1.8.18c3.49.33,5.19,2.09,5.19,4.86,0,3.38-2.45,5.65-6.95,5.65A10.75,10.75,0,0,1,244.11,61Z"/><path class="cls-1" d="M261.86,67.52a.33.33,0,0,1,0-.51l1.47-1.47a.34.34,0,0,1,.54,0A5.75,5.75,0,0,0,268,67.26c2.84,0,4.35-1.47,4.35-4.64v-2h0C271.51,62,270,63,267.51,63a5.65,5.65,0,0,1-5.79-4.17,13.32,13.32,0,0,1-.58-4.54,13.32,13.32,0,0,1,.58-4.54,5.64,5.64,0,0,1,5.79-4.17c2.52,0,4,.93,4.79,2.37h0V46.31a.35.35,0,0,1,.36-.36H275a.35.35,0,0,1,.36.36V62.44c0,4.9-2.67,7.63-7.53,7.63A7.78,7.78,0,0,1,261.86,67.52Zm10.08-9.9a10.47,10.47,0,0,0,.39-3.35,10.59,10.59,0,0,0-.39-3.35,3.89,3.89,0,0,0-7.31,0,10.78,10.78,0,0,0-.43,3.35,10.65,10.65,0,0,0,.43,3.35,3.52,3.52,0,0,0,3.64,2.59A3.56,3.56,0,0,0,271.94,57.62Z"/><path class="cls-1" d="M280.08,59a12.85,12.85,0,0,1-.58-4.39,12.78,12.78,0,0,1,.58-4.36c.93-3,3.45-4.64,6.8-4.64s5.87,1.69,6.8,4.64a12.78,12.78,0,0,1,.58,4.36,12.85,12.85,0,0,1-.58,4.39,7.3,7.3,0,0,1-13.6,0Zm10.69-.87a11.52,11.52,0,0,0,.39-3.52,11.26,11.26,0,0,0-.39-3.49,4.15,4.15,0,0,0-7.78,0,10.91,10.91,0,0,0-.4,3.49,11.16,11.16,0,0,0,.4,3.52,4.15,4.15,0,0,0,7.78,0Z"/><path class="cls-1" d="M317.12,63.2a.34.34,0,0,1-.36-.36V61.18h0c-.83,1.37-2.3,2.41-4.89,2.41-3,0-5.08-1.4-5.94-4.14a14.25,14.25,0,0,1-.62-4.89,14.17,14.17,0,0,1,.62-4.86c.86-2.74,2.95-4.14,5.94-4.14,2.59,0,4.06,1,4.89,2.37h0V39.08a.34.34,0,0,1,.36-.36h2.3a.34.34,0,0,1,.36.36V62.84a.34.34,0,0,1-.36.36Zm-.76-5a11,11,0,0,0,.4-3.6,11.12,11.12,0,0,0-.4-3.6,4.08,4.08,0,0,0-7.59,0,12.15,12.15,0,0,0-.4,3.6,11.89,11.89,0,0,0,.4,3.6,4.06,4.06,0,0,0,7.59,0Z"/><path class="cls-1" d="M324.5,58.91a13.43,13.43,0,0,1-.58-4.35,13.43,13.43,0,0,1,.54-4.36,7.26,7.26,0,0,1,13.54,0,15.08,15.08,0,0,1,.54,4.93.35.35,0,0,1-.4.36H327.23a.19.19,0,0,0-.21.22,6.47,6.47,0,0,0,.29,2.09,4.25,4.25,0,0,0,4.35,3,5.64,5.64,0,0,0,4.43-1.9c.18-.18.36-.22.54-.07l1.48,1.33a.31.31,0,0,1,0,.5,8.38,8.38,0,0,1-6.73,3C327.92,63.59,325.43,61.9,324.5,58.91Zm10.73-5.83a.19.19,0,0,0,.21-.21,6.08,6.08,0,0,0-.25-1.95,4.25,4.25,0,0,0-7.92,0,6.08,6.08,0,0,0-.25,1.95.19.19,0,0,0,.21.21Z"/><path class="cls-1" d="M350.09,50.2c1-3,3.49-4.64,6.81-4.64a6.91,6.91,0,0,1,5.9,2.91c.11.18.11.33-.11.51l-1.58,1.29a.32.32,0,0,1-.51,0,4.21,4.21,0,0,0-3.7-1.87,3.76,3.76,0,0,0-3.86,2.7,11.77,11.77,0,0,0-.39,3.49,11.77,11.77,0,0,0,.39,3.52,3.76,3.76,0,0,0,3.86,2.7,4.21,4.21,0,0,0,3.7-1.87.32.32,0,0,1,.51,0l1.58,1.29c.22.18.22.33.11.51a6.91,6.91,0,0,1-5.9,2.91c-3.32,0-5.83-1.65-6.81-4.64a15,15,0,0,1-.54-4.39A15,15,0,0,1,350.09,50.2Z"/><path class="cls-1" d="M376.88,63.2a.34.34,0,0,1-.36-.36V61.32h0c-.79,1.3-2.48,2.27-5.11,2.27-3.28,0-5.8-1.69-5.8-5.18s2.52-5.33,6.73-5.33h3.93a.19.19,0,0,0,.21-.21V51.61c0-2.38-.93-3.39-4.14-3.39a6.7,6.7,0,0,0-4.17,1.23c-.18.14-.4.14-.5,0l-1-1.66a.38.38,0,0,1,.07-.5,9.58,9.58,0,0,1,5.87-1.69c4.9,0,6.77,1.62,6.77,5.87V62.84a.34.34,0,0,1-.36.36Zm-.44-5.58V55.71a.19.19,0,0,0-.21-.22h-3.46c-3,0-4.28.87-4.28,2.81,0,1.76,1.3,2.7,3.6,2.7C374.79,61,376.44,59.74,376.44,57.62Z"/><path class="cls-1" d="M384.76,63.2a.34.34,0,0,1-.36-.36V46.31a.34.34,0,0,1,.36-.36h2.3a.34.34,0,0,1,.36.36V62.84a.34.34,0,0,1-.36.36Zm.29-20.05c-.22,0-.32-.15-.22-.36l2.74-4.43a.63.63,0,0,1,.61-.36h2.38a.21.21,0,0,1,.18.36l-3.32,4.43a.7.7,0,0,1-.68.36Z"/><path class="cls-1" d="M403.41,63.2a.34.34,0,0,1-.36-.36V61.18h0c-.83,1.37-2.3,2.41-4.89,2.41-3,0-5.08-1.4-5.94-4.14a14.25,14.25,0,0,1-.62-4.89,14.17,14.17,0,0,1,.62-4.86c.86-2.74,2.95-4.14,5.94-4.14,2.59,0,4.06,1,4.89,2.37h0V39.08a.34.34,0,0,1,.36-.36h2.3a.34.34,0,0,1,.36.36V62.84a.34.34,0,0,1-.36.36Zm-.76-5a11,11,0,0,0,.4-3.6,11.12,11.12,0,0,0-.4-3.6,4.08,4.08,0,0,0-7.59,0,12.15,12.15,0,0,0-.4,3.6,11.89,11.89,0,0,0,.4,3.6,4.06,4.06,0,0,0,7.59,0Z"/><path class="cls-1" d="M421.7,63.2a.34.34,0,0,1-.36-.36V61.32h0c-.79,1.3-2.48,2.27-5.11,2.27-3.28,0-5.8-1.69-5.8-5.18s2.52-5.33,6.73-5.33h3.93a.19.19,0,0,0,.21-.21V51.61c0-2.38-.93-3.39-4.14-3.39A6.7,6.7,0,0,0,413,49.45a.33.33,0,0,1-.51,0l-1-1.66a.39.39,0,0,1,.07-.5,9.58,9.58,0,0,1,5.87-1.69c4.9,0,6.77,1.62,6.77,5.87V62.84a.34.34,0,0,1-.36.36Zm-.44-5.58V55.71a.19.19,0,0,0-.21-.22h-3.46c-3,0-4.28.87-4.28,2.81,0,1.76,1.29,2.7,3.6,2.7C419.61,61,421.26,59.74,421.26,57.62Z"/><path class="cls-1" d="M428,61a.35.35,0,0,1,0-.5l1.48-1.59a.35.35,0,0,1,.5,0,8.37,8.37,0,0,0,5.33,2c2.52,0,3.78-1.08,3.78-2.62,0-1.37-.65-2.13-3.35-2.42l-1.83-.18c-3.39-.36-5.15-2.05-5.15-4.86,0-3.27,2.34-5.25,6.41-5.25a10.28,10.28,0,0,1,6.11,1.91.33.33,0,0,1,.08.5l-1.23,1.55a.35.35,0,0,1-.5.07,9.09,9.09,0,0,0-4.64-1.4c-2.16,0-3.28,1-3.28,2.37s.83,2.09,3.38,2.34l1.8.18c3.5.33,5.19,2.09,5.19,4.86,0,3.38-2.45,5.65-6.95,5.65A10.75,10.75,0,0,1,428,61Z"/><path class="cls-1" d="M464.86,63.2a.34.34,0,0,1-.36-.36V61.18h0c-.83,1.37-2.3,2.41-4.89,2.41-3,0-5.08-1.4-5.94-4.14a14.28,14.28,0,0,1-.61-4.89,14.2,14.2,0,0,1,.61-4.86c.86-2.74,2.95-4.14,5.94-4.14,2.59,0,4.06,1,4.89,2.37h0V39.08a.34.34,0,0,1,.36-.36h2.3a.34.34,0,0,1,.36.36V62.84a.34.34,0,0,1-.36.36Zm-.76-5a11,11,0,0,0,.4-3.6,11.12,11.12,0,0,0-.4-3.6,4.08,4.08,0,0,0-7.59,0,12.15,12.15,0,0,0-.4,3.6,11.89,11.89,0,0,0,.4,3.6,4.06,4.06,0,0,0,7.59,0Z"/><path class="cls-1" d="M472.24,58.91a13.43,13.43,0,0,1-.58-4.35,13.43,13.43,0,0,1,.54-4.36,7.26,7.26,0,0,1,13.54,0,15.08,15.08,0,0,1,.54,4.93.35.35,0,0,1-.4.36H475a.2.2,0,0,0-.22.22,6.47,6.47,0,0,0,.29,2.09,4.25,4.25,0,0,0,4.35,3,5.63,5.63,0,0,0,4.43-1.9c.18-.18.36-.22.54-.07l1.48,1.33a.31.31,0,0,1,0,.5,8.38,8.38,0,0,1-6.73,3C475.66,63.59,473.18,61.9,472.24,58.91ZM483,53.08a.19.19,0,0,0,.21-.21,6.08,6.08,0,0,0-.25-1.95,4.25,4.25,0,0,0-7.92,0,6.08,6.08,0,0,0-.25,1.95c0,.14.07.21.22.21Z"/><path class="cls-1" d="M497.87,59a12.85,12.85,0,0,1-.58-4.39,12.78,12.78,0,0,1,.58-4.36c.94-3,3.46-4.64,6.8-4.64s5.87,1.69,6.81,4.64a13.07,13.07,0,0,1,.57,4.36,13.14,13.14,0,0,1-.57,4.39,7.31,7.31,0,0,1-13.61,0Zm10.69-.87a11.16,11.16,0,0,0,.4-3.52,10.91,10.91,0,0,0-.4-3.49,4.15,4.15,0,0,0-7.77,0,10.91,10.91,0,0,0-.4,3.49,11.16,11.16,0,0,0,.4,3.52,4.15,4.15,0,0,0,7.77,0Z"/><path class="cls-1" d="M516.55,63.2a.34.34,0,0,1-.35-.36V39.08a.33.33,0,0,1,.35-.36h2.31a.34.34,0,0,1,.36.36v8.85h0c.83-1.36,2.31-2.37,4.9-2.37,3,0,5.07,1.4,5.94,4.14a14.2,14.2,0,0,1,.61,4.86,14.28,14.28,0,0,1-.61,4.89c-.87,2.74-3,4.14-5.94,4.14-2.59,0-4.07-1-4.9-2.41h0v1.66a.35.35,0,0,1-.36.36Zm10.66-5a11.89,11.89,0,0,0,.4-3.6,12.15,12.15,0,0,0-.4-3.6,4.08,4.08,0,0,0-7.6,0,11.47,11.47,0,0,0-.39,3.6,11.35,11.35,0,0,0,.39,3.6,4.07,4.07,0,0,0,7.6,0Z"/><path class="cls-1" d="M532,69.68a.34.34,0,0,1-.36-.36V67.23a.34.34,0,0,1,.36-.36h.57c1.7,0,2.27-.47,2.27-2.31V46.31a.35.35,0,0,1,.36-.36h2.31a.35.35,0,0,1,.36.36V64.49c0,3.71-1.66,5.19-5.15,5.19Zm3.13-27.61a.34.34,0,0,1-.36-.36V39.08a.34.34,0,0,1,.36-.36h2.45a.34.34,0,0,1,.36.36v2.63a.35.35,0,0,1-.36.36Z"/><path class="cls-1" d="M542.58,58.91a13.48,13.48,0,0,1-.57-4.35,13.43,13.43,0,0,1,.54-4.36,7.25,7.25,0,0,1,13.53,0,15.08,15.08,0,0,1,.54,4.93c0,.22-.14.36-.4.36h-10.9a.2.2,0,0,0-.22.22,6.47,6.47,0,0,0,.29,2.09,4.25,4.25,0,0,0,4.36,3,5.6,5.6,0,0,0,4.42-1.9c.18-.18.36-.22.54-.07l1.48,1.33a.31.31,0,0,1,0,.5,8.35,8.35,0,0,1-6.73,3C546,63.59,543.52,61.9,542.58,58.91Zm10.73-5.83a.19.19,0,0,0,.21-.21,6.08,6.08,0,0,0-.25-1.95,4.25,4.25,0,0,0-7.92,0,6.08,6.08,0,0,0-.25,1.95c0,.14.07.21.22.21Z"/><path class="cls-1" d="M565.77,63.38c-3.35,0-4.65-1.52-4.65-4.9V48.62c0-.15-.07-.22-.21-.22h-1.44a.34.34,0,0,1-.36-.36V46.31a.34.34,0,0,1,.36-.36h1.44a.19.19,0,0,0,.21-.21V40.88a.34.34,0,0,1,.36-.36h2.31a.34.34,0,0,1,.36.36v4.86a.19.19,0,0,0,.21.21h2.74a.35.35,0,0,1,.36.36V48a.34.34,0,0,1-.36.36h-2.74c-.14,0-.21.07-.21.22v9.75c0,1.73.64,2.2,2.19,2.2h.76a.34.34,0,0,1,.36.36V63a.35.35,0,0,1-.36.36Z"/><path class="cls-1" d="M571,59a12.85,12.85,0,0,1-.58-4.39A12.78,12.78,0,0,1,571,50.2c.94-3,3.46-4.64,6.8-4.64s5.87,1.69,6.81,4.64a13.07,13.07,0,0,1,.57,4.36,13.14,13.14,0,0,1-.57,4.39A7.31,7.31,0,0,1,571,59Zm10.69-.87a11.16,11.16,0,0,0,.4-3.52,10.91,10.91,0,0,0-.4-3.49,4.15,4.15,0,0,0-7.77,0,10.91,10.91,0,0,0-.4,3.49,11.16,11.16,0,0,0,.4,3.52,4.15,4.15,0,0,0,7.77,0Z"/><path class="cls-1" d="M588.08,61a.35.35,0,0,1,0-.5l1.48-1.59a.35.35,0,0,1,.5,0,8.37,8.37,0,0,0,5.33,2c2.52,0,3.78-1.08,3.78-2.62,0-1.37-.65-2.13-3.35-2.42L594,55.67c-3.39-.36-5.15-2.05-5.15-4.86,0-3.27,2.34-5.25,6.41-5.25a10.32,10.32,0,0,1,6.12,1.91.34.34,0,0,1,.07.5l-1.22,1.55a.36.36,0,0,1-.51.07,9.06,9.06,0,0,0-4.64-1.4c-2.16,0-3.28,1-3.28,2.37s.83,2.09,3.39,2.34l1.8.18c3.49.33,5.18,2.09,5.18,4.86,0,3.38-2.45,5.65-6.95,5.65A10.75,10.75,0,0,1,588.08,61Z"/><path class="cls-1" d="M25,101.38c-3.34,0-4.64-1.52-4.64-4.9V86.62a.19.19,0,0,0-.22-.22H18.68a.34.34,0,0,1-.36-.36V84.31a.35.35,0,0,1,.36-.36h1.44c.15,0,.22-.07.22-.21V78.88a.34.34,0,0,1,.36-.36H23a.34.34,0,0,1,.36.36v4.86a.19.19,0,0,0,.22.21h2.74a.34.34,0,0,1,.35.36V86a.33.33,0,0,1-.35.36H23.58a.2.2,0,0,0-.22.22v9.75c0,1.73.65,2.2,2.2,2.2h.76a.33.33,0,0,1,.35.36V101a.34.34,0,0,1-.35.36Z"/><path class="cls-1" d="M41.07,101.2a.35.35,0,0,1-.36-.36V99.32h0c-.79,1.3-2.48,2.27-5.11,2.27-3.28,0-5.8-1.69-5.8-5.18s2.52-5.33,6.73-5.33h3.93a.19.19,0,0,0,.21-.21V89.61c0-2.38-.93-3.39-4.14-3.39a6.7,6.7,0,0,0-4.17,1.23.33.33,0,0,1-.51,0l-1-1.66a.38.38,0,0,1,.07-.5,9.58,9.58,0,0,1,5.87-1.69c4.9,0,6.77,1.62,6.77,5.87v11.41a.35.35,0,0,1-.36.36Zm-.43-5.58V93.71a.19.19,0,0,0-.21-.22H37c-3,0-4.28.87-4.28,2.81,0,1.76,1.29,2.7,3.6,2.7C39,99,40.64,97.74,40.64,95.62Z"/><path class="cls-1" d="M52.74,101.38c-3,0-4.21-1.44-4.21-4.54V77.08a.34.34,0,0,1,.36-.36h2.3a.34.34,0,0,1,.36.36V96.66c0,1.44.54,1.91,1.73,1.91H54a.34.34,0,0,1,.36.36V101a.34.34,0,0,1-.36.36Z"/><path class="cls-1" d="M57.38,96.91a13.48,13.48,0,0,1-.57-4.35,13.43,13.43,0,0,1,.54-4.36,6.65,6.65,0,0,1,6.76-4.64,6.67,6.67,0,0,1,6.77,4.64,15.08,15.08,0,0,1,.54,4.93.35.35,0,0,1-.39.36H60.12a.2.2,0,0,0-.22.22,6.47,6.47,0,0,0,.29,2.09,4.26,4.26,0,0,0,4.36,3A5.6,5.6,0,0,0,69,96.88c.18-.18.36-.22.54-.07L71,98.14a.32.32,0,0,1,0,.5,8.39,8.39,0,0,1-6.74,3C60.8,101.59,58.32,99.9,57.38,96.91Zm10.73-5.83a.19.19,0,0,0,.22-.21,6.05,6.05,0,0,0-.26-2,4.25,4.25,0,0,0-7.91,0,5.79,5.79,0,0,0-.26,2c0,.14.07.21.22.21Z"/><path class="cls-1" d="M74.38,99a.33.33,0,0,1,0-.5l1.47-1.59a.36.36,0,0,1,.51,0,8.32,8.32,0,0,0,5.32,2c2.52,0,3.78-1.08,3.78-2.62,0-1.37-.65-2.13-3.35-2.42l-1.83-.18c-3.39-.36-5.15-2-5.15-4.86,0-3.27,2.34-5.25,6.41-5.25a10.32,10.32,0,0,1,6.12,1.91.34.34,0,0,1,.07.5l-1.22,1.55a.36.36,0,0,1-.51.07,9.06,9.06,0,0,0-4.64-1.4c-2.16,0-3.28,1-3.28,2.37s.83,2.09,3.39,2.34l1.8.18c3.49.33,5.18,2.09,5.18,4.86,0,3.38-2.45,5.65-7,5.65A10.7,10.7,0,0,1,74.38,99Z"/><path class="cls-1" d="M99.9,88.2c1-3,3.49-4.64,6.8-4.64a6.9,6.9,0,0,1,5.9,2.91.34.34,0,0,1-.1.51l-1.59,1.29a.31.31,0,0,1-.5,0,4.24,4.24,0,0,0-3.71-1.87,3.74,3.74,0,0,0-3.85,2.7,11.4,11.4,0,0,0-.4,3.49,11.41,11.41,0,0,0,.4,3.52,3.74,3.74,0,0,0,3.85,2.7,4.24,4.24,0,0,0,3.71-1.87.31.31,0,0,1,.5,0l1.59,1.29a.34.34,0,0,1,.1.51,6.9,6.9,0,0,1-5.9,2.91c-3.31,0-5.83-1.65-6.8-4.64a18,18,0,0,1,0-8.75Z"/><path class="cls-1" d="M115.77,97a13.14,13.14,0,0,1-.57-4.39,13.07,13.07,0,0,1,.57-4.36c.94-3,3.46-4.64,6.81-4.64s5.86,1.69,6.8,4.64a12.78,12.78,0,0,1,.58,4.36,12.85,12.85,0,0,1-.58,4.39,7.31,7.31,0,0,1-13.61,0Zm10.69-.87a11.16,11.16,0,0,0,.4-3.52,10.91,10.91,0,0,0-.4-3.49,4.15,4.15,0,0,0-7.77,0,10.91,10.91,0,0,0-.4,3.49,11.16,11.16,0,0,0,.4,3.52,4.15,4.15,0,0,0,7.77,0Z"/><path class="cls-1" d="M156.13,101.2a.34.34,0,0,1-.36-.36V90.76c0-2.77-1.26-4.39-3.85-4.39a3.88,3.88,0,0,0-4,4.21v10.26a.35.35,0,0,1-.36.36h-2.31a.35.35,0,0,1-.36-.36V90.76c0-2.77-1.26-4.39-3.85-4.39a3.87,3.87,0,0,0-4,4.21v10.26a.34.34,0,0,1-.36.36h-2.3a.34.34,0,0,1-.36-.36V84.31a.34.34,0,0,1,.36-.36h2.3a.34.34,0,0,1,.36.36V85.9h0a6.09,6.09,0,0,1,9.86.36h0a6.39,6.39,0,0,1,5.57-2.7c4,0,6.16,2.55,6.16,6.48v10.8a.34.34,0,0,1-.36.36Z"/><path class="cls-1" d="M163.33,97a12.85,12.85,0,0,1-.58-4.39,12.78,12.78,0,0,1,.58-4.36c.93-3,3.45-4.64,6.8-4.64s5.87,1.69,6.81,4.64a13.07,13.07,0,0,1,.57,4.36,13.14,13.14,0,0,1-.57,4.39,7.31,7.31,0,0,1-13.61,0ZM174,96.08a11.16,11.16,0,0,0,.4-3.52,10.91,10.91,0,0,0-.4-3.49,4.15,4.15,0,0,0-7.78,0,11.26,11.26,0,0,0-.39,3.49,11.52,11.52,0,0,0,.39,3.52,4.15,4.15,0,0,0,7.78,0Z"/><path class="cls-1" d="M200.77,101.2a.34.34,0,0,1-.36-.36V90.76c0-2.77-1.26-4.39-3.85-4.39a3.87,3.87,0,0,0-4,4.21v10.26a.35.35,0,0,1-.36.36h-2.31a.35.35,0,0,1-.36-.36V77.08a.34.34,0,0,1,.36-.36h2.31a.34.34,0,0,1,.36.36V85.9h0a5.47,5.47,0,0,1,4.83-2.34c3.74,0,6,2.55,6,6.48v10.8a.34.34,0,0,1-.36.36Z"/><path class="cls-1" d="M208,96.91a13.43,13.43,0,0,1-.58-4.35,13.43,13.43,0,0,1,.54-4.36,7.26,7.26,0,0,1,13.54,0,15.08,15.08,0,0,1,.54,4.93.35.35,0,0,1-.4.36H210.7a.19.19,0,0,0-.21.22,6.47,6.47,0,0,0,.29,2.09,4.25,4.25,0,0,0,4.35,3,5.64,5.64,0,0,0,4.43-1.9c.18-.18.36-.22.54-.07l1.47,1.33a.32.32,0,0,1,0,.5,8.38,8.38,0,0,1-6.73,3C211.39,101.59,208.9,99.9,208,96.91Zm10.73-5.83a.19.19,0,0,0,.21-.21,6.08,6.08,0,0,0-.25-2,4.25,4.25,0,0,0-7.92,0,6.08,6.08,0,0,0-.25,2,.19.19,0,0,0,.21.21Z"/><path class="cls-1" d="M226.51,101.2a.34.34,0,0,1-.36-.36V84.31a.34.34,0,0,1,.36-.36h2.3a.34.34,0,0,1,.36.36v1.77h0a4.78,4.78,0,0,1,4.57-2.52,5.32,5.32,0,0,1,3.53,1.29c.18.18.21.33.07.51l-1.33,1.76a.33.33,0,0,1-.51.07,4.86,4.86,0,0,0-2.66-.82c-2.63,0-3.71,2-3.71,5v9.43a.34.34,0,0,1-.36.36Z"/><path class="cls-1" d="M240.55,101.2a.34.34,0,0,1-.36-.36V84.31a.34.34,0,0,1,.36-.36h2.3a.34.34,0,0,1,.36.36v1.77h0a4.78,4.78,0,0,1,4.57-2.52,5.32,5.32,0,0,1,3.53,1.29c.18.18.21.33.07.51l-1.33,1.76a.33.33,0,0,1-.51.07,4.86,4.86,0,0,0-2.66-.82c-2.63,0-3.71,2-3.71,5v9.43a.34.34,0,0,1-.36.36Z"/><path class="cls-1" d="M263.8,101.2a.35.35,0,0,1-.36-.36V99.32h0c-.8,1.3-2.49,2.27-5.12,2.27-3.27,0-5.79-1.69-5.79-5.18s2.52-5.33,6.73-5.33h3.92c.15,0,.22-.07.22-.21V89.61c0-2.38-.94-3.39-4.14-3.39a6.73,6.73,0,0,0-4.18,1.23.32.32,0,0,1-.5,0l-1-1.66a.38.38,0,0,1,.07-.5,9.56,9.56,0,0,1,5.87-1.69c4.89,0,6.77,1.62,6.77,5.87v11.41a.35.35,0,0,1-.36.36Zm-.43-5.58V93.71a.2.2,0,0,0-.22-.22H259.7c-3,0-4.28.87-4.28,2.81,0,1.76,1.29,2.7,3.59,2.7C261.71,99,263.37,97.74,263.37,95.62Z"/><path class="cls-1" d="M293.36,101.2a.34.34,0,0,1-.36-.36V90.76c0-2.77-1.26-4.39-3.86-4.39a3.88,3.88,0,0,0-3.95,4.21v10.26a.35.35,0,0,1-.36.36h-2.31a.35.35,0,0,1-.36-.36V90.76c0-2.77-1.26-4.39-3.85-4.39a3.87,3.87,0,0,0-4,4.21v10.26a.34.34,0,0,1-.36.36h-2.3a.34.34,0,0,1-.36-.36V84.31a.34.34,0,0,1,.36-.36H274a.34.34,0,0,1,.36.36V85.9h0a6.09,6.09,0,0,1,9.86.36h0a6.4,6.4,0,0,1,5.58-2.7c4,0,6.15,2.55,6.15,6.48v10.8a.34.34,0,0,1-.36.36Z"/><path class="cls-1" d="M301.31,80.07a.34.34,0,0,1-.35-.36V77.08a.33.33,0,0,1,.35-.36h2.45a.34.34,0,0,1,.36.36v2.63a.34.34,0,0,1-.36.36Zm.08,21.13a.34.34,0,0,1-.36-.36V84.31a.34.34,0,0,1,.36-.36h2.3a.34.34,0,0,1,.36.36v16.53a.34.34,0,0,1-.36.36Z"/><path class="cls-1" d="M308.77,96.91a13.43,13.43,0,0,1-.58-4.35,13.43,13.43,0,0,1,.54-4.36,7.25,7.25,0,0,1,13.53,0,15.08,15.08,0,0,1,.54,4.93.35.35,0,0,1-.39.36H311.5a.19.19,0,0,0-.21.22,6.5,6.5,0,0,0,.28,2.09,4.26,4.26,0,0,0,4.36,3,5.64,5.64,0,0,0,4.43-1.9c.18-.18.36-.22.54-.07l1.47,1.33a.32.32,0,0,1,0,.5,8.38,8.38,0,0,1-6.73,3C312.19,101.59,309.7,99.9,308.77,96.91Zm10.72-5.83c.15,0,.22-.07.22-.21a6.08,6.08,0,0,0-.25-2,4.25,4.25,0,0,0-7.92,0,6.08,6.08,0,0,0-.25,2,.19.19,0,0,0,.21.21Z"/><path class="cls-1" d="M338.14,101.2a.34.34,0,0,1-.36-.36V90.76c0-2.77-1.26-4.39-3.85-4.39a3.87,3.87,0,0,0-4,4.21v10.26a.34.34,0,0,1-.36.36h-2.3a.34.34,0,0,1-.36-.36V84.31a.34.34,0,0,1,.36-.36h2.3a.34.34,0,0,1,.36.36V85.9h0a5.47,5.47,0,0,1,4.83-2.34c3.74,0,6,2.55,6,6.48v10.8a.34.34,0,0,1-.36.36Z"/><path class="cls-1" d="M350.81,101.38c-3.35,0-4.64-1.52-4.64-4.9V86.62a.19.19,0,0,0-.22-.22h-1.44a.34.34,0,0,1-.36-.36V84.31a.35.35,0,0,1,.36-.36H346c.15,0,.22-.07.22-.21V78.88a.34.34,0,0,1,.36-.36h2.3a.34.34,0,0,1,.36.36v4.86a.19.19,0,0,0,.22.21h2.73a.34.34,0,0,1,.36.36V86a.34.34,0,0,1-.36.36h-2.73a.2.2,0,0,0-.22.22v9.75c0,1.73.65,2.2,2.2,2.2h.75a.34.34,0,0,1,.36.36V101a.34.34,0,0,1-.36.36Z"/><path class="cls-1" d="M366.9,101.2a.35.35,0,0,1-.36-.36V99.32h0c-.79,1.3-2.49,2.27-5.11,2.27-3.28,0-5.8-1.69-5.8-5.18s2.52-5.33,6.73-5.33h3.93a.19.19,0,0,0,.21-.21V89.61c0-2.38-.93-3.39-4.14-3.39a6.7,6.7,0,0,0-4.17,1.23.33.33,0,0,1-.51,0l-1-1.66a.38.38,0,0,1,.07-.5,9.56,9.56,0,0,1,5.87-1.69c4.9,0,6.77,1.62,6.77,5.87v11.41a.35.35,0,0,1-.36.36Zm-.43-5.58V93.71a.19.19,0,0,0-.21-.22H362.8c-3,0-4.28.87-4.28,2.81,0,1.76,1.29,2.7,3.6,2.7C364.82,99,366.47,97.74,366.47,95.62Z"/><path class="cls-1" d="M373.24,99a.35.35,0,0,1,0-.5l1.48-1.59a.35.35,0,0,1,.5,0,8.37,8.37,0,0,0,5.33,2c2.52,0,3.78-1.08,3.78-2.62,0-1.37-.65-2.13-3.35-2.42l-1.84-.18c-3.38-.36-5.14-2-5.14-4.86,0-3.27,2.34-5.25,6.4-5.25a10.32,10.32,0,0,1,6.12,1.91.35.35,0,0,1,.08.5l-1.23,1.55a.35.35,0,0,1-.5.07,9.09,9.09,0,0,0-4.65-1.4c-2.16,0-3.27,1-3.27,2.37s.83,2.09,3.38,2.34l1.8.18c3.49.33,5.19,2.09,5.19,4.86,0,3.38-2.45,5.65-6.95,5.65A10.73,10.73,0,0,1,373.24,99Z"/><path class="cls-1" d="M398.8,97a12.85,12.85,0,0,1-.58-4.39,12.78,12.78,0,0,1,.58-4.36c.94-3,3.46-4.64,6.8-4.64s5.87,1.69,6.81,4.64a13.07,13.07,0,0,1,.57,4.36,13.14,13.14,0,0,1-.57,4.39,7.31,7.31,0,0,1-13.61,0Zm10.69-.87a11.16,11.16,0,0,0,.4-3.52,10.91,10.91,0,0,0-.4-3.49,4.15,4.15,0,0,0-7.77,0,10.91,10.91,0,0,0-.4,3.49,11.16,11.16,0,0,0,.4,3.52,4.15,4.15,0,0,0,7.77,0Z"/><path class="cls-1" d="M424.58,96.91a13.43,13.43,0,0,1-.58-4.35,13.43,13.43,0,0,1,.54-4.36,7.25,7.25,0,0,1,13.53,0,15.08,15.08,0,0,1,.54,4.93.35.35,0,0,1-.39.36H427.31a.19.19,0,0,0-.21.22,6.5,6.5,0,0,0,.28,2.09,4.27,4.27,0,0,0,4.36,3,5.64,5.64,0,0,0,4.43-1.9c.18-.18.36-.22.54-.07l1.47,1.33a.32.32,0,0,1,0,.5,8.38,8.38,0,0,1-6.73,3C428,101.59,425.51,99.9,424.58,96.91Zm10.72-5.83c.15,0,.22-.07.22-.21a6.08,6.08,0,0,0-.25-2,4.25,4.25,0,0,0-7.92,0,6.08,6.08,0,0,0-.25,2,.19.19,0,0,0,.21.21Z"/><path class="cls-1" d="M453.55,107.68a.35.35,0,0,1-.36-.36V99.18h0c-.83,1.37-2.31,2.41-4.9,2.41a5.71,5.71,0,0,1-5.94-4.14,14.53,14.53,0,0,1-.61-4.89,14.45,14.45,0,0,1,.61-4.86,5.71,5.71,0,0,1,5.94-4.14c2.59,0,4.07,1,4.9,2.37h0V84.31a.35.35,0,0,1,.36-.36h2.31a.35.35,0,0,1,.36.36v23a.35.35,0,0,1-.36.36Zm-.75-11.52a11.06,11.06,0,0,0,.39-3.6,11.18,11.18,0,0,0-.39-3.6,4.08,4.08,0,0,0-7.6,0,12.54,12.54,0,0,0-.39,3.6,12.28,12.28,0,0,0,.39,3.6,4.07,4.07,0,0,0,7.6,0Z"/><path class="cls-1" d="M472.24,101.2a.34.34,0,0,1-.36-.36V99.22h0a5.25,5.25,0,0,1-4.71,2.37c-3.78,0-6-2.59-6-6.51V84.31a.34.34,0,0,1,.36-.36h2.3a.34.34,0,0,1,.36.36v10c0,2.81,1.26,4.42,3.82,4.42,2.34,0,3.89-1.65,3.89-4.24V84.31a.34.34,0,0,1,.36-.36h2.3a.34.34,0,0,1,.36.36v16.53a.34.34,0,0,1-.36.36Z"/><path class="cls-1" d="M480.38,80.07a.35.35,0,0,1-.37-.36V77.08a.34.34,0,0,1,.37-.36h2.44a.34.34,0,0,1,.36.36v2.63a.34.34,0,0,1-.36.36Zm.07,21.13a.34.34,0,0,1-.36-.36V84.31a.34.34,0,0,1,.36-.36h2.3a.34.34,0,0,1,.36.36v16.53a.34.34,0,0,1-.36.36Z"/><path class="cls-1" d="M488.65,107.68a.35.35,0,0,1-.36-.36v-23a.35.35,0,0,1,.36-.36H491a.35.35,0,0,1,.36.36v1.62h0c.83-1.36,2.31-2.37,4.9-2.37,3,0,5.07,1.4,5.94,4.14a14.2,14.2,0,0,1,.61,4.86,14.28,14.28,0,0,1-.61,4.89c-.87,2.74-2.95,4.14-5.94,4.14-2.59,0-4.07-1-4.9-2.41h0v8.14a.35.35,0,0,1-.36.36Zm10.66-11.52a11.89,11.89,0,0,0,.4-3.6,12.15,12.15,0,0,0-.4-3.6,4.08,4.08,0,0,0-7.6,0,11.47,11.47,0,0,0-.39,3.6,11.35,11.35,0,0,0,.39,3.6,4.07,4.07,0,0,0,7.6,0Z"/><path class="cls-1" d="M506.47,97a13.14,13.14,0,0,1-.57-4.39,13.07,13.07,0,0,1,.57-4.36c.94-3,3.46-4.64,6.81-4.64s5.86,1.69,6.8,4.64a12.78,12.78,0,0,1,.58,4.36,12.85,12.85,0,0,1-.58,4.39,7.31,7.31,0,0,1-13.61,0Zm10.69-.87a11.16,11.16,0,0,0,.4-3.52,10.91,10.91,0,0,0-.4-3.49,4.15,4.15,0,0,0-7.77,0,10.91,10.91,0,0,0-.4,3.49,11.16,11.16,0,0,0,.4,3.52,4.15,4.15,0,0,0,7.77,0Z"/><path class="cls-1" d="M523.61,99a.35.35,0,0,1,0-.5l1.47-1.59a.36.36,0,0,1,.51,0,8.34,8.34,0,0,0,5.33,2c2.52,0,3.78-1.08,3.78-2.62,0-1.37-.65-2.13-3.35-2.42l-1.84-.18c-3.38-.36-5.14-2-5.14-4.86,0-3.27,2.34-5.25,6.4-5.25a10.32,10.32,0,0,1,6.12,1.91.34.34,0,0,1,.07.5l-1.22,1.55a.35.35,0,0,1-.5.07,9.09,9.09,0,0,0-4.65-1.4c-2.16,0-3.27,1-3.27,2.37s.82,2.09,3.38,2.34l1.8.18c3.49.33,5.18,2.09,5.18,4.86,0,3.38-2.44,5.65-6.94,5.65A10.73,10.73,0,0,1,523.61,99Z"/><path class="cls-1" d="M549.17,96.91a13.43,13.43,0,0,1-.58-4.35,13.43,13.43,0,0,1,.54-4.36,7.26,7.26,0,0,1,13.54,0,15.08,15.08,0,0,1,.54,4.93.35.35,0,0,1-.4.36H551.9a.19.19,0,0,0-.21.22A6.47,6.47,0,0,0,552,95.8a4.25,4.25,0,0,0,4.35,3,5.64,5.64,0,0,0,4.43-1.9c.18-.18.36-.22.54-.07l1.48,1.33a.31.31,0,0,1,0,.5,8.38,8.38,0,0,1-6.73,3C552.59,101.59,550.1,99.9,549.17,96.91Zm10.73-5.83a.19.19,0,0,0,.21-.21,6.08,6.08,0,0,0-.25-2,4.25,4.25,0,0,0-7.92,0,6.08,6.08,0,0,0-.25,2,.19.19,0,0,0,.21.21Z"/><path class="cls-1" d="M578.54,101.2a.35.35,0,0,1-.36-.36V90.76c0-2.77-1.26-4.39-3.85-4.39a3.87,3.87,0,0,0-4,4.21v10.26a.34.34,0,0,1-.36.36h-2.3a.34.34,0,0,1-.36-.36V84.31a.34.34,0,0,1,.36-.36H570a.34.34,0,0,1,.36.36V85.9h0a5.45,5.45,0,0,1,4.82-2.34c3.74,0,6,2.55,6,6.48v10.8a.35.35,0,0,1-.36.36Z"/><path class="cls-1" d="M222.87,118.07a.35.35,0,0,1-.36-.36v-2.63a.34.34,0,0,1,.36-.36h2.45a.34.34,0,0,1,.36.36v2.63a.34.34,0,0,1-.36.36Zm.07,21.13a.35.35,0,0,1-.36-.36V122.31a.35.35,0,0,1,.36-.36h2.31a.35.35,0,0,1,.36.36v16.53a.35.35,0,0,1-.36.36Z"/><path class="cls-1" d="M242,139.2a.34.34,0,0,1-.36-.36V128.76c0-2.77-1.26-4.39-3.85-4.39a3.87,3.87,0,0,0-4,4.21v10.26a.35.35,0,0,1-.36.36h-2.31a.35.35,0,0,1-.36-.36V122.31a.35.35,0,0,1,.36-.36h2.31a.35.35,0,0,1,.36.36v1.59h0a5.45,5.45,0,0,1,4.82-2.34c3.75,0,6,2.55,6,6.48v10.8a.34.34,0,0,1-.36.36Z"/><path class="cls-1" d="M248.47,137a.33.33,0,0,1,0-.5l1.47-1.59a.36.36,0,0,1,.51,0,8.34,8.34,0,0,0,5.32,2c2.52,0,3.78-1.08,3.78-2.62,0-1.37-.64-2.13-3.34-2.42l-1.84-.18c-3.38-.36-5.15-2-5.15-4.86,0-3.27,2.34-5.25,6.41-5.25a10.32,10.32,0,0,1,6.12,1.91.34.34,0,0,1,.07.5l-1.22,1.55a.36.36,0,0,1-.51.07,9.06,9.06,0,0,0-4.64-1.4c-2.16,0-3.27,1-3.27,2.37s.82,2.09,3.38,2.34l1.8.18c3.49.33,5.18,2.09,5.18,4.86,0,3.38-2.45,5.65-7,5.65A10.72,10.72,0,0,1,248.47,137Z"/><path class="cls-1" d="M271.58,139.38c-3.35,0-4.64-1.52-4.64-4.9v-9.86a.2.2,0,0,0-.22-.22h-1.44a.34.34,0,0,1-.36-.36v-1.73a.34.34,0,0,1,.36-.36h1.44a.19.19,0,0,0,.22-.21v-4.86a.33.33,0,0,1,.35-.36h2.31a.34.34,0,0,1,.36.36v4.86a.19.19,0,0,0,.21.21h2.74a.34.34,0,0,1,.36.36V124a.34.34,0,0,1-.36.36h-2.74c-.14,0-.21.07-.21.22v9.75c0,1.73.65,2.2,2.19,2.2h.76a.34.34,0,0,1,.36.36V139a.34.34,0,0,1-.36.36Z"/><path class="cls-1" d="M287.67,139.2a.34.34,0,0,1-.36-.36v-1.52h0c-.79,1.3-2.48,2.27-5.11,2.27-3.27,0-5.79-1.69-5.79-5.18s2.52-5.33,6.73-5.33H287c.15,0,.22-.07.22-.21v-1.26c0-2.38-.94-3.39-4.14-3.39a6.71,6.71,0,0,0-4.18,1.23.32.32,0,0,1-.5,0l-1-1.66a.38.38,0,0,1,.07-.5,9.54,9.54,0,0,1,5.87-1.69c4.89,0,6.76,1.62,6.76,5.87v11.41a.34.34,0,0,1-.36.36Zm-.43-5.58v-1.91a.2.2,0,0,0-.22-.22h-3.45c-3,0-4.29.87-4.29,2.81,0,1.76,1.3,2.7,3.6,2.7C285.58,137,287.24,135.74,287.24,133.62Z"/><path class="cls-1" d="M299.33,139.38c-3,0-4.21-1.44-4.21-4.54V115.08a.34.34,0,0,1,.36-.36h2.31a.34.34,0,0,1,.36.36v19.58c0,1.44.54,1.91,1.72,1.91h.69a.34.34,0,0,1,.36.36V139a.35.35,0,0,1-.36.36Z"/><path class="cls-1" d="M314.88,139.2a.34.34,0,0,1-.35-.36v-1.52h0c-.79,1.3-2.48,2.27-5.11,2.27-3.28,0-5.8-1.69-5.8-5.18s2.52-5.33,6.73-5.33h3.93a.19.19,0,0,0,.21-.21v-1.26c0-2.38-.93-3.39-4.14-3.39a6.7,6.7,0,0,0-4.17,1.23.33.33,0,0,1-.51,0l-1-1.66a.38.38,0,0,1,.07-.5,9.58,9.58,0,0,1,5.87-1.69c4.9,0,6.77,1.62,6.77,5.87v11.41a.35.35,0,0,1-.36.36Zm-.43-5.58v-1.91a.19.19,0,0,0-.21-.22h-3.46c-3,0-4.28.87-4.28,2.81,0,1.76,1.29,2.7,3.6,2.7C312.8,137,314.45,135.74,314.45,133.62Z"/><path class="cls-1" d="M321.91,126.2c1-3,3.49-4.64,6.8-4.64a6.9,6.9,0,0,1,5.9,2.91c.11.18.11.33-.11.51l-1.58,1.29a.31.31,0,0,1-.5,0,4.24,4.24,0,0,0-3.71-1.87,3.74,3.74,0,0,0-3.85,2.7,15.56,15.56,0,0,0,0,7,3.74,3.74,0,0,0,3.85,2.7,4.24,4.24,0,0,0,3.71-1.87.31.31,0,0,1,.5,0l1.58,1.29c.22.18.22.33.11.51a6.9,6.9,0,0,1-5.9,2.91c-3.31,0-5.83-1.65-6.8-4.64a18,18,0,0,1,0-8.75Z"/><path class="cls-1" d="M339,118.07a.34.34,0,0,1-.36-.36v-2.63a.34.34,0,0,1,.36-.36h2.45a.34.34,0,0,1,.36.36v2.63a.35.35,0,0,1-.36.36ZM339,139.2a.35.35,0,0,1-.36-.36V122.31A.35.35,0,0,1,339,122h2.31a.35.35,0,0,1,.36.36v16.53a.35.35,0,0,1-.36.36Z"/><path class="cls-1" d="M346.42,135a17.07,17.07,0,0,1,0-8.75c.94-3,3.46-4.64,6.8-4.64s5.87,1.69,6.81,4.64a17.07,17.07,0,0,1,0,8.75,7.31,7.31,0,0,1-13.61,0Zm10.69-.87a11.16,11.16,0,0,0,.4-3.52,10.91,10.91,0,0,0-.4-3.49,4.15,4.15,0,0,0-7.77,0,10.91,10.91,0,0,0-.4,3.49,11.16,11.16,0,0,0,.4,3.52,4.15,4.15,0,0,0,7.77,0Zm-5.18-14.93c-.22,0-.33-.15-.22-.36l2.74-4.43a.63.63,0,0,1,.61-.36h2.38a.21.21,0,0,1,.18.36l-3.32,4.43a.7.7,0,0,1-.68.36Z"/><path class="cls-1" d="M375.94,139.2a.34.34,0,0,1-.36-.36V128.76c0-2.77-1.26-4.39-3.85-4.39a3.87,3.87,0,0,0-4,4.21v10.26a.34.34,0,0,1-.36.36H365.1a.34.34,0,0,1-.35-.36V122.31a.34.34,0,0,1,.35-.36h2.31a.34.34,0,0,1,.36.36v1.59h0a5.47,5.47,0,0,1,4.83-2.34c3.74,0,6,2.55,6,6.48v10.8a.34.34,0,0,1-.36.36Z"/></g></g></svg>