<svg xmlns="http://www.w3.org/2000/svg" viewBox="0 0 477.25 186.39"><title>r6</title><g id="Capa_2" data-name="Capa 2"><g id="recomendaciones"><path d="M9.46.4c.08-.24.2-.4.48-.4h2.6a.52.52,0,0,1,.52.4l9.32,26.4a.27.27,0,0,1-.28.4H19.3a.48.48,0,0,1-.52-.4L16.7,20.88H5.7L3.62,26.8a.54.54,0,0,1-.52.4H.3A.27.27,0,0,1,0,26.8Zm6.08,17.2L11.26,5.24h-.08L6.86,17.6Z"/><path d="M30.34,27.4c-3.36,0-4.68-1.6-4.68-5V.4a.38.38,0,0,1,.4-.4h2.56a.38.38,0,0,1,.4.4V22.16c0,1.6.6,2.12,1.92,2.12h.76a.38.38,0,0,1,.4.4V27a.38.38,0,0,1-.4.4Z"/><path d="M69.3,27.2a.38.38,0,0,1-.4-.4V15.6c0-3.08-1.4-4.88-4.28-4.88a4.32,4.32,0,0,0-4.4,4.68V26.8a.38.38,0,0,1-.4.4H57.26a.38.38,0,0,1-.4-.4V15.6c0-3.08-1.4-4.88-4.28-4.88-2.6,0-4.4,1.84-4.4,4.68V26.8a.38.38,0,0,1-.4.4H45.22a.38.38,0,0,1-.4-.4V8.44a.38.38,0,0,1,.4-.4h2.56a.38.38,0,0,1,.4.4V10.2h0a6.06,6.06,0,0,1,5.36-2.6,6,6,0,0,1,5.6,3h0a7.13,7.13,0,0,1,6.2-3c4.44,0,6.84,2.84,6.84,7.2v12a.38.38,0,0,1-.4.4Z"/><path d="M89.42,27.2a.38.38,0,0,1-.4-.4V25.12h0c-.88,1.44-2.76,2.52-5.68,2.52-3.64,0-6.44-1.88-6.44-5.76,0-4,2.8-5.92,7.48-5.92H88.7a.21.21,0,0,0,.24-.24v-1.4c0-2.64-1-3.76-4.6-3.76a7.45,7.45,0,0,0-4.64,1.36c-.2.16-.44.16-.56,0L78.06,10a.42.42,0,0,1,.08-.56A10.63,10.63,0,0,1,84.66,7.6c5.44,0,7.52,1.8,7.52,6.52V26.8a.38.38,0,0,1-.4.4ZM88.94,21V18.88a.21.21,0,0,0-.24-.24H84.86c-3.32,0-4.76,1-4.76,3.12,0,2,1.44,3,4,3C87.1,24.76,88.94,23.36,88.94,21Z"/><path d="M110.22,27.2a.38.38,0,0,1-.4-.4V15.6c0-3.08-1.4-4.88-4.28-4.88-2.6,0-4.4,1.84-4.4,4.68V26.8a.38.38,0,0,1-.4.4H98.18a.38.38,0,0,1-.4-.4V8.44a.38.38,0,0,1,.4-.4h2.56a.38.38,0,0,1,.4.4V10.2h0a6.06,6.06,0,0,1,5.36-2.6c4.16,0,6.64,2.84,6.64,7.2v12a.38.38,0,0,1-.4.4Z"/><path d="M119.06,3.72a.38.38,0,0,1-.4-.4V.4a.38.38,0,0,1,.4-.4h2.72a.38.38,0,0,1,.4.4V3.32a.38.38,0,0,1-.4.4Zm.08,23.48a.38.38,0,0,1-.4-.4V8.44a.38.38,0,0,1,.4-.4h2.56a.38.38,0,0,1,.4.4V26.8a.38.38,0,0,1-.4.4Z"/><path d="M128.26,34.39a.38.38,0,0,1-.4-.4V8.44a.38.38,0,0,1,.4-.4h2.56a.38.38,0,0,1,.4.4v1.8h0c.92-1.52,2.56-2.64,5.44-2.64,3.32,0,5.64,1.56,6.6,4.6a15.84,15.84,0,0,1,.68,5.4A16,16,0,0,1,143.3,23c-1,3-3.28,4.6-6.6,4.6-2.88,0-4.52-1.16-5.44-2.68h0v9a.38.38,0,0,1-.4.4ZM140.1,21.6a13.29,13.29,0,0,0,.44-4,13.63,13.63,0,0,0-.44-4,4.53,4.53,0,0,0-8.44,0,12.47,12.47,0,0,0-.44,4,12.31,12.31,0,0,0,.44,4,4.51,4.51,0,0,0,8.44,0Z"/><path d="M160.62,27.2a.38.38,0,0,1-.4-.4V25h0a5.84,5.84,0,0,1-5.24,2.64c-4.2,0-6.64-2.88-6.64-7.24v-12a.38.38,0,0,1,.4-.4h2.56a.38.38,0,0,1,.4.4V19.6c0,3.12,1.4,4.92,4.24,4.92,2.6,0,4.32-1.84,4.32-4.72V8.44a.38.38,0,0,1,.4-.4h2.56a.38.38,0,0,1,.4.4V26.8a.38.38,0,0,1-.4.4Z"/><path d="M173.94,27.4c-3.36,0-4.68-1.6-4.68-5V.4a.38.38,0,0,1,.4-.4h2.56a.38.38,0,0,1,.4.4V22.16c0,1.6.6,2.12,1.92,2.12h.76a.38.38,0,0,1,.4.4V27a.38.38,0,0,1-.4.4Z"/><path d="M191.22,27.2a.38.38,0,0,1-.4-.4V25.12h0c-.88,1.44-2.76,2.52-5.68,2.52-3.64,0-6.44-1.88-6.44-5.76,0-4,2.8-5.92,7.48-5.92h4.36a.21.21,0,0,0,.24-.24v-1.4c0-2.64-1-3.76-4.6-3.76a7.45,7.45,0,0,0-4.64,1.36c-.2.16-.44.16-.56,0L179.86,10a.42.42,0,0,1,.08-.56,10.63,10.63,0,0,1,6.52-1.88c5.44,0,7.52,1.8,7.52,6.52V26.8a.38.38,0,0,1-.4.4Zm-.48-6.2V18.88a.21.21,0,0,0-.24-.24h-3.84c-3.32,0-4.76,1-4.76,3.12,0,2,1.44,3,4,3C188.9,24.76,190.74,23.36,190.74,21Z"/><path d="M200,27.2a.38.38,0,0,1-.4-.4V8.44A.38.38,0,0,1,200,8h2.56a.38.38,0,0,1,.4.4v2h0a5.34,5.34,0,0,1,5.08-2.8A5.89,5.89,0,0,1,212,9c.2.2.24.36.08.56l-1.48,2a.36.36,0,0,1-.56.08,5.4,5.4,0,0,0-3-.92c-2.92,0-4.12,2.28-4.12,5.6V26.8a.38.38,0,0,1-.4.4Z"/><path d="M223.42,12.76C224.5,9.44,227.3,7.6,231,7.6a7.68,7.68,0,0,1,6.56,3.24c.12.2.12.36-.12.56l-1.76,1.44a.36.36,0,0,1-.56,0A4.71,4.71,0,0,0,231,10.72a4.16,4.16,0,0,0-4.28,3,12.76,12.76,0,0,0-.44,3.88,12.88,12.88,0,0,0,.44,3.92,4.16,4.16,0,0,0,4.28,3,4.71,4.71,0,0,0,4.12-2.08.36.36,0,0,1,.56,0l1.76,1.44c.24.2.24.36.12.56A7.68,7.68,0,0,1,231,27.64c-3.68,0-6.48-1.84-7.56-5.16a16.55,16.55,0,0,1-.6-4.88A16.45,16.45,0,0,1,223.42,12.76Z"/><path d="M253.18,27.2a.38.38,0,0,1-.4-.4V25.12h0c-.88,1.44-2.76,2.52-5.68,2.52-3.64,0-6.44-1.88-6.44-5.76,0-4,2.8-5.92,7.48-5.92h4.36a.21.21,0,0,0,.24-.24v-1.4c0-2.64-1-3.76-4.6-3.76a7.45,7.45,0,0,0-4.64,1.36c-.2.16-.44.16-.56,0L241.82,10a.42.42,0,0,1,.08-.56,10.63,10.63,0,0,1,6.52-1.88c5.44,0,7.52,1.8,7.52,6.52V26.8a.38.38,0,0,1-.4.4ZM252.7,21V18.88a.21.21,0,0,0-.24-.24h-3.84c-3.32,0-4.76,1-4.76,3.12,0,2,1.44,3,4,3C250.86,24.76,252.7,23.36,252.7,21Z"/><path d="M261.94,27.2a.38.38,0,0,1-.4-.4V8.44a.38.38,0,0,1,.4-.4h2.56a.38.38,0,0,1,.4.4v2h0A5.34,5.34,0,0,1,270,7.6,5.89,5.89,0,0,1,273.94,9c.2.2.24.36.08.56l-1.48,2a.36.36,0,0,1-.56.08,5.4,5.4,0,0,0-3-.92c-2.92,0-4.12,2.28-4.12,5.6V26.8a.38.38,0,0,1-.4.4Z"/><path d="M276,32a.37.37,0,0,1,0-.57l1.64-1.64a.38.38,0,0,1,.6,0,6.35,6.35,0,0,0,4.52,1.92c3.16,0,4.84-1.63,4.84-5.15V24.32h0c-.88,1.6-2.52,2.64-5.32,2.64a6.28,6.28,0,0,1-6.44-4.64,15,15,0,0,1-.64-5,15,15,0,0,1,.64-5A6.28,6.28,0,0,1,282.3,7.6c2.8,0,4.44,1,5.32,2.64h0V8.44a.38.38,0,0,1,.4-.4h2.56a.38.38,0,0,1,.4.4V26.36c0,5.43-3,8.47-8.36,8.47A8.69,8.69,0,0,1,276,32Zm11.2-11a11.65,11.65,0,0,0,.44-3.72,11.81,11.81,0,0,0-.44-3.72,4.32,4.32,0,0,0-8.12,0,12,12,0,0,0-.48,3.72A11.83,11.83,0,0,0,279.1,21a3.91,3.91,0,0,0,4,2.88A4,4,0,0,0,287.22,21Z"/><path d="M308.38,27.2a.38.38,0,0,1-.4-.4V25.12h0c-.88,1.44-2.76,2.52-5.68,2.52-3.64,0-6.44-1.88-6.44-5.76,0-4,2.8-5.92,7.48-5.92h4.36a.21.21,0,0,0,.24-.24v-1.4c0-2.64-1-3.76-4.6-3.76a7.45,7.45,0,0,0-4.64,1.36c-.2.16-.44.16-.56,0L297,10a.42.42,0,0,1,.08-.56,10.63,10.63,0,0,1,6.52-1.88c5.44,0,7.52,1.8,7.52,6.52V26.8a.38.38,0,0,1-.4.4ZM307.9,21V18.88a.21.21,0,0,0-.24-.24h-3.84c-3.32,0-4.76,1-4.76,3.12,0,2,1.44,3,4,3C306.06,24.76,307.9,23.36,307.9,21Z"/><path d="M337.53,27.2a.38.38,0,0,1-.39-.4V25h0c-.92,1.52-2.56,2.68-5.44,2.68-3.32,0-5.64-1.56-6.6-4.6a16,16,0,0,1-.68-5.44,15.84,15.84,0,0,1,.68-5.4c1-3,3.28-4.6,6.6-4.6,2.88,0,4.52,1.12,5.44,2.64h0V.4a.38.38,0,0,1,.39-.4h2.56a.38.38,0,0,1,.4.4V26.8a.38.38,0,0,1-.4.4Zm-.83-5.6a12.6,12.6,0,0,0,.44-4,12.76,12.76,0,0,0-.44-4,4.53,4.53,0,0,0-8.44,0,13.63,13.63,0,0,0-.44,4,13.29,13.29,0,0,0,.44,4,4.51,4.51,0,0,0,8.44,0Z"/><path d="M345.74,22.44a15,15,0,0,1-.64-4.84,14.86,14.86,0,0,1,.6-4.84c1.08-3.32,3.88-5.16,7.52-5.16s6.44,1.88,7.51,5.16a16.72,16.72,0,0,1,.6,5.48.39.39,0,0,1-.44.4H348.78a.21.21,0,0,0-.24.24,7.18,7.18,0,0,0,.32,2.32,4.73,4.73,0,0,0,4.84,3.32,6.26,6.26,0,0,0,4.92-2.12.41.41,0,0,1,.6-.08l1.63,1.48a.36.36,0,0,1,0,.56,9.28,9.28,0,0,1-7.47,3.28C349.54,27.64,346.78,25.76,345.74,22.44ZM357.66,16a.21.21,0,0,0,.24-.24,6.74,6.74,0,0,0-.28-2.16,4.73,4.73,0,0,0-8.8,0,6.74,6.74,0,0,0-.28,2.16.21.21,0,0,0,.24.24Z"/><path d="M378.37,27.2a.38.38,0,0,1-.4-.4V15.6c0-3.08-1.39-4.88-4.27-4.88-2.6,0-4.4,1.84-4.4,4.68V26.8a.38.38,0,0,1-.4.4h-2.56a.38.38,0,0,1-.4-.4V8.44a.38.38,0,0,1,.4-.4h2.56a.38.38,0,0,1,.4.4V10.2h0a6.06,6.06,0,0,1,5.36-2.6c4.15,0,6.63,2.84,6.63,7.2v12a.38.38,0,0,1-.4.4Z"/><path d="M392.46,27.4c-3.72,0-5.16-1.68-5.16-5.44V11a.21.21,0,0,0-.24-.24h-1.6a.38.38,0,0,1-.4-.4V8.44a.38.38,0,0,1,.4-.4h1.6a.21.21,0,0,0,.24-.24V2.4a.38.38,0,0,1,.4-.4h2.56a.38.38,0,0,1,.4.4V7.8a.21.21,0,0,0,.24.24h3a.38.38,0,0,1,.4.4v1.92a.38.38,0,0,1-.4.4h-3a.21.21,0,0,0-.24.24V21.84c0,1.92.72,2.44,2.44,2.44h.84a.38.38,0,0,1,.4.4V27a.38.38,0,0,1-.4.4Z"/><path d="M399.14,27.2a.38.38,0,0,1-.4-.4V8.44a.38.38,0,0,1,.4-.4h2.56a.38.38,0,0,1,.4.4v2h0a5.33,5.33,0,0,1,5.07-2.8A5.89,5.89,0,0,1,411.13,9c.2.2.24.36.08.56l-1.48,2a.36.36,0,0,1-.56.08,5.39,5.39,0,0,0-2.95-.92c-2.92,0-4.12,2.28-4.12,5.6V26.8a.38.38,0,0,1-.4.4Z"/><path d="M413.1,22.48a14.39,14.39,0,0,1-.64-4.88,14.29,14.29,0,0,1,.64-4.84c1-3.28,3.84-5.16,7.55-5.16s6.52,1.88,7.56,5.16a14.29,14.29,0,0,1,.64,4.84,14.39,14.39,0,0,1-.64,4.88c-1,3.24-3.84,5.16-7.56,5.16S414.14,25.72,413.1,22.48Zm11.87-1a12.55,12.55,0,0,0,.44-3.92,12.27,12.27,0,0,0-.44-3.88,4.6,4.6,0,0,0-8.63,0,12.27,12.27,0,0,0-.44,3.88,12.55,12.55,0,0,0,.44,3.92,4.6,4.6,0,0,0,8.63,0Z"/><path d="M454.25,27.2a.38.38,0,0,1-.4-.4V25h0c-.92,1.52-2.56,2.68-5.44,2.68-3.32,0-5.63-1.56-6.59-4.6a16,16,0,0,1-.68-5.44,15.84,15.84,0,0,1,.68-5.4c1-3,3.27-4.6,6.59-4.6,2.88,0,4.52,1.12,5.44,2.64h0V.4a.38.38,0,0,1,.4-.4h2.56a.38.38,0,0,1,.4.4V26.8a.38.38,0,0,1-.4.4Zm-.84-5.6a12.31,12.31,0,0,0,.44-4,12.47,12.47,0,0,0-.44-4,4.53,4.53,0,0,0-8.44,0,14,14,0,0,0-.44,4,13.62,13.62,0,0,0,.44,4,4.51,4.51,0,0,0,8.44,0Z"/><path d="M461.66,22.44A14.7,14.7,0,0,1,461,17.6a14.82,14.82,0,0,1,.61-4.84c1.07-3.32,3.87-5.16,7.51-5.16a7.42,7.42,0,0,1,7.52,5.16,16.72,16.72,0,0,1,.6,5.48.39.39,0,0,1-.44.4H464.69a.21.21,0,0,0-.24.24,7.18,7.18,0,0,0,.32,2.32,4.73,4.73,0,0,0,4.84,3.32,6.26,6.26,0,0,0,4.92-2.12.41.41,0,0,1,.6-.08l1.64,1.48a.36.36,0,0,1,0,.56,9.32,9.32,0,0,1-7.48,3.28C465.45,27.64,462.69,25.76,461.66,22.44ZM473.57,16a.21.21,0,0,0,.24-.24,6.74,6.74,0,0,0-.28-2.16,4.73,4.73,0,0,0-8.8,0,6.74,6.74,0,0,0-.28,2.16.21.21,0,0,0,.24.24Z"/><path d="M27.94,62.76a.39.39,0,0,1,0-.56l1.64-1.76a.39.39,0,0,1,.56,0,9.31,9.31,0,0,0,5.92,2.2c2.8,0,4.2-1.2,4.2-2.92,0-1.52-.72-2.36-3.72-2.68l-2-.2c-3.76-.4-5.72-2.28-5.72-5.4,0-3.64,2.6-5.84,7.12-5.84a11.46,11.46,0,0,1,6.8,2.12.39.39,0,0,1,.08.56L41.42,50a.39.39,0,0,1-.56.08,10.09,10.09,0,0,0-5.16-1.56c-2.4,0-3.64,1.08-3.64,2.64s.92,2.32,3.76,2.6l2,.2c3.88.36,5.76,2.32,5.76,5.4,0,3.76-2.72,6.28-7.72,6.28A11.91,11.91,0,0,1,27.94,62.76Z"/><path d="M58.5,65.2a.38.38,0,0,1-.4-.4V63h0a5.84,5.84,0,0,1-5.24,2.64c-4.2,0-6.64-2.88-6.64-7.24v-12a.38.38,0,0,1,.4-.4h2.56a.38.38,0,0,1,.4.4V57.6c0,3.12,1.4,4.92,4.24,4.92,2.6,0,4.32-1.84,4.32-4.72V46.44a.38.38,0,0,1,.4-.4h2.56a.38.38,0,0,1,.4.4V64.8a.38.38,0,0,1-.4.4Z"/><path d="M77.42,65.4c-3.36,0-4.68-1.6-4.68-5v-22a.38.38,0,0,1,.4-.4H75.7a.38.38,0,0,1,.4.4V60.16c0,1.6.6,2.12,1.92,2.12h.76a.38.38,0,0,1,.4.4V65a.38.38,0,0,1-.4.4Z"/><path d="M93.1,65.2a.38.38,0,0,1-.4-.4V63.12h0c-.88,1.44-2.76,2.52-5.68,2.52-3.64,0-6.44-1.88-6.44-5.76,0-4,2.8-5.92,7.48-5.92h4.36a.21.21,0,0,0,.24-.24v-1.4c0-2.64-1-3.76-4.6-3.76a7.45,7.45,0,0,0-4.64,1.36c-.2.16-.44.16-.56,0L81.74,48a.42.42,0,0,1,.08-.56,10.63,10.63,0,0,1,6.52-1.88c5.44,0,7.52,1.8,7.52,6.52V64.8a.38.38,0,0,1-.4.4ZM92.62,59V56.88a.21.21,0,0,0-.24-.24H88.54c-3.32,0-4.76,1-4.76,3.12,0,2,1.44,3,4,3C90.78,62.76,92.62,61.36,92.62,59Z"/><path d="M100.26,65.2a.38.38,0,0,1-.4-.4V38.4a.38.38,0,0,1,.4-.4h2.56a.38.38,0,0,1,.4.4v9.84h0c.92-1.52,2.56-2.64,5.44-2.64,3.32,0,5.64,1.56,6.6,4.6a15.84,15.84,0,0,1,.68,5.4A16,16,0,0,1,115.3,61c-1,3-3.28,4.6-6.6,4.6-2.88,0-4.52-1.16-5.44-2.68h0V64.8a.38.38,0,0,1-.4.4Zm11.84-5.6a13.29,13.29,0,0,0,.44-4,13.63,13.63,0,0,0-.44-4,4.53,4.53,0,0,0-8.44,0,12.47,12.47,0,0,0-.44,4,12.31,12.31,0,0,0,.44,4,4.51,4.51,0,0,0,8.44,0Z"/><path d="M118.46,60.48a14.39,14.39,0,0,1-.64-4.88,14.29,14.29,0,0,1,.64-4.84c1-3.28,3.84-5.16,7.56-5.16s6.52,1.88,7.56,5.16a14.29,14.29,0,0,1,.64,4.84,14.39,14.39,0,0,1-.64,4.88c-1,3.24-3.84,5.16-7.56,5.16S119.5,63.72,118.46,60.48Zm11.88-1a12.55,12.55,0,0,0,.44-3.92,12.27,12.27,0,0,0-.44-3.88,4.61,4.61,0,0,0-8.64,0,12.27,12.27,0,0,0-.44,3.88,12.55,12.55,0,0,0,.44,3.92,4.61,4.61,0,0,0,8.64,0Z"/><path d="M137.62,65.2a.38.38,0,0,1-.4-.4V46.44a.38.38,0,0,1,.4-.4h2.56a.38.38,0,0,1,.4.4v2h0a5.34,5.34,0,0,1,5.08-2.8A5.89,5.89,0,0,1,149.62,47c.2.2.24.36.08.56l-1.48,2a.36.36,0,0,1-.56.08,5.4,5.4,0,0,0-3-.92c-2.92,0-4.12,2.28-4.12,5.6V64.8a.38.38,0,0,1-.4.4Z"/><path d="M148.46,61h2.8a.38.38,0,0,1,.4.4v3.72a1.27,1.27,0,0,1-.24.88l-2.48,3.28a.64.64,0,0,1-.52.27.36.36,0,0,1-.36-.35v-7.8A.38.38,0,0,1,148.46,61Z"/><path d="M162.1,65.2a.38.38,0,0,1-.4-.4V46.44a.38.38,0,0,1,.4-.4h2.56a.38.38,0,0,1,.4.4v2h0a5.34,5.34,0,0,1,5.08-2.8A5.89,5.89,0,0,1,174.1,47c.2.2.24.36.08.56l-1.48,2a.36.36,0,0,1-.56.08,5.4,5.4,0,0,0-3-.92c-2.92,0-4.12,2.28-4.12,5.6V64.8a.38.38,0,0,1-.4.4Z"/><path d="M174.46,60.44a15,15,0,0,1-.64-4.84,14.86,14.86,0,0,1,.6-4.84c1.08-3.32,3.88-5.16,7.52-5.16a7.42,7.42,0,0,1,7.52,5.16,16.72,16.72,0,0,1,.6,5.48.39.39,0,0,1-.44.4H177.5a.21.21,0,0,0-.24.24,7.18,7.18,0,0,0,.32,2.32,4.73,4.73,0,0,0,4.84,3.32,6.26,6.26,0,0,0,4.92-2.12.41.41,0,0,1,.6-.08l1.64,1.48a.36.36,0,0,1,0,.56,9.32,9.32,0,0,1-7.48,3.28C178.26,65.64,175.5,63.76,174.46,60.44ZM186.38,54a.21.21,0,0,0,.24-.24,6.74,6.74,0,0,0-.28-2.16,4.73,4.73,0,0,0-8.8,0,6.74,6.74,0,0,0-.28,2.16.21.21,0,0,0,.24.24Z"/><path d="M192.5,50.76c1.08-3.32,3.88-5.16,7.56-5.16a7.68,7.68,0,0,1,6.56,3.24c.12.2.12.36-.12.56l-1.76,1.44a.36.36,0,0,1-.56,0,4.71,4.71,0,0,0-4.12-2.08,4.16,4.16,0,0,0-4.28,3,12.76,12.76,0,0,0-.44,3.88,12.88,12.88,0,0,0,.44,3.92,4.16,4.16,0,0,0,4.28,3,4.71,4.71,0,0,0,4.12-2.08.36.36,0,0,1,.56,0l1.76,1.44c.24.2.24.36.12.56a7.68,7.68,0,0,1-6.56,3.24c-3.68,0-6.48-1.84-7.56-5.16a16.55,16.55,0,0,1-.6-4.88A16.45,16.45,0,0,1,192.5,50.76Z"/><path d="M221.58,65.2a.38.38,0,0,1-.4-.4V63h0a5.84,5.84,0,0,1-5.24,2.64c-4.2,0-6.64-2.88-6.64-7.24v-12a.38.38,0,0,1,.4-.4h2.56a.38.38,0,0,1,.4.4V57.6c0,3.12,1.4,4.92,4.24,4.92,2.6,0,4.32-1.84,4.32-4.72V46.44a.38.38,0,0,1,.4-.4h2.56a.38.38,0,0,1,.4.4V64.8a.38.38,0,0,1-.4.4Z"/><path d="M228.18,60.44a15,15,0,0,1-.64-4.84,14.86,14.86,0,0,1,.6-4.84c1.08-3.32,3.88-5.16,7.52-5.16a7.42,7.42,0,0,1,7.52,5.16,16.72,16.72,0,0,1,.6,5.48.39.39,0,0,1-.44.4H231.22a.21.21,0,0,0-.24.24,7.18,7.18,0,0,0,.32,2.32,4.73,4.73,0,0,0,4.84,3.32,6.26,6.26,0,0,0,4.92-2.12.41.41,0,0,1,.6-.08l1.64,1.48a.36.36,0,0,1,0,.56,9.32,9.32,0,0,1-7.48,3.28C232,65.64,229.22,63.76,228.18,60.44ZM240.1,54a.21.21,0,0,0,.24-.24,6.74,6.74,0,0,0-.28-2.16,4.73,4.73,0,0,0-8.8,0,6.74,6.74,0,0,0-.28,2.16.21.21,0,0,0,.24.24Z"/><path d="M247.18,65.2a.38.38,0,0,1-.4-.4V46.44a.38.38,0,0,1,.4-.4h2.56a.38.38,0,0,1,.4.4v2h0a5.34,5.34,0,0,1,5.08-2.8A5.89,5.89,0,0,1,259.18,47c.2.2.24.36.08.56l-1.48,2a.36.36,0,0,1-.56.08,5.4,5.4,0,0,0-3-.92c-2.92,0-4.12,2.28-4.12,5.6V64.8a.38.38,0,0,1-.4.4Z"/><path d="M272.06,65.2a.38.38,0,0,1-.4-.4V63h0c-.92,1.52-2.56,2.68-5.44,2.68-3.32,0-5.64-1.56-6.6-4.6a16,16,0,0,1-.68-5.44,15.84,15.84,0,0,1,.68-5.4c1-3,3.28-4.6,6.6-4.6,2.88,0,4.52,1.12,5.44,2.64h0V38.4a.38.38,0,0,1,.4-.4h2.56a.38.38,0,0,1,.4.4V64.8a.38.38,0,0,1-.4.4Zm-.84-5.6a12.31,12.31,0,0,0,.44-4,12.47,12.47,0,0,0-.44-4,4.53,4.53,0,0,0-8.44,0,13.63,13.63,0,0,0-.44,4,13.29,13.29,0,0,0,.44,4,4.51,4.51,0,0,0,8.44,0Z"/><path d="M278.66,60.44A15,15,0,0,1,278,55.6a14.86,14.86,0,0,1,.6-4.84c1.08-3.32,3.88-5.16,7.52-5.16a7.42,7.42,0,0,1,7.52,5.16,16.72,16.72,0,0,1,.6,5.48.39.39,0,0,1-.44.4H281.7a.21.21,0,0,0-.24.24,7.18,7.18,0,0,0,.32,2.32,4.73,4.73,0,0,0,4.84,3.32,6.26,6.26,0,0,0,4.92-2.12.41.41,0,0,1,.6-.08l1.64,1.48a.36.36,0,0,1,0,.56,9.32,9.32,0,0,1-7.48,3.28C282.46,65.64,279.7,63.76,278.66,60.44ZM290.58,54a.21.21,0,0,0,.24-.24,6.74,6.74,0,0,0-.28-2.16,4.73,4.73,0,0,0-8.8,0,6.74,6.74,0,0,0-.28,2.16.21.21,0,0,0,.24.24Z"/><path d="M328.93,65.2a.38.38,0,0,1-.4-.4V53.6c0-3.08-1.4-4.88-4.27-4.88a4.32,4.32,0,0,0-4.4,4.68V64.8a.38.38,0,0,1-.4.4H316.9a.38.38,0,0,1-.4-.4V53.6c0-3.08-1.4-4.88-4.28-4.88-2.6,0-4.4,1.84-4.4,4.68V64.8a.38.38,0,0,1-.4.4h-2.56a.38.38,0,0,1-.4-.4V46.44a.38.38,0,0,1,.4-.4h2.56a.38.38,0,0,1,.4.4V48.2h0a6.77,6.77,0,0,1,11,.4h0a7.13,7.13,0,0,1,6.19-3c4.44,0,6.84,2.84,6.84,7.2v12a.38.38,0,0,1-.4.4Z"/><path d="M347.46,65.2a.38.38,0,0,1-.4-.4V63.12h0c-.88,1.44-2.76,2.52-5.68,2.52-3.64,0-6.44-1.88-6.44-5.76,0-4,2.8-5.92,7.48-5.92h4.36a.21.21,0,0,0,.24-.24v-1.4c0-2.64-1-3.76-4.6-3.76a7.45,7.45,0,0,0-4.64,1.36c-.2.16-.44.16-.56,0L336.1,48a.42.42,0,0,1,.08-.56,10.63,10.63,0,0,1,6.52-1.88c5.44,0,7.52,1.8,7.52,6.52V64.8a.38.38,0,0,1-.4.4ZM347,59V56.88a.21.21,0,0,0-.24-.24H342.9c-3.32,0-4.76,1-4.76,3.12,0,2,1.44,3,4,3C345.14,62.76,347,61.36,347,59Z"/><path d="M366.66,65.2a.38.38,0,0,1-.4-.4V53.6c0-3.08-1.4-4.88-4.28-4.88-2.6,0-4.4,1.84-4.4,4.68V64.8a.38.38,0,0,1-.4.4h-2.56a.38.38,0,0,1-.4-.4V46.44a.38.38,0,0,1,.4-.4h2.56a.38.38,0,0,1,.4.4V48.2h0A6.06,6.06,0,0,1,363,45.6c4.16,0,6.64,2.84,6.64,7.2v12a.38.38,0,0,1-.4.4Z"/><path d="M379.14,65.4c-3.72,0-5.16-1.68-5.16-5.44V49a.21.21,0,0,0-.24-.24h-1.6a.38.38,0,0,1-.4-.4V46.44a.38.38,0,0,1,.4-.4h1.6a.21.21,0,0,0,.24-.24V40.4a.38.38,0,0,1,.4-.4h2.56a.38.38,0,0,1,.4.4v5.4a.21.21,0,0,0,.24.24h3a.38.38,0,0,1,.4.4v1.92a.38.38,0,0,1-.4.4h-3a.21.21,0,0,0-.24.24V59.84c0,1.92.72,2.44,2.44,2.44h.84a.38.38,0,0,1,.4.4V65a.38.38,0,0,1-.4.4Z"/><path d="M383.3,60.44a15,15,0,0,1-.64-4.84,14.86,14.86,0,0,1,.6-4.84c1.08-3.32,3.88-5.16,7.52-5.16a7.42,7.42,0,0,1,7.51,5.16,16.72,16.72,0,0,1,.6,5.48.39.39,0,0,1-.44.4H386.34a.21.21,0,0,0-.24.24,7.18,7.18,0,0,0,.32,2.32,4.73,4.73,0,0,0,4.84,3.32,6.22,6.22,0,0,0,4.91-2.12.41.41,0,0,1,.6-.08l1.64,1.48a.36.36,0,0,1,0,.56A9.29,9.29,0,0,1,391,65.64C387.1,65.64,384.34,63.76,383.3,60.44ZM395.22,54a.21.21,0,0,0,.23-.24,7.06,7.06,0,0,0-.27-2.16,4.73,4.73,0,0,0-8.8,0,6.74,6.74,0,0,0-.28,2.16.21.21,0,0,0,.24.24Z"/><path d="M414.33,65.2a.38.38,0,0,1-.4-.4V53.6c0-3.08-1.4-4.88-4.27-4.88-2.6,0-4.4,1.84-4.4,4.68V64.8a.38.38,0,0,1-.4.4H402.3a.38.38,0,0,1-.4-.4V46.44a.38.38,0,0,1,.4-.4h2.56a.38.38,0,0,1,.4.4V48.2h0a6.06,6.06,0,0,1,5.36-2.6c4.15,0,6.63,2.84,6.63,7.2v12a.38.38,0,0,1-.4.4Z"/><path d="M420.74,60.44a15,15,0,0,1-.64-4.84,14.86,14.86,0,0,1,.6-4.84c1.08-3.32,3.88-5.16,7.52-5.16a7.42,7.42,0,0,1,7.51,5.16,16.72,16.72,0,0,1,.6,5.48.39.39,0,0,1-.44.4H423.78a.21.21,0,0,0-.24.24,7.18,7.18,0,0,0,.32,2.32,4.73,4.73,0,0,0,4.84,3.32,6.22,6.22,0,0,0,4.91-2.12.41.41,0,0,1,.6-.08l1.64,1.48a.36.36,0,0,1,0,.56,9.29,9.29,0,0,1-7.47,3.28C424.54,65.64,421.78,63.76,420.74,60.44ZM432.66,54a.21.21,0,0,0,.23-.24,7.06,7.06,0,0,0-.27-2.16,4.73,4.73,0,0,0-8.8,0,6.74,6.74,0,0,0-.28,2.16.21.21,0,0,0,.24.24Z"/><path d="M439.74,65.2a.38.38,0,0,1-.4-.4V46.44a.38.38,0,0,1,.4-.4h2.56a.38.38,0,0,1,.4.4v2h0a5.33,5.33,0,0,1,5.07-2.8A5.89,5.89,0,0,1,451.73,47c.2.2.24.36.08.56l-1.48,2a.36.36,0,0,1-.56.08,5.39,5.39,0,0,0-2.95-.92c-2.92,0-4.12,2.28-4.12,5.6V64.8a.38.38,0,0,1-.4.4Z"/><path d="M26,103.2a.38.38,0,0,1-.4-.4v-1.68h0c-.88,1.44-2.76,2.52-5.68,2.52-3.64,0-6.44-1.88-6.44-5.76,0-4,2.8-5.92,7.48-5.92h4.36a.21.21,0,0,0,.24-.24v-1.4c0-2.64-1-3.76-4.6-3.76a7.45,7.45,0,0,0-4.64,1.36c-.2.16-.44.16-.56,0L14.62,86a.42.42,0,0,1,.08-.56,10.63,10.63,0,0,1,6.52-1.88c5.44,0,7.52,1.8,7.52,6.52V102.8a.38.38,0,0,1-.4.4ZM25.5,97V94.88a.21.21,0,0,0-.24-.24H21.42c-3.32,0-4.76,1-4.76,3.12,0,2,1.44,3,4,3C23.66,100.76,25.5,99.36,25.5,97Z"/><path d="M44.74,103.2a.38.38,0,0,1-.4-.4V101h0c-.92,1.52-2.56,2.68-5.44,2.68-3.32,0-5.64-1.56-6.6-4.6a16,16,0,0,1-.68-5.44,15.84,15.84,0,0,1,.68-5.4c1-3,3.28-4.6,6.6-4.6,2.88,0,4.52,1.12,5.44,2.64h0V76.4a.38.38,0,0,1,.4-.4H47.3a.38.38,0,0,1,.4.4v26.4a.38.38,0,0,1-.4.4Zm-.84-5.6a12.31,12.31,0,0,0,.44-4,12.47,12.47,0,0,0-.44-4,4.07,4.07,0,0,0-4.24-2.88,4.07,4.07,0,0,0-4.2,2.88,13.63,13.63,0,0,0-.44,4,13.29,13.29,0,0,0,.44,4,4.1,4.1,0,0,0,4.2,2.92A4.1,4.1,0,0,0,43.9,97.6Z"/><path d="M51.34,98.44a15,15,0,0,1-.64-4.84,14.86,14.86,0,0,1,.6-4.84c1.08-3.32,3.88-5.16,7.52-5.16a7.42,7.42,0,0,1,7.52,5.16,16.72,16.72,0,0,1,.6,5.48.39.39,0,0,1-.44.4H54.38a.21.21,0,0,0-.24.24,7.18,7.18,0,0,0,.32,2.32,4.73,4.73,0,0,0,4.84,3.32,6.26,6.26,0,0,0,4.92-2.12.41.41,0,0,1,.6-.08l1.64,1.48a.36.36,0,0,1,0,.56A9.32,9.32,0,0,1,59,103.64C55.14,103.64,52.38,101.76,51.34,98.44ZM63.26,92a.21.21,0,0,0,.24-.24,6.74,6.74,0,0,0-.28-2.16,4.73,4.73,0,0,0-8.8,0,6.74,6.74,0,0,0-.28,2.16.21.21,0,0,0,.24.24Z"/><path d="M69.38,88.76c1.08-3.32,3.88-5.16,7.56-5.16a7.68,7.68,0,0,1,6.56,3.24c.12.2.12.36-.12.56l-1.76,1.44a.36.36,0,0,1-.56,0,4.71,4.71,0,0,0-4.12-2.08,4.16,4.16,0,0,0-4.28,3,12.76,12.76,0,0,0-.44,3.88,12.88,12.88,0,0,0,.44,3.92,4.16,4.16,0,0,0,4.28,3,4.71,4.71,0,0,0,4.12-2.08.36.36,0,0,1,.56,0l1.76,1.44c.24.2.24.36.12.56a7.68,7.68,0,0,1-6.56,3.24c-3.68,0-6.48-1.84-7.56-5.16a20,20,0,0,1,0-9.72Z"/><path d="M98.46,103.2a.38.38,0,0,1-.4-.4V101h0a5.84,5.84,0,0,1-5.24,2.64c-4.2,0-6.64-2.88-6.64-7.24v-12a.38.38,0,0,1,.4-.4H89.1a.38.38,0,0,1,.4.4V95.6c0,3.12,1.4,4.92,4.24,4.92,2.6,0,4.32-1.84,4.32-4.72V84.44a.38.38,0,0,1,.4-.4H101a.38.38,0,0,1,.4.4V102.8a.38.38,0,0,1-.4.4Z"/><path d="M117.18,103.2a.38.38,0,0,1-.4-.4v-1.68h0c-.88,1.44-2.76,2.52-5.68,2.52-3.64,0-6.44-1.88-6.44-5.76,0-4,2.8-5.92,7.48-5.92h4.36a.21.21,0,0,0,.24-.24v-1.4c0-2.64-1-3.76-4.6-3.76a7.45,7.45,0,0,0-4.64,1.36c-.2.16-.44.16-.56,0L105.82,86a.42.42,0,0,1,.08-.56,10.63,10.63,0,0,1,6.52-1.88c5.44,0,7.52,1.8,7.52,6.52V102.8a.38.38,0,0,1-.4.4ZM116.7,97V94.88a.21.21,0,0,0-.24-.24h-3.84c-3.32,0-4.76,1-4.76,3.12,0,2,1.44,3,4,3C114.86,100.76,116.7,99.36,116.7,97Z"/><path d="M135.94,103.2a.38.38,0,0,1-.4-.4V101h0c-.92,1.52-2.56,2.68-5.44,2.68-3.32,0-5.64-1.56-6.6-4.6a16,16,0,0,1-.68-5.44,15.84,15.84,0,0,1,.68-5.4c1-3,3.28-4.6,6.6-4.6,2.88,0,4.52,1.12,5.44,2.64h0V76.4a.38.38,0,0,1,.4-.4h2.56a.38.38,0,0,1,.4.4v26.4a.38.38,0,0,1-.4.4Zm-.84-5.6a12.31,12.31,0,0,0,.44-4,12.47,12.47,0,0,0-.44-4,4.53,4.53,0,0,0-8.44,0,13.63,13.63,0,0,0-.44,4,13.29,13.29,0,0,0,.44,4,4.51,4.51,0,0,0,8.44,0Z"/><path d="M142.54,98.48a14.39,14.39,0,0,1-.64-4.88,14.29,14.29,0,0,1,.64-4.84c1-3.28,3.84-5.16,7.56-5.16s6.52,1.88,7.56,5.16a14.29,14.29,0,0,1,.64,4.84,14.39,14.39,0,0,1-.64,4.88c-1,3.24-3.84,5.16-7.56,5.16S143.58,101.72,142.54,98.48Zm11.88-1a12.55,12.55,0,0,0,.44-3.92,12.27,12.27,0,0,0-.44-3.88,4.61,4.61,0,0,0-8.64,0,12.27,12.27,0,0,0-.44,3.88,12.55,12.55,0,0,0,.44,3.92,4.61,4.61,0,0,0,8.64,0Z"/><path d="M160,100.76a.39.39,0,0,1,0-.56l1.64-1.76a.39.39,0,0,1,.56,0,9.31,9.31,0,0,0,5.92,2.2c2.8,0,4.2-1.2,4.2-2.92,0-1.52-.72-2.36-3.72-2.68l-2-.2c-3.76-.4-5.72-2.28-5.72-5.4,0-3.64,2.6-5.84,7.12-5.84a11.46,11.46,0,0,1,6.8,2.12.39.39,0,0,1,.08.56L173.46,88a.39.39,0,0,1-.56.08,10.09,10.09,0,0,0-5.16-1.56c-2.4,0-3.64,1.08-3.64,2.64s.92,2.32,3.76,2.6l2,.2c3.88.36,5.76,2.32,5.76,5.4,0,3.76-2.72,6.28-7.72,6.28A11.91,11.91,0,0,1,160,100.76Z"/><path d="M198.14,103.2a.38.38,0,0,1-.4-.4V91.6c0-3.08-1.4-4.88-4.28-4.88-2.6,0-4.4,1.84-4.4,4.68v11.4a.38.38,0,0,1-.4.4H186.1a.38.38,0,0,1-.4-.4V76.4a.38.38,0,0,1,.4-.4h2.56a.38.38,0,0,1,.4.4v9.8h0a6.06,6.06,0,0,1,5.36-2.6c4.16,0,6.64,2.84,6.64,7.2v12a.38.38,0,0,1-.4.4Z"/><path d="M216.66,103.2a.38.38,0,0,1-.4-.4v-1.68h0c-.88,1.44-2.76,2.52-5.68,2.52-3.64,0-6.44-1.88-6.44-5.76,0-4,2.8-5.92,7.48-5.92h4.36a.21.21,0,0,0,.24-.24v-1.4c0-2.64-1-3.76-4.6-3.76a7.45,7.45,0,0,0-4.64,1.36c-.2.16-.44.16-.56,0L205.3,86a.42.42,0,0,1,.08-.56,10.63,10.63,0,0,1,6.52-1.88c5.44,0,7.52,1.8,7.52,6.52V102.8a.38.38,0,0,1-.4.4Zm-.48-6.2V94.88a.21.21,0,0,0-.24-.24H212.1c-3.32,0-4.76,1-4.76,3.12,0,2,1.44,3,4,3C214.34,100.76,216.18,99.36,216.18,97Zm-5.4-16.08c-.24,0-.36-.16-.24-.4l3-4.92a.7.7,0,0,1,.68-.4h2.64c.24,0,.36.2.2.4l-3.68,4.92a.79.79,0,0,1-.76.4Z"/><path d="M223.82,103.2a.38.38,0,0,1-.4-.4V76.4a.38.38,0,0,1,.4-.4h2.56a.38.38,0,0,1,.4.4v9.84h0c.92-1.52,2.56-2.64,5.44-2.64,3.32,0,5.64,1.56,6.6,4.6a15.84,15.84,0,0,1,.68,5.4,16,16,0,0,1-.68,5.44c-1,3-3.28,4.6-6.6,4.6-2.88,0-4.52-1.16-5.44-2.68h0v1.84a.38.38,0,0,1-.4.4Zm11.84-5.6a13.29,13.29,0,0,0,.44-4,13.63,13.63,0,0,0-.44-4,4.53,4.53,0,0,0-8.44,0,12.47,12.47,0,0,0-.44,4,12.31,12.31,0,0,0,.44,4,4.51,4.51,0,0,0,8.44,0Z"/><path d="M242.86,79.72a.38.38,0,0,1-.4-.4V76.4a.38.38,0,0,1,.4-.4h2.72a.38.38,0,0,1,.4.4v2.92a.38.38,0,0,1-.4.4Zm.08,23.48a.38.38,0,0,1-.4-.4V84.44a.38.38,0,0,1,.4-.4h2.56a.38.38,0,0,1,.4.4V102.8a.38.38,0,0,1-.4.4Z"/><path d="M255.62,103.4c-3.72,0-5.16-1.68-5.16-5.44V87a.21.21,0,0,0-.24-.24h-1.6a.38.38,0,0,1-.4-.4V84.44a.38.38,0,0,1,.4-.4h1.6a.21.21,0,0,0,.24-.24V78.4a.38.38,0,0,1,.4-.4h2.56a.38.38,0,0,1,.4.4v5.4a.21.21,0,0,0,.24.24h3a.38.38,0,0,1,.4.4v1.92a.38.38,0,0,1-.4.4h-3a.21.21,0,0,0-.24.24V97.84c0,1.92.72,2.44,2.44,2.44h.84a.38.38,0,0,1,.4.4V103a.38.38,0,0,1-.4.4Z"/><path d="M259.78,98.48a14.39,14.39,0,0,1-.64-4.88,14.29,14.29,0,0,1,.64-4.84c1-3.28,3.84-5.16,7.56-5.16s6.52,1.88,7.56,5.16a14.29,14.29,0,0,1,.64,4.84,14.39,14.39,0,0,1-.64,4.88c-1,3.24-3.84,5.16-7.56,5.16S260.82,101.72,259.78,98.48Zm11.88-1a12.55,12.55,0,0,0,.44-3.92,12.27,12.27,0,0,0-.44-3.88,4.61,4.61,0,0,0-8.64,0,12.27,12.27,0,0,0-.44,3.88,12.55,12.55,0,0,0,.44,3.92,4.61,4.61,0,0,0,8.64,0Z"/><path d="M277.22,100.76a.39.39,0,0,1,0-.56l1.64-1.76a.39.39,0,0,1,.56,0,9.31,9.31,0,0,0,5.92,2.2c2.8,0,4.2-1.2,4.2-2.92,0-1.52-.72-2.36-3.72-2.68l-2-.2c-3.76-.4-5.72-2.28-5.72-5.4,0-3.64,2.6-5.84,7.12-5.84a11.46,11.46,0,0,1,6.8,2.12.39.39,0,0,1,.08.56L290.7,88a.39.39,0,0,1-.56.08A10.09,10.09,0,0,0,285,86.52c-2.4,0-3.64,1.08-3.64,2.64s.92,2.32,3.76,2.6l2,.2c3.88.36,5.76,2.32,5.76,5.4,0,3.76-2.72,6.28-7.72,6.28A11.91,11.91,0,0,1,277.22,100.76Z"/><path d="M303.34,110.39a.38.38,0,0,1-.4-.4V84.44a.38.38,0,0,1,.4-.4h2.56a.38.38,0,0,1,.4.4v1.8h0c.92-1.52,2.56-2.64,5.44-2.64,3.32,0,5.63,1.56,6.59,4.6a15.84,15.84,0,0,1,.68,5.4,16,16,0,0,1-.68,5.44c-1,3-3.27,4.6-6.59,4.6-2.88,0-4.52-1.16-5.44-2.68h0v9a.38.38,0,0,1-.4.4ZM315.18,97.6a13.29,13.29,0,0,0,.44-4,13.63,13.63,0,0,0-.44-4,4.53,4.53,0,0,0-8.44,0,12.47,12.47,0,0,0-.44,4,12.31,12.31,0,0,0,.44,4,4.51,4.51,0,0,0,8.44,0Z"/><path d="M321.54,98.48a14.39,14.39,0,0,1-.64-4.88,14.29,14.29,0,0,1,.64-4.84c1-3.28,3.84-5.16,7.56-5.16s6.52,1.88,7.56,5.16a14.29,14.29,0,0,1,.64,4.84,14.39,14.39,0,0,1-.64,4.88c-1,3.24-3.84,5.16-7.56,5.16S322.58,101.72,321.54,98.48Zm11.88-1a12.55,12.55,0,0,0,.44-3.92,12.27,12.27,0,0,0-.44-3.88,4.61,4.61,0,0,0-8.64,0,12.27,12.27,0,0,0-.44,3.88,12.55,12.55,0,0,0,.44,3.92,4.61,4.61,0,0,0,8.64,0Z"/><path d="M339,100.76a.39.39,0,0,1,0-.56l1.64-1.76a.39.39,0,0,1,.56,0,9.31,9.31,0,0,0,5.92,2.2c2.8,0,4.2-1.2,4.2-2.92,0-1.52-.72-2.36-3.72-2.68l-2-.2c-3.76-.4-5.72-2.28-5.72-5.4,0-3.64,2.6-5.84,7.12-5.84a11.46,11.46,0,0,1,6.8,2.12.4.4,0,0,1,.08.56L352.46,88a.39.39,0,0,1-.56.08,10.09,10.09,0,0,0-5.16-1.56c-2.4,0-3.64,1.08-3.64,2.64s.92,2.32,3.76,2.6l2,.2c3.88.36,5.76,2.32,5.76,5.4,0,3.76-2.72,6.28-7.72,6.28A11.91,11.91,0,0,1,339,100.76Z"/><path d="M363.06,103.4c-3.72,0-5.16-1.68-5.16-5.44V87a.21.21,0,0,0-.24-.24h-1.6a.38.38,0,0,1-.4-.4V84.44a.38.38,0,0,1,.4-.4h1.6a.21.21,0,0,0,.24-.24V78.4a.38.38,0,0,1,.4-.4h2.56a.38.38,0,0,1,.4.4v5.4a.21.21,0,0,0,.24.24h3a.38.38,0,0,1,.4.4v1.92a.38.38,0,0,1-.4.4h-3a.21.21,0,0,0-.24.24V97.84c0,1.92.72,2.44,2.44,2.44h.84a.38.38,0,0,1,.4.4V103a.38.38,0,0,1-.4.4Z"/><path d="M379.77,103.2a.38.38,0,0,1-.4-.4V101h0a5.83,5.83,0,0,1-5.23,2.64c-4.2,0-6.64-2.88-6.64-7.24v-12a.38.38,0,0,1,.4-.4h2.56a.38.38,0,0,1,.4.4V95.6c0,3.12,1.4,4.92,4.24,4.92,2.6,0,4.31-1.84,4.31-4.72V84.44a.38.38,0,0,1,.4-.4h2.56a.38.38,0,0,1,.4.4V102.8a.38.38,0,0,1-.4.4Z"/><path d="M387.3,103.2a.38.38,0,0,1-.4-.4V84.44a.38.38,0,0,1,.4-.4h2.56a.38.38,0,0,1,.4.4v2h0a5.32,5.32,0,0,1,5.07-2.8A5.89,5.89,0,0,1,399.29,85c.2.2.24.36.08.56l-1.48,2a.36.36,0,0,1-.56.08,5.4,5.4,0,0,0-3-.92c-2.91,0-4.11,2.28-4.11,5.6V102.8a.38.38,0,0,1-.4.4Z"/><path d="M411.53,103.2a.38.38,0,0,1-.4-.4v-1.68h0c-.88,1.44-2.76,2.52-5.68,2.52-3.63,0-6.43-1.88-6.43-5.76,0-4,2.8-5.92,7.47-5.92h4.36a.21.21,0,0,0,.24-.24v-1.4c0-2.64-1-3.76-4.6-3.76a7.44,7.44,0,0,0-4.63,1.36c-.2.16-.44.16-.56,0L400.18,86a.42.42,0,0,1,.08-.56,10.62,10.62,0,0,1,6.51-1.88c5.44,0,7.52,1.8,7.52,6.52V102.8a.38.38,0,0,1-.4.4Zm-.48-6.2V94.88a.21.21,0,0,0-.24-.24H407c-3.31,0-4.75,1-4.75,3.12,0,2,1.44,3,4,3C409.21,100.76,411.05,99.36,411.05,97Z"/><path d="M422.9,103.4c-3.36,0-4.68-1.6-4.68-5v-22a.38.38,0,0,1,.4-.4h2.56a.38.38,0,0,1,.4.4V98.16c0,1.6.6,2.12,1.91,2.12h.76a.38.38,0,0,1,.4.4V103a.38.38,0,0,1-.4.4Z"/><path d="M426.46,98.44a15,15,0,0,1-.64-4.84,14.86,14.86,0,0,1,.6-4.84c1.08-3.32,3.88-5.16,7.51-5.16a7.42,7.42,0,0,1,7.52,5.16,16.72,16.72,0,0,1,.6,5.48.39.39,0,0,1-.44.4H429.49a.21.21,0,0,0-.23.24,7.18,7.18,0,0,0,.32,2.32,4.71,4.71,0,0,0,4.83,3.32,6.26,6.26,0,0,0,4.92-2.12.41.41,0,0,1,.6-.08l1.64,1.48a.36.36,0,0,1,0,.56,9.32,9.32,0,0,1-7.48,3.28C430.26,103.64,427.5,101.76,426.46,98.44ZM438.37,92a.21.21,0,0,0,.24-.24,6.74,6.74,0,0,0-.28-2.16,4.73,4.73,0,0,0-8.8,0,7.06,7.06,0,0,0-.27,2.16.21.21,0,0,0,.23.24Z"/><path d="M443.74,100.76a.39.39,0,0,1,0-.56l1.64-1.76a.39.39,0,0,1,.56,0,9.28,9.28,0,0,0,5.91,2.2c2.8,0,4.2-1.2,4.2-2.92,0-1.52-.72-2.36-3.72-2.68l-2-.2c-3.75-.4-5.71-2.28-5.71-5.4,0-3.64,2.6-5.84,7.11-5.84a11.46,11.46,0,0,1,6.8,2.12.39.39,0,0,1,.08.56L457.21,88a.39.39,0,0,1-.56.08,10.09,10.09,0,0,0-5.16-1.56c-2.39,0-3.63,1.08-3.63,2.64s.92,2.32,3.75,2.6l2,.2c3.88.36,5.76,2.32,5.76,5.4,0,3.76-2.72,6.28-7.72,6.28A11.9,11.9,0,0,1,443.74,100.76Z"/><path d="M462.18,99H465a.38.38,0,0,1,.4.4v3.72a1.27,1.27,0,0,1-.24.88l-2.48,3.28a.64.64,0,0,1-.51.27.36.36,0,0,1-.37-.35v-7.8A.38.38,0,0,1,462.18,99Z"/><path d="M38.72,141.2a.38.38,0,0,1-.4-.4V129.6c0-3.08-1.4-4.88-4.28-4.88-2.6,0-4.4,1.84-4.4,4.68v11.4a.38.38,0,0,1-.4.4H26.68a.38.38,0,0,1-.4-.4V114.4a.38.38,0,0,1,.4-.4h2.56a.38.38,0,0,1,.4.4v9.8h0A6.06,6.06,0,0,1,35,121.6c4.16,0,6.64,2.84,6.64,7.2v12a.38.38,0,0,1-.4.4Z"/><path d="M58.84,141.2a.38.38,0,0,1-.4-.4v-1.68h0c-.88,1.44-2.76,2.52-5.68,2.52-3.64,0-6.44-1.88-6.44-5.76,0-4,2.8-5.92,7.48-5.92h4.36a.21.21,0,0,0,.24-.24v-1.4c0-2.64-1-3.76-4.6-3.76a7.45,7.45,0,0,0-4.64,1.36c-.2.16-.44.16-.56,0L47.48,124a.42.42,0,0,1,.08-.56,10.63,10.63,0,0,1,6.52-1.88c5.44,0,7.52,1.8,7.52,6.52V140.8a.38.38,0,0,1-.4.4Zm-.48-6.2v-2.12a.21.21,0,0,0-.24-.24H54.28c-3.32,0-4.76,1-4.76,3.12,0,2,1.44,3,4,3C56.52,138.76,58.36,137.36,58.36,135Z"/><path d="M66.8,146a.37.37,0,0,1,0-.57l1.64-1.64a.38.38,0,0,1,.6,0,6.35,6.35,0,0,0,4.52,1.92c3.16,0,4.84-1.63,4.84-5.15v-2.24h0c-.88,1.6-2.52,2.64-5.32,2.64a6.28,6.28,0,0,1-6.44-4.64,15,15,0,0,1-.64-5,15,15,0,0,1,.64-5,6.28,6.28,0,0,1,6.44-4.64c2.8,0,4.44,1,5.32,2.64h0v-1.8a.38.38,0,0,1,.4-.4H81.4a.38.38,0,0,1,.4.4v17.92c0,5.43-3,8.47-8.36,8.47A8.69,8.69,0,0,1,66.8,146ZM78,135a11.65,11.65,0,0,0,.44-3.72,11.81,11.81,0,0,0-.44-3.72,4.32,4.32,0,0,0-8.12,0,12,12,0,0,0-.48,3.72,11.83,11.83,0,0,0,.48,3.72,3.91,3.91,0,0,0,4,2.88A4,4,0,0,0,78,135Z"/><path d="M99.16,141.2a.38.38,0,0,1-.4-.4v-1.68h0c-.88,1.44-2.76,2.52-5.68,2.52-3.64,0-6.44-1.88-6.44-5.76,0-4,2.8-5.92,7.48-5.92h4.36a.21.21,0,0,0,.24-.24v-1.4c0-2.64-1-3.76-4.6-3.76a7.45,7.45,0,0,0-4.64,1.36c-.2.16-.44.16-.56,0L87.8,124a.42.42,0,0,1,.08-.56,10.63,10.63,0,0,1,6.52-1.88c5.44,0,7.52,1.8,7.52,6.52V140.8a.38.38,0,0,1-.4.4Zm-.48-6.2v-2.12a.21.21,0,0,0-.24-.24H94.6c-3.32,0-4.76,1-4.76,3.12,0,2,1.44,3,4,3C96.84,138.76,98.68,137.36,98.68,135Z"/><path d="M128.36,141.2a.38.38,0,0,1-.4-.4V139h0a5.84,5.84,0,0,1-5.24,2.64c-4.2,0-6.64-2.88-6.64-7.24v-12a.38.38,0,0,1,.4-.4H119a.38.38,0,0,1,.4.4V133.6c0,3.12,1.4,4.92,4.24,4.92,2.6,0,4.32-1.84,4.32-4.72V122.44a.38.38,0,0,1,.4-.4h2.56a.38.38,0,0,1,.4.4V140.8a.38.38,0,0,1-.4.4Z"/><path d="M135.76,138.76a.39.39,0,0,1,0-.56l1.64-1.76a.39.39,0,0,1,.56,0,9.31,9.31,0,0,0,5.92,2.2c2.8,0,4.2-1.2,4.2-2.92,0-1.52-.72-2.36-3.72-2.68l-2-.2c-3.76-.4-5.72-2.28-5.72-5.4,0-3.64,2.6-5.84,7.12-5.84a11.46,11.46,0,0,1,6.8,2.12.39.39,0,0,1,.08.56L149.24,126a.39.39,0,0,1-.56.08,10.09,10.09,0,0,0-5.16-1.56c-2.4,0-3.64,1.08-3.64,2.64s.92,2.32,3.76,2.6l2,.2c3.88.36,5.76,2.32,5.76,5.4,0,3.76-2.72,6.28-7.72,6.28A11.91,11.91,0,0,1,135.76,138.76Z"/><path d="M155.36,136.48a18.77,18.77,0,0,1,0-9.72c1-3.28,3.84-5.16,7.56-5.16s6.52,1.88,7.56,5.16a18.77,18.77,0,0,1,0,9.72c-1,3.24-3.84,5.16-7.56,5.16S156.4,139.72,155.36,136.48Zm11.88-1a12.55,12.55,0,0,0,.44-3.92,12.27,12.27,0,0,0-.44-3.88,4.61,4.61,0,0,0-8.64,0,12.27,12.27,0,0,0-.44,3.88,12.55,12.55,0,0,0,.44,3.92,4.61,4.61,0,0,0,8.64,0Z"/><path d="M196.52,141.2a.38.38,0,0,1-.4-.4V139h0c-.92,1.52-2.56,2.68-5.44,2.68-3.32,0-5.64-1.56-6.6-4.6a16,16,0,0,1-.68-5.44,15.84,15.84,0,0,1,.68-5.4c1-3,3.28-4.6,6.6-4.6,2.88,0,4.52,1.12,5.44,2.64h0V114.4a.38.38,0,0,1,.4-.4h2.56a.38.38,0,0,1,.4.4v26.4a.38.38,0,0,1-.4.4Zm-.84-5.6a12.31,12.31,0,0,0,.44-4,12.47,12.47,0,0,0-.44-4,4.53,4.53,0,0,0-8.44,0,13.63,13.63,0,0,0-.44,4,13.29,13.29,0,0,0,.44,4,4.51,4.51,0,0,0,8.44,0Z"/><path d="M204.72,136.44a15,15,0,0,1-.64-4.84,14.86,14.86,0,0,1,.6-4.84c1.08-3.32,3.88-5.16,7.52-5.16a7.42,7.42,0,0,1,7.52,5.16,16.72,16.72,0,0,1,.6,5.48.39.39,0,0,1-.44.4H207.76a.21.21,0,0,0-.24.24,7.18,7.18,0,0,0,.32,2.32,4.73,4.73,0,0,0,4.84,3.32,6.26,6.26,0,0,0,4.92-2.12.41.41,0,0,1,.6-.08l1.64,1.48a.36.36,0,0,1,0,.56,9.32,9.32,0,0,1-7.48,3.28C208.52,141.64,205.76,139.76,204.72,136.44ZM216.64,130a.21.21,0,0,0,.24-.24,6.74,6.74,0,0,0-.28-2.16,4.73,4.73,0,0,0-8.8,0,6.74,6.74,0,0,0-.28,2.16.21.21,0,0,0,.24.24Z"/><path d="M246.16,141.2a.38.38,0,0,1-.4-.4V129.6c0-3.08-1.4-4.88-4.28-4.88-2.6,0-4.4,1.84-4.4,4.68v11.4a.38.38,0,0,1-.4.4h-2.56a.38.38,0,0,1-.4-.4V114.4a.38.38,0,0,1,.4-.4h2.56a.38.38,0,0,1,.4.4v9.8h0a6.06,6.06,0,0,1,5.36-2.6c4.16,0,6.64,2.84,6.64,7.2v12a.38.38,0,0,1-.4.4Z"/><path d="M254.16,136.44a15,15,0,0,1-.64-4.84,14.86,14.86,0,0,1,.6-4.84c1.08-3.32,3.88-5.16,7.52-5.16a7.42,7.42,0,0,1,7.52,5.16,16.72,16.72,0,0,1,.6,5.48.39.39,0,0,1-.44.4H257.2a.21.21,0,0,0-.24.24,7.18,7.18,0,0,0,.32,2.32,4.73,4.73,0,0,0,4.84,3.32A6.26,6.26,0,0,0,267,136.4a.41.41,0,0,1,.6-.08l1.64,1.48a.36.36,0,0,1,0,.56,9.32,9.32,0,0,1-7.48,3.28C258,141.64,255.2,139.76,254.16,136.44ZM266.08,130a.21.21,0,0,0,.24-.24,6.74,6.74,0,0,0-.28-2.16,4.73,4.73,0,0,0-8.8,0,6.74,6.74,0,0,0-.28,2.16.21.21,0,0,0,.24.24Z"/><path d="M274.76,141.2a.38.38,0,0,1-.4-.4V122.44a.38.38,0,0,1,.4-.4h2.56a.38.38,0,0,1,.4.4v2h0a5.34,5.34,0,0,1,5.08-2.8,5.89,5.89,0,0,1,3.92,1.44c.2.2.24.36.08.56l-1.48,2a.36.36,0,0,1-.56.08,5.4,5.4,0,0,0-3-.92c-2.92,0-4.12,2.28-4.12,5.6V140.8a.38.38,0,0,1-.4.4Z"/><path d="M290.36,141.2a.38.38,0,0,1-.4-.4V122.44a.38.38,0,0,1,.4-.4h2.56a.38.38,0,0,1,.4.4v2h0a5.34,5.34,0,0,1,5.08-2.8,5.89,5.89,0,0,1,3.92,1.44c.2.2.24.36.08.56l-1.48,2a.36.36,0,0,1-.56.08,5.4,5.4,0,0,0-3-.92c-2.92,0-4.12,2.28-4.12,5.6V140.8a.38.38,0,0,1-.4.4Z"/><path d="M316.2,141.2a.38.38,0,0,1-.4-.4v-1.68h0c-.88,1.44-2.76,2.52-5.68,2.52-3.64,0-6.44-1.88-6.44-5.76,0-4,2.8-5.92,7.48-5.92h4.36a.21.21,0,0,0,.24-.24v-1.4c0-2.64-1-3.76-4.6-3.76a7.45,7.45,0,0,0-4.64,1.36c-.2.16-.44.16-.56,0L304.84,124a.42.42,0,0,1,.08-.56,10.63,10.63,0,0,1,6.52-1.88c5.44,0,7.52,1.8,7.52,6.52V140.8a.38.38,0,0,1-.4.4Zm-.48-6.2v-2.12a.21.21,0,0,0-.24-.24h-3.84c-3.32,0-4.76,1-4.76,3.12,0,2,1.44,3,4,3C313.88,138.76,315.72,137.36,315.72,135Z"/><path d="M349,141.2a.38.38,0,0,1-.4-.4V129.6c0-3.08-1.4-4.88-4.28-4.88-2.55,0-4.39,1.84-4.39,4.68v11.4a.38.38,0,0,1-.4.4H337a.38.38,0,0,1-.4-.4V129.6c0-3.08-1.4-4.88-4.28-4.88-2.6,0-4.4,1.84-4.4,4.68v11.4a.38.38,0,0,1-.4.4H325a.38.38,0,0,1-.4-.4V122.44a.38.38,0,0,1,.4-.4h2.56a.38.38,0,0,1,.4.4v1.76h0a6.77,6.77,0,0,1,11,.4h0a7.13,7.13,0,0,1,6.19-3c4.44,0,6.84,2.84,6.84,7.2v12a.38.38,0,0,1-.4.4Z"/><path d="M357.88,117.72a.38.38,0,0,1-.4-.4V114.4a.38.38,0,0,1,.4-.4h2.72a.38.38,0,0,1,.4.4v2.92a.38.38,0,0,1-.4.4ZM358,141.2a.38.38,0,0,1-.4-.4V122.44a.38.38,0,0,1,.4-.4h2.56a.38.38,0,0,1,.4.4V140.8a.38.38,0,0,1-.4.4Z"/><path d="M366.16,136.44a15,15,0,0,1-.64-4.84,14.86,14.86,0,0,1,.6-4.84c1.08-3.32,3.88-5.16,7.52-5.16a7.42,7.42,0,0,1,7.51,5.16,16.72,16.72,0,0,1,.6,5.48.39.39,0,0,1-.44.4H369.2a.21.21,0,0,0-.24.24,7.18,7.18,0,0,0,.32,2.32,4.73,4.73,0,0,0,4.84,3.32A6.24,6.24,0,0,0,379,136.4a.41.41,0,0,1,.6-.08l1.64,1.48a.36.36,0,0,1,0,.56,9.29,9.29,0,0,1-7.47,3.28C370,141.64,367.2,139.76,366.16,136.44ZM378.08,130a.21.21,0,0,0,.23-.24,6.74,6.74,0,0,0-.28-2.16,4.72,4.72,0,0,0-8.79,0,6.74,6.74,0,0,0-.28,2.16.21.21,0,0,0,.24.24Z"/><path d="M398.79,141.2a.38.38,0,0,1-.4-.4V129.6c0-3.08-1.4-4.88-4.27-4.88-2.6,0-4.4,1.84-4.4,4.68v11.4a.38.38,0,0,1-.4.4h-2.56a.38.38,0,0,1-.4-.4V122.44a.38.38,0,0,1,.4-.4h2.56a.38.38,0,0,1,.4.4v1.76h0a6.06,6.06,0,0,1,5.36-2.6c4.15,0,6.63,2.84,6.63,7.2v12a.38.38,0,0,1-.4.4Z"/><path d="M412.88,141.4c-3.72,0-5.16-1.68-5.16-5.44V125a.21.21,0,0,0-.24-.24h-1.6a.38.38,0,0,1-.4-.4v-1.92a.38.38,0,0,1,.4-.4h1.6a.21.21,0,0,0,.24-.24v-5.4a.38.38,0,0,1,.4-.4h2.56a.38.38,0,0,1,.4.4v5.4a.21.21,0,0,0,.24.24h3a.38.38,0,0,1,.4.4v1.92a.38.38,0,0,1-.4.4h-3a.21.21,0,0,0-.24.24v10.84c0,1.92.72,2.44,2.44,2.44h.84a.38.38,0,0,1,.4.4V141a.38.38,0,0,1-.4.4Z"/><path d="M430.75,141.2a.38.38,0,0,1-.4-.4v-1.68h0c-.88,1.44-2.76,2.52-5.68,2.52-3.63,0-6.43-1.88-6.43-5.76,0-4,2.8-5.92,7.47-5.92H430a.21.21,0,0,0,.24-.24v-1.4c0-2.64-1-3.76-4.6-3.76a7.42,7.42,0,0,0-4.63,1.36c-.2.16-.44.16-.56,0L419.4,124a.42.42,0,0,1,.08-.56A10.62,10.62,0,0,1,426,121.6c5.44,0,7.52,1.8,7.52,6.52V140.8a.38.38,0,0,1-.4.4Zm-.48-6.2v-2.12a.21.21,0,0,0-.24-.24h-3.84c-3.31,0-4.75,1-4.75,3.12,0,2,1.44,3,4,3C428.43,138.76,430.27,137.36,430.27,135Z"/><path d="M437.8,138.76a.39.39,0,0,1,0-.56l1.64-1.76a.39.39,0,0,1,.56,0,9.3,9.3,0,0,0,5.91,2.2c2.8,0,4.2-1.2,4.2-2.92,0-1.52-.72-2.36-3.72-2.68l-2-.2c-3.75-.4-5.71-2.28-5.71-5.4,0-3.64,2.6-5.84,7.11-5.84a11.46,11.46,0,0,1,6.8,2.12.39.39,0,0,1,.08.56L451.27,126a.39.39,0,0,1-.56.08,10.09,10.09,0,0,0-5.16-1.56c-2.39,0-3.63,1.08-3.63,2.64s.92,2.32,3.75,2.6l2,.2c3.88.36,5.76,2.32,5.76,5.4,0,3.76-2.72,6.28-7.72,6.28A11.9,11.9,0,0,1,437.8,138.76Z"/><path d="M43.08,179.2a.38.38,0,0,1-.4-.4V167.6c0-3.08-1.4-4.88-4.28-4.88A4.32,4.32,0,0,0,34,167.4v11.4a.38.38,0,0,1-.4.4H31a.38.38,0,0,1-.4-.4V167.6c0-3.08-1.4-4.88-4.28-4.88-2.6,0-4.4,1.84-4.4,4.68v11.4a.38.38,0,0,1-.4.4H19a.38.38,0,0,1-.4-.4V160.44a.38.38,0,0,1,.4-.4h2.56a.38.38,0,0,1,.4.4v1.76h0a6.06,6.06,0,0,1,5.36-2.6,6,6,0,0,1,5.6,3h0a7.13,7.13,0,0,1,6.2-3c4.44,0,6.84,2.84,6.84,7.2v12a.38.38,0,0,1-.4.4Z"/><path d="M51.08,174.44a15,15,0,0,1-.64-4.84,14.86,14.86,0,0,1,.6-4.84c1.08-3.32,3.88-5.16,7.52-5.16a7.42,7.42,0,0,1,7.52,5.16,16.72,16.72,0,0,1,.6,5.48.39.39,0,0,1-.44.4H54.12a.21.21,0,0,0-.24.24,7.18,7.18,0,0,0,.32,2.32A4.73,4.73,0,0,0,59,176.52,6.26,6.26,0,0,0,64,174.4a.41.41,0,0,1,.6-.08l1.64,1.48a.36.36,0,0,1,0,.56,9.32,9.32,0,0,1-7.48,3.28C54.88,179.64,52.12,177.76,51.08,174.44ZM63,168a.21.21,0,0,0,.24-.24,6.74,6.74,0,0,0-.28-2.16,4.73,4.73,0,0,0-8.8,0,6.74,6.74,0,0,0-.28,2.16.21.21,0,0,0,.24.24Z"/><path d="M70.72,164.76c1.08-3.32,3.88-5.16,7.56-5.16a7.68,7.68,0,0,1,6.56,3.24c.12.2.12.36-.12.56L83,164.84a.36.36,0,0,1-.56,0,4.71,4.71,0,0,0-4.12-2.08,4.16,4.16,0,0,0-4.28,3,17.5,17.5,0,0,0,0,7.8,4.16,4.16,0,0,0,4.28,3,4.71,4.71,0,0,0,4.12-2.08.36.36,0,0,1,.56,0l1.76,1.44c.24.2.24.36.12.56a7.68,7.68,0,0,1-6.56,3.24c-3.68,0-6.48-1.84-7.56-5.16a20,20,0,0,1,0-9.72Z"/><path d="M100.48,179.2a.38.38,0,0,1-.4-.4v-1.68h0c-.88,1.44-2.76,2.52-5.68,2.52-3.64,0-6.44-1.88-6.44-5.76,0-4,2.8-5.92,7.48-5.92h4.36a.21.21,0,0,0,.24-.24v-1.4c0-2.64-1-3.76-4.6-3.76a7.45,7.45,0,0,0-4.64,1.36c-.2.16-.44.16-.56,0L89.12,162a.42.42,0,0,1,.08-.56,10.63,10.63,0,0,1,6.52-1.88c5.44,0,7.52,1.8,7.52,6.52V178.8a.38.38,0,0,1-.4.4ZM100,173v-2.12a.21.21,0,0,0-.24-.24H95.92c-3.32,0-4.76,1-4.76,3.12,0,2,1.44,3,4,3C98.16,176.76,100,175.36,100,173Zm-5.4-16.08c-.24,0-.36-.16-.24-.4l3-4.92a.7.7,0,0,1,.68-.4h2.64c.24,0,.36.2.2.4l-3.68,4.92a.79.79,0,0,1-.76.4Z"/><path d="M121.28,179.2a.38.38,0,0,1-.4-.4V167.6c0-3.08-1.4-4.88-4.28-4.88-2.6,0-4.4,1.84-4.4,4.68v11.4a.38.38,0,0,1-.4.4h-2.56a.38.38,0,0,1-.4-.4V160.44a.38.38,0,0,1,.4-.4h2.56a.38.38,0,0,1,.4.4v1.76h0a6.06,6.06,0,0,1,5.36-2.6c4.16,0,6.64,2.84,6.64,7.2v12a.38.38,0,0,1-.4.4Z"/><path d="M130.12,155.72a.38.38,0,0,1-.4-.4V152.4a.38.38,0,0,1,.4-.4h2.72a.38.38,0,0,1,.4.4v2.92a.38.38,0,0,1-.4.4Zm.08,23.48a.38.38,0,0,1-.4-.4V160.44a.38.38,0,0,1,.4-.4h2.56a.38.38,0,0,1,.4.4V178.8a.38.38,0,0,1-.4.4Z"/><path d="M138.36,164.76c1.08-3.32,3.88-5.16,7.56-5.16a7.68,7.68,0,0,1,6.56,3.24c.12.2.12.36-.12.56l-1.76,1.44a.36.36,0,0,1-.56,0,4.71,4.71,0,0,0-4.12-2.08,4.16,4.16,0,0,0-4.28,3,17.5,17.5,0,0,0,0,7.8,4.16,4.16,0,0,0,4.28,3,4.71,4.71,0,0,0,4.12-2.08.36.36,0,0,1,.56,0l1.76,1.44c.24.2.24.36.12.56a7.68,7.68,0,0,1-6.56,3.24c-3.68,0-6.48-1.84-7.56-5.16a20,20,0,0,1,0-9.72Z"/><path d="M168.12,179.2a.38.38,0,0,1-.4-.4v-1.68h0c-.88,1.44-2.76,2.52-5.68,2.52-3.64,0-6.44-1.88-6.44-5.76,0-4,2.8-5.92,7.48-5.92h4.36a.21.21,0,0,0,.24-.24v-1.4c0-2.64-1-3.76-4.6-3.76a7.45,7.45,0,0,0-4.64,1.36c-.2.16-.44.16-.56,0L156.76,162a.42.42,0,0,1,.08-.56,10.63,10.63,0,0,1,6.52-1.88c5.44,0,7.52,1.8,7.52,6.52V178.8a.38.38,0,0,1-.4.4Zm-.48-6.2v-2.12a.21.21,0,0,0-.24-.24h-3.84c-3.32,0-4.76,1-4.76,3.12,0,2,1.44,3,4,3C165.8,176.76,167.64,175.36,167.64,173Z"/><path d="M175.16,176.76a.39.39,0,0,1,0-.56l1.64-1.76a.39.39,0,0,1,.56,0,9.31,9.31,0,0,0,5.92,2.2c2.8,0,4.2-1.2,4.2-2.92,0-1.52-.72-2.36-3.72-2.68l-2-.2c-3.76-.4-5.72-2.28-5.72-5.4,0-3.64,2.6-5.84,7.12-5.84a11.46,11.46,0,0,1,6.8,2.12.39.39,0,0,1,.08.56L188.64,164a.39.39,0,0,1-.56.08,10.09,10.09,0,0,0-5.16-1.56c-2.4,0-3.64,1.08-3.64,2.64s.92,2.32,3.76,2.6l2,.2c3.88.36,5.76,2.32,5.76,5.4,0,3.76-2.72,6.28-7.72,6.28A11.91,11.91,0,0,1,175.16,176.76Z"/><path d="M203.56,174.48a18.77,18.77,0,0,1,0-9.72c1-3.28,3.84-5.16,7.56-5.16s6.52,1.88,7.56,5.16a18.77,18.77,0,0,1,0,9.72c-1,3.24-3.84,5.16-7.56,5.16S204.6,177.72,203.56,174.48Zm11.88-1a12.55,12.55,0,0,0,.44-3.92,12.27,12.27,0,0,0-.44-3.88,4.61,4.61,0,0,0-8.64,0,12.27,12.27,0,0,0-.44,3.88,12.55,12.55,0,0,0,.44,3.92,4.61,4.61,0,0,0,8.64,0Z"/><path d="M231.4,176.76a.39.39,0,0,1,0-.56l1.64-1.76a.39.39,0,0,1,.56,0,9.31,9.31,0,0,0,5.92,2.2c2.8,0,4.2-1.2,4.2-2.92,0-1.52-.72-2.36-3.72-2.68l-2-.2c-3.76-.4-5.72-2.28-5.72-5.4,0-3.64,2.6-5.84,7.12-5.84a11.46,11.46,0,0,1,6.8,2.12.39.39,0,0,1,.08.56L244.88,164a.39.39,0,0,1-.56.08,10.09,10.09,0,0,0-5.16-1.56c-2.4,0-3.64,1.08-3.64,2.64s.92,2.32,3.76,2.6l2,.2c3.88.36,5.76,2.32,5.76,5.4,0,3.76-2.72,6.28-7.72,6.28A11.91,11.91,0,0,1,231.4,176.76Z"/><path d="M251,174.48a18.77,18.77,0,0,1,0-9.72c1-3.28,3.84-5.16,7.56-5.16s6.52,1.88,7.56,5.16a18.77,18.77,0,0,1,0,9.72c-1,3.24-3.84,5.16-7.56,5.16S252,177.72,251,174.48Zm11.88-1a12.55,12.55,0,0,0,.44-3.92,12.27,12.27,0,0,0-.44-3.88,4.61,4.61,0,0,0-8.64,0,12.27,12.27,0,0,0-.44,3.88,12.55,12.55,0,0,0,.44,3.92,4.61,4.61,0,0,0,8.64,0Z"/><path d="M276,179.4c-3.36,0-4.68-1.6-4.68-5v-22a.38.38,0,0,1,.4-.4h2.56a.38.38,0,0,1,.4.4v21.76c0,1.6.6,2.12,1.92,2.12h.76a.38.38,0,0,1,.4.4V179a.38.38,0,0,1-.4.4Z"/><path d="M282,155.72a.38.38,0,0,1-.4-.4V152.4a.38.38,0,0,1,.4-.4h2.72a.38.38,0,0,1,.4.4v2.92a.38.38,0,0,1-.4.4ZM282,179.2a.38.38,0,0,1-.4-.4V160.44a.38.38,0,0,1,.4-.4h2.56a.38.38,0,0,1,.4.4V178.8a.38.38,0,0,1-.4.4Z"/><path d="M290.2,164.76c1.08-3.32,3.88-5.16,7.56-5.16a7.68,7.68,0,0,1,6.56,3.24c.12.2.12.36-.12.56l-1.76,1.44a.36.36,0,0,1-.56,0,4.71,4.71,0,0,0-4.12-2.08,4.16,4.16,0,0,0-4.28,3,17.5,17.5,0,0,0,0,7.8,4.16,4.16,0,0,0,4.28,3,4.71,4.71,0,0,0,4.12-2.08.36.36,0,0,1,.56,0l1.76,1.44c.24.2.24.36.12.56a7.68,7.68,0,0,1-6.56,3.24c-3.68,0-6.48-1.84-7.56-5.16a20,20,0,0,1,0-9.72Z"/><path d="M309.16,155.72a.38.38,0,0,1-.4-.4V152.4a.38.38,0,0,1,.4-.4h2.72a.38.38,0,0,1,.4.4v2.92a.38.38,0,0,1-.4.4Zm.08,23.48a.38.38,0,0,1-.4-.4V160.44a.38.38,0,0,1,.4-.4h2.56a.38.38,0,0,1,.4.4V178.8a.38.38,0,0,1-.4.4Z"/><path d="M323.52,179.4c-3.72,0-5.16-1.68-5.16-5.44V163a.21.21,0,0,0-.24-.24h-1.6a.38.38,0,0,1-.4-.4v-1.92a.38.38,0,0,1,.4-.4h1.6a.21.21,0,0,0,.24-.24v-5.4a.38.38,0,0,1,.4-.4h2.56a.38.38,0,0,1,.4.4v5.4a.21.21,0,0,0,.24.24h3a.38.38,0,0,1,.4.4v1.92a.38.38,0,0,1-.4.4h-3a.21.21,0,0,0-.24.24v10.84c0,1.92.72,2.44,2.44,2.44H325a.38.38,0,0,1,.4.4V179a.38.38,0,0,1-.4.4Z"/><path d="M329.28,174.44a15,15,0,0,1-.64-4.84,14.86,14.86,0,0,1,.6-4.84c1.08-3.32,3.88-5.16,7.52-5.16a7.42,7.42,0,0,1,7.51,5.16,16.72,16.72,0,0,1,.6,5.48.39.39,0,0,1-.44.4H332.32a.21.21,0,0,0-.24.24,7.18,7.18,0,0,0,.32,2.32,4.73,4.73,0,0,0,4.84,3.32,6.25,6.25,0,0,0,4.91-2.12.41.41,0,0,1,.6-.08l1.64,1.48a.36.36,0,0,1,0,.56,9.31,9.31,0,0,1-7.47,3.28C333.08,179.64,330.32,177.76,329.28,174.44ZM341.19,168a.21.21,0,0,0,.24-.24,6.74,6.74,0,0,0-.28-2.16,4.72,4.72,0,0,0-8.79,0,6.74,6.74,0,0,0-.28,2.16.21.21,0,0,0,.24.24Z"/><path d="M369.87,179.2a.38.38,0,0,1-.4-.4v-1.68h0c-.88,1.44-2.75,2.52-5.67,2.52-3.64,0-6.44-1.88-6.44-5.76,0-4,2.8-5.92,7.48-5.92h4.35a.21.21,0,0,0,.24-.24v-1.4c0-2.64-1-3.76-4.59-3.76a7.45,7.45,0,0,0-4.64,1.36c-.2.16-.44.16-.56,0L358.52,162a.42.42,0,0,1,.08-.56,10.63,10.63,0,0,1,6.52-1.88c5.43,0,7.51,1.8,7.51,6.52V178.8a.38.38,0,0,1-.4.4Zm-.48-6.2v-2.12a.21.21,0,0,0-.24-.24h-3.83c-3.32,0-4.76,1-4.76,3.12,0,2,1.44,3,4,3C367.55,176.76,369.39,175.36,369.39,173Z"/><path d="M378.24,186.39a.38.38,0,0,1-.4-.4v-2.32a.38.38,0,0,1,.4-.4H379c1.56,0,2.4-.68,3.24-2.87l.64-1.76-7-18.2c-.08-.24,0-.4.32-.4h2.8a.47.47,0,0,1,.48.4l5,13.84h.08l4.84-13.84a.47.47,0,0,1,.48-.4h2.72c.24,0,.4.16.32.4l-7.56,20.24c-1.67,4.51-3.15,5.71-6,5.71Z"/><path d="M408.39,179.2a.38.38,0,0,1-.4-.4V177h0a5.84,5.84,0,0,1-5.24,2.64c-4.2,0-6.63-2.88-6.63-7.24v-12a.38.38,0,0,1,.4-.4H399a.38.38,0,0,1,.4.4V171.6c0,3.12,1.4,4.92,4.24,4.92,2.6,0,4.32-1.84,4.32-4.72V160.44a.38.38,0,0,1,.4-.4H411a.38.38,0,0,1,.4.4V178.8a.38.38,0,0,1-.4.4Z"/><path d="M429.11,179.2a.38.38,0,0,1-.4-.4V177h0c-.92,1.52-2.56,2.68-5.44,2.68-3.32,0-5.64-1.56-6.6-4.6a21.94,21.94,0,0,1,0-10.84c1-3,3.28-4.6,6.6-4.6,2.88,0,4.52,1.12,5.44,2.64h0V152.4a.38.38,0,0,1,.4-.4h2.56a.38.38,0,0,1,.4.4v26.4a.38.38,0,0,1-.4.4Zm-.84-5.6a12.31,12.31,0,0,0,.44-4,12.47,12.47,0,0,0-.44-4,4.53,4.53,0,0,0-8.44,0,13.63,13.63,0,0,0-.44,4,13.29,13.29,0,0,0,.44,4,4.51,4.51,0,0,0,8.44,0Z"/><path d="M449.43,179.2a.38.38,0,0,1-.4-.4v-1.68h0c-.88,1.44-2.76,2.52-5.68,2.52-3.63,0-6.43-1.88-6.43-5.76,0-4,2.8-5.92,7.47-5.92h4.36a.21.21,0,0,0,.24-.24v-1.4c0-2.64-1-3.76-4.6-3.76a7.4,7.4,0,0,0-4.63,1.36c-.21.16-.44.16-.56,0L438.08,162a.42.42,0,0,1,.08-.56,10.6,10.6,0,0,1,6.51-1.88c5.44,0,7.52,1.8,7.52,6.52V178.8a.38.38,0,0,1-.4.4ZM449,173v-2.12a.21.21,0,0,0-.24-.24h-3.84c-3.32,0-4.75,1-4.75,3.12,0,2,1.43,3,4,3C447.11,176.76,449,175.36,449,173Z"/><path d="M457.32,175.36a.38.38,0,0,1,.4-.4h3a.38.38,0,0,1,.4.4v3.44a.38.38,0,0,1-.4.4h-3a.38.38,0,0,1-.4-.4Z"/></g></g></svg>