<svg xmlns="http://www.w3.org/2000/svg" viewBox="0 0 461.53 187.19"><title>r6</title><g id="Capa_2" data-name="Capa 2"><g id="fondo"><path d="M18.58,1.2A.38.38,0,0,1,19,.8h9.16c4.6,0,7.64,2,8.88,5.8.48,1.48.72,3,.72,7.8s-.24,6.32-.72,7.8C35.78,26,32.74,28,28.14,28H19a.38.38,0,0,1-.4-.4Zm3.8,23.48h5c3.28,0,5.32-1.08,6.2-3.72.36-1,.56-2.32.56-6.56s-.2-5.56-.56-6.56c-.88-2.64-2.92-3.72-6.2-3.72h-5a.21.21,0,0,0-.24.24V24.44A.21.21,0,0,0,22.38,24.68Z"/><path d="M42.1,23.24a15,15,0,0,1-.64-4.84,14.86,14.86,0,0,1,.6-4.84c1.08-3.32,3.88-5.16,7.52-5.16a7.42,7.42,0,0,1,7.52,5.16A16.72,16.72,0,0,1,57.7,19a.39.39,0,0,1-.44.4H45.14a.21.21,0,0,0-.24.24A7.18,7.18,0,0,0,45.22,22a4.73,4.73,0,0,0,4.84,3.32A6.26,6.26,0,0,0,55,23.2a.41.41,0,0,1,.6-.08l1.64,1.48a.36.36,0,0,1,0,.56,9.32,9.32,0,0,1-7.48,3.28C45.9,28.44,43.14,26.56,42.1,23.24ZM54,16.76a.21.21,0,0,0,.24-.24A6.74,6.74,0,0,0,54,14.36a4.33,4.33,0,0,0-4.4-3,4.33,4.33,0,0,0-4.4,3,6.74,6.74,0,0,0-.28,2.16.21.21,0,0,0,.24.24Z"/><path d="M66.9,28.2c-3.36,0-4.68-1.6-4.68-5V1.2a.38.38,0,0,1,.4-.4h2.56a.38.38,0,0,1,.4.4V23c0,1.6.6,2.12,1.92,2.12h.76a.38.38,0,0,1,.4.4V27.8a.38.38,0,0,1-.4.4Z"/><path d="M72.9,4.52a.38.38,0,0,1-.4-.4V1.2a.38.38,0,0,1,.4-.4h2.72a.38.38,0,0,1,.4.4V4.12a.38.38,0,0,1-.4.4ZM73,28a.38.38,0,0,1-.4-.4V9.24a.38.38,0,0,1,.4-.4h2.56a.38.38,0,0,1,.4.4V27.6a.38.38,0,0,1-.4.4Z"/><path d="M106.17,28a.38.38,0,0,1-.4-.4V16.4c0-3.08-1.4-4.88-4.27-4.88a4.32,4.32,0,0,0-4.4,4.68V27.6a.38.38,0,0,1-.4.4H94.14a.38.38,0,0,1-.4-.4V16.4c0-3.08-1.4-4.88-4.28-4.88-2.6,0-4.4,1.84-4.4,4.68V27.6a.38.38,0,0,1-.4.4H82.1a.38.38,0,0,1-.4-.4V9.24a.38.38,0,0,1,.4-.4h2.56a.38.38,0,0,1,.4.4V11h0a6.77,6.77,0,0,1,11,.4h0a7.13,7.13,0,0,1,6.19-3c4.44,0,6.84,2.84,6.84,7.2v12a.38.38,0,0,1-.4.4Z"/><path d="M115,4.52a.38.38,0,0,1-.4-.4V1.2a.38.38,0,0,1,.4-.4h2.72a.38.38,0,0,1,.4.4V4.12a.38.38,0,0,1-.4.4ZM115.1,28a.38.38,0,0,1-.4-.4V9.24a.38.38,0,0,1,.4-.4h2.56a.38.38,0,0,1,.4.4V27.6a.38.38,0,0,1-.4.4Z"/><path d="M129.38,28.2c-3.72,0-5.16-1.68-5.16-5.44v-11a.21.21,0,0,0-.24-.24h-1.6a.38.38,0,0,1-.4-.4V9.24a.38.38,0,0,1,.4-.4H124a.21.21,0,0,0,.24-.24V3.2a.38.38,0,0,1,.4-.4h2.56a.38.38,0,0,1,.4.4V8.6a.21.21,0,0,0,.24.24h3a.38.38,0,0,1,.4.4v1.92a.38.38,0,0,1-.4.4h-3a.21.21,0,0,0-.24.24V22.64c0,1.92.72,2.44,2.44,2.44h.84a.38.38,0,0,1,.4.4V27.8a.38.38,0,0,1-.4.4Z"/><path d="M135.14,23.24a15,15,0,0,1-.64-4.84,14.86,14.86,0,0,1,.6-4.84c1.08-3.32,3.88-5.16,7.52-5.16a7.42,7.42,0,0,1,7.51,5.16,16.72,16.72,0,0,1,.6,5.48.39.39,0,0,1-.44.4H138.18a.21.21,0,0,0-.24.24,7.18,7.18,0,0,0,.32,2.32,4.73,4.73,0,0,0,4.84,3.32A6.22,6.22,0,0,0,148,23.2a.41.41,0,0,1,.6-.08l1.64,1.48a.36.36,0,0,1,0,.56,9.29,9.29,0,0,1-7.47,3.28C138.94,28.44,136.18,26.56,135.14,23.24Zm11.92-6.48a.21.21,0,0,0,.23-.24,7.06,7.06,0,0,0-.27-2.16,4.73,4.73,0,0,0-8.8,0,6.74,6.74,0,0,0-.28,2.16.21.21,0,0,0,.24.24Z"/><path d="M163.62,23.24A15,15,0,0,1,163,18.4a14.86,14.86,0,0,1,.6-4.84c1.08-3.32,3.88-5.16,7.51-5.16a7.42,7.42,0,0,1,7.52,5.16,16.72,16.72,0,0,1,.6,5.48.39.39,0,0,1-.44.4H166.66a.21.21,0,0,0-.24.24,7.18,7.18,0,0,0,.32,2.32,4.72,4.72,0,0,0,4.83,3.32,6.26,6.26,0,0,0,4.92-2.12.41.41,0,0,1,.6-.08l1.64,1.48a.36.36,0,0,1,0,.56,9.32,9.32,0,0,1-7.48,3.28C167.42,28.44,164.66,26.56,163.62,23.24Zm11.91-6.48a.21.21,0,0,0,.24-.24,6.74,6.74,0,0,0-.28-2.16,4.72,4.72,0,0,0-8.79,0,6.74,6.74,0,0,0-.28,2.16.21.21,0,0,0,.24.24Z"/><path d="M188.42,28.2c-3.36,0-4.68-1.6-4.68-5V1.2a.38.38,0,0,1,.4-.4h2.56a.38.38,0,0,1,.4.4V23c0,1.6.59,2.12,1.91,2.12h.76a.38.38,0,0,1,.4.4V27.8a.38.38,0,0,1-.4.4Z"/><path d="M214.49,28a.38.38,0,0,1-.4-.4V25.92h0c-.88,1.44-2.76,2.52-5.68,2.52-3.64,0-6.43-1.88-6.43-5.76,0-4,2.79-5.92,7.47-5.92h4.36a.21.21,0,0,0,.24-.24v-1.4c0-2.64-1-3.76-4.6-3.76a7.45,7.45,0,0,0-4.64,1.36c-.2.16-.44.16-.56,0l-1.08-1.84a.42.42,0,0,1,.08-.56,10.63,10.63,0,0,1,6.52-1.88c5.44,0,7.52,1.8,7.52,6.52V27.6a.38.38,0,0,1-.4.4ZM214,21.8V19.68a.21.21,0,0,0-.24-.24h-3.84c-3.32,0-4.76,1-4.76,3.12,0,2,1.44,3,4,3C212.17,25.56,214,24.16,214,21.8Z"/><path d="M222.29,13.56c1.08-3.32,3.88-5.16,7.56-5.16a7.68,7.68,0,0,1,6.56,3.24c.12.2.12.36-.12.56l-1.76,1.44a.36.36,0,0,1-.56,0,4.71,4.71,0,0,0-4.12-2.08,4.16,4.16,0,0,0-4.28,3,12.76,12.76,0,0,0-.44,3.88,12.88,12.88,0,0,0,.44,3.92,4.16,4.16,0,0,0,4.28,3A4.71,4.71,0,0,0,234,23.24a.36.36,0,0,1,.56,0l1.76,1.44c.24.2.24.36.12.56a7.68,7.68,0,0,1-6.56,3.24c-3.68,0-6.48-1.84-7.56-5.16a16.55,16.55,0,0,1-.6-4.88A16.45,16.45,0,0,1,222.29,13.56Z"/><path d="M239.89,13.56c1.08-3.32,3.88-5.16,7.56-5.16A7.68,7.68,0,0,1,254,11.64c.12.2.12.36-.12.56l-1.76,1.44a.36.36,0,0,1-.56,0,4.71,4.71,0,0,0-4.12-2.08,4.16,4.16,0,0,0-4.28,3,12.76,12.76,0,0,0-.44,3.88,12.88,12.88,0,0,0,.44,3.92,4.16,4.16,0,0,0,4.28,3,4.71,4.71,0,0,0,4.12-2.08.36.36,0,0,1,.56,0l1.76,1.44c.24.2.24.36.12.56a7.68,7.68,0,0,1-6.56,3.24c-3.68,0-6.48-1.84-7.56-5.16a16.55,16.55,0,0,1-.6-4.88A16.45,16.45,0,0,1,239.89,13.56Z"/><path d="M257.53,23.24a15,15,0,0,1-.64-4.84,14.86,14.86,0,0,1,.6-4.84c1.08-3.32,3.88-5.16,7.52-5.16a7.42,7.42,0,0,1,7.52,5.16,16.72,16.72,0,0,1,.6,5.48.39.39,0,0,1-.44.4H260.57a.21.21,0,0,0-.24.24,7.18,7.18,0,0,0,.32,2.32,4.73,4.73,0,0,0,4.84,3.32,6.26,6.26,0,0,0,4.92-2.12.41.41,0,0,1,.6-.08l1.64,1.48a.36.36,0,0,1,0,.56,9.32,9.32,0,0,1-7.48,3.28C261.33,28.44,258.57,26.56,257.53,23.24Zm11.92-6.48a.21.21,0,0,0,.24-.24,6.74,6.74,0,0,0-.28-2.16,4.73,4.73,0,0,0-8.8,0,6.74,6.74,0,0,0-.28,2.16.21.21,0,0,0,.24.24Z"/><path d="M276.41,25.56a.39.39,0,0,1,0-.56l1.64-1.76a.39.39,0,0,1,.56,0,9.31,9.31,0,0,0,5.92,2.2c2.8,0,4.2-1.2,4.2-2.92,0-1.52-.72-2.36-3.72-2.68l-2-.2c-3.76-.4-5.72-2.28-5.72-5.4,0-3.64,2.6-5.84,7.12-5.84a11.46,11.46,0,0,1,6.8,2.12.39.39,0,0,1,.08.56l-1.36,1.72a.39.39,0,0,1-.56.08,10.09,10.09,0,0,0-5.16-1.56c-2.4,0-3.64,1.08-3.64,2.64s.92,2.32,3.76,2.6l2,.2c3.88.36,5.76,2.32,5.76,5.4,0,3.76-2.72,6.28-7.72,6.28A11.91,11.91,0,0,1,276.41,25.56Z"/><path d="M296,23.28a14.39,14.39,0,0,1-.64-4.88,14.29,14.29,0,0,1,.64-4.84c1-3.28,3.84-5.16,7.56-5.16s6.52,1.88,7.56,5.16a14.29,14.29,0,0,1,.64,4.84,14.39,14.39,0,0,1-.64,4.88c-1,3.24-3.84,5.16-7.56,5.16S297.05,26.52,296,23.28Zm11.88-1a12.55,12.55,0,0,0,.44-3.92,12.27,12.27,0,0,0-.44-3.88,4.61,4.61,0,0,0-8.64,0,12.27,12.27,0,0,0-.44,3.88,12.55,12.55,0,0,0,.44,3.92,4.61,4.61,0,0,0,8.64,0Z"/><path d="M336.77,28a.38.38,0,0,1-.4-.4V25.92h0c-.88,1.44-2.76,2.52-5.68,2.52-3.64,0-6.44-1.88-6.44-5.76,0-4,2.8-5.92,7.48-5.92h4.36a.21.21,0,0,0,.24-.24v-1.4c0-2.64-1-3.76-4.6-3.76a7.45,7.45,0,0,0-4.64,1.36c-.2.16-.44.16-.56,0l-1.08-1.84a.42.42,0,0,1,.08-.56A10.63,10.63,0,0,1,332,8.4c5.44,0,7.52,1.8,7.52,6.52V27.6a.38.38,0,0,1-.4.4Zm-.48-6.2V19.68a.21.21,0,0,0-.24-.24h-3.84c-3.32,0-4.76,1-4.76,3.12,0,2,1.44,3,4,3C334.45,25.56,336.29,24.16,336.29,21.8Z"/><path d="M365.53,28a.38.38,0,0,1-.4-.4V25.92h0c-.88,1.44-2.76,2.52-5.68,2.52-3.64,0-6.44-1.88-6.44-5.76,0-4,2.8-5.92,7.48-5.92h4.36a.21.21,0,0,0,.24-.24v-1.4c0-2.64-1-3.76-4.6-3.76a7.45,7.45,0,0,0-4.64,1.36c-.2.16-.44.16-.56,0l-1.08-1.84a.42.42,0,0,1,.08-.56,10.63,10.63,0,0,1,6.52-1.88c5.44,0,7.52,1.8,7.52,6.52V27.6a.38.38,0,0,1-.4.4Zm-.48-6.2V19.68a.21.21,0,0,0-.24-.24H361c-3.32,0-4.76,1-4.76,3.12,0,2,1.44,3,4,3C363.21,25.56,365.05,24.16,365.05,21.8Zm-5.4-16.08c-.24,0-.36-.16-.24-.4l3-4.92a.7.7,0,0,1,.68-.4h2.64c.24,0,.36.2.2.4l-3.68,4.92a.79.79,0,0,1-.76.4Z"/><path d="M374.29,28a.38.38,0,0,1-.4-.4V9.24a.38.38,0,0,1,.4-.4h2.56a.38.38,0,0,1,.4.4v2h0a5.34,5.34,0,0,1,5.08-2.8,5.89,5.89,0,0,1,3.92,1.44c.2.2.24.36.08.56l-1.48,2a.36.36,0,0,1-.56.08,5.4,5.4,0,0,0-3-.92c-2.92,0-4.12,2.28-4.12,5.6V27.6a.38.38,0,0,1-.4.4Z"/><path d="M388.25,23.24a15,15,0,0,1-.64-4.84,14.86,14.86,0,0,1,.6-4.84c1.08-3.32,3.88-5.16,7.52-5.16a7.42,7.42,0,0,1,7.52,5.16,16.72,16.72,0,0,1,.6,5.48.39.39,0,0,1-.44.4H391.29a.21.21,0,0,0-.24.24,7.18,7.18,0,0,0,.32,2.32,4.73,4.73,0,0,0,4.84,3.32,6.26,6.26,0,0,0,4.92-2.12.41.41,0,0,1,.6-.08l1.64,1.48a.36.36,0,0,1,0,.56,9.32,9.32,0,0,1-7.48,3.28C392.05,28.44,389.29,26.56,388.25,23.24Zm11.92-6.48a.21.21,0,0,0,.24-.24,6.74,6.74,0,0,0-.28-2.16,4.73,4.73,0,0,0-8.8,0,6.74,6.74,0,0,0-.28,2.16.21.21,0,0,0,.24.24Z"/><path d="M420.05,28a.38.38,0,0,1-.4-.4V25.92h0c-.88,1.44-2.76,2.52-5.68,2.52-3.64,0-6.44-1.88-6.44-5.76,0-4,2.8-5.92,7.48-5.92h4.36a.21.21,0,0,0,.24-.24v-1.4c0-2.64-1-3.76-4.6-3.76a7.45,7.45,0,0,0-4.64,1.36c-.2.16-.44.16-.56,0l-1.08-1.84a.42.42,0,0,1,.08-.56,10.63,10.63,0,0,1,6.52-1.88c5.44,0,7.52,1.8,7.52,6.52V27.6a.38.38,0,0,1-.4.4Zm-.48-6.2V19.68a.21.21,0,0,0-.24-.24h-3.84c-3.32,0-4.76,1-4.76,3.12,0,2,1.44,3,4,3C417.73,25.56,419.57,24.16,419.57,21.8Z"/><path d="M427.09,25.56a.39.39,0,0,1,0-.56l1.64-1.76a.39.39,0,0,1,.56,0,9.31,9.31,0,0,0,5.92,2.2c2.8,0,4.2-1.2,4.2-2.92,0-1.52-.72-2.36-3.72-2.68l-2-.2c-3.76-.4-5.72-2.28-5.72-5.4,0-3.64,2.6-5.84,7.12-5.84a11.46,11.46,0,0,1,6.8,2.12.39.39,0,0,1,.08.56l-1.36,1.72a.39.39,0,0,1-.56.08,10.09,10.09,0,0,0-5.16-1.56c-2.4,0-3.64,1.08-3.64,2.64s.92,2.32,3.76,2.6l2,.2c3.88.36,5.76,2.32,5.76,5.4,0,3.76-2.72,6.28-7.72,6.28A11.91,11.91,0,0,1,427.09,25.56Z"/><path d="M13.16,66a.38.38,0,0,1-.4-.4V63.76h0c-.92,1.52-2.56,2.68-5.44,2.68-3.32,0-5.64-1.56-6.6-4.6A16,16,0,0,1,0,56.4,15.84,15.84,0,0,1,.68,51c1-3,3.28-4.6,6.6-4.6,2.88,0,4.52,1.12,5.44,2.64h0V39.2a.38.38,0,0,1,.4-.4h2.56a.38.38,0,0,1,.4.4V65.6a.38.38,0,0,1-.4.4Zm-.84-5.6a12.31,12.31,0,0,0,.44-4,12.47,12.47,0,0,0-.44-4,4.07,4.07,0,0,0-4.24-2.88,4.07,4.07,0,0,0-4.2,2.88,13.63,13.63,0,0,0-.44,4,13.29,13.29,0,0,0,.44,4,4.1,4.1,0,0,0,4.2,2.92A4.1,4.1,0,0,0,12.32,60.4Z"/><path d="M21.36,61.24a15,15,0,0,1-.64-4.84,14.86,14.86,0,0,1,.6-4.84c1.08-3.32,3.88-5.16,7.52-5.16a7.42,7.42,0,0,1,7.52,5.16A16.72,16.72,0,0,1,37,57a.39.39,0,0,1-.44.4H24.4a.21.21,0,0,0-.24.24A7.18,7.18,0,0,0,24.48,60a4.73,4.73,0,0,0,4.84,3.32,6.26,6.26,0,0,0,4.92-2.12.41.41,0,0,1,.6-.08l1.64,1.48a.36.36,0,0,1,0,.56A9.32,9.32,0,0,1,29,66.44C25.16,66.44,22.4,64.56,21.36,61.24Zm11.92-6.48a.21.21,0,0,0,.24-.24,6.74,6.74,0,0,0-.28-2.16,4.33,4.33,0,0,0-4.4-3,4.33,4.33,0,0,0-4.4,3,6.74,6.74,0,0,0-.28,2.16.21.21,0,0,0,.24.24Z"/><path d="M55.92,66.2c-3.72,0-5.16-1.68-5.16-5.44v-11a.21.21,0,0,0-.24-.24h-1.6a.38.38,0,0,1-.4-.4V47.24a.38.38,0,0,1,.4-.4h1.6a.21.21,0,0,0,.24-.24V41.2a.38.38,0,0,1,.4-.4h2.56a.38.38,0,0,1,.4.4v5.4a.21.21,0,0,0,.24.24h3a.38.38,0,0,1,.4.4v1.92a.38.38,0,0,1-.4.4h-3a.21.21,0,0,0-.24.24V60.64c0,1.92.72,2.44,2.44,2.44h.84a.38.38,0,0,1,.4.4V65.8a.38.38,0,0,1-.4.4Z"/><path d="M62.6,66a.38.38,0,0,1-.4-.4V47.24a.38.38,0,0,1,.4-.4h2.56a.38.38,0,0,1,.4.4v2h0a5.34,5.34,0,0,1,5.08-2.8,5.89,5.89,0,0,1,3.92,1.44c.2.2.24.36.08.56l-1.48,2a.36.36,0,0,1-.56.08,5.4,5.4,0,0,0-3-.92c-2.92,0-4.12,2.28-4.12,5.6V65.6a.38.38,0,0,1-.4.4Z"/><path d="M88.44,66a.38.38,0,0,1-.4-.4V63.92h0c-.88,1.44-2.76,2.52-5.68,2.52-3.64,0-6.44-1.88-6.44-5.76,0-4,2.8-5.92,7.48-5.92h4.36a.21.21,0,0,0,.24-.24v-1.4c0-2.64-1-3.76-4.6-3.76a7.45,7.45,0,0,0-4.64,1.36c-.2.16-.44.16-.56,0l-1.08-1.84a.42.42,0,0,1,.08-.56,10.63,10.63,0,0,1,6.52-1.88c5.44,0,7.52,1.8,7.52,6.52V65.6a.38.38,0,0,1-.4.4ZM88,59.8V57.68a.21.21,0,0,0-.24-.24H83.88c-3.32,0-4.76,1-4.76,3.12,0,2,1.44,3,4,3C86.12,63.56,88,62.16,88,59.8Z"/><path d="M97.2,66a.38.38,0,0,1-.4-.4V39.2a.38.38,0,0,1,.4-.4h2.56a.38.38,0,0,1,.4.4V49h0c.92-1.52,2.56-2.64,5.44-2.64,3.32,0,5.64,1.56,6.6,4.6a15.84,15.84,0,0,1,.68,5.4,16,16,0,0,1-.68,5.44c-1,3-3.28,4.6-6.6,4.6-2.88,0-4.52-1.16-5.44-2.68h0V65.6a.38.38,0,0,1-.4.4ZM109,60.4a13.29,13.29,0,0,0,.44-4,13.63,13.63,0,0,0-.44-4,4.53,4.53,0,0,0-8.44,0,12.47,12.47,0,0,0-.44,4,12.31,12.31,0,0,0,.44,4,4.51,4.51,0,0,0,8.44,0Z"/><path d="M129.12,66a.38.38,0,0,1-.4-.4V63.92h0c-.88,1.44-2.76,2.52-5.68,2.52-3.64,0-6.44-1.88-6.44-5.76,0-4,2.8-5.92,7.48-5.92h4.36a.21.21,0,0,0,.24-.24v-1.4c0-2.64-1-3.76-4.6-3.76a7.45,7.45,0,0,0-4.64,1.36c-.2.16-.44.16-.56,0l-1.08-1.84a.42.42,0,0,1,.08-.56,10.63,10.63,0,0,1,6.52-1.88c5.44,0,7.52,1.8,7.52,6.52V65.6a.38.38,0,0,1-.4.4Zm-.48-6.2V57.68a.21.21,0,0,0-.24-.24h-3.84c-3.32,0-4.76,1-4.76,3.12,0,2,1.44,3,4,3C126.8,63.56,128.64,62.16,128.64,59.8Z"/><path d="M134.32,73.19a.38.38,0,0,1-.4-.4V70.47a.38.38,0,0,1,.4-.4H135c1.88,0,2.52-.52,2.52-2.55V47.24a.38.38,0,0,1,.4-.4h2.56a.38.38,0,0,1,.4.4v20.2c0,4.11-1.84,5.75-5.72,5.75Zm3.48-30.67a.38.38,0,0,1-.4-.4V39.2a.38.38,0,0,1,.4-.4h2.72a.38.38,0,0,1,.4.4v2.92a.38.38,0,0,1-.4.4Z"/><path d="M146.08,61.28a14.39,14.39,0,0,1-.64-4.88,14.29,14.29,0,0,1,.64-4.84c1-3.28,3.84-5.16,7.56-5.16s6.51,1.88,7.55,5.16a14.29,14.29,0,0,1,.64,4.84,14.39,14.39,0,0,1-.64,4.88c-1,3.24-3.84,5.16-7.55,5.16S147.12,64.52,146.08,61.28Zm11.88-1a12.86,12.86,0,0,0,.44-3.92,12.57,12.57,0,0,0-.44-3.88,4.61,4.61,0,0,0-8.64,0,12.27,12.27,0,0,0-.44,3.88,12.55,12.55,0,0,0,.44,3.92,4.61,4.61,0,0,0,8.64,0Z"/><path d="M187.23,73.19a.38.38,0,0,1-.4-.4v-9h0c-.92,1.52-2.56,2.68-5.43,2.68-3.32,0-5.64-1.56-6.6-4.6a16,16,0,0,1-.68-5.44,15.84,15.84,0,0,1,.68-5.4c1-3,3.28-4.6,6.6-4.6,2.87,0,4.51,1.12,5.43,2.64h0v-1.8a.38.38,0,0,1,.4-.4h2.56a.38.38,0,0,1,.4.4V72.79a.38.38,0,0,1-.4.4Zm-.84-12.79a12.31,12.31,0,0,0,.44-4,12.47,12.47,0,0,0-.44-4,4.52,4.52,0,0,0-8.43,0,13.63,13.63,0,0,0-.44,4,13.29,13.29,0,0,0,.44,4,4.5,4.5,0,0,0,8.43,0Z"/><path d="M208,66a.38.38,0,0,1-.4-.4V63.8h0a5.84,5.84,0,0,1-5.24,2.64c-4.19,0-6.63-2.88-6.63-7.24v-12a.38.38,0,0,1,.4-.4h2.56a.38.38,0,0,1,.4.4V58.4c0,3.12,1.4,4.92,4.23,4.92,2.6,0,4.32-1.84,4.32-4.72V47.24a.38.38,0,0,1,.4-.4h2.56a.38.38,0,0,1,.4.4V65.6a.38.38,0,0,1-.4.4Z"/><path d="M216.2,61.24a15,15,0,0,1-.64-4.84,14.86,14.86,0,0,1,.6-4.84c1.08-3.32,3.88-5.16,7.51-5.16a7.42,7.42,0,0,1,7.52,5.16,16.72,16.72,0,0,1,.6,5.48.39.39,0,0,1-.44.4H219.24a.21.21,0,0,0-.24.24,7.18,7.18,0,0,0,.32,2.32,4.72,4.72,0,0,0,4.83,3.32,6.26,6.26,0,0,0,4.92-2.12.41.41,0,0,1,.6-.08l1.64,1.48a.36.36,0,0,1,0,.56,9.31,9.31,0,0,1-7.47,3.28C220,66.44,217.24,64.56,216.2,61.24Zm11.91-6.48a.21.21,0,0,0,.24-.24,6.74,6.74,0,0,0-.28-2.16,4.72,4.72,0,0,0-8.79,0,6.74,6.74,0,0,0-.28,2.16.21.21,0,0,0,.24.24Z"/><path d="M245.59,73.19a.38.38,0,0,1-.4-.4V47.24a.38.38,0,0,1,.4-.4h2.56a.38.38,0,0,1,.4.4V49h0c.92-1.52,2.56-2.64,5.44-2.64,3.32,0,5.64,1.56,6.6,4.6a15.84,15.84,0,0,1,.68,5.4,16,16,0,0,1-.68,5.44c-1,3-3.28,4.6-6.6,4.6-2.88,0-4.52-1.16-5.44-2.68h0v9a.38.38,0,0,1-.4.4ZM257.43,60.4a13.29,13.29,0,0,0,.44-4,13.63,13.63,0,0,0-.44-4,4.53,4.53,0,0,0-8.44,0,12.47,12.47,0,0,0-.44,4,12.31,12.31,0,0,0,.44,4,4.51,4.51,0,0,0,8.44,0Z"/><path d="M278,66a.38.38,0,0,1-.4-.4V63.8h0a5.84,5.84,0,0,1-5.24,2.64c-4.2,0-6.64-2.88-6.64-7.24v-12a.38.38,0,0,1,.4-.4h2.56a.38.38,0,0,1,.4.4V58.4c0,3.12,1.4,4.92,4.24,4.92,2.6,0,4.32-1.84,4.32-4.72V47.24a.38.38,0,0,1,.4-.4h2.56a.38.38,0,0,1,.4.4V65.6a.38.38,0,0,1-.4.4Z"/><path d="M286.15,61.24a15,15,0,0,1-.64-4.84,14.86,14.86,0,0,1,.6-4.84c1.08-3.32,3.88-5.16,7.52-5.16a7.42,7.42,0,0,1,7.52,5.16,16.72,16.72,0,0,1,.6,5.48.39.39,0,0,1-.44.4H289.19a.21.21,0,0,0-.24.24,7.18,7.18,0,0,0,.32,2.32,4.73,4.73,0,0,0,4.84,3.32A6.26,6.26,0,0,0,299,61.2a.41.41,0,0,1,.6-.08l1.64,1.48a.36.36,0,0,1,0,.56,9.32,9.32,0,0,1-7.48,3.28C290,66.44,287.19,64.56,286.15,61.24Zm11.92-6.48a.21.21,0,0,0,.24-.24,6.74,6.74,0,0,0-.28-2.16,4.73,4.73,0,0,0-8.8,0,6.74,6.74,0,0,0-.28,2.16.21.21,0,0,0,.24.24Z"/><path d="M318.35,66a.38.38,0,0,1-.4-.4V63.76h0c-.92,1.52-2.56,2.68-5.44,2.68-3.32,0-5.64-1.56-6.6-4.6a16,16,0,0,1-.68-5.44,15.84,15.84,0,0,1,.68-5.4c1-3,3.28-4.6,6.6-4.6,2.88,0,4.52,1.12,5.44,2.64h0V39.2a.38.38,0,0,1,.4-.4h2.56a.38.38,0,0,1,.4.4V65.6a.38.38,0,0,1-.4.4Zm-.84-5.6a12.31,12.31,0,0,0,.44-4,12.47,12.47,0,0,0-.44-4,4.53,4.53,0,0,0-8.44,0,13.63,13.63,0,0,0-.44,4,13.29,13.29,0,0,0,.44,4,4.51,4.51,0,0,0,8.44,0Z"/><path d="M338.67,66a.38.38,0,0,1-.4-.4V63.92h0c-.88,1.44-2.76,2.52-5.68,2.52-3.64,0-6.44-1.88-6.44-5.76,0-4,2.8-5.92,7.48-5.92H338a.21.21,0,0,0,.24-.24v-1.4c0-2.64-1-3.76-4.6-3.76A7.45,7.45,0,0,0,329,50.72c-.2.16-.44.16-.56,0l-1.08-1.84a.42.42,0,0,1,.08-.56,10.63,10.63,0,0,1,6.52-1.88c5.44,0,7.52,1.8,7.52,6.52V65.6a.38.38,0,0,1-.4.4Zm-.48-6.2V57.68a.21.21,0,0,0-.24-.24h-3.84c-3.32,0-4.76,1-4.76,3.12,0,2,1.44,3,4,3C336.35,63.56,338.19,62.16,338.19,59.8Z"/><path d="M359.47,66a.38.38,0,0,1-.4-.4V54.4c0-3.08-1.4-4.88-4.28-4.88-2.6,0-4.4,1.84-4.4,4.68V65.6a.38.38,0,0,1-.4.4h-2.56a.38.38,0,0,1-.4-.4V47.24a.38.38,0,0,1,.4-.4H350a.38.38,0,0,1,.4.4V49h0a6.06,6.06,0,0,1,5.36-2.6c4.16,0,6.64,2.84,6.64,7.2v12a.38.38,0,0,1-.4.4Z"/><path d="M382.35,66.2c-3.72,0-5.16-1.68-5.16-5.44v-11a.21.21,0,0,0-.24-.24h-1.6a.38.38,0,0,1-.4-.4V47.24a.38.38,0,0,1,.4-.4H377a.21.21,0,0,0,.24-.24V41.2a.38.38,0,0,1,.4-.4h2.56a.38.38,0,0,1,.4.4v5.4a.21.21,0,0,0,.24.24h3a.38.38,0,0,1,.4.4v1.92a.38.38,0,0,1-.4.4h-3a.21.21,0,0,0-.24.24V60.64c0,1.92.72,2.44,2.44,2.44h.84a.38.38,0,0,1,.4.4V65.8a.38.38,0,0,1-.4.4Z"/><path d="M388.11,61.24a15,15,0,0,1-.64-4.84,14.86,14.86,0,0,1,.6-4.84c1.08-3.32,3.88-5.16,7.52-5.16a7.42,7.42,0,0,1,7.52,5.16,16.72,16.72,0,0,1,.6,5.48.39.39,0,0,1-.44.4H391.15a.21.21,0,0,0-.24.24,7.18,7.18,0,0,0,.32,2.32,4.73,4.73,0,0,0,4.84,3.32A6.26,6.26,0,0,0,401,61.2a.41.41,0,0,1,.6-.08l1.64,1.48a.36.36,0,0,1,0,.56,9.32,9.32,0,0,1-7.48,3.28C391.91,66.44,389.15,64.56,388.11,61.24ZM400,54.76a.21.21,0,0,0,.24-.24,6.74,6.74,0,0,0-.28-2.16,4.73,4.73,0,0,0-8.8,0,6.74,6.74,0,0,0-.28,2.16.21.21,0,0,0,.24.24Z"/><path d="M420.75,66a.38.38,0,0,1-.4-.4V54.4c0-3.08-1.4-4.88-4.28-4.88-2.6,0-4.4,1.84-4.4,4.68V65.6a.38.38,0,0,1-.4.4h-2.56a.38.38,0,0,1-.4-.4V47.24a.38.38,0,0,1,.4-.4h2.56a.38.38,0,0,1,.4.4V49h0a6.06,6.06,0,0,1,5.36-2.6c4.16,0,6.64,2.84,6.64,7.2v12a.38.38,0,0,1-.4.4Z"/><path d="M428.75,61.24a15,15,0,0,1-.64-4.84,14.86,14.86,0,0,1,.6-4.84c1.08-3.32,3.88-5.16,7.52-5.16a7.42,7.42,0,0,1,7.52,5.16,16.72,16.72,0,0,1,.6,5.48.39.39,0,0,1-.44.4H431.79a.21.21,0,0,0-.24.24,7.18,7.18,0,0,0,.32,2.32,4.73,4.73,0,0,0,4.84,3.32,6.26,6.26,0,0,0,4.92-2.12.41.41,0,0,1,.6-.08l1.64,1.48a.36.36,0,0,1,0,.56,9.32,9.32,0,0,1-7.48,3.28C432.55,66.44,429.79,64.56,428.75,61.24Zm11.92-6.48a.21.21,0,0,0,.24-.24,6.74,6.74,0,0,0-.28-2.16,4.73,4.73,0,0,0-8.8,0,6.74,6.74,0,0,0-.28,2.16.21.21,0,0,0,.24.24Z"/><path d="M449.35,66a.38.38,0,0,1-.4-.4V47.24a.38.38,0,0,1,.4-.4h2.56a.38.38,0,0,1,.4.4v2h0a5.34,5.34,0,0,1,5.08-2.8,5.89,5.89,0,0,1,3.92,1.44c.2.2.24.36.08.56l-1.48,2a.36.36,0,0,1-.56.08,5.4,5.4,0,0,0-3-.92c-2.92,0-4.12,2.28-4.12,5.6V65.6a.38.38,0,0,1-.4.4Z"/><path d="M10.56,104a.38.38,0,0,1-.4-.4V85.24a.38.38,0,0,1,.4-.4h2.56a.38.38,0,0,1,.4.4v2h0a5.34,5.34,0,0,1,5.08-2.8,5.89,5.89,0,0,1,3.92,1.44c.2.2.24.36.08.56l-1.48,2a.36.36,0,0,1-.56.08,5.4,5.4,0,0,0-3-.92c-2.92,0-4.12,2.28-4.12,5.6V103.6a.38.38,0,0,1-.4.4Z"/><path d="M26.08,80.52a.38.38,0,0,1-.4-.4V77.2a.38.38,0,0,1,.4-.4H28.8a.38.38,0,0,1,.4.4v2.92a.38.38,0,0,1-.4.4ZM26.16,104a.38.38,0,0,1-.4-.4V85.24a.38.38,0,0,1,.4-.4h2.56a.38.38,0,0,1,.4.4V103.6a.38.38,0,0,1-.4.4Z"/><path d="M34.36,99.24a15,15,0,0,1-.64-4.84,14.86,14.86,0,0,1,.6-4.84c1.08-3.32,3.88-5.16,7.52-5.16a7.42,7.42,0,0,1,7.52,5.16A16.72,16.72,0,0,1,50,95a.39.39,0,0,1-.44.4H37.4a.21.21,0,0,0-.24.24A7.18,7.18,0,0,0,37.48,98a4.73,4.73,0,0,0,4.84,3.32,6.26,6.26,0,0,0,4.92-2.12.41.41,0,0,1,.6-.08l1.64,1.48a.36.36,0,0,1,0,.56A9.32,9.32,0,0,1,42,104.44C38.16,104.44,35.4,102.56,34.36,99.24Zm11.92-6.48a.21.21,0,0,0,.24-.24,6.74,6.74,0,0,0-.28-2.16,4.33,4.33,0,0,0-4.4-3,4.33,4.33,0,0,0-4.4,3,6.74,6.74,0,0,0-.28,2.16.21.21,0,0,0,.24.24Z"/><path d="M53.24,101.56a.39.39,0,0,1,0-.56l1.64-1.76a.39.39,0,0,1,.56,0,9.31,9.31,0,0,0,5.92,2.2c2.8,0,4.2-1.2,4.2-2.92,0-1.52-.72-2.36-3.72-2.68l-2-.2c-3.76-.4-5.72-2.28-5.72-5.4,0-3.64,2.6-5.84,7.12-5.84A11.46,11.46,0,0,1,68,86.52a.39.39,0,0,1,.08.56L66.72,88.8a.39.39,0,0,1-.56.08A10.09,10.09,0,0,0,61,87.32c-2.4,0-3.64,1.08-3.64,2.64s.92,2.32,3.76,2.6l2,.2c3.88.36,5.76,2.32,5.76,5.4,0,3.76-2.72,6.28-7.72,6.28A11.91,11.91,0,0,1,53.24,101.56Z"/><path d="M73,108.79a.36.36,0,0,1,0-.56l1.64-1.64a.39.39,0,0,1,.6,0,6.39,6.39,0,0,0,4.52,1.92c3.16,0,4.84-1.64,4.84-5.15v-2.24h0c-.88,1.6-2.52,2.64-5.32,2.64a6.28,6.28,0,0,1-6.44-4.64,15,15,0,0,1-.64-5,15,15,0,0,1,.64-5,6.28,6.28,0,0,1,6.44-4.64c2.8,0,4.44,1,5.32,2.64h0v-1.8a.38.38,0,0,1,.4-.4h2.56a.38.38,0,0,1,.4.4v17.92c0,5.43-3,8.47-8.36,8.47A8.66,8.66,0,0,1,73,108.79Zm11.2-11a11.65,11.65,0,0,0,.44-3.72,11.81,11.81,0,0,0-.44-3.72,4.32,4.32,0,0,0-8.12,0,12,12,0,0,0-.48,3.72A11.83,11.83,0,0,0,76,97.8a3.91,3.91,0,0,0,4,2.88A4,4,0,0,0,84.16,97.8Z"/><path d="M93.2,99.28a14.39,14.39,0,0,1-.64-4.88,14.29,14.29,0,0,1,.64-4.84c1-3.28,3.84-5.16,7.56-5.16s6.52,1.88,7.56,5.16A14.29,14.29,0,0,1,109,94.4a14.39,14.39,0,0,1-.64,4.88c-1,3.24-3.84,5.16-7.56,5.16S94.24,102.52,93.2,99.28Zm11.88-1a12.55,12.55,0,0,0,.44-3.92,12.27,12.27,0,0,0-.44-3.88,4.61,4.61,0,0,0-8.64,0A12.27,12.27,0,0,0,96,94.4a12.55,12.55,0,0,0,.44,3.92,4.61,4.61,0,0,0,8.64,0Z"/><path d="M134.36,104a.38.38,0,0,1-.4-.4v-1.84h0c-.92,1.52-2.56,2.68-5.44,2.68-3.32,0-5.64-1.56-6.6-4.6a16,16,0,0,1-.68-5.44,15.84,15.84,0,0,1,.68-5.4c1-3,3.28-4.6,6.6-4.6,2.88,0,4.52,1.12,5.44,2.64h0V77.2a.38.38,0,0,1,.4-.4h2.56a.37.37,0,0,1,.39.4v26.4a.37.37,0,0,1-.39.4Zm-.84-5.6a12.31,12.31,0,0,0,.44-4,12.47,12.47,0,0,0-.44-4,4.53,4.53,0,0,0-8.44,0,13.63,13.63,0,0,0-.44,4,13.29,13.29,0,0,0,.44,4,4.51,4.51,0,0,0,8.44,0Z"/><path d="M142.56,99.24a15,15,0,0,1-.64-4.84,14.86,14.86,0,0,1,.6-4.84c1.08-3.32,3.88-5.16,7.52-5.16a7.42,7.42,0,0,1,7.52,5.16,16.72,16.72,0,0,1,.6,5.48.39.39,0,0,1-.44.4H145.6a.21.21,0,0,0-.24.24,7.18,7.18,0,0,0,.32,2.32,4.73,4.73,0,0,0,4.84,3.32,6.26,6.26,0,0,0,4.92-2.12.41.41,0,0,1,.6-.08l1.64,1.48a.36.36,0,0,1,0,.56,9.32,9.32,0,0,1-7.48,3.28C146.36,104.44,143.6,102.56,142.56,99.24Zm11.92-6.48a.21.21,0,0,0,.24-.24,6.74,6.74,0,0,0-.28-2.16,4.73,4.73,0,0,0-8.8,0,6.74,6.74,0,0,0-.28,2.16.21.21,0,0,0,.24.24Z"/><path d="M171,89.56c1.08-3.32,3.88-5.16,7.56-5.16a7.66,7.66,0,0,1,6.55,3.24c.12.2.12.36-.12.56l-1.76,1.44a.36.36,0,0,1-.56,0,4.68,4.68,0,0,0-4.11-2.08,4.16,4.16,0,0,0-4.28,3,12.76,12.76,0,0,0-.44,3.88,12.88,12.88,0,0,0,.44,3.92,4.16,4.16,0,0,0,4.28,3,4.68,4.68,0,0,0,4.11-2.08.36.36,0,0,1,.56,0l1.76,1.44c.24.2.24.36.12.56a7.66,7.66,0,0,1-6.55,3.24c-3.68,0-6.48-1.84-7.56-5.16a20,20,0,0,1,0-9.72Z"/><path d="M200.75,104a.38.38,0,0,1-.4-.4v-1.68h0c-.88,1.44-2.75,2.52-5.67,2.52-3.64,0-6.44-1.88-6.44-5.76,0-4,2.8-5.92,7.48-5.92H200a.21.21,0,0,0,.24-.24v-1.4c0-2.64-1-3.76-4.59-3.76A7.45,7.45,0,0,0,191,88.72c-.2.16-.44.16-.56,0l-1.08-1.84a.42.42,0,0,1,.08-.56A10.63,10.63,0,0,1,196,84.4c5.43,0,7.51,1.8,7.51,6.52V103.6a.38.38,0,0,1-.4.4Zm-.48-6.2V95.68a.21.21,0,0,0-.24-.24H196.2c-3.32,0-4.76,1-4.76,3.12,0,2,1.44,3,4,3C198.44,101.56,200.27,100.16,200.27,97.8Z"/><path d="M209.52,104a.38.38,0,0,1-.4-.4V85.24a.38.38,0,0,1,.4-.4h2.56a.38.38,0,0,1,.4.4V103.6a.38.38,0,0,1-.4.4Zm.32-22.28c-.24,0-.36-.16-.24-.4l3-4.92a.7.7,0,0,1,.67-.4H216c.24,0,.36.2.2.4l-3.67,4.92a.79.79,0,0,1-.76.4Z"/><path d="M230.23,104a.38.38,0,0,1-.4-.4v-1.84h0c-.92,1.52-2.56,2.68-5.44,2.68-3.31,0-5.63-1.56-6.59-4.6a16,16,0,0,1-.68-5.44,15.84,15.84,0,0,1,.68-5.4c1-3,3.28-4.6,6.59-4.6,2.88,0,4.52,1.12,5.44,2.64h0V77.2a.38.38,0,0,1,.4-.4h2.56a.38.38,0,0,1,.4.4v26.4a.38.38,0,0,1-.4.4Zm-.84-5.6a12.31,12.31,0,0,0,.44-4,12.47,12.47,0,0,0-.44-4,4.52,4.52,0,0,0-8.43,0,13.63,13.63,0,0,0-.44,4,13.29,13.29,0,0,0,.44,4,4.5,4.5,0,0,0,8.43,0Z"/><path d="M250.55,104a.38.38,0,0,1-.4-.4v-1.68h0c-.88,1.44-2.76,2.52-5.68,2.52-3.64,0-6.43-1.88-6.43-5.76,0-4,2.79-5.92,7.47-5.92h4.36a.21.21,0,0,0,.24-.24v-1.4c0-2.64-1-3.76-4.6-3.76a7.45,7.45,0,0,0-4.64,1.36.36.36,0,0,1-.56,0l-1.07-1.84a.42.42,0,0,1,.08-.56,10.57,10.57,0,0,1,6.51-1.88c5.44,0,7.52,1.8,7.52,6.52V103.6a.38.38,0,0,1-.4.4Zm-.48-6.2V95.68a.21.21,0,0,0-.24-.24H246c-3.32,0-4.76,1-4.76,3.12,0,2,1.44,3,4,3C248.23,101.56,250.07,100.16,250.07,97.8Z"/><path d="M257.6,101.56a.39.39,0,0,1,0-.56l1.64-1.76a.38.38,0,0,1,.55,0,9.31,9.31,0,0,0,5.92,2.2c2.8,0,4.2-1.2,4.2-2.92,0-1.52-.72-2.36-3.72-2.68l-2-.2c-3.75-.4-5.71-2.28-5.71-5.4,0-3.64,2.59-5.84,7.11-5.84a11.46,11.46,0,0,1,6.8,2.12.39.39,0,0,1,.08.56l-1.36,1.72a.39.39,0,0,1-.56.08,10.09,10.09,0,0,0-5.16-1.56c-2.4,0-3.64,1.08-3.64,2.64s.92,2.32,3.76,2.6l2,.2c3.88.36,5.76,2.32,5.76,5.4,0,3.76-2.72,6.28-7.72,6.28A11.88,11.88,0,0,1,257.6,101.56Z"/><path d="M298.51,104a.38.38,0,0,1-.4-.4v-1.84h0c-.92,1.52-2.56,2.68-5.44,2.68-3.32,0-5.64-1.56-6.6-4.6a16,16,0,0,1-.68-5.44A15.84,15.84,0,0,1,286,89c1-3,3.28-4.6,6.6-4.6,2.88,0,4.52,1.12,5.44,2.64h0V77.2a.38.38,0,0,1,.4-.4h2.56a.38.38,0,0,1,.4.4v26.4a.38.38,0,0,1-.4.4Zm-.84-5.6a12.31,12.31,0,0,0,.44-4,12.47,12.47,0,0,0-.44-4,4.53,4.53,0,0,0-8.44,0,13.63,13.63,0,0,0-.44,4,13.29,13.29,0,0,0,.44,4,4.51,4.51,0,0,0,8.44,0Z"/><path d="M306.71,99.24a15,15,0,0,1-.64-4.84,14.86,14.86,0,0,1,.6-4.84c1.08-3.32,3.88-5.16,7.52-5.16a7.42,7.42,0,0,1,7.52,5.16,16.72,16.72,0,0,1,.6,5.48.39.39,0,0,1-.44.4H309.75a.21.21,0,0,0-.24.24,7.18,7.18,0,0,0,.32,2.32,4.73,4.73,0,0,0,4.84,3.32,6.26,6.26,0,0,0,4.92-2.12.41.41,0,0,1,.6-.08l1.64,1.48a.36.36,0,0,1,0,.56,9.32,9.32,0,0,1-7.48,3.28C310.51,104.44,307.75,102.56,306.71,99.24Zm11.92-6.48a.21.21,0,0,0,.24-.24,6.74,6.74,0,0,0-.28-2.16,4.73,4.73,0,0,0-8.8,0,6.74,6.74,0,0,0-.28,2.16.21.21,0,0,0,.24.24Z"/><path d="M335.19,99.28a14.39,14.39,0,0,1-.64-4.88,14.29,14.29,0,0,1,.64-4.84c1-3.28,3.84-5.16,7.56-5.16s6.52,1.88,7.56,5.16A14.29,14.29,0,0,1,351,94.4a14.39,14.39,0,0,1-.64,4.88c-1,3.24-3.84,5.16-7.56,5.16S336.23,102.52,335.19,99.28Zm11.88-1a12.55,12.55,0,0,0,.44-3.92,12.27,12.27,0,0,0-.44-3.88,4.61,4.61,0,0,0-8.64,0A12.27,12.27,0,0,0,338,94.4a12.55,12.55,0,0,0,.44,3.92,4.61,4.61,0,0,0,8.64,0Z"/><path d="M356,104a.38.38,0,0,1-.4-.4V77.2a.38.38,0,0,1,.4-.4h2.56a.38.38,0,0,1,.4.4V87h0c.92-1.52,2.56-2.64,5.44-2.64,3.32,0,5.64,1.56,6.6,4.6a15.84,15.84,0,0,1,.68,5.4,16,16,0,0,1-.68,5.44c-1,3-3.28,4.6-6.6,4.6-2.88,0-4.52-1.16-5.44-2.68h0v1.84a.38.38,0,0,1-.4.4Zm11.84-5.6a13.29,13.29,0,0,0,.44-4,13.63,13.63,0,0,0-.44-4,4.53,4.53,0,0,0-8.44,0,12.47,12.47,0,0,0-.44,4,12.31,12.31,0,0,0,.44,4,4.51,4.51,0,0,0,8.44,0Z"/><path d="M373.11,111.19a.38.38,0,0,1-.4-.4v-2.32a.38.38,0,0,1,.4-.4h.64c1.88,0,2.52-.52,2.52-2.55V85.24a.38.38,0,0,1,.4-.4h2.56a.38.38,0,0,1,.4.4v20.2c0,4.11-1.84,5.75-5.72,5.75Zm3.48-30.67a.38.38,0,0,1-.4-.4V77.2a.38.38,0,0,1,.4-.4h2.72a.38.38,0,0,1,.4.4v2.92a.38.38,0,0,1-.4.4Z"/><path d="M384.87,99.24a15,15,0,0,1-.64-4.84,14.86,14.86,0,0,1,.6-4.84c1.08-3.32,3.88-5.16,7.52-5.16a7.42,7.42,0,0,1,7.52,5.16,16.72,16.72,0,0,1,.6,5.48.39.39,0,0,1-.44.4H387.91a.21.21,0,0,0-.24.24A7.18,7.18,0,0,0,388,98a4.73,4.73,0,0,0,4.84,3.32,6.26,6.26,0,0,0,4.92-2.12.41.41,0,0,1,.6-.08L400,100.6a.36.36,0,0,1,0,.56,9.32,9.32,0,0,1-7.48,3.28C388.67,104.44,385.91,102.56,384.87,99.24Zm11.92-6.48a.21.21,0,0,0,.24-.24,6.74,6.74,0,0,0-.28-2.16,4.73,4.73,0,0,0-8.8,0,6.74,6.74,0,0,0-.28,2.16.21.21,0,0,0,.24.24Z"/><path d="M410.63,104.2c-3.72,0-5.16-1.68-5.16-5.44v-11a.21.21,0,0,0-.24-.24h-1.6a.38.38,0,0,1-.4-.4V85.24a.38.38,0,0,1,.4-.4h1.6a.21.21,0,0,0,.24-.24V79.2a.38.38,0,0,1,.4-.4h2.56a.38.38,0,0,1,.4.4v5.4a.21.21,0,0,0,.24.24h3a.38.38,0,0,1,.4.4v1.92a.38.38,0,0,1-.4.4h-3a.21.21,0,0,0-.24.24V98.64c0,1.92.72,2.44,2.44,2.44h.84a.38.38,0,0,1,.4.4v2.32a.38.38,0,0,1-.4.4Z"/><path d="M416.39,99.28a14.39,14.39,0,0,1-.64-4.88,14.29,14.29,0,0,1,.64-4.84c1-3.28,3.84-5.16,7.56-5.16s6.52,1.88,7.56,5.16a14.29,14.29,0,0,1,.64,4.84,14.39,14.39,0,0,1-.64,4.88c-1,3.24-3.84,5.16-7.56,5.16S417.43,102.52,416.39,99.28Zm11.88-1a12.55,12.55,0,0,0,.44-3.92,12.27,12.27,0,0,0-.44-3.88,4.61,4.61,0,0,0-8.64,0,12.27,12.27,0,0,0-.44,3.88,12.55,12.55,0,0,0,.44,3.92,4.61,4.61,0,0,0,8.64,0Z"/><path d="M435.43,101.56a.39.39,0,0,1,0-.56l1.64-1.76a.39.39,0,0,1,.56,0,9.31,9.31,0,0,0,5.92,2.2c2.8,0,4.2-1.2,4.2-2.92,0-1.52-.72-2.36-3.72-2.68l-2-.2c-3.76-.4-5.72-2.28-5.72-5.4,0-3.64,2.6-5.84,7.12-5.84a11.46,11.46,0,0,1,6.8,2.12.39.39,0,0,1,.08.56l-1.36,1.72a.39.39,0,0,1-.56.08,10.09,10.09,0,0,0-5.16-1.56c-2.4,0-3.64,1.08-3.64,2.64s.92,2.32,3.76,2.6l2,.2c3.88.36,5.76,2.32,5.76,5.4,0,3.76-2.72,6.28-7.72,6.28A11.91,11.91,0,0,1,435.43,101.56Z"/><path d="M13.38,142.2c-3.72,0-5.16-1.68-5.16-5.44v-11a.21.21,0,0,0-.24-.24H6.38a.38.38,0,0,1-.4-.4v-1.92a.38.38,0,0,1,.4-.4H8a.21.21,0,0,0,.24-.24v-5.4a.38.38,0,0,1,.4-.4h2.56a.38.38,0,0,1,.4.4v5.4a.21.21,0,0,0,.24.24h3a.38.38,0,0,1,.4.4v1.92a.38.38,0,0,1-.4.4h-3a.21.21,0,0,0-.24.24v10.84c0,1.92.72,2.44,2.44,2.44h.84a.38.38,0,0,1,.4.4v2.32a.38.38,0,0,1-.4.4Z"/><path d="M31.26,142a.38.38,0,0,1-.4-.4v-1.68h0c-.88,1.44-2.76,2.52-5.68,2.52-3.64,0-6.44-1.88-6.44-5.76,0-4,2.8-5.92,7.48-5.92h4.36a.21.21,0,0,0,.24-.24v-1.4c0-2.64-1-3.76-4.6-3.76a7.45,7.45,0,0,0-4.64,1.36c-.2.16-.44.16-.56,0l-1.08-1.84a.42.42,0,0,1,.08-.56,10.63,10.63,0,0,1,6.52-1.88c5.44,0,7.52,1.8,7.52,6.52V141.6a.38.38,0,0,1-.4.4Zm-.48-6.2v-2.12a.21.21,0,0,0-.24-.24H26.7c-3.32,0-4.76,1-4.76,3.12,0,2,1.44,3,4,3C28.94,139.56,30.78,138.16,30.78,135.8Z"/><path d="M53,142.2c-3.36,0-4.68-1.6-4.68-5v-22a.38.38,0,0,1,.4-.4H51.3a.38.38,0,0,1,.4.4V137c0,1.6.6,2.12,1.92,2.12h.76a.38.38,0,0,1,.4.4v2.32a.38.38,0,0,1-.4.4Z"/><path d="M58.18,137.24a15,15,0,0,1-.64-4.84,14.86,14.86,0,0,1,.6-4.84c1.08-3.32,3.88-5.16,7.52-5.16a7.42,7.42,0,0,1,7.52,5.16,16.72,16.72,0,0,1,.6,5.48.39.39,0,0,1-.44.4H61.22a.21.21,0,0,0-.24.24A7.18,7.18,0,0,0,61.3,136a4.73,4.73,0,0,0,4.84,3.32,6.26,6.26,0,0,0,4.92-2.12.41.41,0,0,1,.6-.08l1.64,1.48a.36.36,0,0,1,0,.56,9.32,9.32,0,0,1-7.48,3.28C62,142.44,59.22,140.56,58.18,137.24Zm11.92-6.48a.21.21,0,0,0,.24-.24,6.74,6.74,0,0,0-.28-2.16,4.73,4.73,0,0,0-8.8,0,6.74,6.74,0,0,0-.28,2.16.21.21,0,0,0,.24.24Z"/><path d="M77.06,139.56a.39.39,0,0,1,0-.56l1.64-1.76a.39.39,0,0,1,.56,0,9.31,9.31,0,0,0,5.92,2.2c2.8,0,4.2-1.2,4.2-2.92,0-1.52-.72-2.36-3.72-2.68l-2-.2c-3.76-.4-5.72-2.28-5.72-5.4,0-3.64,2.6-5.84,7.12-5.84a11.46,11.46,0,0,1,6.8,2.12.39.39,0,0,1,.08.56l-1.36,1.72a.39.39,0,0,1-.56.08,10.09,10.09,0,0,0-5.16-1.56c-2.4,0-3.64,1.08-3.64,2.64s.92,2.32,3.76,2.6l2,.2c3.88.36,5.76,2.32,5.76,5.4,0,3.76-2.72,6.28-7.72,6.28A11.91,11.91,0,0,1,77.06,139.56Z"/><path d="M105.42,127.56c1.08-3.32,3.88-5.16,7.56-5.16a7.68,7.68,0,0,1,6.56,3.24c.12.2.12.36-.12.56l-1.76,1.44a.36.36,0,0,1-.56,0,4.71,4.71,0,0,0-4.12-2.08,4.16,4.16,0,0,0-4.28,3,17.5,17.5,0,0,0,0,7.8,4.16,4.16,0,0,0,4.28,3,4.71,4.71,0,0,0,4.12-2.08.36.36,0,0,1,.56,0l1.76,1.44c.24.2.24.36.12.56a7.68,7.68,0,0,1-6.56,3.24c-3.68,0-6.48-1.84-7.56-5.16a20,20,0,0,1,0-9.72Z"/><path d="M123.06,137.28a18.77,18.77,0,0,1,0-9.72c1-3.28,3.84-5.16,7.56-5.16s6.52,1.88,7.56,5.16a18.77,18.77,0,0,1,0,9.72c-1,3.24-3.84,5.16-7.56,5.16S124.1,140.52,123.06,137.28Zm11.88-1a12.55,12.55,0,0,0,.44-3.92,12.27,12.27,0,0,0-.44-3.88,4.61,4.61,0,0,0-8.64,0,12.27,12.27,0,0,0-.44,3.88,12.55,12.55,0,0,0,.44,3.92,4.61,4.61,0,0,0,8.64,0Z"/><path d="M167.89,142a.38.38,0,0,1-.4-.4V130.4c0-3.08-1.4-4.88-4.28-4.88a4.32,4.32,0,0,0-4.4,4.68v11.4a.38.38,0,0,1-.4.4h-2.56a.38.38,0,0,1-.39-.4V130.4c0-3.08-1.4-4.88-4.28-4.88-2.6,0-4.4,1.84-4.4,4.68v11.4a.38.38,0,0,1-.4.4h-2.56a.38.38,0,0,1-.4-.4V123.24a.38.38,0,0,1,.4-.4h2.56a.38.38,0,0,1,.4.4V125h0a6.76,6.76,0,0,1,11,.4h0a7.13,7.13,0,0,1,6.2-3c4.44,0,6.84,2.84,6.84,7.2v12a.38.38,0,0,1-.4.4Z"/><path d="M175.9,137.28a18.77,18.77,0,0,1,0-9.72c1-3.28,3.84-5.16,7.56-5.16s6.52,1.88,7.55,5.16a18.77,18.77,0,0,1,0,9.72c-1,3.24-3.83,5.16-7.55,5.16S176.94,140.52,175.9,137.28Zm11.88-1a12.55,12.55,0,0,0,.44-3.92,12.27,12.27,0,0,0-.44-3.88,4.61,4.61,0,0,0-8.64,0,12.27,12.27,0,0,0-.44,3.88,12.55,12.55,0,0,0,.44,3.92,4.61,4.61,0,0,0,8.64,0Z"/><path d="M217.49,142a.38.38,0,0,1-.4-.4V130.4c0-3.08-1.4-4.88-4.28-4.88-2.59,0-4.39,1.84-4.39,4.68v11.4a.38.38,0,0,1-.4.4h-2.56a.38.38,0,0,1-.4-.4V115.2a.38.38,0,0,1,.4-.4H208a.38.38,0,0,1,.4.4V125h0a6.05,6.05,0,0,1,5.35-2.6c4.16,0,6.64,2.84,6.64,7.2v12a.38.38,0,0,1-.4.4Z"/><path d="M225.5,137.24a15,15,0,0,1-.64-4.84,14.86,14.86,0,0,1,.6-4.84c1.08-3.32,3.88-5.16,7.52-5.16a7.42,7.42,0,0,1,7.51,5.16,16.72,16.72,0,0,1,.6,5.48.39.39,0,0,1-.44.4H228.54a.21.21,0,0,0-.24.24,7.18,7.18,0,0,0,.32,2.32,4.73,4.73,0,0,0,4.84,3.32,6.25,6.25,0,0,0,4.91-2.12.41.41,0,0,1,.6-.08l1.64,1.48a.36.36,0,0,1,0,.56,9.31,9.31,0,0,1-7.47,3.28C229.3,142.44,226.54,140.56,225.5,137.24Zm11.91-6.48a.21.21,0,0,0,.24-.24,6.74,6.74,0,0,0-.28-2.16,4.72,4.72,0,0,0-8.79,0,6.74,6.74,0,0,0-.28,2.16.21.21,0,0,0,.24.24Z"/><path d="M246.1,142a.38.38,0,0,1-.4-.4V123.24a.38.38,0,0,1,.4-.4h2.55a.37.37,0,0,1,.4.4v2h0a5.34,5.34,0,0,1,5.08-2.8,5.89,5.89,0,0,1,3.92,1.44c.2.2.24.36.08.56l-1.48,2a.36.36,0,0,1-.56.08,5.4,5.4,0,0,0-3-.92c-2.92,0-4.12,2.28-4.12,5.6V141.6a.37.37,0,0,1-.4.4Z"/><path d="M261.69,142a.38.38,0,0,1-.4-.4V123.24a.38.38,0,0,1,.4-.4h2.56a.38.38,0,0,1,.4.4v2h0a5.34,5.34,0,0,1,5.08-2.8,5.89,5.89,0,0,1,3.92,1.44c.2.2.24.36.08.56l-1.48,2a.36.36,0,0,1-.56.08,5.4,5.4,0,0,0-3-.92c-2.92,0-4.12,2.28-4.12,5.6V141.6a.38.38,0,0,1-.4.4Z"/><path d="M287.53,142a.38.38,0,0,1-.4-.4v-1.68h0c-.88,1.44-2.76,2.52-5.68,2.52-3.64,0-6.43-1.88-6.43-5.76,0-4,2.79-5.92,7.47-5.92h4.36a.21.21,0,0,0,.24-.24v-1.4c0-2.64-1-3.76-4.6-3.76a7.45,7.45,0,0,0-4.64,1.36c-.2.16-.44.16-.56,0l-1.08-1.84a.42.42,0,0,1,.08-.56,10.63,10.63,0,0,1,6.52-1.88c5.44,0,7.52,1.8,7.52,6.52V141.6a.38.38,0,0,1-.4.4Zm-.48-6.2v-2.12a.21.21,0,0,0-.24-.24H283c-3.32,0-4.76,1-4.76,3.12,0,2,1.44,3,4,3C285.21,139.56,287.05,138.16,287.05,135.8Z"/><path d="M320.37,142a.38.38,0,0,1-.4-.4V130.4c0-3.08-1.4-4.88-4.28-4.88a4.32,4.32,0,0,0-4.4,4.68v11.4a.38.38,0,0,1-.4.4h-2.56a.38.38,0,0,1-.4-.4V130.4c0-3.08-1.4-4.88-4.28-4.88-2.6,0-4.4,1.84-4.4,4.68v11.4a.38.38,0,0,1-.4.4h-2.56a.38.38,0,0,1-.4-.4V123.24a.38.38,0,0,1,.4-.4h2.56a.38.38,0,0,1,.4.4V125h0a6.77,6.77,0,0,1,11,.4h0a7.13,7.13,0,0,1,6.2-3c4.44,0,6.84,2.84,6.84,7.2v12a.38.38,0,0,1-.4.4Z"/><path d="M329.21,118.52a.38.38,0,0,1-.4-.4V115.2a.38.38,0,0,1,.4-.4h2.72a.38.38,0,0,1,.4.4v2.92a.38.38,0,0,1-.4.4Zm.08,23.48a.38.38,0,0,1-.4-.4V123.24a.38.38,0,0,1,.4-.4h2.56a.38.38,0,0,1,.4.4V141.6a.38.38,0,0,1-.4.4Z"/><path d="M337.49,137.24a15,15,0,0,1-.64-4.84,14.86,14.86,0,0,1,.6-4.84c1.08-3.32,3.88-5.16,7.52-5.16a7.42,7.42,0,0,1,7.52,5.16,16.72,16.72,0,0,1,.6,5.48.39.39,0,0,1-.44.4H340.53a.21.21,0,0,0-.24.24,7.18,7.18,0,0,0,.32,2.32,4.73,4.73,0,0,0,4.84,3.32,6.26,6.26,0,0,0,4.92-2.12.41.41,0,0,1,.6-.08l1.64,1.48a.36.36,0,0,1,0,.56,9.32,9.32,0,0,1-7.48,3.28C341.29,142.44,338.53,140.56,337.49,137.24Zm11.92-6.48a.21.21,0,0,0,.24-.24,6.74,6.74,0,0,0-.28-2.16,4.73,4.73,0,0,0-8.8,0,6.74,6.74,0,0,0-.28,2.16.21.21,0,0,0,.24.24Z"/><path d="M370.13,142a.38.38,0,0,1-.4-.4V130.4c0-3.08-1.4-4.88-4.28-4.88-2.6,0-4.4,1.84-4.4,4.68v11.4a.38.38,0,0,1-.4.4h-2.56a.38.38,0,0,1-.4-.4V123.24a.38.38,0,0,1,.4-.4h2.56a.38.38,0,0,1,.4.4V125h0a6.06,6.06,0,0,1,5.36-2.6c4.16,0,6.64,2.84,6.64,7.2v12a.38.38,0,0,1-.4.4Z"/><path d="M384.21,142.2c-3.72,0-5.16-1.68-5.16-5.44v-11a.21.21,0,0,0-.24-.24h-1.6a.38.38,0,0,1-.4-.4v-1.92a.38.38,0,0,1,.4-.4h1.6a.21.21,0,0,0,.24-.24v-5.4a.38.38,0,0,1,.4-.4H382a.38.38,0,0,1,.4.4v5.4a.21.21,0,0,0,.24.24h3a.38.38,0,0,1,.4.4v1.92a.38.38,0,0,1-.4.4h-3a.21.21,0,0,0-.24.24v10.84c0,1.92.72,2.44,2.44,2.44h.84a.38.38,0,0,1,.4.4v2.32a.38.38,0,0,1-.4.4Z"/><path d="M402.09,142a.38.38,0,0,1-.4-.4v-1.68h0c-.88,1.44-2.76,2.52-5.68,2.52-3.64,0-6.44-1.88-6.44-5.76,0-4,2.8-5.92,7.48-5.92h4.36a.21.21,0,0,0,.24-.24v-1.4c0-2.64-1-3.76-4.6-3.76a7.45,7.45,0,0,0-4.64,1.36c-.2.16-.44.16-.56,0l-1.08-1.84a.42.42,0,0,1,.08-.56,10.63,10.63,0,0,1,6.52-1.88c5.44,0,7.52,1.8,7.52,6.52V141.6a.38.38,0,0,1-.4.4Zm-.48-6.2v-2.12a.21.21,0,0,0-.24-.24h-3.84c-3.32,0-4.76,1-4.76,3.12,0,2,1.44,3,4,3C399.77,139.56,401.61,138.16,401.61,135.8Z"/><path d="M409.13,139.56a.39.39,0,0,1,0-.56l1.64-1.76a.39.39,0,0,1,.56,0,9.31,9.31,0,0,0,5.92,2.2c2.8,0,4.2-1.2,4.2-2.92,0-1.52-.72-2.36-3.72-2.68l-2-.2c-3.76-.4-5.72-2.28-5.72-5.4,0-3.64,2.6-5.84,7.12-5.84a11.46,11.46,0,0,1,6.8,2.12.39.39,0,0,1,.08.56l-1.36,1.72a.39.39,0,0,1-.56.08,10.09,10.09,0,0,0-5.16-1.56c-2.4,0-3.64,1.08-3.64,2.64s.92,2.32,3.76,2.6l2,.2c3.88.36,5.76,2.32,5.76,5.4,0,3.76-2.72,6.28-7.72,6.28A11.91,11.91,0,0,1,409.13,139.56Z"/><path d="M437.53,137.28a18.77,18.77,0,0,1,0-9.72c1-3.28,3.84-5.16,7.56-5.16s6.52,1.88,7.56,5.16a18.77,18.77,0,0,1,0,9.72c-1,3.24-3.84,5.16-7.56,5.16S438.57,140.52,437.53,137.28Zm11.88-1a12.55,12.55,0,0,0,.44-3.92,12.27,12.27,0,0,0-.44-3.88,4.61,4.61,0,0,0-8.64,0,12.27,12.27,0,0,0-.44,3.88,12.55,12.55,0,0,0,.44,3.92,4.61,4.61,0,0,0,8.64,0Z"/><path d="M45,175.24a15,15,0,0,1-.64-4.84,14.86,14.86,0,0,1,.6-4.84c1.08-3.32,3.88-5.16,7.52-5.16A7.42,7.42,0,0,1,60,165.56a16.72,16.72,0,0,1,.6,5.48.39.39,0,0,1-.44.4H48.08a.21.21,0,0,0-.24.24,7.18,7.18,0,0,0,.32,2.32A4.73,4.73,0,0,0,53,177.32a6.26,6.26,0,0,0,4.92-2.12.41.41,0,0,1,.6-.08l1.64,1.48a.36.36,0,0,1,0,.56,9.32,9.32,0,0,1-7.48,3.28C48.84,180.44,46.08,178.56,45,175.24ZM57,168.76a.21.21,0,0,0,.24-.24,6.74,6.74,0,0,0-.28-2.16,4.33,4.33,0,0,0-4.4-3,4.33,4.33,0,0,0-4.4,3,6.74,6.74,0,0,0-.28,2.16.21.21,0,0,0,.24.24Z"/><path d="M77.24,187.19a.38.38,0,0,1-.4-.4v-9h0c-.92,1.52-2.56,2.68-5.44,2.68-3.32,0-5.64-1.56-6.6-4.6a21.94,21.94,0,0,1,0-10.84c1-3,3.28-4.6,6.6-4.6,2.88,0,4.52,1.12,5.44,2.64h0v-1.8a.38.38,0,0,1,.4-.4H79.8a.38.38,0,0,1,.4.4v25.55a.38.38,0,0,1-.4.4ZM76.4,174.4a12.31,12.31,0,0,0,.44-4,12.47,12.47,0,0,0-.44-4,4.53,4.53,0,0,0-8.44,0,13.63,13.63,0,0,0-.44,4,13.29,13.29,0,0,0,.44,4,4.51,4.51,0,0,0,8.44,0Z"/><path d="M98,180a.38.38,0,0,1-.4-.4v-1.8h0a5.84,5.84,0,0,1-5.24,2.64c-4.2,0-6.64-2.88-6.64-7.24v-12a.38.38,0,0,1,.4-.4h2.56a.38.38,0,0,1,.4.4V172.4c0,3.12,1.4,4.92,4.24,4.92,2.6,0,4.32-1.84,4.32-4.72V161.24a.38.38,0,0,1,.4-.4h2.56a.38.38,0,0,1,.4.4V179.6a.38.38,0,0,1-.4.4Z"/><path d="M107,156.52a.38.38,0,0,1-.4-.4V153.2a.38.38,0,0,1,.4-.4h2.72a.38.38,0,0,1,.4.4v2.92a.38.38,0,0,1-.4.4Zm.08,23.48a.38.38,0,0,1-.4-.4V161.24a.38.38,0,0,1,.4-.4h2.56a.38.38,0,0,1,.4.4V179.6a.38.38,0,0,1-.4.4Z"/><path d="M116.24,187.19a.38.38,0,0,1-.4-.4V161.24a.38.38,0,0,1,.4-.4h2.56a.38.38,0,0,1,.4.4V163h0c.92-1.52,2.56-2.64,5.44-2.64,3.32,0,5.64,1.56,6.6,4.6a21.94,21.94,0,0,1,0,10.84c-1,3-3.28,4.6-6.6,4.6-2.88,0-4.52-1.16-5.44-2.68h0v9a.38.38,0,0,1-.4.4Zm11.84-12.79a13.29,13.29,0,0,0,.44-4,13.63,13.63,0,0,0-.44-4,4.53,4.53,0,0,0-8.44,0,12.47,12.47,0,0,0-.44,4,12.31,12.31,0,0,0,.44,4,4.51,4.51,0,0,0,8.44,0Z"/><path d="M136,175.28a18.77,18.77,0,0,1,0-9.72c1-3.28,3.84-5.16,7.56-5.16s6.52,1.88,7.56,5.16a18.77,18.77,0,0,1,0,9.72c-1,3.24-3.84,5.16-7.56,5.16S137.08,178.52,136,175.28Zm11.88-1a12.55,12.55,0,0,0,.44-3.92,12.27,12.27,0,0,0-.44-3.88,4.61,4.61,0,0,0-8.64,0,12.27,12.27,0,0,0-.44,3.88,12.55,12.55,0,0,0,.44,3.92,4.61,4.61,0,0,0,8.64,0Z"/><path d="M155.08,177.56a.39.39,0,0,1,0-.56l1.64-1.76a.39.39,0,0,1,.56,0,9.31,9.31,0,0,0,5.92,2.2c2.8,0,4.2-1.2,4.2-2.92,0-1.52-.72-2.36-3.72-2.68l-2-.2c-3.76-.4-5.72-2.28-5.72-5.4,0-3.64,2.6-5.84,7.12-5.84a11.46,11.46,0,0,1,6.8,2.12.39.39,0,0,1,.08.56l-1.36,1.72a.39.39,0,0,1-.56.08,10.09,10.09,0,0,0-5.16-1.56c-2.4,0-3.64,1.08-3.64,2.64s.92,2.32,3.76,2.6l2,.2c3.88.36,5.76,2.32,5.76,5.4,0,3.76-2.72,6.28-7.72,6.28A11.91,11.91,0,0,1,155.08,177.56Z"/><path d="M183.48,175.24a15,15,0,0,1-.64-4.84,14.86,14.86,0,0,1,.6-4.84c1.08-3.32,3.88-5.16,7.52-5.16a7.42,7.42,0,0,1,7.52,5.16,16.72,16.72,0,0,1,.6,5.48.39.39,0,0,1-.44.4H186.52a.21.21,0,0,0-.24.24,7.18,7.18,0,0,0,.32,2.32,4.73,4.73,0,0,0,4.84,3.32,6.26,6.26,0,0,0,4.92-2.12.41.41,0,0,1,.6-.08l1.64,1.48a.36.36,0,0,1,0,.56,9.32,9.32,0,0,1-7.48,3.28C187.28,180.44,184.52,178.56,183.48,175.24Zm11.92-6.48a.21.21,0,0,0,.24-.24,6.74,6.74,0,0,0-.28-2.16,4.73,4.73,0,0,0-8.8,0,6.74,6.74,0,0,0-.28,2.16.21.21,0,0,0,.24.24Z"/><path d="M216.11,180a.38.38,0,0,1-.4-.4V168.4c0-3.08-1.4-4.88-4.27-4.88-2.6,0-4.4,1.84-4.4,4.68v11.4a.38.38,0,0,1-.4.4h-2.56a.38.38,0,0,1-.4-.4V161.24a.38.38,0,0,1,.4-.4h2.56a.38.38,0,0,1,.4.4V163h0a6.06,6.06,0,0,1,5.36-2.6c4.15,0,6.63,2.84,6.63,7.2v12a.38.38,0,0,1-.4.4Z"/><path d="M233.76,156.52a.38.38,0,0,1-.4-.4V153.2a.38.38,0,0,1,.4-.4h2.72a.38.38,0,0,1,.4.4v2.92a.38.38,0,0,1-.4.4Zm.08,23.48a.38.38,0,0,1-.4-.4V161.24a.38.38,0,0,1,.4-.4h2.56a.38.38,0,0,1,.4.4V179.6a.38.38,0,0,1-.4.4Z"/><path d="M255,180a.38.38,0,0,1-.4-.4V168.4c0-3.08-1.4-4.88-4.28-4.88-2.6,0-4.39,1.84-4.39,4.68v11.4a.38.38,0,0,1-.4.4H243a.38.38,0,0,1-.4-.4V161.24a.38.38,0,0,1,.4-.4h2.56a.38.38,0,0,1,.4.4V163h0a6,6,0,0,1,5.35-2.6c4.16,0,6.64,2.84,6.64,7.2v12a.38.38,0,0,1-.4.4Z"/><path d="M262.2,177.56a.39.39,0,0,1,0-.56l1.64-1.76a.39.39,0,0,1,.56,0,9.3,9.3,0,0,0,5.91,2.2c2.8,0,4.2-1.2,4.2-2.92,0-1.52-.72-2.36-3.72-2.68l-2-.2c-3.75-.4-5.71-2.28-5.71-5.4,0-3.64,2.6-5.84,7.11-5.84a11.46,11.46,0,0,1,6.8,2.12.39.39,0,0,1,.08.56l-1.36,1.72a.39.39,0,0,1-.56.08,10.09,10.09,0,0,0-5.16-1.56c-2.39,0-3.63,1.08-3.63,2.64s.92,2.32,3.75,2.6l2,.2c3.88.36,5.76,2.32,5.76,5.4,0,3.76-2.72,6.28-7.72,6.28A11.9,11.9,0,0,1,262.2,177.56Z"/><path d="M287.87,180.2c-3.72,0-5.16-1.68-5.16-5.44v-11c0-.16-.07-.24-.23-.24h-1.6a.38.38,0,0,1-.4-.4v-1.92a.38.38,0,0,1,.4-.4h1.6c.16,0,.23-.08.23-.24v-5.4a.38.38,0,0,1,.4-.4h2.56a.38.38,0,0,1,.4.4v5.4a.21.21,0,0,0,.24.24h3a.38.38,0,0,1,.4.4v1.92a.38.38,0,0,1-.4.4h-3a.21.21,0,0,0-.24.24v10.84c0,1.92.72,2.44,2.44,2.44h.84a.38.38,0,0,1,.4.4v2.32a.38.38,0,0,1-.4.4Z"/><path d="M305.75,180a.38.38,0,0,1-.4-.4v-1.68h0c-.88,1.44-2.76,2.52-5.68,2.52-3.64,0-6.43-1.88-6.43-5.76,0-4,2.79-5.92,7.47-5.92H305a.21.21,0,0,0,.24-.24v-1.4c0-2.64-1-3.76-4.6-3.76a7.45,7.45,0,0,0-4.64,1.36c-.2.16-.44.16-.56,0l-1.07-1.84a.4.4,0,0,1,.08-.56A10.57,10.57,0,0,1,301,160.4c5.44,0,7.52,1.8,7.52,6.52V179.6a.38.38,0,0,1-.4.4Zm-.48-6.2v-2.12a.21.21,0,0,0-.24-.24h-3.84c-3.32,0-4.76,1-4.76,3.12,0,2,1.44,3,4,3C303.43,177.56,305.27,176.16,305.27,173.8Z"/><path d="M318.71,180.2c-3.36,0-4.67-1.6-4.67-5v-22a.37.37,0,0,1,.4-.4H317a.38.38,0,0,1,.4.4V175c0,1.6.6,2.12,1.92,2.12h.76a.38.38,0,0,1,.4.4v2.32a.38.38,0,0,1-.4.4Z"/><path d="M336,180a.38.38,0,0,1-.4-.4v-1.68h0c-.88,1.44-2.76,2.52-5.68,2.52-3.64,0-6.44-1.88-6.44-5.76,0-4,2.8-5.92,7.48-5.92h4.36a.21.21,0,0,0,.24-.24v-1.4c0-2.64-1-3.76-4.6-3.76a7.45,7.45,0,0,0-4.64,1.36c-.2.16-.44.16-.56,0l-1.08-1.84a.42.42,0,0,1,.08-.56,10.63,10.63,0,0,1,6.52-1.88c5.44,0,7.52,1.8,7.52,6.52V179.6a.38.38,0,0,1-.4.4Zm-.48-6.2v-2.12a.21.21,0,0,0-.24-.24h-3.84c-3.32,0-4.76,1-4.76,3.12,0,2,1.44,3,4,3C333.67,177.56,335.51,176.16,335.51,173.8Z"/><path d="M343.79,165.56c1.08-3.32,3.88-5.16,7.56-5.16a7.68,7.68,0,0,1,6.56,3.24c.12.2.12.36-.12.56L356,165.64a.36.36,0,0,1-.56,0,4.71,4.71,0,0,0-4.12-2.08,4.16,4.16,0,0,0-4.28,3,17.5,17.5,0,0,0,0,7.8,4.16,4.16,0,0,0,4.28,3,4.71,4.71,0,0,0,4.12-2.08.36.36,0,0,1,.56,0l1.76,1.44c.24.2.24.36.12.56a7.68,7.68,0,0,1-6.56,3.24c-3.68,0-6.48-1.84-7.56-5.16a20,20,0,0,1,0-9.72Z"/><path d="M362.75,156.52a.38.38,0,0,1-.4-.4V153.2a.38.38,0,0,1,.4-.4h2.72a.38.38,0,0,1,.4.4v2.92a.38.38,0,0,1-.4.4Zm.08,23.48a.38.38,0,0,1-.4-.4V161.24a.38.38,0,0,1,.4-.4h2.56a.38.38,0,0,1,.4.4V179.6a.38.38,0,0,1-.4.4Z"/><path d="M371,175.28a18.77,18.77,0,0,1,0-9.72c1-3.28,3.84-5.16,7.56-5.16s6.52,1.88,7.56,5.16a18.77,18.77,0,0,1,0,9.72c-1,3.24-3.84,5.16-7.56,5.16S372.07,178.52,371,175.28Zm11.88-1a12.55,12.55,0,0,0,.44-3.92,12.27,12.27,0,0,0-.44-3.88,4.61,4.61,0,0,0-8.64,0,12.27,12.27,0,0,0-.44,3.88,12.55,12.55,0,0,0,.44,3.92,4.61,4.61,0,0,0,8.64,0Z"/><path d="M403.83,180a.38.38,0,0,1-.4-.4V168.4c0-3.08-1.4-4.88-4.28-4.88-2.6,0-4.4,1.84-4.4,4.68v11.4a.38.38,0,0,1-.4.4h-2.56a.38.38,0,0,1-.4-.4V161.24a.38.38,0,0,1,.4-.4h2.56a.38.38,0,0,1,.4.4V163h0a6.06,6.06,0,0,1,5.36-2.6c4.16,0,6.64,2.84,6.64,7.2v12a.38.38,0,0,1-.4.4Z"/><path d="M411.87,176.16a.38.38,0,0,1,.4-.4h3a.38.38,0,0,1,.4.4v3.44a.38.38,0,0,1-.4.4h-3a.38.38,0,0,1-.4-.4Z"/></g></g></svg>