<svg xmlns="http://www.w3.org/2000/svg" viewBox="0 0 455.77 408.23"><defs><style>.cls-1{font-size:40px;font-family:DINNextLTPro-Medium, DIN Next LT Pro;font-weight:500;letter-spacing:-0.02em;}.cls-2{letter-spacing:-0.03em;}.cls-3{letter-spacing:-0.02em;}.cls-4{letter-spacing:-0.04em;}.cls-5{letter-spacing:-0.05em;}.cls-6{letter-spacing:-0.08em;}.cls-7{letter-spacing:-0.04em;}.cls-8{letter-spacing:-0.03em;}.cls-9{letter-spacing:-0.02em;}.cls-10{letter-spacing:-0.03em;}.cls-11{letter-spacing:-0.04em;}.cls-12{letter-spacing:-0.03em;}</style></defs><title>r7</title><g id="Capa_2" data-name="Capa 2"><g id="fondo"><text class="cls-1" transform="translate(38.93 33.6)">Este siemp<tspan class="cls-2" x="184.44" y="0">r</tspan><tspan class="cls-3" x="200.16" y="0">e atento al </tspan><tspan x="-25.7" y="38">estado de pisos</tspan><tspan class="cls-4" x="233.94" y="38">,</tspan><tspan class="cls-5" x="242.22" y="38"> </tspan><tspan class="cls-6" x="249.74" y="38">V</tspan><tspan class="cls-3" x="269.29" y="38">erifique </tspan><tspan x="-21.56" y="76">las condiciones del suelo </tspan><tspan x="-9.38" y="114">(Huecos</tspan><tspan class="cls-4" x="125.46" y="114">,</tspan><tspan class="cls-3" x="133.74" y="114" xml:space="preserve"> maleza</tspan><tspan class="cls-7" x="265.02" y="114">,</tspan><tspan x="273.3" y="114" xml:space="preserve"> bar</tspan><tspan class="cls-8" x="339.17" y="114">r</tspan><tspan class="cls-3" x="354.89" y="114">o</tspan><tspan class="cls-4" x="375.01" y="114">,</tspan><tspan class="cls-9" x="383.29" y="114"> </tspan><tspan x="-15.44" y="152">ruinas</tspan><tspan class="cls-7" x="91.52" y="152">,</tspan><tspan x="99.8" y="152" xml:space="preserve"> ent</tspan><tspan class="cls-10" x="161.64" y="152">r</tspan><tspan x="177.36" y="152">e ot</tspan><tspan class="cls-10" x="238.2" y="152">r</tspan><tspan x="253.91" y="152">os) pa</tspan><tspan class="cls-11" x="353.83" y="152">r</tspan><tspan x="369.23" y="152">a </tspan><tspan x="-34.28" y="190">evitar incidentes</tspan><tspan class="cls-4" x="242.56" y="190">,</tspan><tspan class="cls-3" x="250.84" y="190"> </tspan><tspan class="cls-12" x="259.48" y="190">v</tspan><tspan x="277.87" y="190">erifique </tspan><tspan x="-11.72" y="228">siemp</tspan><tspan class="cls-2" x="90.88" y="228">r</tspan><tspan class="cls-3" x="106.6" y="228">e el estado de su </tspan><tspan class="cls-11"><tspan x="-4.22" y="266">c</tspan><tspan class="cls-3" x="13.26" y="266">alzado de seguridad y </tspan></tspan><tspan x="5.56" y="304">solicite </tspan><tspan class="cls-11" x="133.6" y="304">c</tspan><tspan x="151.08" y="304">ambio de ser </tspan><tspan x="100.5" y="342">necesario</tspan><tspan class="cls-4" x="264.9" y="342">.</tspan></text></g></g></svg>