<svg xmlns="http://www.w3.org/2000/svg" viewBox="0 0 430.67 369.64"><title>r7</title><g id="Capa_2" data-name="Capa 2"><g id="fondo"><path d="M34,.4a.38.38,0,0,1,.4-.4H50.72a.38.38,0,0,1,.4.4V2.92a.38.38,0,0,1-.4.4h-13a.21.21,0,0,0-.24.24v8a.21.21,0,0,0,.24.24h11a.38.38,0,0,1,.4.4v2.52a.38.38,0,0,1-.4.4h-11a.21.21,0,0,0-.24.24v8.28a.21.21,0,0,0,.24.24h13a.38.38,0,0,1,.4.4V26.8a.38.38,0,0,1-.4.4H34.36a.38.38,0,0,1-.4-.4Z"/><path d="M54.28,24.76a.39.39,0,0,1,0-.56l1.64-1.76a.39.39,0,0,1,.56,0,9.31,9.31,0,0,0,5.92,2.2c2.8,0,4.2-1.2,4.2-2.92,0-1.52-.72-2.36-3.72-2.68l-2-.2c-3.76-.4-5.72-2.28-5.72-5.4,0-3.64,2.6-5.84,7.12-5.84A11.46,11.46,0,0,1,69,9.72a.39.39,0,0,1,.08.56L67.76,12a.39.39,0,0,1-.56.08A10.09,10.09,0,0,0,62,10.52c-2.4,0-3.64,1.08-3.64,2.64s.92,2.32,3.76,2.6l2,.2c3.88.36,5.76,2.32,5.76,5.4,0,3.76-2.72,6.28-7.72,6.28A11.91,11.91,0,0,1,54.28,24.76Z"/><path d="M80,27.4c-3.72,0-5.16-1.68-5.16-5.44V11a.21.21,0,0,0-.24-.24H73a.38.38,0,0,1-.4-.4V8.44A.38.38,0,0,1,73,8h1.6a.21.21,0,0,0,.24-.24V2.4a.38.38,0,0,1,.4-.4h2.56a.38.38,0,0,1,.4.4V7.8A.21.21,0,0,0,78.4,8h3a.38.38,0,0,1,.4.4v1.92a.38.38,0,0,1-.4.4h-3a.21.21,0,0,0-.24.24V21.84c0,1.92.72,2.44,2.44,2.44h.84a.38.38,0,0,1,.4.4V27a.38.38,0,0,1-.4.4Z"/><path d="M85.72,22.44a15,15,0,0,1-.64-4.84,14.86,14.86,0,0,1,.6-4.84C86.76,9.44,89.56,7.6,93.2,7.6a7.41,7.41,0,0,1,7.51,5.16,16.72,16.72,0,0,1,.6,5.48.39.39,0,0,1-.44.4H88.76a.21.21,0,0,0-.24.24,7.18,7.18,0,0,0,.32,2.32,4.73,4.73,0,0,0,4.84,3.32,6.22,6.22,0,0,0,4.91-2.12.41.41,0,0,1,.6-.08l1.64,1.48a.36.36,0,0,1,0,.56,9.29,9.29,0,0,1-7.47,3.28C89.52,27.64,86.76,25.76,85.72,22.44ZM97.64,16a.22.22,0,0,0,.24-.24,7,7,0,0,0-.28-2.16,4.73,4.73,0,0,0-8.8,0,6.74,6.74,0,0,0-.28,2.16.21.21,0,0,0,.24.24Z"/><path d="M113.4,24.76a.39.39,0,0,1,0-.56L115,22.44a.39.39,0,0,1,.56,0,9.31,9.31,0,0,0,5.92,2.2c2.79,0,4.19-1.2,4.19-2.92,0-1.52-.72-2.36-3.71-2.68l-2-.2c-3.76-.4-5.72-2.28-5.72-5.4,0-3.64,2.6-5.84,7.12-5.84a11.45,11.45,0,0,1,6.79,2.12.39.39,0,0,1,.08.56L126.87,12a.39.39,0,0,1-.56.08,10,10,0,0,0-5.15-1.56c-2.4,0-3.64,1.08-3.64,2.64s.92,2.32,3.76,2.6l2,.2c3.88.36,5.76,2.32,5.76,5.4,0,3.76-2.72,6.28-7.71,6.28A11.91,11.91,0,0,1,113.4,24.76Z"/><path d="M133.84,3.72a.38.38,0,0,1-.4-.4V.4a.38.38,0,0,1,.4-.4h2.72a.38.38,0,0,1,.4.4V3.32a.38.38,0,0,1-.4.4Zm.08,23.48a.38.38,0,0,1-.4-.4V8.44a.38.38,0,0,1,.4-.4h2.56a.38.38,0,0,1,.4.4V26.8a.38.38,0,0,1-.4.4Z"/><path d="M142.12,22.44a15,15,0,0,1-.64-4.84,14.86,14.86,0,0,1,.6-4.84c1.08-3.32,3.88-5.16,7.51-5.16a7.42,7.42,0,0,1,7.52,5.16,16.72,16.72,0,0,1,.6,5.48.39.39,0,0,1-.44.4H145.15a.21.21,0,0,0-.23.24,7.51,7.51,0,0,0,.31,2.32,4.73,4.73,0,0,0,4.84,3.32A6.26,6.26,0,0,0,155,22.4a.41.41,0,0,1,.6-.08l1.64,1.48a.36.36,0,0,1,0,.56,9.32,9.32,0,0,1-7.48,3.28C145.92,27.64,143.16,25.76,142.12,22.44ZM154,16a.21.21,0,0,0,.24-.24,6.74,6.74,0,0,0-.28-2.16,4.73,4.73,0,0,0-8.8,0,7.06,7.06,0,0,0-.27,2.16.21.21,0,0,0,.23.24Z"/><path d="M186.79,27.2a.38.38,0,0,1-.4-.4V15.6c0-3.08-1.4-4.88-4.28-4.88a4.32,4.32,0,0,0-4.4,4.68V26.8a.38.38,0,0,1-.4.4h-2.56a.38.38,0,0,1-.4-.4V15.6c0-3.08-1.4-4.88-4.28-4.88-2.6,0-4.4,1.84-4.4,4.68V26.8a.37.37,0,0,1-.4.4h-2.55a.38.38,0,0,1-.4-.4V8.44a.38.38,0,0,1,.4-.4h2.55a.37.37,0,0,1,.4.4V10.2h0a6.77,6.77,0,0,1,11,.4h0a7.13,7.13,0,0,1,6.2-3c4.44,0,6.84,2.84,6.84,7.2v12a.38.38,0,0,1-.4.4Z"/><path d="M195.71,34.39a.38.38,0,0,1-.4-.4V8.44a.38.38,0,0,1,.4-.4h2.56a.38.38,0,0,1,.4.4v1.8h0c.92-1.52,2.56-2.64,5.44-2.64,3.32,0,5.64,1.56,6.6,4.6a15.84,15.84,0,0,1,.68,5.4,16,16,0,0,1-.68,5.44c-1,3-3.28,4.6-6.6,4.6-2.88,0-4.52-1.16-5.44-2.68h0v9a.38.38,0,0,1-.4.4ZM207.55,21.6a13.29,13.29,0,0,0,.44-4,13.63,13.63,0,0,0-.44-4,4.53,4.53,0,0,0-8.44,0,12.47,12.47,0,0,0-.44,4,12.31,12.31,0,0,0,.44,4,4.51,4.51,0,0,0,8.44,0Z"/><path d="M216.43,27.2a.38.38,0,0,1-.4-.4V8.44a.38.38,0,0,1,.4-.4H219a.38.38,0,0,1,.4.4v2h0a5.34,5.34,0,0,1,5.08-2.8A5.89,5.89,0,0,1,228.43,9c.2.2.24.36.08.56l-1.48,2a.36.36,0,0,1-.56.08,5.4,5.4,0,0,0-3-.92c-2.92,0-4.12,2.28-4.12,5.6V26.8a.38.38,0,0,1-.4.4Z"/><path d="M230.4,22.44a14.7,14.7,0,0,1-.65-4.84,15.14,15.14,0,0,1,.6-4.84c1.08-3.32,3.88-5.16,7.52-5.16a7.42,7.42,0,0,1,7.52,5.16,16.72,16.72,0,0,1,.6,5.48.39.39,0,0,1-.44.4H233.43a.21.21,0,0,0-.24.24,7.18,7.18,0,0,0,.32,2.32,4.73,4.73,0,0,0,4.84,3.32,6.26,6.26,0,0,0,4.92-2.12.41.41,0,0,1,.6-.08l1.64,1.48a.36.36,0,0,1,0,.56,9.32,9.32,0,0,1-7.48,3.28C234.19,27.64,231.43,25.76,230.4,22.44ZM242.31,16a.21.21,0,0,0,.24-.24,6.74,6.74,0,0,0-.28-2.16,4.73,4.73,0,0,0-8.8,0,6.74,6.74,0,0,0-.28,2.16.21.21,0,0,0,.24.24Z"/><path d="M271,27.2a.38.38,0,0,1-.4-.4V25.12h0c-.88,1.44-2.76,2.52-5.68,2.52-3.64,0-6.44-1.88-6.44-5.76,0-4,2.8-5.92,7.48-5.92h4.36a.21.21,0,0,0,.24-.24v-1.4c0-2.64-1-3.76-4.6-3.76a7.45,7.45,0,0,0-4.64,1.36c-.2.16-.44.16-.56,0L259.63,10a.42.42,0,0,1,.08-.56,10.63,10.63,0,0,1,6.52-1.88c5.44,0,7.52,1.8,7.52,6.52V26.8a.38.38,0,0,1-.4.4Zm-.48-6.2V18.88a.21.21,0,0,0-.24-.24h-3.84c-3.32,0-4.76,1-4.76,3.12,0,2,1.44,3,4,3C268.67,24.76,270.51,23.36,270.51,21Z"/><path d="M284.91,27.4c-3.72,0-5.16-1.68-5.16-5.44V11a.21.21,0,0,0-.24-.24h-1.6a.38.38,0,0,1-.4-.4V8.44a.38.38,0,0,1,.4-.4h1.6a.21.21,0,0,0,.24-.24V2.4a.38.38,0,0,1,.4-.4h2.56a.38.38,0,0,1,.4.4V7.8a.21.21,0,0,0,.24.24h3a.38.38,0,0,1,.4.4v1.92a.38.38,0,0,1-.4.4h-3a.21.21,0,0,0-.24.24V21.84c0,1.92.72,2.44,2.44,2.44h.84a.38.38,0,0,1,.4.4V27a.38.38,0,0,1-.4.4Z"/><path d="M290.67,22.44A15,15,0,0,1,290,17.6a14.86,14.86,0,0,1,.6-4.84c1.08-3.32,3.88-5.16,7.52-5.16a7.42,7.42,0,0,1,7.52,5.16,16.72,16.72,0,0,1,.6,5.48.39.39,0,0,1-.44.4H293.71a.21.21,0,0,0-.24.24,7.18,7.18,0,0,0,.32,2.32,4.73,4.73,0,0,0,4.84,3.32,6.26,6.26,0,0,0,4.92-2.12.41.41,0,0,1,.6-.08l1.64,1.48a.36.36,0,0,1,0,.56,9.32,9.32,0,0,1-7.48,3.28C294.47,27.64,291.71,25.76,290.67,22.44ZM302.59,16a.21.21,0,0,0,.24-.24,6.74,6.74,0,0,0-.28-2.16,4.73,4.73,0,0,0-8.8,0,6.74,6.74,0,0,0-.28,2.16.21.21,0,0,0,.24.24Z"/><path d="M323.31,27.2a.38.38,0,0,1-.4-.4V15.6c0-3.08-1.4-4.88-4.28-4.88-2.6,0-4.4,1.84-4.4,4.68V26.8a.38.38,0,0,1-.4.4h-2.56a.38.38,0,0,1-.4-.4V8.44a.38.38,0,0,1,.4-.4h2.56a.38.38,0,0,1,.4.4V10.2h0a6.06,6.06,0,0,1,5.36-2.6c4.16,0,6.64,2.84,6.64,7.2v12a.38.38,0,0,1-.4.4Z"/><path d="M337.39,27.4c-3.72,0-5.16-1.68-5.16-5.44V11a.21.21,0,0,0-.24-.24h-1.6a.38.38,0,0,1-.4-.4V8.44a.38.38,0,0,1,.4-.4H332a.21.21,0,0,0,.24-.24V2.4a.38.38,0,0,1,.4-.4h2.56a.38.38,0,0,1,.4.4V7.8a.21.21,0,0,0,.24.24h3a.38.38,0,0,1,.4.4v1.92a.38.38,0,0,1-.4.4h-3a.21.21,0,0,0-.24.24V21.84c0,1.92.72,2.44,2.44,2.44h.84a.38.38,0,0,1,.4.4V27a.38.38,0,0,1-.4.4Z"/><path d="M343.15,22.48a14.39,14.39,0,0,1-.64-4.88,14.29,14.29,0,0,1,.64-4.84c1-3.28,3.84-5.16,7.56-5.16s6.52,1.88,7.56,5.16a14.29,14.29,0,0,1,.64,4.84,14.39,14.39,0,0,1-.64,4.88c-1,3.24-3.84,5.16-7.56,5.16S344.19,25.72,343.15,22.48Zm11.88-1a12.55,12.55,0,0,0,.44-3.92,12.27,12.27,0,0,0-.44-3.88,4.61,4.61,0,0,0-8.64,0A12.27,12.27,0,0,0,346,17.6a12.55,12.55,0,0,0,.44,3.92,4.61,4.61,0,0,0,8.64,0Z"/><path d="M383.91,27.2a.38.38,0,0,1-.4-.4V25.12h0c-.88,1.44-2.76,2.52-5.68,2.52-3.64,0-6.44-1.88-6.44-5.76,0-4,2.8-5.92,7.48-5.92h4.36a.21.21,0,0,0,.24-.24v-1.4c0-2.64-1-3.76-4.6-3.76a7.45,7.45,0,0,0-4.64,1.36c-.2.16-.44.16-.56,0L372.55,10a.42.42,0,0,1,.08-.56,10.63,10.63,0,0,1,6.52-1.88c5.44,0,7.52,1.8,7.52,6.52V26.8a.38.38,0,0,1-.4.4Zm-.48-6.2V18.88a.21.21,0,0,0-.24-.24h-3.84c-3.32,0-4.76,1-4.76,3.12,0,2,1.44,3,4,3C381.59,24.76,383.43,23.36,383.43,21Z"/><path d="M396.87,27.4c-3.36,0-4.68-1.6-4.68-5V.4a.38.38,0,0,1,.4-.4h2.56a.38.38,0,0,1,.4.4V22.16c0,1.6.6,2.12,1.92,2.12h.76a.38.38,0,0,1,.4.4V27a.38.38,0,0,1-.4.4Z"/><path d="M8.48,60.44a15,15,0,0,1-.64-4.84,14.86,14.86,0,0,1,.6-4.84C9.52,47.44,12.32,45.6,16,45.6a7.42,7.42,0,0,1,7.52,5.16,16.72,16.72,0,0,1,.6,5.48.39.39,0,0,1-.44.4H11.52a.21.21,0,0,0-.24.24,7.18,7.18,0,0,0,.32,2.32,4.73,4.73,0,0,0,4.84,3.32,6.26,6.26,0,0,0,4.92-2.12.41.41,0,0,1,.6-.08L23.6,61.8a.36.36,0,0,1,0,.56,9.32,9.32,0,0,1-7.48,3.28C12.28,65.64,9.52,63.76,8.48,60.44ZM20.4,54a.21.21,0,0,0,.24-.24,6.74,6.74,0,0,0-.28-2.16,4.33,4.33,0,0,0-4.4-3,4.33,4.33,0,0,0-4.4,3,6.74,6.74,0,0,0-.28,2.16.21.21,0,0,0,.24.24Z"/><path d="M27.36,62.76a.39.39,0,0,1,0-.56L29,60.44a.39.39,0,0,1,.56,0,9.31,9.31,0,0,0,5.92,2.2c2.8,0,4.2-1.2,4.2-2.92C39.68,58.2,39,57.36,36,57l-2-.2c-3.76-.4-5.72-2.28-5.72-5.4,0-3.64,2.6-5.84,7.12-5.84a11.46,11.46,0,0,1,6.8,2.12.39.39,0,0,1,.08.56L40.84,50a.39.39,0,0,1-.56.08,10.09,10.09,0,0,0-5.16-1.56c-2.4,0-3.64,1.08-3.64,2.64s.92,2.32,3.76,2.6l2,.2c3.88.36,5.76,2.32,5.76,5.4,0,3.76-2.72,6.28-7.72,6.28A11.91,11.91,0,0,1,27.36,62.76Z"/><path d="M53,65.4c-3.72,0-5.16-1.68-5.16-5.44V49a.21.21,0,0,0-.24-.24H46a.38.38,0,0,1-.4-.4V46.44A.38.38,0,0,1,46,46h1.6a.21.21,0,0,0,.24-.24V40.4a.38.38,0,0,1,.4-.4h2.56a.38.38,0,0,1,.4.4v5.4a.21.21,0,0,0,.24.24h3a.38.38,0,0,1,.4.4v1.92a.38.38,0,0,1-.4.4h-3a.21.21,0,0,0-.24.24V59.84c0,1.92.72,2.44,2.44,2.44h.84a.38.38,0,0,1,.4.4V65a.38.38,0,0,1-.4.4Z"/><path d="M70.92,65.2a.38.38,0,0,1-.4-.4V63.12h0c-.88,1.44-2.76,2.52-5.68,2.52-3.64,0-6.44-1.88-6.44-5.76,0-4,2.8-5.92,7.48-5.92H70.2a.21.21,0,0,0,.24-.24v-1.4c0-2.64-1-3.76-4.6-3.76a7.45,7.45,0,0,0-4.64,1.36c-.2.16-.44.16-.56,0L59.56,48a.42.42,0,0,1,.08-.56,10.63,10.63,0,0,1,6.52-1.88c5.44,0,7.52,1.8,7.52,6.52V64.8a.38.38,0,0,1-.4.4ZM70.44,59V56.88a.21.21,0,0,0-.24-.24H66.36c-3.32,0-4.76,1-4.76,3.12,0,2,1.44,3,4,3C68.6,62.76,70.44,61.36,70.44,59Z"/><path d="M91.27,65.2a.38.38,0,0,1-.39-.4V63h0c-.91,1.52-2.55,2.68-5.43,2.68-3.32,0-5.64-1.56-6.6-4.6a16,16,0,0,1-.68-5.44,15.84,15.84,0,0,1,.68-5.4c1-3,3.28-4.6,6.6-4.6,2.88,0,4.52,1.12,5.43,2.64h0V38.4a.38.38,0,0,1,.39-.4h2.56a.38.38,0,0,1,.4.4V64.8a.38.38,0,0,1-.4.4Zm-.83-5.6a12.6,12.6,0,0,0,.44-4,12.76,12.76,0,0,0-.44-4,4.53,4.53,0,0,0-8.44,0,13.63,13.63,0,0,0-.44,4,13.29,13.29,0,0,0,.44,4,4.51,4.51,0,0,0,8.44,0Z"/><path d="M99.48,60.48a14.39,14.39,0,0,1-.64-4.88,14.29,14.29,0,0,1,.64-4.84c1-3.28,3.84-5.16,7.56-5.16s6.51,1.88,7.55,5.16a14.29,14.29,0,0,1,.64,4.84,14.39,14.39,0,0,1-.64,4.88c-1,3.24-3.84,5.16-7.55,5.16S100.52,63.72,99.48,60.48Zm11.87-1a12.55,12.55,0,0,0,.44-3.92,12.27,12.27,0,0,0-.44-3.88,4.6,4.6,0,0,0-8.63,0,12.27,12.27,0,0,0-.44,3.88,12.55,12.55,0,0,0,.44,3.92,4.6,4.6,0,0,0,8.63,0Z"/><path d="M140.63,65.2a.38.38,0,0,1-.4-.4V63h0c-.92,1.52-2.56,2.68-5.44,2.68-3.31,0-5.63-1.56-6.59-4.6a16,16,0,0,1-.68-5.44,15.84,15.84,0,0,1,.68-5.4c1-3,3.28-4.6,6.59-4.6,2.88,0,4.52,1.12,5.44,2.64h0V38.4a.38.38,0,0,1,.4-.4h2.56a.38.38,0,0,1,.4.4V64.8a.38.38,0,0,1-.4.4Zm-.84-5.6a12.31,12.31,0,0,0,.44-4,12.47,12.47,0,0,0-.44-4,4.52,4.52,0,0,0-8.43,0,13.63,13.63,0,0,0-.44,4,13.29,13.29,0,0,0,.44,4,4.5,4.5,0,0,0,8.43,0Z"/><path d="M148.84,60.44a15,15,0,0,1-.64-4.84,14.86,14.86,0,0,1,.6-4.84c1.08-3.32,3.88-5.16,7.51-5.16a7.42,7.42,0,0,1,7.52,5.16,16.72,16.72,0,0,1,.6,5.48.39.39,0,0,1-.44.4H151.88a.21.21,0,0,0-.24.24A7.18,7.18,0,0,0,152,59.2a4.71,4.71,0,0,0,4.83,3.32,6.26,6.26,0,0,0,4.92-2.12.41.41,0,0,1,.6-.08L164,61.8a.36.36,0,0,1,0,.56,9.32,9.32,0,0,1-7.48,3.28C152.64,65.64,149.88,63.76,148.84,60.44ZM160.75,54a.21.21,0,0,0,.24-.24,6.74,6.74,0,0,0-.28-2.16,4.72,4.72,0,0,0-8.79,0,6.74,6.74,0,0,0-.28,2.16.21.21,0,0,0,.24.24Z"/><path d="M178.23,72.39a.38.38,0,0,1-.4-.4V46.44a.38.38,0,0,1,.4-.4h2.56a.38.38,0,0,1,.4.4v1.8h0c.92-1.52,2.56-2.64,5.44-2.64,3.32,0,5.64,1.56,6.6,4.6a15.84,15.84,0,0,1,.68,5.4,16,16,0,0,1-.68,5.44c-1,3-3.28,4.6-6.6,4.6-2.88,0-4.52-1.16-5.44-2.68h0v9a.38.38,0,0,1-.4.4ZM190.07,59.6a13.29,13.29,0,0,0,.44-4,13.63,13.63,0,0,0-.44-4,4.53,4.53,0,0,0-8.44,0,12.47,12.47,0,0,0-.44,4,12.31,12.31,0,0,0,.44,4,4.51,4.51,0,0,0,8.44,0Z"/><path d="M198.87,41.72a.38.38,0,0,1-.4-.4V38.4a.38.38,0,0,1,.4-.4h2.72a.38.38,0,0,1,.4.4v2.92a.38.38,0,0,1-.4.4ZM199,65.2a.38.38,0,0,1-.4-.4V46.44a.38.38,0,0,1,.4-.4h2.56a.38.38,0,0,1,.4.4V64.8a.38.38,0,0,1-.4.4Z"/><path d="M206.35,62.76a.39.39,0,0,1,0-.56L208,60.44a.39.39,0,0,1,.56,0,9.31,9.31,0,0,0,5.92,2.2c2.8,0,4.2-1.2,4.2-2.92,0-1.52-.72-2.36-3.72-2.68l-2-.2c-3.76-.4-5.72-2.28-5.72-5.4,0-3.64,2.6-5.84,7.12-5.84a11.46,11.46,0,0,1,6.8,2.12.39.39,0,0,1,.08.56L219.83,50a.39.39,0,0,1-.56.08,10.09,10.09,0,0,0-5.16-1.56c-2.4,0-3.64,1.08-3.64,2.64s.92,2.32,3.76,2.6l2,.2c3.88.36,5.76,2.32,5.76,5.4,0,3.76-2.72,6.28-7.72,6.28A11.91,11.91,0,0,1,206.35,62.76Z"/><path d="M226,60.48a14.39,14.39,0,0,1-.64-4.88,14.29,14.29,0,0,1,.64-4.84c1-3.28,3.84-5.16,7.56-5.16s6.52,1.88,7.56,5.16a14.29,14.29,0,0,1,.64,4.84,14.39,14.39,0,0,1-.64,4.88c-1,3.24-3.84,5.16-7.56,5.16S227,63.72,226,60.48Zm11.88-1a12.55,12.55,0,0,0,.44-3.92,12.27,12.27,0,0,0-.44-3.88,4.61,4.61,0,0,0-8.64,0,12.27,12.27,0,0,0-.44,3.88,12.55,12.55,0,0,0,.44,3.92,4.61,4.61,0,0,0,8.64,0Z"/><path d="M245,62.76a.39.39,0,0,1,0-.56l1.64-1.76a.39.39,0,0,1,.56,0,9.31,9.31,0,0,0,5.92,2.2c2.8,0,4.2-1.2,4.2-2.92,0-1.52-.72-2.36-3.72-2.68l-2-.2c-3.76-.4-5.72-2.28-5.72-5.4,0-3.64,2.6-5.84,7.12-5.84a11.46,11.46,0,0,1,6.8,2.12.39.39,0,0,1,.08.56L258.47,50a.39.39,0,0,1-.56.08,10.09,10.09,0,0,0-5.16-1.56c-2.4,0-3.64,1.08-3.64,2.64s.92,2.32,3.76,2.6l2,.2c3.88.36,5.76,2.32,5.76,5.4,0,3.76-2.72,6.28-7.72,6.28A11.91,11.91,0,0,1,245,62.76Z"/><path d="M265,61h2.8a.38.38,0,0,1,.4.4v3.72A1.27,1.27,0,0,1,268,66l-2.48,3.27a.63.63,0,0,1-.52.28.36.36,0,0,1-.36-.36V61.36A.38.38,0,0,1,265,61Z"/><path d="M287.19,65.2a.51.51,0,0,1-.48-.4l-8.8-26.32c-.12-.32,0-.48.28-.48h2.72a.5.5,0,0,1,.56.4l7,21h.08l6.72-21a.48.48,0,0,1,.52-.4h2.76c.24,0,.4.16.28.48L290,64.8a.51.51,0,0,1-.48.4Z"/><path d="M299.51,60.44a15,15,0,0,1-.64-4.84,14.86,14.86,0,0,1,.6-4.84c1.08-3.32,3.88-5.16,7.52-5.16a7.42,7.42,0,0,1,7.52,5.16,16.72,16.72,0,0,1,.6,5.48.39.39,0,0,1-.44.4H302.55a.21.21,0,0,0-.24.24,7.18,7.18,0,0,0,.32,2.32,4.73,4.73,0,0,0,4.84,3.32,6.26,6.26,0,0,0,4.92-2.12.41.41,0,0,1,.6-.08l1.64,1.48a.36.36,0,0,1,0,.56,9.32,9.32,0,0,1-7.48,3.28C303.31,65.64,300.55,63.76,299.51,60.44ZM311.43,54a.21.21,0,0,0,.24-.24,6.74,6.74,0,0,0-.28-2.16,4.73,4.73,0,0,0-8.8,0,6.74,6.74,0,0,0-.28,2.16.21.21,0,0,0,.24.24Z"/><path d="M320.11,65.2a.38.38,0,0,1-.4-.4V46.44a.38.38,0,0,1,.4-.4h2.56a.38.38,0,0,1,.4.4v2h0a5.34,5.34,0,0,1,5.08-2.8A5.89,5.89,0,0,1,332.11,47c.2.2.24.36.08.56l-1.48,2a.36.36,0,0,1-.56.08,5.4,5.4,0,0,0-3-.92c-2.92,0-4.12,2.28-4.12,5.6V64.8a.38.38,0,0,1-.4.4Z"/><path d="M335.63,41.72a.38.38,0,0,1-.4-.4V38.4a.38.38,0,0,1,.4-.4h2.72a.38.38,0,0,1,.4.4v2.92a.38.38,0,0,1-.4.4Zm.08,23.48a.38.38,0,0,1-.4-.4V46.44a.38.38,0,0,1,.4-.4h2.56a.38.38,0,0,1,.4.4V64.8a.38.38,0,0,1-.4.4Z"/><path d="M345.47,65.2a.38.38,0,0,1-.4-.4V49a.21.21,0,0,0-.24-.24h-1.64a.38.38,0,0,1-.4-.4V46.44a.38.38,0,0,1,.4-.4h1.64a.21.21,0,0,0,.24-.24V44.16c0-4.52,1.84-6.16,5.84-6.16h1.48a.38.38,0,0,1,.4.4v2.32a.38.38,0,0,1-.4.4h-1c-2.44,0-2.92.52-2.92,2.88v1.8a.21.21,0,0,0,.24.24h3.72a.38.38,0,0,1,.4.4v1.92a.38.38,0,0,1-.4.4h-3.72a.21.21,0,0,0-.24.24V64.8a.38.38,0,0,1-.4.4Zm12-23.48a.38.38,0,0,1-.4-.4V38.4a.38.38,0,0,1,.4-.4h2.72a.38.38,0,0,1,.4.4v2.92a.38.38,0,0,1-.4.4Zm.08,23.48a.38.38,0,0,1-.4-.4V46.44a.38.38,0,0,1,.4-.4h2.56a.38.38,0,0,1,.4.4V64.8a.38.38,0,0,1-.4.4Z"/><path d="M378.27,72.39a.38.38,0,0,1-.4-.4V63h0c-.92,1.52-2.56,2.68-5.44,2.68-3.32,0-5.64-1.56-6.6-4.6a16,16,0,0,1-.68-5.44,15.84,15.84,0,0,1,.68-5.4c1-3,3.28-4.6,6.6-4.6,2.88,0,4.52,1.12,5.44,2.64h0v-1.8a.38.38,0,0,1,.4-.4h2.56a.38.38,0,0,1,.4.4V72a.38.38,0,0,1-.4.4Zm-.84-12.79a12.31,12.31,0,0,0,.44-4,12.47,12.47,0,0,0-.44-4,4.53,4.53,0,0,0-8.44,0,13.63,13.63,0,0,0-.44,4,13.29,13.29,0,0,0,.44,4,4.51,4.51,0,0,0,8.44,0Z"/><path d="M399,65.2a.38.38,0,0,1-.4-.4V63h0a5.84,5.84,0,0,1-5.24,2.64c-4.2,0-6.64-2.88-6.64-7.24v-12a.38.38,0,0,1,.4-.4h2.56a.38.38,0,0,1,.4.4V57.6c0,3.12,1.4,4.92,4.24,4.92,2.6,0,4.32-1.84,4.32-4.72V46.44a.38.38,0,0,1,.4-.4h2.56a.38.38,0,0,1,.4.4V64.8a.38.38,0,0,1-.4.4Z"/><path d="M407.23,60.44a15,15,0,0,1-.64-4.84,14.86,14.86,0,0,1,.6-4.84c1.08-3.32,3.88-5.16,7.52-5.16a7.42,7.42,0,0,1,7.52,5.16,16.72,16.72,0,0,1,.6,5.48.39.39,0,0,1-.44.4H410.27a.21.21,0,0,0-.24.24,7.18,7.18,0,0,0,.32,2.32,4.73,4.73,0,0,0,4.84,3.32,6.26,6.26,0,0,0,4.92-2.12.41.41,0,0,1,.6-.08l1.64,1.48a.36.36,0,0,1,0,.56,9.32,9.32,0,0,1-7.48,3.28C411,65.64,408.27,63.76,407.23,60.44ZM419.15,54a.21.21,0,0,0,.24-.24,6.74,6.74,0,0,0-.28-2.16,4.73,4.73,0,0,0-8.8,0,6.74,6.74,0,0,0-.28,2.16.21.21,0,0,0,.24.24Z"/><path d="M17.72,103.4c-3.36,0-4.68-1.6-4.68-5v-22a.38.38,0,0,1,.4-.4H16a.38.38,0,0,1,.4.4V98.16c0,1.6.6,2.12,1.92,2.12h.76a.38.38,0,0,1,.4.4V103a.38.38,0,0,1-.4.4Z"/><path d="M35,103.2a.38.38,0,0,1-.4-.4v-1.68h0c-.88,1.44-2.76,2.52-5.68,2.52-3.64,0-6.44-1.88-6.44-5.76,0-4,2.8-5.92,7.48-5.92h4.36a.21.21,0,0,0,.24-.24v-1.4c0-2.64-1-3.76-4.6-3.76a7.45,7.45,0,0,0-4.64,1.36c-.2.16-.44.16-.56,0L23.64,86a.42.42,0,0,1,.08-.56,10.63,10.63,0,0,1,6.52-1.88c5.44,0,7.52,1.8,7.52,6.52V102.8a.38.38,0,0,1-.4.4ZM34.52,97V94.88a.21.21,0,0,0-.24-.24H30.44c-3.32,0-4.76,1-4.76,3.12,0,2,1.44,3,4,3C32.68,100.76,34.52,99.36,34.52,97Z"/><path d="M42,100.76a.39.39,0,0,1,0-.56l1.64-1.76a.39.39,0,0,1,.56,0,9.31,9.31,0,0,0,5.92,2.2c2.8,0,4.2-1.2,4.2-2.92,0-1.52-.72-2.36-3.72-2.68l-2-.2c-3.76-.4-5.72-2.28-5.72-5.4,0-3.64,2.6-5.84,7.12-5.84a11.46,11.46,0,0,1,6.8,2.12.39.39,0,0,1,.08.56L55.52,88a.39.39,0,0,1-.56.08,10.09,10.09,0,0,0-5.16-1.56c-2.4,0-3.64,1.08-3.64,2.64s.92,2.32,3.76,2.6l2,.2c3.88.36,5.76,2.32,5.76,5.4,0,3.76-2.72,6.28-7.72,6.28A11.91,11.91,0,0,1,42,100.76Z"/><path d="M70.4,88.76c1.08-3.32,3.88-5.16,7.56-5.16a7.68,7.68,0,0,1,6.56,3.24c.12.2.12.36-.12.56l-1.76,1.44a.36.36,0,0,1-.56,0A4.71,4.71,0,0,0,78,86.72a4.16,4.16,0,0,0-4.28,3,12.76,12.76,0,0,0-.44,3.88,12.88,12.88,0,0,0,.44,3.92,4.16,4.16,0,0,0,4.28,3,4.71,4.71,0,0,0,4.12-2.08.36.36,0,0,1,.56,0l1.76,1.44c.24.2.24.36.12.56A7.68,7.68,0,0,1,78,103.64c-3.68,0-6.48-1.84-7.56-5.16a20,20,0,0,1,0-9.72Z"/><path d="M88,98.48a14.39,14.39,0,0,1-.64-4.88A14.29,14.29,0,0,1,88,88.76c1-3.28,3.84-5.16,7.56-5.16s6.52,1.88,7.55,5.16a14.29,14.29,0,0,1,.64,4.84,14.39,14.39,0,0,1-.64,4.88c-1,3.24-3.83,5.16-7.55,5.16S89.08,101.72,88,98.48Zm11.88-1a12.55,12.55,0,0,0,.44-3.92,12.27,12.27,0,0,0-.44-3.88,4.61,4.61,0,0,0-8.64,0,12.27,12.27,0,0,0-.44,3.88,12.55,12.55,0,0,0,.44,3.92,4.61,4.61,0,0,0,8.64,0Z"/><path d="M120.83,103.2a.38.38,0,0,1-.39-.4V91.6c0-3.08-1.4-4.88-4.28-4.88-2.6,0-4.4,1.84-4.4,4.68v11.4a.38.38,0,0,1-.4.4H108.8a.38.38,0,0,1-.4-.4V84.44a.38.38,0,0,1,.4-.4h2.56a.38.38,0,0,1,.4.4V86.2h0a6.06,6.06,0,0,1,5.36-2.6c4.15,0,6.63,2.84,6.63,7.2v12a.38.38,0,0,1-.4.4Z"/><path d="M141.35,103.2a.38.38,0,0,1-.4-.4V101h0c-.92,1.52-2.56,2.68-5.43,2.68-3.32,0-5.64-1.56-6.6-4.6a16,16,0,0,1-.68-5.44,15.84,15.84,0,0,1,.68-5.4c1-3,3.28-4.6,6.6-4.6,2.87,0,4.51,1.12,5.43,2.64h0V76.4a.38.38,0,0,1,.4-.4h2.56a.38.38,0,0,1,.4.4v26.4a.38.38,0,0,1-.4.4Zm-.84-5.6a12.31,12.31,0,0,0,.44-4,12.47,12.47,0,0,0-.44-4,4.52,4.52,0,0,0-8.43,0,13.63,13.63,0,0,0-.44,4,13.29,13.29,0,0,0,.44,4,4.5,4.5,0,0,0,8.43,0Z"/><path d="M150.4,79.72a.38.38,0,0,1-.4-.4V76.4a.38.38,0,0,1,.4-.4h2.72a.38.38,0,0,1,.4.4v2.92a.38.38,0,0,1-.4.4Zm.08,23.48a.38.38,0,0,1-.4-.4V84.44a.38.38,0,0,1,.4-.4H153a.38.38,0,0,1,.4.4V102.8a.38.38,0,0,1-.4.4Z"/><path d="M158.64,88.76c1.08-3.32,3.88-5.16,7.55-5.16a7.68,7.68,0,0,1,6.56,3.24c.12.2.12.36-.12.56l-1.76,1.44a.36.36,0,0,1-.56,0,4.71,4.71,0,0,0-4.12-2.08,4.15,4.15,0,0,0-4.27,3,12.76,12.76,0,0,0-.44,3.88,12.88,12.88,0,0,0,.44,3.92,4.15,4.15,0,0,0,4.27,3,4.71,4.71,0,0,0,4.12-2.08.36.36,0,0,1,.56,0l1.76,1.44c.24.2.24.36.12.56a7.68,7.68,0,0,1-6.56,3.24c-3.67,0-6.47-1.84-7.55-5.16a20,20,0,0,1,0-9.72Z"/><path d="M177.6,79.72a.38.38,0,0,1-.4-.4V76.4a.38.38,0,0,1,.4-.4h2.72a.38.38,0,0,1,.4.4v2.92a.38.38,0,0,1-.4.4Zm.08,23.48a.38.38,0,0,1-.4-.4V84.44a.38.38,0,0,1,.4-.4h2.56a.38.38,0,0,1,.4.4V102.8a.38.38,0,0,1-.4.4Z"/><path d="M185.88,98.48a14.39,14.39,0,0,1-.64-4.88,14.29,14.29,0,0,1,.64-4.84c1-3.28,3.83-5.16,7.55-5.16S200,85.48,201,88.76a14.29,14.29,0,0,1,.64,4.84,14.39,14.39,0,0,1-.64,4.88c-1,3.24-3.84,5.16-7.56,5.16S186.92,101.72,185.88,98.48Zm11.87-1a12.55,12.55,0,0,0,.44-3.92,12.27,12.27,0,0,0-.44-3.88,4.61,4.61,0,0,0-8.64,0,12.27,12.27,0,0,0-.44,3.88,12.55,12.55,0,0,0,.44,3.92,4.61,4.61,0,0,0,8.64,0Z"/><path d="M218.67,103.2a.38.38,0,0,1-.4-.4V91.6c0-3.08-1.4-4.88-4.28-4.88-2.6,0-4.4,1.84-4.4,4.68v11.4a.38.38,0,0,1-.4.4h-2.56a.38.38,0,0,1-.4-.4V84.44a.38.38,0,0,1,.4-.4h2.56a.38.38,0,0,1,.4.4V86.2h0A6.06,6.06,0,0,1,215,83.6c4.16,0,6.64,2.84,6.64,7.2v12a.38.38,0,0,1-.4.4Z"/><path d="M226.67,98.44A15,15,0,0,1,226,93.6a14.86,14.86,0,0,1,.6-4.84c1.08-3.32,3.88-5.16,7.52-5.16a7.42,7.42,0,0,1,7.52,5.16,16.72,16.72,0,0,1,.6,5.48.39.39,0,0,1-.44.4H229.71a.21.21,0,0,0-.24.24,7.18,7.18,0,0,0,.32,2.32,4.73,4.73,0,0,0,4.84,3.32,6.26,6.26,0,0,0,4.92-2.12.41.41,0,0,1,.6-.08l1.64,1.48a.36.36,0,0,1,0,.56,9.32,9.32,0,0,1-7.48,3.28C230.47,103.64,227.71,101.76,226.67,98.44ZM238.59,92a.21.21,0,0,0,.24-.24,6.74,6.74,0,0,0-.28-2.16,4.73,4.73,0,0,0-8.8,0,6.74,6.74,0,0,0-.28,2.16.21.21,0,0,0,.24.24Z"/><path d="M245.55,100.76a.4.4,0,0,1,0-.56l1.64-1.76a.39.39,0,0,1,.56,0,9.31,9.31,0,0,0,5.92,2.2c2.8,0,4.2-1.2,4.2-2.92,0-1.52-.72-2.36-3.72-2.68l-2-.2c-3.76-.4-5.72-2.28-5.72-5.4,0-3.64,2.6-5.84,7.12-5.84a11.46,11.46,0,0,1,6.8,2.12.39.39,0,0,1,.08.56L259,88a.39.39,0,0,1-.56.08,10.09,10.09,0,0,0-5.16-1.56c-2.4,0-3.64,1.08-3.64,2.64s.92,2.32,3.76,2.6l2,.2c3.88.36,5.76,2.32,5.76,5.4,0,3.76-2.72,6.28-7.72,6.28A11.91,11.91,0,0,1,245.55,100.76Z"/><path d="M286.47,103.2a.38.38,0,0,1-.4-.4V101h0c-.92,1.52-2.56,2.68-5.44,2.68-3.32,0-5.64-1.56-6.6-4.6a16,16,0,0,1-.68-5.44,15.84,15.84,0,0,1,.68-5.4c1-3,3.28-4.6,6.6-4.6,2.88,0,4.52,1.12,5.44,2.64h0V76.4a.38.38,0,0,1,.4-.4H289a.38.38,0,0,1,.4.4v26.4a.38.38,0,0,1-.4.4Zm-.84-5.6a12.31,12.31,0,0,0,.44-4,12.47,12.47,0,0,0-.44-4,4.53,4.53,0,0,0-8.44,0,13.63,13.63,0,0,0-.44,4,13.29,13.29,0,0,0,.44,4,4.51,4.51,0,0,0,8.44,0Z"/><path d="M294.67,98.44A15,15,0,0,1,294,93.6a14.86,14.86,0,0,1,.6-4.84c1.08-3.32,3.88-5.16,7.52-5.16a7.42,7.42,0,0,1,7.52,5.16,16.72,16.72,0,0,1,.6,5.48.39.39,0,0,1-.44.4H297.71a.21.21,0,0,0-.24.24,7.18,7.18,0,0,0,.32,2.32,4.73,4.73,0,0,0,4.84,3.32,6.26,6.26,0,0,0,4.92-2.12.41.41,0,0,1,.6-.08l1.64,1.48a.36.36,0,0,1,0,.56,9.32,9.32,0,0,1-7.48,3.28C298.47,103.64,295.71,101.76,294.67,98.44ZM306.59,92a.21.21,0,0,0,.24-.24,6.74,6.74,0,0,0-.28-2.16,4.73,4.73,0,0,0-8.8,0,6.74,6.74,0,0,0-.28,2.16.21.21,0,0,0,.24.24Z"/><path d="M319.47,103.4c-3.36,0-4.68-1.6-4.68-5v-22a.38.38,0,0,1,.4-.4h2.56a.38.38,0,0,1,.4.4V98.16c0,1.6.6,2.12,1.92,2.12h.76a.38.38,0,0,1,.4.4V103a.38.38,0,0,1-.4.4Z"/><path d="M332.63,100.76a.39.39,0,0,1,0-.56l1.64-1.76a.39.39,0,0,1,.56,0,9.31,9.31,0,0,0,5.92,2.2c2.8,0,4.2-1.2,4.2-2.92,0-1.52-.72-2.36-3.72-2.68l-2-.2c-3.76-.4-5.72-2.28-5.72-5.4,0-3.64,2.6-5.84,7.12-5.84a11.46,11.46,0,0,1,6.8,2.12.39.39,0,0,1,.08.56L346.11,88a.39.39,0,0,1-.56.08,10.09,10.09,0,0,0-5.16-1.56c-2.4,0-3.64,1.08-3.64,2.64s.92,2.32,3.76,2.6l2,.2c3.88.36,5.76,2.32,5.76,5.4,0,3.76-2.72,6.28-7.72,6.28A11.91,11.91,0,0,1,332.63,100.76Z"/><path d="M364.79,103.2a.38.38,0,0,1-.4-.4V101h0a5.84,5.84,0,0,1-5.24,2.64c-4.2,0-6.64-2.88-6.64-7.24v-12a.38.38,0,0,1,.4-.4h2.56a.38.38,0,0,1,.4.4V95.6c0,3.12,1.4,4.92,4.24,4.92,2.6,0,4.32-1.84,4.32-4.72V84.44a.38.38,0,0,1,.4-.4h2.56a.38.38,0,0,1,.4.4V102.8a.38.38,0,0,1-.4.4Z"/><path d="M373,98.44a15,15,0,0,1-.64-4.84,14.86,14.86,0,0,1,.6-4.84c1.08-3.32,3.88-5.16,7.52-5.16A7.42,7.42,0,0,1,388,88.76a16.72,16.72,0,0,1,.6,5.48.39.39,0,0,1-.44.4H376a.21.21,0,0,0-.24.24,7.18,7.18,0,0,0,.32,2.32,4.73,4.73,0,0,0,4.84,3.32,6.26,6.26,0,0,0,4.92-2.12.41.41,0,0,1,.6-.08l1.64,1.48a.36.36,0,0,1,0,.56,9.32,9.32,0,0,1-7.48,3.28C376.79,103.64,374,101.76,373,98.44ZM384.91,92a.21.21,0,0,0,.24-.24,6.74,6.74,0,0,0-.28-2.16,4.73,4.73,0,0,0-8.8,0,6.74,6.74,0,0,0-.28,2.16A.21.21,0,0,0,376,92Z"/><path d="M397.79,103.4c-3.36,0-4.68-1.6-4.68-5v-22a.38.38,0,0,1,.4-.4h2.56a.38.38,0,0,1,.4.4V98.16c0,1.6.6,2.12,1.92,2.12h.76a.38.38,0,0,1,.4.4V103a.38.38,0,0,1-.4.4Z"/><path d="M403,98.48a14.39,14.39,0,0,1-.64-4.88,14.29,14.29,0,0,1,.64-4.84c1-3.28,3.84-5.16,7.56-5.16s6.52,1.88,7.56,5.16a14.29,14.29,0,0,1,.64,4.84,14.39,14.39,0,0,1-.64,4.88c-1,3.24-3.84,5.16-7.56,5.16S404,101.72,403,98.48Zm11.88-1a12.55,12.55,0,0,0,.44-3.92,12.27,12.27,0,0,0-.44-3.88,4.61,4.61,0,0,0-8.64,0,12.27,12.27,0,0,0-.44,3.88,12.55,12.55,0,0,0,.44,3.92,4.61,4.61,0,0,0,8.64,0Z"/><path d="M24.94,128.08A29.69,29.69,0,0,1,29.7,112a.73.73,0,0,1,.64-.4h1.4c.24,0,.36.16.24.4a35.9,35.9,0,0,0,0,32.15c.12.24,0,.4-.24.4h-1.4a.73.73,0,0,1-.64-.4A29.73,29.73,0,0,1,24.94,128.08Z"/><path d="M36.38,114.4a.38.38,0,0,1,.4-.4h2.76a.38.38,0,0,1,.4.4v11.16a.21.21,0,0,0,.24.24H52a.21.21,0,0,0,.23-.24V114.4a.38.38,0,0,1,.4-.4h2.76a.38.38,0,0,1,.4.4v26.4a.38.38,0,0,1-.4.4H52.61a.38.38,0,0,1-.4-.4V129.36a.21.21,0,0,0-.23-.24H40.18a.21.21,0,0,0-.24.24V140.8a.38.38,0,0,1-.4.4H36.78a.38.38,0,0,1-.4-.4Z"/><path d="M73.66,141.2a.38.38,0,0,1-.4-.4V139h0A5.84,5.84,0,0,1,68,141.64c-4.2,0-6.64-2.88-6.64-7.24v-12a.38.38,0,0,1,.4-.4H64.3a.38.38,0,0,1,.4.4V133.6c0,3.12,1.4,4.92,4.24,4.92,2.6,0,4.32-1.84,4.32-4.72V122.44a.38.38,0,0,1,.4-.4h2.55a.37.37,0,0,1,.4.4V140.8a.37.37,0,0,1-.4.4Z"/><path d="M81.86,136.44a15,15,0,0,1-.64-4.84,14.86,14.86,0,0,1,.6-4.84c1.08-3.32,3.88-5.16,7.52-5.16a7.41,7.41,0,0,1,7.51,5.16,16.72,16.72,0,0,1,.6,5.48.39.39,0,0,1-.44.4H84.9a.21.21,0,0,0-.24.24A7.18,7.18,0,0,0,85,135.2a4.73,4.73,0,0,0,4.84,3.32,6.22,6.22,0,0,0,4.91-2.12c.21-.2.4-.24.6-.08L97,137.8a.36.36,0,0,1,0,.56,9.28,9.28,0,0,1-7.47,3.28C85.66,141.64,82.9,139.76,81.86,136.44ZM93.78,130a.21.21,0,0,0,.24-.24,6.74,6.74,0,0,0-.28-2.16,4.73,4.73,0,0,0-8.8,0,6.74,6.74,0,0,0-.28,2.16.21.21,0,0,0,.24.24Z"/><path d="M101.5,126.76c1.08-3.32,3.88-5.16,7.56-5.16a7.68,7.68,0,0,1,6.55,3.24c.12.2.12.36-.12.56l-1.76,1.44a.36.36,0,0,1-.56,0,4.7,4.7,0,0,0-4.11-2.08,4.16,4.16,0,0,0-4.28,3,17.5,17.5,0,0,0,0,7.8,4.16,4.16,0,0,0,4.28,3,4.7,4.7,0,0,0,4.11-2.08.36.36,0,0,1,.56,0l1.76,1.44c.24.2.24.36.12.56a7.68,7.68,0,0,1-6.55,3.24c-3.68,0-6.48-1.84-7.56-5.16a20,20,0,0,1,0-9.72Z"/><path d="M119.14,136.48a18.77,18.77,0,0,1,0-9.72c1-3.28,3.84-5.16,7.55-5.16s6.52,1.88,7.56,5.16a18.77,18.77,0,0,1,0,9.72c-1,3.24-3.84,5.16-7.56,5.16S120.18,139.72,119.14,136.48Zm11.87-1a12.55,12.55,0,0,0,.44-3.92,12.27,12.27,0,0,0-.44-3.88,4.6,4.6,0,0,0-8.63,0,12.27,12.27,0,0,0-.44,3.88,12.55,12.55,0,0,0,.44,3.92,4.6,4.6,0,0,0,8.63,0Z"/><path d="M138.18,138.76a.39.39,0,0,1,0-.56l1.64-1.76a.39.39,0,0,1,.56,0,9.3,9.3,0,0,0,5.91,2.2c2.8,0,4.2-1.2,4.2-2.92,0-1.52-.72-2.36-3.72-2.68l-2-.2c-3.75-.4-5.71-2.28-5.71-5.4,0-3.64,2.6-5.84,7.11-5.84a11.46,11.46,0,0,1,6.8,2.12.39.39,0,0,1,.08.56L151.65,126a.39.39,0,0,1-.56.08,10.09,10.09,0,0,0-5.16-1.56c-2.39,0-3.63,1.08-3.63,2.64s.92,2.32,3.75,2.6l2,.2c3.88.36,5.76,2.32,5.76,5.4,0,3.76-2.72,6.28-7.72,6.28A11.9,11.9,0,0,1,138.18,138.76Z"/><path d="M158.22,137H161a.38.38,0,0,1,.4.4v3.72a1.27,1.27,0,0,1-.24.88l-2.48,3.27a.6.6,0,0,1-.51.28.37.37,0,0,1-.37-.36v-7.79A.39.39,0,0,1,158.22,137Z"/><path d="M199.13,141.2a.38.38,0,0,1-.4-.4V129.6c0-3.08-1.4-4.88-4.28-4.88a4.32,4.32,0,0,0-4.4,4.68v11.4a.38.38,0,0,1-.4.4h-2.56a.38.38,0,0,1-.4-.4V129.6c0-3.08-1.4-4.88-4.28-4.88-2.6,0-4.4,1.84-4.4,4.68v11.4a.38.38,0,0,1-.4.4h-2.56a.38.38,0,0,1-.4-.4V122.44a.38.38,0,0,1,.4-.4h2.56a.38.38,0,0,1,.4.4v1.76h0a6.77,6.77,0,0,1,11,.4h0a7.13,7.13,0,0,1,6.2-3c4.44,0,6.84,2.84,6.84,7.2v12a.38.38,0,0,1-.4.4Z"/><path d="M219.25,141.2a.38.38,0,0,1-.4-.4v-1.68h0c-.88,1.44-2.76,2.52-5.68,2.52-3.64,0-6.44-1.88-6.44-5.76,0-4,2.8-5.92,7.48-5.92h4.36a.21.21,0,0,0,.24-.24v-1.4c0-2.64-1-3.76-4.6-3.76a7.45,7.45,0,0,0-4.64,1.36c-.2.16-.44.16-.56,0L207.89,124a.42.42,0,0,1,.08-.56,10.63,10.63,0,0,1,6.52-1.88c5.44,0,7.52,1.8,7.52,6.52V140.8a.38.38,0,0,1-.4.4Zm-.48-6.2v-2.12a.21.21,0,0,0-.24-.24h-3.84c-3.32,0-4.76,1-4.76,3.12,0,2,1.44,3,4,3C216.93,138.76,218.77,137.36,218.77,135Z"/><path d="M232.21,141.4c-3.36,0-4.68-1.6-4.68-5v-22a.38.38,0,0,1,.4-.4h2.56a.38.38,0,0,1,.4.4v21.76c0,1.6.6,2.12,1.92,2.12h.76a.38.38,0,0,1,.4.4V141a.38.38,0,0,1-.4.4Z"/><path d="M237.37,136.44a15,15,0,0,1-.64-4.84,14.86,14.86,0,0,1,.6-4.84c1.08-3.32,3.88-5.16,7.52-5.16a7.42,7.42,0,0,1,7.52,5.16,16.72,16.72,0,0,1,.6,5.48.39.39,0,0,1-.44.4H240.41a.21.21,0,0,0-.24.24,7.18,7.18,0,0,0,.32,2.32,4.73,4.73,0,0,0,4.84,3.32,6.26,6.26,0,0,0,4.92-2.12.41.41,0,0,1,.6-.08l1.64,1.48a.36.36,0,0,1,0,.56,9.32,9.32,0,0,1-7.48,3.28C241.17,141.64,238.41,139.76,237.37,136.44ZM249.29,130a.21.21,0,0,0,.24-.24,6.74,6.74,0,0,0-.28-2.16,4.73,4.73,0,0,0-8.8,0,6.74,6.74,0,0,0-.28,2.16.21.21,0,0,0,.24.24Z"/><path d="M256.89,141.2a.38.38,0,0,1-.4-.4v-2.12a.6.6,0,0,1,.16-.44l10.52-13.08v-.08h-9.76a.38.38,0,0,1-.4-.4v-2.24a.38.38,0,0,1,.4-.4h13.36a.38.38,0,0,1,.4.4v2.24a.6.6,0,0,1-.16.44l-10.44,13v.08h10.2a.38.38,0,0,1,.4.4v2.24a.38.38,0,0,1-.4.4Z"/><path d="M287.45,141.2a.38.38,0,0,1-.4-.4v-1.68h0c-.88,1.44-2.76,2.52-5.68,2.52-3.64,0-6.44-1.88-6.44-5.76,0-4,2.8-5.92,7.48-5.92h4.36a.21.21,0,0,0,.24-.24v-1.4c0-2.64-1-3.76-4.6-3.76a7.45,7.45,0,0,0-4.64,1.36c-.2.16-.44.16-.56,0L276.09,124a.42.42,0,0,1,.08-.56,10.63,10.63,0,0,1,6.52-1.88c5.44,0,7.52,1.8,7.52,6.52V140.8a.38.38,0,0,1-.4.4ZM287,135v-2.12a.21.21,0,0,0-.24-.24h-3.84c-3.32,0-4.76,1-4.76,3.12,0,2,1.44,3,4,3C285.13,138.76,287,137.36,287,135Z"/><path d="M295.73,137h2.8a.38.38,0,0,1,.4.4v3.72a1.27,1.27,0,0,1-.24.88l-2.48,3.27a.63.63,0,0,1-.52.28.36.36,0,0,1-.36-.36v-7.79A.38.38,0,0,1,295.73,137Z"/><path d="M312.57,141.2a.38.38,0,0,1-.4-.4V114.4a.38.38,0,0,1,.4-.4h2.56a.38.38,0,0,1,.4.4v9.84h0c.92-1.52,2.56-2.64,5.44-2.64,3.32,0,5.64,1.56,6.6,4.6a15.84,15.84,0,0,1,.68,5.4,16,16,0,0,1-.68,5.44c-1,3-3.28,4.6-6.6,4.6-2.88,0-4.52-1.16-5.44-2.68h0v1.84a.38.38,0,0,1-.4.4Zm11.84-5.6a13.29,13.29,0,0,0,.44-4,13.63,13.63,0,0,0-.44-4,4.53,4.53,0,0,0-8.44,0,12.47,12.47,0,0,0-.44,4,12.31,12.31,0,0,0,.44,4,4.51,4.51,0,0,0,8.44,0Z"/><path d="M344.49,141.2a.38.38,0,0,1-.4-.4v-1.68h0c-.88,1.44-2.76,2.52-5.68,2.52-3.64,0-6.44-1.88-6.44-5.76,0-4,2.8-5.92,7.48-5.92h4.36a.21.21,0,0,0,.24-.24v-1.4c0-2.64-1-3.76-4.6-3.76a7.45,7.45,0,0,0-4.64,1.36c-.2.16-.44.16-.56,0L333.13,124a.42.42,0,0,1,.08-.56,10.63,10.63,0,0,1,6.52-1.88c5.44,0,7.52,1.8,7.52,6.52V140.8a.38.38,0,0,1-.4.4ZM344,135v-2.12a.21.21,0,0,0-.24-.24h-3.84c-3.32,0-4.76,1-4.76,3.12,0,2,1.44,3,4,3C342.17,138.76,344,137.36,344,135Z"/><path d="M353.25,141.2a.38.38,0,0,1-.4-.4V122.44a.38.38,0,0,1,.4-.4h2.56a.38.38,0,0,1,.4.4v2h0a5.34,5.34,0,0,1,5.08-2.8,5.89,5.89,0,0,1,3.92,1.44c.2.2.24.36.08.56l-1.48,2a.36.36,0,0,1-.56.08,5.4,5.4,0,0,0-3-.92c-2.92,0-4.12,2.28-4.12,5.6V140.8a.38.38,0,0,1-.4.4Z"/><path d="M368.85,141.2a.38.38,0,0,1-.4-.4V122.44a.38.38,0,0,1,.4-.4h2.56a.38.38,0,0,1,.4.4v2h0a5.34,5.34,0,0,1,5.08-2.8,5.89,5.89,0,0,1,3.92,1.44c.2.2.24.36.08.56l-1.48,2a.36.36,0,0,1-.56.08,5.4,5.4,0,0,0-3-.92c-2.92,0-4.12,2.28-4.12,5.6V140.8a.38.38,0,0,1-.4.4Z"/><path d="M382.81,136.48a18.77,18.77,0,0,1,0-9.72c1-3.28,3.84-5.16,7.56-5.16s6.52,1.88,7.56,5.16a18.77,18.77,0,0,1,0,9.72c-1,3.24-3.84,5.16-7.56,5.16S383.85,139.72,382.81,136.48Zm11.88-1a12.55,12.55,0,0,0,.44-3.92,12.27,12.27,0,0,0-.44-3.88,4.61,4.61,0,0,0-8.64,0,12.27,12.27,0,0,0-.44,3.88,12.55,12.55,0,0,0,.44,3.92,4.61,4.61,0,0,0,8.64,0Z"/><path d="M403.09,137h2.8a.38.38,0,0,1,.4.4v3.72a1.27,1.27,0,0,1-.24.88l-2.48,3.27a.63.63,0,0,1-.52.28.36.36,0,0,1-.36-.36v-7.79A.38.38,0,0,1,403.09,137Z"/><path d="M20,179.2a.38.38,0,0,1-.4-.4V160.44a.38.38,0,0,1,.4-.4h2.56a.38.38,0,0,1,.4.4v2h0a5.34,5.34,0,0,1,5.08-2.8A5.89,5.89,0,0,1,32,161c.2.2.24.36.08.56l-1.48,2a.36.36,0,0,1-.56.08,5.4,5.4,0,0,0-3-.92c-2.92,0-4.12,2.28-4.12,5.6V178.8a.38.38,0,0,1-.4.4Z"/><path d="M47.22,179.2a.38.38,0,0,1-.4-.4V177h0a5.84,5.84,0,0,1-5.24,2.64c-4.2,0-6.64-2.88-6.64-7.24v-12a.38.38,0,0,1,.4-.4h2.56a.38.38,0,0,1,.4.4V171.6c0,3.12,1.4,4.92,4.24,4.92,2.6,0,4.32-1.84,4.32-4.72V160.44a.38.38,0,0,1,.4-.4h2.56a.38.38,0,0,1,.4.4V178.8a.38.38,0,0,1-.4.4Z"/><path d="M56.26,155.72a.38.38,0,0,1-.4-.4V152.4a.38.38,0,0,1,.4-.4H59a.38.38,0,0,1,.4.4v2.92a.38.38,0,0,1-.4.4Zm.08,23.48a.38.38,0,0,1-.4-.4V160.44a.38.38,0,0,1,.4-.4H58.9a.38.38,0,0,1,.4.4V178.8a.38.38,0,0,1-.4.4Z"/><path d="M77.5,179.2a.38.38,0,0,1-.4-.4V167.6c0-3.08-1.4-4.88-4.28-4.88-2.6,0-4.4,1.84-4.4,4.68v11.4a.38.38,0,0,1-.4.4H65.46a.38.38,0,0,1-.4-.4V160.44a.38.38,0,0,1,.4-.4H68a.38.38,0,0,1,.4.4v1.76h0a6.06,6.06,0,0,1,5.36-2.6c4.16,0,6.63,2.84,6.63,7.2v12a.38.38,0,0,1-.4.4Z"/><path d="M97.61,179.2a.38.38,0,0,1-.4-.4v-1.68h0c-.88,1.44-2.75,2.52-5.67,2.52-3.64,0-6.44-1.88-6.44-5.76,0-4,2.8-5.92,7.48-5.92H96.9a.21.21,0,0,0,.23-.24v-1.4c0-2.64-1-3.76-4.59-3.76a7.45,7.45,0,0,0-4.64,1.36c-.2.16-.44.16-.56,0L86.26,162a.42.42,0,0,1,.08-.56,10.63,10.63,0,0,1,6.52-1.88c5.43,0,7.51,1.8,7.51,6.52V178.8a.38.38,0,0,1-.4.4Zm-.48-6.2v-2.12a.21.21,0,0,0-.23-.24H93.06c-3.32,0-4.76,1-4.76,3.12,0,2,1.44,3,4,3C95.3,176.76,97.13,175.36,97.13,173Z"/><path d="M104.66,176.76a.39.39,0,0,1,0-.56l1.64-1.76a.39.39,0,0,1,.56,0,9.31,9.31,0,0,0,5.92,2.2c2.8,0,4.2-1.2,4.2-2.92,0-1.52-.73-2.36-3.72-2.68l-2-.2c-3.76-.4-5.72-2.28-5.72-5.4,0-3.64,2.6-5.84,7.12-5.84a11.43,11.43,0,0,1,6.79,2.12.39.39,0,0,1,.08.56L118.13,164a.39.39,0,0,1-.56.08,10,10,0,0,0-5.15-1.56c-2.4,0-3.64,1.08-3.64,2.64s.92,2.32,3.76,2.6l2,.2c3.87.36,5.75,2.32,5.75,5.4,0,3.76-2.72,6.28-7.71,6.28A11.91,11.91,0,0,1,104.66,176.76Z"/><path d="M124.7,175h2.8a.38.38,0,0,1,.4.4v3.72a1.27,1.27,0,0,1-.24.88l-2.48,3.27a.63.63,0,0,1-.52.28.36.36,0,0,1-.36-.36v-7.79A.38.38,0,0,1,124.7,175Z"/><path d="M140.62,174.44a15,15,0,0,1-.64-4.84,14.86,14.86,0,0,1,.6-4.84c1.08-3.32,3.88-5.16,7.51-5.16a7.42,7.42,0,0,1,7.52,5.16,16.72,16.72,0,0,1,.6,5.48.39.39,0,0,1-.44.4H143.66a.21.21,0,0,0-.24.24,7.18,7.18,0,0,0,.32,2.32,4.72,4.72,0,0,0,4.83,3.32,6.26,6.26,0,0,0,4.92-2.12.41.41,0,0,1,.6-.08l1.64,1.48a.36.36,0,0,1,0,.56,9.32,9.32,0,0,1-7.48,3.28C144.42,179.64,141.66,177.76,140.62,174.44ZM152.53,168a.21.21,0,0,0,.24-.24,6.74,6.74,0,0,0-.28-2.16,4.72,4.72,0,0,0-8.79,0,6.74,6.74,0,0,0-.28,2.16.21.21,0,0,0,.24.24Z"/><path d="M173.25,179.2a.38.38,0,0,1-.4-.4V167.6c0-3.08-1.4-4.88-4.28-4.88-2.6,0-4.4,1.84-4.4,4.68v11.4a.38.38,0,0,1-.4.4h-2.56a.38.38,0,0,1-.4-.4V160.44a.38.38,0,0,1,.4-.4h2.56a.38.38,0,0,1,.4.4v1.76h0a6.06,6.06,0,0,1,5.36-2.6c4.16,0,6.64,2.84,6.64,7.2v12a.38.38,0,0,1-.4.4Z"/><path d="M187.33,179.4c-3.72,0-5.16-1.68-5.16-5.44V163c0-.16-.07-.24-.23-.24h-1.6a.38.38,0,0,1-.4-.4v-1.92a.38.38,0,0,1,.4-.4h1.6c.16,0,.23-.08.23-.24v-5.4a.38.38,0,0,1,.4-.4h2.56a.38.38,0,0,1,.4.4v5.4a.21.21,0,0,0,.24.24h3a.38.38,0,0,1,.4.4v1.92a.38.38,0,0,1-.4.4h-3a.21.21,0,0,0-.24.24v10.84c0,1.92.72,2.44,2.44,2.44h.84a.38.38,0,0,1,.4.4V179a.38.38,0,0,1-.4.4Z"/><path d="M194,179.2a.38.38,0,0,1-.4-.4V160.44a.38.38,0,0,1,.4-.4h2.56a.38.38,0,0,1,.4.4v2h0a5.34,5.34,0,0,1,5.08-2.8A5.89,5.89,0,0,1,206,161c.2.2.24.36.08.56l-1.48,2a.36.36,0,0,1-.56.08,5.4,5.4,0,0,0-3-.92c-2.92,0-4.12,2.28-4.12,5.6V178.8a.38.38,0,0,1-.4.4Z"/><path d="M208,174.44a15,15,0,0,1-.64-4.84,14.86,14.86,0,0,1,.6-4.84c1.08-3.32,3.88-5.16,7.52-5.16a7.42,7.42,0,0,1,7.52,5.16,16.72,16.72,0,0,1,.6,5.48.39.39,0,0,1-.44.4H211a.21.21,0,0,0-.24.24,7.18,7.18,0,0,0,.32,2.32,4.73,4.73,0,0,0,4.84,3.32,6.26,6.26,0,0,0,4.92-2.12.41.41,0,0,1,.6-.08l1.64,1.48a.36.36,0,0,1,0,.56,9.32,9.32,0,0,1-7.48,3.28C211.77,179.64,209,177.76,208,174.44ZM219.89,168a.21.21,0,0,0,.24-.24,6.74,6.74,0,0,0-.28-2.16,4.73,4.73,0,0,0-8.8,0,6.74,6.74,0,0,0-.28,2.16.21.21,0,0,0,.24.24Z"/><path d="M236.45,174.48a18.77,18.77,0,0,1,0-9.72c1-3.28,3.84-5.16,7.56-5.16s6.52,1.88,7.56,5.16a18.77,18.77,0,0,1,0,9.72c-1,3.24-3.84,5.16-7.56,5.16S237.49,177.72,236.45,174.48Zm11.88-1a12.55,12.55,0,0,0,.44-3.92,12.27,12.27,0,0,0-.44-3.88,4.61,4.61,0,0,0-8.64,0,12.27,12.27,0,0,0-.44,3.88,12.55,12.55,0,0,0,.44,3.92,4.61,4.61,0,0,0,8.64,0Z"/><path d="M262.37,179.4c-3.72,0-5.16-1.68-5.16-5.44V163a.21.21,0,0,0-.24-.24h-1.6a.38.38,0,0,1-.4-.4v-1.92a.38.38,0,0,1,.4-.4H257a.21.21,0,0,0,.24-.24v-5.4a.38.38,0,0,1,.4-.4h2.56a.38.38,0,0,1,.4.4v5.4a.21.21,0,0,0,.24.24h3a.38.38,0,0,1,.4.4v1.92a.38.38,0,0,1-.4.4h-3a.21.21,0,0,0-.24.24v10.84c0,1.92.72,2.44,2.44,2.44h.84a.38.38,0,0,1,.4.4V179a.38.38,0,0,1-.4.4Z"/><path d="M269.05,179.2a.38.38,0,0,1-.4-.4V160.44a.38.38,0,0,1,.4-.4h2.56a.38.38,0,0,1,.4.4v2h0a5.34,5.34,0,0,1,5.08-2.8,5.89,5.89,0,0,1,3.92,1.44c.2.2.24.36.08.56l-1.48,2a.36.36,0,0,1-.56.08,5.4,5.4,0,0,0-3-.92c-2.92,0-4.12,2.28-4.12,5.6V178.8a.38.38,0,0,1-.4.4Z"/><path d="M283,174.48a18.77,18.77,0,0,1,0-9.72c1-3.28,3.84-5.16,7.56-5.16s6.52,1.88,7.56,5.16a18.77,18.77,0,0,1,0,9.72c-1,3.24-3.84,5.16-7.56,5.16S284.05,177.72,283,174.48Zm11.88-1a12.55,12.55,0,0,0,.44-3.92,12.27,12.27,0,0,0-.44-3.88,4.61,4.61,0,0,0-8.64,0,12.27,12.27,0,0,0-.44,3.88,12.55,12.55,0,0,0,.44,3.92,4.61,4.61,0,0,0,8.64,0Z"/><path d="M302.05,176.76a.39.39,0,0,1,0-.56l1.64-1.76a.39.39,0,0,1,.56,0,9.31,9.31,0,0,0,5.92,2.2c2.8,0,4.2-1.2,4.2-2.92,0-1.52-.72-2.36-3.72-2.68l-2-.2c-3.76-.4-5.72-2.28-5.72-5.4,0-3.64,2.6-5.84,7.12-5.84a11.46,11.46,0,0,1,6.8,2.12.39.39,0,0,1,.08.56L315.53,164a.39.39,0,0,1-.56.08,10.09,10.09,0,0,0-5.16-1.56c-2.4,0-3.64,1.08-3.64,2.64s.92,2.32,3.76,2.6l2,.2c3.88.36,5.76,2.32,5.76,5.4,0,3.76-2.72,6.28-7.72,6.28A11.91,11.91,0,0,1,302.05,176.76Z"/><path d="M324.53,166.08a37,37,0,0,0-3.8-16.08c-.12-.24,0-.4.24-.4h1.4a.73.73,0,0,1,.64.4,29.52,29.52,0,0,1,0,32.15.73.73,0,0,1-.64.4H321c-.24,0-.36-.16-.24-.4A37.2,37.2,0,0,0,324.53,166.08Z"/><path d="M342,186.39a.38.38,0,0,1-.4-.4V160.44a.38.38,0,0,1,.4-.4h2.56a.38.38,0,0,1,.4.4v1.8h0c.92-1.52,2.56-2.64,5.44-2.64,3.32,0,5.64,1.56,6.6,4.6A21.94,21.94,0,0,1,357,175c-1,3-3.28,4.6-6.6,4.6-2.88,0-4.52-1.16-5.44-2.68h0v9a.38.38,0,0,1-.4.4Zm11.84-12.79a13.29,13.29,0,0,0,.44-4,13.63,13.63,0,0,0-.44-4,4.53,4.53,0,0,0-8.44,0,12.47,12.47,0,0,0-.44,4,12.31,12.31,0,0,0,.44,4,4.51,4.51,0,0,0,8.44,0Z"/><path d="M373.89,179.2a.38.38,0,0,1-.4-.4v-1.68h0c-.88,1.44-2.76,2.52-5.68,2.52-3.64,0-6.44-1.88-6.44-5.76,0-4,2.8-5.92,7.48-5.92h4.36a.21.21,0,0,0,.24-.24v-1.4c0-2.64-1-3.76-4.6-3.76a7.45,7.45,0,0,0-4.64,1.36c-.2.16-.44.16-.56,0L362.53,162a.42.42,0,0,1,.08-.56,10.63,10.63,0,0,1,6.52-1.88c5.44,0,7.52,1.8,7.52,6.52V178.8a.38.38,0,0,1-.4.4Zm-.48-6.2v-2.12a.21.21,0,0,0-.24-.24h-3.84c-3.32,0-4.76,1-4.76,3.12,0,2,1.44,3,4,3C371.57,176.76,373.41,175.36,373.41,173Z"/><path d="M382.65,179.2a.38.38,0,0,1-.4-.4V160.44a.38.38,0,0,1,.4-.4h2.56a.38.38,0,0,1,.4.4v2h0a5.34,5.34,0,0,1,5.08-2.8,5.89,5.89,0,0,1,3.92,1.44c.2.2.24.36.08.56l-1.48,2a.36.36,0,0,1-.56.08,5.4,5.4,0,0,0-3-.92c-2.92,0-4.12,2.28-4.12,5.6V178.8a.38.38,0,0,1-.4.4Z"/><path d="M408.49,179.2a.38.38,0,0,1-.4-.4v-1.68h0c-.88,1.44-2.76,2.52-5.68,2.52-3.64,0-6.44-1.88-6.44-5.76,0-4,2.8-5.92,7.48-5.92h4.36a.21.21,0,0,0,.24-.24v-1.4c0-2.64-1-3.76-4.6-3.76a7.45,7.45,0,0,0-4.64,1.36c-.2.16-.44.16-.56,0L397.13,162a.42.42,0,0,1,.08-.56,10.63,10.63,0,0,1,6.52-1.88c5.44,0,7.52,1.8,7.52,6.52V178.8a.38.38,0,0,1-.4.4ZM408,173v-2.12a.21.21,0,0,0-.24-.24h-3.84c-3.32,0-4.76,1-4.76,3.12,0,2,1.44,3,4,3C406.17,176.76,408,175.36,408,173Z"/><path d="M.64,212.44A15,15,0,0,1,0,207.6a14.86,14.86,0,0,1,.6-4.84c1.08-3.32,3.88-5.16,7.52-5.16a7.42,7.42,0,0,1,7.52,5.16,16.72,16.72,0,0,1,.6,5.48.39.39,0,0,1-.44.4H3.68a.21.21,0,0,0-.24.24,7.18,7.18,0,0,0,.32,2.32,4.73,4.73,0,0,0,4.84,3.32,6.26,6.26,0,0,0,4.92-2.12.41.41,0,0,1,.6-.08l1.64,1.48a.36.36,0,0,1,0,.56,9.32,9.32,0,0,1-7.48,3.28C4.44,217.64,1.68,215.76.64,212.44ZM12.56,206a.21.21,0,0,0,.24-.24,6.74,6.74,0,0,0-.28-2.16,4.33,4.33,0,0,0-4.4-3,4.33,4.33,0,0,0-4.4,3,6.74,6.74,0,0,0-.28,2.16.21.21,0,0,0,.24.24Z"/><path d="M26,217.2c-.28,0-.4-.16-.48-.4L18.6,198.44c-.08-.24,0-.4.32-.4h2.76c.28,0,.4.12.52.4l5,13.76h.08l4.84-13.76a.47.47,0,0,1,.48-.4h2.72c.28,0,.4.16.32.4L28.76,216.8a.52.52,0,0,1-.52.4Z"/><path d="M39.44,193.72a.38.38,0,0,1-.4-.4V190.4a.38.38,0,0,1,.4-.4h2.72a.38.38,0,0,1,.4.4v2.92a.38.38,0,0,1-.4.4Zm.08,23.48a.38.38,0,0,1-.4-.4V198.44a.38.38,0,0,1,.4-.4h2.56a.38.38,0,0,1,.4.4V216.8a.38.38,0,0,1-.4.4Z"/><path d="M53.8,217.4c-3.72,0-5.16-1.68-5.16-5.44V201a.21.21,0,0,0-.24-.24H46.8a.38.38,0,0,1-.4-.4v-1.92a.38.38,0,0,1,.4-.4h1.6a.21.21,0,0,0,.24-.24v-5.4a.38.38,0,0,1,.4-.4H51.6a.38.38,0,0,1,.4.4v5.4a.21.21,0,0,0,.24.24h3a.38.38,0,0,1,.4.4v1.92a.38.38,0,0,1-.4.4h-3A.21.21,0,0,0,52,201v10.84c0,1.92.72,2.44,2.44,2.44h.84a.38.38,0,0,1,.4.4V217a.38.38,0,0,1-.4.4Z"/><path d="M71.68,217.2a.38.38,0,0,1-.4-.4v-1.68h0c-.88,1.44-2.76,2.52-5.68,2.52-3.64,0-6.44-1.88-6.44-5.76,0-4,2.8-5.92,7.48-5.92H71a.21.21,0,0,0,.24-.24v-1.4c0-2.64-1-3.76-4.6-3.76A7.45,7.45,0,0,0,62,201.92c-.2.16-.44.16-.56,0L60.32,200a.42.42,0,0,1,.08-.56,10.63,10.63,0,0,1,6.52-1.88c5.44,0,7.52,1.8,7.52,6.52V216.8a.38.38,0,0,1-.4.4ZM71.2,211v-2.12a.21.21,0,0,0-.24-.24H67.12c-3.32,0-4.76,1-4.76,3.12,0,2,1.44,3,4,3C69.36,214.76,71.2,213.36,71.2,211Z"/><path d="M80.44,217.2a.38.38,0,0,1-.4-.4V198.44a.38.38,0,0,1,.4-.4H83a.38.38,0,0,1,.4.4v2h0a5.34,5.34,0,0,1,5.08-2.8A5.89,5.89,0,0,1,92.44,199c.2.2.24.36.08.56l-1.48,2a.36.36,0,0,1-.56.08,5.4,5.4,0,0,0-3-.92c-2.92,0-4.12,2.28-4.12,5.6V216.8a.38.38,0,0,1-.4.4Z"/><path d="M104.76,193.72a.38.38,0,0,1-.4-.4V190.4a.38.38,0,0,1,.4-.4h2.72a.38.38,0,0,1,.4.4v2.92a.38.38,0,0,1-.4.4Zm.08,23.48a.38.38,0,0,1-.4-.4V198.44a.38.38,0,0,1,.4-.4h2.56a.38.38,0,0,1,.4.4V216.8a.38.38,0,0,1-.4.4Z"/><path d="M126,217.2a.38.38,0,0,1-.4-.4V205.6c0-3.08-1.4-4.88-4.28-4.88-2.59,0-4.39,1.84-4.39,4.68v11.4a.38.38,0,0,1-.4.4H114a.38.38,0,0,1-.4-.4V198.44a.38.38,0,0,1,.4-.4h2.56a.38.38,0,0,1,.4.4v1.76h0a6.05,6.05,0,0,1,5.35-2.6c4.16,0,6.64,2.84,6.64,7.2v12a.38.38,0,0,1-.4.4Z"/><path d="M134,202.76c1.08-3.32,3.88-5.16,7.55-5.16a7.68,7.68,0,0,1,6.56,3.24c.12.2.12.36-.12.56l-1.76,1.44a.36.36,0,0,1-.56,0,4.71,4.71,0,0,0-4.12-2.08,4.15,4.15,0,0,0-4.27,3,17.5,17.5,0,0,0,0,7.8,4.15,4.15,0,0,0,4.27,3,4.71,4.71,0,0,0,4.12-2.08.36.36,0,0,1,.56,0l1.76,1.44c.24.2.24.36.12.56a7.68,7.68,0,0,1-6.56,3.24c-3.67,0-6.47-1.84-7.55-5.16a20,20,0,0,1,0-9.72Z"/><path d="M152.92,193.72a.38.38,0,0,1-.4-.4V190.4a.38.38,0,0,1,.4-.4h2.71a.37.37,0,0,1,.4.4v2.92a.37.37,0,0,1-.4.4ZM153,217.2a.38.38,0,0,1-.4-.4V198.44a.38.38,0,0,1,.4-.4h2.55a.38.38,0,0,1,.4.4V216.8a.38.38,0,0,1-.4.4Z"/><path d="M173.71,217.2a.38.38,0,0,1-.4-.4V215h0c-.92,1.52-2.56,2.68-5.44,2.68-3.32,0-5.64-1.56-6.6-4.6a22.26,22.26,0,0,1,0-10.84c1-3,3.28-4.6,6.6-4.6,2.88,0,4.52,1.12,5.44,2.64h0V190.4a.38.38,0,0,1,.4-.4h2.56a.38.38,0,0,1,.4.4v26.4a.38.38,0,0,1-.4.4Zm-.84-5.6a12.31,12.31,0,0,0,.44-4,12.47,12.47,0,0,0-.44-4,4.53,4.53,0,0,0-8.44,0,13.63,13.63,0,0,0-.44,4,13.29,13.29,0,0,0,.44,4,4.51,4.51,0,0,0,8.44,0Z"/><path d="M181.92,212.44a18.91,18.91,0,0,1,0-9.68c1.07-3.32,3.87-5.16,7.51-5.16a7.42,7.42,0,0,1,7.52,5.16,16.72,16.72,0,0,1,.6,5.48.39.39,0,0,1-.44.4H185a.21.21,0,0,0-.24.24,7.18,7.18,0,0,0,.32,2.32,4.73,4.73,0,0,0,4.84,3.32,6.26,6.26,0,0,0,4.92-2.12.41.41,0,0,1,.6-.08L197,213.8a.36.36,0,0,1,0,.56,9.32,9.32,0,0,1-7.48,3.28C185.71,217.64,183,215.76,181.92,212.44ZM193.83,206a.21.21,0,0,0,.24-.24,6.74,6.74,0,0,0-.28-2.16,4.73,4.73,0,0,0-8.8,0,6.74,6.74,0,0,0-.28,2.16.21.21,0,0,0,.24.24Z"/><path d="M214.55,217.2a.38.38,0,0,1-.4-.4V205.6c0-3.08-1.4-4.88-4.28-4.88-2.6,0-4.4,1.84-4.4,4.68v11.4a.38.38,0,0,1-.4.4h-2.56a.38.38,0,0,1-.4-.4V198.44a.38.38,0,0,1,.4-.4h2.56a.38.38,0,0,1,.4.4v1.76h0a6.06,6.06,0,0,1,5.36-2.6c4.16,0,6.64,2.84,6.64,7.2v12a.38.38,0,0,1-.4.4Z"/><path d="M228.63,217.4c-3.72,0-5.16-1.68-5.16-5.44V201a.21.21,0,0,0-.24-.24h-1.6a.38.38,0,0,1-.4-.4v-1.92a.38.38,0,0,1,.4-.4h1.6a.21.21,0,0,0,.24-.24v-5.4a.38.38,0,0,1,.4-.4h2.56a.38.38,0,0,1,.4.4v5.4a.21.21,0,0,0,.24.24h3a.38.38,0,0,1,.4.4v1.92a.38.38,0,0,1-.4.4h-3a.21.21,0,0,0-.24.24v10.84c0,1.92.72,2.44,2.44,2.44h.84a.38.38,0,0,1,.4.4V217a.38.38,0,0,1-.4.4Z"/><path d="M234.39,212.44a15,15,0,0,1-.64-4.84,14.86,14.86,0,0,1,.6-4.84c1.08-3.32,3.88-5.16,7.52-5.16a7.42,7.42,0,0,1,7.52,5.16,16.72,16.72,0,0,1,.6,5.48.39.39,0,0,1-.44.4H237.43a.21.21,0,0,0-.24.24,7.18,7.18,0,0,0,.32,2.32,4.73,4.73,0,0,0,4.84,3.32,6.26,6.26,0,0,0,4.92-2.12.41.41,0,0,1,.6-.08l1.64,1.48a.36.36,0,0,1,0,.56,9.32,9.32,0,0,1-7.48,3.28C238.19,217.64,235.43,215.76,234.39,212.44ZM246.31,206a.21.21,0,0,0,.24-.24,6.74,6.74,0,0,0-.28-2.16,4.73,4.73,0,0,0-8.8,0,6.74,6.74,0,0,0-.28,2.16.21.21,0,0,0,.24.24Z"/><path d="M253.27,214.76a.39.39,0,0,1,0-.56l1.64-1.76a.39.39,0,0,1,.56,0,9.31,9.31,0,0,0,5.92,2.2c2.8,0,4.2-1.2,4.2-2.92,0-1.52-.72-2.36-3.72-2.68l-2-.2c-3.76-.4-5.72-2.28-5.72-5.4,0-3.64,2.6-5.84,7.12-5.84a11.46,11.46,0,0,1,6.8,2.12.39.39,0,0,1,.08.56L266.75,202a.39.39,0,0,1-.56.08,10.09,10.09,0,0,0-5.16-1.56c-2.4,0-3.64,1.08-3.64,2.64s.92,2.32,3.76,2.6l2,.2c3.88.36,5.76,2.32,5.76,5.4,0,3.76-2.72,6.28-7.72,6.28A11.91,11.91,0,0,1,253.27,214.76Z"/><path d="M273.31,213h2.8a.38.38,0,0,1,.4.4v3.72a1.27,1.27,0,0,1-.24.88l-2.48,3.27a.63.63,0,0,1-.52.28.36.36,0,0,1-.36-.36v-7.79A.38.38,0,0,1,273.31,213Z"/><path d="M294.87,217.2c-.28,0-.4-.16-.48-.4l-6.88-18.36c-.08-.24,0-.4.32-.4h2.76c.28,0,.4.12.52.4l5,13.76h.08L301,198.44a.47.47,0,0,1,.48-.4h2.72c.28,0,.4.16.32.4l-6.84,18.36a.52.52,0,0,1-.52.4Z"/><path d="M307.35,212.44a15,15,0,0,1-.64-4.84,14.86,14.86,0,0,1,.6-4.84c1.08-3.32,3.88-5.16,7.52-5.16a7.42,7.42,0,0,1,7.52,5.16,16.72,16.72,0,0,1,.6,5.48.39.39,0,0,1-.44.4H310.39a.21.21,0,0,0-.24.24,7.18,7.18,0,0,0,.32,2.32,4.73,4.73,0,0,0,4.84,3.32,6.26,6.26,0,0,0,4.92-2.12.41.41,0,0,1,.6-.08l1.64,1.48a.36.36,0,0,1,0,.56,9.32,9.32,0,0,1-7.48,3.28C311.15,217.64,308.39,215.76,307.35,212.44ZM319.27,206a.21.21,0,0,0,.24-.24,6.74,6.74,0,0,0-.28-2.16,4.73,4.73,0,0,0-8.8,0,6.74,6.74,0,0,0-.28,2.16.21.21,0,0,0,.24.24Z"/><path d="M328,217.2a.38.38,0,0,1-.4-.4V198.44a.38.38,0,0,1,.4-.4h2.56a.38.38,0,0,1,.4.4v2h0a5.34,5.34,0,0,1,5.08-2.8A5.89,5.89,0,0,1,340,199c.2.2.24.36.08.56l-1.48,2a.36.36,0,0,1-.56.08,5.4,5.4,0,0,0-3-.92c-2.92,0-4.12,2.28-4.12,5.6V216.8a.38.38,0,0,1-.4.4Z"/><path d="M343.47,193.72a.38.38,0,0,1-.4-.4V190.4a.38.38,0,0,1,.4-.4h2.72a.38.38,0,0,1,.4.4v2.92a.38.38,0,0,1-.4.4Zm.08,23.48a.38.38,0,0,1-.4-.4V198.44a.38.38,0,0,1,.4-.4h2.56a.38.38,0,0,1,.4.4V216.8a.38.38,0,0,1-.4.4Z"/><path d="M353.31,217.2a.38.38,0,0,1-.4-.4V201a.21.21,0,0,0-.24-.24H351a.38.38,0,0,1-.4-.4v-1.92a.38.38,0,0,1,.4-.4h1.64a.21.21,0,0,0,.24-.24v-1.64c0-4.52,1.84-6.16,5.84-6.16h1.48a.38.38,0,0,1,.4.4v2.32a.38.38,0,0,1-.4.4h-1c-2.44,0-2.92.52-2.92,2.88v1.8a.21.21,0,0,0,.24.24h3.72a.38.38,0,0,1,.4.4v1.92a.38.38,0,0,1-.4.4h-3.72a.21.21,0,0,0-.24.24v15.8a.38.38,0,0,1-.4.4Zm12-23.48a.38.38,0,0,1-.4-.4V190.4a.38.38,0,0,1,.4-.4H368a.38.38,0,0,1,.4.4v2.92a.38.38,0,0,1-.4.4Zm.08,23.48a.38.38,0,0,1-.4-.4V198.44a.38.38,0,0,1,.4-.4H368a.38.38,0,0,1,.4.4V216.8a.38.38,0,0,1-.4.4Z"/><path d="M386.11,224.39a.38.38,0,0,1-.4-.4v-9h0c-.92,1.52-2.56,2.68-5.44,2.68-3.32,0-5.64-1.56-6.6-4.6a21.94,21.94,0,0,1,0-10.84c1-3,3.28-4.6,6.6-4.6,2.88,0,4.52,1.12,5.44,2.64h0v-1.8a.38.38,0,0,1,.4-.4h2.56a.38.38,0,0,1,.4.4V224a.38.38,0,0,1-.4.4Zm-.84-12.79a12.31,12.31,0,0,0,.44-4,12.47,12.47,0,0,0-.44-4,4.53,4.53,0,0,0-8.44,0,13.63,13.63,0,0,0-.44,4,13.29,13.29,0,0,0,.44,4,4.51,4.51,0,0,0,8.44,0Z"/><path d="M406.87,217.2a.38.38,0,0,1-.4-.4V215h0a5.84,5.84,0,0,1-5.24,2.64c-4.2,0-6.64-2.88-6.64-7.24v-12a.38.38,0,0,1,.4-.4h2.56a.38.38,0,0,1,.4.4V209.6c0,3.12,1.4,4.92,4.24,4.92,2.6,0,4.32-1.84,4.32-4.72V198.44a.38.38,0,0,1,.4-.4h2.56a.38.38,0,0,1,.4.4V216.8a.38.38,0,0,1-.4.4Z"/><path d="M415.07,212.44a15,15,0,0,1-.64-4.84,14.86,14.86,0,0,1,.6-4.84c1.08-3.32,3.88-5.16,7.52-5.16a7.42,7.42,0,0,1,7.52,5.16,16.72,16.72,0,0,1,.6,5.48.39.39,0,0,1-.44.4H418.11a.21.21,0,0,0-.24.24,7.18,7.18,0,0,0,.32,2.32,4.73,4.73,0,0,0,4.84,3.32A6.26,6.26,0,0,0,428,212.4a.41.41,0,0,1,.6-.08l1.64,1.48a.36.36,0,0,1,0,.56,9.32,9.32,0,0,1-7.48,3.28C418.87,217.64,416.11,215.76,415.07,212.44ZM427,206a.21.21,0,0,0,.24-.24,6.74,6.74,0,0,0-.28-2.16,4.73,4.73,0,0,0-8.8,0,6.74,6.74,0,0,0-.28,2.16.21.21,0,0,0,.24.24Z"/><path d="M21,252.76a.39.39,0,0,1,0-.56l1.64-1.76a.39.39,0,0,1,.56,0,9.31,9.31,0,0,0,5.92,2.2c2.8,0,4.2-1.2,4.2-2.92,0-1.52-.72-2.36-3.72-2.68l-2-.2c-3.76-.4-5.72-2.28-5.72-5.4,0-3.64,2.6-5.84,7.12-5.84a11.46,11.46,0,0,1,6.8,2.12.39.39,0,0,1,.08.56L34.46,240a.39.39,0,0,1-.56.08,10.09,10.09,0,0,0-5.16-1.56c-2.4,0-3.64,1.08-3.64,2.64s.92,2.32,3.76,2.6l2,.2c3.88.36,5.76,2.32,5.76,5.4,0,3.76-2.72,6.28-7.72,6.28A11.91,11.91,0,0,1,21,252.76Z"/><path d="M41.42,231.72a.38.38,0,0,1-.4-.4V228.4a.38.38,0,0,1,.4-.4h2.72a.38.38,0,0,1,.4.4v2.92a.38.38,0,0,1-.4.4Zm.08,23.48a.38.38,0,0,1-.4-.4V236.44a.38.38,0,0,1,.4-.4h2.56a.38.38,0,0,1,.4.4V254.8a.38.38,0,0,1-.4.4Z"/><path d="M49.7,250.44a15,15,0,0,1-.64-4.84,14.86,14.86,0,0,1,.6-4.84c1.08-3.32,3.88-5.16,7.52-5.16a7.42,7.42,0,0,1,7.52,5.16,16.72,16.72,0,0,1,.6,5.48.39.39,0,0,1-.44.4H52.74a.21.21,0,0,0-.24.24,7.18,7.18,0,0,0,.32,2.32,4.73,4.73,0,0,0,4.84,3.32,6.26,6.26,0,0,0,4.92-2.12.41.41,0,0,1,.6-.08l1.64,1.48a.36.36,0,0,1,0,.56,9.32,9.32,0,0,1-7.48,3.28C53.5,255.64,50.74,253.76,49.7,250.44ZM61.62,244a.21.21,0,0,0,.24-.24,6.74,6.74,0,0,0-.28-2.16,4.73,4.73,0,0,0-8.8,0,6.74,6.74,0,0,0-.28,2.16.21.21,0,0,0,.24.24Z"/><path d="M94.37,255.2a.38.38,0,0,1-.4-.4V243.6c0-3.08-1.4-4.88-4.28-4.88a4.32,4.32,0,0,0-4.4,4.68v11.4a.37.37,0,0,1-.39.4H82.34a.38.38,0,0,1-.4-.4V243.6c0-3.08-1.4-4.88-4.28-4.88-2.6,0-4.4,1.84-4.4,4.68v11.4a.38.38,0,0,1-.4.4H70.3a.38.38,0,0,1-.4-.4V236.44a.38.38,0,0,1,.4-.4h2.56a.38.38,0,0,1,.4.4v1.76h0a6.77,6.77,0,0,1,11,.4h0a7.1,7.1,0,0,1,6.19-3c4.44,0,6.84,2.84,6.84,7.2v12a.38.38,0,0,1-.4.4Z"/><path d="M103.3,262.39a.38.38,0,0,1-.4-.4V236.44a.38.38,0,0,1,.4-.4h2.56a.38.38,0,0,1,.4.4v1.8h0c.92-1.52,2.56-2.64,5.44-2.64,3.31,0,5.63,1.56,6.59,4.6a21.94,21.94,0,0,1,0,10.84c-1,3-3.28,4.6-6.59,4.6-2.88,0-4.52-1.16-5.44-2.68h0v9a.38.38,0,0,1-.4.4Zm11.83-12.79a13.29,13.29,0,0,0,.44-4,13.63,13.63,0,0,0-.44-4,4.52,4.52,0,0,0-8.43,0,12.47,12.47,0,0,0-.44,4,12.31,12.31,0,0,0,.44,4,4.5,4.5,0,0,0,8.43,0Z"/><path d="M124,255.2a.38.38,0,0,1-.4-.4V236.44a.38.38,0,0,1,.4-.4h2.56a.38.38,0,0,1,.4.4v2h0a5.34,5.34,0,0,1,5.08-2.8A5.84,5.84,0,0,1,136,237c.2.2.24.36.08.56l-1.47,2a.36.36,0,0,1-.56.08,5.4,5.4,0,0,0-3-.92c-2.92,0-4.12,2.28-4.12,5.6V254.8a.38.38,0,0,1-.4.4Z"/><path d="M138,250.44a15,15,0,0,1-.64-4.84,14.86,14.86,0,0,1,.6-4.84c1.08-3.32,3.88-5.16,7.52-5.16a7.42,7.42,0,0,1,7.51,5.16,16.72,16.72,0,0,1,.6,5.48.39.39,0,0,1-.44.4H141a.21.21,0,0,0-.24.24,7.18,7.18,0,0,0,.32,2.32,4.73,4.73,0,0,0,4.84,3.32,6.24,6.24,0,0,0,4.91-2.12.41.41,0,0,1,.6-.08l1.64,1.48a.36.36,0,0,1,0,.56,9.29,9.29,0,0,1-7.47,3.28C141.78,255.64,139,253.76,138,250.44ZM149.9,244a.21.21,0,0,0,.23-.24,6.74,6.74,0,0,0-.28-2.16,4.72,4.72,0,0,0-8.79,0,6.74,6.74,0,0,0-.28,2.16.21.21,0,0,0,.24.24Z"/><path d="M166.46,250.44a15,15,0,0,1-.64-4.84,14.86,14.86,0,0,1,.6-4.84c1.08-3.32,3.88-5.16,7.51-5.16a7.42,7.42,0,0,1,7.52,5.16,16.72,16.72,0,0,1,.6,5.48.39.39,0,0,1-.44.4H169.5a.21.21,0,0,0-.24.24,7.18,7.18,0,0,0,.32,2.32,4.71,4.71,0,0,0,4.83,3.32,6.26,6.26,0,0,0,4.92-2.12.41.41,0,0,1,.6-.08l1.64,1.48a.36.36,0,0,1,0,.56,9.32,9.32,0,0,1-7.48,3.28C170.26,255.64,167.5,253.76,166.46,250.44ZM178.37,244a.21.21,0,0,0,.24-.24,6.74,6.74,0,0,0-.28-2.16,4.72,4.72,0,0,0-8.79,0,6.74,6.74,0,0,0-.28,2.16.21.21,0,0,0,.24.24Z"/><path d="M191.25,255.4c-3.36,0-4.68-1.6-4.68-5v-22a.38.38,0,0,1,.41-.4h2.55a.38.38,0,0,1,.4.4v21.76c0,1.6.6,2.12,1.92,2.12h.76a.38.38,0,0,1,.4.4V255a.38.38,0,0,1-.4.4Z"/><path d="M205.21,250.44a15,15,0,0,1-.64-4.84,14.86,14.86,0,0,1,.6-4.84c1.08-3.32,3.88-5.16,7.52-5.16a7.42,7.42,0,0,1,7.52,5.16,16.72,16.72,0,0,1,.6,5.48.39.39,0,0,1-.44.4H208.25a.21.21,0,0,0-.24.24,7.18,7.18,0,0,0,.32,2.32,4.73,4.73,0,0,0,4.84,3.32,6.26,6.26,0,0,0,4.92-2.12.41.41,0,0,1,.6-.08l1.64,1.48a.36.36,0,0,1,0,.56,9.32,9.32,0,0,1-7.48,3.28C209,255.64,206.25,253.76,205.21,250.44ZM217.13,244a.21.21,0,0,0,.24-.24,6.74,6.74,0,0,0-.28-2.16,4.73,4.73,0,0,0-8.8,0,6.74,6.74,0,0,0-.28,2.16.21.21,0,0,0,.24.24Z"/><path d="M224.09,252.76a.39.39,0,0,1,0-.56l1.64-1.76a.39.39,0,0,1,.56,0,9.31,9.31,0,0,0,5.92,2.2c2.8,0,4.2-1.2,4.2-2.92,0-1.52-.72-2.36-3.72-2.68l-2-.2c-3.76-.4-5.72-2.28-5.72-5.4,0-3.64,2.6-5.84,7.12-5.84a11.46,11.46,0,0,1,6.8,2.12.39.39,0,0,1,.08.56L237.57,240a.39.39,0,0,1-.56.08,10.09,10.09,0,0,0-5.16-1.56c-2.4,0-3.64,1.08-3.64,2.64s.92,2.32,3.76,2.6l2,.2c3.88.36,5.76,2.32,5.76,5.4,0,3.76-2.72,6.28-7.72,6.28A11.91,11.91,0,0,1,224.09,252.76Z"/><path d="M249.77,255.4c-3.72,0-5.16-1.68-5.16-5.44V239a.21.21,0,0,0-.24-.24h-1.6a.38.38,0,0,1-.4-.4v-1.92a.38.38,0,0,1,.4-.4h1.6a.21.21,0,0,0,.24-.24v-5.4a.38.38,0,0,1,.4-.4h2.56a.38.38,0,0,1,.4.4v5.4a.21.21,0,0,0,.24.24h3a.38.38,0,0,1,.4.4v1.92a.38.38,0,0,1-.4.4h-3a.21.21,0,0,0-.24.24v10.84c0,1.92.72,2.44,2.44,2.44h.84a.38.38,0,0,1,.4.4V255a.38.38,0,0,1-.4.4Z"/><path d="M267.65,255.2a.38.38,0,0,1-.4-.4v-1.68h0c-.88,1.44-2.76,2.52-5.68,2.52-3.64,0-6.44-1.88-6.44-5.76,0-4,2.8-5.92,7.48-5.92h4.36a.21.21,0,0,0,.24-.24v-1.4c0-2.64-1-3.76-4.6-3.76a7.45,7.45,0,0,0-4.64,1.36c-.2.16-.44.16-.56,0L256.29,238a.42.42,0,0,1,.08-.56,10.63,10.63,0,0,1,6.52-1.88c5.44,0,7.52,1.8,7.52,6.52V254.8a.38.38,0,0,1-.4.4Zm-.48-6.2v-2.12a.21.21,0,0,0-.24-.24h-3.84c-3.32,0-4.76,1-4.76,3.12,0,2,1.44,3,4,3C265.33,252.76,267.17,251.36,267.17,249Z"/><path d="M288,255.2a.38.38,0,0,1-.4-.4V253h0c-.92,1.52-2.56,2.68-5.44,2.68-3.32,0-5.64-1.56-6.6-4.6a21.94,21.94,0,0,1,0-10.84c1-3,3.28-4.6,6.6-4.6,2.88,0,4.52,1.12,5.44,2.64h0V228.4a.38.38,0,0,1,.4-.4h2.56a.38.38,0,0,1,.4.4v26.4a.38.38,0,0,1-.4.4Zm-.84-5.6a12.31,12.31,0,0,0,.44-4,12.47,12.47,0,0,0-.44-4,4.53,4.53,0,0,0-8.44,0,13.63,13.63,0,0,0-.44,4,13.29,13.29,0,0,0,.44,4,4.51,4.51,0,0,0,8.44,0Z"/><path d="M296.21,250.48a18.77,18.77,0,0,1,0-9.72c1-3.28,3.84-5.16,7.56-5.16s6.52,1.88,7.56,5.16a18.77,18.77,0,0,1,0,9.72c-1,3.24-3.84,5.16-7.56,5.16S297.25,253.72,296.21,250.48Zm11.88-1a12.55,12.55,0,0,0,.44-3.92,12.27,12.27,0,0,0-.44-3.88,4.61,4.61,0,0,0-8.64,0,12.27,12.27,0,0,0-.44,3.88,12.55,12.55,0,0,0,.44,3.92,4.61,4.61,0,0,0,8.64,0Z"/><path d="M337.37,255.2a.38.38,0,0,1-.4-.4V253h0c-.92,1.52-2.56,2.68-5.44,2.68-3.32,0-5.64-1.56-6.6-4.6a21.94,21.94,0,0,1,0-10.84c1-3,3.28-4.6,6.6-4.6,2.88,0,4.52,1.12,5.44,2.64h0V228.4a.38.38,0,0,1,.4-.4h2.56a.38.38,0,0,1,.4.4v26.4a.38.38,0,0,1-.4.4Zm-.84-5.6a12.31,12.31,0,0,0,.44-4,12.47,12.47,0,0,0-.44-4,4.53,4.53,0,0,0-8.44,0,13.63,13.63,0,0,0-.44,4,13.29,13.29,0,0,0,.44,4,4.51,4.51,0,0,0,8.44,0Z"/><path d="M345.57,250.44a15,15,0,0,1-.64-4.84,14.86,14.86,0,0,1,.6-4.84c1.08-3.32,3.88-5.16,7.52-5.16a7.42,7.42,0,0,1,7.52,5.16,16.72,16.72,0,0,1,.6,5.48.39.39,0,0,1-.44.4H348.61a.21.21,0,0,0-.24.24,7.18,7.18,0,0,0,.32,2.32,4.73,4.73,0,0,0,4.84,3.32,6.26,6.26,0,0,0,4.92-2.12.41.41,0,0,1,.6-.08l1.64,1.48a.36.36,0,0,1,0,.56,9.32,9.32,0,0,1-7.48,3.28C349.37,255.64,346.61,253.76,345.57,250.44ZM357.49,244a.21.21,0,0,0,.24-.24,6.74,6.74,0,0,0-.28-2.16,4.73,4.73,0,0,0-8.8,0,6.74,6.74,0,0,0-.28,2.16.21.21,0,0,0,.24.24Z"/><path d="M373.25,252.76a.39.39,0,0,1,0-.56l1.64-1.76a.39.39,0,0,1,.56,0,9.31,9.31,0,0,0,5.92,2.2c2.8,0,4.2-1.2,4.2-2.92,0-1.52-.72-2.36-3.72-2.68l-2-.2c-3.76-.4-5.72-2.28-5.72-5.4,0-3.64,2.6-5.84,7.12-5.84a11.46,11.46,0,0,1,6.8,2.12.39.39,0,0,1,.08.56L386.73,240a.39.39,0,0,1-.56.08,10.09,10.09,0,0,0-5.16-1.56c-2.4,0-3.64,1.08-3.64,2.64s.92,2.32,3.76,2.6l2,.2c3.88.36,5.76,2.32,5.76,5.4,0,3.76-2.72,6.28-7.72,6.28A11.91,11.91,0,0,1,373.25,252.76Z"/><path d="M405.41,255.2a.38.38,0,0,1-.4-.4V253h0a5.84,5.84,0,0,1-5.24,2.64c-4.2,0-6.64-2.88-6.64-7.24v-12a.38.38,0,0,1,.4-.4h2.56a.38.38,0,0,1,.4.4V247.6c0,3.12,1.4,4.92,4.24,4.92,2.6,0,4.32-1.84,4.32-4.72V236.44a.38.38,0,0,1,.4-.4H408a.38.38,0,0,1,.4.4V254.8a.38.38,0,0,1-.4.4Z"/><path d="M28.94,278.76c1.08-3.32,3.88-5.16,7.56-5.16a7.68,7.68,0,0,1,6.56,3.24c.12.2.12.36-.12.56l-1.76,1.44a.36.36,0,0,1-.56,0,4.71,4.71,0,0,0-4.12-2.08,4.16,4.16,0,0,0-4.28,3,17.5,17.5,0,0,0,0,7.8,4.16,4.16,0,0,0,4.28,3,4.71,4.71,0,0,0,4.12-2.08.36.36,0,0,1,.56,0l1.76,1.44c.24.2.24.36.12.56a7.68,7.68,0,0,1-6.56,3.24c-3.68,0-6.48-1.84-7.56-5.16a20,20,0,0,1,0-9.72Z"/><path d="M58.7,293.2a.38.38,0,0,1-.4-.4v-1.68h0c-.88,1.44-2.76,2.52-5.68,2.52-3.64,0-6.44-1.88-6.44-5.76,0-4,2.8-5.92,7.48-5.92H58a.21.21,0,0,0,.24-.24v-1.4c0-2.64-1-3.76-4.6-3.76A7.45,7.45,0,0,0,49,277.92c-.2.16-.44.16-.56,0L47.34,276a.42.42,0,0,1,.08-.56,10.63,10.63,0,0,1,6.52-1.88c5.44,0,7.52,1.8,7.52,6.52V292.8a.38.38,0,0,1-.4.4Zm-.48-6.2v-2.12a.21.21,0,0,0-.24-.24H54.14c-3.32,0-4.76,1-4.76,3.12,0,2,1.44,3,4,3C56.38,290.76,58.22,289.36,58.22,287Z"/><path d="M71.66,293.4c-3.36,0-4.68-1.6-4.68-5v-22a.38.38,0,0,1,.4-.4h2.56a.38.38,0,0,1,.4.4v21.76c0,1.6.6,2.12,1.92,2.12H73a.38.38,0,0,1,.4.4V293a.38.38,0,0,1-.4.4Z"/><path d="M76.66,293.2a.38.38,0,0,1-.4-.4v-2.12a.6.6,0,0,1,.16-.44l10.52-13.08v-.08H77.18a.38.38,0,0,1-.4-.4v-2.24a.38.38,0,0,1,.4-.4H90.54a.38.38,0,0,1,.4.4v2.24a.6.6,0,0,1-.16.44l-10.44,13v.08h10.2a.38.38,0,0,1,.4.4v2.24a.38.38,0,0,1-.4.4Z"/><path d="M107.21,293.2a.38.38,0,0,1-.4-.4v-1.68h0c-.87,1.44-2.75,2.52-5.67,2.52-3.64,0-6.44-1.88-6.44-5.76,0-4,2.8-5.92,7.48-5.92h4.36a.21.21,0,0,0,.23-.24v-1.4c0-2.64-1-3.76-4.59-3.76a7.45,7.45,0,0,0-4.64,1.36c-.2.16-.44.16-.56,0L95.86,276a.42.42,0,0,1,.08-.56,10.63,10.63,0,0,1,6.52-1.88c5.44,0,7.51,1.8,7.51,6.52V292.8a.38.38,0,0,1-.4.4Zm-.48-6.2v-2.12a.21.21,0,0,0-.23-.24h-3.84c-3.32,0-4.76,1-4.76,3.12,0,2,1.44,3,4,3C104.9,290.76,106.73,289.36,106.73,287Z"/><path d="M127.57,293.2a.38.38,0,0,1-.4-.4V291h0c-.92,1.52-2.55,2.68-5.43,2.68-3.32,0-5.64-1.56-6.6-4.6a21.94,21.94,0,0,1,0-10.84c1-3,3.28-4.6,6.6-4.6,2.88,0,4.51,1.12,5.43,2.64h0V266.4a.38.38,0,0,1,.4-.4h2.56a.38.38,0,0,1,.4.4v26.4a.38.38,0,0,1-.4.4Zm-.84-5.6a12.31,12.31,0,0,0,.44-4,12.47,12.47,0,0,0-.44-4,4.52,4.52,0,0,0-8.43,0,13.63,13.63,0,0,0-.44,4,13.29,13.29,0,0,0,.44,4,4.5,4.5,0,0,0,8.43,0Z"/><path d="M135.78,288.48a18.77,18.77,0,0,1,0-9.72c1-3.28,3.84-5.16,7.56-5.16s6.52,1.88,7.56,5.16a18.77,18.77,0,0,1,0,9.72c-1,3.24-3.84,5.16-7.56,5.16S136.82,291.72,135.78,288.48Zm11.88-1a12.55,12.55,0,0,0,.44-3.92,12.27,12.27,0,0,0-.44-3.88,4.61,4.61,0,0,0-8.64,0,12.27,12.27,0,0,0-.44,3.88,12.55,12.55,0,0,0,.44,3.92,4.61,4.61,0,0,0,8.64,0Z"/><path d="M176.93,293.2a.38.38,0,0,1-.4-.4V291h0c-.92,1.52-2.55,2.68-5.43,2.68-3.32,0-5.64-1.56-6.6-4.6a21.94,21.94,0,0,1,0-10.84c1-3,3.28-4.6,6.6-4.6,2.88,0,4.51,1.12,5.43,2.64h0V266.4a.38.38,0,0,1,.4-.4h2.56a.38.38,0,0,1,.4.4v26.4a.38.38,0,0,1-.4.4Zm-.84-5.6a12.31,12.31,0,0,0,.44-4,12.47,12.47,0,0,0-.44-4,4.52,4.52,0,0,0-8.43,0,13.63,13.63,0,0,0-.44,4,13.29,13.29,0,0,0,.44,4,4.5,4.5,0,0,0,8.43,0Z"/><path d="M185.14,288.44a15,15,0,0,1-.64-4.84,14.86,14.86,0,0,1,.6-4.84c1.08-3.32,3.88-5.16,7.51-5.16a7.42,7.42,0,0,1,7.52,5.16,16.72,16.72,0,0,1,.6,5.48.39.39,0,0,1-.44.4H188.18a.21.21,0,0,0-.24.24,7.18,7.18,0,0,0,.32,2.32,4.72,4.72,0,0,0,4.83,3.32A6.26,6.26,0,0,0,198,288.4a.41.41,0,0,1,.6-.08l1.64,1.48a.36.36,0,0,1,0,.56,9.32,9.32,0,0,1-7.48,3.28C188.94,293.64,186.18,291.76,185.14,288.44ZM197.05,282a.21.21,0,0,0,.24-.24,6.74,6.74,0,0,0-.28-2.16,4.72,4.72,0,0,0-8.79,0,6.74,6.74,0,0,0-.28,2.16.21.21,0,0,0,.24.24Z"/><path d="M212.82,290.76a.39.39,0,0,1,0-.56l1.64-1.76a.39.39,0,0,1,.56,0,9.28,9.28,0,0,0,5.91,2.2c2.8,0,4.2-1.2,4.2-2.92,0-1.52-.72-2.36-3.72-2.68l-2-.2c-3.75-.4-5.71-2.28-5.71-5.4,0-3.64,2.59-5.84,7.11-5.84a11.46,11.46,0,0,1,6.8,2.12.39.39,0,0,1,.08.56L226.29,278a.39.39,0,0,1-.56.08,10.09,10.09,0,0,0-5.16-1.56c-2.4,0-3.63,1.08-3.63,2.64s.91,2.32,3.75,2.6l2,.2c3.88.36,5.76,2.32,5.76,5.4,0,3.76-2.72,6.28-7.72,6.28A11.9,11.9,0,0,1,212.82,290.76Z"/><path d="M232.42,288.44a18.91,18.91,0,0,1,0-9.68c1.07-3.32,3.87-5.16,7.51-5.16a7.42,7.42,0,0,1,7.52,5.16,16.72,16.72,0,0,1,.6,5.48.39.39,0,0,1-.44.4H235.45a.21.21,0,0,0-.24.24,7.18,7.18,0,0,0,.32,2.32,4.73,4.73,0,0,0,4.84,3.32,6.26,6.26,0,0,0,4.92-2.12.41.41,0,0,1,.6-.08l1.64,1.48a.36.36,0,0,1,0,.56,9.32,9.32,0,0,1-7.48,3.28C236.21,293.64,233.45,291.76,232.42,288.44ZM244.33,282a.21.21,0,0,0,.24-.24,6.74,6.74,0,0,0-.28-2.16,4.73,4.73,0,0,0-8.8,0,6.74,6.74,0,0,0-.28,2.16.21.21,0,0,0,.24.24Z"/><path d="M252.21,298a.36.36,0,0,1,0-.56l1.64-1.64a.37.37,0,0,1,.6,0,6.39,6.39,0,0,0,4.52,1.92c3.16,0,4.84-1.64,4.84-5.15v-2.24h0c-.88,1.6-2.52,2.64-5.32,2.64a6.28,6.28,0,0,1-6.44-4.64,20.16,20.16,0,0,1,0-10.08,6.28,6.28,0,0,1,6.44-4.64c2.8,0,4.44,1,5.32,2.64h0v-1.8a.38.38,0,0,1,.4-.4h2.56a.38.38,0,0,1,.4.4v17.92c0,5.43-3,8.47-8.36,8.47A8.66,8.66,0,0,1,252.21,298Zm11.2-11a11.65,11.65,0,0,0,.44-3.72,11.81,11.81,0,0,0-.44-3.72,4.32,4.32,0,0,0-8.12,0,12,12,0,0,0-.48,3.72,11.83,11.83,0,0,0,.48,3.72,3.91,3.91,0,0,0,4,2.88A4,4,0,0,0,263.41,287Z"/><path d="M285,293.2a.38.38,0,0,1-.4-.4V291h0a5.84,5.84,0,0,1-5.24,2.64c-4.2,0-6.64-2.88-6.64-7.24v-12a.38.38,0,0,1,.4-.4h2.56a.38.38,0,0,1,.4.4V285.6c0,3.12,1.4,4.92,4.24,4.92,2.6,0,4.32-1.84,4.32-4.72V274.44a.38.38,0,0,1,.4-.4h2.56a.38.38,0,0,1,.4.4V292.8a.38.38,0,0,1-.4.4Z"/><path d="M294.13,293.2a.38.38,0,0,1-.4-.4V274.44a.38.38,0,0,1,.4-.4h2.56a.38.38,0,0,1,.4.4v2h0a5.34,5.34,0,0,1,5.08-2.8,5.89,5.89,0,0,1,3.92,1.44c.2.2.24.36.08.56l-1.48,2a.36.36,0,0,1-.56.08,5.4,5.4,0,0,0-3-.92c-2.92,0-4.12,2.28-4.12,5.6V292.8a.38.38,0,0,1-.4.4Z"/><path d="M309.65,269.72a.38.38,0,0,1-.4-.4V266.4a.38.38,0,0,1,.4-.4h2.72a.38.38,0,0,1,.4.4v2.92a.38.38,0,0,1-.4.4Zm.08,23.48a.38.38,0,0,1-.4-.4V274.44a.38.38,0,0,1,.4-.4h2.56a.38.38,0,0,1,.4.4V292.8a.38.38,0,0,1-.4.4Z"/><path d="M330.45,293.2a.38.38,0,0,1-.4-.4V291h0c-.92,1.52-2.56,2.68-5.44,2.68-3.32,0-5.64-1.56-6.6-4.6a21.94,21.94,0,0,1,0-10.84c1-3,3.28-4.6,6.6-4.6,2.88,0,4.52,1.12,5.44,2.64h0V266.4a.38.38,0,0,1,.4-.4H333a.38.38,0,0,1,.4.4v26.4a.38.38,0,0,1-.4.4Zm-.84-5.6a12.31,12.31,0,0,0,.44-4,12.47,12.47,0,0,0-.44-4,4.53,4.53,0,0,0-8.44,0,13.63,13.63,0,0,0-.44,4,13.29,13.29,0,0,0,.44,4,4.51,4.51,0,0,0,8.44,0Z"/><path d="M350.77,293.2a.38.38,0,0,1-.4-.4v-1.68h0c-.88,1.44-2.76,2.52-5.68,2.52-3.64,0-6.44-1.88-6.44-5.76,0-4,2.8-5.92,7.48-5.92h4.36a.21.21,0,0,0,.24-.24v-1.4c0-2.64-1-3.76-4.6-3.76a7.45,7.45,0,0,0-4.64,1.36c-.2.16-.44.16-.56,0L339.41,276a.42.42,0,0,1,.08-.56A10.63,10.63,0,0,1,346,273.6c5.44,0,7.52,1.8,7.52,6.52V292.8a.38.38,0,0,1-.4.4Zm-.48-6.2v-2.12a.21.21,0,0,0-.24-.24h-3.84c-3.32,0-4.76,1-4.76,3.12,0,2,1.44,3,4,3C348.45,290.76,350.29,289.36,350.29,287Z"/><path d="M371.13,293.2a.38.38,0,0,1-.4-.4V291h0c-.92,1.52-2.56,2.68-5.44,2.68-3.32,0-5.64-1.56-6.6-4.6a21.94,21.94,0,0,1,0-10.84c1-3,3.28-4.6,6.6-4.6,2.88,0,4.52,1.12,5.44,2.64h0V266.4a.38.38,0,0,1,.4-.4h2.56a.38.38,0,0,1,.4.4v26.4a.38.38,0,0,1-.4.4Zm-.84-5.6a12.31,12.31,0,0,0,.44-4,12.47,12.47,0,0,0-.44-4,4.53,4.53,0,0,0-8.44,0,13.63,13.63,0,0,0-.44,4,13.29,13.29,0,0,0,.44,4,4.51,4.51,0,0,0,8.44,0Z"/><path d="M388.81,300.39a.38.38,0,0,1-.4-.4v-2.32a.38.38,0,0,1,.4-.4h.72c1.56,0,2.4-.68,3.24-2.87l.64-1.76-7-18.2c-.08-.24,0-.4.32-.4h2.8a.47.47,0,0,1,.48.4l5,13.84h.08l4.84-13.84a.47.47,0,0,1,.48-.4h2.72c.24,0,.4.16.32.4l-7.56,20.23c-1.68,4.52-3.16,5.72-6,5.72Z"/><path d="M38,328.76a.39.39,0,0,1,0-.56l1.64-1.76a.39.39,0,0,1,.56,0,9.31,9.31,0,0,0,5.92,2.2c2.8,0,4.2-1.2,4.2-2.92,0-1.52-.72-2.36-3.72-2.68l-2-.2c-3.76-.4-5.72-2.28-5.72-5.4,0-3.64,2.6-5.84,7.12-5.84a11.46,11.46,0,0,1,6.8,2.12.39.39,0,0,1,.08.56L51.44,316a.39.39,0,0,1-.56.08,10.09,10.09,0,0,0-5.16-1.56c-2.4,0-3.64,1.08-3.64,2.64s.92,2.32,3.76,2.6l2,.2c3.88.36,5.76,2.32,5.76,5.4,0,3.76-2.72,6.28-7.72,6.28A11.91,11.91,0,0,1,38,328.76Z"/><path d="M57.56,326.48a18.77,18.77,0,0,1,0-9.72c1-3.28,3.84-5.16,7.56-5.16s6.52,1.88,7.56,5.16a18.77,18.77,0,0,1,0,9.72c-1,3.24-3.84,5.16-7.56,5.16S58.6,329.72,57.56,326.48Zm11.88-1a12.55,12.55,0,0,0,.44-3.92,12.27,12.27,0,0,0-.44-3.88,4.61,4.61,0,0,0-8.64,0,12.27,12.27,0,0,0-.44,3.88,12.55,12.55,0,0,0,.44,3.92,4.61,4.61,0,0,0,8.64,0Z"/><path d="M82.52,331.4c-3.36,0-4.68-1.6-4.68-5v-22a.38.38,0,0,1,.4-.4H80.8a.38.38,0,0,1,.4.4v21.76c0,1.6.6,2.12,1.92,2.12h.76a.38.38,0,0,1,.4.4V331a.38.38,0,0,1-.4.4Z"/><path d="M88.52,307.72a.38.38,0,0,1-.4-.4V304.4a.38.38,0,0,1,.4-.4h2.72a.38.38,0,0,1,.4.4v2.92a.38.38,0,0,1-.4.4Zm.08,23.48a.38.38,0,0,1-.4-.4V312.44a.38.38,0,0,1,.4-.4h2.56a.38.38,0,0,1,.4.4V330.8a.38.38,0,0,1-.4.4Z"/><path d="M96.76,316.76c1.08-3.32,3.88-5.16,7.56-5.16a7.68,7.68,0,0,1,6.56,3.24c.11.2.11.36-.13.56L109,316.84a.36.36,0,0,1-.56,0,4.71,4.71,0,0,0-4.12-2.08,4.16,4.16,0,0,0-4.28,3,17.5,17.5,0,0,0,0,7.8,4.16,4.16,0,0,0,4.28,3,4.71,4.71,0,0,0,4.12-2.08.36.36,0,0,1,.56,0l1.75,1.44c.24.2.24.36.13.56a7.68,7.68,0,0,1-6.56,3.24c-3.68,0-6.48-1.84-7.56-5.16a20,20,0,0,1,0-9.72Z"/><path d="M115.72,307.72a.38.38,0,0,1-.4-.4V304.4a.38.38,0,0,1,.4-.4h2.72a.38.38,0,0,1,.4.4v2.92a.38.38,0,0,1-.4.4Zm.08,23.48a.38.38,0,0,1-.4-.4V312.44a.38.38,0,0,1,.4-.4h2.56a.38.38,0,0,1,.4.4V330.8a.38.38,0,0,1-.4.4Z"/><path d="M130.08,331.4c-3.72,0-5.16-1.68-5.16-5.44V315a.21.21,0,0,0-.24-.24h-1.6a.38.38,0,0,1-.4-.4v-1.92a.38.38,0,0,1,.4-.4h1.6a.21.21,0,0,0,.24-.24v-5.4a.38.38,0,0,1,.4-.4h2.56a.38.38,0,0,1,.4.4v5.4a.21.21,0,0,0,.24.24h3a.38.38,0,0,1,.4.4v1.92a.38.38,0,0,1-.4.4h-3a.21.21,0,0,0-.24.24v10.84c0,1.92.72,2.44,2.44,2.44h.84a.38.38,0,0,1,.4.4V331a.38.38,0,0,1-.4.4Z"/><path d="M135.84,326.44a15,15,0,0,1-.64-4.84,14.86,14.86,0,0,1,.6-4.84c1.08-3.32,3.88-5.16,7.51-5.16a7.42,7.42,0,0,1,7.52,5.16,16.72,16.72,0,0,1,.6,5.48.39.39,0,0,1-.44.4H138.88a.21.21,0,0,0-.24.24,7.18,7.18,0,0,0,.32,2.32,4.71,4.71,0,0,0,4.83,3.32,6.26,6.26,0,0,0,4.92-2.12.41.41,0,0,1,.6-.08L151,327.8a.36.36,0,0,1,0,.56,9.32,9.32,0,0,1-7.48,3.28C139.64,331.64,136.88,329.76,135.84,326.44ZM147.75,320a.21.21,0,0,0,.24-.24,6.74,6.74,0,0,0-.28-2.16,4.72,4.72,0,0,0-8.79,0,6.74,6.74,0,0,0-.28,2.16.21.21,0,0,0,.24.24Z"/><path d="M164.27,316.76c1.08-3.32,3.88-5.16,7.56-5.16a7.68,7.68,0,0,1,6.56,3.24c.12.2.12.36-.12.56l-1.76,1.44a.36.36,0,0,1-.56,0,4.71,4.71,0,0,0-4.12-2.08,4.16,4.16,0,0,0-4.28,3,17.5,17.5,0,0,0,0,7.8,4.16,4.16,0,0,0,4.28,3,4.71,4.71,0,0,0,4.12-2.08.36.36,0,0,1,.56,0l1.76,1.44c.24.2.24.36.12.56a7.68,7.68,0,0,1-6.56,3.24c-3.68,0-6.48-1.84-7.56-5.16a20,20,0,0,1,0-9.72Z"/><path d="M194,331.2a.38.38,0,0,1-.4-.4v-1.68h0c-.88,1.44-2.76,2.52-5.68,2.52-3.64,0-6.44-1.88-6.44-5.76,0-4,2.8-5.92,7.48-5.92h4.36a.21.21,0,0,0,.24-.24v-1.4c0-2.64-1-3.76-4.6-3.76a7.45,7.45,0,0,0-4.64,1.36c-.2.16-.44.16-.56,0L182.67,314a.42.42,0,0,1,.08-.56,10.63,10.63,0,0,1,6.52-1.88c5.44,0,7.52,1.8,7.52,6.52V330.8a.38.38,0,0,1-.4.4Zm-.48-6.2v-2.12a.21.21,0,0,0-.24-.24h-3.84c-3.32,0-4.76,1-4.76,3.12,0,2,1.44,3,4,3C191.71,328.76,193.55,327.36,193.55,325Z"/><path d="M226.87,331.2a.38.38,0,0,1-.4-.4V319.6c0-3.08-1.4-4.88-4.28-4.88a4.32,4.32,0,0,0-4.4,4.68v11.4a.38.38,0,0,1-.4.4h-2.56a.38.38,0,0,1-.4-.4V319.6c0-3.08-1.4-4.88-4.28-4.88-2.6,0-4.4,1.84-4.4,4.68v11.4a.38.38,0,0,1-.4.4h-2.56a.38.38,0,0,1-.4-.4V312.44a.38.38,0,0,1,.4-.4h2.56a.38.38,0,0,1,.4.4v1.76h0a6.77,6.77,0,0,1,11,.4h0a7.13,7.13,0,0,1,6.2-3c4.44,0,6.84,2.84,6.84,7.2v12a.38.38,0,0,1-.4.4Z"/><path d="M235.79,331.2a.38.38,0,0,1-.4-.4V304.4a.38.38,0,0,1,.4-.4h2.56a.38.38,0,0,1,.4.4v9.84h0c.92-1.52,2.56-2.64,5.44-2.64,3.32,0,5.64,1.56,6.6,4.6a21.94,21.94,0,0,1,0,10.84c-1,3-3.28,4.6-6.6,4.6-2.88,0-4.52-1.16-5.44-2.68h0v1.84a.38.38,0,0,1-.4.4Zm11.84-5.6a13.29,13.29,0,0,0,.44-4,13.63,13.63,0,0,0-.44-4,4.53,4.53,0,0,0-8.44,0,12.47,12.47,0,0,0-.44,4,12.31,12.31,0,0,0,.44,4,4.51,4.51,0,0,0,8.44,0Z"/><path d="M256.43,307.72a.38.38,0,0,1-.4-.4V304.4a.38.38,0,0,1,.4-.4h2.72a.38.38,0,0,1,.4.4v2.92a.38.38,0,0,1-.4.4Zm.08,23.48a.38.38,0,0,1-.4-.4V312.44a.38.38,0,0,1,.4-.4h2.56a.38.38,0,0,1,.4.4V330.8a.38.38,0,0,1-.4.4Z"/><path d="M264.71,326.48a18.77,18.77,0,0,1,0-9.72c1-3.28,3.84-5.16,7.56-5.16s6.52,1.88,7.56,5.16a18.77,18.77,0,0,1,0,9.72c-1,3.24-3.84,5.16-7.56,5.16S265.75,329.72,264.71,326.48Zm11.88-1a12.55,12.55,0,0,0,.44-3.92,12.27,12.27,0,0,0-.44-3.88,4.61,4.61,0,0,0-8.64,0,12.27,12.27,0,0,0-.44,3.88,12.55,12.55,0,0,0,.44,3.92,4.61,4.61,0,0,0,8.64,0Z"/><path d="M305.87,331.2a.38.38,0,0,1-.4-.4V329h0c-.92,1.52-2.56,2.68-5.44,2.68-3.32,0-5.64-1.56-6.6-4.6a21.94,21.94,0,0,1,0-10.84c1-3,3.28-4.6,6.6-4.6,2.88,0,4.52,1.12,5.44,2.64h0V304.4a.38.38,0,0,1,.4-.4h2.56a.38.38,0,0,1,.4.4v26.4a.38.38,0,0,1-.4.4Zm-.84-5.6a12.31,12.31,0,0,0,.44-4,12.47,12.47,0,0,0-.44-4,4.53,4.53,0,0,0-8.44,0,13.63,13.63,0,0,0-.44,4,13.29,13.29,0,0,0,.44,4,4.51,4.51,0,0,0,8.44,0Z"/><path d="M314.07,326.44a15,15,0,0,1-.64-4.84,14.86,14.86,0,0,1,.6-4.84c1.08-3.32,3.88-5.16,7.52-5.16a7.42,7.42,0,0,1,7.52,5.16,16.72,16.72,0,0,1,.6,5.48.39.39,0,0,1-.44.4H317.11a.21.21,0,0,0-.24.24,7.18,7.18,0,0,0,.32,2.32,4.73,4.73,0,0,0,4.84,3.32A6.26,6.26,0,0,0,327,326.4a.41.41,0,0,1,.6-.08l1.64,1.48a.36.36,0,0,1,0,.56,9.32,9.32,0,0,1-7.48,3.28C317.87,331.64,315.11,329.76,314.07,326.44ZM326,320a.21.21,0,0,0,.24-.24,6.74,6.74,0,0,0-.28-2.16,4.73,4.73,0,0,0-8.8,0,6.74,6.74,0,0,0-.28,2.16.21.21,0,0,0,.24.24Z"/><path d="M341.75,328.76a.39.39,0,0,1,0-.56l1.64-1.76a.39.39,0,0,1,.56,0,9.31,9.31,0,0,0,5.92,2.2c2.8,0,4.2-1.2,4.2-2.92,0-1.52-.72-2.36-3.72-2.68l-2-.2c-3.76-.4-5.72-2.28-5.72-5.4,0-3.64,2.6-5.84,7.12-5.84a11.46,11.46,0,0,1,6.8,2.12.39.39,0,0,1,.08.56L355.23,316a.39.39,0,0,1-.56.08,10.09,10.09,0,0,0-5.16-1.56c-2.4,0-3.64,1.08-3.64,2.64s.92,2.32,3.76,2.6l2,.2c3.88.36,5.76,2.32,5.76,5.4,0,3.76-2.72,6.28-7.72,6.28A11.91,11.91,0,0,1,341.75,328.76Z"/><path d="M361.35,326.44a15,15,0,0,1-.64-4.84,14.86,14.86,0,0,1,.6-4.84c1.08-3.32,3.88-5.16,7.52-5.16a7.42,7.42,0,0,1,7.52,5.16,16.72,16.72,0,0,1,.6,5.48.39.39,0,0,1-.44.4H364.39a.21.21,0,0,0-.24.24,7.18,7.18,0,0,0,.32,2.32,4.73,4.73,0,0,0,4.84,3.32,6.26,6.26,0,0,0,4.92-2.12.41.41,0,0,1,.6-.08l1.64,1.48a.36.36,0,0,1,0,.56,9.32,9.32,0,0,1-7.48,3.28C365.15,331.64,362.39,329.76,361.35,326.44ZM373.27,320a.21.21,0,0,0,.24-.24,6.74,6.74,0,0,0-.28-2.16,4.73,4.73,0,0,0-8.8,0,6.74,6.74,0,0,0-.28,2.16.21.21,0,0,0,.24.24Z"/><path d="M382,331.2a.38.38,0,0,1-.4-.4V312.44a.38.38,0,0,1,.4-.4h2.56a.38.38,0,0,1,.4.4v2h0a5.34,5.34,0,0,1,5.08-2.8A5.89,5.89,0,0,1,394,313c.2.2.24.36.08.56l-1.48,2a.36.36,0,0,1-.56.08,5.4,5.4,0,0,0-3-.92c-2.92,0-4.12,2.28-4.12,5.6V330.8a.38.38,0,0,1-.4.4Z"/><path d="M146.13,369.2a.38.38,0,0,1-.4-.4V357.6c0-3.08-1.4-4.88-4.27-4.88-2.6,0-4.4,1.84-4.4,4.68v11.4a.38.38,0,0,1-.4.4H134.1a.38.38,0,0,1-.4-.4V350.44a.38.38,0,0,1,.4-.4h2.56a.38.38,0,0,1,.4.4v1.76h0a6.06,6.06,0,0,1,5.36-2.6c4.15,0,6.63,2.84,6.63,7.2v12a.38.38,0,0,1-.4.4Z"/><path d="M154.14,364.44a15,15,0,0,1-.64-4.84,14.86,14.86,0,0,1,.6-4.84c1.08-3.32,3.88-5.16,7.52-5.16a7.42,7.42,0,0,1,7.51,5.16,16.72,16.72,0,0,1,.6,5.48.39.39,0,0,1-.44.4H157.18a.21.21,0,0,0-.24.24,7.18,7.18,0,0,0,.32,2.32,4.73,4.73,0,0,0,4.84,3.32A6.24,6.24,0,0,0,167,364.4a.41.41,0,0,1,.6-.08l1.64,1.48a.36.36,0,0,1,0,.56,9.31,9.31,0,0,1-7.47,3.28C157.94,369.64,155.18,367.76,154.14,364.44ZM166.05,358a.21.21,0,0,0,.24-.24,6.74,6.74,0,0,0-.28-2.16,4.72,4.72,0,0,0-8.79,0,6.74,6.74,0,0,0-.28,2.16.21.21,0,0,0,.24.24Z"/><path d="M173.78,354.76c1.08-3.32,3.88-5.16,7.55-5.16a7.68,7.68,0,0,1,6.56,3.24c.12.2.12.36-.12.56L186,354.84a.36.36,0,0,1-.56,0,4.71,4.71,0,0,0-4.12-2.08,4.15,4.15,0,0,0-4.27,3,17.5,17.5,0,0,0,0,7.8,4.15,4.15,0,0,0,4.27,3,4.71,4.71,0,0,0,4.12-2.08.36.36,0,0,1,.56,0l1.76,1.44c.24.2.24.36.12.56a7.68,7.68,0,0,1-6.56,3.24c-3.67,0-6.47-1.84-7.55-5.16a20,20,0,0,1,0-9.72Z"/><path d="M191.42,364.44a15,15,0,0,1-.64-4.84,14.86,14.86,0,0,1,.6-4.84c1.08-3.32,3.88-5.16,7.51-5.16a7.42,7.42,0,0,1,7.52,5.16,16.72,16.72,0,0,1,.6,5.48.39.39,0,0,1-.44.4H194.46a.21.21,0,0,0-.24.24,7.18,7.18,0,0,0,.32,2.32,4.71,4.71,0,0,0,4.83,3.32,6.26,6.26,0,0,0,4.92-2.12.41.41,0,0,1,.6-.08l1.64,1.48a.36.36,0,0,1,0,.56,9.32,9.32,0,0,1-7.48,3.28C195.22,369.64,192.46,367.76,191.42,364.44ZM203.33,358a.21.21,0,0,0,.24-.24,6.74,6.74,0,0,0-.28-2.16,4.72,4.72,0,0,0-8.79,0,6.74,6.74,0,0,0-.28,2.16.21.21,0,0,0,.24.24Z"/><path d="M210.3,366.76a.39.39,0,0,1,0-.56l1.64-1.76a.39.39,0,0,1,.56,0,9.3,9.3,0,0,0,5.91,2.2c2.8,0,4.2-1.2,4.2-2.92,0-1.52-.72-2.36-3.72-2.68l-2-.2c-3.75-.4-5.71-2.28-5.71-5.4,0-3.64,2.6-5.84,7.11-5.84a11.46,11.46,0,0,1,6.8,2.12.39.39,0,0,1,.08.56L223.77,354a.39.39,0,0,1-.56.08,10.09,10.09,0,0,0-5.16-1.56c-2.39,0-3.63,1.08-3.63,2.64s.92,2.32,3.75,2.6l2,.2c3.88.36,5.76,2.32,5.76,5.4,0,3.76-2.72,6.28-7.72,6.28A11.9,11.9,0,0,1,210.3,366.76Z"/><path d="M242,369.2a.38.38,0,0,1-.4-.4v-1.68h0c-.88,1.44-2.76,2.52-5.68,2.52-3.63,0-6.43-1.88-6.43-5.76,0-4,2.8-5.92,7.47-5.92h4.36a.21.21,0,0,0,.24-.24v-1.4c0-2.64-1-3.76-4.6-3.76a7.42,7.42,0,0,0-4.63,1.36c-.2.16-.44.16-.56,0L230.66,352a.42.42,0,0,1,.08-.56,10.62,10.62,0,0,1,6.51-1.88c5.44,0,7.52,1.8,7.52,6.52V368.8a.38.38,0,0,1-.4.4Zm-.48-6.2v-2.12a.21.21,0,0,0-.24-.24h-3.84c-3.31,0-4.75,1-4.75,3.12,0,2,1.44,3,4,3C239.69,366.76,241.53,365.36,241.53,363Z"/><path d="M250.78,369.2a.38.38,0,0,1-.4-.4V350.44a.38.38,0,0,1,.4-.4h2.55a.37.37,0,0,1,.4.4v2h0a5.34,5.34,0,0,1,5.08-2.8,5.89,5.89,0,0,1,3.92,1.44c.2.2.24.36.08.56l-1.48,2a.36.36,0,0,1-.56.08,5.4,5.4,0,0,0-3-.92c-2.91,0-4.12,2.28-4.12,5.6V368.8a.37.37,0,0,1-.4.4Z"/><path d="M266.29,345.72a.37.37,0,0,1-.39-.4V342.4a.37.37,0,0,1,.39-.4H269a.38.38,0,0,1,.4.4v2.92a.38.38,0,0,1-.4.4Zm.08,23.48a.38.38,0,0,1-.4-.4V350.44a.38.38,0,0,1,.4-.4h2.56a.38.38,0,0,1,.4.4V368.8a.38.38,0,0,1-.4.4Z"/><path d="M274.57,364.48a18.77,18.77,0,0,1,0-9.72c1-3.28,3.84-5.16,7.56-5.16s6.52,1.88,7.56,5.16a18.77,18.77,0,0,1,0,9.72c-1,3.24-3.84,5.16-7.56,5.16S275.61,367.72,274.57,364.48Zm11.88-1a12.55,12.55,0,0,0,.44-3.92,12.27,12.27,0,0,0-.44-3.88,4.61,4.61,0,0,0-8.64,0,12.27,12.27,0,0,0-.44,3.88,12.55,12.55,0,0,0,.44,3.92,4.61,4.61,0,0,0,8.64,0Z"/><path d="M294.45,365.36a.38.38,0,0,1,.4-.4h3a.38.38,0,0,1,.4.4v3.44a.38.38,0,0,1-.4.4h-3a.38.38,0,0,1-.4-.4Z"/></g></g></svg>