<svg xmlns="http://www.w3.org/2000/svg" viewBox="0 0 476.33 300.83"><title>r7</title><g id="Capa_2" data-name="Capa 2"><g id="recomendaciones"><path d="M56.6.4A.38.38,0,0,1,57,0H73.36a.38.38,0,0,1,.4.4V2.92a.38.38,0,0,1-.4.4h-13a.21.21,0,0,0-.24.24v8a.21.21,0,0,0,.24.24h11a.38.38,0,0,1,.4.4v2.52a.38.38,0,0,1-.4.4h-11a.21.21,0,0,0-.24.24v8.28a.21.21,0,0,0,.24.24h13a.38.38,0,0,1,.4.4V26.8a.38.38,0,0,1-.4.4H57a.38.38,0,0,1-.4-.4Z"/><path d="M76.92,24.76a.39.39,0,0,1,0-.56l1.64-1.76a.39.39,0,0,1,.56,0A9.31,9.31,0,0,0,85,24.64c2.8,0,4.2-1.2,4.2-2.92,0-1.52-.72-2.36-3.72-2.68l-2-.2c-3.76-.4-5.72-2.28-5.72-5.4,0-3.64,2.6-5.84,7.12-5.84a11.46,11.46,0,0,1,6.8,2.12.39.39,0,0,1,.08.56L90.4,12a.39.39,0,0,1-.56.08,10.09,10.09,0,0,0-5.16-1.56c-2.4,0-3.64,1.08-3.64,2.64s.92,2.32,3.76,2.6l2,.2c3.88.36,5.76,2.32,5.76,5.4,0,3.76-2.72,6.28-7.72,6.28A11.91,11.91,0,0,1,76.92,24.76Z"/><path d="M102.6,27.4c-3.72,0-5.16-1.68-5.16-5.44V11a.21.21,0,0,0-.24-.24H95.6a.38.38,0,0,1-.4-.4V8.44a.38.38,0,0,1,.4-.4h1.6a.21.21,0,0,0,.24-.24V2.4a.38.38,0,0,1,.4-.4h2.56a.38.38,0,0,1,.4.4V7.8A.21.21,0,0,0,101,8h3a.38.38,0,0,1,.4.4v1.92a.38.38,0,0,1-.4.4h-3a.21.21,0,0,0-.24.24V21.84c0,1.92.72,2.44,2.44,2.44h.84a.38.38,0,0,1,.4.4V27a.38.38,0,0,1-.4.4Z"/><path d="M108.36,22.44a15,15,0,0,1-.64-4.84,14.86,14.86,0,0,1,.6-4.84c1.08-3.32,3.88-5.16,7.52-5.16s6.44,1.88,7.51,5.16a16.72,16.72,0,0,1,.6,5.48.39.39,0,0,1-.44.4H111.4a.21.21,0,0,0-.24.24,7.18,7.18,0,0,0,.32,2.32,4.73,4.73,0,0,0,4.84,3.32,6.22,6.22,0,0,0,4.91-2.12c.21-.2.4-.24.61-.08l1.63,1.48a.36.36,0,0,1,0,.56A9.28,9.28,0,0,1,116,27.64C112.16,27.64,109.4,25.76,108.36,22.44ZM120.28,16a.21.21,0,0,0,.24-.24,6.74,6.74,0,0,0-.28-2.16,4.73,4.73,0,0,0-8.8,0,6.74,6.74,0,0,0-.28,2.16.21.21,0,0,0,.24.24Z"/><path d="M136,24.76a.39.39,0,0,1,0-.56l1.64-1.76a.39.39,0,0,1,.56,0,9.3,9.3,0,0,0,5.91,2.2c2.8,0,4.2-1.2,4.2-2.92,0-1.52-.72-2.36-3.72-2.68l-2-.2c-3.76-.4-5.72-2.28-5.72-5.4,0-3.64,2.6-5.84,7.12-5.84a11.45,11.45,0,0,1,6.79,2.12.39.39,0,0,1,.08.56L149.51,12a.39.39,0,0,1-.56.08,10,10,0,0,0-5.15-1.56c-2.4,0-3.64,1.08-3.64,2.64s.92,2.32,3.76,2.6l2,.2c3.88.36,5.76,2.32,5.76,5.4,0,3.76-2.72,6.28-7.71,6.28A11.91,11.91,0,0,1,136,24.76Z"/><path d="M156.48,3.72a.38.38,0,0,1-.4-.4V.4a.38.38,0,0,1,.4-.4h2.72a.38.38,0,0,1,.4.4V3.32a.38.38,0,0,1-.4.4Zm.08,23.48a.38.38,0,0,1-.4-.4V8.44a.38.38,0,0,1,.4-.4h2.56a.38.38,0,0,1,.4.4V26.8a.38.38,0,0,1-.4.4Z"/><path d="M164.76,22.44a15,15,0,0,1-.64-4.84,14.86,14.86,0,0,1,.6-4.84c1.08-3.32,3.87-5.16,7.51-5.16a7.42,7.42,0,0,1,7.52,5.16,16.72,16.72,0,0,1,.6,5.48.39.39,0,0,1-.44.4H167.79a.21.21,0,0,0-.24.24,7.18,7.18,0,0,0,.32,2.32,4.73,4.73,0,0,0,4.84,3.32,6.26,6.26,0,0,0,4.92-2.12.41.41,0,0,1,.6-.08l1.64,1.48a.36.36,0,0,1,0,.56,9.32,9.32,0,0,1-7.48,3.28C168.55,27.64,165.8,25.76,164.76,22.44ZM176.67,16a.21.21,0,0,0,.24-.24,6.74,6.74,0,0,0-.28-2.16,4.73,4.73,0,0,0-8.8,0,6.74,6.74,0,0,0-.28,2.16.21.21,0,0,0,.24.24Z"/><path d="M209.43,27.2a.38.38,0,0,1-.4-.4V15.6c0-3.08-1.4-4.88-4.28-4.88a4.32,4.32,0,0,0-4.4,4.68V26.8a.38.38,0,0,1-.4.4h-2.56a.38.38,0,0,1-.4-.4V15.6c0-3.08-1.4-4.88-4.28-4.88-2.6,0-4.4,1.84-4.4,4.68V26.8a.38.38,0,0,1-.4.4h-2.55a.38.38,0,0,1-.4-.4V8.44a.38.38,0,0,1,.4-.4h2.55a.38.38,0,0,1,.4.4V10.2h0a6.77,6.77,0,0,1,11,.4h0a7.13,7.13,0,0,1,6.2-3c4.44,0,6.84,2.84,6.84,7.2v12a.38.38,0,0,1-.4.4Z"/><path d="M218.35,34.39a.38.38,0,0,1-.4-.4V8.44a.38.38,0,0,1,.4-.4h2.56a.38.38,0,0,1,.4.4v1.8h0c.92-1.52,2.56-2.64,5.44-2.64,3.32,0,5.64,1.56,6.6,4.6a15.84,15.84,0,0,1,.68,5.4,16,16,0,0,1-.68,5.44c-1,3-3.28,4.6-6.6,4.6-2.88,0-4.52-1.16-5.44-2.68h0v9a.38.38,0,0,1-.4.4ZM230.19,21.6a13.29,13.29,0,0,0,.44-4,13.63,13.63,0,0,0-.44-4,4.53,4.53,0,0,0-8.44,0,12.47,12.47,0,0,0-.44,4,12.31,12.31,0,0,0,.44,4,4.51,4.51,0,0,0,8.44,0Z"/><path d="M239.07,27.2a.38.38,0,0,1-.4-.4V8.44a.38.38,0,0,1,.4-.4h2.56a.38.38,0,0,1,.4.4v2h0a5.34,5.34,0,0,1,5.08-2.8A5.89,5.89,0,0,1,251.07,9c.2.2.24.36.08.56l-1.48,2a.36.36,0,0,1-.56.08,5.4,5.4,0,0,0-3-.92c-2.92,0-4.12,2.28-4.12,5.6V26.8a.38.38,0,0,1-.4.4Z"/><path d="M253,22.44a15,15,0,0,1-.64-4.84,14.86,14.86,0,0,1,.6-4.84c1.08-3.32,3.88-5.16,7.52-5.16A7.42,7.42,0,0,1,268,12.76a16.72,16.72,0,0,1,.6,5.48.39.39,0,0,1-.44.4H256.07a.21.21,0,0,0-.24.24,7.18,7.18,0,0,0,.32,2.32A4.73,4.73,0,0,0,261,24.52a6.26,6.26,0,0,0,4.92-2.12.41.41,0,0,1,.6-.08l1.64,1.48a.36.36,0,0,1,0,.56,9.32,9.32,0,0,1-7.48,3.28C256.83,27.64,254.07,25.76,253,22.44ZM265,16a.21.21,0,0,0,.24-.24,6.74,6.74,0,0,0-.28-2.16,4.73,4.73,0,0,0-8.8,0,6.74,6.74,0,0,0-.28,2.16.21.21,0,0,0,.24.24Z"/><path d="M293.63,27.2a.38.38,0,0,1-.4-.4V25.12h0c-.88,1.44-2.76,2.52-5.68,2.52-3.64,0-6.44-1.88-6.44-5.76,0-4,2.8-5.92,7.48-5.92h4.36a.21.21,0,0,0,.24-.24v-1.4c0-2.64-1-3.76-4.6-3.76a7.45,7.45,0,0,0-4.64,1.36c-.2.16-.44.16-.56,0L282.27,10a.42.42,0,0,1,.08-.56,10.63,10.63,0,0,1,6.52-1.88c5.44,0,7.52,1.8,7.52,6.52V26.8a.38.38,0,0,1-.4.4Zm-.48-6.2V18.88a.21.21,0,0,0-.24-.24h-3.84c-3.32,0-4.76,1-4.76,3.12,0,2,1.44,3,4,3C291.31,24.76,293.15,23.36,293.15,21Z"/><path d="M307.55,27.4c-3.72,0-5.16-1.68-5.16-5.44V11a.21.21,0,0,0-.24-.24h-1.6a.38.38,0,0,1-.4-.4V8.44a.38.38,0,0,1,.4-.4h1.6a.21.21,0,0,0,.24-.24V2.4a.38.38,0,0,1,.4-.4h2.56a.38.38,0,0,1,.4.4V7.8A.21.21,0,0,0,306,8h3a.38.38,0,0,1,.4.4v1.92a.38.38,0,0,1-.4.4h-3a.21.21,0,0,0-.24.24V21.84c0,1.92.72,2.44,2.44,2.44H309a.38.38,0,0,1,.4.4V27a.38.38,0,0,1-.4.4Z"/><path d="M313.31,22.44a15,15,0,0,1-.64-4.84,14.86,14.86,0,0,1,.6-4.84c1.08-3.32,3.88-5.16,7.52-5.16a7.42,7.42,0,0,1,7.52,5.16,16.72,16.72,0,0,1,.6,5.48.39.39,0,0,1-.44.4H316.35a.21.21,0,0,0-.24.24,7.18,7.18,0,0,0,.32,2.32,4.73,4.73,0,0,0,4.84,3.32,6.26,6.26,0,0,0,4.92-2.12.41.41,0,0,1,.6-.08l1.64,1.48a.36.36,0,0,1,0,.56A9.32,9.32,0,0,1,321,27.64C317.11,27.64,314.35,25.76,313.31,22.44ZM325.23,16a.21.21,0,0,0,.24-.24,6.74,6.74,0,0,0-.28-2.16,4.73,4.73,0,0,0-8.8,0,6.74,6.74,0,0,0-.28,2.16.21.21,0,0,0,.24.24Z"/><path d="M346,27.2a.38.38,0,0,1-.4-.4V15.6c0-3.08-1.4-4.88-4.28-4.88-2.6,0-4.4,1.84-4.4,4.68V26.8a.38.38,0,0,1-.4.4h-2.56a.38.38,0,0,1-.4-.4V8.44a.38.38,0,0,1,.4-.4h2.56a.38.38,0,0,1,.4.4V10.2h0a6.06,6.06,0,0,1,5.36-2.6c4.16,0,6.64,2.84,6.64,7.2v12a.38.38,0,0,1-.4.4Z"/><path d="M360,27.4c-3.72,0-5.16-1.68-5.16-5.44V11a.21.21,0,0,0-.24-.24H353a.38.38,0,0,1-.4-.4V8.44A.38.38,0,0,1,353,8h1.6a.21.21,0,0,0,.24-.24V2.4a.38.38,0,0,1,.4-.4h2.56a.38.38,0,0,1,.4.4V7.8a.21.21,0,0,0,.24.24h3a.38.38,0,0,1,.4.4v1.92a.38.38,0,0,1-.4.4h-3a.21.21,0,0,0-.24.24V21.84c0,1.92.72,2.44,2.44,2.44h.84a.38.38,0,0,1,.4.4V27a.38.38,0,0,1-.4.4Z"/><path d="M365.79,22.48a14.39,14.39,0,0,1-.64-4.88,14.29,14.29,0,0,1,.64-4.84c1-3.28,3.84-5.16,7.56-5.16s6.52,1.88,7.56,5.16a14.29,14.29,0,0,1,.64,4.84,14.39,14.39,0,0,1-.64,4.88c-1,3.24-3.84,5.16-7.56,5.16S366.83,25.72,365.79,22.48Zm11.88-1a12.55,12.55,0,0,0,.44-3.92,12.27,12.27,0,0,0-.44-3.88,4.61,4.61,0,0,0-8.64,0,12.27,12.27,0,0,0-.44,3.88,12.55,12.55,0,0,0,.44,3.92,4.61,4.61,0,0,0,8.64,0Z"/><path d="M406.55,27.2a.38.38,0,0,1-.4-.4V25.12h0c-.88,1.44-2.76,2.52-5.68,2.52-3.64,0-6.44-1.88-6.44-5.76,0-4,2.8-5.92,7.48-5.92h4.36a.21.21,0,0,0,.24-.24v-1.4c0-2.64-1-3.76-4.6-3.76a7.45,7.45,0,0,0-4.64,1.36c-.2.16-.44.16-.56,0L395.19,10a.42.42,0,0,1,.08-.56,10.63,10.63,0,0,1,6.52-1.88c5.44,0,7.52,1.8,7.52,6.52V26.8a.38.38,0,0,1-.4.4Zm-.48-6.2V18.88a.21.21,0,0,0-.24-.24H402c-3.32,0-4.76,1-4.76,3.12,0,2,1.44,3,4,3C404.23,24.76,406.07,23.36,406.07,21Z"/><path d="M419.51,27.4c-3.36,0-4.68-1.6-4.68-5V.4a.38.38,0,0,1,.4-.4h2.56a.38.38,0,0,1,.4.4V22.16c0,1.6.6,2.12,1.92,2.12h.76a.38.38,0,0,1,.4.4V27a.38.38,0,0,1-.4.4Z"/><path d="M31.34,60.44a15,15,0,0,1-.64-4.84,14.86,14.86,0,0,1,.6-4.84c1.08-3.32,3.88-5.16,7.52-5.16a7.42,7.42,0,0,1,7.52,5.16,16.72,16.72,0,0,1,.6,5.48.39.39,0,0,1-.44.4H34.38a.21.21,0,0,0-.24.24,7.18,7.18,0,0,0,.32,2.32,4.73,4.73,0,0,0,4.84,3.32,6.26,6.26,0,0,0,4.92-2.12.41.41,0,0,1,.6-.08l1.64,1.48a.36.36,0,0,1,0,.56A9.32,9.32,0,0,1,39,65.64C35.14,65.64,32.38,63.76,31.34,60.44ZM43.26,54a.21.21,0,0,0,.24-.24,6.74,6.74,0,0,0-.28-2.16,4.33,4.33,0,0,0-4.4-3,4.33,4.33,0,0,0-4.4,3,6.74,6.74,0,0,0-.28,2.16.21.21,0,0,0,.24.24Z"/><path d="M50.22,62.76a.39.39,0,0,1,0-.56l1.64-1.76a.39.39,0,0,1,.56,0,9.31,9.31,0,0,0,5.92,2.2c2.8,0,4.2-1.2,4.2-2.92,0-1.52-.72-2.36-3.72-2.68l-2-.2c-3.76-.4-5.72-2.28-5.72-5.4,0-3.64,2.6-5.84,7.12-5.84A11.46,11.46,0,0,1,65,47.72a.39.39,0,0,1,.08.56L63.7,50a.39.39,0,0,1-.56.08A10.09,10.09,0,0,0,58,48.52c-2.4,0-3.64,1.08-3.64,2.64s.92,2.32,3.76,2.6l2,.2c3.88.36,5.76,2.32,5.76,5.4,0,3.76-2.72,6.28-7.72,6.28A11.91,11.91,0,0,1,50.22,62.76Z"/><path d="M75.9,65.4c-3.72,0-5.16-1.68-5.16-5.44V49a.21.21,0,0,0-.24-.24H68.9a.38.38,0,0,1-.4-.4V46.44a.38.38,0,0,1,.4-.4h1.6a.21.21,0,0,0,.24-.24V40.4a.38.38,0,0,1,.4-.4H73.7a.38.38,0,0,1,.4.4v5.4a.21.21,0,0,0,.24.24h3a.38.38,0,0,1,.4.4v1.92a.38.38,0,0,1-.4.4h-3a.21.21,0,0,0-.24.24V59.84c0,1.92.72,2.44,2.44,2.44h.84a.38.38,0,0,1,.4.4V65a.38.38,0,0,1-.4.4Z"/><path d="M93.78,65.2a.38.38,0,0,1-.4-.4V63.12h0c-.88,1.44-2.76,2.52-5.68,2.52-3.64,0-6.44-1.88-6.44-5.76,0-4,2.8-5.92,7.48-5.92h4.36a.21.21,0,0,0,.24-.24v-1.4c0-2.64-1-3.76-4.6-3.76a7.45,7.45,0,0,0-4.64,1.36c-.2.16-.44.16-.56,0L82.42,48a.42.42,0,0,1,.08-.56A10.63,10.63,0,0,1,89,45.6c5.44,0,7.52,1.8,7.52,6.52V64.8a.38.38,0,0,1-.4.4ZM93.3,59V56.88a.21.21,0,0,0-.24-.24H89.22c-3.32,0-4.76,1-4.76,3.12,0,2,1.44,3,4,3C91.46,62.76,93.3,61.36,93.3,59Z"/><path d="M114.14,65.2a.38.38,0,0,1-.4-.4V63h0c-.92,1.52-2.56,2.68-5.44,2.68-3.32,0-5.64-1.56-6.6-4.6A16,16,0,0,1,101,55.6a15.84,15.84,0,0,1,.68-5.4c1-3,3.28-4.6,6.6-4.6,2.88,0,4.52,1.12,5.44,2.64h0V38.4a.38.38,0,0,1,.4-.4h2.55a.37.37,0,0,1,.4.4V64.8a.37.37,0,0,1-.4.4Zm-.84-5.6a12.31,12.31,0,0,0,.44-4,12.47,12.47,0,0,0-.44-4,4.53,4.53,0,0,0-8.44,0,13.63,13.63,0,0,0-.44,4,13.29,13.29,0,0,0,.44,4,4.51,4.51,0,0,0,8.44,0Z"/><path d="M122.34,60.48a14.39,14.39,0,0,1-.64-4.88,14.29,14.29,0,0,1,.64-4.84c1-3.28,3.84-5.16,7.56-5.16s6.52,1.88,7.55,5.16a14.29,14.29,0,0,1,.64,4.84,14.39,14.39,0,0,1-.64,4.88c-1,3.24-3.83,5.16-7.55,5.16S123.38,63.72,122.34,60.48Zm11.88-1a12.55,12.55,0,0,0,.44-3.92,12.27,12.27,0,0,0-.44-3.88,4.61,4.61,0,0,0-8.64,0,12.27,12.27,0,0,0-.44,3.88,12.55,12.55,0,0,0,.44,3.92,4.61,4.61,0,0,0,8.64,0Z"/><path d="M163.49,65.2a.38.38,0,0,1-.4-.4V63h0c-.92,1.52-2.56,2.68-5.43,2.68-3.32,0-5.64-1.56-6.6-4.6a16,16,0,0,1-.68-5.44,15.84,15.84,0,0,1,.68-5.4c1-3,3.28-4.6,6.6-4.6,2.87,0,4.51,1.12,5.43,2.64h0V38.4a.38.38,0,0,1,.4-.4h2.56a.38.38,0,0,1,.4.4V64.8a.38.38,0,0,1-.4.4Zm-.84-5.6a12.31,12.31,0,0,0,.44-4,12.47,12.47,0,0,0-.44-4,4.52,4.52,0,0,0-8.43,0,13.63,13.63,0,0,0-.44,4,13.29,13.29,0,0,0,.44,4,4.5,4.5,0,0,0,8.43,0Z"/><path d="M171.7,60.44a15,15,0,0,1-.64-4.84,14.86,14.86,0,0,1,.6-4.84c1.08-3.32,3.88-5.16,7.51-5.16a7.42,7.42,0,0,1,7.52,5.16,16.72,16.72,0,0,1,.6,5.48.39.39,0,0,1-.44.4H174.74a.21.21,0,0,0-.24.24,7.18,7.18,0,0,0,.32,2.32,4.73,4.73,0,0,0,4.83,3.32,6.26,6.26,0,0,0,4.92-2.12.41.41,0,0,1,.6-.08l1.64,1.48a.36.36,0,0,1,0,.56,9.31,9.31,0,0,1-7.47,3.28C175.5,65.64,172.74,63.76,171.7,60.44ZM183.61,54a.21.21,0,0,0,.24-.24,6.74,6.74,0,0,0-.28-2.16,4.72,4.72,0,0,0-8.79,0,6.74,6.74,0,0,0-.28,2.16.21.21,0,0,0,.24.24Z"/><path d="M201.09,72.39a.38.38,0,0,1-.4-.4V46.44a.38.38,0,0,1,.4-.4h2.56a.38.38,0,0,1,.4.4v1.8h0c.92-1.52,2.56-2.64,5.44-2.64,3.32,0,5.64,1.56,6.6,4.6a15.84,15.84,0,0,1,.68,5.4,16,16,0,0,1-.68,5.44c-1,3-3.28,4.6-6.6,4.6-2.88,0-4.52-1.16-5.44-2.68h0v9a.38.38,0,0,1-.4.4ZM212.93,59.6a13.29,13.29,0,0,0,.44-4,13.63,13.63,0,0,0-.44-4,4.53,4.53,0,0,0-8.44,0,12.47,12.47,0,0,0-.44,4,12.31,12.31,0,0,0,.44,4,4.51,4.51,0,0,0,8.44,0Z"/><path d="M221.73,41.72a.38.38,0,0,1-.4-.4V38.4a.38.38,0,0,1,.4-.4h2.72a.38.38,0,0,1,.4.4v2.92a.38.38,0,0,1-.4.4Zm.08,23.48a.38.38,0,0,1-.4-.4V46.44a.38.38,0,0,1,.4-.4h2.56a.38.38,0,0,1,.4.4V64.8a.38.38,0,0,1-.4.4Z"/><path d="M229.21,62.76a.39.39,0,0,1,0-.56l1.64-1.76a.39.39,0,0,1,.56,0,9.31,9.31,0,0,0,5.92,2.2c2.8,0,4.2-1.2,4.2-2.92,0-1.52-.72-2.36-3.72-2.68l-2-.2c-3.76-.4-5.72-2.28-5.72-5.4,0-3.64,2.6-5.84,7.12-5.84a11.46,11.46,0,0,1,6.8,2.12.39.39,0,0,1,.08.56L242.69,50a.39.39,0,0,1-.56.08A10.09,10.09,0,0,0,237,48.52c-2.4,0-3.64,1.08-3.64,2.64s.92,2.32,3.76,2.6l2,.2c3.88.36,5.76,2.32,5.76,5.4,0,3.76-2.72,6.28-7.72,6.28A11.91,11.91,0,0,1,229.21,62.76Z"/><path d="M248.81,60.48a14.39,14.39,0,0,1-.64-4.88,14.29,14.29,0,0,1,.64-4.84c1-3.28,3.84-5.16,7.56-5.16s6.52,1.88,7.56,5.16a14.29,14.29,0,0,1,.64,4.84,14.39,14.39,0,0,1-.64,4.88c-1,3.24-3.84,5.16-7.56,5.16S249.85,63.72,248.81,60.48Zm11.88-1a12.55,12.55,0,0,0,.44-3.92,12.27,12.27,0,0,0-.44-3.88,4.61,4.61,0,0,0-8.64,0,12.27,12.27,0,0,0-.44,3.88,12.55,12.55,0,0,0,.44,3.92,4.61,4.61,0,0,0,8.64,0Z"/><path d="M267.85,62.76a.39.39,0,0,1,0-.56l1.64-1.76a.39.39,0,0,1,.56,0,9.31,9.31,0,0,0,5.92,2.2c2.8,0,4.2-1.2,4.2-2.92,0-1.52-.72-2.36-3.72-2.68l-2-.2c-3.76-.4-5.72-2.28-5.72-5.4,0-3.64,2.6-5.84,7.12-5.84a11.46,11.46,0,0,1,6.8,2.12.39.39,0,0,1,.08.56L281.33,50a.39.39,0,0,1-.56.08,10.09,10.09,0,0,0-5.16-1.56c-2.4,0-3.64,1.08-3.64,2.64s.92,2.32,3.76,2.6l2,.2c3.88.36,5.76,2.32,5.76,5.4,0,3.76-2.72,6.28-7.72,6.28A11.91,11.91,0,0,1,267.85,62.76Z"/><path d="M287.89,61h2.8a.38.38,0,0,1,.4.4v3.72a1.27,1.27,0,0,1-.24.88l-2.48,3.27a.63.63,0,0,1-.52.28.36.36,0,0,1-.36-.36V61.36A.38.38,0,0,1,287.89,61Z"/><path d="M309.45,65.2c-.28,0-.4-.16-.48-.4l-6.88-18.36c-.08-.24,0-.4.32-.4h2.76c.28,0,.4.12.52.4l5,13.76h.08l4.84-13.76a.47.47,0,0,1,.48-.4h2.72c.28,0,.4.16.32.4L312.25,64.8a.52.52,0,0,1-.52.4Z"/><path d="M321.93,60.44a15,15,0,0,1-.64-4.84,14.86,14.86,0,0,1,.6-4.84c1.08-3.32,3.88-5.16,7.52-5.16a7.42,7.42,0,0,1,7.52,5.16,16.72,16.72,0,0,1,.6,5.48.39.39,0,0,1-.44.4H325a.21.21,0,0,0-.24.24,7.18,7.18,0,0,0,.32,2.32,4.73,4.73,0,0,0,4.84,3.32,6.26,6.26,0,0,0,4.92-2.12.41.41,0,0,1,.6-.08l1.64,1.48a.36.36,0,0,1,0,.56,9.32,9.32,0,0,1-7.48,3.28C325.73,65.64,323,63.76,321.93,60.44ZM333.85,54a.21.21,0,0,0,.24-.24,6.74,6.74,0,0,0-.28-2.16,4.73,4.73,0,0,0-8.8,0,6.74,6.74,0,0,0-.28,2.16A.21.21,0,0,0,325,54Z"/><path d="M342.53,65.2a.38.38,0,0,1-.4-.4V46.44a.38.38,0,0,1,.4-.4h2.56a.38.38,0,0,1,.4.4v2h0a5.34,5.34,0,0,1,5.08-2.8A5.89,5.89,0,0,1,354.53,47c.2.2.24.36.08.56l-1.48,2a.36.36,0,0,1-.56.08,5.4,5.4,0,0,0-3-.92c-2.92,0-4.12,2.28-4.12,5.6V64.8a.38.38,0,0,1-.4.4Z"/><path d="M358.05,41.72a.38.38,0,0,1-.4-.4V38.4a.38.38,0,0,1,.4-.4h2.72a.38.38,0,0,1,.4.4v2.92a.38.38,0,0,1-.4.4Zm.08,23.48a.38.38,0,0,1-.4-.4V46.44a.38.38,0,0,1,.4-.4h2.56a.38.38,0,0,1,.4.4V64.8a.38.38,0,0,1-.4.4Z"/><path d="M367.89,65.2a.38.38,0,0,1-.4-.4V49a.21.21,0,0,0-.24-.24h-1.64a.38.38,0,0,1-.4-.4V46.44a.38.38,0,0,1,.4-.4h1.64a.21.21,0,0,0,.24-.24V44.16c0-4.52,1.84-6.16,5.84-6.16h1.48a.38.38,0,0,1,.4.4v2.32a.38.38,0,0,1-.4.4h-1c-2.44,0-2.92.52-2.92,2.88v1.8a.21.21,0,0,0,.24.24h3.72a.38.38,0,0,1,.4.4v1.92a.38.38,0,0,1-.4.4h-3.72a.21.21,0,0,0-.24.24V64.8a.38.38,0,0,1-.4.4Zm12-23.48a.38.38,0,0,1-.4-.4V38.4a.38.38,0,0,1,.4-.4h2.72a.38.38,0,0,1,.4.4v2.92a.38.38,0,0,1-.4.4ZM380,65.2a.38.38,0,0,1-.4-.4V46.44a.38.38,0,0,1,.4-.4h2.56a.38.38,0,0,1,.4.4V64.8a.38.38,0,0,1-.4.4Z"/><path d="M400.69,72.39a.38.38,0,0,1-.4-.4V63h0c-.92,1.52-2.56,2.68-5.44,2.68-3.32,0-5.64-1.56-6.6-4.6a16,16,0,0,1-.68-5.44,15.84,15.84,0,0,1,.68-5.4c1-3,3.28-4.6,6.6-4.6,2.88,0,4.52,1.12,5.44,2.64h0v-1.8a.38.38,0,0,1,.4-.4h2.56a.38.38,0,0,1,.4.4V72a.38.38,0,0,1-.4.4Zm-.84-12.79a12.31,12.31,0,0,0,.44-4,12.47,12.47,0,0,0-.44-4,4.53,4.53,0,0,0-8.44,0,13.63,13.63,0,0,0-.44,4,13.29,13.29,0,0,0,.44,4,4.51,4.51,0,0,0,8.44,0Z"/><path d="M421.45,65.2a.38.38,0,0,1-.4-.4V63h0a5.84,5.84,0,0,1-5.24,2.64c-4.2,0-6.64-2.88-6.64-7.24v-12a.38.38,0,0,1,.4-.4h2.56a.38.38,0,0,1,.4.4V57.6c0,3.12,1.4,4.92,4.24,4.92,2.6,0,4.32-1.84,4.32-4.72V46.44a.38.38,0,0,1,.4-.4H424a.38.38,0,0,1,.4.4V64.8a.38.38,0,0,1-.4.4Z"/><path d="M429.65,60.44A15,15,0,0,1,429,55.6a14.86,14.86,0,0,1,.6-4.84c1.08-3.32,3.88-5.16,7.52-5.16a7.42,7.42,0,0,1,7.52,5.16,16.72,16.72,0,0,1,.6,5.48.39.39,0,0,1-.44.4H432.69a.21.21,0,0,0-.24.24,7.18,7.18,0,0,0,.32,2.32,4.73,4.73,0,0,0,4.84,3.32,6.26,6.26,0,0,0,4.92-2.12.41.41,0,0,1,.6-.08l1.64,1.48a.36.36,0,0,1,0,.56,9.32,9.32,0,0,1-7.48,3.28C433.45,65.64,430.69,63.76,429.65,60.44ZM441.57,54a.21.21,0,0,0,.24-.24,6.74,6.74,0,0,0-.28-2.16,4.73,4.73,0,0,0-8.8,0,6.74,6.74,0,0,0-.28,2.16.21.21,0,0,0,.24.24Z"/><path d="M11.18,100.76a.39.39,0,0,1,0-.56l1.64-1.76a.39.39,0,0,1,.56,0,9.31,9.31,0,0,0,5.92,2.2c2.8,0,4.2-1.2,4.2-2.92,0-1.52-.72-2.36-3.72-2.68l-2-.2C14,94.44,12,92.56,12,89.44c0-3.64,2.6-5.84,7.12-5.84a11.46,11.46,0,0,1,6.8,2.12.39.39,0,0,1,.08.56L24.66,88a.39.39,0,0,1-.56.08,10.09,10.09,0,0,0-5.16-1.56c-2.4,0-3.64,1.08-3.64,2.64s.92,2.32,3.76,2.6l2,.2c3.88.36,5.76,2.32,5.76,5.4,0,3.76-2.72,6.28-7.72,6.28A11.91,11.91,0,0,1,11.18,100.76Z"/><path d="M31.62,79.72a.38.38,0,0,1-.4-.4V76.4a.38.38,0,0,1,.4-.4h2.72a.38.38,0,0,1,.4.4v2.92a.38.38,0,0,1-.4.4Zm.08,23.48a.38.38,0,0,1-.4-.4V84.44a.38.38,0,0,1,.4-.4h2.56a.38.38,0,0,1,.4.4V102.8a.38.38,0,0,1-.4.4Z"/><path d="M39.9,98.44a15,15,0,0,1-.64-4.84,14.86,14.86,0,0,1,.6-4.84c1.08-3.32,3.88-5.16,7.52-5.16a7.42,7.42,0,0,1,7.52,5.16,16.72,16.72,0,0,1,.6,5.48.39.39,0,0,1-.44.4H42.94a.21.21,0,0,0-.24.24A7.18,7.18,0,0,0,43,97.2a4.73,4.73,0,0,0,4.84,3.32,6.26,6.26,0,0,0,4.92-2.12.41.41,0,0,1,.6-.08L55,99.8a.36.36,0,0,1,0,.56,9.32,9.32,0,0,1-7.48,3.28C43.7,103.64,40.94,101.76,39.9,98.44ZM51.82,92a.21.21,0,0,0,.24-.24,6.74,6.74,0,0,0-.28-2.16,4.33,4.33,0,0,0-4.4-3,4.33,4.33,0,0,0-4.4,3,6.74,6.74,0,0,0-.28,2.16.21.21,0,0,0,.24.24Z"/><path d="M84.57,103.2a.38.38,0,0,1-.4-.4V91.6c0-3.08-1.39-4.88-4.27-4.88a4.32,4.32,0,0,0-4.4,4.68v11.4a.38.38,0,0,1-.4.4H72.54a.38.38,0,0,1-.4-.4V91.6c0-3.08-1.4-4.88-4.28-4.88-2.6,0-4.4,1.84-4.4,4.68v11.4a.38.38,0,0,1-.4.4H60.5a.38.38,0,0,1-.4-.4V84.44a.38.38,0,0,1,.4-.4h2.56a.38.38,0,0,1,.4.4V86.2h0a6.06,6.06,0,0,1,5.36-2.6,6,6,0,0,1,5.6,3h0a7.13,7.13,0,0,1,6.2-3c4.43,0,6.83,2.84,6.83,7.2v12a.38.38,0,0,1-.4.4Z"/><path d="M93.5,110.39a.38.38,0,0,1-.4-.4V84.44a.38.38,0,0,1,.4-.4h2.56a.38.38,0,0,1,.4.4v1.8h0c.92-1.52,2.56-2.64,5.44-2.64,3.32,0,5.64,1.56,6.6,4.6a15.84,15.84,0,0,1,.68,5.4,16,16,0,0,1-.68,5.44c-1,3-3.28,4.6-6.6,4.6-2.88,0-4.52-1.16-5.44-2.68h0v9a.38.38,0,0,1-.4.4ZM105.34,97.6a13.29,13.29,0,0,0,.44-4,13.63,13.63,0,0,0-.44-4,4.53,4.53,0,0,0-8.44,0,12.47,12.47,0,0,0-.44,4,12.31,12.31,0,0,0,.44,4,4.51,4.51,0,0,0,8.44,0Z"/><path d="M114.22,103.2a.38.38,0,0,1-.4-.4V84.44a.38.38,0,0,1,.4-.4h2.56a.38.38,0,0,1,.4.4v2h0a5.34,5.34,0,0,1,5.08-2.8A5.89,5.89,0,0,1,126.22,85c.2.2.24.36.08.56l-1.48,2a.36.36,0,0,1-.56.08,5.4,5.4,0,0,0-3-.92c-2.92,0-4.12,2.28-4.12,5.6V102.8a.38.38,0,0,1-.4.4Z"/><path d="M128.18,98.44a15,15,0,0,1-.64-4.84,14.86,14.86,0,0,1,.6-4.84c1.08-3.32,3.88-5.16,7.52-5.16a7.42,7.42,0,0,1,7.52,5.16,16.72,16.72,0,0,1,.6,5.48.39.39,0,0,1-.44.4H131.22a.21.21,0,0,0-.24.24,7.18,7.18,0,0,0,.32,2.32,4.73,4.73,0,0,0,4.84,3.32,6.26,6.26,0,0,0,4.92-2.12.41.41,0,0,1,.6-.08l1.64,1.48a.36.36,0,0,1,0,.56,9.32,9.32,0,0,1-7.48,3.28C132,103.64,129.22,101.76,128.18,98.44ZM140.1,92a.21.21,0,0,0,.24-.24,6.74,6.74,0,0,0-.28-2.16,4.73,4.73,0,0,0-8.8,0,6.74,6.74,0,0,0-.28,2.16.21.21,0,0,0,.24.24Z"/><path d="M161.78,103.4c-3.36,0-4.68-1.6-4.68-5v-22a.38.38,0,0,1,.4-.4h2.56a.38.38,0,0,1,.4.4V98.16c0,1.6.6,2.12,1.92,2.12h.76a.38.38,0,0,1,.4.4V103a.38.38,0,0,1-.4.4Z"/><path d="M179.05,103.2a.38.38,0,0,1-.4-.4v-1.68h0c-.88,1.44-2.75,2.52-5.67,2.52-3.64,0-6.44-1.88-6.44-5.76,0-4,2.8-5.92,7.48-5.92h4.35a.21.21,0,0,0,.24-.24v-1.4c0-2.64-1-3.76-4.59-3.76a7.45,7.45,0,0,0-4.64,1.36c-.2.16-.44.16-.56,0L167.7,86a.42.42,0,0,1,.08-.56,10.63,10.63,0,0,1,6.52-1.88c5.43,0,7.51,1.8,7.51,6.52V102.8a.38.38,0,0,1-.4.4Zm-.48-6.2V94.88a.21.21,0,0,0-.24-.24H174.5c-3.32,0-4.76,1-4.76,3.12,0,2,1.44,3,4,3C176.73,100.76,178.57,99.36,178.57,97Z"/><path d="M186.1,100.76a.39.39,0,0,1,0-.56l1.64-1.76a.39.39,0,0,1,.56,0,9.3,9.3,0,0,0,5.91,2.2c2.8,0,4.2-1.2,4.2-2.92,0-1.52-.72-2.36-3.72-2.68l-2-.2c-3.76-.4-5.72-2.28-5.72-5.4,0-3.64,2.6-5.84,7.12-5.84a11.45,11.45,0,0,1,6.79,2.12.39.39,0,0,1,.08.56L199.57,88a.39.39,0,0,1-.56.08,10,10,0,0,0-5.15-1.56c-2.4,0-3.64,1.08-3.64,2.64s.92,2.32,3.76,2.6l2,.2c3.88.36,5.76,2.32,5.76,5.4,0,3.76-2.72,6.28-7.71,6.28A11.91,11.91,0,0,1,186.1,100.76Z"/><path d="M214.46,88.76c1.08-3.32,3.88-5.16,7.55-5.16a7.68,7.68,0,0,1,6.56,3.24c.12.2.12.36-.12.56l-1.76,1.44a.36.36,0,0,1-.56,0A4.71,4.71,0,0,0,222,86.72a4.16,4.16,0,0,0-4.28,3,13.13,13.13,0,0,0-.43,3.88,13.26,13.26,0,0,0,.43,3.92,4.16,4.16,0,0,0,4.28,3,4.71,4.71,0,0,0,4.12-2.08.36.36,0,0,1,.56,0l1.76,1.44c.24.2.24.36.12.56a7.68,7.68,0,0,1-6.56,3.24c-3.67,0-6.47-1.84-7.55-5.16a20,20,0,0,1,0-9.72Z"/><path d="M232.1,98.48a14.39,14.39,0,0,1-.64-4.88,14.29,14.29,0,0,1,.64-4.84c1-3.28,3.84-5.16,7.55-5.16s6.52,1.88,7.56,5.16a14.29,14.29,0,0,1,.64,4.84,14.39,14.39,0,0,1-.64,4.88c-1,3.24-3.84,5.16-7.56,5.16S233.14,101.72,232.1,98.48Zm11.87-1a12.55,12.55,0,0,0,.44-3.92,12.27,12.27,0,0,0-.44-3.88,4.6,4.6,0,0,0-8.63,0,12.27,12.27,0,0,0-.44,3.88,12.55,12.55,0,0,0,.44,3.92,4.6,4.6,0,0,0,8.63,0Z"/><path d="M264.89,103.2a.38.38,0,0,1-.4-.4V91.6c0-3.08-1.4-4.88-4.28-4.88-2.6,0-4.4,1.84-4.4,4.68v11.4a.38.38,0,0,1-.4.4h-2.56a.38.38,0,0,1-.4-.4V84.44a.38.38,0,0,1,.4-.4h2.56a.38.38,0,0,1,.4.4V86.2h0a6.06,6.06,0,0,1,5.36-2.6c4.16,0,6.64,2.84,6.64,7.2v12a.38.38,0,0,1-.4.4Z"/><path d="M285.41,103.2a.38.38,0,0,1-.4-.4V101h0c-.92,1.52-2.56,2.68-5.44,2.68-3.32,0-5.64-1.56-6.6-4.6a16.23,16.23,0,0,1-.67-5.44,16.13,16.13,0,0,1,.67-5.4c1-3,3.28-4.6,6.6-4.6,2.88,0,4.52,1.12,5.44,2.64h0V76.4a.38.38,0,0,1,.4-.4H288a.38.38,0,0,1,.4.4v26.4a.38.38,0,0,1-.4.4Zm-.84-5.6a12.31,12.31,0,0,0,.44-4,12.47,12.47,0,0,0-.44-4,4.53,4.53,0,0,0-8.44,0,13.63,13.63,0,0,0-.44,4,13.29,13.29,0,0,0,.44,4,4.51,4.51,0,0,0,8.44,0Z"/><path d="M294.45,79.72a.38.38,0,0,1-.4-.4V76.4a.38.38,0,0,1,.4-.4h2.72a.38.38,0,0,1,.4.4v2.92a.38.38,0,0,1-.4.4Zm.08,23.48a.38.38,0,0,1-.4-.4V84.44a.38.38,0,0,1,.4-.4h2.56a.38.38,0,0,1,.4.4V102.8a.38.38,0,0,1-.4.4Z"/><path d="M302.69,88.76c1.08-3.32,3.88-5.16,7.56-5.16a7.68,7.68,0,0,1,6.56,3.24c.12.2.12.36-.12.56l-1.76,1.44a.36.36,0,0,1-.56,0,4.71,4.71,0,0,0-4.12-2.08,4.16,4.16,0,0,0-4.28,3,12.76,12.76,0,0,0-.44,3.88,12.88,12.88,0,0,0,.44,3.92,4.16,4.16,0,0,0,4.28,3,4.71,4.71,0,0,0,4.12-2.08.36.36,0,0,1,.56,0l1.76,1.44c.24.2.24.36.12.56a7.68,7.68,0,0,1-6.56,3.24c-3.68,0-6.48-1.84-7.56-5.16a20,20,0,0,1,0-9.72Z"/><path d="M321.65,79.72a.38.38,0,0,1-.4-.4V76.4a.38.38,0,0,1,.4-.4h2.72a.38.38,0,0,1,.4.4v2.92a.38.38,0,0,1-.4.4Zm.08,23.48a.38.38,0,0,1-.4-.4V84.44a.38.38,0,0,1,.4-.4h2.56a.38.38,0,0,1,.4.4V102.8a.38.38,0,0,1-.4.4Z"/><path d="M329.93,98.48a14.39,14.39,0,0,1-.64-4.88,14.29,14.29,0,0,1,.64-4.84c1-3.28,3.84-5.16,7.56-5.16s6.52,1.88,7.56,5.16a14.29,14.29,0,0,1,.64,4.84,14.39,14.39,0,0,1-.64,4.88c-1,3.24-3.84,5.16-7.56,5.16S331,101.72,329.93,98.48Zm11.88-1a12.55,12.55,0,0,0,.44-3.92,12.27,12.27,0,0,0-.44-3.88,4.61,4.61,0,0,0-8.64,0,12.27,12.27,0,0,0-.44,3.88,12.55,12.55,0,0,0,.44,3.92,4.61,4.61,0,0,0,8.64,0Z"/><path d="M362.73,103.2a.38.38,0,0,1-.4-.4V91.6c0-3.08-1.4-4.88-4.28-4.88-2.6,0-4.4,1.84-4.4,4.68v11.4a.38.38,0,0,1-.4.4h-2.56a.38.38,0,0,1-.4-.4V84.44a.38.38,0,0,1,.4-.4h2.56a.38.38,0,0,1,.4.4V86.2h0a6.06,6.06,0,0,1,5.36-2.6c4.16,0,6.64,2.84,6.64,7.2v12a.38.38,0,0,1-.4.4Z"/><path d="M370.73,98.44a15,15,0,0,1-.64-4.84,14.86,14.86,0,0,1,.6-4.84c1.08-3.32,3.88-5.16,7.52-5.16a7.42,7.42,0,0,1,7.52,5.16,16.72,16.72,0,0,1,.6,5.48.39.39,0,0,1-.44.4H373.77a.21.21,0,0,0-.24.24,7.18,7.18,0,0,0,.32,2.32,4.73,4.73,0,0,0,4.84,3.32,6.26,6.26,0,0,0,4.92-2.12.41.41,0,0,1,.6-.08l1.64,1.48a.36.36,0,0,1,0,.56,9.32,9.32,0,0,1-7.48,3.28C374.53,103.64,371.77,101.76,370.73,98.44ZM382.65,92a.21.21,0,0,0,.24-.24,6.74,6.74,0,0,0-.28-2.16,4.73,4.73,0,0,0-8.8,0,6.74,6.74,0,0,0-.28,2.16.21.21,0,0,0,.24.24Z"/><path d="M389.61,100.76a.39.39,0,0,1,0-.56l1.64-1.76a.39.39,0,0,1,.56,0,9.31,9.31,0,0,0,5.92,2.2c2.8,0,4.2-1.2,4.2-2.92,0-1.52-.72-2.36-3.72-2.68l-2-.2c-3.76-.4-5.72-2.28-5.72-5.4,0-3.64,2.6-5.84,7.12-5.84a11.46,11.46,0,0,1,6.8,2.12.39.39,0,0,1,.08.56L403.09,88a.39.39,0,0,1-.56.08,10.09,10.09,0,0,0-5.16-1.56c-2.4,0-3.64,1.08-3.64,2.64s.92,2.32,3.76,2.6l2,.2c3.88.36,5.76,2.32,5.76,5.4,0,3.76-2.72,6.28-7.72,6.28A11.91,11.91,0,0,1,389.61,100.76Z"/><path d="M430.53,103.2a.38.38,0,0,1-.4-.4V101h0c-.92,1.52-2.56,2.68-5.44,2.68-3.32,0-5.64-1.56-6.6-4.6a16,16,0,0,1-.68-5.44,15.84,15.84,0,0,1,.68-5.4c1-3,3.28-4.6,6.6-4.6,2.88,0,4.52,1.12,5.44,2.64h0V76.4a.38.38,0,0,1,.4-.4h2.56a.38.38,0,0,1,.4.4v26.4a.38.38,0,0,1-.4.4Zm-.84-5.6a12.31,12.31,0,0,0,.44-4,12.47,12.47,0,0,0-.44-4,4.53,4.53,0,0,0-8.44,0,13.63,13.63,0,0,0-.44,4,13.29,13.29,0,0,0,.44,4,4.51,4.51,0,0,0,8.44,0Z"/><path d="M438.73,98.44a15,15,0,0,1-.64-4.84,14.86,14.86,0,0,1,.6-4.84c1.08-3.32,3.88-5.16,7.52-5.16a7.42,7.42,0,0,1,7.52,5.16,16.72,16.72,0,0,1,.6,5.48.39.39,0,0,1-.44.4H441.77a.21.21,0,0,0-.24.24,7.18,7.18,0,0,0,.32,2.32,4.73,4.73,0,0,0,4.84,3.32,6.26,6.26,0,0,0,4.92-2.12.41.41,0,0,1,.6-.08l1.64,1.48a.36.36,0,0,1,0,.56,9.32,9.32,0,0,1-7.48,3.28C442.53,103.64,439.77,101.76,438.73,98.44ZM450.65,92a.21.21,0,0,0,.24-.24,6.74,6.74,0,0,0-.28-2.16,4.73,4.73,0,0,0-8.8,0,6.74,6.74,0,0,0-.28,2.16.21.21,0,0,0,.24.24Z"/><path d="M463.53,103.4c-3.36,0-4.68-1.6-4.68-5v-22a.38.38,0,0,1,.4-.4h2.56a.38.38,0,0,1,.4.4V98.16c0,1.6.6,2.12,1.92,2.12h.76a.38.38,0,0,1,.4.4V103a.38.38,0,0,1-.4.4Z"/><path d="M.12,138.76a.39.39,0,0,1,0-.56l1.64-1.76a.39.39,0,0,1,.56,0,9.31,9.31,0,0,0,5.92,2.2c2.8,0,4.2-1.2,4.2-2.92,0-1.52-.72-2.36-3.72-2.68l-2-.2c-3.76-.4-5.72-2.28-5.72-5.4,0-3.64,2.6-5.84,7.12-5.84a11.46,11.46,0,0,1,6.8,2.12.39.39,0,0,1,.08.56L13.6,126a.39.39,0,0,1-.56.08,10.09,10.09,0,0,0-5.16-1.56c-2.4,0-3.64,1.08-3.64,2.64s.92,2.32,3.76,2.6l2,.2c3.88.36,5.76,2.32,5.76,5.4,0,3.76-2.72,6.28-7.72,6.28A11.91,11.91,0,0,1,.12,138.76Z"/><path d="M32.28,141.2a.38.38,0,0,1-.4-.4V139h0a5.84,5.84,0,0,1-5.24,2.64c-4.2,0-6.64-2.88-6.64-7.24v-12a.38.38,0,0,1,.4-.4h2.56a.38.38,0,0,1,.4.4V133.6c0,3.12,1.4,4.92,4.24,4.92,2.6,0,4.32-1.84,4.32-4.72V122.44a.38.38,0,0,1,.4-.4h2.56a.38.38,0,0,1,.4.4V140.8a.38.38,0,0,1-.4.4Z"/><path d="M40.48,136.44a15,15,0,0,1-.64-4.84,14.86,14.86,0,0,1,.6-4.84c1.08-3.32,3.88-5.16,7.52-5.16a7.42,7.42,0,0,1,7.52,5.16,16.72,16.72,0,0,1,.6,5.48.39.39,0,0,1-.44.4H43.52a.21.21,0,0,0-.24.24,7.18,7.18,0,0,0,.32,2.32,4.73,4.73,0,0,0,4.84,3.32,6.26,6.26,0,0,0,4.92-2.12.41.41,0,0,1,.6-.08l1.64,1.48a.36.36,0,0,1,0,.56,9.32,9.32,0,0,1-7.48,3.28C44.28,141.64,41.52,139.76,40.48,136.44ZM52.4,130a.21.21,0,0,0,.24-.24,6.74,6.74,0,0,0-.28-2.16,4.33,4.33,0,0,0-4.4-3,4.33,4.33,0,0,0-4.4,3,6.74,6.74,0,0,0-.28,2.16.21.21,0,0,0,.24.24Z"/><path d="M65.28,141.4c-3.36,0-4.68-1.6-4.68-5v-22a.38.38,0,0,1,.4-.4h2.56a.38.38,0,0,1,.4.4v21.76c0,1.6.6,2.12,1.92,2.12h.76a.38.38,0,0,1,.4.4V141a.38.38,0,0,1-.4.4Z"/><path d="M70.44,136.48a18.77,18.77,0,0,1,0-9.72c1-3.28,3.84-5.16,7.56-5.16s6.52,1.88,7.56,5.16a18.77,18.77,0,0,1,0,9.72c-1,3.24-3.84,5.16-7.56,5.16S71.48,139.72,70.44,136.48Zm11.88-1a12.55,12.55,0,0,0,.44-3.92,12.27,12.27,0,0,0-.44-3.88,4.61,4.61,0,0,0-8.64,0,12.27,12.27,0,0,0-.44,3.88,12.55,12.55,0,0,0,.44,3.92,4.61,4.61,0,0,0,8.64,0Z"/><path d="M98.84,128.08A29.69,29.69,0,0,1,103.6,112a.73.73,0,0,1,.64-.4h1.4c.24,0,.36.16.24.4a35.9,35.9,0,0,0,0,32.15c.12.25,0,.4-.24.4h-1.4a.73.73,0,0,1-.64-.4A29.73,29.73,0,0,1,98.84,128.08Z"/><path d="M122.63,141.2a.38.38,0,0,1-.4-.4V129.6c0-3.08-1.39-4.88-4.27-4.88-2.6,0-4.4,1.84-4.4,4.68v11.4a.38.38,0,0,1-.4.4H110.6a.38.38,0,0,1-.4-.4V114.4a.38.38,0,0,1,.4-.4h2.56a.38.38,0,0,1,.4.4v9.8h0a6.06,6.06,0,0,1,5.36-2.6c4.15,0,6.63,2.84,6.63,7.2v12a.38.38,0,0,1-.4.4Z"/><path d="M143.19,141.2a.38.38,0,0,1-.39-.4V139h0a5.84,5.84,0,0,1-5.24,2.64c-4.2,0-6.64-2.88-6.64-7.24v-12a.38.38,0,0,1,.4-.4h2.56a.38.38,0,0,1,.4.4V133.6c0,3.12,1.4,4.92,4.24,4.92,2.6,0,4.32-1.84,4.32-4.72V122.44a.38.38,0,0,1,.39-.4h2.56a.38.38,0,0,1,.4.4V140.8a.38.38,0,0,1-.4.4Z"/><path d="M151.4,136.44a15,15,0,0,1-.64-4.84,14.86,14.86,0,0,1,.6-4.84c1.08-3.32,3.88-5.16,7.52-5.16a7.42,7.42,0,0,1,7.51,5.16,16.72,16.72,0,0,1,.6,5.48.39.39,0,0,1-.44.4H154.44a.21.21,0,0,0-.24.24,7.18,7.18,0,0,0,.32,2.32,4.73,4.73,0,0,0,4.84,3.32,6.25,6.25,0,0,0,4.91-2.12.41.41,0,0,1,.6-.08l1.64,1.48a.36.36,0,0,1,0,.56,9.31,9.31,0,0,1-7.47,3.28C155.2,141.64,152.44,139.76,151.4,136.44ZM163.31,130a.21.21,0,0,0,.24-.24,6.74,6.74,0,0,0-.28-2.16,4.72,4.72,0,0,0-8.79,0,6.74,6.74,0,0,0-.28,2.16.21.21,0,0,0,.24.24Z"/><path d="M171,126.76c1.08-3.32,3.88-5.16,7.56-5.16a7.68,7.68,0,0,1,6.55,3.24c.12.2.12.36-.12.56l-1.76,1.44a.36.36,0,0,1-.56,0,4.7,4.7,0,0,0-4.11-2.08,4.16,4.16,0,0,0-4.28,3,17.5,17.5,0,0,0,0,7.8,4.16,4.16,0,0,0,4.28,3,4.7,4.7,0,0,0,4.11-2.08.36.36,0,0,1,.56,0l1.76,1.44c.24.2.24.36.12.56a7.68,7.68,0,0,1-6.55,3.24c-3.68,0-6.48-1.84-7.56-5.16a20,20,0,0,1,0-9.72Z"/><path d="M188.68,136.48a18.77,18.77,0,0,1,0-9.72c1-3.28,3.84-5.16,7.55-5.16s6.52,1.88,7.56,5.16a18.77,18.77,0,0,1,0,9.72c-1,3.24-3.84,5.16-7.56,5.16S189.72,139.72,188.68,136.48Zm11.87-1a12.55,12.55,0,0,0,.44-3.92,12.27,12.27,0,0,0-.44-3.88,4.6,4.6,0,0,0-8.63,0,12.27,12.27,0,0,0-.44,3.88,12.55,12.55,0,0,0,.44,3.92,4.6,4.6,0,0,0,8.63,0Z"/><path d="M207.72,138.76a.39.39,0,0,1,0-.56l1.64-1.76a.39.39,0,0,1,.56,0,9.28,9.28,0,0,0,5.91,2.2c2.8,0,4.2-1.2,4.2-2.92,0-1.52-.72-2.36-3.72-2.68l-2-.2c-3.75-.4-5.71-2.28-5.71-5.4,0-3.64,2.59-5.84,7.11-5.84a11.46,11.46,0,0,1,6.8,2.12.39.39,0,0,1,.08.56L221.19,126a.39.39,0,0,1-.56.08,10.09,10.09,0,0,0-5.16-1.56c-2.4,0-3.63,1.08-3.63,2.64s.92,2.32,3.75,2.6l2,.2c3.88.36,5.76,2.32,5.76,5.4,0,3.76-2.72,6.28-7.72,6.28A11.9,11.9,0,0,1,207.72,138.76Z"/><path d="M227.76,137h2.79a.38.38,0,0,1,.4.4v3.72a1.27,1.27,0,0,1-.24.88l-2.48,3.27a.6.6,0,0,1-.51.28.36.36,0,0,1-.36-.36v-7.79A.38.38,0,0,1,227.76,137Z"/><path d="M268.67,141.2a.38.38,0,0,1-.4-.4V129.6c0-3.08-1.4-4.88-4.28-4.88a4.32,4.32,0,0,0-4.4,4.68v11.4a.38.38,0,0,1-.4.4h-2.56a.38.38,0,0,1-.4-.4V129.6c0-3.08-1.4-4.88-4.28-4.88-2.6,0-4.4,1.84-4.4,4.68v11.4a.38.38,0,0,1-.4.4h-2.56a.38.38,0,0,1-.4-.4V122.44a.38.38,0,0,1,.4-.4h2.56a.38.38,0,0,1,.4.4v1.76h0a6.77,6.77,0,0,1,11,.4h0a7.13,7.13,0,0,1,6.2-3c4.44,0,6.84,2.84,6.84,7.2v12a.38.38,0,0,1-.4.4Z"/><path d="M288.79,141.2a.38.38,0,0,1-.4-.4v-1.68h0c-.88,1.44-2.76,2.52-5.68,2.52-3.64,0-6.44-1.88-6.44-5.76,0-4,2.8-5.92,7.48-5.92h4.36a.21.21,0,0,0,.24-.24v-1.4c0-2.64-1-3.76-4.6-3.76a7.45,7.45,0,0,0-4.64,1.36c-.2.16-.44.16-.56,0L277.43,124a.42.42,0,0,1,.08-.56A10.63,10.63,0,0,1,284,121.6c5.44,0,7.52,1.8,7.52,6.52V140.8a.38.38,0,0,1-.4.4Zm-.48-6.2v-2.12a.21.21,0,0,0-.24-.24h-3.84c-3.32,0-4.76,1-4.76,3.12,0,2,1.44,3,4,3C286.47,138.76,288.31,137.36,288.31,135Z"/><path d="M301.75,141.4c-3.36,0-4.68-1.6-4.68-5v-22a.38.38,0,0,1,.4-.4H300a.38.38,0,0,1,.4.4v21.76c0,1.6.6,2.12,1.92,2.12h.76a.38.38,0,0,1,.4.4V141a.38.38,0,0,1-.4.4Z"/><path d="M306.91,136.44a15,15,0,0,1-.64-4.84,14.86,14.86,0,0,1,.6-4.84c1.08-3.32,3.88-5.16,7.52-5.16a7.42,7.42,0,0,1,7.52,5.16,16.72,16.72,0,0,1,.6,5.48.39.39,0,0,1-.44.4H310a.21.21,0,0,0-.24.24,7.18,7.18,0,0,0,.32,2.32,4.73,4.73,0,0,0,4.84,3.32,6.26,6.26,0,0,0,4.92-2.12.41.41,0,0,1,.6-.08L322,137.8a.36.36,0,0,1,0,.56,9.32,9.32,0,0,1-7.48,3.28C310.71,141.64,308,139.76,306.91,136.44ZM318.83,130a.21.21,0,0,0,.24-.24,6.74,6.74,0,0,0-.28-2.16,4.73,4.73,0,0,0-8.8,0,6.74,6.74,0,0,0-.28,2.16.21.21,0,0,0,.24.24Z"/><path d="M326.43,141.2a.38.38,0,0,1-.4-.4v-2.12a.6.6,0,0,1,.16-.44l10.52-13.08v-.08H327a.38.38,0,0,1-.4-.4v-2.24a.38.38,0,0,1,.4-.4h13.36a.38.38,0,0,1,.4.4v2.24a.6.6,0,0,1-.16.44l-10.44,13v.08h10.2a.38.38,0,0,1,.4.4v2.24a.38.38,0,0,1-.4.4Z"/><path d="M357,141.2a.38.38,0,0,1-.4-.4v-1.68h0c-.88,1.44-2.76,2.52-5.68,2.52-3.64,0-6.44-1.88-6.44-5.76,0-4,2.8-5.92,7.48-5.92h4.36a.21.21,0,0,0,.24-.24v-1.4c0-2.64-1-3.76-4.6-3.76a7.45,7.45,0,0,0-4.64,1.36c-.2.16-.44.16-.56,0L345.63,124a.42.42,0,0,1,.08-.56,10.63,10.63,0,0,1,6.52-1.88c5.44,0,7.52,1.8,7.52,6.52V140.8a.38.38,0,0,1-.4.4Zm-.48-6.2v-2.12a.21.21,0,0,0-.24-.24h-3.84c-3.32,0-4.76,1-4.76,3.12,0,2,1.44,3,4,3C354.67,138.76,356.51,137.36,356.51,135Z"/><path d="M365.27,137h2.8a.38.38,0,0,1,.4.4v3.72a1.27,1.27,0,0,1-.24.88l-2.48,3.27a.63.63,0,0,1-.52.28.36.36,0,0,1-.36-.36v-7.79A.38.38,0,0,1,365.27,137Z"/><path d="M382.11,141.2a.38.38,0,0,1-.4-.4V114.4a.38.38,0,0,1,.4-.4h2.56a.38.38,0,0,1,.4.4v9.84h0c.92-1.52,2.56-2.64,5.44-2.64,3.32,0,5.64,1.56,6.6,4.6a15.84,15.84,0,0,1,.68,5.4,16,16,0,0,1-.68,5.44c-1,3-3.28,4.6-6.6,4.6-2.88,0-4.52-1.16-5.44-2.68h0v1.84a.38.38,0,0,1-.4.4ZM394,135.6a13.29,13.29,0,0,0,.44-4,13.63,13.63,0,0,0-.44-4,4.53,4.53,0,0,0-8.44,0,12.47,12.47,0,0,0-.44,4,12.31,12.31,0,0,0,.44,4,4.51,4.51,0,0,0,8.44,0Z"/><path d="M414,141.2a.38.38,0,0,1-.4-.4v-1.68h0c-.88,1.44-2.76,2.52-5.68,2.52-3.64,0-6.44-1.88-6.44-5.76,0-4,2.8-5.92,7.48-5.92h4.36a.21.21,0,0,0,.24-.24v-1.4c0-2.64-1-3.76-4.6-3.76a7.45,7.45,0,0,0-4.64,1.36c-.2.16-.44.16-.56,0L402.67,124a.42.42,0,0,1,.08-.56,10.63,10.63,0,0,1,6.52-1.88c5.44,0,7.52,1.8,7.52,6.52V140.8a.38.38,0,0,1-.4.4Zm-.48-6.2v-2.12a.21.21,0,0,0-.24-.24h-3.84c-3.32,0-4.76,1-4.76,3.12,0,2,1.44,3,4,3C411.71,138.76,413.55,137.36,413.55,135Z"/><path d="M422.79,141.2a.38.38,0,0,1-.4-.4V122.44a.38.38,0,0,1,.4-.4h2.56a.38.38,0,0,1,.4.4v2h0a5.34,5.34,0,0,1,5.08-2.8,5.89,5.89,0,0,1,3.92,1.44c.2.2.24.36.08.56l-1.48,2a.36.36,0,0,1-.56.08,5.4,5.4,0,0,0-3-.92c-2.92,0-4.12,2.28-4.12,5.6V140.8a.38.38,0,0,1-.4.4Z"/><path d="M438.39,141.2a.38.38,0,0,1-.4-.4V122.44a.38.38,0,0,1,.4-.4H441a.38.38,0,0,1,.4.4v2h0a5.34,5.34,0,0,1,5.08-2.8,5.89,5.89,0,0,1,3.92,1.44c.2.2.24.36.08.56l-1.48,2a.36.36,0,0,1-.56.08,5.4,5.4,0,0,0-3-.92c-2.92,0-4.12,2.28-4.12,5.6V140.8a.38.38,0,0,1-.4.4Z"/><path d="M452.35,136.48a18.77,18.77,0,0,1,0-9.72c1-3.28,3.84-5.16,7.56-5.16s6.52,1.88,7.56,5.16a18.77,18.77,0,0,1,0,9.72c-1,3.24-3.84,5.16-7.56,5.16S453.39,139.72,452.35,136.48Zm11.88-1a12.55,12.55,0,0,0,.44-3.92,12.27,12.27,0,0,0-.44-3.88,4.61,4.61,0,0,0-8.64,0,12.27,12.27,0,0,0-.44,3.88,12.55,12.55,0,0,0,.44,3.92,4.61,4.61,0,0,0,8.64,0Z"/><path d="M472.63,137h2.8a.38.38,0,0,1,.4.4v3.72a1.27,1.27,0,0,1-.24.88l-2.48,3.27a.63.63,0,0,1-.52.28.36.36,0,0,1-.36-.36v-7.79A.38.38,0,0,1,472.63,137Z"/><path d="M2.76,179.2a.38.38,0,0,1-.4-.4V160.44a.38.38,0,0,1,.4-.4H5.32a.38.38,0,0,1,.4.4v2h0a5.34,5.34,0,0,1,5.08-2.8A5.89,5.89,0,0,1,14.76,161c.2.2.24.36.08.56l-1.48,2a.36.36,0,0,1-.56.08,5.4,5.4,0,0,0-3-.92c-2.92,0-4.12,2.28-4.12,5.6V178.8a.38.38,0,0,1-.4.4Z"/><path d="M30,179.2a.38.38,0,0,1-.4-.4V177h0a5.84,5.84,0,0,1-5.24,2.64c-4.2,0-6.64-2.88-6.64-7.24v-12a.38.38,0,0,1,.4-.4h2.56a.38.38,0,0,1,.4.4V171.6c0,3.12,1.4,4.92,4.24,4.92,2.6,0,4.32-1.84,4.32-4.72V160.44a.38.38,0,0,1,.4-.4h2.56a.38.38,0,0,1,.4.4V178.8a.38.38,0,0,1-.4.4Z"/><path d="M39,155.72a.38.38,0,0,1-.4-.4V152.4a.38.38,0,0,1,.4-.4h2.72a.38.38,0,0,1,.4.4v2.92a.38.38,0,0,1-.4.4Zm.08,23.48a.38.38,0,0,1-.4-.4V160.44a.38.38,0,0,1,.4-.4h2.56a.38.38,0,0,1,.4.4V178.8a.38.38,0,0,1-.4.4Z"/><path d="M60.28,179.2a.38.38,0,0,1-.4-.4V167.6c0-3.08-1.4-4.88-4.28-4.88-2.6,0-4.4,1.84-4.4,4.68v11.4a.38.38,0,0,1-.4.4H48.24a.38.38,0,0,1-.4-.4V160.44a.38.38,0,0,1,.4-.4H50.8a.38.38,0,0,1,.4.4v1.76h0a6.06,6.06,0,0,1,5.36-2.6c4.16,0,6.64,2.84,6.64,7.2v12a.38.38,0,0,1-.4.4Z"/><path d="M80.4,179.2a.38.38,0,0,1-.4-.4v-1.68h0c-.88,1.44-2.76,2.52-5.68,2.52-3.64,0-6.44-1.88-6.44-5.76,0-4,2.8-5.92,7.48-5.92h4.36a.21.21,0,0,0,.24-.24v-1.4c0-2.64-1-3.76-4.6-3.76a7.45,7.45,0,0,0-4.64,1.36c-.2.16-.44.16-.56,0L69,162a.42.42,0,0,1,.08-.56,10.63,10.63,0,0,1,6.52-1.88c5.44,0,7.52,1.8,7.52,6.52V178.8a.38.38,0,0,1-.4.4Zm-.48-6.2v-2.12a.21.21,0,0,0-.24-.24H75.84c-3.32,0-4.76,1-4.76,3.12,0,2,1.44,3,4,3C78.08,176.76,79.92,175.36,79.92,173Z"/><path d="M87.44,176.76a.39.39,0,0,1,0-.56l1.64-1.76a.39.39,0,0,1,.56,0,9.31,9.31,0,0,0,5.92,2.2c2.8,0,4.2-1.2,4.2-2.92,0-1.52-.72-2.36-3.72-2.68l-2-.2c-3.76-.4-5.72-2.28-5.72-5.4,0-3.64,2.6-5.84,7.12-5.84a11.46,11.46,0,0,1,6.8,2.12.39.39,0,0,1,.08.56L100.92,164a.39.39,0,0,1-.56.08,10.09,10.09,0,0,0-5.16-1.56c-2.4,0-3.64,1.08-3.64,2.64s.92,2.32,3.76,2.6l2,.2c3.88.36,5.76,2.32,5.76,5.4,0,3.76-2.72,6.28-7.72,6.28A11.91,11.91,0,0,1,87.44,176.76Z"/><path d="M115.84,174.44a15,15,0,0,1-.64-4.84,14.86,14.86,0,0,1,.6-4.84c1.08-3.32,3.88-5.16,7.52-5.16s6.44,1.88,7.51,5.16a16.72,16.72,0,0,1,.6,5.48.39.39,0,0,1-.44.4H118.88a.21.21,0,0,0-.24.24,7.18,7.18,0,0,0,.32,2.32,4.73,4.73,0,0,0,4.84,3.32,6.22,6.22,0,0,0,4.91-2.12c.21-.2.4-.24.61-.08L131,175.8a.36.36,0,0,1,0,.56,9.28,9.28,0,0,1-7.47,3.28C119.64,179.64,116.88,177.76,115.84,174.44ZM127.76,168a.21.21,0,0,0,.24-.24,6.74,6.74,0,0,0-.28-2.16,4.73,4.73,0,0,0-8.8,0,6.74,6.74,0,0,0-.28,2.16.21.21,0,0,0,.24.24Z"/><path d="M148.48,179.2a.38.38,0,0,1-.4-.4V167.6c0-3.08-1.4-4.88-4.28-4.88-2.6,0-4.4,1.84-4.4,4.68v11.4a.38.38,0,0,1-.4.4h-2.56a.38.38,0,0,1-.4-.4V160.44a.38.38,0,0,1,.4-.4H139a.38.38,0,0,1,.4.4v1.76h0a6.06,6.06,0,0,1,5.36-2.6c4.16,0,6.63,2.84,6.63,7.2v12a.37.37,0,0,1-.4.4Z"/><path d="M162.56,179.4c-3.72,0-5.16-1.68-5.16-5.44V163a.21.21,0,0,0-.24-.24h-1.6a.38.38,0,0,1-.4-.4v-1.92a.38.38,0,0,1,.4-.4h1.6a.21.21,0,0,0,.24-.24v-5.4a.38.38,0,0,1,.4-.4h2.56a.38.38,0,0,1,.4.4v5.4a.21.21,0,0,0,.24.24h3a.38.38,0,0,1,.4.4v1.92a.38.38,0,0,1-.4.4h-3a.21.21,0,0,0-.24.24v10.84c0,1.92.72,2.44,2.44,2.44H164a.38.38,0,0,1,.4.4V179a.38.38,0,0,1-.4.4Z"/><path d="M169.24,179.2a.38.38,0,0,1-.4-.4V160.44a.38.38,0,0,1,.4-.4h2.56a.38.38,0,0,1,.4.4v2h0a5.34,5.34,0,0,1,5.08-2.8,5.84,5.84,0,0,1,3.91,1.44c.2.2.24.36.08.56l-1.47,2a.36.36,0,0,1-.56.08,5.4,5.4,0,0,0-3-.92c-2.92,0-4.12,2.28-4.12,5.6V178.8a.38.38,0,0,1-.4.4Z"/><path d="M183.2,174.44a15,15,0,0,1-.64-4.84,14.86,14.86,0,0,1,.6-4.84c1.08-3.32,3.88-5.16,7.52-5.16a7.42,7.42,0,0,1,7.51,5.16,16.72,16.72,0,0,1,.6,5.48.39.39,0,0,1-.44.4H186.24a.21.21,0,0,0-.24.24,7.18,7.18,0,0,0,.32,2.32,4.73,4.73,0,0,0,4.84,3.32,6.24,6.24,0,0,0,4.91-2.12.41.41,0,0,1,.6-.08l1.64,1.48a.36.36,0,0,1,0,.56,9.31,9.31,0,0,1-7.47,3.28C187,179.64,184.24,177.76,183.2,174.44ZM195.11,168a.21.21,0,0,0,.24-.24,6.74,6.74,0,0,0-.28-2.16,4.72,4.72,0,0,0-8.79,0,6.74,6.74,0,0,0-.28,2.16.21.21,0,0,0,.24.24Z"/><path d="M211.68,174.48a18.77,18.77,0,0,1,0-9.72c1-3.28,3.84-5.16,7.55-5.16s6.52,1.88,7.56,5.16a18.77,18.77,0,0,1,0,9.72c-1,3.24-3.84,5.16-7.56,5.16S212.72,177.72,211.68,174.48Zm11.87-1a12.55,12.55,0,0,0,.44-3.92,12.27,12.27,0,0,0-.44-3.88,4.6,4.6,0,0,0-8.63,0,12.27,12.27,0,0,0-.44,3.88,12.55,12.55,0,0,0,.44,3.92,4.6,4.6,0,0,0,8.63,0Z"/><path d="M237.59,179.4c-3.72,0-5.16-1.68-5.16-5.44V163c0-.16-.07-.24-.24-.24H230.6a.38.38,0,0,1-.4-.4v-1.92a.38.38,0,0,1,.4-.4h1.59c.17,0,.24-.08.24-.24v-5.4a.38.38,0,0,1,.4-.4h2.56a.38.38,0,0,1,.4.4v5.4a.21.21,0,0,0,.24.24h3a.38.38,0,0,1,.4.4v1.92a.38.38,0,0,1-.4.4h-3a.21.21,0,0,0-.24.24v10.84c0,1.92.72,2.44,2.44,2.44h.84a.38.38,0,0,1,.4.4V179a.38.38,0,0,1-.4.4Z"/><path d="M244.27,179.2a.38.38,0,0,1-.4-.4V160.44a.38.38,0,0,1,.4-.4h2.56a.38.38,0,0,1,.4.4v2h0a5.34,5.34,0,0,1,5.08-2.8,5.89,5.89,0,0,1,3.92,1.44c.2.2.24.36.08.56l-1.48,2a.36.36,0,0,1-.56.08,5.4,5.4,0,0,0-3-.92c-2.92,0-4.12,2.28-4.12,5.6V178.8a.38.38,0,0,1-.4.4Z"/><path d="M258.23,174.48a18.77,18.77,0,0,1,0-9.72c1-3.28,3.84-5.16,7.56-5.16s6.52,1.88,7.56,5.16a18.77,18.77,0,0,1,0,9.72c-1,3.24-3.84,5.16-7.56,5.16S259.27,177.72,258.23,174.48Zm11.88-1a12.55,12.55,0,0,0,.44-3.92,12.27,12.27,0,0,0-.44-3.88,4.61,4.61,0,0,0-8.64,0,12.27,12.27,0,0,0-.44,3.88,12.55,12.55,0,0,0,.44,3.92,4.61,4.61,0,0,0,8.64,0Z"/><path d="M277.27,176.76a.39.39,0,0,1,0-.56l1.64-1.76a.39.39,0,0,1,.56,0,9.31,9.31,0,0,0,5.92,2.2c2.8,0,4.2-1.2,4.2-2.92,0-1.52-.72-2.36-3.72-2.68l-2-.2c-3.76-.4-5.72-2.28-5.72-5.4,0-3.64,2.6-5.84,7.12-5.84a11.46,11.46,0,0,1,6.8,2.12.39.39,0,0,1,.08.56L290.75,164a.39.39,0,0,1-.56.08,10.09,10.09,0,0,0-5.16-1.56c-2.4,0-3.64,1.08-3.64,2.64s.92,2.32,3.76,2.6l2,.2c3.88.36,5.76,2.32,5.76,5.4,0,3.76-2.72,6.28-7.72,6.28A11.91,11.91,0,0,1,277.27,176.76Z"/><path d="M299.75,166.08A37,37,0,0,0,296,150c-.12-.24,0-.4.24-.4h1.4a.73.73,0,0,1,.64.4,29.52,29.52,0,0,1,0,32.15.73.73,0,0,1-.64.4h-1.4c-.24,0-.36-.15-.24-.4A37.2,37.2,0,0,0,299.75,166.08Z"/><path d="M317.19,186.39a.38.38,0,0,1-.4-.4V160.44a.38.38,0,0,1,.4-.4h2.56a.38.38,0,0,1,.4.4v1.8h0c.92-1.52,2.56-2.64,5.44-2.64,3.32,0,5.64,1.56,6.6,4.6a21.94,21.94,0,0,1,0,10.84c-1,3-3.28,4.6-6.6,4.6-2.88,0-4.52-1.16-5.44-2.68h0v9a.38.38,0,0,1-.4.4ZM329,173.6a13.29,13.29,0,0,0,.44-4,13.63,13.63,0,0,0-.44-4,4.53,4.53,0,0,0-8.44,0,12.47,12.47,0,0,0-.44,4,12.31,12.31,0,0,0,.44,4,4.51,4.51,0,0,0,8.44,0Z"/><path d="M347.51,179.2a.38.38,0,0,1-.4-.4v-1.68h0c-.88,1.44-2.76,2.52-5.68,2.52-3.64,0-6.44-1.88-6.44-5.76,0-4,2.8-5.92,7.48-5.92h4.36a.21.21,0,0,0,.24-.24v-1.4c0-2.64-1-3.76-4.6-3.76a7.45,7.45,0,0,0-4.64,1.36c-.2.16-.44.16-.56,0L336.15,162a.42.42,0,0,1,.08-.56,10.63,10.63,0,0,1,6.52-1.88c5.44,0,7.52,1.8,7.52,6.52V178.8a.38.38,0,0,1-.4.4ZM347,173v-2.12a.21.21,0,0,0-.24-.24H343c-3.32,0-4.76,1-4.76,3.12,0,2,1.44,3,4,3C345.19,176.76,347,175.36,347,173Z"/><path d="M354.67,179.2a.38.38,0,0,1-.4-.4V160.44a.38.38,0,0,1,.4-.4h2.56a.38.38,0,0,1,.4.4v2h0a5.34,5.34,0,0,1,5.08-2.8,5.89,5.89,0,0,1,3.92,1.44c.2.2.24.36.08.56l-1.48,2a.36.36,0,0,1-.56.08,5.4,5.4,0,0,0-3-.92c-2.92,0-4.12,2.28-4.12,5.6V178.8a.38.38,0,0,1-.4.4Z"/><path d="M378.91,179.2a.38.38,0,0,1-.4-.4v-1.68h0c-.88,1.44-2.76,2.52-5.68,2.52-3.64,0-6.44-1.88-6.44-5.76,0-4,2.8-5.92,7.48-5.92h4.36a.21.21,0,0,0,.24-.24v-1.4c0-2.64-1-3.76-4.6-3.76a7.45,7.45,0,0,0-4.64,1.36c-.2.16-.44.16-.56,0L367.55,162a.42.42,0,0,1,.08-.56,10.63,10.63,0,0,1,6.52-1.88c5.44,0,7.52,1.8,7.52,6.52V178.8a.38.38,0,0,1-.4.4Zm-.48-6.2v-2.12a.21.21,0,0,0-.24-.24h-3.84c-3.32,0-4.76,1-4.76,3.12,0,2,1.44,3,4,3C376.59,176.76,378.43,175.36,378.43,173Z"/><path d="M392.35,174.44a15,15,0,0,1-.64-4.84,14.86,14.86,0,0,1,.6-4.84c1.08-3.32,3.88-5.16,7.52-5.16a7.42,7.42,0,0,1,7.52,5.16,16.72,16.72,0,0,1,.6,5.48.39.39,0,0,1-.44.4H395.39a.21.21,0,0,0-.24.24,7.18,7.18,0,0,0,.32,2.32,4.73,4.73,0,0,0,4.84,3.32,6.26,6.26,0,0,0,4.92-2.12.41.41,0,0,1,.6-.08l1.64,1.48a.36.36,0,0,1,0,.56,9.32,9.32,0,0,1-7.48,3.28C396.15,179.64,393.39,177.76,392.35,174.44ZM404.27,168a.21.21,0,0,0,.24-.24,6.74,6.74,0,0,0-.28-2.16,4.73,4.73,0,0,0-8.8,0,6.74,6.74,0,0,0-.28,2.16.21.21,0,0,0,.24.24Z"/><path d="M416.07,179.2c-.28,0-.4-.16-.48-.4l-6.88-18.36c-.08-.24,0-.4.32-.4h2.76c.28,0,.4.12.52.4l5,13.76h.08l4.84-13.76a.47.47,0,0,1,.48-.4h2.72c.28,0,.4.16.32.4l-6.84,18.36a.52.52,0,0,1-.52.4Z"/><path d="M428,155.72a.38.38,0,0,1-.4-.4V152.4a.38.38,0,0,1,.4-.4h2.72a.38.38,0,0,1,.4.4v2.92a.38.38,0,0,1-.4.4ZM428,179.2a.38.38,0,0,1-.4-.4V160.44a.38.38,0,0,1,.4-.4h2.56a.38.38,0,0,1,.4.4V178.8a.38.38,0,0,1-.4.4Z"/><path d="M440.71,179.4c-3.72,0-5.16-1.68-5.16-5.44V163a.21.21,0,0,0-.24-.24h-1.6a.38.38,0,0,1-.4-.4v-1.92a.38.38,0,0,1,.4-.4h1.6a.21.21,0,0,0,.24-.24v-5.4a.38.38,0,0,1,.4-.4h2.56a.38.38,0,0,1,.4.4v5.4a.21.21,0,0,0,.24.24h3a.38.38,0,0,1,.4.4v1.92a.38.38,0,0,1-.4.4h-3a.21.21,0,0,0-.24.24v10.84c0,1.92.72,2.44,2.44,2.44h.84a.38.38,0,0,1,.4.4V179a.38.38,0,0,1-.4.4Z"/><path d="M457,179.2a.38.38,0,0,1-.4-.4v-1.68h0c-.88,1.44-2.76,2.52-5.68,2.52-3.64,0-6.44-1.88-6.44-5.76,0-4,2.8-5.92,7.48-5.92h4.36a.21.21,0,0,0,.24-.24v-1.4c0-2.64-1-3.76-4.6-3.76a7.45,7.45,0,0,0-4.64,1.36c-.2.16-.44.16-.56,0L445.63,162a.42.42,0,0,1,.08-.56,10.63,10.63,0,0,1,6.52-1.88c5.44,0,7.52,1.8,7.52,6.52V178.8a.38.38,0,0,1-.4.4Zm-.48-6.2v-2.12a.21.21,0,0,0-.24-.24h-3.84c-3.32,0-4.76,1-4.76,3.12,0,2,1.44,3,4,3C454.67,176.76,456.51,175.36,456.51,173Z"/><path d="M464.15,179.2a.38.38,0,0,1-.4-.4V160.44a.38.38,0,0,1,.4-.4h2.56a.38.38,0,0,1,.4.4v2h0a5.34,5.34,0,0,1,5.08-2.8,5.89,5.89,0,0,1,3.92,1.44c.2.2.24.36.08.56l-1.48,2a.36.36,0,0,1-.56.08,5.4,5.4,0,0,0-3-.92c-2.92,0-4.12,2.28-4.12,5.6V178.8a.38.38,0,0,1-.4.4Z"/><path d="M17,193.72a.38.38,0,0,1-.4-.4V190.4a.38.38,0,0,1,.4-.4h2.72a.38.38,0,0,1,.4.4v2.92a.38.38,0,0,1-.4.4Zm.08,23.48a.38.38,0,0,1-.4-.4V198.44a.38.38,0,0,1,.4-.4h2.56a.38.38,0,0,1,.4.4V216.8a.38.38,0,0,1-.4.4Z"/><path d="M36.66,217.2a.38.38,0,0,1-.4-.4V205.6c0-3.08-1.4-4.88-4.28-4.88-2.6,0-4.4,1.84-4.4,4.68v11.4a.38.38,0,0,1-.4.4H24.62a.38.38,0,0,1-.4-.4V198.44a.38.38,0,0,1,.4-.4h2.56a.38.38,0,0,1,.4.4v1.76h0A6.06,6.06,0,0,1,33,197.6c4.16,0,6.64,2.84,6.64,7.2v12a.38.38,0,0,1-.4.4Z"/><path d="M43,202.76c1.08-3.32,3.88-5.16,7.56-5.16a7.68,7.68,0,0,1,6.56,3.24c.12.2.12.36-.12.56l-1.76,1.44a.36.36,0,0,1-.56,0,4.71,4.71,0,0,0-4.12-2.08,4.16,4.16,0,0,0-4.28,3,17.5,17.5,0,0,0,0,7.8,4.16,4.16,0,0,0,4.28,3,4.71,4.71,0,0,0,4.12-2.08.36.36,0,0,1,.56,0L57,213.84c.24.2.24.36.12.56a7.68,7.68,0,0,1-6.56,3.24c-3.68,0-6.48-1.84-7.56-5.16a20,20,0,0,1,0-9.72Z"/><path d="M60.38,193.72a.38.38,0,0,1-.4-.4V190.4a.38.38,0,0,1,.4-.4H63.1a.38.38,0,0,1,.4.4v2.92a.38.38,0,0,1-.4.4Zm.08,23.48a.38.38,0,0,1-.4-.4V198.44a.38.38,0,0,1,.4-.4H63a.38.38,0,0,1,.4.4V216.8a.38.38,0,0,1-.4.4Z"/><path d="M79.58,217.2a.38.38,0,0,1-.4-.4V215h0c-.92,1.52-2.56,2.68-5.44,2.68-3.32,0-5.64-1.56-6.6-4.6a21.94,21.94,0,0,1,0-10.84c1-3,3.28-4.6,6.6-4.6,2.88,0,4.52,1.12,5.44,2.64h0V190.4a.38.38,0,0,1,.4-.4h2.56a.38.38,0,0,1,.4.4v26.4a.38.38,0,0,1-.4.4Zm-.84-5.6a12.31,12.31,0,0,0,.44-4,12.47,12.47,0,0,0-.44-4,4.53,4.53,0,0,0-8.44,0,13.63,13.63,0,0,0-.44,4,13.29,13.29,0,0,0,.44,4,4.51,4.51,0,0,0,8.44,0Z"/><path d="M86.18,212.44a15,15,0,0,1-.64-4.84,14.86,14.86,0,0,1,.6-4.84c1.08-3.32,3.88-5.16,7.52-5.16a7.42,7.42,0,0,1,7.52,5.16,16.72,16.72,0,0,1,.6,5.48.39.39,0,0,1-.44.4H89.22a.21.21,0,0,0-.24.24,7.18,7.18,0,0,0,.32,2.32,4.73,4.73,0,0,0,4.84,3.32,6.26,6.26,0,0,0,4.92-2.12.41.41,0,0,1,.6-.08l1.64,1.48a.36.36,0,0,1,0,.56,9.32,9.32,0,0,1-7.48,3.28C90,217.64,87.22,215.76,86.18,212.44ZM98.1,206a.21.21,0,0,0,.24-.24,6.74,6.74,0,0,0-.28-2.16,4.73,4.73,0,0,0-8.8,0,6.74,6.74,0,0,0-.28,2.16.21.21,0,0,0,.24.24Z"/><path d="M117.22,217.2a.38.38,0,0,1-.4-.4V205.6c0-3.08-1.4-4.88-4.28-4.88-2.6,0-4.4,1.84-4.4,4.68v11.4a.38.38,0,0,1-.4.4h-2.56a.38.38,0,0,1-.4-.4V198.44a.38.38,0,0,1,.4-.4h2.56a.38.38,0,0,1,.4.4v1.76h0a6.06,6.06,0,0,1,5.36-2.6c4.16,0,6.63,2.84,6.63,7.2v12a.37.37,0,0,1-.39.4Z"/><path d="M129.7,217.4c-3.72,0-5.16-1.68-5.16-5.44V201a.21.21,0,0,0-.24-.24h-1.6a.38.38,0,0,1-.4-.4v-1.92a.38.38,0,0,1,.4-.4h1.6a.21.21,0,0,0,.24-.24v-5.4a.38.38,0,0,1,.4-.4h2.56a.38.38,0,0,1,.4.4v5.4a.21.21,0,0,0,.24.24h3a.38.38,0,0,1,.4.4v1.92a.38.38,0,0,1-.4.4h-3a.21.21,0,0,0-.24.24v10.84c0,1.92.72,2.44,2.44,2.44h.84a.38.38,0,0,1,.4.4V217a.38.38,0,0,1-.4.4Z"/><path d="M133.86,212.44a15,15,0,0,1-.64-4.84,14.86,14.86,0,0,1,.6-4.84c1.08-3.32,3.88-5.16,7.52-5.16a7.42,7.42,0,0,1,7.51,5.16,16.72,16.72,0,0,1,.6,5.48.39.39,0,0,1-.44.4H136.9a.21.21,0,0,0-.24.24,7.18,7.18,0,0,0,.32,2.32,4.73,4.73,0,0,0,4.84,3.32,6.24,6.24,0,0,0,4.91-2.12.41.41,0,0,1,.6-.08L149,213.8a.36.36,0,0,1,0,.56,9.29,9.29,0,0,1-7.47,3.28C137.66,217.64,134.9,215.76,133.86,212.44ZM145.78,206a.21.21,0,0,0,.23-.24,6.74,6.74,0,0,0-.28-2.16,4.72,4.72,0,0,0-8.79,0,6.74,6.74,0,0,0-.28,2.16.21.21,0,0,0,.24.24Z"/><path d="M151.14,214.76a.39.39,0,0,1,0-.56l1.64-1.76a.39.39,0,0,1,.56,0,9.31,9.31,0,0,0,5.92,2.2c2.79,0,4.19-1.2,4.19-2.92,0-1.52-.72-2.36-3.72-2.68l-2-.2c-3.76-.4-5.72-2.28-5.72-5.4,0-3.64,2.6-5.84,7.12-5.84a11.45,11.45,0,0,1,6.79,2.12.39.39,0,0,1,.08.56L164.61,202a.39.39,0,0,1-.56.08,10,10,0,0,0-5.15-1.56c-2.4,0-3.64,1.08-3.64,2.64s.92,2.32,3.76,2.6l2,.2c3.88.36,5.76,2.32,5.76,5.4,0,3.76-2.72,6.28-7.71,6.28A11.91,11.91,0,0,1,151.14,214.76Z"/><path d="M169.58,213h2.8a.38.38,0,0,1,.4.4v3.72a1.27,1.27,0,0,1-.24.88l-2.48,3.27a.63.63,0,0,1-.52.28.36.36,0,0,1-.36-.36v-7.79A.38.38,0,0,1,169.58,213Z"/><path d="M187.93,217.2c-.28,0-.4-.16-.48-.4l-6.87-18.36c-.08-.24,0-.4.32-.4h2.76c.28,0,.4.12.52.4l4.95,13.76h.08l4.84-13.76a.47.47,0,0,1,.48-.4h2.72c.28,0,.4.16.32.4l-6.84,18.36a.52.52,0,0,1-.52.4Z"/><path d="M198.82,212.44a18.91,18.91,0,0,1,0-9.68c1.07-3.32,3.87-5.16,7.51-5.16a7.42,7.42,0,0,1,7.52,5.16,16.72,16.72,0,0,1,.6,5.48.39.39,0,0,1-.44.4H201.85a.21.21,0,0,0-.24.24,7.18,7.18,0,0,0,.32,2.32,4.73,4.73,0,0,0,4.84,3.32,6.26,6.26,0,0,0,4.92-2.12.41.41,0,0,1,.6-.08l1.64,1.48a.36.36,0,0,1,0,.56,9.32,9.32,0,0,1-7.48,3.28C202.61,217.64,199.85,215.76,198.82,212.44ZM210.73,206a.21.21,0,0,0,.24-.24,6.74,6.74,0,0,0-.28-2.16,4.73,4.73,0,0,0-8.8,0,6.74,6.74,0,0,0-.28,2.16.21.21,0,0,0,.24.24Z"/><path d="M217.81,217.2a.38.38,0,0,1-.4-.4V198.44a.38.38,0,0,1,.4-.4h2.56a.38.38,0,0,1,.4.4v2h0a5.34,5.34,0,0,1,5.08-2.8,5.89,5.89,0,0,1,3.92,1.44c.2.2.24.36.08.56l-1.48,2a.36.36,0,0,1-.56.08,5.4,5.4,0,0,0-3-.92c-2.92,0-4.12,2.28-4.12,5.6V216.8a.38.38,0,0,1-.4.4Z"/><path d="M231.73,193.72a.38.38,0,0,1-.4-.4V190.4a.38.38,0,0,1,.4-.4h2.72a.38.38,0,0,1,.4.4v2.92a.38.38,0,0,1-.4.4Zm.08,23.48a.38.38,0,0,1-.4-.4V198.44a.38.38,0,0,1,.4-.4h2.56a.38.38,0,0,1,.4.4V216.8a.38.38,0,0,1-.4.4Z"/><path d="M240,217.2a.38.38,0,0,1-.4-.4V201a.21.21,0,0,0-.24-.24h-1.64a.38.38,0,0,1-.4-.4v-1.92a.38.38,0,0,1,.4-.4h1.64a.21.21,0,0,0,.24-.24v-1.64c0-4.52,1.84-6.16,5.84-6.16h1.48a.38.38,0,0,1,.4.4v2.32a.38.38,0,0,1-.4.4h-1c-2.44,0-2.92.52-2.92,2.88v1.8a.21.21,0,0,0,.24.24h3.72a.38.38,0,0,1,.4.4v1.92a.38.38,0,0,1-.4.4h-3.72a.21.21,0,0,0-.24.24v15.8a.38.38,0,0,1-.4.4Zm12-23.48a.38.38,0,0,1-.4-.4V190.4a.38.38,0,0,1,.4-.4h2.72a.38.38,0,0,1,.4.4v2.92a.38.38,0,0,1-.4.4Zm.08,23.48a.38.38,0,0,1-.4-.4V198.44a.38.38,0,0,1,.4-.4h2.56a.38.38,0,0,1,.4.4V216.8a.38.38,0,0,1-.4.4Z"/><path d="M271.17,224.39a.38.38,0,0,1-.4-.4v-9h0c-.92,1.52-2.56,2.68-5.44,2.68-3.32,0-5.64-1.56-6.6-4.6a21.94,21.94,0,0,1,0-10.84c1-3,3.28-4.6,6.6-4.6,2.88,0,4.52,1.12,5.44,2.64h0v-1.8a.38.38,0,0,1,.4-.4h2.56a.38.38,0,0,1,.4.4V224a.38.38,0,0,1-.4.4Zm-.84-12.79a12.31,12.31,0,0,0,.44-4,12.47,12.47,0,0,0-.44-4,4.53,4.53,0,0,0-8.44,0,13.63,13.63,0,0,0-.44,4,13.29,13.29,0,0,0,.44,4,4.51,4.51,0,0,0,8.44,0Z"/><path d="M290.33,217.2a.38.38,0,0,1-.4-.4V215h0a5.84,5.84,0,0,1-5.24,2.64c-4.2,0-6.64-2.88-6.64-7.24v-12a.38.38,0,0,1,.4-.4H281a.38.38,0,0,1,.4.4V209.6c0,3.12,1.4,4.92,4.24,4.92,2.6,0,4.32-1.84,4.32-4.72V198.44a.38.38,0,0,1,.4-.4h2.56a.38.38,0,0,1,.4.4V216.8a.38.38,0,0,1-.4.4Z"/><path d="M296.93,212.44a15,15,0,0,1-.64-4.84,14.86,14.86,0,0,1,.6-4.84c1.08-3.32,3.88-5.16,7.52-5.16a7.42,7.42,0,0,1,7.52,5.16,16.72,16.72,0,0,1,.6,5.48.39.39,0,0,1-.44.4H300a.21.21,0,0,0-.24.24,7.18,7.18,0,0,0,.32,2.32,4.73,4.73,0,0,0,4.84,3.32,6.26,6.26,0,0,0,4.92-2.12.41.41,0,0,1,.6-.08l1.64,1.48a.36.36,0,0,1,0,.56,9.32,9.32,0,0,1-7.48,3.28C300.73,217.64,298,215.76,296.93,212.44ZM308.85,206a.21.21,0,0,0,.24-.24,6.74,6.74,0,0,0-.28-2.16,4.73,4.73,0,0,0-8.8,0,6.74,6.74,0,0,0-.28,2.16.21.21,0,0,0,.24.24Z"/><path d="M323,214.76a.39.39,0,0,1,0-.56l1.64-1.76a.39.39,0,0,1,.56,0,9.31,9.31,0,0,0,5.92,2.2c2.8,0,4.2-1.2,4.2-2.92,0-1.52-.72-2.36-3.72-2.68l-2-.2c-3.76-.4-5.72-2.28-5.72-5.4,0-3.64,2.6-5.84,7.12-5.84a11.46,11.46,0,0,1,6.8,2.12.39.39,0,0,1,.08.56L336.49,202a.39.39,0,0,1-.56.08,10.09,10.09,0,0,0-5.16-1.56c-2.4,0-3.64,1.08-3.64,2.64s.92,2.32,3.76,2.6l2,.2c3.88.36,5.76,2.32,5.76,5.4,0,3.76-2.72,6.28-7.72,6.28A11.91,11.91,0,0,1,323,214.76Z"/><path d="M344.25,193.72a.38.38,0,0,1-.4-.4V190.4a.38.38,0,0,1,.4-.4H347a.38.38,0,0,1,.4.4v2.92a.38.38,0,0,1-.4.4Zm.08,23.48a.38.38,0,0,1-.4-.4V198.44a.38.38,0,0,1,.4-.4h2.56a.38.38,0,0,1,.4.4V216.8a.38.38,0,0,1-.4.4Z"/><path d="M353.33,212.44a15,15,0,0,1-.64-4.84,14.86,14.86,0,0,1,.6-4.84c1.08-3.32,3.88-5.16,7.52-5.16a7.42,7.42,0,0,1,7.52,5.16,16.72,16.72,0,0,1,.6,5.48.39.39,0,0,1-.44.4H356.37a.21.21,0,0,0-.24.24,7.18,7.18,0,0,0,.32,2.32,4.73,4.73,0,0,0,4.84,3.32,6.26,6.26,0,0,0,4.92-2.12.41.41,0,0,1,.6-.08l1.64,1.48a.36.36,0,0,1,0,.56,9.32,9.32,0,0,1-7.48,3.28C357.13,217.64,354.37,215.76,353.33,212.44ZM365.25,206a.21.21,0,0,0,.24-.24,6.74,6.74,0,0,0-.28-2.16,4.73,4.73,0,0,0-8.8,0,6.74,6.74,0,0,0-.28,2.16.21.21,0,0,0,.24.24Z"/><path d="M398.81,217.2a.38.38,0,0,1-.4-.4V205.6c0-3.08-1.4-4.88-4.28-4.88a4.32,4.32,0,0,0-4.4,4.68v11.4a.38.38,0,0,1-.4.4h-2.56a.38.38,0,0,1-.4-.4V205.6c0-3.08-1.4-4.88-4.28-4.88-2.6,0-4.4,1.84-4.4,4.68v11.4a.38.38,0,0,1-.4.4h-2.56a.38.38,0,0,1-.4-.4V198.44a.38.38,0,0,1,.4-.4h2.56a.38.38,0,0,1,.4.4v1.76h0a6.77,6.77,0,0,1,11,.4h0a7.13,7.13,0,0,1,6.2-3c4.44,0,6.84,2.84,6.84,7.2v12a.38.38,0,0,1-.4.4Z"/><path d="M408.53,224.39a.38.38,0,0,1-.4-.4V198.44a.38.38,0,0,1,.4-.4h2.56a.38.38,0,0,1,.4.4v1.8h0c.92-1.52,2.56-2.64,5.44-2.64,3.32,0,5.64,1.56,6.6,4.6a21.94,21.94,0,0,1,0,10.84c-1,3-3.28,4.6-6.6,4.6-2.88,0-4.52-1.16-5.44-2.68h0v9a.38.38,0,0,1-.4.4Zm11.84-12.79a13.29,13.29,0,0,0,.44-4,13.63,13.63,0,0,0-.44-4,4.53,4.53,0,0,0-8.44,0,12.47,12.47,0,0,0-.44,4,12.31,12.31,0,0,0,.44,4,4.51,4.51,0,0,0,8.44,0Z"/><path d="M430.05,217.2a.38.38,0,0,1-.4-.4V198.44a.38.38,0,0,1,.4-.4h2.56a.38.38,0,0,1,.4.4v2h0a5.34,5.34,0,0,1,5.08-2.8,5.89,5.89,0,0,1,3.92,1.44c.2.2.24.36.08.56l-1.48,2a.36.36,0,0,1-.56.08,5.4,5.4,0,0,0-3-.92c-2.92,0-4.12,2.28-4.12,5.6V216.8a.38.38,0,0,1-.4.4Z"/><path d="M444.81,212.44a15,15,0,0,1-.64-4.84,14.86,14.86,0,0,1,.6-4.84c1.08-3.32,3.88-5.16,7.52-5.16a7.42,7.42,0,0,1,7.52,5.16,16.72,16.72,0,0,1,.6,5.48.39.39,0,0,1-.44.4H447.85a.21.21,0,0,0-.24.24,7.18,7.18,0,0,0,.32,2.32,4.73,4.73,0,0,0,4.84,3.32,6.26,6.26,0,0,0,4.92-2.12.41.41,0,0,1,.6-.08l1.64,1.48a.36.36,0,0,1,0,.56,9.32,9.32,0,0,1-7.48,3.28C448.61,217.64,445.85,215.76,444.81,212.44ZM456.73,206a.21.21,0,0,0,.24-.24,6.74,6.74,0,0,0-.28-2.16,4.73,4.73,0,0,0-8.8,0,6.74,6.74,0,0,0-.28,2.16.21.21,0,0,0,.24.24Z"/><path d="M18.44,250.44a15,15,0,0,1-.64-4.84,14.86,14.86,0,0,1,.6-4.84c1.08-3.32,3.88-5.16,7.52-5.16a7.42,7.42,0,0,1,7.52,5.16,16.72,16.72,0,0,1,.6,5.48.39.39,0,0,1-.44.4H21.48a.21.21,0,0,0-.24.24,7.18,7.18,0,0,0,.32,2.32,4.73,4.73,0,0,0,4.84,3.32,6.26,6.26,0,0,0,4.92-2.12.41.41,0,0,1,.6-.08l1.64,1.48a.36.36,0,0,1,0,.56,9.32,9.32,0,0,1-7.48,3.28C22.24,255.64,19.48,253.76,18.44,250.44ZM30.36,244a.21.21,0,0,0,.24-.24,6.74,6.74,0,0,0-.28-2.16,4.33,4.33,0,0,0-4.4-3,4.33,4.33,0,0,0-4.4,3,6.74,6.74,0,0,0-.28,2.16.21.21,0,0,0,.24.24Z"/><path d="M44,255.4c-3.36,0-4.68-1.6-4.68-5v-22a.38.38,0,0,1,.4-.4h2.56a.38.38,0,0,1,.4.4v21.76c0,1.6.6,2.12,1.92,2.12h.76a.38.38,0,0,1,.4.4V255a.38.38,0,0,1-.4.4Z"/><path d="M59.6,250.44A15,15,0,0,1,59,245.6a14.86,14.86,0,0,1,.6-4.84c1.08-3.32,3.88-5.16,7.52-5.16a7.42,7.42,0,0,1,7.52,5.16,16.72,16.72,0,0,1,.6,5.48.39.39,0,0,1-.44.4H62.64a.21.21,0,0,0-.24.24,7.18,7.18,0,0,0,.32,2.32,4.73,4.73,0,0,0,4.84,3.32,6.26,6.26,0,0,0,4.92-2.12.41.41,0,0,1,.6-.08l1.64,1.48a.36.36,0,0,1,0,.56,9.32,9.32,0,0,1-7.48,3.28C63.4,255.64,60.64,253.76,59.6,250.44ZM71.52,244a.21.21,0,0,0,.24-.24,6.74,6.74,0,0,0-.28-2.16,4.73,4.73,0,0,0-8.8,0,6.74,6.74,0,0,0-.28,2.16.21.21,0,0,0,.24.24Z"/><path d="M79.28,252.76a.39.39,0,0,1,0-.56l1.64-1.76a.39.39,0,0,1,.56,0,9.31,9.31,0,0,0,5.92,2.2c2.8,0,4.2-1.2,4.2-2.92,0-1.52-.72-2.36-3.72-2.68l-2-.2c-3.76-.4-5.72-2.28-5.72-5.4,0-3.64,2.6-5.84,7.12-5.84a11.46,11.46,0,0,1,6.8,2.12.39.39,0,0,1,.08.56L92.76,240a.39.39,0,0,1-.56.08A10.09,10.09,0,0,0,87,238.52c-2.4,0-3.64,1.08-3.64,2.64s.92,2.32,3.76,2.6l2,.2c3.88.36,5.76,2.32,5.76,5.4,0,3.76-2.72,6.28-7.72,6.28A11.91,11.91,0,0,1,79.28,252.76Z"/><path d="M105.76,255.4c-3.72,0-5.16-1.68-5.16-5.44V239a.21.21,0,0,0-.24-.24h-1.6a.38.38,0,0,1-.4-.4v-1.92a.38.38,0,0,1,.4-.4h1.6a.21.21,0,0,0,.24-.24v-5.4a.38.38,0,0,1,.4-.4h2.56a.38.38,0,0,1,.4.4v5.4a.21.21,0,0,0,.24.24h3a.38.38,0,0,1,.4.4v1.92a.38.38,0,0,1-.4.4h-3a.21.21,0,0,0-.24.24v10.84c0,1.92.72,2.44,2.44,2.44h.84a.38.38,0,0,1,.4.4V255a.38.38,0,0,1-.4.4Z"/><path d="M124.44,255.2a.38.38,0,0,1-.4-.4v-1.68h0c-.88,1.44-2.76,2.52-5.68,2.52-3.64,0-6.44-1.88-6.44-5.76,0-4,2.8-5.92,7.48-5.92h4.36a.21.21,0,0,0,.24-.24v-1.4c0-2.64-1-3.76-4.6-3.76a7.45,7.45,0,0,0-4.64,1.36c-.2.16-.44.16-.56,0L113.08,238a.42.42,0,0,1,.08-.56,10.63,10.63,0,0,1,6.52-1.88c5.44,0,7.52,1.8,7.52,6.52V254.8a.38.38,0,0,1-.4.4ZM124,249v-2.12a.21.21,0,0,0-.24-.24h-3.84c-3.32,0-4.76,1-4.76,3.12,0,2,1.44,3,4,3C122.12,252.76,124,251.36,124,249Z"/><path d="M145.6,255.2a.38.38,0,0,1-.4-.4V253h0c-.92,1.52-2.56,2.68-5.44,2.68-3.32,0-5.64-1.56-6.6-4.6a21.94,21.94,0,0,1,0-10.84c1-3,3.28-4.6,6.6-4.6,2.88,0,4.52,1.12,5.44,2.64h0V228.4a.38.38,0,0,1,.4-.4h2.55a.37.37,0,0,1,.4.4v26.4a.37.37,0,0,1-.4.4Zm-.84-5.6a12.31,12.31,0,0,0,.44-4,12.47,12.47,0,0,0-.44-4,4.53,4.53,0,0,0-8.44,0,13.63,13.63,0,0,0-.44,4,13.29,13.29,0,0,0,.44,4,4.51,4.51,0,0,0,8.44,0Z"/><path d="M154.6,250.48a18.77,18.77,0,0,1,0-9.72c1-3.28,3.84-5.16,7.56-5.16s6.51,1.88,7.55,5.16a18.77,18.77,0,0,1,0,9.72c-1,3.24-3.83,5.16-7.55,5.16S155.64,253.72,154.6,250.48Zm11.88-1a12.55,12.55,0,0,0,.44-3.92,12.27,12.27,0,0,0-.44-3.88,4.61,4.61,0,0,0-8.64,0,12.27,12.27,0,0,0-.44,3.88,12.55,12.55,0,0,0,.44,3.92,4.61,4.61,0,0,0,8.64,0Z"/><path d="M197.35,255.2a.38.38,0,0,1-.4-.4V253h0c-.92,1.52-2.56,2.68-5.43,2.68-3.32,0-5.64-1.56-6.6-4.6a21.94,21.94,0,0,1,0-10.84c1-3,3.28-4.6,6.6-4.6,2.87,0,4.51,1.12,5.43,2.64h0V228.4a.38.38,0,0,1,.4-.4h2.56a.38.38,0,0,1,.4.4v26.4a.38.38,0,0,1-.4.4Zm-.84-5.6a12.31,12.31,0,0,0,.44-4,12.47,12.47,0,0,0-.44-4,4.52,4.52,0,0,0-8.43,0,13.63,13.63,0,0,0-.44,4,13.29,13.29,0,0,0,.44,4,4.5,4.5,0,0,0,8.43,0Z"/><path d="M206.36,250.44a15,15,0,0,1-.64-4.84,14.86,14.86,0,0,1,.6-4.84c1.08-3.32,3.88-5.16,7.51-5.16a7.42,7.42,0,0,1,7.52,5.16,16.72,16.72,0,0,1,.6,5.48.39.39,0,0,1-.44.4H209.4a.21.21,0,0,0-.24.24,7.18,7.18,0,0,0,.32,2.32,4.71,4.71,0,0,0,4.83,3.32,6.26,6.26,0,0,0,4.92-2.12.41.41,0,0,1,.6-.08l1.64,1.48a.36.36,0,0,1,0,.56,9.32,9.32,0,0,1-7.48,3.28C210.16,255.64,207.4,253.76,206.36,250.44ZM218.27,244a.21.21,0,0,0,.24-.24,6.74,6.74,0,0,0-.28-2.16,4.72,4.72,0,0,0-8.79,0,6.74,6.74,0,0,0-.28,2.16.21.21,0,0,0,.24.24Z"/><path d="M235.63,252.76a.4.4,0,0,1,0-.56l1.65-1.76a.38.38,0,0,1,.55,0,9.31,9.31,0,0,0,5.92,2.2c2.8,0,4.2-1.2,4.2-2.92,0-1.52-.72-2.36-3.72-2.68l-2-.2c-3.76-.4-5.72-2.28-5.72-5.4,0-3.64,2.6-5.84,7.12-5.84a11.46,11.46,0,0,1,6.8,2.12.39.39,0,0,1,.08.56L249.11,240a.39.39,0,0,1-.56.08,10.09,10.09,0,0,0-5.16-1.56c-2.4,0-3.64,1.08-3.64,2.64s.92,2.32,3.76,2.6l2,.2c3.88.36,5.76,2.32,5.76,5.4,0,3.76-2.72,6.28-7.72,6.28A11.91,11.91,0,0,1,235.63,252.76Z"/><path d="M268.59,255.2a.38.38,0,0,1-.4-.4V253h0a5.84,5.84,0,0,1-5.24,2.64c-4.2,0-6.64-2.88-6.64-7.24v-12a.38.38,0,0,1,.4-.4h2.56a.38.38,0,0,1,.4.4V247.6c0,3.12,1.4,4.92,4.24,4.92,2.6,0,4.32-1.84,4.32-4.72V236.44a.38.38,0,0,1,.4-.4h2.56a.38.38,0,0,1,.4.4V254.8a.38.38,0,0,1-.4.4Z"/><path d="M286.35,240.76c1.08-3.32,3.88-5.16,7.56-5.16a7.68,7.68,0,0,1,6.56,3.24c.12.2.12.36-.12.56l-1.76,1.44a.36.36,0,0,1-.56,0,4.71,4.71,0,0,0-4.12-2.08,4.16,4.16,0,0,0-4.28,3,17.5,17.5,0,0,0,0,7.8,4.16,4.16,0,0,0,4.28,3,4.71,4.71,0,0,0,4.12-2.08.36.36,0,0,1,.56,0l1.76,1.44c.24.2.24.36.12.56a7.68,7.68,0,0,1-6.56,3.24c-3.68,0-6.48-1.84-7.56-5.16a20,20,0,0,1,0-9.72Z"/><path d="M316.11,255.2a.38.38,0,0,1-.4-.4v-1.68h0c-.88,1.44-2.76,2.52-5.68,2.52-3.64,0-6.44-1.88-6.44-5.76,0-4,2.8-5.92,7.48-5.92h4.36a.21.21,0,0,0,.24-.24v-1.4c0-2.64-1-3.76-4.6-3.76a7.45,7.45,0,0,0-4.64,1.36c-.2.16-.44.16-.56,0L304.75,238a.42.42,0,0,1,.08-.56,10.63,10.63,0,0,1,6.52-1.88c5.44,0,7.52,1.8,7.52,6.52V254.8a.38.38,0,0,1-.4.4Zm-.48-6.2v-2.12a.21.21,0,0,0-.24-.24h-3.84c-3.32,0-4.76,1-4.76,3.12,0,2,1.44,3,4,3C313.79,252.76,315.63,251.36,315.63,249Z"/><path d="M329.07,255.4c-3.36,0-4.68-1.6-4.68-5v-22a.38.38,0,0,1,.4-.4h2.56a.38.38,0,0,1,.4.4v21.76c0,1.6.6,2.12,1.92,2.12h.76a.38.38,0,0,1,.4.4V255a.38.38,0,0,1-.4.4Z"/><path d="M334.07,255.2a.38.38,0,0,1-.4-.4v-2.12a.6.6,0,0,1,.16-.44l10.52-13.08v-.08h-9.76a.38.38,0,0,1-.4-.4v-2.24a.38.38,0,0,1,.4-.4H348a.38.38,0,0,1,.4.4v2.24a.6.6,0,0,1-.16.44l-10.44,13v.08H348a.38.38,0,0,1,.4.4v2.24a.38.38,0,0,1-.4.4Z"/><path d="M364.63,255.2a.38.38,0,0,1-.4-.4v-1.68h0c-.88,1.44-2.76,2.52-5.68,2.52-3.64,0-6.44-1.88-6.44-5.76,0-4,2.8-5.92,7.48-5.92h4.36a.21.21,0,0,0,.24-.24v-1.4c0-2.64-1-3.76-4.6-3.76a7.45,7.45,0,0,0-4.64,1.36c-.2.16-.44.16-.56,0L353.27,238a.42.42,0,0,1,.08-.56,10.63,10.63,0,0,1,6.52-1.88c5.44,0,7.52,1.8,7.52,6.52V254.8a.38.38,0,0,1-.4.4Zm-.48-6.2v-2.12a.21.21,0,0,0-.24-.24h-3.84c-3.32,0-4.76,1-4.76,3.12,0,2,1.44,3,4,3C362.31,252.76,364.15,251.36,364.15,249Z"/><path d="M385,255.2a.38.38,0,0,1-.4-.4V253h0c-.92,1.52-2.56,2.68-5.44,2.68-3.32,0-5.64-1.56-6.6-4.6a21.94,21.94,0,0,1,0-10.84c1-3,3.28-4.6,6.6-4.6,2.88,0,4.52,1.12,5.44,2.64h0V228.4a.38.38,0,0,1,.4-.4h2.56a.38.38,0,0,1,.4.4v26.4a.38.38,0,0,1-.4.4Zm-.84-5.6a12.31,12.31,0,0,0,.44-4,12.47,12.47,0,0,0-.44-4,4.53,4.53,0,0,0-8.44,0,13.63,13.63,0,0,0-.44,4,13.29,13.29,0,0,0,.44,4,4.51,4.51,0,0,0,8.44,0Z"/><path d="M393.19,250.48a18.77,18.77,0,0,1,0-9.72c1-3.28,3.84-5.16,7.56-5.16s6.52,1.88,7.56,5.16a18.77,18.77,0,0,1,0,9.72c-1,3.24-3.84,5.16-7.56,5.16S394.23,253.72,393.19,250.48Zm11.88-1a12.55,12.55,0,0,0,.44-3.92,12.27,12.27,0,0,0-.44-3.88,4.61,4.61,0,0,0-8.64,0,12.27,12.27,0,0,0-.44,3.88,12.55,12.55,0,0,0,.44,3.92,4.61,4.61,0,0,0,8.64,0Z"/><path d="M434.35,255.2a.38.38,0,0,1-.4-.4V253h0c-.92,1.52-2.56,2.68-5.44,2.68-3.32,0-5.64-1.56-6.6-4.6a21.94,21.94,0,0,1,0-10.84c1-3,3.28-4.6,6.6-4.6,2.88,0,4.52,1.12,5.44,2.64h0V228.4a.38.38,0,0,1,.4-.4h2.56a.38.38,0,0,1,.4.4v26.4a.38.38,0,0,1-.4.4Zm-.84-5.6a12.31,12.31,0,0,0,.44-4,12.47,12.47,0,0,0-.44-4,4.53,4.53,0,0,0-8.44,0,13.63,13.63,0,0,0-.44,4,13.29,13.29,0,0,0,.44,4,4.51,4.51,0,0,0,8.44,0Z"/><path d="M442.55,250.44a15,15,0,0,1-.64-4.84,14.86,14.86,0,0,1,.6-4.84c1.08-3.32,3.88-5.16,7.52-5.16a7.42,7.42,0,0,1,7.52,5.16,16.72,16.72,0,0,1,.6,5.48.39.39,0,0,1-.44.4H445.59a.21.21,0,0,0-.24.24,7.18,7.18,0,0,0,.32,2.32,4.73,4.73,0,0,0,4.84,3.32,6.26,6.26,0,0,0,4.92-2.12.41.41,0,0,1,.6-.08l1.64,1.48a.36.36,0,0,1,0,.56,9.32,9.32,0,0,1-7.48,3.28C446.35,255.64,443.59,253.76,442.55,250.44ZM454.47,244a.21.21,0,0,0,.24-.24,6.74,6.74,0,0,0-.28-2.16,4.73,4.73,0,0,0-8.8,0,6.74,6.74,0,0,0-.28,2.16.21.21,0,0,0,.24.24Z"/><path d="M152.78,290.76a.39.39,0,0,1,0-.56l1.64-1.76a.39.39,0,0,1,.56,0,9.31,9.31,0,0,0,5.92,2.2c2.79,0,4.19-1.2,4.19-2.92,0-1.52-.72-2.36-3.71-2.68l-2-.2c-3.76-.4-5.72-2.28-5.72-5.4,0-3.64,2.6-5.84,7.12-5.84a11.45,11.45,0,0,1,6.79,2.12.39.39,0,0,1,.08.56L166.25,278a.39.39,0,0,1-.56.08,10,10,0,0,0-5.15-1.56c-2.4,0-3.64,1.08-3.64,2.64s.92,2.32,3.76,2.6l2,.2c3.88.36,5.76,2.32,5.76,5.4,0,3.76-2.72,6.28-7.71,6.28A11.91,11.91,0,0,1,152.78,290.76Z"/><path d="M172.38,288.44a15,15,0,0,1-.64-4.84,14.86,14.86,0,0,1,.6-4.84c1.08-3.32,3.88-5.16,7.52-5.16a7.42,7.42,0,0,1,7.51,5.16,16.72,16.72,0,0,1,.6,5.48.39.39,0,0,1-.44.4H175.42a.21.21,0,0,0-.24.24,7.18,7.18,0,0,0,.32,2.32,4.73,4.73,0,0,0,4.84,3.32,6.25,6.25,0,0,0,4.91-2.12.41.41,0,0,1,.6-.08l1.64,1.48a.36.36,0,0,1,0,.56,9.31,9.31,0,0,1-7.47,3.28C176.18,293.64,173.42,291.76,172.38,288.44ZM184.29,282a.21.21,0,0,0,.24-.24,6.74,6.74,0,0,0-.28-2.16,4.72,4.72,0,0,0-8.79,0,6.74,6.74,0,0,0-.28,2.16.21.21,0,0,0,.24.24Z"/><path d="M192.18,298a.36.36,0,0,1,0-.56l1.64-1.64a.37.37,0,0,1,.6,0,6.37,6.37,0,0,0,4.51,1.92c3.16,0,4.84-1.64,4.84-5.15v-2.24h0c-.88,1.6-2.52,2.64-5.32,2.64a6.27,6.27,0,0,1-6.43-4.64,20.16,20.16,0,0,1,0-10.08,6.27,6.27,0,0,1,6.43-4.64c2.8,0,4.44,1,5.32,2.64h0v-1.8a.38.38,0,0,1,.4-.4h2.56a.38.38,0,0,1,.4.4v17.92c0,5.43-3,8.47-8.36,8.47A8.64,8.64,0,0,1,192.18,298Zm11.19-11a11.65,11.65,0,0,0,.44-3.72,11.81,11.81,0,0,0-.44-3.72,4.31,4.31,0,0,0-8.11,0,12,12,0,0,0-.48,3.72,11.83,11.83,0,0,0,.48,3.72,3.9,3.9,0,0,0,4,2.88A4,4,0,0,0,203.37,287Z"/><path d="M225,293.2a.38.38,0,0,1-.4-.4V291h0a5.84,5.84,0,0,1-5.24,2.64c-4.2,0-6.63-2.88-6.63-7.24v-12a.38.38,0,0,1,.4-.4h2.55a.38.38,0,0,1,.4.4V285.6c0,3.12,1.4,4.92,4.24,4.92,2.6,0,4.32-1.84,4.32-4.72V274.44a.38.38,0,0,1,.4-.4h2.56a.38.38,0,0,1,.4.4V292.8a.38.38,0,0,1-.4.4Z"/><path d="M234.09,293.2a.38.38,0,0,1-.4-.4V274.44a.38.38,0,0,1,.4-.4h2.56a.38.38,0,0,1,.4.4v2h0a5.34,5.34,0,0,1,5.08-2.8,5.89,5.89,0,0,1,3.92,1.44c.2.2.24.36.08.56l-1.48,2a.36.36,0,0,1-.56.08,5.4,5.4,0,0,0-3-.92c-2.92,0-4.12,2.28-4.12,5.6V292.8a.38.38,0,0,1-.4.4Z"/><path d="M249.61,269.72a.38.38,0,0,1-.4-.4V266.4a.38.38,0,0,1,.4-.4h2.72a.38.38,0,0,1,.4.4v2.92a.38.38,0,0,1-.4.4Zm.08,23.48a.38.38,0,0,1-.4-.4V274.44a.38.38,0,0,1,.4-.4h2.56a.38.38,0,0,1,.4.4V292.8a.38.38,0,0,1-.4.4Z"/><path d="M270.41,293.2a.38.38,0,0,1-.4-.4V291h0c-.92,1.52-2.56,2.68-5.44,2.68-3.32,0-5.64-1.56-6.6-4.6a21.94,21.94,0,0,1,0-10.84c1-3,3.28-4.6,6.6-4.6,2.88,0,4.52,1.12,5.44,2.64h0V266.4a.38.38,0,0,1,.4-.4H273a.38.38,0,0,1,.4.4v26.4a.38.38,0,0,1-.4.4Zm-.84-5.6a12.31,12.31,0,0,0,.44-4,12.47,12.47,0,0,0-.44-4,4.53,4.53,0,0,0-8.44,0,13.63,13.63,0,0,0-.44,4,13.29,13.29,0,0,0,.44,4,4.51,4.51,0,0,0,8.44,0Z"/><path d="M290.73,293.2a.38.38,0,0,1-.4-.4v-1.68h0c-.88,1.44-2.76,2.52-5.68,2.52-3.64,0-6.44-1.88-6.44-5.76,0-4,2.8-5.92,7.48-5.92H290a.21.21,0,0,0,.24-.24v-1.4c0-2.64-1-3.76-4.6-3.76a7.45,7.45,0,0,0-4.64,1.36c-.2.16-.44.16-.56,0L279.37,276a.42.42,0,0,1,.08-.56A10.63,10.63,0,0,1,286,273.6c5.44,0,7.52,1.8,7.52,6.52V292.8a.38.38,0,0,1-.4.4Zm-.48-6.2v-2.12a.21.21,0,0,0-.24-.24h-3.84c-3.32,0-4.76,1-4.76,3.12,0,2,1.44,3,4,3C288.41,290.76,290.25,289.36,290.25,287Z"/><path d="M311.09,293.2a.38.38,0,0,1-.4-.4V291h0c-.92,1.52-2.56,2.68-5.44,2.68-3.32,0-5.64-1.56-6.6-4.6a21.94,21.94,0,0,1,0-10.84c1-3,3.28-4.6,6.6-4.6,2.88,0,4.52,1.12,5.44,2.64h0V266.4a.38.38,0,0,1,.4-.4h2.56a.38.38,0,0,1,.4.4v26.4a.38.38,0,0,1-.4.4Zm-.84-5.6a12.31,12.31,0,0,0,.44-4,12.47,12.47,0,0,0-.44-4,4.53,4.53,0,0,0-8.44,0,13.63,13.63,0,0,0-.44,4,13.29,13.29,0,0,0,.44,4,4.51,4.51,0,0,0,8.44,0Z"/><path d="M319.33,289.36a.38.38,0,0,1,.4-.4h3a.38.38,0,0,1,.4.4v3.44a.38.38,0,0,1-.4.4h-3a.38.38,0,0,1-.4-.4Z"/></g></g></svg>