<svg xmlns="http://www.w3.org/2000/svg" viewBox="0 0 649.07 252.87"><defs><style>.cls-1{fill:#4d4d4d;}</style></defs><title>r8</title><g id="Capa_2" data-name="Capa 2"><g id="control_vector" data-name="control vector"><path class="cls-1" d="M49.83.36C49.9.14,50,0,50.26,0H52.6a.45.45,0,0,1,.46.36l8.39,23.76c.07.21,0,.36-.25.36H58.68a.44.44,0,0,1-.47-.36l-1.87-5.33h-9.9l-1.87,5.33c-.11.25-.25.36-.47.36H41.58a.25.25,0,0,1-.25-.36ZM55.3,15.84,51.44,4.72h-.07L47.49,15.84Z"/><path class="cls-1" d="M68.62,24.66c-3,0-4.21-1.44-4.21-4.54V.36A.33.33,0,0,1,64.76,0h2.31a.34.34,0,0,1,.36.36V19.94c0,1.44.54,1.91,1.73,1.91h.68a.34.34,0,0,1,.36.36V24.3a.34.34,0,0,1-.36.36Z"/><path class="cls-1" d="M82,24.48a.34.34,0,0,1-.36-.36V7.59A.34.34,0,0,1,82,7.23h2.3a.34.34,0,0,1,.36.36V9.36h0a4.79,4.79,0,0,1,4.57-2.52,5.32,5.32,0,0,1,3.53,1.29c.18.18.21.33.07.51L91.55,10.4a.33.33,0,0,1-.51.07,4.86,4.86,0,0,0-2.66-.82c-2.63,0-3.71,2-3.71,5v9.43a.34.34,0,0,1-.36.36Z"/><path class="cls-1" d="M94.57,20.19A13.48,13.48,0,0,1,94,15.84a13.43,13.43,0,0,1,.54-4.36,7.25,7.25,0,0,1,13.53,0,15.08,15.08,0,0,1,.54,4.93c0,.22-.14.36-.4.36H97.31a.2.2,0,0,0-.22.22,6.47,6.47,0,0,0,.29,2.09,4.25,4.25,0,0,0,4.36,3,5.6,5.6,0,0,0,4.42-1.9c.18-.18.36-.22.54-.07l1.48,1.33a.31.31,0,0,1,0,.5,8.35,8.35,0,0,1-6.73,2.95C98,24.87,95.51,23.18,94.57,20.19Zm10.73-5.83a.19.19,0,0,0,.21-.21,6.08,6.08,0,0,0-.25-2,4.25,4.25,0,0,0-7.92,0,6.08,6.08,0,0,0-.25,2c0,.14.07.21.22.21Z"/><path class="cls-1" d="M123.19,24.48a.34.34,0,0,1-.36-.36V22.6h0c-.8,1.3-2.49,2.27-5.12,2.27-3.27,0-5.79-1.69-5.79-5.18,0-3.64,2.52-5.33,6.73-5.33h3.92c.15,0,.22-.07.22-.21V12.89c0-2.38-.94-3.39-4.14-3.39a6.73,6.73,0,0,0-4.18,1.23.32.32,0,0,1-.5,0L113,9a.38.38,0,0,1,.07-.5,9.56,9.56,0,0,1,5.87-1.69c4.89,0,6.76,1.62,6.76,5.87V24.12a.34.34,0,0,1-.36.36Zm-.43-5.58V17a.2.2,0,0,0-.22-.22h-3.45c-3,0-4.29.87-4.29,2.81,0,1.77,1.3,2.7,3.6,2.7C121.1,22.28,122.76,21,122.76,18.9Z"/><path class="cls-1" d="M134.86,24.66c-3,0-4.22-1.44-4.22-4.54V.36A.34.34,0,0,1,131,0h2.31a.34.34,0,0,1,.36.36V19.94c0,1.44.54,1.91,1.73,1.91h.68a.34.34,0,0,1,.36.36V24.3a.34.34,0,0,1-.36.36Z"/><path class="cls-1" d="M140.26,3.35A.34.34,0,0,1,139.9,3V.36a.34.34,0,0,1,.36-.36h2.44a.34.34,0,0,1,.36.36V3a.34.34,0,0,1-.36.36Zm.07,21.13a.34.34,0,0,1-.36-.36V7.59a.34.34,0,0,1,.36-.36h2.3a.34.34,0,0,1,.36.36V24.12a.34.34,0,0,1-.36.36Z"/><path class="cls-1" d="M147.56,24.48a.35.35,0,0,1-.36-.36V22.21a.54.54,0,0,1,.15-.4L156.81,10V10H148a.34.34,0,0,1-.36-.36v-2a.35.35,0,0,1,.36-.36h12a.34.34,0,0,1,.36.36v2a.55.55,0,0,1-.14.4l-9.39,11.66v.07h9.17a.34.34,0,0,1,.36.36v2a.34.34,0,0,1-.36.36Z"/><path class="cls-1" d="M175.07,24.48a.34.34,0,0,1-.36-.36V22.6h0c-.79,1.3-2.48,2.27-5.11,2.27-3.28,0-5.8-1.69-5.8-5.18,0-3.64,2.52-5.33,6.73-5.33h3.93a.19.19,0,0,0,.21-.21V12.89c0-2.38-.93-3.39-4.14-3.39a6.7,6.7,0,0,0-4.17,1.23.33.33,0,0,1-.51,0l-1-1.66a.38.38,0,0,1,.08-.5,9.53,9.53,0,0,1,5.86-1.69c4.9,0,6.77,1.62,6.77,5.87V24.12a.34.34,0,0,1-.36.36Zm-.44-5.58V17a.19.19,0,0,0-.21-.22H171c-3,0-4.28.87-4.28,2.81,0,1.77,1.29,2.7,3.6,2.7C173,22.28,174.63,21,174.63,18.9Z"/><path class="cls-1" d="M183,24.48a.34.34,0,0,1-.36-.36V7.59a.34.34,0,0,1,.36-.36h2.3a.34.34,0,0,1,.36.36V9.36h0a4.8,4.8,0,0,1,4.57-2.52,5.3,5.3,0,0,1,3.53,1.29c.18.18.21.33.07.51l-1.33,1.76a.32.32,0,0,1-.5.07,4.92,4.92,0,0,0-2.67-.82c-2.63,0-3.71,2-3.71,5v9.43a.34.34,0,0,1-.36.36Z"/><path class="cls-1" d="M209.55,24.66c-3.34,0-4.64-1.51-4.64-4.9V9.9a.19.19,0,0,0-.22-.22h-1.44a.34.34,0,0,1-.36-.36V7.59a.35.35,0,0,1,.36-.36h1.44c.15,0,.22-.07.22-.21V2.16a.34.34,0,0,1,.36-.36h2.3a.34.34,0,0,1,.36.36V7a.19.19,0,0,0,.22.21h2.74a.35.35,0,0,1,.36.36V9.32a.34.34,0,0,1-.36.36h-2.74a.2.2,0,0,0-.22.22v9.75c0,1.73.65,2.2,2.2,2.2h.76a.34.34,0,0,1,.36.36V24.3a.35.35,0,0,1-.36.36Z"/><path class="cls-1" d="M215.57,24.48a.34.34,0,0,1-.36-.36V7.59a.34.34,0,0,1,.36-.36h2.3a.34.34,0,0,1,.36.36V9.36h0a4.81,4.81,0,0,1,4.58-2.52,5.29,5.29,0,0,1,3.52,1.29c.18.18.22.33.08.51L225.1,10.4a.32.32,0,0,1-.5.07,4.89,4.89,0,0,0-2.66-.82c-2.63,0-3.71,2-3.71,5v9.43a.34.34,0,0,1-.36.36Z"/><path class="cls-1" d="M238.82,24.48a.34.34,0,0,1-.36-.36V22.6h0c-.79,1.3-2.48,2.27-5.11,2.27-3.27,0-5.79-1.69-5.79-5.18,0-3.64,2.52-5.33,6.73-5.33h3.92c.15,0,.22-.07.22-.21V12.89c0-2.38-.94-3.39-4.14-3.39a6.71,6.71,0,0,0-4.18,1.23.32.32,0,0,1-.5,0L228.6,9a.38.38,0,0,1,.07-.5,9.54,9.54,0,0,1,5.87-1.69c4.89,0,6.76,1.62,6.76,5.87V24.12a.34.34,0,0,1-.36.36Zm-.43-5.58V17a.2.2,0,0,0-.22-.22h-3.45c-3,0-4.29.87-4.29,2.81,0,1.77,1.3,2.7,3.6,2.7C236.73,22.28,238.39,21,238.39,18.9Z"/><path class="cls-1" d="M246.71,24.48a.34.34,0,0,1-.36-.36V.36a.34.34,0,0,1,.36-.36H249a.34.34,0,0,1,.36.36V9.21h0c.82-1.36,2.3-2.37,4.89-2.37,3,0,5.08,1.4,5.94,4.14a14.2,14.2,0,0,1,.61,4.86,14.25,14.25,0,0,1-.61,4.89c-.86,2.74-2.95,4.14-5.94,4.14-2.59,0-4.07-1-4.89-2.41h0v1.66a.34.34,0,0,1-.36.36Zm10.65-5a11.89,11.89,0,0,0,.4-3.6,12.15,12.15,0,0,0-.4-3.6,4.08,4.08,0,0,0-7.6,0,11.47,11.47,0,0,0-.39,3.6,11.35,11.35,0,0,0,.39,3.6,4.07,4.07,0,0,0,7.6,0Z"/><path class="cls-1" d="M275.43,24.48a.35.35,0,0,1-.36-.36V22.6h0c-.8,1.3-2.49,2.27-5.12,2.27-3.27,0-5.79-1.69-5.79-5.18,0-3.64,2.52-5.33,6.73-5.33h3.92c.15,0,.22-.07.22-.21V12.89c0-2.38-.94-3.39-4.14-3.39a6.73,6.73,0,0,0-4.18,1.23.32.32,0,0,1-.5,0l-1-1.66a.38.38,0,0,1,.07-.5,9.56,9.56,0,0,1,5.87-1.69c4.89,0,6.77,1.62,6.77,5.87V24.12a.35.35,0,0,1-.36.36ZM275,18.9V17a.2.2,0,0,0-.22-.22h-3.45c-3,0-4.28.87-4.28,2.81,0,1.77,1.29,2.7,3.59,2.7C273.34,22.28,275,21,275,18.9Z"/><path class="cls-1" d="M280.11,31a.35.35,0,0,1-.36-.36V28.51a.34.34,0,0,1,.36-.36h.58c1.69,0,2.27-.47,2.27-2.31V7.59a.34.34,0,0,1,.36-.36h2.3a.34.34,0,0,1,.36.36V25.77c0,3.71-1.65,5.19-5.15,5.19Zm3.14-27.61a.35.35,0,0,1-.37-.36V.36a.34.34,0,0,1,.37-.36h2.44a.34.34,0,0,1,.36.36V3a.34.34,0,0,1-.36.36Z"/><path class="cls-1" d="M290.7,20.23a12.85,12.85,0,0,1-.58-4.39,12.78,12.78,0,0,1,.58-4.36c.93-3,3.45-4.64,6.8-4.64s5.87,1.69,6.8,4.64a12.78,12.78,0,0,1,.58,4.36,12.85,12.85,0,0,1-.58,4.39c-.93,2.92-3.45,4.64-6.8,4.64S291.63,23.15,290.7,20.23Zm10.69-.86a11.63,11.63,0,0,0,.39-3.53,11.26,11.26,0,0,0-.39-3.49,4.15,4.15,0,0,0-7.78,0,11,11,0,0,0-.39,3.49,11.32,11.32,0,0,0,.39,3.53,4.16,4.16,0,0,0,7.78,0Z"/><path class="cls-1" d="M316.47,20.19a13.48,13.48,0,0,1-.57-4.35,13.43,13.43,0,0,1,.54-4.36,7.25,7.25,0,0,1,13.53,0,15.08,15.08,0,0,1,.54,4.93c0,.22-.14.36-.4.36h-10.9A.2.2,0,0,0,319,17a6.47,6.47,0,0,0,.29,2.09,4.25,4.25,0,0,0,4.35,3,5.61,5.61,0,0,0,4.43-1.9c.18-.18.36-.22.54-.07l1.48,1.33a.31.31,0,0,1,0,.5,8.35,8.35,0,0,1-6.73,2.95C319.89,24.87,317.41,23.18,316.47,20.19Zm10.73-5.83a.19.19,0,0,0,.22-.21,6.05,6.05,0,0,0-.26-2,4.25,4.25,0,0,0-7.92,0,6.08,6.08,0,0,0-.25,2c0,.14.07.21.22.21Z"/><path class="cls-1" d="M345.85,24.48a.34.34,0,0,1-.36-.36V14c0-2.77-1.26-4.39-3.86-4.39a3.87,3.87,0,0,0-4,4.21V24.12a.34.34,0,0,1-.35.36H335a.35.35,0,0,1-.36-.36V7.59a.35.35,0,0,1,.36-.36h2.31a.34.34,0,0,1,.35.36V9.18h0a5.45,5.45,0,0,1,4.82-2.34c3.75,0,6,2.55,6,6.48v10.8a.34.34,0,0,1-.36.36Z"/><path class="cls-1" d="M371.87,24.48a.35.35,0,0,1-.36-.36V22.6h0c-.79,1.3-2.49,2.27-5.11,2.27-3.28,0-5.8-1.69-5.8-5.18,0-3.64,2.52-5.33,6.73-5.33h3.93a.19.19,0,0,0,.21-.21V12.89c0-2.38-.93-3.39-4.14-3.39a6.68,6.68,0,0,0-4.17,1.23.33.33,0,0,1-.51,0l-1-1.66a.38.38,0,0,1,.07-.5,9.56,9.56,0,0,1,5.87-1.69c4.9,0,6.77,1.62,6.77,5.87V24.12a.35.35,0,0,1-.36.36Zm-.43-5.58V17a.19.19,0,0,0-.21-.22h-3.46c-3,0-4.28.87-4.28,2.81,0,1.77,1.29,2.7,3.6,2.7C369.79,22.28,371.44,21,371.44,18.9Z"/><path class="cls-1" d="M383.54,24.66c-3,0-4.21-1.44-4.21-4.54V.36a.34.34,0,0,1,.36-.36H382a.34.34,0,0,1,.36.36V19.94c0,1.44.54,1.91,1.73,1.91h.68a.34.34,0,0,1,.36.36V24.3a.34.34,0,0,1-.36.36Z"/><path class="cls-1" d="M393.47,24.66c-3.34,0-4.64-1.51-4.64-4.9V9.9a.19.19,0,0,0-.22-.22h-1.44a.33.33,0,0,1-.35-.36V7.59a.34.34,0,0,1,.35-.36h1.44c.15,0,.22-.07.22-.21V2.16a.34.34,0,0,1,.36-.36h2.3a.34.34,0,0,1,.36.36V7a.19.19,0,0,0,.22.21h2.74a.35.35,0,0,1,.36.36V9.32a.34.34,0,0,1-.36.36h-2.74a.2.2,0,0,0-.22.22v9.75c0,1.73.65,2.2,2.2,2.2h.76a.34.34,0,0,1,.36.36V24.3a.35.35,0,0,1-.36.36Z"/><path class="cls-1" d="M410,24.48a.35.35,0,0,1-.36-.36V22.5h0a5.26,5.26,0,0,1-4.72,2.37c-3.78,0-6-2.59-6-6.51V7.59a.35.35,0,0,1,.36-.36h2.31a.35.35,0,0,1,.36.36V17.64c0,2.81,1.26,4.42,3.81,4.42,2.34,0,3.89-1.65,3.89-4.24V7.59a.35.35,0,0,1,.36-.36h2.3a.35.35,0,0,1,.37.36V24.12a.35.35,0,0,1-.37.36Z"/><path class="cls-1" d="M418.17,24.48a.34.34,0,0,1-.36-.36V7.59a.34.34,0,0,1,.36-.36h2.3a.34.34,0,0,1,.36.36V9.36h0a4.8,4.8,0,0,1,4.57-2.52A5.32,5.32,0,0,1,429,8.13c.18.18.21.33.07.51l-1.33,1.76a.32.32,0,0,1-.5.07,4.92,4.92,0,0,0-2.67-.82c-2.63,0-3.71,2-3.71,5v9.43a.34.34,0,0,1-.36.36Z"/><path class="cls-1" d="M441.42,24.48a.35.35,0,0,1-.36-.36V22.6h0c-.79,1.3-2.48,2.27-5.11,2.27-3.28,0-5.8-1.69-5.8-5.18,0-3.64,2.52-5.33,6.73-5.33h3.93a.19.19,0,0,0,.21-.21V12.89c0-2.38-.93-3.39-4.14-3.39a6.7,6.7,0,0,0-4.17,1.23.33.33,0,0,1-.51,0L431.2,9a.38.38,0,0,1,.07-.5,9.58,9.58,0,0,1,5.87-1.69c4.9,0,6.77,1.62,6.77,5.87V24.12a.35.35,0,0,1-.36.36ZM441,18.9V17a.19.19,0,0,0-.21-.22h-3.46c-3,0-4.28.87-4.28,2.81,0,1.77,1.29,2.7,3.6,2.7C439.34,22.28,441,21,441,18.9Z"/><path class="cls-1" d="M447.76,22.28a.35.35,0,0,1,0-.5l1.48-1.59a.35.35,0,0,1,.5,0,8.37,8.37,0,0,0,5.33,2c2.52,0,3.78-1.08,3.78-2.62,0-1.37-.65-2.13-3.35-2.42L453.67,17c-3.39-.36-5.15-2-5.15-4.86,0-3.27,2.34-5.25,6.4-5.25A10.32,10.32,0,0,1,461,8.75a.35.35,0,0,1,.08.5l-1.23,1.55a.35.35,0,0,1-.5.07,9.09,9.09,0,0,0-4.64-1.4c-2.16,0-3.28,1-3.28,2.37s.83,2.09,3.38,2.34l1.8.18c3.49.33,5.19,2.09,5.19,4.86,0,3.38-2.45,5.65-6.95,5.65A10.75,10.75,0,0,1,447.76,22.28Z"/><path class="cls-1" d="M465.8,20.66h2.52a.35.35,0,0,1,.36.36v3.35a1.14,1.14,0,0,1-.22.79l-2.23,2.95a.56.56,0,0,1-.47.25.32.32,0,0,1-.32-.32V21A.34.34,0,0,1,465.8,20.66Z"/><path class="cls-1" d="M485.2,24.48c-.25,0-.36-.15-.43-.36L478.58,7.59c-.07-.21,0-.36.29-.36h2.48c.25,0,.36.11.47.36L486.28,20h.07l4.36-12.39a.42.42,0,0,1,.43-.36h2.45c.25,0,.36.15.29.36l-6.16,16.53a.47.47,0,0,1-.47.36Z"/><path class="cls-1" d="M496.43,20.19a13.48,13.48,0,0,1-.57-4.35,13.43,13.43,0,0,1,.54-4.36,7.25,7.25,0,0,1,13.53,0,15.08,15.08,0,0,1,.54,4.93.35.35,0,0,1-.39.36H499.17A.2.2,0,0,0,499,17a6.47,6.47,0,0,0,.29,2.09,4.25,4.25,0,0,0,4.36,3,5.6,5.6,0,0,0,4.42-1.9c.18-.18.36-.22.54-.07L510,21.42a.32.32,0,0,1,0,.5,8.39,8.39,0,0,1-6.74,2.95C499.85,24.87,497.37,23.18,496.43,20.19Zm10.73-5.83a.19.19,0,0,0,.22-.21,6.05,6.05,0,0,0-.26-2,4.25,4.25,0,0,0-7.92,0,6.08,6.08,0,0,0-.25,2c0,.14.07.21.22.21Z"/><path class="cls-1" d="M515,24.48a.35.35,0,0,1-.36-.36V7.59a.35.35,0,0,1,.36-.36h2.31a.35.35,0,0,1,.36.36V9.36h0a4.8,4.8,0,0,1,4.57-2.52,5.3,5.3,0,0,1,3.53,1.29c.18.18.22.33.07.51l-1.33,1.76a.32.32,0,0,1-.5.07,4.89,4.89,0,0,0-2.67-.82c-2.62,0-3.7,2-3.7,5v9.43a.35.35,0,0,1-.36.36Z"/><path class="cls-1" d="M528.94,3.35a.34.34,0,0,1-.36-.36V.36a.34.34,0,0,1,.36-.36h2.45a.34.34,0,0,1,.36.36V3a.35.35,0,0,1-.36.36ZM529,24.48a.35.35,0,0,1-.36-.36V7.59a.35.35,0,0,1,.36-.36h2.31a.35.35,0,0,1,.36.36V24.12a.35.35,0,0,1-.36.36Z"/><path class="cls-1" d="M537.8,24.48a.34.34,0,0,1-.36-.36V9.9a.2.2,0,0,0-.22-.22h-1.48a.34.34,0,0,1-.36-.36V7.59a.35.35,0,0,1,.36-.36h1.48a.19.19,0,0,0,.22-.21V5.54c0-4.06,1.65-5.54,5.25-5.54H544a.34.34,0,0,1,.36.36V2.45a.34.34,0,0,1-.36.36h-.93c-2.2,0-2.63.47-2.63,2.59V7a.19.19,0,0,0,.21.21H544a.34.34,0,0,1,.36.36V9.32a.34.34,0,0,1-.36.36h-3.35c-.14,0-.21.07-.21.22V24.12a.34.34,0,0,1-.36.36ZM548.59,3.35a.35.35,0,0,1-.36-.36V.36a.34.34,0,0,1,.36-.36H551a.34.34,0,0,1,.36.36V3a.34.34,0,0,1-.36.36Zm.08,21.13a.34.34,0,0,1-.36-.36V7.59a.34.34,0,0,1,.36-.36H551a.34.34,0,0,1,.36.36V24.12a.34.34,0,0,1-.36.36Z"/><path class="cls-1" d="M567.31,31a.35.35,0,0,1-.36-.36V22.46h0c-.83,1.37-2.31,2.41-4.9,2.41a5.71,5.71,0,0,1-5.94-4.14,14.5,14.5,0,0,1-.61-4.89,14.45,14.45,0,0,1,.61-4.86A5.71,5.71,0,0,1,562,6.84c2.59,0,4.07,1,4.9,2.37h0V7.59a.35.35,0,0,1,.36-.36h2.31a.35.35,0,0,1,.36.36v23a.35.35,0,0,1-.36.36Zm-.75-11.52a11.06,11.06,0,0,0,.39-3.6,11.18,11.18,0,0,0-.39-3.6,4.08,4.08,0,0,0-7.6,0,12.2,12.2,0,0,0-.39,3.6,11.94,11.94,0,0,0,.39,3.6,4.07,4.07,0,0,0,7.6,0Z"/><path class="cls-1" d="M586,24.48a.34.34,0,0,1-.36-.36V22.5h0a5.25,5.25,0,0,1-4.71,2.37c-3.78,0-6-2.59-6-6.51V7.59a.35.35,0,0,1,.36-.36h2.31a.34.34,0,0,1,.35.36V17.64c0,2.81,1.26,4.42,3.82,4.42,2.34,0,3.89-1.65,3.89-4.24V7.59a.34.34,0,0,1,.36-.36h2.3a.34.34,0,0,1,.36.36V24.12a.34.34,0,0,1-.36.36Z"/><path class="cls-1" d="M593.38,20.19a13.43,13.43,0,0,1-.58-4.35,13.43,13.43,0,0,1,.54-4.36,7.26,7.26,0,0,1,13.54,0,15.08,15.08,0,0,1,.54,4.93.35.35,0,0,1-.4.36H596.11a.19.19,0,0,0-.21.22,6.47,6.47,0,0,0,.29,2.09,4.25,4.25,0,0,0,4.35,3,5.64,5.64,0,0,0,4.43-1.9c.18-.18.36-.22.54-.07L607,21.42a.31.31,0,0,1,0,.5,8.38,8.38,0,0,1-6.73,2.95C596.8,24.87,594.31,23.18,593.38,20.19Zm10.73-5.83a.19.19,0,0,0,.21-.21,6.08,6.08,0,0,0-.25-2,4.25,4.25,0,0,0-7.92,0,6.08,6.08,0,0,0-.25,2,.19.19,0,0,0,.21.21Z"/><path class="cls-1" d="M47.32,69A.35.35,0,0,1,47,68.6v-23a.35.35,0,0,1,.36-.36h2.31a.35.35,0,0,1,.36.36v1.62h0c.83-1.36,2.31-2.37,4.9-2.37,3,0,5.07,1.4,5.94,4.14a14.2,14.2,0,0,1,.61,4.86,14.25,14.25,0,0,1-.61,4.89c-.87,2.74-3,4.14-5.94,4.14-2.59,0-4.07-1-4.9-2.41h0V68.6a.35.35,0,0,1-.36.36ZM58,57.44a11.94,11.94,0,0,0,.39-3.6,12.2,12.2,0,0,0-.39-3.6,3.66,3.66,0,0,0-3.78-2.59,3.67,3.67,0,0,0-3.82,2.59,11.18,11.18,0,0,0-.39,3.6,11.06,11.06,0,0,0,.39,3.6,4.07,4.07,0,0,0,7.6,0Z"/><path class="cls-1" d="M66,62.48a.35.35,0,0,1-.36-.36V45.59a.35.35,0,0,1,.36-.36h2.31a.35.35,0,0,1,.36.36v1.77h0a4.8,4.8,0,0,1,4.57-2.52,5.3,5.3,0,0,1,3.53,1.29c.18.18.22.33.07.51L75.51,48.4a.32.32,0,0,1-.5.07,4.92,4.92,0,0,0-2.67-.82c-2.63,0-3.7,2.05-3.7,5v9.43a.35.35,0,0,1-.36.36Z"/><path class="cls-1" d="M78.54,58.19A13.43,13.43,0,0,1,78,53.84a13.43,13.43,0,0,1,.54-4.36,7.25,7.25,0,0,1,13.53,0,15.08,15.08,0,0,1,.54,4.93.35.35,0,0,1-.39.36H81.27a.19.19,0,0,0-.21.22,6.5,6.5,0,0,0,.28,2.09,4.27,4.27,0,0,0,4.36,3,5.64,5.64,0,0,0,4.43-1.9c.18-.18.36-.22.54-.07l1.47,1.33a.32.32,0,0,1,0,.5,8.38,8.38,0,0,1-6.73,2.95C82,62.87,79.47,61.18,78.54,58.19Zm10.72-5.83c.15,0,.22-.07.22-.21a6.08,6.08,0,0,0-.25-1.95,4.25,4.25,0,0,0-7.92,0,6.08,6.08,0,0,0-.25,1.95.19.19,0,0,0,.21.21Z"/><path class="cls-1" d="M101.32,62.48c-.25,0-.36-.15-.43-.36L94.7,45.59c-.07-.21,0-.36.29-.36h2.48c.25,0,.36.11.47.36L102.4,58h.07l4.36-12.39a.42.42,0,0,1,.43-.36h2.45c.25,0,.36.15.29.36l-6.16,16.53a.47.47,0,0,1-.47.36Z"/><path class="cls-1" d="M113.46,41.35a.35.35,0,0,1-.37-.36V38.36a.34.34,0,0,1,.37-.36h2.44a.34.34,0,0,1,.36.36V41a.34.34,0,0,1-.36.36Zm.07,21.13a.34.34,0,0,1-.36-.36V45.59a.34.34,0,0,1,.36-.36h2.3a.34.34,0,0,1,.36.36V62.12a.34.34,0,0,1-.36.36Z"/><path class="cls-1" d="M131.81,62.48a.35.35,0,0,1-.36-.36V60.6h0c-.79,1.3-2.49,2.27-5.11,2.27-3.28,0-5.8-1.69-5.8-5.18s2.52-5.33,6.73-5.33h3.93a.19.19,0,0,0,.21-.21V50.89c0-2.38-.93-3.39-4.14-3.39a6.68,6.68,0,0,0-4.17,1.23.33.33,0,0,1-.51,0l-1-1.66a.38.38,0,0,1,.07-.5,9.56,9.56,0,0,1,5.87-1.69c4.89,0,6.77,1.62,6.77,5.87V62.12a.35.35,0,0,1-.36.36Zm-.43-5.58V55a.19.19,0,0,0-.21-.22h-3.46c-3,0-4.28.87-4.28,2.81,0,1.77,1.29,2.7,3.6,2.7C129.73,60.28,131.38,59,131.38,56.9Z"/><path class="cls-1" d="M161.37,62.48a.34.34,0,0,1-.36-.36V52c0-2.77-1.26-4.39-3.85-4.39a3.88,3.88,0,0,0-4,4.21V62.12a.35.35,0,0,1-.36.36h-2.31a.35.35,0,0,1-.36-.36V52c0-2.77-1.26-4.39-3.85-4.39a3.87,3.87,0,0,0-4,4.21V62.12a.34.34,0,0,1-.36.36h-2.3a.34.34,0,0,1-.36-.36V45.59a.34.34,0,0,1,.36-.36H142a.34.34,0,0,1,.36.36v1.59h0a6.09,6.09,0,0,1,9.86.36h0a6.4,6.4,0,0,1,5.58-2.7c4,0,6.15,2.55,6.15,6.48v10.8a.34.34,0,0,1-.36.36Z"/><path class="cls-1" d="M168.57,58.19a13.43,13.43,0,0,1-.58-4.35,13.43,13.43,0,0,1,.54-4.36,7.26,7.26,0,0,1,13.54,0,15.08,15.08,0,0,1,.54,4.93.35.35,0,0,1-.4.36h-10.9a.2.2,0,0,0-.22.22,6.47,6.47,0,0,0,.29,2.09,4.25,4.25,0,0,0,4.35,3,5.64,5.64,0,0,0,4.43-1.9c.18-.18.36-.22.54-.07l1.48,1.33a.31.31,0,0,1,0,.5,8.37,8.37,0,0,1-6.73,2.95C172,62.87,169.51,61.18,168.57,58.19Zm10.73-5.83a.19.19,0,0,0,.21-.21,6.08,6.08,0,0,0-.25-1.95,4.25,4.25,0,0,0-7.92,0,6.08,6.08,0,0,0-.25,1.95c0,.14.07.21.22.21Z"/><path class="cls-1" d="M197.94,62.48a.35.35,0,0,1-.36-.36V52c0-2.77-1.26-4.39-3.85-4.39a3.87,3.87,0,0,0-4,4.21V62.12a.34.34,0,0,1-.36.36h-2.3a.34.34,0,0,1-.36-.36V45.59a.34.34,0,0,1,.36-.36h2.3a.34.34,0,0,1,.36.36v1.59h0a5.45,5.45,0,0,1,4.82-2.34c3.75,0,6,2.55,6,6.48v10.8a.35.35,0,0,1-.36.36Z"/><path class="cls-1" d="M210.62,62.66c-3.35,0-4.65-1.51-4.65-4.9V47.9c0-.15-.07-.22-.21-.22h-1.44a.34.34,0,0,1-.36-.36V45.59a.34.34,0,0,1,.36-.36h1.44A.19.19,0,0,0,206,45V40.16a.34.34,0,0,1,.36-.36h2.31a.34.34,0,0,1,.36.36V45a.19.19,0,0,0,.21.21H212a.34.34,0,0,1,.36.36v1.73a.34.34,0,0,1-.36.36h-2.74c-.14,0-.21.07-.21.22v9.75c0,1.73.64,2.2,2.19,2.2H212a.34.34,0,0,1,.36.36V62.3a.34.34,0,0,1-.36.36Z"/><path class="cls-1" d="M215.8,58.19a13.48,13.48,0,0,1-.57-4.35,13.76,13.76,0,0,1,.53-4.36,7.26,7.26,0,0,1,13.54,0,15.08,15.08,0,0,1,.54,4.93c0,.22-.14.36-.4.36h-10.9a.2.2,0,0,0-.22.22,6.47,6.47,0,0,0,.29,2.09,4.25,4.25,0,0,0,4.35,3,5.61,5.61,0,0,0,4.43-1.9c.18-.18.36-.22.54-.07l1.48,1.33a.31.31,0,0,1,0,.5,8.35,8.35,0,0,1-6.73,2.95C219.22,62.87,216.74,61.18,215.8,58.19Zm10.73-5.83a.19.19,0,0,0,.21-.21,6.08,6.08,0,0,0-.25-1.95,4.25,4.25,0,0,0-7.92,0,6.08,6.08,0,0,0-.25,1.95c0,.14.07.21.22.21Z"/><path class="cls-1" d="M241.43,58.19a13.48,13.48,0,0,1-.57-4.35,13.43,13.43,0,0,1,.54-4.36,7.25,7.25,0,0,1,13.53,0,15.08,15.08,0,0,1,.54,4.93.35.35,0,0,1-.39.36H244.17A.2.2,0,0,0,244,55a6.47,6.47,0,0,0,.29,2.09,4.25,4.25,0,0,0,4.36,3,5.6,5.6,0,0,0,4.42-1.9c.18-.18.36-.22.54-.07L255,59.42a.32.32,0,0,1,0,.5,8.39,8.39,0,0,1-6.74,2.95C244.85,62.87,242.37,61.18,241.43,58.19Zm10.73-5.83a.19.19,0,0,0,.22-.21,6.05,6.05,0,0,0-.26-1.95,4.25,4.25,0,0,0-7.92,0,6.08,6.08,0,0,0-.25,1.95c0,.14.07.21.22.21Z"/><path class="cls-1" d="M263.75,62.66c-3,0-4.21-1.44-4.21-4.54V38.36a.34.34,0,0,1,.36-.36h2.3a.34.34,0,0,1,.36.36V57.94c0,1.44.54,1.91,1.73,1.91H265a.34.34,0,0,1,.36.36V62.3a.35.35,0,0,1-.36.36Z"/><path class="cls-1" d="M276.32,58.19a13.43,13.43,0,0,1-.58-4.35,13.43,13.43,0,0,1,.54-4.36,7.25,7.25,0,0,1,13.53,0,15.08,15.08,0,0,1,.54,4.93.35.35,0,0,1-.39.36H279.05a.19.19,0,0,0-.21.22,6.5,6.5,0,0,0,.28,2.09,4.26,4.26,0,0,0,4.36,3,5.64,5.64,0,0,0,4.43-1.9c.18-.18.36-.22.54-.07l1.47,1.33a.32.32,0,0,1,0,.5,8.38,8.38,0,0,1-6.73,2.95C279.74,62.87,277.25,61.18,276.32,58.19ZM287,52.36c.15,0,.22-.07.22-.21A6.08,6.08,0,0,0,287,50.2a4.25,4.25,0,0,0-7.92,0,6.08,6.08,0,0,0-.25,1.95.19.19,0,0,0,.21.21Z"/><path class="cls-1" d="M293.31,60.28a.33.33,0,0,1,0-.5l1.47-1.59a.36.36,0,0,1,.51,0,8.34,8.34,0,0,0,5.32,2c2.52,0,3.78-1.08,3.78-2.62,0-1.37-.64-2.13-3.34-2.42L299.21,55c-3.38-.36-5.15-2.05-5.15-4.86,0-3.27,2.34-5.25,6.41-5.25a10.32,10.32,0,0,1,6.12,1.91.34.34,0,0,1,.07.5l-1.22,1.55a.36.36,0,0,1-.51.07,9.06,9.06,0,0,0-4.64-1.4c-2.16,0-3.28,1-3.28,2.37s.83,2.09,3.39,2.34l1.8.18c3.49.33,5.18,2.09,5.18,4.86,0,3.38-2.45,5.65-6.95,5.65A10.72,10.72,0,0,1,293.31,60.28Z"/><path class="cls-1" d="M316.42,62.66c-3.35,0-4.65-1.51-4.65-4.9V47.9c0-.15-.07-.22-.21-.22h-1.44a.34.34,0,0,1-.36-.36V45.59a.34.34,0,0,1,.36-.36h1.44a.19.19,0,0,0,.21-.21V40.16a.34.34,0,0,1,.36-.36h2.31a.34.34,0,0,1,.36.36V45a.19.19,0,0,0,.21.21h2.74a.34.34,0,0,1,.36.36v1.73a.34.34,0,0,1-.36.36H315c-.14,0-.21.07-.21.22v9.75c0,1.73.65,2.2,2.19,2.2h.76a.34.34,0,0,1,.36.36V62.3a.34.34,0,0,1-.36.36Z"/><path class="cls-1" d="M332.51,62.48a.34.34,0,0,1-.36-.36V60.6h0c-.79,1.3-2.48,2.27-5.11,2.27-3.27,0-5.79-1.69-5.79-5.18s2.52-5.33,6.73-5.33h3.92c.15,0,.22-.07.22-.21V50.89c0-2.38-.94-3.39-4.14-3.39a6.71,6.71,0,0,0-4.18,1.23.32.32,0,0,1-.5,0l-1-1.66a.37.37,0,0,1,.07-.5,9.54,9.54,0,0,1,5.87-1.69c4.89,0,6.76,1.62,6.76,5.87V62.12a.34.34,0,0,1-.36.36Zm-.43-5.58V55a.2.2,0,0,0-.22-.22h-3.45c-3,0-4.29.87-4.29,2.81,0,1.77,1.3,2.7,3.6,2.7C330.42,60.28,332.08,59,332.08,56.9Z"/><path class="cls-1" d="M350.83,62.48a.35.35,0,0,1-.36-.36V60.46h0c-.83,1.37-2.31,2.41-4.9,2.41-3,0-5.07-1.4-5.94-4.14a14.25,14.25,0,0,1-.61-4.89A14.2,14.2,0,0,1,339.6,49c.87-2.74,2.95-4.14,5.94-4.14,2.59,0,4.07,1,4.9,2.37h0V38.36a.34.34,0,0,1,.36-.36h2.31a.34.34,0,0,1,.36.36V62.12a.35.35,0,0,1-.36.36Zm-.75-5a11.35,11.35,0,0,0,.39-3.6,11.47,11.47,0,0,0-.39-3.6,4.08,4.08,0,0,0-7.6,0,12.2,12.2,0,0,0-.39,3.6,11.94,11.94,0,0,0,.39,3.6,4.07,4.07,0,0,0,7.6,0Z"/><path class="cls-1" d="M358.21,58.23a13.14,13.14,0,0,1-.57-4.39,13.07,13.07,0,0,1,.57-4.36c.94-2.95,3.46-4.64,6.81-4.64s5.86,1.69,6.8,4.64a12.78,12.78,0,0,1,.58,4.36,12.85,12.85,0,0,1-.58,4.39,7.31,7.31,0,0,1-13.61,0Zm10.69-.86a11.27,11.27,0,0,0,.4-3.53,10.91,10.91,0,0,0-.4-3.49,4.15,4.15,0,0,0-7.77,0,10.91,10.91,0,0,0-.4,3.49,11.27,11.27,0,0,0,.4,3.53,4.15,4.15,0,0,0,7.77,0Z"/><path class="cls-1" d="M395.26,62.48a.34.34,0,0,1-.36-.36V60.46h0c-.83,1.37-2.3,2.41-4.9,2.41-3,0-5.07-1.4-5.93-4.14a14.22,14.22,0,0,1-.62-4.89A14.17,14.17,0,0,1,384,49c.86-2.74,3-4.14,5.93-4.14,2.6,0,4.07,1,4.9,2.37h0V38.36a.34.34,0,0,1,.36-.36h2.3a.34.34,0,0,1,.36.36V62.12a.34.34,0,0,1-.36.36Zm-.76-5a11,11,0,0,0,.4-3.6,11.12,11.12,0,0,0-.4-3.6,4.08,4.08,0,0,0-7.59,0,12.15,12.15,0,0,0-.4,3.6,11.89,11.89,0,0,0,.4,3.6,4.06,4.06,0,0,0,7.59,0Z"/><path class="cls-1" d="M402.64,58.19a13.43,13.43,0,0,1-.58-4.35,13.43,13.43,0,0,1,.54-4.36,7.25,7.25,0,0,1,13.53,0,14.8,14.8,0,0,1,.54,4.93.35.35,0,0,1-.39.36H405.37a.19.19,0,0,0-.21.22,6.5,6.5,0,0,0,.28,2.09,4.27,4.27,0,0,0,4.36,3,5.64,5.64,0,0,0,4.43-1.9c.18-.18.36-.22.54-.07l1.47,1.33a.32.32,0,0,1,0,.5,8.38,8.38,0,0,1-6.73,2.95C406.06,62.87,403.57,61.18,402.64,58.19Zm10.72-5.83c.15,0,.22-.07.22-.21a6.08,6.08,0,0,0-.25-1.95,4.25,4.25,0,0,0-7.92,0,6.08,6.08,0,0,0-.25,1.95.19.19,0,0,0,.21.21Z"/><path class="cls-1" d="M427.55,60.28a.33.33,0,0,1,0-.5L429,58.19a.36.36,0,0,1,.51,0,8.34,8.34,0,0,0,5.33,2c2.52,0,3.77-1.08,3.77-2.62,0-1.37-.64-2.13-3.34-2.42L433.45,55c-3.38-.36-5.15-2.05-5.15-4.86,0-3.27,2.34-5.25,6.41-5.25a10.32,10.32,0,0,1,6.12,1.91.34.34,0,0,1,.07.5l-1.22,1.55a.36.36,0,0,1-.51.07,9,9,0,0,0-4.64-1.4c-2.16,0-3.27,1-3.27,2.37s.82,2.09,3.38,2.34l1.8.18c3.49.33,5.18,2.09,5.18,4.86,0,3.38-2.45,5.65-6.95,5.65A10.72,10.72,0,0,1,427.55,60.28Z"/><path class="cls-1" d="M445.94,41.35a.35.35,0,0,1-.36-.36V38.36a.34.34,0,0,1,.36-.36h2.45a.34.34,0,0,1,.36.36V41a.34.34,0,0,1-.36.36ZM446,62.48a.34.34,0,0,1-.36-.36V45.59a.34.34,0,0,1,.36-.36h2.3a.34.34,0,0,1,.36.36V62.12a.34.34,0,0,1-.36.36Z"/><path class="cls-1" d="M452.67,60.28a.35.35,0,0,1,0-.5l1.48-1.59a.36.36,0,0,1,.51,0,8.32,8.32,0,0,0,5.32,2c2.52,0,3.78-1.08,3.78-2.62,0-1.37-.65-2.13-3.34-2.42L458.58,55c-3.38-.36-5.15-2.05-5.15-4.86,0-3.27,2.34-5.25,6.41-5.25A10.32,10.32,0,0,1,466,46.75a.34.34,0,0,1,.07.5l-1.22,1.55a.36.36,0,0,1-.51.07,9.06,9.06,0,0,0-4.64-1.4c-2.16,0-3.28,1-3.28,2.37s.83,2.09,3.39,2.34l1.8.18c3.49.33,5.18,2.09,5.18,4.86,0,3.38-2.45,5.65-6.95,5.65A10.77,10.77,0,0,1,452.67,60.28Z"/><path class="cls-1" d="M475.79,62.66c-3.35,0-4.65-1.51-4.65-4.9V47.9c0-.15-.07-.22-.21-.22h-1.44a.34.34,0,0,1-.36-.36V45.59a.34.34,0,0,1,.36-.36h1.44a.19.19,0,0,0,.21-.21V40.16a.34.34,0,0,1,.36-.36h2.31a.34.34,0,0,1,.36.36V45a.19.19,0,0,0,.21.21h2.74a.35.35,0,0,1,.36.36v1.73a.34.34,0,0,1-.36.36h-2.74c-.14,0-.21.07-.21.22v9.75c0,1.73.64,2.2,2.19,2.2h.76a.34.34,0,0,1,.36.36V62.3a.35.35,0,0,1-.36.36Z"/><path class="cls-1" d="M481,58.19a13.43,13.43,0,0,1-.58-4.35,13.71,13.71,0,0,1,.54-4.36,7.26,7.26,0,0,1,13.54,0,15.08,15.08,0,0,1,.54,4.93c0,.22-.14.36-.4.36h-10.9a.2.2,0,0,0-.22.22,6.47,6.47,0,0,0,.29,2.09,4.25,4.25,0,0,0,4.35,3,5.61,5.61,0,0,0,4.43-1.9c.18-.18.36-.22.54-.07l1.48,1.33a.31.31,0,0,1,0,.5,8.35,8.35,0,0,1-6.73,2.95C484.39,62.87,481.91,61.18,481,58.19Zm10.73-5.83a.19.19,0,0,0,.21-.21,6.08,6.08,0,0,0-.25-1.95,4.25,4.25,0,0,0-7.92,0,6.08,6.08,0,0,0-.25,1.95c0,.14.07.21.22.21Z"/><path class="cls-1" d="M521.18,62.48a.34.34,0,0,1-.36-.36V52c0-2.77-1.26-4.39-3.85-4.39a3.88,3.88,0,0,0-4,4.21V62.12a.35.35,0,0,1-.36.36h-2.31a.34.34,0,0,1-.35-.36V52c0-2.77-1.27-4.39-3.86-4.39a3.87,3.87,0,0,0-4,4.21V62.12a.34.34,0,0,1-.36.36h-2.3a.34.34,0,0,1-.36-.36V45.59a.34.34,0,0,1,.36-.36h2.3a.34.34,0,0,1,.36.36v1.59h0a6.09,6.09,0,0,1,9.86.36h0a6.41,6.41,0,0,1,5.58-2.7c4,0,6.15,2.55,6.15,6.48v10.8a.34.34,0,0,1-.36.36Z"/><path class="cls-1" d="M539.29,62.48a.34.34,0,0,1-.36-.36V60.6h0c-.79,1.3-2.48,2.27-5.11,2.27-3.27,0-5.79-1.69-5.79-5.18s2.52-5.33,6.73-5.33h3.92a.19.19,0,0,0,.22-.21V50.89c0-2.38-.94-3.39-4.14-3.39a6.71,6.71,0,0,0-4.18,1.23.32.32,0,0,1-.5,0l-1-1.66a.37.37,0,0,1,.07-.5A9.54,9.54,0,0,1,535,44.84c4.89,0,6.76,1.62,6.76,5.87V62.12a.34.34,0,0,1-.36.36Zm-.43-5.58V55a.2.2,0,0,0-.22-.22h-3.46c-3,0-4.28.87-4.28,2.81,0,1.77,1.3,2.7,3.6,2.7C537.2,60.28,538.86,59,538.86,56.9Z"/><path class="cls-1" d="M545.63,60.28a.33.33,0,0,1,0-.5l1.47-1.59a.36.36,0,0,1,.51,0,8.32,8.32,0,0,0,5.32,2c2.52,0,3.78-1.08,3.78-2.62,0-1.37-.65-2.13-3.35-2.42L551.53,55c-3.38-.36-5.15-2.05-5.15-4.86,0-3.27,2.34-5.25,6.41-5.25a10.32,10.32,0,0,1,6.12,1.91.34.34,0,0,1,.07.5l-1.22,1.55a.36.36,0,0,1-.51.07,9.06,9.06,0,0,0-4.64-1.4c-2.16,0-3.28,1-3.28,2.37s.83,2.09,3.39,2.34l1.8.18c3.49.33,5.18,2.09,5.18,4.86,0,3.38-2.45,5.65-7,5.65A10.72,10.72,0,0,1,545.63,60.28Z"/><path class="cls-1" d="M582.45,62.48a.35.35,0,0,1-.36-.36V60.46h0c-.83,1.37-2.31,2.41-4.9,2.41-3,0-5.07-1.4-5.94-4.14a14.25,14.25,0,0,1-.61-4.89,14.2,14.2,0,0,1,.61-4.86c.87-2.74,2.95-4.14,5.94-4.14,2.59,0,4.07,1,4.9,2.37h0V38.36a.34.34,0,0,1,.36-.36h2.31a.34.34,0,0,1,.36.36V62.12a.35.35,0,0,1-.36.36Zm-.75-5a11.35,11.35,0,0,0,.39-3.6,11.47,11.47,0,0,0-.39-3.6,4.08,4.08,0,0,0-7.6,0,12.15,12.15,0,0,0-.4,3.6,11.89,11.89,0,0,0,.4,3.6,4.07,4.07,0,0,0,7.6,0Z"/><path class="cls-1" d="M589.83,58.19a13.48,13.48,0,0,1-.57-4.35,13.43,13.43,0,0,1,.54-4.36,7.25,7.25,0,0,1,13.53,0,15.08,15.08,0,0,1,.54,4.93.35.35,0,0,1-.39.36H592.57a.2.2,0,0,0-.22.22,6.47,6.47,0,0,0,.29,2.09,4.25,4.25,0,0,0,4.36,3,5.6,5.6,0,0,0,4.42-1.9c.18-.18.36-.22.54-.07l1.48,1.33a.32.32,0,0,1,0,.5,8.39,8.39,0,0,1-6.74,2.95C593.25,62.87,590.77,61.18,589.83,58.19Zm10.73-5.83a.19.19,0,0,0,.22-.21,6.05,6.05,0,0,0-.26-1.95,4.25,4.25,0,0,0-7.92,0,6.08,6.08,0,0,0-.25,1.95c0,.14.07.21.22.21Z"/><path class="cls-1" d="M12.21,100.48a.35.35,0,0,1-.37-.36V98.6h0c-.79,1.3-2.48,2.27-5.11,2.27-3.28,0-5.8-1.69-5.8-5.18s2.52-5.33,6.73-5.33h3.93a.19.19,0,0,0,.21-.21V88.89c0-2.38-.93-3.39-4.14-3.39a6.7,6.7,0,0,0-4.17,1.23.33.33,0,0,1-.51,0L2,85a.38.38,0,0,1,.07-.5,9.58,9.58,0,0,1,5.87-1.69c4.9,0,6.77,1.62,6.77,5.87v11.41a.34.34,0,0,1-.36.36Zm-.44-5.58V93a.19.19,0,0,0-.21-.22H8.1c-3,0-4.28.87-4.28,2.81,0,1.77,1.29,2.7,3.6,2.7C10.12,98.28,11.77,97,11.77,94.9Z"/><path class="cls-1" d="M19.23,87.48A6.68,6.68,0,0,1,26,82.84a6.92,6.92,0,0,1,5.9,2.91.34.34,0,0,1-.1.51l-1.59,1.29a.31.31,0,0,1-.5,0A4.24,4.24,0,0,0,26,85.65a3.74,3.74,0,0,0-3.85,2.7,11.4,11.4,0,0,0-.4,3.49,11.52,11.52,0,0,0,.4,3.53A3.73,3.73,0,0,0,26,98.06a4.24,4.24,0,0,0,3.71-1.87.31.31,0,0,1,.5,0l1.59,1.29a.34.34,0,0,1,.1.51,6.9,6.9,0,0,1-5.9,2.91c-3.31,0-5.83-1.65-6.8-4.64a18,18,0,0,1,0-8.75Z"/><path class="cls-1" d="M35.07,87.48a6.68,6.68,0,0,1,6.8-4.64,6.92,6.92,0,0,1,5.9,2.91c.11.18.11.33-.11.51l-1.58,1.29a.31.31,0,0,1-.5,0,4.24,4.24,0,0,0-3.71-1.87A3.74,3.74,0,0,0,38,88.35a11.4,11.4,0,0,0-.4,3.49,11.52,11.52,0,0,0,.4,3.53,3.73,3.73,0,0,0,3.85,2.69,4.24,4.24,0,0,0,3.71-1.87.31.31,0,0,1,.5,0l1.58,1.29c.22.18.22.33.11.51a6.9,6.9,0,0,1-5.9,2.91c-3.31,0-5.83-1.65-6.8-4.64a18,18,0,0,1,0-8.75Z"/><path class="cls-1" d="M50.94,96.19a13.48,13.48,0,0,1-.57-4.35,13.43,13.43,0,0,1,.54-4.36,6.67,6.67,0,0,1,6.76-4.64,6.68,6.68,0,0,1,6.77,4.64A15.08,15.08,0,0,1,65,92.41c0,.22-.14.36-.4.36H53.68a.2.2,0,0,0-.22.22,6.47,6.47,0,0,0,.29,2.09,4.25,4.25,0,0,0,4.35,3,5.61,5.61,0,0,0,4.43-1.9c.18-.18.36-.22.54-.07l1.48,1.33a.31.31,0,0,1,0,.5,8.35,8.35,0,0,1-6.73,3C54.36,100.87,51.88,99.18,50.94,96.19Zm10.73-5.83a.19.19,0,0,0,.21-.21,6.08,6.08,0,0,0-.25-2,4.25,4.25,0,0,0-7.92,0,6.08,6.08,0,0,0-.25,2c0,.14.07.21.22.21Z"/><path class="cls-1" d="M67.93,98.28a.35.35,0,0,1,0-.5l1.48-1.59a.35.35,0,0,1,.5,0,8.37,8.37,0,0,0,5.33,2c2.52,0,3.78-1.08,3.78-2.62,0-1.37-.65-2.13-3.35-2.42L73.84,93c-3.39-.36-5.15-2-5.15-4.86,0-3.27,2.34-5.25,6.41-5.25a10.32,10.32,0,0,1,6.12,1.91.34.34,0,0,1,.07.5L80.06,86.8a.35.35,0,0,1-.5.07,9.09,9.09,0,0,0-4.64-1.4c-2.16,0-3.28,1-3.28,2.37s.83,2.09,3.38,2.34l1.8.18c3.5.33,5.19,2.09,5.19,4.86,0,3.38-2.45,5.65-7,5.65A10.75,10.75,0,0,1,67.93,98.28Z"/><path class="cls-1" d="M85.57,96.23A13.14,13.14,0,0,1,85,91.84a13.07,13.07,0,0,1,.57-4.36c.94-3,3.46-4.64,6.81-4.64s5.86,1.69,6.8,4.64a12.78,12.78,0,0,1,.58,4.36,12.85,12.85,0,0,1-.58,4.39,7.31,7.31,0,0,1-13.61,0Zm10.69-.86a11.27,11.27,0,0,0,.4-3.53,10.91,10.91,0,0,0-.4-3.49,4.15,4.15,0,0,0-7.77,0,10.91,10.91,0,0,0-.4,3.49,11.27,11.27,0,0,0,.4,3.53,4.15,4.15,0,0,0,7.77,0Z"/><path class="cls-1" d="M111.31,87.48c1-3,3.49-4.64,6.81-4.64a6.94,6.94,0,0,1,5.9,2.91c.11.18.11.33-.11.51l-1.58,1.29a.32.32,0,0,1-.51,0,4.22,4.22,0,0,0-3.7-1.87,3.75,3.75,0,0,0-3.86,2.7,11.77,11.77,0,0,0-.39,3.49,11.89,11.89,0,0,0,.39,3.53,3.74,3.74,0,0,0,3.86,2.69,4.22,4.22,0,0,0,3.7-1.87.32.32,0,0,1,.51,0l1.58,1.29c.22.18.22.33.11.51a6.91,6.91,0,0,1-5.9,2.91c-3.32,0-5.84-1.65-6.81-4.64a18,18,0,0,1,0-8.75Z"/><path class="cls-1" d="M127.19,96.23a12.85,12.85,0,0,1-.58-4.39,12.78,12.78,0,0,1,.58-4.36c.93-3,3.45-4.64,6.8-4.64s5.87,1.69,6.8,4.64a12.78,12.78,0,0,1,.58,4.36,12.85,12.85,0,0,1-.58,4.39c-.93,2.92-3.45,4.64-6.8,4.64S128.12,99.15,127.19,96.23Zm10.69-.86a11.32,11.32,0,0,0,.39-3.53,11,11,0,0,0-.39-3.49,4.15,4.15,0,0,0-7.78,0,11.26,11.26,0,0,0-.39,3.49,11.63,11.63,0,0,0,.39,3.53,4.16,4.16,0,0,0,7.78,0Z"/><path class="cls-1" d="M167.54,100.48a.35.35,0,0,1-.36-.36V90c0-2.77-1.26-4.39-3.85-4.39a3.89,3.89,0,0,0-4,4.21v10.26a.34.34,0,0,1-.36.36h-2.3a.34.34,0,0,1-.36-.36V90c0-2.77-1.26-4.39-3.85-4.39a3.87,3.87,0,0,0-4,4.21v10.26a.35.35,0,0,1-.37.36h-2.3a.35.35,0,0,1-.36-.36V83.59a.35.35,0,0,1,.36-.36h2.3a.35.35,0,0,1,.37.36v1.59h0a6.09,6.09,0,0,1,9.86.36h0a6.41,6.41,0,0,1,5.58-2.7c4,0,6.15,2.55,6.15,6.48v10.8a.34.34,0,0,1-.36.36Z"/><path class="cls-1" d="M174.74,96.23a13.14,13.14,0,0,1-.57-4.39,13.07,13.07,0,0,1,.57-4.36c.94-3,3.46-4.64,6.81-4.64s5.86,1.69,6.8,4.64a12.78,12.78,0,0,1,.58,4.36,12.85,12.85,0,0,1-.58,4.39,7.31,7.31,0,0,1-13.61,0Zm10.69-.86a11.27,11.27,0,0,0,.4-3.53,10.91,10.91,0,0,0-.4-3.49,4.15,4.15,0,0,0-7.77,0,10.91,10.91,0,0,0-.4,3.49,11.27,11.27,0,0,0,.4,3.53,4.15,4.15,0,0,0,7.77,0Z"/><path class="cls-1" d="M200.52,96.19a13.43,13.43,0,0,1-.58-4.35,13.43,13.43,0,0,1,.54-4.36,7.26,7.26,0,0,1,13.54,0,15.08,15.08,0,0,1,.54,4.93.35.35,0,0,1-.4.36H203.25A.19.19,0,0,0,203,93a6.47,6.47,0,0,0,.29,2.09,4.25,4.25,0,0,0,4.35,3,5.64,5.64,0,0,0,4.43-1.9c.18-.18.36-.22.54-.07l1.48,1.33a.33.33,0,0,1,0,.5,8.38,8.38,0,0,1-6.73,3C203.94,100.87,201.45,99.18,200.52,96.19Zm10.73-5.83a.19.19,0,0,0,.21-.21,6.08,6.08,0,0,0-.25-2,4.25,4.25,0,0,0-7.92,0,6.08,6.08,0,0,0-.25,2,.19.19,0,0,0,.21.21Z"/><path class="cls-1" d="M217.51,98.28a.35.35,0,0,1,0-.5L219,96.19a.35.35,0,0,1,.5,0,8.37,8.37,0,0,0,5.33,2c2.52,0,3.78-1.08,3.78-2.62,0-1.37-.65-2.13-3.35-2.42L223.41,93c-3.38-.36-5.14-2-5.14-4.86,0-3.27,2.34-5.25,6.4-5.25a10.32,10.32,0,0,1,6.12,1.91.34.34,0,0,1,.07.5l-1.22,1.55a.35.35,0,0,1-.5.07,9.09,9.09,0,0,0-4.65-1.4c-2.16,0-3.27,1-3.27,2.37s.83,2.09,3.38,2.34l1.8.18c3.49.33,5.19,2.09,5.19,4.86,0,3.38-2.45,5.65-7,5.65A10.73,10.73,0,0,1,217.51,98.28Z"/><path class="cls-1" d="M235.11,87.48a6.7,6.7,0,0,1,6.81-4.64,6.94,6.94,0,0,1,5.9,2.91c.11.18.11.33-.11.51l-1.58,1.29a.32.32,0,0,1-.51,0,4.22,4.22,0,0,0-3.7-1.87,3.74,3.74,0,0,0-3.85,2.7,11.4,11.4,0,0,0-.4,3.49,11.52,11.52,0,0,0,.4,3.53,3.73,3.73,0,0,0,3.85,2.69,4.22,4.22,0,0,0,3.7-1.87.32.32,0,0,1,.51,0l1.58,1.29c.22.18.22.33.11.51a6.91,6.91,0,0,1-5.9,2.91,6.69,6.69,0,0,1-6.81-4.64,18,18,0,0,1,0-8.75Z"/><path class="cls-1" d="M261.9,100.48a.34.34,0,0,1-.36-.36V98.6h0c-.79,1.3-2.48,2.27-5.11,2.27-3.28,0-5.8-1.69-5.8-5.18s2.52-5.33,6.74-5.33h3.92a.19.19,0,0,0,.21-.21V88.89c0-2.38-.93-3.39-4.13-3.39a6.71,6.71,0,0,0-4.18,1.23c-.18.14-.4.14-.5,0l-1-1.66a.38.38,0,0,1,.08-.5,9.53,9.53,0,0,1,5.86-1.69c4.9,0,6.77,1.62,6.77,5.87v11.41a.34.34,0,0,1-.36.36Zm-.44-5.58V93a.19.19,0,0,0-.21-.22h-3.46c-3,0-4.28.87-4.28,2.81,0,1.77,1.3,2.7,3.6,2.7C259.81,98.28,261.46,97,261.46,94.9Z"/><path class="cls-1" d="M273.56,100.66c-3,0-4.21-1.44-4.21-4.54V76.36a.34.34,0,0,1,.36-.36H272a.34.34,0,0,1,.36.36V95.94c0,1.44.54,1.91,1.73,1.91h.68a.34.34,0,0,1,.36.36v2.09a.34.34,0,0,1-.36.36Z"/><path class="cls-1" d="M278.21,96.19a13.16,13.16,0,0,1-.58-4.35,13.43,13.43,0,0,1,.54-4.36,7.25,7.25,0,0,1,13.53,0,15.08,15.08,0,0,1,.54,4.93.35.35,0,0,1-.39.36H280.94a.2.2,0,0,0-.22.22,6.47,6.47,0,0,0,.29,2.09,4.26,4.26,0,0,0,4.36,3,5.64,5.64,0,0,0,4.43-1.9c.18-.18.36-.22.54-.07l1.47,1.33a.32.32,0,0,1,0,.5,8.38,8.38,0,0,1-6.73,3C281.63,100.87,279.14,99.18,278.21,96.19Zm10.72-5.83c.15,0,.22-.07.22-.21a6.08,6.08,0,0,0-.25-2,4.25,4.25,0,0,0-7.92,0,6.05,6.05,0,0,0-.26,2,.19.19,0,0,0,.22.21Z"/><path class="cls-1" d="M296.75,100.48a.35.35,0,0,1-.37-.36V83.59a.35.35,0,0,1,.37-.36h2.3a.35.35,0,0,1,.36.36v1.77h0A4.81,4.81,0,0,1,304,82.84a5.29,5.29,0,0,1,3.52,1.29c.18.18.22.33.08.51l-1.34,1.76a.32.32,0,0,1-.5.07,4.89,4.89,0,0,0-2.66-.82c-2.63,0-3.71,2-3.71,5v9.43a.35.35,0,0,1-.36.36Z"/><path class="cls-1" d="M320,100.48a.34.34,0,0,1-.36-.36V98.6h0c-.79,1.3-2.48,2.27-5.11,2.27-3.27,0-5.79-1.69-5.79-5.18s2.52-5.33,6.73-5.33h3.92c.15,0,.22-.07.22-.21V88.89c0-2.38-.94-3.39-4.14-3.39a6.71,6.71,0,0,0-4.18,1.23.32.32,0,0,1-.5,0l-1-1.66a.38.38,0,0,1,.07-.5,9.54,9.54,0,0,1,5.87-1.69c4.89,0,6.76,1.62,6.76,5.87v11.41a.34.34,0,0,1-.36.36Zm-.43-5.58V93a.2.2,0,0,0-.22-.22H315.9c-3,0-4.29.87-4.29,2.81,0,1.77,1.3,2.7,3.6,2.7C317.91,98.28,319.57,97,319.57,94.9Z"/><path class="cls-1" d="M326.34,98.28a.33.33,0,0,1,0-.5l1.47-1.59a.36.36,0,0,1,.51,0,8.34,8.34,0,0,0,5.32,2c2.52,0,3.78-1.08,3.78-2.62,0-1.37-.64-2.13-3.34-2.42L332.24,93c-3.38-.36-5.15-2-5.15-4.86,0-3.27,2.34-5.25,6.41-5.25a10.32,10.32,0,0,1,6.12,1.91.34.34,0,0,1,.07.5l-1.22,1.55a.36.36,0,0,1-.51.07,9.06,9.06,0,0,0-4.64-1.4c-2.16,0-3.28,1-3.28,2.37s.83,2.09,3.39,2.34l1.8.18c3.49.33,5.18,2.09,5.18,4.86,0,3.38-2.45,5.65-7,5.65A10.72,10.72,0,0,1,326.34,98.28Z"/><path class="cls-1" d="M344.37,96.66h2.52a.34.34,0,0,1,.36.36v3.35a1.14,1.14,0,0,1-.21.79l-2.24,3a.55.55,0,0,1-.46.25A.32.32,0,0,1,344,104V97A.35.35,0,0,1,344.37,96.66Z"/><path class="cls-1" d="M369.61,100.48a.34.34,0,0,1-.36-.36V98.6h0c-.79,1.3-2.48,2.27-5.11,2.27-3.28,0-5.8-1.69-5.8-5.18s2.52-5.33,6.74-5.33H369a.19.19,0,0,0,.21-.21V88.89c0-2.38-.93-3.39-4.13-3.39a6.71,6.71,0,0,0-4.18,1.23c-.18.14-.4.14-.5,0l-1-1.66a.38.38,0,0,1,.08-.5,9.53,9.53,0,0,1,5.86-1.69c4.9,0,6.77,1.62,6.77,5.87v11.41a.34.34,0,0,1-.36.36Zm-.44-5.58V93a.19.19,0,0,0-.21-.22H365.5c-3,0-4.28.87-4.28,2.81,0,1.77,1.3,2.7,3.6,2.7C367.52,98.28,369.17,97,369.17,94.9Z"/><path class="cls-1" d="M388.33,100.48a.34.34,0,0,1-.36-.36V90c0-2.77-1.26-4.39-3.86-4.39a3.86,3.86,0,0,0-3.95,4.21v10.26a.35.35,0,0,1-.36.36h-2.31a.35.35,0,0,1-.36-.36V83.59a.35.35,0,0,1,.36-.36h2.31a.35.35,0,0,1,.36.36v1.59h0A5.45,5.45,0,0,1,385,82.84c3.75,0,6,2.55,6,6.48v10.8a.34.34,0,0,1-.36.36Z"/><path class="cls-1" d="M406.79,100.48a.35.35,0,0,1-.36-.36V98.46h0c-.83,1.37-2.31,2.41-4.9,2.41-3,0-5.07-1.4-5.94-4.14a14.5,14.5,0,0,1-.61-4.89,14.45,14.45,0,0,1,.61-4.86c.87-2.74,2.95-4.14,5.94-4.14,2.59,0,4.07,1,4.9,2.37h0V76.36a.34.34,0,0,1,.36-.36h2.31a.34.34,0,0,1,.36.36v23.76a.35.35,0,0,1-.36.36Zm-.75-5a11.06,11.06,0,0,0,.39-3.6,11.18,11.18,0,0,0-.39-3.6,4.08,4.08,0,0,0-7.6,0,12.54,12.54,0,0,0-.39,3.6,12.28,12.28,0,0,0,.39,3.6,4.07,4.07,0,0,0,7.6,0Z"/><path class="cls-1" d="M425.08,100.48a.35.35,0,0,1-.36-.36V98.6h0c-.8,1.3-2.49,2.27-5.12,2.27-3.27,0-5.79-1.69-5.79-5.18s2.52-5.33,6.73-5.33h3.92c.15,0,.22-.07.22-.21V88.89c0-2.38-.94-3.39-4.14-3.39a6.68,6.68,0,0,0-4.17,1.23.33.33,0,0,1-.51,0l-1-1.66a.38.38,0,0,1,.07-.5,9.56,9.56,0,0,1,5.87-1.69c4.89,0,6.77,1.62,6.77,5.87v11.41a.35.35,0,0,1-.36.36Zm-.43-5.58V93a.2.2,0,0,0-.22-.22H421c-3,0-4.29.87-4.29,2.81,0,1.77,1.3,2.7,3.6,2.7C423,98.28,424.65,97,424.65,94.9Z"/><path class="cls-1" d="M454.64,100.48a.34.34,0,0,1-.36-.36V90c0-2.77-1.26-4.39-3.86-4.39a3.89,3.89,0,0,0-4,4.21v10.26a.34.34,0,0,1-.35.36H443.8a.35.35,0,0,1-.36-.36V90c0-2.77-1.26-4.39-3.85-4.39a3.87,3.87,0,0,0-4,4.21v10.26a.34.34,0,0,1-.36.36H433a.34.34,0,0,1-.36-.36V83.59a.34.34,0,0,1,.36-.36h2.3a.34.34,0,0,1,.36.36v1.59h0a6.09,6.09,0,0,1,9.86.36h0a6.39,6.39,0,0,1,5.57-2.7c4,0,6.16,2.55,6.16,6.48v10.8a.34.34,0,0,1-.36.36Z"/><path class="cls-1" d="M462.59,79.35a.35.35,0,0,1-.36-.36V76.36a.34.34,0,0,1,.36-.36H465a.34.34,0,0,1,.36.36V79a.34.34,0,0,1-.36.36Zm.08,21.13a.34.34,0,0,1-.36-.36V83.59a.34.34,0,0,1,.36-.36H465a.34.34,0,0,1,.36.36v16.53a.34.34,0,0,1-.36.36Z"/><path class="cls-1" d="M470.05,96.23a12.85,12.85,0,0,1-.58-4.39,12.78,12.78,0,0,1,.58-4.36c.93-3,3.45-4.64,6.8-4.64s5.87,1.69,6.8,4.64a12.78,12.78,0,0,1,.58,4.36,12.85,12.85,0,0,1-.58,4.39c-.93,2.92-3.45,4.64-6.8,4.64S471,99.15,470.05,96.23Zm10.69-.86a11.63,11.63,0,0,0,.39-3.53,11.26,11.26,0,0,0-.39-3.49,4.15,4.15,0,0,0-7.78,0,11,11,0,0,0-.39,3.49,11.32,11.32,0,0,0,.39,3.53,4.16,4.16,0,0,0,7.78,0Z"/><path class="cls-1" d="M487.18,98.28a.35.35,0,0,1,0-.5l1.48-1.59a.35.35,0,0,1,.5,0,8.37,8.37,0,0,0,5.33,2c2.52,0,3.78-1.08,3.78-2.62,0-1.37-.65-2.13-3.35-2.42L493.09,93c-3.39-.36-5.15-2-5.15-4.86,0-3.27,2.34-5.25,6.4-5.25a10.32,10.32,0,0,1,6.12,1.91.35.35,0,0,1,.08.5l-1.23,1.55a.35.35,0,0,1-.5.07,9.09,9.09,0,0,0-4.64-1.4c-2.16,0-3.28,1-3.28,2.37s.83,2.09,3.38,2.34l1.8.18c3.49.33,5.19,2.09,5.19,4.86,0,3.38-2.45,5.65-6.95,5.65A10.75,10.75,0,0,1,487.18,98.28Z"/><path class="cls-1" d="M505.22,96.66h2.52a.35.35,0,0,1,.36.36v3.35a1.14,1.14,0,0,1-.22.79l-2.23,3a.56.56,0,0,1-.47.25.32.32,0,0,1-.32-.32V97A.34.34,0,0,1,505.22,96.66Z"/><path class="cls-1" d="M524.15,100.66c-3,0-4.21-1.44-4.21-4.54V76.36a.34.34,0,0,1,.36-.36h2.3a.34.34,0,0,1,.36.36V95.94c0,1.44.54,1.91,1.73,1.91h.69a.34.34,0,0,1,.36.36v2.09a.35.35,0,0,1-.36.36Z"/><path class="cls-1" d="M529.62,100.48a.35.35,0,0,1-.36-.36V83.59a.35.35,0,0,1,.36-.36h2.31a.35.35,0,0,1,.36.36v16.53a.35.35,0,0,1-.36.36Zm.29-20c-.21,0-.32-.15-.21-.36l2.73-4.43a.65.65,0,0,1,.61-.36h2.38c.22,0,.32.18.18.36l-3.31,4.43a.71.71,0,0,1-.69.36Z"/><path class="cls-1" d="M548.67,100.48a.34.34,0,0,1-.36-.36V90c0-2.77-1.26-4.39-3.85-4.39a3.87,3.87,0,0,0-4,4.21v10.26a.35.35,0,0,1-.36.36h-2.31a.35.35,0,0,1-.36-.36V83.59a.35.35,0,0,1,.36-.36h2.31a.35.35,0,0,1,.36.36v1.59h0a5.45,5.45,0,0,1,4.82-2.34c3.75,0,6,2.55,6,6.48v10.8a.34.34,0,0,1-.36.36Z"/><path class="cls-1" d="M555.87,96.19a13.43,13.43,0,0,1-.58-4.35,13.43,13.43,0,0,1,.54-4.36,7.26,7.26,0,0,1,13.54,0,15.08,15.08,0,0,1,.54,4.93.35.35,0,0,1-.4.36H558.6a.19.19,0,0,0-.21.22,6.8,6.8,0,0,0,.28,2.09,4.27,4.27,0,0,0,4.36,3,5.64,5.64,0,0,0,4.43-1.9c.18-.18.36-.22.54-.07l1.47,1.33a.32.32,0,0,1,0,.5,8.38,8.38,0,0,1-6.73,3C559.29,100.87,556.8,99.18,555.87,96.19Zm10.72-5.83c.15,0,.22-.07.22-.21a6.08,6.08,0,0,0-.25-2,4.25,4.25,0,0,0-7.92,0,6.08,6.08,0,0,0-.25,2,.19.19,0,0,0,.21.21Z"/><path class="cls-1" d="M584.49,100.48a.34.34,0,0,1-.36-.36V98.6h0c-.79,1.3-2.48,2.27-5.11,2.27-3.28,0-5.8-1.69-5.8-5.18s2.52-5.33,6.74-5.33h3.92a.19.19,0,0,0,.21-.21V88.89c0-2.38-.93-3.39-4.13-3.39a6.71,6.71,0,0,0-4.18,1.23c-.18.14-.4.14-.5,0l-1-1.66a.38.38,0,0,1,.08-.5,9.53,9.53,0,0,1,5.86-1.69c4.9,0,6.77,1.62,6.77,5.87v11.41a.34.34,0,0,1-.36.36Zm-.44-5.58V93a.19.19,0,0,0-.21-.22h-3.46c-3,0-4.28.87-4.28,2.81,0,1.77,1.3,2.7,3.6,2.7C582.4,98.28,584.05,97,584.05,94.9Z"/><path class="cls-1" d="M590.82,98.28a.35.35,0,0,1,0-.5l1.48-1.59a.35.35,0,0,1,.5,0,8.37,8.37,0,0,0,5.33,2c2.52,0,3.78-1.08,3.78-2.62,0-1.37-.65-2.13-3.35-2.42L596.73,93c-3.39-.36-5.15-2-5.15-4.86,0-3.27,2.34-5.25,6.41-5.25a10.32,10.32,0,0,1,6.12,1.91.34.34,0,0,1,.07.5L603,86.8a.35.35,0,0,1-.5.07,9.09,9.09,0,0,0-4.64-1.4c-2.16,0-3.28,1-3.28,2.37s.83,2.09,3.38,2.34l1.8.18c3.5.33,5.19,2.09,5.19,4.86,0,3.38-2.45,5.65-6.95,5.65A10.75,10.75,0,0,1,590.82,98.28Z"/><path class="cls-1" d="M627.65,100.48a.34.34,0,0,1-.36-.36V98.46h0c-.83,1.37-2.3,2.41-4.89,2.41-3,0-5.08-1.4-5.94-4.14a14.25,14.25,0,0,1-.61-4.89,14.2,14.2,0,0,1,.61-4.86c.86-2.74,3-4.14,5.94-4.14,2.59,0,4.06,1,4.89,2.37h0V76.36a.34.34,0,0,1,.36-.36H630a.34.34,0,0,1,.36.36v23.76a.34.34,0,0,1-.36.36Zm-.76-5a11,11,0,0,0,.4-3.6,11.12,11.12,0,0,0-.4-3.6,4.08,4.08,0,0,0-7.59,0,12.15,12.15,0,0,0-.4,3.6,11.89,11.89,0,0,0,.4,3.6,4.06,4.06,0,0,0,7.59,0Z"/><path class="cls-1" d="M635,96.19a13.43,13.43,0,0,1-.58-4.35,13.43,13.43,0,0,1,.54-4.36,7.26,7.26,0,0,1,13.54,0,15.08,15.08,0,0,1,.54,4.93.35.35,0,0,1-.4.36h-10.9a.2.2,0,0,0-.22.22,6.47,6.47,0,0,0,.29,2.09,4.25,4.25,0,0,0,4.35,3,5.63,5.63,0,0,0,4.43-1.9c.18-.18.36-.22.54-.07l1.48,1.33a.31.31,0,0,1,0,.5,8.38,8.38,0,0,1-6.73,3C638.45,100.87,636,99.18,635,96.19Zm10.73-5.83a.19.19,0,0,0,.21-.21,6.08,6.08,0,0,0-.25-2,4.25,4.25,0,0,0-7.92,0,6.08,6.08,0,0,0-.25,2c0,.14.07.21.22.21Z"/><path class="cls-1" d="M24.41,138.48c-.25,0-.36-.15-.43-.36l-6.19-16.53c-.08-.21,0-.36.28-.36h2.49c.25,0,.36.11.47.36L25.49,134h.07l4.36-12.39a.42.42,0,0,1,.43-.36H32.8c.25,0,.36.15.29.36l-6.16,16.53a.47.47,0,0,1-.47.36Z"/><path class="cls-1" d="M36.54,117.35a.35.35,0,0,1-.36-.36v-2.63a.34.34,0,0,1,.36-.36H39a.34.34,0,0,1,.36.36V117a.34.34,0,0,1-.36.36Zm.07,21.13a.35.35,0,0,1-.36-.36V121.59a.35.35,0,0,1,.36-.36h2.31a.35.35,0,0,1,.36.36v16.53a.35.35,0,0,1-.36.36Z"/><path class="cls-1" d="M55.26,138.48a.34.34,0,0,1-.36-.36v-1.66h0c-.82,1.37-2.3,2.41-4.89,2.41-3,0-5.08-1.4-5.94-4.14a14.25,14.25,0,0,1-.61-4.89A14.2,14.2,0,0,1,44,125c.86-2.74,2.95-4.14,5.94-4.14,2.59,0,4.07,1,4.89,2.37h0v-8.85a.34.34,0,0,1,.36-.36h2.3a.34.34,0,0,1,.36.36v23.76a.34.34,0,0,1-.36.36Zm-.76-5a11,11,0,0,0,.4-3.6,11.12,11.12,0,0,0-.4-3.6,3.65,3.65,0,0,0-3.81-2.59,3.66,3.66,0,0,0-3.78,2.59,12.15,12.15,0,0,0-.4,3.6,11.89,11.89,0,0,0,.4,3.6,3.69,3.69,0,0,0,3.78,2.62A3.67,3.67,0,0,0,54.5,133.44Z"/><path class="cls-1" d="M73.55,138.48a.34.34,0,0,1-.36-.36V136.6h0c-.79,1.3-2.48,2.27-5.11,2.27-3.28,0-5.79-1.69-5.79-5.18s2.51-5.33,6.73-5.33H72.9a.19.19,0,0,0,.22-.21v-1.26c0-2.38-.94-3.39-4.14-3.39a6.71,6.71,0,0,0-4.18,1.23.32.32,0,0,1-.5,0l-1-1.66a.37.37,0,0,1,.07-.5,9.53,9.53,0,0,1,5.86-1.69c4.9,0,6.77,1.62,6.77,5.87v11.41a.34.34,0,0,1-.36.36Zm-.43-5.58V131a.2.2,0,0,0-.22-.22H69.44c-3,0-4.28.87-4.28,2.81,0,1.77,1.3,2.7,3.6,2.7C71.46,136.28,73.12,135,73.12,132.9Z"/><path class="cls-1" d="M89.14,145a.34.34,0,0,1-.36-.36v-2.09a.34.34,0,0,1,.36-.36h.64c1.41,0,2.16-.61,2.92-2.59l.58-1.59-6.34-16.38c-.07-.21,0-.36.29-.36h2.52a.42.42,0,0,1,.43.36l4.54,12.46h.07l4.35-12.46a.43.43,0,0,1,.44-.36H102c.22,0,.36.15.29.36l-6.8,18.22C94,143.88,92.66,145,90.07,145Z"/><path class="cls-1" d="M124.16,138.48a.35.35,0,0,1-.36-.36v-1.66h0c-.83,1.37-2.31,2.41-4.9,2.41-3,0-5.07-1.4-5.94-4.14a14.25,14.25,0,0,1-.61-4.89,14.2,14.2,0,0,1,.61-4.86c.87-2.74,2.95-4.14,5.94-4.14,2.59,0,4.07,1,4.9,2.37h0v-8.85a.34.34,0,0,1,.36-.36h2.31a.34.34,0,0,1,.36.36v23.76a.35.35,0,0,1-.36.36Zm-.75-5a11.35,11.35,0,0,0,.39-3.6,11.47,11.47,0,0,0-.39-3.6,4.08,4.08,0,0,0-7.6,0,12.2,12.2,0,0,0-.39,3.6,11.94,11.94,0,0,0,.39,3.6,4.07,4.07,0,0,0,7.6,0Z"/><path class="cls-1" d="M131.54,134.19a17.36,17.36,0,0,1,0-8.71,7.25,7.25,0,0,1,13.53,0,15.08,15.08,0,0,1,.54,4.93.35.35,0,0,1-.39.36H134.28a.2.2,0,0,0-.22.22,6.47,6.47,0,0,0,.29,2.09,4.26,4.26,0,0,0,4.36,3,5.6,5.6,0,0,0,4.42-1.9c.18-.18.36-.22.54-.07l1.48,1.33a.32.32,0,0,1,0,.5,8.39,8.39,0,0,1-6.74,3C135,138.87,132.48,137.18,131.54,134.19Zm10.73-5.83a.19.19,0,0,0,.22-.21,6.05,6.05,0,0,0-.26-2,4.25,4.25,0,0,0-7.91,0,6.05,6.05,0,0,0-.26,2,.19.19,0,0,0,.22.21Z"/><path class="cls-1" d="M171.75,138.48a.35.35,0,0,1-.36-.36V128c0-2.77-1.26-4.39-3.85-4.39a3.89,3.89,0,0,0-4,4.21v10.26a.34.34,0,0,1-.36.36h-2.3a.34.34,0,0,1-.36-.36V128c0-2.77-1.26-4.39-3.85-4.39a3.87,3.87,0,0,0-4,4.21v10.26a.35.35,0,0,1-.36.36h-2.31a.35.35,0,0,1-.36-.36V121.59a.35.35,0,0,1,.36-.36h2.31a.35.35,0,0,1,.36.36v1.59h0a6.1,6.1,0,0,1,9.87.36h0a6.41,6.41,0,0,1,5.58-2.7c4,0,6.16,2.55,6.16,6.48v10.8a.35.35,0,0,1-.36.36Z"/><path class="cls-1" d="M189.86,138.48a.35.35,0,0,1-.36-.36V136.6h0c-.8,1.3-2.49,2.27-5.12,2.27-3.27,0-5.79-1.69-5.79-5.18s2.52-5.33,6.73-5.33h3.92c.15,0,.22-.07.22-.21v-1.26c0-2.38-.94-3.39-4.14-3.39a6.73,6.73,0,0,0-4.18,1.23.32.32,0,0,1-.5,0l-1-1.66a.38.38,0,0,1,.07-.5,9.56,9.56,0,0,1,5.87-1.69c4.89,0,6.76,1.62,6.76,5.87v11.41a.34.34,0,0,1-.35.36Zm-.43-5.58V131a.2.2,0,0,0-.22-.22h-3.45c-3,0-4.29.87-4.29,2.81,0,1.77,1.3,2.7,3.6,2.7C187.77,136.28,189.43,135,189.43,132.9Zm-4.86-14.47c-.22,0-.32-.15-.22-.36l2.74-4.43a.63.63,0,0,1,.61-.36h2.38a.21.21,0,0,1,.18.36L187,118.07a.71.71,0,0,1-.69.36Z"/><path class="cls-1" d="M196.2,136.28a.33.33,0,0,1,0-.5l1.47-1.59a.36.36,0,0,1,.51,0,8.34,8.34,0,0,0,5.33,2c2.52,0,3.78-1.08,3.78-2.62,0-1.37-.65-2.13-3.35-2.42L202.1,131c-3.38-.36-5.15-2-5.15-4.86,0-3.27,2.34-5.25,6.41-5.25a10.32,10.32,0,0,1,6.12,1.91.34.34,0,0,1,.07.5l-1.22,1.55a.35.35,0,0,1-.5.07,9.09,9.09,0,0,0-4.65-1.4c-2.16,0-3.27,1-3.27,2.37s.82,2.09,3.38,2.34l1.8.18c3.49.33,5.18,2.09,5.18,4.86,0,3.38-2.44,5.65-6.94,5.65A10.73,10.73,0,0,1,196.2,136.28Z"/><path class="cls-1" d="M221.76,134.19a17.21,17.21,0,0,1,0-8.71,7.26,7.26,0,0,1,13.54,0,15.08,15.08,0,0,1,.54,4.93.35.35,0,0,1-.4.36H224.49a.19.19,0,0,0-.21.22,6.47,6.47,0,0,0,.29,2.09,4.25,4.25,0,0,0,4.35,3,5.64,5.64,0,0,0,4.43-1.9c.18-.18.36-.22.54-.07l1.47,1.33a.32.32,0,0,1,0,.5,8.38,8.38,0,0,1-6.73,3C225.18,138.87,222.69,137.18,221.76,134.19Zm10.72-5.83c.15,0,.22-.07.22-.21a6.08,6.08,0,0,0-.25-2,4.25,4.25,0,0,0-7.92,0,6.08,6.08,0,0,0-.25,2,.19.19,0,0,0,.21.21Z"/><path class="cls-1" d="M244.08,138.66c-3,0-4.21-1.44-4.21-4.54V114.36a.34.34,0,0,1,.36-.36h2.3a.34.34,0,0,1,.36.36v19.58c0,1.44.54,1.91,1.73,1.91h.68a.34.34,0,0,1,.36.36v2.09a.34.34,0,0,1-.36.36Z"/><path class="cls-1" d="M248.72,134.19a17.36,17.36,0,0,1,0-8.71,7.25,7.25,0,0,1,13.53,0,15.08,15.08,0,0,1,.54,4.93c0,.22-.14.36-.4.36h-10.9a.2.2,0,0,0-.22.22,6.47,6.47,0,0,0,.29,2.09,4.25,4.25,0,0,0,4.35,3,5.61,5.61,0,0,0,4.43-1.9c.18-.18.36-.22.54-.07l1.48,1.33a.31.31,0,0,1,0,.5,8.35,8.35,0,0,1-6.73,3C252.14,138.87,249.66,137.18,248.72,134.19Zm10.73-5.83a.19.19,0,0,0,.21-.21,6.08,6.08,0,0,0-.25-2,4.25,4.25,0,0,0-7.92,0,6.08,6.08,0,0,0-.25,2c0,.14.07.21.22.21Z"/><path class="cls-1" d="M288.93,138.48a.34.34,0,0,1-.36-.36V128c0-2.77-1.26-4.39-3.85-4.39a3.89,3.89,0,0,0-4,4.21v10.26a.34.34,0,0,1-.36.36h-2.3a.34.34,0,0,1-.36-.36V128c0-2.77-1.26-4.39-3.86-4.39a3.87,3.87,0,0,0-4,4.21v10.26a.34.34,0,0,1-.36.36h-2.3a.35.35,0,0,1-.36-.36V121.59a.35.35,0,0,1,.36-.36h2.3a.34.34,0,0,1,.36.36v1.59h0a6.09,6.09,0,0,1,9.86.36h0a6.41,6.41,0,0,1,5.58-2.7c4,0,6.15,2.55,6.15,6.48v10.8a.34.34,0,0,1-.36.36Z"/><path class="cls-1" d="M296.13,134.19a17.36,17.36,0,0,1,0-8.71,7.25,7.25,0,0,1,13.53,0,15.08,15.08,0,0,1,.54,4.93c0,.22-.14.36-.4.36h-10.9a.2.2,0,0,0-.22.22,6.47,6.47,0,0,0,.29,2.09,4.25,4.25,0,0,0,4.36,3,5.6,5.6,0,0,0,4.42-1.9c.18-.18.36-.22.54-.07l1.48,1.33a.31.31,0,0,1,0,.5,8.35,8.35,0,0,1-6.73,3C299.55,138.87,297.07,137.18,296.13,134.19Zm10.73-5.83a.19.19,0,0,0,.22-.21,6.05,6.05,0,0,0-.26-2,4.25,4.25,0,0,0-7.92,0,6.08,6.08,0,0,0-.25,2c0,.14.07.21.22.21Z"/><path class="cls-1" d="M325.51,138.48a.34.34,0,0,1-.36-.36V128c0-2.77-1.26-4.39-3.85-4.39a3.87,3.87,0,0,0-4,4.21v10.26a.35.35,0,0,1-.36.36h-2.31a.35.35,0,0,1-.36-.36V121.59a.35.35,0,0,1,.36-.36H317a.35.35,0,0,1,.36.36v1.59h0a5.47,5.47,0,0,1,4.83-2.34c3.74,0,6,2.55,6,6.48v10.8a.34.34,0,0,1-.36.36Z"/><path class="cls-1" d="M338.18,138.66c-3.35,0-4.64-1.51-4.64-4.9V123.9a.2.2,0,0,0-.22-.22h-1.44a.34.34,0,0,1-.36-.36v-1.73a.34.34,0,0,1,.36-.36h1.44a.19.19,0,0,0,.22-.21v-4.86a.34.34,0,0,1,.36-.36h2.3a.34.34,0,0,1,.36.36V121c0,.14.07.21.22.21h2.73a.34.34,0,0,1,.36.36v1.73a.34.34,0,0,1-.36.36h-2.73a.19.19,0,0,0-.22.22v9.75c0,1.73.65,2.2,2.2,2.2h.75a.34.34,0,0,1,.36.36v2.09a.34.34,0,0,1-.36.36Z"/><path class="cls-1" d="M343.36,134.23a17.07,17.07,0,0,1,0-8.75c.94-3,3.46-4.64,6.81-4.64s5.86,1.69,6.8,4.64a16.79,16.79,0,0,1,0,8.75,7.31,7.31,0,0,1-13.61,0Zm10.69-.86a11.27,11.27,0,0,0,.4-3.53,10.91,10.91,0,0,0-.4-3.49,4.15,4.15,0,0,0-7.77,0,10.91,10.91,0,0,0-.4,3.49,11.27,11.27,0,0,0,.4,3.53,4.15,4.15,0,0,0,7.77,0Z"/><path class="cls-1" d="M360.5,136.28a.35.35,0,0,1,0-.5l1.48-1.59a.35.35,0,0,1,.5,0,8.34,8.34,0,0,0,5.33,2c2.52,0,3.78-1.08,3.78-2.62,0-1.37-.65-2.13-3.35-2.42L366.4,131c-3.38-.36-5.14-2-5.14-4.86,0-3.27,2.33-5.25,6.4-5.25a10.32,10.32,0,0,1,6.12,1.91.34.34,0,0,1,.07.5l-1.22,1.55a.35.35,0,0,1-.5.07,9.09,9.09,0,0,0-4.65-1.4c-2.16,0-3.27,1-3.27,2.37s.83,2.09,3.38,2.34l1.8.18c3.49.33,5.18,2.09,5.18,4.86,0,3.38-2.44,5.65-6.94,5.65A10.73,10.73,0,0,1,360.5,136.28Z"/><path class="cls-1" d="M397.36,138.48a.35.35,0,0,1-.36-.36V136.5h0a5.23,5.23,0,0,1-4.71,2.37c-3.78,0-6-2.59-6-6.51V121.59a.35.35,0,0,1,.36-.36h2.31a.35.35,0,0,1,.36.36v10c0,2.81,1.26,4.42,3.81,4.42,2.34,0,3.89-1.65,3.89-4.24V121.59a.35.35,0,0,1,.36-.36h2.31a.34.34,0,0,1,.35.36v16.53a.34.34,0,0,1-.35.36Z"/><path class="cls-1" d="M404,136.28a.35.35,0,0,1,0-.5l1.48-1.59a.35.35,0,0,1,.5,0,8.37,8.37,0,0,0,5.33,2c2.52,0,3.78-1.08,3.78-2.62,0-1.37-.65-2.13-3.35-2.42l-1.84-.18c-3.38-.36-5.14-2-5.14-4.86,0-3.27,2.34-5.25,6.4-5.25a10.29,10.29,0,0,1,6.12,1.91.35.35,0,0,1,.08.5l-1.23,1.55a.35.35,0,0,1-.5.07,9.09,9.09,0,0,0-4.64-1.4c-2.16,0-3.28,1-3.28,2.37s.83,2.09,3.38,2.34l1.8.18c3.49.33,5.19,2.09,5.19,4.86,0,3.38-2.45,5.65-7,5.65A10.75,10.75,0,0,1,404,136.28Z"/><path class="cls-1" d="M432.57,138.48a.34.34,0,0,1-.36-.36V136.6h0c-.79,1.3-2.48,2.27-5.11,2.27-3.27,0-5.79-1.69-5.79-5.18s2.52-5.33,6.73-5.33h3.92a.19.19,0,0,0,.22-.21v-1.26c0-2.38-.94-3.39-4.14-3.39a6.71,6.71,0,0,0-4.18,1.23.32.32,0,0,1-.5,0l-1-1.66a.37.37,0,0,1,.07-.5,9.54,9.54,0,0,1,5.87-1.69c4.89,0,6.76,1.62,6.76,5.87v11.41a.34.34,0,0,1-.36.36Zm-.43-5.58V131a.2.2,0,0,0-.22-.22h-3.46c-3,0-4.28.87-4.28,2.81,0,1.77,1.3,2.7,3.6,2.7C430.48,136.28,432.14,135,432.14,132.9Z"/><path class="cls-1" d="M450.89,138.48a.35.35,0,0,1-.36-.36v-1.66h0c-.83,1.37-2.31,2.41-4.9,2.41-3,0-5.07-1.4-5.94-4.14a14.25,14.25,0,0,1-.61-4.89,14.2,14.2,0,0,1,.61-4.86c.87-2.74,2.95-4.14,5.94-4.14,2.59,0,4.07,1,4.9,2.37h0v-8.85a.34.34,0,0,1,.36-.36h2.31a.34.34,0,0,1,.36.36v23.76a.35.35,0,0,1-.36.36Zm-.75-5a11.35,11.35,0,0,0,.39-3.6,11.47,11.47,0,0,0-.39-3.6,4.08,4.08,0,0,0-7.6,0,12.2,12.2,0,0,0-.39,3.6,11.94,11.94,0,0,0,.39,3.6,4.07,4.07,0,0,0,7.6,0Z"/><path class="cls-1" d="M458.27,134.23a17.07,17.07,0,0,1,0-8.75c.94-3,3.46-4.64,6.81-4.64s5.86,1.69,6.8,4.64a16.79,16.79,0,0,1,0,8.75,7.31,7.31,0,0,1-13.61,0Zm10.69-.86a11.27,11.27,0,0,0,.4-3.53,10.91,10.91,0,0,0-.4-3.49,4.15,4.15,0,0,0-7.77,0,10.91,10.91,0,0,0-.4,3.49,11.27,11.27,0,0,0,.4,3.53,4.15,4.15,0,0,0,7.77,0Z"/><path class="cls-1" d="M475.41,136.28a.33.33,0,0,1,0-.5l1.47-1.59a.36.36,0,0,1,.51,0,8.34,8.34,0,0,0,5.33,2c2.52,0,3.78-1.08,3.78-2.62,0-1.37-.65-2.13-3.35-2.42l-1.84-.18c-3.38-.36-5.14-2-5.14-4.86,0-3.27,2.34-5.25,6.4-5.25a10.32,10.32,0,0,1,6.12,1.91.34.34,0,0,1,.07.5l-1.22,1.55a.35.35,0,0,1-.5.07,9.09,9.09,0,0,0-4.65-1.4c-2.16,0-3.27,1-3.27,2.37s.82,2.09,3.38,2.34l1.8.18c3.49.33,5.18,2.09,5.18,4.86,0,3.38-2.44,5.65-6.94,5.65A10.73,10.73,0,0,1,475.41,136.28Z"/><path class="cls-1" d="M493.09,135a.34.34,0,0,1,.35-.36h2.74a.34.34,0,0,1,.36.36v3.1a.34.34,0,0,1-.36.36h-2.74a.34.34,0,0,1-.35-.36Z"/><path class="cls-1" d="M513.53,138.48a.35.35,0,0,1-.36-.36V117.2A.19.19,0,0,0,513,117h-6.7a.34.34,0,0,1-.36-.36v-2.27a.34.34,0,0,1,.36-.36h17a.34.34,0,0,1,.36.36v2.27a.35.35,0,0,1-.36.36h-6.7a.19.19,0,0,0-.21.21v20.92a.35.35,0,0,1-.36.36Z"/><path class="cls-1" d="M534.52,138.48a.34.34,0,0,1-.36-.36V136.6h0c-.79,1.3-2.48,2.27-5.11,2.27-3.27,0-5.79-1.69-5.79-5.18s2.52-5.33,6.73-5.33h3.92a.19.19,0,0,0,.22-.21v-1.26c0-2.38-.94-3.39-4.14-3.39a6.71,6.71,0,0,0-4.18,1.23.32.32,0,0,1-.5,0l-1-1.66a.37.37,0,0,1,.07-.5,9.54,9.54,0,0,1,5.87-1.69c4.89,0,6.76,1.62,6.76,5.87v11.41a.34.34,0,0,1-.36.36Zm-.43-5.58V131a.2.2,0,0,0-.22-.22h-3.45c-3,0-4.29.87-4.29,2.81,0,1.77,1.3,2.7,3.6,2.7C532.43,136.28,534.09,135,534.09,132.9Z"/><path class="cls-1" d="M564.07,138.48a.35.35,0,0,1-.36-.36V128c0-2.77-1.26-4.39-3.85-4.39a3.89,3.89,0,0,0-4,4.21v10.26a.34.34,0,0,1-.36.36h-2.3a.34.34,0,0,1-.36-.36V128c0-2.77-1.26-4.39-3.85-4.39a3.87,3.87,0,0,0-4,4.21v10.26a.35.35,0,0,1-.36.36H542.4a.35.35,0,0,1-.36-.36V121.59a.35.35,0,0,1,.36-.36h2.31a.35.35,0,0,1,.36.36v1.59h0a5.47,5.47,0,0,1,4.83-2.34,5.41,5.41,0,0,1,5,2.7h0a6.41,6.41,0,0,1,5.58-2.7c4,0,6.16,2.55,6.16,6.48v10.8a.35.35,0,0,1-.36.36Z"/><path class="cls-1" d="M572.1,138.48a.35.35,0,0,1-.36-.36V114.36a.34.34,0,0,1,.36-.36h2.31a.34.34,0,0,1,.36.36v8.85h0c.83-1.36,2.31-2.37,4.9-2.37,3,0,5.07,1.4,5.94,4.14a14.2,14.2,0,0,1,.61,4.86,14.25,14.25,0,0,1-.61,4.89c-.87,2.74-2.95,4.14-5.94,4.14-2.59,0-4.07-1-4.9-2.41h0v1.66a.35.35,0,0,1-.36.36Zm10.66-5a11.94,11.94,0,0,0,.39-3.6,12.2,12.2,0,0,0-.39-3.6,4.08,4.08,0,0,0-7.6,0,11.47,11.47,0,0,0-.39,3.6,11.35,11.35,0,0,0,.39,3.6,4.07,4.07,0,0,0,7.6,0Z"/><path class="cls-1" d="M590.68,117.35a.34.34,0,0,1-.36-.36v-2.63a.34.34,0,0,1,.36-.36h2.45a.34.34,0,0,1,.36.36V117a.35.35,0,0,1-.36.36Zm.07,21.13a.35.35,0,0,1-.36-.36V121.59a.35.35,0,0,1,.36-.36h2.3a.35.35,0,0,1,.37.36v16.53a.35.35,0,0,1-.37.36Z"/><path class="cls-1" d="M598.13,134.19a13.48,13.48,0,0,1-.57-4.35,13.76,13.76,0,0,1,.53-4.36,7.26,7.26,0,0,1,13.54,0,15.08,15.08,0,0,1,.54,4.93c0,.22-.14.36-.4.36h-10.9a.2.2,0,0,0-.22.22,6.47,6.47,0,0,0,.29,2.09,4.25,4.25,0,0,0,4.35,3,5.61,5.61,0,0,0,4.43-1.9c.18-.18.36-.22.54-.07l1.48,1.33a.31.31,0,0,1,0,.5,8.35,8.35,0,0,1-6.73,3C601.55,138.87,599.07,137.18,598.13,134.19Zm10.73-5.83a.19.19,0,0,0,.21-.21,6.08,6.08,0,0,0-.25-2,4.25,4.25,0,0,0-7.92,0,6.08,6.08,0,0,0-.25,2c0,.14.07.21.22.21Zm-5.37-9.93c-.21,0-.32-.15-.21-.36l2.73-4.43a.65.65,0,0,1,.62-.36H609c.22,0,.33.18.18.36l-3.31,4.43a.71.71,0,0,1-.68.36Z"/><path class="cls-1" d="M627.51,138.48a.34.34,0,0,1-.36-.36V128c0-2.77-1.26-4.39-3.86-4.39a3.86,3.86,0,0,0-3.95,4.21v10.26a.35.35,0,0,1-.37.36h-2.3a.35.35,0,0,1-.36-.36V121.59a.35.35,0,0,1,.36-.36H619a.35.35,0,0,1,.37.36v1.59h0a5.45,5.45,0,0,1,4.82-2.34c3.75,0,6,2.55,6,6.48v10.8a.34.34,0,0,1-.36.36Z"/><path class="cls-1" d="M6.65,176.48c-.26,0-.36-.15-.44-.36L0,159.59c-.07-.21,0-.36.29-.36H2.79c.26,0,.36.11.47.36L7.72,172H7.8l4.35-12.39a.42.42,0,0,1,.43-.36H15c.25,0,.36.15.29.36L9.17,176.12a.48.48,0,0,1-.47.36Z"/><path class="cls-1" d="M17.88,172.19a17.21,17.21,0,0,1,0-8.71,6.67,6.67,0,0,1,6.77-4.64,6.69,6.69,0,0,1,6.77,4.64,15.08,15.08,0,0,1,.54,4.93.35.35,0,0,1-.4.36H20.61a.19.19,0,0,0-.21.22,6.8,6.8,0,0,0,.28,2.09,4.27,4.27,0,0,0,4.36,3,5.64,5.64,0,0,0,4.43-1.9c.18-.18.36-.22.54-.07l1.47,1.33a.32.32,0,0,1,0,.5,8.38,8.38,0,0,1-6.73,3C21.3,176.87,18.81,175.18,17.88,172.19Zm10.72-5.83c.15,0,.22-.07.22-.21a6.08,6.08,0,0,0-.25-2,3.9,3.9,0,0,0-4-2.7,3.9,3.9,0,0,0-4,2.7,6.08,6.08,0,0,0-.25,2,.19.19,0,0,0,.21.21Z"/><path class="cls-1" d="M36.42,176.48a.34.34,0,0,1-.36-.36V159.59a.34.34,0,0,1,.36-.36h2.3a.34.34,0,0,1,.36.36v1.77h0a4.78,4.78,0,0,1,4.57-2.52,5.32,5.32,0,0,1,3.53,1.29c.18.18.21.33.07.51L46,162.4a.33.33,0,0,1-.51.07,4.86,4.86,0,0,0-2.66-.82c-2.63,0-3.71,2-3.71,5v9.43a.34.34,0,0,1-.36.36Z"/><path class="cls-1" d="M50.38,155.35A.35.35,0,0,1,50,155v-2.63a.34.34,0,0,1,.36-.36h2.45a.34.34,0,0,1,.36.36V155a.34.34,0,0,1-.36.36Zm.08,21.13a.34.34,0,0,1-.36-.36V159.59a.34.34,0,0,1,.36-.36h2.3a.34.34,0,0,1,.36.36v16.53a.34.34,0,0,1-.36.36Z"/><path class="cls-1" d="M59.24,176.48a.34.34,0,0,1-.36-.36V161.9a.19.19,0,0,0-.22-.22H57.19a.34.34,0,0,1-.36-.36v-1.73a.34.34,0,0,1,.36-.36h1.47c.15,0,.22-.07.22-.21v-1.48c0-4.06,1.66-5.54,5.26-5.54h1.33a.34.34,0,0,1,.36.36v2.09a.35.35,0,0,1-.36.36h-.94c-2.19,0-2.63.47-2.63,2.59V159a.19.19,0,0,0,.22.21h3.35a.35.35,0,0,1,.36.36v1.73a.34.34,0,0,1-.36.36H62.12a.2.2,0,0,0-.22.22v14.22a.34.34,0,0,1-.36.36ZM70,155.35a.34.34,0,0,1-.36-.36v-2.63A.34.34,0,0,1,70,152h2.45a.34.34,0,0,1,.36.36V155a.35.35,0,0,1-.36.36Zm.07,21.13a.34.34,0,0,1-.36-.36V159.59a.34.34,0,0,1,.36-.36h2.3a.34.34,0,0,1,.36.36v16.53a.34.34,0,0,1-.36.36Z"/><path class="cls-1" d="M88.76,183a.34.34,0,0,1-.36-.36v-8.14h0c-.83,1.37-2.3,2.41-4.89,2.41-3,0-5.08-1.4-5.94-4.14a19.78,19.78,0,0,1,0-9.75c.86-2.74,3-4.14,5.94-4.14,2.59,0,4.06,1,4.89,2.37h0v-1.62a.34.34,0,0,1,.36-.36h2.3a.34.34,0,0,1,.36.36v23a.34.34,0,0,1-.36.36ZM88,171.44a11,11,0,0,0,.4-3.6,11.12,11.12,0,0,0-.4-3.6,4.08,4.08,0,0,0-7.59,0,12.15,12.15,0,0,0-.4,3.6,11.89,11.89,0,0,0,.4,3.6,4.06,4.06,0,0,0,7.59,0Z"/><path class="cls-1" d="M107.44,176.48a.35.35,0,0,1-.36-.36V174.5h0a5.26,5.26,0,0,1-4.72,2.37c-3.78,0-6-2.59-6-6.51V159.59a.34.34,0,0,1,.36-.36H99a.34.34,0,0,1,.36.36v10c0,2.81,1.26,4.42,3.81,4.42,2.34,0,3.89-1.65,3.89-4.24V159.59a.35.35,0,0,1,.36-.36h2.31a.35.35,0,0,1,.36.36v16.53a.35.35,0,0,1-.36.36Z"/><path class="cls-1" d="M114.82,172.19a17.36,17.36,0,0,1,0-8.71,7.25,7.25,0,0,1,13.53,0,15.08,15.08,0,0,1,.54,4.93.35.35,0,0,1-.39.36H117.56a.2.2,0,0,0-.22.22,6.47,6.47,0,0,0,.29,2.09,4.26,4.26,0,0,0,4.36,3,5.6,5.6,0,0,0,4.42-1.9c.18-.18.36-.22.54-.07l1.48,1.33a.32.32,0,0,1,0,.5,8.39,8.39,0,0,1-6.74,3C118.24,176.87,115.76,175.18,114.82,172.19Zm10.73-5.83a.19.19,0,0,0,.22-.21,6.05,6.05,0,0,0-.26-2,4.25,4.25,0,0,0-7.92,0,6.37,6.37,0,0,0-.25,2,.19.19,0,0,0,.22.21Z"/><path class="cls-1" d="M140.46,172.19a13.16,13.16,0,0,1-.58-4.35,13.43,13.43,0,0,1,.54-4.36,7.25,7.25,0,0,1,13.53,0,15.08,15.08,0,0,1,.54,4.93.35.35,0,0,1-.39.36H143.19a.2.2,0,0,0-.22.22,6.47,6.47,0,0,0,.29,2.09,4.26,4.26,0,0,0,4.36,3,5.64,5.64,0,0,0,4.43-1.9c.18-.18.36-.22.54-.07l1.47,1.33a.32.32,0,0,1,0,.5,8.38,8.38,0,0,1-6.73,3C143.87,176.87,141.39,175.18,140.46,172.19Zm10.72-5.83c.15,0,.22-.07.22-.21a6.08,6.08,0,0,0-.25-2,4.25,4.25,0,0,0-7.92,0,6.05,6.05,0,0,0-.26,2,.19.19,0,0,0,.22.21Z"/><path class="cls-1" d="M162.77,176.66c-3,0-4.21-1.44-4.21-4.54V152.36a.34.34,0,0,1,.36-.36h2.31a.34.34,0,0,1,.36.36v19.58c0,1.44.54,1.91,1.72,1.91H164a.34.34,0,0,1,.36.36v2.09a.35.35,0,0,1-.36.36Z"/><path class="cls-1" d="M175.34,172.19a17.21,17.21,0,0,1,0-8.71,7.26,7.26,0,0,1,13.54,0,15.08,15.08,0,0,1,.54,4.93.35.35,0,0,1-.4.36H178.07a.19.19,0,0,0-.21.22,6.47,6.47,0,0,0,.29,2.09,4.25,4.25,0,0,0,4.35,3,5.64,5.64,0,0,0,4.43-1.9c.18-.18.36-.22.54-.07l1.47,1.33a.32.32,0,0,1,0,.5,8.38,8.38,0,0,1-6.73,3C178.76,176.87,176.27,175.18,175.34,172.19Zm10.72-5.83c.15,0,.22-.07.22-.21a6.08,6.08,0,0,0-.25-2,4.25,4.25,0,0,0-7.92,0,6.08,6.08,0,0,0-.25,2,.19.19,0,0,0,.21.21Z"/><path class="cls-1" d="M192.33,174.28a.35.35,0,0,1,0-.5l1.48-1.59a.35.35,0,0,1,.5,0,8.34,8.34,0,0,0,5.33,2c2.52,0,3.78-1.08,3.78-2.62,0-1.37-.65-2.13-3.35-2.42l-1.84-.18c-3.38-.36-5.14-2-5.14-4.86,0-3.27,2.33-5.25,6.4-5.25a10.32,10.32,0,0,1,6.12,1.91.34.34,0,0,1,.07.5l-1.22,1.55a.35.35,0,0,1-.5.07,9.09,9.09,0,0,0-4.65-1.4c-2.16,0-3.27,1-3.27,2.37s.83,2.09,3.38,2.34l1.8.18c3.49.33,5.18,2.09,5.18,4.86,0,3.38-2.44,5.65-6.94,5.65A10.73,10.73,0,0,1,192.33,174.28Z"/><path class="cls-1" d="M215.44,176.66c-3.35,0-4.64-1.51-4.64-4.9V161.9a.2.2,0,0,0-.22-.22h-1.44a.34.34,0,0,1-.36-.36v-1.73a.34.34,0,0,1,.36-.36h1.44a.19.19,0,0,0,.22-.21v-4.86a.34.34,0,0,1,.36-.36h2.3a.34.34,0,0,1,.36.36V159c0,.14.07.21.22.21h2.73a.34.34,0,0,1,.36.36v1.73a.34.34,0,0,1-.36.36H214a.19.19,0,0,0-.22.22v9.75c0,1.73.65,2.2,2.2,2.2h.75a.34.34,0,0,1,.36.36v2.09a.34.34,0,0,1-.36.36Z"/><path class="cls-1" d="M231.53,176.48a.35.35,0,0,1-.36-.36V174.6h0c-.8,1.3-2.49,2.27-5.12,2.27-3.27,0-5.79-1.69-5.79-5.18s2.52-5.33,6.73-5.33h3.92c.15,0,.22-.07.22-.21v-1.26c0-2.38-.94-3.39-4.14-3.39a6.73,6.73,0,0,0-4.18,1.23.32.32,0,0,1-.5,0l-1-1.66a.38.38,0,0,1,.07-.5,9.56,9.56,0,0,1,5.87-1.69c4.89,0,6.77,1.62,6.77,5.87v11.41a.35.35,0,0,1-.36.36Zm-.43-5.58V169a.2.2,0,0,0-.22-.22h-3.45c-3,0-4.29.87-4.29,2.81,0,1.77,1.3,2.7,3.6,2.7C229.44,174.28,231.1,173,231.1,170.9Z"/><path class="cls-1" d="M249.86,176.48a.34.34,0,0,1-.36-.36v-1.66h0c-.83,1.37-2.3,2.41-4.9,2.41-3,0-5.07-1.4-5.93-4.14a19.48,19.48,0,0,1,0-9.75c.86-2.74,3-4.14,5.93-4.14,2.6,0,4.07,1,4.9,2.37h0v-8.85a.34.34,0,0,1,.36-.36h2.3a.34.34,0,0,1,.36.36v23.76a.34.34,0,0,1-.36.36Zm-.76-5a11,11,0,0,0,.4-3.6,11.12,11.12,0,0,0-.4-3.6,4.08,4.08,0,0,0-7.59,0,12.15,12.15,0,0,0-.4,3.6,11.89,11.89,0,0,0,.4,3.6,4.06,4.06,0,0,0,7.59,0Z"/><path class="cls-1" d="M257.24,172.23a16.79,16.79,0,0,1,0-8.75c.93-2.95,3.45-4.64,6.8-4.64s5.87,1.69,6.8,4.64a16.79,16.79,0,0,1,0,8.75c-.93,2.92-3.45,4.64-6.8,4.64S258.17,175.15,257.24,172.23Zm10.69-.86a11.63,11.63,0,0,0,.39-3.53,11.26,11.26,0,0,0-.39-3.49,4.15,4.15,0,0,0-7.78,0,11,11,0,0,0-.39,3.49,11.32,11.32,0,0,0,.39,3.53,4.16,4.16,0,0,0,7.78,0Z"/><path class="cls-1" d="M294.28,176.48a.34.34,0,0,1-.36-.36v-1.66h0c-.83,1.37-2.3,2.41-4.89,2.41-3,0-5.08-1.4-5.94-4.14a19.78,19.78,0,0,1,0-9.75c.86-2.74,2.95-4.14,5.94-4.14,2.59,0,4.06,1,4.89,2.37h0v-8.85a.34.34,0,0,1,.36-.36h2.3a.34.34,0,0,1,.36.36v23.76a.34.34,0,0,1-.36.36Zm-.76-5a11,11,0,0,0,.4-3.6,11.12,11.12,0,0,0-.4-3.6,4.08,4.08,0,0,0-7.59,0,12.15,12.15,0,0,0-.4,3.6,11.89,11.89,0,0,0,.4,3.6,4.06,4.06,0,0,0,7.59,0Z"/><path class="cls-1" d="M301.66,172.19a17.21,17.21,0,0,1,0-8.71,7.26,7.26,0,0,1,13.54,0,15.08,15.08,0,0,1,.54,4.93.35.35,0,0,1-.4.36H304.4a.2.2,0,0,0-.22.22,6.47,6.47,0,0,0,.29,2.09,4.25,4.25,0,0,0,4.35,3,5.64,5.64,0,0,0,4.43-1.9c.18-.18.36-.22.54-.07l1.48,1.33a.31.31,0,0,1,0,.5,8.38,8.38,0,0,1-6.73,3C305.08,176.87,302.6,175.18,301.66,172.19Zm10.73-5.83a.19.19,0,0,0,.21-.21,6.08,6.08,0,0,0-.25-2,4.25,4.25,0,0,0-7.92,0,6.08,6.08,0,0,0-.25,2c0,.14.07.21.22.21Z"/><path class="cls-1" d="M331.9,176.66c-3,0-4.21-1.44-4.21-4.54V152.36a.34.34,0,0,1,.36-.36h2.3a.34.34,0,0,1,.36.36v19.58c0,1.44.54,1.91,1.73,1.91h.68a.34.34,0,0,1,.36.36v2.09a.34.34,0,0,1-.36.36Z"/><path class="cls-1" d="M347.45,176.48a.34.34,0,0,1-.36-.36V174.6h0c-.79,1.3-2.48,2.27-5.11,2.27-3.27,0-5.79-1.69-5.79-5.18s2.52-5.33,6.73-5.33h3.92c.15,0,.22-.07.22-.21v-1.26c0-2.38-.94-3.39-4.14-3.39a6.71,6.71,0,0,0-4.18,1.23.32.32,0,0,1-.5,0l-1-1.66a.37.37,0,0,1,.07-.5,9.54,9.54,0,0,1,5.87-1.69c4.89,0,6.76,1.62,6.76,5.87v11.41a.34.34,0,0,1-.36.36ZM347,170.9V169a.2.2,0,0,0-.22-.22h-3.45c-3,0-4.29.87-4.29,2.81,0,1.77,1.3,2.7,3.6,2.7C345.36,174.28,347,173,347,170.9Z"/><path class="cls-1" d="M362.43,172.19a17.21,17.21,0,0,1,0-8.71,7.25,7.25,0,0,1,13.53,0,15.08,15.08,0,0,1,.54,4.93.35.35,0,0,1-.39.36H365.16a.19.19,0,0,0-.21.22,6.5,6.5,0,0,0,.28,2.09,4.27,4.27,0,0,0,4.36,3,5.64,5.64,0,0,0,4.43-1.9c.18-.18.36-.22.54-.07l1.47,1.33a.32.32,0,0,1,0,.5,8.38,8.38,0,0,1-6.73,3C365.85,176.87,363.36,175.18,362.43,172.19Zm10.72-5.83c.15,0,.22-.07.22-.21a6.08,6.08,0,0,0-.25-2,4.25,4.25,0,0,0-7.92,0,6.08,6.08,0,0,0-.25,2,.19.19,0,0,0,.21.21Z"/><path class="cls-1" d="M379.42,174.28a.33.33,0,0,1,0-.5l1.47-1.59a.36.36,0,0,1,.51,0,8.34,8.34,0,0,0,5.32,2c2.53,0,3.79-1.08,3.79-2.62,0-1.37-.65-2.13-3.35-2.42l-1.84-.18c-3.38-.36-5.15-2-5.15-4.86,0-3.27,2.34-5.25,6.41-5.25a10.32,10.32,0,0,1,6.12,1.91.34.34,0,0,1,.07.5l-1.22,1.55a.36.36,0,0,1-.51.07,9,9,0,0,0-4.64-1.4c-2.16,0-3.27,1-3.27,2.37s.82,2.09,3.38,2.34l1.8.18c3.49.33,5.18,2.09,5.18,4.86,0,3.38-2.45,5.65-6.94,5.65A10.73,10.73,0,0,1,379.42,174.28Z"/><path class="cls-1" d="M402.53,176.66c-3.35,0-4.64-1.51-4.64-4.9V161.9a.2.2,0,0,0-.22-.22h-1.44a.34.34,0,0,1-.36-.36v-1.73a.34.34,0,0,1,.36-.36h1.44a.19.19,0,0,0,.22-.21v-4.86a.34.34,0,0,1,.36-.36h2.3a.34.34,0,0,1,.36.36V159c0,.14.07.21.22.21h2.73a.34.34,0,0,1,.36.36v1.73a.34.34,0,0,1-.36.36h-2.73a.19.19,0,0,0-.22.22v9.75c0,1.73.65,2.2,2.19,2.2h.76a.34.34,0,0,1,.36.36v2.09a.34.34,0,0,1-.36.36Z"/><path class="cls-1" d="M408.54,176.48a.35.35,0,0,1-.36-.36V159.59a.35.35,0,0,1,.36-.36h2.3a.35.35,0,0,1,.37.36v1.77h0a4.8,4.8,0,0,1,4.57-2.52,5.3,5.3,0,0,1,3.53,1.29c.18.18.22.33.07.51l-1.33,1.76a.32.32,0,0,1-.5.07,4.92,4.92,0,0,0-2.67-.82c-2.62,0-3.7,2-3.7,5v9.43a.35.35,0,0,1-.37.36Z"/><path class="cls-1" d="M433.06,176.48a.34.34,0,0,1-.36-.36V174.5h0a5.25,5.25,0,0,1-4.72,2.37c-3.77,0-6-2.59-6-6.51V159.59a.34.34,0,0,1,.36-.36h2.3a.34.34,0,0,1,.36.36v10c0,2.81,1.26,4.42,3.82,4.42,2.34,0,3.89-1.65,3.89-4.24V159.59a.34.34,0,0,1,.36-.36h2.3a.34.34,0,0,1,.36.36v16.53a.34.34,0,0,1-.36.36Z"/><path class="cls-1" d="M440.4,163.48a6.68,6.68,0,0,1,6.8-4.64,6.94,6.94,0,0,1,5.91,2.91.35.35,0,0,1-.11.51l-1.58,1.29a.32.32,0,0,1-.51,0,4.24,4.24,0,0,0-3.71-1.87,3.74,3.74,0,0,0-3.85,2.7,11.44,11.44,0,0,0-.39,3.49,11.56,11.56,0,0,0,.39,3.53,3.74,3.74,0,0,0,3.85,2.69,4.24,4.24,0,0,0,3.71-1.87.32.32,0,0,1,.51,0l1.58,1.29a.35.35,0,0,1,.11.51,6.92,6.92,0,0,1-5.91,2.91c-3.31,0-5.83-1.65-6.8-4.64a18,18,0,0,1,0-8.75Z"/><path class="cls-1" d="M462.18,176.66c-3.35,0-4.64-1.51-4.64-4.9V161.9a.2.2,0,0,0-.22-.22h-1.44a.34.34,0,0,1-.36-.36v-1.73a.34.34,0,0,1,.36-.36h1.44a.19.19,0,0,0,.22-.21v-4.86a.34.34,0,0,1,.36-.36h2.3a.34.34,0,0,1,.36.36V159c0,.14.07.21.22.21h2.73a.34.34,0,0,1,.36.36v1.73a.34.34,0,0,1-.36.36h-2.73a.19.19,0,0,0-.22.22v9.75c0,1.73.65,2.2,2.2,2.2h.75a.34.34,0,0,1,.36.36v2.09a.34.34,0,0,1-.36.36Z"/><path class="cls-1" d="M478.67,176.48a.34.34,0,0,1-.36-.36V174.5h0a5.25,5.25,0,0,1-4.72,2.37c-3.77,0-6-2.59-6-6.51V159.59a.34.34,0,0,1,.36-.36h2.3a.34.34,0,0,1,.36.36v10c0,2.81,1.26,4.42,3.82,4.42,2.34,0,3.89-1.65,3.89-4.24V159.59a.34.34,0,0,1,.36-.36H481a.34.34,0,0,1,.36.36v16.53a.34.34,0,0,1-.36.36Z"/><path class="cls-1" d="M486.88,176.48a.35.35,0,0,1-.37-.36V159.59a.35.35,0,0,1,.37-.36h2.3a.35.35,0,0,1,.36.36v1.77h0a4.81,4.81,0,0,1,4.58-2.52,5.29,5.29,0,0,1,3.52,1.29c.18.18.22.33.08.51l-1.34,1.76a.32.32,0,0,1-.5.07,4.89,4.89,0,0,0-2.66-.82c-2.63,0-3.71,2-3.71,5v9.43a.35.35,0,0,1-.36.36Z"/><path class="cls-1" d="M510.13,176.48a.34.34,0,0,1-.36-.36V174.6h0c-.79,1.3-2.48,2.27-5.11,2.27-3.27,0-5.79-1.69-5.79-5.18s2.52-5.33,6.73-5.33h3.92c.15,0,.22-.07.22-.21v-1.26c0-2.38-.94-3.39-4.14-3.39a6.71,6.71,0,0,0-4.18,1.23.32.32,0,0,1-.5,0l-1-1.66a.38.38,0,0,1,.07-.5,9.54,9.54,0,0,1,5.87-1.69c4.89,0,6.76,1.62,6.76,5.87v11.41a.34.34,0,0,1-.36.36Zm-.43-5.58V169a.2.2,0,0,0-.22-.22H506c-3,0-4.29.87-4.29,2.81,0,1.77,1.3,2.7,3.6,2.7C508,174.28,509.7,173,509.7,170.9Z"/><path class="cls-1" d="M536.37,176.48a.35.35,0,0,1-.36-.36v-1.66h0c-.83,1.37-2.31,2.41-4.9,2.41-3,0-5.07-1.4-5.94-4.14a19.78,19.78,0,0,1,0-9.75c.87-2.74,3-4.14,5.94-4.14,2.59,0,4.07,1,4.9,2.37h0v-8.85a.34.34,0,0,1,.36-.36h2.31a.34.34,0,0,1,.36.36v23.76a.35.35,0,0,1-.36.36Zm-.75-5a11.06,11.06,0,0,0,.39-3.6,11.18,11.18,0,0,0-.39-3.6,4.08,4.08,0,0,0-7.6,0,12.2,12.2,0,0,0-.39,3.6,11.94,11.94,0,0,0,.39,3.6,4.07,4.07,0,0,0,7.6,0Z"/><path class="cls-1" d="M543.76,172.19a13.16,13.16,0,0,1-.58-4.35,13.43,13.43,0,0,1,.54-4.36,7.25,7.25,0,0,1,13.53,0,15.08,15.08,0,0,1,.54,4.93.35.35,0,0,1-.39.36H546.49a.2.2,0,0,0-.22.22,6.47,6.47,0,0,0,.29,2.09,4.26,4.26,0,0,0,4.36,3,5.6,5.6,0,0,0,4.42-1.9c.18-.18.37-.22.54-.07l1.48,1.33a.32.32,0,0,1,0,.5,8.38,8.38,0,0,1-6.73,3C547.17,176.87,544.69,175.18,543.76,172.19Zm10.72-5.83c.15,0,.22-.07.22-.21a6.08,6.08,0,0,0-.25-2,4.25,4.25,0,0,0-7.92,0,6.05,6.05,0,0,0-.26,2,.19.19,0,0,0,.22.21Z"/><path class="cls-1" d="M566.07,176.66c-3,0-4.21-1.44-4.21-4.54V152.36a.34.34,0,0,1,.36-.36h2.31a.34.34,0,0,1,.36.36v19.58c0,1.44.53,1.91,1.72,1.91h.69a.34.34,0,0,1,.36.36v2.09a.35.35,0,0,1-.36.36Z"/><path class="cls-1" d="M589.54,176.48a.35.35,0,0,1-.36-.36V174.6h0c-.79,1.3-2.49,2.27-5.11,2.27-3.28,0-5.8-1.69-5.8-5.18s2.52-5.33,6.73-5.33h3.93a.19.19,0,0,0,.21-.21v-1.26c0-2.38-.93-3.39-4.14-3.39a6.68,6.68,0,0,0-4.17,1.23.33.33,0,0,1-.51,0l-1-1.66a.38.38,0,0,1,.07-.5,9.58,9.58,0,0,1,5.87-1.69c4.9,0,6.77,1.62,6.77,5.87v11.41a.35.35,0,0,1-.36.36Zm-.43-5.58V169a.19.19,0,0,0-.21-.22h-3.46c-3,0-4.28.87-4.28,2.81,0,1.77,1.29,2.7,3.6,2.7C587.46,174.28,589.11,173,589.11,170.9Zm-4.86-14.47c-.21,0-.32-.15-.21-.36l2.73-4.43a.65.65,0,0,1,.61-.36h2.38c.22,0,.32.18.18.36l-3.31,4.43a.71.71,0,0,1-.69.36Z"/><path class="cls-1" d="M597.43,176.48a.34.34,0,0,1-.36-.36V159.59a.34.34,0,0,1,.36-.36h2.3a.34.34,0,0,1,.36.36v1.77h0a4.79,4.79,0,0,1,4.57-2.52,5.32,5.32,0,0,1,3.53,1.29c.18.18.21.33.07.51L607,162.4a.33.33,0,0,1-.51.07,4.86,4.86,0,0,0-2.66-.82c-2.63,0-3.71,2-3.71,5v9.43a.34.34,0,0,1-.36.36Z"/><path class="cls-1" d="M610,172.19a17.36,17.36,0,0,1,0-8.71,7.25,7.25,0,0,1,13.53,0,15.08,15.08,0,0,1,.54,4.93.35.35,0,0,1-.39.36H612.73a.2.2,0,0,0-.22.22,6.47,6.47,0,0,0,.29,2.09,4.25,4.25,0,0,0,4.36,3,5.6,5.6,0,0,0,4.42-1.9c.18-.18.36-.22.54-.07l1.48,1.33a.32.32,0,0,1,0,.5,8.39,8.39,0,0,1-6.74,3C613.41,176.87,610.93,175.18,610,172.19Zm10.73-5.83a.19.19,0,0,0,.22-.21,6.05,6.05,0,0,0-.26-2,4.25,4.25,0,0,0-7.92,0,6.37,6.37,0,0,0-.25,2,.19.19,0,0,0,.22.21Z"/><path class="cls-1" d="M638.61,176.48a.35.35,0,0,1-.36-.36V174.6h0c-.8,1.3-2.49,2.27-5.12,2.27-3.27,0-5.79-1.69-5.79-5.18s2.52-5.33,6.73-5.33H638c.15,0,.22-.07.22-.21v-1.26c0-2.38-.94-3.39-4.14-3.39a6.73,6.73,0,0,0-4.18,1.23.32.32,0,0,1-.5,0l-1-1.66a.38.38,0,0,1,.07-.5,9.56,9.56,0,0,1,5.87-1.69c4.89,0,6.76,1.62,6.76,5.87v11.41a.34.34,0,0,1-.35.36Zm-.43-5.58V169a.2.2,0,0,0-.22-.22h-3.45c-3,0-4.29.87-4.29,2.81,0,1.77,1.3,2.7,3.6,2.7C636.52,174.28,638.18,173,638.18,170.9Z"/><path class="cls-1" d="M646.06,172.66h2.52a.34.34,0,0,1,.36.36v3.35a1.14,1.14,0,0,1-.21.79l-2.23,3a.58.58,0,0,1-.47.25.32.32,0,0,1-.33-.32v-7A.35.35,0,0,1,646.06,172.66Z"/><path class="cls-1" d="M79.72,212.28a.35.35,0,0,1,0-.5l1.48-1.59a.35.35,0,0,1,.5,0,8.37,8.37,0,0,0,5.33,2c2.52,0,3.78-1.08,3.78-2.62,0-1.37-.65-2.13-3.35-2.42L85.63,207c-3.39-.36-5.15-2-5.15-4.86,0-3.27,2.34-5.25,6.41-5.25A10.32,10.32,0,0,1,93,198.75a.34.34,0,0,1,.07.5l-1.23,1.55a.35.35,0,0,1-.5.07,9.09,9.09,0,0,0-4.64-1.4c-2.16,0-3.28,1-3.28,2.37s.83,2.09,3.39,2.34l1.79.18c3.5.33,5.19,2.09,5.19,4.86,0,3.38-2.45,5.65-7,5.65A10.75,10.75,0,0,1,79.72,212.28Z"/><path class="cls-1" d="M98.12,193.35a.34.34,0,0,1-.36-.36v-2.63a.34.34,0,0,1,.36-.36h2.45a.34.34,0,0,1,.36.36V193a.35.35,0,0,1-.36.36Zm.07,21.13a.35.35,0,0,1-.36-.36V197.59a.35.35,0,0,1,.36-.36h2.31a.35.35,0,0,1,.36.36v16.53a.35.35,0,0,1-.36.36Z"/><path class="cls-1" d="M114.25,193.35a.34.34,0,0,1-.36-.36v-2.63a.34.34,0,0,1,.36-.36h2.44a.34.34,0,0,1,.36.36V193a.34.34,0,0,1-.36.36Zm.07,21.13a.34.34,0,0,1-.36-.36V197.59a.34.34,0,0,1,.36-.36h2.3a.34.34,0,0,1,.36.36v16.53a.34.34,0,0,1-.36.36Z"/><path class="cls-1" d="M133,214.48a.35.35,0,0,1-.36-.36v-1.66h0c-.83,1.37-2.31,2.41-4.9,2.41a5.71,5.71,0,0,1-5.94-4.14,19.78,19.78,0,0,1,0-9.75,5.71,5.71,0,0,1,5.94-4.14c2.59,0,4.07,1,4.9,2.37h0v-8.85A.34.34,0,0,1,133,190h2.31a.34.34,0,0,1,.36.36v23.76a.35.35,0,0,1-.36.36Zm-.75-5a11.06,11.06,0,0,0,.39-3.6,11.18,11.18,0,0,0-.39-3.6,4.08,4.08,0,0,0-7.6,0,12.54,12.54,0,0,0-.39,3.6,12.28,12.28,0,0,0,.39,3.6,4.06,4.06,0,0,0,7.6,0Z"/><path class="cls-1" d="M140.35,210.19a17.21,17.21,0,0,1,0-8.71,7.25,7.25,0,0,1,13.53,0,15.08,15.08,0,0,1,.54,4.93.35.35,0,0,1-.39.36H143.08a.19.19,0,0,0-.21.22,6.5,6.5,0,0,0,.28,2.09,4.27,4.27,0,0,0,4.36,3,5.65,5.65,0,0,0,4.43-1.91c.18-.18.36-.22.54-.07l1.47,1.33a.32.32,0,0,1,0,.5,8.38,8.38,0,0,1-6.73,3C143.77,214.87,141.28,213.18,140.35,210.19Zm10.72-5.83c.15,0,.22-.07.22-.21a6.08,6.08,0,0,0-.25-2,4.25,4.25,0,0,0-7.92,0,6.08,6.08,0,0,0-.25,2,.19.19,0,0,0,.21.21Z"/><path class="cls-1" d="M169.72,214.48a.34.34,0,0,1-.36-.36V204c0-2.77-1.26-4.39-3.85-4.39a3.87,3.87,0,0,0-4,4.21v10.26a.34.34,0,0,1-.36.36h-2.3a.34.34,0,0,1-.36-.36V197.59a.34.34,0,0,1,.36-.36h2.3a.34.34,0,0,1,.36.36v1.59h0a5.44,5.44,0,0,1,4.82-2.34c3.74,0,6,2.55,6,6.48v10.8a.34.34,0,0,1-.36.36Z"/><path class="cls-1" d="M182.39,214.66c-3.34,0-4.64-1.51-4.64-4.9V199.9a.19.19,0,0,0-.22-.22h-1.44a.34.34,0,0,1-.36-.36v-1.73a.35.35,0,0,1,.36-.36h1.44c.15,0,.22-.07.22-.21v-4.86a.34.34,0,0,1,.36-.36h2.3a.34.34,0,0,1,.36.36V197c0,.14.07.21.22.21h2.73a.35.35,0,0,1,.37.36v1.73a.34.34,0,0,1-.37.36H181a.19.19,0,0,0-.22.22v9.75c0,1.73.65,2.2,2.2,2.2h.75a.34.34,0,0,1,.37.36v2.09a.35.35,0,0,1-.37.36Z"/><path class="cls-1" d="M188.33,193.35A.35.35,0,0,1,188,193v-2.63a.34.34,0,0,1,.36-.36h2.45a.34.34,0,0,1,.36.36V193a.34.34,0,0,1-.36.36Zm.08,21.13a.34.34,0,0,1-.36-.36V197.59a.34.34,0,0,1,.36-.36h2.3a.35.35,0,0,1,.36.36v16.53a.35.35,0,0,1-.36.36Z"/><path class="cls-1" d="M197.19,214.48a.34.34,0,0,1-.36-.36V199.9a.19.19,0,0,0-.22-.22h-1.47a.34.34,0,0,1-.36-.36v-1.73a.34.34,0,0,1,.36-.36h1.47c.15,0,.22-.07.22-.21v-1.48c0-4.06,1.65-5.54,5.25-5.54h1.34a.34.34,0,0,1,.36.36v2.09a.35.35,0,0,1-.36.36h-.94c-2.2,0-2.63.47-2.63,2.59V197c0,.14.07.21.22.21h3.35a.35.35,0,0,1,.36.36v1.73a.34.34,0,0,1-.36.36h-3.35a.19.19,0,0,0-.22.22v14.22a.34.34,0,0,1-.36.36ZM208,193.35a.34.34,0,0,1-.36-.36v-2.63A.34.34,0,0,1,208,190h2.44a.34.34,0,0,1,.37.36V193a.35.35,0,0,1-.37.36Zm.07,21.13a.34.34,0,0,1-.36-.36V197.59a.34.34,0,0,1,.36-.36h2.3a.34.34,0,0,1,.36.36v16.53a.34.34,0,0,1-.36.36Z"/><path class="cls-1" d="M215.4,201.48a6.7,6.7,0,0,1,6.81-4.64,6.92,6.92,0,0,1,5.9,2.91c.11.18.11.33-.11.51l-1.58,1.29a.31.31,0,0,1-.5,0,4.24,4.24,0,0,0-3.71-1.87,3.74,3.74,0,0,0-3.85,2.7,11.4,11.4,0,0,0-.4,3.49,11.52,11.52,0,0,0,.4,3.53,3.74,3.74,0,0,0,3.85,2.7,4.25,4.25,0,0,0,3.71-1.88.31.31,0,0,1,.5,0l1.58,1.29c.22.18.22.33.11.51a6.9,6.9,0,0,1-5.9,2.91,6.69,6.69,0,0,1-6.81-4.64,18,18,0,0,1,0-8.75Z"/><path class="cls-1" d="M242.19,214.48a.34.34,0,0,1-.36-.36V212.6h0c-.79,1.3-2.48,2.27-5.11,2.27-3.28,0-5.8-1.69-5.8-5.18s2.52-5.33,6.74-5.33h3.92a.19.19,0,0,0,.22-.21v-1.26c0-2.38-.94-3.39-4.14-3.39a6.71,6.71,0,0,0-4.18,1.23c-.18.14-.4.14-.5,0L232,199a.38.38,0,0,1,.08-.5,9.53,9.53,0,0,1,5.86-1.69c4.9,0,6.77,1.62,6.77,5.87v11.41a.34.34,0,0,1-.36.36Zm-.43-5.58V207a.2.2,0,0,0-.22-.22h-3.46c-3,0-4.28.87-4.28,2.81,0,1.77,1.3,2.7,3.6,2.7C240.1,212.28,241.76,211,241.76,208.9Z"/><path class="cls-1" d="M258.57,214.48a.34.34,0,0,1-.36-.36V199.9a.19.19,0,0,0-.22-.22h-1.47a.34.34,0,0,1-.36-.36v-1.73a.34.34,0,0,1,.36-.36H258c.15,0,.22-.07.22-.21v-1.48c0-4.06,1.65-5.54,5.25-5.54h1.34a.33.33,0,0,1,.35.36v2.09a.34.34,0,0,1-.35.36h-.94c-2.2,0-2.63.47-2.63,2.59V197c0,.14.07.21.22.21h3.35a.34.34,0,0,1,.35.36v1.73a.33.33,0,0,1-.35.36h-3.35a.19.19,0,0,0-.22.22v14.22a.34.34,0,0,1-.36.36Z"/><path class="cls-1" d="M278.8,214.48a.34.34,0,0,1-.36-.36V212.6h0c-.79,1.3-2.48,2.27-5.11,2.27-3.28,0-5.79-1.69-5.79-5.18s2.51-5.33,6.73-5.33h3.92a.19.19,0,0,0,.22-.21v-1.26c0-2.38-.94-3.39-4.14-3.39a6.71,6.71,0,0,0-4.18,1.23.32.32,0,0,1-.5,0l-1-1.66a.37.37,0,0,1,.07-.5,9.53,9.53,0,0,1,5.86-1.69c4.9,0,6.77,1.62,6.77,5.87v11.41a.34.34,0,0,1-.36.36Zm-.43-5.58V207a.2.2,0,0,0-.22-.22h-3.46c-3,0-4.28.87-4.28,2.81,0,1.77,1.3,2.7,3.6,2.7C276.71,212.28,278.37,211,278.37,208.9Z"/><path class="cls-1" d="M290.46,214.66c-3,0-4.21-1.44-4.21-4.54V190.36a.34.34,0,0,1,.36-.36h2.31a.33.33,0,0,1,.35.36v19.58c0,1.44.54,1.91,1.73,1.91h.69a.34.34,0,0,1,.36.36v2.09a.35.35,0,0,1-.36.36Z"/><path class="cls-1" d="M299.64,214.66c-3,0-4.21-1.44-4.21-4.54V190.36a.34.34,0,0,1,.36-.36h2.3a.34.34,0,0,1,.36.36v19.58c0,1.44.54,1.91,1.73,1.91h.69a.34.34,0,0,1,.36.36v2.09a.35.35,0,0,1-.36.36Z"/><path class="cls-1" d="M315.19,214.48a.35.35,0,0,1-.36-.36V212.6h0c-.79,1.3-2.49,2.27-5.11,2.27-3.28,0-5.8-1.69-5.8-5.18s2.52-5.33,6.73-5.33h3.93a.19.19,0,0,0,.21-.21v-1.26c0-2.38-.93-3.39-4.14-3.39a6.68,6.68,0,0,0-4.17,1.23.33.33,0,0,1-.51,0L305,199a.38.38,0,0,1,.07-.5,9.56,9.56,0,0,1,5.87-1.69c4.9,0,6.77,1.62,6.77,5.87v11.41a.35.35,0,0,1-.36.36Zm-.43-5.58V207a.19.19,0,0,0-.21-.22h-3.46c-3,0-4.28.87-4.28,2.81,0,1.77,1.29,2.7,3.6,2.7C313.11,212.28,314.76,211,314.76,208.9Z"/><path class="cls-1" d="M321.53,212.28a.35.35,0,0,1,0-.5l1.48-1.59a.35.35,0,0,1,.5,0,8.37,8.37,0,0,0,5.33,2c2.52,0,3.78-1.08,3.78-2.62,0-1.37-.65-2.13-3.35-2.42l-1.84-.18c-3.38-.36-5.14-2-5.14-4.86,0-3.27,2.34-5.25,6.4-5.25a10.32,10.32,0,0,1,6.12,1.91.34.34,0,0,1,.07.5l-1.22,1.55a.35.35,0,0,1-.5.07,9.09,9.09,0,0,0-4.65-1.4c-2.16,0-3.27,1-3.27,2.37s.83,2.09,3.38,2.34l1.8.18c3.49.33,5.18,2.09,5.18,4.86,0,3.38-2.44,5.65-6.94,5.65A10.73,10.73,0,0,1,321.53,212.28Z"/><path class="cls-1" d="M347.92,214.48a.34.34,0,0,1-.36-.36V197.59a.34.34,0,0,1,.36-.36h2.3a.34.34,0,0,1,.36.36v1.77h0a4.79,4.79,0,0,1,4.57-2.52,5.32,5.32,0,0,1,3.53,1.29c.18.18.21.33.07.51l-1.33,1.76a.33.33,0,0,1-.51.07,4.86,4.86,0,0,0-2.66-.82c-2.63,0-3.71,2-3.71,5v9.43a.34.34,0,0,1-.36.36Z"/><path class="cls-1" d="M360.48,210.19a17.36,17.36,0,0,1,0-8.71,7.25,7.25,0,0,1,13.53,0,15.08,15.08,0,0,1,.54,4.93c0,.22-.14.36-.4.36h-10.9a.2.2,0,0,0-.22.22,6.47,6.47,0,0,0,.29,2.09,4.25,4.25,0,0,0,4.35,3,5.62,5.62,0,0,0,4.43-1.91c.18-.18.36-.22.54-.07l1.48,1.33a.31.31,0,0,1,0,.5,8.35,8.35,0,0,1-6.73,3C363.9,214.87,361.42,213.18,360.48,210.19Zm10.73-5.83a.19.19,0,0,0,.21-.21,6.08,6.08,0,0,0-.25-2,4.25,4.25,0,0,0-7.92,0,6.08,6.08,0,0,0-.25,2c0,.14.07.21.22.21Z"/><path class="cls-1" d="M379,221a.35.35,0,0,1-.36-.36v-23a.35.35,0,0,1,.36-.36h2.31a.34.34,0,0,1,.35.36v1.62h0c.83-1.36,2.3-2.37,4.9-2.37a5.71,5.71,0,0,1,5.94,4.14,19.78,19.78,0,0,1,0,9.75,5.71,5.71,0,0,1-5.94,4.14c-2.6,0-4.07-1-4.9-2.41h0v8.14a.34.34,0,0,1-.35.36Zm10.66-11.52a12.28,12.28,0,0,0,.39-3.6,12.54,12.54,0,0,0-.39-3.6,4.08,4.08,0,0,0-7.6,0,11.12,11.12,0,0,0-.4,3.6,11,11,0,0,0,.4,3.6,4.06,4.06,0,0,0,7.6,0Z"/><path class="cls-1" d="M401.45,214.66c-3,0-4.21-1.44-4.21-4.54V190.36a.34.34,0,0,1,.36-.36h2.3a.34.34,0,0,1,.36.36v19.58c0,1.44.54,1.91,1.73,1.91h.68a.34.34,0,0,1,.36.36v2.09a.34.34,0,0,1-.36.36Z"/><path class="cls-1" d="M417,214.48a.34.34,0,0,1-.36-.36V212.6h0c-.79,1.3-2.48,2.27-5.11,2.27-3.27,0-5.79-1.69-5.79-5.18s2.52-5.33,6.73-5.33h3.92c.15,0,.22-.07.22-.21v-1.26c0-2.38-.94-3.39-4.14-3.39a6.71,6.71,0,0,0-4.18,1.23.32.32,0,0,1-.5,0l-1-1.66a.38.38,0,0,1,.07-.5,9.54,9.54,0,0,1,5.87-1.69c4.89,0,6.76,1.62,6.76,5.87v11.41a.34.34,0,0,1-.36.36Zm-.43-5.58V207a.2.2,0,0,0-.22-.22H412.9c-3,0-4.29.87-4.29,2.81,0,1.77,1.3,2.7,3.6,2.7C414.91,212.28,416.57,211,416.57,208.9Z"/><path class="cls-1" d="M435.72,214.48a.34.34,0,0,1-.36-.36V204c0-2.77-1.26-4.39-3.85-4.39a3.87,3.87,0,0,0-4,4.21v10.26a.35.35,0,0,1-.36.36h-2.31a.35.35,0,0,1-.36-.36V197.59a.35.35,0,0,1,.36-.36h2.31a.35.35,0,0,1,.36.36v1.59h0a5.47,5.47,0,0,1,4.83-2.34c3.74,0,6,2.55,6,6.48v10.8a.34.34,0,0,1-.36.36Z"/><path class="cls-1" d="M448.39,214.66c-3.35,0-4.64-1.51-4.64-4.9V199.9a.19.19,0,0,0-.22-.22h-1.44a.34.34,0,0,1-.36-.36v-1.73a.35.35,0,0,1,.36-.36h1.44c.15,0,.22-.07.22-.21v-4.86a.34.34,0,0,1,.36-.36h2.3a.34.34,0,0,1,.36.36V197c0,.14.07.21.22.21h2.73a.34.34,0,0,1,.36.36v1.73a.34.34,0,0,1-.36.36H447a.19.19,0,0,0-.22.22v9.75c0,1.73.65,2.2,2.2,2.2h.75a.34.34,0,0,1,.36.36v2.09a.34.34,0,0,1-.36.36Z"/><path class="cls-1" d="M453.58,210.19a17.21,17.21,0,0,1,0-8.71,7.25,7.25,0,0,1,13.53,0,15.08,15.08,0,0,1,.54,4.93.35.35,0,0,1-.39.36H456.31a.19.19,0,0,0-.21.22,6.5,6.5,0,0,0,.28,2.09,4.27,4.27,0,0,0,4.36,3,5.65,5.65,0,0,0,4.43-1.91c.18-.18.36-.22.54-.07l1.47,1.33a.32.32,0,0,1,0,.5,8.38,8.38,0,0,1-6.73,3C457,214.87,454.51,213.18,453.58,210.19Zm10.72-5.83c.15,0,.22-.07.22-.21a6.08,6.08,0,0,0-.25-2,4.25,4.25,0,0,0-7.92,0,6.08,6.08,0,0,0-.25,2,.19.19,0,0,0,.21.21Z"/><path class="cls-1" d="M471.29,210.19a17.21,17.21,0,0,1,0-8.71,7.26,7.26,0,0,1,13.54,0,15.08,15.08,0,0,1,.54,4.93.35.35,0,0,1-.4.36H474a.19.19,0,0,0-.21.22,6.47,6.47,0,0,0,.29,2.09,4.25,4.25,0,0,0,4.35,3,5.65,5.65,0,0,0,4.43-1.91c.18-.18.36-.22.54-.07l1.47,1.33a.32.32,0,0,1,0,.5,8.38,8.38,0,0,1-6.73,3C474.71,214.87,472.22,213.18,471.29,210.19ZM482,204.36c.15,0,.22-.07.22-.21a6.08,6.08,0,0,0-.25-2,4.25,4.25,0,0,0-7.92,0,6.08,6.08,0,0,0-.25,2,.19.19,0,0,0,.21.21Z"/><path class="cls-1" d="M496.92,210.23a16.79,16.79,0,0,1,0-8.75c.94-2.95,3.46-4.64,6.8-4.64s5.87,1.69,6.81,4.64a17.07,17.07,0,0,1,0,8.75,7.31,7.31,0,0,1-13.61,0Zm10.69-.86a11.27,11.27,0,0,0,.4-3.53,10.91,10.91,0,0,0-.4-3.49,4.15,4.15,0,0,0-7.77,0,10.91,10.91,0,0,0-.4,3.49,11.27,11.27,0,0,0,.4,3.53,4.15,4.15,0,0,0,7.77,0Z"/><path class="cls-1" d="M520.25,214.66c-3.35,0-4.65-1.51-4.65-4.9V199.9c0-.15-.07-.22-.21-.22H514a.34.34,0,0,1-.36-.36v-1.73a.34.34,0,0,1,.36-.36h1.44a.19.19,0,0,0,.21-.21v-4.86a.34.34,0,0,1,.36-.36h2.31a.34.34,0,0,1,.36.36V197a.19.19,0,0,0,.21.21h2.74a.35.35,0,0,1,.36.36v1.73a.34.34,0,0,1-.36.36h-2.74c-.14,0-.21.07-.21.22v9.75c0,1.73.64,2.2,2.19,2.2h.76a.34.34,0,0,1,.36.36v2.09a.35.35,0,0,1-.36.36Z"/><path class="cls-1" d="M526.26,214.48a.34.34,0,0,1-.36-.36V197.59a.34.34,0,0,1,.36-.36h2.3a.34.34,0,0,1,.36.36v1.77h0a4.79,4.79,0,0,1,4.57-2.52,5.32,5.32,0,0,1,3.53,1.29c.18.18.21.33.07.51l-1.33,1.76a.33.33,0,0,1-.51.07,4.86,4.86,0,0,0-2.66-.82c-2.63,0-3.71,2-3.71,5v9.43a.34.34,0,0,1-.36.36Z"/><path class="cls-1" d="M538.82,210.23a17.07,17.07,0,0,1,0-8.75c.94-2.95,3.46-4.64,6.81-4.64s5.86,1.69,6.8,4.64a16.79,16.79,0,0,1,0,8.75,7.31,7.31,0,0,1-13.61,0Zm10.69-.86a11.27,11.27,0,0,0,.4-3.53,10.91,10.91,0,0,0-.4-3.49,4.15,4.15,0,0,0-7.77,0,10.91,10.91,0,0,0-.4,3.49,11.27,11.27,0,0,0,.4,3.53,4.15,4.15,0,0,0,7.77,0Z"/><path class="cls-1" d="M556,212.28a.33.33,0,0,1,0-.5l1.47-1.59a.36.36,0,0,1,.51,0,8.34,8.34,0,0,0,5.33,2c2.52,0,3.78-1.08,3.78-2.62,0-1.37-.65-2.13-3.35-2.42l-1.84-.18c-3.38-.36-5.15-2-5.15-4.86,0-3.27,2.34-5.25,6.41-5.25a10.32,10.32,0,0,1,6.12,1.91.34.34,0,0,1,.07.5l-1.22,1.55a.35.35,0,0,1-.5.07,9.09,9.09,0,0,0-4.65-1.4c-2.16,0-3.27,1-3.27,2.37s.82,2.09,3.38,2.34l1.8.18c3.49.33,5.18,2.09,5.18,4.86,0,3.38-2.44,5.65-6.94,5.65A10.73,10.73,0,0,1,556,212.28Z"/><path class="cls-1" d="M174,252.48a.35.35,0,0,1-.36-.36V242c0-2.77-1.26-4.39-3.85-4.39a3.89,3.89,0,0,0-4,4.21v10.26a.34.34,0,0,1-.36.36h-2.3a.34.34,0,0,1-.36-.36V242c0-2.77-1.26-4.39-3.85-4.39a3.87,3.87,0,0,0-4,4.21v10.26a.35.35,0,0,1-.36.36h-2.31a.35.35,0,0,1-.36-.36V235.59a.35.35,0,0,1,.36-.36h2.31a.35.35,0,0,1,.36.36v1.59h0a6.1,6.1,0,0,1,9.87.36h0a6.41,6.41,0,0,1,5.58-2.7c4,0,6.16,2.55,6.16,6.48v10.8a.35.35,0,0,1-.36.36Z"/><path class="cls-1" d="M181.21,248.19a17.21,17.21,0,0,1,0-8.71,7.25,7.25,0,0,1,13.53,0,15.08,15.08,0,0,1,.54,4.93.35.35,0,0,1-.39.36H183.94a.19.19,0,0,0-.21.22,6.5,6.5,0,0,0,.28,2.09,4.27,4.27,0,0,0,4.36,3,5.65,5.65,0,0,0,4.43-1.91c.18-.18.36-.22.54-.07l1.47,1.33a.32.32,0,0,1,0,.5,8.38,8.38,0,0,1-6.73,3C184.63,252.87,182.14,251.18,181.21,248.19Zm10.72-5.83c.15,0,.22-.07.22-.21a6.08,6.08,0,0,0-.25-2,4.25,4.25,0,0,0-7.92,0,6.08,6.08,0,0,0-.25,2,.19.19,0,0,0,.21.21Z"/><path class="cls-1" d="M198.88,239.48a6.68,6.68,0,0,1,6.8-4.64,6.94,6.94,0,0,1,5.91,2.91c.11.18.11.33-.11.51l-1.58,1.29a.32.32,0,0,1-.51,0,4.24,4.24,0,0,0-3.71-1.87,3.74,3.74,0,0,0-3.85,2.7,11.77,11.77,0,0,0-.39,3.49,11.89,11.89,0,0,0,.39,3.53,3.74,3.74,0,0,0,3.85,2.7,4.25,4.25,0,0,0,3.71-1.88.32.32,0,0,1,.51,0l1.58,1.29c.22.18.22.33.11.51a6.92,6.92,0,0,1-5.91,2.91c-3.31,0-5.83-1.65-6.8-4.64a18,18,0,0,1,0-8.75Z"/><path class="cls-1" d="M225.66,252.48a.35.35,0,0,1-.36-.36V250.6h0c-.79,1.3-2.49,2.27-5.11,2.27-3.28,0-5.8-1.69-5.8-5.18s2.52-5.33,6.73-5.33H225a.19.19,0,0,0,.21-.21v-1.26c0-2.38-.93-3.39-4.14-3.39a6.68,6.68,0,0,0-4.17,1.23.33.33,0,0,1-.51,0l-1-1.66a.38.38,0,0,1,.07-.5,9.56,9.56,0,0,1,5.87-1.69c4.9,0,6.77,1.62,6.77,5.87v11.41a.35.35,0,0,1-.36.36Zm-.43-5.58V245a.19.19,0,0,0-.21-.22h-3.46c-3,0-4.28.87-4.28,2.81,0,1.77,1.29,2.7,3.6,2.7C223.58,250.28,225.23,249,225.23,246.9Z"/><path class="cls-1" d="M244.38,252.48a.35.35,0,0,1-.36-.36V242c0-2.77-1.26-4.39-3.85-4.39a3.87,3.87,0,0,0-4,4.21v10.26a.34.34,0,0,1-.36.36h-2.3a.34.34,0,0,1-.36-.36V235.59a.34.34,0,0,1,.36-.36h2.3a.34.34,0,0,1,.36.36v1.59h0a5.45,5.45,0,0,1,4.82-2.34c3.75,0,6,2.55,6,6.48v10.8a.35.35,0,0,1-.36.36Z"/><path class="cls-1" d="M252.34,231.35A.34.34,0,0,1,252,231v-2.63a.34.34,0,0,1,.36-.36h2.45a.34.34,0,0,1,.36.36V231a.35.35,0,0,1-.36.36Zm.07,21.13a.35.35,0,0,1-.36-.36V235.59a.35.35,0,0,1,.36-.36h2.31a.35.35,0,0,1,.36.36v16.53a.35.35,0,0,1-.36.36Z"/><path class="cls-1" d="M259.07,250.28a.35.35,0,0,1,0-.5l1.48-1.59a.35.35,0,0,1,.5,0,8.37,8.37,0,0,0,5.33,2c2.52,0,3.78-1.08,3.78-2.62,0-1.37-.65-2.13-3.35-2.42L265,245c-3.39-.36-5.15-2-5.15-4.86,0-3.27,2.34-5.25,6.41-5.25a10.26,10.26,0,0,1,6.11,1.91.35.35,0,0,1,.08.5l-1.23,1.55a.35.35,0,0,1-.5.07,9.09,9.09,0,0,0-4.64-1.4c-2.16,0-3.28,1-3.28,2.37s.83,2.09,3.38,2.34l1.8.18c3.49.33,5.19,2.09,5.19,4.86,0,3.38-2.45,5.65-6.95,5.65A10.75,10.75,0,0,1,259.07,250.28Z"/><path class="cls-1" d="M299.21,252.48a.34.34,0,0,1-.36-.36V242c0-2.77-1.26-4.39-3.85-4.39a3.88,3.88,0,0,0-4,4.21v10.26a.35.35,0,0,1-.36.36h-2.31a.35.35,0,0,1-.36-.36V242c0-2.77-1.25-4.39-3.85-4.39a3.87,3.87,0,0,0-4,4.21v10.26a.34.34,0,0,1-.36.36h-2.3a.34.34,0,0,1-.36-.36V235.59a.34.34,0,0,1,.36-.36h2.3a.34.34,0,0,1,.36.36v1.59h0a6.09,6.09,0,0,1,9.86.36h0a6.41,6.41,0,0,1,5.58-2.7c4,0,6.15,2.55,6.15,6.48v10.8a.34.34,0,0,1-.36.36Z"/><path class="cls-1" d="M306.41,248.23a17.07,17.07,0,0,1,0-8.75c.94-2.95,3.46-4.64,6.8-4.64s5.87,1.69,6.81,4.64a17.07,17.07,0,0,1,0,8.75,7.31,7.31,0,0,1-13.61,0Zm10.69-.86a11.27,11.27,0,0,0,.4-3.53,10.91,10.91,0,0,0-.4-3.49,4.15,4.15,0,0,0-7.77,0,10.91,10.91,0,0,0-.4,3.49,11.27,11.27,0,0,0,.4,3.53,4.15,4.15,0,0,0,7.77,0Z"/><path class="cls-1" d="M323.55,250.28a.33.33,0,0,1,0-.5l1.47-1.59a.36.36,0,0,1,.51,0,8.34,8.34,0,0,0,5.32,2c2.52,0,3.78-1.08,3.78-2.62,0-1.37-.64-2.13-3.34-2.42l-1.84-.18c-3.38-.36-5.15-2-5.15-4.86,0-3.27,2.34-5.25,6.41-5.25a10.32,10.32,0,0,1,6.12,1.91.34.34,0,0,1,.07.5l-1.22,1.55a.36.36,0,0,1-.51.07,9.06,9.06,0,0,0-4.64-1.4c-2.16,0-3.27,1-3.27,2.37s.82,2.09,3.38,2.34l1.8.18c3.49.33,5.18,2.09,5.18,4.86,0,3.38-2.45,5.65-6.95,5.65A10.72,10.72,0,0,1,323.55,250.28Z"/><path class="cls-1" d="M360.37,252.48a.35.35,0,0,1-.36-.36v-1.66h0c-.83,1.37-2.31,2.41-4.9,2.41-3,0-5.07-1.4-5.94-4.14a19.78,19.78,0,0,1,0-9.75c.87-2.74,2.95-4.14,5.94-4.14,2.59,0,4.07,1,4.9,2.37h0v-8.85a.34.34,0,0,1,.36-.36h2.31a.34.34,0,0,1,.36.36v23.76a.35.35,0,0,1-.36.36Zm-.75-5a11.06,11.06,0,0,0,.39-3.6,11.18,11.18,0,0,0-.39-3.6,4.08,4.08,0,0,0-7.6,0,12.2,12.2,0,0,0-.39,3.6,11.94,11.94,0,0,0,.39,3.6,4.06,4.06,0,0,0,7.6,0Z"/><path class="cls-1" d="M367.75,248.19a17.36,17.36,0,0,1,0-8.71,7.25,7.25,0,0,1,13.53,0,15.08,15.08,0,0,1,.54,4.93.35.35,0,0,1-.39.36H370.49a.2.2,0,0,0-.22.22,6.47,6.47,0,0,0,.29,2.09,4.27,4.27,0,0,0,4.36,3,5.61,5.61,0,0,0,4.42-1.91c.18-.18.36-.22.54-.07l1.48,1.33a.32.32,0,0,1,0,.5,8.38,8.38,0,0,1-6.73,3C371.17,252.87,368.69,251.18,367.75,248.19Zm10.73-5.83a.19.19,0,0,0,.22-.21,6.05,6.05,0,0,0-.26-2,4.25,4.25,0,0,0-7.91,0,6.05,6.05,0,0,0-.26,2,.19.19,0,0,0,.22.21Z"/><path class="cls-1" d="M404.29,252.48a.35.35,0,0,1-.36-.36V250.6h0c-.8,1.3-2.49,2.27-5.12,2.27-3.27,0-5.79-1.69-5.79-5.18s2.52-5.33,6.73-5.33h3.92c.15,0,.22-.07.22-.21v-1.26c0-2.38-.94-3.39-4.14-3.39a6.68,6.68,0,0,0-4.17,1.23c-.19.14-.4.14-.51,0l-1-1.66a.38.38,0,0,1,.07-.5,9.56,9.56,0,0,1,5.87-1.69c4.89,0,6.77,1.62,6.77,5.87v11.41a.35.35,0,0,1-.36.36Zm-.43-5.58V245a.2.2,0,0,0-.22-.22h-3.45c-3,0-4.28.87-4.28,2.81,0,1.77,1.29,2.7,3.6,2.7C402.2,250.28,403.86,249,403.86,246.9Z"/><path class="cls-1" d="M411.31,239.48c1-3,3.49-4.64,6.81-4.64a6.94,6.94,0,0,1,5.9,2.91c.11.18.11.33-.11.51l-1.58,1.29a.32.32,0,0,1-.51,0,4.22,4.22,0,0,0-3.7-1.87,3.75,3.75,0,0,0-3.86,2.7,11.77,11.77,0,0,0-.39,3.49,11.89,11.89,0,0,0,.39,3.53,3.75,3.75,0,0,0,3.86,2.7,4.23,4.23,0,0,0,3.7-1.88.32.32,0,0,1,.51,0l1.58,1.29c.22.18.22.33.11.51a6.91,6.91,0,0,1-5.9,2.91c-3.32,0-5.84-1.65-6.81-4.64a18,18,0,0,1,0-8.75Z"/><path class="cls-1" d="M427.15,239.48c1-3,3.49-4.64,6.81-4.64a6.94,6.94,0,0,1,5.9,2.91c.11.18.11.33-.11.51l-1.58,1.29a.32.32,0,0,1-.51,0,4.22,4.22,0,0,0-3.7-1.87,3.75,3.75,0,0,0-3.86,2.7,11.77,11.77,0,0,0-.39,3.49,11.89,11.89,0,0,0,.39,3.53,3.75,3.75,0,0,0,3.86,2.7,4.23,4.23,0,0,0,3.7-1.88.32.32,0,0,1,.51,0l1.58,1.29c.22.18.22.33.11.51a6.91,6.91,0,0,1-5.9,2.91c-3.32,0-5.84-1.65-6.81-4.64a18,18,0,0,1,0-8.75Z"/><path class="cls-1" d="M443,248.19a17.21,17.21,0,0,1,0-8.71,7.26,7.26,0,0,1,13.54,0,15.08,15.08,0,0,1,.54,4.93.35.35,0,0,1-.4.36H445.76a.19.19,0,0,0-.21.22,6.47,6.47,0,0,0,.29,2.09,4.25,4.25,0,0,0,4.35,3,5.65,5.65,0,0,0,4.43-1.91c.18-.18.36-.22.54-.07l1.47,1.33a.32.32,0,0,1,0,.5,8.38,8.38,0,0,1-6.73,3C446.45,252.87,444,251.18,443,248.19Zm10.73-5.83a.19.19,0,0,0,.21-.21,6.08,6.08,0,0,0-.25-2,4.25,4.25,0,0,0-7.92,0,6.08,6.08,0,0,0-.25,2,.19.19,0,0,0,.21.21Z"/><path class="cls-1" d="M460,250.28a.35.35,0,0,1,0-.5l1.48-1.59a.35.35,0,0,1,.5,0,8.37,8.37,0,0,0,5.33,2c2.52,0,3.78-1.08,3.78-2.62,0-1.37-.65-2.13-3.35-2.42l-1.84-.18c-3.38-.36-5.14-2-5.14-4.86,0-3.27,2.34-5.25,6.4-5.25a10.32,10.32,0,0,1,6.12,1.91.34.34,0,0,1,.07.5l-1.22,1.55a.35.35,0,0,1-.5.07,9.09,9.09,0,0,0-4.65-1.4c-2.16,0-3.27,1-3.27,2.37s.83,2.09,3.38,2.34l1.8.18c3.49.33,5.18,2.09,5.18,4.86,0,3.38-2.44,5.65-6.94,5.65A10.73,10.73,0,0,1,460,250.28Z"/><path class="cls-1" d="M477.66,248.23a16.79,16.79,0,0,1,0-8.75c.94-2.95,3.46-4.64,6.8-4.64s5.87,1.69,6.81,4.64a17.07,17.07,0,0,1,0,8.75,7.31,7.31,0,0,1-13.61,0Zm10.69-.86a11.27,11.27,0,0,0,.4-3.53,10.91,10.91,0,0,0-.4-3.49,4.15,4.15,0,0,0-7.77,0,10.91,10.91,0,0,0-.4,3.49,11.27,11.27,0,0,0,.4,3.53,4.15,4.15,0,0,0,7.77,0Z"/><path class="cls-1" d="M495.55,249a.35.35,0,0,1,.36-.36h2.74a.35.35,0,0,1,.36.36v3.1a.35.35,0,0,1-.36.36h-2.74a.35.35,0,0,1-.36-.36Z"/></g></g></svg>