<svg xmlns="http://www.w3.org/2000/svg" viewBox="0 0 477.32 447.23"><defs><style>.cls-1{font-size:40px;font-family:DINNextLTPro-Medium, DIN Next LT Pro;font-weight:500;letter-spacing:-0.06em;}.cls-2{letter-spacing:-0.06em;}.cls-3{letter-spacing:-0.07em;}.cls-4{letter-spacing:-0.08em;}.cls-5{letter-spacing:-0.02em;}.cls-6{letter-spacing:-0.03em;}.cls-7{letter-spacing:-0.02em;}.cls-8{letter-spacing:-0.04em;}.cls-9{letter-spacing:-0.04em;}.cls-10{letter-spacing:-0.03em;}.cls-11{letter-spacing:-0.03em;}.cls-12{letter-spacing:-0.04em;}.cls-13{letter-spacing:-0.09em;}.cls-14{letter-spacing:-0.03em;}.cls-15{letter-spacing:-0.03em;}.cls-16{letter-spacing:-0.02em;}.cls-17{letter-spacing:-0.03em;}.cls-18{letter-spacing:-0.04em;}</style></defs><title>r8</title><g id="Capa_2" data-name="Capa 2"><g id="fondo"><text class="cls-1" transform="translate(0.09 33.6)">A<tspan class="cls-2" x="22.16" y="0">l </tspan><tspan class="cls-3" x="38.44" y="0">r</tspan><tspan class="cls-2" x="52.56" y="0">ealizar t</tspan><tspan class="cls-4" x="174.19" y="0">r</tspan><tspan class="cls-2" x="188" y="0">abajos en</tspan><tspan class="cls-5" x="333.39" y="0" xml:space="preserve"> a</tspan><tspan class="cls-6" x="362.15" y="0">l</tspan><tspan class="cls-7" x="372.67" y="0">tu</tspan><tspan class="cls-8" x="405.67" y="0">r</tspan><tspan class="cls-7" x="421.07" y="0">as</tspan><tspan class="cls-9" x="460.31" y="0">,</tspan><tspan class="cls-7" x="468.59" y="0"> </tspan><tspan class="cls-10"><tspan x="30.26" y="38">v</tspan><tspan class="cls-5" x="48.66" y="38">erifique p</tspan><tspan class="cls-11" x="208.62" y="38">r</tspan><tspan class="cls-5" x="224.34" y="38">eviamente el </tspan></tspan><tspan class="cls-7"><tspan x="48.08" y="76">estado de sistemas de </tspan><tspan x="36.8" y="114">acceso como es</tspan><tspan class="cls-8" x="300.39" y="114">c</tspan><tspan x="317.87" y="114">ale</tspan><tspan class="cls-8" x="368.87" y="114">r</tspan><tspan x="384.27" y="114">as</tspan><tspan class="cls-9" x="423.51" y="114">,</tspan><tspan x="431.79" y="114"> </tspan><tspan x="11.88" y="152">andamios</tspan><tspan class="cls-9" x="175.92" y="152">,</tspan><tspan x="184.2" y="152" xml:space="preserve"> líneas de vida</tspan><tspan class="cls-12" x="421.19" y="152">,</tspan><tspan x="429.47" y="152" xml:space="preserve"> y </tspan><tspan x="16.44" y="190">demás elementos usados</tspan><tspan class="cls-12" x="443.63" y="190">.</tspan><tspan class="cls-5" x="452.15" y="190"> </tspan></tspan><tspan class="cls-13"><tspan x="3.8" y="228">T</tspan><tspan class="cls-5" x="22.12" y="228">ambien </tspan><tspan class="cls-14" x="155.48" y="228">v</tspan><tspan class="cls-7" x="173.88" y="228">erifique el estado </tspan></tspan><tspan class="cls-7"><tspan x="1.38" y="266">de la estructu</tspan><tspan class="cls-8" x="230.14" y="266">r</tspan><tspan x="245.54" y="266">al del á</tspan><tspan class="cls-15" x="365.77" y="266">r</tspan><tspan x="381.49" y="266">ea</tspan><tspan class="cls-9" x="421.65" y="266">,</tspan><tspan x="429.93" y="266" xml:space="preserve"> si </tspan><tspan x="21.82" y="304">identifi</tspan><tspan class="cls-8" x="137.7" y="304">c</tspan><tspan class="cls-5" x="155.18" y="304">a fa</tspan><tspan class="cls-16" x="216.38" y="304">l</tspan><tspan class="cls-5" x="227.1" y="304">las </tspan><tspan class="cls-17" x="285.81" y="304">r</tspan><tspan class="cls-5" x="301.54" y="304">eplantee </tspan><tspan x="55.34" y="342">ot</tspan><tspan class="cls-11" x="87.5" y="342">r</tspan><tspan class="cls-5" x="103.22" y="342">os me</tspan><tspan class="cls-18" x="204.06" y="342">c</tspan><tspan x="221.54" y="342">anismos de </tspan><tspan x="172.14" y="380">acceso</tspan><tspan class="cls-9" x="287.94" y="380">.</tspan></tspan></text></g></g></svg>