<svg xmlns="http://www.w3.org/2000/svg" viewBox="0 0 589.2 253.59"><defs><style>.cls-1{fill:#4d4d4d;}</style></defs><title>r9</title><g id="Capa_2" data-name="Capa 2"><g id="control_vector" data-name="control vector"><path class="cls-1" d="M25.34,25.2c-.25,0-.36-.11-.47-.36L20,14.83h-5.4a.2.2,0,0,0-.22.22v9.79a.34.34,0,0,1-.36.36H11.52a.34.34,0,0,1-.36-.36V1.08a.34.34,0,0,1,.36-.36h8.85C25,.72,28,3.53,28,7.77a6.65,6.65,0,0,1-4.82,6.66l5.22,10.33c.14.22,0,.44-.22.44Zm-.5-17.43c0-2.55-1.69-4.06-4.54-4.06H14.58a.19.19,0,0,0-.22.21v7.71a.19.19,0,0,0,.22.21H20.3C23.15,11.84,24.84,10.33,24.84,7.77Z"/><path class="cls-1" d="M31.75,20.91a13.48,13.48,0,0,1-.57-4.35,13.76,13.76,0,0,1,.53-4.36,6.67,6.67,0,0,1,6.77-4.64,6.68,6.68,0,0,1,6.77,4.64,15.08,15.08,0,0,1,.54,4.93c0,.22-.14.36-.4.36H34.49a.2.2,0,0,0-.22.22,6.47,6.47,0,0,0,.29,2.09,4.25,4.25,0,0,0,4.35,3,5.61,5.61,0,0,0,4.43-1.9c.18-.18.36-.22.54-.07l1.48,1.33a.31.31,0,0,1,0,.5,8.35,8.35,0,0,1-6.73,2.95C35.17,25.59,32.69,23.9,31.75,20.91Zm10.73-5.83a.19.19,0,0,0,.21-.21,6.08,6.08,0,0,0-.25-1.95,3.88,3.88,0,0,0-4-2.7,3.9,3.9,0,0,0-4,2.7,6.08,6.08,0,0,0-.25,1.95c0,.14.07.21.22.21Z"/><path class="cls-1" d="M60.37,25.2a.34.34,0,0,1-.36-.36V23.32h0c-.79,1.3-2.48,2.27-5.11,2.27-3.27,0-5.79-1.69-5.79-5.18,0-3.64,2.52-5.33,6.73-5.33h3.92c.15,0,.22-.07.22-.21V13.61c0-2.38-.94-3.39-4.14-3.39a6.71,6.71,0,0,0-4.18,1.23.32.32,0,0,1-.5,0l-1-1.66a.38.38,0,0,1,.07-.5,9.54,9.54,0,0,1,5.87-1.69c4.89,0,6.76,1.62,6.76,5.87V24.84a.34.34,0,0,1-.36.36Zm-.43-5.58V17.71a.2.2,0,0,0-.22-.22H56.27c-3,0-4.29.87-4.29,2.81,0,1.76,1.3,2.7,3.6,2.7C58.28,23,59.94,21.74,59.94,19.62Z"/><path class="cls-1" d="M72,25.38c-3,0-4.21-1.44-4.21-4.54V1.08a.34.34,0,0,1,.36-.36h2.31a.34.34,0,0,1,.36.36V20.66c0,1.44.54,1.91,1.72,1.91h.69a.34.34,0,0,1,.36.36V25a.35.35,0,0,1-.36.36Z"/><path class="cls-1" d="M77.43,4.07a.35.35,0,0,1-.36-.36V1.08a.34.34,0,0,1,.36-.36h2.45a.34.34,0,0,1,.36.36V3.71a.34.34,0,0,1-.36.36Zm.08,21.13a.34.34,0,0,1-.36-.36V8.31A.34.34,0,0,1,77.51,8h2.3a.34.34,0,0,1,.36.36V24.84a.34.34,0,0,1-.36.36Z"/><path class="cls-1" d="M84.85,12.2c1-3,3.49-4.64,6.8-4.64a6.92,6.92,0,0,1,5.91,2.91.35.35,0,0,1-.11.51l-1.58,1.29a.32.32,0,0,1-.51,0,4.24,4.24,0,0,0-3.71-1.87,3.74,3.74,0,0,0-3.85,2.7,11.44,11.44,0,0,0-.39,3.49,11.45,11.45,0,0,0,.39,3.52,3.74,3.74,0,0,0,3.85,2.7,4.24,4.24,0,0,0,3.71-1.87.32.32,0,0,1,.51,0l1.58,1.29a.35.35,0,0,1,.11.51,6.92,6.92,0,0,1-5.91,2.91c-3.31,0-5.83-1.65-6.8-4.64a15,15,0,0,1-.54-4.39A15,15,0,0,1,84.85,12.2Z"/><path class="cls-1" d="M100.73,20.91a13.43,13.43,0,0,1-.58-4.35,13.43,13.43,0,0,1,.54-4.36,7.25,7.25,0,0,1,13.53,0,15.08,15.08,0,0,1,.54,4.93.35.35,0,0,1-.39.36H103.46a.19.19,0,0,0-.21.22,6.5,6.5,0,0,0,.28,2.09,4.27,4.27,0,0,0,4.36,3,5.64,5.64,0,0,0,4.43-1.9c.18-.18.36-.22.54-.07l1.47,1.33a.32.32,0,0,1,0,.5,8.38,8.38,0,0,1-6.73,2.95C104.15,25.59,101.66,23.9,100.73,20.91Zm10.72-5.83c.15,0,.22-.07.22-.21a6.08,6.08,0,0,0-.25-1.95,4.25,4.25,0,0,0-7.92,0,6.08,6.08,0,0,0-.25,1.95.19.19,0,0,0,.21.21Z"/><path class="cls-1" d="M137.66,25.2a.34.34,0,0,1-.36-.36V23.22h0a5.25,5.25,0,0,1-4.71,2.37c-3.78,0-6-2.59-6-6.51V8.31a.35.35,0,0,1,.36-.36h2.31a.35.35,0,0,1,.36.36v10c0,2.81,1.26,4.42,3.81,4.42,2.34,0,3.89-1.65,3.89-4.24V8.31a.34.34,0,0,1,.36-.36H140a.34.34,0,0,1,.36.36V24.84a.34.34,0,0,1-.36.36Z"/><path class="cls-1" d="M156.7,25.2a.35.35,0,0,1-.36-.36V14.76c0-2.77-1.26-4.39-3.85-4.39a3.87,3.87,0,0,0-4,4.21V24.84a.34.34,0,0,1-.36.36h-2.3a.34.34,0,0,1-.36-.36V8.31a.34.34,0,0,1,.36-.36h2.3a.34.34,0,0,1,.36.36V9.9h0a5.45,5.45,0,0,1,4.82-2.34c3.75,0,6,2.55,6,6.48v10.8a.35.35,0,0,1-.36.36Z"/><path class="cls-1" d="M182.73,25.2a.35.35,0,0,1-.36-.36V23.32h0c-.79,1.3-2.48,2.27-5.11,2.27-3.27,0-5.79-1.69-5.79-5.18,0-3.64,2.52-5.33,6.73-5.33h3.92c.15,0,.22-.07.22-.21V13.61c0-2.38-.94-3.39-4.14-3.39A6.73,6.73,0,0,0,174,11.45a.32.32,0,0,1-.5,0l-1-1.66a.38.38,0,0,1,.07-.5,9.56,9.56,0,0,1,5.87-1.69c4.89,0,6.76,1.62,6.76,5.87V24.84a.34.34,0,0,1-.35.36Zm-.43-5.58V17.71a.2.2,0,0,0-.22-.22h-3.45c-3,0-4.29.87-4.29,2.81,0,1.76,1.3,2.7,3.6,2.7C180.64,23,182.3,21.74,182.3,19.62Z"/><path class="cls-1" d="M201.45,25.2a.34.34,0,0,1-.36-.36V14.76c0-2.77-1.26-4.39-3.85-4.39a3.87,3.87,0,0,0-4,4.21V24.84a.34.34,0,0,1-.36.36h-2.3a.34.34,0,0,1-.36-.36V8.31a.34.34,0,0,1,.36-.36h2.3a.34.34,0,0,1,.36.36V9.9h0a5.44,5.44,0,0,1,4.82-2.34c3.74,0,6,2.55,6,6.48v10.8a.34.34,0,0,1-.36.36Z"/><path class="cls-1" d="M219.56,25.2a.34.34,0,0,1-.36-.36V23.32h0c-.79,1.3-2.48,2.27-5.11,2.27-3.27,0-5.79-1.69-5.79-5.18,0-3.64,2.52-5.33,6.73-5.33h3.92a.19.19,0,0,0,.22-.21V13.61c0-2.38-.94-3.39-4.14-3.39a6.71,6.71,0,0,0-4.18,1.23.32.32,0,0,1-.5,0l-1-1.66a.37.37,0,0,1,.07-.5,9.54,9.54,0,0,1,5.87-1.69c4.89,0,6.76,1.62,6.76,5.87V24.84a.34.34,0,0,1-.36.36Zm-.43-5.58V17.71a.2.2,0,0,0-.22-.22h-3.45c-3,0-4.29.87-4.29,2.81,0,1.76,1.3,2.7,3.6,2.7C217.47,23,219.13,21.74,219.13,19.62ZM214.27,5.15c-.22,0-.33-.15-.22-.36L216.79.36A.63.63,0,0,1,217.4,0h2.37c.22,0,.33.18.19.36l-3.32,4.43a.7.7,0,0,1-.68.36Z"/><path class="cls-1" d="M231.22,25.38c-3,0-4.21-1.44-4.21-4.54V1.08a.34.34,0,0,1,.36-.36h2.31a.34.34,0,0,1,.36.36V20.66c0,1.44.54,1.91,1.72,1.91h.69a.34.34,0,0,1,.36.36V25a.35.35,0,0,1-.36.36Z"/><path class="cls-1" d="M236.62,4.07a.35.35,0,0,1-.36-.36V1.08a.34.34,0,0,1,.36-.36h2.45a.34.34,0,0,1,.36.36V3.71a.34.34,0,0,1-.36.36Zm.08,21.13a.34.34,0,0,1-.36-.36V8.31A.34.34,0,0,1,236.7,8H239a.35.35,0,0,1,.36.36V24.84a.35.35,0,0,1-.36.36Z"/><path class="cls-1" d="M243.36,23a.33.33,0,0,1,0-.5l1.47-1.59a.35.35,0,0,1,.5,0,8.37,8.37,0,0,0,5.33,2c2.52,0,3.78-1.08,3.78-2.62,0-1.37-.65-2.13-3.35-2.42l-1.83-.18c-3.38-.36-5.15-2.05-5.15-4.86,0-3.27,2.34-5.25,6.41-5.25a10.32,10.32,0,0,1,6.12,1.91.34.34,0,0,1,.07.5l-1.22,1.55a.36.36,0,0,1-.51.07,9.06,9.06,0,0,0-4.64-1.4c-2.16,0-3.28,1-3.28,2.37s.83,2.09,3.39,2.34l1.8.18c3.49.33,5.18,2.09,5.18,4.86,0,3.38-2.45,5.65-7,5.65A10.7,10.7,0,0,1,243.36,23Z"/><path class="cls-1" d="M261.75,4.07a.35.35,0,0,1-.36-.36V1.08a.34.34,0,0,1,.36-.36h2.45a.34.34,0,0,1,.36.36V3.71a.35.35,0,0,1-.36.36Zm.07,21.13a.35.35,0,0,1-.36-.36V8.31a.35.35,0,0,1,.36-.36h2.31a.35.35,0,0,1,.36.36V24.84a.35.35,0,0,1-.36.36Z"/><path class="cls-1" d="M268.48,23a.35.35,0,0,1,0-.5L270,20.91a.35.35,0,0,1,.5,0,8.37,8.37,0,0,0,5.33,2c2.52,0,3.78-1.08,3.78-2.62,0-1.37-.65-2.13-3.35-2.42l-1.83-.18c-3.39-.36-5.15-2.05-5.15-4.86,0-3.27,2.34-5.25,6.41-5.25a10.28,10.28,0,0,1,6.11,1.91.35.35,0,0,1,.08.5l-1.23,1.55a.35.35,0,0,1-.5.07,9.09,9.09,0,0,0-4.65-1.4c-2.15,0-3.27,1-3.27,2.37s.83,2.09,3.38,2.34l1.8.18c3.5.33,5.19,2.09,5.19,4.86,0,3.38-2.45,5.65-6.95,5.65A10.75,10.75,0,0,1,268.48,23Z"/><path class="cls-1" d="M305.31,25.2a.34.34,0,0,1-.36-.36V23.18h0c-.83,1.37-2.3,2.41-4.89,2.41-3,0-5.08-1.4-5.94-4.14a14.28,14.28,0,0,1-.61-4.89,14.2,14.2,0,0,1,.61-4.86C294.94,9,297,7.56,300,7.56c2.59,0,4.06,1,4.89,2.37h0V1.08a.34.34,0,0,1,.36-.36h2.3a.34.34,0,0,1,.36.36V24.84a.34.34,0,0,1-.36.36Zm-.76-5a11,11,0,0,0,.4-3.6,11.12,11.12,0,0,0-.4-3.6A4.08,4.08,0,0,0,297,13a12.15,12.15,0,0,0-.4,3.6,11.89,11.89,0,0,0,.4,3.6,4.06,4.06,0,0,0,7.59,0Z"/><path class="cls-1" d="M312.69,20.91a13.43,13.43,0,0,1-.58-4.35,13.43,13.43,0,0,1,.54-4.36,7.26,7.26,0,0,1,13.54,0,15.08,15.08,0,0,1,.54,4.93.35.35,0,0,1-.4.36H315.42a.19.19,0,0,0-.21.22,6.47,6.47,0,0,0,.29,2.09,4.25,4.25,0,0,0,4.35,3,5.64,5.64,0,0,0,4.43-1.9c.18-.18.36-.22.54-.07l1.48,1.33a.31.31,0,0,1,0,.5,8.38,8.38,0,0,1-6.73,2.95C316.11,25.59,313.63,23.9,312.69,20.91Zm10.73-5.83a.19.19,0,0,0,.21-.21,6.08,6.08,0,0,0-.25-1.95,4.25,4.25,0,0,0-7.92,0,6.08,6.08,0,0,0-.25,1.95.19.19,0,0,0,.21.21Z"/><path class="cls-1" d="M339.15,25.2a.34.34,0,0,1-.36-.36V8.31a.34.34,0,0,1,.36-.36h2.3a.34.34,0,0,1,.36.36v1.77h0a4.79,4.79,0,0,1,4.57-2.52A5.32,5.32,0,0,1,350,8.85c.18.18.21.33.07.51l-1.33,1.76a.33.33,0,0,1-.51.07,4.86,4.86,0,0,0-2.66-.82c-2.63,0-3.71,2.05-3.71,5v9.43a.34.34,0,0,1-.36.36Z"/><path class="cls-1" d="M353.12,4.07a.34.34,0,0,1-.36-.36V1.08a.34.34,0,0,1,.36-.36h2.44a.34.34,0,0,1,.36.36V3.71a.34.34,0,0,1-.36.36Zm.07,21.13a.34.34,0,0,1-.36-.36V8.31a.34.34,0,0,1,.36-.36h2.3a.34.34,0,0,1,.36.36V24.84a.34.34,0,0,1-.36.36Z"/><path class="cls-1" d="M360.57,20.91a13.43,13.43,0,0,1-.58-4.35,13.43,13.43,0,0,1,.54-4.36,7.26,7.26,0,0,1,13.54,0,15.08,15.08,0,0,1,.54,4.93.35.35,0,0,1-.4.36H363.3a.19.19,0,0,0-.21.22,6.47,6.47,0,0,0,.29,2.09,4.25,4.25,0,0,0,4.35,3,5.64,5.64,0,0,0,4.43-1.9c.18-.18.36-.22.54-.07l1.47,1.33a.32.32,0,0,1,0,.5,8.38,8.38,0,0,1-6.73,2.95C364,25.59,361.5,23.9,360.57,20.91Zm10.72-5.83c.15,0,.22-.07.22-.21a6.08,6.08,0,0,0-.25-1.95,4.25,4.25,0,0,0-7.92,0,6.08,6.08,0,0,0-.25,1.95.19.19,0,0,0,.21.21Z"/><path class="cls-1" d="M377.56,23a.35.35,0,0,1,0-.5L379,20.91a.35.35,0,0,1,.5,0,8.34,8.34,0,0,0,5.33,2c2.52,0,3.78-1.08,3.78-2.62,0-1.37-.65-2.13-3.35-2.42l-1.84-.18c-3.38-.36-5.14-2.05-5.14-4.86,0-3.27,2.34-5.25,6.4-5.25a10.32,10.32,0,0,1,6.12,1.91.34.34,0,0,1,.07.5l-1.22,1.55a.35.35,0,0,1-.5.07,9.09,9.09,0,0,0-4.65-1.4c-2.16,0-3.27,1-3.27,2.37s.82,2.09,3.38,2.34l1.8.18c3.49.33,5.18,2.09,5.18,4.86,0,3.38-2.44,5.65-6.94,5.65A10.73,10.73,0,0,1,377.56,23Z"/><path class="cls-1" d="M395.31,29.52a.33.33,0,0,1,0-.51l1.48-1.47a.34.34,0,0,1,.54,0,5.75,5.75,0,0,0,4.07,1.72c2.84,0,4.35-1.47,4.35-4.64v-2h0C405,24,403.48,25,401,25a5.66,5.66,0,0,1-5.8-4.17,13.6,13.6,0,0,1-.57-4.54,13.6,13.6,0,0,1,.57-4.54A5.65,5.65,0,0,1,401,7.56c2.52,0,4,.93,4.79,2.37h0V8.31a.35.35,0,0,1,.36-.36h2.31a.35.35,0,0,1,.36.36V24.44c0,4.9-2.67,7.63-7.53,7.63A7.78,7.78,0,0,1,395.31,29.52Zm10.08-9.9a10.77,10.77,0,0,0,.39-3.35,10.89,10.89,0,0,0-.39-3.35,3.89,3.89,0,0,0-7.31,0,10.78,10.78,0,0,0-.43,3.35,10.65,10.65,0,0,0,.43,3.35,3.51,3.51,0,0,0,3.63,2.59A3.58,3.58,0,0,0,405.39,19.62Z"/><path class="cls-1" d="M413.52,21a13.14,13.14,0,0,1-.57-4.39,13.07,13.07,0,0,1,.57-4.36c.94-2.95,3.46-4.64,6.81-4.64s5.86,1.69,6.8,4.64a12.78,12.78,0,0,1,.58,4.36,12.85,12.85,0,0,1-.58,4.39,7.31,7.31,0,0,1-13.61,0Zm10.69-.87a11.16,11.16,0,0,0,.4-3.52,10.91,10.91,0,0,0-.4-3.49,4.15,4.15,0,0,0-7.77,0,10.91,10.91,0,0,0-.4,3.49,11.16,11.16,0,0,0,.4,3.52,4.15,4.15,0,0,0,7.77,0Z"/><path class="cls-1" d="M440.13,25.2a.34.34,0,0,1-.36-.36V1.08a.34.34,0,0,1,.36-.36h2.3a.34.34,0,0,1,.36.36V9.93h0c.82-1.36,2.3-2.37,4.89-2.37,3,0,5.08,1.4,5.94,4.14a14.2,14.2,0,0,1,.61,4.86,14.28,14.28,0,0,1-.61,4.89c-.86,2.74-3,4.14-5.94,4.14-2.59,0-4.07-1-4.89-2.41h0v1.66a.34.34,0,0,1-.36.36Zm10.65-5a11.89,11.89,0,0,0,.4-3.6,12.15,12.15,0,0,0-.4-3.6,4.08,4.08,0,0,0-7.59,0,11.12,11.12,0,0,0-.4,3.6,11,11,0,0,0,.4,3.6,4.06,4.06,0,0,0,7.59,0Z"/><path class="cls-1" d="M469.25,25.2a.34.34,0,0,1-.36-.36V23.22h0a5.25,5.25,0,0,1-4.71,2.37c-3.78,0-6-2.59-6-6.51V8.31a.35.35,0,0,1,.36-.36h2.31a.35.35,0,0,1,.36.36v10c0,2.81,1.26,4.42,3.81,4.42,2.34,0,3.89-1.65,3.89-4.24V8.31a.34.34,0,0,1,.36-.36h2.3a.34.34,0,0,1,.36.36V24.84a.34.34,0,0,1-.36.36Z"/><path class="cls-1" d="M475.91,23a.35.35,0,0,1,0-.5l1.47-1.59a.36.36,0,0,1,.51,0,8.37,8.37,0,0,0,5.33,2c2.52,0,3.78-1.08,3.78-2.62,0-1.37-.65-2.13-3.35-2.42l-1.84-.18c-3.38-.36-5.14-2.05-5.14-4.86,0-3.27,2.33-5.25,6.4-5.25a10.32,10.32,0,0,1,6.12,1.91.34.34,0,0,1,.07.5L488,11.52a.35.35,0,0,1-.5.07,9.09,9.09,0,0,0-4.65-1.4c-2.16,0-3.27,1-3.27,2.37s.83,2.09,3.38,2.34l1.8.18c3.49.33,5.18,2.09,5.18,4.86,0,3.38-2.44,5.65-6.94,5.65A10.73,10.73,0,0,1,475.91,23Z"/><path class="cls-1" d="M493.51,12.2c1-3,3.49-4.64,6.81-4.64a6.91,6.91,0,0,1,5.9,2.91c.11.18.11.33-.11.51l-1.58,1.29a.32.32,0,0,1-.51,0,4.22,4.22,0,0,0-3.7-1.87,3.75,3.75,0,0,0-3.86,2.7,11.77,11.77,0,0,0-.39,3.49,11.77,11.77,0,0,0,.39,3.52,3.75,3.75,0,0,0,3.86,2.7,4.22,4.22,0,0,0,3.7-1.87.32.32,0,0,1,.51,0l1.58,1.29c.22.18.22.33.11.51a6.91,6.91,0,0,1-5.9,2.91c-3.32,0-5.83-1.65-6.81-4.64a15,15,0,0,1-.54-4.39A15,15,0,0,1,493.51,12.2Z"/><path class="cls-1" d="M520.29,25.2a.34.34,0,0,1-.35-.36V23.32h0c-.79,1.3-2.48,2.27-5.11,2.27-3.28,0-5.8-1.69-5.8-5.18,0-3.64,2.52-5.33,6.73-5.33h3.93a.19.19,0,0,0,.21-.21V13.61c0-2.38-.93-3.39-4.14-3.39a6.7,6.7,0,0,0-4.17,1.23.33.33,0,0,1-.51,0l-1-1.66a.38.38,0,0,1,.07-.5A9.58,9.58,0,0,1,516,7.56c4.9,0,6.77,1.62,6.77,5.87V24.84a.35.35,0,0,1-.36.36Zm-.43-5.58V17.71a.19.19,0,0,0-.21-.22h-3.46c-3,0-4.28.87-4.28,2.81,0,1.76,1.29,2.7,3.6,2.7C518.21,23,519.86,21.74,519.86,19.62Z"/><path class="cls-1" d="M539,25.2a.34.34,0,0,1-.36-.36V14.76c0-2.77-1.26-4.39-3.86-4.39a3.87,3.87,0,0,0-4,4.21V24.84a.34.34,0,0,1-.36.36h-2.3a.34.34,0,0,1-.36-.36V8.31a.34.34,0,0,1,.36-.36h2.3a.34.34,0,0,1,.36.36V9.9h0a5.45,5.45,0,0,1,4.82-2.34c3.75,0,6,2.55,6,6.48v10.8a.34.34,0,0,1-.36.36Z"/><path class="cls-1" d="M557.48,25.2a.35.35,0,0,1-.36-.36V23.18h0c-.83,1.37-2.31,2.41-4.9,2.41-3,0-5.07-1.4-5.94-4.14a14.28,14.28,0,0,1-.61-4.89,14.2,14.2,0,0,1,.61-4.86c.87-2.74,3-4.14,5.94-4.14,2.59,0,4.07,1,4.9,2.37h0V1.08a.34.34,0,0,1,.36-.36h2.31a.34.34,0,0,1,.36.36V24.84a.35.35,0,0,1-.36.36Zm-.75-5a11.35,11.35,0,0,0,.39-3.6,11.47,11.47,0,0,0-.39-3.6,4.08,4.08,0,0,0-7.6,0,12.2,12.2,0,0,0-.39,3.6,11.94,11.94,0,0,0,.39,3.6,4.07,4.07,0,0,0,7.6,0Z"/><path class="cls-1" d="M564.86,21a13.14,13.14,0,0,1-.57-4.39,13.07,13.07,0,0,1,.57-4.36c.94-2.95,3.46-4.64,6.81-4.64s5.86,1.69,6.8,4.64a12.78,12.78,0,0,1,.58,4.36,12.85,12.85,0,0,1-.58,4.39,7.31,7.31,0,0,1-13.61,0Zm10.69-.87a11.16,11.16,0,0,0,.4-3.52,10.91,10.91,0,0,0-.4-3.49,4.15,4.15,0,0,0-7.77,0,10.91,10.91,0,0,0-.4,3.49,11.16,11.16,0,0,0,.4,3.52,4.15,4.15,0,0,0,7.77,0Z"/><path class="cls-1" d="M.85,58.91a13.43,13.43,0,0,1-.58-4.35A13.43,13.43,0,0,1,.81,50.2a6.66,6.66,0,0,1,6.77-4.64,6.67,6.67,0,0,1,6.76,4.64,15.08,15.08,0,0,1,.54,4.93.35.35,0,0,1-.39.36H3.58a.19.19,0,0,0-.21.22,6.5,6.5,0,0,0,.28,2.09,4.26,4.26,0,0,0,4.36,3,5.64,5.64,0,0,0,4.43-1.9c.18-.18.36-.22.54-.07l1.47,1.33a.32.32,0,0,1,0,.5,8.38,8.38,0,0,1-6.73,3C4.26,63.59,1.78,61.9.85,58.91Zm10.72-5.83c.15,0,.22-.07.22-.21a6.08,6.08,0,0,0-.25-1.95,3.9,3.9,0,0,0-4-2.7,3.88,3.88,0,0,0-4,2.7,6.08,6.08,0,0,0-.25,1.95.19.19,0,0,0,.21.21Z"/><path class="cls-1" d="M17.84,61a.33.33,0,0,1,0-.5l1.47-1.59a.36.36,0,0,1,.51,0,8.34,8.34,0,0,0,5.32,2c2.52,0,3.78-1.08,3.78-2.62,0-1.37-.64-2.13-3.34-2.42l-1.84-.18c-3.38-.36-5.15-2.05-5.15-4.86,0-3.27,2.34-5.25,6.41-5.25a10.32,10.32,0,0,1,6.12,1.91.34.34,0,0,1,.07.5L30,49.52a.36.36,0,0,1-.51.07,9.06,9.06,0,0,0-4.64-1.4c-2.16,0-3.28,1-3.28,2.37s.83,2.09,3.39,2.34l1.8.18c3.49.33,5.18,2.09,5.18,4.86,0,3.38-2.45,5.65-6.95,5.65A10.72,10.72,0,0,1,17.84,61Z"/><path class="cls-1" d="M41,63.38c-3.35,0-4.65-1.52-4.65-4.9V48.62c0-.15-.07-.22-.21-.22H34.65a.34.34,0,0,1-.36-.36V46.31a.34.34,0,0,1,.36-.36h1.44a.19.19,0,0,0,.21-.21V40.88a.34.34,0,0,1,.37-.36H39a.34.34,0,0,1,.36.36v4.86a.19.19,0,0,0,.21.21h2.74a.34.34,0,0,1,.36.36V48a.34.34,0,0,1-.36.36H39.54c-.14,0-.21.07-.21.22v9.75c0,1.73.65,2.2,2.19,2.2h.76a.34.34,0,0,1,.36.36V63a.34.34,0,0,1-.36.36Z"/><path class="cls-1" d="M57,63.2a.34.34,0,0,1-.36-.36V61.32h0c-.79,1.3-2.48,2.27-5.11,2.27-3.27,0-5.79-1.69-5.79-5.18s2.52-5.33,6.73-5.33h3.92c.15,0,.22-.07.22-.21V51.61c0-2.38-.94-3.39-4.14-3.39a6.71,6.71,0,0,0-4.18,1.23.32.32,0,0,1-.5,0l-1-1.66a.37.37,0,0,1,.07-.5,9.54,9.54,0,0,1,5.87-1.69c4.89,0,6.76,1.62,6.76,5.87V62.84a.34.34,0,0,1-.36.36Zm-.43-5.58V55.71a.2.2,0,0,0-.22-.22H52.94c-3,0-4.29.87-4.29,2.81,0,1.76,1.3,2.7,3.6,2.7C55,61,56.61,59.74,56.61,57.62Z"/><path class="cls-1" d="M64.92,63.2a.35.35,0,0,1-.36-.36V39.08a.34.34,0,0,1,.36-.36h2.31a.34.34,0,0,1,.36.36v8.85h0c.83-1.36,2.31-2.37,4.9-2.37,3,0,5.07,1.4,5.94,4.14a14.2,14.2,0,0,1,.61,4.86,14.28,14.28,0,0,1-.61,4.89c-.87,2.74-2.95,4.14-5.94,4.14-2.59,0-4.07-1-4.9-2.41h0v1.66a.35.35,0,0,1-.36.36Zm10.66-5a11.94,11.94,0,0,0,.39-3.6,12.2,12.2,0,0,0-.39-3.6A4.08,4.08,0,0,0,68,51a11.47,11.47,0,0,0-.39,3.6,11.35,11.35,0,0,0,.39,3.6,4.07,4.07,0,0,0,7.6,0Z"/><path class="cls-1" d="M87.35,63.38c-3,0-4.21-1.44-4.21-4.54V39.08a.34.34,0,0,1,.36-.36h2.3a.34.34,0,0,1,.36.36V58.66c0,1.44.54,1.91,1.73,1.91h.69a.34.34,0,0,1,.36.36V63a.35.35,0,0,1-.36.36Z"/><path class="cls-1" d="M92,58.91a13.43,13.43,0,0,1-.58-4.35A13.43,13.43,0,0,1,92,50.2a7.25,7.25,0,0,1,13.53,0,15.08,15.08,0,0,1,.54,4.93.35.35,0,0,1-.39.36H94.73a.19.19,0,0,0-.21.22,6.5,6.5,0,0,0,.28,2.09,4.27,4.27,0,0,0,4.36,3,5.64,5.64,0,0,0,4.43-1.9c.18-.18.36-.22.54-.07l1.47,1.33a.32.32,0,0,1,0,.5,8.38,8.38,0,0,1-6.73,3C95.42,63.59,92.93,61.9,92,58.91Zm10.72-5.83c.15,0,.22-.07.22-.21a6.08,6.08,0,0,0-.25-1.95,4.25,4.25,0,0,0-7.92,0,6.08,6.08,0,0,0-.25,1.95.19.19,0,0,0,.21.21Z"/><path class="cls-1" d="M109.67,50.2c1-3,3.49-4.64,6.8-4.64a6.92,6.92,0,0,1,5.91,2.91c.11.18.11.33-.11.51l-1.58,1.29a.32.32,0,0,1-.51,0,4.24,4.24,0,0,0-3.71-1.87,3.74,3.74,0,0,0-3.85,2.7,11.44,11.44,0,0,0-.39,3.49,11.45,11.45,0,0,0,.39,3.52,3.74,3.74,0,0,0,3.85,2.7,4.24,4.24,0,0,0,3.71-1.87.32.32,0,0,1,.51,0l1.58,1.29c.22.18.22.33.11.51a6.92,6.92,0,0,1-5.91,2.91c-3.31,0-5.83-1.65-6.8-4.64a15,15,0,0,1-.54-4.39A15,15,0,0,1,109.67,50.2Z"/><path class="cls-1" d="M125.55,58.91a13.43,13.43,0,0,1-.58-4.35,13.43,13.43,0,0,1,.54-4.36,7.25,7.25,0,0,1,13.53,0,14.8,14.8,0,0,1,.54,4.93.35.35,0,0,1-.39.36H128.28a.19.19,0,0,0-.21.22,6.5,6.5,0,0,0,.28,2.09,4.27,4.27,0,0,0,4.36,3,5.64,5.64,0,0,0,4.43-1.9c.18-.18.36-.22.54-.07l1.47,1.33a.32.32,0,0,1,0,.5,8.38,8.38,0,0,1-6.73,3C129,63.59,126.48,61.9,125.55,58.91Zm10.72-5.83c.15,0,.22-.07.22-.21a6.08,6.08,0,0,0-.25-1.95,4.25,4.25,0,0,0-7.92,0,6.08,6.08,0,0,0-.25,1.95.19.19,0,0,0,.21.21Z"/><path class="cls-1" d="M144.09,63.2a.34.34,0,0,1-.36-.36V46.31a.34.34,0,0,1,.36-.36h2.3a.34.34,0,0,1,.36.36v1.77h0a4.78,4.78,0,0,1,4.57-2.52,5.32,5.32,0,0,1,3.53,1.29c.18.18.21.33.07.51l-1.33,1.76a.33.33,0,0,1-.51.07,4.86,4.86,0,0,0-2.66-.82c-2.63,0-3.71,2.05-3.71,5v9.43a.34.34,0,0,1-.36.36Z"/><path class="cls-1" d="M166.05,69.68a.34.34,0,0,1-.36-.36v-23a.34.34,0,0,1,.36-.36h2.3a.34.34,0,0,1,.36.36v1.62h0c.82-1.36,2.3-2.37,4.89-2.37,3,0,5.08,1.4,5.94,4.14a14.2,14.2,0,0,1,.61,4.86,14.28,14.28,0,0,1-.61,4.89c-.86,2.74-3,4.14-5.94,4.14-2.59,0-4.07-1-4.89-2.41h0v8.14a.34.34,0,0,1-.36.36ZM176.7,58.16a11.89,11.89,0,0,0,.4-3.6,12.15,12.15,0,0,0-.4-3.6,4.08,4.08,0,0,0-7.59,0,11.12,11.12,0,0,0-.4,3.6,11,11,0,0,0,.4,3.6,4.06,4.06,0,0,0,7.59,0Z"/><path class="cls-1" d="M183.87,59a12.85,12.85,0,0,1-.58-4.39,12.78,12.78,0,0,1,.58-4.36c.93-3,3.45-4.64,6.8-4.64s5.87,1.69,6.8,4.64a12.78,12.78,0,0,1,.58,4.36,12.85,12.85,0,0,1-.58,4.39,7.3,7.3,0,0,1-13.6,0Zm10.69-.87a11.52,11.52,0,0,0,.39-3.52,11.26,11.26,0,0,0-.39-3.49,4.15,4.15,0,0,0-7.78,0,11,11,0,0,0-.39,3.49,11.21,11.21,0,0,0,.39,3.52,4.15,4.15,0,0,0,7.78,0Z"/><path class="cls-1" d="M201,61a.35.35,0,0,1,0-.5l1.48-1.59a.35.35,0,0,1,.5,0,8.37,8.37,0,0,0,5.33,2c2.52,0,3.78-1.08,3.78-2.62,0-1.37-.65-2.13-3.35-2.42l-1.83-.18c-3.39-.36-5.15-2.05-5.15-4.86,0-3.27,2.34-5.25,6.41-5.25a10.31,10.31,0,0,1,6.11,1.91.35.35,0,0,1,.08.5l-1.23,1.55a.35.35,0,0,1-.5.07,9.09,9.09,0,0,0-4.65-1.4c-2.15,0-3.27,1-3.27,2.37s.83,2.09,3.38,2.34l1.8.18c3.49.33,5.19,2.09,5.19,4.86,0,3.38-2.45,5.65-7,5.65A10.75,10.75,0,0,1,201,61Z"/><path class="cls-1" d="M219.4,42.07a.34.34,0,0,1-.36-.36V39.08a.34.34,0,0,1,.36-.36h2.44a.34.34,0,0,1,.37.36v2.63a.35.35,0,0,1-.37.36Zm.07,21.13a.34.34,0,0,1-.36-.36V46.31a.34.34,0,0,1,.36-.36h2.3a.34.34,0,0,1,.36.36V62.84a.34.34,0,0,1-.36.36Z"/><path class="cls-1" d="M227.68,63.2a.34.34,0,0,1-.36-.36V39.08a.34.34,0,0,1,.36-.36H230a.34.34,0,0,1,.36.36v8.85h0c.82-1.36,2.3-2.37,4.89-2.37,3,0,5.08,1.4,5.94,4.14a14.2,14.2,0,0,1,.61,4.86,14.28,14.28,0,0,1-.61,4.89c-.86,2.74-3,4.14-5.94,4.14-2.59,0-4.07-1-4.89-2.41h0v1.66a.34.34,0,0,1-.36.36Zm10.65-5a11.89,11.89,0,0,0,.4-3.6,12.15,12.15,0,0,0-.4-3.6,4.08,4.08,0,0,0-7.59,0,11.12,11.12,0,0,0-.4,3.6,11,11,0,0,0,.4,3.6,4.06,4.06,0,0,0,7.59,0Z"/><path class="cls-1" d="M250.1,63.38c-3,0-4.21-1.44-4.21-4.54V39.08a.34.34,0,0,1,.36-.36h2.31a.34.34,0,0,1,.36.36V58.66c0,1.44.54,1.91,1.72,1.91h.69a.34.34,0,0,1,.36.36V63a.35.35,0,0,1-.36.36Z"/><path class="cls-1" d="M254.75,58.91a13.43,13.43,0,0,1-.58-4.35,13.43,13.43,0,0,1,.54-4.36,7.26,7.26,0,0,1,13.54,0,15.08,15.08,0,0,1,.54,4.93.35.35,0,0,1-.4.36H257.48a.19.19,0,0,0-.21.22,6.47,6.47,0,0,0,.29,2.09,4.25,4.25,0,0,0,4.35,3,5.64,5.64,0,0,0,4.43-1.9c.18-.18.36-.22.54-.07l1.48,1.33a.31.31,0,0,1,0,.5,8.38,8.38,0,0,1-6.73,3C258.17,63.59,255.68,61.9,254.75,58.91Zm10.73-5.83a.19.19,0,0,0,.21-.21,6.08,6.08,0,0,0-.25-1.95,4.25,4.25,0,0,0-7.92,0,6.08,6.08,0,0,0-.25,1.95.19.19,0,0,0,.21.21Z"/><path class="cls-1" d="M271.74,61a.35.35,0,0,1,0-.5l1.48-1.59a.35.35,0,0,1,.5,0,8.37,8.37,0,0,0,5.33,2c2.52,0,3.78-1.08,3.78-2.62,0-1.37-.65-2.13-3.35-2.42l-1.84-.18c-3.38-.36-5.14-2.05-5.14-4.86,0-3.27,2.34-5.25,6.4-5.25A10.32,10.32,0,0,1,285,47.47a.34.34,0,0,1,.07.5l-1.22,1.55a.35.35,0,0,1-.5.07,9.09,9.09,0,0,0-4.65-1.4c-2.16,0-3.27,1-3.27,2.37s.83,2.09,3.38,2.34l1.8.18c3.49.33,5.18,2.09,5.18,4.86,0,3.38-2.44,5.65-6.94,5.65A10.73,10.73,0,0,1,271.74,61Z"/><path class="cls-1" d="M298.7,63.2a.35.35,0,0,1-.36-.36V48.62c0-.15-.07-.22-.21-.22h-1.48a.34.34,0,0,1-.36-.36V46.31a.35.35,0,0,1,.36-.36h1.48a.19.19,0,0,0,.21-.21V44.26c0-4.06,1.66-5.54,5.26-5.54h1.33a.34.34,0,0,1,.36.36v2.09a.34.34,0,0,1-.36.36H304c-2.2,0-2.63.47-2.63,2.59v1.62a.19.19,0,0,0,.21.21h3.35a.34.34,0,0,1,.36.36V48a.34.34,0,0,1-.36.36h-3.35c-.14,0-.21.07-.21.22V62.84a.35.35,0,0,1-.36.36Z"/><path class="cls-1" d="M318.93,63.2a.35.35,0,0,1-.36-.36V61.32h0c-.79,1.3-2.49,2.27-5.11,2.27-3.28,0-5.8-1.69-5.8-5.18s2.52-5.33,6.73-5.33h3.93a.19.19,0,0,0,.21-.21V51.61c0-2.38-.93-3.39-4.14-3.39a6.7,6.7,0,0,0-4.17,1.23.33.33,0,0,1-.51,0l-1-1.66a.38.38,0,0,1,.07-.5,9.56,9.56,0,0,1,5.87-1.69c4.9,0,6.77,1.62,6.77,5.87V62.84a.35.35,0,0,1-.36.36Zm-.43-5.58V55.71a.19.19,0,0,0-.21-.22h-3.46c-3,0-4.28.87-4.28,2.81,0,1.76,1.29,2.7,3.6,2.7C316.85,61,318.5,59.74,318.5,57.62Z"/><path class="cls-1" d="M330.6,63.38c-3,0-4.21-1.44-4.21-4.54V39.08a.34.34,0,0,1,.36-.36h2.3a.34.34,0,0,1,.36.36V58.66c0,1.44.54,1.91,1.73,1.91h.68a.34.34,0,0,1,.36.36V63a.34.34,0,0,1-.36.36Z"/><path class="cls-1" d="M339.78,63.38c-3,0-4.21-1.44-4.21-4.54V39.08a.34.34,0,0,1,.36-.36h2.3a.34.34,0,0,1,.36.36V58.66c0,1.44.54,1.91,1.73,1.91H341a.34.34,0,0,1,.36.36V63a.34.34,0,0,1-.36.36Z"/><path class="cls-1" d="M355.33,63.2a.34.34,0,0,1-.36-.36V61.32h0c-.79,1.3-2.48,2.27-5.11,2.27-3.27,0-5.79-1.69-5.79-5.18s2.52-5.33,6.73-5.33h3.92c.15,0,.22-.07.22-.21V51.61c0-2.38-.94-3.39-4.14-3.39a6.71,6.71,0,0,0-4.18,1.23.32.32,0,0,1-.5,0l-1-1.66a.37.37,0,0,1,.07-.5,9.54,9.54,0,0,1,5.87-1.69c4.89,0,6.76,1.62,6.76,5.87V62.84a.34.34,0,0,1-.36.36Zm-.43-5.58V55.71a.2.2,0,0,0-.22-.22h-3.45c-3,0-4.29.87-4.29,2.81,0,1.76,1.3,2.7,3.6,2.7C353.24,61,354.9,59.74,354.9,57.62Z"/><path class="cls-1" d="M361.67,61a.33.33,0,0,1,0-.5l1.47-1.59a.36.36,0,0,1,.51,0,8.34,8.34,0,0,0,5.32,2c2.52,0,3.78-1.08,3.78-2.62,0-1.37-.64-2.13-3.34-2.42l-1.84-.18c-3.38-.36-5.15-2.05-5.15-4.86,0-3.27,2.34-5.25,6.41-5.25A10.32,10.32,0,0,1,375,47.47a.34.34,0,0,1,.07.5l-1.22,1.55a.36.36,0,0,1-.51.07,9.06,9.06,0,0,0-4.64-1.4c-2.16,0-3.28,1-3.28,2.37s.83,2.09,3.39,2.34l1.8.18c3.49.33,5.18,2.09,5.18,4.86,0,3.38-2.45,5.65-6.95,5.65A10.72,10.72,0,0,1,361.67,61Z"/><path class="cls-1" d="M398.49,63.2a.35.35,0,0,1-.36-.36V61.18h0c-.83,1.37-2.31,2.41-4.9,2.41-3,0-5.07-1.4-5.94-4.14a14.28,14.28,0,0,1-.61-4.89,14.2,14.2,0,0,1,.61-4.86c.87-2.74,2.95-4.14,5.94-4.14,2.59,0,4.07,1,4.9,2.37h0V39.08a.34.34,0,0,1,.36-.36h2.31a.34.34,0,0,1,.36.36V62.84a.35.35,0,0,1-.36.36Zm-.75-5a11.35,11.35,0,0,0,.39-3.6,11.47,11.47,0,0,0-.39-3.6,4.08,4.08,0,0,0-7.6,0,12.2,12.2,0,0,0-.39,3.6,11.94,11.94,0,0,0,.39,3.6,4.07,4.07,0,0,0,7.6,0Z"/><path class="cls-1" d="M405.87,58.91a13.48,13.48,0,0,1-.57-4.35,13.43,13.43,0,0,1,.54-4.36,7.25,7.25,0,0,1,13.53,0,15.08,15.08,0,0,1,.54,4.93.35.35,0,0,1-.39.36H408.61a.2.2,0,0,0-.22.22,6.47,6.47,0,0,0,.29,2.09,4.26,4.26,0,0,0,4.36,3,5.6,5.6,0,0,0,4.42-1.9c.18-.18.36-.22.54-.07l1.48,1.33a.32.32,0,0,1,0,.5,8.39,8.39,0,0,1-6.74,3C409.29,63.59,406.81,61.9,405.87,58.91Zm10.73-5.83a.19.19,0,0,0,.22-.21,6.05,6.05,0,0,0-.26-1.95,4.25,4.25,0,0,0-7.92,0,6.08,6.08,0,0,0-.25,1.95c0,.14.07.21.22.21Z"/><path class="cls-1" d="M431.47,50.2c1-3,3.49-4.64,6.8-4.64a6.89,6.89,0,0,1,5.9,2.91.34.34,0,0,1-.1.51l-1.59,1.29a.31.31,0,0,1-.5,0,4.24,4.24,0,0,0-3.71-1.87,3.74,3.74,0,0,0-3.85,2.7,11.4,11.4,0,0,0-.4,3.49,11.41,11.41,0,0,0,.4,3.52,3.74,3.74,0,0,0,3.85,2.7A4.24,4.24,0,0,0,442,58.91a.31.31,0,0,1,.5,0l1.59,1.29a.34.34,0,0,1,.1.51,6.89,6.89,0,0,1-5.9,2.91c-3.31,0-5.83-1.65-6.8-4.64a14.68,14.68,0,0,1-.54-4.39A14.65,14.65,0,0,1,431.47,50.2Z"/><path class="cls-1" d="M447.34,59a13.14,13.14,0,0,1-.57-4.39,13.07,13.07,0,0,1,.57-4.36c.94-3,3.46-4.64,6.81-4.64S460,47.25,461,50.2a12.78,12.78,0,0,1,.58,4.36A12.85,12.85,0,0,1,461,59a7.31,7.31,0,0,1-13.61,0Zm10.7-.87a11.52,11.52,0,0,0,.39-3.52,11.26,11.26,0,0,0-.39-3.49,4.15,4.15,0,0,0-7.78,0,10.91,10.91,0,0,0-.4,3.49,11.16,11.16,0,0,0,.4,3.52,4.15,4.15,0,0,0,7.78,0Z"/><path class="cls-1" d="M476.86,63.2a.35.35,0,0,1-.36-.36V52.76c0-2.77-1.26-4.39-3.85-4.39a3.87,3.87,0,0,0-4,4.21V62.84a.34.34,0,0,1-.36.36H466a.34.34,0,0,1-.36-.36V46.31A.34.34,0,0,1,466,46h2.3a.34.34,0,0,1,.36.36V47.9h0a5.44,5.44,0,0,1,4.82-2.34c3.74,0,6,2.55,6,6.48v10.8a.35.35,0,0,1-.36.36Z"/><path class="cls-1" d="M489.54,63.38c-3.35,0-4.65-1.52-4.65-4.9V48.62c0-.15-.07-.22-.21-.22h-1.44a.34.34,0,0,1-.36-.36V46.31a.34.34,0,0,1,.36-.36h1.44a.19.19,0,0,0,.21-.21V40.88a.34.34,0,0,1,.36-.36h2.3a.34.34,0,0,1,.37.36v4.86a.19.19,0,0,0,.21.21h2.74a.35.35,0,0,1,.36.36V48a.34.34,0,0,1-.36.36h-2.74c-.14,0-.21.07-.21.22v9.75c0,1.73.64,2.2,2.19,2.2h.76a.34.34,0,0,1,.36.36V63a.35.35,0,0,1-.36.36Z"/><path class="cls-1" d="M494.72,58.91a13.43,13.43,0,0,1-.58-4.35,13.43,13.43,0,0,1,.54-4.36,7.26,7.26,0,0,1,13.54,0,15.08,15.08,0,0,1,.54,4.93.35.35,0,0,1-.4.36h-10.9a.2.2,0,0,0-.22.22,6.47,6.47,0,0,0,.29,2.09,4.25,4.25,0,0,0,4.35,3,5.64,5.64,0,0,0,4.43-1.9c.18-.18.36-.22.54-.07l1.48,1.33a.31.31,0,0,1,0,.5,8.38,8.38,0,0,1-6.73,3C498.14,63.59,495.66,61.9,494.72,58.91Zm10.73-5.83a.19.19,0,0,0,.21-.21,6.08,6.08,0,0,0-.25-1.95,4.25,4.25,0,0,0-7.92,0,6.08,6.08,0,0,0-.25,1.95c0,.14.07.21.22.21Z"/><path class="cls-1" d="M524.09,63.2a.35.35,0,0,1-.36-.36V52.76c0-2.77-1.26-4.39-3.85-4.39a3.87,3.87,0,0,0-4,4.21V62.84a.34.34,0,0,1-.36.36h-2.3a.34.34,0,0,1-.36-.36V46.31a.34.34,0,0,1,.36-.36h2.3a.34.34,0,0,1,.36.36V47.9h0a5.45,5.45,0,0,1,4.82-2.34c3.75,0,6,2.55,6,6.48v10.8a.35.35,0,0,1-.36.36Z"/><path class="cls-1" d="M531.26,50.2c1-3,3.49-4.64,6.8-4.64a6.89,6.89,0,0,1,5.9,2.91.34.34,0,0,1-.1.51l-1.59,1.29a.31.31,0,0,1-.5,0,4.24,4.24,0,0,0-3.71-1.87,3.74,3.74,0,0,0-3.85,2.7,11.4,11.4,0,0,0-.4,3.49,11.41,11.41,0,0,0,.4,3.52,3.74,3.74,0,0,0,3.85,2.7,4.24,4.24,0,0,0,3.71-1.87.31.31,0,0,1,.5,0l1.59,1.29a.34.34,0,0,1,.1.51,6.89,6.89,0,0,1-5.9,2.91c-3.31,0-5.83-1.65-6.8-4.64a15,15,0,0,1-.54-4.39A15,15,0,0,1,531.26,50.2Z"/><path class="cls-1" d="M548.32,42.07a.35.35,0,0,1-.36-.36V39.08a.34.34,0,0,1,.36-.36h2.45a.34.34,0,0,1,.36.36v2.63a.34.34,0,0,1-.36.36Zm.07,21.13a.35.35,0,0,1-.36-.36V46.31a.35.35,0,0,1,.36-.36h2.31a.35.35,0,0,1,.36.36V62.84a.35.35,0,0,1-.36.36Z"/><path class="cls-1" d="M555.77,59a13.14,13.14,0,0,1-.57-4.39,13.07,13.07,0,0,1,.57-4.36c.94-3,3.46-4.64,6.81-4.64s5.86,1.69,6.8,4.64a12.78,12.78,0,0,1,.58,4.36,12.85,12.85,0,0,1-.58,4.39,7.31,7.31,0,0,1-13.61,0Zm10.69-.87a11.16,11.16,0,0,0,.4-3.52,10.91,10.91,0,0,0-.4-3.49,4.15,4.15,0,0,0-7.77,0,10.91,10.91,0,0,0-.4,3.49,11.16,11.16,0,0,0,.4,3.52,4.15,4.15,0,0,0,7.77,0Zm-5.18-14.93c-.22,0-.32-.15-.22-.36l2.74-4.43a.65.65,0,0,1,.61-.36h2.38a.21.21,0,0,1,.18.36l-3.31,4.43a.71.71,0,0,1-.69.36Z"/><path class="cls-1" d="M585.29,63.2a.35.35,0,0,1-.36-.36V52.76c0-2.77-1.26-4.39-3.85-4.39a3.87,3.87,0,0,0-4,4.21V62.84a.34.34,0,0,1-.36.36h-2.3a.34.34,0,0,1-.36-.36V46.31a.34.34,0,0,1,.36-.36h2.3a.34.34,0,0,1,.36.36V47.9h0A5.44,5.44,0,0,1,582,45.56c3.74,0,6,2.55,6,6.48v10.8a.35.35,0,0,1-.36.36Z"/><path class="cls-1" d="M17.22,101.2a.35.35,0,0,1-.36-.36V99.18h0c-.83,1.37-2.31,2.41-4.9,2.41A5.71,5.71,0,0,1,6,97.45a14.53,14.53,0,0,1-.61-4.89A14.45,14.45,0,0,1,6,87.7a5.71,5.71,0,0,1,5.94-4.14c2.59,0,4.07,1,4.9,2.37h0V77.08a.34.34,0,0,1,.36-.36h2.31a.34.34,0,0,1,.36.36v23.76a.35.35,0,0,1-.36.36Zm-.75-5a11.06,11.06,0,0,0,.39-3.6,11.18,11.18,0,0,0-.39-3.6,3.67,3.67,0,0,0-3.82-2.59A3.67,3.67,0,0,0,8.87,89a12.2,12.2,0,0,0-.39,3.6,11.94,11.94,0,0,0,.39,3.6,3.69,3.69,0,0,0,3.78,2.62A3.7,3.7,0,0,0,16.47,96.16Z"/><path class="cls-1" d="M23.89,96.91a13.43,13.43,0,0,1-.58-4.35,13.43,13.43,0,0,1,.54-4.36,6.66,6.66,0,0,1,6.77-4.64,6.67,6.67,0,0,1,6.76,4.64,15.08,15.08,0,0,1,.54,4.93.35.35,0,0,1-.39.36H26.62a.19.19,0,0,0-.21.22,6.5,6.5,0,0,0,.28,2.09,4.26,4.26,0,0,0,4.36,3,5.64,5.64,0,0,0,4.43-1.9c.18-.18.36-.22.54-.07l1.47,1.33a.32.32,0,0,1,0,.5,8.38,8.38,0,0,1-6.73,3C27.3,101.59,24.82,99.9,23.89,96.91Zm10.72-5.83c.15,0,.22-.07.22-.21a6.08,6.08,0,0,0-.25-2,3.9,3.9,0,0,0-4-2.7,3.88,3.88,0,0,0-4,2.7,6.08,6.08,0,0,0-.25,2,.19.19,0,0,0,.21.21Z"/><path class="cls-1" d="M52.68,101.38c-3,0-4.21-1.44-4.21-4.54V77.08a.34.34,0,0,1,.36-.36h2.31a.34.34,0,0,1,.36.36V96.66c0,1.44.54,1.91,1.72,1.91h.69a.34.34,0,0,1,.36.36V101a.35.35,0,0,1-.36.36Z"/><path class="cls-1" d="M67.52,101.2a.34.34,0,0,1-.36-.36V99.32h0c-.79,1.3-2.48,2.27-5.11,2.27-3.28,0-5.8-1.69-5.8-5.18s2.52-5.33,6.73-5.33h3.93a.19.19,0,0,0,.21-.21V89.61c0-2.38-.93-3.39-4.14-3.39a6.7,6.7,0,0,0-4.17,1.23.33.33,0,0,1-.51,0l-1-1.66a.38.38,0,0,1,.07-.5,9.58,9.58,0,0,1,5.87-1.69c4.9,0,6.77,1.62,6.77,5.87v11.41a.35.35,0,0,1-.36.36Zm-.44-5.58V93.71a.19.19,0,0,0-.21-.22H63.41c-3,0-4.28.87-4.28,2.81,0,1.76,1.29,2.7,3.6,2.7C65.43,99,67.08,97.74,67.08,95.62Z"/><path class="cls-1" d="M73.13,99a.35.35,0,0,1,0-.5l1.48-1.59a.35.35,0,0,1,.5,0,8.37,8.37,0,0,0,5.33,2c2.52,0,3.78-1.08,3.78-2.62,0-1.37-.65-2.13-3.35-2.42L79,93.67c-3.39-.36-5.15-2-5.15-4.86,0-3.27,2.34-5.25,6.4-5.25a10.35,10.35,0,0,1,6.13,1.91.36.36,0,0,1,.07.5l-1.23,1.55a.35.35,0,0,1-.5.07,9.09,9.09,0,0,0-4.64-1.4c-2.16,0-3.28,1-3.28,2.37s.83,2.09,3.38,2.34l1.8.18c3.49.33,5.19,2.09,5.19,4.86,0,3.38-2.45,5.65-6.95,5.65A10.75,10.75,0,0,1,73.13,99Z"/><path class="cls-1" d="M97.25,96.91a13.48,13.48,0,0,1-.57-4.35,13.43,13.43,0,0,1,.54-4.36,7.25,7.25,0,0,1,13.53,0,15.08,15.08,0,0,1,.54,4.93c0,.22-.14.36-.4.36H100a.2.2,0,0,0-.22.22,6.47,6.47,0,0,0,.29,2.09,4.25,4.25,0,0,0,4.35,3,5.61,5.61,0,0,0,4.43-1.9c.18-.18.36-.22.54-.07l1.48,1.33a.31.31,0,0,1,0,.5,8.35,8.35,0,0,1-6.73,3C100.67,101.59,98.19,99.9,97.25,96.91ZM108,91.08a.19.19,0,0,0,.21-.21,6.08,6.08,0,0,0-.25-2,4.25,4.25,0,0,0-7.92,0,6.08,6.08,0,0,0-.25,2c0,.14.07.21.22.21Z"/><path class="cls-1" d="M113.52,99a.35.35,0,0,1,0-.5L115,96.91a.35.35,0,0,1,.5,0,8.37,8.37,0,0,0,5.33,2c2.52,0,3.78-1.08,3.78-2.62,0-1.37-.65-2.13-3.35-2.42l-1.83-.18c-3.39-.36-5.15-2-5.15-4.86,0-3.27,2.34-5.25,6.41-5.25a10.32,10.32,0,0,1,6.12,1.91.34.34,0,0,1,.07.5l-1.23,1.55a.35.35,0,0,1-.5.07,9.09,9.09,0,0,0-4.64-1.4c-2.16,0-3.28,1-3.28,2.37s.83,2.09,3.39,2.34l1.79.18c3.5.33,5.19,2.09,5.19,4.86,0,3.38-2.45,5.65-6.95,5.65A10.75,10.75,0,0,1,113.52,99Z"/><path class="cls-1" d="M135.91,101.38c-3.34,0-4.64-1.52-4.64-4.9V86.62a.19.19,0,0,0-.22-.22h-1.43a.34.34,0,0,1-.36-.36V84.31a.34.34,0,0,1,.36-.36h1.43c.15,0,.22-.07.22-.21V78.88a.34.34,0,0,1,.36-.36h2.3a.34.34,0,0,1,.36.36v4.86a.19.19,0,0,0,.22.21h2.74a.35.35,0,0,1,.36.36V86a.34.34,0,0,1-.36.36h-2.74a.2.2,0,0,0-.22.22v9.75c0,1.73.65,2.2,2.2,2.2h.76a.34.34,0,0,1,.36.36V101a.35.35,0,0,1-.36.36Z"/><path class="cls-1" d="M141.21,101.2a.34.34,0,0,1-.36-.36V84.31a.34.34,0,0,1,.36-.36h2.3a.34.34,0,0,1,.36.36v1.77h0a4.78,4.78,0,0,1,4.57-2.52A5.32,5.32,0,0,1,152,84.85c.18.18.21.33.07.51l-1.33,1.76a.33.33,0,0,1-.51.07,4.86,4.86,0,0,0-2.66-.82c-2.63,0-3.71,2-3.71,5v9.43a.34.34,0,0,1-.36.36Z"/><path class="cls-1" d="M165,101.2a.35.35,0,0,1-.36-.36V99.22h0a5.26,5.26,0,0,1-4.72,2.37c-3.78,0-6-2.59-6-6.51V84.31a.35.35,0,0,1,.36-.36h2.31a.35.35,0,0,1,.36.36v10c0,2.81,1.26,4.42,3.81,4.42,2.34,0,3.89-1.65,3.89-4.24V84.31A.35.35,0,0,1,165,84h2.3a.34.34,0,0,1,.36.36v16.53a.34.34,0,0,1-.36.36Z"/><path class="cls-1" d="M171.63,88.2c1-3,3.49-4.64,6.8-4.64a6.9,6.9,0,0,1,5.9,2.91c.11.18.11.33-.11.51l-1.58,1.29a.31.31,0,0,1-.5,0,4.24,4.24,0,0,0-3.71-1.87,3.74,3.74,0,0,0-3.85,2.7,11.4,11.4,0,0,0-.4,3.49,11.41,11.41,0,0,0,.4,3.52,3.74,3.74,0,0,0,3.85,2.7,4.24,4.24,0,0,0,3.71-1.87.31.31,0,0,1,.5,0l1.58,1.29c.22.18.22.33.11.51a6.9,6.9,0,0,1-5.9,2.91c-3.31,0-5.83-1.65-6.8-4.64a18,18,0,0,1,0-8.75Z"/><path class="cls-1" d="M192.68,101.38c-3.34,0-4.64-1.52-4.64-4.9V86.62c0-.15-.07-.22-.21-.22h-1.44A.34.34,0,0,1,186,86V84.31a.34.34,0,0,1,.36-.36h1.44a.19.19,0,0,0,.21-.21V78.88a.34.34,0,0,1,.36-.36h2.31a.33.33,0,0,1,.35.36v4.86a.19.19,0,0,0,.22.21H194a.35.35,0,0,1,.36.36V86a.34.34,0,0,1-.36.36h-2.74a.2.2,0,0,0-.22.22v9.75c0,1.73.65,2.2,2.2,2.2H194a.34.34,0,0,1,.36.36V101a.35.35,0,0,1-.36.36Z"/><path class="cls-1" d="M208.45,101.2a.35.35,0,0,1-.36-.36V99.22h0a5.26,5.26,0,0,1-4.72,2.37c-3.78,0-6-2.59-6-6.51V84.31a.34.34,0,0,1,.35-.36H200a.34.34,0,0,1,.36.36v10c0,2.81,1.26,4.42,3.81,4.42,2.34,0,3.89-1.65,3.89-4.24V84.31a.35.35,0,0,1,.36-.36h2.31a.35.35,0,0,1,.36.36v16.53a.35.35,0,0,1-.36.36Z"/><path class="cls-1" d="M215.94,101.2a.34.34,0,0,1-.36-.36V84.31a.34.34,0,0,1,.36-.36h2.3a.34.34,0,0,1,.36.36v1.77h0a4.8,4.8,0,0,1,4.57-2.52,5.3,5.3,0,0,1,3.53,1.29c.18.18.22.33.07.51l-1.33,1.76a.32.32,0,0,1-.5.07,4.92,4.92,0,0,0-2.67-.82c-2.63,0-3.71,2-3.71,5v9.43a.34.34,0,0,1-.36.36Z"/><path class="cls-1" d="M238.48,101.2a.34.34,0,0,1-.36-.36V99.32h0c-.79,1.3-2.48,2.27-5.11,2.27-3.28,0-5.8-1.69-5.8-5.18s2.52-5.33,6.73-5.33h3.93a.19.19,0,0,0,.21-.21V89.61c0-2.38-.93-3.39-4.14-3.39a6.7,6.7,0,0,0-4.17,1.23.33.33,0,0,1-.51,0l-1-1.66a.38.38,0,0,1,.07-.5,9.58,9.58,0,0,1,5.87-1.69c4.9,0,6.77,1.62,6.77,5.87v11.41a.35.35,0,0,1-.36.36ZM238,95.62V93.71a.19.19,0,0,0-.21-.22h-3.46c-3,0-4.28.87-4.28,2.81,0,1.76,1.29,2.7,3.6,2.7C236.39,99,238,97.74,238,95.62Z"/><path class="cls-1" d="M244.09,99a.35.35,0,0,1,0-.5l1.48-1.59a.35.35,0,0,1,.5,0,8.37,8.37,0,0,0,5.33,2c2.52,0,3.78-1.08,3.78-2.62,0-1.37-.65-2.13-3.35-2.42L250,93.67c-3.39-.36-5.15-2-5.15-4.86,0-3.27,2.34-5.25,6.41-5.25a10.32,10.32,0,0,1,6.12,1.91.36.36,0,0,1,.07.5l-1.23,1.55a.35.35,0,0,1-.5.07,9.09,9.09,0,0,0-4.64-1.4c-2.16,0-3.28,1-3.28,2.37s.83,2.09,3.38,2.34l1.8.18c3.49.33,5.19,2.09,5.19,4.86,0,3.38-2.45,5.65-7,5.65A10.75,10.75,0,0,1,244.09,99Z"/><path class="cls-1" d="M261.41,97.38h2.52a.34.34,0,0,1,.36.36v3.35a1.14,1.14,0,0,1-.22.79l-2.23,3a.56.56,0,0,1-.47.25.32.32,0,0,1-.32-.32v-7A.34.34,0,0,1,261.41,97.38Z"/><path class="cls-1" d="M285.6,101.2a.34.34,0,0,1-.36-.36V99.22h0a5.25,5.25,0,0,1-4.71,2.37c-3.78,0-6-2.59-6-6.51V84.31a.35.35,0,0,1,.36-.36h2.31a.35.35,0,0,1,.36.36v10c0,2.81,1.25,4.42,3.81,4.42,2.34,0,3.89-1.65,3.89-4.24V84.31a.34.34,0,0,1,.36-.36h2.3a.34.34,0,0,1,.36.36v16.53a.34.34,0,0,1-.36.36Z"/><path class="cls-1" d="M291.54,99a.35.35,0,0,1,0-.5L293,96.91a.35.35,0,0,1,.5,0,8.34,8.34,0,0,0,5.33,2c2.52,0,3.78-1.08,3.78-2.62,0-1.37-.65-2.13-3.35-2.42l-1.84-.18c-3.38-.36-5.15-2-5.15-4.86,0-3.27,2.34-5.25,6.41-5.25a10.32,10.32,0,0,1,6.12,1.91.34.34,0,0,1,.07.5l-1.22,1.55a.35.35,0,0,1-.5.07,9.09,9.09,0,0,0-4.65-1.4c-2.16,0-3.27,1-3.27,2.37s.83,2.09,3.38,2.34l1.8.18c3.49.33,5.18,2.09,5.18,4.86,0,3.38-2.44,5.65-6.94,5.65A10.73,10.73,0,0,1,291.54,99Z"/><path class="cls-1" d="M308.46,96.91a13.43,13.43,0,0,1-.58-4.35,13.43,13.43,0,0,1,.54-4.36,7.26,7.26,0,0,1,13.54,0,15.08,15.08,0,0,1,.54,4.93.35.35,0,0,1-.4.36H311.19a.19.19,0,0,0-.21.22,6.47,6.47,0,0,0,.29,2.09,4.25,4.25,0,0,0,4.35,3,5.64,5.64,0,0,0,4.43-1.9c.18-.18.36-.22.54-.07l1.48,1.33a.31.31,0,0,1,0,.5,8.38,8.38,0,0,1-6.73,3C311.88,101.59,309.39,99.9,308.46,96.91Zm10.73-5.83a.19.19,0,0,0,.21-.21,6.08,6.08,0,0,0-.25-2,4.25,4.25,0,0,0-7.92,0,6.08,6.08,0,0,0-.25,2,.19.19,0,0,0,.21.21Z"/><path class="cls-1" d="M332.65,96.91a13.43,13.43,0,0,1-.58-4.35,13.43,13.43,0,0,1,.54-4.36,7.26,7.26,0,0,1,13.54,0,15.08,15.08,0,0,1,.54,4.93.35.35,0,0,1-.4.36h-10.9a.2.2,0,0,0-.22.22,6.47,6.47,0,0,0,.29,2.09,4.25,4.25,0,0,0,4.35,3,5.63,5.63,0,0,0,4.43-1.9c.18-.18.36-.22.54-.07l1.48,1.33a.31.31,0,0,1,0,.5,8.38,8.38,0,0,1-6.73,3C336.07,101.59,333.59,99.9,332.65,96.91Zm10.73-5.83a.19.19,0,0,0,.21-.21,6.08,6.08,0,0,0-.25-2,4.25,4.25,0,0,0-7.92,0,6.08,6.08,0,0,0-.25,2c0,.14.07.21.22.21Z"/><path class="cls-1" d="M361.3,101.2a.34.34,0,0,1-.35-.36V90.76c0-2.77-1.27-4.39-3.86-4.39a3.87,3.87,0,0,0-4,4.21v10.26a.34.34,0,0,1-.36.36h-2.3a.34.34,0,0,1-.36-.36V84.31a.34.34,0,0,1,.36-.36h2.3a.34.34,0,0,1,.36.36V85.9h0A5.45,5.45,0,0,1,358,83.56c3.75,0,6,2.55,6,6.48v10.8a.35.35,0,0,1-.36.36Z"/><path class="cls-1" d="M380.46,101.38c-3.35,0-4.65-1.52-4.65-4.9V86.62c0-.15-.07-.22-.21-.22h-1.44a.34.34,0,0,1-.36-.36V84.31a.34.34,0,0,1,.36-.36h1.44a.19.19,0,0,0,.21-.21V78.88a.34.34,0,0,1,.36-.36h2.31a.34.34,0,0,1,.36.36v4.86a.19.19,0,0,0,.21.21h2.74a.35.35,0,0,1,.36.36V86a.34.34,0,0,1-.36.36h-2.74c-.14,0-.21.07-.21.22v9.75c0,1.73.64,2.2,2.19,2.2h.76a.34.34,0,0,1,.36.36V101a.35.35,0,0,1-.36.36Z"/><path class="cls-1" d="M384.92,97a13.14,13.14,0,0,1-.57-4.39,13.07,13.07,0,0,1,.57-4.36c.94-3,3.46-4.64,6.8-4.64s5.87,1.69,6.81,4.64a13.07,13.07,0,0,1,.57,4.36,13.14,13.14,0,0,1-.57,4.39,7.31,7.31,0,0,1-13.61,0Zm10.69-.87a11.16,11.16,0,0,0,.4-3.52,10.91,10.91,0,0,0-.4-3.49,4.15,4.15,0,0,0-7.77,0,10.91,10.91,0,0,0-.4,3.49,11.16,11.16,0,0,0,.4,3.52,4.15,4.15,0,0,0,7.77,0Z"/><path class="cls-1" d="M413.32,101.2a.35.35,0,0,1-.36-.36V99.18h0c-.83,1.37-2.31,2.41-4.9,2.41-3,0-5.07-1.4-5.94-4.14a14.53,14.53,0,0,1-.61-4.89,14.45,14.45,0,0,1,.61-4.86c.87-2.74,3-4.14,5.94-4.14,2.59,0,4.07,1,4.9,2.37h0V77.08a.34.34,0,0,1,.36-.36h2.31a.34.34,0,0,1,.36.36v23.76a.35.35,0,0,1-.36.36Zm-.75-5a11.06,11.06,0,0,0,.39-3.6,11.18,11.18,0,0,0-.39-3.6,4.08,4.08,0,0,0-7.6,0,12.2,12.2,0,0,0-.39,3.6,11.94,11.94,0,0,0,.39,3.6,4.07,4.07,0,0,0,7.6,0Z"/><path class="cls-1" d="M420,97a13.14,13.14,0,0,1-.57-4.39A13.07,13.07,0,0,1,420,88.2c.94-3,3.46-4.64,6.81-4.64s5.87,1.69,6.8,4.64a12.78,12.78,0,0,1,.58,4.36,12.85,12.85,0,0,1-.58,4.39A7.31,7.31,0,0,1,420,97Zm10.7-.87a11.52,11.52,0,0,0,.39-3.52,11.26,11.26,0,0,0-.39-3.49,4.15,4.15,0,0,0-7.78,0,10.91,10.91,0,0,0-.4,3.49,11.16,11.16,0,0,0,.4,3.52,4.15,4.15,0,0,0,7.78,0Z"/><path class="cls-1" d="M467.54,101.2a.34.34,0,0,1-.36-.36V90.76c0-2.77-1.26-4.39-3.85-4.39a3.88,3.88,0,0,0-4,4.21v10.26a.35.35,0,0,1-.36.36H456.7a.35.35,0,0,1-.36-.36V90.76c0-2.77-1.26-4.39-3.85-4.39a3.87,3.87,0,0,0-4,4.21v10.26a.34.34,0,0,1-.36.36h-2.3a.34.34,0,0,1-.36-.36V84.31a.34.34,0,0,1,.36-.36h2.3a.34.34,0,0,1,.36.36V85.9h0a6.09,6.09,0,0,1,9.86.36h0a6.39,6.39,0,0,1,5.57-2.7c4,0,6.16,2.55,6.16,6.48v10.8a.34.34,0,0,1-.36.36Z"/><path class="cls-1" d="M474.74,97a12.85,12.85,0,0,1-.58-4.39,12.78,12.78,0,0,1,.58-4.36c.94-3,3.46-4.64,6.8-4.64s5.87,1.69,6.81,4.64a13.07,13.07,0,0,1,.57,4.36,13.14,13.14,0,0,1-.57,4.39,7.31,7.31,0,0,1-13.61,0Zm10.69-.87a11.16,11.16,0,0,0,.4-3.52,10.91,10.91,0,0,0-.4-3.49,4.15,4.15,0,0,0-7.77,0,10.91,10.91,0,0,0-.4,3.49,11.16,11.16,0,0,0,.4,3.52,4.15,4.15,0,0,0,7.77,0Z"/><path class="cls-1" d="M515.09,101.2a.35.35,0,0,1-.36-.36V90.76c0-2.77-1.26-4.39-3.85-4.39a3.89,3.89,0,0,0-4,4.21v10.26a.34.34,0,0,1-.36.36h-2.3a.34.34,0,0,1-.36-.36V90.76c0-2.77-1.26-4.39-3.85-4.39a3.87,3.87,0,0,0-4,4.21v10.26a.35.35,0,0,1-.36.36h-2.31a.35.35,0,0,1-.36-.36V84.31a.35.35,0,0,1,.36-.36h2.31a.35.35,0,0,1,.36.36V85.9h0a6.1,6.1,0,0,1,9.87.36h0a6.41,6.41,0,0,1,5.58-2.7c4,0,6.16,2.55,6.16,6.48v10.8a.35.35,0,0,1-.36.36Z"/><path class="cls-1" d="M522.29,96.91a13.48,13.48,0,0,1-.57-4.35,13.43,13.43,0,0,1,.54-4.36,7.25,7.25,0,0,1,13.53,0,15.08,15.08,0,0,1,.54,4.93.35.35,0,0,1-.39.36H525a.2.2,0,0,0-.22.22,6.47,6.47,0,0,0,.29,2.09,4.26,4.26,0,0,0,4.36,3,5.6,5.6,0,0,0,4.42-1.9c.18-.18.37-.22.54-.07l1.48,1.33a.32.32,0,0,1,0,.5,8.38,8.38,0,0,1-6.73,3C525.71,101.59,523.23,99.9,522.29,96.91ZM533,91.08c.15,0,.22-.07.22-.21a6.08,6.08,0,0,0-.25-2,4.25,4.25,0,0,0-7.92,0,6.05,6.05,0,0,0-.26,2,.19.19,0,0,0,.22.21Z"/><path class="cls-1" d="M551.67,101.2a.34.34,0,0,1-.36-.36V90.76c0-2.77-1.26-4.39-3.85-4.39a3.87,3.87,0,0,0-4,4.21v10.26a.35.35,0,0,1-.36.36h-2.31a.35.35,0,0,1-.36-.36V84.31a.35.35,0,0,1,.36-.36h2.31a.35.35,0,0,1,.36.36V85.9h0a5.47,5.47,0,0,1,4.83-2.34c3.74,0,6,2.55,6,6.48v10.8a.34.34,0,0,1-.36.36Z"/><path class="cls-1" d="M564.34,101.38c-3.35,0-4.64-1.52-4.64-4.9V86.62a.19.19,0,0,0-.22-.22H558a.34.34,0,0,1-.36-.36V84.31A.35.35,0,0,1,558,84h1.44c.15,0,.22-.07.22-.21V78.88a.34.34,0,0,1,.36-.36h2.3a.34.34,0,0,1,.36.36v4.86c0,.14.07.21.22.21h2.73a.34.34,0,0,1,.36.36V86a.34.34,0,0,1-.36.36h-2.73a.19.19,0,0,0-.22.22v9.75c0,1.73.65,2.2,2.2,2.2h.75a.34.34,0,0,1,.36.36V101a.34.34,0,0,1-.36.36Z"/><path class="cls-1" d="M569.53,97a12.85,12.85,0,0,1-.58-4.39,12.78,12.78,0,0,1,.58-4.36c.93-3,3.45-4.64,6.8-4.64s5.87,1.69,6.8,4.64a12.78,12.78,0,0,1,.58,4.36,12.85,12.85,0,0,1-.58,4.39,7.3,7.3,0,0,1-13.6,0Zm10.69-.87a11.52,11.52,0,0,0,.39-3.52,11.26,11.26,0,0,0-.39-3.49,4.15,4.15,0,0,0-7.78,0,10.91,10.91,0,0,0-.4,3.49,11.16,11.16,0,0,0,.4,3.52,4.15,4.15,0,0,0,7.78,0Z"/><path class="cls-1" d="M41.31,139.38c-3,0-4.21-1.44-4.21-4.54V115.08a.34.34,0,0,1,.36-.36h2.3a.34.34,0,0,1,.36.36v19.58c0,1.44.54,1.91,1.73,1.91h.68a.34.34,0,0,1,.36.36V139a.34.34,0,0,1-.36.36Z"/><path class="cls-1" d="M46,135a17.07,17.07,0,0,1,0-8.75c.94-3,3.46-4.64,6.81-4.64s5.86,1.69,6.8,4.64a17.07,17.07,0,0,1,0,8.75,6.71,6.71,0,0,1-6.8,4.64A6.72,6.72,0,0,1,46,135Zm10.69-.87a11.16,11.16,0,0,0,.4-3.52,10.91,10.91,0,0,0-.4-3.49,4.15,4.15,0,0,0-7.77,0,10.91,10.91,0,0,0-.4,3.49,11.16,11.16,0,0,0,.4,3.52,4.15,4.15,0,0,0,7.77,0Z"/><path class="cls-1" d="M63.09,137a.33.33,0,0,1,0-.5l1.47-1.59a.36.36,0,0,1,.51,0,8.34,8.34,0,0,0,5.33,2c2.52,0,3.77-1.08,3.77-2.62,0-1.37-.64-2.13-3.34-2.42L69,131.67c-3.38-.36-5.15-2-5.15-4.86,0-3.27,2.34-5.25,6.41-5.25a10.32,10.32,0,0,1,6.12,1.91.34.34,0,0,1,.07.5l-1.22,1.55a.36.36,0,0,1-.51.07,9.06,9.06,0,0,0-4.64-1.4c-2.16,0-3.27,1-3.27,2.37s.82,2.09,3.38,2.34l1.8.18c3.49.33,5.18,2.09,5.18,4.86,0,3.38-2.45,5.65-7,5.65A10.72,10.72,0,0,1,63.09,137Z"/><path class="cls-1" d="M89.19,115.08a.34.34,0,0,1,.36-.36h14.72a.34.34,0,0,1,.36.36v2.27a.34.34,0,0,1-.36.36H92.61c-.15,0-.22.07-.22.21v7.2a.19.19,0,0,0,.22.22h9.9a.34.34,0,0,1,.36.36V128a.35.35,0,0,1-.36.36h-9.9c-.15,0-.22.07-.22.21V136a.19.19,0,0,0,.22.22h11.66a.34.34,0,0,1,.36.36v2.27a.34.34,0,0,1-.36.36H89.55a.34.34,0,0,1-.36-.36Z"/><path class="cls-1" d="M112.8,139.38c-3,0-4.21-1.44-4.21-4.54V115.08a.34.34,0,0,1,.36-.36h2.3a.34.34,0,0,1,.36.36v19.58c0,1.44.54,1.91,1.73,1.91H114a.34.34,0,0,1,.36.36V139a.35.35,0,0,1-.36.36Z"/><path class="cls-1" d="M117.45,134.91a17.21,17.21,0,0,1,0-8.71,7.26,7.26,0,0,1,13.54,0,15.45,15.45,0,0,1,.53,4.93.35.35,0,0,1-.39.36H120.18a.19.19,0,0,0-.21.22,6.5,6.5,0,0,0,.28,2.09,4.27,4.27,0,0,0,4.36,3,5.64,5.64,0,0,0,4.43-1.9c.18-.18.36-.22.54-.07l1.47,1.33a.32.32,0,0,1,0,.5,8.38,8.38,0,0,1-6.73,3C120.87,139.59,118.38,137.9,117.45,134.91Zm10.72-5.83c.15,0,.22-.07.22-.21a6.08,6.08,0,0,0-.25-2,4.25,4.25,0,0,0-7.92,0,6.08,6.08,0,0,0-.25,2,.19.19,0,0,0,.21.21Z"/><path class="cls-1" d="M157.66,139.2a.34.34,0,0,1-.36-.36V128.76c0-2.77-1.26-4.39-3.86-4.39a3.89,3.89,0,0,0-4,4.21v10.26a.34.34,0,0,1-.35.36h-2.31a.35.35,0,0,1-.36-.36V128.76c0-2.77-1.26-4.39-3.85-4.39a3.87,3.87,0,0,0-4,4.21v10.26a.34.34,0,0,1-.36.36H136a.34.34,0,0,1-.36-.36V122.31A.34.34,0,0,1,136,122h2.3a.34.34,0,0,1,.36.36v1.59h0a6.09,6.09,0,0,1,9.86.36h0a6.42,6.42,0,0,1,5.58-2.7c4,0,6.16,2.55,6.16,6.48v10.8a.34.34,0,0,1-.36.36Z"/><path class="cls-1" d="M164.86,134.91a17.21,17.21,0,0,1,0-8.71,7.26,7.26,0,0,1,13.54,0,15.08,15.08,0,0,1,.54,4.93.35.35,0,0,1-.4.36H167.59a.19.19,0,0,0-.21.22,6.47,6.47,0,0,0,.29,2.09,4.25,4.25,0,0,0,4.35,3,5.64,5.64,0,0,0,4.43-1.9c.18-.18.36-.22.54-.07l1.47,1.33a.32.32,0,0,1,0,.5,8.38,8.38,0,0,1-6.73,3C168.28,139.59,165.79,137.9,164.86,134.91Zm10.72-5.83c.15,0,.22-.07.22-.21a6.08,6.08,0,0,0-.25-2,4.25,4.25,0,0,0-7.92,0,6.08,6.08,0,0,0-.25,2,.19.19,0,0,0,.21.21Z"/><path class="cls-1" d="M194.23,139.2a.35.35,0,0,1-.36-.36V128.76c0-2.77-1.26-4.39-3.85-4.39a3.87,3.87,0,0,0-4,4.21v10.26a.34.34,0,0,1-.36.36h-2.3a.34.34,0,0,1-.36-.36V122.31a.34.34,0,0,1,.36-.36h2.3a.34.34,0,0,1,.36.36v1.59h0a5.44,5.44,0,0,1,4.82-2.34c3.74,0,6,2.55,6,6.48v10.8a.35.35,0,0,1-.36.36Z"/><path class="cls-1" d="M206.9,139.38c-3.34,0-4.64-1.52-4.64-4.9v-9.86a.19.19,0,0,0-.22-.22h-1.43a.34.34,0,0,1-.36-.36v-1.73a.34.34,0,0,1,.36-.36H202c.15,0,.22-.07.22-.21v-4.86a.34.34,0,0,1,.36-.36h2.3a.34.34,0,0,1,.37.36v4.86a.19.19,0,0,0,.21.21h2.74a.35.35,0,0,1,.36.36V124a.34.34,0,0,1-.36.36H205.5c-.14,0-.21.07-.21.22v9.75c0,1.73.64,2.2,2.19,2.2h.76a.34.34,0,0,1,.36.36V139a.35.35,0,0,1-.36.36Z"/><path class="cls-1" d="M212.09,135a16.79,16.79,0,0,1,0-8.75c.94-3,3.45-4.64,6.8-4.64s5.87,1.69,6.81,4.64a17.07,17.07,0,0,1,0,8.75,7.31,7.31,0,0,1-13.61,0Zm10.69-.87a11.16,11.16,0,0,0,.4-3.52,10.91,10.91,0,0,0-.4-3.49,4.15,4.15,0,0,0-7.78,0,11.26,11.26,0,0,0-.39,3.49,11.52,11.52,0,0,0,.39,3.52,4.15,4.15,0,0,0,7.78,0Z"/><path class="cls-1" d="M229.22,137a.35.35,0,0,1,0-.5l1.48-1.59a.36.36,0,0,1,.51,0,8.32,8.32,0,0,0,5.32,2c2.52,0,3.78-1.08,3.78-2.62,0-1.37-.65-2.13-3.35-2.42l-1.83-.18c-3.39-.36-5.15-2-5.15-4.86,0-3.27,2.34-5.25,6.41-5.25a10.32,10.32,0,0,1,6.12,1.91.34.34,0,0,1,.07.5l-1.22,1.55a.36.36,0,0,1-.51.07,9.06,9.06,0,0,0-4.64-1.4c-2.16,0-3.28,1-3.28,2.37s.83,2.09,3.39,2.34l1.8.18c3.49.33,5.18,2.09,5.18,4.86,0,3.38-2.45,5.65-7,5.65A10.75,10.75,0,0,1,229.22,137Z"/><path class="cls-1" d="M266.05,139.2a.34.34,0,0,1-.36-.36v-1.66h0c-.82,1.37-2.3,2.41-4.89,2.41-3,0-5.08-1.4-5.94-4.14a14.28,14.28,0,0,1-.61-4.89,14.2,14.2,0,0,1,.61-4.86c.86-2.74,2.95-4.14,5.94-4.14,2.59,0,4.07,1,4.89,2.37h0v-8.85a.34.34,0,0,1,.36-.36h2.3a.34.34,0,0,1,.36.36v23.76a.34.34,0,0,1-.36.36Zm-.76-5a11,11,0,0,0,.4-3.6,11.12,11.12,0,0,0-.4-3.6,4.08,4.08,0,0,0-7.59,0,12.15,12.15,0,0,0-.4,3.6,11.89,11.89,0,0,0,.4,3.6,4.06,4.06,0,0,0,7.59,0Z"/><path class="cls-1" d="M273.43,134.91a17.36,17.36,0,0,1,0-8.71,7.25,7.25,0,0,1,13.53,0,15.08,15.08,0,0,1,.54,4.93c0,.22-.14.36-.4.36h-10.9a.2.2,0,0,0-.22.22,6.47,6.47,0,0,0,.29,2.09,4.25,4.25,0,0,0,4.35,3,5.61,5.61,0,0,0,4.43-1.9c.18-.18.36-.22.54-.07l1.48,1.33a.31.31,0,0,1,0,.5,8.35,8.35,0,0,1-6.73,3C276.85,139.59,274.37,137.9,273.43,134.91Zm10.73-5.83a.19.19,0,0,0,.21-.21,6.08,6.08,0,0,0-.25-2,4.25,4.25,0,0,0-7.92,0,6.08,6.08,0,0,0-.25,2c0,.14.07.21.22.21Z"/><path class="cls-1" d="M299.89,145.68a.34.34,0,0,1-.36-.36v-23a.34.34,0,0,1,.36-.36h2.3a.34.34,0,0,1,.36.36v1.62h0c.83-1.36,2.3-2.37,4.9-2.37a5.71,5.71,0,0,1,5.94,4.14,14.45,14.45,0,0,1,.61,4.86,14.53,14.53,0,0,1-.61,4.89,5.71,5.71,0,0,1-5.94,4.14c-2.6,0-4.07-1-4.9-2.41h0v8.14a.34.34,0,0,1-.36.36Zm10.66-11.52a12.28,12.28,0,0,0,.39-3.6,12.54,12.54,0,0,0-.39-3.6,4.08,4.08,0,0,0-7.6,0,11.12,11.12,0,0,0-.4,3.6,11,11,0,0,0,.4,3.6,4.07,4.07,0,0,0,7.6,0Z"/><path class="cls-1" d="M318.54,139.2a.34.34,0,0,1-.36-.36V122.31a.34.34,0,0,1,.36-.36h2.3a.34.34,0,0,1,.36.36v1.77h0a4.79,4.79,0,0,1,4.57-2.52,5.32,5.32,0,0,1,3.53,1.29c.18.18.21.33.07.51l-1.33,1.76a.33.33,0,0,1-.51.07,4.86,4.86,0,0,0-2.66-.82c-2.63,0-3.71,2-3.71,5v9.43a.34.34,0,0,1-.36.36Z"/><path class="cls-1" d="M331.1,135a17.07,17.07,0,0,1,0-8.75c.94-3,3.46-4.64,6.81-4.64s5.86,1.69,6.8,4.64a16.79,16.79,0,0,1,0,8.75,7.31,7.31,0,0,1-13.61,0Zm10.69-.87a11.16,11.16,0,0,0,.4-3.52,10.91,10.91,0,0,0-.4-3.49,4.15,4.15,0,0,0-7.77,0,10.91,10.91,0,0,0-.4,3.49,11.16,11.16,0,0,0,.4,3.52,4.15,4.15,0,0,0,7.77,0Z"/><path class="cls-1" d="M354.43,139.38c-3.35,0-4.64-1.52-4.64-4.9v-9.86a.2.2,0,0,0-.22-.22h-1.44a.34.34,0,0,1-.36-.36v-1.73a.34.34,0,0,1,.36-.36h1.44a.19.19,0,0,0,.22-.21v-4.86a.34.34,0,0,1,.36-.36h2.3a.34.34,0,0,1,.36.36v4.86c0,.14.07.21.22.21h2.73a.34.34,0,0,1,.36.36V124a.34.34,0,0,1-.36.36H353a.19.19,0,0,0-.22.22v9.75c0,1.73.65,2.2,2.2,2.2h.75a.34.34,0,0,1,.36.36V139a.34.34,0,0,1-.36.36Z"/><path class="cls-1" d="M359.61,134.91a17.36,17.36,0,0,1,0-8.71,7.25,7.25,0,0,1,13.53,0,15.08,15.08,0,0,1,.54,4.93.35.35,0,0,1-.39.36H362.35a.2.2,0,0,0-.22.22,6.47,6.47,0,0,0,.29,2.09,4.26,4.26,0,0,0,4.36,3,5.64,5.64,0,0,0,4.43-1.9.35.35,0,0,1,.53-.07l1.48,1.33a.32.32,0,0,1,0,.5,8.38,8.38,0,0,1-6.73,3C363,139.59,360.55,137.9,359.61,134.91Zm10.73-5.83a.19.19,0,0,0,.22-.21,6.05,6.05,0,0,0-.26-2,4.25,4.25,0,0,0-7.91,0,6.05,6.05,0,0,0-.26,2,.19.19,0,0,0,.22.21Z"/><path class="cls-1" d="M377.29,126.2c1-3,3.49-4.64,6.8-4.64a6.92,6.92,0,0,1,5.91,2.91.35.35,0,0,1-.11.51l-1.59,1.29a.31.31,0,0,1-.5,0,4.24,4.24,0,0,0-3.71-1.87,3.74,3.74,0,0,0-3.85,2.7,15.94,15.94,0,0,0,0,7,3.74,3.74,0,0,0,3.85,2.7,4.24,4.24,0,0,0,3.71-1.87.31.31,0,0,1,.5,0l1.59,1.29a.35.35,0,0,1,.11.51,6.92,6.92,0,0,1-5.91,2.91c-3.31,0-5.83-1.65-6.8-4.64a18,18,0,0,1,0-8.75Z"/><path class="cls-1" d="M393.13,126.2c1-3,3.49-4.64,6.8-4.64a6.92,6.92,0,0,1,5.91,2.91.35.35,0,0,1-.11.51l-1.59,1.29a.31.31,0,0,1-.5,0,4.24,4.24,0,0,0-3.71-1.87,3.74,3.74,0,0,0-3.85,2.7,15.94,15.94,0,0,0,0,7,3.74,3.74,0,0,0,3.85,2.7,4.24,4.24,0,0,0,3.71-1.87.31.31,0,0,1,.5,0l1.59,1.29a.35.35,0,0,1,.11.51,6.92,6.92,0,0,1-5.91,2.91c-3.31,0-5.83-1.65-6.8-4.64a18,18,0,0,1,0-8.75Z"/><path class="cls-1" d="M410.19,118.07a.35.35,0,0,1-.36-.36v-2.63a.34.34,0,0,1,.36-.36h2.45a.34.34,0,0,1,.36.36v2.63a.34.34,0,0,1-.36.36Zm.07,21.13a.35.35,0,0,1-.36-.36V122.31a.35.35,0,0,1,.36-.36h2.31a.35.35,0,0,1,.36.36v16.53a.35.35,0,0,1-.36.36Z"/><path class="cls-1" d="M417.64,135a17.07,17.07,0,0,1,0-8.75c.94-3,3.46-4.64,6.81-4.64s5.86,1.69,6.8,4.64a16.79,16.79,0,0,1,0,8.75,7.31,7.31,0,0,1-13.61,0Zm10.69-.87a11.16,11.16,0,0,0,.4-3.52,10.91,10.91,0,0,0-.4-3.49,4.15,4.15,0,0,0-7.77,0,10.91,10.91,0,0,0-.4,3.49,11.16,11.16,0,0,0,.4,3.52,4.15,4.15,0,0,0,7.77,0Zm-5.18-14.93c-.21,0-.32-.15-.21-.36l2.73-4.43a.65.65,0,0,1,.61-.36h2.38c.22,0,.32.18.18.36l-3.31,4.43a.71.71,0,0,1-.69.36Z"/><path class="cls-1" d="M447.16,139.2a.35.35,0,0,1-.36-.36V128.76c0-2.77-1.26-4.39-3.85-4.39a3.87,3.87,0,0,0-4,4.21v10.26a.34.34,0,0,1-.36.36h-2.3a.34.34,0,0,1-.36-.36V122.31a.34.34,0,0,1,.36-.36h2.3a.34.34,0,0,1,.36.36v1.59h0a5.45,5.45,0,0,1,4.82-2.34c3.74,0,6,2.55,6,6.48v10.8a.35.35,0,0,1-.36.36Z"/><path class="cls-1" d="M462.25,126.2c1-3,3.49-4.64,6.8-4.64a6.9,6.9,0,0,1,5.9,2.91.34.34,0,0,1-.1.51l-1.59,1.29a.31.31,0,0,1-.5,0,4.24,4.24,0,0,0-3.71-1.87,3.74,3.74,0,0,0-3.85,2.7,15.56,15.56,0,0,0,0,7,3.74,3.74,0,0,0,3.85,2.7,4.24,4.24,0,0,0,3.71-1.87.31.31,0,0,1,.5,0l1.59,1.29a.34.34,0,0,1,.1.51,6.9,6.9,0,0,1-5.9,2.91c-3.31,0-5.83-1.65-6.8-4.64a18,18,0,0,1,0-8.75Z"/><path class="cls-1" d="M478.12,135a17.07,17.07,0,0,1,0-8.75c.94-3,3.46-4.64,6.81-4.64s5.86,1.69,6.8,4.64a16.79,16.79,0,0,1,0,8.75,7.31,7.31,0,0,1-13.61,0Zm10.69-.87a11.16,11.16,0,0,0,.4-3.52,10.91,10.91,0,0,0-.4-3.49,4.15,4.15,0,0,0-7.77,0,10.91,10.91,0,0,0-.4,3.49,11.16,11.16,0,0,0,.4,3.52,4.15,4.15,0,0,0,7.77,0Z"/><path class="cls-1" d="M507.64,139.2a.34.34,0,0,1-.36-.36V128.76c0-2.77-1.26-4.39-3.85-4.39a3.87,3.87,0,0,0-4,4.21v10.26a.34.34,0,0,1-.36.36h-2.3a.34.34,0,0,1-.36-.36V122.31a.34.34,0,0,1,.36-.36h2.3a.34.34,0,0,1,.36.36v1.59h0a5.44,5.44,0,0,1,4.82-2.34c3.74,0,6,2.55,6,6.48v10.8a.34.34,0,0,1-.35.36Z"/><path class="cls-1" d="M520.31,139.38c-3.34,0-4.64-1.52-4.64-4.9v-9.86a.19.19,0,0,0-.22-.22H514a.34.34,0,0,1-.36-.36v-1.73A.35.35,0,0,1,514,122h1.44c.15,0,.22-.07.22-.21v-4.86a.34.34,0,0,1,.36-.36h2.3a.34.34,0,0,1,.36.36v4.86a.19.19,0,0,0,.22.21h2.74a.35.35,0,0,1,.36.36V124a.34.34,0,0,1-.36.36h-2.74a.2.2,0,0,0-.22.22v9.75c0,1.73.65,2.2,2.2,2.2h.76a.34.34,0,0,1,.36.36V139a.35.35,0,0,1-.36.36Z"/><path class="cls-1" d="M526.33,139.2a.34.34,0,0,1-.36-.36V122.31a.34.34,0,0,1,.36-.36h2.3a.34.34,0,0,1,.36.36v1.77h0a4.78,4.78,0,0,1,4.57-2.52,5.34,5.34,0,0,1,3.53,1.29c.17.18.21.33.07.51l-1.33,1.76a.33.33,0,0,1-.51.07,4.86,4.86,0,0,0-2.66-.82c-2.63,0-3.71,2-3.71,5v9.43a.34.34,0,0,1-.36.36Z"/><path class="cls-1" d="M549.58,139.2a.35.35,0,0,1-.36-.36v-1.52h0c-.79,1.3-2.48,2.27-5.11,2.27-3.27,0-5.79-1.69-5.79-5.18s2.52-5.33,6.73-5.33h3.92c.15,0,.22-.07.22-.21v-1.26c0-2.38-.94-3.39-4.14-3.39a6.73,6.73,0,0,0-4.18,1.23.32.32,0,0,1-.5,0l-1-1.66a.38.38,0,0,1,.07-.5,9.56,9.56,0,0,1,5.87-1.69c4.89,0,6.76,1.62,6.76,5.87v11.41a.34.34,0,0,1-.35.36Zm-.43-5.58v-1.91a.2.2,0,0,0-.22-.22h-3.45c-3,0-4.29.87-4.29,2.81,0,1.76,1.3,2.7,3.6,2.7C547.49,137,549.15,135.74,549.15,133.62Z"/><path class="cls-1" d="M19.66,164.2c1-3,3.49-4.64,6.8-4.64a6.9,6.9,0,0,1,5.9,2.91c.11.18.11.33-.11.51l-1.58,1.29a.31.31,0,0,1-.5,0,4.24,4.24,0,0,0-3.71-1.87,3.74,3.74,0,0,0-3.85,2.7,15.56,15.56,0,0,0,0,7,3.74,3.74,0,0,0,3.85,2.7,4.24,4.24,0,0,0,3.71-1.87.31.31,0,0,1,.5,0l1.58,1.29c.22.18.22.33.11.51a6.9,6.9,0,0,1-5.9,2.91c-3.31,0-5.83-1.65-6.8-4.64a18,18,0,0,1,0-8.75Z"/><path class="cls-1" d="M46.44,177.2a.34.34,0,0,1-.36-.36v-1.52h0c-.79,1.3-2.48,2.27-5.11,2.27-3.27,0-5.8-1.69-5.8-5.18s2.53-5.33,6.74-5.33h3.92a.19.19,0,0,0,.22-.21v-1.26c0-2.38-.94-3.39-4.14-3.39a6.71,6.71,0,0,0-4.18,1.23c-.18.14-.4.14-.5,0l-1-1.66a.38.38,0,0,1,.08-.5,9.53,9.53,0,0,1,5.86-1.69c4.9,0,6.77,1.62,6.77,5.87v11.41a.34.34,0,0,1-.36.36ZM46,171.62v-1.91a.2.2,0,0,0-.22-.22H42.33c-3,0-4.28.87-4.28,2.81,0,1.76,1.3,2.7,3.6,2.7C44.35,175,46,173.74,46,171.62Z"/><path class="cls-1" d="M54.32,177.2a.35.35,0,0,1-.36-.36V160.31a.35.35,0,0,1,.36-.36h2.31a.35.35,0,0,1,.36.36v16.53a.35.35,0,0,1-.36.36Zm.29-20c-.22,0-.32-.15-.22-.36l2.74-4.43a.63.63,0,0,1,.61-.36h2.38a.21.21,0,0,1,.18.36L57,156.79a.71.71,0,0,1-.69.36Z"/><path class="cls-1" d="M73,177.2a.34.34,0,0,1-.36-.36v-1.66h0c-.82,1.37-2.3,2.41-4.89,2.41-3,0-5.08-1.4-5.94-4.14a19.78,19.78,0,0,1,0-9.75c.86-2.74,2.95-4.14,5.94-4.14,2.59,0,4.07,1,4.89,2.37h0v-8.85a.34.34,0,0,1,.36-.36h2.3a.34.34,0,0,1,.36.36v23.76a.34.34,0,0,1-.36.36Zm-.76-5a11,11,0,0,0,.4-3.6,11.12,11.12,0,0,0-.4-3.6,4.08,4.08,0,0,0-7.59,0,12.15,12.15,0,0,0-.4,3.6,11.89,11.89,0,0,0,.4,3.6,4.06,4.06,0,0,0,7.59,0Z"/><path class="cls-1" d="M91.26,177.2a.34.34,0,0,1-.36-.36v-1.52h0c-.79,1.3-2.48,2.27-5.11,2.27-3.28,0-5.8-1.69-5.8-5.18s2.52-5.33,6.74-5.33h3.92a.19.19,0,0,0,.22-.21v-1.26c0-2.38-.94-3.39-4.14-3.39a6.71,6.71,0,0,0-4.18,1.23c-.18.14-.4.14-.5,0l-1-1.66a.38.38,0,0,1,.08-.5A9.53,9.53,0,0,1,87,159.56c4.9,0,6.77,1.62,6.77,5.87v11.41a.34.34,0,0,1-.36.36Zm-.43-5.58v-1.91a.2.2,0,0,0-.22-.22H87.15c-3,0-4.28.87-4.28,2.81,0,1.76,1.3,2.7,3.6,2.7C89.17,175,90.83,173.74,90.83,171.62Z"/><path class="cls-1" d="M97.59,175a.35.35,0,0,1,0-.5l1.48-1.59a.35.35,0,0,1,.5,0,8.37,8.37,0,0,0,5.33,2c2.52,0,3.78-1.08,3.78-2.62,0-1.37-.65-2.13-3.35-2.42l-1.83-.18c-3.39-.36-5.15-2-5.15-4.86,0-3.27,2.34-5.25,6.41-5.25a10.32,10.32,0,0,1,6.12,1.91.34.34,0,0,1,.07.5l-1.23,1.55a.35.35,0,0,1-.5.07,9.09,9.09,0,0,0-4.64-1.4c-2.16,0-3.28,1-3.28,2.37s.83,2.09,3.39,2.34l1.79.18c3.5.33,5.19,2.09,5.19,4.86,0,3.38-2.45,5.65-7,5.65A10.75,10.75,0,0,1,97.59,175Z"/><path class="cls-1" d="M123.77,183.68a.34.34,0,0,1-.36-.36v-2.09a.34.34,0,0,1,.36-.36h.64c1.41,0,2.16-.61,2.92-2.59l.57-1.59-6.33-16.38c-.07-.21,0-.36.29-.36h2.52a.42.42,0,0,1,.43.36l4.53,12.46h.08l4.35-12.46a.42.42,0,0,1,.43-.36h2.45c.22,0,.36.15.29.36l-6.8,18.22c-1.51,4.07-2.85,5.15-5.44,5.15Z"/><path class="cls-1" d="M148.35,177.2a.35.35,0,0,1-.36-.36V160.31a.35.35,0,0,1,.36-.36h2.31a.35.35,0,0,1,.36.36v1.77h0a4.8,4.8,0,0,1,4.57-2.52,5.3,5.3,0,0,1,3.53,1.29c.18.18.22.33.07.51l-1.33,1.76a.32.32,0,0,1-.5.07,4.89,4.89,0,0,0-2.67-.82c-2.62,0-3.7,2-3.7,5v9.43a.35.35,0,0,1-.36.36Z"/><path class="cls-1" d="M160.92,172.91a17.21,17.21,0,0,1,0-8.71,7.26,7.26,0,0,1,13.54,0,15.08,15.08,0,0,1,.54,4.93.35.35,0,0,1-.4.36H163.65a.19.19,0,0,0-.21.22,6.5,6.5,0,0,0,.28,2.09,4.27,4.27,0,0,0,4.36,3,5.64,5.64,0,0,0,4.43-1.9c.18-.18.36-.22.54-.07l1.47,1.33a.32.32,0,0,1,0,.5,8.38,8.38,0,0,1-6.73,3C164.34,177.59,161.85,175.9,160.92,172.91Zm10.72-5.83c.15,0,.22-.07.22-.21a6.08,6.08,0,0,0-.25-2,4.25,4.25,0,0,0-7.92,0,6.08,6.08,0,0,0-.25,2,.19.19,0,0,0,.21.21Z"/><path class="cls-1" d="M189.54,177.2a.35.35,0,0,1-.37-.36v-1.52h0c-.79,1.3-2.48,2.27-5.11,2.27-3.28,0-5.8-1.69-5.8-5.18s2.52-5.33,6.73-5.33h3.93a.19.19,0,0,0,.21-.21v-1.26c0-2.38-.93-3.39-4.14-3.39a6.7,6.7,0,0,0-4.17,1.23.33.33,0,0,1-.51,0l-1-1.66a.38.38,0,0,1,.07-.5,9.58,9.58,0,0,1,5.87-1.69c4.9,0,6.77,1.62,6.77,5.87v11.41a.34.34,0,0,1-.36.36Zm-.44-5.58v-1.91a.19.19,0,0,0-.21-.22h-3.46c-3,0-4.28.87-4.28,2.81,0,1.76,1.29,2.7,3.6,2.7C187.45,175,189.1,173.74,189.1,171.62Z"/><path class="cls-1" d="M201.2,177.38c-3,0-4.21-1.44-4.21-4.54V153.08a.34.34,0,0,1,.36-.36h2.3a.34.34,0,0,1,.36.36v19.58c0,1.44.54,1.91,1.73,1.91h.68a.34.34,0,0,1,.36.36V177a.34.34,0,0,1-.36.36Z"/><path class="cls-1" d="M206.6,156.07a.34.34,0,0,1-.36-.36v-2.63a.34.34,0,0,1,.36-.36h2.45a.34.34,0,0,1,.36.36v2.63a.35.35,0,0,1-.36.36Zm.07,21.13a.35.35,0,0,1-.36-.36V160.31a.35.35,0,0,1,.36-.36H209a.35.35,0,0,1,.36.36v16.53a.35.35,0,0,1-.36.36Z"/><path class="cls-1" d="M214,164.2c1-3,3.49-4.64,6.8-4.64a6.9,6.9,0,0,1,5.9,2.91c.11.18.11.33-.11.51L225,164.27a.31.31,0,0,1-.5,0,4.24,4.24,0,0,0-3.71-1.87,3.74,3.74,0,0,0-3.85,2.7,15.56,15.56,0,0,0,0,7,3.74,3.74,0,0,0,3.85,2.7,4.24,4.24,0,0,0,3.71-1.87.31.31,0,0,1,.5,0l1.58,1.29c.22.18.22.33.11.51a6.9,6.9,0,0,1-5.9,2.91c-3.31,0-5.83-1.65-6.8-4.64a18,18,0,0,1,0-8.75Z"/><path class="cls-1" d="M229.89,172.91a17.07,17.07,0,0,1,0-8.71,7.25,7.25,0,0,1,13.53,0,15.08,15.08,0,0,1,.54,4.93c0,.22-.14.36-.4.36h-10.9a.2.2,0,0,0-.22.22,6.47,6.47,0,0,0,.29,2.09,4.25,4.25,0,0,0,4.35,3,5.61,5.61,0,0,0,4.43-1.9c.18-.18.36-.22.54-.07l1.48,1.33a.31.31,0,0,1,0,.5,8.35,8.35,0,0,1-6.73,3C233.31,177.59,230.83,175.9,229.89,172.91Zm10.73-5.83a.19.19,0,0,0,.21-.21,6.08,6.08,0,0,0-.25-2,4.25,4.25,0,0,0-7.92,0,6.08,6.08,0,0,0-.25,2c0,.14.07.21.22.21Z"/><path class="cls-1" d="M260.13,177.38c-3,0-4.21-1.44-4.21-4.54V153.08a.34.34,0,0,1,.36-.36h2.3a.34.34,0,0,1,.36.36v19.58c0,1.44.54,1.91,1.73,1.91h.68a.34.34,0,0,1,.36.36V177a.34.34,0,0,1-.36.36Z"/><path class="cls-1" d="M275.68,177.2a.34.34,0,0,1-.36-.36v-1.52h0c-.8,1.3-2.49,2.27-5.12,2.27-3.27,0-5.79-1.69-5.79-5.18s2.52-5.33,6.73-5.33H275c.15,0,.22-.07.22-.21v-1.26c0-2.38-.94-3.39-4.14-3.39a6.73,6.73,0,0,0-4.18,1.23.32.32,0,0,1-.5,0l-1-1.66a.38.38,0,0,1,.07-.5,9.56,9.56,0,0,1,5.87-1.69c4.89,0,6.76,1.62,6.76,5.87v11.41a.34.34,0,0,1-.36.36Zm-.43-5.58v-1.91a.2.2,0,0,0-.22-.22h-3.45c-3,0-4.29.87-4.29,2.81,0,1.76,1.3,2.7,3.6,2.7C273.59,175,275.25,173.74,275.25,171.62Z"/><path class="cls-1" d="M282,175a.33.33,0,0,1,0-.5l1.47-1.59a.36.36,0,0,1,.51,0,8.34,8.34,0,0,0,5.33,2c2.51,0,3.77-1.08,3.77-2.62,0-1.37-.64-2.13-3.34-2.42l-1.84-.18c-3.38-.36-5.15-2-5.15-4.86,0-3.27,2.34-5.25,6.41-5.25a10.32,10.32,0,0,1,6.12,1.91.34.34,0,0,1,.07.5l-1.22,1.55a.36.36,0,0,1-.51.07,9,9,0,0,0-4.64-1.4c-2.16,0-3.27,1-3.27,2.37s.82,2.09,3.38,2.34l1.8.18c3.49.33,5.18,2.09,5.18,4.86,0,3.38-2.45,5.65-6.94,5.65A10.73,10.73,0,0,1,282,175Z"/><path class="cls-1" d="M318.48,177.2a.35.35,0,0,1-.36-.36v-1.52h0c-.79,1.3-2.49,2.27-5.11,2.27-3.28,0-5.8-1.69-5.8-5.18s2.52-5.33,6.73-5.33h3.93a.19.19,0,0,0,.21-.21v-1.26c0-2.38-.93-3.39-4.14-3.39a6.7,6.7,0,0,0-4.17,1.23.33.33,0,0,1-.51,0l-1-1.66a.38.38,0,0,1,.07-.5,9.56,9.56,0,0,1,5.87-1.69c4.9,0,6.77,1.62,6.77,5.87v11.41a.35.35,0,0,1-.36.36Zm-.43-5.58v-1.91a.19.19,0,0,0-.21-.22h-3.46c-3,0-4.28.87-4.28,2.81,0,1.76,1.29,2.7,3.6,2.7C316.4,175,318.05,173.74,318.05,171.62Z"/><path class="cls-1" d="M325.5,164.2a6.69,6.69,0,0,1,6.81-4.64,6.9,6.9,0,0,1,5.9,2.91c.11.18.11.33-.11.51l-1.58,1.29a.31.31,0,0,1-.5,0,4.24,4.24,0,0,0-3.71-1.87,3.74,3.74,0,0,0-3.85,2.7,15.56,15.56,0,0,0,0,7,3.74,3.74,0,0,0,3.85,2.7,4.24,4.24,0,0,0,3.71-1.87.31.31,0,0,1,.5,0l1.58,1.29c.22.18.22.33.11.51a6.9,6.9,0,0,1-5.9,2.91A6.69,6.69,0,0,1,325.5,173a18,18,0,0,1,0-8.75Z"/><path class="cls-1" d="M347.28,177.38c-3.34,0-4.64-1.52-4.64-4.9v-9.86a.19.19,0,0,0-.22-.22H341a.33.33,0,0,1-.35-.36v-1.73A.34.34,0,0,1,341,160h1.44c.15,0,.22-.07.22-.21v-4.86a.34.34,0,0,1,.36-.36h2.3a.34.34,0,0,1,.36.36v4.86a.19.19,0,0,0,.22.21h2.74a.35.35,0,0,1,.36.36V162a.34.34,0,0,1-.36.36h-2.74a.2.2,0,0,0-.22.22v9.75c0,1.73.65,2.2,2.2,2.2h.76a.34.34,0,0,1,.36.36V177a.35.35,0,0,1-.36.36Z"/><path class="cls-1" d="M353.22,156.07a.35.35,0,0,1-.36-.36v-2.63a.34.34,0,0,1,.36-.36h2.45a.34.34,0,0,1,.36.36v2.63a.34.34,0,0,1-.36.36Zm.08,21.13a.34.34,0,0,1-.36-.36V160.31a.34.34,0,0,1,.36-.36h2.3a.34.34,0,0,1,.36.36v16.53a.34.34,0,0,1-.36.36Z"/><path class="cls-1" d="M365.75,177.2c-.25,0-.36-.15-.43-.36l-6.19-16.53c-.07-.21,0-.36.29-.36h2.48c.25,0,.36.11.47.36l4.46,12.39h.07l4.36-12.39a.42.42,0,0,1,.43-.36h2.45c.25,0,.36.15.29.36l-6.16,16.53a.47.47,0,0,1-.47.36Z"/><path class="cls-1" d="M377.88,156.07a.35.35,0,0,1-.36-.36v-2.63a.34.34,0,0,1,.36-.36h2.45a.34.34,0,0,1,.36.36v2.63a.34.34,0,0,1-.36.36ZM378,177.2a.34.34,0,0,1-.36-.36V160.31A.34.34,0,0,1,378,160h2.3a.35.35,0,0,1,.36.36v16.53a.35.35,0,0,1-.36.36Z"/><path class="cls-1" d="M396.6,177.2a.35.35,0,0,1-.36-.36v-1.66h0c-.83,1.37-2.31,2.41-4.9,2.41-3,0-5.08-1.4-5.94-4.14a19.78,19.78,0,0,1,0-9.75c.86-2.74,2.95-4.14,5.94-4.14,2.59,0,4.07,1,4.9,2.37h0v-8.85a.34.34,0,0,1,.36-.36h2.31a.34.34,0,0,1,.36.36v23.76a.35.35,0,0,1-.36.36Zm-.75-5a11.35,11.35,0,0,0,.39-3.6,11.47,11.47,0,0,0-.39-3.6,4.08,4.08,0,0,0-7.6,0,12.15,12.15,0,0,0-.4,3.6,11.89,11.89,0,0,0,.4,3.6,4.07,4.07,0,0,0,7.6,0Z"/><path class="cls-1" d="M414.89,177.2a.34.34,0,0,1-.36-.36v-1.52h0c-.79,1.3-2.48,2.27-5.11,2.27-3.27,0-5.79-1.69-5.79-5.18s2.52-5.33,6.73-5.33h3.92c.15,0,.22-.07.22-.21v-1.26c0-2.38-.94-3.39-4.14-3.39a6.73,6.73,0,0,0-4.18,1.23.32.32,0,0,1-.5,0l-1-1.66a.37.37,0,0,1,.07-.5,9.56,9.56,0,0,1,5.87-1.69c4.89,0,6.76,1.62,6.76,5.87v11.41a.34.34,0,0,1-.36.36Zm-.43-5.58v-1.91a.2.2,0,0,0-.22-.22h-3.45c-3,0-4.29.87-4.29,2.81,0,1.76,1.3,2.7,3.6,2.7C412.8,175,414.46,173.74,414.46,171.62Z"/><path class="cls-1" d="M433.21,177.2a.35.35,0,0,1-.36-.36v-1.66h0c-.83,1.37-2.31,2.41-4.9,2.41-3,0-5.07-1.4-5.94-4.14a19.78,19.78,0,0,1,0-9.75c.87-2.74,2.95-4.14,5.94-4.14,2.59,0,4.07,1,4.9,2.37h0v-8.85a.34.34,0,0,1,.36-.36h2.31a.34.34,0,0,1,.36.36v23.76a.35.35,0,0,1-.36.36Zm-.75-5a11.06,11.06,0,0,0,.39-3.6,11.18,11.18,0,0,0-.39-3.6,4.08,4.08,0,0,0-7.6,0,12.2,12.2,0,0,0-.39,3.6,11.94,11.94,0,0,0,.39,3.6,4.07,4.07,0,0,0,7.6,0Z"/><path class="cls-1" d="M440.59,172.91a17.36,17.36,0,0,1,0-8.71,7.25,7.25,0,0,1,13.53,0,15.08,15.08,0,0,1,.54,4.93.35.35,0,0,1-.39.36H443.33a.2.2,0,0,0-.22.22,6.47,6.47,0,0,0,.29,2.09,4.26,4.26,0,0,0,4.36,3,5.64,5.64,0,0,0,4.43-1.9c.18-.18.35-.22.53-.07l1.48,1.33a.32.32,0,0,1,0,.5,8.38,8.38,0,0,1-6.73,3C444,177.59,441.53,175.9,440.59,172.91Zm10.73-5.83a.19.19,0,0,0,.22-.21,6.37,6.37,0,0,0-.25-2,4.25,4.25,0,0,0-7.92,0,6.05,6.05,0,0,0-.26,2,.19.19,0,0,0,.22.21Z"/><path class="cls-1" d="M457.59,175a.33.33,0,0,1,0-.5l1.47-1.59a.36.36,0,0,1,.51,0,8.34,8.34,0,0,0,5.32,2c2.52,0,3.78-1.08,3.78-2.62,0-1.37-.64-2.13-3.34-2.42l-1.84-.18c-3.38-.36-5.15-2-5.15-4.86,0-3.27,2.34-5.25,6.41-5.25a10.32,10.32,0,0,1,6.12,1.91.34.34,0,0,1,.07.5l-1.22,1.55a.36.36,0,0,1-.51.07,9.06,9.06,0,0,0-4.64-1.4c-2.16,0-3.28,1-3.28,2.37s.83,2.09,3.39,2.34l1.8.18c3.49.33,5.18,2.09,5.18,4.86,0,3.38-2.45,5.65-7,5.65A10.72,10.72,0,0,1,457.59,175Z"/><path class="cls-1" d="M482.43,175a.33.33,0,0,1,0-.5l1.47-1.59a.36.36,0,0,1,.51,0,8.32,8.32,0,0,0,5.32,2c2.52,0,3.78-1.08,3.78-2.62,0-1.37-.65-2.13-3.35-2.42l-1.83-.18c-3.38-.36-5.15-2-5.15-4.86,0-3.27,2.34-5.25,6.41-5.25a10.32,10.32,0,0,1,6.12,1.91.34.34,0,0,1,.07.5l-1.22,1.55a.36.36,0,0,1-.51.07,9.06,9.06,0,0,0-4.64-1.4c-2.16,0-3.28,1-3.28,2.37s.83,2.09,3.39,2.34l1.8.18c3.49.33,5.18,2.09,5.18,4.86,0,3.38-2.45,5.65-6.95,5.65A10.72,10.72,0,0,1,482.43,175Z"/><path class="cls-1" d="M500.07,172.91a17.21,17.21,0,0,1,0-8.71,7.25,7.25,0,0,1,13.53,0,15.08,15.08,0,0,1,.54,4.93.35.35,0,0,1-.39.36H502.8a.2.2,0,0,0-.22.22,6.47,6.47,0,0,0,.29,2.09,4.26,4.26,0,0,0,4.36,3,5.64,5.64,0,0,0,4.43-1.9c.18-.18.36-.22.54-.07l1.47,1.33a.32.32,0,0,1,0,.5,8.38,8.38,0,0,1-6.73,3C503.48,177.59,501,175.9,500.07,172.91Zm10.72-5.83c.15,0,.22-.07.22-.21a6.08,6.08,0,0,0-.25-2,4.25,4.25,0,0,0-7.92,0,6.05,6.05,0,0,0-.26,2,.19.19,0,0,0,.22.21Z"/><path class="cls-1" d="M517.88,181.52a.33.33,0,0,1,0-.51l1.48-1.47a.34.34,0,0,1,.54,0,5.74,5.74,0,0,0,4.06,1.72c2.85,0,4.36-1.47,4.36-4.64v-2h0c-.79,1.44-2.26,2.38-4.78,2.38a5.66,5.66,0,0,1-5.8-4.17,18.37,18.37,0,0,1,0-9.08,5.65,5.65,0,0,1,5.8-4.17c2.52,0,4,.93,4.78,2.37h0v-1.62a.34.34,0,0,1,.36-.36H531a.34.34,0,0,1,.36.36v16.13c0,4.9-2.66,7.63-7.52,7.63A7.82,7.82,0,0,1,517.88,181.52Zm10.08-9.9a10.43,10.43,0,0,0,.4-3.35,10.55,10.55,0,0,0-.4-3.35,3.89,3.89,0,0,0-7.3,0,10.75,10.75,0,0,0-.44,3.35,10.62,10.62,0,0,0,.44,3.35,3.51,3.51,0,0,0,3.63,2.59A3.56,3.56,0,0,0,528,171.62Z"/><path class="cls-1" d="M547.4,177.2a.35.35,0,0,1-.36-.36v-1.62h0a5.26,5.26,0,0,1-4.72,2.37c-3.78,0-6-2.59-6-6.51V160.31a.34.34,0,0,1,.36-.36H539a.34.34,0,0,1,.36.36v10.05c0,2.81,1.26,4.42,3.82,4.42,2.34,0,3.88-1.65,3.88-4.24V160.31a.35.35,0,0,1,.36-.36h2.31a.35.35,0,0,1,.36.36v16.53a.35.35,0,0,1-.36.36Zm-5.4-20c-.21,0-.32-.15-.21-.36l2.73-4.43a.65.65,0,0,1,.62-.36h2.37c.22,0,.32.18.18.36l-3.31,4.43a.71.71,0,0,1-.68.36Z"/><path class="cls-1" d="M566.45,177.2a.34.34,0,0,1-.36-.36V166.76c0-2.77-1.26-4.39-3.85-4.39a3.87,3.87,0,0,0-4,4.21v10.26a.35.35,0,0,1-.36.36h-2.31a.35.35,0,0,1-.36-.36V160.31a.35.35,0,0,1,.36-.36h2.31a.35.35,0,0,1,.36.36v1.59h0a5.45,5.45,0,0,1,4.82-2.34c3.75,0,6,2.55,6,6.48v10.8a.34.34,0,0,1-.36.36Z"/><path class="cls-1" d="M4.21,215.38c-3,0-4.21-1.44-4.21-4.54V191.08a.34.34,0,0,1,.36-.36h2.3a.34.34,0,0,1,.36.36v19.58c0,1.44.54,1.91,1.73,1.91h.68a.34.34,0,0,1,.36.36V215a.34.34,0,0,1-.36.36Z"/><path class="cls-1" d="M8.86,211a16.79,16.79,0,0,1,0-8.75c.93-2.95,3.45-4.64,6.8-4.64s5.87,1.69,6.8,4.64a16.79,16.79,0,0,1,0,8.75,6.7,6.7,0,0,1-6.8,4.64A6.7,6.7,0,0,1,8.86,211Zm10.69-.87a11.52,11.52,0,0,0,.39-3.52,11.26,11.26,0,0,0-.39-3.49,3.84,3.84,0,0,0-3.89-2.7,3.84,3.84,0,0,0-3.89,2.7,11,11,0,0,0-.39,3.49,11.21,11.21,0,0,0,.39,3.52,3.85,3.85,0,0,0,3.89,2.71A3.85,3.85,0,0,0,19.55,210.08Z"/><path class="cls-1" d="M26,213a.35.35,0,0,1,0-.5l1.48-1.59a.35.35,0,0,1,.5,0,8.37,8.37,0,0,0,5.33,2c2.52,0,3.78-1.08,3.78-2.62,0-1.37-.65-2.13-3.35-2.42l-1.84-.18c-3.38-.36-5.14-2-5.14-4.86,0-3.27,2.34-5.25,6.4-5.25a10.32,10.32,0,0,1,6.12,1.91.35.35,0,0,1,.08.5l-1.23,1.55a.35.35,0,0,1-.5.07,9.09,9.09,0,0,0-4.65-1.4c-2.16,0-3.27,1-3.27,2.37s.83,2.09,3.38,2.34l1.8.18c3.49.33,5.19,2.09,5.19,4.86,0,3.38-2.45,5.65-7,5.65A10.73,10.73,0,0,1,26,213Z"/><path class="cls-1" d="M52.38,221.68a.34.34,0,0,1-.36-.36v-23a.34.34,0,0,1,.36-.36h2.3a.34.34,0,0,1,.36.36v1.62h0c.83-1.36,2.3-2.37,4.89-2.37,3,0,5.08,1.4,5.94,4.14a19.78,19.78,0,0,1,0,9.75c-.86,2.74-2.95,4.14-5.94,4.14-2.59,0-4.06-1-4.89-2.41h0v8.14a.34.34,0,0,1-.36.36ZM63,210.16a11.89,11.89,0,0,0,.4-3.6A12.15,12.15,0,0,0,63,203a4.08,4.08,0,0,0-7.59,0,11.12,11.12,0,0,0-.4,3.6,11,11,0,0,0,.4,3.6,4.05,4.05,0,0,0,7.59,0Z"/><path class="cls-1" d="M71,215.2a.34.34,0,0,1-.36-.36V198.31A.34.34,0,0,1,71,198h2.3a.34.34,0,0,1,.36.36v1.77h0a4.78,4.78,0,0,1,4.57-2.52,5.27,5.27,0,0,1,3.52,1.29c.18.18.22.33.08.51l-1.34,1.76a.32.32,0,0,1-.5.07,4.86,4.86,0,0,0-2.66-.82c-2.63,0-3.71,2-3.71,5v9.43a.34.34,0,0,1-.36.36Z"/><path class="cls-1" d="M83.59,211a16.79,16.79,0,0,1,0-8.75c.94-2.95,3.45-4.64,6.8-4.64s5.87,1.69,6.81,4.64a17.07,17.07,0,0,1,0,8.75,7.31,7.31,0,0,1-13.61,0Zm10.69-.87a11.16,11.16,0,0,0,.4-3.52,10.91,10.91,0,0,0-.4-3.49,4.15,4.15,0,0,0-7.77,0,10.91,10.91,0,0,0-.4,3.49,11.16,11.16,0,0,0,.4,3.52,4.14,4.14,0,0,0,7.77,0Z"/><path class="cls-1" d="M101.41,202.2c1-3,3.49-4.64,6.8-4.64a6.92,6.92,0,0,1,5.91,2.91.35.35,0,0,1-.11.51l-1.59,1.29a.31.31,0,0,1-.5,0,4.24,4.24,0,0,0-3.71-1.87,3.74,3.74,0,0,0-3.85,2.7,15.56,15.56,0,0,0,0,7,3.75,3.75,0,0,0,3.85,2.71,4.25,4.25,0,0,0,3.71-1.88.31.31,0,0,1,.5,0l1.59,1.29a.35.35,0,0,1,.11.51,6.92,6.92,0,0,1-5.91,2.91c-3.31,0-5.83-1.65-6.8-4.64a18,18,0,0,1,0-8.75Z"/><path class="cls-1" d="M117.29,210.91a17.21,17.21,0,0,1,0-8.71,7.25,7.25,0,0,1,13.53,0,15.08,15.08,0,0,1,.54,4.93.35.35,0,0,1-.39.36H120a.2.2,0,0,0-.22.22,6.47,6.47,0,0,0,.29,2.09,4.27,4.27,0,0,0,4.36,3,5.65,5.65,0,0,0,4.43-1.91c.18-.18.36-.22.54-.07l1.47,1.33a.32.32,0,0,1,0,.5,8.38,8.38,0,0,1-6.73,3C120.71,215.59,118.22,213.9,117.29,210.91ZM128,205.08c.15,0,.22-.07.22-.21a6.08,6.08,0,0,0-.25-2,4.25,4.25,0,0,0-7.92,0,6.05,6.05,0,0,0-.26,2,.19.19,0,0,0,.22.21Z"/><path class="cls-1" d="M146.26,215.2a.35.35,0,0,1-.36-.36v-1.66h0c-.83,1.37-2.31,2.41-4.9,2.41-3,0-5.07-1.4-5.94-4.14a19.78,19.78,0,0,1,0-9.75c.87-2.74,2.95-4.14,5.94-4.14,2.59,0,4.07,1,4.9,2.37h0v-8.85a.34.34,0,0,1,.36-.36h2.31a.34.34,0,0,1,.36.36v23.76a.35.35,0,0,1-.36.36Zm-.75-5a11.06,11.06,0,0,0,.39-3.6,11.18,11.18,0,0,0-.39-3.6,4.08,4.08,0,0,0-7.6,0,12.54,12.54,0,0,0-.39,3.6,12.28,12.28,0,0,0,.39,3.6,4.06,4.06,0,0,0,7.6,0Z"/><path class="cls-1" d="M154.4,194.07a.34.34,0,0,1-.36-.36v-2.63a.34.34,0,0,1,.36-.36h2.45a.34.34,0,0,1,.36.36v2.63a.35.35,0,0,1-.36.36Zm.07,21.13a.35.35,0,0,1-.36-.36V198.31a.35.35,0,0,1,.36-.36h2.31a.35.35,0,0,1,.36.36v16.53a.35.35,0,0,1-.36.36Z"/><path class="cls-1" d="M184.35,215.2a.34.34,0,0,1-.36-.36V204.76c0-2.77-1.26-4.39-3.85-4.39a3.88,3.88,0,0,0-4,4.21v10.26a.34.34,0,0,1-.36.36h-2.31a.34.34,0,0,1-.35-.36V204.76c0-2.77-1.27-4.39-3.86-4.39a3.87,3.87,0,0,0-4,4.21v10.26a.34.34,0,0,1-.36.36h-2.3a.34.34,0,0,1-.36-.36V198.31a.34.34,0,0,1,.36-.36H165a.34.34,0,0,1,.36.36v1.59h0a6.09,6.09,0,0,1,9.86.36h0a6.41,6.41,0,0,1,5.58-2.7c4,0,6.15,2.55,6.15,6.48v10.8a.34.34,0,0,1-.36.36Z"/><path class="cls-1" d="M192.31,194.07a.34.34,0,0,1-.36-.36v-2.63a.34.34,0,0,1,.36-.36h2.45a.34.34,0,0,1,.36.36v2.63a.35.35,0,0,1-.36.36Zm.07,21.13a.34.34,0,0,1-.36-.36V198.31a.34.34,0,0,1,.36-.36h2.3a.34.34,0,0,1,.36.36v16.53a.34.34,0,0,1-.36.36Z"/><path class="cls-1" d="M199.76,210.91a17.21,17.21,0,0,1,0-8.71,7.26,7.26,0,0,1,13.54,0,15.08,15.08,0,0,1,.54,4.93.35.35,0,0,1-.4.36H202.49a.19.19,0,0,0-.21.22,6.47,6.47,0,0,0,.29,2.09,4.25,4.25,0,0,0,4.35,3,5.65,5.65,0,0,0,4.43-1.91c.18-.18.36-.22.54-.07l1.48,1.33a.33.33,0,0,1,0,.5,8.38,8.38,0,0,1-6.73,3C203.18,215.59,200.7,213.9,199.76,210.91Zm10.73-5.83a.19.19,0,0,0,.21-.21,6.08,6.08,0,0,0-.25-2,4.25,4.25,0,0,0-7.92,0,6.08,6.08,0,0,0-.25,2,.19.19,0,0,0,.21.21Z"/><path class="cls-1" d="M229.13,215.2a.35.35,0,0,1-.36-.36V204.76c0-2.77-1.26-4.39-3.85-4.39a3.87,3.87,0,0,0-4,4.21v10.26a.34.34,0,0,1-.36.36h-2.3a.34.34,0,0,1-.36-.36V198.31a.34.34,0,0,1,.36-.36h2.3a.34.34,0,0,1,.36.36v1.59h0a5.45,5.45,0,0,1,4.82-2.34c3.75,0,6,2.55,6,6.48v10.8a.35.35,0,0,1-.36.36Z"/><path class="cls-1" d="M241.81,215.38c-3.35,0-4.65-1.52-4.65-4.9v-9.86c0-.15-.07-.22-.21-.22h-1.44a.34.34,0,0,1-.36-.36v-1.73a.34.34,0,0,1,.36-.36H237a.19.19,0,0,0,.21-.21v-4.86a.34.34,0,0,1,.36-.36h2.31a.34.34,0,0,1,.36.36v4.86a.19.19,0,0,0,.21.21h2.74a.35.35,0,0,1,.36.36V200a.34.34,0,0,1-.36.36H240.4c-.14,0-.21.07-.21.22v9.75c0,1.73.64,2.2,2.19,2.2h.76a.34.34,0,0,1,.36.36V215a.35.35,0,0,1-.36.36Z"/><path class="cls-1" d="M247,211a16.79,16.79,0,0,1,0-8.75c.94-2.95,3.46-4.64,6.8-4.64s5.87,1.69,6.81,4.64a17.07,17.07,0,0,1,0,8.75A7.31,7.31,0,0,1,247,211Zm10.69-.87a11.16,11.16,0,0,0,.4-3.52,10.91,10.91,0,0,0-.4-3.49,4.15,4.15,0,0,0-7.77,0,10.91,10.91,0,0,0-.4,3.49,11.16,11.16,0,0,0,.4,3.52,4.14,4.14,0,0,0,7.77,0Z"/><path class="cls-1" d="M264.13,213a.33.33,0,0,1,0-.5l1.47-1.59a.36.36,0,0,1,.51,0,8.34,8.34,0,0,0,5.32,2c2.52,0,3.78-1.08,3.78-2.62,0-1.37-.65-2.13-3.34-2.42l-1.84-.18c-3.38-.36-5.15-2-5.15-4.86,0-3.27,2.34-5.25,6.41-5.25a10.32,10.32,0,0,1,6.12,1.91.34.34,0,0,1,.07.5l-1.22,1.55a.36.36,0,0,1-.51.07,9.06,9.06,0,0,0-4.64-1.4c-2.16,0-3.28,1-3.28,2.37s.83,2.09,3.39,2.34l1.8.18c3.49.33,5.18,2.09,5.18,4.86,0,3.38-2.45,5.65-6.95,5.65A10.72,10.72,0,0,1,264.13,213Z"/><path class="cls-1" d="M301,215.2a.35.35,0,0,1-.36-.36v-1.66h0c-.83,1.37-2.31,2.41-4.9,2.41-3,0-5.08-1.4-5.94-4.14a19.78,19.78,0,0,1,0-9.75c.86-2.74,2.95-4.14,5.94-4.14,2.59,0,4.07,1,4.9,2.37h0v-8.85a.34.34,0,0,1,.36-.36h2.31a.34.34,0,0,1,.36.36v23.76a.35.35,0,0,1-.36.36Zm-.75-5a11.35,11.35,0,0,0,.39-3.6,11.47,11.47,0,0,0-.39-3.6,4.08,4.08,0,0,0-7.6,0,12.2,12.2,0,0,0-.39,3.6,11.94,11.94,0,0,0,.39,3.6,4.06,4.06,0,0,0,7.6,0Z"/><path class="cls-1" d="M308.33,210.91a17.36,17.36,0,0,1,0-8.71,7.25,7.25,0,0,1,13.53,0,15.08,15.08,0,0,1,.54,4.93.35.35,0,0,1-.39.36H311.07a.2.2,0,0,0-.22.22,6.47,6.47,0,0,0,.29,2.09,4.26,4.26,0,0,0,4.36,3,5.61,5.61,0,0,0,4.42-1.91c.18-.18.36-.22.54-.07l1.48,1.33a.32.32,0,0,1,0,.5,8.39,8.39,0,0,1-6.74,3C311.75,215.59,309.27,213.9,308.33,210.91Zm10.73-5.83a.19.19,0,0,0,.22-.21,6.05,6.05,0,0,0-.26-2,4.25,4.25,0,0,0-7.92,0,6.08,6.08,0,0,0-.25,2c0,.14.07.21.22.21Z"/><path class="cls-1" d="M339.44,215.38c-3.35,0-4.65-1.52-4.65-4.9v-9.86c0-.15-.07-.22-.21-.22h-1.44a.34.34,0,0,1-.36-.36v-1.73a.34.34,0,0,1,.36-.36h1.44a.19.19,0,0,0,.21-.21v-4.86a.34.34,0,0,1,.36-.36h2.31a.34.34,0,0,1,.36.36v4.86a.19.19,0,0,0,.21.21h2.74a.35.35,0,0,1,.36.36V200a.34.34,0,0,1-.36.36H338c-.14,0-.21.07-.21.22v9.75c0,1.73.64,2.2,2.19,2.2h.76a.34.34,0,0,1,.36.36V215a.35.35,0,0,1-.36.36Z"/><path class="cls-1" d="M345.45,215.2a.34.34,0,0,1-.36-.36V198.31a.34.34,0,0,1,.36-.36h2.3a.34.34,0,0,1,.36.36v1.77h0a4.79,4.79,0,0,1,4.57-2.52,5.32,5.32,0,0,1,3.53,1.29c.18.18.21.33.07.51L355,201.12a.33.33,0,0,1-.51.07,4.86,4.86,0,0,0-2.66-.82c-2.63,0-3.71,2-3.71,5v9.43a.34.34,0,0,1-.36.36Z"/><path class="cls-1" d="M368.7,215.2a.35.35,0,0,1-.36-.36v-1.52h0c-.8,1.3-2.49,2.27-5.11,2.27-3.28,0-5.8-1.69-5.8-5.18s2.52-5.33,6.73-5.33h3.92c.15,0,.22-.07.22-.21v-1.26c0-2.38-.94-3.39-4.14-3.39a6.68,6.68,0,0,0-4.17,1.23.33.33,0,0,1-.51,0l-1-1.66a.38.38,0,0,1,.07-.5,9.56,9.56,0,0,1,5.87-1.69c4.89,0,6.77,1.62,6.77,5.87v11.41a.35.35,0,0,1-.36.36Zm-.43-5.58v-1.91a.2.2,0,0,0-.22-.22H364.6c-3,0-4.28.87-4.28,2.81,0,1.76,1.29,2.7,3.6,2.7C366.62,213,368.27,211.74,368.27,209.62Z"/><path class="cls-1" d="M376.59,215.2a.34.34,0,0,1-.36-.36V191.08a.34.34,0,0,1,.36-.36h2.3a.34.34,0,0,1,.36.36v8.85h0c.83-1.36,2.3-2.37,4.89-2.37,3,0,5.08,1.4,5.94,4.14a19.78,19.78,0,0,1,0,9.75c-.86,2.74-2.95,4.14-5.94,4.14-2.59,0-4.06-1-4.89-2.41h0v1.66a.34.34,0,0,1-.36.36Zm10.65-5a11.89,11.89,0,0,0,.4-3.6,12.15,12.15,0,0,0-.4-3.6,4.08,4.08,0,0,0-7.59,0,11.12,11.12,0,0,0-.4,3.6,11,11,0,0,0,.4,3.6,4.05,4.05,0,0,0,7.59,0Z"/><path class="cls-1" d="M405.31,215.2a.35.35,0,0,1-.36-.36v-1.52h0c-.79,1.3-2.49,2.27-5.11,2.27-3.28,0-5.8-1.69-5.8-5.18s2.52-5.33,6.73-5.33h3.93a.19.19,0,0,0,.21-.21v-1.26c0-2.38-.93-3.39-4.14-3.39a6.7,6.7,0,0,0-4.17,1.23.33.33,0,0,1-.51,0l-1-1.66a.38.38,0,0,1,.07-.5,9.58,9.58,0,0,1,5.87-1.69c4.9,0,6.77,1.62,6.77,5.87v11.41a.35.35,0,0,1-.36.36Zm-.43-5.58v-1.91a.19.19,0,0,0-.21-.22h-3.46c-3,0-4.28.87-4.28,2.81,0,1.76,1.29,2.7,3.6,2.7C403.23,213,404.88,211.74,404.88,209.62Z"/><path class="cls-1" d="M410,221.68a.34.34,0,0,1-.36-.36v-2.09a.34.34,0,0,1,.36-.36h.57c1.69,0,2.27-.47,2.27-2.31V198.31a.34.34,0,0,1,.36-.36h2.3a.34.34,0,0,1,.36.36v18.18c0,3.71-1.65,5.19-5.14,5.19Zm3.13-27.61a.34.34,0,0,1-.36-.36v-2.63a.34.34,0,0,1,.36-.36h2.45a.34.34,0,0,1,.36.36v2.63a.35.35,0,0,1-.36.36Z"/><path class="cls-1" d="M420.58,211a16.79,16.79,0,0,1,0-8.75c.94-2.95,3.46-4.64,6.8-4.64s5.87,1.69,6.81,4.64a17.07,17.07,0,0,1,0,8.75,7.31,7.31,0,0,1-13.61,0Zm10.69-.87a11.16,11.16,0,0,0,.4-3.52,10.91,10.91,0,0,0-.4-3.49,4.15,4.15,0,0,0-7.77,0,10.91,10.91,0,0,0-.4,3.49,11.16,11.16,0,0,0,.4,3.52,4.14,4.14,0,0,0,7.77,0Z"/><path class="cls-1" d="M445.63,213a.35.35,0,0,1,0-.5l1.48-1.59a.35.35,0,0,1,.5,0,8.37,8.37,0,0,0,5.33,2c2.52,0,3.78-1.08,3.78-2.62,0-1.37-.65-2.13-3.35-2.42l-1.83-.18c-3.39-.36-5.15-2-5.15-4.86,0-3.27,2.34-5.25,6.41-5.25a10.32,10.32,0,0,1,6.12,1.91.34.34,0,0,1,.07.5l-1.23,1.55a.35.35,0,0,1-.5.07,9.09,9.09,0,0,0-4.64-1.4c-2.16,0-3.28,1-3.28,2.37s.83,2.09,3.39,2.34l1.8.18c3.49.33,5.18,2.09,5.18,4.86,0,3.38-2.45,5.65-6.95,5.65A10.75,10.75,0,0,1,445.63,213Z"/><path class="cls-1" d="M463.27,210.91a17.36,17.36,0,0,1,0-8.71,7.25,7.25,0,0,1,13.53,0,15.08,15.08,0,0,1,.54,4.93.35.35,0,0,1-.39.36H466a.2.2,0,0,0-.22.22,6.47,6.47,0,0,0,.29,2.09,4.27,4.27,0,0,0,4.36,3,5.61,5.61,0,0,0,4.42-1.91c.18-.18.36-.22.54-.07l1.48,1.33a.32.32,0,0,1,0,.5,8.38,8.38,0,0,1-6.73,3C466.69,215.59,464.21,213.9,463.27,210.91ZM474,205.08a.19.19,0,0,0,.22-.21,6.05,6.05,0,0,0-.26-2,4.25,4.25,0,0,0-7.91,0,6.05,6.05,0,0,0-.26,2,.19.19,0,0,0,.22.21Z"/><path class="cls-1" d="M481.09,219.52a.33.33,0,0,1,0-.51l1.48-1.47a.34.34,0,0,1,.54,0,5.72,5.72,0,0,0,4.06,1.72c2.85,0,4.36-1.47,4.36-4.64v-2h0c-.79,1.44-2.27,2.38-4.78,2.38a5.66,5.66,0,0,1-5.8-4.17,18.06,18.06,0,0,1,0-9.08,5.65,5.65,0,0,1,5.8-4.17c2.51,0,4,.93,4.78,2.37h0v-1.62a.34.34,0,0,1,.36-.36h2.3a.34.34,0,0,1,.36.36v16.13c0,4.9-2.66,7.63-7.52,7.63A7.82,7.82,0,0,1,481.09,219.52Zm10.08-9.9a10.43,10.43,0,0,0,.4-3.35,10.55,10.55,0,0,0-.4-3.35,3.89,3.89,0,0,0-7.3,0,10.75,10.75,0,0,0-.44,3.35,10.62,10.62,0,0,0,.44,3.35,3.51,3.51,0,0,0,3.63,2.59A3.56,3.56,0,0,0,491.17,209.62Z"/><path class="cls-1" d="M510.61,215.2a.35.35,0,0,1-.36-.36v-1.62h0a5.26,5.26,0,0,1-4.72,2.37c-3.78,0-6-2.59-6-6.51V198.31a.34.34,0,0,1,.35-.36h2.31a.34.34,0,0,1,.36.36v10.05c0,2.81,1.26,4.43,3.81,4.43,2.34,0,3.89-1.66,3.89-4.25V198.31a.35.35,0,0,1,.36-.36h2.31a.35.35,0,0,1,.36.36v16.53a.35.35,0,0,1-.36.36Z"/><path class="cls-1" d="M518.82,215.2a.35.35,0,0,1-.36-.36V198.31a.35.35,0,0,1,.36-.36h2.31a.34.34,0,0,1,.35.36v1.77h0a4.8,4.8,0,0,1,4.57-2.52,5.3,5.3,0,0,1,3.53,1.29c.18.18.22.33.07.51l-1.33,1.76a.32.32,0,0,1-.5.07,4.92,4.92,0,0,0-2.67-.82c-2.63,0-3.71,2-3.71,5v9.43a.34.34,0,0,1-.35.36Z"/><path class="cls-1" d="M531.38,211a17.07,17.07,0,0,1,0-8.75c.94-2.95,3.46-4.64,6.81-4.64s5.86,1.69,6.8,4.64a16.79,16.79,0,0,1,0,8.75,7.31,7.31,0,0,1-13.61,0Zm10.7-.87a11.52,11.52,0,0,0,.39-3.52,11.26,11.26,0,0,0-.39-3.49,4.15,4.15,0,0,0-7.78,0,10.91,10.91,0,0,0-.4,3.49,11.16,11.16,0,0,0,.4,3.52,4.15,4.15,0,0,0,7.78,0Z"/><path class="cls-1" d="M557.16,210.91a17.21,17.21,0,0,1,0-8.71,7.26,7.26,0,0,1,13.54,0,15.08,15.08,0,0,1,.54,4.93.35.35,0,0,1-.4.36H559.9a.2.2,0,0,0-.22.22,6.47,6.47,0,0,0,.29,2.09,4.25,4.25,0,0,0,4.35,3,5.63,5.63,0,0,0,4.43-1.91c.18-.18.36-.22.54-.07l1.48,1.33a.31.31,0,0,1,0,.5,8.38,8.38,0,0,1-6.73,3C560.58,215.59,558.1,213.9,557.16,210.91Zm10.73-5.83a.19.19,0,0,0,.21-.21,6.08,6.08,0,0,0-.25-2,4.25,4.25,0,0,0-7.92,0,6.08,6.08,0,0,0-.25,2c0,.14.07.21.22.21Z"/><path class="cls-1" d="M586.53,215.2a.35.35,0,0,1-.36-.36V204.76c0-2.77-1.26-4.39-3.85-4.39a3.87,3.87,0,0,0-4,4.21v10.26a.34.34,0,0,1-.36.36h-2.3a.34.34,0,0,1-.36-.36V198.31a.34.34,0,0,1,.36-.36H578a.34.34,0,0,1,.36.36v1.59h0a5.45,5.45,0,0,1,4.82-2.34c3.75,0,6,2.55,6,6.48v10.8a.35.35,0,0,1-.36.36Z"/><path class="cls-1" d="M251.85,253.2a.34.34,0,0,1-.36-.36v-1.52h0c-.79,1.3-2.48,2.27-5.11,2.27-3.27,0-5.79-1.69-5.79-5.18s2.52-5.33,6.73-5.33h3.92c.15,0,.22-.07.22-.21v-1.26c0-2.38-.94-3.39-4.14-3.39a6.71,6.71,0,0,0-4.18,1.23.32.32,0,0,1-.5,0l-1-1.66a.37.37,0,0,1,.07-.5,9.54,9.54,0,0,1,5.87-1.69c4.89,0,6.76,1.62,6.76,5.87v11.41a.34.34,0,0,1-.36.36Zm-.43-5.58v-1.91a.2.2,0,0,0-.22-.22h-3.45c-3,0-4.29.87-4.29,2.81,0,1.76,1.3,2.7,3.6,2.7C249.76,251,251.42,249.74,251.42,247.62Z"/><path class="cls-1" d="M263.51,253.38c-3,0-4.21-1.44-4.21-4.54V229.08a.34.34,0,0,1,.36-.36H262a.34.34,0,0,1,.36.36v19.58c0,1.44.54,1.91,1.72,1.91h.69a.34.34,0,0,1,.36.36V253a.35.35,0,0,1-.36.36Z"/><path class="cls-1" d="M273.45,253.38c-3.35,0-4.64-1.52-4.64-4.9v-9.86a.2.2,0,0,0-.22-.22h-1.44a.34.34,0,0,1-.36-.36v-1.73a.34.34,0,0,1,.36-.36h1.44a.19.19,0,0,0,.22-.21v-4.86a.34.34,0,0,1,.36-.36h2.3a.34.34,0,0,1,.36.36v4.86c0,.14.07.21.22.21h2.73a.34.34,0,0,1,.36.36V238a.34.34,0,0,1-.36.36h-2.73a.19.19,0,0,0-.22.22v9.75c0,1.73.65,2.2,2.2,2.2h.75a.34.34,0,0,1,.36.36V253a.34.34,0,0,1-.36.36Z"/><path class="cls-1" d="M289.94,253.2a.34.34,0,0,1-.36-.36v-1.62h0a5.25,5.25,0,0,1-4.71,2.37c-3.78,0-6-2.59-6-6.51V236.31a.34.34,0,0,1,.36-.36h2.3a.34.34,0,0,1,.36.36v10.05c0,2.81,1.26,4.43,3.82,4.43,2.34,0,3.89-1.66,3.89-4.25V236.31a.34.34,0,0,1,.36-.36h2.3a.34.34,0,0,1,.36.36v16.53a.34.34,0,0,1-.36.36Z"/><path class="cls-1" d="M298.15,253.2a.34.34,0,0,1-.36-.36V236.31a.34.34,0,0,1,.36-.36h2.3a.34.34,0,0,1,.36.36v1.77h0a4.78,4.78,0,0,1,4.57-2.52,5.29,5.29,0,0,1,3.52,1.29c.18.18.22.33.08.51l-1.34,1.76a.32.32,0,0,1-.5.07,4.89,4.89,0,0,0-2.66-.82c-2.63,0-3.71,2-3.71,5v9.43a.34.34,0,0,1-.36.36Z"/><path class="cls-1" d="M321.4,253.2a.34.34,0,0,1-.36-.36v-1.52h0c-.79,1.3-2.48,2.27-5.11,2.27-3.27,0-5.79-1.69-5.79-5.18s2.52-5.33,6.73-5.33h3.92c.15,0,.22-.07.22-.21v-1.26c0-2.38-.94-3.39-4.14-3.39a6.71,6.71,0,0,0-4.18,1.23.32.32,0,0,1-.5,0l-1-1.66a.38.38,0,0,1,.07-.5,9.54,9.54,0,0,1,5.87-1.69c4.89,0,6.76,1.62,6.76,5.87v11.41a.34.34,0,0,1-.36.36Zm-.43-5.58v-1.91a.2.2,0,0,0-.22-.22H317.3c-3,0-4.29.87-4.29,2.81,0,1.76,1.3,2.7,3.6,2.7C319.31,251,321,249.74,321,247.62Z"/><path class="cls-1" d="M327.74,251a.33.33,0,0,1,0-.5l1.47-1.59a.36.36,0,0,1,.51,0,8.34,8.34,0,0,0,5.32,2c2.52,0,3.78-1.08,3.78-2.62,0-1.37-.64-2.13-3.34-2.42l-1.84-.18c-3.38-.36-5.15-2-5.15-4.86,0-3.27,2.34-5.25,6.41-5.25a10.32,10.32,0,0,1,6.12,1.91.34.34,0,0,1,.07.5l-1.22,1.55a.36.36,0,0,1-.51.07,9.06,9.06,0,0,0-4.64-1.4c-2.16,0-3.27,1-3.27,2.37s.82,2.09,3.38,2.34l1.8.18c3.49.33,5.18,2.09,5.18,4.86,0,3.38-2.45,5.65-6.95,5.65A10.72,10.72,0,0,1,327.74,251Z"/><path class="cls-1" d="M345.41,249.74a.34.34,0,0,1,.36-.36h2.74a.34.34,0,0,1,.36.36v3.1a.35.35,0,0,1-.36.36h-2.74a.35.35,0,0,1-.36-.36Z"/></g></g></svg>