<svg xmlns="http://www.w3.org/2000/svg" viewBox="0 0 306.41 62.95"><defs><style>.cls-1{fill:#1751a2;}.cls-2{fill:#68b9d8;}.cls-3{fill:#f7cb4f;}.cls-4{fill:#f4b008;}.cls-5{fill:#efe7e4;}.cls-6{fill:#d8d1d0;}.cls-7{fill:#3695b2;}.cls-8{fill:#f2464f;}.cls-9{fill:#353535;}.cls-10{fill:#262626;}.cls-11{fill:#af273b;}.cls-12{fill:#d3333c;}.cls-13{fill:#ffc89f;}.cls-14{fill:#f7b081;}</style></defs><title>sefguir1</title><g id="Capa_2" data-name="Capa 2"><g id="Capa_1-2" data-name="Capa 1"><path class="cls-1" d="M106.36,41.39a.3.3,0,0,1,.31-.31h3a.29.29,0,0,1,.31.31V61.82a.29.29,0,0,1-.31.31h-3a.3.3,0,0,1-.31-.31Z"/><path class="cls-1" d="M114.66,41.39a.29.29,0,0,1,.31-.31h2.84a.56.56,0,0,1,.53.31l8.57,14.52H127V41.39a.29.29,0,0,1,.3-.31H130a.3.3,0,0,1,.31.31V61.82a.3.3,0,0,1-.31.31h-2.82a.55.55,0,0,1-.53-.31l-8.6-14.48H118V61.82a.3.3,0,0,1-.31.31H115a.29.29,0,0,1-.31-.31Z"/><path class="cls-1" d="M140.13,62.13a.41.41,0,0,1-.38-.31L133.1,41.39c-.06-.18.06-.31.25-.31h3a.37.37,0,0,1,.4.31l4.71,14.92h.09l4.52-14.92a.37.37,0,0,1,.4-.31h3c.19,0,.31.13.25.31L143,61.82a.41.41,0,0,1-.38.31Z"/><path class="cls-1" d="M152.47,41.39a.3.3,0,0,1,.31-.31H166a.3.3,0,0,1,.31.31v2.67a.29.29,0,0,1-.31.3h-9.66a.17.17,0,0,0-.18.19v5.14a.16.16,0,0,0,.18.18h8.14a.29.29,0,0,1,.31.31v2.66a.29.29,0,0,1-.31.31h-8.14a.17.17,0,0,0-.18.19v5.32c0,.13.06.19.18.19H166a.29.29,0,0,1,.31.31v2.66a.3.3,0,0,1-.31.31H152.78a.3.3,0,0,1-.31-.31Z"/><path class="cls-1" d="M169,59.68a.33.33,0,0,1-.06-.46L170.86,57a.28.28,0,0,1,.43,0A9.42,9.42,0,0,0,177,59.19c2.5,0,4-1.27,4-3,0-1.52-.93-2.51-3.84-2.91L176,53.09c-4.06-.55-6.35-2.5-6.35-6,0-3.81,2.79-6.35,7.12-6.35a11.56,11.56,0,0,1,6.81,2.11.28.28,0,0,1,.06.43l-1.49,2.29a.29.29,0,0,1-.43.09,8.91,8.91,0,0,0-5-1.64c-2.14,0-3.32,1.18-3.32,2.82,0,1.46,1,2.45,3.87,2.85l1.12.15c4.05.56,6.28,2.48,6.28,6.1s-2.69,6.53-7.92,6.53A11.85,11.85,0,0,1,169,59.68Z"/><path class="cls-1" d="M193,62.13a.3.3,0,0,1-.31-.31V44.55a.17.17,0,0,0-.18-.19H187a.29.29,0,0,1-.31-.3V41.39a.29.29,0,0,1,.31-.31h15a.29.29,0,0,1,.31.31v2.67a.29.29,0,0,1-.31.3h-5.51a.17.17,0,0,0-.18.19V61.82a.3.3,0,0,1-.31.31Z"/><path class="cls-1" d="M205.3,41.39a.3.3,0,0,1,.31-.31h3a.29.29,0,0,1,.31.31V61.82a.29.29,0,0,1-.31.31h-3a.3.3,0,0,1-.31-.31Z"/><path class="cls-1" d="M213,51.61c0-3.31.12-4.49.55-5.79,1.09-3.34,3.81-5.08,7.52-5.08,3.93,0,6.47,2.11,7.34,4.46a.33.33,0,0,1-.13.43l-2.59,1.15a.33.33,0,0,1-.41-.16A4.48,4.48,0,0,0,221,44a3.83,3.83,0,0,0-4,2.76c-.25.77-.37,1.82-.37,4.83a16.63,16.63,0,0,0,.37,4.82,3.82,3.82,0,0,0,4,2.76,4,4,0,0,0,4-2.63,8.93,8.93,0,0,0,.34-2.72.17.17,0,0,0-.19-.19H221.7a.29.29,0,0,1-.31-.31V50.86a.3.3,0,0,1,.31-.31h7a.3.3,0,0,1,.31.31v1.83a17.32,17.32,0,0,1-.5,4.61,7.32,7.32,0,0,1-7.43,5.17c-3.71,0-6.43-1.73-7.52-5.08C213.1,56.09,213,54.92,213,51.61Z"/><path class="cls-1" d="M237.7,41.39a.42.42,0,0,1,.41-.31H241a.42.42,0,0,1,.41.31l7.11,20.43c.07.18,0,.31-.21.31h-3a.37.37,0,0,1-.4-.31l-1.39-4.09h-7.92l-1.4,4.09a.36.36,0,0,1-.4.31h-3c-.22,0-.28-.13-.22-.31Zm4.62,13.09-2.79-8.17h-.09l-2.82,8.17Z"/><path class="cls-1" d="M251.35,41.39a.3.3,0,0,1,.31-.31h2.85a.54.54,0,0,1,.52.31l8.58,14.52h.12V41.39a.29.29,0,0,1,.31-.31h2.69a.29.29,0,0,1,.31.31V61.82a.29.29,0,0,1-.31.31h-2.81a.54.54,0,0,1-.53-.31l-8.6-14.48h-.13V61.82a.29.29,0,0,1-.31.31h-2.69a.3.3,0,0,1-.31-.31Z"/><path class="cls-1" d="M271.68,41.39a.3.3,0,0,1,.31-.31h7.52c3.63,0,6,1.61,7,4.68.34,1.05.53,2.19.53,5.85s-.19,4.79-.53,5.85c-1,3.06-3.4,4.67-7,4.67H272a.3.3,0,0,1-.31-.31Zm3.84,17.46h3.13c2.32,0,3.74-.78,4.36-2.66.22-.59.37-1.55.37-4.58s-.15-4-.37-4.58c-.62-1.89-2-2.67-4.36-2.67h-3.13a.17.17,0,0,0-.18.19V58.66C275.34,58.79,275.4,58.85,275.52,58.85Z"/><path class="cls-1" d="M291,57.39c-.44-1.3-.56-2.47-.56-5.78s.12-4.49.56-5.79c1.08-3.34,3.8-5.08,7.42-5.08s6.38,1.74,7.46,5.08c.43,1.3.56,2.48.56,5.79s-.13,4.48-.56,5.78c-1.08,3.35-3.81,5.08-7.46,5.08S292.05,60.74,291,57.39Zm11.35-1a16.63,16.63,0,0,0,.37-4.82c0-3-.12-4.06-.37-4.83a4.16,4.16,0,0,0-7.83,0,16.92,16.92,0,0,0-.37,4.83,17,17,0,0,0,.37,4.82,4.16,4.16,0,0,0,7.83,0Z"/><path class="cls-2" d="M106.36,14.45c0-4.24.16-5.57.71-7.22,1.37-4.35,4.74-6.55,9.25-6.55a9.37,9.37,0,0,1,9,5.73.35.35,0,0,1-.19.47l-3.33,1.61a.34.34,0,0,1-.51-.2,5.28,5.28,0,0,0-5-3.45,4.71,4.71,0,0,0-4.78,3.53c-.35,1.1-.47,2.16-.47,6.08s.12,5,.47,6.08a4.71,4.71,0,0,0,4.78,3.53,5.28,5.28,0,0,0,5-3.45.34.34,0,0,1,.51-.2L125.15,22a.35.35,0,0,1,.19.47,9.37,9.37,0,0,1-9,5.73c-4.51,0-7.88-2.2-9.25-6.55C106.52,20,106.36,18.68,106.36,14.45Z"/><path class="cls-2" d="M129.62,21.78c-.55-1.64-.71-3.13-.71-7.33s.16-5.69.71-7.33C131,2.88,134.44.68,139,.68s8.08,2.2,9.45,6.44c.55,1.64.71,3.13.71,7.33s-.16,5.69-.71,7.33c-1.37,4.24-4.82,6.44-9.45,6.44S131,26,129.62,21.78ZM144,20.57c.32-1,.47-2.36.47-6.12s-.15-5.14-.47-6.12a5.27,5.27,0,0,0-9.92,0c-.31,1-.47,2.32-.47,6.12s.16,5.14.47,6.12a5.27,5.27,0,0,0,9.92,0Z"/><path class="cls-2" d="M154.29,1.51a.38.38,0,0,1,.39-.4h3.61a.7.7,0,0,1,.67.4L169.82,19.9H170V1.51a.37.37,0,0,1,.39-.4h3.41a.37.37,0,0,1,.39.4V27.39a.36.36,0,0,1-.39.39h-3.57a.67.67,0,0,1-.66-.39L158.64,9h-.15V27.39a.37.37,0,0,1-.4.39h-3.41a.37.37,0,0,1-.39-.39Z"/><path class="cls-2" d="M186,27.78a.36.36,0,0,1-.39-.39V5.51a.21.21,0,0,0-.24-.24h-7a.37.37,0,0,1-.39-.39V1.51a.38.38,0,0,1,.39-.4h19.06a.37.37,0,0,1,.39.4V4.88a.37.37,0,0,1-.39.39h-7c-.16,0-.23.08-.23.24V27.39a.37.37,0,0,1-.4.39Z"/><path class="cls-2" d="M201.63,1.51a.38.38,0,0,1,.39-.4h3.84a.38.38,0,0,1,.4.4V27.39a.37.37,0,0,1-.4.39H202a.37.37,0,0,1-.39-.39Z"/><path class="cls-2" d="M212.14,1.51a.38.38,0,0,1,.39-.4h3.61a.7.7,0,0,1,.67.4L227.67,19.9h.16V1.51a.37.37,0,0,1,.39-.4h3.41a.37.37,0,0,1,.39.4V27.39a.36.36,0,0,1-.39.39h-3.57a.67.67,0,0,1-.66-.39L216.49,9h-.15V27.39a.37.37,0,0,1-.4.39h-3.41a.37.37,0,0,1-.39-.39Z"/><path class="cls-2" d="M252.77,18.33V1.51a.38.38,0,0,1,.39-.4H257a.38.38,0,0,1,.39.4v16.9c0,6.2-4.2,9.81-9.84,9.81s-9.81-3.61-9.81-9.81V1.51a.38.38,0,0,1,.39-.4H242a.38.38,0,0,1,.39.4V18.33c0,3.69,2.16,5.73,5.18,5.73S252.77,22,252.77,18.33Z"/><path class="cls-2" d="M269.28,1.51a.51.51,0,0,1,.51-.4h3.61a.51.51,0,0,1,.51.4l9,25.88c.08.24,0,.39-.27.39h-3.85a.47.47,0,0,1-.51-.39l-1.76-5.18h-10l-1.77,5.18a.46.46,0,0,1-.51.39h-3.8c-.28,0-.35-.15-.28-.39Zm5.85,16.59L271.6,7.74h-.12L267.91,18.1Z"/><path class="cls-2" d="M301.72,27.78a.55.55,0,0,1-.59-.39L296,17h-4.59a.21.21,0,0,0-.23.23V27.39a.37.37,0,0,1-.4.39H287a.37.37,0,0,1-.39-.39V1.51a.38.38,0,0,1,.39-.4h10.32c4.9,0,8.51,3.26,8.51,8a7.58,7.58,0,0,1-5.06,7.33l5.61,10.86a.32.32,0,0,1-.28.51Zm-.51-18.7c0-2.32-1.65-3.81-4.08-3.81h-5.69a.21.21,0,0,0-.23.24v7.1a.21.21,0,0,0,.23.23h5.69C299.56,12.84,301.21,11.35,301.21,9.08Z"/><rect class="cls-2" x="77.86" y="0.69" width="4.71" height="61.56" rx="2.36"/><path class="cls-3" d="M48.34,42.61l-4.45-4.45a.89.89,0,0,0-.71-.27.92.92,0,0,0-.67.36,24.17,24.17,0,0,1-2,2.28,23,23,0,0,1-2.28,2,.92.92,0,0,0-.09,1.38l4.45,4.45a.92.92,0,0,0,1.3,0l4.45-4.45a.93.93,0,0,0,.27-.65A.91.91,0,0,0,48.34,42.61Z"/><path class="cls-4" d="M45.36,46.89l-5.63-5.62q-.72.66-1.5,1.26a.92.92,0,0,0-.09,1.38l4.45,4.45a.92.92,0,0,0,1.3,0Z"/><path class="cls-3" d="M41.82,7.18A24.5,24.5,0,0,0,7.17,41.84,24.5,24.5,0,0,0,41.82,7.18Z"/><path class="cls-4" d="M41.82,7.18A24.34,24.34,0,0,0,24.5,0c-.57,0-1.14,0-1.7.06A24.5,24.5,0,0,1,38.44,41.83,24.32,24.32,0,0,1,22.8,49c.56,0,1.13.06,1.7.06A24.51,24.51,0,0,0,41.82,7.18Z"/><path class="cls-5" d="M24.5,5.13A19.27,19.27,0,1,0,43.76,24.4,19.29,19.29,0,0,0,24.5,5.13Z"/><path class="cls-6" d="M24.5,5.13c-.59,0-1.16,0-1.73.08a19.27,19.27,0,0,1,0,38.38c.57,0,1.14.08,1.73.08a19.27,19.27,0,0,0,0-38.54Z"/><path class="cls-2" d="M37.33,38a13.45,13.45,0,0,0-4.86-6.69,13.88,13.88,0,0,0-8-2.71h0a13.88,13.88,0,0,0-8,2.71A13.45,13.45,0,0,0,11.66,38a.93.93,0,0,0,.28,1,19.27,19.27,0,0,0,25.11,0A.93.93,0,0,0,37.33,38Z"/><path class="cls-7" d="M37.33,38a13.45,13.45,0,0,0-4.86-6.69,13.88,13.88,0,0,0-7.73-2.7A17.22,17.22,0,0,1,35.09,39.37c.11.32.19.64.27.94A18.87,18.87,0,0,0,37.05,39,.93.93,0,0,0,37.33,38Z"/><path class="cls-8" d="M28.48,39.94l-1.66-7.47a.92.92,0,0,0-.9-.74H23.07a.92.92,0,0,0-.9.74l-1.66,7.47a1,1,0,0,0,.28.92l2.68,2.55a.87.87,0,0,0,.6.25h.85a.87.87,0,0,0,.6-.25l2.68-2.55A1,1,0,0,0,28.48,39.94Z"/><path class="cls-9" d="M61.27,53.28l-11.8-11.8a.93.93,0,0,0-.65-.27,1,1,0,0,0-.66.27l-6.7,6.7a.93.93,0,0,0-.27.65,1,1,0,0,0,.27.66l11.8,11.8a5.66,5.66,0,1,0,8-8Z"/><path class="cls-10" d="M62.73,58.78c-.43.29-.91.64-1.46,1a4.74,4.74,0,0,1-5.71-.76L43.07,46.57l-1.61,1.61a.93.93,0,0,0-.27.65,1,1,0,0,0,.27.66l11.8,11.8a5.67,5.67,0,0,0,9.47-2.51Z"/><path class="cls-11" d="M25.83,29.66l-1.75,3.43h1.84L27.52,30A13.62,13.62,0,0,0,25.83,29.66Z"/><path class="cls-12" d="M24.48,28.64a13.47,13.47,0,0,0-4.38.81L22,33.09H27l1.9-3.65a13.59,13.59,0,0,0-4.35-.8Z"/><path class="cls-11" d="M26.22,28.78l-2,4.31H27l1.9-3.65A13.43,13.43,0,0,0,26.22,28.78Z"/><path class="cls-13" d="M24.5,11.63a6.88,6.88,0,0,0-6.88,6.87v5.12a6.88,6.88,0,1,0,13.75,0V18.5A6.88,6.88,0,0,0,24.5,11.63Z"/><path class="cls-14" d="M24.5,11.63a6.83,6.83,0,0,0-1.7.21A6.88,6.88,0,0,1,28,18.5v5.12a6.88,6.88,0,0,1-5.19,6.66,6.85,6.85,0,0,0,8.57-6.66V18.5A6.88,6.88,0,0,0,24.5,11.63Z"/><path d="M31.37,21.06V18.5a6.88,6.88,0,0,0-13.75,0v2.56h.93c5.2,0,7.09-3.51,7.09-3.51S27,21,30.44,21.06Z"/><path class="cls-12" d="M27,33.09H24.17l1.57,7.06-2.85,2.71.58.55a.87.87,0,0,0,.6.25h.85a.87.87,0,0,0,.6-.25l2.68-2.55a1,1,0,0,0,.28-.92Z"/></g></g></svg>